<?xml version="1.0" encoding="UTF-8" standalone="no"?>
<!DOCTYPE svg PUBLIC "-//W3C//DTD SVG 1.1//EN"
 "http://www.w3.org/Graphics/SVG/1.1/DTD/svg11.dtd">
<!-- Generated by graphviz version 2.38.0 (20140413.2041)
 -->
<!-- Title: G Pages: 1 -->
<svg width="5200pt" height="684pt"
 viewBox="0.00 0.00 5200.00 684.00" xmlns="http://www.w3.org/2000/svg" xmlns:xlink="http://www.w3.org/1999/xlink">
<g id="graph0" class="graph" transform="scale(1 1) rotate(0) translate(4 680)">
<title>G</title>
<polygon fill="white" stroke="none" points="-4,4 -4,-680 5196,-680 5196,4 -4,4"/>
<g id="clust1" class="cluster"><title>clusterServerID_2347d2f455dd</title>
<polygon fill="none" stroke="black" points="1461,-398 1461,-668 2849,-668 2849,-398 1461,-398"/>
<text text-anchor="middle" x="2155" y="-652.8" font-family="Times,serif" font-size="14.00">clusterServerID_2347d2f455dd</text>
</g>
<g id="clust2" class="cluster"><title>clusterServerID_5f846fd567&#45;g8dn6</title>
<polygon fill="none" stroke="black" points="3312,-182 3312,-257 3652,-257 3652,-182 3312,-182"/>
<text text-anchor="middle" x="3482" y="-241.8" font-family="Times,serif" font-size="14.00">clusterServerID_5f846fd567&#45;g8dn6</text>
</g>
<g id="clust3" class="cluster"><title>clusterServerID_6df85d7674&#45;f2xxt</title>
<polygon fill="none" stroke="black" points="830,-398 830,-473 1166,-473 1166,-398 830,-398"/>
<text text-anchor="middle" x="998" y="-457.8" font-family="Times,serif" font-size="14.00">clusterServerID_6df85d7674&#45;f2xxt</text>
</g>
<g id="clust4" class="cluster"><title>clusterServerID_7cf8268e6ab5</title>
<polygon fill="none" stroke="black" points="3660,-8 3660,-257 5184,-257 5184,-8 3660,-8"/>
<text text-anchor="middle" x="4422" y="-241.8" font-family="Times,serif" font-size="14.00">clusterServerID_7cf8268e6ab5</text>
</g>
<g id="clust5" class="cluster"><title>clusterServerID_OuterContainerID</title>
<polygon fill="none" stroke="black" points="8,-182 8,-365 3304,-365 3304,-182 8,-182"/>
<text text-anchor="middle" x="1656" y="-349.8" font-family="Times,serif" font-size="14.00">clusterServerID_OuterContainerID</text>
</g>
<!-- 10.1.80.93:59198#ServerID_OuterContainerID -->
<g id="node1" class="node"><title>10.1.80.93:59198#ServerID_OuterContainerID</title>
<polygon fill="none" stroke="black" points="999,-334 671.56,-316 999,-298 1326.44,-316 999,-334"/>
<text text-anchor="middle" x="999" y="-312.3" font-family="Times,serif" font-size="14.00">10.1.80.93:59198#ServerID_OuterContainerID</text>
</g>
<!-- 1_fwatchdog#ServerID_6df85d7674&#45;f2xxt -->
<g id="node2" class="node"><title>1_fwatchdog#ServerID_6df85d7674&#45;f2xxt</title>
<polygon fill="none" stroke="black" points="1158,-442 838,-442 838,-406 1158,-406 1158,-442"/>
<text text-anchor="middle" x="998" y="-420.3" font-family="Times,serif" font-size="14.00">1_fwatchdog#ServerID_6df85d7674&#45;f2xxt</text>
</g>
<!-- 10.1.80.93:59198#ServerID_OuterContainerID&#45;&gt;1_fwatchdog#ServerID_6df85d7674&#45;f2xxt -->
<g id="edge1" class="edge"><title>10.1.80.93:59198#ServerID_OuterContainerID&#45;&gt;1_fwatchdog#ServerID_6df85d7674&#45;f2xxt</title>
<path fill="none" stroke="black" d="M1013.86,-333.197C1025.08,-347.485 1037.4,-368.942 1030,-388 1028.64,-391.507 1026.74,-394.876 1024.55,-398.046"/>
<polygon fill="black" stroke="black" points="1021.75,-395.944 1018.2,-405.928 1027.2,-400.335 1021.75,-395.944"/>
<text text-anchor="middle" x="1053" y="-376.8" font-family="Times,serif" font-size="14.00">POST</text>
</g>
<!-- 1_fwatchdog#ServerID_2347d2f455dd -->
<g id="node9" class="node"><title>1_fwatchdog#ServerID_2347d2f455dd</title>
<polygon fill="none" stroke="black" points="2372,-637 2076,-637 2076,-601 2372,-601 2372,-637"/>
<text text-anchor="middle" x="2224" y="-615.3" font-family="Times,serif" font-size="14.00">1_fwatchdog#ServerID_2347d2f455dd</text>
</g>
<!-- 10.1.80.93:59198#ServerID_OuterContainerID&#45;&gt;1_fwatchdog#ServerID_2347d2f455dd -->
<g id="edge11" class="edge"><title>10.1.80.93:59198#ServerID_OuterContainerID&#45;&gt;1_fwatchdog#ServerID_2347d2f455dd</title>
<path fill="none" stroke="black" d="M1070.46,-330.099C1138.27,-341.84 1243.18,-358.227 1335,-365 1345.33,-365.762 2819.12,-366.268 2827,-373 2929.38,-460.511 2884.18,-511.91 2850,-550 2819.23,-584.297 2557.46,-602.913 2382.31,-611.627"/>
<polygon fill="black" stroke="black" points="2382.02,-608.137 2372.21,-612.123 2382.37,-615.128 2382.02,-608.137"/>
<text text-anchor="middle" x="2906.5" y="-484.8" font-family="Times,serif" font-size="14.00">read</text>
</g>
<!-- 1_fwatchdog#ServerID_6df85d7674&#45;f2xxt&#45;&gt;10.1.80.93:59198#ServerID_OuterContainerID -->
<g id="edge6" class="edge"><title>1_fwatchdog#ServerID_6df85d7674&#45;f2xxt&#45;&gt;10.1.80.93:59198#ServerID_OuterContainerID</title>
<path fill="none" stroke="black" d="M959.069,-405.889C946.19,-397.513 936.405,-386.341 942,-373 947.473,-359.951 957.633,-348.41 967.877,-339.248"/>
<polygon fill="black" stroke="black" points="970.244,-341.83 975.651,-332.719 965.742,-336.47 970.244,-341.83"/>
<text text-anchor="middle" x="984" y="-376.8" font-family="Times,serif" font-size="14.00">RESPONSE</text>
</g>
<!-- gateway:8080#ServerID_OuterContainerID -->
<g id="node3" class="node"><title>gateway:8080#ServerID_OuterContainerID</title>
<polygon fill="none" stroke="black" points="1648,-334 1343.52,-316 1648,-298 1952.48,-316 1648,-334"/>
<text text-anchor="middle" x="1648" y="-312.3" font-family="Times,serif" font-size="14.00">gateway:8080#ServerID_OuterContainerID</text>
</g>
<!-- 1_fwatchdog#ServerID_6df85d7674&#45;f2xxt&#45;&gt;gateway:8080#ServerID_OuterContainerID -->
<g id="edge4" class="edge"><title>1_fwatchdog#ServerID_6df85d7674&#45;f2xxt&#45;&gt;gateway:8080#ServerID_OuterContainerID</title>
<path fill="none" stroke="black" d="M1083.86,-405.983C1137.52,-395.669 1208.14,-382.678 1271,-373 1299.33,-368.638 1306.61,-368.951 1335,-365 1411.21,-354.396 1497.64,-341.039 1560.34,-331.11"/>
<polygon fill="black" stroke="black" points="1561.26,-334.508 1570.59,-329.484 1560.16,-327.595 1561.26,-334.508"/>
<text text-anchor="middle" x="1291" y="-376.8" font-family="Times,serif" font-size="14.00">POST</text>
</g>
<!-- 10.1.80.93:8080#ServerID_OuterContainerID -->
<g id="node6" class="node"><title>10.1.80.93:8080#ServerID_OuterContainerID</title>
<polygon fill="none" stroke="black" points="335,-334 16.1049,-316 335,-298 653.895,-316 335,-334"/>
<text text-anchor="middle" x="335" y="-312.3" font-family="Times,serif" font-size="14.00">10.1.80.93:8080#ServerID_OuterContainerID</text>
</g>
<!-- 1_fwatchdog#ServerID_6df85d7674&#45;f2xxt&#45;&gt;10.1.80.93:8080#ServerID_OuterContainerID -->
<g id="edge5" class="edge"><title>1_fwatchdog#ServerID_6df85d7674&#45;f2xxt&#45;&gt;10.1.80.93:8080#ServerID_OuterContainerID</title>
<path fill="none" stroke="black" d="M891.478,-405.969C761.703,-385.221 544.83,-350.548 423.707,-331.182"/>
<polygon fill="black" stroke="black" points="424.15,-327.709 413.722,-329.586 423.044,-334.621 424.15,-327.709"/>
<text text-anchor="middle" x="785" y="-376.8" font-family="Times,serif" font-size="14.00">POST</text>
</g>
<!-- gateway:8080#ServerID_OuterContainerID&#45;&gt;1_fwatchdog#ServerID_6df85d7674&#45;f2xxt -->
<g id="edge2" class="edge"><title>gateway:8080#ServerID_OuterContainerID&#45;&gt;1_fwatchdog#ServerID_6df85d7674&#45;f2xxt</title>
<path fill="none" stroke="black" d="M1592.05,-330.722C1526.15,-346.468 1413.19,-372.153 1315,-388 1267.54,-395.66 1215.81,-402.15 1168.16,-407.382"/>
<polygon fill="black" stroke="black" points="1167.63,-403.92 1158.06,-408.48 1168.38,-410.879 1167.63,-403.92"/>
<text text-anchor="middle" x="1440" y="-376.8" font-family="Times,serif" font-size="14.00">RESPONSE</text>
</g>
<!-- 10.1.80.93:51206#ServerID_OuterContainerID -->
<g id="node4" class="node"><title>10.1.80.93:51206#ServerID_OuterContainerID</title>
<polygon fill="none" stroke="black" points="2297,-334 1969.56,-316 2297,-298 2624.44,-316 2297,-334"/>
<text text-anchor="middle" x="2297" y="-312.3" font-family="Times,serif" font-size="14.00">10.1.80.93:51206#ServerID_OuterContainerID</text>
</g>
<!-- 1_fwatchdog#ServerID_5f846fd567&#45;g8dn6 -->
<g id="node5" class="node"><title>1_fwatchdog#ServerID_5f846fd567&#45;g8dn6</title>
<polygon fill="none" stroke="black" points="3644,-226 3320,-226 3320,-190 3644,-190 3644,-226"/>
<text text-anchor="middle" x="3482" y="-204.3" font-family="Times,serif" font-size="14.00">1_fwatchdog#ServerID_5f846fd567&#45;g8dn6</text>
</g>
<!-- 10.1.80.93:51206#ServerID_OuterContainerID&#45;&gt;1_fwatchdog#ServerID_5f846fd567&#45;g8dn6 -->
<g id="edge3" class="edge"><title>10.1.80.93:51206#ServerID_OuterContainerID&#45;&gt;1_fwatchdog#ServerID_5f846fd567&#45;g8dn6</title>
<path fill="none" stroke="black" d="M2441.12,-305.914C2608.76,-295.467 2893.88,-278.079 3139,-265 3214.09,-260.993 3233.74,-268.849 3308,-257 3346.59,-250.843 3388.86,-239.296 3422.08,-229.071"/>
<polygon fill="black" stroke="black" points="3423.14,-232.407 3431.64,-226.088 3421.05,-225.725 3423.14,-232.407"/>
<text text-anchor="middle" x="3159" y="-268.8" font-family="Times,serif" font-size="14.00">POST</text>
</g>
<!-- 1_fwatchdog#ServerID_7cf8268e6ab5 -->
<g id="node13" class="node"><title>1_fwatchdog#ServerID_7cf8268e6ab5</title>
<polygon fill="none" stroke="black" points="4712,-226 4418,-226 4418,-190 4712,-190 4712,-226"/>
<text text-anchor="middle" x="4565" y="-204.3" font-family="Times,serif" font-size="14.00">1_fwatchdog#ServerID_7cf8268e6ab5</text>
</g>
<!-- 10.1.80.93:51206#ServerID_OuterContainerID&#45;&gt;1_fwatchdog#ServerID_7cf8268e6ab5 -->
<g id="edge17" class="edge"><title>10.1.80.93:51206#ServerID_OuterContainerID&#45;&gt;1_fwatchdog#ServerID_7cf8268e6ab5</title>
<path fill="none" stroke="black" d="M2450.43,-306.402C2507.71,-303.413 2573.32,-300.248 2633,-298 2955.98,-285.833 3037.07,-293.507 3360,-280 3736.01,-264.272 4177.45,-235.672 4407.49,-219.999"/>
<polygon fill="black" stroke="black" points="4407.87,-223.481 4417.61,-219.308 4407.39,-216.497 4407.87,-223.481"/>
<text text-anchor="middle" x="3674.5" y="-268.8" font-family="Times,serif" font-size="14.00">read</text>
</g>
<!-- 1_fwatchdog#ServerID_5f846fd567&#45;g8dn6&#45;&gt;10.1.80.93:51206#ServerID_OuterContainerID -->
<g id="edge8" class="edge"><title>1_fwatchdog#ServerID_5f846fd567&#45;g8dn6&#45;&gt;10.1.80.93:51206#ServerID_OuterContainerID</title>
<path fill="none" stroke="black" d="M3427.97,-226.004C3367.9,-243.882 3267.66,-270.683 3179,-280 2937.53,-305.374 2875.59,-287.865 2633,-298 2577.65,-300.312 2517.19,-303.245 2463.01,-306.021"/>
<polygon fill="black" stroke="black" points="2462.78,-302.528 2452.97,-306.537 2463.13,-309.519 2462.78,-302.528"/>
<text text-anchor="middle" x="3314" y="-268.8" font-family="Times,serif" font-size="14.00">RESPONSE</text>
</g>
<!-- 10.1.80.93:8080#ServerID_OuterContainerID&#45;&gt;1_fwatchdog#ServerID_6df85d7674&#45;f2xxt -->
<g id="edge9" class="edge"><title>10.1.80.93:8080#ServerID_OuterContainerID&#45;&gt;1_fwatchdog#ServerID_6df85d7674&#45;f2xxt</title>
<path fill="none" stroke="black" d="M379.771,-331.623C431.855,-348.029 520.717,-374.15 599,-388 673.401,-401.163 756.523,-409.457 827.561,-414.645"/>
<polygon fill="black" stroke="black" points="827.728,-418.166 837.952,-415.388 828.227,-411.183 827.728,-418.166"/>
<text text-anchor="middle" x="641" y="-376.8" font-family="Times,serif" font-size="14.00">RESPONSE</text>
</g>
<!-- 10.1.80.1:49770#ServerID_OuterContainerID -->
<g id="node18" class="node"><title>10.1.80.1:49770#ServerID_OuterContainerID</title>
<polygon fill="none" stroke="black" points="335,-226 16.1049,-208 335,-190 653.895,-208 335,-226"/>
<text text-anchor="middle" x="335" y="-204.3" font-family="Times,serif" font-size="14.00">10.1.80.1:49770#ServerID_OuterContainerID</text>
</g>
<!-- 10.1.80.93:8080#ServerID_OuterContainerID&#45;&gt;10.1.80.1:49770#ServerID_OuterContainerID -->
<g id="edge24" class="edge"><title>10.1.80.93:8080#ServerID_OuterContainerID&#45;&gt;10.1.80.1:49770#ServerID_OuterContainerID</title>
<path fill="none" stroke="black" d="M298.241,-299.99C290.168,-294.888 282.649,-288.31 278,-280 267.985,-262.099 282.769,-244.102 299.784,-230.707"/>
<polygon fill="black" stroke="black" points="302.224,-233.258 308.218,-224.522 298.084,-227.614 302.224,-233.258"/>
<text text-anchor="middle" x="320" y="-268.8" font-family="Times,serif" font-size="14.00">RESPONSE</text>
</g>
<!-- 10.0.88.125:31112#ServerID_OuterContainerID -->
<g id="node19" class="node"><title>10.0.88.125:31112#ServerID_OuterContainerID</title>
<polygon fill="none" stroke="black" points="1007,-226 671.515,-208 1007,-190 1342.48,-208 1007,-226"/>
<text text-anchor="middle" x="1007" y="-204.3" font-family="Times,serif" font-size="14.00">10.0.88.125:31112#ServerID_OuterContainerID</text>
</g>
<!-- 10.1.80.93:8080#ServerID_OuterContainerID&#45;&gt;10.0.88.125:31112#ServerID_OuterContainerID -->
<g id="edge25" class="edge"><title>10.1.80.93:8080#ServerID_OuterContainerID&#45;&gt;10.0.88.125:31112#ServerID_OuterContainerID</title>
<path fill="none" stroke="black" d="M414.394,-302.476C540.059,-282.654 784.064,-244.166 916.392,-223.292"/>
<polygon fill="black" stroke="black" points="917.17,-226.713 926.503,-221.698 916.079,-219.798 917.17,-226.713"/>
<text text-anchor="middle" x="693" y="-268.8" font-family="Times,serif" font-size="14.00">RESPONSE</text>
</g>
<!-- /etc/hosts#ServerID_2347d2f455dd -->
<g id="node7" class="node"><title>/etc/hosts#ServerID_2347d2f455dd</title>
<ellipse fill="none" stroke="black" cx="2236" cy="-532" rx="178.969" ry="18"/>
<text text-anchor="middle" x="2236" y="-528.3" font-family="Times,serif" font-size="14.00">/etc/hosts#ServerID_2347d2f455dd</text>
</g>
<!-- 13_node#ServerID_2347d2f455dd -->
<g id="node8" class="node"><title>13_node#ServerID_2347d2f455dd</title>
<polygon fill="none" stroke="black" points="2526.5,-442 2261.5,-442 2261.5,-406 2526.5,-406 2526.5,-442"/>
<text text-anchor="middle" x="2394" y="-420.3" font-family="Times,serif" font-size="14.00">13_node#ServerID_2347d2f455dd</text>
</g>
<!-- /etc/hosts#ServerID_2347d2f455dd&#45;&gt;13_node#ServerID_2347d2f455dd -->
<g id="edge7" class="edge"><title>/etc/hosts#ServerID_2347d2f455dd&#45;&gt;13_node#ServerID_2347d2f455dd</title>
<path fill="none" stroke="black" d="M2261.39,-513.969C2288.14,-496.019 2330.43,-467.646 2360.04,-447.78"/>
<polygon fill="black" stroke="black" points="2362.06,-450.642 2368.42,-442.164 2358.16,-444.829 2362.06,-450.642"/>
<text text-anchor="middle" x="2327.5" y="-484.8" font-family="Times,serif" font-size="14.00">read</text>
</g>
<!-- 13_node#ServerID_2347d2f455dd&#45;&gt;gateway:8080#ServerID_OuterContainerID -->
<g id="edge15" class="edge"><title>13_node#ServerID_2347d2f455dd&#45;&gt;gateway:8080#ServerID_OuterContainerID</title>
<path fill="none" stroke="black" d="M2261.73,-405.946C2175.95,-394.721 2061.79,-379.477 1961,-365 1885.1,-354.097 1798.98,-340.826 1736.32,-331.003"/>
<polygon fill="black" stroke="black" points="1736.5,-327.489 1726.08,-329.396 1735.42,-334.404 1736.5,-327.489"/>
<text text-anchor="middle" x="2145" y="-376.8" font-family="Times,serif" font-size="14.00">connect</text>
</g>
<!-- 10.152.183.10:53#ServerID_OuterContainerID -->
<g id="node12" class="node"><title>10.152.183.10:53#ServerID_OuterContainerID</title>
<polygon fill="none" stroke="black" points="2969,-334 2641.56,-316 2969,-298 3296.44,-316 2969,-334"/>
<text text-anchor="middle" x="2969" y="-312.3" font-family="Times,serif" font-size="14.00">10.152.183.10:53#ServerID_OuterContainerID</text>
</g>
<!-- 13_node#ServerID_2347d2f455dd&#45;&gt;10.152.183.10:53#ServerID_OuterContainerID -->
<g id="edge13" class="edge"><title>13_node#ServerID_2347d2f455dd&#45;&gt;10.152.183.10:53#ServerID_OuterContainerID</title>
<path fill="none" stroke="black" d="M2473.2,-405.956C2520.63,-395.935 2582.17,-383.261 2637,-373 2718.7,-357.709 2812.08,-342.127 2878.95,-331.295"/>
<polygon fill="black" stroke="black" points="2879.72,-334.716 2889.03,-329.665 2878.6,-327.806 2879.72,-334.716"/>
<text text-anchor="middle" x="2661.5" y="-376.8" font-family="Times,serif" font-size="14.00">sendto</text>
</g>
<!-- localhost:3000#ServerID_2347d2f455dd -->
<g id="node10" class="node"><title>localhost:3000#ServerID_2347d2f455dd</title>
<polygon fill="none" stroke="black" points="1754,-550 1469.12,-532 1754,-514 2038.88,-532 1754,-550"/>
<text text-anchor="middle" x="1754" y="-528.3" font-family="Times,serif" font-size="14.00">localhost:3000#ServerID_2347d2f455dd</text>
</g>
<!-- 1_fwatchdog#ServerID_2347d2f455dd&#45;&gt;localhost:3000#ServerID_2347d2f455dd -->
<g id="edge10" class="edge"><title>1_fwatchdog#ServerID_2347d2f455dd&#45;&gt;localhost:3000#ServerID_2347d2f455dd</title>
<path fill="none" stroke="black" d="M2129.74,-600.952C2042.92,-585.251 1915.52,-562.211 1833.67,-547.408"/>
<polygon fill="black" stroke="black" points="1834.13,-543.935 1823.67,-545.6 1832.89,-550.823 1834.13,-543.935"/>
<text text-anchor="middle" x="2037" y="-571.8" font-family="Times,serif" font-size="14.00">write</text>
</g>
<!-- localhost:3000#ServerID_2347d2f455dd&#45;&gt;13_node#ServerID_2347d2f455dd -->
<g id="edge22" class="edge"><title>localhost:3000#ServerID_2347d2f455dd&#45;&gt;13_node#ServerID_2347d2f455dd</title>
<path fill="none" stroke="black" d="M1828.35,-518.685C1939.75,-500.235 2150.77,-465.284 2281.21,-443.681"/>
<polygon fill="black" stroke="black" points="2281.95,-447.107 2291.24,-442.02 2280.8,-440.201 2281.95,-447.107"/>
<text text-anchor="middle" x="2071.5" y="-484.8" font-family="Times,serif" font-size="14.00">read</text>
</g>
<!-- /etc/resolv.conf#ServerID_2347d2f455dd -->
<g id="node11" class="node"><title>/etc/resolv.conf#ServerID_2347d2f455dd</title>
<ellipse fill="none" stroke="black" cx="2637" cy="-532" rx="204.164" ry="18"/>
<text text-anchor="middle" x="2637" y="-528.3" font-family="Times,serif" font-size="14.00">/etc/resolv.conf#ServerID_2347d2f455dd</text>
</g>
<!-- /etc/resolv.conf#ServerID_2347d2f455dd&#45;&gt;13_node#ServerID_2347d2f455dd -->
<g id="edge12" class="edge"><title>/etc/resolv.conf#ServerID_2347d2f455dd&#45;&gt;13_node#ServerID_2347d2f455dd</title>
<path fill="none" stroke="black" d="M2598.5,-514.204C2556.27,-495.783 2488.41,-466.184 2442.56,-446.183"/>
<polygon fill="black" stroke="black" points="2443.69,-442.859 2433.13,-442.068 2440.9,-449.275 2443.69,-442.859"/>
<text text-anchor="middle" x="2568.5" y="-484.8" font-family="Times,serif" font-size="14.00">read</text>
</g>
<!-- 10.152.183.10:53#ServerID_OuterContainerID&#45;&gt;13_node#ServerID_2347d2f455dd -->
<g id="edge14" class="edge"><title>10.152.183.10:53#ServerID_OuterContainerID&#45;&gt;13_node#ServerID_2347d2f455dd</title>
<path fill="none" stroke="black" d="M2919.83,-331.352C2863.7,-347.261 2768.94,-372.689 2686,-388 2637.72,-396.913 2584.51,-404.068 2536.89,-409.529"/>
<polygon fill="black" stroke="black" points="2536.36,-406.067 2526.81,-410.669 2537.14,-413.022 2536.36,-406.067"/>
<text text-anchor="middle" x="2790" y="-376.8" font-family="Times,serif" font-size="14.00">recvfrom</text>
</g>
<!-- localhost:3000#ServerID_7cf8268e6ab5 -->
<g id="node14" class="node"><title>localhost:3000#ServerID_7cf8268e6ab5</title>
<polygon fill="none" stroke="black" points="4893,-139 4609.8,-121 4893,-103 5176.2,-121 4893,-139"/>
<text text-anchor="middle" x="4893" y="-117.3" font-family="Times,serif" font-size="14.00">localhost:3000#ServerID_7cf8268e6ab5</text>
</g>
<!-- 1_fwatchdog#ServerID_7cf8268e6ab5&#45;&gt;localhost:3000#ServerID_7cf8268e6ab5 -->
<g id="edge16" class="edge"><title>1_fwatchdog#ServerID_7cf8268e6ab5&#45;&gt;localhost:3000#ServerID_7cf8268e6ab5</title>
<path fill="none" stroke="black" d="M4651.72,-189.942C4676.76,-184.625 4704.06,-178.452 4729,-172 4766.48,-162.307 4808.2,-149.559 4840.18,-139.361"/>
<polygon fill="black" stroke="black" points="4841.33,-142.67 4849.78,-136.285 4839.19,-136.004 4841.33,-142.67"/>
<text text-anchor="middle" x="4797" y="-160.8" font-family="Times,serif" font-size="14.00">write</text>
</g>
<!-- pipe:[7845976]#ServerID_7cf8268e6ab5 -->
<g id="node17" class="node"><title>pipe:[7845976]#ServerID_7cf8268e6ab5</title>
<ellipse fill="none" stroke="black" cx="4390" cy="-121" rx="202.264" ry="18"/>
<text text-anchor="middle" x="4390" y="-117.3" font-family="Times,serif" font-size="14.00">pipe:[7845976]#ServerID_7cf8268e6ab5</text>
</g>
<!-- 1_fwatchdog#ServerID_7cf8268e6ab5&#45;&gt;pipe:[7845976]#ServerID_7cf8268e6ab5 -->
<g id="edge21" class="edge"><title>1_fwatchdog#ServerID_7cf8268e6ab5&#45;&gt;pipe:[7845976]#ServerID_7cf8268e6ab5</title>
<path fill="none" stroke="black" d="M4529.59,-189.799C4501.92,-176.361 4463.33,-157.617 4433.73,-143.242"/>
<polygon fill="black" stroke="black" points="4434.99,-139.962 4424.47,-138.741 4431.93,-146.258 4434.99,-139.962"/>
<text text-anchor="middle" x="4506" y="-160.8" font-family="Times,serif" font-size="14.00">write</text>
</g>
<!-- localhost:3000#ServerID_7cf8268e6ab5&#45;&gt;1_fwatchdog#ServerID_7cf8268e6ab5 -->
<g id="edge20" class="edge"><title>localhost:3000#ServerID_7cf8268e6ab5&#45;&gt;1_fwatchdog#ServerID_7cf8268e6ab5</title>
<path fill="none" stroke="black" d="M4804.58,-133.434C4769.21,-139.032 4728.32,-146.802 4692,-157 4664.83,-164.629 4635.46,-175.98 4611.81,-185.94"/>
<polygon fill="black" stroke="black" points="4610.2,-182.819 4602.38,-189.964 4612.95,-189.257 4610.2,-182.819"/>
<text text-anchor="middle" x="4708.5" y="-160.8" font-family="Times,serif" font-size="14.00">read</text>
</g>
<!-- 13_node#ServerID_7cf8268e6ab5 -->
<g id="node15" class="node"><title>13_node#ServerID_7cf8268e6ab5</title>
<polygon fill="none" stroke="black" points="4536.5,-52 4273.5,-52 4273.5,-16 4536.5,-16 4536.5,-52"/>
<text text-anchor="middle" x="4405" y="-30.3" font-family="Times,serif" font-size="14.00">13_node#ServerID_7cf8268e6ab5</text>
</g>
<!-- localhost:3000#ServerID_7cf8268e6ab5&#45;&gt;13_node#ServerID_7cf8268e6ab5 -->
<g id="edge18" class="edge"><title>localhost:3000#ServerID_7cf8268e6ab5&#45;&gt;13_node#ServerID_7cf8268e6ab5</title>
<path fill="none" stroke="black" d="M4821.26,-107.504C4739.97,-93.345 4606.62,-70.1189 4512.8,-53.7774"/>
<polygon fill="black" stroke="black" points="4513.16,-50.2872 4502.71,-52.0192 4511.96,-57.1834 4513.16,-50.2872"/>
<text text-anchor="middle" x="4694.5" y="-73.8" font-family="Times,serif" font-size="14.00">read</text>
</g>
<!-- /home/app/credentials.txt#ServerID_7cf8268e6ab5 -->
<g id="node16" class="node"><title>/home/app/credentials.txt#ServerID_7cf8268e6ab5</title>
<ellipse fill="none" stroke="black" cx="3919" cy="-121" rx="250.756" ry="18"/>
<text text-anchor="middle" x="3919" y="-117.3" font-family="Times,serif" font-size="14.00">/home/app/credentials.txt#ServerID_7cf8268e6ab5</text>
</g>
<!-- /home/app/credentials.txt#ServerID_7cf8268e6ab5&#45;&gt;13_node#ServerID_7cf8268e6ab5 -->
<g id="edge19" class="edge"><title>/home/app/credentials.txt#ServerID_7cf8268e6ab5&#45;&gt;13_node#ServerID_7cf8268e6ab5</title>
<path fill="none" stroke="black" d="M4009.56,-104.162C4091.05,-89.9085 4210.92,-68.9442 4297.3,-53.8361"/>
<polygon fill="black" stroke="black" points="4298.15,-57.2405 4307.4,-52.0699 4296.95,-50.3451 4298.15,-57.2405"/>
<text text-anchor="middle" x="4207.5" y="-73.8" font-family="Times,serif" font-size="14.00">read</text>
</g>
<!-- 10.1.80.1:49770#ServerID_OuterContainerID&#45;&gt;10.1.80.93:8080#ServerID_OuterContainerID -->
<g id="edge23" class="edge"><title>10.1.80.1:49770#ServerID_OuterContainerID&#45;&gt;10.1.80.93:8080#ServerID_OuterContainerID</title>
<path fill="none" stroke="black" d="M349.781,-225.168C360.961,-239.438 373.248,-260.884 366,-280 364.552,-283.819 362.476,-287.488 360.074,-290.92"/>
<polygon fill="black" stroke="black" points="357.178,-288.934 353.607,-298.909 362.619,-293.339 357.178,-288.934"/>
<text text-anchor="middle" x="389" y="-268.8" font-family="Times,serif" font-size="14.00">POST</text>
</g>
</g>
</svg>
