<?xml version="1.0" encoding="UTF-8" standalone="no"?>
<!DOCTYPE svg PUBLIC "-//W3C//DTD SVG 1.1//EN"
 "http://www.w3.org/Graphics/SVG/1.1/DTD/svg11.dtd">
<!-- Generated by graphviz version 2.38.0 (20140413.2041)
 -->
<!-- Title: G Pages: 1 -->
<svg width="4735pt" height="1032pt"
 viewBox="0.00 0.00 4735.00 1032.00" xmlns="http://www.w3.org/2000/svg" xmlns:xlink="http://www.w3.org/1999/xlink">
<g id="graph0" class="graph" transform="scale(1 1) rotate(0) translate(4 1028)">
<title>G</title>
<polygon fill="white" stroke="none" points="-4,4 -4,-1028 4731,-1028 4731,4 -4,4"/>
<g id="clust1" class="cluster"><title>clusterServerID_2347d2f455dd</title>
<polygon fill="none" stroke="black" points="1488,-746 1488,-1016 2876,-1016 2876,-746 1488,-746"/>
<text text-anchor="middle" x="2182" y="-1000.8" font-family="Times,serif" font-size="14.00">clusterServerID_2347d2f455dd</text>
</g>
<g id="clust2" class="cluster"><title>clusterServerID_5f846fd567&#45;g8dn6</title>
<polygon fill="none" stroke="black" points="828,-746 828,-821 1168,-821 1168,-746 828,-746"/>
<text text-anchor="middle" x="998" y="-805.8" font-family="Times,serif" font-size="14.00">clusterServerID_5f846fd567&#45;g8dn6</text>
</g>
<g id="clust3" class="cluster"><title>clusterServerID_6df85d7674&#45;f2xxt</title>
<polygon fill="none" stroke="black" points="4383,-530 4383,-605 4719,-605 4719,-530 4383,-530"/>
<text text-anchor="middle" x="4551" y="-589.8" font-family="Times,serif" font-size="14.00">clusterServerID_6df85d7674&#45;f2xxt</text>
</g>
<g id="clust4" class="cluster"><title>clusterServerID_7cf8268e6ab5</title>
<polygon fill="none" stroke="black" points="3312,-8 3312,-605 4375,-605 4375,-8 3312,-8"/>
<text text-anchor="middle" x="3843.5" y="-589.8" font-family="Times,serif" font-size="14.00">clusterServerID_7cf8268e6ab5</text>
</g>
<g id="clust5" class="cluster"><title>clusterServerID_OuterContainerID</title>
<polygon fill="none" stroke="black" points="8,-530 8,-713 3304,-713 3304,-530 8,-530"/>
<text text-anchor="middle" x="1656" y="-697.8" font-family="Times,serif" font-size="14.00">clusterServerID_OuterContainerID</text>
</g>
<!-- 1_fwatchdog#ServerID_5f846fd567&#45;g8dn6 -->
<g id="node1" class="node"><title>1_fwatchdog#ServerID_5f846fd567&#45;g8dn6</title>
<polygon fill="none" stroke="black" points="1160,-790 836,-790 836,-754 1160,-754 1160,-790"/>
<text text-anchor="middle" x="998" y="-768.3" font-family="Times,serif" font-size="14.00">1_fwatchdog#ServerID_5f846fd567&#45;g8dn6</text>
</g>
<!-- 10.1.80.93:35016#ServerID_OuterContainerID -->
<g id="node2" class="node"><title>10.1.80.93:35016#ServerID_OuterContainerID</title>
<polygon fill="none" stroke="black" points="999,-682 671.56,-664 999,-646 1326.44,-664 999,-682"/>
<text text-anchor="middle" x="999" y="-660.3" font-family="Times,serif" font-size="14.00">10.1.80.93:35016#ServerID_OuterContainerID</text>
</g>
<!-- 1_fwatchdog#ServerID_5f846fd567&#45;g8dn6&#45;&gt;10.1.80.93:35016#ServerID_OuterContainerID -->
<g id="edge1" class="edge"><title>1_fwatchdog#ServerID_5f846fd567&#45;g8dn6&#45;&gt;10.1.80.93:35016#ServerID_OuterContainerID</title>
<path fill="none" stroke="black" d="M962.261,-753.861C955.725,-749.032 949.784,-743.108 946,-736 942.867,-730.115 943.534,-727.194 946,-721 951.041,-708.341 960.452,-696.895 969.961,-687.7"/>
<polygon fill="black" stroke="black" points="972.478,-690.142 977.527,-680.827 967.772,-684.96 972.478,-690.142"/>
<text text-anchor="middle" x="988" y="-724.8" font-family="Times,serif" font-size="14.00">RESPONSE</text>
</g>
<!-- 10.1.80.93:35016#ServerID_OuterContainerID&#45;&gt;1_fwatchdog#ServerID_5f846fd567&#45;g8dn6 -->
<g id="edge3" class="edge"><title>10.1.80.93:35016#ServerID_OuterContainerID&#45;&gt;1_fwatchdog#ServerID_5f846fd567&#45;g8dn6</title>
<path fill="none" stroke="black" d="M1013.86,-681.197C1025.08,-695.485 1037.4,-716.942 1030,-736 1028.64,-739.507 1026.74,-742.876 1024.55,-746.046"/>
<polygon fill="black" stroke="black" points="1021.75,-743.944 1018.2,-753.928 1027.2,-748.335 1021.75,-743.944"/>
<text text-anchor="middle" x="1053" y="-724.8" font-family="Times,serif" font-size="14.00">POST</text>
</g>
<!-- 1_fwatchdog#ServerID_7cf8268e6ab5 -->
<g id="node13" class="node"><title>1_fwatchdog#ServerID_7cf8268e6ab5</title>
<polygon fill="none" stroke="black" points="3753,-574 3459,-574 3459,-538 3753,-538 3753,-574"/>
<text text-anchor="middle" x="3606" y="-552.3" font-family="Times,serif" font-size="14.00">1_fwatchdog#ServerID_7cf8268e6ab5</text>
</g>
<!-- 10.1.80.93:35016#ServerID_OuterContainerID&#45;&gt;1_fwatchdog#ServerID_7cf8268e6ab5 -->
<g id="edge20" class="edge"><title>10.1.80.93:35016#ServerID_OuterContainerID&#45;&gt;1_fwatchdog#ServerID_7cf8268e6ab5</title>
<path fill="none" stroke="black" d="M1158.37,-654.761C1214.23,-651.92 1277.39,-648.76 1335,-646 1659.4,-630.461 1740.33,-621.38 2065,-613 2203.07,-609.436 3170.36,-616.46 3308,-605 3376.87,-599.266 3453.86,-586.703 3512.33,-575.867"/>
<polygon fill="black" stroke="black" points="3513.1,-579.284 3522.29,-574.006 3511.81,-572.403 3513.1,-579.284"/>
<text text-anchor="middle" x="2081.5" y="-616.8" font-family="Times,serif" font-size="14.00">read</text>
</g>
<!-- 10.1.80.93:8080#ServerID_OuterContainerID -->
<g id="node3" class="node"><title>10.1.80.93:8080#ServerID_OuterContainerID</title>
<polygon fill="none" stroke="black" points="335,-682 16.1049,-664 335,-646 653.895,-664 335,-682"/>
<text text-anchor="middle" x="335" y="-660.3" font-family="Times,serif" font-size="14.00">10.1.80.93:8080#ServerID_OuterContainerID</text>
</g>
<!-- 1_fwatchdog#ServerID_6df85d7674&#45;f2xxt -->
<g id="node4" class="node"><title>1_fwatchdog#ServerID_6df85d7674&#45;f2xxt</title>
<polygon fill="none" stroke="black" points="4711,-574 4391,-574 4391,-538 4711,-538 4711,-574"/>
<text text-anchor="middle" x="4551" y="-552.3" font-family="Times,serif" font-size="14.00">1_fwatchdog#ServerID_6df85d7674&#45;f2xxt</text>
</g>
<!-- 10.1.80.93:8080#ServerID_OuterContainerID&#45;&gt;1_fwatchdog#ServerID_6df85d7674&#45;f2xxt -->
<g id="edge2" class="edge"><title>10.1.80.93:8080#ServerID_OuterContainerID&#45;&gt;1_fwatchdog#ServerID_6df85d7674&#45;f2xxt</title>
<path fill="none" stroke="black" d="M485.602,-654.473C541.324,-651.508 605.029,-648.342 663,-646 938.891,-634.853 1008.09,-638.546 1284,-628 1424.5,-622.63 1459.44,-616.537 1600,-613 1677.17,-611.058 4302.53,-615.582 4379,-605 4417.82,-599.627 4460.25,-587.855 4493.25,-577.314"/>
<polygon fill="black" stroke="black" points="4494.74,-580.509 4503.17,-574.091 4492.58,-573.851 4494.74,-580.509"/>
<text text-anchor="middle" x="1642" y="-616.8" font-family="Times,serif" font-size="14.00">RESPONSE</text>
</g>
<!-- 10.1.80.1:45145#ServerID_OuterContainerID -->
<g id="node24" class="node"><title>10.1.80.1:45145#ServerID_OuterContainerID</title>
<polygon fill="none" stroke="black" points="335,-574 16.1049,-556 335,-538 653.895,-556 335,-574"/>
<text text-anchor="middle" x="335" y="-552.3" font-family="Times,serif" font-size="14.00">10.1.80.1:45145#ServerID_OuterContainerID</text>
</g>
<!-- 10.1.80.93:8080#ServerID_OuterContainerID&#45;&gt;10.1.80.1:45145#ServerID_OuterContainerID -->
<g id="edge35" class="edge"><title>10.1.80.93:8080#ServerID_OuterContainerID&#45;&gt;10.1.80.1:45145#ServerID_OuterContainerID</title>
<path fill="none" stroke="black" d="M298.241,-647.99C290.168,-642.888 282.649,-636.31 278,-628 267.985,-610.099 282.769,-592.102 299.784,-578.707"/>
<polygon fill="black" stroke="black" points="302.224,-581.258 308.218,-572.522 298.084,-575.614 302.224,-581.258"/>
<text text-anchor="middle" x="320" y="-616.8" font-family="Times,serif" font-size="14.00">RESPONSE</text>
</g>
<!-- 10.0.88.125:31112#ServerID_OuterContainerID -->
<g id="node25" class="node"><title>10.0.88.125:31112#ServerID_OuterContainerID</title>
<polygon fill="none" stroke="black" points="1007,-574 671.515,-556 1007,-538 1342.48,-556 1007,-574"/>
<text text-anchor="middle" x="1007" y="-552.3" font-family="Times,serif" font-size="14.00">10.0.88.125:31112#ServerID_OuterContainerID</text>
</g>
<!-- 10.1.80.93:8080#ServerID_OuterContainerID&#45;&gt;10.0.88.125:31112#ServerID_OuterContainerID -->
<g id="edge36" class="edge"><title>10.1.80.93:8080#ServerID_OuterContainerID&#45;&gt;10.0.88.125:31112#ServerID_OuterContainerID</title>
<path fill="none" stroke="black" d="M414.394,-650.476C540.059,-630.654 784.064,-592.166 916.392,-571.292"/>
<polygon fill="black" stroke="black" points="917.17,-574.713 926.503,-569.698 916.079,-567.798 917.17,-574.713"/>
<text text-anchor="middle" x="693" y="-616.8" font-family="Times,serif" font-size="14.00">RESPONSE</text>
</g>
<!-- 1_fwatchdog#ServerID_6df85d7674&#45;f2xxt&#45;&gt;10.1.80.93:8080#ServerID_OuterContainerID -->
<g id="edge5" class="edge"><title>1_fwatchdog#ServerID_6df85d7674&#45;f2xxt&#45;&gt;10.1.80.93:8080#ServerID_OuterContainerID</title>
<path fill="none" stroke="black" d="M4503.18,-574.095C4469.07,-585.358 4421.84,-599.079 4379,-605 4292.63,-616.938 1327.16,-610.483 1240,-613 970.559,-620.781 656.494,-640.536 478.166,-652.757"/>
<polygon fill="black" stroke="black" points="477.671,-649.283 467.935,-653.46 478.151,-656.266 477.671,-649.283"/>
<text text-anchor="middle" x="1260" y="-616.8" font-family="Times,serif" font-size="14.00">POST</text>
</g>
<!-- gateway:8080#ServerID_OuterContainerID -->
<g id="node5" class="node"><title>gateway:8080#ServerID_OuterContainerID</title>
<polygon fill="none" stroke="black" points="1648,-682 1343.52,-664 1648,-646 1952.48,-664 1648,-682"/>
<text text-anchor="middle" x="1648" y="-660.3" font-family="Times,serif" font-size="14.00">gateway:8080#ServerID_OuterContainerID</text>
</g>
<!-- 1_fwatchdog#ServerID_6df85d7674&#45;f2xxt&#45;&gt;gateway:8080#ServerID_OuterContainerID -->
<g id="edge4" class="edge"><title>1_fwatchdog#ServerID_6df85d7674&#45;f2xxt&#45;&gt;gateway:8080#ServerID_OuterContainerID</title>
<path fill="none" stroke="black" d="M4502.79,-574.103C4468.7,-585.291 4421.66,-598.919 4379,-605 4299.14,-616.384 3733.66,-611.769 3653,-613 2900.94,-624.477 2712.63,-618.267 1961,-646 1908.23,-647.947 1850.5,-650.86 1799.14,-653.728"/>
<polygon fill="black" stroke="black" points="1798.75,-650.244 1788.96,-654.3 1799.14,-657.233 1798.75,-650.244"/>
<text text-anchor="middle" x="3673" y="-616.8" font-family="Times,serif" font-size="14.00">POST</text>
</g>
<!-- 10.1.80.93:43006#ServerID_OuterContainerID -->
<g id="node6" class="node"><title>10.1.80.93:43006#ServerID_OuterContainerID</title>
<polygon fill="none" stroke="black" points="2969,-682 2641.56,-664 2969,-646 3296.44,-664 2969,-682"/>
<text text-anchor="middle" x="2969" y="-660.3" font-family="Times,serif" font-size="14.00">10.1.80.93:43006#ServerID_OuterContainerID</text>
</g>
<!-- 1_fwatchdog#ServerID_6df85d7674&#45;f2xxt&#45;&gt;10.1.80.93:43006#ServerID_OuterContainerID -->
<g id="edge8" class="edge"><title>1_fwatchdog#ServerID_6df85d7674&#45;f2xxt&#45;&gt;10.1.80.93:43006#ServerID_OuterContainerID</title>
<path fill="none" stroke="black" d="M4502.4,-574.039C4468.33,-585.119 4421.47,-598.647 4379,-605 4308.21,-615.59 4128.53,-610.468 4057,-613 3731.47,-624.523 3351.39,-643.178 3137.57,-654.15"/>
<polygon fill="black" stroke="black" points="3137.33,-650.658 3127.52,-654.666 3137.69,-657.649 3137.33,-650.658"/>
<text text-anchor="middle" x="4099" y="-616.8" font-family="Times,serif" font-size="14.00">RESPONSE</text>
</g>
<!-- gateway:8080#ServerID_OuterContainerID&#45;&gt;1_fwatchdog#ServerID_6df85d7674&#45;f2xxt -->
<g id="edge7" class="edge"><title>gateway:8080#ServerID_OuterContainerID&#45;&gt;1_fwatchdog#ServerID_6df85d7674&#45;f2xxt</title>
<path fill="none" stroke="black" d="M1773.29,-653.388C1937.52,-641.284 2234.63,-621.094 2489,-613 2541.47,-611.33 4327,-612.232 4379,-605 4417.82,-599.601 4460.24,-587.829 4493.25,-577.294"/>
<polygon fill="black" stroke="black" points="4494.74,-580.489 4503.17,-574.073 4492.58,-573.831 4494.74,-580.489"/>
<text text-anchor="middle" x="2531" y="-616.8" font-family="Times,serif" font-size="14.00">RESPONSE</text>
</g>
<!-- 10.1.80.93:43006#ServerID_OuterContainerID&#45;&gt;1_fwatchdog#ServerID_6df85d7674&#45;f2xxt -->
<g id="edge6" class="edge"><title>10.1.80.93:43006#ServerID_OuterContainerID&#45;&gt;1_fwatchdog#ServerID_6df85d7674&#45;f2xxt</title>
<path fill="none" stroke="black" d="M3217.96,-659.668C3561.45,-653.881 4162.79,-639.145 4379,-605 4417.16,-598.974 4458.92,-587.442 4491.74,-577.191"/>
<polygon fill="black" stroke="black" points="4493.15,-580.416 4501.62,-574.059 4491.03,-573.744 4493.15,-580.416"/>
<text text-anchor="middle" x="4335" y="-616.8" font-family="Times,serif" font-size="14.00">POST</text>
</g>
<!-- 1_fwatchdog#ServerID_2347d2f455dd -->
<g id="node7" class="node"><title>1_fwatchdog#ServerID_2347d2f455dd</title>
<polygon fill="none" stroke="black" points="1997,-985 1701,-985 1701,-949 1997,-949 1997,-985"/>
<text text-anchor="middle" x="1849" y="-963.3" font-family="Times,serif" font-size="14.00">1_fwatchdog#ServerID_2347d2f455dd</text>
</g>
<!-- 10.1.80.93:43006#ServerID_OuterContainerID&#45;&gt;1_fwatchdog#ServerID_2347d2f455dd -->
<g id="edge12" class="edge"><title>10.1.80.93:43006#ServerID_OuterContainerID&#45;&gt;1_fwatchdog#ServerID_2347d2f455dd</title>
<path fill="none" stroke="black" d="M2968.12,-682.149C2964.84,-726.498 2949.37,-845.19 2877,-898 2808.57,-947.933 2278.49,-961.202 2007.47,-964.726"/>
<polygon fill="black" stroke="black" points="2007.1,-961.231 1997.14,-964.857 2007.19,-968.23 2007.1,-961.231"/>
<text text-anchor="middle" x="2948.5" y="-832.8" font-family="Times,serif" font-size="14.00">read</text>
</g>
<!-- localhost:3000#ServerID_2347d2f455dd -->
<g id="node8" class="node"><title>localhost:3000#ServerID_2347d2f455dd</title>
<polygon fill="none" stroke="black" points="1781,-898 1496.12,-880 1781,-862 2065.88,-880 1781,-898"/>
<text text-anchor="middle" x="1781" y="-876.3" font-family="Times,serif" font-size="14.00">localhost:3000#ServerID_2347d2f455dd</text>
</g>
<!-- 1_fwatchdog#ServerID_2347d2f455dd&#45;&gt;localhost:3000#ServerID_2347d2f455dd -->
<g id="edge9" class="edge"><title>1_fwatchdog#ServerID_2347d2f455dd&#45;&gt;localhost:3000#ServerID_2347d2f455dd</title>
<path fill="none" stroke="black" d="M1827.59,-948.951C1821.52,-943.566 1815.16,-937.354 1810,-931 1803.93,-923.532 1798.34,-914.642 1793.72,-906.443"/>
<polygon fill="black" stroke="black" points="1796.77,-904.731 1788.94,-897.594 1790.61,-908.056 1796.77,-904.731"/>
<text text-anchor="middle" x="1839" y="-919.8" font-family="Times,serif" font-size="14.00">connect</text>
</g>
<!-- 1_fwatchdog#ServerID_2347d2f455dd&#45;&gt;localhost:3000#ServerID_2347d2f455dd -->
<g id="edge11" class="edge"><title>1_fwatchdog#ServerID_2347d2f455dd&#45;&gt;localhost:3000#ServerID_2347d2f455dd</title>
<path fill="none" stroke="black" d="M1863.19,-948.856C1869.75,-938.741 1874.76,-926.003 1868,-916 1863.45,-909.265 1857.37,-903.826 1850.52,-899.434"/>
<polygon fill="black" stroke="black" points="1851.94,-896.217 1841.5,-894.411 1848.53,-902.333 1851.94,-896.217"/>
<text text-anchor="middle" x="1891" y="-919.8" font-family="Times,serif" font-size="14.00">write</text>
</g>
<!-- localhost:3000#ServerID_2347d2f455dd&#45;&gt;1_fwatchdog#ServerID_2347d2f455dd -->
<g id="edge10" class="edge"><title>localhost:3000#ServerID_2347d2f455dd&#45;&gt;1_fwatchdog#ServerID_2347d2f455dd</title>
<path fill="none" stroke="black" d="M1767.93,-897.254C1761.36,-907.524 1756.1,-920.742 1763,-931 1766.02,-935.483 1769.72,-939.392 1773.87,-942.8"/>
<polygon fill="black" stroke="black" points="1772.16,-945.876 1782.35,-948.757 1776.18,-940.147 1772.16,-945.876"/>
<text text-anchor="middle" x="1779.5" y="-919.8" font-family="Times,serif" font-size="14.00">read</text>
</g>
<!-- 13_node#ServerID_2347d2f455dd -->
<g id="node9" class="node"><title>13_node#ServerID_2347d2f455dd</title>
<polygon fill="none" stroke="black" points="2378.5,-790 2113.5,-790 2113.5,-754 2378.5,-754 2378.5,-790"/>
<text text-anchor="middle" x="2246" y="-768.3" font-family="Times,serif" font-size="14.00">13_node#ServerID_2347d2f455dd</text>
</g>
<!-- localhost:3000#ServerID_2347d2f455dd&#45;&gt;13_node#ServerID_2347d2f455dd -->
<g id="edge13" class="edge"><title>localhost:3000#ServerID_2347d2f455dd&#45;&gt;13_node#ServerID_2347d2f455dd</title>
<path fill="none" stroke="black" d="M1839.42,-865.682C1920.62,-847.173 2068.09,-813.556 2161.34,-792.299"/>
<polygon fill="black" stroke="black" points="2162.34,-795.661 2171.31,-790.026 2160.78,-788.836 2162.34,-795.661"/>
<text text-anchor="middle" x="2016.5" y="-832.8" font-family="Times,serif" font-size="14.00">read</text>
</g>
<!-- 13_node#ServerID_2347d2f455dd&#45;&gt;gateway:8080#ServerID_OuterContainerID -->
<g id="edge21" class="edge"><title>13_node#ServerID_2347d2f455dd&#45;&gt;gateway:8080#ServerID_OuterContainerID</title>
<path fill="none" stroke="black" d="M2149.92,-753.969C2033.7,-733.369 1840.04,-699.04 1730.35,-679.598"/>
<polygon fill="black" stroke="black" points="1730.79,-676.121 1720.33,-677.822 1729.57,-683.013 1730.79,-676.121"/>
<text text-anchor="middle" x="2065" y="-724.8" font-family="Times,serif" font-size="14.00">connect</text>
</g>
<!-- 10.152.183.10:53#ServerID_OuterContainerID -->
<g id="node12" class="node"><title>10.152.183.10:53#ServerID_OuterContainerID</title>
<polygon fill="none" stroke="black" points="2297,-682 1969.56,-664 2297,-646 2624.44,-664 2297,-682"/>
<text text-anchor="middle" x="2297" y="-660.3" font-family="Times,serif" font-size="14.00">10.152.183.10:53#ServerID_OuterContainerID</text>
</g>
<!-- 13_node#ServerID_2347d2f455dd&#45;&gt;10.152.183.10:53#ServerID_OuterContainerID -->
<g id="edge16" class="edge"><title>13_node#ServerID_2347d2f455dd&#45;&gt;10.152.183.10:53#ServerID_OuterContainerID</title>
<path fill="none" stroke="black" d="M2234.29,-753.926C2229.06,-744.068 2225.06,-731.568 2230,-721 2236.52,-707.052 2248.41,-695.357 2260.39,-686.323"/>
<polygon fill="black" stroke="black" points="2262.48,-689.129 2268.63,-680.499 2258.44,-683.413 2262.48,-689.129"/>
<text text-anchor="middle" x="2254.5" y="-724.8" font-family="Times,serif" font-size="14.00">sendto</text>
</g>
<!-- /etc/hosts#ServerID_2347d2f455dd -->
<g id="node10" class="node"><title>/etc/hosts#ServerID_2347d2f455dd</title>
<ellipse fill="none" stroke="black" cx="2689" cy="-880" rx="178.969" ry="18"/>
<text text-anchor="middle" x="2689" y="-876.3" font-family="Times,serif" font-size="14.00">/etc/hosts#ServerID_2347d2f455dd</text>
</g>
<!-- /etc/hosts#ServerID_2347d2f455dd&#45;&gt;13_node#ServerID_2347d2f455dd -->
<g id="edge14" class="edge"><title>/etc/hosts#ServerID_2347d2f455dd&#45;&gt;13_node#ServerID_2347d2f455dd</title>
<path fill="none" stroke="black" d="M2623.16,-863.245C2544.33,-844.383 2412.32,-812.796 2327.23,-792.436"/>
<polygon fill="black" stroke="black" points="2327.89,-788.995 2317.35,-790.072 2326.26,-795.803 2327.89,-788.995"/>
<text text-anchor="middle" x="2550.5" y="-832.8" font-family="Times,serif" font-size="14.00">read</text>
</g>
<!-- /etc/resolv.conf#ServerID_2347d2f455dd -->
<g id="node11" class="node"><title>/etc/resolv.conf#ServerID_2347d2f455dd</title>
<ellipse fill="none" stroke="black" cx="2288" cy="-880" rx="204.164" ry="18"/>
<text text-anchor="middle" x="2288" y="-876.3" font-family="Times,serif" font-size="14.00">/etc/resolv.conf#ServerID_2347d2f455dd</text>
</g>
<!-- /etc/resolv.conf#ServerID_2347d2f455dd&#45;&gt;13_node#ServerID_2347d2f455dd -->
<g id="edge15" class="edge"><title>/etc/resolv.conf#ServerID_2347d2f455dd&#45;&gt;13_node#ServerID_2347d2f455dd</title>
<path fill="none" stroke="black" d="M2281.25,-861.969C2274.62,-845.224 2264.39,-819.41 2256.66,-799.892"/>
<polygon fill="black" stroke="black" points="2259.81,-798.348 2252.87,-790.341 2253.3,-800.927 2259.81,-798.348"/>
<text text-anchor="middle" x="2290.5" y="-832.8" font-family="Times,serif" font-size="14.00">read</text>
</g>
<!-- 10.152.183.10:53#ServerID_OuterContainerID&#45;&gt;13_node#ServerID_2347d2f455dd -->
<g id="edge17" class="edge"><title>10.152.183.10:53#ServerID_OuterContainerID&#45;&gt;13_node#ServerID_2347d2f455dd</title>
<path fill="none" stroke="black" d="M2295.15,-681.95C2292.96,-696.916 2288.36,-718.946 2279,-736 2277.07,-739.523 2274.69,-742.958 2272.11,-746.214"/>
<polygon fill="black" stroke="black" points="2269.35,-744.053 2265.41,-753.887 2274.63,-748.657 2269.35,-744.053"/>
<text text-anchor="middle" x="2319" y="-724.8" font-family="Times,serif" font-size="14.00">recvfrom</text>
</g>
<!-- localhost:3000#ServerID_7cf8268e6ab5 -->
<g id="node14" class="node"><title>localhost:3000#ServerID_7cf8268e6ab5</title>
<polygon fill="none" stroke="black" points="3606,-487 3322.8,-469 3606,-451 3889.2,-469 3606,-487"/>
<text text-anchor="middle" x="3606" y="-465.3" font-family="Times,serif" font-size="14.00">localhost:3000#ServerID_7cf8268e6ab5</text>
</g>
<!-- 1_fwatchdog#ServerID_7cf8268e6ab5&#45;&gt;localhost:3000#ServerID_7cf8268e6ab5 -->
<g id="edge18" class="edge"><title>1_fwatchdog#ServerID_7cf8268e6ab5&#45;&gt;localhost:3000#ServerID_7cf8268e6ab5</title>
<path fill="none" stroke="black" d="M3606,-537.799C3606,-526.163 3606,-510.548 3606,-497.237"/>
<polygon fill="black" stroke="black" points="3609.5,-497.175 3606,-487.175 3602.5,-497.175 3609.5,-497.175"/>
<text text-anchor="middle" x="3635" y="-508.8" font-family="Times,serif" font-size="14.00">connect</text>
</g>
<!-- 1_fwatchdog#ServerID_7cf8268e6ab5&#45;&gt;localhost:3000#ServerID_7cf8268e6ab5 -->
<g id="edge23" class="edge"><title>1_fwatchdog#ServerID_7cf8268e6ab5&#45;&gt;localhost:3000#ServerID_7cf8268e6ab5</title>
<path fill="none" stroke="black" d="M3647.64,-537.892C3654.59,-533.144 3660.87,-527.244 3665,-520 3671.69,-508.245 3663.98,-497.999 3652.16,-489.893"/>
<polygon fill="black" stroke="black" points="3653.82,-486.807 3643.45,-484.632 3650.2,-492.799 3653.82,-486.807"/>
<text text-anchor="middle" x="3686" y="-508.8" font-family="Times,serif" font-size="14.00">write</text>
</g>
<!-- pipe:[7845976]#ServerID_7cf8268e6ab5 -->
<g id="node23" class="node"><title>pipe:[7845976]#ServerID_7cf8268e6ab5</title>
<ellipse fill="none" stroke="black" cx="4109" cy="-469" rx="202.264" ry="18"/>
<text text-anchor="middle" x="4109" y="-465.3" font-family="Times,serif" font-size="14.00">pipe:[7845976]#ServerID_7cf8268e6ab5</text>
</g>
<!-- 1_fwatchdog#ServerID_7cf8268e6ab5&#45;&gt;pipe:[7845976]#ServerID_7cf8268e6ab5 -->
<g id="edge33" class="edge"><title>1_fwatchdog#ServerID_7cf8268e6ab5&#45;&gt;pipe:[7845976]#ServerID_7cf8268e6ab5</title>
<path fill="none" stroke="black" d="M3706.88,-537.952C3794.84,-523.089 3921.7,-501.652 4009.3,-486.848"/>
<polygon fill="black" stroke="black" points="4009.97,-490.284 4019.25,-485.167 4008.8,-483.382 4009.97,-490.284"/>
<text text-anchor="middle" x="3906" y="-508.8" font-family="Times,serif" font-size="14.00">write</text>
</g>
<!-- localhost:3000#ServerID_7cf8268e6ab5&#45;&gt;1_fwatchdog#ServerID_7cf8268e6ab5 -->
<g id="edge19" class="edge"><title>localhost:3000#ServerID_7cf8268e6ab5&#45;&gt;1_fwatchdog#ServerID_7cf8268e6ab5</title>
<path fill="none" stroke="black" d="M3582.9,-485.918C3572.5,-495.195 3563.62,-507.503 3569,-520 3570.57,-523.642 3572.72,-527.082 3575.21,-530.279"/>
<polygon fill="black" stroke="black" points="3572.62,-532.639 3581.93,-537.702 3577.81,-527.94 3572.62,-532.639"/>
<text text-anchor="middle" x="3585.5" y="-508.8" font-family="Times,serif" font-size="14.00">read</text>
</g>
<!-- 13_node#ServerID_7cf8268e6ab5 -->
<g id="node15" class="node"><title>13_node#ServerID_7cf8268e6ab5</title>
<polygon fill="none" stroke="black" points="3739.5,-400 3476.5,-400 3476.5,-364 3739.5,-364 3739.5,-400"/>
<text text-anchor="middle" x="3608" y="-378.3" font-family="Times,serif" font-size="14.00">13_node#ServerID_7cf8268e6ab5</text>
</g>
<!-- localhost:3000#ServerID_7cf8268e6ab5&#45;&gt;13_node#ServerID_7cf8268e6ab5 -->
<g id="edge22" class="edge"><title>localhost:3000#ServerID_7cf8268e6ab5&#45;&gt;13_node#ServerID_7cf8268e6ab5</title>
<path fill="none" stroke="black" d="M3606.4,-450.799C3606.68,-439.163 3607.05,-423.548 3607.36,-410.237"/>
<polygon fill="black" stroke="black" points="3610.86,-410.255 3607.6,-400.175 3603.86,-410.09 3610.86,-410.255"/>
<text text-anchor="middle" x="3623.5" y="-421.8" font-family="Times,serif" font-size="14.00">read</text>
</g>
<!-- /dev/null#ServerID_7cf8268e6ab5 -->
<g id="node16" class="node"><title>/dev/null#ServerID_7cf8268e6ab5</title>
<ellipse fill="none" stroke="black" cx="3492" cy="-295" rx="171.67" ry="18"/>
<text text-anchor="middle" x="3492" y="-291.3" font-family="Times,serif" font-size="14.00">/dev/null#ServerID_7cf8268e6ab5</text>
</g>
<!-- 13_node#ServerID_7cf8268e6ab5&#45;&gt;/dev/null#ServerID_7cf8268e6ab5 -->
<g id="edge32" class="edge"><title>13_node#ServerID_7cf8268e6ab5&#45;&gt;/dev/null#ServerID_7cf8268e6ab5</title>
<path fill="none" stroke="black" d="M3531.17,-364C3521.81,-359.373 3513.07,-353.488 3506,-346 3500.17,-339.824 3496.73,-331.421 3494.72,-323.268"/>
<polygon fill="black" stroke="black" points="3498.13,-322.45 3492.86,-313.259 3491.25,-323.731 3498.13,-322.45"/>
<text text-anchor="middle" x="3525" y="-334.8" font-family="Times,serif" font-size="14.00">write</text>
</g>
<!-- pipe:[7845627]#ServerID_7cf8268e6ab5 -->
<g id="node17" class="node"><title>pipe:[7845627]#ServerID_7cf8268e6ab5</title>
<ellipse fill="none" stroke="black" cx="4165" cy="-295" rx="202.264" ry="18"/>
<text text-anchor="middle" x="4165" y="-291.3" font-family="Times,serif" font-size="14.00">pipe:[7845627]#ServerID_7cf8268e6ab5</text>
</g>
<!-- 13_node#ServerID_7cf8268e6ab5&#45;&gt;pipe:[7845627]#ServerID_7cf8268e6ab5 -->
<g id="edge26" class="edge"><title>13_node#ServerID_7cf8268e6ab5&#45;&gt;pipe:[7845627]#ServerID_7cf8268e6ab5</title>
<path fill="none" stroke="black" d="M3719.71,-363.952C3818.17,-348.927 3960.66,-327.183 4057.76,-312.366"/>
<polygon fill="black" stroke="black" points="4058.53,-315.788 4067.89,-310.819 4057.48,-308.868 4058.53,-315.788"/>
<text text-anchor="middle" x="3938" y="-334.8" font-family="Times,serif" font-size="14.00">write</text>
</g>
<!-- 35_node#ServerID_7cf8268e6ab5 -->
<g id="node18" class="node"><title>35_node#ServerID_7cf8268e6ab5</title>
<polygon fill="none" stroke="black" points="3944.5,-313 3681.5,-313 3681.5,-277 3944.5,-277 3944.5,-313"/>
<text text-anchor="middle" x="3813" y="-291.3" font-family="Times,serif" font-size="14.00">35_node#ServerID_7cf8268e6ab5</text>
</g>
<!-- 13_node#ServerID_7cf8268e6ab5&#45;&gt;35_node#ServerID_7cf8268e6ab5 -->
<g id="edge27" class="edge"><title>13_node#ServerID_7cf8268e6ab5&#45;&gt;35_node#ServerID_7cf8268e6ab5</title>
<path fill="none" stroke="black" d="M3649.48,-363.799C3682.1,-350.275 3727.68,-331.377 3762.43,-316.967"/>
<polygon fill="black" stroke="black" points="3764.03,-320.093 3771.93,-313.03 3761.35,-313.627 3764.03,-320.093"/>
<text text-anchor="middle" x="3737" y="-334.8" font-family="Times,serif" font-size="14.00">fork</text>
</g>
<!-- /dev/null#ServerID_7cf8268e6ab5&#45;&gt;13_node#ServerID_7cf8268e6ab5 -->
<g id="edge24" class="edge"><title>/dev/null#ServerID_7cf8268e6ab5&#45;&gt;13_node#ServerID_7cf8268e6ab5</title>
<path fill="none" stroke="black" d="M3520.69,-312.894C3529.61,-318.418 3539.36,-324.747 3548,-331 3559.18,-339.094 3570.95,-348.657 3581.08,-357.24"/>
<polygon fill="black" stroke="black" points="3578.94,-360.014 3588.81,-363.867 3583.5,-354.7 3578.94,-360.014"/>
<text text-anchor="middle" x="3583.5" y="-334.8" font-family="Times,serif" font-size="14.00">read</text>
</g>
<!-- pipe:[7845627]#ServerID_7cf8268e6ab5&#45;&gt;13_node#ServerID_7cf8268e6ab5 -->
<g id="edge25" class="edge"><title>pipe:[7845627]#ServerID_7cf8268e6ab5&#45;&gt;13_node#ServerID_7cf8268e6ab5</title>
<path fill="none" stroke="black" d="M4118.26,-312.542C4084.67,-323.76 4038.08,-337.96 3996,-346 3915.26,-361.428 3823.74,-370.095 3749.86,-374.944"/>
<polygon fill="black" stroke="black" points="3749.31,-371.472 3739.56,-375.604 3749.76,-378.458 3749.31,-371.472"/>
<text text-anchor="middle" x="4073.5" y="-334.8" font-family="Times,serif" font-size="14.00">read</text>
</g>
<!-- 35_sh#ServerID_7cf8268e6ab5 -->
<g id="node21" class="node"><title>35_sh#ServerID_7cf8268e6ab5</title>
<polygon fill="none" stroke="black" points="3935.5,-226 3690.5,-226 3690.5,-190 3935.5,-190 3935.5,-226"/>
<text text-anchor="middle" x="3813" y="-204.3" font-family="Times,serif" font-size="14.00">35_sh#ServerID_7cf8268e6ab5</text>
</g>
<!-- 35_node#ServerID_7cf8268e6ab5&#45;&gt;35_sh#ServerID_7cf8268e6ab5 -->
<g id="edge30" class="edge"><title>35_node#ServerID_7cf8268e6ab5&#45;&gt;35_sh#ServerID_7cf8268e6ab5</title>
<path fill="none" stroke="black" d="M3813,-276.799C3813,-265.163 3813,-249.548 3813,-236.237"/>
<polygon fill="black" stroke="black" points="3816.5,-236.175 3813,-226.175 3809.5,-236.175 3816.5,-236.175"/>
<text text-anchor="middle" x="3838" y="-247.8" font-family="Times,serif" font-size="14.00">execve</text>
</g>
<!-- 36_sh#ServerID_7cf8268e6ab5 -->
<g id="node19" class="node"><title>36_sh#ServerID_7cf8268e6ab5</title>
<polygon fill="none" stroke="black" points="3835.5,-139 3590.5,-139 3590.5,-103 3835.5,-103 3835.5,-139"/>
<text text-anchor="middle" x="3713" y="-117.3" font-family="Times,serif" font-size="14.00">36_sh#ServerID_7cf8268e6ab5</text>
</g>
<!-- 36_touch#ServerID_7cf8268e6ab5 -->
<g id="node20" class="node"><title>36_touch#ServerID_7cf8268e6ab5</title>
<polygon fill="none" stroke="black" points="3847.5,-52 3578.5,-52 3578.5,-16 3847.5,-16 3847.5,-52"/>
<text text-anchor="middle" x="3713" y="-30.3" font-family="Times,serif" font-size="14.00">36_touch#ServerID_7cf8268e6ab5</text>
</g>
<!-- 36_sh#ServerID_7cf8268e6ab5&#45;&gt;36_touch#ServerID_7cf8268e6ab5 -->
<g id="edge28" class="edge"><title>36_sh#ServerID_7cf8268e6ab5&#45;&gt;36_touch#ServerID_7cf8268e6ab5</title>
<path fill="none" stroke="black" d="M3713,-102.799C3713,-91.1626 3713,-75.5479 3713,-62.2368"/>
<polygon fill="black" stroke="black" points="3716.5,-62.1754 3713,-52.1754 3709.5,-62.1755 3716.5,-62.1754"/>
<text text-anchor="middle" x="3738" y="-73.8" font-family="Times,serif" font-size="14.00">execve</text>
</g>
<!-- 35_sh#ServerID_7cf8268e6ab5&#45;&gt;36_sh#ServerID_7cf8268e6ab5 -->
<g id="edge31" class="edge"><title>35_sh#ServerID_7cf8268e6ab5&#45;&gt;36_sh#ServerID_7cf8268e6ab5</title>
<path fill="none" stroke="black" d="M3792.76,-189.799C3777.85,-177.126 3757.39,-159.734 3740.93,-145.738"/>
<polygon fill="black" stroke="black" points="3743.09,-142.985 3733.21,-139.175 3738.56,-148.319 3743.09,-142.985"/>
<text text-anchor="middle" x="3783" y="-160.8" font-family="Times,serif" font-size="14.00">fork</text>
</g>
<!-- /home/app/3.txt#ServerID_7cf8268e6ab5 -->
<g id="node22" class="node"><title>/home/app/3.txt#ServerID_7cf8268e6ab5</title>
<ellipse fill="none" stroke="black" cx="4058" cy="-121" rx="204.964" ry="18"/>
<text text-anchor="middle" x="4058" y="-117.3" font-family="Times,serif" font-size="14.00">/home/app/3.txt#ServerID_7cf8268e6ab5</text>
</g>
<!-- 35_sh#ServerID_7cf8268e6ab5&#45;&gt;/home/app/3.txt#ServerID_7cf8268e6ab5 -->
<g id="edge29" class="edge"><title>35_sh#ServerID_7cf8268e6ab5&#45;&gt;/home/app/3.txt#ServerID_7cf8268e6ab5</title>
<path fill="none" stroke="black" d="M3862.28,-189.901C3902.21,-176.049 3958.53,-156.509 4000.51,-141.945"/>
<polygon fill="black" stroke="black" points="4001.75,-145.222 4010.05,-138.637 3999.45,-138.608 4001.75,-145.222"/>
<text text-anchor="middle" x="3969" y="-160.8" font-family="Times,serif" font-size="14.00">write</text>
</g>
<!-- 10.1.80.1:45145#ServerID_OuterContainerID&#45;&gt;10.1.80.93:8080#ServerID_OuterContainerID -->
<g id="edge34" class="edge"><title>10.1.80.1:45145#ServerID_OuterContainerID&#45;&gt;10.1.80.93:8080#ServerID_OuterContainerID</title>
<path fill="none" stroke="black" d="M349.781,-573.168C360.961,-587.438 373.248,-608.884 366,-628 364.552,-631.819 362.476,-635.488 360.074,-638.92"/>
<polygon fill="black" stroke="black" points="357.178,-636.934 353.607,-646.909 362.619,-641.339 357.178,-636.934"/>
<text text-anchor="middle" x="389" y="-616.8" font-family="Times,serif" font-size="14.00">POST</text>
</g>
</g>
</svg>
