<?xml version="1.0" encoding="UTF-8" standalone="no"?>
<!DOCTYPE svg PUBLIC "-//W3C//DTD SVG 1.1//EN"
 "http://www.w3.org/Graphics/SVG/1.1/DTD/svg11.dtd">
<!-- Generated by graphviz version 2.38.0 (20140413.2041)
 -->
<!-- Title: G Pages: 1 -->
<svg width="4731pt" height="597pt"
 viewBox="0.00 0.00 4731.00 597.00" xmlns="http://www.w3.org/2000/svg" xmlns:xlink="http://www.w3.org/1999/xlink">
<g id="graph0" class="graph" transform="scale(1 1) rotate(0) translate(4 593)">
<title>G</title>
<polygon fill="white" stroke="none" points="-4,4 -4,-593 4727,-593 4727,4 -4,4"/>
<g id="clust1" class="cluster"><title>clusterServerID_1f4f60deee3d</title>
<polygon fill="none" stroke="black" points="3711,-8 3711,-257 4715,-257 4715,-8 3711,-8"/>
<text text-anchor="middle" x="4213" y="-241.8" font-family="Times,serif" font-size="14.00">clusterServerID_1f4f60deee3d</text>
</g>
<g id="clust2" class="cluster"><title>clusterServerID_667d78fb58&#45;847xt</title>
<polygon fill="none" stroke="black" points="3363,-182 3363,-257 3703,-257 3703,-182 3363,-182"/>
<text text-anchor="middle" x="3533" y="-241.8" font-family="Times,serif" font-size="14.00">clusterServerID_667d78fb58&#45;847xt</text>
</g>
<g id="clust3" class="cluster"><title>clusterServerID_6dcbcc88d5&#45;mp48t</title>
<polygon fill="none" stroke="black" points="817,-398 817,-473 1165,-473 1165,-398 817,-398"/>
<text text-anchor="middle" x="991" y="-457.8" font-family="Times,serif" font-size="14.00">clusterServerID_6dcbcc88d5&#45;mp48t</text>
</g>
<g id="clust4" class="cluster"><title>clusterServerID_OuterContainerID</title>
<polygon fill="none" stroke="black" points="8,-182 8,-365 3355,-365 3355,-182 8,-182"/>
<text text-anchor="middle" x="1681.5" y="-349.8" font-family="Times,serif" font-size="14.00">clusterServerID_OuterContainerID</text>
</g>
<g id="clust5" class="cluster"><title>clusterServerID_e47e2b15aff4</title>
<polygon fill="none" stroke="black" points="1763,-398 1763,-581 2855,-581 2855,-398 1763,-398"/>
<text text-anchor="middle" x="2309" y="-565.8" font-family="Times,serif" font-size="14.00">clusterServerID_e47e2b15aff4</text>
</g>
<!-- 1_fwatchdog#ServerID_6dcbcc88d5&#45;mp48t -->
<g id="node1" class="node"><title>1_fwatchdog#ServerID_6dcbcc88d5&#45;mp48t</title>
<polygon fill="none" stroke="black" points="1156.5,-442 825.5,-442 825.5,-406 1156.5,-406 1156.5,-442"/>
<text text-anchor="middle" x="991" y="-420.3" font-family="Times,serif" font-size="14.00">1_fwatchdog#ServerID_6dcbcc88d5&#45;mp48t</text>
</g>
<!-- gateway:8080#ServerID_OuterContainerID -->
<g id="node2" class="node"><title>gateway:8080#ServerID_OuterContainerID</title>
<polygon fill="none" stroke="black" points="992,-334 687.518,-316 992,-298 1296.48,-316 992,-334"/>
<text text-anchor="middle" x="992" y="-312.3" font-family="Times,serif" font-size="14.00">gateway:8080#ServerID_OuterContainerID</text>
</g>
<!-- 1_fwatchdog#ServerID_6dcbcc88d5&#45;mp48t&#45;&gt;gateway:8080#ServerID_OuterContainerID -->
<g id="edge1" class="edge"><title>1_fwatchdog#ServerID_6dcbcc88d5&#45;mp48t&#45;&gt;gateway:8080#ServerID_OuterContainerID</title>
<path fill="none" stroke="black" d="M972.041,-405.736C967.557,-400.523 963.388,-394.455 961,-388 958.687,-381.747 959.333,-379.455 961,-373 963.752,-362.348 969.011,-351.56 974.427,-342.334"/>
<polygon fill="black" stroke="black" points="977.494,-344.03 979.809,-333.692 971.552,-340.33 977.494,-344.03"/>
<text text-anchor="middle" x="981" y="-376.8" font-family="Times,serif" font-size="14.00">POST</text>
</g>
<!-- 10.1.80.183:55798#ServerID_OuterContainerID -->
<g id="node3" class="node"><title>10.1.80.183:55798#ServerID_OuterContainerID</title>
<polygon fill="none" stroke="black" points="2339,-334 2003.52,-316 2339,-298 2674.48,-316 2339,-334"/>
<text text-anchor="middle" x="2339" y="-312.3" font-family="Times,serif" font-size="14.00">10.1.80.183:55798#ServerID_OuterContainerID</text>
</g>
<!-- 1_fwatchdog#ServerID_6dcbcc88d5&#45;mp48t&#45;&gt;10.1.80.183:55798#ServerID_OuterContainerID -->
<g id="edge5" class="edge"><title>1_fwatchdog#ServerID_6dcbcc88d5&#45;mp48t&#45;&gt;10.1.80.183:55798#ServerID_OuterContainerID</title>
<path fill="none" stroke="black" d="M1156.6,-418.18C1256.18,-413.598 1372.53,-404.786 1420,-388 1431.16,-384.054 1430.72,-376.57 1442,-373 1471.24,-363.747 1963.42,-367.34 1994,-365 2083.37,-358.162 2184.89,-343.153 2254.55,-331.726"/>
<polygon fill="black" stroke="black" points="2255.29,-335.151 2264.59,-330.068 2254.15,-328.244 2255.29,-335.151"/>
<text text-anchor="middle" x="1484" y="-376.8" font-family="Times,serif" font-size="14.00">RESPONSE</text>
</g>
<!-- 10.1.80.183:8080#ServerID_OuterContainerID -->
<g id="node6" class="node"><title>10.1.80.183:8080#ServerID_OuterContainerID</title>
<polygon fill="none" stroke="black" points="343,-334 15.5599,-316 343,-298 670.44,-316 343,-334"/>
<text text-anchor="middle" x="343" y="-312.3" font-family="Times,serif" font-size="14.00">10.1.80.183:8080#ServerID_OuterContainerID</text>
</g>
<!-- 1_fwatchdog#ServerID_6dcbcc88d5&#45;mp48t&#45;&gt;10.1.80.183:8080#ServerID_OuterContainerID -->
<g id="edge6" class="edge"><title>1_fwatchdog#ServerID_6dcbcc88d5&#45;mp48t&#45;&gt;10.1.80.183:8080#ServerID_OuterContainerID</title>
<path fill="none" stroke="black" d="M926.471,-405.886C882.863,-394.926 823.823,-381.26 771,-373 730.45,-366.659 719.775,-369.682 679,-365 595.337,-355.394 500.37,-341.554 432.794,-331.201"/>
<polygon fill="black" stroke="black" points="433.025,-327.695 422.609,-329.635 431.961,-334.614 433.025,-327.695"/>
<text text-anchor="middle" x="871" y="-376.8" font-family="Times,serif" font-size="14.00">POST</text>
</g>
<!-- gateway:8080#ServerID_OuterContainerID&#45;&gt;1_fwatchdog#ServerID_6dcbcc88d5&#45;mp48t -->
<g id="edge7" class="edge"><title>gateway:8080#ServerID_OuterContainerID&#45;&gt;1_fwatchdog#ServerID_6dcbcc88d5&#45;mp48t</title>
<path fill="none" stroke="black" d="M996.681,-333.944C1000.05,-348.339 1003.59,-369.543 1001,-388 1000.64,-390.574 1000.14,-393.224 999.547,-395.859"/>
<polygon fill="black" stroke="black" points="996.102,-395.198 996.955,-405.759 1002.87,-396.971 996.102,-395.198"/>
<text text-anchor="middle" x="1044" y="-376.8" font-family="Times,serif" font-size="14.00">RESPONSE</text>
</g>
<!-- 10.1.80.183:55798#ServerID_OuterContainerID&#45;&gt;1_fwatchdog#ServerID_6dcbcc88d5&#45;mp48t -->
<g id="edge2" class="edge"><title>10.1.80.183:55798#ServerID_OuterContainerID&#45;&gt;1_fwatchdog#ServerID_6dcbcc88d5&#45;mp48t</title>
<path fill="none" stroke="black" d="M2264.92,-330.043C2195.26,-341.659 2087.92,-357.883 1994,-365 1721.87,-385.622 1652.24,-353.794 1380,-373 1288.18,-379.477 1184.87,-393.056 1107.8,-404.43"/>
<polygon fill="black" stroke="black" points="1106.96,-401.016 1097.58,-405.948 1107.98,-407.94 1106.96,-401.016"/>
<text text-anchor="middle" x="1400" y="-376.8" font-family="Times,serif" font-size="14.00">POST</text>
</g>
<!-- 1_fwatchdog#ServerID_e47e2b15aff4 -->
<g id="node7" class="node"><title>1_fwatchdog#ServerID_e47e2b15aff4</title>
<polygon fill="none" stroke="black" points="2847,-550 2557,-550 2557,-514 2847,-514 2847,-550"/>
<text text-anchor="middle" x="2702" y="-528.3" font-family="Times,serif" font-size="14.00">1_fwatchdog#ServerID_e47e2b15aff4</text>
</g>
<!-- 10.1.80.183:55798#ServerID_OuterContainerID&#45;&gt;1_fwatchdog#ServerID_e47e2b15aff4 -->
<g id="edge13" class="edge"><title>10.1.80.183:55798#ServerID_OuterContainerID&#45;&gt;1_fwatchdog#ServerID_e47e2b15aff4</title>
<path fill="none" stroke="black" d="M2425.44,-329.411C2495.19,-339.333 2595.86,-353.445 2684,-365 2698.43,-366.892 2737.18,-364.51 2749,-373 2785.36,-399.113 2778.31,-431.718 2761,-473 2755.47,-486.195 2745.31,-497.903 2734.96,-507.283"/>
<polygon fill="black" stroke="black" points="2732.43,-504.841 2727.08,-513.988 2736.97,-510.171 2732.43,-504.841"/>
<text text-anchor="middle" x="2792.5" y="-420.3" font-family="Times,serif" font-size="14.00">read</text>
</g>
<!-- 10.1.80.183:39720#ServerID_OuterContainerID -->
<g id="node4" class="node"><title>10.1.80.183:39720#ServerID_OuterContainerID</title>
<polygon fill="none" stroke="black" points="1650,-334 1314.52,-316 1650,-298 1985.48,-316 1650,-334"/>
<text text-anchor="middle" x="1650" y="-312.3" font-family="Times,serif" font-size="14.00">10.1.80.183:39720#ServerID_OuterContainerID</text>
</g>
<!-- 1_fwatchdog#ServerID_667d78fb58&#45;847xt -->
<g id="node5" class="node"><title>1_fwatchdog#ServerID_667d78fb58&#45;847xt</title>
<polygon fill="none" stroke="black" points="3695,-226 3371,-226 3371,-190 3695,-190 3695,-226"/>
<text text-anchor="middle" x="3533" y="-204.3" font-family="Times,serif" font-size="14.00">1_fwatchdog#ServerID_667d78fb58&#45;847xt</text>
</g>
<!-- 10.1.80.183:39720#ServerID_OuterContainerID&#45;&gt;1_fwatchdog#ServerID_667d78fb58&#45;847xt -->
<g id="edge3" class="edge"><title>10.1.80.183:39720#ServerID_OuterContainerID&#45;&gt;1_fwatchdog#ServerID_667d78fb58&#45;847xt</title>
<path fill="none" stroke="black" d="M1814.95,-306.83C1871.98,-304.017 1936.3,-300.856 1995,-298 2300.32,-283.144 2376.45,-274.141 2682,-265 2757.19,-262.75 3284.51,-267.534 3359,-257 3398.25,-251.449 3441.2,-239.661 3474.61,-229.158"/>
<polygon fill="black" stroke="black" points="3475.75,-232.468 3484.21,-226.092 3473.62,-225.799 3475.75,-232.468"/>
<text text-anchor="middle" x="2702" y="-268.8" font-family="Times,serif" font-size="14.00">POST</text>
</g>
<!-- 1_fwatchdog#ServerID_1f4f60deee3d -->
<g id="node13" class="node"><title>1_fwatchdog#ServerID_1f4f60deee3d</title>
<polygon fill="none" stroke="black" points="4143,-226 3853,-226 3853,-190 4143,-190 4143,-226"/>
<text text-anchor="middle" x="3998" y="-204.3" font-family="Times,serif" font-size="14.00">1_fwatchdog#ServerID_1f4f60deee3d</text>
</g>
<!-- 10.1.80.183:39720#ServerID_OuterContainerID&#45;&gt;1_fwatchdog#ServerID_1f4f60deee3d -->
<g id="edge17" class="edge"><title>10.1.80.183:39720#ServerID_OuterContainerID&#45;&gt;1_fwatchdog#ServerID_1f4f60deee3d</title>
<path fill="none" stroke="black" d="M1803.66,-306.238C1863.38,-303.145 1932.36,-299.953 1995,-298 2604.53,-278.99 2757.67,-304.589 3367,-280 3518.33,-273.893 3556.55,-274.456 3707,-257 3771.06,-249.568 3842.51,-237.832 3898.59,-227.825"/>
<polygon fill="black" stroke="black" points="3899.29,-231.254 3908.52,-226.042 3898.05,-224.364 3899.29,-231.254"/>
<text text-anchor="middle" x="3645.5" y="-268.8" font-family="Times,serif" font-size="14.00">read</text>
</g>
<!-- 1_fwatchdog#ServerID_667d78fb58&#45;847xt&#45;&gt;10.1.80.183:39720#ServerID_OuterContainerID -->
<g id="edge8" class="edge"><title>1_fwatchdog#ServerID_667d78fb58&#45;847xt&#45;&gt;10.1.80.183:39720#ServerID_OuterContainerID</title>
<path fill="none" stroke="black" d="M3483.42,-226.003C3448.97,-236.991 3401.74,-250.425 3359,-257 3059.28,-303.105 2298.04,-286.784 1995,-298 1937.19,-300.139 1873.97,-303.08 1817.62,-305.915"/>
<polygon fill="black" stroke="black" points="1817.35,-302.423 1807.54,-306.424 1817.71,-309.414 1817.35,-302.423"/>
<text text-anchor="middle" x="3321" y="-268.8" font-family="Times,serif" font-size="14.00">RESPONSE</text>
</g>
<!-- 10.1.80.183:8080#ServerID_OuterContainerID&#45;&gt;1_fwatchdog#ServerID_6dcbcc88d5&#45;mp48t -->
<g id="edge4" class="edge"><title>10.1.80.183:8080#ServerID_OuterContainerID&#45;&gt;1_fwatchdog#ServerID_6dcbcc88d5&#45;mp48t</title>
<path fill="none" stroke="black" d="M401.751,-330.788C470.001,-346.417 586.147,-371.819 687,-388 728.399,-394.642 773.166,-400.515 815.289,-405.462"/>
<polygon fill="black" stroke="black" points="815.028,-408.956 825.366,-406.634 815.837,-402.002 815.028,-408.956"/>
<text text-anchor="middle" x="729" y="-376.8" font-family="Times,serif" font-size="14.00">RESPONSE</text>
</g>
<!-- 10.1.80.1:16124#ServerID_OuterContainerID -->
<g id="node17" class="node"><title>10.1.80.1:16124#ServerID_OuterContainerID</title>
<polygon fill="none" stroke="black" points="1679,-226 1360.1,-208 1679,-190 1997.9,-208 1679,-226"/>
<text text-anchor="middle" x="1679" y="-204.3" font-family="Times,serif" font-size="14.00">10.1.80.1:16124#ServerID_OuterContainerID</text>
</g>
<!-- 10.1.80.183:8080#ServerID_OuterContainerID&#45;&gt;10.1.80.1:16124#ServerID_OuterContainerID -->
<g id="edge22" class="edge"><title>10.1.80.183:8080#ServerID_OuterContainerID&#45;&gt;10.1.80.1:16124#ServerID_OuterContainerID</title>
<path fill="none" stroke="black" d="M480.4,-305.516C640.606,-294.678 913.408,-276.906 1148,-265 1238.18,-260.423 1261.09,-265.327 1351,-257 1434.81,-249.239 1529.9,-234.68 1596.04,-223.624"/>
<polygon fill="black" stroke="black" points="1596.71,-227.06 1605.99,-221.95 1595.55,-220.157 1596.71,-227.06"/>
<text text-anchor="middle" x="1190" y="-268.8" font-family="Times,serif" font-size="14.00">RESPONSE</text>
</g>
<!-- 10.0.88.125:31112#ServerID_OuterContainerID -->
<g id="node18" class="node"><title>10.0.88.125:31112#ServerID_OuterContainerID</title>
<polygon fill="none" stroke="black" points="351,-226 15.5152,-208 351,-190 686.485,-208 351,-226"/>
<text text-anchor="middle" x="351" y="-204.3" font-family="Times,serif" font-size="14.00">10.0.88.125:31112#ServerID_OuterContainerID</text>
</g>
<!-- 10.1.80.183:8080#ServerID_OuterContainerID&#45;&gt;10.0.88.125:31112#ServerID_OuterContainerID -->
<g id="edge23" class="edge"><title>10.1.80.183:8080#ServerID_OuterContainerID&#45;&gt;10.0.88.125:31112#ServerID_OuterContainerID</title>
<path fill="none" stroke="black" d="M344.285,-297.969C345.545,-281.279 347.485,-255.579 348.956,-236.084"/>
<polygon fill="black" stroke="black" points="352.455,-236.224 349.718,-225.988 345.475,-235.697 352.455,-236.224"/>
<text text-anchor="middle" x="389" y="-268.8" font-family="Times,serif" font-size="14.00">RESPONSE</text>
</g>
<!-- 10.1.80.1:23640#ServerID_OuterContainerID -->
<g id="node19" class="node"><title>10.1.80.1:23640#ServerID_OuterContainerID</title>
<polygon fill="none" stroke="black" points="1023,-226 704.105,-208 1023,-190 1341.9,-208 1023,-226"/>
<text text-anchor="middle" x="1023" y="-204.3" font-family="Times,serif" font-size="14.00">10.1.80.1:23640#ServerID_OuterContainerID</text>
</g>
<!-- 10.1.80.183:8080#ServerID_OuterContainerID&#45;&gt;10.1.80.1:23640#ServerID_OuterContainerID -->
<g id="edge25" class="edge"><title>10.1.80.183:8080#ServerID_OuterContainerID&#45;&gt;10.1.80.1:23640#ServerID_OuterContainerID</title>
<path fill="none" stroke="black" d="M483.096,-305.65C550.965,-300.073 633.495,-291.744 707,-280 795.676,-265.832 896.695,-241.709 960.145,-225.566"/>
<polygon fill="black" stroke="black" points="961.177,-228.914 969.998,-223.046 959.442,-222.133 961.177,-228.914"/>
<text text-anchor="middle" x="828" y="-268.8" font-family="Times,serif" font-size="14.00">RESPONSE</text>
</g>
<!-- localhost:3000#ServerID_e47e2b15aff4 -->
<g id="node8" class="node"><title>localhost:3000#ServerID_e47e2b15aff4</title>
<polygon fill="none" stroke="black" points="2473,-442 2193.65,-424 2473,-406 2752.35,-424 2473,-442"/>
<text text-anchor="middle" x="2473" y="-420.3" font-family="Times,serif" font-size="14.00">localhost:3000#ServerID_e47e2b15aff4</text>
</g>
<!-- 1_fwatchdog#ServerID_e47e2b15aff4&#45;&gt;localhost:3000#ServerID_e47e2b15aff4 -->
<g id="edge9" class="edge"><title>1_fwatchdog#ServerID_e47e2b15aff4&#45;&gt;localhost:3000#ServerID_e47e2b15aff4</title>
<path fill="none" stroke="black" d="M2665.21,-513.969C2624.07,-494.926 2557.59,-464.154 2514.59,-444.252"/>
<polygon fill="black" stroke="black" points="2515.81,-440.957 2505.26,-439.933 2512.86,-447.31 2515.81,-440.957"/>
<text text-anchor="middle" x="2641" y="-484.8" font-family="Times,serif" font-size="14.00">write</text>
</g>
<!-- 9_node#ServerID_e47e2b15aff4 -->
<g id="node9" class="node"><title>9_node#ServerID_e47e2b15aff4</title>
<polygon fill="none" stroke="black" points="2176,-442 1926,-442 1926,-406 2176,-406 2176,-442"/>
<text text-anchor="middle" x="2051" y="-420.3" font-family="Times,serif" font-size="14.00">9_node#ServerID_e47e2b15aff4</text>
</g>
<!-- 9_node#ServerID_e47e2b15aff4&#45;&gt;gateway:8080#ServerID_OuterContainerID -->
<g id="edge16" class="edge"><title>9_node#ServerID_e47e2b15aff4&#45;&gt;gateway:8080#ServerID_OuterContainerID</title>
<path fill="none" stroke="black" d="M1925.9,-408.869C1820.47,-397.471 1665.55,-381.917 1530,-373 1430.6,-366.461 1405.18,-374.32 1306,-365 1225.61,-357.446 1134.46,-342.831 1071.16,-331.703"/>
<polygon fill="black" stroke="black" points="1071.7,-328.245 1061.24,-329.949 1070.48,-335.138 1071.7,-328.245"/>
<text text-anchor="middle" x="1746" y="-376.8" font-family="Times,serif" font-size="14.00">connect</text>
</g>
<!-- 10.152.183.10:53#ServerID_OuterContainerID -->
<g id="node10" class="node"><title>10.152.183.10:53#ServerID_OuterContainerID</title>
<polygon fill="none" stroke="black" points="3020,-334 2692.56,-316 3020,-298 3347.44,-316 3020,-334"/>
<text text-anchor="middle" x="3020" y="-312.3" font-family="Times,serif" font-size="14.00">10.152.183.10:53#ServerID_OuterContainerID</text>
</g>
<!-- 9_node#ServerID_e47e2b15aff4&#45;&gt;10.152.183.10:53#ServerID_OuterContainerID -->
<g id="edge10" class="edge"><title>9_node#ServerID_e47e2b15aff4&#45;&gt;10.152.183.10:53#ServerID_OuterContainerID</title>
<path fill="none" stroke="black" d="M2134.77,-405.969C2151.37,-402.993 2168.7,-400.162 2185,-398 2324.22,-379.54 2359.82,-381.624 2500,-373 2581.26,-368.001 2601.94,-372.527 2683,-365 2768.92,-357.023 2866.45,-342.531 2934.4,-331.551"/>
<polygon fill="black" stroke="black" points="2935.32,-334.948 2944.63,-329.889 2934.2,-328.039 2935.32,-334.948"/>
<text text-anchor="middle" x="2524.5" y="-376.8" font-family="Times,serif" font-size="14.00">sendto</text>
</g>
<!-- 10.152.183.10:53#ServerID_OuterContainerID&#45;&gt;9_node#ServerID_e47e2b15aff4 -->
<g id="edge14" class="edge"><title>10.152.183.10:53#ServerID_OuterContainerID&#45;&gt;9_node#ServerID_e47e2b15aff4</title>
<path fill="none" stroke="black" d="M2950.49,-330.199C2858.89,-346.968 2692.53,-375.258 2549,-388 2387.8,-402.311 2345.93,-380.884 2185,-398 2170.66,-399.525 2155.55,-401.741 2140.86,-404.232"/>
<polygon fill="black" stroke="black" points="2140.01,-400.826 2130.77,-405.995 2141.22,-407.722 2140.01,-400.826"/>
<text text-anchor="middle" x="2712" y="-376.8" font-family="Times,serif" font-size="14.00">recvfrom</text>
</g>
<!-- /etc/resolv.conf#ServerID_e47e2b15aff4 -->
<g id="node11" class="node"><title>/etc/resolv.conf#ServerID_e47e2b15aff4</title>
<ellipse fill="none" stroke="black" cx="2339" cy="-532" rx="200.365" ry="18"/>
<text text-anchor="middle" x="2339" y="-528.3" font-family="Times,serif" font-size="14.00">/etc/resolv.conf#ServerID_e47e2b15aff4</text>
</g>
<!-- /etc/resolv.conf#ServerID_e47e2b15aff4&#45;&gt;9_node#ServerID_e47e2b15aff4 -->
<g id="edge11" class="edge"><title>/etc/resolv.conf#ServerID_e47e2b15aff4&#45;&gt;9_node#ServerID_e47e2b15aff4</title>
<path fill="none" stroke="black" d="M2294,-514.438C2243.56,-495.871 2161.7,-465.743 2107.12,-445.654"/>
<polygon fill="black" stroke="black" points="2108.19,-442.318 2097.59,-442.149 2105.77,-448.887 2108.19,-442.318"/>
<text text-anchor="middle" x="2254.5" y="-484.8" font-family="Times,serif" font-size="14.00">read</text>
</g>
<!-- /etc/hosts#ServerID_e47e2b15aff4 -->
<g id="node12" class="node"><title>/etc/hosts#ServerID_e47e2b15aff4</title>
<ellipse fill="none" stroke="black" cx="1946" cy="-532" rx="174.669" ry="18"/>
<text text-anchor="middle" x="1946" y="-528.3" font-family="Times,serif" font-size="14.00">/etc/hosts#ServerID_e47e2b15aff4</text>
</g>
<!-- /etc/hosts#ServerID_e47e2b15aff4&#45;&gt;9_node#ServerID_e47e2b15aff4 -->
<g id="edge12" class="edge"><title>/etc/hosts#ServerID_e47e2b15aff4&#45;&gt;9_node#ServerID_e47e2b15aff4</title>
<path fill="none" stroke="black" d="M1962.87,-513.969C1980.14,-496.533 2007.15,-469.263 2026.72,-449.508"/>
<polygon fill="black" stroke="black" points="2029.27,-451.908 2033.82,-442.341 2024.3,-446.982 2029.27,-451.908"/>
<text text-anchor="middle" x="2012.5" y="-484.8" font-family="Times,serif" font-size="14.00">read</text>
</g>
<!-- localhost:3000#ServerID_1f4f60deee3d -->
<g id="node14" class="node"><title>localhost:3000#ServerID_1f4f60deee3d</title>
<polygon fill="none" stroke="black" points="3998,-139 3718.65,-121 3998,-103 4277.35,-121 3998,-139"/>
<text text-anchor="middle" x="3998" y="-117.3" font-family="Times,serif" font-size="14.00">localhost:3000#ServerID_1f4f60deee3d</text>
</g>
<!-- 1_fwatchdog#ServerID_1f4f60deee3d&#45;&gt;localhost:3000#ServerID_1f4f60deee3d -->
<g id="edge15" class="edge"><title>1_fwatchdog#ServerID_1f4f60deee3d&#45;&gt;localhost:3000#ServerID_1f4f60deee3d</title>
<path fill="none" stroke="black" d="M3978.42,-189.764C3970.33,-180.482 3963.72,-168.583 3968,-157 3969.4,-153.224 3971.4,-149.58 3973.73,-146.162"/>
<polygon fill="black" stroke="black" points="3976.56,-148.214 3979.98,-138.186 3971.06,-143.893 3976.56,-148.214"/>
<text text-anchor="middle" x="3987" y="-160.8" font-family="Times,serif" font-size="14.00">write</text>
</g>
<!-- pipe:[77303348]#ServerID_1f4f60deee3d -->
<g id="node16" class="node"><title>pipe:[77303348]#ServerID_1f4f60deee3d</title>
<ellipse fill="none" stroke="black" cx="4501" cy="-121" rx="206.063" ry="18"/>
<text text-anchor="middle" x="4501" y="-117.3" font-family="Times,serif" font-size="14.00">pipe:[77303348]#ServerID_1f4f60deee3d</text>
</g>
<!-- 1_fwatchdog#ServerID_1f4f60deee3d&#45;&gt;pipe:[77303348]#ServerID_1f4f60deee3d -->
<g id="edge20" class="edge"><title>1_fwatchdog#ServerID_1f4f60deee3d&#45;&gt;pipe:[77303348]#ServerID_1f4f60deee3d</title>
<path fill="none" stroke="black" d="M4098.88,-189.952C4186.7,-175.113 4313.3,-153.719 4400.89,-138.918"/>
<polygon fill="black" stroke="black" points="4401.56,-142.354 4410.83,-137.237 4400.39,-135.452 4401.56,-142.354"/>
<text text-anchor="middle" x="4298" y="-160.8" font-family="Times,serif" font-size="14.00">write</text>
</g>
<!-- localhost:3000#ServerID_1f4f60deee3d&#45;&gt;1_fwatchdog#ServerID_1f4f60deee3d -->
<g id="edge19" class="edge"><title>localhost:3000#ServerID_1f4f60deee3d&#45;&gt;1_fwatchdog#ServerID_1f4f60deee3d</title>
<path fill="none" stroke="black" d="M4002.68,-138.958C4004.04,-144.646 4005.33,-151.054 4006,-157 4006.84,-164.481 4006.23,-172.553 4005.03,-179.982"/>
<polygon fill="black" stroke="black" points="4001.57,-179.438 4003.05,-189.929 4008.44,-180.805 4001.57,-179.438"/>
<text text-anchor="middle" x="4022.5" y="-160.8" font-family="Times,serif" font-size="14.00">read</text>
</g>
<!-- 10_node#ServerID_1f4f60deee3d -->
<g id="node15" class="node"><title>10_node#ServerID_1f4f60deee3d</title>
<polygon fill="none" stroke="black" points="4127.5,-52 3868.5,-52 3868.5,-16 4127.5,-16 4127.5,-52"/>
<text text-anchor="middle" x="3998" y="-30.3" font-family="Times,serif" font-size="14.00">10_node#ServerID_1f4f60deee3d</text>
</g>
<!-- localhost:3000#ServerID_1f4f60deee3d&#45;&gt;10_node#ServerID_1f4f60deee3d -->
<g id="edge18" class="edge"><title>localhost:3000#ServerID_1f4f60deee3d&#45;&gt;10_node#ServerID_1f4f60deee3d</title>
<path fill="none" stroke="black" d="M3998,-102.799C3998,-91.1626 3998,-75.5479 3998,-62.2368"/>
<polygon fill="black" stroke="black" points="4001.5,-62.1754 3998,-52.1754 3994.5,-62.1755 4001.5,-62.1754"/>
<text text-anchor="middle" x="4014.5" y="-73.8" font-family="Times,serif" font-size="14.00">read</text>
</g>
<!-- 10.1.80.1:16124#ServerID_OuterContainerID&#45;&gt;10.1.80.183:8080#ServerID_OuterContainerID -->
<g id="edge21" class="edge"><title>10.1.80.1:16124#ServerID_OuterContainerID&#45;&gt;10.1.80.183:8080#ServerID_OuterContainerID</title>
<path fill="none" stroke="black" d="M1612.92,-222.277C1526.63,-238.992 1370.72,-267.08 1236,-280 989.446,-303.646 926.472,-287.742 679,-298 623.512,-300.3 562.892,-303.237 508.605,-306.02"/>
<polygon fill="black" stroke="black" points="508.352,-302.528 498.545,-306.537 508.712,-309.519 508.352,-302.528"/>
<text text-anchor="middle" x="1379" y="-268.8" font-family="Times,serif" font-size="14.00">POST</text>
</g>
<!-- 10.1.80.1:23640#ServerID_OuterContainerID&#45;&gt;10.1.80.183:8080#ServerID_OuterContainerID -->
<g id="edge24" class="edge"><title>10.1.80.1:23640#ServerID_OuterContainerID&#45;&gt;10.1.80.183:8080#ServerID_OuterContainerID</title>
<path fill="none" stroke="black" d="M942.693,-221.518C815.29,-241.378 567.621,-279.985 433.891,-300.832"/>
<polygon fill="black" stroke="black" points="433.017,-297.426 423.675,-302.424 434.095,-304.342 433.017,-297.426"/>
<text text-anchor="middle" x="683" y="-268.8" font-family="Times,serif" font-size="14.00">POST</text>
</g>
</g>
</svg>
