<?xml version="1.0" encoding="UTF-8" standalone="no"?>
<!DOCTYPE svg PUBLIC "-//W3C//DTD SVG 1.1//EN"
 "http://www.w3.org/Graphics/SVG/1.1/DTD/svg11.dtd">
<!-- Generated by graphviz version 2.38.0 (20140413.2041)
 -->
<!-- Title: G Pages: 1 -->
<svg width="5900pt" height="471pt"
 viewBox="0.00 0.00 5900.00 471.00" xmlns="http://www.w3.org/2000/svg" xmlns:xlink="http://www.w3.org/1999/xlink">
<g id="graph0" class="graph" transform="scale(1 1) rotate(0) translate(4 467)">
<title>G</title>
<polygon fill="white" stroke="none" points="-4,4 -4,-467 5896,-467 5896,4 -4,4"/>
<g id="clust1" class="cluster"><title>clusterServerID_2347d2f455dd</title>
<polygon fill="none" stroke="black" points="3660,-95 3660,-324 4774,-324 4774,-95 3660,-95"/>
<text text-anchor="middle" x="4217" y="-308.8" font-family="Times,serif" font-size="14.00">clusterServerID_2347d2f455dd</text>
</g>
<g id="clust2" class="cluster"><title>clusterServerID_5f846fd567&#45;g8dn6</title>
<polygon fill="none" stroke="black" points="3312,-95 3312,-193 3652,-193 3652,-95 3312,-95"/>
<text text-anchor="middle" x="3482" y="-177.8" font-family="Times,serif" font-size="14.00">clusterServerID_5f846fd567&#45;g8dn6</text>
</g>
<g id="clust3" class="cluster"><title>clusterServerID_6df85d7674&#45;f2xxt</title>
<polygon fill="none" stroke="black" points="1479,-357 1479,-455 1815,-455 1815,-357 1479,-357"/>
<text text-anchor="middle" x="1647" y="-439.8" font-family="Times,serif" font-size="14.00">clusterServerID_6df85d7674&#45;f2xxt</text>
</g>
<g id="clust4" class="cluster"><title>clusterServerID_7cf8268e6ab5</title>
<polygon fill="none" stroke="black" points="4782,-8 4782,-324 5884,-324 5884,-8 4782,-8"/>
<text text-anchor="middle" x="5333" y="-308.8" font-family="Times,serif" font-size="14.00">clusterServerID_7cf8268e6ab5</text>
</g>
<g id="clust5" class="cluster"><title>clusterServerID_OuterContainerID</title>
<polygon fill="none" stroke="black" points="8,-95 8,-324 3304,-324 3304,-95 8,-95"/>
<text text-anchor="middle" x="1656" y="-308.8" font-family="Times,serif" font-size="14.00">clusterServerID_OuterContainerID</text>
</g>
<!-- 1_fwatchdog#ServerID_6df85d7674&#45;f2xxt -->
<g id="node1" class="node"><title>1_fwatchdog#ServerID_6df85d7674&#45;f2xxt</title>
<polygon fill="none" stroke="black" points="1807,-401 1487,-401 1487,-365 1807,-365 1807,-401"/>
<text text-anchor="middle" x="1647" y="-379.3" font-family="Times,serif" font-size="14.00">1_fwatchdog#ServerID_6df85d7674&#45;f2xxt</text>
</g>
<!-- 10.1.80.93:8080#ServerID_OuterContainerID -->
<g id="node2" class="node"><title>10.1.80.93:8080#ServerID_OuterContainerID</title>
<polygon fill="none" stroke="black" points="335,-270 16.1049,-252 335,-234 653.895,-252 335,-270"/>
<text text-anchor="middle" x="335" y="-248.3" font-family="Times,serif" font-size="14.00">10.1.80.93:8080#ServerID_OuterContainerID</text>
</g>
<!-- 1_fwatchdog#ServerID_6df85d7674&#45;f2xxt&#45;&gt;10.1.80.93:8080#ServerID_OuterContainerID -->
<g id="edge1" class="edge"><title>1_fwatchdog#ServerID_6df85d7674&#45;f2xxt&#45;&gt;10.1.80.93:8080#ServerID_OuterContainerID</title>
<path fill="none" stroke="black" d="M1486.66,-381.839C1291.08,-379.51 950.919,-368.569 663,-324 570.719,-309.715 465.424,-285.488 399.58,-269.366"/>
<polygon fill="black" stroke="black" points="400.306,-265.941 389.759,-266.95 398.633,-272.738 400.306,-265.941"/>
<text text-anchor="middle" x="843" y="-335.8" font-family="Times,serif" font-size="14.00">POST</text>
</g>
<!-- gateway:8080#ServerID_OuterContainerID -->
<g id="node3" class="node"><title>gateway:8080#ServerID_OuterContainerID</title>
<polygon fill="none" stroke="black" points="1648,-270 1343.52,-252 1648,-234 1952.48,-252 1648,-270"/>
<text text-anchor="middle" x="1648" y="-248.3" font-family="Times,serif" font-size="14.00">gateway:8080#ServerID_OuterContainerID</text>
</g>
<!-- 1_fwatchdog#ServerID_6df85d7674&#45;f2xxt&#45;&gt;gateway:8080#ServerID_OuterContainerID -->
<g id="edge6" class="edge"><title>1_fwatchdog#ServerID_6df85d7674&#45;f2xxt&#45;&gt;gateway:8080#ServerID_OuterContainerID</title>
<path fill="none" stroke="black" d="M1625.2,-364.762C1620.26,-359.629 1615.68,-353.594 1613,-347 1610.49,-340.822 1611.62,-338.522 1613,-332 1616.95,-313.34 1625.61,-293.727 1633.33,-278.712"/>
<polygon fill="black" stroke="black" points="1636.59,-280.036 1638.2,-269.565 1630.41,-276.743 1636.59,-280.036"/>
<text text-anchor="middle" x="1633" y="-335.8" font-family="Times,serif" font-size="14.00">POST</text>
</g>
<!-- 10.1.80.93:58500#ServerID_OuterContainerID -->
<g id="node4" class="node"><title>10.1.80.93:58500#ServerID_OuterContainerID</title>
<polygon fill="none" stroke="black" points="2969,-270 2641.56,-252 2969,-234 3296.44,-252 2969,-270"/>
<text text-anchor="middle" x="2969" y="-248.3" font-family="Times,serif" font-size="14.00">10.1.80.93:58500#ServerID_OuterContainerID</text>
</g>
<!-- 1_fwatchdog#ServerID_6df85d7674&#45;f2xxt&#45;&gt;10.1.80.93:58500#ServerID_OuterContainerID -->
<g id="edge7" class="edge"><title>1_fwatchdog#ServerID_6df85d7674&#45;f2xxt&#45;&gt;10.1.80.93:58500#ServerID_OuterContainerID</title>
<path fill="none" stroke="black" d="M1807.06,-369.515C1956.48,-358.25 2185.72,-341.962 2385,-332 2495.14,-326.494 2523.52,-337.229 2633,-324 2729.42,-312.35 2839.17,-286.781 2906.25,-269.722"/>
<polygon fill="black" stroke="black" points="2907.42,-273.036 2916.24,-267.165 2905.68,-266.255 2907.42,-273.036"/>
<text text-anchor="middle" x="2427" y="-335.8" font-family="Times,serif" font-size="14.00">RESPONSE</text>
</g>
<!-- 10.1.80.93:8080#ServerID_OuterContainerID&#45;&gt;1_fwatchdog#ServerID_6df85d7674&#45;f2xxt -->
<g id="edge8" class="edge"><title>10.1.80.93:8080#ServerID_OuterContainerID&#45;&gt;1_fwatchdog#ServerID_6df85d7674&#45;f2xxt</title>
<path fill="none" stroke="black" d="M386.779,-267.137C451.018,-283.995 564.162,-311.461 663,-324 753.015,-335.419 776.384,-327.32 867,-332 1077.01,-342.847 1318.6,-358.885 1476.57,-369.853"/>
<polygon fill="black" stroke="black" points="1476.63,-373.366 1486.85,-370.568 1477.12,-366.383 1476.63,-373.366"/>
<text text-anchor="middle" x="1167" y="-335.8" font-family="Times,serif" font-size="14.00">RESPONSE</text>
</g>
<!-- 10.1.80.1:24904#ServerID_OuterContainerID -->
<g id="node18" class="node"><title>10.1.80.1:24904#ServerID_OuterContainerID</title>
<polygon fill="none" stroke="black" points="1023,-139 704.105,-121 1023,-103 1341.9,-121 1023,-139"/>
<text text-anchor="middle" x="1023" y="-117.3" font-family="Times,serif" font-size="14.00">10.1.80.1:24904#ServerID_OuterContainerID</text>
</g>
<!-- 10.1.80.93:8080#ServerID_OuterContainerID&#45;&gt;10.1.80.1:24904#ServerID_OuterContainerID -->
<g id="edge27" class="edge"><title>10.1.80.93:8080#ServerID_OuterContainerID&#45;&gt;10.1.80.1:24904#ServerID_OuterContainerID</title>
<path fill="none" stroke="black" d="M483.497,-242.33C547.683,-237.057 623.419,-228.784 691,-216 791.776,-196.937 906.254,-161.328 971.03,-139.831"/>
<polygon fill="black" stroke="black" points="972.227,-143.121 980.605,-136.636 970.011,-136.481 972.227,-143.121"/>
<text text-anchor="middle" x="798" y="-204.8" font-family="Times,serif" font-size="14.00">RESPONSE</text>
</g>
<!-- 10.0.88.125:31112#ServerID_OuterContainerID -->
<g id="node19" class="node"><title>10.0.88.125:31112#ServerID_OuterContainerID</title>
<polygon fill="none" stroke="black" points="351,-139 15.5152,-121 351,-103 686.485,-121 351,-139"/>
<text text-anchor="middle" x="351" y="-117.3" font-family="Times,serif" font-size="14.00">10.0.88.125:31112#ServerID_OuterContainerID</text>
</g>
<!-- 10.1.80.93:8080#ServerID_OuterContainerID&#45;&gt;10.0.88.125:31112#ServerID_OuterContainerID -->
<g id="edge28" class="edge"><title>10.1.80.93:8080#ServerID_OuterContainerID&#45;&gt;10.0.88.125:31112#ServerID_OuterContainerID</title>
<path fill="none" stroke="black" d="M337.125,-233.87C339.802,-212.281 344.437,-174.912 347.607,-149.352"/>
<polygon fill="black" stroke="black" points="351.109,-149.556 348.867,-139.201 344.162,-148.694 351.109,-149.556"/>
<text text-anchor="middle" x="384" y="-204.8" font-family="Times,serif" font-size="14.00">RESPONSE</text>
</g>
<!-- gateway:8080#ServerID_OuterContainerID&#45;&gt;1_fwatchdog#ServerID_6df85d7674&#45;f2xxt -->
<g id="edge2" class="edge"><title>gateway:8080#ServerID_OuterContainerID&#45;&gt;1_fwatchdog#ServerID_6df85d7674&#45;f2xxt</title>
<path fill="none" stroke="black" d="M1652.03,-270.034C1655.93,-288.905 1660.75,-320.211 1657,-347 1656.64,-349.574 1656.14,-352.224 1655.55,-354.859"/>
<polygon fill="black" stroke="black" points="1652.1,-354.198 1652.96,-364.759 1658.87,-355.971 1652.1,-354.198"/>
<text text-anchor="middle" x="1701" y="-335.8" font-family="Times,serif" font-size="14.00">RESPONSE</text>
</g>
<!-- 13_node#ServerID_2347d2f455dd -->
<g id="node10" class="node"><title>13_node#ServerID_2347d2f455dd</title>
<polygon fill="none" stroke="black" points="3933.5,-139 3668.5,-139 3668.5,-103 3933.5,-103 3933.5,-139"/>
<text text-anchor="middle" x="3801" y="-117.3" font-family="Times,serif" font-size="14.00">13_node#ServerID_2347d2f455dd</text>
</g>
<!-- gateway:8080#ServerID_OuterContainerID&#45;&gt;13_node#ServerID_2347d2f455dd -->
<g id="edge25" class="edge"><title>gateway:8080#ServerID_OuterContainerID&#45;&gt;13_node#ServerID_2347d2f455dd</title>
<path fill="none" stroke="black" d="M1761.61,-240.714C1901.36,-228.585 2145.91,-209.057 2356,-201 2392.09,-199.616 3620.85,-201.259 3656,-193 3696.26,-183.542 3738.27,-161.405 3766.65,-144.344"/>
<polygon fill="black" stroke="black" points="3768.66,-147.213 3775.36,-139.005 3765.01,-141.244 3768.66,-147.213"/>
<text text-anchor="middle" x="2372.5" y="-204.8" font-family="Times,serif" font-size="14.00">read</text>
</g>
<!-- 10.1.80.93:58500#ServerID_OuterContainerID&#45;&gt;1_fwatchdog#ServerID_6df85d7674&#45;f2xxt -->
<g id="edge3" class="edge"><title>10.1.80.93:58500#ServerID_OuterContainerID&#45;&gt;1_fwatchdog#ServerID_6df85d7674&#45;f2xxt</title>
<path fill="none" stroke="black" d="M2911.65,-266.895C2845.01,-282.623 2731.59,-308.117 2633,-324 2349.49,-369.67 2014.98,-380.409 1817.5,-382.374"/>
<polygon fill="black" stroke="black" points="1817.29,-378.876 1807.33,-382.469 1817.36,-385.876 1817.29,-378.876"/>
<text text-anchor="middle" x="2574" y="-335.8" font-family="Times,serif" font-size="14.00">POST</text>
</g>
<!-- 1_fwatchdog#ServerID_2347d2f455dd -->
<g id="node7" class="node"><title>1_fwatchdog#ServerID_2347d2f455dd</title>
<polygon fill="none" stroke="black" points="4766,-270 4470,-270 4470,-234 4766,-234 4766,-270"/>
<text text-anchor="middle" x="4618" y="-248.3" font-family="Times,serif" font-size="14.00">1_fwatchdog#ServerID_2347d2f455dd</text>
</g>
<!-- 10.1.80.93:58500#ServerID_OuterContainerID&#45;&gt;1_fwatchdog#ServerID_2347d2f455dd -->
<g id="edge13" class="edge"><title>10.1.80.93:58500#ServerID_OuterContainerID&#45;&gt;1_fwatchdog#ServerID_2347d2f455dd</title>
<path fill="none" stroke="black" d="M3062.38,-264.913C3194.31,-282.445 3442.98,-312.868 3656,-324 3834.65,-333.336 4286.23,-362.164 4461,-324 4503.93,-314.626 4549.15,-292.393 4579.98,-275.093"/>
<polygon fill="black" stroke="black" points="4581.72,-278.129 4588.67,-270.131 4578.25,-272.05 4581.72,-278.129"/>
<text text-anchor="middle" x="3883" y="-335.8" font-family="Times,serif" font-size="14.00">read</text>
</g>
<!-- 10.1.80.93:50510#ServerID_OuterContainerID -->
<g id="node5" class="node"><title>10.1.80.93:50510#ServerID_OuterContainerID</title>
<polygon fill="none" stroke="black" points="999,-270 671.56,-252 999,-234 1326.44,-252 999,-270"/>
<text text-anchor="middle" x="999" y="-248.3" font-family="Times,serif" font-size="14.00">10.1.80.93:50510#ServerID_OuterContainerID</text>
</g>
<!-- 1_fwatchdog#ServerID_5f846fd567&#45;g8dn6 -->
<g id="node6" class="node"><title>1_fwatchdog#ServerID_5f846fd567&#45;g8dn6</title>
<polygon fill="none" stroke="black" points="3644,-139 3320,-139 3320,-103 3644,-103 3644,-139"/>
<text text-anchor="middle" x="3482" y="-117.3" font-family="Times,serif" font-size="14.00">1_fwatchdog#ServerID_5f846fd567&#45;g8dn6</text>
</g>
<!-- 10.1.80.93:50510#ServerID_OuterContainerID&#45;&gt;1_fwatchdog#ServerID_5f846fd567&#45;g8dn6 -->
<g id="edge4" class="edge"><title>10.1.80.93:50510#ServerID_OuterContainerID&#45;&gt;1_fwatchdog#ServerID_5f846fd567&#45;g8dn6</title>
<path fill="none" stroke="black" d="M1079.05,-238.331C1160.94,-226.04 1291.97,-208.219 1406,-201 1458.73,-197.662 3256.18,-203.28 3308,-193 3355.83,-183.513 3407.11,-160.906 3441.52,-143.73"/>
<polygon fill="black" stroke="black" points="3443.42,-146.689 3450.76,-139.045 3440.26,-140.446 3443.42,-146.689"/>
<text text-anchor="middle" x="1426" y="-204.8" font-family="Times,serif" font-size="14.00">POST</text>
</g>
<!-- 1_fwatchdog#ServerID_7cf8268e6ab5 -->
<g id="node14" class="node"><title>1_fwatchdog#ServerID_7cf8268e6ab5</title>
<polygon fill="none" stroke="black" points="5158,-139 4864,-139 4864,-103 5158,-103 5158,-139"/>
<text text-anchor="middle" x="5011" y="-117.3" font-family="Times,serif" font-size="14.00">1_fwatchdog#ServerID_7cf8268e6ab5</text>
</g>
<!-- 10.1.80.93:50510#ServerID_OuterContainerID&#45;&gt;1_fwatchdog#ServerID_7cf8268e6ab5 -->
<g id="edge19" class="edge"><title>10.1.80.93:50510#ServerID_OuterContainerID&#45;&gt;1_fwatchdog#ServerID_7cf8268e6ab5</title>
<path fill="none" stroke="black" d="M1157.52,-242.698C1213.58,-239.837 1277.09,-236.68 1335,-234 1525.63,-225.178 1573.38,-225.05 1764,-216 1889.81,-210.027 1921.09,-204.519 2047,-201 2122.83,-198.881 4702.98,-204.288 4778,-193 4841.83,-183.395 4912.38,-160.002 4958.94,-142.678"/>
<polygon fill="black" stroke="black" points="4960.38,-145.878 4968.5,-139.08 4957.91,-139.326 4960.38,-145.878"/>
<text text-anchor="middle" x="2063.5" y="-204.8" font-family="Times,serif" font-size="14.00">read</text>
</g>
<!-- 1_fwatchdog#ServerID_5f846fd567&#45;g8dn6&#45;&gt;10.1.80.93:50510#ServerID_OuterContainerID -->
<g id="edge5" class="edge"><title>1_fwatchdog#ServerID_5f846fd567&#45;g8dn6&#45;&gt;10.1.80.93:50510#ServerID_OuterContainerID</title>
<path fill="none" stroke="black" d="M3450.76,-139.038C3416.79,-156.525 3360.32,-182.603 3308,-193 3263.64,-201.814 1725.19,-199.232 1680,-201 1627.51,-203.053 1321.28,-226.23 1137.81,-240.297"/>
<polygon fill="black" stroke="black" points="1137.51,-236.809 1127.81,-241.064 1138.05,-243.789 1137.51,-236.809"/>
<text text-anchor="middle" x="1722" y="-204.8" font-family="Times,serif" font-size="14.00">RESPONSE</text>
</g>
<!-- localhost:3000#ServerID_2347d2f455dd -->
<g id="node8" class="node"><title>localhost:3000#ServerID_2347d2f455dd</title>
<polygon fill="none" stroke="black" points="4481,-139 4196.12,-121 4481,-103 4765.88,-121 4481,-139"/>
<text text-anchor="middle" x="4481" y="-117.3" font-family="Times,serif" font-size="14.00">localhost:3000#ServerID_2347d2f455dd</text>
</g>
<!-- 1_fwatchdog#ServerID_2347d2f455dd&#45;&gt;localhost:3000#ServerID_2347d2f455dd -->
<g id="edge9" class="edge"><title>1_fwatchdog#ServerID_2347d2f455dd&#45;&gt;localhost:3000#ServerID_2347d2f455dd</title>
<path fill="none" stroke="black" d="M4515.37,-233.996C4498.47,-229.169 4484.62,-223.213 4479,-216 4464.32,-197.167 4467.07,-169.163 4472.12,-148.62"/>
<polygon fill="black" stroke="black" points="4475.51,-149.498 4474.81,-138.926 4468.77,-147.629 4475.51,-149.498"/>
<text text-anchor="middle" x="4508" y="-204.8" font-family="Times,serif" font-size="14.00">connect</text>
</g>
<!-- 1_fwatchdog#ServerID_2347d2f455dd&#45;&gt;localhost:3000#ServerID_2347d2f455dd -->
<g id="edge11" class="edge"><title>1_fwatchdog#ServerID_2347d2f455dd&#45;&gt;localhost:3000#ServerID_2347d2f455dd</title>
<path fill="none" stroke="black" d="M4582.35,-233.951C4573.3,-228.816 4563.9,-222.733 4556,-216 4532.33,-195.832 4510.81,-167.309 4496.96,-146.982"/>
<polygon fill="black" stroke="black" points="4499.79,-144.923 4491.33,-138.55 4493.97,-148.81 4499.79,-144.923"/>
<text text-anchor="middle" x="4575" y="-204.8" font-family="Times,serif" font-size="14.00">write</text>
</g>
<!-- localhost:3000#ServerID_2347d2f455dd&#45;&gt;1_fwatchdog#ServerID_2347d2f455dd -->
<g id="edge10" class="edge"><title>localhost:3000#ServerID_2347d2f455dd&#45;&gt;1_fwatchdog#ServerID_2347d2f455dd</title>
<path fill="none" stroke="black" d="M4513.22,-136.969C4539.2,-150.476 4575.07,-172.574 4598,-201 4603.51,-207.829 4607.67,-216.371 4610.72,-224.451"/>
<polygon fill="black" stroke="black" points="4607.41,-225.577 4613.92,-233.933 4614.04,-223.339 4607.41,-225.577"/>
<text text-anchor="middle" x="4623.5" y="-204.8" font-family="Times,serif" font-size="14.00">read</text>
</g>
<!-- /etc/hosts#ServerID_2347d2f455dd -->
<g id="node9" class="node"><title>/etc/hosts#ServerID_2347d2f455dd</title>
<ellipse fill="none" stroke="black" cx="4273" cy="-252" rx="178.969" ry="18"/>
<text text-anchor="middle" x="4273" y="-248.3" font-family="Times,serif" font-size="14.00">/etc/hosts#ServerID_2347d2f455dd</text>
</g>
<!-- /etc/hosts#ServerID_2347d2f455dd&#45;&gt;13_node#ServerID_2347d2f455dd -->
<g id="edge12" class="edge"><title>/etc/hosts#ServerID_2347d2f455dd&#45;&gt;13_node#ServerID_2347d2f455dd</title>
<path fill="none" stroke="black" d="M4214.18,-234.923C4127.77,-211.309 3966.71,-167.289 3873.24,-141.743"/>
<polygon fill="black" stroke="black" points="3874.14,-138.362 3863.58,-139.102 3872.3,-145.115 3874.14,-138.362"/>
<text text-anchor="middle" x="4150.5" y="-204.8" font-family="Times,serif" font-size="14.00">read</text>
</g>
<!-- 13_node#ServerID_2347d2f455dd&#45;&gt;gateway:8080#ServerID_OuterContainerID -->
<g id="edge17" class="edge"><title>13_node#ServerID_2347d2f455dd&#45;&gt;gateway:8080#ServerID_OuterContainerID</title>
<path fill="none" stroke="black" d="M3775.09,-139.124C3747.08,-156.548 3700.45,-182.446 3656,-193 3616.21,-202.446 2960.88,-200.075 2920,-201 2493.63,-210.652 2387.06,-215.101 1961,-234 1909.52,-236.283 1853.3,-239.203 1802.89,-241.977"/>
<polygon fill="black" stroke="black" points="1802.69,-238.483 1792.89,-242.529 1803.07,-245.472 1802.69,-238.483"/>
<text text-anchor="middle" x="2949" y="-204.8" font-family="Times,serif" font-size="14.00">connect</text>
</g>
<!-- 10.152.183.10:53#ServerID_OuterContainerID -->
<g id="node12" class="node"><title>10.152.183.10:53#ServerID_OuterContainerID</title>
<polygon fill="none" stroke="black" points="2297,-270 1969.56,-252 2297,-234 2624.44,-252 2297,-270"/>
<text text-anchor="middle" x="2297" y="-248.3" font-family="Times,serif" font-size="14.00">10.152.183.10:53#ServerID_OuterContainerID</text>
</g>
<!-- 13_node#ServerID_2347d2f455dd&#45;&gt;10.152.183.10:53#ServerID_OuterContainerID -->
<g id="edge15" class="edge"><title>13_node#ServerID_2347d2f455dd&#45;&gt;10.152.183.10:53#ServerID_OuterContainerID</title>
<path fill="none" stroke="black" d="M3775.07,-139.003C3747.03,-156.326 3700.38,-182.141 3656,-193 3620.91,-201.585 3367.1,-199.703 3331,-201 3020.63,-212.155 2943.2,-218.82 2633,-234 2579.15,-236.635 2520.46,-239.58 2467.41,-242.269"/>
<polygon fill="black" stroke="black" points="2467.03,-238.783 2457.22,-242.785 2467.39,-245.774 2467.03,-238.783"/>
<text text-anchor="middle" x="3355.5" y="-204.8" font-family="Times,serif" font-size="14.00">sendto</text>
</g>
<!-- /etc/resolv.conf#ServerID_2347d2f455dd -->
<g id="node11" class="node"><title>/etc/resolv.conf#ServerID_2347d2f455dd</title>
<ellipse fill="none" stroke="black" cx="3872" cy="-252" rx="204.164" ry="18"/>
<text text-anchor="middle" x="3872" y="-248.3" font-family="Times,serif" font-size="14.00">/etc/resolv.conf#ServerID_2347d2f455dd</text>
</g>
<!-- /etc/resolv.conf#ServerID_2347d2f455dd&#45;&gt;13_node#ServerID_2347d2f455dd -->
<g id="edge14" class="edge"><title>/etc/resolv.conf#ServerID_2347d2f455dd&#45;&gt;13_node#ServerID_2347d2f455dd</title>
<path fill="none" stroke="black" d="M3862.57,-233.87C3850.48,-211.895 3829.38,-173.573 3815.31,-147.994"/>
<polygon fill="black" stroke="black" points="3818.36,-146.274 3810.47,-139.201 3812.22,-149.649 3818.36,-146.274"/>
<text text-anchor="middle" x="3868.5" y="-204.8" font-family="Times,serif" font-size="14.00">read</text>
</g>
<!-- 10.152.183.10:53#ServerID_OuterContainerID&#45;&gt;13_node#ServerID_2347d2f455dd -->
<g id="edge16" class="edge"><title>10.152.183.10:53#ServerID_OuterContainerID&#45;&gt;13_node#ServerID_2347d2f455dd</title>
<path fill="none" stroke="black" d="M2450.01,-242.403C2507.39,-239.404 2573.17,-236.234 2633,-234 2860.36,-225.511 3436.68,-253.519 3656,-193 3695.25,-182.168 3736.65,-160.765 3765.12,-144.277"/>
<polygon fill="black" stroke="black" points="3767.04,-147.205 3773.89,-139.116 3763.49,-141.172 3767.04,-147.205"/>
<text text-anchor="middle" x="3646" y="-204.8" font-family="Times,serif" font-size="14.00">recvfrom</text>
</g>
<!-- localhost:3000#ServerID_7cf8268e6ab5 -->
<g id="node13" class="node"><title>localhost:3000#ServerID_7cf8268e6ab5</title>
<polygon fill="none" stroke="black" points="5073,-270 4789.8,-252 5073,-234 5356.2,-252 5073,-270"/>
<text text-anchor="middle" x="5073" y="-248.3" font-family="Times,serif" font-size="14.00">localhost:3000#ServerID_7cf8268e6ab5</text>
</g>
<!-- localhost:3000#ServerID_7cf8268e6ab5&#45;&gt;1_fwatchdog#ServerID_7cf8268e6ab5 -->
<g id="edge18" class="edge"><title>localhost:3000#ServerID_7cf8268e6ab5&#45;&gt;1_fwatchdog#ServerID_7cf8268e6ab5</title>
<path fill="none" stroke="black" d="M5064.27,-234.329C5061.28,-228.549 5057.95,-222.011 5055,-216 5043.84,-193.274 5031.68,-167.177 5022.97,-148.256"/>
<polygon fill="black" stroke="black" points="5026.11,-146.702 5018.76,-139.072 5019.75,-149.621 5026.11,-146.702"/>
<text text-anchor="middle" x="5071.5" y="-204.8" font-family="Times,serif" font-size="14.00">read</text>
</g>
<!-- 13_node#ServerID_7cf8268e6ab5 -->
<g id="node16" class="node"><title>13_node#ServerID_7cf8268e6ab5</title>
<polygon fill="none" stroke="black" points="5588.5,-139 5325.5,-139 5325.5,-103 5588.5,-103 5588.5,-139"/>
<text text-anchor="middle" x="5457" y="-117.3" font-family="Times,serif" font-size="14.00">13_node#ServerID_7cf8268e6ab5</text>
</g>
<!-- localhost:3000#ServerID_7cf8268e6ab5&#45;&gt;13_node#ServerID_7cf8268e6ab5 -->
<g id="edge23" class="edge"><title>localhost:3000#ServerID_7cf8268e6ab5&#45;&gt;13_node#ServerID_7cf8268e6ab5</title>
<path fill="none" stroke="black" d="M5115.56,-236.702C5183.91,-213.74 5318.39,-168.565 5396.63,-142.28"/>
<polygon fill="black" stroke="black" points="5397.99,-145.517 5406.35,-139.015 5395.76,-138.882 5397.99,-145.517"/>
<text text-anchor="middle" x="5235.5" y="-204.8" font-family="Times,serif" font-size="14.00">read</text>
</g>
<!-- 1_fwatchdog#ServerID_7cf8268e6ab5&#45;&gt;localhost:3000#ServerID_7cf8268e6ab5 -->
<g id="edge20" class="edge"><title>1_fwatchdog#ServerID_7cf8268e6ab5&#45;&gt;localhost:3000#ServerID_7cf8268e6ab5</title>
<path fill="none" stroke="black" d="M5035.97,-139.168C5054.22,-153.347 5077.54,-175.275 5088,-201 5091.12,-208.674 5090.1,-217.242 5087.5,-225.087"/>
<polygon fill="black" stroke="black" points="5084.18,-223.941 5083.55,-234.517 5090.64,-226.645 5084.18,-223.941"/>
<text text-anchor="middle" x="5118" y="-204.8" font-family="Times,serif" font-size="14.00">connect</text>
</g>
<!-- 1_fwatchdog#ServerID_7cf8268e6ab5&#45;&gt;localhost:3000#ServerID_7cf8268e6ab5 -->
<g id="edge21" class="edge"><title>1_fwatchdog#ServerID_7cf8268e6ab5&#45;&gt;localhost:3000#ServerID_7cf8268e6ab5</title>
<path fill="none" stroke="black" d="M5004.89,-139.35C4999,-159.352 4992.85,-192.486 5007,-216 5010.59,-221.974 5015.59,-226.982 5021.24,-231.166"/>
<polygon fill="black" stroke="black" points="5019.59,-234.266 5029.89,-236.725 5023.37,-228.376 5019.59,-234.266"/>
<text text-anchor="middle" x="5026" y="-204.8" font-family="Times,serif" font-size="14.00">write</text>
</g>
<!-- pipe:[7845976]#ServerID_7cf8268e6ab5 -->
<g id="node17" class="node"><title>pipe:[7845976]#ServerID_7cf8268e6ab5</title>
<ellipse fill="none" stroke="black" cx="5011" cy="-34" rx="202.264" ry="18"/>
<text text-anchor="middle" x="5011" y="-30.3" font-family="Times,serif" font-size="14.00">pipe:[7845976]#ServerID_7cf8268e6ab5</text>
</g>
<!-- 1_fwatchdog#ServerID_7cf8268e6ab5&#45;&gt;pipe:[7845976]#ServerID_7cf8268e6ab5 -->
<g id="edge24" class="edge"><title>1_fwatchdog#ServerID_7cf8268e6ab5&#45;&gt;pipe:[7845976]#ServerID_7cf8268e6ab5</title>
<path fill="none" stroke="black" d="M5011,-102.799C5011,-91.1626 5011,-75.5479 5011,-62.2368"/>
<polygon fill="black" stroke="black" points="5014.5,-62.1754 5011,-52.1754 5007.5,-62.1755 5014.5,-62.1754"/>
<text text-anchor="middle" x="5030" y="-73.8" font-family="Times,serif" font-size="14.00">write</text>
</g>
<!-- /home/app/credentials.txt#ServerID_7cf8268e6ab5 -->
<g id="node15" class="node"><title>/home/app/credentials.txt#ServerID_7cf8268e6ab5</title>
<ellipse fill="none" stroke="black" cx="5625" cy="-252" rx="250.756" ry="18"/>
<text text-anchor="middle" x="5625" y="-248.3" font-family="Times,serif" font-size="14.00">/home/app/credentials.txt#ServerID_7cf8268e6ab5</text>
</g>
<!-- /home/app/credentials.txt#ServerID_7cf8268e6ab5&#45;&gt;13_node#ServerID_7cf8268e6ab5 -->
<g id="edge22" class="edge"><title>/home/app/credentials.txt#ServerID_7cf8268e6ab5&#45;&gt;13_node#ServerID_7cf8268e6ab5</title>
<path fill="none" stroke="black" d="M5602.69,-233.87C5573.07,-211.124 5520.64,-170.863 5487.41,-145.35"/>
<polygon fill="black" stroke="black" points="5489.46,-142.515 5479.4,-139.201 5485.2,-148.067 5489.46,-142.515"/>
<text text-anchor="middle" x="5591.5" y="-204.8" font-family="Times,serif" font-size="14.00">read</text>
</g>
<!-- 10.1.80.1:24904#ServerID_OuterContainerID&#45;&gt;10.1.80.93:8080#ServerID_OuterContainerID -->
<g id="edge26" class="edge"><title>10.1.80.1:24904#ServerID_OuterContainerID&#45;&gt;10.1.80.93:8080#ServerID_OuterContainerID</title>
<path fill="none" stroke="black" d="M964.237,-135.712C898.749,-150.762 789.611,-175.152 695,-193 605.136,-209.953 502.061,-226.241 429.298,-237.217"/>
<polygon fill="black" stroke="black" points="428.604,-233.782 419.236,-238.73 429.645,-240.704 428.604,-233.782"/>
<text text-anchor="middle" x="667" y="-204.8" font-family="Times,serif" font-size="14.00">POST</text>
</g>
</g>
</svg>
