<?xml version="1.0" encoding="UTF-8" standalone="no"?>
<!DOCTYPE svg PUBLIC "-//W3C//DTD SVG 1.1//EN"
 "http://www.w3.org/Graphics/SVG/1.1/DTD/svg11.dtd">
<!-- Generated by graphviz version 2.38.0 (20140413.2041)
 -->
<!-- Title: G Pages: 1 -->
<svg width="6177pt" height="1032pt"
 viewBox="0.00 0.00 6177.00 1032.00" xmlns="http://www.w3.org/2000/svg" xmlns:xlink="http://www.w3.org/1999/xlink">
<g id="graph0" class="graph" transform="scale(1 1) rotate(0) translate(4 1028)">
<title>G</title>
<polygon fill="white" stroke="none" points="-4,4 -4,-1028 6173,-1028 6173,4 -4,4"/>
<g id="clust1" class="cluster"><title>clusterServerID_667d78fb58&#45;2fhs5</title>
<polygon fill="none" stroke="black" points="2168,-833 2168,-908 2508,-908 2508,-833 2168,-833"/>
<text text-anchor="middle" x="2338" y="-892.8" font-family="Times,serif" font-size="14.00">clusterServerID_667d78fb58&#45;2fhs5</text>
</g>
<g id="clust2" class="cluster"><title>clusterServerID_6dcbcc88d5&#45;4vpdn</title>
<polygon fill="none" stroke="black" points="860,-833 860,-908 1204,-908 1204,-833 860,-833"/>
<text text-anchor="middle" x="1032" y="-892.8" font-family="Times,serif" font-size="14.00">clusterServerID_6dcbcc88d5&#45;4vpdn</text>
</g>
<g id="clust3" class="cluster"><title>clusterServerID_79226724f3b6</title>
<polygon fill="none" stroke="black" points="3363,-8 3363,-692 5797,-692 5797,-8 3363,-8"/>
<text text-anchor="middle" x="4580" y="-676.8" font-family="Times,serif" font-size="14.00">clusterServerID_79226724f3b6</text>
</g>
<g id="clust4" class="cluster"><title>clusterServerID_OuterContainerID</title>
<polygon fill="none" stroke="black" points="8,-617 8,-800 3355,-800 3355,-617 8,-617"/>
<text text-anchor="middle" x="1681.5" y="-784.8" font-family="Times,serif" font-size="14.00">clusterServerID_OuterContainerID</text>
</g>
<g id="clust5" class="cluster"><title>clusterServerID_d4de233c55aa</title>
<polygon fill="none" stroke="black" points="3363,-725 3363,-1016 6161,-1016 6161,-725 3363,-725"/>
<text text-anchor="middle" x="4762" y="-1000.8" font-family="Times,serif" font-size="14.00">clusterServerID_d4de233c55aa</text>
</g>
<!-- 1_fwatchdog#ServerID_6dcbcc88d5&#45;4vpdn -->
<g id="node1" class="node"><title>1_fwatchdog#ServerID_6dcbcc88d5&#45;4vpdn</title>
<polygon fill="none" stroke="black" points="1196.5,-877 867.5,-877 867.5,-841 1196.5,-841 1196.5,-877"/>
<text text-anchor="middle" x="1032" y="-855.3" font-family="Times,serif" font-size="14.00">1_fwatchdog#ServerID_6dcbcc88d5&#45;4vpdn</text>
</g>
<!-- gateway:8080#ServerID_OuterContainerID -->
<g id="node2" class="node"><title>gateway:8080#ServerID_OuterContainerID</title>
<polygon fill="none" stroke="black" points="1681,-769 1376.52,-751 1681,-733 1985.48,-751 1681,-769"/>
<text text-anchor="middle" x="1681" y="-747.3" font-family="Times,serif" font-size="14.00">gateway:8080#ServerID_OuterContainerID</text>
</g>
<!-- 1_fwatchdog#ServerID_6dcbcc88d5&#45;4vpdn&#45;&gt;gateway:8080#ServerID_OuterContainerID -->
<g id="edge1" class="edge"><title>1_fwatchdog#ServerID_6dcbcc88d5&#45;4vpdn&#45;&gt;gateway:8080#ServerID_OuterContainerID</title>
<path fill="none" stroke="black" d="M1136.27,-840.969C1263.35,-820.213 1475.76,-785.522 1594.3,-766.161"/>
<polygon fill="black" stroke="black" points="1595.11,-769.574 1604.42,-764.508 1593.98,-762.666 1595.11,-769.574"/>
<text text-anchor="middle" x="1358" y="-811.8" font-family="Times,serif" font-size="14.00">POST</text>
</g>
<!-- 10.1.80.247:8080#ServerID_OuterContainerID -->
<g id="node5" class="node"><title>10.1.80.247:8080#ServerID_OuterContainerID</title>
<polygon fill="none" stroke="black" points="1032,-769 704.56,-751 1032,-733 1359.44,-751 1032,-769"/>
<text text-anchor="middle" x="1032" y="-747.3" font-family="Times,serif" font-size="14.00">10.1.80.247:8080#ServerID_OuterContainerID</text>
</g>
<!-- 1_fwatchdog#ServerID_6dcbcc88d5&#45;4vpdn&#45;&gt;10.1.80.247:8080#ServerID_OuterContainerID -->
<g id="edge8" class="edge"><title>1_fwatchdog#ServerID_6dcbcc88d5&#45;4vpdn&#45;&gt;10.1.80.247:8080#ServerID_OuterContainerID</title>
<path fill="none" stroke="black" d="M1010.2,-840.762C1005.26,-835.629 1000.68,-829.594 998,-823 995.493,-816.822 996.204,-814.42 998,-808 1001.07,-797.043 1006.93,-786.099 1012.93,-776.83"/>
<polygon fill="black" stroke="black" points="1015.87,-778.736 1018.64,-768.511 1010.1,-774.773 1015.87,-778.736"/>
<text text-anchor="middle" x="1018" y="-811.8" font-family="Times,serif" font-size="14.00">POST</text>
</g>
<!-- 10.1.80.247:53254#ServerID_OuterContainerID -->
<g id="node6" class="node"><title>10.1.80.247:53254#ServerID_OuterContainerID</title>
<polygon fill="none" stroke="black" points="351,-769 15.5152,-751 351,-733 686.485,-751 351,-769"/>
<text text-anchor="middle" x="351" y="-747.3" font-family="Times,serif" font-size="14.00">10.1.80.247:53254#ServerID_OuterContainerID</text>
</g>
<!-- 1_fwatchdog#ServerID_6dcbcc88d5&#45;4vpdn&#45;&gt;10.1.80.247:53254#ServerID_OuterContainerID -->
<g id="edge7" class="edge"><title>1_fwatchdog#ServerID_6dcbcc88d5&#45;4vpdn&#45;&gt;10.1.80.247:53254#ServerID_OuterContainerID</title>
<path fill="none" stroke="black" d="M938.082,-840.953C881.85,-830.932 808.913,-818.257 744,-808 644.935,-792.346 531.502,-776.393 452.049,-765.54"/>
<polygon fill="black" stroke="black" points="452.426,-762.059 442.045,-764.176 451.48,-768.995 452.426,-762.059"/>
<text text-anchor="middle" x="874" y="-811.8" font-family="Times,serif" font-size="14.00">RESPONSE</text>
</g>
<!-- gateway:8080#ServerID_OuterContainerID&#45;&gt;1_fwatchdog#ServerID_6dcbcc88d5&#45;4vpdn -->
<g id="edge3" class="edge"><title>gateway:8080#ServerID_OuterContainerID&#45;&gt;1_fwatchdog#ServerID_6dcbcc88d5&#45;4vpdn</title>
<path fill="none" stroke="black" d="M1630.9,-766.066C1571.84,-782.139 1470.53,-808.131 1382,-823 1325.33,-832.518 1263.03,-839.768 1206.9,-845.131"/>
<polygon fill="black" stroke="black" points="1206.49,-841.654 1196.86,-846.077 1207.14,-848.624 1206.49,-841.654"/>
<text text-anchor="middle" x="1499" y="-811.8" font-family="Times,serif" font-size="14.00">RESPONSE</text>
</g>
<!-- 1_fwatchdog#ServerID_667d78fb58&#45;2fhs5 -->
<g id="node3" class="node"><title>1_fwatchdog#ServerID_667d78fb58&#45;2fhs5</title>
<polygon fill="none" stroke="black" points="2499.5,-877 2176.5,-877 2176.5,-841 2499.5,-841 2499.5,-877"/>
<text text-anchor="middle" x="2338" y="-855.3" font-family="Times,serif" font-size="14.00">1_fwatchdog#ServerID_667d78fb58&#45;2fhs5</text>
</g>
<!-- 10.1.80.247:54828#ServerID_OuterContainerID -->
<g id="node4" class="node"><title>10.1.80.247:54828#ServerID_OuterContainerID</title>
<polygon fill="none" stroke="black" points="2339,-769 2003.52,-751 2339,-733 2674.48,-751 2339,-769"/>
<text text-anchor="middle" x="2339" y="-747.3" font-family="Times,serif" font-size="14.00">10.1.80.247:54828#ServerID_OuterContainerID</text>
</g>
<!-- 1_fwatchdog#ServerID_667d78fb58&#45;2fhs5&#45;&gt;10.1.80.247:54828#ServerID_OuterContainerID -->
<g id="edge2" class="edge"><title>1_fwatchdog#ServerID_667d78fb58&#45;2fhs5&#45;&gt;10.1.80.247:54828#ServerID_OuterContainerID</title>
<path fill="none" stroke="black" d="M2343.96,-840.759C2345.61,-835.165 2347.18,-828.883 2348,-823 2350.04,-808.436 2348.27,-792.162 2345.78,-778.873"/>
<polygon fill="black" stroke="black" points="2349.17,-778.006 2343.68,-768.944 2342.32,-779.452 2349.17,-778.006"/>
<text text-anchor="middle" x="2391" y="-811.8" font-family="Times,serif" font-size="14.00">RESPONSE</text>
</g>
<!-- 10.1.80.247:54828#ServerID_OuterContainerID&#45;&gt;1_fwatchdog#ServerID_667d78fb58&#45;2fhs5 -->
<g id="edge6" class="edge"><title>10.1.80.247:54828#ServerID_OuterContainerID&#45;&gt;1_fwatchdog#ServerID_667d78fb58&#45;2fhs5</title>
<path fill="none" stroke="black" d="M2325.26,-768.449C2317.35,-779.019 2308.17,-793.453 2304,-808 2302.16,-814.408 2301.49,-816.822 2304,-823 2305.42,-826.503 2307.38,-829.848 2309.65,-832.984"/>
<polygon fill="black" stroke="black" points="2307.08,-835.372 2316.2,-840.762 2312.43,-830.86 2307.08,-835.372"/>
<text text-anchor="middle" x="2324" y="-811.8" font-family="Times,serif" font-size="14.00">POST</text>
</g>
<!-- 1_fwatchdog#ServerID_79226724f3b6 -->
<g id="node22" class="node"><title>1_fwatchdog#ServerID_79226724f3b6</title>
<polygon fill="none" stroke="black" points="5202,-661 4906,-661 4906,-625 5202,-625 5202,-661"/>
<text text-anchor="middle" x="5054" y="-639.3" font-family="Times,serif" font-size="14.00">1_fwatchdog#ServerID_79226724f3b6</text>
</g>
<!-- 10.1.80.247:54828#ServerID_OuterContainerID&#45;&gt;1_fwatchdog#ServerID_79226724f3b6 -->
<g id="edge27" class="edge"><title>10.1.80.247:54828#ServerID_OuterContainerID&#45;&gt;1_fwatchdog#ServerID_79226724f3b6</title>
<path fill="none" stroke="black" d="M2464.7,-739.733C2530.06,-734.688 2611.29,-728.876 2684,-725 3516.37,-680.634 4514.56,-655.779 4895.63,-647.324"/>
<polygon fill="black" stroke="black" points="4895.98,-650.818 4905.9,-647.097 4895.82,-643.819 4895.98,-650.818"/>
<text text-anchor="middle" x="3220.5" y="-703.8" font-family="Times,serif" font-size="14.00">read</text>
</g>
<!-- 10.1.80.247:8080#ServerID_OuterContainerID&#45;&gt;1_fwatchdog#ServerID_6dcbcc88d5&#45;4vpdn -->
<g id="edge4" class="edge"><title>10.1.80.247:8080#ServerID_OuterContainerID&#45;&gt;1_fwatchdog#ServerID_6dcbcc88d5&#45;4vpdn</title>
<path fill="none" stroke="black" d="M1037.06,-768.927C1040.71,-783.311 1044.59,-804.508 1042,-823 1041.64,-825.574 1041.14,-828.224 1040.55,-830.859"/>
<polygon fill="black" stroke="black" points="1037.1,-830.198 1037.96,-840.759 1043.87,-831.971 1037.1,-830.198"/>
<text text-anchor="middle" x="1085" y="-811.8" font-family="Times,serif" font-size="14.00">RESPONSE</text>
</g>
<!-- 10.1.80.1:56163#ServerID_OuterContainerID -->
<g id="node38" class="node"><title>10.1.80.1:56163#ServerID_OuterContainerID</title>
<polygon fill="none" stroke="black" points="1139,-661 820.105,-643 1139,-625 1457.9,-643 1139,-661"/>
<text text-anchor="middle" x="1139" y="-639.3" font-family="Times,serif" font-size="14.00">10.1.80.1:56163#ServerID_OuterContainerID</text>
</g>
<!-- 10.1.80.247:8080#ServerID_OuterContainerID&#45;&gt;10.1.80.1:56163#ServerID_OuterContainerID -->
<g id="edge48" class="edge"><title>10.1.80.247:8080#ServerID_OuterContainerID&#45;&gt;10.1.80.1:56163#ServerID_OuterContainerID</title>
<path fill="none" stroke="black" d="M1026.35,-733.06C1023.99,-722.774 1023,-709.786 1029,-700 1039.64,-682.652 1057.52,-670.468 1075.8,-662.005"/>
<polygon fill="black" stroke="black" points="1077.26,-665.187 1085.07,-658.027 1074.5,-658.754 1077.26,-665.187"/>
<text text-anchor="middle" x="1071" y="-703.8" font-family="Times,serif" font-size="14.00">RESPONSE</text>
</g>
<!-- 10.0.88.125:31112#ServerID_OuterContainerID -->
<g id="node39" class="node"><title>10.0.88.125:31112#ServerID_OuterContainerID</title>
<polygon fill="none" stroke="black" points="467,-661 131.515,-643 467,-625 802.485,-643 467,-661"/>
<text text-anchor="middle" x="467" y="-639.3" font-family="Times,serif" font-size="14.00">10.0.88.125:31112#ServerID_OuterContainerID</text>
</g>
<!-- 10.1.80.247:8080#ServerID_OuterContainerID&#45;&gt;10.0.88.125:31112#ServerID_OuterContainerID -->
<g id="edge49" class="edge"><title>10.1.80.247:8080#ServerID_OuterContainerID&#45;&gt;10.0.88.125:31112#ServerID_OuterContainerID</title>
<path fill="none" stroke="black" d="M961.869,-736.843C856.692,-717.11 658.631,-679.952 547.63,-659.127"/>
<polygon fill="black" stroke="black" points="547.968,-655.629 537.494,-657.225 546.677,-662.509 547.968,-655.629"/>
<text text-anchor="middle" x="876" y="-703.8" font-family="Times,serif" font-size="14.00">RESPONSE</text>
</g>
<!-- 10.1.80.247:53254#ServerID_OuterContainerID&#45;&gt;1_fwatchdog#ServerID_6dcbcc88d5&#45;4vpdn -->
<g id="edge5" class="edge"><title>10.1.80.247:53254#ServerID_OuterContainerID&#45;&gt;1_fwatchdog#ServerID_6dcbcc88d5&#45;4vpdn</title>
<path fill="none" stroke="black" d="M410.974,-765.82C480.967,-781.538 600.351,-807.081 704,-823 753.514,-830.605 807.486,-837.099 857.089,-842.353"/>
<polygon fill="black" stroke="black" points="856.965,-845.86 867.275,-843.422 857.695,-838.898 856.965,-845.86"/>
<text text-anchor="middle" x="724" y="-811.8" font-family="Times,serif" font-size="14.00">POST</text>
</g>
<!-- 1_fwatchdog#ServerID_d4de233c55aa -->
<g id="node7" class="node"><title>1_fwatchdog#ServerID_d4de233c55aa</title>
<polygon fill="none" stroke="black" points="6152.5,-985 5855.5,-985 5855.5,-949 6152.5,-949 6152.5,-985"/>
<text text-anchor="middle" x="6004" y="-963.3" font-family="Times,serif" font-size="14.00">1_fwatchdog#ServerID_d4de233c55aa</text>
</g>
<!-- 10.1.80.247:53254#ServerID_OuterContainerID&#45;&gt;1_fwatchdog#ServerID_d4de233c55aa -->
<g id="edge11" class="edge"><title>10.1.80.247:53254#ServerID_OuterContainerID&#45;&gt;1_fwatchdog#ServerID_d4de233c55aa</title>
<path fill="none" stroke="black" d="M424.393,-765.113C494.03,-776.864 601.752,-793.257 696,-800 888.953,-813.804 2243.8,-798.329 2437,-808 3010,-836.681 3149.05,-901.209 3722,-931 4190.26,-955.348 5358.86,-922.026 5844.99,-948.932"/>
<polygon fill="black" stroke="black" points="5845.1,-952.444 5855.28,-949.517 5845.5,-945.456 5845.1,-952.444"/>
<text text-anchor="middle" x="3411.5" y="-855.3" font-family="Times,serif" font-size="14.00">read</text>
</g>
<!-- localhost:3000#ServerID_d4de233c55aa -->
<g id="node8" class="node"><title>localhost:3000#ServerID_d4de233c55aa</title>
<polygon fill="none" stroke="black" points="5867,-877 5581.28,-859 5867,-841 6152.72,-859 5867,-877"/>
<text text-anchor="middle" x="5867" y="-855.3" font-family="Times,serif" font-size="14.00">localhost:3000#ServerID_d4de233c55aa</text>
</g>
<!-- 1_fwatchdog#ServerID_d4de233c55aa&#45;&gt;localhost:3000#ServerID_d4de233c55aa -->
<g id="edge9" class="edge"><title>1_fwatchdog#ServerID_d4de233c55aa&#45;&gt;localhost:3000#ServerID_d4de233c55aa</title>
<path fill="none" stroke="black" d="M5954.53,-948.81C5943.92,-943.934 5933.15,-938.004 5924,-931 5907.58,-918.428 5893.05,-900.159 5882.77,-885.302"/>
<polygon fill="black" stroke="black" points="5885.41,-882.946 5876.95,-876.574 5879.59,-886.833 5885.41,-882.946"/>
<text text-anchor="middle" x="5953" y="-919.8" font-family="Times,serif" font-size="14.00">connect</text>
</g>
<!-- 1_fwatchdog#ServerID_d4de233c55aa&#45;&gt;localhost:3000#ServerID_d4de233c55aa -->
<g id="edge10" class="edge"><title>1_fwatchdog#ServerID_d4de233c55aa&#45;&gt;localhost:3000#ServerID_d4de233c55aa</title>
<path fill="none" stroke="black" d="M5999.78,-948.996C5996.43,-938.428 5990.81,-925.158 5982,-916 5965.84,-899.208 5943.61,-886.773 5923,-877.945"/>
<polygon fill="black" stroke="black" points="5924.25,-874.676 5913.67,-874.14 5921.61,-881.158 5924.25,-874.676"/>
<text text-anchor="middle" x="6011" y="-919.8" font-family="Times,serif" font-size="14.00">write</text>
</g>
<!-- localhost:3000#ServerID_d4de233c55aa&#45;&gt;1_fwatchdog#ServerID_d4de233c55aa -->
<g id="edge12" class="edge"><title>localhost:3000#ServerID_d4de233c55aa&#45;&gt;1_fwatchdog#ServerID_d4de233c55aa</title>
<path fill="none" stroke="black" d="M5863.12,-876.934C5860.56,-892.733 5859.64,-916.049 5872,-931 5876.68,-936.66 5886.83,-941.631 5899.52,-945.914"/>
<polygon fill="black" stroke="black" points="5898.59,-949.288 5909.17,-948.912 5900.66,-942.603 5898.59,-949.288"/>
<text text-anchor="middle" x="5888.5" y="-919.8" font-family="Times,serif" font-size="14.00">read</text>
</g>
<!-- 10_node#ServerID_d4de233c55aa -->
<g id="node9" class="node"><title>10_node#ServerID_d4de233c55aa</title>
<polygon fill="none" stroke="black" points="4146,-877 3880,-877 3880,-841 4146,-841 4146,-877"/>
<text text-anchor="middle" x="4013" y="-855.3" font-family="Times,serif" font-size="14.00">10_node#ServerID_d4de233c55aa</text>
</g>
<!-- 10_node#ServerID_d4de233c55aa&#45;&gt;gateway:8080#ServerID_OuterContainerID -->
<g id="edge26" class="edge"><title>10_node#ServerID_d4de233c55aa&#45;&gt;gateway:8080#ServerID_OuterContainerID</title>
<path fill="none" stroke="black" d="M3879.61,-851.514C3647.74,-840.519 3155.29,-818.405 2739,-808 2573.71,-803.869 2159.8,-813.415 1995,-800 1913.61,-793.375 1821.32,-778.354 1757.97,-766.867"/>
<polygon fill="black" stroke="black" points="1758.52,-763.41 1748.05,-765.056 1757.26,-770.296 1758.52,-763.41"/>
<text text-anchor="middle" x="3224" y="-811.8" font-family="Times,serif" font-size="14.00">connect</text>
</g>
<!-- pipe:[273418164]#ServerID_d4de233c55aa -->
<g id="node10" class="node"><title>pipe:[273418164]#ServerID_d4de233c55aa</title>
<ellipse fill="none" stroke="black" cx="4723" cy="-751" rx="215.562" ry="18"/>
<text text-anchor="middle" x="4723" y="-747.3" font-family="Times,serif" font-size="14.00">pipe:[273418164]#ServerID_d4de233c55aa</text>
</g>
<!-- 10_node#ServerID_d4de233c55aa&#45;&gt;pipe:[273418164]#ServerID_d4de233c55aa -->
<g id="edge13" class="edge"><title>10_node#ServerID_d4de233c55aa&#45;&gt;pipe:[273418164]#ServerID_d4de233c55aa</title>
<path fill="none" stroke="black" d="M4146.24,-845.371C4243.94,-835.308 4379.63,-819.662 4498,-800 4547.35,-791.803 4602.26,-780.138 4645.49,-770.36"/>
<polygon fill="black" stroke="black" points="4646.4,-773.743 4655.37,-768.112 4644.84,-766.918 4646.4,-773.743"/>
<text text-anchor="middle" x="4464" y="-811.8" font-family="Times,serif" font-size="14.00">write</text>
</g>
<!-- 22_node#ServerID_d4de233c55aa -->
<g id="node13" class="node"><title>22_node#ServerID_d4de233c55aa</title>
<polygon fill="none" stroke="black" points="3637,-769 3371,-769 3371,-733 3637,-733 3637,-769"/>
<text text-anchor="middle" x="3504" y="-747.3" font-family="Times,serif" font-size="14.00">22_node#ServerID_d4de233c55aa</text>
</g>
<!-- 10_node#ServerID_d4de233c55aa&#45;&gt;22_node#ServerID_d4de233c55aa -->
<g id="edge16" class="edge"><title>10_node#ServerID_d4de233c55aa&#45;&gt;22_node#ServerID_d4de233c55aa</title>
<path fill="none" stroke="black" d="M3879.85,-842.482C3809.7,-832.922 3722.57,-818.849 3646,-800 3616.29,-792.688 3583.92,-781.969 3557.6,-772.514"/>
<polygon fill="black" stroke="black" points="3558.79,-769.221 3548.2,-769.096 3556.4,-775.801 3558.79,-769.221"/>
<text text-anchor="middle" x="3765.5" y="-811.8" font-family="Times,serif" font-size="14.00">clone</text>
</g>
<!-- 23_node#ServerID_d4de233c55aa -->
<g id="node17" class="node"><title>23_node#ServerID_d4de233c55aa</title>
<polygon fill="none" stroke="black" points="3921,-769 3655,-769 3655,-733 3921,-733 3921,-769"/>
<text text-anchor="middle" x="3788" y="-747.3" font-family="Times,serif" font-size="14.00">23_node#ServerID_d4de233c55aa</text>
</g>
<!-- 10_node#ServerID_d4de233c55aa&#45;&gt;23_node#ServerID_d4de233c55aa -->
<g id="edge20" class="edge"><title>10_node#ServerID_d4de233c55aa&#45;&gt;23_node#ServerID_d4de233c55aa</title>
<path fill="none" stroke="black" d="M3976.85,-840.969C3937.93,-822.634 3875.93,-793.424 3833.67,-773.513"/>
<polygon fill="black" stroke="black" points="3834.97,-770.26 3824.43,-769.164 3831.99,-776.592 3834.97,-770.26"/>
<text text-anchor="middle" x="3952.5" y="-811.8" font-family="Times,serif" font-size="14.00">clone</text>
</g>
<!-- 25_node#ServerID_d4de233c55aa -->
<g id="node19" class="node"><title>25_node#ServerID_d4de233c55aa</title>
<polygon fill="none" stroke="black" points="4205,-769 3939,-769 3939,-733 4205,-733 4205,-769"/>
<text text-anchor="middle" x="4072" y="-747.3" font-family="Times,serif" font-size="14.00">25_node#ServerID_d4de233c55aa</text>
</g>
<!-- 10_node#ServerID_d4de233c55aa&#45;&gt;25_node#ServerID_d4de233c55aa -->
<g id="edge22" class="edge"><title>10_node#ServerID_d4de233c55aa&#45;&gt;25_node#ServerID_d4de233c55aa</title>
<path fill="none" stroke="black" d="M4022.48,-840.969C4031.93,-823.994 4046.56,-797.698 4057.48,-778.09"/>
<polygon fill="black" stroke="black" points="4060.54,-779.781 4062.35,-769.341 4054.43,-776.376 4060.54,-779.781"/>
<text text-anchor="middle" x="4059.5" y="-811.8" font-family="Times,serif" font-size="14.00">clone</text>
</g>
<!-- 24_node#ServerID_d4de233c55aa -->
<g id="node20" class="node"><title>24_node#ServerID_d4de233c55aa</title>
<polygon fill="none" stroke="black" points="4489,-769 4223,-769 4223,-733 4489,-733 4489,-769"/>
<text text-anchor="middle" x="4356" y="-747.3" font-family="Times,serif" font-size="14.00">24_node#ServerID_d4de233c55aa</text>
</g>
<!-- 10_node#ServerID_d4de233c55aa&#45;&gt;24_node#ServerID_d4de233c55aa -->
<g id="edge23" class="edge"><title>10_node#ServerID_d4de233c55aa&#45;&gt;24_node#ServerID_d4de233c55aa</title>
<path fill="none" stroke="black" d="M4074.79,-840.946C4114.66,-829.752 4167.56,-814.543 4214,-800 4241.64,-791.347 4272.08,-781.146 4297.66,-772.379"/>
<polygon fill="black" stroke="black" points="4298.9,-775.656 4307.22,-769.095 4296.62,-769.036 4298.9,-775.656"/>
<text text-anchor="middle" x="4205.5" y="-811.8" font-family="Times,serif" font-size="14.00">clone</text>
</g>
<!-- 10.152.183.10:53#ServerID_OuterContainerID -->
<g id="node21" class="node"><title>10.152.183.10:53#ServerID_OuterContainerID</title>
<polygon fill="none" stroke="black" points="3020,-769 2692.56,-751 3020,-733 3347.44,-751 3020,-769"/>
<text text-anchor="middle" x="3020" y="-747.3" font-family="Times,serif" font-size="14.00">10.152.183.10:53#ServerID_OuterContainerID</text>
</g>
<!-- 10_node#ServerID_d4de233c55aa&#45;&gt;10.152.183.10:53#ServerID_OuterContainerID -->
<g id="edge24" class="edge"><title>10_node#ServerID_d4de233c55aa&#45;&gt;10.152.183.10:53#ServerID_OuterContainerID</title>
<path fill="none" stroke="black" d="M3879.71,-848.228C3747.4,-838.046 3538.91,-820.7 3359,-800 3274.75,-790.306 3179.11,-776.508 3110.95,-766.192"/>
<polygon fill="black" stroke="black" points="3111.08,-762.672 3100.67,-764.631 3110.03,-769.593 3111.08,-762.672"/>
<text text-anchor="middle" x="3599.5" y="-811.8" font-family="Times,serif" font-size="14.00">sendto</text>
</g>
<!-- /etc/resolv.conf#ServerID_d4de233c55aa -->
<g id="node11" class="node"><title>/etc/resolv.conf#ServerID_d4de233c55aa</title>
<ellipse fill="none" stroke="black" cx="4846" cy="-967" rx="204.164" ry="18"/>
<text text-anchor="middle" x="4846" y="-963.3" font-family="Times,serif" font-size="14.00">/etc/resolv.conf#ServerID_d4de233c55aa</text>
</g>
<!-- /etc/resolv.conf#ServerID_d4de233c55aa&#45;&gt;10_node#ServerID_d4de233c55aa -->
<g id="edge14" class="edge"><title>/etc/resolv.conf#ServerID_d4de233c55aa&#45;&gt;10_node#ServerID_d4de233c55aa</title>
<path fill="none" stroke="black" d="M4734.95,-951.869C4585.81,-932.891 4320.61,-899.144 4156.49,-878.26"/>
<polygon fill="black" stroke="black" points="4156.68,-874.755 4146.32,-876.965 4155.8,-881.699 4156.68,-874.755"/>
<text text-anchor="middle" x="4568.5" y="-919.8" font-family="Times,serif" font-size="14.00">read</text>
</g>
<!-- /etc/nsswitch.conf#ServerID_d4de233c55aa -->
<g id="node12" class="node"><title>/etc/nsswitch.conf#ServerID_d4de233c55aa</title>
<ellipse fill="none" stroke="black" cx="4406" cy="-967" rx="218.261" ry="18"/>
<text text-anchor="middle" x="4406" y="-963.3" font-family="Times,serif" font-size="14.00">/etc/nsswitch.conf#ServerID_d4de233c55aa</text>
</g>
<!-- /etc/nsswitch.conf#ServerID_d4de233c55aa&#45;&gt;10_node#ServerID_d4de233c55aa -->
<g id="edge15" class="edge"><title>/etc/nsswitch.conf#ServerID_d4de233c55aa&#45;&gt;10_node#ServerID_d4de233c55aa</title>
<path fill="none" stroke="black" d="M4345.46,-949.67C4275.6,-930.829 4160.79,-899.861 4086.04,-879.7"/>
<polygon fill="black" stroke="black" points="4086.79,-876.276 4076.22,-877.051 4084.96,-883.035 4086.79,-876.276"/>
<text text-anchor="middle" x="4283.5" y="-919.8" font-family="Times,serif" font-size="14.00">read</text>
</g>
<!-- /etc/svc.conf#ServerID_d4de233c55aa -->
<g id="node14" class="node"><title>/etc/svc.conf#ServerID_d4de233c55aa</title>
<ellipse fill="none" stroke="black" cx="3977" cy="-967" rx="192.266" ry="18"/>
<text text-anchor="middle" x="3977" y="-963.3" font-family="Times,serif" font-size="14.00">/etc/svc.conf#ServerID_d4de233c55aa</text>
</g>
<!-- /etc/svc.conf#ServerID_d4de233c55aa&#45;&gt;10_node#ServerID_d4de233c55aa -->
<g id="edge17" class="edge"><title>/etc/svc.conf#ServerID_d4de233c55aa&#45;&gt;10_node#ServerID_d4de233c55aa</title>
<path fill="none" stroke="black" d="M3982.78,-948.969C3988.47,-932.224 3997.24,-906.41 4003.87,-886.892"/>
<polygon fill="black" stroke="black" points="4007.21,-887.935 4007.11,-877.341 4000.58,-885.684 4007.21,-887.935"/>
<text text-anchor="middle" x="4009.5" y="-919.8" font-family="Times,serif" font-size="14.00">read</text>
</g>
<!-- /dev/urandom#ServerID_d4de233c55aa -->
<g id="node15" class="node"><title>/dev/urandom#ServerID_d4de233c55aa</title>
<ellipse fill="none" stroke="black" cx="3569" cy="-967" rx="197.665" ry="18"/>
<text text-anchor="middle" x="3569" y="-963.3" font-family="Times,serif" font-size="14.00">/dev/urandom#ServerID_d4de233c55aa</text>
</g>
<!-- /dev/urandom#ServerID_d4de233c55aa&#45;&gt;10_node#ServerID_d4de233c55aa -->
<g id="edge18" class="edge"><title>/dev/urandom#ServerID_d4de233c55aa&#45;&gt;10_node#ServerID_d4de233c55aa</title>
<path fill="none" stroke="black" d="M3635.95,-950.016C3715.07,-931.128 3846.65,-899.714 3931.59,-879.437"/>
<polygon fill="black" stroke="black" points="3932.54,-882.808 3941.45,-877.082 3930.91,-876 3932.54,-882.808"/>
<text text-anchor="middle" x="3794.5" y="-919.8" font-family="Times,serif" font-size="14.00">read</text>
</g>
<!-- /etc/host.conf#ServerID_d4de233c55aa -->
<g id="node16" class="node"><title>/etc/host.conf#ServerID_d4de233c55aa</title>
<ellipse fill="none" stroke="black" cx="5641" cy="-967" rx="196.865" ry="18"/>
<text text-anchor="middle" x="5641" y="-963.3" font-family="Times,serif" font-size="14.00">/etc/host.conf#ServerID_d4de233c55aa</text>
</g>
<!-- /etc/host.conf#ServerID_d4de233c55aa&#45;&gt;10_node#ServerID_d4de233c55aa -->
<g id="edge19" class="edge"><title>/etc/host.conf#ServerID_d4de233c55aa&#45;&gt;10_node#ServerID_d4de233c55aa</title>
<path fill="none" stroke="black" d="M5502.52,-954.193C5479.96,-952.378 5456.83,-950.584 5435,-949 4967.56,-915.088 4413.11,-882.622 4156.5,-868.038"/>
<polygon fill="black" stroke="black" points="4156.55,-864.535 4146.37,-867.463 4156.16,-871.524 4156.55,-864.535"/>
<text text-anchor="middle" x="5179.5" y="-919.8" font-family="Times,serif" font-size="14.00">read</text>
</g>
<!-- /etc/hosts#ServerID_d4de233c55aa -->
<g id="node18" class="node"><title>/etc/hosts#ServerID_d4de233c55aa</title>
<ellipse fill="none" stroke="black" cx="5247" cy="-967" rx="178.969" ry="18"/>
<text text-anchor="middle" x="5247" y="-963.3" font-family="Times,serif" font-size="14.00">/etc/hosts#ServerID_d4de233c55aa</text>
</g>
<!-- /etc/hosts#ServerID_d4de233c55aa&#45;&gt;10_node#ServerID_d4de233c55aa -->
<g id="edge21" class="edge"><title>/etc/hosts#ServerID_d4de233c55aa&#45;&gt;10_node#ServerID_d4de233c55aa</title>
<path fill="none" stroke="black" d="M5119.33,-954.364C5099.15,-952.551 5078.51,-950.712 5059,-949 4736.51,-920.7 4357.96,-888.825 4156.41,-871.96"/>
<polygon fill="black" stroke="black" points="4156.61,-868.465 4146.35,-871.119 4156.03,-875.44 4156.61,-868.465"/>
<text text-anchor="middle" x="4845.5" y="-919.8" font-family="Times,serif" font-size="14.00">read</text>
</g>
<!-- 10.152.183.10:53#ServerID_OuterContainerID&#45;&gt;10_node#ServerID_d4de233c55aa -->
<g id="edge25" class="edge"><title>10.152.183.10:53#ServerID_OuterContainerID&#45;&gt;10_node#ServerID_d4de233c55aa</title>
<path fill="none" stroke="black" d="M3076.95,-765.874C3147.24,-782.4 3270.66,-809.466 3378,-823 3545.98,-844.18 3740.56,-852.544 3869.61,-855.847"/>
<polygon fill="black" stroke="black" points="3869.86,-859.354 3879.94,-856.104 3870.03,-852.356 3869.86,-859.354"/>
<text text-anchor="middle" x="3411" y="-811.8" font-family="Times,serif" font-size="14.00">recvfrom</text>
</g>
<!-- localhost:3000#ServerID_79226724f3b6 -->
<g id="node23" class="node"><title>localhost:3000#ServerID_79226724f3b6</title>
<polygon fill="none" stroke="black" points="5054,-574 4769.12,-556 5054,-538 5338.88,-556 5054,-574"/>
<text text-anchor="middle" x="5054" y="-552.3" font-family="Times,serif" font-size="14.00">localhost:3000#ServerID_79226724f3b6</text>
</g>
<!-- 1_fwatchdog#ServerID_79226724f3b6&#45;&gt;localhost:3000#ServerID_79226724f3b6 -->
<g id="edge28" class="edge"><title>1_fwatchdog#ServerID_79226724f3b6&#45;&gt;localhost:3000#ServerID_79226724f3b6</title>
<path fill="none" stroke="black" d="M5054,-624.799C5054,-613.163 5054,-597.548 5054,-584.237"/>
<polygon fill="black" stroke="black" points="5057.5,-584.175 5054,-574.175 5050.5,-584.175 5057.5,-584.175"/>
<text text-anchor="middle" x="5083" y="-595.8" font-family="Times,serif" font-size="14.00">connect</text>
</g>
<!-- 1_fwatchdog#ServerID_79226724f3b6&#45;&gt;localhost:3000#ServerID_79226724f3b6 -->
<g id="edge29" class="edge"><title>1_fwatchdog#ServerID_79226724f3b6&#45;&gt;localhost:3000#ServerID_79226724f3b6</title>
<path fill="none" stroke="black" d="M5095.64,-624.892C5102.59,-620.144 5108.87,-614.244 5113,-607 5119.64,-595.34 5112.1,-585.164 5100.45,-577.09"/>
<polygon fill="black" stroke="black" points="5102.21,-574.062 5091.85,-571.844 5098.56,-580.038 5102.21,-574.062"/>
<text text-anchor="middle" x="5134" y="-595.8" font-family="Times,serif" font-size="14.00">write</text>
</g>
<!-- pipe:[273416608]#ServerID_79226724f3b6 -->
<g id="node37" class="node"><title>pipe:[273416608]#ServerID_79226724f3b6</title>
<ellipse fill="none" stroke="black" cx="5573" cy="-556" rx="215.562" ry="18"/>
<text text-anchor="middle" x="5573" y="-552.3" font-family="Times,serif" font-size="14.00">pipe:[273416608]#ServerID_79226724f3b6</text>
</g>
<!-- 1_fwatchdog#ServerID_79226724f3b6&#45;&gt;pipe:[273416608]#ServerID_79226724f3b6 -->
<g id="edge46" class="edge"><title>1_fwatchdog#ServerID_79226724f3b6&#45;&gt;pipe:[273416608]#ServerID_79226724f3b6</title>
<path fill="none" stroke="black" d="M5158.09,-624.952C5248.65,-610.121 5379.18,-588.743 5469.55,-573.943"/>
<polygon fill="black" stroke="black" points="5470.24,-577.377 5479.54,-572.307 5469.1,-570.469 5470.24,-577.377"/>
<text text-anchor="middle" x="5363" y="-595.8" font-family="Times,serif" font-size="14.00">write</text>
</g>
<!-- localhost:3000#ServerID_79226724f3b6&#45;&gt;1_fwatchdog#ServerID_79226724f3b6 -->
<g id="edge31" class="edge"><title>localhost:3000#ServerID_79226724f3b6&#45;&gt;1_fwatchdog#ServerID_79226724f3b6</title>
<path fill="none" stroke="black" d="M5030.9,-572.918C5020.5,-582.195 5011.62,-594.503 5017,-607 5018.57,-610.642 5020.72,-614.082 5023.21,-617.279"/>
<polygon fill="black" stroke="black" points="5020.62,-619.639 5029.93,-624.702 5025.81,-614.94 5020.62,-619.639"/>
<text text-anchor="middle" x="5033.5" y="-595.8" font-family="Times,serif" font-size="14.00">read</text>
</g>
<!-- 10_node#ServerID_79226724f3b6 -->
<g id="node24" class="node"><title>10_node#ServerID_79226724f3b6</title>
<polygon fill="none" stroke="black" points="4390.5,-487 4125.5,-487 4125.5,-451 4390.5,-451 4390.5,-487"/>
<text text-anchor="middle" x="4258" y="-465.3" font-family="Times,serif" font-size="14.00">10_node#ServerID_79226724f3b6</text>
</g>
<!-- localhost:3000#ServerID_79226724f3b6&#45;&gt;10_node#ServerID_79226724f3b6 -->
<g id="edge30" class="edge"><title>localhost:3000#ServerID_79226724f3b6&#45;&gt;10_node#ServerID_79226724f3b6</title>
<path fill="none" stroke="black" d="M4953.59,-544.278C4813.93,-529.364 4560.27,-502.278 4400.91,-485.261"/>
<polygon fill="black" stroke="black" points="4400.87,-481.736 4390.55,-484.154 4400.12,-488.697 4400.87,-481.736"/>
<text text-anchor="middle" x="4719.5" y="-508.8" font-family="Times,serif" font-size="14.00">read</text>
</g>
<!-- pipe:[273417785]#ServerID_79226724f3b6 -->
<g id="node26" class="node"><title>pipe:[273417785]#ServerID_79226724f3b6</title>
<ellipse fill="none" stroke="black" cx="3633" cy="-382" rx="215.562" ry="18"/>
<text text-anchor="middle" x="3633" y="-378.3" font-family="Times,serif" font-size="14.00">pipe:[273417785]#ServerID_79226724f3b6</text>
</g>
<!-- 10_node#ServerID_79226724f3b6&#45;&gt;pipe:[273417785]#ServerID_79226724f3b6 -->
<g id="edge33" class="edge"><title>10_node#ServerID_79226724f3b6&#45;&gt;pipe:[273417785]#ServerID_79226724f3b6</title>
<path fill="none" stroke="black" d="M4132.65,-450.952C4021.21,-435.796 3859.49,-413.802 3750.49,-398.979"/>
<polygon fill="black" stroke="black" points="3750.82,-395.492 3740.44,-397.612 3749.88,-402.428 3750.82,-395.492"/>
<text text-anchor="middle" x="4001" y="-421.8" font-family="Times,serif" font-size="14.00">write</text>
</g>
<!-- /dev/null#ServerID_79226724f3b6 -->
<g id="node27" class="node"><title>/dev/null#ServerID_79226724f3b6</title>
<ellipse fill="none" stroke="black" cx="4040" cy="-382" rx="172.769" ry="18"/>
<text text-anchor="middle" x="4040" y="-378.3" font-family="Times,serif" font-size="14.00">/dev/null#ServerID_79226724f3b6</text>
</g>
<!-- 10_node#ServerID_79226724f3b6&#45;&gt;/dev/null#ServerID_79226724f3b6 -->
<g id="edge43" class="edge"><title>10_node#ServerID_79226724f3b6&#45;&gt;/dev/null#ServerID_79226724f3b6</title>
<path fill="none" stroke="black" d="M4138.96,-450.977C4123.02,-446.354 4107.27,-440.475 4093,-433 4081.09,-426.762 4069.94,-417.089 4060.97,-407.907"/>
<polygon fill="black" stroke="black" points="4063.35,-405.329 4053.97,-400.396 4058.23,-410.099 4063.35,-405.329"/>
<text text-anchor="middle" x="4112" y="-421.8" font-family="Times,serif" font-size="14.00">write</text>
</g>
<!-- pipe:[273416745]#ServerID_79226724f3b6 -->
<g id="node28" class="node"><title>pipe:[273416745]#ServerID_79226724f3b6</title>
<ellipse fill="none" stroke="black" cx="4729" cy="-382" rx="215.562" ry="18"/>
<text text-anchor="middle" x="4729" y="-378.3" font-family="Times,serif" font-size="14.00">pipe:[273416745]#ServerID_79226724f3b6</text>
</g>
<!-- 10_node#ServerID_79226724f3b6&#45;&gt;pipe:[273416745]#ServerID_79226724f3b6 -->
<g id="edge36" class="edge"><title>10_node#ServerID_79226724f3b6&#45;&gt;pipe:[273416745]#ServerID_79226724f3b6</title>
<path fill="none" stroke="black" d="M4352.46,-450.952C4433.93,-436.251 4551.03,-415.117 4632.95,-400.333"/>
<polygon fill="black" stroke="black" points="4633.8,-403.738 4643.02,-398.517 4632.55,-396.849 4633.8,-403.738"/>
<text text-anchor="middle" x="4540" y="-421.8" font-family="Times,serif" font-size="14.00">write</text>
</g>
<!-- 22_node#ServerID_79226724f3b6 -->
<g id="node29" class="node"><title>22_node#ServerID_79226724f3b6</title>
<polygon fill="none" stroke="black" points="4495.5,-400 4230.5,-400 4230.5,-364 4495.5,-364 4495.5,-400"/>
<text text-anchor="middle" x="4363" y="-378.3" font-family="Times,serif" font-size="14.00">22_node#ServerID_79226724f3b6</text>
</g>
<!-- 10_node#ServerID_79226724f3b6&#45;&gt;22_node#ServerID_79226724f3b6 -->
<g id="edge37" class="edge"><title>10_node#ServerID_79226724f3b6&#45;&gt;22_node#ServerID_79226724f3b6</title>
<path fill="none" stroke="black" d="M4279.25,-450.799C4294.9,-438.126 4316.39,-420.734 4333.68,-406.738"/>
<polygon fill="black" stroke="black" points="4336.21,-409.188 4341.78,-400.175 4331.81,-403.747 4336.21,-409.188"/>
<text text-anchor="middle" x="4331" y="-421.8" font-family="Times,serif" font-size="14.00">fork</text>
</g>
<!-- /home/app/node_modules#ServerID_79226724f3b6 -->
<g id="node25" class="node"><title>/home/app/node_modules#ServerID_79226724f3b6</title>
<ellipse fill="none" stroke="black" cx="4500" cy="-556" rx="250.756" ry="18"/>
<text text-anchor="middle" x="4500" y="-552.3" font-family="Times,serif" font-size="14.00">/home/app/node_modules#ServerID_79226724f3b6</text>
</g>
<!-- /home/app/node_modules#ServerID_79226724f3b6&#45;&gt;10_node#ServerID_79226724f3b6 -->
<g id="edge32" class="edge"><title>/home/app/node_modules#ServerID_79226724f3b6&#45;&gt;10_node#ServerID_79226724f3b6</title>
<path fill="none" stroke="black" d="M4452.48,-538.308C4413.4,-524.583 4357.87,-505.078 4316.14,-490.422"/>
<polygon fill="black" stroke="black" points="4317.25,-487.102 4306.66,-487.09 4314.93,-493.707 4317.25,-487.102"/>
<text text-anchor="middle" x="4409.5" y="-508.8" font-family="Times,serif" font-size="14.00">read</text>
</g>
<!-- /dev/null#ServerID_79226724f3b6&#45;&gt;10_node#ServerID_79226724f3b6 -->
<g id="edge34" class="edge"><title>/dev/null#ServerID_79226724f3b6&#45;&gt;10_node#ServerID_79226724f3b6</title>
<path fill="none" stroke="black" d="M4082.3,-399.493C4117.14,-413.077 4166.74,-432.418 4204.37,-447.088"/>
<polygon fill="black" stroke="black" points="4203.56,-450.529 4214.15,-450.901 4206.1,-444.008 4203.56,-450.529"/>
<text text-anchor="middle" x="4178.5" y="-421.8" font-family="Times,serif" font-size="14.00">read</text>
</g>
<!-- pipe:[273416745]#ServerID_79226724f3b6&#45;&gt;10_node#ServerID_79226724f3b6 -->
<g id="edge35" class="edge"><title>pipe:[273416745]#ServerID_79226724f3b6&#45;&gt;10_node#ServerID_79226724f3b6</title>
<path fill="none" stroke="black" d="M4688.46,-399.735C4659.77,-410.892 4620.13,-424.94 4584,-433 4524.78,-446.213 4458.35,-454.491 4400.99,-459.652"/>
<polygon fill="black" stroke="black" points="4400.41,-456.189 4390.75,-460.549 4401.02,-463.162 4400.41,-456.189"/>
<text text-anchor="middle" x="4652.5" y="-421.8" font-family="Times,serif" font-size="14.00">read</text>
</g>
<!-- 22_sh#ServerID_79226724f3b6 -->
<g id="node30" class="node"><title>22_sh#ServerID_79226724f3b6</title>
<polygon fill="none" stroke="black" points="4486.5,-313 4239.5,-313 4239.5,-277 4486.5,-277 4486.5,-313"/>
<text text-anchor="middle" x="4363" y="-291.3" font-family="Times,serif" font-size="14.00">22_sh#ServerID_79226724f3b6</text>
</g>
<!-- 22_node#ServerID_79226724f3b6&#45;&gt;22_sh#ServerID_79226724f3b6 -->
<g id="edge38" class="edge"><title>22_node#ServerID_79226724f3b6&#45;&gt;22_sh#ServerID_79226724f3b6</title>
<path fill="none" stroke="black" d="M4363,-363.799C4363,-352.163 4363,-336.548 4363,-323.237"/>
<polygon fill="black" stroke="black" points="4366.5,-323.175 4363,-313.175 4359.5,-323.175 4366.5,-323.175"/>
<text text-anchor="middle" x="4388" y="-334.8" font-family="Times,serif" font-size="14.00">execve</text>
</g>
<!-- 23_sh#ServerID_79226724f3b6 -->
<g id="node31" class="node"><title>23_sh#ServerID_79226724f3b6</title>
<polygon fill="none" stroke="black" points="4385.5,-226 4138.5,-226 4138.5,-190 4385.5,-190 4385.5,-226"/>
<text text-anchor="middle" x="4262" y="-204.3" font-family="Times,serif" font-size="14.00">23_sh#ServerID_79226724f3b6</text>
</g>
<!-- 22_sh#ServerID_79226724f3b6&#45;&gt;23_sh#ServerID_79226724f3b6 -->
<g id="edge39" class="edge"><title>22_sh#ServerID_79226724f3b6&#45;&gt;23_sh#ServerID_79226724f3b6</title>
<path fill="none" stroke="black" d="M4342.56,-276.799C4327.5,-264.126 4306.84,-246.734 4290.21,-232.738"/>
<polygon fill="black" stroke="black" points="4292.31,-229.937 4282.41,-226.175 4287.81,-235.292 4292.31,-229.937"/>
<text text-anchor="middle" x="4333" y="-247.8" font-family="Times,serif" font-size="14.00">fork</text>
</g>
<!-- /home/app/3.txt#ServerID_79226724f3b6 -->
<g id="node33" class="node"><title>/home/app/3.txt#ServerID_79226724f3b6</title>
<ellipse fill="none" stroke="black" cx="4610" cy="-208" rx="206.063" ry="18"/>
<text text-anchor="middle" x="4610" y="-204.3" font-family="Times,serif" font-size="14.00">/home/app/3.txt#ServerID_79226724f3b6</text>
</g>
<!-- 22_sh#ServerID_79226724f3b6&#45;&gt;/home/app/3.txt#ServerID_79226724f3b6 -->
<g id="edge41" class="edge"><title>22_sh#ServerID_79226724f3b6&#45;&gt;/home/app/3.txt#ServerID_79226724f3b6</title>
<path fill="none" stroke="black" d="M4412.69,-276.901C4452.94,-263.049 4509.72,-243.509 4552.04,-228.945"/>
<polygon fill="black" stroke="black" points="4553.34,-232.201 4561.65,-225.637 4551.06,-225.582 4553.34,-232.201"/>
<text text-anchor="middle" x="4520" y="-247.8" font-family="Times,serif" font-size="14.00">write</text>
</g>
<!-- 23_touch#ServerID_79226724f3b6 -->
<g id="node32" class="node"><title>23_touch#ServerID_79226724f3b6</title>
<polygon fill="none" stroke="black" points="4397.5,-139 4126.5,-139 4126.5,-103 4397.5,-103 4397.5,-139"/>
<text text-anchor="middle" x="4262" y="-117.3" font-family="Times,serif" font-size="14.00">23_touch#ServerID_79226724f3b6</text>
</g>
<!-- 23_sh#ServerID_79226724f3b6&#45;&gt;23_touch#ServerID_79226724f3b6 -->
<g id="edge40" class="edge"><title>23_sh#ServerID_79226724f3b6&#45;&gt;23_touch#ServerID_79226724f3b6</title>
<path fill="none" stroke="black" d="M4262,-189.799C4262,-178.163 4262,-162.548 4262,-149.237"/>
<polygon fill="black" stroke="black" points="4265.5,-149.175 4262,-139.175 4258.5,-149.175 4265.5,-149.175"/>
<text text-anchor="middle" x="4287" y="-160.8" font-family="Times,serif" font-size="14.00">execve</text>
</g>
<!-- /home/app/2.txt#ServerID_79226724f3b6 -->
<g id="node34" class="node"><title>/home/app/2.txt#ServerID_79226724f3b6</title>
<ellipse fill="none" stroke="black" cx="4262" cy="-34" rx="206.063" ry="18"/>
<text text-anchor="middle" x="4262" y="-30.3" font-family="Times,serif" font-size="14.00">/home/app/2.txt#ServerID_79226724f3b6</text>
</g>
<!-- 23_touch#ServerID_79226724f3b6&#45;&gt;/home/app/2.txt#ServerID_79226724f3b6 -->
<g id="edge42" class="edge"><title>23_touch#ServerID_79226724f3b6&#45;&gt;/home/app/2.txt#ServerID_79226724f3b6</title>
<path fill="none" stroke="black" d="M4262,-102.799C4262,-91.1626 4262,-75.5479 4262,-62.2368"/>
<polygon fill="black" stroke="black" points="4265.5,-62.1754 4262,-52.1754 4258.5,-62.1755 4265.5,-62.1754"/>
<text text-anchor="middle" x="4281" y="-73.8" font-family="Times,serif" font-size="14.00">write</text>
</g>
<!-- /etc/localtime#ServerID_79226724f3b6 -->
<g id="node35" class="node"><title>/etc/localtime#ServerID_79226724f3b6</title>
<ellipse fill="none" stroke="black" cx="4035" cy="-556" rx="196.065" ry="18"/>
<text text-anchor="middle" x="4035" y="-552.3" font-family="Times,serif" font-size="14.00">/etc/localtime#ServerID_79226724f3b6</text>
</g>
<!-- /etc/localtime#ServerID_79226724f3b6&#45;&gt;10_node#ServerID_79226724f3b6 -->
<g id="edge44" class="edge"><title>/etc/localtime#ServerID_79226724f3b6&#45;&gt;10_node#ServerID_79226724f3b6</title>
<path fill="none" stroke="black" d="M4078.53,-538.409C4114.28,-524.78 4165.12,-505.403 4203.56,-490.749"/>
<polygon fill="black" stroke="black" points="4204.96,-493.964 4213.06,-487.131 4202.46,-487.423 4204.96,-493.964"/>
<text text-anchor="middle" x="4175.5" y="-508.8" font-family="Times,serif" font-size="14.00">read</text>
</g>
<!-- /usr/share/zoneinfo/#ServerID_79226724f3b6 -->
<g id="node36" class="node"><title>/usr/share/zoneinfo/#ServerID_79226724f3b6</title>
<ellipse fill="none" stroke="black" cx="3596" cy="-556" rx="224.76" ry="18"/>
<text text-anchor="middle" x="3596" y="-552.3" font-family="Times,serif" font-size="14.00">/usr/share/zoneinfo/#ServerID_79226724f3b6</text>
</g>
<!-- /usr/share/zoneinfo/#ServerID_79226724f3b6&#45;&gt;10_node#ServerID_79226724f3b6 -->
<g id="edge45" class="edge"><title>/usr/share/zoneinfo/#ServerID_79226724f3b6&#45;&gt;10_node#ServerID_79226724f3b6</title>
<path fill="none" stroke="black" d="M3709.43,-540.436C3821.64,-526.028 3993.76,-503.929 4115.22,-488.333"/>
<polygon fill="black" stroke="black" points="4115.87,-491.778 4125.34,-487.033 4114.98,-484.835 4115.87,-491.778"/>
<text text-anchor="middle" x="3982.5" y="-508.8" font-family="Times,serif" font-size="14.00">read</text>
</g>
<!-- 10.1.80.1:56163#ServerID_OuterContainerID&#45;&gt;10.1.80.247:8080#ServerID_OuterContainerID -->
<g id="edge47" class="edge"><title>10.1.80.1:56163#ServerID_OuterContainerID&#45;&gt;10.1.80.247:8080#ServerID_OuterContainerID</title>
<path fill="none" stroke="black" d="M1137.77,-661.234C1135.78,-677.024 1130.58,-700.138 1117,-715 1110.98,-721.591 1103.53,-726.973 1095.56,-731.36"/>
<polygon fill="black" stroke="black" points="1093.8,-728.324 1086.4,-735.9 1096.91,-734.597 1093.8,-728.324"/>
<text text-anchor="middle" x="1147" y="-703.8" font-family="Times,serif" font-size="14.00">POST</text>
</g>
</g>
</svg>
