<?xml version="1.0" encoding="UTF-8" standalone="no"?>
<!DOCTYPE svg PUBLIC "-//W3C//DTD SVG 1.1//EN"
 "http://www.w3.org/Graphics/SVG/1.1/DTD/svg11.dtd">
<!-- Generated by graphviz version 2.38.0 (20140413.2041)
 -->
<!-- Title: G Pages: 1 -->
<svg width="7516pt" height="489pt"
 viewBox="0.00 0.00 7516.00 489.00" xmlns="http://www.w3.org/2000/svg" xmlns:xlink="http://www.w3.org/1999/xlink">
<g id="graph0" class="graph" transform="scale(1 1) rotate(0) translate(4 485)">
<title>G</title>
<polygon fill="white" stroke="none" points="-4,4 -4,-485 7512,-485 7512,4 -4,4"/>
<g id="clust1" class="cluster"><title>clusterServerID_0802701be25e</title>
<polygon fill="none" stroke="black" points="6101,-95 6101,-473 7497,-473 7497,-95 6101,-95"/>
<text text-anchor="middle" x="6799" y="-457.8" font-family="Times,serif" font-size="14.00">clusterServerID_0802701be25e</text>
</g>
<g id="clust2" class="cluster"><title>clusterServerID_667d78fb58&#45;55kvm</title>
<polygon fill="none" stroke="black" points="4205,-203 4205,-278 4553,-278 4553,-203 4205,-203"/>
<text text-anchor="middle" x="4379" y="-262.8" font-family="Times,serif" font-size="14.00">clusterServerID_667d78fb58&#45;55kvm</text>
</g>
<g id="clust3" class="cluster"><title>clusterServerID_6dcbcc88d5&#45;j9zwp</title>
<polygon fill="none" stroke="black" points="2904,-203 2904,-278 3246,-278 3246,-203 2904,-203"/>
<text text-anchor="middle" x="3075" y="-262.8" font-family="Times,serif" font-size="14.00">clusterServerID_6dcbcc88d5&#45;j9zwp</text>
</g>
<g id="clust4" class="cluster"><title>clusterServerID_736074b81582</title>
<polygon fill="none" stroke="black" points="8,-8 8,-278 1411,-278 1411,-8 8,-8"/>
<text text-anchor="middle" x="709.5" y="-262.8" font-family="Times,serif" font-size="14.00">clusterServerID_736074b81582</text>
</g>
<g id="clust5" class="cluster"><title>clusterServerID_OuterContainerID</title>
<polygon fill="none" stroke="black" points="1419,-8 1419,-170 6093,-170 6093,-8 1419,-8"/>
<text text-anchor="middle" x="3756" y="-154.8" font-family="Times,serif" font-size="14.00">clusterServerID_OuterContainerID</text>
</g>
<!-- gateway:8080#ServerID_OuterContainerID -->
<g id="node1" class="node"><title>gateway:8080#ServerID_OuterContainerID</title>
<polygon fill="none" stroke="black" points="3075,-139 2770.52,-121 3075,-103 3379.48,-121 3075,-139"/>
<text text-anchor="middle" x="3075" y="-117.3" font-family="Times,serif" font-size="14.00">gateway:8080#ServerID_OuterContainerID</text>
</g>
<!-- 1_fwatchdog#ServerID_6dcbcc88d5&#45;j9zwp -->
<g id="node2" class="node"><title>1_fwatchdog#ServerID_6dcbcc88d5&#45;j9zwp</title>
<polygon fill="none" stroke="black" points="3238,-247 2912,-247 2912,-211 3238,-211 3238,-247"/>
<text text-anchor="middle" x="3075" y="-225.3" font-family="Times,serif" font-size="14.00">1_fwatchdog#ServerID_6dcbcc88d5&#45;j9zwp</text>
</g>
<!-- gateway:8080#ServerID_OuterContainerID&#45;&gt;1_fwatchdog#ServerID_6dcbcc88d5&#45;j9zwp -->
<g id="edge1" class="edge"><title>gateway:8080#ServerID_OuterContainerID&#45;&gt;1_fwatchdog#ServerID_6dcbcc88d5&#45;j9zwp</title>
<path fill="none" stroke="black" d="M3053.92,-137.91C3042.41,-147.974 3029.26,-162.069 3023,-178 3020.56,-184.205 3019.87,-187.115 3023,-193 3025.19,-197.11 3028.1,-200.823 3031.42,-204.158"/>
<polygon fill="black" stroke="black" points="3029.39,-207.021 3039.26,-210.861 3033.94,-201.701 3029.39,-207.021"/>
<text text-anchor="middle" x="3065" y="-181.8" font-family="Times,serif" font-size="14.00">RESPONSE</text>
</g>
<!-- 10_node#ServerID_736074b81582 -->
<g id="node9" class="node"><title>10_node#ServerID_736074b81582</title>
<polygon fill="none" stroke="black" points="1402.5,-52 1133.5,-52 1133.5,-16 1402.5,-16 1402.5,-52"/>
<text text-anchor="middle" x="1268" y="-30.3" font-family="Times,serif" font-size="14.00">10_node#ServerID_736074b81582</text>
</g>
<!-- gateway:8080#ServerID_OuterContainerID&#45;&gt;10_node#ServerID_736074b81582 -->
<g id="edge28" class="edge"><title>gateway:8080#ServerID_OuterContainerID&#45;&gt;10_node#ServerID_736074b81582</title>
<path fill="none" stroke="black" d="M2965.02,-109.451C2905.07,-104.145 2829.52,-98.1803 2762,-95 2454.31,-80.5075 2376.87,-94.9854 2069,-85 1778.12,-75.5655 1705.04,-76.0632 1415,-52 1414.23,-51.9363 1413.46,-51.8717 1412.69,-51.8063"/>
<polygon fill="black" stroke="black" points="1412.82,-48.3041 1402.55,-50.913 1412.2,-55.2771 1412.82,-48.3041"/>
<text text-anchor="middle" x="2085.5" y="-73.8" font-family="Times,serif" font-size="14.00">read</text>
</g>
<!-- 1_fwatchdog#ServerID_6dcbcc88d5&#45;j9zwp&#45;&gt;gateway:8080#ServerID_OuterContainerID -->
<g id="edge2" class="edge"><title>1_fwatchdog#ServerID_6dcbcc88d5&#45;j9zwp&#45;&gt;gateway:8080#ServerID_OuterContainerID</title>
<path fill="none" stroke="black" d="M3095.2,-210.928C3099.99,-205.716 3104.44,-199.601 3107,-193 3109.41,-186.785 3108.71,-184.443 3107,-178 3104.15,-167.286 3098.72,-156.483 3093.13,-147.263"/>
<polygon fill="black" stroke="black" points="3095.93,-145.148 3087.58,-138.633 3090.05,-148.936 3095.93,-145.148"/>
<text text-anchor="middle" x="3129" y="-181.8" font-family="Times,serif" font-size="14.00">POST</text>
</g>
<!-- 10.1.80.93:42404#ServerID_OuterContainerID -->
<g id="node5" class="node"><title>10.1.80.93:42404#ServerID_OuterContainerID</title>
<polygon fill="none" stroke="black" points="2426,-139 2098.56,-121 2426,-103 2753.44,-121 2426,-139"/>
<text text-anchor="middle" x="2426" y="-117.3" font-family="Times,serif" font-size="14.00">10.1.80.93:42404#ServerID_OuterContainerID</text>
</g>
<!-- 1_fwatchdog#ServerID_6dcbcc88d5&#45;j9zwp&#45;&gt;10.1.80.93:42404#ServerID_OuterContainerID -->
<g id="edge7" class="edge"><title>1_fwatchdog#ServerID_6dcbcc88d5&#45;j9zwp&#45;&gt;10.1.80.93:42404#ServerID_OuterContainerID</title>
<path fill="none" stroke="black" d="M2911.58,-220.113C2840.63,-214.974 2756.81,-206.589 2682,-193 2610.59,-180.029 2530.24,-156.178 2478.93,-139.723"/>
<polygon fill="black" stroke="black" points="2479.97,-136.382 2469.38,-136.639 2477.82,-143.043 2479.97,-136.382"/>
<text text-anchor="middle" x="2724" y="-181.8" font-family="Times,serif" font-size="14.00">RESPONSE</text>
</g>
<!-- 10.1.80.93:8080#ServerID_OuterContainerID -->
<g id="node6" class="node"><title>10.1.80.93:8080#ServerID_OuterContainerID</title>
<polygon fill="none" stroke="black" points="3716,-139 3397.1,-121 3716,-103 4034.9,-121 3716,-139"/>
<text text-anchor="middle" x="3716" y="-117.3" font-family="Times,serif" font-size="14.00">10.1.80.93:8080#ServerID_OuterContainerID</text>
</g>
<!-- 1_fwatchdog#ServerID_6dcbcc88d5&#45;j9zwp&#45;&gt;10.1.80.93:8080#ServerID_OuterContainerID -->
<g id="edge5" class="edge"><title>1_fwatchdog#ServerID_6dcbcc88d5&#45;j9zwp&#45;&gt;10.1.80.93:8080#ServerID_OuterContainerID</title>
<path fill="none" stroke="black" d="M3177.99,-210.969C3302.99,-190.299 3511.56,-155.807 3628.92,-136.401"/>
<polygon fill="black" stroke="black" points="3629.65,-139.828 3638.94,-134.743 3628.5,-132.921 3629.65,-139.828"/>
<text text-anchor="middle" x="3397" y="-181.8" font-family="Times,serif" font-size="14.00">POST</text>
</g>
<!-- 1_fwatchdog#ServerID_667d78fb58&#45;55kvm -->
<g id="node3" class="node"><title>1_fwatchdog#ServerID_667d78fb58&#45;55kvm</title>
<polygon fill="none" stroke="black" points="4545,-247 4213,-247 4213,-211 4545,-211 4545,-247"/>
<text text-anchor="middle" x="4379" y="-225.3" font-family="Times,serif" font-size="14.00">1_fwatchdog#ServerID_667d78fb58&#45;55kvm</text>
</g>
<!-- 10.1.80.93:49298#ServerID_OuterContainerID -->
<g id="node4" class="node"><title>10.1.80.93:49298#ServerID_OuterContainerID</title>
<polygon fill="none" stroke="black" points="4380,-139 4052.56,-121 4380,-103 4707.44,-121 4380,-139"/>
<text text-anchor="middle" x="4380" y="-117.3" font-family="Times,serif" font-size="14.00">10.1.80.93:49298#ServerID_OuterContainerID</text>
</g>
<!-- 1_fwatchdog#ServerID_667d78fb58&#45;55kvm&#45;&gt;10.1.80.93:49298#ServerID_OuterContainerID -->
<g id="edge3" class="edge"><title>1_fwatchdog#ServerID_667d78fb58&#45;55kvm&#45;&gt;10.1.80.93:49298#ServerID_OuterContainerID</title>
<path fill="none" stroke="black" d="M4384.96,-210.759C4386.61,-205.165 4388.18,-198.883 4389,-193 4391.04,-178.436 4389.27,-162.162 4386.78,-148.873"/>
<polygon fill="black" stroke="black" points="4390.17,-148.006 4384.68,-138.944 4383.32,-149.452 4390.17,-148.006"/>
<text text-anchor="middle" x="4432" y="-181.8" font-family="Times,serif" font-size="14.00">RESPONSE</text>
</g>
<!-- 10.1.80.93:49298#ServerID_OuterContainerID&#45;&gt;1_fwatchdog#ServerID_667d78fb58&#45;55kvm -->
<g id="edge8" class="edge"><title>10.1.80.93:49298#ServerID_OuterContainerID&#45;&gt;1_fwatchdog#ServerID_667d78fb58&#45;55kvm</title>
<path fill="none" stroke="black" d="M4366.26,-138.449C4358.35,-149.019 4349.17,-163.453 4345,-178 4343.16,-184.408 4342.49,-186.822 4345,-193 4346.42,-196.503 4348.38,-199.848 4350.65,-202.984"/>
<polygon fill="black" stroke="black" points="4348.08,-205.372 4357.2,-210.762 4353.43,-200.86 4348.08,-205.372"/>
<text text-anchor="middle" x="4365" y="-181.8" font-family="Times,serif" font-size="14.00">POST</text>
</g>
<!-- 1_fwatchdog#ServerID_0802701be25e -->
<g id="node13" class="node"><title>1_fwatchdog#ServerID_0802701be25e</title>
<polygon fill="none" stroke="black" points="7206.5,-442 6907.5,-442 6907.5,-406 7206.5,-406 7206.5,-442"/>
<text text-anchor="middle" x="7057" y="-420.3" font-family="Times,serif" font-size="14.00">1_fwatchdog#ServerID_0802701be25e</text>
</g>
<!-- 10.1.80.93:49298#ServerID_OuterContainerID&#45;&gt;1_fwatchdog#ServerID_0802701be25e -->
<g id="edge16" class="edge"><title>10.1.80.93:49298#ServerID_OuterContainerID&#45;&gt;1_fwatchdog#ServerID_0802701be25e</title>
<path fill="none" stroke="black" d="M4451.46,-135.108C4519.27,-146.856 4624.18,-163.247 4716,-170 4895.85,-183.227 6159.02,-166.647 6339,-178 6597.94,-194.334 7325.97,-124.776 7498,-319 7508.61,-330.977 7508.42,-342.855 7498,-355 7461.84,-397.162 7327.82,-413.426 7216.92,-419.577"/>
<polygon fill="black" stroke="black" points="7216.4,-416.099 7206.6,-420.123 7216.77,-423.089 7216.4,-416.099"/>
<text text-anchor="middle" x="7491.5" y="-289.8" font-family="Times,serif" font-size="14.00">read</text>
</g>
<!-- 10.1.80.93:42404#ServerID_OuterContainerID&#45;&gt;1_fwatchdog#ServerID_6dcbcc88d5&#45;j9zwp -->
<g id="edge4" class="edge"><title>10.1.80.93:42404#ServerID_OuterContainerID&#45;&gt;1_fwatchdog#ServerID_6dcbcc88d5&#45;j9zwp</title>
<path fill="none" stroke="black" d="M2504.02,-134.743C2617.65,-153.301 2829.38,-187.883 2960.64,-209.321"/>
<polygon fill="black" stroke="black" points="2960.29,-212.811 2970.73,-210.969 2961.42,-205.903 2960.29,-212.811"/>
<text text-anchor="middle" x="2867" y="-181.8" font-family="Times,serif" font-size="14.00">POST</text>
</g>
<!-- 1_fwatchdog#ServerID_736074b81582 -->
<g id="node7" class="node"><title>1_fwatchdog#ServerID_736074b81582</title>
<polygon fill="none" stroke="black" points="1403,-247 1103,-247 1103,-211 1403,-211 1403,-247"/>
<text text-anchor="middle" x="1253" y="-225.3" font-family="Times,serif" font-size="14.00">1_fwatchdog#ServerID_736074b81582</text>
</g>
<!-- 10.1.80.93:42404#ServerID_OuterContainerID&#45;&gt;1_fwatchdog#ServerID_736074b81582 -->
<g id="edge13" class="edge"><title>10.1.80.93:42404#ServerID_OuterContainerID&#45;&gt;1_fwatchdog#ServerID_736074b81582</title>
<path fill="none" stroke="black" d="M2348.12,-134.764C2280.15,-145.511 2178.78,-160.596 2090,-170 1855.25,-194.868 1582.28,-211.495 1413.56,-220.348"/>
<polygon fill="black" stroke="black" points="1413.16,-216.864 1403.35,-220.881 1413.52,-223.855 1413.16,-216.864"/>
<text text-anchor="middle" x="2016.5" y="-181.8" font-family="Times,serif" font-size="14.00">read</text>
</g>
<!-- 10.1.80.93:8080#ServerID_OuterContainerID&#45;&gt;1_fwatchdog#ServerID_6dcbcc88d5&#45;j9zwp -->
<g id="edge6" class="edge"><title>10.1.80.93:8080#ServerID_OuterContainerID&#45;&gt;1_fwatchdog#ServerID_6dcbcc88d5&#45;j9zwp</title>
<path fill="none" stroke="black" d="M3666.06,-136.212C3607.73,-152.296 3508.12,-178.181 3421,-193 3365.25,-202.484 3303.97,-209.714 3248.68,-215.069"/>
<polygon fill="black" stroke="black" points="3248.05,-211.613 3238.43,-216.047 3248.71,-218.581 3248.05,-211.613"/>
<text text-anchor="middle" x="3537" y="-181.8" font-family="Times,serif" font-size="14.00">RESPONSE</text>
</g>
<!-- 10.1.80.1:31306#ServerID_OuterContainerID -->
<g id="node21" class="node"><title>10.1.80.1:31306#ServerID_OuterContainerID</title>
<polygon fill="none" stroke="black" points="4388,-52 4069.1,-34 4388,-16 4706.9,-34 4388,-52"/>
<text text-anchor="middle" x="4388" y="-30.3" font-family="Times,serif" font-size="14.00">10.1.80.1:31306#ServerID_OuterContainerID</text>
</g>
<!-- 10.1.80.93:8080#ServerID_OuterContainerID&#45;&gt;10.1.80.1:31306#ServerID_OuterContainerID -->
<g id="edge30" class="edge"><title>10.1.80.93:8080#ServerID_OuterContainerID&#45;&gt;10.1.80.1:31306#ServerID_OuterContainerID</title>
<path fill="none" stroke="black" d="M3794.28,-107.356C3862.29,-96.6094 3963.5,-81.1882 4052,-70 4122.14,-61.132 4200.73,-52.8548 4264.26,-46.5783"/>
<polygon fill="black" stroke="black" points="4264.71,-50.0507 4274.32,-45.5884 4264.03,-43.0843 4264.71,-50.0507"/>
<text text-anchor="middle" x="4094" y="-73.8" font-family="Times,serif" font-size="14.00">RESPONSE</text>
</g>
<!-- 10.0.88.125:31112#ServerID_OuterContainerID -->
<g id="node22" class="node"><title>10.0.88.125:31112#ServerID_OuterContainerID</title>
<polygon fill="none" stroke="black" points="3716,-52 3380.52,-34 3716,-16 4051.48,-34 3716,-52"/>
<text text-anchor="middle" x="3716" y="-30.3" font-family="Times,serif" font-size="14.00">10.0.88.125:31112#ServerID_OuterContainerID</text>
</g>
<!-- 10.1.80.93:8080#ServerID_OuterContainerID&#45;&gt;10.0.88.125:31112#ServerID_OuterContainerID -->
<g id="edge31" class="edge"><title>10.1.80.93:8080#ServerID_OuterContainerID&#45;&gt;10.0.88.125:31112#ServerID_OuterContainerID</title>
<path fill="none" stroke="black" d="M3716,-102.799C3716,-91.1626 3716,-75.5479 3716,-62.2368"/>
<polygon fill="black" stroke="black" points="3719.5,-62.1754 3716,-52.1754 3712.5,-62.1755 3719.5,-62.1754"/>
<text text-anchor="middle" x="3758" y="-73.8" font-family="Times,serif" font-size="14.00">RESPONSE</text>
</g>
<!-- 10.1.80.1:40348#ServerID_OuterContainerID -->
<g id="node23" class="node"><title>10.1.80.1:40348#ServerID_OuterContainerID</title>
<polygon fill="none" stroke="black" points="3044,-52 2725.1,-34 3044,-16 3362.9,-34 3044,-52"/>
<text text-anchor="middle" x="3044" y="-30.3" font-family="Times,serif" font-size="14.00">10.1.80.1:40348#ServerID_OuterContainerID</text>
</g>
<!-- 10.1.80.93:8080#ServerID_OuterContainerID&#45;&gt;10.1.80.1:40348#ServerID_OuterContainerID -->
<g id="edge33" class="edge"><title>10.1.80.93:8080#ServerID_OuterContainerID&#45;&gt;10.1.80.1:40348#ServerID_OuterContainerID</title>
<path fill="none" stroke="black" d="M3588.28,-110.185C3527.6,-105.543 3454.06,-99.9464 3388,-95 3327.56,-90.4747 3311.88,-94.3358 3252,-85 3201.32,-77.0987 3144.78,-63.1699 3103.46,-52.017"/>
<polygon fill="black" stroke="black" points="3104.13,-48.5717 3093.56,-49.3198 3102.29,-55.3255 3104.13,-48.5717"/>
<text text-anchor="middle" x="3294" y="-73.8" font-family="Times,serif" font-size="14.00">RESPONSE</text>
</g>
<!-- localhost:3000#ServerID_736074b81582 -->
<g id="node8" class="node"><title>localhost:3000#ServerID_736074b81582</title>
<polygon fill="none" stroke="black" points="1114,-139 825.269,-121 1114,-103 1402.73,-121 1114,-139"/>
<text text-anchor="middle" x="1114" y="-117.3" font-family="Times,serif" font-size="14.00">localhost:3000#ServerID_736074b81582</text>
</g>
<!-- 1_fwatchdog#ServerID_736074b81582&#45;&gt;localhost:3000#ServerID_736074b81582 -->
<g id="edge9" class="edge"><title>1_fwatchdog#ServerID_736074b81582&#45;&gt;localhost:3000#ServerID_736074b81582</title>
<path fill="none" stroke="black" d="M1230.67,-210.969C1206.85,-192.803 1169.03,-163.963 1142.94,-144.068"/>
<polygon fill="black" stroke="black" points="1144.99,-141.229 1134.91,-137.948 1140.74,-146.795 1144.99,-141.229"/>
<text text-anchor="middle" x="1224" y="-181.8" font-family="Times,serif" font-size="14.00">write</text>
</g>
<!-- localhost:3000#ServerID_736074b81582&#45;&gt;10_node#ServerID_736074b81582 -->
<g id="edge24" class="edge"><title>localhost:3000#ServerID_736074b81582&#45;&gt;10_node#ServerID_736074b81582</title>
<path fill="none" stroke="black" d="M1141.89,-104.607C1166.03,-91.2826 1201.22,-71.8571 1228.3,-56.911"/>
<polygon fill="black" stroke="black" points="1230.08,-59.926 1237.15,-52.0294 1226.7,-53.7975 1230.08,-59.926"/>
<text text-anchor="middle" x="1217.5" y="-73.8" font-family="Times,serif" font-size="14.00">read</text>
</g>
<!-- 10_node#ServerID_736074b81582&#45;&gt;gateway:8080#ServerID_OuterContainerID -->
<g id="edge18" class="edge"><title>10_node#ServerID_736074b81582&#45;&gt;gateway:8080#ServerID_OuterContainerID</title>
<path fill="none" stroke="black" d="M1402.54,-51.0446C1406.74,-51.39 1410.9,-51.7101 1415,-52 1721.45,-73.668 1798.94,-60.1501 2106,-70 2397.62,-79.3546 2470.74,-77.8257 2762,-95 2824.12,-98.6628 2893.07,-104.03 2950.41,-108.852"/>
<polygon fill="black" stroke="black" points="2950.35,-112.36 2960.61,-109.715 2950.94,-105.385 2950.35,-112.36"/>
<text text-anchor="middle" x="2601" y="-73.8" font-family="Times,serif" font-size="14.00">connect</text>
</g>
<!-- 10.152.183.10:53#ServerID_OuterContainerID -->
<g id="node10" class="node"><title>10.152.183.10:53#ServerID_OuterContainerID</title>
<polygon fill="none" stroke="black" points="5758,-139 5430.56,-121 5758,-103 6085.44,-121 5758,-139"/>
<text text-anchor="middle" x="5758" y="-117.3" font-family="Times,serif" font-size="14.00">10.152.183.10:53#ServerID_OuterContainerID</text>
</g>
<!-- 10_node#ServerID_736074b81582&#45;&gt;10.152.183.10:53#ServerID_OuterContainerID -->
<g id="edge10" class="edge"><title>10_node#ServerID_736074b81582&#45;&gt;10.152.183.10:53#ServerID_OuterContainerID</title>
<path fill="none" stroke="black" d="M1402.53,-51.1056C1406.73,-51.4334 1410.9,-51.7332 1415,-52 1955.69,-87.1675 2092.49,-51.1871 2634,-70 2755.89,-74.2345 2786.09,-81.423 2908,-85 3466.43,-101.386 4863.76,-73.1488 5422,-95 5491.49,-97.7201 5568.9,-103.306 5631.9,-108.509"/>
<polygon fill="black" stroke="black" points="5631.62,-111.998 5641.88,-109.34 5632.2,-105.022 5631.62,-111.998"/>
<text text-anchor="middle" x="2932.5" y="-73.8" font-family="Times,serif" font-size="14.00">sendto</text>
</g>
<!-- 10.152.183.10:53#ServerID_OuterContainerID&#45;&gt;10_node#ServerID_736074b81582 -->
<g id="edge14" class="edge"><title>10.152.183.10:53#ServerID_OuterContainerID&#45;&gt;10_node#ServerID_736074b81582</title>
<path fill="none" stroke="black" d="M5641.88,-109.35C5577.21,-103.924 5495.21,-97.8782 5422,-95 5165.08,-84.8994 3364.77,-98.2784 3108,-85 3040.65,-81.517 3024.34,-73.7305 2957,-70 2272.67,-32.0885 2099,-95.4265 1415,-52 1414.23,-51.9512 1413.46,-51.9011 1412.69,-51.85"/>
<polygon fill="black" stroke="black" points="1412.76,-48.3462 1402.53,-51.1224 1412.26,-55.3283 1412.76,-48.3462"/>
<text text-anchor="middle" x="3141" y="-73.8" font-family="Times,serif" font-size="14.00">recvfrom</text>
</g>
<!-- 11_node#ServerID_0802701be25e -->
<g id="node15" class="node"><title>11_node#ServerID_0802701be25e</title>
<polygon fill="none" stroke="black" points="6387.5,-247 6120.5,-247 6120.5,-211 6387.5,-211 6387.5,-247"/>
<text text-anchor="middle" x="6254" y="-225.3" font-family="Times,serif" font-size="14.00">11_node#ServerID_0802701be25e</text>
</g>
<!-- 10.152.183.10:53#ServerID_OuterContainerID&#45;&gt;11_node#ServerID_0802701be25e -->
<g id="edge22" class="edge"><title>10.152.183.10:53#ServerID_OuterContainerID&#45;&gt;11_node#ServerID_0802701be25e</title>
<path fill="none" stroke="black" d="M5850.02,-133.955C5917.71,-143.577 6011.68,-158.67 6093,-178 6127.43,-186.184 6165.25,-197.792 6195.58,-207.763"/>
<polygon fill="black" stroke="black" points="6194.56,-211.111 6205.15,-210.936 6196.76,-204.467 6194.56,-211.111"/>
<text text-anchor="middle" x="6180" y="-181.8" font-family="Times,serif" font-size="14.00">recvfrom</text>
</g>
<!-- /etc/hosts#ServerID_736074b81582 -->
<g id="node11" class="node"><title>/etc/hosts#ServerID_736074b81582</title>
<ellipse fill="none" stroke="black" cx="627" cy="-121" rx="180.868" ry="18"/>
<text text-anchor="middle" x="627" y="-117.3" font-family="Times,serif" font-size="14.00">/etc/hosts#ServerID_736074b81582</text>
</g>
<!-- /etc/hosts#ServerID_736074b81582&#45;&gt;10_node#ServerID_736074b81582 -->
<g id="edge11" class="edge"><title>/etc/hosts#ServerID_736074b81582&#45;&gt;10_node#ServerID_736074b81582</title>
<path fill="none" stroke="black" d="M730.7,-106.249C839.09,-91.8758 1009.76,-69.2444 1129.59,-53.3534"/>
<polygon fill="black" stroke="black" points="1130.12,-56.8137 1139.58,-52.0295 1129.2,-49.8745 1130.12,-56.8137"/>
<text text-anchor="middle" x="1002.5" y="-73.8" font-family="Times,serif" font-size="14.00">read</text>
</g>
<!-- /etc/resolv.conf#ServerID_736074b81582 -->
<g id="node12" class="node"><title>/etc/resolv.conf#ServerID_736074b81582</title>
<ellipse fill="none" stroke="black" cx="222" cy="-121" rx="206.063" ry="18"/>
<text text-anchor="middle" x="222" y="-117.3" font-family="Times,serif" font-size="14.00">/etc/resolv.conf#ServerID_736074b81582</text>
</g>
<!-- /etc/resolv.conf#ServerID_736074b81582&#45;&gt;10_node#ServerID_736074b81582 -->
<g id="edge12" class="edge"><title>/etc/resolv.conf#ServerID_736074b81582&#45;&gt;10_node#ServerID_736074b81582</title>
<path fill="none" stroke="black" d="M334.88,-105.936C367.775,-102.091 403.797,-98.1276 437,-95 677.147,-72.3793 957.043,-53.7695 1123,-43.5437"/>
<polygon fill="black" stroke="black" points="1123.51,-47.0193 1133.28,-42.9124 1123.08,-40.0324 1123.51,-47.0193"/>
<text text-anchor="middle" x="750.5" y="-73.8" font-family="Times,serif" font-size="14.00">read</text>
</g>
<!-- localhost:3000#ServerID_0802701be25e -->
<g id="node14" class="node"><title>localhost:3000#ServerID_0802701be25e</title>
<polygon fill="none" stroke="black" points="6774,-355 6487.45,-337 6774,-319 7060.55,-337 6774,-355"/>
<text text-anchor="middle" x="6774" y="-333.3" font-family="Times,serif" font-size="14.00">localhost:3000#ServerID_0802701be25e</text>
</g>
<!-- 1_fwatchdog#ServerID_0802701be25e&#45;&gt;localhost:3000#ServerID_0802701be25e -->
<g id="edge15" class="edge"><title>1_fwatchdog#ServerID_0802701be25e&#45;&gt;localhost:3000#ServerID_0802701be25e</title>
<path fill="none" stroke="black" d="M7000.07,-405.901C6950.84,-391.116 6880.05,-369.851 6830.84,-355.073"/>
<polygon fill="black" stroke="black" points="6831.58,-351.64 6821,-352.115 6829.57,-358.344 6831.58,-351.64"/>
<text text-anchor="middle" x="6951" y="-376.8" font-family="Times,serif" font-size="14.00">write</text>
</g>
<!-- localhost:3000#ServerID_0802701be25e&#45;&gt;11_node#ServerID_0802701be25e -->
<g id="edge17" class="edge"><title>localhost:3000#ServerID_0802701be25e&#45;&gt;11_node#ServerID_0802701be25e</title>
<path fill="none" stroke="black" d="M6710.24,-323.002C6619.47,-304.499 6452.4,-270.443 6347.58,-249.076"/>
<polygon fill="black" stroke="black" points="6348.13,-245.617 6337.64,-247.049 6346.74,-252.476 6348.13,-245.617"/>
<text text-anchor="middle" x="6606.5" y="-289.8" font-family="Times,serif" font-size="14.00">read</text>
</g>
<!-- 11_node#ServerID_0802701be25e&#45;&gt;10.152.183.10:53#ServerID_OuterContainerID -->
<g id="edge21" class="edge"><title>11_node#ServerID_0802701be25e&#45;&gt;10.152.183.10:53#ServerID_OuterContainerID</title>
<path fill="none" stroke="black" d="M6141.99,-210.997C6110.22,-205.724 6075.67,-199.56 6044,-193 5966.1,-176.864 5877.31,-154.134 5819.6,-138.774"/>
<polygon fill="black" stroke="black" points="5820.47,-135.384 5809.91,-136.185 5818.67,-142.147 5820.47,-135.384"/>
<text text-anchor="middle" x="6068.5" y="-181.8" font-family="Times,serif" font-size="14.00">sendto</text>
</g>
<!-- 182.255.33.134:443#ServerID_OuterContainerID -->
<g id="node19" class="node"><title>182.255.33.134:443#ServerID_OuterContainerID</title>
<polygon fill="none" stroke="black" points="5069,-139 4725.47,-121 5069,-103 5412.53,-121 5069,-139"/>
<text text-anchor="middle" x="5069" y="-117.3" font-family="Times,serif" font-size="14.00">182.255.33.134:443#ServerID_OuterContainerID</text>
</g>
<!-- 11_node#ServerID_0802701be25e&#45;&gt;182.255.33.134:443#ServerID_OuterContainerID -->
<g id="edge25" class="edge"><title>11_node#ServerID_0802701be25e&#45;&gt;182.255.33.134:443#ServerID_OuterContainerID</title>
<path fill="none" stroke="black" d="M6120.47,-228.257C5958.65,-227.188 5677.96,-220.905 5439,-193 5332.9,-180.609 5211.59,-155.132 5137.65,-138.308"/>
<polygon fill="black" stroke="black" points="5138.07,-134.813 5127.54,-135.994 5136.51,-141.636 5138.07,-134.813"/>
<text text-anchor="middle" x="5468" y="-181.8" font-family="Times,serif" font-size="14.00">connect</text>
</g>
<!-- 11_node#ServerID_0802701be25e&#45;&gt;182.255.33.134:443#ServerID_OuterContainerID -->
<g id="edge26" class="edge"><title>11_node#ServerID_0802701be25e&#45;&gt;182.255.33.134:443#ServerID_OuterContainerID</title>
<path fill="none" stroke="black" d="M6120.48,-221.394C5955.94,-212.631 5667.94,-195.266 5422,-170 5333.31,-160.888 5232.56,-146.817 5161.47,-136.262"/>
<polygon fill="black" stroke="black" points="5161.61,-132.744 5151.2,-134.731 5160.57,-139.667 5161.61,-132.744"/>
<text text-anchor="middle" x="5693" y="-181.8" font-family="Times,serif" font-size="14.00">write</text>
</g>
<!-- /home/app/escape2.sh#ServerID_0802701be25e -->
<g id="node20" class="node"><title>/home/app/escape2.sh#ServerID_0802701be25e</title>
<ellipse fill="none" stroke="black" cx="6346" cy="-121" rx="237.458" ry="18"/>
<text text-anchor="middle" x="6346" y="-117.3" font-family="Times,serif" font-size="14.00">/home/app/escape2.sh#ServerID_0802701be25e</text>
</g>
<!-- 11_node#ServerID_0802701be25e&#45;&gt;/home/app/escape2.sh#ServerID_0802701be25e -->
<g id="edge27" class="edge"><title>11_node#ServerID_0802701be25e&#45;&gt;/home/app/escape2.sh#ServerID_0802701be25e</title>
<path fill="none" stroke="black" d="M6268.78,-210.969C6283.87,-193.584 6307.45,-166.421 6324.58,-146.68"/>
<polygon fill="black" stroke="black" points="6327.34,-148.835 6331.26,-138.988 6322.06,-144.247 6327.34,-148.835"/>
<text text-anchor="middle" x="6316" y="-181.8" font-family="Times,serif" font-size="14.00">write</text>
</g>
<!-- /etc/hosts#ServerID_0802701be25e -->
<g id="node16" class="node"><title>/etc/hosts#ServerID_0802701be25e</title>
<ellipse fill="none" stroke="black" cx="6289" cy="-337" rx="180.068" ry="18"/>
<text text-anchor="middle" x="6289" y="-333.3" font-family="Times,serif" font-size="14.00">/etc/hosts#ServerID_0802701be25e</text>
</g>
<!-- /etc/hosts#ServerID_0802701be25e&#45;&gt;11_node#ServerID_0802701be25e -->
<g id="edge19" class="edge"><title>/etc/hosts#ServerID_0802701be25e&#45;&gt;11_node#ServerID_0802701be25e</title>
<path fill="none" stroke="black" d="M6283.38,-318.969C6277.85,-302.224 6269.32,-276.41 6262.88,-256.892"/>
<polygon fill="black" stroke="black" points="6266.18,-255.739 6259.73,-247.341 6259.54,-257.934 6266.18,-255.739"/>
<text text-anchor="middle" x="6293.5" y="-289.8" font-family="Times,serif" font-size="14.00">read</text>
</g>
<!-- /etc/resolv.conf#ServerID_0802701be25e -->
<g id="node17" class="node"><title>/etc/resolv.conf#ServerID_0802701be25e</title>
<ellipse fill="none" stroke="black" cx="7284" cy="-337" rx="205.264" ry="18"/>
<text text-anchor="middle" x="7284" y="-333.3" font-family="Times,serif" font-size="14.00">/etc/resolv.conf#ServerID_0802701be25e</text>
</g>
<!-- /etc/resolv.conf#ServerID_0802701be25e&#45;&gt;11_node#ServerID_0802701be25e -->
<g id="edge20" class="edge"><title>/etc/resolv.conf#ServerID_0802701be25e&#45;&gt;11_node#ServerID_0802701be25e</title>
<path fill="none" stroke="black" d="M7156.41,-322.869C6963.78,-303.046 6599.83,-265.591 6397.98,-244.817"/>
<polygon fill="black" stroke="black" points="6398.2,-241.321 6387.89,-243.779 6397.48,-248.285 6398.2,-241.321"/>
<text text-anchor="middle" x="6937.5" y="-289.8" font-family="Times,serif" font-size="14.00">read</text>
</g>
<!-- 10.1.80.93:42418#ServerID_OuterContainerID -->
<g id="node18" class="node"><title>10.1.80.93:42418#ServerID_OuterContainerID</title>
<polygon fill="none" stroke="black" points="1754,-139 1426.56,-121 1754,-103 2081.44,-121 1754,-139"/>
<text text-anchor="middle" x="1754" y="-117.3" font-family="Times,serif" font-size="14.00">10.1.80.93:42418#ServerID_OuterContainerID</text>
</g>
<!-- 10.1.80.93:42418#ServerID_OuterContainerID&#45;&gt;1_fwatchdog#ServerID_736074b81582 -->
<g id="edge23" class="edge"><title>10.1.80.93:42418#ServerID_OuterContainerID&#45;&gt;1_fwatchdog#ServerID_736074b81582</title>
<path fill="none" stroke="black" d="M1690.01,-135.538C1602.05,-154.15 1443.31,-187.735 1343.29,-208.898"/>
<polygon fill="black" stroke="black" points="1342.55,-205.475 1333.49,-210.969 1344,-212.323 1342.55,-205.475"/>
<text text-anchor="middle" x="1505.5" y="-181.8" font-family="Times,serif" font-size="14.00">read</text>
</g>
<!-- 10.1.80.1:31306#ServerID_OuterContainerID&#45;&gt;10.1.80.93:8080#ServerID_OuterContainerID -->
<g id="edge29" class="edge"><title>10.1.80.1:31306#ServerID_OuterContainerID&#45;&gt;10.1.80.93:8080#ServerID_OuterContainerID</title>
<path fill="none" stroke="black" d="M4329.71,-48.7546C4279.66,-60.0813 4205.45,-75.7331 4140,-85 4112.09,-88.9514 3966.72,-100.634 3853.89,-109.424"/>
<polygon fill="black" stroke="black" points="3853.46,-105.946 3843.76,-110.211 3854,-112.925 3853.46,-105.946"/>
<text text-anchor="middle" x="4243" y="-73.8" font-family="Times,serif" font-size="14.00">POST</text>
</g>
<!-- 10.1.80.1:40348#ServerID_OuterContainerID&#45;&gt;10.1.80.93:8080#ServerID_OuterContainerID -->
<g id="edge32" class="edge"><title>10.1.80.1:40348#ServerID_OuterContainerID&#45;&gt;10.1.80.93:8080#ServerID_OuterContainerID</title>
<path fill="none" stroke="black" d="M3137.02,-46.7662C3261.93,-62.5654 3483.13,-90.5447 3612.96,-106.966"/>
<polygon fill="black" stroke="black" points="3612.55,-110.443 3622.91,-108.226 3613.43,-103.498 3612.55,-110.443"/>
<text text-anchor="middle" x="3441" y="-73.8" font-family="Times,serif" font-size="14.00">POST</text>
</g>
</g>
</svg>
