<?xml version="1.0" encoding="UTF-8" standalone="no"?>
<!DOCTYPE svg PUBLIC "-//W3C//DTD SVG 1.1//EN"
 "http://www.w3.org/Graphics/SVG/1.1/DTD/svg11.dtd">
<!-- Generated by graphviz version 2.38.0 (20140413.2041)
 -->
<!-- Title: G Pages: 1 -->
<svg width="4323pt" height="510pt"
 viewBox="0.00 0.00 4323.00 510.00" xmlns="http://www.w3.org/2000/svg" xmlns:xlink="http://www.w3.org/1999/xlink">
<g id="graph0" class="graph" transform="scale(1 1) rotate(0) translate(4 506)">
<title>G</title>
<polygon fill="white" stroke="none" points="-4,4 -4,-506 4319,-506 4319,4 -4,4"/>
<g id="clust1" class="cluster"><title>clusterServerID_667d78fb58&#45;2fhs5</title>
<polygon fill="none" stroke="black" points="3363,-95 3363,-170 3703,-170 3703,-95 3363,-95"/>
<text text-anchor="middle" x="3533" y="-154.8" font-family="Times,serif" font-size="14.00">clusterServerID_667d78fb58&#45;2fhs5</text>
</g>
<g id="clust2" class="cluster"><title>clusterServerID_6dcbcc88d5&#45;4vpdn</title>
<polygon fill="none" stroke="black" points="819,-311 819,-386 1163,-386 1163,-311 819,-311"/>
<text text-anchor="middle" x="991" y="-370.8" font-family="Times,serif" font-size="14.00">clusterServerID_6dcbcc88d5&#45;4vpdn</text>
</g>
<g id="clust3" class="cluster"><title>clusterServerID_79226724f3b6</title>
<polygon fill="none" stroke="black" points="3711,-8 3711,-278 4307,-278 4307,-8 3711,-8"/>
<text text-anchor="middle" x="4009" y="-262.8" font-family="Times,serif" font-size="14.00">clusterServerID_79226724f3b6</text>
</g>
<g id="clust4" class="cluster"><title>clusterServerID_OuterContainerID</title>
<polygon fill="none" stroke="black" points="8,-95 8,-278 3355,-278 3355,-95 8,-95"/>
<text text-anchor="middle" x="1681.5" y="-262.8" font-family="Times,serif" font-size="14.00">clusterServerID_OuterContainerID</text>
</g>
<g id="clust5" class="cluster"><title>clusterServerID_d4de233c55aa</title>
<polygon fill="none" stroke="black" points="2045,-311 2045,-494 3435,-494 3435,-311 2045,-311"/>
<text text-anchor="middle" x="2740" y="-478.8" font-family="Times,serif" font-size="14.00">clusterServerID_d4de233c55aa</text>
</g>
<!-- 1_fwatchdog#ServerID_6dcbcc88d5&#45;4vpdn -->
<g id="node1" class="node"><title>1_fwatchdog#ServerID_6dcbcc88d5&#45;4vpdn</title>
<polygon fill="none" stroke="black" points="1155.5,-355 826.5,-355 826.5,-319 1155.5,-319 1155.5,-355"/>
<text text-anchor="middle" x="991" y="-333.3" font-family="Times,serif" font-size="14.00">1_fwatchdog#ServerID_6dcbcc88d5&#45;4vpdn</text>
</g>
<!-- gateway:8080#ServerID_OuterContainerID -->
<g id="node2" class="node"><title>gateway:8080#ServerID_OuterContainerID</title>
<polygon fill="none" stroke="black" points="992,-247 687.518,-229 992,-211 1296.48,-229 992,-247"/>
<text text-anchor="middle" x="992" y="-225.3" font-family="Times,serif" font-size="14.00">gateway:8080#ServerID_OuterContainerID</text>
</g>
<!-- 1_fwatchdog#ServerID_6dcbcc88d5&#45;4vpdn&#45;&gt;gateway:8080#ServerID_OuterContainerID -->
<g id="edge1" class="edge"><title>1_fwatchdog#ServerID_6dcbcc88d5&#45;4vpdn&#45;&gt;gateway:8080#ServerID_OuterContainerID</title>
<path fill="none" stroke="black" d="M972.041,-318.736C967.557,-313.523 963.388,-307.455 961,-301 958.687,-294.747 959.333,-292.455 961,-286 963.752,-275.348 969.011,-264.56 974.427,-255.334"/>
<polygon fill="black" stroke="black" points="977.494,-257.03 979.809,-246.692 971.552,-253.33 977.494,-257.03"/>
<text text-anchor="middle" x="981" y="-289.8" font-family="Times,serif" font-size="14.00">POST</text>
</g>
<!-- 10.1.80.247:59010#ServerID_OuterContainerID -->
<g id="node3" class="node"><title>10.1.80.247:59010#ServerID_OuterContainerID</title>
<polygon fill="none" stroke="black" points="2339,-247 2003.52,-229 2339,-211 2674.48,-229 2339,-247"/>
<text text-anchor="middle" x="2339" y="-225.3" font-family="Times,serif" font-size="14.00">10.1.80.247:59010#ServerID_OuterContainerID</text>
</g>
<!-- 1_fwatchdog#ServerID_6dcbcc88d5&#45;4vpdn&#45;&gt;10.1.80.247:59010#ServerID_OuterContainerID -->
<g id="edge10" class="edge"><title>1_fwatchdog#ServerID_6dcbcc88d5&#45;4vpdn&#45;&gt;10.1.80.247:59010#ServerID_OuterContainerID</title>
<path fill="none" stroke="black" d="M1155.55,-336.77C1344.66,-336.066 1664.08,-330.011 1937,-301 2053.41,-288.626 2186.97,-262.66 2267.07,-245.794"/>
<polygon fill="black" stroke="black" points="2268,-249.177 2277.05,-243.682 2266.55,-242.328 2268,-249.177"/>
<text text-anchor="middle" x="2091" y="-289.8" font-family="Times,serif" font-size="14.00">RESPONSE</text>
</g>
<!-- 10.1.80.247:8080#ServerID_OuterContainerID -->
<g id="node4" class="node"><title>10.1.80.247:8080#ServerID_OuterContainerID</title>
<polygon fill="none" stroke="black" points="343,-247 15.5599,-229 343,-211 670.44,-229 343,-247"/>
<text text-anchor="middle" x="343" y="-225.3" font-family="Times,serif" font-size="14.00">10.1.80.247:8080#ServerID_OuterContainerID</text>
</g>
<!-- 1_fwatchdog#ServerID_6dcbcc88d5&#45;4vpdn&#45;&gt;10.1.80.247:8080#ServerID_OuterContainerID -->
<g id="edge8" class="edge"><title>1_fwatchdog#ServerID_6dcbcc88d5&#45;4vpdn&#45;&gt;10.1.80.247:8080#ServerID_OuterContainerID</title>
<path fill="none" stroke="black" d="M920.099,-318.967C873.422,-308.252 810.846,-294.831 755,-286 721.452,-280.695 712.706,-282.18 679,-278 596.262,-267.739 502.346,-254.158 434.88,-244.061"/>
<polygon fill="black" stroke="black" points="435.113,-240.557 424.705,-242.535 434.075,-247.48 435.113,-240.557"/>
<text text-anchor="middle" x="854" y="-289.8" font-family="Times,serif" font-size="14.00">POST</text>
</g>
<!-- gateway:8080#ServerID_OuterContainerID&#45;&gt;1_fwatchdog#ServerID_6dcbcc88d5&#45;4vpdn -->
<g id="edge3" class="edge"><title>gateway:8080#ServerID_OuterContainerID&#45;&gt;1_fwatchdog#ServerID_6dcbcc88d5&#45;4vpdn</title>
<path fill="none" stroke="black" d="M996.681,-246.944C1000.05,-261.339 1003.59,-282.543 1001,-301 1000.64,-303.574 1000.14,-306.224 999.547,-308.859"/>
<polygon fill="black" stroke="black" points="996.102,-308.198 996.955,-318.759 1002.87,-309.971 996.102,-308.198"/>
<text text-anchor="middle" x="1044" y="-289.8" font-family="Times,serif" font-size="14.00">RESPONSE</text>
</g>
<!-- 10.1.80.247:59010#ServerID_OuterContainerID&#45;&gt;1_fwatchdog#ServerID_6dcbcc88d5&#45;4vpdn -->
<g id="edge2" class="edge"><title>10.1.80.247:59010#ServerID_OuterContainerID&#45;&gt;1_fwatchdog#ServerID_6dcbcc88d5&#45;4vpdn</title>
<path fill="none" stroke="black" d="M2260.08,-242.822C2190.3,-253.72 2085.63,-268.991 1994,-278 1838.52,-293.287 1409.49,-315.58 1165.89,-327.589"/>
<polygon fill="black" stroke="black" points="1165.69,-324.095 1155.87,-328.082 1166.03,-331.086 1165.69,-324.095"/>
<text text-anchor="middle" x="1913" y="-289.8" font-family="Times,serif" font-size="14.00">POST</text>
</g>
<!-- 1_fwatchdog#ServerID_d4de233c55aa -->
<g id="node6" class="node"><title>1_fwatchdog#ServerID_d4de233c55aa</title>
<polygon fill="none" stroke="black" points="2487.5,-355 2190.5,-355 2190.5,-319 2487.5,-319 2487.5,-355"/>
<text text-anchor="middle" x="2339" y="-333.3" font-family="Times,serif" font-size="14.00">1_fwatchdog#ServerID_d4de233c55aa</text>
</g>
<!-- 10.1.80.247:59010#ServerID_OuterContainerID&#45;&gt;1_fwatchdog#ServerID_d4de233c55aa -->
<g id="edge12" class="edge"><title>10.1.80.247:59010#ServerID_OuterContainerID&#45;&gt;1_fwatchdog#ServerID_d4de233c55aa</title>
<path fill="none" stroke="black" d="M2339,-247.341C2339,-264.042 2339,-289.554 2339,-308.931"/>
<polygon fill="black" stroke="black" points="2335.5,-308.969 2339,-318.969 2342.5,-308.969 2335.5,-308.969"/>
<text text-anchor="middle" x="2355.5" y="-289.8" font-family="Times,serif" font-size="14.00">read</text>
</g>
<!-- 10.1.80.247:8080#ServerID_OuterContainerID&#45;&gt;1_fwatchdog#ServerID_6dcbcc88d5&#45;4vpdn -->
<g id="edge4" class="edge"><title>10.1.80.247:8080#ServerID_OuterContainerID&#45;&gt;1_fwatchdog#ServerID_6dcbcc88d5&#45;4vpdn</title>
<path fill="none" stroke="black" d="M398.959,-243.978C463.98,-259.784 574.672,-285.35 671,-301 717.865,-308.614 768.868,-315.029 816.099,-320.202"/>
<polygon fill="black" stroke="black" points="815.799,-323.69 826.118,-321.287 816.553,-316.731 815.799,-323.69"/>
<text text-anchor="middle" x="713" y="-289.8" font-family="Times,serif" font-size="14.00">RESPONSE</text>
</g>
<!-- 10.1.80.1:21768#ServerID_OuterContainerID -->
<g id="node17" class="node"><title>10.1.80.1:21768#ServerID_OuterContainerID</title>
<polygon fill="none" stroke="black" points="1679,-139 1360.1,-121 1679,-103 1997.9,-121 1679,-139"/>
<text text-anchor="middle" x="1679" y="-117.3" font-family="Times,serif" font-size="14.00">10.1.80.1:21768#ServerID_OuterContainerID</text>
</g>
<!-- 10.1.80.247:8080#ServerID_OuterContainerID&#45;&gt;10.1.80.1:21768#ServerID_OuterContainerID -->
<g id="edge26" class="edge"><title>10.1.80.247:8080#ServerID_OuterContainerID&#45;&gt;10.1.80.1:21768#ServerID_OuterContainerID</title>
<path fill="none" stroke="black" d="M476.118,-218.29C631.335,-207.241 895.652,-189.273 1123,-178 1224.27,-172.978 1250.02,-179.133 1351,-170 1435.09,-162.395 1530.53,-147.741 1596.69,-136.615"/>
<polygon fill="black" stroke="black" points="1597.37,-140.051 1606.64,-134.931 1596.2,-133.149 1597.37,-140.051"/>
<text text-anchor="middle" x="1165" y="-181.8" font-family="Times,serif" font-size="14.00">RESPONSE</text>
</g>
<!-- 10.1.80.1:34817#ServerID_OuterContainerID -->
<g id="node18" class="node"><title>10.1.80.1:34817#ServerID_OuterContainerID</title>
<polygon fill="none" stroke="black" points="335,-139 16.1049,-121 335,-103 653.895,-121 335,-139"/>
<text text-anchor="middle" x="335" y="-117.3" font-family="Times,serif" font-size="14.00">10.1.80.1:34817#ServerID_OuterContainerID</text>
</g>
<!-- 10.1.80.247:8080#ServerID_OuterContainerID&#45;&gt;10.1.80.1:34817#ServerID_OuterContainerID -->
<g id="edge28" class="edge"><title>10.1.80.247:8080#ServerID_OuterContainerID&#45;&gt;10.1.80.1:34817#ServerID_OuterContainerID</title>
<path fill="none" stroke="black" d="M345.928,-210.962C346.775,-205.269 347.582,-198.878 348,-193 348.473,-186.35 348.759,-184.623 348,-178 346.894,-168.346 344.749,-157.935 342.515,-148.74"/>
<polygon fill="black" stroke="black" points="345.886,-147.793 340.006,-138.98 339.106,-149.536 345.886,-147.793"/>
<text text-anchor="middle" x="391" y="-181.8" font-family="Times,serif" font-size="14.00">RESPONSE</text>
</g>
<!-- 10.0.88.125:31112#ServerID_OuterContainerID -->
<g id="node19" class="node"><title>10.0.88.125:31112#ServerID_OuterContainerID</title>
<polygon fill="none" stroke="black" points="1007,-139 671.515,-121 1007,-103 1342.48,-121 1007,-139"/>
<text text-anchor="middle" x="1007" y="-117.3" font-family="Times,serif" font-size="14.00">10.0.88.125:31112#ServerID_OuterContainerID</text>
</g>
<!-- 10.1.80.247:8080#ServerID_OuterContainerID&#45;&gt;10.0.88.125:31112#ServerID_OuterContainerID -->
<g id="edge27" class="edge"><title>10.1.80.247:8080#ServerID_OuterContainerID&#45;&gt;10.0.88.125:31112#ServerID_OuterContainerID</title>
<path fill="none" stroke="black" d="M422.434,-215.319C546.818,-195.463 786.788,-157.154 917.247,-136.328"/>
<polygon fill="black" stroke="black" points="917.893,-139.769 927.216,-134.737 916.789,-132.857 917.893,-139.769"/>
<text text-anchor="middle" x="698" y="-181.8" font-family="Times,serif" font-size="14.00">RESPONSE</text>
</g>
<!-- localhost:3000#ServerID_d4de233c55aa -->
<g id="node5" class="node"><title>localhost:3000#ServerID_d4de233c55aa</title>
<polygon fill="none" stroke="black" points="2339,-463 2053.28,-445 2339,-427 2624.72,-445 2339,-463"/>
<text text-anchor="middle" x="2339" y="-441.3" font-family="Times,serif" font-size="14.00">localhost:3000#ServerID_d4de233c55aa</text>
</g>
<!-- localhost:3000#ServerID_d4de233c55aa&#45;&gt;1_fwatchdog#ServerID_d4de233c55aa -->
<g id="edge5" class="edge"><title>localhost:3000#ServerID_d4de233c55aa&#45;&gt;1_fwatchdog#ServerID_d4de233c55aa</title>
<path fill="none" stroke="black" d="M2339,-426.969C2339,-410.378 2339,-384.883 2339,-365.431"/>
<polygon fill="black" stroke="black" points="2342.5,-365.341 2339,-355.341 2335.5,-365.341 2342.5,-365.341"/>
<text text-anchor="middle" x="2355.5" y="-397.8" font-family="Times,serif" font-size="14.00">read</text>
</g>
<!-- 1_fwatchdog#ServerID_d4de233c55aa&#45;&gt;localhost:3000#ServerID_d4de233c55aa -->
<g id="edge7" class="edge"><title>1_fwatchdog#ServerID_d4de233c55aa&#45;&gt;localhost:3000#ServerID_d4de233c55aa</title>
<path fill="none" stroke="black" d="M2353.06,-355.485C2360.58,-365.98 2369.08,-379.98 2373,-394 2374.8,-400.42 2375.51,-402.822 2373,-409 2371.35,-413.062 2368.98,-416.912 2366.25,-420.47"/>
<polygon fill="black" stroke="black" points="2363.4,-418.403 2359.38,-428.203 2368.63,-423.053 2363.4,-418.403"/>
<text text-anchor="middle" x="2404" y="-397.8" font-family="Times,serif" font-size="14.00">connect</text>
</g>
<!-- 1_fwatchdog#ServerID_d4de233c55aa&#45;&gt;localhost:3000#ServerID_d4de233c55aa -->
<g id="edge11" class="edge"><title>1_fwatchdog#ServerID_d4de233c55aa&#45;&gt;localhost:3000#ServerID_d4de233c55aa</title>
<path fill="none" stroke="black" d="M2321.25,-355.418C2312.09,-365.68 2301.84,-379.473 2297,-394 2294.89,-400.325 2294.17,-402.963 2297,-409 2299.1,-413.491 2302.1,-417.607 2305.53,-421.314"/>
<polygon fill="black" stroke="black" points="2303.36,-424.07 2313.05,-428.337 2308.13,-418.954 2303.36,-424.07"/>
<text text-anchor="middle" x="2316" y="-397.8" font-family="Times,serif" font-size="14.00">write</text>
</g>
<!-- 10.1.80.247:60584#ServerID_OuterContainerID -->
<g id="node7" class="node"><title>10.1.80.247:60584#ServerID_OuterContainerID</title>
<polygon fill="none" stroke="black" points="1650,-247 1314.52,-229 1650,-211 1985.48,-229 1650,-247"/>
<text text-anchor="middle" x="1650" y="-225.3" font-family="Times,serif" font-size="14.00">10.1.80.247:60584#ServerID_OuterContainerID</text>
</g>
<!-- 1_fwatchdog#ServerID_667d78fb58&#45;2fhs5 -->
<g id="node8" class="node"><title>1_fwatchdog#ServerID_667d78fb58&#45;2fhs5</title>
<polygon fill="none" stroke="black" points="3694.5,-139 3371.5,-139 3371.5,-103 3694.5,-103 3694.5,-139"/>
<text text-anchor="middle" x="3533" y="-117.3" font-family="Times,serif" font-size="14.00">1_fwatchdog#ServerID_667d78fb58&#45;2fhs5</text>
</g>
<!-- 10.1.80.247:60584#ServerID_OuterContainerID&#45;&gt;1_fwatchdog#ServerID_667d78fb58&#45;2fhs5 -->
<g id="edge6" class="edge"><title>10.1.80.247:60584#ServerID_OuterContainerID&#45;&gt;1_fwatchdog#ServerID_667d78fb58&#45;2fhs5</title>
<path fill="none" stroke="black" d="M1814.95,-219.819C1871.98,-217.004 1936.3,-213.846 1995,-211 2302.54,-196.09 2379.23,-187.167 2687,-178 2761.64,-175.777 3285.06,-180.46 3359,-170 3398.25,-164.447 3441.2,-152.66 3474.61,-142.156"/>
<polygon fill="black" stroke="black" points="3475.75,-145.466 3484.21,-139.091 3473.62,-138.798 3475.75,-145.466"/>
<text text-anchor="middle" x="2707" y="-181.8" font-family="Times,serif" font-size="14.00">POST</text>
</g>
<!-- 1_fwatchdog#ServerID_79226724f3b6 -->
<g id="node14" class="node"><title>1_fwatchdog#ServerID_79226724f3b6</title>
<polygon fill="none" stroke="black" points="4015,-139 3719,-139 3719,-103 4015,-103 4015,-139"/>
<text text-anchor="middle" x="3867" y="-117.3" font-family="Times,serif" font-size="14.00">1_fwatchdog#ServerID_79226724f3b6</text>
</g>
<!-- 10.1.80.247:60584#ServerID_OuterContainerID&#45;&gt;1_fwatchdog#ServerID_79226724f3b6 -->
<g id="edge19" class="edge"><title>10.1.80.247:60584#ServerID_OuterContainerID&#45;&gt;1_fwatchdog#ServerID_79226724f3b6</title>
<path fill="none" stroke="black" d="M1804.09,-219.226C1863.71,-216.141 1932.51,-212.958 1995,-211 2590.76,-192.329 2740.37,-215.447 3336,-193 3501.09,-186.778 3544.37,-199.038 3707,-170 3742.16,-163.722 3780.53,-152.373 3810.88,-142.287"/>
<polygon fill="black" stroke="black" points="3812.07,-145.576 3820.43,-139.064 3809.84,-138.943 3812.07,-145.576"/>
<text text-anchor="middle" x="3670.5" y="-181.8" font-family="Times,serif" font-size="14.00">read</text>
</g>
<!-- 1_fwatchdog#ServerID_667d78fb58&#45;2fhs5&#45;&gt;10.1.80.247:60584#ServerID_OuterContainerID -->
<g id="edge9" class="edge"><title>1_fwatchdog#ServerID_667d78fb58&#45;2fhs5&#45;&gt;10.1.80.247:60584#ServerID_OuterContainerID</title>
<path fill="none" stroke="black" d="M3483.04,-139.118C3448.62,-150.082 3401.59,-163.443 3359,-170 3209.14,-193.074 2146.52,-205.405 1995,-211 1937.19,-213.135 1873.97,-216.074 1817.62,-218.909"/>
<polygon fill="black" stroke="black" points="1817.35,-215.418 1807.54,-219.418 1817.71,-222.409 1817.35,-215.418"/>
<text text-anchor="middle" x="3290" y="-181.8" font-family="Times,serif" font-size="14.00">RESPONSE</text>
</g>
<!-- /etc/hosts#ServerID_d4de233c55aa -->
<g id="node9" class="node"><title>/etc/hosts#ServerID_d4de233c55aa</title>
<ellipse fill="none" stroke="black" cx="2822" cy="-445" rx="178.969" ry="18"/>
<text text-anchor="middle" x="2822" y="-441.3" font-family="Times,serif" font-size="14.00">/etc/hosts#ServerID_d4de233c55aa</text>
</g>
<!-- 10_node#ServerID_d4de233c55aa -->
<g id="node10" class="node"><title>10_node#ServerID_d4de233c55aa</title>
<polygon fill="none" stroke="black" points="3081,-355 2815,-355 2815,-319 3081,-319 3081,-355"/>
<text text-anchor="middle" x="2948" y="-333.3" font-family="Times,serif" font-size="14.00">10_node#ServerID_d4de233c55aa</text>
</g>
<!-- /etc/hosts#ServerID_d4de233c55aa&#45;&gt;10_node#ServerID_d4de233c55aa -->
<g id="edge13" class="edge"><title>/etc/hosts#ServerID_d4de233c55aa&#45;&gt;10_node#ServerID_d4de233c55aa</title>
<path fill="none" stroke="black" d="M2842.24,-426.969C2863.15,-409.379 2895.96,-381.782 2919.49,-361.987"/>
<polygon fill="black" stroke="black" points="2921.99,-364.457 2927.39,-355.341 2917.48,-359.1 2921.99,-364.457"/>
<text text-anchor="middle" x="2898.5" y="-397.8" font-family="Times,serif" font-size="14.00">read</text>
</g>
<!-- 10_node#ServerID_d4de233c55aa&#45;&gt;gateway:8080#ServerID_OuterContainerID -->
<g id="edge18" class="edge"><title>10_node#ServerID_d4de233c55aa&#45;&gt;gateway:8080#ServerID_OuterContainerID</title>
<path fill="none" stroke="black" d="M2815,-321.35C2699.2,-309.318 2526.73,-293.14 2376,-286 2138.48,-274.749 1543.03,-296.904 1306,-278 1224.47,-271.498 1132.01,-256.418 1068.66,-244.883"/>
<polygon fill="black" stroke="black" points="1069.21,-241.426 1058.75,-243.064 1067.95,-248.311 1069.21,-241.426"/>
<text text-anchor="middle" x="2626" y="-289.8" font-family="Times,serif" font-size="14.00">connect</text>
</g>
<!-- 10.152.183.10:53#ServerID_OuterContainerID -->
<g id="node12" class="node"><title>10.152.183.10:53#ServerID_OuterContainerID</title>
<polygon fill="none" stroke="black" points="3020,-247 2692.56,-229 3020,-211 3347.44,-229 3020,-247"/>
<text text-anchor="middle" x="3020" y="-225.3" font-family="Times,serif" font-size="14.00">10.152.183.10:53#ServerID_OuterContainerID</text>
</g>
<!-- 10_node#ServerID_d4de233c55aa&#45;&gt;10.152.183.10:53#ServerID_OuterContainerID -->
<g id="edge15" class="edge"><title>10_node#ServerID_d4de233c55aa&#45;&gt;10.152.183.10:53#ServerID_OuterContainerID</title>
<path fill="none" stroke="black" d="M2944.84,-318.931C2943.79,-308.842 2943.97,-296.106 2949,-286 2956.04,-271.838 2968.54,-260.149 2981.11,-251.181"/>
<polygon fill="black" stroke="black" points="2983.38,-253.873 2989.75,-245.409 2979.49,-248.051 2983.38,-253.873"/>
<text text-anchor="middle" x="2973.5" y="-289.8" font-family="Times,serif" font-size="14.00">sendto</text>
</g>
<!-- /etc/resolv.conf#ServerID_d4de233c55aa -->
<g id="node11" class="node"><title>/etc/resolv.conf#ServerID_d4de233c55aa</title>
<ellipse fill="none" stroke="black" cx="3223" cy="-445" rx="204.164" ry="18"/>
<text text-anchor="middle" x="3223" y="-441.3" font-family="Times,serif" font-size="14.00">/etc/resolv.conf#ServerID_d4de233c55aa</text>
</g>
<!-- /etc/resolv.conf#ServerID_d4de233c55aa&#45;&gt;10_node#ServerID_d4de233c55aa -->
<g id="edge14" class="edge"><title>/etc/resolv.conf#ServerID_d4de233c55aa&#45;&gt;10_node#ServerID_d4de233c55aa</title>
<path fill="none" stroke="black" d="M3179.73,-427.321C3131.6,-408.769 3053.79,-378.778 3001.78,-358.731"/>
<polygon fill="black" stroke="black" points="3002.97,-355.439 2992.39,-355.108 3000.46,-361.971 3002.97,-355.439"/>
<text text-anchor="middle" x="3143.5" y="-397.8" font-family="Times,serif" font-size="14.00">read</text>
</g>
<!-- 10.152.183.10:53#ServerID_OuterContainerID&#45;&gt;10_node#ServerID_d4de233c55aa -->
<g id="edge16" class="edge"><title>10.152.183.10:53#ServerID_OuterContainerID&#45;&gt;10_node#ServerID_d4de233c55aa</title>
<path fill="none" stroke="black" d="M3017.93,-246.888C3015.37,-262.221 3009.79,-284.841 2998,-301 2994.96,-305.173 2991.26,-309.026 2987.27,-312.529"/>
<polygon fill="black" stroke="black" points="2984.98,-309.873 2979.32,-318.828 2989.33,-315.359 2984.98,-309.873"/>
<text text-anchor="middle" x="3040" y="-289.8" font-family="Times,serif" font-size="14.00">recvfrom</text>
</g>
<!-- localhost:3000#ServerID_79226724f3b6 -->
<g id="node13" class="node"><title>localhost:3000#ServerID_79226724f3b6</title>
<polygon fill="none" stroke="black" points="4004,-247 3719.12,-229 4004,-211 4288.88,-229 4004,-247"/>
<text text-anchor="middle" x="4004" y="-225.3" font-family="Times,serif" font-size="14.00">localhost:3000#ServerID_79226724f3b6</text>
</g>
<!-- localhost:3000#ServerID_79226724f3b6&#45;&gt;1_fwatchdog#ServerID_79226724f3b6 -->
<g id="edge17" class="edge"><title>localhost:3000#ServerID_79226724f3b6&#45;&gt;1_fwatchdog#ServerID_79226724f3b6</title>
<path fill="none" stroke="black" d="M3924.65,-216.014C3899.29,-210.462 3875.76,-202.869 3868,-193 3858.43,-180.837 3858.01,-163.53 3860.06,-149.049"/>
<polygon fill="black" stroke="black" points="3863.52,-149.588 3861.9,-139.118 3856.64,-148.315 3863.52,-149.588"/>
<text text-anchor="middle" x="3884.5" y="-181.8" font-family="Times,serif" font-size="14.00">read</text>
</g>
<!-- 10_node#ServerID_79226724f3b6 -->
<g id="node15" class="node"><title>10_node#ServerID_79226724f3b6</title>
<polygon fill="none" stroke="black" points="4298.5,-139 4033.5,-139 4033.5,-103 4298.5,-103 4298.5,-139"/>
<text text-anchor="middle" x="4166" y="-117.3" font-family="Times,serif" font-size="14.00">10_node#ServerID_79226724f3b6</text>
</g>
<!-- localhost:3000#ServerID_79226724f3b6&#45;&gt;10_node#ServerID_79226724f3b6 -->
<g id="edge22" class="edge"><title>localhost:3000#ServerID_79226724f3b6&#45;&gt;10_node#ServerID_79226724f3b6</title>
<path fill="none" stroke="black" d="M4027.9,-212.359C4055.26,-194.462 4100.28,-164.999 4131.45,-144.606"/>
<polygon fill="black" stroke="black" points="4133.4,-147.516 4139.85,-139.112 4129.56,-141.658 4133.4,-147.516"/>
<text text-anchor="middle" x="4096.5" y="-181.8" font-family="Times,serif" font-size="14.00">read</text>
</g>
<!-- 1_fwatchdog#ServerID_79226724f3b6&#45;&gt;localhost:3000#ServerID_79226724f3b6 -->
<g id="edge20" class="edge"><title>1_fwatchdog#ServerID_79226724f3b6&#45;&gt;localhost:3000#ServerID_79226724f3b6</title>
<path fill="none" stroke="black" d="M3877.33,-139.176C3887.54,-154.924 3904.42,-178.01 3924,-193 3932.3,-199.355 3941.94,-204.826 3951.58,-209.428"/>
<polygon fill="black" stroke="black" points="3950.24,-212.66 3960.79,-213.574 3953.11,-206.277 3950.24,-212.66"/>
<text text-anchor="middle" x="3953" y="-181.8" font-family="Times,serif" font-size="14.00">connect</text>
</g>
<!-- 1_fwatchdog#ServerID_79226724f3b6&#45;&gt;localhost:3000#ServerID_79226724f3b6 -->
<g id="edge21" class="edge"><title>1_fwatchdog#ServerID_79226724f3b6&#45;&gt;localhost:3000#ServerID_79226724f3b6</title>
<path fill="none" stroke="black" d="M3920.9,-139.057C3942.09,-147.932 3965.3,-160.637 3982,-178 3988.26,-184.511 3992.91,-193.1 3996.28,-201.319"/>
<polygon fill="black" stroke="black" points="3993.09,-202.78 3999.78,-210.996 3999.67,-200.402 3993.09,-202.78"/>
<text text-anchor="middle" x="4011" y="-181.8" font-family="Times,serif" font-size="14.00">write</text>
</g>
<!-- pipe:[273416608]#ServerID_79226724f3b6 -->
<g id="node16" class="node"><title>pipe:[273416608]#ServerID_79226724f3b6</title>
<ellipse fill="none" stroke="black" cx="3935" cy="-34" rx="215.562" ry="18"/>
<text text-anchor="middle" x="3935" y="-30.3" font-family="Times,serif" font-size="14.00">pipe:[273416608]#ServerID_79226724f3b6</text>
</g>
<!-- 1_fwatchdog#ServerID_79226724f3b6&#45;&gt;pipe:[273416608]#ServerID_79226724f3b6 -->
<g id="edge23" class="edge"><title>1_fwatchdog#ServerID_79226724f3b6&#45;&gt;pipe:[273416608]#ServerID_79226724f3b6</title>
<path fill="none" stroke="black" d="M3880.76,-102.799C3890.53,-90.5865 3903.81,-73.9921 3914.78,-60.2776"/>
<polygon fill="black" stroke="black" points="3917.75,-62.1706 3921.26,-52.1754 3912.28,-57.7977 3917.75,-62.1706"/>
<text text-anchor="middle" x="3925" y="-73.8" font-family="Times,serif" font-size="14.00">write</text>
</g>
<!-- 10.1.80.1:21768#ServerID_OuterContainerID&#45;&gt;10.1.80.247:8080#ServerID_OuterContainerID -->
<g id="edge24" class="edge"><title>10.1.80.1:21768#ServerID_OuterContainerID&#45;&gt;10.1.80.247:8080#ServerID_OuterContainerID</title>
<path fill="none" stroke="black" d="M1609.54,-135.135C1518.42,-151.767 1353.39,-179.836 1211,-193 975.425,-214.78 915.369,-201.022 679,-211 623.651,-213.336 563.194,-216.275 509.011,-219.049"/>
<polygon fill="black" stroke="black" points="508.777,-215.556 498.969,-219.565 509.136,-222.547 508.777,-215.556"/>
<text text-anchor="middle" x="1361" y="-181.8" font-family="Times,serif" font-size="14.00">POST</text>
</g>
<!-- 10.1.80.1:34817#ServerID_OuterContainerID&#45;&gt;10.1.80.247:8080#ServerID_OuterContainerID -->
<g id="edge25" class="edge"><title>10.1.80.1:34817#ServerID_OuterContainerID&#45;&gt;10.1.80.247:8080#ServerID_OuterContainerID</title>
<path fill="none" stroke="black" d="M321.454,-138.463C311.286,-152.923 300.329,-174.481 308,-193 309.665,-197.019 312.04,-200.818 314.779,-204.325"/>
<polygon fill="black" stroke="black" points="312.368,-206.877 321.669,-211.949 317.561,-202.183 312.368,-206.877"/>
<text text-anchor="middle" x="328" y="-181.8" font-family="Times,serif" font-size="14.00">POST</text>
</g>
</g>
</svg>
