<?xml version="1.0" encoding="UTF-8" standalone="no"?>
<!DOCTYPE svg PUBLIC "-//W3C//DTD SVG 1.1//EN"
 "http://www.w3.org/Graphics/SVG/1.1/DTD/svg11.dtd">
<!-- Generated by graphviz version 2.38.0 (20140413.2041)
 -->
<!-- Title: G Pages: 1 -->
<svg width="10274pt" height="489pt"
 viewBox="0.00 0.00 10274.00 489.00" xmlns="http://www.w3.org/2000/svg" xmlns:xlink="http://www.w3.org/1999/xlink">
<g id="graph0" class="graph" transform="scale(1 1) rotate(0) translate(4 485)">
<title>G</title>
<polygon fill="white" stroke="none" points="-4,4 -4,-485 10270,-485 10270,4 -4,4"/>
<g id="clust1" class="cluster"><title>clusterServerID_3113a7a2a86a</title>
<polygon fill="none" stroke="black" points="8672,-8 8672,-257 10062,-257 10062,-8 8672,-8"/>
<text text-anchor="middle" x="9367" y="-241.8" font-family="Times,serif" font-size="14.00">clusterServerID_3113a7a2a86a</text>
</g>
<g id="clust2" class="cluster"><title>clusterServerID_5f846fd567&#45;srhtc</title>
<polygon fill="none" stroke="black" points="6983,-398 6983,-473 7317,-473 7317,-398 6983,-398"/>
<text text-anchor="middle" x="7150" y="-457.8" font-family="Times,serif" font-size="14.00">clusterServerID_5f846fd567&#45;srhtc</text>
</g>
<g id="clust3" class="cluster"><title>clusterServerID_6df85d7674&#45;grtsk</title>
<polygon fill="none" stroke="black" points="8326,-182 8326,-257 8664,-257 8664,-182 8326,-182"/>
<text text-anchor="middle" x="8495" y="-241.8" font-family="Times,serif" font-size="14.00">clusterServerID_6df85d7674&#45;grtsk</text>
</g>
<g id="clust4" class="cluster"><title>clusterServerID_9c632c9c841a</title>
<polygon fill="none" stroke="black" points="8,-8 8,-473 2190,-473 2190,-8 8,-8"/>
<text text-anchor="middle" x="1099" y="-457.8" font-family="Times,serif" font-size="14.00">clusterServerID_9c632c9c841a</text>
</g>
<g id="clust5" class="cluster"><title>clusterServerID_OuterContainerID</title>
<polygon fill="none" stroke="black" points="2198,-182 2198,-365 8318,-365 8318,-182 2198,-182"/>
<text text-anchor="middle" x="5258" y="-349.8" font-family="Times,serif" font-size="14.00">clusterServerID_OuterContainerID</text>
</g>
<!-- 10.1.80.247:53744#ServerID_OuterContainerID -->
<g id="node1" class="node"><title>10.1.80.247:53744#ServerID_OuterContainerID</title>
<polygon fill="none" stroke="black" points="4609,-334 4273.52,-316 4609,-298 4944.48,-316 4609,-334"/>
<text text-anchor="middle" x="4609" y="-312.3" font-family="Times,serif" font-size="14.00">10.1.80.247:53744#ServerID_OuterContainerID</text>
</g>
<!-- 1_fwatchdog#ServerID_5f846fd567&#45;srhtc -->
<g id="node2" class="node"><title>1_fwatchdog#ServerID_5f846fd567&#45;srhtc</title>
<polygon fill="none" stroke="black" points="7308.5,-442 6991.5,-442 6991.5,-406 7308.5,-406 7308.5,-442"/>
<text text-anchor="middle" x="7150" y="-420.3" font-family="Times,serif" font-size="14.00">1_fwatchdog#ServerID_5f846fd567&#45;srhtc</text>
</g>
<!-- 10.1.80.247:53744#ServerID_OuterContainerID&#45;&gt;1_fwatchdog#ServerID_5f846fd567&#45;srhtc -->
<g id="edge1" class="edge"><title>10.1.80.247:53744#ServerID_OuterContainerID&#45;&gt;1_fwatchdog#ServerID_5f846fd567&#45;srhtc</title>
<path fill="none" stroke="black" d="M4684.45,-329.975C4754.16,-341.373 4860.74,-357.305 4954,-365 5347.01,-397.428 6538.07,-415.313 6981.38,-420.99"/>
<polygon fill="black" stroke="black" points="6981.35,-424.489 6991.39,-421.117 6981.44,-417.49 6981.35,-424.489"/>
<text text-anchor="middle" x="5390" y="-376.8" font-family="Times,serif" font-size="14.00">POST</text>
</g>
<!-- 1_fwatchdog#ServerID_9c632c9c841a -->
<g id="node15" class="node"><title>1_fwatchdog#ServerID_9c632c9c841a</title>
<polygon fill="none" stroke="black" points="2115.5,-442 1818.5,-442 1818.5,-406 2115.5,-406 2115.5,-442"/>
<text text-anchor="middle" x="1967" y="-420.3" font-family="Times,serif" font-size="14.00">1_fwatchdog#ServerID_9c632c9c841a</text>
</g>
<!-- 10.1.80.247:53744#ServerID_OuterContainerID&#45;&gt;1_fwatchdog#ServerID_9c632c9c841a -->
<g id="edge22" class="edge"><title>10.1.80.247:53744#ServerID_OuterContainerID&#45;&gt;1_fwatchdog#ServerID_9c632c9c841a</title>
<path fill="none" stroke="black" d="M4533.56,-330C4463.84,-341.416 4357.27,-357.359 4264,-365 3847.6,-399.114 2574.8,-416.233 2125.83,-421.329"/>
<polygon fill="black" stroke="black" points="2125.66,-417.831 2115.7,-421.443 2125.74,-424.83 2125.66,-417.831"/>
<text text-anchor="middle" x="4135.5" y="-376.8" font-family="Times,serif" font-size="14.00">read</text>
</g>
<!-- 1_fwatchdog#ServerID_5f846fd567&#45;srhtc&#45;&gt;10.1.80.247:53744#ServerID_OuterContainerID -->
<g id="edge2" class="edge"><title>1_fwatchdog#ServerID_5f846fd567&#45;srhtc&#45;&gt;10.1.80.247:53744#ServerID_OuterContainerID</title>
<path fill="none" stroke="black" d="M6991.39,-410.877C6824.44,-398.719 6553.91,-380.725 6320,-373 6168.3,-367.99 5105.39,-375.926 4954,-365 4864.17,-358.517 4762.1,-343.332 4692.43,-331.765"/>
<polygon fill="black" stroke="black" points="4692.83,-328.283 4682.39,-330.086 4691.68,-335.187 4692.83,-328.283"/>
<text text-anchor="middle" x="6682" y="-376.8" font-family="Times,serif" font-size="14.00">RESPONSE</text>
</g>
<!-- 10.1.80.247:53798#ServerID_OuterContainerID -->
<g id="node8" class="node"><title>10.1.80.247:53798#ServerID_OuterContainerID</title>
<polygon fill="none" stroke="black" points="7975,-334 7639.52,-316 7975,-298 8310.48,-316 7975,-334"/>
<text text-anchor="middle" x="7975" y="-312.3" font-family="Times,serif" font-size="14.00">10.1.80.247:53798#ServerID_OuterContainerID</text>
</g>
<!-- 1_fwatchdog#ServerID_5f846fd567&#45;srhtc&#45;&gt;10.1.80.247:53798#ServerID_OuterContainerID -->
<g id="edge11" class="edge"><title>1_fwatchdog#ServerID_5f846fd567&#45;srhtc&#45;&gt;10.1.80.247:53798#ServerID_OuterContainerID</title>
<path fill="none" stroke="black" d="M7296.61,-405.978C7391.7,-394.766 7518.25,-379.524 7630,-365 7714.16,-354.061 7809.74,-340.689 7878.92,-330.84"/>
<polygon fill="black" stroke="black" points="7879.52,-334.29 7888.93,-329.413 7878.53,-327.36 7879.52,-334.29"/>
<text text-anchor="middle" x="7607" y="-376.8" font-family="Times,serif" font-size="14.00">RESPONSE</text>
</g>
<!-- 10.1.80.247:59214#ServerID_OuterContainerID -->
<g id="node3" class="node"><title>10.1.80.247:59214#ServerID_OuterContainerID</title>
<polygon fill="none" stroke="black" points="3920,-334 3584.52,-316 3920,-298 4255.48,-316 3920,-334"/>
<text text-anchor="middle" x="3920" y="-312.3" font-family="Times,serif" font-size="14.00">10.1.80.247:59214#ServerID_OuterContainerID</text>
</g>
<!-- 1_fwatchdog#ServerID_6df85d7674&#45;grtsk -->
<g id="node4" class="node"><title>1_fwatchdog#ServerID_6df85d7674&#45;grtsk</title>
<polygon fill="none" stroke="black" points="8655.5,-226 8334.5,-226 8334.5,-190 8655.5,-190 8655.5,-226"/>
<text text-anchor="middle" x="8495" y="-204.3" font-family="Times,serif" font-size="14.00">1_fwatchdog#ServerID_6df85d7674&#45;grtsk</text>
</g>
<!-- 10.1.80.247:59214#ServerID_OuterContainerID&#45;&gt;1_fwatchdog#ServerID_6df85d7674&#45;grtsk -->
<g id="edge3" class="edge"><title>10.1.80.247:59214#ServerID_OuterContainerID&#45;&gt;1_fwatchdog#ServerID_6df85d7674&#45;grtsk</title>
<path fill="none" stroke="black" d="M4071.05,-306.056C4284.41,-293.909 4686.27,-272.815 5029,-265 5120.45,-262.915 8231.38,-269.451 8322,-257 8361.21,-251.613 8404.08,-239.763 8437.33,-229.185"/>
<polygon fill="black" stroke="black" points="8438.45,-232.503 8446.89,-226.097 8436.3,-225.842 8438.45,-232.503"/>
<text text-anchor="middle" x="5049" y="-268.8" font-family="Times,serif" font-size="14.00">POST</text>
</g>
<!-- 1_fwatchdog#ServerID_3113a7a2a86a -->
<g id="node9" class="node"><title>1_fwatchdog#ServerID_3113a7a2a86a</title>
<polygon fill="none" stroke="black" points="8977.5,-226 8680.5,-226 8680.5,-190 8977.5,-190 8977.5,-226"/>
<text text-anchor="middle" x="8829" y="-204.3" font-family="Times,serif" font-size="14.00">1_fwatchdog#ServerID_3113a7a2a86a</text>
</g>
<!-- 10.1.80.247:59214#ServerID_OuterContainerID&#45;&gt;1_fwatchdog#ServerID_3113a7a2a86a -->
<g id="edge14" class="edge"><title>10.1.80.247:59214#ServerID_OuterContainerID&#45;&gt;1_fwatchdog#ServerID_3113a7a2a86a</title>
<path fill="none" stroke="black" d="M4071.09,-306.095C4131.39,-302.923 4201.46,-299.713 4265,-298 4318.38,-296.561 8059.01,-295.861 8110,-280 8121.3,-276.485 8120.72,-268.573 8132,-265 8160.39,-256.009 8638.56,-261.519 8668,-257 8704.16,-251.449 8743.53,-239.815 8774.29,-229.391"/>
<polygon fill="black" stroke="black" points="8775.65,-232.626 8783.96,-226.059 8773.37,-226.008 8775.65,-232.626"/>
<text text-anchor="middle" x="8148.5" y="-268.8" font-family="Times,serif" font-size="14.00">read</text>
</g>
<!-- 1_fwatchdog#ServerID_6df85d7674&#45;grtsk&#45;&gt;10.1.80.247:59214#ServerID_OuterContainerID -->
<g id="edge8" class="edge"><title>1_fwatchdog#ServerID_6df85d7674&#45;grtsk&#45;&gt;10.1.80.247:59214#ServerID_OuterContainerID</title>
<path fill="none" stroke="black" d="M8446.89,-226.087C8412.57,-237.345 8365.07,-251.065 8322,-257 8253.48,-266.442 5901.16,-264.161 5832,-265 5744.93,-266.057 4352.02,-294.94 4265,-298 4206.77,-300.047 4143.04,-302.99 4086.37,-305.853"/>
<polygon fill="black" stroke="black" points="4086.06,-302.364 4076.25,-306.367 4086.41,-309.355 4086.06,-302.364"/>
<text text-anchor="middle" x="5874" y="-268.8" font-family="Times,serif" font-size="14.00">RESPONSE</text>
</g>
<!-- gateway:8080#ServerID_OuterContainerID -->
<g id="node5" class="node"><title>gateway:8080#ServerID_OuterContainerID</title>
<polygon fill="none" stroke="black" points="7317,-334 7012.52,-316 7317,-298 7621.48,-316 7317,-334"/>
<text text-anchor="middle" x="7317" y="-312.3" font-family="Times,serif" font-size="14.00">gateway:8080#ServerID_OuterContainerID</text>
</g>
<!-- 1_fwatchdog#ServerID_6df85d7674&#45;grtsk&#45;&gt;gateway:8080#ServerID_OuterContainerID -->
<g id="edge4" class="edge"><title>1_fwatchdog#ServerID_6df85d7674&#45;grtsk&#45;&gt;gateway:8080#ServerID_OuterContainerID</title>
<path fill="none" stroke="black" d="M8445.72,-226.064C8411.47,-237.079 8364.52,-250.521 8322,-257 8266.61,-265.439 8125.96,-262.255 8070,-265 7853.81,-275.606 7603.06,-293.346 7452.39,-304.595"/>
<polygon fill="black" stroke="black" points="7451.88,-301.124 7442.16,-305.36 7452.4,-308.104 7451.88,-301.124"/>
<text text-anchor="middle" x="8090" y="-268.8" font-family="Times,serif" font-size="14.00">POST</text>
</g>
<!-- 10.1.80.247:8080#ServerID_OuterContainerID -->
<g id="node6" class="node"><title>10.1.80.247:8080#ServerID_OuterContainerID</title>
<polygon fill="none" stroke="black" points="3239,-334 2911.56,-316 3239,-298 3566.44,-316 3239,-334"/>
<text text-anchor="middle" x="3239" y="-312.3" font-family="Times,serif" font-size="14.00">10.1.80.247:8080#ServerID_OuterContainerID</text>
</g>
<!-- 1_fwatchdog#ServerID_6df85d7674&#45;grtsk&#45;&gt;10.1.80.247:8080#ServerID_OuterContainerID -->
<g id="edge6" class="edge"><title>1_fwatchdog#ServerID_6df85d7674&#45;grtsk&#45;&gt;10.1.80.247:8080#ServerID_OuterContainerID</title>
<path fill="none" stroke="black" d="M8446.89,-226.103C8412.58,-237.369 8365.08,-251.091 8322,-257 8266.33,-264.636 4332.18,-263.621 4276,-265 3962.36,-272.699 3595.82,-293.044 3393.31,-305.278"/>
<polygon fill="black" stroke="black" points="3392.96,-301.793 3383.19,-305.891 3393.39,-308.78 3392.96,-301.793"/>
<text text-anchor="middle" x="4296" y="-268.8" font-family="Times,serif" font-size="14.00">POST</text>
</g>
<!-- 10.1.80.247:59252#ServerID_OuterContainerID -->
<g id="node7" class="node"><title>10.1.80.247:59252#ServerID_OuterContainerID</title>
<polygon fill="none" stroke="black" points="5298,-334 4962.52,-316 5298,-298 5633.48,-316 5298,-334"/>
<text text-anchor="middle" x="5298" y="-312.3" font-family="Times,serif" font-size="14.00">10.1.80.247:59252#ServerID_OuterContainerID</text>
</g>
<!-- 1_fwatchdog#ServerID_6df85d7674&#45;grtsk&#45;&gt;10.1.80.247:59252#ServerID_OuterContainerID -->
<g id="edge12" class="edge"><title>1_fwatchdog#ServerID_6df85d7674&#45;grtsk&#45;&gt;10.1.80.247:59252#ServerID_OuterContainerID</title>
<path fill="none" stroke="black" d="M8446.5,-226.068C8412.21,-237.239 8364.89,-250.863 8322,-257 8257.32,-266.255 7799.33,-264.04 7734,-265 7269.33,-271.828 6107.48,-282.895 5643,-298 5584.2,-299.912 5519.79,-302.856 5462.72,-305.759"/>
<polygon fill="black" stroke="black" points="5462.33,-302.274 5452.52,-306.281 5462.69,-309.265 5462.33,-302.274"/>
<text text-anchor="middle" x="7776" y="-268.8" font-family="Times,serif" font-size="14.00">RESPONSE</text>
</g>
<!-- gateway:8080#ServerID_OuterContainerID&#45;&gt;1_fwatchdog#ServerID_6df85d7674&#45;grtsk -->
<g id="edge5" class="edge"><title>gateway:8080#ServerID_OuterContainerID&#45;&gt;1_fwatchdog#ServerID_6df85d7674&#45;grtsk</title>
<path fill="none" stroke="black" d="M7457.24,-306.253C7511.5,-303.171 7574.12,-299.984 7631,-298 7662.96,-296.885 8759.57,-302.787 8782,-280 8786.68,-275.249 8786.55,-269.876 8782,-265 8773.34,-255.712 8680.51,-259.153 8668,-257 8630.14,-250.487 8588.64,-239.12 8555.77,-229.081"/>
<polygon fill="black" stroke="black" points="8556.45,-225.628 8545.86,-226.016 8554.38,-232.315 8556.45,-225.628"/>
<text text-anchor="middle" x="8828" y="-268.8" font-family="Times,serif" font-size="14.00">RESPONSE</text>
</g>
<!-- 12_node#ServerID_3113a7a2a86a -->
<g id="node12" class="node"><title>12_node#ServerID_3113a7a2a86a</title>
<polygon fill="none" stroke="black" points="10054,-52 9788,-52 9788,-16 10054,-16 10054,-52"/>
<text text-anchor="middle" x="9921" y="-30.3" font-family="Times,serif" font-size="14.00">12_node#ServerID_3113a7a2a86a</text>
</g>
<!-- gateway:8080#ServerID_OuterContainerID&#45;&gt;12_node#ServerID_3113a7a2a86a -->
<g id="edge40" class="edge"><title>gateway:8080#ServerID_OuterContainerID&#45;&gt;12_node#ServerID_3113a7a2a86a</title>
<path fill="none" stroke="black" d="M7455.28,-306.15C7509.98,-303.005 7573.43,-299.801 7631,-298 7770.34,-293.64 10012.2,-312.702 10140,-257 10190.1,-235.145 10207.5,-222.29 10229,-172 10250.6,-121.603 10216.2,-103.986 10155,-70 10138.3,-60.7274 10102.9,-53.5743 10064.6,-48.224"/>
<polygon fill="black" stroke="black" points="10064.6,-44.6978 10054.2,-46.8327 10063.7,-51.6353 10064.6,-44.6978"/>
<text text-anchor="middle" x="10249.5" y="-160.8" font-family="Times,serif" font-size="14.00">read</text>
</g>
<!-- 10.1.80.247:8080#ServerID_OuterContainerID&#45;&gt;1_fwatchdog#ServerID_6df85d7674&#45;grtsk -->
<g id="edge7" class="edge"><title>10.1.80.247:8080#ServerID_OuterContainerID&#45;&gt;1_fwatchdog#ServerID_6df85d7674&#45;grtsk</title>
<path fill="none" stroke="black" d="M3392.47,-306.413C3450.02,-303.415 3516,-300.243 3576,-298 3904.76,-285.712 3987.42,-296.369 4316,-280 4404.59,-275.587 4426.37,-268.429 4515,-265 4620.67,-260.912 8217.23,-271.377 8322,-257 8361.21,-251.62 8404.08,-239.769 8437.33,-229.19"/>
<polygon fill="black" stroke="black" points="8438.45,-232.508 8446.89,-226.102 8436.3,-225.847 8438.45,-232.508"/>
<text text-anchor="middle" x="4557" y="-268.8" font-family="Times,serif" font-size="14.00">RESPONSE</text>
</g>
<!-- 10.1.80.1:48680#ServerID_OuterContainerID -->
<g id="node29" class="node"><title>10.1.80.1:48680#ServerID_OuterContainerID</title>
<polygon fill="none" stroke="black" points="2646,-226 2327.1,-208 2646,-190 2964.9,-208 2646,-226"/>
<text text-anchor="middle" x="2646" y="-204.3" font-family="Times,serif" font-size="14.00">10.1.80.1:48680#ServerID_OuterContainerID</text>
</g>
<!-- 10.1.80.247:8080#ServerID_OuterContainerID&#45;&gt;10.1.80.1:48680#ServerID_OuterContainerID -->
<g id="edge48" class="edge"><title>10.1.80.247:8080#ServerID_OuterContainerID&#45;&gt;10.1.80.1:48680#ServerID_OuterContainerID</title>
<path fill="none" stroke="black" d="M3165.99,-301.949C3054.99,-282.108 2844.45,-244.473 2728.21,-223.696"/>
<polygon fill="black" stroke="black" points="2728.76,-220.238 2718.3,-221.923 2727.53,-227.128 2728.76,-220.238"/>
<text text-anchor="middle" x="3073" y="-268.8" font-family="Times,serif" font-size="14.00">RESPONSE</text>
</g>
<!-- 10.0.88.125:31112#ServerID_OuterContainerID -->
<g id="node30" class="node"><title>10.0.88.125:31112#ServerID_OuterContainerID</title>
<polygon fill="none" stroke="black" points="3974,-226 3638.52,-208 3974,-190 4309.48,-208 3974,-226"/>
<text text-anchor="middle" x="3974" y="-204.3" font-family="Times,serif" font-size="14.00">10.0.88.125:31112#ServerID_OuterContainerID</text>
</g>
<!-- 10.1.80.247:8080#ServerID_OuterContainerID&#45;&gt;10.0.88.125:31112#ServerID_OuterContainerID -->
<g id="edge49" class="edge"><title>10.1.80.247:8080#ServerID_OuterContainerID&#45;&gt;10.0.88.125:31112#ServerID_OuterContainerID</title>
<path fill="none" stroke="black" d="M3324.39,-302.685C3462.28,-282.8 3733.07,-243.746 3877.66,-222.894"/>
<polygon fill="black" stroke="black" points="3878.45,-226.317 3887.84,-221.425 3877.45,-219.388 3878.45,-226.317"/>
<text text-anchor="middle" x="3627" y="-268.8" font-family="Times,serif" font-size="14.00">RESPONSE</text>
</g>
<!-- 10.1.80.1:37689#ServerID_OuterContainerID -->
<g id="node31" class="node"><title>10.1.80.1:37689#ServerID_OuterContainerID</title>
<polygon fill="none" stroke="black" points="3302,-226 2983.1,-208 3302,-190 3620.9,-208 3302,-226"/>
<text text-anchor="middle" x="3302" y="-204.3" font-family="Times,serif" font-size="14.00">10.1.80.1:37689#ServerID_OuterContainerID</text>
</g>
<!-- 10.1.80.247:8080#ServerID_OuterContainerID&#45;&gt;10.1.80.1:37689#ServerID_OuterContainerID -->
<g id="edge51" class="edge"><title>10.1.80.247:8080#ServerID_OuterContainerID&#45;&gt;10.1.80.1:37689#ServerID_OuterContainerID</title>
<path fill="none" stroke="black" d="M3262.09,-299.166C3268.64,-293.734 3275.26,-287.191 3280,-280 3288.71,-266.774 3294.12,-249.913 3297.4,-235.941"/>
<polygon fill="black" stroke="black" points="3300.87,-236.434 3299.51,-225.928 3294.02,-234.992 3300.87,-236.434"/>
<text text-anchor="middle" x="3330" y="-268.8" font-family="Times,serif" font-size="14.00">RESPONSE</text>
</g>
<!-- 10.1.80.247:59252#ServerID_OuterContainerID&#45;&gt;1_fwatchdog#ServerID_6df85d7674&#45;grtsk -->
<g id="edge9" class="edge"><title>10.1.80.247:59252#ServerID_OuterContainerID&#45;&gt;1_fwatchdog#ServerID_6df85d7674&#45;grtsk</title>
<path fill="none" stroke="black" d="M5443.01,-305.745C5639.11,-293.705 5999.78,-273.237 6308,-265 6363.92,-263.505 8266.58,-264.658 8322,-257 8361.2,-251.583 8404.07,-239.732 8437.33,-229.162"/>
<polygon fill="black" stroke="black" points="8438.45,-232.48 8446.89,-226.077 8436.29,-225.819 8438.45,-232.48"/>
<text text-anchor="middle" x="6328" y="-268.8" font-family="Times,serif" font-size="14.00">POST</text>
</g>
<!-- 10.1.80.247:59252#ServerID_OuterContainerID&#45;&gt;1_fwatchdog#ServerID_3113a7a2a86a -->
<g id="edge36" class="edge"><title>10.1.80.247:59252#ServerID_OuterContainerID&#45;&gt;1_fwatchdog#ServerID_3113a7a2a86a</title>
<path fill="none" stroke="black" d="M5449.94,-306.13C5510.05,-302.983 5579.76,-299.783 5643,-298 6765.25,-266.366 7046.7,-309.852 8169,-280 8182.87,-279.631 8654.32,-259.319 8668,-257 8703.68,-250.952 8742.59,-239.492 8773.22,-229.286"/>
<polygon fill="black" stroke="black" points="8774.51,-232.545 8782.86,-226.025 8772.27,-225.914 8774.51,-232.545"/>
<text text-anchor="middle" x="8521.5" y="-268.8" font-family="Times,serif" font-size="14.00">read</text>
</g>
<!-- 10.1.80.247:53798#ServerID_OuterContainerID&#45;&gt;1_fwatchdog#ServerID_5f846fd567&#45;srhtc -->
<g id="edge10" class="edge"><title>10.1.80.247:53798#ServerID_OuterContainerID&#45;&gt;1_fwatchdog#ServerID_5f846fd567&#45;srhtc</title>
<path fill="none" stroke="black" d="M7924.92,-331.339C7865.06,-347.862 7761.59,-374.47 7671,-388 7554.08,-405.463 7421.08,-414.217 7318.73,-418.603"/>
<polygon fill="black" stroke="black" points="7318.45,-415.111 7308.6,-419.027 7318.74,-422.105 7318.45,-415.111"/>
<text text-anchor="middle" x="7767" y="-376.8" font-family="Times,serif" font-size="14.00">POST</text>
</g>
<!-- 10.1.80.247:53798#ServerID_OuterContainerID&#45;&gt;1_fwatchdog#ServerID_9c632c9c841a -->
<g id="edge39" class="edge"><title>10.1.80.247:53798#ServerID_OuterContainerID&#45;&gt;1_fwatchdog#ServerID_9c632c9c841a</title>
<path fill="none" stroke="black" d="M7901.61,-330.084C7831.97,-341.815 7724.24,-358.194 7630,-365 7480.72,-375.78 6432.66,-371.264 6283,-373 5896.75,-377.48 5800.24,-382.706 5414,-388 4146.18,-405.378 2615.95,-417.964 2125.99,-421.787"/>
<polygon fill="black" stroke="black" points="2125.64,-418.29 2115.67,-421.868 2125.7,-425.29 2125.64,-418.29"/>
<text text-anchor="middle" x="6299.5" y="-376.8" font-family="Times,serif" font-size="14.00">read</text>
</g>
<!-- localhost:3000#ServerID_3113a7a2a86a -->
<g id="node10" class="node"><title>localhost:3000#ServerID_3113a7a2a86a</title>
<polygon fill="none" stroke="black" points="8966,-139 8680.28,-121 8966,-103 9251.72,-121 8966,-139"/>
<text text-anchor="middle" x="8966" y="-117.3" font-family="Times,serif" font-size="14.00">localhost:3000#ServerID_3113a7a2a86a</text>
</g>
<!-- 1_fwatchdog#ServerID_3113a7a2a86a&#45;&gt;localhost:3000#ServerID_3113a7a2a86a -->
<g id="edge13" class="edge"><title>1_fwatchdog#ServerID_3113a7a2a86a&#45;&gt;localhost:3000#ServerID_3113a7a2a86a</title>
<path fill="none" stroke="black" d="M8823.08,-189.538C8820.7,-179.056 8819.95,-166.045 8827,-157 8833.8,-148.28 8852.62,-141.397 8874.3,-136.126"/>
<polygon fill="black" stroke="black" points="8875.12,-139.53 8884.09,-133.891 8873.56,-132.706 8875.12,-139.53"/>
<text text-anchor="middle" x="8846" y="-160.8" font-family="Times,serif" font-size="14.00">write</text>
</g>
<!-- 1_fwatchdog#ServerID_3113a7a2a86a&#45;&gt;localhost:3000#ServerID_3113a7a2a86a -->
<g id="edge34" class="edge"><title>1_fwatchdog#ServerID_3113a7a2a86a&#45;&gt;localhost:3000#ServerID_3113a7a2a86a</title>
<path fill="none" stroke="black" d="M8846.56,-189.823C8857.79,-179.448 8873.01,-166.45 8888,-157 8897.42,-151.062 8908.02,-145.598 8918.3,-140.84"/>
<polygon fill="black" stroke="black" points="8919.9,-143.956 8927.6,-136.676 8917.04,-137.567 8919.9,-143.956"/>
<text text-anchor="middle" x="8917" y="-160.8" font-family="Times,serif" font-size="14.00">connect</text>
</g>
<!-- localhost:3000#ServerID_3113a7a2a86a&#45;&gt;1_fwatchdog#ServerID_3113a7a2a86a -->
<g id="edge35" class="edge"><title>localhost:3000#ServerID_3113a7a2a86a&#45;&gt;1_fwatchdog#ServerID_3113a7a2a86a</title>
<path fill="none" stroke="black" d="M8963.12,-139.005C8960.44,-149.847 8955.39,-163.422 8946,-172 8940.41,-177.114 8934.09,-181.482 8927.37,-185.212"/>
<polygon fill="black" stroke="black" points="8925.35,-182.308 8917.98,-189.915 8928.48,-188.567 8925.35,-182.308"/>
<text text-anchor="middle" x="8973.5" y="-160.8" font-family="Times,serif" font-size="14.00">read</text>
</g>
<!-- localhost:3000#ServerID_3113a7a2a86a&#45;&gt;12_node#ServerID_3113a7a2a86a -->
<g id="edge17" class="edge"><title>localhost:3000#ServerID_3113a7a2a86a&#45;&gt;12_node#ServerID_3113a7a2a86a</title>
<path fill="none" stroke="black" d="M9077.89,-110.041C9251.73,-94.5689 9586.52,-64.7702 9777.77,-47.7481"/>
<polygon fill="black" stroke="black" points="9778.25,-51.2197 9787.9,-46.8468 9777.63,-44.2473 9778.25,-51.2197"/>
<text text-anchor="middle" x="9516.5" y="-73.8" font-family="Times,serif" font-size="14.00">read</text>
</g>
<!-- /etc/hosts#ServerID_3113a7a2a86a -->
<g id="node11" class="node"><title>/etc/hosts#ServerID_3113a7a2a86a</title>
<ellipse fill="none" stroke="black" cx="9449" cy="-121" rx="178.969" ry="18"/>
<text text-anchor="middle" x="9449" y="-117.3" font-family="Times,serif" font-size="14.00">/etc/hosts#ServerID_3113a7a2a86a</text>
</g>
<!-- /etc/hosts#ServerID_3113a7a2a86a&#45;&gt;12_node#ServerID_3113a7a2a86a -->
<g id="edge15" class="edge"><title>/etc/hosts#ServerID_3113a7a2a86a&#45;&gt;12_node#ServerID_3113a7a2a86a</title>
<path fill="none" stroke="black" d="M9532.03,-105.048C9611.16,-90.7975 9730.61,-69.2859 9816.25,-53.8634"/>
<polygon fill="black" stroke="black" points="9817.04,-57.278 9826.26,-52.061 9815.8,-50.3888 9817.04,-57.278"/>
<text text-anchor="middle" x="9729.5" y="-73.8" font-family="Times,serif" font-size="14.00">read</text>
</g>
<!-- 12_node#ServerID_3113a7a2a86a&#45;&gt;gateway:8080#ServerID_OuterContainerID -->
<g id="edge20" class="edge"><title>12_node#ServerID_3113a7a2a86a&#45;&gt;gateway:8080#ServerID_OuterContainerID</title>
<path fill="none" stroke="black" d="M10054.1,-45.5818C10089.2,-50.8093 10120.9,-58.5573 10134,-70 10198.3,-125.999 10167.8,-219.877 10091,-257 10029.5,-286.75 7699.3,-295.657 7631,-298 7577.55,-299.833 7519.02,-302.753 7467.13,-305.659"/>
<polygon fill="black" stroke="black" points="7466.63,-302.182 7456.84,-306.24 7467.03,-309.171 7466.63,-302.182"/>
<text text-anchor="middle" x="10196" y="-160.8" font-family="Times,serif" font-size="14.00">connect</text>
</g>
<!-- 10.152.183.10:53#ServerID_OuterContainerID -->
<g id="node14" class="node"><title>10.152.183.10:53#ServerID_OuterContainerID</title>
<polygon fill="none" stroke="black" points="6668,-334 6340.56,-316 6668,-298 6995.44,-316 6668,-334"/>
<text text-anchor="middle" x="6668" y="-312.3" font-family="Times,serif" font-size="14.00">10.152.183.10:53#ServerID_OuterContainerID</text>
</g>
<!-- 12_node#ServerID_3113a7a2a86a&#45;&gt;10.152.183.10:53#ServerID_OuterContainerID -->
<g id="edge18" class="edge"><title>12_node#ServerID_3113a7a2a86a&#45;&gt;10.152.183.10:53#ServerID_OuterContainerID</title>
<path fill="none" stroke="black" d="M9978.23,-52.03C10030.8,-70.4799 10095.9,-102.253 10063,-139 10022.8,-183.82 9045.94,-251.473 8986,-257 8849.75,-269.564 8815.7,-274.151 8679,-280 7935.19,-311.826 7748.14,-275.186 7004,-298 6946.43,-299.765 6883.36,-302.693 6827.56,-305.626"/>
<polygon fill="black" stroke="black" points="6827.03,-302.149 6817.23,-306.173 6827.4,-309.139 6827.03,-302.149"/>
<text text-anchor="middle" x="10027.5" y="-160.8" font-family="Times,serif" font-size="14.00">sendto</text>
</g>
<!-- /etc/resolv.conf#ServerID_3113a7a2a86a -->
<g id="node13" class="node"><title>/etc/resolv.conf#ServerID_3113a7a2a86a</title>
<ellipse fill="none" stroke="black" cx="9850" cy="-121" rx="204.164" ry="18"/>
<text text-anchor="middle" x="9850" y="-117.3" font-family="Times,serif" font-size="14.00">/etc/resolv.conf#ServerID_3113a7a2a86a</text>
</g>
<!-- /etc/resolv.conf#ServerID_3113a7a2a86a&#45;&gt;12_node#ServerID_3113a7a2a86a -->
<g id="edge16" class="edge"><title>/etc/resolv.conf#ServerID_3113a7a2a86a&#45;&gt;12_node#ServerID_3113a7a2a86a</title>
<path fill="none" stroke="black" d="M9864.37,-102.799C9874.67,-90.4713 9888.69,-73.6787 9900.21,-59.8902"/>
<polygon fill="black" stroke="black" points="9902.93,-62.094 9906.65,-52.1754 9897.56,-57.6065 9902.93,-62.094"/>
<text text-anchor="middle" x="9905.5" y="-73.8" font-family="Times,serif" font-size="14.00">read</text>
</g>
<!-- 10.152.183.10:53#ServerID_OuterContainerID&#45;&gt;12_node#ServerID_3113a7a2a86a -->
<g id="edge19" class="edge"><title>10.152.183.10:53#ServerID_OuterContainerID&#45;&gt;12_node#ServerID_3113a7a2a86a</title>
<path fill="none" stroke="black" d="M6816.81,-306.172C6875.16,-303.05 6942.7,-299.857 7004,-298 7541.39,-281.724 8887.32,-302.794 9423,-257 9705.83,-232.822 9810.79,-315.003 10056,-172 10084.2,-155.568 10093.5,-133.135 10081,-103 10073.1,-83.8371 10065.9,-80.4347 10048,-70 10038.2,-64.3047 10027.5,-59.5033 10016.5,-55.463"/>
<polygon fill="black" stroke="black" points="10017.4,-52.0746 10006.8,-52.1051 10015.1,-58.6882 10017.4,-52.0746"/>
<text text-anchor="middle" x="10107" y="-160.8" font-family="Times,serif" font-size="14.00">recvfrom</text>
</g>
<!-- 10_node#ServerID_9c632c9c841a -->
<g id="node17" class="node"><title>10_node#ServerID_9c632c9c841a</title>
<polygon fill="none" stroke="black" points="2038,-226 1772,-226 1772,-190 2038,-190 2038,-226"/>
<text text-anchor="middle" x="1905" y="-204.3" font-family="Times,serif" font-size="14.00">10_node#ServerID_9c632c9c841a</text>
</g>
<!-- 10.152.183.10:53#ServerID_OuterContainerID&#45;&gt;10_node#ServerID_9c632c9c841a -->
<g id="edge27" class="edge"><title>10.152.183.10:53#ServerID_OuterContainerID&#45;&gt;10_node#ServerID_9c632c9c841a</title>
<path fill="none" stroke="black" d="M6520.42,-306.095C6461.52,-302.922 6393.07,-299.713 6331,-298 6226.48,-295.115 2669,-302.976 2567,-280 2551.68,-276.548 2550.29,-268.595 2535,-265 2498.11,-256.327 2231.73,-260.558 2194,-257 2128.2,-250.795 2054.73,-238.521 1998.34,-227.939"/>
<polygon fill="black" stroke="black" points="1998.85,-224.473 1988.37,-226.053 1997.55,-231.351 1998.85,-224.473"/>
<text text-anchor="middle" x="2600" y="-268.8" font-family="Times,serif" font-size="14.00">recvfrom</text>
</g>
<!-- localhost:3000#ServerID_9c632c9c841a -->
<g id="node16" class="node"><title>localhost:3000#ServerID_9c632c9c841a</title>
<polygon fill="none" stroke="black" points="1896,-334 1610.28,-316 1896,-298 2181.72,-316 1896,-334"/>
<text text-anchor="middle" x="1896" y="-312.3" font-family="Times,serif" font-size="14.00">localhost:3000#ServerID_9c632c9c841a</text>
</g>
<!-- 1_fwatchdog#ServerID_9c632c9c841a&#45;&gt;localhost:3000#ServerID_9c632c9c841a -->
<g id="edge21" class="edge"><title>1_fwatchdog#ServerID_9c632c9c841a&#45;&gt;localhost:3000#ServerID_9c632c9c841a</title>
<path fill="none" stroke="black" d="M1886.03,-405.887C1878.23,-401.263 1871.27,-395.408 1866,-388 1855.88,-373.783 1863.86,-355.627 1874.12,-341.234"/>
<polygon fill="black" stroke="black" points="1876.94,-343.3 1880.3,-333.252 1871.41,-339.012 1876.94,-343.3"/>
<text text-anchor="middle" x="1885" y="-376.8" font-family="Times,serif" font-size="14.00">write</text>
</g>
<!-- 1_fwatchdog#ServerID_9c632c9c841a&#45;&gt;localhost:3000#ServerID_9c632c9c841a -->
<g id="edge38" class="edge"><title>1_fwatchdog#ServerID_9c632c9c841a&#45;&gt;localhost:3000#ServerID_9c632c9c841a</title>
<path fill="none" stroke="black" d="M1940.65,-405.797C1934.24,-400.664 1927.84,-394.62 1923,-388 1913.36,-374.806 1906.72,-357.748 1902.44,-343.66"/>
<polygon fill="black" stroke="black" points="1905.81,-342.703 1899.74,-334.023 1899.07,-344.597 1905.81,-342.703"/>
<text text-anchor="middle" x="1952" y="-376.8" font-family="Times,serif" font-size="14.00">connect</text>
</g>
<!-- pipe:[240002549]#ServerID_9c632c9c841a -->
<g id="node22" class="node"><title>pipe:[240002549]#ServerID_9c632c9c841a</title>
<ellipse fill="none" stroke="black" cx="1376" cy="-316" rx="215.562" ry="18"/>
<text text-anchor="middle" x="1376" y="-312.3" font-family="Times,serif" font-size="14.00">pipe:[240002549]#ServerID_9c632c9c841a</text>
</g>
<!-- 1_fwatchdog#ServerID_9c632c9c841a&#45;&gt;pipe:[240002549]#ServerID_9c632c9c841a -->
<g id="edge33" class="edge"><title>1_fwatchdog#ServerID_9c632c9c841a&#45;&gt;pipe:[240002549]#ServerID_9c632c9c841a</title>
<path fill="none" stroke="black" d="M1849.29,-405.967C1777.4,-395.163 1683.7,-380.363 1601,-365 1552.82,-356.05 1499.14,-344.653 1456.3,-335.211"/>
<polygon fill="black" stroke="black" points="1457.01,-331.784 1446.49,-333.042 1455.5,-338.619 1457.01,-331.784"/>
<text text-anchor="middle" x="1751" y="-376.8" font-family="Times,serif" font-size="14.00">write</text>
</g>
<!-- localhost:3000#ServerID_9c632c9c841a&#45;&gt;1_fwatchdog#ServerID_9c632c9c841a -->
<g id="edge32" class="edge"><title>localhost:3000#ServerID_9c632c9c841a&#45;&gt;1_fwatchdog#ServerID_9c632c9c841a</title>
<path fill="none" stroke="black" d="M1936.16,-331.609C1954.53,-340.546 1974.5,-353.983 1985,-373 1989.06,-380.349 1987.96,-388.792 1984.85,-396.621"/>
<polygon fill="black" stroke="black" points="1981.63,-395.244 1980.28,-405.753 1987.89,-398.377 1981.63,-395.244"/>
<text text-anchor="middle" x="2004.5" y="-376.8" font-family="Times,serif" font-size="14.00">read</text>
</g>
<!-- localhost:3000#ServerID_9c632c9c841a&#45;&gt;10_node#ServerID_9c632c9c841a -->
<g id="edge23" class="edge"><title>localhost:3000#ServerID_9c632c9c841a&#45;&gt;10_node#ServerID_9c632c9c841a</title>
<path fill="none" stroke="black" d="M1897.45,-297.969C1898.85,-281.378 1901.02,-255.883 1902.67,-236.431"/>
<polygon fill="black" stroke="black" points="1906.17,-236.601 1903.53,-226.341 1899.19,-236.009 1906.17,-236.601"/>
<text text-anchor="middle" x="1917.5" y="-268.8" font-family="Times,serif" font-size="14.00">read</text>
</g>
<!-- 10_node#ServerID_9c632c9c841a&#45;&gt;10.152.183.10:53#ServerID_OuterContainerID -->
<g id="edge26" class="edge"><title>10_node#ServerID_9c632c9c841a&#45;&gt;10.152.183.10:53#ServerID_OuterContainerID</title>
<path fill="none" stroke="black" d="M1987.74,-226.053C2045.3,-237.102 2123.98,-250.588 2194,-257 2390.1,-274.958 2440.61,-250.573 2637,-265 2688.85,-268.808 2701.13,-276.529 2753,-280 3149.67,-306.543 5933.59,-286.982 6331,-298 6389.56,-299.623 6453.79,-302.572 6510.32,-305.564"/>
<polygon fill="black" stroke="black" points="6510.25,-309.065 6520.42,-306.103 6510.62,-302.074 6510.25,-309.065"/>
<text text-anchor="middle" x="2777.5" y="-268.8" font-family="Times,serif" font-size="14.00">sendto</text>
</g>
<!-- 10.152.183.73:8888#ServerID_OuterContainerID -->
<g id="node20" class="node"><title>10.152.183.73:8888#ServerID_OuterContainerID</title>
<polygon fill="none" stroke="black" points="2550,-334 2206.47,-316 2550,-298 2893.53,-316 2550,-334"/>
<text text-anchor="middle" x="2550" y="-312.3" font-family="Times,serif" font-size="14.00">10.152.183.73:8888#ServerID_OuterContainerID</text>
</g>
<!-- 10_node#ServerID_9c632c9c841a&#45;&gt;10.152.183.73:8888#ServerID_OuterContainerID -->
<g id="edge28" class="edge"><title>10_node#ServerID_9c632c9c841a&#45;&gt;10.152.183.73:8888#ServerID_OuterContainerID</title>
<path fill="none" stroke="black" d="M1989.75,-226.046C2067.01,-241.279 2184.41,-263.651 2287,-280 2337.64,-288.071 2393.98,-295.741 2441.48,-301.833"/>
<polygon fill="black" stroke="black" points="2441.11,-305.315 2451.47,-303.109 2442,-298.371 2441.11,-305.315"/>
<text text-anchor="middle" x="2316" y="-268.8" font-family="Times,serif" font-size="14.00">connect</text>
</g>
<!-- 10_node#ServerID_9c632c9c841a&#45;&gt;10.152.183.73:8888#ServerID_OuterContainerID -->
<g id="edge29" class="edge"><title>10_node#ServerID_9c632c9c841a&#45;&gt;10.152.183.73:8888#ServerID_OuterContainerID</title>
<path fill="none" stroke="black" d="M1991.91,-226.038C2049.11,-236.606 2125.74,-249.547 2194,-257 2260.81,-264.295 2278.51,-255.217 2345,-265 2395.22,-272.389 2451.14,-286.43 2491.87,-297.755"/>
<polygon fill="black" stroke="black" points="2491.05,-301.16 2501.63,-300.496 2492.95,-294.421 2491.05,-301.16"/>
<text text-anchor="middle" x="2438" y="-268.8" font-family="Times,serif" font-size="14.00">write</text>
</g>
<!-- /home/app/sqldump.sh#ServerID_9c632c9c841a -->
<g id="node21" class="node"><title>/home/app/sqldump.sh#ServerID_9c632c9c841a</title>
<ellipse fill="none" stroke="black" cx="1494" cy="-121" rx="238.558" ry="18"/>
<text text-anchor="middle" x="1494" y="-117.3" font-family="Times,serif" font-size="14.00">/home/app/sqldump.sh#ServerID_9c632c9c841a</text>
</g>
<!-- 10_node#ServerID_9c632c9c841a&#45;&gt;/home/app/sqldump.sh#ServerID_9c632c9c841a -->
<g id="edge31" class="edge"><title>10_node#ServerID_9c632c9c841a&#45;&gt;/home/app/sqldump.sh#ServerID_9c632c9c841a</title>
<path fill="none" stroke="black" d="M1822.32,-189.901C1752.47,-175.455 1652.72,-154.825 1581.53,-140.101"/>
<polygon fill="black" stroke="black" points="1582.18,-136.662 1571.68,-138.064 1580.76,-143.517 1582.18,-136.662"/>
<text text-anchor="middle" x="1744" y="-160.8" font-family="Times,serif" font-size="14.00">write</text>
</g>
<!-- pipe:[240003687]#ServerID_9c632c9c841a -->
<g id="node27" class="node"><title>pipe:[240003687]#ServerID_9c632c9c841a</title>
<ellipse fill="none" stroke="black" cx="1022" cy="-121" rx="215.562" ry="18"/>
<text text-anchor="middle" x="1022" y="-117.3" font-family="Times,serif" font-size="14.00">pipe:[240003687]#ServerID_9c632c9c841a</text>
</g>
<!-- 10_node#ServerID_9c632c9c841a&#45;&gt;pipe:[240003687]#ServerID_9c632c9c841a -->
<g id="edge45" class="edge"><title>10_node#ServerID_9c632c9c841a&#45;&gt;pipe:[240003687]#ServerID_9c632c9c841a</title>
<path fill="none" stroke="black" d="M1771.88,-193.207C1672.04,-182.952 1531.99,-168.76 1409,-157 1331.87,-149.625 1246.05,-141.823 1174.87,-135.461"/>
<polygon fill="black" stroke="black" points="1174.75,-131.936 1164.48,-134.533 1174.12,-138.908 1174.75,-131.936"/>
<text text-anchor="middle" x="1579" y="-160.8" font-family="Times,serif" font-size="14.00">write</text>
</g>
<!-- pipe:[240003688]#ServerID_9c632c9c841a -->
<g id="node28" class="node"><title>pipe:[240003688]#ServerID_9c632c9c841a</title>
<ellipse fill="none" stroke="black" cx="1966" cy="-121" rx="215.562" ry="18"/>
<text text-anchor="middle" x="1966" y="-117.3" font-family="Times,serif" font-size="14.00">pipe:[240003688]#ServerID_9c632c9c841a</text>
</g>
<!-- 10_node#ServerID_9c632c9c841a&#45;&gt;pipe:[240003688]#ServerID_9c632c9c841a -->
<g id="edge44" class="edge"><title>10_node#ServerID_9c632c9c841a&#45;&gt;pipe:[240003688]#ServerID_9c632c9c841a</title>
<path fill="none" stroke="black" d="M1901.33,-189.658C1900.11,-179.472 1900.28,-166.731 1906,-157 1908.64,-152.502 1912.11,-148.524 1916.04,-145.02"/>
<polygon fill="black" stroke="black" points="1918.28,-147.715 1924.08,-138.852 1914.02,-142.16 1918.28,-147.715"/>
<text text-anchor="middle" x="1925" y="-160.8" font-family="Times,serif" font-size="14.00">write</text>
</g>
<!-- /etc/hosts#ServerID_9c632c9c841a -->
<g id="node18" class="node"><title>/etc/hosts#ServerID_9c632c9c841a</title>
<ellipse fill="none" stroke="black" cx="963" cy="-316" rx="178.969" ry="18"/>
<text text-anchor="middle" x="963" y="-312.3" font-family="Times,serif" font-size="14.00">/etc/hosts#ServerID_9c632c9c841a</text>
</g>
<!-- /etc/hosts#ServerID_9c632c9c841a&#45;&gt;10_node#ServerID_9c632c9c841a -->
<g id="edge24" class="edge"><title>/etc/hosts#ServerID_9c632c9c841a&#45;&gt;10_node#ServerID_9c632c9c841a</title>
<path fill="none" stroke="black" d="M1077.57,-302.108C1249.57,-282.753 1574.3,-246.213 1761.73,-225.122"/>
<polygon fill="black" stroke="black" points="1762.39,-228.57 1771.93,-223.974 1761.6,-221.614 1762.39,-228.57"/>
<text text-anchor="middle" x="1422.5" y="-268.8" font-family="Times,serif" font-size="14.00">read</text>
</g>
<!-- /etc/resolv.conf#ServerID_9c632c9c841a -->
<g id="node19" class="node"><title>/etc/resolv.conf#ServerID_9c632c9c841a</title>
<ellipse fill="none" stroke="black" cx="562" cy="-316" rx="204.164" ry="18"/>
<text text-anchor="middle" x="562" y="-312.3" font-family="Times,serif" font-size="14.00">/etc/resolv.conf#ServerID_9c632c9c841a</text>
</g>
<!-- /etc/resolv.conf#ServerID_9c632c9c841a&#45;&gt;10_node#ServerID_9c632c9c841a -->
<g id="edge25" class="edge"><title>/etc/resolv.conf#ServerID_9c632c9c841a&#45;&gt;10_node#ServerID_9c632c9c841a</title>
<path fill="none" stroke="black" d="M707.512,-303.366C730.106,-301.565 753.181,-299.73 775,-298 1129.83,-269.866 1547.37,-237.058 1761.86,-220.226"/>
<polygon fill="black" stroke="black" points="1762.22,-223.708 1771.92,-219.436 1761.68,-216.729 1762.22,-223.708"/>
<text text-anchor="middle" x="1195.5" y="-268.8" font-family="Times,serif" font-size="14.00">read</text>
</g>
<!-- 10.152.183.73:8888#ServerID_OuterContainerID&#45;&gt;10_node#ServerID_9c632c9c841a -->
<g id="edge30" class="edge"><title>10.152.183.73:8888#ServerID_OuterContainerID&#45;&gt;10_node#ServerID_9c632c9c841a</title>
<path fill="none" stroke="black" d="M2528.63,-299.074C2511.37,-287.213 2485.93,-271.924 2461,-265 2432.4,-257.058 2223.54,-259.882 2194,-257 2128.46,-250.605 2055.29,-238.4 1998.97,-227.898"/>
<polygon fill="black" stroke="black" points="1999.49,-224.434 1989.02,-226.027 1998.2,-231.314 1999.49,-224.434"/>
<text text-anchor="middle" x="2514.5" y="-268.8" font-family="Times,serif" font-size="14.00">read</text>
</g>
<!-- 113_sqldump.sh#ServerID_9c632c9c841a -->
<g id="node26" class="node"><title>113_sqldump.sh#ServerID_9c632c9c841a</title>
<polygon fill="none" stroke="black" points="1655.5,-52 1332.5,-52 1332.5,-16 1655.5,-16 1655.5,-52"/>
<text text-anchor="middle" x="1494" y="-30.3" font-family="Times,serif" font-size="14.00">113_sqldump.sh#ServerID_9c632c9c841a</text>
</g>
<!-- /home/app/sqldump.sh#ServerID_9c632c9c841a&#45;&gt;113_sqldump.sh#ServerID_9c632c9c841a -->
<g id="edge42" class="edge"><title>/home/app/sqldump.sh#ServerID_9c632c9c841a&#45;&gt;113_sqldump.sh#ServerID_9c632c9c841a</title>
<path fill="none" stroke="black" d="M1494,-102.799C1494,-91.1626 1494,-75.5479 1494,-62.2368"/>
<polygon fill="black" stroke="black" points="1497.5,-62.1754 1494,-52.1754 1490.5,-62.1755 1497.5,-62.1754"/>
<text text-anchor="middle" x="1510.5" y="-73.8" font-family="Times,serif" font-size="14.00">read</text>
</g>
<!-- 10.1.80.247:59262#ServerID_OuterContainerID -->
<g id="node23" class="node"><title>10.1.80.247:59262#ServerID_OuterContainerID</title>
<polygon fill="none" stroke="black" points="5987,-334 5651.52,-316 5987,-298 6322.48,-316 5987,-334"/>
<text text-anchor="middle" x="5987" y="-312.3" font-family="Times,serif" font-size="14.00">10.1.80.247:59262#ServerID_OuterContainerID</text>
</g>
<!-- 10.1.80.247:59262#ServerID_OuterContainerID&#45;&gt;1_fwatchdog#ServerID_3113a7a2a86a -->
<g id="edge37" class="edge"><title>10.1.80.247:59262#ServerID_OuterContainerID&#45;&gt;1_fwatchdog#ServerID_3113a7a2a86a</title>
<path fill="none" stroke="black" d="M6139.37,-306.139C6199.38,-303.004 6268.91,-299.809 6332,-298 6579.35,-290.909 8312.99,-306.678 8559,-280 8634.08,-271.859 8717.78,-247.329 8771.8,-229.374"/>
<polygon fill="black" stroke="black" points="8773.16,-232.607 8781.53,-226.103 8770.93,-225.971 8773.16,-232.607"/>
<text text-anchor="middle" x="8658.5" y="-268.8" font-family="Times,serif" font-size="14.00">read</text>
</g>
<!-- /etc/localtime#ServerID_9c632c9c841a -->
<g id="node24" class="node"><title>/etc/localtime#ServerID_9c632c9c841a</title>
<ellipse fill="none" stroke="black" cx="213" cy="-424" rx="196.865" ry="18"/>
<text text-anchor="middle" x="213" y="-420.3" font-family="Times,serif" font-size="14.00">/etc/localtime#ServerID_9c632c9c841a</text>
</g>
<!-- 114_mysqldump#ServerID_9c632c9c841a -->
<g id="node25" class="node"><title>114_mysqldump#ServerID_9c632c9c841a</title>
<polygon fill="none" stroke="black" points="339.5,-334 16.5,-334 16.5,-298 339.5,-298 339.5,-334"/>
<text text-anchor="middle" x="178" y="-312.3" font-family="Times,serif" font-size="14.00">114_mysqldump#ServerID_9c632c9c841a</text>
</g>
<!-- /etc/localtime#ServerID_9c632c9c841a&#45;&gt;114_mysqldump#ServerID_9c632c9c841a -->
<g id="edge41" class="edge"><title>/etc/localtime#ServerID_9c632c9c841a&#45;&gt;114_mysqldump#ServerID_9c632c9c841a</title>
<path fill="none" stroke="black" d="M207.377,-405.969C201.848,-389.224 193.324,-363.41 186.879,-343.892"/>
<polygon fill="black" stroke="black" points="190.185,-342.739 183.726,-334.341 183.538,-344.934 190.185,-342.739"/>
<text text-anchor="middle" x="217.5" y="-376.8" font-family="Times,serif" font-size="14.00">read</text>
</g>
<!-- pipe:[240003687]#ServerID_9c632c9c841a&#45;&gt;10_node#ServerID_9c632c9c841a -->
<g id="edge43" class="edge"><title>pipe:[240003687]#ServerID_9c632c9c841a&#45;&gt;10_node#ServerID_9c632c9c841a</title>
<path fill="none" stroke="black" d="M1116.05,-137.224C1187.25,-148.277 1287.56,-162.841 1376,-172 1506.26,-185.49 1655.14,-194.796 1761.7,-200.403"/>
<polygon fill="black" stroke="black" points="1761.71,-203.908 1771.88,-200.934 1762.08,-196.917 1761.71,-203.908"/>
<text text-anchor="middle" x="1392.5" y="-160.8" font-family="Times,serif" font-size="14.00">read</text>
</g>
<!-- pipe:[240003688]#ServerID_9c632c9c841a&#45;&gt;10_node#ServerID_9c632c9c841a -->
<g id="edge46" class="edge"><title>pipe:[240003688]#ServerID_9c632c9c841a&#45;&gt;10_node#ServerID_9c632c9c841a</title>
<path fill="none" stroke="black" d="M1960.51,-139.158C1956.79,-149.278 1951.23,-162.016 1944,-172 1941.28,-175.748 1938.11,-179.389 1934.76,-182.817"/>
<polygon fill="black" stroke="black" points="1932.11,-180.511 1927.27,-189.94 1936.93,-185.583 1932.11,-180.511"/>
<text text-anchor="middle" x="1969.5" y="-160.8" font-family="Times,serif" font-size="14.00">read</text>
</g>
<!-- 10.1.80.1:48680#ServerID_OuterContainerID&#45;&gt;10.1.80.247:8080#ServerID_OuterContainerID -->
<g id="edge47" class="edge"><title>10.1.80.1:48680#ServerID_OuterContainerID&#45;&gt;10.1.80.247:8080#ServerID_OuterContainerID</title>
<path fill="none" stroke="black" d="M2682.61,-224.08C2724.49,-240.649 2795.48,-266.674 2859,-280 2922.55,-293.332 2993.13,-301.586 3056.05,-306.696"/>
<polygon fill="black" stroke="black" points="3055.84,-310.19 3066.08,-307.489 3056.39,-303.211 3055.84,-310.19"/>
<text text-anchor="middle" x="2879" y="-268.8" font-family="Times,serif" font-size="14.00">POST</text>
</g>
<!-- 10.1.80.1:37689#ServerID_OuterContainerID&#45;&gt;10.1.80.247:8080#ServerID_OuterContainerID -->
<g id="edge50" class="edge"><title>10.1.80.1:37689#ServerID_OuterContainerID&#45;&gt;10.1.80.247:8080#ServerID_OuterContainerID</title>
<path fill="none" stroke="black" d="M3276.46,-224.562C3262.97,-234.329 3247.65,-248.242 3240,-265 3236.78,-272.06 3235.68,-280.284 3235.63,-288"/>
<polygon fill="black" stroke="black" points="3232.13,-288.218 3236.08,-298.048 3239.12,-287.899 3232.13,-288.218"/>
<text text-anchor="middle" x="3260" y="-268.8" font-family="Times,serif" font-size="14.00">POST</text>
</g>
</g>
</svg>
