<?xml version="1.0" encoding="UTF-8" standalone="no"?>
<!DOCTYPE svg PUBLIC "-//W3C//DTD SVG 1.1//EN"
 "http://www.w3.org/Graphics/SVG/1.1/DTD/svg11.dtd">
<!-- Generated by graphviz version 2.38.0 (20140413.2041)
 -->
<!-- Title: G Pages: 1 -->
<svg width="9023pt" height="489pt"
 viewBox="0.00 0.00 9023.00 489.00" xmlns="http://www.w3.org/2000/svg" xmlns:xlink="http://www.w3.org/1999/xlink">
<g id="graph0" class="graph" transform="scale(1 1) rotate(0) translate(4 485)">
<title>G</title>
<polygon fill="white" stroke="none" points="-4,4 -4,-485 9019,-485 9019,4 -4,4"/>
<g id="clust1" class="cluster"><title>clusterServerID_34e86192c217</title>
<polygon fill="none" stroke="black" points="5429,-95 5429,-473 6825,-473 6825,-95 5429,-95"/>
<text text-anchor="middle" x="6127" y="-457.8" font-family="Times,serif" font-size="14.00">clusterServerID_34e86192c217</text>
</g>
<g id="clust2" class="cluster"><title>clusterServerID_6df85d7674&#45;2kqrj</title>
<polygon fill="none" stroke="black" points="824,-398 824,-473 1162,-473 1162,-398 824,-398"/>
<text text-anchor="middle" x="993" y="-457.8" font-family="Times,serif" font-size="14.00">clusterServerID_6df85d7674&#45;2kqrj</text>
</g>
<g id="clust3" class="cluster"><title>clusterServerID_76c96688d7&#45;8jks8</title>
<polygon fill="none" stroke="black" points="4218,-398 4218,-473 4558,-473 4558,-398 4218,-398"/>
<text text-anchor="middle" x="4388" y="-457.8" font-family="Times,serif" font-size="14.00">clusterServerID_76c96688d7&#45;8jks8</text>
</g>
<g id="clust4" class="cluster"><title>clusterServerID_8665dd9487&#45;lgsqw</title>
<polygon fill="none" stroke="black" points="3528,-398 3528,-473 3872,-473 3872,-398 3528,-398"/>
<text text-anchor="middle" x="3700" y="-457.8" font-family="Times,serif" font-size="14.00">clusterServerID_8665dd9487&#45;lgsqw</text>
</g>
<g id="clust5" class="cluster"><title>clusterServerID_90667071e782</title>
<polygon fill="none" stroke="black" points="8415,-182 8415,-473 9007,-473 9007,-182 8415,-182"/>
<text text-anchor="middle" x="8711" y="-457.8" font-family="Times,serif" font-size="14.00">clusterServerID_90667071e782</text>
</g>
<g id="clust6" class="cluster"><title>clusterServerID_OuterContainerID</title>
<polygon fill="none" stroke="black" points="8,-182 8,-365 5421,-365 5421,-182 8,-182"/>
<text text-anchor="middle" x="2714.5" y="-349.8" font-family="Times,serif" font-size="14.00">clusterServerID_OuterContainerID</text>
</g>
<g id="clust7" class="cluster"><title>clusterServerID_c437f7cecfb6</title>
<polygon fill="none" stroke="black" points="7431,-182 7431,-365 8407,-365 8407,-182 7431,-182"/>
<text text-anchor="middle" x="7919" y="-349.8" font-family="Times,serif" font-size="14.00">clusterServerID_c437f7cecfb6</text>
</g>
<g id="clust8" class="cluster"><title>clusterServerID_e56b6537e2d5</title>
<polygon fill="none" stroke="black" points="6833,-8 6833,-257 7423,-257 7423,-8 6833,-8"/>
<text text-anchor="middle" x="7128" y="-241.8" font-family="Times,serif" font-size="14.00">clusterServerID_e56b6537e2d5</text>
</g>
<!-- 1_fwatchdog#ServerID_6df85d7674&#45;2kqrj -->
<g id="node1" class="node"><title>1_fwatchdog#ServerID_6df85d7674&#45;2kqrj</title>
<polygon fill="none" stroke="black" points="1153.5,-442 832.5,-442 832.5,-406 1153.5,-406 1153.5,-442"/>
<text text-anchor="middle" x="993" y="-420.3" font-family="Times,serif" font-size="14.00">1_fwatchdog#ServerID_6df85d7674&#45;2kqrj</text>
</g>
<!-- 10.1.80.247:8080#ServerID_OuterContainerID -->
<g id="node2" class="node"><title>10.1.80.247:8080#ServerID_OuterContainerID</title>
<polygon fill="none" stroke="black" points="343,-334 15.5599,-316 343,-298 670.44,-316 343,-334"/>
<text text-anchor="middle" x="343" y="-312.3" font-family="Times,serif" font-size="14.00">10.1.80.247:8080#ServerID_OuterContainerID</text>
</g>
<!-- 1_fwatchdog#ServerID_6df85d7674&#45;2kqrj&#45;&gt;10.1.80.247:8080#ServerID_OuterContainerID -->
<g id="edge1" class="edge"><title>1_fwatchdog#ServerID_6df85d7674&#45;2kqrj&#45;&gt;10.1.80.247:8080#ServerID_OuterContainerID</title>
<path fill="none" stroke="black" d="M832.338,-410.809C774.631,-405.323 709.198,-397.826 650,-388 564.372,-373.787 466.955,-349.918 405.256,-333.823"/>
<polygon fill="black" stroke="black" points="405.853,-330.361 395.292,-331.21 404.077,-337.132 405.853,-330.361"/>
<text text-anchor="middle" x="670" y="-376.8" font-family="Times,serif" font-size="14.00">POST</text>
</g>
<!-- gateway:8080#ServerID_OuterContainerID -->
<g id="node5" class="node"><title>gateway:8080#ServerID_OuterContainerID</title>
<polygon fill="none" stroke="black" points="992,-334 687.518,-316 992,-298 1296.48,-316 992,-334"/>
<text text-anchor="middle" x="992" y="-312.3" font-family="Times,serif" font-size="14.00">gateway:8080#ServerID_OuterContainerID</text>
</g>
<!-- 1_fwatchdog#ServerID_6df85d7674&#45;2kqrj&#45;&gt;gateway:8080#ServerID_OuterContainerID -->
<g id="edge4" class="edge"><title>1_fwatchdog#ServerID_6df85d7674&#45;2kqrj&#45;&gt;gateway:8080#ServerID_OuterContainerID</title>
<path fill="none" stroke="black" d="M1012.58,-405.831C1017.21,-400.619 1021.52,-394.527 1024,-388 1026.36,-381.766 1025.71,-379.443 1024,-373 1021.15,-362.286 1015.72,-351.483 1010.13,-342.263"/>
<polygon fill="black" stroke="black" points="1012.93,-340.148 1004.58,-333.633 1007.05,-343.936 1012.93,-340.148"/>
<text text-anchor="middle" x="1046" y="-376.8" font-family="Times,serif" font-size="14.00">POST</text>
</g>
<!-- 10.1.80.247:33124#ServerID_OuterContainerID -->
<g id="node6" class="node"><title>10.1.80.247:33124#ServerID_OuterContainerID</title>
<polygon fill="none" stroke="black" points="3011,-334 2675.52,-316 3011,-298 3346.48,-316 3011,-334"/>
<text text-anchor="middle" x="3011" y="-312.3" font-family="Times,serif" font-size="14.00">10.1.80.247:33124#ServerID_OuterContainerID</text>
</g>
<!-- 1_fwatchdog#ServerID_6df85d7674&#45;2kqrj&#45;&gt;10.1.80.247:33124#ServerID_OuterContainerID -->
<g id="edge10" class="edge"><title>1_fwatchdog#ServerID_6df85d7674&#45;2kqrj&#45;&gt;10.1.80.247:33124#ServerID_OuterContainerID</title>
<path fill="none" stroke="black" d="M1153.64,-423.847C1424.16,-424.226 1987.69,-420.52 2463,-388 2553.59,-381.802 2575.92,-376.368 2666,-365 2750.49,-354.338 2846.42,-340.881 2915.64,-330.931"/>
<polygon fill="black" stroke="black" points="2916.26,-334.378 2925.66,-329.489 2915.26,-327.45 2916.26,-334.378"/>
<text text-anchor="middle" x="2646" y="-376.8" font-family="Times,serif" font-size="14.00">RESPONSE</text>
</g>
<!-- 10.1.80.247:8080#ServerID_OuterContainerID&#45;&gt;1_fwatchdog#ServerID_6df85d7674&#45;2kqrj -->
<g id="edge2" class="edge"><title>10.1.80.247:8080#ServerID_OuterContainerID&#45;&gt;1_fwatchdog#ServerID_6df85d7674&#45;2kqrj</title>
<path fill="none" stroke="black" d="M422.257,-329.709C492.598,-341.008 598.156,-358.011 690,-373 752.917,-383.268 823.163,-394.852 880.164,-404.283"/>
<polygon fill="black" stroke="black" points="879.847,-407.778 890.284,-405.957 880.99,-400.872 879.847,-407.778"/>
<text text-anchor="middle" x="816" y="-376.8" font-family="Times,serif" font-size="14.00">RESPONSE</text>
</g>
<!-- 10.1.80.1:19462#ServerID_OuterContainerID -->
<g id="node28" class="node"><title>10.1.80.1:19462#ServerID_OuterContainerID</title>
<polygon fill="none" stroke="black" points="1023,-226 704.105,-208 1023,-190 1341.9,-208 1023,-226"/>
<text text-anchor="middle" x="1023" y="-204.3" font-family="Times,serif" font-size="14.00">10.1.80.1:19462#ServerID_OuterContainerID</text>
</g>
<!-- 10.1.80.247:8080#ServerID_OuterContainerID&#45;&gt;10.1.80.1:19462#ServerID_OuterContainerID -->
<g id="edge35" class="edge"><title>10.1.80.247:8080#ServerID_OuterContainerID&#45;&gt;10.1.80.1:19462#ServerID_OuterContainerID</title>
<path fill="none" stroke="black" d="M483.096,-305.65C550.965,-300.073 633.495,-291.744 707,-280 795.676,-265.832 896.695,-241.709 960.145,-225.566"/>
<polygon fill="black" stroke="black" points="961.177,-228.914 969.998,-223.046 959.442,-222.133 961.177,-228.914"/>
<text text-anchor="middle" x="828" y="-268.8" font-family="Times,serif" font-size="14.00">RESPONSE</text>
</g>
<!-- 10.0.88.125:31112#ServerID_OuterContainerID -->
<g id="node29" class="node"><title>10.0.88.125:31112#ServerID_OuterContainerID</title>
<polygon fill="none" stroke="black" points="351,-226 15.5152,-208 351,-190 686.485,-208 351,-226"/>
<text text-anchor="middle" x="351" y="-204.3" font-family="Times,serif" font-size="14.00">10.0.88.125:31112#ServerID_OuterContainerID</text>
</g>
<!-- 10.1.80.247:8080#ServerID_OuterContainerID&#45;&gt;10.0.88.125:31112#ServerID_OuterContainerID -->
<g id="edge36" class="edge"><title>10.1.80.247:8080#ServerID_OuterContainerID&#45;&gt;10.0.88.125:31112#ServerID_OuterContainerID</title>
<path fill="none" stroke="black" d="M344.285,-297.969C345.545,-281.279 347.485,-255.579 348.956,-236.084"/>
<polygon fill="black" stroke="black" points="352.455,-236.224 349.718,-225.988 345.475,-235.697 352.455,-236.224"/>
<text text-anchor="middle" x="389" y="-268.8" font-family="Times,serif" font-size="14.00">RESPONSE</text>
</g>
<!-- 1_fwatchdog#ServerID_8665dd9487&#45;lgsqw -->
<g id="node3" class="node"><title>1_fwatchdog#ServerID_8665dd9487&#45;lgsqw</title>
<polygon fill="none" stroke="black" points="3864.5,-442 3535.5,-442 3535.5,-406 3864.5,-406 3864.5,-442"/>
<text text-anchor="middle" x="3700" y="-420.3" font-family="Times,serif" font-size="14.00">1_fwatchdog#ServerID_8665dd9487&#45;lgsqw</text>
</g>
<!-- 10.1.80.247:39338#ServerID_OuterContainerID -->
<g id="node4" class="node"><title>10.1.80.247:39338#ServerID_OuterContainerID</title>
<polygon fill="none" stroke="black" points="3700,-334 3364.52,-316 3700,-298 4035.48,-316 3700,-334"/>
<text text-anchor="middle" x="3700" y="-312.3" font-family="Times,serif" font-size="14.00">10.1.80.247:39338#ServerID_OuterContainerID</text>
</g>
<!-- 1_fwatchdog#ServerID_8665dd9487&#45;lgsqw&#45;&gt;10.1.80.247:39338#ServerID_OuterContainerID -->
<g id="edge3" class="edge"><title>1_fwatchdog#ServerID_8665dd9487&#45;lgsqw&#45;&gt;10.1.80.247:39338#ServerID_OuterContainerID</title>
<path fill="none" stroke="black" d="M3705.96,-405.759C3707.61,-400.165 3709.18,-393.883 3710,-388 3712.04,-373.409 3710.06,-357.133 3707.34,-343.849"/>
<polygon fill="black" stroke="black" points="3710.71,-342.889 3705.06,-333.927 3703.88,-344.457 3710.71,-342.889"/>
<text text-anchor="middle" x="3753" y="-376.8" font-family="Times,serif" font-size="14.00">RESPONSE</text>
</g>
<!-- 10.1.80.247:39338#ServerID_OuterContainerID&#45;&gt;1_fwatchdog#ServerID_8665dd9487&#45;lgsqw -->
<g id="edge6" class="edge"><title>10.1.80.247:39338#ServerID_OuterContainerID&#45;&gt;1_fwatchdog#ServerID_8665dd9487&#45;lgsqw</title>
<path fill="none" stroke="black" d="M3686.64,-333.511C3678.96,-344.105 3670.05,-358.542 3666,-373 3664.2,-379.42 3663.49,-381.822 3666,-388 3667.42,-391.503 3669.38,-394.848 3671.65,-397.984"/>
<polygon fill="black" stroke="black" points="3669.08,-400.372 3678.2,-405.762 3674.43,-395.86 3669.08,-400.372"/>
<text text-anchor="middle" x="3686" y="-376.8" font-family="Times,serif" font-size="14.00">POST</text>
</g>
<!-- 1_fwatchdog#ServerID_c437f7cecfb6 -->
<g id="node18" class="node"><title>1_fwatchdog#ServerID_c437f7cecfb6</title>
<polygon fill="none" stroke="black" points="7768,-226 7478,-226 7478,-190 7768,-190 7768,-226"/>
<text text-anchor="middle" x="7623" y="-204.3" font-family="Times,serif" font-size="14.00">1_fwatchdog#ServerID_c437f7cecfb6</text>
</g>
<!-- 10.1.80.247:39338#ServerID_OuterContainerID&#45;&gt;1_fwatchdog#ServerID_c437f7cecfb6 -->
<g id="edge25" class="edge"><title>10.1.80.247:39338#ServerID_OuterContainerID&#45;&gt;1_fwatchdog#ServerID_c437f7cecfb6</title>
<path fill="none" stroke="black" d="M3851.52,-306.119C3911.72,-302.961 3981.61,-299.755 4045,-298 5354.3,-261.76 5682.77,-318.589 6992,-280 7185.52,-274.296 7235.47,-285.261 7427,-257 7470.43,-250.592 7518.3,-238.957 7555.86,-228.748"/>
<polygon fill="black" stroke="black" points="7556.96,-232.076 7565.67,-226.05 7555.1,-225.326 7556.96,-232.076"/>
<text text-anchor="middle" x="7380.5" y="-268.8" font-family="Times,serif" font-size="14.00">read</text>
</g>
<!-- gateway:8080#ServerID_OuterContainerID&#45;&gt;1_fwatchdog#ServerID_6df85d7674&#45;2kqrj -->
<g id="edge7" class="edge"><title>gateway:8080#ServerID_OuterContainerID&#45;&gt;1_fwatchdog#ServerID_6df85d7674&#45;2kqrj</title>
<path fill="none" stroke="black" d="M965.625,-332.594C945.989,-346.327 924.426,-367.312 936,-388 938.39,-392.272 941.539,-396.087 945.131,-399.478"/>
<polygon fill="black" stroke="black" points="943.049,-402.295 953.028,-405.856 947.448,-396.85 943.049,-402.295"/>
<text text-anchor="middle" x="978" y="-376.8" font-family="Times,serif" font-size="14.00">RESPONSE</text>
</g>
<!-- 10.1.80.247:33124#ServerID_OuterContainerID&#45;&gt;1_fwatchdog#ServerID_6df85d7674&#45;2kqrj -->
<g id="edge5" class="edge"><title>10.1.80.247:33124#ServerID_OuterContainerID&#45;&gt;1_fwatchdog#ServerID_6df85d7674&#45;2kqrj</title>
<path fill="none" stroke="black" d="M2934.52,-329.959C2864.78,-341.222 2758.78,-356.959 2666,-365 2656.72,-365.804 1587.97,-402.565 1163.73,-417.138"/>
<polygon fill="black" stroke="black" points="1163.39,-413.648 1153.52,-417.489 1163.63,-420.644 1163.39,-413.648"/>
<text text-anchor="middle" x="2439" y="-376.8" font-family="Times,serif" font-size="14.00">POST</text>
</g>
<!-- 1_fwatchdog#ServerID_34e86192c217 -->
<g id="node9" class="node"><title>1_fwatchdog#ServerID_34e86192c217</title>
<polygon fill="none" stroke="black" points="6542.5,-442 6243.5,-442 6243.5,-406 6542.5,-406 6542.5,-442"/>
<text text-anchor="middle" x="6393" y="-420.3" font-family="Times,serif" font-size="14.00">1_fwatchdog#ServerID_34e86192c217</text>
</g>
<!-- 10.1.80.247:33124#ServerID_OuterContainerID&#45;&gt;1_fwatchdog#ServerID_34e86192c217 -->
<g id="edge14" class="edge"><title>10.1.80.247:33124#ServerID_OuterContainerID&#45;&gt;1_fwatchdog#ServerID_34e86192c217</title>
<path fill="none" stroke="black" d="M3084.73,-330.113C3154.38,-341.821 3261.91,-358.146 3356,-365 3479.12,-373.969 4343.57,-370.954 4467,-373 5122.61,-383.869 5903.51,-407.411 6233.38,-417.844"/>
<polygon fill="black" stroke="black" points="6233.38,-421.345 6243.49,-418.164 6233.6,-414.349 6233.38,-421.345"/>
<text text-anchor="middle" x="5172.5" y="-376.8" font-family="Times,serif" font-size="14.00">read</text>
</g>
<!-- 10.1.80.247:44900#ServerID_OuterContainerID -->
<g id="node7" class="node"><title>10.1.80.247:44900#ServerID_OuterContainerID</title>
<polygon fill="none" stroke="black" points="4389,-334 4053.52,-316 4389,-298 4724.48,-316 4389,-334"/>
<text text-anchor="middle" x="4389" y="-312.3" font-family="Times,serif" font-size="14.00">10.1.80.247:44900#ServerID_OuterContainerID</text>
</g>
<!-- 1_fwatchdog#ServerID_76c96688d7&#45;8jks8 -->
<g id="node8" class="node"><title>1_fwatchdog#ServerID_76c96688d7&#45;8jks8</title>
<polygon fill="none" stroke="black" points="4550.5,-442 4225.5,-442 4225.5,-406 4550.5,-406 4550.5,-442"/>
<text text-anchor="middle" x="4388" y="-420.3" font-family="Times,serif" font-size="14.00">1_fwatchdog#ServerID_76c96688d7&#45;8jks8</text>
</g>
<!-- 10.1.80.247:44900#ServerID_OuterContainerID&#45;&gt;1_fwatchdog#ServerID_76c96688d7&#45;8jks8 -->
<g id="edge8" class="edge"><title>10.1.80.247:44900#ServerID_OuterContainerID&#45;&gt;1_fwatchdog#ServerID_76c96688d7&#45;8jks8</title>
<path fill="none" stroke="black" d="M4404.08,-333.48C4415.24,-347.767 4427.35,-369.067 4420,-388 4418.64,-391.507 4416.74,-394.876 4414.55,-398.046"/>
<polygon fill="black" stroke="black" points="4411.75,-395.944 4408.2,-405.928 4417.2,-400.335 4411.75,-395.944"/>
<text text-anchor="middle" x="4443" y="-376.8" font-family="Times,serif" font-size="14.00">POST</text>
</g>
<!-- 1_fwatchdog#ServerID_76c96688d7&#45;8jks8&#45;&gt;10.1.80.247:44900#ServerID_OuterContainerID -->
<g id="edge9" class="edge"><title>1_fwatchdog#ServerID_76c96688d7&#45;8jks8&#45;&gt;10.1.80.247:44900#ServerID_OuterContainerID</title>
<path fill="none" stroke="black" d="M4349.07,-405.889C4336.19,-397.513 4326.4,-386.341 4332,-373 4337.43,-360.053 4347.47,-348.591 4357.64,-339.463"/>
<polygon fill="black" stroke="black" points="4359.97,-342.075 4365.36,-332.952 4355.46,-336.724 4359.97,-342.075"/>
<text text-anchor="middle" x="4374" y="-376.8" font-family="Times,serif" font-size="14.00">RESPONSE</text>
</g>
<!-- localhost:3000#ServerID_34e86192c217 -->
<g id="node10" class="node"><title>localhost:3000#ServerID_34e86192c217</title>
<polygon fill="none" stroke="black" points="6530,-334 6243.45,-316 6530,-298 6816.55,-316 6530,-334"/>
<text text-anchor="middle" x="6530" y="-312.3" font-family="Times,serif" font-size="14.00">localhost:3000#ServerID_34e86192c217</text>
</g>
<!-- 1_fwatchdog#ServerID_34e86192c217&#45;&gt;localhost:3000#ServerID_34e86192c217 -->
<g id="edge11" class="edge"><title>1_fwatchdog#ServerID_34e86192c217&#45;&gt;localhost:3000#ServerID_34e86192c217</title>
<path fill="none" stroke="black" d="M6411.56,-405.802C6422.5,-395.902 6436.75,-383.402 6450,-373 6465.39,-360.926 6483.15,-348.362 6498.02,-338.202"/>
<polygon fill="black" stroke="black" points="6500.09,-341.027 6506.41,-332.519 6496.17,-335.232 6500.09,-341.027"/>
<text text-anchor="middle" x="6479" y="-376.8" font-family="Times,serif" font-size="14.00">connect</text>
</g>
<!-- 1_fwatchdog#ServerID_34e86192c217&#45;&gt;localhost:3000#ServerID_34e86192c217 -->
<g id="edge13" class="edge"><title>1_fwatchdog#ServerID_34e86192c217&#45;&gt;localhost:3000#ServerID_34e86192c217</title>
<path fill="none" stroke="black" d="M6481.9,-405.919C6491.53,-401.296 6500.53,-395.433 6508,-388 6519.56,-376.501 6525.07,-359.06 6527.68,-344.342"/>
<polygon fill="black" stroke="black" points="6531.18,-344.624 6529.12,-334.231 6524.24,-343.638 6531.18,-344.624"/>
<text text-anchor="middle" x="6538" y="-376.8" font-family="Times,serif" font-size="14.00">write</text>
</g>
<!-- localhost:3000#ServerID_34e86192c217&#45;&gt;1_fwatchdog#ServerID_34e86192c217 -->
<g id="edge12" class="edge"><title>localhost:3000#ServerID_34e86192c217&#45;&gt;1_fwatchdog#ServerID_34e86192c217</title>
<path fill="none" stroke="black" d="M6461.48,-329.819C6436.87,-337.988 6411.4,-351.311 6396,-373 6391.38,-379.508 6389.69,-387.776 6389.42,-395.706"/>
<polygon fill="black" stroke="black" points="6385.92,-395.882 6389.75,-405.759 6392.92,-395.648 6385.92,-395.882"/>
<text text-anchor="middle" x="6412.5" y="-376.8" font-family="Times,serif" font-size="14.00">read</text>
</g>
<!-- 10_node#ServerID_34e86192c217 -->
<g id="node11" class="node"><title>10_node#ServerID_34e86192c217</title>
<polygon fill="none" stroke="black" points="5750.5,-226 5483.5,-226 5483.5,-190 5750.5,-190 5750.5,-226"/>
<text text-anchor="middle" x="5617" y="-204.3" font-family="Times,serif" font-size="14.00">10_node#ServerID_34e86192c217</text>
</g>
<!-- localhost:3000#ServerID_34e86192c217&#45;&gt;10_node#ServerID_34e86192c217 -->
<g id="edge21" class="edge"><title>localhost:3000#ServerID_34e86192c217&#45;&gt;10_node#ServerID_34e86192c217</title>
<path fill="none" stroke="black" d="M6434.88,-303.956C6274.47,-285.333 5949.28,-247.578 5760.85,-225.702"/>
<polygon fill="black" stroke="black" points="5761.21,-222.219 5750.87,-224.543 5760.4,-229.173 5761.21,-222.219"/>
<text text-anchor="middle" x="6225.5" y="-268.8" font-family="Times,serif" font-size="14.00">read</text>
</g>
<!-- 10_node#ServerID_34e86192c217&#45;&gt;gateway:8080#ServerID_OuterContainerID -->
<g id="edge22" class="edge"><title>10_node#ServerID_34e86192c217&#45;&gt;gateway:8080#ServerID_OuterContainerID</title>
<path fill="none" stroke="black" d="M5563.45,-226.093C5525.3,-237.354 5472.56,-251.075 5425,-257 5348.54,-266.525 2728.05,-263.945 2651,-265 2052.65,-273.197 1902.94,-274.437 1305,-298 1252.62,-300.064 1195.34,-302.982 1144.27,-305.819"/>
<polygon fill="black" stroke="black" points="1143.93,-302.332 1134.14,-306.385 1144.32,-309.321 1143.93,-302.332"/>
<text text-anchor="middle" x="2680" y="-268.8" font-family="Times,serif" font-size="14.00">connect</text>
</g>
<!-- pipe:[331683264]#ServerID_34e86192c217 -->
<g id="node12" class="node"><title>pipe:[331683264]#ServerID_34e86192c217</title>
<ellipse fill="none" stroke="black" cx="5654" cy="-121" rx="217.162" ry="18"/>
<text text-anchor="middle" x="5654" y="-117.3" font-family="Times,serif" font-size="14.00">pipe:[331683264]#ServerID_34e86192c217</text>
</g>
<!-- 10_node#ServerID_34e86192c217&#45;&gt;pipe:[331683264]#ServerID_34e86192c217 -->
<g id="edge15" class="edge"><title>10_node#ServerID_34e86192c217&#45;&gt;pipe:[331683264]#ServerID_34e86192c217</title>
<path fill="none" stroke="black" d="M5624.49,-189.799C5629.65,-177.932 5636.62,-161.928 5642.49,-148.449"/>
<polygon fill="black" stroke="black" points="5645.74,-149.741 5646.52,-139.175 5639.32,-146.947 5645.74,-149.741"/>
<text text-anchor="middle" x="5657" y="-160.8" font-family="Times,serif" font-size="14.00">write</text>
</g>
<!-- 10.152.183.10:53#ServerID_OuterContainerID -->
<g id="node13" class="node"><title>10.152.183.10:53#ServerID_OuterContainerID</title>
<polygon fill="none" stroke="black" points="1641,-334 1313.56,-316 1641,-298 1968.44,-316 1641,-334"/>
<text text-anchor="middle" x="1641" y="-312.3" font-family="Times,serif" font-size="14.00">10.152.183.10:53#ServerID_OuterContainerID</text>
</g>
<!-- 10_node#ServerID_34e86192c217&#45;&gt;10.152.183.10:53#ServerID_OuterContainerID -->
<g id="edge17" class="edge"><title>10_node#ServerID_34e86192c217&#45;&gt;10.152.183.10:53#ServerID_OuterContainerID</title>
<path fill="none" stroke="black" d="M5562.17,-226.098C5524.1,-237.129 5471.98,-250.575 5425,-257 5047.93,-308.57 4949.53,-273.567 4569,-280 3417.58,-299.466 3129.11,-264.983 1978,-298 1919.72,-299.672 1855.82,-302.613 1799.48,-305.584"/>
<polygon fill="black" stroke="black" points="1799.22,-302.093 1789.42,-306.119 1799.59,-309.083 1799.22,-302.093"/>
<text text-anchor="middle" x="5385.5" y="-268.8" font-family="Times,serif" font-size="14.00">sendto</text>
</g>
<!-- 10.152.183.10:53#ServerID_OuterContainerID&#45;&gt;10_node#ServerID_34e86192c217 -->
<g id="edge16" class="edge"><title>10.152.183.10:53#ServerID_OuterContainerID&#45;&gt;10_node#ServerID_34e86192c217</title>
<path fill="none" stroke="black" d="M1791.09,-306.226C1849.43,-303.132 1916.81,-299.942 1978,-298 3099.75,-262.389 3380.75,-277.202 4503,-265 4554.22,-264.443 5374.19,-263.479 5425,-257 5468.65,-251.435 5516.67,-239.426 5553.77,-228.814"/>
<polygon fill="black" stroke="black" points="5554.81,-232.155 5563.44,-226.008 5552.86,-225.432 5554.81,-232.155"/>
<text text-anchor="middle" x="4536" y="-268.8" font-family="Times,serif" font-size="14.00">recvfrom</text>
</g>
<!-- 10.1.80.247:33134#ServerID_OuterContainerID -->
<g id="node14" class="node"><title>10.1.80.247:33134#ServerID_OuterContainerID</title>
<polygon fill="none" stroke="black" points="5078,-334 4742.52,-316 5078,-298 5413.48,-316 5078,-334"/>
<text text-anchor="middle" x="5078" y="-312.3" font-family="Times,serif" font-size="14.00">10.1.80.247:33134#ServerID_OuterContainerID</text>
</g>
<!-- 10.1.80.247:33134#ServerID_OuterContainerID&#45;&gt;1_fwatchdog#ServerID_34e86192c217 -->
<g id="edge18" class="edge"><title>10.1.80.247:33134#ServerID_OuterContainerID&#45;&gt;1_fwatchdog#ServerID_34e86192c217</title>
<path fill="none" stroke="black" d="M5157.38,-329.768C5227.58,-340.631 5332.86,-355.88 5425,-365 5708.92,-393.101 6041.14,-409.414 6233.29,-417.231"/>
<polygon fill="black" stroke="black" points="6233.34,-420.736 6243.47,-417.643 6233.62,-413.742 6233.34,-420.736"/>
<text text-anchor="middle" x="5707.5" y="-376.8" font-family="Times,serif" font-size="14.00">read</text>
</g>
<!-- /etc/resolv.conf#ServerID_34e86192c217 -->
<g id="node15" class="node"><title>/etc/resolv.conf#ServerID_34e86192c217</title>
<ellipse fill="none" stroke="black" cx="6020" cy="-316" rx="205.264" ry="18"/>
<text text-anchor="middle" x="6020" y="-312.3" font-family="Times,serif" font-size="14.00">/etc/resolv.conf#ServerID_34e86192c217</text>
</g>
<!-- /etc/resolv.conf#ServerID_34e86192c217&#45;&gt;10_node#ServerID_34e86192c217 -->
<g id="edge19" class="edge"><title>/etc/resolv.conf#ServerID_34e86192c217&#45;&gt;10_node#ServerID_34e86192c217</title>
<path fill="none" stroke="black" d="M5958.35,-298.785C5886.71,-279.942 5768.53,-248.857 5691.73,-228.656"/>
<polygon fill="black" stroke="black" points="5692.2,-225.162 5681.64,-226.003 5690.42,-231.931 5692.2,-225.162"/>
<text text-anchor="middle" x="5895.5" y="-268.8" font-family="Times,serif" font-size="14.00">read</text>
</g>
<!-- /etc/hosts#ServerID_34e86192c217 -->
<g id="node16" class="node"><title>/etc/hosts#ServerID_34e86192c217</title>
<ellipse fill="none" stroke="black" cx="5617" cy="-316" rx="180.068" ry="18"/>
<text text-anchor="middle" x="5617" y="-312.3" font-family="Times,serif" font-size="14.00">/etc/hosts#ServerID_34e86192c217</text>
</g>
<!-- /etc/hosts#ServerID_34e86192c217&#45;&gt;10_node#ServerID_34e86192c217 -->
<g id="edge20" class="edge"><title>/etc/hosts#ServerID_34e86192c217&#45;&gt;10_node#ServerID_34e86192c217</title>
<path fill="none" stroke="black" d="M5617,-297.969C5617,-281.378 5617,-255.883 5617,-236.431"/>
<polygon fill="black" stroke="black" points="5620.5,-236.341 5617,-226.341 5613.5,-236.341 5620.5,-236.341"/>
<text text-anchor="middle" x="5633.5" y="-268.8" font-family="Times,serif" font-size="14.00">read</text>
</g>
<!-- localhost:3000#ServerID_c437f7cecfb6 -->
<g id="node17" class="node"><title>localhost:3000#ServerID_c437f7cecfb6</title>
<polygon fill="none" stroke="black" points="7718,-334 7439.49,-316 7718,-298 7996.51,-316 7718,-334"/>
<text text-anchor="middle" x="7718" y="-312.3" font-family="Times,serif" font-size="14.00">localhost:3000#ServerID_c437f7cecfb6</text>
</g>
<!-- localhost:3000#ServerID_c437f7cecfb6&#45;&gt;1_fwatchdog#ServerID_c437f7cecfb6 -->
<g id="edge23" class="edge"><title>localhost:3000#ServerID_c437f7cecfb6&#45;&gt;1_fwatchdog#ServerID_c437f7cecfb6</title>
<path fill="none" stroke="black" d="M7689.18,-299.839C7680.43,-294.356 7671.23,-287.614 7664,-280 7651.73,-267.087 7641.66,-249.835 7634.57,-235.571"/>
<polygon fill="black" stroke="black" points="7637.6,-233.793 7630.15,-226.263 7631.28,-236.797 7637.6,-233.793"/>
<text text-anchor="middle" x="7680.5" y="-268.8" font-family="Times,serif" font-size="14.00">read</text>
</g>
<!-- 15_node#ServerID_c437f7cecfb6 -->
<g id="node23" class="node"><title>15_node#ServerID_c437f7cecfb6</title>
<polygon fill="none" stroke="black" points="8171,-226 7913,-226 7913,-190 8171,-190 8171,-226"/>
<text text-anchor="middle" x="8042" y="-204.3" font-family="Times,serif" font-size="14.00">15_node#ServerID_c437f7cecfb6</text>
</g>
<!-- localhost:3000#ServerID_c437f7cecfb6&#45;&gt;15_node#ServerID_c437f7cecfb6 -->
<g id="edge33" class="edge"><title>localhost:3000#ServerID_c437f7cecfb6&#45;&gt;15_node#ServerID_c437f7cecfb6</title>
<path fill="none" stroke="black" d="M7761.7,-300.704C7818.05,-282.268 7916.4,-250.092 7980.34,-229.172"/>
<polygon fill="black" stroke="black" points="7981.49,-232.479 7989.91,-226.043 7979.31,-225.826 7981.49,-232.479"/>
<text text-anchor="middle" x="7887.5" y="-268.8" font-family="Times,serif" font-size="14.00">read</text>
</g>
<!-- 1_fwatchdog#ServerID_c437f7cecfb6&#45;&gt;localhost:3000#ServerID_c437f7cecfb6 -->
<g id="edge24" class="edge"><title>1_fwatchdog#ServerID_c437f7cecfb6&#45;&gt;localhost:3000#ServerID_c437f7cecfb6</title>
<path fill="none" stroke="black" d="M7652.69,-226.207C7667.57,-236.03 7684.94,-249.476 7697,-265 7702.42,-271.978 7706.69,-280.559 7709.92,-288.63"/>
<polygon fill="black" stroke="black" points="7706.65,-289.879 7713.36,-298.08 7713.23,-287.486 7706.65,-289.879"/>
<text text-anchor="middle" x="7725" y="-268.8" font-family="Times,serif" font-size="14.00">write</text>
</g>
<!-- 1_fwatchdog#ServerID_c437f7cecfb6&#45;&gt;localhost:3000#ServerID_c437f7cecfb6 -->
<g id="edge26" class="edge"><title>1_fwatchdog#ServerID_c437f7cecfb6&#45;&gt;localhost:3000#ServerID_c437f7cecfb6</title>
<path fill="none" stroke="black" d="M7605.54,-226.24C7592.34,-241.397 7578.47,-263.544 7591,-280 7597.25,-288.207 7614.87,-294.976 7635.06,-300.301"/>
<polygon fill="black" stroke="black" points="7634.27,-303.71 7644.82,-302.723 7635.95,-296.916 7634.27,-303.71"/>
<text text-anchor="middle" x="7620" y="-268.8" font-family="Times,serif" font-size="14.00">connect</text>
</g>
<!-- 1_fwatchdog#ServerID_e56b6537e2d5 -->
<g id="node19" class="node"><title>1_fwatchdog#ServerID_e56b6537e2d5</title>
<polygon fill="none" stroke="black" points="7208.5,-226 6909.5,-226 6909.5,-190 7208.5,-190 7208.5,-226"/>
<text text-anchor="middle" x="7059" y="-204.3" font-family="Times,serif" font-size="14.00">1_fwatchdog#ServerID_e56b6537e2d5</text>
</g>
<!-- localhost:3000#ServerID_e56b6537e2d5 -->
<g id="node20" class="node"><title>localhost:3000#ServerID_e56b6537e2d5</title>
<polygon fill="none" stroke="black" points="7128,-139 6841.45,-121 7128,-103 7414.55,-121 7128,-139"/>
<text text-anchor="middle" x="7128" y="-117.3" font-family="Times,serif" font-size="14.00">localhost:3000#ServerID_e56b6537e2d5</text>
</g>
<!-- 1_fwatchdog#ServerID_e56b6537e2d5&#45;&gt;localhost:3000#ServerID_e56b6537e2d5 -->
<g id="edge27" class="edge"><title>1_fwatchdog#ServerID_e56b6537e2d5&#45;&gt;localhost:3000#ServerID_e56b6537e2d5</title>
<path fill="none" stroke="black" d="M7072.96,-189.799C7083.17,-177.228 7097.14,-160.014 7108.45,-146.077"/>
<polygon fill="black" stroke="black" points="7111.17,-148.28 7114.76,-138.31 7105.74,-143.868 7111.17,-148.28"/>
<text text-anchor="middle" x="7127" y="-160.8" font-family="Times,serif" font-size="14.00">connect</text>
</g>
<!-- 12_node#ServerID_e56b6537e2d5 -->
<g id="node26" class="node"><title>12_node#ServerID_e56b6537e2d5</title>
<polygon fill="none" stroke="black" points="7261.5,-52 6994.5,-52 6994.5,-16 7261.5,-16 7261.5,-52"/>
<text text-anchor="middle" x="7128" y="-30.3" font-family="Times,serif" font-size="14.00">12_node#ServerID_e56b6537e2d5</text>
</g>
<!-- localhost:3000#ServerID_e56b6537e2d5&#45;&gt;12_node#ServerID_e56b6537e2d5 -->
<g id="edge31" class="edge"><title>localhost:3000#ServerID_e56b6537e2d5&#45;&gt;12_node#ServerID_e56b6537e2d5</title>
<path fill="none" stroke="black" d="M7128,-102.799C7128,-91.1626 7128,-75.5479 7128,-62.2368"/>
<polygon fill="black" stroke="black" points="7131.5,-62.1754 7128,-52.1754 7124.5,-62.1755 7131.5,-62.1754"/>
<text text-anchor="middle" x="7144.5" y="-73.8" font-family="Times,serif" font-size="14.00">read</text>
</g>
<!-- 10.1.80.247:35102#ServerID_OuterContainerID -->
<g id="node21" class="node"><title>10.1.80.247:35102#ServerID_OuterContainerID</title>
<polygon fill="none" stroke="black" points="2322,-334 1986.52,-316 2322,-298 2657.48,-316 2322,-334"/>
<text text-anchor="middle" x="2322" y="-312.3" font-family="Times,serif" font-size="14.00">10.1.80.247:35102#ServerID_OuterContainerID</text>
</g>
<!-- 10.1.80.247:35102#ServerID_OuterContainerID&#45;&gt;1_fwatchdog#ServerID_e56b6537e2d5 -->
<g id="edge28" class="edge"><title>10.1.80.247:35102#ServerID_OuterContainerID&#45;&gt;1_fwatchdog#ServerID_e56b6537e2d5</title>
<path fill="none" stroke="black" d="M2473.09,-306.083C2533.39,-302.909 2603.46,-299.702 2667,-298 2782.57,-294.904 6714.72,-297.491 6829,-280 6892.05,-270.35 6961.69,-246.965 7007.63,-229.656"/>
<polygon fill="black" stroke="black" points="7008.97,-232.892 7017.07,-226.061 7006.48,-226.351 7008.97,-232.892"/>
<text text-anchor="middle" x="6910.5" y="-268.8" font-family="Times,serif" font-size="14.00">read</text>
</g>
<!-- /etc/localtime#ServerID_c437f7cecfb6 -->
<g id="node22" class="node"><title>/etc/localtime#ServerID_c437f7cecfb6</title>
<ellipse fill="none" stroke="black" cx="8207" cy="-316" rx="192.266" ry="18"/>
<text text-anchor="middle" x="8207" y="-312.3" font-family="Times,serif" font-size="14.00">/etc/localtime#ServerID_c437f7cecfb6</text>
</g>
<!-- /etc/localtime#ServerID_c437f7cecfb6&#45;&gt;15_node#ServerID_c437f7cecfb6 -->
<g id="edge29" class="edge"><title>/etc/localtime#ServerID_c437f7cecfb6&#45;&gt;15_node#ServerID_c437f7cecfb6</title>
<path fill="none" stroke="black" d="M8180.49,-297.969C8152.55,-280.019 8108.38,-251.646 8077.46,-231.78"/>
<polygon fill="black" stroke="black" points="8079.02,-228.625 8068.72,-226.164 8075.24,-234.514 8079.02,-228.625"/>
<text text-anchor="middle" x="8165.5" y="-268.8" font-family="Times,serif" font-size="14.00">read</text>
</g>
<!-- localhost:3000#ServerID_90667071e782 -->
<g id="node24" class="node"><title>localhost:3000#ServerID_90667071e782</title>
<polygon fill="none" stroke="black" points="8711,-442 8423.11,-424 8711,-406 8998.89,-424 8711,-442"/>
<text text-anchor="middle" x="8711" y="-420.3" font-family="Times,serif" font-size="14.00">localhost:3000#ServerID_90667071e782</text>
</g>
<!-- 15_node#ServerID_90667071e782 -->
<g id="node25" class="node"><title>15_node#ServerID_90667071e782</title>
<polygon fill="none" stroke="black" points="8845,-334 8577,-334 8577,-298 8845,-298 8845,-334"/>
<text text-anchor="middle" x="8711" y="-312.3" font-family="Times,serif" font-size="14.00">15_node#ServerID_90667071e782</text>
</g>
<!-- localhost:3000#ServerID_90667071e782&#45;&gt;15_node#ServerID_90667071e782 -->
<g id="edge30" class="edge"><title>localhost:3000#ServerID_90667071e782&#45;&gt;15_node#ServerID_90667071e782</title>
<path fill="none" stroke="black" d="M8711,-405.969C8711,-389.378 8711,-363.883 8711,-344.431"/>
<polygon fill="black" stroke="black" points="8714.5,-344.341 8711,-334.341 8707.5,-344.341 8714.5,-344.341"/>
<text text-anchor="middle" x="8727.5" y="-376.8" font-family="Times,serif" font-size="14.00">read</text>
</g>
<!-- pipe:[331683494]#ServerID_90667071e782 -->
<g id="node27" class="node"><title>pipe:[331683494]#ServerID_90667071e782</title>
<ellipse fill="none" stroke="black" cx="8711" cy="-208" rx="217.962" ry="18"/>
<text text-anchor="middle" x="8711" y="-204.3" font-family="Times,serif" font-size="14.00">pipe:[331683494]#ServerID_90667071e782</text>
</g>
<!-- 15_node#ServerID_90667071e782&#45;&gt;pipe:[331683494]#ServerID_90667071e782 -->
<g id="edge32" class="edge"><title>15_node#ServerID_90667071e782&#45;&gt;pipe:[331683494]#ServerID_90667071e782</title>
<path fill="none" stroke="black" d="M8711,-297.969C8711,-281.378 8711,-255.883 8711,-236.431"/>
<polygon fill="black" stroke="black" points="8714.5,-236.341 8711,-226.341 8707.5,-236.341 8714.5,-236.341"/>
<text text-anchor="middle" x="8730" y="-268.8" font-family="Times,serif" font-size="14.00">write</text>
</g>
<!-- 10.1.80.1:19462#ServerID_OuterContainerID&#45;&gt;10.1.80.247:8080#ServerID_OuterContainerID -->
<g id="edge34" class="edge"><title>10.1.80.1:19462#ServerID_OuterContainerID&#45;&gt;10.1.80.247:8080#ServerID_OuterContainerID</title>
<path fill="none" stroke="black" d="M942.693,-221.518C815.29,-241.378 567.621,-279.985 433.891,-300.832"/>
<polygon fill="black" stroke="black" points="433.017,-297.426 423.675,-302.424 434.095,-304.342 433.017,-297.426"/>
<text text-anchor="middle" x="683" y="-268.8" font-family="Times,serif" font-size="14.00">POST</text>
</g>
</g>
</svg>
