<?xml version="1.0" encoding="UTF-8" standalone="no"?>
<!DOCTYPE svg PUBLIC "-//W3C//DTD SVG 1.1//EN"
 "http://www.w3.org/Graphics/SVG/1.1/DTD/svg11.dtd">
<!-- Generated by graphviz version 2.38.0 (20140413.2041)
 -->
<!-- Title: G Pages: 1 -->
<svg width="8691pt" height="340pt"
 viewBox="0.00 0.00 8691.00 340.00" xmlns="http://www.w3.org/2000/svg" xmlns:xlink="http://www.w3.org/1999/xlink">
<g id="graph0" class="graph" transform="scale(1 1) rotate(0) translate(4 336)">
<title>G</title>
<polygon fill="white" stroke="none" points="-4,4 -4,-336 8687,-336 8687,4 -4,4"/>
<g id="clust1" class="cluster"><title>clusterServerID_34e86192c217</title>
<polygon fill="none" stroke="black" points="8,-8 8,-193 1336,-193 1336,-8 8,-8"/>
<text text-anchor="middle" x="672" y="-177.8" font-family="Times,serif" font-size="14.00">clusterServerID_34e86192c217</text>
</g>
<g id="clust2" class="cluster"><title>clusterServerID_6df85d7674&#45;2kqrj</title>
<polygon fill="none" stroke="black" points="1707,-226 1707,-324 2045,-324 2045,-226 1707,-226"/>
<text text-anchor="middle" x="1876" y="-308.8" font-family="Times,serif" font-size="14.00">clusterServerID_6df85d7674&#45;2kqrj</text>
</g>
<g id="clust3" class="cluster"><title>clusterServerID_76c96688d7&#45;8jks8</title>
<polygon fill="none" stroke="black" points="5554,-226 5554,-324 5894,-324 5894,-226 5554,-226"/>
<text text-anchor="middle" x="5724" y="-308.8" font-family="Times,serif" font-size="14.00">clusterServerID_76c96688d7&#45;8jks8</text>
</g>
<g id="clust4" class="cluster"><title>clusterServerID_8665dd9487&#45;lgsqw</title>
<polygon fill="none" stroke="black" points="4864,-226 4864,-324 5208,-324 5208,-226 4864,-226"/>
<text text-anchor="middle" x="5036" y="-308.8" font-family="Times,serif" font-size="14.00">clusterServerID_8665dd9487&#45;lgsqw</text>
</g>
<g id="clust5" class="cluster"><title>clusterServerID_90667071e782</title>
<polygon fill="none" stroke="black" points="6076,-95 6076,-324 7484,-324 7484,-95 6076,-95"/>
<text text-anchor="middle" x="6780" y="-308.8" font-family="Times,serif" font-size="14.00">clusterServerID_90667071e782</text>
</g>
<g id="clust6" class="cluster"><title>clusterServerID_OuterContainerID</title>
<polygon fill="none" stroke="black" points="1344,-8 1344,-193 6068,-193 6068,-8 1344,-8"/>
<text text-anchor="middle" x="3706" y="-177.8" font-family="Times,serif" font-size="14.00">clusterServerID_OuterContainerID</text>
</g>
<g id="clust7" class="cluster"><title>clusterServerID_c437f7cecfb6</title>
<polygon fill="none" stroke="black" points="8101,-95 8101,-324 8675,-324 8675,-95 8101,-95"/>
<text text-anchor="middle" x="8388" y="-308.8" font-family="Times,serif" font-size="14.00">clusterServerID_c437f7cecfb6</text>
</g>
<g id="clust8" class="cluster"><title>clusterServerID_e56b6537e2d5</title>
<polygon fill="none" stroke="black" points="7492,-8 7492,-324 8093,-324 8093,-8 7492,-8"/>
<text text-anchor="middle" x="7792.5" y="-308.8" font-family="Times,serif" font-size="14.00">clusterServerID_e56b6537e2d5</text>
</g>
<!-- 10.1.80.247:33362#ServerID_OuterContainerID -->
<g id="node1" class="node"><title>10.1.80.247:33362#ServerID_OuterContainerID</title>
<polygon fill="none" stroke="black" points="2376,-139 2040.52,-121 2376,-103 2711.48,-121 2376,-139"/>
<text text-anchor="middle" x="2376" y="-117.3" font-family="Times,serif" font-size="14.00">10.1.80.247:33362#ServerID_OuterContainerID</text>
</g>
<!-- 1_fwatchdog#ServerID_6df85d7674&#45;2kqrj -->
<g id="node2" class="node"><title>1_fwatchdog#ServerID_6df85d7674&#45;2kqrj</title>
<polygon fill="none" stroke="black" points="2036.5,-270 1715.5,-270 1715.5,-234 2036.5,-234 2036.5,-270"/>
<text text-anchor="middle" x="1876" y="-248.3" font-family="Times,serif" font-size="14.00">1_fwatchdog#ServerID_6df85d7674&#45;2kqrj</text>
</g>
<!-- 10.1.80.247:33362#ServerID_OuterContainerID&#45;&gt;1_fwatchdog#ServerID_6df85d7674&#45;2kqrj -->
<g id="edge1" class="edge"><title>10.1.80.247:33362#ServerID_OuterContainerID&#45;&gt;1_fwatchdog#ServerID_6df85d7674&#45;2kqrj</title>
<path fill="none" stroke="black" d="M2323.31,-136.187C2256.08,-153.514 2135.9,-181.889 2031,-193 2017.35,-194.445 1052.66,-191.257 1043,-201 1038.31,-205.733 1038.39,-211.188 1043,-216 1065.53,-239.496 1467.83,-247.254 1704.97,-249.789"/>
<polygon fill="black" stroke="black" points="1705.05,-253.29 1715.08,-249.895 1705.12,-246.291 1705.05,-253.29"/>
<text text-anchor="middle" x="1063" y="-204.8" font-family="Times,serif" font-size="14.00">POST</text>
</g>
<!-- 1_fwatchdog#ServerID_34e86192c217 -->
<g id="node9" class="node"><title>1_fwatchdog#ServerID_34e86192c217</title>
<polygon fill="none" stroke="black" points="521.5,-139 222.5,-139 222.5,-103 521.5,-103 521.5,-139"/>
<text text-anchor="middle" x="372" y="-117.3" font-family="Times,serif" font-size="14.00">1_fwatchdog#ServerID_34e86192c217</text>
</g>
<!-- 10.1.80.247:33362#ServerID_OuterContainerID&#45;&gt;1_fwatchdog#ServerID_34e86192c217 -->
<g id="edge14" class="edge"><title>10.1.80.247:33362#ServerID_OuterContainerID&#45;&gt;1_fwatchdog#ServerID_34e86192c217</title>
<path fill="none" stroke="black" d="M2320.98,-136.092C2253.34,-153.802 2134.75,-182.131 2031,-193 1865.24,-210.364 693.899,-228.239 531,-193 487.6,-183.611 441.789,-161.381 410.547,-144.085"/>
<polygon fill="black" stroke="black" points="412.168,-140.982 401.737,-139.125 408.734,-147.081 412.168,-140.982"/>
<text text-anchor="middle" x="1682" y="-204.8" font-family="Times,serif" font-size="14.00">read</text>
</g>
<!-- 1_fwatchdog#ServerID_6df85d7674&#45;2kqrj&#45;&gt;10.1.80.247:33362#ServerID_OuterContainerID -->
<g id="edge10" class="edge"><title>1_fwatchdog#ServerID_6df85d7674&#45;2kqrj&#45;&gt;10.1.80.247:33362#ServerID_OuterContainerID</title>
<path fill="none" stroke="black" d="M1715.46,-249.294C1495.93,-246.158 1126.71,-237.678 1106,-216 1101.39,-211.18 1101.31,-205.734 1106,-201 1115.05,-191.876 2018.22,-194.357 2031,-193 2130.98,-182.382 2244.84,-156.117 2313.51,-138.683"/>
<polygon fill="black" stroke="black" points="2314.49,-142.046 2323.31,-136.178 2312.76,-135.264 2314.49,-142.046"/>
<text text-anchor="middle" x="1148" y="-204.8" font-family="Times,serif" font-size="14.00">RESPONSE</text>
</g>
<!-- 10.1.80.247:8080#ServerID_OuterContainerID -->
<g id="node5" class="node"><title>10.1.80.247:8080#ServerID_OuterContainerID</title>
<polygon fill="none" stroke="black" points="4355,-139 4027.56,-121 4355,-103 4682.44,-121 4355,-139"/>
<text text-anchor="middle" x="4355" y="-117.3" font-family="Times,serif" font-size="14.00">10.1.80.247:8080#ServerID_OuterContainerID</text>
</g>
<!-- 1_fwatchdog#ServerID_6df85d7674&#45;2kqrj&#45;&gt;10.1.80.247:8080#ServerID_OuterContainerID -->
<g id="edge5" class="edge"><title>1_fwatchdog#ServerID_6df85d7674&#45;2kqrj&#45;&gt;10.1.80.247:8080#ServerID_OuterContainerID</title>
<path fill="none" stroke="black" d="M2036.75,-250.798C2466.65,-249.595 3636.07,-241.796 4019,-193 4115.06,-180.76 4224.47,-155.473 4291.63,-138.621"/>
<polygon fill="black" stroke="black" points="4292.79,-141.937 4301.63,-136.095 4291.08,-135.151 4292.79,-141.937"/>
<text text-anchor="middle" x="3942" y="-204.8" font-family="Times,serif" font-size="14.00">POST</text>
</g>
<!-- gateway:8080#ServerID_OuterContainerID -->
<g id="node6" class="node"><title>gateway:8080#ServerID_OuterContainerID</title>
<polygon fill="none" stroke="black" points="3034,-139 2729.52,-121 3034,-103 3338.48,-121 3034,-139"/>
<text text-anchor="middle" x="3034" y="-117.3" font-family="Times,serif" font-size="14.00">gateway:8080#ServerID_OuterContainerID</text>
</g>
<!-- 1_fwatchdog#ServerID_6df85d7674&#45;2kqrj&#45;&gt;gateway:8080#ServerID_OuterContainerID -->
<g id="edge7" class="edge"><title>1_fwatchdog#ServerID_6df85d7674&#45;2kqrj&#45;&gt;gateway:8080#ServerID_OuterContainerID</title>
<path fill="none" stroke="black" d="M2036.62,-247.301C2207.01,-241.667 2483.67,-227.629 2720,-193 2809.1,-179.944 2910.44,-155.196 2973.3,-138.646"/>
<polygon fill="black" stroke="black" points="2974.29,-142.007 2983.06,-136.063 2972.49,-135.24 2974.29,-142.007"/>
<text text-anchor="middle" x="2673" y="-204.8" font-family="Times,serif" font-size="14.00">POST</text>
</g>
<!-- 1_fwatchdog#ServerID_8665dd9487&#45;lgsqw -->
<g id="node3" class="node"><title>1_fwatchdog#ServerID_8665dd9487&#45;lgsqw</title>
<polygon fill="none" stroke="black" points="5200.5,-270 4871.5,-270 4871.5,-234 5200.5,-234 5200.5,-270"/>
<text text-anchor="middle" x="5036" y="-248.3" font-family="Times,serif" font-size="14.00">1_fwatchdog#ServerID_8665dd9487&#45;lgsqw</text>
</g>
<!-- 10.1.80.247:39550#ServerID_OuterContainerID -->
<g id="node4" class="node"><title>10.1.80.247:39550#ServerID_OuterContainerID</title>
<polygon fill="none" stroke="black" points="5036,-139 4700.52,-121 5036,-103 5371.48,-121 5036,-139"/>
<text text-anchor="middle" x="5036" y="-117.3" font-family="Times,serif" font-size="14.00">10.1.80.247:39550#ServerID_OuterContainerID</text>
</g>
<!-- 1_fwatchdog#ServerID_8665dd9487&#45;lgsqw&#45;&gt;10.1.80.247:39550#ServerID_OuterContainerID -->
<g id="edge2" class="edge"><title>1_fwatchdog#ServerID_8665dd9487&#45;lgsqw&#45;&gt;10.1.80.247:39550#ServerID_OuterContainerID</title>
<path fill="none" stroke="black" d="M5000.26,-233.861C4993.73,-229.032 4987.78,-223.108 4984,-216 4980.87,-210.115 4982.09,-207.386 4984,-201 4990.03,-180.883 5003.01,-161.148 5014.5,-146.435"/>
<polygon fill="black" stroke="black" points="5017.44,-148.359 5021.02,-138.388 5012,-143.951 5017.44,-148.359"/>
<text text-anchor="middle" x="5026" y="-204.8" font-family="Times,serif" font-size="14.00">RESPONSE</text>
</g>
<!-- 10.1.80.247:39550#ServerID_OuterContainerID&#45;&gt;1_fwatchdog#ServerID_8665dd9487&#45;lgsqw -->
<g id="edge3" class="edge"><title>10.1.80.247:39550#ServerID_OuterContainerID&#45;&gt;1_fwatchdog#ServerID_8665dd9487&#45;lgsqw</title>
<path fill="none" stroke="black" d="M5048.69,-138.453C5061.63,-157.337 5078.42,-189.162 5068,-216 5066.64,-219.507 5064.74,-222.876 5062.55,-226.046"/>
<polygon fill="black" stroke="black" points="5059.75,-223.944 5056.2,-233.928 5065.2,-228.335 5059.75,-223.944"/>
<text text-anchor="middle" x="5091" y="-204.8" font-family="Times,serif" font-size="14.00">POST</text>
</g>
<!-- 10.1.80.247:8080#ServerID_OuterContainerID&#45;&gt;1_fwatchdog#ServerID_6df85d7674&#45;2kqrj -->
<g id="edge4" class="edge"><title>10.1.80.247:8080#ServerID_OuterContainerID&#45;&gt;1_fwatchdog#ServerID_6df85d7674&#45;2kqrj</title>
<path fill="none" stroke="black" d="M4303.42,-136.176C4237.9,-153.421 4121.07,-181.636 4019,-193 3953.62,-200.279 3492.77,-199.496 3427,-201 2925.24,-212.477 2332.42,-233.728 2046.77,-244.45"/>
<polygon fill="black" stroke="black" points="2046.6,-240.954 2036.73,-244.827 2046.86,-247.949 2046.6,-240.954"/>
<text text-anchor="middle" x="3469" y="-204.8" font-family="Times,serif" font-size="14.00">RESPONSE</text>
</g>
<!-- 10.1.80.1:53634#ServerID_OuterContainerID -->
<g id="node27" class="node"><title>10.1.80.1:53634#ServerID_OuterContainerID</title>
<polygon fill="none" stroke="black" points="4292,-52 3973.1,-34 4292,-16 4610.9,-34 4292,-52"/>
<text text-anchor="middle" x="4292" y="-30.3" font-family="Times,serif" font-size="14.00">10.1.80.1:53634#ServerID_OuterContainerID</text>
</g>
<!-- 10.1.80.247:8080#ServerID_OuterContainerID&#45;&gt;10.1.80.1:53634#ServerID_OuterContainerID -->
<g id="edge29" class="edge"><title>10.1.80.247:8080#ServerID_OuterContainerID&#45;&gt;10.1.80.1:53634#ServerID_OuterContainerID</title>
<path fill="none" stroke="black" d="M4349.77,-103.242C4346.09,-93.0254 4340.47,-80.0459 4333,-70 4329.72,-65.5876 4325.79,-61.3571 4321.67,-57.4574"/>
<polygon fill="black" stroke="black" points="4323.98,-54.8282 4314.17,-50.8274 4319.34,-60.0728 4323.98,-54.8282"/>
<text text-anchor="middle" x="4384" y="-73.8" font-family="Times,serif" font-size="14.00">RESPONSE</text>
</g>
<!-- 10.0.88.125:31112#ServerID_OuterContainerID -->
<g id="node28" class="node"><title>10.0.88.125:31112#ServerID_OuterContainerID</title>
<polygon fill="none" stroke="black" points="4964,-52 4628.52,-34 4964,-16 5299.48,-34 4964,-52"/>
<text text-anchor="middle" x="4964" y="-30.3" font-family="Times,serif" font-size="14.00">10.0.88.125:31112#ServerID_OuterContainerID</text>
</g>
<!-- 10.1.80.247:8080#ServerID_OuterContainerID&#45;&gt;10.0.88.125:31112#ServerID_OuterContainerID -->
<g id="edge30" class="edge"><title>10.1.80.247:8080#ServerID_OuterContainerID&#45;&gt;10.0.88.125:31112#ServerID_OuterContainerID</title>
<path fill="none" stroke="black" d="M4442.58,-107.776C4554.68,-92.1304 4748.36,-65.0981 4865.48,-48.7502"/>
<polygon fill="black" stroke="black" points="4866.11,-52.1974 4875.53,-47.3486 4865.14,-45.2646 4866.11,-52.1974"/>
<text text-anchor="middle" x="4738" y="-73.8" font-family="Times,serif" font-size="14.00">RESPONSE</text>
</g>
<!-- gateway:8080#ServerID_OuterContainerID&#45;&gt;1_fwatchdog#ServerID_6df85d7674&#45;2kqrj -->
<g id="edge6" class="edge"><title>gateway:8080#ServerID_OuterContainerID&#45;&gt;1_fwatchdog#ServerID_6df85d7674&#45;2kqrj</title>
<path fill="none" stroke="black" d="M2986.15,-136.238C2925.06,-153.618 2815.79,-182.048 2720,-193 2709.6,-194.189 1220.38,-193.58 1213,-201 1208.3,-205.727 1208.41,-211.163 1213,-216 1229.79,-233.702 1514.49,-243.3 1705.3,-247.769"/>
<polygon fill="black" stroke="black" points="1705.37,-251.271 1715.45,-248.004 1705.54,-244.273 1705.37,-251.271"/>
<text text-anchor="middle" x="1255" y="-204.8" font-family="Times,serif" font-size="14.00">RESPONSE</text>
</g>
<!-- 10_node#ServerID_34e86192c217 -->
<g id="node13" class="node"><title>10_node#ServerID_34e86192c217</title>
<polygon fill="none" stroke="black" points="1327.5,-52 1060.5,-52 1060.5,-16 1327.5,-16 1327.5,-52"/>
<text text-anchor="middle" x="1194" y="-30.3" font-family="Times,serif" font-size="14.00">10_node#ServerID_34e86192c217</text>
</g>
<!-- gateway:8080#ServerID_OuterContainerID&#45;&gt;10_node#ServerID_34e86192c217 -->
<g id="edge21" class="edge"><title>gateway:8080#ServerID_OuterContainerID&#45;&gt;10_node#ServerID_34e86192c217</title>
<path fill="none" stroke="black" d="M2923.67,-109.508C2863.52,-104.219 2787.73,-98.252 2720,-95 2450.94,-82.0819 2383.25,-92.9601 2114,-85 1769.84,-74.8253 1683.23,-79.2627 1340,-52 1339.24,-51.9394 1338.47,-51.8779 1337.7,-51.8154"/>
<polygon fill="black" stroke="black" points="1337.89,-48.3186 1327.63,-50.9567 1337.3,-55.2934 1337.89,-48.3186"/>
<text text-anchor="middle" x="2130.5" y="-73.8" font-family="Times,serif" font-size="14.00">read</text>
</g>
<!-- 10.1.80.247:45038#ServerID_OuterContainerID -->
<g id="node7" class="node"><title>10.1.80.247:45038#ServerID_OuterContainerID</title>
<polygon fill="none" stroke="black" points="5725,-139 5389.52,-121 5725,-103 6060.48,-121 5725,-139"/>
<text text-anchor="middle" x="5725" y="-117.3" font-family="Times,serif" font-size="14.00">10.1.80.247:45038#ServerID_OuterContainerID</text>
</g>
<!-- 1_fwatchdog#ServerID_76c96688d7&#45;8jks8 -->
<g id="node8" class="node"><title>1_fwatchdog#ServerID_76c96688d7&#45;8jks8</title>
<polygon fill="none" stroke="black" points="5886.5,-270 5561.5,-270 5561.5,-234 5886.5,-234 5886.5,-270"/>
<text text-anchor="middle" x="5724" y="-248.3" font-family="Times,serif" font-size="14.00">1_fwatchdog#ServerID_76c96688d7&#45;8jks8</text>
</g>
<!-- 10.1.80.247:45038#ServerID_OuterContainerID&#45;&gt;1_fwatchdog#ServerID_76c96688d7&#45;8jks8 -->
<g id="edge8" class="edge"><title>10.1.80.247:45038#ServerID_OuterContainerID&#45;&gt;1_fwatchdog#ServerID_76c96688d7&#45;8jks8</title>
<path fill="none" stroke="black" d="M5712.75,-138.425C5700.27,-157.284 5684.04,-189.085 5694,-216 5695.23,-219.328 5696.94,-222.554 5698.91,-225.612"/>
<polygon fill="black" stroke="black" points="5696.22,-227.86 5705.04,-233.736 5701.81,-223.644 5696.22,-227.86"/>
<text text-anchor="middle" x="5714" y="-204.8" font-family="Times,serif" font-size="14.00">POST</text>
</g>
<!-- 1_fwatchdog#ServerID_76c96688d7&#45;8jks8&#45;&gt;10.1.80.247:45038#ServerID_OuterContainerID -->
<g id="edge9" class="edge"><title>1_fwatchdog#ServerID_76c96688d7&#45;8jks8&#45;&gt;10.1.80.247:45038#ServerID_OuterContainerID</title>
<path fill="none" stroke="black" d="M5729.96,-233.759C5731.61,-228.165 5733.18,-221.883 5734,-216 5737.15,-193.502 5734.25,-167.817 5730.93,-148.988"/>
<polygon fill="black" stroke="black" points="5734.34,-148.197 5729.03,-139.034 5727.47,-149.514 5734.34,-148.197"/>
<text text-anchor="middle" x="5778" y="-204.8" font-family="Times,serif" font-size="14.00">RESPONSE</text>
</g>
<!-- localhost:3000#ServerID_34e86192c217 -->
<g id="node10" class="node"><title>localhost:3000#ServerID_34e86192c217</title>
<polygon fill="none" stroke="black" points="303,-52 16.4457,-34 303,-16 589.554,-34 303,-52"/>
<text text-anchor="middle" x="303" y="-30.3" font-family="Times,serif" font-size="14.00">localhost:3000#ServerID_34e86192c217</text>
</g>
<!-- 1_fwatchdog#ServerID_34e86192c217&#45;&gt;localhost:3000#ServerID_34e86192c217 -->
<g id="edge11" class="edge"><title>1_fwatchdog#ServerID_34e86192c217&#45;&gt;localhost:3000#ServerID_34e86192c217</title>
<path fill="none" stroke="black" d="M358.037,-102.799C347.832,-90.228 333.858,-73.014 322.545,-59.0774"/>
<polygon fill="black" stroke="black" points="325.26,-56.8683 316.24,-51.3103 319.825,-61.2801 325.26,-56.8683"/>
<text text-anchor="middle" x="361" y="-73.8" font-family="Times,serif" font-size="14.00">write</text>
</g>
<!-- pipe:[331683132]#ServerID_34e86192c217 -->
<g id="node12" class="node"><title>pipe:[331683132]#ServerID_34e86192c217</title>
<ellipse fill="none" stroke="black" cx="825" cy="-34" rx="217.162" ry="18"/>
<text text-anchor="middle" x="825" y="-30.3" font-family="Times,serif" font-size="14.00">pipe:[331683132]#ServerID_34e86192c217</text>
</g>
<!-- 1_fwatchdog#ServerID_34e86192c217&#45;&gt;pipe:[331683132]#ServerID_34e86192c217 -->
<g id="edge13" class="edge"><title>1_fwatchdog#ServerID_34e86192c217&#45;&gt;pipe:[331683132]#ServerID_34e86192c217</title>
<path fill="none" stroke="black" d="M462.854,-102.952C540.876,-88.3124 652.895,-67.2934 731.635,-52.5188"/>
<polygon fill="black" stroke="black" points="732.368,-55.9425 741.551,-50.6583 731.077,-49.0626 732.368,-55.9425"/>
<text text-anchor="middle" x="645" y="-73.8" font-family="Times,serif" font-size="14.00">write</text>
</g>
<!-- 10.1.80.247:33262#ServerID_OuterContainerID -->
<g id="node11" class="node"><title>10.1.80.247:33262#ServerID_OuterContainerID</title>
<polygon fill="none" stroke="black" points="1687,-139 1351.52,-121 1687,-103 2022.48,-121 1687,-139"/>
<text text-anchor="middle" x="1687" y="-117.3" font-family="Times,serif" font-size="14.00">10.1.80.247:33262#ServerID_OuterContainerID</text>
</g>
<!-- 10.1.80.247:33262#ServerID_OuterContainerID&#45;&gt;1_fwatchdog#ServerID_34e86192c217 -->
<g id="edge12" class="edge"><title>10.1.80.247:33262#ServerID_OuterContainerID&#45;&gt;1_fwatchdog#ServerID_34e86192c217</title>
<path fill="none" stroke="black" d="M1619.93,-135.43C1550.11,-150.331 1437.53,-174.017 1340,-193 1340,-193 531,-193 531,-193 487.602,-183.602 441.791,-161.373 410.548,-144.08"/>
<polygon fill="black" stroke="black" points="412.169,-140.977 401.738,-139.121 408.735,-147.076 412.169,-140.977"/>
<text text-anchor="middle" x="1318" y="-204.8" font-family="Times,serif" font-size="14.00">read</text>
</g>
<!-- 10_node#ServerID_34e86192c217&#45;&gt;gateway:8080#ServerID_OuterContainerID -->
<g id="edge15" class="edge"><title>10_node#ServerID_34e86192c217&#45;&gt;gateway:8080#ServerID_OuterContainerID</title>
<path fill="none" stroke="black" d="M1327.62,-51.0663C1331.79,-51.4054 1335.93,-51.7183 1340,-52 1699.67,-76.8764 1790.66,-58.0866 2151,-70 2403.99,-78.3645 2467.35,-79.3968 2720,-95 2782.05,-98.8318 2850.9,-104.19 2908.29,-108.963"/>
<polygon fill="black" stroke="black" points="2908.24,-112.472 2918.5,-109.817 2908.82,-105.496 2908.24,-112.472"/>
<text text-anchor="middle" x="2573" y="-73.8" font-family="Times,serif" font-size="14.00">connect</text>
</g>
<!-- 10.152.183.10:53#ServerID_OuterContainerID -->
<g id="node24" class="node"><title>10.152.183.10:53#ServerID_OuterContainerID</title>
<polygon fill="none" stroke="black" points="3683,-139 3355.56,-121 3683,-103 4010.44,-121 3683,-139"/>
<text text-anchor="middle" x="3683" y="-117.3" font-family="Times,serif" font-size="14.00">10.152.183.10:53#ServerID_OuterContainerID</text>
</g>
<!-- 10_node#ServerID_34e86192c217&#45;&gt;10.152.183.10:53#ServerID_OuterContainerID -->
<g id="edge24" class="edge"><title>10_node#ServerID_34e86192c217&#45;&gt;10.152.183.10:53#ServerID_OuterContainerID</title>
<path fill="none" stroke="black" d="M1327.62,-51.1091C1331.79,-51.4358 1335.93,-51.7345 1340,-52 1620.77,-70.2944 2324.72,-63.2561 2606,-70 2935.43,-77.8983 3017.96,-77.2156 3347,-95 3414.09,-98.626 3488.61,-104.031 3550.39,-108.888"/>
<polygon fill="black" stroke="black" points="3550.34,-112.395 3560.59,-109.694 3550.9,-105.417 3550.34,-112.395"/>
<text text-anchor="middle" x="3156.5" y="-73.8" font-family="Times,serif" font-size="14.00">sendto</text>
</g>
<!-- /home/app/node_modules#ServerID_90667071e782 -->
<g id="node14" class="node"><title>/home/app/node_modules#ServerID_90667071e782</title>
<ellipse fill="none" stroke="black" cx="7223" cy="-252" rx="252.655" ry="18"/>
<text text-anchor="middle" x="7223" y="-248.3" font-family="Times,serif" font-size="14.00">/home/app/node_modules#ServerID_90667071e782</text>
</g>
<!-- 15_node#ServerID_90667071e782 -->
<g id="node15" class="node"><title>15_node#ServerID_90667071e782</title>
<polygon fill="none" stroke="black" points="6888,-139 6620,-139 6620,-103 6888,-103 6888,-139"/>
<text text-anchor="middle" x="6754" y="-117.3" font-family="Times,serif" font-size="14.00">15_node#ServerID_90667071e782</text>
</g>
<!-- /home/app/node_modules#ServerID_90667071e782&#45;&gt;15_node#ServerID_90667071e782 -->
<g id="edge16" class="edge"><title>/home/app/node_modules#ServerID_90667071e782&#45;&gt;15_node#ServerID_90667071e782</title>
<path fill="none" stroke="black" d="M7162.65,-234.4C7076.36,-210.665 6917.99,-167.106 6825.79,-141.747"/>
<polygon fill="black" stroke="black" points="6826.56,-138.327 6815.99,-139.049 6824.7,-145.076 6826.56,-138.327"/>
<text text-anchor="middle" x="7101.5" y="-204.8" font-family="Times,serif" font-size="14.00">read</text>
</g>
<!-- localhost:3000#ServerID_e56b6537e2d5 -->
<g id="node16" class="node"><title>localhost:3000#ServerID_e56b6537e2d5</title>
<polygon fill="none" stroke="black" points="7792,-270 7505.45,-252 7792,-234 8078.55,-252 7792,-270"/>
<text text-anchor="middle" x="7792" y="-248.3" font-family="Times,serif" font-size="14.00">localhost:3000#ServerID_e56b6537e2d5</text>
</g>
<!-- 12_node#ServerID_e56b6537e2d5 -->
<g id="node17" class="node"><title>12_node#ServerID_e56b6537e2d5</title>
<polygon fill="none" stroke="black" points="7767.5,-139 7500.5,-139 7500.5,-103 7767.5,-103 7767.5,-139"/>
<text text-anchor="middle" x="7634" y="-117.3" font-family="Times,serif" font-size="14.00">12_node#ServerID_e56b6537e2d5</text>
</g>
<!-- localhost:3000#ServerID_e56b6537e2d5&#45;&gt;12_node#ServerID_e56b6537e2d5 -->
<g id="edge17" class="edge"><title>localhost:3000#ServerID_e56b6537e2d5&#45;&gt;12_node#ServerID_e56b6537e2d5</title>
<path fill="none" stroke="black" d="M7772.63,-235.182C7745.24,-212.825 7695.01,-171.812 7663.12,-145.777"/>
<polygon fill="black" stroke="black" points="7665,-142.793 7655.04,-139.18 7660.58,-148.216 7665,-142.793"/>
<text text-anchor="middle" x="7762.5" y="-204.8" font-family="Times,serif" font-size="14.00">read</text>
</g>
<!-- 1_fwatchdog#ServerID_e56b6537e2d5 -->
<g id="node20" class="node"><title>1_fwatchdog#ServerID_e56b6537e2d5</title>
<polygon fill="none" stroke="black" points="8084.5,-139 7785.5,-139 7785.5,-103 8084.5,-103 8084.5,-139"/>
<text text-anchor="middle" x="7935" y="-117.3" font-family="Times,serif" font-size="14.00">1_fwatchdog#ServerID_e56b6537e2d5</text>
</g>
<!-- localhost:3000#ServerID_e56b6537e2d5&#45;&gt;1_fwatchdog#ServerID_e56b6537e2d5 -->
<g id="edge19" class="edge"><title>localhost:3000#ServerID_e56b6537e2d5&#45;&gt;1_fwatchdog#ServerID_e56b6537e2d5</title>
<path fill="none" stroke="black" d="M7809.82,-234.923C7834.6,-212.574 7879.63,-171.948 7908.39,-146.003"/>
<polygon fill="black" stroke="black" points="7910.96,-148.399 7916.04,-139.102 7906.27,-143.202 7910.96,-148.399"/>
<text text-anchor="middle" x="7863.5" y="-204.8" font-family="Times,serif" font-size="14.00">read</text>
</g>
<!-- 1_fwatchdog#ServerID_c437f7cecfb6 -->
<g id="node18" class="node"><title>1_fwatchdog#ServerID_c437f7cecfb6</title>
<polygon fill="none" stroke="black" points="8533,-270 8243,-270 8243,-234 8533,-234 8533,-270"/>
<text text-anchor="middle" x="8388" y="-248.3" font-family="Times,serif" font-size="14.00">1_fwatchdog#ServerID_c437f7cecfb6</text>
</g>
<!-- localhost:3000#ServerID_c437f7cecfb6 -->
<g id="node19" class="node"><title>localhost:3000#ServerID_c437f7cecfb6</title>
<polygon fill="none" stroke="black" points="8388,-139 8109.49,-121 8388,-103 8666.51,-121 8388,-139"/>
<text text-anchor="middle" x="8388" y="-117.3" font-family="Times,serif" font-size="14.00">localhost:3000#ServerID_c437f7cecfb6</text>
</g>
<!-- 1_fwatchdog#ServerID_c437f7cecfb6&#45;&gt;localhost:3000#ServerID_c437f7cecfb6 -->
<g id="edge18" class="edge"><title>1_fwatchdog#ServerID_c437f7cecfb6&#45;&gt;localhost:3000#ServerID_c437f7cecfb6</title>
<path fill="none" stroke="black" d="M8388,-233.87C8388,-212.281 8388,-174.912 8388,-149.352"/>
<polygon fill="black" stroke="black" points="8391.5,-149.201 8388,-139.201 8384.5,-149.201 8391.5,-149.201"/>
<text text-anchor="middle" x="8417" y="-204.8" font-family="Times,serif" font-size="14.00">connect</text>
</g>
<!-- pipe:[331682317]#ServerID_e56b6537e2d5 -->
<g id="node21" class="node"><title>pipe:[331682317]#ServerID_e56b6537e2d5</title>
<ellipse fill="none" stroke="black" cx="7868" cy="-34" rx="217.162" ry="18"/>
<text text-anchor="middle" x="7868" y="-30.3" font-family="Times,serif" font-size="14.00">pipe:[331682317]#ServerID_e56b6537e2d5</text>
</g>
<!-- 1_fwatchdog#ServerID_e56b6537e2d5&#45;&gt;pipe:[331682317]#ServerID_e56b6537e2d5 -->
<g id="edge20" class="edge"><title>1_fwatchdog#ServerID_e56b6537e2d5&#45;&gt;pipe:[331682317]#ServerID_e56b6537e2d5</title>
<path fill="none" stroke="black" d="M7921.44,-102.799C7911.82,-90.5865 7898.73,-73.9921 7887.92,-60.2776"/>
<polygon fill="black" stroke="black" points="7890.48,-57.8623 7881.54,-52.1754 7884.98,-62.1957 7890.48,-57.8623"/>
<text text-anchor="middle" x="7925" y="-73.8" font-family="Times,serif" font-size="14.00">write</text>
</g>
<!-- /etc/hosts#ServerID_34e86192c217 -->
<g id="node22" class="node"><title>/etc/hosts#ServerID_34e86192c217</title>
<ellipse fill="none" stroke="black" cx="1148" cy="-121" rx="180.068" ry="18"/>
<text text-anchor="middle" x="1148" y="-117.3" font-family="Times,serif" font-size="14.00">/etc/hosts#ServerID_34e86192c217</text>
</g>
<!-- /etc/hosts#ServerID_34e86192c217&#45;&gt;10_node#ServerID_34e86192c217 -->
<g id="edge22" class="edge"><title>/etc/hosts#ServerID_34e86192c217&#45;&gt;10_node#ServerID_34e86192c217</title>
<path fill="none" stroke="black" d="M1157.31,-102.799C1163.79,-90.8169 1172.56,-74.6168 1179.9,-61.0569"/>
<polygon fill="black" stroke="black" points="1183.02,-62.636 1184.71,-52.1754 1176.87,-59.3043 1183.02,-62.636"/>
<text text-anchor="middle" x="1190.5" y="-73.8" font-family="Times,serif" font-size="14.00">read</text>
</g>
<!-- /etc/resolv.conf#ServerID_34e86192c217 -->
<g id="node23" class="node"><title>/etc/resolv.conf#ServerID_34e86192c217</title>
<ellipse fill="none" stroke="black" cx="745" cy="-121" rx="205.264" ry="18"/>
<text text-anchor="middle" x="745" y="-117.3" font-family="Times,serif" font-size="14.00">/etc/resolv.conf#ServerID_34e86192c217</text>
</g>
<!-- /etc/resolv.conf#ServerID_34e86192c217&#45;&gt;10_node#ServerID_34e86192c217 -->
<g id="edge23" class="edge"><title>/etc/resolv.conf#ServerID_34e86192c217&#45;&gt;10_node#ServerID_34e86192c217</title>
<path fill="none" stroke="black" d="M827.092,-104.459C902.201,-90.2404 1013.53,-69.165 1093.84,-53.9608"/>
<polygon fill="black" stroke="black" points="1094.8,-57.3422 1103.97,-52.0432 1093.5,-50.4644 1094.8,-57.3422"/>
<text text-anchor="middle" x="1013.5" y="-73.8" font-family="Times,serif" font-size="14.00">read</text>
</g>
<!-- 10.152.183.10:53#ServerID_OuterContainerID&#45;&gt;10_node#ServerID_34e86192c217 -->
<g id="edge25" class="edge"><title>10.152.183.10:53#ServerID_OuterContainerID&#45;&gt;10_node#ServerID_34e86192c217</title>
<path fill="none" stroke="black" d="M3589.58,-108.076C3489.65,-95.9184 3326.42,-77.7734 3185,-70 2775.6,-47.4967 1749.21,-77.7471 1340,-52 1339.24,-51.9519 1338.47,-51.9026 1337.7,-51.8522"/>
<polygon fill="black" stroke="black" points="1337.84,-48.3532 1327.62,-51.1331 1337.34,-55.3355 1337.84,-48.3532"/>
<text text-anchor="middle" x="3410" y="-73.8" font-family="Times,serif" font-size="14.00">recvfrom</text>
</g>
<!-- /etc/localtime#ServerID_90667071e782 -->
<g id="node25" class="node"><title>/etc/localtime#ServerID_90667071e782</title>
<ellipse fill="none" stroke="black" cx="6754" cy="-252" rx="198.465" ry="18"/>
<text text-anchor="middle" x="6754" y="-248.3" font-family="Times,serif" font-size="14.00">/etc/localtime#ServerID_90667071e782</text>
</g>
<!-- /etc/localtime#ServerID_90667071e782&#45;&gt;15_node#ServerID_90667071e782 -->
<g id="edge26" class="edge"><title>/etc/localtime#ServerID_90667071e782&#45;&gt;15_node#ServerID_90667071e782</title>
<path fill="none" stroke="black" d="M6754,-233.87C6754,-212.281 6754,-174.912 6754,-149.352"/>
<polygon fill="black" stroke="black" points="6757.5,-149.201 6754,-139.201 6750.5,-149.201 6757.5,-149.201"/>
<text text-anchor="middle" x="6770.5" y="-204.8" font-family="Times,serif" font-size="14.00">read</text>
</g>
<!-- /usr/share/zoneinfo/#ServerID_90667071e782 -->
<g id="node26" class="node"><title>/usr/share/zoneinfo/#ServerID_90667071e782</title>
<ellipse fill="none" stroke="black" cx="6311" cy="-252" rx="226.66" ry="18"/>
<text text-anchor="middle" x="6311" y="-248.3" font-family="Times,serif" font-size="14.00">/usr/share/zoneinfo/#ServerID_90667071e782</text>
</g>
<!-- /usr/share/zoneinfo/#ServerID_90667071e782&#45;&gt;15_node#ServerID_90667071e782 -->
<g id="edge27" class="edge"><title>/usr/share/zoneinfo/#ServerID_90667071e782&#45;&gt;15_node#ServerID_90667071e782</title>
<path fill="none" stroke="black" d="M6367.56,-234.531C6448.75,-210.888 6598.16,-167.381 6685.5,-141.946"/>
<polygon fill="black" stroke="black" points="6686.69,-145.245 6695.32,-139.088 6684.74,-138.524 6686.69,-145.245"/>
<text text-anchor="middle" x="6496.5" y="-204.8" font-family="Times,serif" font-size="14.00">read</text>
</g>
<!-- 10.1.80.1:53634#ServerID_OuterContainerID&#45;&gt;10.1.80.247:8080#ServerID_OuterContainerID -->
<g id="edge28" class="edge"><title>10.1.80.1:53634#ServerID_OuterContainerID&#45;&gt;10.1.80.247:8080#ServerID_OuterContainerID</title>
<path fill="none" stroke="black" d="M4288.34,-51.9032C4287.04,-62.1749 4287.12,-75.1609 4293,-85 4296.33,-90.5711 4300.9,-95.3292 4306.06,-99.3735"/>
<polygon fill="black" stroke="black" points="4304.33,-102.43 4314.57,-105.155 4308.27,-96.64 4304.33,-102.43"/>
<text text-anchor="middle" x="4313" y="-73.8" font-family="Times,serif" font-size="14.00">POST</text>
</g>
</g>
</svg>
