<?xml version="1.0" encoding="UTF-8" standalone="no"?>
<!DOCTYPE svg PUBLIC "-//W3C//DTD SVG 1.1//EN"
 "http://www.w3.org/Graphics/SVG/1.1/DTD/svg11.dtd">
<!-- Generated by graphviz version 2.38.0 (20140413.2041)
 -->
<!-- Title: G Pages: 1 -->
<svg width="5088pt" height="597pt"
 viewBox="0.00 0.00 5088.00 597.00" xmlns="http://www.w3.org/2000/svg" xmlns:xlink="http://www.w3.org/1999/xlink">
<g id="graph0" class="graph" transform="scale(1 1) rotate(0) translate(4 593)">
<title>G</title>
<polygon fill="white" stroke="none" points="-4,4 -4,-593 5084,-593 5084,4 -4,4"/>
<g id="clust1" class="cluster"><title>clusterServerID_6dcbcc88d5&#45;4vpdn</title>
<polygon fill="none" stroke="black" points="819,-398 819,-473 1163,-473 1163,-398 819,-398"/>
<text text-anchor="middle" x="991" y="-457.8" font-family="Times,serif" font-size="14.00">clusterServerID_6dcbcc88d5&#45;4vpdn</text>
</g>
<g id="clust2" class="cluster"><title>clusterServerID_76c96688d7&#45;2rgjp</title>
<polygon fill="none" stroke="black" points="3592,-398 3592,-473 3932,-473 3932,-398 3592,-398"/>
<text text-anchor="middle" x="3762" y="-457.8" font-family="Times,serif" font-size="14.00">clusterServerID_76c96688d7&#45;2rgjp</text>
</g>
<g id="clust3" class="cluster"><title>clusterServerID_8665dd9487&#45;x4b6d</title>
<polygon fill="none" stroke="black" points="2104,-398 2104,-473 2452,-473 2452,-398 2104,-398"/>
<text text-anchor="middle" x="2278" y="-457.8" font-family="Times,serif" font-size="14.00">clusterServerID_8665dd9487&#45;x4b6d</text>
</g>
<g id="clust4" class="cluster"><title>clusterServerID_8df4e6f0b536</title>
<polygon fill="none" stroke="black" points="4052,-8 4052,-257 5072,-257 5072,-8 4052,-8"/>
<text text-anchor="middle" x="4562" y="-241.8" font-family="Times,serif" font-size="14.00">clusterServerID_8df4e6f0b536</text>
</g>
<g id="clust5" class="cluster"><title>clusterServerID_OuterContainerID</title>
<polygon fill="none" stroke="black" points="8,-182 8,-365 4044,-365 4044,-182 8,-182"/>
<text text-anchor="middle" x="2026" y="-349.8" font-family="Times,serif" font-size="14.00">clusterServerID_OuterContainerID</text>
</g>
<g id="clust6" class="cluster"><title>clusterServerID_d4de233c55aa</title>
<polygon fill="none" stroke="black" points="2466,-398 2466,-581 3581,-581 3581,-398 2466,-398"/>
<text text-anchor="middle" x="3023.5" y="-565.8" font-family="Times,serif" font-size="14.00">clusterServerID_d4de233c55aa</text>
</g>
<!-- gateway:8080#ServerID_OuterContainerID -->
<g id="node1" class="node"><title>gateway:8080#ServerID_OuterContainerID</title>
<polygon fill="none" stroke="black" points="992,-334 687.518,-316 992,-298 1296.48,-316 992,-334"/>
<text text-anchor="middle" x="992" y="-312.3" font-family="Times,serif" font-size="14.00">gateway:8080#ServerID_OuterContainerID</text>
</g>
<!-- 1_fwatchdog#ServerID_6dcbcc88d5&#45;4vpdn -->
<g id="node2" class="node"><title>1_fwatchdog#ServerID_6dcbcc88d5&#45;4vpdn</title>
<polygon fill="none" stroke="black" points="1155.5,-442 826.5,-442 826.5,-406 1155.5,-406 1155.5,-442"/>
<text text-anchor="middle" x="991" y="-420.3" font-family="Times,serif" font-size="14.00">1_fwatchdog#ServerID_6dcbcc88d5&#45;4vpdn</text>
</g>
<!-- gateway:8080#ServerID_OuterContainerID&#45;&gt;1_fwatchdog#ServerID_6dcbcc88d5&#45;4vpdn -->
<g id="edge1" class="edge"><title>gateway:8080#ServerID_OuterContainerID&#45;&gt;1_fwatchdog#ServerID_6dcbcc88d5&#45;4vpdn</title>
<path fill="none" stroke="black" d="M996.681,-333.944C1000.05,-348.339 1003.59,-369.543 1001,-388 1000.64,-390.574 1000.14,-393.224 999.547,-395.859"/>
<polygon fill="black" stroke="black" points="996.102,-395.198 996.955,-405.759 1002.87,-396.971 996.102,-395.198"/>
<text text-anchor="middle" x="1044" y="-376.8" font-family="Times,serif" font-size="14.00">RESPONSE</text>
</g>
<!-- 1_fwatchdog#ServerID_6dcbcc88d5&#45;4vpdn&#45;&gt;gateway:8080#ServerID_OuterContainerID -->
<g id="edge6" class="edge"><title>1_fwatchdog#ServerID_6dcbcc88d5&#45;4vpdn&#45;&gt;gateway:8080#ServerID_OuterContainerID</title>
<path fill="none" stroke="black" d="M969.203,-405.762C964.256,-400.629 959.675,-394.594 957,-388 954.493,-381.822 955.162,-379.408 957,-373 960.162,-361.976 966.196,-351.017 972.376,-341.755"/>
<polygon fill="black" stroke="black" points="975.335,-343.633 978.257,-333.449 969.622,-339.588 975.335,-343.633"/>
<text text-anchor="middle" x="977" y="-376.8" font-family="Times,serif" font-size="14.00">POST</text>
</g>
<!-- 10.1.80.247:34582#ServerID_OuterContainerID -->
<g id="node5" class="node"><title>10.1.80.247:34582#ServerID_OuterContainerID</title>
<polygon fill="none" stroke="black" points="1650,-334 1314.52,-316 1650,-298 1985.48,-316 1650,-334"/>
<text text-anchor="middle" x="1650" y="-312.3" font-family="Times,serif" font-size="14.00">10.1.80.247:34582#ServerID_OuterContainerID</text>
</g>
<!-- 1_fwatchdog#ServerID_6dcbcc88d5&#45;4vpdn&#45;&gt;10.1.80.247:34582#ServerID_OuterContainerID -->
<g id="edge11" class="edge"><title>1_fwatchdog#ServerID_6dcbcc88d5&#45;4vpdn&#45;&gt;10.1.80.247:34582#ServerID_OuterContainerID</title>
<path fill="none" stroke="black" d="M1096.88,-405.969C1225.34,-385.306 1439.66,-350.833 1560.34,-331.422"/>
<polygon fill="black" stroke="black" points="1560.97,-334.865 1570.29,-329.822 1559.86,-327.954 1560.97,-334.865"/>
<text text-anchor="middle" x="1343" y="-376.8" font-family="Times,serif" font-size="14.00">RESPONSE</text>
</g>
<!-- 10.1.80.247:8080#ServerID_OuterContainerID -->
<g id="node6" class="node"><title>10.1.80.247:8080#ServerID_OuterContainerID</title>
<polygon fill="none" stroke="black" points="343,-334 15.5599,-316 343,-298 670.44,-316 343,-334"/>
<text text-anchor="middle" x="343" y="-312.3" font-family="Times,serif" font-size="14.00">10.1.80.247:8080#ServerID_OuterContainerID</text>
</g>
<!-- 1_fwatchdog#ServerID_6dcbcc88d5&#45;4vpdn&#45;&gt;10.1.80.247:8080#ServerID_OuterContainerID -->
<g id="edge5" class="edge"><title>1_fwatchdog#ServerID_6dcbcc88d5&#45;4vpdn&#45;&gt;10.1.80.247:8080#ServerID_OuterContainerID</title>
<path fill="none" stroke="black" d="M826.188,-416.454C751.472,-411.546 662.29,-402.97 583,-388 516.291,-375.405 441.616,-351.739 393.544,-335.206"/>
<polygon fill="black" stroke="black" points="394.593,-331.865 383.999,-331.896 392.3,-338.479 394.593,-331.865"/>
<text text-anchor="middle" x="603" y="-376.8" font-family="Times,serif" font-size="14.00">POST</text>
</g>
<!-- 1_fwatchdog#ServerID_8665dd9487&#45;x4b6d -->
<g id="node3" class="node"><title>1_fwatchdog#ServerID_8665dd9487&#45;x4b6d</title>
<polygon fill="none" stroke="black" points="2443.5,-442 2112.5,-442 2112.5,-406 2443.5,-406 2443.5,-442"/>
<text text-anchor="middle" x="2278" y="-420.3" font-family="Times,serif" font-size="14.00">1_fwatchdog#ServerID_8665dd9487&#45;x4b6d</text>
</g>
<!-- 10.1.80.247:38206#ServerID_OuterContainerID -->
<g id="node4" class="node"><title>10.1.80.247:38206#ServerID_OuterContainerID</title>
<polygon fill="none" stroke="black" points="2339,-334 2003.52,-316 2339,-298 2674.48,-316 2339,-334"/>
<text text-anchor="middle" x="2339" y="-312.3" font-family="Times,serif" font-size="14.00">10.1.80.247:38206#ServerID_OuterContainerID</text>
</g>
<!-- 1_fwatchdog#ServerID_8665dd9487&#45;x4b6d&#45;&gt;10.1.80.247:38206#ServerID_OuterContainerID -->
<g id="edge2" class="edge"><title>1_fwatchdog#ServerID_8665dd9487&#45;x4b6d&#45;&gt;10.1.80.247:38206#ServerID_OuterContainerID</title>
<path fill="none" stroke="black" d="M2301.17,-405.91C2306.99,-400.699 2312.78,-394.587 2317,-388 2325.54,-374.667 2330.95,-357.801 2334.27,-343.854"/>
<polygon fill="black" stroke="black" points="2337.74,-344.376 2336.41,-333.864 2330.89,-342.906 2337.74,-344.376"/>
<text text-anchor="middle" x="2367" y="-376.8" font-family="Times,serif" font-size="14.00">RESPONSE</text>
</g>
<!-- 10.1.80.247:38206#ServerID_OuterContainerID&#45;&gt;1_fwatchdog#ServerID_8665dd9487&#45;x4b6d -->
<g id="edge4" class="edge"><title>10.1.80.247:38206#ServerID_OuterContainerID&#45;&gt;1_fwatchdog#ServerID_8665dd9487&#45;x4b6d</title>
<path fill="none" stroke="black" d="M2311.04,-332.594C2296.81,-342.203 2280.89,-355.954 2273,-373 2269.77,-379.967 2269.36,-388.052 2270.2,-395.663"/>
<polygon fill="black" stroke="black" points="2266.77,-396.375 2271.98,-405.6 2273.66,-395.139 2266.77,-396.375"/>
<text text-anchor="middle" x="2293" y="-376.8" font-family="Times,serif" font-size="14.00">POST</text>
</g>
<!-- 1_fwatchdog#ServerID_8df4e6f0b536 -->
<g id="node15" class="node"><title>1_fwatchdog#ServerID_8df4e6f0b536</title>
<polygon fill="none" stroke="black" points="4486,-226 4194,-226 4194,-190 4486,-190 4486,-226"/>
<text text-anchor="middle" x="4340" y="-204.3" font-family="Times,serif" font-size="14.00">1_fwatchdog#ServerID_8df4e6f0b536</text>
</g>
<!-- 10.1.80.247:38206#ServerID_OuterContainerID&#45;&gt;1_fwatchdog#ServerID_8df4e6f0b536 -->
<g id="edge18" class="edge"><title>10.1.80.247:38206#ServerID_OuterContainerID&#45;&gt;1_fwatchdog#ServerID_8df4e6f0b536</title>
<path fill="none" stroke="black" d="M2498.28,-306.512C2556.68,-303.569 2623.33,-300.406 2684,-298 3290.02,-273.963 3444.33,-315.429 4048,-257 4114.21,-250.592 4188.14,-238.387 4245.04,-227.889"/>
<polygon fill="black" stroke="black" points="4245.91,-231.287 4255.1,-226.018 4244.63,-224.405 4245.91,-231.287"/>
<text text-anchor="middle" x="3960.5" y="-268.8" font-family="Times,serif" font-size="14.00">read</text>
</g>
<!-- 10.1.80.247:34582#ServerID_OuterContainerID&#45;&gt;1_fwatchdog#ServerID_6dcbcc88d5&#45;4vpdn -->
<g id="edge3" class="edge"><title>10.1.80.247:34582#ServerID_OuterContainerID&#45;&gt;1_fwatchdog#ServerID_6dcbcc88d5&#45;4vpdn</title>
<path fill="none" stroke="black" d="M1614.33,-332.104C1573.15,-348.824 1502.97,-375.111 1440,-388 1350.57,-406.307 1249.32,-415.195 1165.63,-419.449"/>
<polygon fill="black" stroke="black" points="1165.33,-415.959 1155.52,-419.945 1165.67,-422.951 1165.33,-415.959"/>
<text text-anchor="middle" x="1519" y="-376.8" font-family="Times,serif" font-size="14.00">POST</text>
</g>
<!-- 1_fwatchdog#ServerID_d4de233c55aa -->
<g id="node9" class="node"><title>1_fwatchdog#ServerID_d4de233c55aa</title>
<polygon fill="none" stroke="black" points="3572.5,-550 3275.5,-550 3275.5,-514 3572.5,-514 3572.5,-550"/>
<text text-anchor="middle" x="3424" y="-528.3" font-family="Times,serif" font-size="14.00">1_fwatchdog#ServerID_d4de233c55aa</text>
</g>
<!-- 10.1.80.247:34582#ServerID_OuterContainerID&#45;&gt;1_fwatchdog#ServerID_d4de233c55aa -->
<g id="edge12" class="edge"><title>10.1.80.247:34582#ServerID_OuterContainerID&#45;&gt;1_fwatchdog#ServerID_d4de233c55aa</title>
<path fill="none" stroke="black" d="M1723.73,-330.093C1793.38,-341.787 1900.91,-358.102 1995,-365 2213.31,-381.005 2761.22,-365.997 2980,-373 3029.72,-374.591 3392.82,-361.857 3427,-398 3453.4,-425.921 3444.22,-473.729 3434.55,-503.78"/>
<polygon fill="black" stroke="black" points="3431.12,-503.012 3431.17,-513.607 3437.73,-505.29 3431.12,-503.012"/>
<text text-anchor="middle" x="3461.5" y="-420.3" font-family="Times,serif" font-size="14.00">read</text>
</g>
<!-- 10.1.80.247:8080#ServerID_OuterContainerID&#45;&gt;1_fwatchdog#ServerID_6dcbcc88d5&#45;4vpdn -->
<g id="edge7" class="edge"><title>10.1.80.247:8080#ServerID_OuterContainerID&#45;&gt;1_fwatchdog#ServerID_6dcbcc88d5&#45;4vpdn</title>
<path fill="none" stroke="black" d="M420.9,-329.743C534.351,-348.301 745.759,-382.883 876.812,-404.321"/>
<polygon fill="black" stroke="black" points="876.454,-407.809 886.888,-405.969 877.584,-400.901 876.454,-407.809"/>
<text text-anchor="middle" x="805" y="-376.8" font-family="Times,serif" font-size="14.00">RESPONSE</text>
</g>
<!-- 10.1.80.1:18161#ServerID_OuterContainerID -->
<g id="node19" class="node"><title>10.1.80.1:18161#ServerID_OuterContainerID</title>
<polygon fill="none" stroke="black" points="335,-226 16.1049,-208 335,-190 653.895,-208 335,-226"/>
<text text-anchor="middle" x="335" y="-204.3" font-family="Times,serif" font-size="14.00">10.1.80.1:18161#ServerID_OuterContainerID</text>
</g>
<!-- 10.1.80.247:8080#ServerID_OuterContainerID&#45;&gt;10.1.80.1:18161#ServerID_OuterContainerID -->
<g id="edge25" class="edge"><title>10.1.80.247:8080#ServerID_OuterContainerID&#45;&gt;10.1.80.1:18161#ServerID_OuterContainerID</title>
<path fill="none" stroke="black" d="M345.928,-297.962C346.775,-292.269 347.582,-285.878 348,-280 348.473,-273.35 348.759,-271.623 348,-265 346.894,-255.346 344.749,-244.935 342.515,-235.74"/>
<polygon fill="black" stroke="black" points="345.886,-234.793 340.006,-225.98 339.106,-236.536 345.886,-234.793"/>
<text text-anchor="middle" x="391" y="-268.8" font-family="Times,serif" font-size="14.00">RESPONSE</text>
</g>
<!-- 10.0.88.125:31112#ServerID_OuterContainerID -->
<g id="node20" class="node"><title>10.0.88.125:31112#ServerID_OuterContainerID</title>
<polygon fill="none" stroke="black" points="1007,-226 671.515,-208 1007,-190 1342.48,-208 1007,-226"/>
<text text-anchor="middle" x="1007" y="-204.3" font-family="Times,serif" font-size="14.00">10.0.88.125:31112#ServerID_OuterContainerID</text>
</g>
<!-- 10.1.80.247:8080#ServerID_OuterContainerID&#45;&gt;10.0.88.125:31112#ServerID_OuterContainerID -->
<g id="edge26" class="edge"><title>10.1.80.247:8080#ServerID_OuterContainerID&#45;&gt;10.0.88.125:31112#ServerID_OuterContainerID</title>
<path fill="none" stroke="black" d="M422.434,-302.319C546.818,-282.463 786.788,-244.154 917.247,-223.328"/>
<polygon fill="black" stroke="black" points="917.893,-226.769 927.216,-221.737 916.789,-219.857 917.893,-226.769"/>
<text text-anchor="middle" x="698" y="-268.8" font-family="Times,serif" font-size="14.00">RESPONSE</text>
</g>
<!-- 10.1.80.247:45464#ServerID_OuterContainerID -->
<g id="node7" class="node"><title>10.1.80.247:45464#ServerID_OuterContainerID</title>
<polygon fill="none" stroke="black" points="3701,-334 3365.52,-316 3701,-298 4036.48,-316 3701,-334"/>
<text text-anchor="middle" x="3701" y="-312.3" font-family="Times,serif" font-size="14.00">10.1.80.247:45464#ServerID_OuterContainerID</text>
</g>
<!-- 1_fwatchdog#ServerID_76c96688d7&#45;2rgjp -->
<g id="node8" class="node"><title>1_fwatchdog#ServerID_76c96688d7&#45;2rgjp</title>
<polygon fill="none" stroke="black" points="3924,-442 3600,-442 3600,-406 3924,-406 3924,-442"/>
<text text-anchor="middle" x="3762" y="-420.3" font-family="Times,serif" font-size="14.00">1_fwatchdog#ServerID_76c96688d7&#45;2rgjp</text>
</g>
<!-- 10.1.80.247:45464#ServerID_OuterContainerID&#45;&gt;1_fwatchdog#ServerID_76c96688d7&#45;2rgjp -->
<g id="edge8" class="edge"><title>10.1.80.247:45464#ServerID_OuterContainerID&#45;&gt;1_fwatchdog#ServerID_76c96688d7&#45;2rgjp</title>
<path fill="none" stroke="black" d="M3696.47,-334.009C3693.42,-349.217 3691.49,-371.573 3701,-388 3703.51,-392.329 3706.77,-396.168 3710.49,-399.564"/>
<polygon fill="black" stroke="black" points="3708.62,-402.545 3718.66,-405.927 3712.92,-397.022 3708.62,-402.545"/>
<text text-anchor="middle" x="3721" y="-376.8" font-family="Times,serif" font-size="14.00">POST</text>
</g>
<!-- 1_fwatchdog#ServerID_76c96688d7&#45;2rgjp&#45;&gt;10.1.80.247:45464#ServerID_OuterContainerID -->
<g id="edge9" class="edge"><title>1_fwatchdog#ServerID_76c96688d7&#45;2rgjp&#45;&gt;10.1.80.247:45464#ServerID_OuterContainerID</title>
<path fill="none" stroke="black" d="M3755.9,-405.893C3752.12,-396.024 3746.87,-383.524 3741,-373 3735.03,-362.296 3727.42,-351.177 3720.44,-341.696"/>
<polygon fill="black" stroke="black" points="3723.09,-339.393 3714.28,-333.507 3717.5,-343.602 3723.09,-339.393"/>
<text text-anchor="middle" x="3791" y="-376.8" font-family="Times,serif" font-size="14.00">RESPONSE</text>
</g>
<!-- localhost:3000#ServerID_d4de233c55aa -->
<g id="node10" class="node"><title>localhost:3000#ServerID_d4de233c55aa</title>
<polygon fill="none" stroke="black" points="3132,-442 2846.28,-424 3132,-406 3417.72,-424 3132,-442"/>
<text text-anchor="middle" x="3132" y="-420.3" font-family="Times,serif" font-size="14.00">localhost:3000#ServerID_d4de233c55aa</text>
</g>
<!-- 1_fwatchdog#ServerID_d4de233c55aa&#45;&gt;localhost:3000#ServerID_d4de233c55aa -->
<g id="edge10" class="edge"><title>1_fwatchdog#ServerID_d4de233c55aa&#45;&gt;localhost:3000#ServerID_d4de233c55aa</title>
<path fill="none" stroke="black" d="M3377.09,-513.969C3323.55,-494.536 3236.37,-462.887 3181.7,-443.042"/>
<polygon fill="black" stroke="black" points="3182.81,-439.722 3172.22,-439.6 3180.42,-446.302 3182.81,-439.722"/>
<text text-anchor="middle" x="3341" y="-484.8" font-family="Times,serif" font-size="14.00">write</text>
</g>
<!-- /etc/hosts#ServerID_d4de233c55aa -->
<g id="node11" class="node"><title>/etc/hosts#ServerID_d4de233c55aa</title>
<ellipse fill="none" stroke="black" cx="3079" cy="-532" rx="178.969" ry="18"/>
<text text-anchor="middle" x="3079" y="-528.3" font-family="Times,serif" font-size="14.00">/etc/hosts#ServerID_d4de233c55aa</text>
</g>
<!-- 10_node#ServerID_d4de233c55aa -->
<g id="node12" class="node"><title>10_node#ServerID_d4de233c55aa</title>
<polygon fill="none" stroke="black" points="2828,-442 2562,-442 2562,-406 2828,-406 2828,-442"/>
<text text-anchor="middle" x="2695" y="-420.3" font-family="Times,serif" font-size="14.00">10_node#ServerID_d4de233c55aa</text>
</g>
<!-- /etc/hosts#ServerID_d4de233c55aa&#45;&gt;10_node#ServerID_d4de233c55aa -->
<g id="edge13" class="edge"><title>/etc/hosts#ServerID_d4de233c55aa&#45;&gt;10_node#ServerID_d4de233c55aa</title>
<path fill="none" stroke="black" d="M3006.81,-515.501C2958.47,-504.68 2893.56,-489.302 2837,-473 2808.62,-464.82 2777.49,-454.459 2751.63,-445.457"/>
<polygon fill="black" stroke="black" points="2752.59,-442.085 2741.99,-442.082 2750.28,-448.691 2752.59,-442.085"/>
<text text-anchor="middle" x="2939.5" y="-484.8" font-family="Times,serif" font-size="14.00">read</text>
</g>
<!-- 10_node#ServerID_d4de233c55aa&#45;&gt;gateway:8080#ServerID_OuterContainerID -->
<g id="edge17" class="edge"><title>10_node#ServerID_d4de233c55aa&#45;&gt;gateway:8080#ServerID_OuterContainerID</title>
<path fill="none" stroke="black" d="M2561.79,-407.265C2527.37,-403.694 2490.34,-400.286 2456,-398 2424.11,-395.878 1337.83,-367.878 1306,-365 1225.32,-357.704 1133.85,-342.977 1070.53,-331.749"/>
<polygon fill="black" stroke="black" points="1071.07,-328.291 1060.62,-329.979 1069.84,-335.182 1071.07,-328.291"/>
<text text-anchor="middle" x="2108" y="-376.8" font-family="Times,serif" font-size="14.00">connect</text>
</g>
<!-- 10.152.183.10:53#ServerID_OuterContainerID -->
<g id="node13" class="node"><title>10.152.183.10:53#ServerID_OuterContainerID</title>
<polygon fill="none" stroke="black" points="3020,-334 2692.56,-316 3020,-298 3347.44,-316 3020,-334"/>
<text text-anchor="middle" x="3020" y="-312.3" font-family="Times,serif" font-size="14.00">10.152.183.10:53#ServerID_OuterContainerID</text>
</g>
<!-- 10_node#ServerID_d4de233c55aa&#45;&gt;10.152.183.10:53#ServerID_OuterContainerID -->
<g id="edge14" class="edge"><title>10_node#ServerID_d4de233c55aa&#45;&gt;10.152.183.10:53#ServerID_OuterContainerID</title>
<path fill="none" stroke="black" d="M2735.85,-405.893C2760.81,-395.731 2793.49,-382.932 2823,-373 2866.62,-358.319 2916.49,-344.168 2955.14,-333.764"/>
<polygon fill="black" stroke="black" points="2956.46,-337.033 2965.22,-331.067 2954.65,-330.271 2956.46,-337.033"/>
<text text-anchor="middle" x="2847.5" y="-376.8" font-family="Times,serif" font-size="14.00">sendto</text>
</g>
<!-- 10.152.183.10:53#ServerID_OuterContainerID&#45;&gt;10_node#ServerID_d4de233c55aa -->
<g id="edge16" class="edge"><title>10.152.183.10:53#ServerID_OuterContainerID&#45;&gt;10_node#ServerID_d4de233c55aa</title>
<path fill="none" stroke="black" d="M2992.78,-332.643C2963.73,-348.711 2915.94,-373.377 2872,-388 2858.18,-392.599 2831.05,-398.475 2802.1,-404.093"/>
<polygon fill="black" stroke="black" points="2801.39,-400.665 2792.22,-405.986 2802.7,-407.54 2801.39,-400.665"/>
<text text-anchor="middle" x="2943" y="-376.8" font-family="Times,serif" font-size="14.00">recvfrom</text>
</g>
<!-- /etc/resolv.conf#ServerID_d4de233c55aa -->
<g id="node14" class="node"><title>/etc/resolv.conf#ServerID_d4de233c55aa</title>
<ellipse fill="none" stroke="black" cx="2678" cy="-532" rx="204.164" ry="18"/>
<text text-anchor="middle" x="2678" y="-528.3" font-family="Times,serif" font-size="14.00">/etc/resolv.conf#ServerID_d4de233c55aa</text>
</g>
<!-- /etc/resolv.conf#ServerID_d4de233c55aa&#45;&gt;10_node#ServerID_d4de233c55aa -->
<g id="edge15" class="edge"><title>/etc/resolv.conf#ServerID_d4de233c55aa&#45;&gt;10_node#ServerID_d4de233c55aa</title>
<path fill="none" stroke="black" d="M2680.73,-513.969C2683.39,-497.378 2687.48,-471.883 2690.6,-452.431"/>
<polygon fill="black" stroke="black" points="2694.09,-452.769 2692.22,-442.341 2687.18,-451.66 2694.09,-452.769"/>
<text text-anchor="middle" x="2702.5" y="-484.8" font-family="Times,serif" font-size="14.00">read</text>
</g>
<!-- localhost:3000#ServerID_8df4e6f0b536 -->
<g id="node16" class="node"><title>localhost:3000#ServerID_8df4e6f0b536</title>
<polygon fill="none" stroke="black" points="4340,-139 4059.81,-121 4340,-103 4620.19,-121 4340,-139"/>
<text text-anchor="middle" x="4340" y="-117.3" font-family="Times,serif" font-size="14.00">localhost:3000#ServerID_8df4e6f0b536</text>
</g>
<!-- 1_fwatchdog#ServerID_8df4e6f0b536&#45;&gt;localhost:3000#ServerID_8df4e6f0b536 -->
<g id="edge19" class="edge"><title>1_fwatchdog#ServerID_8df4e6f0b536&#45;&gt;localhost:3000#ServerID_8df4e6f0b536</title>
<path fill="none" stroke="black" d="M4340,-189.799C4340,-178.163 4340,-162.548 4340,-149.237"/>
<polygon fill="black" stroke="black" points="4343.5,-149.175 4340,-139.175 4336.5,-149.175 4343.5,-149.175"/>
<text text-anchor="middle" x="4369" y="-160.8" font-family="Times,serif" font-size="14.00">connect</text>
</g>
<!-- 1_fwatchdog#ServerID_8df4e6f0b536&#45;&gt;localhost:3000#ServerID_8df4e6f0b536 -->
<g id="edge22" class="edge"><title>1_fwatchdog#ServerID_8df4e6f0b536&#45;&gt;localhost:3000#ServerID_8df4e6f0b536</title>
<path fill="none" stroke="black" d="M4381.64,-189.892C4388.59,-185.144 4394.87,-179.244 4399,-172 4405.69,-160.245 4397.98,-149.999 4386.16,-141.893"/>
<polygon fill="black" stroke="black" points="4387.82,-138.807 4377.45,-136.632 4384.2,-144.799 4387.82,-138.807"/>
<text text-anchor="middle" x="4420" y="-160.8" font-family="Times,serif" font-size="14.00">write</text>
</g>
<!-- pipe:[273416825]#ServerID_8df4e6f0b536 -->
<g id="node18" class="node"><title>pipe:[273416825]#ServerID_8df4e6f0b536</title>
<ellipse fill="none" stroke="black" cx="4851" cy="-121" rx="212.562" ry="18"/>
<text text-anchor="middle" x="4851" y="-117.3" font-family="Times,serif" font-size="14.00">pipe:[273416825]#ServerID_8df4e6f0b536</text>
</g>
<!-- 1_fwatchdog#ServerID_8df4e6f0b536&#45;&gt;pipe:[273416825]#ServerID_8df4e6f0b536 -->
<g id="edge23" class="edge"><title>1_fwatchdog#ServerID_8df4e6f0b536&#45;&gt;pipe:[273416825]#ServerID_8df4e6f0b536</title>
<path fill="none" stroke="black" d="M4442.49,-189.952C4531.56,-175.136 4659.91,-153.786 4748.87,-138.988"/>
<polygon fill="black" stroke="black" points="4749.69,-142.4 4758.98,-137.307 4748.54,-135.495 4749.69,-142.4"/>
<text text-anchor="middle" x="4645" y="-160.8" font-family="Times,serif" font-size="14.00">write</text>
</g>
<!-- localhost:3000#ServerID_8df4e6f0b536&#45;&gt;1_fwatchdog#ServerID_8df4e6f0b536 -->
<g id="edge21" class="edge"><title>localhost:3000#ServerID_8df4e6f0b536&#45;&gt;1_fwatchdog#ServerID_8df4e6f0b536</title>
<path fill="none" stroke="black" d="M4316.9,-137.918C4306.5,-147.195 4297.62,-159.503 4303,-172 4304.57,-175.642 4306.72,-179.082 4309.21,-182.279"/>
<polygon fill="black" stroke="black" points="4306.62,-184.639 4315.93,-189.702 4311.81,-179.94 4306.62,-184.639"/>
<text text-anchor="middle" x="4319.5" y="-160.8" font-family="Times,serif" font-size="14.00">read</text>
</g>
<!-- 12_node#ServerID_8df4e6f0b536 -->
<g id="node17" class="node"><title>12_node#ServerID_8df4e6f0b536</title>
<polygon fill="none" stroke="black" points="4470,-52 4210,-52 4210,-16 4470,-16 4470,-52"/>
<text text-anchor="middle" x="4340" y="-30.3" font-family="Times,serif" font-size="14.00">12_node#ServerID_8df4e6f0b536</text>
</g>
<!-- localhost:3000#ServerID_8df4e6f0b536&#45;&gt;12_node#ServerID_8df4e6f0b536 -->
<g id="edge20" class="edge"><title>localhost:3000#ServerID_8df4e6f0b536&#45;&gt;12_node#ServerID_8df4e6f0b536</title>
<path fill="none" stroke="black" d="M4340,-102.799C4340,-91.1626 4340,-75.5479 4340,-62.2368"/>
<polygon fill="black" stroke="black" points="4343.5,-62.1754 4340,-52.1754 4336.5,-62.1755 4343.5,-62.1754"/>
<text text-anchor="middle" x="4356.5" y="-73.8" font-family="Times,serif" font-size="14.00">read</text>
</g>
<!-- 10.1.80.1:18161#ServerID_OuterContainerID&#45;&gt;10.1.80.247:8080#ServerID_OuterContainerID -->
<g id="edge24" class="edge"><title>10.1.80.1:18161#ServerID_OuterContainerID&#45;&gt;10.1.80.247:8080#ServerID_OuterContainerID</title>
<path fill="none" stroke="black" d="M321.454,-225.463C311.286,-239.923 300.329,-261.481 308,-280 309.665,-284.019 312.04,-287.818 314.779,-291.325"/>
<polygon fill="black" stroke="black" points="312.368,-293.877 321.669,-298.949 317.561,-289.183 312.368,-293.877"/>
<text text-anchor="middle" x="328" y="-268.8" font-family="Times,serif" font-size="14.00">POST</text>
</g>
</g>
</svg>
