<?xml version="1.0" encoding="UTF-8" standalone="no"?>
<!DOCTYPE svg PUBLIC "-//W3C//DTD SVG 1.1//EN"
 "http://www.w3.org/Graphics/SVG/1.1/DTD/svg11.dtd">
<!-- Generated by graphviz version 2.38.0 (20140413.2041)
 -->
<!-- Title: G Pages: 1 -->
<svg width="6330pt" height="906pt"
 viewBox="0.00 0.00 6330.00 906.00" xmlns="http://www.w3.org/2000/svg" xmlns:xlink="http://www.w3.org/1999/xlink">
<g id="graph0" class="graph" transform="scale(1 1) rotate(0) translate(4 902)">
<title>G</title>
<polygon fill="white" stroke="none" points="-4,4 -4,-902 6326,-902 6326,4 -4,4"/>
<g id="clust1" class="cluster"><title>clusterServerID_5f846fd567&#45;wptbp</title>
<polygon fill="none" stroke="black" points="828,-792 828,-890 1168,-890 1168,-792 828,-792"/>
<text text-anchor="middle" x="998" y="-874.8" font-family="Times,serif" font-size="14.00">clusterServerID_5f846fd567&#45;wptbp</text>
</g>
<g id="clust2" class="cluster"><title>clusterServerID_62fde1e95276</title>
<polygon fill="none" stroke="black" points="5206,-443 5206,-759 6314,-759 6314,-443 5206,-443"/>
<text text-anchor="middle" x="5760" y="-743.8" font-family="Times,serif" font-size="14.00">clusterServerID_62fde1e95276</text>
</g>
<g id="clust3" class="cluster"><title>clusterServerID_6df85d7674&#45;kxx8d</title>
<polygon fill="none" stroke="black" points="4856,-530 4856,-628 5198,-628 5198,-530 4856,-530"/>
<text text-anchor="middle" x="5027" y="-612.8" font-family="Times,serif" font-size="14.00">clusterServerID_6df85d7674&#45;kxx8d</text>
</g>
<g id="clust4" class="cluster"><title>clusterServerID_OuterContainerID</title>
<polygon fill="none" stroke="black" points="8,-530 8,-759 3304,-759 3304,-530 8,-530"/>
<text text-anchor="middle" x="1656" y="-743.8" font-family="Times,serif" font-size="14.00">clusterServerID_OuterContainerID</text>
</g>
<g id="clust5" class="cluster"><title>clusterServerID_d4490627de97</title>
<polygon fill="none" stroke="black" points="3312,-8 3312,-628 4848,-628 4848,-8 3312,-8"/>
<text text-anchor="middle" x="4080" y="-612.8" font-family="Times,serif" font-size="14.00">clusterServerID_d4490627de97</text>
</g>
<!-- 1_fwatchdog#ServerID_5f846fd567&#45;wptbp -->
<g id="node1" class="node"><title>1_fwatchdog#ServerID_5f846fd567&#45;wptbp</title>
<polygon fill="none" stroke="black" points="1160,-836 836,-836 836,-800 1160,-800 1160,-836"/>
<text text-anchor="middle" x="998" y="-814.3" font-family="Times,serif" font-size="14.00">1_fwatchdog#ServerID_5f846fd567&#45;wptbp</text>
</g>
<!-- 10.1.80.93:56558#ServerID_OuterContainerID -->
<g id="node2" class="node"><title>10.1.80.93:56558#ServerID_OuterContainerID</title>
<polygon fill="none" stroke="black" points="999,-705 671.56,-687 999,-669 1326.44,-687 999,-705"/>
<text text-anchor="middle" x="999" y="-683.3" font-family="Times,serif" font-size="14.00">10.1.80.93:56558#ServerID_OuterContainerID</text>
</g>
<!-- 1_fwatchdog#ServerID_5f846fd567&#45;wptbp&#45;&gt;10.1.80.93:56558#ServerID_OuterContainerID -->
<g id="edge1" class="edge"><title>1_fwatchdog#ServerID_5f846fd567&#45;wptbp&#45;&gt;10.1.80.93:56558#ServerID_OuterContainerID</title>
<path fill="none" stroke="black" d="M962.261,-799.861C955.725,-795.032 949.784,-789.108 946,-782 942.867,-776.115 944.059,-773.378 946,-767 952.151,-746.792 965.385,-727.057 977.089,-712.367"/>
<polygon fill="black" stroke="black" points="980.057,-714.27 983.738,-704.335 974.665,-709.806 980.057,-714.27"/>
<text text-anchor="middle" x="988" y="-770.8" font-family="Times,serif" font-size="14.00">RESPONSE</text>
</g>
<!-- 10.1.80.93:56558#ServerID_OuterContainerID&#45;&gt;1_fwatchdog#ServerID_5f846fd567&#45;wptbp -->
<g id="edge8" class="edge"><title>10.1.80.93:56558#ServerID_OuterContainerID&#45;&gt;1_fwatchdog#ServerID_5f846fd567&#45;wptbp</title>
<path fill="none" stroke="black" d="M1011.4,-704.484C1024.03,-723.397 1040.39,-755.248 1030,-782 1028.64,-785.507 1026.74,-788.876 1024.55,-792.046"/>
<polygon fill="black" stroke="black" points="1021.75,-789.944 1018.2,-799.928 1027.2,-794.335 1021.75,-789.944"/>
<text text-anchor="middle" x="1054" y="-770.8" font-family="Times,serif" font-size="14.00">POST</text>
</g>
<!-- 1_fwatchdog#ServerID_d4490627de97 -->
<g id="node14" class="node"><title>1_fwatchdog#ServerID_d4490627de97</title>
<polygon fill="none" stroke="black" points="3952.5,-574 3653.5,-574 3653.5,-538 3952.5,-538 3952.5,-574"/>
<text text-anchor="middle" x="3803" y="-552.3" font-family="Times,serif" font-size="14.00">1_fwatchdog#ServerID_d4490627de97</text>
</g>
<!-- 10.1.80.93:56558#ServerID_OuterContainerID&#45;&gt;1_fwatchdog#ServerID_d4490627de97 -->
<g id="edge18" class="edge"><title>10.1.80.93:56558#ServerID_OuterContainerID&#45;&gt;1_fwatchdog#ServerID_d4490627de97</title>
<path fill="none" stroke="black" d="M1134.3,-676.409C1310.82,-664.379 1629.32,-644.32 1902,-636 2058.15,-631.236 3152.2,-639.562 3308,-628 3444.65,-617.859 3600.95,-593.235 3700.74,-575.841"/>
<polygon fill="black" stroke="black" points="3701.57,-579.249 3710.81,-574.076 3700.36,-572.354 3701.57,-579.249"/>
<text text-anchor="middle" x="1918.5" y="-639.8" font-family="Times,serif" font-size="14.00">read</text>
</g>
<!-- 10.1.80.93:42916#ServerID_OuterContainerID -->
<g id="node3" class="node"><title>10.1.80.93:42916#ServerID_OuterContainerID</title>
<polygon fill="none" stroke="black" points="1671,-705 1343.56,-687 1671,-669 1998.44,-687 1671,-705"/>
<text text-anchor="middle" x="1671" y="-683.3" font-family="Times,serif" font-size="14.00">10.1.80.93:42916#ServerID_OuterContainerID</text>
</g>
<!-- 1_fwatchdog#ServerID_6df85d7674&#45;kxx8d -->
<g id="node4" class="node"><title>1_fwatchdog#ServerID_6df85d7674&#45;kxx8d</title>
<polygon fill="none" stroke="black" points="5190,-574 4864,-574 4864,-538 5190,-538 5190,-574"/>
<text text-anchor="middle" x="5027" y="-552.3" font-family="Times,serif" font-size="14.00">1_fwatchdog#ServerID_6df85d7674&#45;kxx8d</text>
</g>
<!-- 10.1.80.93:42916#ServerID_OuterContainerID&#45;&gt;1_fwatchdog#ServerID_6df85d7674&#45;kxx8d -->
<g id="edge2" class="edge"><title>10.1.80.93:42916#ServerID_OuterContainerID&#45;&gt;1_fwatchdog#ServerID_6df85d7674&#45;kxx8d</title>
<path fill="none" stroke="black" d="M1772.44,-674.574C1887.01,-662.273 2079.12,-643.466 2245,-636 2281.17,-634.372 4816.47,-634.989 4852,-628 4900.08,-618.542 4951.66,-595.929 4986.27,-578.745"/>
<polygon fill="black" stroke="black" points="4988.22,-581.685 4995.57,-574.057 4985.06,-575.435 4988.22,-581.685"/>
<text text-anchor="middle" x="2265" y="-639.8" font-family="Times,serif" font-size="14.00">POST</text>
</g>
<!-- 1_fwatchdog#ServerID_62fde1e95276 -->
<g id="node5" class="node"><title>1_fwatchdog#ServerID_62fde1e95276</title>
<polygon fill="none" stroke="black" points="6305.5,-705 6010.5,-705 6010.5,-669 6305.5,-669 6305.5,-705"/>
<text text-anchor="middle" x="6158" y="-683.3" font-family="Times,serif" font-size="14.00">1_fwatchdog#ServerID_62fde1e95276</text>
</g>
<!-- 10.1.80.93:42916#ServerID_OuterContainerID&#45;&gt;1_fwatchdog#ServerID_62fde1e95276 -->
<g id="edge10" class="edge"><title>10.1.80.93:42916#ServerID_OuterContainerID&#45;&gt;1_fwatchdog#ServerID_62fde1e95276</title>
<path fill="none" stroke="black" d="M1724.55,-702.143C1790.39,-719.905 1905.85,-748.284 2007,-759 2117.33,-770.688 5892.61,-782.669 6001,-759 6043.93,-749.626 6089.15,-727.393 6119.98,-710.093"/>
<polygon fill="black" stroke="black" points="6121.72,-713.129 6128.67,-705.131 6118.25,-707.05 6121.72,-713.129"/>
<text text-anchor="middle" x="4004" y="-770.8" font-family="Times,serif" font-size="14.00">read</text>
</g>
<!-- 1_fwatchdog#ServerID_6df85d7674&#45;kxx8d&#45;&gt;10.1.80.93:42916#ServerID_OuterContainerID -->
<g id="edge17" class="edge"><title>1_fwatchdog#ServerID_6df85d7674&#45;kxx8d&#45;&gt;10.1.80.93:42916#ServerID_OuterContainerID</title>
<path fill="none" stroke="black" d="M4995.57,-574.052C4961.39,-591.551 4904.6,-617.638 4852,-628 4791.8,-639.861 2704.34,-634.312 2643,-636 2490.09,-640.207 2067.26,-663.474 1832.81,-676.736"/>
<polygon fill="black" stroke="black" points="1832.27,-673.261 1822.48,-677.321 1832.66,-680.25 1832.27,-673.261"/>
<text text-anchor="middle" x="2685" y="-639.8" font-family="Times,serif" font-size="14.00">RESPONSE</text>
</g>
<!-- gateway:8080#ServerID_OuterContainerID -->
<g id="node7" class="node"><title>gateway:8080#ServerID_OuterContainerID</title>
<polygon fill="none" stroke="black" points="2320,-705 2015.52,-687 2320,-669 2624.48,-687 2320,-705"/>
<text text-anchor="middle" x="2320" y="-683.3" font-family="Times,serif" font-size="14.00">gateway:8080#ServerID_OuterContainerID</text>
</g>
<!-- 1_fwatchdog#ServerID_6df85d7674&#45;kxx8d&#45;&gt;gateway:8080#ServerID_OuterContainerID -->
<g id="edge4" class="edge"><title>1_fwatchdog#ServerID_6df85d7674&#45;kxx8d&#45;&gt;gateway:8080#ServerID_OuterContainerID</title>
<path fill="none" stroke="black" d="M4995.57,-574.045C4961.39,-591.538 4904.59,-617.62 4852,-628 4801.2,-638.026 3039.74,-633.955 2988,-636 2795.75,-643.598 2573,-662.258 2439.46,-674.508"/>
<polygon fill="black" stroke="black" points="2438.85,-671.05 2429.21,-675.453 2439.49,-678.021 2438.85,-671.05"/>
<text text-anchor="middle" x="3008" y="-639.8" font-family="Times,serif" font-size="14.00">POST</text>
</g>
<!-- 10.1.80.93:8080#ServerID_OuterContainerID -->
<g id="node10" class="node"><title>10.1.80.93:8080#ServerID_OuterContainerID</title>
<polygon fill="none" stroke="black" points="335,-705 16.1049,-687 335,-669 653.895,-687 335,-705"/>
<text text-anchor="middle" x="335" y="-683.3" font-family="Times,serif" font-size="14.00">10.1.80.93:8080#ServerID_OuterContainerID</text>
</g>
<!-- 1_fwatchdog#ServerID_6df85d7674&#45;kxx8d&#45;&gt;10.1.80.93:8080#ServerID_OuterContainerID -->
<g id="edge9" class="edge"><title>1_fwatchdog#ServerID_6df85d7674&#45;kxx8d&#45;&gt;10.1.80.93:8080#ServerID_OuterContainerID</title>
<path fill="none" stroke="black" d="M4995.57,-574.064C4961.4,-591.574 4904.6,-617.67 4852,-628 4806.47,-636.942 1557.39,-635.042 1511,-636 1322.45,-639.893 851.393,-660.453 663,-669 609.487,-671.428 551.078,-674.363 498.573,-677.107"/>
<polygon fill="black" stroke="black" points="498.301,-673.616 488.497,-677.634 498.667,-680.606 498.301,-673.616"/>
<text text-anchor="middle" x="1531" y="-639.8" font-family="Times,serif" font-size="14.00">POST</text>
</g>
<!-- localhost:3000#ServerID_62fde1e95276 -->
<g id="node6" class="node"><title>localhost:3000#ServerID_62fde1e95276</title>
<polygon fill="none" stroke="black" points="6023,-574 5739.8,-556 6023,-538 6306.2,-556 6023,-574"/>
<text text-anchor="middle" x="6023" y="-552.3" font-family="Times,serif" font-size="14.00">localhost:3000#ServerID_62fde1e95276</text>
</g>
<!-- 1_fwatchdog#ServerID_62fde1e95276&#45;&gt;localhost:3000#ServerID_62fde1e95276 -->
<g id="edge3" class="edge"><title>1_fwatchdog#ServerID_62fde1e95276&#45;&gt;localhost:3000#ServerID_62fde1e95276</title>
<path fill="none" stroke="black" d="M6056.1,-668.929C6039.33,-664.107 6025.58,-658.169 6020,-651 6005.33,-632.149 6008.41,-604.148 6013.74,-583.61"/>
<polygon fill="black" stroke="black" points="6017.12,-584.499 6016.56,-573.919 6010.4,-582.543 6017.12,-584.499"/>
<text text-anchor="middle" x="6049" y="-639.8" font-family="Times,serif" font-size="14.00">connect</text>
</g>
<!-- 1_fwatchdog#ServerID_62fde1e95276&#45;&gt;localhost:3000#ServerID_62fde1e95276 -->
<g id="edge7" class="edge"><title>1_fwatchdog#ServerID_62fde1e95276&#45;&gt;localhost:3000#ServerID_62fde1e95276</title>
<path fill="none" stroke="black" d="M6122.9,-668.911C6114,-663.777 6104.76,-657.704 6097,-651 6073.59,-630.778 6052.37,-602.263 6038.71,-581.953"/>
<polygon fill="black" stroke="black" points="6041.59,-579.957 6033.17,-573.529 6035.74,-583.806 6041.59,-579.957"/>
<text text-anchor="middle" x="6116" y="-639.8" font-family="Times,serif" font-size="14.00">write</text>
</g>
<!-- localhost:3000#ServerID_62fde1e95276&#45;&gt;1_fwatchdog#ServerID_62fde1e95276 -->
<g id="edge6" class="edge"><title>localhost:3000#ServerID_62fde1e95276&#45;&gt;1_fwatchdog#ServerID_62fde1e95276</title>
<path fill="none" stroke="black" d="M6055.33,-572.065C6081.14,-585.561 6116.59,-607.595 6139,-636 6144.34,-642.766 6148.3,-651.198 6151.19,-659.199"/>
<polygon fill="black" stroke="black" points="6147.92,-660.476 6154.29,-668.945 6154.59,-658.354 6147.92,-660.476"/>
<text text-anchor="middle" x="6163.5" y="-639.8" font-family="Times,serif" font-size="14.00">read</text>
</g>
<!-- gateway:8080#ServerID_OuterContainerID&#45;&gt;1_fwatchdog#ServerID_6df85d7674&#45;kxx8d -->
<g id="edge16" class="edge"><title>gateway:8080#ServerID_OuterContainerID&#45;&gt;1_fwatchdog#ServerID_6df85d7674&#45;kxx8d</title>
<path fill="none" stroke="black" d="M2467.67,-677.715C2519.89,-674.854 2579.06,-671.694 2633,-669 2808.52,-660.235 2852.54,-660.924 3028,-651 3126.73,-645.415 3151.17,-639.582 3250,-636 3294.47,-634.388 4808.34,-636.632 4852,-628 4900.07,-618.495 4951.66,-595.891 4986.27,-578.721"/>
<polygon fill="black" stroke="black" points="4988.21,-581.662 4995.57,-574.037 4985.06,-575.411 4988.21,-581.662"/>
<text text-anchor="middle" x="3292" y="-639.8" font-family="Times,serif" font-size="14.00">RESPONSE</text>
</g>
<!-- 15_node#ServerID_62fde1e95276 -->
<g id="node8" class="node"><title>15_node#ServerID_62fde1e95276</title>
<polygon fill="none" stroke="black" points="5495.5,-574 5232.5,-574 5232.5,-538 5495.5,-538 5495.5,-574"/>
<text text-anchor="middle" x="5364" y="-552.3" font-family="Times,serif" font-size="14.00">15_node#ServerID_62fde1e95276</text>
</g>
<!-- 15_node#ServerID_62fde1e95276&#45;&gt;gateway:8080#ServerID_OuterContainerID -->
<g id="edge21" class="edge"><title>15_node#ServerID_62fde1e95276&#45;&gt;gateway:8080#ServerID_OuterContainerID</title>
<path fill="none" stroke="black" d="M5335.07,-574.011C5303.57,-591.476 5251.1,-617.534 5202,-628 5170.65,-634.682 4080.05,-635.515 4048,-636 3890.75,-638.379 2790.15,-662.901 2633,-669 2580.49,-671.038 2523.06,-673.957 2471.89,-676.803"/>
<polygon fill="black" stroke="black" points="2471.54,-673.317 2461.75,-677.371 2471.93,-680.306 2471.54,-673.317"/>
<text text-anchor="middle" x="4077" y="-639.8" font-family="Times,serif" font-size="14.00">connect</text>
</g>
<!-- pipe:[18737782]#ServerID_62fde1e95276 -->
<g id="node9" class="node"><title>pipe:[18737782]#ServerID_62fde1e95276</title>
<ellipse fill="none" stroke="black" cx="5423" cy="-469" rx="208.763" ry="18"/>
<text text-anchor="middle" x="5423" y="-465.3" font-family="Times,serif" font-size="14.00">pipe:[18737782]#ServerID_62fde1e95276</text>
</g>
<!-- 15_node#ServerID_62fde1e95276&#45;&gt;pipe:[18737782]#ServerID_62fde1e95276 -->
<g id="edge5" class="edge"><title>15_node#ServerID_62fde1e95276&#45;&gt;pipe:[18737782]#ServerID_62fde1e95276</title>
<path fill="none" stroke="black" d="M5375.94,-537.799C5384.34,-525.702 5395.72,-509.305 5405.18,-495.667"/>
<polygon fill="black" stroke="black" points="5408.25,-497.386 5411.08,-487.175 5402.5,-493.395 5408.25,-497.386"/>
<text text-anchor="middle" x="5417" y="-508.8" font-family="Times,serif" font-size="14.00">write</text>
</g>
<!-- 10.152.183.10:53#ServerID_OuterContainerID -->
<g id="node13" class="node"><title>10.152.183.10:53#ServerID_OuterContainerID</title>
<polygon fill="none" stroke="black" points="2969,-705 2641.56,-687 2969,-669 3296.44,-687 2969,-705"/>
<text text-anchor="middle" x="2969" y="-683.3" font-family="Times,serif" font-size="14.00">10.152.183.10:53#ServerID_OuterContainerID</text>
</g>
<!-- 15_node#ServerID_62fde1e95276&#45;&gt;10.152.183.10:53#ServerID_OuterContainerID -->
<g id="edge13" class="edge"><title>15_node#ServerID_62fde1e95276&#45;&gt;10.152.183.10:53#ServerID_OuterContainerID</title>
<path fill="none" stroke="black" d="M5334.76,-574.093C5303.21,-591.49 5250.91,-617.367 5202,-628 5173.17,-634.267 4700.5,-635.345 4671,-636 4128.48,-648.055 3488.86,-668.531 3170.36,-679.152"/>
<polygon fill="black" stroke="black" points="3169.97,-675.663 3160.09,-679.495 3170.2,-682.659 3169.97,-675.663"/>
<text text-anchor="middle" x="4695.5" y="-639.8" font-family="Times,serif" font-size="14.00">sendto</text>
</g>
<!-- 10.1.80.93:8080#ServerID_OuterContainerID&#45;&gt;1_fwatchdog#ServerID_6df85d7674&#45;kxx8d -->
<g id="edge15" class="edge"><title>10.1.80.93:8080#ServerID_OuterContainerID&#45;&gt;1_fwatchdog#ServerID_6df85d7674&#45;kxx8d</title>
<path fill="none" stroke="black" d="M445.298,-675.214C576.932,-662.917 803.775,-643.543 999,-636 1052.47,-633.934 4799.49,-638.304 4852,-628 4900.08,-618.566 4951.67,-595.949 4986.28,-578.757"/>
<polygon fill="black" stroke="black" points="4988.22,-581.697 4995.57,-574.067 4985.07,-575.447 4988.22,-581.697"/>
<text text-anchor="middle" x="1041" y="-639.8" font-family="Times,serif" font-size="14.00">RESPONSE</text>
</g>
<!-- 10.1.80.1:53713#ServerID_OuterContainerID -->
<g id="node26" class="node"><title>10.1.80.1:53713#ServerID_OuterContainerID</title>
<polygon fill="none" stroke="black" points="335,-574 16.1049,-556 335,-538 653.895,-556 335,-574"/>
<text text-anchor="middle" x="335" y="-552.3" font-family="Times,serif" font-size="14.00">10.1.80.1:53713#ServerID_OuterContainerID</text>
</g>
<!-- 10.1.80.93:8080#ServerID_OuterContainerID&#45;&gt;10.1.80.1:53713#ServerID_OuterContainerID -->
<g id="edge37" class="edge"><title>10.1.80.93:8080#ServerID_OuterContainerID&#45;&gt;10.1.80.1:53713#ServerID_OuterContainerID</title>
<path fill="none" stroke="black" d="M298.241,-670.99C290.168,-665.888 282.649,-659.31 278,-651 274.745,-645.182 275.95,-642.344 278,-636 284.713,-615.224 299.15,-595.313 311.814,-580.677"/>
<polygon fill="black" stroke="black" points="314.527,-582.895 318.607,-573.117 309.32,-578.216 314.527,-582.895"/>
<text text-anchor="middle" x="320" y="-639.8" font-family="Times,serif" font-size="14.00">RESPONSE</text>
</g>
<!-- 10.0.88.125:31112#ServerID_OuterContainerID -->
<g id="node27" class="node"><title>10.0.88.125:31112#ServerID_OuterContainerID</title>
<polygon fill="none" stroke="black" points="1007,-574 671.515,-556 1007,-538 1342.48,-556 1007,-574"/>
<text text-anchor="middle" x="1007" y="-552.3" font-family="Times,serif" font-size="14.00">10.0.88.125:31112#ServerID_OuterContainerID</text>
</g>
<!-- 10.1.80.93:8080#ServerID_OuterContainerID&#45;&gt;10.0.88.125:31112#ServerID_OuterContainerID -->
<g id="edge36" class="edge"><title>10.1.80.93:8080#ServerID_OuterContainerID&#45;&gt;10.0.88.125:31112#ServerID_OuterContainerID</title>
<path fill="none" stroke="black" d="M410.673,-673.249C477.225,-661.884 576.671,-644.538 663,-628 756.619,-610.065 864.163,-587.562 933.724,-572.755"/>
<polygon fill="black" stroke="black" points="934.655,-576.135 943.706,-570.628 933.196,-569.289 934.655,-576.135"/>
<text text-anchor="middle" x="661" y="-639.8" font-family="Times,serif" font-size="14.00">RESPONSE</text>
</g>
<!-- /etc/hosts#ServerID_62fde1e95276 -->
<g id="node11" class="node"><title>/etc/hosts#ServerID_62fde1e95276</title>
<ellipse fill="none" stroke="black" cx="5815" cy="-687" rx="177.369" ry="18"/>
<text text-anchor="middle" x="5815" y="-683.3" font-family="Times,serif" font-size="14.00">/etc/hosts#ServerID_62fde1e95276</text>
</g>
<!-- /etc/hosts#ServerID_62fde1e95276&#45;&gt;15_node#ServerID_62fde1e95276 -->
<g id="edge11" class="edge"><title>/etc/hosts#ServerID_62fde1e95276&#45;&gt;15_node#ServerID_62fde1e95276</title>
<path fill="none" stroke="black" d="M5758.79,-669.923C5676.4,-646.357 5522.96,-602.467 5433.57,-576.898"/>
<polygon fill="black" stroke="black" points="5434.37,-573.487 5423.79,-574.102 5432.44,-580.217 5434.37,-573.487"/>
<text text-anchor="middle" x="5697.5" y="-639.8" font-family="Times,serif" font-size="14.00">read</text>
</g>
<!-- /etc/resolv.conf#ServerID_62fde1e95276 -->
<g id="node12" class="node"><title>/etc/resolv.conf#ServerID_62fde1e95276</title>
<ellipse fill="none" stroke="black" cx="5417" cy="-687" rx="202.564" ry="18"/>
<text text-anchor="middle" x="5417" y="-683.3" font-family="Times,serif" font-size="14.00">/etc/resolv.conf#ServerID_62fde1e95276</text>
</g>
<!-- /etc/resolv.conf#ServerID_62fde1e95276&#45;&gt;15_node#ServerID_62fde1e95276 -->
<g id="edge12" class="edge"><title>/etc/resolv.conf#ServerID_62fde1e95276&#45;&gt;15_node#ServerID_62fde1e95276</title>
<path fill="none" stroke="black" d="M5409.96,-668.87C5401.01,-647.088 5385.46,-609.244 5374.96,-583.67"/>
<polygon fill="black" stroke="black" points="5378.1,-582.121 5371.07,-574.201 5371.63,-584.781 5378.1,-582.121"/>
<text text-anchor="middle" x="5418.5" y="-639.8" font-family="Times,serif" font-size="14.00">read</text>
</g>
<!-- 10.152.183.10:53#ServerID_OuterContainerID&#45;&gt;15_node#ServerID_62fde1e95276 -->
<g id="edge14" class="edge"><title>10.152.183.10:53#ServerID_OuterContainerID&#45;&gt;15_node#ServerID_62fde1e95276</title>
<path fill="none" stroke="black" d="M3225.71,-683.093C3567.01,-678.718 4188.97,-668.974 4720,-651 4934.34,-643.745 4993.2,-676.971 5202,-628 5246.08,-617.662 5293.12,-595.679 5325.09,-578.896"/>
<polygon fill="black" stroke="black" points="5326.93,-581.886 5334.1,-574.094 5323.63,-575.709 5326.93,-581.886"/>
<text text-anchor="middle" x="5188" y="-639.8" font-family="Times,serif" font-size="14.00">recvfrom</text>
</g>
<!-- localhost:3000#ServerID_d4490627de97 -->
<g id="node15" class="node"><title>localhost:3000#ServerID_d4490627de97</title>
<polygon fill="none" stroke="black" points="3803,-487 3515.11,-469 3803,-451 4090.89,-469 3803,-487"/>
<text text-anchor="middle" x="3803" y="-465.3" font-family="Times,serif" font-size="14.00">localhost:3000#ServerID_d4490627de97</text>
</g>
<!-- 1_fwatchdog#ServerID_d4490627de97&#45;&gt;localhost:3000#ServerID_d4490627de97 -->
<g id="edge20" class="edge"><title>1_fwatchdog#ServerID_d4490627de97&#45;&gt;localhost:3000#ServerID_d4490627de97</title>
<path fill="none" stroke="black" d="M3760.36,-537.808C3753.41,-533.084 3747.14,-527.215 3743,-520 3736.25,-508.249 3743.91,-498.053 3755.77,-489.989"/>
<polygon fill="black" stroke="black" points="3757.73,-492.892 3764.52,-484.753 3754.14,-486.885 3757.73,-492.892"/>
<text text-anchor="middle" x="3762" y="-508.8" font-family="Times,serif" font-size="14.00">write</text>
</g>
<!-- 1_fwatchdog#ServerID_d4490627de97&#45;&gt;localhost:3000#ServerID_d4490627de97 -->
<g id="edge22" class="edge"><title>1_fwatchdog#ServerID_d4490627de97&#45;&gt;localhost:3000#ServerID_d4490627de97</title>
<path fill="none" stroke="black" d="M3801.1,-537.883C3800.25,-528.231 3799.53,-515.947 3800,-505 3800.11,-502.441 3800.26,-499.779 3800.45,-497.118"/>
<polygon fill="black" stroke="black" points="3803.94,-497.317 3801.24,-487.071 3796.96,-496.763 3803.94,-497.317"/>
<text text-anchor="middle" x="3829" y="-508.8" font-family="Times,serif" font-size="14.00">connect</text>
</g>
<!-- pipe:[18738434]#ServerID_d4490627de97 -->
<g id="node25" class="node"><title>pipe:[18738434]#ServerID_d4490627de97</title>
<ellipse fill="none" stroke="black" cx="4321" cy="-469" rx="211.762" ry="18"/>
<text text-anchor="middle" x="4321" y="-465.3" font-family="Times,serif" font-size="14.00">pipe:[18738434]#ServerID_d4490627de97</text>
</g>
<!-- 1_fwatchdog#ServerID_d4490627de97&#45;&gt;pipe:[18738434]#ServerID_d4490627de97 -->
<g id="edge34" class="edge"><title>1_fwatchdog#ServerID_d4490627de97&#45;&gt;pipe:[18738434]#ServerID_d4490627de97</title>
<path fill="none" stroke="black" d="M3906.89,-537.952C3997.42,-523.098 4127.97,-501.676 4218.17,-486.873"/>
<polygon fill="black" stroke="black" points="4218.84,-490.31 4228.15,-485.237 4217.71,-483.402 4218.84,-490.31"/>
<text text-anchor="middle" x="4113" y="-508.8" font-family="Times,serif" font-size="14.00">write</text>
</g>
<!-- localhost:3000#ServerID_d4490627de97&#45;&gt;1_fwatchdog#ServerID_d4490627de97 -->
<g id="edge19" class="edge"><title>localhost:3000#ServerID_d4490627de97&#45;&gt;1_fwatchdog#ServerID_d4490627de97</title>
<path fill="none" stroke="black" d="M3841.02,-484.766C3849.38,-489.873 3857.17,-496.514 3862,-505 3867.92,-515.403 3862.56,-524.625 3853.06,-532.226"/>
<polygon fill="black" stroke="black" points="3850.96,-529.425 3844.69,-537.967 3854.92,-535.198 3850.96,-529.425"/>
<text text-anchor="middle" x="3881.5" y="-508.8" font-family="Times,serif" font-size="14.00">read</text>
</g>
<!-- 10_node#ServerID_d4490627de97 -->
<g id="node16" class="node"><title>10_node#ServerID_d4490627de97</title>
<polygon fill="none" stroke="black" points="4132,-400 3864,-400 3864,-364 4132,-364 4132,-400"/>
<text text-anchor="middle" x="3998" y="-378.3" font-family="Times,serif" font-size="14.00">10_node#ServerID_d4490627de97</text>
</g>
<!-- localhost:3000#ServerID_d4490627de97&#45;&gt;10_node#ServerID_d4490627de97 -->
<g id="edge23" class="edge"><title>localhost:3000#ServerID_d4490627de97&#45;&gt;10_node#ServerID_d4490627de97</title>
<path fill="none" stroke="black" d="M3837.41,-452.999C3868.49,-439.451 3914.57,-419.369 3949.4,-404.184"/>
<polygon fill="black" stroke="black" points="3951.14,-407.245 3958.91,-400.041 3948.34,-400.828 3951.14,-407.245"/>
<text text-anchor="middle" x="3929.5" y="-421.8" font-family="Times,serif" font-size="14.00">read</text>
</g>
<!-- pipe:[18738585]#ServerID_d4490627de97 -->
<g id="node17" class="node"><title>pipe:[18738585]#ServerID_d4490627de97</title>
<ellipse fill="none" stroke="black" cx="3532" cy="-295" rx="211.762" ry="18"/>
<text text-anchor="middle" x="3532" y="-291.3" font-family="Times,serif" font-size="14.00">pipe:[18738585]#ServerID_d4490627de97</text>
</g>
<!-- 10_node#ServerID_d4490627de97&#45;&gt;pipe:[18738585]#ServerID_d4490627de97 -->
<g id="edge24" class="edge"><title>10_node#ServerID_d4490627de97&#45;&gt;pipe:[18738585]#ServerID_d4490627de97</title>
<path fill="none" stroke="black" d="M3904.54,-363.952C3824.02,-349.266 3708.31,-328.16 3627.27,-313.378"/>
<polygon fill="black" stroke="black" points="3627.54,-309.869 3617.07,-311.517 3626.28,-316.755 3627.54,-309.869"/>
<text text-anchor="middle" x="3812" y="-334.8" font-family="Times,serif" font-size="14.00">write</text>
</g>
<!-- /dev/null#ServerID_d4490627de97 -->
<g id="node18" class="node"><title>/dev/null#ServerID_d4490627de97</title>
<ellipse fill="none" stroke="black" cx="3937" cy="-295" rx="174.669" ry="18"/>
<text text-anchor="middle" x="3937" y="-291.3" font-family="Times,serif" font-size="14.00">/dev/null#ServerID_d4490627de97</text>
</g>
<!-- 10_node#ServerID_d4490627de97&#45;&gt;/dev/null#ServerID_d4490627de97 -->
<g id="edge33" class="edge"><title>10_node#ServerID_d4490627de97&#45;&gt;/dev/null#ServerID_d4490627de97</title>
<path fill="none" stroke="black" d="M3951.93,-363.872C3944.77,-359.174 3938.33,-353.299 3934,-346 3930.04,-339.315 3929.21,-331.203 3929.8,-323.476"/>
<polygon fill="black" stroke="black" points="3933.3,-323.76 3931.35,-313.347 3926.38,-322.707 3933.3,-323.76"/>
<text text-anchor="middle" x="3953" y="-334.8" font-family="Times,serif" font-size="14.00">write</text>
</g>
<!-- pipe:[18738640]#ServerID_d4490627de97 -->
<g id="node19" class="node"><title>pipe:[18738640]#ServerID_d4490627de97</title>
<ellipse fill="none" stroke="black" cx="4628" cy="-295" rx="211.762" ry="18"/>
<text text-anchor="middle" x="4628" y="-291.3" font-family="Times,serif" font-size="14.00">pipe:[18738640]#ServerID_d4490627de97</text>
</g>
<!-- 10_node#ServerID_d4490627de97&#45;&gt;pipe:[18738640]#ServerID_d4490627de97 -->
<g id="edge27" class="edge"><title>10_node#ServerID_d4490627de97&#45;&gt;pipe:[18738640]#ServerID_d4490627de97</title>
<path fill="none" stroke="black" d="M4124.35,-363.952C4236.86,-348.772 4400.21,-326.734 4510.08,-311.91"/>
<polygon fill="black" stroke="black" points="4510.77,-315.349 4520.21,-310.543 4509.83,-308.412 4510.77,-315.349"/>
<text text-anchor="middle" x="4370" y="-334.8" font-family="Times,serif" font-size="14.00">write</text>
</g>
<!-- 26_node#ServerID_d4490627de97 -->
<g id="node20" class="node"><title>26_node#ServerID_d4490627de97</title>
<polygon fill="none" stroke="black" points="4398,-313 4130,-313 4130,-277 4398,-277 4398,-313"/>
<text text-anchor="middle" x="4264" y="-291.3" font-family="Times,serif" font-size="14.00">26_node#ServerID_d4490627de97</text>
</g>
<!-- 10_node#ServerID_d4490627de97&#45;&gt;26_node#ServerID_d4490627de97 -->
<g id="edge29" class="edge"><title>10_node#ServerID_d4490627de97&#45;&gt;26_node#ServerID_d4490627de97</title>
<path fill="none" stroke="black" d="M4051.51,-363.901C4094.62,-350.126 4155.33,-330.727 4200.82,-316.189"/>
<polygon fill="black" stroke="black" points="4202.12,-319.449 4210.58,-313.071 4199.99,-312.781 4202.12,-319.449"/>
<text text-anchor="middle" x="4162" y="-334.8" font-family="Times,serif" font-size="14.00">fork</text>
</g>
<!-- /dev/null#ServerID_d4490627de97&#45;&gt;10_node#ServerID_d4490627de97 -->
<g id="edge25" class="edge"><title>/dev/null#ServerID_d4490627de97&#45;&gt;10_node#ServerID_d4490627de97</title>
<path fill="none" stroke="black" d="M3959.27,-313.06C3965.23,-318.355 3971.3,-324.517 3976,-331 3981.14,-338.098 3985.44,-346.588 3988.83,-354.539"/>
<polygon fill="black" stroke="black" points="3985.58,-355.833 3992.51,-363.842 3992.09,-353.256 3985.58,-355.833"/>
<text text-anchor="middle" x="4001.5" y="-334.8" font-family="Times,serif" font-size="14.00">read</text>
</g>
<!-- pipe:[18738640]#ServerID_d4490627de97&#45;&gt;10_node#ServerID_d4490627de97 -->
<g id="edge26" class="edge"><title>pipe:[18738640]#ServerID_d4490627de97&#45;&gt;10_node#ServerID_d4490627de97</title>
<path fill="none" stroke="black" d="M4573.33,-312.508C4534.08,-323.71 4479.73,-337.905 4431,-346 4335.56,-361.854 4227.04,-370.608 4142.51,-375.396"/>
<polygon fill="black" stroke="black" points="4142.12,-371.913 4132.33,-375.961 4142.5,-378.902 4142.12,-371.913"/>
<text text-anchor="middle" x="4519.5" y="-334.8" font-family="Times,serif" font-size="14.00">read</text>
</g>
<!-- 26_sh#ServerID_d4490627de97 -->
<g id="node21" class="node"><title>26_sh#ServerID_d4490627de97</title>
<polygon fill="none" stroke="black" points="4389,-226 4139,-226 4139,-190 4389,-190 4389,-226"/>
<text text-anchor="middle" x="4264" y="-204.3" font-family="Times,serif" font-size="14.00">26_sh#ServerID_d4490627de97</text>
</g>
<!-- 26_node#ServerID_d4490627de97&#45;&gt;26_sh#ServerID_d4490627de97 -->
<g id="edge28" class="edge"><title>26_node#ServerID_d4490627de97&#45;&gt;26_sh#ServerID_d4490627de97</title>
<path fill="none" stroke="black" d="M4264,-276.799C4264,-265.163 4264,-249.548 4264,-236.237"/>
<polygon fill="black" stroke="black" points="4267.5,-236.175 4264,-226.175 4260.5,-236.175 4267.5,-236.175"/>
<text text-anchor="middle" x="4289" y="-247.8" font-family="Times,serif" font-size="14.00">execve</text>
</g>
<!-- 27_sh#ServerID_d4490627de97 -->
<g id="node22" class="node"><title>27_sh#ServerID_d4490627de97</title>
<polygon fill="none" stroke="black" points="4288,-139 4038,-139 4038,-103 4288,-103 4288,-139"/>
<text text-anchor="middle" x="4163" y="-117.3" font-family="Times,serif" font-size="14.00">27_sh#ServerID_d4490627de97</text>
</g>
<!-- 26_sh#ServerID_d4490627de97&#45;&gt;27_sh#ServerID_d4490627de97 -->
<g id="edge30" class="edge"><title>26_sh#ServerID_d4490627de97&#45;&gt;27_sh#ServerID_d4490627de97</title>
<path fill="none" stroke="black" d="M4243.56,-189.799C4228.5,-177.126 4207.84,-159.734 4191.21,-145.738"/>
<polygon fill="black" stroke="black" points="4193.31,-142.937 4183.41,-139.175 4188.81,-148.292 4193.31,-142.937"/>
<text text-anchor="middle" x="4235" y="-160.8" font-family="Times,serif" font-size="14.00">fork</text>
</g>
<!-- /home/app/3.txt#ServerID_d4490627de97 -->
<g id="node24" class="node"><title>/home/app/3.txt#ServerID_d4490627de97</title>
<ellipse fill="none" stroke="black" cx="4514" cy="-121" rx="207.963" ry="18"/>
<text text-anchor="middle" x="4514" y="-117.3" font-family="Times,serif" font-size="14.00">/home/app/3.txt#ServerID_d4490627de97</text>
</g>
<!-- 26_sh#ServerID_d4490627de97&#45;&gt;/home/app/3.txt#ServerID_d4490627de97 -->
<g id="edge32" class="edge"><title>26_sh#ServerID_d4490627de97&#45;&gt;/home/app/3.txt#ServerID_d4490627de97</title>
<path fill="none" stroke="black" d="M4314.29,-189.901C4355.03,-176.049 4412.5,-156.509 4455.34,-141.945"/>
<polygon fill="black" stroke="black" points="4456.73,-145.17 4465.07,-138.637 4454.47,-138.543 4456.73,-145.17"/>
<text text-anchor="middle" x="4423" y="-160.8" font-family="Times,serif" font-size="14.00">write</text>
</g>
<!-- 27_touch#ServerID_d4490627de97 -->
<g id="node23" class="node"><title>27_touch#ServerID_d4490627de97</title>
<polygon fill="none" stroke="black" points="4300,-52 4026,-52 4026,-16 4300,-16 4300,-52"/>
<text text-anchor="middle" x="4163" y="-30.3" font-family="Times,serif" font-size="14.00">27_touch#ServerID_d4490627de97</text>
</g>
<!-- 27_sh#ServerID_d4490627de97&#45;&gt;27_touch#ServerID_d4490627de97 -->
<g id="edge31" class="edge"><title>27_sh#ServerID_d4490627de97&#45;&gt;27_touch#ServerID_d4490627de97</title>
<path fill="none" stroke="black" d="M4163,-102.799C4163,-91.1626 4163,-75.5479 4163,-62.2368"/>
<polygon fill="black" stroke="black" points="4166.5,-62.1754 4163,-52.1754 4159.5,-62.1755 4166.5,-62.1754"/>
<text text-anchor="middle" x="4188" y="-73.8" font-family="Times,serif" font-size="14.00">execve</text>
</g>
<!-- 10.1.80.1:53713#ServerID_OuterContainerID&#45;&gt;10.1.80.93:8080#ServerID_OuterContainerID -->
<g id="edge35" class="edge"><title>10.1.80.1:53713#ServerID_OuterContainerID&#45;&gt;10.1.80.93:8080#ServerID_OuterContainerID</title>
<path fill="none" stroke="black" d="M347.324,-573.455C359.882,-592.341 376.175,-624.167 366,-651 364.552,-654.819 362.476,-658.488 360.074,-661.92"/>
<polygon fill="black" stroke="black" points="357.178,-659.934 353.607,-669.909 362.619,-664.339 357.178,-659.934"/>
<text text-anchor="middle" x="389" y="-639.8" font-family="Times,serif" font-size="14.00">POST</text>
</g>
</g>
</svg>
