<?xml version="1.0" encoding="UTF-8" standalone="no"?>
<!DOCTYPE svg PUBLIC "-//W3C//DTD SVG 1.1//EN"
 "http://www.w3.org/Graphics/SVG/1.1/DTD/svg11.dtd">
<!-- Generated by graphviz version 2.38.0 (20140413.2041)
 -->
<!-- Title: G Pages: 1 -->
<svg width="6098pt" height="684pt"
 viewBox="0.00 0.00 6098.00 684.00" xmlns="http://www.w3.org/2000/svg" xmlns:xlink="http://www.w3.org/1999/xlink">
<g id="graph0" class="graph" transform="scale(1 1) rotate(0) translate(4 680)">
<title>G</title>
<polygon fill="white" stroke="none" points="-4,4 -4,-680 6094,-680 6094,4 -4,4"/>
<g id="clust1" class="cluster"><title>clusterServerID_4451aee8bc70</title>
<polygon fill="none" stroke="black" points="4767,-506 4767,-668 5355,-668 5355,-506 4767,-506"/>
<text text-anchor="middle" x="5061" y="-652.8" font-family="Times,serif" font-size="14.00">clusterServerID_4451aee8bc70</text>
</g>
<g id="clust2" class="cluster"><title>clusterServerID_6dcbcc88d5&#45;mmq29</title>
<polygon fill="none" stroke="black" points="815,-398 815,-473 1169,-473 1169,-398 815,-398"/>
<text text-anchor="middle" x="992" y="-457.8" font-family="Times,serif" font-size="14.00">clusterServerID_6dcbcc88d5&#45;mmq29</text>
</g>
<g id="clust3" class="cluster"><title>clusterServerID_76c96688d7&#45;5sj98</title>
<polygon fill="none" stroke="black" points="4220,-398 4220,-473 4560,-473 4560,-398 4220,-398"/>
<text text-anchor="middle" x="4390" y="-457.8" font-family="Times,serif" font-size="14.00">clusterServerID_76c96688d7&#45;5sj98</text>
</g>
<g id="clust4" class="cluster"><title>clusterServerID_8665dd9487&#45;8ztxg</title>
<polygon fill="none" stroke="black" points="2167,-398 2167,-473 2509,-473 2509,-398 2167,-398"/>
<text text-anchor="middle" x="2338" y="-457.8" font-family="Times,serif" font-size="14.00">clusterServerID_8665dd9487&#45;8ztxg</text>
</g>
<g id="clust5" class="cluster"><title>clusterServerID_OuterContainerID</title>
<polygon fill="none" stroke="black" points="8,-182 8,-365 4733,-365 4733,-182 8,-182"/>
<text text-anchor="middle" x="2370.5" y="-349.8" font-family="Times,serif" font-size="14.00">clusterServerID_OuterContainerID</text>
</g>
<g id="clust6" class="cluster"><title>clusterServerID_b10d4e8ff34a</title>
<polygon fill="none" stroke="black" points="2535,-398 2535,-668 3897,-668 3897,-398 2535,-398"/>
<text text-anchor="middle" x="3216" y="-652.8" font-family="Times,serif" font-size="14.00">clusterServerID_b10d4e8ff34a</text>
</g>
<g id="clust7" class="cluster"><title>clusterServerID_b81a51f66a3b</title>
<polygon fill="none" stroke="black" points="4741,-8 4741,-257 5770,-257 5770,-8 4741,-8"/>
<text text-anchor="middle" x="5255.5" y="-241.8" font-family="Times,serif" font-size="14.00">clusterServerID_b81a51f66a3b</text>
</g>
<g id="clust8" class="cluster"><title>clusterServerID_ef03aa1de3fe</title>
<polygon fill="none" stroke="black" points="5778,-182 5778,-257 6082,-257 6082,-182 5778,-182"/>
<text text-anchor="middle" x="5930" y="-241.8" font-family="Times,serif" font-size="14.00">clusterServerID_ef03aa1de3fe</text>
</g>
<!-- 10.1.80.247:8080#ServerID_OuterContainerID -->
<g id="node1" class="node"><title>10.1.80.247:8080#ServerID_OuterContainerID</title>
<polygon fill="none" stroke="black" points="343,-334 15.5599,-316 343,-298 670.44,-316 343,-334"/>
<text text-anchor="middle" x="343" y="-312.3" font-family="Times,serif" font-size="14.00">10.1.80.247:8080#ServerID_OuterContainerID</text>
</g>
<!-- 1_fwatchdog#ServerID_6dcbcc88d5&#45;mmq29 -->
<g id="node2" class="node"><title>1_fwatchdog#ServerID_6dcbcc88d5&#45;mmq29</title>
<polygon fill="none" stroke="black" points="1161,-442 823,-442 823,-406 1161,-406 1161,-442"/>
<text text-anchor="middle" x="992" y="-420.3" font-family="Times,serif" font-size="14.00">1_fwatchdog#ServerID_6dcbcc88d5&#45;mmq29</text>
</g>
<!-- 10.1.80.247:8080#ServerID_OuterContainerID&#45;&gt;1_fwatchdog#ServerID_6dcbcc88d5&#45;mmq29 -->
<g id="edge1" class="edge"><title>10.1.80.247:8080#ServerID_OuterContainerID&#45;&gt;1_fwatchdog#ServerID_6dcbcc88d5&#45;mmq29</title>
<path fill="none" stroke="black" d="M399.133,-330.973C464.354,-346.774 575.387,-372.335 672,-388 717.485,-395.375 766.864,-401.63 812.912,-406.721"/>
<polygon fill="black" stroke="black" points="812.67,-410.216 822.992,-407.823 813.431,-403.257 812.67,-410.216"/>
<text text-anchor="middle" x="714" y="-376.8" font-family="Times,serif" font-size="14.00">RESPONSE</text>
</g>
<!-- 10.1.80.1:51885#ServerID_OuterContainerID -->
<g id="node23" class="node"><title>10.1.80.1:51885#ServerID_OuterContainerID</title>
<polygon fill="none" stroke="black" points="335,-226 16.1049,-208 335,-190 653.895,-208 335,-226"/>
<text text-anchor="middle" x="335" y="-204.3" font-family="Times,serif" font-size="14.00">10.1.80.1:51885#ServerID_OuterContainerID</text>
</g>
<!-- 10.1.80.247:8080#ServerID_OuterContainerID&#45;&gt;10.1.80.1:51885#ServerID_OuterContainerID -->
<g id="edge28" class="edge"><title>10.1.80.247:8080#ServerID_OuterContainerID&#45;&gt;10.1.80.1:51885#ServerID_OuterContainerID</title>
<path fill="none" stroke="black" d="M345.928,-297.962C346.775,-292.269 347.582,-285.878 348,-280 348.473,-273.35 348.759,-271.623 348,-265 346.894,-255.346 344.749,-244.935 342.515,-235.74"/>
<polygon fill="black" stroke="black" points="345.886,-234.793 340.006,-225.98 339.106,-236.536 345.886,-234.793"/>
<text text-anchor="middle" x="391" y="-268.8" font-family="Times,serif" font-size="14.00">RESPONSE</text>
</g>
<!-- 10.0.88.125:31112#ServerID_OuterContainerID -->
<g id="node24" class="node"><title>10.0.88.125:31112#ServerID_OuterContainerID</title>
<polygon fill="none" stroke="black" points="1007,-226 671.515,-208 1007,-190 1342.48,-208 1007,-226"/>
<text text-anchor="middle" x="1007" y="-204.3" font-family="Times,serif" font-size="14.00">10.0.88.125:31112#ServerID_OuterContainerID</text>
</g>
<!-- 10.1.80.247:8080#ServerID_OuterContainerID&#45;&gt;10.0.88.125:31112#ServerID_OuterContainerID -->
<g id="edge29" class="edge"><title>10.1.80.247:8080#ServerID_OuterContainerID&#45;&gt;10.0.88.125:31112#ServerID_OuterContainerID</title>
<path fill="none" stroke="black" d="M422.434,-302.319C546.818,-282.463 786.788,-244.154 917.247,-223.328"/>
<polygon fill="black" stroke="black" points="917.893,-226.769 927.216,-221.737 916.789,-219.857 917.893,-226.769"/>
<text text-anchor="middle" x="698" y="-268.8" font-family="Times,serif" font-size="14.00">RESPONSE</text>
</g>
<!-- 1_fwatchdog#ServerID_6dcbcc88d5&#45;mmq29&#45;&gt;10.1.80.247:8080#ServerID_OuterContainerID -->
<g id="edge2" class="edge"><title>1_fwatchdog#ServerID_6dcbcc88d5&#45;mmq29&#45;&gt;10.1.80.247:8080#ServerID_OuterContainerID</title>
<path fill="none" stroke="black" d="M921.103,-405.942C874.428,-395.217 811.852,-381.793 756,-373 722.012,-367.649 713.148,-369.211 679,-365 596.255,-354.795 502.339,-341.208 434.876,-331.095"/>
<polygon fill="black" stroke="black" points="435.11,-327.591 424.701,-329.566 434.07,-334.513 435.11,-327.591"/>
<text text-anchor="middle" x="855" y="-376.8" font-family="Times,serif" font-size="14.00">POST</text>
</g>
<!-- gateway:8080#ServerID_OuterContainerID -->
<g id="node5" class="node"><title>gateway:8080#ServerID_OuterContainerID</title>
<polygon fill="none" stroke="black" points="992,-334 687.518,-316 992,-298 1296.48,-316 992,-334"/>
<text text-anchor="middle" x="992" y="-312.3" font-family="Times,serif" font-size="14.00">gateway:8080#ServerID_OuterContainerID</text>
</g>
<!-- 1_fwatchdog#ServerID_6dcbcc88d5&#45;mmq29&#45;&gt;gateway:8080#ServerID_OuterContainerID -->
<g id="edge7" class="edge"><title>1_fwatchdog#ServerID_6dcbcc88d5&#45;mmq29&#45;&gt;gateway:8080#ServerID_OuterContainerID</title>
<path fill="none" stroke="black" d="M970.203,-405.762C965.256,-400.629 960.675,-394.594 958,-388 955.493,-381.822 956.204,-379.42 958,-373 961.066,-362.043 966.927,-351.099 972.931,-341.83"/>
<polygon fill="black" stroke="black" points="975.868,-343.736 978.644,-333.511 970.098,-339.773 975.868,-343.736"/>
<text text-anchor="middle" x="978" y="-376.8" font-family="Times,serif" font-size="14.00">POST</text>
</g>
<!-- 10.1.80.247:41244#ServerID_OuterContainerID -->
<g id="node6" class="node"><title>10.1.80.247:41244#ServerID_OuterContainerID</title>
<polygon fill="none" stroke="black" points="1650,-334 1314.52,-316 1650,-298 1985.48,-316 1650,-334"/>
<text text-anchor="middle" x="1650" y="-312.3" font-family="Times,serif" font-size="14.00">10.1.80.247:41244#ServerID_OuterContainerID</text>
</g>
<!-- 1_fwatchdog#ServerID_6dcbcc88d5&#45;mmq29&#45;&gt;10.1.80.247:41244#ServerID_OuterContainerID -->
<g id="edge10" class="edge"><title>1_fwatchdog#ServerID_6dcbcc88d5&#45;mmq29&#45;&gt;10.1.80.247:41244#ServerID_OuterContainerID</title>
<path fill="none" stroke="black" d="M1097.72,-405.969C1225.99,-385.306 1439.98,-350.833 1560.47,-331.422"/>
<polygon fill="black" stroke="black" points="1561.09,-334.867 1570.41,-329.822 1559.98,-327.957 1561.09,-334.867"/>
<text text-anchor="middle" x="1344" y="-376.8" font-family="Times,serif" font-size="14.00">RESPONSE</text>
</g>
<!-- 1_fwatchdog#ServerID_8665dd9487&#45;8ztxg -->
<g id="node3" class="node"><title>1_fwatchdog#ServerID_8665dd9487&#45;8ztxg</title>
<polygon fill="none" stroke="black" points="2501,-442 2175,-442 2175,-406 2501,-406 2501,-442"/>
<text text-anchor="middle" x="2338" y="-420.3" font-family="Times,serif" font-size="14.00">1_fwatchdog#ServerID_8665dd9487&#45;8ztxg</text>
</g>
<!-- 10.1.80.247:37458#ServerID_OuterContainerID -->
<g id="node4" class="node"><title>10.1.80.247:37458#ServerID_OuterContainerID</title>
<polygon fill="none" stroke="black" points="2339,-334 2003.52,-316 2339,-298 2674.48,-316 2339,-334"/>
<text text-anchor="middle" x="2339" y="-312.3" font-family="Times,serif" font-size="14.00">10.1.80.247:37458#ServerID_OuterContainerID</text>
</g>
<!-- 1_fwatchdog#ServerID_8665dd9487&#45;8ztxg&#45;&gt;10.1.80.247:37458#ServerID_OuterContainerID -->
<g id="edge3" class="edge"><title>1_fwatchdog#ServerID_8665dd9487&#45;8ztxg&#45;&gt;10.1.80.247:37458#ServerID_OuterContainerID</title>
<path fill="none" stroke="black" d="M2302.26,-405.861C2295.73,-401.032 2289.78,-395.108 2286,-388 2282.87,-382.115 2283.53,-379.194 2286,-373 2291,-360.439 2300.31,-349.073 2309.74,-339.914"/>
<polygon fill="black" stroke="black" points="2312.22,-342.386 2317.25,-333.061 2307.51,-337.214 2312.22,-342.386"/>
<text text-anchor="middle" x="2328" y="-376.8" font-family="Times,serif" font-size="14.00">RESPONSE</text>
</g>
<!-- 10.1.80.247:37458#ServerID_OuterContainerID&#45;&gt;1_fwatchdog#ServerID_8665dd9487&#45;8ztxg -->
<g id="edge4" class="edge"><title>10.1.80.247:37458#ServerID_OuterContainerID&#45;&gt;1_fwatchdog#ServerID_8665dd9487&#45;8ztxg</title>
<path fill="none" stroke="black" d="M2354.08,-333.48C2365.24,-347.767 2377.35,-369.067 2370,-388 2368.64,-391.507 2366.74,-394.876 2364.55,-398.046"/>
<polygon fill="black" stroke="black" points="2361.75,-395.944 2358.2,-405.928 2367.2,-400.335 2361.75,-395.944"/>
<text text-anchor="middle" x="2393" y="-376.8" font-family="Times,serif" font-size="14.00">POST</text>
</g>
<!-- 1_fwatchdog#ServerID_b81a51f66a3b -->
<g id="node15" class="node"><title>1_fwatchdog#ServerID_b81a51f66a3b</title>
<polygon fill="none" stroke="black" points="5179.5,-226 4884.5,-226 4884.5,-190 5179.5,-190 5179.5,-226"/>
<text text-anchor="middle" x="5032" y="-204.3" font-family="Times,serif" font-size="14.00">1_fwatchdog#ServerID_b81a51f66a3b</text>
</g>
<!-- 10.1.80.247:37458#ServerID_OuterContainerID&#45;&gt;1_fwatchdog#ServerID_b81a51f66a3b -->
<g id="edge20" class="edge"><title>10.1.80.247:37458#ServerID_OuterContainerID&#45;&gt;1_fwatchdog#ServerID_b81a51f66a3b</title>
<path fill="none" stroke="black" d="M2494.81,-306.353C2554.03,-303.322 2622.12,-300.142 2684,-298 2741.01,-296.027 4680.19,-262.163 4737,-257 4804.4,-250.875 4879.69,-238.533 4937.34,-227.898"/>
<polygon fill="black" stroke="black" points="4938.33,-231.273 4947.52,-226.002 4937.05,-224.391 4938.33,-231.273"/>
<text text-anchor="middle" x="4394.5" y="-268.8" font-family="Times,serif" font-size="14.00">read</text>
</g>
<!-- gateway:8080#ServerID_OuterContainerID&#45;&gt;1_fwatchdog#ServerID_6dcbcc88d5&#45;mmq29 -->
<g id="edge5" class="edge"><title>gateway:8080#ServerID_OuterContainerID&#45;&gt;1_fwatchdog#ServerID_6dcbcc88d5&#45;mmq29</title>
<path fill="none" stroke="black" d="M997.056,-333.927C1000.71,-348.311 1004.59,-369.508 1002,-388 1001.64,-390.574 1001.14,-393.224 1000.55,-395.859"/>
<polygon fill="black" stroke="black" points="997.102,-395.198 997.955,-405.759 1003.87,-396.971 997.102,-395.198"/>
<text text-anchor="middle" x="1045" y="-376.8" font-family="Times,serif" font-size="14.00">RESPONSE</text>
</g>
<!-- 10.1.80.247:41244#ServerID_OuterContainerID&#45;&gt;1_fwatchdog#ServerID_6dcbcc88d5&#45;mmq29 -->
<g id="edge6" class="edge"><title>10.1.80.247:41244#ServerID_OuterContainerID&#45;&gt;1_fwatchdog#ServerID_6dcbcc88d5&#45;mmq29</title>
<path fill="none" stroke="black" d="M1608.83,-331.916C1561.34,-348.463 1480.6,-374.592 1409,-388 1331.85,-402.448 1245.54,-410.935 1171.55,-415.919"/>
<polygon fill="black" stroke="black" points="1170.94,-412.451 1161.2,-416.599 1171.4,-419.436 1170.94,-412.451"/>
<text text-anchor="middle" x="1490" y="-376.8" font-family="Times,serif" font-size="14.00">POST</text>
</g>
<!-- 1_fwatchdog#ServerID_b10d4e8ff34a -->
<g id="node9" class="node"><title>1_fwatchdog#ServerID_b10d4e8ff34a</title>
<polygon fill="none" stroke="black" points="3822.5,-637 3531.5,-637 3531.5,-601 3822.5,-601 3822.5,-637"/>
<text text-anchor="middle" x="3677" y="-615.3" font-family="Times,serif" font-size="14.00">1_fwatchdog#ServerID_b10d4e8ff34a</text>
</g>
<!-- 10.1.80.247:41244#ServerID_OuterContainerID&#45;&gt;1_fwatchdog#ServerID_b10d4e8ff34a -->
<g id="edge12" class="edge"><title>10.1.80.247:41244#ServerID_OuterContainerID&#45;&gt;1_fwatchdog#ServerID_b10d4e8ff34a</title>
<path fill="none" stroke="black" d="M1723.39,-330.108C1793.03,-341.857 1900.75,-358.248 1995,-365 2041.22,-368.311 3618.22,-361.093 3663,-373 3948.39,-448.89 3998.33,-414.153 3898,-550 3883.08,-570.207 3829.92,-586.909 3779.49,-598.703"/>
<polygon fill="black" stroke="black" points="3778.42,-595.357 3769.45,-600.996 3779.98,-602.182 3778.42,-595.357"/>
<text text-anchor="middle" x="3958.5" y="-484.8" font-family="Times,serif" font-size="14.00">read</text>
</g>
<!-- 10.1.80.247:42354#ServerID_OuterContainerID -->
<g id="node7" class="node"><title>10.1.80.247:42354#ServerID_OuterContainerID</title>
<polygon fill="none" stroke="black" points="4390,-334 4054.52,-316 4390,-298 4725.48,-316 4390,-334"/>
<text text-anchor="middle" x="4390" y="-312.3" font-family="Times,serif" font-size="14.00">10.1.80.247:42354#ServerID_OuterContainerID</text>
</g>
<!-- 1_fwatchdog#ServerID_76c96688d7&#45;5sj98 -->
<g id="node8" class="node"><title>1_fwatchdog#ServerID_76c96688d7&#45;5sj98</title>
<polygon fill="none" stroke="black" points="4552.5,-442 4227.5,-442 4227.5,-406 4552.5,-406 4552.5,-442"/>
<text text-anchor="middle" x="4390" y="-420.3" font-family="Times,serif" font-size="14.00">1_fwatchdog#ServerID_76c96688d7&#45;5sj98</text>
</g>
<!-- 10.1.80.247:42354#ServerID_OuterContainerID&#45;&gt;1_fwatchdog#ServerID_76c96688d7&#45;5sj98 -->
<g id="edge8" class="edge"><title>10.1.80.247:42354#ServerID_OuterContainerID&#45;&gt;1_fwatchdog#ServerID_76c96688d7&#45;5sj98</title>
<path fill="none" stroke="black" d="M4375,-333.451C4363.88,-347.72 4351.8,-369.01 4359,-388 4360.28,-391.366 4362.04,-394.615 4364.09,-397.689"/>
<polygon fill="black" stroke="black" points="4361.52,-400.087 4370.42,-405.831 4367.04,-395.789 4361.52,-400.087"/>
<text text-anchor="middle" x="4379" y="-376.8" font-family="Times,serif" font-size="14.00">POST</text>
</g>
<!-- 1_fwatchdog#ServerID_76c96688d7&#45;5sj98&#45;&gt;10.1.80.247:42354#ServerID_OuterContainerID -->
<g id="edge9" class="edge"><title>1_fwatchdog#ServerID_76c96688d7&#45;5sj98&#45;&gt;10.1.80.247:42354#ServerID_OuterContainerID</title>
<path fill="none" stroke="black" d="M4395.36,-405.72C4396.85,-400.124 4398.26,-393.851 4399,-388 4400.85,-373.41 4399.06,-357.134 4396.61,-343.85"/>
<polygon fill="black" stroke="black" points="4400.01,-343.011 4394.55,-333.927 4393.15,-344.429 4400.01,-343.011"/>
<text text-anchor="middle" x="4442" y="-376.8" font-family="Times,serif" font-size="14.00">RESPONSE</text>
</g>
<!-- localhost:3000#ServerID_b10d4e8ff34a -->
<g id="node10" class="node"><title>localhost:3000#ServerID_b10d4e8ff34a</title>
<polygon fill="none" stroke="black" points="3609,-550 3328.81,-532 3609,-514 3889.19,-532 3609,-550"/>
<text text-anchor="middle" x="3609" y="-528.3" font-family="Times,serif" font-size="14.00">localhost:3000#ServerID_b10d4e8ff34a</text>
</g>
<!-- 1_fwatchdog#ServerID_b10d4e8ff34a&#45;&gt;localhost:3000#ServerID_b10d4e8ff34a -->
<g id="edge11" class="edge"><title>1_fwatchdog#ServerID_b10d4e8ff34a&#45;&gt;localhost:3000#ServerID_b10d4e8ff34a</title>
<path fill="none" stroke="black" d="M3663.24,-600.799C3653.28,-588.345 3639.67,-571.335 3628.58,-557.469"/>
<polygon fill="black" stroke="black" points="3631.03,-554.933 3622.05,-549.31 3625.56,-559.305 3631.03,-554.933"/>
<text text-anchor="middle" x="3667" y="-571.8" font-family="Times,serif" font-size="14.00">write</text>
</g>
<!-- 11_node#ServerID_b10d4e8ff34a -->
<g id="node11" class="node"><title>11_node#ServerID_b10d4e8ff34a</title>
<polygon fill="none" stroke="black" points="3444,-442 3184,-442 3184,-406 3444,-406 3444,-442"/>
<text text-anchor="middle" x="3314" y="-420.3" font-family="Times,serif" font-size="14.00">11_node#ServerID_b10d4e8ff34a</text>
</g>
<!-- localhost:3000#ServerID_b10d4e8ff34a&#45;&gt;11_node#ServerID_b10d4e8ff34a -->
<g id="edge13" class="edge"><title>localhost:3000#ServerID_b10d4e8ff34a&#45;&gt;11_node#ServerID_b10d4e8ff34a</title>
<path fill="none" stroke="black" d="M3568.6,-516.483C3517.51,-498.125 3429.22,-466.403 3371.22,-445.559"/>
<polygon fill="black" stroke="black" points="3372.06,-442.143 3361.47,-442.055 3369.69,-448.731 3372.06,-442.143"/>
<text text-anchor="middle" x="3522.5" y="-484.8" font-family="Times,serif" font-size="14.00">read</text>
</g>
<!-- 11_node#ServerID_b10d4e8ff34a&#45;&gt;gateway:8080#ServerID_OuterContainerID -->
<g id="edge21" class="edge"><title>11_node#ServerID_b10d4e8ff34a&#45;&gt;gateway:8080#ServerID_OuterContainerID</title>
<path fill="none" stroke="black" d="M3183.73,-413.753C3009.26,-401.824 2690.01,-381.587 2417,-373 2293.61,-369.119 1429.06,-374.797 1306,-365 1224.47,-358.509 1132.01,-343.428 1068.66,-331.889"/>
<polygon fill="black" stroke="black" points="1069.21,-328.432 1058.74,-330.069 1067.95,-335.317 1069.21,-328.432"/>
<text text-anchor="middle" x="2767" y="-376.8" font-family="Times,serif" font-size="14.00">connect</text>
</g>
<!-- 10.152.183.10:53#ServerID_OuterContainerID -->
<g id="node14" class="node"><title>10.152.183.10:53#ServerID_OuterContainerID</title>
<polygon fill="none" stroke="black" points="3709,-334 3381.56,-316 3709,-298 4036.44,-316 3709,-334"/>
<text text-anchor="middle" x="3709" y="-312.3" font-family="Times,serif" font-size="14.00">10.152.183.10:53#ServerID_OuterContainerID</text>
</g>
<!-- 11_node#ServerID_b10d4e8ff34a&#45;&gt;10.152.183.10:53#ServerID_OuterContainerID -->
<g id="edge16" class="edge"><title>11_node#ServerID_b10d4e8ff34a&#45;&gt;10.152.183.10:53#ServerID_OuterContainerID</title>
<path fill="none" stroke="black" d="M3377.46,-405.969C3451.3,-386.155 3572.46,-353.641 3646.07,-333.888"/>
<polygon fill="black" stroke="black" points="3647.38,-337.16 3656.13,-331.188 3645.56,-330.399 3647.38,-337.16"/>
<text text-anchor="middle" x="3524.5" y="-376.8" font-family="Times,serif" font-size="14.00">sendto</text>
</g>
<!-- /etc/hosts#ServerID_b10d4e8ff34a -->
<g id="node12" class="node"><title>/etc/hosts#ServerID_b10d4e8ff34a</title>
<ellipse fill="none" stroke="black" cx="3136" cy="-532" rx="174.669" ry="18"/>
<text text-anchor="middle" x="3136" y="-528.3" font-family="Times,serif" font-size="14.00">/etc/hosts#ServerID_b10d4e8ff34a</text>
</g>
<!-- /etc/hosts#ServerID_b10d4e8ff34a&#45;&gt;11_node#ServerID_b10d4e8ff34a -->
<g id="edge14" class="edge"><title>/etc/hosts#ServerID_b10d4e8ff34a&#45;&gt;11_node#ServerID_b10d4e8ff34a</title>
<path fill="none" stroke="black" d="M3164.2,-514.204C3194.62,-496.091 3243.18,-467.172 3276.73,-447.195"/>
<polygon fill="black" stroke="black" points="3278.54,-450.192 3285.34,-442.068 3274.96,-444.178 3278.54,-450.192"/>
<text text-anchor="middle" x="3236.5" y="-484.8" font-family="Times,serif" font-size="14.00">read</text>
</g>
<!-- /etc/resolv.conf#ServerID_b10d4e8ff34a -->
<g id="node13" class="node"><title>/etc/resolv.conf#ServerID_b10d4e8ff34a</title>
<ellipse fill="none" stroke="black" cx="2743" cy="-532" rx="200.365" ry="18"/>
<text text-anchor="middle" x="2743" y="-528.3" font-family="Times,serif" font-size="14.00">/etc/resolv.conf#ServerID_b10d4e8ff34a</text>
</g>
<!-- /etc/resolv.conf#ServerID_b10d4e8ff34a&#45;&gt;11_node#ServerID_b10d4e8ff34a -->
<g id="edge15" class="edge"><title>/etc/resolv.conf#ServerID_b10d4e8ff34a&#45;&gt;11_node#ServerID_b10d4e8ff34a</title>
<path fill="none" stroke="black" d="M2826.03,-515.587C2928.31,-496.599 3102.02,-464.352 3212.23,-443.893"/>
<polygon fill="black" stroke="black" points="3213.17,-447.278 3222.36,-442.012 3211.89,-440.396 3213.17,-447.278"/>
<text text-anchor="middle" x="3028.5" y="-484.8" font-family="Times,serif" font-size="14.00">read</text>
</g>
<!-- 10.152.183.10:53#ServerID_OuterContainerID&#45;&gt;11_node#ServerID_b10d4e8ff34a -->
<g id="edge17" class="edge"><title>10.152.183.10:53#ServerID_OuterContainerID&#45;&gt;11_node#ServerID_b10d4e8ff34a</title>
<path fill="none" stroke="black" d="M3681.18,-332.579C3650.67,-348.957 3599.81,-374.22 3553,-388 3521.56,-397.256 3487.03,-404.122 3454.24,-409.196"/>
<polygon fill="black" stroke="black" points="3453.5,-405.768 3444.13,-410.713 3454.53,-412.691 3453.5,-405.768"/>
<text text-anchor="middle" x="3626" y="-376.8" font-family="Times,serif" font-size="14.00">recvfrom</text>
</g>
<!-- localhost:3000#ServerID_b81a51f66a3b -->
<g id="node16" class="node"><title>localhost:3000#ServerID_b81a51f66a3b</title>
<polygon fill="none" stroke="black" points="5032,-139 4748.8,-121 5032,-103 5315.2,-121 5032,-139"/>
<text text-anchor="middle" x="5032" y="-117.3" font-family="Times,serif" font-size="14.00">localhost:3000#ServerID_b81a51f66a3b</text>
</g>
<!-- 1_fwatchdog#ServerID_b81a51f66a3b&#45;&gt;localhost:3000#ServerID_b81a51f66a3b -->
<g id="edge18" class="edge"><title>1_fwatchdog#ServerID_b81a51f66a3b&#45;&gt;localhost:3000#ServerID_b81a51f66a3b</title>
<path fill="none" stroke="black" d="M5032,-189.799C5032,-178.163 5032,-162.548 5032,-149.237"/>
<polygon fill="black" stroke="black" points="5035.5,-149.175 5032,-139.175 5028.5,-149.175 5035.5,-149.175"/>
<text text-anchor="middle" x="5061" y="-160.8" font-family="Times,serif" font-size="14.00">connect</text>
</g>
<!-- 1_fwatchdog#ServerID_b81a51f66a3b&#45;&gt;localhost:3000#ServerID_b81a51f66a3b -->
<g id="edge23" class="edge"><title>1_fwatchdog#ServerID_b81a51f66a3b&#45;&gt;localhost:3000#ServerID_b81a51f66a3b</title>
<path fill="none" stroke="black" d="M5073.64,-189.892C5080.59,-185.144 5086.87,-179.244 5091,-172 5097.69,-160.245 5089.98,-149.999 5078.16,-141.893"/>
<polygon fill="black" stroke="black" points="5079.82,-138.807 5069.45,-136.632 5076.2,-144.799 5079.82,-138.807"/>
<text text-anchor="middle" x="5112" y="-160.8" font-family="Times,serif" font-size="14.00">write</text>
</g>
<!-- pipe:[320783879]#ServerID_b81a51f66a3b -->
<g id="node20" class="node"><title>pipe:[320783879]#ServerID_b81a51f66a3b</title>
<ellipse fill="none" stroke="black" cx="5548" cy="-121" rx="214.462" ry="18"/>
<text text-anchor="middle" x="5548" y="-117.3" font-family="Times,serif" font-size="14.00">pipe:[320783879]#ServerID_b81a51f66a3b</text>
</g>
<!-- 1_fwatchdog#ServerID_b81a51f66a3b&#45;&gt;pipe:[320783879]#ServerID_b81a51f66a3b -->
<g id="edge25" class="edge"><title>1_fwatchdog#ServerID_b81a51f66a3b&#45;&gt;pipe:[320783879]#ServerID_b81a51f66a3b</title>
<path fill="none" stroke="black" d="M5135.49,-189.952C5225.52,-175.121 5355.3,-153.743 5445.15,-138.943"/>
<polygon fill="black" stroke="black" points="5445.78,-142.386 5455.08,-137.307 5444.64,-135.479 5445.78,-142.386"/>
<text text-anchor="middle" x="5339" y="-160.8" font-family="Times,serif" font-size="14.00">write</text>
</g>
<!-- localhost:3000#ServerID_b81a51f66a3b&#45;&gt;1_fwatchdog#ServerID_b81a51f66a3b -->
<g id="edge19" class="edge"><title>localhost:3000#ServerID_b81a51f66a3b&#45;&gt;1_fwatchdog#ServerID_b81a51f66a3b</title>
<path fill="none" stroke="black" d="M5008.9,-137.918C4998.5,-147.195 4989.62,-159.503 4995,-172 4996.57,-175.642 4998.72,-179.082 5001.21,-182.279"/>
<polygon fill="black" stroke="black" points="4998.62,-184.639 5007.93,-189.702 5003.81,-179.94 4998.62,-184.639"/>
<text text-anchor="middle" x="5011.5" y="-160.8" font-family="Times,serif" font-size="14.00">read</text>
</g>
<!-- 12_node#ServerID_b81a51f66a3b -->
<g id="node19" class="node"><title>12_node#ServerID_b81a51f66a3b</title>
<polygon fill="none" stroke="black" points="5163.5,-52 4900.5,-52 4900.5,-16 5163.5,-16 5163.5,-52"/>
<text text-anchor="middle" x="5032" y="-30.3" font-family="Times,serif" font-size="14.00">12_node#ServerID_b81a51f66a3b</text>
</g>
<!-- localhost:3000#ServerID_b81a51f66a3b&#45;&gt;12_node#ServerID_b81a51f66a3b -->
<g id="edge24" class="edge"><title>localhost:3000#ServerID_b81a51f66a3b&#45;&gt;12_node#ServerID_b81a51f66a3b</title>
<path fill="none" stroke="black" d="M5032,-102.799C5032,-91.1626 5032,-75.5479 5032,-62.2368"/>
<polygon fill="black" stroke="black" points="5035.5,-62.1754 5032,-52.1754 5028.5,-62.1755 5035.5,-62.1754"/>
<text text-anchor="middle" x="5048.5" y="-73.8" font-family="Times,serif" font-size="14.00">read</text>
</g>
<!-- 10.1.80.247:50196#ServerID_OuterContainerID -->
<g id="node17" class="node"><title>10.1.80.247:50196#ServerID_OuterContainerID</title>
<polygon fill="none" stroke="black" points="3028,-334 2692.52,-316 3028,-298 3363.48,-316 3028,-334"/>
<text text-anchor="middle" x="3028" y="-312.3" font-family="Times,serif" font-size="14.00">10.1.80.247:50196#ServerID_OuterContainerID</text>
</g>
<!-- 1_fwatchdog#ServerID_ef03aa1de3fe -->
<g id="node18" class="node"><title>1_fwatchdog#ServerID_ef03aa1de3fe</title>
<polygon fill="none" stroke="black" points="6074.5,-226 5785.5,-226 5785.5,-190 6074.5,-190 6074.5,-226"/>
<text text-anchor="middle" x="5930" y="-204.3" font-family="Times,serif" font-size="14.00">1_fwatchdog#ServerID_ef03aa1de3fe</text>
</g>
<!-- 10.1.80.247:50196#ServerID_OuterContainerID&#45;&gt;1_fwatchdog#ServerID_ef03aa1de3fe -->
<g id="edge22" class="edge"><title>10.1.80.247:50196#ServerID_OuterContainerID&#45;&gt;1_fwatchdog#ServerID_ef03aa1de3fe</title>
<path fill="none" stroke="black" d="M3182.95,-306.302C3242.37,-303.245 3310.82,-300.062 3373,-298 3639.67,-289.155 5510.5,-298.926 5774,-257 5808.95,-251.439 5846.92,-239.881 5876.65,-229.501"/>
<polygon fill="black" stroke="black" points="5878.15,-232.682 5886.4,-226.036 5875.81,-226.086 5878.15,-232.682"/>
<text text-anchor="middle" x="5697.5" y="-268.8" font-family="Times,serif" font-size="14.00">read</text>
</g>
<!-- localhost:3000#ServerID_4451aee8bc70 -->
<g id="node21" class="node"><title>localhost:3000#ServerID_4451aee8bc70</title>
<polygon fill="none" stroke="black" points="5061,-637 4775.28,-619 5061,-601 5346.72,-619 5061,-637"/>
<text text-anchor="middle" x="5061" y="-615.3" font-family="Times,serif" font-size="14.00">localhost:3000#ServerID_4451aee8bc70</text>
</g>
<!-- 16_node#ServerID_4451aee8bc70 -->
<g id="node22" class="node"><title>16_node#ServerID_4451aee8bc70</title>
<polygon fill="none" stroke="black" points="5194,-550 4928,-550 4928,-514 5194,-514 5194,-550"/>
<text text-anchor="middle" x="5061" y="-528.3" font-family="Times,serif" font-size="14.00">16_node#ServerID_4451aee8bc70</text>
</g>
<!-- localhost:3000#ServerID_4451aee8bc70&#45;&gt;16_node#ServerID_4451aee8bc70 -->
<g id="edge26" class="edge"><title>localhost:3000#ServerID_4451aee8bc70&#45;&gt;16_node#ServerID_4451aee8bc70</title>
<path fill="none" stroke="black" d="M5061,-600.799C5061,-589.163 5061,-573.548 5061,-560.237"/>
<polygon fill="black" stroke="black" points="5064.5,-560.175 5061,-550.175 5057.5,-560.175 5064.5,-560.175"/>
<text text-anchor="middle" x="5077.5" y="-571.8" font-family="Times,serif" font-size="14.00">read</text>
</g>
<!-- 10.1.80.1:51885#ServerID_OuterContainerID&#45;&gt;10.1.80.247:8080#ServerID_OuterContainerID -->
<g id="edge27" class="edge"><title>10.1.80.1:51885#ServerID_OuterContainerID&#45;&gt;10.1.80.247:8080#ServerID_OuterContainerID</title>
<path fill="none" stroke="black" d="M321.454,-225.463C311.286,-239.923 300.329,-261.481 308,-280 309.665,-284.019 312.04,-287.818 314.779,-291.325"/>
<polygon fill="black" stroke="black" points="312.368,-293.877 321.669,-298.949 317.561,-289.183 312.368,-293.877"/>
<text text-anchor="middle" x="328" y="-268.8" font-family="Times,serif" font-size="14.00">POST</text>
</g>
</g>
</svg>
