<?xml version="1.0" encoding="UTF-8" standalone="no"?>
<!DOCTYPE svg PUBLIC "-//W3C//DTD SVG 1.1//EN"
 "http://www.w3.org/Graphics/SVG/1.1/DTD/svg11.dtd">
<!-- Generated by graphviz version 2.38.0 (20140413.2041)
 -->
<!-- Title: G Pages: 1 -->
<svg width="8191pt" height="423pt"
 viewBox="0.00 0.00 8191.00 423.00" xmlns="http://www.w3.org/2000/svg" xmlns:xlink="http://www.w3.org/1999/xlink">
<g id="graph0" class="graph" transform="scale(1 1) rotate(0) translate(4 419)">
<title>G</title>
<polygon fill="white" stroke="none" points="-4,4 -4,-419 8187,-419 8187,4 -4,4"/>
<g id="clust1" class="cluster"><title>clusterServerID_1f4f60deee3d</title>
<polygon fill="none" stroke="black" points="6814,-116 6814,-407 8175,-407 8175,-116 6814,-116"/>
<text text-anchor="middle" x="7494.5" y="-391.8" font-family="Times,serif" font-size="14.00">clusterServerID_1f4f60deee3d</text>
</g>
<g id="clust2" class="cluster"><title>clusterServerID_667d78fb58&#45;847xt</title>
<polygon fill="none" stroke="black" points="6814,-8 6814,-83 7154,-83 7154,-8 6814,-8"/>
<text text-anchor="middle" x="6984" y="-67.8" font-family="Times,serif" font-size="14.00">clusterServerID_667d78fb58&#45;847xt</text>
</g>
<g id="clust3" class="cluster"><title>clusterServerID_6dcbcc88d5&#45;mp48t</title>
<polygon fill="none" stroke="black" points="2892,-224 2892,-299 3240,-299 3240,-224 2892,-224"/>
<text text-anchor="middle" x="3066" y="-283.8" font-family="Times,serif" font-size="14.00">clusterServerID_6dcbcc88d5&#45;mp48t</text>
</g>
<g id="clust4" class="cluster"><title>clusterServerID_OuterContainerID</title>
<polygon fill="none" stroke="black" points="1376,-8 1376,-191 6806,-191 6806,-8 1376,-8"/>
<text text-anchor="middle" x="4091" y="-175.8" font-family="Times,serif" font-size="14.00">clusterServerID_OuterContainerID</text>
</g>
<g id="clust5" class="cluster"><title>clusterServerID_e47e2b15aff4</title>
<polygon fill="none" stroke="black" points="8,-8 8,-299 1368,-299 1368,-8 8,-8"/>
<text text-anchor="middle" x="688" y="-283.8" font-family="Times,serif" font-size="14.00">clusterServerID_e47e2b15aff4</text>
</g>
<!-- 10.1.80.183:33342#ServerID_OuterContainerID -->
<g id="node1" class="node"><title>10.1.80.183:33342#ServerID_OuterContainerID</title>
<polygon fill="none" stroke="black" points="2408,-160 2072.52,-142 2408,-124 2743.48,-142 2408,-160"/>
<text text-anchor="middle" x="2408" y="-138.3" font-family="Times,serif" font-size="14.00">10.1.80.183:33342#ServerID_OuterContainerID</text>
</g>
<!-- 1_fwatchdog#ServerID_6dcbcc88d5&#45;mp48t -->
<g id="node2" class="node"><title>1_fwatchdog#ServerID_6dcbcc88d5&#45;mp48t</title>
<polygon fill="none" stroke="black" points="3231.5,-268 2900.5,-268 2900.5,-232 3231.5,-232 3231.5,-268"/>
<text text-anchor="middle" x="3066" y="-246.3" font-family="Times,serif" font-size="14.00">1_fwatchdog#ServerID_6dcbcc88d5&#45;mp48t</text>
</g>
<!-- 10.1.80.183:33342#ServerID_OuterContainerID&#45;&gt;1_fwatchdog#ServerID_6dcbcc88d5&#45;mp48t -->
<g id="edge1" class="edge"><title>10.1.80.183:33342#ServerID_OuterContainerID&#45;&gt;1_fwatchdog#ServerID_6dcbcc88d5&#45;mp48t</title>
<path fill="none" stroke="black" d="M2487.59,-155.822C2602.91,-174.4 2817.18,-208.916 2950.06,-230.323"/>
<polygon fill="black" stroke="black" points="2949.85,-233.834 2960.28,-231.969 2950.96,-226.923 2949.85,-233.834"/>
<text text-anchor="middle" x="2855" y="-202.8" font-family="Times,serif" font-size="14.00">POST</text>
</g>
<!-- 1_fwatchdog#ServerID_e47e2b15aff4 -->
<g id="node8" class="node"><title>1_fwatchdog#ServerID_e47e2b15aff4</title>
<polygon fill="none" stroke="black" points="1360,-268 1070,-268 1070,-232 1360,-232 1360,-268"/>
<text text-anchor="middle" x="1215" y="-246.3" font-family="Times,serif" font-size="14.00">1_fwatchdog#ServerID_e47e2b15aff4</text>
</g>
<!-- 10.1.80.183:33342#ServerID_OuterContainerID&#45;&gt;1_fwatchdog#ServerID_e47e2b15aff4 -->
<g id="edge15" class="edge"><title>10.1.80.183:33342#ServerID_OuterContainerID&#45;&gt;1_fwatchdog#ServerID_e47e2b15aff4</title>
<path fill="none" stroke="black" d="M2328.03,-155.744C2258.22,-166.479 2154.13,-181.556 2063,-191 1821.59,-216.019 1540.34,-232.831 1370.1,-241.654"/>
<polygon fill="black" stroke="black" points="1369.87,-238.161 1360.06,-242.172 1370.23,-245.152 1369.87,-238.161"/>
<text text-anchor="middle" x="1988.5" y="-202.8" font-family="Times,serif" font-size="14.00">read</text>
</g>
<!-- 1_fwatchdog#ServerID_6dcbcc88d5&#45;mp48t&#45;&gt;10.1.80.183:33342#ServerID_OuterContainerID -->
<g id="edge7" class="edge"><title>1_fwatchdog#ServerID_6dcbcc88d5&#45;mp48t&#45;&gt;10.1.80.183:33342#ServerID_OuterContainerID</title>
<path fill="none" stroke="black" d="M2900.47,-240.998C2828.9,-235.842 2744.43,-227.475 2669,-214 2596.26,-201.006 2514.33,-177.16 2461.99,-160.713"/>
<polygon fill="black" stroke="black" points="2462.84,-157.311 2452.25,-157.63 2460.73,-163.984 2462.84,-157.311"/>
<text text-anchor="middle" x="2711" y="-202.8" font-family="Times,serif" font-size="14.00">RESPONSE</text>
</g>
<!-- gateway:8080#ServerID_OuterContainerID -->
<g id="node3" class="node"><title>gateway:8080#ServerID_OuterContainerID</title>
<polygon fill="none" stroke="black" points="3066,-160 2761.52,-142 3066,-124 3370.48,-142 3066,-160"/>
<text text-anchor="middle" x="3066" y="-138.3" font-family="Times,serif" font-size="14.00">gateway:8080#ServerID_OuterContainerID</text>
</g>
<!-- 1_fwatchdog#ServerID_6dcbcc88d5&#45;mp48t&#45;&gt;gateway:8080#ServerID_OuterContainerID -->
<g id="edge2" class="edge"><title>1_fwatchdog#ServerID_6dcbcc88d5&#45;mp48t&#45;&gt;gateway:8080#ServerID_OuterContainerID</title>
<path fill="none" stroke="black" d="M3047.04,-231.736C3042.56,-226.523 3038.39,-220.455 3036,-214 3030.21,-198.351 3037.18,-181.103 3045.85,-167.526"/>
<polygon fill="black" stroke="black" points="3048.82,-169.389 3051.68,-159.187 3043.08,-165.38 3048.82,-169.389"/>
<text text-anchor="middle" x="3056" y="-202.8" font-family="Times,serif" font-size="14.00">POST</text>
</g>
<!-- 10.1.80.183:8080#ServerID_OuterContainerID -->
<g id="node6" class="node"><title>10.1.80.183:8080#ServerID_OuterContainerID</title>
<polygon fill="none" stroke="black" points="4387,-160 4059.56,-142 4387,-124 4714.44,-142 4387,-160"/>
<text text-anchor="middle" x="4387" y="-138.3" font-family="Times,serif" font-size="14.00">10.1.80.183:8080#ServerID_OuterContainerID</text>
</g>
<!-- 1_fwatchdog#ServerID_6dcbcc88d5&#45;mp48t&#45;&gt;10.1.80.183:8080#ServerID_OuterContainerID -->
<g id="edge4" class="edge"><title>1_fwatchdog#ServerID_6dcbcc88d5&#45;mp48t&#45;&gt;10.1.80.183:8080#ServerID_OuterContainerID</title>
<path fill="none" stroke="black" d="M3231.9,-243.44C3427.94,-235.896 3763.81,-219.919 4051,-191 4135.9,-182.451 4232.27,-168.214 4299.96,-157.46"/>
<polygon fill="black" stroke="black" points="4300.83,-160.865 4310.15,-155.832 4299.73,-153.953 4300.83,-160.865"/>
<text text-anchor="middle" x="3965" y="-202.8" font-family="Times,serif" font-size="14.00">POST</text>
</g>
<!-- gateway:8080#ServerID_OuterContainerID&#45;&gt;1_fwatchdog#ServerID_6dcbcc88d5&#45;mp48t -->
<g id="edge5" class="edge"><title>gateway:8080#ServerID_OuterContainerID&#45;&gt;1_fwatchdog#ServerID_6dcbcc88d5&#45;mp48t</title>
<path fill="none" stroke="black" d="M3071.06,-159.927C3074.71,-174.311 3078.59,-195.508 3076,-214 3075.64,-216.574 3075.14,-219.224 3074.55,-221.859"/>
<polygon fill="black" stroke="black" points="3071.1,-221.198 3071.96,-231.759 3077.87,-222.971 3071.1,-221.198"/>
<text text-anchor="middle" x="3119" y="-202.8" font-family="Times,serif" font-size="14.00">RESPONSE</text>
</g>
<!-- 10.1.80.183:45496#ServerID_OuterContainerID -->
<g id="node4" class="node"><title>10.1.80.183:45496#ServerID_OuterContainerID</title>
<polygon fill="none" stroke="black" points="5757,-160 5421.52,-142 5757,-124 6092.48,-142 5757,-160"/>
<text text-anchor="middle" x="5757" y="-138.3" font-family="Times,serif" font-size="14.00">10.1.80.183:45496#ServerID_OuterContainerID</text>
</g>
<!-- 1_fwatchdog#ServerID_667d78fb58&#45;847xt -->
<g id="node5" class="node"><title>1_fwatchdog#ServerID_667d78fb58&#45;847xt</title>
<polygon fill="none" stroke="black" points="7146,-52 6822,-52 6822,-16 7146,-16 7146,-52"/>
<text text-anchor="middle" x="6984" y="-30.3" font-family="Times,serif" font-size="14.00">1_fwatchdog#ServerID_667d78fb58&#45;847xt</text>
</g>
<!-- 10.1.80.183:45496#ServerID_OuterContainerID&#45;&gt;1_fwatchdog#ServerID_667d78fb58&#45;847xt -->
<g id="edge3" class="edge"><title>10.1.80.183:45496#ServerID_OuterContainerID&#45;&gt;1_fwatchdog#ServerID_667d78fb58&#45;847xt</title>
<path fill="none" stroke="black" d="M5885.59,-130.857C5950.2,-125.963 6029.72,-120.248 6101,-116 6415.89,-97.2326 6498.47,-132.584 6810,-83 6848.59,-76.8581 6890.87,-65.3117 6924.08,-55.0827"/>
<polygon fill="black" stroke="black" points="6925.14,-58.4193 6933.64,-52.0985 6923.06,-51.7373 6925.14,-58.4193"/>
<text text-anchor="middle" x="6777" y="-94.8" font-family="Times,serif" font-size="14.00">POST</text>
</g>
<!-- 1_fwatchdog#ServerID_1f4f60deee3d -->
<g id="node15" class="node"><title>1_fwatchdog#ServerID_1f4f60deee3d</title>
<polygon fill="none" stroke="black" points="7112,-268 6822,-268 6822,-232 7112,-232 7112,-268"/>
<text text-anchor="middle" x="6967" y="-246.3" font-family="Times,serif" font-size="14.00">1_fwatchdog#ServerID_1f4f60deee3d</text>
</g>
<!-- 10.1.80.183:45496#ServerID_OuterContainerID&#45;&gt;1_fwatchdog#ServerID_1f4f60deee3d -->
<g id="edge22" class="edge"><title>10.1.80.183:45496#ServerID_OuterContainerID&#45;&gt;1_fwatchdog#ServerID_1f4f60deee3d</title>
<path fill="none" stroke="black" d="M5817.13,-156.83C5892.39,-173.512 6025.46,-200.937 6141,-214 6373.6,-240.299 6645.06,-247.295 6811.48,-248.908"/>
<polygon fill="black" stroke="black" points="6811.76,-252.411 6821.79,-249.003 6811.82,-245.411 6811.76,-252.411"/>
<text text-anchor="middle" x="6157.5" y="-202.8" font-family="Times,serif" font-size="14.00">read</text>
</g>
<!-- 1_fwatchdog#ServerID_667d78fb58&#45;847xt&#45;&gt;10.1.80.183:45496#ServerID_OuterContainerID -->
<g id="edge6" class="edge"><title>1_fwatchdog#ServerID_667d78fb58&#45;847xt&#45;&gt;10.1.80.183:45496#ServerID_OuterContainerID</title>
<path fill="none" stroke="black" d="M6934.43,-52.1037C6899.99,-63.1369 6852.77,-76.5839 6810,-83 6748.66,-92.2025 6592.97,-88.3108 6531,-91 6339.75,-99.2999 6292.03,-103.506 6101,-116 6034.35,-120.359 5960.48,-125.665 5898.33,-130.266"/>
<polygon fill="black" stroke="black" points="5897.77,-126.798 5888.06,-131.028 5898.29,-133.779 5897.77,-126.798"/>
<text text-anchor="middle" x="6573" y="-94.8" font-family="Times,serif" font-size="14.00">RESPONSE</text>
</g>
<!-- 10.1.80.183:45512#ServerID_OuterContainerID -->
<g id="node7" class="node"><title>10.1.80.183:45512#ServerID_OuterContainerID</title>
<polygon fill="none" stroke="black" points="5068,-160 4732.52,-142 5068,-124 5403.48,-142 5068,-160"/>
<text text-anchor="middle" x="5068" y="-138.3" font-family="Times,serif" font-size="14.00">10.1.80.183:45512#ServerID_OuterContainerID</text>
</g>
<!-- 1_fwatchdog#ServerID_667d78fb58&#45;847xt&#45;&gt;10.1.80.183:45512#ServerID_OuterContainerID -->
<g id="edge10" class="edge"><title>1_fwatchdog#ServerID_667d78fb58&#45;847xt&#45;&gt;10.1.80.183:45512#ServerID_OuterContainerID</title>
<path fill="none" stroke="black" d="M6935.6,-52.0452C6901.08,-63.2839 6853.3,-76.9977 6810,-83 6740.28,-92.665 5613.28,-87.0886 5543,-91 5413.26,-98.2204 5264.37,-115.336 5168.39,-127.527"/>
<polygon fill="black" stroke="black" points="5167.88,-124.064 5158.4,-128.802 5168.77,-131.008 5167.88,-124.064"/>
<text text-anchor="middle" x="5585" y="-94.8" font-family="Times,serif" font-size="14.00">RESPONSE</text>
</g>
<!-- 10.1.80.183:8080#ServerID_OuterContainerID&#45;&gt;1_fwatchdog#ServerID_6dcbcc88d5&#45;mp48t -->
<g id="edge8" class="edge"><title>10.1.80.183:8080#ServerID_OuterContainerID&#45;&gt;1_fwatchdog#ServerID_6dcbcc88d5&#45;mp48t</title>
<path fill="none" stroke="black" d="M4313.87,-156.019C4246,-167.49 4142.03,-183.505 4051,-191 3892.83,-204.023 3852.5,-190.921 3694,-199 3541.12,-206.793 3367.7,-221.009 3241.89,-232.297"/>
<polygon fill="black" stroke="black" points="3241.42,-228.825 3231.77,-233.207 3242.04,-235.797 3241.42,-228.825"/>
<text text-anchor="middle" x="3736" y="-202.8" font-family="Times,serif" font-size="14.00">RESPONSE</text>
</g>
<!-- 10.1.80.1:44864#ServerID_OuterContainerID -->
<g id="node22" class="node"><title>10.1.80.1:44864#ServerID_OuterContainerID</title>
<polygon fill="none" stroke="black" points="4324,-52 4005.1,-34 4324,-16 4642.9,-34 4324,-52"/>
<text text-anchor="middle" x="4324" y="-30.3" font-family="Times,serif" font-size="14.00">10.1.80.1:44864#ServerID_OuterContainerID</text>
</g>
<!-- 10.1.80.183:8080#ServerID_OuterContainerID&#45;&gt;10.1.80.1:44864#ServerID_OuterContainerID -->
<g id="edge36" class="edge"><title>10.1.80.183:8080#ServerID_OuterContainerID&#45;&gt;10.1.80.1:44864#ServerID_OuterContainerID</title>
<path fill="none" stroke="black" d="M4380.55,-123.886C4376.57,-114.015 4371.07,-101.515 4365,-91 4358.82,-80.292 4351.01,-69.1727 4343.87,-59.6915"/>
<polygon fill="black" stroke="black" points="4346.44,-57.2905 4337.56,-51.5036 4340.89,-61.5618 4346.44,-57.2905"/>
<text text-anchor="middle" x="4415" y="-94.8" font-family="Times,serif" font-size="14.00">RESPONSE</text>
</g>
<!-- 10.0.88.125:31112#ServerID_OuterContainerID -->
<g id="node23" class="node"><title>10.0.88.125:31112#ServerID_OuterContainerID</title>
<polygon fill="none" stroke="black" points="3652,-52 3316.52,-34 3652,-16 3987.48,-34 3652,-52"/>
<text text-anchor="middle" x="3652" y="-30.3" font-family="Times,serif" font-size="14.00">10.0.88.125:31112#ServerID_OuterContainerID</text>
</g>
<!-- 10.1.80.183:8080#ServerID_OuterContainerID&#45;&gt;10.0.88.125:31112#ServerID_OuterContainerID -->
<g id="edge37" class="edge"><title>10.1.80.183:8080#ServerID_OuterContainerID&#45;&gt;10.0.88.125:31112#ServerID_OuterContainerID</title>
<path fill="none" stroke="black" d="M4301.61,-128.685C4163.72,-108.8 3892.93,-69.7457 3748.34,-48.8945"/>
<polygon fill="black" stroke="black" points="3748.55,-45.3885 3738.16,-47.4252 3747.55,-52.3168 3748.55,-45.3885"/>
<text text-anchor="middle" x="4171" y="-94.8" font-family="Times,serif" font-size="14.00">RESPONSE</text>
</g>
<!-- 10.1.80.1:17145#ServerID_OuterContainerID -->
<g id="node24" class="node"><title>10.1.80.1:17145#ServerID_OuterContainerID</title>
<polygon fill="none" stroke="black" points="4980,-52 4661.1,-34 4980,-16 5298.9,-34 4980,-52"/>
<text text-anchor="middle" x="4980" y="-30.3" font-family="Times,serif" font-size="14.00">10.1.80.1:17145#ServerID_OuterContainerID</text>
</g>
<!-- 10.1.80.183:8080#ServerID_OuterContainerID&#45;&gt;10.1.80.1:17145#ServerID_OuterContainerID -->
<g id="edge39" class="edge"><title>10.1.80.183:8080#ServerID_OuterContainerID&#45;&gt;10.1.80.1:17145#ServerID_OuterContainerID</title>
<path fill="none" stroke="black" d="M4518.87,-131.195C4577.67,-125.673 4647.6,-117.519 4710,-106 4784.93,-92.1676 4869.66,-68.5475 4923.89,-52.3782"/>
<polygon fill="black" stroke="black" points="4925.08,-55.6756 4933.65,-49.4497 4923.07,-48.9708 4925.08,-55.6756"/>
<text text-anchor="middle" x="4820" y="-94.8" font-family="Times,serif" font-size="14.00">RESPONSE</text>
</g>
<!-- 10.1.80.183:45512#ServerID_OuterContainerID&#45;&gt;1_fwatchdog#ServerID_667d78fb58&#45;847xt -->
<g id="edge9" class="edge"><title>10.1.80.183:45512#ServerID_OuterContainerID&#45;&gt;1_fwatchdog#ServerID_667d78fb58&#45;847xt</title>
<path fill="none" stroke="black" d="M5193.29,-130.675C5258.72,-125.599 5340.13,-119.776 5413,-116 5768.7,-97.5695 5857.92,-98.9461 6214,-91 6280.21,-89.5225 6744.43,-92.3266 6810,-83 6849.25,-77.417 6892.2,-65.6296 6925.61,-55.1334"/>
<polygon fill="black" stroke="black" points="6926.75,-58.444 6935.21,-52.0701 6924.62,-51.7752 6926.75,-58.444"/>
<text text-anchor="middle" x="6234" y="-94.8" font-family="Times,serif" font-size="14.00">POST</text>
</g>
<!-- 10.1.80.183:45512#ServerID_OuterContainerID&#45;&gt;1_fwatchdog#ServerID_1f4f60deee3d -->
<g id="edge34" class="edge"><title>10.1.80.183:45512#ServerID_OuterContainerID&#45;&gt;1_fwatchdog#ServerID_1f4f60deee3d</title>
<path fill="none" stroke="black" d="M5144.83,-155.911C5214.58,-167.102 5320.39,-182.757 5413,-191 5923.51,-236.438 6531.45,-246.381 6811.57,-248.485"/>
<polygon fill="black" stroke="black" points="6811.78,-251.987 6821.8,-248.56 6811.83,-244.987 6811.78,-251.987"/>
<text text-anchor="middle" x="5726.5" y="-202.8" font-family="Times,serif" font-size="14.00">read</text>
</g>
<!-- localhost:3000#ServerID_e47e2b15aff4 -->
<g id="node9" class="node"><title>localhost:3000#ServerID_e47e2b15aff4</title>
<polygon fill="none" stroke="black" points="1081,-160 801.652,-142 1081,-124 1360.35,-142 1081,-160"/>
<text text-anchor="middle" x="1081" y="-138.3" font-family="Times,serif" font-size="14.00">localhost:3000#ServerID_e47e2b15aff4</text>
</g>
<!-- 1_fwatchdog#ServerID_e47e2b15aff4&#45;&gt;localhost:3000#ServerID_e47e2b15aff4 -->
<g id="edge11" class="edge"><title>1_fwatchdog#ServerID_e47e2b15aff4&#45;&gt;localhost:3000#ServerID_e47e2b15aff4</title>
<path fill="none" stroke="black" d="M1114.17,-231.96C1097.37,-227.124 1083.57,-221.174 1078,-214 1068.44,-201.69 1069.05,-184.238 1072.11,-169.718"/>
<polygon fill="black" stroke="black" points="1075.57,-170.335 1074.67,-159.778 1068.79,-168.591 1075.57,-170.335"/>
<text text-anchor="middle" x="1107" y="-202.8" font-family="Times,serif" font-size="14.00">connect</text>
</g>
<!-- 1_fwatchdog#ServerID_e47e2b15aff4&#45;&gt;localhost:3000#ServerID_e47e2b15aff4 -->
<g id="edge13" class="edge"><title>1_fwatchdog#ServerID_e47e2b15aff4&#45;&gt;localhost:3000#ServerID_e47e2b15aff4</title>
<path fill="none" stroke="black" d="M1182.34,-231.822C1173.21,-226.525 1163.47,-220.392 1155,-214 1136.17,-199.794 1117.02,-181.279 1102.91,-166.718"/>
<polygon fill="black" stroke="black" points="1105.07,-163.906 1095.63,-159.088 1100,-168.739 1105.07,-163.906"/>
<text text-anchor="middle" x="1174" y="-202.8" font-family="Times,serif" font-size="14.00">write</text>
</g>
<!-- localhost:3000#ServerID_e47e2b15aff4&#45;&gt;1_fwatchdog#ServerID_e47e2b15aff4 -->
<g id="edge12" class="edge"><title>localhost:3000#ServerID_e47e2b15aff4&#45;&gt;1_fwatchdog#ServerID_e47e2b15aff4</title>
<path fill="none" stroke="black" d="M1129.8,-156.961C1152.87,-165.738 1179.19,-179.228 1197,-199 1202.73,-205.362 1206.67,-213.683 1209.37,-221.706"/>
<polygon fill="black" stroke="black" points="1206.06,-222.875 1212.16,-231.54 1212.8,-220.964 1206.06,-222.875"/>
<text text-anchor="middle" x="1223.5" y="-202.8" font-family="Times,serif" font-size="14.00">read</text>
</g>
<!-- 9_node#ServerID_e47e2b15aff4 -->
<g id="node11" class="node"><title>9_node#ServerID_e47e2b15aff4</title>
<polygon fill="none" stroke="black" points="1321,-52 1071,-52 1071,-16 1321,-16 1321,-52"/>
<text text-anchor="middle" x="1196" y="-30.3" font-family="Times,serif" font-size="14.00">9_node#ServerID_e47e2b15aff4</text>
</g>
<!-- localhost:3000#ServerID_e47e2b15aff4&#45;&gt;9_node#ServerID_e47e2b15aff4 -->
<g id="edge29" class="edge"><title>localhost:3000#ServerID_e47e2b15aff4&#45;&gt;9_node#ServerID_e47e2b15aff4</title>
<path fill="none" stroke="black" d="M1098.47,-124.901C1117.38,-107.466 1147.77,-79.4555 1169.6,-59.332"/>
<polygon fill="black" stroke="black" points="1172.24,-61.6602 1177.22,-52.3092 1167.5,-56.5131 1172.24,-61.6602"/>
<text text-anchor="middle" x="1152.5" y="-94.8" font-family="Times,serif" font-size="14.00">read</text>
</g>
<!-- /etc/hosts#ServerID_e47e2b15aff4 -->
<g id="node10" class="node"><title>/etc/hosts#ServerID_e47e2b15aff4</title>
<ellipse fill="none" stroke="black" cx="609" cy="-142" rx="174.669" ry="18"/>
<text text-anchor="middle" x="609" y="-138.3" font-family="Times,serif" font-size="14.00">/etc/hosts#ServerID_e47e2b15aff4</text>
</g>
<!-- /etc/hosts#ServerID_e47e2b15aff4&#45;&gt;9_node#ServerID_e47e2b15aff4 -->
<g id="edge14" class="edge"><title>/etc/hosts#ServerID_e47e2b15aff4&#45;&gt;9_node#ServerID_e47e2b15aff4</title>
<path fill="none" stroke="black" d="M691.548,-126.094C796.38,-107.163 977.349,-74.4839 1091.65,-53.8441"/>
<polygon fill="black" stroke="black" points="1092.59,-57.2303 1101.81,-52.0089 1091.35,-50.3417 1092.59,-57.2303"/>
<text text-anchor="middle" x="901.5" y="-94.8" font-family="Times,serif" font-size="14.00">read</text>
</g>
<!-- 9_node#ServerID_e47e2b15aff4&#45;&gt;gateway:8080#ServerID_OuterContainerID -->
<g id="edge19" class="edge"><title>9_node#ServerID_e47e2b15aff4&#45;&gt;gateway:8080#ServerID_OuterContainerID</title>
<path fill="none" stroke="black" d="M1245.76,-52.0456C1280.64,-63.1291 1328.6,-76.6583 1372,-83 1675.53,-127.348 2445.66,-100.154 2752,-116 2815.37,-119.278 2885.8,-124.72 2943.88,-129.692"/>
<polygon fill="black" stroke="black" points="2943.94,-133.21 2954.2,-130.581 2944.54,-126.236 2943.94,-133.21"/>
<text text-anchor="middle" x="1746" y="-94.8" font-family="Times,serif" font-size="14.00">connect</text>
</g>
<!-- 10.152.183.10:53#ServerID_OuterContainerID -->
<g id="node13" class="node"><title>10.152.183.10:53#ServerID_OuterContainerID</title>
<polygon fill="none" stroke="black" points="3715,-160 3387.56,-142 3715,-124 4042.44,-142 3715,-160"/>
<text text-anchor="middle" x="3715" y="-138.3" font-family="Times,serif" font-size="14.00">10.152.183.10:53#ServerID_OuterContainerID</text>
</g>
<!-- 9_node#ServerID_e47e2b15aff4&#45;&gt;10.152.183.10:53#ServerID_OuterContainerID -->
<g id="edge18" class="edge"><title>9_node#ServerID_e47e2b15aff4&#45;&gt;10.152.183.10:53#ServerID_OuterContainerID</title>
<path fill="none" stroke="black" d="M1245.37,-52.0276C1280.27,-63.18 1328.42,-76.7981 1372,-83 1385.8,-84.9637 3365.07,-115.368 3379,-116 3447.5,-119.109 3523.72,-124.613 3586.22,-129.666"/>
<polygon fill="black" stroke="black" points="3586.28,-133.182 3596.53,-130.505 3586.85,-126.205 3586.28,-133.182"/>
<text text-anchor="middle" x="2752.5" y="-94.8" font-family="Times,serif" font-size="14.00">sendto</text>
</g>
<!-- /etc/resolv.conf#ServerID_e47e2b15aff4 -->
<g id="node12" class="node"><title>/etc/resolv.conf#ServerID_e47e2b15aff4</title>
<ellipse fill="none" stroke="black" cx="216" cy="-142" rx="200.365" ry="18"/>
<text text-anchor="middle" x="216" y="-138.3" font-family="Times,serif" font-size="14.00">/etc/resolv.conf#ServerID_e47e2b15aff4</text>
</g>
<!-- /etc/resolv.conf#ServerID_e47e2b15aff4&#45;&gt;9_node#ServerID_e47e2b15aff4 -->
<g id="edge16" class="edge"><title>/etc/resolv.conf#ServerID_e47e2b15aff4&#45;&gt;9_node#ServerID_e47e2b15aff4</title>
<path fill="none" stroke="black" d="M329.315,-127.145C360.328,-123.435 393.951,-119.488 425,-116 647.653,-90.989 906.757,-64.2547 1060.76,-48.6143"/>
<polygon fill="black" stroke="black" points="1061.15,-52.0923 1070.75,-47.6003 1060.44,-45.1281 1061.15,-52.0923"/>
<text text-anchor="middle" x="653.5" y="-94.8" font-family="Times,serif" font-size="14.00">read</text>
</g>
<!-- 10.152.183.10:53#ServerID_OuterContainerID&#45;&gt;9_node#ServerID_e47e2b15aff4 -->
<g id="edge17" class="edge"><title>10.152.183.10:53#ServerID_OuterContainerID&#45;&gt;9_node#ServerID_e47e2b15aff4</title>
<path fill="none" stroke="black" d="M3602.01,-130.196C3468.41,-117.98 3239.27,-98.7801 3042,-91 2949.29,-87.3437 1463.93,-95.535 1372,-83 1332.16,-77.567 1288.54,-65.7161 1254.7,-55.1498"/>
<polygon fill="black" stroke="black" points="1255.56,-51.7529 1244.97,-52.0657 1253.45,-58.4253 1255.56,-51.7529"/>
<text text-anchor="middle" x="3335" y="-94.8" font-family="Times,serif" font-size="14.00">recvfrom</text>
</g>
<!-- 10_node#ServerID_1f4f60deee3d -->
<g id="node16" class="node"><title>10_node#ServerID_1f4f60deee3d</title>
<polygon fill="none" stroke="black" points="7389.5,-268 7130.5,-268 7130.5,-232 7389.5,-232 7389.5,-268"/>
<text text-anchor="middle" x="7260" y="-246.3" font-family="Times,serif" font-size="14.00">10_node#ServerID_1f4f60deee3d</text>
</g>
<!-- 10.152.183.10:53#ServerID_OuterContainerID&#45;&gt;10_node#ServerID_1f4f60deee3d -->
<g id="edge28" class="edge"><title>10.152.183.10:53#ServerID_OuterContainerID&#45;&gt;10_node#ServerID_1f4f60deee3d</title>
<path fill="none" stroke="black" d="M3786.46,-156.132C3854.27,-167.897 3959.17,-184.3 4051,-191 4080.41,-193.146 6145.84,-190.255 6174,-199 6185.3,-202.51 6184.71,-210.451 6196,-214 6245.03,-229.414 7069.84,-219.157 7121,-224 7136.32,-225.45 7152.48,-227.691 7168.15,-230.249"/>
<polygon fill="black" stroke="black" points="7167.92,-233.76 7178.36,-231.97 7169.08,-226.857 7167.92,-233.76"/>
<text text-anchor="middle" x="6229" y="-202.8" font-family="Times,serif" font-size="14.00">recvfrom</text>
</g>
<!-- localhost:3000#ServerID_1f4f60deee3d -->
<g id="node14" class="node"><title>localhost:3000#ServerID_1f4f60deee3d</title>
<polygon fill="none" stroke="black" points="7101,-376 6821.65,-358 7101,-340 7380.35,-358 7101,-376"/>
<text text-anchor="middle" x="7101" y="-354.3" font-family="Times,serif" font-size="14.00">localhost:3000#ServerID_1f4f60deee3d</text>
</g>
<!-- localhost:3000#ServerID_1f4f60deee3d&#45;&gt;1_fwatchdog#ServerID_1f4f60deee3d -->
<g id="edge20" class="edge"><title>localhost:3000#ServerID_1f4f60deee3d&#45;&gt;1_fwatchdog#ServerID_1f4f60deee3d</title>
<path fill="none" stroke="black" d="M7098.27,-340.015C7095.82,-329.454 7091.27,-316.185 7083,-307 7069.49,-292.002 7051.08,-280.619 7032.92,-272.165"/>
<polygon fill="black" stroke="black" points="7034.03,-268.83 7023.46,-268.008 7031.21,-275.238 7034.03,-268.83"/>
<text text-anchor="middle" x="7109.5" y="-310.8" font-family="Times,serif" font-size="14.00">read</text>
</g>
<!-- localhost:3000#ServerID_1f4f60deee3d&#45;&gt;10_node#ServerID_1f4f60deee3d -->
<g id="edge23" class="edge"><title>localhost:3000#ServerID_1f4f60deee3d&#45;&gt;10_node#ServerID_1f4f60deee3d</title>
<path fill="none" stroke="black" d="M7124.46,-341.359C7151.19,-323.538 7195.12,-294.251 7225.7,-273.868"/>
<polygon fill="black" stroke="black" points="7227.95,-276.571 7234.33,-268.112 7224.07,-270.747 7227.95,-276.571"/>
<text text-anchor="middle" x="7191.5" y="-310.8" font-family="Times,serif" font-size="14.00">read</text>
</g>
<!-- 1_fwatchdog#ServerID_1f4f60deee3d&#45;&gt;localhost:3000#ServerID_1f4f60deee3d -->
<g id="edge21" class="edge"><title>1_fwatchdog#ServerID_1f4f60deee3d&#45;&gt;localhost:3000#ServerID_1f4f60deee3d</title>
<path fill="none" stroke="black" d="M6960.58,-268.079C6955.89,-283.76 6952.19,-306.8 6964,-322 6970.76,-330.698 6989.6,-337.598 7011.24,-342.892"/>
<polygon fill="black" stroke="black" points="7010.47,-346.306 7021,-345.138 7012.04,-339.484 7010.47,-346.306"/>
<text text-anchor="middle" x="6983" y="-310.8" font-family="Times,serif" font-size="14.00">write</text>
</g>
<!-- 1_fwatchdog#ServerID_1f4f60deee3d&#45;&gt;localhost:3000#ServerID_1f4f60deee3d -->
<g id="edge24" class="edge"><title>1_fwatchdog#ServerID_1f4f60deee3d&#45;&gt;localhost:3000#ServerID_1f4f60deee3d</title>
<path fill="none" stroke="black" d="M6976.59,-268.2C6986.11,-283.966 7002.01,-307.064 7021,-322 7029.22,-328.463 7038.81,-333.984 7048.45,-338.601"/>
<polygon fill="black" stroke="black" points="7047.1,-341.832 7057.65,-342.753 7049.98,-335.451 7047.1,-341.832"/>
<text text-anchor="middle" x="7050" y="-310.8" font-family="Times,serif" font-size="14.00">connect</text>
</g>
<!-- 10_node#ServerID_1f4f60deee3d&#45;&gt;10.152.183.10:53#ServerID_OuterContainerID -->
<g id="edge27" class="edge"><title>10_node#ServerID_1f4f60deee3d&#45;&gt;10.152.183.10:53#ServerID_OuterContainerID</title>
<path fill="none" stroke="black" d="M7176.86,-231.966C7158.53,-228.793 7139.17,-225.887 7121,-224 6968.87,-208.196 6929.89,-218.466 6777,-214 6549.89,-207.366 6493.18,-202.744 6266,-199 6142.96,-196.972 4173.73,-199.945 4051,-191 3963.66,-184.634 3864.48,-169.482 3796.65,-157.891"/>
<polygon fill="black" stroke="black" points="3796.91,-154.383 3786.46,-156.135 3795.72,-161.282 3796.91,-154.383"/>
<text text-anchor="middle" x="6801.5" y="-202.8" font-family="Times,serif" font-size="14.00">sendto</text>
</g>
<!-- 182.255.33.134:443#ServerID_OuterContainerID -->
<g id="node19" class="node"><title>182.255.33.134:443#ServerID_OuterContainerID</title>
<polygon fill="none" stroke="black" points="6454,-160 6110.47,-142 6454,-124 6797.53,-142 6454,-160"/>
<text text-anchor="middle" x="6454" y="-138.3" font-family="Times,serif" font-size="14.00">182.255.33.134:443#ServerID_OuterContainerID</text>
</g>
<!-- 10_node#ServerID_1f4f60deee3d&#45;&gt;182.255.33.134:443#ServerID_OuterContainerID -->
<g id="edge30" class="edge"><title>10_node#ServerID_1f4f60deee3d&#45;&gt;182.255.33.134:443#ServerID_OuterContainerID</title>
<path fill="none" stroke="black" d="M7174.6,-231.996C7156.93,-228.943 7138.41,-226.076 7121,-224 7046.73,-215.142 7027.42,-221.497 6953,-214 6808.01,-199.395 6640.5,-173.747 6541.12,-157.603"/>
<polygon fill="black" stroke="black" points="6541.56,-154.128 6531.12,-155.974 6540.43,-161.037 6541.56,-154.128"/>
<text text-anchor="middle" x="6972" y="-202.8" font-family="Times,serif" font-size="14.00">write</text>
</g>
<!-- 10_node#ServerID_1f4f60deee3d&#45;&gt;182.255.33.134:443#ServerID_OuterContainerID -->
<g id="edge32" class="edge"><title>10_node#ServerID_1f4f60deee3d&#45;&gt;182.255.33.134:443#ServerID_OuterContainerID</title>
<path fill="none" stroke="black" d="M7184.19,-231.981C7130.53,-220.655 7056.72,-206.523 6991,-199 6911,-189.842 6890.2,-198.165 6810,-191 6718.93,-182.865 6615.42,-168.305 6543.58,-157.348"/>
<polygon fill="black" stroke="black" points="6544.07,-153.882 6533.65,-155.826 6543.01,-160.802 6544.07,-153.882"/>
<text text-anchor="middle" x="7117" y="-202.8" font-family="Times,serif" font-size="14.00">connect</text>
</g>
<!-- /home/app/escape2.sh#ServerID_1f4f60deee3d -->
<g id="node20" class="node"><title>/home/app/escape2.sh#ServerID_1f4f60deee3d</title>
<ellipse fill="none" stroke="black" cx="7260" cy="-142" rx="232.059" ry="18"/>
<text text-anchor="middle" x="7260" y="-138.3" font-family="Times,serif" font-size="14.00">/home/app/escape2.sh#ServerID_1f4f60deee3d</text>
</g>
<!-- 10_node#ServerID_1f4f60deee3d&#45;&gt;/home/app/escape2.sh#ServerID_1f4f60deee3d -->
<g id="edge31" class="edge"><title>10_node#ServerID_1f4f60deee3d&#45;&gt;/home/app/escape2.sh#ServerID_1f4f60deee3d</title>
<path fill="none" stroke="black" d="M7260,-231.969C7260,-215.378 7260,-189.883 7260,-170.431"/>
<polygon fill="black" stroke="black" points="7263.5,-170.341 7260,-160.341 7256.5,-170.341 7263.5,-170.341"/>
<text text-anchor="middle" x="7279" y="-202.8" font-family="Times,serif" font-size="14.00">write</text>
</g>
<!-- /etc/hosts#ServerID_1f4f60deee3d -->
<g id="node17" class="node"><title>/etc/hosts#ServerID_1f4f60deee3d</title>
<ellipse fill="none" stroke="black" cx="7992" cy="-358" rx="174.669" ry="18"/>
<text text-anchor="middle" x="7992" y="-354.3" font-family="Times,serif" font-size="14.00">/etc/hosts#ServerID_1f4f60deee3d</text>
</g>
<!-- /etc/hosts#ServerID_1f4f60deee3d&#45;&gt;10_node#ServerID_1f4f60deee3d -->
<g id="edge25" class="edge"><title>/etc/hosts#ServerID_1f4f60deee3d&#45;&gt;10_node#ServerID_1f4f60deee3d</title>
<path fill="none" stroke="black" d="M7895.17,-342.979C7764.74,-324.09 7532.29,-290.431 7387.68,-269.489"/>
<polygon fill="black" stroke="black" points="7387.82,-265.973 7377.42,-268.004 7386.82,-272.901 7387.82,-265.973"/>
<text text-anchor="middle" x="7750.5" y="-310.8" font-family="Times,serif" font-size="14.00">read</text>
</g>
<!-- /etc/resolv.conf#ServerID_1f4f60deee3d -->
<g id="node18" class="node"><title>/etc/resolv.conf#ServerID_1f4f60deee3d</title>
<ellipse fill="none" stroke="black" cx="7599" cy="-358" rx="200.365" ry="18"/>
<text text-anchor="middle" x="7599" y="-354.3" font-family="Times,serif" font-size="14.00">/etc/resolv.conf#ServerID_1f4f60deee3d</text>
</g>
<!-- /etc/resolv.conf#ServerID_1f4f60deee3d&#45;&gt;10_node#ServerID_1f4f60deee3d -->
<g id="edge26" class="edge"><title>/etc/resolv.conf#ServerID_1f4f60deee3d&#45;&gt;10_node#ServerID_1f4f60deee3d</title>
<path fill="none" stroke="black" d="M7546.4,-340.554C7486.44,-321.803 7388.41,-291.151 7324.04,-271.025"/>
<polygon fill="black" stroke="black" points="7324.99,-267.656 7314.41,-268.012 7322.9,-274.337 7324.99,-267.656"/>
<text text-anchor="middle" x="7495.5" y="-310.8" font-family="Times,serif" font-size="14.00">read</text>
</g>
<!-- 10.1.80.183:33358#ServerID_OuterContainerID -->
<g id="node21" class="node"><title>10.1.80.183:33358#ServerID_OuterContainerID</title>
<polygon fill="none" stroke="black" points="1719,-160 1383.52,-142 1719,-124 2054.48,-142 1719,-160"/>
<text text-anchor="middle" x="1719" y="-138.3" font-family="Times,serif" font-size="14.00">10.1.80.183:33358#ServerID_OuterContainerID</text>
</g>
<!-- 10.1.80.183:33358#ServerID_OuterContainerID&#45;&gt;1_fwatchdog#ServerID_e47e2b15aff4 -->
<g id="edge33" class="edge"><title>10.1.80.183:33358#ServerID_OuterContainerID&#45;&gt;1_fwatchdog#ServerID_e47e2b15aff4</title>
<path fill="none" stroke="black" d="M1654.25,-156.619C1565.67,-175.248 1406.29,-208.769 1305.81,-229.9"/>
<polygon fill="black" stroke="black" points="1305.04,-226.486 1295.98,-231.969 1306.48,-233.336 1305.04,-226.486"/>
<text text-anchor="middle" x="1468.5" y="-202.8" font-family="Times,serif" font-size="14.00">read</text>
</g>
<!-- 10.1.80.1:44864#ServerID_OuterContainerID&#45;&gt;10.1.80.183:8080#ServerID_OuterContainerID -->
<g id="edge35" class="edge"><title>10.1.80.1:44864#ServerID_OuterContainerID&#45;&gt;10.1.80.183:8080#ServerID_OuterContainerID</title>
<path fill="none" stroke="black" d="M4319.74,-52.0564C4316.92,-67.296 4315.31,-89.6729 4325,-106 4328.31,-111.581 4332.87,-116.345 4338.03,-120.392"/>
<polygon fill="black" stroke="black" points="4336.3,-123.446 4346.53,-126.177 4340.23,-117.658 4336.3,-123.446"/>
<text text-anchor="middle" x="4345" y="-94.8" font-family="Times,serif" font-size="14.00">POST</text>
</g>
<!-- 10.1.80.1:17145#ServerID_OuterContainerID&#45;&gt;10.1.80.183:8080#ServerID_OuterContainerID -->
<g id="edge38" class="edge"><title>10.1.80.1:17145#ServerID_OuterContainerID&#45;&gt;10.1.80.183:8080#ServerID_OuterContainerID</title>
<path fill="none" stroke="black" d="M4907.7,-47.9232C4797.13,-67.6879 4586.6,-105.321 4469.96,-126.17"/>
<polygon fill="black" stroke="black" points="4469.24,-122.744 4460.01,-127.949 4470.47,-129.635 4469.24,-122.744"/>
<text text-anchor="middle" x="4686" y="-94.8" font-family="Times,serif" font-size="14.00">POST</text>
</g>
</g>
</svg>
