<?xml version="1.0" encoding="UTF-8" standalone="no"?>
<!DOCTYPE svg PUBLIC "-//W3C//DTD SVG 1.1//EN"
 "http://www.w3.org/Graphics/SVG/1.1/DTD/svg11.dtd">
<!-- Generated by graphviz version 2.38.0 (20140413.2041)
 -->
<!-- Title: G Pages: 1 -->
<svg width="8584pt" height="576pt"
 viewBox="0.00 0.00 8584.00 576.00" xmlns="http://www.w3.org/2000/svg" xmlns:xlink="http://www.w3.org/1999/xlink">
<g id="graph0" class="graph" transform="scale(1 1) rotate(0) translate(4 572)">
<title>G</title>
<polygon fill="white" stroke="none" points="-4,4 -4,-572 8580,-572 8580,4 -4,4"/>
<g id="clust1" class="cluster"><title>clusterServerID_34e86192c217</title>
<polygon fill="none" stroke="black" points="7002,-8 7002,-344 8398,-344 8398,-8 7002,-8"/>
<text text-anchor="middle" x="7700" y="-328.8" font-family="Times,serif" font-size="14.00">clusterServerID_34e86192c217</text>
</g>
<g id="clust2" class="cluster"><title>clusterServerID_5f846fd567&#45;w7nbt</title>
<polygon fill="none" stroke="black" points="6480,-485 6480,-560 6820,-560 6820,-485 6480,-485"/>
<text text-anchor="middle" x="6650" y="-544.8" font-family="Times,serif" font-size="14.00">clusterServerID_5f846fd567&#45;w7nbt</text>
</g>
<g id="clust3" class="cluster"><title>clusterServerID_6df85d7674&#45;2kqrj</title>
<polygon fill="none" stroke="black" points="3804,-485 3804,-560 4142,-560 4142,-485 3804,-485"/>
<text text-anchor="middle" x="3973" y="-544.8" font-family="Times,serif" font-size="14.00">clusterServerID_6df85d7674&#45;2kqrj</text>
</g>
<g id="clust4" class="cluster"><title>clusterServerID_OuterContainerID</title>
<polygon fill="none" stroke="black" points="891,-269 891,-452 6994,-452 6994,-269 891,-269"/>
<text text-anchor="middle" x="3942.5" y="-436.8" font-family="Times,serif" font-size="14.00">clusterServerID_OuterContainerID</text>
</g>
<g id="clust5" class="cluster"><title>clusterServerID_e56b6537e2d5</title>
<polygon fill="none" stroke="black" points="8,-269 8,-452 883,-452 883,-269 8,-269"/>
<text text-anchor="middle" x="445.5" y="-436.8" font-family="Times,serif" font-size="14.00">clusterServerID_e56b6537e2d5</text>
</g>
<!-- 10.1.80.247:8080#ServerID_OuterContainerID -->
<g id="node1" class="node"><title>10.1.80.247:8080#ServerID_OuterContainerID</title>
<polygon fill="none" stroke="black" points="2604,-421 2276.56,-403 2604,-385 2931.44,-403 2604,-421"/>
<text text-anchor="middle" x="2604" y="-399.3" font-family="Times,serif" font-size="14.00">10.1.80.247:8080#ServerID_OuterContainerID</text>
</g>
<!-- 1_fwatchdog#ServerID_6df85d7674&#45;2kqrj -->
<g id="node2" class="node"><title>1_fwatchdog#ServerID_6df85d7674&#45;2kqrj</title>
<polygon fill="none" stroke="black" points="4133.5,-529 3812.5,-529 3812.5,-493 4133.5,-493 4133.5,-529"/>
<text text-anchor="middle" x="3973" y="-507.3" font-family="Times,serif" font-size="14.00">1_fwatchdog#ServerID_6df85d7674&#45;2kqrj</text>
</g>
<!-- 10.1.80.247:8080#ServerID_OuterContainerID&#45;&gt;1_fwatchdog#ServerID_6df85d7674&#45;2kqrj -->
<g id="edge1" class="edge"><title>10.1.80.247:8080#ServerID_OuterContainerID&#45;&gt;1_fwatchdog#ServerID_6df85d7674&#45;2kqrj</title>
<path fill="none" stroke="black" d="M2683.85,-416.626C2752.03,-427.107 2852.78,-441.882 2941,-452 3242.77,-486.61 3596.66,-500.809 3801.81,-506.457"/>
<polygon fill="black" stroke="black" points="3801.98,-509.963 3812.07,-506.736 3802.17,-502.965 3801.98,-509.963"/>
<text text-anchor="middle" x="3209" y="-463.8" font-family="Times,serif" font-size="14.00">RESPONSE</text>
</g>
<!-- 10.1.80.1:1417#ServerID_OuterContainerID -->
<g id="node22" class="node"><title>10.1.80.1:1417#ServerID_OuterContainerID</title>
<polygon fill="none" stroke="black" points="2667,-313 2356.15,-295 2667,-277 2977.85,-295 2667,-313"/>
<text text-anchor="middle" x="2667" y="-291.3" font-family="Times,serif" font-size="14.00">10.1.80.1:1417#ServerID_OuterContainerID</text>
</g>
<!-- 10.1.80.247:8080#ServerID_OuterContainerID&#45;&gt;10.1.80.1:1417#ServerID_OuterContainerID -->
<g id="edge28" class="edge"><title>10.1.80.247:8080#ServerID_OuterContainerID&#45;&gt;10.1.80.1:1417#ServerID_OuterContainerID</title>
<path fill="none" stroke="black" d="M2627.09,-386.166C2633.64,-380.734 2640.26,-374.191 2645,-367 2653.71,-353.774 2659.12,-336.913 2662.4,-322.941"/>
<polygon fill="black" stroke="black" points="2665.87,-323.434 2664.51,-312.928 2659.02,-321.992 2665.87,-323.434"/>
<text text-anchor="middle" x="2695" y="-355.8" font-family="Times,serif" font-size="14.00">RESPONSE</text>
</g>
<!-- 10.0.88.125:31112#ServerID_OuterContainerID -->
<g id="node23" class="node"><title>10.0.88.125:31112#ServerID_OuterContainerID</title>
<polygon fill="none" stroke="black" points="2003,-313 1667.52,-295 2003,-277 2338.48,-295 2003,-313"/>
<text text-anchor="middle" x="2003" y="-291.3" font-family="Times,serif" font-size="14.00">10.0.88.125:31112#ServerID_OuterContainerID</text>
</g>
<!-- 10.1.80.247:8080#ServerID_OuterContainerID&#45;&gt;10.0.88.125:31112#ServerID_OuterContainerID -->
<g id="edge29" class="edge"><title>10.1.80.247:8080#ServerID_OuterContainerID&#45;&gt;10.0.88.125:31112#ServerID_OuterContainerID</title>
<path fill="none" stroke="black" d="M2530.31,-389.002C2418.22,-369.234 2205.5,-331.716 2087.38,-310.882"/>
<polygon fill="black" stroke="black" points="2087.75,-307.394 2077.3,-309.104 2086.54,-314.288 2087.75,-307.394"/>
<text text-anchor="middle" x="2435" y="-355.8" font-family="Times,serif" font-size="14.00">RESPONSE</text>
</g>
<!-- 1_fwatchdog#ServerID_6df85d7674&#45;2kqrj&#45;&gt;10.1.80.247:8080#ServerID_OuterContainerID -->
<g id="edge8" class="edge"><title>1_fwatchdog#ServerID_6df85d7674&#45;2kqrj&#45;&gt;10.1.80.247:8080#ServerID_OuterContainerID</title>
<path fill="none" stroke="black" d="M3812.36,-496.78C3666.92,-485.296 3446.75,-469.115 3255,-460 3115.56,-453.372 3080.11,-463.64 2941,-452 2854.32,-444.747 2755.9,-429.966 2687.91,-418.712"/>
<polygon fill="black" stroke="black" points="2688.12,-415.199 2677.68,-417.008 2686.97,-422.104 2688.12,-415.199"/>
<text text-anchor="middle" x="3532" y="-463.8" font-family="Times,serif" font-size="14.00">POST</text>
</g>
<!-- gateway:8080#ServerID_OuterContainerID -->
<g id="node5" class="node"><title>gateway:8080#ServerID_OuterContainerID</title>
<polygon fill="none" stroke="black" points="5321,-421 5016.52,-403 5321,-385 5625.48,-403 5321,-421"/>
<text text-anchor="middle" x="5321" y="-399.3" font-family="Times,serif" font-size="14.00">gateway:8080#ServerID_OuterContainerID</text>
</g>
<!-- 1_fwatchdog#ServerID_6df85d7674&#45;2kqrj&#45;&gt;gateway:8080#ServerID_OuterContainerID -->
<g id="edge3" class="edge"><title>1_fwatchdog#ServerID_6df85d7674&#45;2kqrj&#45;&gt;gateway:8080#ServerID_OuterContainerID</title>
<path fill="none" stroke="black" d="M4133.69,-495.775C4270.56,-484.219 4472.53,-468.492 4649,-460 4807.97,-452.35 4848.45,-465.831 5007,-452 5087.96,-444.937 5179.76,-430.1 5243.1,-418.779"/>
<polygon fill="black" stroke="black" points="5243.79,-422.211 5253.01,-416.994 5242.55,-415.322 5243.79,-422.211"/>
<text text-anchor="middle" x="4669" y="-463.8" font-family="Times,serif" font-size="14.00">POST</text>
</g>
<!-- 10.1.80.247:50666#ServerID_OuterContainerID -->
<g id="node6" class="node"><title>10.1.80.247:50666#ServerID_OuterContainerID</title>
<polygon fill="none" stroke="black" points="3974,-421 3638.52,-403 3974,-385 4309.48,-403 3974,-421"/>
<text text-anchor="middle" x="3974" y="-399.3" font-family="Times,serif" font-size="14.00">10.1.80.247:50666#ServerID_OuterContainerID</text>
</g>
<!-- 1_fwatchdog#ServerID_6df85d7674&#45;2kqrj&#45;&gt;10.1.80.247:50666#ServerID_OuterContainerID -->
<g id="edge6" class="edge"><title>1_fwatchdog#ServerID_6df85d7674&#45;2kqrj&#45;&gt;10.1.80.247:50666#ServerID_OuterContainerID</title>
<path fill="none" stroke="black" d="M3934.07,-492.889C3921.19,-484.513 3911.4,-473.341 3917,-460 3922.43,-447.053 3932.47,-435.591 3942.64,-426.463"/>
<polygon fill="black" stroke="black" points="3944.97,-429.075 3950.36,-419.952 3940.46,-423.724 3944.97,-429.075"/>
<text text-anchor="middle" x="3959" y="-463.8" font-family="Times,serif" font-size="14.00">RESPONSE</text>
</g>
<!-- 1_fwatchdog#ServerID_5f846fd567&#45;w7nbt -->
<g id="node3" class="node"><title>1_fwatchdog#ServerID_5f846fd567&#45;w7nbt</title>
<polygon fill="none" stroke="black" points="6812,-529 6488,-529 6488,-493 6812,-493 6812,-529"/>
<text text-anchor="middle" x="6650" y="-507.3" font-family="Times,serif" font-size="14.00">1_fwatchdog#ServerID_5f846fd567&#45;w7nbt</text>
</g>
<!-- 10.1.80.247:52662#ServerID_OuterContainerID -->
<g id="node4" class="node"><title>10.1.80.247:52662#ServerID_OuterContainerID</title>
<polygon fill="none" stroke="black" points="6651,-421 6315.52,-403 6651,-385 6986.48,-403 6651,-421"/>
<text text-anchor="middle" x="6651" y="-399.3" font-family="Times,serif" font-size="14.00">10.1.80.247:52662#ServerID_OuterContainerID</text>
</g>
<!-- 1_fwatchdog#ServerID_5f846fd567&#45;w7nbt&#45;&gt;10.1.80.247:52662#ServerID_OuterContainerID -->
<g id="edge2" class="edge"><title>1_fwatchdog#ServerID_5f846fd567&#45;w7nbt&#45;&gt;10.1.80.247:52662#ServerID_OuterContainerID</title>
<path fill="none" stroke="black" d="M6614.26,-492.861C6607.73,-488.032 6601.78,-482.108 6598,-475 6594.87,-469.115 6595.53,-466.194 6598,-460 6603,-447.439 6612.31,-436.073 6621.74,-426.914"/>
<polygon fill="black" stroke="black" points="6624.22,-429.386 6629.25,-420.061 6619.51,-424.214 6624.22,-429.386"/>
<text text-anchor="middle" x="6640" y="-463.8" font-family="Times,serif" font-size="14.00">RESPONSE</text>
</g>
<!-- 10.1.80.247:52662#ServerID_OuterContainerID&#45;&gt;1_fwatchdog#ServerID_5f846fd567&#45;w7nbt -->
<g id="edge4" class="edge"><title>10.1.80.247:52662#ServerID_OuterContainerID&#45;&gt;1_fwatchdog#ServerID_5f846fd567&#45;w7nbt</title>
<path fill="none" stroke="black" d="M6666.08,-420.48C6677.24,-434.767 6689.35,-456.067 6682,-475 6680.64,-478.507 6678.74,-481.876 6676.55,-485.046"/>
<polygon fill="black" stroke="black" points="6673.75,-482.944 6670.2,-492.928 6679.2,-487.335 6673.75,-482.944"/>
<text text-anchor="middle" x="6705" y="-463.8" font-family="Times,serif" font-size="14.00">POST</text>
</g>
<!-- gateway:8080#ServerID_OuterContainerID&#45;&gt;1_fwatchdog#ServerID_6df85d7674&#45;2kqrj -->
<g id="edge7" class="edge"><title>gateway:8080#ServerID_OuterContainerID&#45;&gt;1_fwatchdog#ServerID_6df85d7674&#45;2kqrj</title>
<path fill="none" stroke="black" d="M5248.57,-416.746C5185.06,-427.52 5090.16,-442.651 5007,-452 4704.35,-486.023 4349.51,-500.415 4144.05,-506.259"/>
<polygon fill="black" stroke="black" points="4143.67,-502.768 4133.77,-506.547 4143.87,-509.765 4143.67,-502.768"/>
<text text-anchor="middle" x="4966" y="-463.8" font-family="Times,serif" font-size="14.00">RESPONSE</text>
</g>
<!-- 10_node#ServerID_34e86192c217 -->
<g id="node10" class="node"><title>10_node#ServerID_34e86192c217</title>
<polygon fill="none" stroke="black" points="8288.5,-139 8021.5,-139 8021.5,-103 8288.5,-103 8288.5,-139"/>
<text text-anchor="middle" x="8155" y="-117.3" font-family="Times,serif" font-size="14.00">10_node#ServerID_34e86192c217</text>
</g>
<!-- gateway:8080#ServerID_OuterContainerID&#45;&gt;10_node#ServerID_34e86192c217 -->
<g id="edge26" class="edge"><title>gateway:8080#ServerID_OuterContainerID&#45;&gt;10_node#ServerID_34e86192c217</title>
<path fill="none" stroke="black" d="M5460.4,-393.215C5514.57,-390.119 5577.16,-386.931 5634,-385 6405.33,-358.789 6600.98,-409.092 7370,-344 7599.35,-324.588 8245.8,-397.772 8399,-226 8439.63,-180.448 8372.77,-154.186 8298.84,-139.45"/>
<polygon fill="black" stroke="black" points="8299.33,-135.981 8288.85,-137.535 8298.01,-142.855 8299.33,-135.981"/>
<text text-anchor="middle" x="8395.5" y="-247.8" font-family="Times,serif" font-size="14.00">read</text>
</g>
<!-- 10.1.80.247:50666#ServerID_OuterContainerID&#45;&gt;1_fwatchdog#ServerID_6df85d7674&#45;2kqrj -->
<g id="edge5" class="edge"><title>10.1.80.247:50666#ServerID_OuterContainerID&#45;&gt;1_fwatchdog#ServerID_6df85d7674&#45;2kqrj</title>
<path fill="none" stroke="black" d="M3989.08,-420.48C4000.24,-434.767 4012.35,-456.067 4005,-475 4003.64,-478.507 4001.74,-481.876 3999.55,-485.046"/>
<polygon fill="black" stroke="black" points="3996.75,-482.944 3993.2,-492.928 4002.2,-487.335 3996.75,-482.944"/>
<text text-anchor="middle" x="4028" y="-463.8" font-family="Times,serif" font-size="14.00">POST</text>
</g>
<!-- 1_fwatchdog#ServerID_34e86192c217 -->
<g id="node7" class="node"><title>1_fwatchdog#ServerID_34e86192c217</title>
<polygon fill="none" stroke="black" points="7360.5,-313 7061.5,-313 7061.5,-277 7360.5,-277 7360.5,-313"/>
<text text-anchor="middle" x="7211" y="-291.3" font-family="Times,serif" font-size="14.00">1_fwatchdog#ServerID_34e86192c217</text>
</g>
<!-- 10.1.80.247:50666#ServerID_OuterContainerID&#45;&gt;1_fwatchdog#ServerID_34e86192c217 -->
<g id="edge14" class="edge"><title>10.1.80.247:50666#ServerID_OuterContainerID&#45;&gt;1_fwatchdog#ServerID_34e86192c217</title>
<path fill="none" stroke="black" d="M4128.52,-393.266C4188.04,-390.195 4256.67,-387.012 4319,-385 4393.39,-382.599 6924.1,-352.797 6998,-344 7046.44,-338.234 7100,-326.137 7141.29,-315.53"/>
<polygon fill="black" stroke="black" points="7142.18,-318.915 7150.98,-313.011 7140.42,-312.14 7142.18,-318.915"/>
<text text-anchor="middle" x="6661.5" y="-355.8" font-family="Times,serif" font-size="14.00">read</text>
</g>
<!-- localhost:3000#ServerID_34e86192c217 -->
<g id="node8" class="node"><title>localhost:3000#ServerID_34e86192c217</title>
<polygon fill="none" stroke="black" points="8103,-226 7816.45,-208 8103,-190 8389.55,-208 8103,-226"/>
<text text-anchor="middle" x="8103" y="-204.3" font-family="Times,serif" font-size="14.00">localhost:3000#ServerID_34e86192c217</text>
</g>
<!-- 1_fwatchdog#ServerID_34e86192c217&#45;&gt;localhost:3000#ServerID_34e86192c217 -->
<g id="edge9" class="edge"><title>1_fwatchdog#ServerID_34e86192c217&#45;&gt;localhost:3000#ServerID_34e86192c217</title>
<path fill="none" stroke="black" d="M7282.23,-276.955C7332.23,-265.694 7400.83,-251.648 7462,-244 7614.36,-224.952 7653.69,-234.402 7807,-226 7854.28,-223.409 7905.81,-220.484 7952.43,-217.801"/>
<polygon fill="black" stroke="black" points="7952.82,-221.284 7962.6,-217.214 7952.42,-214.296 7952.82,-221.284"/>
<text text-anchor="middle" x="7491" y="-247.8" font-family="Times,serif" font-size="14.00">connect</text>
</g>
<!-- 1_fwatchdog#ServerID_34e86192c217&#45;&gt;localhost:3000#ServerID_34e86192c217 -->
<g id="edge11" class="edge"><title>1_fwatchdog#ServerID_34e86192c217&#45;&gt;localhost:3000#ServerID_34e86192c217</title>
<path fill="none" stroke="black" d="M7360.83,-283.828C7424.45,-278.11 7490.65,-269.902 7520,-259 7531.09,-254.88 7530.81,-247.839 7542,-244 7546.86,-242.332 7788.64,-227.681 7953.17,-217.871"/>
<polygon fill="black" stroke="black" points="7953.62,-221.35 7963.4,-217.261 7953.21,-214.362 7953.62,-221.35"/>
<text text-anchor="middle" x="7561" y="-247.8" font-family="Times,serif" font-size="14.00">write</text>
</g>
<!-- localhost:3000#ServerID_34e86192c217&#45;&gt;1_fwatchdog#ServerID_34e86192c217 -->
<g id="edge10" class="edge"><title>localhost:3000#ServerID_34e86192c217&#45;&gt;1_fwatchdog#ServerID_34e86192c217</title>
<path fill="none" stroke="black" d="M7996.65,-219.323C7891.75,-229.488 7726.83,-245.419 7584,-259 7514.1,-265.647 7436.82,-272.912 7370.82,-279.092"/>
<polygon fill="black" stroke="black" points="7370.37,-275.618 7360.74,-280.035 7371.02,-282.587 7370.37,-275.618"/>
<text text-anchor="middle" x="7742.5" y="-247.8" font-family="Times,serif" font-size="14.00">read</text>
</g>
<!-- localhost:3000#ServerID_34e86192c217&#45;&gt;10_node#ServerID_34e86192c217 -->
<g id="edge19" class="edge"><title>localhost:3000#ServerID_34e86192c217&#45;&gt;10_node#ServerID_34e86192c217</title>
<path fill="none" stroke="black" d="M8113.03,-190.611C8120.43,-178.502 8130.67,-161.774 8139.17,-147.868"/>
<polygon fill="black" stroke="black" points="8142.24,-149.571 8144.47,-139.214 8136.26,-145.918 8142.24,-149.571"/>
<text text-anchor="middle" x="8148.5" y="-160.8" font-family="Times,serif" font-size="14.00">read</text>
</g>
<!-- 10.1.80.247:50660#ServerID_OuterContainerID -->
<g id="node9" class="node"><title>10.1.80.247:50660#ServerID_OuterContainerID</title>
<polygon fill="none" stroke="black" points="4663,-421 4327.52,-403 4663,-385 4998.48,-403 4663,-421"/>
<text text-anchor="middle" x="4663" y="-399.3" font-family="Times,serif" font-size="14.00">10.1.80.247:50660#ServerID_OuterContainerID</text>
</g>
<!-- 10.1.80.247:50660#ServerID_OuterContainerID&#45;&gt;1_fwatchdog#ServerID_34e86192c217 -->
<g id="edge12" class="edge"><title>10.1.80.247:50660#ServerID_OuterContainerID&#45;&gt;1_fwatchdog#ServerID_34e86192c217</title>
<path fill="none" stroke="black" d="M4819.25,-393.352C4878.36,-390.329 4946.27,-387.156 5008,-385 5450.05,-369.558 6558.92,-397.445 6998,-344 7046.15,-338.14 7099.37,-326.147 7140.58,-315.615"/>
<polygon fill="black" stroke="black" points="7141.71,-318.938 7150.51,-313.044 7139.95,-312.161 7141.71,-318.938"/>
<text text-anchor="middle" x="6929.5" y="-355.8" font-family="Times,serif" font-size="14.00">read</text>
</g>
<!-- 10_node#ServerID_34e86192c217&#45;&gt;gateway:8080#ServerID_OuterContainerID -->
<g id="edge20" class="edge"><title>10_node#ServerID_34e86192c217&#45;&gt;gateway:8080#ServerID_OuterContainerID</title>
<path fill="none" stroke="black" d="M8288.83,-131.14C8354.51,-137.007 8421.77,-145.663 8432,-157 8463.38,-191.776 8449.91,-336.931 8414,-367 8399.2,-379.394 5653.3,-384.414 5634,-385 5579.96,-386.642 5520.72,-389.569 5468.46,-392.538"/>
<polygon fill="black" stroke="black" points="5468.23,-389.045 5458.45,-393.112 5468.63,-396.034 5468.23,-389.045"/>
<text text-anchor="middle" x="8478" y="-247.8" font-family="Times,serif" font-size="14.00">connect</text>
</g>
<!-- pipe:[331683264]#ServerID_34e86192c217 -->
<g id="node11" class="node"><title>pipe:[331683264]#ServerID_34e86192c217</title>
<ellipse fill="none" stroke="black" cx="8155" cy="-34" rx="217.162" ry="18"/>
<text text-anchor="middle" x="8155" y="-30.3" font-family="Times,serif" font-size="14.00">pipe:[331683264]#ServerID_34e86192c217</text>
</g>
<!-- 10_node#ServerID_34e86192c217&#45;&gt;pipe:[331683264]#ServerID_34e86192c217 -->
<g id="edge13" class="edge"><title>10_node#ServerID_34e86192c217&#45;&gt;pipe:[331683264]#ServerID_34e86192c217</title>
<path fill="none" stroke="black" d="M8155,-102.799C8155,-91.1626 8155,-75.5479 8155,-62.2368"/>
<polygon fill="black" stroke="black" points="8158.5,-62.1754 8155,-52.1754 8151.5,-62.1755 8158.5,-62.1754"/>
<text text-anchor="middle" x="8174" y="-73.8" font-family="Times,serif" font-size="14.00">write</text>
</g>
<!-- 10.152.183.10:53#ServerID_OuterContainerID -->
<g id="node15" class="node"><title>10.152.183.10:53#ServerID_OuterContainerID</title>
<polygon fill="none" stroke="black" points="5970,-421 5642.56,-403 5970,-385 6297.44,-403 5970,-421"/>
<text text-anchor="middle" x="5970" y="-399.3" font-family="Times,serif" font-size="14.00">10.152.183.10:53#ServerID_OuterContainerID</text>
</g>
<!-- 10_node#ServerID_34e86192c217&#45;&gt;10.152.183.10:53#ServerID_OuterContainerID -->
<g id="edge18" class="edge"><title>10_node#ServerID_34e86192c217&#45;&gt;10.152.183.10:53#ServerID_OuterContainerID</title>
<path fill="none" stroke="black" d="M8288.64,-124.433C8360.68,-128.136 8440.69,-136.861 8470,-157 8546.92,-209.858 8547.44,-314.905 8470,-367 8445.07,-383.769 6337.03,-384.118 6307,-385 6248.86,-386.708 6185.13,-389.648 6128.88,-392.608"/>
<polygon fill="black" stroke="black" points="6128.64,-389.116 6118.84,-393.141 6129.01,-396.106 6128.64,-389.116"/>
<text text-anchor="middle" x="8551.5" y="-247.8" font-family="Times,serif" font-size="14.00">sendto</text>
</g>
<!-- 10.1.80.247:50678#ServerID_OuterContainerID -->
<g id="node12" class="node"><title>10.1.80.247:50678#ServerID_OuterContainerID</title>
<polygon fill="none" stroke="black" points="3285,-421 2949.52,-403 3285,-385 3620.48,-403 3285,-421"/>
<text text-anchor="middle" x="3285" y="-399.3" font-family="Times,serif" font-size="14.00">10.1.80.247:50678#ServerID_OuterContainerID</text>
</g>
<!-- 10.1.80.247:50678#ServerID_OuterContainerID&#45;&gt;1_fwatchdog#ServerID_34e86192c217 -->
<g id="edge15" class="edge"><title>10.1.80.247:50678#ServerID_OuterContainerID&#45;&gt;1_fwatchdog#ServerID_34e86192c217</title>
<path fill="none" stroke="black" d="M3439.95,-393.285C3499.37,-390.227 3567.82,-387.047 3630,-385 4514.98,-355.874 4736.6,-361.907 5622,-352 5698.44,-351.145 6922.05,-352.676 6998,-344 7046.64,-338.444 7100.41,-326.278 7141.76,-315.585"/>
<polygon fill="black" stroke="black" points="7142.67,-318.965 7151.46,-313.046 7140.89,-312.194 7142.67,-318.965"/>
<text text-anchor="middle" x="5638.5" y="-355.8" font-family="Times,serif" font-size="14.00">read</text>
</g>
<!-- /etc/resolv.conf#ServerID_34e86192c217 -->
<g id="node13" class="node"><title>/etc/resolv.conf#ServerID_34e86192c217</title>
<ellipse fill="none" stroke="black" cx="7593" cy="-208" rx="205.264" ry="18"/>
<text text-anchor="middle" x="7593" y="-204.3" font-family="Times,serif" font-size="14.00">/etc/resolv.conf#ServerID_34e86192c217</text>
</g>
<!-- /etc/resolv.conf#ServerID_34e86192c217&#45;&gt;10_node#ServerID_34e86192c217 -->
<g id="edge16" class="edge"><title>/etc/resolv.conf#ServerID_34e86192c217&#45;&gt;10_node#ServerID_34e86192c217</title>
<path fill="none" stroke="black" d="M7691.21,-192.146C7786.07,-177.799 7930.01,-156.029 8032.35,-140.551"/>
<polygon fill="black" stroke="black" points="8033.06,-143.982 8042.43,-139.026 8032.02,-137.061 8033.06,-143.982"/>
<text text-anchor="middle" x="7923.5" y="-160.8" font-family="Times,serif" font-size="14.00">read</text>
</g>
<!-- /etc/hosts#ServerID_34e86192c217 -->
<g id="node14" class="node"><title>/etc/hosts#ServerID_34e86192c217</title>
<ellipse fill="none" stroke="black" cx="7190" cy="-208" rx="180.068" ry="18"/>
<text text-anchor="middle" x="7190" y="-204.3" font-family="Times,serif" font-size="14.00">/etc/hosts#ServerID_34e86192c217</text>
</g>
<!-- /etc/hosts#ServerID_34e86192c217&#45;&gt;10_node#ServerID_34e86192c217 -->
<g id="edge17" class="edge"><title>/etc/hosts#ServerID_34e86192c217&#45;&gt;10_node#ServerID_34e86192c217</title>
<path fill="none" stroke="black" d="M7318.6,-195.392C7338.82,-193.58 7359.47,-191.734 7379,-190 7599.62,-170.411 7855.57,-148.055 8011.34,-134.489"/>
<polygon fill="black" stroke="black" points="8011.79,-137.963 8021.45,-133.609 8011.19,-130.989 8011.79,-137.963"/>
<text text-anchor="middle" x="7756.5" y="-160.8" font-family="Times,serif" font-size="14.00">read</text>
</g>
<!-- localhost:3000#ServerID_e56b6537e2d5 -->
<g id="node16" class="node"><title>localhost:3000#ServerID_e56b6537e2d5</title>
<polygon fill="none" stroke="black" points="588,-421 301.446,-403 588,-385 874.554,-403 588,-421"/>
<text text-anchor="middle" x="588" y="-399.3" font-family="Times,serif" font-size="14.00">localhost:3000#ServerID_e56b6537e2d5</text>
</g>
<!-- 1_fwatchdog#ServerID_e56b6537e2d5 -->
<g id="node17" class="node"><title>1_fwatchdog#ServerID_e56b6537e2d5</title>
<polygon fill="none" stroke="black" points="863.5,-313 564.5,-313 564.5,-277 863.5,-277 863.5,-313"/>
<text text-anchor="middle" x="714" y="-291.3" font-family="Times,serif" font-size="14.00">1_fwatchdog#ServerID_e56b6537e2d5</text>
</g>
<!-- localhost:3000#ServerID_e56b6537e2d5&#45;&gt;1_fwatchdog#ServerID_e56b6537e2d5 -->
<g id="edge21" class="edge"><title>localhost:3000#ServerID_e56b6537e2d5&#45;&gt;1_fwatchdog#ServerID_e56b6537e2d5</title>
<path fill="none" stroke="black" d="M603.557,-385.667C613.4,-375.61 626.571,-362.649 639,-352 652.261,-340.638 667.604,-328.947 680.945,-319.206"/>
<polygon fill="black" stroke="black" points="683.326,-321.804 689.381,-313.109 679.226,-316.13 683.326,-321.804"/>
<text text-anchor="middle" x="655.5" y="-355.8" font-family="Times,serif" font-size="14.00">read</text>
</g>
<!-- 1_fwatchdog#ServerID_e56b6537e2d5&#45;&gt;localhost:3000#ServerID_e56b6537e2d5 -->
<g id="edge22" class="edge"><title>1_fwatchdog#ServerID_e56b6537e2d5&#45;&gt;localhost:3000#ServerID_e56b6537e2d5</title>
<path fill="none" stroke="black" d="M707.627,-313.023C700.92,-328.885 688.968,-352.247 672,-367 664.31,-373.686 655.163,-379.225 645.781,-383.77"/>
<polygon fill="black" stroke="black" points="644.06,-380.706 636.366,-387.99 646.923,-387.094 644.06,-380.706"/>
<text text-anchor="middle" x="705" y="-355.8" font-family="Times,serif" font-size="14.00">write</text>
</g>
<!-- 10.1.80.247:52666#ServerID_OuterContainerID -->
<g id="node18" class="node"><title>10.1.80.247:52666#ServerID_OuterContainerID</title>
<polygon fill="none" stroke="black" points="1234,-421 898.515,-403 1234,-385 1569.48,-403 1234,-421"/>
<text text-anchor="middle" x="1234" y="-399.3" font-family="Times,serif" font-size="14.00">10.1.80.247:52666#ServerID_OuterContainerID</text>
</g>
<!-- 10.1.80.247:52666#ServerID_OuterContainerID&#45;&gt;1_fwatchdog#ServerID_e56b6537e2d5 -->
<g id="edge23" class="edge"><title>10.1.80.247:52666#ServerID_OuterContainerID&#45;&gt;1_fwatchdog#ServerID_e56b6537e2d5</title>
<path fill="none" stroke="black" d="M1145.08,-389.766C1074.68,-379.449 974.062,-363.298 887,-344 851.149,-336.053 811.656,-325.255 779.466,-315.913"/>
<polygon fill="black" stroke="black" points="780.303,-312.511 769.723,-313.065 778.339,-319.23 780.303,-312.511"/>
<text text-anchor="middle" x="1017.5" y="-355.8" font-family="Times,serif" font-size="14.00">read</text>
</g>
<!-- 10.1.80.247:52670#ServerID_OuterContainerID -->
<g id="node19" class="node"><title>10.1.80.247:52670#ServerID_OuterContainerID</title>
<polygon fill="none" stroke="black" points="1923,-421 1587.52,-403 1923,-385 2258.48,-403 1923,-421"/>
<text text-anchor="middle" x="1923" y="-399.3" font-family="Times,serif" font-size="14.00">10.1.80.247:52670#ServerID_OuterContainerID</text>
</g>
<!-- 10.1.80.247:52670#ServerID_OuterContainerID&#45;&gt;1_fwatchdog#ServerID_e56b6537e2d5 -->
<g id="edge24" class="edge"><title>10.1.80.247:52670#ServerID_OuterContainerID&#45;&gt;1_fwatchdog#ServerID_e56b6537e2d5</title>
<path fill="none" stroke="black" d="M1769.92,-393.188C1593.49,-383.07 1294.81,-366.057 1038,-352 970.895,-348.327 953.328,-354.826 887,-344 848.807,-337.766 806.968,-326.289 774.004,-316.12"/>
<polygon fill="black" stroke="black" points="774.661,-312.659 764.072,-313.014 772.572,-319.34 774.661,-312.659"/>
<text text-anchor="middle" x="1322.5" y="-355.8" font-family="Times,serif" font-size="14.00">read</text>
</g>
<!-- 12_node#ServerID_e56b6537e2d5 -->
<g id="node20" class="node"><title>12_node#ServerID_e56b6537e2d5</title>
<polygon fill="none" stroke="black" points="283.5,-421 16.5,-421 16.5,-385 283.5,-385 283.5,-421"/>
<text text-anchor="middle" x="150" y="-399.3" font-family="Times,serif" font-size="14.00">12_node#ServerID_e56b6537e2d5</text>
</g>
<!-- pipe:[331682415]#ServerID_e56b6537e2d5 -->
<g id="node21" class="node"><title>pipe:[331682415]#ServerID_e56b6537e2d5</title>
<ellipse fill="none" stroke="black" cx="233" cy="-295" rx="217.162" ry="18"/>
<text text-anchor="middle" x="233" y="-291.3" font-family="Times,serif" font-size="14.00">pipe:[331682415]#ServerID_e56b6537e2d5</text>
</g>
<!-- 12_node#ServerID_e56b6537e2d5&#45;&gt;pipe:[331682415]#ServerID_e56b6537e2d5 -->
<g id="edge25" class="edge"><title>12_node#ServerID_e56b6537e2d5&#45;&gt;pipe:[331682415]#ServerID_e56b6537e2d5</title>
<path fill="none" stroke="black" d="M163.335,-384.969C176.888,-367.661 198.028,-340.663 213.468,-320.944"/>
<polygon fill="black" stroke="black" points="216.288,-323.02 219.698,-312.988 210.777,-318.704 216.288,-323.02"/>
<text text-anchor="middle" x="209" y="-355.8" font-family="Times,serif" font-size="14.00">write</text>
</g>
<!-- 10.1.80.1:1417#ServerID_OuterContainerID&#45;&gt;10.1.80.247:8080#ServerID_OuterContainerID -->
<g id="edge27" class="edge"><title>10.1.80.1:1417#ServerID_OuterContainerID&#45;&gt;10.1.80.247:8080#ServerID_OuterContainerID</title>
<path fill="none" stroke="black" d="M2641.46,-311.562C2627.97,-321.329 2612.65,-335.242 2605,-352 2601.78,-359.06 2600.68,-367.284 2600.63,-375"/>
<polygon fill="black" stroke="black" points="2597.13,-375.218 2601.08,-385.048 2604.12,-374.899 2597.13,-375.218"/>
<text text-anchor="middle" x="2625" y="-355.8" font-family="Times,serif" font-size="14.00">POST</text>
</g>
</g>
</svg>
