<?xml version="1.0" encoding="UTF-8" standalone="no"?>
<!DOCTYPE svg PUBLIC "-//W3C//DTD SVG 1.1//EN"
 "http://www.w3.org/Graphics/SVG/1.1/DTD/svg11.dtd">
<!-- Generated by graphviz version 2.38.0 (20140413.2041)
 -->
<!-- Title: G Pages: 1 -->
<svg width="5897pt" height="645pt"
 viewBox="0.00 0.00 5897.00 645.00" xmlns="http://www.w3.org/2000/svg" xmlns:xlink="http://www.w3.org/1999/xlink">
<g id="graph0" class="graph" transform="scale(1 1) rotate(0) translate(4 641)">
<title>G</title>
<polygon fill="white" stroke="none" points="-4,4 -4,-641 5893,-641 5893,4 -4,4"/>
<g id="clust1" class="cluster"><title>clusterServerID_34e86192c217</title>
<polygon fill="none" stroke="black" points="4759,-182 4759,-498 5881,-498 5881,-182 4759,-182"/>
<text text-anchor="middle" x="5320" y="-482.8" font-family="Times,serif" font-size="14.00">clusterServerID_34e86192c217</text>
</g>
<g id="clust2" class="cluster"><title>clusterServerID_5f846fd567&#45;w7nbt</title>
<polygon fill="none" stroke="black" points="853,-531 853,-629 1193,-629 1193,-531 853,-531"/>
<text text-anchor="middle" x="1023" y="-613.8" font-family="Times,serif" font-size="14.00">clusterServerID_5f846fd567&#45;w7nbt</text>
</g>
<g id="clust3" class="cluster"><title>clusterServerID_6df85d7674&#45;2kqrj</title>
<polygon fill="none" stroke="black" points="4413,-269 4413,-367 4751,-367 4751,-269 4413,-269"/>
<text text-anchor="middle" x="4582" y="-351.8" font-family="Times,serif" font-size="14.00">clusterServerID_6df85d7674&#45;2kqrj</text>
</g>
<g id="clust4" class="cluster"><title>clusterServerID_OuterContainerID</title>
<polygon fill="none" stroke="black" points="8,-269 8,-498 3355,-498 3355,-269 8,-269"/>
<text text-anchor="middle" x="1681.5" y="-482.8" font-family="Times,serif" font-size="14.00">clusterServerID_OuterContainerID</text>
</g>
<g id="clust5" class="cluster"><title>clusterServerID_e56b6537e2d5</title>
<polygon fill="none" stroke="black" points="3363,-8 3363,-367 4405,-367 4405,-8 3363,-8"/>
<text text-anchor="middle" x="3884" y="-351.8" font-family="Times,serif" font-size="14.00">clusterServerID_e56b6537e2d5</text>
</g>
<!-- 1_fwatchdog#ServerID_5f846fd567&#45;w7nbt -->
<g id="node1" class="node"><title>1_fwatchdog#ServerID_5f846fd567&#45;w7nbt</title>
<polygon fill="none" stroke="black" points="1185,-575 861,-575 861,-539 1185,-539 1185,-575"/>
<text text-anchor="middle" x="1023" y="-553.3" font-family="Times,serif" font-size="14.00">1_fwatchdog#ServerID_5f846fd567&#45;w7nbt</text>
</g>
<!-- 10.1.80.247:52696#ServerID_OuterContainerID -->
<g id="node2" class="node"><title>10.1.80.247:52696#ServerID_OuterContainerID</title>
<polygon fill="none" stroke="black" points="1024,-444 688.515,-426 1024,-408 1359.48,-426 1024,-444"/>
<text text-anchor="middle" x="1024" y="-422.3" font-family="Times,serif" font-size="14.00">10.1.80.247:52696#ServerID_OuterContainerID</text>
</g>
<!-- 1_fwatchdog#ServerID_5f846fd567&#45;w7nbt&#45;&gt;10.1.80.247:52696#ServerID_OuterContainerID -->
<g id="edge1" class="edge"><title>1_fwatchdog#ServerID_5f846fd567&#45;w7nbt&#45;&gt;10.1.80.247:52696#ServerID_OuterContainerID</title>
<path fill="none" stroke="black" d="M987.261,-538.861C980.725,-534.032 974.784,-528.108 971,-521 967.867,-515.115 969.059,-512.378 971,-506 977.151,-485.792 990.385,-466.057 1002.09,-451.367"/>
<polygon fill="black" stroke="black" points="1005.06,-453.27 1008.74,-443.335 999.665,-448.806 1005.06,-453.27"/>
<text text-anchor="middle" x="1013" y="-509.8" font-family="Times,serif" font-size="14.00">RESPONSE</text>
</g>
<!-- 10.1.80.247:52696#ServerID_OuterContainerID&#45;&gt;1_fwatchdog#ServerID_5f846fd567&#45;w7nbt -->
<g id="edge4" class="edge"><title>10.1.80.247:52696#ServerID_OuterContainerID&#45;&gt;1_fwatchdog#ServerID_5f846fd567&#45;w7nbt</title>
<path fill="none" stroke="black" d="M1036.4,-443.484C1049.03,-462.397 1065.39,-494.248 1055,-521 1053.64,-524.507 1051.74,-527.876 1049.55,-531.046"/>
<polygon fill="black" stroke="black" points="1046.75,-528.944 1043.2,-538.928 1052.2,-533.335 1046.75,-528.944"/>
<text text-anchor="middle" x="1079" y="-509.8" font-family="Times,serif" font-size="14.00">POST</text>
</g>
<!-- 1_fwatchdog#ServerID_e56b6537e2d5 -->
<g id="node14" class="node"><title>1_fwatchdog#ServerID_e56b6537e2d5</title>
<polygon fill="none" stroke="black" points="3918.5,-313 3619.5,-313 3619.5,-277 3918.5,-277 3918.5,-313"/>
<text text-anchor="middle" x="3769" y="-291.3" font-family="Times,serif" font-size="14.00">1_fwatchdog#ServerID_e56b6537e2d5</text>
</g>
<!-- 10.1.80.247:52696#ServerID_OuterContainerID&#45;&gt;1_fwatchdog#ServerID_e56b6537e2d5 -->
<g id="edge18" class="edge"><title>10.1.80.247:52696#ServerID_OuterContainerID&#45;&gt;1_fwatchdog#ServerID_e56b6537e2d5</title>
<path fill="none" stroke="black" d="M1159.61,-415.243C1334.03,-403.185 1646.4,-383.252 1914,-375 2074.48,-370.051 3199.07,-381.191 3359,-367 3472.05,-356.968 3600.77,-332.507 3683.34,-315.107"/>
<polygon fill="black" stroke="black" points="3684.12,-318.519 3693.18,-313.021 3682.67,-311.671 3684.12,-318.519"/>
<text text-anchor="middle" x="1930.5" y="-378.8" font-family="Times,serif" font-size="14.00">read</text>
</g>
<!-- 10.1.80.247:50734#ServerID_OuterContainerID -->
<g id="node3" class="node"><title>10.1.80.247:50734#ServerID_OuterContainerID</title>
<polygon fill="none" stroke="black" points="1713,-444 1377.52,-426 1713,-408 2048.48,-426 1713,-444"/>
<text text-anchor="middle" x="1713" y="-422.3" font-family="Times,serif" font-size="14.00">10.1.80.247:50734#ServerID_OuterContainerID</text>
</g>
<!-- 1_fwatchdog#ServerID_6df85d7674&#45;2kqrj -->
<g id="node4" class="node"><title>1_fwatchdog#ServerID_6df85d7674&#45;2kqrj</title>
<polygon fill="none" stroke="black" points="4742.5,-313 4421.5,-313 4421.5,-277 4742.5,-277 4742.5,-313"/>
<text text-anchor="middle" x="4582" y="-291.3" font-family="Times,serif" font-size="14.00">1_fwatchdog#ServerID_6df85d7674&#45;2kqrj</text>
</g>
<!-- 10.1.80.247:50734#ServerID_OuterContainerID&#45;&gt;1_fwatchdog#ServerID_6df85d7674&#45;2kqrj -->
<g id="edge2" class="edge"><title>10.1.80.247:50734#ServerID_OuterContainerID&#45;&gt;1_fwatchdog#ServerID_6df85d7674&#45;2kqrj</title>
<path fill="none" stroke="black" d="M1808.01,-413.078C1911.02,-400.779 2080.37,-382.384 2227,-375 2287.53,-371.951 4349.56,-378.837 4409,-367 4456.59,-357.524 4507.57,-334.915 4541.77,-317.736"/>
<polygon fill="black" stroke="black" points="4543.64,-320.713 4550.95,-313.05 4540.45,-314.477 4543.64,-320.713"/>
<text text-anchor="middle" x="2247" y="-378.8" font-family="Times,serif" font-size="14.00">POST</text>
</g>
<!-- 1_fwatchdog#ServerID_34e86192c217 -->
<g id="node7" class="node"><title>1_fwatchdog#ServerID_34e86192c217</title>
<polygon fill="none" stroke="black" points="5872.5,-444 5573.5,-444 5573.5,-408 5872.5,-408 5872.5,-444"/>
<text text-anchor="middle" x="5723" y="-422.3" font-family="Times,serif" font-size="14.00">1_fwatchdog#ServerID_34e86192c217</text>
</g>
<!-- 10.1.80.247:50734#ServerID_OuterContainerID&#45;&gt;1_fwatchdog#ServerID_34e86192c217 -->
<g id="edge10" class="edge"><title>10.1.80.247:50734#ServerID_OuterContainerID&#45;&gt;1_fwatchdog#ServerID_34e86192c217</title>
<path fill="none" stroke="black" d="M1767.72,-441.066C1835.3,-458.823 1954.08,-487.271 2058,-498 2154.87,-508.001 5468.8,-518.549 5564,-498 5607.4,-488.631 5653.21,-466.397 5684.46,-449.096"/>
<polygon fill="black" stroke="black" points="5686.27,-452.091 5693.26,-444.134 5682.83,-445.992 5686.27,-452.091"/>
<text text-anchor="middle" x="3810" y="-509.8" font-family="Times,serif" font-size="14.00">read</text>
</g>
<!-- 1_fwatchdog#ServerID_6df85d7674&#45;2kqrj&#45;&gt;10.1.80.247:50734#ServerID_OuterContainerID -->
<g id="edge3" class="edge"><title>1_fwatchdog#ServerID_6df85d7674&#45;2kqrj&#45;&gt;10.1.80.247:50734#ServerID_OuterContainerID</title>
<path fill="none" stroke="black" d="M4550.95,-313.042C4517.19,-330.533 4461.06,-356.613 4409,-367 4360.13,-376.752 2664.81,-373.509 2615,-375 2474.76,-379.197 2089.99,-401.948 1870.97,-415.27"/>
<polygon fill="black" stroke="black" points="1870.44,-411.796 1860.67,-415.897 1870.86,-418.783 1870.44,-411.796"/>
<text text-anchor="middle" x="2657" y="-378.8" font-family="Times,serif" font-size="14.00">RESPONSE</text>
</g>
<!-- gateway:8080#ServerID_OuterContainerID -->
<g id="node5" class="node"><title>gateway:8080#ServerID_OuterContainerID</title>
<polygon fill="none" stroke="black" points="2371,-444 2066.52,-426 2371,-408 2675.48,-426 2371,-444"/>
<text text-anchor="middle" x="2371" y="-422.3" font-family="Times,serif" font-size="14.00">gateway:8080#ServerID_OuterContainerID</text>
</g>
<!-- 1_fwatchdog#ServerID_6df85d7674&#45;2kqrj&#45;&gt;gateway:8080#ServerID_OuterContainerID -->
<g id="edge6" class="edge"><title>1_fwatchdog#ServerID_6df85d7674&#45;2kqrj&#45;&gt;gateway:8080#ServerID_OuterContainerID</title>
<path fill="none" stroke="black" d="M4550.95,-313.019C4517.18,-330.49 4461.04,-356.554 4409,-367 4344.07,-380.032 3283.18,-372.544 3217,-375 3118.18,-378.667 3093.7,-383.898 2995,-390 2908.1,-395.372 2684.95,-407.763 2530.51,-416.261"/>
<polygon fill="black" stroke="black" points="2530.23,-412.771 2520.44,-416.815 2530.62,-419.761 2530.23,-412.771"/>
<text text-anchor="middle" x="3237" y="-378.8" font-family="Times,serif" font-size="14.00">POST</text>
</g>
<!-- 10.1.80.247:8080#ServerID_OuterContainerID -->
<g id="node6" class="node"><title>10.1.80.247:8080#ServerID_OuterContainerID</title>
<polygon fill="none" stroke="black" points="343,-444 15.5599,-426 343,-408 670.44,-426 343,-444"/>
<text text-anchor="middle" x="343" y="-422.3" font-family="Times,serif" font-size="14.00">10.1.80.247:8080#ServerID_OuterContainerID</text>
</g>
<!-- 1_fwatchdog#ServerID_6df85d7674&#45;2kqrj&#45;&gt;10.1.80.247:8080#ServerID_OuterContainerID -->
<g id="edge8" class="edge"><title>1_fwatchdog#ServerID_6df85d7674&#45;2kqrj&#45;&gt;10.1.80.247:8080#ServerID_OuterContainerID</title>
<path fill="none" stroke="black" d="M4550.95,-313.059C4517.19,-330.564 4461.06,-356.657 4409,-367 4369.75,-374.797 1568,-374.145 1528,-375 1361.24,-378.566 1319.67,-383.495 1153,-390 942.786,-398.204 890.169,-398.7 680,-408 624.905,-410.438 564.758,-413.382 510.726,-416.13"/>
<polygon fill="black" stroke="black" points="510.519,-412.635 500.711,-416.64 510.876,-419.626 510.519,-412.635"/>
<text text-anchor="middle" x="1548" y="-378.8" font-family="Times,serif" font-size="14.00">POST</text>
</g>
<!-- gateway:8080#ServerID_OuterContainerID&#45;&gt;1_fwatchdog#ServerID_6df85d7674&#45;2kqrj -->
<g id="edge5" class="edge"><title>gateway:8080#ServerID_OuterContainerID&#45;&gt;1_fwatchdog#ServerID_6df85d7674&#45;2kqrj</title>
<path fill="none" stroke="black" d="M2466.42,-413.635C2574.18,-401.388 2754.9,-382.629 2911,-375 2952.56,-372.969 4368.2,-375.161 4409,-367 4456.58,-357.485 4507.56,-334.882 4541.77,-317.715"/>
<polygon fill="black" stroke="black" points="4543.63,-320.693 4550.95,-313.033 4540.45,-314.457 4543.63,-320.693"/>
<text text-anchor="middle" x="2953" y="-378.8" font-family="Times,serif" font-size="14.00">RESPONSE</text>
</g>
<!-- 10.1.80.247:8080#ServerID_OuterContainerID&#45;&gt;1_fwatchdog#ServerID_6df85d7674&#45;2kqrj -->
<g id="edge7" class="edge"><title>10.1.80.247:8080#ServerID_OuterContainerID&#45;&gt;1_fwatchdog#ServerID_6df85d7674&#45;2kqrj</title>
<path fill="none" stroke="black" d="M461.078,-414.45C604.636,-402.182 854.358,-382.64 1069,-375 1115.36,-373.35 4363.5,-376.03 4409,-367 4456.59,-357.555 4507.58,-334.94 4541.77,-317.752"/>
<polygon fill="black" stroke="black" points="4543.64,-320.727 4550.96,-313.063 4540.46,-314.493 4543.64,-320.727"/>
<text text-anchor="middle" x="1111" y="-378.8" font-family="Times,serif" font-size="14.00">RESPONSE</text>
</g>
<!-- 10.1.80.1:5610#ServerID_OuterContainerID -->
<g id="node19" class="node"><title>10.1.80.1:5610#ServerID_OuterContainerID</title>
<polygon fill="none" stroke="black" points="327,-313 16.1496,-295 327,-277 637.85,-295 327,-313"/>
<text text-anchor="middle" x="327" y="-291.3" font-family="Times,serif" font-size="14.00">10.1.80.1:5610#ServerID_OuterContainerID</text>
</g>
<!-- 10.1.80.247:8080#ServerID_OuterContainerID&#45;&gt;10.1.80.1:5610#ServerID_OuterContainerID -->
<g id="edge23" class="edge"><title>10.1.80.247:8080#ServerID_OuterContainerID&#45;&gt;10.1.80.1:5610#ServerID_OuterContainerID</title>
<path fill="none" stroke="black" d="M343.586,-407.912C343.755,-402.216 343.917,-395.835 344,-390 344.095,-383.334 344.705,-381.629 344,-375 342.119,-357.318 337.933,-337.779 334.186,-322.557"/>
<polygon fill="black" stroke="black" points="337.557,-321.61 331.696,-312.784 330.773,-323.338 337.557,-321.61"/>
<text text-anchor="middle" x="387" y="-378.8" font-family="Times,serif" font-size="14.00">RESPONSE</text>
</g>
<!-- 10.0.88.125:31112#ServerID_OuterContainerID -->
<g id="node20" class="node"><title>10.0.88.125:31112#ServerID_OuterContainerID</title>
<polygon fill="none" stroke="black" points="991,-313 655.515,-295 991,-277 1326.48,-295 991,-313"/>
<text text-anchor="middle" x="991" y="-291.3" font-family="Times,serif" font-size="14.00">10.0.88.125:31112#ServerID_OuterContainerID</text>
</g>
<!-- 10.1.80.247:8080#ServerID_OuterContainerID&#45;&gt;10.0.88.125:31112#ServerID_OuterContainerID -->
<g id="edge25" class="edge"><title>10.1.80.247:8080#ServerID_OuterContainerID&#45;&gt;10.0.88.125:31112#ServerID_OuterContainerID</title>
<path fill="none" stroke="black" d="M413.699,-411.822C475.349,-400.257 567.158,-382.855 647,-367 740.068,-348.519 847.084,-326.274 916.711,-311.668"/>
<polygon fill="black" stroke="black" points="917.639,-315.05 926.707,-309.57 916.201,-308.199 917.639,-315.05"/>
<text text-anchor="middle" x="648" y="-378.8" font-family="Times,serif" font-size="14.00">RESPONSE</text>
</g>
<!-- localhost:3000#ServerID_34e86192c217 -->
<g id="node8" class="node"><title>localhost:3000#ServerID_34e86192c217</title>
<polygon fill="none" stroke="black" points="5586,-313 5299.45,-295 5586,-277 5872.55,-295 5586,-313"/>
<text text-anchor="middle" x="5586" y="-291.3" font-family="Times,serif" font-size="14.00">localhost:3000#ServerID_34e86192c217</text>
</g>
<!-- 1_fwatchdog#ServerID_34e86192c217&#45;&gt;localhost:3000#ServerID_34e86192c217 -->
<g id="edge9" class="edge"><title>1_fwatchdog#ServerID_34e86192c217&#45;&gt;localhost:3000#ServerID_34e86192c217</title>
<path fill="none" stroke="black" d="M5704.81,-407.87C5680.56,-385.039 5637.57,-344.562 5610.49,-319.064"/>
<polygon fill="black" stroke="black" points="5612.65,-316.29 5602.97,-311.983 5607.86,-321.386 5612.65,-316.29"/>
<text text-anchor="middle" x="5701" y="-378.8" font-family="Times,serif" font-size="14.00">write</text>
</g>
<!-- 10_node#ServerID_34e86192c217 -->
<g id="node9" class="node"><title>10_node#ServerID_34e86192c217</title>
<polygon fill="none" stroke="black" points="5046.5,-313 4779.5,-313 4779.5,-277 5046.5,-277 5046.5,-313"/>
<text text-anchor="middle" x="4913" y="-291.3" font-family="Times,serif" font-size="14.00">10_node#ServerID_34e86192c217</text>
</g>
<!-- 10_node#ServerID_34e86192c217&#45;&gt;gateway:8080#ServerID_OuterContainerID -->
<g id="edge16" class="edge"><title>10_node#ServerID_34e86192c217&#45;&gt;gateway:8080#ServerID_OuterContainerID</title>
<path fill="none" stroke="black" d="M4884.55,-313.152C4853.85,-330.599 4802.88,-356.516 4755,-367 4705.4,-377.861 3891.77,-374.054 3841,-375 3712.41,-377.396 2812.5,-402.679 2684,-408 2632.01,-410.153 2575.18,-413.07 2524.39,-415.879"/>
<polygon fill="black" stroke="black" points="2524.11,-412.389 2514.32,-416.439 2524.5,-419.378 2524.11,-412.389"/>
<text text-anchor="middle" x="3870" y="-378.8" font-family="Times,serif" font-size="14.00">connect</text>
</g>
<!-- pipe:[331683264]#ServerID_34e86192c217 -->
<g id="node10" class="node"><title>pipe:[331683264]#ServerID_34e86192c217</title>
<ellipse fill="none" stroke="black" cx="4984" cy="-208" rx="217.162" ry="18"/>
<text text-anchor="middle" x="4984" y="-204.3" font-family="Times,serif" font-size="14.00">pipe:[331683264]#ServerID_34e86192c217</text>
</g>
<!-- 10_node#ServerID_34e86192c217&#45;&gt;pipe:[331683264]#ServerID_34e86192c217 -->
<g id="edge11" class="edge"><title>10_node#ServerID_34e86192c217&#45;&gt;pipe:[331683264]#ServerID_34e86192c217</title>
<path fill="none" stroke="black" d="M4927.37,-276.799C4937.67,-264.471 4951.69,-247.679 4963.21,-233.89"/>
<polygon fill="black" stroke="black" points="4965.93,-236.094 4969.65,-226.175 4960.56,-231.607 4965.93,-236.094"/>
<text text-anchor="middle" x="4971" y="-247.8" font-family="Times,serif" font-size="14.00">write</text>
</g>
<!-- 10.152.183.10:53#ServerID_OuterContainerID -->
<g id="node13" class="node"><title>10.152.183.10:53#ServerID_OuterContainerID</title>
<polygon fill="none" stroke="black" points="3020,-444 2692.56,-426 3020,-408 3347.44,-426 3020,-444"/>
<text text-anchor="middle" x="3020" y="-422.3" font-family="Times,serif" font-size="14.00">10.152.183.10:53#ServerID_OuterContainerID</text>
</g>
<!-- 10_node#ServerID_34e86192c217&#45;&gt;10.152.183.10:53#ServerID_OuterContainerID -->
<g id="edge14" class="edge"><title>10_node#ServerID_34e86192c217&#45;&gt;10.152.183.10:53#ServerID_OuterContainerID</title>
<path fill="none" stroke="black" d="M4884.53,-313.053C4853.81,-330.418 4802.83,-356.268 4755,-367 4709.67,-377.171 4383.43,-373.674 4337,-375 3931.58,-386.574 3456.18,-406.092 3202.09,-417.004"/>
<polygon fill="black" stroke="black" points="3201.86,-413.51 3192.02,-417.436 3202.16,-420.503 3201.86,-413.51"/>
<text text-anchor="middle" x="4361.5" y="-378.8" font-family="Times,serif" font-size="14.00">sendto</text>
</g>
<!-- /etc/resolv.conf#ServerID_34e86192c217 -->
<g id="node11" class="node"><title>/etc/resolv.conf#ServerID_34e86192c217</title>
<ellipse fill="none" stroke="black" cx="5350" cy="-426" rx="205.264" ry="18"/>
<text text-anchor="middle" x="5350" y="-422.3" font-family="Times,serif" font-size="14.00">/etc/resolv.conf#ServerID_34e86192c217</text>
</g>
<!-- /etc/resolv.conf#ServerID_34e86192c217&#45;&gt;10_node#ServerID_34e86192c217 -->
<g id="edge12" class="edge"><title>/etc/resolv.conf#ServerID_34e86192c217&#45;&gt;10_node#ServerID_34e86192c217</title>
<path fill="none" stroke="black" d="M5294.65,-408.662C5214.6,-385.03 5066.66,-341.359 4980.37,-315.886"/>
<polygon fill="black" stroke="black" points="4981.25,-312.499 4970.67,-313.024 4979.27,-319.212 4981.25,-312.499"/>
<text text-anchor="middle" x="5236.5" y="-378.8" font-family="Times,serif" font-size="14.00">read</text>
</g>
<!-- /etc/hosts#ServerID_34e86192c217 -->
<g id="node12" class="node"><title>/etc/hosts#ServerID_34e86192c217</title>
<ellipse fill="none" stroke="black" cx="4947" cy="-426" rx="180.068" ry="18"/>
<text text-anchor="middle" x="4947" y="-422.3" font-family="Times,serif" font-size="14.00">/etc/hosts#ServerID_34e86192c217</text>
</g>
<!-- /etc/hosts#ServerID_34e86192c217&#45;&gt;10_node#ServerID_34e86192c217 -->
<g id="edge13" class="edge"><title>/etc/hosts#ServerID_34e86192c217&#45;&gt;10_node#ServerID_34e86192c217</title>
<path fill="none" stroke="black" d="M4942.49,-407.87C4936.77,-386.185 4926.86,-348.578 4920.12,-323.01"/>
<polygon fill="black" stroke="black" points="4923.47,-321.979 4917.53,-313.201 4916.7,-323.763 4923.47,-321.979"/>
<text text-anchor="middle" x="4952.5" y="-378.8" font-family="Times,serif" font-size="14.00">read</text>
</g>
<!-- 10.152.183.10:53#ServerID_OuterContainerID&#45;&gt;10_node#ServerID_34e86192c217 -->
<g id="edge15" class="edge"><title>10.152.183.10:53#ServerID_OuterContainerID&#45;&gt;10_node#ServerID_34e86192c217</title>
<path fill="none" stroke="black" d="M3264.69,-421.43C3538.11,-416.812 3993.91,-407.237 4386,-390 4550.16,-382.783 4595.48,-406.424 4755,-367 4797.73,-356.44 4843.24,-334.747 4874.39,-318.104"/>
<polygon fill="black" stroke="black" points="4876.46,-320.964 4883.58,-313.118 4873.12,-314.812 4876.46,-320.964"/>
<text text-anchor="middle" x="4752" y="-378.8" font-family="Times,serif" font-size="14.00">recvfrom</text>
</g>
<!-- localhost:3000#ServerID_e56b6537e2d5 -->
<g id="node15" class="node"><title>localhost:3000#ServerID_e56b6537e2d5</title>
<polygon fill="none" stroke="black" points="4110,-226 3823.45,-208 4110,-190 4396.55,-208 4110,-226"/>
<text text-anchor="middle" x="4110" y="-204.3" font-family="Times,serif" font-size="14.00">localhost:3000#ServerID_e56b6537e2d5</text>
</g>
<!-- 1_fwatchdog#ServerID_e56b6537e2d5&#45;&gt;localhost:3000#ServerID_e56b6537e2d5 -->
<g id="edge17" class="edge"><title>1_fwatchdog#ServerID_e56b6537e2d5&#45;&gt;localhost:3000#ServerID_e56b6537e2d5</title>
<path fill="none" stroke="black" d="M3837.6,-276.901C3898.18,-261.801 3985.86,-239.943 4045.26,-225.138"/>
<polygon fill="black" stroke="black" points="4046.41,-228.457 4055.27,-222.642 4044.72,-221.665 4046.41,-228.457"/>
<text text-anchor="middle" x="3979" y="-247.8" font-family="Times,serif" font-size="14.00">write</text>
</g>
<!-- pipe:[331682317]#ServerID_e56b6537e2d5 -->
<g id="node18" class="node"><title>pipe:[331682317]#ServerID_e56b6537e2d5</title>
<ellipse fill="none" stroke="black" cx="3588" cy="-208" rx="217.162" ry="18"/>
<text text-anchor="middle" x="3588" y="-204.3" font-family="Times,serif" font-size="14.00">pipe:[331682317]#ServerID_e56b6537e2d5</text>
</g>
<!-- 1_fwatchdog#ServerID_e56b6537e2d5&#45;&gt;pipe:[331682317]#ServerID_e56b6537e2d5 -->
<g id="edge22" class="edge"><title>1_fwatchdog#ServerID_e56b6537e2d5&#45;&gt;pipe:[331682317]#ServerID_e56b6537e2d5</title>
<path fill="none" stroke="black" d="M3732.37,-276.799C3703.73,-263.346 3663.76,-244.577 3633.14,-230.197"/>
<polygon fill="black" stroke="black" points="3634.5,-226.968 3623.96,-225.885 3631.52,-233.304 3634.5,-226.968"/>
<text text-anchor="middle" x="3709" y="-247.8" font-family="Times,serif" font-size="14.00">write</text>
</g>
<!-- localhost:3000#ServerID_e56b6537e2d5&#45;&gt;1_fwatchdog#ServerID_e56b6537e2d5 -->
<g id="edge21" class="edge"><title>localhost:3000#ServerID_e56b6537e2d5&#45;&gt;1_fwatchdog#ServerID_e56b6537e2d5</title>
<path fill="none" stroke="black" d="M4082.44,-224.43C4061.11,-235.702 4030.5,-250.454 4002,-259 3978.57,-266.027 3953.36,-271.682 3928.5,-276.221"/>
<polygon fill="black" stroke="black" points="3927.85,-272.78 3918.62,-277.97 3929.07,-279.673 3927.85,-272.78"/>
<text text-anchor="middle" x="4058.5" y="-247.8" font-family="Times,serif" font-size="14.00">read</text>
</g>
<!-- 12_node#ServerID_e56b6537e2d5 -->
<g id="node16" class="node"><title>12_node#ServerID_e56b6537e2d5</title>
<polygon fill="none" stroke="black" points="4243.5,-139 3976.5,-139 3976.5,-103 4243.5,-103 4243.5,-139"/>
<text text-anchor="middle" x="4110" y="-117.3" font-family="Times,serif" font-size="14.00">12_node#ServerID_e56b6537e2d5</text>
</g>
<!-- localhost:3000#ServerID_e56b6537e2d5&#45;&gt;12_node#ServerID_e56b6537e2d5 -->
<g id="edge20" class="edge"><title>localhost:3000#ServerID_e56b6537e2d5&#45;&gt;12_node#ServerID_e56b6537e2d5</title>
<path fill="none" stroke="black" d="M4110,-189.799C4110,-178.163 4110,-162.548 4110,-149.237"/>
<polygon fill="black" stroke="black" points="4113.5,-149.175 4110,-139.175 4106.5,-149.175 4113.5,-149.175"/>
<text text-anchor="middle" x="4126.5" y="-160.8" font-family="Times,serif" font-size="14.00">read</text>
</g>
<!-- pipe:[331682415]#ServerID_e56b6537e2d5 -->
<g id="node17" class="node"><title>pipe:[331682415]#ServerID_e56b6537e2d5</title>
<ellipse fill="none" stroke="black" cx="4110" cy="-34" rx="217.162" ry="18"/>
<text text-anchor="middle" x="4110" y="-30.3" font-family="Times,serif" font-size="14.00">pipe:[331682415]#ServerID_e56b6537e2d5</text>
</g>
<!-- 12_node#ServerID_e56b6537e2d5&#45;&gt;pipe:[331682415]#ServerID_e56b6537e2d5 -->
<g id="edge19" class="edge"><title>12_node#ServerID_e56b6537e2d5&#45;&gt;pipe:[331682415]#ServerID_e56b6537e2d5</title>
<path fill="none" stroke="black" d="M4110,-102.799C4110,-91.1626 4110,-75.5479 4110,-62.2368"/>
<polygon fill="black" stroke="black" points="4113.5,-62.1754 4110,-52.1754 4106.5,-62.1755 4113.5,-62.1754"/>
<text text-anchor="middle" x="4129" y="-73.8" font-family="Times,serif" font-size="14.00">write</text>
</g>
<!-- 10.1.80.1:5610#ServerID_OuterContainerID&#45;&gt;10.1.80.247:8080#ServerID_OuterContainerID -->
<g id="edge24" class="edge"><title>10.1.80.1:5610#ServerID_OuterContainerID&#45;&gt;10.1.80.247:8080#ServerID_OuterContainerID</title>
<path fill="none" stroke="black" d="M315.28,-312.554C303.207,-331.806 287.752,-364.238 300,-390 302.216,-394.662 305.391,-398.906 309.025,-402.704"/>
<polygon fill="black" stroke="black" points="306.694,-405.314 316.449,-409.448 311.4,-400.133 306.694,-405.314"/>
<text text-anchor="middle" x="320" y="-378.8" font-family="Times,serif" font-size="14.00">POST</text>
</g>
</g>
</svg>
