<?xml version="1.0" encoding="UTF-8" standalone="no"?>
<!DOCTYPE svg PUBLIC "-//W3C//DTD SVG 1.1//EN"
 "http://www.w3.org/Graphics/SVG/1.1/DTD/svg11.dtd">
<!-- Generated by graphviz version 2.38.0 (20140413.2041)
 -->
<!-- Title: G Pages: 1 -->
<svg width="5758pt" height="471pt"
 viewBox="0.00 0.00 5758.00 471.00" xmlns="http://www.w3.org/2000/svg" xmlns:xlink="http://www.w3.org/1999/xlink">
<g id="graph0" class="graph" transform="scale(1 1) rotate(0) translate(4 467)">
<title>G</title>
<polygon fill="white" stroke="none" points="-4,4 -4,-467 5754,-467 5754,4 -4,4"/>
<g id="clust1" class="cluster"><title>clusterServerID_34e86192c217</title>
<polygon fill="none" stroke="black" points="3710,-8 3710,-324 4832,-324 4832,-8 3710,-8"/>
<text text-anchor="middle" x="4271" y="-308.8" font-family="Times,serif" font-size="14.00">clusterServerID_34e86192c217</text>
</g>
<g id="clust2" class="cluster"><title>clusterServerID_5f846fd567&#45;w7nbt</title>
<polygon fill="none" stroke="black" points="8,-95 8,-193 348,-193 348,-95 8,-95"/>
<text text-anchor="middle" x="178" y="-177.8" font-family="Times,serif" font-size="14.00">clusterServerID_5f846fd567&#45;w7nbt</text>
</g>
<g id="clust3" class="cluster"><title>clusterServerID_6df85d7674&#45;2kqrj</title>
<polygon fill="none" stroke="black" points="2531,-357 2531,-455 2869,-455 2869,-357 2531,-357"/>
<text text-anchor="middle" x="2700" y="-439.8" font-family="Times,serif" font-size="14.00">clusterServerID_6df85d7674&#45;2kqrj</text>
</g>
<g id="clust4" class="cluster"><title>clusterServerID_OuterContainerID</title>
<polygon fill="none" stroke="black" points="356,-95 356,-324 3702,-324 3702,-95 356,-95"/>
<text text-anchor="middle" x="2029" y="-308.8" font-family="Times,serif" font-size="14.00">clusterServerID_OuterContainerID</text>
</g>
<g id="clust5" class="cluster"><title>clusterServerID_e56b6537e2d5</title>
<polygon fill="none" stroke="black" points="4840,-8 4840,-324 5742,-324 5742,-8 4840,-8"/>
<text text-anchor="middle" x="5291" y="-308.8" font-family="Times,serif" font-size="14.00">clusterServerID_e56b6537e2d5</text>
</g>
<!-- 1_fwatchdog#ServerID_6df85d7674&#45;2kqrj -->
<g id="node1" class="node"><title>1_fwatchdog#ServerID_6df85d7674&#45;2kqrj</title>
<polygon fill="none" stroke="black" points="2860.5,-401 2539.5,-401 2539.5,-365 2860.5,-365 2860.5,-401"/>
<text text-anchor="middle" x="2700" y="-379.3" font-family="Times,serif" font-size="14.00">1_fwatchdog#ServerID_6df85d7674&#45;2kqrj</text>
</g>
<!-- 10.1.80.247:8080#ServerID_OuterContainerID -->
<g id="node2" class="node"><title>10.1.80.247:8080#ServerID_OuterContainerID</title>
<polygon fill="none" stroke="black" points="1380,-270 1052.56,-252 1380,-234 1707.44,-252 1380,-270"/>
<text text-anchor="middle" x="1380" y="-248.3" font-family="Times,serif" font-size="14.00">10.1.80.247:8080#ServerID_OuterContainerID</text>
</g>
<!-- 1_fwatchdog#ServerID_6df85d7674&#45;2kqrj&#45;&gt;10.1.80.247:8080#ServerID_OuterContainerID -->
<g id="edge1" class="edge"><title>1_fwatchdog#ServerID_6df85d7674&#45;2kqrj&#45;&gt;10.1.80.247:8080#ServerID_OuterContainerID</title>
<path fill="none" stroke="black" d="M2539.26,-381.67C2343.63,-379.169 2003.78,-368.052 1716,-324 1621.68,-309.563 1513.98,-285.43 1446.49,-269.365"/>
<polygon fill="black" stroke="black" points="1446.96,-265.879 1436.42,-266.957 1445.33,-272.687 1446.96,-265.879"/>
<text text-anchor="middle" x="1896" y="-335.8" font-family="Times,serif" font-size="14.00">POST</text>
</g>
<!-- gateway:8080#ServerID_OuterContainerID -->
<g id="node3" class="node"><title>gateway:8080#ServerID_OuterContainerID</title>
<polygon fill="none" stroke="black" points="2701,-270 2396.52,-252 2701,-234 3005.48,-252 2701,-270"/>
<text text-anchor="middle" x="2701" y="-248.3" font-family="Times,serif" font-size="14.00">gateway:8080#ServerID_OuterContainerID</text>
</g>
<!-- 1_fwatchdog#ServerID_6df85d7674&#45;2kqrj&#45;&gt;gateway:8080#ServerID_OuterContainerID -->
<g id="edge6" class="edge"><title>1_fwatchdog#ServerID_6df85d7674&#45;2kqrj&#45;&gt;gateway:8080#ServerID_OuterContainerID</title>
<path fill="none" stroke="black" d="M2678.2,-364.762C2673.26,-359.629 2668.68,-353.594 2666,-347 2663.49,-340.822 2664.62,-338.522 2666,-332 2669.95,-313.34 2678.61,-293.727 2686.33,-278.712"/>
<polygon fill="black" stroke="black" points="2689.59,-280.036 2691.2,-269.565 2683.41,-276.743 2689.59,-280.036"/>
<text text-anchor="middle" x="2686" y="-335.8" font-family="Times,serif" font-size="14.00">POST</text>
</g>
<!-- 10.1.80.247:50734#ServerID_OuterContainerID -->
<g id="node6" class="node"><title>10.1.80.247:50734#ServerID_OuterContainerID</title>
<polygon fill="none" stroke="black" points="3359,-270 3023.52,-252 3359,-234 3694.48,-252 3359,-270"/>
<text text-anchor="middle" x="3359" y="-248.3" font-family="Times,serif" font-size="14.00">10.1.80.247:50734#ServerID_OuterContainerID</text>
</g>
<!-- 1_fwatchdog#ServerID_6df85d7674&#45;2kqrj&#45;&gt;10.1.80.247:50734#ServerID_OuterContainerID -->
<g id="edge7" class="edge"><title>1_fwatchdog#ServerID_6df85d7674&#45;2kqrj&#45;&gt;10.1.80.247:50734#ServerID_OuterContainerID</title>
<path fill="none" stroke="black" d="M2794.91,-364.988C2857.24,-353.685 2940.55,-338.34 3014,-324 3107.53,-305.74 3215.03,-283.401 3284.84,-268.716"/>
<polygon fill="black" stroke="black" points="3285.79,-272.092 3294.86,-266.606 3284.35,-265.242 3285.79,-272.092"/>
<text text-anchor="middle" x="3014" y="-335.8" font-family="Times,serif" font-size="14.00">RESPONSE</text>
</g>
<!-- 10.1.80.247:8080#ServerID_OuterContainerID&#45;&gt;1_fwatchdog#ServerID_6df85d7674&#45;2kqrj -->
<g id="edge8" class="edge"><title>10.1.80.247:8080#ServerID_OuterContainerID&#45;&gt;1_fwatchdog#ServerID_6df85d7674&#45;2kqrj</title>
<path fill="none" stroke="black" d="M1433.07,-267.123C1498.9,-283.966 1614.83,-311.418 1716,-324 1806.04,-335.197 1829.38,-327.32 1920,-332 2129.84,-342.839 2371.21,-358.859 2529.19,-369.827"/>
<polygon fill="black" stroke="black" points="2529.26,-373.34 2539.48,-370.542 2529.74,-366.357 2529.26,-373.34"/>
<text text-anchor="middle" x="2220" y="-335.8" font-family="Times,serif" font-size="14.00">RESPONSE</text>
</g>
<!-- 10.1.80.1:48339#ServerID_OuterContainerID -->
<g id="node19" class="node"><title>10.1.80.1:48339#ServerID_OuterContainerID</title>
<polygon fill="none" stroke="black" points="1273,-139 954.105,-121 1273,-103 1591.9,-121 1273,-139"/>
<text text-anchor="middle" x="1273" y="-117.3" font-family="Times,serif" font-size="14.00">10.1.80.1:48339#ServerID_OuterContainerID</text>
</g>
<!-- 10.1.80.247:8080#ServerID_OuterContainerID&#45;&gt;10.1.80.1:48339#ServerID_OuterContainerID -->
<g id="edge24" class="edge"><title>10.1.80.247:8080#ServerID_OuterContainerID&#45;&gt;10.1.80.1:48339#ServerID_OuterContainerID</title>
<path fill="none" stroke="black" d="M1298.87,-238.444C1287.57,-233.254 1277.33,-226.03 1270,-216 1255.97,-196.808 1258.87,-169.035 1263.98,-148.653"/>
<polygon fill="black" stroke="black" points="1267.43,-149.328 1266.78,-138.753 1260.69,-147.425 1267.43,-149.328"/>
<text text-anchor="middle" x="1312" y="-204.8" font-family="Times,serif" font-size="14.00">RESPONSE</text>
</g>
<!-- 10.0.88.125:31112#ServerID_OuterContainerID -->
<g id="node20" class="node"><title>10.0.88.125:31112#ServerID_OuterContainerID</title>
<polygon fill="none" stroke="black" points="1945,-139 1609.52,-121 1945,-103 2280.48,-121 1945,-139"/>
<text text-anchor="middle" x="1945" y="-117.3" font-family="Times,serif" font-size="14.00">10.0.88.125:31112#ServerID_OuterContainerID</text>
</g>
<!-- 10.1.80.247:8080#ServerID_OuterContainerID&#45;&gt;10.0.88.125:31112#ServerID_OuterContainerID -->
<g id="edge25" class="edge"><title>10.1.80.247:8080#ServerID_OuterContainerID&#45;&gt;10.0.88.125:31112#ServerID_OuterContainerID</title>
<path fill="none" stroke="black" d="M1440.2,-237.256C1545.5,-213.214 1762.56,-163.655 1874.62,-138.069"/>
<polygon fill="black" stroke="black" points="1875.51,-141.457 1884.48,-135.819 1873.95,-134.633 1875.51,-141.457"/>
<text text-anchor="middle" x="1638" y="-204.8" font-family="Times,serif" font-size="14.00">RESPONSE</text>
</g>
<!-- gateway:8080#ServerID_OuterContainerID&#45;&gt;1_fwatchdog#ServerID_6df85d7674&#45;2kqrj -->
<g id="edge2" class="edge"><title>gateway:8080#ServerID_OuterContainerID&#45;&gt;1_fwatchdog#ServerID_6df85d7674&#45;2kqrj</title>
<path fill="none" stroke="black" d="M2705.03,-270.034C2708.93,-288.905 2713.75,-320.211 2710,-347 2709.64,-349.574 2709.14,-352.224 2708.55,-354.859"/>
<polygon fill="black" stroke="black" points="2705.1,-354.198 2705.96,-364.759 2711.87,-355.971 2705.1,-354.198"/>
<text text-anchor="middle" x="2754" y="-335.8" font-family="Times,serif" font-size="14.00">RESPONSE</text>
</g>
<!-- 10.1.80.247:52696#ServerID_OuterContainerID -->
<g id="node4" class="node"><title>10.1.80.247:52696#ServerID_OuterContainerID</title>
<polygon fill="none" stroke="black" points="699,-270 363.515,-252 699,-234 1034.48,-252 699,-270"/>
<text text-anchor="middle" x="699" y="-248.3" font-family="Times,serif" font-size="14.00">10.1.80.247:52696#ServerID_OuterContainerID</text>
</g>
<!-- 1_fwatchdog#ServerID_5f846fd567&#45;w7nbt -->
<g id="node5" class="node"><title>1_fwatchdog#ServerID_5f846fd567&#45;w7nbt</title>
<polygon fill="none" stroke="black" points="340,-139 16,-139 16,-103 340,-103 340,-139"/>
<text text-anchor="middle" x="178" y="-117.3" font-family="Times,serif" font-size="14.00">1_fwatchdog#ServerID_5f846fd567&#45;w7nbt</text>
</g>
<!-- 10.1.80.247:52696#ServerID_OuterContainerID&#45;&gt;1_fwatchdog#ServerID_5f846fd567&#45;w7nbt -->
<g id="edge3" class="edge"><title>10.1.80.247:52696#ServerID_OuterContainerID&#45;&gt;1_fwatchdog#ServerID_5f846fd567&#45;w7nbt</title>
<path fill="none" stroke="black" d="M594.037,-239.614C524.508,-230.575 431.765,-215.636 352,-193 306.67,-180.136 257.108,-159.19 222.516,-143.374"/>
<polygon fill="black" stroke="black" points="223.718,-140.075 213.172,-139.061 220.784,-146.43 223.718,-140.075"/>
<text text-anchor="middle" x="466" y="-204.8" font-family="Times,serif" font-size="14.00">POST</text>
</g>
<!-- 1_fwatchdog#ServerID_e56b6537e2d5 -->
<g id="node16" class="node"><title>1_fwatchdog#ServerID_e56b6537e2d5</title>
<polygon fill="none" stroke="black" points="5515.5,-139 5216.5,-139 5216.5,-103 5515.5,-103 5515.5,-139"/>
<text text-anchor="middle" x="5366" y="-117.3" font-family="Times,serif" font-size="14.00">1_fwatchdog#ServerID_e56b6537e2d5</text>
</g>
<!-- 10.1.80.247:52696#ServerID_OuterContainerID&#45;&gt;1_fwatchdog#ServerID_e56b6537e2d5 -->
<g id="edge18" class="edge"><title>10.1.80.247:52696#ServerID_OuterContainerID&#45;&gt;1_fwatchdog#ServerID_e56b6537e2d5</title>
<path fill="none" stroke="black" d="M855.678,-242.382C914.696,-239.372 982.422,-236.199 1044,-234 1374.76,-222.188 2202.06,-205.162 2533,-201 2570.15,-200.533 5171.68,-200.841 5208,-193 5251.74,-183.555 5298.02,-161.1 5329.1,-143.951"/>
<polygon fill="black" stroke="black" points="5330.84,-146.991 5337.85,-139.045 5327.41,-140.886 5330.84,-146.991"/>
<text text-anchor="middle" x="2549.5" y="-204.8" font-family="Times,serif" font-size="14.00">read</text>
</g>
<!-- 1_fwatchdog#ServerID_5f846fd567&#45;w7nbt&#45;&gt;10.1.80.247:52696#ServerID_OuterContainerID -->
<g id="edge4" class="edge"><title>1_fwatchdog#ServerID_5f846fd567&#45;w7nbt&#45;&gt;10.1.80.247:52696#ServerID_OuterContainerID</title>
<path fill="none" stroke="black" d="M210.617,-139.125C244.81,-156.153 300.609,-181.364 352,-193 411.92,-206.567 429.221,-192.04 490,-201 541.255,-208.556 598.403,-222.627 639.967,-233.922"/>
<polygon fill="black" stroke="black" points="639.083,-237.308 649.653,-236.58 640.935,-230.558 639.083,-237.308"/>
<text text-anchor="middle" x="608" y="-204.8" font-family="Times,serif" font-size="14.00">RESPONSE</text>
</g>
<!-- 10.1.80.247:50734#ServerID_OuterContainerID&#45;&gt;1_fwatchdog#ServerID_6df85d7674&#45;2kqrj -->
<g id="edge5" class="edge"><title>10.1.80.247:50734#ServerID_OuterContainerID&#45;&gt;1_fwatchdog#ServerID_6df85d7674&#45;2kqrj</title>
<path fill="none" stroke="black" d="M3332.24,-268.608C3293.35,-290.429 3218.29,-329.357 3149,-347 3097.66,-360.072 2974.88,-369.111 2870.66,-374.725"/>
<polygon fill="black" stroke="black" points="2870.44,-371.232 2860.64,-375.258 2870.81,-378.222 2870.44,-371.232"/>
<text text-anchor="middle" x="3217" y="-335.8" font-family="Times,serif" font-size="14.00">POST</text>
</g>
<!-- 1_fwatchdog#ServerID_34e86192c217 -->
<g id="node7" class="node"><title>1_fwatchdog#ServerID_34e86192c217</title>
<polygon fill="none" stroke="black" points="4823.5,-270 4524.5,-270 4524.5,-234 4823.5,-234 4823.5,-270"/>
<text text-anchor="middle" x="4674" y="-248.3" font-family="Times,serif" font-size="14.00">1_fwatchdog#ServerID_34e86192c217</text>
</g>
<!-- 10.1.80.247:50734#ServerID_OuterContainerID&#45;&gt;1_fwatchdog#ServerID_34e86192c217 -->
<g id="edge10" class="edge"><title>10.1.80.247:50734#ServerID_OuterContainerID&#45;&gt;1_fwatchdog#ServerID_34e86192c217</title>
<path fill="none" stroke="black" d="M3414.04,-267.066C3482.02,-284.824 3601.49,-313.272 3706,-324 3884.84,-342.358 4339.27,-361.934 4515,-324 4558.4,-314.631 4604.21,-292.397 4635.46,-275.096"/>
<polygon fill="black" stroke="black" points="4637.27,-278.091 4644.26,-270.134 4633.83,-271.992 4637.27,-278.091"/>
<text text-anchor="middle" x="4109" y="-335.8" font-family="Times,serif" font-size="14.00">read</text>
</g>
<!-- localhost:3000#ServerID_34e86192c217 -->
<g id="node8" class="node"><title>localhost:3000#ServerID_34e86192c217</title>
<polygon fill="none" stroke="black" points="4537,-139 4250.45,-121 4537,-103 4823.55,-121 4537,-139"/>
<text text-anchor="middle" x="4537" y="-117.3" font-family="Times,serif" font-size="14.00">localhost:3000#ServerID_34e86192c217</text>
</g>
<!-- 1_fwatchdog#ServerID_34e86192c217&#45;&gt;localhost:3000#ServerID_34e86192c217 -->
<g id="edge9" class="edge"><title>1_fwatchdog#ServerID_34e86192c217&#45;&gt;localhost:3000#ServerID_34e86192c217</title>
<path fill="none" stroke="black" d="M4655.81,-233.87C4631.56,-211.039 4588.57,-170.562 4561.49,-145.064"/>
<polygon fill="black" stroke="black" points="4563.65,-142.29 4553.97,-137.983 4558.86,-147.386 4563.65,-142.29"/>
<text text-anchor="middle" x="4653" y="-204.8" font-family="Times,serif" font-size="14.00">write</text>
</g>
<!-- 10_node#ServerID_34e86192c217 -->
<g id="node9" class="node"><title>10_node#ServerID_34e86192c217</title>
<polygon fill="none" stroke="black" points="4003.5,-139 3736.5,-139 3736.5,-103 4003.5,-103 4003.5,-139"/>
<text text-anchor="middle" x="3870" y="-117.3" font-family="Times,serif" font-size="14.00">10_node#ServerID_34e86192c217</text>
</g>
<!-- 10_node#ServerID_34e86192c217&#45;&gt;gateway:8080#ServerID_OuterContainerID -->
<g id="edge19" class="edge"><title>10_node#ServerID_34e86192c217&#45;&gt;gateway:8080#ServerID_OuterContainerID</title>
<path fill="none" stroke="black" d="M3839.39,-139.15C3807.26,-156.198 3754.75,-181.425 3706,-193 3695.84,-195.412 3140.25,-226.575 2859.63,-242.196"/>
<polygon fill="black" stroke="black" points="2859.14,-238.718 2849.35,-242.768 2859.53,-245.707 2859.14,-238.718"/>
<text text-anchor="middle" x="3606" y="-204.8" font-family="Times,serif" font-size="14.00">connect</text>
</g>
<!-- pipe:[331683264]#ServerID_34e86192c217 -->
<g id="node10" class="node"><title>pipe:[331683264]#ServerID_34e86192c217</title>
<ellipse fill="none" stroke="black" cx="3935" cy="-34" rx="217.162" ry="18"/>
<text text-anchor="middle" x="3935" y="-30.3" font-family="Times,serif" font-size="14.00">pipe:[331683264]#ServerID_34e86192c217</text>
</g>
<!-- 10_node#ServerID_34e86192c217&#45;&gt;pipe:[331683264]#ServerID_34e86192c217 -->
<g id="edge11" class="edge"><title>10_node#ServerID_34e86192c217&#45;&gt;pipe:[331683264]#ServerID_34e86192c217</title>
<path fill="none" stroke="black" d="M3883.15,-102.799C3892.49,-90.5865 3905.18,-73.9921 3915.67,-60.2776"/>
<polygon fill="black" stroke="black" points="3918.57,-62.2451 3921.87,-52.1754 3913.01,-57.9929 3918.57,-62.2451"/>
<text text-anchor="middle" x="3926" y="-73.8" font-family="Times,serif" font-size="14.00">write</text>
</g>
<!-- 10.152.183.10:53#ServerID_OuterContainerID -->
<g id="node13" class="node"><title>10.152.183.10:53#ServerID_OuterContainerID</title>
<polygon fill="none" stroke="black" points="2052,-270 1724.56,-252 2052,-234 2379.44,-252 2052,-270"/>
<text text-anchor="middle" x="2052" y="-248.3" font-family="Times,serif" font-size="14.00">10.152.183.10:53#ServerID_OuterContainerID</text>
</g>
<!-- 10_node#ServerID_34e86192c217&#45;&gt;10.152.183.10:53#ServerID_OuterContainerID -->
<g id="edge14" class="edge"><title>10_node#ServerID_34e86192c217&#45;&gt;10.152.183.10:53#ServerID_OuterContainerID</title>
<path fill="none" stroke="black" d="M3840.38,-139.148C3808.43,-156.592 3755.47,-182.507 3706,-193 3659.91,-202.775 2905.08,-199.319 2858,-201 2623.22,-209.384 2350.45,-228.215 2190.03,-240.225"/>
<polygon fill="black" stroke="black" points="2189.34,-236.767 2179.63,-241.006 2189.86,-243.747 2189.34,-236.767"/>
<text text-anchor="middle" x="2882.5" y="-204.8" font-family="Times,serif" font-size="14.00">sendto</text>
</g>
<!-- /etc/hosts#ServerID_34e86192c217 -->
<g id="node11" class="node"><title>/etc/hosts#ServerID_34e86192c217</title>
<ellipse fill="none" stroke="black" cx="4326" cy="-252" rx="180.068" ry="18"/>
<text text-anchor="middle" x="4326" y="-248.3" font-family="Times,serif" font-size="14.00">/etc/hosts#ServerID_34e86192c217</text>
</g>
<!-- /etc/hosts#ServerID_34e86192c217&#45;&gt;10_node#ServerID_34e86192c217 -->
<g id="edge12" class="edge"><title>/etc/hosts#ServerID_34e86192c217&#45;&gt;10_node#ServerID_34e86192c217</title>
<path fill="none" stroke="black" d="M4268.71,-234.793C4185.25,-211.181 4030.37,-167.368 3940.18,-141.853"/>
<polygon fill="black" stroke="black" points="3940.89,-138.417 3930.32,-139.063 3938.99,-145.153 3940.89,-138.417"/>
<text text-anchor="middle" x="4208.5" y="-204.8" font-family="Times,serif" font-size="14.00">read</text>
</g>
<!-- /etc/resolv.conf#ServerID_34e86192c217 -->
<g id="node12" class="node"><title>/etc/resolv.conf#ServerID_34e86192c217</title>
<ellipse fill="none" stroke="black" cx="3923" cy="-252" rx="205.264" ry="18"/>
<text text-anchor="middle" x="3923" y="-248.3" font-family="Times,serif" font-size="14.00">/etc/resolv.conf#ServerID_34e86192c217</text>
</g>
<!-- /etc/resolv.conf#ServerID_34e86192c217&#45;&gt;10_node#ServerID_34e86192c217 -->
<g id="edge13" class="edge"><title>/etc/resolv.conf#ServerID_34e86192c217&#45;&gt;10_node#ServerID_34e86192c217</title>
<path fill="none" stroke="black" d="M3915.96,-233.87C3907.01,-212.088 3891.46,-174.244 3880.96,-148.67"/>
<polygon fill="black" stroke="black" points="3884.1,-147.121 3877.07,-139.201 3877.63,-149.781 3884.1,-147.121"/>
<text text-anchor="middle" x="3924.5" y="-204.8" font-family="Times,serif" font-size="14.00">read</text>
</g>
<!-- 10.152.183.10:53#ServerID_OuterContainerID&#45;&gt;10_node#ServerID_34e86192c217 -->
<g id="edge15" class="edge"><title>10.152.183.10:53#ServerID_OuterContainerID&#45;&gt;10_node#ServerID_34e86192c217</title>
<path fill="none" stroke="black" d="M2208.39,-242.571C2264.97,-239.658 2329.35,-236.5 2388,-234 2618.6,-224.168 2676.36,-224.675 2907,-216 3071.46,-209.814 3112.49,-205.868 3277,-201 3324.65,-199.59 3659.41,-203.106 3706,-193 3750.98,-183.243 3798.91,-160.95 3831.26,-143.928"/>
<polygon fill="black" stroke="black" points="3833.19,-146.86 3840.36,-139.058 3829.89,-140.687 3833.19,-146.86"/>
<text text-anchor="middle" x="3310" y="-204.8" font-family="Times,serif" font-size="14.00">recvfrom</text>
</g>
<!-- localhost:3000#ServerID_e56b6537e2d5 -->
<g id="node14" class="node"><title>localhost:3000#ServerID_e56b6537e2d5</title>
<polygon fill="none" stroke="black" points="5310,-270 5023.45,-252 5310,-234 5596.55,-252 5310,-270"/>
<text text-anchor="middle" x="5310" y="-248.3" font-family="Times,serif" font-size="14.00">localhost:3000#ServerID_e56b6537e2d5</text>
</g>
<!-- 12_node#ServerID_e56b6537e2d5 -->
<g id="node15" class="node"><title>12_node#ServerID_e56b6537e2d5</title>
<polygon fill="none" stroke="black" points="5198.5,-139 4931.5,-139 4931.5,-103 5198.5,-103 5198.5,-139"/>
<text text-anchor="middle" x="5065" y="-117.3" font-family="Times,serif" font-size="14.00">12_node#ServerID_e56b6537e2d5</text>
</g>
<!-- localhost:3000#ServerID_e56b6537e2d5&#45;&gt;12_node#ServerID_e56b6537e2d5 -->
<g id="edge16" class="edge"><title>localhost:3000#ServerID_e56b6537e2d5&#45;&gt;12_node#ServerID_e56b6537e2d5</title>
<path fill="none" stroke="black" d="M5280.93,-235.695C5237.62,-212.888 5155.93,-169.877 5106.39,-143.792"/>
<polygon fill="black" stroke="black" points="5108.01,-140.689 5097.53,-139.127 5104.75,-146.883 5108.01,-140.689"/>
<text text-anchor="middle" x="5253.5" y="-204.8" font-family="Times,serif" font-size="14.00">read</text>
</g>
<!-- localhost:3000#ServerID_e56b6537e2d5&#45;&gt;1_fwatchdog#ServerID_e56b6537e2d5 -->
<g id="edge21" class="edge"><title>localhost:3000#ServerID_e56b6537e2d5&#45;&gt;1_fwatchdog#ServerID_e56b6537e2d5</title>
<path fill="none" stroke="black" d="M5305.87,-233.923C5304.24,-224.063 5303.49,-211.563 5307,-201 5313.78,-180.577 5328.13,-161.161 5340.98,-146.688"/>
<polygon fill="black" stroke="black" points="5343.7,-148.904 5347.91,-139.181 5338.56,-144.157 5343.7,-148.904"/>
<text text-anchor="middle" x="5323.5" y="-204.8" font-family="Times,serif" font-size="14.00">read</text>
</g>
<!-- pipe:[331682415]#ServerID_e56b6537e2d5 -->
<g id="node17" class="node"><title>pipe:[331682415]#ServerID_e56b6537e2d5</title>
<ellipse fill="none" stroke="black" cx="5065" cy="-34" rx="217.162" ry="18"/>
<text text-anchor="middle" x="5065" y="-30.3" font-family="Times,serif" font-size="14.00">pipe:[331682415]#ServerID_e56b6537e2d5</text>
</g>
<!-- 12_node#ServerID_e56b6537e2d5&#45;&gt;pipe:[331682415]#ServerID_e56b6537e2d5 -->
<g id="edge20" class="edge"><title>12_node#ServerID_e56b6537e2d5&#45;&gt;pipe:[331682415]#ServerID_e56b6537e2d5</title>
<path fill="none" stroke="black" d="M5065,-102.799C5065,-91.1626 5065,-75.5479 5065,-62.2368"/>
<polygon fill="black" stroke="black" points="5068.5,-62.1754 5065,-52.1754 5061.5,-62.1755 5068.5,-62.1754"/>
<text text-anchor="middle" x="5084" y="-73.8" font-family="Times,serif" font-size="14.00">write</text>
</g>
<!-- 1_fwatchdog#ServerID_e56b6537e2d5&#45;&gt;localhost:3000#ServerID_e56b6537e2d5 -->
<g id="edge17" class="edge"><title>1_fwatchdog#ServerID_e56b6537e2d5&#45;&gt;localhost:3000#ServerID_e56b6537e2d5</title>
<path fill="none" stroke="black" d="M5364.74,-139.28C5362.7,-158.923 5357.43,-191.442 5344,-216 5341.79,-220.039 5338.99,-223.941 5335.94,-227.581"/>
<polygon fill="black" stroke="black" points="5333.23,-225.36 5329.02,-235.085 5338.38,-230.105 5333.23,-225.36"/>
<text text-anchor="middle" x="5369" y="-204.8" font-family="Times,serif" font-size="14.00">write</text>
</g>
<!-- pipe:[331682317]#ServerID_e56b6537e2d5 -->
<g id="node18" class="node"><title>pipe:[331682317]#ServerID_e56b6537e2d5</title>
<ellipse fill="none" stroke="black" cx="5517" cy="-34" rx="217.162" ry="18"/>
<text text-anchor="middle" x="5517" y="-30.3" font-family="Times,serif" font-size="14.00">pipe:[331682317]#ServerID_e56b6537e2d5</text>
</g>
<!-- 1_fwatchdog#ServerID_e56b6537e2d5&#45;&gt;pipe:[331682317]#ServerID_e56b6537e2d5 -->
<g id="edge22" class="edge"><title>1_fwatchdog#ServerID_e56b6537e2d5&#45;&gt;pipe:[331682317]#ServerID_e56b6537e2d5</title>
<path fill="none" stroke="black" d="M5396.56,-102.799C5420.04,-89.5784 5452.65,-71.2227 5478.02,-56.9443"/>
<polygon fill="black" stroke="black" points="5480.01,-59.8407 5487,-51.8854 5476.57,-53.7408 5480.01,-59.8407"/>
<text text-anchor="middle" x="5469" y="-73.8" font-family="Times,serif" font-size="14.00">write</text>
</g>
<!-- 10.1.80.1:48339#ServerID_OuterContainerID&#45;&gt;10.1.80.247:8080#ServerID_OuterContainerID -->
<g id="edge23" class="edge"><title>10.1.80.1:48339#ServerID_OuterContainerID&#45;&gt;10.1.80.247:8080#ServerID_OuterContainerID</title>
<path fill="none" stroke="black" d="M1294.53,-137.876C1313.26,-152.569 1340.13,-175.882 1358,-201 1363.08,-208.143 1367.36,-216.645 1370.75,-224.594"/>
<polygon fill="black" stroke="black" points="1367.5,-225.889 1374.45,-233.887 1374.01,-223.302 1367.5,-225.889"/>
<text text-anchor="middle" x="1387" y="-204.8" font-family="Times,serif" font-size="14.00">POST</text>
</g>
</g>
</svg>
