<?xml version="1.0" encoding="UTF-8" standalone="no"?>
<!DOCTYPE svg PUBLIC "-//W3C//DTD SVG 1.1//EN"
 "http://www.w3.org/Graphics/SVG/1.1/DTD/svg11.dtd">
<!-- Generated by graphviz version 2.38.0 (20140413.2041)
 -->
<!-- Title: G Pages: 1 -->
<svg width="5550pt" height="645pt"
 viewBox="0.00 0.00 5550.00 645.00" xmlns="http://www.w3.org/2000/svg" xmlns:xlink="http://www.w3.org/1999/xlink">
<g id="graph0" class="graph" transform="scale(1 1) rotate(0) translate(4 641)">
<title>G</title>
<polygon fill="white" stroke="none" points="-4,4 -4,-641 5546,-641 5546,4 -4,4"/>
<g id="clust1" class="cluster"><title>clusterServerID_34e86192c217</title>
<polygon fill="none" stroke="black" points="8,-182 8,-498 1130,-498 1130,-182 8,-182"/>
<text text-anchor="middle" x="569" y="-482.8" font-family="Times,serif" font-size="14.00">clusterServerID_34e86192c217</text>
</g>
<g id="clust2" class="cluster"><title>clusterServerID_5f846fd567&#45;w7nbt</title>
<polygon fill="none" stroke="black" points="3970,-531 3970,-629 4310,-629 4310,-531 3970,-531"/>
<text text-anchor="middle" x="4140" y="-613.8" font-family="Times,serif" font-size="14.00">clusterServerID_5f846fd567&#45;w7nbt</text>
</g>
<g id="clust3" class="cluster"><title>clusterServerID_6df85d7674&#45;2kqrj</title>
<polygon fill="none" stroke="black" points="2602,-531 2602,-629 2940,-629 2940,-531 2602,-531"/>
<text text-anchor="middle" x="2771" y="-613.8" font-family="Times,serif" font-size="14.00">clusterServerID_6df85d7674&#45;2kqrj</text>
</g>
<g id="clust4" class="cluster"><title>clusterServerID_OuterContainerID</title>
<polygon fill="none" stroke="black" points="1138,-269 1138,-498 4484,-498 4484,-269 1138,-269"/>
<text text-anchor="middle" x="2811" y="-482.8" font-family="Times,serif" font-size="14.00">clusterServerID_OuterContainerID</text>
</g>
<g id="clust5" class="cluster"><title>clusterServerID_e56b6537e2d5</title>
<polygon fill="none" stroke="black" points="4492,-8 4492,-367 5534,-367 5534,-8 4492,-8"/>
<text text-anchor="middle" x="5013" y="-351.8" font-family="Times,serif" font-size="14.00">clusterServerID_e56b6537e2d5</text>
</g>
<!-- 10.1.80.247:8080#ServerID_OuterContainerID -->
<g id="node1" class="node"><title>10.1.80.247:8080#ServerID_OuterContainerID</title>
<polygon fill="none" stroke="black" points="2771,-444 2443.56,-426 2771,-408 3098.44,-426 2771,-444"/>
<text text-anchor="middle" x="2771" y="-422.3" font-family="Times,serif" font-size="14.00">10.1.80.247:8080#ServerID_OuterContainerID</text>
</g>
<!-- 1_fwatchdog#ServerID_6df85d7674&#45;2kqrj -->
<g id="node2" class="node"><title>1_fwatchdog#ServerID_6df85d7674&#45;2kqrj</title>
<polygon fill="none" stroke="black" points="2931.5,-575 2610.5,-575 2610.5,-539 2931.5,-539 2931.5,-575"/>
<text text-anchor="middle" x="2771" y="-553.3" font-family="Times,serif" font-size="14.00">1_fwatchdog#ServerID_6df85d7674&#45;2kqrj</text>
</g>
<!-- 10.1.80.247:8080#ServerID_OuterContainerID&#45;&gt;1_fwatchdog#ServerID_6df85d7674&#45;2kqrj -->
<g id="edge1" class="edge"><title>10.1.80.247:8080#ServerID_OuterContainerID&#45;&gt;1_fwatchdog#ServerID_6df85d7674&#45;2kqrj</title>
<path fill="none" stroke="black" d="M2756.02,-443.388C2743.38,-458.416 2726.21,-481.934 2719,-506 2717.09,-512.386 2715.87,-515.115 2719,-521 2721.19,-525.11 2724.1,-528.823 2727.42,-532.158"/>
<polygon fill="black" stroke="black" points="2725.39,-535.021 2735.26,-538.861 2729.94,-529.701 2725.39,-535.021"/>
<text text-anchor="middle" x="2761" y="-509.8" font-family="Times,serif" font-size="14.00">RESPONSE</text>
</g>
<!-- 10.1.80.1:2415#ServerID_OuterContainerID -->
<g id="node19" class="node"><title>10.1.80.1:2415#ServerID_OuterContainerID</title>
<polygon fill="none" stroke="black" points="2878,-313 2567.15,-295 2878,-277 3188.85,-295 2878,-313"/>
<text text-anchor="middle" x="2878" y="-291.3" font-family="Times,serif" font-size="14.00">10.1.80.1:2415#ServerID_OuterContainerID</text>
</g>
<!-- 10.1.80.247:8080#ServerID_OuterContainerID&#45;&gt;10.1.80.1:2415#ServerID_OuterContainerID -->
<g id="edge25" class="edge"><title>10.1.80.247:8080#ServerID_OuterContainerID&#45;&gt;10.1.80.1:2415#ServerID_OuterContainerID</title>
<path fill="none" stroke="black" d="M2765.79,-407.896C2763.69,-397.795 2762.84,-385.059 2768,-375 2781.66,-348.381 2808.91,-328.706 2832.88,-315.649"/>
<polygon fill="black" stroke="black" points="2834.61,-318.691 2841.86,-310.968 2831.38,-312.483 2834.61,-318.691"/>
<text text-anchor="middle" x="2810" y="-378.8" font-family="Times,serif" font-size="14.00">RESPONSE</text>
</g>
<!-- 10.0.88.125:31112#ServerID_OuterContainerID -->
<g id="node20" class="node"><title>10.0.88.125:31112#ServerID_OuterContainerID</title>
<polygon fill="none" stroke="black" points="2214,-313 1878.52,-295 2214,-277 2549.48,-295 2214,-313"/>
<text text-anchor="middle" x="2214" y="-291.3" font-family="Times,serif" font-size="14.00">10.0.88.125:31112#ServerID_OuterContainerID</text>
</g>
<!-- 10.1.80.247:8080#ServerID_OuterContainerID&#45;&gt;10.0.88.125:31112#ServerID_OuterContainerID -->
<g id="edge26" class="edge"><title>10.1.80.247:8080#ServerID_OuterContainerID&#45;&gt;10.0.88.125:31112#ServerID_OuterContainerID</title>
<path fill="none" stroke="black" d="M2711.66,-411.256C2607.95,-387.239 2394.29,-337.755 2283.72,-312.146"/>
<polygon fill="black" stroke="black" points="2284.2,-308.666 2273.67,-309.819 2282.62,-315.485 2284.2,-308.666"/>
<text text-anchor="middle" x="2649" y="-378.8" font-family="Times,serif" font-size="14.00">RESPONSE</text>
</g>
<!-- 1_fwatchdog#ServerID_6df85d7674&#45;2kqrj&#45;&gt;10.1.80.247:8080#ServerID_OuterContainerID -->
<g id="edge2" class="edge"><title>1_fwatchdog#ServerID_6df85d7674&#45;2kqrj&#45;&gt;10.1.80.247:8080#ServerID_OuterContainerID</title>
<path fill="none" stroke="black" d="M2791.2,-538.928C2795.99,-533.716 2800.44,-527.601 2803,-521 2811.99,-497.831 2800.71,-470.946 2789.13,-451.878"/>
<polygon fill="black" stroke="black" points="2792.06,-449.954 2783.69,-443.453 2786.18,-453.752 2792.06,-449.954"/>
<text text-anchor="middle" x="2826" y="-509.8" font-family="Times,serif" font-size="14.00">POST</text>
</g>
<!-- gateway:8080#ServerID_OuterContainerID -->
<g id="node5" class="node"><title>gateway:8080#ServerID_OuterContainerID</title>
<polygon fill="none" stroke="black" points="1450,-444 1145.52,-426 1450,-408 1754.48,-426 1450,-444"/>
<text text-anchor="middle" x="1450" y="-422.3" font-family="Times,serif" font-size="14.00">gateway:8080#ServerID_OuterContainerID</text>
</g>
<!-- 1_fwatchdog#ServerID_6df85d7674&#45;2kqrj&#45;&gt;gateway:8080#ServerID_OuterContainerID -->
<g id="edge6" class="edge"><title>1_fwatchdog#ServerID_6df85d7674&#45;2kqrj&#45;&gt;gateway:8080#ServerID_OuterContainerID</title>
<path fill="none" stroke="black" d="M2610.09,-554.041C2381.45,-550.568 1974.1,-541.65 1828,-521 1711.13,-504.481 1577.91,-466.791 1504.96,-444.478"/>
<polygon fill="black" stroke="black" points="1505.66,-441.032 1495.08,-441.436 1503.61,-447.723 1505.66,-441.032"/>
<text text-anchor="middle" x="1848" y="-509.8" font-family="Times,serif" font-size="14.00">POST</text>
</g>
<!-- 10.1.80.247:50734#ServerID_OuterContainerID -->
<g id="node6" class="node"><title>10.1.80.247:50734#ServerID_OuterContainerID</title>
<polygon fill="none" stroke="black" points="3452,-444 3116.52,-426 3452,-408 3787.48,-426 3452,-444"/>
<text text-anchor="middle" x="3452" y="-422.3" font-family="Times,serif" font-size="14.00">10.1.80.247:50734#ServerID_OuterContainerID</text>
</g>
<!-- 1_fwatchdog#ServerID_6df85d7674&#45;2kqrj&#45;&gt;10.1.80.247:50734#ServerID_OuterContainerID -->
<g id="edge8" class="edge"><title>1_fwatchdog#ServerID_6df85d7674&#45;2kqrj&#45;&gt;10.1.80.247:50734#ServerID_OuterContainerID</title>
<path fill="none" stroke="black" d="M2843.52,-538.945C2892.08,-528.082 2957.58,-514.502 3016,-506 3056.18,-500.154 3066.83,-503.88 3107,-498 3204.17,-483.778 3315.2,-459.457 3384.46,-443.306"/>
<polygon fill="black" stroke="black" points="3385.43,-446.673 3394.37,-440.984 3383.84,-439.858 3385.43,-446.673"/>
<text text-anchor="middle" x="3058" y="-509.8" font-family="Times,serif" font-size="14.00">RESPONSE</text>
</g>
<!-- 1_fwatchdog#ServerID_5f846fd567&#45;w7nbt -->
<g id="node3" class="node"><title>1_fwatchdog#ServerID_5f846fd567&#45;w7nbt</title>
<polygon fill="none" stroke="black" points="4302,-575 3978,-575 3978,-539 4302,-539 4302,-575"/>
<text text-anchor="middle" x="4140" y="-553.3" font-family="Times,serif" font-size="14.00">1_fwatchdog#ServerID_5f846fd567&#45;w7nbt</text>
</g>
<!-- 10.1.80.247:52696#ServerID_OuterContainerID -->
<g id="node4" class="node"><title>10.1.80.247:52696#ServerID_OuterContainerID</title>
<polygon fill="none" stroke="black" points="4141,-444 3805.52,-426 4141,-408 4476.48,-426 4141,-444"/>
<text text-anchor="middle" x="4141" y="-422.3" font-family="Times,serif" font-size="14.00">10.1.80.247:52696#ServerID_OuterContainerID</text>
</g>
<!-- 1_fwatchdog#ServerID_5f846fd567&#45;w7nbt&#45;&gt;10.1.80.247:52696#ServerID_OuterContainerID -->
<g id="edge3" class="edge"><title>1_fwatchdog#ServerID_5f846fd567&#45;w7nbt&#45;&gt;10.1.80.247:52696#ServerID_OuterContainerID</title>
<path fill="none" stroke="black" d="M4104.26,-538.861C4097.73,-534.032 4091.78,-528.108 4088,-521 4084.87,-515.115 4086.06,-512.378 4088,-506 4094.15,-485.792 4107.38,-466.057 4119.09,-451.367"/>
<polygon fill="black" stroke="black" points="4122.06,-453.27 4125.74,-443.335 4116.67,-448.806 4122.06,-453.27"/>
<text text-anchor="middle" x="4130" y="-509.8" font-family="Times,serif" font-size="14.00">RESPONSE</text>
</g>
<!-- 10.1.80.247:52696#ServerID_OuterContainerID&#45;&gt;1_fwatchdog#ServerID_5f846fd567&#45;w7nbt -->
<g id="edge5" class="edge"><title>10.1.80.247:52696#ServerID_OuterContainerID&#45;&gt;1_fwatchdog#ServerID_5f846fd567&#45;w7nbt</title>
<path fill="none" stroke="black" d="M4153.4,-443.484C4166.03,-462.397 4182.39,-494.248 4172,-521 4170.64,-524.507 4168.74,-527.876 4166.55,-531.046"/>
<polygon fill="black" stroke="black" points="4163.75,-528.944 4160.2,-538.928 4169.2,-533.335 4163.75,-528.944"/>
<text text-anchor="middle" x="4196" y="-509.8" font-family="Times,serif" font-size="14.00">POST</text>
</g>
<!-- 1_fwatchdog#ServerID_e56b6537e2d5 -->
<g id="node14" class="node"><title>1_fwatchdog#ServerID_e56b6537e2d5</title>
<polygon fill="none" stroke="black" points="5049.5,-313 4750.5,-313 4750.5,-277 5049.5,-277 5049.5,-313"/>
<text text-anchor="middle" x="4900" y="-291.3" font-family="Times,serif" font-size="14.00">1_fwatchdog#ServerID_e56b6537e2d5</text>
</g>
<!-- 10.1.80.247:52696#ServerID_OuterContainerID&#45;&gt;1_fwatchdog#ServerID_e56b6537e2d5 -->
<g id="edge17" class="edge"><title>10.1.80.247:52696#ServerID_OuterContainerID&#45;&gt;1_fwatchdog#ServerID_e56b6537e2d5</title>
<path fill="none" stroke="black" d="M4218.54,-412.154C4288.88,-400.474 4395.42,-382.715 4488,-367 4591.15,-349.492 4708.75,-329.191 4791.84,-314.793"/>
<polygon fill="black" stroke="black" points="4792.54,-318.223 4801.79,-313.067 4791.34,-311.326 4792.54,-318.223"/>
<text text-anchor="middle" x="4448.5" y="-378.8" font-family="Times,serif" font-size="14.00">read</text>
</g>
<!-- gateway:8080#ServerID_OuterContainerID&#45;&gt;1_fwatchdog#ServerID_6df85d7674&#45;2kqrj -->
<g id="edge4" class="edge"><title>gateway:8080#ServerID_OuterContainerID&#45;&gt;1_fwatchdog#ServerID_6df85d7674&#45;2kqrj</title>
<path fill="none" stroke="black" d="M1499.93,-441.067C1561.31,-457.72 1668.91,-484.846 1763,-498 1827.36,-506.998 1844.12,-502.341 1909,-506 2148.86,-519.528 2426.23,-535.714 2600.14,-545.928"/>
<polygon fill="black" stroke="black" points="2599.96,-549.423 2610.15,-546.516 2600.38,-542.435 2599.96,-549.423"/>
<text text-anchor="middle" x="2212" y="-509.8" font-family="Times,serif" font-size="14.00">RESPONSE</text>
</g>
<!-- 10_node#ServerID_34e86192c217 -->
<g id="node9" class="node"><title>10_node#ServerID_34e86192c217</title>
<polygon fill="none" stroke="black" points="1121.5,-313 854.5,-313 854.5,-277 1121.5,-277 1121.5,-313"/>
<text text-anchor="middle" x="988" y="-291.3" font-family="Times,serif" font-size="14.00">10_node#ServerID_34e86192c217</text>
</g>
<!-- gateway:8080#ServerID_OuterContainerID&#45;&gt;10_node#ServerID_34e86192c217 -->
<g id="edge23" class="edge"><title>gateway:8080#ServerID_OuterContainerID&#45;&gt;10_node#ServerID_34e86192c217</title>
<path fill="none" stroke="black" d="M1408.03,-410.345C1372.53,-398.631 1320.08,-382.907 1273,-375 1211.97,-364.751 1193.88,-382.613 1134,-367 1094.13,-356.605 1052.19,-334.931 1023.54,-318.249"/>
<polygon fill="black" stroke="black" points="1025.11,-315.113 1014.73,-313.028 1021.55,-321.136 1025.11,-315.113"/>
<text text-anchor="middle" x="1354.5" y="-378.8" font-family="Times,serif" font-size="14.00">read</text>
</g>
<!-- 10.1.80.247:50734#ServerID_OuterContainerID&#45;&gt;1_fwatchdog#ServerID_6df85d7674&#45;2kqrj -->
<g id="edge7" class="edge"><title>10.1.80.247:50734#ServerID_OuterContainerID&#45;&gt;1_fwatchdog#ServerID_6df85d7674&#45;2kqrj</title>
<path fill="none" stroke="black" d="M3406.93,-441.651C3341.09,-462.484 3214.43,-500.417 3104,-521 3051.66,-530.756 2994.14,-538.012 2941.85,-543.307"/>
<polygon fill="black" stroke="black" points="2941.41,-539.833 2931.81,-544.306 2942.11,-546.799 2941.41,-539.833"/>
<text text-anchor="middle" x="3192" y="-509.8" font-family="Times,serif" font-size="14.00">POST</text>
</g>
<!-- 1_fwatchdog#ServerID_34e86192c217 -->
<g id="node7" class="node"><title>1_fwatchdog#ServerID_34e86192c217</title>
<polygon fill="none" stroke="black" points="315.5,-444 16.5,-444 16.5,-408 315.5,-408 315.5,-444"/>
<text text-anchor="middle" x="166" y="-422.3" font-family="Times,serif" font-size="14.00">1_fwatchdog#ServerID_34e86192c217</text>
</g>
<!-- 10.1.80.247:50734#ServerID_OuterContainerID&#45;&gt;1_fwatchdog#ServerID_34e86192c217 -->
<g id="edge10" class="edge"><title>10.1.80.247:50734#ServerID_OuterContainerID&#45;&gt;1_fwatchdog#ServerID_34e86192c217</title>
<path fill="none" stroke="black" d="M3397.28,-441.066C3329.7,-458.823 3210.92,-487.271 3107,-498 2953.26,-513.871 476.076,-530.612 325,-498 281.596,-488.631 235.786,-466.397 204.545,-449.096"/>
<polygon fill="black" stroke="black" points="206.166,-445.992 195.735,-444.134 202.73,-452.091 206.166,-445.992"/>
<text text-anchor="middle" x="1889" y="-509.8" font-family="Times,serif" font-size="14.00">read</text>
</g>
<!-- localhost:3000#ServerID_34e86192c217 -->
<g id="node8" class="node"><title>localhost:3000#ServerID_34e86192c217</title>
<polygon fill="none" stroke="black" points="303,-313 16.4457,-295 303,-277 589.554,-295 303,-313"/>
<text text-anchor="middle" x="303" y="-291.3" font-family="Times,serif" font-size="14.00">localhost:3000#ServerID_34e86192c217</text>
</g>
<!-- 1_fwatchdog#ServerID_34e86192c217&#45;&gt;localhost:3000#ServerID_34e86192c217 -->
<g id="edge9" class="edge"><title>1_fwatchdog#ServerID_34e86192c217&#45;&gt;localhost:3000#ServerID_34e86192c217</title>
<path fill="none" stroke="black" d="M184.193,-407.87C208.439,-385.039 251.427,-344.562 278.505,-319.064"/>
<polygon fill="black" stroke="black" points="281.145,-321.386 286.026,-311.983 276.346,-316.29 281.145,-321.386"/>
<text text-anchor="middle" x="238" y="-378.8" font-family="Times,serif" font-size="14.00">write</text>
</g>
<!-- 10_node#ServerID_34e86192c217&#45;&gt;gateway:8080#ServerID_OuterContainerID -->
<g id="edge16" class="edge"><title>10_node#ServerID_34e86192c217&#45;&gt;gateway:8080#ServerID_OuterContainerID</title>
<path fill="none" stroke="black" d="M1017.2,-313.144C1045.99,-329.324 1091.69,-353.115 1134,-367 1201.02,-388.993 1278.94,-403.41 1340.63,-412.37"/>
<polygon fill="black" stroke="black" points="1340.38,-415.871 1350.78,-413.816 1341.37,-408.941 1340.38,-415.871"/>
<text text-anchor="middle" x="1240" y="-378.8" font-family="Times,serif" font-size="14.00">connect</text>
</g>
<!-- pipe:[331683264]#ServerID_34e86192c217 -->
<g id="node10" class="node"><title>pipe:[331683264]#ServerID_34e86192c217</title>
<ellipse fill="none" stroke="black" cx="905" cy="-208" rx="217.162" ry="18"/>
<text text-anchor="middle" x="905" y="-204.3" font-family="Times,serif" font-size="14.00">pipe:[331683264]#ServerID_34e86192c217</text>
</g>
<!-- 10_node#ServerID_34e86192c217&#45;&gt;pipe:[331683264]#ServerID_34e86192c217 -->
<g id="edge11" class="edge"><title>10_node#ServerID_34e86192c217&#45;&gt;pipe:[331683264]#ServerID_34e86192c217</title>
<path fill="none" stroke="black" d="M971.204,-276.799C959.054,-264.356 942.462,-247.364 928.928,-233.504"/>
<polygon fill="black" stroke="black" points="931.262,-230.885 921.771,-226.175 926.254,-235.775 931.262,-230.885"/>
<text text-anchor="middle" x="971" y="-247.8" font-family="Times,serif" font-size="14.00">write</text>
</g>
<!-- 10.152.183.10:53#ServerID_OuterContainerID -->
<g id="node12" class="node"><title>10.152.183.10:53#ServerID_OuterContainerID</title>
<polygon fill="none" stroke="black" points="2099,-444 1771.56,-426 2099,-408 2426.44,-426 2099,-444"/>
<text text-anchor="middle" x="2099" y="-422.3" font-family="Times,serif" font-size="14.00">10.152.183.10:53#ServerID_OuterContainerID</text>
</g>
<!-- 10_node#ServerID_34e86192c217&#45;&gt;10.152.183.10:53#ServerID_OuterContainerID -->
<g id="edge13" class="edge"><title>10_node#ServerID_34e86192c217&#45;&gt;10.152.183.10:53#ServerID_OuterContainerID</title>
<path fill="none" stroke="black" d="M1014.1,-313.117C1042.33,-330.536 1089.29,-356.43 1134,-367 1171.04,-375.756 1781.11,-371.42 1819,-375 1891.12,-381.813 1972.52,-397.235 2028.89,-409.164"/>
<polygon fill="black" stroke="black" points="2028.26,-412.607 2038.77,-411.272 2029.72,-405.761 2028.26,-412.607"/>
<text text-anchor="middle" x="1952.5" y="-378.8" font-family="Times,serif" font-size="14.00">sendto</text>
</g>
<!-- /etc/hosts#ServerID_34e86192c217 -->
<g id="node11" class="node"><title>/etc/hosts#ServerID_34e86192c217</title>
<ellipse fill="none" stroke="black" cx="514" cy="-426" rx="180.068" ry="18"/>
<text text-anchor="middle" x="514" y="-422.3" font-family="Times,serif" font-size="14.00">/etc/hosts#ServerID_34e86192c217</text>
</g>
<!-- /etc/hosts#ServerID_34e86192c217&#45;&gt;10_node#ServerID_34e86192c217 -->
<g id="edge12" class="edge"><title>/etc/hosts#ServerID_34e86192c217&#45;&gt;10_node#ServerID_34e86192c217</title>
<path fill="none" stroke="black" d="M573.074,-408.923C659.842,-385.309 821.59,-341.289 915.456,-315.743"/>
<polygon fill="black" stroke="black" points="916.43,-319.105 925.16,-313.102 914.592,-312.351 916.43,-319.105"/>
<text text-anchor="middle" x="711.5" y="-378.8" font-family="Times,serif" font-size="14.00">read</text>
</g>
<!-- 10.152.183.10:53#ServerID_OuterContainerID&#45;&gt;10_node#ServerID_34e86192c217 -->
<g id="edge15" class="edge"><title>10.152.183.10:53#ServerID_OuterContainerID&#45;&gt;10_node#ServerID_34e86192c217</title>
<path fill="none" stroke="black" d="M1972.87,-414.916C1828.48,-403.692 1584.82,-385.724 1375,-375 1321.48,-372.265 1186.01,-379.888 1134,-367 1093.88,-357.059 1051.82,-335.213 1023.21,-318.361"/>
<polygon fill="black" stroke="black" points="1024.79,-315.226 1014.41,-313.086 1021.19,-321.23 1024.79,-315.226"/>
<text text-anchor="middle" x="1648" y="-378.8" font-family="Times,serif" font-size="14.00">recvfrom</text>
</g>
<!-- /etc/resolv.conf#ServerID_34e86192c217 -->
<g id="node13" class="node"><title>/etc/resolv.conf#ServerID_34e86192c217</title>
<ellipse fill="none" stroke="black" cx="917" cy="-426" rx="205.264" ry="18"/>
<text text-anchor="middle" x="917" y="-422.3" font-family="Times,serif" font-size="14.00">/etc/resolv.conf#ServerID_34e86192c217</text>
</g>
<!-- /etc/resolv.conf#ServerID_34e86192c217&#45;&gt;10_node#ServerID_34e86192c217 -->
<g id="edge14" class="edge"><title>/etc/resolv.conf#ServerID_34e86192c217&#45;&gt;10_node#ServerID_34e86192c217</title>
<path fill="none" stroke="black" d="M926.428,-407.87C938.523,-385.895 959.615,-347.573 973.693,-321.994"/>
<polygon fill="black" stroke="black" points="976.777,-323.649 978.533,-313.201 970.645,-320.274 976.777,-323.649"/>
<text text-anchor="middle" x="961.5" y="-378.8" font-family="Times,serif" font-size="14.00">read</text>
</g>
<!-- localhost:3000#ServerID_e56b6537e2d5 -->
<g id="node15" class="node"><title>localhost:3000#ServerID_e56b6537e2d5</title>
<polygon fill="none" stroke="black" points="5239,-226 4952.45,-208 5239,-190 5525.55,-208 5239,-226"/>
<text text-anchor="middle" x="5239" y="-204.3" font-family="Times,serif" font-size="14.00">localhost:3000#ServerID_e56b6537e2d5</text>
</g>
<!-- 1_fwatchdog#ServerID_e56b6537e2d5&#45;&gt;localhost:3000#ServerID_e56b6537e2d5 -->
<g id="edge18" class="edge"><title>1_fwatchdog#ServerID_e56b6537e2d5&#45;&gt;localhost:3000#ServerID_e56b6537e2d5</title>
<path fill="none" stroke="black" d="M4988.36,-276.958C5014.13,-271.619 5042.28,-265.43 5068,-259 5107.19,-249.204 5150.9,-236.389 5184.32,-226.185"/>
<polygon fill="black" stroke="black" points="5185.37,-229.525 5193.9,-223.246 5183.32,-222.833 5185.37,-229.525"/>
<text text-anchor="middle" x="5139" y="-247.8" font-family="Times,serif" font-size="14.00">write</text>
</g>
<!-- pipe:[331682317]#ServerID_e56b6537e2d5 -->
<g id="node18" class="node"><title>pipe:[331682317]#ServerID_e56b6537e2d5</title>
<ellipse fill="none" stroke="black" cx="4717" cy="-208" rx="217.162" ry="18"/>
<text text-anchor="middle" x="4717" y="-204.3" font-family="Times,serif" font-size="14.00">pipe:[331682317]#ServerID_e56b6537e2d5</text>
</g>
<!-- 1_fwatchdog#ServerID_e56b6537e2d5&#45;&gt;pipe:[331682317]#ServerID_e56b6537e2d5 -->
<g id="edge22" class="edge"><title>1_fwatchdog#ServerID_e56b6537e2d5&#45;&gt;pipe:[331682317]#ServerID_e56b6537e2d5</title>
<path fill="none" stroke="black" d="M4862.97,-276.799C4834,-263.346 4793.6,-244.577 4762.64,-230.197"/>
<polygon fill="black" stroke="black" points="4763.9,-226.924 4753.35,-225.885 4760.95,-233.272 4763.9,-226.924"/>
<text text-anchor="middle" x="4838" y="-247.8" font-family="Times,serif" font-size="14.00">write</text>
</g>
<!-- localhost:3000#ServerID_e56b6537e2d5&#45;&gt;1_fwatchdog#ServerID_e56b6537e2d5 -->
<g id="edge21" class="edge"><title>localhost:3000#ServerID_e56b6537e2d5&#45;&gt;1_fwatchdog#ServerID_e56b6537e2d5</title>
<path fill="none" stroke="black" d="M5148.06,-220.313C5111.35,-225.911 5068.81,-233.713 5031,-244 5002.9,-251.645 4972.46,-263.063 4948,-273.058"/>
<polygon fill="black" stroke="black" points="4946.5,-269.893 4938.59,-276.951 4949.17,-276.36 4946.5,-269.893"/>
<text text-anchor="middle" x="5047.5" y="-247.8" font-family="Times,serif" font-size="14.00">read</text>
</g>
<!-- 12_node#ServerID_e56b6537e2d5 -->
<g id="node16" class="node"><title>12_node#ServerID_e56b6537e2d5</title>
<polygon fill="none" stroke="black" points="5372.5,-139 5105.5,-139 5105.5,-103 5372.5,-103 5372.5,-139"/>
<text text-anchor="middle" x="5239" y="-117.3" font-family="Times,serif" font-size="14.00">12_node#ServerID_e56b6537e2d5</text>
</g>
<!-- localhost:3000#ServerID_e56b6537e2d5&#45;&gt;12_node#ServerID_e56b6537e2d5 -->
<g id="edge20" class="edge"><title>localhost:3000#ServerID_e56b6537e2d5&#45;&gt;12_node#ServerID_e56b6537e2d5</title>
<path fill="none" stroke="black" d="M5239,-189.799C5239,-178.163 5239,-162.548 5239,-149.237"/>
<polygon fill="black" stroke="black" points="5242.5,-149.175 5239,-139.175 5235.5,-149.175 5242.5,-149.175"/>
<text text-anchor="middle" x="5255.5" y="-160.8" font-family="Times,serif" font-size="14.00">read</text>
</g>
<!-- pipe:[331682415]#ServerID_e56b6537e2d5 -->
<g id="node17" class="node"><title>pipe:[331682415]#ServerID_e56b6537e2d5</title>
<ellipse fill="none" stroke="black" cx="5239" cy="-34" rx="217.162" ry="18"/>
<text text-anchor="middle" x="5239" y="-30.3" font-family="Times,serif" font-size="14.00">pipe:[331682415]#ServerID_e56b6537e2d5</text>
</g>
<!-- 12_node#ServerID_e56b6537e2d5&#45;&gt;pipe:[331682415]#ServerID_e56b6537e2d5 -->
<g id="edge19" class="edge"><title>12_node#ServerID_e56b6537e2d5&#45;&gt;pipe:[331682415]#ServerID_e56b6537e2d5</title>
<path fill="none" stroke="black" d="M5239,-102.799C5239,-91.1626 5239,-75.5479 5239,-62.2368"/>
<polygon fill="black" stroke="black" points="5242.5,-62.1754 5239,-52.1754 5235.5,-62.1755 5242.5,-62.1754"/>
<text text-anchor="middle" x="5258" y="-73.8" font-family="Times,serif" font-size="14.00">write</text>
</g>
<!-- 10.1.80.1:2415#ServerID_OuterContainerID&#45;&gt;10.1.80.247:8080#ServerID_OuterContainerID -->
<g id="edge24" class="edge"><title>10.1.80.1:2415#ServerID_OuterContainerID&#45;&gt;10.1.80.247:8080#ServerID_OuterContainerID</title>
<path fill="none" stroke="black" d="M2878.48,-312.988C2878.15,-333.564 2874.57,-368.173 2856,-390 2850.42,-396.552 2843.43,-401.896 2835.86,-406.251"/>
<polygon fill="black" stroke="black" points="2834.05,-403.243 2826.76,-410.922 2837.25,-409.47 2834.05,-403.243"/>
<text text-anchor="middle" x="2885" y="-378.8" font-family="Times,serif" font-size="14.00">POST</text>
</g>
</g>
</svg>
