<?xml version="1.0" encoding="UTF-8" standalone="no"?>
<!DOCTYPE svg PUBLIC "-//W3C//DTD SVG 1.1//EN"
 "http://www.w3.org/Graphics/SVG/1.1/DTD/svg11.dtd">
<!-- Generated by graphviz version 2.38.0 (20140413.2041)
 -->
<!-- Title: G Pages: 1 -->
<svg width="6170pt" height="771pt"
 viewBox="0.00 0.00 6170.00 771.00" xmlns="http://www.w3.org/2000/svg" xmlns:xlink="http://www.w3.org/1999/xlink">
<g id="graph0" class="graph" transform="scale(1 1) rotate(0) translate(4 767)">
<title>G</title>
<polygon fill="white" stroke="none" points="-4,4 -4,-767 6166,-767 6166,4 -4,4"/>
<g id="clust1" class="cluster"><title>clusterServerID_34e86192c217</title>
<polygon fill="none" stroke="black" points="8,-377 8,-755 1404,-755 1404,-377 8,-377"/>
<text text-anchor="middle" x="706" y="-739.8" font-family="Times,serif" font-size="14.00">clusterServerID_34e86192c217</text>
</g>
<g id="clust2" class="cluster"><title>clusterServerID_5f846fd567&#45;w7nbt</title>
<polygon fill="none" stroke="black" points="3555,-485 3555,-560 3895,-560 3895,-485 3555,-485"/>
<text text-anchor="middle" x="3725" y="-544.8" font-family="Times,serif" font-size="14.00">clusterServerID_5f846fd567&#45;w7nbt</text>
</g>
<g id="clust3" class="cluster"><title>clusterServerID_6df85d7674&#45;2kqrj</title>
<polygon fill="none" stroke="black" points="5816,-269 5816,-344 6154,-344 6154,-269 5816,-269"/>
<text text-anchor="middle" x="5985" y="-328.8" font-family="Times,serif" font-size="14.00">clusterServerID_6df85d7674&#45;2kqrj</text>
</g>
<g id="clust4" class="cluster"><title>clusterServerID_OuterContainerID</title>
<polygon fill="none" stroke="black" points="1412,-269 1412,-452 4758,-452 4758,-269 1412,-269"/>
<text text-anchor="middle" x="3085" y="-436.8" font-family="Times,serif" font-size="14.00">clusterServerID_OuterContainerID</text>
</g>
<g id="clust5" class="cluster"><title>clusterServerID_e56b6537e2d5</title>
<polygon fill="none" stroke="black" points="4766,-8 4766,-344 5808,-344 5808,-8 4766,-8"/>
<text text-anchor="middle" x="5287" y="-328.8" font-family="Times,serif" font-size="14.00">clusterServerID_e56b6537e2d5</text>
</g>
<!-- 1_fwatchdog#ServerID_5f846fd567&#45;w7nbt -->
<g id="node1" class="node"><title>1_fwatchdog#ServerID_5f846fd567&#45;w7nbt</title>
<polygon fill="none" stroke="black" points="3887,-529 3563,-529 3563,-493 3887,-493 3887,-529"/>
<text text-anchor="middle" x="3725" y="-507.3" font-family="Times,serif" font-size="14.00">1_fwatchdog#ServerID_5f846fd567&#45;w7nbt</text>
</g>
<!-- 10.1.80.247:52696#ServerID_OuterContainerID -->
<g id="node2" class="node"><title>10.1.80.247:52696#ServerID_OuterContainerID</title>
<polygon fill="none" stroke="black" points="3726,-421 3390.52,-403 3726,-385 4061.48,-403 3726,-421"/>
<text text-anchor="middle" x="3726" y="-399.3" font-family="Times,serif" font-size="14.00">10.1.80.247:52696#ServerID_OuterContainerID</text>
</g>
<!-- 1_fwatchdog#ServerID_5f846fd567&#45;w7nbt&#45;&gt;10.1.80.247:52696#ServerID_OuterContainerID -->
<g id="edge1" class="edge"><title>1_fwatchdog#ServerID_5f846fd567&#45;w7nbt&#45;&gt;10.1.80.247:52696#ServerID_OuterContainerID</title>
<path fill="none" stroke="black" d="M3730.96,-492.759C3732.61,-487.165 3734.18,-480.883 3735,-475 3737.04,-460.436 3735.27,-444.162 3732.78,-430.873"/>
<polygon fill="black" stroke="black" points="3736.17,-430.006 3730.68,-420.944 3729.32,-431.452 3736.17,-430.006"/>
<text text-anchor="middle" x="3778" y="-463.8" font-family="Times,serif" font-size="14.00">RESPONSE</text>
</g>
<!-- 10.1.80.247:52696#ServerID_OuterContainerID&#45;&gt;1_fwatchdog#ServerID_5f846fd567&#45;w7nbt -->
<g id="edge5" class="edge"><title>10.1.80.247:52696#ServerID_OuterContainerID&#45;&gt;1_fwatchdog#ServerID_5f846fd567&#45;w7nbt</title>
<path fill="none" stroke="black" d="M3712.26,-420.449C3704.35,-431.019 3695.17,-445.453 3691,-460 3689.16,-466.408 3688.49,-468.822 3691,-475 3692.42,-478.503 3694.38,-481.848 3696.65,-484.984"/>
<polygon fill="black" stroke="black" points="3694.08,-487.372 3703.2,-492.762 3699.43,-482.86 3694.08,-487.372"/>
<text text-anchor="middle" x="3711" y="-463.8" font-family="Times,serif" font-size="14.00">POST</text>
</g>
<!-- 1_fwatchdog#ServerID_e56b6537e2d5 -->
<g id="node14" class="node"><title>1_fwatchdog#ServerID_e56b6537e2d5</title>
<polygon fill="none" stroke="black" points="5210.5,-313 4911.5,-313 4911.5,-277 5210.5,-277 5210.5,-313"/>
<text text-anchor="middle" x="5061" y="-291.3" font-family="Times,serif" font-size="14.00">1_fwatchdog#ServerID_e56b6537e2d5</text>
</g>
<!-- 10.1.80.247:52696#ServerID_OuterContainerID&#45;&gt;1_fwatchdog#ServerID_e56b6537e2d5 -->
<g id="edge16" class="edge"><title>10.1.80.247:52696#ServerID_OuterContainerID&#45;&gt;1_fwatchdog#ServerID_e56b6537e2d5</title>
<path fill="none" stroke="black" d="M3854.97,-391.898C3919.77,-387.015 3999.52,-381.296 4071,-377 4377.91,-358.555 4456.18,-375.75 4762,-344 4828.98,-337.046 4903.79,-325.034 4961.82,-314.766"/>
<polygon fill="black" stroke="black" points="4962.49,-318.203 4971.72,-313.003 4961.26,-311.311 4962.49,-318.203"/>
<text text-anchor="middle" x="4693.5" y="-355.8" font-family="Times,serif" font-size="14.00">read</text>
</g>
<!-- 1_fwatchdog#ServerID_6df85d7674&#45;2kqrj -->
<g id="node3" class="node"><title>1_fwatchdog#ServerID_6df85d7674&#45;2kqrj</title>
<polygon fill="none" stroke="black" points="6145.5,-313 5824.5,-313 5824.5,-277 6145.5,-277 6145.5,-313"/>
<text text-anchor="middle" x="5985" y="-291.3" font-family="Times,serif" font-size="14.00">1_fwatchdog#ServerID_6df85d7674&#45;2kqrj</text>
</g>
<!-- 10.1.80.247:8080#ServerID_OuterContainerID -->
<g id="node4" class="node"><title>10.1.80.247:8080#ServerID_OuterContainerID</title>
<polygon fill="none" stroke="black" points="1747,-421 1419.56,-403 1747,-385 2074.44,-403 1747,-421"/>
<text text-anchor="middle" x="1747" y="-399.3" font-family="Times,serif" font-size="14.00">10.1.80.247:8080#ServerID_OuterContainerID</text>
</g>
<!-- 1_fwatchdog#ServerID_6df85d7674&#45;2kqrj&#45;&gt;10.1.80.247:8080#ServerID_OuterContainerID -->
<g id="edge2" class="edge"><title>1_fwatchdog#ServerID_6df85d7674&#45;2kqrj&#45;&gt;10.1.80.247:8080#ServerID_OuterContainerID</title>
<path fill="none" stroke="black" d="M5936.89,-313.087C5902.57,-324.346 5855.07,-338.065 5812,-344 5742.68,-353.55 3362.96,-350.705 3293,-352 3096.03,-355.647 3046.95,-362.382 2850,-367 2509.18,-374.991 2423.59,-362.123 2083,-377 2014.36,-379.998 1937.97,-385.508 1875.39,-390.594"/>
<polygon fill="black" stroke="black" points="1874.76,-387.134 1865.07,-391.439 1875.33,-394.111 1874.76,-387.134"/>
<text text-anchor="middle" x="3313" y="-355.8" font-family="Times,serif" font-size="14.00">POST</text>
</g>
<!-- 10.1.80.247:50734#ServerID_OuterContainerID -->
<g id="node5" class="node"><title>10.1.80.247:50734#ServerID_OuterContainerID</title>
<polygon fill="none" stroke="black" points="4415,-421 4079.52,-403 4415,-385 4750.48,-403 4415,-421"/>
<text text-anchor="middle" x="4415" y="-399.3" font-family="Times,serif" font-size="14.00">10.1.80.247:50734#ServerID_OuterContainerID</text>
</g>
<!-- 1_fwatchdog#ServerID_6df85d7674&#45;2kqrj&#45;&gt;10.1.80.247:50734#ServerID_OuterContainerID -->
<g id="edge7" class="edge"><title>1_fwatchdog#ServerID_6df85d7674&#45;2kqrj&#45;&gt;10.1.80.247:50734#ServerID_OuterContainerID</title>
<path fill="none" stroke="black" d="M5932.54,-313.05C5898.52,-323.485 5853.05,-336.275 5812,-344 5712.78,-362.675 5686.75,-360.376 5586,-367 5281.38,-387.027 4931.43,-395.602 4694.01,-399.269"/>
<polygon fill="black" stroke="black" points="4693.8,-395.771 4683.85,-399.424 4693.9,-402.77 4693.8,-395.771"/>
<text text-anchor="middle" x="5806" y="-355.8" font-family="Times,serif" font-size="14.00">RESPONSE</text>
</g>
<!-- gateway:8080#ServerID_OuterContainerID -->
<g id="node6" class="node"><title>gateway:8080#ServerID_OuterContainerID</title>
<polygon fill="none" stroke="black" points="3068,-421 2763.52,-403 3068,-385 3372.48,-403 3068,-421"/>
<text text-anchor="middle" x="3068" y="-399.3" font-family="Times,serif" font-size="14.00">gateway:8080#ServerID_OuterContainerID</text>
</g>
<!-- 1_fwatchdog#ServerID_6df85d7674&#45;2kqrj&#45;&gt;gateway:8080#ServerID_OuterContainerID -->
<g id="edge4" class="edge"><title>1_fwatchdog#ServerID_6df85d7674&#45;2kqrj&#45;&gt;gateway:8080#ServerID_OuterContainerID</title>
<path fill="none" stroke="black" d="M5936.88,-313.059C5902.57,-324.305 5855.07,-338.021 5812,-344 5728.3,-355.62 4375.49,-350.616 4291,-352 3886.9,-358.619 3785.58,-355.399 3382,-377 3318.89,-380.378 3248.78,-385.8 3190.84,-390.733"/>
<polygon fill="black" stroke="black" points="3190.2,-387.275 3180.54,-391.616 3190.8,-394.249 3190.2,-387.275"/>
<text text-anchor="middle" x="4311" y="-355.8" font-family="Times,serif" font-size="14.00">POST</text>
</g>
<!-- 10.1.80.247:8080#ServerID_OuterContainerID&#45;&gt;1_fwatchdog#ServerID_6df85d7674&#45;2kqrj -->
<g id="edge8" class="edge"><title>10.1.80.247:8080#ServerID_OuterContainerID&#45;&gt;1_fwatchdog#ServerID_6df85d7674&#45;2kqrj</title>
<path fill="none" stroke="black" d="M1870.2,-391.722C1933.73,-386.705 2012.48,-380.921 2083,-377 2384.52,-360.238 2460.08,-357.952 2762,-352 2846.71,-350.33 5728.07,-355.54 5812,-344 5851.21,-338.609 5894.08,-326.759 5927.33,-316.182"/>
<polygon fill="black" stroke="black" points="5928.45,-319.5 5936.89,-313.095 5926.3,-312.839 5928.45,-319.5"/>
<text text-anchor="middle" x="2804" y="-355.8" font-family="Times,serif" font-size="14.00">RESPONSE</text>
</g>
<!-- 10.1.80.1:41394#ServerID_OuterContainerID -->
<g id="node19" class="node"><title>10.1.80.1:41394#ServerID_OuterContainerID</title>
<polygon fill="none" stroke="black" points="1739,-313 1420.1,-295 1739,-277 2057.9,-295 1739,-313"/>
<text text-anchor="middle" x="1739" y="-291.3" font-family="Times,serif" font-size="14.00">10.1.80.1:41394#ServerID_OuterContainerID</text>
</g>
<!-- 10.1.80.247:8080#ServerID_OuterContainerID&#45;&gt;10.1.80.1:41394#ServerID_OuterContainerID -->
<g id="edge24" class="edge"><title>10.1.80.247:8080#ServerID_OuterContainerID&#45;&gt;10.1.80.1:41394#ServerID_OuterContainerID</title>
<path fill="none" stroke="black" d="M1710.24,-386.99C1702.17,-381.888 1694.65,-375.31 1690,-367 1680.54,-350.082 1693.17,-332.121 1707.97,-318.497"/>
<polygon fill="black" stroke="black" points="1710.48,-320.956 1715.81,-311.796 1705.93,-315.636 1710.48,-320.956"/>
<text text-anchor="middle" x="1732" y="-355.8" font-family="Times,serif" font-size="14.00">RESPONSE</text>
</g>
<!-- 10.0.88.125:31112#ServerID_OuterContainerID -->
<g id="node20" class="node"><title>10.0.88.125:31112#ServerID_OuterContainerID</title>
<polygon fill="none" stroke="black" points="2411,-313 2075.52,-295 2411,-277 2746.48,-295 2411,-313"/>
<text text-anchor="middle" x="2411" y="-291.3" font-family="Times,serif" font-size="14.00">10.0.88.125:31112#ServerID_OuterContainerID</text>
</g>
<!-- 10.1.80.247:8080#ServerID_OuterContainerID&#45;&gt;10.0.88.125:31112#ServerID_OuterContainerID -->
<g id="edge26" class="edge"><title>10.1.80.247:8080#ServerID_OuterContainerID&#45;&gt;10.0.88.125:31112#ServerID_OuterContainerID</title>
<path fill="none" stroke="black" d="M1826.43,-389.319C1950.82,-369.463 2190.79,-331.154 2321.25,-310.328"/>
<polygon fill="black" stroke="black" points="2321.89,-313.769 2331.22,-308.737 2320.79,-306.857 2321.89,-313.769"/>
<text text-anchor="middle" x="2102" y="-355.8" font-family="Times,serif" font-size="14.00">RESPONSE</text>
</g>
<!-- 10.1.80.247:50734#ServerID_OuterContainerID&#45;&gt;1_fwatchdog#ServerID_6df85d7674&#45;2kqrj -->
<g id="edge3" class="edge"><title>10.1.80.247:50734#ServerID_OuterContainerID&#45;&gt;1_fwatchdog#ServerID_6df85d7674&#45;2kqrj</title>
<path fill="none" stroke="black" d="M4581.22,-393.917C4801.7,-383.363 5203.02,-364.738 5546,-352 5605.1,-349.805 5753.53,-352.858 5812,-344 5850.54,-338.161 5892.71,-326.571 5925.77,-316.243"/>
<polygon fill="black" stroke="black" points="5927.25,-319.446 5935.72,-313.086 5925.13,-312.774 5927.25,-319.446"/>
<text text-anchor="middle" x="5566" y="-355.8" font-family="Times,serif" font-size="14.00">POST</text>
</g>
<!-- 1_fwatchdog#ServerID_34e86192c217 -->
<g id="node7" class="node"><title>1_fwatchdog#ServerID_34e86192c217</title>
<polygon fill="none" stroke="black" points="924.5,-724 625.5,-724 625.5,-688 924.5,-688 924.5,-724"/>
<text text-anchor="middle" x="775" y="-702.3" font-family="Times,serif" font-size="14.00">1_fwatchdog#ServerID_34e86192c217</text>
</g>
<!-- 10.1.80.247:50734#ServerID_OuterContainerID&#45;&gt;1_fwatchdog#ServerID_34e86192c217 -->
<g id="edge10" class="edge"><title>10.1.80.247:50734#ServerID_OuterContainerID&#45;&gt;1_fwatchdog#ServerID_34e86192c217</title>
<path fill="none" stroke="black" d="M4376.95,-419.072C4292.54,-451.705 4082.56,-528.494 3899,-560 3320.11,-659.362 1488.3,-694.343 934.881,-702.794"/>
<polygon fill="black" stroke="black" points="934.777,-699.295 924.831,-702.947 934.883,-706.294 934.777,-699.295"/>
<text text-anchor="middle" x="3847.5" y="-571.8" font-family="Times,serif" font-size="14.00">read</text>
</g>
<!-- gateway:8080#ServerID_OuterContainerID&#45;&gt;1_fwatchdog#ServerID_6df85d7674&#45;2kqrj -->
<g id="edge6" class="edge"><title>gateway:8080#ServerID_OuterContainerID&#45;&gt;1_fwatchdog#ServerID_6df85d7674&#45;2kqrj</title>
<path fill="none" stroke="black" d="M3150.32,-389.832C3237.99,-377.52 3380.93,-359.29 3505,-352 3568.97,-348.241 5748.52,-352.756 5812,-344 5851.2,-338.593 5894.07,-326.742 5927.33,-316.17"/>
<polygon fill="black" stroke="black" points="5928.45,-319.488 5936.89,-313.083 5926.3,-312.826 5928.45,-319.488"/>
<text text-anchor="middle" x="3547" y="-355.8" font-family="Times,serif" font-size="14.00">RESPONSE</text>
</g>
<!-- localhost:3000#ServerID_34e86192c217 -->
<g id="node8" class="node"><title>localhost:3000#ServerID_34e86192c217</title>
<polygon fill="none" stroke="black" points="303,-637 16.4457,-619 303,-601 589.554,-619 303,-637"/>
<text text-anchor="middle" x="303" y="-615.3" font-family="Times,serif" font-size="14.00">localhost:3000#ServerID_34e86192c217</text>
</g>
<!-- 1_fwatchdog#ServerID_34e86192c217&#45;&gt;localhost:3000#ServerID_34e86192c217 -->
<g id="edge9" class="edge"><title>1_fwatchdog#ServerID_34e86192c217&#45;&gt;localhost:3000#ServerID_34e86192c217</title>
<path fill="none" stroke="black" d="M680.335,-687.952C593.274,-672.274 465.587,-649.28 383.371,-634.474"/>
<polygon fill="black" stroke="black" points="383.789,-630.993 373.327,-632.665 382.548,-637.882 383.789,-630.993"/>
<text text-anchor="middle" x="587" y="-658.8" font-family="Times,serif" font-size="14.00">write</text>
</g>
<!-- 10_node#ServerID_34e86192c217 -->
<g id="node9" class="node"><title>10_node#ServerID_34e86192c217</title>
<polygon fill="none" stroke="black" points="1349.5,-529 1082.5,-529 1082.5,-493 1349.5,-493 1349.5,-529"/>
<text text-anchor="middle" x="1216" y="-507.3" font-family="Times,serif" font-size="14.00">10_node#ServerID_34e86192c217</text>
</g>
<!-- localhost:3000#ServerID_34e86192c217&#45;&gt;10_node#ServerID_34e86192c217 -->
<g id="edge23" class="edge"><title>localhost:3000#ServerID_34e86192c217&#45;&gt;10_node#ServerID_34e86192c217</title>
<path fill="none" stroke="black" d="M398.123,-606.956C558.531,-588.333 883.724,-550.578 1072.15,-528.702"/>
<polygon fill="black" stroke="black" points="1072.6,-532.173 1082.13,-527.543 1071.79,-525.219 1072.6,-532.173"/>
<text text-anchor="middle" x="749.5" y="-571.8" font-family="Times,serif" font-size="14.00">read</text>
</g>
<!-- 10_node#ServerID_34e86192c217&#45;&gt;gateway:8080#ServerID_OuterContainerID -->
<g id="edge18" class="edge"><title>10_node#ServerID_34e86192c217&#45;&gt;gateway:8080#ServerID_OuterContainerID</title>
<path fill="none" stroke="black" d="M1349.65,-510.314C1617.14,-509.761 2237.08,-502.548 2755,-452 2834.85,-444.207 2925.38,-429.699 2988.47,-418.665"/>
<polygon fill="black" stroke="black" points="2989.11,-422.107 2998.35,-416.926 2987.89,-415.213 2989.11,-422.107"/>
<text text-anchor="middle" x="2660" y="-463.8" font-family="Times,serif" font-size="14.00">connect</text>
</g>
<!-- pipe:[331683264]#ServerID_34e86192c217 -->
<g id="node10" class="node"><title>pipe:[331683264]#ServerID_34e86192c217</title>
<ellipse fill="none" stroke="black" cx="1179" cy="-403" rx="217.162" ry="18"/>
<text text-anchor="middle" x="1179" y="-399.3" font-family="Times,serif" font-size="14.00">pipe:[331683264]#ServerID_34e86192c217</text>
</g>
<!-- 10_node#ServerID_34e86192c217&#45;&gt;pipe:[331683264]#ServerID_34e86192c217 -->
<g id="edge11" class="edge"><title>10_node#ServerID_34e86192c217&#45;&gt;pipe:[331683264]#ServerID_34e86192c217</title>
<path fill="none" stroke="black" d="M1210.06,-492.969C1204.21,-476.224 1195.2,-450.41 1188.39,-430.892"/>
<polygon fill="black" stroke="black" points="1191.65,-429.629 1185.05,-421.341 1185.04,-431.935 1191.65,-429.629"/>
<text text-anchor="middle" x="1222" y="-463.8" font-family="Times,serif" font-size="14.00">write</text>
</g>
<!-- 10.152.183.10:53#ServerID_OuterContainerID -->
<g id="node13" class="node"><title>10.152.183.10:53#ServerID_OuterContainerID</title>
<polygon fill="none" stroke="black" points="2419,-421 2091.56,-403 2419,-385 2746.44,-403 2419,-421"/>
<text text-anchor="middle" x="2419" y="-399.3" font-family="Times,serif" font-size="14.00">10.152.183.10:53#ServerID_OuterContainerID</text>
</g>
<!-- 10_node#ServerID_34e86192c217&#45;&gt;10.152.183.10:53#ServerID_OuterContainerID -->
<g id="edge15" class="edge"><title>10_node#ServerID_34e86192c217&#45;&gt;10.152.183.10:53#ServerID_OuterContainerID</title>
<path fill="none" stroke="black" d="M1349.53,-510.784C1516.34,-510.312 1810.25,-504.697 2060,-475 2163.19,-462.731 2281.06,-437.158 2352.74,-420.289"/>
<polygon fill="black" stroke="black" points="2353.61,-423.678 2362.54,-417.968 2352,-416.866 2353.61,-423.678"/>
<text text-anchor="middle" x="2184.5" y="-463.8" font-family="Times,serif" font-size="14.00">sendto</text>
</g>
<!-- /etc/hosts#ServerID_34e86192c217 -->
<g id="node11" class="node"><title>/etc/hosts#ServerID_34e86192c217</title>
<ellipse fill="none" stroke="black" cx="1216" cy="-619" rx="180.068" ry="18"/>
<text text-anchor="middle" x="1216" y="-615.3" font-family="Times,serif" font-size="14.00">/etc/hosts#ServerID_34e86192c217</text>
</g>
<!-- /etc/hosts#ServerID_34e86192c217&#45;&gt;10_node#ServerID_34e86192c217 -->
<g id="edge12" class="edge"><title>/etc/hosts#ServerID_34e86192c217&#45;&gt;10_node#ServerID_34e86192c217</title>
<path fill="none" stroke="black" d="M1216,-600.969C1216,-584.378 1216,-558.883 1216,-539.431"/>
<polygon fill="black" stroke="black" points="1219.5,-539.341 1216,-529.341 1212.5,-539.341 1219.5,-539.341"/>
<text text-anchor="middle" x="1232.5" y="-571.8" font-family="Times,serif" font-size="14.00">read</text>
</g>
<!-- /etc/resolv.conf#ServerID_34e86192c217 -->
<g id="node12" class="node"><title>/etc/resolv.conf#ServerID_34e86192c217</title>
<ellipse fill="none" stroke="black" cx="813" cy="-619" rx="205.264" ry="18"/>
<text text-anchor="middle" x="813" y="-615.3" font-family="Times,serif" font-size="14.00">/etc/resolv.conf#ServerID_34e86192c217</text>
</g>
<!-- /etc/resolv.conf#ServerID_34e86192c217&#45;&gt;10_node#ServerID_34e86192c217 -->
<g id="edge13" class="edge"><title>/etc/resolv.conf#ServerID_34e86192c217&#45;&gt;10_node#ServerID_34e86192c217</title>
<path fill="none" stroke="black" d="M874.646,-601.785C946.287,-582.942 1064.47,-551.857 1141.27,-531.656"/>
<polygon fill="black" stroke="black" points="1142.58,-534.931 1151.36,-529.003 1140.8,-528.162 1142.58,-534.931"/>
<text text-anchor="middle" x="1019.5" y="-571.8" font-family="Times,serif" font-size="14.00">read</text>
</g>
<!-- 10.152.183.10:53#ServerID_OuterContainerID&#45;&gt;10_node#ServerID_34e86192c217 -->
<g id="edge14" class="edge"><title>10.152.183.10:53#ServerID_OuterContainerID&#45;&gt;10_node#ServerID_34e86192c217</title>
<path fill="none" stroke="black" d="M2341.47,-416.763C2273.5,-427.548 2171.93,-442.686 2083,-452 1829.06,-478.595 1531.92,-495.376 1359.71,-503.695"/>
<polygon fill="black" stroke="black" points="1359.39,-500.207 1349.57,-504.182 1359.73,-507.199 1359.39,-500.207"/>
<text text-anchor="middle" x="2023" y="-463.8" font-family="Times,serif" font-size="14.00">recvfrom</text>
</g>
<!-- localhost:3000#ServerID_e56b6537e2d5 -->
<g id="node15" class="node"><title>localhost:3000#ServerID_e56b6537e2d5</title>
<polygon fill="none" stroke="black" points="5061,-226 4774.45,-208 5061,-190 5347.55,-208 5061,-226"/>
<text text-anchor="middle" x="5061" y="-204.3" font-family="Times,serif" font-size="14.00">localhost:3000#ServerID_e56b6537e2d5</text>
</g>
<!-- 1_fwatchdog#ServerID_e56b6537e2d5&#45;&gt;localhost:3000#ServerID_e56b6537e2d5 -->
<g id="edge17" class="edge"><title>1_fwatchdog#ServerID_e56b6537e2d5&#45;&gt;localhost:3000#ServerID_e56b6537e2d5</title>
<path fill="none" stroke="black" d="M5041.42,-276.764C5033.33,-267.482 5026.72,-255.583 5031,-244 5032.4,-240.224 5034.4,-236.58 5036.73,-233.162"/>
<polygon fill="black" stroke="black" points="5039.56,-235.214 5042.98,-225.186 5034.06,-230.893 5039.56,-235.214"/>
<text text-anchor="middle" x="5050" y="-247.8" font-family="Times,serif" font-size="14.00">write</text>
</g>
<!-- pipe:[331682317]#ServerID_e56b6537e2d5 -->
<g id="node18" class="node"><title>pipe:[331682317]#ServerID_e56b6537e2d5</title>
<ellipse fill="none" stroke="black" cx="5583" cy="-208" rx="217.162" ry="18"/>
<text text-anchor="middle" x="5583" y="-204.3" font-family="Times,serif" font-size="14.00">pipe:[331682317]#ServerID_e56b6537e2d5</text>
</g>
<!-- 1_fwatchdog#ServerID_e56b6537e2d5&#45;&gt;pipe:[331682317]#ServerID_e56b6537e2d5 -->
<g id="edge22" class="edge"><title>1_fwatchdog#ServerID_e56b6537e2d5&#45;&gt;pipe:[331682317]#ServerID_e56b6537e2d5</title>
<path fill="none" stroke="black" d="M5165.69,-276.952C5256.77,-262.121 5388.06,-240.743 5478.95,-225.943"/>
<polygon fill="black" stroke="black" points="5479.69,-229.368 5489,-224.307 5478.57,-222.459 5479.69,-229.368"/>
<text text-anchor="middle" x="5372" y="-247.8" font-family="Times,serif" font-size="14.00">write</text>
</g>
<!-- localhost:3000#ServerID_e56b6537e2d5&#45;&gt;1_fwatchdog#ServerID_e56b6537e2d5 -->
<g id="edge19" class="edge"><title>localhost:3000#ServerID_e56b6537e2d5&#45;&gt;1_fwatchdog#ServerID_e56b6537e2d5</title>
<path fill="none" stroke="black" d="M5066.05,-226.071C5068.32,-235.709 5070.24,-247.993 5069,-259 5068.71,-261.547 5068.31,-264.179 5067.84,-266.803"/>
<polygon fill="black" stroke="black" points="5064.39,-266.18 5065.77,-276.686 5071.25,-267.617 5064.39,-266.18"/>
<text text-anchor="middle" x="5085.5" y="-247.8" font-family="Times,serif" font-size="14.00">read</text>
</g>
<!-- 12_node#ServerID_e56b6537e2d5 -->
<g id="node16" class="node"><title>12_node#ServerID_e56b6537e2d5</title>
<polygon fill="none" stroke="black" points="5194.5,-139 4927.5,-139 4927.5,-103 5194.5,-103 5194.5,-139"/>
<text text-anchor="middle" x="5061" y="-117.3" font-family="Times,serif" font-size="14.00">12_node#ServerID_e56b6537e2d5</text>
</g>
<!-- localhost:3000#ServerID_e56b6537e2d5&#45;&gt;12_node#ServerID_e56b6537e2d5 -->
<g id="edge21" class="edge"><title>localhost:3000#ServerID_e56b6537e2d5&#45;&gt;12_node#ServerID_e56b6537e2d5</title>
<path fill="none" stroke="black" d="M5061,-189.799C5061,-178.163 5061,-162.548 5061,-149.237"/>
<polygon fill="black" stroke="black" points="5064.5,-149.175 5061,-139.175 5057.5,-149.175 5064.5,-149.175"/>
<text text-anchor="middle" x="5077.5" y="-160.8" font-family="Times,serif" font-size="14.00">read</text>
</g>
<!-- pipe:[331682415]#ServerID_e56b6537e2d5 -->
<g id="node17" class="node"><title>pipe:[331682415]#ServerID_e56b6537e2d5</title>
<ellipse fill="none" stroke="black" cx="5061" cy="-34" rx="217.162" ry="18"/>
<text text-anchor="middle" x="5061" y="-30.3" font-family="Times,serif" font-size="14.00">pipe:[331682415]#ServerID_e56b6537e2d5</text>
</g>
<!-- 12_node#ServerID_e56b6537e2d5&#45;&gt;pipe:[331682415]#ServerID_e56b6537e2d5 -->
<g id="edge20" class="edge"><title>12_node#ServerID_e56b6537e2d5&#45;&gt;pipe:[331682415]#ServerID_e56b6537e2d5</title>
<path fill="none" stroke="black" d="M5061,-102.799C5061,-91.1626 5061,-75.5479 5061,-62.2368"/>
<polygon fill="black" stroke="black" points="5064.5,-62.1754 5061,-52.1754 5057.5,-62.1755 5064.5,-62.1754"/>
<text text-anchor="middle" x="5080" y="-73.8" font-family="Times,serif" font-size="14.00">write</text>
</g>
<!-- 10.1.80.1:41394#ServerID_OuterContainerID&#45;&gt;10.1.80.247:8080#ServerID_OuterContainerID -->
<g id="edge25" class="edge"><title>10.1.80.1:41394#ServerID_OuterContainerID&#45;&gt;10.1.80.247:8080#ServerID_OuterContainerID</title>
<path fill="none" stroke="black" d="M1752.74,-312.449C1760.65,-323.019 1769.83,-337.453 1774,-352 1775.84,-358.408 1776.15,-360.69 1774,-367 1772.79,-370.55 1771.06,-374.021 1769.05,-377.312"/>
<polygon fill="black" stroke="black" points="1766.15,-375.351 1763.24,-385.54 1771.87,-379.387 1766.15,-375.351"/>
<text text-anchor="middle" x="1796" y="-355.8" font-family="Times,serif" font-size="14.00">POST</text>
</g>
</g>
</svg>
