<?xml version="1.0" encoding="UTF-8" standalone="no"?>
<!DOCTYPE svg PUBLIC "-//W3C//DTD SVG 1.1//EN"
 "http://www.w3.org/Graphics/SVG/1.1/DTD/svg11.dtd">
<!-- Generated by graphviz version 2.38.0 (20140413.2041)
 -->
<!-- Title: G Pages: 1 -->
<svg width="4769pt" height="684pt"
 viewBox="0.00 0.00 4769.00 684.00" xmlns="http://www.w3.org/2000/svg" xmlns:xlink="http://www.w3.org/1999/xlink">
<g id="graph0" class="graph" transform="scale(1 1) rotate(0) translate(4 680)">
<title>G</title>
<polygon fill="white" stroke="none" points="-4,4 -4,-680 4765,-680 4765,4 -4,4"/>
<g id="clust1" class="cluster"><title>clusterServerID_34e86192c217</title>
<polygon fill="none" stroke="black" points="3363,-377 3363,-668 4485,-668 4485,-377 3363,-377"/>
<text text-anchor="middle" x="3924" y="-652.8" font-family="Times,serif" font-size="14.00">clusterServerID_34e86192c217</text>
</g>
<g id="clust2" class="cluster"><title>clusterServerID_5f846fd567&#45;w7nbt</title>
<polygon fill="none" stroke="black" points="3363,-269 3363,-344 3703,-344 3703,-269 3363,-269"/>
<text text-anchor="middle" x="3533" y="-328.8" font-family="Times,serif" font-size="14.00">clusterServerID_5f846fd567&#45;w7nbt</text>
</g>
<g id="clust3" class="cluster"><title>clusterServerID_6df85d7674&#45;2kqrj</title>
<polygon fill="none" stroke="black" points="800,-485 800,-560 1138,-560 1138,-485 800,-485"/>
<text text-anchor="middle" x="969" y="-544.8" font-family="Times,serif" font-size="14.00">clusterServerID_6df85d7674&#45;2kqrj</text>
</g>
<g id="clust4" class="cluster"><title>clusterServerID_OuterContainerID</title>
<polygon fill="none" stroke="black" points="8,-269 8,-452 3355,-452 3355,-269 8,-269"/>
<text text-anchor="middle" x="1681.5" y="-436.8" font-family="Times,serif" font-size="14.00">clusterServerID_OuterContainerID</text>
</g>
<g id="clust5" class="cluster"><title>clusterServerID_e56b6537e2d5</title>
<polygon fill="none" stroke="black" points="3711,-8 3711,-344 4753,-344 4753,-8 3711,-8"/>
<text text-anchor="middle" x="4232" y="-328.8" font-family="Times,serif" font-size="14.00">clusterServerID_e56b6537e2d5</text>
</g>
<!-- gateway:8080#ServerID_OuterContainerID -->
<g id="node1" class="node"><title>gateway:8080#ServerID_OuterContainerID</title>
<polygon fill="none" stroke="black" points="320,-421 15.5177,-403 320,-385 624.482,-403 320,-421"/>
<text text-anchor="middle" x="320" y="-399.3" font-family="Times,serif" font-size="14.00">gateway:8080#ServerID_OuterContainerID</text>
</g>
<!-- 1_fwatchdog#ServerID_6df85d7674&#45;2kqrj -->
<g id="node2" class="node"><title>1_fwatchdog#ServerID_6df85d7674&#45;2kqrj</title>
<polygon fill="none" stroke="black" points="1129.5,-529 808.5,-529 808.5,-493 1129.5,-493 1129.5,-529"/>
<text text-anchor="middle" x="969" y="-507.3" font-family="Times,serif" font-size="14.00">1_fwatchdog#ServerID_6df85d7674&#45;2kqrj</text>
</g>
<!-- gateway:8080#ServerID_OuterContainerID&#45;&gt;1_fwatchdog#ServerID_6df85d7674&#45;2kqrj -->
<g id="edge1" class="edge"><title>gateway:8080#ServerID_OuterContainerID&#45;&gt;1_fwatchdog#ServerID_6df85d7674&#45;2kqrj</title>
<path fill="none" stroke="black" d="M355.301,-418.934C396.441,-435.628 466.857,-462.017 530,-475 617.349,-492.961 716.232,-501.821 798.007,-506.144"/>
<polygon fill="black" stroke="black" points="798.238,-509.661 808.404,-506.675 798.595,-502.67 798.238,-509.661"/>
<text text-anchor="middle" x="572" y="-463.8" font-family="Times,serif" font-size="14.00">RESPONSE</text>
</g>
<!-- 1_fwatchdog#ServerID_6df85d7674&#45;2kqrj&#45;&gt;gateway:8080#ServerID_OuterContainerID -->
<g id="edge7" class="edge"><title>1_fwatchdog#ServerID_6df85d7674&#45;2kqrj&#45;&gt;gateway:8080#ServerID_OuterContainerID</title>
<path fill="none" stroke="black" d="M864.727,-492.969C737.646,-472.213 525.244,-437.522 406.703,-418.161"/>
<polygon fill="black" stroke="black" points="407.015,-414.666 396.582,-416.508 405.887,-421.574 407.015,-414.666"/>
<text text-anchor="middle" x="761" y="-463.8" font-family="Times,serif" font-size="14.00">POST</text>
</g>
<!-- 10.1.80.247:8080#ServerID_OuterContainerID -->
<g id="node3" class="node"><title>10.1.80.247:8080#ServerID_OuterContainerID</title>
<polygon fill="none" stroke="black" points="969,-421 641.56,-403 969,-385 1296.44,-403 969,-421"/>
<text text-anchor="middle" x="969" y="-399.3" font-family="Times,serif" font-size="14.00">10.1.80.247:8080#ServerID_OuterContainerID</text>
</g>
<!-- 1_fwatchdog#ServerID_6df85d7674&#45;2kqrj&#45;&gt;10.1.80.247:8080#ServerID_OuterContainerID -->
<g id="edge8" class="edge"><title>1_fwatchdog#ServerID_6df85d7674&#45;2kqrj&#45;&gt;10.1.80.247:8080#ServerID_OuterContainerID</title>
<path fill="none" stroke="black" d="M947.203,-492.762C942.256,-487.629 937.675,-481.594 935,-475 932.493,-468.822 933.204,-466.42 935,-460 938.066,-449.043 943.927,-438.099 949.931,-428.83"/>
<polygon fill="black" stroke="black" points="952.868,-430.736 955.644,-420.511 947.098,-426.773 952.868,-430.736"/>
<text text-anchor="middle" x="955" y="-463.8" font-family="Times,serif" font-size="14.00">POST</text>
</g>
<!-- 10.1.80.247:50734#ServerID_OuterContainerID -->
<g id="node4" class="node"><title>10.1.80.247:50734#ServerID_OuterContainerID</title>
<polygon fill="none" stroke="black" points="2339,-421 2003.52,-403 2339,-385 2674.48,-403 2339,-421"/>
<text text-anchor="middle" x="2339" y="-399.3" font-family="Times,serif" font-size="14.00">10.1.80.247:50734#ServerID_OuterContainerID</text>
</g>
<!-- 1_fwatchdog#ServerID_6df85d7674&#45;2kqrj&#45;&gt;10.1.80.247:50734#ServerID_OuterContainerID -->
<g id="edge3" class="edge"><title>1_fwatchdog#ServerID_6df85d7674&#45;2kqrj&#45;&gt;10.1.80.247:50734#ServerID_OuterContainerID</title>
<path fill="none" stroke="black" d="M1129.57,-505.234C1331.64,-498.243 1689.19,-482.582 1994,-452 2081.17,-443.254 2180.17,-429.034 2249.69,-418.337"/>
<polygon fill="black" stroke="black" points="2250.38,-421.772 2259.73,-416.786 2249.31,-414.854 2250.38,-421.772"/>
<text text-anchor="middle" x="1926" y="-463.8" font-family="Times,serif" font-size="14.00">RESPONSE</text>
</g>
<!-- 10.1.80.247:8080#ServerID_OuterContainerID&#45;&gt;1_fwatchdog#ServerID_6df85d7674&#45;2kqrj -->
<g id="edge2" class="edge"><title>10.1.80.247:8080#ServerID_OuterContainerID&#45;&gt;1_fwatchdog#ServerID_6df85d7674&#45;2kqrj</title>
<path fill="none" stroke="black" d="M974.056,-420.927C977.711,-435.311 981.59,-456.508 979,-475 978.64,-477.574 978.137,-480.224 977.547,-482.859"/>
<polygon fill="black" stroke="black" points="974.102,-482.198 974.955,-492.759 980.874,-483.971 974.102,-482.198"/>
<text text-anchor="middle" x="1022" y="-463.8" font-family="Times,serif" font-size="14.00">RESPONSE</text>
</g>
<!-- 10.1.80.1:53774#ServerID_OuterContainerID -->
<g id="node19" class="node"><title>10.1.80.1:53774#ServerID_OuterContainerID</title>
<polygon fill="none" stroke="black" points="862,-313 543.105,-295 862,-277 1180.9,-295 862,-313"/>
<text text-anchor="middle" x="862" y="-291.3" font-family="Times,serif" font-size="14.00">10.1.80.1:53774#ServerID_OuterContainerID</text>
</g>
<!-- 10.1.80.247:8080#ServerID_OuterContainerID&#45;&gt;10.1.80.1:53774#ServerID_OuterContainerID -->
<g id="edge24" class="edge"><title>10.1.80.247:8080#ServerID_OuterContainerID&#45;&gt;10.1.80.1:53774#ServerID_OuterContainerID</title>
<path fill="none" stroke="black" d="M887.866,-389.444C876.568,-384.254 866.334,-377.03 859,-367 849.859,-354.498 850.404,-337.185 853.334,-322.786"/>
<polygon fill="black" stroke="black" points="856.769,-323.475 855.784,-312.926 849.975,-321.786 856.769,-323.475"/>
<text text-anchor="middle" x="901" y="-355.8" font-family="Times,serif" font-size="14.00">RESPONSE</text>
</g>
<!-- 10.0.88.125:31112#ServerID_OuterContainerID -->
<g id="node20" class="node"><title>10.0.88.125:31112#ServerID_OuterContainerID</title>
<polygon fill="none" stroke="black" points="1534,-313 1198.52,-295 1534,-277 1869.48,-295 1534,-313"/>
<text text-anchor="middle" x="1534" y="-291.3" font-family="Times,serif" font-size="14.00">10.0.88.125:31112#ServerID_OuterContainerID</text>
</g>
<!-- 10.1.80.247:8080#ServerID_OuterContainerID&#45;&gt;10.0.88.125:31112#ServerID_OuterContainerID -->
<g id="edge25" class="edge"><title>10.1.80.247:8080#ServerID_OuterContainerID&#45;&gt;10.0.88.125:31112#ServerID_OuterContainerID</title>
<path fill="none" stroke="black" d="M1039.13,-388.843C1144.31,-369.11 1342.37,-331.952 1453.37,-311.127"/>
<polygon fill="black" stroke="black" points="1454.32,-314.509 1463.51,-309.225 1453.03,-307.629 1454.32,-314.509"/>
<text text-anchor="middle" x="1277" y="-355.8" font-family="Times,serif" font-size="14.00">RESPONSE</text>
</g>
<!-- 10.1.80.247:50734#ServerID_OuterContainerID&#45;&gt;1_fwatchdog#ServerID_6df85d7674&#45;2kqrj -->
<g id="edge6" class="edge"><title>10.1.80.247:50734#ServerID_OuterContainerID&#45;&gt;1_fwatchdog#ServerID_6df85d7674&#45;2kqrj</title>
<path fill="none" stroke="black" d="M2263.55,-416.961C2193.84,-428.35 2087.26,-444.276 1994,-452 1862.85,-462.862 1829.45,-453.718 1698,-460 1506.62,-469.145 1287.32,-484.902 1139.66,-496.287"/>
<polygon fill="black" stroke="black" points="1139.3,-492.805 1129.6,-497.065 1139.84,-499.784 1139.3,-492.805"/>
<text text-anchor="middle" x="1718" y="-463.8" font-family="Times,serif" font-size="14.00">POST</text>
</g>
<!-- 1_fwatchdog#ServerID_34e86192c217 -->
<g id="node7" class="node"><title>1_fwatchdog#ServerID_34e86192c217</title>
<polygon fill="none" stroke="black" points="3670.5,-637 3371.5,-637 3371.5,-601 3670.5,-601 3670.5,-637"/>
<text text-anchor="middle" x="3521" y="-615.3" font-family="Times,serif" font-size="14.00">1_fwatchdog#ServerID_34e86192c217</text>
</g>
<!-- 10.1.80.247:50734#ServerID_OuterContainerID&#45;&gt;1_fwatchdog#ServerID_34e86192c217 -->
<g id="edge10" class="edge"><title>10.1.80.247:50734#ServerID_OuterContainerID&#45;&gt;1_fwatchdog#ServerID_34e86192c217</title>
<path fill="none" stroke="black" d="M2373.52,-419.201C2411.61,-435.376 2475.07,-460.581 2532,-475 2819.42,-547.795 3163.86,-587.127 3361.09,-605.233"/>
<polygon fill="black" stroke="black" points="3360.96,-608.736 3371.24,-606.158 3361.6,-601.765 3360.96,-608.736"/>
<text text-anchor="middle" x="2982.5" y="-507.3" font-family="Times,serif" font-size="14.00">read</text>
</g>
<!-- 10.1.80.247:52696#ServerID_OuterContainerID -->
<g id="node5" class="node"><title>10.1.80.247:52696#ServerID_OuterContainerID</title>
<polygon fill="none" stroke="black" points="1650,-421 1314.52,-403 1650,-385 1985.48,-403 1650,-421"/>
<text text-anchor="middle" x="1650" y="-399.3" font-family="Times,serif" font-size="14.00">10.1.80.247:52696#ServerID_OuterContainerID</text>
</g>
<!-- 1_fwatchdog#ServerID_5f846fd567&#45;w7nbt -->
<g id="node6" class="node"><title>1_fwatchdog#ServerID_5f846fd567&#45;w7nbt</title>
<polygon fill="none" stroke="black" points="3695,-313 3371,-313 3371,-277 3695,-277 3695,-313"/>
<text text-anchor="middle" x="3533" y="-291.3" font-family="Times,serif" font-size="14.00">1_fwatchdog#ServerID_5f846fd567&#45;w7nbt</text>
</g>
<!-- 10.1.80.247:52696#ServerID_OuterContainerID&#45;&gt;1_fwatchdog#ServerID_5f846fd567&#45;w7nbt -->
<g id="edge4" class="edge"><title>10.1.80.247:52696#ServerID_OuterContainerID&#45;&gt;1_fwatchdog#ServerID_5f846fd567&#45;w7nbt</title>
<path fill="none" stroke="black" d="M1774.48,-391.649C1840.04,-386.533 1921.83,-380.683 1995,-377 2387.99,-357.22 2486.61,-360.841 2880,-352 2933.22,-350.804 3306.31,-351.582 3359,-344 3398.24,-338.353 3441.19,-326.564 3474.6,-316.084"/>
<polygon fill="black" stroke="black" points="3475.74,-319.395 3484.2,-313.026 3473.61,-312.726 3475.74,-319.395"/>
<text text-anchor="middle" x="2900" y="-355.8" font-family="Times,serif" font-size="14.00">POST</text>
</g>
<!-- 1_fwatchdog#ServerID_e56b6537e2d5 -->
<g id="node14" class="node"><title>1_fwatchdog#ServerID_e56b6537e2d5</title>
<polygon fill="none" stroke="black" points="4155.5,-313 3856.5,-313 3856.5,-277 4155.5,-277 4155.5,-313"/>
<text text-anchor="middle" x="4006" y="-291.3" font-family="Times,serif" font-size="14.00">1_fwatchdog#ServerID_e56b6537e2d5</text>
</g>
<!-- 10.1.80.247:52696#ServerID_OuterContainerID&#45;&gt;1_fwatchdog#ServerID_e56b6537e2d5 -->
<g id="edge16" class="edge"><title>10.1.80.247:52696#ServerID_OuterContainerID&#45;&gt;1_fwatchdog#ServerID_e56b6537e2d5</title>
<path fill="none" stroke="black" d="M1769.64,-391.408C1835.98,-386.018 1919.99,-379.988 1995,-377 2604.31,-352.729 2757.63,-389.811 3367,-367 3518.35,-361.334 3556.52,-361.132 3707,-344 3772.79,-336.51 3846.21,-324.773 3903.83,-314.78"/>
<polygon fill="black" stroke="black" points="3904.78,-318.167 3914.03,-313 3903.58,-311.271 3904.78,-318.167"/>
<text text-anchor="middle" x="3645.5" y="-355.8" font-family="Times,serif" font-size="14.00">read</text>
</g>
<!-- 1_fwatchdog#ServerID_5f846fd567&#45;w7nbt&#45;&gt;10.1.80.247:52696#ServerID_OuterContainerID -->
<g id="edge5" class="edge"><title>1_fwatchdog#ServerID_5f846fd567&#45;w7nbt&#45;&gt;10.1.80.247:52696#ServerID_OuterContainerID</title>
<path fill="none" stroke="black" d="M3482.63,-313.018C3448.23,-323.865 3401.38,-337.128 3359,-344 3059.71,-392.531 2297.94,-364.398 1995,-377 1924.09,-379.95 1845.13,-385.504 1780.66,-390.629"/>
<polygon fill="black" stroke="black" points="1780.13,-387.16 1770.44,-391.447 1780.69,-394.138 1780.13,-387.16"/>
<text text-anchor="middle" x="3321" y="-355.8" font-family="Times,serif" font-size="14.00">RESPONSE</text>
</g>
<!-- localhost:3000#ServerID_34e86192c217 -->
<g id="node8" class="node"><title>localhost:3000#ServerID_34e86192c217</title>
<polygon fill="none" stroke="black" points="3658,-529 3371.45,-511 3658,-493 3944.55,-511 3658,-529"/>
<text text-anchor="middle" x="3658" y="-507.3" font-family="Times,serif" font-size="14.00">localhost:3000#ServerID_34e86192c217</text>
</g>
<!-- 1_fwatchdog#ServerID_34e86192c217&#45;&gt;localhost:3000#ServerID_34e86192c217 -->
<g id="edge9" class="edge"><title>1_fwatchdog#ServerID_34e86192c217&#45;&gt;localhost:3000#ServerID_34e86192c217</title>
<path fill="none" stroke="black" d="M3543.01,-600.969C3566.49,-582.803 3603.76,-553.963 3629.48,-534.068"/>
<polygon fill="black" stroke="black" points="3631.62,-536.836 3637.39,-527.948 3627.34,-531.299 3631.62,-536.836"/>
<text text-anchor="middle" x="3605" y="-571.8" font-family="Times,serif" font-size="14.00">write</text>
</g>
<!-- 10_node#ServerID_34e86192c217 -->
<g id="node9" class="node"><title>10_node#ServerID_34e86192c217</title>
<polygon fill="none" stroke="black" points="4229.5,-529 3962.5,-529 3962.5,-493 4229.5,-493 4229.5,-529"/>
<text text-anchor="middle" x="4096" y="-507.3" font-family="Times,serif" font-size="14.00">10_node#ServerID_34e86192c217</text>
</g>
<!-- 10_node#ServerID_34e86192c217&#45;&gt;gateway:8080#ServerID_OuterContainerID -->
<g id="edge18" class="edge"><title>10_node#ServerID_34e86192c217&#45;&gt;gateway:8080#ServerID_OuterContainerID</title>
<path fill="none" stroke="black" d="M4012.58,-492.998C3993.42,-489.738 3973.07,-486.787 3954,-485 3940.3,-483.716 1985.76,-460.128 1972,-460 1823.23,-458.617 781.316,-463.752 633,-452 551.718,-445.559 459.558,-430.47 396.408,-418.915"/>
<polygon fill="black" stroke="black" points="396.997,-415.465 386.528,-417.093 395.727,-422.349 396.997,-415.465"/>
<text text-anchor="middle" x="3227" y="-463.8" font-family="Times,serif" font-size="14.00">connect</text>
</g>
<!-- pipe:[331683264]#ServerID_34e86192c217 -->
<g id="node10" class="node"><title>pipe:[331683264]#ServerID_34e86192c217</title>
<ellipse fill="none" stroke="black" cx="4096" cy="-403" rx="217.162" ry="18"/>
<text text-anchor="middle" x="4096" y="-399.3" font-family="Times,serif" font-size="14.00">pipe:[331683264]#ServerID_34e86192c217</text>
</g>
<!-- 10_node#ServerID_34e86192c217&#45;&gt;pipe:[331683264]#ServerID_34e86192c217 -->
<g id="edge11" class="edge"><title>10_node#ServerID_34e86192c217&#45;&gt;pipe:[331683264]#ServerID_34e86192c217</title>
<path fill="none" stroke="black" d="M4096,-492.969C4096,-476.378 4096,-450.883 4096,-431.431"/>
<polygon fill="black" stroke="black" points="4099.5,-431.341 4096,-421.341 4092.5,-431.341 4099.5,-431.341"/>
<text text-anchor="middle" x="4115" y="-463.8" font-family="Times,serif" font-size="14.00">write</text>
</g>
<!-- 10.152.183.10:53#ServerID_OuterContainerID -->
<g id="node13" class="node"><title>10.152.183.10:53#ServerID_OuterContainerID</title>
<polygon fill="none" stroke="black" points="3020,-421 2692.56,-403 3020,-385 3347.44,-403 3020,-421"/>
<text text-anchor="middle" x="3020" y="-399.3" font-family="Times,serif" font-size="14.00">10.152.183.10:53#ServerID_OuterContainerID</text>
</g>
<!-- 10_node#ServerID_34e86192c217&#45;&gt;10.152.183.10:53#ServerID_OuterContainerID -->
<g id="edge14" class="edge"><title>10_node#ServerID_34e86192c217&#45;&gt;10.152.183.10:53#ServerID_OuterContainerID</title>
<path fill="none" stroke="black" d="M4008.75,-492.957C3990.71,-489.906 3971.78,-487.051 3954,-485 3690.89,-454.652 3622.58,-477.922 3359,-452 3273.05,-443.547 3175.47,-429.228 3107.14,-418.424"/>
<polygon fill="black" stroke="black" points="3107.28,-414.902 3096.85,-416.789 3106.18,-421.815 3107.28,-414.902"/>
<text text-anchor="middle" x="3866.5" y="-463.8" font-family="Times,serif" font-size="14.00">sendto</text>
</g>
<!-- /etc/hosts#ServerID_34e86192c217 -->
<g id="node11" class="node"><title>/etc/hosts#ServerID_34e86192c217</title>
<ellipse fill="none" stroke="black" cx="3869" cy="-619" rx="180.068" ry="18"/>
<text text-anchor="middle" x="3869" y="-615.3" font-family="Times,serif" font-size="14.00">/etc/hosts#ServerID_34e86192c217</text>
</g>
<!-- /etc/hosts#ServerID_34e86192c217&#45;&gt;10_node#ServerID_34e86192c217 -->
<g id="edge12" class="edge"><title>/etc/hosts#ServerID_34e86192c217&#45;&gt;10_node#ServerID_34e86192c217</title>
<path fill="none" stroke="black" d="M3904.72,-601.321C3944.03,-582.962 4007.34,-553.399 4050.26,-533.358"/>
<polygon fill="black" stroke="black" points="4051.78,-536.511 4059.36,-529.108 4048.82,-530.168 4051.78,-536.511"/>
<text text-anchor="middle" x="3991.5" y="-571.8" font-family="Times,serif" font-size="14.00">read</text>
</g>
<!-- /etc/resolv.conf#ServerID_34e86192c217 -->
<g id="node12" class="node"><title>/etc/resolv.conf#ServerID_34e86192c217</title>
<ellipse fill="none" stroke="black" cx="4272" cy="-619" rx="205.264" ry="18"/>
<text text-anchor="middle" x="4272" y="-615.3" font-family="Times,serif" font-size="14.00">/etc/resolv.conf#ServerID_34e86192c217</text>
</g>
<!-- /etc/resolv.conf#ServerID_34e86192c217&#45;&gt;10_node#ServerID_34e86192c217 -->
<g id="edge13" class="edge"><title>/etc/resolv.conf#ServerID_34e86192c217&#45;&gt;10_node#ServerID_34e86192c217</title>
<path fill="none" stroke="black" d="M4243.72,-600.969C4213.79,-582.942 4166.4,-554.402 4133.4,-534.525"/>
<polygon fill="black" stroke="black" points="4134.87,-531.325 4124.5,-529.164 4131.26,-537.322 4134.87,-531.325"/>
<text text-anchor="middle" x="4226.5" y="-571.8" font-family="Times,serif" font-size="14.00">read</text>
</g>
<!-- 10.152.183.10:53#ServerID_OuterContainerID&#45;&gt;10_node#ServerID_34e86192c217 -->
<g id="edge15" class="edge"><title>10.152.183.10:53#ServerID_OuterContainerID&#45;&gt;10_node#ServerID_34e86192c217</title>
<path fill="none" stroke="black" d="M3076.28,-417.933C3148.42,-435.065 3277.61,-463.308 3390,-475 3639.36,-500.941 3704.45,-460.969 3954,-485 3969.43,-486.486 3985.71,-488.716 4001.52,-491.244"/>
<polygon fill="black" stroke="black" points="4001.39,-494.77 4011.82,-492.943 4002.53,-487.863 4001.39,-494.77"/>
<text text-anchor="middle" x="3423" y="-463.8" font-family="Times,serif" font-size="14.00">recvfrom</text>
</g>
<!-- localhost:3000#ServerID_e56b6537e2d5 -->
<g id="node15" class="node"><title>localhost:3000#ServerID_e56b6537e2d5</title>
<polygon fill="none" stroke="black" points="4006,-226 3719.45,-208 4006,-190 4292.55,-208 4006,-226"/>
<text text-anchor="middle" x="4006" y="-204.3" font-family="Times,serif" font-size="14.00">localhost:3000#ServerID_e56b6537e2d5</text>
</g>
<!-- 1_fwatchdog#ServerID_e56b6537e2d5&#45;&gt;localhost:3000#ServerID_e56b6537e2d5 -->
<g id="edge17" class="edge"><title>1_fwatchdog#ServerID_e56b6537e2d5&#45;&gt;localhost:3000#ServerID_e56b6537e2d5</title>
<path fill="none" stroke="black" d="M3986.42,-276.764C3978.33,-267.482 3971.72,-255.583 3976,-244 3977.4,-240.224 3979.4,-236.58 3981.73,-233.162"/>
<polygon fill="black" stroke="black" points="3984.56,-235.214 3987.98,-225.186 3979.06,-230.893 3984.56,-235.214"/>
<text text-anchor="middle" x="3995" y="-247.8" font-family="Times,serif" font-size="14.00">write</text>
</g>
<!-- pipe:[331682317]#ServerID_e56b6537e2d5 -->
<g id="node18" class="node"><title>pipe:[331682317]#ServerID_e56b6537e2d5</title>
<ellipse fill="none" stroke="black" cx="4528" cy="-208" rx="217.162" ry="18"/>
<text text-anchor="middle" x="4528" y="-204.3" font-family="Times,serif" font-size="14.00">pipe:[331682317]#ServerID_e56b6537e2d5</text>
</g>
<!-- 1_fwatchdog#ServerID_e56b6537e2d5&#45;&gt;pipe:[331682317]#ServerID_e56b6537e2d5 -->
<g id="edge22" class="edge"><title>1_fwatchdog#ServerID_e56b6537e2d5&#45;&gt;pipe:[331682317]#ServerID_e56b6537e2d5</title>
<path fill="none" stroke="black" d="M4110.69,-276.952C4201.77,-262.121 4333.06,-240.743 4423.95,-225.943"/>
<polygon fill="black" stroke="black" points="4424.69,-229.368 4434,-224.307 4423.57,-222.459 4424.69,-229.368"/>
<text text-anchor="middle" x="4317" y="-247.8" font-family="Times,serif" font-size="14.00">write</text>
</g>
<!-- localhost:3000#ServerID_e56b6537e2d5&#45;&gt;1_fwatchdog#ServerID_e56b6537e2d5 -->
<g id="edge21" class="edge"><title>localhost:3000#ServerID_e56b6537e2d5&#45;&gt;1_fwatchdog#ServerID_e56b6537e2d5</title>
<path fill="none" stroke="black" d="M4011.05,-226.071C4013.32,-235.709 4015.24,-247.993 4014,-259 4013.71,-261.547 4013.31,-264.179 4012.84,-266.803"/>
<polygon fill="black" stroke="black" points="4009.39,-266.18 4010.77,-276.686 4016.25,-267.617 4009.39,-266.18"/>
<text text-anchor="middle" x="4030.5" y="-247.8" font-family="Times,serif" font-size="14.00">read</text>
</g>
<!-- 12_node#ServerID_e56b6537e2d5 -->
<g id="node16" class="node"><title>12_node#ServerID_e56b6537e2d5</title>
<polygon fill="none" stroke="black" points="4139.5,-139 3872.5,-139 3872.5,-103 4139.5,-103 4139.5,-139"/>
<text text-anchor="middle" x="4006" y="-117.3" font-family="Times,serif" font-size="14.00">12_node#ServerID_e56b6537e2d5</text>
</g>
<!-- localhost:3000#ServerID_e56b6537e2d5&#45;&gt;12_node#ServerID_e56b6537e2d5 -->
<g id="edge19" class="edge"><title>localhost:3000#ServerID_e56b6537e2d5&#45;&gt;12_node#ServerID_e56b6537e2d5</title>
<path fill="none" stroke="black" d="M4006,-189.799C4006,-178.163 4006,-162.548 4006,-149.237"/>
<polygon fill="black" stroke="black" points="4009.5,-149.175 4006,-139.175 4002.5,-149.175 4009.5,-149.175"/>
<text text-anchor="middle" x="4022.5" y="-160.8" font-family="Times,serif" font-size="14.00">read</text>
</g>
<!-- pipe:[331682415]#ServerID_e56b6537e2d5 -->
<g id="node17" class="node"><title>pipe:[331682415]#ServerID_e56b6537e2d5</title>
<ellipse fill="none" stroke="black" cx="4006" cy="-34" rx="217.162" ry="18"/>
<text text-anchor="middle" x="4006" y="-30.3" font-family="Times,serif" font-size="14.00">pipe:[331682415]#ServerID_e56b6537e2d5</text>
</g>
<!-- 12_node#ServerID_e56b6537e2d5&#45;&gt;pipe:[331682415]#ServerID_e56b6537e2d5 -->
<g id="edge20" class="edge"><title>12_node#ServerID_e56b6537e2d5&#45;&gt;pipe:[331682415]#ServerID_e56b6537e2d5</title>
<path fill="none" stroke="black" d="M4006,-102.799C4006,-91.1626 4006,-75.5479 4006,-62.2368"/>
<polygon fill="black" stroke="black" points="4009.5,-62.1754 4006,-52.1754 4002.5,-62.1755 4009.5,-62.1754"/>
<text text-anchor="middle" x="4025" y="-73.8" font-family="Times,serif" font-size="14.00">write</text>
</g>
<!-- 10.1.80.1:53774#ServerID_OuterContainerID&#45;&gt;10.1.80.247:8080#ServerID_OuterContainerID -->
<g id="edge23" class="edge"><title>10.1.80.1:53774#ServerID_OuterContainerID&#45;&gt;10.1.80.247:8080#ServerID_OuterContainerID</title>
<path fill="none" stroke="black" d="M893.966,-311.267C911.486,-320.938 932.518,-334.854 947,-352 952.743,-358.799 957.232,-367.332 960.614,-375.415"/>
<polygon fill="black" stroke="black" points="957.391,-376.787 964.201,-384.903 963.939,-374.311 957.391,-376.787"/>
<text text-anchor="middle" x="977" y="-355.8" font-family="Times,serif" font-size="14.00">POST</text>
</g>
</g>
</svg>
