<?xml version="1.0" encoding="UTF-8" standalone="no"?>
<!DOCTYPE svg PUBLIC "-//W3C//DTD SVG 1.1//EN"
 "http://www.w3.org/Graphics/SVG/1.1/DTD/svg11.dtd">
<!-- Generated by graphviz version 2.38.0 (20140413.2041)
 -->
<!-- Title: G Pages: 1 -->
<svg width="4502pt" height="684pt"
 viewBox="0.00 0.00 4502.00 684.00" xmlns="http://www.w3.org/2000/svg" xmlns:xlink="http://www.w3.org/1999/xlink">
<g id="graph0" class="graph" transform="scale(1 1) rotate(0) translate(4 680)">
<title>G</title>
<polygon fill="white" stroke="none" points="-4,4 -4,-680 4498,-680 4498,4 -4,4"/>
<g id="clust1" class="cluster"><title>clusterServerID_34e86192c217</title>
<polygon fill="none" stroke="black" points="3364,-377 3364,-668 4486,-668 4486,-377 3364,-377"/>
<text text-anchor="middle" x="3925" y="-652.8" font-family="Times,serif" font-size="14.00">clusterServerID_34e86192c217</text>
</g>
<g id="clust2" class="cluster"><title>clusterServerID_5f846fd567&#45;w7nbt</title>
<polygon fill="none" stroke="black" points="1885,-485 1885,-560 2225,-560 2225,-485 1885,-485"/>
<text text-anchor="middle" x="2055" y="-544.8" font-family="Times,serif" font-size="14.00">clusterServerID_5f846fd567&#45;w7nbt</text>
</g>
<g id="clust3" class="cluster"><title>clusterServerID_6df85d7674&#45;2kqrj</title>
<polygon fill="none" stroke="black" points="854,-485 854,-560 1192,-560 1192,-485 854,-485"/>
<text text-anchor="middle" x="1023" y="-544.8" font-family="Times,serif" font-size="14.00">clusterServerID_6df85d7674&#45;2kqrj</text>
</g>
<g id="clust4" class="cluster"><title>clusterServerID_OuterContainerID</title>
<polygon fill="none" stroke="black" points="8,-269 8,-452 3356,-452 3356,-269 8,-269"/>
<text text-anchor="middle" x="1682" y="-436.8" font-family="Times,serif" font-size="14.00">clusterServerID_OuterContainerID</text>
</g>
<g id="clust5" class="cluster"><title>clusterServerID_e56b6537e2d5</title>
<polygon fill="none" stroke="black" points="3364,-8 3364,-344 4406,-344 4406,-8 3364,-8"/>
<text text-anchor="middle" x="3885" y="-328.8" font-family="Times,serif" font-size="14.00">clusterServerID_e56b6537e2d5</text>
</g>
<!-- 1_fwatchdog#ServerID_6df85d7674&#45;2kqrj -->
<g id="node1" class="node"><title>1_fwatchdog#ServerID_6df85d7674&#45;2kqrj</title>
<polygon fill="none" stroke="black" points="1183.5,-529 862.5,-529 862.5,-493 1183.5,-493 1183.5,-529"/>
<text text-anchor="middle" x="1023" y="-507.3" font-family="Times,serif" font-size="14.00">1_fwatchdog#ServerID_6df85d7674&#45;2kqrj</text>
</g>
<!-- gateway:8080#ServerID_OuterContainerID -->
<g id="node2" class="node"><title>gateway:8080#ServerID_OuterContainerID</title>
<polygon fill="none" stroke="black" points="1682,-421 1377.52,-403 1682,-385 1986.48,-403 1682,-421"/>
<text text-anchor="middle" x="1682" y="-399.3" font-family="Times,serif" font-size="14.00">gateway:8080#ServerID_OuterContainerID</text>
</g>
<!-- 1_fwatchdog#ServerID_6df85d7674&#45;2kqrj&#45;&gt;gateway:8080#ServerID_OuterContainerID -->
<g id="edge1" class="edge"><title>1_fwatchdog#ServerID_6df85d7674&#45;2kqrj&#45;&gt;gateway:8080#ServerID_OuterContainerID</title>
<path fill="none" stroke="black" d="M1168.26,-492.966C1209.9,-487.671 1255.3,-481.503 1297,-475 1404.97,-458.161 1529.18,-434.468 1606.65,-419.172"/>
<polygon fill="black" stroke="black" points="1607.66,-422.539 1616.79,-417.164 1606.3,-415.672 1607.66,-422.539"/>
<text text-anchor="middle" x="1402" y="-463.8" font-family="Times,serif" font-size="14.00">POST</text>
</g>
<!-- 10.1.80.247:8080#ServerID_OuterContainerID -->
<g id="node3" class="node"><title>10.1.80.247:8080#ServerID_OuterContainerID</title>
<polygon fill="none" stroke="black" points="343,-421 15.5599,-403 343,-385 670.44,-403 343,-421"/>
<text text-anchor="middle" x="343" y="-399.3" font-family="Times,serif" font-size="14.00">10.1.80.247:8080#ServerID_OuterContainerID</text>
</g>
<!-- 1_fwatchdog#ServerID_6df85d7674&#45;2kqrj&#45;&gt;10.1.80.247:8080#ServerID_OuterContainerID -->
<g id="edge6" class="edge"><title>1_fwatchdog#ServerID_6df85d7674&#45;2kqrj&#45;&gt;10.1.80.247:8080#ServerID_OuterContainerID</title>
<path fill="none" stroke="black" d="M953.354,-492.942C905.901,-481.934 841.496,-468.19 784,-460 738.105,-453.462 726.083,-457.049 680,-452 595.625,-442.756 499.849,-428.775 432.023,-418.283"/>
<polygon fill="black" stroke="black" points="432.223,-414.772 421.804,-416.696 431.148,-421.689 432.223,-414.772"/>
<text text-anchor="middle" x="890" y="-463.8" font-family="Times,serif" font-size="14.00">POST</text>
</g>
<!-- 10.1.80.247:50734#ServerID_OuterContainerID -->
<g id="node6" class="node"><title>10.1.80.247:50734#ServerID_OuterContainerID</title>
<polygon fill="none" stroke="black" points="1024,-421 688.515,-403 1024,-385 1359.48,-403 1024,-421"/>
<text text-anchor="middle" x="1024" y="-399.3" font-family="Times,serif" font-size="14.00">10.1.80.247:50734#ServerID_OuterContainerID</text>
</g>
<!-- 1_fwatchdog#ServerID_6df85d7674&#45;2kqrj&#45;&gt;10.1.80.247:50734#ServerID_OuterContainerID -->
<g id="edge8" class="edge"><title>1_fwatchdog#ServerID_6df85d7674&#45;2kqrj&#45;&gt;10.1.80.247:50734#ServerID_OuterContainerID</title>
<path fill="none" stroke="black" d="M984.069,-492.889C971.19,-484.513 961.405,-473.341 967,-460 972.43,-447.053 982.475,-435.591 992.637,-426.463"/>
<polygon fill="black" stroke="black" points="994.969,-429.075 1000.36,-419.952 990.456,-423.724 994.969,-429.075"/>
<text text-anchor="middle" x="1009" y="-463.8" font-family="Times,serif" font-size="14.00">RESPONSE</text>
</g>
<!-- gateway:8080#ServerID_OuterContainerID&#45;&gt;1_fwatchdog#ServerID_6df85d7674&#45;2kqrj -->
<g id="edge3" class="edge"><title>gateway:8080#ServerID_OuterContainerID&#45;&gt;1_fwatchdog#ServerID_6df85d7674&#45;2kqrj</title>
<path fill="none" stroke="black" d="M1611.49,-416.873C1548.02,-427.96 1452.08,-443.48 1368,-452 1297.6,-459.133 1278.89,-448.976 1209,-460 1166.73,-466.667 1120.24,-479.162 1084.32,-489.993"/>
<polygon fill="black" stroke="black" points="1083.02,-486.73 1074.48,-492.998 1085.06,-493.425 1083.02,-486.73"/>
<text text-anchor="middle" x="1251" y="-463.8" font-family="Times,serif" font-size="14.00">RESPONSE</text>
</g>
<!-- 10.1.80.247:8080#ServerID_OuterContainerID&#45;&gt;1_fwatchdog#ServerID_6df85d7674&#45;2kqrj -->
<g id="edge2" class="edge"><title>10.1.80.247:8080#ServerID_OuterContainerID&#45;&gt;1_fwatchdog#ServerID_6df85d7674&#45;2kqrj</title>
<path fill="none" stroke="black" d="M403.352,-417.698C474.108,-433.362 595.062,-458.912 700,-475 749.291,-482.557 803.06,-489.069 852.334,-494.356"/>
<polygon fill="black" stroke="black" points="852.138,-497.854 862.452,-495.431 852.878,-490.894 852.138,-497.854"/>
<text text-anchor="middle" x="742" y="-463.8" font-family="Times,serif" font-size="14.00">RESPONSE</text>
</g>
<!-- 10.1.80.1:2222#ServerID_OuterContainerID -->
<g id="node19" class="node"><title>10.1.80.1:2222#ServerID_OuterContainerID</title>
<polygon fill="none" stroke="black" points="1015,-313 704.15,-295 1015,-277 1325.85,-295 1015,-313"/>
<text text-anchor="middle" x="1015" y="-291.3" font-family="Times,serif" font-size="14.00">10.1.80.1:2222#ServerID_OuterContainerID</text>
</g>
<!-- 10.1.80.247:8080#ServerID_OuterContainerID&#45;&gt;10.1.80.1:2222#ServerID_OuterContainerID -->
<g id="edge24" class="edge"><title>10.1.80.247:8080#ServerID_OuterContainerID&#45;&gt;10.1.80.1:2222#ServerID_OuterContainerID</title>
<path fill="none" stroke="black" d="M481.999,-392.624C549.044,-387.048 630.473,-378.729 703,-367 790.581,-352.836 890.315,-328.712 952.952,-312.567"/>
<polygon fill="black" stroke="black" points="953.876,-315.944 962.679,-310.048 952.121,-309.167 953.876,-315.944"/>
<text text-anchor="middle" x="823" y="-355.8" font-family="Times,serif" font-size="14.00">RESPONSE</text>
</g>
<!-- 10.0.88.125:31112#ServerID_OuterContainerID -->
<g id="node20" class="node"><title>10.0.88.125:31112#ServerID_OuterContainerID</title>
<polygon fill="none" stroke="black" points="351,-313 15.5152,-295 351,-277 686.485,-295 351,-313"/>
<text text-anchor="middle" x="351" y="-291.3" font-family="Times,serif" font-size="14.00">10.0.88.125:31112#ServerID_OuterContainerID</text>
</g>
<!-- 10.1.80.247:8080#ServerID_OuterContainerID&#45;&gt;10.0.88.125:31112#ServerID_OuterContainerID -->
<g id="edge25" class="edge"><title>10.1.80.247:8080#ServerID_OuterContainerID&#45;&gt;10.0.88.125:31112#ServerID_OuterContainerID</title>
<path fill="none" stroke="black" d="M344.285,-384.969C345.545,-368.279 347.485,-342.579 348.956,-323.084"/>
<polygon fill="black" stroke="black" points="352.455,-323.224 349.718,-312.988 345.475,-322.697 352.455,-323.224"/>
<text text-anchor="middle" x="389" y="-355.8" font-family="Times,serif" font-size="14.00">RESPONSE</text>
</g>
<!-- 1_fwatchdog#ServerID_5f846fd567&#45;w7nbt -->
<g id="node4" class="node"><title>1_fwatchdog#ServerID_5f846fd567&#45;w7nbt</title>
<polygon fill="none" stroke="black" points="2217,-529 1893,-529 1893,-493 2217,-493 2217,-529"/>
<text text-anchor="middle" x="2055" y="-507.3" font-family="Times,serif" font-size="14.00">1_fwatchdog#ServerID_5f846fd567&#45;w7nbt</text>
</g>
<!-- 10.1.80.247:52696#ServerID_OuterContainerID -->
<g id="node5" class="node"><title>10.1.80.247:52696#ServerID_OuterContainerID</title>
<polygon fill="none" stroke="black" points="2340,-421 2004.52,-403 2340,-385 2675.48,-403 2340,-421"/>
<text text-anchor="middle" x="2340" y="-399.3" font-family="Times,serif" font-size="14.00">10.1.80.247:52696#ServerID_OuterContainerID</text>
</g>
<!-- 1_fwatchdog#ServerID_5f846fd567&#45;w7nbt&#45;&gt;10.1.80.247:52696#ServerID_OuterContainerID -->
<g id="edge4" class="edge"><title>1_fwatchdog#ServerID_5f846fd567&#45;w7nbt&#45;&gt;10.1.80.247:52696#ServerID_OuterContainerID</title>
<path fill="none" stroke="black" d="M2100.79,-492.969C2152.64,-473.686 2236.82,-442.376 2290.25,-422.505"/>
<polygon fill="black" stroke="black" points="2291.7,-425.699 2299.85,-418.933 2289.26,-419.138 2291.7,-425.699"/>
<text text-anchor="middle" x="2231" y="-463.8" font-family="Times,serif" font-size="14.00">RESPONSE</text>
</g>
<!-- 10.1.80.247:52696#ServerID_OuterContainerID&#45;&gt;1_fwatchdog#ServerID_5f846fd567&#45;w7nbt -->
<g id="edge7" class="edge"><title>10.1.80.247:52696#ServerID_OuterContainerID&#45;&gt;1_fwatchdog#ServerID_5f846fd567&#45;w7nbt</title>
<path fill="none" stroke="black" d="M2330.23,-420.505C2319.43,-437.157 2300.42,-462.185 2277,-475 2272.27,-477.59 2230.16,-484.478 2183.88,-491.465"/>
<polygon fill="black" stroke="black" points="2183.32,-488.01 2173.95,-492.956 2184.36,-494.933 2183.32,-488.01"/>
<text text-anchor="middle" x="2316" y="-463.8" font-family="Times,serif" font-size="14.00">POST</text>
</g>
<!-- 1_fwatchdog#ServerID_e56b6537e2d5 -->
<g id="node14" class="node"><title>1_fwatchdog#ServerID_e56b6537e2d5</title>
<polygon fill="none" stroke="black" points="3808.5,-313 3509.5,-313 3509.5,-277 3808.5,-277 3808.5,-313"/>
<text text-anchor="middle" x="3659" y="-291.3" font-family="Times,serif" font-size="14.00">1_fwatchdog#ServerID_e56b6537e2d5</text>
</g>
<!-- 10.1.80.247:52696#ServerID_OuterContainerID&#45;&gt;1_fwatchdog#ServerID_e56b6537e2d5 -->
<g id="edge18" class="edge"><title>10.1.80.247:52696#ServerID_OuterContainerID&#45;&gt;1_fwatchdog#ServerID_e56b6537e2d5</title>
<path fill="none" stroke="black" d="M2469.38,-391.902C2534.11,-387.034 2613.67,-381.328 2685,-377 2984.81,-358.811 3061.26,-375.185 3360,-344 3426.85,-337.021 3501.51,-325.04 3559.5,-314.795"/>
<polygon fill="black" stroke="black" points="3560.16,-318.233 3569.39,-313.036 3558.93,-311.341 3560.16,-318.233"/>
<text text-anchor="middle" x="3293.5" y="-355.8" font-family="Times,serif" font-size="14.00">read</text>
</g>
<!-- 10.1.80.247:50734#ServerID_OuterContainerID&#45;&gt;1_fwatchdog#ServerID_6df85d7674&#45;2kqrj -->
<g id="edge5" class="edge"><title>10.1.80.247:50734#ServerID_OuterContainerID&#45;&gt;1_fwatchdog#ServerID_6df85d7674&#45;2kqrj</title>
<path fill="none" stroke="black" d="M1039.08,-420.48C1050.24,-434.767 1062.35,-456.067 1055,-475 1053.64,-478.507 1051.74,-481.876 1049.55,-485.046"/>
<polygon fill="black" stroke="black" points="1046.75,-482.944 1043.2,-492.928 1052.2,-487.335 1046.75,-482.944"/>
<text text-anchor="middle" x="1078" y="-463.8" font-family="Times,serif" font-size="14.00">POST</text>
</g>
<!-- 1_fwatchdog#ServerID_34e86192c217 -->
<g id="node7" class="node"><title>1_fwatchdog#ServerID_34e86192c217</title>
<polygon fill="none" stroke="black" points="3671.5,-637 3372.5,-637 3372.5,-601 3671.5,-601 3671.5,-637"/>
<text text-anchor="middle" x="3522" y="-615.3" font-family="Times,serif" font-size="14.00">1_fwatchdog#ServerID_34e86192c217</text>
</g>
<!-- 10.1.80.247:50734#ServerID_OuterContainerID&#45;&gt;1_fwatchdog#ServerID_34e86192c217 -->
<g id="edge10" class="edge"><title>10.1.80.247:50734#ServerID_OuterContainerID&#45;&gt;1_fwatchdog#ServerID_34e86192c217</title>
<path fill="none" stroke="black" d="M1100.82,-416.932C1170.57,-428.137 1276.39,-443.801 1369,-452 1750.01,-485.73 1847.44,-458.084 2229,-485 2645.37,-514.372 3135.07,-570.733 3374.77,-599.748"/>
<polygon fill="black" stroke="black" points="3374.6,-603.252 3384.94,-600.981 3375.44,-596.303 3374.6,-603.252"/>
<text text-anchor="middle" x="3039.5" y="-507.3" font-family="Times,serif" font-size="14.00">read</text>
</g>
<!-- localhost:3000#ServerID_34e86192c217 -->
<g id="node8" class="node"><title>localhost:3000#ServerID_34e86192c217</title>
<polygon fill="none" stroke="black" points="3659,-529 3372.45,-511 3659,-493 3945.55,-511 3659,-529"/>
<text text-anchor="middle" x="3659" y="-507.3" font-family="Times,serif" font-size="14.00">localhost:3000#ServerID_34e86192c217</text>
</g>
<!-- 1_fwatchdog#ServerID_34e86192c217&#45;&gt;localhost:3000#ServerID_34e86192c217 -->
<g id="edge9" class="edge"><title>1_fwatchdog#ServerID_34e86192c217&#45;&gt;localhost:3000#ServerID_34e86192c217</title>
<path fill="none" stroke="black" d="M3544.01,-600.969C3567.49,-582.803 3604.76,-553.963 3630.48,-534.068"/>
<polygon fill="black" stroke="black" points="3632.62,-536.836 3638.39,-527.948 3628.34,-531.299 3632.62,-536.836"/>
<text text-anchor="middle" x="3605" y="-571.8" font-family="Times,serif" font-size="14.00">write</text>
</g>
<!-- 10_node#ServerID_34e86192c217 -->
<g id="node9" class="node"><title>10_node#ServerID_34e86192c217</title>
<polygon fill="none" stroke="black" points="4230.5,-529 3963.5,-529 3963.5,-493 4230.5,-493 4230.5,-529"/>
<text text-anchor="middle" x="4097" y="-507.3" font-family="Times,serif" font-size="14.00">10_node#ServerID_34e86192c217</text>
</g>
<!-- 10_node#ServerID_34e86192c217&#45;&gt;gateway:8080#ServerID_OuterContainerID -->
<g id="edge16" class="edge"><title>10_node#ServerID_34e86192c217&#45;&gt;gateway:8080#ServerID_OuterContainerID</title>
<path fill="none" stroke="black" d="M4013.21,-492.95C3994.15,-489.715 3973.94,-486.786 3955,-485 3793.92,-469.813 3388.77,-477.622 3227,-475 3192.8,-474.446 2030.08,-454.91 1996,-452 1914.9,-445.074 1822.93,-430.178 1759.59,-418.805"/>
<polygon fill="black" stroke="black" points="1760.14,-415.347 1749.68,-417.011 1758.9,-422.235 1760.14,-415.347"/>
<text text-anchor="middle" x="3256" y="-463.8" font-family="Times,serif" font-size="14.00">connect</text>
</g>
<!-- pipe:[331683264]#ServerID_34e86192c217 -->
<g id="node10" class="node"><title>pipe:[331683264]#ServerID_34e86192c217</title>
<ellipse fill="none" stroke="black" cx="4097" cy="-403" rx="217.162" ry="18"/>
<text text-anchor="middle" x="4097" y="-399.3" font-family="Times,serif" font-size="14.00">pipe:[331683264]#ServerID_34e86192c217</text>
</g>
<!-- 10_node#ServerID_34e86192c217&#45;&gt;pipe:[331683264]#ServerID_34e86192c217 -->
<g id="edge11" class="edge"><title>10_node#ServerID_34e86192c217&#45;&gt;pipe:[331683264]#ServerID_34e86192c217</title>
<path fill="none" stroke="black" d="M4097,-492.969C4097,-476.378 4097,-450.883 4097,-431.431"/>
<polygon fill="black" stroke="black" points="4100.5,-431.341 4097,-421.341 4093.5,-431.341 4100.5,-431.341"/>
<text text-anchor="middle" x="4116" y="-463.8" font-family="Times,serif" font-size="14.00">write</text>
</g>
<!-- 10.152.183.10:53#ServerID_OuterContainerID -->
<g id="node13" class="node"><title>10.152.183.10:53#ServerID_OuterContainerID</title>
<polygon fill="none" stroke="black" points="3021,-421 2693.56,-403 3021,-385 3348.44,-403 3021,-421"/>
<text text-anchor="middle" x="3021" y="-399.3" font-family="Times,serif" font-size="14.00">10.152.183.10:53#ServerID_OuterContainerID</text>
</g>
<!-- 10_node#ServerID_34e86192c217&#45;&gt;10.152.183.10:53#ServerID_OuterContainerID -->
<g id="edge14" class="edge"><title>10_node#ServerID_34e86192c217&#45;&gt;10.152.183.10:53#ServerID_OuterContainerID</title>
<path fill="none" stroke="black" d="M4009.75,-492.957C3991.71,-489.906 3972.78,-487.051 3955,-485 3691.89,-454.652 3623.58,-477.922 3360,-452 3274.05,-443.547 3176.47,-429.228 3108.14,-418.424"/>
<polygon fill="black" stroke="black" points="3108.28,-414.902 3097.85,-416.789 3107.18,-421.815 3108.28,-414.902"/>
<text text-anchor="middle" x="3866.5" y="-463.8" font-family="Times,serif" font-size="14.00">sendto</text>
</g>
<!-- /etc/hosts#ServerID_34e86192c217 -->
<g id="node11" class="node"><title>/etc/hosts#ServerID_34e86192c217</title>
<ellipse fill="none" stroke="black" cx="3870" cy="-619" rx="180.068" ry="18"/>
<text text-anchor="middle" x="3870" y="-615.3" font-family="Times,serif" font-size="14.00">/etc/hosts#ServerID_34e86192c217</text>
</g>
<!-- /etc/hosts#ServerID_34e86192c217&#45;&gt;10_node#ServerID_34e86192c217 -->
<g id="edge12" class="edge"><title>/etc/hosts#ServerID_34e86192c217&#45;&gt;10_node#ServerID_34e86192c217</title>
<path fill="none" stroke="black" d="M3905.72,-601.321C3945.03,-582.962 4008.34,-553.399 4051.26,-533.358"/>
<polygon fill="black" stroke="black" points="4052.78,-536.511 4060.36,-529.108 4049.82,-530.168 4052.78,-536.511"/>
<text text-anchor="middle" x="3992.5" y="-571.8" font-family="Times,serif" font-size="14.00">read</text>
</g>
<!-- /etc/resolv.conf#ServerID_34e86192c217 -->
<g id="node12" class="node"><title>/etc/resolv.conf#ServerID_34e86192c217</title>
<ellipse fill="none" stroke="black" cx="4273" cy="-619" rx="205.264" ry="18"/>
<text text-anchor="middle" x="4273" y="-615.3" font-family="Times,serif" font-size="14.00">/etc/resolv.conf#ServerID_34e86192c217</text>
</g>
<!-- /etc/resolv.conf#ServerID_34e86192c217&#45;&gt;10_node#ServerID_34e86192c217 -->
<g id="edge13" class="edge"><title>/etc/resolv.conf#ServerID_34e86192c217&#45;&gt;10_node#ServerID_34e86192c217</title>
<path fill="none" stroke="black" d="M4244.72,-600.969C4214.79,-582.942 4167.4,-554.402 4134.4,-534.525"/>
<polygon fill="black" stroke="black" points="4135.87,-531.325 4125.5,-529.164 4132.26,-537.322 4135.87,-531.325"/>
<text text-anchor="middle" x="4227.5" y="-571.8" font-family="Times,serif" font-size="14.00">read</text>
</g>
<!-- 10.152.183.10:53#ServerID_OuterContainerID&#45;&gt;10_node#ServerID_34e86192c217 -->
<g id="edge15" class="edge"><title>10.152.183.10:53#ServerID_OuterContainerID&#45;&gt;10_node#ServerID_34e86192c217</title>
<path fill="none" stroke="black" d="M3077.28,-417.933C3149.42,-435.065 3278.61,-463.308 3391,-475 3640.36,-500.941 3705.45,-460.969 3955,-485 3970.43,-486.486 3986.71,-488.716 4002.52,-491.244"/>
<polygon fill="black" stroke="black" points="4002.39,-494.77 4012.82,-492.943 4003.53,-487.863 4002.39,-494.77"/>
<text text-anchor="middle" x="3424" y="-463.8" font-family="Times,serif" font-size="14.00">recvfrom</text>
</g>
<!-- localhost:3000#ServerID_e56b6537e2d5 -->
<g id="node15" class="node"><title>localhost:3000#ServerID_e56b6537e2d5</title>
<polygon fill="none" stroke="black" points="3659,-226 3372.45,-208 3659,-190 3945.55,-208 3659,-226"/>
<text text-anchor="middle" x="3659" y="-204.3" font-family="Times,serif" font-size="14.00">localhost:3000#ServerID_e56b6537e2d5</text>
</g>
<!-- 1_fwatchdog#ServerID_e56b6537e2d5&#45;&gt;localhost:3000#ServerID_e56b6537e2d5 -->
<g id="edge17" class="edge"><title>1_fwatchdog#ServerID_e56b6537e2d5&#45;&gt;localhost:3000#ServerID_e56b6537e2d5</title>
<path fill="none" stroke="black" d="M3662.51,-276.985C3663.53,-271.293 3664.5,-264.897 3665,-259 3665.63,-251.54 3665.17,-243.475 3664.28,-236.045"/>
<polygon fill="black" stroke="black" points="3667.73,-235.468 3662.79,-226.094 3660.81,-236.502 3667.73,-235.468"/>
<text text-anchor="middle" x="3684" y="-247.8" font-family="Times,serif" font-size="14.00">write</text>
</g>
<!-- pipe:[331682317]#ServerID_e56b6537e2d5 -->
<g id="node18" class="node"><title>pipe:[331682317]#ServerID_e56b6537e2d5</title>
<ellipse fill="none" stroke="black" cx="4181" cy="-208" rx="217.162" ry="18"/>
<text text-anchor="middle" x="4181" y="-204.3" font-family="Times,serif" font-size="14.00">pipe:[331682317]#ServerID_e56b6537e2d5</text>
</g>
<!-- 1_fwatchdog#ServerID_e56b6537e2d5&#45;&gt;pipe:[331682317]#ServerID_e56b6537e2d5 -->
<g id="edge22" class="edge"><title>1_fwatchdog#ServerID_e56b6537e2d5&#45;&gt;pipe:[331682317]#ServerID_e56b6537e2d5</title>
<path fill="none" stroke="black" d="M3763.69,-276.952C3854.77,-262.121 3986.06,-240.743 4076.95,-225.943"/>
<polygon fill="black" stroke="black" points="4077.69,-229.368 4087,-224.307 4076.57,-222.459 4077.69,-229.368"/>
<text text-anchor="middle" x="3970" y="-247.8" font-family="Times,serif" font-size="14.00">write</text>
</g>
<!-- localhost:3000#ServerID_e56b6537e2d5&#45;&gt;1_fwatchdog#ServerID_e56b6537e2d5 -->
<g id="edge21" class="edge"><title>localhost:3000#ServerID_e56b6537e2d5&#45;&gt;1_fwatchdog#ServerID_e56b6537e2d5</title>
<path fill="none" stroke="black" d="M3640.39,-225.091C3635.4,-230.533 3630.65,-237.017 3628,-244 3624.76,-252.556 3627.58,-261.248 3632.62,-268.932"/>
<polygon fill="black" stroke="black" points="3629.87,-271.092 3638.78,-276.82 3635.38,-266.784 3629.87,-271.092"/>
<text text-anchor="middle" x="3644.5" y="-247.8" font-family="Times,serif" font-size="14.00">read</text>
</g>
<!-- 12_node#ServerID_e56b6537e2d5 -->
<g id="node16" class="node"><title>12_node#ServerID_e56b6537e2d5</title>
<polygon fill="none" stroke="black" points="3792.5,-139 3525.5,-139 3525.5,-103 3792.5,-103 3792.5,-139"/>
<text text-anchor="middle" x="3659" y="-117.3" font-family="Times,serif" font-size="14.00">12_node#ServerID_e56b6537e2d5</text>
</g>
<!-- localhost:3000#ServerID_e56b6537e2d5&#45;&gt;12_node#ServerID_e56b6537e2d5 -->
<g id="edge19" class="edge"><title>localhost:3000#ServerID_e56b6537e2d5&#45;&gt;12_node#ServerID_e56b6537e2d5</title>
<path fill="none" stroke="black" d="M3659,-189.799C3659,-178.163 3659,-162.548 3659,-149.237"/>
<polygon fill="black" stroke="black" points="3662.5,-149.175 3659,-139.175 3655.5,-149.175 3662.5,-149.175"/>
<text text-anchor="middle" x="3675.5" y="-160.8" font-family="Times,serif" font-size="14.00">read</text>
</g>
<!-- pipe:[331682415]#ServerID_e56b6537e2d5 -->
<g id="node17" class="node"><title>pipe:[331682415]#ServerID_e56b6537e2d5</title>
<ellipse fill="none" stroke="black" cx="3659" cy="-34" rx="217.162" ry="18"/>
<text text-anchor="middle" x="3659" y="-30.3" font-family="Times,serif" font-size="14.00">pipe:[331682415]#ServerID_e56b6537e2d5</text>
</g>
<!-- 12_node#ServerID_e56b6537e2d5&#45;&gt;pipe:[331682415]#ServerID_e56b6537e2d5 -->
<g id="edge20" class="edge"><title>12_node#ServerID_e56b6537e2d5&#45;&gt;pipe:[331682415]#ServerID_e56b6537e2d5</title>
<path fill="none" stroke="black" d="M3659,-102.799C3659,-91.1626 3659,-75.5479 3659,-62.2368"/>
<polygon fill="black" stroke="black" points="3662.5,-62.1754 3659,-52.1754 3655.5,-62.1755 3662.5,-62.1754"/>
<text text-anchor="middle" x="3678" y="-73.8" font-family="Times,serif" font-size="14.00">write</text>
</g>
<!-- 10.1.80.1:2222#ServerID_OuterContainerID&#45;&gt;10.1.80.247:8080#ServerID_OuterContainerID -->
<g id="edge23" class="edge"><title>10.1.80.1:2222#ServerID_OuterContainerID&#45;&gt;10.1.80.247:8080#ServerID_OuterContainerID</title>
<path fill="none" stroke="black" d="M935.988,-308.463C810.299,-328.289 565.532,-366.898 433.17,-387.777"/>
<polygon fill="black" stroke="black" points="432.391,-384.356 423.058,-389.372 433.482,-391.271 432.391,-384.356"/>
<text text-anchor="middle" x="679" y="-355.8" font-family="Times,serif" font-size="14.00">POST</text>
</g>
</g>
</svg>
