<?xml version="1.0" encoding="UTF-8" standalone="no"?>
<!DOCTYPE svg PUBLIC "-//W3C//DTD SVG 1.1//EN"
 "http://www.w3.org/Graphics/SVG/1.1/DTD/svg11.dtd">
<!-- Generated by graphviz version 2.38.0 (20140413.2041)
 -->
<!-- Title: G Pages: 1 -->
<svg width="6351pt" height="471pt"
 viewBox="0.00 0.00 6351.00 471.00" xmlns="http://www.w3.org/2000/svg" xmlns:xlink="http://www.w3.org/1999/xlink">
<g id="graph0" class="graph" transform="scale(1 1) rotate(0) translate(4 467)">
<title>G</title>
<polygon fill="white" stroke="none" points="-4,4 -4,-467 6347,-467 6347,4 -4,4"/>
<g id="clust1" class="cluster"><title>clusterServerID_34e86192c217</title>
<polygon fill="none" stroke="black" points="8,-8 8,-324 1130,-324 1130,-8 8,-8"/>
<text text-anchor="middle" x="569" y="-308.8" font-family="Times,serif" font-size="14.00">clusterServerID_34e86192c217</text>
</g>
<g id="clust2" class="cluster"><title>clusterServerID_5f846fd567&#45;w7nbt</title>
<polygon fill="none" stroke="black" points="4493,-95 4493,-193 4833,-193 4833,-95 4493,-95"/>
<text text-anchor="middle" x="4663" y="-177.8" font-family="Times,serif" font-size="14.00">clusterServerID_5f846fd567&#45;w7nbt</text>
</g>
<g id="clust3" class="cluster"><title>clusterServerID_6df85d7674&#45;2kqrj</title>
<polygon fill="none" stroke="black" points="2610,-357 2610,-455 2948,-455 2948,-357 2610,-357"/>
<text text-anchor="middle" x="2779" y="-439.8" font-family="Times,serif" font-size="14.00">clusterServerID_6df85d7674&#45;2kqrj</text>
</g>
<g id="clust4" class="cluster"><title>clusterServerID_OuterContainerID</title>
<polygon fill="none" stroke="black" points="1138,-95 1138,-324 4485,-324 4485,-95 1138,-95"/>
<text text-anchor="middle" x="2811.5" y="-308.8" font-family="Times,serif" font-size="14.00">clusterServerID_OuterContainerID</text>
</g>
<g id="clust5" class="cluster"><title>clusterServerID_e56b6537e2d5</title>
<polygon fill="none" stroke="black" points="4841,-8 4841,-193 6335,-193 6335,-8 4841,-8"/>
<text text-anchor="middle" x="5588" y="-177.8" font-family="Times,serif" font-size="14.00">clusterServerID_e56b6537e2d5</text>
</g>
<!-- gateway:8080#ServerID_OuterContainerID -->
<g id="node1" class="node"><title>gateway:8080#ServerID_OuterContainerID</title>
<polygon fill="none" stroke="black" points="1450,-270 1145.52,-252 1450,-234 1754.48,-252 1450,-270"/>
<text text-anchor="middle" x="1450" y="-248.3" font-family="Times,serif" font-size="14.00">gateway:8080#ServerID_OuterContainerID</text>
</g>
<!-- 1_fwatchdog#ServerID_6df85d7674&#45;2kqrj -->
<g id="node2" class="node"><title>1_fwatchdog#ServerID_6df85d7674&#45;2kqrj</title>
<polygon fill="none" stroke="black" points="2939.5,-401 2618.5,-401 2618.5,-365 2939.5,-365 2939.5,-401"/>
<text text-anchor="middle" x="2779" y="-379.3" font-family="Times,serif" font-size="14.00">1_fwatchdog#ServerID_6df85d7674&#45;2kqrj</text>
</g>
<!-- gateway:8080#ServerID_OuterContainerID&#45;&gt;1_fwatchdog#ServerID_6df85d7674&#45;2kqrj -->
<g id="edge1" class="edge"><title>gateway:8080#ServerID_OuterContainerID&#45;&gt;1_fwatchdog#ServerID_6df85d7674&#45;2kqrj</title>
<path fill="none" stroke="black" d="M1508.79,-266.58C1571.66,-281.044 1674.29,-304.495 1763,-324 1810.93,-334.54 1822.3,-340.921 1871,-347 2008.6,-364.175 2385.4,-374.267 2608,-378.904"/>
<polygon fill="black" stroke="black" points="2608.08,-382.406 2618.15,-379.114 2608.22,-375.408 2608.08,-382.406"/>
<text text-anchor="middle" x="1913" y="-335.8" font-family="Times,serif" font-size="14.00">RESPONSE</text>
</g>
<!-- 10_node#ServerID_34e86192c217 -->
<g id="node9" class="node"><title>10_node#ServerID_34e86192c217</title>
<polygon fill="none" stroke="black" points="1121.5,-139 854.5,-139 854.5,-103 1121.5,-103 1121.5,-139"/>
<text text-anchor="middle" x="988" y="-117.3" font-family="Times,serif" font-size="14.00">10_node#ServerID_34e86192c217</text>
</g>
<!-- gateway:8080#ServerID_OuterContainerID&#45;&gt;10_node#ServerID_34e86192c217 -->
<g id="edge25" class="edge"><title>gateway:8080#ServerID_OuterContainerID&#45;&gt;10_node#ServerID_34e86192c217</title>
<path fill="none" stroke="black" d="M1408.03,-236.345C1372.53,-224.631 1320.08,-208.907 1273,-201 1211.97,-190.751 1193.88,-208.613 1134,-193 1094.13,-182.605 1052.19,-160.931 1023.54,-144.249"/>
<polygon fill="black" stroke="black" points="1025.11,-141.113 1014.73,-139.028 1021.55,-147.136 1025.11,-141.113"/>
<text text-anchor="middle" x="1354.5" y="-204.8" font-family="Times,serif" font-size="14.00">read</text>
</g>
<!-- 1_fwatchdog#ServerID_6df85d7674&#45;2kqrj&#45;&gt;gateway:8080#ServerID_OuterContainerID -->
<g id="edge7" class="edge"><title>1_fwatchdog#ServerID_6df85d7674&#45;2kqrj&#45;&gt;gateway:8080#ServerID_OuterContainerID</title>
<path fill="none" stroke="black" d="M2618.25,-370.346C2460.02,-359.203 2211.47,-342.576 1996,-332 1892.51,-326.92 1865.76,-337.298 1763,-324 1673.17,-312.376 1571.22,-286.887 1508.76,-269.828"/>
<polygon fill="black" stroke="black" points="1509.65,-266.443 1499.08,-267.166 1507.8,-273.193 1509.65,-266.443"/>
<text text-anchor="middle" x="2275" y="-335.8" font-family="Times,serif" font-size="14.00">POST</text>
</g>
<!-- 10.1.80.247:50734#ServerID_OuterContainerID -->
<g id="node5" class="node"><title>10.1.80.247:50734#ServerID_OuterContainerID</title>
<polygon fill="none" stroke="black" points="2780,-270 2444.52,-252 2780,-234 3115.48,-252 2780,-270"/>
<text text-anchor="middle" x="2780" y="-248.3" font-family="Times,serif" font-size="14.00">10.1.80.247:50734#ServerID_OuterContainerID</text>
</g>
<!-- 1_fwatchdog#ServerID_6df85d7674&#45;2kqrj&#45;&gt;10.1.80.247:50734#ServerID_OuterContainerID -->
<g id="edge6" class="edge"><title>1_fwatchdog#ServerID_6df85d7674&#45;2kqrj&#45;&gt;10.1.80.247:50734#ServerID_OuterContainerID</title>
<path fill="none" stroke="black" d="M2740,-364.938C2733.18,-360.147 2727,-354.22 2723,-347 2719.77,-341.169 2720.95,-338.344 2723,-332 2729.67,-311.36 2743.96,-291.573 2756.57,-276.965"/>
<polygon fill="black" stroke="black" points="2759.27,-279.193 2763.33,-269.409 2754.06,-274.522 2759.27,-279.193"/>
<text text-anchor="middle" x="2765" y="-335.8" font-family="Times,serif" font-size="14.00">RESPONSE</text>
</g>
<!-- 10.1.80.247:8080#ServerID_OuterContainerID -->
<g id="node6" class="node"><title>10.1.80.247:8080#ServerID_OuterContainerID</title>
<polygon fill="none" stroke="black" points="3461,-270 3133.56,-252 3461,-234 3788.44,-252 3461,-270"/>
<text text-anchor="middle" x="3461" y="-248.3" font-family="Times,serif" font-size="14.00">10.1.80.247:8080#ServerID_OuterContainerID</text>
</g>
<!-- 1_fwatchdog#ServerID_6df85d7674&#45;2kqrj&#45;&gt;10.1.80.247:8080#ServerID_OuterContainerID -->
<g id="edge8" class="edge"><title>1_fwatchdog#ServerID_6df85d7674&#45;2kqrj&#45;&gt;10.1.80.247:8080#ServerID_OuterContainerID</title>
<path fill="none" stroke="black" d="M2887.2,-364.98C2955.29,-353.981 3044.93,-338.969 3124,-324 3216.06,-306.571 3321.69,-283.876 3389.78,-268.892"/>
<polygon fill="black" stroke="black" points="3390.95,-272.218 3399.96,-266.647 3389.45,-265.382 3390.95,-272.218"/>
<text text-anchor="middle" x="3098" y="-335.8" font-family="Times,serif" font-size="14.00">POST</text>
</g>
<!-- 10.1.80.247:52696#ServerID_OuterContainerID -->
<g id="node3" class="node"><title>10.1.80.247:52696#ServerID_OuterContainerID</title>
<polygon fill="none" stroke="black" points="4142,-270 3806.52,-252 4142,-234 4477.48,-252 4142,-270"/>
<text text-anchor="middle" x="4142" y="-248.3" font-family="Times,serif" font-size="14.00">10.1.80.247:52696#ServerID_OuterContainerID</text>
</g>
<!-- 1_fwatchdog#ServerID_5f846fd567&#45;w7nbt -->
<g id="node4" class="node"><title>1_fwatchdog#ServerID_5f846fd567&#45;w7nbt</title>
<polygon fill="none" stroke="black" points="4825,-139 4501,-139 4501,-103 4825,-103 4825,-139"/>
<text text-anchor="middle" x="4663" y="-117.3" font-family="Times,serif" font-size="14.00">1_fwatchdog#ServerID_5f846fd567&#45;w7nbt</text>
</g>
<!-- 10.1.80.247:52696#ServerID_OuterContainerID&#45;&gt;1_fwatchdog#ServerID_5f846fd567&#45;w7nbt -->
<g id="edge2" class="edge"><title>10.1.80.247:52696#ServerID_OuterContainerID&#45;&gt;1_fwatchdog#ServerID_5f846fd567&#45;w7nbt</title>
<path fill="none" stroke="black" d="M4246.96,-239.614C4316.49,-230.575 4409.24,-215.636 4489,-193 4534.33,-180.136 4583.89,-159.19 4618.48,-143.374"/>
<polygon fill="black" stroke="black" points="4620.22,-146.43 4627.83,-139.061 4617.28,-140.075 4620.22,-146.43"/>
<text text-anchor="middle" x="4473" y="-204.8" font-family="Times,serif" font-size="14.00">POST</text>
</g>
<!-- 1_fwatchdog#ServerID_e56b6537e2d5 -->
<g id="node14" class="node"><title>1_fwatchdog#ServerID_e56b6537e2d5</title>
<polygon fill="none" stroke="black" points="6052.5,-139 5753.5,-139 5753.5,-103 6052.5,-103 6052.5,-139"/>
<text text-anchor="middle" x="5903" y="-117.3" font-family="Times,serif" font-size="14.00">1_fwatchdog#ServerID_e56b6537e2d5</text>
</g>
<!-- 10.1.80.247:52696#ServerID_OuterContainerID&#45;&gt;1_fwatchdog#ServerID_e56b6537e2d5 -->
<g id="edge18" class="edge"><title>10.1.80.247:52696#ServerID_OuterContainerID&#45;&gt;1_fwatchdog#ServerID_e56b6537e2d5</title>
<path fill="none" stroke="black" d="M4323.89,-243.754C4536.4,-234.676 4898.51,-217.307 5209,-193 5393.98,-178.518 5606.1,-155.943 5746.63,-140.147"/>
<polygon fill="black" stroke="black" points="5747.08,-143.619 5756.62,-139.021 5746.3,-136.663 5747.08,-143.619"/>
<text text-anchor="middle" x="5110.5" y="-204.8" font-family="Times,serif" font-size="14.00">read</text>
</g>
<!-- 1_fwatchdog#ServerID_5f846fd567&#45;w7nbt&#45;&gt;10.1.80.247:52696#ServerID_OuterContainerID -->
<g id="edge5" class="edge"><title>1_fwatchdog#ServerID_5f846fd567&#45;w7nbt&#45;&gt;10.1.80.247:52696#ServerID_OuterContainerID</title>
<path fill="none" stroke="black" d="M4640.25,-139.02C4609.54,-160.998 4552.25,-198.498 4497,-216 4461.47,-227.253 4380.9,-235.661 4305.47,-241.412"/>
<polygon fill="black" stroke="black" points="4305.06,-237.933 4295.35,-242.17 4305.59,-244.913 4305.06,-237.933"/>
<text text-anchor="middle" x="4573" y="-204.8" font-family="Times,serif" font-size="14.00">RESPONSE</text>
</g>
<!-- 10.1.80.247:50734#ServerID_OuterContainerID&#45;&gt;1_fwatchdog#ServerID_6df85d7674&#45;2kqrj -->
<g id="edge3" class="edge"><title>10.1.80.247:50734#ServerID_OuterContainerID&#45;&gt;1_fwatchdog#ServerID_6df85d7674&#45;2kqrj</title>
<path fill="none" stroke="black" d="M2792.4,-269.484C2805.03,-288.397 2821.39,-320.248 2811,-347 2809.64,-350.507 2807.74,-353.876 2805.55,-357.046"/>
<polygon fill="black" stroke="black" points="2802.75,-354.944 2799.2,-364.928 2808.2,-359.335 2802.75,-354.944"/>
<text text-anchor="middle" x="2835" y="-335.8" font-family="Times,serif" font-size="14.00">POST</text>
</g>
<!-- 1_fwatchdog#ServerID_34e86192c217 -->
<g id="node7" class="node"><title>1_fwatchdog#ServerID_34e86192c217</title>
<polygon fill="none" stroke="black" points="315.5,-270 16.5,-270 16.5,-234 315.5,-234 315.5,-270"/>
<text text-anchor="middle" x="166" y="-248.3" font-family="Times,serif" font-size="14.00">1_fwatchdog#ServerID_34e86192c217</text>
</g>
<!-- 10.1.80.247:50734#ServerID_OuterContainerID&#45;&gt;1_fwatchdog#ServerID_34e86192c217 -->
<g id="edge12" class="edge"><title>10.1.80.247:50734#ServerID_OuterContainerID&#45;&gt;1_fwatchdog#ServerID_34e86192c217</title>
<path fill="none" stroke="black" d="M2725.28,-267.066C2657.7,-284.823 2538.92,-313.271 2435,-324 2318.4,-336.038 439.583,-348.734 325,-324 281.596,-314.631 235.786,-292.397 204.545,-275.096"/>
<polygon fill="black" stroke="black" points="206.166,-271.992 195.735,-270.134 202.73,-278.091 206.166,-271.992"/>
<text text-anchor="middle" x="1976" y="-335.8" font-family="Times,serif" font-size="14.00">read</text>
</g>
<!-- 10.1.80.247:8080#ServerID_OuterContainerID&#45;&gt;1_fwatchdog#ServerID_6df85d7674&#45;2kqrj -->
<g id="edge4" class="edge"><title>10.1.80.247:8080#ServerID_OuterContainerID&#45;&gt;1_fwatchdog#ServerID_6df85d7674&#45;2kqrj</title>
<path fill="none" stroke="black" d="M3429.94,-268.322C3384.45,-289.981 3296.45,-328.921 3217,-347 3130.24,-366.741 3031.62,-375.759 2949.95,-379.727"/>
<polygon fill="black" stroke="black" points="2949.4,-376.249 2939.57,-380.209 2949.72,-383.241 2949.4,-376.249"/>
<text text-anchor="middle" x="3308" y="-335.8" font-family="Times,serif" font-size="14.00">RESPONSE</text>
</g>
<!-- 10.1.80.1:4174#ServerID_OuterContainerID -->
<g id="node19" class="node"><title>10.1.80.1:4174#ServerID_OuterContainerID</title>
<polygon fill="none" stroke="black" points="3354,-139 3043.15,-121 3354,-103 3664.85,-121 3354,-139"/>
<text text-anchor="middle" x="3354" y="-117.3" font-family="Times,serif" font-size="14.00">10.1.80.1:4174#ServerID_OuterContainerID</text>
</g>
<!-- 10.1.80.247:8080#ServerID_OuterContainerID&#45;&gt;10.1.80.1:4174#ServerID_OuterContainerID -->
<g id="edge27" class="edge"><title>10.1.80.247:8080#ServerID_OuterContainerID&#45;&gt;10.1.80.1:4174#ServerID_OuterContainerID</title>
<path fill="none" stroke="black" d="M3379.87,-238.444C3368.57,-233.254 3358.33,-226.03 3351,-216 3336.97,-196.808 3339.87,-169.035 3344.98,-148.653"/>
<polygon fill="black" stroke="black" points="3348.43,-149.328 3347.78,-138.753 3341.69,-147.425 3348.43,-149.328"/>
<text text-anchor="middle" x="3393" y="-204.8" font-family="Times,serif" font-size="14.00">RESPONSE</text>
</g>
<!-- 10.0.88.125:31112#ServerID_OuterContainerID -->
<g id="node20" class="node"><title>10.0.88.125:31112#ServerID_OuterContainerID</title>
<polygon fill="none" stroke="black" points="4018,-139 3682.52,-121 4018,-103 4353.48,-121 4018,-139"/>
<text text-anchor="middle" x="4018" y="-117.3" font-family="Times,serif" font-size="14.00">10.0.88.125:31112#ServerID_OuterContainerID</text>
</g>
<!-- 10.1.80.247:8080#ServerID_OuterContainerID&#45;&gt;10.0.88.125:31112#ServerID_OuterContainerID -->
<g id="edge28" class="edge"><title>10.1.80.247:8080#ServerID_OuterContainerID&#45;&gt;10.0.88.125:31112#ServerID_OuterContainerID</title>
<path fill="none" stroke="black" d="M3520.34,-237.256C3624.05,-213.239 3837.71,-163.755 3948.28,-138.146"/>
<polygon fill="black" stroke="black" points="3949.38,-141.485 3958.33,-135.819 3947.8,-134.666 3949.38,-141.485"/>
<text text-anchor="middle" x="3716" y="-204.8" font-family="Times,serif" font-size="14.00">RESPONSE</text>
</g>
<!-- localhost:3000#ServerID_34e86192c217 -->
<g id="node8" class="node"><title>localhost:3000#ServerID_34e86192c217</title>
<polygon fill="none" stroke="black" points="303,-139 16.4457,-121 303,-103 589.554,-121 303,-139"/>
<text text-anchor="middle" x="303" y="-117.3" font-family="Times,serif" font-size="14.00">localhost:3000#ServerID_34e86192c217</text>
</g>
<!-- 1_fwatchdog#ServerID_34e86192c217&#45;&gt;localhost:3000#ServerID_34e86192c217 -->
<g id="edge9" class="edge"><title>1_fwatchdog#ServerID_34e86192c217&#45;&gt;localhost:3000#ServerID_34e86192c217</title>
<path fill="none" stroke="black" d="M184.193,-233.87C208.439,-211.039 251.427,-170.562 278.505,-145.064"/>
<polygon fill="black" stroke="black" points="281.145,-147.386 286.026,-137.983 276.346,-142.29 281.145,-147.386"/>
<text text-anchor="middle" x="248" y="-204.8" font-family="Times,serif" font-size="14.00">connect</text>
</g>
<!-- 1_fwatchdog#ServerID_34e86192c217&#45;&gt;localhost:3000#ServerID_34e86192c217 -->
<g id="edge11" class="edge"><title>1_fwatchdog#ServerID_34e86192c217&#45;&gt;localhost:3000#ServerID_34e86192c217</title>
<path fill="none" stroke="black" d="M256.262,-233.996C265.482,-229.353 274.01,-223.464 281,-216 297.683,-198.186 302.505,-170.224 303.562,-149.422"/>
<polygon fill="black" stroke="black" points="307.064,-149.373 303.814,-139.289 300.066,-149.198 307.064,-149.373"/>
<text text-anchor="middle" x="311" y="-204.8" font-family="Times,serif" font-size="14.00">write</text>
</g>
<!-- localhost:3000#ServerID_34e86192c217&#45;&gt;1_fwatchdog#ServerID_34e86192c217 -->
<g id="edge10" class="edge"><title>localhost:3000#ServerID_34e86192c217&#45;&gt;1_fwatchdog#ServerID_34e86192c217</title>
<path fill="none" stroke="black" d="M258.074,-136.306C227.799,-148.455 189.887,-169.091 170,-201 165.883,-207.605 164.154,-215.693 163.646,-223.422"/>
<polygon fill="black" stroke="black" points="160.145,-223.553 163.602,-233.568 167.145,-223.584 160.145,-223.553"/>
<text text-anchor="middle" x="186.5" y="-204.8" font-family="Times,serif" font-size="14.00">read</text>
</g>
<!-- 10_node#ServerID_34e86192c217&#45;&gt;gateway:8080#ServerID_OuterContainerID -->
<g id="edge19" class="edge"><title>10_node#ServerID_34e86192c217&#45;&gt;gateway:8080#ServerID_OuterContainerID</title>
<path fill="none" stroke="black" d="M1017.2,-139.144C1045.99,-155.324 1091.69,-179.115 1134,-193 1201.02,-214.993 1278.94,-229.41 1340.63,-238.37"/>
<polygon fill="black" stroke="black" points="1340.38,-241.871 1350.78,-239.816 1341.37,-234.941 1340.38,-241.871"/>
<text text-anchor="middle" x="1240" y="-204.8" font-family="Times,serif" font-size="14.00">connect</text>
</g>
<!-- pipe:[331683264]#ServerID_34e86192c217 -->
<g id="node10" class="node"><title>pipe:[331683264]#ServerID_34e86192c217</title>
<ellipse fill="none" stroke="black" cx="905" cy="-34" rx="217.162" ry="18"/>
<text text-anchor="middle" x="905" y="-30.3" font-family="Times,serif" font-size="14.00">pipe:[331683264]#ServerID_34e86192c217</text>
</g>
<!-- 10_node#ServerID_34e86192c217&#45;&gt;pipe:[331683264]#ServerID_34e86192c217 -->
<g id="edge13" class="edge"><title>10_node#ServerID_34e86192c217&#45;&gt;pipe:[331683264]#ServerID_34e86192c217</title>
<path fill="none" stroke="black" d="M971.204,-102.799C959.054,-90.3561 942.462,-73.3644 928.928,-59.5044"/>
<polygon fill="black" stroke="black" points="931.262,-56.885 921.771,-52.1754 926.254,-61.7755 931.262,-56.885"/>
<text text-anchor="middle" x="971" y="-73.8" font-family="Times,serif" font-size="14.00">write</text>
</g>
<!-- 10.152.183.10:53#ServerID_OuterContainerID -->
<g id="node12" class="node"><title>10.152.183.10:53#ServerID_OuterContainerID</title>
<polygon fill="none" stroke="black" points="2099,-270 1771.56,-252 2099,-234 2426.44,-252 2099,-270"/>
<text text-anchor="middle" x="2099" y="-248.3" font-family="Times,serif" font-size="14.00">10.152.183.10:53#ServerID_OuterContainerID</text>
</g>
<!-- 10_node#ServerID_34e86192c217&#45;&gt;10.152.183.10:53#ServerID_OuterContainerID -->
<g id="edge15" class="edge"><title>10_node#ServerID_34e86192c217&#45;&gt;10.152.183.10:53#ServerID_OuterContainerID</title>
<path fill="none" stroke="black" d="M1014.1,-139.117C1042.33,-156.536 1089.29,-182.43 1134,-193 1171.04,-201.756 1781.11,-197.42 1819,-201 1891.12,-207.813 1972.52,-223.235 2028.89,-235.164"/>
<polygon fill="black" stroke="black" points="2028.26,-238.607 2038.77,-237.272 2029.72,-231.761 2028.26,-238.607"/>
<text text-anchor="middle" x="1952.5" y="-204.8" font-family="Times,serif" font-size="14.00">sendto</text>
</g>
<!-- /etc/hosts#ServerID_34e86192c217 -->
<g id="node11" class="node"><title>/etc/hosts#ServerID_34e86192c217</title>
<ellipse fill="none" stroke="black" cx="514" cy="-252" rx="180.068" ry="18"/>
<text text-anchor="middle" x="514" y="-248.3" font-family="Times,serif" font-size="14.00">/etc/hosts#ServerID_34e86192c217</text>
</g>
<!-- /etc/hosts#ServerID_34e86192c217&#45;&gt;10_node#ServerID_34e86192c217 -->
<g id="edge14" class="edge"><title>/etc/hosts#ServerID_34e86192c217&#45;&gt;10_node#ServerID_34e86192c217</title>
<path fill="none" stroke="black" d="M573.074,-234.923C659.842,-211.309 821.59,-167.289 915.456,-141.743"/>
<polygon fill="black" stroke="black" points="916.43,-145.105 925.16,-139.102 914.592,-138.351 916.43,-145.105"/>
<text text-anchor="middle" x="711.5" y="-204.8" font-family="Times,serif" font-size="14.00">read</text>
</g>
<!-- 10.152.183.10:53#ServerID_OuterContainerID&#45;&gt;10_node#ServerID_34e86192c217 -->
<g id="edge17" class="edge"><title>10.152.183.10:53#ServerID_OuterContainerID&#45;&gt;10_node#ServerID_34e86192c217</title>
<path fill="none" stroke="black" d="M1972.87,-240.916C1828.48,-229.692 1584.82,-211.724 1375,-201 1321.48,-198.265 1186.01,-205.888 1134,-193 1093.88,-183.059 1051.82,-161.213 1023.21,-144.361"/>
<polygon fill="black" stroke="black" points="1024.79,-141.226 1014.41,-139.086 1021.19,-147.23 1024.79,-141.226"/>
<text text-anchor="middle" x="1648" y="-204.8" font-family="Times,serif" font-size="14.00">recvfrom</text>
</g>
<!-- /etc/resolv.conf#ServerID_34e86192c217 -->
<g id="node13" class="node"><title>/etc/resolv.conf#ServerID_34e86192c217</title>
<ellipse fill="none" stroke="black" cx="917" cy="-252" rx="205.264" ry="18"/>
<text text-anchor="middle" x="917" y="-248.3" font-family="Times,serif" font-size="14.00">/etc/resolv.conf#ServerID_34e86192c217</text>
</g>
<!-- /etc/resolv.conf#ServerID_34e86192c217&#45;&gt;10_node#ServerID_34e86192c217 -->
<g id="edge16" class="edge"><title>/etc/resolv.conf#ServerID_34e86192c217&#45;&gt;10_node#ServerID_34e86192c217</title>
<path fill="none" stroke="black" d="M926.428,-233.87C938.523,-211.895 959.615,-173.573 973.693,-147.994"/>
<polygon fill="black" stroke="black" points="976.777,-149.649 978.533,-139.201 970.645,-146.274 976.777,-149.649"/>
<text text-anchor="middle" x="961.5" y="-204.8" font-family="Times,serif" font-size="14.00">read</text>
</g>
<!-- localhost:3000#ServerID_e56b6537e2d5 -->
<g id="node15" class="node"><title>localhost:3000#ServerID_e56b6537e2d5</title>
<polygon fill="none" stroke="black" points="6040,-52 5753.45,-34 6040,-16 6326.55,-34 6040,-52"/>
<text text-anchor="middle" x="6040" y="-30.3" font-family="Times,serif" font-size="14.00">localhost:3000#ServerID_e56b6537e2d5</text>
</g>
<!-- 1_fwatchdog#ServerID_e56b6537e2d5&#45;&gt;localhost:3000#ServerID_e56b6537e2d5 -->
<g id="edge20" class="edge"><title>1_fwatchdog#ServerID_e56b6537e2d5&#45;&gt;localhost:3000#ServerID_e56b6537e2d5</title>
<path fill="none" stroke="black" d="M5919.84,-102.733C5930.64,-92.3237 5945.34,-79.3215 5960,-70 5969.5,-63.9602 5980.22,-58.4791 5990.66,-53.7409"/>
<polygon fill="black" stroke="black" points="5992.36,-56.818 6000.11,-49.6037 5989.55,-50.4048 5992.36,-56.818"/>
<text text-anchor="middle" x="5989" y="-73.8" font-family="Times,serif" font-size="14.00">connect</text>
</g>
<!-- 1_fwatchdog#ServerID_e56b6537e2d5&#45;&gt;localhost:3000#ServerID_e56b6537e2d5 -->
<g id="edge22" class="edge"><title>1_fwatchdog#ServerID_e56b6537e2d5&#45;&gt;localhost:3000#ServerID_e56b6537e2d5</title>
<path fill="none" stroke="black" d="M5989.06,-102.987C5999.58,-98.3625 6009.57,-92.4805 6018,-85 6024.93,-78.8465 6029.78,-70.1024 6033.12,-61.6431"/>
<polygon fill="black" stroke="black" points="6036.49,-62.6102 6036.39,-52.0158 6029.86,-60.3606 6036.49,-62.6102"/>
<text text-anchor="middle" x="6047" y="-73.8" font-family="Times,serif" font-size="14.00">write</text>
</g>
<!-- pipe:[331682317]#ServerID_e56b6537e2d5 -->
<g id="node16" class="node"><title>pipe:[331682317]#ServerID_e56b6537e2d5</title>
<ellipse fill="none" stroke="black" cx="5518" cy="-34" rx="217.162" ry="18"/>
<text text-anchor="middle" x="5518" y="-30.3" font-family="Times,serif" font-size="14.00">pipe:[331682317]#ServerID_e56b6537e2d5</text>
</g>
<!-- 1_fwatchdog#ServerID_e56b6537e2d5&#45;&gt;pipe:[331682317]#ServerID_e56b6537e2d5 -->
<g id="edge23" class="edge"><title>1_fwatchdog#ServerID_e56b6537e2d5&#45;&gt;pipe:[331682317]#ServerID_e56b6537e2d5</title>
<path fill="none" stroke="black" d="M5825.55,-102.901C5760.28,-88.4912 5667.14,-67.9274 5600.49,-53.2116"/>
<polygon fill="black" stroke="black" points="5600.96,-49.7315 5590.44,-50.9932 5599.45,-56.5669 5600.96,-49.7315"/>
<text text-anchor="middle" x="5752" y="-73.8" font-family="Times,serif" font-size="14.00">write</text>
</g>
<!-- localhost:3000#ServerID_e56b6537e2d5&#45;&gt;1_fwatchdog#ServerID_e56b6537e2d5 -->
<g id="edge21" class="edge"><title>localhost:3000#ServerID_e56b6537e2d5&#45;&gt;1_fwatchdog#ServerID_e56b6537e2d5</title>
<path fill="none" stroke="black" d="M5958.67,-46.9577C5933.22,-52.4738 5909.74,-60.051 5902,-70 5897.11,-76.2893 5895.85,-84.4958 5896.25,-92.4363"/>
<polygon fill="black" stroke="black" points="5892.81,-93.0747 5897.57,-102.538 5899.75,-92.1695 5892.81,-93.0747"/>
<text text-anchor="middle" x="5918.5" y="-73.8" font-family="Times,serif" font-size="14.00">read</text>
</g>
<!-- 12_node#ServerID_e56b6537e2d5 -->
<g id="node17" class="node"><title>12_node#ServerID_e56b6537e2d5</title>
<polygon fill="none" stroke="black" points="5199.5,-139 4932.5,-139 4932.5,-103 5199.5,-103 5199.5,-139"/>
<text text-anchor="middle" x="5066" y="-117.3" font-family="Times,serif" font-size="14.00">12_node#ServerID_e56b6537e2d5</text>
</g>
<!-- pipe:[331682415]#ServerID_e56b6537e2d5 -->
<g id="node18" class="node"><title>pipe:[331682415]#ServerID_e56b6537e2d5</title>
<ellipse fill="none" stroke="black" cx="5066" cy="-34" rx="217.162" ry="18"/>
<text text-anchor="middle" x="5066" y="-30.3" font-family="Times,serif" font-size="14.00">pipe:[331682415]#ServerID_e56b6537e2d5</text>
</g>
<!-- 12_node#ServerID_e56b6537e2d5&#45;&gt;pipe:[331682415]#ServerID_e56b6537e2d5 -->
<g id="edge24" class="edge"><title>12_node#ServerID_e56b6537e2d5&#45;&gt;pipe:[331682415]#ServerID_e56b6537e2d5</title>
<path fill="none" stroke="black" d="M5066,-102.799C5066,-91.1626 5066,-75.5479 5066,-62.2368"/>
<polygon fill="black" stroke="black" points="5069.5,-62.1754 5066,-52.1754 5062.5,-62.1755 5069.5,-62.1754"/>
<text text-anchor="middle" x="5085" y="-73.8" font-family="Times,serif" font-size="14.00">write</text>
</g>
<!-- 10.1.80.1:4174#ServerID_OuterContainerID&#45;&gt;10.1.80.247:8080#ServerID_OuterContainerID -->
<g id="edge26" class="edge"><title>10.1.80.1:4174#ServerID_OuterContainerID&#45;&gt;10.1.80.247:8080#ServerID_OuterContainerID</title>
<path fill="none" stroke="black" d="M3375.53,-137.876C3394.26,-152.569 3421.13,-175.882 3439,-201 3444.08,-208.143 3448.36,-216.645 3451.75,-224.594"/>
<polygon fill="black" stroke="black" points="3448.5,-225.889 3455.45,-233.887 3455.01,-223.302 3448.5,-225.889"/>
<text text-anchor="middle" x="3468" y="-204.8" font-family="Times,serif" font-size="14.00">POST</text>
</g>
</g>
</svg>
