<?xml version="1.0" encoding="UTF-8" standalone="no"?>
<!DOCTYPE svg PUBLIC "-//W3C//DTD SVG 1.1//EN"
 "http://www.w3.org/Graphics/SVG/1.1/DTD/svg11.dtd">
<!-- Generated by graphviz version 2.38.0 (20140413.2041)
 -->
<!-- Title: G Pages: 1 -->
<svg width="4779pt" height="771pt"
 viewBox="0.00 0.00 4779.00 771.00" xmlns="http://www.w3.org/2000/svg" xmlns:xlink="http://www.w3.org/1999/xlink">
<g id="graph0" class="graph" transform="scale(1 1) rotate(0) translate(4 767)">
<title>G</title>
<polygon fill="white" stroke="none" points="-4,4 -4,-767 4775,-767 4775,4 -4,4"/>
<g id="clust1" class="cluster"><title>clusterServerID_34e86192c217</title>
<polygon fill="none" stroke="black" points="3363,-377 3363,-755 4759,-755 4759,-377 3363,-377"/>
<text text-anchor="middle" x="4061" y="-739.8" font-family="Times,serif" font-size="14.00">clusterServerID_34e86192c217</text>
</g>
<g id="clust2" class="cluster"><title>clusterServerID_5f846fd567&#45;w7nbt</title>
<polygon fill="none" stroke="black" points="3363,-269 3363,-344 3703,-344 3703,-269 3363,-269"/>
<text text-anchor="middle" x="3533" y="-328.8" font-family="Times,serif" font-size="14.00">clusterServerID_5f846fd567&#45;w7nbt</text>
</g>
<g id="clust3" class="cluster"><title>clusterServerID_6df85d7674&#45;2kqrj</title>
<polygon fill="none" stroke="black" points="822,-485 822,-560 1160,-560 1160,-485 822,-485"/>
<text text-anchor="middle" x="991" y="-544.8" font-family="Times,serif" font-size="14.00">clusterServerID_6df85d7674&#45;2kqrj</text>
</g>
<g id="clust4" class="cluster"><title>clusterServerID_OuterContainerID</title>
<polygon fill="none" stroke="black" points="8,-269 8,-452 3355,-452 3355,-269 8,-269"/>
<text text-anchor="middle" x="1681.5" y="-436.8" font-family="Times,serif" font-size="14.00">clusterServerID_OuterContainerID</text>
</g>
<g id="clust5" class="cluster"><title>clusterServerID_e56b6537e2d5</title>
<polygon fill="none" stroke="black" points="3711,-8 3711,-344 4753,-344 4753,-8 3711,-8"/>
<text text-anchor="middle" x="4232" y="-328.8" font-family="Times,serif" font-size="14.00">clusterServerID_e56b6537e2d5</text>
</g>
<!-- 1_fwatchdog#ServerID_6df85d7674&#45;2kqrj -->
<g id="node1" class="node"><title>1_fwatchdog#ServerID_6df85d7674&#45;2kqrj</title>
<polygon fill="none" stroke="black" points="1151.5,-529 830.5,-529 830.5,-493 1151.5,-493 1151.5,-529"/>
<text text-anchor="middle" x="991" y="-507.3" font-family="Times,serif" font-size="14.00">1_fwatchdog#ServerID_6df85d7674&#45;2kqrj</text>
</g>
<!-- gateway:8080#ServerID_OuterContainerID -->
<g id="node2" class="node"><title>gateway:8080#ServerID_OuterContainerID</title>
<polygon fill="none" stroke="black" points="992,-421 687.518,-403 992,-385 1296.48,-403 992,-421"/>
<text text-anchor="middle" x="992" y="-399.3" font-family="Times,serif" font-size="14.00">gateway:8080#ServerID_OuterContainerID</text>
</g>
<!-- 1_fwatchdog#ServerID_6df85d7674&#45;2kqrj&#45;&gt;gateway:8080#ServerID_OuterContainerID -->
<g id="edge1" class="edge"><title>1_fwatchdog#ServerID_6df85d7674&#45;2kqrj&#45;&gt;gateway:8080#ServerID_OuterContainerID</title>
<path fill="none" stroke="black" d="M972.041,-492.736C967.557,-487.523 963.388,-481.455 961,-475 958.687,-468.747 959.333,-466.455 961,-460 963.752,-449.348 969.011,-438.56 974.427,-429.334"/>
<polygon fill="black" stroke="black" points="977.494,-431.03 979.809,-420.692 971.552,-427.33 977.494,-431.03"/>
<text text-anchor="middle" x="981" y="-463.8" font-family="Times,serif" font-size="14.00">POST</text>
</g>
<!-- 10.1.80.247:50734#ServerID_OuterContainerID -->
<g id="node3" class="node"><title>10.1.80.247:50734#ServerID_OuterContainerID</title>
<polygon fill="none" stroke="black" points="2339,-421 2003.52,-403 2339,-385 2674.48,-403 2339,-421"/>
<text text-anchor="middle" x="2339" y="-399.3" font-family="Times,serif" font-size="14.00">10.1.80.247:50734#ServerID_OuterContainerID</text>
</g>
<!-- 1_fwatchdog#ServerID_6df85d7674&#45;2kqrj&#45;&gt;10.1.80.247:50734#ServerID_OuterContainerID -->
<g id="edge6" class="edge"><title>1_fwatchdog#ServerID_6df85d7674&#45;2kqrj&#45;&gt;10.1.80.247:50734#ServerID_OuterContainerID</title>
<path fill="none" stroke="black" d="M1151.53,-494.983C1281.09,-483.466 1468.12,-468.196 1632,-460 1792.73,-451.962 1833.59,-464.888 1994,-452 2083.05,-444.845 2184.22,-429.963 2253.86,-418.655"/>
<polygon fill="black" stroke="black" points="2254.6,-422.081 2263.9,-417.014 2253.47,-415.173 2254.6,-422.081"/>
<text text-anchor="middle" x="1674" y="-463.8" font-family="Times,serif" font-size="14.00">RESPONSE</text>
</g>
<!-- 10.1.80.247:8080#ServerID_OuterContainerID -->
<g id="node6" class="node"><title>10.1.80.247:8080#ServerID_OuterContainerID</title>
<polygon fill="none" stroke="black" points="343,-421 15.5599,-403 343,-385 670.44,-403 343,-421"/>
<text text-anchor="middle" x="343" y="-399.3" font-family="Times,serif" font-size="14.00">10.1.80.247:8080#ServerID_OuterContainerID</text>
</g>
<!-- 1_fwatchdog#ServerID_6df85d7674&#45;2kqrj&#45;&gt;10.1.80.247:8080#ServerID_OuterContainerID -->
<g id="edge7" class="edge"><title>1_fwatchdog#ServerID_6df85d7674&#45;2kqrj&#45;&gt;10.1.80.247:8080#ServerID_OuterContainerID</title>
<path fill="none" stroke="black" d="M926.471,-492.886C882.863,-481.926 823.823,-468.26 771,-460 730.45,-453.659 719.775,-456.682 679,-452 595.337,-442.394 500.37,-428.554 432.794,-418.201"/>
<polygon fill="black" stroke="black" points="433.025,-414.695 422.609,-416.635 431.961,-421.614 433.025,-414.695"/>
<text text-anchor="middle" x="871" y="-463.8" font-family="Times,serif" font-size="14.00">POST</text>
</g>
<!-- gateway:8080#ServerID_OuterContainerID&#45;&gt;1_fwatchdog#ServerID_6df85d7674&#45;2kqrj -->
<g id="edge8" class="edge"><title>gateway:8080#ServerID_OuterContainerID&#45;&gt;1_fwatchdog#ServerID_6df85d7674&#45;2kqrj</title>
<path fill="none" stroke="black" d="M996.681,-420.944C1000.05,-435.339 1003.59,-456.543 1001,-475 1000.64,-477.574 1000.14,-480.224 999.547,-482.859"/>
<polygon fill="black" stroke="black" points="996.102,-482.198 996.955,-492.759 1002.87,-483.971 996.102,-482.198"/>
<text text-anchor="middle" x="1044" y="-463.8" font-family="Times,serif" font-size="14.00">RESPONSE</text>
</g>
<!-- 10.1.80.247:50734#ServerID_OuterContainerID&#45;&gt;1_fwatchdog#ServerID_6df85d7674&#45;2kqrj -->
<g id="edge2" class="edge"><title>10.1.80.247:50734#ServerID_OuterContainerID&#45;&gt;1_fwatchdog#ServerID_6df85d7674&#45;2kqrj</title>
<path fill="none" stroke="black" d="M2260.08,-416.822C2190.3,-427.72 2085.63,-442.991 1994,-452 1702.31,-480.678 1361.4,-496.698 1161.56,-504.32"/>
<polygon fill="black" stroke="black" points="1161.42,-500.823 1151.56,-504.699 1161.69,-507.818 1161.42,-500.823"/>
<text text-anchor="middle" x="1906" y="-463.8" font-family="Times,serif" font-size="14.00">POST</text>
</g>
<!-- 1_fwatchdog#ServerID_34e86192c217 -->
<g id="node7" class="node"><title>1_fwatchdog#ServerID_34e86192c217</title>
<polygon fill="none" stroke="black" points="4279.5,-724 3980.5,-724 3980.5,-688 4279.5,-688 4279.5,-724"/>
<text text-anchor="middle" x="4130" y="-702.3" font-family="Times,serif" font-size="14.00">1_fwatchdog#ServerID_34e86192c217</text>
</g>
<!-- 10.1.80.247:50734#ServerID_OuterContainerID&#45;&gt;1_fwatchdog#ServerID_34e86192c217 -->
<g id="edge10" class="edge"><title>10.1.80.247:50734#ServerID_OuterContainerID&#45;&gt;1_fwatchdog#ServerID_34e86192c217</title>
<path fill="none" stroke="black" d="M2412.73,-417.089C2482.39,-428.78 2589.92,-445.094 2684,-452 2897.43,-467.667 3433.48,-445.638 3647,-460 3895.75,-476.731 4595.16,-413.961 4760,-601 4770.58,-613.004 4770.69,-625.095 4760,-637 4729.04,-671.478 4465.96,-690.027 4289.7,-698.68"/>
<polygon fill="black" stroke="black" points="4289.35,-695.193 4279.54,-699.173 4289.69,-702.185 4289.35,-695.193"/>
<text text-anchor="middle" x="4754.5" y="-571.8" font-family="Times,serif" font-size="14.00">read</text>
</g>
<!-- 10.1.80.247:52696#ServerID_OuterContainerID -->
<g id="node4" class="node"><title>10.1.80.247:52696#ServerID_OuterContainerID</title>
<polygon fill="none" stroke="black" points="1650,-421 1314.52,-403 1650,-385 1985.48,-403 1650,-421"/>
<text text-anchor="middle" x="1650" y="-399.3" font-family="Times,serif" font-size="14.00">10.1.80.247:52696#ServerID_OuterContainerID</text>
</g>
<!-- 1_fwatchdog#ServerID_5f846fd567&#45;w7nbt -->
<g id="node5" class="node"><title>1_fwatchdog#ServerID_5f846fd567&#45;w7nbt</title>
<polygon fill="none" stroke="black" points="3695,-313 3371,-313 3371,-277 3695,-277 3695,-313"/>
<text text-anchor="middle" x="3533" y="-291.3" font-family="Times,serif" font-size="14.00">1_fwatchdog#ServerID_5f846fd567&#45;w7nbt</text>
</g>
<!-- 10.1.80.247:52696#ServerID_OuterContainerID&#45;&gt;1_fwatchdog#ServerID_5f846fd567&#45;w7nbt -->
<g id="edge3" class="edge"><title>10.1.80.247:52696#ServerID_OuterContainerID&#45;&gt;1_fwatchdog#ServerID_5f846fd567&#45;w7nbt</title>
<path fill="none" stroke="black" d="M1774.48,-391.649C1840.04,-386.533 1921.83,-380.683 1995,-377 2387.99,-357.22 2486.61,-360.841 2880,-352 2933.22,-350.804 3306.31,-351.582 3359,-344 3398.24,-338.353 3441.19,-326.564 3474.6,-316.084"/>
<polygon fill="black" stroke="black" points="3475.74,-319.395 3484.2,-313.026 3473.61,-312.726 3475.74,-319.395"/>
<text text-anchor="middle" x="2900" y="-355.8" font-family="Times,serif" font-size="14.00">POST</text>
</g>
<!-- 1_fwatchdog#ServerID_e56b6537e2d5 -->
<g id="node14" class="node"><title>1_fwatchdog#ServerID_e56b6537e2d5</title>
<polygon fill="none" stroke="black" points="4155.5,-313 3856.5,-313 3856.5,-277 4155.5,-277 4155.5,-313"/>
<text text-anchor="middle" x="4006" y="-291.3" font-family="Times,serif" font-size="14.00">1_fwatchdog#ServerID_e56b6537e2d5</text>
</g>
<!-- 10.1.80.247:52696#ServerID_OuterContainerID&#45;&gt;1_fwatchdog#ServerID_e56b6537e2d5 -->
<g id="edge18" class="edge"><title>10.1.80.247:52696#ServerID_OuterContainerID&#45;&gt;1_fwatchdog#ServerID_e56b6537e2d5</title>
<path fill="none" stroke="black" d="M1769.64,-391.408C1835.98,-386.018 1919.99,-379.988 1995,-377 2604.31,-352.729 2757.63,-389.811 3367,-367 3518.35,-361.334 3556.52,-361.132 3707,-344 3772.79,-336.51 3846.21,-324.773 3903.83,-314.78"/>
<polygon fill="black" stroke="black" points="3904.78,-318.167 3914.03,-313 3903.58,-311.271 3904.78,-318.167"/>
<text text-anchor="middle" x="3645.5" y="-355.8" font-family="Times,serif" font-size="14.00">read</text>
</g>
<!-- 1_fwatchdog#ServerID_5f846fd567&#45;w7nbt&#45;&gt;10.1.80.247:52696#ServerID_OuterContainerID -->
<g id="edge5" class="edge"><title>1_fwatchdog#ServerID_5f846fd567&#45;w7nbt&#45;&gt;10.1.80.247:52696#ServerID_OuterContainerID</title>
<path fill="none" stroke="black" d="M3482.63,-313.018C3448.23,-323.865 3401.38,-337.128 3359,-344 3059.71,-392.531 2297.94,-364.398 1995,-377 1924.09,-379.95 1845.13,-385.504 1780.66,-390.629"/>
<polygon fill="black" stroke="black" points="1780.13,-387.16 1770.44,-391.447 1780.69,-394.138 1780.13,-387.16"/>
<text text-anchor="middle" x="3321" y="-355.8" font-family="Times,serif" font-size="14.00">RESPONSE</text>
</g>
<!-- 10.1.80.247:8080#ServerID_OuterContainerID&#45;&gt;1_fwatchdog#ServerID_6df85d7674&#45;2kqrj -->
<g id="edge4" class="edge"><title>10.1.80.247:8080#ServerID_OuterContainerID&#45;&gt;1_fwatchdog#ServerID_6df85d7674&#45;2kqrj</title>
<path fill="none" stroke="black" d="M401.751,-417.788C470.001,-433.417 586.147,-458.819 687,-475 730.068,-481.91 776.781,-487.988 820.37,-493.056"/>
<polygon fill="black" stroke="black" points="820.161,-496.555 830.496,-494.222 820.962,-489.601 820.161,-496.555"/>
<text text-anchor="middle" x="729" y="-463.8" font-family="Times,serif" font-size="14.00">RESPONSE</text>
</g>
<!-- 10.1.80.1:61096#ServerID_OuterContainerID -->
<g id="node19" class="node"><title>10.1.80.1:61096#ServerID_OuterContainerID</title>
<polygon fill="none" stroke="black" points="335,-313 16.1049,-295 335,-277 653.895,-295 335,-313"/>
<text text-anchor="middle" x="335" y="-291.3" font-family="Times,serif" font-size="14.00">10.1.80.1:61096#ServerID_OuterContainerID</text>
</g>
<!-- 10.1.80.247:8080#ServerID_OuterContainerID&#45;&gt;10.1.80.1:61096#ServerID_OuterContainerID -->
<g id="edge25" class="edge"><title>10.1.80.247:8080#ServerID_OuterContainerID&#45;&gt;10.1.80.1:61096#ServerID_OuterContainerID</title>
<path fill="none" stroke="black" d="M303.089,-387.103C294.688,-382.04 286.895,-375.453 282,-367 271.93,-349.613 285.936,-331.484 302.069,-317.897"/>
<polygon fill="black" stroke="black" points="304.364,-320.546 310.064,-311.615 300.039,-315.041 304.364,-320.546"/>
<text text-anchor="middle" x="324" y="-355.8" font-family="Times,serif" font-size="14.00">RESPONSE</text>
</g>
<!-- 10.0.88.125:31112#ServerID_OuterContainerID -->
<g id="node20" class="node"><title>10.0.88.125:31112#ServerID_OuterContainerID</title>
<polygon fill="none" stroke="black" points="1007,-313 671.515,-295 1007,-277 1342.48,-295 1007,-313"/>
<text text-anchor="middle" x="1007" y="-291.3" font-family="Times,serif" font-size="14.00">10.0.88.125:31112#ServerID_OuterContainerID</text>
</g>
<!-- 10.1.80.247:8080#ServerID_OuterContainerID&#45;&gt;10.0.88.125:31112#ServerID_OuterContainerID -->
<g id="edge26" class="edge"><title>10.1.80.247:8080#ServerID_OuterContainerID&#45;&gt;10.0.88.125:31112#ServerID_OuterContainerID</title>
<path fill="none" stroke="black" d="M422.434,-389.319C546.818,-369.463 786.788,-331.154 917.247,-310.328"/>
<polygon fill="black" stroke="black" points="917.893,-313.769 927.216,-308.737 916.789,-306.857 917.893,-313.769"/>
<text text-anchor="middle" x="698" y="-355.8" font-family="Times,serif" font-size="14.00">RESPONSE</text>
</g>
<!-- localhost:3000#ServerID_34e86192c217 -->
<g id="node8" class="node"><title>localhost:3000#ServerID_34e86192c217</title>
<polygon fill="none" stroke="black" points="3658,-637 3371.45,-619 3658,-601 3944.55,-619 3658,-637"/>
<text text-anchor="middle" x="3658" y="-615.3" font-family="Times,serif" font-size="14.00">localhost:3000#ServerID_34e86192c217</text>
</g>
<!-- 1_fwatchdog#ServerID_34e86192c217&#45;&gt;localhost:3000#ServerID_34e86192c217 -->
<g id="edge9" class="edge"><title>1_fwatchdog#ServerID_34e86192c217&#45;&gt;localhost:3000#ServerID_34e86192c217</title>
<path fill="none" stroke="black" d="M4035.33,-687.952C3948.27,-672.274 3820.59,-649.28 3738.37,-634.474"/>
<polygon fill="black" stroke="black" points="3738.79,-630.993 3728.33,-632.665 3737.55,-637.882 3738.79,-630.993"/>
<text text-anchor="middle" x="3941" y="-658.8" font-family="Times,serif" font-size="14.00">write</text>
</g>
<!-- 10_node#ServerID_34e86192c217 -->
<g id="node9" class="node"><title>10_node#ServerID_34e86192c217</title>
<polygon fill="none" stroke="black" points="3738.5,-529 3471.5,-529 3471.5,-493 3738.5,-493 3738.5,-529"/>
<text text-anchor="middle" x="3605" y="-507.3" font-family="Times,serif" font-size="14.00">10_node#ServerID_34e86192c217</text>
</g>
<!-- localhost:3000#ServerID_34e86192c217&#45;&gt;10_node#ServerID_34e86192c217 -->
<g id="edge11" class="edge"><title>localhost:3000#ServerID_34e86192c217&#45;&gt;10_node#ServerID_34e86192c217</title>
<path fill="none" stroke="black" d="M3649.72,-601.438C3641.26,-584.524 3628.01,-558.016 3618.12,-538.243"/>
<polygon fill="black" stroke="black" points="3621.18,-536.528 3613.57,-529.149 3614.92,-539.658 3621.18,-536.528"/>
<text text-anchor="middle" x="3656.5" y="-571.8" font-family="Times,serif" font-size="14.00">read</text>
</g>
<!-- 10_node#ServerID_34e86192c217&#45;&gt;gateway:8080#ServerID_OuterContainerID -->
<g id="edge17" class="edge"><title>10_node#ServerID_34e86192c217&#45;&gt;gateway:8080#ServerID_OuterContainerID</title>
<path fill="none" stroke="black" d="M3471.49,-505.243C3187.75,-495.302 2503.73,-472.24 1930,-460 1791.35,-457.042 1444.21,-463.394 1306,-452 1224.75,-445.301 1132.62,-430.331 1069.28,-418.877"/>
<polygon fill="black" stroke="black" points="1069.83,-415.42 1059.36,-417.071 1068.57,-422.307 1069.83,-415.42"/>
<text text-anchor="middle" x="2512" y="-463.8" font-family="Times,serif" font-size="14.00">connect</text>
</g>
<!-- pipe:[331683264]#ServerID_34e86192c217 -->
<g id="node10" class="node"><title>pipe:[331683264]#ServerID_34e86192c217</title>
<ellipse fill="none" stroke="black" cx="3605" cy="-403" rx="217.162" ry="18"/>
<text text-anchor="middle" x="3605" y="-399.3" font-family="Times,serif" font-size="14.00">pipe:[331683264]#ServerID_34e86192c217</text>
</g>
<!-- 10_node#ServerID_34e86192c217&#45;&gt;pipe:[331683264]#ServerID_34e86192c217 -->
<g id="edge12" class="edge"><title>10_node#ServerID_34e86192c217&#45;&gt;pipe:[331683264]#ServerID_34e86192c217</title>
<path fill="none" stroke="black" d="M3605,-492.969C3605,-476.378 3605,-450.883 3605,-431.431"/>
<polygon fill="black" stroke="black" points="3608.5,-431.341 3605,-421.341 3601.5,-431.341 3608.5,-431.341"/>
<text text-anchor="middle" x="3624" y="-463.8" font-family="Times,serif" font-size="14.00">write</text>
</g>
<!-- 10.152.183.10:53#ServerID_OuterContainerID -->
<g id="node13" class="node"><title>10.152.183.10:53#ServerID_OuterContainerID</title>
<polygon fill="none" stroke="black" points="3020,-421 2692.56,-403 3020,-385 3347.44,-403 3020,-421"/>
<text text-anchor="middle" x="3020" y="-399.3" font-family="Times,serif" font-size="14.00">10.152.183.10:53#ServerID_OuterContainerID</text>
</g>
<!-- 10_node#ServerID_34e86192c217&#45;&gt;10.152.183.10:53#ServerID_OuterContainerID -->
<g id="edge15" class="edge"><title>10_node#ServerID_34e86192c217&#45;&gt;10.152.183.10:53#ServerID_OuterContainerID</title>
<path fill="none" stroke="black" d="M3471.37,-494.757C3428.93,-489.291 3381.89,-482.579 3339,-475 3250.83,-459.419 3150.14,-436.068 3085.88,-420.447"/>
<polygon fill="black" stroke="black" points="3086.43,-416.978 3075.88,-418.008 3084.77,-423.779 3086.43,-416.978"/>
<text text-anchor="middle" x="3363.5" y="-463.8" font-family="Times,serif" font-size="14.00">sendto</text>
</g>
<!-- /etc/hosts#ServerID_34e86192c217 -->
<g id="node11" class="node"><title>/etc/hosts#ServerID_34e86192c217</title>
<ellipse fill="none" stroke="black" cx="4571" cy="-619" rx="180.068" ry="18"/>
<text text-anchor="middle" x="4571" y="-615.3" font-family="Times,serif" font-size="14.00">/etc/hosts#ServerID_34e86192c217</text>
</g>
<!-- /etc/hosts#ServerID_34e86192c217&#45;&gt;10_node#ServerID_34e86192c217 -->
<g id="edge13" class="edge"><title>/etc/hosts#ServerID_34e86192c217&#45;&gt;10_node#ServerID_34e86192c217</title>
<path fill="none" stroke="black" d="M4454.48,-605.214C4277.37,-585.78 3940.79,-548.846 3748.74,-527.773"/>
<polygon fill="black" stroke="black" points="3748.9,-524.269 3738.58,-526.657 3748.13,-531.227 3748.9,-524.269"/>
<text text-anchor="middle" x="4246.5" y="-571.8" font-family="Times,serif" font-size="14.00">read</text>
</g>
<!-- /etc/resolv.conf#ServerID_34e86192c217 -->
<g id="node12" class="node"><title>/etc/resolv.conf#ServerID_34e86192c217</title>
<ellipse fill="none" stroke="black" cx="4168" cy="-619" rx="205.264" ry="18"/>
<text text-anchor="middle" x="4168" y="-615.3" font-family="Times,serif" font-size="14.00">/etc/resolv.conf#ServerID_34e86192c217</text>
</g>
<!-- /etc/resolv.conf#ServerID_34e86192c217&#45;&gt;10_node#ServerID_34e86192c217 -->
<g id="edge14" class="edge"><title>/etc/resolv.conf#ServerID_34e86192c217&#45;&gt;10_node#ServerID_34e86192c217</title>
<path fill="none" stroke="black" d="M4085.53,-602.473C3984.68,-583.486 3814.05,-551.36 3705.59,-530.939"/>
<polygon fill="black" stroke="black" points="3706.1,-527.473 3695.62,-529.062 3704.8,-534.352 3706.1,-527.473"/>
<text text-anchor="middle" x="3985.5" y="-571.8" font-family="Times,serif" font-size="14.00">read</text>
</g>
<!-- 10.152.183.10:53#ServerID_OuterContainerID&#45;&gt;10_node#ServerID_34e86192c217 -->
<g id="edge16" class="edge"><title>10.152.183.10:53#ServerID_OuterContainerID&#45;&gt;10_node#ServerID_34e86192c217</title>
<path fill="none" stroke="black" d="M3111.82,-416.013C3186.47,-426.25 3294.37,-442.116 3388,-460 3434.31,-468.845 3485.74,-480.609 3526.9,-490.504"/>
<polygon fill="black" stroke="black" points="3526.32,-493.965 3536.87,-492.911 3527.97,-487.161 3526.32,-493.965"/>
<text text-anchor="middle" x="3493" y="-463.8" font-family="Times,serif" font-size="14.00">recvfrom</text>
</g>
<!-- localhost:3000#ServerID_e56b6537e2d5 -->
<g id="node15" class="node"><title>localhost:3000#ServerID_e56b6537e2d5</title>
<polygon fill="none" stroke="black" points="4006,-226 3719.45,-208 4006,-190 4292.55,-208 4006,-226"/>
<text text-anchor="middle" x="4006" y="-204.3" font-family="Times,serif" font-size="14.00">localhost:3000#ServerID_e56b6537e2d5</text>
</g>
<!-- 1_fwatchdog#ServerID_e56b6537e2d5&#45;&gt;localhost:3000#ServerID_e56b6537e2d5 -->
<g id="edge20" class="edge"><title>1_fwatchdog#ServerID_e56b6537e2d5&#45;&gt;localhost:3000#ServerID_e56b6537e2d5</title>
<path fill="none" stroke="black" d="M3986.42,-276.764C3978.33,-267.482 3971.72,-255.583 3976,-244 3977.4,-240.224 3979.4,-236.58 3981.73,-233.162"/>
<polygon fill="black" stroke="black" points="3984.56,-235.214 3987.98,-225.186 3979.06,-230.893 3984.56,-235.214"/>
<text text-anchor="middle" x="3995" y="-247.8" font-family="Times,serif" font-size="14.00">write</text>
</g>
<!-- pipe:[331682317]#ServerID_e56b6537e2d5 -->
<g id="node18" class="node"><title>pipe:[331682317]#ServerID_e56b6537e2d5</title>
<ellipse fill="none" stroke="black" cx="4528" cy="-208" rx="217.162" ry="18"/>
<text text-anchor="middle" x="4528" y="-204.3" font-family="Times,serif" font-size="14.00">pipe:[331682317]#ServerID_e56b6537e2d5</text>
</g>
<!-- 1_fwatchdog#ServerID_e56b6537e2d5&#45;&gt;pipe:[331682317]#ServerID_e56b6537e2d5 -->
<g id="edge23" class="edge"><title>1_fwatchdog#ServerID_e56b6537e2d5&#45;&gt;pipe:[331682317]#ServerID_e56b6537e2d5</title>
<path fill="none" stroke="black" d="M4110.69,-276.952C4201.77,-262.121 4333.06,-240.743 4423.95,-225.943"/>
<polygon fill="black" stroke="black" points="4424.69,-229.368 4434,-224.307 4423.57,-222.459 4424.69,-229.368"/>
<text text-anchor="middle" x="4317" y="-247.8" font-family="Times,serif" font-size="14.00">write</text>
</g>
<!-- localhost:3000#ServerID_e56b6537e2d5&#45;&gt;1_fwatchdog#ServerID_e56b6537e2d5 -->
<g id="edge21" class="edge"><title>localhost:3000#ServerID_e56b6537e2d5&#45;&gt;1_fwatchdog#ServerID_e56b6537e2d5</title>
<path fill="none" stroke="black" d="M4011.05,-226.071C4013.32,-235.709 4015.24,-247.993 4014,-259 4013.71,-261.547 4013.31,-264.179 4012.84,-266.803"/>
<polygon fill="black" stroke="black" points="4009.39,-266.18 4010.77,-276.686 4016.25,-267.617 4009.39,-266.18"/>
<text text-anchor="middle" x="4030.5" y="-247.8" font-family="Times,serif" font-size="14.00">read</text>
</g>
<!-- 12_node#ServerID_e56b6537e2d5 -->
<g id="node16" class="node"><title>12_node#ServerID_e56b6537e2d5</title>
<polygon fill="none" stroke="black" points="4139.5,-139 3872.5,-139 3872.5,-103 4139.5,-103 4139.5,-139"/>
<text text-anchor="middle" x="4006" y="-117.3" font-family="Times,serif" font-size="14.00">12_node#ServerID_e56b6537e2d5</text>
</g>
<!-- localhost:3000#ServerID_e56b6537e2d5&#45;&gt;12_node#ServerID_e56b6537e2d5 -->
<g id="edge19" class="edge"><title>localhost:3000#ServerID_e56b6537e2d5&#45;&gt;12_node#ServerID_e56b6537e2d5</title>
<path fill="none" stroke="black" d="M4006,-189.799C4006,-178.163 4006,-162.548 4006,-149.237"/>
<polygon fill="black" stroke="black" points="4009.5,-149.175 4006,-139.175 4002.5,-149.175 4009.5,-149.175"/>
<text text-anchor="middle" x="4022.5" y="-160.8" font-family="Times,serif" font-size="14.00">read</text>
</g>
<!-- pipe:[331682415]#ServerID_e56b6537e2d5 -->
<g id="node17" class="node"><title>pipe:[331682415]#ServerID_e56b6537e2d5</title>
<ellipse fill="none" stroke="black" cx="4006" cy="-34" rx="217.162" ry="18"/>
<text text-anchor="middle" x="4006" y="-30.3" font-family="Times,serif" font-size="14.00">pipe:[331682415]#ServerID_e56b6537e2d5</text>
</g>
<!-- 12_node#ServerID_e56b6537e2d5&#45;&gt;pipe:[331682415]#ServerID_e56b6537e2d5 -->
<g id="edge22" class="edge"><title>12_node#ServerID_e56b6537e2d5&#45;&gt;pipe:[331682415]#ServerID_e56b6537e2d5</title>
<path fill="none" stroke="black" d="M4006,-102.799C4006,-91.1626 4006,-75.5479 4006,-62.2368"/>
<polygon fill="black" stroke="black" points="4009.5,-62.1754 4006,-52.1754 4002.5,-62.1755 4009.5,-62.1754"/>
<text text-anchor="middle" x="4025" y="-73.8" font-family="Times,serif" font-size="14.00">write</text>
</g>
<!-- 10.1.80.1:61096#ServerID_OuterContainerID&#45;&gt;10.1.80.247:8080#ServerID_OuterContainerID -->
<g id="edge24" class="edge"><title>10.1.80.1:61096#ServerID_OuterContainerID&#45;&gt;10.1.80.247:8080#ServerID_OuterContainerID</title>
<path fill="none" stroke="black" d="M348.743,-312.449C356.653,-323.019 365.828,-337.453 370,-352 371.838,-358.408 372.151,-360.69 370,-367 368.79,-370.55 367.057,-374.021 365.047,-377.312"/>
<polygon fill="black" stroke="black" points="362.147,-375.351 359.24,-385.54 367.866,-379.387 362.147,-375.351"/>
<text text-anchor="middle" x="392" y="-355.8" font-family="Times,serif" font-size="14.00">POST</text>
</g>
</g>
</svg>
