<?xml version="1.0" encoding="UTF-8" standalone="no"?>
<!DOCTYPE svg PUBLIC "-//W3C//DTD SVG 1.1//EN"
 "http://www.w3.org/Graphics/SVG/1.1/DTD/svg11.dtd">
<!-- Generated by graphviz version 2.38.0 (20140413.2041)
 -->
<!-- Title: G Pages: 1 -->
<svg width="5824pt" height="576pt"
 viewBox="0.00 0.00 5824.00 576.00" xmlns="http://www.w3.org/2000/svg" xmlns:xlink="http://www.w3.org/1999/xlink">
<g id="graph0" class="graph" transform="scale(1 1) rotate(0) translate(4 572)">
<title>G</title>
<polygon fill="white" stroke="none" points="-4,4 -4,-572 5820,-572 5820,4 -4,4"/>
<g id="clust1" class="cluster"><title>clusterServerID_34e86192c217</title>
<polygon fill="none" stroke="black" points="8,-182 8,-560 1404,-560 1404,-182 8,-182"/>
<text text-anchor="middle" x="706" y="-544.8" font-family="Times,serif" font-size="14.00">clusterServerID_34e86192c217</text>
</g>
<g id="clust2" class="cluster"><title>clusterServerID_5f846fd567&#45;w7nbt</title>
<polygon fill="none" stroke="black" points="4244,-485 4244,-560 4584,-560 4584,-485 4244,-485"/>
<text text-anchor="middle" x="4414" y="-544.8" font-family="Times,serif" font-size="14.00">clusterServerID_5f846fd567&#45;w7nbt</text>
</g>
<g id="clust3" class="cluster"><title>clusterServerID_6df85d7674&#45;2kqrj</title>
<polygon fill="none" stroke="black" points="2244,-485 2244,-560 2582,-560 2582,-485 2244,-485"/>
<text text-anchor="middle" x="2413" y="-544.8" font-family="Times,serif" font-size="14.00">clusterServerID_6df85d7674&#45;2kqrj</text>
</g>
<g id="clust4" class="cluster"><title>clusterServerID_OuterContainerID</title>
<polygon fill="none" stroke="black" points="1412,-269 1412,-452 4758,-452 4758,-269 1412,-269"/>
<text text-anchor="middle" x="3085" y="-436.8" font-family="Times,serif" font-size="14.00">clusterServerID_OuterContainerID</text>
</g>
<g id="clust5" class="cluster"><title>clusterServerID_e56b6537e2d5</title>
<polygon fill="none" stroke="black" points="4766,-8 4766,-344 5808,-344 5808,-8 4766,-8"/>
<text text-anchor="middle" x="5287" y="-328.8" font-family="Times,serif" font-size="14.00">clusterServerID_e56b6537e2d5</text>
</g>
<!-- 10.1.80.247:50734#ServerID_OuterContainerID -->
<g id="node1" class="node"><title>10.1.80.247:50734#ServerID_OuterContainerID</title>
<polygon fill="none" stroke="black" points="1755,-421 1419.52,-403 1755,-385 2090.48,-403 1755,-421"/>
<text text-anchor="middle" x="1755" y="-399.3" font-family="Times,serif" font-size="14.00">10.1.80.247:50734#ServerID_OuterContainerID</text>
</g>
<!-- 1_fwatchdog#ServerID_6df85d7674&#45;2kqrj -->
<g id="node2" class="node"><title>1_fwatchdog#ServerID_6df85d7674&#45;2kqrj</title>
<polygon fill="none" stroke="black" points="2573.5,-529 2252.5,-529 2252.5,-493 2573.5,-493 2573.5,-529"/>
<text text-anchor="middle" x="2413" y="-507.3" font-family="Times,serif" font-size="14.00">1_fwatchdog#ServerID_6df85d7674&#45;2kqrj</text>
</g>
<!-- 10.1.80.247:50734#ServerID_OuterContainerID&#45;&gt;1_fwatchdog#ServerID_6df85d7674&#45;2kqrj -->
<g id="edge1" class="edge"><title>10.1.80.247:50734#ServerID_OuterContainerID&#45;&gt;1_fwatchdog#ServerID_6df85d7674&#45;2kqrj</title>
<path fill="none" stroke="black" d="M1787.79,-419.346C1825.36,-436.156 1889.18,-462.4 1947,-475 2043.36,-496.001 2153.29,-504.95 2242.17,-508.556"/>
<polygon fill="black" stroke="black" points="2242.22,-512.061 2252.35,-508.95 2242.49,-505.066 2242.22,-512.061"/>
<text text-anchor="middle" x="1967" y="-463.8" font-family="Times,serif" font-size="14.00">POST</text>
</g>
<!-- 1_fwatchdog#ServerID_34e86192c217 -->
<g id="node7" class="node"><title>1_fwatchdog#ServerID_34e86192c217</title>
<polygon fill="none" stroke="black" points="1351.5,-529 1052.5,-529 1052.5,-493 1351.5,-493 1351.5,-529"/>
<text text-anchor="middle" x="1202" y="-507.3" font-family="Times,serif" font-size="14.00">1_fwatchdog#ServerID_34e86192c217</text>
</g>
<!-- 10.1.80.247:50734#ServerID_OuterContainerID&#45;&gt;1_fwatchdog#ServerID_34e86192c217 -->
<g id="edge10" class="edge"><title>10.1.80.247:50734#ServerID_OuterContainerID&#45;&gt;1_fwatchdog#ServerID_34e86192c217</title>
<path fill="none" stroke="black" d="M1685.63,-417.298C1588.51,-435.913 1411.52,-469.839 1300.7,-491.081"/>
<polygon fill="black" stroke="black" points="1300.01,-487.649 1290.85,-492.969 1301.33,-494.524 1300.01,-487.649"/>
<text text-anchor="middle" x="1478.5" y="-463.8" font-family="Times,serif" font-size="14.00">read</text>
</g>
<!-- 1_fwatchdog#ServerID_6df85d7674&#45;2kqrj&#45;&gt;10.1.80.247:50734#ServerID_OuterContainerID -->
<g id="edge5" class="edge"><title>1_fwatchdog#ServerID_6df85d7674&#45;2kqrj&#45;&gt;10.1.80.247:50734#ServerID_OuterContainerID</title>
<path fill="none" stroke="black" d="M2307.28,-492.969C2179.01,-472.306 1965.02,-437.833 1844.53,-418.422"/>
<polygon fill="black" stroke="black" points="1845.02,-414.957 1834.59,-416.822 1843.91,-421.867 1845.02,-414.957"/>
<text text-anchor="middle" x="2224" y="-463.8" font-family="Times,serif" font-size="14.00">RESPONSE</text>
</g>
<!-- gateway:8080#ServerID_OuterContainerID -->
<g id="node5" class="node"><title>gateway:8080#ServerID_OuterContainerID</title>
<polygon fill="none" stroke="black" points="2413,-421 2108.52,-403 2413,-385 2717.48,-403 2413,-421"/>
<text text-anchor="middle" x="2413" y="-399.3" font-family="Times,serif" font-size="14.00">gateway:8080#ServerID_OuterContainerID</text>
</g>
<!-- 1_fwatchdog#ServerID_6df85d7674&#45;2kqrj&#45;&gt;gateway:8080#ServerID_OuterContainerID -->
<g id="edge7" class="edge"><title>1_fwatchdog#ServerID_6df85d7674&#45;2kqrj&#45;&gt;gateway:8080#ServerID_OuterContainerID</title>
<path fill="none" stroke="black" d="M2433.2,-492.928C2437.99,-487.716 2442.44,-481.601 2445,-475 2447.41,-468.785 2446.71,-466.443 2445,-460 2442.15,-449.286 2436.72,-438.483 2431.13,-429.263"/>
<polygon fill="black" stroke="black" points="2433.93,-427.148 2425.58,-420.633 2428.05,-430.936 2433.93,-427.148"/>
<text text-anchor="middle" x="2467" y="-463.8" font-family="Times,serif" font-size="14.00">POST</text>
</g>
<!-- 10.1.80.247:8080#ServerID_OuterContainerID -->
<g id="node6" class="node"><title>10.1.80.247:8080#ServerID_OuterContainerID</title>
<polygon fill="none" stroke="black" points="3734,-421 3406.56,-403 3734,-385 4061.44,-403 3734,-421"/>
<text text-anchor="middle" x="3734" y="-399.3" font-family="Times,serif" font-size="14.00">10.1.80.247:8080#ServerID_OuterContainerID</text>
</g>
<!-- 1_fwatchdog#ServerID_6df85d7674&#45;2kqrj&#45;&gt;10.1.80.247:8080#ServerID_OuterContainerID -->
<g id="edge6" class="edge"><title>1_fwatchdog#ServerID_6df85d7674&#45;2kqrj&#45;&gt;10.1.80.247:8080#ServerID_OuterContainerID</title>
<path fill="none" stroke="black" d="M2573.7,-504.639C2768.96,-497.18 3108.25,-481.176 3398,-452 3482.9,-443.451 3579.27,-429.214 3646.96,-418.46"/>
<polygon fill="black" stroke="black" points="3647.83,-421.865 3657.15,-416.832 3646.73,-414.953 3647.83,-421.865"/>
<text text-anchor="middle" x="3312" y="-463.8" font-family="Times,serif" font-size="14.00">POST</text>
</g>
<!-- 1_fwatchdog#ServerID_5f846fd567&#45;w7nbt -->
<g id="node3" class="node"><title>1_fwatchdog#ServerID_5f846fd567&#45;w7nbt</title>
<polygon fill="none" stroke="black" points="4576,-529 4252,-529 4252,-493 4576,-493 4576,-529"/>
<text text-anchor="middle" x="4414" y="-507.3" font-family="Times,serif" font-size="14.00">1_fwatchdog#ServerID_5f846fd567&#45;w7nbt</text>
</g>
<!-- 10.1.80.247:52696#ServerID_OuterContainerID -->
<g id="node4" class="node"><title>10.1.80.247:52696#ServerID_OuterContainerID</title>
<polygon fill="none" stroke="black" points="4415,-421 4079.52,-403 4415,-385 4750.48,-403 4415,-421"/>
<text text-anchor="middle" x="4415" y="-399.3" font-family="Times,serif" font-size="14.00">10.1.80.247:52696#ServerID_OuterContainerID</text>
</g>
<!-- 1_fwatchdog#ServerID_5f846fd567&#45;w7nbt&#45;&gt;10.1.80.247:52696#ServerID_OuterContainerID -->
<g id="edge2" class="edge"><title>1_fwatchdog#ServerID_5f846fd567&#45;w7nbt&#45;&gt;10.1.80.247:52696#ServerID_OuterContainerID</title>
<path fill="none" stroke="black" d="M4378.26,-492.861C4371.73,-488.032 4365.78,-482.108 4362,-475 4358.87,-469.115 4359.53,-466.194 4362,-460 4367,-447.439 4376.31,-436.073 4385.74,-426.914"/>
<polygon fill="black" stroke="black" points="4388.22,-429.386 4393.25,-420.061 4383.51,-424.214 4388.22,-429.386"/>
<text text-anchor="middle" x="4404" y="-463.8" font-family="Times,serif" font-size="14.00">RESPONSE</text>
</g>
<!-- 10.1.80.247:52696#ServerID_OuterContainerID&#45;&gt;1_fwatchdog#ServerID_5f846fd567&#45;w7nbt -->
<g id="edge3" class="edge"><title>10.1.80.247:52696#ServerID_OuterContainerID&#45;&gt;1_fwatchdog#ServerID_5f846fd567&#45;w7nbt</title>
<path fill="none" stroke="black" d="M4430.08,-420.48C4441.24,-434.767 4453.35,-456.067 4446,-475 4444.64,-478.507 4442.74,-481.876 4440.55,-485.046"/>
<polygon fill="black" stroke="black" points="4437.75,-482.944 4434.2,-492.928 4443.2,-487.335 4437.75,-482.944"/>
<text text-anchor="middle" x="4469" y="-463.8" font-family="Times,serif" font-size="14.00">POST</text>
</g>
<!-- 1_fwatchdog#ServerID_e56b6537e2d5 -->
<g id="node14" class="node"><title>1_fwatchdog#ServerID_e56b6537e2d5</title>
<polygon fill="none" stroke="black" points="5323.5,-313 5024.5,-313 5024.5,-277 5323.5,-277 5323.5,-313"/>
<text text-anchor="middle" x="5174" y="-291.3" font-family="Times,serif" font-size="14.00">1_fwatchdog#ServerID_e56b6537e2d5</text>
</g>
<!-- 10.1.80.247:52696#ServerID_OuterContainerID&#45;&gt;1_fwatchdog#ServerID_e56b6537e2d5 -->
<g id="edge18" class="edge"><title>10.1.80.247:52696#ServerID_OuterContainerID&#45;&gt;1_fwatchdog#ServerID_e56b6537e2d5</title>
<path fill="none" stroke="black" d="M4503.18,-389.685C4635.82,-371.161 4887.56,-336.004 5042.1,-314.421"/>
<polygon fill="black" stroke="black" points="5042.71,-317.869 5052.13,-313.02 5041.74,-310.937 5042.71,-317.869"/>
<text text-anchor="middle" x="4788.5" y="-355.8" font-family="Times,serif" font-size="14.00">read</text>
</g>
<!-- gateway:8080#ServerID_OuterContainerID&#45;&gt;1_fwatchdog#ServerID_6df85d7674&#45;2kqrj -->
<g id="edge4" class="edge"><title>gateway:8080#ServerID_OuterContainerID&#45;&gt;1_fwatchdog#ServerID_6df85d7674&#45;2kqrj</title>
<path fill="none" stroke="black" d="M2391.92,-419.91C2380.41,-429.974 2367.26,-444.069 2361,-460 2358.56,-466.205 2357.87,-469.115 2361,-475 2363.19,-479.11 2366.1,-482.823 2369.42,-486.158"/>
<polygon fill="black" stroke="black" points="2367.39,-489.021 2377.26,-492.861 2371.94,-483.701 2367.39,-489.021"/>
<text text-anchor="middle" x="2403" y="-463.8" font-family="Times,serif" font-size="14.00">RESPONSE</text>
</g>
<!-- 10_node#ServerID_34e86192c217 -->
<g id="node9" class="node"><title>10_node#ServerID_34e86192c217</title>
<polygon fill="none" stroke="black" points="1374.5,-313 1107.5,-313 1107.5,-277 1374.5,-277 1374.5,-313"/>
<text text-anchor="middle" x="1241" y="-291.3" font-family="Times,serif" font-size="14.00">10_node#ServerID_34e86192c217</text>
</g>
<!-- gateway:8080#ServerID_OuterContainerID&#45;&gt;10_node#ServerID_34e86192c217 -->
<g id="edge24" class="edge"><title>gateway:8080#ServerID_OuterContainerID&#45;&gt;10_node#ServerID_34e86192c217</title>
<path fill="none" stroke="black" d="M2310.74,-391.031C2195.52,-379.162 2002.56,-360.763 1836,-352 1741,-347.002 1502.07,-358.148 1408,-344 1370.42,-338.348 1329.39,-326.636 1297.4,-316.197"/>
<polygon fill="black" stroke="black" points="1298.37,-312.831 1287.78,-313.006 1296.17,-319.475 1298.37,-312.831"/>
<text text-anchor="middle" x="2059.5" y="-355.8" font-family="Times,serif" font-size="14.00">read</text>
</g>
<!-- 10.1.80.247:8080#ServerID_OuterContainerID&#45;&gt;1_fwatchdog#ServerID_6df85d7674&#45;2kqrj -->
<g id="edge8" class="edge"><title>10.1.80.247:8080#ServerID_OuterContainerID&#45;&gt;1_fwatchdog#ServerID_6df85d7674&#45;2kqrj</title>
<path fill="none" stroke="black" d="M3660.87,-417.019C3593,-428.49 3489.03,-444.505 3398,-452 3239.83,-465.023 3199.5,-451.921 3041,-460 2885.99,-467.901 2709.87,-482.406 2583.66,-493.766"/>
<polygon fill="black" stroke="black" points="2583.17,-490.297 2573.52,-494.682 2583.79,-497.269 2583.17,-490.297"/>
<text text-anchor="middle" x="3083" y="-463.8" font-family="Times,serif" font-size="14.00">RESPONSE</text>
</g>
<!-- 10.1.80.1:2411#ServerID_OuterContainerID -->
<g id="node19" class="node"><title>10.1.80.1:2411#ServerID_OuterContainerID</title>
<polygon fill="none" stroke="black" points="3797,-313 3486.15,-295 3797,-277 4107.85,-295 3797,-313"/>
<text text-anchor="middle" x="3797" y="-291.3" font-family="Times,serif" font-size="14.00">10.1.80.1:2411#ServerID_OuterContainerID</text>
</g>
<!-- 10.1.80.247:8080#ServerID_OuterContainerID&#45;&gt;10.1.80.1:2411#ServerID_OuterContainerID -->
<g id="edge25" class="edge"><title>10.1.80.247:8080#ServerID_OuterContainerID&#45;&gt;10.1.80.1:2411#ServerID_OuterContainerID</title>
<path fill="none" stroke="black" d="M3757.09,-386.166C3763.64,-380.734 3770.26,-374.191 3775,-367 3783.71,-353.774 3789.12,-336.913 3792.4,-322.941"/>
<polygon fill="black" stroke="black" points="3795.87,-323.434 3794.51,-312.928 3789.02,-321.992 3795.87,-323.434"/>
<text text-anchor="middle" x="3825" y="-355.8" font-family="Times,serif" font-size="14.00">RESPONSE</text>
</g>
<!-- 10.0.88.125:31112#ServerID_OuterContainerID -->
<g id="node20" class="node"><title>10.0.88.125:31112#ServerID_OuterContainerID</title>
<polygon fill="none" stroke="black" points="3133,-313 2797.52,-295 3133,-277 3468.48,-295 3133,-313"/>
<text text-anchor="middle" x="3133" y="-291.3" font-family="Times,serif" font-size="14.00">10.0.88.125:31112#ServerID_OuterContainerID</text>
</g>
<!-- 10.1.80.247:8080#ServerID_OuterContainerID&#45;&gt;10.0.88.125:31112#ServerID_OuterContainerID -->
<g id="edge27" class="edge"><title>10.1.80.247:8080#ServerID_OuterContainerID&#45;&gt;10.0.88.125:31112#ServerID_OuterContainerID</title>
<path fill="none" stroke="black" d="M3660.31,-389.002C3548.22,-369.234 3335.5,-331.716 3217.38,-310.882"/>
<polygon fill="black" stroke="black" points="3217.75,-307.394 3207.3,-309.104 3216.54,-314.288 3217.75,-307.394"/>
<text text-anchor="middle" x="3565" y="-355.8" font-family="Times,serif" font-size="14.00">RESPONSE</text>
</g>
<!-- localhost:3000#ServerID_34e86192c217 -->
<g id="node8" class="node"><title>localhost:3000#ServerID_34e86192c217</title>
<polygon fill="none" stroke="black" points="1109,-421 822.446,-403 1109,-385 1395.55,-403 1109,-421"/>
<text text-anchor="middle" x="1109" y="-399.3" font-family="Times,serif" font-size="14.00">localhost:3000#ServerID_34e86192c217</text>
</g>
<!-- 1_fwatchdog#ServerID_34e86192c217&#45;&gt;localhost:3000#ServerID_34e86192c217 -->
<g id="edge9" class="edge"><title>1_fwatchdog#ServerID_34e86192c217&#45;&gt;localhost:3000#ServerID_34e86192c217</title>
<path fill="none" stroke="black" d="M1187.06,-492.969C1171.62,-475.378 1147.41,-447.777 1130.04,-427.983"/>
<polygon fill="black" stroke="black" points="1132.52,-425.501 1123.29,-420.292 1127.26,-430.117 1132.52,-425.501"/>
<text text-anchor="middle" x="1189" y="-463.8" font-family="Times,serif" font-size="14.00">write</text>
</g>
<!-- localhost:3000#ServerID_34e86192c217&#45;&gt;10_node#ServerID_34e86192c217 -->
<g id="edge11" class="edge"><title>localhost:3000#ServerID_34e86192c217&#45;&gt;10_node#ServerID_34e86192c217</title>
<path fill="none" stroke="black" d="M1128.76,-386.131C1150.73,-368.488 1186.44,-339.815 1211.67,-319.553"/>
<polygon fill="black" stroke="black" points="1214.18,-322.023 1219.79,-313.033 1209.8,-316.565 1214.18,-322.023"/>
<text text-anchor="middle" x="1188.5" y="-355.8" font-family="Times,serif" font-size="14.00">read</text>
</g>
<!-- 10_node#ServerID_34e86192c217&#45;&gt;gateway:8080#ServerID_OuterContainerID -->
<g id="edge19" class="edge"><title>10_node#ServerID_34e86192c217&#45;&gt;gateway:8080#ServerID_OuterContainerID</title>
<path fill="none" stroke="black" d="M1289.66,-313.092C1322.62,-323.896 1367.41,-337.084 1408,-344 1428.52,-347.495 1975.13,-377.912 2253.41,-393.244"/>
<polygon fill="black" stroke="black" points="2253.43,-396.75 2263.6,-393.805 2253.81,-389.76 2253.43,-396.75"/>
<text text-anchor="middle" x="1803" y="-355.8" font-family="Times,serif" font-size="14.00">connect</text>
</g>
<!-- pipe:[331683264]#ServerID_34e86192c217 -->
<g id="node10" class="node"><title>pipe:[331683264]#ServerID_34e86192c217</title>
<ellipse fill="none" stroke="black" cx="1179" cy="-208" rx="217.162" ry="18"/>
<text text-anchor="middle" x="1179" y="-204.3" font-family="Times,serif" font-size="14.00">pipe:[331683264]#ServerID_34e86192c217</text>
</g>
<!-- 10_node#ServerID_34e86192c217&#45;&gt;pipe:[331683264]#ServerID_34e86192c217 -->
<g id="edge12" class="edge"><title>10_node#ServerID_34e86192c217&#45;&gt;pipe:[331683264]#ServerID_34e86192c217</title>
<path fill="none" stroke="black" d="M1228.45,-276.799C1219.55,-264.587 1207.44,-247.992 1197.44,-234.278"/>
<polygon fill="black" stroke="black" points="1200.25,-232.192 1191.53,-226.175 1194.59,-236.317 1200.25,-232.192"/>
<text text-anchor="middle" x="1233" y="-247.8" font-family="Times,serif" font-size="14.00">write</text>
</g>
<!-- 10.152.183.10:53#ServerID_OuterContainerID -->
<g id="node13" class="node"><title>10.152.183.10:53#ServerID_OuterContainerID</title>
<polygon fill="none" stroke="black" points="3062,-421 2734.56,-403 3062,-385 3389.44,-403 3062,-421"/>
<text text-anchor="middle" x="3062" y="-399.3" font-family="Times,serif" font-size="14.00">10.152.183.10:53#ServerID_OuterContainerID</text>
</g>
<!-- 10_node#ServerID_34e86192c217&#45;&gt;10.152.183.10:53#ServerID_OuterContainerID -->
<g id="edge16" class="edge"><title>10_node#ServerID_34e86192c217&#45;&gt;10.152.183.10:53#ServerID_OuterContainerID</title>
<path fill="none" stroke="black" d="M1287.4,-313.033C1320.5,-324.266 1366.35,-337.978 1408,-344 1468.15,-352.698 2441.29,-349.073 2502,-352 2658.27,-359.535 2838.39,-377.236 2951.23,-389.418"/>
<polygon fill="black" stroke="black" points="2950.94,-392.908 2961.26,-390.506 2951.7,-385.948 2950.94,-392.908"/>
<text text-anchor="middle" x="2742.5" y="-355.8" font-family="Times,serif" font-size="14.00">sendto</text>
</g>
<!-- /etc/hosts#ServerID_34e86192c217 -->
<g id="node11" class="node"><title>/etc/hosts#ServerID_34e86192c217</title>
<ellipse fill="none" stroke="black" cx="624" cy="-403" rx="180.068" ry="18"/>
<text text-anchor="middle" x="624" y="-399.3" font-family="Times,serif" font-size="14.00">/etc/hosts#ServerID_34e86192c217</text>
</g>
<!-- /etc/hosts#ServerID_34e86192c217&#45;&gt;10_node#ServerID_34e86192c217 -->
<g id="edge13" class="edge"><title>/etc/hosts#ServerID_34e86192c217&#45;&gt;10_node#ServerID_34e86192c217</title>
<path fill="none" stroke="black" d="M710.441,-387.15C820.765,-368.196 1011.69,-335.395 1131.91,-314.741"/>
<polygon fill="black" stroke="black" points="1132.62,-318.171 1141.88,-313.028 1131.43,-311.272 1132.62,-318.171"/>
<text text-anchor="middle" x="930.5" y="-355.8" font-family="Times,serif" font-size="14.00">read</text>
</g>
<!-- /etc/resolv.conf#ServerID_34e86192c217 -->
<g id="node12" class="node"><title>/etc/resolv.conf#ServerID_34e86192c217</title>
<ellipse fill="none" stroke="black" cx="221" cy="-403" rx="205.264" ry="18"/>
<text text-anchor="middle" x="221" y="-399.3" font-family="Times,serif" font-size="14.00">/etc/resolv.conf#ServerID_34e86192c217</text>
</g>
<!-- /etc/resolv.conf#ServerID_34e86192c217&#45;&gt;10_node#ServerID_34e86192c217 -->
<g id="edge14" class="edge"><title>/etc/resolv.conf#ServerID_34e86192c217&#45;&gt;10_node#ServerID_34e86192c217</title>
<path fill="none" stroke="black" d="M347.864,-388.816C538.411,-369.014 897.414,-331.706 1097.35,-310.929"/>
<polygon fill="black" stroke="black" points="1097.75,-314.406 1107.34,-309.891 1097.03,-307.443 1097.75,-314.406"/>
<text text-anchor="middle" x="717.5" y="-355.8" font-family="Times,serif" font-size="14.00">read</text>
</g>
<!-- 10.152.183.10:53#ServerID_OuterContainerID&#45;&gt;10_node#ServerID_34e86192c217 -->
<g id="edge15" class="edge"><title>10.152.183.10:53#ServerID_OuterContainerID&#45;&gt;10_node#ServerID_34e86192c217</title>
<path fill="none" stroke="black" d="M2917.73,-392.891C2726.34,-381.213 2377.95,-361.355 2080,-352 2005.36,-349.657 1481.88,-354.855 1408,-344 1370.4,-338.476 1329.37,-326.766 1297.39,-316.295"/>
<polygon fill="black" stroke="black" points="1298.36,-312.93 1287.77,-313.094 1296.15,-319.572 1298.36,-312.93"/>
<text text-anchor="middle" x="2465" y="-355.8" font-family="Times,serif" font-size="14.00">recvfrom</text>
</g>
<!-- localhost:3000#ServerID_e56b6537e2d5 -->
<g id="node15" class="node"><title>localhost:3000#ServerID_e56b6537e2d5</title>
<polygon fill="none" stroke="black" points="5513,-226 5226.45,-208 5513,-190 5799.55,-208 5513,-226"/>
<text text-anchor="middle" x="5513" y="-204.3" font-family="Times,serif" font-size="14.00">localhost:3000#ServerID_e56b6537e2d5</text>
</g>
<!-- 1_fwatchdog#ServerID_e56b6537e2d5&#45;&gt;localhost:3000#ServerID_e56b6537e2d5 -->
<g id="edge17" class="edge"><title>1_fwatchdog#ServerID_e56b6537e2d5&#45;&gt;localhost:3000#ServerID_e56b6537e2d5</title>
<path fill="none" stroke="black" d="M5262.36,-276.958C5288.13,-271.619 5316.28,-265.43 5342,-259 5381.19,-249.204 5424.9,-236.389 5458.32,-226.185"/>
<polygon fill="black" stroke="black" points="5459.37,-229.525 5467.9,-223.246 5457.32,-222.833 5459.37,-229.525"/>
<text text-anchor="middle" x="5413" y="-247.8" font-family="Times,serif" font-size="14.00">write</text>
</g>
<!-- pipe:[331682317]#ServerID_e56b6537e2d5 -->
<g id="node18" class="node"><title>pipe:[331682317]#ServerID_e56b6537e2d5</title>
<ellipse fill="none" stroke="black" cx="4991" cy="-208" rx="217.162" ry="18"/>
<text text-anchor="middle" x="4991" y="-204.3" font-family="Times,serif" font-size="14.00">pipe:[331682317]#ServerID_e56b6537e2d5</text>
</g>
<!-- 1_fwatchdog#ServerID_e56b6537e2d5&#45;&gt;pipe:[331682317]#ServerID_e56b6537e2d5 -->
<g id="edge23" class="edge"><title>1_fwatchdog#ServerID_e56b6537e2d5&#45;&gt;pipe:[331682317]#ServerID_e56b6537e2d5</title>
<path fill="none" stroke="black" d="M5136.97,-276.799C5108,-263.346 5067.6,-244.577 5036.64,-230.197"/>
<polygon fill="black" stroke="black" points="5037.9,-226.924 5027.35,-225.885 5034.95,-233.272 5037.9,-226.924"/>
<text text-anchor="middle" x="5112" y="-247.8" font-family="Times,serif" font-size="14.00">write</text>
</g>
<!-- localhost:3000#ServerID_e56b6537e2d5&#45;&gt;1_fwatchdog#ServerID_e56b6537e2d5 -->
<g id="edge22" class="edge"><title>localhost:3000#ServerID_e56b6537e2d5&#45;&gt;1_fwatchdog#ServerID_e56b6537e2d5</title>
<path fill="none" stroke="black" d="M5422.06,-220.313C5385.35,-225.911 5342.81,-233.713 5305,-244 5276.9,-251.645 5246.46,-263.063 5222,-273.058"/>
<polygon fill="black" stroke="black" points="5220.5,-269.893 5212.59,-276.951 5223.17,-276.36 5220.5,-269.893"/>
<text text-anchor="middle" x="5321.5" y="-247.8" font-family="Times,serif" font-size="14.00">read</text>
</g>
<!-- 12_node#ServerID_e56b6537e2d5 -->
<g id="node16" class="node"><title>12_node#ServerID_e56b6537e2d5</title>
<polygon fill="none" stroke="black" points="5646.5,-139 5379.5,-139 5379.5,-103 5646.5,-103 5646.5,-139"/>
<text text-anchor="middle" x="5513" y="-117.3" font-family="Times,serif" font-size="14.00">12_node#ServerID_e56b6537e2d5</text>
</g>
<!-- localhost:3000#ServerID_e56b6537e2d5&#45;&gt;12_node#ServerID_e56b6537e2d5 -->
<g id="edge20" class="edge"><title>localhost:3000#ServerID_e56b6537e2d5&#45;&gt;12_node#ServerID_e56b6537e2d5</title>
<path fill="none" stroke="black" d="M5513,-189.799C5513,-178.163 5513,-162.548 5513,-149.237"/>
<polygon fill="black" stroke="black" points="5516.5,-149.175 5513,-139.175 5509.5,-149.175 5516.5,-149.175"/>
<text text-anchor="middle" x="5529.5" y="-160.8" font-family="Times,serif" font-size="14.00">read</text>
</g>
<!-- pipe:[331682415]#ServerID_e56b6537e2d5 -->
<g id="node17" class="node"><title>pipe:[331682415]#ServerID_e56b6537e2d5</title>
<ellipse fill="none" stroke="black" cx="5513" cy="-34" rx="217.162" ry="18"/>
<text text-anchor="middle" x="5513" y="-30.3" font-family="Times,serif" font-size="14.00">pipe:[331682415]#ServerID_e56b6537e2d5</text>
</g>
<!-- 12_node#ServerID_e56b6537e2d5&#45;&gt;pipe:[331682415]#ServerID_e56b6537e2d5 -->
<g id="edge21" class="edge"><title>12_node#ServerID_e56b6537e2d5&#45;&gt;pipe:[331682415]#ServerID_e56b6537e2d5</title>
<path fill="none" stroke="black" d="M5513,-102.799C5513,-91.1626 5513,-75.5479 5513,-62.2368"/>
<polygon fill="black" stroke="black" points="5516.5,-62.1754 5513,-52.1754 5509.5,-62.1755 5516.5,-62.1754"/>
<text text-anchor="middle" x="5532" y="-73.8" font-family="Times,serif" font-size="14.00">write</text>
</g>
<!-- 10.1.80.1:2411#ServerID_OuterContainerID&#45;&gt;10.1.80.247:8080#ServerID_OuterContainerID -->
<g id="edge26" class="edge"><title>10.1.80.1:2411#ServerID_OuterContainerID&#45;&gt;10.1.80.247:8080#ServerID_OuterContainerID</title>
<path fill="none" stroke="black" d="M3769.04,-311.594C3754.81,-321.203 3738.89,-334.954 3731,-352 3727.73,-359.053 3727.11,-367.276 3727.69,-374.991"/>
<polygon fill="black" stroke="black" points="3724.24,-375.616 3729.08,-385.041 3731.18,-374.656 3724.24,-375.616"/>
<text text-anchor="middle" x="3751" y="-355.8" font-family="Times,serif" font-size="14.00">POST</text>
</g>
</g>
</svg>
