<?xml version="1.0" encoding="UTF-8" standalone="no"?>
<!DOCTYPE svg PUBLIC "-//W3C//DTD SVG 1.1//EN"
 "http://www.w3.org/Graphics/SVG/1.1/DTD/svg11.dtd">
<!-- Generated by graphviz version 2.38.0 (20140413.2041)
 -->
<!-- Title: G Pages: 1 -->
<svg width="5795pt" height="684pt"
 viewBox="0.00 0.00 5795.00 684.00" xmlns="http://www.w3.org/2000/svg" xmlns:xlink="http://www.w3.org/1999/xlink">
<g id="graph0" class="graph" transform="scale(1 1) rotate(0) translate(4 680)">
<title>G</title>
<polygon fill="white" stroke="none" points="-4,4 -4,-680 5791,-680 5791,4 -4,4"/>
<g id="clust1" class="cluster"><title>clusterServerID_4451aee8bc70</title>
<polygon fill="none" stroke="black" points="3981,-506 3981,-668 4569,-668 4569,-506 3981,-506"/>
<text text-anchor="middle" x="4275" y="-652.8" font-family="Times,serif" font-size="14.00">clusterServerID_4451aee8bc70</text>
</g>
<g id="clust2" class="cluster"><title>clusterServerID_6dcbcc88d5&#45;mmq29</title>
<polygon fill="none" stroke="black" points="814,-398 814,-473 1168,-473 1168,-398 814,-398"/>
<text text-anchor="middle" x="991" y="-457.8" font-family="Times,serif" font-size="14.00">clusterServerID_6dcbcc88d5&#45;mmq29</text>
</g>
<g id="clust3" class="cluster"><title>clusterServerID_76c96688d7&#45;5sj98</title>
<polygon fill="none" stroke="black" points="5439,-182 5439,-257 5779,-257 5779,-182 5439,-182"/>
<text text-anchor="middle" x="5609" y="-241.8" font-family="Times,serif" font-size="14.00">clusterServerID_76c96688d7&#45;5sj98</text>
</g>
<g id="clust4" class="cluster"><title>clusterServerID_8665dd9487&#45;8ztxg</title>
<polygon fill="none" stroke="black" points="4052,-182 4052,-257 4394,-257 4394,-182 4052,-182"/>
<text text-anchor="middle" x="4223" y="-241.8" font-family="Times,serif" font-size="14.00">clusterServerID_8665dd9487&#45;8ztxg</text>
</g>
<g id="clust5" class="cluster"><title>clusterServerID_OuterContainerID</title>
<polygon fill="none" stroke="black" points="8,-182 8,-365 4044,-365 4044,-182 8,-182"/>
<text text-anchor="middle" x="2026" y="-349.8" font-family="Times,serif" font-size="14.00">clusterServerID_OuterContainerID</text>
</g>
<g id="clust6" class="cluster"><title>clusterServerID_b10d4e8ff34a</title>
<polygon fill="none" stroke="black" points="1844,-398 1844,-668 3207,-668 3207,-398 1844,-398"/>
<text text-anchor="middle" x="2525.5" y="-652.8" font-family="Times,serif" font-size="14.00">clusterServerID_b10d4e8ff34a</text>
</g>
<g id="clust7" class="cluster"><title>clusterServerID_b81a51f66a3b</title>
<polygon fill="none" stroke="black" points="4402,-8 4402,-257 5431,-257 5431,-8 4402,-8"/>
<text text-anchor="middle" x="4916.5" y="-241.8" font-family="Times,serif" font-size="14.00">clusterServerID_b81a51f66a3b</text>
</g>
<g id="clust8" class="cluster"><title>clusterServerID_ef03aa1de3fe</title>
<polygon fill="none" stroke="black" points="4945,-506 4945,-668 5517,-668 5517,-506 4945,-506"/>
<text text-anchor="middle" x="5231" y="-652.8" font-family="Times,serif" font-size="14.00">clusterServerID_ef03aa1de3fe</text>
</g>
<!-- gateway:8080#ServerID_OuterContainerID -->
<g id="node1" class="node"><title>gateway:8080#ServerID_OuterContainerID</title>
<polygon fill="none" stroke="black" points="992,-334 687.518,-316 992,-298 1296.48,-316 992,-334"/>
<text text-anchor="middle" x="992" y="-312.3" font-family="Times,serif" font-size="14.00">gateway:8080#ServerID_OuterContainerID</text>
</g>
<!-- 1_fwatchdog#ServerID_6dcbcc88d5&#45;mmq29 -->
<g id="node2" class="node"><title>1_fwatchdog#ServerID_6dcbcc88d5&#45;mmq29</title>
<polygon fill="none" stroke="black" points="1160,-442 822,-442 822,-406 1160,-406 1160,-442"/>
<text text-anchor="middle" x="991" y="-420.3" font-family="Times,serif" font-size="14.00">1_fwatchdog#ServerID_6dcbcc88d5&#45;mmq29</text>
</g>
<!-- gateway:8080#ServerID_OuterContainerID&#45;&gt;1_fwatchdog#ServerID_6dcbcc88d5&#45;mmq29 -->
<g id="edge1" class="edge"><title>gateway:8080#ServerID_OuterContainerID&#45;&gt;1_fwatchdog#ServerID_6dcbcc88d5&#45;mmq29</title>
<path fill="none" stroke="black" d="M970.527,-332.827C958.796,-342.863 945.388,-356.957 939,-373 936.534,-379.194 935.867,-382.115 939,-388 941.188,-392.11 944.096,-395.823 947.424,-399.158"/>
<polygon fill="black" stroke="black" points="945.386,-402.021 955.261,-405.861 949.937,-396.701 945.386,-402.021"/>
<text text-anchor="middle" x="981" y="-376.8" font-family="Times,serif" font-size="14.00">RESPONSE</text>
</g>
<!-- 1_fwatchdog#ServerID_6dcbcc88d5&#45;mmq29&#45;&gt;gateway:8080#ServerID_OuterContainerID -->
<g id="edge7" class="edge"><title>1_fwatchdog#ServerID_6dcbcc88d5&#45;mmq29&#45;&gt;gateway:8080#ServerID_OuterContainerID</title>
<path fill="none" stroke="black" d="M1011.2,-405.928C1015.99,-400.716 1020.44,-394.601 1023,-388 1029.07,-372.366 1021.87,-355.119 1012.89,-341.538"/>
<polygon fill="black" stroke="black" points="1015.55,-339.245 1006.86,-333.197 1009.88,-343.349 1015.55,-339.245"/>
<text text-anchor="middle" x="1046" y="-376.8" font-family="Times,serif" font-size="14.00">POST</text>
</g>
<!-- 10.1.80.247:40612#ServerID_OuterContainerID -->
<g id="node5" class="node"><title>10.1.80.247:40612#ServerID_OuterContainerID</title>
<polygon fill="none" stroke="black" points="1650,-334 1314.52,-316 1650,-298 1985.48,-316 1650,-334"/>
<text text-anchor="middle" x="1650" y="-312.3" font-family="Times,serif" font-size="14.00">10.1.80.247:40612#ServerID_OuterContainerID</text>
</g>
<!-- 1_fwatchdog#ServerID_6dcbcc88d5&#45;mmq29&#45;&gt;10.1.80.247:40612#ServerID_OuterContainerID -->
<g id="edge10" class="edge"><title>1_fwatchdog#ServerID_6dcbcc88d5&#45;mmq29&#45;&gt;10.1.80.247:40612#ServerID_OuterContainerID</title>
<path fill="none" stroke="black" d="M1160.4,-410.769C1219.08,-405.337 1285.13,-397.884 1345,-388 1430.11,-373.948 1526.88,-350.04 1588.17,-333.892"/>
<polygon fill="black" stroke="black" points="1589.29,-337.214 1598.06,-331.27 1587.5,-330.448 1589.29,-337.214"/>
<text text-anchor="middle" x="1463" y="-376.8" font-family="Times,serif" font-size="14.00">RESPONSE</text>
</g>
<!-- 10.1.80.247:8080#ServerID_OuterContainerID -->
<g id="node6" class="node"><title>10.1.80.247:8080#ServerID_OuterContainerID</title>
<polygon fill="none" stroke="black" points="343,-334 15.5599,-316 343,-298 670.44,-316 343,-334"/>
<text text-anchor="middle" x="343" y="-312.3" font-family="Times,serif" font-size="14.00">10.1.80.247:8080#ServerID_OuterContainerID</text>
</g>
<!-- 1_fwatchdog#ServerID_6dcbcc88d5&#45;mmq29&#45;&gt;10.1.80.247:8080#ServerID_OuterContainerID -->
<g id="edge4" class="edge"><title>1_fwatchdog#ServerID_6dcbcc88d5&#45;mmq29&#45;&gt;10.1.80.247:8080#ServerID_OuterContainerID</title>
<path fill="none" stroke="black" d="M886.888,-405.969C760.524,-385.299 549.669,-350.807 431.034,-331.401"/>
<polygon fill="black" stroke="black" points="431.334,-327.903 420.9,-329.743 430.203,-334.811 431.334,-327.903"/>
<text text-anchor="middle" x="783" y="-376.8" font-family="Times,serif" font-size="14.00">POST</text>
</g>
<!-- 10.1.80.247:36646#ServerID_OuterContainerID -->
<g id="node3" class="node"><title>10.1.80.247:36646#ServerID_OuterContainerID</title>
<polygon fill="none" stroke="black" points="2339,-334 2003.52,-316 2339,-298 2674.48,-316 2339,-334"/>
<text text-anchor="middle" x="2339" y="-312.3" font-family="Times,serif" font-size="14.00">10.1.80.247:36646#ServerID_OuterContainerID</text>
</g>
<!-- 1_fwatchdog#ServerID_8665dd9487&#45;8ztxg -->
<g id="node4" class="node"><title>1_fwatchdog#ServerID_8665dd9487&#45;8ztxg</title>
<polygon fill="none" stroke="black" points="4386,-226 4060,-226 4060,-190 4386,-190 4386,-226"/>
<text text-anchor="middle" x="4223" y="-204.3" font-family="Times,serif" font-size="14.00">1_fwatchdog#ServerID_8665dd9487&#45;8ztxg</text>
</g>
<!-- 10.1.80.247:36646#ServerID_OuterContainerID&#45;&gt;1_fwatchdog#ServerID_8665dd9487&#45;8ztxg -->
<g id="edge2" class="edge"><title>10.1.80.247:36646#ServerID_OuterContainerID&#45;&gt;1_fwatchdog#ServerID_8665dd9487&#45;8ztxg</title>
<path fill="none" stroke="black" d="M2461.65,-304.566C2609.38,-292.511 2865.14,-273.274 3085,-265 3138.46,-262.988 3995.01,-264.36 4048,-257 4087.62,-251.497 4130.99,-239.646 4164.64,-229.097"/>
<polygon fill="black" stroke="black" points="4165.84,-232.387 4174.31,-226.018 4163.71,-225.717 4165.84,-232.387"/>
<text text-anchor="middle" x="3105" y="-268.8" font-family="Times,serif" font-size="14.00">POST</text>
</g>
<!-- 1_fwatchdog#ServerID_b81a51f66a3b -->
<g id="node15" class="node"><title>1_fwatchdog#ServerID_b81a51f66a3b</title>
<polygon fill="none" stroke="black" points="4840.5,-226 4545.5,-226 4545.5,-190 4840.5,-190 4840.5,-226"/>
<text text-anchor="middle" x="4693" y="-204.3" font-family="Times,serif" font-size="14.00">1_fwatchdog#ServerID_b81a51f66a3b</text>
</g>
<!-- 10.1.80.247:36646#ServerID_OuterContainerID&#45;&gt;1_fwatchdog#ServerID_b81a51f66a3b -->
<g id="edge20" class="edge"><title>10.1.80.247:36646#ServerID_OuterContainerID&#45;&gt;1_fwatchdog#ServerID_b81a51f66a3b</title>
<path fill="none" stroke="black" d="M2496.11,-306.391C2555.03,-303.391 2622.57,-300.223 2684,-298 3030.09,-285.477 3117.42,-302.598 3463,-280 3525,-275.945 3539.97,-268.65 3602,-265 3778.59,-254.609 4221.75,-272.137 4398,-257 4465.93,-251.166 4541.85,-238.675 4599.65,-227.898"/>
<polygon fill="black" stroke="black" points="4600.32,-231.334 4609.5,-226.046 4599.02,-224.455 4600.32,-231.334"/>
<text text-anchor="middle" x="3618.5" y="-268.8" font-family="Times,serif" font-size="14.00">read</text>
</g>
<!-- 1_fwatchdog#ServerID_8665dd9487&#45;8ztxg&#45;&gt;10.1.80.247:36646#ServerID_OuterContainerID -->
<g id="edge6" class="edge"><title>1_fwatchdog#ServerID_8665dd9487&#45;8ztxg&#45;&gt;10.1.80.247:36646#ServerID_OuterContainerID</title>
<path fill="none" stroke="black" d="M4173.92,-226.089C4139.23,-237.27 4091.36,-250.897 4048,-257 3974.39,-267.361 3453.29,-262.364 3379,-265 3265.99,-269.011 3237.94,-274.36 3125,-280 2929.08,-289.783 2879.96,-289.173 2684,-298 2628.03,-300.521 2566.95,-303.467 2511.96,-306.191"/>
<polygon fill="black" stroke="black" points="2511.58,-302.705 2501.76,-306.697 2511.93,-309.697 2511.58,-302.705"/>
<text text-anchor="middle" x="3421" y="-268.8" font-family="Times,serif" font-size="14.00">RESPONSE</text>
</g>
<!-- 10.1.80.247:40612#ServerID_OuterContainerID&#45;&gt;1_fwatchdog#ServerID_6dcbcc88d5&#45;mmq29 -->
<g id="edge3" class="edge"><title>10.1.80.247:40612#ServerID_OuterContainerID&#45;&gt;1_fwatchdog#ServerID_6dcbcc88d5&#45;mmq29</title>
<path fill="none" stroke="black" d="M1570.29,-329.822C1454.79,-348.4 1240.2,-382.916 1107.11,-404.323"/>
<polygon fill="black" stroke="black" points="1106.2,-400.926 1096.88,-405.969 1107.31,-407.837 1106.2,-400.926"/>
<text text-anchor="middle" x="1321" y="-376.8" font-family="Times,serif" font-size="14.00">POST</text>
</g>
<!-- 1_fwatchdog#ServerID_b10d4e8ff34a -->
<g id="node9" class="node"><title>1_fwatchdog#ServerID_b10d4e8ff34a</title>
<polygon fill="none" stroke="black" points="2715.5,-637 2424.5,-637 2424.5,-601 2715.5,-601 2715.5,-637"/>
<text text-anchor="middle" x="2570" y="-615.3" font-family="Times,serif" font-size="14.00">1_fwatchdog#ServerID_b10d4e8ff34a</text>
</g>
<!-- 10.1.80.247:40612#ServerID_OuterContainerID&#45;&gt;1_fwatchdog#ServerID_b10d4e8ff34a -->
<g id="edge14" class="edge"><title>10.1.80.247:40612#ServerID_OuterContainerID&#45;&gt;1_fwatchdog#ServerID_b10d4e8ff34a</title>
<path fill="none" stroke="black" d="M1723.4,-330.07C1793.04,-341.792 1900.76,-358.164 1995,-365 2003.44,-365.612 3207.04,-366.999 3213,-373 3268.46,-428.83 3261.51,-492.296 3208,-550 3175.76,-584.769 2904.13,-603.37 2725.85,-611.928"/>
<polygon fill="black" stroke="black" points="2725.66,-608.433 2715.84,-612.403 2725.99,-615.425 2725.66,-608.433"/>
<text text-anchor="middle" x="3265.5" y="-484.8" font-family="Times,serif" font-size="14.00">read</text>
</g>
<!-- 10.1.80.247:8080#ServerID_OuterContainerID&#45;&gt;1_fwatchdog#ServerID_6dcbcc88d5&#45;mmq29 -->
<g id="edge5" class="edge"><title>10.1.80.247:8080#ServerID_OuterContainerID&#45;&gt;1_fwatchdog#ServerID_6dcbcc88d5&#45;mmq29</title>
<path fill="none" stroke="black" d="M386.379,-331.636C436.852,-348.053 522.991,-374.185 599,-388 667.898,-400.523 744.459,-408.628 811.504,-413.847"/>
<polygon fill="black" stroke="black" points="811.514,-417.357 821.751,-414.628 812.046,-410.378 811.514,-417.357"/>
<text text-anchor="middle" x="641" y="-376.8" font-family="Times,serif" font-size="14.00">RESPONSE</text>
</g>
<!-- 10.1.80.1:49006#ServerID_OuterContainerID -->
<g id="node23" class="node"><title>10.1.80.1:49006#ServerID_OuterContainerID</title>
<polygon fill="none" stroke="black" points="1023,-226 704.105,-208 1023,-190 1341.9,-208 1023,-226"/>
<text text-anchor="middle" x="1023" y="-204.3" font-family="Times,serif" font-size="14.00">10.1.80.1:49006#ServerID_OuterContainerID</text>
</g>
<!-- 10.1.80.247:8080#ServerID_OuterContainerID&#45;&gt;10.1.80.1:49006#ServerID_OuterContainerID -->
<g id="edge30" class="edge"><title>10.1.80.247:8080#ServerID_OuterContainerID&#45;&gt;10.1.80.1:49006#ServerID_OuterContainerID</title>
<path fill="none" stroke="black" d="M483.096,-305.65C550.965,-300.073 633.495,-291.744 707,-280 795.676,-265.832 896.695,-241.709 960.145,-225.566"/>
<polygon fill="black" stroke="black" points="961.177,-228.914 969.998,-223.046 959.442,-222.133 961.177,-228.914"/>
<text text-anchor="middle" x="828" y="-268.8" font-family="Times,serif" font-size="14.00">RESPONSE</text>
</g>
<!-- 10.0.88.125:31112#ServerID_OuterContainerID -->
<g id="node24" class="node"><title>10.0.88.125:31112#ServerID_OuterContainerID</title>
<polygon fill="none" stroke="black" points="351,-226 15.5152,-208 351,-190 686.485,-208 351,-226"/>
<text text-anchor="middle" x="351" y="-204.3" font-family="Times,serif" font-size="14.00">10.0.88.125:31112#ServerID_OuterContainerID</text>
</g>
<!-- 10.1.80.247:8080#ServerID_OuterContainerID&#45;&gt;10.0.88.125:31112#ServerID_OuterContainerID -->
<g id="edge31" class="edge"><title>10.1.80.247:8080#ServerID_OuterContainerID&#45;&gt;10.0.88.125:31112#ServerID_OuterContainerID</title>
<path fill="none" stroke="black" d="M344.285,-297.969C345.545,-281.279 347.485,-255.579 348.956,-236.084"/>
<polygon fill="black" stroke="black" points="352.455,-236.224 349.718,-225.988 345.475,-235.697 352.455,-236.224"/>
<text text-anchor="middle" x="389" y="-268.8" font-family="Times,serif" font-size="14.00">RESPONSE</text>
</g>
<!-- 10.1.80.247:41542#ServerID_OuterContainerID -->
<g id="node7" class="node"><title>10.1.80.247:41542#ServerID_OuterContainerID</title>
<polygon fill="none" stroke="black" points="3028,-334 2692.52,-316 3028,-298 3363.48,-316 3028,-334"/>
<text text-anchor="middle" x="3028" y="-312.3" font-family="Times,serif" font-size="14.00">10.1.80.247:41542#ServerID_OuterContainerID</text>
</g>
<!-- 1_fwatchdog#ServerID_76c96688d7&#45;5sj98 -->
<g id="node8" class="node"><title>1_fwatchdog#ServerID_76c96688d7&#45;5sj98</title>
<polygon fill="none" stroke="black" points="5771.5,-226 5446.5,-226 5446.5,-190 5771.5,-190 5771.5,-226"/>
<text text-anchor="middle" x="5609" y="-204.3" font-family="Times,serif" font-size="14.00">1_fwatchdog#ServerID_76c96688d7&#45;5sj98</text>
</g>
<!-- 10.1.80.247:41542#ServerID_OuterContainerID&#45;&gt;1_fwatchdog#ServerID_76c96688d7&#45;5sj98 -->
<g id="edge8" class="edge"><title>10.1.80.247:41542#ServerID_OuterContainerID&#45;&gt;1_fwatchdog#ServerID_76c96688d7&#45;5sj98</title>
<path fill="none" stroke="black" d="M3184.25,-306.378C3243.37,-303.358 3311.27,-300.18 3373,-298 4058.95,-273.774 4230.74,-277.633 4917,-265 4974.55,-263.941 5378.02,-265.164 5435,-257 5474.24,-251.377 5517.19,-239.589 5550.6,-229.103"/>
<polygon fill="black" stroke="black" points="5551.74,-232.414 5560.21,-226.043 5549.62,-225.745 5551.74,-232.414"/>
<text text-anchor="middle" x="4937" y="-268.8" font-family="Times,serif" font-size="14.00">POST</text>
</g>
<!-- 1_fwatchdog#ServerID_76c96688d7&#45;5sj98&#45;&gt;10.1.80.247:41542#ServerID_OuterContainerID -->
<g id="edge9" class="edge"><title>1_fwatchdog#ServerID_76c96688d7&#45;5sj98&#45;&gt;10.1.80.247:41542#ServerID_OuterContainerID</title>
<path fill="none" stroke="black" d="M5558.64,-226.077C5524.24,-236.949 5477.39,-250.219 5435,-257 5224.98,-290.596 5169.6,-273.679 4957,-280 4253.27,-300.922 4076.72,-276.671 3373,-298 3313.77,-299.795 3248.86,-302.738 3191.48,-305.674"/>
<polygon fill="black" stroke="black" points="3191.04,-302.192 3181.23,-306.202 3191.4,-309.183 3191.04,-302.192"/>
<text text-anchor="middle" x="5418" y="-268.8" font-family="Times,serif" font-size="14.00">RESPONSE</text>
</g>
<!-- localhost:3000#ServerID_b10d4e8ff34a -->
<g id="node10" class="node"><title>localhost:3000#ServerID_b10d4e8ff34a</title>
<polygon fill="none" stroke="black" points="2500,-550 2219.81,-532 2500,-514 2780.19,-532 2500,-550"/>
<text text-anchor="middle" x="2500" y="-528.3" font-family="Times,serif" font-size="14.00">localhost:3000#ServerID_b10d4e8ff34a</text>
</g>
<!-- 1_fwatchdog#ServerID_b10d4e8ff34a&#45;&gt;localhost:3000#ServerID_b10d4e8ff34a -->
<g id="edge11" class="edge"><title>1_fwatchdog#ServerID_b10d4e8ff34a&#45;&gt;localhost:3000#ServerID_b10d4e8ff34a</title>
<path fill="none" stroke="black" d="M2480.11,-600.854C2472.33,-596.21 2465.38,-590.361 2460,-583 2453.17,-573.654 2458.51,-563.636 2467.26,-555.04"/>
<polygon fill="black" stroke="black" points="2469.56,-557.678 2474.84,-548.491 2464.99,-552.382 2469.56,-557.678"/>
<text text-anchor="middle" x="2489" y="-571.8" font-family="Times,serif" font-size="14.00">connect</text>
</g>
<!-- 1_fwatchdog#ServerID_b10d4e8ff34a&#45;&gt;localhost:3000#ServerID_b10d4e8ff34a -->
<g id="edge13" class="edge"><title>1_fwatchdog#ServerID_b10d4e8ff34a&#45;&gt;localhost:3000#ServerID_b10d4e8ff34a</title>
<path fill="none" stroke="black" d="M2553.13,-600.926C2547.82,-595.34 2542.04,-589.022 2537,-583 2530.32,-575.008 2523.41,-565.938 2517.41,-557.737"/>
<polygon fill="black" stroke="black" points="2520.21,-555.644 2511.52,-549.588 2514.54,-559.744 2520.21,-555.644"/>
<text text-anchor="middle" x="2556" y="-571.8" font-family="Times,serif" font-size="14.00">write</text>
</g>
<!-- localhost:3000#ServerID_b10d4e8ff34a&#45;&gt;1_fwatchdog#ServerID_b10d4e8ff34a -->
<g id="edge12" class="edge"><title>localhost:3000#ServerID_b10d4e8ff34a&#45;&gt;1_fwatchdog#ServerID_b10d4e8ff34a</title>
<path fill="none" stroke="black" d="M2553.43,-546.606C2563.54,-551.661 2572.86,-558.57 2579,-568 2583.4,-574.757 2583.51,-583.064 2581.83,-590.951"/>
<polygon fill="black" stroke="black" points="2578.47,-589.986 2578.94,-600.57 2585.17,-592.001 2578.47,-589.986"/>
<text text-anchor="middle" x="2599.5" y="-571.8" font-family="Times,serif" font-size="14.00">read</text>
</g>
<!-- 11_node#ServerID_b10d4e8ff34a -->
<g id="node12" class="node"><title>11_node#ServerID_b10d4e8ff34a</title>
<polygon fill="none" stroke="black" points="2818,-442 2558,-442 2558,-406 2818,-406 2818,-442"/>
<text text-anchor="middle" x="2688" y="-420.3" font-family="Times,serif" font-size="14.00">11_node#ServerID_b10d4e8ff34a</text>
</g>
<!-- localhost:3000#ServerID_b10d4e8ff34a&#45;&gt;11_node#ServerID_b10d4e8ff34a -->
<g id="edge28" class="edge"><title>localhost:3000#ServerID_b10d4e8ff34a&#45;&gt;11_node#ServerID_b10d4e8ff34a</title>
<path fill="none" stroke="black" d="M2527.34,-515.587C2559.35,-497.536 2612.62,-467.502 2648.97,-447.005"/>
<polygon fill="black" stroke="black" points="2650.84,-449.972 2657.83,-442.012 2647.4,-443.875 2650.84,-449.972"/>
<text text-anchor="middle" x="2605.5" y="-484.8" font-family="Times,serif" font-size="14.00">read</text>
</g>
<!-- /etc/hosts#ServerID_b10d4e8ff34a -->
<g id="node11" class="node"><title>/etc/hosts#ServerID_b10d4e8ff34a</title>
<ellipse fill="none" stroke="black" cx="2027" cy="-532" rx="174.669" ry="18"/>
<text text-anchor="middle" x="2027" y="-528.3" font-family="Times,serif" font-size="14.00">/etc/hosts#ServerID_b10d4e8ff34a</text>
</g>
<!-- /etc/hosts#ServerID_b10d4e8ff34a&#45;&gt;11_node#ServerID_b10d4e8ff34a -->
<g id="edge15" class="edge"><title>/etc/hosts#ServerID_b10d4e8ff34a&#45;&gt;11_node#ServerID_b10d4e8ff34a</title>
<path fill="none" stroke="black" d="M2117.18,-516.539C2235.19,-497.614 2442.2,-464.418 2571.83,-443.629"/>
<polygon fill="black" stroke="black" points="2572.49,-447.069 2581.81,-442.03 2571.38,-440.157 2572.49,-447.069"/>
<text text-anchor="middle" x="2354.5" y="-484.8" font-family="Times,serif" font-size="14.00">read</text>
</g>
<!-- 11_node#ServerID_b10d4e8ff34a&#45;&gt;gateway:8080#ServerID_OuterContainerID -->
<g id="edge19" class="edge"><title>11_node#ServerID_b10d4e8ff34a&#45;&gt;gateway:8080#ServerID_OuterContainerID</title>
<path fill="none" stroke="black" d="M2557.59,-417.342C2340.21,-407.939 1890,-388.586 1509,-373 1418.78,-369.309 1395.88,-373.613 1306,-365 1225.75,-357.31 1134.77,-342.751 1071.47,-331.676"/>
<polygon fill="black" stroke="black" points="1072.02,-328.217 1061.56,-329.93 1070.8,-335.111 1072.02,-328.217"/>
<text text-anchor="middle" x="1895" y="-376.8" font-family="Times,serif" font-size="14.00">connect</text>
</g>
<!-- 10.152.183.10:53#ServerID_OuterContainerID -->
<g id="node14" class="node"><title>10.152.183.10:53#ServerID_OuterContainerID</title>
<polygon fill="none" stroke="black" points="3709,-334 3381.56,-316 3709,-298 4036.44,-316 3709,-334"/>
<text text-anchor="middle" x="3709" y="-312.3" font-family="Times,serif" font-size="14.00">10.152.183.10:53#ServerID_OuterContainerID</text>
</g>
<!-- 11_node#ServerID_b10d4e8ff34a&#45;&gt;10.152.183.10:53#ServerID_OuterContainerID -->
<g id="edge17" class="edge"><title>11_node#ServerID_b10d4e8ff34a&#45;&gt;10.152.183.10:53#ServerID_OuterContainerID</title>
<path fill="none" stroke="black" d="M2772.01,-405.997C2833.27,-394.403 2918.42,-379.94 2994,-373 3161.33,-357.635 3204.52,-378.65 3372,-365 3458.98,-357.911 3557.75,-343.029 3625.76,-331.703"/>
<polygon fill="black" stroke="black" points="3626.7,-335.094 3635.99,-329.989 3625.54,-328.191 3626.7,-335.094"/>
<text text-anchor="middle" x="3018.5" y="-376.8" font-family="Times,serif" font-size="14.00">sendto</text>
</g>
<!-- /etc/resolv.conf#ServerID_b10d4e8ff34a -->
<g id="node13" class="node"><title>/etc/resolv.conf#ServerID_b10d4e8ff34a</title>
<ellipse fill="none" stroke="black" cx="2999" cy="-532" rx="200.365" ry="18"/>
<text text-anchor="middle" x="2999" y="-528.3" font-family="Times,serif" font-size="14.00">/etc/resolv.conf#ServerID_b10d4e8ff34a</text>
</g>
<!-- /etc/resolv.conf#ServerID_b10d4e8ff34a&#45;&gt;11_node#ServerID_b10d4e8ff34a -->
<g id="edge16" class="edge"><title>/etc/resolv.conf#ServerID_b10d4e8ff34a&#45;&gt;11_node#ServerID_b10d4e8ff34a</title>
<path fill="none" stroke="black" d="M2950.41,-514.438C2895.63,-495.767 2806.54,-465.403 2747.61,-445.316"/>
<polygon fill="black" stroke="black" points="2748.65,-441.973 2738.05,-442.06 2746.39,-448.599 2748.65,-441.973"/>
<text text-anchor="middle" x="2906.5" y="-484.8" font-family="Times,serif" font-size="14.00">read</text>
</g>
<!-- 10.152.183.10:53#ServerID_OuterContainerID&#45;&gt;11_node#ServerID_b10d4e8ff34a -->
<g id="edge18" class="edge"><title>10.152.183.10:53#ServerID_OuterContainerID&#45;&gt;11_node#ServerID_b10d4e8ff34a</title>
<path fill="none" stroke="black" d="M3629.16,-329.678C3560.98,-340.191 3460.23,-354.984 3372,-365 3184.27,-386.311 2966.74,-403.47 2828.31,-413.447"/>
<polygon fill="black" stroke="black" points="2827.8,-409.975 2818.07,-414.183 2828.3,-416.957 2827.8,-409.975"/>
<text text-anchor="middle" x="3331" y="-376.8" font-family="Times,serif" font-size="14.00">recvfrom</text>
</g>
<!-- localhost:3000#ServerID_b81a51f66a3b -->
<g id="node16" class="node"><title>localhost:3000#ServerID_b81a51f66a3b</title>
<polygon fill="none" stroke="black" points="4693,-139 4409.8,-121 4693,-103 4976.2,-121 4693,-139"/>
<text text-anchor="middle" x="4693" y="-117.3" font-family="Times,serif" font-size="14.00">localhost:3000#ServerID_b81a51f66a3b</text>
</g>
<!-- 1_fwatchdog#ServerID_b81a51f66a3b&#45;&gt;localhost:3000#ServerID_b81a51f66a3b -->
<g id="edge21" class="edge"><title>1_fwatchdog#ServerID_b81a51f66a3b&#45;&gt;localhost:3000#ServerID_b81a51f66a3b</title>
<path fill="none" stroke="black" d="M4631.54,-189.898C4614.91,-181.97 4603.77,-171.118 4613,-157 4617.32,-150.399 4623.18,-145.035 4629.79,-140.678"/>
<polygon fill="black" stroke="black" points="4631.57,-143.695 4638.5,-135.681 4628.08,-137.623 4631.57,-143.695"/>
<text text-anchor="middle" x="4642" y="-160.8" font-family="Times,serif" font-size="14.00">connect</text>
</g>
<!-- 1_fwatchdog#ServerID_b81a51f66a3b&#45;&gt;localhost:3000#ServerID_b81a51f66a3b -->
<g id="edge24" class="edge"><title>1_fwatchdog#ServerID_b81a51f66a3b&#45;&gt;localhost:3000#ServerID_b81a51f66a3b</title>
<path fill="none" stroke="black" d="M4691.24,-189.929C4690.73,-184.234 4690.25,-177.849 4690,-172 4689.69,-164.645 4689.91,-156.687 4690.34,-149.328"/>
<polygon fill="black" stroke="black" points="4693.85,-149.349 4691.1,-139.117 4686.87,-148.83 4693.85,-149.349"/>
<text text-anchor="middle" x="4709" y="-160.8" font-family="Times,serif" font-size="14.00">write</text>
</g>
<!-- pipe:[320783879]#ServerID_b81a51f66a3b -->
<g id="node18" class="node"><title>pipe:[320783879]#ServerID_b81a51f66a3b</title>
<ellipse fill="none" stroke="black" cx="5209" cy="-121" rx="214.462" ry="18"/>
<text text-anchor="middle" x="5209" y="-117.3" font-family="Times,serif" font-size="14.00">pipe:[320783879]#ServerID_b81a51f66a3b</text>
</g>
<!-- 1_fwatchdog#ServerID_b81a51f66a3b&#45;&gt;pipe:[320783879]#ServerID_b81a51f66a3b -->
<g id="edge25" class="edge"><title>1_fwatchdog#ServerID_b81a51f66a3b&#45;&gt;pipe:[320783879]#ServerID_b81a51f66a3b</title>
<path fill="none" stroke="black" d="M4796.49,-189.952C4886.52,-175.121 5016.3,-153.743 5106.15,-138.943"/>
<polygon fill="black" stroke="black" points="5106.78,-142.386 5116.08,-137.307 5105.64,-135.479 5106.78,-142.386"/>
<text text-anchor="middle" x="5000" y="-160.8" font-family="Times,serif" font-size="14.00">write</text>
</g>
<!-- localhost:3000#ServerID_b81a51f66a3b&#45;&gt;1_fwatchdog#ServerID_b81a51f66a3b -->
<g id="edge22" class="edge"><title>localhost:3000#ServerID_b81a51f66a3b&#45;&gt;1_fwatchdog#ServerID_b81a51f66a3b</title>
<path fill="none" stroke="black" d="M4716.72,-137.632C4722.85,-142.977 4728.66,-149.523 4732,-157 4736.04,-166.048 4732.42,-174.914 4726.02,-182.608"/>
<polygon fill="black" stroke="black" points="4723.39,-180.287 4718.88,-189.874 4728.39,-185.193 4723.39,-180.287"/>
<text text-anchor="middle" x="4749.5" y="-160.8" font-family="Times,serif" font-size="14.00">read</text>
</g>
<!-- 12_node#ServerID_b81a51f66a3b -->
<g id="node17" class="node"><title>12_node#ServerID_b81a51f66a3b</title>
<polygon fill="none" stroke="black" points="4824.5,-52 4561.5,-52 4561.5,-16 4824.5,-16 4824.5,-52"/>
<text text-anchor="middle" x="4693" y="-30.3" font-family="Times,serif" font-size="14.00">12_node#ServerID_b81a51f66a3b</text>
</g>
<!-- localhost:3000#ServerID_b81a51f66a3b&#45;&gt;12_node#ServerID_b81a51f66a3b -->
<g id="edge23" class="edge"><title>localhost:3000#ServerID_b81a51f66a3b&#45;&gt;12_node#ServerID_b81a51f66a3b</title>
<path fill="none" stroke="black" d="M4693,-102.799C4693,-91.1626 4693,-75.5479 4693,-62.2368"/>
<polygon fill="black" stroke="black" points="4696.5,-62.1754 4693,-52.1754 4689.5,-62.1755 4696.5,-62.1754"/>
<text text-anchor="middle" x="4709.5" y="-73.8" font-family="Times,serif" font-size="14.00">read</text>
</g>
<!-- localhost:3000#ServerID_4451aee8bc70 -->
<g id="node19" class="node"><title>localhost:3000#ServerID_4451aee8bc70</title>
<polygon fill="none" stroke="black" points="4275,-637 3989.28,-619 4275,-601 4560.72,-619 4275,-637"/>
<text text-anchor="middle" x="4275" y="-615.3" font-family="Times,serif" font-size="14.00">localhost:3000#ServerID_4451aee8bc70</text>
</g>
<!-- 16_node#ServerID_4451aee8bc70 -->
<g id="node20" class="node"><title>16_node#ServerID_4451aee8bc70</title>
<polygon fill="none" stroke="black" points="4408,-550 4142,-550 4142,-514 4408,-514 4408,-550"/>
<text text-anchor="middle" x="4275" y="-528.3" font-family="Times,serif" font-size="14.00">16_node#ServerID_4451aee8bc70</text>
</g>
<!-- localhost:3000#ServerID_4451aee8bc70&#45;&gt;16_node#ServerID_4451aee8bc70 -->
<g id="edge26" class="edge"><title>localhost:3000#ServerID_4451aee8bc70&#45;&gt;16_node#ServerID_4451aee8bc70</title>
<path fill="none" stroke="black" d="M4275,-600.799C4275,-589.163 4275,-573.548 4275,-560.237"/>
<polygon fill="black" stroke="black" points="4278.5,-560.175 4275,-550.175 4271.5,-560.175 4278.5,-560.175"/>
<text text-anchor="middle" x="4291.5" y="-571.8" font-family="Times,serif" font-size="14.00">read</text>
</g>
<!-- localhost:3000#ServerID_ef03aa1de3fe -->
<g id="node21" class="node"><title>localhost:3000#ServerID_ef03aa1de3fe</title>
<polygon fill="none" stroke="black" points="5231,-637 4953.33,-619 5231,-601 5508.67,-619 5231,-637"/>
<text text-anchor="middle" x="5231" y="-615.3" font-family="Times,serif" font-size="14.00">localhost:3000#ServerID_ef03aa1de3fe</text>
</g>
<!-- 12_node#ServerID_ef03aa1de3fe -->
<g id="node22" class="node"><title>12_node#ServerID_ef03aa1de3fe</title>
<polygon fill="none" stroke="black" points="5359.5,-550 5102.5,-550 5102.5,-514 5359.5,-514 5359.5,-550"/>
<text text-anchor="middle" x="5231" y="-528.3" font-family="Times,serif" font-size="14.00">12_node#ServerID_ef03aa1de3fe</text>
</g>
<!-- localhost:3000#ServerID_ef03aa1de3fe&#45;&gt;12_node#ServerID_ef03aa1de3fe -->
<g id="edge27" class="edge"><title>localhost:3000#ServerID_ef03aa1de3fe&#45;&gt;12_node#ServerID_ef03aa1de3fe</title>
<path fill="none" stroke="black" d="M5231,-600.799C5231,-589.163 5231,-573.548 5231,-560.237"/>
<polygon fill="black" stroke="black" points="5234.5,-560.175 5231,-550.175 5227.5,-560.175 5234.5,-560.175"/>
<text text-anchor="middle" x="5247.5" y="-571.8" font-family="Times,serif" font-size="14.00">read</text>
</g>
<!-- 10.1.80.1:49006#ServerID_OuterContainerID&#45;&gt;10.1.80.247:8080#ServerID_OuterContainerID -->
<g id="edge29" class="edge"><title>10.1.80.1:49006#ServerID_OuterContainerID&#45;&gt;10.1.80.247:8080#ServerID_OuterContainerID</title>
<path fill="none" stroke="black" d="M942.693,-221.518C815.29,-241.378 567.621,-279.985 433.891,-300.832"/>
<polygon fill="black" stroke="black" points="433.017,-297.426 423.675,-302.424 434.095,-304.342 433.017,-297.426"/>
<text text-anchor="middle" x="683" y="-268.8" font-family="Times,serif" font-size="14.00">POST</text>
</g>
</g>
</svg>
