<?xml version="1.0" encoding="UTF-8" standalone="no"?>
<!DOCTYPE svg PUBLIC "-//W3C//DTD SVG 1.1//EN"
 "http://www.w3.org/Graphics/SVG/1.1/DTD/svg11.dtd">
<!-- Generated by graphviz version 2.38.0 (20140413.2041)
 -->
<!-- Title: G Pages: 1 -->
<svg width="4485pt" height="1032pt"
 viewBox="0.00 0.00 4485.00 1032.00" xmlns="http://www.w3.org/2000/svg" xmlns:xlink="http://www.w3.org/1999/xlink">
<g id="graph0" class="graph" transform="scale(1 1) rotate(0) translate(4 1028)">
<title>G</title>
<polygon fill="white" stroke="none" points="-4,4 -4,-1028 4481,-1028 4481,4 -4,4"/>
<g id="clust1" class="cluster"><title>clusterServerID_3113a7a2a86a</title>
<polygon fill="none" stroke="black" points="1244,-746 1244,-1016 2634,-1016 2634,-746 1244,-746"/>
<text text-anchor="middle" x="1939" y="-1000.8" font-family="Times,serif" font-size="14.00">clusterServerID_3113a7a2a86a</text>
</g>
<g id="clust2" class="cluster"><title>clusterServerID_5f846fd567&#45;srhtc</title>
<polygon fill="none" stroke="black" points="2844,-746 2844,-821 3178,-821 3178,-746 2844,-746"/>
<text text-anchor="middle" x="3011" y="-805.8" font-family="Times,serif" font-size="14.00">clusterServerID_5f846fd567&#45;srhtc</text>
</g>
<g id="clust3" class="cluster"><title>clusterServerID_6df85d7674&#45;grtsk</title>
<polygon fill="none" stroke="black" points="797,-746 797,-821 1135,-821 1135,-746 797,-746"/>
<text text-anchor="middle" x="966" y="-805.8" font-family="Times,serif" font-size="14.00">clusterServerID_6df85d7674&#45;grtsk</text>
</g>
<g id="clust4" class="cluster"><title>clusterServerID_9c632c9c841a</title>
<polygon fill="none" stroke="black" points="3363,-8 3363,-605 4469,-605 4469,-8 3363,-8"/>
<text text-anchor="middle" x="3916" y="-589.8" font-family="Times,serif" font-size="14.00">clusterServerID_9c632c9c841a</text>
</g>
<g id="clust5" class="cluster"><title>clusterServerID_OuterContainerID</title>
<polygon fill="none" stroke="black" points="8,-530 8,-713 3355,-713 3355,-530 8,-530"/>
<text text-anchor="middle" x="1681.5" y="-697.8" font-family="Times,serif" font-size="14.00">clusterServerID_OuterContainerID</text>
</g>
<!-- 10.1.80.247:8080#ServerID_OuterContainerID -->
<g id="node1" class="node"><title>10.1.80.247:8080#ServerID_OuterContainerID</title>
<polygon fill="none" stroke="black" points="343,-682 15.5599,-664 343,-646 670.44,-664 343,-682"/>
<text text-anchor="middle" x="343" y="-660.3" font-family="Times,serif" font-size="14.00">10.1.80.247:8080#ServerID_OuterContainerID</text>
</g>
<!-- 1_fwatchdog#ServerID_6df85d7674&#45;grtsk -->
<g id="node2" class="node"><title>1_fwatchdog#ServerID_6df85d7674&#45;grtsk</title>
<polygon fill="none" stroke="black" points="1126.5,-790 805.5,-790 805.5,-754 1126.5,-754 1126.5,-790"/>
<text text-anchor="middle" x="966" y="-768.3" font-family="Times,serif" font-size="14.00">1_fwatchdog#ServerID_6df85d7674&#45;grtsk</text>
</g>
<!-- 10.1.80.247:8080#ServerID_OuterContainerID&#45;&gt;1_fwatchdog#ServerID_6df85d7674&#45;grtsk -->
<g id="edge1" class="edge"><title>10.1.80.247:8080#ServerID_OuterContainerID&#45;&gt;1_fwatchdog#ServerID_6df85d7674&#45;grtsk</title>
<path fill="none" stroke="black" d="M379.572,-679.996C421.792,-696.616 493.692,-722.812 558,-736 634.992,-751.789 721.573,-760.468 795.104,-765.234"/>
<polygon fill="black" stroke="black" points="795.19,-768.746 805.39,-765.881 795.63,-761.76 795.19,-768.746"/>
<text text-anchor="middle" x="600" y="-724.8" font-family="Times,serif" font-size="14.00">RESPONSE</text>
</g>
<!-- 10.1.80.1:13756#ServerID_OuterContainerID -->
<g id="node24" class="node"><title>10.1.80.1:13756#ServerID_OuterContainerID</title>
<polygon fill="none" stroke="black" points="1023,-574 704.105,-556 1023,-538 1341.9,-556 1023,-574"/>
<text text-anchor="middle" x="1023" y="-552.3" font-family="Times,serif" font-size="14.00">10.1.80.1:13756#ServerID_OuterContainerID</text>
</g>
<!-- 10.1.80.247:8080#ServerID_OuterContainerID&#45;&gt;10.1.80.1:13756#ServerID_OuterContainerID -->
<g id="edge33" class="edge"><title>10.1.80.247:8080#ServerID_OuterContainerID&#45;&gt;10.1.80.1:13756#ServerID_OuterContainerID</title>
<path fill="none" stroke="black" d="M395.522,-648.818C440.646,-637.228 507.627,-621.428 567,-613 623.434,-604.989 638.307,-610.91 695,-605 777.894,-596.359 871.964,-582.134 938.04,-571.408"/>
<polygon fill="black" stroke="black" points="938.684,-574.849 947.99,-569.785 937.557,-567.941 938.684,-574.849"/>
<text text-anchor="middle" x="609" y="-616.8" font-family="Times,serif" font-size="14.00">RESPONSE</text>
</g>
<!-- 10.0.88.125:31112#ServerID_OuterContainerID -->
<g id="node25" class="node"><title>10.0.88.125:31112#ServerID_OuterContainerID</title>
<polygon fill="none" stroke="black" points="351,-574 15.5152,-556 351,-538 686.485,-556 351,-574"/>
<text text-anchor="middle" x="351" y="-552.3" font-family="Times,serif" font-size="14.00">10.0.88.125:31112#ServerID_OuterContainerID</text>
</g>
<!-- 10.1.80.247:8080#ServerID_OuterContainerID&#45;&gt;10.0.88.125:31112#ServerID_OuterContainerID -->
<g id="edge32" class="edge"><title>10.1.80.247:8080#ServerID_OuterContainerID&#45;&gt;10.0.88.125:31112#ServerID_OuterContainerID</title>
<path fill="none" stroke="black" d="M344.285,-645.969C345.545,-629.279 347.485,-603.579 348.956,-584.084"/>
<polygon fill="black" stroke="black" points="352.455,-584.224 349.718,-573.988 345.475,-583.697 352.455,-584.224"/>
<text text-anchor="middle" x="389" y="-616.8" font-family="Times,serif" font-size="14.00">RESPONSE</text>
</g>
<!-- 1_fwatchdog#ServerID_6df85d7674&#45;grtsk&#45;&gt;10.1.80.247:8080#ServerID_OuterContainerID -->
<g id="edge5" class="edge"><title>1_fwatchdog#ServerID_6df85d7674&#45;grtsk&#45;&gt;10.1.80.247:8080#ServerID_OuterContainerID</title>
<path fill="none" stroke="black" d="M865.904,-753.969C744.872,-733.376 543.217,-699.066 428.925,-679.62"/>
<polygon fill="black" stroke="black" points="429.266,-676.127 418.82,-677.9 428.091,-683.028 429.266,-676.127"/>
<text text-anchor="middle" x="767" y="-724.8" font-family="Times,serif" font-size="14.00">POST</text>
</g>
<!-- gateway:8080#ServerID_OuterContainerID -->
<g id="node3" class="node"><title>gateway:8080#ServerID_OuterContainerID</title>
<polygon fill="none" stroke="black" points="992,-682 687.518,-664 992,-646 1296.48,-664 992,-682"/>
<text text-anchor="middle" x="992" y="-660.3" font-family="Times,serif" font-size="14.00">gateway:8080#ServerID_OuterContainerID</text>
</g>
<!-- 1_fwatchdog#ServerID_6df85d7674&#45;grtsk&#45;&gt;gateway:8080#ServerID_OuterContainerID -->
<g id="edge2" class="edge"><title>1_fwatchdog#ServerID_6df85d7674&#45;grtsk&#45;&gt;gateway:8080#ServerID_OuterContainerID</title>
<path fill="none" stroke="black" d="M946.061,-753.622C937.866,-744.301 931.274,-732.41 936,-721 941.367,-708.043 951.347,-696.521 961.413,-687.348"/>
<polygon fill="black" stroke="black" points="963.733,-689.969 969.051,-680.805 959.179,-684.652 963.733,-689.969"/>
<text text-anchor="middle" x="956" y="-724.8" font-family="Times,serif" font-size="14.00">POST</text>
</g>
<!-- 10.1.80.247:45850#ServerID_OuterContainerID -->
<g id="node4" class="node"><title>10.1.80.247:45850#ServerID_OuterContainerID</title>
<polygon fill="none" stroke="black" points="1650,-682 1314.52,-664 1650,-646 1985.48,-664 1650,-682"/>
<text text-anchor="middle" x="1650" y="-660.3" font-family="Times,serif" font-size="14.00">10.1.80.247:45850#ServerID_OuterContainerID</text>
</g>
<!-- 1_fwatchdog#ServerID_6df85d7674&#45;grtsk&#45;&gt;10.1.80.247:45850#ServerID_OuterContainerID -->
<g id="edge11" class="edge"><title>1_fwatchdog#ServerID_6df85d7674&#45;grtsk&#45;&gt;10.1.80.247:45850#ServerID_OuterContainerID</title>
<path fill="none" stroke="black" d="M1037.68,-753.988C1086.09,-743.072 1151.58,-729.416 1210,-721 1251.94,-714.959 1262.89,-717.699 1305,-713 1391.07,-703.396 1488.8,-689.516 1558.22,-679.15"/>
<polygon fill="black" stroke="black" points="1558.88,-682.59 1568.25,-677.647 1557.84,-675.667 1558.88,-682.59"/>
<text text-anchor="middle" x="1252" y="-724.8" font-family="Times,serif" font-size="14.00">RESPONSE</text>
</g>
<!-- gateway:8080#ServerID_OuterContainerID&#45;&gt;1_fwatchdog#ServerID_6df85d7674&#45;grtsk -->
<g id="edge8" class="edge"><title>gateway:8080#ServerID_OuterContainerID&#45;&gt;1_fwatchdog#ServerID_6df85d7674&#45;grtsk</title>
<path fill="none" stroke="black" d="M988.454,-681.992C985.376,-696.416 980.689,-717.636 976,-736 975.32,-738.664 974.582,-741.432 973.826,-744.194"/>
<polygon fill="black" stroke="black" points="970.417,-743.388 971.077,-753.963 977.155,-745.285 970.417,-743.388"/>
<text text-anchor="middle" x="1022" y="-724.8" font-family="Times,serif" font-size="14.00">RESPONSE</text>
</g>
<!-- 10.1.80.247:45850#ServerID_OuterContainerID&#45;&gt;1_fwatchdog#ServerID_6df85d7674&#45;grtsk -->
<g id="edge3" class="edge"><title>10.1.80.247:45850#ServerID_OuterContainerID&#45;&gt;1_fwatchdog#ServerID_6df85d7674&#45;grtsk</title>
<path fill="none" stroke="black" d="M1590.2,-678.848C1520.41,-694.594 1401.37,-720.162 1298,-736 1245.79,-743.999 1188.69,-750.738 1136.78,-756.101"/>
<polygon fill="black" stroke="black" points="1136.41,-752.621 1126.81,-757.12 1137.12,-759.584 1136.41,-752.621"/>
<text text-anchor="middle" x="1406" y="-724.8" font-family="Times,serif" font-size="14.00">POST</text>
</g>
<!-- 1_fwatchdog#ServerID_3113a7a2a86a -->
<g id="node7" class="node"><title>1_fwatchdog#ServerID_3113a7a2a86a</title>
<polygon fill="none" stroke="black" points="2156.5,-985 1859.5,-985 1859.5,-949 2156.5,-949 2156.5,-985"/>
<text text-anchor="middle" x="2008" y="-963.3" font-family="Times,serif" font-size="14.00">1_fwatchdog#ServerID_3113a7a2a86a</text>
</g>
<!-- 10.1.80.247:45850#ServerID_OuterContainerID&#45;&gt;1_fwatchdog#ServerID_3113a7a2a86a -->
<g id="edge9" class="edge"><title>10.1.80.247:45850#ServerID_OuterContainerID&#45;&gt;1_fwatchdog#ServerID_3113a7a2a86a</title>
<path fill="none" stroke="black" d="M1725.1,-678.007C1794.8,-689.469 1901.57,-705.479 1995,-713 2034.55,-716.184 2313.48,-711.479 2352,-721 2488.42,-754.72 2561.04,-742.515 2635,-862 2643.42,-875.604 2645.69,-886.092 2635,-898 2604.2,-932.323 2342.37,-950.921 2166.94,-959.626"/>
<polygon fill="black" stroke="black" points="2166.64,-956.136 2156.83,-960.122 2166.99,-963.128 2166.64,-956.136"/>
<text text-anchor="middle" x="2640.5" y="-832.8" font-family="Times,serif" font-size="14.00">read</text>
</g>
<!-- 1_fwatchdog#ServerID_5f846fd567&#45;srhtc -->
<g id="node5" class="node"><title>1_fwatchdog#ServerID_5f846fd567&#45;srhtc</title>
<polygon fill="none" stroke="black" points="3169.5,-790 2852.5,-790 2852.5,-754 3169.5,-754 3169.5,-790"/>
<text text-anchor="middle" x="3011" y="-768.3" font-family="Times,serif" font-size="14.00">1_fwatchdog#ServerID_5f846fd567&#45;srhtc</text>
</g>
<!-- 10.1.80.247:40380#ServerID_OuterContainerID -->
<g id="node6" class="node"><title>10.1.80.247:40380#ServerID_OuterContainerID</title>
<polygon fill="none" stroke="black" points="3012,-682 2676.52,-664 3012,-646 3347.48,-664 3012,-682"/>
<text text-anchor="middle" x="3012" y="-660.3" font-family="Times,serif" font-size="14.00">10.1.80.247:40380#ServerID_OuterContainerID</text>
</g>
<!-- 1_fwatchdog#ServerID_5f846fd567&#45;srhtc&#45;&gt;10.1.80.247:40380#ServerID_OuterContainerID -->
<g id="edge4" class="edge"><title>1_fwatchdog#ServerID_5f846fd567&#45;srhtc&#45;&gt;10.1.80.247:40380#ServerID_OuterContainerID</title>
<path fill="none" stroke="black" d="M2975.26,-753.861C2968.73,-749.032 2962.78,-743.108 2959,-736 2955.87,-730.115 2956.53,-727.194 2959,-721 2964,-708.439 2973.31,-697.073 2982.74,-687.914"/>
<polygon fill="black" stroke="black" points="2985.22,-690.386 2990.25,-681.061 2980.51,-685.214 2985.22,-690.386"/>
<text text-anchor="middle" x="3001" y="-724.8" font-family="Times,serif" font-size="14.00">RESPONSE</text>
</g>
<!-- 10.1.80.247:40380#ServerID_OuterContainerID&#45;&gt;1_fwatchdog#ServerID_5f846fd567&#45;srhtc -->
<g id="edge7" class="edge"><title>10.1.80.247:40380#ServerID_OuterContainerID&#45;&gt;1_fwatchdog#ServerID_5f846fd567&#45;srhtc</title>
<path fill="none" stroke="black" d="M3027.08,-681.48C3038.24,-695.767 3050.35,-717.067 3043,-736 3041.64,-739.507 3039.74,-742.876 3037.55,-746.046"/>
<polygon fill="black" stroke="black" points="3034.75,-743.944 3031.2,-753.928 3040.2,-748.335 3034.75,-743.944"/>
<text text-anchor="middle" x="3066" y="-724.8" font-family="Times,serif" font-size="14.00">POST</text>
</g>
<!-- 1_fwatchdog#ServerID_9c632c9c841a -->
<g id="node13" class="node"><title>1_fwatchdog#ServerID_9c632c9c841a</title>
<polygon fill="none" stroke="black" points="3807.5,-574 3510.5,-574 3510.5,-538 3807.5,-538 3807.5,-574"/>
<text text-anchor="middle" x="3659" y="-552.3" font-family="Times,serif" font-size="14.00">1_fwatchdog#ServerID_9c632c9c841a</text>
</g>
<!-- 10.1.80.247:40380#ServerID_OuterContainerID&#45;&gt;1_fwatchdog#ServerID_9c632c9c841a -->
<g id="edge18" class="edge"><title>10.1.80.247:40380#ServerID_OuterContainerID&#45;&gt;1_fwatchdog#ServerID_9c632c9c841a</title>
<path fill="none" stroke="black" d="M3090.37,-650.161C3203.82,-631.574 3414.49,-597.059 3545.11,-575.66"/>
<polygon fill="black" stroke="black" points="3545.85,-579.085 3555.15,-574.014 3544.71,-572.177 3545.85,-579.085"/>
<text text-anchor="middle" x="3333.5" y="-616.8" font-family="Times,serif" font-size="14.00">read</text>
</g>
<!-- localhost:3000#ServerID_3113a7a2a86a -->
<g id="node8" class="node"><title>localhost:3000#ServerID_3113a7a2a86a</title>
<polygon fill="none" stroke="black" points="1538,-898 1252.28,-880 1538,-862 1823.72,-880 1538,-898"/>
<text text-anchor="middle" x="1538" y="-876.3" font-family="Times,serif" font-size="14.00">localhost:3000#ServerID_3113a7a2a86a</text>
</g>
<!-- 1_fwatchdog#ServerID_3113a7a2a86a&#45;&gt;localhost:3000#ServerID_3113a7a2a86a -->
<g id="edge6" class="edge"><title>1_fwatchdog#ServerID_3113a7a2a86a&#45;&gt;localhost:3000#ServerID_3113a7a2a86a</title>
<path fill="none" stroke="black" d="M1913.74,-948.952C1827.04,-933.274 1699.9,-910.28 1618.03,-895.474"/>
<polygon fill="black" stroke="black" points="1618.49,-892 1608.03,-893.665 1617.25,-898.889 1618.49,-892"/>
<text text-anchor="middle" x="1821" y="-919.8" font-family="Times,serif" font-size="14.00">write</text>
</g>
<!-- 12_node#ServerID_3113a7a2a86a -->
<g id="node9" class="node"><title>12_node#ServerID_3113a7a2a86a</title>
<polygon fill="none" stroke="black" points="2269,-790 2003,-790 2003,-754 2269,-754 2269,-790"/>
<text text-anchor="middle" x="2136" y="-768.3" font-family="Times,serif" font-size="14.00">12_node#ServerID_3113a7a2a86a</text>
</g>
<!-- localhost:3000#ServerID_3113a7a2a86a&#45;&gt;12_node#ServerID_3113a7a2a86a -->
<g id="edge12" class="edge"><title>localhost:3000#ServerID_3113a7a2a86a&#45;&gt;12_node#ServerID_3113a7a2a86a</title>
<path fill="none" stroke="black" d="M1608.95,-866.424C1713.22,-847.942 1908.59,-813.311 2029.94,-791.8"/>
<polygon fill="black" stroke="black" points="2030.76,-795.209 2040,-790.017 2029.54,-788.317 2030.76,-795.209"/>
<text text-anchor="middle" x="1836.5" y="-832.8" font-family="Times,serif" font-size="14.00">read</text>
</g>
<!-- 12_node#ServerID_3113a7a2a86a&#45;&gt;gateway:8080#ServerID_OuterContainerID -->
<g id="edge16" class="edge"><title>12_node#ServerID_3113a7a2a86a&#45;&gt;gateway:8080#ServerID_OuterContainerID</title>
<path fill="none" stroke="black" d="M2002.97,-761.328C1861.05,-751.07 1629.68,-734.512 1430,-721 1374.9,-717.272 1360.9,-718.956 1306,-713 1226.77,-704.405 1136.92,-690.217 1073.7,-679.49"/>
<polygon fill="black" stroke="black" points="1074.23,-676.03 1063.79,-677.799 1073.06,-682.931 1074.23,-676.03"/>
<text text-anchor="middle" x="1673" y="-724.8" font-family="Times,serif" font-size="14.00">connect</text>
</g>
<!-- 10.152.183.10:53#ServerID_OuterContainerID -->
<g id="node10" class="node"><title>10.152.183.10:53#ServerID_OuterContainerID</title>
<polygon fill="none" stroke="black" points="2331,-682 2003.56,-664 2331,-646 2658.44,-664 2331,-682"/>
<text text-anchor="middle" x="2331" y="-660.3" font-family="Times,serif" font-size="14.00">10.152.183.10:53#ServerID_OuterContainerID</text>
</g>
<!-- 12_node#ServerID_3113a7a2a86a&#45;&gt;10.152.183.10:53#ServerID_OuterContainerID -->
<g id="edge10" class="edge"><title>12_node#ServerID_3113a7a2a86a&#45;&gt;10.152.183.10:53#ServerID_OuterContainerID</title>
<path fill="none" stroke="black" d="M2160.45,-753.931C2175.34,-743.842 2194.91,-731.107 2213,-721 2236.82,-707.693 2264.31,-694.525 2286.76,-684.305"/>
<polygon fill="black" stroke="black" points="2288.38,-687.416 2296.05,-680.113 2285.5,-681.036 2288.38,-687.416"/>
<text text-anchor="middle" x="2237.5" y="-724.8" font-family="Times,serif" font-size="14.00">sendto</text>
</g>
<!-- 10.152.183.10:53#ServerID_OuterContainerID&#45;&gt;12_node#ServerID_3113a7a2a86a -->
<g id="edge15" class="edge"><title>10.152.183.10:53#ServerID_OuterContainerID&#45;&gt;12_node#ServerID_3113a7a2a86a</title>
<path fill="none" stroke="black" d="M2319.15,-681.546C2306.69,-697.744 2285.65,-721.971 2262,-736 2252.33,-741.733 2241.7,-746.557 2230.82,-750.61"/>
<polygon fill="black" stroke="black" points="2229.5,-747.364 2221.22,-753.976 2231.82,-753.969 2229.5,-747.364"/>
<text text-anchor="middle" x="2315" y="-724.8" font-family="Times,serif" font-size="14.00">recvfrom</text>
</g>
<!-- /etc/hosts#ServerID_3113a7a2a86a -->
<g id="node11" class="node"><title>/etc/hosts#ServerID_3113a7a2a86a</title>
<ellipse fill="none" stroke="black" cx="2447" cy="-880" rx="178.969" ry="18"/>
<text text-anchor="middle" x="2447" y="-876.3" font-family="Times,serif" font-size="14.00">/etc/hosts#ServerID_3113a7a2a86a</text>
</g>
<!-- /etc/hosts#ServerID_3113a7a2a86a&#45;&gt;12_node#ServerID_3113a7a2a86a -->
<g id="edge13" class="edge"><title>/etc/hosts#ServerID_3113a7a2a86a&#45;&gt;12_node#ServerID_3113a7a2a86a</title>
<path fill="none" stroke="black" d="M2398.75,-862.554C2343.96,-843.88 2254.54,-813.403 2195.48,-793.273"/>
<polygon fill="black" stroke="black" points="2196.51,-789.925 2185.91,-790.012 2194.25,-796.551 2196.51,-789.925"/>
<text text-anchor="middle" x="2354.5" y="-832.8" font-family="Times,serif" font-size="14.00">read</text>
</g>
<!-- /etc/resolv.conf#ServerID_3113a7a2a86a -->
<g id="node12" class="node"><title>/etc/resolv.conf#ServerID_3113a7a2a86a</title>
<ellipse fill="none" stroke="black" cx="2046" cy="-880" rx="204.164" ry="18"/>
<text text-anchor="middle" x="2046" y="-876.3" font-family="Times,serif" font-size="14.00">/etc/resolv.conf#ServerID_3113a7a2a86a</text>
</g>
<!-- /etc/resolv.conf#ServerID_3113a7a2a86a&#45;&gt;12_node#ServerID_3113a7a2a86a -->
<g id="edge14" class="edge"><title>/etc/resolv.conf#ServerID_3113a7a2a86a&#45;&gt;12_node#ServerID_3113a7a2a86a</title>
<path fill="none" stroke="black" d="M2060.46,-861.969C2075.13,-844.687 2098.01,-817.743 2114.75,-798.032"/>
<polygon fill="black" stroke="black" points="2117.47,-800.229 2121.28,-790.341 2112.14,-795.698 2117.47,-800.229"/>
<text text-anchor="middle" x="2105.5" y="-832.8" font-family="Times,serif" font-size="14.00">read</text>
</g>
<!-- localhost:3000#ServerID_9c632c9c841a -->
<g id="node14" class="node"><title>localhost:3000#ServerID_9c632c9c841a</title>
<polygon fill="none" stroke="black" points="3659,-487 3373.28,-469 3659,-451 3944.72,-469 3659,-487"/>
<text text-anchor="middle" x="3659" y="-465.3" font-family="Times,serif" font-size="14.00">localhost:3000#ServerID_9c632c9c841a</text>
</g>
<!-- 1_fwatchdog#ServerID_9c632c9c841a&#45;&gt;localhost:3000#ServerID_9c632c9c841a -->
<g id="edge17" class="edge"><title>1_fwatchdog#ServerID_9c632c9c841a&#45;&gt;localhost:3000#ServerID_9c632c9c841a</title>
<path fill="none" stroke="black" d="M3639.42,-537.764C3631.33,-528.482 3624.72,-516.583 3629,-505 3630.4,-501.224 3632.4,-497.58 3634.73,-494.162"/>
<polygon fill="black" stroke="black" points="3637.56,-496.214 3640.98,-486.186 3632.06,-491.893 3637.56,-496.214"/>
<text text-anchor="middle" x="3648" y="-508.8" font-family="Times,serif" font-size="14.00">write</text>
</g>
<!-- pipe:[240002549]#ServerID_9c632c9c841a -->
<g id="node23" class="node"><title>pipe:[240002549]#ServerID_9c632c9c841a</title>
<ellipse fill="none" stroke="black" cx="4179" cy="-469" rx="215.562" ry="18"/>
<text text-anchor="middle" x="4179" y="-465.3" font-family="Times,serif" font-size="14.00">pipe:[240002549]#ServerID_9c632c9c841a</text>
</g>
<!-- 1_fwatchdog#ServerID_9c632c9c841a&#45;&gt;pipe:[240002549]#ServerID_9c632c9c841a -->
<g id="edge30" class="edge"><title>1_fwatchdog#ServerID_9c632c9c841a&#45;&gt;pipe:[240002549]#ServerID_9c632c9c841a</title>
<path fill="none" stroke="black" d="M3763.29,-537.952C3854.17,-523.098 3985.22,-501.676 4075.78,-486.873"/>
<polygon fill="black" stroke="black" points="4076.48,-490.304 4085.79,-485.237 4075.35,-483.396 4076.48,-490.304"/>
<text text-anchor="middle" x="3969" y="-508.8" font-family="Times,serif" font-size="14.00">write</text>
</g>
<!-- localhost:3000#ServerID_9c632c9c841a&#45;&gt;1_fwatchdog#ServerID_9c632c9c841a -->
<g id="edge29" class="edge"><title>localhost:3000#ServerID_9c632c9c841a&#45;&gt;1_fwatchdog#ServerID_9c632c9c841a</title>
<path fill="none" stroke="black" d="M3664.05,-487.071C3666.32,-496.709 3668.24,-508.993 3667,-520 3666.71,-522.547 3666.31,-525.179 3665.84,-527.803"/>
<polygon fill="black" stroke="black" points="3662.39,-527.18 3663.77,-537.686 3669.25,-528.617 3662.39,-527.18"/>
<text text-anchor="middle" x="3683.5" y="-508.8" font-family="Times,serif" font-size="14.00">read</text>
</g>
<!-- 10_node#ServerID_9c632c9c841a -->
<g id="node15" class="node"><title>10_node#ServerID_9c632c9c841a</title>
<polygon fill="none" stroke="black" points="3794,-400 3528,-400 3528,-364 3794,-364 3794,-400"/>
<text text-anchor="middle" x="3661" y="-378.3" font-family="Times,serif" font-size="14.00">10_node#ServerID_9c632c9c841a</text>
</g>
<!-- localhost:3000#ServerID_9c632c9c841a&#45;&gt;10_node#ServerID_9c632c9c841a -->
<g id="edge19" class="edge"><title>localhost:3000#ServerID_9c632c9c841a&#45;&gt;10_node#ServerID_9c632c9c841a</title>
<path fill="none" stroke="black" d="M3659.4,-450.799C3659.68,-439.163 3660.05,-423.548 3660.36,-410.237"/>
<polygon fill="black" stroke="black" points="3663.86,-410.255 3660.6,-400.175 3656.86,-410.09 3663.86,-410.255"/>
<text text-anchor="middle" x="3676.5" y="-421.8" font-family="Times,serif" font-size="14.00">read</text>
</g>
<!-- /dev/null#ServerID_9c632c9c841a -->
<g id="node16" class="node"><title>/dev/null#ServerID_9c632c9c841a</title>
<ellipse fill="none" stroke="black" cx="3545" cy="-295" rx="173.569" ry="18"/>
<text text-anchor="middle" x="3545" y="-291.3" font-family="Times,serif" font-size="14.00">/dev/null#ServerID_9c632c9c841a</text>
</g>
<!-- 10_node#ServerID_9c632c9c841a&#45;&gt;/dev/null#ServerID_9c632c9c841a -->
<g id="edge28" class="edge"><title>10_node#ServerID_9c632c9c841a&#45;&gt;/dev/null#ServerID_9c632c9c841a</title>
<path fill="none" stroke="black" d="M3584.17,-364C3574.81,-359.373 3566.07,-353.488 3559,-346 3553.17,-339.824 3549.73,-331.421 3547.72,-323.268"/>
<polygon fill="black" stroke="black" points="3551.13,-322.45 3545.86,-313.259 3544.25,-323.731 3551.13,-322.45"/>
<text text-anchor="middle" x="3578" y="-334.8" font-family="Times,serif" font-size="14.00">write</text>
</g>
<!-- pipe:[240003687]#ServerID_9c632c9c841a -->
<g id="node17" class="node"><title>pipe:[240003687]#ServerID_9c632c9c841a</title>
<ellipse fill="none" stroke="black" cx="4245" cy="-295" rx="215.562" ry="18"/>
<text text-anchor="middle" x="4245" y="-291.3" font-family="Times,serif" font-size="14.00">pipe:[240003687]#ServerID_9c632c9c841a</text>
</g>
<!-- 10_node#ServerID_9c632c9c841a&#45;&gt;pipe:[240003687]#ServerID_9c632c9c841a -->
<g id="edge22" class="edge"><title>10_node#ServerID_9c632c9c841a&#45;&gt;pipe:[240003687]#ServerID_9c632c9c841a</title>
<path fill="none" stroke="black" d="M3778.13,-363.952C3881.41,-348.92 4030.89,-327.163 4132.7,-312.345"/>
<polygon fill="black" stroke="black" points="4133.32,-315.792 4142.71,-310.889 4132.31,-308.865 4133.32,-315.792"/>
<text text-anchor="middle" x="4006" y="-334.8" font-family="Times,serif" font-size="14.00">write</text>
</g>
<!-- 103_node#ServerID_9c632c9c841a -->
<g id="node18" class="node"><title>103_node#ServerID_9c632c9c841a</title>
<polygon fill="none" stroke="black" points="4011.5,-313 3736.5,-313 3736.5,-277 4011.5,-277 4011.5,-313"/>
<text text-anchor="middle" x="3874" y="-291.3" font-family="Times,serif" font-size="14.00">103_node#ServerID_9c632c9c841a</text>
</g>
<!-- 10_node#ServerID_9c632c9c841a&#45;&gt;103_node#ServerID_9c632c9c841a -->
<g id="edge23" class="edge"><title>10_node#ServerID_9c632c9c841a&#45;&gt;103_node#ServerID_9c632c9c841a</title>
<path fill="none" stroke="black" d="M3703.85,-363.901C3737.86,-350.328 3785.56,-331.295 3821.8,-316.832"/>
<polygon fill="black" stroke="black" points="3823.23,-320.029 3831.22,-313.071 3820.64,-313.527 3823.23,-320.029"/>
<text text-anchor="middle" x="3795" y="-334.8" font-family="Times,serif" font-size="14.00">fork</text>
</g>
<!-- /dev/null#ServerID_9c632c9c841a&#45;&gt;10_node#ServerID_9c632c9c841a -->
<g id="edge20" class="edge"><title>/dev/null#ServerID_9c632c9c841a&#45;&gt;10_node#ServerID_9c632c9c841a</title>
<path fill="none" stroke="black" d="M3573.69,-312.894C3582.61,-318.418 3592.36,-324.747 3601,-331 3612.18,-339.094 3623.95,-348.657 3634.08,-357.24"/>
<polygon fill="black" stroke="black" points="3631.94,-360.014 3641.81,-363.867 3636.5,-354.7 3631.94,-360.014"/>
<text text-anchor="middle" x="3635.5" y="-334.8" font-family="Times,serif" font-size="14.00">read</text>
</g>
<!-- pipe:[240003687]#ServerID_9c632c9c841a&#45;&gt;10_node#ServerID_9c632c9c841a -->
<g id="edge21" class="edge"><title>pipe:[240003687]#ServerID_9c632c9c841a&#45;&gt;10_node#ServerID_9c632c9c841a</title>
<path fill="none" stroke="black" d="M4195.14,-312.524C4159.33,-323.733 4109.68,-337.93 4065,-346 3979.3,-361.478 3882.1,-370.17 3804.52,-375.02"/>
<polygon fill="black" stroke="black" points="3803.96,-371.547 3794.19,-375.65 3804.38,-378.534 3803.96,-371.547"/>
<text text-anchor="middle" x="4146.5" y="-334.8" font-family="Times,serif" font-size="14.00">read</text>
</g>
<!-- 103_sh#ServerID_9c632c9c841a -->
<g id="node19" class="node"><title>103_sh#ServerID_9c632c9c841a</title>
<polygon fill="none" stroke="black" points="4002.5,-226 3745.5,-226 3745.5,-190 4002.5,-190 4002.5,-226"/>
<text text-anchor="middle" x="3874" y="-204.3" font-family="Times,serif" font-size="14.00">103_sh#ServerID_9c632c9c841a</text>
</g>
<!-- 103_node#ServerID_9c632c9c841a&#45;&gt;103_sh#ServerID_9c632c9c841a -->
<g id="edge24" class="edge"><title>103_node#ServerID_9c632c9c841a&#45;&gt;103_sh#ServerID_9c632c9c841a</title>
<path fill="none" stroke="black" d="M3874,-276.799C3874,-265.163 3874,-249.548 3874,-236.237"/>
<polygon fill="black" stroke="black" points="3877.5,-236.175 3874,-226.175 3870.5,-236.175 3877.5,-236.175"/>
<text text-anchor="middle" x="3899" y="-247.8" font-family="Times,serif" font-size="14.00">execve</text>
</g>
<!-- 104_sh#ServerID_9c632c9c841a -->
<g id="node20" class="node"><title>104_sh#ServerID_9c632c9c841a</title>
<polygon fill="none" stroke="black" points="3900.5,-139 3643.5,-139 3643.5,-103 3900.5,-103 3900.5,-139"/>
<text text-anchor="middle" x="3772" y="-117.3" font-family="Times,serif" font-size="14.00">104_sh#ServerID_9c632c9c841a</text>
</g>
<!-- 103_sh#ServerID_9c632c9c841a&#45;&gt;104_sh#ServerID_9c632c9c841a -->
<g id="edge25" class="edge"><title>103_sh#ServerID_9c632c9c841a&#45;&gt;104_sh#ServerID_9c632c9c841a</title>
<path fill="none" stroke="black" d="M3853.36,-189.799C3838.15,-177.126 3817.28,-159.734 3800.49,-145.738"/>
<polygon fill="black" stroke="black" points="3802.53,-142.889 3792.61,-139.175 3798.05,-148.266 3802.53,-142.889"/>
<text text-anchor="middle" x="3844" y="-160.8" font-family="Times,serif" font-size="14.00">fork</text>
</g>
<!-- /home/app/3.txt#ServerID_9c632c9c841a -->
<g id="node22" class="node"><title>/home/app/3.txt#ServerID_9c632c9c841a</title>
<ellipse fill="none" stroke="black" cx="4125" cy="-121" rx="206.863" ry="18"/>
<text text-anchor="middle" x="4125" y="-117.3" font-family="Times,serif" font-size="14.00">/home/app/3.txt#ServerID_9c632c9c841a</text>
</g>
<!-- 103_sh#ServerID_9c632c9c841a&#45;&gt;/home/app/3.txt#ServerID_9c632c9c841a -->
<g id="edge27" class="edge"><title>103_sh#ServerID_9c632c9c841a&#45;&gt;/home/app/3.txt#ServerID_9c632c9c841a</title>
<path fill="none" stroke="black" d="M3924.49,-189.901C3965.62,-175.974 4023.72,-156.3 4066.79,-141.711"/>
<polygon fill="black" stroke="black" points="4067.95,-145.016 4076.3,-138.493 4065.7,-138.386 4067.95,-145.016"/>
<text text-anchor="middle" x="4033" y="-160.8" font-family="Times,serif" font-size="14.00">write</text>
</g>
<!-- 104_touch#ServerID_9c632c9c841a -->
<g id="node21" class="node"><title>104_touch#ServerID_9c632c9c841a</title>
<polygon fill="none" stroke="black" points="3912.5,-52 3631.5,-52 3631.5,-16 3912.5,-16 3912.5,-52"/>
<text text-anchor="middle" x="3772" y="-30.3" font-family="Times,serif" font-size="14.00">104_touch#ServerID_9c632c9c841a</text>
</g>
<!-- 104_sh#ServerID_9c632c9c841a&#45;&gt;104_touch#ServerID_9c632c9c841a -->
<g id="edge26" class="edge"><title>104_sh#ServerID_9c632c9c841a&#45;&gt;104_touch#ServerID_9c632c9c841a</title>
<path fill="none" stroke="black" d="M3772,-102.799C3772,-91.1626 3772,-75.5479 3772,-62.2368"/>
<polygon fill="black" stroke="black" points="3775.5,-62.1754 3772,-52.1754 3768.5,-62.1755 3775.5,-62.1754"/>
<text text-anchor="middle" x="3797" y="-73.8" font-family="Times,serif" font-size="14.00">execve</text>
</g>
<!-- 10.1.80.1:13756#ServerID_OuterContainerID&#45;&gt;10.1.80.247:8080#ServerID_OuterContainerID -->
<g id="edge31" class="edge"><title>10.1.80.1:13756#ServerID_OuterContainerID&#45;&gt;10.1.80.247:8080#ServerID_OuterContainerID</title>
<path fill="none" stroke="black" d="M960.751,-570.566C887.78,-586.107 763.066,-611.54 655,-628 593.746,-637.33 525.373,-645.275 468.28,-651.226"/>
<polygon fill="black" stroke="black" points="467.71,-647.766 458.123,-652.276 468.43,-654.729 467.71,-647.766"/>
<text text-anchor="middle" x="757" y="-616.8" font-family="Times,serif" font-size="14.00">POST</text>
</g>
</g>
</svg>
