<?xml version="1.0" encoding="UTF-8" standalone="no"?>
<!DOCTYPE svg PUBLIC "-//W3C//DTD SVG 1.1//EN"
 "http://www.w3.org/Graphics/SVG/1.1/DTD/svg11.dtd">
<!-- Generated by graphviz version 2.38.0 (20140413.2041)
 -->
<!-- Title: G Pages: 1 -->
<svg width="4327pt" height="510pt"
 viewBox="0.00 0.00 4327.00 510.00" xmlns="http://www.w3.org/2000/svg" xmlns:xlink="http://www.w3.org/1999/xlink">
<g id="graph0" class="graph" transform="scale(1 1) rotate(0) translate(4 506)">
<title>G</title>
<polygon fill="white" stroke="none" points="-4,4 -4,-506 4323,-506 4323,4 -4,4"/>
<g id="clust1" class="cluster"><title>clusterServerID_667d78fb58&#45;2fhs5</title>
<polygon fill="none" stroke="black" points="785,-311 785,-386 1125,-386 1125,-311 785,-311"/>
<text text-anchor="middle" x="955" y="-370.8" font-family="Times,serif" font-size="14.00">clusterServerID_667d78fb58&#45;2fhs5</text>
</g>
<g id="clust2" class="cluster"><title>clusterServerID_6dcbcc88d5&#45;4vpdn</title>
<polygon fill="none" stroke="black" points="3967,-95 3967,-170 4311,-170 4311,-95 3967,-95"/>
<text text-anchor="middle" x="4139" y="-154.8" font-family="Times,serif" font-size="14.00">clusterServerID_6dcbcc88d5&#45;4vpdn</text>
</g>
<g id="clust3" class="cluster"><title>clusterServerID_79226724f3b6</title>
<polygon fill="none" stroke="black" points="8,-8 8,-278 604,-278 604,-8 8,-8"/>
<text text-anchor="middle" x="306" y="-262.8" font-family="Times,serif" font-size="14.00">clusterServerID_79226724f3b6</text>
</g>
<g id="clust4" class="cluster"><title>clusterServerID_OuterContainerID</title>
<polygon fill="none" stroke="black" points="612,-95 612,-278 3959,-278 3959,-95 612,-95"/>
<text text-anchor="middle" x="2285.5" y="-262.8" font-family="Times,serif" font-size="14.00">clusterServerID_OuterContainerID</text>
</g>
<g id="clust5" class="cluster"><title>clusterServerID_d4de233c55aa</title>
<polygon fill="none" stroke="black" points="2245,-311 2245,-494 3635,-494 3635,-311 2245,-311"/>
<text text-anchor="middle" x="2940" y="-478.8" font-family="Times,serif" font-size="14.00">clusterServerID_d4de233c55aa</text>
</g>
<!-- 10.1.80.247:32860#ServerID_OuterContainerID -->
<g id="node1" class="node"><title>10.1.80.247:32860#ServerID_OuterContainerID</title>
<polygon fill="none" stroke="black" points="955,-247 619.515,-229 955,-211 1290.48,-229 955,-247"/>
<text text-anchor="middle" x="955" y="-225.3" font-family="Times,serif" font-size="14.00">10.1.80.247:32860#ServerID_OuterContainerID</text>
</g>
<!-- 1_fwatchdog#ServerID_667d78fb58&#45;2fhs5 -->
<g id="node2" class="node"><title>1_fwatchdog#ServerID_667d78fb58&#45;2fhs5</title>
<polygon fill="none" stroke="black" points="1116.5,-355 793.5,-355 793.5,-319 1116.5,-319 1116.5,-355"/>
<text text-anchor="middle" x="955" y="-333.3" font-family="Times,serif" font-size="14.00">1_fwatchdog#ServerID_667d78fb58&#45;2fhs5</text>
</g>
<!-- 10.1.80.247:32860#ServerID_OuterContainerID&#45;&gt;1_fwatchdog#ServerID_667d78fb58&#45;2fhs5 -->
<g id="edge1" class="edge"><title>10.1.80.247:32860#ServerID_OuterContainerID&#45;&gt;1_fwatchdog#ServerID_667d78fb58&#45;2fhs5</title>
<path fill="none" stroke="black" d="M940.461,-246.47C929.687,-260.752 917.99,-282.049 925,-301 926.231,-304.328 927.936,-307.554 929.914,-310.612"/>
<polygon fill="black" stroke="black" points="927.225,-312.86 936.041,-318.736 932.813,-308.644 927.225,-312.86"/>
<text text-anchor="middle" x="945" y="-289.8" font-family="Times,serif" font-size="14.00">POST</text>
</g>
<!-- 1_fwatchdog#ServerID_79226724f3b6 -->
<g id="node14" class="node"><title>1_fwatchdog#ServerID_79226724f3b6</title>
<polygon fill="none" stroke="black" points="596,-139 300,-139 300,-103 596,-103 596,-139"/>
<text text-anchor="middle" x="448" y="-117.3" font-family="Times,serif" font-size="14.00">1_fwatchdog#ServerID_79226724f3b6</text>
</g>
<!-- 10.1.80.247:32860#ServerID_OuterContainerID&#45;&gt;1_fwatchdog#ServerID_79226724f3b6 -->
<g id="edge19" class="edge"><title>10.1.80.247:32860#ServerID_OuterContainerID&#45;&gt;1_fwatchdog#ServerID_79226724f3b6</title>
<path fill="none" stroke="black" d="M863.419,-215.903C793.095,-205.842 693.815,-189.961 608,-170 574.755,-162.267 538.26,-151.499 508.53,-142.121"/>
<polygon fill="black" stroke="black" points="509.312,-138.697 498.721,-139 507.189,-145.367 509.312,-138.697"/>
<text text-anchor="middle" x="729.5" y="-181.8" font-family="Times,serif" font-size="14.00">read</text>
</g>
<!-- 1_fwatchdog#ServerID_667d78fb58&#45;2fhs5&#45;&gt;10.1.80.247:32860#ServerID_OuterContainerID -->
<g id="edge4" class="edge"><title>1_fwatchdog#ServerID_667d78fb58&#45;2fhs5&#45;&gt;10.1.80.247:32860#ServerID_OuterContainerID</title>
<path fill="none" stroke="black" d="M960.955,-318.759C962.609,-313.165 964.176,-306.883 965,-301 967.044,-286.409 965.06,-270.133 962.336,-256.849"/>
<polygon fill="black" stroke="black" points="965.707,-255.889 960.056,-246.927 958.884,-257.457 965.707,-255.889"/>
<text text-anchor="middle" x="1008" y="-289.8" font-family="Times,serif" font-size="14.00">RESPONSE</text>
</g>
<!-- 1_fwatchdog#ServerID_6dcbcc88d5&#45;4vpdn -->
<g id="node3" class="node"><title>1_fwatchdog#ServerID_6dcbcc88d5&#45;4vpdn</title>
<polygon fill="none" stroke="black" points="4303.5,-139 3974.5,-139 3974.5,-103 4303.5,-103 4303.5,-139"/>
<text text-anchor="middle" x="4139" y="-117.3" font-family="Times,serif" font-size="14.00">1_fwatchdog#ServerID_6dcbcc88d5&#45;4vpdn</text>
</g>
<!-- 10.1.80.247:8080#ServerID_OuterContainerID -->
<g id="node4" class="node"><title>10.1.80.247:8080#ServerID_OuterContainerID</title>
<polygon fill="none" stroke="black" points="1636,-247 1308.56,-229 1636,-211 1963.44,-229 1636,-247"/>
<text text-anchor="middle" x="1636" y="-225.3" font-family="Times,serif" font-size="14.00">10.1.80.247:8080#ServerID_OuterContainerID</text>
</g>
<!-- 1_fwatchdog#ServerID_6dcbcc88d5&#45;4vpdn&#45;&gt;10.1.80.247:8080#ServerID_OuterContainerID -->
<g id="edge2" class="edge"><title>1_fwatchdog#ServerID_6dcbcc88d5&#45;4vpdn&#45;&gt;10.1.80.247:8080#ServerID_OuterContainerID</title>
<path fill="none" stroke="black" d="M4090.02,-139.062C4055.1,-150.309 4006.78,-164.025 3963,-170 3875.75,-181.908 2466,-174.816 2378,-178 2163.42,-185.764 1914.5,-204.541 1766.41,-216.746"/>
<polygon fill="black" stroke="black" points="1766.04,-213.265 1756.37,-217.577 1766.62,-220.241 1766.04,-213.265"/>
<text text-anchor="middle" x="2398" y="-181.8" font-family="Times,serif" font-size="14.00">POST</text>
</g>
<!-- 10.1.80.247:59512#ServerID_OuterContainerID -->
<g id="node5" class="node"><title>10.1.80.247:59512#ServerID_OuterContainerID</title>
<polygon fill="none" stroke="black" points="2317,-247 1981.52,-229 2317,-211 2652.48,-229 2317,-247"/>
<text text-anchor="middle" x="2317" y="-225.3" font-family="Times,serif" font-size="14.00">10.1.80.247:59512#ServerID_OuterContainerID</text>
</g>
<!-- 1_fwatchdog#ServerID_6dcbcc88d5&#45;4vpdn&#45;&gt;10.1.80.247:59512#ServerID_OuterContainerID -->
<g id="edge3" class="edge"><title>1_fwatchdog#ServerID_6dcbcc88d5&#45;4vpdn&#45;&gt;10.1.80.247:59512#ServerID_OuterContainerID</title>
<path fill="none" stroke="black" d="M4089.64,-139.096C4054.74,-150.281 4006.6,-163.908 3963,-170 3885.75,-180.794 3338.96,-175.492 3261,-178 2981.54,-186.989 2655.96,-206.158 2469.41,-217.976"/>
<polygon fill="black" stroke="black" points="2469.02,-214.494 2459.26,-218.621 2469.46,-221.48 2469.02,-214.494"/>
<text text-anchor="middle" x="3303" y="-181.8" font-family="Times,serif" font-size="14.00">RESPONSE</text>
</g>
<!-- gateway:8080#ServerID_OuterContainerID -->
<g id="node6" class="node"><title>gateway:8080#ServerID_OuterContainerID</title>
<polygon fill="none" stroke="black" points="2975,-247 2670.52,-229 2975,-211 3279.48,-229 2975,-247"/>
<text text-anchor="middle" x="2975" y="-225.3" font-family="Times,serif" font-size="14.00">gateway:8080#ServerID_OuterContainerID</text>
</g>
<!-- 1_fwatchdog#ServerID_6dcbcc88d5&#45;4vpdn&#45;&gt;gateway:8080#ServerID_OuterContainerID -->
<g id="edge8" class="edge"><title>1_fwatchdog#ServerID_6dcbcc88d5&#45;4vpdn&#45;&gt;gateway:8080#ServerID_OuterContainerID</title>
<path fill="none" stroke="black" d="M4089.24,-139.102C4054.37,-150.211 4006.42,-163.748 3963,-170 3874.12,-182.799 3648.67,-173.279 3559,-178 3395.09,-186.63 3205.89,-204.235 3088.33,-216.078"/>
<polygon fill="black" stroke="black" points="3087.84,-212.611 3078.24,-217.099 3088.54,-219.575 3087.84,-212.611"/>
<text text-anchor="middle" x="3579" y="-181.8" font-family="Times,serif" font-size="14.00">POST</text>
</g>
<!-- 10.1.80.247:8080#ServerID_OuterContainerID&#45;&gt;1_fwatchdog#ServerID_6dcbcc88d5&#45;4vpdn -->
<g id="edge6" class="edge"><title>10.1.80.247:8080#ServerID_OuterContainerID&#45;&gt;1_fwatchdog#ServerID_6dcbcc88d5&#45;4vpdn</title>
<path fill="none" stroke="black" d="M1794.56,-219.675C1850.9,-216.804 1914.77,-213.646 1973,-211 2170.74,-202.014 2220.52,-206.478 2418,-193 2487.49,-188.257 2504.44,-181.538 2574,-178 2651.07,-174.081 3886.54,-180.463 3963,-170 4002.84,-164.548 4046.46,-152.697 4080.3,-142.135"/>
<polygon fill="black" stroke="black" points="4081.55,-145.411 4090.02,-139.053 4079.43,-138.738 4081.55,-145.411"/>
<text text-anchor="middle" x="2616" y="-181.8" font-family="Times,serif" font-size="14.00">RESPONSE</text>
</g>
<!-- 10.1.80.1:49201#ServerID_OuterContainerID -->
<g id="node17" class="node"><title>10.1.80.1:49201#ServerID_OuterContainerID</title>
<polygon fill="none" stroke="black" points="1095,-139 776.105,-121 1095,-103 1413.9,-121 1095,-139"/>
<text text-anchor="middle" x="1095" y="-117.3" font-family="Times,serif" font-size="14.00">10.1.80.1:49201#ServerID_OuterContainerID</text>
</g>
<!-- 10.1.80.247:8080#ServerID_OuterContainerID&#45;&gt;10.1.80.1:49201#ServerID_OuterContainerID -->
<g id="edge25" class="edge"><title>10.1.80.247:8080#ServerID_OuterContainerID&#45;&gt;10.1.80.1:49201#ServerID_OuterContainerID</title>
<path fill="none" stroke="black" d="M1476.79,-219.703C1418.76,-214.586 1352.94,-206.326 1294,-193 1239.13,-180.595 1178.59,-157.574 1138.86,-141.107"/>
<polygon fill="black" stroke="black" points="1140.05,-137.81 1129.47,-137.177 1137.34,-144.267 1140.05,-137.81"/>
<text text-anchor="middle" x="1336" y="-181.8" font-family="Times,serif" font-size="14.00">RESPONSE</text>
</g>
<!-- 10.0.88.125:31112#ServerID_OuterContainerID -->
<g id="node18" class="node"><title>10.0.88.125:31112#ServerID_OuterContainerID</title>
<polygon fill="none" stroke="black" points="2407,-139 2071.52,-121 2407,-103 2742.48,-121 2407,-139"/>
<text text-anchor="middle" x="2407" y="-117.3" font-family="Times,serif" font-size="14.00">10.0.88.125:31112#ServerID_OuterContainerID</text>
</g>
<!-- 10.1.80.247:8080#ServerID_OuterContainerID&#45;&gt;10.0.88.125:31112#ServerID_OuterContainerID -->
<g id="edge26" class="edge"><title>10.1.80.247:8080#ServerID_OuterContainerID&#45;&gt;10.0.88.125:31112#ServerID_OuterContainerID</title>
<path fill="none" stroke="black" d="M1725.98,-215.875C1812.4,-204.205 1946.64,-186.021 2063,-170 2146.13,-158.555 2240.53,-145.369 2309.38,-135.717"/>
<polygon fill="black" stroke="black" points="2309.93,-139.174 2319.35,-134.32 2308.96,-132.242 2309.93,-139.174"/>
<text text-anchor="middle" x="2035" y="-181.8" font-family="Times,serif" font-size="14.00">RESPONSE</text>
</g>
<!-- 10.1.80.1:7626#ServerID_OuterContainerID -->
<g id="node19" class="node"><title>10.1.80.1:7626#ServerID_OuterContainerID</title>
<polygon fill="none" stroke="black" points="1743,-139 1432.15,-121 1743,-103 2053.85,-121 1743,-139"/>
<text text-anchor="middle" x="1743" y="-117.3" font-family="Times,serif" font-size="14.00">10.1.80.1:7626#ServerID_OuterContainerID</text>
</g>
<!-- 10.1.80.247:8080#ServerID_OuterContainerID&#45;&gt;10.1.80.1:7626#ServerID_OuterContainerID -->
<g id="edge28" class="edge"><title>10.1.80.247:8080#ServerID_OuterContainerID&#45;&gt;10.1.80.1:7626#ServerID_OuterContainerID</title>
<path fill="none" stroke="black" d="M1630.35,-211.06C1627.99,-200.774 1627,-187.786 1633,-178 1643.68,-160.573 1661.68,-148.359 1680.05,-139.891"/>
<polygon fill="black" stroke="black" points="1681.54,-143.061 1689.36,-135.913 1678.79,-136.623 1681.54,-143.061"/>
<text text-anchor="middle" x="1675" y="-181.8" font-family="Times,serif" font-size="14.00">RESPONSE</text>
</g>
<!-- 10.1.80.247:59512#ServerID_OuterContainerID&#45;&gt;1_fwatchdog#ServerID_6dcbcc88d5&#45;4vpdn -->
<g id="edge5" class="edge"><title>10.1.80.247:59512#ServerID_OuterContainerID&#45;&gt;1_fwatchdog#ServerID_6dcbcc88d5&#45;4vpdn</title>
<path fill="none" stroke="black" d="M2418.87,-216.426C2531.33,-204.235 2717.81,-185.753 2879,-178 2939.15,-175.107 3903.34,-178.214 3963,-170 4002.84,-164.515 4046.45,-152.664 4080.3,-142.111"/>
<polygon fill="black" stroke="black" points="4081.54,-145.387 4090.02,-139.03 4079.43,-138.713 4081.54,-145.387"/>
<text text-anchor="middle" x="2899" y="-181.8" font-family="Times,serif" font-size="14.00">POST</text>
</g>
<!-- 1_fwatchdog#ServerID_d4de233c55aa -->
<g id="node8" class="node"><title>1_fwatchdog#ServerID_d4de233c55aa</title>
<polygon fill="none" stroke="black" points="2629.5,-355 2332.5,-355 2332.5,-319 2629.5,-319 2629.5,-355"/>
<text text-anchor="middle" x="2481" y="-333.3" font-family="Times,serif" font-size="14.00">1_fwatchdog#ServerID_d4de233c55aa</text>
</g>
<!-- 10.1.80.247:59512#ServerID_OuterContainerID&#45;&gt;1_fwatchdog#ServerID_d4de233c55aa -->
<g id="edge13" class="edge"><title>10.1.80.247:59512#ServerID_OuterContainerID&#45;&gt;1_fwatchdog#ServerID_d4de233c55aa</title>
<path fill="none" stroke="black" d="M2341.41,-245.777C2369.16,-263.716 2414.69,-293.144 2446.17,-313.489"/>
<polygon fill="black" stroke="black" points="2444.35,-316.48 2454.65,-318.969 2448.15,-310.601 2444.35,-316.48"/>
<text text-anchor="middle" x="2439.5" y="-289.8" font-family="Times,serif" font-size="14.00">read</text>
</g>
<!-- gateway:8080#ServerID_OuterContainerID&#45;&gt;1_fwatchdog#ServerID_6dcbcc88d5&#45;4vpdn -->
<g id="edge7" class="edge"><title>gateway:8080#ServerID_OuterContainerID&#45;&gt;1_fwatchdog#ServerID_6dcbcc88d5&#45;4vpdn</title>
<path fill="none" stroke="black" d="M3122.65,-219.726C3393.16,-204.514 3942.58,-173.347 3963,-170 4001.83,-163.636 4044.42,-152.144 4077.98,-142.001"/>
<polygon fill="black" stroke="black" points="4079.1,-145.317 4087.64,-139.042 4077.05,-138.624 4079.1,-145.317"/>
<text text-anchor="middle" x="3871" y="-181.8" font-family="Times,serif" font-size="14.00">RESPONSE</text>
</g>
<!-- localhost:3000#ServerID_d4de233c55aa -->
<g id="node7" class="node"><title>localhost:3000#ServerID_d4de233c55aa</title>
<polygon fill="none" stroke="black" points="2539,-463 2253.28,-445 2539,-427 2824.72,-445 2539,-463"/>
<text text-anchor="middle" x="2539" y="-441.3" font-family="Times,serif" font-size="14.00">localhost:3000#ServerID_d4de233c55aa</text>
</g>
<!-- localhost:3000#ServerID_d4de233c55aa&#45;&gt;1_fwatchdog#ServerID_d4de233c55aa -->
<g id="edge9" class="edge"><title>localhost:3000#ServerID_d4de233c55aa&#45;&gt;1_fwatchdog#ServerID_d4de233c55aa</title>
<path fill="none" stroke="black" d="M2480.3,-430.545C2469.91,-425.493 2460.39,-418.547 2454,-409 2444.7,-395.117 2451.22,-377.584 2460.18,-363.415"/>
<polygon fill="black" stroke="black" points="2463.13,-365.302 2465.95,-355.09 2457.38,-361.313 2463.13,-365.302"/>
<text text-anchor="middle" x="2470.5" y="-397.8" font-family="Times,serif" font-size="14.00">read</text>
</g>
<!-- 1_fwatchdog#ServerID_d4de233c55aa&#45;&gt;localhost:3000#ServerID_d4de233c55aa -->
<g id="edge10" class="edge"><title>1_fwatchdog#ServerID_d4de233c55aa&#45;&gt;localhost:3000#ServerID_d4de233c55aa</title>
<path fill="none" stroke="black" d="M2486.32,-355.037C2491.32,-369.864 2499.6,-391.639 2510,-409 2512.19,-412.655 2514.75,-416.326 2517.42,-419.842"/>
<polygon fill="black" stroke="black" points="2514.74,-422.097 2523.74,-427.689 2520.19,-417.706 2514.74,-422.097"/>
<text text-anchor="middle" x="2529" y="-397.8" font-family="Times,serif" font-size="14.00">write</text>
</g>
<!-- 1_fwatchdog#ServerID_d4de233c55aa&#45;&gt;localhost:3000#ServerID_d4de233c55aa -->
<g id="edge11" class="edge"><title>1_fwatchdog#ServerID_d4de233c55aa&#45;&gt;localhost:3000#ServerID_d4de233c55aa</title>
<path fill="none" stroke="black" d="M2511.81,-355.147C2525.6,-364.631 2540.42,-377.795 2548,-394 2551.38,-401.222 2551.25,-409.578 2549.67,-417.366"/>
<polygon fill="black" stroke="black" points="2546.26,-416.561 2546.92,-427.135 2553,-418.452 2546.26,-416.561"/>
<text text-anchor="middle" x="2579" y="-397.8" font-family="Times,serif" font-size="14.00">connect</text>
</g>
<!-- /etc/hosts#ServerID_d4de233c55aa -->
<g id="node9" class="node"><title>/etc/hosts#ServerID_d4de233c55aa</title>
<ellipse fill="none" stroke="black" cx="3022" cy="-445" rx="178.969" ry="18"/>
<text text-anchor="middle" x="3022" y="-441.3" font-family="Times,serif" font-size="14.00">/etc/hosts#ServerID_d4de233c55aa</text>
</g>
<!-- 10_node#ServerID_d4de233c55aa -->
<g id="node10" class="node"><title>10_node#ServerID_d4de233c55aa</title>
<polygon fill="none" stroke="black" points="3556,-355 3290,-355 3290,-319 3556,-319 3556,-355"/>
<text text-anchor="middle" x="3423" y="-333.3" font-family="Times,serif" font-size="14.00">10_node#ServerID_d4de233c55aa</text>
</g>
<!-- /etc/hosts#ServerID_d4de233c55aa&#45;&gt;10_node#ServerID_d4de233c55aa -->
<g id="edge12" class="edge"><title>/etc/hosts#ServerID_d4de233c55aa&#45;&gt;10_node#ServerID_d4de233c55aa</title>
<path fill="none" stroke="black" d="M3082.47,-428.016C3153.56,-409.224 3271.56,-378.033 3348.3,-357.746"/>
<polygon fill="black" stroke="black" points="3349.61,-361.021 3358.38,-355.082 3347.82,-354.254 3349.61,-361.021"/>
<text text-anchor="middle" x="3226.5" y="-397.8" font-family="Times,serif" font-size="14.00">read</text>
</g>
<!-- 10_node#ServerID_d4de233c55aa&#45;&gt;gateway:8080#ServerID_OuterContainerID -->
<g id="edge17" class="edge"><title>10_node#ServerID_d4de233c55aa&#45;&gt;gateway:8080#ServerID_OuterContainerID</title>
<path fill="none" stroke="black" d="M3351.02,-318.969C3265.93,-298.836 3125.43,-265.593 3042.39,-245.945"/>
<polygon fill="black" stroke="black" points="3043.1,-242.515 3032.56,-243.619 3041.48,-249.327 3043.1,-242.515"/>
<text text-anchor="middle" x="3294" y="-289.8" font-family="Times,serif" font-size="14.00">connect</text>
</g>
<!-- 10.152.183.10:53#ServerID_OuterContainerID -->
<g id="node12" class="node"><title>10.152.183.10:53#ServerID_OuterContainerID</title>
<polygon fill="none" stroke="black" points="3624,-247 3296.56,-229 3624,-211 3951.44,-229 3624,-247"/>
<text text-anchor="middle" x="3624" y="-225.3" font-family="Times,serif" font-size="14.00">10.152.183.10:53#ServerID_OuterContainerID</text>
</g>
<!-- 10_node#ServerID_d4de233c55aa&#45;&gt;10.152.183.10:53#ServerID_OuterContainerID -->
<g id="edge15" class="edge"><title>10_node#ServerID_d4de233c55aa&#45;&gt;10.152.183.10:53#ServerID_OuterContainerID</title>
<path fill="none" stroke="black" d="M3455.29,-318.969C3490.79,-300.248 3547.79,-270.191 3585.56,-250.27"/>
<polygon fill="black" stroke="black" points="3587.51,-253.198 3594.73,-245.437 3584.25,-247.006 3587.51,-253.198"/>
<text text-anchor="middle" x="3541.5" y="-289.8" font-family="Times,serif" font-size="14.00">sendto</text>
</g>
<!-- /etc/resolv.conf#ServerID_d4de233c55aa -->
<g id="node11" class="node"><title>/etc/resolv.conf#ServerID_d4de233c55aa</title>
<ellipse fill="none" stroke="black" cx="3423" cy="-445" rx="204.164" ry="18"/>
<text text-anchor="middle" x="3423" y="-441.3" font-family="Times,serif" font-size="14.00">/etc/resolv.conf#ServerID_d4de233c55aa</text>
</g>
<!-- /etc/resolv.conf#ServerID_d4de233c55aa&#45;&gt;10_node#ServerID_d4de233c55aa -->
<g id="edge14" class="edge"><title>/etc/resolv.conf#ServerID_d4de233c55aa&#45;&gt;10_node#ServerID_d4de233c55aa</title>
<path fill="none" stroke="black" d="M3423,-426.969C3423,-410.378 3423,-384.883 3423,-365.431"/>
<polygon fill="black" stroke="black" points="3426.5,-365.341 3423,-355.341 3419.5,-365.341 3426.5,-365.341"/>
<text text-anchor="middle" x="3439.5" y="-397.8" font-family="Times,serif" font-size="14.00">read</text>
</g>
<!-- 10.152.183.10:53#ServerID_OuterContainerID&#45;&gt;10_node#ServerID_d4de233c55aa -->
<g id="edge16" class="edge"><title>10.152.183.10:53#ServerID_OuterContainerID&#45;&gt;10_node#ServerID_d4de233c55aa</title>
<path fill="none" stroke="black" d="M3615.67,-246.761C3606.67,-263.126 3590.76,-287.48 3570,-301 3561.34,-306.641 3551.86,-311.374 3542.02,-315.346"/>
<polygon fill="black" stroke="black" points="3540.62,-312.133 3532.49,-318.926 3543.08,-318.685 3540.62,-312.133"/>
<text text-anchor="middle" x="3619" y="-289.8" font-family="Times,serif" font-size="14.00">recvfrom</text>
</g>
<!-- localhost:3000#ServerID_79226724f3b6 -->
<g id="node13" class="node"><title>localhost:3000#ServerID_79226724f3b6</title>
<polygon fill="none" stroke="black" points="311,-247 26.1225,-229 311,-211 595.878,-229 311,-247"/>
<text text-anchor="middle" x="311" y="-225.3" font-family="Times,serif" font-size="14.00">localhost:3000#ServerID_79226724f3b6</text>
</g>
<!-- localhost:3000#ServerID_79226724f3b6&#45;&gt;1_fwatchdog#ServerID_79226724f3b6 -->
<g id="edge18" class="edge"><title>localhost:3000#ServerID_79226724f3b6&#45;&gt;1_fwatchdog#ServerID_79226724f3b6</title>
<path fill="none" stroke="black" d="M306.921,-210.829C305.464,-200.456 305.528,-187.458 312,-178 322.585,-162.531 338.282,-151.329 355.289,-143.218"/>
<polygon fill="black" stroke="black" points="357.097,-146.247 364.847,-139.023 354.284,-139.837 357.097,-146.247"/>
<text text-anchor="middle" x="328.5" y="-181.8" font-family="Times,serif" font-size="14.00">read</text>
</g>
<!-- 10_node#ServerID_79226724f3b6 -->
<g id="node15" class="node"><title>10_node#ServerID_79226724f3b6</title>
<polygon fill="none" stroke="black" points="281.5,-139 16.5,-139 16.5,-103 281.5,-103 281.5,-139"/>
<text text-anchor="middle" x="149" y="-117.3" font-family="Times,serif" font-size="14.00">10_node#ServerID_79226724f3b6</text>
</g>
<!-- localhost:3000#ServerID_79226724f3b6&#45;&gt;10_node#ServerID_79226724f3b6 -->
<g id="edge20" class="edge"><title>localhost:3000#ServerID_79226724f3b6&#45;&gt;10_node#ServerID_79226724f3b6</title>
<path fill="none" stroke="black" d="M287.096,-212.359C259.743,-194.462 214.716,-164.999 183.549,-144.606"/>
<polygon fill="black" stroke="black" points="185.436,-141.658 175.152,-139.112 181.603,-147.516 185.436,-141.658"/>
<text text-anchor="middle" x="270.5" y="-181.8" font-family="Times,serif" font-size="14.00">read</text>
</g>
<!-- 1_fwatchdog#ServerID_79226724f3b6&#45;&gt;localhost:3000#ServerID_79226724f3b6 -->
<g id="edge21" class="edge"><title>1_fwatchdog#ServerID_79226724f3b6&#45;&gt;localhost:3000#ServerID_79226724f3b6</title>
<path fill="none" stroke="black" d="M421.902,-139.209C406.01,-149.946 385.471,-164.289 368,-178 357.132,-186.529 345.596,-196.468 335.765,-205.227"/>
<polygon fill="black" stroke="black" points="333.386,-202.66 328.293,-211.95 338.068,-207.864 333.386,-202.66"/>
<text text-anchor="middle" x="397" y="-181.8" font-family="Times,serif" font-size="14.00">connect</text>
</g>
<!-- 1_fwatchdog#ServerID_79226724f3b6&#45;&gt;localhost:3000#ServerID_79226724f3b6 -->
<g id="edge22" class="edge"><title>1_fwatchdog#ServerID_79226724f3b6&#45;&gt;localhost:3000#ServerID_79226724f3b6</title>
<path fill="none" stroke="black" d="M447.118,-139.231C445.383,-155.243 440.362,-178.71 426,-193 417.933,-201.026 408.085,-207.221 397.582,-212.001"/>
<polygon fill="black" stroke="black" points="396.132,-208.812 388.21,-215.847 398.79,-215.288 396.132,-208.812"/>
<text text-anchor="middle" x="456" y="-181.8" font-family="Times,serif" font-size="14.00">write</text>
</g>
<!-- pipe:[273416608]#ServerID_79226724f3b6 -->
<g id="node16" class="node"><title>pipe:[273416608]#ServerID_79226724f3b6</title>
<ellipse fill="none" stroke="black" cx="380" cy="-34" rx="215.562" ry="18"/>
<text text-anchor="middle" x="380" y="-30.3" font-family="Times,serif" font-size="14.00">pipe:[273416608]#ServerID_79226724f3b6</text>
</g>
<!-- 1_fwatchdog#ServerID_79226724f3b6&#45;&gt;pipe:[273416608]#ServerID_79226724f3b6 -->
<g id="edge23" class="edge"><title>1_fwatchdog#ServerID_79226724f3b6&#45;&gt;pipe:[273416608]#ServerID_79226724f3b6</title>
<path fill="none" stroke="black" d="M434.239,-102.799C424.469,-90.5865 411.194,-73.9921 400.222,-60.2776"/>
<polygon fill="black" stroke="black" points="402.72,-57.7977 393.74,-52.1754 397.254,-62.1706 402.72,-57.7977"/>
<text text-anchor="middle" x="438" y="-73.8" font-family="Times,serif" font-size="14.00">write</text>
</g>
<!-- 10.1.80.1:49201#ServerID_OuterContainerID&#45;&gt;10.1.80.247:8080#ServerID_OuterContainerID -->
<g id="edge24" class="edge"><title>10.1.80.1:49201#ServerID_OuterContainerID&#45;&gt;10.1.80.247:8080#ServerID_OuterContainerID</title>
<path fill="none" stroke="black" d="M1162.69,-135.263C1263.29,-154.974 1451.77,-191.903 1558.01,-212.719"/>
<polygon fill="black" stroke="black" points="1557.54,-216.194 1568.03,-214.682 1558.89,-209.325 1557.54,-216.194"/>
<text text-anchor="middle" x="1466" y="-181.8" font-family="Times,serif" font-size="14.00">POST</text>
</g>
<!-- 10.1.80.1:7626#ServerID_OuterContainerID&#45;&gt;10.1.80.247:8080#ServerID_OuterContainerID -->
<g id="edge27" class="edge"><title>10.1.80.1:7626#ServerID_OuterContainerID&#45;&gt;10.1.80.247:8080#ServerID_OuterContainerID</title>
<path fill="none" stroke="black" d="M1741.81,-138.931C1739.84,-154.728 1734.67,-178.043 1721,-193 1714.98,-199.591 1707.53,-204.973 1699.56,-209.36"/>
<polygon fill="black" stroke="black" points="1697.8,-206.324 1690.4,-213.9 1700.91,-212.597 1697.8,-206.324"/>
<text text-anchor="middle" x="1750" y="-181.8" font-family="Times,serif" font-size="14.00">POST</text>
</g>
</g>
</svg>
