<?xml version="1.0" encoding="UTF-8" standalone="no"?>
<!DOCTYPE svg PUBLIC "-//W3C//DTD SVG 1.1//EN"
 "http://www.w3.org/Graphics/SVG/1.1/DTD/svg11.dtd">
<!-- Generated by graphviz version 2.38.0 (20140413.2041)
 -->
<!-- Title: G Pages: 1 -->
<svg width="5588pt" height="597pt"
 viewBox="0.00 0.00 5588.00 597.00" xmlns="http://www.w3.org/2000/svg" xmlns:xlink="http://www.w3.org/1999/xlink">
<g id="graph0" class="graph" transform="scale(1 1) rotate(0) translate(4 593)">
<title>G</title>
<polygon fill="white" stroke="none" points="-4,4 -4,-593 5584,-593 5584,4 -4,4"/>
<g id="clust1" class="cluster"><title>clusterServerID_1f4f60deee3d</title>
<polygon fill="none" stroke="black" points="4052,-8 4052,-257 5572,-257 5572,-8 4052,-8"/>
<text text-anchor="middle" x="4812" y="-241.8" font-family="Times,serif" font-size="14.00">clusterServerID_1f4f60deee3d</text>
</g>
<g id="clust2" class="cluster"><title>clusterServerID_667d78fb58&#45;847xt</title>
<polygon fill="none" stroke="black" points="2842,-398 2842,-473 3182,-473 3182,-398 2842,-398"/>
<text text-anchor="middle" x="3012" y="-457.8" font-family="Times,serif" font-size="14.00">clusterServerID_667d78fb58&#45;847xt</text>
</g>
<g id="clust3" class="cluster"><title>clusterServerID_6dcbcc88d5&#45;mp48t</title>
<polygon fill="none" stroke="black" points="794,-398 794,-473 1142,-473 1142,-398 794,-398"/>
<text text-anchor="middle" x="968" y="-457.8" font-family="Times,serif" font-size="14.00">clusterServerID_6dcbcc88d5&#45;mp48t</text>
</g>
<g id="clust4" class="cluster"><title>clusterServerID_OuterContainerID</title>
<polygon fill="none" stroke="black" points="8,-182 8,-365 4044,-365 4044,-182 8,-182"/>
<text text-anchor="middle" x="2026" y="-349.8" font-family="Times,serif" font-size="14.00">clusterServerID_OuterContainerID</text>
</g>
<g id="clust5" class="cluster"><title>clusterServerID_e47e2b15aff4</title>
<polygon fill="none" stroke="black" points="1412,-398 1412,-581 2504,-581 2504,-398 1412,-398"/>
<text text-anchor="middle" x="1958" y="-565.8" font-family="Times,serif" font-size="14.00">clusterServerID_e47e2b15aff4</text>
</g>
<!-- 1_fwatchdog#ServerID_6dcbcc88d5&#45;mp48t -->
<g id="node1" class="node"><title>1_fwatchdog#ServerID_6dcbcc88d5&#45;mp48t</title>
<polygon fill="none" stroke="black" points="1133.5,-442 802.5,-442 802.5,-406 1133.5,-406 1133.5,-442"/>
<text text-anchor="middle" x="968" y="-420.3" font-family="Times,serif" font-size="14.00">1_fwatchdog#ServerID_6dcbcc88d5&#45;mp48t</text>
</g>
<!-- gateway:8080#ServerID_OuterContainerID -->
<g id="node2" class="node"><title>gateway:8080#ServerID_OuterContainerID</title>
<polygon fill="none" stroke="black" points="320,-334 15.5177,-316 320,-298 624.482,-316 320,-334"/>
<text text-anchor="middle" x="320" y="-312.3" font-family="Times,serif" font-size="14.00">gateway:8080#ServerID_OuterContainerID</text>
</g>
<!-- 1_fwatchdog#ServerID_6dcbcc88d5&#45;mp48t&#45;&gt;gateway:8080#ServerID_OuterContainerID -->
<g id="edge1" class="edge"><title>1_fwatchdog#ServerID_6dcbcc88d5&#45;mp48t&#45;&gt;gateway:8080#ServerID_OuterContainerID</title>
<path fill="none" stroke="black" d="M802.2,-416.389C727.686,-411.47 638.941,-402.904 560,-388 493.091,-375.368 418.168,-351.597 370.113,-335.057"/>
<polygon fill="black" stroke="black" points="371.17,-331.719 360.575,-331.748 368.875,-338.333 371.17,-331.719"/>
<text text-anchor="middle" x="580" y="-376.8" font-family="Times,serif" font-size="14.00">POST</text>
</g>
<!-- 10.1.80.183:53810#ServerID_OuterContainerID -->
<g id="node3" class="node"><title>10.1.80.183:53810#ServerID_OuterContainerID</title>
<polygon fill="none" stroke="black" points="1650,-334 1314.52,-316 1650,-298 1985.48,-316 1650,-334"/>
<text text-anchor="middle" x="1650" y="-312.3" font-family="Times,serif" font-size="14.00">10.1.80.183:53810#ServerID_OuterContainerID</text>
</g>
<!-- 1_fwatchdog#ServerID_6dcbcc88d5&#45;mp48t&#45;&gt;10.1.80.183:53810#ServerID_OuterContainerID -->
<g id="edge8" class="edge"><title>1_fwatchdog#ServerID_6dcbcc88d5&#45;mp48t&#45;&gt;10.1.80.183:53810#ServerID_OuterContainerID</title>
<path fill="none" stroke="black" d="M1044.08,-405.993C1094.36,-395.255 1161.85,-381.797 1222,-373 1258.67,-367.637 1268.19,-369.332 1305,-365 1390.44,-354.944 1487.45,-341.242 1556.79,-331.052"/>
<polygon fill="black" stroke="black" points="1557.44,-334.495 1566.82,-329.575 1556.42,-327.57 1557.44,-334.495"/>
<text text-anchor="middle" x="1264" y="-376.8" font-family="Times,serif" font-size="14.00">RESPONSE</text>
</g>
<!-- 10.1.80.183:8080#ServerID_OuterContainerID -->
<g id="node4" class="node"><title>10.1.80.183:8080#ServerID_OuterContainerID</title>
<polygon fill="none" stroke="black" points="969,-334 641.56,-316 969,-298 1296.44,-316 969,-334"/>
<text text-anchor="middle" x="969" y="-312.3" font-family="Times,serif" font-size="14.00">10.1.80.183:8080#ServerID_OuterContainerID</text>
</g>
<!-- 1_fwatchdog#ServerID_6dcbcc88d5&#45;mp48t&#45;&gt;10.1.80.183:8080#ServerID_OuterContainerID -->
<g id="edge7" class="edge"><title>1_fwatchdog#ServerID_6dcbcc88d5&#45;mp48t&#45;&gt;10.1.80.183:8080#ServerID_OuterContainerID</title>
<path fill="none" stroke="black" d="M946.203,-405.762C941.256,-400.629 936.675,-394.594 934,-388 931.493,-381.822 932.162,-379.408 934,-373 937.162,-361.976 943.196,-351.017 949.376,-341.755"/>
<polygon fill="black" stroke="black" points="952.335,-343.633 955.257,-333.449 946.622,-339.588 952.335,-343.633"/>
<text text-anchor="middle" x="954" y="-376.8" font-family="Times,serif" font-size="14.00">POST</text>
</g>
<!-- gateway:8080#ServerID_OuterContainerID&#45;&gt;1_fwatchdog#ServerID_6dcbcc88d5&#45;mp48t -->
<g id="edge4" class="edge"><title>gateway:8080#ServerID_OuterContainerID&#45;&gt;1_fwatchdog#ServerID_6dcbcc88d5&#45;mp48t</title>
<path fill="none" stroke="black" d="M396.464,-329.508C509.547,-348.006 722.159,-382.785 853.769,-404.314"/>
<polygon fill="black" stroke="black" points="853.454,-407.809 863.888,-405.969 854.584,-400.901 853.454,-407.809"/>
<text text-anchor="middle" x="782" y="-376.8" font-family="Times,serif" font-size="14.00">RESPONSE</text>
</g>
<!-- 10.1.80.183:53810#ServerID_OuterContainerID&#45;&gt;1_fwatchdog#ServerID_6dcbcc88d5&#45;mp48t -->
<g id="edge2" class="edge"><title>10.1.80.183:53810#ServerID_OuterContainerID&#45;&gt;1_fwatchdog#ServerID_6dcbcc88d5&#45;mp48t</title>
<path fill="none" stroke="black" d="M1592.28,-330.966C1524.91,-346.821 1409.96,-372.491 1310,-388 1256.25,-396.339 1197.44,-403.176 1143.97,-408.524"/>
<polygon fill="black" stroke="black" points="1143.31,-405.072 1133.7,-409.539 1143.99,-412.038 1143.31,-405.072"/>
<text text-anchor="middle" x="1415" y="-376.8" font-family="Times,serif" font-size="14.00">POST</text>
</g>
<!-- 1_fwatchdog#ServerID_e47e2b15aff4 -->
<g id="node7" class="node"><title>1_fwatchdog#ServerID_e47e2b15aff4</title>
<polygon fill="none" stroke="black" points="2496,-550 2206,-550 2206,-514 2496,-514 2496,-550"/>
<text text-anchor="middle" x="2351" y="-528.3" font-family="Times,serif" font-size="14.00">1_fwatchdog#ServerID_e47e2b15aff4</text>
</g>
<!-- 10.1.80.183:53810#ServerID_OuterContainerID&#45;&gt;1_fwatchdog#ServerID_e47e2b15aff4 -->
<g id="edge11" class="edge"><title>10.1.80.183:53810#ServerID_OuterContainerID&#45;&gt;1_fwatchdog#ServerID_e47e2b15aff4</title>
<path fill="none" stroke="black" d="M1728.22,-329.839C1798,-340.825 1903.05,-356.216 1995,-365 2062.78,-371.475 2080.18,-366.953 2148,-373 2192.17,-376.938 2316.05,-365.291 2346,-398 2371.96,-426.355 2366.29,-474.033 2359.14,-503.939"/>
<polygon fill="black" stroke="black" points="2355.72,-503.157 2356.59,-513.716 2362.5,-504.919 2355.72,-503.157"/>
<text text-anchor="middle" x="2382.5" y="-420.3" font-family="Times,serif" font-size="14.00">read</text>
</g>
<!-- 10.1.80.183:8080#ServerID_OuterContainerID&#45;&gt;1_fwatchdog#ServerID_6dcbcc88d5&#45;mp48t -->
<g id="edge3" class="edge"><title>10.1.80.183:8080#ServerID_OuterContainerID&#45;&gt;1_fwatchdog#ServerID_6dcbcc88d5&#45;mp48t</title>
<path fill="none" stroke="black" d="M973.681,-333.944C977.051,-348.339 980.585,-369.543 978,-388 977.64,-390.574 977.137,-393.224 976.547,-395.859"/>
<polygon fill="black" stroke="black" points="973.102,-395.198 973.955,-405.759 979.874,-396.971 973.102,-395.198"/>
<text text-anchor="middle" x="1021" y="-376.8" font-family="Times,serif" font-size="14.00">RESPONSE</text>
</g>
<!-- 10.1.80.1:14414#ServerID_OuterContainerID -->
<g id="node19" class="node"><title>10.1.80.1:14414#ServerID_OuterContainerID</title>
<polygon fill="none" stroke="black" points="1076,-226 757.105,-208 1076,-190 1394.9,-208 1076,-226"/>
<text text-anchor="middle" x="1076" y="-204.3" font-family="Times,serif" font-size="14.00">10.1.80.1:14414#ServerID_OuterContainerID</text>
</g>
<!-- 10.1.80.183:8080#ServerID_OuterContainerID&#45;&gt;10.1.80.1:14414#ServerID_OuterContainerID -->
<g id="edge24" class="edge"><title>10.1.80.183:8080#ServerID_OuterContainerID&#45;&gt;10.1.80.1:14414#ServerID_OuterContainerID</title>
<path fill="none" stroke="black" d="M963.348,-298.06C960.986,-287.774 960.001,-274.786 966,-265 976.635,-247.652 994.515,-235.468 1012.8,-227.005"/>
<polygon fill="black" stroke="black" points="1014.26,-230.187 1022.07,-223.027 1011.5,-223.754 1014.26,-230.187"/>
<text text-anchor="middle" x="1008" y="-268.8" font-family="Times,serif" font-size="14.00">RESPONSE</text>
</g>
<!-- 10.0.88.125:31112#ServerID_OuterContainerID -->
<g id="node20" class="node"><title>10.0.88.125:31112#ServerID_OuterContainerID</title>
<polygon fill="none" stroke="black" points="404,-226 68.5152,-208 404,-190 739.485,-208 404,-226"/>
<text text-anchor="middle" x="404" y="-204.3" font-family="Times,serif" font-size="14.00">10.0.88.125:31112#ServerID_OuterContainerID</text>
</g>
<!-- 10.1.80.183:8080#ServerID_OuterContainerID&#45;&gt;10.0.88.125:31112#ServerID_OuterContainerID -->
<g id="edge25" class="edge"><title>10.1.80.183:8080#ServerID_OuterContainerID&#45;&gt;10.0.88.125:31112#ServerID_OuterContainerID</title>
<path fill="none" stroke="black" d="M898.869,-301.843C793.692,-282.11 595.631,-244.952 484.63,-224.127"/>
<polygon fill="black" stroke="black" points="484.968,-220.629 474.494,-222.225 483.677,-227.509 484.968,-220.629"/>
<text text-anchor="middle" x="813" y="-268.8" font-family="Times,serif" font-size="14.00">RESPONSE</text>
</g>
<!-- 1_fwatchdog#ServerID_667d78fb58&#45;847xt -->
<g id="node5" class="node"><title>1_fwatchdog#ServerID_667d78fb58&#45;847xt</title>
<polygon fill="none" stroke="black" points="3174,-442 2850,-442 2850,-406 3174,-406 3174,-442"/>
<text text-anchor="middle" x="3012" y="-420.3" font-family="Times,serif" font-size="14.00">1_fwatchdog#ServerID_667d78fb58&#45;847xt</text>
</g>
<!-- 10.1.80.183:37908#ServerID_OuterContainerID -->
<g id="node6" class="node"><title>10.1.80.183:37908#ServerID_OuterContainerID</title>
<polygon fill="none" stroke="black" points="3012,-334 2676.52,-316 3012,-298 3347.48,-316 3012,-334"/>
<text text-anchor="middle" x="3012" y="-312.3" font-family="Times,serif" font-size="14.00">10.1.80.183:37908#ServerID_OuterContainerID</text>
</g>
<!-- 1_fwatchdog#ServerID_667d78fb58&#45;847xt&#45;&gt;10.1.80.183:37908#ServerID_OuterContainerID -->
<g id="edge5" class="edge"><title>1_fwatchdog#ServerID_667d78fb58&#45;847xt&#45;&gt;10.1.80.183:37908#ServerID_OuterContainerID</title>
<path fill="none" stroke="black" d="M2975.59,-405.979C2968.93,-401.142 2962.87,-395.186 2959,-388 2955.84,-382.129 2956.53,-379.194 2959,-373 2964,-360.439 2973.31,-349.073 2982.74,-339.914"/>
<polygon fill="black" stroke="black" points="2985.22,-342.386 2990.25,-333.061 2980.51,-337.214 2985.22,-342.386"/>
<text text-anchor="middle" x="3001" y="-376.8" font-family="Times,serif" font-size="14.00">RESPONSE</text>
</g>
<!-- 10.1.80.183:37908#ServerID_OuterContainerID&#45;&gt;1_fwatchdog#ServerID_667d78fb58&#45;847xt -->
<g id="edge6" class="edge"><title>10.1.80.183:37908#ServerID_OuterContainerID&#45;&gt;1_fwatchdog#ServerID_667d78fb58&#45;847xt</title>
<path fill="none" stroke="black" d="M3027,-333.451C3038.12,-347.72 3050.2,-369.01 3043,-388 3041.72,-391.366 3039.96,-394.615 3037.91,-397.689"/>
<polygon fill="black" stroke="black" points="3034.96,-395.789 3031.58,-405.831 3040.48,-400.087 3034.96,-395.789"/>
<text text-anchor="middle" x="3066" y="-376.8" font-family="Times,serif" font-size="14.00">POST</text>
</g>
<!-- 1_fwatchdog#ServerID_1f4f60deee3d -->
<g id="node14" class="node"><title>1_fwatchdog#ServerID_1f4f60deee3d</title>
<polygon fill="none" stroke="black" points="4927,-226 4637,-226 4637,-190 4927,-190 4927,-226"/>
<text text-anchor="middle" x="4782" y="-204.3" font-family="Times,serif" font-size="14.00">1_fwatchdog#ServerID_1f4f60deee3d</text>
</g>
<!-- 10.1.80.183:37908#ServerID_OuterContainerID&#45;&gt;1_fwatchdog#ServerID_1f4f60deee3d -->
<g id="edge20" class="edge"><title>10.1.80.183:37908#ServerID_OuterContainerID&#45;&gt;1_fwatchdog#ServerID_1f4f60deee3d</title>
<path fill="none" stroke="black" d="M3171.31,-306.545C3374.74,-295.643 3737.6,-275.838 4048,-257 4247.84,-244.872 4478.18,-229.597 4626.73,-219.578"/>
<polygon fill="black" stroke="black" points="4627.1,-223.061 4636.84,-218.896 4626.63,-216.077 4627.1,-223.061"/>
<text text-anchor="middle" x="3924.5" y="-268.8" font-family="Times,serif" font-size="14.00">read</text>
</g>
<!-- localhost:3000#ServerID_e47e2b15aff4 -->
<g id="node8" class="node"><title>localhost:3000#ServerID_e47e2b15aff4</title>
<polygon fill="none" stroke="black" points="2058,-442 1778.65,-424 2058,-406 2337.35,-424 2058,-442"/>
<text text-anchor="middle" x="2058" y="-420.3" font-family="Times,serif" font-size="14.00">localhost:3000#ServerID_e47e2b15aff4</text>
</g>
<!-- 1_fwatchdog#ServerID_e47e2b15aff4&#45;&gt;localhost:3000#ServerID_e47e2b15aff4 -->
<g id="edge9" class="edge"><title>1_fwatchdog#ServerID_e47e2b15aff4&#45;&gt;localhost:3000#ServerID_e47e2b15aff4</title>
<path fill="none" stroke="black" d="M2303.92,-513.969C2250.06,-494.481 2162.23,-462.707 2107.4,-442.873"/>
<polygon fill="black" stroke="black" points="2108.49,-439.545 2097.9,-439.434 2106.11,-446.128 2108.49,-439.545"/>
<text text-anchor="middle" x="2267" y="-484.8" font-family="Times,serif" font-size="14.00">write</text>
</g>
<!-- 10.152.183.10:53#ServerID_OuterContainerID -->
<g id="node9" class="node"><title>10.152.183.10:53#ServerID_OuterContainerID</title>
<polygon fill="none" stroke="black" points="2331,-334 2003.56,-316 2331,-298 2658.44,-316 2331,-334"/>
<text text-anchor="middle" x="2331" y="-312.3" font-family="Times,serif" font-size="14.00">10.152.183.10:53#ServerID_OuterContainerID</text>
</g>
<!-- 9_node#ServerID_e47e2b15aff4 -->
<g id="node10" class="node"><title>9_node#ServerID_e47e2b15aff4</title>
<polygon fill="none" stroke="black" points="1761,-442 1511,-442 1511,-406 1761,-406 1761,-442"/>
<text text-anchor="middle" x="1636" y="-420.3" font-family="Times,serif" font-size="14.00">9_node#ServerID_e47e2b15aff4</text>
</g>
<!-- 10.152.183.10:53#ServerID_OuterContainerID&#45;&gt;9_node#ServerID_e47e2b15aff4 -->
<g id="edge10" class="edge"><title>10.152.183.10:53#ServerID_OuterContainerID&#45;&gt;9_node#ServerID_e47e2b15aff4</title>
<path fill="none" stroke="black" d="M2244.68,-329.264C2099.04,-349.986 1815.81,-390.422 1770,-398 1758.51,-399.901 1746.48,-401.995 1734.55,-404.137"/>
<polygon fill="black" stroke="black" points="1733.78,-400.72 1724.57,-405.945 1735.03,-407.608 1733.78,-400.72"/>
<text text-anchor="middle" x="1967" y="-376.8" font-family="Times,serif" font-size="14.00">recvfrom</text>
</g>
<!-- 9_node#ServerID_e47e2b15aff4&#45;&gt;gateway:8080#ServerID_OuterContainerID -->
<g id="edge16" class="edge"><title>9_node#ServerID_e47e2b15aff4&#45;&gt;gateway:8080#ServerID_OuterContainerID</title>
<path fill="none" stroke="black" d="M1583.16,-405.927C1543.87,-394.135 1488.69,-379.458 1439,-373 1350.19,-361.457 722.266,-372.251 633,-365 551.86,-358.409 459.864,-343.383 396.718,-331.885"/>
<polygon fill="black" stroke="black" points="397.305,-328.435 386.838,-330.072 396.042,-335.32 397.305,-328.435"/>
<text text-anchor="middle" x="1545" y="-376.8" font-family="Times,serif" font-size="14.00">connect</text>
</g>
<!-- 9_node#ServerID_e47e2b15aff4&#45;&gt;10.152.183.10:53#ServerID_OuterContainerID -->
<g id="edge14" class="edge"><title>9_node#ServerID_e47e2b15aff4&#45;&gt;10.152.183.10:53#ServerID_OuterContainerID</title>
<path fill="none" stroke="black" d="M1717.21,-405.941C1734.56,-402.832 1752.84,-399.958 1770,-398 1873.42,-386.203 1900.76,-401.314 2004,-388 2097.58,-375.932 2204.03,-350.599 2269.36,-333.69"/>
<polygon fill="black" stroke="black" points="2270.3,-337.064 2279.09,-331.156 2268.53,-330.29 2270.3,-337.064"/>
<text text-anchor="middle" x="2119.5" y="-376.8" font-family="Times,serif" font-size="14.00">sendto</text>
</g>
<!-- /etc/hosts#ServerID_e47e2b15aff4 -->
<g id="node11" class="node"><title>/etc/hosts#ServerID_e47e2b15aff4</title>
<ellipse fill="none" stroke="black" cx="2013" cy="-532" rx="174.669" ry="18"/>
<text text-anchor="middle" x="2013" y="-528.3" font-family="Times,serif" font-size="14.00">/etc/hosts#ServerID_e47e2b15aff4</text>
</g>
<!-- /etc/hosts#ServerID_e47e2b15aff4&#45;&gt;9_node#ServerID_e47e2b15aff4 -->
<g id="edge12" class="edge"><title>/etc/hosts#ServerID_e47e2b15aff4&#45;&gt;9_node#ServerID_e47e2b15aff4</title>
<path fill="none" stroke="black" d="M1939.34,-515.625C1890.87,-504.967 1826.23,-489.726 1770,-473 1743.03,-464.976 1713.53,-454.592 1689.1,-445.536"/>
<polygon fill="black" stroke="black" points="1690.25,-442.228 1679.66,-442.008 1687.8,-448.786 1690.25,-442.228"/>
<text text-anchor="middle" x="1866.5" y="-484.8" font-family="Times,serif" font-size="14.00">read</text>
</g>
<!-- /etc/resolv.conf#ServerID_e47e2b15aff4 -->
<g id="node12" class="node"><title>/etc/resolv.conf#ServerID_e47e2b15aff4</title>
<ellipse fill="none" stroke="black" cx="1620" cy="-532" rx="200.365" ry="18"/>
<text text-anchor="middle" x="1620" y="-528.3" font-family="Times,serif" font-size="14.00">/etc/resolv.conf#ServerID_e47e2b15aff4</text>
</g>
<!-- /etc/resolv.conf#ServerID_e47e2b15aff4&#45;&gt;9_node#ServerID_e47e2b15aff4 -->
<g id="edge13" class="edge"><title>/etc/resolv.conf#ServerID_e47e2b15aff4&#45;&gt;9_node#ServerID_e47e2b15aff4</title>
<path fill="none" stroke="black" d="M1622.57,-513.969C1625.08,-497.378 1628.92,-471.883 1631.86,-452.431"/>
<polygon fill="black" stroke="black" points="1635.35,-452.751 1633.38,-442.341 1628.43,-451.706 1635.35,-452.751"/>
<text text-anchor="middle" x="1644.5" y="-484.8" font-family="Times,serif" font-size="14.00">read</text>
</g>
<!-- 10.1.80.183:37642#ServerID_OuterContainerID -->
<g id="node13" class="node"><title>10.1.80.183:37642#ServerID_OuterContainerID</title>
<polygon fill="none" stroke="black" points="3701,-334 3365.52,-316 3701,-298 4036.48,-316 3701,-334"/>
<text text-anchor="middle" x="3701" y="-312.3" font-family="Times,serif" font-size="14.00">10.1.80.183:37642#ServerID_OuterContainerID</text>
</g>
<!-- 10.1.80.183:37642#ServerID_OuterContainerID&#45;&gt;1_fwatchdog#ServerID_1f4f60deee3d -->
<g id="edge15" class="edge"><title>10.1.80.183:37642#ServerID_OuterContainerID&#45;&gt;1_fwatchdog#ServerID_1f4f60deee3d</title>
<path fill="none" stroke="black" d="M3813.12,-304.006C4007.14,-284.981 4405.85,-245.884 4626.52,-224.246"/>
<polygon fill="black" stroke="black" points="4626.95,-227.72 4636.56,-223.261 4626.27,-220.754 4626.95,-227.72"/>
<text text-anchor="middle" x="4225.5" y="-268.8" font-family="Times,serif" font-size="14.00">read</text>
</g>
<!-- localhost:3000#ServerID_1f4f60deee3d -->
<g id="node15" class="node"><title>localhost:3000#ServerID_1f4f60deee3d</title>
<polygon fill="none" stroke="black" points="5285,-139 5005.65,-121 5285,-103 5564.35,-121 5285,-139"/>
<text text-anchor="middle" x="5285" y="-117.3" font-family="Times,serif" font-size="14.00">localhost:3000#ServerID_1f4f60deee3d</text>
</g>
<!-- 1_fwatchdog#ServerID_1f4f60deee3d&#45;&gt;localhost:3000#ServerID_1f4f60deee3d -->
<g id="edge17" class="edge"><title>1_fwatchdog#ServerID_1f4f60deee3d&#45;&gt;localhost:3000#ServerID_1f4f60deee3d</title>
<path fill="none" stroke="black" d="M4882.88,-189.952C4976.63,-174.109 5114.59,-150.796 5202.09,-136.01"/>
<polygon fill="black" stroke="black" points="5202.7,-139.457 5211.98,-134.34 5201.54,-132.555 5202.7,-139.457"/>
<text text-anchor="middle" x="5082" y="-160.8" font-family="Times,serif" font-size="14.00">write</text>
</g>
<!-- pipe:[77303348]#ServerID_1f4f60deee3d -->
<g id="node17" class="node"><title>pipe:[77303348]#ServerID_1f4f60deee3d</title>
<ellipse fill="none" stroke="black" cx="4782" cy="-121" rx="206.063" ry="18"/>
<text text-anchor="middle" x="4782" y="-117.3" font-family="Times,serif" font-size="14.00">pipe:[77303348]#ServerID_1f4f60deee3d</text>
</g>
<!-- 1_fwatchdog#ServerID_1f4f60deee3d&#45;&gt;pipe:[77303348]#ServerID_1f4f60deee3d -->
<g id="edge21" class="edge"><title>1_fwatchdog#ServerID_1f4f60deee3d&#45;&gt;pipe:[77303348]#ServerID_1f4f60deee3d</title>
<path fill="none" stroke="black" d="M4782,-189.799C4782,-178.163 4782,-162.548 4782,-149.237"/>
<polygon fill="black" stroke="black" points="4785.5,-149.175 4782,-139.175 4778.5,-149.175 4785.5,-149.175"/>
<text text-anchor="middle" x="4801" y="-160.8" font-family="Times,serif" font-size="14.00">write</text>
</g>
<!-- localhost:3000#ServerID_1f4f60deee3d&#45;&gt;1_fwatchdog#ServerID_1f4f60deee3d -->
<g id="edge19" class="edge"><title>localhost:3000#ServerID_1f4f60deee3d&#45;&gt;1_fwatchdog#ServerID_1f4f60deee3d</title>
<path fill="none" stroke="black" d="M5241.46,-136.248C5205.29,-147.558 5152.3,-162.93 5105,-172 5050.75,-182.403 4990.73,-189.968 4937.3,-195.345"/>
<polygon fill="black" stroke="black" points="4936.66,-191.891 4927.06,-196.358 4937.35,-198.857 4936.66,-191.891"/>
<text text-anchor="middle" x="5181.5" y="-160.8" font-family="Times,serif" font-size="14.00">read</text>
</g>
<!-- 10_node#ServerID_1f4f60deee3d -->
<g id="node16" class="node"><title>10_node#ServerID_1f4f60deee3d</title>
<polygon fill="none" stroke="black" points="4926.5,-52 4667.5,-52 4667.5,-16 4926.5,-16 4926.5,-52"/>
<text text-anchor="middle" x="4797" y="-30.3" font-family="Times,serif" font-size="14.00">10_node#ServerID_1f4f60deee3d</text>
</g>
<!-- localhost:3000#ServerID_1f4f60deee3d&#45;&gt;10_node#ServerID_1f4f60deee3d -->
<g id="edge18" class="edge"><title>localhost:3000#ServerID_1f4f60deee3d&#45;&gt;10_node#ServerID_1f4f60deee3d</title>
<path fill="none" stroke="black" d="M5213.52,-107.549C5132.29,-93.401 4998.84,-70.1565 4904.93,-53.7985"/>
<polygon fill="black" stroke="black" points="4905.27,-50.3065 4894.82,-52.0386 4904.07,-57.2027 4905.27,-50.3065"/>
<text text-anchor="middle" x="5086.5" y="-73.8" font-family="Times,serif" font-size="14.00">read</text>
</g>
<!-- /home/app/credentials.txt#ServerID_1f4f60deee3d -->
<g id="node18" class="node"><title>/home/app/credentials.txt#ServerID_1f4f60deee3d</title>
<ellipse fill="none" stroke="black" cx="4309" cy="-121" rx="248.856" ry="18"/>
<text text-anchor="middle" x="4309" y="-117.3" font-family="Times,serif" font-size="14.00">/home/app/credentials.txt#ServerID_1f4f60deee3d</text>
</g>
<!-- /home/app/credentials.txt#ServerID_1f4f60deee3d&#45;&gt;10_node#ServerID_1f4f60deee3d -->
<g id="edge22" class="edge"><title>/home/app/credentials.txt#ServerID_1f4f60deee3d&#45;&gt;10_node#ServerID_1f4f60deee3d</title>
<path fill="none" stroke="black" d="M4399.65,-104.211C4481.66,-89.9266 4602.54,-68.8715 4689.42,-53.7388"/>
<polygon fill="black" stroke="black" points="4690.06,-57.1804 4699.31,-52.0162 4688.85,-50.2842 4690.06,-57.1804"/>
<text text-anchor="middle" x="4598.5" y="-73.8" font-family="Times,serif" font-size="14.00">read</text>
</g>
<!-- 10.1.80.1:14414#ServerID_OuterContainerID&#45;&gt;10.1.80.183:8080#ServerID_OuterContainerID -->
<g id="edge23" class="edge"><title>10.1.80.1:14414#ServerID_OuterContainerID&#45;&gt;10.1.80.183:8080#ServerID_OuterContainerID</title>
<path fill="none" stroke="black" d="M1074.77,-226.234C1072.78,-242.024 1067.58,-265.138 1054,-280 1047.98,-286.591 1040.53,-291.973 1032.56,-296.36"/>
<polygon fill="black" stroke="black" points="1030.8,-293.324 1023.4,-300.9 1033.91,-299.597 1030.8,-293.324"/>
<text text-anchor="middle" x="1084" y="-268.8" font-family="Times,serif" font-size="14.00">POST</text>
</g>
</g>
</svg>
