<?xml version="1.0" encoding="UTF-8" standalone="no"?>
<!DOCTYPE svg PUBLIC "-//W3C//DTD SVG 1.1//EN"
 "http://www.w3.org/Graphics/SVG/1.1/DTD/svg11.dtd">
<!-- Generated by graphviz version 2.38.0 (20140413.2041)
 -->
<!-- Title: G Pages: 1 -->
<svg width="6158pt" height="771pt"
 viewBox="0.00 0.00 6157.98 771.00" xmlns="http://www.w3.org/2000/svg" xmlns:xlink="http://www.w3.org/1999/xlink">
<g id="graph0" class="graph" transform="scale(1 1) rotate(0) translate(4 767)">
<title>G</title>
<polygon fill="white" stroke="none" points="-4,4 -4,-767 6153.98,-767 6153.98,4 -4,4"/>
<g id="clust1" class="cluster"><title>clusterServerID_34e86192c217</title>
<polygon fill="none" stroke="black" points="4741,-377 4741,-755 6137,-755 6137,-377 4741,-377"/>
<text text-anchor="middle" x="5439" y="-739.8" font-family="Times,serif" font-size="14.00">clusterServerID_34e86192c217</text>
</g>
<g id="clust2" class="cluster"><title>clusterServerID_5f846fd567&#45;w7nbt</title>
<polygon fill="none" stroke="black" points="2168,-485 2168,-560 2508,-560 2508,-485 2168,-485"/>
<text text-anchor="middle" x="2338" y="-544.8" font-family="Times,serif" font-size="14.00">clusterServerID_5f846fd567&#45;w7nbt</text>
</g>
<g id="clust3" class="cluster"><title>clusterServerID_6df85d7674&#45;2kqrj</title>
<polygon fill="none" stroke="black" points="824,-485 824,-560 1162,-560 1162,-485 824,-485"/>
<text text-anchor="middle" x="993" y="-544.8" font-family="Times,serif" font-size="14.00">clusterServerID_6df85d7674&#45;2kqrj</text>
</g>
<g id="clust4" class="cluster"><title>clusterServerID_OuterContainerID</title>
<polygon fill="none" stroke="black" points="8,-269 8,-452 4733,-452 4733,-269 8,-269"/>
<text text-anchor="middle" x="2370.5" y="-436.8" font-family="Times,serif" font-size="14.00">clusterServerID_OuterContainerID</text>
</g>
<g id="clust5" class="cluster"><title>clusterServerID_e56b6537e2d5</title>
<polygon fill="none" stroke="black" points="4741,-8 4741,-344 5783,-344 5783,-8 4741,-8"/>
<text text-anchor="middle" x="5262" y="-328.8" font-family="Times,serif" font-size="14.00">clusterServerID_e56b6537e2d5</text>
</g>
<!-- 1_fwatchdog#ServerID_6df85d7674&#45;2kqrj -->
<g id="node1" class="node"><title>1_fwatchdog#ServerID_6df85d7674&#45;2kqrj</title>
<polygon fill="none" stroke="black" points="1153.5,-529 832.5,-529 832.5,-493 1153.5,-493 1153.5,-529"/>
<text text-anchor="middle" x="993" y="-507.3" font-family="Times,serif" font-size="14.00">1_fwatchdog#ServerID_6df85d7674&#45;2kqrj</text>
</g>
<!-- gateway:8080#ServerID_OuterContainerID -->
<g id="node2" class="node"><title>gateway:8080#ServerID_OuterContainerID</title>
<polygon fill="none" stroke="black" points="992,-421 687.518,-403 992,-385 1296.48,-403 992,-421"/>
<text text-anchor="middle" x="992" y="-399.3" font-family="Times,serif" font-size="14.00">gateway:8080#ServerID_OuterContainerID</text>
</g>
<!-- 1_fwatchdog#ServerID_6df85d7674&#45;2kqrj&#45;&gt;gateway:8080#ServerID_OuterContainerID -->
<g id="edge1" class="edge"><title>1_fwatchdog#ServerID_6df85d7674&#45;2kqrj&#45;&gt;gateway:8080#ServerID_OuterContainerID</title>
<path fill="none" stroke="black" d="M1012.58,-492.831C1017.21,-487.619 1021.52,-481.527 1024,-475 1026.36,-468.766 1025.71,-466.443 1024,-460 1021.15,-449.286 1015.72,-438.483 1010.13,-429.263"/>
<polygon fill="black" stroke="black" points="1012.93,-427.148 1004.58,-420.633 1007.05,-430.936 1012.93,-427.148"/>
<text text-anchor="middle" x="1046" y="-463.8" font-family="Times,serif" font-size="14.00">POST</text>
</g>
<!-- 10.1.80.247:8080#ServerID_OuterContainerID -->
<g id="node3" class="node"><title>10.1.80.247:8080#ServerID_OuterContainerID</title>
<polygon fill="none" stroke="black" points="343,-421 15.5599,-403 343,-385 670.44,-403 343,-421"/>
<text text-anchor="middle" x="343" y="-399.3" font-family="Times,serif" font-size="14.00">10.1.80.247:8080#ServerID_OuterContainerID</text>
</g>
<!-- 1_fwatchdog#ServerID_6df85d7674&#45;2kqrj&#45;&gt;10.1.80.247:8080#ServerID_OuterContainerID -->
<g id="edge2" class="edge"><title>1_fwatchdog#ServerID_6df85d7674&#45;2kqrj&#45;&gt;10.1.80.247:8080#ServerID_OuterContainerID</title>
<path fill="none" stroke="black" d="M832.338,-497.809C774.631,-492.323 709.198,-484.826 650,-475 564.372,-460.787 466.955,-436.918 405.256,-420.823"/>
<polygon fill="black" stroke="black" points="405.853,-417.361 395.292,-418.21 404.077,-424.132 405.853,-417.361"/>
<text text-anchor="middle" x="670" y="-463.8" font-family="Times,serif" font-size="14.00">POST</text>
</g>
<!-- 10.1.80.247:56388#ServerID_OuterContainerID -->
<g id="node6" class="node"><title>10.1.80.247:56388#ServerID_OuterContainerID</title>
<polygon fill="none" stroke="black" points="1650,-421 1314.52,-403 1650,-385 1985.48,-403 1650,-421"/>
<text text-anchor="middle" x="1650" y="-399.3" font-family="Times,serif" font-size="14.00">10.1.80.247:56388#ServerID_OuterContainerID</text>
</g>
<!-- 1_fwatchdog#ServerID_6df85d7674&#45;2kqrj&#45;&gt;10.1.80.247:56388#ServerID_OuterContainerID -->
<g id="edge7" class="edge"><title>1_fwatchdog#ServerID_6df85d7674&#45;2kqrj&#45;&gt;10.1.80.247:56388#ServerID_OuterContainerID</title>
<path fill="none" stroke="black" d="M1096.73,-492.951C1155.97,-483.239 1231.64,-470.876 1299,-460 1387.55,-445.702 1488.7,-429.588 1559.59,-418.328"/>
<polygon fill="black" stroke="black" points="1560.5,-421.728 1569.83,-416.703 1559.4,-414.815 1560.5,-421.728"/>
<text text-anchor="middle" x="1341" y="-463.8" font-family="Times,serif" font-size="14.00">RESPONSE</text>
</g>
<!-- gateway:8080#ServerID_OuterContainerID&#45;&gt;1_fwatchdog#ServerID_6df85d7674&#45;2kqrj -->
<g id="edge5" class="edge"><title>gateway:8080#ServerID_OuterContainerID&#45;&gt;1_fwatchdog#ServerID_6df85d7674&#45;2kqrj</title>
<path fill="none" stroke="black" d="M965.625,-419.594C945.989,-433.327 924.426,-454.312 936,-475 938.39,-479.272 941.539,-483.087 945.131,-486.478"/>
<polygon fill="black" stroke="black" points="943.049,-489.295 953.028,-492.856 947.448,-483.85 943.049,-489.295"/>
<text text-anchor="middle" x="978" y="-463.8" font-family="Times,serif" font-size="14.00">RESPONSE</text>
</g>
<!-- 10.1.80.247:8080#ServerID_OuterContainerID&#45;&gt;1_fwatchdog#ServerID_6df85d7674&#45;2kqrj -->
<g id="edge4" class="edge"><title>10.1.80.247:8080#ServerID_OuterContainerID&#45;&gt;1_fwatchdog#ServerID_6df85d7674&#45;2kqrj</title>
<path fill="none" stroke="black" d="M422.257,-416.709C492.598,-428.008 598.156,-445.011 690,-460 752.917,-470.268 823.163,-481.852 880.164,-491.283"/>
<polygon fill="black" stroke="black" points="879.847,-494.778 890.284,-492.957 880.99,-487.872 879.847,-494.778"/>
<text text-anchor="middle" x="816" y="-463.8" font-family="Times,serif" font-size="14.00">RESPONSE</text>
</g>
<!-- 10.1.80.1:58380#ServerID_OuterContainerID -->
<g id="node21" class="node"><title>10.1.80.1:58380#ServerID_OuterContainerID</title>
<polygon fill="none" stroke="black" points="335,-313 16.1049,-295 335,-277 653.895,-295 335,-313"/>
<text text-anchor="middle" x="335" y="-291.3" font-family="Times,serif" font-size="14.00">10.1.80.1:58380#ServerID_OuterContainerID</text>
</g>
<!-- 10.1.80.247:8080#ServerID_OuterContainerID&#45;&gt;10.1.80.1:58380#ServerID_OuterContainerID -->
<g id="edge26" class="edge"><title>10.1.80.247:8080#ServerID_OuterContainerID&#45;&gt;10.1.80.1:58380#ServerID_OuterContainerID</title>
<path fill="none" stroke="black" d="M345.928,-384.962C346.775,-379.269 347.582,-372.878 348,-367 348.473,-360.35 348.759,-358.623 348,-352 346.894,-342.346 344.749,-331.935 342.515,-322.74"/>
<polygon fill="black" stroke="black" points="345.886,-321.793 340.006,-312.98 339.106,-323.536 345.886,-321.793"/>
<text text-anchor="middle" x="391" y="-355.8" font-family="Times,serif" font-size="14.00">RESPONSE</text>
</g>
<!-- 10.0.88.125:31112#ServerID_OuterContainerID -->
<g id="node22" class="node"><title>10.0.88.125:31112#ServerID_OuterContainerID</title>
<polygon fill="none" stroke="black" points="1007,-313 671.515,-295 1007,-277 1342.48,-295 1007,-313"/>
<text text-anchor="middle" x="1007" y="-291.3" font-family="Times,serif" font-size="14.00">10.0.88.125:31112#ServerID_OuterContainerID</text>
</g>
<!-- 10.1.80.247:8080#ServerID_OuterContainerID&#45;&gt;10.0.88.125:31112#ServerID_OuterContainerID -->
<g id="edge28" class="edge"><title>10.1.80.247:8080#ServerID_OuterContainerID&#45;&gt;10.0.88.125:31112#ServerID_OuterContainerID</title>
<path fill="none" stroke="black" d="M422.434,-389.319C546.818,-369.463 786.788,-331.154 917.247,-310.328"/>
<polygon fill="black" stroke="black" points="917.893,-313.769 927.216,-308.737 916.789,-306.857 917.893,-313.769"/>
<text text-anchor="middle" x="698" y="-355.8" font-family="Times,serif" font-size="14.00">RESPONSE</text>
</g>
<!-- 1_fwatchdog#ServerID_5f846fd567&#45;w7nbt -->
<g id="node4" class="node"><title>1_fwatchdog#ServerID_5f846fd567&#45;w7nbt</title>
<polygon fill="none" stroke="black" points="2500,-529 2176,-529 2176,-493 2500,-493 2500,-529"/>
<text text-anchor="middle" x="2338" y="-507.3" font-family="Times,serif" font-size="14.00">1_fwatchdog#ServerID_5f846fd567&#45;w7nbt</text>
</g>
<!-- 10.1.80.247:58442#ServerID_OuterContainerID -->
<g id="node5" class="node"><title>10.1.80.247:58442#ServerID_OuterContainerID</title>
<polygon fill="none" stroke="black" points="2339,-421 2003.52,-403 2339,-385 2674.48,-403 2339,-421"/>
<text text-anchor="middle" x="2339" y="-399.3" font-family="Times,serif" font-size="14.00">10.1.80.247:58442#ServerID_OuterContainerID</text>
</g>
<!-- 1_fwatchdog#ServerID_5f846fd567&#45;w7nbt&#45;&gt;10.1.80.247:58442#ServerID_OuterContainerID -->
<g id="edge3" class="edge"><title>1_fwatchdog#ServerID_5f846fd567&#45;w7nbt&#45;&gt;10.1.80.247:58442#ServerID_OuterContainerID</title>
<path fill="none" stroke="black" d="M2343.96,-492.759C2345.61,-487.165 2347.18,-480.883 2348,-475 2350.04,-460.436 2348.27,-444.162 2345.78,-430.873"/>
<polygon fill="black" stroke="black" points="2349.17,-430.006 2343.68,-420.944 2342.32,-431.452 2349.17,-430.006"/>
<text text-anchor="middle" x="2391" y="-463.8" font-family="Times,serif" font-size="14.00">RESPONSE</text>
</g>
<!-- 10.1.80.247:58442#ServerID_OuterContainerID&#45;&gt;1_fwatchdog#ServerID_5f846fd567&#45;w7nbt -->
<g id="edge9" class="edge"><title>10.1.80.247:58442#ServerID_OuterContainerID&#45;&gt;1_fwatchdog#ServerID_5f846fd567&#45;w7nbt</title>
<path fill="none" stroke="black" d="M2325.26,-420.449C2317.35,-431.019 2308.17,-445.453 2304,-460 2302.16,-466.408 2301.49,-468.822 2304,-475 2305.42,-478.503 2307.38,-481.848 2309.65,-484.984"/>
<polygon fill="black" stroke="black" points="2307.08,-487.372 2316.2,-492.762 2312.43,-482.86 2307.08,-487.372"/>
<text text-anchor="middle" x="2324" y="-463.8" font-family="Times,serif" font-size="14.00">POST</text>
</g>
<!-- 1_fwatchdog#ServerID_e56b6537e2d5 -->
<g id="node12" class="node"><title>1_fwatchdog#ServerID_e56b6537e2d5</title>
<polygon fill="none" stroke="black" points="5088.5,-313 4789.5,-313 4789.5,-277 5088.5,-277 5088.5,-313"/>
<text text-anchor="middle" x="4939" y="-291.3" font-family="Times,serif" font-size="14.00">1_fwatchdog#ServerID_e56b6537e2d5</text>
</g>
<!-- 10.1.80.247:58442#ServerID_OuterContainerID&#45;&gt;1_fwatchdog#ServerID_e56b6537e2d5 -->
<g id="edge21" class="edge"><title>10.1.80.247:58442#ServerID_OuterContainerID&#45;&gt;1_fwatchdog#ServerID_e56b6537e2d5</title>
<path fill="none" stroke="black" d="M2462.26,-391.58C2528.03,-386.396 2610.37,-380.505 2684,-377 3171.13,-353.814 3293.38,-359.596 3781,-352 3834.11,-351.173 4684.27,-350.402 4737,-344 4783.02,-338.412 4833.78,-326.326 4872.9,-315.679"/>
<polygon fill="black" stroke="black" points="4873.88,-319.041 4882.59,-313.009 4872.02,-312.293 4873.88,-319.041"/>
<text text-anchor="middle" x="3797.5" y="-355.8" font-family="Times,serif" font-size="14.00">read</text>
</g>
<!-- 10.1.80.247:56388#ServerID_OuterContainerID&#45;&gt;1_fwatchdog#ServerID_6df85d7674&#45;2kqrj -->
<g id="edge6" class="edge"><title>10.1.80.247:56388#ServerID_OuterContainerID&#45;&gt;1_fwatchdog#ServerID_6df85d7674&#45;2kqrj</title>
<path fill="none" stroke="black" d="M1605.4,-418.612C1553.52,-435.007 1464.99,-461.119 1387,-475 1314.5,-487.903 1233.62,-496.137 1164.08,-501.35"/>
<polygon fill="black" stroke="black" points="1163.63,-497.874 1153.91,-502.098 1164.14,-504.856 1163.63,-497.874"/>
<text text-anchor="middle" x="1473" y="-463.8" font-family="Times,serif" font-size="14.00">POST</text>
</g>
<!-- 1_fwatchdog#ServerID_34e86192c217 -->
<g id="node9" class="node"><title>1_fwatchdog#ServerID_34e86192c217</title>
<polygon fill="none" stroke="black" points="6060.5,-724 5761.5,-724 5761.5,-688 6060.5,-688 6060.5,-724"/>
<text text-anchor="middle" x="5911" y="-702.3" font-family="Times,serif" font-size="14.00">1_fwatchdog#ServerID_34e86192c217</text>
</g>
<!-- 10.1.80.247:56388#ServerID_OuterContainerID&#45;&gt;1_fwatchdog#ServerID_34e86192c217 -->
<g id="edge11" class="edge"><title>10.1.80.247:56388#ServerID_OuterContainerID&#45;&gt;1_fwatchdog#ServerID_34e86192c217</title>
<path fill="none" stroke="black" d="M1723.06,-417.098C1792.68,-428.883 1900.59,-445.338 1995,-452 2161.59,-463.756 4834.33,-449.482 5001,-460 5255.1,-476.035 5969.41,-410.212 6138,-601 6176.03,-644.036 6113.9,-670.382 6045.1,-685.787"/>
<polygon fill="black" stroke="black" points="6043.95,-682.454 6034.91,-687.981 6045.42,-689.297 6043.95,-682.454"/>
<text text-anchor="middle" x="6132.5" y="-571.8" font-family="Times,serif" font-size="14.00">read</text>
</g>
<!-- 10_node#ServerID_34e86192c217 -->
<g id="node7" class="node"><title>10_node#ServerID_34e86192c217</title>
<polygon fill="none" stroke="black" points="5087.5,-529 4820.5,-529 4820.5,-493 5087.5,-493 5087.5,-529"/>
<text text-anchor="middle" x="4954" y="-507.3" font-family="Times,serif" font-size="14.00">10_node#ServerID_34e86192c217</text>
</g>
<!-- 10_node#ServerID_34e86192c217&#45;&gt;gateway:8080#ServerID_OuterContainerID -->
<g id="edge19" class="edge"><title>10_node#ServerID_34e86192c217&#45;&gt;gateway:8080#ServerID_OuterContainerID</title>
<path fill="none" stroke="black" d="M4820.31,-506.742C4444.75,-497.721 3348.2,-472.273 2437,-460 2311.34,-458.308 1431.27,-461.966 1306,-452 1224.47,-445.514 1132.01,-430.432 1068.66,-418.891"/>
<polygon fill="black" stroke="black" points="1069.21,-415.435 1058.74,-417.071 1067.95,-422.32 1069.21,-415.435"/>
<text text-anchor="middle" x="3366" y="-463.8" font-family="Times,serif" font-size="14.00">connect</text>
</g>
<!-- pipe:[331683264]#ServerID_34e86192c217 -->
<g id="node8" class="node"><title>pipe:[331683264]#ServerID_34e86192c217</title>
<ellipse fill="none" stroke="black" cx="4966" cy="-403" rx="217.162" ry="18"/>
<text text-anchor="middle" x="4966" y="-399.3" font-family="Times,serif" font-size="14.00">pipe:[331683264]#ServerID_34e86192c217</text>
</g>
<!-- 10_node#ServerID_34e86192c217&#45;&gt;pipe:[331683264]#ServerID_34e86192c217 -->
<g id="edge8" class="edge"><title>10_node#ServerID_34e86192c217&#45;&gt;pipe:[331683264]#ServerID_34e86192c217</title>
<path fill="none" stroke="black" d="M4955.93,-492.969C4957.81,-476.378 4960.69,-450.883 4962.89,-431.431"/>
<polygon fill="black" stroke="black" points="4966.39,-431.671 4964.04,-421.341 4959.43,-430.883 4966.39,-431.671"/>
<text text-anchor="middle" x="4978" y="-463.8" font-family="Times,serif" font-size="14.00">write</text>
</g>
<!-- 10.152.183.10:53#ServerID_OuterContainerID -->
<g id="node15" class="node"><title>10.152.183.10:53#ServerID_OuterContainerID</title>
<polygon fill="none" stroke="black" points="4398,-421 4070.56,-403 4398,-385 4725.44,-403 4398,-421"/>
<text text-anchor="middle" x="4398" y="-399.3" font-family="Times,serif" font-size="14.00">10.152.183.10:53#ServerID_OuterContainerID</text>
</g>
<!-- 10_node#ServerID_34e86192c217&#45;&gt;10.152.183.10:53#ServerID_OuterContainerID -->
<g id="edge16" class="edge"><title>10_node#ServerID_34e86192c217&#45;&gt;10.152.183.10:53#ServerID_OuterContainerID</title>
<path fill="none" stroke="black" d="M4864.67,-492.969C4757.57,-472.552 4579.75,-438.649 4477.31,-419.12"/>
<polygon fill="black" stroke="black" points="4477.81,-415.652 4467.33,-417.218 4476.5,-422.529 4477.81,-415.652"/>
<text text-anchor="middle" x="4783.5" y="-463.8" font-family="Times,serif" font-size="14.00">sendto</text>
</g>
<!-- localhost:3000#ServerID_34e86192c217 -->
<g id="node10" class="node"><title>localhost:3000#ServerID_34e86192c217</title>
<polygon fill="none" stroke="black" points="5842,-637 5555.45,-619 5842,-601 6128.55,-619 5842,-637"/>
<text text-anchor="middle" x="5842" y="-615.3" font-family="Times,serif" font-size="14.00">localhost:3000#ServerID_34e86192c217</text>
</g>
<!-- 1_fwatchdog#ServerID_34e86192c217&#45;&gt;localhost:3000#ServerID_34e86192c217 -->
<g id="edge10" class="edge"><title>1_fwatchdog#ServerID_34e86192c217&#45;&gt;localhost:3000#ServerID_34e86192c217</title>
<path fill="none" stroke="black" d="M5897.04,-687.799C5886.83,-675.228 5872.86,-658.014 5861.55,-644.077"/>
<polygon fill="black" stroke="black" points="5864.26,-641.868 5855.24,-636.31 5858.83,-646.28 5864.26,-641.868"/>
<text text-anchor="middle" x="5899" y="-658.8" font-family="Times,serif" font-size="14.00">write</text>
</g>
<!-- localhost:3000#ServerID_34e86192c217&#45;&gt;10_node#ServerID_34e86192c217 -->
<g id="edge12" class="edge"><title>localhost:3000#ServerID_34e86192c217&#45;&gt;10_node#ServerID_34e86192c217</title>
<path fill="none" stroke="black" d="M5748.65,-606.856C5593.42,-588.328 5281.22,-551.06 5097.74,-529.158"/>
<polygon fill="black" stroke="black" points="5098.09,-525.675 5087.74,-527.965 5097.26,-532.625 5098.09,-525.675"/>
<text text-anchor="middle" x="5545.5" y="-571.8" font-family="Times,serif" font-size="14.00">read</text>
</g>
<!-- 10.1.80.247:58392#ServerID_OuterContainerID -->
<g id="node11" class="node"><title>10.1.80.247:58392#ServerID_OuterContainerID</title>
<polygon fill="none" stroke="black" points="3028,-421 2692.52,-403 3028,-385 3363.48,-403 3028,-421"/>
<text text-anchor="middle" x="3028" y="-399.3" font-family="Times,serif" font-size="14.00">10.1.80.247:58392#ServerID_OuterContainerID</text>
</g>
<!-- 10.1.80.247:58392#ServerID_OuterContainerID&#45;&gt;1_fwatchdog#ServerID_e56b6537e2d5 -->
<g id="edge13" class="edge"><title>10.1.80.247:58392#ServerID_OuterContainerID&#45;&gt;1_fwatchdog#ServerID_e56b6537e2d5</title>
<path fill="none" stroke="black" d="M3151.66,-391.59C3217.37,-386.426 3299.52,-380.549 3373,-377 3391.93,-376.086 4718.21,-346.433 4737,-344 4782.64,-338.091 4833,-326.136 4872.02,-315.636"/>
<polygon fill="black" stroke="black" points="4872.96,-319.008 4881.69,-313.003 4871.12,-312.255 4872.96,-319.008"/>
<text text-anchor="middle" x="4454.5" y="-355.8" font-family="Times,serif" font-size="14.00">read</text>
</g>
<!-- localhost:3000#ServerID_e56b6537e2d5 -->
<g id="node16" class="node"><title>localhost:3000#ServerID_e56b6537e2d5</title>
<polygon fill="none" stroke="black" points="5036,-226 4749.45,-208 5036,-190 5322.55,-208 5036,-226"/>
<text text-anchor="middle" x="5036" y="-204.3" font-family="Times,serif" font-size="14.00">localhost:3000#ServerID_e56b6537e2d5</text>
</g>
<!-- 1_fwatchdog#ServerID_e56b6537e2d5&#45;&gt;localhost:3000#ServerID_e56b6537e2d5 -->
<g id="edge20" class="edge"><title>1_fwatchdog#ServerID_e56b6537e2d5&#45;&gt;localhost:3000#ServerID_e56b6537e2d5</title>
<path fill="none" stroke="black" d="M4963.43,-276.847C4970.86,-271.362 4978.92,-265.12 4986,-259 4995.48,-250.804 5005.35,-241.193 5013.8,-232.6"/>
<polygon fill="black" stroke="black" points="5016.36,-234.987 5020.8,-225.37 5011.33,-230.116 5016.36,-234.987"/>
<text text-anchor="middle" x="5020" y="-247.8" font-family="Times,serif" font-size="14.00">write</text>
</g>
<!-- pipe:[331682317]#ServerID_e56b6537e2d5 -->
<g id="node20" class="node"><title>pipe:[331682317]#ServerID_e56b6537e2d5</title>
<ellipse fill="none" stroke="black" cx="5558" cy="-208" rx="217.162" ry="18"/>
<text text-anchor="middle" x="5558" y="-204.3" font-family="Times,serif" font-size="14.00">pipe:[331682317]#ServerID_e56b6537e2d5</text>
</g>
<!-- 1_fwatchdog#ServerID_e56b6537e2d5&#45;&gt;pipe:[331682317]#ServerID_e56b6537e2d5 -->
<g id="edge25" class="edge"><title>1_fwatchdog#ServerID_e56b6537e2d5&#45;&gt;pipe:[331682317]#ServerID_e56b6537e2d5</title>
<path fill="none" stroke="black" d="M5063.15,-276.952C5173.35,-261.819 5333.19,-239.871 5441.13,-225.048"/>
<polygon fill="black" stroke="black" points="5441.66,-228.509 5451.09,-223.681 5440.7,-221.574 5441.66,-228.509"/>
<text text-anchor="middle" x="5304" y="-247.8" font-family="Times,serif" font-size="14.00">write</text>
</g>
<!-- /etc/hosts#ServerID_34e86192c217 -->
<g id="node13" class="node"><title>/etc/hosts#ServerID_34e86192c217</title>
<ellipse fill="none" stroke="black" cx="5357" cy="-619" rx="180.068" ry="18"/>
<text text-anchor="middle" x="5357" y="-615.3" font-family="Times,serif" font-size="14.00">/etc/hosts#ServerID_34e86192c217</text>
</g>
<!-- /etc/hosts#ServerID_34e86192c217&#45;&gt;10_node#ServerID_34e86192c217 -->
<g id="edge14" class="edge"><title>/etc/hosts#ServerID_34e86192c217&#45;&gt;10_node#ServerID_34e86192c217</title>
<path fill="none" stroke="black" d="M5296.23,-602.016C5224.79,-583.224 5106.2,-552.033 5029.07,-531.746"/>
<polygon fill="black" stroke="black" points="5029.5,-528.241 5018.94,-529.082 5027.72,-535.011 5029.5,-528.241"/>
<text text-anchor="middle" x="5231.5" y="-571.8" font-family="Times,serif" font-size="14.00">read</text>
</g>
<!-- /etc/resolv.conf#ServerID_34e86192c217 -->
<g id="node14" class="node"><title>/etc/resolv.conf#ServerID_34e86192c217</title>
<ellipse fill="none" stroke="black" cx="4954" cy="-619" rx="205.264" ry="18"/>
<text text-anchor="middle" x="4954" y="-615.3" font-family="Times,serif" font-size="14.00">/etc/resolv.conf#ServerID_34e86192c217</text>
</g>
<!-- /etc/resolv.conf#ServerID_34e86192c217&#45;&gt;10_node#ServerID_34e86192c217 -->
<g id="edge15" class="edge"><title>/etc/resolv.conf#ServerID_34e86192c217&#45;&gt;10_node#ServerID_34e86192c217</title>
<path fill="none" stroke="black" d="M4954,-600.969C4954,-584.378 4954,-558.883 4954,-539.431"/>
<polygon fill="black" stroke="black" points="4957.5,-539.341 4954,-529.341 4950.5,-539.341 4957.5,-539.341"/>
<text text-anchor="middle" x="4970.5" y="-571.8" font-family="Times,serif" font-size="14.00">read</text>
</g>
<!-- 10.152.183.10:53#ServerID_OuterContainerID&#45;&gt;10_node#ServerID_34e86192c217 -->
<g id="edge17" class="edge"><title>10.152.183.10:53#ServerID_OuterContainerID&#45;&gt;10_node#ServerID_34e86192c217</title>
<path fill="none" stroke="black" d="M4437.19,-419.011C4481.59,-435.39 4556.44,-461.125 4623,-475 4683.7,-487.652 4751.66,-495.847 4810.13,-501.098"/>
<polygon fill="black" stroke="black" points="4809.91,-504.592 4820.18,-501.98 4810.53,-497.619 4809.91,-504.592"/>
<text text-anchor="middle" x="4656" y="-463.8" font-family="Times,serif" font-size="14.00">recvfrom</text>
</g>
<!-- localhost:3000#ServerID_e56b6537e2d5&#45;&gt;1_fwatchdog#ServerID_e56b6537e2d5 -->
<g id="edge24" class="edge"><title>localhost:3000#ServerID_e56b6537e2d5&#45;&gt;1_fwatchdog#ServerID_e56b6537e2d5</title>
<path fill="none" stroke="black" d="M4979.17,-222.457C4967.78,-227.527 4956.9,-234.48 4949,-244 4943.67,-250.418 4940.91,-258.884 4939.55,-267.022"/>
<polygon fill="black" stroke="black" points="4936.07,-266.66 4938.49,-276.975 4943.03,-267.404 4936.07,-266.66"/>
<text text-anchor="middle" x="4965.5" y="-247.8" font-family="Times,serif" font-size="14.00">read</text>
</g>
<!-- 12_node#ServerID_e56b6537e2d5 -->
<g id="node17" class="node"><title>12_node#ServerID_e56b6537e2d5</title>
<polygon fill="none" stroke="black" points="5169.5,-139 4902.5,-139 4902.5,-103 5169.5,-103 5169.5,-139"/>
<text text-anchor="middle" x="5036" y="-117.3" font-family="Times,serif" font-size="14.00">12_node#ServerID_e56b6537e2d5</text>
</g>
<!-- localhost:3000#ServerID_e56b6537e2d5&#45;&gt;12_node#ServerID_e56b6537e2d5 -->
<g id="edge18" class="edge"><title>localhost:3000#ServerID_e56b6537e2d5&#45;&gt;12_node#ServerID_e56b6537e2d5</title>
<path fill="none" stroke="black" d="M5036,-189.799C5036,-178.163 5036,-162.548 5036,-149.237"/>
<polygon fill="black" stroke="black" points="5039.5,-149.175 5036,-139.175 5032.5,-149.175 5039.5,-149.175"/>
<text text-anchor="middle" x="5052.5" y="-160.8" font-family="Times,serif" font-size="14.00">read</text>
</g>
<!-- pipe:[331682415]#ServerID_e56b6537e2d5 -->
<g id="node19" class="node"><title>pipe:[331682415]#ServerID_e56b6537e2d5</title>
<ellipse fill="none" stroke="black" cx="5036" cy="-34" rx="217.162" ry="18"/>
<text text-anchor="middle" x="5036" y="-30.3" font-family="Times,serif" font-size="14.00">pipe:[331682415]#ServerID_e56b6537e2d5</text>
</g>
<!-- 12_node#ServerID_e56b6537e2d5&#45;&gt;pipe:[331682415]#ServerID_e56b6537e2d5 -->
<g id="edge23" class="edge"><title>12_node#ServerID_e56b6537e2d5&#45;&gt;pipe:[331682415]#ServerID_e56b6537e2d5</title>
<path fill="none" stroke="black" d="M5036,-102.799C5036,-91.1626 5036,-75.5479 5036,-62.2368"/>
<polygon fill="black" stroke="black" points="5039.5,-62.1754 5036,-52.1754 5032.5,-62.1755 5039.5,-62.1754"/>
<text text-anchor="middle" x="5055" y="-73.8" font-family="Times,serif" font-size="14.00">write</text>
</g>
<!-- 10.1.80.247:58428#ServerID_OuterContainerID -->
<g id="node18" class="node"><title>10.1.80.247:58428#ServerID_OuterContainerID</title>
<polygon fill="none" stroke="black" points="3717,-421 3381.52,-403 3717,-385 4052.48,-403 3717,-421"/>
<text text-anchor="middle" x="3717" y="-399.3" font-family="Times,serif" font-size="14.00">10.1.80.247:58428#ServerID_OuterContainerID</text>
</g>
<!-- 10.1.80.247:58428#ServerID_OuterContainerID&#45;&gt;1_fwatchdog#ServerID_e56b6537e2d5 -->
<g id="edge22" class="edge"><title>10.1.80.247:58428#ServerID_OuterContainerID&#45;&gt;1_fwatchdog#ServerID_e56b6537e2d5</title>
<path fill="none" stroke="black" d="M3846.38,-391.902C3911.11,-387.034 3990.67,-381.328 4062,-377 4361.81,-358.811 4439.63,-386.232 4737,-344 4781.72,-337.649 4831.05,-326.016 4869.77,-315.793"/>
<polygon fill="black" stroke="black" points="4871.13,-319.053 4879.89,-313.09 4869.33,-312.29 4871.13,-319.053"/>
<text text-anchor="middle" x="4686.5" y="-355.8" font-family="Times,serif" font-size="14.00">read</text>
</g>
<!-- 10.1.80.1:58380#ServerID_OuterContainerID&#45;&gt;10.1.80.247:8080#ServerID_OuterContainerID -->
<g id="edge27" class="edge"><title>10.1.80.1:58380#ServerID_OuterContainerID&#45;&gt;10.1.80.247:8080#ServerID_OuterContainerID</title>
<path fill="none" stroke="black" d="M319.684,-312.389C308.16,-326.8 295.669,-348.33 304,-367 305.886,-371.227 308.563,-375.156 311.641,-378.739"/>
<polygon fill="black" stroke="black" points="309.339,-381.387 318.872,-386.01 314.302,-376.451 309.339,-381.387"/>
<text text-anchor="middle" x="324" y="-355.8" font-family="Times,serif" font-size="14.00">POST</text>
</g>
</g>
</svg>
