<?xml version="1.0" encoding="UTF-8" standalone="no"?>
<!DOCTYPE svg PUBLIC "-//W3C//DTD SVG 1.1//EN"
 "http://www.w3.org/Graphics/SVG/1.1/DTD/svg11.dtd">
<!-- Generated by graphviz version 2.38.0 (20140413.2041)
 -->
<!-- Title: G Pages: 1 -->
<svg width="7520pt" height="402pt"
 viewBox="0.00 0.00 7520.00 402.00" xmlns="http://www.w3.org/2000/svg" xmlns:xlink="http://www.w3.org/1999/xlink">
<g id="graph0" class="graph" transform="scale(1 1) rotate(0) translate(4 398)">
<title>G</title>
<polygon fill="white" stroke="none" points="-4,4 -4,-398 7516,-398 7516,4 -4,4"/>
<g id="clust1" class="cluster"><title>clusterServerID_34e86192c217</title>
<polygon fill="none" stroke="black" points="6241,-8 6241,-170 6842,-170 6842,-8 6241,-8"/>
<text text-anchor="middle" x="6541.5" y="-154.8" font-family="Times,serif" font-size="14.00">clusterServerID_34e86192c217</text>
</g>
<g id="clust2" class="cluster"><title>clusterServerID_5f846fd567&#45;w7nbt</title>
<polygon fill="none" stroke="black" points="6850,-95 6850,-170 7190,-170 7190,-95 6850,-95"/>
<text text-anchor="middle" x="7020" y="-154.8" font-family="Times,serif" font-size="14.00">clusterServerID_5f846fd567&#45;w7nbt</text>
</g>
<g id="clust3" class="cluster"><title>clusterServerID_6df85d7674&#45;2kqrj</title>
<polygon fill="none" stroke="black" points="2436,-311 2436,-386 2774,-386 2774,-311 2436,-311"/>
<text text-anchor="middle" x="2605" y="-370.8" font-family="Times,serif" font-size="14.00">clusterServerID_6df85d7674&#45;2kqrj</text>
</g>
<g id="clust4" class="cluster"><title>clusterServerID_90667071e782</title>
<polygon fill="none" stroke="black" points="5687,-311 5687,-386 6003,-386 6003,-311 5687,-311"/>
<text text-anchor="middle" x="5845" y="-370.8" font-family="Times,serif" font-size="14.00">clusterServerID_90667071e782</text>
</g>
<g id="clust5" class="cluster"><title>clusterServerID_OuterContainerID</title>
<polygon fill="none" stroke="black" points="918,-95 918,-278 6233,-278 6233,-95 918,-95"/>
<text text-anchor="middle" x="3575.5" y="-262.8" font-family="Times,serif" font-size="14.00">clusterServerID_OuterContainerID</text>
</g>
<g id="clust6" class="cluster"><title>clusterServerID_c437f7cecfb6</title>
<polygon fill="none" stroke="black" points="7198,-95 7198,-170 7504,-170 7504,-95 7198,-95"/>
<text text-anchor="middle" x="7351" y="-154.8" font-family="Times,serif" font-size="14.00">clusterServerID_c437f7cecfb6</text>
</g>
<g id="clust7" class="cluster"><title>clusterServerID_e56b6537e2d5</title>
<polygon fill="none" stroke="black" points="8,-8 8,-278 910,-278 910,-8 8,-8"/>
<text text-anchor="middle" x="459" y="-262.8" font-family="Times,serif" font-size="14.00">clusterServerID_e56b6537e2d5</text>
</g>
<!-- 10.1.80.247:56602#ServerID_OuterContainerID -->
<g id="node1" class="node"><title>10.1.80.247:56602#ServerID_OuterContainerID</title>
<polygon fill="none" stroke="black" points="2606,-247 2270.52,-229 2606,-211 2941.48,-229 2606,-247"/>
<text text-anchor="middle" x="2606" y="-225.3" font-family="Times,serif" font-size="14.00">10.1.80.247:56602#ServerID_OuterContainerID</text>
</g>
<!-- 1_fwatchdog#ServerID_6df85d7674&#45;2kqrj -->
<g id="node2" class="node"><title>1_fwatchdog#ServerID_6df85d7674&#45;2kqrj</title>
<polygon fill="none" stroke="black" points="2765.5,-355 2444.5,-355 2444.5,-319 2765.5,-319 2765.5,-355"/>
<text text-anchor="middle" x="2605" y="-333.3" font-family="Times,serif" font-size="14.00">1_fwatchdog#ServerID_6df85d7674&#45;2kqrj</text>
</g>
<!-- 10.1.80.247:56602#ServerID_OuterContainerID&#45;&gt;1_fwatchdog#ServerID_6df85d7674&#45;2kqrj -->
<g id="edge1" class="edge"><title>10.1.80.247:56602#ServerID_OuterContainerID&#45;&gt;1_fwatchdog#ServerID_6df85d7674&#45;2kqrj</title>
<path fill="none" stroke="black" d="M2593.81,-246.692C2586.8,-257.353 2578.67,-271.798 2575,-286 2573.33,-292.455 2572.69,-294.747 2575,-301 2576.23,-304.328 2577.94,-307.554 2579.91,-310.612"/>
<polygon fill="black" stroke="black" points="2577.22,-312.86 2586.04,-318.736 2582.81,-308.644 2577.22,-312.86"/>
<text text-anchor="middle" x="2595" y="-289.8" font-family="Times,serif" font-size="14.00">POST</text>
</g>
<!-- 1_fwatchdog#ServerID_34e86192c217 -->
<g id="node10" class="node"><title>1_fwatchdog#ServerID_34e86192c217</title>
<polygon fill="none" stroke="black" points="6548.5,-139 6249.5,-139 6249.5,-103 6548.5,-103 6548.5,-139"/>
<text text-anchor="middle" x="6399" y="-117.3" font-family="Times,serif" font-size="14.00">1_fwatchdog#ServerID_34e86192c217</text>
</g>
<!-- 10.1.80.247:56602#ServerID_OuterContainerID&#45;&gt;1_fwatchdog#ServerID_34e86192c217 -->
<g id="edge13" class="edge"><title>10.1.80.247:56602#ServerID_OuterContainerID&#45;&gt;1_fwatchdog#ServerID_34e86192c217</title>
<path fill="none" stroke="black" d="M2765.28,-219.536C2823.68,-216.595 2890.33,-213.428 2951,-211 3427.29,-191.936 3546.4,-186.195 4023,-178 4084.49,-176.943 6176.15,-178.937 6237,-170 6273.53,-164.634 6313.31,-152.94 6344.3,-142.438"/>
<polygon fill="black" stroke="black" points="6345.73,-145.648 6354.04,-139.08 6343.45,-139.031 6345.73,-145.648"/>
<text text-anchor="middle" x="4039.5" y="-181.8" font-family="Times,serif" font-size="14.00">read</text>
</g>
<!-- 1_fwatchdog#ServerID_6df85d7674&#45;2kqrj&#45;&gt;10.1.80.247:56602#ServerID_OuterContainerID -->
<g id="edge5" class="edge"><title>1_fwatchdog#ServerID_6df85d7674&#45;2kqrj&#45;&gt;10.1.80.247:56602#ServerID_OuterContainerID</title>
<path fill="none" stroke="black" d="M2610.96,-318.759C2612.61,-313.165 2614.18,-306.883 2615,-301 2617.04,-286.436 2615.27,-270.162 2612.78,-256.873"/>
<polygon fill="black" stroke="black" points="2616.17,-256.006 2610.68,-246.944 2609.32,-257.452 2616.17,-256.006"/>
<text text-anchor="middle" x="2658" y="-289.8" font-family="Times,serif" font-size="14.00">RESPONSE</text>
</g>
<!-- gateway:8080#ServerID_OuterContainerID -->
<g id="node3" class="node"><title>gateway:8080#ServerID_OuterContainerID</title>
<polygon fill="none" stroke="black" points="3264,-247 2959.52,-229 3264,-211 3568.48,-229 3264,-247"/>
<text text-anchor="middle" x="3264" y="-225.3" font-family="Times,serif" font-size="14.00">gateway:8080#ServerID_OuterContainerID</text>
</g>
<!-- 1_fwatchdog#ServerID_6df85d7674&#45;2kqrj&#45;&gt;gateway:8080#ServerID_OuterContainerID -->
<g id="edge2" class="edge"><title>1_fwatchdog#ServerID_6df85d7674&#45;2kqrj&#45;&gt;gateway:8080#ServerID_OuterContainerID</title>
<path fill="none" stroke="black" d="M2710.88,-318.969C2840.05,-298.192 3056.03,-263.452 3176.32,-244.103"/>
<polygon fill="black" stroke="black" points="3176.92,-247.552 3186.24,-242.508 3175.81,-240.641 3176.92,-247.552"/>
<text text-anchor="middle" x="2935" y="-289.8" font-family="Times,serif" font-size="14.00">POST</text>
</g>
<!-- 10.1.80.247:8080#ServerID_OuterContainerID -->
<g id="node6" class="node"><title>10.1.80.247:8080#ServerID_OuterContainerID</title>
<polygon fill="none" stroke="black" points="1925,-247 1597.56,-229 1925,-211 2252.44,-229 1925,-247"/>
<text text-anchor="middle" x="1925" y="-225.3" font-family="Times,serif" font-size="14.00">10.1.80.247:8080#ServerID_OuterContainerID</text>
</g>
<!-- 1_fwatchdog#ServerID_6df85d7674&#45;2kqrj&#45;&gt;10.1.80.247:8080#ServerID_OuterContainerID -->
<g id="edge6" class="edge"><title>1_fwatchdog#ServerID_6df85d7674&#45;2kqrj&#45;&gt;10.1.80.247:8080#ServerID_OuterContainerID</title>
<path fill="none" stroke="black" d="M2444.27,-329.868C2364.62,-325.022 2267.26,-316.38 2181,-301 2109.55,-288.26 2029.21,-264.356 1977.91,-247.826"/>
<polygon fill="black" stroke="black" points="1978.95,-244.485 1968.36,-244.727 1976.79,-251.144 1978.95,-244.485"/>
<text text-anchor="middle" x="2201" y="-289.8" font-family="Times,serif" font-size="14.00">POST</text>
</g>
<!-- gateway:8080#ServerID_OuterContainerID&#45;&gt;1_fwatchdog#ServerID_6df85d7674&#45;2kqrj -->
<g id="edge8" class="edge"><title>gateway:8080#ServerID_OuterContainerID&#45;&gt;1_fwatchdog#ServerID_6df85d7674&#45;2kqrj</title>
<path fill="none" stroke="black" d="M3212.87,-244.055C3152.61,-260.116 3049.25,-286.099 2959,-301 2899.53,-310.819 2833.95,-318.239 2775.56,-323.661"/>
<polygon fill="black" stroke="black" points="2775.14,-320.185 2765.5,-324.582 2775.78,-327.156 2775.14,-320.185"/>
<text text-anchor="middle" x="3077" y="-289.8" font-family="Times,serif" font-size="14.00">RESPONSE</text>
</g>
<!-- 1_fwatchdog#ServerID_5f846fd567&#45;w7nbt -->
<g id="node4" class="node"><title>1_fwatchdog#ServerID_5f846fd567&#45;w7nbt</title>
<polygon fill="none" stroke="black" points="7182,-139 6858,-139 6858,-103 7182,-103 7182,-139"/>
<text text-anchor="middle" x="7020" y="-117.3" font-family="Times,serif" font-size="14.00">1_fwatchdog#ServerID_5f846fd567&#45;w7nbt</text>
</g>
<!-- 10.1.80.247:58520#ServerID_OuterContainerID -->
<g id="node5" class="node"><title>10.1.80.247:58520#ServerID_OuterContainerID</title>
<polygon fill="none" stroke="black" points="3922,-247 3586.52,-229 3922,-211 4257.48,-229 3922,-247"/>
<text text-anchor="middle" x="3922" y="-225.3" font-family="Times,serif" font-size="14.00">10.1.80.247:58520#ServerID_OuterContainerID</text>
</g>
<!-- 1_fwatchdog#ServerID_5f846fd567&#45;w7nbt&#45;&gt;10.1.80.247:58520#ServerID_OuterContainerID -->
<g id="edge3" class="edge"><title>1_fwatchdog#ServerID_5f846fd567&#45;w7nbt&#45;&gt;10.1.80.247:58520#ServerID_OuterContainerID</title>
<path fill="none" stroke="black" d="M6971.6,-139.047C6937.08,-150.287 6889.3,-164.001 6846,-170 6774.35,-179.926 5616.33,-176.844 5544,-178 4975.88,-187.079 4833.79,-189.643 4266,-211 4208.5,-213.163 4145.63,-216.101 4089.54,-218.927"/>
<polygon fill="black" stroke="black" points="4089.33,-215.433 4079.52,-219.435 4089.68,-222.424 4089.33,-215.433"/>
<text text-anchor="middle" x="5586" y="-181.8" font-family="Times,serif" font-size="14.00">RESPONSE</text>
</g>
<!-- 10.1.80.247:58520#ServerID_OuterContainerID&#45;&gt;1_fwatchdog#ServerID_5f846fd567&#45;w7nbt -->
<g id="edge4" class="edge"><title>10.1.80.247:58520#ServerID_OuterContainerID&#45;&gt;1_fwatchdog#ServerID_5f846fd567&#45;w7nbt</title>
<path fill="none" stroke="black" d="M4075.64,-219.218C4135.09,-216.132 4203.69,-212.951 4266,-211 4409.28,-206.514 6704.13,-190.575 6846,-170 6885.09,-164.33 6927.88,-152.606 6961.24,-142.164"/>
<polygon fill="black" stroke="black" points="6962.36,-145.481 6970.83,-139.117 6960.24,-138.809 6962.36,-145.481"/>
<text text-anchor="middle" x="6691" y="-181.8" font-family="Times,serif" font-size="14.00">POST</text>
</g>
<!-- 1_fwatchdog#ServerID_e56b6537e2d5 -->
<g id="node13" class="node"><title>1_fwatchdog#ServerID_e56b6537e2d5</title>
<polygon fill="none" stroke="black" points="616.5,-139 317.5,-139 317.5,-103 616.5,-103 616.5,-139"/>
<text text-anchor="middle" x="467" y="-117.3" font-family="Times,serif" font-size="14.00">1_fwatchdog#ServerID_e56b6537e2d5</text>
</g>
<!-- 10.1.80.247:58520#ServerID_OuterContainerID&#45;&gt;1_fwatchdog#ServerID_e56b6537e2d5 -->
<g id="edge22" class="edge"><title>10.1.80.247:58520#ServerID_OuterContainerID&#45;&gt;1_fwatchdog#ServerID_e56b6537e2d5</title>
<path fill="none" stroke="black" d="M3769.63,-219.173C3709.62,-216.042 3640.09,-212.841 3577,-211 2699.56,-185.394 2479.58,-213.368 1602,-193 1423.26,-188.852 1378.73,-182.577 1200,-178 1136.13,-176.364 688.135,-179.828 625,-170 589.47,-164.469 550.829,-152.836 520.653,-142.407"/>
<polygon fill="black" stroke="black" points="521.763,-139.088 511.168,-139.073 519.441,-145.691 521.763,-139.088"/>
<text text-anchor="middle" x="1618.5" y="-181.8" font-family="Times,serif" font-size="14.00">read</text>
</g>
<!-- 10.1.80.247:8080#ServerID_OuterContainerID&#45;&gt;1_fwatchdog#ServerID_6df85d7674&#45;2kqrj -->
<g id="edge7" class="edge"><title>10.1.80.247:8080#ServerID_OuterContainerID&#45;&gt;1_fwatchdog#ServerID_6df85d7674&#45;2kqrj</title>
<path fill="none" stroke="black" d="M2005.74,-242.586C2124.66,-261.123 2347.67,-295.888 2485.56,-317.381"/>
<polygon fill="black" stroke="black" points="2485.33,-320.887 2495.75,-318.969 2486.4,-313.971 2485.33,-320.887"/>
<text text-anchor="middle" x="2408" y="-289.8" font-family="Times,serif" font-size="14.00">RESPONSE</text>
</g>
<!-- 10.1.80.1:61437#ServerID_OuterContainerID -->
<g id="node21" class="node"><title>10.1.80.1:61437#ServerID_OuterContainerID</title>
<polygon fill="none" stroke="black" points="1988,-139 1669.1,-121 1988,-103 2306.9,-121 1988,-139"/>
<text text-anchor="middle" x="1988" y="-117.3" font-family="Times,serif" font-size="14.00">10.1.80.1:61437#ServerID_OuterContainerID</text>
</g>
<!-- 10.1.80.247:8080#ServerID_OuterContainerID&#45;&gt;10.1.80.1:61437#ServerID_OuterContainerID -->
<g id="edge27" class="edge"><title>10.1.80.247:8080#ServerID_OuterContainerID&#45;&gt;10.1.80.1:61437#ServerID_OuterContainerID</title>
<path fill="none" stroke="black" d="M1948.09,-212.166C1954.64,-206.734 1961.26,-200.191 1966,-193 1974.71,-179.774 1980.12,-162.913 1983.4,-148.941"/>
<polygon fill="black" stroke="black" points="1986.87,-149.434 1985.51,-138.928 1980.02,-147.992 1986.87,-149.434"/>
<text text-anchor="middle" x="2016" y="-181.8" font-family="Times,serif" font-size="14.00">RESPONSE</text>
</g>
<!-- 10.0.88.125:31112#ServerID_OuterContainerID -->
<g id="node22" class="node"><title>10.0.88.125:31112#ServerID_OuterContainerID</title>
<polygon fill="none" stroke="black" points="1316,-139 980.515,-121 1316,-103 1651.48,-121 1316,-139"/>
<text text-anchor="middle" x="1316" y="-117.3" font-family="Times,serif" font-size="14.00">10.0.88.125:31112#ServerID_OuterContainerID</text>
</g>
<!-- 10.1.80.247:8080#ServerID_OuterContainerID&#45;&gt;10.0.88.125:31112#ServerID_OuterContainerID -->
<g id="edge28" class="edge"><title>10.1.80.247:8080#ServerID_OuterContainerID&#45;&gt;10.0.88.125:31112#ServerID_OuterContainerID</title>
<path fill="none" stroke="black" d="M1850.63,-215.055C1736.9,-195.26 1520.4,-157.577 1400.75,-136.751"/>
<polygon fill="black" stroke="black" points="1401.35,-133.302 1390.89,-135.036 1400.15,-140.199 1401.35,-133.302"/>
<text text-anchor="middle" x="1753" y="-181.8" font-family="Times,serif" font-size="14.00">RESPONSE</text>
</g>
<!-- 1_fwatchdog#ServerID_90667071e782 -->
<g id="node7" class="node"><title>1_fwatchdog#ServerID_90667071e782</title>
<polygon fill="none" stroke="black" points="5994.5,-355 5695.5,-355 5695.5,-319 5994.5,-319 5994.5,-355"/>
<text text-anchor="middle" x="5845" y="-333.3" font-family="Times,serif" font-size="14.00">1_fwatchdog#ServerID_90667071e782</text>
</g>
<!-- 10.1.80.1:58444#ServerID_OuterContainerID -->
<g id="node8" class="node"><title>10.1.80.1:58444#ServerID_OuterContainerID</title>
<polygon fill="none" stroke="black" points="5250,-247 4931.1,-229 5250,-211 5568.9,-229 5250,-247"/>
<text text-anchor="middle" x="5250" y="-225.3" font-family="Times,serif" font-size="14.00">10.1.80.1:58444#ServerID_OuterContainerID</text>
</g>
<!-- 1_fwatchdog#ServerID_90667071e782&#45;&gt;10.1.80.1:58444#ServerID_OuterContainerID -->
<g id="edge9" class="edge"><title>1_fwatchdog#ServerID_90667071e782&#45;&gt;10.1.80.1:58444#ServerID_OuterContainerID</title>
<path fill="none" stroke="black" d="M5749.4,-318.969C5634.09,-298.425 5442.14,-264.229 5332.85,-244.759"/>
<polygon fill="black" stroke="black" points="5333.32,-241.288 5322.86,-242.979 5332.09,-248.179 5333.32,-241.288"/>
<text text-anchor="middle" x="5655" y="-289.8" font-family="Times,serif" font-size="14.00">write</text>
</g>
<!-- 10.1.80.1:58446#ServerID_OuterContainerID -->
<g id="node9" class="node"><title>10.1.80.1:58446#ServerID_OuterContainerID</title>
<polygon fill="none" stroke="black" points="5906,-247 5587.1,-229 5906,-211 6224.9,-229 5906,-247"/>
<text text-anchor="middle" x="5906" y="-225.3" font-family="Times,serif" font-size="14.00">10.1.80.1:58446#ServerID_OuterContainerID</text>
</g>
<!-- 1_fwatchdog#ServerID_90667071e782&#45;&gt;10.1.80.1:58446#ServerID_OuterContainerID -->
<g id="edge15" class="edge"><title>1_fwatchdog#ServerID_90667071e782&#45;&gt;10.1.80.1:58446#ServerID_OuterContainerID</title>
<path fill="none" stroke="black" d="M5840.05,-318.602C5838.15,-308.636 5837.4,-296.136 5842,-286 5848.19,-272.368 5859.51,-260.75 5870.93,-251.689"/>
<polygon fill="black" stroke="black" points="5873.26,-254.324 5879.2,-245.551 5869.08,-248.705 5873.26,-254.324"/>
<text text-anchor="middle" x="5861" y="-289.8" font-family="Times,serif" font-size="14.00">write</text>
</g>
<!-- 10.1.80.1:58446#ServerID_OuterContainerID&#45;&gt;1_fwatchdog#ServerID_90667071e782 -->
<g id="edge10" class="edge"><title>10.1.80.1:58446#ServerID_OuterContainerID&#45;&gt;1_fwatchdog#ServerID_90667071e782</title>
<path fill="none" stroke="black" d="M5903.41,-246.864C5900.51,-261.974 5894.72,-284.268 5884,-301 5881.56,-304.808 5878.6,-308.457 5875.4,-311.866"/>
<polygon fill="black" stroke="black" points="5872.89,-309.427 5868.17,-318.91 5877.77,-314.442 5872.89,-309.427"/>
<text text-anchor="middle" x="5908.5" y="-289.8" font-family="Times,serif" font-size="14.00">read</text>
</g>
<!-- localhost:3000#ServerID_34e86192c217 -->
<g id="node11" class="node"><title>localhost:3000#ServerID_34e86192c217</title>
<polygon fill="none" stroke="black" points="6536,-52 6249.45,-34 6536,-16 6822.55,-34 6536,-52"/>
<text text-anchor="middle" x="6536" y="-30.3" font-family="Times,serif" font-size="14.00">localhost:3000#ServerID_34e86192c217</text>
</g>
<!-- 1_fwatchdog#ServerID_34e86192c217&#45;&gt;localhost:3000#ServerID_34e86192c217 -->
<g id="edge11" class="edge"><title>1_fwatchdog#ServerID_34e86192c217&#45;&gt;localhost:3000#ServerID_34e86192c217</title>
<path fill="none" stroke="black" d="M6415.84,-102.733C6426.64,-92.3237 6441.34,-79.3215 6456,-70 6465.5,-63.9602 6476.22,-58.4791 6486.66,-53.7409"/>
<polygon fill="black" stroke="black" points="6488.36,-56.818 6496.11,-49.6037 6485.55,-50.4048 6488.36,-56.818"/>
<text text-anchor="middle" x="6485" y="-73.8" font-family="Times,serif" font-size="14.00">connect</text>
</g>
<!-- 1_fwatchdog#ServerID_34e86192c217&#45;&gt;localhost:3000#ServerID_34e86192c217 -->
<g id="edge12" class="edge"><title>1_fwatchdog#ServerID_34e86192c217&#45;&gt;localhost:3000#ServerID_34e86192c217</title>
<path fill="none" stroke="black" d="M6485.06,-102.987C6495.58,-98.3625 6505.57,-92.4805 6514,-85 6520.93,-78.8465 6525.78,-70.1024 6529.12,-61.6431"/>
<polygon fill="black" stroke="black" points="6532.49,-62.6102 6532.39,-52.0158 6525.86,-60.3606 6532.49,-62.6102"/>
<text text-anchor="middle" x="6543" y="-73.8" font-family="Times,serif" font-size="14.00">write</text>
</g>
<!-- localhost:3000#ServerID_34e86192c217&#45;&gt;1_fwatchdog#ServerID_34e86192c217 -->
<g id="edge14" class="edge"><title>localhost:3000#ServerID_34e86192c217&#45;&gt;1_fwatchdog#ServerID_34e86192c217</title>
<path fill="none" stroke="black" d="M6454.67,-46.9577C6429.22,-52.4738 6405.74,-60.051 6398,-70 6393.11,-76.2893 6391.85,-84.4958 6392.25,-92.4363"/>
<polygon fill="black" stroke="black" points="6388.81,-93.0747 6393.57,-102.538 6395.75,-92.1695 6388.81,-93.0747"/>
<text text-anchor="middle" x="6414.5" y="-73.8" font-family="Times,serif" font-size="14.00">read</text>
</g>
<!-- localhost:3000#ServerID_e56b6537e2d5 -->
<g id="node12" class="node"><title>localhost:3000#ServerID_e56b6537e2d5</title>
<polygon fill="none" stroke="black" points="523,-247 236.446,-229 523,-211 809.554,-229 523,-247"/>
<text text-anchor="middle" x="523" y="-225.3" font-family="Times,serif" font-size="14.00">localhost:3000#ServerID_e56b6537e2d5</text>
</g>
<!-- localhost:3000#ServerID_e56b6537e2d5&#45;&gt;1_fwatchdog#ServerID_e56b6537e2d5 -->
<g id="edge16" class="edge"><title>localhost:3000#ServerID_e56b6537e2d5&#45;&gt;1_fwatchdog#ServerID_e56b6537e2d5</title>
<path fill="none" stroke="black" d="M488.154,-213.074C480.148,-207.924 472.634,-201.302 468,-193 460.675,-179.876 460.1,-163.148 461.508,-149.227"/>
<polygon fill="black" stroke="black" points="464.986,-149.619 462.891,-139.234 458.053,-148.659 464.986,-149.619"/>
<text text-anchor="middle" x="484.5" y="-181.8" font-family="Times,serif" font-size="14.00">read</text>
</g>
<!-- 12_node#ServerID_e56b6537e2d5 -->
<g id="node17" class="node"><title>12_node#ServerID_e56b6537e2d5</title>
<polygon fill="none" stroke="black" points="901.5,-139 634.5,-139 634.5,-103 901.5,-103 901.5,-139"/>
<text text-anchor="middle" x="768" y="-117.3" font-family="Times,serif" font-size="14.00">12_node#ServerID_e56b6537e2d5</text>
</g>
<!-- localhost:3000#ServerID_e56b6537e2d5&#45;&gt;12_node#ServerID_e56b6537e2d5 -->
<g id="edge20" class="edge"><title>localhost:3000#ServerID_e56b6537e2d5&#45;&gt;12_node#ServerID_e56b6537e2d5</title>
<path fill="none" stroke="black" d="M557.324,-213.15C599.549,-194.881 671.506,-163.748 719.4,-143.027"/>
<polygon fill="black" stroke="black" points="720.854,-146.212 728.642,-139.028 718.074,-139.787 720.854,-146.212"/>
<text text-anchor="middle" x="655.5" y="-181.8" font-family="Times,serif" font-size="14.00">read</text>
</g>
<!-- 1_fwatchdog#ServerID_e56b6537e2d5&#45;&gt;localhost:3000#ServerID_e56b6537e2d5 -->
<g id="edge19" class="edge"><title>1_fwatchdog#ServerID_e56b6537e2d5&#45;&gt;localhost:3000#ServerID_e56b6537e2d5</title>
<path fill="none" stroke="black" d="M478.323,-139.315C485.243,-150.211 494.066,-164.684 501,-178 504.942,-185.57 508.831,-193.998 512.218,-201.744"/>
<polygon fill="black" stroke="black" points="509.057,-203.254 516.205,-211.075 515.494,-200.504 509.057,-203.254"/>
<text text-anchor="middle" x="528" y="-181.8" font-family="Times,serif" font-size="14.00">write</text>
</g>
<!-- pipe:[331682317]#ServerID_e56b6537e2d5 -->
<g id="node14" class="node"><title>pipe:[331682317]#ServerID_e56b6537e2d5</title>
<ellipse fill="none" stroke="black" cx="233" cy="-34" rx="217.162" ry="18"/>
<text text-anchor="middle" x="233" y="-30.3" font-family="Times,serif" font-size="14.00">pipe:[331682317]#ServerID_e56b6537e2d5</text>
</g>
<!-- 1_fwatchdog#ServerID_e56b6537e2d5&#45;&gt;pipe:[331682317]#ServerID_e56b6537e2d5 -->
<g id="edge17" class="edge"><title>1_fwatchdog#ServerID_e56b6537e2d5&#45;&gt;pipe:[331682317]#ServerID_e56b6537e2d5</title>
<path fill="none" stroke="black" d="M419.928,-102.901C381.953,-89.107 328.455,-69.6737 288.415,-55.1293"/>
<polygon fill="black" stroke="black" points="289.396,-51.7618 278.801,-51.6373 287.006,-58.3412 289.396,-51.7618"/>
<text text-anchor="middle" x="384" y="-73.8" font-family="Times,serif" font-size="14.00">write</text>
</g>
<!-- 10.1.80.1:56682#ServerID_OuterContainerID -->
<g id="node15" class="node"><title>10.1.80.1:56682#ServerID_OuterContainerID</title>
<polygon fill="none" stroke="black" points="4594,-247 4275.1,-229 4594,-211 4912.9,-229 4594,-247"/>
<text text-anchor="middle" x="4594" y="-225.3" font-family="Times,serif" font-size="14.00">10.1.80.1:56682#ServerID_OuterContainerID</text>
</g>
<!-- 1_fwatchdog#ServerID_c437f7cecfb6 -->
<g id="node16" class="node"><title>1_fwatchdog#ServerID_c437f7cecfb6</title>
<polygon fill="none" stroke="black" points="7496,-139 7206,-139 7206,-103 7496,-103 7496,-139"/>
<text text-anchor="middle" x="7351" y="-117.3" font-family="Times,serif" font-size="14.00">1_fwatchdog#ServerID_c437f7cecfb6</text>
</g>
<!-- 10.1.80.1:56682#ServerID_OuterContainerID&#45;&gt;1_fwatchdog#ServerID_c437f7cecfb6 -->
<g id="edge18" class="edge"><title>10.1.80.1:56682#ServerID_OuterContainerID&#45;&gt;1_fwatchdog#ServerID_c437f7cecfb6</title>
<path fill="none" stroke="black" d="M4741.31,-219.305C4797.8,-216.248 4862.88,-213.065 4922,-211 5174.33,-202.187 6944.63,-209.571 7194,-170 7229.15,-164.421 7267.37,-152.863 7297.3,-142.486"/>
<polygon fill="black" stroke="black" points="7298.85,-145.651 7307.11,-139.023 7296.52,-139.05 7298.85,-145.651"/>
<text text-anchor="middle" x="7122.5" y="-181.8" font-family="Times,serif" font-size="14.00">read</text>
</g>
<!-- pipe:[331682415]#ServerID_e56b6537e2d5 -->
<g id="node19" class="node"><title>pipe:[331682415]#ServerID_e56b6537e2d5</title>
<ellipse fill="none" stroke="black" cx="685" cy="-34" rx="217.162" ry="18"/>
<text text-anchor="middle" x="685" y="-30.3" font-family="Times,serif" font-size="14.00">pipe:[331682415]#ServerID_e56b6537e2d5</text>
</g>
<!-- 12_node#ServerID_e56b6537e2d5&#45;&gt;pipe:[331682415]#ServerID_e56b6537e2d5 -->
<g id="edge23" class="edge"><title>12_node#ServerID_e56b6537e2d5&#45;&gt;pipe:[331682415]#ServerID_e56b6537e2d5</title>
<path fill="none" stroke="black" d="M751.204,-102.799C739.054,-90.3561 722.462,-73.3644 708.928,-59.5044"/>
<polygon fill="black" stroke="black" points="711.262,-56.885 701.771,-52.1754 706.254,-61.7755 711.262,-56.885"/>
<text text-anchor="middle" x="751" y="-73.8" font-family="Times,serif" font-size="14.00">write</text>
</g>
<!-- 10.152.183.10:53#ServerID_OuterContainerID -->
<g id="node20" class="node"><title>10.152.183.10:53#ServerID_OuterContainerID</title>
<polygon fill="none" stroke="black" points="1253,-247 925.56,-229 1253,-211 1580.44,-229 1253,-247"/>
<text text-anchor="middle" x="1253" y="-225.3" font-family="Times,serif" font-size="14.00">10.152.183.10:53#ServerID_OuterContainerID</text>
</g>
<!-- 12_node#ServerID_e56b6537e2d5&#45;&gt;10.152.183.10:53#ServerID_OuterContainerID -->
<g id="edge25" class="edge"><title>12_node#ServerID_e56b6537e2d5&#45;&gt;10.152.183.10:53#ServerID_OuterContainerID</title>
<path fill="none" stroke="black" d="M809.695,-139.063C838.478,-150.003 877.919,-163.358 914,-170 989.262,-183.855 1010.56,-165.152 1086,-178 1126.29,-184.861 1170.54,-198.395 1203.36,-209.654"/>
<polygon fill="black" stroke="black" points="1202.57,-213.084 1213.16,-213.065 1204.87,-206.473 1202.57,-213.084"/>
<text text-anchor="middle" x="1171.5" y="-181.8" font-family="Times,serif" font-size="14.00">sendto</text>
</g>
<!-- 10_node#ServerID_34e86192c217 -->
<g id="node18" class="node"><title>10_node#ServerID_34e86192c217</title>
<polygon fill="none" stroke="black" points="6833.5,-139 6566.5,-139 6566.5,-103 6833.5,-103 6833.5,-139"/>
<text text-anchor="middle" x="6700" y="-117.3" font-family="Times,serif" font-size="14.00">10_node#ServerID_34e86192c217</text>
</g>
<!-- 10_node#ServerID_34e86192c217&#45;&gt;gateway:8080#ServerID_OuterContainerID -->
<g id="edge21" class="edge"><title>10_node#ServerID_34e86192c217&#45;&gt;gateway:8080#ServerID_OuterContainerID</title>
<path fill="none" stroke="black" d="M6660.79,-139.066C6632.76,-150.314 6593.81,-164.031 6558,-170 6508.08,-178.322 4786.6,-177.168 4736,-178 4221.19,-186.464 4092.44,-189.748 3578,-211 3525.71,-213.16 3468.55,-216.086 3417.51,-218.902"/>
<polygon fill="black" stroke="black" points="3417.17,-215.415 3407.38,-219.463 3417.56,-222.404 3417.17,-215.415"/>
<text text-anchor="middle" x="4765" y="-181.8" font-family="Times,serif" font-size="14.00">connect</text>
</g>
<!-- 10.152.183.10:53#ServerID_OuterContainerID&#45;&gt;12_node#ServerID_e56b6537e2d5 -->
<g id="edge24" class="edge"><title>10.152.183.10:53#ServerID_OuterContainerID&#45;&gt;12_node#ServerID_e56b6537e2d5</title>
<path fill="none" stroke="black" d="M1160.87,-216.006C1092.26,-206.165 996.575,-190.518 914,-170 883.673,-162.464 850.537,-151.778 823.51,-142.4"/>
<polygon fill="black" stroke="black" points="824.44,-139.017 813.846,-139.012 822.125,-145.623 824.44,-139.017"/>
<text text-anchor="middle" x="1049" y="-181.8" font-family="Times,serif" font-size="14.00">recvfrom</text>
</g>
<!-- 10.1.80.1:61437#ServerID_OuterContainerID&#45;&gt;10.1.80.247:8080#ServerID_OuterContainerID -->
<g id="edge26" class="edge"><title>10.1.80.1:61437#ServerID_OuterContainerID&#45;&gt;10.1.80.247:8080#ServerID_OuterContainerID</title>
<path fill="none" stroke="black" d="M1962.46,-137.562C1948.97,-147.329 1933.65,-161.242 1926,-178 1922.78,-185.06 1921.68,-193.284 1921.63,-201"/>
<polygon fill="black" stroke="black" points="1918.13,-201.218 1922.08,-211.048 1925.12,-200.899 1918.13,-201.218"/>
<text text-anchor="middle" x="1946" y="-181.8" font-family="Times,serif" font-size="14.00">POST</text>
</g>
</g>
</svg>
