<?xml version="1.0" encoding="UTF-8" standalone="no"?>
<!DOCTYPE svg PUBLIC "-//W3C//DTD SVG 1.1//EN"
 "http://www.w3.org/Graphics/SVG/1.1/DTD/svg11.dtd">
<!-- Generated by graphviz version 2.38.0 (20140413.2041)
 -->
<!-- Title: G Pages: 1 -->
<svg width="6157pt" height="597pt"
 viewBox="0.00 0.00 6157.00 597.00" xmlns="http://www.w3.org/2000/svg" xmlns:xlink="http://www.w3.org/1999/xlink">
<g id="graph0" class="graph" transform="scale(1 1) rotate(0) translate(4 593)">
<title>G</title>
<polygon fill="white" stroke="none" points="-4,4 -4,-593 6153,-593 6153,4 -4,4"/>
<g id="clust1" class="cluster"><title>clusterServerID_34e86192c217</title>
<polygon fill="none" stroke="black" points="4741,-203 4741,-581 6137,-581 6137,-203 4741,-203"/>
<text text-anchor="middle" x="5439" y="-565.8" font-family="Times,serif" font-size="14.00">clusterServerID_34e86192c217</text>
</g>
<g id="clust2" class="cluster"><title>clusterServerID_5f846fd567&#45;w7nbt</title>
<polygon fill="none" stroke="black" points="4741,-95 4741,-170 5081,-170 5081,-95 4741,-95"/>
<text text-anchor="middle" x="4911" y="-154.8" font-family="Times,serif" font-size="14.00">clusterServerID_5f846fd567&#45;w7nbt</text>
</g>
<g id="clust3" class="cluster"><title>clusterServerID_6df85d7674&#45;2kqrj</title>
<polygon fill="none" stroke="black" points="854,-311 854,-386 1192,-386 1192,-311 854,-311"/>
<text text-anchor="middle" x="1023" y="-370.8" font-family="Times,serif" font-size="14.00">clusterServerID_6df85d7674&#45;2kqrj</text>
</g>
<g id="clust4" class="cluster"><title>clusterServerID_OuterContainerID</title>
<polygon fill="none" stroke="black" points="8,-95 8,-278 4733,-278 4733,-95 8,-95"/>
<text text-anchor="middle" x="2370.5" y="-262.8" font-family="Times,serif" font-size="14.00">clusterServerID_OuterContainerID</text>
</g>
<g id="clust5" class="cluster"><title>clusterServerID_e56b6537e2d5</title>
<polygon fill="none" stroke="black" points="5089,-8 5089,-170 6131,-170 6131,-8 5089,-8"/>
<text text-anchor="middle" x="5610" y="-154.8" font-family="Times,serif" font-size="14.00">clusterServerID_e56b6537e2d5</text>
</g>
<!-- 10.1.80.247:56388#ServerID_OuterContainerID -->
<g id="node1" class="node"><title>10.1.80.247:56388#ServerID_OuterContainerID</title>
<polygon fill="none" stroke="black" points="1024,-247 688.515,-229 1024,-211 1359.48,-229 1024,-247"/>
<text text-anchor="middle" x="1024" y="-225.3" font-family="Times,serif" font-size="14.00">10.1.80.247:56388#ServerID_OuterContainerID</text>
</g>
<!-- 1_fwatchdog#ServerID_6df85d7674&#45;2kqrj -->
<g id="node2" class="node"><title>1_fwatchdog#ServerID_6df85d7674&#45;2kqrj</title>
<polygon fill="none" stroke="black" points="1183.5,-355 862.5,-355 862.5,-319 1183.5,-319 1183.5,-355"/>
<text text-anchor="middle" x="1023" y="-333.3" font-family="Times,serif" font-size="14.00">1_fwatchdog#ServerID_6df85d7674&#45;2kqrj</text>
</g>
<!-- 10.1.80.247:56388#ServerID_OuterContainerID&#45;&gt;1_fwatchdog#ServerID_6df85d7674&#45;2kqrj -->
<g id="edge1" class="edge"><title>10.1.80.247:56388#ServerID_OuterContainerID&#45;&gt;1_fwatchdog#ServerID_6df85d7674&#45;2kqrj</title>
<path fill="none" stroke="black" d="M1011.81,-246.692C1004.8,-257.353 996.669,-271.798 993,-286 991.333,-292.455 990.687,-294.747 993,-301 994.231,-304.328 995.936,-307.554 997.914,-310.612"/>
<polygon fill="black" stroke="black" points="995.225,-312.86 1004.04,-318.736 1000.81,-308.644 995.225,-312.86"/>
<text text-anchor="middle" x="1013" y="-289.8" font-family="Times,serif" font-size="14.00">POST</text>
</g>
<!-- 1_fwatchdog#ServerID_34e86192c217 -->
<g id="node7" class="node"><title>1_fwatchdog#ServerID_34e86192c217</title>
<polygon fill="none" stroke="black" points="5657.5,-550 5358.5,-550 5358.5,-514 5657.5,-514 5657.5,-550"/>
<text text-anchor="middle" x="5508" y="-528.3" font-family="Times,serif" font-size="14.00">1_fwatchdog#ServerID_34e86192c217</text>
</g>
<!-- 10.1.80.247:56388#ServerID_OuterContainerID&#45;&gt;1_fwatchdog#ServerID_34e86192c217 -->
<g id="edge10" class="edge"><title>10.1.80.247:56388#ServerID_OuterContainerID&#45;&gt;1_fwatchdog#ServerID_34e86192c217</title>
<path fill="none" stroke="black" d="M1097.05,-243.108C1166.68,-254.9 1274.59,-271.36 1369,-278 1571.61,-292.25 4822.31,-272.989 5025,-286 5273.8,-301.97 5973.16,-239.961 6138,-427 6148.58,-439.004 6148.69,-451.095 6138,-463 6107.04,-497.478 5843.96,-516.027 5667.7,-524.68"/>
<polygon fill="black" stroke="black" points="5667.35,-521.193 5657.54,-525.173 5667.69,-528.185 5667.35,-521.193"/>
<text text-anchor="middle" x="6132.5" y="-397.8" font-family="Times,serif" font-size="14.00">read</text>
</g>
<!-- 1_fwatchdog#ServerID_6df85d7674&#45;2kqrj&#45;&gt;10.1.80.247:56388#ServerID_OuterContainerID -->
<g id="edge3" class="edge"><title>1_fwatchdog#ServerID_6df85d7674&#45;2kqrj&#45;&gt;10.1.80.247:56388#ServerID_OuterContainerID</title>
<path fill="none" stroke="black" d="M1028.96,-318.759C1030.61,-313.165 1032.18,-306.883 1033,-301 1035.04,-286.436 1033.27,-270.162 1030.78,-256.873"/>
<polygon fill="black" stroke="black" points="1034.17,-256.006 1028.68,-246.944 1027.32,-257.452 1034.17,-256.006"/>
<text text-anchor="middle" x="1076" y="-289.8" font-family="Times,serif" font-size="14.00">RESPONSE</text>
</g>
<!-- gateway:8080#ServerID_OuterContainerID -->
<g id="node3" class="node"><title>gateway:8080#ServerID_OuterContainerID</title>
<polygon fill="none" stroke="black" points="3749,-247 3444.52,-229 3749,-211 4053.48,-229 3749,-247"/>
<text text-anchor="middle" x="3749" y="-225.3" font-family="Times,serif" font-size="14.00">gateway:8080#ServerID_OuterContainerID</text>
</g>
<!-- 1_fwatchdog#ServerID_6df85d7674&#45;2kqrj&#45;&gt;gateway:8080#ServerID_OuterContainerID -->
<g id="edge2" class="edge"><title>1_fwatchdog#ServerID_6df85d7674&#45;2kqrj&#45;&gt;gateway:8080#ServerID_OuterContainerID</title>
<path fill="none" stroke="black" d="M1183.71,-334.814C1649.69,-330.95 2996.1,-316.664 3435,-278 3515.82,-270.88 3607.46,-256.089 3670.79,-244.797"/>
<polygon fill="black" stroke="black" points="3671.48,-248.229 3680.7,-243.016 3670.24,-241.339 3671.48,-248.229"/>
<text text-anchor="middle" x="3346" y="-289.8" font-family="Times,serif" font-size="14.00">POST</text>
</g>
<!-- 10.1.80.247:8080#ServerID_OuterContainerID -->
<g id="node6" class="node"><title>10.1.80.247:8080#ServerID_OuterContainerID</title>
<polygon fill="none" stroke="black" points="343,-247 15.5599,-229 343,-211 670.44,-229 343,-247"/>
<text text-anchor="middle" x="343" y="-225.3" font-family="Times,serif" font-size="14.00">10.1.80.247:8080#ServerID_OuterContainerID</text>
</g>
<!-- 1_fwatchdog#ServerID_6df85d7674&#45;2kqrj&#45;&gt;10.1.80.247:8080#ServerID_OuterContainerID -->
<g id="edge7" class="edge"><title>1_fwatchdog#ServerID_6df85d7674&#45;2kqrj&#45;&gt;10.1.80.247:8080#ServerID_OuterContainerID</title>
<path fill="none" stroke="black" d="M913.746,-318.969C780.644,-298.221 558.211,-263.548 433.981,-244.182"/>
<polygon fill="black" stroke="black" points="434.161,-240.668 423.741,-242.586 433.082,-247.585 434.161,-240.668"/>
<text text-anchor="middle" x="804" y="-289.8" font-family="Times,serif" font-size="14.00">POST</text>
</g>
<!-- gateway:8080#ServerID_OuterContainerID&#45;&gt;1_fwatchdog#ServerID_6df85d7674&#45;2kqrj -->
<g id="edge6" class="edge"><title>gateway:8080#ServerID_OuterContainerID&#45;&gt;1_fwatchdog#ServerID_6df85d7674&#45;2kqrj</title>
<path fill="none" stroke="black" d="M3681.33,-243.056C3617.95,-254.638 3520.45,-270.802 3435,-278 3326.92,-287.104 3055.43,-283.702 2947,-286 2299.57,-299.719 1529.72,-321.322 1193.87,-331.01"/>
<polygon fill="black" stroke="black" points="1193.46,-327.52 1183.57,-331.307 1193.67,-334.517 1193.46,-327.52"/>
<text text-anchor="middle" x="2989" y="-289.8" font-family="Times,serif" font-size="14.00">RESPONSE</text>
</g>
<!-- 10.1.80.247:58520#ServerID_OuterContainerID -->
<g id="node4" class="node"><title>10.1.80.247:58520#ServerID_OuterContainerID</title>
<polygon fill="none" stroke="black" points="1713,-247 1377.52,-229 1713,-211 2048.48,-229 1713,-247"/>
<text text-anchor="middle" x="1713" y="-225.3" font-family="Times,serif" font-size="14.00">10.1.80.247:58520#ServerID_OuterContainerID</text>
</g>
<!-- 1_fwatchdog#ServerID_5f846fd567&#45;w7nbt -->
<g id="node5" class="node"><title>1_fwatchdog#ServerID_5f846fd567&#45;w7nbt</title>
<polygon fill="none" stroke="black" points="5073,-139 4749,-139 4749,-103 5073,-103 5073,-139"/>
<text text-anchor="middle" x="4911" y="-117.3" font-family="Times,serif" font-size="14.00">1_fwatchdog#ServerID_5f846fd567&#45;w7nbt</text>
</g>
<!-- 10.1.80.247:58520#ServerID_OuterContainerID&#45;&gt;1_fwatchdog#ServerID_5f846fd567&#45;w7nbt -->
<g id="edge4" class="edge"><title>10.1.80.247:58520#ServerID_OuterContainerID&#45;&gt;1_fwatchdog#ServerID_5f846fd567&#45;w7nbt</title>
<path fill="none" stroke="black" d="M1837.88,-217.649C1903.38,-212.55 1984.98,-206.714 2058,-203 2436.78,-183.734 2531.78,-184.387 2911,-178 2961.72,-177.146 4686.75,-176.916 4737,-170 4776.42,-164.575 4819.53,-152.724 4852.99,-142.156"/>
<polygon fill="black" stroke="black" points="4854.15,-145.46 4862.6,-139.071 4852.01,-138.795 4854.15,-145.46"/>
<text text-anchor="middle" x="2931" y="-181.8" font-family="Times,serif" font-size="14.00">POST</text>
</g>
<!-- 1_fwatchdog#ServerID_5f846fd567&#45;w7nbt&#45;&gt;10.1.80.247:58520#ServerID_OuterContainerID -->
<g id="edge5" class="edge"><title>1_fwatchdog#ServerID_5f846fd567&#45;w7nbt&#45;&gt;10.1.80.247:58520#ServerID_OuterContainerID</title>
<path fill="none" stroke="black" d="M4862.6,-139.067C4828.08,-150.316 4780.31,-164.033 4737,-170 4643.38,-182.9 3130.12,-169.536 3036,-178 2997.79,-181.436 2989.2,-189.44 2951,-193 2753.4,-211.417 2256.28,-194.713 2058,-203 1987.09,-205.963 1908.13,-211.518 1843.66,-216.641"/>
<polygon fill="black" stroke="black" points="1843.13,-213.172 1833.44,-217.459 1843.69,-220.15 1843.13,-213.172"/>
<text text-anchor="middle" x="3078" y="-181.8" font-family="Times,serif" font-size="14.00">RESPONSE</text>
</g>
<!-- 10.1.80.247:8080#ServerID_OuterContainerID&#45;&gt;1_fwatchdog#ServerID_6df85d7674&#45;2kqrj -->
<g id="edge8" class="edge"><title>10.1.80.247:8080#ServerID_OuterContainerID&#45;&gt;1_fwatchdog#ServerID_6df85d7674&#45;2kqrj</title>
<path fill="none" stroke="black" d="M389.336,-244.61C443.231,-261.003 535.155,-287.113 616,-301 692.937,-314.216 778.957,-322.537 852.026,-327.73"/>
<polygon fill="black" stroke="black" points="852.028,-331.239 862.248,-328.442 852.515,-324.256 852.028,-331.239"/>
<text text-anchor="middle" x="658" y="-289.8" font-family="Times,serif" font-size="14.00">RESPONSE</text>
</g>
<!-- 10.1.80.1:7154#ServerID_OuterContainerID -->
<g id="node20" class="node"><title>10.1.80.1:7154#ServerID_OuterContainerID</title>
<polygon fill="none" stroke="black" points="1015,-139 704.15,-121 1015,-103 1325.85,-121 1015,-139"/>
<text text-anchor="middle" x="1015" y="-117.3" font-family="Times,serif" font-size="14.00">10.1.80.1:7154#ServerID_OuterContainerID</text>
</g>
<!-- 10.1.80.247:8080#ServerID_OuterContainerID&#45;&gt;10.1.80.1:7154#ServerID_OuterContainerID -->
<g id="edge23" class="edge"><title>10.1.80.247:8080#ServerID_OuterContainerID&#45;&gt;10.1.80.1:7154#ServerID_OuterContainerID</title>
<path fill="none" stroke="black" d="M481.999,-218.624C549.044,-213.048 630.473,-204.729 703,-193 790.581,-178.836 890.315,-154.712 952.952,-138.567"/>
<polygon fill="black" stroke="black" points="953.876,-141.944 962.679,-136.048 952.121,-135.167 953.876,-141.944"/>
<text text-anchor="middle" x="823" y="-181.8" font-family="Times,serif" font-size="14.00">RESPONSE</text>
</g>
<!-- 10.0.88.125:31112#ServerID_OuterContainerID -->
<g id="node21" class="node"><title>10.0.88.125:31112#ServerID_OuterContainerID</title>
<polygon fill="none" stroke="black" points="351,-139 15.5152,-121 351,-103 686.485,-121 351,-139"/>
<text text-anchor="middle" x="351" y="-117.3" font-family="Times,serif" font-size="14.00">10.0.88.125:31112#ServerID_OuterContainerID</text>
</g>
<!-- 10.1.80.247:8080#ServerID_OuterContainerID&#45;&gt;10.0.88.125:31112#ServerID_OuterContainerID -->
<g id="edge24" class="edge"><title>10.1.80.247:8080#ServerID_OuterContainerID&#45;&gt;10.0.88.125:31112#ServerID_OuterContainerID</title>
<path fill="none" stroke="black" d="M344.285,-210.969C345.545,-194.279 347.485,-168.579 348.956,-149.084"/>
<polygon fill="black" stroke="black" points="352.455,-149.224 349.718,-138.988 345.475,-148.697 352.455,-149.224"/>
<text text-anchor="middle" x="389" y="-181.8" font-family="Times,serif" font-size="14.00">RESPONSE</text>
</g>
<!-- localhost:3000#ServerID_34e86192c217 -->
<g id="node8" class="node"><title>localhost:3000#ServerID_34e86192c217</title>
<polygon fill="none" stroke="black" points="5036,-463 4749.45,-445 5036,-427 5322.55,-445 5036,-463"/>
<text text-anchor="middle" x="5036" y="-441.3" font-family="Times,serif" font-size="14.00">localhost:3000#ServerID_34e86192c217</text>
</g>
<!-- 1_fwatchdog#ServerID_34e86192c217&#45;&gt;localhost:3000#ServerID_34e86192c217 -->
<g id="edge9" class="edge"><title>1_fwatchdog#ServerID_34e86192c217&#45;&gt;localhost:3000#ServerID_34e86192c217</title>
<path fill="none" stroke="black" d="M5413.33,-513.952C5326.27,-498.274 5198.59,-475.28 5116.37,-460.474"/>
<polygon fill="black" stroke="black" points="5116.79,-456.993 5106.33,-458.665 5115.55,-463.882 5116.79,-456.993"/>
<text text-anchor="middle" x="5319" y="-484.8" font-family="Times,serif" font-size="14.00">write</text>
</g>
<!-- 10_node#ServerID_34e86192c217 -->
<g id="node10" class="node"><title>10_node#ServerID_34e86192c217</title>
<polygon fill="none" stroke="black" points="5116.5,-355 4849.5,-355 4849.5,-319 5116.5,-319 5116.5,-355"/>
<text text-anchor="middle" x="4983" y="-333.3" font-family="Times,serif" font-size="14.00">10_node#ServerID_34e86192c217</text>
</g>
<!-- localhost:3000#ServerID_34e86192c217&#45;&gt;10_node#ServerID_34e86192c217 -->
<g id="edge19" class="edge"><title>localhost:3000#ServerID_34e86192c217&#45;&gt;10_node#ServerID_34e86192c217</title>
<path fill="none" stroke="black" d="M5027.72,-427.438C5019.26,-410.524 5006.01,-384.016 4996.12,-364.243"/>
<polygon fill="black" stroke="black" points="4999.18,-362.528 4991.57,-355.149 4992.92,-365.658 4999.18,-362.528"/>
<text text-anchor="middle" x="5034.5" y="-397.8" font-family="Times,serif" font-size="14.00">read</text>
</g>
<!-- 10.152.183.10:53#ServerID_OuterContainerID -->
<g id="node9" class="node"><title>10.152.183.10:53#ServerID_OuterContainerID</title>
<polygon fill="none" stroke="black" points="4398,-247 4070.56,-229 4398,-211 4725.44,-229 4398,-247"/>
<text text-anchor="middle" x="4398" y="-225.3" font-family="Times,serif" font-size="14.00">10.152.183.10:53#ServerID_OuterContainerID</text>
</g>
<!-- 10.152.183.10:53#ServerID_OuterContainerID&#45;&gt;10_node#ServerID_34e86192c217 -->
<g id="edge11" class="edge"><title>10.152.183.10:53#ServerID_OuterContainerID&#45;&gt;10_node#ServerID_34e86192c217</title>
<path fill="none" stroke="black" d="M4470.07,-243.059C4572.61,-261.638 4761.19,-295.808 4878.9,-317.138"/>
<polygon fill="black" stroke="black" points="4878.55,-320.63 4889.01,-318.969 4879.79,-313.742 4878.55,-320.63"/>
<text text-anchor="middle" x="4811" y="-289.8" font-family="Times,serif" font-size="14.00">recvfrom</text>
</g>
<!-- 10_node#ServerID_34e86192c217&#45;&gt;gateway:8080#ServerID_OuterContainerID -->
<g id="edge17" class="edge"><title>10_node#ServerID_34e86192c217&#45;&gt;gateway:8080#ServerID_OuterContainerID</title>
<path fill="none" stroke="black" d="M4849.23,-331.323C4669.72,-324.191 4341.15,-308.133 4062,-278 3983.01,-269.473 3893.45,-255.276 3830.43,-244.529"/>
<polygon fill="black" stroke="black" points="3831,-241.075 3820.55,-242.835 3829.82,-247.974 3831,-241.075"/>
<text text-anchor="middle" x="4344" y="-289.8" font-family="Times,serif" font-size="14.00">connect</text>
</g>
<!-- 10_node#ServerID_34e86192c217&#45;&gt;10.152.183.10:53#ServerID_OuterContainerID -->
<g id="edge12" class="edge"><title>10_node#ServerID_34e86192c217&#45;&gt;10.152.183.10:53#ServerID_OuterContainerID</title>
<path fill="none" stroke="black" d="M4849.43,-326.628C4789.9,-321.188 4719.11,-312.979 4656,-301 4584.61,-287.448 4504.14,-263.95 4452.34,-247.72"/>
<polygon fill="black" stroke="black" points="4453.28,-244.347 4442.69,-244.677 4451.17,-251.023 4453.28,-244.347"/>
<text text-anchor="middle" x="4680.5" y="-289.8" font-family="Times,serif" font-size="14.00">sendto</text>
</g>
<!-- pipe:[331683264]#ServerID_34e86192c217 -->
<g id="node11" class="node"><title>pipe:[331683264]#ServerID_34e86192c217</title>
<ellipse fill="none" stroke="black" cx="4983" cy="-229" rx="217.162" ry="18"/>
<text text-anchor="middle" x="4983" y="-225.3" font-family="Times,serif" font-size="14.00">pipe:[331683264]#ServerID_34e86192c217</text>
</g>
<!-- 10_node#ServerID_34e86192c217&#45;&gt;pipe:[331683264]#ServerID_34e86192c217 -->
<g id="edge13" class="edge"><title>10_node#ServerID_34e86192c217&#45;&gt;pipe:[331683264]#ServerID_34e86192c217</title>
<path fill="none" stroke="black" d="M4983,-318.969C4983,-302.378 4983,-276.883 4983,-257.431"/>
<polygon fill="black" stroke="black" points="4986.5,-257.341 4983,-247.341 4979.5,-257.341 4986.5,-257.341"/>
<text text-anchor="middle" x="5002" y="-289.8" font-family="Times,serif" font-size="14.00">write</text>
</g>
<!-- /etc/resolv.conf#ServerID_34e86192c217 -->
<g id="node12" class="node"><title>/etc/resolv.conf#ServerID_34e86192c217</title>
<ellipse fill="none" stroke="black" cx="5924" cy="-445" rx="205.264" ry="18"/>
<text text-anchor="middle" x="5924" y="-441.3" font-family="Times,serif" font-size="14.00">/etc/resolv.conf#ServerID_34e86192c217</text>
</g>
<!-- /etc/resolv.conf#ServerID_34e86192c217&#45;&gt;10_node#ServerID_34e86192c217 -->
<g id="edge14" class="edge"><title>/etc/resolv.conf#ServerID_34e86192c217&#45;&gt;10_node#ServerID_34e86192c217</title>
<path fill="none" stroke="black" d="M5803.39,-430.413C5630.27,-410.912 5311.86,-375.045 5126.75,-354.193"/>
<polygon fill="black" stroke="black" points="5127,-350.699 5116.67,-353.058 5126.22,-357.655 5127,-350.699"/>
<text text-anchor="middle" x="5608.5" y="-397.8" font-family="Times,serif" font-size="14.00">read</text>
</g>
<!-- /etc/hosts#ServerID_34e86192c217 -->
<g id="node13" class="node"><title>/etc/hosts#ServerID_34e86192c217</title>
<ellipse fill="none" stroke="black" cx="5521" cy="-445" rx="180.068" ry="18"/>
<text text-anchor="middle" x="5521" y="-441.3" font-family="Times,serif" font-size="14.00">/etc/hosts#ServerID_34e86192c217</text>
</g>
<!-- /etc/hosts#ServerID_34e86192c217&#45;&gt;10_node#ServerID_34e86192c217 -->
<g id="edge15" class="edge"><title>/etc/hosts#ServerID_34e86192c217&#45;&gt;10_node#ServerID_34e86192c217</title>
<path fill="none" stroke="black" d="M5443.34,-428.7C5347.22,-409.76 5183.5,-377.503 5079.42,-356.998"/>
<polygon fill="black" stroke="black" points="5080.03,-353.55 5069.54,-355.051 5078.68,-360.418 5080.03,-353.55"/>
<text text-anchor="middle" x="5347.5" y="-397.8" font-family="Times,serif" font-size="14.00">read</text>
</g>
<!-- 1_fwatchdog#ServerID_e56b6537e2d5 -->
<g id="node14" class="node"><title>1_fwatchdog#ServerID_e56b6537e2d5</title>
<polygon fill="none" stroke="black" points="5722.5,-139 5423.5,-139 5423.5,-103 5722.5,-103 5722.5,-139"/>
<text text-anchor="middle" x="5573" y="-117.3" font-family="Times,serif" font-size="14.00">1_fwatchdog#ServerID_e56b6537e2d5</text>
</g>
<!-- localhost:3000#ServerID_e56b6537e2d5 -->
<g id="node15" class="node"><title>localhost:3000#ServerID_e56b6537e2d5</title>
<polygon fill="none" stroke="black" points="5836,-52 5549.45,-34 5836,-16 6122.55,-34 5836,-52"/>
<text text-anchor="middle" x="5836" y="-30.3" font-family="Times,serif" font-size="14.00">localhost:3000#ServerID_e56b6537e2d5</text>
</g>
<!-- 1_fwatchdog#ServerID_e56b6537e2d5&#45;&gt;localhost:3000#ServerID_e56b6537e2d5 -->
<g id="edge16" class="edge"><title>1_fwatchdog#ServerID_e56b6537e2d5&#45;&gt;localhost:3000#ServerID_e56b6537e2d5</title>
<path fill="none" stroke="black" d="M5625.91,-102.901C5671.32,-88.2225 5736.5,-67.1584 5782.18,-52.3947"/>
<polygon fill="black" stroke="black" points="5783.46,-55.6574 5791.9,-49.2516 5781.31,-48.9966 5783.46,-55.6574"/>
<text text-anchor="middle" x="5739" y="-73.8" font-family="Times,serif" font-size="14.00">write</text>
</g>
<!-- 10.1.80.247:58498#ServerID_OuterContainerID -->
<g id="node16" class="node"><title>10.1.80.247:58498#ServerID_OuterContainerID</title>
<polygon fill="none" stroke="black" points="3091,-247 2755.52,-229 3091,-211 3426.48,-229 3091,-247"/>
<text text-anchor="middle" x="3091" y="-225.3" font-family="Times,serif" font-size="14.00">10.1.80.247:58498#ServerID_OuterContainerID</text>
</g>
<!-- 10.1.80.247:58498#ServerID_OuterContainerID&#45;&gt;1_fwatchdog#ServerID_e56b6537e2d5 -->
<g id="edge18" class="edge"><title>10.1.80.247:58498#ServerID_OuterContainerID&#45;&gt;1_fwatchdog#ServerID_e56b6537e2d5</title>
<path fill="none" stroke="black" d="M3212.65,-217.525C3278.68,-212.258 3361.76,-206.306 3436,-203 3655.7,-193.216 5197.74,-204.126 5415,-170 5450.52,-164.42 5489.16,-152.786 5519.34,-142.369"/>
<polygon fill="black" stroke="black" points="5520.55,-145.654 5528.83,-139.039 5518.23,-139.049 5520.55,-145.654"/>
<text text-anchor="middle" x="5328.5" y="-181.8" font-family="Times,serif" font-size="14.00">read</text>
</g>
<!-- 10.1.80.247:58532#ServerID_OuterContainerID -->
<g id="node17" class="node"><title>10.1.80.247:58532#ServerID_OuterContainerID</title>
<polygon fill="none" stroke="black" points="2402,-247 2066.52,-229 2402,-211 2737.48,-229 2402,-247"/>
<text text-anchor="middle" x="2402" y="-225.3" font-family="Times,serif" font-size="14.00">10.1.80.247:58532#ServerID_OuterContainerID</text>
</g>
<!-- 10.1.80.247:58532#ServerID_OuterContainerID&#45;&gt;1_fwatchdog#ServerID_e56b6537e2d5 -->
<g id="edge20" class="edge"><title>10.1.80.247:58532#ServerID_OuterContainerID&#45;&gt;1_fwatchdog#ServerID_e56b6537e2d5</title>
<path fill="none" stroke="black" d="M2522.84,-217.464C2589,-212.145 2672.45,-206.163 2747,-203 3192.19,-184.111 4306.44,-183.466 4752,-178 4788.83,-177.548 5378.6,-175.632 5415,-170 5450.53,-164.502 5489.18,-152.869 5519.35,-142.433"/>
<polygon fill="black" stroke="black" points="5520.56,-145.717 5528.84,-139.096 5518.24,-139.113 5520.56,-145.717"/>
<text text-anchor="middle" x="4768.5" y="-181.8" font-family="Times,serif" font-size="14.00">read</text>
</g>
<!-- 12_node#ServerID_e56b6537e2d5 -->
<g id="node18" class="node"><title>12_node#ServerID_e56b6537e2d5</title>
<polygon fill="none" stroke="black" points="5405.5,-139 5138.5,-139 5138.5,-103 5405.5,-103 5405.5,-139"/>
<text text-anchor="middle" x="5272" y="-117.3" font-family="Times,serif" font-size="14.00">12_node#ServerID_e56b6537e2d5</text>
</g>
<!-- pipe:[331682415]#ServerID_e56b6537e2d5 -->
<g id="node19" class="node"><title>pipe:[331682415]#ServerID_e56b6537e2d5</title>
<ellipse fill="none" stroke="black" cx="5314" cy="-34" rx="217.162" ry="18"/>
<text text-anchor="middle" x="5314" y="-30.3" font-family="Times,serif" font-size="14.00">pipe:[331682415]#ServerID_e56b6537e2d5</text>
</g>
<!-- 12_node#ServerID_e56b6537e2d5&#45;&gt;pipe:[331682415]#ServerID_e56b6537e2d5 -->
<g id="edge21" class="edge"><title>12_node#ServerID_e56b6537e2d5&#45;&gt;pipe:[331682415]#ServerID_e56b6537e2d5</title>
<path fill="none" stroke="black" d="M5280.5,-102.799C5286.36,-90.9322 5294.27,-74.9279 5300.93,-61.4488"/>
<polygon fill="black" stroke="black" points="5304.22,-62.6912 5305.51,-52.1754 5297.95,-59.5902 5304.22,-62.6912"/>
<text text-anchor="middle" x="5314" y="-73.8" font-family="Times,serif" font-size="14.00">write</text>
</g>
<!-- 10.1.80.1:7154#ServerID_OuterContainerID&#45;&gt;10.1.80.247:8080#ServerID_OuterContainerID -->
<g id="edge22" class="edge"><title>10.1.80.1:7154#ServerID_OuterContainerID&#45;&gt;10.1.80.247:8080#ServerID_OuterContainerID</title>
<path fill="none" stroke="black" d="M935.988,-134.463C810.299,-154.289 565.532,-192.898 433.17,-213.777"/>
<polygon fill="black" stroke="black" points="432.391,-210.356 423.058,-215.372 433.482,-217.271 432.391,-210.356"/>
<text text-anchor="middle" x="679" y="-181.8" font-family="Times,serif" font-size="14.00">POST</text>
</g>
</g>
</svg>
