<?xml version="1.0" encoding="UTF-8" standalone="no"?>
<!DOCTYPE svg PUBLIC "-//W3C//DTD SVG 1.1//EN"
 "http://www.w3.org/Graphics/SVG/1.1/DTD/svg11.dtd">
<!-- Generated by graphviz version 2.38.0 (20140413.2041)
 -->
<!-- Title: G Pages: 1 -->
<svg width="6514pt" height="489pt"
 viewBox="0.00 0.00 6514.00 489.00" xmlns="http://www.w3.org/2000/svg" xmlns:xlink="http://www.w3.org/1999/xlink">
<g id="graph0" class="graph" transform="scale(1 1) rotate(0) translate(4 485)">
<title>G</title>
<polygon fill="white" stroke="none" points="-4,4 -4,-485 6510,-485 6510,4 -4,4"/>
<g id="clust1" class="cluster"><title>clusterServerID_34e86192c217</title>
<polygon fill="none" stroke="black" points="5102,-95 5102,-473 6498,-473 6498,-95 5102,-95"/>
<text text-anchor="middle" x="5800" y="-457.8" font-family="Times,serif" font-size="14.00">clusterServerID_34e86192c217</text>
</g>
<g id="clust2" class="cluster"><title>clusterServerID_5f846fd567&#45;w7nbt</title>
<polygon fill="none" stroke="black" points="3907,-398 3907,-473 4247,-473 4247,-398 3907,-398"/>
<text text-anchor="middle" x="4077" y="-457.8" font-family="Times,serif" font-size="14.00">clusterServerID_5f846fd567&#45;w7nbt</text>
</g>
<g id="clust3" class="cluster"><title>clusterServerID_6df85d7674&#45;2kqrj</title>
<polygon fill="none" stroke="black" points="2562,-398 2562,-473 2900,-473 2900,-398 2562,-398"/>
<text text-anchor="middle" x="2731" y="-457.8" font-family="Times,serif" font-size="14.00">clusterServerID_6df85d7674&#45;2kqrj</text>
</g>
<g id="clust4" class="cluster"><title>clusterServerID_OuterContainerID</title>
<polygon fill="none" stroke="black" points="1058,-182 1058,-365 5094,-365 5094,-182 1058,-182"/>
<text text-anchor="middle" x="3076" y="-349.8" font-family="Times,serif" font-size="14.00">clusterServerID_OuterContainerID</text>
</g>
<g id="clust5" class="cluster"><title>clusterServerID_e56b6537e2d5</title>
<polygon fill="none" stroke="black" points="8,-8 8,-257 1050,-257 1050,-8 8,-8"/>
<text text-anchor="middle" x="529" y="-241.8" font-family="Times,serif" font-size="14.00">clusterServerID_e56b6537e2d5</text>
</g>
<!-- 1_fwatchdog#ServerID_6df85d7674&#45;2kqrj -->
<g id="node1" class="node"><title>1_fwatchdog#ServerID_6df85d7674&#45;2kqrj</title>
<polygon fill="none" stroke="black" points="2891.5,-442 2570.5,-442 2570.5,-406 2891.5,-406 2891.5,-442"/>
<text text-anchor="middle" x="2731" y="-420.3" font-family="Times,serif" font-size="14.00">1_fwatchdog#ServerID_6df85d7674&#45;2kqrj</text>
</g>
<!-- 10.1.80.247:56422#ServerID_OuterContainerID -->
<g id="node2" class="node"><title>10.1.80.247:56422#ServerID_OuterContainerID</title>
<polygon fill="none" stroke="black" points="3389,-334 3053.52,-316 3389,-298 3724.48,-316 3389,-334"/>
<text text-anchor="middle" x="3389" y="-312.3" font-family="Times,serif" font-size="14.00">10.1.80.247:56422#ServerID_OuterContainerID</text>
</g>
<!-- 1_fwatchdog#ServerID_6df85d7674&#45;2kqrj&#45;&gt;10.1.80.247:56422#ServerID_OuterContainerID -->
<g id="edge1" class="edge"><title>1_fwatchdog#ServerID_6df85d7674&#45;2kqrj&#45;&gt;10.1.80.247:56422#ServerID_OuterContainerID</title>
<path fill="none" stroke="black" d="M2836.72,-405.969C2964.99,-385.306 3178.98,-350.833 3299.47,-331.422"/>
<polygon fill="black" stroke="black" points="3300.09,-334.867 3309.41,-329.822 3298.98,-327.957 3300.09,-334.867"/>
<text text-anchor="middle" x="3083" y="-376.8" font-family="Times,serif" font-size="14.00">RESPONSE</text>
</g>
<!-- 10.1.80.247:8080#ServerID_OuterContainerID -->
<g id="node3" class="node"><title>10.1.80.247:8080#ServerID_OuterContainerID</title>
<polygon fill="none" stroke="black" points="2082,-334 1754.56,-316 2082,-298 2409.44,-316 2082,-334"/>
<text text-anchor="middle" x="2082" y="-312.3" font-family="Times,serif" font-size="14.00">10.1.80.247:8080#ServerID_OuterContainerID</text>
</g>
<!-- 1_fwatchdog#ServerID_6df85d7674&#45;2kqrj&#45;&gt;10.1.80.247:8080#ServerID_OuterContainerID -->
<g id="edge3" class="edge"><title>1_fwatchdog#ServerID_6df85d7674&#45;2kqrj&#45;&gt;10.1.80.247:8080#ServerID_OuterContainerID</title>
<path fill="none" stroke="black" d="M2570.13,-411.355C2510.77,-405.88 2443.11,-398.249 2382,-388 2298.25,-373.953 2203.07,-350.044 2142.8,-333.894"/>
<polygon fill="black" stroke="black" points="2143.64,-330.494 2133.07,-331.272 2141.82,-337.253 2143.64,-330.494"/>
<text text-anchor="middle" x="2402" y="-376.8" font-family="Times,serif" font-size="14.00">POST</text>
</g>
<!-- gateway:8080#ServerID_OuterContainerID -->
<g id="node6" class="node"><title>gateway:8080#ServerID_OuterContainerID</title>
<polygon fill="none" stroke="black" points="2731,-334 2426.52,-316 2731,-298 3035.48,-316 2731,-334"/>
<text text-anchor="middle" x="2731" y="-312.3" font-family="Times,serif" font-size="14.00">gateway:8080#ServerID_OuterContainerID</text>
</g>
<!-- 1_fwatchdog#ServerID_6df85d7674&#45;2kqrj&#45;&gt;gateway:8080#ServerID_OuterContainerID -->
<g id="edge7" class="edge"><title>1_fwatchdog#ServerID_6df85d7674&#45;2kqrj&#45;&gt;gateway:8080#ServerID_OuterContainerID</title>
<path fill="none" stroke="black" d="M2751.2,-405.928C2755.99,-400.716 2760.44,-394.601 2763,-388 2765.41,-381.785 2764.71,-379.443 2763,-373 2760.15,-362.286 2754.72,-351.483 2749.13,-342.263"/>
<polygon fill="black" stroke="black" points="2751.93,-340.148 2743.58,-333.633 2746.05,-343.936 2751.93,-340.148"/>
<text text-anchor="middle" x="2785" y="-376.8" font-family="Times,serif" font-size="14.00">POST</text>
</g>
<!-- 10.1.80.247:56422#ServerID_OuterContainerID&#45;&gt;1_fwatchdog#ServerID_6df85d7674&#45;2kqrj -->
<g id="edge8" class="edge"><title>10.1.80.247:56422#ServerID_OuterContainerID&#45;&gt;1_fwatchdog#ServerID_6df85d7674&#45;2kqrj</title>
<path fill="none" stroke="black" d="M3344.93,-331.637C3293.65,-348.055 3206.15,-374.189 3129,-388 3055.14,-401.223 2972.63,-409.521 2901.97,-414.694"/>
<polygon fill="black" stroke="black" points="2901.36,-411.229 2891.63,-415.435 2901.86,-418.211 2901.36,-411.229"/>
<text text-anchor="middle" x="3215" y="-376.8" font-family="Times,serif" font-size="14.00">POST</text>
</g>
<!-- 1_fwatchdog#ServerID_34e86192c217 -->
<g id="node7" class="node"><title>1_fwatchdog#ServerID_34e86192c217</title>
<polygon fill="none" stroke="black" points="6281.5,-442 5982.5,-442 5982.5,-406 6281.5,-406 6281.5,-442"/>
<text text-anchor="middle" x="6132" y="-420.3" font-family="Times,serif" font-size="14.00">1_fwatchdog#ServerID_34e86192c217</text>
</g>
<!-- 10.1.80.247:56422#ServerID_OuterContainerID&#45;&gt;1_fwatchdog#ServerID_34e86192c217 -->
<g id="edge12" class="edge"><title>10.1.80.247:56422#ServerID_OuterContainerID&#45;&gt;1_fwatchdog#ServerID_34e86192c217</title>
<path fill="none" stroke="black" d="M3463.76,-330.026C3533.45,-341.545 3640.41,-357.628 3734,-365 3827.51,-372.365 4062.23,-370.925 4156,-373 4831.09,-387.94 5635.83,-409.454 5972.05,-418.609"/>
<polygon fill="black" stroke="black" points="5972.26,-422.115 5982.35,-418.889 5972.45,-415.118 5972.26,-422.115"/>
<text text-anchor="middle" x="4770.5" y="-376.8" font-family="Times,serif" font-size="14.00">read</text>
</g>
<!-- 10.1.80.247:8080#ServerID_OuterContainerID&#45;&gt;1_fwatchdog#ServerID_6df85d7674&#45;2kqrj -->
<g id="edge2" class="edge"><title>10.1.80.247:8080#ServerID_OuterContainerID&#45;&gt;1_fwatchdog#ServerID_6df85d7674&#45;2kqrj</title>
<path fill="none" stroke="black" d="M2160.02,-329.743C2273.65,-348.301 2485.38,-382.883 2616.64,-404.321"/>
<polygon fill="black" stroke="black" points="2616.29,-407.811 2626.73,-405.969 2617.42,-400.903 2616.29,-407.811"/>
<text text-anchor="middle" x="2545" y="-376.8" font-family="Times,serif" font-size="14.00">RESPONSE</text>
</g>
<!-- 10.1.80.1:26948#ServerID_OuterContainerID -->
<g id="node19" class="node"><title>10.1.80.1:26948#ServerID_OuterContainerID</title>
<polygon fill="none" stroke="black" points="2019,-226 1700.1,-208 2019,-190 2337.9,-208 2019,-226"/>
<text text-anchor="middle" x="2019" y="-204.3" font-family="Times,serif" font-size="14.00">10.1.80.1:26948#ServerID_OuterContainerID</text>
</g>
<!-- 10.1.80.247:8080#ServerID_OuterContainerID&#45;&gt;10.1.80.1:26948#ServerID_OuterContainerID -->
<g id="edge30" class="edge"><title>10.1.80.247:8080#ServerID_OuterContainerID&#45;&gt;10.1.80.1:26948#ServerID_OuterContainerID</title>
<path fill="none" stroke="black" d="M2075.55,-297.886C2071.57,-288.015 2066.07,-275.515 2060,-265 2053.82,-254.292 2046.01,-243.173 2038.87,-233.691"/>
<polygon fill="black" stroke="black" points="2041.44,-231.291 2032.56,-225.504 2035.89,-235.562 2041.44,-231.291"/>
<text text-anchor="middle" x="2110" y="-268.8" font-family="Times,serif" font-size="14.00">RESPONSE</text>
</g>
<!-- 10.0.88.125:31112#ServerID_OuterContainerID -->
<g id="node20" class="node"><title>10.0.88.125:31112#ServerID_OuterContainerID</title>
<polygon fill="none" stroke="black" points="2691,-226 2355.52,-208 2691,-190 3026.48,-208 2691,-226"/>
<text text-anchor="middle" x="2691" y="-204.3" font-family="Times,serif" font-size="14.00">10.0.88.125:31112#ServerID_OuterContainerID</text>
</g>
<!-- 10.1.80.247:8080#ServerID_OuterContainerID&#45;&gt;10.0.88.125:31112#ServerID_OuterContainerID -->
<g id="edge29" class="edge"><title>10.1.80.247:8080#ServerID_OuterContainerID&#45;&gt;10.0.88.125:31112#ServerID_OuterContainerID</title>
<path fill="none" stroke="black" d="M2156.37,-302.055C2270.1,-282.26 2486.6,-244.577 2606.25,-223.751"/>
<polygon fill="black" stroke="black" points="2606.85,-227.199 2616.11,-222.036 2605.65,-220.302 2606.85,-227.199"/>
<text text-anchor="middle" x="2411" y="-268.8" font-family="Times,serif" font-size="14.00">RESPONSE</text>
</g>
<!-- 1_fwatchdog#ServerID_5f846fd567&#45;w7nbt -->
<g id="node4" class="node"><title>1_fwatchdog#ServerID_5f846fd567&#45;w7nbt</title>
<polygon fill="none" stroke="black" points="4239,-442 3915,-442 3915,-406 4239,-406 4239,-442"/>
<text text-anchor="middle" x="4077" y="-420.3" font-family="Times,serif" font-size="14.00">1_fwatchdog#ServerID_5f846fd567&#45;w7nbt</text>
</g>
<!-- 10.1.80.247:58428#ServerID_OuterContainerID -->
<g id="node5" class="node"><title>10.1.80.247:58428#ServerID_OuterContainerID</title>
<polygon fill="none" stroke="black" points="4078,-334 3742.52,-316 4078,-298 4413.48,-316 4078,-334"/>
<text text-anchor="middle" x="4078" y="-312.3" font-family="Times,serif" font-size="14.00">10.1.80.247:58428#ServerID_OuterContainerID</text>
</g>
<!-- 1_fwatchdog#ServerID_5f846fd567&#45;w7nbt&#45;&gt;10.1.80.247:58428#ServerID_OuterContainerID -->
<g id="edge4" class="edge"><title>1_fwatchdog#ServerID_5f846fd567&#45;w7nbt&#45;&gt;10.1.80.247:58428#ServerID_OuterContainerID</title>
<path fill="none" stroke="black" d="M4041.26,-405.861C4034.73,-401.032 4028.78,-395.108 4025,-388 4021.87,-382.115 4022.53,-379.194 4025,-373 4030,-360.439 4039.31,-349.073 4048.74,-339.914"/>
<polygon fill="black" stroke="black" points="4051.22,-342.386 4056.25,-333.061 4046.51,-337.214 4051.22,-342.386"/>
<text text-anchor="middle" x="4067" y="-376.8" font-family="Times,serif" font-size="14.00">RESPONSE</text>
</g>
<!-- 10.1.80.247:58428#ServerID_OuterContainerID&#45;&gt;1_fwatchdog#ServerID_5f846fd567&#45;w7nbt -->
<g id="edge5" class="edge"><title>10.1.80.247:58428#ServerID_OuterContainerID&#45;&gt;1_fwatchdog#ServerID_5f846fd567&#45;w7nbt</title>
<path fill="none" stroke="black" d="M4093.08,-333.48C4104.24,-347.767 4116.35,-369.067 4109,-388 4107.64,-391.507 4105.74,-394.876 4103.55,-398.046"/>
<polygon fill="black" stroke="black" points="4100.75,-395.944 4097.2,-405.928 4106.2,-400.335 4100.75,-395.944"/>
<text text-anchor="middle" x="4132" y="-376.8" font-family="Times,serif" font-size="14.00">POST</text>
</g>
<!-- 1_fwatchdog#ServerID_e56b6537e2d5 -->
<g id="node15" class="node"><title>1_fwatchdog#ServerID_e56b6537e2d5</title>
<polygon fill="none" stroke="black" points="885.5,-226 586.5,-226 586.5,-190 885.5,-190 885.5,-226"/>
<text text-anchor="middle" x="736" y="-204.3" font-family="Times,serif" font-size="14.00">1_fwatchdog#ServerID_e56b6537e2d5</text>
</g>
<!-- 10.1.80.247:58428#ServerID_OuterContainerID&#45;&gt;1_fwatchdog#ServerID_e56b6537e2d5 -->
<g id="edge25" class="edge"><title>10.1.80.247:58428#ServerID_OuterContainerID&#45;&gt;1_fwatchdog#ServerID_e56b6537e2d5</title>
<path fill="none" stroke="black" d="M3925.2,-306.188C3865.29,-303.069 3795.94,-299.873 3733,-298 2953.3,-274.8 2757.92,-293.706 1978,-280 1875.32,-278.196 1156.31,-265.959 1054,-257 981.554,-250.656 900.509,-238.342 838.368,-227.775"/>
<polygon fill="black" stroke="black" points="838.618,-224.267 828.171,-226.028 837.436,-231.166 838.618,-224.267"/>
<text text-anchor="middle" x="1994.5" y="-268.8" font-family="Times,serif" font-size="14.00">read</text>
</g>
<!-- gateway:8080#ServerID_OuterContainerID&#45;&gt;1_fwatchdog#ServerID_6df85d7674&#45;2kqrj -->
<g id="edge6" class="edge"><title>gateway:8080#ServerID_OuterContainerID&#45;&gt;1_fwatchdog#ServerID_6df85d7674&#45;2kqrj</title>
<path fill="none" stroke="black" d="M2709.92,-332.91C2698.41,-342.974 2685.26,-357.069 2679,-373 2676.56,-379.205 2675.87,-382.115 2679,-388 2681.19,-392.11 2684.1,-395.823 2687.42,-399.158"/>
<polygon fill="black" stroke="black" points="2685.39,-402.021 2695.26,-405.861 2689.94,-396.701 2685.39,-402.021"/>
<text text-anchor="middle" x="2721" y="-376.8" font-family="Times,serif" font-size="14.00">RESPONSE</text>
</g>
<!-- 10_node#ServerID_34e86192c217 -->
<g id="node9" class="node"><title>10_node#ServerID_34e86192c217</title>
<polygon fill="none" stroke="black" points="5388.5,-226 5121.5,-226 5121.5,-190 5388.5,-190 5388.5,-226"/>
<text text-anchor="middle" x="5255" y="-204.3" font-family="Times,serif" font-size="14.00">10_node#ServerID_34e86192c217</text>
</g>
<!-- gateway:8080#ServerID_OuterContainerID&#45;&gt;10_node#ServerID_34e86192c217 -->
<g id="edge27" class="edge"><title>gateway:8080#ServerID_OuterContainerID&#45;&gt;10_node#ServerID_34e86192c217</title>
<path fill="none" stroke="black" d="M2872.41,-306.316C2926.4,-303.271 2988.53,-300.092 3045,-298 3102,-295.888 5041.67,-265.994 5098,-257 5133.02,-251.408 5171.09,-239.911 5200.97,-229.572"/>
<polygon fill="black" stroke="black" points="5202.5,-232.743 5210.77,-226.12 5200.18,-226.14 5202.5,-232.743"/>
<text text-anchor="middle" x="4844.5" y="-268.8" font-family="Times,serif" font-size="14.00">read</text>
</g>
<!-- localhost:3000#ServerID_34e86192c217 -->
<g id="node8" class="node"><title>localhost:3000#ServerID_34e86192c217</title>
<polygon fill="none" stroke="black" points="6203,-334 5916.45,-316 6203,-298 6489.55,-316 6203,-334"/>
<text text-anchor="middle" x="6203" y="-312.3" font-family="Times,serif" font-size="14.00">localhost:3000#ServerID_34e86192c217</text>
</g>
<!-- 1_fwatchdog#ServerID_34e86192c217&#45;&gt;localhost:3000#ServerID_34e86192c217 -->
<g id="edge9" class="edge"><title>1_fwatchdog#ServerID_34e86192c217&#45;&gt;localhost:3000#ServerID_34e86192c217</title>
<path fill="none" stroke="black" d="M6105.02,-405.965C6093.79,-396.642 6084.83,-384.644 6092,-373 6102.84,-355.389 6121.12,-343.116 6139.74,-334.652"/>
<polygon fill="black" stroke="black" points="6141.32,-337.786 6149.18,-330.681 6138.6,-331.334 6141.32,-337.786"/>
<text text-anchor="middle" x="6121" y="-376.8" font-family="Times,serif" font-size="14.00">connect</text>
</g>
<!-- 1_fwatchdog#ServerID_34e86192c217&#45;&gt;localhost:3000#ServerID_34e86192c217 -->
<g id="edge11" class="edge"><title>1_fwatchdog#ServerID_34e86192c217&#45;&gt;localhost:3000#ServerID_34e86192c217</title>
<path fill="none" stroke="black" d="M6143.41,-405.969C6154.97,-388.714 6172.97,-361.828 6186.17,-342.126"/>
<polygon fill="black" stroke="black" points="6189.2,-343.895 6191.86,-333.639 6183.38,-340 6189.2,-343.895"/>
<text text-anchor="middle" x="6184" y="-376.8" font-family="Times,serif" font-size="14.00">write</text>
</g>
<!-- localhost:3000#ServerID_34e86192c217&#45;&gt;1_fwatchdog#ServerID_34e86192c217 -->
<g id="edge10" class="edge"><title>localhost:3000#ServerID_34e86192c217&#45;&gt;1_fwatchdog#ServerID_34e86192c217</title>
<path fill="none" stroke="black" d="M6210.54,-333.613C6216.27,-348.964 6221.55,-371.781 6211,-388 6208.06,-392.521 6204.38,-396.462 6200.24,-399.897"/>
<polygon fill="black" stroke="black" points="6197.91,-397.263 6191.77,-405.899 6201.95,-402.975 6197.91,-397.263"/>
<text text-anchor="middle" x="6232.5" y="-376.8" font-family="Times,serif" font-size="14.00">read</text>
</g>
<!-- localhost:3000#ServerID_34e86192c217&#45;&gt;10_node#ServerID_34e86192c217 -->
<g id="edge21" class="edge"><title>localhost:3000#ServerID_34e86192c217&#45;&gt;10_node#ServerID_34e86192c217</title>
<path fill="none" stroke="black" d="M6105.56,-304.105C5937.91,-285.359 5594.12,-246.918 5398.85,-225.084"/>
<polygon fill="black" stroke="black" points="5399.12,-221.594 5388.8,-223.961 5398.35,-228.55 5399.12,-221.594"/>
<text text-anchor="middle" x="5885.5" y="-268.8" font-family="Times,serif" font-size="14.00">read</text>
</g>
<!-- 10_node#ServerID_34e86192c217&#45;&gt;gateway:8080#ServerID_OuterContainerID -->
<g id="edge18" class="edge"><title>10_node#ServerID_34e86192c217&#45;&gt;gateway:8080#ServerID_OuterContainerID</title>
<path fill="none" stroke="black" d="M5211.47,-226.05C5180.39,-237.29 5137.31,-251.005 5098,-257 5024.9,-268.15 3840.92,-263.089 3767,-265 3445.88,-273.3 3365.82,-281.984 3045,-298 2994.37,-300.528 2939.16,-303.458 2889.35,-306.167"/>
<polygon fill="black" stroke="black" points="2888.93,-302.684 2879.14,-306.723 2889.31,-309.674 2888.93,-302.684"/>
<text text-anchor="middle" x="3796" y="-268.8" font-family="Times,serif" font-size="14.00">connect</text>
</g>
<!-- pipe:[331683264]#ServerID_34e86192c217 -->
<g id="node10" class="node"><title>pipe:[331683264]#ServerID_34e86192c217</title>
<ellipse fill="none" stroke="black" cx="5327" cy="-121" rx="217.162" ry="18"/>
<text text-anchor="middle" x="5327" y="-117.3" font-family="Times,serif" font-size="14.00">pipe:[331683264]#ServerID_34e86192c217</text>
</g>
<!-- 10_node#ServerID_34e86192c217&#45;&gt;pipe:[331683264]#ServerID_34e86192c217 -->
<g id="edge13" class="edge"><title>10_node#ServerID_34e86192c217&#45;&gt;pipe:[331683264]#ServerID_34e86192c217</title>
<path fill="none" stroke="black" d="M5269.57,-189.799C5280.01,-177.471 5294.24,-160.679 5305.92,-146.89"/>
<polygon fill="black" stroke="black" points="5308.66,-149.068 5312.45,-139.175 5303.32,-144.544 5308.66,-149.068"/>
<text text-anchor="middle" x="5314" y="-160.8" font-family="Times,serif" font-size="14.00">write</text>
</g>
<!-- 10.152.183.10:53#ServerID_OuterContainerID -->
<g id="node11" class="node"><title>10.152.183.10:53#ServerID_OuterContainerID</title>
<polygon fill="none" stroke="black" points="4759,-334 4431.56,-316 4759,-298 5086.44,-316 4759,-334"/>
<text text-anchor="middle" x="4759" y="-312.3" font-family="Times,serif" font-size="14.00">10.152.183.10:53#ServerID_OuterContainerID</text>
</g>
<!-- 10_node#ServerID_34e86192c217&#45;&gt;10.152.183.10:53#ServerID_OuterContainerID -->
<g id="edge15" class="edge"><title>10_node#ServerID_34e86192c217&#45;&gt;10.152.183.10:53#ServerID_OuterContainerID</title>
<path fill="none" stroke="black" d="M5224.28,-226.013C5192.64,-242.698 5141.39,-267.408 5094,-280 5044.99,-293.023 4990.74,-301.239 4940.43,-306.411"/>
<polygon fill="black" stroke="black" points="4940.03,-302.933 4930.42,-307.405 4940.72,-309.899 4940.03,-302.933"/>
<text text-anchor="middle" x="5160.5" y="-268.8" font-family="Times,serif" font-size="14.00">sendto</text>
</g>
<!-- 10.152.183.10:53#ServerID_OuterContainerID&#45;&gt;10_node#ServerID_34e86192c217 -->
<g id="edge14" class="edge"><title>10.152.183.10:53#ServerID_OuterContainerID&#45;&gt;10_node#ServerID_34e86192c217</title>
<path fill="none" stroke="black" d="M4824.29,-301.541C4878.63,-290.657 4958.12,-275.474 5028,-265 5058.97,-260.358 5067.34,-263.382 5098,-257 5131.59,-250.006 5168.31,-238.975 5197.79,-229.25"/>
<polygon fill="black" stroke="black" points="5199.12,-232.497 5207.49,-226.01 5196.9,-225.858 5199.12,-232.497"/>
<text text-anchor="middle" x="5061" y="-268.8" font-family="Times,serif" font-size="14.00">recvfrom</text>
</g>
<!-- /etc/resolv.conf#ServerID_34e86192c217 -->
<g id="node12" class="node"><title>/etc/resolv.conf#ServerID_34e86192c217</title>
<ellipse fill="none" stroke="black" cx="5693" cy="-316" rx="205.264" ry="18"/>
<text text-anchor="middle" x="5693" y="-312.3" font-family="Times,serif" font-size="14.00">/etc/resolv.conf#ServerID_34e86192c217</text>
</g>
<!-- /etc/resolv.conf#ServerID_34e86192c217&#45;&gt;10_node#ServerID_34e86192c217 -->
<g id="edge16" class="edge"><title>/etc/resolv.conf#ServerID_34e86192c217&#45;&gt;10_node#ServerID_34e86192c217</title>
<path fill="none" stroke="black" d="M5626.48,-298.901C5548.4,-280.006 5419,-248.69 5335.38,-228.454"/>
<polygon fill="black" stroke="black" points="5335.96,-224.993 5325.42,-226.042 5334.32,-231.796 5335.96,-224.993"/>
<text text-anchor="middle" x="5554.5" y="-268.8" font-family="Times,serif" font-size="14.00">read</text>
</g>
<!-- /etc/hosts#ServerID_34e86192c217 -->
<g id="node13" class="node"><title>/etc/hosts#ServerID_34e86192c217</title>
<ellipse fill="none" stroke="black" cx="5290" cy="-316" rx="180.068" ry="18"/>
<text text-anchor="middle" x="5290" y="-312.3" font-family="Times,serif" font-size="14.00">/etc/hosts#ServerID_34e86192c217</text>
</g>
<!-- /etc/hosts#ServerID_34e86192c217&#45;&gt;10_node#ServerID_34e86192c217 -->
<g id="edge17" class="edge"><title>/etc/hosts#ServerID_34e86192c217&#45;&gt;10_node#ServerID_34e86192c217</title>
<path fill="none" stroke="black" d="M5284.38,-297.969C5278.85,-281.224 5270.32,-255.41 5263.88,-235.892"/>
<polygon fill="black" stroke="black" points="5267.18,-234.739 5260.73,-226.341 5260.54,-236.934 5267.18,-234.739"/>
<text text-anchor="middle" x="5293.5" y="-268.8" font-family="Times,serif" font-size="14.00">read</text>
</g>
<!-- 10.1.80.247:58392#ServerID_OuterContainerID -->
<g id="node14" class="node"><title>10.1.80.247:58392#ServerID_OuterContainerID</title>
<polygon fill="none" stroke="black" points="1401,-334 1065.52,-316 1401,-298 1736.48,-316 1401,-334"/>
<text text-anchor="middle" x="1401" y="-312.3" font-family="Times,serif" font-size="14.00">10.1.80.247:58392#ServerID_OuterContainerID</text>
</g>
<!-- 10.1.80.247:58392#ServerID_OuterContainerID&#45;&gt;1_fwatchdog#ServerID_e56b6537e2d5 -->
<g id="edge19" class="edge"><title>10.1.80.247:58392#ServerID_OuterContainerID&#45;&gt;1_fwatchdog#ServerID_e56b6537e2d5</title>
<path fill="none" stroke="black" d="M1321.12,-302.267C1204.54,-283.685 987.099,-249.025 852.628,-227.59"/>
<polygon fill="black" stroke="black" points="853.118,-224.124 842.692,-226.006 852.016,-231.037 853.118,-224.124"/>
<text text-anchor="middle" x="1183.5" y="-268.8" font-family="Times,serif" font-size="14.00">read</text>
</g>
<!-- localhost:3000#ServerID_e56b6537e2d5 -->
<g id="node16" class="node"><title>localhost:3000#ServerID_e56b6537e2d5</title>
<polygon fill="none" stroke="black" points="303,-139 16.4457,-121 303,-103 589.554,-121 303,-139"/>
<text text-anchor="middle" x="303" y="-117.3" font-family="Times,serif" font-size="14.00">localhost:3000#ServerID_e56b6537e2d5</text>
</g>
<!-- 1_fwatchdog#ServerID_e56b6537e2d5&#45;&gt;localhost:3000#ServerID_e56b6537e2d5 -->
<g id="edge22" class="edge"><title>1_fwatchdog#ServerID_e56b6537e2d5&#45;&gt;localhost:3000#ServerID_e56b6537e2d5</title>
<path fill="none" stroke="black" d="M591.692,-189.995C556.935,-185.019 520.02,-178.999 486,-172 442.654,-163.082 394.395,-149.751 358.322,-139.097"/>
<polygon fill="black" stroke="black" points="359.068,-135.667 348.485,-136.168 357.071,-142.376 359.068,-135.667"/>
<text text-anchor="middle" x="515" y="-160.8" font-family="Times,serif" font-size="14.00">connect</text>
</g>
<!-- 1_fwatchdog#ServerID_e56b6537e2d5&#45;&gt;localhost:3000#ServerID_e56b6537e2d5 -->
<g id="edge23" class="edge"><title>1_fwatchdog#ServerID_e56b6537e2d5&#45;&gt;localhost:3000#ServerID_e56b6537e2d5</title>
<path fill="none" stroke="black" d="M677.569,-189.989C639.726,-179.417 589.241,-166.147 544,-157 499.305,-147.964 449.493,-140.329 406.81,-134.519"/>
<polygon fill="black" stroke="black" points="407.066,-131.022 396.688,-133.157 406.132,-137.959 407.066,-131.022"/>
<text text-anchor="middle" x="627" y="-160.8" font-family="Times,serif" font-size="14.00">write</text>
</g>
<!-- pipe:[331682317]#ServerID_e56b6537e2d5 -->
<g id="node18" class="node"><title>pipe:[331682317]#ServerID_e56b6537e2d5</title>
<ellipse fill="none" stroke="black" cx="825" cy="-121" rx="217.162" ry="18"/>
<text text-anchor="middle" x="825" y="-117.3" font-family="Times,serif" font-size="14.00">pipe:[331682317]#ServerID_e56b6537e2d5</text>
</g>
<!-- 1_fwatchdog#ServerID_e56b6537e2d5&#45;&gt;pipe:[331682317]#ServerID_e56b6537e2d5 -->
<g id="edge26" class="edge"><title>1_fwatchdog#ServerID_e56b6537e2d5&#45;&gt;pipe:[331682317]#ServerID_e56b6537e2d5</title>
<path fill="none" stroke="black" d="M754.01,-189.799C767.16,-177.241 785.16,-160.049 799.745,-146.12"/>
<polygon fill="black" stroke="black" points="802.202,-148.613 807.016,-139.175 797.367,-143.551 802.202,-148.613"/>
<text text-anchor="middle" x="805" y="-160.8" font-family="Times,serif" font-size="14.00">write</text>
</g>
<!-- localhost:3000#ServerID_e56b6537e2d5&#45;&gt;1_fwatchdog#ServerID_e56b6537e2d5 -->
<g id="edge24" class="edge"><title>localhost:3000#ServerID_e56b6537e2d5&#45;&gt;1_fwatchdog#ServerID_e56b6537e2d5</title>
<path fill="none" stroke="black" d="M443.87,-130.168C522.638,-135.922 612.347,-144.79 650,-157 669.089,-163.19 688.567,-174.062 704.148,-184.09"/>
<polygon fill="black" stroke="black" points="702.571,-187.244 712.839,-189.855 706.44,-181.41 702.571,-187.244"/>
<text text-anchor="middle" x="699.5" y="-160.8" font-family="Times,serif" font-size="14.00">read</text>
</g>
<!-- 12_node#ServerID_e56b6537e2d5 -->
<g id="node17" class="node"><title>12_node#ServerID_e56b6537e2d5</title>
<polygon fill="none" stroke="black" points="436.5,-52 169.5,-52 169.5,-16 436.5,-16 436.5,-52"/>
<text text-anchor="middle" x="303" y="-30.3" font-family="Times,serif" font-size="14.00">12_node#ServerID_e56b6537e2d5</text>
</g>
<!-- localhost:3000#ServerID_e56b6537e2d5&#45;&gt;12_node#ServerID_e56b6537e2d5 -->
<g id="edge20" class="edge"><title>localhost:3000#ServerID_e56b6537e2d5&#45;&gt;12_node#ServerID_e56b6537e2d5</title>
<path fill="none" stroke="black" d="M303,-102.799C303,-91.1626 303,-75.5479 303,-62.2368"/>
<polygon fill="black" stroke="black" points="306.5,-62.1754 303,-52.1754 299.5,-62.1755 306.5,-62.1754"/>
<text text-anchor="middle" x="319.5" y="-73.8" font-family="Times,serif" font-size="14.00">read</text>
</g>
<!-- 10.1.80.1:26948#ServerID_OuterContainerID&#45;&gt;10.1.80.247:8080#ServerID_OuterContainerID -->
<g id="edge28" class="edge"><title>10.1.80.1:26948#ServerID_OuterContainerID&#45;&gt;10.1.80.247:8080#ServerID_OuterContainerID</title>
<path fill="none" stroke="black" d="M2014.74,-226.056C2011.92,-241.296 2010.31,-263.673 2020,-280 2023.31,-285.581 2027.87,-290.345 2033.03,-294.392"/>
<polygon fill="black" stroke="black" points="2031.3,-297.446 2041.53,-300.177 2035.23,-291.658 2031.3,-297.446"/>
<text text-anchor="middle" x="2040" y="-268.8" font-family="Times,serif" font-size="14.00">POST</text>
</g>
</g>
</svg>
