<?xml version="1.0" encoding="UTF-8" standalone="no"?>
<!DOCTYPE svg PUBLIC "-//W3C//DTD SVG 1.1//EN"
 "http://www.w3.org/Graphics/SVG/1.1/DTD/svg11.dtd">
<!-- Generated by graphviz version 2.38.0 (20140413.2041)
 -->
<!-- Title: G Pages: 1 -->
<svg width="14155pt" height="489pt"
 viewBox="0.00 0.00 14155.00 489.00" xmlns="http://www.w3.org/2000/svg" xmlns:xlink="http://www.w3.org/1999/xlink">
<g id="graph0" class="graph" transform="scale(1 1) rotate(0) translate(4 485)">
<title>G</title>
<polygon fill="white" stroke="none" points="-4,4 -4,-485 14151,-485 14151,4 -4,4"/>
<g id="clust1" class="cluster"><title>clusterServerID_34e86192c217</title>
<polygon fill="none" stroke="black" points="11056,-8 11056,-257 12178,-257 12178,-8 11056,-8"/>
<text text-anchor="middle" x="11617" y="-241.8" font-family="Times,serif" font-size="14.00">clusterServerID_34e86192c217</text>
</g>
<g id="clust2" class="cluster"><title>clusterServerID_5f846fd567&#45;w7nbt</title>
<polygon fill="none" stroke="black" points="10708,-182 10708,-257 11048,-257 11048,-182 10708,-182"/>
<text text-anchor="middle" x="10878" y="-241.8" font-family="Times,serif" font-size="14.00">clusterServerID_5f846fd567&#45;w7nbt</text>
</g>
<g id="clust3" class="cluster"><title>clusterServerID_6df85d7674&#45;2kqrj</title>
<polygon fill="none" stroke="black" points="2232,-398 2232,-473 2570,-473 2570,-398 2232,-398"/>
<text text-anchor="middle" x="2401" y="-457.8" font-family="Times,serif" font-size="14.00">clusterServerID_6df85d7674&#45;2kqrj</text>
</g>
<g id="clust4" class="cluster"><title>clusterServerID_90667071e782</title>
<polygon fill="none" stroke="black" points="13823,-182 13823,-257 14139,-257 14139,-182 13823,-182"/>
<text text-anchor="middle" x="13981" y="-241.8" font-family="Times,serif" font-size="14.00">clusterServerID_90667071e782</text>
</g>
<g id="clust5" class="cluster"><title>clusterServerID_OuterContainerID</title>
<polygon fill="none" stroke="black" points="8,-182 8,-365 10700,-365 10700,-182 8,-182"/>
<text text-anchor="middle" x="5354" y="-349.8" font-family="Times,serif" font-size="14.00">clusterServerID_OuterContainerID</text>
</g>
<g id="clust6" class="cluster"><title>clusterServerID_c437f7cecfb6</title>
<polygon fill="none" stroke="black" points="13509,-182 13509,-257 13815,-257 13815,-182 13509,-182"/>
<text text-anchor="middle" x="13662" y="-241.8" font-family="Times,serif" font-size="14.00">clusterServerID_c437f7cecfb6</text>
</g>
<g id="clust7" class="cluster"><title>clusterServerID_e56b6537e2d5</title>
<polygon fill="none" stroke="black" points="12459,-95 12459,-257 13501,-257 13501,-95 12459,-95"/>
<text text-anchor="middle" x="12980" y="-241.8" font-family="Times,serif" font-size="14.00">clusterServerID_e56b6537e2d5</text>
</g>
<!-- 1_fwatchdog#ServerID_6df85d7674&#45;2kqrj -->
<g id="node1" class="node"><title>1_fwatchdog#ServerID_6df85d7674&#45;2kqrj</title>
<polygon fill="none" stroke="black" points="2561.5,-442 2240.5,-442 2240.5,-406 2561.5,-406 2561.5,-442"/>
<text text-anchor="middle" x="2401" y="-420.3" font-family="Times,serif" font-size="14.00">1_fwatchdog#ServerID_6df85d7674&#45;2kqrj</text>
</g>
<!-- 10.1.80.247:56536#ServerID_OuterContainerID -->
<g id="node2" class="node"><title>10.1.80.247:56536#ServerID_OuterContainerID</title>
<polygon fill="none" stroke="black" points="2402,-334 2066.52,-316 2402,-298 2737.48,-316 2402,-334"/>
<text text-anchor="middle" x="2402" y="-312.3" font-family="Times,serif" font-size="14.00">10.1.80.247:56536#ServerID_OuterContainerID</text>
</g>
<!-- 1_fwatchdog#ServerID_6df85d7674&#45;2kqrj&#45;&gt;10.1.80.247:56536#ServerID_OuterContainerID -->
<g id="edge1" class="edge"><title>1_fwatchdog#ServerID_6df85d7674&#45;2kqrj&#45;&gt;10.1.80.247:56536#ServerID_OuterContainerID</title>
<path fill="none" stroke="black" d="M2365.26,-405.861C2358.73,-401.032 2352.78,-395.108 2349,-388 2345.87,-382.115 2346.53,-379.194 2349,-373 2354,-360.439 2363.31,-349.073 2372.74,-339.914"/>
<polygon fill="black" stroke="black" points="2375.22,-342.386 2380.25,-333.061 2370.51,-337.214 2375.22,-342.386"/>
<text text-anchor="middle" x="2391" y="-376.8" font-family="Times,serif" font-size="14.00">RESPONSE</text>
</g>
<!-- gateway:8080#ServerID_OuterContainerID -->
<g id="node5" class="node"><title>gateway:8080#ServerID_OuterContainerID</title>
<polygon fill="none" stroke="black" points="5043,-334 4738.52,-316 5043,-298 5347.48,-316 5043,-334"/>
<text text-anchor="middle" x="5043" y="-312.3" font-family="Times,serif" font-size="14.00">gateway:8080#ServerID_OuterContainerID</text>
</g>
<!-- 1_fwatchdog#ServerID_6df85d7674&#45;2kqrj&#45;&gt;gateway:8080#ServerID_OuterContainerID -->
<g id="edge5" class="edge"><title>1_fwatchdog#ServerID_6df85d7674&#45;2kqrj&#45;&gt;gateway:8080#ServerID_OuterContainerID</title>
<path fill="none" stroke="black" d="M2561.68,-418.351C2888.82,-408.977 3655.81,-387.473 4300,-373 4395.55,-370.853 4634.78,-373.151 4730,-365 4810.85,-358.08 4902.52,-343.182 4965.66,-331.807"/>
<polygon fill="black" stroke="black" points="4966.33,-335.244 4975.54,-330.014 4965.08,-328.356 4966.33,-335.244"/>
<text text-anchor="middle" x="4320" y="-376.8" font-family="Times,serif" font-size="14.00">POST</text>
</g>
<!-- 10.1.80.247:8080#ServerID_OuterContainerID -->
<g id="node6" class="node"><title>10.1.80.247:8080#ServerID_OuterContainerID</title>
<polygon fill="none" stroke="black" points="343,-334 15.5599,-316 343,-298 670.44,-316 343,-334"/>
<text text-anchor="middle" x="343" y="-312.3" font-family="Times,serif" font-size="14.00">10.1.80.247:8080#ServerID_OuterContainerID</text>
</g>
<!-- 1_fwatchdog#ServerID_6df85d7674&#45;2kqrj&#45;&gt;10.1.80.247:8080#ServerID_OuterContainerID -->
<g id="edge6" class="edge"><title>1_fwatchdog#ServerID_6df85d7674&#45;2kqrj&#45;&gt;10.1.80.247:8080#ServerID_OuterContainerID</title>
<path fill="none" stroke="black" d="M2240.48,-423.574C1935.68,-423.337 1252.43,-416.454 680,-365 593.781,-357.25 495.896,-342.654 427.922,-331.583"/>
<polygon fill="black" stroke="black" points="428.13,-328.071 417.696,-329.908 426.999,-334.979 428.13,-328.071"/>
<text text-anchor="middle" x="981" y="-376.8" font-family="Times,serif" font-size="14.00">POST</text>
</g>
<!-- 10.1.80.247:56536#ServerID_OuterContainerID&#45;&gt;1_fwatchdog#ServerID_6df85d7674&#45;2kqrj -->
<g id="edge3" class="edge"><title>10.1.80.247:56536#ServerID_OuterContainerID&#45;&gt;1_fwatchdog#ServerID_6df85d7674&#45;2kqrj</title>
<path fill="none" stroke="black" d="M2417.08,-333.48C2428.24,-347.767 2440.35,-369.067 2433,-388 2431.64,-391.507 2429.74,-394.876 2427.55,-398.046"/>
<polygon fill="black" stroke="black" points="2424.75,-395.944 2421.2,-405.928 2430.2,-400.335 2424.75,-395.944"/>
<text text-anchor="middle" x="2456" y="-376.8" font-family="Times,serif" font-size="14.00">POST</text>
</g>
<!-- 1_fwatchdog#ServerID_34e86192c217 -->
<g id="node7" class="node"><title>1_fwatchdog#ServerID_34e86192c217</title>
<polygon fill="none" stroke="black" points="11363.5,-226 11064.5,-226 11064.5,-190 11363.5,-190 11363.5,-226"/>
<text text-anchor="middle" x="11214" y="-204.3" font-family="Times,serif" font-size="14.00">1_fwatchdog#ServerID_34e86192c217</text>
</g>
<!-- 10.1.80.247:56536#ServerID_OuterContainerID&#45;&gt;1_fwatchdog#ServerID_34e86192c217 -->
<g id="edge10" class="edge"><title>10.1.80.247:56536#ServerID_OuterContainerID&#45;&gt;1_fwatchdog#ServerID_34e86192c217</title>
<path fill="none" stroke="black" d="M2553.93,-306.117C2613.76,-302.978 2683.09,-299.787 2746,-298 4720.81,-241.898 5215.41,-274.38 7191,-265 7244.62,-264.745 10998.9,-264.752 11052,-257 11088.5,-251.662 11128.3,-239.969 11159.3,-229.46"/>
<polygon fill="black" stroke="black" points="11160.7,-232.67 11169,-226.099 11158.4,-226.053 11160.7,-232.67"/>
<text text-anchor="middle" x="7207.5" y="-268.8" font-family="Times,serif" font-size="14.00">read</text>
</g>
<!-- 10.1.80.247:58528#ServerID_OuterContainerID -->
<g id="node3" class="node"><title>10.1.80.247:58528#ServerID_OuterContainerID</title>
<polygon fill="none" stroke="black" points="1024,-334 688.515,-316 1024,-298 1359.48,-316 1024,-334"/>
<text text-anchor="middle" x="1024" y="-312.3" font-family="Times,serif" font-size="14.00">10.1.80.247:58528#ServerID_OuterContainerID</text>
</g>
<!-- 1_fwatchdog#ServerID_5f846fd567&#45;w7nbt -->
<g id="node4" class="node"><title>1_fwatchdog#ServerID_5f846fd567&#45;w7nbt</title>
<polygon fill="none" stroke="black" points="11040,-226 10716,-226 10716,-190 11040,-190 11040,-226"/>
<text text-anchor="middle" x="10878" y="-204.3" font-family="Times,serif" font-size="14.00">1_fwatchdog#ServerID_5f846fd567&#45;w7nbt</text>
</g>
<!-- 10.1.80.247:58528#ServerID_OuterContainerID&#45;&gt;1_fwatchdog#ServerID_5f846fd567&#45;w7nbt -->
<g id="edge2" class="edge"><title>10.1.80.247:58528#ServerID_OuterContainerID&#45;&gt;1_fwatchdog#ServerID_5f846fd567&#45;w7nbt</title>
<path fill="none" stroke="black" d="M1182.85,-306.512C1241.35,-303.559 1308.18,-300.392 1369,-298 1867.94,-278.378 1992.73,-272.577 2492,-265 2549.02,-264.135 10647.5,-264.679 10704,-257 10743.4,-251.642 10786.5,-239.792 10820,-229.207"/>
<polygon fill="black" stroke="black" points="10821.2,-232.51 10829.6,-226.117 10819,-225.846 10821.2,-232.51"/>
<text text-anchor="middle" x="2512" y="-268.8" font-family="Times,serif" font-size="14.00">POST</text>
</g>
<!-- 1_fwatchdog#ServerID_e56b6537e2d5 -->
<g id="node10" class="node"><title>1_fwatchdog#ServerID_e56b6537e2d5</title>
<polygon fill="none" stroke="black" points="13053.5,-226 12754.5,-226 12754.5,-190 13053.5,-190 13053.5,-226"/>
<text text-anchor="middle" x="12904" y="-204.3" font-family="Times,serif" font-size="14.00">1_fwatchdog#ServerID_e56b6537e2d5</text>
</g>
<!-- 10.1.80.247:58528#ServerID_OuterContainerID&#45;&gt;1_fwatchdog#ServerID_e56b6537e2d5 -->
<g id="edge29" class="edge"><title>10.1.80.247:58528#ServerID_OuterContainerID&#45;&gt;1_fwatchdog#ServerID_e56b6537e2d5</title>
<path fill="none" stroke="black" d="M1178.52,-306.271C1238.04,-303.202 1306.67,-300.018 1369,-298 1498.17,-293.819 2404.34,-300.114 2532,-280 2554.5,-276.455 2558.48,-268.379 2581,-265 2720.62,-244.052 12606.4,-277.799 12746,-257 12781.7,-251.684 12820.5,-239.99 12850.7,-229.476"/>
<polygon fill="black" stroke="black" points="12851.9,-232.752 12860.2,-226.114 12849.6,-226.153 12851.9,-232.752"/>
<text text-anchor="middle" x="2597.5" y="-268.8" font-family="Times,serif" font-size="14.00">read</text>
</g>
<!-- 1_fwatchdog#ServerID_5f846fd567&#45;w7nbt&#45;&gt;10.1.80.247:58528#ServerID_OuterContainerID -->
<g id="edge8" class="edge"><title>1_fwatchdog#ServerID_5f846fd567&#45;w7nbt&#45;&gt;10.1.80.247:58528#ServerID_OuterContainerID</title>
<path fill="none" stroke="black" d="M10829.6,-226.118C10795.1,-237.391 10747.3,-251.115 10704,-257 10642.5,-265.354 1830.02,-262.891 1768,-265 1552.67,-272.324 1302.88,-291.257 1154.43,-303.609"/>
<polygon fill="black" stroke="black" points="1154.04,-300.13 1144.36,-304.45 1154.62,-307.106 1154.04,-300.13"/>
<text text-anchor="middle" x="1810" y="-268.8" font-family="Times,serif" font-size="14.00">RESPONSE</text>
</g>
<!-- gateway:8080#ServerID_OuterContainerID&#45;&gt;1_fwatchdog#ServerID_6df85d7674&#45;2kqrj -->
<g id="edge4" class="edge"><title>gateway:8080#ServerID_OuterContainerID&#45;&gt;1_fwatchdog#ServerID_6df85d7674&#45;2kqrj</title>
<path fill="none" stroke="black" d="M4974.92,-329.994C4911.72,-341.447 4814.88,-357.451 4730,-365 4311.08,-402.258 3035.8,-417.258 2571.97,-421.576"/>
<polygon fill="black" stroke="black" points="2571.81,-418.077 2561.84,-421.669 2571.87,-425.077 2571.81,-418.077"/>
<text text-anchor="middle" x="4625" y="-376.8" font-family="Times,serif" font-size="14.00">RESPONSE</text>
</g>
<!-- 10.1.80.247:8080#ServerID_OuterContainerID&#45;&gt;1_fwatchdog#ServerID_6df85d7674&#45;2kqrj -->
<g id="edge7" class="edge"><title>10.1.80.247:8080#ServerID_OuterContainerID&#45;&gt;1_fwatchdog#ServerID_6df85d7674&#45;2kqrj</title>
<path fill="none" stroke="black" d="M416.349,-329.971C484.429,-341.408 588.715,-357.402 680,-365 823.99,-376.985 860.578,-368.636 1005,-373 1446.86,-386.351 1967.24,-406.039 2230.31,-416.271"/>
<polygon fill="black" stroke="black" points="2230.2,-419.769 2240.33,-416.661 2230.47,-412.774 2230.2,-419.769"/>
<text text-anchor="middle" x="1470" y="-376.8" font-family="Times,serif" font-size="14.00">RESPONSE</text>
</g>
<!-- 10.1.80.1:38890#ServerID_OuterContainerID -->
<g id="node31" class="node"><title>10.1.80.1:38890#ServerID_OuterContainerID</title>
<polygon fill="none" stroke="black" points="335,-226 16.1049,-208 335,-190 653.895,-208 335,-226"/>
<text text-anchor="middle" x="335" y="-204.3" font-family="Times,serif" font-size="14.00">10.1.80.1:38890#ServerID_OuterContainerID</text>
</g>
<!-- 10.1.80.247:8080#ServerID_OuterContainerID&#45;&gt;10.1.80.1:38890#ServerID_OuterContainerID -->
<g id="edge34" class="edge"><title>10.1.80.247:8080#ServerID_OuterContainerID&#45;&gt;10.1.80.1:38890#ServerID_OuterContainerID</title>
<path fill="none" stroke="black" d="M303.729,-299.98C295.466,-294.921 287.805,-288.366 283,-280 273.06,-262.694 286.802,-244.563 302.647,-230.955"/>
<polygon fill="black" stroke="black" points="304.885,-233.647 310.5,-224.662 300.508,-228.185 304.885,-233.647"/>
<text text-anchor="middle" x="325" y="-268.8" font-family="Times,serif" font-size="14.00">RESPONSE</text>
</g>
<!-- 10.0.88.125:31112#ServerID_OuterContainerID -->
<g id="node32" class="node"><title>10.0.88.125:31112#ServerID_OuterContainerID</title>
<polygon fill="none" stroke="black" points="1007,-226 671.515,-208 1007,-190 1342.48,-208 1007,-226"/>
<text text-anchor="middle" x="1007" y="-204.3" font-family="Times,serif" font-size="14.00">10.0.88.125:31112#ServerID_OuterContainerID</text>
</g>
<!-- 10.1.80.247:8080#ServerID_OuterContainerID&#45;&gt;10.0.88.125:31112#ServerID_OuterContainerID -->
<g id="edge35" class="edge"><title>10.1.80.247:8080#ServerID_OuterContainerID&#45;&gt;10.0.88.125:31112#ServerID_OuterContainerID</title>
<path fill="none" stroke="black" d="M422.434,-302.319C546.818,-282.463 786.788,-244.154 917.247,-223.328"/>
<polygon fill="black" stroke="black" points="917.893,-226.769 927.216,-221.737 916.789,-219.857 917.893,-226.769"/>
<text text-anchor="middle" x="698" y="-268.8" font-family="Times,serif" font-size="14.00">RESPONSE</text>
</g>
<!-- localhost:3000#ServerID_34e86192c217 -->
<g id="node8" class="node"><title>localhost:3000#ServerID_34e86192c217</title>
<polygon fill="none" stroke="black" points="11351,-139 11064.4,-121 11351,-103 11637.6,-121 11351,-139"/>
<text text-anchor="middle" x="11351" y="-117.3" font-family="Times,serif" font-size="14.00">localhost:3000#ServerID_34e86192c217</text>
</g>
<!-- 1_fwatchdog#ServerID_34e86192c217&#45;&gt;localhost:3000#ServerID_34e86192c217 -->
<g id="edge9" class="edge"><title>1_fwatchdog#ServerID_34e86192c217&#45;&gt;localhost:3000#ServerID_34e86192c217</title>
<path fill="none" stroke="black" d="M11241.7,-189.799C11263.6,-176.206 11294.3,-157.185 11317.6,-142.748"/>
<polygon fill="black" stroke="black" points="11319.4,-145.707 11326.1,-137.461 11315.7,-139.759 11319.4,-145.707"/>
<text text-anchor="middle" x="11310" y="-160.8" font-family="Times,serif" font-size="14.00">write</text>
</g>
<!-- 10.1.80.247:58498#ServerID_OuterContainerID -->
<g id="node9" class="node"><title>10.1.80.247:58498#ServerID_OuterContainerID</title>
<polygon fill="none" stroke="black" points="6356,-334 6020.52,-316 6356,-298 6691.48,-316 6356,-334"/>
<text text-anchor="middle" x="6356" y="-312.3" font-family="Times,serif" font-size="14.00">10.1.80.247:58498#ServerID_OuterContainerID</text>
</g>
<!-- 10.1.80.247:58498#ServerID_OuterContainerID&#45;&gt;1_fwatchdog#ServerID_e56b6537e2d5 -->
<g id="edge11" class="edge"><title>10.1.80.247:58498#ServerID_OuterContainerID&#45;&gt;1_fwatchdog#ServerID_e56b6537e2d5</title>
<path fill="none" stroke="black" d="M6506.66,-306.064C6567.05,-302.877 6637.31,-299.666 6701,-298 7028.06,-289.447 12264.2,-310.054 12590,-280 12626.9,-276.597 12635.3,-270.328 12672,-265 12704.7,-260.243 12713.6,-263.615 12746,-257 12779.8,-250.099 12816.8,-239.073 12846.4,-229.328"/>
<polygon fill="black" stroke="black" points="12847.8,-232.557 12856.2,-226.08 12845.6,-225.915 12847.8,-232.557"/>
<text text-anchor="middle" x="12688.5" y="-268.8" font-family="Times,serif" font-size="14.00">read</text>
</g>
<!-- localhost:3000#ServerID_e56b6537e2d5 -->
<g id="node21" class="node"><title>localhost:3000#ServerID_e56b6537e2d5</title>
<polygon fill="none" stroke="black" points="13206,-139 12919.4,-121 13206,-103 13492.6,-121 13206,-139"/>
<text text-anchor="middle" x="13206" y="-117.3" font-family="Times,serif" font-size="14.00">localhost:3000#ServerID_e56b6537e2d5</text>
</g>
<!-- 1_fwatchdog#ServerID_e56b6537e2d5&#45;&gt;localhost:3000#ServerID_e56b6537e2d5 -->
<g id="edge22" class="edge"><title>1_fwatchdog#ServerID_e56b6537e2d5&#45;&gt;localhost:3000#ServerID_e56b6537e2d5</title>
<path fill="none" stroke="black" d="M12933.1,-189.792C12952.8,-178.865 12979.7,-165.27 13005,-157 13035.2,-147.141 13068.8,-139.896 13099.8,-134.643"/>
<polygon fill="black" stroke="black" points="13100.5,-138.081 13109.8,-133.007 13099.4,-131.173 13100.5,-138.081"/>
<text text-anchor="middle" x="13034" y="-160.8" font-family="Times,serif" font-size="14.00">connect</text>
</g>
<!-- 1_fwatchdog#ServerID_e56b6537e2d5&#45;&gt;localhost:3000#ServerID_e56b6537e2d5 -->
<g id="edge24" class="edge"><title>1_fwatchdog#ServerID_e56b6537e2d5&#45;&gt;localhost:3000#ServerID_e56b6537e2d5</title>
<path fill="none" stroke="black" d="M12990.3,-189.975C13014,-184.764 13039.6,-178.636 13063,-172 13095.4,-162.815 13131.1,-150.325 13158.7,-140.127"/>
<polygon fill="black" stroke="black" points="13160,-143.389 13168.2,-136.624 13157.6,-136.828 13160,-143.389"/>
<text text-anchor="middle" x="13129" y="-160.8" font-family="Times,serif" font-size="14.00">write</text>
</g>
<!-- 10_node#ServerID_34e86192c217 -->
<g id="node11" class="node"><title>10_node#ServerID_34e86192c217</title>
<polygon fill="none" stroke="black" points="12151.5,-139 11884.5,-139 11884.5,-103 12151.5,-103 12151.5,-139"/>
<text text-anchor="middle" x="12018" y="-117.3" font-family="Times,serif" font-size="14.00">10_node#ServerID_34e86192c217</text>
</g>
<!-- 10_node#ServerID_34e86192c217&#45;&gt;gateway:8080#ServerID_OuterContainerID -->
<g id="edge18" class="edge"><title>10_node#ServerID_34e86192c217&#45;&gt;gateway:8080#ServerID_OuterContainerID</title>
<path fill="none" stroke="black" d="M12151.6,-131.43C12218.1,-137.317 12290.8,-145.898 12322,-157 12341.4,-163.911 12351.1,-163.935 12361,-182 12377,-211.247 12377.5,-228.056 12361,-257 12351,-274.473 12341.4,-274.677 12322,-280 12228.7,-305.593 5452.71,-295.251 5356,-298 5301.7,-299.544 5242.16,-302.468 5189.72,-305.462"/>
<polygon fill="black" stroke="black" points="5189.46,-301.971 5179.67,-306.041 5189.86,-308.96 5189.46,-301.971"/>
<text text-anchor="middle" x="12403" y="-204.3" font-family="Times,serif" font-size="14.00">connect</text>
</g>
<!-- pipe:[331683264]#ServerID_34e86192c217 -->
<g id="node12" class="node"><title>pipe:[331683264]#ServerID_34e86192c217</title>
<ellipse fill="none" stroke="black" cx="11953" cy="-34" rx="217.162" ry="18"/>
<text text-anchor="middle" x="11953" y="-30.3" font-family="Times,serif" font-size="14.00">pipe:[331683264]#ServerID_34e86192c217</text>
</g>
<!-- 10_node#ServerID_34e86192c217&#45;&gt;pipe:[331683264]#ServerID_34e86192c217 -->
<g id="edge12" class="edge"><title>10_node#ServerID_34e86192c217&#45;&gt;pipe:[331683264]#ServerID_34e86192c217</title>
<path fill="none" stroke="black" d="M12004.8,-102.799C11995.5,-90.5865 11982.8,-73.9921 11972.3,-60.2776"/>
<polygon fill="black" stroke="black" points="11975,-57.9929 11966.1,-52.1754 11969.4,-62.2451 11975,-57.9929"/>
<text text-anchor="middle" x="12009" y="-73.8" font-family="Times,serif" font-size="14.00">write</text>
</g>
<!-- 10.152.183.10:53#ServerID_OuterContainerID -->
<g id="node15" class="node"><title>10.152.183.10:53#ServerID_OuterContainerID</title>
<polygon fill="none" stroke="black" points="4394,-334 4066.56,-316 4394,-298 4721.44,-316 4394,-334"/>
<text text-anchor="middle" x="4394" y="-312.3" font-family="Times,serif" font-size="14.00">10.152.183.10:53#ServerID_OuterContainerID</text>
</g>
<!-- 10_node#ServerID_34e86192c217&#45;&gt;10.152.183.10:53#ServerID_OuterContainerID -->
<g id="edge15" class="edge"><title>10_node#ServerID_34e86192c217&#45;&gt;10.152.183.10:53#ServerID_OuterContainerID</title>
<path fill="none" stroke="black" d="M12151.7,-136.071C12206.9,-145.144 12261.5,-159.575 12276,-182 12294.1,-209.965 12294.6,-229.312 12276,-257 12261,-279.349 12246.4,-274.759 12220,-280 12118,-300.265 4833.99,-295.246 4730,-298 4671.48,-299.55 4607.27,-302.492 4550.81,-305.499"/>
<polygon fill="black" stroke="black" points="4550.52,-302.009 4540.73,-306.041 4550.9,-308.999 4550.52,-302.009"/>
<text text-anchor="middle" x="12314.5" y="-204.3" font-family="Times,serif" font-size="14.00">sendto</text>
</g>
<!-- /etc/hosts#ServerID_34e86192c217 -->
<g id="node13" class="node"><title>/etc/hosts#ServerID_34e86192c217</title>
<ellipse fill="none" stroke="black" cx="11562" cy="-208" rx="180.068" ry="18"/>
<text text-anchor="middle" x="11562" y="-204.3" font-family="Times,serif" font-size="14.00">/etc/hosts#ServerID_34e86192c217</text>
</g>
<!-- /etc/hosts#ServerID_34e86192c217&#45;&gt;10_node#ServerID_34e86192c217 -->
<g id="edge13" class="edge"><title>/etc/hosts#ServerID_34e86192c217&#45;&gt;10_node#ServerID_34e86192c217</title>
<path fill="none" stroke="black" d="M11643,-191.902C11719.5,-177.645 11834.4,-156.216 11916.9,-140.845"/>
<polygon fill="black" stroke="black" points="11917.6,-144.274 11926.8,-139.001 11916.3,-137.393 11917.6,-144.274"/>
<text text-anchor="middle" x="11834.5" y="-160.8" font-family="Times,serif" font-size="14.00">read</text>
</g>
<!-- /etc/resolv.conf#ServerID_34e86192c217 -->
<g id="node14" class="node"><title>/etc/resolv.conf#ServerID_34e86192c217</title>
<ellipse fill="none" stroke="black" cx="11965" cy="-208" rx="205.264" ry="18"/>
<text text-anchor="middle" x="11965" y="-204.3" font-family="Times,serif" font-size="14.00">/etc/resolv.conf#ServerID_34e86192c217</text>
</g>
<!-- /etc/resolv.conf#ServerID_34e86192c217&#45;&gt;10_node#ServerID_34e86192c217 -->
<g id="edge14" class="edge"><title>/etc/resolv.conf#ServerID_34e86192c217&#45;&gt;10_node#ServerID_34e86192c217</title>
<path fill="none" stroke="black" d="M11975.7,-189.799C11983.3,-177.702 11993.5,-161.305 12002,-147.667"/>
<polygon fill="black" stroke="black" points="12005,-149.513 12007.3,-139.175 11999,-145.809 12005,-149.513"/>
<text text-anchor="middle" x="12011.5" y="-160.8" font-family="Times,serif" font-size="14.00">read</text>
</g>
<!-- 10.152.183.10:53#ServerID_OuterContainerID&#45;&gt;10_node#ServerID_34e86192c217 -->
<g id="edge16" class="edge"><title>10.152.183.10:53#ServerID_OuterContainerID&#45;&gt;10_node#ServerID_34e86192c217</title>
<path fill="none" stroke="black" d="M4540.73,-306.056C4599.54,-302.868 4667.96,-299.658 4730,-298 6113.96,-261.011 9575.63,-295.059 10960,-280 11027.7,-279.263 12131.6,-305.345 12179,-257 12202.3,-233.208 12198,-209.378 12179,-182 12166.7,-164.339 12148.6,-151.867 12128.9,-143.062"/>
<polygon fill="black" stroke="black" points="12130,-139.734 12119.4,-139.148 12127.3,-146.203 12130,-139.734"/>
<text text-anchor="middle" x="12228" y="-204.3" font-family="Times,serif" font-size="14.00">recvfrom</text>
</g>
<!-- 10.1.80.1:57408#ServerID_OuterContainerID -->
<g id="node16" class="node"><title>10.1.80.1:57408#ServerID_OuterContainerID</title>
<polygon fill="none" stroke="black" points="3074,-334 2755.1,-316 3074,-298 3392.9,-316 3074,-334"/>
<text text-anchor="middle" x="3074" y="-312.3" font-family="Times,serif" font-size="14.00">10.1.80.1:57408#ServerID_OuterContainerID</text>
</g>
<!-- 10.1.80.1:57408#ServerID_OuterContainerID&#45;&gt;1_fwatchdog#ServerID_34e86192c217 -->
<g id="edge17" class="edge"><title>10.1.80.1:57408#ServerID_OuterContainerID&#45;&gt;1_fwatchdog#ServerID_34e86192c217</title>
<path fill="none" stroke="black" d="M3218.04,-306.086C3275.28,-302.923 3341.73,-299.723 3402,-298 3455.1,-296.482 10999.4,-264.766 11052,-257 11088.5,-251.602 11128.3,-239.908 11159.3,-229.413"/>
<polygon fill="black" stroke="black" points="11160.7,-232.624 11169,-226.058 11158.4,-226.006 11160.7,-232.624"/>
<text text-anchor="middle" x="10106.5" y="-268.8" font-family="Times,serif" font-size="14.00">read</text>
</g>
<!-- 10.1.80.247:58520#ServerID_OuterContainerID -->
<g id="node17" class="node"><title>10.1.80.247:58520#ServerID_OuterContainerID</title>
<polygon fill="none" stroke="black" points="7045,-334 6709.52,-316 7045,-298 7380.48,-316 7045,-334"/>
<text text-anchor="middle" x="7045" y="-312.3" font-family="Times,serif" font-size="14.00">10.1.80.247:58520#ServerID_OuterContainerID</text>
</g>
<!-- 10.1.80.247:58520#ServerID_OuterContainerID&#45;&gt;1_fwatchdog#ServerID_e56b6537e2d5 -->
<g id="edge19" class="edge"><title>10.1.80.247:58520#ServerID_OuterContainerID&#45;&gt;1_fwatchdog#ServerID_e56b6537e2d5</title>
<path fill="none" stroke="black" d="M7195.65,-306.052C7255.77,-302.874 7325.64,-299.672 7389,-298 7536.73,-294.102 12563.5,-305.916 12709,-280 12723.4,-277.442 12797.6,-249.715 12850.2,-229.682"/>
<polygon fill="black" stroke="black" points="12851.6,-232.873 12859.7,-226.039 12849.1,-226.333 12851.6,-232.873"/>
<text text-anchor="middle" x="12767.5" y="-268.8" font-family="Times,serif" font-size="14.00">read</text>
</g>
<!-- 10.1.80.1:42634#ServerID_OuterContainerID -->
<g id="node18" class="node"><title>10.1.80.1:42634#ServerID_OuterContainerID</title>
<polygon fill="none" stroke="black" points="7717,-334 7398.1,-316 7717,-298 8035.9,-316 7717,-334"/>
<text text-anchor="middle" x="7717" y="-312.3" font-family="Times,serif" font-size="14.00">10.1.80.1:42634#ServerID_OuterContainerID</text>
</g>
<!-- 10.1.80.1:42634#ServerID_OuterContainerID&#45;&gt;1_fwatchdog#ServerID_e56b6537e2d5 -->
<g id="edge20" class="edge"><title>10.1.80.1:42634#ServerID_OuterContainerID&#45;&gt;1_fwatchdog#ServerID_e56b6537e2d5</title>
<path fill="none" stroke="black" d="M7860.23,-306.082C7917.65,-302.898 7984.44,-299.683 8045,-298 8110.97,-296.166 12733.8,-299.177 12797,-280 12827.6,-270.72 12857.4,-249.591 12877.8,-232.782"/>
<polygon fill="black" stroke="black" points="12880.3,-235.257 12885.7,-226.122 12875.8,-229.916 12880.3,-235.257"/>
<text text-anchor="middle" x="12845.5" y="-268.8" font-family="Times,serif" font-size="14.00">read</text>
</g>
<!-- 10.1.80.1:56684#ServerID_OuterContainerID -->
<g id="node19" class="node"><title>10.1.80.1:56684#ServerID_OuterContainerID</title>
<polygon fill="none" stroke="black" points="9717,-334 9398.1,-316 9717,-298 10035.9,-316 9717,-334"/>
<text text-anchor="middle" x="9717" y="-312.3" font-family="Times,serif" font-size="14.00">10.1.80.1:56684#ServerID_OuterContainerID</text>
</g>
<!-- 1_fwatchdog#ServerID_c437f7cecfb6 -->
<g id="node20" class="node"><title>1_fwatchdog#ServerID_c437f7cecfb6</title>
<polygon fill="none" stroke="black" points="13807,-226 13517,-226 13517,-190 13807,-190 13807,-226"/>
<text text-anchor="middle" x="13662" y="-204.3" font-family="Times,serif" font-size="14.00">1_fwatchdog#ServerID_c437f7cecfb6</text>
</g>
<!-- 10.1.80.1:56684#ServerID_OuterContainerID&#45;&gt;1_fwatchdog#ServerID_c437f7cecfb6 -->
<g id="edge21" class="edge"><title>10.1.80.1:56684#ServerID_OuterContainerID&#45;&gt;1_fwatchdog#ServerID_c437f7cecfb6</title>
<path fill="none" stroke="black" d="M9861.04,-306.091C9918.28,-302.928 9984.73,-299.727 10045,-298 10408.3,-287.591 12953.3,-302.991 13316,-280 13400.5,-274.647 13422.2,-274.549 13505,-257 13538.4,-249.91 13575,-238.927 13604.4,-229.256"/>
<polygon fill="black" stroke="black" points="13605.7,-232.51 13614.1,-226.033 13603.5,-225.868 13605.7,-232.51"/>
<text text-anchor="middle" x="13477.5" y="-268.8" font-family="Times,serif" font-size="14.00">read</text>
</g>
<!-- localhost:3000#ServerID_e56b6537e2d5&#45;&gt;1_fwatchdog#ServerID_e56b6537e2d5 -->
<g id="edge27" class="edge"><title>localhost:3000#ServerID_e56b6537e2d5&#45;&gt;1_fwatchdog#ServerID_e56b6537e2d5</title>
<path fill="none" stroke="black" d="M13193.2,-138.283C13183.2,-149.681 13168.4,-164.214 13152,-172 13135,-180.073 13101.2,-186.687 13063.8,-191.906"/>
<polygon fill="black" stroke="black" points="13063.2,-188.461 13053.7,-193.271 13064.1,-195.398 13063.2,-188.461"/>
<text text-anchor="middle" x="13189.5" y="-160.8" font-family="Times,serif" font-size="14.00">read</text>
</g>
<!-- 10.1.80.1:56682#ServerID_OuterContainerID -->
<g id="node22" class="node"><title>10.1.80.1:56682#ServerID_OuterContainerID</title>
<polygon fill="none" stroke="black" points="9061,-334 8742.1,-316 9061,-298 9379.9,-316 9061,-334"/>
<text text-anchor="middle" x="9061" y="-312.3" font-family="Times,serif" font-size="14.00">10.1.80.1:56682#ServerID_OuterContainerID</text>
</g>
<!-- 10.1.80.1:56682#ServerID_OuterContainerID&#45;&gt;1_fwatchdog#ServerID_c437f7cecfb6 -->
<g id="edge23" class="edge"><title>10.1.80.1:56682#ServerID_OuterContainerID&#45;&gt;1_fwatchdog#ServerID_c437f7cecfb6</title>
<path fill="none" stroke="black" d="M9204.64,-306.1C9261.96,-302.929 9328.58,-299.719 9389,-298 10958.2,-253.362 11351.6,-316.864 12921,-280 13080.2,-276.26 13119.9,-271.15 13279,-265 13329.2,-263.059 13455.4,-265.306 13505,-257 13539.9,-251.159 13577.8,-239.717 13607.6,-229.469"/>
<polygon fill="black" stroke="black" points="13609.1,-232.65 13617.4,-226.049 13606.8,-226.042 13609.1,-232.65"/>
<text text-anchor="middle" x="13295.5" y="-268.8" font-family="Times,serif" font-size="14.00">read</text>
</g>
<!-- 10.1.80.247:58532#ServerID_OuterContainerID -->
<g id="node23" class="node"><title>10.1.80.247:58532#ServerID_OuterContainerID</title>
<polygon fill="none" stroke="black" points="8389,-334 8053.52,-316 8389,-298 8724.48,-316 8389,-334"/>
<text text-anchor="middle" x="8389" y="-312.3" font-family="Times,serif" font-size="14.00">10.1.80.247:58532#ServerID_OuterContainerID</text>
</g>
<!-- 10.1.80.247:58532#ServerID_OuterContainerID&#45;&gt;1_fwatchdog#ServerID_e56b6537e2d5 -->
<g id="edge25" class="edge"><title>10.1.80.247:58532#ServerID_OuterContainerID&#45;&gt;1_fwatchdog#ServerID_e56b6537e2d5</title>
<path fill="none" stroke="black" d="M8540.07,-306.061C8600.1,-302.895 8669.79,-299.699 8733,-298 8761.71,-297.228 12844.6,-295.222 12869,-280 12884.4,-270.381 12893.2,-251.79 12898.2,-236.044"/>
<polygon fill="black" stroke="black" points="12901.6,-236.802 12900.9,-226.231 12894.8,-234.937 12901.6,-236.802"/>
<text text-anchor="middle" x="12900.5" y="-268.8" font-family="Times,serif" font-size="14.00">read</text>
</g>
<!-- 10.1.80.1:42640#ServerID_OuterContainerID -->
<g id="node24" class="node"><title>10.1.80.1:42640#ServerID_OuterContainerID</title>
<polygon fill="none" stroke="black" points="5684,-334 5365.1,-316 5684,-298 6002.9,-316 5684,-334"/>
<text text-anchor="middle" x="5684" y="-312.3" font-family="Times,serif" font-size="14.00">10.1.80.1:42640#ServerID_OuterContainerID</text>
</g>
<!-- 10.1.80.1:42640#ServerID_OuterContainerID&#45;&gt;1_fwatchdog#ServerID_e56b6537e2d5 -->
<g id="edge26" class="edge"><title>10.1.80.1:42640#ServerID_OuterContainerID&#45;&gt;1_fwatchdog#ServerID_e56b6537e2d5</title>
<path fill="none" stroke="black" d="M5827.23,-306.052C5884.65,-302.863 5951.44,-299.654 6012,-298 6722.29,-278.605 11697.4,-317.356 12407,-280 12472.1,-276.571 12487.9,-269.686 12553,-265 12638.6,-258.832 12661.4,-271.371 12746,-257 12781.1,-251.046 12819.3,-239.588 12849.3,-229.361"/>
<polygon fill="black" stroke="black" points="12850.5,-232.667 12858.8,-226.092 12848.2,-226.051 12850.5,-232.667"/>
<text text-anchor="middle" x="12569.5" y="-268.8" font-family="Times,serif" font-size="14.00">read</text>
</g>
<!-- 10.1.80.1:57420#ServerID_OuterContainerID -->
<g id="node25" class="node"><title>10.1.80.1:57420#ServerID_OuterContainerID</title>
<polygon fill="none" stroke="black" points="3730,-334 3411.1,-316 3730,-298 4048.9,-316 3730,-334"/>
<text text-anchor="middle" x="3730" y="-312.3" font-family="Times,serif" font-size="14.00">10.1.80.1:57420#ServerID_OuterContainerID</text>
</g>
<!-- 10.1.80.1:57420#ServerID_OuterContainerID&#45;&gt;1_fwatchdog#ServerID_34e86192c217 -->
<g id="edge28" class="edge"><title>10.1.80.1:57420#ServerID_OuterContainerID&#45;&gt;1_fwatchdog#ServerID_34e86192c217</title>
<path fill="none" stroke="black" d="M3874.04,-306.102C3931.28,-302.941 3997.73,-299.738 4058,-298 4446.4,-286.802 10667.6,-313.897 11052,-257 11088.5,-251.593 11128.3,-239.898 11159.3,-229.406"/>
<polygon fill="black" stroke="black" points="11160.7,-232.617 11169,-226.052 11158.4,-225.999 11160.7,-232.617"/>
<text text-anchor="middle" x="10939.5" y="-268.8" font-family="Times,serif" font-size="14.00">read</text>
</g>
<!-- 10.1.80.1:58444#ServerID_OuterContainerID -->
<g id="node26" class="node"><title>10.1.80.1:58444#ServerID_OuterContainerID</title>
<polygon fill="none" stroke="black" points="10373,-334 10054.1,-316 10373,-298 10691.9,-316 10373,-334"/>
<text text-anchor="middle" x="10373" y="-312.3" font-family="Times,serif" font-size="14.00">10.1.80.1:58444#ServerID_OuterContainerID</text>
</g>
<!-- 1_fwatchdog#ServerID_90667071e782 -->
<g id="node27" class="node"><title>1_fwatchdog#ServerID_90667071e782</title>
<polygon fill="none" stroke="black" points="14130.5,-226 13831.5,-226 13831.5,-190 14130.5,-190 14130.5,-226"/>
<text text-anchor="middle" x="13981" y="-204.3" font-family="Times,serif" font-size="14.00">1_fwatchdog#ServerID_90667071e782</text>
</g>
<!-- 10.1.80.1:58444#ServerID_OuterContainerID&#45;&gt;1_fwatchdog#ServerID_90667071e782 -->
<g id="edge30" class="edge"><title>10.1.80.1:58444#ServerID_OuterContainerID&#45;&gt;1_fwatchdog#ServerID_90667071e782</title>
<path fill="none" stroke="black" d="M10663.3,-314.38C11335.2,-312.523 12981.5,-305.444 13535,-280 13661.5,-274.185 13694.5,-280.224 13819,-257 13854.3,-250.423 13892.8,-239.179 13923.4,-229.226"/>
<polygon fill="black" stroke="black" points="13924.7,-232.499 13933.1,-226.048 13922.5,-225.85 13924.7,-232.499"/>
<text text-anchor="middle" x="13787.5" y="-268.8" font-family="Times,serif" font-size="14.00">read</text>
</g>
<!-- 10.1.80.247:56602#ServerID_OuterContainerID -->
<g id="node28" class="node"><title>10.1.80.247:56602#ServerID_OuterContainerID</title>
<polygon fill="none" stroke="black" points="1713,-334 1377.52,-316 1713,-298 2048.48,-316 1713,-334"/>
<text text-anchor="middle" x="1713" y="-312.3" font-family="Times,serif" font-size="14.00">10.1.80.247:56602#ServerID_OuterContainerID</text>
</g>
<!-- 10.1.80.247:56602#ServerID_OuterContainerID&#45;&gt;1_fwatchdog#ServerID_34e86192c217 -->
<g id="edge31" class="edge"><title>10.1.80.247:56602#ServerID_OuterContainerID&#45;&gt;1_fwatchdog#ServerID_34e86192c217</title>
<path fill="none" stroke="black" d="M1870.11,-306.405C1929.03,-303.407 1996.57,-300.236 2058,-298 2680.87,-275.327 2836.76,-272.662 3460,-265 3512.72,-264.352 10999.8,-264.595 11052,-257 11088.5,-251.681 11128.3,-239.988 11159.3,-229.474"/>
<polygon fill="black" stroke="black" points="11160.7,-232.684 11169,-226.112 11158.5,-226.067 11160.7,-232.684"/>
<text text-anchor="middle" x="3476.5" y="-268.8" font-family="Times,serif" font-size="14.00">read</text>
</g>
<!-- 12_node#ServerID_e56b6537e2d5 -->
<g id="node29" class="node"><title>12_node#ServerID_e56b6537e2d5</title>
<polygon fill="none" stroke="black" points="12736.5,-226 12469.5,-226 12469.5,-190 12736.5,-190 12736.5,-226"/>
<text text-anchor="middle" x="12603" y="-204.3" font-family="Times,serif" font-size="14.00">12_node#ServerID_e56b6537e2d5</text>
</g>
<!-- pipe:[331682415]#ServerID_e56b6537e2d5 -->
<g id="node30" class="node"><title>pipe:[331682415]#ServerID_e56b6537e2d5</title>
<ellipse fill="none" stroke="black" cx="12684" cy="-121" rx="217.162" ry="18"/>
<text text-anchor="middle" x="12684" y="-117.3" font-family="Times,serif" font-size="14.00">pipe:[331682415]#ServerID_e56b6537e2d5</text>
</g>
<!-- 12_node#ServerID_e56b6537e2d5&#45;&gt;pipe:[331682415]#ServerID_e56b6537e2d5 -->
<g id="edge32" class="edge"><title>12_node#ServerID_e56b6537e2d5&#45;&gt;pipe:[331682415]#ServerID_e56b6537e2d5</title>
<path fill="none" stroke="black" d="M12619.4,-189.799C12631.2,-177.356 12647.4,-160.364 12660.6,-146.504"/>
<polygon fill="black" stroke="black" points="12663.3,-148.829 12667.6,-139.175 12658.2,-144 12663.3,-148.829"/>
<text text-anchor="middle" x="12668" y="-160.8" font-family="Times,serif" font-size="14.00">write</text>
</g>
<!-- 10.1.80.1:38890#ServerID_OuterContainerID&#45;&gt;10.1.80.247:8080#ServerID_OuterContainerID -->
<g id="edge33" class="edge"><title>10.1.80.1:38890#ServerID_OuterContainerID&#45;&gt;10.1.80.247:8080#ServerID_OuterContainerID</title>
<path fill="none" stroke="black" d="M349.13,-225.385C357.264,-235.931 366.701,-250.362 371,-265 372.879,-271.396 373.207,-273.709 371,-280 369.741,-283.589 367.942,-287.083 365.856,-290.388"/>
<polygon fill="black" stroke="black" points="362.908,-288.49 359.833,-298.629 368.559,-292.621 362.908,-288.49"/>
<text text-anchor="middle" x="393" y="-268.8" font-family="Times,serif" font-size="14.00">POST</text>
</g>
</g>
</svg>
