<?xml version="1.0" encoding="UTF-8" standalone="no"?>
<!DOCTYPE svg PUBLIC "-//W3C//DTD SVG 1.1//EN"
 "http://www.w3.org/Graphics/SVG/1.1/DTD/svg11.dtd">
<!-- Generated by graphviz version 2.38.0 (20140413.2041)
 -->
<!-- Title: G Pages: 1 -->
<svg width="6586pt" height="645pt"
 viewBox="0.00 0.00 6586.00 645.00" xmlns="http://www.w3.org/2000/svg" xmlns:xlink="http://www.w3.org/1999/xlink">
<g id="graph0" class="graph" transform="scale(1 1) rotate(0) translate(4 641)">
<title>G</title>
<polygon fill="white" stroke="none" points="-4,4 -4,-641 6582,-641 6582,4 -4,4"/>
<g id="clust1" class="cluster"><title>clusterServerID_34e86192c217</title>
<polygon fill="none" stroke="black" points="5448,-182 5448,-498 6570,-498 6570,-182 5448,-182"/>
<text text-anchor="middle" x="6009" y="-482.8" font-family="Times,serif" font-size="14.00">clusterServerID_34e86192c217</text>
</g>
<g id="clust2" class="cluster"><title>clusterServerID_5f846fd567&#45;w7nbt</title>
<polygon fill="none" stroke="black" points="853,-531 853,-629 1193,-629 1193,-531 853,-531"/>
<text text-anchor="middle" x="1023" y="-613.8" font-family="Times,serif" font-size="14.00">clusterServerID_5f846fd567&#45;w7nbt</text>
</g>
<g id="clust3" class="cluster"><title>clusterServerID_6df85d7674&#45;2kqrj</title>
<polygon fill="none" stroke="black" points="5102,-269 5102,-367 5440,-367 5440,-269 5102,-269"/>
<text text-anchor="middle" x="5271" y="-351.8" font-family="Times,serif" font-size="14.00">clusterServerID_6df85d7674&#45;2kqrj</text>
</g>
<g id="clust4" class="cluster"><title>clusterServerID_OuterContainerID</title>
<polygon fill="none" stroke="black" points="8,-269 8,-498 4044,-498 4044,-269 8,-269"/>
<text text-anchor="middle" x="2026" y="-482.8" font-family="Times,serif" font-size="14.00">clusterServerID_OuterContainerID</text>
</g>
<g id="clust5" class="cluster"><title>clusterServerID_e56b6537e2d5</title>
<polygon fill="none" stroke="black" points="4052,-8 4052,-367 5094,-367 5094,-8 4052,-8"/>
<text text-anchor="middle" x="4573" y="-351.8" font-family="Times,serif" font-size="14.00">clusterServerID_e56b6537e2d5</text>
</g>
<!-- 1_fwatchdog#ServerID_5f846fd567&#45;w7nbt -->
<g id="node1" class="node"><title>1_fwatchdog#ServerID_5f846fd567&#45;w7nbt</title>
<polygon fill="none" stroke="black" points="1185,-575 861,-575 861,-539 1185,-539 1185,-575"/>
<text text-anchor="middle" x="1023" y="-553.3" font-family="Times,serif" font-size="14.00">1_fwatchdog#ServerID_5f846fd567&#45;w7nbt</text>
</g>
<!-- 10.1.80.247:58472#ServerID_OuterContainerID -->
<g id="node2" class="node"><title>10.1.80.247:58472#ServerID_OuterContainerID</title>
<polygon fill="none" stroke="black" points="1024,-444 688.515,-426 1024,-408 1359.48,-426 1024,-444"/>
<text text-anchor="middle" x="1024" y="-422.3" font-family="Times,serif" font-size="14.00">10.1.80.247:58472#ServerID_OuterContainerID</text>
</g>
<!-- 1_fwatchdog#ServerID_5f846fd567&#45;w7nbt&#45;&gt;10.1.80.247:58472#ServerID_OuterContainerID -->
<g id="edge1" class="edge"><title>1_fwatchdog#ServerID_5f846fd567&#45;w7nbt&#45;&gt;10.1.80.247:58472#ServerID_OuterContainerID</title>
<path fill="none" stroke="black" d="M987.261,-538.861C980.725,-534.032 974.784,-528.108 971,-521 967.867,-515.115 969.059,-512.378 971,-506 977.151,-485.792 990.385,-466.057 1002.09,-451.367"/>
<polygon fill="black" stroke="black" points="1005.06,-453.27 1008.74,-443.335 999.665,-448.806 1005.06,-453.27"/>
<text text-anchor="middle" x="1013" y="-509.8" font-family="Times,serif" font-size="14.00">RESPONSE</text>
</g>
<!-- 10.1.80.247:58472#ServerID_OuterContainerID&#45;&gt;1_fwatchdog#ServerID_5f846fd567&#45;w7nbt -->
<g id="edge4" class="edge"><title>10.1.80.247:58472#ServerID_OuterContainerID&#45;&gt;1_fwatchdog#ServerID_5f846fd567&#45;w7nbt</title>
<path fill="none" stroke="black" d="M1036.4,-443.484C1049.03,-462.397 1065.39,-494.248 1055,-521 1053.64,-524.507 1051.74,-527.876 1049.55,-531.046"/>
<polygon fill="black" stroke="black" points="1046.75,-528.944 1043.2,-538.928 1052.2,-533.335 1046.75,-528.944"/>
<text text-anchor="middle" x="1079" y="-509.8" font-family="Times,serif" font-size="14.00">POST</text>
</g>
<!-- 1_fwatchdog#ServerID_e56b6537e2d5 -->
<g id="node15" class="node"><title>1_fwatchdog#ServerID_e56b6537e2d5</title>
<polygon fill="none" stroke="black" points="4426.5,-313 4127.5,-313 4127.5,-277 4426.5,-277 4426.5,-313"/>
<text text-anchor="middle" x="4277" y="-291.3" font-family="Times,serif" font-size="14.00">1_fwatchdog#ServerID_e56b6537e2d5</text>
</g>
<!-- 10.1.80.247:58472#ServerID_OuterContainerID&#45;&gt;1_fwatchdog#ServerID_e56b6537e2d5 -->
<g id="edge17" class="edge"><title>10.1.80.247:58472#ServerID_OuterContainerID&#45;&gt;1_fwatchdog#ServerID_e56b6537e2d5</title>
<path fill="none" stroke="black" d="M1185.89,-416.666C1243.67,-413.786 1309.24,-410.626 1369,-408 1748.92,-391.308 1843.8,-383.168 2224,-375 2274.66,-373.912 3997.92,-374.698 4048,-367 4110.8,-357.347 4180.12,-333.963 4225.87,-316.655"/>
<polygon fill="black" stroke="black" points="4227.17,-319.903 4235.26,-313.06 4224.67,-313.366 4227.17,-319.903"/>
<text text-anchor="middle" x="2240.5" y="-378.8" font-family="Times,serif" font-size="14.00">read</text>
</g>
<!-- 1_fwatchdog#ServerID_6df85d7674&#45;2kqrj -->
<g id="node3" class="node"><title>1_fwatchdog#ServerID_6df85d7674&#45;2kqrj</title>
<polygon fill="none" stroke="black" points="5431.5,-313 5110.5,-313 5110.5,-277 5431.5,-277 5431.5,-313"/>
<text text-anchor="middle" x="5271" y="-291.3" font-family="Times,serif" font-size="14.00">1_fwatchdog#ServerID_6df85d7674&#45;2kqrj</text>
</g>
<!-- 10.1.80.247:8080#ServerID_OuterContainerID -->
<g id="node4" class="node"><title>10.1.80.247:8080#ServerID_OuterContainerID</title>
<polygon fill="none" stroke="black" points="343,-444 15.5599,-426 343,-408 670.44,-426 343,-444"/>
<text text-anchor="middle" x="343" y="-422.3" font-family="Times,serif" font-size="14.00">10.1.80.247:8080#ServerID_OuterContainerID</text>
</g>
<!-- 1_fwatchdog#ServerID_6df85d7674&#45;2kqrj&#45;&gt;10.1.80.247:8080#ServerID_OuterContainerID -->
<g id="edge2" class="edge"><title>1_fwatchdog#ServerID_6df85d7674&#45;2kqrj&#45;&gt;10.1.80.247:8080#ServerID_OuterContainerID</title>
<path fill="none" stroke="black" d="M5239.96,-313.063C5206.19,-330.572 5150.07,-356.667 5098,-367 5052.04,-376.122 1770.85,-374.204 1724,-375 1259.84,-382.885 1143.84,-388.972 680,-408 624.209,-410.289 563.244,-413.23 508.693,-416.02"/>
<polygon fill="black" stroke="black" points="508.392,-412.531 498.585,-416.539 508.751,-419.522 508.392,-412.531"/>
<text text-anchor="middle" x="1744" y="-378.8" font-family="Times,serif" font-size="14.00">POST</text>
</g>
<!-- 10.1.80.247:56388#ServerID_OuterContainerID -->
<g id="node5" class="node"><title>10.1.80.247:56388#ServerID_OuterContainerID</title>
<polygon fill="none" stroke="black" points="2402,-444 2066.52,-426 2402,-408 2737.48,-426 2402,-444"/>
<text text-anchor="middle" x="2402" y="-422.3" font-family="Times,serif" font-size="14.00">10.1.80.247:56388#ServerID_OuterContainerID</text>
</g>
<!-- 1_fwatchdog#ServerID_6df85d7674&#45;2kqrj&#45;&gt;10.1.80.247:56388#ServerID_OuterContainerID -->
<g id="edge6" class="edge"><title>1_fwatchdog#ServerID_6df85d7674&#45;2kqrj&#45;&gt;10.1.80.247:56388#ServerID_OuterContainerID</title>
<path fill="none" stroke="black" d="M5239.95,-313.051C5206.19,-330.549 5150.06,-356.636 5098,-367 5037.11,-379.122 2924.99,-371.537 2863,-375 2737.36,-382.019 2593.29,-399.106 2500.13,-411.351"/>
<polygon fill="black" stroke="black" points="2499.61,-407.889 2490.15,-412.669 2500.52,-414.829 2499.61,-407.889"/>
<text text-anchor="middle" x="2905" y="-378.8" font-family="Times,serif" font-size="14.00">RESPONSE</text>
</g>
<!-- gateway:8080#ServerID_OuterContainerID -->
<g id="node6" class="node"><title>gateway:8080#ServerID_OuterContainerID</title>
<polygon fill="none" stroke="black" points="3060,-444 2755.52,-426 3060,-408 3364.48,-426 3060,-444"/>
<text text-anchor="middle" x="3060" y="-422.3" font-family="Times,serif" font-size="14.00">gateway:8080#ServerID_OuterContainerID</text>
</g>
<!-- 1_fwatchdog#ServerID_6df85d7674&#45;2kqrj&#45;&gt;gateway:8080#ServerID_OuterContainerID -->
<g id="edge7" class="edge"><title>1_fwatchdog#ServerID_6df85d7674&#45;2kqrj&#45;&gt;gateway:8080#ServerID_OuterContainerID</title>
<path fill="none" stroke="black" d="M5239.95,-313.036C5206.18,-330.522 5150.05,-356.598 5098,-367 5054.8,-375.634 3555.98,-372.463 3512,-375 3388.17,-382.142 3246.09,-399.35 3154.8,-411.578"/>
<polygon fill="black" stroke="black" points="3154.19,-408.128 3144.75,-412.932 3155.13,-415.066 3154.19,-408.128"/>
<text text-anchor="middle" x="3532" y="-378.8" font-family="Times,serif" font-size="14.00">POST</text>
</g>
<!-- 10.1.80.247:8080#ServerID_OuterContainerID&#45;&gt;1_fwatchdog#ServerID_6df85d7674&#45;2kqrj -->
<g id="edge8" class="edge"><title>10.1.80.247:8080#ServerID_OuterContainerID&#45;&gt;1_fwatchdog#ServerID_6df85d7674&#45;2kqrj</title>
<path fill="none" stroke="black" d="M478.769,-415.44C578.013,-408.437 715.865,-398.68 837,-390 929.005,-383.407 951.822,-378.426 1044,-375 1100.27,-372.908 5042.77,-377.949 5098,-367 5145.59,-357.565 5196.58,-334.949 5230.77,-317.757"/>
<polygon fill="black" stroke="black" points="5232.64,-320.732 5239.96,-313.067 5229.46,-314.498 5232.64,-320.732"/>
<text text-anchor="middle" x="1086" y="-378.8" font-family="Times,serif" font-size="14.00">RESPONSE</text>
</g>
<!-- 10.1.80.1:13508#ServerID_OuterContainerID -->
<g id="node20" class="node"><title>10.1.80.1:13508#ServerID_OuterContainerID</title>
<polygon fill="none" stroke="black" points="1023,-313 704.105,-295 1023,-277 1341.9,-295 1023,-313"/>
<text text-anchor="middle" x="1023" y="-291.3" font-family="Times,serif" font-size="14.00">10.1.80.1:13508#ServerID_OuterContainerID</text>
</g>
<!-- 10.1.80.247:8080#ServerID_OuterContainerID&#45;&gt;10.1.80.1:13508#ServerID_OuterContainerID -->
<g id="edge24" class="edge"><title>10.1.80.247:8080#ServerID_OuterContainerID&#45;&gt;10.1.80.1:13508#ServerID_OuterContainerID</title>
<path fill="none" stroke="black" d="M426.063,-412.51C497.522,-401.479 603.282,-384.472 695,-367 784.825,-349.889 887.79,-327.073 954.024,-311.979"/>
<polygon fill="black" stroke="black" points="954.957,-315.356 963.927,-309.717 953.399,-308.531 954.957,-315.356"/>
<text text-anchor="middle" x="690" y="-378.8" font-family="Times,serif" font-size="14.00">RESPONSE</text>
</g>
<!-- 10.0.88.125:31112#ServerID_OuterContainerID -->
<g id="node21" class="node"><title>10.0.88.125:31112#ServerID_OuterContainerID</title>
<polygon fill="none" stroke="black" points="351,-313 15.5152,-295 351,-277 686.485,-295 351,-313"/>
<text text-anchor="middle" x="351" y="-291.3" font-family="Times,serif" font-size="14.00">10.0.88.125:31112#ServerID_OuterContainerID</text>
</g>
<!-- 10.1.80.247:8080#ServerID_OuterContainerID&#45;&gt;10.0.88.125:31112#ServerID_OuterContainerID -->
<g id="edge26" class="edge"><title>10.1.80.247:8080#ServerID_OuterContainerID&#45;&gt;10.0.88.125:31112#ServerID_OuterContainerID</title>
<path fill="none" stroke="black" d="M344.062,-407.87C345.401,-386.281 347.719,-348.912 349.304,-323.352"/>
<polygon fill="black" stroke="black" points="352.807,-323.399 349.933,-313.201 345.821,-322.965 352.807,-323.399"/>
<text text-anchor="middle" x="389" y="-378.8" font-family="Times,serif" font-size="14.00">RESPONSE</text>
</g>
<!-- 10.1.80.247:56388#ServerID_OuterContainerID&#45;&gt;1_fwatchdog#ServerID_6df85d7674&#45;2kqrj -->
<g id="edge3" class="edge"><title>10.1.80.247:56388#ServerID_OuterContainerID&#45;&gt;1_fwatchdog#ServerID_6df85d7674&#45;2kqrj</title>
<path fill="none" stroke="black" d="M2537.16,-415.249C2711.82,-403.148 3025.4,-383.118 3294,-375 3344.09,-373.486 5048.86,-376.805 5098,-367 5145.58,-357.506 5196.57,-334.9 5230.77,-317.726"/>
<polygon fill="black" stroke="black" points="5232.63,-320.704 5239.95,-313.042 5229.45,-314.468 5232.63,-320.704"/>
<text text-anchor="middle" x="3314" y="-378.8" font-family="Times,serif" font-size="14.00">POST</text>
</g>
<!-- 1_fwatchdog#ServerID_34e86192c217 -->
<g id="node7" class="node"><title>1_fwatchdog#ServerID_34e86192c217</title>
<polygon fill="none" stroke="black" points="6561.5,-444 6262.5,-444 6262.5,-408 6561.5,-408 6561.5,-444"/>
<text text-anchor="middle" x="6412" y="-422.3" font-family="Times,serif" font-size="14.00">1_fwatchdog#ServerID_34e86192c217</text>
</g>
<!-- 10.1.80.247:56388#ServerID_OuterContainerID&#45;&gt;1_fwatchdog#ServerID_34e86192c217 -->
<g id="edge10" class="edge"><title>10.1.80.247:56388#ServerID_OuterContainerID&#45;&gt;1_fwatchdog#ServerID_34e86192c217</title>
<path fill="none" stroke="black" d="M2456.72,-441.066C2524.3,-458.823 2643.08,-487.271 2747,-498 2843.87,-508.001 6157.8,-518.549 6253,-498 6296.4,-488.631 6342.21,-466.397 6373.46,-449.096"/>
<polygon fill="black" stroke="black" points="6375.27,-452.091 6382.26,-444.134 6371.83,-445.992 6375.27,-452.091"/>
<text text-anchor="middle" x="4499" y="-509.8" font-family="Times,serif" font-size="14.00">read</text>
</g>
<!-- gateway:8080#ServerID_OuterContainerID&#45;&gt;1_fwatchdog#ServerID_6df85d7674&#45;2kqrj -->
<g id="edge5" class="edge"><title>gateway:8080#ServerID_OuterContainerID&#45;&gt;1_fwatchdog#ServerID_6df85d7674&#45;2kqrj</title>
<path fill="none" stroke="black" d="M3182.79,-415.258C3340.73,-403.216 3623.6,-383.299 3866,-375 3900.2,-373.829 5064.45,-373.731 5098,-367 5145.57,-357.457 5196.56,-334.859 5230.76,-317.701"/>
<polygon fill="black" stroke="black" points="5232.63,-320.679 5239.95,-313.021 5229.45,-314.442 5232.63,-320.679"/>
<text text-anchor="middle" x="3908" y="-378.8" font-family="Times,serif" font-size="14.00">RESPONSE</text>
</g>
<!-- localhost:3000#ServerID_34e86192c217 -->
<g id="node8" class="node"><title>localhost:3000#ServerID_34e86192c217</title>
<polygon fill="none" stroke="black" points="6275,-313 5988.45,-295 6275,-277 6561.55,-295 6275,-313"/>
<text text-anchor="middle" x="6275" y="-291.3" font-family="Times,serif" font-size="14.00">localhost:3000#ServerID_34e86192c217</text>
</g>
<!-- 1_fwatchdog#ServerID_34e86192c217&#45;&gt;localhost:3000#ServerID_34e86192c217 -->
<g id="edge9" class="edge"><title>1_fwatchdog#ServerID_34e86192c217&#45;&gt;localhost:3000#ServerID_34e86192c217</title>
<path fill="none" stroke="black" d="M6393.81,-407.87C6369.56,-385.039 6326.57,-344.562 6299.49,-319.064"/>
<polygon fill="black" stroke="black" points="6301.65,-316.29 6291.97,-311.983 6296.86,-321.386 6301.65,-316.29"/>
<text text-anchor="middle" x="6390" y="-378.8" font-family="Times,serif" font-size="14.00">write</text>
</g>
<!-- 10_node#ServerID_34e86192c217 -->
<g id="node9" class="node"><title>10_node#ServerID_34e86192c217</title>
<polygon fill="none" stroke="black" points="5741.5,-313 5474.5,-313 5474.5,-277 5741.5,-277 5741.5,-313"/>
<text text-anchor="middle" x="5608" y="-291.3" font-family="Times,serif" font-size="14.00">10_node#ServerID_34e86192c217</text>
</g>
<!-- 10_node#ServerID_34e86192c217&#45;&gt;gateway:8080#ServerID_OuterContainerID -->
<g id="edge19" class="edge"><title>10_node#ServerID_34e86192c217&#45;&gt;gateway:8080#ServerID_OuterContainerID</title>
<path fill="none" stroke="black" d="M5578.38,-313.144C5546.43,-330.584 5493.47,-356.497 5444,-367 5399.92,-376.358 4678.05,-374.188 4633,-375 4352.95,-380.048 3652.87,-396.737 3373,-408 3320.75,-410.103 3263.62,-413.022 3212.64,-415.849"/>
<polygon fill="black" stroke="black" points="3212.32,-412.361 3202.53,-416.413 3212.71,-419.351 3212.32,-412.361"/>
<text text-anchor="middle" x="4662" y="-378.8" font-family="Times,serif" font-size="14.00">connect</text>
</g>
<!-- pipe:[331683264]#ServerID_34e86192c217 -->
<g id="node10" class="node"><title>pipe:[331683264]#ServerID_34e86192c217</title>
<ellipse fill="none" stroke="black" cx="5673" cy="-208" rx="217.162" ry="18"/>
<text text-anchor="middle" x="5673" y="-204.3" font-family="Times,serif" font-size="14.00">pipe:[331683264]#ServerID_34e86192c217</text>
</g>
<!-- 10_node#ServerID_34e86192c217&#45;&gt;pipe:[331683264]#ServerID_34e86192c217 -->
<g id="edge11" class="edge"><title>10_node#ServerID_34e86192c217&#45;&gt;pipe:[331683264]#ServerID_34e86192c217</title>
<path fill="none" stroke="black" d="M5621.15,-276.799C5630.49,-264.587 5643.18,-247.992 5653.67,-234.278"/>
<polygon fill="black" stroke="black" points="5656.57,-236.245 5659.87,-226.175 5651.01,-231.993 5656.57,-236.245"/>
<text text-anchor="middle" x="5663" y="-247.8" font-family="Times,serif" font-size="14.00">write</text>
</g>
<!-- 10.152.183.10:53#ServerID_OuterContainerID -->
<g id="node13" class="node"><title>10.152.183.10:53#ServerID_OuterContainerID</title>
<polygon fill="none" stroke="black" points="3709,-444 3381.56,-426 3709,-408 4036.44,-426 3709,-444"/>
<text text-anchor="middle" x="3709" y="-422.3" font-family="Times,serif" font-size="14.00">10.152.183.10:53#ServerID_OuterContainerID</text>
</g>
<!-- 10_node#ServerID_34e86192c217&#45;&gt;10.152.183.10:53#ServerID_OuterContainerID -->
<g id="edge14" class="edge"><title>10_node#ServerID_34e86192c217&#45;&gt;10.152.183.10:53#ServerID_OuterContainerID</title>
<path fill="none" stroke="black" d="M5578.04,-313.072C5546.01,-330.32 5493.19,-355.949 5444,-367 5304.61,-398.316 4419.85,-415.061 3970.37,-421.64"/>
<polygon fill="black" stroke="black" points="3970.11,-418.143 3960.16,-421.789 3970.21,-425.142 3970.11,-418.143"/>
<text text-anchor="middle" x="5399.5" y="-378.8" font-family="Times,serif" font-size="14.00">sendto</text>
</g>
<!-- /etc/hosts#ServerID_34e86192c217 -->
<g id="node11" class="node"><title>/etc/hosts#ServerID_34e86192c217</title>
<ellipse fill="none" stroke="black" cx="6064" cy="-426" rx="180.068" ry="18"/>
<text text-anchor="middle" x="6064" y="-422.3" font-family="Times,serif" font-size="14.00">/etc/hosts#ServerID_34e86192c217</text>
</g>
<!-- /etc/hosts#ServerID_34e86192c217&#45;&gt;10_node#ServerID_34e86192c217 -->
<g id="edge12" class="edge"><title>/etc/hosts#ServerID_34e86192c217&#45;&gt;10_node#ServerID_34e86192c217</title>
<path fill="none" stroke="black" d="M6006.71,-408.793C5923.25,-385.181 5768.37,-341.368 5678.18,-315.853"/>
<polygon fill="black" stroke="black" points="5678.89,-312.417 5668.32,-313.063 5676.99,-319.153 5678.89,-312.417"/>
<text text-anchor="middle" x="5945.5" y="-378.8" font-family="Times,serif" font-size="14.00">read</text>
</g>
<!-- /etc/resolv.conf#ServerID_34e86192c217 -->
<g id="node12" class="node"><title>/etc/resolv.conf#ServerID_34e86192c217</title>
<ellipse fill="none" stroke="black" cx="5661" cy="-426" rx="205.264" ry="18"/>
<text text-anchor="middle" x="5661" y="-422.3" font-family="Times,serif" font-size="14.00">/etc/resolv.conf#ServerID_34e86192c217</text>
</g>
<!-- /etc/resolv.conf#ServerID_34e86192c217&#45;&gt;10_node#ServerID_34e86192c217 -->
<g id="edge13" class="edge"><title>/etc/resolv.conf#ServerID_34e86192c217&#45;&gt;10_node#ServerID_34e86192c217</title>
<path fill="none" stroke="black" d="M5653.96,-407.87C5645.01,-386.088 5629.46,-348.244 5618.96,-322.67"/>
<polygon fill="black" stroke="black" points="5622.1,-321.121 5615.07,-313.201 5615.63,-323.781 5622.1,-321.121"/>
<text text-anchor="middle" x="5661.5" y="-378.8" font-family="Times,serif" font-size="14.00">read</text>
</g>
<!-- 10.152.183.10:53#ServerID_OuterContainerID&#45;&gt;10_node#ServerID_34e86192c217 -->
<g id="edge15" class="edge"><title>10.152.183.10:53#ServerID_OuterContainerID&#45;&gt;10_node#ServerID_34e86192c217</title>
<path fill="none" stroke="black" d="M3890.49,-417.966C4159.41,-407.683 4679.59,-388.323 5122,-375 5157.77,-373.923 5409.05,-374.695 5444,-367 5488.81,-357.134 5536.59,-334.969 5568.94,-318.01"/>
<polygon fill="black" stroke="black" points="5570.87,-320.947 5578.05,-313.157 5567.58,-314.768 5570.87,-320.947"/>
<text text-anchor="middle" x="5155" y="-378.8" font-family="Times,serif" font-size="14.00">recvfrom</text>
</g>
<!-- 10.1.80.247:58442#ServerID_OuterContainerID -->
<g id="node14" class="node"><title>10.1.80.247:58442#ServerID_OuterContainerID</title>
<polygon fill="none" stroke="black" points="1713,-444 1377.52,-426 1713,-408 2048.48,-426 1713,-444"/>
<text text-anchor="middle" x="1713" y="-422.3" font-family="Times,serif" font-size="14.00">10.1.80.247:58442#ServerID_OuterContainerID</text>
</g>
<!-- 10.1.80.247:58442#ServerID_OuterContainerID&#45;&gt;1_fwatchdog#ServerID_e56b6537e2d5 -->
<g id="edge16" class="edge"><title>10.1.80.247:58442#ServerID_OuterContainerID&#45;&gt;1_fwatchdog#ServerID_e56b6537e2d5</title>
<path fill="none" stroke="black" d="M1848.76,-415.243C2023.38,-403.186 2336.1,-383.254 2604,-375 2684.19,-372.53 3968.71,-379.234 4048,-367 4110.79,-357.311 4180.12,-333.934 4225.86,-316.637"/>
<polygon fill="black" stroke="black" points="4227.17,-319.886 4235.26,-313.045 4224.67,-313.348 4227.17,-319.886"/>
<text text-anchor="middle" x="2620.5" y="-378.8" font-family="Times,serif" font-size="14.00">read</text>
</g>
<!-- localhost:3000#ServerID_e56b6537e2d5 -->
<g id="node16" class="node"><title>localhost:3000#ServerID_e56b6537e2d5</title>
<polygon fill="none" stroke="black" points="4799,-226 4512.45,-208 4799,-190 5085.55,-208 4799,-226"/>
<text text-anchor="middle" x="4799" y="-204.3" font-family="Times,serif" font-size="14.00">localhost:3000#ServerID_e56b6537e2d5</text>
</g>
<!-- 1_fwatchdog#ServerID_e56b6537e2d5&#45;&gt;localhost:3000#ServerID_e56b6537e2d5 -->
<g id="edge18" class="edge"><title>1_fwatchdog#ServerID_e56b6537e2d5&#45;&gt;localhost:3000#ServerID_e56b6537e2d5</title>
<path fill="none" stroke="black" d="M4381.69,-276.952C4479.23,-261.07 4622.87,-237.68 4713.64,-222.9"/>
<polygon fill="black" stroke="black" points="4714.31,-226.337 4723.62,-221.275 4713.18,-219.428 4714.31,-226.337"/>
<text text-anchor="middle" x="4589" y="-247.8" font-family="Times,serif" font-size="14.00">write</text>
</g>
<!-- pipe:[331682317]#ServerID_e56b6537e2d5 -->
<g id="node19" class="node"><title>pipe:[331682317]#ServerID_e56b6537e2d5</title>
<ellipse fill="none" stroke="black" cx="4277" cy="-208" rx="217.162" ry="18"/>
<text text-anchor="middle" x="4277" y="-204.3" font-family="Times,serif" font-size="14.00">pipe:[331682317]#ServerID_e56b6537e2d5</text>
</g>
<!-- 1_fwatchdog#ServerID_e56b6537e2d5&#45;&gt;pipe:[331682317]#ServerID_e56b6537e2d5 -->
<g id="edge23" class="edge"><title>1_fwatchdog#ServerID_e56b6537e2d5&#45;&gt;pipe:[331682317]#ServerID_e56b6537e2d5</title>
<path fill="none" stroke="black" d="M4277,-276.799C4277,-265.163 4277,-249.548 4277,-236.237"/>
<polygon fill="black" stroke="black" points="4280.5,-236.175 4277,-226.175 4273.5,-236.175 4280.5,-236.175"/>
<text text-anchor="middle" x="4296" y="-247.8" font-family="Times,serif" font-size="14.00">write</text>
</g>
<!-- localhost:3000#ServerID_e56b6537e2d5&#45;&gt;1_fwatchdog#ServerID_e56b6537e2d5 -->
<g id="edge22" class="edge"><title>localhost:3000#ServerID_e56b6537e2d5&#45;&gt;1_fwatchdog#ServerID_e56b6537e2d5</title>
<path fill="none" stroke="black" d="M4753.73,-223.249C4716.14,-234.561 4661.07,-249.934 4612,-259 4555.18,-269.498 4492.31,-277.106 4436.53,-282.491"/>
<polygon fill="black" stroke="black" points="4436.18,-279.008 4426.56,-283.438 4436.84,-285.977 4436.18,-279.008"/>
<text text-anchor="middle" x="4691.5" y="-247.8" font-family="Times,serif" font-size="14.00">read</text>
</g>
<!-- 12_node#ServerID_e56b6537e2d5 -->
<g id="node17" class="node"><title>12_node#ServerID_e56b6537e2d5</title>
<polygon fill="none" stroke="black" points="4932.5,-139 4665.5,-139 4665.5,-103 4932.5,-103 4932.5,-139"/>
<text text-anchor="middle" x="4799" y="-117.3" font-family="Times,serif" font-size="14.00">12_node#ServerID_e56b6537e2d5</text>
</g>
<!-- localhost:3000#ServerID_e56b6537e2d5&#45;&gt;12_node#ServerID_e56b6537e2d5 -->
<g id="edge21" class="edge"><title>localhost:3000#ServerID_e56b6537e2d5&#45;&gt;12_node#ServerID_e56b6537e2d5</title>
<path fill="none" stroke="black" d="M4799,-189.799C4799,-178.163 4799,-162.548 4799,-149.237"/>
<polygon fill="black" stroke="black" points="4802.5,-149.175 4799,-139.175 4795.5,-149.175 4802.5,-149.175"/>
<text text-anchor="middle" x="4815.5" y="-160.8" font-family="Times,serif" font-size="14.00">read</text>
</g>
<!-- pipe:[331682415]#ServerID_e56b6537e2d5 -->
<g id="node18" class="node"><title>pipe:[331682415]#ServerID_e56b6537e2d5</title>
<ellipse fill="none" stroke="black" cx="4799" cy="-34" rx="217.162" ry="18"/>
<text text-anchor="middle" x="4799" y="-30.3" font-family="Times,serif" font-size="14.00">pipe:[331682415]#ServerID_e56b6537e2d5</text>
</g>
<!-- 12_node#ServerID_e56b6537e2d5&#45;&gt;pipe:[331682415]#ServerID_e56b6537e2d5 -->
<g id="edge20" class="edge"><title>12_node#ServerID_e56b6537e2d5&#45;&gt;pipe:[331682415]#ServerID_e56b6537e2d5</title>
<path fill="none" stroke="black" d="M4799,-102.799C4799,-91.1626 4799,-75.5479 4799,-62.2368"/>
<polygon fill="black" stroke="black" points="4802.5,-62.1754 4799,-52.1754 4795.5,-62.1755 4802.5,-62.1754"/>
<text text-anchor="middle" x="4818" y="-73.8" font-family="Times,serif" font-size="14.00">write</text>
</g>
<!-- 10.1.80.1:13508#ServerID_OuterContainerID&#45;&gt;10.1.80.247:8080#ServerID_OuterContainerID -->
<g id="edge25" class="edge"><title>10.1.80.1:13508#ServerID_OuterContainerID&#45;&gt;10.1.80.247:8080#ServerID_OuterContainerID</title>
<path fill="none" stroke="black" d="M986.128,-311.09C932.197,-332.464 828.187,-371.056 736,-390 669.786,-403.606 596.221,-411.924 530.813,-417.008"/>
<polygon fill="black" stroke="black" points="530.514,-413.52 520.807,-417.765 531.042,-420.5 530.514,-413.52"/>
<text text-anchor="middle" x="813" y="-378.8" font-family="Times,serif" font-size="14.00">POST</text>
</g>
</g>
</svg>
