<?xml version="1.0" encoding="UTF-8" standalone="no"?>
<!DOCTYPE svg PUBLIC "-//W3C//DTD SVG 1.1//EN"
 "http://www.w3.org/Graphics/SVG/1.1/DTD/svg11.dtd">
<!-- Generated by graphviz version 2.38.0 (20140413.2041)
 -->
<!-- Title: G Pages: 1 -->
<svg width="8666pt" height="645pt"
 viewBox="0.00 0.00 8666.00 645.00" xmlns="http://www.w3.org/2000/svg" xmlns:xlink="http://www.w3.org/1999/xlink">
<g id="graph0" class="graph" transform="scale(1 1) rotate(0) translate(4 641)">
<title>G</title>
<polygon fill="white" stroke="none" points="-4,4 -4,-641 8662,-641 8662,4 -4,4"/>
<g id="clust1" class="cluster"><title>clusterServerID_34e86192c217</title>
<polygon fill="none" stroke="black" points="6724,-182 6724,-498 8052,-498 8052,-182 6724,-182"/>
<text text-anchor="middle" x="7388" y="-482.8" font-family="Times,serif" font-size="14.00">clusterServerID_34e86192c217</text>
</g>
<g id="clust2" class="cluster"><title>clusterServerID_5f846fd567&#45;w7nbt</title>
<polygon fill="none" stroke="black" points="6376,-269 6376,-367 6716,-367 6716,-269 6376,-269"/>
<text text-anchor="middle" x="6546" y="-351.8" font-family="Times,serif" font-size="14.00">clusterServerID_5f846fd567&#45;w7nbt</text>
</g>
<g id="clust3" class="cluster"><title>clusterServerID_6df85d7674&#45;2kqrj</title>
<polygon fill="none" stroke="black" points="2823,-531 2823,-629 3161,-629 3161,-531 2823,-531"/>
<text text-anchor="middle" x="2992" y="-613.8" font-family="Times,serif" font-size="14.00">clusterServerID_6df85d7674&#45;2kqrj</text>
</g>
<g id="clust4" class="cluster"><title>clusterServerID_90667071e782</title>
<polygon fill="none" stroke="black" points="6052,-269 6052,-367 6368,-367 6368,-269 6052,-269"/>
<text text-anchor="middle" x="6210" y="-351.8" font-family="Times,serif" font-size="14.00">clusterServerID_90667071e782</text>
</g>
<g id="clust5" class="cluster"><title>clusterServerID_OuterContainerID</title>
<polygon fill="none" stroke="black" points="8,-269 8,-498 6044,-498 6044,-269 8,-269"/>
<text text-anchor="middle" x="3026" y="-482.8" font-family="Times,serif" font-size="14.00">clusterServerID_OuterContainerID</text>
</g>
<g id="clust6" class="cluster"><title>clusterServerID_e56b6537e2d5</title>
<polygon fill="none" stroke="black" points="8060,-8 8060,-367 8650,-367 8650,-8 8060,-8"/>
<text text-anchor="middle" x="8355" y="-351.8" font-family="Times,serif" font-size="14.00">clusterServerID_e56b6537e2d5</text>
</g>
<!-- 1_fwatchdog#ServerID_6df85d7674&#45;2kqrj -->
<g id="node1" class="node"><title>1_fwatchdog#ServerID_6df85d7674&#45;2kqrj</title>
<polygon fill="none" stroke="black" points="3152.5,-575 2831.5,-575 2831.5,-539 3152.5,-539 3152.5,-575"/>
<text text-anchor="middle" x="2992" y="-553.3" font-family="Times,serif" font-size="14.00">1_fwatchdog#ServerID_6df85d7674&#45;2kqrj</text>
</g>
<!-- 10.1.80.247:8080#ServerID_OuterContainerID -->
<g id="node2" class="node"><title>10.1.80.247:8080#ServerID_OuterContainerID</title>
<polygon fill="none" stroke="black" points="343,-444 15.5599,-426 343,-408 670.44,-426 343,-444"/>
<text text-anchor="middle" x="343" y="-422.3" font-family="Times,serif" font-size="14.00">10.1.80.247:8080#ServerID_OuterContainerID</text>
</g>
<!-- 1_fwatchdog#ServerID_6df85d7674&#45;2kqrj&#45;&gt;10.1.80.247:8080#ServerID_OuterContainerID -->
<g id="edge1" class="edge"><title>1_fwatchdog#ServerID_6df85d7674&#45;2kqrj&#45;&gt;10.1.80.247:8080#ServerID_OuterContainerID</title>
<path fill="none" stroke="black" d="M2831.34,-555.807C2378.33,-554.652 1096.65,-547.016 679,-498 582.405,-486.663 472.484,-460.946 405.441,-443.778"/>
<polygon fill="black" stroke="black" points="406.02,-440.312 395.463,-441.204 404.272,-447.091 406.02,-440.312"/>
<text text-anchor="middle" x="981" y="-509.8" font-family="Times,serif" font-size="14.00">POST</text>
</g>
<!-- gateway:8080#ServerID_OuterContainerID -->
<g id="node5" class="node"><title>gateway:8080#ServerID_OuterContainerID</title>
<polygon fill="none" stroke="black" points="2993,-444 2688.52,-426 2993,-408 3297.48,-426 2993,-444"/>
<text text-anchor="middle" x="2993" y="-422.3" font-family="Times,serif" font-size="14.00">gateway:8080#ServerID_OuterContainerID</text>
</g>
<!-- 1_fwatchdog#ServerID_6df85d7674&#45;2kqrj&#45;&gt;gateway:8080#ServerID_OuterContainerID -->
<g id="edge8" class="edge"><title>1_fwatchdog#ServerID_6df85d7674&#45;2kqrj&#45;&gt;gateway:8080#ServerID_OuterContainerID</title>
<path fill="none" stroke="black" d="M2970.2,-538.762C2965.26,-533.629 2960.68,-527.594 2958,-521 2955.49,-514.822 2956.62,-512.522 2958,-506 2961.95,-487.34 2970.61,-467.727 2978.33,-452.712"/>
<polygon fill="black" stroke="black" points="2981.59,-454.036 2983.2,-443.565 2975.41,-450.743 2981.59,-454.036"/>
<text text-anchor="middle" x="2978" y="-509.8" font-family="Times,serif" font-size="14.00">POST</text>
</g>
<!-- 10.1.80.247:56552#ServerID_OuterContainerID -->
<g id="node6" class="node"><title>10.1.80.247:56552#ServerID_OuterContainerID</title>
<polygon fill="none" stroke="black" points="5701,-444 5365.52,-426 5701,-408 6036.48,-426 5701,-444"/>
<text text-anchor="middle" x="5701" y="-422.3" font-family="Times,serif" font-size="14.00">10.1.80.247:56552#ServerID_OuterContainerID</text>
</g>
<!-- 1_fwatchdog#ServerID_6df85d7674&#45;2kqrj&#45;&gt;10.1.80.247:56552#ServerID_OuterContainerID -->
<g id="edge4" class="edge"><title>1_fwatchdog#ServerID_6df85d7674&#45;2kqrj&#45;&gt;10.1.80.247:56552#ServerID_OuterContainerID</title>
<path fill="none" stroke="black" d="M3152.56,-551.882C3493.28,-543.17 4313.88,-522.334 5002,-506 5080.66,-504.133 5277.81,-506.855 5356,-498 5455.47,-486.734 5568.8,-460.845 5637.59,-443.64"/>
<polygon fill="black" stroke="black" points="5638.56,-447.004 5647.4,-441.168 5636.85,-440.215 5638.56,-447.004"/>
<text text-anchor="middle" x="5044" y="-509.8" font-family="Times,serif" font-size="14.00">RESPONSE</text>
</g>
<!-- 10.1.80.247:8080#ServerID_OuterContainerID&#45;&gt;1_fwatchdog#ServerID_6df85d7674&#45;2kqrj -->
<g id="edge7" class="edge"><title>10.1.80.247:8080#ServerID_OuterContainerID&#45;&gt;1_fwatchdog#ServerID_6df85d7674&#45;2kqrj</title>
<path fill="none" stroke="black" d="M395.174,-441.144C460.821,-458.216 577.293,-486.109 679,-498 750.976,-506.415 932.556,-504.2 1005,-506 1677.31,-522.708 2477.57,-542.955 2821.31,-551.669"/>
<polygon fill="black" stroke="black" points="2821.26,-555.169 2831.35,-551.924 2821.44,-548.171 2821.26,-555.169"/>
<text text-anchor="middle" x="1593" y="-509.8" font-family="Times,serif" font-size="14.00">RESPONSE</text>
</g>
<!-- 10.1.80.1:52771#ServerID_OuterContainerID -->
<g id="node24" class="node"><title>10.1.80.1:52771#ServerID_OuterContainerID</title>
<polygon fill="none" stroke="black" points="335,-313 16.1049,-295 335,-277 653.895,-295 335,-313"/>
<text text-anchor="middle" x="335" y="-291.3" font-family="Times,serif" font-size="14.00">10.1.80.1:52771#ServerID_OuterContainerID</text>
</g>
<!-- 10.1.80.247:8080#ServerID_OuterContainerID&#45;&gt;10.1.80.1:52771#ServerID_OuterContainerID -->
<g id="edge28" class="edge"><title>10.1.80.247:8080#ServerID_OuterContainerID&#45;&gt;10.1.80.1:52771#ServerID_OuterContainerID</title>
<path fill="none" stroke="black" d="M345.928,-407.962C346.775,-402.269 347.582,-395.878 348,-390 349.618,-367.228 345.676,-341.566 341.718,-322.815"/>
<polygon fill="black" stroke="black" points="345.099,-321.899 339.491,-312.91 338.27,-323.434 345.099,-321.899"/>
<text text-anchor="middle" x="391" y="-378.8" font-family="Times,serif" font-size="14.00">RESPONSE</text>
</g>
<!-- 10.0.88.125:31112#ServerID_OuterContainerID -->
<g id="node25" class="node"><title>10.0.88.125:31112#ServerID_OuterContainerID</title>
<polygon fill="none" stroke="black" points="1007,-313 671.515,-295 1007,-277 1342.48,-295 1007,-313"/>
<text text-anchor="middle" x="1007" y="-291.3" font-family="Times,serif" font-size="14.00">10.0.88.125:31112#ServerID_OuterContainerID</text>
</g>
<!-- 10.1.80.247:8080#ServerID_OuterContainerID&#45;&gt;10.0.88.125:31112#ServerID_OuterContainerID -->
<g id="edge30" class="edge"><title>10.1.80.247:8080#ServerID_OuterContainerID&#45;&gt;10.0.88.125:31112#ServerID_OuterContainerID</title>
<path fill="none" stroke="black" d="M417.454,-412.032C482.37,-400.599 579.024,-383.274 663,-367 756.437,-348.893 863.805,-326.474 933.388,-311.731"/>
<polygon fill="black" stroke="black" points="934.318,-315.112 943.374,-309.613 932.866,-308.264 934.318,-315.112"/>
<text text-anchor="middle" x="662" y="-378.8" font-family="Times,serif" font-size="14.00">RESPONSE</text>
</g>
<!-- 10.1.80.247:58532#ServerID_OuterContainerID -->
<g id="node3" class="node"><title>10.1.80.247:58532#ServerID_OuterContainerID</title>
<polygon fill="none" stroke="black" points="2335,-444 1999.52,-426 2335,-408 2670.48,-426 2335,-444"/>
<text text-anchor="middle" x="2335" y="-422.3" font-family="Times,serif" font-size="14.00">10.1.80.247:58532#ServerID_OuterContainerID</text>
</g>
<!-- 1_fwatchdog#ServerID_5f846fd567&#45;w7nbt -->
<g id="node4" class="node"><title>1_fwatchdog#ServerID_5f846fd567&#45;w7nbt</title>
<polygon fill="none" stroke="black" points="6708,-313 6384,-313 6384,-277 6708,-277 6708,-313"/>
<text text-anchor="middle" x="6546" y="-291.3" font-family="Times,serif" font-size="14.00">1_fwatchdog#ServerID_5f846fd567&#45;w7nbt</text>
</g>
<!-- 10.1.80.247:58532#ServerID_OuterContainerID&#45;&gt;1_fwatchdog#ServerID_5f846fd567&#45;w7nbt -->
<g id="edge2" class="edge"><title>10.1.80.247:58532#ServerID_OuterContainerID&#45;&gt;1_fwatchdog#ServerID_5f846fd567&#45;w7nbt</title>
<path fill="none" stroke="black" d="M2442.82,-413.751C2566.56,-401.44 2775.66,-382.46 2956,-375 3003.4,-373.039 6325.45,-376.188 6372,-367 6419.84,-357.558 6471.12,-334.943 6505.52,-317.753"/>
<polygon fill="black" stroke="black" points="6507.43,-320.711 6514.76,-313.064 6504.26,-314.469 6507.43,-320.711"/>
<text text-anchor="middle" x="2976" y="-378.8" font-family="Times,serif" font-size="14.00">POST</text>
</g>
<!-- 1_fwatchdog#ServerID_5f846fd567&#45;w7nbt&#45;&gt;10.1.80.247:58532#ServerID_OuterContainerID -->
<g id="edge5" class="edge"><title>1_fwatchdog#ServerID_5f846fd567&#45;w7nbt&#45;&gt;10.1.80.247:58532#ServerID_OuterContainerID</title>
<path fill="none" stroke="black" d="M6514.76,-313.061C6480.79,-330.568 6424.33,-356.661 6372,-367 6331.08,-375.083 3410.7,-373.946 3369,-375 3205.52,-379.131 2751.97,-402.654 2503.35,-415.912"/>
<polygon fill="black" stroke="black" points="2502.93,-412.43 2493.13,-416.458 2503.31,-419.42 2502.93,-412.43"/>
<text text-anchor="middle" x="3411" y="-378.8" font-family="Times,serif" font-size="14.00">RESPONSE</text>
</g>
<!-- gateway:8080#ServerID_OuterContainerID&#45;&gt;1_fwatchdog#ServerID_6df85d7674&#45;2kqrj -->
<g id="edge3" class="edge"><title>gateway:8080#ServerID_OuterContainerID&#45;&gt;1_fwatchdog#ServerID_6df85d7674&#45;2kqrj</title>
<path fill="none" stroke="black" d="M2997.03,-444.034C3000.93,-462.905 3005.75,-494.211 3002,-521 3001.64,-523.574 3001.14,-526.224 3000.55,-528.859"/>
<polygon fill="black" stroke="black" points="2997.1,-528.198 2997.96,-538.759 3003.87,-529.971 2997.1,-528.198"/>
<text text-anchor="middle" x="3046" y="-509.8" font-family="Times,serif" font-size="14.00">RESPONSE</text>
</g>
<!-- 10_node#ServerID_34e86192c217 -->
<g id="node13" class="node"><title>10_node#ServerID_34e86192c217</title>
<polygon fill="none" stroke="black" points="6999.5,-313 6732.5,-313 6732.5,-277 6999.5,-277 6999.5,-313"/>
<text text-anchor="middle" x="6866" y="-291.3" font-family="Times,serif" font-size="14.00">10_node#ServerID_34e86192c217</text>
</g>
<!-- gateway:8080#ServerID_OuterContainerID&#45;&gt;10_node#ServerID_34e86192c217 -->
<g id="edge27" class="edge"><title>gateway:8080#ServerID_OuterContainerID&#45;&gt;10_node#ServerID_34e86192c217</title>
<path fill="none" stroke="black" d="M3138.29,-416.558C3191.09,-413.635 3251.23,-410.475 3306,-408 3527.7,-397.982 3583.34,-400.837 3805,-390 3913.08,-384.716 3939.85,-378.497 4048,-375 4085.09,-373.801 6683.85,-375.381 6720,-367 6760.51,-357.609 6802.82,-335.461 6831.4,-318.379"/>
<polygon fill="black" stroke="black" points="6833.45,-321.225 6840.17,-313.034 6829.81,-315.246 6833.45,-321.225"/>
<text text-anchor="middle" x="4064.5" y="-378.8" font-family="Times,serif" font-size="14.00">read</text>
</g>
<!-- 10.1.80.247:56552#ServerID_OuterContainerID&#45;&gt;1_fwatchdog#ServerID_6df85d7674&#45;2kqrj -->
<g id="edge6" class="edge"><title>10.1.80.247:56552#ServerID_OuterContainerID&#45;&gt;1_fwatchdog#ServerID_6df85d7674&#45;2kqrj</title>
<path fill="none" stroke="black" d="M5643.68,-440.961C5575.52,-457.057 5458.12,-483.194 5356,-498 5236.81,-515.279 5206.28,-514.879 5086,-521 4713.44,-539.96 3592.77,-551.012 3162.65,-554.652"/>
<polygon fill="black" stroke="black" points="3162.59,-551.152 3152.62,-554.737 3162.65,-558.152 3162.59,-551.152"/>
<text text-anchor="middle" x="5314" y="-509.8" font-family="Times,serif" font-size="14.00">POST</text>
</g>
<!-- 1_fwatchdog#ServerID_34e86192c217 -->
<g id="node7" class="node"><title>1_fwatchdog#ServerID_34e86192c217</title>
<polygon fill="none" stroke="black" points="7837.5,-444 7538.5,-444 7538.5,-408 7837.5,-408 7837.5,-444"/>
<text text-anchor="middle" x="7688" y="-422.3" font-family="Times,serif" font-size="14.00">1_fwatchdog#ServerID_34e86192c217</text>
</g>
<!-- 10.1.80.247:56552#ServerID_OuterContainerID&#45;&gt;1_fwatchdog#ServerID_34e86192c217 -->
<g id="edge12" class="edge"><title>10.1.80.247:56552#ServerID_OuterContainerID&#45;&gt;1_fwatchdog#ServerID_34e86192c217</title>
<path fill="none" stroke="black" d="M5823.59,-437.468C6014.83,-454.724 6395.87,-486.563 6720,-498 6899.67,-504.339 7353.27,-535.934 7529,-498 7572.4,-488.631 7618.21,-466.397 7649.46,-449.096"/>
<polygon fill="black" stroke="black" points="7651.27,-452.091 7658.26,-444.134 7647.83,-445.992 7651.27,-452.091"/>
<text text-anchor="middle" x="6787" y="-509.8" font-family="Times,serif" font-size="14.00">read</text>
</g>
<!-- localhost:3000#ServerID_34e86192c217 -->
<g id="node8" class="node"><title>localhost:3000#ServerID_34e86192c217</title>
<polygon fill="none" stroke="black" points="7757,-313 7470.45,-295 7757,-277 8043.55,-295 7757,-313"/>
<text text-anchor="middle" x="7757" y="-291.3" font-family="Times,serif" font-size="14.00">localhost:3000#ServerID_34e86192c217</text>
</g>
<!-- 1_fwatchdog#ServerID_34e86192c217&#45;&gt;localhost:3000#ServerID_34e86192c217 -->
<g id="edge9" class="edge"><title>1_fwatchdog#ServerID_34e86192c217&#45;&gt;localhost:3000#ServerID_34e86192c217</title>
<path fill="none" stroke="black" d="M7740.42,-407.852C7747.81,-403.205 7754.43,-397.352 7759,-390 7771.48,-369.934 7769.21,-342.503 7764.87,-322.453"/>
<polygon fill="black" stroke="black" points="7768.27,-321.599 7762.49,-312.72 7761.47,-323.265 7768.27,-321.599"/>
<text text-anchor="middle" x="7795" y="-378.8" font-family="Times,serif" font-size="14.00">connect</text>
</g>
<!-- 1_fwatchdog#ServerID_34e86192c217&#45;&gt;localhost:3000#ServerID_34e86192c217 -->
<g id="edge11" class="edge"><title>1_fwatchdog#ServerID_34e86192c217&#45;&gt;localhost:3000#ServerID_34e86192c217</title>
<path fill="none" stroke="black" d="M7673.47,-407.774C7667.12,-398.088 7662.11,-385.807 7667,-375 7678.06,-350.583 7700.8,-330.723 7720.66,-317.023"/>
<polygon fill="black" stroke="black" points="7722.83,-319.786 7729.24,-311.351 7718.97,-313.947 7722.83,-319.786"/>
<text text-anchor="middle" x="7686" y="-378.8" font-family="Times,serif" font-size="14.00">write</text>
</g>
<!-- pipe:[331683132]#ServerID_34e86192c217 -->
<g id="node9" class="node"><title>pipe:[331683132]#ServerID_34e86192c217</title>
<ellipse fill="none" stroke="black" cx="7235" cy="-295" rx="217.162" ry="18"/>
<text text-anchor="middle" x="7235" y="-291.3" font-family="Times,serif" font-size="14.00">pipe:[331683132]#ServerID_34e86192c217</text>
</g>
<!-- 1_fwatchdog#ServerID_34e86192c217&#45;&gt;pipe:[331683132]#ServerID_34e86192c217 -->
<g id="edge13" class="edge"><title>1_fwatchdog#ServerID_34e86192c217&#45;&gt;pipe:[331683132]#ServerID_34e86192c217</title>
<path fill="none" stroke="black" d="M7617.18,-407.954C7572.27,-396.885 7513.03,-381.809 7461,-367 7404.25,-350.848 7340.12,-330.5 7294.71,-315.732"/>
<polygon fill="black" stroke="black" points="7295.62,-312.347 7285.03,-312.575 7293.45,-319.003 7295.62,-312.347"/>
<text text-anchor="middle" x="7561" y="-378.8" font-family="Times,serif" font-size="14.00">write</text>
</g>
<!-- localhost:3000#ServerID_34e86192c217&#45;&gt;1_fwatchdog#ServerID_34e86192c217 -->
<g id="edge10" class="edge"><title>localhost:3000#ServerID_34e86192c217&#45;&gt;1_fwatchdog#ServerID_34e86192c217</title>
<path fill="none" stroke="black" d="M7748.02,-312.791C7736.29,-334.717 7715.64,-373.325 7701.89,-399.036"/>
<polygon fill="black" stroke="black" points="7698.79,-397.401 7697.16,-407.87 7704.97,-400.703 7698.79,-397.401"/>
<text text-anchor="middle" x="7731.5" y="-378.8" font-family="Times,serif" font-size="14.00">read</text>
</g>
<!-- 10.1.80.1:58446#ServerID_OuterContainerID -->
<g id="node10" class="node"><title>10.1.80.1:58446#ServerID_OuterContainerID</title>
<polygon fill="none" stroke="black" points="1007,-444 688.105,-426 1007,-408 1325.9,-426 1007,-444"/>
<text text-anchor="middle" x="1007" y="-422.3" font-family="Times,serif" font-size="14.00">10.1.80.1:58446#ServerID_OuterContainerID</text>
</g>
<!-- 1_fwatchdog#ServerID_90667071e782 -->
<g id="node11" class="node"><title>1_fwatchdog#ServerID_90667071e782</title>
<polygon fill="none" stroke="black" points="6359.5,-313 6060.5,-313 6060.5,-277 6359.5,-277 6359.5,-313"/>
<text text-anchor="middle" x="6210" y="-291.3" font-family="Times,serif" font-size="14.00">1_fwatchdog#ServerID_90667071e782</text>
</g>
<!-- 10.1.80.1:58446#ServerID_OuterContainerID&#45;&gt;1_fwatchdog#ServerID_90667071e782 -->
<g id="edge14" class="edge"><title>10.1.80.1:58446#ServerID_OuterContainerID&#45;&gt;1_fwatchdog#ServerID_90667071e782</title>
<path fill="none" stroke="black" d="M1159.67,-416.585C1214.9,-413.674 1277.75,-410.514 1335,-408 1742.43,-390.112 1844.25,-382.764 2252,-375 2304.71,-373.996 5996.41,-377.866 6048,-367 6092.72,-357.582 6140.18,-335.123 6172.1,-317.965"/>
<polygon fill="black" stroke="black" points="6173.98,-320.925 6181.08,-313.057 6170.62,-314.783 6173.98,-320.925"/>
<text text-anchor="middle" x="2268.5" y="-378.8" font-family="Times,serif" font-size="14.00">read</text>
</g>
<!-- 10.1.80.1:58444#ServerID_OuterContainerID -->
<g id="node12" class="node"><title>10.1.80.1:58444#ServerID_OuterContainerID</title>
<polygon fill="none" stroke="black" points="1663,-444 1344.1,-426 1663,-408 1981.9,-426 1663,-444"/>
<text text-anchor="middle" x="1663" y="-422.3" font-family="Times,serif" font-size="14.00">10.1.80.1:58444#ServerID_OuterContainerID</text>
</g>
<!-- 10.1.80.1:58444#ServerID_OuterContainerID&#45;&gt;1_fwatchdog#ServerID_90667071e782 -->
<g id="edge15" class="edge"><title>10.1.80.1:58444#ServerID_OuterContainerID&#45;&gt;1_fwatchdog#ServerID_90667071e782</title>
<path fill="none" stroke="black" d="M1803.99,-415.925C2000.26,-403.782 2366.98,-382.864 2680,-375 2726.76,-373.825 6002.23,-376.647 6048,-367 6092.71,-357.576 6140.18,-335.118 6172.1,-317.962"/>
<polygon fill="black" stroke="black" points="6173.98,-320.922 6181.08,-313.055 6170.62,-314.78 6173.98,-320.922"/>
<text text-anchor="middle" x="2696.5" y="-378.8" font-family="Times,serif" font-size="14.00">read</text>
</g>
<!-- 10_node#ServerID_34e86192c217&#45;&gt;gateway:8080#ServerID_OuterContainerID -->
<g id="edge23" class="edge"><title>10_node#ServerID_34e86192c217&#45;&gt;gateway:8080#ServerID_OuterContainerID</title>
<path fill="none" stroke="black" d="M6840.17,-313.036C6812,-330.523 6764.89,-356.599 6720,-367 6679.77,-376.319 3788.27,-373.578 3747,-375 3526.39,-382.604 3270.06,-401.812 3120.26,-414.085"/>
<polygon fill="black" stroke="black" points="3119.78,-410.613 3110.1,-414.92 3120.36,-417.589 3119.78,-410.613"/>
<text text-anchor="middle" x="3776" y="-378.8" font-family="Times,serif" font-size="14.00">connect</text>
</g>
<!-- pipe:[331683264]#ServerID_34e86192c217 -->
<g id="node14" class="node"><title>pipe:[331683264]#ServerID_34e86192c217</title>
<ellipse fill="none" stroke="black" cx="6949" cy="-208" rx="217.162" ry="18"/>
<text text-anchor="middle" x="6949" y="-204.3" font-family="Times,serif" font-size="14.00">pipe:[331683264]#ServerID_34e86192c217</text>
</g>
<!-- 10_node#ServerID_34e86192c217&#45;&gt;pipe:[331683264]#ServerID_34e86192c217 -->
<g id="edge16" class="edge"><title>10_node#ServerID_34e86192c217&#45;&gt;pipe:[331683264]#ServerID_34e86192c217</title>
<path fill="none" stroke="black" d="M6882.8,-276.799C6894.95,-264.356 6911.54,-247.364 6925.07,-233.504"/>
<polygon fill="black" stroke="black" points="6927.75,-235.775 6932.23,-226.175 6922.74,-230.885 6927.75,-235.775"/>
<text text-anchor="middle" x="6932" y="-247.8" font-family="Times,serif" font-size="14.00">write</text>
</g>
<!-- 10.152.183.10:53#ServerID_OuterContainerID -->
<g id="node16" class="node"><title>10.152.183.10:53#ServerID_OuterContainerID</title>
<polygon fill="none" stroke="black" points="3642,-444 3314.56,-426 3642,-408 3969.44,-426 3642,-444"/>
<text text-anchor="middle" x="3642" y="-422.3" font-family="Times,serif" font-size="14.00">10.152.183.10:53#ServerID_OuterContainerID</text>
</g>
<!-- 10_node#ServerID_34e86192c217&#45;&gt;10.152.183.10:53#ServerID_OuterContainerID -->
<g id="edge18" class="edge"><title>10_node#ServerID_34e86192c217&#45;&gt;10.152.183.10:53#ServerID_OuterContainerID</title>
<path fill="none" stroke="black" d="M6840.17,-313.019C6811.99,-330.492 6764.88,-356.556 6720,-367 6673.09,-377.916 5034.16,-374.1 4986,-375 4538.28,-383.367 4426.41,-389.386 3979,-408 3923.35,-410.315 3862.55,-413.256 3808.1,-416.038"/>
<polygon fill="black" stroke="black" points="3807.82,-412.548 3798.01,-416.555 3808.18,-419.539 3807.82,-412.548"/>
<text text-anchor="middle" x="5010.5" y="-378.8" font-family="Times,serif" font-size="14.00">sendto</text>
</g>
<!-- /etc/hosts#ServerID_34e86192c217 -->
<g id="node15" class="node"><title>/etc/hosts#ServerID_34e86192c217</title>
<ellipse fill="none" stroke="black" cx="7340" cy="-426" rx="180.068" ry="18"/>
<text text-anchor="middle" x="7340" y="-422.3" font-family="Times,serif" font-size="14.00">/etc/hosts#ServerID_34e86192c217</text>
</g>
<!-- /etc/hosts#ServerID_34e86192c217&#45;&gt;10_node#ServerID_34e86192c217 -->
<g id="edge17" class="edge"><title>/etc/hosts#ServerID_34e86192c217&#45;&gt;10_node#ServerID_34e86192c217</title>
<path fill="none" stroke="black" d="M7220.4,-412.476C7156.58,-403.701 7077.32,-389.425 7009,-367 6971.33,-354.637 6931.12,-333.927 6902.96,-318.056"/>
<polygon fill="black" stroke="black" points="6904.68,-315.007 6894.26,-313.089 6901.21,-321.087 6904.68,-315.007"/>
<text text-anchor="middle" x="7105.5" y="-378.8" font-family="Times,serif" font-size="14.00">read</text>
</g>
<!-- 10.152.183.10:53#ServerID_OuterContainerID&#45;&gt;10_node#ServerID_34e86192c217 -->
<g id="edge20" class="edge"><title>10.152.183.10:53#ServerID_OuterContainerID&#45;&gt;10_node#ServerID_34e86192c217</title>
<path fill="none" stroke="black" d="M3759.73,-414.431C3902.2,-402.195 4149.44,-382.733 4362,-375 4394.73,-373.809 6688.1,-374.403 6720,-367 6760.51,-357.601 6802.82,-335.454 6831.4,-318.375"/>
<polygon fill="black" stroke="black" points="6833.45,-321.22 6840.17,-313.03 6829.81,-315.242 6833.45,-321.22"/>
<text text-anchor="middle" x="4395" y="-378.8" font-family="Times,serif" font-size="14.00">recvfrom</text>
</g>
<!-- /etc/resolv.conf#ServerID_34e86192c217 -->
<g id="node17" class="node"><title>/etc/resolv.conf#ServerID_34e86192c217</title>
<ellipse fill="none" stroke="black" cx="6937" cy="-426" rx="205.264" ry="18"/>
<text text-anchor="middle" x="6937" y="-422.3" font-family="Times,serif" font-size="14.00">/etc/resolv.conf#ServerID_34e86192c217</text>
</g>
<!-- /etc/resolv.conf#ServerID_34e86192c217&#45;&gt;10_node#ServerID_34e86192c217 -->
<g id="edge19" class="edge"><title>/etc/resolv.conf#ServerID_34e86192c217&#45;&gt;10_node#ServerID_34e86192c217</title>
<path fill="none" stroke="black" d="M6927.57,-407.87C6915.48,-385.895 6894.38,-347.573 6880.31,-321.994"/>
<polygon fill="black" stroke="black" points="6883.36,-320.274 6875.47,-313.201 6877.22,-323.649 6883.36,-320.274"/>
<text text-anchor="middle" x="6933.5" y="-378.8" font-family="Times,serif" font-size="14.00">read</text>
</g>
<!-- 1_fwatchdog#ServerID_e56b6537e2d5 -->
<g id="node18" class="node"><title>1_fwatchdog#ServerID_e56b6537e2d5</title>
<polygon fill="none" stroke="black" points="8367.5,-313 8068.5,-313 8068.5,-277 8367.5,-277 8367.5,-313"/>
<text text-anchor="middle" x="8218" y="-291.3" font-family="Times,serif" font-size="14.00">1_fwatchdog#ServerID_e56b6537e2d5</text>
</g>
<!-- localhost:3000#ServerID_e56b6537e2d5 -->
<g id="node19" class="node"><title>localhost:3000#ServerID_e56b6537e2d5</title>
<polygon fill="none" stroke="black" points="8355,-226 8068.45,-208 8355,-190 8641.55,-208 8355,-226"/>
<text text-anchor="middle" x="8355" y="-204.3" font-family="Times,serif" font-size="14.00">localhost:3000#ServerID_e56b6537e2d5</text>
</g>
<!-- 1_fwatchdog#ServerID_e56b6537e2d5&#45;&gt;localhost:3000#ServerID_e56b6537e2d5 -->
<g id="edge21" class="edge"><title>1_fwatchdog#ServerID_e56b6537e2d5&#45;&gt;localhost:3000#ServerID_e56b6537e2d5</title>
<path fill="none" stroke="black" d="M8245.72,-276.799C8267.63,-263.206 8298.29,-244.185 8321.56,-229.748"/>
<polygon fill="black" stroke="black" points="8323.43,-232.707 8330.08,-224.461 8319.74,-226.759 8323.43,-232.707"/>
<text text-anchor="middle" x="8313" y="-247.8" font-family="Times,serif" font-size="14.00">write</text>
</g>
<!-- 12_node#ServerID_e56b6537e2d5 -->
<g id="node21" class="node"><title>12_node#ServerID_e56b6537e2d5</title>
<polygon fill="none" stroke="black" points="8488.5,-139 8221.5,-139 8221.5,-103 8488.5,-103 8488.5,-139"/>
<text text-anchor="middle" x="8355" y="-117.3" font-family="Times,serif" font-size="14.00">12_node#ServerID_e56b6537e2d5</text>
</g>
<!-- localhost:3000#ServerID_e56b6537e2d5&#45;&gt;12_node#ServerID_e56b6537e2d5 -->
<g id="edge24" class="edge"><title>localhost:3000#ServerID_e56b6537e2d5&#45;&gt;12_node#ServerID_e56b6537e2d5</title>
<path fill="none" stroke="black" d="M8355,-189.799C8355,-178.163 8355,-162.548 8355,-149.237"/>
<polygon fill="black" stroke="black" points="8358.5,-149.175 8355,-139.175 8351.5,-149.175 8358.5,-149.175"/>
<text text-anchor="middle" x="8371.5" y="-160.8" font-family="Times,serif" font-size="14.00">read</text>
</g>
<!-- 10.1.80.247:58520#ServerID_OuterContainerID -->
<g id="node20" class="node"><title>10.1.80.247:58520#ServerID_OuterContainerID</title>
<polygon fill="none" stroke="black" points="4323,-444 3987.52,-426 4323,-408 4658.48,-426 4323,-444"/>
<text text-anchor="middle" x="4323" y="-422.3" font-family="Times,serif" font-size="14.00">10.1.80.247:58520#ServerID_OuterContainerID</text>
</g>
<!-- 10.1.80.247:58520#ServerID_OuterContainerID&#45;&gt;1_fwatchdog#ServerID_e56b6537e2d5 -->
<g id="edge22" class="edge"><title>10.1.80.247:58520#ServerID_OuterContainerID&#45;&gt;1_fwatchdog#ServerID_e56b6537e2d5</title>
<path fill="none" stroke="black" d="M4481.41,-416.466C4540.02,-413.501 4607.03,-410.336 4668,-408 5203.81,-387.471 5337.86,-383.317 5874,-375 5904.3,-374.53 8026.35,-373.269 8056,-367 8100.71,-357.547 8148.18,-335.093 8180.09,-317.947"/>
<polygon fill="black" stroke="black" points="8181.97,-320.908 8189.07,-313.042 8178.62,-314.765 8181.97,-320.908"/>
<text text-anchor="middle" x="5890.5" y="-378.8" font-family="Times,serif" font-size="14.00">read</text>
</g>
<!-- pipe:[331682415]#ServerID_e56b6537e2d5 -->
<g id="node23" class="node"><title>pipe:[331682415]#ServerID_e56b6537e2d5</title>
<ellipse fill="none" stroke="black" cx="8355" cy="-34" rx="217.162" ry="18"/>
<text text-anchor="middle" x="8355" y="-30.3" font-family="Times,serif" font-size="14.00">pipe:[331682415]#ServerID_e56b6537e2d5</text>
</g>
<!-- 12_node#ServerID_e56b6537e2d5&#45;&gt;pipe:[331682415]#ServerID_e56b6537e2d5 -->
<g id="edge26" class="edge"><title>12_node#ServerID_e56b6537e2d5&#45;&gt;pipe:[331682415]#ServerID_e56b6537e2d5</title>
<path fill="none" stroke="black" d="M8355,-102.799C8355,-91.1626 8355,-75.5479 8355,-62.2368"/>
<polygon fill="black" stroke="black" points="8358.5,-62.1754 8355,-52.1754 8351.5,-62.1755 8358.5,-62.1754"/>
<text text-anchor="middle" x="8374" y="-73.8" font-family="Times,serif" font-size="14.00">write</text>
</g>
<!-- 10.1.80.247:58528#ServerID_OuterContainerID -->
<g id="node22" class="node"><title>10.1.80.247:58528#ServerID_OuterContainerID</title>
<polygon fill="none" stroke="black" points="5012,-444 4676.52,-426 5012,-408 5347.48,-426 5012,-444"/>
<text text-anchor="middle" x="5012" y="-422.3" font-family="Times,serif" font-size="14.00">10.1.80.247:58528#ServerID_OuterContainerID</text>
</g>
<!-- 10.1.80.247:58528#ServerID_OuterContainerID&#45;&gt;1_fwatchdog#ServerID_e56b6537e2d5 -->
<g id="edge25" class="edge"><title>10.1.80.247:58528#ServerID_OuterContainerID&#45;&gt;1_fwatchdog#ServerID_e56b6537e2d5</title>
<path fill="none" stroke="black" d="M5169.54,-416.426C5228.36,-413.438 5295.72,-410.27 5357,-408 5947.89,-386.115 6095.78,-384.061 6687,-375 6725.02,-374.417 8018.8,-374.907 8056,-367 8100.7,-357.499 8148.17,-335.053 8180.09,-317.922"/>
<polygon fill="black" stroke="black" points="8181.97,-320.884 8189.07,-313.021 8178.61,-314.739 8181.97,-320.884"/>
<text text-anchor="middle" x="6703.5" y="-378.8" font-family="Times,serif" font-size="14.00">read</text>
</g>
<!-- 10.1.80.1:52771#ServerID_OuterContainerID&#45;&gt;10.1.80.247:8080#ServerID_OuterContainerID -->
<g id="edge29" class="edge"><title>10.1.80.1:52771#ServerID_OuterContainerID&#45;&gt;10.1.80.247:8080#ServerID_OuterContainerID</title>
<path fill="none" stroke="black" d="M322.359,-312.34C309.263,-331.393 292.236,-363.636 304,-390 305.886,-394.227 308.563,-398.156 311.641,-401.739"/>
<polygon fill="black" stroke="black" points="309.339,-404.387 318.872,-409.01 314.302,-399.451 309.339,-404.387"/>
<text text-anchor="middle" x="324" y="-378.8" font-family="Times,serif" font-size="14.00">POST</text>
</g>
</g>
</svg>
