<?xml version="1.0" encoding="UTF-8" standalone="no"?>
<!DOCTYPE svg PUBLIC "-//W3C//DTD SVG 1.1//EN"
 "http://www.w3.org/Graphics/SVG/1.1/DTD/svg11.dtd">
<!-- Generated by graphviz version 2.38.0 (20140413.2041)
 -->
<!-- Title: G Pages: 1 -->
<svg width="4792pt" height="684pt"
 viewBox="0.00 0.00 4792.00 684.00" xmlns="http://www.w3.org/2000/svg" xmlns:xlink="http://www.w3.org/1999/xlink">
<g id="graph0" class="graph" transform="scale(1 1) rotate(0) translate(4 680)">
<title>G</title>
<polygon fill="white" stroke="none" points="-4,4 -4,-680 4788,-680 4788,4 -4,4"/>
<g id="clust1" class="cluster"><title>clusterServerID_34e86192c217</title>
<polygon fill="none" stroke="black" points="3380,-377 3380,-668 4776,-668 4776,-377 3380,-377"/>
<text text-anchor="middle" x="4078" y="-652.8" font-family="Times,serif" font-size="14.00">clusterServerID_34e86192c217</text>
</g>
<g id="clust2" class="cluster"><title>clusterServerID_5f846fd567&#45;w7nbt</title>
<polygon fill="none" stroke="black" points="180,-485 180,-560 520,-560 520,-485 180,-485"/>
<text text-anchor="middle" x="350" y="-544.8" font-family="Times,serif" font-size="14.00">clusterServerID_5f846fd567&#45;w7nbt</text>
</g>
<g id="clust3" class="cluster"><title>clusterServerID_6df85d7674&#45;2kqrj</title>
<polygon fill="none" stroke="black" points="2232,-485 2232,-560 2570,-560 2570,-485 2232,-485"/>
<text text-anchor="middle" x="2401" y="-544.8" font-family="Times,serif" font-size="14.00">clusterServerID_6df85d7674&#45;2kqrj</text>
</g>
<g id="clust4" class="cluster"><title>clusterServerID_OuterContainerID</title>
<polygon fill="none" stroke="black" points="8,-269 8,-452 3372,-452 3372,-269 8,-269"/>
<text text-anchor="middle" x="1690" y="-436.8" font-family="Times,serif" font-size="14.00">clusterServerID_OuterContainerID</text>
</g>
<g id="clust5" class="cluster"><title>clusterServerID_e56b6537e2d5</title>
<polygon fill="none" stroke="black" points="3380,-8 3380,-344 3970,-344 3970,-8 3380,-8"/>
<text text-anchor="middle" x="3675" y="-328.8" font-family="Times,serif" font-size="14.00">clusterServerID_e56b6537e2d5</text>
</g>
<!-- 10.1.80.247:58400#ServerID_OuterContainerID -->
<g id="node1" class="node"><title>10.1.80.247:58400#ServerID_OuterContainerID</title>
<polygon fill="none" stroke="black" points="351,-421 15.5152,-403 351,-385 686.485,-403 351,-421"/>
<text text-anchor="middle" x="351" y="-399.3" font-family="Times,serif" font-size="14.00">10.1.80.247:58400#ServerID_OuterContainerID</text>
</g>
<!-- 1_fwatchdog#ServerID_5f846fd567&#45;w7nbt -->
<g id="node2" class="node"><title>1_fwatchdog#ServerID_5f846fd567&#45;w7nbt</title>
<polygon fill="none" stroke="black" points="512,-529 188,-529 188,-493 512,-493 512,-529"/>
<text text-anchor="middle" x="350" y="-507.3" font-family="Times,serif" font-size="14.00">1_fwatchdog#ServerID_5f846fd567&#45;w7nbt</text>
</g>
<!-- 10.1.80.247:58400#ServerID_OuterContainerID&#45;&gt;1_fwatchdog#ServerID_5f846fd567&#45;w7nbt -->
<g id="edge1" class="edge"><title>10.1.80.247:58400#ServerID_OuterContainerID&#45;&gt;1_fwatchdog#ServerID_5f846fd567&#45;w7nbt</title>
<path fill="none" stroke="black" d="M338.809,-420.692C331.796,-431.353 323.669,-445.798 320,-460 318.333,-466.455 317.687,-468.747 320,-475 321.231,-478.328 322.936,-481.554 324.914,-484.612"/>
<polygon fill="black" stroke="black" points="322.225,-486.86 331.041,-492.736 327.813,-482.644 322.225,-486.86"/>
<text text-anchor="middle" x="340" y="-463.8" font-family="Times,serif" font-size="14.00">POST</text>
</g>
<!-- 1_fwatchdog#ServerID_5f846fd567&#45;w7nbt&#45;&gt;10.1.80.247:58400#ServerID_OuterContainerID -->
<g id="edge6" class="edge"><title>1_fwatchdog#ServerID_5f846fd567&#45;w7nbt&#45;&gt;10.1.80.247:58400#ServerID_OuterContainerID</title>
<path fill="none" stroke="black" d="M355.955,-492.759C357.609,-487.165 359.176,-480.883 360,-475 362.04,-460.436 360.27,-444.162 357.776,-430.873"/>
<polygon fill="black" stroke="black" points="361.171,-430.006 355.681,-420.944 354.322,-431.452 361.171,-430.006"/>
<text text-anchor="middle" x="403" y="-463.8" font-family="Times,serif" font-size="14.00">RESPONSE</text>
</g>
<!-- 1_fwatchdog#ServerID_6df85d7674&#45;2kqrj -->
<g id="node3" class="node"><title>1_fwatchdog#ServerID_6df85d7674&#45;2kqrj</title>
<polygon fill="none" stroke="black" points="2561.5,-529 2240.5,-529 2240.5,-493 2561.5,-493 2561.5,-529"/>
<text text-anchor="middle" x="2401" y="-507.3" font-family="Times,serif" font-size="14.00">1_fwatchdog#ServerID_6df85d7674&#45;2kqrj</text>
</g>
<!-- 10.1.80.247:8080#ServerID_OuterContainerID -->
<g id="node4" class="node"><title>10.1.80.247:8080#ServerID_OuterContainerID</title>
<polygon fill="none" stroke="black" points="1032,-421 704.56,-403 1032,-385 1359.44,-403 1032,-421"/>
<text text-anchor="middle" x="1032" y="-399.3" font-family="Times,serif" font-size="14.00">10.1.80.247:8080#ServerID_OuterContainerID</text>
</g>
<!-- 1_fwatchdog#ServerID_6df85d7674&#45;2kqrj&#45;&gt;10.1.80.247:8080#ServerID_OuterContainerID -->
<g id="edge2" class="edge"><title>1_fwatchdog#ServerID_6df85d7674&#45;2kqrj&#45;&gt;10.1.80.247:8080#ServerID_OuterContainerID</title>
<path fill="none" stroke="black" d="M2240.07,-506.736C2036.62,-501.282 1675.87,-487.195 1369,-452 1285.09,-442.377 1189.84,-428.539 1122.06,-418.191"/>
<polygon fill="black" stroke="black" points="1122.26,-414.681 1111.85,-416.626 1121.2,-421.6 1122.26,-414.681"/>
<text text-anchor="middle" x="1615" y="-463.8" font-family="Times,serif" font-size="14.00">POST</text>
</g>
<!-- gateway:8080#ServerID_OuterContainerID -->
<g id="node5" class="node"><title>gateway:8080#ServerID_OuterContainerID</title>
<polygon fill="none" stroke="black" points="3060,-421 2755.52,-403 3060,-385 3364.48,-403 3060,-421"/>
<text text-anchor="middle" x="3060" y="-399.3" font-family="Times,serif" font-size="14.00">gateway:8080#ServerID_OuterContainerID</text>
</g>
<!-- 1_fwatchdog#ServerID_6df85d7674&#45;2kqrj&#45;&gt;gateway:8080#ServerID_OuterContainerID -->
<g id="edge3" class="edge"><title>1_fwatchdog#ServerID_6df85d7674&#45;2kqrj&#45;&gt;gateway:8080#ServerID_OuterContainerID</title>
<path fill="none" stroke="black" d="M2561.92,-500.025C2627.38,-494.617 2703.59,-486.594 2772,-475 2852.75,-461.314 2944.33,-437.228 3002.11,-420.948"/>
<polygon fill="black" stroke="black" points="3003.13,-424.298 3011.79,-418.204 3001.22,-417.564 3003.13,-424.298"/>
<text text-anchor="middle" x="2864" y="-463.8" font-family="Times,serif" font-size="14.00">POST</text>
</g>
<!-- 10.1.80.247:56390#ServerID_OuterContainerID -->
<g id="node6" class="node"><title>10.1.80.247:56390#ServerID_OuterContainerID</title>
<polygon fill="none" stroke="black" points="2402,-421 2066.52,-403 2402,-385 2737.48,-403 2402,-421"/>
<text text-anchor="middle" x="2402" y="-399.3" font-family="Times,serif" font-size="14.00">10.1.80.247:56390#ServerID_OuterContainerID</text>
</g>
<!-- 1_fwatchdog#ServerID_6df85d7674&#45;2kqrj&#45;&gt;10.1.80.247:56390#ServerID_OuterContainerID -->
<g id="edge5" class="edge"><title>1_fwatchdog#ServerID_6df85d7674&#45;2kqrj&#45;&gt;10.1.80.247:56390#ServerID_OuterContainerID</title>
<path fill="none" stroke="black" d="M2406.96,-492.759C2408.61,-487.165 2410.18,-480.883 2411,-475 2413.04,-460.436 2411.27,-444.162 2408.78,-430.873"/>
<polygon fill="black" stroke="black" points="2412.17,-430.006 2406.68,-420.944 2405.32,-431.452 2412.17,-430.006"/>
<text text-anchor="middle" x="2454" y="-463.8" font-family="Times,serif" font-size="14.00">RESPONSE</text>
</g>
<!-- 10.1.80.247:8080#ServerID_OuterContainerID&#45;&gt;1_fwatchdog#ServerID_6df85d7674&#45;2kqrj -->
<g id="edge7" class="edge"><title>10.1.80.247:8080#ServerID_OuterContainerID&#45;&gt;1_fwatchdog#ServerID_6df85d7674&#45;2kqrj</title>
<path fill="none" stroke="black" d="M1106.02,-416.974C1174.12,-428.33 1278.03,-444.198 1369,-452 1488.61,-462.258 1519.08,-454.291 1639,-460 1842.28,-469.678 2075.76,-485.727 2230.12,-497.027"/>
<polygon fill="black" stroke="black" points="2229.95,-500.523 2240.18,-497.764 2230.46,-493.542 2229.95,-500.523"/>
<text text-anchor="middle" x="1933" y="-463.8" font-family="Times,serif" font-size="14.00">RESPONSE</text>
</g>
<!-- 10.1.80.1:18837#ServerID_OuterContainerID -->
<g id="node17" class="node"><title>10.1.80.1:18837#ServerID_OuterContainerID</title>
<polygon fill="none" stroke="black" points="1139,-313 820.105,-295 1139,-277 1457.9,-295 1139,-313"/>
<text text-anchor="middle" x="1139" y="-291.3" font-family="Times,serif" font-size="14.00">10.1.80.1:18837#ServerID_OuterContainerID</text>
</g>
<!-- 10.1.80.247:8080#ServerID_OuterContainerID&#45;&gt;10.1.80.1:18837#ServerID_OuterContainerID -->
<g id="edge18" class="edge"><title>10.1.80.247:8080#ServerID_OuterContainerID&#45;&gt;10.1.80.1:18837#ServerID_OuterContainerID</title>
<path fill="none" stroke="black" d="M1028.24,-385.038C1026.91,-374.745 1026.99,-361.756 1033,-352 1043.51,-334.951 1061.09,-322.807 1078.95,-314.289"/>
<polygon fill="black" stroke="black" points="1080.55,-317.408 1088.28,-310.158 1077.72,-311.007 1080.55,-317.408"/>
<text text-anchor="middle" x="1075" y="-355.8" font-family="Times,serif" font-size="14.00">RESPONSE</text>
</g>
<!-- 10.0.88.125:31112#ServerID_OuterContainerID -->
<g id="node18" class="node"><title>10.0.88.125:31112#ServerID_OuterContainerID</title>
<polygon fill="none" stroke="black" points="467,-313 131.515,-295 467,-277 802.485,-295 467,-313"/>
<text text-anchor="middle" x="467" y="-291.3" font-family="Times,serif" font-size="14.00">10.0.88.125:31112#ServerID_OuterContainerID</text>
</g>
<!-- 10.1.80.247:8080#ServerID_OuterContainerID&#45;&gt;10.0.88.125:31112#ServerID_OuterContainerID -->
<g id="edge20" class="edge"><title>10.1.80.247:8080#ServerID_OuterContainerID&#45;&gt;10.0.88.125:31112#ServerID_OuterContainerID</title>
<path fill="none" stroke="black" d="M961.869,-388.843C856.692,-369.11 658.631,-331.952 547.63,-311.127"/>
<polygon fill="black" stroke="black" points="547.968,-307.629 537.494,-309.225 546.677,-314.509 547.968,-307.629"/>
<text text-anchor="middle" x="876" y="-355.8" font-family="Times,serif" font-size="14.00">RESPONSE</text>
</g>
<!-- gateway:8080#ServerID_OuterContainerID&#45;&gt;1_fwatchdog#ServerID_6df85d7674&#45;2kqrj -->
<g id="edge8" class="edge"><title>gateway:8080#ServerID_OuterContainerID&#45;&gt;1_fwatchdog#ServerID_6df85d7674&#45;2kqrj</title>
<path fill="none" stroke="black" d="M2982,-416.441C2918.52,-426.443 2826.55,-440.649 2746,-452 2718.49,-455.877 2711.47,-455.804 2684,-460 2623.06,-469.31 2555.02,-481.281 2500.93,-491.175"/>
<polygon fill="black" stroke="black" points="2500.2,-487.75 2491,-492.997 2501.46,-494.635 2500.2,-487.75"/>
<text text-anchor="middle" x="2726" y="-463.8" font-family="Times,serif" font-size="14.00">RESPONSE</text>
</g>
<!-- 10.1.80.247:56390#ServerID_OuterContainerID&#45;&gt;1_fwatchdog#ServerID_6df85d7674&#45;2kqrj -->
<g id="edge4" class="edge"><title>10.1.80.247:56390#ServerID_OuterContainerID&#45;&gt;1_fwatchdog#ServerID_6df85d7674&#45;2kqrj</title>
<path fill="none" stroke="black" d="M2389.81,-420.692C2382.8,-431.353 2374.67,-445.798 2371,-460 2369.33,-466.455 2368.69,-468.747 2371,-475 2372.23,-478.328 2373.94,-481.554 2375.91,-484.612"/>
<polygon fill="black" stroke="black" points="2373.22,-486.86 2382.04,-492.736 2378.81,-482.644 2373.22,-486.86"/>
<text text-anchor="middle" x="2391" y="-463.8" font-family="Times,serif" font-size="14.00">POST</text>
</g>
<!-- 10_node#ServerID_34e86192c217 -->
<g id="node7" class="node"><title>10_node#ServerID_34e86192c217</title>
<polygon fill="none" stroke="black" points="3849.5,-529 3582.5,-529 3582.5,-493 3849.5,-493 3849.5,-529"/>
<text text-anchor="middle" x="3716" y="-507.3" font-family="Times,serif" font-size="14.00">10_node#ServerID_34e86192c217</text>
</g>
<!-- 10_node#ServerID_34e86192c217&#45;&gt;gateway:8080#ServerID_OuterContainerID -->
<g id="edge14" class="edge"><title>10_node#ServerID_34e86192c217&#45;&gt;gateway:8080#ServerID_OuterContainerID</title>
<path fill="none" stroke="black" d="M3610.6,-492.969C3482.15,-472.213 3267.46,-437.522 3147.64,-418.161"/>
<polygon fill="black" stroke="black" points="3147.84,-414.648 3137.41,-416.508 3146.72,-421.558 3147.84,-414.648"/>
<text text-anchor="middle" x="3515" y="-463.8" font-family="Times,serif" font-size="14.00">connect</text>
</g>
<!-- pipe:[331683264]#ServerID_34e86192c217 -->
<g id="node8" class="node"><title>pipe:[331683264]#ServerID_34e86192c217</title>
<ellipse fill="none" stroke="black" cx="3716" cy="-403" rx="217.162" ry="18"/>
<text text-anchor="middle" x="3716" y="-399.3" font-family="Times,serif" font-size="14.00">pipe:[331683264]#ServerID_34e86192c217</text>
</g>
<!-- 10_node#ServerID_34e86192c217&#45;&gt;pipe:[331683264]#ServerID_34e86192c217 -->
<g id="edge9" class="edge"><title>10_node#ServerID_34e86192c217&#45;&gt;pipe:[331683264]#ServerID_34e86192c217</title>
<path fill="none" stroke="black" d="M3716,-492.969C3716,-476.378 3716,-450.883 3716,-431.431"/>
<polygon fill="black" stroke="black" points="3719.5,-431.341 3716,-421.341 3712.5,-431.341 3719.5,-431.341"/>
<text text-anchor="middle" x="3735" y="-463.8" font-family="Times,serif" font-size="14.00">write</text>
</g>
<!-- localhost:3000#ServerID_34e86192c217 -->
<g id="node9" class="node"><title>localhost:3000#ServerID_34e86192c217</title>
<polygon fill="none" stroke="black" points="4481,-637 4194.45,-619 4481,-601 4767.55,-619 4481,-637"/>
<text text-anchor="middle" x="4481" y="-615.3" font-family="Times,serif" font-size="14.00">localhost:3000#ServerID_34e86192c217</text>
</g>
<!-- localhost:3000#ServerID_34e86192c217&#45;&gt;10_node#ServerID_34e86192c217 -->
<g id="edge10" class="edge"><title>localhost:3000#ServerID_34e86192c217&#45;&gt;10_node#ServerID_34e86192c217</title>
<path fill="none" stroke="black" d="M4396.58,-606.302C4264.16,-587.954 4006.53,-552.256 3849.02,-530.431"/>
<polygon fill="black" stroke="black" points="3849.18,-526.92 3838.79,-529.014 3848.21,-533.853 3849.18,-526.92"/>
<text text-anchor="middle" x="4227.5" y="-571.8" font-family="Times,serif" font-size="14.00">read</text>
</g>
<!-- /etc/hosts#ServerID_34e86192c217 -->
<g id="node10" class="node"><title>/etc/hosts#ServerID_34e86192c217</title>
<ellipse fill="none" stroke="black" cx="3996" cy="-619" rx="180.068" ry="18"/>
<text text-anchor="middle" x="3996" y="-615.3" font-family="Times,serif" font-size="14.00">/etc/hosts#ServerID_34e86192c217</text>
</g>
<!-- /etc/hosts#ServerID_34e86192c217&#45;&gt;10_node#ServerID_34e86192c217 -->
<g id="edge11" class="edge"><title>/etc/hosts#ServerID_34e86192c217&#45;&gt;10_node#ServerID_34e86192c217</title>
<path fill="none" stroke="black" d="M3952.25,-601.438C3903.31,-582.91 3823.95,-552.868 3770.89,-532.779"/>
<polygon fill="black" stroke="black" points="3771.89,-529.416 3761.3,-529.149 3769.41,-535.962 3771.89,-529.416"/>
<text text-anchor="middle" x="3913.5" y="-571.8" font-family="Times,serif" font-size="14.00">read</text>
</g>
<!-- /etc/resolv.conf#ServerID_34e86192c217 -->
<g id="node11" class="node"><title>/etc/resolv.conf#ServerID_34e86192c217</title>
<ellipse fill="none" stroke="black" cx="3593" cy="-619" rx="205.264" ry="18"/>
<text text-anchor="middle" x="3593" y="-615.3" font-family="Times,serif" font-size="14.00">/etc/resolv.conf#ServerID_34e86192c217</text>
</g>
<!-- /etc/resolv.conf#ServerID_34e86192c217&#45;&gt;10_node#ServerID_34e86192c217 -->
<g id="edge12" class="edge"><title>/etc/resolv.conf#ServerID_34e86192c217&#45;&gt;10_node#ServerID_34e86192c217</title>
<path fill="none" stroke="black" d="M3612.76,-600.969C3633.17,-583.379 3665.2,-555.782 3688.17,-535.987"/>
<polygon fill="black" stroke="black" points="3690.59,-538.52 3695.88,-529.341 3686.02,-533.218 3690.59,-538.52"/>
<text text-anchor="middle" x="3666.5" y="-571.8" font-family="Times,serif" font-size="14.00">read</text>
</g>
<!-- 1_fwatchdog#ServerID_e56b6537e2d5 -->
<g id="node12" class="node"><title>1_fwatchdog#ServerID_e56b6537e2d5</title>
<polygon fill="none" stroke="black" points="3755.5,-313 3456.5,-313 3456.5,-277 3755.5,-277 3755.5,-313"/>
<text text-anchor="middle" x="3606" y="-291.3" font-family="Times,serif" font-size="14.00">1_fwatchdog#ServerID_e56b6537e2d5</text>
</g>
<!-- localhost:3000#ServerID_e56b6537e2d5 -->
<g id="node13" class="node"><title>localhost:3000#ServerID_e56b6537e2d5</title>
<polygon fill="none" stroke="black" points="3675,-226 3388.45,-208 3675,-190 3961.55,-208 3675,-226"/>
<text text-anchor="middle" x="3675" y="-204.3" font-family="Times,serif" font-size="14.00">localhost:3000#ServerID_e56b6537e2d5</text>
</g>
<!-- 1_fwatchdog#ServerID_e56b6537e2d5&#45;&gt;localhost:3000#ServerID_e56b6537e2d5 -->
<g id="edge13" class="edge"><title>1_fwatchdog#ServerID_e56b6537e2d5&#45;&gt;localhost:3000#ServerID_e56b6537e2d5</title>
<path fill="none" stroke="black" d="M3619.96,-276.799C3630.17,-264.228 3644.14,-247.014 3655.45,-233.077"/>
<polygon fill="black" stroke="black" points="3658.17,-235.28 3661.76,-225.31 3652.74,-230.868 3658.17,-235.28"/>
<text text-anchor="middle" x="3673" y="-247.8" font-family="Times,serif" font-size="14.00">connect</text>
</g>
<!-- 12_node#ServerID_e56b6537e2d5 -->
<g id="node15" class="node"><title>12_node#ServerID_e56b6537e2d5</title>
<polygon fill="none" stroke="black" points="3808.5,-139 3541.5,-139 3541.5,-103 3808.5,-103 3808.5,-139"/>
<text text-anchor="middle" x="3675" y="-117.3" font-family="Times,serif" font-size="14.00">12_node#ServerID_e56b6537e2d5</text>
</g>
<!-- localhost:3000#ServerID_e56b6537e2d5&#45;&gt;12_node#ServerID_e56b6537e2d5 -->
<g id="edge16" class="edge"><title>localhost:3000#ServerID_e56b6537e2d5&#45;&gt;12_node#ServerID_e56b6537e2d5</title>
<path fill="none" stroke="black" d="M3675,-189.799C3675,-178.163 3675,-162.548 3675,-149.237"/>
<polygon fill="black" stroke="black" points="3678.5,-149.175 3675,-139.175 3671.5,-149.175 3678.5,-149.175"/>
<text text-anchor="middle" x="3691.5" y="-160.8" font-family="Times,serif" font-size="14.00">read</text>
</g>
<!-- 10.1.80.247:58406#ServerID_OuterContainerID -->
<g id="node14" class="node"><title>10.1.80.247:58406#ServerID_OuterContainerID</title>
<polygon fill="none" stroke="black" points="1713,-421 1377.52,-403 1713,-385 2048.48,-403 1713,-421"/>
<text text-anchor="middle" x="1713" y="-399.3" font-family="Times,serif" font-size="14.00">10.1.80.247:58406#ServerID_OuterContainerID</text>
</g>
<!-- 10.1.80.247:58406#ServerID_OuterContainerID&#45;&gt;1_fwatchdog#ServerID_e56b6537e2d5 -->
<g id="edge15" class="edge"><title>10.1.80.247:58406#ServerID_OuterContainerID&#45;&gt;1_fwatchdog#ServerID_e56b6537e2d5</title>
<path fill="none" stroke="black" d="M1836.67,-391.616C1902.37,-386.458 1984.52,-380.58 2058,-377 2643.27,-348.484 2793.94,-411.463 3376,-344 3427.99,-337.975 3485.63,-325.933 3530.21,-315.419"/>
<polygon fill="black" stroke="black" points="3531.17,-318.786 3540.09,-313.062 3529.55,-311.977 3531.17,-318.786"/>
<text text-anchor="middle" x="3292.5" y="-355.8" font-family="Times,serif" font-size="14.00">read</text>
</g>
<!-- pipe:[331682415]#ServerID_e56b6537e2d5 -->
<g id="node16" class="node"><title>pipe:[331682415]#ServerID_e56b6537e2d5</title>
<ellipse fill="none" stroke="black" cx="3675" cy="-34" rx="217.162" ry="18"/>
<text text-anchor="middle" x="3675" y="-30.3" font-family="Times,serif" font-size="14.00">pipe:[331682415]#ServerID_e56b6537e2d5</text>
</g>
<!-- 12_node#ServerID_e56b6537e2d5&#45;&gt;pipe:[331682415]#ServerID_e56b6537e2d5 -->
<g id="edge17" class="edge"><title>12_node#ServerID_e56b6537e2d5&#45;&gt;pipe:[331682415]#ServerID_e56b6537e2d5</title>
<path fill="none" stroke="black" d="M3675,-102.799C3675,-91.1626 3675,-75.5479 3675,-62.2368"/>
<polygon fill="black" stroke="black" points="3678.5,-62.1754 3675,-52.1754 3671.5,-62.1755 3678.5,-62.1754"/>
<text text-anchor="middle" x="3694" y="-73.8" font-family="Times,serif" font-size="14.00">write</text>
</g>
<!-- 10.1.80.1:18837#ServerID_OuterContainerID&#45;&gt;10.1.80.247:8080#ServerID_OuterContainerID -->
<g id="edge19" class="edge"><title>10.1.80.1:18837#ServerID_OuterContainerID&#45;&gt;10.1.80.247:8080#ServerID_OuterContainerID</title>
<path fill="none" stroke="black" d="M1137.77,-313.234C1135.78,-329.024 1130.58,-352.138 1117,-367 1110.98,-373.591 1103.53,-378.973 1095.56,-383.36"/>
<polygon fill="black" stroke="black" points="1093.8,-380.324 1086.4,-387.9 1096.91,-386.597 1093.8,-380.324"/>
<text text-anchor="middle" x="1147" y="-355.8" font-family="Times,serif" font-size="14.00">POST</text>
</g>
</g>
</svg>
