<?xml version="1.0" encoding="UTF-8" standalone="no"?>
<!DOCTYPE svg PUBLIC "-//W3C//DTD SVG 1.1//EN"
 "http://www.w3.org/Graphics/SVG/1.1/DTD/svg11.dtd">
<!-- Generated by graphviz version 2.38.0 (20140413.2041)
 -->
<!-- Title: G Pages: 1 -->
<svg width="6484pt" height="597pt"
 viewBox="0.00 0.00 6484.00 597.00" xmlns="http://www.w3.org/2000/svg" xmlns:xlink="http://www.w3.org/1999/xlink">
<g id="graph0" class="graph" transform="scale(1 1) rotate(0) translate(4 593)">
<title>G</title>
<polygon fill="white" stroke="none" points="-4,4 -4,-593 6480,-593 6480,4 -4,4"/>
<g id="clust1" class="cluster"><title>clusterServerID_34e86192c217</title>
<polygon fill="none" stroke="black" points="3710,-203 3710,-581 5558,-581 5558,-203 3710,-203"/>
<text text-anchor="middle" x="4634" y="-565.8" font-family="Times,serif" font-size="14.00">clusterServerID_34e86192c217</text>
</g>
<g id="clust2" class="cluster"><title>clusterServerID_5f846fd567&#45;w7nbt</title>
<polygon fill="none" stroke="black" points="8,-95 8,-170 348,-170 348,-95 8,-95"/>
<text text-anchor="middle" x="178" y="-154.8" font-family="Times,serif" font-size="14.00">clusterServerID_5f846fd567&#45;w7nbt</text>
</g>
<g id="clust3" class="cluster"><title>clusterServerID_6df85d7674&#45;2kqrj</title>
<polygon fill="none" stroke="black" points="1876,-311 1876,-386 2214,-386 2214,-311 1876,-311"/>
<text text-anchor="middle" x="2045" y="-370.8" font-family="Times,serif" font-size="14.00">clusterServerID_6df85d7674&#45;2kqrj</text>
</g>
<g id="clust4" class="cluster"><title>clusterServerID_OuterContainerID</title>
<polygon fill="none" stroke="black" points="356,-95 356,-278 3702,-278 3702,-95 356,-95"/>
<text text-anchor="middle" x="2029" y="-262.8" font-family="Times,serif" font-size="14.00">clusterServerID_OuterContainerID</text>
</g>
<g id="clust5" class="cluster"><title>clusterServerID_e56b6537e2d5</title>
<polygon fill="none" stroke="black" points="5566,-8 5566,-278 6468,-278 6468,-8 5566,-8"/>
<text text-anchor="middle" x="6017" y="-262.8" font-family="Times,serif" font-size="14.00">clusterServerID_e56b6537e2d5</text>
</g>
<!-- 10.1.80.247:56536#ServerID_OuterContainerID -->
<g id="node1" class="node"><title>10.1.80.247:56536#ServerID_OuterContainerID</title>
<polygon fill="none" stroke="black" points="699,-247 363.515,-229 699,-211 1034.48,-229 699,-247"/>
<text text-anchor="middle" x="699" y="-225.3" font-family="Times,serif" font-size="14.00">10.1.80.247:56536#ServerID_OuterContainerID</text>
</g>
<!-- 1_fwatchdog#ServerID_6df85d7674&#45;2kqrj -->
<g id="node2" class="node"><title>1_fwatchdog#ServerID_6df85d7674&#45;2kqrj</title>
<polygon fill="none" stroke="black" points="2205.5,-355 1884.5,-355 1884.5,-319 2205.5,-319 2205.5,-355"/>
<text text-anchor="middle" x="2045" y="-333.3" font-family="Times,serif" font-size="14.00">1_fwatchdog#ServerID_6df85d7674&#45;2kqrj</text>
</g>
<!-- 10.1.80.247:56536#ServerID_OuterContainerID&#45;&gt;1_fwatchdog#ServerID_6df85d7674&#45;2kqrj -->
<g id="edge1" class="edge"><title>10.1.80.247:56536#ServerID_OuterContainerID&#45;&gt;1_fwatchdog#ServerID_6df85d7674&#45;2kqrj</title>
<path fill="none" stroke="black" d="M777.917,-242.82C847.705,-253.716 952.373,-268.986 1044,-278 1334.75,-306.603 1674.51,-322.631 1874.05,-330.278"/>
<polygon fill="black" stroke="black" points="1874.2,-333.786 1884.33,-330.669 1874.47,-326.791 1874.2,-333.786"/>
<text text-anchor="middle" x="1339" y="-289.8" font-family="Times,serif" font-size="14.00">POST</text>
</g>
<!-- 1_fwatchdog#ServerID_34e86192c217 -->
<g id="node7" class="node"><title>1_fwatchdog#ServerID_34e86192c217</title>
<polygon fill="none" stroke="black" points="4934.5,-550 4635.5,-550 4635.5,-514 4934.5,-514 4934.5,-550"/>
<text text-anchor="middle" x="4785" y="-528.3" font-family="Times,serif" font-size="14.00">1_fwatchdog#ServerID_34e86192c217</text>
</g>
<!-- 10.1.80.247:56536#ServerID_OuterContainerID&#45;&gt;1_fwatchdog#ServerID_34e86192c217 -->
<g id="edge10" class="edge"><title>10.1.80.247:56536#ServerID_OuterContainerID&#45;&gt;1_fwatchdog#ServerID_34e86192c217</title>
<path fill="none" stroke="black" d="M772.056,-243.096C841.681,-254.88 949.595,-271.334 1044,-278 1205.49,-289.403 3796.28,-278.67 3958,-286 4136.39,-294.086 5438.39,-295.304 5559,-427 5569.81,-438.8 5569.81,-451.202 5559,-463 5518.42,-507.307 5159.4,-522.879 4944.86,-528.252"/>
<polygon fill="black" stroke="black" points="4944.67,-524.755 4934.76,-528.5 4944.84,-531.753 4944.67,-524.755"/>
<text text-anchor="middle" x="5546.5" y="-397.8" font-family="Times,serif" font-size="14.00">read</text>
</g>
<!-- 1_fwatchdog#ServerID_6df85d7674&#45;2kqrj&#45;&gt;10.1.80.247:56536#ServerID_OuterContainerID -->
<g id="edge2" class="edge"><title>1_fwatchdog#ServerID_6df85d7674&#45;2kqrj&#45;&gt;10.1.80.247:56536#ServerID_OuterContainerID</title>
<path fill="none" stroke="black" d="M1884.26,-322.023C1746.14,-310.539 1541.61,-294.782 1363,-286 1221.35,-279.035 1185.35,-289.568 1044,-278 955.102,-270.725 854.118,-255.899 784.484,-244.638"/>
<polygon fill="black" stroke="black" points="784.875,-241.156 774.443,-243.004 783.751,-248.065 784.875,-241.156"/>
<text text-anchor="middle" x="1649" y="-289.8" font-family="Times,serif" font-size="14.00">RESPONSE</text>
</g>
<!-- 10.1.80.247:8080#ServerID_OuterContainerID -->
<g id="node5" class="node"><title>10.1.80.247:8080#ServerID_OuterContainerID</title>
<polygon fill="none" stroke="black" points="2695,-247 2367.56,-229 2695,-211 3022.44,-229 2695,-247"/>
<text text-anchor="middle" x="2695" y="-225.3" font-family="Times,serif" font-size="14.00">10.1.80.247:8080#ServerID_OuterContainerID</text>
</g>
<!-- 1_fwatchdog#ServerID_6df85d7674&#45;2kqrj&#45;&gt;10.1.80.247:8080#ServerID_OuterContainerID -->
<g id="edge8" class="edge"><title>1_fwatchdog#ServerID_6df85d7674&#45;2kqrj&#45;&gt;10.1.80.247:8080#ServerID_OuterContainerID</title>
<path fill="none" stroke="black" d="M2205.77,-327.907C2276.2,-322.724 2359.58,-314.362 2434,-301 2506.73,-287.94 2588.66,-264.11 2641.01,-247.684"/>
<polygon fill="black" stroke="black" points="2642.27,-250.956 2650.75,-244.605 2640.16,-244.281 2642.27,-250.956"/>
<text text-anchor="middle" x="2520" y="-289.8" font-family="Times,serif" font-size="14.00">POST</text>
</g>
<!-- gateway:8080#ServerID_OuterContainerID -->
<g id="node6" class="node"><title>gateway:8080#ServerID_OuterContainerID</title>
<polygon fill="none" stroke="black" points="2046,-247 1741.52,-229 2046,-211 2350.48,-229 2046,-247"/>
<text text-anchor="middle" x="2046" y="-225.3" font-family="Times,serif" font-size="14.00">gateway:8080#ServerID_OuterContainerID</text>
</g>
<!-- 1_fwatchdog#ServerID_6df85d7674&#45;2kqrj&#45;&gt;gateway:8080#ServerID_OuterContainerID -->
<g id="edge6" class="edge"><title>1_fwatchdog#ServerID_6df85d7674&#45;2kqrj&#45;&gt;gateway:8080#ServerID_OuterContainerID</title>
<path fill="none" stroke="black" d="M2065.2,-318.928C2069.99,-313.716 2074.44,-307.601 2077,-301 2083.07,-285.366 2075.87,-268.119 2066.89,-254.538"/>
<polygon fill="black" stroke="black" points="2069.55,-252.245 2060.86,-246.197 2063.88,-256.349 2069.55,-252.245"/>
<text text-anchor="middle" x="2100" y="-289.8" font-family="Times,serif" font-size="14.00">POST</text>
</g>
<!-- 10.1.80.247:58498#ServerID_OuterContainerID -->
<g id="node3" class="node"><title>10.1.80.247:58498#ServerID_OuterContainerID</title>
<polygon fill="none" stroke="black" points="1388,-247 1052.52,-229 1388,-211 1723.48,-229 1388,-247"/>
<text text-anchor="middle" x="1388" y="-225.3" font-family="Times,serif" font-size="14.00">10.1.80.247:58498#ServerID_OuterContainerID</text>
</g>
<!-- 1_fwatchdog#ServerID_5f846fd567&#45;w7nbt -->
<g id="node4" class="node"><title>1_fwatchdog#ServerID_5f846fd567&#45;w7nbt</title>
<polygon fill="none" stroke="black" points="340,-139 16,-139 16,-103 340,-103 340,-139"/>
<text text-anchor="middle" x="178" y="-117.3" font-family="Times,serif" font-size="14.00">1_fwatchdog#ServerID_5f846fd567&#45;w7nbt</text>
</g>
<!-- 10.1.80.247:58498#ServerID_OuterContainerID&#45;&gt;1_fwatchdog#ServerID_5f846fd567&#45;w7nbt -->
<g id="edge3" class="edge"><title>10.1.80.247:58498#ServerID_OuterContainerID&#45;&gt;1_fwatchdog#ServerID_5f846fd567&#45;w7nbt</title>
<path fill="none" stroke="black" d="M1283.18,-216.6C1168.76,-204.676 980.1,-186.533 817,-178 713.793,-172.6 454.291,-184.747 352,-170 312.761,-164.343 269.811,-152.555 236.4,-142.076"/>
<polygon fill="black" stroke="black" points="237.388,-138.718 226.797,-139.019 235.264,-145.388 237.388,-138.718"/>
<text text-anchor="middle" x="1042" y="-181.8" font-family="Times,serif" font-size="14.00">POST</text>
</g>
<!-- 1_fwatchdog#ServerID_e56b6537e2d5 -->
<g id="node17" class="node"><title>1_fwatchdog#ServerID_e56b6537e2d5</title>
<polygon fill="none" stroke="black" points="6241.5,-139 5942.5,-139 5942.5,-103 6241.5,-103 6241.5,-139"/>
<text text-anchor="middle" x="6092" y="-117.3" font-family="Times,serif" font-size="14.00">1_fwatchdog#ServerID_e56b6537e2d5</text>
</g>
<!-- 10.1.80.247:58498#ServerID_OuterContainerID&#45;&gt;1_fwatchdog#ServerID_e56b6537e2d5 -->
<g id="edge22" class="edge"><title>10.1.80.247:58498#ServerID_OuterContainerID&#45;&gt;1_fwatchdog#ServerID_e56b6537e2d5</title>
<path fill="none" stroke="black" d="M1507.64,-217.417C1573.98,-212.03 1657.99,-205.999 1733,-203 2025.22,-191.314 2756.56,-195.277 3049,-193 3369.56,-190.504 5617.1,-218.366 5934,-170 5969.67,-164.555 6008.47,-152.86 6038.69,-142.377"/>
<polygon fill="black" stroke="black" points="6039.92,-145.654 6048.18,-139.026 6037.59,-139.053 6039.92,-145.654"/>
<text text-anchor="middle" x="5838.5" y="-181.8" font-family="Times,serif" font-size="14.00">read</text>
</g>
<!-- 1_fwatchdog#ServerID_5f846fd567&#45;w7nbt&#45;&gt;10.1.80.247:58498#ServerID_OuterContainerID -->
<g id="edge4" class="edge"><title>1_fwatchdog#ServerID_5f846fd567&#45;w7nbt&#45;&gt;10.1.80.247:58498#ServerID_OuterContainerID</title>
<path fill="none" stroke="black" d="M228.765,-139.019C263.139,-149.792 309.807,-162.972 352,-170 655.283,-220.516 735.956,-186.993 1043,-203 1112.17,-206.606 1189.03,-212.037 1252.62,-216.916"/>
<polygon fill="black" stroke="black" points="1252.47,-220.415 1262.71,-217.694 1253.01,-213.436 1252.47,-220.415"/>
<text text-anchor="middle" x="567" y="-181.8" font-family="Times,serif" font-size="14.00">RESPONSE</text>
</g>
<!-- 10.1.80.247:8080#ServerID_OuterContainerID&#45;&gt;1_fwatchdog#ServerID_6df85d7674&#45;2kqrj -->
<g id="edge5" class="edge"><title>10.1.80.247:8080#ServerID_OuterContainerID&#45;&gt;1_fwatchdog#ServerID_6df85d7674&#45;2kqrj</title>
<path fill="none" stroke="black" d="M2616.55,-242.698C2546.62,-254.025 2441.48,-271.077 2350,-286 2286.8,-296.309 2216.25,-307.872 2158.93,-317.279"/>
<polygon fill="black" stroke="black" points="2158.05,-313.876 2148.75,-318.95 2159.19,-320.784 2158.05,-313.876"/>
<text text-anchor="middle" x="2392" y="-289.8" font-family="Times,serif" font-size="14.00">RESPONSE</text>
</g>
<!-- 10.1.80.1:64153#ServerID_OuterContainerID -->
<g id="node20" class="node"><title>10.1.80.1:64153#ServerID_OuterContainerID</title>
<polygon fill="none" stroke="black" points="2588,-139 2269.1,-121 2588,-103 2906.9,-121 2588,-139"/>
<text text-anchor="middle" x="2588" y="-117.3" font-family="Times,serif" font-size="14.00">10.1.80.1:64153#ServerID_OuterContainerID</text>
</g>
<!-- 10.1.80.247:8080#ServerID_OuterContainerID&#45;&gt;10.1.80.1:64153#ServerID_OuterContainerID -->
<g id="edge26" class="edge"><title>10.1.80.247:8080#ServerID_OuterContainerID&#45;&gt;10.1.80.1:64153#ServerID_OuterContainerID</title>
<path fill="none" stroke="black" d="M2617.68,-215.223C2606.47,-210.075 2596.28,-202.922 2589,-193 2579.85,-180.523 2579.43,-163.21 2581.38,-148.805"/>
<polygon fill="black" stroke="black" points="2584.83,-149.397 2583.13,-138.94 2577.94,-148.175 2584.83,-149.397"/>
<text text-anchor="middle" x="2631" y="-181.8" font-family="Times,serif" font-size="14.00">RESPONSE</text>
</g>
<!-- 10.0.88.125:31112#ServerID_OuterContainerID -->
<g id="node21" class="node"><title>10.0.88.125:31112#ServerID_OuterContainerID</title>
<polygon fill="none" stroke="black" points="3260,-139 2924.52,-121 3260,-103 3595.48,-121 3260,-139"/>
<text text-anchor="middle" x="3260" y="-117.3" font-family="Times,serif" font-size="14.00">10.0.88.125:31112#ServerID_OuterContainerID</text>
</g>
<!-- 10.1.80.247:8080#ServerID_OuterContainerID&#45;&gt;10.0.88.125:31112#ServerID_OuterContainerID -->
<g id="edge28" class="edge"><title>10.1.80.247:8080#ServerID_OuterContainerID&#45;&gt;10.0.88.125:31112#ServerID_OuterContainerID</title>
<path fill="none" stroke="black" d="M2765.13,-214.843C2870.31,-195.11 3068.37,-157.952 3179.37,-137.127"/>
<polygon fill="black" stroke="black" points="3180.32,-140.509 3189.51,-135.225 3179.03,-133.629 3180.32,-140.509"/>
<text text-anchor="middle" x="3003" y="-181.8" font-family="Times,serif" font-size="14.00">RESPONSE</text>
</g>
<!-- gateway:8080#ServerID_OuterContainerID&#45;&gt;1_fwatchdog#ServerID_6df85d7674&#45;2kqrj -->
<g id="edge7" class="edge"><title>gateway:8080#ServerID_OuterContainerID&#45;&gt;1_fwatchdog#ServerID_6df85d7674&#45;2kqrj</title>
<path fill="none" stroke="black" d="M2022.65,-245.719C2010.12,-255.625 1995.87,-269.625 1989,-286 1984.67,-296.319 1989.55,-305.34 1997.93,-312.773"/>
<polygon fill="black" stroke="black" points="1995.97,-315.677 2006.07,-318.889 2000.18,-310.082 1995.97,-315.677"/>
<text text-anchor="middle" x="2031" y="-289.8" font-family="Times,serif" font-size="14.00">RESPONSE</text>
</g>
<!-- localhost:3000#ServerID_34e86192c217 -->
<g id="node8" class="node"><title>localhost:3000#ServerID_34e86192c217</title>
<polygon fill="none" stroke="black" points="4383,-463 4096.45,-445 4383,-427 4669.55,-445 4383,-463"/>
<text text-anchor="middle" x="4383" y="-441.3" font-family="Times,serif" font-size="14.00">localhost:3000#ServerID_34e86192c217</text>
</g>
<!-- 1_fwatchdog#ServerID_34e86192c217&#45;&gt;localhost:3000#ServerID_34e86192c217 -->
<g id="edge9" class="edge"><title>1_fwatchdog#ServerID_34e86192c217&#45;&gt;localhost:3000#ServerID_34e86192c217</title>
<path fill="none" stroke="black" d="M4685.65,-513.932C4655.8,-508.524 4623.01,-502.303 4593,-496 4543.6,-485.623 4488.04,-472.323 4446.49,-462.05"/>
<polygon fill="black" stroke="black" points="4447.32,-458.651 4436.77,-459.64 4445.64,-465.445 4447.32,-458.651"/>
<text text-anchor="middle" x="4612" y="-484.8" font-family="Times,serif" font-size="14.00">write</text>
</g>
<!-- pipe:[331683132]#ServerID_34e86192c217 -->
<g id="node9" class="node"><title>pipe:[331683132]#ServerID_34e86192c217</title>
<ellipse fill="none" stroke="black" cx="5333" cy="-445" rx="217.162" ry="18"/>
<text text-anchor="middle" x="5333" y="-441.3" font-family="Times,serif" font-size="14.00">pipe:[331683132]#ServerID_34e86192c217</text>
</g>
<!-- 1_fwatchdog#ServerID_34e86192c217&#45;&gt;pipe:[331683132]#ServerID_34e86192c217 -->
<g id="edge12" class="edge"><title>1_fwatchdog#ServerID_34e86192c217&#45;&gt;pipe:[331683132]#ServerID_34e86192c217</title>
<path fill="none" stroke="black" d="M4894.91,-513.952C4991.17,-499.021 5130.22,-477.454 5225.7,-462.643"/>
<polygon fill="black" stroke="black" points="5226.32,-466.089 5235.67,-461.097 5225.25,-459.171 5226.32,-466.089"/>
<text text-anchor="middle" x="5111" y="-484.8" font-family="Times,serif" font-size="14.00">write</text>
</g>
<!-- localhost:3000#ServerID_34e86192c217&#45;&gt;1_fwatchdog#ServerID_34e86192c217 -->
<g id="edge11" class="edge"><title>localhost:3000#ServerID_34e86192c217&#45;&gt;1_fwatchdog#ServerID_34e86192c217</title>
<path fill="none" stroke="black" d="M4486.6,-456.546C4531.34,-462.147 4584.08,-470.159 4631,-481 4664.34,-488.704 4700.8,-500.388 4729.87,-510.524"/>
<polygon fill="black" stroke="black" points="4728.83,-513.87 4739.43,-513.894 4731.16,-507.268 4728.83,-513.87"/>
<text text-anchor="middle" x="4699.5" y="-484.8" font-family="Times,serif" font-size="14.00">read</text>
</g>
<!-- 10_node#ServerID_34e86192c217 -->
<g id="node10" class="node"><title>10_node#ServerID_34e86192c217</title>
<polygon fill="none" stroke="black" points="4031.5,-355 3764.5,-355 3764.5,-319 4031.5,-319 4031.5,-355"/>
<text text-anchor="middle" x="3898" y="-333.3" font-family="Times,serif" font-size="14.00">10_node#ServerID_34e86192c217</text>
</g>
<!-- localhost:3000#ServerID_34e86192c217&#45;&gt;10_node#ServerID_34e86192c217 -->
<g id="edge25" class="edge"><title>localhost:3000#ServerID_34e86192c217&#45;&gt;10_node#ServerID_34e86192c217</title>
<path fill="none" stroke="black" d="M4322.56,-430.789C4237.86,-412.278 4083.33,-378.506 3985.91,-357.213"/>
<polygon fill="black" stroke="black" points="3986.59,-353.78 3976.08,-355.064 3985.1,-360.619 3986.59,-353.78"/>
<text text-anchor="middle" x="4229.5" y="-397.8" font-family="Times,serif" font-size="14.00">read</text>
</g>
<!-- 10_node#ServerID_34e86192c217&#45;&gt;gateway:8080#ServerID_OuterContainerID -->
<g id="edge19" class="edge"><title>10_node#ServerID_34e86192c217&#45;&gt;gateway:8080#ServerID_OuterContainerID</title>
<path fill="none" stroke="black" d="M3764.28,-331.164C3396.34,-317.83 2393.75,-281.308 2359,-278 2279,-270.383 2188.31,-255.814 2125.22,-244.716"/>
<polygon fill="black" stroke="black" points="2125.79,-241.264 2115.33,-242.967 2124.57,-248.156 2125.79,-241.264"/>
<text text-anchor="middle" x="2949" y="-289.8" font-family="Times,serif" font-size="14.00">connect</text>
</g>
<!-- pipe:[331683264]#ServerID_34e86192c217 -->
<g id="node11" class="node"><title>pipe:[331683264]#ServerID_34e86192c217</title>
<ellipse fill="none" stroke="black" cx="3935" cy="-229" rx="217.162" ry="18"/>
<text text-anchor="middle" x="3935" y="-225.3" font-family="Times,serif" font-size="14.00">pipe:[331683264]#ServerID_34e86192c217</text>
</g>
<!-- 10_node#ServerID_34e86192c217&#45;&gt;pipe:[331683264]#ServerID_34e86192c217 -->
<g id="edge13" class="edge"><title>10_node#ServerID_34e86192c217&#45;&gt;pipe:[331683264]#ServerID_34e86192c217</title>
<path fill="none" stroke="black" d="M3903.94,-318.969C3909.79,-302.224 3918.8,-276.41 3925.61,-256.892"/>
<polygon fill="black" stroke="black" points="3928.96,-257.935 3928.95,-247.341 3922.35,-255.629 3928.96,-257.935"/>
<text text-anchor="middle" x="3935" y="-289.8" font-family="Times,serif" font-size="14.00">write</text>
</g>
<!-- 10.152.183.10:53#ServerID_OuterContainerID -->
<g id="node12" class="node"><title>10.152.183.10:53#ServerID_OuterContainerID</title>
<polygon fill="none" stroke="black" points="3367,-247 3039.56,-229 3367,-211 3694.44,-229 3367,-247"/>
<text text-anchor="middle" x="3367" y="-225.3" font-family="Times,serif" font-size="14.00">10.152.183.10:53#ServerID_OuterContainerID</text>
</g>
<!-- 10_node#ServerID_34e86192c217&#45;&gt;10.152.183.10:53#ServerID_OuterContainerID -->
<g id="edge14" class="edge"><title>10_node#ServerID_34e86192c217&#45;&gt;10.152.183.10:53#ServerID_OuterContainerID</title>
<path fill="none" stroke="black" d="M3812.69,-318.969C3710.79,-298.629 3541.86,-264.905 3443.85,-245.342"/>
<polygon fill="black" stroke="black" points="3444.51,-241.903 3434.01,-243.378 3443.14,-248.768 3444.51,-241.903"/>
<text text-anchor="middle" x="3736.5" y="-289.8" font-family="Times,serif" font-size="14.00">sendto</text>
</g>
<!-- 10.152.183.10:53#ServerID_OuterContainerID&#45;&gt;10_node#ServerID_34e86192c217 -->
<g id="edge18" class="edge"><title>10.152.183.10:53#ServerID_OuterContainerID&#45;&gt;10_node#ServerID_34e86192c217</title>
<path fill="none" stroke="black" d="M3403.85,-245.03C3445.61,-261.427 3516.07,-287.177 3579,-301 3635.61,-313.434 3698.88,-321.542 3754.06,-326.787"/>
<polygon fill="black" stroke="black" points="3753.99,-330.295 3764.27,-327.733 3754.63,-323.325 3753.99,-330.295"/>
<text text-anchor="middle" x="3612" y="-289.8" font-family="Times,serif" font-size="14.00">recvfrom</text>
</g>
<!-- /etc/resolv.conf#ServerID_34e86192c217 -->
<g id="node13" class="node"><title>/etc/resolv.conf#ServerID_34e86192c217</title>
<ellipse fill="none" stroke="black" cx="4893" cy="-445" rx="205.264" ry="18"/>
<text text-anchor="middle" x="4893" y="-441.3" font-family="Times,serif" font-size="14.00">/etc/resolv.conf#ServerID_34e86192c217</text>
</g>
<!-- /etc/resolv.conf#ServerID_34e86192c217&#45;&gt;10_node#ServerID_34e86192c217 -->
<g id="edge15" class="edge"><title>/etc/resolv.conf#ServerID_34e86192c217&#45;&gt;10_node#ServerID_34e86192c217</title>
<path fill="none" stroke="black" d="M4767.99,-430.682C4582.92,-410.966 4236.92,-374.106 4041.66,-353.304"/>
<polygon fill="black" stroke="black" points="4041.93,-349.813 4031.61,-352.234 4041.19,-356.774 4041.93,-349.813"/>
<text text-anchor="middle" x="4559.5" y="-397.8" font-family="Times,serif" font-size="14.00">read</text>
</g>
<!-- /etc/hosts#ServerID_34e86192c217 -->
<g id="node14" class="node"><title>/etc/hosts#ServerID_34e86192c217</title>
<ellipse fill="none" stroke="black" cx="3898" cy="-445" rx="180.068" ry="18"/>
<text text-anchor="middle" x="3898" y="-441.3" font-family="Times,serif" font-size="14.00">/etc/hosts#ServerID_34e86192c217</text>
</g>
<!-- /etc/hosts#ServerID_34e86192c217&#45;&gt;10_node#ServerID_34e86192c217 -->
<g id="edge16" class="edge"><title>/etc/hosts#ServerID_34e86192c217&#45;&gt;10_node#ServerID_34e86192c217</title>
<path fill="none" stroke="black" d="M3898,-426.969C3898,-410.378 3898,-384.883 3898,-365.431"/>
<polygon fill="black" stroke="black" points="3901.5,-365.341 3898,-355.341 3894.5,-365.341 3901.5,-365.341"/>
<text text-anchor="middle" x="3914.5" y="-397.8" font-family="Times,serif" font-size="14.00">read</text>
</g>
<!-- localhost:3000#ServerID_e56b6537e2d5 -->
<g id="node15" class="node"><title>localhost:3000#ServerID_e56b6537e2d5</title>
<polygon fill="none" stroke="black" points="6036,-247 5749.45,-229 6036,-211 6322.55,-229 6036,-247"/>
<text text-anchor="middle" x="6036" y="-225.3" font-family="Times,serif" font-size="14.00">localhost:3000#ServerID_e56b6537e2d5</text>
</g>
<!-- 12_node#ServerID_e56b6537e2d5 -->
<g id="node16" class="node"><title>12_node#ServerID_e56b6537e2d5</title>
<polygon fill="none" stroke="black" points="5924.5,-139 5657.5,-139 5657.5,-103 5924.5,-103 5924.5,-139"/>
<text text-anchor="middle" x="5791" y="-117.3" font-family="Times,serif" font-size="14.00">12_node#ServerID_e56b6537e2d5</text>
</g>
<!-- localhost:3000#ServerID_e56b6537e2d5&#45;&gt;12_node#ServerID_e56b6537e2d5 -->
<g id="edge17" class="edge"><title>localhost:3000#ServerID_e56b6537e2d5&#45;&gt;12_node#ServerID_e56b6537e2d5</title>
<path fill="none" stroke="black" d="M6001.68,-213.15C5959.45,-194.881 5887.49,-163.748 5839.6,-143.027"/>
<polygon fill="black" stroke="black" points="5840.93,-139.787 5830.36,-139.028 5838.15,-146.212 5840.93,-139.787"/>
<text text-anchor="middle" x="5965.5" y="-181.8" font-family="Times,serif" font-size="14.00">read</text>
</g>
<!-- localhost:3000#ServerID_e56b6537e2d5&#45;&gt;1_fwatchdog#ServerID_e56b6537e2d5 -->
<g id="edge24" class="edge"><title>localhost:3000#ServerID_e56b6537e2d5&#45;&gt;1_fwatchdog#ServerID_e56b6537e2d5</title>
<path fill="none" stroke="black" d="M6031.29,-211.135C6029.38,-201.119 6028.54,-188.387 6033,-178 6038.32,-165.611 6047.88,-154.674 6057.78,-145.829"/>
<polygon fill="black" stroke="black" points="6060.28,-148.295 6065.71,-139.196 6055.79,-142.925 6060.28,-148.295"/>
<text text-anchor="middle" x="6049.5" y="-181.8" font-family="Times,serif" font-size="14.00">read</text>
</g>
<!-- pipe:[331682415]#ServerID_e56b6537e2d5 -->
<g id="node18" class="node"><title>pipe:[331682415]#ServerID_e56b6537e2d5</title>
<ellipse fill="none" stroke="black" cx="5791" cy="-34" rx="217.162" ry="18"/>
<text text-anchor="middle" x="5791" y="-30.3" font-family="Times,serif" font-size="14.00">pipe:[331682415]#ServerID_e56b6537e2d5</text>
</g>
<!-- 12_node#ServerID_e56b6537e2d5&#45;&gt;pipe:[331682415]#ServerID_e56b6537e2d5 -->
<g id="edge21" class="edge"><title>12_node#ServerID_e56b6537e2d5&#45;&gt;pipe:[331682415]#ServerID_e56b6537e2d5</title>
<path fill="none" stroke="black" d="M5791,-102.799C5791,-91.1626 5791,-75.5479 5791,-62.2368"/>
<polygon fill="black" stroke="black" points="5794.5,-62.1754 5791,-52.1754 5787.5,-62.1755 5794.5,-62.1754"/>
<text text-anchor="middle" x="5810" y="-73.8" font-family="Times,serif" font-size="14.00">write</text>
</g>
<!-- 1_fwatchdog#ServerID_e56b6537e2d5&#45;&gt;localhost:3000#ServerID_e56b6537e2d5 -->
<g id="edge20" class="edge"><title>1_fwatchdog#ServerID_e56b6537e2d5&#45;&gt;localhost:3000#ServerID_e56b6537e2d5</title>
<path fill="none" stroke="black" d="M6089.01,-139.281C6085.89,-154.265 6080.01,-176.133 6070,-193 6067.65,-196.959 6064.77,-200.814 6061.68,-204.431"/>
<polygon fill="black" stroke="black" points="6058.97,-202.207 6054.73,-211.918 6064.1,-206.969 6058.97,-202.207"/>
<text text-anchor="middle" x="6096" y="-181.8" font-family="Times,serif" font-size="14.00">write</text>
</g>
<!-- pipe:[331682317]#ServerID_e56b6537e2d5 -->
<g id="node19" class="node"><title>pipe:[331682317]#ServerID_e56b6537e2d5</title>
<ellipse fill="none" stroke="black" cx="6243" cy="-34" rx="217.162" ry="18"/>
<text text-anchor="middle" x="6243" y="-30.3" font-family="Times,serif" font-size="14.00">pipe:[331682317]#ServerID_e56b6537e2d5</text>
</g>
<!-- 1_fwatchdog#ServerID_e56b6537e2d5&#45;&gt;pipe:[331682317]#ServerID_e56b6537e2d5 -->
<g id="edge23" class="edge"><title>1_fwatchdog#ServerID_e56b6537e2d5&#45;&gt;pipe:[331682317]#ServerID_e56b6537e2d5</title>
<path fill="none" stroke="black" d="M6122.56,-102.799C6146.04,-89.5784 6178.65,-71.2227 6204.02,-56.9443"/>
<polygon fill="black" stroke="black" points="6206.01,-59.8407 6213,-51.8854 6202.57,-53.7408 6206.01,-59.8407"/>
<text text-anchor="middle" x="6195" y="-73.8" font-family="Times,serif" font-size="14.00">write</text>
</g>
<!-- 10.1.80.1:64153#ServerID_OuterContainerID&#45;&gt;10.1.80.247:8080#ServerID_OuterContainerID -->
<g id="edge27" class="edge"><title>10.1.80.1:64153#ServerID_OuterContainerID&#45;&gt;10.1.80.247:8080#ServerID_OuterContainerID</title>
<path fill="none" stroke="black" d="M2619.97,-137.267C2637.49,-146.938 2658.52,-160.854 2673,-178 2678.74,-184.799 2683.23,-193.332 2686.61,-201.415"/>
<polygon fill="black" stroke="black" points="2683.39,-202.787 2690.2,-210.903 2689.94,-200.311 2683.39,-202.787"/>
<text text-anchor="middle" x="2703" y="-181.8" font-family="Times,serif" font-size="14.00">POST</text>
</g>
</g>
</svg>
