<?xml version="1.0" encoding="UTF-8" standalone="no"?>
<!DOCTYPE svg PUBLIC "-//W3C//DTD SVG 1.1//EN"
 "http://www.w3.org/Graphics/SVG/1.1/DTD/svg11.dtd">
<!-- Generated by graphviz version 2.38.0 (20140413.2041)
 -->
<!-- Title: G Pages: 1 -->
<svg width="5652pt" height="645pt"
 viewBox="0.00 0.00 5652.00 645.00" xmlns="http://www.w3.org/2000/svg" xmlns:xlink="http://www.w3.org/1999/xlink">
<g id="graph0" class="graph" transform="scale(1 1) rotate(0) translate(4 641)">
<title>G</title>
<polygon fill="white" stroke="none" points="-4,4 -4,-641 5648,-641 5648,4 -4,4"/>
<g id="clust1" class="cluster"><title>clusterServerID_34e86192c217</title>
<polygon fill="none" stroke="black" points="8,-182 8,-498 1336,-498 1336,-182 8,-182"/>
<text text-anchor="middle" x="672" y="-482.8" font-family="Times,serif" font-size="14.00">clusterServerID_34e86192c217</text>
</g>
<g id="clust2" class="cluster"><title>clusterServerID_5f846fd567&#45;w7nbt</title>
<polygon fill="none" stroke="black" points="4698,-269 4698,-367 5038,-367 5038,-269 4698,-269"/>
<text text-anchor="middle" x="4868" y="-351.8" font-family="Times,serif" font-size="14.00">clusterServerID_5f846fd567&#45;w7nbt</text>
</g>
<g id="clust3" class="cluster"><title>clusterServerID_6df85d7674&#45;2kqrj</title>
<polygon fill="none" stroke="black" points="2807,-531 2807,-629 3145,-629 3145,-531 2807,-531"/>
<text text-anchor="middle" x="2976" y="-613.8" font-family="Times,serif" font-size="14.00">clusterServerID_6df85d7674&#45;2kqrj</text>
</g>
<g id="clust4" class="cluster"><title>clusterServerID_OuterContainerID</title>
<polygon fill="none" stroke="black" points="1344,-269 1344,-498 4690,-498 4690,-269 1344,-269"/>
<text text-anchor="middle" x="3017" y="-482.8" font-family="Times,serif" font-size="14.00">clusterServerID_OuterContainerID</text>
</g>
<g id="clust5" class="cluster"><title>clusterServerID_e56b6537e2d5</title>
<polygon fill="none" stroke="black" points="5046,-8 5046,-367 5636,-367 5636,-8 5046,-8"/>
<text text-anchor="middle" x="5341" y="-351.8" font-family="Times,serif" font-size="14.00">clusterServerID_e56b6537e2d5</text>
</g>
<!-- 10.1.80.247:8080#ServerID_OuterContainerID -->
<g id="node1" class="node"><title>10.1.80.247:8080#ServerID_OuterContainerID</title>
<polygon fill="none" stroke="black" points="2977,-444 2649.56,-426 2977,-408 3304.44,-426 2977,-444"/>
<text text-anchor="middle" x="2977" y="-422.3" font-family="Times,serif" font-size="14.00">10.1.80.247:8080#ServerID_OuterContainerID</text>
</g>
<!-- 1_fwatchdog#ServerID_6df85d7674&#45;2kqrj -->
<g id="node2" class="node"><title>1_fwatchdog#ServerID_6df85d7674&#45;2kqrj</title>
<polygon fill="none" stroke="black" points="3136.5,-575 2815.5,-575 2815.5,-539 3136.5,-539 3136.5,-575"/>
<text text-anchor="middle" x="2976" y="-553.3" font-family="Times,serif" font-size="14.00">1_fwatchdog#ServerID_6df85d7674&#45;2kqrj</text>
</g>
<!-- 10.1.80.247:8080#ServerID_OuterContainerID&#45;&gt;1_fwatchdog#ServerID_6df85d7674&#45;2kqrj -->
<g id="edge1" class="edge"><title>10.1.80.247:8080#ServerID_OuterContainerID&#45;&gt;1_fwatchdog#ServerID_6df85d7674&#45;2kqrj</title>
<path fill="none" stroke="black" d="M2961.74,-443.335C2948.85,-458.329 2931.36,-481.826 2924,-506 2922.06,-512.378 2920.87,-515.115 2924,-521 2926.19,-525.11 2929.1,-528.823 2932.42,-532.158"/>
<polygon fill="black" stroke="black" points="2930.39,-535.021 2940.26,-538.861 2934.94,-529.701 2930.39,-535.021"/>
<text text-anchor="middle" x="2966" y="-509.8" font-family="Times,serif" font-size="14.00">RESPONSE</text>
</g>
<!-- 10.1.80.1:36514#ServerID_OuterContainerID -->
<g id="node19" class="node"><title>10.1.80.1:36514#ServerID_OuterContainerID</title>
<polygon fill="none" stroke="black" points="2870,-313 2551.1,-295 2870,-277 3188.9,-295 2870,-313"/>
<text text-anchor="middle" x="2870" y="-291.3" font-family="Times,serif" font-size="14.00">10.1.80.1:36514#ServerID_OuterContainerID</text>
</g>
<!-- 10.1.80.247:8080#ServerID_OuterContainerID&#45;&gt;10.1.80.1:36514#ServerID_OuterContainerID -->
<g id="edge25" class="edge"><title>10.1.80.247:8080#ServerID_OuterContainerID&#45;&gt;10.1.80.1:36514#ServerID_OuterContainerID</title>
<path fill="none" stroke="black" d="M2895.87,-412.444C2884.57,-407.254 2874.33,-400.03 2867,-390 2852.97,-370.808 2855.87,-343.035 2860.98,-322.653"/>
<polygon fill="black" stroke="black" points="2864.43,-323.328 2863.78,-312.753 2857.69,-321.425 2864.43,-323.328"/>
<text text-anchor="middle" x="2909" y="-378.8" font-family="Times,serif" font-size="14.00">RESPONSE</text>
</g>
<!-- 10.0.88.125:31112#ServerID_OuterContainerID -->
<g id="node20" class="node"><title>10.0.88.125:31112#ServerID_OuterContainerID</title>
<polygon fill="none" stroke="black" points="3542,-313 3206.52,-295 3542,-277 3877.48,-295 3542,-313"/>
<text text-anchor="middle" x="3542" y="-291.3" font-family="Times,serif" font-size="14.00">10.0.88.125:31112#ServerID_OuterContainerID</text>
</g>
<!-- 10.1.80.247:8080#ServerID_OuterContainerID&#45;&gt;10.0.88.125:31112#ServerID_OuterContainerID -->
<g id="edge26" class="edge"><title>10.1.80.247:8080#ServerID_OuterContainerID&#45;&gt;10.0.88.125:31112#ServerID_OuterContainerID</title>
<path fill="none" stroke="black" d="M3037.2,-411.256C3142.5,-387.214 3359.56,-337.655 3471.62,-312.069"/>
<polygon fill="black" stroke="black" points="3472.51,-315.457 3481.48,-309.819 3470.95,-308.633 3472.51,-315.457"/>
<text text-anchor="middle" x="3235" y="-378.8" font-family="Times,serif" font-size="14.00">RESPONSE</text>
</g>
<!-- 1_fwatchdog#ServerID_6df85d7674&#45;2kqrj&#45;&gt;10.1.80.247:8080#ServerID_OuterContainerID -->
<g id="edge7" class="edge"><title>1_fwatchdog#ServerID_6df85d7674&#45;2kqrj&#45;&gt;10.1.80.247:8080#ServerID_OuterContainerID</title>
<path fill="none" stroke="black" d="M2996.2,-538.928C3000.99,-533.716 3005.44,-527.601 3008,-521 3016.93,-498.01 3006.1,-471.254 2994.87,-452.18"/>
<polygon fill="black" stroke="black" points="2997.68,-450.089 2989.4,-443.484 2991.76,-453.814 2997.68,-450.089"/>
<text text-anchor="middle" x="3032" y="-509.8" font-family="Times,serif" font-size="14.00">POST</text>
</g>
<!-- gateway:8080#ServerID_OuterContainerID -->
<g id="node3" class="node"><title>gateway:8080#ServerID_OuterContainerID</title>
<polygon fill="none" stroke="black" points="1656,-444 1351.52,-426 1656,-408 1960.48,-426 1656,-444"/>
<text text-anchor="middle" x="1656" y="-422.3" font-family="Times,serif" font-size="14.00">gateway:8080#ServerID_OuterContainerID</text>
</g>
<!-- 1_fwatchdog#ServerID_6df85d7674&#45;2kqrj&#45;&gt;gateway:8080#ServerID_OuterContainerID -->
<g id="edge6" class="edge"><title>1_fwatchdog#ServerID_6df85d7674&#45;2kqrj&#45;&gt;gateway:8080#ServerID_OuterContainerID</title>
<path fill="none" stroke="black" d="M2815.27,-553.179C2595.46,-548.732 2212.54,-538.72 2074,-521 2026.61,-514.939 2015.63,-508.395 1969,-498 1884.98,-479.269 1788.38,-457.289 1724.99,-442.803"/>
<polygon fill="black" stroke="black" points="1725.63,-439.36 1715.1,-440.544 1724.07,-446.184 1725.63,-439.36"/>
<text text-anchor="middle" x="2094" y="-509.8" font-family="Times,serif" font-size="14.00">POST</text>
</g>
<!-- 10.1.80.247:56388#ServerID_OuterContainerID -->
<g id="node4" class="node"><title>10.1.80.247:56388#ServerID_OuterContainerID</title>
<polygon fill="none" stroke="black" points="4347,-444 4011.52,-426 4347,-408 4682.48,-426 4347,-444"/>
<text text-anchor="middle" x="4347" y="-422.3" font-family="Times,serif" font-size="14.00">10.1.80.247:56388#ServerID_OuterContainerID</text>
</g>
<!-- 1_fwatchdog#ServerID_6df85d7674&#45;2kqrj&#45;&gt;10.1.80.247:56388#ServerID_OuterContainerID -->
<g id="edge8" class="edge"><title>1_fwatchdog#ServerID_6df85d7674&#45;2kqrj&#45;&gt;10.1.80.247:56388#ServerID_OuterContainerID</title>
<path fill="none" stroke="black" d="M3136.71,-544.032C3292.81,-532.776 3536.54,-516.175 3748,-506 3860.81,-500.572 3889.83,-511.21 4002,-498 4101.13,-486.326 4214.1,-460.676 4282.96,-443.617"/>
<polygon fill="black" stroke="black" points="4283.94,-446.981 4292.8,-441.165 4282.25,-440.188 4283.94,-446.981"/>
<text text-anchor="middle" x="3790" y="-509.8" font-family="Times,serif" font-size="14.00">RESPONSE</text>
</g>
<!-- gateway:8080#ServerID_OuterContainerID&#45;&gt;1_fwatchdog#ServerID_6df85d7674&#45;2kqrj -->
<g id="edge2" class="edge"><title>gateway:8080#ServerID_OuterContainerID&#45;&gt;1_fwatchdog#ServerID_6df85d7674&#45;2kqrj</title>
<path fill="none" stroke="black" d="M1705.37,-441.105C1766.63,-457.929 1874.56,-485.363 1969,-498 2051.01,-508.974 2072.37,-501.707 2155,-506 2379.71,-517.674 2638.85,-533.921 2804.89,-544.688"/>
<polygon fill="black" stroke="black" points="2804.99,-548.201 2815.2,-545.357 2805.45,-541.216 2804.99,-548.201"/>
<text text-anchor="middle" x="2446" y="-509.8" font-family="Times,serif" font-size="14.00">RESPONSE</text>
</g>
<!-- 10_node#ServerID_34e86192c217 -->
<g id="node10" class="node"><title>10_node#ServerID_34e86192c217</title>
<polygon fill="none" stroke="black" points="1327.5,-313 1060.5,-313 1060.5,-277 1327.5,-277 1327.5,-313"/>
<text text-anchor="middle" x="1194" y="-291.3" font-family="Times,serif" font-size="14.00">10_node#ServerID_34e86192c217</text>
</g>
<!-- gateway:8080#ServerID_OuterContainerID&#45;&gt;10_node#ServerID_34e86192c217 -->
<g id="edge14" class="edge"><title>gateway:8080#ServerID_OuterContainerID&#45;&gt;10_node#ServerID_34e86192c217</title>
<path fill="none" stroke="black" d="M1556.78,-413.816C1493.65,-404.992 1410.75,-390.217 1340,-367 1301.82,-354.471 1260.88,-333.876 1232.1,-318.085"/>
<polygon fill="black" stroke="black" points="1233.65,-314.939 1223.2,-313.144 1230.25,-321.059 1233.65,-314.939"/>
<text text-anchor="middle" x="1433.5" y="-378.8" font-family="Times,serif" font-size="14.00">read</text>
</g>
<!-- 10.1.80.247:56388#ServerID_OuterContainerID&#45;&gt;1_fwatchdog#ServerID_6df85d7674&#45;2kqrj -->
<g id="edge3" class="edge"><title>10.1.80.247:56388#ServerID_OuterContainerID&#45;&gt;1_fwatchdog#ServerID_6df85d7674&#45;2kqrj</title>
<path fill="none" stroke="black" d="M4288.41,-440.909C4220.03,-456.712 4103.38,-482.333 4002,-498 3703.55,-544.123 3351.22,-554.61 3146.74,-556.421"/>
<polygon fill="black" stroke="black" points="3146.48,-552.923 3136.51,-556.506 3146.54,-559.923 3146.48,-552.923"/>
<text text-anchor="middle" x="3940" y="-509.8" font-family="Times,serif" font-size="14.00">POST</text>
</g>
<!-- 1_fwatchdog#ServerID_34e86192c217 -->
<g id="node7" class="node"><title>1_fwatchdog#ServerID_34e86192c217</title>
<polygon fill="none" stroke="black" points="521.5,-444 222.5,-444 222.5,-408 521.5,-408 521.5,-444"/>
<text text-anchor="middle" x="372" y="-422.3" font-family="Times,serif" font-size="14.00">1_fwatchdog#ServerID_34e86192c217</text>
</g>
<!-- 10.1.80.247:56388#ServerID_OuterContainerID&#45;&gt;1_fwatchdog#ServerID_34e86192c217 -->
<g id="edge10" class="edge"><title>10.1.80.247:56388#ServerID_OuterContainerID&#45;&gt;1_fwatchdog#ServerID_34e86192c217</title>
<path fill="none" stroke="black" d="M4292.28,-441.066C4224.7,-458.823 4105.92,-487.271 4002,-498 3906.09,-507.901 625.246,-518.344 531,-498 487.596,-488.631 441.786,-466.397 410.545,-449.096"/>
<polygon fill="black" stroke="black" points="412.166,-445.992 401.735,-444.134 408.73,-452.091 412.166,-445.992"/>
<text text-anchor="middle" x="2135" y="-509.8" font-family="Times,serif" font-size="14.00">read</text>
</g>
<!-- 10.1.80.247:58442#ServerID_OuterContainerID -->
<g id="node5" class="node"><title>10.1.80.247:58442#ServerID_OuterContainerID</title>
<polygon fill="none" stroke="black" points="3658,-444 3322.52,-426 3658,-408 3993.48,-426 3658,-444"/>
<text text-anchor="middle" x="3658" y="-422.3" font-family="Times,serif" font-size="14.00">10.1.80.247:58442#ServerID_OuterContainerID</text>
</g>
<!-- 1_fwatchdog#ServerID_5f846fd567&#45;w7nbt -->
<g id="node6" class="node"><title>1_fwatchdog#ServerID_5f846fd567&#45;w7nbt</title>
<polygon fill="none" stroke="black" points="5030,-313 4706,-313 4706,-277 5030,-277 5030,-313"/>
<text text-anchor="middle" x="4868" y="-291.3" font-family="Times,serif" font-size="14.00">1_fwatchdog#ServerID_5f846fd567&#45;w7nbt</text>
</g>
<!-- 10.1.80.247:58442#ServerID_OuterContainerID&#45;&gt;1_fwatchdog#ServerID_5f846fd567&#45;w7nbt -->
<g id="edge4" class="edge"><title>10.1.80.247:58442#ServerID_OuterContainerID&#45;&gt;1_fwatchdog#ServerID_5f846fd567&#45;w7nbt</title>
<path fill="none" stroke="black" d="M3793.16,-415.217C3950.77,-404.101 4219.15,-386.069 4450,-375 4504.19,-372.402 4640.94,-378.314 4694,-367 4741.4,-356.893 4792.37,-334.612 4826.81,-317.687"/>
<polygon fill="black" stroke="black" points="4828.69,-320.665 4836.07,-313.07 4825.56,-314.4 4828.69,-320.665"/>
<text text-anchor="middle" x="4470" y="-378.8" font-family="Times,serif" font-size="14.00">POST</text>
</g>
<!-- 1_fwatchdog#ServerID_e56b6537e2d5 -->
<g id="node15" class="node"><title>1_fwatchdog#ServerID_e56b6537e2d5</title>
<polygon fill="none" stroke="black" points="5421.5,-313 5122.5,-313 5122.5,-277 5421.5,-277 5421.5,-313"/>
<text text-anchor="middle" x="5272" y="-291.3" font-family="Times,serif" font-size="14.00">1_fwatchdog#ServerID_e56b6537e2d5</text>
</g>
<!-- 10.1.80.247:58442#ServerID_OuterContainerID&#45;&gt;1_fwatchdog#ServerID_e56b6537e2d5 -->
<g id="edge21" class="edge"><title>10.1.80.247:58442#ServerID_OuterContainerID&#45;&gt;1_fwatchdog#ServerID_e56b6537e2d5</title>
<path fill="none" stroke="black" d="M3815.54,-416.41C3874.36,-413.421 3941.72,-410.256 4003,-408 4233.91,-399.5 4815,-410.178 5042,-367 5103.52,-355.299 5171.82,-332.971 5217.88,-316.465"/>
<polygon fill="black" stroke="black" points="5219.15,-319.729 5227.37,-313.037 5216.77,-313.146 5219.15,-319.729"/>
<text text-anchor="middle" x="4998.5" y="-378.8" font-family="Times,serif" font-size="14.00">read</text>
</g>
<!-- 1_fwatchdog#ServerID_5f846fd567&#45;w7nbt&#45;&gt;10.1.80.247:58442#ServerID_OuterContainerID -->
<g id="edge5" class="edge"><title>1_fwatchdog#ServerID_5f846fd567&#45;w7nbt&#45;&gt;10.1.80.247:58442#ServerID_OuterContainerID</title>
<path fill="none" stroke="black" d="M4834.28,-313.02C4799.9,-329.585 4744.58,-354.093 4694,-367 4544.95,-405.034 4156.68,-401.374 4003,-408 3946.6,-410.432 3885.02,-413.374 3829.71,-416.122"/>
<polygon fill="black" stroke="black" points="3829.27,-412.64 3819.46,-416.633 3829.62,-419.631 3829.27,-412.64"/>
<text text-anchor="middle" x="4696" y="-378.8" font-family="Times,serif" font-size="14.00">RESPONSE</text>
</g>
<!-- localhost:3000#ServerID_34e86192c217 -->
<g id="node8" class="node"><title>localhost:3000#ServerID_34e86192c217</title>
<polygon fill="none" stroke="black" points="303,-313 16.4457,-295 303,-277 589.554,-295 303,-313"/>
<text text-anchor="middle" x="303" y="-291.3" font-family="Times,serif" font-size="14.00">localhost:3000#ServerID_34e86192c217</text>
</g>
<!-- 1_fwatchdog#ServerID_34e86192c217&#45;&gt;localhost:3000#ServerID_34e86192c217 -->
<g id="edge9" class="edge"><title>1_fwatchdog#ServerID_34e86192c217&#45;&gt;localhost:3000#ServerID_34e86192c217</title>
<path fill="none" stroke="black" d="M326.57,-407.888C319.253,-403.174 312.587,-397.288 308,-390 295.53,-370.186 295.45,-343.113 297.799,-323.109"/>
<polygon fill="black" stroke="black" points="301.28,-323.488 299.243,-313.091 294.352,-322.49 301.28,-323.488"/>
<text text-anchor="middle" x="327" y="-378.8" font-family="Times,serif" font-size="14.00">write</text>
</g>
<!-- pipe:[331683132]#ServerID_34e86192c217 -->
<g id="node9" class="node"><title>pipe:[331683132]#ServerID_34e86192c217</title>
<ellipse fill="none" stroke="black" cx="825" cy="-295" rx="217.162" ry="18"/>
<text text-anchor="middle" x="825" y="-291.3" font-family="Times,serif" font-size="14.00">pipe:[331683132]#ServerID_34e86192c217</text>
</g>
<!-- 1_fwatchdog#ServerID_34e86192c217&#45;&gt;pipe:[331683132]#ServerID_34e86192c217 -->
<g id="edge12" class="edge"><title>1_fwatchdog#ServerID_34e86192c217&#45;&gt;pipe:[331683132]#ServerID_34e86192c217</title>
<path fill="none" stroke="black" d="M442.818,-407.954C487.73,-396.885 546.968,-381.809 599,-367 655.752,-350.848 719.877,-330.5 765.285,-315.732"/>
<polygon fill="black" stroke="black" points="766.545,-319.003 774.968,-312.575 764.376,-312.347 766.545,-319.003"/>
<text text-anchor="middle" x="588" y="-378.8" font-family="Times,serif" font-size="14.00">write</text>
</g>
<!-- localhost:3000#ServerID_34e86192c217&#45;&gt;1_fwatchdog#ServerID_34e86192c217 -->
<g id="edge11" class="edge"><title>localhost:3000#ServerID_34e86192c217&#45;&gt;1_fwatchdog#ServerID_34e86192c217</title>
<path fill="none" stroke="black" d="M312.152,-312.596C320.92,-328.547 334.484,-353.357 346,-375 350.117,-382.737 354.536,-391.182 358.542,-398.891"/>
<polygon fill="black" stroke="black" points="355.467,-400.565 363.175,-407.834 361.682,-397.344 355.467,-400.565"/>
<text text-anchor="middle" x="370.5" y="-378.8" font-family="Times,serif" font-size="14.00">read</text>
</g>
<!-- 10_node#ServerID_34e86192c217&#45;&gt;gateway:8080#ServerID_OuterContainerID -->
<g id="edge20" class="edge"><title>10_node#ServerID_34e86192c217&#45;&gt;gateway:8080#ServerID_OuterContainerID</title>
<path fill="none" stroke="black" d="M1209.22,-313.081C1230,-335.126 1269.55,-372.7 1312,-390 1343.86,-402.985 1416.14,-411.358 1486.27,-416.647"/>
<polygon fill="black" stroke="black" points="1486.36,-420.163 1496.59,-417.405 1486.88,-413.182 1486.36,-420.163"/>
<text text-anchor="middle" x="1341" y="-378.8" font-family="Times,serif" font-size="14.00">connect</text>
</g>
<!-- pipe:[331683264]#ServerID_34e86192c217 -->
<g id="node11" class="node"><title>pipe:[331683264]#ServerID_34e86192c217</title>
<ellipse fill="none" stroke="black" cx="1111" cy="-208" rx="217.162" ry="18"/>
<text text-anchor="middle" x="1111" y="-204.3" font-family="Times,serif" font-size="14.00">pipe:[331683264]#ServerID_34e86192c217</text>
</g>
<!-- 10_node#ServerID_34e86192c217&#45;&gt;pipe:[331683264]#ServerID_34e86192c217 -->
<g id="edge13" class="edge"><title>10_node#ServerID_34e86192c217&#45;&gt;pipe:[331683264]#ServerID_34e86192c217</title>
<path fill="none" stroke="black" d="M1177.2,-276.799C1165.05,-264.356 1148.46,-247.364 1134.93,-233.504"/>
<polygon fill="black" stroke="black" points="1137.26,-230.885 1127.77,-226.175 1132.25,-235.775 1137.26,-230.885"/>
<text text-anchor="middle" x="1177" y="-247.8" font-family="Times,serif" font-size="14.00">write</text>
</g>
<!-- 10.152.183.10:53#ServerID_OuterContainerID -->
<g id="node13" class="node"><title>10.152.183.10:53#ServerID_OuterContainerID</title>
<polygon fill="none" stroke="black" points="2305,-444 1977.56,-426 2305,-408 2632.44,-426 2305,-444"/>
<text text-anchor="middle" x="2305" y="-422.3" font-family="Times,serif" font-size="14.00">10.152.183.10:53#ServerID_OuterContainerID</text>
</g>
<!-- 10_node#ServerID_34e86192c217&#45;&gt;10.152.183.10:53#ServerID_OuterContainerID -->
<g id="edge16" class="edge"><title>10_node#ServerID_34e86192c217&#45;&gt;10.152.183.10:53#ServerID_OuterContainerID</title>
<path fill="none" stroke="black" d="M1220.1,-313.117C1248.33,-330.536 1295.29,-356.43 1340,-367 1377.04,-375.756 1987.11,-371.42 2025,-375 2097.12,-381.813 2178.52,-397.235 2234.89,-409.164"/>
<polygon fill="black" stroke="black" points="2234.26,-412.607 2244.77,-411.272 2235.72,-405.761 2234.26,-412.607"/>
<text text-anchor="middle" x="2158.5" y="-378.8" font-family="Times,serif" font-size="14.00">sendto</text>
</g>
<!-- /etc/hosts#ServerID_34e86192c217 -->
<g id="node12" class="node"><title>/etc/hosts#ServerID_34e86192c217</title>
<ellipse fill="none" stroke="black" cx="720" cy="-426" rx="180.068" ry="18"/>
<text text-anchor="middle" x="720" y="-422.3" font-family="Times,serif" font-size="14.00">/etc/hosts#ServerID_34e86192c217</text>
</g>
<!-- /etc/hosts#ServerID_34e86192c217&#45;&gt;10_node#ServerID_34e86192c217 -->
<g id="edge15" class="edge"><title>/etc/hosts#ServerID_34e86192c217&#45;&gt;10_node#ServerID_34e86192c217</title>
<path fill="none" stroke="black" d="M839.596,-412.476C903.423,-403.701 982.681,-389.425 1051,-367 1088.67,-354.637 1128.88,-333.927 1157.04,-318.056"/>
<polygon fill="black" stroke="black" points="1158.79,-321.087 1165.74,-313.089 1155.32,-315.007 1158.79,-321.087"/>
<text text-anchor="middle" x="1041.5" y="-378.8" font-family="Times,serif" font-size="14.00">read</text>
</g>
<!-- 10.152.183.10:53#ServerID_OuterContainerID&#45;&gt;10_node#ServerID_34e86192c217 -->
<g id="edge18" class="edge"><title>10.152.183.10:53#ServerID_OuterContainerID&#45;&gt;10_node#ServerID_34e86192c217</title>
<path fill="none" stroke="black" d="M2153.94,-416.295C1884.88,-400.738 1349.72,-369.546 1340,-367 1300.14,-356.554 1258.2,-334.888 1229.55,-318.221"/>
<polygon fill="black" stroke="black" points="1231.12,-315.085 1220.73,-313.006 1227.56,-321.109 1231.12,-315.085"/>
<text text-anchor="middle" x="1719" y="-378.8" font-family="Times,serif" font-size="14.00">recvfrom</text>
</g>
<!-- /etc/resolv.conf#ServerID_34e86192c217 -->
<g id="node14" class="node"><title>/etc/resolv.conf#ServerID_34e86192c217</title>
<ellipse fill="none" stroke="black" cx="1123" cy="-426" rx="205.264" ry="18"/>
<text text-anchor="middle" x="1123" y="-422.3" font-family="Times,serif" font-size="14.00">/etc/resolv.conf#ServerID_34e86192c217</text>
</g>
<!-- /etc/resolv.conf#ServerID_34e86192c217&#45;&gt;10_node#ServerID_34e86192c217 -->
<g id="edge17" class="edge"><title>/etc/resolv.conf#ServerID_34e86192c217&#45;&gt;10_node#ServerID_34e86192c217</title>
<path fill="none" stroke="black" d="M1132.43,-407.87C1144.52,-385.895 1165.62,-347.573 1179.69,-321.994"/>
<polygon fill="black" stroke="black" points="1182.78,-323.649 1184.53,-313.201 1176.64,-320.274 1182.78,-323.649"/>
<text text-anchor="middle" x="1167.5" y="-378.8" font-family="Times,serif" font-size="14.00">read</text>
</g>
<!-- localhost:3000#ServerID_e56b6537e2d5 -->
<g id="node16" class="node"><title>localhost:3000#ServerID_e56b6537e2d5</title>
<polygon fill="none" stroke="black" points="5341,-226 5054.45,-208 5341,-190 5627.55,-208 5341,-226"/>
<text text-anchor="middle" x="5341" y="-204.3" font-family="Times,serif" font-size="14.00">localhost:3000#ServerID_e56b6537e2d5</text>
</g>
<!-- 1_fwatchdog#ServerID_e56b6537e2d5&#45;&gt;localhost:3000#ServerID_e56b6537e2d5 -->
<g id="edge19" class="edge"><title>1_fwatchdog#ServerID_e56b6537e2d5&#45;&gt;localhost:3000#ServerID_e56b6537e2d5</title>
<path fill="none" stroke="black" d="M5285.96,-276.799C5296.17,-264.228 5310.14,-247.014 5321.45,-233.077"/>
<polygon fill="black" stroke="black" points="5324.17,-235.28 5327.76,-225.31 5318.74,-230.868 5324.17,-235.28"/>
<text text-anchor="middle" x="5329" y="-247.8" font-family="Times,serif" font-size="14.00">write</text>
</g>
<!-- 12_node#ServerID_e56b6537e2d5 -->
<g id="node17" class="node"><title>12_node#ServerID_e56b6537e2d5</title>
<polygon fill="none" stroke="black" points="5474.5,-139 5207.5,-139 5207.5,-103 5474.5,-103 5474.5,-139"/>
<text text-anchor="middle" x="5341" y="-117.3" font-family="Times,serif" font-size="14.00">12_node#ServerID_e56b6537e2d5</text>
</g>
<!-- localhost:3000#ServerID_e56b6537e2d5&#45;&gt;12_node#ServerID_e56b6537e2d5 -->
<g id="edge22" class="edge"><title>localhost:3000#ServerID_e56b6537e2d5&#45;&gt;12_node#ServerID_e56b6537e2d5</title>
<path fill="none" stroke="black" d="M5341,-189.799C5341,-178.163 5341,-162.548 5341,-149.237"/>
<polygon fill="black" stroke="black" points="5344.5,-149.175 5341,-139.175 5337.5,-149.175 5344.5,-149.175"/>
<text text-anchor="middle" x="5357.5" y="-160.8" font-family="Times,serif" font-size="14.00">read</text>
</g>
<!-- pipe:[331682415]#ServerID_e56b6537e2d5 -->
<g id="node18" class="node"><title>pipe:[331682415]#ServerID_e56b6537e2d5</title>
<ellipse fill="none" stroke="black" cx="5341" cy="-34" rx="217.162" ry="18"/>
<text text-anchor="middle" x="5341" y="-30.3" font-family="Times,serif" font-size="14.00">pipe:[331682415]#ServerID_e56b6537e2d5</text>
</g>
<!-- 12_node#ServerID_e56b6537e2d5&#45;&gt;pipe:[331682415]#ServerID_e56b6537e2d5 -->
<g id="edge23" class="edge"><title>12_node#ServerID_e56b6537e2d5&#45;&gt;pipe:[331682415]#ServerID_e56b6537e2d5</title>
<path fill="none" stroke="black" d="M5341,-102.799C5341,-91.1626 5341,-75.5479 5341,-62.2368"/>
<polygon fill="black" stroke="black" points="5344.5,-62.1754 5341,-52.1754 5337.5,-62.1755 5344.5,-62.1754"/>
<text text-anchor="middle" x="5360" y="-73.8" font-family="Times,serif" font-size="14.00">write</text>
</g>
<!-- 10.1.80.1:36514#ServerID_OuterContainerID&#45;&gt;10.1.80.247:8080#ServerID_OuterContainerID -->
<g id="edge24" class="edge"><title>10.1.80.1:36514#ServerID_OuterContainerID&#45;&gt;10.1.80.247:8080#ServerID_OuterContainerID</title>
<path fill="none" stroke="black" d="M2891.53,-311.876C2910.26,-326.569 2937.13,-349.882 2955,-375 2960.08,-382.143 2964.36,-390.645 2967.75,-398.594"/>
<polygon fill="black" stroke="black" points="2964.5,-399.889 2971.45,-407.887 2971.01,-397.302 2964.5,-399.889"/>
<text text-anchor="middle" x="2984" y="-378.8" font-family="Times,serif" font-size="14.00">POST</text>
</g>
</g>
</svg>
