<?xml version="1.0" encoding="UTF-8" standalone="no"?>
<!DOCTYPE svg PUBLIC "-//W3C//DTD SVG 1.1//EN"
 "http://www.w3.org/Graphics/SVG/1.1/DTD/svg11.dtd">
<!-- Generated by graphviz version 2.38.0 (20140413.2041)
 -->
<!-- Title: G Pages: 1 -->
<svg width="6164pt" height="576pt"
 viewBox="0.00 0.00 6164.00 576.00" xmlns="http://www.w3.org/2000/svg" xmlns:xlink="http://www.w3.org/1999/xlink">
<g id="graph0" class="graph" transform="scale(1 1) rotate(0) translate(4 572)">
<title>G</title>
<polygon fill="white" stroke="none" points="-4,4 -4,-572 6160,-572 6160,4 -4,4"/>
<g id="clust1" class="cluster"><title>clusterServerID_34e86192c217</title>
<polygon fill="none" stroke="black" points="4069,-8 4069,-344 4659,-344 4659,-8 4069,-8"/>
<text text-anchor="middle" x="4364" y="-328.8" font-family="Times,serif" font-size="14.00">clusterServerID_34e86192c217</text>
</g>
<g id="clust2" class="cluster"><title>clusterServerID_5f846fd567&#45;w7nbt</title>
<polygon fill="none" stroke="black" points="4667,-269 4667,-344 5007,-344 5007,-269 4667,-269"/>
<text text-anchor="middle" x="4837" y="-328.8" font-family="Times,serif" font-size="14.00">clusterServerID_5f846fd567&#45;w7nbt</text>
</g>
<g id="clust3" class="cluster"><title>clusterServerID_6df85d7674&#45;2kqrj</title>
<polygon fill="none" stroke="black" points="854,-485 854,-560 1192,-560 1192,-485 854,-485"/>
<text text-anchor="middle" x="1023" y="-544.8" font-family="Times,serif" font-size="14.00">clusterServerID_6df85d7674&#45;2kqrj</text>
</g>
<g id="clust4" class="cluster"><title>clusterServerID_OuterContainerID</title>
<polygon fill="none" stroke="black" points="8,-269 8,-452 4061,-452 4061,-269 8,-269"/>
<text text-anchor="middle" x="2034.5" y="-436.8" font-family="Times,serif" font-size="14.00">clusterServerID_OuterContainerID</text>
</g>
<g id="clust5" class="cluster"><title>clusterServerID_e56b6537e2d5</title>
<polygon fill="none" stroke="black" points="5015,-182 5015,-344 6057,-344 6057,-182 5015,-182"/>
<text text-anchor="middle" x="5536" y="-328.8" font-family="Times,serif" font-size="14.00">clusterServerID_e56b6537e2d5</text>
</g>
<!-- 10.1.80.247:56402#ServerID_OuterContainerID -->
<g id="node1" class="node"><title>10.1.80.247:56402#ServerID_OuterContainerID</title>
<polygon fill="none" stroke="black" points="1024,-421 688.515,-403 1024,-385 1359.48,-403 1024,-421"/>
<text text-anchor="middle" x="1024" y="-399.3" font-family="Times,serif" font-size="14.00">10.1.80.247:56402#ServerID_OuterContainerID</text>
</g>
<!-- 1_fwatchdog#ServerID_6df85d7674&#45;2kqrj -->
<g id="node2" class="node"><title>1_fwatchdog#ServerID_6df85d7674&#45;2kqrj</title>
<polygon fill="none" stroke="black" points="1183.5,-529 862.5,-529 862.5,-493 1183.5,-493 1183.5,-529"/>
<text text-anchor="middle" x="1023" y="-507.3" font-family="Times,serif" font-size="14.00">1_fwatchdog#ServerID_6df85d7674&#45;2kqrj</text>
</g>
<!-- 10.1.80.247:56402#ServerID_OuterContainerID&#45;&gt;1_fwatchdog#ServerID_6df85d7674&#45;2kqrj -->
<g id="edge1" class="edge"><title>10.1.80.247:56402#ServerID_OuterContainerID&#45;&gt;1_fwatchdog#ServerID_6df85d7674&#45;2kqrj</title>
<path fill="none" stroke="black" d="M1011.81,-420.692C1004.8,-431.353 996.669,-445.798 993,-460 991.333,-466.455 990.687,-468.747 993,-475 994.231,-478.328 995.936,-481.554 997.914,-484.612"/>
<polygon fill="black" stroke="black" points="995.225,-486.86 1004.04,-492.736 1000.81,-482.644 995.225,-486.86"/>
<text text-anchor="middle" x="1013" y="-463.8" font-family="Times,serif" font-size="14.00">POST</text>
</g>
<!-- 1_fwatchdog#ServerID_34e86192c217 -->
<g id="node7" class="node"><title>1_fwatchdog#ServerID_34e86192c217</title>
<polygon fill="none" stroke="black" points="4376.5,-313 4077.5,-313 4077.5,-277 4376.5,-277 4376.5,-313"/>
<text text-anchor="middle" x="4227" y="-291.3" font-family="Times,serif" font-size="14.00">1_fwatchdog#ServerID_34e86192c217</text>
</g>
<!-- 10.1.80.247:56402#ServerID_OuterContainerID&#45;&gt;1_fwatchdog#ServerID_34e86192c217 -->
<g id="edge12" class="edge"><title>10.1.80.247:56402#ServerID_OuterContainerID&#45;&gt;1_fwatchdog#ServerID_34e86192c217</title>
<path fill="none" stroke="black" d="M1178.52,-393.262C1238.04,-390.192 1306.67,-387.009 1369,-385 1443.86,-382.587 3990.96,-355.313 4065,-344 4101.37,-338.443 4140.99,-326.809 4171.94,-316.386"/>
<polygon fill="black" stroke="black" points="4173.35,-319.605 4181.67,-313.055 4171.08,-312.983 4173.35,-319.605"/>
<text text-anchor="middle" x="3780.5" y="-355.8" font-family="Times,serif" font-size="14.00">read</text>
</g>
<!-- 1_fwatchdog#ServerID_6df85d7674&#45;2kqrj&#45;&gt;10.1.80.247:56402#ServerID_OuterContainerID -->
<g id="edge7" class="edge"><title>1_fwatchdog#ServerID_6df85d7674&#45;2kqrj&#45;&gt;10.1.80.247:56402#ServerID_OuterContainerID</title>
<path fill="none" stroke="black" d="M1028.96,-492.759C1030.61,-487.165 1032.18,-480.883 1033,-475 1035.04,-460.436 1033.27,-444.162 1030.78,-430.873"/>
<polygon fill="black" stroke="black" points="1034.17,-430.006 1028.68,-420.944 1027.32,-431.452 1034.17,-430.006"/>
<text text-anchor="middle" x="1076" y="-463.8" font-family="Times,serif" font-size="14.00">RESPONSE</text>
</g>
<!-- gateway:8080#ServerID_OuterContainerID -->
<g id="node3" class="node"><title>gateway:8080#ServerID_OuterContainerID</title>
<polygon fill="none" stroke="black" points="3060,-421 2755.52,-403 3060,-385 3364.48,-403 3060,-421"/>
<text text-anchor="middle" x="3060" y="-399.3" font-family="Times,serif" font-size="14.00">gateway:8080#ServerID_OuterContainerID</text>
</g>
<!-- 1_fwatchdog#ServerID_6df85d7674&#45;2kqrj&#45;&gt;gateway:8080#ServerID_OuterContainerID -->
<g id="edge2" class="edge"><title>1_fwatchdog#ServerID_6df85d7674&#45;2kqrj&#45;&gt;gateway:8080#ServerID_OuterContainerID</title>
<path fill="none" stroke="black" d="M1183.59,-504.845C1604.04,-491.315 2707.43,-455.584 2746,-452 2826.53,-444.516 2917.84,-429.854 2981.15,-418.694"/>
<polygon fill="black" stroke="black" points="2981.83,-422.128 2991.07,-416.935 2980.61,-415.236 2981.83,-422.128"/>
<text text-anchor="middle" x="2534" y="-463.8" font-family="Times,serif" font-size="14.00">POST</text>
</g>
<!-- 10.1.80.247:8080#ServerID_OuterContainerID -->
<g id="node6" class="node"><title>10.1.80.247:8080#ServerID_OuterContainerID</title>
<polygon fill="none" stroke="black" points="343,-421 15.5599,-403 343,-385 670.44,-403 343,-421"/>
<text text-anchor="middle" x="343" y="-399.3" font-family="Times,serif" font-size="14.00">10.1.80.247:8080#ServerID_OuterContainerID</text>
</g>
<!-- 1_fwatchdog#ServerID_6df85d7674&#45;2kqrj&#45;&gt;10.1.80.247:8080#ServerID_OuterContainerID -->
<g id="edge5" class="edge"><title>1_fwatchdog#ServerID_6df85d7674&#45;2kqrj&#45;&gt;10.1.80.247:8080#ServerID_OuterContainerID</title>
<path fill="none" stroke="black" d="M862.268,-503.868C782.617,-499.022 685.258,-490.38 599,-475 527.55,-462.26 447.213,-438.356 395.91,-421.826"/>
<polygon fill="black" stroke="black" points="396.955,-418.485 386.363,-418.727 394.793,-425.144 396.955,-418.485"/>
<text text-anchor="middle" x="619" y="-463.8" font-family="Times,serif" font-size="14.00">POST</text>
</g>
<!-- gateway:8080#ServerID_OuterContainerID&#45;&gt;1_fwatchdog#ServerID_6df85d7674&#45;2kqrj -->
<g id="edge3" class="edge"><title>gateway:8080#ServerID_OuterContainerID&#45;&gt;1_fwatchdog#ServerID_6df85d7674&#45;2kqrj</title>
<path fill="none" stroke="black" d="M2990.48,-416.897C2893.88,-434.116 2713.39,-463.751 2558,-475 2297.53,-493.856 1536.52,-504.352 1193.8,-508.238"/>
<polygon fill="black" stroke="black" points="1193.74,-504.739 1183.78,-508.351 1193.82,-511.738 1193.74,-504.739"/>
<text text-anchor="middle" x="2739" y="-463.8" font-family="Times,serif" font-size="14.00">RESPONSE</text>
</g>
<!-- 10_node#ServerID_34e86192c217 -->
<g id="node9" class="node"><title>10_node#ServerID_34e86192c217</title>
<polygon fill="none" stroke="black" points="4629.5,-139 4362.5,-139 4362.5,-103 4629.5,-103 4629.5,-139"/>
<text text-anchor="middle" x="4496" y="-117.3" font-family="Times,serif" font-size="14.00">10_node#ServerID_34e86192c217</text>
</g>
<!-- gateway:8080#ServerID_OuterContainerID&#45;&gt;10_node#ServerID_34e86192c217 -->
<g id="edge20" class="edge"><title>gateway:8080#ServerID_OuterContainerID&#45;&gt;10_node#ServerID_34e86192c217</title>
<path fill="none" stroke="black" d="M3203.38,-393.449C3256.91,-390.464 3318.22,-387.291 3374,-385 3598.66,-375.77 4166.27,-396.09 4385,-344 4514.38,-313.189 4586.81,-337.049 4660,-226 4670.76,-209.672 4671.2,-198.028 4660,-182 4647.63,-164.302 4629.45,-151.808 4609.65,-142.991"/>
<polygon fill="black" stroke="black" points="4610.71,-139.645 4600.14,-139.073 4608.05,-146.118 4610.71,-139.645"/>
<text text-anchor="middle" x="4663.5" y="-247.8" font-family="Times,serif" font-size="14.00">read</text>
</g>
<!-- 10.1.80.247:58422#ServerID_OuterContainerID -->
<g id="node4" class="node"><title>10.1.80.247:58422#ServerID_OuterContainerID</title>
<polygon fill="none" stroke="black" points="2402,-421 2066.52,-403 2402,-385 2737.48,-403 2402,-421"/>
<text text-anchor="middle" x="2402" y="-399.3" font-family="Times,serif" font-size="14.00">10.1.80.247:58422#ServerID_OuterContainerID</text>
</g>
<!-- 1_fwatchdog#ServerID_5f846fd567&#45;w7nbt -->
<g id="node5" class="node"><title>1_fwatchdog#ServerID_5f846fd567&#45;w7nbt</title>
<polygon fill="none" stroke="black" points="4999,-313 4675,-313 4675,-277 4999,-277 4999,-313"/>
<text text-anchor="middle" x="4837" y="-291.3" font-family="Times,serif" font-size="14.00">1_fwatchdog#ServerID_5f846fd567&#45;w7nbt</text>
</g>
<!-- 10.1.80.247:58422#ServerID_OuterContainerID&#45;&gt;1_fwatchdog#ServerID_5f846fd567&#45;w7nbt -->
<g id="edge4" class="edge"><title>10.1.80.247:58422#ServerID_OuterContainerID&#45;&gt;1_fwatchdog#ServerID_5f846fd567&#45;w7nbt</title>
<path fill="none" stroke="black" d="M2554.37,-393.164C2614.38,-390.032 2683.91,-386.833 2747,-385 2775.24,-384.18 4755.63,-379.438 4781,-367 4800.09,-357.64 4814.65,-338.314 4824.14,-322.186"/>
<polygon fill="black" stroke="black" points="4827.35,-323.604 4829.13,-313.159 4821.23,-320.215 4827.35,-323.604"/>
<text text-anchor="middle" x="4821" y="-355.8" font-family="Times,serif" font-size="14.00">POST</text>
</g>
<!-- 1_fwatchdog#ServerID_5f846fd567&#45;w7nbt&#45;&gt;10.1.80.247:58422#ServerID_OuterContainerID -->
<g id="edge8" class="edge"><title>1_fwatchdog#ServerID_5f846fd567&#45;w7nbt&#45;&gt;10.1.80.247:58422#ServerID_OuterContainerID</title>
<path fill="none" stroke="black" d="M4787.82,-313.082C4753.35,-324.183 4705.94,-337.717 4663,-344 4241.61,-405.654 3172.61,-369.963 2747,-385 2688.77,-387.057 2625.04,-390.002 2568.37,-392.864"/>
<polygon fill="black" stroke="black" points="2568.06,-389.376 2558.25,-393.378 2568.41,-396.367 2568.06,-389.376"/>
<text text-anchor="middle" x="4623" y="-355.8" font-family="Times,serif" font-size="14.00">RESPONSE</text>
</g>
<!-- 10.1.80.247:8080#ServerID_OuterContainerID&#45;&gt;1_fwatchdog#ServerID_6df85d7674&#45;2kqrj -->
<g id="edge6" class="edge"><title>10.1.80.247:8080#ServerID_OuterContainerID&#45;&gt;1_fwatchdog#ServerID_6df85d7674&#45;2kqrj</title>
<path fill="none" stroke="black" d="M423.741,-416.586C542.658,-435.123 765.675,-469.888 903.558,-491.381"/>
<polygon fill="black" stroke="black" points="903.326,-494.887 913.746,-492.969 904.405,-487.971 903.326,-494.887"/>
<text text-anchor="middle" x="826" y="-463.8" font-family="Times,serif" font-size="14.00">RESPONSE</text>
</g>
<!-- 10.1.80.1:20077#ServerID_OuterContainerID -->
<g id="node17" class="node"><title>10.1.80.1:20077#ServerID_OuterContainerID</title>
<polygon fill="none" stroke="black" points="335,-313 16.1049,-295 335,-277 653.895,-295 335,-313"/>
<text text-anchor="middle" x="335" y="-291.3" font-family="Times,serif" font-size="14.00">10.1.80.1:20077#ServerID_OuterContainerID</text>
</g>
<!-- 10.1.80.247:8080#ServerID_OuterContainerID&#45;&gt;10.1.80.1:20077#ServerID_OuterContainerID -->
<g id="edge22" class="edge"><title>10.1.80.247:8080#ServerID_OuterContainerID&#45;&gt;10.1.80.1:20077#ServerID_OuterContainerID</title>
<path fill="none" stroke="black" d="M345.928,-384.962C346.775,-379.269 347.582,-372.878 348,-367 348.473,-360.35 348.759,-358.623 348,-352 346.894,-342.346 344.749,-331.935 342.515,-322.74"/>
<polygon fill="black" stroke="black" points="345.886,-321.793 340.006,-312.98 339.106,-323.536 345.886,-321.793"/>
<text text-anchor="middle" x="391" y="-355.8" font-family="Times,serif" font-size="14.00">RESPONSE</text>
</g>
<!-- 10.0.88.125:31112#ServerID_OuterContainerID -->
<g id="node18" class="node"><title>10.0.88.125:31112#ServerID_OuterContainerID</title>
<polygon fill="none" stroke="black" points="1007,-313 671.515,-295 1007,-277 1342.48,-295 1007,-313"/>
<text text-anchor="middle" x="1007" y="-291.3" font-family="Times,serif" font-size="14.00">10.0.88.125:31112#ServerID_OuterContainerID</text>
</g>
<!-- 10.1.80.247:8080#ServerID_OuterContainerID&#45;&gt;10.0.88.125:31112#ServerID_OuterContainerID -->
<g id="edge23" class="edge"><title>10.1.80.247:8080#ServerID_OuterContainerID&#45;&gt;10.0.88.125:31112#ServerID_OuterContainerID</title>
<path fill="none" stroke="black" d="M422.434,-389.319C546.818,-369.463 786.788,-331.154 917.247,-310.328"/>
<polygon fill="black" stroke="black" points="917.893,-313.769 927.216,-308.737 916.789,-306.857 917.893,-313.769"/>
<text text-anchor="middle" x="698" y="-355.8" font-family="Times,serif" font-size="14.00">RESPONSE</text>
</g>
<!-- localhost:3000#ServerID_34e86192c217 -->
<g id="node8" class="node"><title>localhost:3000#ServerID_34e86192c217</title>
<polygon fill="none" stroke="black" points="4364,-226 4077.45,-208 4364,-190 4650.55,-208 4364,-226"/>
<text text-anchor="middle" x="4364" y="-204.3" font-family="Times,serif" font-size="14.00">localhost:3000#ServerID_34e86192c217</text>
</g>
<!-- 1_fwatchdog#ServerID_34e86192c217&#45;&gt;localhost:3000#ServerID_34e86192c217 -->
<g id="edge9" class="edge"><title>1_fwatchdog#ServerID_34e86192c217&#45;&gt;localhost:3000#ServerID_34e86192c217</title>
<path fill="none" stroke="black" d="M4221.08,-276.538C4218.7,-266.056 4217.95,-253.045 4225,-244 4231.8,-235.28 4250.62,-228.397 4272.3,-223.126"/>
<polygon fill="black" stroke="black" points="4273.12,-226.53 4282.09,-220.891 4271.56,-219.706 4273.12,-226.53"/>
<text text-anchor="middle" x="4254" y="-247.8" font-family="Times,serif" font-size="14.00">connect</text>
</g>
<!-- 1_fwatchdog#ServerID_34e86192c217&#45;&gt;localhost:3000#ServerID_34e86192c217 -->
<g id="edge11" class="edge"><title>1_fwatchdog#ServerID_34e86192c217&#45;&gt;localhost:3000#ServerID_34e86192c217</title>
<path fill="none" stroke="black" d="M4255.59,-276.967C4264.51,-271.436 4274.28,-265.138 4283,-259 4291.8,-252.806 4293.07,-249.996 4302,-244 4309.53,-238.945 4317.84,-233.912 4325.86,-229.304"/>
<polygon fill="black" stroke="black" points="4327.74,-232.261 4334.74,-224.304 4324.31,-226.163 4327.74,-232.261"/>
<text text-anchor="middle" x="4321" y="-247.8" font-family="Times,serif" font-size="14.00">write</text>
</g>
<!-- localhost:3000#ServerID_34e86192c217&#45;&gt;1_fwatchdog#ServerID_34e86192c217 -->
<g id="edge10" class="edge"><title>localhost:3000#ServerID_34e86192c217&#45;&gt;1_fwatchdog#ServerID_34e86192c217</title>
<path fill="none" stroke="black" d="M4361.12,-226.005C4358.44,-236.847 4353.39,-250.422 4344,-259 4338.41,-264.114 4332.09,-268.482 4325.37,-272.212"/>
<polygon fill="black" stroke="black" points="4323.35,-269.308 4315.98,-276.915 4326.48,-275.567 4323.35,-269.308"/>
<text text-anchor="middle" x="4371.5" y="-247.8" font-family="Times,serif" font-size="14.00">read</text>
</g>
<!-- localhost:3000#ServerID_34e86192c217&#45;&gt;10_node#ServerID_34e86192c217 -->
<g id="edge15" class="edge"><title>localhost:3000#ServerID_34e86192c217&#45;&gt;10_node#ServerID_34e86192c217</title>
<path fill="none" stroke="black" d="M4388.21,-191.41C4408.54,-178.32 4437.85,-159.446 4460.78,-144.682"/>
<polygon fill="black" stroke="black" points="4462.71,-147.603 4469.22,-139.246 4458.92,-141.717 4462.71,-147.603"/>
<text text-anchor="middle" x="4454.5" y="-160.8" font-family="Times,serif" font-size="14.00">read</text>
</g>
<!-- 10_node#ServerID_34e86192c217&#45;&gt;gateway:8080#ServerID_OuterContainerID -->
<g id="edge16" class="edge"><title>10_node#ServerID_34e86192c217&#45;&gt;gateway:8080#ServerID_OuterContainerID</title>
<path fill="none" stroke="black" d="M4629.57,-122.148C4999.21,-123.211 6011.73,-130.803 6061,-182 6110.93,-233.878 6111.12,-292.31 6061,-344 6003.27,-403.536 5397.91,-365.338 5315,-367 4452.47,-384.294 4236.27,-357.674 3374,-385 3319.92,-386.714 3260.65,-389.649 3208.31,-392.602"/>
<polygon fill="black" stroke="black" points="3208.07,-389.111 3198.28,-393.173 3208.46,-396.099 3208.07,-389.111"/>
<text text-anchor="middle" x="6127" y="-247.8" font-family="Times,serif" font-size="14.00">connect</text>
</g>
<!-- pipe:[331683264]#ServerID_34e86192c217 -->
<g id="node10" class="node"><title>pipe:[331683264]#ServerID_34e86192c217</title>
<ellipse fill="none" stroke="black" cx="4434" cy="-34" rx="217.162" ry="18"/>
<text text-anchor="middle" x="4434" y="-30.3" font-family="Times,serif" font-size="14.00">pipe:[331683264]#ServerID_34e86192c217</text>
</g>
<!-- 10_node#ServerID_34e86192c217&#45;&gt;pipe:[331683264]#ServerID_34e86192c217 -->
<g id="edge13" class="edge"><title>10_node#ServerID_34e86192c217&#45;&gt;pipe:[331683264]#ServerID_34e86192c217</title>
<path fill="none" stroke="black" d="M4483.45,-102.799C4474.55,-90.5865 4462.44,-73.9921 4452.44,-60.2776"/>
<polygon fill="black" stroke="black" points="4455.25,-58.192 4446.53,-52.1754 4449.59,-62.3172 4455.25,-58.192"/>
<text text-anchor="middle" x="4488" y="-73.8" font-family="Times,serif" font-size="14.00">write</text>
</g>
<!-- 10.1.80.247:56412#ServerID_OuterContainerID -->
<g id="node11" class="node"><title>10.1.80.247:56412#ServerID_OuterContainerID</title>
<polygon fill="none" stroke="black" points="1713,-421 1377.52,-403 1713,-385 2048.48,-403 1713,-421"/>
<text text-anchor="middle" x="1713" y="-399.3" font-family="Times,serif" font-size="14.00">10.1.80.247:56412#ServerID_OuterContainerID</text>
</g>
<!-- 10.1.80.247:56412#ServerID_OuterContainerID&#45;&gt;1_fwatchdog#ServerID_34e86192c217 -->
<g id="edge14" class="edge"><title>10.1.80.247:56412#ServerID_OuterContainerID&#45;&gt;1_fwatchdog#ServerID_34e86192c217</title>
<path fill="none" stroke="black" d="M1869.25,-393.346C1928.36,-390.323 1996.27,-387.151 2058,-385 2503.82,-369.465 3624.2,-412.533 4065,-344 4101.22,-338.368 4140.69,-326.795 4171.6,-316.425"/>
<polygon fill="black" stroke="black" points="4172.98,-319.65 4181.32,-313.109 4170.72,-313.025 4172.98,-319.65"/>
<text text-anchor="middle" x="3995.5" y="-355.8" font-family="Times,serif" font-size="14.00">read</text>
</g>
<!-- 1_fwatchdog#ServerID_e56b6537e2d5 -->
<g id="node12" class="node"><title>1_fwatchdog#ServerID_e56b6537e2d5</title>
<polygon fill="none" stroke="black" points="5800.5,-313 5501.5,-313 5501.5,-277 5800.5,-277 5800.5,-313"/>
<text text-anchor="middle" x="5651" y="-291.3" font-family="Times,serif" font-size="14.00">1_fwatchdog#ServerID_e56b6537e2d5</text>
</g>
<!-- localhost:3000#ServerID_e56b6537e2d5 -->
<g id="node13" class="node"><title>localhost:3000#ServerID_e56b6537e2d5</title>
<polygon fill="none" stroke="black" points="5762,-226 5475.45,-208 5762,-190 6048.55,-208 5762,-226"/>
<text text-anchor="middle" x="5762" y="-204.3" font-family="Times,serif" font-size="14.00">localhost:3000#ServerID_e56b6537e2d5</text>
</g>
<!-- 1_fwatchdog#ServerID_e56b6537e2d5&#45;&gt;localhost:3000#ServerID_e56b6537e2d5 -->
<g id="edge17" class="edge"><title>1_fwatchdog#ServerID_e56b6537e2d5&#45;&gt;localhost:3000#ServerID_e56b6537e2d5</title>
<path fill="none" stroke="black" d="M5673.46,-276.799C5690.71,-263.59 5714.66,-245.254 5733.3,-230.981"/>
<polygon fill="black" stroke="black" points="5735.63,-233.601 5741.44,-224.742 5731.38,-228.043 5735.63,-233.601"/>
<text text-anchor="middle" x="5743" y="-247.8" font-family="Times,serif" font-size="14.00">connect</text>
</g>
<!-- 10.1.80.247:58400#ServerID_OuterContainerID -->
<g id="node14" class="node"><title>10.1.80.247:58400#ServerID_OuterContainerID</title>
<polygon fill="none" stroke="black" points="3718,-421 3382.52,-403 3718,-385 4053.48,-403 3718,-421"/>
<text text-anchor="middle" x="3718" y="-399.3" font-family="Times,serif" font-size="14.00">10.1.80.247:58400#ServerID_OuterContainerID</text>
</g>
<!-- 10.1.80.247:58400#ServerID_OuterContainerID&#45;&gt;1_fwatchdog#ServerID_e56b6537e2d5 -->
<g id="edge18" class="edge"><title>10.1.80.247:58400#ServerID_OuterContainerID&#45;&gt;1_fwatchdog#ServerID_e56b6537e2d5</title>
<path fill="none" stroke="black" d="M3961.29,-398.026C4354.91,-390.835 5114.35,-373.599 5382,-344 5442.35,-337.326 5509.6,-325.326 5561.77,-314.994"/>
<polygon fill="black" stroke="black" points="5562.54,-318.409 5571.66,-313.019 5561.17,-311.545 5562.54,-318.409"/>
<text text-anchor="middle" x="5294.5" y="-355.8" font-family="Times,serif" font-size="14.00">read</text>
</g>
<!-- 12_node#ServerID_e56b6537e2d5 -->
<g id="node15" class="node"><title>12_node#ServerID_e56b6537e2d5</title>
<polygon fill="none" stroke="black" points="5373.5,-313 5106.5,-313 5106.5,-277 5373.5,-277 5373.5,-313"/>
<text text-anchor="middle" x="5240" y="-291.3" font-family="Times,serif" font-size="14.00">12_node#ServerID_e56b6537e2d5</text>
</g>
<!-- pipe:[331682415]#ServerID_e56b6537e2d5 -->
<g id="node16" class="node"><title>pipe:[331682415]#ServerID_e56b6537e2d5</title>
<ellipse fill="none" stroke="black" cx="5240" cy="-208" rx="217.162" ry="18"/>
<text text-anchor="middle" x="5240" y="-204.3" font-family="Times,serif" font-size="14.00">pipe:[331682415]#ServerID_e56b6537e2d5</text>
</g>
<!-- 12_node#ServerID_e56b6537e2d5&#45;&gt;pipe:[331682415]#ServerID_e56b6537e2d5 -->
<g id="edge19" class="edge"><title>12_node#ServerID_e56b6537e2d5&#45;&gt;pipe:[331682415]#ServerID_e56b6537e2d5</title>
<path fill="none" stroke="black" d="M5240,-276.799C5240,-265.163 5240,-249.548 5240,-236.237"/>
<polygon fill="black" stroke="black" points="5243.5,-236.175 5240,-226.175 5236.5,-236.175 5243.5,-236.175"/>
<text text-anchor="middle" x="5259" y="-247.8" font-family="Times,serif" font-size="14.00">write</text>
</g>
<!-- 10.1.80.1:20077#ServerID_OuterContainerID&#45;&gt;10.1.80.247:8080#ServerID_OuterContainerID -->
<g id="edge21" class="edge"><title>10.1.80.1:20077#ServerID_OuterContainerID&#45;&gt;10.1.80.247:8080#ServerID_OuterContainerID</title>
<path fill="none" stroke="black" d="M321.454,-312.463C311.286,-326.923 300.329,-348.481 308,-367 309.665,-371.019 312.04,-374.818 314.779,-378.325"/>
<polygon fill="black" stroke="black" points="312.368,-380.877 321.669,-385.949 317.561,-376.183 312.368,-380.877"/>
<text text-anchor="middle" x="328" y="-355.8" font-family="Times,serif" font-size="14.00">POST</text>
</g>
</g>
</svg>
