<?xml version="1.0" encoding="UTF-8" standalone="no"?>
<!DOCTYPE svg PUBLIC "-//W3C//DTD SVG 1.1//EN"
 "http://www.w3.org/Graphics/SVG/1.1/DTD/svg11.dtd">
<!-- Generated by graphviz version 2.38.0 (20140413.2041)
 -->
<!-- Title: G Pages: 1 -->
<svg width="5897pt" height="645pt"
 viewBox="0.00 0.00 5897.00 645.00" xmlns="http://www.w3.org/2000/svg" xmlns:xlink="http://www.w3.org/1999/xlink">
<g id="graph0" class="graph" transform="scale(1 1) rotate(0) translate(4 641)">
<title>G</title>
<polygon fill="white" stroke="none" points="-4,4 -4,-641 5893,-641 5893,4 -4,4"/>
<g id="clust1" class="cluster"><title>clusterServerID_34e86192c217</title>
<polygon fill="none" stroke="black" points="8,-182 8,-498 1130,-498 1130,-182 8,-182"/>
<text text-anchor="middle" x="569" y="-482.8" font-family="Times,serif" font-size="14.00">clusterServerID_34e86192c217</text>
</g>
<g id="clust2" class="cluster"><title>clusterServerID_5f846fd567&#45;w7nbt</title>
<polygon fill="none" stroke="black" points="2656,-531 2656,-629 2996,-629 2996,-531 2656,-531"/>
<text text-anchor="middle" x="2826" y="-613.8" font-family="Times,serif" font-size="14.00">clusterServerID_5f846fd567&#45;w7nbt</text>
</g>
<g id="clust3" class="cluster"><title>clusterServerID_6df85d7674&#45;2kqrj</title>
<polygon fill="none" stroke="black" points="5543,-269 5543,-367 5881,-367 5881,-269 5543,-269"/>
<text text-anchor="middle" x="5712" y="-351.8" font-family="Times,serif" font-size="14.00">clusterServerID_6df85d7674&#45;2kqrj</text>
</g>
<g id="clust4" class="cluster"><title>clusterServerID_OuterContainerID</title>
<polygon fill="none" stroke="black" points="1138,-269 1138,-498 4485,-498 4485,-269 1138,-269"/>
<text text-anchor="middle" x="2811.5" y="-482.8" font-family="Times,serif" font-size="14.00">clusterServerID_OuterContainerID</text>
</g>
<g id="clust5" class="cluster"><title>clusterServerID_e56b6537e2d5</title>
<polygon fill="none" stroke="black" points="4493,-8 4493,-367 5535,-367 5535,-8 4493,-8"/>
<text text-anchor="middle" x="5014" y="-351.8" font-family="Times,serif" font-size="14.00">clusterServerID_e56b6537e2d5</text>
</g>
<!-- 10.1.80.247:58576#ServerID_OuterContainerID -->
<g id="node1" class="node"><title>10.1.80.247:58576#ServerID_OuterContainerID</title>
<polygon fill="none" stroke="black" points="2826,-444 2490.52,-426 2826,-408 3161.48,-426 2826,-444"/>
<text text-anchor="middle" x="2826" y="-422.3" font-family="Times,serif" font-size="14.00">10.1.80.247:58576#ServerID_OuterContainerID</text>
</g>
<!-- 1_fwatchdog#ServerID_5f846fd567&#45;w7nbt -->
<g id="node2" class="node"><title>1_fwatchdog#ServerID_5f846fd567&#45;w7nbt</title>
<polygon fill="none" stroke="black" points="2988,-575 2664,-575 2664,-539 2988,-539 2988,-575"/>
<text text-anchor="middle" x="2826" y="-553.3" font-family="Times,serif" font-size="14.00">1_fwatchdog#ServerID_5f846fd567&#45;w7nbt</text>
</g>
<!-- 10.1.80.247:58576#ServerID_OuterContainerID&#45;&gt;1_fwatchdog#ServerID_5f846fd567&#45;w7nbt -->
<g id="edge1" class="edge"><title>10.1.80.247:58576#ServerID_OuterContainerID&#45;&gt;1_fwatchdog#ServerID_5f846fd567&#45;w7nbt</title>
<path fill="none" stroke="black" d="M2811.59,-443.491C2799.42,-458.588 2782.91,-482.148 2776,-506 2774.14,-512.403 2772.92,-515.087 2776,-521 2778.12,-525.075 2780.96,-528.774 2784.21,-532.107"/>
<polygon fill="black" stroke="black" points="2782.04,-534.859 2791.86,-538.823 2786.66,-529.597 2782.04,-534.859"/>
<text text-anchor="middle" x="2796" y="-509.8" font-family="Times,serif" font-size="14.00">POST</text>
</g>
<!-- 1_fwatchdog#ServerID_e56b6537e2d5 -->
<g id="node14" class="node"><title>1_fwatchdog#ServerID_e56b6537e2d5</title>
<polygon fill="none" stroke="black" points="5048.5,-313 4749.5,-313 4749.5,-277 5048.5,-277 5048.5,-313"/>
<text text-anchor="middle" x="4899" y="-291.3" font-family="Times,serif" font-size="14.00">1_fwatchdog#ServerID_e56b6537e2d5</text>
</g>
<!-- 10.1.80.247:58576#ServerID_OuterContainerID&#45;&gt;1_fwatchdog#ServerID_e56b6537e2d5 -->
<g id="edge16" class="edge"><title>10.1.80.247:58576#ServerID_OuterContainerID&#45;&gt;1_fwatchdog#ServerID_e56b6537e2d5</title>
<path fill="none" stroke="black" d="M2964.75,-415.44C3142.78,-403.614 3461.22,-383.951 3734,-375 3901.7,-369.497 4321.91,-382.253 4489,-367 4601.68,-356.714 4729.96,-332.435 4812.57,-315.138"/>
<polygon fill="black" stroke="black" points="4813.35,-318.55 4822.41,-313.064 4811.91,-311.701 4813.35,-318.55"/>
<text text-anchor="middle" x="3750.5" y="-378.8" font-family="Times,serif" font-size="14.00">read</text>
</g>
<!-- 1_fwatchdog#ServerID_5f846fd567&#45;w7nbt&#45;&gt;10.1.80.247:58576#ServerID_OuterContainerID -->
<g id="edge3" class="edge"><title>1_fwatchdog#ServerID_5f846fd567&#45;w7nbt&#45;&gt;10.1.80.247:58576#ServerID_OuterContainerID</title>
<path fill="none" stroke="black" d="M2844.34,-538.642C2848.67,-533.429 2852.7,-527.384 2855,-521 2863.31,-497.942 2853.19,-471.195 2842.69,-452.141"/>
<polygon fill="black" stroke="black" points="2845.67,-450.303 2837.58,-443.455 2839.64,-453.85 2845.67,-450.303"/>
<text text-anchor="middle" x="2900" y="-509.8" font-family="Times,serif" font-size="14.00">RESPONSE</text>
</g>
<!-- gateway:8080#ServerID_OuterContainerID -->
<g id="node3" class="node"><title>gateway:8080#ServerID_OuterContainerID</title>
<polygon fill="none" stroke="black" points="3484,-444 3179.52,-426 3484,-408 3788.48,-426 3484,-444"/>
<text text-anchor="middle" x="3484" y="-422.3" font-family="Times,serif" font-size="14.00">gateway:8080#ServerID_OuterContainerID</text>
</g>
<!-- 1_fwatchdog#ServerID_6df85d7674&#45;2kqrj -->
<g id="node4" class="node"><title>1_fwatchdog#ServerID_6df85d7674&#45;2kqrj</title>
<polygon fill="none" stroke="black" points="5872.5,-313 5551.5,-313 5551.5,-277 5872.5,-277 5872.5,-313"/>
<text text-anchor="middle" x="5712" y="-291.3" font-family="Times,serif" font-size="14.00">1_fwatchdog#ServerID_6df85d7674&#45;2kqrj</text>
</g>
<!-- gateway:8080#ServerID_OuterContainerID&#45;&gt;1_fwatchdog#ServerID_6df85d7674&#45;2kqrj -->
<g id="edge2" class="edge"><title>gateway:8080#ServerID_OuterContainerID&#45;&gt;1_fwatchdog#ServerID_6df85d7674&#45;2kqrj</title>
<path fill="none" stroke="black" d="M3587.63,-414.1C3709.05,-401.891 3916.37,-382.793 4095,-375 4135.07,-373.252 5499.67,-374.87 5539,-367 5586.58,-357.48 5637.56,-334.878 5671.76,-317.713"/>
<polygon fill="black" stroke="black" points="5673.63,-320.691 5680.95,-313.031 5670.45,-314.454 5673.63,-320.691"/>
<text text-anchor="middle" x="4137" y="-378.8" font-family="Times,serif" font-size="14.00">RESPONSE</text>
</g>
<!-- 1_fwatchdog#ServerID_6df85d7674&#45;2kqrj&#45;&gt;gateway:8080#ServerID_OuterContainerID -->
<g id="edge6" class="edge"><title>1_fwatchdog#ServerID_6df85d7674&#45;2kqrj&#45;&gt;gateway:8080#ServerID_OuterContainerID</title>
<path fill="none" stroke="black" d="M5680.63,-313.132C5646.82,-330.563 5590.86,-356.467 5539,-367 5500.56,-374.808 4872.22,-374.153 4833,-375 4372.87,-384.941 4257.81,-388.225 3798,-408 3745.97,-410.238 3689.12,-413.168 3638.26,-415.964"/>
<polygon fill="black" stroke="black" points="3637.96,-412.475 3628.17,-416.521 3638.35,-419.465 3637.96,-412.475"/>
<text text-anchor="middle" x="4853" y="-378.8" font-family="Times,serif" font-size="14.00">POST</text>
</g>
<!-- 10.1.80.247:8080#ServerID_OuterContainerID -->
<g id="node5" class="node"><title>10.1.80.247:8080#ServerID_OuterContainerID</title>
<polygon fill="none" stroke="black" points="2145,-444 1817.56,-426 2145,-408 2472.44,-426 2145,-444"/>
<text text-anchor="middle" x="2145" y="-422.3" font-family="Times,serif" font-size="14.00">10.1.80.247:8080#ServerID_OuterContainerID</text>
</g>
<!-- 1_fwatchdog#ServerID_6df85d7674&#45;2kqrj&#45;&gt;10.1.80.247:8080#ServerID_OuterContainerID -->
<g id="edge4" class="edge"><title>1_fwatchdog#ServerID_6df85d7674&#45;2kqrj&#45;&gt;10.1.80.247:8080#ServerID_OuterContainerID</title>
<path fill="none" stroke="black" d="M5680.95,-313.057C5647.19,-330.561 5591.06,-356.652 5539,-367 5502.4,-374.276 2889.29,-373.627 2852,-375 2648.46,-382.492 2412.55,-401.199 2271.23,-413.486"/>
<polygon fill="black" stroke="black" points="2270.88,-410.004 2261.22,-414.36 2271.48,-416.977 2270.88,-410.004"/>
<text text-anchor="middle" x="2872" y="-378.8" font-family="Times,serif" font-size="14.00">POST</text>
</g>
<!-- 10.1.80.247:56388#ServerID_OuterContainerID -->
<g id="node6" class="node"><title>10.1.80.247:56388#ServerID_OuterContainerID</title>
<polygon fill="none" stroke="black" points="4142,-444 3806.52,-426 4142,-408 4477.48,-426 4142,-444"/>
<text text-anchor="middle" x="4142" y="-422.3" font-family="Times,serif" font-size="14.00">10.1.80.247:56388#ServerID_OuterContainerID</text>
</g>
<!-- 1_fwatchdog#ServerID_6df85d7674&#45;2kqrj&#45;&gt;10.1.80.247:56388#ServerID_OuterContainerID -->
<g id="edge5" class="edge"><title>1_fwatchdog#ServerID_6df85d7674&#45;2kqrj&#45;&gt;10.1.80.247:56388#ServerID_OuterContainerID</title>
<path fill="none" stroke="black" d="M5680.28,-313.133C5646.41,-330.43 5590.62,-356.101 5539,-367 5506.48,-373.866 5273.21,-373.8 5240,-375 4912.43,-386.839 4530.1,-405.302 4313.98,-416.169"/>
<polygon fill="black" stroke="black" points="4313.63,-412.682 4303.82,-416.681 4313.98,-419.674 4313.63,-412.682"/>
<text text-anchor="middle" x="5282" y="-378.8" font-family="Times,serif" font-size="14.00">RESPONSE</text>
</g>
<!-- 10.1.80.247:8080#ServerID_OuterContainerID&#45;&gt;1_fwatchdog#ServerID_6df85d7674&#45;2kqrj -->
<g id="edge7" class="edge"><title>10.1.80.247:8080#ServerID_OuterContainerID&#45;&gt;1_fwatchdog#ServerID_6df85d7674&#45;2kqrj</title>
<path fill="none" stroke="black" d="M2303.14,-416.659C2359.57,-413.778 2423.62,-410.619 2482,-408 2668.62,-399.627 3135.23,-379.004 3322,-375 3352.78,-374.34 5508.8,-373.013 5539,-367 5586.59,-357.526 5637.57,-334.916 5671.77,-317.737"/>
<polygon fill="black" stroke="black" points="5673.64,-320.713 5680.95,-313.05 5670.45,-314.478 5673.64,-320.713"/>
<text text-anchor="middle" x="3364" y="-378.8" font-family="Times,serif" font-size="14.00">RESPONSE</text>
</g>
<!-- 10.1.80.1:44370#ServerID_OuterContainerID -->
<g id="node19" class="node"><title>10.1.80.1:44370#ServerID_OuterContainerID</title>
<polygon fill="none" stroke="black" points="2082,-313 1763.1,-295 2082,-277 2400.9,-295 2082,-313"/>
<text text-anchor="middle" x="2082" y="-291.3" font-family="Times,serif" font-size="14.00">10.1.80.1:44370#ServerID_OuterContainerID</text>
</g>
<!-- 10.1.80.247:8080#ServerID_OuterContainerID&#45;&gt;10.1.80.1:44370#ServerID_OuterContainerID -->
<g id="edge23" class="edge"><title>10.1.80.247:8080#ServerID_OuterContainerID&#45;&gt;10.1.80.1:44370#ServerID_OuterContainerID</title>
<path fill="none" stroke="black" d="M2137.93,-408.211C2133.74,-398.448 2128.24,-385.948 2123,-375 2114.38,-356.996 2104.02,-337.044 2095.87,-321.696"/>
<polygon fill="black" stroke="black" points="2098.91,-319.967 2091.11,-312.793 2092.74,-323.263 2098.91,-319.967"/>
<text text-anchor="middle" x="2172" y="-378.8" font-family="Times,serif" font-size="14.00">RESPONSE</text>
</g>
<!-- 10.0.88.125:31112#ServerID_OuterContainerID -->
<g id="node20" class="node"><title>10.0.88.125:31112#ServerID_OuterContainerID</title>
<polygon fill="none" stroke="black" points="2754,-313 2418.52,-295 2754,-277 3089.48,-295 2754,-313"/>
<text text-anchor="middle" x="2754" y="-291.3" font-family="Times,serif" font-size="14.00">10.0.88.125:31112#ServerID_OuterContainerID</text>
</g>
<!-- 10.1.80.247:8080#ServerID_OuterContainerID&#45;&gt;10.0.88.125:31112#ServerID_OuterContainerID -->
<g id="edge25" class="edge"><title>10.1.80.247:8080#ServerID_OuterContainerID&#45;&gt;10.0.88.125:31112#ServerID_OuterContainerID</title>
<path fill="none" stroke="black" d="M2208.74,-411.499C2322.36,-387.43 2559.3,-337.242 2679.95,-311.685"/>
<polygon fill="black" stroke="black" points="2680.79,-315.085 2689.85,-309.589 2679.34,-308.237 2680.79,-315.085"/>
<text text-anchor="middle" x="2420" y="-378.8" font-family="Times,serif" font-size="14.00">RESPONSE</text>
</g>
<!-- 10.1.80.247:56388#ServerID_OuterContainerID&#45;&gt;1_fwatchdog#ServerID_6df85d7674&#45;2kqrj -->
<g id="edge8" class="edge"><title>10.1.80.247:56388#ServerID_OuterContainerID&#45;&gt;1_fwatchdog#ServerID_6df85d7674&#45;2kqrj</title>
<path fill="none" stroke="black" d="M4418.44,-422.823C4658.17,-419.499 5014.33,-411.117 5324,-390 5419.88,-383.462 5445.84,-390.59 5539,-367 5585.03,-355.345 5634.93,-333.834 5669.25,-317.533"/>
<polygon fill="black" stroke="black" points="5671.01,-320.572 5678.51,-313.085 5667.98,-314.263 5671.01,-320.572"/>
<text text-anchor="middle" x="5523" y="-378.8" font-family="Times,serif" font-size="14.00">POST</text>
</g>
<!-- 1_fwatchdog#ServerID_34e86192c217 -->
<g id="node7" class="node"><title>1_fwatchdog#ServerID_34e86192c217</title>
<polygon fill="none" stroke="black" points="315.5,-444 16.5,-444 16.5,-408 315.5,-408 315.5,-444"/>
<text text-anchor="middle" x="166" y="-422.3" font-family="Times,serif" font-size="14.00">1_fwatchdog#ServerID_34e86192c217</text>
</g>
<!-- 10.1.80.247:56388#ServerID_OuterContainerID&#45;&gt;1_fwatchdog#ServerID_34e86192c217 -->
<g id="edge10" class="edge"><title>10.1.80.247:56388#ServerID_OuterContainerID&#45;&gt;1_fwatchdog#ServerID_34e86192c217</title>
<path fill="none" stroke="black" d="M4087.28,-441.066C4019.7,-458.823 3900.92,-487.271 3797,-498 3701.07,-507.904 419.273,-518.35 325,-498 281.596,-488.631 235.786,-466.397 204.545,-449.096"/>
<polygon fill="black" stroke="black" points="206.166,-445.992 195.735,-444.134 202.73,-452.091 206.166,-445.992"/>
<text text-anchor="middle" x="2837" y="-509.8" font-family="Times,serif" font-size="14.00">read</text>
</g>
<!-- localhost:3000#ServerID_34e86192c217 -->
<g id="node8" class="node"><title>localhost:3000#ServerID_34e86192c217</title>
<polygon fill="none" stroke="black" points="303,-313 16.4457,-295 303,-277 589.554,-295 303,-313"/>
<text text-anchor="middle" x="303" y="-291.3" font-family="Times,serif" font-size="14.00">localhost:3000#ServerID_34e86192c217</text>
</g>
<!-- 1_fwatchdog#ServerID_34e86192c217&#45;&gt;localhost:3000#ServerID_34e86192c217 -->
<g id="edge9" class="edge"><title>1_fwatchdog#ServerID_34e86192c217&#45;&gt;localhost:3000#ServerID_34e86192c217</title>
<path fill="none" stroke="black" d="M184.193,-407.87C208.439,-385.039 251.427,-344.562 278.505,-319.064"/>
<polygon fill="black" stroke="black" points="281.145,-321.386 286.026,-311.983 276.346,-316.29 281.145,-321.386"/>
<text text-anchor="middle" x="238" y="-378.8" font-family="Times,serif" font-size="14.00">write</text>
</g>
<!-- 10_node#ServerID_34e86192c217 -->
<g id="node9" class="node"><title>10_node#ServerID_34e86192c217</title>
<polygon fill="none" stroke="black" points="1103.5,-313 836.5,-313 836.5,-277 1103.5,-277 1103.5,-313"/>
<text text-anchor="middle" x="970" y="-291.3" font-family="Times,serif" font-size="14.00">10_node#ServerID_34e86192c217</text>
</g>
<!-- 10_node#ServerID_34e86192c217&#45;&gt;gateway:8080#ServerID_OuterContainerID -->
<g id="edge18" class="edge"><title>10_node#ServerID_34e86192c217&#45;&gt;gateway:8080#ServerID_OuterContainerID</title>
<path fill="none" stroke="black" d="M999.949,-313.144C1031.96,-330.449 1084.77,-356.127 1134,-367 1145.91,-369.631 1999.8,-389.745 2012,-390 2526.62,-400.74 2655.58,-390.083 3170,-408 3223.32,-409.857 3281.7,-412.774 3333.5,-415.671"/>
<polygon fill="black" stroke="black" points="3333.58,-419.181 3343.76,-416.25 3333.98,-412.192 3333.58,-419.181"/>
<text text-anchor="middle" x="2041" y="-378.8" font-family="Times,serif" font-size="14.00">connect</text>
</g>
<!-- pipe:[331683264]#ServerID_34e86192c217 -->
<g id="node10" class="node"><title>pipe:[331683264]#ServerID_34e86192c217</title>
<ellipse fill="none" stroke="black" cx="905" cy="-208" rx="217.162" ry="18"/>
<text text-anchor="middle" x="905" y="-204.3" font-family="Times,serif" font-size="14.00">pipe:[331683264]#ServerID_34e86192c217</text>
</g>
<!-- 10_node#ServerID_34e86192c217&#45;&gt;pipe:[331683264]#ServerID_34e86192c217 -->
<g id="edge11" class="edge"><title>10_node#ServerID_34e86192c217&#45;&gt;pipe:[331683264]#ServerID_34e86192c217</title>
<path fill="none" stroke="black" d="M956.846,-276.799C947.507,-264.587 934.818,-247.992 924.33,-234.278"/>
<polygon fill="black" stroke="black" points="926.989,-231.993 918.134,-226.175 921.428,-236.245 926.989,-231.993"/>
<text text-anchor="middle" x="961" y="-247.8" font-family="Times,serif" font-size="14.00">write</text>
</g>
<!-- 10.152.183.10:53#ServerID_OuterContainerID -->
<g id="node13" class="node"><title>10.152.183.10:53#ServerID_OuterContainerID</title>
<polygon fill="none" stroke="black" points="1473,-444 1145.56,-426 1473,-408 1800.44,-426 1473,-444"/>
<text text-anchor="middle" x="1473" y="-422.3" font-family="Times,serif" font-size="14.00">10.152.183.10:53#ServerID_OuterContainerID</text>
</g>
<!-- 10_node#ServerID_34e86192c217&#45;&gt;10.152.183.10:53#ServerID_OuterContainerID -->
<g id="edge14" class="edge"><title>10_node#ServerID_34e86192c217&#45;&gt;10.152.183.10:53#ServerID_OuterContainerID</title>
<path fill="none" stroke="black" d="M1000.62,-313.121C1032.75,-330.146 1085.27,-355.355 1134,-367 1191.17,-380.659 1207.87,-366.288 1266,-375 1316.67,-382.594 1373.13,-396.617 1414.28,-407.884"/>
<polygon fill="black" stroke="black" points="1413.56,-411.317 1424.13,-410.61 1415.42,-404.57 1413.56,-411.317"/>
<text text-anchor="middle" x="1365.5" y="-378.8" font-family="Times,serif" font-size="14.00">sendto</text>
</g>
<!-- /etc/hosts#ServerID_34e86192c217 -->
<g id="node11" class="node"><title>/etc/hosts#ServerID_34e86192c217</title>
<ellipse fill="none" stroke="black" cx="514" cy="-426" rx="180.068" ry="18"/>
<text text-anchor="middle" x="514" y="-422.3" font-family="Times,serif" font-size="14.00">/etc/hosts#ServerID_34e86192c217</text>
</g>
<!-- /etc/hosts#ServerID_34e86192c217&#45;&gt;10_node#ServerID_34e86192c217 -->
<g id="edge12" class="edge"><title>/etc/hosts#ServerID_34e86192c217&#45;&gt;10_node#ServerID_34e86192c217</title>
<path fill="none" stroke="black" d="M571.291,-408.793C654.754,-385.181 809.628,-341.368 899.821,-315.853"/>
<polygon fill="black" stroke="black" points="901.014,-319.153 909.684,-313.063 899.109,-312.417 901.014,-319.153"/>
<text text-anchor="middle" x="704.5" y="-378.8" font-family="Times,serif" font-size="14.00">read</text>
</g>
<!-- /etc/resolv.conf#ServerID_34e86192c217 -->
<g id="node12" class="node"><title>/etc/resolv.conf#ServerID_34e86192c217</title>
<ellipse fill="none" stroke="black" cx="917" cy="-426" rx="205.264" ry="18"/>
<text text-anchor="middle" x="917" y="-422.3" font-family="Times,serif" font-size="14.00">/etc/resolv.conf#ServerID_34e86192c217</text>
</g>
<!-- /etc/resolv.conf#ServerID_34e86192c217&#45;&gt;10_node#ServerID_34e86192c217 -->
<g id="edge13" class="edge"><title>/etc/resolv.conf#ServerID_34e86192c217&#45;&gt;10_node#ServerID_34e86192c217</title>
<path fill="none" stroke="black" d="M924.038,-407.87C932.987,-386.088 948.536,-348.244 959.042,-322.67"/>
<polygon fill="black" stroke="black" points="962.37,-323.781 962.933,-313.201 955.895,-321.121 962.37,-323.781"/>
<text text-anchor="middle" x="954.5" y="-378.8" font-family="Times,serif" font-size="14.00">read</text>
</g>
<!-- 10.152.183.10:53#ServerID_OuterContainerID&#45;&gt;10_node#ServerID_34e86192c217 -->
<g id="edge15" class="edge"><title>10.152.183.10:53#ServerID_OuterContainerID&#45;&gt;10_node#ServerID_34e86192c217</title>
<path fill="none" stroke="black" d="M1345.01,-415.024C1297.75,-409.723 1244.02,-401.775 1196,-390 1167.46,-383.001 1161.27,-377.953 1134,-367 1094.3,-351.056 1049.79,-331.689 1017.16,-317.213"/>
<polygon fill="black" stroke="black" points="1018.43,-313.943 1007.87,-313.077 1015.58,-320.339 1018.43,-313.943"/>
<text text-anchor="middle" x="1229" y="-378.8" font-family="Times,serif" font-size="14.00">recvfrom</text>
</g>
<!-- localhost:3000#ServerID_e56b6537e2d5 -->
<g id="node15" class="node"><title>localhost:3000#ServerID_e56b6537e2d5</title>
<polygon fill="none" stroke="black" points="5240,-226 4953.45,-208 5240,-190 5526.55,-208 5240,-226"/>
<text text-anchor="middle" x="5240" y="-204.3" font-family="Times,serif" font-size="14.00">localhost:3000#ServerID_e56b6537e2d5</text>
</g>
<!-- 1_fwatchdog#ServerID_e56b6537e2d5&#45;&gt;localhost:3000#ServerID_e56b6537e2d5 -->
<g id="edge17" class="edge"><title>1_fwatchdog#ServerID_e56b6537e2d5&#45;&gt;localhost:3000#ServerID_e56b6537e2d5</title>
<path fill="none" stroke="black" d="M4967.6,-276.901C5028.18,-261.801 5115.86,-239.943 5175.26,-225.138"/>
<polygon fill="black" stroke="black" points="5176.41,-228.457 5185.27,-222.642 5174.72,-221.665 5176.41,-228.457"/>
<text text-anchor="middle" x="5108" y="-247.8" font-family="Times,serif" font-size="14.00">write</text>
</g>
<!-- pipe:[331682317]#ServerID_e56b6537e2d5 -->
<g id="node18" class="node"><title>pipe:[331682317]#ServerID_e56b6537e2d5</title>
<ellipse fill="none" stroke="black" cx="4718" cy="-208" rx="217.162" ry="18"/>
<text text-anchor="middle" x="4718" y="-204.3" font-family="Times,serif" font-size="14.00">pipe:[331682317]#ServerID_e56b6537e2d5</text>
</g>
<!-- 1_fwatchdog#ServerID_e56b6537e2d5&#45;&gt;pipe:[331682317]#ServerID_e56b6537e2d5 -->
<g id="edge22" class="edge"><title>1_fwatchdog#ServerID_e56b6537e2d5&#45;&gt;pipe:[331682317]#ServerID_e56b6537e2d5</title>
<path fill="none" stroke="black" d="M4862.37,-276.799C4833.73,-263.346 4793.76,-244.577 4763.14,-230.197"/>
<polygon fill="black" stroke="black" points="4764.5,-226.968 4753.96,-225.885 4761.52,-233.304 4764.5,-226.968"/>
<text text-anchor="middle" x="4838" y="-247.8" font-family="Times,serif" font-size="14.00">write</text>
</g>
<!-- localhost:3000#ServerID_e56b6537e2d5&#45;&gt;1_fwatchdog#ServerID_e56b6537e2d5 -->
<g id="edge21" class="edge"><title>localhost:3000#ServerID_e56b6537e2d5&#45;&gt;1_fwatchdog#ServerID_e56b6537e2d5</title>
<path fill="none" stroke="black" d="M5212.16,-224.416C5190.63,-235.681 5159.73,-250.43 5131,-259 5107.93,-265.882 5083.14,-271.453 5058.67,-275.949"/>
<polygon fill="black" stroke="black" points="5057.8,-272.548 5048.57,-277.748 5059.03,-279.44 5057.8,-272.548"/>
<text text-anchor="middle" x="5187.5" y="-247.8" font-family="Times,serif" font-size="14.00">read</text>
</g>
<!-- 12_node#ServerID_e56b6537e2d5 -->
<g id="node16" class="node"><title>12_node#ServerID_e56b6537e2d5</title>
<polygon fill="none" stroke="black" points="5373.5,-139 5106.5,-139 5106.5,-103 5373.5,-103 5373.5,-139"/>
<text text-anchor="middle" x="5240" y="-117.3" font-family="Times,serif" font-size="14.00">12_node#ServerID_e56b6537e2d5</text>
</g>
<!-- localhost:3000#ServerID_e56b6537e2d5&#45;&gt;12_node#ServerID_e56b6537e2d5 -->
<g id="edge19" class="edge"><title>localhost:3000#ServerID_e56b6537e2d5&#45;&gt;12_node#ServerID_e56b6537e2d5</title>
<path fill="none" stroke="black" d="M5240,-189.799C5240,-178.163 5240,-162.548 5240,-149.237"/>
<polygon fill="black" stroke="black" points="5243.5,-149.175 5240,-139.175 5236.5,-149.175 5243.5,-149.175"/>
<text text-anchor="middle" x="5256.5" y="-160.8" font-family="Times,serif" font-size="14.00">read</text>
</g>
<!-- pipe:[331682415]#ServerID_e56b6537e2d5 -->
<g id="node17" class="node"><title>pipe:[331682415]#ServerID_e56b6537e2d5</title>
<ellipse fill="none" stroke="black" cx="5240" cy="-34" rx="217.162" ry="18"/>
<text text-anchor="middle" x="5240" y="-30.3" font-family="Times,serif" font-size="14.00">pipe:[331682415]#ServerID_e56b6537e2d5</text>
</g>
<!-- 12_node#ServerID_e56b6537e2d5&#45;&gt;pipe:[331682415]#ServerID_e56b6537e2d5 -->
<g id="edge20" class="edge"><title>12_node#ServerID_e56b6537e2d5&#45;&gt;pipe:[331682415]#ServerID_e56b6537e2d5</title>
<path fill="none" stroke="black" d="M5240,-102.799C5240,-91.1626 5240,-75.5479 5240,-62.2368"/>
<polygon fill="black" stroke="black" points="5243.5,-62.1754 5240,-52.1754 5236.5,-62.1755 5243.5,-62.1754"/>
<text text-anchor="middle" x="5259" y="-73.8" font-family="Times,serif" font-size="14.00">write</text>
</g>
<!-- 10.1.80.1:44370#ServerID_OuterContainerID&#45;&gt;10.1.80.247:8080#ServerID_OuterContainerID -->
<g id="edge24" class="edge"><title>10.1.80.1:44370#ServerID_OuterContainerID&#45;&gt;10.1.80.247:8080#ServerID_OuterContainerID</title>
<path fill="none" stroke="black" d="M2076.27,-312.998C2070.64,-332.963 2064.78,-366.355 2079,-390 2082.5,-395.824 2087.34,-400.731 2092.81,-404.851"/>
<polygon fill="black" stroke="black" points="2090.93,-407.798 2101.21,-410.34 2094.76,-401.939 2090.93,-407.798"/>
<text text-anchor="middle" x="2099" y="-378.8" font-family="Times,serif" font-size="14.00">POST</text>
</g>
</g>
</svg>
