<?xml version="1.0" encoding="UTF-8" standalone="no"?>
<!DOCTYPE svg PUBLIC "-//W3C//DTD SVG 1.1//EN"
 "http://www.w3.org/Graphics/SVG/1.1/DTD/svg11.dtd">
<!-- Generated by graphviz version 2.38.0 (20140413.2041)
 -->
<!-- Title: G Pages: 1 -->
<svg width="7983pt" height="576pt"
 viewBox="0.00 0.00 7983.00 576.00" xmlns="http://www.w3.org/2000/svg" xmlns:xlink="http://www.w3.org/1999/xlink">
<g id="graph0" class="graph" transform="scale(1 1) rotate(0) translate(4 572)">
<title>G</title>
<polygon fill="white" stroke="none" points="-4,4 -4,-572 7979,-572 7979,4 -4,4"/>
<g id="clust1" class="cluster"><title>clusterServerID_34e86192c217</title>
<polygon fill="none" stroke="black" points="5777,-8 5777,-344 7173,-344 7173,-8 5777,-8"/>
<text text-anchor="middle" x="6475" y="-328.8" font-family="Times,serif" font-size="14.00">clusterServerID_34e86192c217</text>
</g>
<g id="clust2" class="cluster"><title>clusterServerID_5f846fd567&#45;w7nbt</title>
<polygon fill="none" stroke="black" points="4909,-485 4909,-560 5249,-560 5249,-485 4909,-485"/>
<text text-anchor="middle" x="5079" y="-544.8" font-family="Times,serif" font-size="14.00">clusterServerID_5f846fd567&#45;w7nbt</text>
</g>
<g id="clust3" class="cluster"><title>clusterServerID_6df85d7674&#45;2kqrj</title>
<polygon fill="none" stroke="black" points="5431,-269 5431,-344 5769,-344 5769,-269 5431,-269"/>
<text text-anchor="middle" x="5600" y="-328.8" font-family="Times,serif" font-size="14.00">clusterServerID_6df85d7674&#45;2kqrj</text>
</g>
<g id="clust4" class="cluster"><title>clusterServerID_OuterContainerID</title>
<polygon fill="none" stroke="black" points="8,-269 8,-452 5423,-452 5423,-269 8,-269"/>
<text text-anchor="middle" x="2715.5" y="-436.8" font-family="Times,serif" font-size="14.00">clusterServerID_OuterContainerID</text>
</g>
<g id="clust5" class="cluster"><title>clusterServerID_e56b6537e2d5</title>
<polygon fill="none" stroke="black" points="7377,-182 7377,-560 7967,-560 7967,-182 7377,-182"/>
<text text-anchor="middle" x="7672" y="-544.8" font-family="Times,serif" font-size="14.00">clusterServerID_e56b6537e2d5</text>
</g>
<!-- 10.1.80.247:58392#ServerID_OuterContainerID -->
<g id="node1" class="node"><title>10.1.80.247:58392#ServerID_OuterContainerID</title>
<polygon fill="none" stroke="black" points="5080,-421 4744.52,-403 5080,-385 5415.48,-403 5080,-421"/>
<text text-anchor="middle" x="5080" y="-399.3" font-family="Times,serif" font-size="14.00">10.1.80.247:58392#ServerID_OuterContainerID</text>
</g>
<!-- 1_fwatchdog#ServerID_5f846fd567&#45;w7nbt -->
<g id="node2" class="node"><title>1_fwatchdog#ServerID_5f846fd567&#45;w7nbt</title>
<polygon fill="none" stroke="black" points="5241,-529 4917,-529 4917,-493 5241,-493 5241,-529"/>
<text text-anchor="middle" x="5079" y="-507.3" font-family="Times,serif" font-size="14.00">1_fwatchdog#ServerID_5f846fd567&#45;w7nbt</text>
</g>
<!-- 10.1.80.247:58392#ServerID_OuterContainerID&#45;&gt;1_fwatchdog#ServerID_5f846fd567&#45;w7nbt -->
<g id="edge1" class="edge"><title>10.1.80.247:58392#ServerID_OuterContainerID&#45;&gt;1_fwatchdog#ServerID_5f846fd567&#45;w7nbt</title>
<path fill="none" stroke="black" d="M5095.08,-420.48C5106.24,-434.767 5118.35,-456.067 5111,-475 5109.64,-478.507 5107.74,-481.876 5105.55,-485.046"/>
<polygon fill="black" stroke="black" points="5102.75,-482.944 5099.2,-492.928 5108.2,-487.335 5102.75,-482.944"/>
<text text-anchor="middle" x="5134" y="-463.8" font-family="Times,serif" font-size="14.00">POST</text>
</g>
<!-- 1_fwatchdog#ServerID_5f846fd567&#45;w7nbt&#45;&gt;10.1.80.247:58392#ServerID_OuterContainerID -->
<g id="edge4" class="edge"><title>1_fwatchdog#ServerID_5f846fd567&#45;w7nbt&#45;&gt;10.1.80.247:58392#ServerID_OuterContainerID</title>
<path fill="none" stroke="black" d="M5040.07,-492.889C5027.19,-484.513 5017.4,-473.341 5023,-460 5028.43,-447.053 5038.47,-435.591 5048.64,-426.463"/>
<polygon fill="black" stroke="black" points="5050.97,-429.075 5056.36,-419.952 5046.46,-423.724 5050.97,-429.075"/>
<text text-anchor="middle" x="5065" y="-463.8" font-family="Times,serif" font-size="14.00">RESPONSE</text>
</g>
<!-- 10.1.80.247:56388#ServerID_OuterContainerID -->
<g id="node3" class="node"><title>10.1.80.247:56388#ServerID_OuterContainerID</title>
<polygon fill="none" stroke="black" points="1024,-421 688.515,-403 1024,-385 1359.48,-403 1024,-421"/>
<text text-anchor="middle" x="1024" y="-399.3" font-family="Times,serif" font-size="14.00">10.1.80.247:56388#ServerID_OuterContainerID</text>
</g>
<!-- 1_fwatchdog#ServerID_6df85d7674&#45;2kqrj -->
<g id="node4" class="node"><title>1_fwatchdog#ServerID_6df85d7674&#45;2kqrj</title>
<polygon fill="none" stroke="black" points="5760.5,-313 5439.5,-313 5439.5,-277 5760.5,-277 5760.5,-313"/>
<text text-anchor="middle" x="5600" y="-291.3" font-family="Times,serif" font-size="14.00">1_fwatchdog#ServerID_6df85d7674&#45;2kqrj</text>
</g>
<!-- 10.1.80.247:56388#ServerID_OuterContainerID&#45;&gt;1_fwatchdog#ServerID_6df85d7674&#45;2kqrj -->
<g id="edge2" class="edge"><title>10.1.80.247:56388#ServerID_OuterContainerID&#45;&gt;1_fwatchdog#ServerID_6df85d7674&#45;2kqrj</title>
<path fill="none" stroke="black" d="M1172.33,-392.955C1379.3,-380.82 1766.55,-359.883 2097,-352 2189.47,-349.794 5335.36,-356.589 5427,-344 5466.21,-338.614 5509.08,-326.763 5542.33,-316.185"/>
<polygon fill="black" stroke="black" points="5543.45,-319.503 5551.89,-313.098 5541.3,-312.842 5543.45,-319.503"/>
<text text-anchor="middle" x="2117" y="-355.8" font-family="Times,serif" font-size="14.00">POST</text>
</g>
<!-- 1_fwatchdog#ServerID_34e86192c217 -->
<g id="node7" class="node"><title>1_fwatchdog#ServerID_34e86192c217</title>
<polygon fill="none" stroke="black" points="6943.5,-313 6644.5,-313 6644.5,-277 6943.5,-277 6943.5,-313"/>
<text text-anchor="middle" x="6794" y="-291.3" font-family="Times,serif" font-size="14.00">1_fwatchdog#ServerID_34e86192c217</text>
</g>
<!-- 10.1.80.247:56388#ServerID_OuterContainerID&#45;&gt;1_fwatchdog#ServerID_34e86192c217 -->
<g id="edge13" class="edge"><title>10.1.80.247:56388#ServerID_OuterContainerID&#45;&gt;1_fwatchdog#ServerID_34e86192c217</title>
<path fill="none" stroke="black" d="M1178.09,-393.255C1237.71,-390.174 1306.51,-386.986 1369,-385 1625.12,-376.86 3418.76,-354.322 3675,-352 4141.21,-347.775 5306.92,-355.839 5773,-344 6077.85,-336.256 6433.51,-317.279 6634.38,-305.64"/>
<polygon fill="black" stroke="black" points="6634.64,-309.131 6644.42,-305.057 6634.24,-302.142 6634.64,-309.131"/>
<text text-anchor="middle" x="3691.5" y="-355.8" font-family="Times,serif" font-size="14.00">read</text>
</g>
<!-- 1_fwatchdog#ServerID_6df85d7674&#45;2kqrj&#45;&gt;10.1.80.247:56388#ServerID_OuterContainerID -->
<g id="edge5" class="edge"><title>1_fwatchdog#ServerID_6df85d7674&#45;2kqrj&#45;&gt;10.1.80.247:56388#ServerID_OuterContainerID</title>
<path fill="none" stroke="black" d="M5551.89,-313.095C5517.58,-324.356 5470.08,-338.077 5427,-344 5343.04,-355.544 2460.71,-349.233 2376,-352 2269.63,-355.474 2243.33,-362.419 2137,-367 1795.89,-381.696 1710.2,-372.597 1369,-385 1311.05,-387.106 1247.66,-390.047 1191.2,-392.891"/>
<polygon fill="black" stroke="black" points="1190.92,-389.401 1181.11,-393.402 1191.28,-396.392 1190.92,-389.401"/>
<text text-anchor="middle" x="2418" y="-355.8" font-family="Times,serif" font-size="14.00">RESPONSE</text>
</g>
<!-- 10.1.80.247:8080#ServerID_OuterContainerID -->
<g id="node5" class="node"><title>10.1.80.247:8080#ServerID_OuterContainerID</title>
<polygon fill="none" stroke="black" points="343,-421 15.5599,-403 343,-385 670.44,-403 343,-421"/>
<text text-anchor="middle" x="343" y="-399.3" font-family="Times,serif" font-size="14.00">10.1.80.247:8080#ServerID_OuterContainerID</text>
</g>
<!-- 1_fwatchdog#ServerID_6df85d7674&#45;2kqrj&#45;&gt;10.1.80.247:8080#ServerID_OuterContainerID -->
<g id="edge3" class="edge"><title>1_fwatchdog#ServerID_6df85d7674&#45;2kqrj&#45;&gt;10.1.80.247:8080#ServerID_OuterContainerID</title>
<path fill="none" stroke="black" d="M5551.89,-313.103C5517.58,-324.369 5470.08,-338.091 5427,-344 5371.26,-351.646 1432.25,-350.612 1376,-352 1063.57,-359.711 698.44,-380.051 496.714,-392.282"/>
<polygon fill="black" stroke="black" points="496.407,-388.794 486.638,-392.894 496.832,-395.781 496.407,-388.794"/>
<text text-anchor="middle" x="1396" y="-355.8" font-family="Times,serif" font-size="14.00">POST</text>
</g>
<!-- gateway:8080#ServerID_OuterContainerID -->
<g id="node6" class="node"><title>gateway:8080#ServerID_OuterContainerID</title>
<polygon fill="none" stroke="black" points="1682,-421 1377.52,-403 1682,-385 1986.48,-403 1682,-421"/>
<text text-anchor="middle" x="1682" y="-399.3" font-family="Times,serif" font-size="14.00">gateway:8080#ServerID_OuterContainerID</text>
</g>
<!-- 1_fwatchdog#ServerID_6df85d7674&#45;2kqrj&#45;&gt;gateway:8080#ServerID_OuterContainerID -->
<g id="edge8" class="edge"><title>1_fwatchdog#ServerID_6df85d7674&#45;2kqrj&#45;&gt;gateway:8080#ServerID_OuterContainerID</title>
<path fill="none" stroke="black" d="M5551.5,-313.09C5517.21,-324.272 5469.89,-337.899 5427,-344 5379.82,-350.711 2043.63,-383.427 1996,-385 1942.18,-386.778 1883.21,-389.71 1831.06,-392.642"/>
<polygon fill="black" stroke="black" points="1830.85,-389.148 1821.06,-393.209 1831.24,-396.137 1830.85,-389.148"/>
<text text-anchor="middle" x="4936" y="-355.8" font-family="Times,serif" font-size="14.00">POST</text>
</g>
<!-- 10.1.80.247:8080#ServerID_OuterContainerID&#45;&gt;1_fwatchdog#ServerID_6df85d7674&#45;2kqrj -->
<g id="edge6" class="edge"><title>10.1.80.247:8080#ServerID_OuterContainerID&#45;&gt;1_fwatchdog#ServerID_6df85d7674&#45;2kqrj</title>
<path fill="none" stroke="black" d="M496.467,-393.417C554.017,-390.42 619.996,-387.247 680,-385 1006.98,-372.756 1089.26,-384.594 1416,-367 1496.16,-362.683 1515.8,-355.42 1596,-352 1702.32,-347.466 5321.57,-358.467 5427,-344 5466.21,-338.62 5509.08,-326.769 5542.33,-316.19"/>
<polygon fill="black" stroke="black" points="5543.45,-319.508 5551.89,-313.102 5541.3,-312.847 5543.45,-319.508"/>
<text text-anchor="middle" x="1638" y="-355.8" font-family="Times,serif" font-size="14.00">RESPONSE</text>
</g>
<!-- 10.1.80.1:37472#ServerID_OuterContainerID -->
<g id="node21" class="node"><title>10.1.80.1:37472#ServerID_OuterContainerID</title>
<polygon fill="none" stroke="black" points="1023,-313 704.105,-295 1023,-277 1341.9,-295 1023,-313"/>
<text text-anchor="middle" x="1023" y="-291.3" font-family="Times,serif" font-size="14.00">10.1.80.1:37472#ServerID_OuterContainerID</text>
</g>
<!-- 10.1.80.247:8080#ServerID_OuterContainerID&#45;&gt;10.1.80.1:37472#ServerID_OuterContainerID -->
<g id="edge27" class="edge"><title>10.1.80.247:8080#ServerID_OuterContainerID&#45;&gt;10.1.80.1:37472#ServerID_OuterContainerID</title>
<path fill="none" stroke="black" d="M396.482,-387.865C442.425,-376.303 510.609,-360.52 571,-352 625.684,-344.285 640.078,-349.781 695,-344 777.749,-335.29 871.648,-321.109 937.71,-310.414"/>
<polygon fill="black" stroke="black" points="938.35,-313.856 947.658,-308.795 937.226,-306.946 938.35,-313.856"/>
<text text-anchor="middle" x="613" y="-355.8" font-family="Times,serif" font-size="14.00">RESPONSE</text>
</g>
<!-- 10.0.88.125:31112#ServerID_OuterContainerID -->
<g id="node22" class="node"><title>10.0.88.125:31112#ServerID_OuterContainerID</title>
<polygon fill="none" stroke="black" points="351,-313 15.5152,-295 351,-277 686.485,-295 351,-313"/>
<text text-anchor="middle" x="351" y="-291.3" font-family="Times,serif" font-size="14.00">10.0.88.125:31112#ServerID_OuterContainerID</text>
</g>
<!-- 10.1.80.247:8080#ServerID_OuterContainerID&#45;&gt;10.0.88.125:31112#ServerID_OuterContainerID -->
<g id="edge28" class="edge"><title>10.1.80.247:8080#ServerID_OuterContainerID&#45;&gt;10.0.88.125:31112#ServerID_OuterContainerID</title>
<path fill="none" stroke="black" d="M344.285,-384.969C345.545,-368.279 347.485,-342.579 348.956,-323.084"/>
<polygon fill="black" stroke="black" points="352.455,-323.224 349.718,-312.988 345.475,-322.697 352.455,-323.224"/>
<text text-anchor="middle" x="389" y="-355.8" font-family="Times,serif" font-size="14.00">RESPONSE</text>
</g>
<!-- gateway:8080#ServerID_OuterContainerID&#45;&gt;1_fwatchdog#ServerID_6df85d7674&#45;2kqrj -->
<g id="edge7" class="edge"><title>gateway:8080#ServerID_OuterContainerID&#45;&gt;1_fwatchdog#ServerID_6df85d7674&#45;2kqrj</title>
<path fill="none" stroke="black" d="M1821.06,-393.209C1875.59,-390.092 1938.71,-386.892 1996,-385 2377.04,-372.414 5049.55,-397.691 5427,-344 5466.04,-338.447 5508.74,-326.66 5541.96,-316.156"/>
<polygon fill="black" stroke="black" points="5543.05,-319.481 5551.5,-313.09 5540.91,-312.816 5543.05,-319.481"/>
<text text-anchor="middle" x="5378" y="-355.8" font-family="Times,serif" font-size="14.00">RESPONSE</text>
</g>
<!-- localhost:3000#ServerID_34e86192c217 -->
<g id="node8" class="node"><title>localhost:3000#ServerID_34e86192c217</title>
<polygon fill="none" stroke="black" points="6878,-226 6591.45,-208 6878,-190 7164.55,-208 6878,-226"/>
<text text-anchor="middle" x="6878" y="-204.3" font-family="Times,serif" font-size="14.00">localhost:3000#ServerID_34e86192c217</text>
</g>
<!-- 1_fwatchdog#ServerID_34e86192c217&#45;&gt;localhost:3000#ServerID_34e86192c217 -->
<g id="edge9" class="edge"><title>1_fwatchdog#ServerID_34e86192c217&#45;&gt;localhost:3000#ServerID_34e86192c217</title>
<path fill="none" stroke="black" d="M6801.36,-276.898C6806.4,-266.552 6813.83,-253.557 6823,-244 6827.9,-238.898 6833.68,-234.201 6839.62,-230.016"/>
<polygon fill="black" stroke="black" points="6841.94,-232.684 6848.37,-224.262 6838.09,-226.837 6841.94,-232.684"/>
<text text-anchor="middle" x="6852" y="-247.8" font-family="Times,serif" font-size="14.00">connect</text>
</g>
<!-- 1_fwatchdog#ServerID_34e86192c217&#45;&gt;localhost:3000#ServerID_34e86192c217 -->
<g id="edge11" class="edge"><title>1_fwatchdog#ServerID_34e86192c217&#45;&gt;localhost:3000#ServerID_34e86192c217</title>
<path fill="none" stroke="black" d="M6861.41,-276.875C6869.11,-272.267 6875.99,-266.42 6881,-259 6885.59,-252.211 6886.39,-243.646 6885.58,-235.533"/>
<polygon fill="black" stroke="black" points="6889.02,-234.907 6883.84,-225.665 6882.13,-236.12 6889.02,-234.907"/>
<text text-anchor="middle" x="6905" y="-247.8" font-family="Times,serif" font-size="14.00">write</text>
</g>
<!-- localhost:3000#ServerID_34e86192c217&#45;&gt;1_fwatchdog#ServerID_34e86192c217 -->
<g id="edge10" class="edge"><title>localhost:3000#ServerID_34e86192c217&#45;&gt;1_fwatchdog#ServerID_34e86192c217</title>
<path fill="none" stroke="black" d="M6804,-221.475C6792.62,-226.632 6782.26,-233.867 6775,-244 6769.89,-251.13 6771.14,-259.806 6774.75,-267.915"/>
<polygon fill="black" stroke="black" points="6771.71,-269.658 6779.61,-276.718 6777.84,-266.273 6771.71,-269.658"/>
<text text-anchor="middle" x="6791.5" y="-247.8" font-family="Times,serif" font-size="14.00">read</text>
</g>
<!-- 10_node#ServerID_34e86192c217 -->
<g id="node11" class="node"><title>10_node#ServerID_34e86192c217</title>
<polygon fill="none" stroke="black" points="7063.5,-139 6796.5,-139 6796.5,-103 7063.5,-103 7063.5,-139"/>
<text text-anchor="middle" x="6930" y="-117.3" font-family="Times,serif" font-size="14.00">10_node#ServerID_34e86192c217</text>
</g>
<!-- localhost:3000#ServerID_34e86192c217&#45;&gt;10_node#ServerID_34e86192c217 -->
<g id="edge16" class="edge"><title>localhost:3000#ServerID_34e86192c217&#45;&gt;10_node#ServerID_34e86192c217</title>
<path fill="none" stroke="black" d="M6888.03,-190.611C6895.43,-178.502 6905.67,-161.774 6914.17,-147.868"/>
<polygon fill="black" stroke="black" points="6917.24,-149.571 6919.47,-139.214 6911.26,-145.918 6917.24,-149.571"/>
<text text-anchor="middle" x="6924.5" y="-160.8" font-family="Times,serif" font-size="14.00">read</text>
</g>
<!-- 10.1.80.247:56390#ServerID_OuterContainerID -->
<g id="node9" class="node"><title>10.1.80.247:56390#ServerID_OuterContainerID</title>
<polygon fill="none" stroke="black" points="2340,-421 2004.52,-403 2340,-385 2675.48,-403 2340,-421"/>
<text text-anchor="middle" x="2340" y="-399.3" font-family="Times,serif" font-size="14.00">10.1.80.247:56390#ServerID_OuterContainerID</text>
</g>
<!-- 10.1.80.247:56390#ServerID_OuterContainerID&#45;&gt;1_fwatchdog#ServerID_34e86192c217 -->
<g id="edge12" class="edge"><title>10.1.80.247:56390#ServerID_OuterContainerID&#45;&gt;1_fwatchdog#ServerID_34e86192c217</title>
<path fill="none" stroke="black" d="M2491.94,-393.112C2552.05,-389.963 2621.76,-386.765 2685,-385 3901.89,-351.036 4207.16,-402.512 5424,-367 5862.28,-354.209 6378.72,-323.096 6634.23,-306.628"/>
<polygon fill="black" stroke="black" points="6634.57,-310.113 6644.33,-305.976 6634.12,-303.128 6634.57,-310.113"/>
<text text-anchor="middle" x="5817.5" y="-355.8" font-family="Times,serif" font-size="14.00">read</text>
</g>
<!-- 10.1.80.247:56402#ServerID_OuterContainerID -->
<g id="node10" class="node"><title>10.1.80.247:56402#ServerID_OuterContainerID</title>
<polygon fill="none" stroke="black" points="3029,-421 2693.52,-403 3029,-385 3364.48,-403 3029,-421"/>
<text text-anchor="middle" x="3029" y="-399.3" font-family="Times,serif" font-size="14.00">10.1.80.247:56402#ServerID_OuterContainerID</text>
</g>
<!-- 10.1.80.247:56402#ServerID_OuterContainerID&#45;&gt;1_fwatchdog#ServerID_34e86192c217 -->
<g id="edge14" class="edge"><title>10.1.80.247:56402#ServerID_OuterContainerID&#45;&gt;1_fwatchdog#ServerID_34e86192c217</title>
<path fill="none" stroke="black" d="M3180.51,-393.093C3240.72,-389.93 3310.61,-386.729 3374,-385 3397.59,-384.357 6753.04,-381.051 6772,-367 6785.48,-357.011 6790.94,-338.858 6793.05,-323.409"/>
<polygon fill="black" stroke="black" points="6796.55,-323.57 6794.04,-313.278 6789.59,-322.893 6796.55,-323.57"/>
<text text-anchor="middle" x="6801.5" y="-355.8" font-family="Times,serif" font-size="14.00">read</text>
</g>
<!-- 10_node#ServerID_34e86192c217&#45;&gt;gateway:8080#ServerID_OuterContainerID -->
<g id="edge21" class="edge"><title>10_node#ServerID_34e86192c217&#45;&gt;gateway:8080#ServerID_OuterContainerID</title>
<path fill="none" stroke="black" d="M7063.79,-135.207C7138.48,-148.408 7209.91,-174.552 7174,-226 7160.72,-245.025 7146.49,-235.266 7125,-244 7099.75,-254.261 7092.99,-256.053 7069,-269 7014.65,-298.339 7011.14,-326.187 6952,-344 6931.68,-350.121 5445.22,-366.785 5424,-367 4662.25,-374.733 2757.45,-362.402 1996,-385 1941.66,-386.613 1882.08,-389.543 1829.56,-392.522"/>
<polygon fill="black" stroke="black" points="1829.28,-389.032 1819.5,-393.098 1829.68,-396.021 1829.28,-389.032"/>
<text text-anchor="middle" x="7154" y="-247.8" font-family="Times,serif" font-size="14.00">connect</text>
</g>
<!-- pipe:[331683264]#ServerID_34e86192c217 -->
<g id="node12" class="node"><title>pipe:[331683264]#ServerID_34e86192c217</title>
<ellipse fill="none" stroke="black" cx="6930" cy="-34" rx="217.162" ry="18"/>
<text text-anchor="middle" x="6930" y="-30.3" font-family="Times,serif" font-size="14.00">pipe:[331683264]#ServerID_34e86192c217</text>
</g>
<!-- 10_node#ServerID_34e86192c217&#45;&gt;pipe:[331683264]#ServerID_34e86192c217 -->
<g id="edge15" class="edge"><title>10_node#ServerID_34e86192c217&#45;&gt;pipe:[331683264]#ServerID_34e86192c217</title>
<path fill="none" stroke="black" d="M6930,-102.799C6930,-91.1626 6930,-75.5479 6930,-62.2368"/>
<polygon fill="black" stroke="black" points="6933.5,-62.1754 6930,-52.1754 6926.5,-62.1755 6933.5,-62.1754"/>
<text text-anchor="middle" x="6949" y="-73.8" font-family="Times,serif" font-size="14.00">write</text>
</g>
<!-- 10.152.183.10:53#ServerID_OuterContainerID -->
<g id="node13" class="node"><title>10.152.183.10:53#ServerID_OuterContainerID</title>
<polygon fill="none" stroke="black" points="4399,-421 4071.56,-403 4399,-385 4726.44,-403 4399,-421"/>
<text text-anchor="middle" x="4399" y="-399.3" font-family="Times,serif" font-size="14.00">10.152.183.10:53#ServerID_OuterContainerID</text>
</g>
<!-- 10_node#ServerID_34e86192c217&#45;&gt;10.152.183.10:53#ServerID_OuterContainerID -->
<g id="edge17" class="edge"><title>10_node#ServerID_34e86192c217&#45;&gt;10.152.183.10:53#ServerID_OuterContainerID</title>
<path fill="none" stroke="black" d="M7063.55,-125.218C7135.31,-129.195 7215.07,-137.933 7245,-157 7323.72,-207.142 7324.03,-317.353 7245,-367 7215.49,-385.537 4770.83,-383.997 4736,-385 4677.72,-386.678 4613.82,-389.621 4557.48,-392.591"/>
<polygon fill="black" stroke="black" points="4557.22,-389.1 4547.42,-393.126 4557.59,-396.09 4557.22,-389.1"/>
<text text-anchor="middle" x="7329.5" y="-247.8" font-family="Times,serif" font-size="14.00">sendto</text>
</g>
<!-- 10.152.183.10:53#ServerID_OuterContainerID&#45;&gt;10_node#ServerID_34e86192c217 -->
<g id="edge20" class="edge"><title>10.152.183.10:53#ServerID_OuterContainerID&#45;&gt;10_node#ServerID_34e86192c217</title>
<path fill="none" stroke="black" d="M4547.84,-393.144C4606.45,-390.009 4674.37,-386.813 4736,-385 4973.24,-378.02 6635.53,-387.299 6872,-367 7032.95,-353.184 7127.67,-366.721 7207,-226 7222.06,-199.285 7227.28,-180.004 7207,-157 7197.4,-146.107 7136.08,-137.742 7073.58,-131.926"/>
<polygon fill="black" stroke="black" points="7073.82,-128.434 7063.54,-131.015 7073.19,-135.405 7073.82,-128.434"/>
<text text-anchor="middle" x="7229" y="-247.8" font-family="Times,serif" font-size="14.00">recvfrom</text>
</g>
<!-- /etc/hosts#ServerID_34e86192c217 -->
<g id="node14" class="node"><title>/etc/hosts#ServerID_34e86192c217</title>
<ellipse fill="none" stroke="black" cx="6393" cy="-208" rx="180.068" ry="18"/>
<text text-anchor="middle" x="6393" y="-204.3" font-family="Times,serif" font-size="14.00">/etc/hosts#ServerID_34e86192c217</text>
</g>
<!-- /etc/hosts#ServerID_34e86192c217&#45;&gt;10_node#ServerID_34e86192c217 -->
<g id="edge18" class="edge"><title>/etc/hosts#ServerID_34e86192c217&#45;&gt;10_node#ServerID_34e86192c217</title>
<path fill="none" stroke="black" d="M6484.7,-192.485C6575.21,-178.159 6713.95,-156.197 6812.49,-140.6"/>
<polygon fill="black" stroke="black" points="6813.17,-144.036 6822.5,-139.016 6812.08,-137.122 6813.17,-144.036"/>
<text text-anchor="middle" x="6710.5" y="-160.8" font-family="Times,serif" font-size="14.00">read</text>
</g>
<!-- /etc/resolv.conf#ServerID_34e86192c217 -->
<g id="node15" class="node"><title>/etc/resolv.conf#ServerID_34e86192c217</title>
<ellipse fill="none" stroke="black" cx="5990" cy="-208" rx="205.264" ry="18"/>
<text text-anchor="middle" x="5990" y="-204.3" font-family="Times,serif" font-size="14.00">/etc/resolv.conf#ServerID_34e86192c217</text>
</g>
<!-- /etc/resolv.conf#ServerID_34e86192c217&#45;&gt;10_node#ServerID_34e86192c217 -->
<g id="edge19" class="edge"><title>/etc/resolv.conf#ServerID_34e86192c217&#45;&gt;10_node#ServerID_34e86192c217</title>
<path fill="none" stroke="black" d="M6103.76,-192.986C6136.13,-189.195 6171.43,-185.247 6204,-182 6405.71,-161.889 6639.42,-143.441 6786,-132.457"/>
<polygon fill="black" stroke="black" points="6786.69,-135.916 6796.4,-131.68 6786.17,-128.935 6786.69,-135.916"/>
<text text-anchor="middle" x="6480.5" y="-160.8" font-family="Times,serif" font-size="14.00">read</text>
</g>
<!-- 1_fwatchdog#ServerID_e56b6537e2d5 -->
<g id="node16" class="node"><title>1_fwatchdog#ServerID_e56b6537e2d5</title>
<polygon fill="none" stroke="black" points="7821.5,-529 7522.5,-529 7522.5,-493 7821.5,-493 7821.5,-529"/>
<text text-anchor="middle" x="7672" y="-507.3" font-family="Times,serif" font-size="14.00">1_fwatchdog#ServerID_e56b6537e2d5</text>
</g>
<!-- localhost:3000#ServerID_e56b6537e2d5 -->
<g id="node17" class="node"><title>localhost:3000#ServerID_e56b6537e2d5</title>
<polygon fill="none" stroke="black" points="7672,-421 7385.45,-403 7672,-385 7958.55,-403 7672,-421"/>
<text text-anchor="middle" x="7672" y="-399.3" font-family="Times,serif" font-size="14.00">localhost:3000#ServerID_e56b6537e2d5</text>
</g>
<!-- 1_fwatchdog#ServerID_e56b6537e2d5&#45;&gt;localhost:3000#ServerID_e56b6537e2d5 -->
<g id="edge22" class="edge"><title>1_fwatchdog#ServerID_e56b6537e2d5&#45;&gt;localhost:3000#ServerID_e56b6537e2d5</title>
<path fill="none" stroke="black" d="M7672,-492.969C7672,-476.378 7672,-450.883 7672,-431.431"/>
<polygon fill="black" stroke="black" points="7675.5,-431.341 7672,-421.341 7668.5,-431.341 7675.5,-431.341"/>
<text text-anchor="middle" x="7701" y="-463.8" font-family="Times,serif" font-size="14.00">connect</text>
</g>
<!-- 12_node#ServerID_e56b6537e2d5 -->
<g id="node18" class="node"><title>12_node#ServerID_e56b6537e2d5</title>
<polygon fill="none" stroke="black" points="7805.5,-313 7538.5,-313 7538.5,-277 7805.5,-277 7805.5,-313"/>
<text text-anchor="middle" x="7672" y="-291.3" font-family="Times,serif" font-size="14.00">12_node#ServerID_e56b6537e2d5</text>
</g>
<!-- localhost:3000#ServerID_e56b6537e2d5&#45;&gt;12_node#ServerID_e56b6537e2d5 -->
<g id="edge25" class="edge"><title>localhost:3000#ServerID_e56b6537e2d5&#45;&gt;12_node#ServerID_e56b6537e2d5</title>
<path fill="none" stroke="black" d="M7672,-384.969C7672,-368.378 7672,-342.883 7672,-323.431"/>
<polygon fill="black" stroke="black" points="7675.5,-323.341 7672,-313.341 7668.5,-323.341 7675.5,-323.341"/>
<text text-anchor="middle" x="7688.5" y="-355.8" font-family="Times,serif" font-size="14.00">read</text>
</g>
<!-- pipe:[331682415]#ServerID_e56b6537e2d5 -->
<g id="node19" class="node"><title>pipe:[331682415]#ServerID_e56b6537e2d5</title>
<ellipse fill="none" stroke="black" cx="7672" cy="-208" rx="217.162" ry="18"/>
<text text-anchor="middle" x="7672" y="-204.3" font-family="Times,serif" font-size="14.00">pipe:[331682415]#ServerID_e56b6537e2d5</text>
</g>
<!-- 12_node#ServerID_e56b6537e2d5&#45;&gt;pipe:[331682415]#ServerID_e56b6537e2d5 -->
<g id="edge23" class="edge"><title>12_node#ServerID_e56b6537e2d5&#45;&gt;pipe:[331682415]#ServerID_e56b6537e2d5</title>
<path fill="none" stroke="black" d="M7672,-276.799C7672,-265.163 7672,-249.548 7672,-236.237"/>
<polygon fill="black" stroke="black" points="7675.5,-236.175 7672,-226.175 7668.5,-236.175 7675.5,-236.175"/>
<text text-anchor="middle" x="7691" y="-247.8" font-family="Times,serif" font-size="14.00">write</text>
</g>
<!-- 10.1.80.247:56462#ServerID_OuterContainerID -->
<g id="node20" class="node"><title>10.1.80.247:56462#ServerID_OuterContainerID</title>
<polygon fill="none" stroke="black" points="3718,-421 3382.52,-403 3718,-385 4053.48,-403 3718,-421"/>
<text text-anchor="middle" x="3718" y="-399.3" font-family="Times,serif" font-size="14.00">10.1.80.247:56462#ServerID_OuterContainerID</text>
</g>
<!-- 10.1.80.247:56462#ServerID_OuterContainerID&#45;&gt;1_fwatchdog#ServerID_34e86192c217 -->
<g id="edge24" class="edge"><title>10.1.80.247:56462#ServerID_OuterContainerID&#45;&gt;1_fwatchdog#ServerID_34e86192c217</title>
<path fill="none" stroke="black" d="M3869.94,-393.11C3930.05,-389.96 3999.76,-386.763 4063,-385 4082.19,-384.465 6814.47,-380.622 6828,-367 6840.68,-354.239 6831.33,-335.83 6819.26,-320.956"/>
<polygon fill="black" stroke="black" points="6821.61,-318.332 6812.39,-313.114 6816.34,-322.943 6821.61,-318.332"/>
<text text-anchor="middle" x="6851.5" y="-355.8" font-family="Times,serif" font-size="14.00">read</text>
</g>
<!-- 10.1.80.1:37472#ServerID_OuterContainerID&#45;&gt;10.1.80.247:8080#ServerID_OuterContainerID -->
<g id="edge26" class="edge"><title>10.1.80.1:37472#ServerID_OuterContainerID&#45;&gt;10.1.80.247:8080#ServerID_OuterContainerID</title>
<path fill="none" stroke="black" d="M961.763,-309.546C889.642,-325.126 766.088,-350.654 659,-367 596.974,-376.468 527.725,-384.428 469.898,-390.354"/>
<polygon fill="black" stroke="black" points="469.205,-386.906 459.61,-391.399 469.912,-393.87 469.205,-386.906"/>
<text text-anchor="middle" x="760" y="-355.8" font-family="Times,serif" font-size="14.00">POST</text>
</g>
</g>
</svg>
