<?xml version="1.0" encoding="UTF-8" standalone="no"?>
<!DOCTYPE svg PUBLIC "-//W3C//DTD SVG 1.1//EN"
 "http://www.w3.org/Graphics/SVG/1.1/DTD/svg11.dtd">
<!-- Generated by graphviz version 2.38.0 (20140413.2041)
 -->
<!-- Title: G Pages: 1 -->
<svg width="6341pt" height="402pt"
 viewBox="0.00 0.00 6341.00 402.00" xmlns="http://www.w3.org/2000/svg" xmlns:xlink="http://www.w3.org/1999/xlink">
<g id="graph0" class="graph" transform="scale(1 1) rotate(0) translate(4 398)">
<title>G</title>
<polygon fill="white" stroke="none" points="-4,4 -4,-398 6337,-398 6337,4 -4,4"/>
<g id="clust1" class="cluster"><title>clusterServerID_34e86192c217</title>
<polygon fill="none" stroke="black" points="4400,-8 4400,-170 5442,-170 5442,-8 4400,-8"/>
<text text-anchor="middle" x="4921" y="-154.8" font-family="Times,serif" font-size="14.00">clusterServerID_34e86192c217</text>
</g>
<g id="clust2" class="cluster"><title>clusterServerID_5f846fd567&#45;w7nbt</title>
<polygon fill="none" stroke="black" points="4052,-95 4052,-170 4392,-170 4392,-95 4052,-95"/>
<text text-anchor="middle" x="4222" y="-154.8" font-family="Times,serif" font-size="14.00">clusterServerID_5f846fd567&#45;w7nbt</text>
</g>
<g id="clust3" class="cluster"><title>clusterServerID_6df85d7674&#45;2kqrj</title>
<polygon fill="none" stroke="black" points="1543,-311 1543,-386 1881,-386 1881,-311 1543,-311"/>
<text text-anchor="middle" x="1712" y="-370.8" font-family="Times,serif" font-size="14.00">clusterServerID_6df85d7674&#45;2kqrj</text>
</g>
<g id="clust4" class="cluster"><title>clusterServerID_OuterContainerID</title>
<polygon fill="none" stroke="black" points="8,-95 8,-278 4044,-278 4044,-95 8,-95"/>
<text text-anchor="middle" x="2026" y="-262.8" font-family="Times,serif" font-size="14.00">clusterServerID_OuterContainerID</text>
</g>
<g id="clust5" class="cluster"><title>clusterServerID_e56b6537e2d5</title>
<polygon fill="none" stroke="black" points="5450,-8 5450,-278 6325,-278 6325,-8 5450,-8"/>
<text text-anchor="middle" x="5887.5" y="-262.8" font-family="Times,serif" font-size="14.00">clusterServerID_e56b6537e2d5</text>
</g>
<!-- 1_fwatchdog#ServerID_6df85d7674&#45;2kqrj -->
<g id="node1" class="node"><title>1_fwatchdog#ServerID_6df85d7674&#45;2kqrj</title>
<polygon fill="none" stroke="black" points="1872.5,-355 1551.5,-355 1551.5,-319 1872.5,-319 1872.5,-355"/>
<text text-anchor="middle" x="1712" y="-333.3" font-family="Times,serif" font-size="14.00">1_fwatchdog#ServerID_6df85d7674&#45;2kqrj</text>
</g>
<!-- gateway:8080#ServerID_OuterContainerID -->
<g id="node2" class="node"><title>gateway:8080#ServerID_OuterContainerID</title>
<polygon fill="none" stroke="black" points="3060,-247 2755.52,-229 3060,-211 3364.48,-229 3060,-247"/>
<text text-anchor="middle" x="3060" y="-225.3" font-family="Times,serif" font-size="14.00">gateway:8080#ServerID_OuterContainerID</text>
</g>
<!-- 1_fwatchdog#ServerID_6df85d7674&#45;2kqrj&#45;&gt;gateway:8080#ServerID_OuterContainerID -->
<g id="edge1" class="edge"><title>1_fwatchdog#ServerID_6df85d7674&#45;2kqrj&#45;&gt;gateway:8080#ServerID_OuterContainerID</title>
<path fill="none" stroke="black" d="M1872.69,-331.748C2076.34,-325.267 2437.97,-310.108 2746,-278 2825.53,-269.71 2915.7,-255.413 2978.94,-244.573"/>
<polygon fill="black" stroke="black" points="2979.59,-248.012 2988.86,-242.864 2978.41,-241.113 2979.59,-248.012"/>
<text text-anchor="middle" x="2683" y="-289.8" font-family="Times,serif" font-size="14.00">POST</text>
</g>
<!-- 10.1.80.247:56388#ServerID_OuterContainerID -->
<g id="node3" class="node"><title>10.1.80.247:56388#ServerID_OuterContainerID</title>
<polygon fill="none" stroke="black" points="1713,-247 1377.52,-229 1713,-211 2048.48,-229 1713,-247"/>
<text text-anchor="middle" x="1713" y="-225.3" font-family="Times,serif" font-size="14.00">10.1.80.247:56388#ServerID_OuterContainerID</text>
</g>
<!-- 1_fwatchdog#ServerID_6df85d7674&#45;2kqrj&#45;&gt;10.1.80.247:56388#ServerID_OuterContainerID -->
<g id="edge4" class="edge"><title>1_fwatchdog#ServerID_6df85d7674&#45;2kqrj&#45;&gt;10.1.80.247:56388#ServerID_OuterContainerID</title>
<path fill="none" stroke="black" d="M1673.07,-318.889C1660.19,-310.513 1650.4,-299.341 1656,-286 1661.43,-273.053 1671.47,-261.591 1681.64,-252.463"/>
<polygon fill="black" stroke="black" points="1683.97,-255.075 1689.36,-245.952 1679.46,-249.724 1683.97,-255.075"/>
<text text-anchor="middle" x="1698" y="-289.8" font-family="Times,serif" font-size="14.00">RESPONSE</text>
</g>
<!-- 10.1.80.247:8080#ServerID_OuterContainerID -->
<g id="node4" class="node"><title>10.1.80.247:8080#ServerID_OuterContainerID</title>
<polygon fill="none" stroke="black" points="343,-247 15.5599,-229 343,-211 670.44,-229 343,-247"/>
<text text-anchor="middle" x="343" y="-225.3" font-family="Times,serif" font-size="14.00">10.1.80.247:8080#ServerID_OuterContainerID</text>
</g>
<!-- 1_fwatchdog#ServerID_6df85d7674&#45;2kqrj&#45;&gt;10.1.80.247:8080#ServerID_OuterContainerID -->
<g id="edge3" class="edge"><title>1_fwatchdog#ServerID_6df85d7674&#45;2kqrj&#45;&gt;10.1.80.247:8080#ServerID_OuterContainerID</title>
<path fill="none" stroke="black" d="M1551.07,-332.736C1347.62,-327.282 986.866,-313.195 680,-278 596.092,-268.377 500.842,-254.539 433.064,-244.191"/>
<polygon fill="black" stroke="black" points="433.263,-240.681 422.848,-242.626 432.203,-247.6 433.263,-240.681"/>
<text text-anchor="middle" x="926" y="-289.8" font-family="Times,serif" font-size="14.00">POST</text>
</g>
<!-- gateway:8080#ServerID_OuterContainerID&#45;&gt;1_fwatchdog#ServerID_6df85d7674&#45;2kqrj -->
<g id="edge8" class="edge"><title>gateway:8080#ServerID_OuterContainerID&#45;&gt;1_fwatchdog#ServerID_6df85d7674&#45;2kqrj</title>
<path fill="none" stroke="black" d="M3005.72,-243.795C2936.79,-260.644 2813.94,-288.449 2707,-301 2552.67,-319.111 2124.34,-329.047 1883,-333.357"/>
<polygon fill="black" stroke="black" points="1882.65,-329.862 1872.71,-333.539 1882.77,-336.861 1882.65,-329.862"/>
<text text-anchor="middle" x="2847" y="-289.8" font-family="Times,serif" font-size="14.00">RESPONSE</text>
</g>
<!-- 10.1.80.247:56388#ServerID_OuterContainerID&#45;&gt;1_fwatchdog#ServerID_6df85d7674&#45;2kqrj -->
<g id="edge2" class="edge"><title>10.1.80.247:56388#ServerID_OuterContainerID&#45;&gt;1_fwatchdog#ServerID_6df85d7674&#45;2kqrj</title>
<path fill="none" stroke="black" d="M1728.08,-246.48C1739.24,-260.767 1751.35,-282.067 1744,-301 1742.64,-304.507 1740.74,-307.876 1738.55,-311.046"/>
<polygon fill="black" stroke="black" points="1735.75,-308.944 1732.2,-318.928 1741.2,-313.335 1735.75,-308.944"/>
<text text-anchor="middle" x="1767" y="-289.8" font-family="Times,serif" font-size="14.00">POST</text>
</g>
<!-- 1_fwatchdog#ServerID_34e86192c217 -->
<g id="node7" class="node"><title>1_fwatchdog#ServerID_34e86192c217</title>
<polygon fill="none" stroke="black" points="4707.5,-139 4408.5,-139 4408.5,-103 4707.5,-103 4707.5,-139"/>
<text text-anchor="middle" x="4558" y="-117.3" font-family="Times,serif" font-size="14.00">1_fwatchdog#ServerID_34e86192c217</text>
</g>
<!-- 10.1.80.247:56388#ServerID_OuterContainerID&#45;&gt;1_fwatchdog#ServerID_34e86192c217 -->
<g id="edge11" class="edge"><title>10.1.80.247:56388#ServerID_OuterContainerID&#45;&gt;1_fwatchdog#ServerID_34e86192c217</title>
<path fill="none" stroke="black" d="M1870.11,-219.391C1929.03,-216.391 1996.57,-213.223 2058,-211 2692.42,-188.043 2851.24,-188.124 3486,-178 3536.55,-177.194 4346,-177.476 4396,-170 4432.52,-164.54 4472.29,-152.844 4503.29,-142.365"/>
<polygon fill="black" stroke="black" points="4504.71,-145.577 4513.03,-139.015 4502.44,-138.957 4504.71,-145.577"/>
<text text-anchor="middle" x="3502.5" y="-181.8" font-family="Times,serif" font-size="14.00">read</text>
</g>
<!-- 10.1.80.247:8080#ServerID_OuterContainerID&#45;&gt;1_fwatchdog#ServerID_6df85d7674&#45;2kqrj -->
<g id="edge6" class="edge"><title>10.1.80.247:8080#ServerID_OuterContainerID&#45;&gt;1_fwatchdog#ServerID_6df85d7674&#45;2kqrj</title>
<path fill="none" stroke="black" d="M417.018,-242.974C485.116,-254.33 589.028,-270.198 680,-278 799.614,-288.258 830.083,-280.291 950,-286 1153.28,-295.678 1386.76,-311.727 1541.12,-323.027"/>
<polygon fill="black" stroke="black" points="1540.95,-326.523 1551.18,-323.764 1541.46,-319.542 1540.95,-326.523"/>
<text text-anchor="middle" x="1244" y="-289.8" font-family="Times,serif" font-size="14.00">RESPONSE</text>
</g>
<!-- 10.1.80.1:53185#ServerID_OuterContainerID -->
<g id="node18" class="node"><title>10.1.80.1:53185#ServerID_OuterContainerID</title>
<polygon fill="none" stroke="black" points="1023,-139 704.105,-121 1023,-103 1341.9,-121 1023,-139"/>
<text text-anchor="middle" x="1023" y="-117.3" font-family="Times,serif" font-size="14.00">10.1.80.1:53185#ServerID_OuterContainerID</text>
</g>
<!-- 10.1.80.247:8080#ServerID_OuterContainerID&#45;&gt;10.1.80.1:53185#ServerID_OuterContainerID -->
<g id="edge22" class="edge"><title>10.1.80.247:8080#ServerID_OuterContainerID&#45;&gt;10.1.80.1:53185#ServerID_OuterContainerID</title>
<path fill="none" stroke="black" d="M478.332,-218.394C544.753,-212.73 625.817,-204.403 698,-193 789.295,-178.578 893.455,-154.441 958.717,-138.371"/>
<polygon fill="black" stroke="black" points="959.586,-141.762 968.453,-135.963 957.905,-134.967 959.586,-141.762"/>
<text text-anchor="middle" x="821" y="-181.8" font-family="Times,serif" font-size="14.00">RESPONSE</text>
</g>
<!-- 10.0.88.125:31112#ServerID_OuterContainerID -->
<g id="node19" class="node"><title>10.0.88.125:31112#ServerID_OuterContainerID</title>
<polygon fill="none" stroke="black" points="351,-139 15.5152,-121 351,-103 686.485,-121 351,-139"/>
<text text-anchor="middle" x="351" y="-117.3" font-family="Times,serif" font-size="14.00">10.0.88.125:31112#ServerID_OuterContainerID</text>
</g>
<!-- 10.1.80.247:8080#ServerID_OuterContainerID&#45;&gt;10.0.88.125:31112#ServerID_OuterContainerID -->
<g id="edge24" class="edge"><title>10.1.80.247:8080#ServerID_OuterContainerID&#45;&gt;10.0.88.125:31112#ServerID_OuterContainerID</title>
<path fill="none" stroke="black" d="M344.285,-210.969C345.545,-194.279 347.485,-168.579 348.956,-149.084"/>
<polygon fill="black" stroke="black" points="352.455,-149.224 349.718,-138.988 345.475,-148.697 352.455,-149.224"/>
<text text-anchor="middle" x="389" y="-181.8" font-family="Times,serif" font-size="14.00">RESPONSE</text>
</g>
<!-- 1_fwatchdog#ServerID_5f846fd567&#45;w7nbt -->
<g id="node5" class="node"><title>1_fwatchdog#ServerID_5f846fd567&#45;w7nbt</title>
<polygon fill="none" stroke="black" points="4384,-139 4060,-139 4060,-103 4384,-103 4384,-139"/>
<text text-anchor="middle" x="4222" y="-117.3" font-family="Times,serif" font-size="14.00">1_fwatchdog#ServerID_5f846fd567&#45;w7nbt</text>
</g>
<!-- 10.1.80.247:58576#ServerID_OuterContainerID -->
<g id="node6" class="node"><title>10.1.80.247:58576#ServerID_OuterContainerID</title>
<polygon fill="none" stroke="black" points="1024,-247 688.515,-229 1024,-211 1359.48,-229 1024,-247"/>
<text text-anchor="middle" x="1024" y="-225.3" font-family="Times,serif" font-size="14.00">10.1.80.247:58576#ServerID_OuterContainerID</text>
</g>
<!-- 1_fwatchdog#ServerID_5f846fd567&#45;w7nbt&#45;&gt;10.1.80.247:58576#ServerID_OuterContainerID -->
<g id="edge5" class="edge"><title>1_fwatchdog#ServerID_5f846fd567&#45;w7nbt&#45;&gt;10.1.80.247:58576#ServerID_OuterContainerID</title>
<path fill="none" stroke="black" d="M4173.6,-139.083C4139.09,-150.34 4091.31,-164.059 4048,-170 3984.84,-178.664 1816.71,-175.707 1753,-178 1542.99,-185.56 1299.53,-204.271 1153.84,-216.537"/>
<polygon fill="black" stroke="black" points="1153.19,-213.079 1143.52,-217.409 1153.78,-220.054 1153.19,-213.079"/>
<text text-anchor="middle" x="1795" y="-181.8" font-family="Times,serif" font-size="14.00">RESPONSE</text>
</g>
<!-- 10.1.80.247:58576#ServerID_OuterContainerID&#45;&gt;1_fwatchdog#ServerID_5f846fd567&#45;w7nbt -->
<g id="edge7" class="edge"><title>10.1.80.247:58576#ServerID_OuterContainerID&#45;&gt;1_fwatchdog#ServerID_5f846fd567&#45;w7nbt</title>
<path fill="none" stroke="black" d="M1185.89,-219.662C1243.67,-216.781 1309.24,-213.622 1369,-211 1576.95,-201.878 1629.09,-203.136 1837,-193 1949.95,-187.493 1977.97,-181.566 2091,-178 2145.33,-176.286 3994.15,-177.404 4048,-170 4087.42,-164.581 4130.54,-152.73 4163.99,-142.16"/>
<polygon fill="black" stroke="black" points="4165.15,-145.464 4173.6,-139.075 4163.01,-138.799 4165.15,-145.464"/>
<text text-anchor="middle" x="2111" y="-181.8" font-family="Times,serif" font-size="14.00">POST</text>
</g>
<!-- 1_fwatchdog#ServerID_e56b6537e2d5 -->
<g id="node13" class="node"><title>1_fwatchdog#ServerID_e56b6537e2d5</title>
<polygon fill="none" stroke="black" points="6209.5,-139 5910.5,-139 5910.5,-103 6209.5,-103 6209.5,-139"/>
<text text-anchor="middle" x="6060" y="-117.3" font-family="Times,serif" font-size="14.00">1_fwatchdog#ServerID_e56b6537e2d5</text>
</g>
<!-- 10.1.80.247:58576#ServerID_OuterContainerID&#45;&gt;1_fwatchdog#ServerID_e56b6537e2d5 -->
<g id="edge19" class="edge"><title>10.1.80.247:58576#ServerID_OuterContainerID&#45;&gt;1_fwatchdog#ServerID_e56b6537e2d5</title>
<path fill="none" stroke="black" d="M1181.11,-219.408C1240.03,-216.41 1307.57,-213.239 1369,-211 1707.54,-198.663 1792.37,-202.52 2131,-193 2335.47,-187.251 2386.48,-181.581 2591,-178 2636.97,-177.195 5855.53,-176.77 5901,-170 5936.9,-164.655 5975.94,-152.961 6006.35,-142.454"/>
<polygon fill="black" stroke="black" points="6007.63,-145.713 6015.9,-139.094 6005.31,-139.11 6007.63,-145.713"/>
<text text-anchor="middle" x="2607.5" y="-181.8" font-family="Times,serif" font-size="14.00">read</text>
</g>
<!-- 10.1.80.247:56552#ServerID_OuterContainerID -->
<g id="node8" class="node"><title>10.1.80.247:56552#ServerID_OuterContainerID</title>
<polygon fill="none" stroke="black" points="2402,-247 2066.52,-229 2402,-211 2737.48,-229 2402,-247"/>
<text text-anchor="middle" x="2402" y="-225.3" font-family="Times,serif" font-size="14.00">10.1.80.247:56552#ServerID_OuterContainerID</text>
</g>
<!-- 1_fwatchdog#ServerID_34e86192c217&#45;&gt;10.1.80.247:56552#ServerID_OuterContainerID -->
<g id="edge9" class="edge"><title>1_fwatchdog#ServerID_34e86192c217&#45;&gt;10.1.80.247:56552#ServerID_OuterContainerID</title>
<path fill="none" stroke="black" d="M4512.31,-139.053C4480.26,-150.139 4436.13,-163.67 4396,-170 4033.92,-227.117 3113.31,-197.423 2747,-211 2689.19,-213.142 2625.97,-216.084 2569.62,-218.918"/>
<polygon fill="black" stroke="black" points="2569.35,-215.427 2559.54,-219.427 2569.71,-222.418 2569.35,-215.427"/>
<text text-anchor="middle" x="4345" y="-181.8" font-family="Times,serif" font-size="14.00">write</text>
</g>
<!-- localhost:3000#ServerID_34e86192c217 -->
<g id="node9" class="node"><title>localhost:3000#ServerID_34e86192c217</title>
<polygon fill="none" stroke="black" points="4695,-52 4408.45,-34 4695,-16 4981.55,-34 4695,-52"/>
<text text-anchor="middle" x="4695" y="-30.3" font-family="Times,serif" font-size="14.00">localhost:3000#ServerID_34e86192c217</text>
</g>
<!-- 1_fwatchdog#ServerID_34e86192c217&#45;&gt;localhost:3000#ServerID_34e86192c217 -->
<g id="edge10" class="edge"><title>1_fwatchdog#ServerID_34e86192c217&#45;&gt;localhost:3000#ServerID_34e86192c217</title>
<path fill="none" stroke="black" d="M4585.72,-102.799C4607.63,-89.2063 4638.29,-70.1851 4661.56,-55.7483"/>
<polygon fill="black" stroke="black" points="4663.43,-58.7068 4670.08,-50.4606 4659.74,-52.7587 4663.43,-58.7068"/>
<text text-anchor="middle" x="4654" y="-73.8" font-family="Times,serif" font-size="14.00">write</text>
</g>
<!-- 10.1.80.247:56552#ServerID_OuterContainerID&#45;&gt;1_fwatchdog#ServerID_34e86192c217 -->
<g id="edge12" class="edge"><title>10.1.80.247:56552#ServerID_OuterContainerID&#45;&gt;1_fwatchdog#ServerID_34e86192c217</title>
<path fill="none" stroke="black" d="M2559.54,-219.427C2618.36,-216.44 2685.72,-213.271 2747,-211 2769.89,-210.151 4373.37,-173.57 4396,-170 4432.21,-164.288 4471.68,-152.713 4502.59,-142.362"/>
<polygon fill="black" stroke="black" points="4503.97,-145.589 4512.31,-139.053 4501.71,-138.962 4503.97,-145.589"/>
<text text-anchor="middle" x="4130.5" y="-181.8" font-family="Times,serif" font-size="14.00">read</text>
</g>
<!-- 10_node#ServerID_34e86192c217 -->
<g id="node10" class="node"><title>10_node#ServerID_34e86192c217</title>
<polygon fill="none" stroke="black" points="5171.5,-139 4904.5,-139 4904.5,-103 5171.5,-103 5171.5,-139"/>
<text text-anchor="middle" x="5038" y="-117.3" font-family="Times,serif" font-size="14.00">10_node#ServerID_34e86192c217</text>
</g>
<!-- 10_node#ServerID_34e86192c217&#45;&gt;gateway:8080#ServerID_OuterContainerID -->
<g id="edge15" class="edge"><title>10_node#ServerID_34e86192c217&#45;&gt;gateway:8080#ServerID_OuterContainerID</title>
<path fill="none" stroke="black" d="M4943.6,-139.058C4879.6,-149.885 4792.98,-163.111 4716,-170 4121.21,-223.226 3969.63,-185.694 3373,-211 3321.13,-213.2 3264.46,-216.121 3213.77,-218.92"/>
<polygon fill="black" stroke="black" points="3213.5,-215.429 3203.71,-219.478 3213.89,-222.418 3213.5,-215.429"/>
<text text-anchor="middle" x="4643" y="-181.8" font-family="Times,serif" font-size="14.00">connect</text>
</g>
<!-- pipe:[331683264]#ServerID_34e86192c217 -->
<g id="node11" class="node"><title>pipe:[331683264]#ServerID_34e86192c217</title>
<ellipse fill="none" stroke="black" cx="5217" cy="-34" rx="217.162" ry="18"/>
<text text-anchor="middle" x="5217" y="-30.3" font-family="Times,serif" font-size="14.00">pipe:[331683264]#ServerID_34e86192c217</text>
</g>
<!-- 10_node#ServerID_34e86192c217&#45;&gt;pipe:[331683264]#ServerID_34e86192c217 -->
<g id="edge13" class="edge"><title>10_node#ServerID_34e86192c217&#45;&gt;pipe:[331683264]#ServerID_34e86192c217</title>
<path fill="none" stroke="black" d="M5074.22,-102.799C5102.55,-89.3465 5142.08,-70.577 5172.36,-56.1966"/>
<polygon fill="black" stroke="black" points="5173.91,-59.3366 5181.44,-51.8854 5170.91,-53.0133 5173.91,-59.3366"/>
<text text-anchor="middle" x="5158" y="-73.8" font-family="Times,serif" font-size="14.00">write</text>
</g>
<!-- localhost:3000#ServerID_e56b6537e2d5 -->
<g id="node12" class="node"><title>localhost:3000#ServerID_e56b6537e2d5</title>
<polygon fill="none" stroke="black" points="6030,-247 5743.45,-229 6030,-211 6316.55,-229 6030,-247"/>
<text text-anchor="middle" x="6030" y="-225.3" font-family="Times,serif" font-size="14.00">localhost:3000#ServerID_e56b6537e2d5</text>
</g>
<!-- localhost:3000#ServerID_e56b6537e2d5&#45;&gt;1_fwatchdog#ServerID_e56b6537e2d5 -->
<g id="edge14" class="edge"><title>localhost:3000#ServerID_e56b6537e2d5&#45;&gt;1_fwatchdog#ServerID_e56b6537e2d5</title>
<path fill="none" stroke="black" d="M6043,-211.786C6046.86,-206.148 6050.67,-199.581 6053,-193 6057.92,-179.086 6059.78,-162.744 6060.35,-149.248"/>
<polygon fill="black" stroke="black" points="6063.86,-149.211 6060.58,-139.135 6056.86,-149.055 6063.86,-149.211"/>
<text text-anchor="middle" x="6073.5" y="-181.8" font-family="Times,serif" font-size="14.00">read</text>
</g>
<!-- 1_fwatchdog#ServerID_e56b6537e2d5&#45;&gt;localhost:3000#ServerID_e56b6537e2d5 -->
<g id="edge17" class="edge"><title>1_fwatchdog#ServerID_e56b6537e2d5&#45;&gt;localhost:3000#ServerID_e56b6537e2d5</title>
<path fill="none" stroke="black" d="M6039.1,-139.109C6028.5,-149.178 6016.68,-162.884 6011,-178 6008.03,-185.91 6009.57,-194.515 6012.79,-202.321"/>
<polygon fill="black" stroke="black" points="6009.72,-204.007 6017.36,-211.345 6015.97,-200.843 6009.72,-204.007"/>
<text text-anchor="middle" x="6030" y="-181.8" font-family="Times,serif" font-size="14.00">write</text>
</g>
<!-- pipe:[331682317]#ServerID_e56b6537e2d5 -->
<g id="node14" class="node"><title>pipe:[331682317]#ServerID_e56b6537e2d5</title>
<ellipse fill="none" stroke="black" cx="6060" cy="-34" rx="217.162" ry="18"/>
<text text-anchor="middle" x="6060" y="-30.3" font-family="Times,serif" font-size="14.00">pipe:[331682317]#ServerID_e56b6537e2d5</text>
</g>
<!-- 1_fwatchdog#ServerID_e56b6537e2d5&#45;&gt;pipe:[331682317]#ServerID_e56b6537e2d5 -->
<g id="edge16" class="edge"><title>1_fwatchdog#ServerID_e56b6537e2d5&#45;&gt;pipe:[331682317]#ServerID_e56b6537e2d5</title>
<path fill="none" stroke="black" d="M6060,-102.799C6060,-91.1626 6060,-75.5479 6060,-62.2368"/>
<polygon fill="black" stroke="black" points="6063.5,-62.1754 6060,-52.1754 6056.5,-62.1755 6063.5,-62.1754"/>
<text text-anchor="middle" x="6079" y="-73.8" font-family="Times,serif" font-size="14.00">write</text>
</g>
<!-- 12_node#ServerID_e56b6537e2d5 -->
<g id="node15" class="node"><title>12_node#ServerID_e56b6537e2d5</title>
<polygon fill="none" stroke="black" points="5725.5,-247 5458.5,-247 5458.5,-211 5725.5,-211 5725.5,-247"/>
<text text-anchor="middle" x="5592" y="-225.3" font-family="Times,serif" font-size="14.00">12_node#ServerID_e56b6537e2d5</text>
</g>
<!-- pipe:[331682415]#ServerID_e56b6537e2d5 -->
<g id="node16" class="node"><title>pipe:[331682415]#ServerID_e56b6537e2d5</title>
<ellipse fill="none" stroke="black" cx="5675" cy="-121" rx="217.162" ry="18"/>
<text text-anchor="middle" x="5675" y="-117.3" font-family="Times,serif" font-size="14.00">pipe:[331682415]#ServerID_e56b6537e2d5</text>
</g>
<!-- 12_node#ServerID_e56b6537e2d5&#45;&gt;pipe:[331682415]#ServerID_e56b6537e2d5 -->
<g id="edge18" class="edge"><title>12_node#ServerID_e56b6537e2d5&#45;&gt;pipe:[331682415]#ServerID_e56b6537e2d5</title>
<path fill="none" stroke="black" d="M5605.34,-210.969C5618.89,-193.661 5640.03,-166.663 5655.47,-146.944"/>
<polygon fill="black" stroke="black" points="5658.29,-149.02 5661.7,-138.988 5652.78,-144.704 5658.29,-149.02"/>
<text text-anchor="middle" x="5650" y="-181.8" font-family="Times,serif" font-size="14.00">write</text>
</g>
<!-- 10.152.183.10:53#ServerID_OuterContainerID -->
<g id="node17" class="node"><title>10.152.183.10:53#ServerID_OuterContainerID</title>
<polygon fill="none" stroke="black" points="3709,-247 3381.56,-229 3709,-211 4036.44,-229 3709,-247"/>
<text text-anchor="middle" x="3709" y="-225.3" font-family="Times,serif" font-size="14.00">10.152.183.10:53#ServerID_OuterContainerID</text>
</g>
<!-- 12_node#ServerID_e56b6537e2d5&#45;&gt;10.152.183.10:53#ServerID_OuterContainerID -->
<g id="edge21" class="edge"><title>12_node#ServerID_e56b6537e2d5&#45;&gt;10.152.183.10:53#ServerID_OuterContainerID</title>
<path fill="none" stroke="black" d="M5458.45,-229C5167.26,-229 4467.64,-229 4046.66,-229"/>
<polygon fill="black" stroke="black" points="4046.46,-225.5 4036.46,-229 4046.46,-232.5 4046.46,-225.5"/>
<text text-anchor="middle" x="4747.36" y="-235.8" font-family="Times,serif" font-size="14.00">sendto</text>
</g>
<!-- 10.152.183.10:53#ServerID_OuterContainerID&#45;&gt;12_node#ServerID_e56b6537e2d5 -->
<g id="edge20" class="edge"><title>10.152.183.10:53#ServerID_OuterContainerID&#45;&gt;12_node#ServerID_e56b6537e2d5</title>
<path fill="none" stroke="black" d="M4036.46,-229C4451.53,-229 5149.01,-229 5448.41,-229"/>
<polygon fill="black" stroke="black" points="5448.45,-232.5 5458.45,-229 5448.45,-225.5 5448.45,-232.5"/>
<text text-anchor="middle" x="4747.36" y="-235.8" font-family="Times,serif" font-size="14.00">recvfrom</text>
</g>
<!-- 10.1.80.1:53185#ServerID_OuterContainerID&#45;&gt;10.1.80.247:8080#ServerID_OuterContainerID -->
<g id="edge23" class="edge"><title>10.1.80.1:53185#ServerID_OuterContainerID&#45;&gt;10.1.80.247:8080#ServerID_OuterContainerID</title>
<path fill="none" stroke="black" d="M940.166,-134.358C865.359,-145.57 752.269,-162.644 654,-178 578.763,-189.757 493.36,-203.517 431.11,-213.623"/>
<polygon fill="black" stroke="black" points="430.244,-210.218 420.934,-215.276 431.366,-217.127 430.244,-210.218"/>
<text text-anchor="middle" x="674" y="-181.8" font-family="Times,serif" font-size="14.00">POST</text>
</g>
</g>
</svg>
