<?xml version="1.0" encoding="UTF-8" standalone="no"?>
<!DOCTYPE svg PUBLIC "-//W3C//DTD SVG 1.1//EN"
 "http://www.w3.org/Graphics/SVG/1.1/DTD/svg11.dtd">
<!-- Generated by graphviz version 2.38.0 (20140413.2041)
 -->
<!-- Title: G Pages: 1 -->
<svg width="4940pt" height="684pt"
 viewBox="0.00 0.00 4940.00 684.00" xmlns="http://www.w3.org/2000/svg" xmlns:xlink="http://www.w3.org/1999/xlink">
<g id="graph0" class="graph" transform="scale(1 1) rotate(0) translate(4 680)">
<title>G</title>
<polygon fill="white" stroke="none" points="-4,4 -4,-680 4936,-680 4936,4 -4,4"/>
<g id="clust1" class="cluster"><title>clusterServerID_667d78fb58&#45;2fhs5</title>
<polygon fill="none" stroke="black" points="2169,-485 2169,-560 2509,-560 2509,-485 2169,-485"/>
<text text-anchor="middle" x="2339" y="-544.8" font-family="Times,serif" font-size="14.00">clusterServerID_667d78fb58&#45;2fhs5</text>
</g>
<g id="clust2" class="cluster"><title>clusterServerID_6dcbcc88d5&#45;4vpdn</title>
<polygon fill="none" stroke="black" points="851,-485 851,-560 1195,-560 1195,-485 851,-485"/>
<text text-anchor="middle" x="1023" y="-544.8" font-family="Times,serif" font-size="14.00">clusterServerID_6dcbcc88d5&#45;4vpdn</text>
</g>
<g id="clust3" class="cluster"><title>clusterServerID_79226724f3b6</title>
<polygon fill="none" stroke="black" points="3364,-8 3364,-344 4924,-344 4924,-8 3364,-8"/>
<text text-anchor="middle" x="4144" y="-328.8" font-family="Times,serif" font-size="14.00">clusterServerID_79226724f3b6</text>
</g>
<g id="clust4" class="cluster"><title>clusterServerID_OuterContainerID</title>
<polygon fill="none" stroke="black" points="8,-269 8,-452 3356,-452 3356,-269 8,-269"/>
<text text-anchor="middle" x="1682" y="-436.8" font-family="Times,serif" font-size="14.00">clusterServerID_OuterContainerID</text>
</g>
<g id="clust5" class="cluster"><title>clusterServerID_d4de233c55aa</title>
<polygon fill="none" stroke="black" points="3364,-377 3364,-668 4479,-668 4479,-377 3364,-377"/>
<text text-anchor="middle" x="3921.5" y="-652.8" font-family="Times,serif" font-size="14.00">clusterServerID_d4de233c55aa</text>
</g>
<!-- gateway:8080#ServerID_OuterContainerID -->
<g id="node1" class="node"><title>gateway:8080#ServerID_OuterContainerID</title>
<polygon fill="none" stroke="black" points="1682,-421 1377.52,-403 1682,-385 1986.48,-403 1682,-421"/>
<text text-anchor="middle" x="1682" y="-399.3" font-family="Times,serif" font-size="14.00">gateway:8080#ServerID_OuterContainerID</text>
</g>
<!-- 1_fwatchdog#ServerID_6dcbcc88d5&#45;4vpdn -->
<g id="node2" class="node"><title>1_fwatchdog#ServerID_6dcbcc88d5&#45;4vpdn</title>
<polygon fill="none" stroke="black" points="1187.5,-529 858.5,-529 858.5,-493 1187.5,-493 1187.5,-529"/>
<text text-anchor="middle" x="1023" y="-507.3" font-family="Times,serif" font-size="14.00">1_fwatchdog#ServerID_6dcbcc88d5&#45;4vpdn</text>
</g>
<!-- gateway:8080#ServerID_OuterContainerID&#45;&gt;1_fwatchdog#ServerID_6dcbcc88d5&#45;4vpdn -->
<g id="edge1" class="edge"><title>gateway:8080#ServerID_OuterContainerID&#45;&gt;1_fwatchdog#ServerID_6dcbcc88d5&#45;4vpdn</title>
<path fill="none" stroke="black" d="M1642.83,-418.827C1597.23,-435.421 1519.29,-461.718 1450,-475 1367.94,-490.729 1275.68,-499.393 1197.97,-504.165"/>
<polygon fill="black" stroke="black" points="1197.37,-500.694 1187.6,-504.784 1197.79,-507.682 1197.37,-500.694"/>
<text text-anchor="middle" x="1551" y="-463.8" font-family="Times,serif" font-size="14.00">RESPONSE</text>
</g>
<!-- 1_fwatchdog#ServerID_6dcbcc88d5&#45;4vpdn&#45;&gt;gateway:8080#ServerID_OuterContainerID -->
<g id="edge7" class="edge"><title>1_fwatchdog#ServerID_6dcbcc88d5&#45;4vpdn&#45;&gt;gateway:8080#ServerID_OuterContainerID</title>
<path fill="none" stroke="black" d="M1128.88,-492.969C1258.05,-472.192 1474.03,-437.452 1594.32,-418.103"/>
<polygon fill="black" stroke="black" points="1594.92,-421.552 1604.24,-416.508 1593.81,-414.641 1594.92,-421.552"/>
<text text-anchor="middle" x="1353" y="-463.8" font-family="Times,serif" font-size="14.00">POST</text>
</g>
<!-- 10.1.80.247:8080#ServerID_OuterContainerID -->
<g id="node3" class="node"><title>10.1.80.247:8080#ServerID_OuterContainerID</title>
<polygon fill="none" stroke="black" points="343,-421 15.5599,-403 343,-385 670.44,-403 343,-421"/>
<text text-anchor="middle" x="343" y="-399.3" font-family="Times,serif" font-size="14.00">10.1.80.247:8080#ServerID_OuterContainerID</text>
</g>
<!-- 1_fwatchdog#ServerID_6dcbcc88d5&#45;4vpdn&#45;&gt;10.1.80.247:8080#ServerID_OuterContainerID -->
<g id="edge2" class="edge"><title>1_fwatchdog#ServerID_6dcbcc88d5&#45;4vpdn&#45;&gt;10.1.80.247:8080#ServerID_OuterContainerID</title>
<path fill="none" stroke="black" d="M913.746,-492.969C780.644,-472.221 558.211,-437.548 433.981,-418.182"/>
<polygon fill="black" stroke="black" points="434.161,-414.668 423.741,-416.586 433.082,-421.585 434.161,-414.668"/>
<text text-anchor="middle" x="804" y="-463.8" font-family="Times,serif" font-size="14.00">POST</text>
</g>
<!-- 10.1.80.247:56110#ServerID_OuterContainerID -->
<g id="node4" class="node"><title>10.1.80.247:56110#ServerID_OuterContainerID</title>
<polygon fill="none" stroke="black" points="1024,-421 688.515,-403 1024,-385 1359.48,-403 1024,-421"/>
<text text-anchor="middle" x="1024" y="-399.3" font-family="Times,serif" font-size="14.00">10.1.80.247:56110#ServerID_OuterContainerID</text>
</g>
<!-- 1_fwatchdog#ServerID_6dcbcc88d5&#45;4vpdn&#45;&gt;10.1.80.247:56110#ServerID_OuterContainerID -->
<g id="edge9" class="edge"><title>1_fwatchdog#ServerID_6dcbcc88d5&#45;4vpdn&#45;&gt;10.1.80.247:56110#ServerID_OuterContainerID</title>
<path fill="none" stroke="black" d="M984.069,-492.889C971.19,-484.513 961.405,-473.341 967,-460 972.43,-447.053 982.475,-435.591 992.637,-426.463"/>
<polygon fill="black" stroke="black" points="994.969,-429.075 1000.36,-419.952 990.456,-423.724 994.969,-429.075"/>
<text text-anchor="middle" x="1009" y="-463.8" font-family="Times,serif" font-size="14.00">RESPONSE</text>
</g>
<!-- 10.1.80.247:8080#ServerID_OuterContainerID&#45;&gt;1_fwatchdog#ServerID_6dcbcc88d5&#45;4vpdn -->
<g id="edge3" class="edge"><title>10.1.80.247:8080#ServerID_OuterContainerID&#45;&gt;1_fwatchdog#ServerID_6dcbcc88d5&#45;4vpdn</title>
<path fill="none" stroke="black" d="M389.336,-418.61C443.231,-435.003 535.155,-461.113 616,-475 691.602,-487.986 775.975,-496.247 848.21,-501.457"/>
<polygon fill="black" stroke="black" points="848.098,-504.958 858.32,-502.172 848.592,-497.975 848.098,-504.958"/>
<text text-anchor="middle" x="658" y="-463.8" font-family="Times,serif" font-size="14.00">RESPONSE</text>
</g>
<!-- 10.1.80.1:22129#ServerID_OuterContainerID -->
<g id="node20" class="node"><title>10.1.80.1:22129#ServerID_OuterContainerID</title>
<polygon fill="none" stroke="black" points="1023,-313 704.105,-295 1023,-277 1341.9,-295 1023,-313"/>
<text text-anchor="middle" x="1023" y="-291.3" font-family="Times,serif" font-size="14.00">10.1.80.1:22129#ServerID_OuterContainerID</text>
</g>
<!-- 10.1.80.247:8080#ServerID_OuterContainerID&#45;&gt;10.1.80.1:22129#ServerID_OuterContainerID -->
<g id="edge28" class="edge"><title>10.1.80.247:8080#ServerID_OuterContainerID&#45;&gt;10.1.80.1:22129#ServerID_OuterContainerID</title>
<path fill="none" stroke="black" d="M483.096,-392.65C550.965,-387.073 633.495,-378.744 707,-367 795.676,-352.832 896.695,-328.709 960.145,-312.566"/>
<polygon fill="black" stroke="black" points="961.177,-315.914 969.998,-310.046 959.442,-309.133 961.177,-315.914"/>
<text text-anchor="middle" x="828" y="-355.8" font-family="Times,serif" font-size="14.00">RESPONSE</text>
</g>
<!-- 10.0.88.125:31112#ServerID_OuterContainerID -->
<g id="node21" class="node"><title>10.0.88.125:31112#ServerID_OuterContainerID</title>
<polygon fill="none" stroke="black" points="351,-313 15.5152,-295 351,-277 686.485,-295 351,-313"/>
<text text-anchor="middle" x="351" y="-291.3" font-family="Times,serif" font-size="14.00">10.0.88.125:31112#ServerID_OuterContainerID</text>
</g>
<!-- 10.1.80.247:8080#ServerID_OuterContainerID&#45;&gt;10.0.88.125:31112#ServerID_OuterContainerID -->
<g id="edge29" class="edge"><title>10.1.80.247:8080#ServerID_OuterContainerID&#45;&gt;10.0.88.125:31112#ServerID_OuterContainerID</title>
<path fill="none" stroke="black" d="M344.285,-384.969C345.545,-368.279 347.485,-342.579 348.956,-323.084"/>
<polygon fill="black" stroke="black" points="352.455,-323.224 349.718,-312.988 345.475,-322.697 352.455,-323.224"/>
<text text-anchor="middle" x="389" y="-355.8" font-family="Times,serif" font-size="14.00">RESPONSE</text>
</g>
<!-- 10.1.80.247:56110#ServerID_OuterContainerID&#45;&gt;1_fwatchdog#ServerID_6dcbcc88d5&#45;4vpdn -->
<g id="edge4" class="edge"><title>10.1.80.247:56110#ServerID_OuterContainerID&#45;&gt;1_fwatchdog#ServerID_6dcbcc88d5&#45;4vpdn</title>
<path fill="none" stroke="black" d="M1039.08,-420.48C1050.24,-434.767 1062.35,-456.067 1055,-475 1053.64,-478.507 1051.74,-481.876 1049.55,-485.046"/>
<polygon fill="black" stroke="black" points="1046.75,-482.944 1043.2,-492.928 1052.2,-487.335 1046.75,-482.944"/>
<text text-anchor="middle" x="1078" y="-463.8" font-family="Times,serif" font-size="14.00">POST</text>
</g>
<!-- 1_fwatchdog#ServerID_d4de233c55aa -->
<g id="node5" class="node"><title>1_fwatchdog#ServerID_d4de233c55aa</title>
<polygon fill="none" stroke="black" points="4470.5,-637 4173.5,-637 4173.5,-601 4470.5,-601 4470.5,-637"/>
<text text-anchor="middle" x="4322" y="-615.3" font-family="Times,serif" font-size="14.00">1_fwatchdog#ServerID_d4de233c55aa</text>
</g>
<!-- 10.1.80.247:56110#ServerID_OuterContainerID&#45;&gt;1_fwatchdog#ServerID_d4de233c55aa -->
<g id="edge11" class="edge"><title>10.1.80.247:56110#ServerID_OuterContainerID&#45;&gt;1_fwatchdog#ServerID_d4de233c55aa</title>
<path fill="none" stroke="black" d="M1100.48,-416.949C1170.22,-428.207 1276.22,-443.94 1369,-452 1470.02,-460.776 1496.22,-448.876 1597,-460 1837.44,-486.538 1891.37,-535.255 2132,-560 3027.6,-652.098 3261.35,-544.013 4162.98,-600.906"/>
<polygon fill="black" stroke="black" points="4163.08,-604.42 4173.28,-601.562 4163.52,-597.434 4163.08,-604.42"/>
<text text-anchor="middle" x="2148.5" y="-507.3" font-family="Times,serif" font-size="14.00">read</text>
</g>
<!-- localhost:3000#ServerID_d4de233c55aa -->
<g id="node6" class="node"><title>localhost:3000#ServerID_d4de233c55aa</title>
<polygon fill="none" stroke="black" points="4185,-529 3899.28,-511 4185,-493 4470.72,-511 4185,-529"/>
<text text-anchor="middle" x="4185" y="-507.3" font-family="Times,serif" font-size="14.00">localhost:3000#ServerID_d4de233c55aa</text>
</g>
<!-- 1_fwatchdog#ServerID_d4de233c55aa&#45;&gt;localhost:3000#ServerID_d4de233c55aa -->
<g id="edge5" class="edge"><title>1_fwatchdog#ServerID_d4de233c55aa&#45;&gt;localhost:3000#ServerID_d4de233c55aa</title>
<path fill="none" stroke="black" d="M4287.33,-600.832C4277.84,-595.578 4267.76,-589.465 4259,-583 4240.03,-568.993 4220.87,-550.471 4206.81,-535.857"/>
<polygon fill="black" stroke="black" points="4208.97,-533.048 4199.55,-528.194 4203.89,-537.861 4208.97,-533.048"/>
<text text-anchor="middle" x="4278" y="-571.8" font-family="Times,serif" font-size="14.00">write</text>
</g>
<!-- 1_fwatchdog#ServerID_d4de233c55aa&#45;&gt;localhost:3000#ServerID_d4de233c55aa -->
<g id="edge10" class="edge"><title>1_fwatchdog#ServerID_d4de233c55aa&#45;&gt;localhost:3000#ServerID_d4de233c55aa</title>
<path fill="none" stroke="black" d="M4316.46,-600.547C4312.42,-590.069 4306.06,-577.059 4297,-568 4280.68,-551.677 4258.63,-539.261 4238.41,-530.318"/>
<polygon fill="black" stroke="black" points="4239.54,-526.999 4228.97,-526.329 4236.82,-533.446 4239.54,-526.999"/>
<text text-anchor="middle" x="4336" y="-571.8" font-family="Times,serif" font-size="14.00">connect</text>
</g>
<!-- localhost:3000#ServerID_d4de233c55aa&#45;&gt;1_fwatchdog#ServerID_d4de233c55aa -->
<g id="edge12" class="edge"><title>localhost:3000#ServerID_d4de233c55aa&#45;&gt;1_fwatchdog#ServerID_d4de233c55aa</title>
<path fill="none" stroke="black" d="M4185.06,-529.202C4186.05,-545.193 4190.03,-568.645 4204,-583 4208.86,-587.989 4214.39,-592.276 4220.35,-595.957"/>
<polygon fill="black" stroke="black" points="4218.9,-599.158 4229.35,-600.929 4222.29,-593.031 4218.9,-599.158"/>
<text text-anchor="middle" x="4220.5" y="-571.8" font-family="Times,serif" font-size="14.00">read</text>
</g>
<!-- 1_fwatchdog#ServerID_667d78fb58&#45;2fhs5 -->
<g id="node7" class="node"><title>1_fwatchdog#ServerID_667d78fb58&#45;2fhs5</title>
<polygon fill="none" stroke="black" points="2500.5,-529 2177.5,-529 2177.5,-493 2500.5,-493 2500.5,-529"/>
<text text-anchor="middle" x="2339" y="-507.3" font-family="Times,serif" font-size="14.00">1_fwatchdog#ServerID_667d78fb58&#45;2fhs5</text>
</g>
<!-- 10.1.80.247:57686#ServerID_OuterContainerID -->
<g id="node8" class="node"><title>10.1.80.247:57686#ServerID_OuterContainerID</title>
<polygon fill="none" stroke="black" points="2340,-421 2004.52,-403 2340,-385 2675.48,-403 2340,-421"/>
<text text-anchor="middle" x="2340" y="-399.3" font-family="Times,serif" font-size="14.00">10.1.80.247:57686#ServerID_OuterContainerID</text>
</g>
<!-- 1_fwatchdog#ServerID_667d78fb58&#45;2fhs5&#45;&gt;10.1.80.247:57686#ServerID_OuterContainerID -->
<g id="edge6" class="edge"><title>1_fwatchdog#ServerID_667d78fb58&#45;2fhs5&#45;&gt;10.1.80.247:57686#ServerID_OuterContainerID</title>
<path fill="none" stroke="black" d="M2303.26,-492.861C2296.73,-488.032 2290.78,-482.108 2287,-475 2283.87,-469.115 2284.53,-466.194 2287,-460 2292,-447.439 2301.31,-436.073 2310.74,-426.914"/>
<polygon fill="black" stroke="black" points="2313.22,-429.386 2318.25,-420.061 2308.51,-424.214 2313.22,-429.386"/>
<text text-anchor="middle" x="2329" y="-463.8" font-family="Times,serif" font-size="14.00">RESPONSE</text>
</g>
<!-- 10.1.80.247:57686#ServerID_OuterContainerID&#45;&gt;1_fwatchdog#ServerID_667d78fb58&#45;2fhs5 -->
<g id="edge8" class="edge"><title>10.1.80.247:57686#ServerID_OuterContainerID&#45;&gt;1_fwatchdog#ServerID_667d78fb58&#45;2fhs5</title>
<path fill="none" stroke="black" d="M2355.08,-420.48C2366.24,-434.767 2378.35,-456.067 2371,-475 2369.64,-478.507 2367.74,-481.876 2365.55,-485.046"/>
<polygon fill="black" stroke="black" points="2362.75,-482.944 2359.2,-492.928 2368.2,-487.335 2362.75,-482.944"/>
<text text-anchor="middle" x="2394" y="-463.8" font-family="Times,serif" font-size="14.00">POST</text>
</g>
<!-- 1_fwatchdog#ServerID_79226724f3b6 -->
<g id="node14" class="node"><title>1_fwatchdog#ServerID_79226724f3b6</title>
<polygon fill="none" stroke="black" points="4329,-313 4033,-313 4033,-277 4329,-277 4329,-313"/>
<text text-anchor="middle" x="4181" y="-291.3" font-family="Times,serif" font-size="14.00">1_fwatchdog#ServerID_79226724f3b6</text>
</g>
<!-- 10.1.80.247:57686#ServerID_OuterContainerID&#45;&gt;1_fwatchdog#ServerID_79226724f3b6 -->
<g id="edge19" class="edge"><title>10.1.80.247:57686#ServerID_OuterContainerID&#45;&gt;1_fwatchdog#ServerID_79226724f3b6</title>
<path fill="none" stroke="black" d="M2469.38,-391.902C2534.11,-387.034 2613.67,-381.328 2685,-377 2984.81,-358.811 3060.07,-360.099 3360,-344 3590.42,-331.632 3857.12,-315.749 4022.46,-305.719"/>
<polygon fill="black" stroke="black" points="4022.94,-309.197 4032.71,-305.097 4022.51,-302.209 4022.94,-309.197"/>
<text text-anchor="middle" x="3206.5" y="-355.8" font-family="Times,serif" font-size="14.00">read</text>
</g>
<!-- 10_node#ServerID_d4de233c55aa -->
<g id="node9" class="node"><title>10_node#ServerID_d4de233c55aa</title>
<polygon fill="none" stroke="black" points="3656,-529 3390,-529 3390,-493 3656,-493 3656,-529"/>
<text text-anchor="middle" x="3523" y="-507.3" font-family="Times,serif" font-size="14.00">10_node#ServerID_d4de233c55aa</text>
</g>
<!-- 10_node#ServerID_d4de233c55aa&#45;&gt;gateway:8080#ServerID_OuterContainerID -->
<g id="edge18" class="edge"><title>10_node#ServerID_d4de233c55aa&#45;&gt;gateway:8080#ServerID_OuterContainerID</title>
<path fill="none" stroke="black" d="M3389.95,-502.85C3182.41,-491.952 2769.01,-471.266 2418,-460 2230.51,-453.982 2182.91,-467.986 1996,-452 1914.9,-445.063 1822.93,-430.168 1759.59,-418.799"/>
<polygon fill="black" stroke="black" points="1760.14,-415.341 1749.68,-417.006 1758.9,-422.229 1760.14,-415.341"/>
<text text-anchor="middle" x="2812" y="-463.8" font-family="Times,serif" font-size="14.00">connect</text>
</g>
<!-- pipe:[273418164]#ServerID_d4de233c55aa -->
<g id="node10" class="node"><title>pipe:[273418164]#ServerID_d4de233c55aa</title>
<ellipse fill="none" stroke="black" cx="3588" cy="-403" rx="215.562" ry="18"/>
<text text-anchor="middle" x="3588" y="-399.3" font-family="Times,serif" font-size="14.00">pipe:[273418164]#ServerID_d4de233c55aa</text>
</g>
<!-- 10_node#ServerID_d4de233c55aa&#45;&gt;pipe:[273418164]#ServerID_d4de233c55aa -->
<g id="edge13" class="edge"><title>10_node#ServerID_d4de233c55aa&#45;&gt;pipe:[273418164]#ServerID_d4de233c55aa</title>
<path fill="none" stroke="black" d="M3533.44,-492.969C3543.91,-475.893 3560.17,-449.384 3572.22,-429.74"/>
<polygon fill="black" stroke="black" points="3575.34,-431.343 3577.58,-420.988 3569.37,-427.684 3575.34,-431.343"/>
<text text-anchor="middle" x="3573" y="-463.8" font-family="Times,serif" font-size="14.00">write</text>
</g>
<!-- 10.152.183.10:53#ServerID_OuterContainerID -->
<g id="node13" class="node"><title>10.152.183.10:53#ServerID_OuterContainerID</title>
<polygon fill="none" stroke="black" points="3021,-421 2693.56,-403 3021,-385 3348.44,-403 3021,-421"/>
<text text-anchor="middle" x="3021" y="-399.3" font-family="Times,serif" font-size="14.00">10.152.183.10:53#ServerID_OuterContainerID</text>
</g>
<!-- 10_node#ServerID_d4de233c55aa&#45;&gt;10.152.183.10:53#ServerID_OuterContainerID -->
<g id="edge16" class="edge"><title>10_node#ServerID_d4de233c55aa&#45;&gt;10.152.183.10:53#ServerID_OuterContainerID</title>
<path fill="none" stroke="black" d="M3442.35,-492.969C3346.48,-472.726 3187.84,-439.229 3094.99,-419.624"/>
<polygon fill="black" stroke="black" points="3095.62,-416.18 3085.11,-417.538 3094.18,-423.029 3095.62,-416.18"/>
<text text-anchor="middle" x="3371.5" y="-463.8" font-family="Times,serif" font-size="14.00">sendto</text>
</g>
<!-- /etc/hosts#ServerID_d4de233c55aa -->
<g id="node11" class="node"><title>/etc/hosts#ServerID_d4de233c55aa</title>
<ellipse fill="none" stroke="black" cx="3977" cy="-619" rx="178.969" ry="18"/>
<text text-anchor="middle" x="3977" y="-615.3" font-family="Times,serif" font-size="14.00">/etc/hosts#ServerID_d4de233c55aa</text>
</g>
<!-- /etc/hosts#ServerID_d4de233c55aa&#45;&gt;10_node#ServerID_d4de233c55aa -->
<g id="edge14" class="edge"><title>/etc/hosts#ServerID_d4de233c55aa&#45;&gt;10_node#ServerID_d4de233c55aa</title>
<path fill="none" stroke="black" d="M3909.52,-602.245C3828.65,-583.364 3693.17,-551.732 3605.98,-531.374"/>
<polygon fill="black" stroke="black" points="3606.65,-527.938 3596.12,-529.072 3605.06,-534.754 3606.65,-527.938"/>
<text text-anchor="middle" x="3833.5" y="-571.8" font-family="Times,serif" font-size="14.00">read</text>
</g>
<!-- /etc/resolv.conf#ServerID_d4de233c55aa -->
<g id="node12" class="node"><title>/etc/resolv.conf#ServerID_d4de233c55aa</title>
<ellipse fill="none" stroke="black" cx="3576" cy="-619" rx="204.164" ry="18"/>
<text text-anchor="middle" x="3576" y="-615.3" font-family="Times,serif" font-size="14.00">/etc/resolv.conf#ServerID_d4de233c55aa</text>
</g>
<!-- /etc/resolv.conf#ServerID_d4de233c55aa&#45;&gt;10_node#ServerID_d4de233c55aa -->
<g id="edge15" class="edge"><title>/etc/resolv.conf#ServerID_d4de233c55aa&#45;&gt;10_node#ServerID_d4de233c55aa</title>
<path fill="none" stroke="black" d="M3567.48,-600.969C3559.04,-584.071 3545.97,-557.935 3536.18,-538.356"/>
<polygon fill="black" stroke="black" points="3539.27,-536.72 3531.67,-529.341 3533.01,-539.85 3539.27,-536.72"/>
<text text-anchor="middle" x="3574.5" y="-571.8" font-family="Times,serif" font-size="14.00">read</text>
</g>
<!-- 10.152.183.10:53#ServerID_OuterContainerID&#45;&gt;10_node#ServerID_d4de233c55aa -->
<g id="edge17" class="edge"><title>10.152.183.10:53#ServerID_OuterContainerID&#45;&gt;10_node#ServerID_d4de233c55aa</title>
<path fill="none" stroke="black" d="M3055.49,-419.201C3094.25,-435.624 3159.42,-461.278 3218,-475 3270.06,-487.193 3328.15,-495.205 3379.55,-500.44"/>
<polygon fill="black" stroke="black" points="3379.44,-503.946 3389.74,-501.45 3380.13,-496.98 3379.44,-503.946"/>
<text text-anchor="middle" x="3251" y="-463.8" font-family="Times,serif" font-size="14.00">recvfrom</text>
</g>
<!-- localhost:3000#ServerID_79226724f3b6 -->
<g id="node15" class="node"><title>localhost:3000#ServerID_79226724f3b6</title>
<polygon fill="none" stroke="black" points="4181,-226 3896.12,-208 4181,-190 4465.88,-208 4181,-226"/>
<text text-anchor="middle" x="4181" y="-204.3" font-family="Times,serif" font-size="14.00">localhost:3000#ServerID_79226724f3b6</text>
</g>
<!-- 1_fwatchdog#ServerID_79226724f3b6&#45;&gt;localhost:3000#ServerID_79226724f3b6 -->
<g id="edge21" class="edge"><title>1_fwatchdog#ServerID_79226724f3b6&#45;&gt;localhost:3000#ServerID_79226724f3b6</title>
<path fill="none" stroke="black" d="M4203.15,-276.998C4212.32,-267.779 4219.82,-255.867 4215,-244 4213.35,-239.938 4210.98,-236.088 4208.25,-232.53"/>
<polygon fill="black" stroke="black" points="4210.63,-229.947 4201.38,-224.797 4205.4,-234.597 4210.63,-229.947"/>
<text text-anchor="middle" x="4245" y="-247.8" font-family="Times,serif" font-size="14.00">connect</text>
</g>
<!-- 1_fwatchdog#ServerID_79226724f3b6&#45;&gt;localhost:3000#ServerID_79226724f3b6 -->
<g id="edge22" class="edge"><title>1_fwatchdog#ServerID_79226724f3b6&#45;&gt;localhost:3000#ServerID_79226724f3b6</title>
<path fill="none" stroke="black" d="M4153.31,-276.868C4147.53,-271.873 4142.22,-265.876 4139,-259 4134.36,-249.096 4139.18,-239.556 4146.99,-231.513"/>
<polygon fill="black" stroke="black" points="4149.66,-233.829 4154.82,-224.579 4145.01,-228.59 4149.66,-233.829"/>
<text text-anchor="middle" x="4158" y="-247.8" font-family="Times,serif" font-size="14.00">write</text>
</g>
<!-- pipe:[273416608]#ServerID_79226724f3b6 -->
<g id="node19" class="node"><title>pipe:[273416608]#ServerID_79226724f3b6</title>
<ellipse fill="none" stroke="black" cx="4700" cy="-208" rx="215.562" ry="18"/>
<text text-anchor="middle" x="4700" y="-204.3" font-family="Times,serif" font-size="14.00">pipe:[273416608]#ServerID_79226724f3b6</text>
</g>
<!-- 1_fwatchdog#ServerID_79226724f3b6&#45;&gt;pipe:[273416608]#ServerID_79226724f3b6 -->
<g id="edge26" class="edge"><title>1_fwatchdog#ServerID_79226724f3b6&#45;&gt;pipe:[273416608]#ServerID_79226724f3b6</title>
<path fill="none" stroke="black" d="M4285.09,-276.952C4375.65,-262.121 4506.18,-240.743 4596.55,-225.943"/>
<polygon fill="black" stroke="black" points="4597.24,-229.377 4606.54,-224.307 4596.1,-222.469 4597.24,-229.377"/>
<text text-anchor="middle" x="4490" y="-247.8" font-family="Times,serif" font-size="14.00">write</text>
</g>
<!-- localhost:3000#ServerID_79226724f3b6&#45;&gt;1_fwatchdog#ServerID_79226724f3b6 -->
<g id="edge20" class="edge"><title>localhost:3000#ServerID_79226724f3b6&#45;&gt;1_fwatchdog#ServerID_79226724f3b6</title>
<path fill="none" stroke="black" d="M4181,-226.175C4181,-237.806 4181,-253.419 4181,-266.734"/>
<polygon fill="black" stroke="black" points="4177.5,-266.799 4181,-276.799 4184.5,-266.799 4177.5,-266.799"/>
<text text-anchor="middle" x="4197.5" y="-247.8" font-family="Times,serif" font-size="14.00">read</text>
</g>
<!-- 10_node#ServerID_79226724f3b6 -->
<g id="node16" class="node"><title>10_node#ServerID_79226724f3b6</title>
<polygon fill="none" stroke="black" points="4035.5,-139 3770.5,-139 3770.5,-103 4035.5,-103 4035.5,-139"/>
<text text-anchor="middle" x="3903" y="-117.3" font-family="Times,serif" font-size="14.00">10_node#ServerID_79226724f3b6</text>
</g>
<!-- localhost:3000#ServerID_79226724f3b6&#45;&gt;10_node#ServerID_79226724f3b6 -->
<g id="edge23" class="edge"><title>localhost:3000#ServerID_79226724f3b6&#45;&gt;10_node#ServerID_79226724f3b6</title>
<path fill="none" stroke="black" d="M4134.78,-192.869C4089.38,-178.987 4019.68,-157.675 3968.56,-142.046"/>
<polygon fill="black" stroke="black" points="3969.51,-138.676 3958.92,-139.099 3967.46,-145.37 3969.51,-138.676"/>
<text text-anchor="middle" x="4074.5" y="-160.8" font-family="Times,serif" font-size="14.00">read</text>
</g>
<!-- pipe:[273417785]#ServerID_79226724f3b6 -->
<g id="node17" class="node"><title>pipe:[273417785]#ServerID_79226724f3b6</title>
<ellipse fill="none" stroke="black" cx="3903" cy="-34" rx="215.562" ry="18"/>
<text text-anchor="middle" x="3903" y="-30.3" font-family="Times,serif" font-size="14.00">pipe:[273417785]#ServerID_79226724f3b6</text>
</g>
<!-- 10_node#ServerID_79226724f3b6&#45;&gt;pipe:[273417785]#ServerID_79226724f3b6 -->
<g id="edge24" class="edge"><title>10_node#ServerID_79226724f3b6&#45;&gt;pipe:[273417785]#ServerID_79226724f3b6</title>
<path fill="none" stroke="black" d="M3903,-102.799C3903,-91.1626 3903,-75.5479 3903,-62.2368"/>
<polygon fill="black" stroke="black" points="3906.5,-62.1754 3903,-52.1754 3899.5,-62.1755 3906.5,-62.1754"/>
<text text-anchor="middle" x="3922" y="-73.8" font-family="Times,serif" font-size="14.00">write</text>
</g>
<!-- /home/app/credentials.txt#ServerID_79226724f3b6 -->
<g id="node18" class="node"><title>/home/app/credentials.txt#ServerID_79226724f3b6</title>
<ellipse fill="none" stroke="black" cx="3625" cy="-208" rx="252.655" ry="18"/>
<text text-anchor="middle" x="3625" y="-204.3" font-family="Times,serif" font-size="14.00">/home/app/credentials.txt#ServerID_79226724f3b6</text>
</g>
<!-- /home/app/credentials.txt#ServerID_79226724f3b6&#45;&gt;10_node#ServerID_79226724f3b6 -->
<g id="edge25" class="edge"><title>/home/app/credentials.txt#ServerID_79226724f3b6&#45;&gt;10_node#ServerID_79226724f3b6</title>
<path fill="none" stroke="black" d="M3679.26,-190.409C3724.5,-176.578 3789.09,-156.827 3837.26,-142.1"/>
<polygon fill="black" stroke="black" points="3838.43,-145.403 3846.97,-139.131 3836.38,-138.708 3838.43,-145.403"/>
<text text-anchor="middle" x="3796.5" y="-160.8" font-family="Times,serif" font-size="14.00">read</text>
</g>
<!-- 10.1.80.1:22129#ServerID_OuterContainerID&#45;&gt;10.1.80.247:8080#ServerID_OuterContainerID -->
<g id="edge27" class="edge"><title>10.1.80.1:22129#ServerID_OuterContainerID&#45;&gt;10.1.80.247:8080#ServerID_OuterContainerID</title>
<path fill="none" stroke="black" d="M942.693,-308.518C815.29,-328.378 567.621,-366.985 433.891,-387.832"/>
<polygon fill="black" stroke="black" points="433.017,-384.426 423.675,-389.424 434.095,-391.342 433.017,-384.426"/>
<text text-anchor="middle" x="683" y="-355.8" font-family="Times,serif" font-size="14.00">POST</text>
</g>
</g>
</svg>
