<?xml version="1.0" encoding="UTF-8" standalone="no"?>
<!DOCTYPE svg PUBLIC "-//W3C//DTD SVG 1.1//EN"
 "http://www.w3.org/Graphics/SVG/1.1/DTD/svg11.dtd">
<!-- Generated by graphviz version 2.38.0 (20140413.2041)
 -->
<!-- Title: G Pages: 1 -->
<svg width="7180pt" height="597pt"
 viewBox="0.00 0.00 7180.00 597.00" xmlns="http://www.w3.org/2000/svg" xmlns:xlink="http://www.w3.org/1999/xlink">
<g id="graph0" class="graph" transform="scale(1 1) rotate(0) translate(4 593)">
<title>G</title>
<polygon fill="white" stroke="none" points="-4,4 -4,-593 7176,-593 7176,4 -4,4"/>
<g id="clust1" class="cluster"><title>clusterServerID_6dcbcc88d5&#45;j9zwp</title>
<polygon fill="none" stroke="black" points="2583,-398 2583,-473 2925,-473 2925,-398 2583,-398"/>
<text text-anchor="middle" x="2754" y="-457.8" font-family="Times,serif" font-size="14.00">clusterServerID_6dcbcc88d5&#45;j9zwp</text>
</g>
<g id="clust2" class="cluster"><title>clusterServerID_736074b81582</title>
<polygon fill="none" stroke="black" points="8,-290 8,-581 1134,-581 1134,-290 8,-290"/>
<text text-anchor="middle" x="571" y="-565.8" font-family="Times,serif" font-size="14.00">clusterServerID_736074b81582</text>
</g>
<g id="clust3" class="cluster"><title>clusterServerID_76c96688d7&#45;jnp5f</title>
<polygon fill="none" stroke="black" points="4604,-398 4604,-473 4944,-473 4944,-398 4604,-398"/>
<text text-anchor="middle" x="4774" y="-457.8" font-family="Times,serif" font-size="14.00">clusterServerID_76c96688d7&#45;jnp5f</text>
</g>
<g id="clust4" class="cluster"><title>clusterServerID_834d81eb81b3</title>
<polygon fill="none" stroke="black" points="6130,-95 6130,-257 7164,-257 7164,-95 6130,-95"/>
<text text-anchor="middle" x="6647" y="-241.8" font-family="Times,serif" font-size="14.00">clusterServerID_834d81eb81b3</text>
</g>
<g id="clust5" class="cluster"><title>clusterServerID_8665dd9487&#45;fclr8</title>
<polygon fill="none" stroke="black" points="3935,-398 3935,-473 4271,-473 4271,-398 3935,-398"/>
<text text-anchor="middle" x="4103" y="-457.8" font-family="Times,serif" font-size="14.00">clusterServerID_8665dd9487&#45;fclr8</text>
</g>
<g id="clust6" class="cluster"><title>clusterServerID_86aa7f3fa3b0</title>
<polygon fill="none" stroke="black" points="5118,-8 5118,-257 6122,-257 6122,-8 5118,-8"/>
<text text-anchor="middle" x="5620" y="-241.8" font-family="Times,serif" font-size="14.00">clusterServerID_86aa7f3fa3b0</text>
</g>
<g id="clust7" class="cluster"><title>clusterServerID_OuterContainerID</title>
<polygon fill="none" stroke="black" points="1142,-182 1142,-365 5110,-365 5110,-182 1142,-182"/>
<text text-anchor="middle" x="3126" y="-349.8" font-family="Times,serif" font-size="14.00">clusterServerID_OuterContainerID</text>
</g>
<!-- 10.1.80.93:38028#ServerID_OuterContainerID -->
<g id="node1" class="node"><title>10.1.80.93:38028#ServerID_OuterContainerID</title>
<polygon fill="none" stroke="black" points="3431,-334 3103.56,-316 3431,-298 3758.44,-316 3431,-334"/>
<text text-anchor="middle" x="3431" y="-312.3" font-family="Times,serif" font-size="14.00">10.1.80.93:38028#ServerID_OuterContainerID</text>
</g>
<!-- 1_fwatchdog#ServerID_6dcbcc88d5&#45;j9zwp -->
<g id="node2" class="node"><title>1_fwatchdog#ServerID_6dcbcc88d5&#45;j9zwp</title>
<polygon fill="none" stroke="black" points="2917,-442 2591,-442 2591,-406 2917,-406 2917,-442"/>
<text text-anchor="middle" x="2754" y="-420.3" font-family="Times,serif" font-size="14.00">1_fwatchdog#ServerID_6dcbcc88d5&#45;j9zwp</text>
</g>
<!-- 10.1.80.93:38028#ServerID_OuterContainerID&#45;&gt;1_fwatchdog#ServerID_6dcbcc88d5&#45;j9zwp -->
<g id="edge1" class="edge"><title>10.1.80.93:38028#ServerID_OuterContainerID&#45;&gt;1_fwatchdog#ServerID_6dcbcc88d5&#45;j9zwp</title>
<path fill="none" stroke="black" d="M3386.94,-331.692C3335.67,-348.161 3248.18,-374.342 3171,-388 3091.58,-402.055 3002.62,-410.502 2927.33,-415.561"/>
<polygon fill="black" stroke="black" points="2927.03,-412.074 2917.28,-416.223 2927.49,-419.059 2927.03,-412.074"/>
<text text-anchor="middle" x="3257" y="-376.8" font-family="Times,serif" font-size="14.00">POST</text>
</g>
<!-- 1_fwatchdog#ServerID_736074b81582 -->
<g id="node9" class="node"><title>1_fwatchdog#ServerID_736074b81582</title>
<polygon fill="none" stroke="black" points="1126,-550 826,-550 826,-514 1126,-514 1126,-550"/>
<text text-anchor="middle" x="976" y="-528.3" font-family="Times,serif" font-size="14.00">1_fwatchdog#ServerID_736074b81582</text>
</g>
<!-- 10.1.80.93:38028#ServerID_OuterContainerID&#45;&gt;1_fwatchdog#ServerID_736074b81582 -->
<g id="edge15" class="edge"><title>10.1.80.93:38028#ServerID_OuterContainerID&#45;&gt;1_fwatchdog#ServerID_736074b81582</title>
<path fill="none" stroke="black" d="M3402.71,-332.547C3373.09,-348.303 3324.87,-372.504 3281,-388 3129.25,-441.598 3088.51,-451.608 2929,-473 2584.32,-519.226 1538.87,-528.611 1136.35,-530.515"/>
<polygon fill="black" stroke="black" points="1136.07,-527.016 1126.09,-530.563 1136.1,-534.016 1136.07,-527.016"/>
<text text-anchor="middle" x="3269.5" y="-420.3" font-family="Times,serif" font-size="14.00">read</text>
</g>
<!-- 1_fwatchdog#ServerID_6dcbcc88d5&#45;j9zwp&#45;&gt;10.1.80.93:38028#ServerID_OuterContainerID -->
<g id="edge10" class="edge"><title>1_fwatchdog#ServerID_6dcbcc88d5&#45;j9zwp&#45;&gt;10.1.80.93:38028#ServerID_OuterContainerID</title>
<path fill="none" stroke="black" d="M2862.77,-405.969C2995.29,-385.221 3216.74,-350.548 3340.42,-331.182"/>
<polygon fill="black" stroke="black" points="3341.28,-334.591 3350.62,-329.586 3340.19,-327.675 3341.28,-334.591"/>
<text text-anchor="middle" x="3115" y="-376.8" font-family="Times,serif" font-size="14.00">RESPONSE</text>
</g>
<!-- 10.1.80.93:8080#ServerID_OuterContainerID -->
<g id="node5" class="node"><title>10.1.80.93:8080#ServerID_OuterContainerID</title>
<polygon fill="none" stroke="black" points="2141,-334 1822.1,-316 2141,-298 2459.9,-316 2141,-334"/>
<text text-anchor="middle" x="2141" y="-312.3" font-family="Times,serif" font-size="14.00">10.1.80.93:8080#ServerID_OuterContainerID</text>
</g>
<!-- 1_fwatchdog#ServerID_6dcbcc88d5&#45;j9zwp&#45;&gt;10.1.80.93:8080#ServerID_OuterContainerID -->
<g id="edge3" class="edge"><title>1_fwatchdog#ServerID_6dcbcc88d5&#45;j9zwp&#45;&gt;10.1.80.93:8080#ServerID_OuterContainerID</title>
<path fill="none" stroke="black" d="M2655.51,-405.969C2536.26,-385.348 2337.46,-350.971 2225.08,-331.539"/>
<polygon fill="black" stroke="black" points="2225.6,-328.077 2215.15,-329.822 2224.4,-334.974 2225.6,-328.077"/>
<text text-anchor="middle" x="2559" y="-376.8" font-family="Times,serif" font-size="14.00">POST</text>
</g>
<!-- gateway:8080#ServerID_OuterContainerID -->
<g id="node6" class="node"><title>gateway:8080#ServerID_OuterContainerID</title>
<polygon fill="none" stroke="black" points="2782,-334 2477.52,-316 2782,-298 3086.48,-316 2782,-334"/>
<text text-anchor="middle" x="2782" y="-312.3" font-family="Times,serif" font-size="14.00">gateway:8080#ServerID_OuterContainerID</text>
</g>
<!-- 1_fwatchdog#ServerID_6dcbcc88d5&#45;j9zwp&#45;&gt;gateway:8080#ServerID_OuterContainerID -->
<g id="edge7" class="edge"><title>1_fwatchdog#ServerID_6dcbcc88d5&#45;j9zwp&#45;&gt;gateway:8080#ServerID_OuterContainerID</title>
<path fill="none" stroke="black" d="M2774.2,-405.928C2778.99,-400.716 2783.44,-394.601 2786,-388 2791.36,-374.196 2790.82,-357.743 2788.73,-344.152"/>
<polygon fill="black" stroke="black" points="2792.1,-343.148 2786.81,-333.971 2785.22,-344.447 2792.1,-343.148"/>
<text text-anchor="middle" x="2810" y="-376.8" font-family="Times,serif" font-size="14.00">POST</text>
</g>
<!-- 1_fwatchdog#ServerID_8665dd9487&#45;fclr8 -->
<g id="node3" class="node"><title>1_fwatchdog#ServerID_8665dd9487&#45;fclr8</title>
<polygon fill="none" stroke="black" points="4263,-442 3943,-442 3943,-406 4263,-406 4263,-442"/>
<text text-anchor="middle" x="4103" y="-420.3" font-family="Times,serif" font-size="14.00">1_fwatchdog#ServerID_8665dd9487&#45;fclr8</text>
</g>
<!-- 10.1.80.93:33798#ServerID_OuterContainerID -->
<g id="node4" class="node"><title>10.1.80.93:33798#ServerID_OuterContainerID</title>
<polygon fill="none" stroke="black" points="4103,-334 3775.56,-316 4103,-298 4430.44,-316 4103,-334"/>
<text text-anchor="middle" x="4103" y="-312.3" font-family="Times,serif" font-size="14.00">10.1.80.93:33798#ServerID_OuterContainerID</text>
</g>
<!-- 1_fwatchdog#ServerID_8665dd9487&#45;fclr8&#45;&gt;10.1.80.93:33798#ServerID_OuterContainerID -->
<g id="edge2" class="edge"><title>1_fwatchdog#ServerID_8665dd9487&#45;fclr8&#45;&gt;10.1.80.93:33798#ServerID_OuterContainerID</title>
<path fill="none" stroke="black" d="M4067.26,-405.861C4060.73,-401.032 4054.78,-395.108 4051,-388 4047.87,-382.115 4048.56,-379.205 4051,-373 4055.94,-360.43 4065.17,-349.002 4074.5,-339.796"/>
<polygon fill="black" stroke="black" points="4076.97,-342.276 4081.92,-332.91 4072.21,-337.144 4076.97,-342.276"/>
<text text-anchor="middle" x="4093" y="-376.8" font-family="Times,serif" font-size="14.00">RESPONSE</text>
</g>
<!-- 10.1.80.93:33798#ServerID_OuterContainerID&#45;&gt;1_fwatchdog#ServerID_8665dd9487&#45;fclr8 -->
<g id="edge5" class="edge"><title>10.1.80.93:33798#ServerID_OuterContainerID&#45;&gt;1_fwatchdog#ServerID_8665dd9487&#45;fclr8</title>
<path fill="none" stroke="black" d="M4115.58,-333.633C4122.82,-344.272 4131.21,-358.714 4135,-373 4136.71,-379.443 4137.41,-381.785 4135,-388 4133.64,-391.507 4131.74,-394.876 4129.55,-398.046"/>
<polygon fill="black" stroke="black" points="4126.75,-395.944 4123.2,-405.928 4132.2,-400.335 4126.75,-395.944"/>
<text text-anchor="middle" x="4157" y="-376.8" font-family="Times,serif" font-size="14.00">POST</text>
</g>
<!-- 1_fwatchdog#ServerID_86aa7f3fa3b0 -->
<g id="node16" class="node"><title>1_fwatchdog#ServerID_86aa7f3fa3b0</title>
<polygon fill="none" stroke="black" points="5550,-226 5260,-226 5260,-190 5550,-190 5550,-226"/>
<text text-anchor="middle" x="5405" y="-204.3" font-family="Times,serif" font-size="14.00">1_fwatchdog#ServerID_86aa7f3fa3b0</text>
</g>
<!-- 10.1.80.93:33798#ServerID_OuterContainerID&#45;&gt;1_fwatchdog#ServerID_86aa7f3fa3b0 -->
<g id="edge20" class="edge"><title>10.1.80.93:33798#ServerID_OuterContainerID&#45;&gt;1_fwatchdog#ServerID_86aa7f3fa3b0</title>
<path fill="none" stroke="black" d="M4228.6,-304.894C4291.71,-300.009 4369.38,-294.291 4439,-290 4738.79,-271.522 4815.33,-288.827 5114,-257 5179.08,-250.065 5251.72,-238.088 5308.15,-227.833"/>
<polygon fill="black" stroke="black" points="5308.92,-231.249 5318.13,-226.006 5307.66,-224.364 5308.92,-231.249"/>
<text text-anchor="middle" x="5047.5" y="-268.8" font-family="Times,serif" font-size="14.00">read</text>
</g>
<!-- 10.1.80.93:8080#ServerID_OuterContainerID&#45;&gt;1_fwatchdog#ServerID_6dcbcc88d5&#45;j9zwp -->
<g id="edge6" class="edge"><title>10.1.80.93:8080#ServerID_OuterContainerID&#45;&gt;1_fwatchdog#ServerID_6dcbcc88d5&#45;j9zwp</title>
<path fill="none" stroke="black" d="M2181.49,-331.816C2228.18,-348.271 2307.59,-374.316 2378,-388 2443.52,-400.732 2516.39,-408.873 2580.4,-414.061"/>
<polygon fill="black" stroke="black" points="2580.35,-417.567 2590.6,-414.868 2580.9,-410.589 2580.35,-417.567"/>
<text text-anchor="middle" x="2420" y="-376.8" font-family="Times,serif" font-size="14.00">RESPONSE</text>
</g>
<!-- 10.1.80.1:4831#ServerID_OuterContainerID -->
<g id="node23" class="node"><title>10.1.80.1:4831#ServerID_OuterContainerID</title>
<polygon fill="none" stroke="black" points="2248,-226 1937.15,-208 2248,-190 2558.85,-208 2248,-226"/>
<text text-anchor="middle" x="2248" y="-204.3" font-family="Times,serif" font-size="14.00">10.1.80.1:4831#ServerID_OuterContainerID</text>
</g>
<!-- 10.1.80.93:8080#ServerID_OuterContainerID&#45;&gt;10.1.80.1:4831#ServerID_OuterContainerID -->
<g id="edge34" class="edge"><title>10.1.80.93:8080#ServerID_OuterContainerID&#45;&gt;10.1.80.1:4831#ServerID_OuterContainerID</title>
<path fill="none" stroke="black" d="M2135.35,-298.06C2132.99,-287.774 2132,-274.786 2138,-265 2148.68,-247.573 2166.68,-235.359 2185.05,-226.891"/>
<polygon fill="black" stroke="black" points="2186.54,-230.061 2194.36,-222.913 2183.79,-223.623 2186.54,-230.061"/>
<text text-anchor="middle" x="2180" y="-268.8" font-family="Times,serif" font-size="14.00">RESPONSE</text>
</g>
<!-- 10.0.88.125:31112#ServerID_OuterContainerID -->
<g id="node24" class="node"><title>10.0.88.125:31112#ServerID_OuterContainerID</title>
<polygon fill="none" stroke="black" points="1584,-226 1248.52,-208 1584,-190 1919.48,-208 1584,-226"/>
<text text-anchor="middle" x="1584" y="-204.3" font-family="Times,serif" font-size="14.00">10.0.88.125:31112#ServerID_OuterContainerID</text>
</g>
<!-- 10.1.80.93:8080#ServerID_OuterContainerID&#45;&gt;10.0.88.125:31112#ServerID_OuterContainerID -->
<g id="edge33" class="edge"><title>10.1.80.93:8080#ServerID_OuterContainerID&#45;&gt;10.0.88.125:31112#ServerID_OuterContainerID</title>
<path fill="none" stroke="black" d="M2071.86,-301.843C1968.32,-282.137 1773.45,-245.053 1663.94,-224.212"/>
<polygon fill="black" stroke="black" points="1664.41,-220.74 1653.93,-222.309 1663.1,-227.617 1664.41,-220.74"/>
<text text-anchor="middle" x="1987" y="-268.8" font-family="Times,serif" font-size="14.00">RESPONSE</text>
</g>
<!-- gateway:8080#ServerID_OuterContainerID&#45;&gt;1_fwatchdog#ServerID_6dcbcc88d5&#45;j9zwp -->
<g id="edge4" class="edge"><title>gateway:8080#ServerID_OuterContainerID&#45;&gt;1_fwatchdog#ServerID_6dcbcc88d5&#45;j9zwp</title>
<path fill="none" stroke="black" d="M2746.63,-332.115C2729.86,-341.299 2711.47,-354.805 2702,-373 2696.86,-382.881 2701.56,-391.931 2709.9,-399.536"/>
<polygon fill="black" stroke="black" points="2707.96,-402.459 2718,-405.831 2712.25,-396.931 2707.96,-402.459"/>
<text text-anchor="middle" x="2744" y="-376.8" font-family="Times,serif" font-size="14.00">RESPONSE</text>
</g>
<!-- 10.1.80.93:40874#ServerID_OuterContainerID -->
<g id="node7" class="node"><title>10.1.80.93:40874#ServerID_OuterContainerID</title>
<polygon fill="none" stroke="black" points="4775,-334 4447.56,-316 4775,-298 5102.44,-316 4775,-334"/>
<text text-anchor="middle" x="4775" y="-312.3" font-family="Times,serif" font-size="14.00">10.1.80.93:40874#ServerID_OuterContainerID</text>
</g>
<!-- 1_fwatchdog#ServerID_76c96688d7&#45;jnp5f -->
<g id="node8" class="node"><title>1_fwatchdog#ServerID_76c96688d7&#45;jnp5f</title>
<polygon fill="none" stroke="black" points="4935.5,-442 4612.5,-442 4612.5,-406 4935.5,-406 4935.5,-442"/>
<text text-anchor="middle" x="4774" y="-420.3" font-family="Times,serif" font-size="14.00">1_fwatchdog#ServerID_76c96688d7&#45;jnp5f</text>
</g>
<!-- 10.1.80.93:40874#ServerID_OuterContainerID&#45;&gt;1_fwatchdog#ServerID_76c96688d7&#45;jnp5f -->
<g id="edge8" class="edge"><title>10.1.80.93:40874#ServerID_OuterContainerID&#45;&gt;1_fwatchdog#ServerID_76c96688d7&#45;jnp5f</title>
<path fill="none" stroke="black" d="M4762.81,-333.692C4755.8,-344.353 4747.67,-358.798 4744,-373 4742.33,-379.455 4741.69,-381.747 4744,-388 4745.23,-391.328 4746.94,-394.554 4748.91,-397.612"/>
<polygon fill="black" stroke="black" points="4746.22,-399.86 4755.04,-405.736 4751.81,-395.644 4746.22,-399.86"/>
<text text-anchor="middle" x="4764" y="-376.8" font-family="Times,serif" font-size="14.00">POST</text>
</g>
<!-- 1_fwatchdog#ServerID_834d81eb81b3 -->
<g id="node20" class="node"><title>1_fwatchdog#ServerID_834d81eb81b3</title>
<polygon fill="none" stroke="black" points="6575.5,-226 6276.5,-226 6276.5,-190 6575.5,-190 6575.5,-226"/>
<text text-anchor="middle" x="6426" y="-204.3" font-family="Times,serif" font-size="14.00">1_fwatchdog#ServerID_834d81eb81b3</text>
</g>
<!-- 10.1.80.93:40874#ServerID_OuterContainerID&#45;&gt;1_fwatchdog#ServerID_834d81eb81b3 -->
<g id="edge30" class="edge"><title>10.1.80.93:40874#ServerID_OuterContainerID&#45;&gt;1_fwatchdog#ServerID_834d81eb81b3</title>
<path fill="none" stroke="black" d="M5041.61,-312.645C5314.58,-308.103 5750.82,-294.939 6126,-257 6193.34,-250.19 6268.55,-238.146 6326.82,-227.827"/>
<polygon fill="black" stroke="black" points="6327.53,-231.256 6336.76,-226.055 6326.3,-224.365 6327.53,-231.256"/>
<text text-anchor="middle" x="6033.5" y="-268.8" font-family="Times,serif" font-size="14.00">read</text>
</g>
<!-- 1_fwatchdog#ServerID_76c96688d7&#45;jnp5f&#45;&gt;10.1.80.93:40874#ServerID_OuterContainerID -->
<g id="edge9" class="edge"><title>1_fwatchdog#ServerID_76c96688d7&#45;jnp5f&#45;&gt;10.1.80.93:40874#ServerID_OuterContainerID</title>
<path fill="none" stroke="black" d="M4779.96,-405.759C4781.61,-400.165 4783.18,-393.883 4784,-388 4786.04,-373.436 4784.27,-357.162 4781.78,-343.873"/>
<polygon fill="black" stroke="black" points="4785.17,-343.006 4779.68,-333.944 4778.32,-344.452 4785.17,-343.006"/>
<text text-anchor="middle" x="4827" y="-376.8" font-family="Times,serif" font-size="14.00">RESPONSE</text>
</g>
<!-- localhost:3000#ServerID_736074b81582 -->
<g id="node10" class="node"><title>localhost:3000#ServerID_736074b81582</title>
<polygon fill="none" stroke="black" points="837,-442 548.269,-424 837,-406 1125.73,-424 837,-442"/>
<text text-anchor="middle" x="837" y="-420.3" font-family="Times,serif" font-size="14.00">localhost:3000#ServerID_736074b81582</text>
</g>
<!-- 1_fwatchdog#ServerID_736074b81582&#45;&gt;localhost:3000#ServerID_736074b81582 -->
<g id="edge11" class="edge"><title>1_fwatchdog#ServerID_736074b81582&#45;&gt;localhost:3000#ServerID_736074b81582</title>
<path fill="none" stroke="black" d="M872.287,-513.964C855.43,-509.151 841.628,-503.208 836,-496 826.415,-483.724 826.534,-466.273 829.114,-451.745"/>
<polygon fill="black" stroke="black" points="832.571,-452.319 831.323,-441.798 825.738,-450.801 832.571,-452.319"/>
<text text-anchor="middle" x="865" y="-484.8" font-family="Times,serif" font-size="14.00">connect</text>
</g>
<!-- 1_fwatchdog#ServerID_736074b81582&#45;&gt;localhost:3000#ServerID_736074b81582 -->
<g id="edge12" class="edge"><title>1_fwatchdog#ServerID_736074b81582&#45;&gt;localhost:3000#ServerID_736074b81582</title>
<path fill="none" stroke="black" d="M944.669,-513.909C935.519,-508.523 925.657,-502.32 917,-496 897.076,-481.454 876.288,-462.885 860.897,-448.386"/>
<polygon fill="black" stroke="black" points="863.028,-445.582 853.374,-441.218 858.199,-450.65 863.028,-445.582"/>
<text text-anchor="middle" x="936" y="-484.8" font-family="Times,serif" font-size="14.00">write</text>
</g>
<!-- localhost:3000#ServerID_736074b81582&#45;&gt;1_fwatchdog#ServerID_736074b81582 -->
<g id="edge13" class="edge"><title>localhost:3000#ServerID_736074b81582&#45;&gt;1_fwatchdog#ServerID_736074b81582</title>
<path fill="none" stroke="black" d="M885.901,-439.075C909.324,-447.905 936.28,-461.408 955,-481 961.196,-487.485 965.689,-496.067 968.888,-504.288"/>
<polygon fill="black" stroke="black" points="965.647,-505.628 972.176,-513.971 972.275,-503.377 965.647,-505.628"/>
<text text-anchor="middle" x="981.5" y="-484.8" font-family="Times,serif" font-size="14.00">read</text>
</g>
<!-- 10_node#ServerID_736074b81582 -->
<g id="node11" class="node"><title>10_node#ServerID_736074b81582</title>
<polygon fill="none" stroke="black" points="530.5,-442 261.5,-442 261.5,-406 530.5,-406 530.5,-442"/>
<text text-anchor="middle" x="396" y="-420.3" font-family="Times,serif" font-size="14.00">10_node#ServerID_736074b81582</text>
</g>
<!-- 10_node#ServerID_736074b81582&#45;&gt;gateway:8080#ServerID_OuterContainerID -->
<g id="edge23" class="edge"><title>10_node#ServerID_736074b81582&#45;&gt;gateway:8080#ServerID_OuterContainerID</title>
<path fill="none" stroke="black" d="M480.391,-405.978C499.581,-402.741 519.931,-399.805 539,-398 680.607,-384.6 1036.78,-390.379 1179,-388 1322.34,-385.602 2326.16,-377.17 2469,-365 2549.85,-358.111 2641.52,-343.209 2704.66,-331.824"/>
<polygon fill="black" stroke="black" points="2705.33,-335.26 2714.54,-330.029 2704.08,-328.373 2705.33,-335.26"/>
<text text-anchor="middle" x="2271" y="-376.8" font-family="Times,serif" font-size="14.00">connect</text>
</g>
<!-- pipe:[20744134]#ServerID_736074b81582 -->
<g id="node12" class="node"><title>pipe:[20744134]#ServerID_736074b81582</title>
<ellipse fill="none" stroke="black" cx="396" cy="-316" rx="211.762" ry="18"/>
<text text-anchor="middle" x="396" y="-312.3" font-family="Times,serif" font-size="14.00">pipe:[20744134]#ServerID_736074b81582</text>
</g>
<!-- 10_node#ServerID_736074b81582&#45;&gt;pipe:[20744134]#ServerID_736074b81582 -->
<g id="edge14" class="edge"><title>10_node#ServerID_736074b81582&#45;&gt;pipe:[20744134]#ServerID_736074b81582</title>
<path fill="none" stroke="black" d="M396,-405.969C396,-389.378 396,-363.883 396,-344.431"/>
<polygon fill="black" stroke="black" points="399.5,-344.341 396,-334.341 392.5,-344.341 399.5,-344.341"/>
<text text-anchor="middle" x="415" y="-376.8" font-family="Times,serif" font-size="14.00">write</text>
</g>
<!-- 10.152.183.10:53#ServerID_OuterContainerID -->
<g id="node15" class="node"><title>10.152.183.10:53#ServerID_OuterContainerID</title>
<polygon fill="none" stroke="black" points="1477,-334 1149.56,-316 1477,-298 1804.44,-316 1477,-334"/>
<text text-anchor="middle" x="1477" y="-312.3" font-family="Times,serif" font-size="14.00">10.152.183.10:53#ServerID_OuterContainerID</text>
</g>
<!-- 10_node#ServerID_736074b81582&#45;&gt;10.152.183.10:53#ServerID_OuterContainerID -->
<g id="edge18" class="edge"><title>10_node#ServerID_736074b81582&#45;&gt;10.152.183.10:53#ServerID_OuterContainerID</title>
<path fill="none" stroke="black" d="M481.158,-405.942C500.124,-402.75 520.188,-399.841 539,-398 739.424,-378.382 791.323,-404.839 992,-388 1135.12,-375.99 1300.34,-348.956 1396.3,-331.927"/>
<polygon fill="black" stroke="black" points="1397,-335.359 1406.23,-330.158 1395.77,-328.468 1397,-335.359"/>
<text text-anchor="middle" x="1150.5" y="-376.8" font-family="Times,serif" font-size="14.00">sendto</text>
</g>
<!-- /etc/hosts#ServerID_736074b81582 -->
<g id="node13" class="node"><title>/etc/hosts#ServerID_736074b81582</title>
<ellipse fill="none" stroke="black" cx="627" cy="-532" rx="180.868" ry="18"/>
<text text-anchor="middle" x="627" y="-528.3" font-family="Times,serif" font-size="14.00">/etc/hosts#ServerID_736074b81582</text>
</g>
<!-- /etc/hosts#ServerID_736074b81582&#45;&gt;10_node#ServerID_736074b81582 -->
<g id="edge16" class="edge"><title>/etc/hosts#ServerID_736074b81582&#45;&gt;10_node#ServerID_736074b81582</title>
<path fill="none" stroke="black" d="M590.652,-514.321C550.643,-495.962 486.218,-466.399 442.544,-446.358"/>
<polygon fill="black" stroke="black" points="443.832,-443.098 433.284,-442.108 440.913,-449.46 443.832,-443.098"/>
<text text-anchor="middle" x="562.5" y="-484.8" font-family="Times,serif" font-size="14.00">read</text>
</g>
<!-- /etc/resolv.conf#ServerID_736074b81582 -->
<g id="node14" class="node"><title>/etc/resolv.conf#ServerID_736074b81582</title>
<ellipse fill="none" stroke="black" cx="222" cy="-532" rx="206.063" ry="18"/>
<text text-anchor="middle" x="222" y="-528.3" font-family="Times,serif" font-size="14.00">/etc/resolv.conf#ServerID_736074b81582</text>
</g>
<!-- /etc/resolv.conf#ServerID_736074b81582&#45;&gt;10_node#ServerID_736074b81582 -->
<g id="edge17" class="edge"><title>/etc/resolv.conf#ServerID_736074b81582&#45;&gt;10_node#ServerID_736074b81582</title>
<path fill="none" stroke="black" d="M249.956,-513.969C279.548,-495.942 326.396,-467.402 359.025,-447.525"/>
<polygon fill="black" stroke="black" points="361.106,-450.356 367.825,-442.164 357.464,-444.378 361.106,-450.356"/>
<text text-anchor="middle" x="320.5" y="-484.8" font-family="Times,serif" font-size="14.00">read</text>
</g>
<!-- 10.152.183.10:53#ServerID_OuterContainerID&#45;&gt;10_node#ServerID_736074b81582 -->
<g id="edge19" class="edge"><title>10.152.183.10:53#ServerID_OuterContainerID&#45;&gt;10_node#ServerID_736074b81582</title>
<path fill="none" stroke="black" d="M1401.86,-329.92C1333.33,-341.158 1229.18,-356.878 1138,-365 1042.31,-373.523 1017.94,-368.093 922,-373 751.638,-381.713 708.375,-377.726 539,-398 524.666,-399.716 509.587,-401.915 494.814,-404.296"/>
<polygon fill="black" stroke="black" points="493.947,-400.892 484.648,-405.97 495.084,-407.799 493.947,-400.892"/>
<text text-anchor="middle" x="955" y="-376.8" font-family="Times,serif" font-size="14.00">recvfrom</text>
</g>
<!-- localhost:3000#ServerID_86aa7f3fa3b0 -->
<g id="node17" class="node"><title>localhost:3000#ServerID_86aa7f3fa3b0</title>
<polygon fill="none" stroke="black" points="5405,-139 5125.65,-121 5405,-103 5684.35,-121 5405,-139"/>
<text text-anchor="middle" x="5405" y="-117.3" font-family="Times,serif" font-size="14.00">localhost:3000#ServerID_86aa7f3fa3b0</text>
</g>
<!-- 1_fwatchdog#ServerID_86aa7f3fa3b0&#45;&gt;localhost:3000#ServerID_86aa7f3fa3b0 -->
<g id="edge21" class="edge"><title>1_fwatchdog#ServerID_86aa7f3fa3b0&#45;&gt;localhost:3000#ServerID_86aa7f3fa3b0</title>
<path fill="none" stroke="black" d="M5426.8,-189.762C5431.74,-184.629 5436.32,-178.594 5439,-172 5442.79,-162.662 5438.95,-153.296 5432.68,-145.237"/>
<polygon fill="black" stroke="black" points="5435.11,-142.702 5425.79,-137.662 5429.93,-147.414 5435.11,-142.702"/>
<text text-anchor="middle" x="5470" y="-160.8" font-family="Times,serif" font-size="14.00">connect</text>
</g>
<!-- 1_fwatchdog#ServerID_86aa7f3fa3b0&#45;&gt;localhost:3000#ServerID_86aa7f3fa3b0 -->
<g id="edge24" class="edge"><title>1_fwatchdog#ServerID_86aa7f3fa3b0&#45;&gt;localhost:3000#ServerID_86aa7f3fa3b0</title>
<path fill="none" stroke="black" d="M5374.91,-189.826C5368.89,-184.893 5363.39,-178.935 5360,-172 5354.95,-161.673 5360.44,-151.895 5369.1,-143.771"/>
<polygon fill="black" stroke="black" points="5371.43,-146.39 5376.97,-137.36 5367.01,-140.964 5371.43,-146.39"/>
<text text-anchor="middle" x="5379" y="-160.8" font-family="Times,serif" font-size="14.00">write</text>
</g>
<!-- pipe:[20744110]#ServerID_86aa7f3fa3b0 -->
<g id="node19" class="node"><title>pipe:[20744110]#ServerID_86aa7f3fa3b0</title>
<ellipse fill="none" stroke="black" cx="5908" cy="-121" rx="206.063" ry="18"/>
<text text-anchor="middle" x="5908" y="-117.3" font-family="Times,serif" font-size="14.00">pipe:[20744110]#ServerID_86aa7f3fa3b0</text>
</g>
<!-- 1_fwatchdog#ServerID_86aa7f3fa3b0&#45;&gt;pipe:[20744110]#ServerID_86aa7f3fa3b0 -->
<g id="edge26" class="edge"><title>1_fwatchdog#ServerID_86aa7f3fa3b0&#45;&gt;pipe:[20744110]#ServerID_86aa7f3fa3b0</title>
<path fill="none" stroke="black" d="M5505.88,-189.952C5593.7,-175.113 5720.3,-153.719 5807.89,-138.918"/>
<polygon fill="black" stroke="black" points="5808.56,-142.354 5817.83,-137.237 5807.39,-135.452 5808.56,-142.354"/>
<text text-anchor="middle" x="5706" y="-160.8" font-family="Times,serif" font-size="14.00">write</text>
</g>
<!-- localhost:3000#ServerID_86aa7f3fa3b0&#45;&gt;1_fwatchdog#ServerID_86aa7f3fa3b0 -->
<g id="edge22" class="edge"><title>localhost:3000#ServerID_86aa7f3fa3b0&#45;&gt;1_fwatchdog#ServerID_86aa7f3fa3b0</title>
<path fill="none" stroke="black" d="M5403.24,-139.071C5402.73,-144.766 5402.25,-151.151 5402,-157 5401.69,-164.355 5401.91,-172.313 5402.34,-179.672"/>
<polygon fill="black" stroke="black" points="5398.87,-180.17 5403.1,-189.883 5405.85,-179.651 5398.87,-180.17"/>
<text text-anchor="middle" x="5418.5" y="-160.8" font-family="Times,serif" font-size="14.00">read</text>
</g>
<!-- 10_node#ServerID_86aa7f3fa3b0 -->
<g id="node18" class="node"><title>10_node#ServerID_86aa7f3fa3b0</title>
<polygon fill="none" stroke="black" points="5534.5,-52 5275.5,-52 5275.5,-16 5534.5,-16 5534.5,-52"/>
<text text-anchor="middle" x="5405" y="-30.3" font-family="Times,serif" font-size="14.00">10_node#ServerID_86aa7f3fa3b0</text>
</g>
<!-- localhost:3000#ServerID_86aa7f3fa3b0&#45;&gt;10_node#ServerID_86aa7f3fa3b0 -->
<g id="edge25" class="edge"><title>localhost:3000#ServerID_86aa7f3fa3b0&#45;&gt;10_node#ServerID_86aa7f3fa3b0</title>
<path fill="none" stroke="black" d="M5405,-102.799C5405,-91.1626 5405,-75.5479 5405,-62.2368"/>
<polygon fill="black" stroke="black" points="5408.5,-62.1754 5405,-52.1754 5401.5,-62.1755 5408.5,-62.1754"/>
<text text-anchor="middle" x="5421.5" y="-73.8" font-family="Times,serif" font-size="14.00">read</text>
</g>
<!-- localhost:3000#ServerID_834d81eb81b3 -->
<g id="node21" class="node"><title>localhost:3000#ServerID_834d81eb81b3</title>
<polygon fill="none" stroke="black" points="6426,-139 6138.11,-121 6426,-103 6713.89,-121 6426,-139"/>
<text text-anchor="middle" x="6426" y="-117.3" font-family="Times,serif" font-size="14.00">localhost:3000#ServerID_834d81eb81b3</text>
</g>
<!-- 1_fwatchdog#ServerID_834d81eb81b3&#45;&gt;localhost:3000#ServerID_834d81eb81b3 -->
<g id="edge27" class="edge"><title>1_fwatchdog#ServerID_834d81eb81b3&#45;&gt;localhost:3000#ServerID_834d81eb81b3</title>
<path fill="none" stroke="black" d="M6448.15,-189.998C6457.32,-180.779 6464.82,-168.867 6460,-157 6458.35,-152.938 6455.98,-149.088 6453.25,-145.53"/>
<polygon fill="black" stroke="black" points="6455.63,-142.947 6446.38,-137.797 6450.4,-147.597 6455.63,-142.947"/>
<text text-anchor="middle" x="6490" y="-160.8" font-family="Times,serif" font-size="14.00">connect</text>
</g>
<!-- 1_fwatchdog#ServerID_834d81eb81b3&#45;&gt;localhost:3000#ServerID_834d81eb81b3 -->
<g id="edge29" class="edge"><title>1_fwatchdog#ServerID_834d81eb81b3&#45;&gt;localhost:3000#ServerID_834d81eb81b3</title>
<path fill="none" stroke="black" d="M6395.25,-189.939C6389.1,-185.002 6383.48,-179.013 6380,-172 6374.84,-161.597 6380.45,-151.801 6389.31,-143.684"/>
<polygon fill="black" stroke="black" points="6391.71,-146.25 6397.35,-137.284 6387.35,-140.773 6391.71,-146.25"/>
<text text-anchor="middle" x="6399" y="-160.8" font-family="Times,serif" font-size="14.00">write</text>
</g>
<!-- pipe:[20745046]#ServerID_834d81eb81b3 -->
<g id="node22" class="node"><title>pipe:[20745046]#ServerID_834d81eb81b3</title>
<ellipse fill="none" stroke="black" cx="6944" cy="-121" rx="211.762" ry="18"/>
<text text-anchor="middle" x="6944" y="-117.3" font-family="Times,serif" font-size="14.00">pipe:[20745046]#ServerID_834d81eb81b3</text>
</g>
<!-- 1_fwatchdog#ServerID_834d81eb81b3&#45;&gt;pipe:[20745046]#ServerID_834d81eb81b3 -->
<g id="edge31" class="edge"><title>1_fwatchdog#ServerID_834d81eb81b3&#45;&gt;pipe:[20745046]#ServerID_834d81eb81b3</title>
<path fill="none" stroke="black" d="M6529.89,-189.952C6620.42,-175.098 6750.97,-153.676 6841.17,-138.873"/>
<polygon fill="black" stroke="black" points="6841.84,-142.31 6851.15,-137.237 6840.71,-135.402 6841.84,-142.31"/>
<text text-anchor="middle" x="6735" y="-160.8" font-family="Times,serif" font-size="14.00">write</text>
</g>
<!-- localhost:3000#ServerID_834d81eb81b3&#45;&gt;1_fwatchdog#ServerID_834d81eb81b3 -->
<g id="edge28" class="edge"><title>localhost:3000#ServerID_834d81eb81b3&#45;&gt;1_fwatchdog#ServerID_834d81eb81b3</title>
<path fill="none" stroke="black" d="M6424.1,-139.117C6423.25,-148.769 6422.53,-161.053 6423,-172 6423.11,-174.559 6423.26,-177.221 6423.45,-179.882"/>
<polygon fill="black" stroke="black" points="6419.96,-180.237 6424.24,-189.929 6426.94,-179.683 6419.96,-180.237"/>
<text text-anchor="middle" x="6439.5" y="-160.8" font-family="Times,serif" font-size="14.00">read</text>
</g>
<!-- 10.1.80.1:4831#ServerID_OuterContainerID&#45;&gt;10.1.80.93:8080#ServerID_OuterContainerID -->
<g id="edge32" class="edge"><title>10.1.80.1:4831#ServerID_OuterContainerID&#45;&gt;10.1.80.93:8080#ServerID_OuterContainerID</title>
<path fill="none" stroke="black" d="M2246.81,-225.931C2244.84,-241.728 2239.67,-265.043 2226,-280 2219.98,-286.591 2212.53,-291.973 2204.56,-296.36"/>
<polygon fill="black" stroke="black" points="2202.8,-293.324 2195.4,-300.9 2205.91,-299.597 2202.8,-293.324"/>
<text text-anchor="middle" x="2256" y="-268.8" font-family="Times,serif" font-size="14.00">POST</text>
</g>
</g>
</svg>
