<?xml version="1.0" encoding="UTF-8" standalone="no"?>
<!DOCTYPE svg PUBLIC "-//W3C//DTD SVG 1.1//EN"
 "http://www.w3.org/Graphics/SVG/1.1/DTD/svg11.dtd">
<!-- Generated by graphviz version 2.38.0 (20140413.2041)
 -->
<!-- Title: G Pages: 1 -->
<svg width="4332pt" height="597pt"
 viewBox="0.00 0.00 4332.00 597.00" xmlns="http://www.w3.org/2000/svg" xmlns:xlink="http://www.w3.org/1999/xlink">
<g id="graph0" class="graph" transform="scale(1 1) rotate(0) translate(4 593)">
<title>G</title>
<polygon fill="white" stroke="none" points="-4,4 -4,-593 4328,-593 4328,4 -4,4"/>
<g id="clust1" class="cluster"><title>clusterServerID_2347d2f455dd</title>
<polygon fill="none" stroke="black" points="1599,-398 1599,-581 2713,-581 2713,-398 1599,-398"/>
<text text-anchor="middle" x="2156" y="-565.8" font-family="Times,serif" font-size="14.00">clusterServerID_2347d2f455dd</text>
</g>
<g id="clust2" class="cluster"><title>clusterServerID_5f846fd567&#45;g8dn6</title>
<polygon fill="none" stroke="black" points="2799,-398 2799,-473 3139,-473 3139,-398 2799,-398"/>
<text text-anchor="middle" x="2969" y="-457.8" font-family="Times,serif" font-size="14.00">clusterServerID_5f846fd567&#45;g8dn6</text>
</g>
<g id="clust3" class="cluster"><title>clusterServerID_6df85d7674&#45;f2xxt</title>
<polygon fill="none" stroke="black" points="838,-398 838,-473 1174,-473 1174,-398 838,-398"/>
<text text-anchor="middle" x="1006" y="-457.8" font-family="Times,serif" font-size="14.00">clusterServerID_6df85d7674&#45;f2xxt</text>
</g>
<g id="clust4" class="cluster"><title>clusterServerID_7cf8268e6ab5</title>
<polygon fill="none" stroke="black" points="3312,-8 3312,-257 4316,-257 4316,-8 3312,-8"/>
<text text-anchor="middle" x="3814" y="-241.8" font-family="Times,serif" font-size="14.00">clusterServerID_7cf8268e6ab5</text>
</g>
<g id="clust5" class="cluster"><title>clusterServerID_OuterContainerID</title>
<polygon fill="none" stroke="black" points="8,-182 8,-365 3304,-365 3304,-182 8,-182"/>
<text text-anchor="middle" x="1656" y="-349.8" font-family="Times,serif" font-size="14.00">clusterServerID_OuterContainerID</text>
</g>
<!-- 10.1.80.93:35996#ServerID_OuterContainerID -->
<g id="node1" class="node"><title>10.1.80.93:35996#ServerID_OuterContainerID</title>
<polygon fill="none" stroke="black" points="343,-334 15.5599,-316 343,-298 670.44,-316 343,-334"/>
<text text-anchor="middle" x="343" y="-312.3" font-family="Times,serif" font-size="14.00">10.1.80.93:35996#ServerID_OuterContainerID</text>
</g>
<!-- 1_fwatchdog#ServerID_6df85d7674&#45;f2xxt -->
<g id="node2" class="node"><title>1_fwatchdog#ServerID_6df85d7674&#45;f2xxt</title>
<polygon fill="none" stroke="black" points="1166,-442 846,-442 846,-406 1166,-406 1166,-442"/>
<text text-anchor="middle" x="1006" y="-420.3" font-family="Times,serif" font-size="14.00">1_fwatchdog#ServerID_6df85d7674&#45;f2xxt</text>
</g>
<!-- 10.1.80.93:35996#ServerID_OuterContainerID&#45;&gt;1_fwatchdog#ServerID_6df85d7674&#45;f2xxt -->
<g id="edge1" class="edge"><title>10.1.80.93:35996#ServerID_OuterContainerID&#45;&gt;1_fwatchdog#ServerID_6df85d7674&#45;f2xxt</title>
<path fill="none" stroke="black" d="M400.563,-330.871C467.75,-346.638 582.371,-372.225 682,-388 731.665,-395.864 785.898,-402.486 835.539,-407.781"/>
<polygon fill="black" stroke="black" points="835.419,-411.287 845.731,-408.856 836.154,-404.326 835.419,-411.287"/>
<text text-anchor="middle" x="702" y="-376.8" font-family="Times,serif" font-size="14.00">POST</text>
</g>
<!-- 1_fwatchdog#ServerID_2347d2f455dd -->
<g id="node3" class="node"><title>1_fwatchdog#ServerID_2347d2f455dd</title>
<polygon fill="none" stroke="black" points="2705,-550 2409,-550 2409,-514 2705,-514 2705,-550"/>
<text text-anchor="middle" x="2557" y="-528.3" font-family="Times,serif" font-size="14.00">1_fwatchdog#ServerID_2347d2f455dd</text>
</g>
<!-- 10.1.80.93:35996#ServerID_OuterContainerID&#45;&gt;1_fwatchdog#ServerID_2347d2f455dd -->
<g id="edge6" class="edge"><title>10.1.80.93:35996#ServerID_OuterContainerID&#45;&gt;1_fwatchdog#ServerID_2347d2f455dd</title>
<path fill="none" stroke="black" d="M414.463,-330.098C482.274,-341.839 587.178,-358.225 679,-365 842.779,-377.085 1992.87,-367.393 2157,-373 2201.17,-374.509 2523.38,-366.123 2554,-398 2580.62,-425.715 2573.9,-473.585 2565.94,-503.704"/>
<polygon fill="black" stroke="black" points="2562.51,-502.978 2563.12,-513.555 2569.24,-504.903 2562.51,-502.978"/>
<text text-anchor="middle" x="2590.5" y="-420.3" font-family="Times,serif" font-size="14.00">read</text>
</g>
<!-- 1_fwatchdog#ServerID_6df85d7674&#45;f2xxt&#45;&gt;10.1.80.93:35996#ServerID_OuterContainerID -->
<g id="edge13" class="edge"><title>1_fwatchdog#ServerID_6df85d7674&#45;f2xxt&#45;&gt;10.1.80.93:35996#ServerID_OuterContainerID</title>
<path fill="none" stroke="black" d="M913.056,-405.97C857.646,-395.984 785.876,-383.34 722,-373 626.488,-357.539 517.146,-341.567 440.532,-330.657"/>
<polygon fill="black" stroke="black" points="440.808,-327.161 430.415,-329.219 439.822,-334.091 440.808,-327.161"/>
<text text-anchor="middle" x="850" y="-376.8" font-family="Times,serif" font-size="14.00">RESPONSE</text>
</g>
<!-- gateway:8080#ServerID_OuterContainerID -->
<g id="node7" class="node"><title>gateway:8080#ServerID_OuterContainerID</title>
<polygon fill="none" stroke="black" points="1648,-334 1343.52,-316 1648,-298 1952.48,-316 1648,-334"/>
<text text-anchor="middle" x="1648" y="-312.3" font-family="Times,serif" font-size="14.00">gateway:8080#ServerID_OuterContainerID</text>
</g>
<!-- 1_fwatchdog#ServerID_6df85d7674&#45;f2xxt&#45;&gt;gateway:8080#ServerID_OuterContainerID -->
<g id="edge4" class="edge"><title>1_fwatchdog#ServerID_6df85d7674&#45;f2xxt&#45;&gt;gateway:8080#ServerID_OuterContainerID</title>
<path fill="none" stroke="black" d="M1109.15,-405.969C1234.69,-385.242 1444.39,-350.617 1561.75,-331.241"/>
<polygon fill="black" stroke="black" points="1562.47,-334.668 1571.77,-329.586 1561.33,-327.762 1562.47,-334.668"/>
<text text-anchor="middle" x="1328" y="-376.8" font-family="Times,serif" font-size="14.00">POST</text>
</g>
<!-- 10.1.80.93:8080#ServerID_OuterContainerID -->
<g id="node8" class="node"><title>10.1.80.93:8080#ServerID_OuterContainerID</title>
<polygon fill="none" stroke="black" points="1007,-334 688.105,-316 1007,-298 1325.9,-316 1007,-334"/>
<text text-anchor="middle" x="1007" y="-312.3" font-family="Times,serif" font-size="14.00">10.1.80.93:8080#ServerID_OuterContainerID</text>
</g>
<!-- 1_fwatchdog#ServerID_6df85d7674&#45;f2xxt&#45;&gt;10.1.80.93:8080#ServerID_OuterContainerID -->
<g id="edge5" class="edge"><title>1_fwatchdog#ServerID_6df85d7674&#45;f2xxt&#45;&gt;10.1.80.93:8080#ServerID_OuterContainerID</title>
<path fill="none" stroke="black" d="M987.041,-405.736C982.557,-400.523 978.388,-394.455 976,-388 973.687,-381.747 974.333,-379.455 976,-373 978.752,-362.348 984.011,-351.56 989.427,-342.334"/>
<polygon fill="black" stroke="black" points="992.494,-344.03 994.809,-333.692 986.552,-340.33 992.494,-344.03"/>
<text text-anchor="middle" x="996" y="-376.8" font-family="Times,serif" font-size="14.00">POST</text>
</g>
<!-- localhost:3000#ServerID_2347d2f455dd -->
<g id="node4" class="node"><title>localhost:3000#ServerID_2347d2f455dd</title>
<polygon fill="none" stroke="black" points="2260,-442 1975.12,-424 2260,-406 2544.88,-424 2260,-442"/>
<text text-anchor="middle" x="2260" y="-420.3" font-family="Times,serif" font-size="14.00">localhost:3000#ServerID_2347d2f455dd</text>
</g>
<!-- 1_fwatchdog#ServerID_2347d2f455dd&#45;&gt;localhost:3000#ServerID_2347d2f455dd -->
<g id="edge2" class="edge"><title>1_fwatchdog#ServerID_2347d2f455dd&#45;&gt;localhost:3000#ServerID_2347d2f455dd</title>
<path fill="none" stroke="black" d="M2509.28,-513.969C2454.83,-494.536 2366.15,-462.887 2310.55,-443.042"/>
<polygon fill="black" stroke="black" points="2311.5,-439.665 2300.91,-439.6 2309.15,-446.258 2311.5,-439.665"/>
<text text-anchor="middle" x="2472" y="-484.8" font-family="Times,serif" font-size="14.00">write</text>
</g>
<!-- /etc/hosts#ServerID_2347d2f455dd -->
<g id="node5" class="node"><title>/etc/hosts#ServerID_2347d2f455dd</title>
<ellipse fill="none" stroke="black" cx="2212" cy="-532" rx="178.969" ry="18"/>
<text text-anchor="middle" x="2212" y="-528.3" font-family="Times,serif" font-size="14.00">/etc/hosts#ServerID_2347d2f455dd</text>
</g>
<!-- 13_node#ServerID_2347d2f455dd -->
<g id="node6" class="node"><title>13_node#ServerID_2347d2f455dd</title>
<polygon fill="none" stroke="black" points="1957.5,-442 1692.5,-442 1692.5,-406 1957.5,-406 1957.5,-442"/>
<text text-anchor="middle" x="1825" y="-420.3" font-family="Times,serif" font-size="14.00">13_node#ServerID_2347d2f455dd</text>
</g>
<!-- /etc/hosts#ServerID_2347d2f455dd&#45;&gt;13_node#ServerID_2347d2f455dd -->
<g id="edge3" class="edge"><title>/etc/hosts#ServerID_2347d2f455dd&#45;&gt;13_node#ServerID_2347d2f455dd</title>
<path fill="none" stroke="black" d="M2138.32,-515.58C2089.2,-504.821 2023.35,-489.482 1966,-473 1937.68,-464.862 1906.64,-454.459 1880.91,-445.42"/>
<polygon fill="black" stroke="black" points="1881.92,-442.065 1871.32,-442.03 1879.58,-448.664 1881.92,-442.065"/>
<text text-anchor="middle" x="2070.5" y="-484.8" font-family="Times,serif" font-size="14.00">read</text>
</g>
<!-- 13_node#ServerID_2347d2f455dd&#45;&gt;gateway:8080#ServerID_OuterContainerID -->
<g id="edge15" class="edge"><title>13_node#ServerID_2347d2f455dd&#45;&gt;gateway:8080#ServerID_OuterContainerID</title>
<path fill="none" stroke="black" d="M1796.56,-405.969C1765.66,-387.46 1716.25,-357.87 1682.98,-337.951"/>
<polygon fill="black" stroke="black" points="1684.44,-334.742 1674.06,-332.607 1680.84,-340.747 1684.44,-334.742"/>
<text text-anchor="middle" x="1792" y="-376.8" font-family="Times,serif" font-size="14.00">connect</text>
</g>
<!-- 10.152.183.10:53#ServerID_OuterContainerID -->
<g id="node12" class="node"><title>10.152.183.10:53#ServerID_OuterContainerID</title>
<polygon fill="none" stroke="black" points="2297,-334 1969.56,-316 2297,-298 2624.44,-316 2297,-334"/>
<text text-anchor="middle" x="2297" y="-312.3" font-family="Times,serif" font-size="14.00">10.152.183.10:53#ServerID_OuterContainerID</text>
</g>
<!-- 13_node#ServerID_2347d2f455dd&#45;&gt;10.152.183.10:53#ServerID_OuterContainerID -->
<g id="edge10" class="edge"><title>13_node#ServerID_2347d2f455dd&#45;&gt;10.152.183.10:53#ServerID_OuterContainerID</title>
<path fill="none" stroke="black" d="M1871.37,-405.94C1901.45,-395.35 1941.67,-382.076 1978,-373 2050.88,-354.792 2134.58,-340.336 2197.95,-330.676"/>
<polygon fill="black" stroke="black" points="2198.57,-334.121 2207.94,-329.167 2197.53,-327.2 2198.57,-334.121"/>
<text text-anchor="middle" x="2002.5" y="-376.8" font-family="Times,serif" font-size="14.00">sendto</text>
</g>
<!-- gateway:8080#ServerID_OuterContainerID&#45;&gt;1_fwatchdog#ServerID_6df85d7674&#45;f2xxt -->
<g id="edge12" class="edge"><title>gateway:8080#ServerID_OuterContainerID&#45;&gt;1_fwatchdog#ServerID_6df85d7674&#45;f2xxt</title>
<path fill="none" stroke="black" d="M1598.15,-331.135C1539.65,-347.21 1439.53,-373.145 1352,-388 1295.14,-397.649 1232.55,-404.97 1176.41,-410.358"/>
<polygon fill="black" stroke="black" points="1176,-406.881 1166.37,-411.307 1176.66,-413.85 1176,-406.881"/>
<text text-anchor="middle" x="1468" y="-376.8" font-family="Times,serif" font-size="14.00">RESPONSE</text>
</g>
<!-- 10.1.80.93:8080#ServerID_OuterContainerID&#45;&gt;1_fwatchdog#ServerID_6df85d7674&#45;f2xxt -->
<g id="edge11" class="edge"><title>10.1.80.93:8080#ServerID_OuterContainerID&#45;&gt;1_fwatchdog#ServerID_6df85d7674&#45;f2xxt</title>
<path fill="none" stroke="black" d="M1011.68,-333.944C1015.05,-348.339 1018.59,-369.543 1016,-388 1015.64,-390.574 1015.14,-393.224 1014.55,-395.859"/>
<polygon fill="black" stroke="black" points="1011.1,-395.198 1011.96,-405.759 1017.87,-396.971 1011.1,-395.198"/>
<text text-anchor="middle" x="1059" y="-376.8" font-family="Times,serif" font-size="14.00">RESPONSE</text>
</g>
<!-- 10.1.80.1:30173#ServerID_OuterContainerID -->
<g id="node17" class="node"><title>10.1.80.1:30173#ServerID_OuterContainerID</title>
<polygon fill="none" stroke="black" points="414,-226 95.1049,-208 414,-190 732.895,-208 414,-226"/>
<text text-anchor="middle" x="414" y="-204.3" font-family="Times,serif" font-size="14.00">10.1.80.1:30173#ServerID_OuterContainerID</text>
</g>
<!-- 10.1.80.93:8080#ServerID_OuterContainerID&#45;&gt;10.1.80.1:30173#ServerID_OuterContainerID -->
<g id="edge23" class="edge"><title>10.1.80.93:8080#ServerID_OuterContainerID&#45;&gt;10.1.80.1:30173#ServerID_OuterContainerID</title>
<path fill="none" stroke="black" d="M934.583,-302.055C823.802,-282.253 612.88,-244.55 496.402,-223.729"/>
<polygon fill="black" stroke="black" points="496.922,-220.267 486.463,-221.953 495.691,-227.158 496.922,-220.267"/>
<text text-anchor="middle" x="841" y="-268.8" font-family="Times,serif" font-size="14.00">RESPONSE</text>
</g>
<!-- 10.0.88.125:31112#ServerID_OuterContainerID -->
<g id="node18" class="node"><title>10.0.88.125:31112#ServerID_OuterContainerID</title>
<polygon fill="none" stroke="black" points="1742,-226 1406.52,-208 1742,-190 2077.48,-208 1742,-226"/>
<text text-anchor="middle" x="1742" y="-204.3" font-family="Times,serif" font-size="14.00">10.0.88.125:31112#ServerID_OuterContainerID</text>
</g>
<!-- 10.1.80.93:8080#ServerID_OuterContainerID&#45;&gt;10.0.88.125:31112#ServerID_OuterContainerID -->
<g id="edge22" class="edge"><title>10.1.80.93:8080#ServerID_OuterContainerID&#45;&gt;10.0.88.125:31112#ServerID_OuterContainerID</title>
<path fill="none" stroke="black" d="M1092.03,-302.737C1229.86,-282.859 1501.18,-243.731 1645.84,-222.868"/>
<polygon fill="black" stroke="black" points="1646.63,-226.29 1656.03,-221.398 1645.63,-219.362 1646.63,-226.29"/>
<text text-anchor="middle" x="1395" y="-268.8" font-family="Times,serif" font-size="14.00">RESPONSE</text>
</g>
<!-- 10.1.80.1:50057#ServerID_OuterContainerID -->
<g id="node19" class="node"><title>10.1.80.1:50057#ServerID_OuterContainerID</title>
<polygon fill="none" stroke="black" points="1070,-226 751.105,-208 1070,-190 1388.9,-208 1070,-226"/>
<text text-anchor="middle" x="1070" y="-204.3" font-family="Times,serif" font-size="14.00">10.1.80.1:50057#ServerID_OuterContainerID</text>
</g>
<!-- 10.1.80.93:8080#ServerID_OuterContainerID&#45;&gt;10.1.80.1:50057#ServerID_OuterContainerID -->
<g id="edge25" class="edge"><title>10.1.80.93:8080#ServerID_OuterContainerID&#45;&gt;10.1.80.1:50057#ServerID_OuterContainerID</title>
<path fill="none" stroke="black" d="M1030.09,-299.166C1036.64,-293.734 1043.26,-287.191 1048,-280 1056.71,-266.774 1062.12,-249.913 1065.4,-235.941"/>
<polygon fill="black" stroke="black" points="1068.87,-236.434 1067.51,-225.928 1062.02,-234.992 1068.87,-236.434"/>
<text text-anchor="middle" x="1098" y="-268.8" font-family="Times,serif" font-size="14.00">RESPONSE</text>
</g>
<!-- /etc/resolv.conf#ServerID_2347d2f455dd -->
<g id="node9" class="node"><title>/etc/resolv.conf#ServerID_2347d2f455dd</title>
<ellipse fill="none" stroke="black" cx="1811" cy="-532" rx="204.164" ry="18"/>
<text text-anchor="middle" x="1811" y="-528.3" font-family="Times,serif" font-size="14.00">/etc/resolv.conf#ServerID_2347d2f455dd</text>
</g>
<!-- /etc/resolv.conf#ServerID_2347d2f455dd&#45;&gt;13_node#ServerID_2347d2f455dd -->
<g id="edge7" class="edge"><title>/etc/resolv.conf#ServerID_2347d2f455dd&#45;&gt;13_node#ServerID_2347d2f455dd</title>
<path fill="none" stroke="black" d="M1813.25,-513.969C1815.44,-497.378 1818.81,-471.883 1821.38,-452.431"/>
<polygon fill="black" stroke="black" points="1824.87,-452.713 1822.71,-442.341 1817.93,-451.796 1824.87,-452.713"/>
<text text-anchor="middle" x="1834.5" y="-484.8" font-family="Times,serif" font-size="14.00">read</text>
</g>
<!-- 1_fwatchdog#ServerID_5f846fd567&#45;g8dn6 -->
<g id="node10" class="node"><title>1_fwatchdog#ServerID_5f846fd567&#45;g8dn6</title>
<polygon fill="none" stroke="black" points="3131,-442 2807,-442 2807,-406 3131,-406 3131,-442"/>
<text text-anchor="middle" x="2969" y="-420.3" font-family="Times,serif" font-size="14.00">1_fwatchdog#ServerID_5f846fd567&#45;g8dn6</text>
</g>
<!-- 10.1.80.93:56236#ServerID_OuterContainerID -->
<g id="node11" class="node"><title>10.1.80.93:56236#ServerID_OuterContainerID</title>
<polygon fill="none" stroke="black" points="2969,-334 2641.56,-316 2969,-298 3296.44,-316 2969,-334"/>
<text text-anchor="middle" x="2969" y="-312.3" font-family="Times,serif" font-size="14.00">10.1.80.93:56236#ServerID_OuterContainerID</text>
</g>
<!-- 1_fwatchdog#ServerID_5f846fd567&#45;g8dn6&#45;&gt;10.1.80.93:56236#ServerID_OuterContainerID -->
<g id="edge8" class="edge"><title>1_fwatchdog#ServerID_5f846fd567&#45;g8dn6&#45;&gt;10.1.80.93:56236#ServerID_OuterContainerID</title>
<path fill="none" stroke="black" d="M2932.59,-405.979C2925.93,-401.142 2919.87,-395.186 2916,-388 2912.84,-382.129 2913.53,-379.194 2916,-373 2921.04,-360.341 2930.45,-348.895 2939.96,-339.7"/>
<polygon fill="black" stroke="black" points="2942.48,-342.142 2947.53,-332.827 2937.77,-336.96 2942.48,-342.142"/>
<text text-anchor="middle" x="2958" y="-376.8" font-family="Times,serif" font-size="14.00">RESPONSE</text>
</g>
<!-- 10.1.80.93:56236#ServerID_OuterContainerID&#45;&gt;1_fwatchdog#ServerID_5f846fd567&#45;g8dn6 -->
<g id="edge9" class="edge"><title>10.1.80.93:56236#ServerID_OuterContainerID&#45;&gt;1_fwatchdog#ServerID_5f846fd567&#45;g8dn6</title>
<path fill="none" stroke="black" d="M2984,-333.451C2995.12,-347.72 3007.2,-369.01 3000,-388 2998.72,-391.366 2996.96,-394.615 2994.91,-397.689"/>
<polygon fill="black" stroke="black" points="2991.96,-395.789 2988.58,-405.831 2997.48,-400.087 2991.96,-395.789"/>
<text text-anchor="middle" x="3023" y="-376.8" font-family="Times,serif" font-size="14.00">POST</text>
</g>
<!-- 1_fwatchdog#ServerID_7cf8268e6ab5 -->
<g id="node13" class="node"><title>1_fwatchdog#ServerID_7cf8268e6ab5</title>
<polygon fill="none" stroke="black" points="3750,-226 3456,-226 3456,-190 3750,-190 3750,-226"/>
<text text-anchor="middle" x="3603" y="-204.3" font-family="Times,serif" font-size="14.00">1_fwatchdog#ServerID_7cf8268e6ab5</text>
</g>
<!-- 10.1.80.93:56236#ServerID_OuterContainerID&#45;&gt;1_fwatchdog#ServerID_7cf8268e6ab5 -->
<g id="edge18" class="edge"><title>10.1.80.93:56236#ServerID_OuterContainerID&#45;&gt;1_fwatchdog#ServerID_7cf8268e6ab5</title>
<path fill="none" stroke="black" d="M3045.79,-302.161C3156.85,-283.593 3362.99,-249.128 3491.01,-227.724"/>
<polygon fill="black" stroke="black" points="3491.95,-231.116 3501.23,-226.014 3490.79,-224.211 3491.95,-231.116"/>
<text text-anchor="middle" x="3283.5" y="-268.8" font-family="Times,serif" font-size="14.00">read</text>
</g>
<!-- 10.152.183.10:53#ServerID_OuterContainerID&#45;&gt;13_node#ServerID_2347d2f455dd -->
<g id="edge14" class="edge"><title>10.152.183.10:53#ServerID_OuterContainerID&#45;&gt;13_node#ServerID_2347d2f455dd</title>
<path fill="none" stroke="black" d="M2248.07,-331.363C2194.23,-346.813 2104.98,-371.394 2027,-388 2000.13,-393.722 1993.08,-393.38 1966,-398 1954.42,-399.976 1942.3,-402.075 1930.25,-404.184"/>
<polygon fill="black" stroke="black" points="1929.4,-400.779 1920.16,-405.955 1930.61,-407.674 1929.4,-400.779"/>
<text text-anchor="middle" x="2120" y="-376.8" font-family="Times,serif" font-size="14.00">recvfrom</text>
</g>
<!-- localhost:3000#ServerID_7cf8268e6ab5 -->
<g id="node14" class="node"><title>localhost:3000#ServerID_7cf8268e6ab5</title>
<polygon fill="none" stroke="black" points="3603,-139 3319.8,-121 3603,-103 3886.2,-121 3603,-139"/>
<text text-anchor="middle" x="3603" y="-117.3" font-family="Times,serif" font-size="14.00">localhost:3000#ServerID_7cf8268e6ab5</text>
</g>
<!-- 1_fwatchdog#ServerID_7cf8268e6ab5&#45;&gt;localhost:3000#ServerID_7cf8268e6ab5 -->
<g id="edge16" class="edge"><title>1_fwatchdog#ServerID_7cf8268e6ab5&#45;&gt;localhost:3000#ServerID_7cf8268e6ab5</title>
<path fill="none" stroke="black" d="M3583.42,-189.764C3575.33,-180.482 3568.72,-168.583 3573,-157 3574.4,-153.224 3576.4,-149.58 3578.73,-146.162"/>
<polygon fill="black" stroke="black" points="3581.56,-148.214 3584.98,-138.186 3576.06,-143.893 3581.56,-148.214"/>
<text text-anchor="middle" x="3592" y="-160.8" font-family="Times,serif" font-size="14.00">write</text>
</g>
<!-- pipe:[7845976]#ServerID_7cf8268e6ab5 -->
<g id="node15" class="node"><title>pipe:[7845976]#ServerID_7cf8268e6ab5</title>
<ellipse fill="none" stroke="black" cx="4106" cy="-121" rx="202.264" ry="18"/>
<text text-anchor="middle" x="4106" y="-117.3" font-family="Times,serif" font-size="14.00">pipe:[7845976]#ServerID_7cf8268e6ab5</text>
</g>
<!-- 1_fwatchdog#ServerID_7cf8268e6ab5&#45;&gt;pipe:[7845976]#ServerID_7cf8268e6ab5 -->
<g id="edge17" class="edge"><title>1_fwatchdog#ServerID_7cf8268e6ab5&#45;&gt;pipe:[7845976]#ServerID_7cf8268e6ab5</title>
<path fill="none" stroke="black" d="M3703.88,-189.952C3791.84,-175.089 3918.7,-153.652 4006.3,-138.848"/>
<polygon fill="black" stroke="black" points="4006.97,-142.284 4016.25,-137.167 4005.8,-135.382 4006.97,-142.284"/>
<text text-anchor="middle" x="3903" y="-160.8" font-family="Times,serif" font-size="14.00">write</text>
</g>
<!-- localhost:3000#ServerID_7cf8268e6ab5&#45;&gt;1_fwatchdog#ServerID_7cf8268e6ab5 -->
<g id="edge20" class="edge"><title>localhost:3000#ServerID_7cf8268e6ab5&#45;&gt;1_fwatchdog#ServerID_7cf8268e6ab5</title>
<path fill="none" stroke="black" d="M3607.68,-138.958C3609.04,-144.646 3610.33,-151.054 3611,-157 3611.84,-164.481 3611.23,-172.553 3610.03,-179.982"/>
<polygon fill="black" stroke="black" points="3606.57,-179.438 3608.05,-189.929 3613.44,-180.805 3606.57,-179.438"/>
<text text-anchor="middle" x="3627.5" y="-160.8" font-family="Times,serif" font-size="14.00">read</text>
</g>
<!-- 13_node#ServerID_7cf8268e6ab5 -->
<g id="node16" class="node"><title>13_node#ServerID_7cf8268e6ab5</title>
<polygon fill="none" stroke="black" points="3734.5,-52 3471.5,-52 3471.5,-16 3734.5,-16 3734.5,-52"/>
<text text-anchor="middle" x="3603" y="-30.3" font-family="Times,serif" font-size="14.00">13_node#ServerID_7cf8268e6ab5</text>
</g>
<!-- localhost:3000#ServerID_7cf8268e6ab5&#45;&gt;13_node#ServerID_7cf8268e6ab5 -->
<g id="edge19" class="edge"><title>localhost:3000#ServerID_7cf8268e6ab5&#45;&gt;13_node#ServerID_7cf8268e6ab5</title>
<path fill="none" stroke="black" d="M3603,-102.799C3603,-91.1626 3603,-75.5479 3603,-62.2368"/>
<polygon fill="black" stroke="black" points="3606.5,-62.1754 3603,-52.1754 3599.5,-62.1755 3606.5,-62.1754"/>
<text text-anchor="middle" x="3619.5" y="-73.8" font-family="Times,serif" font-size="14.00">read</text>
</g>
<!-- 10.1.80.1:30173#ServerID_OuterContainerID&#45;&gt;10.1.80.93:8080#ServerID_OuterContainerID -->
<g id="edge21" class="edge"><title>10.1.80.1:30173#ServerID_OuterContainerID&#45;&gt;10.1.80.93:8080#ServerID_OuterContainerID</title>
<path fill="none" stroke="black" d="M450.608,-224.08C492.486,-240.649 563.482,-266.674 627,-280 691.163,-293.461 762.501,-301.745 825.88,-306.843"/>
<polygon fill="black" stroke="black" points="825.738,-310.343 835.981,-307.634 826.285,-303.364 825.738,-310.343"/>
<text text-anchor="middle" x="647" y="-268.8" font-family="Times,serif" font-size="14.00">POST</text>
</g>
<!-- 10.1.80.1:50057#ServerID_OuterContainerID&#45;&gt;10.1.80.93:8080#ServerID_OuterContainerID -->
<g id="edge24" class="edge"><title>10.1.80.1:50057#ServerID_OuterContainerID&#45;&gt;10.1.80.93:8080#ServerID_OuterContainerID</title>
<path fill="none" stroke="black" d="M1044.46,-224.562C1030.97,-234.329 1015.65,-248.242 1008,-265 1004.78,-272.06 1003.68,-280.284 1003.63,-288"/>
<polygon fill="black" stroke="black" points="1000.13,-288.218 1004.08,-298.048 1007.12,-287.899 1000.13,-288.218"/>
<text text-anchor="middle" x="1028" y="-268.8" font-family="Times,serif" font-size="14.00">POST</text>
</g>
</g>
</svg>
