<?xml version="1.0" encoding="UTF-8" standalone="no"?>
<!DOCTYPE svg PUBLIC "-//W3C//DTD SVG 1.1//EN"
 "http://www.w3.org/Graphics/SVG/1.1/DTD/svg11.dtd">
<!-- Generated by graphviz version 2.38.0 (20140413.2041)
 -->
<!-- Title: G Pages: 1 -->
<svg width="6683pt" height="1032pt"
 viewBox="0.00 0.00 6683.00 1032.00" xmlns="http://www.w3.org/2000/svg" xmlns:xlink="http://www.w3.org/1999/xlink">
<g id="graph0" class="graph" transform="scale(1 1) rotate(0) translate(4 1028)">
<title>G</title>
<polygon fill="white" stroke="none" points="-4,4 -4,-1028 6679,-1028 6679,4 -4,4"/>
<g id="clust1" class="cluster"><title>clusterServerID_34e86192c217</title>
<polygon fill="none" stroke="black" points="8,-638 8,-1016 1404,-1016 1404,-638 8,-638"/>
<text text-anchor="middle" x="706" y="-1000.8" font-family="Times,serif" font-size="14.00">clusterServerID_34e86192c217</text>
</g>
<g id="clust2" class="cluster"><title>clusterServerID_5f846fd567&#45;w7nbt</title>
<polygon fill="none" stroke="black" points="3555,-746 3555,-821 3895,-821 3895,-746 3555,-746"/>
<text text-anchor="middle" x="3725" y="-805.8" font-family="Times,serif" font-size="14.00">clusterServerID_5f846fd567&#45;w7nbt</text>
</g>
<g id="clust3" class="cluster"><title>clusterServerID_6df85d7674&#45;2kqrj</title>
<polygon fill="none" stroke="black" points="6329,-530 6329,-605 6667,-605 6667,-530 6329,-530"/>
<text text-anchor="middle" x="6498" y="-589.8" font-family="Times,serif" font-size="14.00">clusterServerID_6df85d7674&#45;2kqrj</text>
</g>
<g id="clust4" class="cluster"><title>clusterServerID_OuterContainerID</title>
<polygon fill="none" stroke="black" points="1412,-530 1412,-713 4758,-713 4758,-530 1412,-530"/>
<text text-anchor="middle" x="3085" y="-697.8" font-family="Times,serif" font-size="14.00">clusterServerID_OuterContainerID</text>
</g>
<g id="clust5" class="cluster"><title>clusterServerID_e56b6537e2d5</title>
<polygon fill="none" stroke="black" points="4766,-8 4766,-605 6321,-605 6321,-8 4766,-8"/>
<text text-anchor="middle" x="5543.5" y="-589.8" font-family="Times,serif" font-size="14.00">clusterServerID_e56b6537e2d5</text>
</g>
<!-- 10.1.80.247:48072#ServerID_OuterContainerID -->
<g id="node1" class="node"><title>10.1.80.247:48072#ServerID_OuterContainerID</title>
<polygon fill="none" stroke="black" points="3726,-682 3390.52,-664 3726,-646 4061.48,-664 3726,-682"/>
<text text-anchor="middle" x="3726" y="-660.3" font-family="Times,serif" font-size="14.00">10.1.80.247:48072#ServerID_OuterContainerID</text>
</g>
<!-- 1_fwatchdog#ServerID_5f846fd567&#45;w7nbt -->
<g id="node2" class="node"><title>1_fwatchdog#ServerID_5f846fd567&#45;w7nbt</title>
<polygon fill="none" stroke="black" points="3887,-790 3563,-790 3563,-754 3887,-754 3887,-790"/>
<text text-anchor="middle" x="3725" y="-768.3" font-family="Times,serif" font-size="14.00">1_fwatchdog#ServerID_5f846fd567&#45;w7nbt</text>
</g>
<!-- 10.1.80.247:48072#ServerID_OuterContainerID&#45;&gt;1_fwatchdog#ServerID_5f846fd567&#45;w7nbt -->
<g id="edge1" class="edge"><title>10.1.80.247:48072#ServerID_OuterContainerID&#45;&gt;1_fwatchdog#ServerID_5f846fd567&#45;w7nbt</title>
<path fill="none" stroke="black" d="M3741.08,-681.48C3752.24,-695.767 3764.35,-717.067 3757,-736 3755.64,-739.507 3753.74,-742.876 3751.55,-746.046"/>
<polygon fill="black" stroke="black" points="3748.75,-743.944 3745.2,-753.928 3754.2,-748.335 3748.75,-743.944"/>
<text text-anchor="middle" x="3780" y="-724.8" font-family="Times,serif" font-size="14.00">POST</text>
</g>
<!-- 1_fwatchdog#ServerID_e56b6537e2d5 -->
<g id="node14" class="node"><title>1_fwatchdog#ServerID_e56b6537e2d5</title>
<polygon fill="none" stroke="black" points="5410.5,-574 5111.5,-574 5111.5,-538 5410.5,-538 5410.5,-574"/>
<text text-anchor="middle" x="5261" y="-552.3" font-family="Times,serif" font-size="14.00">1_fwatchdog#ServerID_e56b6537e2d5</text>
</g>
<!-- 10.1.80.247:48072#ServerID_OuterContainerID&#45;&gt;1_fwatchdog#ServerID_e56b6537e2d5 -->
<g id="edge18" class="edge"><title>10.1.80.247:48072#ServerID_OuterContainerID&#45;&gt;1_fwatchdog#ServerID_e56b6537e2d5</title>
<path fill="none" stroke="black" d="M3854.97,-652.898C3919.77,-648.015 3999.52,-642.296 4071,-638 4377.91,-619.555 4455.33,-627.059 4762,-605 4875.61,-596.827 5003.48,-584.465 5101.34,-574.333"/>
<polygon fill="black" stroke="black" points="5101.73,-577.812 5111.31,-573.298 5101,-570.849 5101.73,-577.812"/>
<text text-anchor="middle" x="4647.5" y="-616.8" font-family="Times,serif" font-size="14.00">read</text>
</g>
<!-- 1_fwatchdog#ServerID_5f846fd567&#45;w7nbt&#45;&gt;10.1.80.247:48072#ServerID_OuterContainerID -->
<g id="edge8" class="edge"><title>1_fwatchdog#ServerID_5f846fd567&#45;w7nbt&#45;&gt;10.1.80.247:48072#ServerID_OuterContainerID</title>
<path fill="none" stroke="black" d="M3686.07,-753.889C3673.19,-745.513 3663.4,-734.341 3669,-721 3674.43,-708.053 3684.47,-696.591 3694.64,-687.463"/>
<polygon fill="black" stroke="black" points="3696.97,-690.075 3702.36,-680.952 3692.46,-684.724 3696.97,-690.075"/>
<text text-anchor="middle" x="3711" y="-724.8" font-family="Times,serif" font-size="14.00">RESPONSE</text>
</g>
<!-- 10.1.80.247:46082#ServerID_OuterContainerID -->
<g id="node3" class="node"><title>10.1.80.247:46082#ServerID_OuterContainerID</title>
<polygon fill="none" stroke="black" points="4415,-682 4079.52,-664 4415,-646 4750.48,-664 4415,-682"/>
<text text-anchor="middle" x="4415" y="-660.3" font-family="Times,serif" font-size="14.00">10.1.80.247:46082#ServerID_OuterContainerID</text>
</g>
<!-- 1_fwatchdog#ServerID_6df85d7674&#45;2kqrj -->
<g id="node4" class="node"><title>1_fwatchdog#ServerID_6df85d7674&#45;2kqrj</title>
<polygon fill="none" stroke="black" points="6658.5,-574 6337.5,-574 6337.5,-538 6658.5,-538 6658.5,-574"/>
<text text-anchor="middle" x="6498" y="-552.3" font-family="Times,serif" font-size="14.00">1_fwatchdog#ServerID_6df85d7674&#45;2kqrj</text>
</g>
<!-- 10.1.80.247:46082#ServerID_OuterContainerID&#45;&gt;1_fwatchdog#ServerID_6df85d7674&#45;2kqrj -->
<g id="edge2" class="edge"><title>10.1.80.247:46082#ServerID_OuterContainerID&#45;&gt;1_fwatchdog#ServerID_6df85d7674&#45;2kqrj</title>
<path fill="none" stroke="black" d="M4602.57,-656.049C4888.94,-645.61 5452.39,-625.751 5931,-613 6018.54,-610.668 6238.35,-617.695 6325,-605 6363.88,-599.304 6406.41,-587.579 6439.58,-577.144"/>
<polygon fill="black" stroke="black" points="6440.65,-580.475 6449.11,-574.098 6438.52,-573.807 6440.65,-580.475"/>
<text text-anchor="middle" x="5951" y="-616.8" font-family="Times,serif" font-size="14.00">POST</text>
</g>
<!-- 1_fwatchdog#ServerID_34e86192c217 -->
<g id="node7" class="node"><title>1_fwatchdog#ServerID_34e86192c217</title>
<polygon fill="none" stroke="black" points="924.5,-985 625.5,-985 625.5,-949 924.5,-949 924.5,-985"/>
<text text-anchor="middle" x="775" y="-963.3" font-family="Times,serif" font-size="14.00">1_fwatchdog#ServerID_34e86192c217</text>
</g>
<!-- 10.1.80.247:46082#ServerID_OuterContainerID&#45;&gt;1_fwatchdog#ServerID_34e86192c217 -->
<g id="edge10" class="edge"><title>10.1.80.247:46082#ServerID_OuterContainerID&#45;&gt;1_fwatchdog#ServerID_34e86192c217</title>
<path fill="none" stroke="black" d="M4376.95,-680.072C4292.54,-712.705 4082.56,-789.494 3899,-821 3320.11,-920.362 1488.3,-955.343 934.881,-963.794"/>
<polygon fill="black" stroke="black" points="934.777,-960.295 924.831,-963.947 934.883,-967.294 934.777,-960.295"/>
<text text-anchor="middle" x="3847.5" y="-832.8" font-family="Times,serif" font-size="14.00">read</text>
</g>
<!-- 1_fwatchdog#ServerID_6df85d7674&#45;2kqrj&#45;&gt;10.1.80.247:46082#ServerID_OuterContainerID -->
<g id="edge6" class="edge"><title>1_fwatchdog#ServerID_6df85d7674&#45;2kqrj&#45;&gt;10.1.80.247:46082#ServerID_OuterContainerID</title>
<path fill="none" stroke="black" d="M6447.15,-574.087C6413.01,-584.817 6366.8,-597.922 6325,-605 6169.55,-631.327 6128.51,-621.115 5971,-628 5524.53,-647.517 5005.49,-656.424 4694,-660.285"/>
<polygon fill="black" stroke="black" points="4693.88,-656.786 4683.92,-660.409 4693.97,-663.785 4693.88,-656.786"/>
<text text-anchor="middle" x="6307" y="-616.8" font-family="Times,serif" font-size="14.00">RESPONSE</text>
</g>
<!-- 10.1.80.247:8080#ServerID_OuterContainerID -->
<g id="node5" class="node"><title>10.1.80.247:8080#ServerID_OuterContainerID</title>
<polygon fill="none" stroke="black" points="1747,-682 1419.56,-664 1747,-646 2074.44,-664 1747,-682"/>
<text text-anchor="middle" x="1747" y="-660.3" font-family="Times,serif" font-size="14.00">10.1.80.247:8080#ServerID_OuterContainerID</text>
</g>
<!-- 1_fwatchdog#ServerID_6df85d7674&#45;2kqrj&#45;&gt;10.1.80.247:8080#ServerID_OuterContainerID -->
<g id="edge7" class="edge"><title>1_fwatchdog#ServerID_6df85d7674&#45;2kqrj&#45;&gt;10.1.80.247:8080#ServerID_OuterContainerID</title>
<path fill="none" stroke="black" d="M6449.89,-574.099C6415.58,-585.363 6368.08,-599.085 6325,-605 6276.41,-611.671 2843.03,-612.083 2794,-613 2477.86,-618.915 2398.72,-620.71 2083,-638 2016.05,-641.666 1941.7,-647.061 1879.99,-651.902"/>
<polygon fill="black" stroke="black" points="1879.5,-648.429 1869.81,-652.704 1880.05,-655.408 1879.5,-648.429"/>
<text text-anchor="middle" x="2814" y="-616.8" font-family="Times,serif" font-size="14.00">POST</text>
</g>
<!-- gateway:8080#ServerID_OuterContainerID -->
<g id="node6" class="node"><title>gateway:8080#ServerID_OuterContainerID</title>
<polygon fill="none" stroke="black" points="3068,-682 2763.52,-664 3068,-646 3372.48,-664 3068,-682"/>
<text text-anchor="middle" x="3068" y="-660.3" font-family="Times,serif" font-size="14.00">gateway:8080#ServerID_OuterContainerID</text>
</g>
<!-- 1_fwatchdog#ServerID_6df85d7674&#45;2kqrj&#45;&gt;gateway:8080#ServerID_OuterContainerID -->
<g id="edge4" class="edge"><title>1_fwatchdog#ServerID_6df85d7674&#45;2kqrj&#45;&gt;gateway:8080#ServerID_OuterContainerID</title>
<path fill="none" stroke="black" d="M6449.89,-574.086C6415.57,-585.344 6368.07,-599.063 6325,-605 6257.77,-614.265 3949.84,-611.194 3882,-613 3659.58,-618.921 3604.03,-623.613 3382,-638 3320.35,-641.994 3251.97,-647.332 3194.8,-652.049"/>
<polygon fill="black" stroke="black" points="3194.3,-648.578 3184.62,-652.891 3194.88,-655.554 3194.3,-648.578"/>
<text text-anchor="middle" x="3902" y="-616.8" font-family="Times,serif" font-size="14.00">POST</text>
</g>
<!-- 10.1.80.247:8080#ServerID_OuterContainerID&#45;&gt;1_fwatchdog#ServerID_6df85d7674&#45;2kqrj -->
<g id="edge3" class="edge"><title>10.1.80.247:8080#ServerID_OuterContainerID&#45;&gt;1_fwatchdog#ServerID_6df85d7674&#45;2kqrj</title>
<path fill="none" stroke="black" d="M1865.07,-652.445C1929.44,-647.137 2010.54,-641.173 2083,-638 2418.26,-623.321 2502.47,-634.34 2838,-628 3109.59,-622.868 3177.39,-616.711 3449,-613 3528.88,-611.908 6245.86,-615.888 6325,-605 6364.21,-599.606 6407.08,-587.756 6440.33,-577.18"/>
<polygon fill="black" stroke="black" points="6441.45,-580.498 6449.89,-574.093 6439.3,-573.837 6441.45,-580.498"/>
<text text-anchor="middle" x="3491" y="-616.8" font-family="Times,serif" font-size="14.00">RESPONSE</text>
</g>
<!-- 10.1.80.1:44701#ServerID_OuterContainerID -->
<g id="node26" class="node"><title>10.1.80.1:44701#ServerID_OuterContainerID</title>
<polygon fill="none" stroke="black" points="1739,-574 1420.1,-556 1739,-538 2057.9,-556 1739,-574"/>
<text text-anchor="middle" x="1739" y="-552.3" font-family="Times,serif" font-size="14.00">10.1.80.1:44701#ServerID_OuterContainerID</text>
</g>
<!-- 10.1.80.247:8080#ServerID_OuterContainerID&#45;&gt;10.1.80.1:44701#ServerID_OuterContainerID -->
<g id="edge33" class="edge"><title>10.1.80.247:8080#ServerID_OuterContainerID&#45;&gt;10.1.80.1:44701#ServerID_OuterContainerID</title>
<path fill="none" stroke="black" d="M1710.24,-647.99C1702.17,-642.888 1694.65,-636.31 1690,-628 1680.54,-611.082 1693.17,-593.121 1707.97,-579.497"/>
<polygon fill="black" stroke="black" points="1710.48,-581.956 1715.81,-572.796 1705.93,-576.636 1710.48,-581.956"/>
<text text-anchor="middle" x="1732" y="-616.8" font-family="Times,serif" font-size="14.00">RESPONSE</text>
</g>
<!-- 10.0.88.125:31112#ServerID_OuterContainerID -->
<g id="node27" class="node"><title>10.0.88.125:31112#ServerID_OuterContainerID</title>
<polygon fill="none" stroke="black" points="2411,-574 2075.52,-556 2411,-538 2746.48,-556 2411,-574"/>
<text text-anchor="middle" x="2411" y="-552.3" font-family="Times,serif" font-size="14.00">10.0.88.125:31112#ServerID_OuterContainerID</text>
</g>
<!-- 10.1.80.247:8080#ServerID_OuterContainerID&#45;&gt;10.0.88.125:31112#ServerID_OuterContainerID -->
<g id="edge35" class="edge"><title>10.1.80.247:8080#ServerID_OuterContainerID&#45;&gt;10.0.88.125:31112#ServerID_OuterContainerID</title>
<path fill="none" stroke="black" d="M1826.43,-650.319C1950.82,-630.463 2190.79,-592.154 2321.25,-571.328"/>
<polygon fill="black" stroke="black" points="2321.89,-574.769 2331.22,-569.737 2320.79,-567.857 2321.89,-574.769"/>
<text text-anchor="middle" x="2102" y="-616.8" font-family="Times,serif" font-size="14.00">RESPONSE</text>
</g>
<!-- gateway:8080#ServerID_OuterContainerID&#45;&gt;1_fwatchdog#ServerID_6df85d7674&#45;2kqrj -->
<g id="edge5" class="edge"><title>gateway:8080#ServerID_OuterContainerID&#45;&gt;1_fwatchdog#ServerID_6df85d7674&#45;2kqrj</title>
<path fill="none" stroke="black" d="M3178.7,-652.531C3238.79,-647.265 3314.41,-641.314 3382,-638 3621.75,-626.247 3682.13,-637.084 3922,-628 4038.55,-623.586 4067.42,-616.553 4184,-613 4243.45,-611.189 6266.09,-613.134 6325,-605 6364.2,-599.588 6407.07,-587.737 6440.33,-577.166"/>
<polygon fill="black" stroke="black" points="6441.45,-580.484 6449.89,-574.08 6439.29,-573.822 6441.45,-580.484"/>
<text text-anchor="middle" x="4226" y="-616.8" font-family="Times,serif" font-size="14.00">RESPONSE</text>
</g>
<!-- localhost:3000#ServerID_34e86192c217 -->
<g id="node8" class="node"><title>localhost:3000#ServerID_34e86192c217</title>
<polygon fill="none" stroke="black" points="303,-898 16.4457,-880 303,-862 589.554,-880 303,-898"/>
<text text-anchor="middle" x="303" y="-876.3" font-family="Times,serif" font-size="14.00">localhost:3000#ServerID_34e86192c217</text>
</g>
<!-- 1_fwatchdog#ServerID_34e86192c217&#45;&gt;localhost:3000#ServerID_34e86192c217 -->
<g id="edge9" class="edge"><title>1_fwatchdog#ServerID_34e86192c217&#45;&gt;localhost:3000#ServerID_34e86192c217</title>
<path fill="none" stroke="black" d="M680.335,-948.952C593.274,-933.274 465.587,-910.28 383.371,-895.474"/>
<polygon fill="black" stroke="black" points="383.789,-891.993 373.327,-893.665 382.548,-898.882 383.789,-891.993"/>
<text text-anchor="middle" x="587" y="-919.8" font-family="Times,serif" font-size="14.00">write</text>
</g>
<!-- 10_node#ServerID_34e86192c217 -->
<g id="node9" class="node"><title>10_node#ServerID_34e86192c217</title>
<polygon fill="none" stroke="black" points="1349.5,-790 1082.5,-790 1082.5,-754 1349.5,-754 1349.5,-790"/>
<text text-anchor="middle" x="1216" y="-768.3" font-family="Times,serif" font-size="14.00">10_node#ServerID_34e86192c217</text>
</g>
<!-- localhost:3000#ServerID_34e86192c217&#45;&gt;10_node#ServerID_34e86192c217 -->
<g id="edge11" class="edge"><title>localhost:3000#ServerID_34e86192c217&#45;&gt;10_node#ServerID_34e86192c217</title>
<path fill="none" stroke="black" d="M398.123,-867.956C558.531,-849.333 883.724,-811.578 1072.15,-789.702"/>
<polygon fill="black" stroke="black" points="1072.6,-793.173 1082.13,-788.543 1071.79,-786.219 1072.6,-793.173"/>
<text text-anchor="middle" x="749.5" y="-832.8" font-family="Times,serif" font-size="14.00">read</text>
</g>
<!-- 10_node#ServerID_34e86192c217&#45;&gt;gateway:8080#ServerID_OuterContainerID -->
<g id="edge17" class="edge"><title>10_node#ServerID_34e86192c217&#45;&gt;gateway:8080#ServerID_OuterContainerID</title>
<path fill="none" stroke="black" d="M1349.63,-771.102C1617.08,-770.172 2236.96,-762.32 2755,-713 2835,-705.383 2925.69,-690.814 2988.78,-679.716"/>
<polygon fill="black" stroke="black" points="2989.43,-683.156 2998.67,-677.967 2988.21,-676.264 2989.43,-683.156"/>
<text text-anchor="middle" x="2660" y="-724.8" font-family="Times,serif" font-size="14.00">connect</text>
</g>
<!-- pipe:[331683264]#ServerID_34e86192c217 -->
<g id="node10" class="node"><title>pipe:[331683264]#ServerID_34e86192c217</title>
<ellipse fill="none" stroke="black" cx="1179" cy="-664" rx="217.162" ry="18"/>
<text text-anchor="middle" x="1179" y="-660.3" font-family="Times,serif" font-size="14.00">pipe:[331683264]#ServerID_34e86192c217</text>
</g>
<!-- 10_node#ServerID_34e86192c217&#45;&gt;pipe:[331683264]#ServerID_34e86192c217 -->
<g id="edge12" class="edge"><title>10_node#ServerID_34e86192c217&#45;&gt;pipe:[331683264]#ServerID_34e86192c217</title>
<path fill="none" stroke="black" d="M1210.06,-753.969C1204.21,-737.224 1195.2,-711.41 1188.39,-691.892"/>
<polygon fill="black" stroke="black" points="1191.65,-690.629 1185.05,-682.341 1185.04,-692.935 1191.65,-690.629"/>
<text text-anchor="middle" x="1222" y="-724.8" font-family="Times,serif" font-size="14.00">write</text>
</g>
<!-- 10.152.183.10:53#ServerID_OuterContainerID -->
<g id="node13" class="node"><title>10.152.183.10:53#ServerID_OuterContainerID</title>
<polygon fill="none" stroke="black" points="2419,-682 2091.56,-664 2419,-646 2746.44,-664 2419,-682"/>
<text text-anchor="middle" x="2419" y="-660.3" font-family="Times,serif" font-size="14.00">10.152.183.10:53#ServerID_OuterContainerID</text>
</g>
<!-- 10_node#ServerID_34e86192c217&#45;&gt;10.152.183.10:53#ServerID_OuterContainerID -->
<g id="edge15" class="edge"><title>10_node#ServerID_34e86192c217&#45;&gt;10.152.183.10:53#ServerID_OuterContainerID</title>
<path fill="none" stroke="black" d="M1349.53,-766.074C1482.38,-760.659 1691.98,-750.723 1873,-736 1966.58,-728.389 1989.85,-724.752 2083,-713 2165.58,-702.582 2259.32,-689.048 2326.77,-679.008"/>
<polygon fill="black" stroke="black" points="2327.57,-682.427 2336.94,-677.49 2326.53,-675.504 2327.57,-682.427"/>
<text text-anchor="middle" x="2043.5" y="-724.8" font-family="Times,serif" font-size="14.00">sendto</text>
</g>
<!-- /etc/hosts#ServerID_34e86192c217 -->
<g id="node11" class="node"><title>/etc/hosts#ServerID_34e86192c217</title>
<ellipse fill="none" stroke="black" cx="1216" cy="-880" rx="180.068" ry="18"/>
<text text-anchor="middle" x="1216" y="-876.3" font-family="Times,serif" font-size="14.00">/etc/hosts#ServerID_34e86192c217</text>
</g>
<!-- /etc/hosts#ServerID_34e86192c217&#45;&gt;10_node#ServerID_34e86192c217 -->
<g id="edge13" class="edge"><title>/etc/hosts#ServerID_34e86192c217&#45;&gt;10_node#ServerID_34e86192c217</title>
<path fill="none" stroke="black" d="M1216,-861.969C1216,-845.378 1216,-819.883 1216,-800.431"/>
<polygon fill="black" stroke="black" points="1219.5,-800.341 1216,-790.341 1212.5,-800.341 1219.5,-800.341"/>
<text text-anchor="middle" x="1232.5" y="-832.8" font-family="Times,serif" font-size="14.00">read</text>
</g>
<!-- /etc/resolv.conf#ServerID_34e86192c217 -->
<g id="node12" class="node"><title>/etc/resolv.conf#ServerID_34e86192c217</title>
<ellipse fill="none" stroke="black" cx="813" cy="-880" rx="205.264" ry="18"/>
<text text-anchor="middle" x="813" y="-876.3" font-family="Times,serif" font-size="14.00">/etc/resolv.conf#ServerID_34e86192c217</text>
</g>
<!-- /etc/resolv.conf#ServerID_34e86192c217&#45;&gt;10_node#ServerID_34e86192c217 -->
<g id="edge14" class="edge"><title>/etc/resolv.conf#ServerID_34e86192c217&#45;&gt;10_node#ServerID_34e86192c217</title>
<path fill="none" stroke="black" d="M874.646,-862.785C946.287,-843.942 1064.47,-812.857 1141.27,-792.656"/>
<polygon fill="black" stroke="black" points="1142.58,-795.931 1151.36,-790.003 1140.8,-789.162 1142.58,-795.931"/>
<text text-anchor="middle" x="1019.5" y="-832.8" font-family="Times,serif" font-size="14.00">read</text>
</g>
<!-- 10.152.183.10:53#ServerID_OuterContainerID&#45;&gt;10_node#ServerID_34e86192c217 -->
<g id="edge16" class="edge"><title>10.152.183.10:53#ServerID_OuterContainerID&#45;&gt;10_node#ServerID_34e86192c217</title>
<path fill="none" stroke="black" d="M2345.21,-677.998C2277.31,-689.371 2173.71,-705.25 2083,-713 1958.96,-723.598 1927.29,-713.936 1803,-721 1651.56,-729.606 1478.59,-745.021 1359.85,-756.468"/>
<polygon fill="black" stroke="black" points="1359.22,-753.012 1349.61,-757.458 1359.9,-759.979 1359.22,-753.012"/>
<text text-anchor="middle" x="1836" y="-724.8" font-family="Times,serif" font-size="14.00">recvfrom</text>
</g>
<!-- localhost:3000#ServerID_e56b6537e2d5 -->
<g id="node15" class="node"><title>localhost:3000#ServerID_e56b6537e2d5</title>
<polygon fill="none" stroke="black" points="5261,-487 4974.45,-469 5261,-451 5547.55,-469 5261,-487"/>
<text text-anchor="middle" x="5261" y="-465.3" font-family="Times,serif" font-size="14.00">localhost:3000#ServerID_e56b6537e2d5</text>
</g>
<!-- 1_fwatchdog#ServerID_e56b6537e2d5&#45;&gt;localhost:3000#ServerID_e56b6537e2d5 -->
<g id="edge19" class="edge"><title>1_fwatchdog#ServerID_e56b6537e2d5&#45;&gt;localhost:3000#ServerID_e56b6537e2d5</title>
<path fill="none" stroke="black" d="M5241.42,-537.764C5233.33,-528.482 5226.72,-516.583 5231,-505 5232.4,-501.224 5234.4,-497.58 5236.73,-494.162"/>
<polygon fill="black" stroke="black" points="5239.56,-496.214 5242.98,-486.186 5234.06,-491.893 5239.56,-496.214"/>
<text text-anchor="middle" x="5250" y="-508.8" font-family="Times,serif" font-size="14.00">write</text>
</g>
<!-- pipe:[331682317]#ServerID_e56b6537e2d5 -->
<g id="node25" class="node"><title>pipe:[331682317]#ServerID_e56b6537e2d5</title>
<ellipse fill="none" stroke="black" cx="5783" cy="-469" rx="217.162" ry="18"/>
<text text-anchor="middle" x="5783" y="-465.3" font-family="Times,serif" font-size="14.00">pipe:[331682317]#ServerID_e56b6537e2d5</text>
</g>
<!-- 1_fwatchdog#ServerID_e56b6537e2d5&#45;&gt;pipe:[331682317]#ServerID_e56b6537e2d5 -->
<g id="edge32" class="edge"><title>1_fwatchdog#ServerID_e56b6537e2d5&#45;&gt;pipe:[331682317]#ServerID_e56b6537e2d5</title>
<path fill="none" stroke="black" d="M5365.69,-537.952C5456.77,-523.121 5588.06,-501.743 5678.95,-486.943"/>
<polygon fill="black" stroke="black" points="5679.69,-490.368 5689,-485.307 5678.57,-483.459 5679.69,-490.368"/>
<text text-anchor="middle" x="5572" y="-508.8" font-family="Times,serif" font-size="14.00">write</text>
</g>
<!-- localhost:3000#ServerID_e56b6537e2d5&#45;&gt;1_fwatchdog#ServerID_e56b6537e2d5 -->
<g id="edge31" class="edge"><title>localhost:3000#ServerID_e56b6537e2d5&#45;&gt;1_fwatchdog#ServerID_e56b6537e2d5</title>
<path fill="none" stroke="black" d="M5266.05,-487.071C5268.32,-496.709 5270.24,-508.993 5269,-520 5268.71,-522.547 5268.31,-525.179 5267.84,-527.803"/>
<polygon fill="black" stroke="black" points="5264.39,-527.18 5265.77,-537.686 5271.25,-528.617 5264.39,-527.18"/>
<text text-anchor="middle" x="5285.5" y="-508.8" font-family="Times,serif" font-size="14.00">read</text>
</g>
<!-- 12_node#ServerID_e56b6537e2d5 -->
<g id="node16" class="node"><title>12_node#ServerID_e56b6537e2d5</title>
<polygon fill="none" stroke="black" points="5595.5,-400 5328.5,-400 5328.5,-364 5595.5,-364 5595.5,-400"/>
<text text-anchor="middle" x="5462" y="-378.3" font-family="Times,serif" font-size="14.00">12_node#ServerID_e56b6537e2d5</text>
</g>
<!-- localhost:3000#ServerID_e56b6537e2d5&#45;&gt;12_node#ServerID_e56b6537e2d5 -->
<g id="edge20" class="edge"><title>localhost:3000#ServerID_e56b6537e2d5&#45;&gt;12_node#ServerID_e56b6537e2d5</title>
<path fill="none" stroke="black" d="M5296.01,-453.194C5328.12,-439.615 5376.03,-419.355 5412.14,-404.086"/>
<polygon fill="black" stroke="black" points="5413.67,-407.24 5421.51,-400.121 5410.94,-400.792 5413.67,-407.24"/>
<text text-anchor="middle" x="5389.5" y="-421.8" font-family="Times,serif" font-size="14.00">read</text>
</g>
<!-- pipe:[331682415]#ServerID_e56b6537e2d5 -->
<g id="node17" class="node"><title>pipe:[331682415]#ServerID_e56b6537e2d5</title>
<ellipse fill="none" stroke="black" cx="4991" cy="-295" rx="217.162" ry="18"/>
<text text-anchor="middle" x="4991" y="-291.3" font-family="Times,serif" font-size="14.00">pipe:[331682415]#ServerID_e56b6537e2d5</text>
</g>
<!-- 12_node#ServerID_e56b6537e2d5&#45;&gt;pipe:[331682415]#ServerID_e56b6537e2d5 -->
<g id="edge21" class="edge"><title>12_node#ServerID_e56b6537e2d5&#45;&gt;pipe:[331682415]#ServerID_e56b6537e2d5</title>
<path fill="none" stroke="black" d="M5367.54,-363.952C5286.2,-349.274 5169.34,-328.184 5087.43,-313.403"/>
<polygon fill="black" stroke="black" points="5087.84,-309.919 5077.37,-311.588 5086.59,-316.808 5087.84,-309.919"/>
<text text-anchor="middle" x="5273" y="-334.8" font-family="Times,serif" font-size="14.00">write</text>
</g>
<!-- /dev/null#ServerID_e56b6537e2d5 -->
<g id="node18" class="node"><title>/dev/null#ServerID_e56b6537e2d5</title>
<ellipse fill="none" stroke="black" cx="5401" cy="-295" rx="174.669" ry="18"/>
<text text-anchor="middle" x="5401" y="-291.3" font-family="Times,serif" font-size="14.00">/dev/null#ServerID_e56b6537e2d5</text>
</g>
<!-- 12_node#ServerID_e56b6537e2d5&#45;&gt;/dev/null#ServerID_e56b6537e2d5 -->
<g id="edge30" class="edge"><title>12_node#ServerID_e56b6537e2d5&#45;&gt;/dev/null#ServerID_e56b6537e2d5</title>
<path fill="none" stroke="black" d="M5415.93,-363.872C5408.77,-359.174 5402.33,-353.299 5398,-346 5394.04,-339.315 5393.21,-331.203 5393.8,-323.476"/>
<polygon fill="black" stroke="black" points="5397.3,-323.76 5395.35,-313.347 5390.38,-322.707 5397.3,-323.76"/>
<text text-anchor="middle" x="5417" y="-334.8" font-family="Times,serif" font-size="14.00">write</text>
</g>
<!-- pipe:[331683435]#ServerID_e56b6537e2d5 -->
<g id="node19" class="node"><title>pipe:[331683435]#ServerID_e56b6537e2d5</title>
<ellipse fill="none" stroke="black" cx="6096" cy="-295" rx="217.162" ry="18"/>
<text text-anchor="middle" x="6096" y="-291.3" font-family="Times,serif" font-size="14.00">pipe:[331683435]#ServerID_e56b6537e2d5</text>
</g>
<!-- 12_node#ServerID_e56b6537e2d5&#45;&gt;pipe:[331683435]#ServerID_e56b6537e2d5 -->
<g id="edge23" class="edge"><title>12_node#ServerID_e56b6537e2d5&#45;&gt;pipe:[331683435]#ServerID_e56b6537e2d5</title>
<path fill="none" stroke="black" d="M5589.16,-363.952C5702.2,-348.796 5866.25,-326.802 5976.82,-311.979"/>
<polygon fill="black" stroke="black" points="5977.56,-315.41 5987.01,-310.612 5976.63,-308.472 5977.56,-315.41"/>
<text text-anchor="middle" x="5835" y="-334.8" font-family="Times,serif" font-size="14.00">write</text>
</g>
<!-- 27_node#ServerID_e56b6537e2d5 -->
<g id="node23" class="node"><title>27_node#ServerID_e56b6537e2d5</title>
<polygon fill="none" stroke="black" points="5860.5,-313 5593.5,-313 5593.5,-277 5860.5,-277 5860.5,-313"/>
<text text-anchor="middle" x="5727" y="-291.3" font-family="Times,serif" font-size="14.00">27_node#ServerID_e56b6537e2d5</text>
</g>
<!-- 12_node#ServerID_e56b6537e2d5&#45;&gt;27_node#ServerID_e56b6537e2d5 -->
<g id="edge27" class="edge"><title>12_node#ServerID_e56b6537e2d5&#45;&gt;27_node#ServerID_e56b6537e2d5</title>
<path fill="none" stroke="black" d="M5515.31,-363.901C5558.25,-350.126 5618.73,-330.727 5664.06,-316.189"/>
<polygon fill="black" stroke="black" points="5665.32,-319.459 5673.78,-313.071 5663.19,-312.793 5665.32,-319.459"/>
<text text-anchor="middle" x="5625" y="-334.8" font-family="Times,serif" font-size="14.00">fork</text>
</g>
<!-- /dev/null#ServerID_e56b6537e2d5&#45;&gt;12_node#ServerID_e56b6537e2d5 -->
<g id="edge22" class="edge"><title>/dev/null#ServerID_e56b6537e2d5&#45;&gt;12_node#ServerID_e56b6537e2d5</title>
<path fill="none" stroke="black" d="M5423.27,-313.06C5429.23,-318.355 5435.3,-324.517 5440,-331 5445.14,-338.098 5449.44,-346.588 5452.83,-354.539"/>
<polygon fill="black" stroke="black" points="5449.58,-355.833 5456.51,-363.842 5456.09,-353.256 5449.58,-355.833"/>
<text text-anchor="middle" x="5464.5" y="-334.8" font-family="Times,serif" font-size="14.00">read</text>
</g>
<!-- pipe:[331683435]#ServerID_e56b6537e2d5&#45;&gt;12_node#ServerID_e56b6537e2d5 -->
<g id="edge26" class="edge"><title>pipe:[331683435]#ServerID_e56b6537e2d5&#45;&gt;12_node#ServerID_e56b6537e2d5</title>
<path fill="none" stroke="black" d="M6029.44,-312.199C5981.93,-323.218 5916.36,-337.322 5858,-346 5774.86,-358.362 5681.21,-366.883 5605.86,-372.42"/>
<polygon fill="black" stroke="black" points="5605.54,-368.934 5595.82,-373.148 5606.05,-375.915 5605.54,-368.934"/>
<text text-anchor="middle" x="5953.5" y="-334.8" font-family="Times,serif" font-size="14.00">read</text>
</g>
<!-- 28_sh#ServerID_e56b6537e2d5 -->
<g id="node20" class="node"><title>28_sh#ServerID_e56b6537e2d5</title>
<polygon fill="none" stroke="black" points="5750.5,-139 5501.5,-139 5501.5,-103 5750.5,-103 5750.5,-139"/>
<text text-anchor="middle" x="5626" y="-117.3" font-family="Times,serif" font-size="14.00">28_sh#ServerID_e56b6537e2d5</text>
</g>
<!-- 28_touch#ServerID_e56b6537e2d5 -->
<g id="node21" class="node"><title>28_touch#ServerID_e56b6537e2d5</title>
<polygon fill="none" stroke="black" points="5762.5,-52 5489.5,-52 5489.5,-16 5762.5,-16 5762.5,-52"/>
<text text-anchor="middle" x="5626" y="-30.3" font-family="Times,serif" font-size="14.00">28_touch#ServerID_e56b6537e2d5</text>
</g>
<!-- 28_sh#ServerID_e56b6537e2d5&#45;&gt;28_touch#ServerID_e56b6537e2d5 -->
<g id="edge24" class="edge"><title>28_sh#ServerID_e56b6537e2d5&#45;&gt;28_touch#ServerID_e56b6537e2d5</title>
<path fill="none" stroke="black" d="M5626,-102.799C5626,-91.1626 5626,-75.5479 5626,-62.2368"/>
<polygon fill="black" stroke="black" points="5629.5,-62.1754 5626,-52.1754 5622.5,-62.1755 5629.5,-62.1754"/>
<text text-anchor="middle" x="5651" y="-73.8" font-family="Times,serif" font-size="14.00">execve</text>
</g>
<!-- 27_sh#ServerID_e56b6537e2d5 -->
<g id="node22" class="node"><title>27_sh#ServerID_e56b6537e2d5</title>
<polygon fill="none" stroke="black" points="5851.5,-226 5602.5,-226 5602.5,-190 5851.5,-190 5851.5,-226"/>
<text text-anchor="middle" x="5727" y="-204.3" font-family="Times,serif" font-size="14.00">27_sh#ServerID_e56b6537e2d5</text>
</g>
<!-- 27_sh#ServerID_e56b6537e2d5&#45;&gt;28_sh#ServerID_e56b6537e2d5 -->
<g id="edge25" class="edge"><title>27_sh#ServerID_e56b6537e2d5&#45;&gt;28_sh#ServerID_e56b6537e2d5</title>
<path fill="none" stroke="black" d="M5706.56,-189.799C5691.5,-177.126 5670.84,-159.734 5654.21,-145.738"/>
<polygon fill="black" stroke="black" points="5656.31,-142.937 5646.41,-139.175 5651.81,-148.292 5656.31,-142.937"/>
<text text-anchor="middle" x="5697" y="-160.8" font-family="Times,serif" font-size="14.00">fork</text>
</g>
<!-- /home/app/3.txt#ServerID_e56b6537e2d5 -->
<g id="node24" class="node"><title>/home/app/3.txt#ServerID_e56b6537e2d5</title>
<ellipse fill="none" stroke="black" cx="5976" cy="-121" rx="207.963" ry="18"/>
<text text-anchor="middle" x="5976" y="-117.3" font-family="Times,serif" font-size="14.00">/home/app/3.txt#ServerID_e56b6537e2d5</text>
</g>
<!-- 27_sh#ServerID_e56b6537e2d5&#45;&gt;/home/app/3.txt#ServerID_e56b6537e2d5 -->
<g id="edge28" class="edge"><title>27_sh#ServerID_e56b6537e2d5&#45;&gt;/home/app/3.txt#ServerID_e56b6537e2d5</title>
<path fill="none" stroke="black" d="M5777.09,-189.901C5817.67,-176.049 5874.91,-156.509 5917.57,-141.945"/>
<polygon fill="black" stroke="black" points="5918.93,-145.18 5927.26,-138.637 5916.67,-138.556 5918.93,-145.18"/>
<text text-anchor="middle" x="5885" y="-160.8" font-family="Times,serif" font-size="14.00">write</text>
</g>
<!-- 27_node#ServerID_e56b6537e2d5&#45;&gt;27_sh#ServerID_e56b6537e2d5 -->
<g id="edge29" class="edge"><title>27_node#ServerID_e56b6537e2d5&#45;&gt;27_sh#ServerID_e56b6537e2d5</title>
<path fill="none" stroke="black" d="M5727,-276.799C5727,-265.163 5727,-249.548 5727,-236.237"/>
<polygon fill="black" stroke="black" points="5730.5,-236.175 5727,-226.175 5723.5,-236.175 5730.5,-236.175"/>
<text text-anchor="middle" x="5752" y="-247.8" font-family="Times,serif" font-size="14.00">execve</text>
</g>
<!-- 10.1.80.1:44701#ServerID_OuterContainerID&#45;&gt;10.1.80.247:8080#ServerID_OuterContainerID -->
<g id="edge34" class="edge"><title>10.1.80.1:44701#ServerID_OuterContainerID&#45;&gt;10.1.80.247:8080#ServerID_OuterContainerID</title>
<path fill="none" stroke="black" d="M1752.74,-573.449C1760.65,-584.019 1769.83,-598.453 1774,-613 1775.84,-619.408 1776.15,-621.69 1774,-628 1772.79,-631.55 1771.06,-635.021 1769.05,-638.312"/>
<polygon fill="black" stroke="black" points="1766.15,-636.351 1763.24,-646.54 1771.87,-640.387 1766.15,-636.351"/>
<text text-anchor="middle" x="1796" y="-616.8" font-family="Times,serif" font-size="14.00">POST</text>
</g>
</g>
</svg>
