<?xml version="1.0" encoding="UTF-8" standalone="no"?>
<!DOCTYPE svg PUBLIC "-//W3C//DTD SVG 1.1//EN"
 "http://www.w3.org/Graphics/SVG/1.1/DTD/svg11.dtd">
<!-- Generated by graphviz version 2.38.0 (20140413.2041)
 -->
<!-- Title: G Pages: 1 -->
<svg width="5282pt" height="1032pt"
 viewBox="0.00 0.00 5282.00 1032.00" xmlns="http://www.w3.org/2000/svg" xmlns:xlink="http://www.w3.org/1999/xlink">
<g id="graph0" class="graph" transform="scale(1 1) rotate(0) translate(4 1028)">
<title>G</title>
<polygon fill="white" stroke="none" points="-4,4 -4,-1028 5278,-1028 5278,4 -4,4"/>
<g id="clust1" class="cluster"><title>clusterServerID_34e86192c217</title>
<polygon fill="none" stroke="black" points="3363,-638 3363,-1016 4759,-1016 4759,-638 3363,-638"/>
<text text-anchor="middle" x="4061" y="-1000.8" font-family="Times,serif" font-size="14.00">clusterServerID_34e86192c217</text>
</g>
<g id="clust2" class="cluster"><title>clusterServerID_5f846fd567&#45;w7nbt</title>
<polygon fill="none" stroke="black" points="3363,-530 3363,-605 3703,-605 3703,-530 3363,-530"/>
<text text-anchor="middle" x="3533" y="-589.8" font-family="Times,serif" font-size="14.00">clusterServerID_5f846fd567&#45;w7nbt</text>
</g>
<g id="clust3" class="cluster"><title>clusterServerID_6df85d7674&#45;2kqrj</title>
<polygon fill="none" stroke="black" points="799,-746 799,-821 1137,-821 1137,-746 799,-746"/>
<text text-anchor="middle" x="968" y="-805.8" font-family="Times,serif" font-size="14.00">clusterServerID_6df85d7674&#45;2kqrj</text>
</g>
<g id="clust4" class="cluster"><title>clusterServerID_OuterContainerID</title>
<polygon fill="none" stroke="black" points="8,-530 8,-713 3355,-713 3355,-530 8,-530"/>
<text text-anchor="middle" x="1681.5" y="-697.8" font-family="Times,serif" font-size="14.00">clusterServerID_OuterContainerID</text>
</g>
<g id="clust5" class="cluster"><title>clusterServerID_e56b6537e2d5</title>
<polygon fill="none" stroke="black" points="3711,-8 3711,-605 5266,-605 5266,-8 3711,-8"/>
<text text-anchor="middle" x="4488.5" y="-589.8" font-family="Times,serif" font-size="14.00">clusterServerID_e56b6537e2d5</text>
</g>
<!-- gateway:8080#ServerID_OuterContainerID -->
<g id="node1" class="node"><title>gateway:8080#ServerID_OuterContainerID</title>
<polygon fill="none" stroke="black" points="320,-682 15.5177,-664 320,-646 624.482,-664 320,-682"/>
<text text-anchor="middle" x="320" y="-660.3" font-family="Times,serif" font-size="14.00">gateway:8080#ServerID_OuterContainerID</text>
</g>
<!-- 1_fwatchdog#ServerID_6df85d7674&#45;2kqrj -->
<g id="node2" class="node"><title>1_fwatchdog#ServerID_6df85d7674&#45;2kqrj</title>
<polygon fill="none" stroke="black" points="1128.5,-790 807.5,-790 807.5,-754 1128.5,-754 1128.5,-790"/>
<text text-anchor="middle" x="968" y="-768.3" font-family="Times,serif" font-size="14.00">1_fwatchdog#ServerID_6df85d7674&#45;2kqrj</text>
</g>
<!-- gateway:8080#ServerID_OuterContainerID&#45;&gt;1_fwatchdog#ServerID_6df85d7674&#45;2kqrj -->
<g id="edge1" class="edge"><title>gateway:8080#ServerID_OuterContainerID&#45;&gt;1_fwatchdog#ServerID_6df85d7674&#45;2kqrj</title>
<path fill="none" stroke="black" d="M378.141,-678.648C446.308,-694.265 562.846,-719.771 664,-736 707.068,-742.91 753.781,-748.988 797.37,-754.056"/>
<polygon fill="black" stroke="black" points="797.161,-757.555 807.496,-755.222 797.962,-750.601 797.161,-757.555"/>
<text text-anchor="middle" x="706" y="-724.8" font-family="Times,serif" font-size="14.00">RESPONSE</text>
</g>
<!-- 1_fwatchdog#ServerID_6df85d7674&#45;2kqrj&#45;&gt;gateway:8080#ServerID_OuterContainerID -->
<g id="edge6" class="edge"><title>1_fwatchdog#ServerID_6df85d7674&#45;2kqrj&#45;&gt;gateway:8080#ServerID_OuterContainerID</title>
<path fill="none" stroke="black" d="M904.948,-753.952C861.226,-742.802 801.474,-728.889 748,-721 697.314,-713.523 683.92,-718.666 633,-713 554.167,-704.228 464.772,-690.097 401.761,-679.434"/>
<polygon fill="black" stroke="black" points="402.326,-675.98 391.881,-677.754 401.152,-682.881 402.326,-675.98"/>
<text text-anchor="middle" x="848" y="-724.8" font-family="Times,serif" font-size="14.00">POST</text>
</g>
<!-- 10.1.80.247:8080#ServerID_OuterContainerID -->
<g id="node5" class="node"><title>10.1.80.247:8080#ServerID_OuterContainerID</title>
<polygon fill="none" stroke="black" points="969,-682 641.56,-664 969,-646 1296.44,-664 969,-682"/>
<text text-anchor="middle" x="969" y="-660.3" font-family="Times,serif" font-size="14.00">10.1.80.247:8080#ServerID_OuterContainerID</text>
</g>
<!-- 1_fwatchdog#ServerID_6df85d7674&#45;2kqrj&#45;&gt;10.1.80.247:8080#ServerID_OuterContainerID -->
<g id="edge3" class="edge"><title>1_fwatchdog#ServerID_6df85d7674&#45;2kqrj&#45;&gt;10.1.80.247:8080#ServerID_OuterContainerID</title>
<path fill="none" stroke="black" d="M949.041,-753.736C944.557,-748.523 940.388,-742.455 938,-736 935.687,-729.747 936.333,-727.455 938,-721 940.752,-710.348 946.011,-699.56 951.427,-690.334"/>
<polygon fill="black" stroke="black" points="954.494,-692.03 956.809,-681.692 948.552,-688.33 954.494,-692.03"/>
<text text-anchor="middle" x="958" y="-724.8" font-family="Times,serif" font-size="14.00">POST</text>
</g>
<!-- 10.1.80.247:46082#ServerID_OuterContainerID -->
<g id="node6" class="node"><title>10.1.80.247:46082#ServerID_OuterContainerID</title>
<polygon fill="none" stroke="black" points="1650,-682 1314.52,-664 1650,-646 1985.48,-664 1650,-682"/>
<text text-anchor="middle" x="1650" y="-660.3" font-family="Times,serif" font-size="14.00">10.1.80.247:46082#ServerID_OuterContainerID</text>
</g>
<!-- 1_fwatchdog#ServerID_6df85d7674&#45;2kqrj&#45;&gt;10.1.80.247:46082#ServerID_OuterContainerID -->
<g id="edge8" class="edge"><title>1_fwatchdog#ServerID_6df85d7674&#45;2kqrj&#45;&gt;10.1.80.247:46082#ServerID_OuterContainerID</title>
<path fill="none" stroke="black" d="M1128.9,-759.927C1192.68,-754.403 1266.52,-746.59 1333,-736 1421.69,-721.873 1522.69,-697.851 1586.37,-681.709"/>
<polygon fill="black" stroke="black" points="1587.44,-685.049 1596.27,-679.189 1585.71,-678.266 1587.44,-685.049"/>
<text text-anchor="middle" x="1454" y="-724.8" font-family="Times,serif" font-size="14.00">RESPONSE</text>
</g>
<!-- 10.1.80.247:48072#ServerID_OuterContainerID -->
<g id="node3" class="node"><title>10.1.80.247:48072#ServerID_OuterContainerID</title>
<polygon fill="none" stroke="black" points="2339,-682 2003.52,-664 2339,-646 2674.48,-664 2339,-682"/>
<text text-anchor="middle" x="2339" y="-660.3" font-family="Times,serif" font-size="14.00">10.1.80.247:48072#ServerID_OuterContainerID</text>
</g>
<!-- 1_fwatchdog#ServerID_5f846fd567&#45;w7nbt -->
<g id="node4" class="node"><title>1_fwatchdog#ServerID_5f846fd567&#45;w7nbt</title>
<polygon fill="none" stroke="black" points="3695,-574 3371,-574 3371,-538 3695,-538 3695,-574"/>
<text text-anchor="middle" x="3533" y="-552.3" font-family="Times,serif" font-size="14.00">1_fwatchdog#ServerID_5f846fd567&#45;w7nbt</text>
</g>
<!-- 10.1.80.247:48072#ServerID_OuterContainerID&#45;&gt;1_fwatchdog#ServerID_5f846fd567&#45;w7nbt -->
<g id="edge2" class="edge"><title>10.1.80.247:48072#ServerID_OuterContainerID&#45;&gt;1_fwatchdog#ServerID_5f846fd567&#45;w7nbt</title>
<path fill="none" stroke="black" d="M2468.38,-652.924C2533.11,-648.061 2612.67,-642.353 2684,-638 2907.86,-624.339 2963.98,-623.796 3188,-613 3263.99,-609.338 3283.86,-616.968 3359,-605 3397.59,-598.854 3439.87,-587.307 3473.08,-577.079"/>
<polygon fill="black" stroke="black" points="3474.14,-580.416 3482.64,-574.095 3472.06,-573.734 3474.14,-580.416"/>
<text text-anchor="middle" x="3208" y="-616.8" font-family="Times,serif" font-size="14.00">POST</text>
</g>
<!-- 1_fwatchdog#ServerID_e56b6537e2d5 -->
<g id="node14" class="node"><title>1_fwatchdog#ServerID_e56b6537e2d5</title>
<polygon fill="none" stroke="black" points="4355.5,-574 4056.5,-574 4056.5,-538 4355.5,-538 4355.5,-574"/>
<text text-anchor="middle" x="4206" y="-552.3" font-family="Times,serif" font-size="14.00">1_fwatchdog#ServerID_e56b6537e2d5</text>
</g>
<!-- 10.1.80.247:48072#ServerID_OuterContainerID&#45;&gt;1_fwatchdog#ServerID_e56b6537e2d5 -->
<g id="edge17" class="edge"><title>10.1.80.247:48072#ServerID_OuterContainerID&#45;&gt;1_fwatchdog#ServerID_e56b6537e2d5</title>
<path fill="none" stroke="black" d="M2460.24,-652.471C2526.33,-647.171 2609.6,-641.205 2684,-638 3006.4,-624.11 3087.64,-642.687 3410,-628 3542.26,-621.974 3575.1,-616.45 3707,-605 3820.59,-595.14 3948.59,-582.802 4046.51,-573.104"/>
<polygon fill="black" stroke="black" points="4046.89,-576.584 4056.49,-572.114 4046.2,-569.618 4046.89,-576.584"/>
<text text-anchor="middle" x="3632.5" y="-616.8" font-family="Times,serif" font-size="14.00">read</text>
</g>
<!-- 1_fwatchdog#ServerID_5f846fd567&#45;w7nbt&#45;&gt;10.1.80.247:48072#ServerID_OuterContainerID -->
<g id="edge5" class="edge"><title>1_fwatchdog#ServerID_5f846fd567&#45;w7nbt&#45;&gt;10.1.80.247:48072#ServerID_OuterContainerID</title>
<path fill="none" stroke="black" d="M3479.45,-574.027C3419.1,-592.14 3317.7,-619.354 3228,-628 3107.65,-639.6 2804.78,-632.518 2684,-638 2613.67,-641.192 2535.41,-646.703 2471.23,-651.74"/>
<polygon fill="black" stroke="black" points="2470.74,-648.267 2461.05,-652.544 2471.3,-655.245 2470.74,-648.267"/>
<text text-anchor="middle" x="3364" y="-616.8" font-family="Times,serif" font-size="14.00">RESPONSE</text>
</g>
<!-- 10.1.80.247:8080#ServerID_OuterContainerID&#45;&gt;1_fwatchdog#ServerID_6df85d7674&#45;2kqrj -->
<g id="edge7" class="edge"><title>10.1.80.247:8080#ServerID_OuterContainerID&#45;&gt;1_fwatchdog#ServerID_6df85d7674&#45;2kqrj</title>
<path fill="none" stroke="black" d="M973.681,-681.944C977.051,-696.339 980.585,-717.543 978,-736 977.64,-738.574 977.137,-741.224 976.547,-743.859"/>
<polygon fill="black" stroke="black" points="973.102,-743.198 973.955,-753.759 979.874,-744.971 973.102,-743.198"/>
<text text-anchor="middle" x="1021" y="-724.8" font-family="Times,serif" font-size="14.00">RESPONSE</text>
</g>
<!-- 10.1.80.1:40215#ServerID_OuterContainerID -->
<g id="node26" class="node"><title>10.1.80.1:40215#ServerID_OuterContainerID</title>
<polygon fill="none" stroke="black" points="862,-574 543.105,-556 862,-538 1180.9,-556 862,-574"/>
<text text-anchor="middle" x="862" y="-552.3" font-family="Times,serif" font-size="14.00">10.1.80.1:40215#ServerID_OuterContainerID</text>
</g>
<!-- 10.1.80.247:8080#ServerID_OuterContainerID&#45;&gt;10.1.80.1:40215#ServerID_OuterContainerID -->
<g id="edge34" class="edge"><title>10.1.80.247:8080#ServerID_OuterContainerID&#45;&gt;10.1.80.1:40215#ServerID_OuterContainerID</title>
<path fill="none" stroke="black" d="M887.866,-650.444C876.568,-645.254 866.334,-638.03 859,-628 849.859,-615.498 850.404,-598.185 853.334,-583.786"/>
<polygon fill="black" stroke="black" points="856.769,-584.475 855.784,-573.926 849.975,-582.786 856.769,-584.475"/>
<text text-anchor="middle" x="901" y="-616.8" font-family="Times,serif" font-size="14.00">RESPONSE</text>
</g>
<!-- 10.0.88.125:31112#ServerID_OuterContainerID -->
<g id="node27" class="node"><title>10.0.88.125:31112#ServerID_OuterContainerID</title>
<polygon fill="none" stroke="black" points="1534,-574 1198.52,-556 1534,-538 1869.48,-556 1534,-574"/>
<text text-anchor="middle" x="1534" y="-552.3" font-family="Times,serif" font-size="14.00">10.0.88.125:31112#ServerID_OuterContainerID</text>
</g>
<!-- 10.1.80.247:8080#ServerID_OuterContainerID&#45;&gt;10.0.88.125:31112#ServerID_OuterContainerID -->
<g id="edge35" class="edge"><title>10.1.80.247:8080#ServerID_OuterContainerID&#45;&gt;10.0.88.125:31112#ServerID_OuterContainerID</title>
<path fill="none" stroke="black" d="M1039.13,-649.843C1144.31,-630.11 1342.37,-592.952 1453.37,-572.127"/>
<polygon fill="black" stroke="black" points="1454.32,-575.509 1463.51,-570.225 1453.03,-568.629 1454.32,-575.509"/>
<text text-anchor="middle" x="1277" y="-616.8" font-family="Times,serif" font-size="14.00">RESPONSE</text>
</g>
<!-- 10.1.80.247:46082#ServerID_OuterContainerID&#45;&gt;1_fwatchdog#ServerID_6df85d7674&#45;2kqrj -->
<g id="edge4" class="edge"><title>10.1.80.247:46082#ServerID_OuterContainerID&#45;&gt;1_fwatchdog#ServerID_6df85d7674&#45;2kqrj</title>
<path fill="none" stroke="black" d="M1568.52,-677.664C1449.12,-696.222 1225.87,-730.92 1087.78,-752.383"/>
<polygon fill="black" stroke="black" points="1086.92,-748.975 1077.58,-753.969 1087.99,-755.892 1086.92,-748.975"/>
<text text-anchor="middle" x="1309" y="-724.8" font-family="Times,serif" font-size="14.00">POST</text>
</g>
<!-- 1_fwatchdog#ServerID_34e86192c217 -->
<g id="node7" class="node"><title>1_fwatchdog#ServerID_34e86192c217</title>
<polygon fill="none" stroke="black" points="4279.5,-985 3980.5,-985 3980.5,-949 4279.5,-949 4279.5,-985"/>
<text text-anchor="middle" x="4130" y="-963.3" font-family="Times,serif" font-size="14.00">1_fwatchdog#ServerID_34e86192c217</text>
</g>
<!-- 10.1.80.247:46082#ServerID_OuterContainerID&#45;&gt;1_fwatchdog#ServerID_34e86192c217 -->
<g id="edge10" class="edge"><title>10.1.80.247:46082#ServerID_OuterContainerID&#45;&gt;1_fwatchdog#ServerID_34e86192c217</title>
<path fill="none" stroke="black" d="M1723.39,-678.107C1793.03,-689.855 1900.75,-706.246 1995,-713 2178.09,-726.121 3463.84,-708.999 3647,-721 3895.78,-737.3 4595.16,-674.961 4760,-862 4770.58,-874.004 4770.69,-886.095 4760,-898 4729.04,-932.478 4465.96,-951.027 4289.7,-959.68"/>
<polygon fill="black" stroke="black" points="4289.35,-956.193 4279.54,-960.173 4289.69,-963.185 4289.35,-956.193"/>
<text text-anchor="middle" x="4754.5" y="-832.8" font-family="Times,serif" font-size="14.00">read</text>
</g>
<!-- localhost:3000#ServerID_34e86192c217 -->
<g id="node8" class="node"><title>localhost:3000#ServerID_34e86192c217</title>
<polygon fill="none" stroke="black" points="3658,-898 3371.45,-880 3658,-862 3944.55,-880 3658,-898"/>
<text text-anchor="middle" x="3658" y="-876.3" font-family="Times,serif" font-size="14.00">localhost:3000#ServerID_34e86192c217</text>
</g>
<!-- 1_fwatchdog#ServerID_34e86192c217&#45;&gt;localhost:3000#ServerID_34e86192c217 -->
<g id="edge9" class="edge"><title>1_fwatchdog#ServerID_34e86192c217&#45;&gt;localhost:3000#ServerID_34e86192c217</title>
<path fill="none" stroke="black" d="M4035.33,-948.952C3948.27,-933.274 3820.59,-910.28 3738.37,-895.474"/>
<polygon fill="black" stroke="black" points="3738.79,-891.993 3728.33,-893.665 3737.55,-898.882 3738.79,-891.993"/>
<text text-anchor="middle" x="3942" y="-919.8" font-family="Times,serif" font-size="14.00">write</text>
</g>
<!-- 10_node#ServerID_34e86192c217 -->
<g id="node9" class="node"><title>10_node#ServerID_34e86192c217</title>
<polygon fill="none" stroke="black" points="3738.5,-790 3471.5,-790 3471.5,-754 3738.5,-754 3738.5,-790"/>
<text text-anchor="middle" x="3605" y="-768.3" font-family="Times,serif" font-size="14.00">10_node#ServerID_34e86192c217</text>
</g>
<!-- localhost:3000#ServerID_34e86192c217&#45;&gt;10_node#ServerID_34e86192c217 -->
<g id="edge11" class="edge"><title>localhost:3000#ServerID_34e86192c217&#45;&gt;10_node#ServerID_34e86192c217</title>
<path fill="none" stroke="black" d="M3649.72,-862.438C3641.26,-845.524 3628.01,-819.016 3618.12,-799.243"/>
<polygon fill="black" stroke="black" points="3621.18,-797.528 3613.57,-790.149 3614.92,-800.658 3621.18,-797.528"/>
<text text-anchor="middle" x="3656.5" y="-832.8" font-family="Times,serif" font-size="14.00">read</text>
</g>
<!-- 10_node#ServerID_34e86192c217&#45;&gt;gateway:8080#ServerID_OuterContainerID -->
<g id="edge19" class="edge"><title>10_node#ServerID_34e86192c217&#45;&gt;gateway:8080#ServerID_OuterContainerID</title>
<path fill="none" stroke="black" d="M3471.41,-767.154C3138.51,-757.715 2245.17,-733.287 1500,-721 1403.68,-719.412 729.024,-720.766 633,-713 551.858,-706.438 459.862,-691.407 396.717,-679.901"/>
<polygon fill="black" stroke="black" points="397.304,-676.45 386.837,-678.086 396.04,-683.335 397.304,-676.45"/>
<text text-anchor="middle" x="2282" y="-724.8" font-family="Times,serif" font-size="14.00">connect</text>
</g>
<!-- pipe:[331683264]#ServerID_34e86192c217 -->
<g id="node10" class="node"><title>pipe:[331683264]#ServerID_34e86192c217</title>
<ellipse fill="none" stroke="black" cx="3605" cy="-664" rx="217.162" ry="18"/>
<text text-anchor="middle" x="3605" y="-660.3" font-family="Times,serif" font-size="14.00">pipe:[331683264]#ServerID_34e86192c217</text>
</g>
<!-- 10_node#ServerID_34e86192c217&#45;&gt;pipe:[331683264]#ServerID_34e86192c217 -->
<g id="edge12" class="edge"><title>10_node#ServerID_34e86192c217&#45;&gt;pipe:[331683264]#ServerID_34e86192c217</title>
<path fill="none" stroke="black" d="M3605,-753.969C3605,-737.378 3605,-711.883 3605,-692.431"/>
<polygon fill="black" stroke="black" points="3608.5,-692.341 3605,-682.341 3601.5,-692.341 3608.5,-692.341"/>
<text text-anchor="middle" x="3624" y="-724.8" font-family="Times,serif" font-size="14.00">write</text>
</g>
<!-- 10.152.183.10:53#ServerID_OuterContainerID -->
<g id="node12" class="node"><title>10.152.183.10:53#ServerID_OuterContainerID</title>
<polygon fill="none" stroke="black" points="3020,-682 2692.56,-664 3020,-646 3347.44,-664 3020,-682"/>
<text text-anchor="middle" x="3020" y="-660.3" font-family="Times,serif" font-size="14.00">10.152.183.10:53#ServerID_OuterContainerID</text>
</g>
<!-- 10_node#ServerID_34e86192c217&#45;&gt;10.152.183.10:53#ServerID_OuterContainerID -->
<g id="edge16" class="edge"><title>10_node#ServerID_34e86192c217&#45;&gt;10.152.183.10:53#ServerID_OuterContainerID</title>
<path fill="none" stroke="black" d="M3471.43,-761.628C3411.9,-756.188 3341.11,-747.979 3278,-736 3206.61,-722.448 3126.14,-698.95 3074.34,-682.72"/>
<polygon fill="black" stroke="black" points="3075.28,-679.347 3064.69,-679.677 3073.17,-686.023 3075.28,-679.347"/>
<text text-anchor="middle" x="3302.5" y="-724.8" font-family="Times,serif" font-size="14.00">sendto</text>
</g>
<!-- /etc/hosts#ServerID_34e86192c217 -->
<g id="node11" class="node"><title>/etc/hosts#ServerID_34e86192c217</title>
<ellipse fill="none" stroke="black" cx="4571" cy="-880" rx="180.068" ry="18"/>
<text text-anchor="middle" x="4571" y="-876.3" font-family="Times,serif" font-size="14.00">/etc/hosts#ServerID_34e86192c217</text>
</g>
<!-- /etc/hosts#ServerID_34e86192c217&#45;&gt;10_node#ServerID_34e86192c217 -->
<g id="edge13" class="edge"><title>/etc/hosts#ServerID_34e86192c217&#45;&gt;10_node#ServerID_34e86192c217</title>
<path fill="none" stroke="black" d="M4454.48,-866.214C4277.37,-846.78 3940.79,-809.846 3748.74,-788.773"/>
<polygon fill="black" stroke="black" points="3748.9,-785.269 3738.58,-787.657 3748.13,-792.227 3748.9,-785.269"/>
<text text-anchor="middle" x="4246.5" y="-832.8" font-family="Times,serif" font-size="14.00">read</text>
</g>
<!-- 10.152.183.10:53#ServerID_OuterContainerID&#45;&gt;10_node#ServerID_34e86192c217 -->
<g id="edge14" class="edge"><title>10.152.183.10:53#ServerID_OuterContainerID&#45;&gt;10_node#ServerID_34e86192c217</title>
<path fill="none" stroke="black" d="M3092.07,-678.059C3194.61,-696.638 3383.19,-730.808 3500.9,-752.138"/>
<polygon fill="black" stroke="black" points="3500.55,-755.63 3511.01,-753.969 3501.79,-748.742 3500.55,-755.63"/>
<text text-anchor="middle" x="3433" y="-724.8" font-family="Times,serif" font-size="14.00">recvfrom</text>
</g>
<!-- /etc/resolv.conf#ServerID_34e86192c217 -->
<g id="node13" class="node"><title>/etc/resolv.conf#ServerID_34e86192c217</title>
<ellipse fill="none" stroke="black" cx="4168" cy="-880" rx="205.264" ry="18"/>
<text text-anchor="middle" x="4168" y="-876.3" font-family="Times,serif" font-size="14.00">/etc/resolv.conf#ServerID_34e86192c217</text>
</g>
<!-- /etc/resolv.conf#ServerID_34e86192c217&#45;&gt;10_node#ServerID_34e86192c217 -->
<g id="edge15" class="edge"><title>/etc/resolv.conf#ServerID_34e86192c217&#45;&gt;10_node#ServerID_34e86192c217</title>
<path fill="none" stroke="black" d="M4085.53,-863.473C3984.68,-844.486 3814.05,-812.36 3705.59,-791.939"/>
<polygon fill="black" stroke="black" points="3706.1,-788.473 3695.62,-790.062 3704.8,-795.352 3706.1,-788.473"/>
<text text-anchor="middle" x="3986.5" y="-832.8" font-family="Times,serif" font-size="14.00">read</text>
</g>
<!-- localhost:3000#ServerID_e56b6537e2d5 -->
<g id="node15" class="node"><title>localhost:3000#ServerID_e56b6537e2d5</title>
<polygon fill="none" stroke="black" points="4206,-487 3919.45,-469 4206,-451 4492.55,-469 4206,-487"/>
<text text-anchor="middle" x="4206" y="-465.3" font-family="Times,serif" font-size="14.00">localhost:3000#ServerID_e56b6537e2d5</text>
</g>
<!-- 1_fwatchdog#ServerID_e56b6537e2d5&#45;&gt;localhost:3000#ServerID_e56b6537e2d5 -->
<g id="edge20" class="edge"><title>1_fwatchdog#ServerID_e56b6537e2d5&#45;&gt;localhost:3000#ServerID_e56b6537e2d5</title>
<path fill="none" stroke="black" d="M4186.42,-537.764C4178.33,-528.482 4171.72,-516.583 4176,-505 4177.4,-501.224 4179.4,-497.58 4181.73,-494.162"/>
<polygon fill="black" stroke="black" points="4184.56,-496.214 4187.98,-486.186 4179.06,-491.893 4184.56,-496.214"/>
<text text-anchor="middle" x="4195" y="-508.8" font-family="Times,serif" font-size="14.00">write</text>
</g>
<!-- pipe:[331682317]#ServerID_e56b6537e2d5 -->
<g id="node25" class="node"><title>pipe:[331682317]#ServerID_e56b6537e2d5</title>
<ellipse fill="none" stroke="black" cx="4728" cy="-469" rx="217.162" ry="18"/>
<text text-anchor="middle" x="4728" y="-465.3" font-family="Times,serif" font-size="14.00">pipe:[331682317]#ServerID_e56b6537e2d5</text>
</g>
<!-- 1_fwatchdog#ServerID_e56b6537e2d5&#45;&gt;pipe:[331682317]#ServerID_e56b6537e2d5 -->
<g id="edge32" class="edge"><title>1_fwatchdog#ServerID_e56b6537e2d5&#45;&gt;pipe:[331682317]#ServerID_e56b6537e2d5</title>
<path fill="none" stroke="black" d="M4310.69,-537.952C4401.77,-523.121 4533.06,-501.743 4623.95,-486.943"/>
<polygon fill="black" stroke="black" points="4624.69,-490.368 4634,-485.307 4623.57,-483.459 4624.69,-490.368"/>
<text text-anchor="middle" x="4517" y="-508.8" font-family="Times,serif" font-size="14.00">write</text>
</g>
<!-- localhost:3000#ServerID_e56b6537e2d5&#45;&gt;1_fwatchdog#ServerID_e56b6537e2d5 -->
<g id="edge31" class="edge"><title>localhost:3000#ServerID_e56b6537e2d5&#45;&gt;1_fwatchdog#ServerID_e56b6537e2d5</title>
<path fill="none" stroke="black" d="M4211.05,-487.071C4213.32,-496.709 4215.24,-508.993 4214,-520 4213.71,-522.547 4213.31,-525.179 4212.84,-527.803"/>
<polygon fill="black" stroke="black" points="4209.39,-527.18 4210.77,-537.686 4216.25,-528.617 4209.39,-527.18"/>
<text text-anchor="middle" x="4230.5" y="-508.8" font-family="Times,serif" font-size="14.00">read</text>
</g>
<!-- 12_node#ServerID_e56b6537e2d5 -->
<g id="node16" class="node"><title>12_node#ServerID_e56b6537e2d5</title>
<polygon fill="none" stroke="black" points="4540.5,-400 4273.5,-400 4273.5,-364 4540.5,-364 4540.5,-400"/>
<text text-anchor="middle" x="4407" y="-378.3" font-family="Times,serif" font-size="14.00">12_node#ServerID_e56b6537e2d5</text>
</g>
<!-- localhost:3000#ServerID_e56b6537e2d5&#45;&gt;12_node#ServerID_e56b6537e2d5 -->
<g id="edge18" class="edge"><title>localhost:3000#ServerID_e56b6537e2d5&#45;&gt;12_node#ServerID_e56b6537e2d5</title>
<path fill="none" stroke="black" d="M4241.01,-453.194C4273.12,-439.615 4321.03,-419.355 4357.14,-404.086"/>
<polygon fill="black" stroke="black" points="4358.67,-407.24 4366.51,-400.121 4355.94,-400.792 4358.67,-407.24"/>
<text text-anchor="middle" x="4334.5" y="-421.8" font-family="Times,serif" font-size="14.00">read</text>
</g>
<!-- pipe:[331682415]#ServerID_e56b6537e2d5 -->
<g id="node17" class="node"><title>pipe:[331682415]#ServerID_e56b6537e2d5</title>
<ellipse fill="none" stroke="black" cx="3936" cy="-295" rx="217.162" ry="18"/>
<text text-anchor="middle" x="3936" y="-291.3" font-family="Times,serif" font-size="14.00">pipe:[331682415]#ServerID_e56b6537e2d5</text>
</g>
<!-- 12_node#ServerID_e56b6537e2d5&#45;&gt;pipe:[331682415]#ServerID_e56b6537e2d5 -->
<g id="edge21" class="edge"><title>12_node#ServerID_e56b6537e2d5&#45;&gt;pipe:[331682415]#ServerID_e56b6537e2d5</title>
<path fill="none" stroke="black" d="M4312.54,-363.952C4231.2,-349.274 4114.34,-328.184 4032.43,-313.403"/>
<polygon fill="black" stroke="black" points="4032.84,-309.919 4022.37,-311.588 4031.59,-316.808 4032.84,-309.919"/>
<text text-anchor="middle" x="4218" y="-334.8" font-family="Times,serif" font-size="14.00">write</text>
</g>
<!-- /dev/null#ServerID_e56b6537e2d5 -->
<g id="node18" class="node"><title>/dev/null#ServerID_e56b6537e2d5</title>
<ellipse fill="none" stroke="black" cx="4346" cy="-295" rx="174.669" ry="18"/>
<text text-anchor="middle" x="4346" y="-291.3" font-family="Times,serif" font-size="14.00">/dev/null#ServerID_e56b6537e2d5</text>
</g>
<!-- 12_node#ServerID_e56b6537e2d5&#45;&gt;/dev/null#ServerID_e56b6537e2d5 -->
<g id="edge30" class="edge"><title>12_node#ServerID_e56b6537e2d5&#45;&gt;/dev/null#ServerID_e56b6537e2d5</title>
<path fill="none" stroke="black" d="M4360.93,-363.872C4353.77,-359.174 4347.33,-353.299 4343,-346 4339.04,-339.315 4338.21,-331.203 4338.8,-323.476"/>
<polygon fill="black" stroke="black" points="4342.3,-323.76 4340.35,-313.347 4335.38,-322.707 4342.3,-323.76"/>
<text text-anchor="middle" x="4362" y="-334.8" font-family="Times,serif" font-size="14.00">write</text>
</g>
<!-- pipe:[331683435]#ServerID_e56b6537e2d5 -->
<g id="node19" class="node"><title>pipe:[331683435]#ServerID_e56b6537e2d5</title>
<ellipse fill="none" stroke="black" cx="5041" cy="-295" rx="217.162" ry="18"/>
<text text-anchor="middle" x="5041" y="-291.3" font-family="Times,serif" font-size="14.00">pipe:[331683435]#ServerID_e56b6537e2d5</text>
</g>
<!-- 12_node#ServerID_e56b6537e2d5&#45;&gt;pipe:[331683435]#ServerID_e56b6537e2d5 -->
<g id="edge28" class="edge"><title>12_node#ServerID_e56b6537e2d5&#45;&gt;pipe:[331683435]#ServerID_e56b6537e2d5</title>
<path fill="none" stroke="black" d="M4534.16,-363.952C4647.2,-348.796 4811.25,-326.802 4921.82,-311.979"/>
<polygon fill="black" stroke="black" points="4922.56,-315.41 4932.01,-310.612 4921.63,-308.472 4922.56,-315.41"/>
<text text-anchor="middle" x="4780" y="-334.8" font-family="Times,serif" font-size="14.00">write</text>
</g>
<!-- 29_node#ServerID_e56b6537e2d5 -->
<g id="node23" class="node"><title>29_node#ServerID_e56b6537e2d5</title>
<polygon fill="none" stroke="black" points="4805.5,-313 4538.5,-313 4538.5,-277 4805.5,-277 4805.5,-313"/>
<text text-anchor="middle" x="4672" y="-291.3" font-family="Times,serif" font-size="14.00">29_node#ServerID_e56b6537e2d5</text>
</g>
<!-- 12_node#ServerID_e56b6537e2d5&#45;&gt;29_node#ServerID_e56b6537e2d5 -->
<g id="edge27" class="edge"><title>12_node#ServerID_e56b6537e2d5&#45;&gt;29_node#ServerID_e56b6537e2d5</title>
<path fill="none" stroke="black" d="M4460.31,-363.901C4503.25,-350.126 4563.73,-330.727 4609.06,-316.189"/>
<polygon fill="black" stroke="black" points="4610.32,-319.459 4618.78,-313.071 4608.19,-312.793 4610.32,-319.459"/>
<text text-anchor="middle" x="4570" y="-334.8" font-family="Times,serif" font-size="14.00">fork</text>
</g>
<!-- /dev/null#ServerID_e56b6537e2d5&#45;&gt;12_node#ServerID_e56b6537e2d5 -->
<g id="edge22" class="edge"><title>/dev/null#ServerID_e56b6537e2d5&#45;&gt;12_node#ServerID_e56b6537e2d5</title>
<path fill="none" stroke="black" d="M4368.27,-313.06C4374.23,-318.355 4380.3,-324.517 4385,-331 4390.14,-338.098 4394.44,-346.588 4397.83,-354.539"/>
<polygon fill="black" stroke="black" points="4394.58,-355.833 4401.51,-363.842 4401.09,-353.256 4394.58,-355.833"/>
<text text-anchor="middle" x="4409.5" y="-334.8" font-family="Times,serif" font-size="14.00">read</text>
</g>
<!-- pipe:[331683435]#ServerID_e56b6537e2d5&#45;&gt;12_node#ServerID_e56b6537e2d5 -->
<g id="edge23" class="edge"><title>pipe:[331683435]#ServerID_e56b6537e2d5&#45;&gt;12_node#ServerID_e56b6537e2d5</title>
<path fill="none" stroke="black" d="M4985.76,-312.503C4946.11,-323.702 4891.21,-337.896 4842,-346 4745.64,-361.869 4636.04,-370.631 4550.95,-375.42"/>
<polygon fill="black" stroke="black" points="4550.76,-371.925 4540.97,-375.97 4551.14,-378.915 4550.76,-371.925"/>
<text text-anchor="middle" x="4929.5" y="-334.8" font-family="Times,serif" font-size="14.00">read</text>
</g>
<!-- 30_sh#ServerID_e56b6537e2d5 -->
<g id="node20" class="node"><title>30_sh#ServerID_e56b6537e2d5</title>
<polygon fill="none" stroke="black" points="4695.5,-139 4446.5,-139 4446.5,-103 4695.5,-103 4695.5,-139"/>
<text text-anchor="middle" x="4571" y="-117.3" font-family="Times,serif" font-size="14.00">30_sh#ServerID_e56b6537e2d5</text>
</g>
<!-- 30_touch#ServerID_e56b6537e2d5 -->
<g id="node21" class="node"><title>30_touch#ServerID_e56b6537e2d5</title>
<polygon fill="none" stroke="black" points="4707.5,-52 4434.5,-52 4434.5,-16 4707.5,-16 4707.5,-52"/>
<text text-anchor="middle" x="4571" y="-30.3" font-family="Times,serif" font-size="14.00">30_touch#ServerID_e56b6537e2d5</text>
</g>
<!-- 30_sh#ServerID_e56b6537e2d5&#45;&gt;30_touch#ServerID_e56b6537e2d5 -->
<g id="edge24" class="edge"><title>30_sh#ServerID_e56b6537e2d5&#45;&gt;30_touch#ServerID_e56b6537e2d5</title>
<path fill="none" stroke="black" d="M4571,-102.799C4571,-91.1626 4571,-75.5479 4571,-62.2368"/>
<polygon fill="black" stroke="black" points="4574.5,-62.1754 4571,-52.1754 4567.5,-62.1755 4574.5,-62.1754"/>
<text text-anchor="middle" x="4596" y="-73.8" font-family="Times,serif" font-size="14.00">execve</text>
</g>
<!-- 29_sh#ServerID_e56b6537e2d5 -->
<g id="node22" class="node"><title>29_sh#ServerID_e56b6537e2d5</title>
<polygon fill="none" stroke="black" points="4796.5,-226 4547.5,-226 4547.5,-190 4796.5,-190 4796.5,-226"/>
<text text-anchor="middle" x="4672" y="-204.3" font-family="Times,serif" font-size="14.00">29_sh#ServerID_e56b6537e2d5</text>
</g>
<!-- 29_sh#ServerID_e56b6537e2d5&#45;&gt;30_sh#ServerID_e56b6537e2d5 -->
<g id="edge25" class="edge"><title>29_sh#ServerID_e56b6537e2d5&#45;&gt;30_sh#ServerID_e56b6537e2d5</title>
<path fill="none" stroke="black" d="M4651.56,-189.799C4636.5,-177.126 4615.84,-159.734 4599.21,-145.738"/>
<polygon fill="black" stroke="black" points="4601.31,-142.937 4591.41,-139.175 4596.81,-148.292 4601.31,-142.937"/>
<text text-anchor="middle" x="4642" y="-160.8" font-family="Times,serif" font-size="14.00">fork</text>
</g>
<!-- /home/app/3.txt#ServerID_e56b6537e2d5 -->
<g id="node24" class="node"><title>/home/app/3.txt#ServerID_e56b6537e2d5</title>
<ellipse fill="none" stroke="black" cx="4921" cy="-121" rx="207.963" ry="18"/>
<text text-anchor="middle" x="4921" y="-117.3" font-family="Times,serif" font-size="14.00">/home/app/3.txt#ServerID_e56b6537e2d5</text>
</g>
<!-- 29_sh#ServerID_e56b6537e2d5&#45;&gt;/home/app/3.txt#ServerID_e56b6537e2d5 -->
<g id="edge29" class="edge"><title>29_sh#ServerID_e56b6537e2d5&#45;&gt;/home/app/3.txt#ServerID_e56b6537e2d5</title>
<path fill="none" stroke="black" d="M4722.09,-189.901C4762.67,-176.049 4819.91,-156.509 4862.57,-141.945"/>
<polygon fill="black" stroke="black" points="4863.93,-145.18 4872.26,-138.637 4861.67,-138.556 4863.93,-145.18"/>
<text text-anchor="middle" x="4830" y="-160.8" font-family="Times,serif" font-size="14.00">write</text>
</g>
<!-- 29_node#ServerID_e56b6537e2d5&#45;&gt;29_sh#ServerID_e56b6537e2d5 -->
<g id="edge26" class="edge"><title>29_node#ServerID_e56b6537e2d5&#45;&gt;29_sh#ServerID_e56b6537e2d5</title>
<path fill="none" stroke="black" d="M4672,-276.799C4672,-265.163 4672,-249.548 4672,-236.237"/>
<polygon fill="black" stroke="black" points="4675.5,-236.175 4672,-226.175 4668.5,-236.175 4675.5,-236.175"/>
<text text-anchor="middle" x="4697" y="-247.8" font-family="Times,serif" font-size="14.00">execve</text>
</g>
<!-- 10.1.80.1:40215#ServerID_OuterContainerID&#45;&gt;10.1.80.247:8080#ServerID_OuterContainerID -->
<g id="edge33" class="edge"><title>10.1.80.1:40215#ServerID_OuterContainerID&#45;&gt;10.1.80.247:8080#ServerID_OuterContainerID</title>
<path fill="none" stroke="black" d="M893.966,-572.267C911.486,-581.938 932.518,-595.854 947,-613 952.743,-619.799 957.232,-628.332 960.614,-636.415"/>
<polygon fill="black" stroke="black" points="957.391,-637.787 964.201,-645.903 963.939,-635.311 957.391,-637.787"/>
<text text-anchor="middle" x="977" y="-616.8" font-family="Times,serif" font-size="14.00">POST</text>
</g>
</g>
</svg>
