<?xml version="1.0" encoding="UTF-8" standalone="no"?>
<!DOCTYPE svg PUBLIC "-//W3C//DTD SVG 1.1//EN"
 "http://www.w3.org/Graphics/SVG/1.1/DTD/svg11.dtd">
<!-- Generated by graphviz version 2.38.0 (20140413.2041)
 -->
<!-- Title: G Pages: 1 -->
<svg width="4332pt" height="684pt"
 viewBox="0.00 0.00 4332.00 684.00" xmlns="http://www.w3.org/2000/svg" xmlns:xlink="http://www.w3.org/1999/xlink">
<g id="graph0" class="graph" transform="scale(1 1) rotate(0) translate(4 680)">
<title>G</title>
<polygon fill="white" stroke="none" points="-4,4 -4,-680 4328,-680 4328,4 -4,4"/>
<g id="clust1" class="cluster"><title>clusterServerID_2347d2f455dd</title>
<polygon fill="none" stroke="black" points="1214,-398 1214,-668 2602,-668 2602,-398 1214,-398"/>
<text text-anchor="middle" x="1908" y="-652.8" font-family="Times,serif" font-size="14.00">clusterServerID_2347d2f455dd</text>
</g>
<g id="clust2" class="cluster"><title>clusterServerID_5f846fd567&#45;g8dn6</title>
<polygon fill="none" stroke="black" points="2798,-398 2798,-473 3138,-473 3138,-398 2798,-398"/>
<text text-anchor="middle" x="2968" y="-457.8" font-family="Times,serif" font-size="14.00">clusterServerID_5f846fd567&#45;g8dn6</text>
</g>
<g id="clust3" class="cluster"><title>clusterServerID_6df85d7674&#45;f2xxt</title>
<polygon fill="none" stroke="black" points="775,-398 775,-473 1111,-473 1111,-398 775,-398"/>
<text text-anchor="middle" x="943" y="-457.8" font-family="Times,serif" font-size="14.00">clusterServerID_6df85d7674&#45;f2xxt</text>
</g>
<g id="clust4" class="cluster"><title>clusterServerID_7cf8268e6ab5</title>
<polygon fill="none" stroke="black" points="3312,-8 3312,-257 4316,-257 4316,-8 3312,-8"/>
<text text-anchor="middle" x="3814" y="-241.8" font-family="Times,serif" font-size="14.00">clusterServerID_7cf8268e6ab5</text>
</g>
<g id="clust5" class="cluster"><title>clusterServerID_OuterContainerID</title>
<polygon fill="none" stroke="black" points="8,-182 8,-365 3304,-365 3304,-182 8,-182"/>
<text text-anchor="middle" x="1656" y="-349.8" font-family="Times,serif" font-size="14.00">clusterServerID_OuterContainerID</text>
</g>
<!-- gateway:8080#ServerID_OuterContainerID -->
<g id="node1" class="node"><title>gateway:8080#ServerID_OuterContainerID</title>
<polygon fill="none" stroke="black" points="320,-334 15.5177,-316 320,-298 624.482,-316 320,-334"/>
<text text-anchor="middle" x="320" y="-312.3" font-family="Times,serif" font-size="14.00">gateway:8080#ServerID_OuterContainerID</text>
</g>
<!-- 1_fwatchdog#ServerID_6df85d7674&#45;f2xxt -->
<g id="node2" class="node"><title>1_fwatchdog#ServerID_6df85d7674&#45;f2xxt</title>
<polygon fill="none" stroke="black" points="1103,-442 783,-442 783,-406 1103,-406 1103,-442"/>
<text text-anchor="middle" x="943" y="-420.3" font-family="Times,serif" font-size="14.00">1_fwatchdog#ServerID_6df85d7674&#45;f2xxt</text>
</g>
<!-- gateway:8080#ServerID_OuterContainerID&#45;&gt;1_fwatchdog#ServerID_6df85d7674&#45;f2xxt -->
<g id="edge1" class="edge"><title>gateway:8080#ServerID_OuterContainerID&#45;&gt;1_fwatchdog#ServerID_6df85d7674&#45;f2xxt</title>
<path fill="none" stroke="black" d="M374.477,-330.837C438.069,-346.572 546.579,-372.129 641,-388 683.495,-395.143 729.6,-401.289 772.691,-406.349"/>
<polygon fill="black" stroke="black" points="772.366,-409.834 782.703,-407.511 773.173,-402.881 772.366,-409.834"/>
<text text-anchor="middle" x="683" y="-376.8" font-family="Times,serif" font-size="14.00">RESPONSE</text>
</g>
<!-- 1_fwatchdog#ServerID_6df85d7674&#45;f2xxt&#45;&gt;gateway:8080#ServerID_OuterContainerID -->
<g id="edge2" class="edge"><title>1_fwatchdog#ServerID_6df85d7674&#45;f2xxt&#45;&gt;gateway:8080#ServerID_OuterContainerID</title>
<path fill="none" stroke="black" d="M879.542,-405.993C836.289,-395.008 777.55,-381.27 725,-373 684.456,-366.619 673.751,-369.891 633,-365 554.893,-355.625 466.311,-341.734 403.367,-331.304"/>
<polygon fill="black" stroke="black" points="403.929,-327.849 393.49,-329.661 402.78,-334.754 403.929,-327.849"/>
<text text-anchor="middle" x="824" y="-376.8" font-family="Times,serif" font-size="14.00">POST</text>
</g>
<!-- 10.1.80.93:52734#ServerID_OuterContainerID -->
<g id="node3" class="node"><title>10.1.80.93:52734#ServerID_OuterContainerID</title>
<polygon fill="none" stroke="black" points="1625,-334 1297.56,-316 1625,-298 1952.44,-316 1625,-334"/>
<text text-anchor="middle" x="1625" y="-312.3" font-family="Times,serif" font-size="14.00">10.1.80.93:52734#ServerID_OuterContainerID</text>
</g>
<!-- 1_fwatchdog#ServerID_6df85d7674&#45;f2xxt&#45;&gt;10.1.80.93:52734#ServerID_OuterContainerID -->
<g id="edge5" class="edge"><title>1_fwatchdog#ServerID_6df85d7674&#45;f2xxt&#45;&gt;10.1.80.93:52734#ServerID_OuterContainerID</title>
<path fill="none" stroke="black" d="M1012.08,-405.944C1059.36,-394.901 1123.62,-381.115 1181,-373 1228.66,-366.259 1241.15,-370.184 1289,-365 1373.28,-355.869 1468.95,-341.842 1536.59,-331.305"/>
<polygon fill="black" stroke="black" points="1537.44,-334.715 1546.78,-329.711 1536.35,-327.799 1537.44,-334.715"/>
<text text-anchor="middle" x="1223" y="-376.8" font-family="Times,serif" font-size="14.00">RESPONSE</text>
</g>
<!-- 10.1.80.93:8080#ServerID_OuterContainerID -->
<g id="node6" class="node"><title>10.1.80.93:8080#ServerID_OuterContainerID</title>
<polygon fill="none" stroke="black" points="961,-334 642.105,-316 961,-298 1279.9,-316 961,-334"/>
<text text-anchor="middle" x="961" y="-312.3" font-family="Times,serif" font-size="14.00">10.1.80.93:8080#ServerID_OuterContainerID</text>
</g>
<!-- 1_fwatchdog#ServerID_6df85d7674&#45;f2xxt&#45;&gt;10.1.80.93:8080#ServerID_OuterContainerID -->
<g id="edge7" class="edge"><title>1_fwatchdog#ServerID_6df85d7674&#45;f2xxt&#45;&gt;10.1.80.93:8080#ServerID_OuterContainerID</title>
<path fill="none" stroke="black" d="M923.424,-405.764C915.328,-396.482 908.715,-384.583 913,-373 917.512,-360.803 925.999,-349.47 934.596,-340.234"/>
<polygon fill="black" stroke="black" points="937.212,-342.567 941.76,-332.998 932.237,-337.643 937.212,-342.567"/>
<text text-anchor="middle" x="933" y="-376.8" font-family="Times,serif" font-size="14.00">POST</text>
</g>
<!-- 10.1.80.93:52734#ServerID_OuterContainerID&#45;&gt;1_fwatchdog#ServerID_6df85d7674&#45;f2xxt -->
<g id="edge3" class="edge"><title>10.1.80.93:52734#ServerID_OuterContainerID&#45;&gt;1_fwatchdog#ServerID_6df85d7674&#45;f2xxt</title>
<path fill="none" stroke="black" d="M1564.82,-330.722C1494.27,-346.408 1373.66,-371.978 1269,-388 1218.62,-395.712 1163.61,-402.31 1113.36,-407.631"/>
<polygon fill="black" stroke="black" points="1112.96,-404.154 1103.38,-408.678 1113.69,-411.116 1112.96,-404.154"/>
<text text-anchor="middle" x="1378" y="-376.8" font-family="Times,serif" font-size="14.00">POST</text>
</g>
<!-- 1_fwatchdog#ServerID_2347d2f455dd -->
<g id="node7" class="node"><title>1_fwatchdog#ServerID_2347d2f455dd</title>
<polygon fill="none" stroke="black" points="1723,-637 1427,-637 1427,-601 1723,-601 1723,-637"/>
<text text-anchor="middle" x="1575" y="-615.3" font-family="Times,serif" font-size="14.00">1_fwatchdog#ServerID_2347d2f455dd</text>
</g>
<!-- 10.1.80.93:52734#ServerID_OuterContainerID&#45;&gt;1_fwatchdog#ServerID_2347d2f455dd -->
<g id="edge14" class="edge"><title>10.1.80.93:52734#ServerID_OuterContainerID&#45;&gt;1_fwatchdog#ServerID_2347d2f455dd</title>
<path fill="none" stroke="black" d="M1698.12,-330.036C1766,-341.518 1869.97,-357.541 1961,-365 2001.98,-368.358 2291.16,-362.829 2331,-373 3063.35,-559.946 2733.34,-410.756 2603,-550 2573.78,-581.219 2014.41,-603.746 1733.37,-613.143"/>
<polygon fill="black" stroke="black" points="1732.96,-609.655 1723.08,-613.485 1733.19,-616.651 1732.96,-609.655"/>
<text text-anchor="middle" x="2795.5" y="-484.8" font-family="Times,serif" font-size="14.00">read</text>
</g>
<!-- 1_fwatchdog#ServerID_5f846fd567&#45;g8dn6 -->
<g id="node4" class="node"><title>1_fwatchdog#ServerID_5f846fd567&#45;g8dn6</title>
<polygon fill="none" stroke="black" points="3130,-442 2806,-442 2806,-406 3130,-406 3130,-442"/>
<text text-anchor="middle" x="2968" y="-420.3" font-family="Times,serif" font-size="14.00">1_fwatchdog#ServerID_5f846fd567&#45;g8dn6</text>
</g>
<!-- 10.1.80.93:44746#ServerID_OuterContainerID -->
<g id="node5" class="node"><title>10.1.80.93:44746#ServerID_OuterContainerID</title>
<polygon fill="none" stroke="black" points="2969,-334 2641.56,-316 2969,-298 3296.44,-316 2969,-334"/>
<text text-anchor="middle" x="2969" y="-312.3" font-family="Times,serif" font-size="14.00">10.1.80.93:44746#ServerID_OuterContainerID</text>
</g>
<!-- 1_fwatchdog#ServerID_5f846fd567&#45;g8dn6&#45;&gt;10.1.80.93:44746#ServerID_OuterContainerID -->
<g id="edge4" class="edge"><title>1_fwatchdog#ServerID_5f846fd567&#45;g8dn6&#45;&gt;10.1.80.93:44746#ServerID_OuterContainerID</title>
<path fill="none" stroke="black" d="M2932.26,-405.861C2925.73,-401.032 2919.78,-395.108 2916,-388 2912.87,-382.115 2913.53,-379.194 2916,-373 2921.04,-360.341 2930.45,-348.895 2939.96,-339.7"/>
<polygon fill="black" stroke="black" points="2942.48,-342.142 2947.53,-332.827 2937.77,-336.96 2942.48,-342.142"/>
<text text-anchor="middle" x="2958" y="-376.8" font-family="Times,serif" font-size="14.00">RESPONSE</text>
</g>
<!-- 10.1.80.93:44746#ServerID_OuterContainerID&#45;&gt;1_fwatchdog#ServerID_5f846fd567&#45;g8dn6 -->
<g id="edge6" class="edge"><title>10.1.80.93:44746#ServerID_OuterContainerID&#45;&gt;1_fwatchdog#ServerID_5f846fd567&#45;g8dn6</title>
<path fill="none" stroke="black" d="M2983.86,-333.197C2995.08,-347.485 3007.4,-368.942 3000,-388 2998.64,-391.507 2996.74,-394.876 2994.55,-398.046"/>
<polygon fill="black" stroke="black" points="2991.75,-395.944 2988.2,-405.928 2997.2,-400.335 2991.75,-395.944"/>
<text text-anchor="middle" x="3023" y="-376.8" font-family="Times,serif" font-size="14.00">POST</text>
</g>
<!-- 1_fwatchdog#ServerID_7cf8268e6ab5 -->
<g id="node13" class="node"><title>1_fwatchdog#ServerID_7cf8268e6ab5</title>
<polygon fill="none" stroke="black" points="3750,-226 3456,-226 3456,-190 3750,-190 3750,-226"/>
<text text-anchor="middle" x="3603" y="-204.3" font-family="Times,serif" font-size="14.00">1_fwatchdog#ServerID_7cf8268e6ab5</text>
</g>
<!-- 10.1.80.93:44746#ServerID_OuterContainerID&#45;&gt;1_fwatchdog#ServerID_7cf8268e6ab5 -->
<g id="edge18" class="edge"><title>10.1.80.93:44746#ServerID_OuterContainerID&#45;&gt;1_fwatchdog#ServerID_7cf8268e6ab5</title>
<path fill="none" stroke="black" d="M3045.79,-302.161C3156.85,-283.593 3362.99,-249.128 3491.01,-227.724"/>
<polygon fill="black" stroke="black" points="3491.95,-231.116 3501.23,-226.014 3490.79,-224.211 3491.95,-231.116"/>
<text text-anchor="middle" x="3283.5" y="-268.8" font-family="Times,serif" font-size="14.00">read</text>
</g>
<!-- 10.1.80.93:8080#ServerID_OuterContainerID&#45;&gt;1_fwatchdog#ServerID_6df85d7674&#45;f2xxt -->
<g id="edge8" class="edge"><title>10.1.80.93:8080#ServerID_OuterContainerID&#45;&gt;1_fwatchdog#ServerID_6df85d7674&#45;f2xxt</title>
<path fill="none" stroke="black" d="M959.878,-334.049C958.736,-348.508 956.61,-369.747 953,-388 952.496,-390.55 951.895,-393.183 951.243,-395.808"/>
<polygon fill="black" stroke="black" points="947.802,-395.125 948.561,-405.692 954.558,-396.958 947.802,-395.125"/>
<text text-anchor="middle" x="998" y="-376.8" font-family="Times,serif" font-size="14.00">RESPONSE</text>
</g>
<!-- 10.1.80.1:1580#ServerID_OuterContainerID -->
<g id="node17" class="node"><title>10.1.80.1:1580#ServerID_OuterContainerID</title>
<polygon fill="none" stroke="black" points="376,-226 65.1496,-208 376,-190 686.85,-208 376,-226"/>
<text text-anchor="middle" x="376" y="-204.3" font-family="Times,serif" font-size="14.00">10.1.80.1:1580#ServerID_OuterContainerID</text>
</g>
<!-- 10.1.80.93:8080#ServerID_OuterContainerID&#45;&gt;10.1.80.1:1580#ServerID_OuterContainerID -->
<g id="edge25" class="edge"><title>10.1.80.93:8080#ServerID_OuterContainerID&#45;&gt;10.1.80.1:1580#ServerID_OuterContainerID</title>
<path fill="none" stroke="black" d="M889.268,-302.002C779.983,-282.2 572.402,-244.587 457.544,-223.776"/>
<polygon fill="black" stroke="black" points="457.867,-220.277 447.403,-221.938 456.619,-227.165 457.867,-220.277"/>
<text text-anchor="middle" x="798" y="-268.8" font-family="Times,serif" font-size="14.00">RESPONSE</text>
</g>
<!-- 10.0.88.125:31112#ServerID_OuterContainerID -->
<g id="node18" class="node"><title>10.0.88.125:31112#ServerID_OuterContainerID</title>
<polygon fill="none" stroke="black" points="1696,-226 1360.52,-208 1696,-190 2031.48,-208 1696,-226"/>
<text text-anchor="middle" x="1696" y="-204.3" font-family="Times,serif" font-size="14.00">10.0.88.125:31112#ServerID_OuterContainerID</text>
</g>
<!-- 10.1.80.93:8080#ServerID_OuterContainerID&#45;&gt;10.0.88.125:31112#ServerID_OuterContainerID -->
<g id="edge27" class="edge"><title>10.1.80.93:8080#ServerID_OuterContainerID&#45;&gt;10.0.88.125:31112#ServerID_OuterContainerID</title>
<path fill="none" stroke="black" d="M1046.03,-302.737C1183.86,-282.859 1455.18,-243.731 1599.84,-222.868"/>
<polygon fill="black" stroke="black" points="1600.63,-226.29 1610.03,-221.398 1599.63,-219.362 1600.63,-226.29"/>
<text text-anchor="middle" x="1349" y="-268.8" font-family="Times,serif" font-size="14.00">RESPONSE</text>
</g>
<!-- 10.1.80.1:14309#ServerID_OuterContainerID -->
<g id="node19" class="node"><title>10.1.80.1:14309#ServerID_OuterContainerID</title>
<polygon fill="none" stroke="black" points="1024,-226 705.105,-208 1024,-190 1342.9,-208 1024,-226"/>
<text text-anchor="middle" x="1024" y="-204.3" font-family="Times,serif" font-size="14.00">10.1.80.1:14309#ServerID_OuterContainerID</text>
</g>
<!-- 10.1.80.93:8080#ServerID_OuterContainerID&#45;&gt;10.1.80.1:14309#ServerID_OuterContainerID -->
<g id="edge29" class="edge"><title>10.1.80.93:8080#ServerID_OuterContainerID&#45;&gt;10.1.80.1:14309#ServerID_OuterContainerID</title>
<path fill="none" stroke="black" d="M984.09,-299.166C990.638,-293.734 997.265,-287.191 1002,-280 1010.71,-266.774 1016.12,-249.913 1019.4,-235.941"/>
<polygon fill="black" stroke="black" points="1022.87,-236.434 1021.51,-225.928 1016.02,-234.992 1022.87,-236.434"/>
<text text-anchor="middle" x="1052" y="-268.8" font-family="Times,serif" font-size="14.00">RESPONSE</text>
</g>
<!-- localhost:3000#ServerID_2347d2f455dd -->
<g id="node8" class="node"><title>localhost:3000#ServerID_2347d2f455dd</title>
<polygon fill="none" stroke="black" points="1507,-550 1222.12,-532 1507,-514 1791.88,-532 1507,-550"/>
<text text-anchor="middle" x="1507" y="-528.3" font-family="Times,serif" font-size="14.00">localhost:3000#ServerID_2347d2f455dd</text>
</g>
<!-- 1_fwatchdog#ServerID_2347d2f455dd&#45;&gt;localhost:3000#ServerID_2347d2f455dd -->
<g id="edge9" class="edge"><title>1_fwatchdog#ServerID_2347d2f455dd&#45;&gt;localhost:3000#ServerID_2347d2f455dd</title>
<path fill="none" stroke="black" d="M1553.59,-600.951C1547.52,-595.566 1541.16,-589.354 1536,-583 1529.93,-575.532 1524.34,-566.642 1519.72,-558.443"/>
<polygon fill="black" stroke="black" points="1522.77,-556.731 1514.94,-549.594 1516.61,-560.056 1522.77,-556.731"/>
<text text-anchor="middle" x="1565" y="-571.8" font-family="Times,serif" font-size="14.00">connect</text>
</g>
<!-- 1_fwatchdog#ServerID_2347d2f455dd&#45;&gt;localhost:3000#ServerID_2347d2f455dd -->
<g id="edge12" class="edge"><title>1_fwatchdog#ServerID_2347d2f455dd&#45;&gt;localhost:3000#ServerID_2347d2f455dd</title>
<path fill="none" stroke="black" d="M1589.19,-600.856C1595.75,-590.741 1600.76,-578.003 1594,-568 1589.45,-561.265 1583.37,-555.826 1576.52,-551.434"/>
<polygon fill="black" stroke="black" points="1577.94,-548.217 1567.5,-546.411 1574.53,-554.333 1577.94,-548.217"/>
<text text-anchor="middle" x="1617" y="-571.8" font-family="Times,serif" font-size="14.00">write</text>
</g>
<!-- localhost:3000#ServerID_2347d2f455dd&#45;&gt;1_fwatchdog#ServerID_2347d2f455dd -->
<g id="edge11" class="edge"><title>localhost:3000#ServerID_2347d2f455dd&#45;&gt;1_fwatchdog#ServerID_2347d2f455dd</title>
<path fill="none" stroke="black" d="M1493.93,-549.254C1487.36,-559.524 1482.1,-572.742 1489,-583 1492.02,-587.483 1495.72,-591.392 1499.87,-594.8"/>
<polygon fill="black" stroke="black" points="1498.16,-597.876 1508.35,-600.757 1502.18,-592.147 1498.16,-597.876"/>
<text text-anchor="middle" x="1505.5" y="-571.8" font-family="Times,serif" font-size="14.00">read</text>
</g>
<!-- 13_node#ServerID_2347d2f455dd -->
<g id="node10" class="node"><title>13_node#ServerID_2347d2f455dd</title>
<polygon fill="none" stroke="black" points="2228.5,-442 1963.5,-442 1963.5,-406 2228.5,-406 2228.5,-442"/>
<text text-anchor="middle" x="2096" y="-420.3" font-family="Times,serif" font-size="14.00">13_node#ServerID_2347d2f455dd</text>
</g>
<!-- localhost:3000#ServerID_2347d2f455dd&#45;&gt;13_node#ServerID_2347d2f455dd -->
<g id="edge24" class="edge"><title>localhost:3000#ServerID_2347d2f455dd&#45;&gt;13_node#ServerID_2347d2f455dd</title>
<path fill="none" stroke="black" d="M1577.17,-518.372C1679.9,-499.883 1871.97,-465.318 1991.39,-443.826"/>
<polygon fill="black" stroke="black" points="1992.07,-447.261 2001.29,-442.045 1990.83,-440.371 1992.07,-447.261"/>
<text text-anchor="middle" x="1800.5" y="-484.8" font-family="Times,serif" font-size="14.00">read</text>
</g>
<!-- /etc/resolv.conf#ServerID_2347d2f455dd -->
<g id="node9" class="node"><title>/etc/resolv.conf#ServerID_2347d2f455dd</title>
<ellipse fill="none" stroke="black" cx="2390" cy="-532" rx="204.164" ry="18"/>
<text text-anchor="middle" x="2390" y="-528.3" font-family="Times,serif" font-size="14.00">/etc/resolv.conf#ServerID_2347d2f455dd</text>
</g>
<!-- /etc/resolv.conf#ServerID_2347d2f455dd&#45;&gt;13_node#ServerID_2347d2f455dd -->
<g id="edge10" class="edge"><title>/etc/resolv.conf#ServerID_2347d2f455dd&#45;&gt;13_node#ServerID_2347d2f455dd</title>
<path fill="none" stroke="black" d="M2344.06,-514.438C2292.57,-495.871 2209,-465.743 2153.29,-445.654"/>
<polygon fill="black" stroke="black" points="2154.16,-442.248 2143.56,-442.149 2151.78,-448.833 2154.16,-442.248"/>
<text text-anchor="middle" x="2303.5" y="-484.8" font-family="Times,serif" font-size="14.00">read</text>
</g>
<!-- 13_node#ServerID_2347d2f455dd&#45;&gt;gateway:8080#ServerID_OuterContainerID -->
<g id="edge17" class="edge"><title>13_node#ServerID_2347d2f455dd&#45;&gt;gateway:8080#ServerID_OuterContainerID</title>
<path fill="none" stroke="black" d="M1963.42,-411.012C1823.85,-398.964 1597.68,-381.059 1402,-373 1231.25,-365.967 803.334,-378.876 633,-365 551.862,-358.39 459.865,-343.367 396.719,-331.875"/>
<polygon fill="black" stroke="black" points="397.306,-328.424 386.838,-330.063 396.043,-335.31 397.306,-328.424"/>
<text text-anchor="middle" x="1680" y="-376.8" font-family="Times,serif" font-size="14.00">connect</text>
</g>
<!-- 10.152.183.10:53#ServerID_OuterContainerID -->
<g id="node12" class="node"><title>10.152.183.10:53#ServerID_OuterContainerID</title>
<polygon fill="none" stroke="black" points="2297,-334 1969.56,-316 2297,-298 2624.44,-316 2297,-334"/>
<text text-anchor="middle" x="2297" y="-312.3" font-family="Times,serif" font-size="14.00">10.152.183.10:53#ServerID_OuterContainerID</text>
</g>
<!-- 13_node#ServerID_2347d2f455dd&#45;&gt;10.152.183.10:53#ServerID_OuterContainerID -->
<g id="edge15" class="edge"><title>13_node#ServerID_2347d2f455dd&#45;&gt;10.152.183.10:53#ServerID_OuterContainerID</title>
<path fill="none" stroke="black" d="M2128.29,-405.969C2163.79,-387.248 2220.79,-357.191 2258.56,-337.27"/>
<polygon fill="black" stroke="black" points="2260.51,-340.198 2267.73,-332.437 2257.25,-334.006 2260.51,-340.198"/>
<text text-anchor="middle" x="2215.5" y="-376.8" font-family="Times,serif" font-size="14.00">sendto</text>
</g>
<!-- /etc/hosts#ServerID_2347d2f455dd -->
<g id="node11" class="node"><title>/etc/hosts#ServerID_2347d2f455dd</title>
<ellipse fill="none" stroke="black" cx="1989" cy="-532" rx="178.969" ry="18"/>
<text text-anchor="middle" x="1989" y="-528.3" font-family="Times,serif" font-size="14.00">/etc/hosts#ServerID_2347d2f455dd</text>
</g>
<!-- /etc/hosts#ServerID_2347d2f455dd&#45;&gt;13_node#ServerID_2347d2f455dd -->
<g id="edge13" class="edge"><title>/etc/hosts#ServerID_2347d2f455dd&#45;&gt;13_node#ServerID_2347d2f455dd</title>
<path fill="none" stroke="black" d="M2006.19,-513.969C2023.79,-496.533 2051.32,-469.263 2071.26,-449.508"/>
<polygon fill="black" stroke="black" points="2073.85,-451.865 2078.5,-442.341 2068.93,-446.892 2073.85,-451.865"/>
<text text-anchor="middle" x="2056.5" y="-484.8" font-family="Times,serif" font-size="14.00">read</text>
</g>
<!-- 10.152.183.10:53#ServerID_OuterContainerID&#45;&gt;13_node#ServerID_2347d2f455dd -->
<g id="edge16" class="edge"><title>10.152.183.10:53#ServerID_OuterContainerID&#45;&gt;13_node#ServerID_2347d2f455dd</title>
<path fill="none" stroke="black" d="M2288.91,-333.767C2280.13,-350.136 2264.57,-374.494 2244,-388 2235.39,-393.655 2225.96,-398.399 2216.17,-402.378"/>
<polygon fill="black" stroke="black" points="2214.8,-399.154 2206.68,-405.964 2217.27,-405.702 2214.8,-399.154"/>
<text text-anchor="middle" x="2294" y="-376.8" font-family="Times,serif" font-size="14.00">recvfrom</text>
</g>
<!-- localhost:3000#ServerID_7cf8268e6ab5 -->
<g id="node14" class="node"><title>localhost:3000#ServerID_7cf8268e6ab5</title>
<polygon fill="none" stroke="black" points="3603,-139 3319.8,-121 3603,-103 3886.2,-121 3603,-139"/>
<text text-anchor="middle" x="3603" y="-117.3" font-family="Times,serif" font-size="14.00">localhost:3000#ServerID_7cf8268e6ab5</text>
</g>
<!-- 1_fwatchdog#ServerID_7cf8268e6ab5&#45;&gt;localhost:3000#ServerID_7cf8268e6ab5 -->
<g id="edge19" class="edge"><title>1_fwatchdog#ServerID_7cf8268e6ab5&#45;&gt;localhost:3000#ServerID_7cf8268e6ab5</title>
<path fill="none" stroke="black" d="M3603,-189.799C3603,-178.163 3603,-162.548 3603,-149.237"/>
<polygon fill="black" stroke="black" points="3606.5,-149.175 3603,-139.175 3599.5,-149.175 3606.5,-149.175"/>
<text text-anchor="middle" x="3622" y="-160.8" font-family="Times,serif" font-size="14.00">write</text>
</g>
<!-- 1_fwatchdog#ServerID_7cf8268e6ab5&#45;&gt;localhost:3000#ServerID_7cf8268e6ab5 -->
<g id="edge20" class="edge"><title>1_fwatchdog#ServerID_7cf8268e6ab5&#45;&gt;localhost:3000#ServerID_7cf8268e6ab5</title>
<path fill="none" stroke="black" d="M3628.88,-189.874C3639.15,-180.804 3647.38,-169.064 3642,-157 3640.02,-152.56 3637.17,-148.449 3633.89,-144.723"/>
<polygon fill="black" stroke="black" points="3636.29,-142.175 3626.72,-137.632 3631.37,-147.152 3636.29,-142.175"/>
<text text-anchor="middle" x="3672" y="-160.8" font-family="Times,serif" font-size="14.00">connect</text>
</g>
<!-- pipe:[7845976]#ServerID_7cf8268e6ab5 -->
<g id="node16" class="node"><title>pipe:[7845976]#ServerID_7cf8268e6ab5</title>
<ellipse fill="none" stroke="black" cx="4106" cy="-121" rx="202.264" ry="18"/>
<text text-anchor="middle" x="4106" y="-117.3" font-family="Times,serif" font-size="14.00">pipe:[7845976]#ServerID_7cf8268e6ab5</text>
</g>
<!-- 1_fwatchdog#ServerID_7cf8268e6ab5&#45;&gt;pipe:[7845976]#ServerID_7cf8268e6ab5 -->
<g id="edge23" class="edge"><title>1_fwatchdog#ServerID_7cf8268e6ab5&#45;&gt;pipe:[7845976]#ServerID_7cf8268e6ab5</title>
<path fill="none" stroke="black" d="M3703.88,-189.952C3791.84,-175.089 3918.7,-153.652 4006.3,-138.848"/>
<polygon fill="black" stroke="black" points="4006.97,-142.284 4016.25,-137.167 4005.8,-135.382 4006.97,-142.284"/>
<text text-anchor="middle" x="3903" y="-160.8" font-family="Times,serif" font-size="14.00">write</text>
</g>
<!-- localhost:3000#ServerID_7cf8268e6ab5&#45;&gt;1_fwatchdog#ServerID_7cf8268e6ab5 -->
<g id="edge21" class="edge"><title>localhost:3000#ServerID_7cf8268e6ab5&#45;&gt;1_fwatchdog#ServerID_7cf8268e6ab5</title>
<path fill="none" stroke="black" d="M3579.9,-137.918C3569.5,-147.195 3560.62,-159.503 3566,-172 3567.57,-175.642 3569.72,-179.082 3572.21,-182.279"/>
<polygon fill="black" stroke="black" points="3569.62,-184.639 3578.93,-189.702 3574.81,-179.94 3569.62,-184.639"/>
<text text-anchor="middle" x="3582.5" y="-160.8" font-family="Times,serif" font-size="14.00">read</text>
</g>
<!-- 13_node#ServerID_7cf8268e6ab5 -->
<g id="node15" class="node"><title>13_node#ServerID_7cf8268e6ab5</title>
<polygon fill="none" stroke="black" points="3734.5,-52 3471.5,-52 3471.5,-16 3734.5,-16 3734.5,-52"/>
<text text-anchor="middle" x="3603" y="-30.3" font-family="Times,serif" font-size="14.00">13_node#ServerID_7cf8268e6ab5</text>
</g>
<!-- localhost:3000#ServerID_7cf8268e6ab5&#45;&gt;13_node#ServerID_7cf8268e6ab5 -->
<g id="edge22" class="edge"><title>localhost:3000#ServerID_7cf8268e6ab5&#45;&gt;13_node#ServerID_7cf8268e6ab5</title>
<path fill="none" stroke="black" d="M3603,-102.799C3603,-91.1626 3603,-75.5479 3603,-62.2368"/>
<polygon fill="black" stroke="black" points="3606.5,-62.1754 3603,-52.1754 3599.5,-62.1755 3606.5,-62.1754"/>
<text text-anchor="middle" x="3619.5" y="-73.8" font-family="Times,serif" font-size="14.00">read</text>
</g>
<!-- 10.1.80.1:1580#ServerID_OuterContainerID&#45;&gt;10.1.80.93:8080#ServerID_OuterContainerID -->
<g id="edge26" class="edge"><title>10.1.80.1:1580#ServerID_OuterContainerID&#45;&gt;10.1.80.93:8080#ServerID_OuterContainerID</title>
<path fill="none" stroke="black" d="M421.824,-223.442C474.63,-239.554 564.262,-265.284 643,-280 701.2,-290.877 766.069,-298.764 821.962,-304.266"/>
<polygon fill="black" stroke="black" points="821.638,-307.751 831.929,-305.231 822.313,-300.783 821.638,-307.751"/>
<text text-anchor="middle" x="663" y="-268.8" font-family="Times,serif" font-size="14.00">POST</text>
</g>
<!-- 10.1.80.1:14309#ServerID_OuterContainerID&#45;&gt;10.1.80.93:8080#ServerID_OuterContainerID -->
<g id="edge28" class="edge"><title>10.1.80.1:14309#ServerID_OuterContainerID&#45;&gt;10.1.80.93:8080#ServerID_OuterContainerID</title>
<path fill="none" stroke="black" d="M998.462,-224.562C984.966,-234.329 969.647,-248.242 962,-265 958.779,-272.06 957.685,-280.284 957.625,-288"/>
<polygon fill="black" stroke="black" points="954.131,-288.218 958.083,-298.048 961.124,-287.899 954.131,-288.218"/>
<text text-anchor="middle" x="982" y="-268.8" font-family="Times,serif" font-size="14.00">POST</text>
</g>
</g>
</svg>
