<?xml version="1.0" encoding="UTF-8" standalone="no"?>
<!DOCTYPE svg PUBLIC "-//W3C//DTD SVG 1.1//EN"
 "http://www.w3.org/Graphics/SVG/1.1/DTD/svg11.dtd">
<!-- Generated by graphviz version 2.38.0 (20140413.2041)
 -->
<!-- Title: G Pages: 1 -->
<svg width="6738pt" height="684pt"
 viewBox="0.00 0.00 6738.00 684.00" xmlns="http://www.w3.org/2000/svg" xmlns:xlink="http://www.w3.org/1999/xlink">
<g id="graph0" class="graph" transform="scale(1 1) rotate(0) translate(4 680)">
<title>G</title>
<polygon fill="white" stroke="none" points="-4,4 -4,-680 6734,-680 6734,4 -4,4"/>
<g id="clust1" class="cluster"><title>clusterServerID_6dcbcc88d5&#45;j9zwp</title>
<polygon fill="none" stroke="black" points="2148,-398 2148,-473 2490,-473 2490,-398 2148,-398"/>
<text text-anchor="middle" x="2319" y="-457.8" font-family="Times,serif" font-size="14.00">clusterServerID_6dcbcc88d5&#45;j9zwp</text>
</g>
<g id="clust2" class="cluster"><title>clusterServerID_736074b81582</title>
<polygon fill="none" stroke="black" points="3984,-290 3984,-668 5388,-668 5388,-290 3984,-290"/>
<text text-anchor="middle" x="4686" y="-652.8" font-family="Times,serif" font-size="14.00">clusterServerID_736074b81582</text>
</g>
<g id="clust3" class="cluster"><title>clusterServerID_76c96688d7&#45;jnp5f</title>
<polygon fill="none" stroke="black" points="5340,-182 5340,-257 5680,-257 5680,-182 5340,-182"/>
<text text-anchor="middle" x="5510" y="-241.8" font-family="Times,serif" font-size="14.00">clusterServerID_76c96688d7&#45;jnp5f</text>
</g>
<g id="clust4" class="cluster"><title>clusterServerID_834d81eb81b3</title>
<polygon fill="none" stroke="black" points="5688,-95 5688,-257 6722,-257 6722,-95 5688,-95"/>
<text text-anchor="middle" x="6205" y="-241.8" font-family="Times,serif" font-size="14.00">clusterServerID_834d81eb81b3</text>
</g>
<g id="clust5" class="cluster"><title>clusterServerID_8665dd9487&#45;fclr8</title>
<polygon fill="none" stroke="black" points="3984,-182 3984,-257 4320,-257 4320,-182 3984,-182"/>
<text text-anchor="middle" x="4152" y="-241.8" font-family="Times,serif" font-size="14.00">clusterServerID_8665dd9487&#45;fclr8</text>
</g>
<g id="clust6" class="cluster"><title>clusterServerID_86aa7f3fa3b0</title>
<polygon fill="none" stroke="black" points="4328,-8 4328,-257 5332,-257 5332,-8 4328,-8"/>
<text text-anchor="middle" x="4830" y="-241.8" font-family="Times,serif" font-size="14.00">clusterServerID_86aa7f3fa3b0</text>
</g>
<g id="clust7" class="cluster"><title>clusterServerID_OuterContainerID</title>
<polygon fill="none" stroke="black" points="8,-182 8,-365 3976,-365 3976,-182 8,-182"/>
<text text-anchor="middle" x="1992" y="-349.8" font-family="Times,serif" font-size="14.00">clusterServerID_OuterContainerID</text>
</g>
<!-- 1_fwatchdog#ServerID_6dcbcc88d5&#45;j9zwp -->
<g id="node1" class="node"><title>1_fwatchdog#ServerID_6dcbcc88d5&#45;j9zwp</title>
<polygon fill="none" stroke="black" points="2482,-442 2156,-442 2156,-406 2482,-406 2482,-442"/>
<text text-anchor="middle" x="2319" y="-420.3" font-family="Times,serif" font-size="14.00">1_fwatchdog#ServerID_6dcbcc88d5&#45;j9zwp</text>
</g>
<!-- gateway:8080#ServerID_OuterContainerID -->
<g id="node2" class="node"><title>gateway:8080#ServerID_OuterContainerID</title>
<polygon fill="none" stroke="black" points="2320,-334 2015.52,-316 2320,-298 2624.48,-316 2320,-334"/>
<text text-anchor="middle" x="2320" y="-312.3" font-family="Times,serif" font-size="14.00">gateway:8080#ServerID_OuterContainerID</text>
</g>
<!-- 1_fwatchdog#ServerID_6dcbcc88d5&#45;j9zwp&#45;&gt;gateway:8080#ServerID_OuterContainerID -->
<g id="edge1" class="edge"><title>1_fwatchdog#ServerID_6dcbcc88d5&#45;j9zwp&#45;&gt;gateway:8080#ServerID_OuterContainerID</title>
<path fill="none" stroke="black" d="M2300.04,-405.736C2295.56,-400.523 2291.39,-394.455 2289,-388 2286.69,-381.747 2287.33,-379.455 2289,-373 2291.75,-362.348 2297.01,-351.56 2302.43,-342.334"/>
<polygon fill="black" stroke="black" points="2305.49,-344.03 2307.81,-333.692 2299.55,-340.33 2305.49,-344.03"/>
<text text-anchor="middle" x="2309" y="-376.8" font-family="Times,serif" font-size="14.00">POST</text>
</g>
<!-- 10.1.80.93:8080#ServerID_OuterContainerID -->
<g id="node3" class="node"><title>10.1.80.93:8080#ServerID_OuterContainerID</title>
<polygon fill="none" stroke="black" points="335,-334 16.1049,-316 335,-298 653.895,-316 335,-334"/>
<text text-anchor="middle" x="335" y="-312.3" font-family="Times,serif" font-size="14.00">10.1.80.93:8080#ServerID_OuterContainerID</text>
</g>
<!-- 1_fwatchdog#ServerID_6dcbcc88d5&#45;j9zwp&#45;&gt;10.1.80.93:8080#ServerID_OuterContainerID -->
<g id="edge3" class="edge"><title>1_fwatchdog#ServerID_6dcbcc88d5&#45;j9zwp&#45;&gt;10.1.80.93:8080#ServerID_OuterContainerID</title>
<path fill="none" stroke="black" d="M2155.99,-421.263C1827.02,-417.406 1093.72,-406.94 843,-388 691.904,-376.586 517.237,-348.978 417.086,-331.746"/>
<polygon fill="black" stroke="black" points="417.486,-328.263 407.035,-330.008 416.293,-335.161 417.486,-328.263"/>
<text text-anchor="middle" x="863" y="-376.8" font-family="Times,serif" font-size="14.00">POST</text>
</g>
<!-- 10.1.80.93:39544#ServerID_OuterContainerID -->
<g id="node4" class="node"><title>10.1.80.93:39544#ServerID_OuterContainerID</title>
<polygon fill="none" stroke="black" points="2969,-334 2641.56,-316 2969,-298 3296.44,-316 2969,-334"/>
<text text-anchor="middle" x="2969" y="-312.3" font-family="Times,serif" font-size="14.00">10.1.80.93:39544#ServerID_OuterContainerID</text>
</g>
<!-- 1_fwatchdog#ServerID_6dcbcc88d5&#45;j9zwp&#45;&gt;10.1.80.93:39544#ServerID_OuterContainerID -->
<g id="edge10" class="edge"><title>1_fwatchdog#ServerID_6dcbcc88d5&#45;j9zwp&#45;&gt;10.1.80.93:39544#ServerID_OuterContainerID</title>
<path fill="none" stroke="black" d="M2482.09,-411.215C2541.19,-405.754 2608.32,-398.168 2669,-388 2752.75,-373.965 2847.93,-350.054 2908.2,-333.9"/>
<polygon fill="black" stroke="black" points="2909.18,-337.258 2917.93,-331.277 2907.36,-330.5 2909.18,-337.258"/>
<text text-anchor="middle" x="2786" y="-376.8" font-family="Times,serif" font-size="14.00">RESPONSE</text>
</g>
<!-- gateway:8080#ServerID_OuterContainerID&#45;&gt;1_fwatchdog#ServerID_6dcbcc88d5&#45;j9zwp -->
<g id="edge7" class="edge"><title>gateway:8080#ServerID_OuterContainerID&#45;&gt;1_fwatchdog#ServerID_6dcbcc88d5&#45;j9zwp</title>
<path fill="none" stroke="black" d="M2324.68,-333.944C2328.05,-348.339 2331.59,-369.543 2329,-388 2328.64,-390.574 2328.14,-393.224 2327.55,-395.859"/>
<polygon fill="black" stroke="black" points="2324.1,-395.198 2324.96,-405.759 2330.87,-396.971 2324.1,-395.198"/>
<text text-anchor="middle" x="2372" y="-376.8" font-family="Times,serif" font-size="14.00">RESPONSE</text>
</g>
<!-- 10.1.80.93:8080#ServerID_OuterContainerID&#45;&gt;1_fwatchdog#ServerID_6dcbcc88d5&#45;j9zwp -->
<g id="edge2" class="edge"><title>10.1.80.93:8080#ServerID_OuterContainerID&#45;&gt;1_fwatchdog#ServerID_6dcbcc88d5&#45;j9zwp</title>
<path fill="none" stroke="black" d="M407.357,-329.933C473.638,-341.22 574.588,-357.007 663,-365 699.513,-368.301 1728.47,-403.14 2145.73,-417.182"/>
<polygon fill="black" stroke="black" points="2145.66,-420.682 2155.77,-417.52 2145.89,-413.686 2145.66,-420.682"/>
<text text-anchor="middle" x="1308" y="-376.8" font-family="Times,serif" font-size="14.00">RESPONSE</text>
</g>
<!-- 10.1.80.1:18458#ServerID_OuterContainerID -->
<g id="node23" class="node"><title>10.1.80.1:18458#ServerID_OuterContainerID</title>
<polygon fill="none" stroke="black" points="335,-226 16.1049,-208 335,-190 653.895,-208 335,-226"/>
<text text-anchor="middle" x="335" y="-204.3" font-family="Times,serif" font-size="14.00">10.1.80.1:18458#ServerID_OuterContainerID</text>
</g>
<!-- 10.1.80.93:8080#ServerID_OuterContainerID&#45;&gt;10.1.80.1:18458#ServerID_OuterContainerID -->
<g id="edge32" class="edge"><title>10.1.80.93:8080#ServerID_OuterContainerID&#45;&gt;10.1.80.1:18458#ServerID_OuterContainerID</title>
<path fill="none" stroke="black" d="M298.241,-299.99C290.168,-294.888 282.649,-288.31 278,-280 267.985,-262.099 282.769,-244.102 299.784,-230.707"/>
<polygon fill="black" stroke="black" points="302.224,-233.258 308.218,-224.522 298.084,-227.614 302.224,-233.258"/>
<text text-anchor="middle" x="320" y="-268.8" font-family="Times,serif" font-size="14.00">RESPONSE</text>
</g>
<!-- 10.0.88.125:31112#ServerID_OuterContainerID -->
<g id="node24" class="node"><title>10.0.88.125:31112#ServerID_OuterContainerID</title>
<polygon fill="none" stroke="black" points="1007,-226 671.515,-208 1007,-190 1342.48,-208 1007,-226"/>
<text text-anchor="middle" x="1007" y="-204.3" font-family="Times,serif" font-size="14.00">10.0.88.125:31112#ServerID_OuterContainerID</text>
</g>
<!-- 10.1.80.93:8080#ServerID_OuterContainerID&#45;&gt;10.0.88.125:31112#ServerID_OuterContainerID -->
<g id="edge33" class="edge"><title>10.1.80.93:8080#ServerID_OuterContainerID&#45;&gt;10.0.88.125:31112#ServerID_OuterContainerID</title>
<path fill="none" stroke="black" d="M414.394,-302.476C540.059,-282.654 784.064,-244.166 916.392,-223.292"/>
<polygon fill="black" stroke="black" points="917.17,-226.713 926.503,-221.698 916.079,-219.798 917.17,-226.713"/>
<text text-anchor="middle" x="693" y="-268.8" font-family="Times,serif" font-size="14.00">RESPONSE</text>
</g>
<!-- 10.1.80.93:39544#ServerID_OuterContainerID&#45;&gt;1_fwatchdog#ServerID_6dcbcc88d5&#45;j9zwp -->
<g id="edge4" class="edge"><title>10.1.80.93:39544#ServerID_OuterContainerID&#45;&gt;1_fwatchdog#ServerID_6dcbcc88d5&#45;j9zwp</title>
<path fill="none" stroke="black" d="M2890.86,-329.743C2777.06,-348.301 2565,-382.883 2433.54,-404.321"/>
<polygon fill="black" stroke="black" points="2432.74,-400.905 2423.43,-405.969 2433.87,-407.814 2432.74,-400.905"/>
<text text-anchor="middle" x="2645" y="-376.8" font-family="Times,serif" font-size="14.00">POST</text>
</g>
<!-- 1_fwatchdog#ServerID_736074b81582 -->
<g id="node9" class="node"><title>1_fwatchdog#ServerID_736074b81582</title>
<polygon fill="none" stroke="black" points="4906,-637 4606,-637 4606,-601 4906,-601 4906,-637"/>
<text text-anchor="middle" x="4756" y="-615.3" font-family="Times,serif" font-size="14.00">1_fwatchdog#ServerID_736074b81582</text>
</g>
<!-- 10.1.80.93:39544#ServerID_OuterContainerID&#45;&gt;1_fwatchdog#ServerID_736074b81582 -->
<g id="edge12" class="edge"><title>10.1.80.93:39544#ServerID_OuterContainerID&#45;&gt;1_fwatchdog#ServerID_736074b81582</title>
<path fill="none" stroke="black" d="M3040.79,-330.093C3108.62,-341.786 3213.34,-358.102 3305,-365 3517.74,-381.01 4052.13,-358.81 4265,-373 4516.18,-389.744 5222.44,-325.243 5389,-514 5399.59,-525.997 5399.69,-538.097 5389,-550 5357.89,-584.632 5093.56,-603.133 4916.46,-611.734"/>
<polygon fill="black" stroke="black" points="4916.07,-608.249 4906.25,-612.224 4916.4,-615.241 4916.07,-608.249"/>
<text text-anchor="middle" x="5384.5" y="-484.8" font-family="Times,serif" font-size="14.00">read</text>
</g>
<!-- 10.1.80.93:35312#ServerID_OuterContainerID -->
<g id="node5" class="node"><title>10.1.80.93:35312#ServerID_OuterContainerID</title>
<polygon fill="none" stroke="black" points="999,-334 671.56,-316 999,-298 1326.44,-316 999,-334"/>
<text text-anchor="middle" x="999" y="-312.3" font-family="Times,serif" font-size="14.00">10.1.80.93:35312#ServerID_OuterContainerID</text>
</g>
<!-- 1_fwatchdog#ServerID_8665dd9487&#45;fclr8 -->
<g id="node6" class="node"><title>1_fwatchdog#ServerID_8665dd9487&#45;fclr8</title>
<polygon fill="none" stroke="black" points="4312,-226 3992,-226 3992,-190 4312,-190 4312,-226"/>
<text text-anchor="middle" x="4152" y="-204.3" font-family="Times,serif" font-size="14.00">1_fwatchdog#ServerID_8665dd9487&#45;fclr8</text>
</g>
<!-- 10.1.80.93:35312#ServerID_OuterContainerID&#45;&gt;1_fwatchdog#ServerID_8665dd9487&#45;fclr8 -->
<g id="edge5" class="edge"><title>10.1.80.93:35312#ServerID_OuterContainerID&#45;&gt;1_fwatchdog#ServerID_8665dd9487&#45;fclr8</title>
<path fill="none" stroke="black" d="M1122.2,-304.727C1185.73,-299.711 1264.48,-293.926 1335,-290 1635.18,-273.287 1710.41,-271.167 2011,-265 2065.68,-263.878 3925.83,-264.53 3980,-257 4018.82,-251.604 4061.25,-239.832 4094.25,-229.297"/>
<polygon fill="black" stroke="black" points="4095.74,-232.492 4104.17,-226.075 4093.58,-225.834 4095.74,-232.492"/>
<text text-anchor="middle" x="2031" y="-268.8" font-family="Times,serif" font-size="14.00">POST</text>
</g>
<!-- 1_fwatchdog#ServerID_86aa7f3fa3b0 -->
<g id="node16" class="node"><title>1_fwatchdog#ServerID_86aa7f3fa3b0</title>
<polygon fill="none" stroke="black" points="4760,-226 4470,-226 4470,-190 4760,-190 4760,-226"/>
<text text-anchor="middle" x="4615" y="-204.3" font-family="Times,serif" font-size="14.00">1_fwatchdog#ServerID_86aa7f3fa3b0</text>
</g>
<!-- 10.1.80.93:35312#ServerID_OuterContainerID&#45;&gt;1_fwatchdog#ServerID_86aa7f3fa3b0 -->
<g id="edge19" class="edge"><title>10.1.80.93:35312#ServerID_OuterContainerID&#45;&gt;1_fwatchdog#ServerID_86aa7f3fa3b0</title>
<path fill="none" stroke="black" d="M1117.08,-304.466C1181.44,-299.164 1262.54,-293.199 1335,-290 1652.94,-275.964 1733.37,-299.948 2051,-280 2110.81,-276.244 2125.17,-268.45 2185,-265 2422.27,-251.316 4087.16,-276.848 4324,-257 4391.27,-251.363 4466.43,-238.802 4523.51,-227.943"/>
<polygon fill="black" stroke="black" points="4524.43,-231.331 4533.59,-226.008 4523.11,-224.456 4524.43,-231.331"/>
<text text-anchor="middle" x="2201.5" y="-268.8" font-family="Times,serif" font-size="14.00">read</text>
</g>
<!-- 1_fwatchdog#ServerID_8665dd9487&#45;fclr8&#45;&gt;10.1.80.93:35312#ServerID_OuterContainerID -->
<g id="edge6" class="edge"><title>1_fwatchdog#ServerID_8665dd9487&#45;fclr8&#45;&gt;10.1.80.93:35312#ServerID_OuterContainerID</title>
<path fill="none" stroke="black" d="M4104.17,-226.087C4070.06,-237.346 4022.84,-251.066 3980,-257 3910.22,-266.666 1514.33,-260.95 1444,-265 1322.93,-271.972 1184.18,-289.012 1094.25,-301.261"/>
<polygon fill="black" stroke="black" points="1093.51,-297.83 1084.08,-302.655 1094.46,-304.766 1093.51,-297.83"/>
<text text-anchor="middle" x="1486" y="-268.8" font-family="Times,serif" font-size="14.00">RESPONSE</text>
</g>
<!-- 10.1.80.93:42388#ServerID_OuterContainerID -->
<g id="node7" class="node"><title>10.1.80.93:42388#ServerID_OuterContainerID</title>
<polygon fill="none" stroke="black" points="1671,-334 1343.56,-316 1671,-298 1998.44,-316 1671,-334"/>
<text text-anchor="middle" x="1671" y="-312.3" font-family="Times,serif" font-size="14.00">10.1.80.93:42388#ServerID_OuterContainerID</text>
</g>
<!-- 1_fwatchdog#ServerID_76c96688d7&#45;jnp5f -->
<g id="node8" class="node"><title>1_fwatchdog#ServerID_76c96688d7&#45;jnp5f</title>
<polygon fill="none" stroke="black" points="5671.5,-226 5348.5,-226 5348.5,-190 5671.5,-190 5671.5,-226"/>
<text text-anchor="middle" x="5510" y="-204.3" font-family="Times,serif" font-size="14.00">1_fwatchdog#ServerID_76c96688d7&#45;jnp5f</text>
</g>
<!-- 10.1.80.93:42388#ServerID_OuterContainerID&#45;&gt;1_fwatchdog#ServerID_76c96688d7&#45;jnp5f -->
<g id="edge8" class="edge"><title>10.1.80.93:42388#ServerID_OuterContainerID&#45;&gt;1_fwatchdog#ServerID_76c96688d7&#45;jnp5f</title>
<path fill="none" stroke="black" d="M1788.29,-304.413C1852.78,-299.061 1934.24,-293.064 2007,-290 2376.58,-274.435 4969.69,-308.449 5336,-257 5375.26,-251.486 5418.21,-239.699 5451.62,-229.186"/>
<polygon fill="black" stroke="black" points="5452.76,-232.496 5461.22,-226.117 5450.63,-225.828 5452.76,-232.496"/>
<text text-anchor="middle" x="5267" y="-268.8" font-family="Times,serif" font-size="14.00">POST</text>
</g>
<!-- 1_fwatchdog#ServerID_834d81eb81b3 -->
<g id="node20" class="node"><title>1_fwatchdog#ServerID_834d81eb81b3</title>
<polygon fill="none" stroke="black" points="6133.5,-226 5834.5,-226 5834.5,-190 6133.5,-190 6133.5,-226"/>
<text text-anchor="middle" x="5984" y="-204.3" font-family="Times,serif" font-size="14.00">1_fwatchdog#ServerID_834d81eb81b3</text>
</g>
<!-- 10.1.80.93:42388#ServerID_OuterContainerID&#45;&gt;1_fwatchdog#ServerID_834d81eb81b3 -->
<g id="edge29" class="edge"><title>10.1.80.93:42388#ServerID_OuterContainerID&#45;&gt;1_fwatchdog#ServerID_834d81eb81b3</title>
<path fill="none" stroke="black" d="M1786.73,-304.346C1851.46,-298.901 1933.64,-292.837 2007,-290 2371.62,-275.898 4926.28,-291.219 5291,-280 5465.88,-274.62 5510.06,-275.956 5684,-257 5750.54,-249.748 5824.84,-237.89 5882.84,-227.775"/>
<polygon fill="black" stroke="black" points="5883.5,-231.213 5892.74,-226.038 5882.29,-224.319 5883.5,-231.213"/>
<text text-anchor="middle" x="5618.5" y="-268.8" font-family="Times,serif" font-size="14.00">read</text>
</g>
<!-- 1_fwatchdog#ServerID_76c96688d7&#45;jnp5f&#45;&gt;10.1.80.93:42388#ServerID_OuterContainerID -->
<g id="edge9" class="edge"><title>1_fwatchdog#ServerID_76c96688d7&#45;jnp5f&#45;&gt;10.1.80.93:42388#ServerID_OuterContainerID</title>
<path fill="none" stroke="black" d="M5461.22,-226.117C5426.73,-237.311 5379.13,-250.942 5336,-257 5313.11,-260.216 2030.1,-289.027 2007,-290 1938.08,-292.903 1861.35,-298.437 1798.63,-303.562"/>
<polygon fill="black" stroke="black" points="1797.97,-300.104 1788.29,-304.413 1798.55,-307.08 1797.97,-300.104"/>
<text text-anchor="middle" x="4654" y="-268.8" font-family="Times,serif" font-size="14.00">RESPONSE</text>
</g>
<!-- localhost:3000#ServerID_736074b81582 -->
<g id="node10" class="node"><title>localhost:3000#ServerID_736074b81582</title>
<polygon fill="none" stroke="black" points="4281,-550 3992.27,-532 4281,-514 4569.73,-532 4281,-550"/>
<text text-anchor="middle" x="4281" y="-528.3" font-family="Times,serif" font-size="14.00">localhost:3000#ServerID_736074b81582</text>
</g>
<!-- 1_fwatchdog#ServerID_736074b81582&#45;&gt;localhost:3000#ServerID_736074b81582 -->
<g id="edge11" class="edge"><title>1_fwatchdog#ServerID_736074b81582&#45;&gt;localhost:3000#ServerID_736074b81582</title>
<path fill="none" stroke="black" d="M4660.73,-600.952C4573.03,-585.258 4444.36,-562.233 4361.63,-547.428"/>
<polygon fill="black" stroke="black" points="4362.23,-543.981 4351.77,-545.665 4361,-550.872 4362.23,-543.981"/>
<text text-anchor="middle" x="4566" y="-571.8" font-family="Times,serif" font-size="14.00">write</text>
</g>
<!-- 10_node#ServerID_736074b81582 -->
<g id="node11" class="node"><title>10_node#ServerID_736074b81582</title>
<polygon fill="none" stroke="black" points="4357.5,-442 4088.5,-442 4088.5,-406 4357.5,-406 4357.5,-442"/>
<text text-anchor="middle" x="4223" y="-420.3" font-family="Times,serif" font-size="14.00">10_node#ServerID_736074b81582</text>
</g>
<!-- localhost:3000#ServerID_736074b81582&#45;&gt;10_node#ServerID_736074b81582 -->
<g id="edge30" class="edge"><title>localhost:3000#ServerID_736074b81582&#45;&gt;10_node#ServerID_736074b81582</title>
<path fill="none" stroke="black" d="M4271.94,-514.438C4262.64,-497.447 4248.05,-470.774 4237.21,-450.973"/>
<polygon fill="black" stroke="black" points="4240.25,-449.241 4232.38,-442.149 4234.11,-452.601 4240.25,-449.241"/>
<text text-anchor="middle" x="4277.5" y="-484.8" font-family="Times,serif" font-size="14.00">read</text>
</g>
<!-- 10_node#ServerID_736074b81582&#45;&gt;gateway:8080#ServerID_OuterContainerID -->
<g id="edge18" class="edge"><title>10_node#ServerID_736074b81582&#45;&gt;gateway:8080#ServerID_OuterContainerID</title>
<path fill="none" stroke="black" d="M4088.17,-418.184C3707.53,-404.575 2651.03,-366.706 2633,-365 2552.86,-357.419 2462.01,-342.809 2398.91,-331.689"/>
<polygon fill="black" stroke="black" points="2399.48,-328.236 2389.02,-329.936 2398.26,-335.129 2399.48,-328.236"/>
<text text-anchor="middle" x="3278" y="-376.8" font-family="Times,serif" font-size="14.00">connect</text>
</g>
<!-- pipe:[20744134]#ServerID_736074b81582 -->
<g id="node12" class="node"><title>pipe:[20744134]#ServerID_736074b81582</title>
<ellipse fill="none" stroke="black" cx="4223" cy="-316" rx="211.762" ry="18"/>
<text text-anchor="middle" x="4223" y="-312.3" font-family="Times,serif" font-size="14.00">pipe:[20744134]#ServerID_736074b81582</text>
</g>
<!-- 10_node#ServerID_736074b81582&#45;&gt;pipe:[20744134]#ServerID_736074b81582 -->
<g id="edge13" class="edge"><title>10_node#ServerID_736074b81582&#45;&gt;pipe:[20744134]#ServerID_736074b81582</title>
<path fill="none" stroke="black" d="M4223,-405.969C4223,-389.378 4223,-363.883 4223,-344.431"/>
<polygon fill="black" stroke="black" points="4226.5,-344.341 4223,-334.341 4219.5,-344.341 4226.5,-344.341"/>
<text text-anchor="middle" x="4242" y="-376.8" font-family="Times,serif" font-size="14.00">write</text>
</g>
<!-- 10.152.183.10:53#ServerID_OuterContainerID -->
<g id="node13" class="node"><title>10.152.183.10:53#ServerID_OuterContainerID</title>
<polygon fill="none" stroke="black" points="3641,-334 3313.56,-316 3641,-298 3968.44,-316 3641,-334"/>
<text text-anchor="middle" x="3641" y="-312.3" font-family="Times,serif" font-size="14.00">10.152.183.10:53#ServerID_OuterContainerID</text>
</g>
<!-- 10_node#ServerID_736074b81582&#45;&gt;10.152.183.10:53#ServerID_OuterContainerID -->
<g id="edge17" class="edge"><title>10_node#ServerID_736074b81582&#45;&gt;10.152.183.10:53#ServerID_OuterContainerID</title>
<path fill="none" stroke="black" d="M4088.24,-413.517C4029.22,-408.083 3959.34,-399.909 3897,-388 3826.14,-374.464 3746.3,-350.962 3694.91,-334.727"/>
<polygon fill="black" stroke="black" points="3695.92,-331.378 3685.33,-331.683 3693.8,-338.049 3695.92,-331.378"/>
<text text-anchor="middle" x="3921.5" y="-376.8" font-family="Times,serif" font-size="14.00">sendto</text>
</g>
<!-- 10.152.183.10:53#ServerID_OuterContainerID&#45;&gt;10_node#ServerID_736074b81582 -->
<g id="edge14" class="edge"><title>10.152.183.10:53#ServerID_OuterContainerID&#45;&gt;10_node#ServerID_736074b81582</title>
<path fill="none" stroke="black" d="M3712.7,-330.059C3814.71,-348.638 4002.32,-382.808 4119.44,-404.138"/>
<polygon fill="black" stroke="black" points="4119.03,-407.621 4129.49,-405.969 4120.28,-400.734 4119.03,-407.621"/>
<text text-anchor="middle" x="4052" y="-376.8" font-family="Times,serif" font-size="14.00">recvfrom</text>
</g>
<!-- /etc/hosts#ServerID_736074b81582 -->
<g id="node14" class="node"><title>/etc/hosts#ServerID_736074b81582</title>
<ellipse fill="none" stroke="black" cx="5199" cy="-532" rx="180.868" ry="18"/>
<text text-anchor="middle" x="5199" y="-528.3" font-family="Times,serif" font-size="14.00">/etc/hosts#ServerID_736074b81582</text>
</g>
<!-- /etc/hosts#ServerID_736074b81582&#45;&gt;10_node#ServerID_736074b81582 -->
<g id="edge15" class="edge"><title>/etc/hosts#ServerID_736074b81582&#45;&gt;10_node#ServerID_736074b81582</title>
<path fill="none" stroke="black" d="M5081.76,-518.267C4902.78,-498.829 4561.82,-461.798 4367.7,-440.715"/>
<polygon fill="black" stroke="black" points="4368.03,-437.231 4357.71,-439.63 4367.27,-444.19 4368.03,-437.231"/>
<text text-anchor="middle" x="4872.5" y="-484.8" font-family="Times,serif" font-size="14.00">read</text>
</g>
<!-- /etc/resolv.conf#ServerID_736074b81582 -->
<g id="node15" class="node"><title>/etc/resolv.conf#ServerID_736074b81582</title>
<ellipse fill="none" stroke="black" cx="4794" cy="-532" rx="206.063" ry="18"/>
<text text-anchor="middle" x="4794" y="-528.3" font-family="Times,serif" font-size="14.00">/etc/resolv.conf#ServerID_736074b81582</text>
</g>
<!-- /etc/resolv.conf#ServerID_736074b81582&#45;&gt;10_node#ServerID_736074b81582 -->
<g id="edge16" class="edge"><title>/etc/resolv.conf#ServerID_736074b81582&#45;&gt;10_node#ServerID_736074b81582</title>
<path fill="none" stroke="black" d="M4710.67,-515.53C4608.46,-496.556 4435.26,-464.403 4325.14,-443.961"/>
<polygon fill="black" stroke="black" points="4325.49,-440.466 4315.02,-442.082 4324.21,-447.348 4325.49,-440.466"/>
<text text-anchor="middle" x="4610.5" y="-484.8" font-family="Times,serif" font-size="14.00">read</text>
</g>
<!-- localhost:3000#ServerID_86aa7f3fa3b0 -->
<g id="node17" class="node"><title>localhost:3000#ServerID_86aa7f3fa3b0</title>
<polygon fill="none" stroke="black" points="4615,-139 4335.65,-121 4615,-103 4894.35,-121 4615,-139"/>
<text text-anchor="middle" x="4615" y="-117.3" font-family="Times,serif" font-size="14.00">localhost:3000#ServerID_86aa7f3fa3b0</text>
</g>
<!-- 1_fwatchdog#ServerID_86aa7f3fa3b0&#45;&gt;localhost:3000#ServerID_86aa7f3fa3b0 -->
<g id="edge20" class="edge"><title>1_fwatchdog#ServerID_86aa7f3fa3b0&#45;&gt;localhost:3000#ServerID_86aa7f3fa3b0</title>
<path fill="none" stroke="black" d="M4554.1,-189.782C4546.55,-185.18 4539.81,-179.359 4535,-172 4526,-158.237 4536.36,-147.579 4552.29,-139.707"/>
<polygon fill="black" stroke="black" points="4553.87,-142.837 4561.62,-135.618 4551.06,-136.425 4553.87,-142.837"/>
<text text-anchor="middle" x="4564" y="-160.8" font-family="Times,serif" font-size="14.00">connect</text>
</g>
<!-- 1_fwatchdog#ServerID_86aa7f3fa3b0&#45;&gt;localhost:3000#ServerID_86aa7f3fa3b0 -->
<g id="edge21" class="edge"><title>1_fwatchdog#ServerID_86aa7f3fa3b0&#45;&gt;localhost:3000#ServerID_86aa7f3fa3b0</title>
<path fill="none" stroke="black" d="M4615,-189.799C4615,-178.163 4615,-162.548 4615,-149.237"/>
<polygon fill="black" stroke="black" points="4618.5,-149.175 4615,-139.175 4611.5,-149.175 4618.5,-149.175"/>
<text text-anchor="middle" x="4634" y="-160.8" font-family="Times,serif" font-size="14.00">write</text>
</g>
<!-- pipe:[20744110]#ServerID_86aa7f3fa3b0 -->
<g id="node19" class="node"><title>pipe:[20744110]#ServerID_86aa7f3fa3b0</title>
<ellipse fill="none" stroke="black" cx="5118" cy="-121" rx="206.063" ry="18"/>
<text text-anchor="middle" x="5118" y="-117.3" font-family="Times,serif" font-size="14.00">pipe:[20744110]#ServerID_86aa7f3fa3b0</text>
</g>
<!-- 1_fwatchdog#ServerID_86aa7f3fa3b0&#45;&gt;pipe:[20744110]#ServerID_86aa7f3fa3b0 -->
<g id="edge24" class="edge"><title>1_fwatchdog#ServerID_86aa7f3fa3b0&#45;&gt;pipe:[20744110]#ServerID_86aa7f3fa3b0</title>
<path fill="none" stroke="black" d="M4715.88,-189.952C4803.7,-175.113 4930.3,-153.719 5017.89,-138.918"/>
<polygon fill="black" stroke="black" points="5018.56,-142.354 5027.83,-137.237 5017.39,-135.452 5018.56,-142.354"/>
<text text-anchor="middle" x="4916" y="-160.8" font-family="Times,serif" font-size="14.00">write</text>
</g>
<!-- localhost:3000#ServerID_86aa7f3fa3b0&#45;&gt;1_fwatchdog#ServerID_86aa7f3fa3b0 -->
<g id="edge22" class="edge"><title>localhost:3000#ServerID_86aa7f3fa3b0&#45;&gt;1_fwatchdog#ServerID_86aa7f3fa3b0</title>
<path fill="none" stroke="black" d="M4639.07,-137.567C4650.14,-146.827 4659.7,-159.232 4654,-172 4652.34,-175.726 4650.06,-179.22 4647.44,-182.45"/>
<polygon fill="black" stroke="black" points="4644.7,-180.253 4640.35,-189.914 4649.77,-185.074 4644.7,-180.253"/>
<text text-anchor="middle" x="4672.5" y="-160.8" font-family="Times,serif" font-size="14.00">read</text>
</g>
<!-- 10_node#ServerID_86aa7f3fa3b0 -->
<g id="node18" class="node"><title>10_node#ServerID_86aa7f3fa3b0</title>
<polygon fill="none" stroke="black" points="4744.5,-52 4485.5,-52 4485.5,-16 4744.5,-16 4744.5,-52"/>
<text text-anchor="middle" x="4615" y="-30.3" font-family="Times,serif" font-size="14.00">10_node#ServerID_86aa7f3fa3b0</text>
</g>
<!-- localhost:3000#ServerID_86aa7f3fa3b0&#45;&gt;10_node#ServerID_86aa7f3fa3b0 -->
<g id="edge23" class="edge"><title>localhost:3000#ServerID_86aa7f3fa3b0&#45;&gt;10_node#ServerID_86aa7f3fa3b0</title>
<path fill="none" stroke="black" d="M4615,-102.799C4615,-91.1626 4615,-75.5479 4615,-62.2368"/>
<polygon fill="black" stroke="black" points="4618.5,-62.1754 4615,-52.1754 4611.5,-62.1755 4618.5,-62.1754"/>
<text text-anchor="middle" x="4631.5" y="-73.8" font-family="Times,serif" font-size="14.00">read</text>
</g>
<!-- localhost:3000#ServerID_834d81eb81b3 -->
<g id="node21" class="node"><title>localhost:3000#ServerID_834d81eb81b3</title>
<polygon fill="none" stroke="black" points="5984,-139 5696.11,-121 5984,-103 6271.89,-121 5984,-139"/>
<text text-anchor="middle" x="5984" y="-117.3" font-family="Times,serif" font-size="14.00">localhost:3000#ServerID_834d81eb81b3</text>
</g>
<!-- 1_fwatchdog#ServerID_834d81eb81b3&#45;&gt;localhost:3000#ServerID_834d81eb81b3 -->
<g id="edge25" class="edge"><title>1_fwatchdog#ServerID_834d81eb81b3&#45;&gt;localhost:3000#ServerID_834d81eb81b3</title>
<path fill="none" stroke="black" d="M5922.54,-189.898C5905.91,-181.97 5894.77,-171.118 5904,-157 5908.32,-150.399 5914.18,-145.035 5920.79,-140.678"/>
<polygon fill="black" stroke="black" points="5922.57,-143.695 5929.5,-135.681 5919.08,-137.623 5922.57,-143.695"/>
<text text-anchor="middle" x="5933" y="-160.8" font-family="Times,serif" font-size="14.00">connect</text>
</g>
<!-- 1_fwatchdog#ServerID_834d81eb81b3&#45;&gt;localhost:3000#ServerID_834d81eb81b3 -->
<g id="edge27" class="edge"><title>1_fwatchdog#ServerID_834d81eb81b3&#45;&gt;localhost:3000#ServerID_834d81eb81b3</title>
<path fill="none" stroke="black" d="M5982.24,-189.929C5981.73,-184.234 5981.25,-177.849 5981,-172 5980.69,-164.645 5980.91,-156.687 5981.34,-149.328"/>
<polygon fill="black" stroke="black" points="5984.85,-149.349 5982.1,-139.117 5977.87,-148.83 5984.85,-149.349"/>
<text text-anchor="middle" x="6000" y="-160.8" font-family="Times,serif" font-size="14.00">write</text>
</g>
<!-- pipe:[20745046]#ServerID_834d81eb81b3 -->
<g id="node22" class="node"><title>pipe:[20745046]#ServerID_834d81eb81b3</title>
<ellipse fill="none" stroke="black" cx="6502" cy="-121" rx="211.762" ry="18"/>
<text text-anchor="middle" x="6502" y="-117.3" font-family="Times,serif" font-size="14.00">pipe:[20745046]#ServerID_834d81eb81b3</text>
</g>
<!-- 1_fwatchdog#ServerID_834d81eb81b3&#45;&gt;pipe:[20745046]#ServerID_834d81eb81b3 -->
<g id="edge28" class="edge"><title>1_fwatchdog#ServerID_834d81eb81b3&#45;&gt;pipe:[20745046]#ServerID_834d81eb81b3</title>
<path fill="none" stroke="black" d="M6087.89,-189.952C6178.42,-175.098 6308.97,-153.676 6399.17,-138.873"/>
<polygon fill="black" stroke="black" points="6399.84,-142.31 6409.15,-137.237 6398.71,-135.402 6399.84,-142.31"/>
<text text-anchor="middle" x="6293" y="-160.8" font-family="Times,serif" font-size="14.00">write</text>
</g>
<!-- localhost:3000#ServerID_834d81eb81b3&#45;&gt;1_fwatchdog#ServerID_834d81eb81b3 -->
<g id="edge26" class="edge"><title>localhost:3000#ServerID_834d81eb81b3&#45;&gt;1_fwatchdog#ServerID_834d81eb81b3</title>
<path fill="none" stroke="black" d="M6007.72,-137.632C6013.85,-142.977 6019.66,-149.523 6023,-157 6027.04,-166.048 6023.42,-174.914 6017.02,-182.608"/>
<polygon fill="black" stroke="black" points="6014.39,-180.287 6009.88,-189.874 6019.39,-185.193 6014.39,-180.287"/>
<text text-anchor="middle" x="6040.5" y="-160.8" font-family="Times,serif" font-size="14.00">read</text>
</g>
<!-- 10.1.80.1:18458#ServerID_OuterContainerID&#45;&gt;10.1.80.93:8080#ServerID_OuterContainerID -->
<g id="edge31" class="edge"><title>10.1.80.1:18458#ServerID_OuterContainerID&#45;&gt;10.1.80.93:8080#ServerID_OuterContainerID</title>
<path fill="none" stroke="black" d="M349.781,-225.168C360.961,-239.438 373.248,-260.884 366,-280 364.552,-283.819 362.476,-287.488 360.074,-290.92"/>
<polygon fill="black" stroke="black" points="357.178,-288.934 353.607,-298.909 362.619,-293.339 357.178,-288.934"/>
<text text-anchor="middle" x="389" y="-268.8" font-family="Times,serif" font-size="14.00">POST</text>
</g>
</g>
</svg>
