<?xml version="1.0" encoding="UTF-8" standalone="no"?>
<!DOCTYPE svg PUBLIC "-//W3C//DTD SVG 1.1//EN"
 "http://www.w3.org/Graphics/SVG/1.1/DTD/svg11.dtd">
<!-- Generated by graphviz version 2.38.0 (20140413.2041)
 -->
<!-- Title: G Pages: 1 -->
<svg width="6322pt" height="558pt"
 viewBox="0.00 0.00 6322.00 558.00" xmlns="http://www.w3.org/2000/svg" xmlns:xlink="http://www.w3.org/1999/xlink">
<g id="graph0" class="graph" transform="scale(1 1) rotate(0) translate(4 554)">
<title>G</title>
<polygon fill="white" stroke="none" points="-4,4 -4,-554 6318,-554 6318,4 -4,4"/>
<g id="clust1" class="cluster"><title>clusterServerID_2347d2f455dd</title>
<polygon fill="none" stroke="black" points="5192,-182 5192,-411 6306,-411 6306,-182 5192,-182"/>
<text text-anchor="middle" x="5749" y="-395.8" font-family="Times,serif" font-size="14.00">clusterServerID_2347d2f455dd</text>
</g>
<g id="clust2" class="cluster"><title>clusterServerID_5f846fd567&#45;g8dn6</title>
<polygon fill="none" stroke="black" points="3312,-182 3312,-280 3652,-280 3652,-182 3312,-182"/>
<text text-anchor="middle" x="3482" y="-264.8" font-family="Times,serif" font-size="14.00">clusterServerID_5f846fd567&#45;g8dn6</text>
</g>
<g id="clust3" class="cluster"><title>clusterServerID_6df85d7674&#45;f2xxt</title>
<polygon fill="none" stroke="black" points="1479,-444 1479,-542 1815,-542 1815,-444 1479,-444"/>
<text text-anchor="middle" x="1647" y="-526.8" font-family="Times,serif" font-size="14.00">clusterServerID_6df85d7674&#45;f2xxt</text>
</g>
<g id="clust4" class="cluster"><title>clusterServerID_7cf8268e6ab5</title>
<polygon fill="none" stroke="black" points="3660,-8 3660,-280 5184,-280 5184,-8 3660,-8"/>
<text text-anchor="middle" x="4422" y="-264.8" font-family="Times,serif" font-size="14.00">clusterServerID_7cf8268e6ab5</text>
</g>
<g id="clust5" class="cluster"><title>clusterServerID_OuterContainerID</title>
<polygon fill="none" stroke="black" points="8,-182 8,-411 3304,-411 3304,-182 8,-182"/>
<text text-anchor="middle" x="1656" y="-395.8" font-family="Times,serif" font-size="14.00">clusterServerID_OuterContainerID</text>
</g>
<!-- 1_fwatchdog#ServerID_6df85d7674&#45;f2xxt -->
<g id="node1" class="node"><title>1_fwatchdog#ServerID_6df85d7674&#45;f2xxt</title>
<polygon fill="none" stroke="black" points="1807,-488 1487,-488 1487,-452 1807,-452 1807,-488"/>
<text text-anchor="middle" x="1647" y="-466.3" font-family="Times,serif" font-size="14.00">1_fwatchdog#ServerID_6df85d7674&#45;f2xxt</text>
</g>
<!-- gateway:8080#ServerID_OuterContainerID -->
<g id="node2" class="node"><title>gateway:8080#ServerID_OuterContainerID</title>
<polygon fill="none" stroke="black" points="1648,-357 1343.52,-339 1648,-321 1952.48,-339 1648,-357"/>
<text text-anchor="middle" x="1648" y="-335.3" font-family="Times,serif" font-size="14.00">gateway:8080#ServerID_OuterContainerID</text>
</g>
<!-- 1_fwatchdog#ServerID_6df85d7674&#45;f2xxt&#45;&gt;gateway:8080#ServerID_OuterContainerID -->
<g id="edge1" class="edge"><title>1_fwatchdog#ServerID_6df85d7674&#45;f2xxt&#45;&gt;gateway:8080#ServerID_OuterContainerID</title>
<path fill="none" stroke="black" d="M1628.04,-451.736C1623.56,-446.523 1619.39,-440.455 1617,-434 1608.44,-410.87 1619.22,-384.131 1630.35,-365.099"/>
<polygon fill="black" stroke="black" points="1633.44,-366.763 1635.75,-356.425 1627.5,-363.061 1633.44,-366.763"/>
<text text-anchor="middle" x="1637" y="-422.8" font-family="Times,serif" font-size="14.00">POST</text>
</g>
<!-- 10.1.80.93:8080#ServerID_OuterContainerID -->
<g id="node5" class="node"><title>10.1.80.93:8080#ServerID_OuterContainerID</title>
<polygon fill="none" stroke="black" points="335,-357 16.1049,-339 335,-321 653.895,-339 335,-357"/>
<text text-anchor="middle" x="335" y="-335.3" font-family="Times,serif" font-size="14.00">10.1.80.93:8080#ServerID_OuterContainerID</text>
</g>
<!-- 1_fwatchdog#ServerID_6df85d7674&#45;f2xxt&#45;&gt;10.1.80.93:8080#ServerID_OuterContainerID -->
<g id="edge4" class="edge"><title>1_fwatchdog#ServerID_6df85d7674&#45;f2xxt&#45;&gt;10.1.80.93:8080#ServerID_OuterContainerID</title>
<path fill="none" stroke="black" d="M1486.66,-468.839C1291.08,-466.51 950.919,-455.569 663,-411 570.719,-396.715 465.424,-372.488 399.58,-356.366"/>
<polygon fill="black" stroke="black" points="400.306,-352.941 389.759,-353.95 398.633,-359.738 400.306,-352.941"/>
<text text-anchor="middle" x="843" y="-422.8" font-family="Times,serif" font-size="14.00">POST</text>
</g>
<!-- 10.1.80.93:47836#ServerID_OuterContainerID -->
<g id="node6" class="node"><title>10.1.80.93:47836#ServerID_OuterContainerID</title>
<polygon fill="none" stroke="black" points="2969,-357 2641.56,-339 2969,-321 3296.44,-339 2969,-357"/>
<text text-anchor="middle" x="2969" y="-335.3" font-family="Times,serif" font-size="14.00">10.1.80.93:47836#ServerID_OuterContainerID</text>
</g>
<!-- 1_fwatchdog#ServerID_6df85d7674&#45;f2xxt&#45;&gt;10.1.80.93:47836#ServerID_OuterContainerID -->
<g id="edge7" class="edge"><title>1_fwatchdog#ServerID_6df85d7674&#45;f2xxt&#45;&gt;10.1.80.93:47836#ServerID_OuterContainerID</title>
<path fill="none" stroke="black" d="M1807.06,-456.515C1956.48,-445.25 2185.72,-428.962 2385,-419 2495.14,-413.494 2523.52,-424.229 2633,-411 2729.42,-399.35 2839.17,-373.781 2906.25,-356.722"/>
<polygon fill="black" stroke="black" points="2907.42,-360.036 2916.24,-354.165 2905.68,-353.255 2907.42,-360.036"/>
<text text-anchor="middle" x="2427" y="-422.8" font-family="Times,serif" font-size="14.00">RESPONSE</text>
</g>
<!-- gateway:8080#ServerID_OuterContainerID&#45;&gt;1_fwatchdog#ServerID_6df85d7674&#45;f2xxt -->
<g id="edge2" class="edge"><title>gateway:8080#ServerID_OuterContainerID&#45;&gt;1_fwatchdog#ServerID_6df85d7674&#45;f2xxt</title>
<path fill="none" stroke="black" d="M1652.03,-357.034C1655.93,-375.905 1660.75,-407.211 1657,-434 1656.64,-436.574 1656.14,-439.224 1655.55,-441.859"/>
<polygon fill="black" stroke="black" points="1652.1,-441.198 1652.96,-451.759 1658.87,-442.971 1652.1,-441.198"/>
<text text-anchor="middle" x="1701" y="-422.8" font-family="Times,serif" font-size="14.00">RESPONSE</text>
</g>
<!-- 10.1.80.93:39846#ServerID_OuterContainerID -->
<g id="node3" class="node"><title>10.1.80.93:39846#ServerID_OuterContainerID</title>
<polygon fill="none" stroke="black" points="999,-357 671.56,-339 999,-321 1326.44,-339 999,-357"/>
<text text-anchor="middle" x="999" y="-335.3" font-family="Times,serif" font-size="14.00">10.1.80.93:39846#ServerID_OuterContainerID</text>
</g>
<!-- 1_fwatchdog#ServerID_5f846fd567&#45;g8dn6 -->
<g id="node4" class="node"><title>1_fwatchdog#ServerID_5f846fd567&#45;g8dn6</title>
<polygon fill="none" stroke="black" points="3644,-226 3320,-226 3320,-190 3644,-190 3644,-226"/>
<text text-anchor="middle" x="3482" y="-204.3" font-family="Times,serif" font-size="14.00">1_fwatchdog#ServerID_5f846fd567&#45;g8dn6</text>
</g>
<!-- 10.1.80.93:39846#ServerID_OuterContainerID&#45;&gt;1_fwatchdog#ServerID_5f846fd567&#45;g8dn6 -->
<g id="edge3" class="edge"><title>10.1.80.93:39846#ServerID_OuterContainerID&#45;&gt;1_fwatchdog#ServerID_5f846fd567&#45;g8dn6</title>
<path fill="none" stroke="black" d="M1120.33,-327.664C1269.23,-315.509 1529.46,-295.979 1753,-288 1796.17,-286.459 3265.63,-288.424 3308,-280 3355.82,-270.491 3407.11,-247.887 3441.52,-230.718"/>
<polygon fill="black" stroke="black" points="3443.42,-233.678 3450.76,-226.035 3440.26,-227.434 3443.42,-233.678"/>
<text text-anchor="middle" x="1773" y="-291.8" font-family="Times,serif" font-size="14.00">POST</text>
</g>
<!-- 1_fwatchdog#ServerID_7cf8268e6ab5 -->
<g id="node13" class="node"><title>1_fwatchdog#ServerID_7cf8268e6ab5</title>
<polygon fill="none" stroke="black" points="4618,-226 4324,-226 4324,-190 4618,-190 4618,-226"/>
<text text-anchor="middle" x="4471" y="-204.3" font-family="Times,serif" font-size="14.00">1_fwatchdog#ServerID_7cf8268e6ab5</text>
</g>
<!-- 10.1.80.93:39846#ServerID_OuterContainerID&#45;&gt;1_fwatchdog#ServerID_7cf8268e6ab5 -->
<g id="edge18" class="edge"><title>10.1.80.93:39846#ServerID_OuterContainerID&#45;&gt;1_fwatchdog#ServerID_7cf8268e6ab5</title>
<path fill="none" stroke="black" d="M1152.01,-329.374C1209.39,-326.372 1275.17,-323.207 1335,-321 1679.75,-308.283 1766.85,-326.948 2111,-303 2168.58,-298.993 2182.39,-291.502 2240,-288 2554.09,-268.91 3341.67,-294.556 3656,-280 3885.12,-269.39 4149.5,-243.912 4313.47,-226.546"/>
<polygon fill="black" stroke="black" points="4314.06,-230.003 4323.64,-225.466 4313.32,-223.042 4314.06,-230.003"/>
<text text-anchor="middle" x="2256.5" y="-291.8" font-family="Times,serif" font-size="14.00">read</text>
</g>
<!-- 1_fwatchdog#ServerID_5f846fd567&#45;g8dn6&#45;&gt;10.1.80.93:39846#ServerID_OuterContainerID -->
<g id="edge8" class="edge"><title>1_fwatchdog#ServerID_5f846fd567&#45;g8dn6&#45;&gt;10.1.80.93:39846#ServerID_OuterContainerID</title>
<path fill="none" stroke="black" d="M3450.76,-226.024C3416.78,-243.5 3360.31,-269.568 3308,-280 3273.1,-286.959 2062.56,-286.75 2027,-288 1922.85,-291.66 1897.07,-297.62 1793,-303 1589.56,-313.517 1538.51,-311.853 1335,-321 1280.32,-323.458 1220.65,-326.394 1166.97,-329.129"/>
<polygon fill="black" stroke="black" points="1166.48,-325.65 1156.67,-329.655 1166.83,-332.641 1166.48,-325.65"/>
<text text-anchor="middle" x="2069" y="-291.8" font-family="Times,serif" font-size="14.00">RESPONSE</text>
</g>
<!-- 10.1.80.93:8080#ServerID_OuterContainerID&#45;&gt;1_fwatchdog#ServerID_6df85d7674&#45;f2xxt -->
<g id="edge6" class="edge"><title>10.1.80.93:8080#ServerID_OuterContainerID&#45;&gt;1_fwatchdog#ServerID_6df85d7674&#45;f2xxt</title>
<path fill="none" stroke="black" d="M386.779,-354.137C451.018,-370.995 564.162,-398.461 663,-411 753.015,-422.419 776.384,-414.32 867,-419 1077.01,-429.847 1318.6,-445.885 1476.57,-456.853"/>
<polygon fill="black" stroke="black" points="1476.63,-460.366 1486.85,-457.568 1477.12,-453.383 1476.63,-460.366"/>
<text text-anchor="middle" x="1167" y="-422.8" font-family="Times,serif" font-size="14.00">RESPONSE</text>
</g>
<!-- 10.1.80.1:40387#ServerID_OuterContainerID -->
<g id="node18" class="node"><title>10.1.80.1:40387#ServerID_OuterContainerID</title>
<polygon fill="none" stroke="black" points="1023,-226 704.105,-208 1023,-190 1341.9,-208 1023,-226"/>
<text text-anchor="middle" x="1023" y="-204.3" font-family="Times,serif" font-size="14.00">10.1.80.1:40387#ServerID_OuterContainerID</text>
</g>
<!-- 10.1.80.93:8080#ServerID_OuterContainerID&#45;&gt;10.1.80.1:40387#ServerID_OuterContainerID -->
<g id="edge26" class="edge"><title>10.1.80.93:8080#ServerID_OuterContainerID&#45;&gt;10.1.80.1:40387#ServerID_OuterContainerID</title>
<path fill="none" stroke="black" d="M406.639,-325.012C466.502,-314.372 554.17,-299.286 631,-288 659.361,-283.834 666.741,-284.815 695,-280 786.234,-264.455 890.531,-240.865 956.554,-225.199"/>
<polygon fill="black" stroke="black" points="957.496,-228.573 966.413,-222.852 955.874,-221.764 957.496,-228.573"/>
<text text-anchor="middle" x="673" y="-291.8" font-family="Times,serif" font-size="14.00">RESPONSE</text>
</g>
<!-- 10.0.88.125:31112#ServerID_OuterContainerID -->
<g id="node19" class="node"><title>10.0.88.125:31112#ServerID_OuterContainerID</title>
<polygon fill="none" stroke="black" points="351,-226 15.5152,-208 351,-190 686.485,-208 351,-226"/>
<text text-anchor="middle" x="351" y="-204.3" font-family="Times,serif" font-size="14.00">10.0.88.125:31112#ServerID_OuterContainerID</text>
</g>
<!-- 10.1.80.93:8080#ServerID_OuterContainerID&#45;&gt;10.0.88.125:31112#ServerID_OuterContainerID -->
<g id="edge27" class="edge"><title>10.1.80.93:8080#ServerID_OuterContainerID&#45;&gt;10.0.88.125:31112#ServerID_OuterContainerID</title>
<path fill="none" stroke="black" d="M337.125,-320.87C339.802,-299.281 344.437,-261.912 347.607,-236.352"/>
<polygon fill="black" stroke="black" points="351.109,-236.556 348.867,-226.201 344.162,-235.694 351.109,-236.556"/>
<text text-anchor="middle" x="384" y="-291.8" font-family="Times,serif" font-size="14.00">RESPONSE</text>
</g>
<!-- 10.1.80.93:47836#ServerID_OuterContainerID&#45;&gt;1_fwatchdog#ServerID_6df85d7674&#45;f2xxt -->
<g id="edge5" class="edge"><title>10.1.80.93:47836#ServerID_OuterContainerID&#45;&gt;1_fwatchdog#ServerID_6df85d7674&#45;f2xxt</title>
<path fill="none" stroke="black" d="M2911.65,-353.895C2845.01,-369.623 2731.59,-395.117 2633,-411 2349.49,-456.67 2014.98,-467.409 1817.5,-469.374"/>
<polygon fill="black" stroke="black" points="1817.29,-465.876 1807.33,-469.469 1817.36,-472.876 1817.29,-465.876"/>
<text text-anchor="middle" x="2574" y="-422.8" font-family="Times,serif" font-size="14.00">POST</text>
</g>
<!-- 1_fwatchdog#ServerID_2347d2f455dd -->
<g id="node7" class="node"><title>1_fwatchdog#ServerID_2347d2f455dd</title>
<polygon fill="none" stroke="black" points="6298,-357 6002,-357 6002,-321 6298,-321 6298,-357"/>
<text text-anchor="middle" x="6150" y="-335.3" font-family="Times,serif" font-size="14.00">1_fwatchdog#ServerID_2347d2f455dd</text>
</g>
<!-- 10.1.80.93:47836#ServerID_OuterContainerID&#45;&gt;1_fwatchdog#ServerID_2347d2f455dd -->
<g id="edge12" class="edge"><title>10.1.80.93:47836#ServerID_OuterContainerID&#45;&gt;1_fwatchdog#ServerID_2347d2f455dd</title>
<path fill="none" stroke="black" d="M3151.97,-346.946C3531.46,-362.984 4431.9,-398.737 5188,-411 5366.87,-413.901 5818.23,-449.164 5993,-411 6035.93,-401.626 6081.15,-379.393 6111.98,-362.093"/>
<polygon fill="black" stroke="black" points="6113.72,-365.129 6120.67,-357.131 6110.25,-359.05 6113.72,-365.129"/>
<text text-anchor="middle" x="4649" y="-422.8" font-family="Times,serif" font-size="14.00">read</text>
</g>
<!-- localhost:3000#ServerID_2347d2f455dd -->
<g id="node8" class="node"><title>localhost:3000#ServerID_2347d2f455dd</title>
<polygon fill="none" stroke="black" points="6013,-226 5728.12,-208 6013,-190 6297.88,-208 6013,-226"/>
<text text-anchor="middle" x="6013" y="-204.3" font-family="Times,serif" font-size="14.00">localhost:3000#ServerID_2347d2f455dd</text>
</g>
<!-- 1_fwatchdog#ServerID_2347d2f455dd&#45;&gt;localhost:3000#ServerID_2347d2f455dd -->
<g id="edge9" class="edge"><title>1_fwatchdog#ServerID_2347d2f455dd&#45;&gt;localhost:3000#ServerID_2347d2f455dd</title>
<path fill="none" stroke="black" d="M6098.15,-320.891C6088.13,-316.103 6078.21,-310.19 6070,-303 6048.68,-284.334 6032.91,-255.698 6023.43,-234.937"/>
<polygon fill="black" stroke="black" points="6026.62,-233.493 6019.41,-225.736 6020.21,-236.3 6026.62,-233.493"/>
<text text-anchor="middle" x="6099" y="-291.8" font-family="Times,serif" font-size="14.00">connect</text>
</g>
<!-- 1_fwatchdog#ServerID_2347d2f455dd&#45;&gt;localhost:3000#ServerID_2347d2f455dd -->
<g id="edge11" class="edge"><title>1_fwatchdog#ServerID_2347d2f455dd&#45;&gt;localhost:3000#ServerID_2347d2f455dd</title>
<path fill="none" stroke="black" d="M6145.14,-320.958C6141.58,-310.633 6135.98,-297.641 6128,-288 6107.52,-263.27 6077.41,-242.968 6053.14,-229.14"/>
<polygon fill="black" stroke="black" points="6054.6,-225.947 6044.16,-224.161 6051.21,-232.069 6054.6,-225.947"/>
<text text-anchor="middle" x="6155" y="-291.8" font-family="Times,serif" font-size="14.00">write</text>
</g>
<!-- localhost:3000#ServerID_2347d2f455dd&#45;&gt;1_fwatchdog#ServerID_2347d2f455dd -->
<g id="edge10" class="edge"><title>localhost:3000#ServerID_2347d2f455dd&#45;&gt;1_fwatchdog#ServerID_2347d2f455dd</title>
<path fill="none" stroke="black" d="M6008.9,-226.076C6005.03,-246.74 6002.16,-281.437 6020,-303 6024.68,-308.652 6034.87,-313.637 6047.6,-317.941"/>
<polygon fill="black" stroke="black" points="6046.69,-321.322 6057.28,-320.955 6048.77,-314.639 6046.69,-321.322"/>
<text text-anchor="middle" x="6036.5" y="-291.8" font-family="Times,serif" font-size="14.00">read</text>
</g>
<!-- /etc/hosts#ServerID_2347d2f455dd -->
<g id="node9" class="node"><title>/etc/hosts#ServerID_2347d2f455dd</title>
<ellipse fill="none" stroke="black" cx="5805" cy="-339" rx="178.969" ry="18"/>
<text text-anchor="middle" x="5805" y="-335.3" font-family="Times,serif" font-size="14.00">/etc/hosts#ServerID_2347d2f455dd</text>
</g>
<!-- 13_node#ServerID_2347d2f455dd -->
<g id="node10" class="node"><title>13_node#ServerID_2347d2f455dd</title>
<polygon fill="none" stroke="black" points="5465.5,-226 5200.5,-226 5200.5,-190 5465.5,-190 5465.5,-226"/>
<text text-anchor="middle" x="5333" y="-204.3" font-family="Times,serif" font-size="14.00">13_node#ServerID_2347d2f455dd</text>
</g>
<!-- /etc/hosts#ServerID_2347d2f455dd&#45;&gt;13_node#ServerID_2347d2f455dd -->
<g id="edge13" class="edge"><title>/etc/hosts#ServerID_2347d2f455dd&#45;&gt;13_node#ServerID_2347d2f455dd</title>
<path fill="none" stroke="black" d="M5746.18,-321.923C5659.77,-298.309 5498.71,-254.289 5405.24,-228.743"/>
<polygon fill="black" stroke="black" points="5406.14,-225.362 5395.58,-226.102 5404.3,-232.115 5406.14,-225.362"/>
<text text-anchor="middle" x="5681.5" y="-291.8" font-family="Times,serif" font-size="14.00">read</text>
</g>
<!-- 13_node#ServerID_2347d2f455dd&#45;&gt;gateway:8080#ServerID_OuterContainerID -->
<g id="edge17" class="edge"><title>13_node#ServerID_2347d2f455dd&#45;&gt;gateway:8080#ServerID_OuterContainerID</title>
<path fill="none" stroke="black" d="M5307.37,-226.023C5279.39,-243.498 5232.62,-269.564 5188,-280 5161.71,-286.148 3271,-287.597 3244,-288 2673.65,-296.508 2530.95,-298.197 1961,-321 1908.75,-323.091 1851.62,-326.007 1800.64,-328.835"/>
<polygon fill="black" stroke="black" points="1800.32,-325.347 1790.53,-329.399 1800.71,-332.336 1800.32,-325.347"/>
<text text-anchor="middle" x="3273" y="-291.8" font-family="Times,serif" font-size="14.00">connect</text>
</g>
<!-- 10.152.183.10:53#ServerID_OuterContainerID -->
<g id="node12" class="node"><title>10.152.183.10:53#ServerID_OuterContainerID</title>
<polygon fill="none" stroke="black" points="2297,-357 1969.56,-339 2297,-321 2624.44,-339 2297,-357"/>
<text text-anchor="middle" x="2297" y="-335.3" font-family="Times,serif" font-size="14.00">10.152.183.10:53#ServerID_OuterContainerID</text>
</g>
<!-- 13_node#ServerID_2347d2f455dd&#45;&gt;10.152.183.10:53#ServerID_OuterContainerID -->
<g id="edge15" class="edge"><title>13_node#ServerID_2347d2f455dd&#45;&gt;10.152.183.10:53#ServerID_OuterContainerID</title>
<path fill="none" stroke="black" d="M5307.09,-226.12C5279.08,-243.541 5232.45,-269.437 5188,-280 5149.73,-289.095 4519.33,-287.426 4480,-288 3659.07,-299.972 3453.54,-292.92 2633,-321 2576.12,-322.946 2513.87,-325.874 2458.57,-328.754"/>
<polygon fill="black" stroke="black" points="2458.13,-325.272 2448.33,-329.29 2458.5,-332.262 2458.13,-325.272"/>
<text text-anchor="middle" x="4504.5" y="-291.8" font-family="Times,serif" font-size="14.00">sendto</text>
</g>
<!-- /etc/resolv.conf#ServerID_2347d2f455dd -->
<g id="node11" class="node"><title>/etc/resolv.conf#ServerID_2347d2f455dd</title>
<ellipse fill="none" stroke="black" cx="5404" cy="-339" rx="204.164" ry="18"/>
<text text-anchor="middle" x="5404" y="-335.3" font-family="Times,serif" font-size="14.00">/etc/resolv.conf#ServerID_2347d2f455dd</text>
</g>
<!-- /etc/resolv.conf#ServerID_2347d2f455dd&#45;&gt;13_node#ServerID_2347d2f455dd -->
<g id="edge14" class="edge"><title>/etc/resolv.conf#ServerID_2347d2f455dd&#45;&gt;13_node#ServerID_2347d2f455dd</title>
<path fill="none" stroke="black" d="M5394.57,-320.87C5382.48,-298.895 5361.38,-260.573 5347.31,-234.994"/>
<polygon fill="black" stroke="black" points="5350.36,-233.274 5342.47,-226.201 5344.22,-236.649 5350.36,-233.274"/>
<text text-anchor="middle" x="5400.5" y="-291.8" font-family="Times,serif" font-size="14.00">read</text>
</g>
<!-- 10.152.183.10:53#ServerID_OuterContainerID&#45;&gt;13_node#ServerID_2347d2f455dd -->
<g id="edge16" class="edge"><title>10.152.183.10:53#ServerID_OuterContainerID&#45;&gt;13_node#ServerID_2347d2f455dd</title>
<path fill="none" stroke="black" d="M2445.81,-329.155C2504.16,-326.032 2571.7,-322.841 2633,-321 3475.32,-295.703 3686.5,-321.698 4529,-303 4822,-296.497 4903.69,-351.117 5188,-280 5227.87,-270.026 5269.64,-248.185 5298.05,-231.343"/>
<polygon fill="black" stroke="black" points="5300.03,-234.235 5306.78,-226.072 5296.41,-228.242 5300.03,-234.235"/>
<text text-anchor="middle" x="5172" y="-291.8" font-family="Times,serif" font-size="14.00">recvfrom</text>
</g>
<!-- localhost:3000#ServerID_7cf8268e6ab5 -->
<g id="node14" class="node"><title>localhost:3000#ServerID_7cf8268e6ab5</title>
<polygon fill="none" stroke="black" points="4471,-139 4187.8,-121 4471,-103 4754.2,-121 4471,-139"/>
<text text-anchor="middle" x="4471" y="-117.3" font-family="Times,serif" font-size="14.00">localhost:3000#ServerID_7cf8268e6ab5</text>
</g>
<!-- 1_fwatchdog#ServerID_7cf8268e6ab5&#45;&gt;localhost:3000#ServerID_7cf8268e6ab5 -->
<g id="edge19" class="edge"><title>1_fwatchdog#ServerID_7cf8268e6ab5&#45;&gt;localhost:3000#ServerID_7cf8268e6ab5</title>
<path fill="none" stroke="black" d="M4428.36,-189.808C4421.41,-185.084 4415.14,-179.215 4411,-172 4404.25,-160.249 4411.91,-150.053 4423.77,-141.989"/>
<polygon fill="black" stroke="black" points="4425.73,-144.892 4432.52,-136.753 4422.14,-138.885 4425.73,-144.892"/>
<text text-anchor="middle" x="4430" y="-160.8" font-family="Times,serif" font-size="14.00">write</text>
</g>
<!-- 1_fwatchdog#ServerID_7cf8268e6ab5&#45;&gt;localhost:3000#ServerID_7cf8268e6ab5 -->
<g id="edge21" class="edge"><title>1_fwatchdog#ServerID_7cf8268e6ab5&#45;&gt;localhost:3000#ServerID_7cf8268e6ab5</title>
<path fill="none" stroke="black" d="M4469.1,-189.883C4468.25,-180.231 4467.53,-167.947 4468,-157 4468.11,-154.441 4468.26,-151.779 4468.45,-149.118"/>
<polygon fill="black" stroke="black" points="4471.94,-149.317 4469.24,-139.071 4464.96,-148.763 4471.94,-149.317"/>
<text text-anchor="middle" x="4497" y="-160.8" font-family="Times,serif" font-size="14.00">connect</text>
</g>
<!-- pipe:[7845976]#ServerID_7cf8268e6ab5 -->
<g id="node17" class="node"><title>pipe:[7845976]#ServerID_7cf8268e6ab5</title>
<ellipse fill="none" stroke="black" cx="4974" cy="-121" rx="202.264" ry="18"/>
<text text-anchor="middle" x="4974" y="-117.3" font-family="Times,serif" font-size="14.00">pipe:[7845976]#ServerID_7cf8268e6ab5</text>
</g>
<!-- 1_fwatchdog#ServerID_7cf8268e6ab5&#45;&gt;pipe:[7845976]#ServerID_7cf8268e6ab5 -->
<g id="edge24" class="edge"><title>1_fwatchdog#ServerID_7cf8268e6ab5&#45;&gt;pipe:[7845976]#ServerID_7cf8268e6ab5</title>
<path fill="none" stroke="black" d="M4571.88,-189.952C4659.84,-175.089 4786.7,-153.652 4874.3,-138.848"/>
<polygon fill="black" stroke="black" points="4874.97,-142.284 4884.25,-137.167 4873.8,-135.382 4874.97,-142.284"/>
<text text-anchor="middle" x="4772" y="-160.8" font-family="Times,serif" font-size="14.00">write</text>
</g>
<!-- localhost:3000#ServerID_7cf8268e6ab5&#45;&gt;1_fwatchdog#ServerID_7cf8268e6ab5 -->
<g id="edge20" class="edge"><title>localhost:3000#ServerID_7cf8268e6ab5&#45;&gt;1_fwatchdog#ServerID_7cf8268e6ab5</title>
<path fill="none" stroke="black" d="M4509.02,-136.766C4517.38,-141.873 4525.17,-148.514 4530,-157 4535.92,-167.403 4530.56,-176.625 4521.06,-184.226"/>
<polygon fill="black" stroke="black" points="4518.96,-181.425 4512.69,-189.967 4522.92,-187.198 4518.96,-181.425"/>
<text text-anchor="middle" x="4549.5" y="-160.8" font-family="Times,serif" font-size="14.00">read</text>
</g>
<!-- 13_node#ServerID_7cf8268e6ab5 -->
<g id="node16" class="node"><title>13_node#ServerID_7cf8268e6ab5</title>
<polygon fill="none" stroke="black" points="4326.5,-52 4063.5,-52 4063.5,-16 4326.5,-16 4326.5,-52"/>
<text text-anchor="middle" x="4195" y="-30.3" font-family="Times,serif" font-size="14.00">13_node#ServerID_7cf8268e6ab5</text>
</g>
<!-- localhost:3000#ServerID_7cf8268e6ab5&#45;&gt;13_node#ServerID_7cf8268e6ab5 -->
<g id="edge23" class="edge"><title>localhost:3000#ServerID_7cf8268e6ab5&#45;&gt;13_node#ServerID_7cf8268e6ab5</title>
<path fill="none" stroke="black" d="M4425.11,-105.869C4380.04,-91.9873 4310.84,-70.6754 4260.09,-55.0465"/>
<polygon fill="black" stroke="black" points="4261.11,-51.6974 4250.52,-52.099 4259.05,-58.3873 4261.11,-51.6974"/>
<text text-anchor="middle" x="4366.5" y="-73.8" font-family="Times,serif" font-size="14.00">read</text>
</g>
<!-- /home/app/credentials.txt#ServerID_7cf8268e6ab5 -->
<g id="node15" class="node"><title>/home/app/credentials.txt#ServerID_7cf8268e6ab5</title>
<ellipse fill="none" stroke="black" cx="3919" cy="-121" rx="250.756" ry="18"/>
<text text-anchor="middle" x="3919" y="-117.3" font-family="Times,serif" font-size="14.00">/home/app/credentials.txt#ServerID_7cf8268e6ab5</text>
</g>
<!-- /home/app/credentials.txt#ServerID_7cf8268e6ab5&#45;&gt;13_node#ServerID_7cf8268e6ab5 -->
<g id="edge22" class="edge"><title>/home/app/credentials.txt#ServerID_7cf8268e6ab5&#45;&gt;13_node#ServerID_7cf8268e6ab5</title>
<path fill="none" stroke="black" d="M3972.87,-103.409C4017.78,-89.5783 4081.91,-69.8271 4129.73,-55.1002"/>
<polygon fill="black" stroke="black" points="4130.85,-58.4198 4139.37,-52.1315 4128.79,-51.7299 4130.85,-58.4198"/>
<text text-anchor="middle" x="4090.5" y="-73.8" font-family="Times,serif" font-size="14.00">read</text>
</g>
<!-- 10.1.80.1:40387#ServerID_OuterContainerID&#45;&gt;10.1.80.93:8080#ServerID_OuterContainerID -->
<g id="edge25" class="edge"><title>10.1.80.1:40387#ServerID_OuterContainerID&#45;&gt;10.1.80.93:8080#ServerID_OuterContainerID</title>
<path fill="none" stroke="black" d="M984.321,-223.83C927.211,-245.065 816.546,-283.694 719,-303 652.009,-316.259 577.431,-324.508 511.952,-329.635"/>
<polygon fill="black" stroke="black" points="511.646,-326.148 501.942,-330.401 512.179,-333.128 511.646,-326.148"/>
<text text-anchor="middle" x="799" y="-291.8" font-family="Times,serif" font-size="14.00">POST</text>
</g>
</g>
</svg>
