<?xml version="1.0" encoding="UTF-8" standalone="no"?>
<!DOCTYPE svg PUBLIC "-//W3C//DTD SVG 1.1//EN"
 "http://www.w3.org/Graphics/SVG/1.1/DTD/svg11.dtd">
<!-- Generated by graphviz version 2.38.0 (20140413.2041)
 -->
<!-- Title: G Pages: 1 -->
<svg width="4838pt" height="684pt"
 viewBox="0.00 0.00 4838.00 684.00" xmlns="http://www.w3.org/2000/svg" xmlns:xlink="http://www.w3.org/1999/xlink">
<g id="graph0" class="graph" transform="scale(1 1) rotate(0) translate(4 680)">
<title>G</title>
<polygon fill="white" stroke="none" points="-4,4 -4,-680 4834,-680 4834,4 -4,4"/>
<g id="clust1" class="cluster"><title>clusterServerID_04eca90de97f</title>
<polygon fill="none" stroke="black" points="3312,-8 3312,-257 4822,-257 4822,-8 3312,-8"/>
<text text-anchor="middle" x="4067" y="-241.8" font-family="Times,serif" font-size="14.00">clusterServerID_04eca90de97f</text>
</g>
<g id="clust2" class="cluster"><title>clusterServerID_309ec2955ffa</title>
<polygon fill="none" stroke="black" points="1246,-398 1246,-668 2607,-668 2607,-398 1246,-398"/>
<text text-anchor="middle" x="1926.5" y="-652.8" font-family="Times,serif" font-size="14.00">clusterServerID_309ec2955ffa</text>
</g>
<g id="clust3" class="cluster"><title>clusterServerID_7d87d9945d&#45;dl2ff</title>
<polygon fill="none" stroke="black" points="2784,-398 2784,-473 3120,-473 3120,-398 2784,-398"/>
<text text-anchor="middle" x="2952" y="-457.8" font-family="Times,serif" font-size="14.00">clusterServerID_7d87d9945d&#45;dl2ff</text>
</g>
<g id="clust4" class="cluster"><title>clusterServerID_866797f645&#45;wb664</title>
<polygon fill="none" stroke="black" points="832,-398 832,-473 1180,-473 1180,-398 832,-398"/>
<text text-anchor="middle" x="1006" y="-457.8" font-family="Times,serif" font-size="14.00">clusterServerID_866797f645&#45;wb664</text>
</g>
<g id="clust5" class="cluster"><title>clusterServerID_OuterContainerID</title>
<polygon fill="none" stroke="black" points="8,-182 8,-365 3304,-365 3304,-182 8,-182"/>
<text text-anchor="middle" x="1656" y="-349.8" font-family="Times,serif" font-size="14.00">clusterServerID_OuterContainerID</text>
</g>
<!-- 1_fwatchdog#ServerID_866797f645&#45;wb664 -->
<g id="node1" class="node"><title>1_fwatchdog#ServerID_866797f645&#45;wb664</title>
<polygon fill="none" stroke="black" points="1171.5,-442 840.5,-442 840.5,-406 1171.5,-406 1171.5,-442"/>
<text text-anchor="middle" x="1006" y="-420.3" font-family="Times,serif" font-size="14.00">1_fwatchdog#ServerID_866797f645&#45;wb664</text>
</g>
<!-- 10.1.80.44:45710#ServerID_OuterContainerID -->
<g id="node2" class="node"><title>10.1.80.44:45710#ServerID_OuterContainerID</title>
<polygon fill="none" stroke="black" points="343,-334 15.5599,-316 343,-298 670.44,-316 343,-334"/>
<text text-anchor="middle" x="343" y="-312.3" font-family="Times,serif" font-size="14.00">10.1.80.44:45710#ServerID_OuterContainerID</text>
</g>
<!-- 1_fwatchdog#ServerID_866797f645&#45;wb664&#45;&gt;10.1.80.44:45710#ServerID_OuterContainerID -->
<g id="edge1" class="edge"><title>1_fwatchdog#ServerID_866797f645&#45;wb664&#45;&gt;10.1.80.44:45710#ServerID_OuterContainerID</title>
<path fill="none" stroke="black" d="M840.428,-416.437C764.036,-411.52 672.429,-402.943 591,-388 521.828,-375.307 444.203,-351.471 394.523,-334.938"/>
<polygon fill="black" stroke="black" points="395.564,-331.596 384.97,-331.735 393.338,-338.233 395.564,-331.596"/>
<text text-anchor="middle" x="633" y="-376.8" font-family="Times,serif" font-size="14.00">RESPONSE</text>
</g>
<!-- gateway:8080#ServerID_OuterContainerID -->
<g id="node7" class="node"><title>gateway:8080#ServerID_OuterContainerID</title>
<polygon fill="none" stroke="black" points="1648,-334 1343.52,-316 1648,-298 1952.48,-316 1648,-334"/>
<text text-anchor="middle" x="1648" y="-312.3" font-family="Times,serif" font-size="14.00">gateway:8080#ServerID_OuterContainerID</text>
</g>
<!-- 1_fwatchdog#ServerID_866797f645&#45;wb664&#45;&gt;gateway:8080#ServerID_OuterContainerID -->
<g id="edge9" class="edge"><title>1_fwatchdog#ServerID_866797f645&#45;wb664&#45;&gt;gateway:8080#ServerID_OuterContainerID</title>
<path fill="none" stroke="black" d="M1106.67,-405.983C1164.41,-396.255 1238.27,-383.865 1304,-373 1391.34,-358.564 1491.21,-342.338 1560.75,-331.083"/>
<polygon fill="black" stroke="black" points="1561.48,-334.511 1570.79,-329.459 1560.36,-327.601 1561.48,-334.511"/>
<text text-anchor="middle" x="1324" y="-376.8" font-family="Times,serif" font-size="14.00">POST</text>
</g>
<!-- 10.1.80.44:8080#ServerID_OuterContainerID -->
<g id="node8" class="node"><title>10.1.80.44:8080#ServerID_OuterContainerID</title>
<polygon fill="none" stroke="black" points="1007,-334 688.105,-316 1007,-298 1325.9,-316 1007,-334"/>
<text text-anchor="middle" x="1007" y="-312.3" font-family="Times,serif" font-size="14.00">10.1.80.44:8080#ServerID_OuterContainerID</text>
</g>
<!-- 1_fwatchdog#ServerID_866797f645&#45;wb664&#45;&gt;10.1.80.44:8080#ServerID_OuterContainerID -->
<g id="edge7" class="edge"><title>1_fwatchdog#ServerID_866797f645&#45;wb664&#45;&gt;10.1.80.44:8080#ServerID_OuterContainerID</title>
<path fill="none" stroke="black" d="M987.041,-405.736C982.557,-400.523 978.388,-394.455 976,-388 973.687,-381.747 974.333,-379.455 976,-373 978.752,-362.348 984.011,-351.56 989.427,-342.334"/>
<polygon fill="black" stroke="black" points="992.494,-344.03 994.809,-333.692 986.552,-340.33 992.494,-344.03"/>
<text text-anchor="middle" x="996" y="-376.8" font-family="Times,serif" font-size="14.00">POST</text>
</g>
<!-- 10.1.80.44:45710#ServerID_OuterContainerID&#45;&gt;1_fwatchdog#ServerID_866797f645&#45;wb664 -->
<g id="edge4" class="edge"><title>10.1.80.44:45710#ServerID_OuterContainerID&#45;&gt;1_fwatchdog#ServerID_866797f645&#45;wb664</title>
<path fill="none" stroke="black" d="M422.212,-329.664C538.282,-348.222 755.312,-382.92 889.557,-404.383"/>
<polygon fill="black" stroke="black" points="889.05,-407.847 899.478,-405.969 890.156,-400.934 889.05,-407.847"/>
<text text-anchor="middle" x="793" y="-376.8" font-family="Times,serif" font-size="14.00">POST</text>
</g>
<!-- 1_fwatchdog#ServerID_309ec2955ffa -->
<g id="node5" class="node"><title>1_fwatchdog#ServerID_309ec2955ffa</title>
<polygon fill="none" stroke="black" points="1737,-637 1447,-637 1447,-601 1737,-601 1737,-637"/>
<text text-anchor="middle" x="1592" y="-615.3" font-family="Times,serif" font-size="14.00">1_fwatchdog#ServerID_309ec2955ffa</text>
</g>
<!-- 10.1.80.44:45710#ServerID_OuterContainerID&#45;&gt;1_fwatchdog#ServerID_309ec2955ffa -->
<g id="edge12" class="edge"><title>10.1.80.44:45710#ServerID_OuterContainerID&#45;&gt;1_fwatchdog#ServerID_309ec2955ffa</title>
<path fill="none" stroke="black" d="M414.462,-330.107C482.273,-341.855 587.177,-358.246 679,-365 723.741,-368.291 2250.16,-363.494 2294,-373 2443.51,-405.415 2524.89,-385.568 2608,-514 2616.69,-527.433 2618.93,-538.315 2608,-550 2579.08,-580.917 2024.5,-603.641 1747.18,-613.121"/>
<polygon fill="black" stroke="black" points="1746.9,-609.629 1737.03,-613.467 1747.14,-616.625 1746.9,-609.629"/>
<text text-anchor="middle" x="2611.5" y="-484.8" font-family="Times,serif" font-size="14.00">read</text>
</g>
<!-- 1_fwatchdog#ServerID_7d87d9945d&#45;dl2ff -->
<g id="node3" class="node"><title>1_fwatchdog#ServerID_7d87d9945d&#45;dl2ff</title>
<polygon fill="none" stroke="black" points="3112,-442 2792,-442 2792,-406 3112,-406 3112,-442"/>
<text text-anchor="middle" x="2952" y="-420.3" font-family="Times,serif" font-size="14.00">1_fwatchdog#ServerID_7d87d9945d&#45;dl2ff</text>
</g>
<!-- 10.1.80.44:37242#ServerID_OuterContainerID -->
<g id="node4" class="node"><title>10.1.80.44:37242#ServerID_OuterContainerID</title>
<polygon fill="none" stroke="black" points="2969,-334 2641.56,-316 2969,-298 3296.44,-316 2969,-334"/>
<text text-anchor="middle" x="2969" y="-312.3" font-family="Times,serif" font-size="14.00">10.1.80.44:37242#ServerID_OuterContainerID</text>
</g>
<!-- 1_fwatchdog#ServerID_7d87d9945d&#45;dl2ff&#45;&gt;10.1.80.44:37242#ServerID_OuterContainerID -->
<g id="edge2" class="edge"><title>1_fwatchdog#ServerID_7d87d9945d&#45;dl2ff&#45;&gt;10.1.80.44:37242#ServerID_OuterContainerID</title>
<path fill="none" stroke="black" d="M2915.4,-405.912C2902.58,-397.334 2892.75,-385.997 2899,-373 2905.79,-358.868 2918.08,-347.185 2930.49,-338.214"/>
<polygon fill="black" stroke="black" points="2932.7,-340.939 2939.03,-332.439 2928.78,-335.14 2932.7,-340.939"/>
<text text-anchor="middle" x="2941" y="-376.8" font-family="Times,serif" font-size="14.00">RESPONSE</text>
</g>
<!-- 10.1.80.44:37242#ServerID_OuterContainerID&#45;&gt;1_fwatchdog#ServerID_7d87d9945d&#45;dl2ff -->
<g id="edge3" class="edge"><title>10.1.80.44:37242#ServerID_OuterContainerID&#45;&gt;1_fwatchdog#ServerID_7d87d9945d&#45;dl2ff</title>
<path fill="none" stroke="black" d="M2977.41,-333.792C2983.57,-348.461 2989.77,-370.144 2983,-388 2981.72,-391.366 2979.96,-394.615 2977.91,-397.689"/>
<polygon fill="black" stroke="black" points="2974.96,-395.789 2971.58,-405.831 2980.48,-400.087 2974.96,-395.789"/>
<text text-anchor="middle" x="3006" y="-376.8" font-family="Times,serif" font-size="14.00">POST</text>
</g>
<!-- 1_fwatchdog#ServerID_04eca90de97f -->
<g id="node13" class="node"><title>1_fwatchdog#ServerID_04eca90de97f</title>
<polygon fill="none" stroke="black" points="4268.5,-226 3975.5,-226 3975.5,-190 4268.5,-190 4268.5,-226"/>
<text text-anchor="middle" x="4122" y="-204.3" font-family="Times,serif" font-size="14.00">1_fwatchdog#ServerID_04eca90de97f</text>
</g>
<!-- 10.1.80.44:37242#ServerID_OuterContainerID&#45;&gt;1_fwatchdog#ServerID_04eca90de97f -->
<g id="edge19" class="edge"><title>10.1.80.44:37242#ServerID_OuterContainerID&#45;&gt;1_fwatchdog#ServerID_04eca90de97f</title>
<path fill="none" stroke="black" d="M3084.83,-304.351C3292.99,-285.214 3730.46,-244.996 3965.22,-223.414"/>
<polygon fill="black" stroke="black" points="3965.57,-226.896 3975.2,-222.496 3964.93,-219.926 3965.57,-226.896"/>
<text text-anchor="middle" x="3527.5" y="-268.8" font-family="Times,serif" font-size="14.00">read</text>
</g>
<!-- localhost:3000#ServerID_309ec2955ffa -->
<g id="node6" class="node"><title>localhost:3000#ServerID_309ec2955ffa</title>
<polygon fill="none" stroke="black" points="1533,-550 1253.65,-532 1533,-514 1812.35,-532 1533,-550"/>
<text text-anchor="middle" x="1533" y="-528.3" font-family="Times,serif" font-size="14.00">localhost:3000#ServerID_309ec2955ffa</text>
</g>
<!-- 1_fwatchdog#ServerID_309ec2955ffa&#45;&gt;localhost:3000#ServerID_309ec2955ffa -->
<g id="edge5" class="edge"><title>1_fwatchdog#ServerID_309ec2955ffa&#45;&gt;localhost:3000#ServerID_309ec2955ffa</title>
<path fill="none" stroke="black" d="M1576.08,-600.705C1571.33,-595.214 1566.26,-589.005 1562,-583 1556.57,-575.353 1551.25,-566.627 1546.67,-558.629"/>
<polygon fill="black" stroke="black" points="1549.6,-556.709 1541.67,-549.682 1543.49,-560.12 1549.6,-556.709"/>
<text text-anchor="middle" x="1581" y="-571.8" font-family="Times,serif" font-size="14.00">write</text>
</g>
<!-- 1_fwatchdog#ServerID_309ec2955ffa&#45;&gt;localhost:3000#ServerID_309ec2955ffa -->
<g id="edge10" class="edge"><title>1_fwatchdog#ServerID_309ec2955ffa&#45;&gt;localhost:3000#ServerID_309ec2955ffa</title>
<path fill="none" stroke="black" d="M1600.21,-600.689C1603.77,-590.515 1605.92,-577.774 1600,-568 1596.39,-562.042 1591.4,-557.051 1585.75,-552.88"/>
<polygon fill="black" stroke="black" points="1587.4,-549.782 1577.09,-547.341 1583.63,-555.679 1587.4,-549.782"/>
<text text-anchor="middle" x="1633" y="-571.8" font-family="Times,serif" font-size="14.00">connect</text>
</g>
<!-- localhost:3000#ServerID_309ec2955ffa&#45;&gt;1_fwatchdog#ServerID_309ec2955ffa -->
<g id="edge11" class="edge"><title>localhost:3000#ServerID_309ec2955ffa&#45;&gt;1_fwatchdog#ServerID_309ec2955ffa</title>
<path fill="none" stroke="black" d="M1520.3,-549.655C1514.2,-559.833 1509.47,-572.808 1516,-583 1518.86,-587.473 1522.46,-591.382 1526.52,-594.797"/>
<polygon fill="black" stroke="black" points="1524.67,-597.777 1534.83,-600.774 1528.76,-592.094 1524.67,-597.777"/>
<text text-anchor="middle" x="1532.5" y="-571.8" font-family="Times,serif" font-size="14.00">read</text>
</g>
<!-- 11_node#ServerID_309ec2955ffa -->
<g id="node9" class="node"><title>11_node#ServerID_309ec2955ffa</title>
<polygon fill="none" stroke="black" points="2219.5,-442 1960.5,-442 1960.5,-406 2219.5,-406 2219.5,-442"/>
<text text-anchor="middle" x="2090" y="-420.3" font-family="Times,serif" font-size="14.00">11_node#ServerID_309ec2955ffa</text>
</g>
<!-- localhost:3000#ServerID_309ec2955ffa&#45;&gt;11_node#ServerID_309ec2955ffa -->
<g id="edge13" class="edge"><title>localhost:3000#ServerID_309ec2955ffa&#45;&gt;11_node#ServerID_309ec2955ffa</title>
<path fill="none" stroke="black" d="M1599.91,-518.267C1696.99,-499.791 1877.6,-465.421 1990.37,-443.96"/>
<polygon fill="black" stroke="black" points="1991.22,-447.36 2000.39,-442.053 1989.92,-440.484 1991.22,-447.36"/>
<text text-anchor="middle" x="1811.5" y="-484.8" font-family="Times,serif" font-size="14.00">read</text>
</g>
<!-- gateway:8080#ServerID_OuterContainerID&#45;&gt;1_fwatchdog#ServerID_866797f645&#45;wb664 -->
<g id="edge6" class="edge"><title>gateway:8080#ServerID_OuterContainerID&#45;&gt;1_fwatchdog#ServerID_866797f645&#45;wb664</title>
<path fill="none" stroke="black" d="M1598,-331.077C1538.8,-347.222 1436.99,-373.345 1348,-388 1301.31,-395.69 1289.08,-393.285 1242,-398 1220.13,-400.19 1197.12,-402.553 1174.4,-404.922"/>
<polygon fill="black" stroke="black" points="1173.92,-401.453 1164.34,-405.974 1174.65,-408.415 1173.92,-401.453"/>
<text text-anchor="middle" x="1465" y="-376.8" font-family="Times,serif" font-size="14.00">RESPONSE</text>
</g>
<!-- 10.1.80.44:8080#ServerID_OuterContainerID&#45;&gt;1_fwatchdog#ServerID_866797f645&#45;wb664 -->
<g id="edge8" class="edge"><title>10.1.80.44:8080#ServerID_OuterContainerID&#45;&gt;1_fwatchdog#ServerID_866797f645&#45;wb664</title>
<path fill="none" stroke="black" d="M1011.68,-333.944C1015.05,-348.339 1018.59,-369.543 1016,-388 1015.64,-390.574 1015.14,-393.224 1014.55,-395.859"/>
<polygon fill="black" stroke="black" points="1011.1,-395.198 1011.96,-405.759 1017.87,-396.971 1011.1,-395.198"/>
<text text-anchor="middle" x="1059" y="-376.8" font-family="Times,serif" font-size="14.00">RESPONSE</text>
</g>
<!-- 10.1.80.1:28292#ServerID_OuterContainerID -->
<g id="node18" class="node"><title>10.1.80.1:28292#ServerID_OuterContainerID</title>
<polygon fill="none" stroke="black" points="1114,-226 795.105,-208 1114,-190 1432.9,-208 1114,-226"/>
<text text-anchor="middle" x="1114" y="-204.3" font-family="Times,serif" font-size="14.00">10.1.80.1:28292#ServerID_OuterContainerID</text>
</g>
<!-- 10.1.80.44:8080#ServerID_OuterContainerID&#45;&gt;10.1.80.1:28292#ServerID_OuterContainerID -->
<g id="edge26" class="edge"><title>10.1.80.44:8080#ServerID_OuterContainerID&#45;&gt;10.1.80.1:28292#ServerID_OuterContainerID</title>
<path fill="none" stroke="black" d="M1003.24,-298.038C1001.91,-287.745 1001.99,-274.756 1008,-265 1018.51,-247.951 1036.09,-235.807 1053.95,-227.289"/>
<polygon fill="black" stroke="black" points="1055.55,-230.408 1063.28,-223.158 1052.72,-224.007 1055.55,-230.408"/>
<text text-anchor="middle" x="1050" y="-268.8" font-family="Times,serif" font-size="14.00">RESPONSE</text>
</g>
<!-- 10.0.88.125:31112#ServerID_OuterContainerID -->
<g id="node19" class="node"><title>10.0.88.125:31112#ServerID_OuterContainerID</title>
<polygon fill="none" stroke="black" points="442,-226 106.515,-208 442,-190 777.485,-208 442,-226"/>
<text text-anchor="middle" x="442" y="-204.3" font-family="Times,serif" font-size="14.00">10.0.88.125:31112#ServerID_OuterContainerID</text>
</g>
<!-- 10.1.80.44:8080#ServerID_OuterContainerID&#45;&gt;10.0.88.125:31112#ServerID_OuterContainerID -->
<g id="edge28" class="edge"><title>10.1.80.44:8080#ServerID_OuterContainerID&#45;&gt;10.0.88.125:31112#ServerID_OuterContainerID</title>
<path fill="none" stroke="black" d="M937.153,-301.896C832.078,-282.183 633.84,-244.991 522.721,-224.144"/>
<polygon fill="black" stroke="black" points="523.048,-220.645 512.574,-222.24 521.757,-227.524 523.048,-220.645"/>
<text text-anchor="middle" x="851" y="-268.8" font-family="Times,serif" font-size="14.00">RESPONSE</text>
</g>
<!-- 11_node#ServerID_309ec2955ffa&#45;&gt;gateway:8080#ServerID_OuterContainerID -->
<g id="edge18" class="edge"><title>11_node#ServerID_309ec2955ffa&#45;&gt;gateway:8080#ServerID_OuterContainerID</title>
<path fill="none" stroke="black" d="M2018.99,-405.969C1935.24,-385.885 1797.08,-352.753 1715.08,-333.088"/>
<polygon fill="black" stroke="black" points="1715.66,-329.628 1705.12,-330.699 1714.03,-336.435 1715.66,-329.628"/>
<text text-anchor="middle" x="1964" y="-376.8" font-family="Times,serif" font-size="14.00">connect</text>
</g>
<!-- 10.152.183.10:53#ServerID_OuterContainerID -->
<g id="node12" class="node"><title>10.152.183.10:53#ServerID_OuterContainerID</title>
<polygon fill="none" stroke="black" points="2297,-334 1969.56,-316 2297,-298 2624.44,-316 2297,-334"/>
<text text-anchor="middle" x="2297" y="-312.3" font-family="Times,serif" font-size="14.00">10.152.183.10:53#ServerID_OuterContainerID</text>
</g>
<!-- 11_node#ServerID_309ec2955ffa&#45;&gt;10.152.183.10:53#ServerID_OuterContainerID -->
<g id="edge16" class="edge"><title>11_node#ServerID_309ec2955ffa&#45;&gt;10.152.183.10:53#ServerID_OuterContainerID</title>
<path fill="none" stroke="black" d="M2106.52,-405.95C2117.51,-395.363 2132.68,-382.09 2148,-373 2175.43,-356.728 2208.4,-343.748 2236.35,-334.397"/>
<polygon fill="black" stroke="black" points="2237.59,-337.674 2246.01,-331.242 2235.42,-331.02 2237.59,-337.674"/>
<text text-anchor="middle" x="2172.5" y="-376.8" font-family="Times,serif" font-size="14.00">sendto</text>
</g>
<!-- /etc/hosts#ServerID_309ec2955ffa -->
<g id="node10" class="node"><title>/etc/hosts#ServerID_309ec2955ffa</title>
<ellipse fill="none" stroke="black" cx="2424" cy="-532" rx="174.669" ry="18"/>
<text text-anchor="middle" x="2424" y="-528.3" font-family="Times,serif" font-size="14.00">/etc/hosts#ServerID_309ec2955ffa</text>
</g>
<!-- /etc/hosts#ServerID_309ec2955ffa&#45;&gt;11_node#ServerID_309ec2955ffa -->
<g id="edge14" class="edge"><title>/etc/hosts#ServerID_309ec2955ffa&#45;&gt;11_node#ServerID_309ec2955ffa</title>
<path fill="none" stroke="black" d="M2372.91,-514.785C2313.9,-496.057 2216.78,-465.237 2153.11,-445.028"/>
<polygon fill="black" stroke="black" points="2154.16,-441.692 2143.57,-442.003 2152.05,-448.364 2154.16,-441.692"/>
<text text-anchor="middle" x="2323.5" y="-484.8" font-family="Times,serif" font-size="14.00">read</text>
</g>
<!-- /etc/resolv.conf#ServerID_309ec2955ffa -->
<g id="node11" class="node"><title>/etc/resolv.conf#ServerID_309ec2955ffa</title>
<ellipse fill="none" stroke="black" cx="2031" cy="-532" rx="200.365" ry="18"/>
<text text-anchor="middle" x="2031" y="-528.3" font-family="Times,serif" font-size="14.00">/etc/resolv.conf#ServerID_309ec2955ffa</text>
</g>
<!-- /etc/resolv.conf#ServerID_309ec2955ffa&#45;&gt;11_node#ServerID_309ec2955ffa -->
<g id="edge15" class="edge"><title>/etc/resolv.conf#ServerID_309ec2955ffa&#45;&gt;11_node#ServerID_309ec2955ffa</title>
<path fill="none" stroke="black" d="M2040.48,-513.969C2049.93,-496.994 2064.56,-470.698 2075.48,-451.09"/>
<polygon fill="black" stroke="black" points="2078.54,-452.781 2080.35,-442.341 2072.43,-449.376 2078.54,-452.781"/>
<text text-anchor="middle" x="2075.5" y="-484.8" font-family="Times,serif" font-size="14.00">read</text>
</g>
<!-- 10.152.183.10:53#ServerID_OuterContainerID&#45;&gt;11_node#ServerID_309ec2955ffa -->
<g id="edge17" class="edge"><title>10.152.183.10:53#ServerID_OuterContainerID&#45;&gt;11_node#ServerID_309ec2955ffa</title>
<path fill="none" stroke="black" d="M2278.19,-332.997C2258.88,-348.768 2227.42,-372.67 2197,-388 2186.23,-393.428 2174.43,-398.274 2162.73,-402.501"/>
<polygon fill="black" stroke="black" points="2161.24,-399.314 2152.95,-405.907 2163.54,-405.925 2161.24,-399.314"/>
<text text-anchor="middle" x="2257" y="-376.8" font-family="Times,serif" font-size="14.00">recvfrom</text>
</g>
<!-- localhost:3000#ServerID_04eca90de97f -->
<g id="node14" class="node"><title>localhost:3000#ServerID_04eca90de97f</title>
<polygon fill="none" stroke="black" points="4122,-139 3839.64,-121 4122,-103 4404.36,-121 4122,-139"/>
<text text-anchor="middle" x="4122" y="-117.3" font-family="Times,serif" font-size="14.00">localhost:3000#ServerID_04eca90de97f</text>
</g>
<!-- 1_fwatchdog#ServerID_04eca90de97f&#45;&gt;localhost:3000#ServerID_04eca90de97f -->
<g id="edge21" class="edge"><title>1_fwatchdog#ServerID_04eca90de97f&#45;&gt;localhost:3000#ServerID_04eca90de97f</title>
<path fill="none" stroke="black" d="M4122,-189.799C4122,-178.163 4122,-162.548 4122,-149.237"/>
<polygon fill="black" stroke="black" points="4125.5,-149.175 4122,-139.175 4118.5,-149.175 4125.5,-149.175"/>
<text text-anchor="middle" x="4151" y="-160.8" font-family="Times,serif" font-size="14.00">connect</text>
</g>
<!-- 1_fwatchdog#ServerID_04eca90de97f&#45;&gt;localhost:3000#ServerID_04eca90de97f -->
<g id="edge23" class="edge"><title>1_fwatchdog#ServerID_04eca90de97f&#45;&gt;localhost:3000#ServerID_04eca90de97f</title>
<path fill="none" stroke="black" d="M4163.64,-189.892C4170.59,-185.144 4176.87,-179.244 4181,-172 4187.69,-160.245 4179.98,-149.999 4168.16,-141.893"/>
<polygon fill="black" stroke="black" points="4169.82,-138.807 4159.45,-136.632 4166.2,-144.799 4169.82,-138.807"/>
<text text-anchor="middle" x="4202" y="-160.8" font-family="Times,serif" font-size="14.00">write</text>
</g>
<!-- pipe:[445142]#ServerID_04eca90de97f -->
<g id="node17" class="node"><title>pipe:[445142]#ServerID_04eca90de97f</title>
<ellipse fill="none" stroke="black" cx="4618" cy="-121" rx="196.065" ry="18"/>
<text text-anchor="middle" x="4618" y="-117.3" font-family="Times,serif" font-size="14.00">pipe:[445142]#ServerID_04eca90de97f</text>
</g>
<!-- 1_fwatchdog#ServerID_04eca90de97f&#45;&gt;pipe:[445142]#ServerID_04eca90de97f -->
<g id="edge25" class="edge"><title>1_fwatchdog#ServerID_04eca90de97f&#45;&gt;pipe:[445142]#ServerID_04eca90de97f</title>
<path fill="none" stroke="black" d="M4221.48,-189.952C4308.26,-175.081 4433.44,-153.628 4519.83,-138.824"/>
<polygon fill="black" stroke="black" points="4520.64,-142.236 4529.9,-137.097 4519.46,-135.337 4520.64,-142.236"/>
<text text-anchor="middle" x="4418" y="-160.8" font-family="Times,serif" font-size="14.00">write</text>
</g>
<!-- localhost:3000#ServerID_04eca90de97f&#45;&gt;1_fwatchdog#ServerID_04eca90de97f -->
<g id="edge20" class="edge"><title>localhost:3000#ServerID_04eca90de97f&#45;&gt;1_fwatchdog#ServerID_04eca90de97f</title>
<path fill="none" stroke="black" d="M4087.07,-136.983C4071.96,-145.804 4059.3,-157.973 4067,-172 4069.33,-176.241 4072.41,-180.042 4075.94,-183.432"/>
<polygon fill="black" stroke="black" points="4073.74,-186.157 4083.68,-189.819 4078.19,-180.757 4073.74,-186.157"/>
<text text-anchor="middle" x="4083.5" y="-160.8" font-family="Times,serif" font-size="14.00">read</text>
</g>
<!-- 13_node#ServerID_04eca90de97f -->
<g id="node15" class="node"><title>13_node#ServerID_04eca90de97f</title>
<polygon fill="none" stroke="black" points="3977,-52 3715,-52 3715,-16 3977,-16 3977,-52"/>
<text text-anchor="middle" x="3846" y="-30.3" font-family="Times,serif" font-size="14.00">13_node#ServerID_04eca90de97f</text>
</g>
<!-- localhost:3000#ServerID_04eca90de97f&#45;&gt;13_node#ServerID_04eca90de97f -->
<g id="edge22" class="edge"><title>localhost:3000#ServerID_04eca90de97f&#45;&gt;13_node#ServerID_04eca90de97f</title>
<path fill="none" stroke="black" d="M4076.11,-105.869C4031.04,-91.9873 3961.84,-70.6754 3911.09,-55.0465"/>
<polygon fill="black" stroke="black" points="3912.11,-51.6974 3901.52,-52.099 3910.05,-58.3873 3912.11,-51.6974"/>
<text text-anchor="middle" x="4016.5" y="-73.8" font-family="Times,serif" font-size="14.00">read</text>
</g>
<!-- /home/app/credentials.txt#ServerID_04eca90de97f -->
<g id="node16" class="node"><title>/home/app/credentials.txt#ServerID_04eca90de97f</title>
<ellipse fill="none" stroke="black" cx="3571" cy="-121" rx="250.756" ry="18"/>
<text text-anchor="middle" x="3571" y="-117.3" font-family="Times,serif" font-size="14.00">/home/app/credentials.txt#ServerID_04eca90de97f</text>
</g>
<!-- /home/app/credentials.txt#ServerID_04eca90de97f&#45;&gt;13_node#ServerID_04eca90de97f -->
<g id="edge24" class="edge"><title>/home/app/credentials.txt#ServerID_04eca90de97f&#45;&gt;13_node#ServerID_04eca90de97f</title>
<path fill="none" stroke="black" d="M3624.68,-103.409C3669.42,-89.5783 3733.32,-69.8271 3780.97,-55.1002"/>
<polygon fill="black" stroke="black" points="3782.05,-58.4285 3790.57,-52.1315 3779.99,-51.7407 3782.05,-58.4285"/>
<text text-anchor="middle" x="3740.5" y="-73.8" font-family="Times,serif" font-size="14.00">read</text>
</g>
<!-- 10.1.80.1:28292#ServerID_OuterContainerID&#45;&gt;10.1.80.44:8080#ServerID_OuterContainerID -->
<g id="edge27" class="edge"><title>10.1.80.1:28292#ServerID_OuterContainerID&#45;&gt;10.1.80.44:8080#ServerID_OuterContainerID</title>
<path fill="none" stroke="black" d="M1112.77,-226.234C1110.78,-242.024 1105.58,-265.138 1092,-280 1085.98,-286.591 1078.53,-291.973 1070.56,-296.36"/>
<polygon fill="black" stroke="black" points="1068.8,-293.324 1061.4,-300.9 1071.91,-299.597 1068.8,-293.324"/>
<text text-anchor="middle" x="1122" y="-268.8" font-family="Times,serif" font-size="14.00">POST</text>
</g>
</g>
</svg>
