<?xml version="1.0" encoding="UTF-8" standalone="no"?>
<!DOCTYPE svg PUBLIC "-//W3C//DTD SVG 1.1//EN"
 "http://www.w3.org/Graphics/SVG/1.1/DTD/svg11.dtd">
<!-- Generated by graphviz version 2.38.0 (20140413.2041)
 -->
<!-- Title: G Pages: 1 -->
<svg width="5271pt" height="945pt"
 viewBox="0.00 0.00 5271.00 945.00" xmlns="http://www.w3.org/2000/svg" xmlns:xlink="http://www.w3.org/1999/xlink">
<g id="graph0" class="graph" transform="scale(1 1) rotate(0) translate(4 941)">
<title>G</title>
<polygon fill="white" stroke="none" points="-4,4 -4,-941 5267,-941 5267,4 -4,4"/>
<g id="clust1" class="cluster"><title>clusterServerID_667d78fb58&#45;2fhs5</title>
<polygon fill="none" stroke="black" points="3363,-530 3363,-605 3703,-605 3703,-530 3363,-530"/>
<text text-anchor="middle" x="3533" y="-589.8" font-family="Times,serif" font-size="14.00">clusterServerID_667d78fb58&#45;2fhs5</text>
</g>
<g id="clust2" class="cluster"><title>clusterServerID_6dcbcc88d5&#45;4vpdn</title>
<polygon fill="none" stroke="black" points="819,-746 819,-821 1163,-821 1163,-746 819,-746"/>
<text text-anchor="middle" x="991" y="-805.8" font-family="Times,serif" font-size="14.00">clusterServerID_6dcbcc88d5&#45;4vpdn</text>
</g>
<g id="clust3" class="cluster"><title>clusterServerID_79226724f3b6</title>
<polygon fill="none" stroke="black" points="3711,-8 3711,-605 5255,-605 5255,-8 3711,-8"/>
<text text-anchor="middle" x="4483" y="-589.8" font-family="Times,serif" font-size="14.00">clusterServerID_79226724f3b6</text>
</g>
<g id="clust4" class="cluster"><title>clusterServerID_OuterContainerID</title>
<polygon fill="none" stroke="black" points="8,-530 8,-713 3355,-713 3355,-530 8,-530"/>
<text text-anchor="middle" x="1681.5" y="-697.8" font-family="Times,serif" font-size="14.00">clusterServerID_OuterContainerID</text>
</g>
<g id="clust5" class="cluster"><title>clusterServerID_d4de233c55aa</title>
<polygon fill="none" stroke="black" points="3363,-638 3363,-929 4753,-929 4753,-638 3363,-638"/>
<text text-anchor="middle" x="4058" y="-913.8" font-family="Times,serif" font-size="14.00">clusterServerID_d4de233c55aa</text>
</g>
<!-- 1_fwatchdog#ServerID_6dcbcc88d5&#45;4vpdn -->
<g id="node1" class="node"><title>1_fwatchdog#ServerID_6dcbcc88d5&#45;4vpdn</title>
<polygon fill="none" stroke="black" points="1155.5,-790 826.5,-790 826.5,-754 1155.5,-754 1155.5,-790"/>
<text text-anchor="middle" x="991" y="-768.3" font-family="Times,serif" font-size="14.00">1_fwatchdog#ServerID_6dcbcc88d5&#45;4vpdn</text>
</g>
<!-- gateway:8080#ServerID_OuterContainerID -->
<g id="node2" class="node"><title>gateway:8080#ServerID_OuterContainerID</title>
<polygon fill="none" stroke="black" points="992,-682 687.518,-664 992,-646 1296.48,-664 992,-682"/>
<text text-anchor="middle" x="992" y="-660.3" font-family="Times,serif" font-size="14.00">gateway:8080#ServerID_OuterContainerID</text>
</g>
<!-- 1_fwatchdog#ServerID_6dcbcc88d5&#45;4vpdn&#45;&gt;gateway:8080#ServerID_OuterContainerID -->
<g id="edge1" class="edge"><title>1_fwatchdog#ServerID_6dcbcc88d5&#45;4vpdn&#45;&gt;gateway:8080#ServerID_OuterContainerID</title>
<path fill="none" stroke="black" d="M972.041,-753.736C967.557,-748.523 963.388,-742.455 961,-736 958.687,-729.747 959.333,-727.455 961,-721 963.752,-710.348 969.011,-699.56 974.427,-690.334"/>
<polygon fill="black" stroke="black" points="977.494,-692.03 979.809,-681.692 971.552,-688.33 977.494,-692.03"/>
<text text-anchor="middle" x="981" y="-724.8" font-family="Times,serif" font-size="14.00">POST</text>
</g>
<!-- 10.1.80.247:53772#ServerID_OuterContainerID -->
<g id="node7" class="node"><title>10.1.80.247:53772#ServerID_OuterContainerID</title>
<polygon fill="none" stroke="black" points="1650,-682 1314.52,-664 1650,-646 1985.48,-664 1650,-682"/>
<text text-anchor="middle" x="1650" y="-660.3" font-family="Times,serif" font-size="14.00">10.1.80.247:53772#ServerID_OuterContainerID</text>
</g>
<!-- 1_fwatchdog#ServerID_6dcbcc88d5&#45;4vpdn&#45;&gt;10.1.80.247:53772#ServerID_OuterContainerID -->
<g id="edge10" class="edge"><title>1_fwatchdog#ServerID_6dcbcc88d5&#45;4vpdn&#45;&gt;10.1.80.247:53772#ServerID_OuterContainerID</title>
<path fill="none" stroke="black" d="M1083.62,-753.986C1138.83,-744.005 1210.35,-731.361 1274,-721 1368.45,-705.626 1476.52,-689.704 1552.49,-678.785"/>
<polygon fill="black" stroke="black" points="1553.12,-682.23 1562.52,-677.345 1552.13,-675.301 1553.12,-682.23"/>
<text text-anchor="middle" x="1316" y="-724.8" font-family="Times,serif" font-size="14.00">RESPONSE</text>
</g>
<!-- 10.1.80.247:8080#ServerID_OuterContainerID -->
<g id="node8" class="node"><title>10.1.80.247:8080#ServerID_OuterContainerID</title>
<polygon fill="none" stroke="black" points="343,-682 15.5599,-664 343,-646 670.44,-664 343,-682"/>
<text text-anchor="middle" x="343" y="-660.3" font-family="Times,serif" font-size="14.00">10.1.80.247:8080#ServerID_OuterContainerID</text>
</g>
<!-- 1_fwatchdog#ServerID_6dcbcc88d5&#45;4vpdn&#45;&gt;10.1.80.247:8080#ServerID_OuterContainerID -->
<g id="edge5" class="edge"><title>1_fwatchdog#ServerID_6dcbcc88d5&#45;4vpdn&#45;&gt;10.1.80.247:8080#ServerID_OuterContainerID</title>
<path fill="none" stroke="black" d="M886.888,-753.969C760.524,-733.299 549.669,-698.807 431.034,-679.401"/>
<polygon fill="black" stroke="black" points="431.334,-675.903 420.9,-677.743 430.203,-682.811 431.334,-675.903"/>
<text text-anchor="middle" x="783" y="-724.8" font-family="Times,serif" font-size="14.00">POST</text>
</g>
<!-- gateway:8080#ServerID_OuterContainerID&#45;&gt;1_fwatchdog#ServerID_6dcbcc88d5&#45;4vpdn -->
<g id="edge7" class="edge"><title>gateway:8080#ServerID_OuterContainerID&#45;&gt;1_fwatchdog#ServerID_6dcbcc88d5&#45;4vpdn</title>
<path fill="none" stroke="black" d="M996.681,-681.944C1000.05,-696.339 1003.59,-717.543 1001,-736 1000.64,-738.574 1000.14,-741.224 999.547,-743.859"/>
<polygon fill="black" stroke="black" points="996.102,-743.198 996.955,-753.759 1002.87,-744.971 996.102,-743.198"/>
<text text-anchor="middle" x="1044" y="-724.8" font-family="Times,serif" font-size="14.00">RESPONSE</text>
</g>
<!-- 10.1.80.247:55346#ServerID_OuterContainerID -->
<g id="node3" class="node"><title>10.1.80.247:55346#ServerID_OuterContainerID</title>
<polygon fill="none" stroke="black" points="2339,-682 2003.52,-664 2339,-646 2674.48,-664 2339,-682"/>
<text text-anchor="middle" x="2339" y="-660.3" font-family="Times,serif" font-size="14.00">10.1.80.247:55346#ServerID_OuterContainerID</text>
</g>
<!-- 1_fwatchdog#ServerID_667d78fb58&#45;2fhs5 -->
<g id="node4" class="node"><title>1_fwatchdog#ServerID_667d78fb58&#45;2fhs5</title>
<polygon fill="none" stroke="black" points="3694.5,-574 3371.5,-574 3371.5,-538 3694.5,-538 3694.5,-574"/>
<text text-anchor="middle" x="3533" y="-552.3" font-family="Times,serif" font-size="14.00">1_fwatchdog#ServerID_667d78fb58&#45;2fhs5</text>
</g>
<!-- 10.1.80.247:55346#ServerID_OuterContainerID&#45;&gt;1_fwatchdog#ServerID_667d78fb58&#45;2fhs5 -->
<g id="edge2" class="edge"><title>10.1.80.247:55346#ServerID_OuterContainerID&#45;&gt;1_fwatchdog#ServerID_667d78fb58&#45;2fhs5</title>
<path fill="none" stroke="black" d="M2468.38,-652.927C2533.11,-648.065 2612.67,-642.356 2684,-638 2907.42,-624.355 2963.43,-623.755 3187,-613 3263.44,-609.323 3283.42,-617.028 3359,-605 3397.59,-598.859 3439.87,-587.312 3473.08,-577.083"/>
<polygon fill="black" stroke="black" points="3474.14,-580.42 3482.64,-574.099 3472.06,-573.738 3474.14,-580.42"/>
<text text-anchor="middle" x="3207" y="-616.8" font-family="Times,serif" font-size="14.00">POST</text>
</g>
<!-- 1_fwatchdog#ServerID_79226724f3b6 -->
<g id="node14" class="node"><title>1_fwatchdog#ServerID_79226724f3b6</title>
<polygon fill="none" stroke="black" points="4351,-574 4055,-574 4055,-538 4351,-538 4351,-574"/>
<text text-anchor="middle" x="4203" y="-552.3" font-family="Times,serif" font-size="14.00">1_fwatchdog#ServerID_79226724f3b6</text>
</g>
<!-- 10.1.80.247:55346#ServerID_OuterContainerID&#45;&gt;1_fwatchdog#ServerID_79226724f3b6 -->
<g id="edge19" class="edge"><title>10.1.80.247:55346#ServerID_OuterContainerID&#45;&gt;1_fwatchdog#ServerID_79226724f3b6</title>
<path fill="none" stroke="black" d="M2460.24,-652.471C2526.33,-647.172 2609.6,-641.206 2684,-638 3005.95,-624.127 3087.08,-642.629 3409,-628 3541.7,-621.97 3574.66,-616.509 3707,-605 3820,-595.172 3947.35,-582.821 4044.72,-573.109"/>
<polygon fill="black" stroke="black" points="4045.34,-576.564 4054.94,-572.088 4044.64,-569.599 4045.34,-576.564"/>
<text text-anchor="middle" x="3631.5" y="-616.8" font-family="Times,serif" font-size="14.00">read</text>
</g>
<!-- 1_fwatchdog#ServerID_667d78fb58&#45;2fhs5&#45;&gt;10.1.80.247:55346#ServerID_OuterContainerID -->
<g id="edge6" class="edge"><title>1_fwatchdog#ServerID_667d78fb58&#45;2fhs5&#45;&gt;10.1.80.247:55346#ServerID_OuterContainerID</title>
<path fill="none" stroke="black" d="M3479.27,-574.038C3418.72,-592.161 3316.98,-619.384 3227,-628 3106.86,-639.504 2804.56,-632.526 2684,-638 2613.67,-641.193 2535.41,-646.704 2471.23,-651.741"/>
<polygon fill="black" stroke="black" points="2470.74,-648.268 2461.05,-652.545 2471.3,-655.246 2470.74,-648.268"/>
<text text-anchor="middle" x="3363" y="-616.8" font-family="Times,serif" font-size="14.00">RESPONSE</text>
</g>
<!-- localhost:3000#ServerID_d4de233c55aa -->
<g id="node5" class="node"><title>localhost:3000#ServerID_d4de233c55aa</title>
<polygon fill="none" stroke="black" points="3657,-898 3371.28,-880 3657,-862 3942.72,-880 3657,-898"/>
<text text-anchor="middle" x="3657" y="-876.3" font-family="Times,serif" font-size="14.00">localhost:3000#ServerID_d4de233c55aa</text>
</g>
<!-- 1_fwatchdog#ServerID_d4de233c55aa -->
<g id="node6" class="node"><title>1_fwatchdog#ServerID_d4de233c55aa</title>
<polygon fill="none" stroke="black" points="3688.5,-790 3391.5,-790 3391.5,-754 3688.5,-754 3688.5,-790"/>
<text text-anchor="middle" x="3540" y="-768.3" font-family="Times,serif" font-size="14.00">1_fwatchdog#ServerID_d4de233c55aa</text>
</g>
<!-- localhost:3000#ServerID_d4de233c55aa&#45;&gt;1_fwatchdog#ServerID_d4de233c55aa -->
<g id="edge3" class="edge"><title>localhost:3000#ServerID_d4de233c55aa&#45;&gt;1_fwatchdog#ServerID_d4de233c55aa</title>
<path fill="none" stroke="black" d="M3629.62,-863.721C3620.44,-858.052 3610.41,-851.229 3602,-844 3586.02,-830.27 3570.43,-812.395 3558.89,-798.015"/>
<polygon fill="black" stroke="black" points="3561.52,-795.7 3552.58,-790.01 3556.02,-800.032 3561.52,-795.7"/>
<text text-anchor="middle" x="3618.5" y="-832.8" font-family="Times,serif" font-size="14.00">read</text>
</g>
<!-- 1_fwatchdog#ServerID_d4de233c55aa&#45;&gt;localhost:3000#ServerID_d4de233c55aa -->
<g id="edge9" class="edge"><title>1_fwatchdog#ServerID_d4de233c55aa&#45;&gt;localhost:3000#ServerID_d4de233c55aa</title>
<path fill="none" stroke="black" d="M3580.93,-790.029C3599.36,-799.342 3620.25,-812.397 3635,-829 3641,-835.754 3645.58,-844.406 3648.97,-852.607"/>
<polygon fill="black" stroke="black" points="3645.77,-854.062 3652.52,-862.23 3652.34,-851.636 3645.77,-854.062"/>
<text text-anchor="middle" x="3674" y="-832.8" font-family="Times,serif" font-size="14.00">connect</text>
</g>
<!-- 1_fwatchdog#ServerID_d4de233c55aa&#45;&gt;localhost:3000#ServerID_d4de233c55aa -->
<g id="edge11" class="edge"><title>1_fwatchdog#ServerID_d4de233c55aa&#45;&gt;localhost:3000#ServerID_d4de233c55aa</title>
<path fill="none" stroke="black" d="M3536.22,-790.116C3533.8,-805.822 3533.04,-828.88 3545,-844 3551.1,-851.709 3558.87,-857.755 3567.48,-862.492"/>
<polygon fill="black" stroke="black" points="3566.19,-865.755 3576.71,-866.968 3569.24,-859.456 3566.19,-865.755"/>
<text text-anchor="middle" x="3564" y="-832.8" font-family="Times,serif" font-size="14.00">write</text>
</g>
<!-- 10.1.80.247:53772#ServerID_OuterContainerID&#45;&gt;1_fwatchdog#ServerID_6dcbcc88d5&#45;4vpdn -->
<g id="edge4" class="edge"><title>10.1.80.247:53772#ServerID_OuterContainerID&#45;&gt;1_fwatchdog#ServerID_6dcbcc88d5&#45;4vpdn</title>
<path fill="none" stroke="black" d="M1601.03,-679.421C1544.09,-695.639 1447.04,-721.587 1362,-736 1298.41,-746.778 1228.07,-754.47 1165.9,-759.844"/>
<polygon fill="black" stroke="black" points="1165.26,-756.385 1155.59,-760.72 1165.85,-763.36 1165.26,-756.385"/>
<text text-anchor="middle" x="1454" y="-724.8" font-family="Times,serif" font-size="14.00">POST</text>
</g>
<!-- 10.1.80.247:53772#ServerID_OuterContainerID&#45;&gt;1_fwatchdog#ServerID_d4de233c55aa -->
<g id="edge12" class="edge"><title>10.1.80.247:53772#ServerID_OuterContainerID&#45;&gt;1_fwatchdog#ServerID_d4de233c55aa</title>
<path fill="none" stroke="black" d="M1728.22,-677.834C1798,-688.817 1903.05,-704.205 1995,-713 2499.61,-761.263 3100.52,-769.882 3381.03,-771.084"/>
<polygon fill="black" stroke="black" points="3381.27,-774.584 3391.29,-771.125 3381.3,-767.584 3381.27,-774.584"/>
<text text-anchor="middle" x="2264.5" y="-724.8" font-family="Times,serif" font-size="14.00">read</text>
</g>
<!-- 10.1.80.247:8080#ServerID_OuterContainerID&#45;&gt;1_fwatchdog#ServerID_6dcbcc88d5&#45;4vpdn -->
<g id="edge8" class="edge"><title>10.1.80.247:8080#ServerID_OuterContainerID&#45;&gt;1_fwatchdog#ServerID_6dcbcc88d5&#45;4vpdn</title>
<path fill="none" stroke="black" d="M386.379,-679.636C436.852,-696.053 522.991,-722.185 599,-736 669.481,-748.811 747.981,-756.999 816.11,-762.202"/>
<polygon fill="black" stroke="black" points="815.851,-765.692 826.084,-762.948 816.373,-758.712 815.851,-765.692"/>
<text text-anchor="middle" x="641" y="-724.8" font-family="Times,serif" font-size="14.00">RESPONSE</text>
</g>
<!-- 10.1.80.1:63922#ServerID_OuterContainerID -->
<g id="node26" class="node"><title>10.1.80.1:63922#ServerID_OuterContainerID</title>
<polygon fill="none" stroke="black" points="335,-574 16.1049,-556 335,-538 653.895,-556 335,-574"/>
<text text-anchor="middle" x="335" y="-552.3" font-family="Times,serif" font-size="14.00">10.1.80.1:63922#ServerID_OuterContainerID</text>
</g>
<!-- 10.1.80.247:8080#ServerID_OuterContainerID&#45;&gt;10.1.80.1:63922#ServerID_OuterContainerID -->
<g id="edge36" class="edge"><title>10.1.80.247:8080#ServerID_OuterContainerID&#45;&gt;10.1.80.1:63922#ServerID_OuterContainerID</title>
<path fill="none" stroke="black" d="M303.089,-648.103C294.688,-643.04 286.895,-636.453 282,-628 271.93,-610.613 285.936,-592.484 302.069,-578.897"/>
<polygon fill="black" stroke="black" points="304.364,-581.546 310.064,-572.615 300.039,-576.041 304.364,-581.546"/>
<text text-anchor="middle" x="324" y="-616.8" font-family="Times,serif" font-size="14.00">RESPONSE</text>
</g>
<!-- 10.0.88.125:31112#ServerID_OuterContainerID -->
<g id="node27" class="node"><title>10.0.88.125:31112#ServerID_OuterContainerID</title>
<polygon fill="none" stroke="black" points="1007,-574 671.515,-556 1007,-538 1342.48,-556 1007,-574"/>
<text text-anchor="middle" x="1007" y="-552.3" font-family="Times,serif" font-size="14.00">10.0.88.125:31112#ServerID_OuterContainerID</text>
</g>
<!-- 10.1.80.247:8080#ServerID_OuterContainerID&#45;&gt;10.0.88.125:31112#ServerID_OuterContainerID -->
<g id="edge37" class="edge"><title>10.1.80.247:8080#ServerID_OuterContainerID&#45;&gt;10.0.88.125:31112#ServerID_OuterContainerID</title>
<path fill="none" stroke="black" d="M422.434,-650.319C546.818,-630.463 786.788,-592.154 917.247,-571.328"/>
<polygon fill="black" stroke="black" points="917.893,-574.769 927.216,-569.737 916.789,-567.857 917.893,-574.769"/>
<text text-anchor="middle" x="698" y="-616.8" font-family="Times,serif" font-size="14.00">RESPONSE</text>
</g>
<!-- 10_node#ServerID_d4de233c55aa -->
<g id="node9" class="node"><title>10_node#ServerID_d4de233c55aa</title>
<polygon fill="none" stroke="black" points="3973,-790 3707,-790 3707,-754 3973,-754 3973,-790"/>
<text text-anchor="middle" x="3840" y="-768.3" font-family="Times,serif" font-size="14.00">10_node#ServerID_d4de233c55aa</text>
</g>
<!-- 10_node#ServerID_d4de233c55aa&#45;&gt;gateway:8080#ServerID_OuterContainerID -->
<g id="edge18" class="edge"><title>10_node#ServerID_d4de233c55aa&#45;&gt;gateway:8080#ServerID_OuterContainerID</title>
<path fill="none" stroke="black" d="M3755.23,-753.944C3736.15,-750.73 3715.94,-747.812 3697,-746 3657.95,-742.264 2324.23,-721.508 2285,-721 2176.23,-719.593 1414.43,-721.686 1306,-713 1224.6,-706.48 1132.31,-691.443 1068.96,-679.923"/>
<polygon fill="black" stroke="black" points="1069.52,-676.466 1059.05,-678.106 1068.26,-683.352 1069.52,-676.466"/>
<text text-anchor="middle" x="3224" y="-724.8" font-family="Times,serif" font-size="14.00">connect</text>
</g>
<!-- pipe:[273418164]#ServerID_d4de233c55aa -->
<g id="node10" class="node"><title>pipe:[273418164]#ServerID_d4de233c55aa</title>
<ellipse fill="none" stroke="black" cx="3840" cy="-664" rx="215.562" ry="18"/>
<text text-anchor="middle" x="3840" y="-660.3" font-family="Times,serif" font-size="14.00">pipe:[273418164]#ServerID_d4de233c55aa</text>
</g>
<!-- 10_node#ServerID_d4de233c55aa&#45;&gt;pipe:[273418164]#ServerID_d4de233c55aa -->
<g id="edge13" class="edge"><title>10_node#ServerID_d4de233c55aa&#45;&gt;pipe:[273418164]#ServerID_d4de233c55aa</title>
<path fill="none" stroke="black" d="M3840,-753.969C3840,-737.378 3840,-711.883 3840,-692.431"/>
<polygon fill="black" stroke="black" points="3843.5,-692.341 3840,-682.341 3836.5,-692.341 3843.5,-692.341"/>
<text text-anchor="middle" x="3859" y="-724.8" font-family="Times,serif" font-size="14.00">write</text>
</g>
<!-- 10.152.183.10:53#ServerID_OuterContainerID -->
<g id="node13" class="node"><title>10.152.183.10:53#ServerID_OuterContainerID</title>
<polygon fill="none" stroke="black" points="3020,-682 2692.56,-664 3020,-646 3347.44,-664 3020,-682"/>
<text text-anchor="middle" x="3020" y="-660.3" font-family="Times,serif" font-size="14.00">10.152.183.10:53#ServerID_OuterContainerID</text>
</g>
<!-- 10_node#ServerID_d4de233c55aa&#45;&gt;10.152.183.10:53#ServerID_OuterContainerID -->
<g id="edge16" class="edge"><title>10_node#ServerID_d4de233c55aa&#45;&gt;10.152.183.10:53#ServerID_OuterContainerID</title>
<path fill="none" stroke="black" d="M3748.62,-753.963C3731.5,-751.073 3713.73,-748.276 3697,-746 3547.44,-725.655 3508.87,-730.918 3359,-713 3275.07,-702.966 3179.79,-689.269 3111.66,-679.074"/>
<polygon fill="black" stroke="black" points="3111.79,-675.555 3101.38,-677.533 3110.75,-682.478 3111.79,-675.555"/>
<text text-anchor="middle" x="3637.5" y="-724.8" font-family="Times,serif" font-size="14.00">sendto</text>
</g>
<!-- /etc/hosts#ServerID_d4de233c55aa -->
<g id="node11" class="node"><title>/etc/hosts#ServerID_d4de233c55aa</title>
<ellipse fill="none" stroke="black" cx="4140" cy="-880" rx="178.969" ry="18"/>
<text text-anchor="middle" x="4140" y="-876.3" font-family="Times,serif" font-size="14.00">/etc/hosts#ServerID_d4de233c55aa</text>
</g>
<!-- /etc/hosts#ServerID_d4de233c55aa&#45;&gt;10_node#ServerID_d4de233c55aa -->
<g id="edge14" class="edge"><title>/etc/hosts#ServerID_d4de233c55aa&#45;&gt;10_node#ServerID_d4de233c55aa</title>
<path fill="none" stroke="black" d="M4093.45,-862.554C4040.71,-843.919 3954.7,-813.528 3897.73,-793.398"/>
<polygon fill="black" stroke="black" points="3898.74,-790.043 3888.15,-790.012 3896.41,-796.643 3898.74,-790.043"/>
<text text-anchor="middle" x="4050.5" y="-832.8" font-family="Times,serif" font-size="14.00">read</text>
</g>
<!-- /etc/resolv.conf#ServerID_d4de233c55aa -->
<g id="node12" class="node"><title>/etc/resolv.conf#ServerID_d4de233c55aa</title>
<ellipse fill="none" stroke="black" cx="4541" cy="-880" rx="204.164" ry="18"/>
<text text-anchor="middle" x="4541" y="-876.3" font-family="Times,serif" font-size="14.00">/etc/resolv.conf#ServerID_d4de233c55aa</text>
</g>
<!-- /etc/resolv.conf#ServerID_d4de233c55aa&#45;&gt;10_node#ServerID_d4de233c55aa -->
<g id="edge15" class="edge"><title>/etc/resolv.conf#ServerID_d4de233c55aa&#45;&gt;10_node#ServerID_d4de233c55aa</title>
<path fill="none" stroke="black" d="M4442.79,-864.15C4317.07,-845.139 4099.22,-812.197 3962.71,-791.555"/>
<polygon fill="black" stroke="black" points="3963.02,-788.063 3952.61,-790.028 3961.98,-794.984 3963.02,-788.063"/>
<text text-anchor="middle" x="4310.5" y="-832.8" font-family="Times,serif" font-size="14.00">read</text>
</g>
<!-- 10.152.183.10:53#ServerID_OuterContainerID&#45;&gt;10_node#ServerID_d4de233c55aa -->
<g id="edge17" class="edge"><title>10.152.183.10:53#ServerID_OuterContainerID&#45;&gt;10_node#ServerID_d4de233c55aa</title>
<path fill="none" stroke="black" d="M3074.09,-679.031C3142.12,-695.987 3262.81,-723.761 3368,-736 3513.31,-752.906 3551.47,-731.143 3697,-746 3712.32,-747.564 3728.48,-749.806 3744.2,-752.313"/>
<polygon fill="black" stroke="black" points="3744.02,-755.83 3754.45,-753.995 3745.15,-748.923 3744.02,-755.83"/>
<text text-anchor="middle" x="3401" y="-724.8" font-family="Times,serif" font-size="14.00">recvfrom</text>
</g>
<!-- localhost:3000#ServerID_79226724f3b6 -->
<g id="node15" class="node"><title>localhost:3000#ServerID_79226724f3b6</title>
<polygon fill="none" stroke="black" points="4203,-487 3918.12,-469 4203,-451 4487.88,-469 4203,-487"/>
<text text-anchor="middle" x="4203" y="-465.3" font-family="Times,serif" font-size="14.00">localhost:3000#ServerID_79226724f3b6</text>
</g>
<!-- 1_fwatchdog#ServerID_79226724f3b6&#45;&gt;localhost:3000#ServerID_79226724f3b6 -->
<g id="edge20" class="edge"><title>1_fwatchdog#ServerID_79226724f3b6&#45;&gt;localhost:3000#ServerID_79226724f3b6</title>
<path fill="none" stroke="black" d="M4203,-537.799C4203,-526.163 4203,-510.548 4203,-497.237"/>
<polygon fill="black" stroke="black" points="4206.5,-497.175 4203,-487.175 4199.5,-497.175 4206.5,-497.175"/>
<text text-anchor="middle" x="4232" y="-508.8" font-family="Times,serif" font-size="14.00">connect</text>
</g>
<!-- 1_fwatchdog#ServerID_79226724f3b6&#45;&gt;localhost:3000#ServerID_79226724f3b6 -->
<g id="edge22" class="edge"><title>1_fwatchdog#ServerID_79226724f3b6&#45;&gt;localhost:3000#ServerID_79226724f3b6</title>
<path fill="none" stroke="black" d="M4244.64,-537.892C4251.59,-533.144 4257.87,-527.244 4262,-520 4268.64,-508.34 4261.1,-498.164 4249.45,-490.09"/>
<polygon fill="black" stroke="black" points="4251.21,-487.062 4240.85,-484.844 4247.56,-493.038 4251.21,-487.062"/>
<text text-anchor="middle" x="4283" y="-508.8" font-family="Times,serif" font-size="14.00">write</text>
</g>
<!-- pipe:[273416608]#ServerID_79226724f3b6 -->
<g id="node25" class="node"><title>pipe:[273416608]#ServerID_79226724f3b6</title>
<ellipse fill="none" stroke="black" cx="4722" cy="-469" rx="215.562" ry="18"/>
<text text-anchor="middle" x="4722" y="-465.3" font-family="Times,serif" font-size="14.00">pipe:[273416608]#ServerID_79226724f3b6</text>
</g>
<!-- 1_fwatchdog#ServerID_79226724f3b6&#45;&gt;pipe:[273416608]#ServerID_79226724f3b6 -->
<g id="edge34" class="edge"><title>1_fwatchdog#ServerID_79226724f3b6&#45;&gt;pipe:[273416608]#ServerID_79226724f3b6</title>
<path fill="none" stroke="black" d="M4307.09,-537.952C4397.65,-523.121 4528.18,-501.743 4618.55,-486.943"/>
<polygon fill="black" stroke="black" points="4619.24,-490.377 4628.54,-485.307 4618.1,-483.469 4619.24,-490.377"/>
<text text-anchor="middle" x="4512" y="-508.8" font-family="Times,serif" font-size="14.00">write</text>
</g>
<!-- localhost:3000#ServerID_79226724f3b6&#45;&gt;1_fwatchdog#ServerID_79226724f3b6 -->
<g id="edge21" class="edge"><title>localhost:3000#ServerID_79226724f3b6&#45;&gt;1_fwatchdog#ServerID_79226724f3b6</title>
<path fill="none" stroke="black" d="M4179.9,-485.918C4169.5,-495.195 4160.62,-507.503 4166,-520 4167.57,-523.642 4169.72,-527.082 4172.21,-530.279"/>
<polygon fill="black" stroke="black" points="4169.62,-532.639 4178.93,-537.702 4174.81,-527.94 4169.62,-532.639"/>
<text text-anchor="middle" x="4182.5" y="-508.8" font-family="Times,serif" font-size="14.00">read</text>
</g>
<!-- 10_node#ServerID_79226724f3b6 -->
<g id="node16" class="node"><title>10_node#ServerID_79226724f3b6</title>
<polygon fill="none" stroke="black" points="4535.5,-400 4270.5,-400 4270.5,-364 4535.5,-364 4535.5,-400"/>
<text text-anchor="middle" x="4403" y="-378.3" font-family="Times,serif" font-size="14.00">10_node#ServerID_79226724f3b6</text>
</g>
<!-- localhost:3000#ServerID_79226724f3b6&#45;&gt;10_node#ServerID_79226724f3b6 -->
<g id="edge23" class="edge"><title>localhost:3000#ServerID_79226724f3b6&#45;&gt;10_node#ServerID_79226724f3b6</title>
<path fill="none" stroke="black" d="M4237.84,-453.194C4269.79,-439.615 4317.46,-419.355 4353.38,-404.086"/>
<polygon fill="black" stroke="black" points="4354.88,-407.254 4362.72,-400.121 4352.14,-400.811 4354.88,-407.254"/>
<text text-anchor="middle" x="4330.5" y="-421.8" font-family="Times,serif" font-size="14.00">read</text>
</g>
<!-- pipe:[273417785]#ServerID_79226724f3b6 -->
<g id="node17" class="node"><title>pipe:[273417785]#ServerID_79226724f3b6</title>
<ellipse fill="none" stroke="black" cx="3935" cy="-295" rx="215.562" ry="18"/>
<text text-anchor="middle" x="3935" y="-291.3" font-family="Times,serif" font-size="14.00">pipe:[273417785]#ServerID_79226724f3b6</text>
</g>
<!-- 10_node#ServerID_79226724f3b6&#45;&gt;pipe:[273417785]#ServerID_79226724f3b6 -->
<g id="edge24" class="edge"><title>10_node#ServerID_79226724f3b6&#45;&gt;pipe:[273417785]#ServerID_79226724f3b6</title>
<path fill="none" stroke="black" d="M4309.14,-363.952C4228.4,-349.289 4112.44,-328.227 4031.07,-313.448"/>
<polygon fill="black" stroke="black" points="4031.29,-309.931 4020.82,-311.588 4030.04,-316.818 4031.29,-309.931"/>
<text text-anchor="middle" x="4216" y="-334.8" font-family="Times,serif" font-size="14.00">write</text>
</g>
<!-- /dev/null#ServerID_79226724f3b6 -->
<g id="node18" class="node"><title>/dev/null#ServerID_79226724f3b6</title>
<ellipse fill="none" stroke="black" cx="4342" cy="-295" rx="172.769" ry="18"/>
<text text-anchor="middle" x="4342" y="-291.3" font-family="Times,serif" font-size="14.00">/dev/null#ServerID_79226724f3b6</text>
</g>
<!-- 10_node#ServerID_79226724f3b6&#45;&gt;/dev/null#ServerID_79226724f3b6 -->
<g id="edge33" class="edge"><title>10_node#ServerID_79226724f3b6&#45;&gt;/dev/null#ServerID_79226724f3b6</title>
<path fill="none" stroke="black" d="M4356.93,-363.872C4349.77,-359.174 4343.33,-353.299 4339,-346 4335.04,-339.315 4334.21,-331.203 4334.8,-323.476"/>
<polygon fill="black" stroke="black" points="4338.3,-323.76 4336.35,-313.347 4331.38,-322.707 4338.3,-323.76"/>
<text text-anchor="middle" x="4358" y="-334.8" font-family="Times,serif" font-size="14.00">write</text>
</g>
<!-- pipe:[273416745]#ServerID_79226724f3b6 -->
<g id="node19" class="node"><title>pipe:[273416745]#ServerID_79226724f3b6</title>
<ellipse fill="none" stroke="black" cx="5031" cy="-295" rx="215.562" ry="18"/>
<text text-anchor="middle" x="5031" y="-291.3" font-family="Times,serif" font-size="14.00">pipe:[273416745]#ServerID_79226724f3b6</text>
</g>
<!-- 10_node#ServerID_79226724f3b6&#45;&gt;pipe:[273416745]#ServerID_79226724f3b6 -->
<g id="edge28" class="edge"><title>10_node#ServerID_79226724f3b6&#45;&gt;pipe:[273416745]#ServerID_79226724f3b6</title>
<path fill="none" stroke="black" d="M4528.95,-363.952C4640.93,-348.796 4803.42,-326.802 4912.94,-311.979"/>
<polygon fill="black" stroke="black" points="4913.6,-315.422 4923.04,-310.612 4912.66,-308.485 4913.6,-315.422"/>
<text text-anchor="middle" x="4773" y="-334.8" font-family="Times,serif" font-size="14.00">write</text>
</g>
<!-- 25_node#ServerID_79226724f3b6 -->
<g id="node20" class="node"><title>25_node#ServerID_79226724f3b6</title>
<polygon fill="none" stroke="black" points="4797.5,-313 4532.5,-313 4532.5,-277 4797.5,-277 4797.5,-313"/>
<text text-anchor="middle" x="4665" y="-291.3" font-family="Times,serif" font-size="14.00">25_node#ServerID_79226724f3b6</text>
</g>
<!-- 10_node#ServerID_79226724f3b6&#45;&gt;25_node#ServerID_79226724f3b6 -->
<g id="edge27" class="edge"><title>10_node#ServerID_79226724f3b6&#45;&gt;25_node#ServerID_79226724f3b6</title>
<path fill="none" stroke="black" d="M4455.7,-363.901C4498.17,-350.126 4557.96,-330.727 4602.77,-316.189"/>
<polygon fill="black" stroke="black" points="4603.95,-319.487 4612.38,-313.071 4601.79,-312.828 4603.95,-319.487"/>
<text text-anchor="middle" x="4564" y="-334.8" font-family="Times,serif" font-size="14.00">fork</text>
</g>
<!-- /dev/null#ServerID_79226724f3b6&#45;&gt;10_node#ServerID_79226724f3b6 -->
<g id="edge25" class="edge"><title>/dev/null#ServerID_79226724f3b6&#45;&gt;10_node#ServerID_79226724f3b6</title>
<path fill="none" stroke="black" d="M4364.27,-313.06C4370.23,-318.355 4376.3,-324.517 4381,-331 4386.14,-338.098 4390.44,-346.588 4393.83,-354.539"/>
<polygon fill="black" stroke="black" points="4390.58,-355.833 4397.51,-363.842 4397.09,-353.256 4390.58,-355.833"/>
<text text-anchor="middle" x="4405.5" y="-334.8" font-family="Times,serif" font-size="14.00">read</text>
</g>
<!-- pipe:[273416745]#ServerID_79226724f3b6&#45;&gt;10_node#ServerID_79226724f3b6 -->
<g id="edge26" class="edge"><title>pipe:[273416745]#ServerID_79226724f3b6&#45;&gt;10_node#ServerID_79226724f3b6</title>
<path fill="none" stroke="black" d="M4976.33,-312.503C4937.08,-323.702 4882.73,-337.896 4834,-346 4738.64,-361.858 4630.17,-370.618 4545.9,-375.409"/>
<polygon fill="black" stroke="black" points="4545.54,-371.924 4535.75,-375.974 4545.93,-378.913 4545.54,-371.924"/>
<text text-anchor="middle" x="4921.5" y="-334.8" font-family="Times,serif" font-size="14.00">read</text>
</g>
<!-- 25_sh#ServerID_79226724f3b6 -->
<g id="node21" class="node"><title>25_sh#ServerID_79226724f3b6</title>
<polygon fill="none" stroke="black" points="4788.5,-226 4541.5,-226 4541.5,-190 4788.5,-190 4788.5,-226"/>
<text text-anchor="middle" x="4665" y="-204.3" font-family="Times,serif" font-size="14.00">25_sh#ServerID_79226724f3b6</text>
</g>
<!-- 25_node#ServerID_79226724f3b6&#45;&gt;25_sh#ServerID_79226724f3b6 -->
<g id="edge29" class="edge"><title>25_node#ServerID_79226724f3b6&#45;&gt;25_sh#ServerID_79226724f3b6</title>
<path fill="none" stroke="black" d="M4665,-276.799C4665,-265.163 4665,-249.548 4665,-236.237"/>
<polygon fill="black" stroke="black" points="4668.5,-236.175 4665,-226.175 4661.5,-236.175 4668.5,-236.175"/>
<text text-anchor="middle" x="4690" y="-247.8" font-family="Times,serif" font-size="14.00">execve</text>
</g>
<!-- 26_sh#ServerID_79226724f3b6 -->
<g id="node22" class="node"><title>26_sh#ServerID_79226724f3b6</title>
<polygon fill="none" stroke="black" points="4687.5,-139 4440.5,-139 4440.5,-103 4687.5,-103 4687.5,-139"/>
<text text-anchor="middle" x="4564" y="-117.3" font-family="Times,serif" font-size="14.00">26_sh#ServerID_79226724f3b6</text>
</g>
<!-- 25_sh#ServerID_79226724f3b6&#45;&gt;26_sh#ServerID_79226724f3b6 -->
<g id="edge30" class="edge"><title>25_sh#ServerID_79226724f3b6&#45;&gt;26_sh#ServerID_79226724f3b6</title>
<path fill="none" stroke="black" d="M4644.56,-189.799C4629.5,-177.126 4608.84,-159.734 4592.21,-145.738"/>
<polygon fill="black" stroke="black" points="4594.31,-142.937 4584.41,-139.175 4589.81,-148.292 4594.31,-142.937"/>
<text text-anchor="middle" x="4635" y="-160.8" font-family="Times,serif" font-size="14.00">fork</text>
</g>
<!-- /home/app/3.txt#ServerID_79226724f3b6 -->
<g id="node24" class="node"><title>/home/app/3.txt#ServerID_79226724f3b6</title>
<ellipse fill="none" stroke="black" cx="4912" cy="-121" rx="206.063" ry="18"/>
<text text-anchor="middle" x="4912" y="-117.3" font-family="Times,serif" font-size="14.00">/home/app/3.txt#ServerID_79226724f3b6</text>
</g>
<!-- 25_sh#ServerID_79226724f3b6&#45;&gt;/home/app/3.txt#ServerID_79226724f3b6 -->
<g id="edge32" class="edge"><title>25_sh#ServerID_79226724f3b6&#45;&gt;/home/app/3.txt#ServerID_79226724f3b6</title>
<path fill="none" stroke="black" d="M4714.69,-189.901C4754.94,-176.049 4811.72,-156.509 4854.04,-141.945"/>
<polygon fill="black" stroke="black" points="4855.34,-145.201 4863.65,-138.637 4853.06,-138.582 4855.34,-145.201"/>
<text text-anchor="middle" x="4822" y="-160.8" font-family="Times,serif" font-size="14.00">write</text>
</g>
<!-- 26_touch#ServerID_79226724f3b6 -->
<g id="node23" class="node"><title>26_touch#ServerID_79226724f3b6</title>
<polygon fill="none" stroke="black" points="4699.5,-52 4428.5,-52 4428.5,-16 4699.5,-16 4699.5,-52"/>
<text text-anchor="middle" x="4564" y="-30.3" font-family="Times,serif" font-size="14.00">26_touch#ServerID_79226724f3b6</text>
</g>
<!-- 26_sh#ServerID_79226724f3b6&#45;&gt;26_touch#ServerID_79226724f3b6 -->
<g id="edge31" class="edge"><title>26_sh#ServerID_79226724f3b6&#45;&gt;26_touch#ServerID_79226724f3b6</title>
<path fill="none" stroke="black" d="M4564,-102.799C4564,-91.1626 4564,-75.5479 4564,-62.2368"/>
<polygon fill="black" stroke="black" points="4567.5,-62.1754 4564,-52.1754 4560.5,-62.1755 4567.5,-62.1754"/>
<text text-anchor="middle" x="4589" y="-73.8" font-family="Times,serif" font-size="14.00">execve</text>
</g>
<!-- 10.1.80.1:63922#ServerID_OuterContainerID&#45;&gt;10.1.80.247:8080#ServerID_OuterContainerID -->
<g id="edge35" class="edge"><title>10.1.80.1:63922#ServerID_OuterContainerID&#45;&gt;10.1.80.247:8080#ServerID_OuterContainerID</title>
<path fill="none" stroke="black" d="M348.743,-573.449C356.653,-584.019 365.828,-598.453 370,-613 371.838,-619.408 372.151,-621.69 370,-628 368.79,-631.55 367.057,-635.021 365.047,-638.312"/>
<polygon fill="black" stroke="black" points="362.147,-636.351 359.24,-646.54 367.866,-640.387 362.147,-636.351"/>
<text text-anchor="middle" x="392" y="-616.8" font-family="Times,serif" font-size="14.00">POST</text>
</g>
</g>
</svg>
