<?xml version="1.0" encoding="UTF-8" standalone="no"?>
<!DOCTYPE svg PUBLIC "-//W3C//DTD SVG 1.1//EN"
 "http://www.w3.org/Graphics/SVG/1.1/DTD/svg11.dtd">
<!-- Generated by graphviz version 2.38.0 (20140413.2041)
 -->
<!-- Title: G Pages: 1 -->
<svg width="4264pt" height="510pt"
 viewBox="0.00 0.00 4264.00 510.00" xmlns="http://www.w3.org/2000/svg" xmlns:xlink="http://www.w3.org/1999/xlink">
<g id="graph0" class="graph" transform="scale(1 1) rotate(0) translate(4 506)">
<title>G</title>
<polygon fill="white" stroke="none" points="-4,4 -4,-506 4260,-506 4260,4 -4,4"/>
<g id="clust1" class="cluster"><title>clusterServerID_2347d2f455dd</title>
<polygon fill="none" stroke="black" points="2201,-311 2201,-494 3589,-494 3589,-311 2201,-311"/>
<text text-anchor="middle" x="2895" y="-478.8" font-family="Times,serif" font-size="14.00">clusterServerID_2347d2f455dd</text>
</g>
<g id="clust2" class="cluster"><title>clusterServerID_5f846fd567&#45;g8dn6</title>
<polygon fill="none" stroke="black" points="773,-311 773,-386 1113,-386 1113,-311 773,-311"/>
<text text-anchor="middle" x="943" y="-370.8" font-family="Times,serif" font-size="14.00">clusterServerID_5f846fd567&#45;g8dn6</text>
</g>
<g id="clust3" class="cluster"><title>clusterServerID_6df85d7674&#45;f2xxt</title>
<polygon fill="none" stroke="black" points="3912,-95 3912,-170 4248,-170 4248,-95 3912,-95"/>
<text text-anchor="middle" x="4080" y="-154.8" font-family="Times,serif" font-size="14.00">clusterServerID_6df85d7674&#45;f2xxt</text>
</g>
<g id="clust4" class="cluster"><title>clusterServerID_7cf8268e6ab5</title>
<polygon fill="none" stroke="black" points="8,-8 8,-278 600,-278 600,-8 8,-8"/>
<text text-anchor="middle" x="304" y="-262.8" font-family="Times,serif" font-size="14.00">clusterServerID_7cf8268e6ab5</text>
</g>
<g id="clust5" class="cluster"><title>clusterServerID_OuterContainerID</title>
<polygon fill="none" stroke="black" points="608,-95 608,-278 3904,-278 3904,-95 608,-95"/>
<text text-anchor="middle" x="2256" y="-262.8" font-family="Times,serif" font-size="14.00">clusterServerID_OuterContainerID</text>
</g>
<!-- 10.1.80.93:45464#ServerID_OuterContainerID -->
<g id="node1" class="node"><title>10.1.80.93:45464#ServerID_OuterContainerID</title>
<polygon fill="none" stroke="black" points="943,-247 615.56,-229 943,-211 1270.44,-229 943,-247"/>
<text text-anchor="middle" x="943" y="-225.3" font-family="Times,serif" font-size="14.00">10.1.80.93:45464#ServerID_OuterContainerID</text>
</g>
<!-- 1_fwatchdog#ServerID_5f846fd567&#45;g8dn6 -->
<g id="node2" class="node"><title>1_fwatchdog#ServerID_5f846fd567&#45;g8dn6</title>
<polygon fill="none" stroke="black" points="1105,-355 781,-355 781,-319 1105,-319 1105,-355"/>
<text text-anchor="middle" x="943" y="-333.3" font-family="Times,serif" font-size="14.00">1_fwatchdog#ServerID_5f846fd567&#45;g8dn6</text>
</g>
<!-- 10.1.80.93:45464#ServerID_OuterContainerID&#45;&gt;1_fwatchdog#ServerID_5f846fd567&#45;g8dn6 -->
<g id="edge1" class="edge"><title>10.1.80.93:45464#ServerID_OuterContainerID&#45;&gt;1_fwatchdog#ServerID_5f846fd567&#45;g8dn6</title>
<path fill="none" stroke="black" d="M928.461,-246.47C917.687,-260.752 905.99,-282.049 913,-301 914.231,-304.328 915.936,-307.554 917.914,-310.612"/>
<polygon fill="black" stroke="black" points="915.225,-312.86 924.041,-318.736 920.813,-308.644 915.225,-312.86"/>
<text text-anchor="middle" x="933" y="-289.8" font-family="Times,serif" font-size="14.00">POST</text>
</g>
<!-- 1_fwatchdog#ServerID_7cf8268e6ab5 -->
<g id="node15" class="node"><title>1_fwatchdog#ServerID_7cf8268e6ab5</title>
<polygon fill="none" stroke="black" points="592,-139 298,-139 298,-103 592,-103 592,-139"/>
<text text-anchor="middle" x="445" y="-117.3" font-family="Times,serif" font-size="14.00">1_fwatchdog#ServerID_7cf8268e6ab5</text>
</g>
<!-- 10.1.80.93:45464#ServerID_OuterContainerID&#45;&gt;1_fwatchdog#ServerID_7cf8268e6ab5 -->
<g id="edge21" class="edge"><title>10.1.80.93:45464#ServerID_OuterContainerID&#45;&gt;1_fwatchdog#ServerID_7cf8268e6ab5</title>
<path fill="none" stroke="black" d="M853.887,-215.834C785.164,-205.71 687.982,-189.781 604,-170 571.093,-162.249 534.977,-151.53 505.494,-142.187"/>
<polygon fill="black" stroke="black" points="506.354,-138.787 495.764,-139.077 504.224,-145.455 506.354,-138.787"/>
<text text-anchor="middle" x="732.5" y="-181.8" font-family="Times,serif" font-size="14.00">read</text>
</g>
<!-- 1_fwatchdog#ServerID_5f846fd567&#45;g8dn6&#45;&gt;10.1.80.93:45464#ServerID_OuterContainerID -->
<g id="edge8" class="edge"><title>1_fwatchdog#ServerID_5f846fd567&#45;g8dn6&#45;&gt;10.1.80.93:45464#ServerID_OuterContainerID</title>
<path fill="none" stroke="black" d="M948.955,-318.759C950.609,-313.165 952.176,-306.883 953,-301 955.044,-286.409 953.06,-270.133 950.336,-256.849"/>
<polygon fill="black" stroke="black" points="953.707,-255.889 948.056,-246.927 946.884,-257.457 953.707,-255.889"/>
<text text-anchor="middle" x="996" y="-289.8" font-family="Times,serif" font-size="14.00">RESPONSE</text>
</g>
<!-- 1_fwatchdog#ServerID_6df85d7674&#45;f2xxt -->
<g id="node3" class="node"><title>1_fwatchdog#ServerID_6df85d7674&#45;f2xxt</title>
<polygon fill="none" stroke="black" points="4240,-139 3920,-139 3920,-103 4240,-103 4240,-139"/>
<text text-anchor="middle" x="4080" y="-117.3" font-family="Times,serif" font-size="14.00">1_fwatchdog#ServerID_6df85d7674&#45;f2xxt</text>
</g>
<!-- 10.1.80.93:53454#ServerID_OuterContainerID -->
<g id="node4" class="node"><title>10.1.80.93:53454#ServerID_OuterContainerID</title>
<polygon fill="none" stroke="black" points="2271,-247 1943.56,-229 2271,-211 2598.44,-229 2271,-247"/>
<text text-anchor="middle" x="2271" y="-225.3" font-family="Times,serif" font-size="14.00">10.1.80.93:53454#ServerID_OuterContainerID</text>
</g>
<!-- 1_fwatchdog#ServerID_6df85d7674&#45;f2xxt&#45;&gt;10.1.80.93:53454#ServerID_OuterContainerID -->
<g id="edge2" class="edge"><title>1_fwatchdog#ServerID_6df85d7674&#45;f2xxt&#45;&gt;10.1.80.93:53454#ServerID_OuterContainerID</title>
<path fill="none" stroke="black" d="M4031.79,-139.098C3997.7,-150.283 3950.66,-163.911 3908,-170 3830.78,-181.022 3283.96,-175.472 3206,-178 2928.8,-186.987 2605.8,-206.203 2421.16,-218.022"/>
<polygon fill="black" stroke="black" points="2420.86,-214.534 2411.11,-218.667 2421.31,-221.519 2420.86,-214.534"/>
<text text-anchor="middle" x="3248" y="-181.8" font-family="Times,serif" font-size="14.00">RESPONSE</text>
</g>
<!-- gateway:8080#ServerID_OuterContainerID -->
<g id="node5" class="node"><title>gateway:8080#ServerID_OuterContainerID</title>
<polygon fill="none" stroke="black" points="2920,-247 2615.52,-229 2920,-211 3224.48,-229 2920,-247"/>
<text text-anchor="middle" x="2920" y="-225.3" font-family="Times,serif" font-size="14.00">gateway:8080#ServerID_OuterContainerID</text>
</g>
<!-- 1_fwatchdog#ServerID_6df85d7674&#45;f2xxt&#45;&gt;gateway:8080#ServerID_OuterContainerID -->
<g id="edge6" class="edge"><title>1_fwatchdog#ServerID_6df85d7674&#45;f2xxt&#45;&gt;gateway:8080#ServerID_OuterContainerID</title>
<path fill="none" stroke="black" d="M4031.41,-139.106C3997.34,-150.217 3950.48,-163.754 3908,-170 3819.16,-183.061 3593.67,-173.279 3504,-178 3340.09,-186.63 3150.89,-204.235 3033.33,-216.078"/>
<polygon fill="black" stroke="black" points="3032.84,-212.611 3023.24,-217.099 3033.54,-219.575 3032.84,-212.611"/>
<text text-anchor="middle" x="3524" y="-181.8" font-family="Times,serif" font-size="14.00">POST</text>
</g>
<!-- 10.1.80.93:8080#ServerID_OuterContainerID -->
<g id="node6" class="node"><title>10.1.80.93:8080#ServerID_OuterContainerID</title>
<polygon fill="none" stroke="black" points="1607,-247 1288.1,-229 1607,-211 1925.9,-229 1607,-247"/>
<text text-anchor="middle" x="1607" y="-225.3" font-family="Times,serif" font-size="14.00">10.1.80.93:8080#ServerID_OuterContainerID</text>
</g>
<!-- 1_fwatchdog#ServerID_6df85d7674&#45;f2xxt&#45;&gt;10.1.80.93:8080#ServerID_OuterContainerID -->
<g id="edge5" class="edge"><title>1_fwatchdog#ServerID_6df85d7674&#45;f2xxt&#45;&gt;10.1.80.93:8080#ServerID_OuterContainerID</title>
<path fill="none" stroke="black" d="M4032.17,-139.062C3998.06,-150.308 3950.83,-164.025 3908,-170 3821.28,-182.097 2419.5,-174.764 2332,-178 2221.54,-182.085 1922.63,-204.003 1745,-217.427"/>
<polygon fill="black" stroke="black" points="1744.5,-213.955 1734.8,-218.2 1745.03,-220.935 1744.5,-213.955"/>
<text text-anchor="middle" x="2352" y="-181.8" font-family="Times,serif" font-size="14.00">POST</text>
</g>
<!-- 10.1.80.93:53454#ServerID_OuterContainerID&#45;&gt;1_fwatchdog#ServerID_6df85d7674&#45;f2xxt -->
<g id="edge3" class="edge"><title>10.1.80.93:53454#ServerID_OuterContainerID&#45;&gt;1_fwatchdog#ServerID_6df85d7674&#45;f2xxt</title>
<path fill="none" stroke="black" d="M2371.27,-216.479C2482.47,-204.288 2667.27,-185.76 2827,-178 2886.99,-175.086 3848.53,-178.367 3908,-170 3946.81,-164.54 3989.24,-152.766 4022.24,-142.247"/>
<polygon fill="black" stroke="black" points="4023.73,-145.443 4032.17,-139.031 4021.57,-138.784 4023.73,-145.443"/>
<text text-anchor="middle" x="2847" y="-181.8" font-family="Times,serif" font-size="14.00">POST</text>
</g>
<!-- 1_fwatchdog#ServerID_2347d2f455dd -->
<g id="node8" class="node"><title>1_fwatchdog#ServerID_2347d2f455dd</title>
<polygon fill="none" stroke="black" points="2572,-355 2276,-355 2276,-319 2572,-319 2572,-355"/>
<text text-anchor="middle" x="2424" y="-333.3" font-family="Times,serif" font-size="14.00">1_fwatchdog#ServerID_2347d2f455dd</text>
</g>
<!-- 10.1.80.93:53454#ServerID_OuterContainerID&#45;&gt;1_fwatchdog#ServerID_2347d2f455dd -->
<g id="edge12" class="edge"><title>10.1.80.93:53454#ServerID_OuterContainerID&#45;&gt;1_fwatchdog#ServerID_2347d2f455dd</title>
<path fill="none" stroke="black" d="M2294.02,-245.948C2319.83,-263.83 2361.9,-292.974 2391.16,-313.245"/>
<polygon fill="black" stroke="black" points="2389.2,-316.151 2399.42,-318.969 2393.19,-310.397 2389.2,-316.151"/>
<text text-anchor="middle" x="2386.5" y="-289.8" font-family="Times,serif" font-size="14.00">read</text>
</g>
<!-- gateway:8080#ServerID_OuterContainerID&#45;&gt;1_fwatchdog#ServerID_6df85d7674&#45;f2xxt -->
<g id="edge4" class="edge"><title>gateway:8080#ServerID_OuterContainerID&#45;&gt;1_fwatchdog#ServerID_6df85d7674&#45;f2xxt</title>
<path fill="none" stroke="black" d="M3067.92,-219.722C3338.52,-204.524 3887.6,-173.406 3908,-170 3945.83,-163.686 3987.26,-152.266 4019.98,-142.149"/>
<polygon fill="black" stroke="black" points="4021.34,-145.389 4029.84,-139.058 4019.25,-138.71 4021.34,-145.389"/>
<text text-anchor="middle" x="3816" y="-181.8" font-family="Times,serif" font-size="14.00">RESPONSE</text>
</g>
<!-- 10.1.80.93:8080#ServerID_OuterContainerID&#45;&gt;1_fwatchdog#ServerID_6df85d7674&#45;f2xxt -->
<g id="edge7" class="edge"><title>10.1.80.93:8080#ServerID_OuterContainerID&#45;&gt;1_fwatchdog#ServerID_6df85d7674&#45;f2xxt</title>
<path fill="none" stroke="black" d="M1760.91,-219.685C1815.84,-216.807 1878.18,-213.642 1935,-211 2129.18,-201.969 2178.09,-206.551 2372,-193 2439.72,-188.268 2456.21,-181.533 2524,-178 2600.79,-173.998 3831.85,-180.651 3908,-170 3946.82,-164.571 3989.24,-152.798 4022.24,-142.271"/>
<polygon fill="black" stroke="black" points="4023.74,-145.467 4032.17,-139.052 4021.58,-138.808 4023.74,-145.467"/>
<text text-anchor="middle" x="2566" y="-181.8" font-family="Times,serif" font-size="14.00">RESPONSE</text>
</g>
<!-- 10.1.80.1:44957#ServerID_OuterContainerID -->
<g id="node17" class="node"><title>10.1.80.1:44957#ServerID_OuterContainerID</title>
<polygon fill="none" stroke="black" points="1066,-139 747.105,-121 1066,-103 1384.9,-121 1066,-139"/>
<text text-anchor="middle" x="1066" y="-117.3" font-family="Times,serif" font-size="14.00">10.1.80.1:44957#ServerID_OuterContainerID</text>
</g>
<!-- 10.1.80.93:8080#ServerID_OuterContainerID&#45;&gt;10.1.80.1:44957#ServerID_OuterContainerID -->
<g id="edge25" class="edge"><title>10.1.80.93:8080#ServerID_OuterContainerID&#45;&gt;10.1.80.1:44957#ServerID_OuterContainerID</title>
<path fill="none" stroke="black" d="M1449.51,-219.853C1391.06,-214.749 1324.53,-206.458 1265,-193 1210.13,-180.595 1149.59,-157.574 1109.86,-141.107"/>
<polygon fill="black" stroke="black" points="1111.05,-137.81 1100.47,-137.177 1108.34,-144.267 1111.05,-137.81"/>
<text text-anchor="middle" x="1307" y="-181.8" font-family="Times,serif" font-size="14.00">RESPONSE</text>
</g>
<!-- 10.0.88.125:31112#ServerID_OuterContainerID -->
<g id="node18" class="node"><title>10.0.88.125:31112#ServerID_OuterContainerID</title>
<polygon fill="none" stroke="black" points="2378,-139 2042.52,-121 2378,-103 2713.48,-121 2378,-139"/>
<text text-anchor="middle" x="2378" y="-117.3" font-family="Times,serif" font-size="14.00">10.0.88.125:31112#ServerID_OuterContainerID</text>
</g>
<!-- 10.1.80.93:8080#ServerID_OuterContainerID&#45;&gt;10.0.88.125:31112#ServerID_OuterContainerID -->
<g id="edge26" class="edge"><title>10.1.80.93:8080#ServerID_OuterContainerID&#45;&gt;10.0.88.125:31112#ServerID_OuterContainerID</title>
<path fill="none" stroke="black" d="M1696.16,-215.986C1782.55,-204.321 1917.27,-186.072 2034,-170 2117.13,-158.555 2211.53,-145.369 2280.38,-135.717"/>
<polygon fill="black" stroke="black" points="2280.93,-139.174 2290.35,-134.32 2279.96,-132.242 2280.93,-139.174"/>
<text text-anchor="middle" x="2006" y="-181.8" font-family="Times,serif" font-size="14.00">RESPONSE</text>
</g>
<!-- 10.1.80.1:9103#ServerID_OuterContainerID -->
<g id="node19" class="node"><title>10.1.80.1:9103#ServerID_OuterContainerID</title>
<polygon fill="none" stroke="black" points="1714,-139 1403.15,-121 1714,-103 2024.85,-121 1714,-139"/>
<text text-anchor="middle" x="1714" y="-117.3" font-family="Times,serif" font-size="14.00">10.1.80.1:9103#ServerID_OuterContainerID</text>
</g>
<!-- 10.1.80.93:8080#ServerID_OuterContainerID&#45;&gt;10.1.80.1:9103#ServerID_OuterContainerID -->
<g id="edge28" class="edge"><title>10.1.80.93:8080#ServerID_OuterContainerID&#45;&gt;10.1.80.1:9103#ServerID_OuterContainerID</title>
<path fill="none" stroke="black" d="M1601.35,-211.06C1598.99,-200.774 1598,-187.786 1604,-178 1614.68,-160.573 1632.68,-148.359 1651.05,-139.891"/>
<polygon fill="black" stroke="black" points="1652.54,-143.061 1660.36,-135.913 1649.79,-136.623 1652.54,-143.061"/>
<text text-anchor="middle" x="1646" y="-181.8" font-family="Times,serif" font-size="14.00">RESPONSE</text>
</g>
<!-- localhost:3000#ServerID_2347d2f455dd -->
<g id="node7" class="node"><title>localhost:3000#ServerID_2347d2f455dd</title>
<polygon fill="none" stroke="black" points="2494,-463 2209.12,-445 2494,-427 2778.88,-445 2494,-463"/>
<text text-anchor="middle" x="2494" y="-441.3" font-family="Times,serif" font-size="14.00">localhost:3000#ServerID_2347d2f455dd</text>
</g>
<!-- localhost:3000#ServerID_2347d2f455dd&#45;&gt;1_fwatchdog#ServerID_2347d2f455dd -->
<g id="edge9" class="edge"><title>localhost:3000#ServerID_2347d2f455dd&#45;&gt;1_fwatchdog#ServerID_2347d2f455dd</title>
<path fill="none" stroke="black" d="M2507.23,-427.724C2513.69,-417.688 2518.93,-404.73 2513,-394 2505.18,-379.842 2492.11,-368.777 2478.37,-360.359"/>
<polygon fill="black" stroke="black" points="2479.71,-357.096 2469.29,-355.204 2476.26,-363.184 2479.71,-357.096"/>
<text text-anchor="middle" x="2531.5" y="-397.8" font-family="Times,serif" font-size="14.00">read</text>
</g>
<!-- 1_fwatchdog#ServerID_2347d2f455dd&#45;&gt;localhost:3000#ServerID_2347d2f455dd -->
<g id="edge11" class="edge"><title>1_fwatchdog#ServerID_2347d2f455dd&#45;&gt;localhost:3000#ServerID_2347d2f455dd</title>
<path fill="none" stroke="black" d="M2407.59,-355.123C2395.18,-370.203 2382.15,-392.302 2394,-409 2399.16,-416.278 2405.96,-422.055 2413.59,-426.637"/>
<polygon fill="black" stroke="black" points="2412.39,-429.961 2422.88,-431.487 2415.63,-423.756 2412.39,-429.961"/>
<text text-anchor="middle" x="2413" y="-397.8" font-family="Times,serif" font-size="14.00">write</text>
</g>
<!-- 1_fwatchdog#ServerID_2347d2f455dd&#45;&gt;localhost:3000#ServerID_2347d2f455dd -->
<g id="edge13" class="edge"><title>1_fwatchdog#ServerID_2347d2f455dd&#45;&gt;localhost:3000#ServerID_2347d2f455dd</title>
<path fill="none" stroke="black" d="M2427.86,-355.288C2431.85,-370.477 2439.19,-392.643 2451,-409 2454.24,-413.487 2458.19,-417.724 2462.38,-421.597"/>
<polygon fill="black" stroke="black" points="2460.18,-424.318 2470.05,-428.151 2464.72,-418.995 2460.18,-424.318"/>
<text text-anchor="middle" x="2480" y="-397.8" font-family="Times,serif" font-size="14.00">connect</text>
</g>
<!-- /etc/hosts#ServerID_2347d2f455dd -->
<g id="node9" class="node"><title>/etc/hosts#ServerID_2347d2f455dd</title>
<ellipse fill="none" stroke="black" cx="2976" cy="-445" rx="178.969" ry="18"/>
<text text-anchor="middle" x="2976" y="-441.3" font-family="Times,serif" font-size="14.00">/etc/hosts#ServerID_2347d2f455dd</text>
</g>
<!-- 13_node#ServerID_2347d2f455dd -->
<g id="node10" class="node"><title>13_node#ServerID_2347d2f455dd</title>
<polygon fill="none" stroke="black" points="3509.5,-355 3244.5,-355 3244.5,-319 3509.5,-319 3509.5,-355"/>
<text text-anchor="middle" x="3377" y="-333.3" font-family="Times,serif" font-size="14.00">13_node#ServerID_2347d2f455dd</text>
</g>
<!-- /etc/hosts#ServerID_2347d2f455dd&#45;&gt;13_node#ServerID_2347d2f455dd -->
<g id="edge10" class="edge"><title>/etc/hosts#ServerID_2347d2f455dd&#45;&gt;13_node#ServerID_2347d2f455dd</title>
<path fill="none" stroke="black" d="M3036.47,-428.016C3107.56,-409.224 3225.56,-378.033 3302.3,-357.746"/>
<polygon fill="black" stroke="black" points="3303.61,-361.021 3312.38,-355.082 3301.82,-354.254 3303.61,-361.021"/>
<text text-anchor="middle" x="3180.5" y="-397.8" font-family="Times,serif" font-size="14.00">read</text>
</g>
<!-- 13_node#ServerID_2347d2f455dd&#45;&gt;gateway:8080#ServerID_OuterContainerID -->
<g id="edge17" class="edge"><title>13_node#ServerID_2347d2f455dd&#45;&gt;gateway:8080#ServerID_OuterContainerID</title>
<path fill="none" stroke="black" d="M3303.58,-318.969C3216.69,-298.816 3073.16,-265.525 2988.49,-245.886"/>
<polygon fill="black" stroke="black" points="2989.25,-242.469 2978.71,-243.619 2987.67,-249.288 2989.25,-242.469"/>
<text text-anchor="middle" x="3245" y="-289.8" font-family="Times,serif" font-size="14.00">connect</text>
</g>
<!-- 10.152.183.10:53#ServerID_OuterContainerID -->
<g id="node12" class="node"><title>10.152.183.10:53#ServerID_OuterContainerID</title>
<polygon fill="none" stroke="black" points="3569,-247 3241.56,-229 3569,-211 3896.44,-229 3569,-247"/>
<text text-anchor="middle" x="3569" y="-225.3" font-family="Times,serif" font-size="14.00">10.152.183.10:53#ServerID_OuterContainerID</text>
</g>
<!-- 13_node#ServerID_2347d2f455dd&#45;&gt;10.152.183.10:53#ServerID_OuterContainerID -->
<g id="edge15" class="edge"><title>13_node#ServerID_2347d2f455dd&#45;&gt;10.152.183.10:53#ServerID_OuterContainerID</title>
<path fill="none" stroke="black" d="M3407.85,-318.969C3441.66,-300.302 3495.89,-270.364 3531.97,-250.443"/>
<polygon fill="black" stroke="black" points="3533.67,-253.504 3540.73,-245.607 3530.28,-247.376 3533.67,-253.504"/>
<text text-anchor="middle" x="3491.5" y="-289.8" font-family="Times,serif" font-size="14.00">sendto</text>
</g>
<!-- /etc/resolv.conf#ServerID_2347d2f455dd -->
<g id="node11" class="node"><title>/etc/resolv.conf#ServerID_2347d2f455dd</title>
<ellipse fill="none" stroke="black" cx="3377" cy="-445" rx="204.164" ry="18"/>
<text text-anchor="middle" x="3377" y="-441.3" font-family="Times,serif" font-size="14.00">/etc/resolv.conf#ServerID_2347d2f455dd</text>
</g>
<!-- /etc/resolv.conf#ServerID_2347d2f455dd&#45;&gt;13_node#ServerID_2347d2f455dd -->
<g id="edge14" class="edge"><title>/etc/resolv.conf#ServerID_2347d2f455dd&#45;&gt;13_node#ServerID_2347d2f455dd</title>
<path fill="none" stroke="black" d="M3377,-426.969C3377,-410.378 3377,-384.883 3377,-365.431"/>
<polygon fill="black" stroke="black" points="3380.5,-365.341 3377,-355.341 3373.5,-365.341 3380.5,-365.341"/>
<text text-anchor="middle" x="3393.5" y="-397.8" font-family="Times,serif" font-size="14.00">read</text>
</g>
<!-- 10.152.183.10:53#ServerID_OuterContainerID&#45;&gt;13_node#ServerID_2347d2f455dd -->
<g id="edge16" class="edge"><title>10.152.183.10:53#ServerID_OuterContainerID&#45;&gt;13_node#ServerID_2347d2f455dd</title>
<path fill="none" stroke="black" d="M3561.82,-246.728C3553.94,-263.068 3539.73,-287.403 3520,-301 3511.87,-306.602 3502.94,-311.31 3493.63,-315.267"/>
<polygon fill="black" stroke="black" points="3492.24,-312.055 3484.22,-318.978 3494.8,-318.567 3492.24,-312.055"/>
<text text-anchor="middle" x="3568" y="-289.8" font-family="Times,serif" font-size="14.00">recvfrom</text>
</g>
<!-- localhost:3000#ServerID_7cf8268e6ab5 -->
<g id="node13" class="node"><title>localhost:3000#ServerID_7cf8268e6ab5</title>
<polygon fill="none" stroke="black" points="309,-247 25.7991,-229 309,-211 592.201,-229 309,-247"/>
<text text-anchor="middle" x="309" y="-225.3" font-family="Times,serif" font-size="14.00">localhost:3000#ServerID_7cf8268e6ab5</text>
</g>
<!-- 13_node#ServerID_7cf8268e6ab5 -->
<g id="node14" class="node"><title>13_node#ServerID_7cf8268e6ab5</title>
<polygon fill="none" stroke="black" points="279.5,-139 16.5,-139 16.5,-103 279.5,-103 279.5,-139"/>
<text text-anchor="middle" x="148" y="-117.3" font-family="Times,serif" font-size="14.00">13_node#ServerID_7cf8268e6ab5</text>
</g>
<!-- localhost:3000#ServerID_7cf8268e6ab5&#45;&gt;13_node#ServerID_7cf8268e6ab5 -->
<g id="edge18" class="edge"><title>localhost:3000#ServerID_7cf8268e6ab5&#45;&gt;13_node#ServerID_7cf8268e6ab5</title>
<path fill="none" stroke="black" d="M285.244,-212.359C258.176,-194.538 213.693,-165.251 182.733,-144.868"/>
<polygon fill="black" stroke="black" points="184.267,-141.687 173.99,-139.112 180.418,-147.534 184.267,-141.687"/>
<text text-anchor="middle" x="269.5" y="-181.8" font-family="Times,serif" font-size="14.00">read</text>
</g>
<!-- localhost:3000#ServerID_7cf8268e6ab5&#45;&gt;1_fwatchdog#ServerID_7cf8268e6ab5 -->
<g id="edge20" class="edge"><title>localhost:3000#ServerID_7cf8268e6ab5&#45;&gt;1_fwatchdog#ServerID_7cf8268e6ab5</title>
<path fill="none" stroke="black" d="M305.346,-210.799C304.127,-200.415 304.455,-187.416 311,-178 321.746,-162.541 337.625,-151.335 354.726,-143.218"/>
<polygon fill="black" stroke="black" points="356.569,-146.232 364.329,-139.018 353.764,-139.819 356.569,-146.232"/>
<text text-anchor="middle" x="327.5" y="-181.8" font-family="Times,serif" font-size="14.00">read</text>
</g>
<!-- 1_fwatchdog#ServerID_7cf8268e6ab5&#45;&gt;localhost:3000#ServerID_7cf8268e6ab5 -->
<g id="edge19" class="edge"><title>1_fwatchdog#ServerID_7cf8268e6ab5&#45;&gt;localhost:3000#ServerID_7cf8268e6ab5</title>
<path fill="none" stroke="black" d="M418.859,-139.154C402.951,-149.871 382.411,-164.212 365,-178 354.463,-186.344 343.328,-196.08 333.787,-204.731"/>
<polygon fill="black" stroke="black" points="331.202,-202.352 326.195,-211.689 335.932,-207.513 331.202,-202.352"/>
<text text-anchor="middle" x="394" y="-181.8" font-family="Times,serif" font-size="14.00">connect</text>
</g>
<!-- 1_fwatchdog#ServerID_7cf8268e6ab5&#45;&gt;localhost:3000#ServerID_7cf8268e6ab5 -->
<g id="edge22" class="edge"><title>1_fwatchdog#ServerID_7cf8268e6ab5&#45;&gt;localhost:3000#ServerID_7cf8268e6ab5</title>
<path fill="none" stroke="black" d="M444.11,-139.223C442.369,-155.23 437.345,-178.692 423,-193 414.95,-201.029 405.109,-207.223 394.614,-212.002"/>
<polygon fill="black" stroke="black" points="393.173,-208.81 385.252,-215.846 395.832,-215.285 393.173,-208.81"/>
<text text-anchor="middle" x="453" y="-181.8" font-family="Times,serif" font-size="14.00">write</text>
</g>
<!-- pipe:[7845976]#ServerID_7cf8268e6ab5 -->
<g id="node16" class="node"><title>pipe:[7845976]#ServerID_7cf8268e6ab5</title>
<ellipse fill="none" stroke="black" cx="390" cy="-34" rx="202.264" ry="18"/>
<text text-anchor="middle" x="390" y="-30.3" font-family="Times,serif" font-size="14.00">pipe:[7845976]#ServerID_7cf8268e6ab5</text>
</g>
<!-- 1_fwatchdog#ServerID_7cf8268e6ab5&#45;&gt;pipe:[7845976]#ServerID_7cf8268e6ab5 -->
<g id="edge23" class="edge"><title>1_fwatchdog#ServerID_7cf8268e6ab5&#45;&gt;pipe:[7845976]#ServerID_7cf8268e6ab5</title>
<path fill="none" stroke="black" d="M433.87,-102.799C426.042,-90.7017 415.433,-74.3049 406.608,-60.6665"/>
<polygon fill="black" stroke="black" points="409.485,-58.6698 401.114,-52.1754 403.608,-62.4725 409.485,-58.6698"/>
<text text-anchor="middle" x="440" y="-73.8" font-family="Times,serif" font-size="14.00">write</text>
</g>
<!-- 10.1.80.1:44957#ServerID_OuterContainerID&#45;&gt;10.1.80.93:8080#ServerID_OuterContainerID -->
<g id="edge24" class="edge"><title>10.1.80.1:44957#ServerID_OuterContainerID&#45;&gt;10.1.80.93:8080#ServerID_OuterContainerID</title>
<path fill="none" stroke="black" d="M1133.42,-135.21C1234.13,-154.941 1423.32,-192.012 1529.56,-212.827"/>
<polygon fill="black" stroke="black" points="1529.09,-216.301 1539.58,-214.789 1530.44,-209.432 1529.09,-216.301"/>
<text text-anchor="middle" x="1437" y="-181.8" font-family="Times,serif" font-size="14.00">POST</text>
</g>
<!-- 10.1.80.1:9103#ServerID_OuterContainerID&#45;&gt;10.1.80.93:8080#ServerID_OuterContainerID -->
<g id="edge27" class="edge"><title>10.1.80.1:9103#ServerID_OuterContainerID&#45;&gt;10.1.80.93:8080#ServerID_OuterContainerID</title>
<path fill="none" stroke="black" d="M1712.81,-138.931C1710.84,-154.728 1705.67,-178.043 1692,-193 1685.98,-199.591 1678.53,-204.973 1670.56,-209.36"/>
<polygon fill="black" stroke="black" points="1668.8,-206.324 1661.4,-213.9 1671.91,-212.597 1668.8,-206.324"/>
<text text-anchor="middle" x="1721" y="-181.8" font-family="Times,serif" font-size="14.00">POST</text>
</g>
</g>
</svg>
