<?xml version="1.0" encoding="UTF-8" standalone="no"?>
<!DOCTYPE svg PUBLIC "-//W3C//DTD SVG 1.1//EN"
 "http://www.w3.org/Graphics/SVG/1.1/DTD/svg11.dtd">
<!-- Generated by graphviz version 2.38.0 (20140413.2041)
 -->
<!-- Title: G Pages: 1 -->
<svg width="6912pt" height="558pt"
 viewBox="0.00 0.00 6912.00 558.00" xmlns="http://www.w3.org/2000/svg" xmlns:xlink="http://www.w3.org/1999/xlink">
<g id="graph0" class="graph" transform="scale(1 1) rotate(0) translate(4 554)">
<title>G</title>
<polygon fill="white" stroke="none" points="-4,4 -4,-554 6908,-554 6908,4 -4,4"/>
<g id="clust1" class="cluster"><title>clusterServerID_6dcbcc88d5&#45;4vpdn</title>
<polygon fill="none" stroke="black" points="5081,-182 5081,-280 5425,-280 5425,-182 5081,-182"/>
<text text-anchor="middle" x="5253" y="-264.8" font-family="Times,serif" font-size="14.00">clusterServerID_6dcbcc88d5&#45;4vpdn</text>
</g>
<g id="clust2" class="cluster"><title>clusterServerID_76c96688d7&#45;2rgjp</title>
<polygon fill="none" stroke="black" points="5433,-182 5433,-280 5773,-280 5773,-182 5433,-182"/>
<text text-anchor="middle" x="5603" y="-264.8" font-family="Times,serif" font-size="14.00">clusterServerID_76c96688d7&#45;2rgjp</text>
</g>
<g id="clust3" class="cluster"><title>clusterServerID_8665dd9487&#45;x4b6d</title>
<polygon fill="none" stroke="black" points="849,-444 849,-542 1197,-542 1197,-444 849,-444"/>
<text text-anchor="middle" x="1023" y="-526.8" font-family="Times,serif" font-size="14.00">clusterServerID_8665dd9487&#45;x4b6d</text>
</g>
<g id="clust4" class="cluster"><title>clusterServerID_8df4e6f0b536</title>
<polygon fill="none" stroke="black" points="4053,-8 4053,-280 5073,-280 5073,-8 4053,-8"/>
<text text-anchor="middle" x="4563" y="-264.8" font-family="Times,serif" font-size="14.00">clusterServerID_8df4e6f0b536</text>
</g>
<g id="clust5" class="cluster"><title>clusterServerID_OuterContainerID</title>
<polygon fill="none" stroke="black" points="8,-182 8,-411 4045,-411 4045,-182 8,-182"/>
<text text-anchor="middle" x="2026.5" y="-395.8" font-family="Times,serif" font-size="14.00">clusterServerID_OuterContainerID</text>
</g>
<g id="clust6" class="cluster"><title>clusterServerID_d4de233c55aa</title>
<polygon fill="none" stroke="black" points="5781,-182 5781,-411 6896,-411 6896,-182 5781,-182"/>
<text text-anchor="middle" x="6338.5" y="-395.8" font-family="Times,serif" font-size="14.00">clusterServerID_d4de233c55aa</text>
</g>
<!-- 1_fwatchdog#ServerID_8665dd9487&#45;x4b6d -->
<g id="node1" class="node"><title>1_fwatchdog#ServerID_8665dd9487&#45;x4b6d</title>
<polygon fill="none" stroke="black" points="1188.5,-488 857.5,-488 857.5,-452 1188.5,-452 1188.5,-488"/>
<text text-anchor="middle" x="1023" y="-466.3" font-family="Times,serif" font-size="14.00">1_fwatchdog#ServerID_8665dd9487&#45;x4b6d</text>
</g>
<!-- 10.1.80.247:38928#ServerID_OuterContainerID -->
<g id="node2" class="node"><title>10.1.80.247:38928#ServerID_OuterContainerID</title>
<polygon fill="none" stroke="black" points="1024,-357 688.515,-339 1024,-321 1359.48,-339 1024,-357"/>
<text text-anchor="middle" x="1024" y="-335.3" font-family="Times,serif" font-size="14.00">10.1.80.247:38928#ServerID_OuterContainerID</text>
</g>
<!-- 1_fwatchdog#ServerID_8665dd9487&#45;x4b6d&#45;&gt;10.1.80.247:38928#ServerID_OuterContainerID -->
<g id="edge1" class="edge"><title>1_fwatchdog#ServerID_8665dd9487&#45;x4b6d&#45;&gt;10.1.80.247:38928#ServerID_OuterContainerID</title>
<path fill="none" stroke="black" d="M987.261,-451.861C980.725,-447.032 974.784,-441.108 971,-434 967.867,-428.115 969.059,-425.378 971,-419 977.151,-398.792 990.385,-379.057 1002.09,-364.367"/>
<polygon fill="black" stroke="black" points="1005.06,-366.27 1008.74,-356.335 999.665,-361.806 1005.06,-366.27"/>
<text text-anchor="middle" x="1013" y="-422.8" font-family="Times,serif" font-size="14.00">RESPONSE</text>
</g>
<!-- 10.1.80.247:38928#ServerID_OuterContainerID&#45;&gt;1_fwatchdog#ServerID_8665dd9487&#45;x4b6d -->
<g id="edge5" class="edge"><title>10.1.80.247:38928#ServerID_OuterContainerID&#45;&gt;1_fwatchdog#ServerID_8665dd9487&#45;x4b6d</title>
<path fill="none" stroke="black" d="M1036.4,-356.484C1049.03,-375.397 1065.39,-407.248 1055,-434 1053.64,-437.507 1051.74,-440.876 1049.55,-444.046"/>
<polygon fill="black" stroke="black" points="1046.75,-441.944 1043.2,-451.928 1052.2,-446.335 1046.75,-441.944"/>
<text text-anchor="middle" x="1079" y="-422.8" font-family="Times,serif" font-size="14.00">POST</text>
</g>
<!-- 1_fwatchdog#ServerID_8df4e6f0b536 -->
<g id="node15" class="node"><title>1_fwatchdog#ServerID_8df4e6f0b536</title>
<polygon fill="none" stroke="black" points="4487,-226 4195,-226 4195,-190 4487,-190 4487,-226"/>
<text text-anchor="middle" x="4341" y="-204.3" font-family="Times,serif" font-size="14.00">1_fwatchdog#ServerID_8df4e6f0b536</text>
</g>
<!-- 10.1.80.247:38928#ServerID_OuterContainerID&#45;&gt;1_fwatchdog#ServerID_8df4e6f0b536 -->
<g id="edge19" class="edge"><title>10.1.80.247:38928#ServerID_OuterContainerID&#45;&gt;1_fwatchdog#ServerID_8df4e6f0b536</title>
<path fill="none" stroke="black" d="M1100.09,-325.01C1176.22,-312.704 1296.82,-295.086 1402,-288 1548.72,-278.115 3903.01,-297.717 4049,-280 4129.17,-270.27 4219.15,-246.348 4277.76,-228.954"/>
<polygon fill="black" stroke="black" points="4279.04,-232.226 4287.61,-226.005 4277.03,-225.52 4279.04,-232.226"/>
<text text-anchor="middle" x="1418.5" y="-291.8" font-family="Times,serif" font-size="14.00">read</text>
</g>
<!-- 1_fwatchdog#ServerID_6dcbcc88d5&#45;4vpdn -->
<g id="node3" class="node"><title>1_fwatchdog#ServerID_6dcbcc88d5&#45;4vpdn</title>
<polygon fill="none" stroke="black" points="5417.5,-226 5088.5,-226 5088.5,-190 5417.5,-190 5417.5,-226"/>
<text text-anchor="middle" x="5253" y="-204.3" font-family="Times,serif" font-size="14.00">1_fwatchdog#ServerID_6dcbcc88d5&#45;4vpdn</text>
</g>
<!-- 10.1.80.247:8080#ServerID_OuterContainerID -->
<g id="node4" class="node"><title>10.1.80.247:8080#ServerID_OuterContainerID</title>
<polygon fill="none" stroke="black" points="343,-357 15.5599,-339 343,-321 670.44,-339 343,-357"/>
<text text-anchor="middle" x="343" y="-335.3" font-family="Times,serif" font-size="14.00">10.1.80.247:8080#ServerID_OuterContainerID</text>
</g>
<!-- 1_fwatchdog#ServerID_6dcbcc88d5&#45;4vpdn&#45;&gt;10.1.80.247:8080#ServerID_OuterContainerID -->
<g id="edge2" class="edge"><title>1_fwatchdog#ServerID_6dcbcc88d5&#45;4vpdn&#45;&gt;10.1.80.247:8080#ServerID_OuterContainerID</title>
<path fill="none" stroke="black" d="M5221.38,-226.065C5187,-243.576 5129.87,-269.673 5077,-280 5030.82,-289.021 1736.03,-286.557 1689,-288 1575.97,-291.468 1547.99,-298.318 1435,-303 1099.64,-316.896 1015.42,-308.544 680,-321 623.511,-323.098 561.728,-326.029 506.666,-328.868"/>
<polygon fill="black" stroke="black" points="506.271,-325.384 496.466,-329.397 506.634,-332.375 506.271,-325.384"/>
<text text-anchor="middle" x="1709" y="-291.8" font-family="Times,serif" font-size="14.00">POST</text>
</g>
<!-- gateway:8080#ServerID_OuterContainerID -->
<g id="node5" class="node"><title>gateway:8080#ServerID_OuterContainerID</title>
<polygon fill="none" stroke="black" points="2371,-357 2066.52,-339 2371,-321 2675.48,-339 2371,-357"/>
<text text-anchor="middle" x="2371" y="-335.3" font-family="Times,serif" font-size="14.00">gateway:8080#ServerID_OuterContainerID</text>
</g>
<!-- 1_fwatchdog#ServerID_6dcbcc88d5&#45;4vpdn&#45;&gt;gateway:8080#ServerID_OuterContainerID -->
<g id="edge3" class="edge"><title>1_fwatchdog#ServerID_6dcbcc88d5&#45;4vpdn&#45;&gt;gateway:8080#ServerID_OuterContainerID</title>
<path fill="none" stroke="black" d="M5221.37,-226.043C5186.99,-243.535 5129.86,-269.617 5077,-280 5028.35,-289.557 3341.56,-286.544 3292,-288 3015.91,-296.108 2693.75,-315.989 2512.94,-328.097"/>
<polygon fill="black" stroke="black" points="2512.58,-324.614 2502.84,-328.776 2513.05,-331.598 2512.58,-324.614"/>
<text text-anchor="middle" x="3312" y="-291.8" font-family="Times,serif" font-size="14.00">POST</text>
</g>
<!-- 10.1.80.247:35344#ServerID_OuterContainerID -->
<g id="node6" class="node"><title>10.1.80.247:35344#ServerID_OuterContainerID</title>
<polygon fill="none" stroke="black" points="1713,-357 1377.52,-339 1713,-321 2048.48,-339 1713,-357"/>
<text text-anchor="middle" x="1713" y="-335.3" font-family="Times,serif" font-size="14.00">10.1.80.247:35344#ServerID_OuterContainerID</text>
</g>
<!-- 1_fwatchdog#ServerID_6dcbcc88d5&#45;4vpdn&#45;&gt;10.1.80.247:35344#ServerID_OuterContainerID -->
<g id="edge10" class="edge"><title>1_fwatchdog#ServerID_6dcbcc88d5&#45;4vpdn&#45;&gt;10.1.80.247:35344#ServerID_OuterContainerID</title>
<path fill="none" stroke="black" d="M5221.38,-226.056C5187,-243.56 5129.87,-269.65 5077,-280 5042.94,-286.668 2612.69,-286.943 2578,-288 2444.12,-292.081 2077.92,-314.68 1867.41,-328.058"/>
<polygon fill="black" stroke="black" points="1866.95,-324.58 1857.19,-328.708 1867.39,-331.566 1866.95,-324.58"/>
<text text-anchor="middle" x="2620" y="-291.8" font-family="Times,serif" font-size="14.00">RESPONSE</text>
</g>
<!-- 10.1.80.247:8080#ServerID_OuterContainerID&#45;&gt;1_fwatchdog#ServerID_6dcbcc88d5&#45;4vpdn -->
<g id="edge6" class="edge"><title>10.1.80.247:8080#ServerID_OuterContainerID&#45;&gt;1_fwatchdog#ServerID_6dcbcc88d5&#45;4vpdn</title>
<path fill="none" stroke="black" d="M494.357,-329.291C552.397,-326.234 619.257,-323.053 680,-321 1146.02,-305.252 1263.14,-322.938 1729,-303 1826.47,-298.828 1850.5,-291.46 1948,-288 1991.43,-286.459 5034.35,-288.335 5077,-280 5125.33,-270.555 5177.21,-247.941 5212.03,-230.752"/>
<polygon fill="black" stroke="black" points="5214.01,-233.674 5221.38,-226.063 5210.87,-227.417 5214.01,-233.674"/>
<text text-anchor="middle" x="1990" y="-291.8" font-family="Times,serif" font-size="14.00">RESPONSE</text>
</g>
<!-- 10.1.80.1:36502#ServerID_OuterContainerID -->
<g id="node19" class="node"><title>10.1.80.1:36502#ServerID_OuterContainerID</title>
<polygon fill="none" stroke="black" points="335,-226 16.1049,-208 335,-190 653.895,-208 335,-226"/>
<text text-anchor="middle" x="335" y="-204.3" font-family="Times,serif" font-size="14.00">10.1.80.1:36502#ServerID_OuterContainerID</text>
</g>
<!-- 10.1.80.247:8080#ServerID_OuterContainerID&#45;&gt;10.1.80.1:36502#ServerID_OuterContainerID -->
<g id="edge25" class="edge"><title>10.1.80.247:8080#ServerID_OuterContainerID&#45;&gt;10.1.80.1:36502#ServerID_OuterContainerID</title>
<path fill="none" stroke="black" d="M303.089,-323.103C294.688,-318.04 286.895,-311.453 282,-303 268.013,-278.849 288.251,-250.975 307.619,-231.889"/>
<polygon fill="black" stroke="black" points="310.03,-234.427 314.926,-225.031 305.239,-229.323 310.03,-234.427"/>
<text text-anchor="middle" x="324" y="-291.8" font-family="Times,serif" font-size="14.00">RESPONSE</text>
</g>
<!-- 10.0.88.125:31112#ServerID_OuterContainerID -->
<g id="node20" class="node"><title>10.0.88.125:31112#ServerID_OuterContainerID</title>
<polygon fill="none" stroke="black" points="1007,-226 671.515,-208 1007,-190 1342.48,-208 1007,-226"/>
<text text-anchor="middle" x="1007" y="-204.3" font-family="Times,serif" font-size="14.00">10.0.88.125:31112#ServerID_OuterContainerID</text>
</g>
<!-- 10.1.80.247:8080#ServerID_OuterContainerID&#45;&gt;10.0.88.125:31112#ServerID_OuterContainerID -->
<g id="edge26" class="edge"><title>10.1.80.247:8080#ServerID_OuterContainerID&#45;&gt;10.0.88.125:31112#ServerID_OuterContainerID</title>
<path fill="none" stroke="black" d="M417.454,-325.032C482.37,-313.599 579.024,-296.274 663,-280 756.437,-261.893 863.805,-239.474 933.388,-224.731"/>
<polygon fill="black" stroke="black" points="934.318,-228.112 943.374,-222.613 932.866,-221.264 934.318,-228.112"/>
<text text-anchor="middle" x="662" y="-291.8" font-family="Times,serif" font-size="14.00">RESPONSE</text>
</g>
<!-- gateway:8080#ServerID_OuterContainerID&#45;&gt;1_fwatchdog#ServerID_6dcbcc88d5&#45;4vpdn -->
<g id="edge7" class="edge"><title>gateway:8080#ServerID_OuterContainerID&#45;&gt;1_fwatchdog#ServerID_6dcbcc88d5&#45;4vpdn</title>
<path fill="none" stroke="black" d="M2459.07,-326.126C2555,-313.82 2713.08,-295.374 2850,-288 2911.77,-284.673 5016.29,-291.897 5077,-280 5125.32,-270.53 5177.21,-247.92 5212.03,-230.739"/>
<polygon fill="black" stroke="black" points="5214,-233.662 5221.38,-226.052 5210.87,-227.404 5214,-233.662"/>
<text text-anchor="middle" x="2892" y="-291.8" font-family="Times,serif" font-size="14.00">RESPONSE</text>
</g>
<!-- 10.1.80.247:35344#ServerID_OuterContainerID&#45;&gt;1_fwatchdog#ServerID_6dcbcc88d5&#45;4vpdn -->
<g id="edge4" class="edge"><title>10.1.80.247:35344#ServerID_OuterContainerID&#45;&gt;1_fwatchdog#ServerID_6dcbcc88d5&#45;4vpdn</title>
<path fill="none" stroke="black" d="M1809.38,-326.111C1914.36,-313.793 2087.31,-295.337 2237,-288 2276.4,-286.069 5038.29,-287.571 5077,-280 5125.33,-270.549 5177.21,-247.936 5212.03,-230.749"/>
<polygon fill="black" stroke="black" points="5214.01,-233.671 5221.38,-226.06 5210.87,-227.414 5214.01,-233.671"/>
<text text-anchor="middle" x="2257" y="-291.8" font-family="Times,serif" font-size="14.00">POST</text>
</g>
<!-- 1_fwatchdog#ServerID_d4de233c55aa -->
<g id="node9" class="node"><title>1_fwatchdog#ServerID_d4de233c55aa</title>
<polygon fill="none" stroke="black" points="6887.5,-357 6590.5,-357 6590.5,-321 6887.5,-321 6887.5,-357"/>
<text text-anchor="middle" x="6739" y="-335.3" font-family="Times,serif" font-size="14.00">1_fwatchdog#ServerID_d4de233c55aa</text>
</g>
<!-- 10.1.80.247:35344#ServerID_OuterContainerID&#45;&gt;1_fwatchdog#ServerID_d4de233c55aa -->
<g id="edge12" class="edge"><title>10.1.80.247:35344#ServerID_OuterContainerID&#45;&gt;1_fwatchdog#ServerID_d4de233c55aa</title>
<path fill="none" stroke="black" d="M1767.72,-354.066C1835.3,-371.823 1954.08,-400.271 2058,-411 2183,-423.905 6459.23,-437.81 6582,-411 6624.93,-401.626 6670.15,-379.393 6700.98,-362.093"/>
<polygon fill="black" stroke="black" points="6702.72,-365.129 6709.67,-357.131 6699.25,-359.05 6702.72,-365.129"/>
<text text-anchor="middle" x="4319" y="-422.8" font-family="Times,serif" font-size="14.00">read</text>
</g>
<!-- 10.1.80.247:46186#ServerID_OuterContainerID -->
<g id="node7" class="node"><title>10.1.80.247:46186#ServerID_OuterContainerID</title>
<polygon fill="none" stroke="black" points="3029,-357 2693.52,-339 3029,-321 3364.48,-339 3029,-357"/>
<text text-anchor="middle" x="3029" y="-335.3" font-family="Times,serif" font-size="14.00">10.1.80.247:46186#ServerID_OuterContainerID</text>
</g>
<!-- 1_fwatchdog#ServerID_76c96688d7&#45;2rgjp -->
<g id="node8" class="node"><title>1_fwatchdog#ServerID_76c96688d7&#45;2rgjp</title>
<polygon fill="none" stroke="black" points="5765,-226 5441,-226 5441,-190 5765,-190 5765,-226"/>
<text text-anchor="middle" x="5603" y="-204.3" font-family="Times,serif" font-size="14.00">1_fwatchdog#ServerID_76c96688d7&#45;2rgjp</text>
</g>
<!-- 10.1.80.247:46186#ServerID_OuterContainerID&#45;&gt;1_fwatchdog#ServerID_76c96688d7&#45;2rgjp -->
<g id="edge8" class="edge"><title>10.1.80.247:46186#ServerID_OuterContainerID&#45;&gt;1_fwatchdog#ServerID_76c96688d7&#45;2rgjp</title>
<path fill="none" stroke="black" d="M3169.65,-328.544C3355.34,-316.535 3692.52,-296.368 3981,-288 4021.21,-286.834 5389.55,-287.852 5429,-280 5476.82,-270.481 5528.11,-247.879 5562.52,-230.714"/>
<polygon fill="black" stroke="black" points="5564.42,-233.673 5571.76,-226.031 5561.25,-227.429 5564.42,-233.673"/>
<text text-anchor="middle" x="4001" y="-291.8" font-family="Times,serif" font-size="14.00">POST</text>
</g>
<!-- 1_fwatchdog#ServerID_76c96688d7&#45;2rgjp&#45;&gt;10.1.80.247:46186#ServerID_OuterContainerID -->
<g id="edge9" class="edge"><title>1_fwatchdog#ServerID_76c96688d7&#45;2rgjp&#45;&gt;10.1.80.247:46186#ServerID_OuterContainerID</title>
<path fill="none" stroke="black" d="M5571.76,-226.045C5537.79,-243.539 5481.32,-269.621 5429,-280 5377.18,-290.28 3579.76,-285.247 3527,-288 3390.04,-295.147 3232.67,-312.486 3132.11,-324.734"/>
<polygon fill="black" stroke="black" points="3131.46,-321.288 3121.96,-325.977 3132.31,-328.236 3131.46,-321.288"/>
<text text-anchor="middle" x="3569" y="-291.8" font-family="Times,serif" font-size="14.00">RESPONSE</text>
</g>
<!-- localhost:3000#ServerID_d4de233c55aa -->
<g id="node10" class="node"><title>localhost:3000#ServerID_d4de233c55aa</title>
<polygon fill="none" stroke="black" points="6602,-226 6316.28,-208 6602,-190 6887.72,-208 6602,-226"/>
<text text-anchor="middle" x="6602" y="-204.3" font-family="Times,serif" font-size="14.00">localhost:3000#ServerID_d4de233c55aa</text>
</g>
<!-- 1_fwatchdog#ServerID_d4de233c55aa&#45;&gt;localhost:3000#ServerID_d4de233c55aa -->
<g id="edge11" class="edge"><title>1_fwatchdog#ServerID_d4de233c55aa&#45;&gt;localhost:3000#ServerID_d4de233c55aa</title>
<path fill="none" stroke="black" d="M6720.81,-320.87C6696.56,-298.039 6653.57,-257.562 6626.49,-232.064"/>
<polygon fill="black" stroke="black" points="6628.65,-229.29 6618.97,-224.983 6623.86,-234.386 6628.65,-229.29"/>
<text text-anchor="middle" x="6717" y="-291.8" font-family="Times,serif" font-size="14.00">write</text>
</g>
<!-- /etc/hosts#ServerID_d4de233c55aa -->
<g id="node11" class="node"><title>/etc/hosts#ServerID_d4de233c55aa</title>
<ellipse fill="none" stroke="black" cx="6394" cy="-339" rx="178.969" ry="18"/>
<text text-anchor="middle" x="6394" y="-335.3" font-family="Times,serif" font-size="14.00">/etc/hosts#ServerID_d4de233c55aa</text>
</g>
<!-- 10_node#ServerID_d4de233c55aa -->
<g id="node12" class="node"><title>10_node#ServerID_d4de233c55aa</title>
<polygon fill="none" stroke="black" points="6055,-226 5789,-226 5789,-190 6055,-190 6055,-226"/>
<text text-anchor="middle" x="5922" y="-204.3" font-family="Times,serif" font-size="14.00">10_node#ServerID_d4de233c55aa</text>
</g>
<!-- /etc/hosts#ServerID_d4de233c55aa&#45;&gt;10_node#ServerID_d4de233c55aa -->
<g id="edge13" class="edge"><title>/etc/hosts#ServerID_d4de233c55aa&#45;&gt;10_node#ServerID_d4de233c55aa</title>
<path fill="none" stroke="black" d="M6335.18,-321.923C6248.77,-298.309 6087.71,-254.289 5994.24,-228.743"/>
<polygon fill="black" stroke="black" points="5995.14,-225.362 5984.58,-226.102 5993.3,-232.115 5995.14,-225.362"/>
<text text-anchor="middle" x="6270.5" y="-291.8" font-family="Times,serif" font-size="14.00">read</text>
</g>
<!-- 10_node#ServerID_d4de233c55aa&#45;&gt;gateway:8080#ServerID_OuterContainerID -->
<g id="edge17" class="edge"><title>10_node#ServerID_d4de233c55aa&#45;&gt;gateway:8080#ServerID_OuterContainerID</title>
<path fill="none" stroke="black" d="M5896.1,-226.154C5868.1,-243.604 5821.47,-269.523 5777,-280 5747.8,-286.88 4727,-287.556 4697,-288 4396.51,-292.446 4321.47,-297.642 4021,-303 3427.26,-313.587 3278.49,-300.944 2685,-321 2631.42,-322.811 2572.74,-325.734 2520.76,-328.649"/>
<polygon fill="black" stroke="black" points="2520.24,-325.173 2510.45,-329.232 2520.64,-332.162 2520.24,-325.173"/>
<text text-anchor="middle" x="4726" y="-291.8" font-family="Times,serif" font-size="14.00">connect</text>
</g>
<!-- 10.152.183.10:53#ServerID_OuterContainerID -->
<g id="node13" class="node"><title>10.152.183.10:53#ServerID_OuterContainerID</title>
<polygon fill="none" stroke="black" points="3710,-357 3382.56,-339 3710,-321 4037.44,-339 3710,-357"/>
<text text-anchor="middle" x="3710" y="-335.3" font-family="Times,serif" font-size="14.00">10.152.183.10:53#ServerID_OuterContainerID</text>
</g>
<!-- 10_node#ServerID_d4de233c55aa&#45;&gt;10.152.183.10:53#ServerID_OuterContainerID -->
<g id="edge14" class="edge"><title>10_node#ServerID_d4de233c55aa&#45;&gt;10.152.183.10:53#ServerID_OuterContainerID</title>
<path fill="none" stroke="black" d="M5896.08,-226.079C5868.06,-243.466 5821.43,-269.334 5777,-280 5749.88,-286.512 5302.88,-287.332 5275,-288 4781.66,-299.811 4201.03,-320.014 3904.99,-330.768"/>
<polygon fill="black" stroke="black" points="3904.44,-327.285 3894.58,-331.146 3904.7,-334.28 3904.44,-327.285"/>
<text text-anchor="middle" x="5299.5" y="-291.8" font-family="Times,serif" font-size="14.00">sendto</text>
</g>
<!-- 10.152.183.10:53#ServerID_OuterContainerID&#45;&gt;10_node#ServerID_d4de233c55aa -->
<g id="edge16" class="edge"><title>10.152.183.10:53#ServerID_OuterContainerID&#45;&gt;10_node#ServerID_d4de233c55aa</title>
<path fill="none" stroke="black" d="M3961.33,-334.809C4278.85,-330.258 4842.07,-320.456 5324,-303 5525.46,-295.703 5581.83,-330.467 5777,-280 5816.67,-269.743 5858.31,-248.049 5886.74,-231.325"/>
<polygon fill="black" stroke="black" points="5888.71,-234.229 5895.49,-226.09 5885.11,-228.222 5888.71,-234.229"/>
<text text-anchor="middle" x="5777" y="-291.8" font-family="Times,serif" font-size="14.00">recvfrom</text>
</g>
<!-- /etc/resolv.conf#ServerID_d4de233c55aa -->
<g id="node14" class="node"><title>/etc/resolv.conf#ServerID_d4de233c55aa</title>
<ellipse fill="none" stroke="black" cx="5993" cy="-339" rx="204.164" ry="18"/>
<text text-anchor="middle" x="5993" y="-335.3" font-family="Times,serif" font-size="14.00">/etc/resolv.conf#ServerID_d4de233c55aa</text>
</g>
<!-- /etc/resolv.conf#ServerID_d4de233c55aa&#45;&gt;10_node#ServerID_d4de233c55aa -->
<g id="edge15" class="edge"><title>/etc/resolv.conf#ServerID_d4de233c55aa&#45;&gt;10_node#ServerID_d4de233c55aa</title>
<path fill="none" stroke="black" d="M5983.57,-320.87C5971.48,-298.895 5950.38,-260.573 5936.31,-234.994"/>
<polygon fill="black" stroke="black" points="5939.36,-233.274 5931.47,-226.201 5933.22,-236.649 5939.36,-233.274"/>
<text text-anchor="middle" x="5988.5" y="-291.8" font-family="Times,serif" font-size="14.00">read</text>
</g>
<!-- localhost:3000#ServerID_8df4e6f0b536 -->
<g id="node16" class="node"><title>localhost:3000#ServerID_8df4e6f0b536</title>
<polygon fill="none" stroke="black" points="4341,-139 4060.81,-121 4341,-103 4621.19,-121 4341,-139"/>
<text text-anchor="middle" x="4341" y="-117.3" font-family="Times,serif" font-size="14.00">localhost:3000#ServerID_8df4e6f0b536</text>
</g>
<!-- 1_fwatchdog#ServerID_8df4e6f0b536&#45;&gt;localhost:3000#ServerID_8df4e6f0b536 -->
<g id="edge18" class="edge"><title>1_fwatchdog#ServerID_8df4e6f0b536&#45;&gt;localhost:3000#ServerID_8df4e6f0b536</title>
<path fill="none" stroke="black" d="M4280.1,-189.782C4272.55,-185.18 4265.81,-179.359 4261,-172 4252,-158.237 4262.36,-147.579 4278.29,-139.707"/>
<polygon fill="black" stroke="black" points="4279.87,-142.837 4287.62,-135.618 4277.06,-136.425 4279.87,-142.837"/>
<text text-anchor="middle" x="4290" y="-160.8" font-family="Times,serif" font-size="14.00">connect</text>
</g>
<!-- 1_fwatchdog#ServerID_8df4e6f0b536&#45;&gt;localhost:3000#ServerID_8df4e6f0b536 -->
<g id="edge22" class="edge"><title>1_fwatchdog#ServerID_8df4e6f0b536&#45;&gt;localhost:3000#ServerID_8df4e6f0b536</title>
<path fill="none" stroke="black" d="M4339.1,-189.883C4338.25,-180.231 4337.53,-167.947 4338,-157 4338.11,-154.441 4338.26,-151.779 4338.45,-149.118"/>
<polygon fill="black" stroke="black" points="4341.94,-149.317 4339.24,-139.071 4334.96,-148.763 4341.94,-149.317"/>
<text text-anchor="middle" x="4357" y="-160.8" font-family="Times,serif" font-size="14.00">write</text>
</g>
<!-- pipe:[273416825]#ServerID_8df4e6f0b536 -->
<g id="node18" class="node"><title>pipe:[273416825]#ServerID_8df4e6f0b536</title>
<ellipse fill="none" stroke="black" cx="4852" cy="-121" rx="212.562" ry="18"/>
<text text-anchor="middle" x="4852" y="-117.3" font-family="Times,serif" font-size="14.00">pipe:[273416825]#ServerID_8df4e6f0b536</text>
</g>
<!-- 1_fwatchdog#ServerID_8df4e6f0b536&#45;&gt;pipe:[273416825]#ServerID_8df4e6f0b536 -->
<g id="edge23" class="edge"><title>1_fwatchdog#ServerID_8df4e6f0b536&#45;&gt;pipe:[273416825]#ServerID_8df4e6f0b536</title>
<path fill="none" stroke="black" d="M4443.49,-189.952C4532.56,-175.136 4660.91,-153.786 4749.87,-138.988"/>
<polygon fill="black" stroke="black" points="4750.69,-142.4 4759.98,-137.307 4749.54,-135.495 4750.69,-142.4"/>
<text text-anchor="middle" x="4647" y="-160.8" font-family="Times,serif" font-size="14.00">write</text>
</g>
<!-- localhost:3000#ServerID_8df4e6f0b536&#45;&gt;1_fwatchdog#ServerID_8df4e6f0b536 -->
<g id="edge20" class="edge"><title>localhost:3000#ServerID_8df4e6f0b536&#45;&gt;1_fwatchdog#ServerID_8df4e6f0b536</title>
<path fill="none" stroke="black" d="M4365.07,-137.567C4376.14,-146.827 4385.7,-159.232 4380,-172 4378.34,-175.726 4376.06,-179.22 4373.44,-182.45"/>
<polygon fill="black" stroke="black" points="4370.7,-180.253 4366.35,-189.914 4375.77,-185.074 4370.7,-180.253"/>
<text text-anchor="middle" x="4398.5" y="-160.8" font-family="Times,serif" font-size="14.00">read</text>
</g>
<!-- 12_node#ServerID_8df4e6f0b536 -->
<g id="node17" class="node"><title>12_node#ServerID_8df4e6f0b536</title>
<polygon fill="none" stroke="black" points="4471,-52 4211,-52 4211,-16 4471,-16 4471,-52"/>
<text text-anchor="middle" x="4341" y="-30.3" font-family="Times,serif" font-size="14.00">12_node#ServerID_8df4e6f0b536</text>
</g>
<!-- localhost:3000#ServerID_8df4e6f0b536&#45;&gt;12_node#ServerID_8df4e6f0b536 -->
<g id="edge21" class="edge"><title>localhost:3000#ServerID_8df4e6f0b536&#45;&gt;12_node#ServerID_8df4e6f0b536</title>
<path fill="none" stroke="black" d="M4341,-102.799C4341,-91.1626 4341,-75.5479 4341,-62.2368"/>
<polygon fill="black" stroke="black" points="4344.5,-62.1754 4341,-52.1754 4337.5,-62.1755 4344.5,-62.1754"/>
<text text-anchor="middle" x="4357.5" y="-73.8" font-family="Times,serif" font-size="14.00">read</text>
</g>
<!-- 10.1.80.1:36502#ServerID_OuterContainerID&#45;&gt;10.1.80.247:8080#ServerID_OuterContainerID -->
<g id="edge24" class="edge"><title>10.1.80.1:36502#ServerID_OuterContainerID&#45;&gt;10.1.80.247:8080#ServerID_OuterContainerID</title>
<path fill="none" stroke="black" d="M344.797,-225.565C353.371,-241.09 365.187,-265.252 370,-288 371.38,-294.522 372.151,-296.69 370,-303 368.79,-306.55 367.057,-310.021 365.047,-313.312"/>
<polygon fill="black" stroke="black" points="362.147,-311.351 359.24,-321.54 367.866,-315.387 362.147,-311.351"/>
<text text-anchor="middle" x="392" y="-291.8" font-family="Times,serif" font-size="14.00">POST</text>
</g>
</g>
</svg>
