<?xml version="1.0" encoding="UTF-8" standalone="no"?>
<!DOCTYPE svg PUBLIC "-//W3C//DTD SVG 1.1//EN"
 "http://www.w3.org/Graphics/SVG/1.1/DTD/svg11.dtd">
<!-- Generated by graphviz version 2.38.0 (20140413.2041)
 -->
<!-- Title: G Pages: 1 -->
<svg width="4554pt" height="384pt"
 viewBox="0.00 0.00 4554.00 384.00" xmlns="http://www.w3.org/2000/svg" xmlns:xlink="http://www.w3.org/1999/xlink">
<g id="graph0" class="graph" transform="scale(1 1) rotate(0) translate(4 380)">
<title>G</title>
<polygon fill="white" stroke="none" points="-4,4 -4,-380 4550,-380 4550,4 -4,4"/>
<g id="clust1" class="cluster"><title>clusterServerID_309ec2955ffa</title>
<polygon fill="none" stroke="black" points="3656,-8 3656,-237 4538,-237 4538,-8 3656,-8"/>
<text text-anchor="middle" x="4097" y="-221.8" font-family="Times,serif" font-size="14.00">clusterServerID_309ec2955ffa</text>
</g>
<g id="clust2" class="cluster"><title>clusterServerID_7d87d9945d&#45;dl2ff</title>
<polygon fill="none" stroke="black" points="3312,-8 3312,-106 3648,-106 3648,-8 3312,-8"/>
<text text-anchor="middle" x="3480" y="-90.8" font-family="Times,serif" font-size="14.00">clusterServerID_7d87d9945d&#45;dl2ff</text>
</g>
<g id="clust3" class="cluster"><title>clusterServerID_866797f645&#45;wb664</title>
<polygon fill="none" stroke="black" points="1505,-270 1505,-368 1853,-368 1853,-270 1505,-270"/>
<text text-anchor="middle" x="1679" y="-352.8" font-family="Times,serif" font-size="14.00">clusterServerID_866797f645&#45;wb664</text>
</g>
<g id="clust4" class="cluster"><title>clusterServerID_OuterContainerID</title>
<polygon fill="none" stroke="black" points="8,-8 8,-237 3304,-237 3304,-8 8,-8"/>
<text text-anchor="middle" x="1656" y="-221.8" font-family="Times,serif" font-size="14.00">clusterServerID_OuterContainerID</text>
</g>
<!-- 1_fwatchdog#ServerID_866797f645&#45;wb664 -->
<g id="node1" class="node"><title>1_fwatchdog#ServerID_866797f645&#45;wb664</title>
<polygon fill="none" stroke="black" points="1844.5,-314 1513.5,-314 1513.5,-278 1844.5,-278 1844.5,-314"/>
<text text-anchor="middle" x="1679" y="-292.3" font-family="Times,serif" font-size="14.00">1_fwatchdog#ServerID_866797f645&#45;wb664</text>
</g>
<!-- 10.1.80.44:45676#ServerID_OuterContainerID -->
<g id="node2" class="node"><title>10.1.80.44:45676#ServerID_OuterContainerID</title>
<polygon fill="none" stroke="black" points="1015,-183 687.56,-165 1015,-147 1342.44,-165 1015,-183"/>
<text text-anchor="middle" x="1015" y="-161.3" font-family="Times,serif" font-size="14.00">10.1.80.44:45676#ServerID_OuterContainerID</text>
</g>
<!-- 1_fwatchdog#ServerID_866797f645&#45;wb664&#45;&gt;10.1.80.44:45676#ServerID_OuterContainerID -->
<g id="edge1" class="edge"><title>1_fwatchdog#ServerID_866797f645&#45;wb664&#45;&gt;10.1.80.44:45676#ServerID_OuterContainerID</title>
<path fill="none" stroke="black" d="M1513.44,-287.338C1410.7,-281.522 1288.88,-272.401 1238,-260 1169.93,-243.409 1095.91,-208.545 1052.58,-186.255"/>
<polygon fill="black" stroke="black" points="1054.04,-183.069 1043.56,-181.563 1050.82,-189.28 1054.04,-183.069"/>
<text text-anchor="middle" x="1280" y="-248.8" font-family="Times,serif" font-size="14.00">RESPONSE</text>
</g>
<!-- gateway:8080#ServerID_OuterContainerID -->
<g id="node3" class="node"><title>gateway:8080#ServerID_OuterContainerID</title>
<polygon fill="none" stroke="black" points="2992,-183 2687.52,-165 2992,-147 3296.48,-165 2992,-183"/>
<text text-anchor="middle" x="2992" y="-161.3" font-family="Times,serif" font-size="14.00">gateway:8080#ServerID_OuterContainerID</text>
</g>
<!-- 1_fwatchdog#ServerID_866797f645&#45;wb664&#45;&gt;gateway:8080#ServerID_OuterContainerID -->
<g id="edge3" class="edge"><title>1_fwatchdog#ServerID_866797f645&#45;wb664&#45;&gt;gateway:8080#ServerID_OuterContainerID</title>
<path fill="none" stroke="black" d="M1844.65,-281.792C1992.33,-270.457 2214.45,-254.491 2408,-245 2528.35,-239.099 2559.46,-252.177 2679,-237 2768.99,-225.575 2871.1,-199.97 2933.52,-182.839"/>
<polygon fill="black" stroke="black" points="2934.49,-186.204 2943.19,-180.166 2932.62,-179.457 2934.49,-186.204"/>
<text text-anchor="middle" x="2428" y="-248.8" font-family="Times,serif" font-size="14.00">POST</text>
</g>
<!-- 10.1.80.44:8080#ServerID_OuterContainerID -->
<g id="node6" class="node"><title>10.1.80.44:8080#ServerID_OuterContainerID</title>
<polygon fill="none" stroke="black" points="1679,-183 1360.1,-165 1679,-147 1997.9,-165 1679,-183"/>
<text text-anchor="middle" x="1679" y="-161.3" font-family="Times,serif" font-size="14.00">10.1.80.44:8080#ServerID_OuterContainerID</text>
</g>
<!-- 1_fwatchdog#ServerID_866797f645&#45;wb664&#45;&gt;10.1.80.44:8080#ServerID_OuterContainerID -->
<g id="edge8" class="edge"><title>1_fwatchdog#ServerID_866797f645&#45;wb664&#45;&gt;10.1.80.44:8080#ServerID_OuterContainerID</title>
<path fill="none" stroke="black" d="M1644.86,-277.823C1638.48,-272.972 1632.67,-267.049 1629,-260 1625.92,-254.087 1627.14,-251.403 1629,-245 1634.78,-225.061 1647.26,-205.326 1658.31,-190.569"/>
<polygon fill="black" stroke="black" points="1661.22,-192.535 1664.59,-182.491 1655.69,-188.24 1661.22,-192.535"/>
<text text-anchor="middle" x="1649" y="-248.8" font-family="Times,serif" font-size="14.00">POST</text>
</g>
<!-- 10.1.80.44:45676#ServerID_OuterContainerID&#45;&gt;1_fwatchdog#ServerID_866797f645&#45;wb664 -->
<g id="edge7" class="edge"><title>10.1.80.44:45676#ServerID_OuterContainerID&#45;&gt;1_fwatchdog#ServerID_866797f645&#45;wb664</title>
<path fill="none" stroke="black" d="M1076.5,-179.635C1143.78,-194.403 1254.86,-218.348 1351,-237 1422.94,-250.957 1504.03,-265.308 1567.58,-276.243"/>
<polygon fill="black" stroke="black" points="1567.18,-279.725 1577.62,-277.968 1568.36,-272.826 1567.18,-279.725"/>
<text text-anchor="middle" x="1489" y="-248.8" font-family="Times,serif" font-size="14.00">POST</text>
</g>
<!-- gateway:8080#ServerID_OuterContainerID&#45;&gt;1_fwatchdog#ServerID_866797f645&#45;wb664 -->
<g id="edge2" class="edge"><title>gateway:8080#ServerID_OuterContainerID&#45;&gt;1_fwatchdog#ServerID_866797f645&#45;wb664</title>
<path fill="none" stroke="black" d="M2939.5,-179.977C2877.63,-195.964 2771.52,-221.877 2679,-237 2578.92,-253.358 2553.13,-252.593 2452,-260 2247.32,-274.991 2011.64,-284.555 1854.86,-289.829"/>
<polygon fill="black" stroke="black" points="1854.53,-286.339 1844.65,-290.171 1854.76,-293.335 1854.53,-286.339"/>
<text text-anchor="middle" x="2665" y="-248.8" font-family="Times,serif" font-size="14.00">RESPONSE</text>
</g>
<!-- 11_node#ServerID_309ec2955ffa -->
<g id="node8" class="node"><title>11_node#ServerID_309ec2955ffa</title>
<polygon fill="none" stroke="black" points="3923.5,-52 3664.5,-52 3664.5,-16 3923.5,-16 3923.5,-52"/>
<text text-anchor="middle" x="3794" y="-30.3" font-family="Times,serif" font-size="14.00">11_node#ServerID_309ec2955ffa</text>
</g>
<!-- gateway:8080#ServerID_OuterContainerID&#45;&gt;11_node#ServerID_309ec2955ffa -->
<g id="edge12" class="edge"><title>gateway:8080#ServerID_OuterContainerID&#45;&gt;11_node#ServerID_309ec2955ffa</title>
<path fill="none" stroke="black" d="M3090.07,-152.739C3190.79,-141.515 3352.16,-124.482 3492,-114 3527.5,-111.339 3617.57,-115.042 3652,-106 3690.97,-95.7665 3731.74,-74.0699 3759.54,-57.3381"/>
<polygon fill="black" stroke="black" points="3761.39,-60.3078 3768.09,-52.1009 3757.74,-54.338 3761.39,-60.3078"/>
<text text-anchor="middle" x="3508.5" y="-117.8" font-family="Times,serif" font-size="14.00">read</text>
</g>
<!-- 10.1.80.44:37520#ServerID_OuterContainerID -->
<g id="node4" class="node"><title>10.1.80.44:37520#ServerID_OuterContainerID</title>
<polygon fill="none" stroke="black" points="2343,-183 2015.56,-165 2343,-147 2670.44,-165 2343,-183"/>
<text text-anchor="middle" x="2343" y="-161.3" font-family="Times,serif" font-size="14.00">10.1.80.44:37520#ServerID_OuterContainerID</text>
</g>
<!-- 1_fwatchdog#ServerID_7d87d9945d&#45;dl2ff -->
<g id="node5" class="node"><title>1_fwatchdog#ServerID_7d87d9945d&#45;dl2ff</title>
<polygon fill="none" stroke="black" points="3640,-52 3320,-52 3320,-16 3640,-16 3640,-52"/>
<text text-anchor="middle" x="3480" y="-30.3" font-family="Times,serif" font-size="14.00">1_fwatchdog#ServerID_7d87d9945d&#45;dl2ff</text>
</g>
<!-- 10.1.80.44:37520#ServerID_OuterContainerID&#45;&gt;1_fwatchdog#ServerID_7d87d9945d&#45;dl2ff -->
<g id="edge4" class="edge"><title>10.1.80.44:37520#ServerID_OuterContainerID&#45;&gt;1_fwatchdog#ServerID_7d87d9945d&#45;dl2ff</title>
<path fill="none" stroke="black" d="M2427.03,-151.601C2512.97,-139.523 2650.46,-121.867 2770,-114 2829.66,-110.074 3249.45,-118.063 3308,-106 3355.14,-96.2878 3405.67,-73.8312 3439.68,-56.7544"/>
<polygon fill="black" stroke="black" points="3441.49,-59.7563 3448.81,-52.0956 3438.31,-53.5202 3441.49,-59.7563"/>
<text text-anchor="middle" x="2790" y="-117.8" font-family="Times,serif" font-size="14.00">POST</text>
</g>
<!-- 1_fwatchdog#ServerID_7d87d9945d&#45;dl2ff&#45;&gt;10.1.80.44:37520#ServerID_OuterContainerID -->
<g id="edge6" class="edge"><title>1_fwatchdog#ServerID_7d87d9945d&#45;dl2ff&#45;&gt;10.1.80.44:37520#ServerID_OuterContainerID</title>
<path fill="none" stroke="black" d="M3447.78,-52.1075C3413.99,-69.121 3358.85,-94.3214 3308,-106 3270.05,-114.717 2779.83,-141.284 2513.13,-155.234"/>
<polygon fill="black" stroke="black" points="2512.76,-151.749 2502.95,-155.766 2513.12,-158.739 2512.76,-151.749"/>
<text text-anchor="middle" x="3267" y="-117.8" font-family="Times,serif" font-size="14.00">RESPONSE</text>
</g>
<!-- 10.1.80.44:8080#ServerID_OuterContainerID&#45;&gt;1_fwatchdog#ServerID_866797f645&#45;wb664 -->
<g id="edge5" class="edge"><title>10.1.80.44:8080#ServerID_OuterContainerID&#45;&gt;1_fwatchdog#ServerID_866797f645&#45;wb664</title>
<path fill="none" stroke="black" d="M1690.58,-182.455C1702.38,-201.342 1717.67,-233.169 1708,-260 1706.81,-263.292 1705.17,-266.494 1703.26,-269.537"/>
<polygon fill="black" stroke="black" points="1700.41,-267.503 1697.34,-277.642 1706.06,-271.632 1700.41,-267.503"/>
<text text-anchor="middle" x="1753" y="-248.8" font-family="Times,serif" font-size="14.00">RESPONSE</text>
</g>
<!-- 10.1.80.1:3071#ServerID_OuterContainerID -->
<g id="node11" class="node"><title>10.1.80.1:3071#ServerID_OuterContainerID</title>
<polygon fill="none" stroke="black" points="1786,-52 1475.15,-34 1786,-16 2096.85,-34 1786,-52"/>
<text text-anchor="middle" x="1786" y="-30.3" font-family="Times,serif" font-size="14.00">10.1.80.1:3071#ServerID_OuterContainerID</text>
</g>
<!-- 10.1.80.44:8080#ServerID_OuterContainerID&#45;&gt;10.1.80.1:3071#ServerID_OuterContainerID -->
<g id="edge13" class="edge"><title>10.1.80.44:8080#ServerID_OuterContainerID&#45;&gt;10.1.80.1:3071#ServerID_OuterContainerID</title>
<path fill="none" stroke="black" d="M1675.74,-146.88C1674.66,-136.773 1674.84,-124.037 1680,-114 1693.39,-87.9651 1719.76,-68.2605 1742.84,-55.042"/>
<polygon fill="black" stroke="black" points="1744.74,-57.9958 1751.83,-50.1212 1741.37,-51.8568 1744.74,-57.9958"/>
<text text-anchor="middle" x="1722" y="-117.8" font-family="Times,serif" font-size="14.00">RESPONSE</text>
</g>
<!-- 10.0.88.125:31112#ServerID_OuterContainerID -->
<g id="node12" class="node"><title>10.0.88.125:31112#ServerID_OuterContainerID</title>
<polygon fill="none" stroke="black" points="1122,-52 786.515,-34 1122,-16 1457.48,-34 1122,-52"/>
<text text-anchor="middle" x="1122" y="-30.3" font-family="Times,serif" font-size="14.00">10.0.88.125:31112#ServerID_OuterContainerID</text>
</g>
<!-- 10.1.80.44:8080#ServerID_OuterContainerID&#45;&gt;10.0.88.125:31112#ServerID_OuterContainerID -->
<g id="edge15" class="edge"><title>10.1.80.44:8080#ServerID_OuterContainerID&#45;&gt;10.0.88.125:31112#ServerID_OuterContainerID</title>
<path fill="none" stroke="black" d="M1619.92,-150.317C1516.34,-126.328 1302.48,-76.7999 1191.79,-51.1641"/>
<polygon fill="black" stroke="black" points="1192.27,-47.6811 1181.74,-48.8345 1190.69,-54.5006 1192.27,-47.6811"/>
<text text-anchor="middle" x="1557" y="-117.8" font-family="Times,serif" font-size="14.00">RESPONSE</text>
</g>
<!-- localhost:3000#ServerID_309ec2955ffa -->
<g id="node7" class="node"><title>localhost:3000#ServerID_309ec2955ffa</title>
<polygon fill="none" stroke="black" points="4251,-183 3971.65,-165 4251,-147 4530.35,-165 4251,-183"/>
<text text-anchor="middle" x="4251" y="-161.3" font-family="Times,serif" font-size="14.00">localhost:3000#ServerID_309ec2955ffa</text>
</g>
<!-- localhost:3000#ServerID_309ec2955ffa&#45;&gt;11_node#ServerID_309ec2955ffa -->
<g id="edge9" class="edge"><title>localhost:3000#ServerID_309ec2955ffa&#45;&gt;11_node#ServerID_309ec2955ffa</title>
<path fill="none" stroke="black" d="M4201.66,-150.072C4120.18,-127.074 3957.27,-81.0874 3863.95,-54.7446"/>
<polygon fill="black" stroke="black" points="3864.88,-51.3718 3854.31,-52.0235 3862.98,-58.1085 3864.88,-51.3718"/>
<text text-anchor="middle" x="4131.5" y="-117.8" font-family="Times,serif" font-size="14.00">read</text>
</g>
<!-- 11_node#ServerID_309ec2955ffa&#45;&gt;gateway:8080#ServerID_OuterContainerID -->
<g id="edge10" class="edge"><title>11_node#ServerID_309ec2955ffa&#45;&gt;gateway:8080#ServerID_OuterContainerID</title>
<path fill="none" stroke="black" d="M3767.49,-52.0859C3739.86,-68.9538 3694.7,-93.9221 3652,-106 3563.85,-130.934 3329.87,-147.295 3165.66,-156.097"/>
<polygon fill="black" stroke="black" points="3165.24,-152.614 3155.44,-156.64 3165.62,-159.605 3165.24,-152.614"/>
<text text-anchor="middle" x="3641" y="-117.8" font-family="Times,serif" font-size="14.00">connect</text>
</g>
<!-- 10.1.80.44:46058#ServerID_OuterContainerID -->
<g id="node9" class="node"><title>10.1.80.44:46058#ServerID_OuterContainerID</title>
<polygon fill="none" stroke="black" points="343,-183 15.5599,-165 343,-147 670.44,-165 343,-183"/>
<text text-anchor="middle" x="343" y="-161.3" font-family="Times,serif" font-size="14.00">10.1.80.44:46058#ServerID_OuterContainerID</text>
</g>
<!-- 1_fwatchdog#ServerID_309ec2955ffa -->
<g id="node10" class="node"><title>1_fwatchdog#ServerID_309ec2955ffa</title>
<polygon fill="none" stroke="black" points="3954,-183 3664,-183 3664,-147 3954,-147 3954,-183"/>
<text text-anchor="middle" x="3809" y="-161.3" font-family="Times,serif" font-size="14.00">1_fwatchdog#ServerID_309ec2955ffa</text>
</g>
<!-- 10.1.80.44:46058#ServerID_OuterContainerID&#45;&gt;1_fwatchdog#ServerID_309ec2955ffa -->
<g id="edge11" class="edge"><title>10.1.80.44:46058#ServerID_OuterContainerID&#45;&gt;1_fwatchdog#ServerID_309ec2955ffa</title>
<path fill="none" stroke="black" d="M396.554,-180.143C462.393,-197.905 577.85,-226.284 679,-237 969.486,-267.774 3016.63,-257.83 3308,-237 3444.99,-227.207 3601.45,-202.534 3702.55,-184.801"/>
<polygon fill="black" stroke="black" points="3703.22,-188.236 3712.46,-183.053 3702.01,-181.343 3703.22,-188.236"/>
<text text-anchor="middle" x="1690" y="-248.8" font-family="Times,serif" font-size="14.00">read</text>
</g>
<!-- 10.1.80.1:3071#ServerID_OuterContainerID&#45;&gt;10.1.80.44:8080#ServerID_OuterContainerID -->
<g id="edge14" class="edge"><title>10.1.80.1:3071#ServerID_OuterContainerID&#45;&gt;10.1.80.44:8080#ServerID_OuterContainerID</title>
<path fill="none" stroke="black" d="M1786.48,-51.9883C1786.15,-72.5643 1782.57,-107.173 1764,-129 1758.42,-135.552 1751.43,-140.896 1743.86,-145.251"/>
<polygon fill="black" stroke="black" points="1742.05,-142.243 1734.76,-149.922 1745.25,-148.47 1742.05,-142.243"/>
<text text-anchor="middle" x="1793" y="-117.8" font-family="Times,serif" font-size="14.00">POST</text>
</g>
</g>
</svg>
