<?xml version="1.0" encoding="UTF-8" standalone="no"?>
<!DOCTYPE svg PUBLIC "-//W3C//DTD SVG 1.1//EN"
 "http://www.w3.org/Graphics/SVG/1.1/DTD/svg11.dtd">
<!-- Generated by graphviz version 2.38.0 (20140413.2041)
 -->
<!-- Title: G Pages: 1 -->
<svg width="5884pt" height="471pt"
 viewBox="0.00 0.00 5884.00 471.00" xmlns="http://www.w3.org/2000/svg" xmlns:xlink="http://www.w3.org/1999/xlink">
<g id="graph0" class="graph" transform="scale(1 1) rotate(0) translate(4 467)">
<title>G</title>
<polygon fill="white" stroke="none" points="-4,4 -4,-467 5880,-467 5880,4 -4,4"/>
<g id="clust1" class="cluster"><title>clusterServerID_04eca90de97f</title>
<polygon fill="none" stroke="black" points="3668,-8 3668,-324 4768,-324 4768,-8 3668,-8"/>
<text text-anchor="middle" x="4218" y="-308.8" font-family="Times,serif" font-size="14.00">clusterServerID_04eca90de97f</text>
</g>
<g id="clust2" class="cluster"><title>clusterServerID_309ec2955ffa</title>
<polygon fill="none" stroke="black" points="4776,-95 4776,-324 5868,-324 5868,-95 4776,-95"/>
<text text-anchor="middle" x="5322" y="-308.8" font-family="Times,serif" font-size="14.00">clusterServerID_309ec2955ffa</text>
</g>
<g id="clust3" class="cluster"><title>clusterServerID_7d87d9945d&#45;dl2ff</title>
<polygon fill="none" stroke="black" points="2485,-357 2485,-455 2821,-455 2821,-357 2485,-357"/>
<text text-anchor="middle" x="2653" y="-439.8" font-family="Times,serif" font-size="14.00">clusterServerID_7d87d9945d&#45;dl2ff</text>
</g>
<g id="clust4" class="cluster"><title>clusterServerID_866797f645&#45;wb664</title>
<polygon fill="none" stroke="black" points="8,-95 8,-193 356,-193 356,-95 8,-95"/>
<text text-anchor="middle" x="182" y="-177.8" font-family="Times,serif" font-size="14.00">clusterServerID_866797f645&#45;wb664</text>
</g>
<g id="clust5" class="cluster"><title>clusterServerID_OuterContainerID</title>
<polygon fill="none" stroke="black" points="364,-95 364,-324 3660,-324 3660,-95 364,-95"/>
<text text-anchor="middle" x="2012" y="-308.8" font-family="Times,serif" font-size="14.00">clusterServerID_OuterContainerID</text>
</g>
<!-- 1_fwatchdog#ServerID_7d87d9945d&#45;dl2ff -->
<g id="node1" class="node"><title>1_fwatchdog#ServerID_7d87d9945d&#45;dl2ff</title>
<polygon fill="none" stroke="black" points="2813,-401 2493,-401 2493,-365 2813,-365 2813,-401"/>
<text text-anchor="middle" x="2653" y="-379.3" font-family="Times,serif" font-size="14.00">1_fwatchdog#ServerID_7d87d9945d&#45;dl2ff</text>
</g>
<!-- 10.1.80.44:38488#ServerID_OuterContainerID -->
<g id="node2" class="node"><title>10.1.80.44:38488#ServerID_OuterContainerID</title>
<polygon fill="none" stroke="black" points="2653,-270 2325.56,-252 2653,-234 2980.44,-252 2653,-270"/>
<text text-anchor="middle" x="2653" y="-248.3" font-family="Times,serif" font-size="14.00">10.1.80.44:38488#ServerID_OuterContainerID</text>
</g>
<!-- 1_fwatchdog#ServerID_7d87d9945d&#45;dl2ff&#45;&gt;10.1.80.44:38488#ServerID_OuterContainerID -->
<g id="edge1" class="edge"><title>1_fwatchdog#ServerID_7d87d9945d&#45;dl2ff&#45;&gt;10.1.80.44:38488#ServerID_OuterContainerID</title>
<path fill="none" stroke="black" d="M2599.86,-364.972C2592.36,-360.312 2585.64,-354.423 2581,-347 2564.64,-320.854 2592.19,-293.067 2617.8,-274.543"/>
<polygon fill="black" stroke="black" points="2620.11,-277.2 2626.34,-268.632 2616.13,-271.443 2620.11,-277.2"/>
<text text-anchor="middle" x="2623" y="-335.8" font-family="Times,serif" font-size="14.00">RESPONSE</text>
</g>
<!-- 10.1.80.44:38488#ServerID_OuterContainerID&#45;&gt;1_fwatchdog#ServerID_7d87d9945d&#45;dl2ff -->
<g id="edge6" class="edge"><title>10.1.80.44:38488#ServerID_OuterContainerID&#45;&gt;1_fwatchdog#ServerID_7d87d9945d&#45;dl2ff</title>
<path fill="none" stroke="black" d="M2667.69,-269.44C2680.1,-284.503 2696.94,-308.042 2704,-332 2705.88,-338.395 2707.11,-341.101 2704,-347 2701.83,-351.12 2698.93,-354.848 2695.62,-358.2"/>
<polygon fill="black" stroke="black" points="2693.09,-355.757 2687.81,-364.939 2697.66,-361.056 2693.09,-355.757"/>
<text text-anchor="middle" x="2726" y="-335.8" font-family="Times,serif" font-size="14.00">POST</text>
</g>
<!-- 1_fwatchdog#ServerID_04eca90de97f -->
<g id="node15" class="node"><title>1_fwatchdog#ServerID_04eca90de97f</title>
<polygon fill="none" stroke="black" points="4043.5,-139 3750.5,-139 3750.5,-103 4043.5,-103 4043.5,-139"/>
<text text-anchor="middle" x="3897" y="-117.3" font-family="Times,serif" font-size="14.00">1_fwatchdog#ServerID_04eca90de97f</text>
</g>
<!-- 10.1.80.44:38488#ServerID_OuterContainerID&#45;&gt;1_fwatchdog#ServerID_04eca90de97f -->
<g id="edge17" class="edge"><title>10.1.80.44:38488#ServerID_OuterContainerID&#45;&gt;1_fwatchdog#ServerID_04eca90de97f</title>
<path fill="none" stroke="black" d="M2719.66,-237.644C2783.77,-225.483 2883.57,-208.34 2971,-201 3047.74,-194.558 3587.9,-204.786 3664,-193 3727.59,-183.15 3797.91,-159.923 3844.49,-142.702"/>
<polygon fill="black" stroke="black" points="3845.92,-145.905 3854.06,-139.125 3843.47,-139.348 3845.92,-145.905"/>
<text text-anchor="middle" x="2987.5" y="-204.8" font-family="Times,serif" font-size="14.00">read</text>
</g>
<!-- 1_fwatchdog#ServerID_866797f645&#45;wb664 -->
<g id="node3" class="node"><title>1_fwatchdog#ServerID_866797f645&#45;wb664</title>
<polygon fill="none" stroke="black" points="347.5,-139 16.5,-139 16.5,-103 347.5,-103 347.5,-139"/>
<text text-anchor="middle" x="182" y="-117.3" font-family="Times,serif" font-size="14.00">1_fwatchdog#ServerID_866797f645&#45;wb664</text>
</g>
<!-- 10.1.80.44:8080#ServerID_OuterContainerID -->
<g id="node4" class="node"><title>10.1.80.44:8080#ServerID_OuterContainerID</title>
<polygon fill="none" stroke="black" points="1363,-270 1044.1,-252 1363,-234 1681.9,-252 1363,-270"/>
<text text-anchor="middle" x="1363" y="-248.3" font-family="Times,serif" font-size="14.00">10.1.80.44:8080#ServerID_OuterContainerID</text>
</g>
<!-- 1_fwatchdog#ServerID_866797f645&#45;wb664&#45;&gt;10.1.80.44:8080#ServerID_OuterContainerID -->
<g id="edge2" class="edge"><title>1_fwatchdog#ServerID_866797f645&#45;wb664&#45;&gt;10.1.80.44:8080#ServerID_OuterContainerID</title>
<path fill="none" stroke="black" d="M215.201,-139.01C267.582,-165.815 363.922,-214.97 368,-216 439.88,-234.16 960.919,-231.081 1035,-234 1089.73,-236.157 1149.57,-239.088 1202.98,-241.91"/>
<polygon fill="black" stroke="black" points="1203.05,-245.418 1213.22,-242.454 1203.42,-238.428 1203.05,-245.418"/>
<text text-anchor="middle" x="388" y="-204.8" font-family="Times,serif" font-size="14.00">POST</text>
</g>
<!-- gateway:8080#ServerID_OuterContainerID -->
<g id="node5" class="node"><title>gateway:8080#ServerID_OuterContainerID</title>
<polygon fill="none" stroke="black" points="2004,-270 1699.52,-252 2004,-234 2308.48,-252 2004,-270"/>
<text text-anchor="middle" x="2004" y="-248.3" font-family="Times,serif" font-size="14.00">gateway:8080#ServerID_OuterContainerID</text>
</g>
<!-- 1_fwatchdog#ServerID_866797f645&#45;wb664&#45;&gt;gateway:8080#ServerID_OuterContainerID -->
<g id="edge3" class="edge"><title>1_fwatchdog#ServerID_866797f645&#45;wb664&#45;&gt;gateway:8080#ServerID_OuterContainerID</title>
<path fill="none" stroke="black" d="M214.702,-139.111C249.606,-156.39 307.057,-182.045 360,-193 390.478,-199.307 608.891,-200.034 640,-201 838.683,-207.172 888.321,-209.706 1087,-216 1355.43,-224.504 1422.67,-222.717 1691,-234 1742.87,-236.181 1799.54,-239.097 1850.23,-241.897"/>
<polygon fill="black" stroke="black" points="1850.11,-245.396 1860.29,-242.456 1850.5,-238.407 1850.11,-245.396"/>
<text text-anchor="middle" x="1107" y="-204.8" font-family="Times,serif" font-size="14.00">POST</text>
</g>
<!-- 10.1.80.44:46958#ServerID_OuterContainerID -->
<g id="node6" class="node"><title>10.1.80.44:46958#ServerID_OuterContainerID</title>
<polygon fill="none" stroke="black" points="699,-270 371.56,-252 699,-234 1026.44,-252 699,-270"/>
<text text-anchor="middle" x="699" y="-248.3" font-family="Times,serif" font-size="14.00">10.1.80.44:46958#ServerID_OuterContainerID</text>
</g>
<!-- 1_fwatchdog#ServerID_866797f645&#45;wb664&#45;&gt;10.1.80.44:46958#ServerID_OuterContainerID -->
<g id="edge7" class="edge"><title>1_fwatchdog#ServerID_866797f645&#45;wb664&#45;&gt;10.1.80.44:46958#ServerID_OuterContainerID</title>
<path fill="none" stroke="black" d="M176.675,-139.222C171.325,-160.364 166.39,-195.881 186,-216 204.391,-234.868 314.927,-243.777 428.705,-247.9"/>
<polygon fill="black" stroke="black" points="428.898,-251.408 439.014,-248.26 429.142,-244.413 428.898,-251.408"/>
<text text-anchor="middle" x="228" y="-204.8" font-family="Times,serif" font-size="14.00">RESPONSE</text>
</g>
<!-- 10.1.80.44:8080#ServerID_OuterContainerID&#45;&gt;1_fwatchdog#ServerID_866797f645&#45;wb664 -->
<g id="edge8" class="edge"><title>10.1.80.44:8080#ServerID_OuterContainerID&#45;&gt;1_fwatchdog#ServerID_866797f645&#45;wb664</title>
<path fill="none" stroke="black" d="M1211.99,-242.501C1156.36,-239.547 1092.83,-236.382 1035,-234 904.161,-228.611 574.254,-242.433 446,-216 428.217,-212.335 425.497,-205.853 408,-201 387.159,-195.22 380.83,-198.818 360,-193 313.721,-180.075 263.008,-159.137 227.592,-143.34"/>
<polygon fill="black" stroke="black" points="228.58,-139.946 218.025,-139.032 225.706,-146.329 228.58,-139.946"/>
<text text-anchor="middle" x="488" y="-204.8" font-family="Times,serif" font-size="14.00">RESPONSE</text>
</g>
<!-- 10.1.80.1:48966#ServerID_OuterContainerID -->
<g id="node18" class="node"><title>10.1.80.1:48966#ServerID_OuterContainerID</title>
<polygon fill="none" stroke="black" points="1426,-139 1107.1,-121 1426,-103 1744.9,-121 1426,-139"/>
<text text-anchor="middle" x="1426" y="-117.3" font-family="Times,serif" font-size="14.00">10.1.80.1:48966#ServerID_OuterContainerID</text>
</g>
<!-- 10.1.80.44:8080#ServerID_OuterContainerID&#45;&gt;10.1.80.1:48966#ServerID_OuterContainerID -->
<g id="edge22" class="edge"><title>10.1.80.44:8080#ServerID_OuterContainerID&#45;&gt;10.1.80.1:48966#ServerID_OuterContainerID</title>
<path fill="none" stroke="black" d="M1386.83,-235.01C1393.25,-229.655 1399.62,-223.194 1404,-216 1416.36,-195.709 1421.78,-169.069 1424.15,-149.332"/>
<polygon fill="black" stroke="black" points="1427.65,-149.463 1425.18,-139.161 1420.69,-148.757 1427.65,-149.463"/>
<text text-anchor="middle" x="1454" y="-204.8" font-family="Times,serif" font-size="14.00">RESPONSE</text>
</g>
<!-- 10.0.88.125:31112#ServerID_OuterContainerID -->
<g id="node19" class="node"><title>10.0.88.125:31112#ServerID_OuterContainerID</title>
<polygon fill="none" stroke="black" points="754,-139 418.515,-121 754,-103 1089.48,-121 754,-139"/>
<text text-anchor="middle" x="754" y="-117.3" font-family="Times,serif" font-size="14.00">10.0.88.125:31112#ServerID_OuterContainerID</text>
</g>
<!-- 10.1.80.44:8080#ServerID_OuterContainerID&#45;&gt;10.0.88.125:31112#ServerID_OuterContainerID -->
<g id="edge24" class="edge"><title>10.1.80.44:8080#ServerID_OuterContainerID&#45;&gt;10.0.88.125:31112#ServerID_OuterContainerID</title>
<path fill="none" stroke="black" d="M1299.55,-237.56C1186.06,-213.52 948.91,-163.286 828.128,-137.702"/>
<polygon fill="black" stroke="black" points="828.731,-134.252 818.223,-135.604 827.281,-141.1 828.731,-134.252"/>
<text text-anchor="middle" x="1226" y="-204.8" font-family="Times,serif" font-size="14.00">RESPONSE</text>
</g>
<!-- gateway:8080#ServerID_OuterContainerID&#45;&gt;1_fwatchdog#ServerID_866797f645&#45;wb664 -->
<g id="edge5" class="edge"><title>gateway:8080#ServerID_OuterContainerID&#45;&gt;1_fwatchdog#ServerID_866797f645&#45;wb664</title>
<path fill="none" stroke="black" d="M1864.21,-242.256C1810.12,-239.175 1747.7,-235.987 1691,-234 1627.75,-231.783 612.325,-235.132 552,-216 540.719,-212.422 541.223,-204.753 530,-201 494.133,-189.006 396.963,-201.005 360,-193 311.644,-182.527 259.403,-160.263 224.108,-143.441"/>
<polygon fill="black" stroke="black" points="225.593,-140.272 215.066,-139.074 222.549,-146.575 225.593,-140.272"/>
<text text-anchor="middle" x="594" y="-204.8" font-family="Times,serif" font-size="14.00">RESPONSE</text>
</g>
<!-- 10.1.80.44:46958#ServerID_OuterContainerID&#45;&gt;1_fwatchdog#ServerID_866797f645&#45;wb664 -->
<g id="edge4" class="edge"><title>10.1.80.44:46958#ServerID_OuterContainerID&#45;&gt;1_fwatchdog#ServerID_866797f645&#45;wb664</title>
<path fill="none" stroke="black" d="M503.054,-244.742C420.34,-239.883 334.561,-231.266 297,-216 277.323,-208.002 235.349,-171.372 207.923,-146.272"/>
<polygon fill="black" stroke="black" points="209.988,-143.415 200.261,-139.214 205.245,-148.564 209.988,-143.415"/>
<text text-anchor="middle" x="317" y="-204.8" font-family="Times,serif" font-size="14.00">POST</text>
</g>
<!-- 1_fwatchdog#ServerID_309ec2955ffa -->
<g id="node7" class="node"><title>1_fwatchdog#ServerID_309ec2955ffa</title>
<polygon fill="none" stroke="black" points="5860,-270 5570,-270 5570,-234 5860,-234 5860,-270"/>
<text text-anchor="middle" x="5715" y="-248.3" font-family="Times,serif" font-size="14.00">1_fwatchdog#ServerID_309ec2955ffa</text>
</g>
<!-- 10.1.80.44:46958#ServerID_OuterContainerID&#45;&gt;1_fwatchdog#ServerID_309ec2955ffa -->
<g id="edge10" class="edge"><title>10.1.80.44:46958#ServerID_OuterContainerID&#45;&gt;1_fwatchdog#ServerID_309ec2955ffa</title>
<path fill="none" stroke="black" d="M752.554,-267.143C818.393,-284.905 933.85,-313.284 1035,-324 1160.02,-337.245 5438.27,-351.273 5561,-324 5603.04,-314.658 5647.18,-292.577 5677.38,-275.312"/>
<polygon fill="black" stroke="black" points="5679.4,-278.184 5686.28,-270.128 5675.88,-272.134 5679.4,-278.184"/>
<text text-anchor="middle" x="2686" y="-335.8" font-family="Times,serif" font-size="14.00">read</text>
</g>
<!-- localhost:3000#ServerID_309ec2955ffa -->
<g id="node8" class="node"><title>localhost:3000#ServerID_309ec2955ffa</title>
<polygon fill="none" stroke="black" points="5581,-139 5301.65,-121 5581,-103 5860.35,-121 5581,-139"/>
<text text-anchor="middle" x="5581" y="-117.3" font-family="Times,serif" font-size="14.00">localhost:3000#ServerID_309ec2955ffa</text>
</g>
<!-- 1_fwatchdog#ServerID_309ec2955ffa&#45;&gt;localhost:3000#ServerID_309ec2955ffa -->
<g id="edge9" class="edge"><title>1_fwatchdog#ServerID_309ec2955ffa&#45;&gt;localhost:3000#ServerID_309ec2955ffa</title>
<path fill="none" stroke="black" d="M5697.21,-233.87C5673.49,-211.039 5631.44,-170.562 5604.96,-145.064"/>
<polygon fill="black" stroke="black" points="5607.23,-142.397 5597.6,-137.983 5602.38,-147.44 5607.23,-142.397"/>
<text text-anchor="middle" x="5694" y="-204.8" font-family="Times,serif" font-size="14.00">write</text>
</g>
<!-- /etc/hosts#ServerID_309ec2955ffa -->
<g id="node9" class="node"><title>/etc/hosts#ServerID_309ec2955ffa</title>
<ellipse fill="none" stroke="black" cx="5377" cy="-252" rx="174.669" ry="18"/>
<text text-anchor="middle" x="5377" y="-248.3" font-family="Times,serif" font-size="14.00">/etc/hosts#ServerID_309ec2955ffa</text>
</g>
<!-- 11_node#ServerID_309ec2955ffa -->
<g id="node10" class="node"><title>11_node#ServerID_309ec2955ffa</title>
<polygon fill="none" stroke="black" points="5043.5,-139 4784.5,-139 4784.5,-103 5043.5,-103 5043.5,-139"/>
<text text-anchor="middle" x="4914" y="-117.3" font-family="Times,serif" font-size="14.00">11_node#ServerID_309ec2955ffa</text>
</g>
<!-- /etc/hosts#ServerID_309ec2955ffa&#45;&gt;11_node#ServerID_309ec2955ffa -->
<g id="edge11" class="edge"><title>/etc/hosts#ServerID_309ec2955ffa&#45;&gt;11_node#ServerID_309ec2955ffa</title>
<path fill="none" stroke="black" d="M5319.3,-234.923C5234.63,-211.333 5076.87,-167.378 4985.14,-141.821"/>
<polygon fill="black" stroke="black" points="4985.95,-138.415 4975.38,-139.102 4984.08,-145.158 4985.95,-138.415"/>
<text text-anchor="middle" x="5256.5" y="-204.8" font-family="Times,serif" font-size="14.00">read</text>
</g>
<!-- 11_node#ServerID_309ec2955ffa&#45;&gt;gateway:8080#ServerID_OuterContainerID -->
<g id="edge18" class="edge"><title>11_node#ServerID_309ec2955ffa&#45;&gt;gateway:8080#ServerID_OuterContainerID</title>
<path fill="none" stroke="black" d="M4888.95,-139.007C4861.6,-156.469 4815.83,-182.525 4772,-193 4732.99,-202.324 3368.1,-199.961 3328,-201 3183.89,-204.733 3148.06,-210.779 3004,-216 2698.76,-227.063 2622.19,-221.716 2317,-234 2264.75,-236.103 2207.62,-239.023 2156.64,-241.849"/>
<polygon fill="black" stroke="black" points="2156.32,-238.362 2146.53,-242.413 2156.71,-245.351 2156.32,-238.362"/>
<text text-anchor="middle" x="3357" y="-204.8" font-family="Times,serif" font-size="14.00">connect</text>
</g>
<!-- 10.152.183.10:53#ServerID_OuterContainerID -->
<g id="node12" class="node"><title>10.152.183.10:53#ServerID_OuterContainerID</title>
<polygon fill="none" stroke="black" points="3325,-270 2997.56,-252 3325,-234 3652.44,-252 3325,-270"/>
<text text-anchor="middle" x="3325" y="-248.3" font-family="Times,serif" font-size="14.00">10.152.183.10:53#ServerID_OuterContainerID</text>
</g>
<!-- 11_node#ServerID_309ec2955ffa&#45;&gt;10.152.183.10:53#ServerID_OuterContainerID -->
<g id="edge13" class="edge"><title>11_node#ServerID_309ec2955ffa&#45;&gt;10.152.183.10:53#ServerID_OuterContainerID</title>
<path fill="none" stroke="black" d="M4888.69,-139.156C4861.31,-156.606 4815.69,-182.527 4772,-193 4709.49,-207.985 3679.03,-195.298 3615,-201 3539.83,-207.694 3454.87,-223.308 3396.43,-235.321"/>
<polygon fill="black" stroke="black" points="3395.64,-231.91 3386.56,-237.367 3397.06,-238.764 3395.64,-231.91"/>
<text text-anchor="middle" x="3639.5" y="-204.8" font-family="Times,serif" font-size="14.00">sendto</text>
</g>
<!-- /etc/resolv.conf#ServerID_309ec2955ffa -->
<g id="node11" class="node"><title>/etc/resolv.conf#ServerID_309ec2955ffa</title>
<ellipse fill="none" stroke="black" cx="4984" cy="-252" rx="200.365" ry="18"/>
<text text-anchor="middle" x="4984" y="-248.3" font-family="Times,serif" font-size="14.00">/etc/resolv.conf#ServerID_309ec2955ffa</text>
</g>
<!-- /etc/resolv.conf#ServerID_309ec2955ffa&#45;&gt;11_node#ServerID_309ec2955ffa -->
<g id="edge12" class="edge"><title>/etc/resolv.conf#ServerID_309ec2955ffa&#45;&gt;11_node#ServerID_309ec2955ffa</title>
<path fill="none" stroke="black" d="M4974.7,-233.87C4962.78,-211.895 4941.99,-173.573 4928.11,-147.994"/>
<polygon fill="black" stroke="black" points="4931.18,-146.321 4923.33,-139.201 4925.03,-149.66 4931.18,-146.321"/>
<text text-anchor="middle" x="4979.5" y="-204.8" font-family="Times,serif" font-size="14.00">read</text>
</g>
<!-- 10.152.183.10:53#ServerID_OuterContainerID&#45;&gt;11_node#ServerID_309ec2955ffa -->
<g id="edge14" class="edge"><title>10.152.183.10:53#ServerID_OuterContainerID&#45;&gt;11_node#ServerID_309ec2955ffa</title>
<path fill="none" stroke="black" d="M3350.51,-235.371C3371.72,-223.337 3403.16,-207.667 3433,-201 3505.6,-184.782 4699.65,-210.308 4772,-193 4811.55,-183.539 4852.67,-161.402 4880.43,-144.342"/>
<polygon fill="black" stroke="black" points="4882.33,-147.279 4888.95,-139.003 4878.61,-141.347 4882.33,-147.279"/>
<text text-anchor="middle" x="3466" y="-204.8" font-family="Times,serif" font-size="14.00">recvfrom</text>
</g>
<!-- localhost:3000#ServerID_04eca90de97f -->
<g id="node13" class="node"><title>localhost:3000#ServerID_04eca90de97f</title>
<polygon fill="none" stroke="black" points="3958,-270 3675.64,-252 3958,-234 4240.36,-252 3958,-270"/>
<text text-anchor="middle" x="3958" y="-248.3" font-family="Times,serif" font-size="14.00">localhost:3000#ServerID_04eca90de97f</text>
</g>
<!-- 13_node#ServerID_04eca90de97f -->
<g id="node14" class="node"><title>13_node#ServerID_04eca90de97f</title>
<polygon fill="none" stroke="black" points="4403,-139 4141,-139 4141,-103 4403,-103 4403,-139"/>
<text text-anchor="middle" x="4272" y="-117.3" font-family="Times,serif" font-size="14.00">13_node#ServerID_04eca90de97f</text>
</g>
<!-- localhost:3000#ServerID_04eca90de97f&#45;&gt;13_node#ServerID_04eca90de97f -->
<g id="edge15" class="edge"><title>localhost:3000#ServerID_04eca90de97f&#45;&gt;13_node#ServerID_04eca90de97f</title>
<path fill="none" stroke="black" d="M3994.02,-236.202C4049.79,-213.289 4157.25,-169.142 4220.99,-142.957"/>
<polygon fill="black" stroke="black" points="4222.53,-146.11 4230.45,-139.072 4219.87,-139.635 4222.53,-146.11"/>
<text text-anchor="middle" x="4094.5" y="-204.8" font-family="Times,serif" font-size="14.00">read</text>
</g>
<!-- localhost:3000#ServerID_04eca90de97f&#45;&gt;1_fwatchdog#ServerID_04eca90de97f -->
<g id="edge20" class="edge"><title>localhost:3000#ServerID_04eca90de97f&#45;&gt;1_fwatchdog#ServerID_04eca90de97f</title>
<path fill="none" stroke="black" d="M3950.85,-234.251C3946.63,-224.501 3941.13,-212.001 3936,-201 3927.78,-183.376 3918.1,-163.77 3910.45,-148.5"/>
<polygon fill="black" stroke="black" points="3913.36,-146.513 3905.74,-139.155 3907.11,-149.661 3913.36,-146.513"/>
<text text-anchor="middle" x="3959.5" y="-204.8" font-family="Times,serif" font-size="14.00">read</text>
</g>
<!-- 1_fwatchdog#ServerID_04eca90de97f&#45;&gt;localhost:3000#ServerID_04eca90de97f -->
<g id="edge16" class="edge"><title>1_fwatchdog#ServerID_04eca90de97f&#45;&gt;localhost:3000#ServerID_04eca90de97f</title>
<path fill="none" stroke="black" d="M3892.39,-139.284C3888.09,-159.222 3884.22,-192.297 3898,-216 3901.26,-221.61 3905.8,-226.408 3910.94,-230.488"/>
<polygon fill="black" stroke="black" points="3909.19,-233.531 3919.41,-236.32 3913.16,-227.766 3909.19,-233.531"/>
<text text-anchor="middle" x="3917" y="-204.8" font-family="Times,serif" font-size="14.00">write</text>
</g>
<!-- pipe:[445142]#ServerID_04eca90de97f -->
<g id="node17" class="node"><title>pipe:[445142]#ServerID_04eca90de97f</title>
<ellipse fill="none" stroke="black" cx="3897" cy="-34" rx="196.065" ry="18"/>
<text text-anchor="middle" x="3897" y="-30.3" font-family="Times,serif" font-size="14.00">pipe:[445142]#ServerID_04eca90de97f</text>
</g>
<!-- 1_fwatchdog#ServerID_04eca90de97f&#45;&gt;pipe:[445142]#ServerID_04eca90de97f -->
<g id="edge21" class="edge"><title>1_fwatchdog#ServerID_04eca90de97f&#45;&gt;pipe:[445142]#ServerID_04eca90de97f</title>
<path fill="none" stroke="black" d="M3897,-102.799C3897,-91.1626 3897,-75.5479 3897,-62.2368"/>
<polygon fill="black" stroke="black" points="3900.5,-62.1754 3897,-52.1754 3893.5,-62.1755 3900.5,-62.1754"/>
<text text-anchor="middle" x="3916" y="-73.8" font-family="Times,serif" font-size="14.00">write</text>
</g>
<!-- /home/app/credentials.txt#ServerID_04eca90de97f -->
<g id="node16" class="node"><title>/home/app/credentials.txt#ServerID_04eca90de97f</title>
<ellipse fill="none" stroke="black" cx="4509" cy="-252" rx="250.756" ry="18"/>
<text text-anchor="middle" x="4509" y="-248.3" font-family="Times,serif" font-size="14.00">/home/app/credentials.txt#ServerID_04eca90de97f</text>
</g>
<!-- /home/app/credentials.txt#ServerID_04eca90de97f&#45;&gt;13_node#ServerID_04eca90de97f -->
<g id="edge19" class="edge"><title>/home/app/credentials.txt#ServerID_04eca90de97f&#45;&gt;13_node#ServerID_04eca90de97f</title>
<path fill="none" stroke="black" d="M4478.02,-234.136C4435.55,-211.022 4359.21,-169.469 4312.33,-143.953"/>
<polygon fill="black" stroke="black" points="4313.83,-140.781 4303.37,-139.074 4310.48,-146.929 4313.83,-140.781"/>
<text text-anchor="middle" x="4455.5" y="-204.8" font-family="Times,serif" font-size="14.00">read</text>
</g>
<!-- 10.1.80.1:48966#ServerID_OuterContainerID&#45;&gt;10.1.80.44:8080#ServerID_OuterContainerID -->
<g id="edge23" class="edge"><title>10.1.80.1:48966#ServerID_OuterContainerID&#45;&gt;10.1.80.44:8080#ServerID_OuterContainerID</title>
<path fill="none" stroke="black" d="M1406.44,-138.165C1390.51,-152.704 1369.2,-175.631 1360,-201 1357.42,-208.112 1356.94,-216.165 1357.43,-223.698"/>
<polygon fill="black" stroke="black" points="1353.98,-224.338 1358.65,-233.848 1360.93,-223.501 1353.98,-224.338"/>
<text text-anchor="middle" x="1380" y="-204.8" font-family="Times,serif" font-size="14.00">POST</text>
</g>
</g>
</svg>
