<?xml version="1.0" encoding="UTF-8" standalone="no"?>
<!DOCTYPE svg PUBLIC "-//W3C//DTD SVG 1.1//EN"
 "http://www.w3.org/Graphics/SVG/1.1/DTD/svg11.dtd">
<!-- Generated by graphviz version 2.38.0 (20140413.2041)
 -->
<!-- Title: G Pages: 1 -->
<svg width="7734pt" height="750pt"
 viewBox="0.00 0.00 7734.00 750.00" xmlns="http://www.w3.org/2000/svg" xmlns:xlink="http://www.w3.org/1999/xlink">
<g id="graph0" class="graph" transform="scale(1 1) rotate(0) translate(4 746)">
<title>G</title>
<polygon fill="white" stroke="none" points="-4,4 -4,-746 7730,-746 7730,4 -4,4"/>
<g id="clust1" class="cluster"><title>clusterServerID_5f846fd567&#45;wptbp</title>
<polygon fill="none" stroke="black" points="2126,-551 2126,-626 2466,-626 2466,-551 2126,-551"/>
<text text-anchor="middle" x="2296" y="-610.8" font-family="Times,serif" font-size="14.00">clusterServerID_5f846fd567&#45;wptbp</text>
</g>
<g id="clust2" class="cluster"><title>clusterServerID_62fde1e95276</title>
<polygon fill="none" stroke="black" points="4624,-443 4624,-734 5732,-734 5732,-443 4624,-443"/>
<text text-anchor="middle" x="5178" y="-718.8" font-family="Times,serif" font-size="14.00">clusterServerID_62fde1e95276</text>
</g>
<g id="clust3" class="cluster"><title>clusterServerID_6df85d7674&#45;kxx8d</title>
<polygon fill="none" stroke="black" points="806,-551 806,-626 1148,-626 1148,-551 806,-551"/>
<text text-anchor="middle" x="977" y="-610.8" font-family="Times,serif" font-size="14.00">clusterServerID_6df85d7674&#45;kxx8d</text>
</g>
<g id="clust4" class="cluster"><title>clusterServerID_OuterContainerID</title>
<polygon fill="none" stroke="black" points="8,-356 8,-518 4616,-518 4616,-356 8,-356"/>
<text text-anchor="middle" x="2312" y="-502.8" font-family="Times,serif" font-size="14.00">clusterServerID_OuterContainerID</text>
</g>
<g id="clust5" class="cluster"><title>clusterServerID_c8cd456c8f13</title>
<polygon fill="none" stroke="black" points="2953,-551 2953,-626 3263,-626 3263,-551 2953,-551"/>
<text text-anchor="middle" x="3108" y="-610.8" font-family="Times,serif" font-size="14.00">clusterServerID_c8cd456c8f13</text>
</g>
<g id="clust6" class="cluster"><title>clusterServerID_d4490627de97</title>
<polygon fill="none" stroke="black" points="5740,-8 5740,-518 7718,-518 7718,-8 5740,-8"/>
<text text-anchor="middle" x="6729" y="-502.8" font-family="Times,serif" font-size="14.00">clusterServerID_d4490627de97</text>
</g>
<!-- 1_fwatchdog#ServerID_6df85d7674&#45;kxx8d -->
<g id="node1" class="node"><title>1_fwatchdog#ServerID_6df85d7674&#45;kxx8d</title>
<polygon fill="none" stroke="black" points="1140,-595 814,-595 814,-559 1140,-559 1140,-595"/>
<text text-anchor="middle" x="977" y="-573.3" font-family="Times,serif" font-size="14.00">1_fwatchdog#ServerID_6df85d7674&#45;kxx8d</text>
</g>
<!-- 10.1.80.93:8080#ServerID_OuterContainerID -->
<g id="node2" class="node"><title>10.1.80.93:8080#ServerID_OuterContainerID</title>
<polygon fill="none" stroke="black" points="335,-487 16.1049,-469 335,-451 653.895,-469 335,-487"/>
<text text-anchor="middle" x="335" y="-465.3" font-family="Times,serif" font-size="14.00">10.1.80.93:8080#ServerID_OuterContainerID</text>
</g>
<!-- 1_fwatchdog#ServerID_6df85d7674&#45;kxx8d&#45;&gt;10.1.80.93:8080#ServerID_OuterContainerID -->
<g id="edge1" class="edge"><title>1_fwatchdog#ServerID_6df85d7674&#45;kxx8d&#45;&gt;10.1.80.93:8080#ServerID_OuterContainerID</title>
<path fill="none" stroke="black" d="M813.809,-563.578C757.286,-558.131 693.658,-550.717 636,-541 551.869,-526.821 456.209,-502.889 395.747,-486.774"/>
<polygon fill="black" stroke="black" points="396.55,-483.366 385.985,-484.159 394.738,-490.127 396.55,-483.366"/>
<text text-anchor="middle" x="656" y="-529.8" font-family="Times,serif" font-size="14.00">POST</text>
</g>
<!-- 10.1.80.93:40982#ServerID_OuterContainerID -->
<g id="node3" class="node"><title>10.1.80.93:40982#ServerID_OuterContainerID</title>
<polygon fill="none" stroke="black" points="1625,-487 1297.56,-469 1625,-451 1952.44,-469 1625,-487"/>
<text text-anchor="middle" x="1625" y="-465.3" font-family="Times,serif" font-size="14.00">10.1.80.93:40982#ServerID_OuterContainerID</text>
</g>
<!-- 1_fwatchdog#ServerID_6df85d7674&#45;kxx8d&#45;&gt;10.1.80.93:40982#ServerID_OuterContainerID -->
<g id="edge4" class="edge"><title>1_fwatchdog#ServerID_6df85d7674&#45;kxx8d&#45;&gt;10.1.80.93:40982#ServerID_OuterContainerID</title>
<path fill="none" stroke="black" d="M1081.11,-558.969C1207.48,-538.299 1418.33,-503.807 1536.97,-484.401"/>
<polygon fill="black" stroke="black" points="1537.8,-487.811 1547.1,-482.743 1536.67,-480.903 1537.8,-487.811"/>
<text text-anchor="middle" x="1324" y="-529.8" font-family="Times,serif" font-size="14.00">RESPONSE</text>
</g>
<!-- gateway:8080#ServerID_OuterContainerID -->
<g id="node6" class="node"><title>gateway:8080#ServerID_OuterContainerID</title>
<polygon fill="none" stroke="black" points="976,-487 671.518,-469 976,-451 1280.48,-469 976,-487"/>
<text text-anchor="middle" x="976" y="-465.3" font-family="Times,serif" font-size="14.00">gateway:8080#ServerID_OuterContainerID</text>
</g>
<!-- 1_fwatchdog#ServerID_6df85d7674&#45;kxx8d&#45;&gt;gateway:8080#ServerID_OuterContainerID -->
<g id="edge7" class="edge"><title>1_fwatchdog#ServerID_6df85d7674&#45;kxx8d&#45;&gt;gateway:8080#ServerID_OuterContainerID</title>
<path fill="none" stroke="black" d="M996.581,-558.831C1001.21,-553.619 1005.52,-547.527 1008,-541 1010.36,-534.766 1009.71,-532.443 1008,-526 1005.15,-515.286 999.724,-504.483 994.134,-495.263"/>
<polygon fill="black" stroke="black" points="996.935,-493.148 988.58,-486.633 991.048,-496.936 996.935,-493.148"/>
<text text-anchor="middle" x="1030" y="-529.8" font-family="Times,serif" font-size="14.00">POST</text>
</g>
<!-- 10.1.80.93:8080#ServerID_OuterContainerID&#45;&gt;1_fwatchdog#ServerID_6df85d7674&#45;kxx8d -->
<g id="edge3" class="edge"><title>10.1.80.93:8080#ServerID_OuterContainerID&#45;&gt;1_fwatchdog#ServerID_6df85d7674&#45;kxx8d</title>
<path fill="none" stroke="black" d="M412.541,-482.692C481.661,-494.016 585.584,-511.066 676,-526 738.37,-536.302 807.999,-547.864 864.566,-557.273"/>
<polygon fill="black" stroke="black" points="864.171,-560.755 874.61,-558.944 865.32,-553.85 864.171,-560.755"/>
<text text-anchor="middle" x="801" y="-529.8" font-family="Times,serif" font-size="14.00">RESPONSE</text>
</g>
<!-- 10.1.80.1:5023#ServerID_OuterContainerID -->
<g id="node29" class="node"><title>10.1.80.1:5023#ServerID_OuterContainerID</title>
<polygon fill="none" stroke="black" points="1015,-400 704.15,-382 1015,-364 1325.85,-382 1015,-400"/>
<text text-anchor="middle" x="1015" y="-378.3" font-family="Times,serif" font-size="14.00">10.1.80.1:5023#ServerID_OuterContainerID</text>
</g>
<!-- 10.1.80.93:8080#ServerID_OuterContainerID&#45;&gt;10.1.80.1:5023#ServerID_OuterContainerID -->
<g id="edge40" class="edge"><title>10.1.80.93:8080#ServerID_OuterContainerID&#45;&gt;10.1.80.1:5023#ServerID_OuterContainerID</title>
<path fill="none" stroke="black" d="M388.004,-453.918C433.141,-442.47 499.885,-426.82 559,-418 649.65,-404.475 751.263,-396.031 835.522,-390.836"/>
<polygon fill="black" stroke="black" points="835.94,-394.317 845.71,-390.218 835.516,-387.33 835.94,-394.317"/>
<text text-anchor="middle" x="601" y="-421.8" font-family="Times,serif" font-size="14.00">RESPONSE</text>
</g>
<!-- 10.0.88.125:31112#ServerID_OuterContainerID -->
<g id="node30" class="node"><title>10.0.88.125:31112#ServerID_OuterContainerID</title>
<polygon fill="none" stroke="black" points="351,-400 15.5152,-382 351,-364 686.485,-382 351,-400"/>
<text text-anchor="middle" x="351" y="-378.3" font-family="Times,serif" font-size="14.00">10.0.88.125:31112#ServerID_OuterContainerID</text>
</g>
<!-- 10.1.80.93:8080#ServerID_OuterContainerID&#45;&gt;10.0.88.125:31112#ServerID_OuterContainerID -->
<g id="edge41" class="edge"><title>10.1.80.93:8080#ServerID_OuterContainerID&#45;&gt;10.0.88.125:31112#ServerID_OuterContainerID</title>
<path fill="none" stroke="black" d="M338.238,-450.799C340.443,-439.086 343.406,-423.342 345.922,-409.974"/>
<polygon fill="black" stroke="black" points="349.411,-410.36 347.822,-399.885 342.532,-409.065 349.411,-410.36"/>
<text text-anchor="middle" x="386" y="-421.8" font-family="Times,serif" font-size="14.00">RESPONSE</text>
</g>
<!-- 10.1.80.93:40982#ServerID_OuterContainerID&#45;&gt;1_fwatchdog#ServerID_6df85d7674&#45;kxx8d -->
<g id="edge2" class="edge"><title>10.1.80.93:40982#ServerID_OuterContainerID&#45;&gt;1_fwatchdog#ServerID_6df85d7674&#45;kxx8d</title>
<path fill="none" stroke="black" d="M1583.29,-484.869C1535.19,-501.373 1453.42,-527.462 1381,-541 1305.98,-555.022 1222.06,-563.445 1150.22,-568.496"/>
<polygon fill="black" stroke="black" points="1149.9,-565.01 1140.17,-569.187 1150.38,-571.993 1149.9,-565.01"/>
<text text-anchor="middle" x="1463" y="-529.8" font-family="Times,serif" font-size="14.00">POST</text>
</g>
<!-- 1_fwatchdog#ServerID_62fde1e95276 -->
<g id="node7" class="node"><title>1_fwatchdog#ServerID_62fde1e95276</title>
<polygon fill="none" stroke="black" points="5723.5,-703 5428.5,-703 5428.5,-667 5723.5,-667 5723.5,-703"/>
<text text-anchor="middle" x="5576" y="-681.3" font-family="Times,serif" font-size="14.00">1_fwatchdog#ServerID_62fde1e95276</text>
</g>
<!-- 10.1.80.93:40982#ServerID_OuterContainerID&#45;&gt;1_fwatchdog#ServerID_62fde1e95276 -->
<g id="edge12" class="edge"><title>10.1.80.93:40982#ServerID_OuterContainerID&#45;&gt;1_fwatchdog#ServerID_62fde1e95276</title>
<path fill="none" stroke="black" d="M1658.4,-485.291C1733.43,-518.723 1921.85,-597.596 2089,-626 2450.68,-687.461 5005.44,-645.511 5417.93,-667.019"/>
<polygon fill="black" stroke="black" points="5417.94,-670.524 5428.12,-667.589 5418.33,-663.535 5417.94,-670.524"/>
<text text-anchor="middle" x="2105.5" y="-573.3" font-family="Times,serif" font-size="14.00">read</text>
</g>
<!-- 1_fwatchdog#ServerID_5f846fd567&#45;wptbp -->
<g id="node4" class="node"><title>1_fwatchdog#ServerID_5f846fd567&#45;wptbp</title>
<polygon fill="none" stroke="black" points="2458,-595 2134,-595 2134,-559 2458,-559 2458,-595"/>
<text text-anchor="middle" x="2296" y="-573.3" font-family="Times,serif" font-size="14.00">1_fwatchdog#ServerID_5f846fd567&#45;wptbp</text>
</g>
<!-- 10.1.80.93:54628#ServerID_OuterContainerID -->
<g id="node5" class="node"><title>10.1.80.93:54628#ServerID_OuterContainerID</title>
<polygon fill="none" stroke="black" points="2297,-487 1969.56,-469 2297,-451 2624.44,-469 2297,-487"/>
<text text-anchor="middle" x="2297" y="-465.3" font-family="Times,serif" font-size="14.00">10.1.80.93:54628#ServerID_OuterContainerID</text>
</g>
<!-- 1_fwatchdog#ServerID_5f846fd567&#45;wptbp&#45;&gt;10.1.80.93:54628#ServerID_OuterContainerID -->
<g id="edge5" class="edge"><title>1_fwatchdog#ServerID_5f846fd567&#45;wptbp&#45;&gt;10.1.80.93:54628#ServerID_OuterContainerID</title>
<path fill="none" stroke="black" d="M2301.96,-558.759C2303.61,-553.165 2305.18,-546.883 2306,-541 2308.04,-526.436 2306.27,-510.162 2303.78,-496.873"/>
<polygon fill="black" stroke="black" points="2307.17,-496.006 2301.68,-486.944 2300.32,-497.452 2307.17,-496.006"/>
<text text-anchor="middle" x="2349" y="-529.8" font-family="Times,serif" font-size="14.00">RESPONSE</text>
</g>
<!-- 10.1.80.93:54628#ServerID_OuterContainerID&#45;&gt;1_fwatchdog#ServerID_5f846fd567&#45;wptbp -->
<g id="edge6" class="edge"><title>10.1.80.93:54628#ServerID_OuterContainerID&#45;&gt;1_fwatchdog#ServerID_5f846fd567&#45;wptbp</title>
<path fill="none" stroke="black" d="M2283.26,-486.449C2275.35,-497.019 2266.17,-511.453 2262,-526 2260.16,-532.408 2259.49,-534.822 2262,-541 2263.42,-544.503 2265.38,-547.848 2267.65,-550.984"/>
<polygon fill="black" stroke="black" points="2265.08,-553.372 2274.2,-558.762 2270.43,-548.86 2265.08,-553.372"/>
<text text-anchor="middle" x="2282" y="-529.8" font-family="Times,serif" font-size="14.00">POST</text>
</g>
<!-- 1_fwatchdog#ServerID_d4490627de97 -->
<g id="node18" class="node"><title>1_fwatchdog#ServerID_d4490627de97</title>
<polygon fill="none" stroke="black" points="6109.5,-400 5810.5,-400 5810.5,-364 6109.5,-364 6109.5,-400"/>
<text text-anchor="middle" x="5960" y="-378.3" font-family="Times,serif" font-size="14.00">1_fwatchdog#ServerID_d4490627de97</text>
</g>
<!-- 10.1.80.93:54628#ServerID_OuterContainerID&#45;&gt;1_fwatchdog#ServerID_d4490627de97 -->
<g id="edge24" class="edge"><title>10.1.80.93:54628#ServerID_OuterContainerID&#45;&gt;1_fwatchdog#ServerID_d4490627de97</title>
<path fill="none" stroke="black" d="M2415.86,-457.519C2480.1,-452.268 2560.84,-446.333 2633,-443 2950.41,-428.341 5179.5,-394.564 5800.02,-385.355"/>
<polygon fill="black" stroke="black" points="5800.43,-388.85 5810.38,-385.202 5800.33,-381.85 5800.43,-388.85"/>
<text text-anchor="middle" x="3706.5" y="-421.8" font-family="Times,serif" font-size="14.00">read</text>
</g>
<!-- gateway:8080#ServerID_OuterContainerID&#45;&gt;1_fwatchdog#ServerID_6df85d7674&#45;kxx8d -->
<g id="edge8" class="edge"><title>gateway:8080#ServerID_OuterContainerID&#45;&gt;1_fwatchdog#ServerID_6df85d7674&#45;kxx8d</title>
<path fill="none" stroke="black" d="M949.625,-485.594C929.989,-499.327 908.426,-520.312 920,-541 922.39,-545.272 925.539,-549.087 929.131,-552.478"/>
<polygon fill="black" stroke="black" points="927.049,-555.295 937.028,-558.856 931.448,-549.85 927.049,-555.295"/>
<text text-anchor="middle" x="962" y="-529.8" font-family="Times,serif" font-size="14.00">RESPONSE</text>
</g>
<!-- localhost:3000#ServerID_62fde1e95276 -->
<g id="node8" class="node"><title>localhost:3000#ServerID_62fde1e95276</title>
<polygon fill="none" stroke="black" points="5441,-595 5157.8,-577 5441,-559 5724.2,-577 5441,-595"/>
<text text-anchor="middle" x="5441" y="-573.3" font-family="Times,serif" font-size="14.00">localhost:3000#ServerID_62fde1e95276</text>
</g>
<!-- 1_fwatchdog#ServerID_62fde1e95276&#45;&gt;localhost:3000#ServerID_62fde1e95276 -->
<g id="edge9" class="edge"><title>1_fwatchdog#ServerID_62fde1e95276&#45;&gt;localhost:3000#ServerID_62fde1e95276</title>
<path fill="none" stroke="black" d="M5527.53,-666.982C5516.91,-662.07 5506.12,-656.082 5497,-649 5480.77,-636.406 5466.5,-618.138 5456.43,-603.286"/>
<polygon fill="black" stroke="black" points="5459.13,-601.013 5450.72,-594.562 5453.27,-604.846 5459.13,-601.013"/>
<text text-anchor="middle" x="5526" y="-637.8" font-family="Times,serif" font-size="14.00">connect</text>
</g>
<!-- 1_fwatchdog#ServerID_62fde1e95276&#45;&gt;localhost:3000#ServerID_62fde1e95276 -->
<g id="edge10" class="edge"><title>1_fwatchdog#ServerID_62fde1e95276&#45;&gt;localhost:3000#ServerID_62fde1e95276</title>
<path fill="none" stroke="black" d="M5571.99,-666.537C5568.84,-656.054 5563.52,-643.043 5555,-634 5539.13,-617.164 5517.12,-604.721 5496.66,-595.899"/>
<polygon fill="black" stroke="black" points="5497.98,-592.657 5487.4,-592.097 5495.32,-599.133 5497.98,-592.657"/>
<text text-anchor="middle" x="5584" y="-637.8" font-family="Times,serif" font-size="14.00">write</text>
</g>
<!-- localhost:3000#ServerID_62fde1e95276&#45;&gt;1_fwatchdog#ServerID_62fde1e95276 -->
<g id="edge11" class="edge"><title>localhost:3000#ServerID_62fde1e95276&#45;&gt;1_fwatchdog#ServerID_62fde1e95276</title>
<path fill="none" stroke="black" d="M5437.13,-594.924C5434.58,-610.714 5433.67,-634.026 5446,-649 5450.66,-654.662 5460.86,-659.651 5473.58,-663.957"/>
<polygon fill="black" stroke="black" points="5472.67,-667.338 5483.26,-666.972 5474.75,-660.655 5472.67,-667.338"/>
<text text-anchor="middle" x="5462.5" y="-637.8" font-family="Times,serif" font-size="14.00">read</text>
</g>
<!-- 15_node#ServerID_62fde1e95276 -->
<g id="node9" class="node"><title>15_node#ServerID_62fde1e95276</title>
<polygon fill="none" stroke="black" points="4913.5,-595 4650.5,-595 4650.5,-559 4913.5,-559 4913.5,-595"/>
<text text-anchor="middle" x="4782" y="-573.3" font-family="Times,serif" font-size="14.00">15_node#ServerID_62fde1e95276</text>
</g>
<!-- 15_node#ServerID_62fde1e95276&#45;&gt;gateway:8080#ServerID_OuterContainerID -->
<g id="edge22" class="edge"><title>15_node#ServerID_62fde1e95276&#45;&gt;gateway:8080#ServerID_OuterContainerID</title>
<path fill="none" stroke="black" d="M4650.43,-569.526C4413.06,-558.178 3897.35,-535.044 3462,-526 3341.3,-523.493 1409.36,-527.398 1289,-518 1207.71,-511.653 1115.55,-496.549 1052.4,-484.965"/>
<polygon fill="black" stroke="black" points="1052.99,-481.515 1042.52,-483.138 1051.72,-488.398 1052.99,-481.515"/>
<text text-anchor="middle" x="4000" y="-529.8" font-family="Times,serif" font-size="14.00">connect</text>
</g>
<!-- pipe:[18737782]#ServerID_62fde1e95276 -->
<g id="node10" class="node"><title>pipe:[18737782]#ServerID_62fde1e95276</title>
<ellipse fill="none" stroke="black" cx="4841" cy="-469" rx="208.763" ry="18"/>
<text text-anchor="middle" x="4841" y="-465.3" font-family="Times,serif" font-size="14.00">pipe:[18737782]#ServerID_62fde1e95276</text>
</g>
<!-- 15_node#ServerID_62fde1e95276&#45;&gt;pipe:[18737782]#ServerID_62fde1e95276 -->
<g id="edge13" class="edge"><title>15_node#ServerID_62fde1e95276&#45;&gt;pipe:[18737782]#ServerID_62fde1e95276</title>
<path fill="none" stroke="black" d="M4791.48,-558.969C4800.98,-541.893 4815.74,-515.384 4826.67,-495.74"/>
<polygon fill="black" stroke="black" points="4829.74,-497.428 4831.54,-486.988 4823.62,-494.024 4829.74,-497.428"/>
<text text-anchor="middle" x="4829" y="-529.8" font-family="Times,serif" font-size="14.00">write</text>
</g>
<!-- 10.152.183.10:53#ServerID_OuterContainerID -->
<g id="node13" class="node"><title>10.152.183.10:53#ServerID_OuterContainerID</title>
<polygon fill="none" stroke="black" points="4281,-487 3953.56,-469 4281,-451 4608.44,-469 4281,-487"/>
<text text-anchor="middle" x="4281" y="-465.3" font-family="Times,serif" font-size="14.00">10.152.183.10:53#ServerID_OuterContainerID</text>
</g>
<!-- 15_node#ServerID_62fde1e95276&#45;&gt;10.152.183.10:53#ServerID_OuterContainerID -->
<g id="edge16" class="edge"><title>15_node#ServerID_62fde1e95276&#45;&gt;10.152.183.10:53#ServerID_OuterContainerID</title>
<path fill="none" stroke="black" d="M4701.51,-558.969C4605.83,-538.726 4447.51,-505.229 4354.85,-485.624"/>
<polygon fill="black" stroke="black" points="4355.49,-482.184 4344.99,-483.538 4354.05,-489.032 4355.49,-482.184"/>
<text text-anchor="middle" x="4630.5" y="-529.8" font-family="Times,serif" font-size="14.00">sendto</text>
</g>
<!-- /etc/hosts#ServerID_62fde1e95276 -->
<g id="node11" class="node"><title>/etc/hosts#ServerID_62fde1e95276</title>
<ellipse fill="none" stroke="black" cx="5233" cy="-685" rx="177.369" ry="18"/>
<text text-anchor="middle" x="5233" y="-681.3" font-family="Times,serif" font-size="14.00">/etc/hosts#ServerID_62fde1e95276</text>
</g>
<!-- /etc/hosts#ServerID_62fde1e95276&#45;&gt;15_node#ServerID_62fde1e95276 -->
<g id="edge14" class="edge"><title>/etc/hosts#ServerID_62fde1e95276&#45;&gt;15_node#ServerID_62fde1e95276</title>
<path fill="none" stroke="black" d="M5165.97,-668.245C5085.63,-649.364 4951.05,-617.732 4864.43,-597.374"/>
<polygon fill="black" stroke="black" points="4865.17,-593.953 4854.64,-595.072 4863.57,-600.767 4865.17,-593.953"/>
<text text-anchor="middle" x="5091.5" y="-637.8" font-family="Times,serif" font-size="14.00">read</text>
</g>
<!-- /etc/resolv.conf#ServerID_62fde1e95276 -->
<g id="node12" class="node"><title>/etc/resolv.conf#ServerID_62fde1e95276</title>
<ellipse fill="none" stroke="black" cx="4835" cy="-685" rx="202.564" ry="18"/>
<text text-anchor="middle" x="4835" y="-681.3" font-family="Times,serif" font-size="14.00">/etc/resolv.conf#ServerID_62fde1e95276</text>
</g>
<!-- /etc/resolv.conf#ServerID_62fde1e95276&#45;&gt;15_node#ServerID_62fde1e95276 -->
<g id="edge15" class="edge"><title>/etc/resolv.conf#ServerID_62fde1e95276&#45;&gt;15_node#ServerID_62fde1e95276</title>
<path fill="none" stroke="black" d="M4826.48,-666.969C4818.04,-650.071 4804.97,-623.935 4795.18,-604.356"/>
<polygon fill="black" stroke="black" points="4798.27,-602.72 4790.67,-595.341 4792.01,-605.85 4798.27,-602.72"/>
<text text-anchor="middle" x="4833.5" y="-637.8" font-family="Times,serif" font-size="14.00">read</text>
</g>
<!-- 10.152.183.10:53#ServerID_OuterContainerID&#45;&gt;15_node#ServerID_62fde1e95276 -->
<g id="edge17" class="edge"><title>10.152.183.10:53#ServerID_OuterContainerID&#45;&gt;15_node#ServerID_62fde1e95276</title>
<path fill="none" stroke="black" d="M4315.31,-485.207C4353.86,-501.634 4418.69,-527.292 4477,-541 4529.53,-553.35 4588.22,-561.406 4639.98,-566.633"/>
<polygon fill="black" stroke="black" points="4639.94,-570.145 4650.23,-567.641 4640.62,-563.179 4639.94,-570.145"/>
<text text-anchor="middle" x="4510" y="-529.8" font-family="Times,serif" font-size="14.00">recvfrom</text>
</g>
<!-- 10.1.80.1:55624#ServerID_OuterContainerID -->
<g id="node14" class="node"><title>10.1.80.1:55624#ServerID_OuterContainerID</title>
<polygon fill="none" stroke="black" points="3617,-487 3298.1,-469 3617,-451 3935.9,-469 3617,-487"/>
<text text-anchor="middle" x="3617" y="-465.3" font-family="Times,serif" font-size="14.00">10.1.80.1:55624#ServerID_OuterContainerID</text>
</g>
<!-- 1_fwatchdog#ServerID_c8cd456c8f13 -->
<g id="node15" class="node"><title>1_fwatchdog#ServerID_c8cd456c8f13</title>
<polygon fill="none" stroke="black" points="3255,-595 2961,-595 2961,-559 3255,-559 3255,-595"/>
<text text-anchor="middle" x="3108" y="-573.3" font-family="Times,serif" font-size="14.00">1_fwatchdog#ServerID_c8cd456c8f13</text>
</g>
<!-- 10.1.80.1:55624#ServerID_OuterContainerID&#45;&gt;1_fwatchdog#ServerID_c8cd456c8f13 -->
<g id="edge18" class="edge"><title>10.1.80.1:55624#ServerID_OuterContainerID&#45;&gt;1_fwatchdog#ServerID_c8cd456c8f13</title>
<path fill="none" stroke="black" d="M3543.84,-482.925C3483.82,-493.747 3396.72,-509.957 3321,-526 3276.64,-535.399 3227.33,-546.905 3187.34,-556.509"/>
<polygon fill="black" stroke="black" points="3186.28,-553.163 3177.38,-558.908 3187.92,-559.969 3186.28,-553.163"/>
<text text-anchor="middle" x="3337.5" y="-529.8" font-family="Times,serif" font-size="14.00">read</text>
</g>
<!-- 1_fwatchdog#ServerID_c8cd456c8f13&#45;&gt;10.1.80.1:55624#ServerID_OuterContainerID -->
<g id="edge19" class="edge"><title>1_fwatchdog#ServerID_c8cd456c8f13&#45;&gt;10.1.80.1:55624#ServerID_OuterContainerID</title>
<path fill="none" stroke="black" d="M3249.01,-558.96C3283.49,-553.962 3320.19,-547.941 3354,-541 3426.03,-526.211 3507.58,-503.197 3560.51,-487.403"/>
<polygon fill="black" stroke="black" points="3561.81,-490.669 3570.38,-484.444 3559.8,-483.964 3561.81,-490.669"/>
<text text-anchor="middle" x="3439" y="-529.8" font-family="Times,serif" font-size="14.00">write</text>
</g>
<!-- 10.1.80.1:55622#ServerID_OuterContainerID -->
<g id="node16" class="node"><title>10.1.80.1:55622#ServerID_OuterContainerID</title>
<polygon fill="none" stroke="black" points="2961,-487 2642.1,-469 2961,-451 3279.9,-469 2961,-487"/>
<text text-anchor="middle" x="2961" y="-465.3" font-family="Times,serif" font-size="14.00">10.1.80.1:55622#ServerID_OuterContainerID</text>
</g>
<!-- 1_fwatchdog#ServerID_c8cd456c8f13&#45;&gt;10.1.80.1:55622#ServerID_OuterContainerID -->
<g id="edge20" class="edge"><title>1_fwatchdog#ServerID_c8cd456c8f13&#45;&gt;10.1.80.1:55622#ServerID_OuterContainerID</title>
<path fill="none" stroke="black" d="M3084.38,-558.969C3059.08,-540.725 3018.85,-511.713 2991.25,-491.81"/>
<polygon fill="black" stroke="black" points="2993.28,-488.958 2983.12,-485.948 2989.18,-494.636 2993.28,-488.958"/>
<text text-anchor="middle" x="3076" y="-529.8" font-family="Times,serif" font-size="14.00">write</text>
</g>
<!-- 10.1.80.1:55622#ServerID_OuterContainerID&#45;&gt;1_fwatchdog#ServerID_c8cd456c8f13 -->
<g id="edge21" class="edge"><title>10.1.80.1:55622#ServerID_OuterContainerID&#45;&gt;1_fwatchdog#ServerID_c8cd456c8f13</title>
<path fill="none" stroke="black" d="M2966.64,-486.703C2972.88,-502.787 2984.44,-526.716 3002,-541 3008.54,-546.319 3015.91,-550.84 3023.65,-554.682"/>
<polygon fill="black" stroke="black" points="3022.32,-557.924 3032.87,-558.887 3025.23,-551.555 3022.32,-557.924"/>
<text text-anchor="middle" x="3018.5" y="-529.8" font-family="Times,serif" font-size="14.00">read</text>
</g>
<!-- localhost:3000#ServerID_d4490627de97 -->
<g id="node17" class="node"><title>localhost:3000#ServerID_d4490627de97</title>
<polygon fill="none" stroke="black" points="6067,-487 5779.11,-469 6067,-451 6354.89,-469 6067,-487"/>
<text text-anchor="middle" x="6067" y="-465.3" font-family="Times,serif" font-size="14.00">localhost:3000#ServerID_d4490627de97</text>
</g>
<!-- localhost:3000#ServerID_d4490627de97&#45;&gt;1_fwatchdog#ServerID_d4490627de97 -->
<g id="edge23" class="edge"><title>localhost:3000#ServerID_d4490627de97&#45;&gt;1_fwatchdog#ServerID_d4490627de97</title>
<path fill="none" stroke="black" d="M5988.37,-455.859C5963.51,-450.306 5940.53,-442.753 5933,-433 5927.12,-425.387 5929.64,-416.321 5935,-408.012"/>
<polygon fill="black" stroke="black" points="5937.81,-410.103 5941.12,-400.038 5932.26,-405.844 5937.81,-410.103"/>
<text text-anchor="middle" x="5949.5" y="-421.8" font-family="Times,serif" font-size="14.00">read</text>
</g>
<!-- 10_node#ServerID_d4490627de97 -->
<g id="node19" class="node"><title>10_node#ServerID_d4490627de97</title>
<polygon fill="none" stroke="black" points="6843,-400 6575,-400 6575,-364 6843,-364 6843,-400"/>
<text text-anchor="middle" x="6709" y="-378.3" font-family="Times,serif" font-size="14.00">10_node#ServerID_d4490627de97</text>
</g>
<!-- localhost:3000#ServerID_d4490627de97&#45;&gt;10_node#ServerID_d4490627de97 -->
<g id="edge27" class="edge"><title>localhost:3000#ServerID_d4490627de97&#45;&gt;10_node#ServerID_d4490627de97</title>
<path fill="none" stroke="black" d="M6154.25,-456.448C6261.23,-442.284 6443.88,-418.102 6570.21,-401.375"/>
<polygon fill="black" stroke="black" points="6570.9,-404.815 6580.35,-400.033 6569.98,-397.876 6570.9,-404.815"/>
<text text-anchor="middle" x="6442.5" y="-421.8" font-family="Times,serif" font-size="14.00">read</text>
</g>
<!-- 1_fwatchdog#ServerID_d4490627de97&#45;&gt;localhost:3000#ServerID_d4490627de97 -->
<g id="edge25" class="edge"><title>1_fwatchdog#ServerID_d4490627de97&#45;&gt;localhost:3000#ServerID_d4490627de97</title>
<path fill="none" stroke="black" d="M5966.68,-400.11C5971.53,-410.72 5979.01,-423.998 5989,-433 5996.12,-439.416 6004.61,-444.822 6013.33,-449.32"/>
<polygon fill="black" stroke="black" points="6011.91,-452.523 6022.44,-453.682 6014.93,-446.209 6011.91,-452.523"/>
<text text-anchor="middle" x="6018" y="-421.8" font-family="Times,serif" font-size="14.00">connect</text>
</g>
<!-- 1_fwatchdog#ServerID_d4490627de97&#45;&gt;localhost:3000#ServerID_d4490627de97 -->
<g id="edge26" class="edge"><title>1_fwatchdog#ServerID_d4490627de97&#45;&gt;localhost:3000#ServerID_d4490627de97</title>
<path fill="none" stroke="black" d="M6020.99,-400.086C6030.52,-404.75 6039.64,-410.625 6047,-418 6053.29,-424.304 6057.67,-432.84 6060.69,-441.075"/>
<polygon fill="black" stroke="black" points="6057.4,-442.3 6063.73,-450.798 6064.09,-440.209 6057.4,-442.3"/>
<text text-anchor="middle" x="6076" y="-421.8" font-family="Times,serif" font-size="14.00">write</text>
</g>
<!-- pipe:[18738434]#ServerID_d4490627de97 -->
<g id="node28" class="node"><title>pipe:[18738434]#ServerID_d4490627de97</title>
<ellipse fill="none" stroke="black" cx="5960" cy="-295" rx="211.762" ry="18"/>
<text text-anchor="middle" x="5960" y="-291.3" font-family="Times,serif" font-size="14.00">pipe:[18738434]#ServerID_d4490627de97</text>
</g>
<!-- 1_fwatchdog#ServerID_d4490627de97&#45;&gt;pipe:[18738434]#ServerID_d4490627de97 -->
<g id="edge38" class="edge"><title>1_fwatchdog#ServerID_d4490627de97&#45;&gt;pipe:[18738434]#ServerID_d4490627de97</title>
<path fill="none" stroke="black" d="M5960,-363.799C5960,-352.163 5960,-336.548 5960,-323.237"/>
<polygon fill="black" stroke="black" points="5963.5,-323.175 5960,-313.175 5956.5,-323.175 5963.5,-323.175"/>
<text text-anchor="middle" x="5979" y="-334.8" font-family="Times,serif" font-size="14.00">write</text>
</g>
<!-- pipe:[18738585]#ServerID_d4490627de97 -->
<g id="node20" class="node"><title>pipe:[18738585]#ServerID_d4490627de97</title>
<ellipse fill="none" stroke="black" cx="7212" cy="-295" rx="211.762" ry="18"/>
<text text-anchor="middle" x="7212" y="-291.3" font-family="Times,serif" font-size="14.00">pipe:[18738585]#ServerID_d4490627de97</text>
</g>
<!-- 10_node#ServerID_d4490627de97&#45;&gt;pipe:[18738585]#ServerID_d4490627de97 -->
<g id="edge28" class="edge"><title>10_node#ServerID_d4490627de97&#45;&gt;pipe:[18738585]#ServerID_d4490627de97</title>
<path fill="none" stroke="black" d="M6809.88,-363.952C6897.56,-349.136 7023.9,-327.786 7111.47,-312.988"/>
<polygon fill="black" stroke="black" points="7112.14,-316.424 7121.42,-311.307 7110.98,-309.522 7112.14,-316.424"/>
<text text-anchor="middle" x="7009" y="-334.8" font-family="Times,serif" font-size="14.00">write</text>
</g>
<!-- /dev/null#ServerID_d4490627de97 -->
<g id="node21" class="node"><title>/dev/null#ServerID_d4490627de97</title>
<ellipse fill="none" stroke="black" cx="6365" cy="-295" rx="174.669" ry="18"/>
<text text-anchor="middle" x="6365" y="-291.3" font-family="Times,serif" font-size="14.00">/dev/null#ServerID_d4490627de97</text>
</g>
<!-- 10_node#ServerID_d4490627de97&#45;&gt;/dev/null#ServerID_d4490627de97 -->
<g id="edge37" class="edge"><title>10_node#ServerID_d4490627de97&#45;&gt;/dev/null#ServerID_d4490627de97</title>
<path fill="none" stroke="black" d="M6574.9,-367.689C6541.53,-362.564 6506.12,-355.55 6474,-346 6450.12,-338.9 6424.74,-327.512 6404.49,-317.396"/>
<polygon fill="black" stroke="black" points="6406.07,-314.273 6395.57,-312.858 6402.9,-320.512 6406.07,-314.273"/>
<text text-anchor="middle" x="6493" y="-334.8" font-family="Times,serif" font-size="14.00">write</text>
</g>
<!-- pipe:[18738640]#ServerID_d4490627de97 -->
<g id="node22" class="node"><title>pipe:[18738640]#ServerID_d4490627de97</title>
<ellipse fill="none" stroke="black" cx="6770" cy="-295" rx="211.762" ry="18"/>
<text text-anchor="middle" x="6770" y="-291.3" font-family="Times,serif" font-size="14.00">pipe:[18738640]#ServerID_d4490627de97</text>
</g>
<!-- 10_node#ServerID_d4490627de97&#45;&gt;pipe:[18738640]#ServerID_d4490627de97 -->
<g id="edge31" class="edge"><title>10_node#ServerID_d4490627de97&#45;&gt;pipe:[18738640]#ServerID_d4490627de97</title>
<path fill="none" stroke="black" d="M6703.35,-363.653C6701.1,-353.466 6700.23,-340.724 6706,-331 6708.72,-326.42 6712.27,-322.4 6716.3,-318.88"/>
<polygon fill="black" stroke="black" points="6718.65,-321.495 6724.58,-312.711 6714.47,-315.883 6718.65,-321.495"/>
<text text-anchor="middle" x="6725" y="-334.8" font-family="Times,serif" font-size="14.00">write</text>
</g>
<!-- 24_node#ServerID_d4490627de97 -->
<g id="node23" class="node"><title>24_node#ServerID_d4490627de97</title>
<polygon fill="none" stroke="black" points="7710,-313 7442,-313 7442,-277 7710,-277 7710,-313"/>
<text text-anchor="middle" x="7576" y="-291.3" font-family="Times,serif" font-size="14.00">24_node#ServerID_d4490627de97</text>
</g>
<!-- 10_node#ServerID_d4490627de97&#45;&gt;24_node#ServerID_d4490627de97 -->
<g id="edge32" class="edge"><title>10_node#ServerID_d4490627de97&#45;&gt;24_node#ServerID_d4490627de97</title>
<path fill="none" stroke="black" d="M6843.2,-369.393C6986.35,-356.784 7219.99,-335.546 7431.6,-313.136"/>
<polygon fill="black" stroke="black" points="7432.09,-316.604 7441.66,-312.068 7431.35,-309.643 7432.09,-316.604"/>
<text text-anchor="middle" x="7269" y="-334.8" font-family="Times,serif" font-size="14.00">fork</text>
</g>
<!-- /dev/null#ServerID_d4490627de97&#45;&gt;10_node#ServerID_d4490627de97 -->
<g id="edge29" class="edge"><title>/dev/null#ServerID_d4490627de97&#45;&gt;10_node#ServerID_d4490627de97</title>
<path fill="none" stroke="black" d="M6428.86,-311.78C6485.64,-325.808 6568.85,-346.369 6629.83,-361.438"/>
<polygon fill="black" stroke="black" points="6629.25,-364.9 6639.8,-363.901 6630.93,-358.105 6629.25,-364.9"/>
<text text-anchor="middle" x="6573.5" y="-334.8" font-family="Times,serif" font-size="14.00">read</text>
</g>
<!-- pipe:[18738640]#ServerID_d4490627de97&#45;&gt;10_node#ServerID_d4490627de97 -->
<g id="edge30" class="edge"><title>pipe:[18738640]#ServerID_d4490627de97&#45;&gt;10_node#ServerID_d4490627de97</title>
<path fill="none" stroke="black" d="M6764.51,-313.158C6760.79,-323.278 6755.23,-336.016 6748,-346 6745.28,-349.748 6742.11,-353.389 6738.76,-356.817"/>
<polygon fill="black" stroke="black" points="6736.11,-354.511 6731.27,-363.94 6740.93,-359.583 6736.11,-354.511"/>
<text text-anchor="middle" x="6772.5" y="-334.8" font-family="Times,serif" font-size="14.00">read</text>
</g>
<!-- 24_sh#ServerID_d4490627de97 -->
<g id="node24" class="node"><title>24_sh#ServerID_d4490627de97</title>
<polygon fill="none" stroke="black" points="7627,-226 7377,-226 7377,-190 7627,-190 7627,-226"/>
<text text-anchor="middle" x="7502" y="-204.3" font-family="Times,serif" font-size="14.00">24_sh#ServerID_d4490627de97</text>
</g>
<!-- 24_node#ServerID_d4490627de97&#45;&gt;24_sh#ServerID_d4490627de97 -->
<g id="edge33" class="edge"><title>24_node#ServerID_d4490627de97&#45;&gt;24_sh#ServerID_d4490627de97</title>
<path fill="none" stroke="black" d="M7561.02,-276.799C7550.29,-264.471 7535.67,-247.679 7523.67,-233.89"/>
<polygon fill="black" stroke="black" points="7526.16,-231.42 7516.95,-226.175 7520.88,-236.016 7526.16,-231.42"/>
<text text-anchor="middle" x="7568" y="-247.8" font-family="Times,serif" font-size="14.00">execve</text>
</g>
<!-- 25_sh#ServerID_d4490627de97 -->
<g id="node25" class="node"><title>25_sh#ServerID_d4490627de97</title>
<polygon fill="none" stroke="black" points="7276,-139 7026,-139 7026,-103 7276,-103 7276,-139"/>
<text text-anchor="middle" x="7151" y="-117.3" font-family="Times,serif" font-size="14.00">25_sh#ServerID_d4490627de97</text>
</g>
<!-- 24_sh#ServerID_d4490627de97&#45;&gt;25_sh#ServerID_d4490627de97 -->
<g id="edge34" class="edge"><title>24_sh#ServerID_d4490627de97&#45;&gt;25_sh#ServerID_d4490627de97</title>
<path fill="none" stroke="black" d="M7431.39,-189.901C7373.55,-175.895 7291.71,-156.074 7231.37,-141.462"/>
<polygon fill="black" stroke="black" points="7232.04,-138.023 7221.5,-139.071 7230.39,-144.827 7232.04,-138.023"/>
<text text-anchor="middle" x="7362" y="-160.8" font-family="Times,serif" font-size="14.00">fork</text>
</g>
<!-- /home/app/3.txt#ServerID_d4490627de97 -->
<g id="node27" class="node"><title>/home/app/3.txt#ServerID_d4490627de97</title>
<ellipse fill="none" stroke="black" cx="7502" cy="-121" rx="207.963" ry="18"/>
<text text-anchor="middle" x="7502" y="-117.3" font-family="Times,serif" font-size="14.00">/home/app/3.txt#ServerID_d4490627de97</text>
</g>
<!-- 24_sh#ServerID_d4490627de97&#45;&gt;/home/app/3.txt#ServerID_d4490627de97 -->
<g id="edge36" class="edge"><title>24_sh#ServerID_d4490627de97&#45;&gt;/home/app/3.txt#ServerID_d4490627de97</title>
<path fill="none" stroke="black" d="M7502,-189.799C7502,-178.163 7502,-162.548 7502,-149.237"/>
<polygon fill="black" stroke="black" points="7505.5,-149.175 7502,-139.175 7498.5,-149.175 7505.5,-149.175"/>
<text text-anchor="middle" x="7521" y="-160.8" font-family="Times,serif" font-size="14.00">write</text>
</g>
<!-- 25_touch#ServerID_d4490627de97 -->
<g id="node26" class="node"><title>25_touch#ServerID_d4490627de97</title>
<polygon fill="none" stroke="black" points="7288,-52 7014,-52 7014,-16 7288,-16 7288,-52"/>
<text text-anchor="middle" x="7151" y="-30.3" font-family="Times,serif" font-size="14.00">25_touch#ServerID_d4490627de97</text>
</g>
<!-- 25_sh#ServerID_d4490627de97&#45;&gt;25_touch#ServerID_d4490627de97 -->
<g id="edge35" class="edge"><title>25_sh#ServerID_d4490627de97&#45;&gt;25_touch#ServerID_d4490627de97</title>
<path fill="none" stroke="black" d="M7151,-102.799C7151,-91.1626 7151,-75.5479 7151,-62.2368"/>
<polygon fill="black" stroke="black" points="7154.5,-62.1754 7151,-52.1754 7147.5,-62.1755 7154.5,-62.1754"/>
<text text-anchor="middle" x="7176" y="-73.8" font-family="Times,serif" font-size="14.00">execve</text>
</g>
<!-- 10.1.80.1:5023#ServerID_OuterContainerID&#45;&gt;10.1.80.93:8080#ServerID_OuterContainerID -->
<g id="edge39" class="edge"><title>10.1.80.1:5023#ServerID_OuterContainerID&#45;&gt;10.1.80.93:8080#ServerID_OuterContainerID</title>
<path fill="none" stroke="black" d="M929.93,-395.131C855.39,-405.624 744.098,-420.959 647,-433 581.804,-441.085 508.84,-449.315 449.873,-455.761"/>
<polygon fill="black" stroke="black" points="449.345,-452.298 439.784,-456.862 450.104,-459.257 449.345,-452.298"/>
<text text-anchor="middle" x="779" y="-421.8" font-family="Times,serif" font-size="14.00">POST</text>
</g>
</g>
</svg>
