<?xml version="1.0" encoding="UTF-8" standalone="no"?>
<!DOCTYPE svg PUBLIC "-//W3C//DTD SVG 1.1//EN"
 "http://www.w3.org/Graphics/SVG/1.1/DTD/svg11.dtd">
<!-- Generated by graphviz version 2.38.0 (20140413.2041)
 -->
<!-- Title: G Pages: 1 -->
<svg width="5798pt" height="558pt"
 viewBox="0.00 0.00 5798.00 558.00" xmlns="http://www.w3.org/2000/svg" xmlns:xlink="http://www.w3.org/1999/xlink">
<g id="graph0" class="graph" transform="scale(1 1) rotate(0) translate(4 554)">
<title>G</title>
<polygon fill="white" stroke="none" points="-4,4 -4,-554 5794,-554 5794,4 -4,4"/>
<g id="clust1" class="cluster"><title>clusterServerID_2347d2f455dd</title>
<polygon fill="none" stroke="black" points="4668,-182 4668,-411 5782,-411 5782,-182 4668,-182"/>
<text text-anchor="middle" x="5225" y="-395.8" font-family="Times,serif" font-size="14.00">clusterServerID_2347d2f455dd</text>
</g>
<g id="clust2" class="cluster"><title>clusterServerID_5f846fd567&#45;g8dn6</title>
<polygon fill="none" stroke="black" points="828,-444 828,-542 1168,-542 1168,-444 828,-444"/>
<text text-anchor="middle" x="998" y="-526.8" font-family="Times,serif" font-size="14.00">clusterServerID_5f846fd567&#45;g8dn6</text>
</g>
<g id="clust3" class="cluster"><title>clusterServerID_6df85d7674&#45;f2xxt</title>
<polygon fill="none" stroke="black" points="4324,-182 4324,-280 4660,-280 4660,-182 4324,-182"/>
<text text-anchor="middle" x="4492" y="-264.8" font-family="Times,serif" font-size="14.00">clusterServerID_6df85d7674&#45;f2xxt</text>
</g>
<g id="clust4" class="cluster"><title>clusterServerID_7cf8268e6ab5</title>
<polygon fill="none" stroke="black" points="3312,-8 3312,-280 4316,-280 4316,-8 3312,-8"/>
<text text-anchor="middle" x="3814" y="-264.8" font-family="Times,serif" font-size="14.00">clusterServerID_7cf8268e6ab5</text>
</g>
<g id="clust5" class="cluster"><title>clusterServerID_OuterContainerID</title>
<polygon fill="none" stroke="black" points="8,-182 8,-411 3304,-411 3304,-182 8,-182"/>
<text text-anchor="middle" x="1656" y="-395.8" font-family="Times,serif" font-size="14.00">clusterServerID_OuterContainerID</text>
</g>
<!-- 1_fwatchdog#ServerID_5f846fd567&#45;g8dn6 -->
<g id="node1" class="node"><title>1_fwatchdog#ServerID_5f846fd567&#45;g8dn6</title>
<polygon fill="none" stroke="black" points="1160,-488 836,-488 836,-452 1160,-452 1160,-488"/>
<text text-anchor="middle" x="998" y="-466.3" font-family="Times,serif" font-size="14.00">1_fwatchdog#ServerID_5f846fd567&#45;g8dn6</text>
</g>
<!-- 10.1.80.93:57656#ServerID_OuterContainerID -->
<g id="node2" class="node"><title>10.1.80.93:57656#ServerID_OuterContainerID</title>
<polygon fill="none" stroke="black" points="999,-357 671.56,-339 999,-321 1326.44,-339 999,-357"/>
<text text-anchor="middle" x="999" y="-335.3" font-family="Times,serif" font-size="14.00">10.1.80.93:57656#ServerID_OuterContainerID</text>
</g>
<!-- 1_fwatchdog#ServerID_5f846fd567&#45;g8dn6&#45;&gt;10.1.80.93:57656#ServerID_OuterContainerID -->
<g id="edge1" class="edge"><title>1_fwatchdog#ServerID_5f846fd567&#45;g8dn6&#45;&gt;10.1.80.93:57656#ServerID_OuterContainerID</title>
<path fill="none" stroke="black" d="M962.261,-451.861C955.725,-447.032 949.784,-441.108 946,-434 942.867,-428.115 944.059,-425.378 946,-419 952.151,-398.792 965.385,-379.057 977.089,-364.367"/>
<polygon fill="black" stroke="black" points="980.057,-366.27 983.738,-356.335 974.665,-361.806 980.057,-366.27"/>
<text text-anchor="middle" x="988" y="-422.8" font-family="Times,serif" font-size="14.00">RESPONSE</text>
</g>
<!-- 10.1.80.93:57656#ServerID_OuterContainerID&#45;&gt;1_fwatchdog#ServerID_5f846fd567&#45;g8dn6 -->
<g id="edge5" class="edge"><title>10.1.80.93:57656#ServerID_OuterContainerID&#45;&gt;1_fwatchdog#ServerID_5f846fd567&#45;g8dn6</title>
<path fill="none" stroke="black" d="M1011.4,-356.484C1024.03,-375.397 1040.39,-407.248 1030,-434 1028.64,-437.507 1026.74,-440.876 1024.55,-444.046"/>
<polygon fill="black" stroke="black" points="1021.75,-441.944 1018.2,-451.928 1027.2,-446.335 1021.75,-441.944"/>
<text text-anchor="middle" x="1054" y="-422.8" font-family="Times,serif" font-size="14.00">POST</text>
</g>
<!-- 1_fwatchdog#ServerID_7cf8268e6ab5 -->
<g id="node13" class="node"><title>1_fwatchdog#ServerID_7cf8268e6ab5</title>
<polygon fill="none" stroke="black" points="3750,-226 3456,-226 3456,-190 3750,-190 3750,-226"/>
<text text-anchor="middle" x="3603" y="-204.3" font-family="Times,serif" font-size="14.00">1_fwatchdog#ServerID_7cf8268e6ab5</text>
</g>
<!-- 10.1.80.93:57656#ServerID_OuterContainerID&#45;&gt;1_fwatchdog#ServerID_7cf8268e6ab5 -->
<g id="edge17" class="edge"><title>10.1.80.93:57656#ServerID_OuterContainerID&#45;&gt;1_fwatchdog#ServerID_7cf8268e6ab5</title>
<path fill="none" stroke="black" d="M1131.41,-328.238C1301.71,-316.176 1606.7,-296.238 1868,-288 1947.96,-285.479 3228.58,-289.646 3308,-280 3388.82,-270.183 3479.58,-246.34 3538.82,-228.985"/>
<polygon fill="black" stroke="black" points="3540.18,-232.234 3548.78,-226.043 3538.2,-225.521 3540.18,-232.234"/>
<text text-anchor="middle" x="1884.5" y="-291.8" font-family="Times,serif" font-size="14.00">read</text>
</g>
<!-- 1_fwatchdog#ServerID_6df85d7674&#45;f2xxt -->
<g id="node3" class="node"><title>1_fwatchdog#ServerID_6df85d7674&#45;f2xxt</title>
<polygon fill="none" stroke="black" points="4652,-226 4332,-226 4332,-190 4652,-190 4652,-226"/>
<text text-anchor="middle" x="4492" y="-204.3" font-family="Times,serif" font-size="14.00">1_fwatchdog#ServerID_6df85d7674&#45;f2xxt</text>
</g>
<!-- 10.1.80.93:37416#ServerID_OuterContainerID -->
<g id="node4" class="node"><title>10.1.80.93:37416#ServerID_OuterContainerID</title>
<polygon fill="none" stroke="black" points="1671,-357 1343.56,-339 1671,-321 1998.44,-339 1671,-357"/>
<text text-anchor="middle" x="1671" y="-335.3" font-family="Times,serif" font-size="14.00">10.1.80.93:37416#ServerID_OuterContainerID</text>
</g>
<!-- 1_fwatchdog#ServerID_6df85d7674&#45;f2xxt&#45;&gt;10.1.80.93:37416#ServerID_OuterContainerID -->
<g id="edge2" class="edge"><title>1_fwatchdog#ServerID_6df85d7674&#45;f2xxt&#45;&gt;10.1.80.93:37416#ServerID_OuterContainerID</title>
<path fill="none" stroke="black" d="M4461.14,-226.042C4427.58,-243.533 4371.79,-269.613 4320,-280 4270.57,-289.915 2555.39,-286.38 2505,-288 2260.22,-295.871 1975.55,-315.109 1810.08,-327.296"/>
<polygon fill="black" stroke="black" points="1809.55,-323.825 1799.84,-328.052 1810.07,-330.806 1809.55,-323.825"/>
<text text-anchor="middle" x="2547" y="-291.8" font-family="Times,serif" font-size="14.00">RESPONSE</text>
</g>
<!-- gateway:8080#ServerID_OuterContainerID -->
<g id="node5" class="node"><title>gateway:8080#ServerID_OuterContainerID</title>
<polygon fill="none" stroke="black" points="2320,-357 2015.52,-339 2320,-321 2624.48,-339 2320,-357"/>
<text text-anchor="middle" x="2320" y="-335.3" font-family="Times,serif" font-size="14.00">gateway:8080#ServerID_OuterContainerID</text>
</g>
<!-- 1_fwatchdog#ServerID_6df85d7674&#45;f2xxt&#45;&gt;gateway:8080#ServerID_OuterContainerID -->
<g id="edge7" class="edge"><title>1_fwatchdog#ServerID_6df85d7674&#45;f2xxt&#45;&gt;gateway:8080#ServerID_OuterContainerID</title>
<path fill="none" stroke="black" d="M4461.14,-226.034C4427.58,-243.519 4371.78,-269.594 4320,-280 4277.6,-288.521 2806.18,-285.46 2763,-288 2641.92,-295.124 2503.07,-312.262 2413.58,-324.485"/>
<polygon fill="black" stroke="black" points="2412.89,-321.047 2403.46,-325.875 2413.84,-327.982 2412.89,-321.047"/>
<text text-anchor="middle" x="2783" y="-291.8" font-family="Times,serif" font-size="14.00">POST</text>
</g>
<!-- 10.1.80.93:8080#ServerID_OuterContainerID -->
<g id="node6" class="node"><title>10.1.80.93:8080#ServerID_OuterContainerID</title>
<polygon fill="none" stroke="black" points="335,-357 16.1049,-339 335,-321 653.895,-339 335,-357"/>
<text text-anchor="middle" x="335" y="-335.3" font-family="Times,serif" font-size="14.00">10.1.80.93:8080#ServerID_OuterContainerID</text>
</g>
<!-- 1_fwatchdog#ServerID_6df85d7674&#45;f2xxt&#45;&gt;10.1.80.93:8080#ServerID_OuterContainerID -->
<g id="edge6" class="edge"><title>1_fwatchdog#ServerID_6df85d7674&#45;f2xxt&#45;&gt;10.1.80.93:8080#ServerID_OuterContainerID</title>
<path fill="none" stroke="black" d="M4461.15,-226.058C4427.59,-243.562 4371.8,-269.654 4320,-280 4281.46,-287.699 1529.29,-287.063 1490,-288 1341.45,-291.544 1304.47,-296.956 1156,-303 936.924,-311.919 882.044,-311.325 663,-321 609.216,-323.376 550.49,-326.311 497.782,-329.071"/>
<polygon fill="black" stroke="black" points="497.472,-325.582 487.669,-329.602 497.839,-332.572 497.472,-325.582"/>
<text text-anchor="middle" x="1510" y="-291.8" font-family="Times,serif" font-size="14.00">POST</text>
</g>
<!-- 10.1.80.93:37416#ServerID_OuterContainerID&#45;&gt;1_fwatchdog#ServerID_6df85d7674&#45;f2xxt -->
<g id="edge3" class="edge"><title>10.1.80.93:37416#ServerID_OuterContainerID&#45;&gt;1_fwatchdog#ServerID_6df85d7674&#45;f2xxt</title>
<path fill="none" stroke="black" d="M1759.38,-325.843C1853.5,-313.54 2006.93,-295.318 2140,-288 2200.46,-284.675 4260.62,-291.887 4320,-280 4367.34,-270.523 4418.03,-247.914 4452.02,-230.735"/>
<polygon fill="black" stroke="black" points="4453.85,-233.73 4461.15,-226.049 4450.65,-227.503 4453.85,-233.73"/>
<text text-anchor="middle" x="2160" y="-291.8" font-family="Times,serif" font-size="14.00">POST</text>
</g>
<!-- 1_fwatchdog#ServerID_2347d2f455dd -->
<g id="node7" class="node"><title>1_fwatchdog#ServerID_2347d2f455dd</title>
<polygon fill="none" stroke="black" points="5774,-357 5478,-357 5478,-321 5774,-321 5774,-357"/>
<text text-anchor="middle" x="5626" y="-335.3" font-family="Times,serif" font-size="14.00">1_fwatchdog#ServerID_2347d2f455dd</text>
</g>
<!-- 10.1.80.93:37416#ServerID_OuterContainerID&#45;&gt;1_fwatchdog#ServerID_2347d2f455dd -->
<g id="edge10" class="edge"><title>10.1.80.93:37416#ServerID_OuterContainerID&#45;&gt;1_fwatchdog#ServerID_2347d2f455dd</title>
<path fill="none" stroke="black" d="M1724.55,-354.143C1790.39,-371.905 1905.85,-400.284 2007,-411 2102.63,-421.131 5375.05,-431.516 5469,-411 5511.93,-401.626 5557.15,-379.393 5587.98,-362.093"/>
<polygon fill="black" stroke="black" points="5589.72,-365.129 5596.67,-357.131 5586.25,-359.05 5589.72,-365.129"/>
<text text-anchor="middle" x="3738" y="-422.8" font-family="Times,serif" font-size="14.00">read</text>
</g>
<!-- gateway:8080#ServerID_OuterContainerID&#45;&gt;1_fwatchdog#ServerID_6df85d7674&#45;f2xxt -->
<g id="edge4" class="edge"><title>gateway:8080#ServerID_OuterContainerID&#45;&gt;1_fwatchdog#ServerID_6df85d7674&#45;f2xxt</title>
<path fill="none" stroke="black" d="M2441.51,-328.179C2596.7,-316.129 2873.61,-296.282 3111,-288 3144.56,-286.829 4287.08,-286.641 4320,-280 4367.33,-270.453 4418.01,-247.856 4452.01,-230.699"/>
<polygon fill="black" stroke="black" points="4453.84,-233.696 4461.14,-226.019 4450.64,-227.466 4453.84,-233.696"/>
<text text-anchor="middle" x="3153" y="-291.8" font-family="Times,serif" font-size="14.00">RESPONSE</text>
</g>
<!-- 10.1.80.93:8080#ServerID_OuterContainerID&#45;&gt;1_fwatchdog#ServerID_6df85d7674&#45;f2xxt -->
<g id="edge8" class="edge"><title>10.1.80.93:8080#ServerID_OuterContainerID&#45;&gt;1_fwatchdog#ServerID_6df85d7674&#45;f2xxt</title>
<path fill="none" stroke="black" d="M490.576,-329.775C545.103,-326.935 606.76,-323.772 663,-321 705.773,-318.892 1007.7,-317.488 1048,-303 1058.46,-299.241 1057.46,-291.527 1068,-288 1110.83,-273.664 4275.71,-288.839 4320,-280 4367.35,-270.552 4418.03,-247.938 4452.02,-230.75"/>
<polygon fill="black" stroke="black" points="4453.85,-233.744 4461.15,-226.061 4450.65,-227.517 4453.85,-233.744"/>
<text text-anchor="middle" x="1110" y="-291.8" font-family="Times,serif" font-size="14.00">RESPONSE</text>
</g>
<!-- 10.1.80.1:4938#ServerID_OuterContainerID -->
<g id="node17" class="node"><title>10.1.80.1:4938#ServerID_OuterContainerID</title>
<polygon fill="none" stroke="black" points="1654,-226 1343.15,-208 1654,-190 1964.85,-208 1654,-226"/>
<text text-anchor="middle" x="1654" y="-204.3" font-family="Times,serif" font-size="14.00">10.1.80.1:4938#ServerID_OuterContainerID</text>
</g>
<!-- 10.1.80.93:8080#ServerID_OuterContainerID&#45;&gt;10.1.80.1:4938#ServerID_OuterContainerID -->
<g id="edge22" class="edge"><title>10.1.80.93:8080#ServerID_OuterContainerID&#45;&gt;10.1.80.1:4938#ServerID_OuterContainerID</title>
<path fill="none" stroke="black" d="M484.952,-329.453C622.042,-321.347 808.573,-309.472 843,-303 864.966,-298.87 868.936,-291.571 891,-288 988.415,-272.234 1237.01,-291.667 1335,-280 1426.98,-269.048 1531.39,-243.187 1594.96,-225.889"/>
<polygon fill="black" stroke="black" points="1596.08,-229.209 1604.8,-223.19 1594.23,-222.459 1596.08,-229.209"/>
<text text-anchor="middle" x="933" y="-291.8" font-family="Times,serif" font-size="14.00">RESPONSE</text>
</g>
<!-- 10.0.88.125:31112#ServerID_OuterContainerID -->
<g id="node18" class="node"><title>10.0.88.125:31112#ServerID_OuterContainerID</title>
<polygon fill="none" stroke="black" points="351,-226 15.5152,-208 351,-190 686.485,-208 351,-226"/>
<text text-anchor="middle" x="351" y="-204.3" font-family="Times,serif" font-size="14.00">10.0.88.125:31112#ServerID_OuterContainerID</text>
</g>
<!-- 10.1.80.93:8080#ServerID_OuterContainerID&#45;&gt;10.0.88.125:31112#ServerID_OuterContainerID -->
<g id="edge23" class="edge"><title>10.1.80.93:8080#ServerID_OuterContainerID&#45;&gt;10.0.88.125:31112#ServerID_OuterContainerID</title>
<path fill="none" stroke="black" d="M337.125,-320.87C339.802,-299.281 344.437,-261.912 347.607,-236.352"/>
<polygon fill="black" stroke="black" points="351.109,-236.556 348.867,-226.201 344.162,-235.694 351.109,-236.556"/>
<text text-anchor="middle" x="384" y="-291.8" font-family="Times,serif" font-size="14.00">RESPONSE</text>
</g>
<!-- 10.1.80.1:5111#ServerID_OuterContainerID -->
<g id="node19" class="node"><title>10.1.80.1:5111#ServerID_OuterContainerID</title>
<polygon fill="none" stroke="black" points="1015,-226 704.15,-208 1015,-190 1325.85,-208 1015,-226"/>
<text text-anchor="middle" x="1015" y="-204.3" font-family="Times,serif" font-size="14.00">10.1.80.1:5111#ServerID_OuterContainerID</text>
</g>
<!-- 10.1.80.93:8080#ServerID_OuterContainerID&#45;&gt;10.1.80.1:5111#ServerID_OuterContainerID -->
<g id="edge25" class="edge"><title>10.1.80.93:8080#ServerID_OuterContainerID&#45;&gt;10.1.80.1:5111#ServerID_OuterContainerID</title>
<path fill="none" stroke="black" d="M484.843,-329.434C548.756,-324.192 623.918,-315.914 691,-303 789.267,-284.082 900.689,-248.545 963.933,-226.999"/>
<polygon fill="black" stroke="black" points="965.335,-230.218 973.66,-223.665 963.066,-223.596 965.335,-230.218"/>
<text text-anchor="middle" x="797" y="-291.8" font-family="Times,serif" font-size="14.00">RESPONSE</text>
</g>
<!-- localhost:3000#ServerID_2347d2f455dd -->
<g id="node8" class="node"><title>localhost:3000#ServerID_2347d2f455dd</title>
<polygon fill="none" stroke="black" points="5489,-226 5204.12,-208 5489,-190 5773.88,-208 5489,-226"/>
<text text-anchor="middle" x="5489" y="-204.3" font-family="Times,serif" font-size="14.00">localhost:3000#ServerID_2347d2f455dd</text>
</g>
<!-- 1_fwatchdog#ServerID_2347d2f455dd&#45;&gt;localhost:3000#ServerID_2347d2f455dd -->
<g id="edge9" class="edge"><title>1_fwatchdog#ServerID_2347d2f455dd&#45;&gt;localhost:3000#ServerID_2347d2f455dd</title>
<path fill="none" stroke="black" d="M5607.81,-320.87C5583.56,-298.039 5540.57,-257.562 5513.49,-232.064"/>
<polygon fill="black" stroke="black" points="5515.65,-229.29 5505.97,-224.983 5510.86,-234.386 5515.65,-229.29"/>
<text text-anchor="middle" x="5604" y="-291.8" font-family="Times,serif" font-size="14.00">write</text>
</g>
<!-- 13_node#ServerID_2347d2f455dd -->
<g id="node9" class="node"><title>13_node#ServerID_2347d2f455dd</title>
<polygon fill="none" stroke="black" points="4941.5,-226 4676.5,-226 4676.5,-190 4941.5,-190 4941.5,-226"/>
<text text-anchor="middle" x="4809" y="-204.3" font-family="Times,serif" font-size="14.00">13_node#ServerID_2347d2f455dd</text>
</g>
<!-- 13_node#ServerID_2347d2f455dd&#45;&gt;gateway:8080#ServerID_OuterContainerID -->
<g id="edge15" class="edge"><title>13_node#ServerID_2347d2f455dd&#45;&gt;gateway:8080#ServerID_OuterContainerID</title>
<path fill="none" stroke="black" d="M4783.1,-226.141C4755.09,-243.579 4708.46,-269.489 4664,-280 4639.8,-285.72 3793.86,-287.528 3769,-288 3642.75,-290.398 2759.17,-315.742 2633,-321 2581.01,-323.167 2524.18,-326.087 2473.39,-328.895"/>
<polygon fill="black" stroke="black" points="2473.11,-325.405 2463.32,-329.455 2473.5,-332.395 2473.11,-325.405"/>
<text text-anchor="middle" x="3798" y="-291.8" font-family="Times,serif" font-size="14.00">connect</text>
</g>
<!-- 10.152.183.10:53#ServerID_OuterContainerID -->
<g id="node10" class="node"><title>10.152.183.10:53#ServerID_OuterContainerID</title>
<polygon fill="none" stroke="black" points="2969,-357 2641.56,-339 2969,-321 3296.44,-339 2969,-357"/>
<text text-anchor="middle" x="2969" y="-335.3" font-family="Times,serif" font-size="14.00">10.152.183.10:53#ServerID_OuterContainerID</text>
</g>
<!-- 13_node#ServerID_2347d2f455dd&#45;&gt;10.152.183.10:53#ServerID_OuterContainerID -->
<g id="edge11" class="edge"><title>13_node#ServerID_2347d2f455dd&#45;&gt;10.152.183.10:53#ServerID_OuterContainerID</title>
<path fill="none" stroke="black" d="M4783.08,-226.047C4755.05,-243.408 4708.41,-269.253 4664,-280 4619.82,-290.692 4300.43,-286.673 4255,-288 3860.42,-299.529 3397.95,-318.959 3149.24,-329.894"/>
<polygon fill="black" stroke="black" points="3148.86,-326.407 3139.03,-330.344 3149.17,-333.4 3148.86,-326.407"/>
<text text-anchor="middle" x="4279.5" y="-291.8" font-family="Times,serif" font-size="14.00">sendto</text>
</g>
<!-- 10.152.183.10:53#ServerID_OuterContainerID&#45;&gt;13_node#ServerID_2347d2f455dd -->
<g id="edge14" class="edge"><title>10.152.183.10:53#ServerID_OuterContainerID&#45;&gt;13_node#ServerID_2347d2f455dd</title>
<path fill="none" stroke="black" d="M3212.4,-334.364C3480.07,-329.725 3922.85,-320.166 4304,-303 4464.16,-295.787 4509.04,-321.15 4664,-280 4703.48,-269.516 4745,-247.961 4773.44,-231.336"/>
<polygon fill="black" stroke="black" points="4775.39,-234.25 4782.2,-226.132 4771.81,-228.232 4775.39,-234.25"/>
<text text-anchor="middle" x="4662" y="-291.8" font-family="Times,serif" font-size="14.00">recvfrom</text>
</g>
<!-- /etc/hosts#ServerID_2347d2f455dd -->
<g id="node11" class="node"><title>/etc/hosts#ServerID_2347d2f455dd</title>
<ellipse fill="none" stroke="black" cx="5281" cy="-339" rx="178.969" ry="18"/>
<text text-anchor="middle" x="5281" y="-335.3" font-family="Times,serif" font-size="14.00">/etc/hosts#ServerID_2347d2f455dd</text>
</g>
<!-- /etc/hosts#ServerID_2347d2f455dd&#45;&gt;13_node#ServerID_2347d2f455dd -->
<g id="edge12" class="edge"><title>/etc/hosts#ServerID_2347d2f455dd&#45;&gt;13_node#ServerID_2347d2f455dd</title>
<path fill="none" stroke="black" d="M5222.18,-321.923C5135.77,-298.309 4974.71,-254.289 4881.24,-228.743"/>
<polygon fill="black" stroke="black" points="4882.14,-225.362 4871.58,-226.102 4880.3,-232.115 4882.14,-225.362"/>
<text text-anchor="middle" x="5157.5" y="-291.8" font-family="Times,serif" font-size="14.00">read</text>
</g>
<!-- /etc/resolv.conf#ServerID_2347d2f455dd -->
<g id="node12" class="node"><title>/etc/resolv.conf#ServerID_2347d2f455dd</title>
<ellipse fill="none" stroke="black" cx="4880" cy="-339" rx="204.164" ry="18"/>
<text text-anchor="middle" x="4880" y="-335.3" font-family="Times,serif" font-size="14.00">/etc/resolv.conf#ServerID_2347d2f455dd</text>
</g>
<!-- /etc/resolv.conf#ServerID_2347d2f455dd&#45;&gt;13_node#ServerID_2347d2f455dd -->
<g id="edge13" class="edge"><title>/etc/resolv.conf#ServerID_2347d2f455dd&#45;&gt;13_node#ServerID_2347d2f455dd</title>
<path fill="none" stroke="black" d="M4870.57,-320.87C4858.48,-298.895 4837.38,-260.573 4823.31,-234.994"/>
<polygon fill="black" stroke="black" points="4826.36,-233.274 4818.47,-226.201 4820.22,-236.649 4826.36,-233.274"/>
<text text-anchor="middle" x="4875.5" y="-291.8" font-family="Times,serif" font-size="14.00">read</text>
</g>
<!-- localhost:3000#ServerID_7cf8268e6ab5 -->
<g id="node14" class="node"><title>localhost:3000#ServerID_7cf8268e6ab5</title>
<polygon fill="none" stroke="black" points="3603,-139 3319.8,-121 3603,-103 3886.2,-121 3603,-139"/>
<text text-anchor="middle" x="3603" y="-117.3" font-family="Times,serif" font-size="14.00">localhost:3000#ServerID_7cf8268e6ab5</text>
</g>
<!-- 1_fwatchdog#ServerID_7cf8268e6ab5&#45;&gt;localhost:3000#ServerID_7cf8268e6ab5 -->
<g id="edge16" class="edge"><title>1_fwatchdog#ServerID_7cf8268e6ab5&#45;&gt;localhost:3000#ServerID_7cf8268e6ab5</title>
<path fill="none" stroke="black" d="M3584.04,-189.736C3579.56,-184.523 3575.39,-178.455 3573,-172 3569.66,-162.98 3572.93,-153.769 3578.37,-145.751"/>
<polygon fill="black" stroke="black" points="3581.14,-147.89 3584.63,-137.885 3575.66,-143.531 3581.14,-147.89"/>
<text text-anchor="middle" x="3592" y="-160.8" font-family="Times,serif" font-size="14.00">write</text>
</g>
<!-- pipe:[7845976]#ServerID_7cf8268e6ab5 -->
<g id="node16" class="node"><title>pipe:[7845976]#ServerID_7cf8268e6ab5</title>
<ellipse fill="none" stroke="black" cx="4106" cy="-121" rx="202.264" ry="18"/>
<text text-anchor="middle" x="4106" y="-117.3" font-family="Times,serif" font-size="14.00">pipe:[7845976]#ServerID_7cf8268e6ab5</text>
</g>
<!-- 1_fwatchdog#ServerID_7cf8268e6ab5&#45;&gt;pipe:[7845976]#ServerID_7cf8268e6ab5 -->
<g id="edge20" class="edge"><title>1_fwatchdog#ServerID_7cf8268e6ab5&#45;&gt;pipe:[7845976]#ServerID_7cf8268e6ab5</title>
<path fill="none" stroke="black" d="M3703.88,-189.952C3791.84,-175.089 3918.7,-153.652 4006.3,-138.848"/>
<polygon fill="black" stroke="black" points="4006.97,-142.284 4016.25,-137.167 4005.8,-135.382 4006.97,-142.284"/>
<text text-anchor="middle" x="3904" y="-160.8" font-family="Times,serif" font-size="14.00">write</text>
</g>
<!-- localhost:3000#ServerID_7cf8268e6ab5&#45;&gt;1_fwatchdog#ServerID_7cf8268e6ab5 -->
<g id="edge19" class="edge"><title>localhost:3000#ServerID_7cf8268e6ab5&#45;&gt;1_fwatchdog#ServerID_7cf8268e6ab5</title>
<path fill="none" stroke="black" d="M3608.05,-139.071C3610.32,-148.709 3612.24,-160.993 3611,-172 3610.71,-174.547 3610.31,-177.179 3609.84,-179.803"/>
<polygon fill="black" stroke="black" points="3606.39,-179.18 3607.77,-189.686 3613.25,-180.617 3606.39,-179.18"/>
<text text-anchor="middle" x="3628.5" y="-160.8" font-family="Times,serif" font-size="14.00">read</text>
</g>
<!-- 13_node#ServerID_7cf8268e6ab5 -->
<g id="node15" class="node"><title>13_node#ServerID_7cf8268e6ab5</title>
<polygon fill="none" stroke="black" points="3734.5,-52 3471.5,-52 3471.5,-16 3734.5,-16 3734.5,-52"/>
<text text-anchor="middle" x="3603" y="-30.3" font-family="Times,serif" font-size="14.00">13_node#ServerID_7cf8268e6ab5</text>
</g>
<!-- localhost:3000#ServerID_7cf8268e6ab5&#45;&gt;13_node#ServerID_7cf8268e6ab5 -->
<g id="edge18" class="edge"><title>localhost:3000#ServerID_7cf8268e6ab5&#45;&gt;13_node#ServerID_7cf8268e6ab5</title>
<path fill="none" stroke="black" d="M3603,-102.799C3603,-91.1626 3603,-75.5479 3603,-62.2368"/>
<polygon fill="black" stroke="black" points="3606.5,-62.1754 3603,-52.1754 3599.5,-62.1755 3606.5,-62.1754"/>
<text text-anchor="middle" x="3619.5" y="-73.8" font-family="Times,serif" font-size="14.00">read</text>
</g>
<!-- 10.1.80.1:4938#ServerID_OuterContainerID&#45;&gt;10.1.80.93:8080#ServerID_OuterContainerID -->
<g id="edge21" class="edge"><title>10.1.80.1:4938#ServerID_OuterContainerID&#45;&gt;10.1.80.93:8080#ServerID_OuterContainerID</title>
<path fill="none" stroke="black" d="M1604.52,-223.163C1542.25,-240.254 1431.72,-268.167 1335,-280 1298.92,-284.413 1043.21,-278.977 1008,-288 993.943,-291.603 993.001,-299.188 979,-303 973.262,-304.562 691.289,-319.477 502.397,-329.326"/>
<polygon fill="black" stroke="black" points="502.153,-325.834 492.349,-329.85 502.518,-332.824 502.153,-325.834"/>
<text text-anchor="middle" x="1028" y="-291.8" font-family="Times,serif" font-size="14.00">POST</text>
</g>
<!-- 10.1.80.1:5111#ServerID_OuterContainerID&#45;&gt;10.1.80.93:8080#ServerID_OuterContainerID -->
<g id="edge24" class="edge"><title>10.1.80.1:5111#ServerID_OuterContainerID&#45;&gt;10.1.80.93:8080#ServerID_OuterContainerID</title>
<path fill="none" stroke="black" d="M957.982,-222.71C894.144,-237.813 787.503,-262.302 695,-280 605.477,-297.128 502.781,-313.336 430.045,-324.241"/>
<polygon fill="black" stroke="black" points="429.359,-320.804 419.986,-325.744 430.393,-327.728 429.359,-320.804"/>
<text text-anchor="middle" x="667" y="-291.8" font-family="Times,serif" font-size="14.00">POST</text>
</g>
</g>
</svg>
