<?xml version="1.0" encoding="UTF-8" standalone="no"?>
<!DOCTYPE svg PUBLIC "-//W3C//DTD SVG 1.1//EN"
 "http://www.w3.org/Graphics/SVG/1.1/DTD/svg11.dtd">
<!-- Generated by graphviz version 2.38.0 (20140413.2041)
 -->
<!-- Title: G Pages: 1 -->
<svg width="4834pt" height="597pt"
 viewBox="0.00 0.00 4834.00 597.00" xmlns="http://www.w3.org/2000/svg" xmlns:xlink="http://www.w3.org/1999/xlink">
<g id="graph0" class="graph" transform="scale(1 1) rotate(0) translate(4 593)">
<title>G</title>
<polygon fill="white" stroke="none" points="-4,4 -4,-593 4830,-593 4830,4 -4,4"/>
<g id="clust1" class="cluster"><title>clusterServerID_3113a7a2a86a</title>
<polygon fill="none" stroke="black" points="2619,-311 2619,-581 4009,-581 4009,-311 2619,-311"/>
<text text-anchor="middle" x="3314" y="-565.8" font-family="Times,serif" font-size="14.00">clusterServerID_3113a7a2a86a</text>
</g>
<g id="clust2" class="cluster"><title>clusterServerID_5f846fd567&#45;srhtc</title>
<polygon fill="none" stroke="black" points="4484,-95 4484,-170 4818,-170 4818,-95 4484,-95"/>
<text text-anchor="middle" x="4651" y="-154.8" font-family="Times,serif" font-size="14.00">clusterServerID_5f846fd567&#45;srhtc</text>
</g>
<g id="clust3" class="cluster"><title>clusterServerID_6df85d7674&#45;grtsk</title>
<polygon fill="none" stroke="black" points="1974,-311 1974,-386 2312,-386 2312,-311 1974,-311"/>
<text text-anchor="middle" x="2143" y="-370.8" font-family="Times,serif" font-size="14.00">clusterServerID_6df85d7674&#45;grtsk</text>
</g>
<g id="clust4" class="cluster"><title>clusterServerID_9c632c9c841a</title>
<polygon fill="none" stroke="black" points="8,-8 8,-278 1120,-278 1120,-8 8,-8"/>
<text text-anchor="middle" x="564" y="-262.8" font-family="Times,serif" font-size="14.00">clusterServerID_9c632c9c841a</text>
</g>
<g id="clust5" class="cluster"><title>clusterServerID_OuterContainerID</title>
<polygon fill="none" stroke="black" points="1128,-95 1128,-278 4476,-278 4476,-95 1128,-95"/>
<text text-anchor="middle" x="2802" y="-262.8" font-family="Times,serif" font-size="14.00">clusterServerID_OuterContainerID</text>
</g>
<!-- 10.1.80.247:53054#ServerID_OuterContainerID -->
<g id="node1" class="node"><title>10.1.80.247:53054#ServerID_OuterContainerID</title>
<polygon fill="none" stroke="black" points="2144,-247 1808.52,-229 2144,-211 2479.48,-229 2144,-247"/>
<text text-anchor="middle" x="2144" y="-225.3" font-family="Times,serif" font-size="14.00">10.1.80.247:53054#ServerID_OuterContainerID</text>
</g>
<!-- 1_fwatchdog#ServerID_6df85d7674&#45;grtsk -->
<g id="node2" class="node"><title>1_fwatchdog#ServerID_6df85d7674&#45;grtsk</title>
<polygon fill="none" stroke="black" points="2303.5,-355 1982.5,-355 1982.5,-319 2303.5,-319 2303.5,-355"/>
<text text-anchor="middle" x="2143" y="-333.3" font-family="Times,serif" font-size="14.00">1_fwatchdog#ServerID_6df85d7674&#45;grtsk</text>
</g>
<!-- 10.1.80.247:53054#ServerID_OuterContainerID&#45;&gt;1_fwatchdog#ServerID_6df85d7674&#45;grtsk -->
<g id="edge1" class="edge"><title>10.1.80.247:53054#ServerID_OuterContainerID&#45;&gt;1_fwatchdog#ServerID_6df85d7674&#45;grtsk</title>
<path fill="none" stroke="black" d="M2159.08,-246.48C2170.24,-260.767 2182.35,-282.067 2175,-301 2173.64,-304.507 2171.74,-307.876 2169.55,-311.046"/>
<polygon fill="black" stroke="black" points="2166.75,-308.944 2163.2,-318.928 2172.2,-313.335 2166.75,-308.944"/>
<text text-anchor="middle" x="2197" y="-289.8" font-family="Times,serif" font-size="14.00">POST</text>
</g>
<!-- 1_fwatchdog#ServerID_3113a7a2a86a -->
<g id="node7" class="node"><title>1_fwatchdog#ServerID_3113a7a2a86a</title>
<polygon fill="none" stroke="black" points="3719.5,-550 3422.5,-550 3422.5,-514 3719.5,-514 3719.5,-550"/>
<text text-anchor="middle" x="3571" y="-528.3" font-family="Times,serif" font-size="14.00">1_fwatchdog#ServerID_3113a7a2a86a</text>
</g>
<!-- 10.1.80.247:53054#ServerID_OuterContainerID&#45;&gt;1_fwatchdog#ServerID_3113a7a2a86a -->
<g id="edge10" class="edge"><title>10.1.80.247:53054#ServerID_OuterContainerID&#45;&gt;1_fwatchdog#ServerID_3113a7a2a86a</title>
<path fill="none" stroke="black" d="M2217.39,-243.097C2287.03,-254.837 2394.75,-271.223 2489,-278 2499.39,-278.747 3981.13,-279.177 3989,-286 4088.19,-371.976 4042.72,-424.827 4010,-463 3973.99,-505.023 3840.37,-521.3 3729.92,-527.491"/>
<polygon fill="black" stroke="black" points="3729.44,-524.011 3719.64,-528.042 3729.82,-531.001 3729.44,-524.011"/>
<text text-anchor="middle" x="4064.5" y="-397.8" font-family="Times,serif" font-size="14.00">read</text>
</g>
<!-- 1_fwatchdog#ServerID_6df85d7674&#45;grtsk&#45;&gt;10.1.80.247:53054#ServerID_OuterContainerID -->
<g id="edge7" class="edge"><title>1_fwatchdog#ServerID_6df85d7674&#45;grtsk&#45;&gt;10.1.80.247:53054#ServerID_OuterContainerID</title>
<path fill="none" stroke="black" d="M2104.07,-318.889C2091.19,-310.513 2081.4,-299.341 2087,-286 2092.43,-273.053 2102.47,-261.591 2112.64,-252.463"/>
<polygon fill="black" stroke="black" points="2114.97,-255.075 2120.36,-245.952 2110.46,-249.724 2114.97,-255.075"/>
<text text-anchor="middle" x="2129" y="-289.8" font-family="Times,serif" font-size="14.00">RESPONSE</text>
</g>
<!-- gateway:8080#ServerID_OuterContainerID -->
<g id="node5" class="node"><title>gateway:8080#ServerID_OuterContainerID</title>
<polygon fill="none" stroke="black" points="2802,-247 2497.52,-229 2802,-211 3106.48,-229 2802,-247"/>
<text text-anchor="middle" x="2802" y="-225.3" font-family="Times,serif" font-size="14.00">gateway:8080#ServerID_OuterContainerID</text>
</g>
<!-- 1_fwatchdog#ServerID_6df85d7674&#45;grtsk&#45;&gt;gateway:8080#ServerID_OuterContainerID -->
<g id="edge5" class="edge"><title>1_fwatchdog#ServerID_6df85d7674&#45;grtsk&#45;&gt;gateway:8080#ServerID_OuterContainerID</title>
<path fill="none" stroke="black" d="M2229.48,-318.977C2284,-308.597 2355.96,-295.538 2420,-286 2450.1,-281.517 2457.84,-282.078 2488,-278 2565.03,-267.584 2652.43,-254.086 2715.43,-244.057"/>
<polygon fill="black" stroke="black" points="2716,-247.51 2725.33,-242.479 2714.9,-240.598 2716,-247.51"/>
<text text-anchor="middle" x="2440" y="-289.8" font-family="Times,serif" font-size="14.00">POST</text>
</g>
<!-- 10.1.80.247:8080#ServerID_OuterContainerID -->
<g id="node6" class="node"><title>10.1.80.247:8080#ServerID_OuterContainerID</title>
<polygon fill="none" stroke="black" points="1463,-247 1135.56,-229 1463,-211 1790.44,-229 1463,-247"/>
<text text-anchor="middle" x="1463" y="-225.3" font-family="Times,serif" font-size="14.00">10.1.80.247:8080#ServerID_OuterContainerID</text>
</g>
<!-- 1_fwatchdog#ServerID_6df85d7674&#45;grtsk&#45;&gt;10.1.80.247:8080#ServerID_OuterContainerID -->
<g id="edge6" class="edge"><title>1_fwatchdog#ServerID_6df85d7674&#45;grtsk&#45;&gt;10.1.80.247:8080#ServerID_OuterContainerID</title>
<path fill="none" stroke="black" d="M2061.8,-318.941C2009.27,-308.351 1939.31,-295.077 1877,-286 1842.95,-281.04 1834.15,-282.204 1800,-278 1717.01,-267.782 1622.82,-254.197 1555.15,-244.088"/>
<polygon fill="black" stroke="black" points="1555.35,-240.579 1544.95,-242.559 1554.32,-247.502 1555.35,-240.579"/>
<text text-anchor="middle" x="1985" y="-289.8" font-family="Times,serif" font-size="14.00">POST</text>
</g>
<!-- 10.1.80.247:47450#ServerID_OuterContainerID -->
<g id="node3" class="node"><title>10.1.80.247:47450#ServerID_OuterContainerID</title>
<polygon fill="none" stroke="black" points="3460,-247 3124.52,-229 3460,-211 3795.48,-229 3460,-247"/>
<text text-anchor="middle" x="3460" y="-225.3" font-family="Times,serif" font-size="14.00">10.1.80.247:47450#ServerID_OuterContainerID</text>
</g>
<!-- 1_fwatchdog#ServerID_5f846fd567&#45;srhtc -->
<g id="node4" class="node"><title>1_fwatchdog#ServerID_5f846fd567&#45;srhtc</title>
<polygon fill="none" stroke="black" points="4809.5,-139 4492.5,-139 4492.5,-103 4809.5,-103 4809.5,-139"/>
<text text-anchor="middle" x="4651" y="-117.3" font-family="Times,serif" font-size="14.00">1_fwatchdog#ServerID_5f846fd567&#45;srhtc</text>
</g>
<!-- 10.1.80.247:47450#ServerID_OuterContainerID&#45;&gt;1_fwatchdog#ServerID_5f846fd567&#45;srhtc -->
<g id="edge2" class="edge"><title>10.1.80.247:47450#ServerID_OuterContainerID&#45;&gt;1_fwatchdog#ServerID_5f846fd567&#45;srhtc</title>
<path fill="none" stroke="black" d="M3606.1,-218.808C3774.89,-208.32 4060.97,-190.95 4307,-178 4383.86,-173.954 4404.01,-182.258 4480,-170 4517.79,-163.903 4559.15,-152.43 4591.72,-142.229"/>
<polygon fill="black" stroke="black" points="4593.07,-145.475 4601.54,-139.112 4590.95,-138.804 4593.07,-145.475"/>
<text text-anchor="middle" x="4327" y="-181.8" font-family="Times,serif" font-size="14.00">POST</text>
</g>
<!-- 1_fwatchdog#ServerID_9c632c9c841a -->
<g id="node15" class="node"><title>1_fwatchdog#ServerID_9c632c9c841a</title>
<polygon fill="none" stroke="black" points="1030.5,-139 733.5,-139 733.5,-103 1030.5,-103 1030.5,-139"/>
<text text-anchor="middle" x="882" y="-117.3" font-family="Times,serif" font-size="14.00">1_fwatchdog#ServerID_9c632c9c841a</text>
</g>
<!-- 10.1.80.247:47450#ServerID_OuterContainerID&#45;&gt;1_fwatchdog#ServerID_9c632c9c841a -->
<g id="edge19" class="edge"><title>10.1.80.247:47450#ServerID_OuterContainerID&#45;&gt;1_fwatchdog#ServerID_9c632c9c841a</title>
<path fill="none" stroke="black" d="M3306.77,-219.18C3246.96,-216.069 3177.79,-212.881 3115,-211 2365.96,-188.555 2177.68,-225.192 1429,-193 1293.19,-187.16 1258.69,-188.369 1124,-170 1071.02,-162.775 1012.16,-151.182 965.758,-141.199"/>
<polygon fill="black" stroke="black" points="966.266,-137.728 955.752,-139.03 964.783,-144.569 966.266,-137.728"/>
<text text-anchor="middle" x="1445.5" y="-181.8" font-family="Times,serif" font-size="14.00">read</text>
</g>
<!-- 1_fwatchdog#ServerID_5f846fd567&#45;srhtc&#45;&gt;10.1.80.247:47450#ServerID_OuterContainerID -->
<g id="edge8" class="edge"><title>1_fwatchdog#ServerID_5f846fd567&#45;srhtc&#45;&gt;10.1.80.247:47450#ServerID_OuterContainerID</title>
<path fill="none" stroke="black" d="M4595.92,-139.01C4562.58,-148.917 4519.1,-161.156 4480,-170 4421.49,-183.235 4406.68,-186.879 4347,-193 4107.24,-217.594 4045.82,-201.069 3805,-211 3748.17,-213.344 3686.09,-216.284 3630.46,-219.058"/>
<polygon fill="black" stroke="black" points="3629.96,-215.578 3620.15,-219.573 3630.31,-222.569 3629.96,-215.578"/>
<text text-anchor="middle" x="4486" y="-181.8" font-family="Times,serif" font-size="14.00">RESPONSE</text>
</g>
<!-- gateway:8080#ServerID_OuterContainerID&#45;&gt;1_fwatchdog#ServerID_6df85d7674&#45;grtsk -->
<g id="edge3" class="edge"><title>gateway:8080#ServerID_OuterContainerID&#45;&gt;1_fwatchdog#ServerID_6df85d7674&#45;grtsk</title>
<path fill="none" stroke="black" d="M2745.2,-243.718C2678.3,-259.462 2563.63,-285.144 2464,-301 2415.44,-308.728 2362.48,-315.269 2313.83,-320.529"/>
<polygon fill="black" stroke="black" points="2313.41,-317.054 2303.84,-321.598 2314.15,-324.014 2313.41,-317.054"/>
<text text-anchor="middle" x="2589" y="-289.8" font-family="Times,serif" font-size="14.00">RESPONSE</text>
</g>
<!-- 10.1.80.247:8080#ServerID_OuterContainerID&#45;&gt;1_fwatchdog#ServerID_6df85d7674&#45;grtsk -->
<g id="edge4" class="edge"><title>10.1.80.247:8080#ServerID_OuterContainerID&#45;&gt;1_fwatchdog#ServerID_6df85d7674&#45;grtsk</title>
<path fill="none" stroke="black" d="M1518.7,-243.986C1584.01,-259.92 1695.74,-285.724 1793,-301 1851.05,-310.118 1914.91,-317.326 1972.01,-322.772"/>
<polygon fill="black" stroke="black" points="1971.93,-326.28 1982.22,-323.734 1972.59,-319.311 1971.93,-326.28"/>
<text text-anchor="middle" x="1835" y="-289.8" font-family="Times,serif" font-size="14.00">RESPONSE</text>
</g>
<!-- 10.1.80.1:61628#ServerID_OuterContainerID -->
<g id="node18" class="node"><title>10.1.80.1:61628#ServerID_OuterContainerID</title>
<polygon fill="none" stroke="black" points="2143,-139 1824.1,-121 2143,-103 2461.9,-121 2143,-139"/>
<text text-anchor="middle" x="2143" y="-117.3" font-family="Times,serif" font-size="14.00">10.1.80.1:61628#ServerID_OuterContainerID</text>
</g>
<!-- 10.1.80.247:8080#ServerID_OuterContainerID&#45;&gt;10.1.80.1:61628#ServerID_OuterContainerID -->
<g id="edge24" class="edge"><title>10.1.80.247:8080#ServerID_OuterContainerID&#45;&gt;10.1.80.1:61628#ServerID_OuterContainerID</title>
<path fill="none" stroke="black" d="M1602.28,-218.645C1670.04,-213.057 1752.54,-204.722 1826,-193 1914.95,-178.807 2016.29,-154.69 2079.94,-138.555"/>
<polygon fill="black" stroke="black" points="2081,-141.898 2089.83,-136.037 2079.27,-135.114 2081,-141.898"/>
<text text-anchor="middle" x="1946" y="-181.8" font-family="Times,serif" font-size="14.00">RESPONSE</text>
</g>
<!-- 10.0.88.125:31112#ServerID_OuterContainerID -->
<g id="node19" class="node"><title>10.0.88.125:31112#ServerID_OuterContainerID</title>
<polygon fill="none" stroke="black" points="1471,-139 1135.52,-121 1471,-103 1806.48,-121 1471,-139"/>
<text text-anchor="middle" x="1471" y="-117.3" font-family="Times,serif" font-size="14.00">10.0.88.125:31112#ServerID_OuterContainerID</text>
</g>
<!-- 10.1.80.247:8080#ServerID_OuterContainerID&#45;&gt;10.0.88.125:31112#ServerID_OuterContainerID -->
<g id="edge25" class="edge"><title>10.1.80.247:8080#ServerID_OuterContainerID&#45;&gt;10.0.88.125:31112#ServerID_OuterContainerID</title>
<path fill="none" stroke="black" d="M1464.29,-210.969C1465.54,-194.279 1467.48,-168.579 1468.96,-149.084"/>
<polygon fill="black" stroke="black" points="1472.46,-149.224 1469.72,-138.988 1465.48,-148.697 1472.46,-149.224"/>
<text text-anchor="middle" x="1509" y="-181.8" font-family="Times,serif" font-size="14.00">RESPONSE</text>
</g>
<!-- localhost:3000#ServerID_3113a7a2a86a -->
<g id="node8" class="node"><title>localhost:3000#ServerID_3113a7a2a86a</title>
<polygon fill="none" stroke="black" points="3289,-463 3003.28,-445 3289,-427 3574.72,-445 3289,-463"/>
<text text-anchor="middle" x="3289" y="-441.3" font-family="Times,serif" font-size="14.00">localhost:3000#ServerID_3113a7a2a86a</text>
</g>
<!-- 1_fwatchdog#ServerID_3113a7a2a86a&#45;&gt;localhost:3000#ServerID_3113a7a2a86a -->
<g id="edge9" class="edge"><title>1_fwatchdog#ServerID_3113a7a2a86a&#45;&gt;localhost:3000#ServerID_3113a7a2a86a</title>
<path fill="none" stroke="black" d="M3514.27,-513.901C3465.22,-499.116 3394.67,-477.851 3345.64,-463.073"/>
<polygon fill="black" stroke="black" points="3346.41,-459.65 3335.83,-460.115 3344.39,-466.352 3346.41,-459.65"/>
<text text-anchor="middle" x="3465" y="-484.8" font-family="Times,serif" font-size="14.00">write</text>
</g>
<!-- 12_node#ServerID_3113a7a2a86a -->
<g id="node9" class="node"><title>12_node#ServerID_3113a7a2a86a</title>
<polygon fill="none" stroke="black" points="3733,-355 3467,-355 3467,-319 3733,-319 3733,-355"/>
<text text-anchor="middle" x="3600" y="-333.3" font-family="Times,serif" font-size="14.00">12_node#ServerID_3113a7a2a86a</text>
</g>
<!-- localhost:3000#ServerID_3113a7a2a86a&#45;&gt;12_node#ServerID_3113a7a2a86a -->
<g id="edge11" class="edge"><title>localhost:3000#ServerID_3113a7a2a86a&#45;&gt;12_node#ServerID_3113a7a2a86a</title>
<path fill="none" stroke="black" d="M3331.27,-429.594C3385.34,-411.164 3479.31,-379.135 3540.57,-358.255"/>
<polygon fill="black" stroke="black" points="3541.78,-361.543 3550.11,-355.004 3539.52,-354.917 3541.78,-361.543"/>
<text text-anchor="middle" x="3451.5" y="-397.8" font-family="Times,serif" font-size="14.00">read</text>
</g>
<!-- 12_node#ServerID_3113a7a2a86a&#45;&gt;gateway:8080#ServerID_OuterContainerID -->
<g id="edge16" class="edge"><title>12_node#ServerID_3113a7a2a86a&#45;&gt;gateway:8080#ServerID_OuterContainerID</title>
<path fill="none" stroke="black" d="M3466.84,-321.219C3369.53,-310.131 3234.44,-294.145 3116,-278 3039.11,-267.518 2951.87,-254.056 2888.9,-244.058"/>
<polygon fill="black" stroke="black" points="2889.43,-240.598 2879,-242.484 2888.33,-247.511 2889.43,-240.598"/>
<text text-anchor="middle" x="3317" y="-289.8" font-family="Times,serif" font-size="14.00">connect</text>
</g>
<!-- 10.152.183.10:53#ServerID_OuterContainerID -->
<g id="node12" class="node"><title>10.152.183.10:53#ServerID_OuterContainerID</title>
<polygon fill="none" stroke="black" points="4141,-247 3813.56,-229 4141,-211 4468.44,-229 4141,-247"/>
<text text-anchor="middle" x="4141" y="-225.3" font-family="Times,serif" font-size="14.00">10.152.183.10:53#ServerID_OuterContainerID</text>
</g>
<!-- 12_node#ServerID_3113a7a2a86a&#45;&gt;10.152.183.10:53#ServerID_OuterContainerID -->
<g id="edge14" class="edge"><title>12_node#ServerID_3113a7a2a86a&#45;&gt;10.152.183.10:53#ServerID_OuterContainerID</title>
<path fill="none" stroke="black" d="M3665.78,-318.952C3706.57,-308.689 3760.15,-295.763 3808,-286 3888.32,-269.614 3980.24,-254.422 4047.12,-244.008"/>
<polygon fill="black" stroke="black" points="4047.88,-247.433 4057.22,-242.442 4046.81,-240.516 4047.88,-247.433"/>
<text text-anchor="middle" x="3832.5" y="-289.8" font-family="Times,serif" font-size="14.00">sendto</text>
</g>
<!-- /etc/hosts#ServerID_3113a7a2a86a -->
<g id="node10" class="node"><title>/etc/hosts#ServerID_3113a7a2a86a</title>
<ellipse fill="none" stroke="black" cx="2806" cy="-445" rx="178.969" ry="18"/>
<text text-anchor="middle" x="2806" y="-441.3" font-family="Times,serif" font-size="14.00">/etc/hosts#ServerID_3113a7a2a86a</text>
</g>
<!-- /etc/hosts#ServerID_3113a7a2a86a&#45;&gt;12_node#ServerID_3113a7a2a86a -->
<g id="edge12" class="edge"><title>/etc/hosts#ServerID_3113a7a2a86a&#45;&gt;12_node#ServerID_3113a7a2a86a</title>
<path fill="none" stroke="black" d="M2908.99,-430.251C3050.33,-411.381 3304.8,-377.41 3462.36,-356.376"/>
<polygon fill="black" stroke="black" points="3463.14,-359.802 3472.59,-355.009 3462.22,-352.863 3463.14,-359.802"/>
<text text-anchor="middle" x="3195.5" y="-397.8" font-family="Times,serif" font-size="14.00">read</text>
</g>
<!-- /etc/resolv.conf#ServerID_3113a7a2a86a -->
<g id="node11" class="node"><title>/etc/resolv.conf#ServerID_3113a7a2a86a</title>
<ellipse fill="none" stroke="black" cx="3797" cy="-445" rx="204.164" ry="18"/>
<text text-anchor="middle" x="3797" y="-441.3" font-family="Times,serif" font-size="14.00">/etc/resolv.conf#ServerID_3113a7a2a86a</text>
</g>
<!-- /etc/resolv.conf#ServerID_3113a7a2a86a&#45;&gt;12_node#ServerID_3113a7a2a86a -->
<g id="edge13" class="edge"><title>/etc/resolv.conf#ServerID_3113a7a2a86a&#45;&gt;12_node#ServerID_3113a7a2a86a</title>
<path fill="none" stroke="black" d="M3765.78,-427.204C3731.98,-409.014 3677.92,-379.926 3640.78,-359.941"/>
<polygon fill="black" stroke="black" points="3642.19,-356.725 3631.72,-355.068 3638.87,-362.889 3642.19,-356.725"/>
<text text-anchor="middle" x="3743.5" y="-397.8" font-family="Times,serif" font-size="14.00">read</text>
</g>
<!-- 10.152.183.10:53#ServerID_OuterContainerID&#45;&gt;12_node#ServerID_3113a7a2a86a -->
<g id="edge15" class="edge"><title>10.152.183.10:53#ServerID_OuterContainerID&#45;&gt;12_node#ServerID_3113a7a2a86a</title>
<path fill="none" stroke="black" d="M4090.84,-244.314C4034.38,-260.009 3939.72,-285.077 3857,-301 3820.42,-308.041 3780.65,-314.186 3743.56,-319.279"/>
<polygon fill="black" stroke="black" points="3742.62,-315.875 3733.18,-320.688 3743.56,-322.812 3742.62,-315.875"/>
<text text-anchor="middle" x="3952" y="-289.8" font-family="Times,serif" font-size="14.00">recvfrom</text>
</g>
<!-- localhost:3000#ServerID_9c632c9c841a -->
<g id="node13" class="node"><title>localhost:3000#ServerID_9c632c9c841a</title>
<polygon fill="none" stroke="black" points="826,-247 540.284,-229 826,-211 1111.72,-229 826,-247"/>
<text text-anchor="middle" x="826" y="-225.3" font-family="Times,serif" font-size="14.00">localhost:3000#ServerID_9c632c9c841a</text>
</g>
<!-- 10_node#ServerID_9c632c9c841a -->
<g id="node14" class="node"><title>10_node#ServerID_9c632c9c841a</title>
<polygon fill="none" stroke="black" points="637,-139 371,-139 371,-103 637,-103 637,-139"/>
<text text-anchor="middle" x="504" y="-117.3" font-family="Times,serif" font-size="14.00">10_node#ServerID_9c632c9c841a</text>
</g>
<!-- localhost:3000#ServerID_9c632c9c841a&#45;&gt;10_node#ServerID_9c632c9c841a -->
<g id="edge17" class="edge"><title>localhost:3000#ServerID_9c632c9c841a&#45;&gt;10_node#ServerID_9c632c9c841a</title>
<path fill="none" stroke="black" d="M782.574,-213.704C726.568,-195.268 628.826,-163.092 565.277,-142.172"/>
<polygon fill="black" stroke="black" points="566.364,-138.845 555.771,-139.043 564.175,-145.494 566.364,-138.845"/>
<text text-anchor="middle" x="729.5" y="-181.8" font-family="Times,serif" font-size="14.00">read</text>
</g>
<!-- localhost:3000#ServerID_9c632c9c841a&#45;&gt;1_fwatchdog#ServerID_9c632c9c841a -->
<g id="edge21" class="edge"><title>localhost:3000#ServerID_9c632c9c841a&#45;&gt;1_fwatchdog#ServerID_9c632c9c841a</title>
<path fill="none" stroke="black" d="M821.292,-211.135C819.381,-201.119 818.538,-188.387 823,-178 828.322,-165.611 837.881,-154.674 847.776,-145.829"/>
<polygon fill="black" stroke="black" points="850.283,-148.295 855.709,-139.196 845.792,-142.925 850.283,-148.295"/>
<text text-anchor="middle" x="839.5" y="-181.8" font-family="Times,serif" font-size="14.00">read</text>
</g>
<!-- 1_fwatchdog#ServerID_9c632c9c841a&#45;&gt;localhost:3000#ServerID_9c632c9c841a -->
<g id="edge18" class="edge"><title>1_fwatchdog#ServerID_9c632c9c841a&#45;&gt;localhost:3000#ServerID_9c632c9c841a</title>
<path fill="none" stroke="black" d="M879.015,-139.281C875.891,-154.265 870.012,-176.133 860,-193 857.65,-196.959 854.766,-200.814 851.68,-204.431"/>
<polygon fill="black" stroke="black" points="848.969,-202.207 844.731,-211.918 854.099,-206.969 848.969,-202.207"/>
<text text-anchor="middle" x="887" y="-181.8" font-family="Times,serif" font-size="14.00">write</text>
</g>
<!-- pipe:[240002549]#ServerID_9c632c9c841a -->
<g id="node17" class="node"><title>pipe:[240002549]#ServerID_9c632c9c841a</title>
<ellipse fill="none" stroke="black" cx="882" cy="-34" rx="215.562" ry="18"/>
<text text-anchor="middle" x="882" y="-30.3" font-family="Times,serif" font-size="14.00">pipe:[240002549]#ServerID_9c632c9c841a</text>
</g>
<!-- 1_fwatchdog#ServerID_9c632c9c841a&#45;&gt;pipe:[240002549]#ServerID_9c632c9c841a -->
<g id="edge22" class="edge"><title>1_fwatchdog#ServerID_9c632c9c841a&#45;&gt;pipe:[240002549]#ServerID_9c632c9c841a</title>
<path fill="none" stroke="black" d="M882,-102.799C882,-91.1626 882,-75.5479 882,-62.2368"/>
<polygon fill="black" stroke="black" points="885.5,-62.1754 882,-52.1754 878.5,-62.1755 885.5,-62.1754"/>
<text text-anchor="middle" x="901" y="-73.8" font-family="Times,serif" font-size="14.00">write</text>
</g>
<!-- /home/app/credentials.txt#ServerID_9c632c9c841a -->
<g id="node16" class="node"><title>/home/app/credentials.txt#ServerID_9c632c9c841a</title>
<ellipse fill="none" stroke="black" cx="269" cy="-229" rx="252.655" ry="18"/>
<text text-anchor="middle" x="269" y="-225.3" font-family="Times,serif" font-size="14.00">/home/app/credentials.txt#ServerID_9c632c9c841a</text>
</g>
<!-- /home/app/credentials.txt#ServerID_9c632c9c841a&#45;&gt;10_node#ServerID_9c632c9c841a -->
<g id="edge20" class="edge"><title>/home/app/credentials.txt#ServerID_9c632c9c841a&#45;&gt;10_node#ServerID_9c632c9c841a</title>
<path fill="none" stroke="black" d="M306.496,-211.087C347.302,-192.681 412.622,-163.217 456.867,-143.26"/>
<polygon fill="black" stroke="black" points="458.572,-146.331 466.248,-139.028 455.694,-139.95 458.572,-146.331"/>
<text text-anchor="middle" x="396.5" y="-181.8" font-family="Times,serif" font-size="14.00">read</text>
</g>
<!-- 10.1.80.1:61628#ServerID_OuterContainerID&#45;&gt;10.1.80.247:8080#ServerID_OuterContainerID -->
<g id="edge23" class="edge"><title>10.1.80.1:61628#ServerID_OuterContainerID&#45;&gt;10.1.80.247:8080#ServerID_OuterContainerID</title>
<path fill="none" stroke="black" d="M2062.69,-134.518C1935.29,-154.378 1687.62,-192.985 1553.89,-213.832"/>
<polygon fill="black" stroke="black" points="1553.02,-210.426 1543.68,-215.424 1554.1,-217.342 1553.02,-210.426"/>
<text text-anchor="middle" x="1802" y="-181.8" font-family="Times,serif" font-size="14.00">POST</text>
</g>
</g>
</svg>
