<?xml version="1.0" encoding="UTF-8" standalone="no"?>
<!DOCTYPE svg PUBLIC "-//W3C//DTD SVG 1.1//EN"
 "http://www.w3.org/Graphics/SVG/1.1/DTD/svg11.dtd">
<!-- Generated by graphviz version 2.38.0 (20140413.2041)
 -->
<!-- Title: G Pages: 1 -->
<svg width="7518pt" height="489pt"
 viewBox="0.00 0.00 7518.00 489.00" xmlns="http://www.w3.org/2000/svg" xmlns:xlink="http://www.w3.org/1999/xlink">
<g id="graph0" class="graph" transform="scale(1 1) rotate(0) translate(4 485)">
<title>G</title>
<polygon fill="white" stroke="none" points="-4,4 -4,-485 7514,-485 7514,4 -4,4"/>
<g id="clust1" class="cluster"><title>clusterServerID_0802701be25e</title>
<polygon fill="none" stroke="black" points="6101,-95 6101,-473 7497,-473 7497,-95 6101,-95"/>
<text text-anchor="middle" x="6799" y="-457.8" font-family="Times,serif" font-size="14.00">clusterServerID_0802701be25e</text>
</g>
<g id="clust2" class="cluster"><title>clusterServerID_667d78fb58&#45;55kvm</title>
<polygon fill="none" stroke="black" points="4205,-203 4205,-278 4553,-278 4553,-203 4205,-203"/>
<text text-anchor="middle" x="4379" y="-262.8" font-family="Times,serif" font-size="14.00">clusterServerID_667d78fb58&#45;55kvm</text>
</g>
<g id="clust3" class="cluster"><title>clusterServerID_6dcbcc88d5&#45;j9zwp</title>
<polygon fill="none" stroke="black" points="2904,-203 2904,-278 3246,-278 3246,-203 2904,-203"/>
<text text-anchor="middle" x="3075" y="-262.8" font-family="Times,serif" font-size="14.00">clusterServerID_6dcbcc88d5&#45;j9zwp</text>
</g>
<g id="clust4" class="cluster"><title>clusterServerID_736074b81582</title>
<polygon fill="none" stroke="black" points="8,-8 8,-278 1411,-278 1411,-8 8,-8"/>
<text text-anchor="middle" x="709.5" y="-262.8" font-family="Times,serif" font-size="14.00">clusterServerID_736074b81582</text>
</g>
<g id="clust5" class="cluster"><title>clusterServerID_OuterContainerID</title>
<polygon fill="none" stroke="black" points="1419,-8 1419,-170 6093,-170 6093,-8 1419,-8"/>
<text text-anchor="middle" x="3756" y="-154.8" font-family="Times,serif" font-size="14.00">clusterServerID_OuterContainerID</text>
</g>
<!-- localhost:3000#ServerID_736074b81582 -->
<g id="node1" class="node"><title>localhost:3000#ServerID_736074b81582</title>
<polygon fill="none" stroke="black" points="1114,-139 825.269,-121 1114,-103 1402.73,-121 1114,-139"/>
<text text-anchor="middle" x="1114" y="-117.3" font-family="Times,serif" font-size="14.00">localhost:3000#ServerID_736074b81582</text>
</g>
<!-- 10_node#ServerID_736074b81582 -->
<g id="node2" class="node"><title>10_node#ServerID_736074b81582</title>
<polygon fill="none" stroke="black" points="1339.5,-52 1070.5,-52 1070.5,-16 1339.5,-16 1339.5,-52"/>
<text text-anchor="middle" x="1205" y="-30.3" font-family="Times,serif" font-size="14.00">10_node#ServerID_736074b81582</text>
</g>
<!-- localhost:3000#ServerID_736074b81582&#45;&gt;10_node#ServerID_736074b81582 -->
<g id="edge1" class="edge"><title>localhost:3000#ServerID_736074b81582&#45;&gt;10_node#ServerID_736074b81582</title>
<path fill="none" stroke="black" d="M1131.12,-104.012C1144.62,-91.3989 1163.68,-73.5983 1179.05,-59.2349"/>
<polygon fill="black" stroke="black" points="1181.79,-61.4667 1186.71,-52.0828 1177.01,-56.3511 1181.79,-61.4667"/>
<text text-anchor="middle" x="1181.5" y="-73.8" font-family="Times,serif" font-size="14.00">read</text>
</g>
<!-- gateway:8080#ServerID_OuterContainerID -->
<g id="node7" class="node"><title>gateway:8080#ServerID_OuterContainerID</title>
<polygon fill="none" stroke="black" points="3075,-139 2770.52,-121 3075,-103 3379.48,-121 3075,-139"/>
<text text-anchor="middle" x="3075" y="-117.3" font-family="Times,serif" font-size="14.00">gateway:8080#ServerID_OuterContainerID</text>
</g>
<!-- 10_node#ServerID_736074b81582&#45;&gt;gateway:8080#ServerID_OuterContainerID -->
<g id="edge16" class="edge"><title>10_node#ServerID_736074b81582&#45;&gt;gateway:8080#ServerID_OuterContainerID</title>
<path fill="none" stroke="black" d="M1339.65,-46.8812C1364.68,-48.8114 1390.62,-50.6251 1415,-52 2013.02,-85.7307 2163.96,-61.5903 2762,-95 2824.64,-98.4995 2894.22,-103.905 2951.84,-108.796"/>
<polygon fill="black" stroke="black" points="2951.82,-112.307 2962.08,-109.671 2952.42,-105.333 2951.82,-112.307"/>
<text text-anchor="middle" x="2564" y="-73.8" font-family="Times,serif" font-size="14.00">connect</text>
</g>
<!-- 10.152.183.10:53#ServerID_OuterContainerID -->
<g id="node11" class="node"><title>10.152.183.10:53#ServerID_OuterContainerID</title>
<polygon fill="none" stroke="black" points="5052,-139 4724.56,-121 5052,-103 5379.44,-121 5052,-139"/>
<text text-anchor="middle" x="5052" y="-117.3" font-family="Times,serif" font-size="14.00">10.152.183.10:53#ServerID_OuterContainerID</text>
</g>
<!-- 10_node#ServerID_736074b81582&#45;&gt;10.152.183.10:53#ServerID_OuterContainerID -->
<g id="edge13" class="edge"><title>10_node#ServerID_736074b81582&#45;&gt;10.152.183.10:53#ServerID_OuterContainerID</title>
<path fill="none" stroke="black" d="M1339.63,-47.2147C1364.67,-49.1121 1390.61,-50.8285 1415,-52 1939.79,-77.2102 2071.7,-59.8059 2597,-70 2879.69,-75.486 2950.29,-80.7132 3233,-85 3562.53,-89.9966 4386.71,-81.6546 4716,-95 4785.35,-97.8105 4862.59,-103.386 4925.51,-108.56"/>
<polygon fill="black" stroke="black" points="4925.23,-112.049 4935.49,-109.387 4925.81,-105.073 4925.23,-112.049"/>
<text text-anchor="middle" x="3257.5" y="-73.8" font-family="Times,serif" font-size="14.00">sendto</text>
</g>
<!-- 1_fwatchdog#ServerID_736074b81582 -->
<g id="node3" class="node"><title>1_fwatchdog#ServerID_736074b81582</title>
<polygon fill="none" stroke="black" points="1403,-247 1103,-247 1103,-211 1403,-211 1403,-247"/>
<text text-anchor="middle" x="1253" y="-225.3" font-family="Times,serif" font-size="14.00">1_fwatchdog#ServerID_736074b81582</text>
</g>
<!-- 1_fwatchdog#ServerID_736074b81582&#45;&gt;localhost:3000#ServerID_736074b81582 -->
<g id="edge2" class="edge"><title>1_fwatchdog#ServerID_736074b81582&#45;&gt;localhost:3000#ServerID_736074b81582</title>
<path fill="none" stroke="black" d="M1230.67,-210.969C1206.85,-192.803 1169.03,-163.963 1142.94,-144.068"/>
<polygon fill="black" stroke="black" points="1144.99,-141.229 1134.91,-137.948 1140.74,-146.795 1144.99,-141.229"/>
<text text-anchor="middle" x="1224" y="-181.8" font-family="Times,serif" font-size="14.00">write</text>
</g>
<!-- 1_fwatchdog#ServerID_6dcbcc88d5&#45;j9zwp -->
<g id="node4" class="node"><title>1_fwatchdog#ServerID_6dcbcc88d5&#45;j9zwp</title>
<polygon fill="none" stroke="black" points="3238,-247 2912,-247 2912,-211 3238,-211 3238,-247"/>
<text text-anchor="middle" x="3075" y="-225.3" font-family="Times,serif" font-size="14.00">1_fwatchdog#ServerID_6dcbcc88d5&#45;j9zwp</text>
</g>
<!-- 10.1.80.93:8080#ServerID_OuterContainerID -->
<g id="node5" class="node"><title>10.1.80.93:8080#ServerID_OuterContainerID</title>
<polygon fill="none" stroke="black" points="3716,-139 3397.1,-121 3716,-103 4034.9,-121 3716,-139"/>
<text text-anchor="middle" x="3716" y="-117.3" font-family="Times,serif" font-size="14.00">10.1.80.93:8080#ServerID_OuterContainerID</text>
</g>
<!-- 1_fwatchdog#ServerID_6dcbcc88d5&#45;j9zwp&#45;&gt;10.1.80.93:8080#ServerID_OuterContainerID -->
<g id="edge3" class="edge"><title>1_fwatchdog#ServerID_6dcbcc88d5&#45;j9zwp&#45;&gt;10.1.80.93:8080#ServerID_OuterContainerID</title>
<path fill="none" stroke="black" d="M3177.99,-210.969C3302.99,-190.299 3511.56,-155.807 3628.92,-136.401"/>
<polygon fill="black" stroke="black" points="3629.65,-139.828 3638.94,-134.743 3628.5,-132.921 3629.65,-139.828"/>
<text text-anchor="middle" x="3397" y="-181.8" font-family="Times,serif" font-size="14.00">POST</text>
</g>
<!-- 10.1.80.93:56454#ServerID_OuterContainerID -->
<g id="node6" class="node"><title>10.1.80.93:56454#ServerID_OuterContainerID</title>
<polygon fill="none" stroke="black" points="2426,-139 2098.56,-121 2426,-103 2753.44,-121 2426,-139"/>
<text text-anchor="middle" x="2426" y="-117.3" font-family="Times,serif" font-size="14.00">10.1.80.93:56454#ServerID_OuterContainerID</text>
</g>
<!-- 1_fwatchdog#ServerID_6dcbcc88d5&#45;j9zwp&#45;&gt;10.1.80.93:56454#ServerID_OuterContainerID -->
<g id="edge12" class="edge"><title>1_fwatchdog#ServerID_6dcbcc88d5&#45;j9zwp&#45;&gt;10.1.80.93:56454#ServerID_OuterContainerID</title>
<path fill="none" stroke="black" d="M2911.58,-220.113C2840.63,-214.974 2756.81,-206.589 2682,-193 2610.59,-180.029 2530.24,-156.178 2478.93,-139.723"/>
<polygon fill="black" stroke="black" points="2479.97,-136.382 2469.38,-136.639 2477.82,-143.043 2479.97,-136.382"/>
<text text-anchor="middle" x="2724" y="-181.8" font-family="Times,serif" font-size="14.00">RESPONSE</text>
</g>
<!-- 1_fwatchdog#ServerID_6dcbcc88d5&#45;j9zwp&#45;&gt;gateway:8080#ServerID_OuterContainerID -->
<g id="edge5" class="edge"><title>1_fwatchdog#ServerID_6dcbcc88d5&#45;j9zwp&#45;&gt;gateway:8080#ServerID_OuterContainerID</title>
<path fill="none" stroke="black" d="M3056.04,-210.736C3051.56,-205.523 3047.39,-199.455 3045,-193 3039.21,-177.351 3046.18,-160.103 3054.85,-146.526"/>
<polygon fill="black" stroke="black" points="3057.82,-148.389 3060.68,-138.187 3052.08,-144.38 3057.82,-148.389"/>
<text text-anchor="middle" x="3065" y="-181.8" font-family="Times,serif" font-size="14.00">POST</text>
</g>
<!-- 10.1.80.93:8080#ServerID_OuterContainerID&#45;&gt;1_fwatchdog#ServerID_6dcbcc88d5&#45;j9zwp -->
<g id="edge9" class="edge"><title>10.1.80.93:8080#ServerID_OuterContainerID&#45;&gt;1_fwatchdog#ServerID_6dcbcc88d5&#45;j9zwp</title>
<path fill="none" stroke="black" d="M3666.06,-136.212C3607.73,-152.296 3508.12,-178.181 3421,-193 3365.25,-202.484 3303.97,-209.714 3248.68,-215.069"/>
<polygon fill="black" stroke="black" points="3248.05,-211.613 3238.43,-216.047 3248.71,-218.581 3248.05,-211.613"/>
<text text-anchor="middle" x="3537" y="-181.8" font-family="Times,serif" font-size="14.00">RESPONSE</text>
</g>
<!-- 10.1.80.1:2617#ServerID_OuterContainerID -->
<g id="node21" class="node"><title>10.1.80.1:2617#ServerID_OuterContainerID</title>
<polygon fill="none" stroke="black" points="3653,-52 3342.15,-34 3653,-16 3963.85,-34 3653,-52"/>
<text text-anchor="middle" x="3653" y="-30.3" font-family="Times,serif" font-size="14.00">10.1.80.1:2617#ServerID_OuterContainerID</text>
</g>
<!-- 10.1.80.93:8080#ServerID_OuterContainerID&#45;&gt;10.1.80.1:2617#ServerID_OuterContainerID -->
<g id="edge29" class="edge"><title>10.1.80.93:8080#ServerID_OuterContainerID&#45;&gt;10.1.80.1:2617#ServerID_OuterContainerID</title>
<path fill="none" stroke="black" d="M3710.77,-103.242C3707.09,-93.0254 3701.47,-80.0459 3694,-70 3690.72,-65.5876 3686.79,-61.3571 3682.67,-57.4574"/>
<polygon fill="black" stroke="black" points="3684.98,-54.8282 3675.17,-50.8274 3680.34,-60.0728 3684.98,-54.8282"/>
<text text-anchor="middle" x="3745" y="-73.8" font-family="Times,serif" font-size="14.00">RESPONSE</text>
</g>
<!-- 10.0.88.125:31112#ServerID_OuterContainerID -->
<g id="node22" class="node"><title>10.0.88.125:31112#ServerID_OuterContainerID</title>
<polygon fill="none" stroke="black" points="4317,-52 3981.52,-34 4317,-16 4652.48,-34 4317,-52"/>
<text text-anchor="middle" x="4317" y="-30.3" font-family="Times,serif" font-size="14.00">10.0.88.125:31112#ServerID_OuterContainerID</text>
</g>
<!-- 10.1.80.93:8080#ServerID_OuterContainerID&#45;&gt;10.0.88.125:31112#ServerID_OuterContainerID -->
<g id="edge30" class="edge"><title>10.1.80.93:8080#ServerID_OuterContainerID&#45;&gt;10.0.88.125:31112#ServerID_OuterContainerID</title>
<path fill="none" stroke="black" d="M3802.11,-107.822C3912.65,-92.1876 4103.95,-65.1313 4219.67,-48.7661"/>
<polygon fill="black" stroke="black" points="4220.18,-52.2289 4229.59,-47.3629 4219.2,-45.2979 4220.18,-52.2289"/>
<text text-anchor="middle" x="4095" y="-73.8" font-family="Times,serif" font-size="14.00">RESPONSE</text>
</g>
<!-- 10.1.80.93:56454#ServerID_OuterContainerID&#45;&gt;1_fwatchdog#ServerID_736074b81582 -->
<g id="edge6" class="edge"><title>10.1.80.93:56454#ServerID_OuterContainerID&#45;&gt;1_fwatchdog#ServerID_736074b81582</title>
<path fill="none" stroke="black" d="M2348.12,-134.764C2280.15,-145.511 2178.78,-160.596 2090,-170 1855.25,-194.868 1582.28,-211.495 1413.56,-220.348"/>
<polygon fill="black" stroke="black" points="1413.16,-216.864 1403.35,-220.881 1413.52,-223.855 1413.16,-216.864"/>
<text text-anchor="middle" x="2016.5" y="-181.8" font-family="Times,serif" font-size="14.00">read</text>
</g>
<!-- 10.1.80.93:56454#ServerID_OuterContainerID&#45;&gt;1_fwatchdog#ServerID_6dcbcc88d5&#45;j9zwp -->
<g id="edge4" class="edge"><title>10.1.80.93:56454#ServerID_OuterContainerID&#45;&gt;1_fwatchdog#ServerID_6dcbcc88d5&#45;j9zwp</title>
<path fill="none" stroke="black" d="M2504.02,-134.743C2617.65,-153.301 2829.38,-187.883 2960.64,-209.321"/>
<polygon fill="black" stroke="black" points="2960.29,-212.811 2970.73,-210.969 2961.42,-205.903 2960.29,-212.811"/>
<text text-anchor="middle" x="2867" y="-181.8" font-family="Times,serif" font-size="14.00">POST</text>
</g>
<!-- gateway:8080#ServerID_OuterContainerID&#45;&gt;1_fwatchdog#ServerID_6dcbcc88d5&#45;j9zwp -->
<g id="edge11" class="edge"><title>gateway:8080#ServerID_OuterContainerID&#45;&gt;1_fwatchdog#ServerID_6dcbcc88d5&#45;j9zwp</title>
<path fill="none" stroke="black" d="M3080.06,-138.927C3083.71,-153.311 3087.59,-174.508 3085,-193 3084.64,-195.574 3084.14,-198.224 3083.55,-200.859"/>
<polygon fill="black" stroke="black" points="3080.1,-200.198 3080.96,-210.759 3086.87,-201.971 3080.1,-200.198"/>
<text text-anchor="middle" x="3128" y="-181.8" font-family="Times,serif" font-size="14.00">RESPONSE</text>
</g>
<!-- 10.1.80.93:35116#ServerID_OuterContainerID -->
<g id="node8" class="node"><title>10.1.80.93:35116#ServerID_OuterContainerID</title>
<polygon fill="none" stroke="black" points="4380,-139 4052.56,-121 4380,-103 4707.44,-121 4380,-139"/>
<text text-anchor="middle" x="4380" y="-117.3" font-family="Times,serif" font-size="14.00">10.1.80.93:35116#ServerID_OuterContainerID</text>
</g>
<!-- 1_fwatchdog#ServerID_667d78fb58&#45;55kvm -->
<g id="node9" class="node"><title>1_fwatchdog#ServerID_667d78fb58&#45;55kvm</title>
<polygon fill="none" stroke="black" points="4545,-247 4213,-247 4213,-211 4545,-211 4545,-247"/>
<text text-anchor="middle" x="4379" y="-225.3" font-family="Times,serif" font-size="14.00">1_fwatchdog#ServerID_667d78fb58&#45;55kvm</text>
</g>
<!-- 10.1.80.93:35116#ServerID_OuterContainerID&#45;&gt;1_fwatchdog#ServerID_667d78fb58&#45;55kvm -->
<g id="edge7" class="edge"><title>10.1.80.93:35116#ServerID_OuterContainerID&#45;&gt;1_fwatchdog#ServerID_667d78fb58&#45;55kvm</title>
<path fill="none" stroke="black" d="M4367.81,-138.692C4360.8,-149.353 4352.67,-163.798 4349,-178 4347.33,-184.455 4346.69,-186.747 4349,-193 4350.23,-196.328 4351.94,-199.554 4353.91,-202.612"/>
<polygon fill="black" stroke="black" points="4351.22,-204.86 4360.04,-210.736 4356.81,-200.644 4351.22,-204.86"/>
<text text-anchor="middle" x="4369" y="-181.8" font-family="Times,serif" font-size="14.00">POST</text>
</g>
<!-- 1_fwatchdog#ServerID_0802701be25e -->
<g id="node13" class="node"><title>1_fwatchdog#ServerID_0802701be25e</title>
<polygon fill="none" stroke="black" points="7420.5,-442 7121.5,-442 7121.5,-406 7420.5,-406 7420.5,-442"/>
<text text-anchor="middle" x="7271" y="-420.3" font-family="Times,serif" font-size="14.00">1_fwatchdog#ServerID_0802701be25e</text>
</g>
<!-- 10.1.80.93:35116#ServerID_OuterContainerID&#45;&gt;1_fwatchdog#ServerID_0802701be25e -->
<g id="edge17" class="edge"><title>10.1.80.93:35116#ServerID_OuterContainerID&#45;&gt;1_fwatchdog#ServerID_0802701be25e</title>
<path fill="none" stroke="black" d="M4451.46,-135.108C4519.27,-146.856 4624.18,-163.247 4716,-170 4896.18,-183.251 6161.69,-166.599 6342,-178 6600.28,-194.331 7326.44,-125.244 7498,-319 7536.07,-361.998 7473.94,-388.345 7405.13,-403.76"/>
<polygon fill="black" stroke="black" points="7403.97,-400.428 7394.94,-405.955 7405.45,-407.271 7403.97,-400.428"/>
<text text-anchor="middle" x="7491.5" y="-289.8" font-family="Times,serif" font-size="14.00">read</text>
</g>
<!-- 1_fwatchdog#ServerID_667d78fb58&#45;55kvm&#45;&gt;10.1.80.93:35116#ServerID_OuterContainerID -->
<g id="edge10" class="edge"><title>1_fwatchdog#ServerID_667d78fb58&#45;55kvm&#45;&gt;10.1.80.93:35116#ServerID_OuterContainerID</title>
<path fill="none" stroke="black" d="M4384.96,-210.759C4386.61,-205.165 4388.18,-198.883 4389,-193 4391.04,-178.436 4389.27,-162.162 4386.78,-148.873"/>
<polygon fill="black" stroke="black" points="4390.17,-148.006 4384.68,-138.944 4383.32,-149.452 4390.17,-148.006"/>
<text text-anchor="middle" x="4432" y="-181.8" font-family="Times,serif" font-size="14.00">RESPONSE</text>
</g>
<!-- /etc/hosts#ServerID_736074b81582 -->
<g id="node10" class="node"><title>/etc/hosts#ServerID_736074b81582</title>
<ellipse fill="none" stroke="black" cx="627" cy="-121" rx="180.868" ry="18"/>
<text text-anchor="middle" x="627" y="-117.3" font-family="Times,serif" font-size="14.00">/etc/hosts#ServerID_736074b81582</text>
</g>
<!-- /etc/hosts#ServerID_736074b81582&#45;&gt;10_node#ServerID_736074b81582 -->
<g id="edge8" class="edge"><title>/etc/hosts#ServerID_736074b81582&#45;&gt;10_node#ServerID_736074b81582</title>
<path fill="none" stroke="black" d="M723.744,-105.773C821.268,-91.4312 972.248,-69.2282 1079.06,-53.5208"/>
<polygon fill="black" stroke="black" points="1079.87,-56.9393 1089.25,-52.0215 1078.85,-50.0138 1079.87,-56.9393"/>
<text text-anchor="middle" x="967.5" y="-73.8" font-family="Times,serif" font-size="14.00">read</text>
</g>
<!-- 10.152.183.10:53#ServerID_OuterContainerID&#45;&gt;10_node#ServerID_736074b81582 -->
<g id="edge15" class="edge"><title>10.152.183.10:53#ServerID_OuterContainerID&#45;&gt;10_node#ServerID_736074b81582</title>
<path fill="none" stroke="black" d="M4935.1,-109.413C4870.55,-104.044 4788.91,-98.03 4716,-95 4211.53,-74.0345 4084.69,-99.9168 3580,-85 3447.45,-81.0822 3414.55,-73.9734 3282,-70 2452.56,-45.1366 2243.97,-89.502 1415,-52 1393.85,-51.0431 1371.53,-49.6498 1349.64,-48.0664"/>
<polygon fill="black" stroke="black" points="1349.86,-44.5727 1339.63,-47.3263 1349.34,-51.5536 1349.86,-44.5727"/>
<text text-anchor="middle" x="3613" y="-73.8" font-family="Times,serif" font-size="14.00">recvfrom</text>
</g>
<!-- 11_node#ServerID_0802701be25e -->
<g id="node16" class="node"><title>11_node#ServerID_0802701be25e</title>
<polygon fill="none" stroke="black" points="6394.5,-247 6127.5,-247 6127.5,-211 6394.5,-211 6394.5,-247"/>
<text text-anchor="middle" x="6261" y="-225.3" font-family="Times,serif" font-size="14.00">11_node#ServerID_0802701be25e</text>
</g>
<!-- 10.152.183.10:53#ServerID_OuterContainerID&#45;&gt;11_node#ServerID_0802701be25e -->
<g id="edge23" class="edge"><title>10.152.183.10:53#ServerID_OuterContainerID&#45;&gt;11_node#ServerID_0802701be25e</title>
<path fill="none" stroke="black" d="M5108.78,-135.968C5179.53,-152.722 5304.37,-180.153 5413,-193 5659.11,-222.107 5947.86,-228.075 6117,-228.745"/>
<polygon fill="black" stroke="black" points="6117.2,-232.246 6127.21,-228.78 6117.22,-225.246 6117.2,-232.246"/>
<text text-anchor="middle" x="5446" y="-181.8" font-family="Times,serif" font-size="14.00">recvfrom</text>
</g>
<!-- /etc/resolv.conf#ServerID_736074b81582 -->
<g id="node12" class="node"><title>/etc/resolv.conf#ServerID_736074b81582</title>
<ellipse fill="none" stroke="black" cx="222" cy="-121" rx="206.063" ry="18"/>
<text text-anchor="middle" x="222" y="-117.3" font-family="Times,serif" font-size="14.00">/etc/resolv.conf#ServerID_736074b81582</text>
</g>
<!-- /etc/resolv.conf#ServerID_736074b81582&#45;&gt;10_node#ServerID_736074b81582 -->
<g id="edge14" class="edge"><title>/etc/resolv.conf#ServerID_736074b81582&#45;&gt;10_node#ServerID_736074b81582</title>
<path fill="none" stroke="black" d="M335.726,-105.963C368.396,-102.152 404.086,-98.1981 437,-95 653.871,-73.9273 905.762,-55.375 1060.26,-44.6701"/>
<polygon fill="black" stroke="black" points="1060.56,-48.1579 1070.29,-43.9764 1060.08,-41.1745 1060.56,-48.1579"/>
<text text-anchor="middle" x="728.5" y="-73.8" font-family="Times,serif" font-size="14.00">read</text>
</g>
<!-- localhost:3000#ServerID_0802701be25e -->
<g id="node14" class="node"><title>localhost:3000#ServerID_0802701be25e</title>
<polygon fill="none" stroke="black" points="7202,-355 6915.45,-337 7202,-319 7488.55,-337 7202,-355"/>
<text text-anchor="middle" x="7202" y="-333.3" font-family="Times,serif" font-size="14.00">localhost:3000#ServerID_0802701be25e</text>
</g>
<!-- 1_fwatchdog#ServerID_0802701be25e&#45;&gt;localhost:3000#ServerID_0802701be25e -->
<g id="edge18" class="edge"><title>1_fwatchdog#ServerID_0802701be25e&#45;&gt;localhost:3000#ServerID_0802701be25e</title>
<path fill="none" stroke="black" d="M7257.04,-405.799C7246.83,-393.228 7232.86,-376.014 7221.55,-362.077"/>
<polygon fill="black" stroke="black" points="7224.26,-359.868 7215.24,-354.31 7218.83,-364.28 7224.26,-359.868"/>
<text text-anchor="middle" x="7259" y="-376.8" font-family="Times,serif" font-size="14.00">write</text>
</g>
<!-- localhost:3000#ServerID_0802701be25e&#45;&gt;11_node#ServerID_0802701be25e -->
<g id="edge20" class="edge"><title>localhost:3000#ServerID_0802701be25e&#45;&gt;11_node#ServerID_0802701be25e</title>
<path fill="none" stroke="black" d="M7104.84,-325.055C6938.57,-306.325 6598.67,-268.038 6404.84,-246.203"/>
<polygon fill="black" stroke="black" points="6405.19,-242.72 6394.86,-245.079 6404.41,-249.676 6405.19,-242.72"/>
<text text-anchor="middle" x="6886.5" y="-289.8" font-family="Times,serif" font-size="14.00">read</text>
</g>
<!-- /etc/hosts#ServerID_0802701be25e -->
<g id="node15" class="node"><title>/etc/hosts#ServerID_0802701be25e</title>
<ellipse fill="none" stroke="black" cx="6717" cy="-337" rx="180.068" ry="18"/>
<text text-anchor="middle" x="6717" y="-333.3" font-family="Times,serif" font-size="14.00">/etc/hosts#ServerID_0802701be25e</text>
</g>
<!-- /etc/hosts#ServerID_0802701be25e&#45;&gt;11_node#ServerID_0802701be25e -->
<g id="edge19" class="edge"><title>/etc/hosts#ServerID_0802701be25e&#45;&gt;11_node#ServerID_0802701be25e</title>
<path fill="none" stroke="black" d="M6649.22,-320.245C6568,-301.364 6431.92,-269.732 6344.35,-249.374"/>
<polygon fill="black" stroke="black" points="6344.98,-245.927 6334.44,-247.072 6343.39,-252.745 6344.98,-245.927"/>
<text text-anchor="middle" x="6572.5" y="-289.8" font-family="Times,serif" font-size="14.00">read</text>
</g>
<!-- 11_node#ServerID_0802701be25e&#45;&gt;10.152.183.10:53#ServerID_OuterContainerID -->
<g id="edge22" class="edge"><title>11_node#ServerID_0802701be25e&#45;&gt;10.152.183.10:53#ServerID_OuterContainerID</title>
<path fill="none" stroke="black" d="M6127.25,-222.258C5955.71,-214.173 5649.17,-197.291 5388,-170 5303.41,-161.16 5207.39,-147.029 5139.72,-136.384"/>
<polygon fill="black" stroke="black" points="5139.96,-132.878 5129.53,-134.773 5138.86,-139.792 5139.96,-132.878"/>
<text text-anchor="middle" x="5652.5" y="-181.8" font-family="Times,serif" font-size="14.00">sendto</text>
</g>
<!-- 182.255.33.134:443#ServerID_OuterContainerID -->
<g id="node19" class="node"><title>182.255.33.134:443#ServerID_OuterContainerID</title>
<polygon fill="none" stroke="black" points="5741,-139 5397.47,-121 5741,-103 6084.53,-121 5741,-139"/>
<text text-anchor="middle" x="5741" y="-117.3" font-family="Times,serif" font-size="14.00">182.255.33.134:443#ServerID_OuterContainerID</text>
</g>
<!-- 11_node#ServerID_0802701be25e&#45;&gt;182.255.33.134:443#ServerID_OuterContainerID -->
<g id="edge25" class="edge"><title>11_node#ServerID_0802701be25e&#45;&gt;182.255.33.134:443#ServerID_OuterContainerID</title>
<path fill="none" stroke="black" d="M6155.72,-210.994C6123.93,-205.575 6088.99,-199.334 6057,-193 5971.13,-175.999 5872.85,-153.42 5809,-138.334"/>
<polygon fill="black" stroke="black" points="5809.59,-134.878 5799.05,-135.979 5807.98,-141.689 5809.59,-134.878"/>
<text text-anchor="middle" x="6086" y="-181.8" font-family="Times,serif" font-size="14.00">connect</text>
</g>
<!-- 11_node#ServerID_0802701be25e&#45;&gt;182.255.33.134:443#ServerID_OuterContainerID -->
<g id="edge26" class="edge"><title>11_node#ServerID_0802701be25e&#45;&gt;182.255.33.134:443#ServerID_OuterContainerID</title>
<path fill="none" stroke="black" d="M6217.85,-210.914C6189.11,-200.108 6150.27,-186.604 6115,-178 6031.54,-157.639 5935.69,-143.463 5861.92,-134.467"/>
<polygon fill="black" stroke="black" points="5862.01,-130.953 5851.66,-133.232 5861.17,-137.903 5862.01,-130.953"/>
<text text-anchor="middle" x="6183" y="-181.8" font-family="Times,serif" font-size="14.00">write</text>
</g>
<!-- /home/app/escape2.sh#ServerID_0802701be25e -->
<g id="node20" class="node"><title>/home/app/escape2.sh#ServerID_0802701be25e</title>
<ellipse fill="none" stroke="black" cx="6346" cy="-121" rx="237.458" ry="18"/>
<text text-anchor="middle" x="6346" y="-117.3" font-family="Times,serif" font-size="14.00">/home/app/escape2.sh#ServerID_0802701be25e</text>
</g>
<!-- 11_node#ServerID_0802701be25e&#45;&gt;/home/app/escape2.sh#ServerID_0802701be25e -->
<g id="edge27" class="edge"><title>11_node#ServerID_0802701be25e&#45;&gt;/home/app/escape2.sh#ServerID_0802701be25e</title>
<path fill="none" stroke="black" d="M6274.66,-210.969C6288.54,-193.661 6310.19,-166.663 6326,-146.944"/>
<polygon fill="black" stroke="black" points="6328.85,-148.98 6332.38,-138.988 6323.39,-144.6 6328.85,-148.98"/>
<text text-anchor="middle" x="6319" y="-181.8" font-family="Times,serif" font-size="14.00">write</text>
</g>
<!-- /etc/resolv.conf#ServerID_0802701be25e -->
<g id="node17" class="node"><title>/etc/resolv.conf#ServerID_0802701be25e</title>
<ellipse fill="none" stroke="black" cx="6314" cy="-337" rx="205.264" ry="18"/>
<text text-anchor="middle" x="6314" y="-333.3" font-family="Times,serif" font-size="14.00">/etc/resolv.conf#ServerID_0802701be25e</text>
</g>
<!-- /etc/resolv.conf#ServerID_0802701be25e&#45;&gt;11_node#ServerID_0802701be25e -->
<g id="edge21" class="edge"><title>/etc/resolv.conf#ServerID_0802701be25e&#45;&gt;11_node#ServerID_0802701be25e</title>
<path fill="none" stroke="black" d="M6305.48,-318.969C6297.04,-302.071 6283.97,-275.935 6274.18,-256.356"/>
<polygon fill="black" stroke="black" points="6277.27,-254.72 6269.67,-247.341 6271.01,-257.85 6277.27,-254.72"/>
<text text-anchor="middle" x="6311.5" y="-289.8" font-family="Times,serif" font-size="14.00">read</text>
</g>
<!-- 10.1.80.93:56466#ServerID_OuterContainerID -->
<g id="node18" class="node"><title>10.1.80.93:56466#ServerID_OuterContainerID</title>
<polygon fill="none" stroke="black" points="1754,-139 1426.56,-121 1754,-103 2081.44,-121 1754,-139"/>
<text text-anchor="middle" x="1754" y="-117.3" font-family="Times,serif" font-size="14.00">10.1.80.93:56466#ServerID_OuterContainerID</text>
</g>
<!-- 10.1.80.93:56466#ServerID_OuterContainerID&#45;&gt;1_fwatchdog#ServerID_736074b81582 -->
<g id="edge24" class="edge"><title>10.1.80.93:56466#ServerID_OuterContainerID&#45;&gt;1_fwatchdog#ServerID_736074b81582</title>
<path fill="none" stroke="black" d="M1690.01,-135.538C1602.05,-154.15 1443.31,-187.735 1343.29,-208.898"/>
<polygon fill="black" stroke="black" points="1342.55,-205.475 1333.49,-210.969 1344,-212.323 1342.55,-205.475"/>
<text text-anchor="middle" x="1505.5" y="-181.8" font-family="Times,serif" font-size="14.00">read</text>
</g>
<!-- 10.1.80.1:2617#ServerID_OuterContainerID&#45;&gt;10.1.80.93:8080#ServerID_OuterContainerID -->
<g id="edge28" class="edge"><title>10.1.80.1:2617#ServerID_OuterContainerID&#45;&gt;10.1.80.93:8080#ServerID_OuterContainerID</title>
<path fill="none" stroke="black" d="M3649.34,-51.9032C3648.04,-62.1749 3648.12,-75.1609 3654,-85 3657.33,-90.5711 3661.9,-95.3292 3667.06,-99.3735"/>
<polygon fill="black" stroke="black" points="3665.33,-102.43 3675.57,-105.155 3669.27,-96.64 3665.33,-102.43"/>
<text text-anchor="middle" x="3674" y="-73.8" font-family="Times,serif" font-size="14.00">POST</text>
</g>
</g>
</svg>
