<?xml version="1.0" encoding="UTF-8" standalone="no"?>
<!DOCTYPE svg PUBLIC "-//W3C//DTD SVG 1.1//EN"
 "http://www.w3.org/Graphics/SVG/1.1/DTD/svg11.dtd">
<!-- Generated by graphviz version 2.38.0 (20140413.2041)
 -->
<!-- Title: G Pages: 1 -->
<svg width="5291pt" height="684pt"
 viewBox="0.00 0.00 5291.00 684.00" xmlns="http://www.w3.org/2000/svg" xmlns:xlink="http://www.w3.org/1999/xlink">
<g id="graph0" class="graph" transform="scale(1 1) rotate(0) translate(4 680)">
<title>G</title>
<polygon fill="white" stroke="none" points="-4,4 -4,-680 5287,-680 5287,4 -4,4"/>
<g id="clust1" class="cluster"><title>clusterServerID_667d78fb58&#45;2fhs5</title>
<polygon fill="none" stroke="black" points="853,-398 853,-473 1193,-473 1193,-398 853,-398"/>
<text text-anchor="middle" x="1023" y="-457.8" font-family="Times,serif" font-size="14.00">clusterServerID_667d78fb58&#45;2fhs5</text>
</g>
<g id="clust2" class="cluster"><title>clusterServerID_6dcbcc88d5&#45;4vpdn</title>
<polygon fill="none" stroke="black" points="4931,-182 4931,-257 5275,-257 5275,-182 4931,-182"/>
<text text-anchor="middle" x="5103" y="-241.8" font-family="Times,serif" font-size="14.00">clusterServerID_6dcbcc88d5&#45;4vpdn</text>
</g>
<g id="clust3" class="cluster"><title>clusterServerID_79226724f3b6</title>
<polygon fill="none" stroke="black" points="3363,-8 3363,-257 4923,-257 4923,-8 3363,-8"/>
<text text-anchor="middle" x="4143" y="-241.8" font-family="Times,serif" font-size="14.00">clusterServerID_79226724f3b6</text>
</g>
<g id="clust4" class="cluster"><title>clusterServerID_OuterContainerID</title>
<polygon fill="none" stroke="black" points="8,-182 8,-365 3355,-365 3355,-182 8,-182"/>
<text text-anchor="middle" x="1681.5" y="-349.8" font-family="Times,serif" font-size="14.00">clusterServerID_OuterContainerID</text>
</g>
<g id="clust5" class="cluster"><title>clusterServerID_d4de233c55aa</title>
<polygon fill="none" stroke="black" points="1525,-398 1525,-668 2915,-668 2915,-398 1525,-398"/>
<text text-anchor="middle" x="2220" y="-652.8" font-family="Times,serif" font-size="14.00">clusterServerID_d4de233c55aa</text>
</g>
<!-- 1_fwatchdog#ServerID_667d78fb58&#45;2fhs5 -->
<g id="node1" class="node"><title>1_fwatchdog#ServerID_667d78fb58&#45;2fhs5</title>
<polygon fill="none" stroke="black" points="1184.5,-442 861.5,-442 861.5,-406 1184.5,-406 1184.5,-442"/>
<text text-anchor="middle" x="1023" y="-420.3" font-family="Times,serif" font-size="14.00">1_fwatchdog#ServerID_667d78fb58&#45;2fhs5</text>
</g>
<!-- 10.1.80.247:58626#ServerID_OuterContainerID -->
<g id="node2" class="node"><title>10.1.80.247:58626#ServerID_OuterContainerID</title>
<polygon fill="none" stroke="black" points="1024,-334 688.515,-316 1024,-298 1359.48,-316 1024,-334"/>
<text text-anchor="middle" x="1024" y="-312.3" font-family="Times,serif" font-size="14.00">10.1.80.247:58626#ServerID_OuterContainerID</text>
</g>
<!-- 1_fwatchdog#ServerID_667d78fb58&#45;2fhs5&#45;&gt;10.1.80.247:58626#ServerID_OuterContainerID -->
<g id="edge1" class="edge"><title>1_fwatchdog#ServerID_667d78fb58&#45;2fhs5&#45;&gt;10.1.80.247:58626#ServerID_OuterContainerID</title>
<path fill="none" stroke="black" d="M987.261,-405.861C980.725,-401.032 974.784,-395.108 971,-388 967.867,-382.115 968.534,-379.194 971,-373 976.002,-360.439 985.306,-349.073 994.74,-339.914"/>
<polygon fill="black" stroke="black" points="997.224,-342.386 1002.25,-333.061 992.507,-337.214 997.224,-342.386"/>
<text text-anchor="middle" x="1013" y="-376.8" font-family="Times,serif" font-size="14.00">RESPONSE</text>
</g>
<!-- 10.1.80.247:58626#ServerID_OuterContainerID&#45;&gt;1_fwatchdog#ServerID_667d78fb58&#45;2fhs5 -->
<g id="edge2" class="edge"><title>10.1.80.247:58626#ServerID_OuterContainerID&#45;&gt;1_fwatchdog#ServerID_667d78fb58&#45;2fhs5</title>
<path fill="none" stroke="black" d="M1039.08,-333.48C1050.24,-347.767 1062.35,-369.067 1055,-388 1053.64,-391.507 1051.74,-394.876 1049.55,-398.046"/>
<polygon fill="black" stroke="black" points="1046.75,-395.944 1043.2,-405.928 1052.2,-400.335 1046.75,-395.944"/>
<text text-anchor="middle" x="1078" y="-376.8" font-family="Times,serif" font-size="14.00">POST</text>
</g>
<!-- 1_fwatchdog#ServerID_79226724f3b6 -->
<g id="node13" class="node"><title>1_fwatchdog#ServerID_79226724f3b6</title>
<polygon fill="none" stroke="black" points="4439,-226 4143,-226 4143,-190 4439,-190 4439,-226"/>
<text text-anchor="middle" x="4291" y="-204.3" font-family="Times,serif" font-size="14.00">1_fwatchdog#ServerID_79226724f3b6</text>
</g>
<!-- 10.1.80.247:58626#ServerID_OuterContainerID&#45;&gt;1_fwatchdog#ServerID_79226724f3b6 -->
<g id="edge17" class="edge"><title>10.1.80.247:58626#ServerID_OuterContainerID&#45;&gt;1_fwatchdog#ServerID_79226724f3b6</title>
<path fill="none" stroke="black" d="M1186.77,-306.718C1244.33,-303.858 1309.54,-300.697 1369,-298 1722.72,-281.953 1811.02,-273.521 2165,-265 2695.52,-252.229 2828.55,-272.429 3359,-257 3631.13,-249.085 3947.56,-230.88 4132.89,-219.304"/>
<polygon fill="black" stroke="black" points="4133.22,-222.79 4142.98,-218.672 4132.78,-215.804 4133.22,-222.79"/>
<text text-anchor="middle" x="2181.5" y="-268.8" font-family="Times,serif" font-size="14.00">read</text>
</g>
<!-- 1_fwatchdog#ServerID_6dcbcc88d5&#45;4vpdn -->
<g id="node3" class="node"><title>1_fwatchdog#ServerID_6dcbcc88d5&#45;4vpdn</title>
<polygon fill="none" stroke="black" points="5267.5,-226 4938.5,-226 4938.5,-190 5267.5,-190 5267.5,-226"/>
<text text-anchor="middle" x="5103" y="-204.3" font-family="Times,serif" font-size="14.00">1_fwatchdog#ServerID_6dcbcc88d5&#45;4vpdn</text>
</g>
<!-- 10.1.80.247:8080#ServerID_OuterContainerID -->
<g id="node4" class="node"><title>10.1.80.247:8080#ServerID_OuterContainerID</title>
<polygon fill="none" stroke="black" points="343,-334 15.5599,-316 343,-298 670.44,-316 343,-334"/>
<text text-anchor="middle" x="343" y="-312.3" font-family="Times,serif" font-size="14.00">10.1.80.247:8080#ServerID_OuterContainerID</text>
</g>
<!-- 1_fwatchdog#ServerID_6dcbcc88d5&#45;4vpdn&#45;&gt;10.1.80.247:8080#ServerID_OuterContainerID -->
<g id="edge3" class="edge"><title>1_fwatchdog#ServerID_6dcbcc88d5&#45;4vpdn&#45;&gt;10.1.80.247:8080#ServerID_OuterContainerID</title>
<path fill="none" stroke="black" d="M5054.03,-226.097C5019.11,-237.36 4970.78,-251.081 4927,-257 4838.09,-269.019 1786.71,-263.434 1697,-265 1244.83,-272.894 1131.85,-279.274 680,-298 624.347,-300.306 563.547,-303.245 509.099,-306.027"/>
<polygon fill="black" stroke="black" points="508.816,-302.537 499.009,-306.545 509.175,-309.528 508.816,-302.537"/>
<text text-anchor="middle" x="1717" y="-268.8" font-family="Times,serif" font-size="14.00">POST</text>
</g>
<!-- gateway:8080#ServerID_OuterContainerID -->
<g id="node5" class="node"><title>gateway:8080#ServerID_OuterContainerID</title>
<polygon fill="none" stroke="black" points="1682,-334 1377.52,-316 1682,-298 1986.48,-316 1682,-334"/>
<text text-anchor="middle" x="1682" y="-312.3" font-family="Times,serif" font-size="14.00">gateway:8080#ServerID_OuterContainerID</text>
</g>
<!-- 1_fwatchdog#ServerID_6dcbcc88d5&#45;4vpdn&#45;&gt;gateway:8080#ServerID_OuterContainerID -->
<g id="edge5" class="edge"><title>1_fwatchdog#ServerID_6dcbcc88d5&#45;4vpdn&#45;&gt;gateway:8080#ServerID_OuterContainerID</title>
<path fill="none" stroke="black" d="M5054.02,-226.003C5019.09,-237.221 4970.76,-250.929 4927,-257 4880.33,-263.474 4126.11,-264.405 4079,-265 3152.74,-276.703 2920.77,-265.542 1995,-298 1941.85,-299.864 1883.66,-302.782 1832.02,-305.678"/>
<polygon fill="black" stroke="black" points="1831.58,-302.198 1821.79,-306.257 1831.97,-309.187 1831.58,-302.198"/>
<text text-anchor="middle" x="4099" y="-268.8" font-family="Times,serif" font-size="14.00">POST</text>
</g>
<!-- 10.1.80.247:57052#ServerID_OuterContainerID -->
<g id="node6" class="node"><title>10.1.80.247:57052#ServerID_OuterContainerID</title>
<polygon fill="none" stroke="black" points="3012,-334 2676.52,-316 3012,-298 3347.48,-316 3012,-334"/>
<text text-anchor="middle" x="3012" y="-312.3" font-family="Times,serif" font-size="14.00">10.1.80.247:57052#ServerID_OuterContainerID</text>
</g>
<!-- 1_fwatchdog#ServerID_6dcbcc88d5&#45;4vpdn&#45;&gt;10.1.80.247:57052#ServerID_OuterContainerID -->
<g id="edge8" class="edge"><title>1_fwatchdog#ServerID_6dcbcc88d5&#45;4vpdn&#45;&gt;10.1.80.247:57052#ServerID_OuterContainerID</title>
<path fill="none" stroke="black" d="M5053.23,-226.032C5018.36,-237.109 4970.4,-250.636 4927,-257 4856.4,-267.352 4677.33,-262.993 4606,-265 4107.44,-279.032 3521.24,-298.074 3217.61,-308.127"/>
<polygon fill="black" stroke="black" points="3217.25,-304.637 3207.38,-308.466 3217.49,-311.633 3217.25,-304.637"/>
<text text-anchor="middle" x="4648" y="-268.8" font-family="Times,serif" font-size="14.00">RESPONSE</text>
</g>
<!-- 10.1.80.247:8080#ServerID_OuterContainerID&#45;&gt;1_fwatchdog#ServerID_6dcbcc88d5&#45;4vpdn -->
<g id="edge4" class="edge"><title>10.1.80.247:8080#ServerID_OuterContainerID&#45;&gt;1_fwatchdog#ServerID_6dcbcc88d5&#45;4vpdn</title>
<path fill="none" stroke="black" d="M457.324,-304.244C594.078,-291.949 830.012,-272.554 1033,-265 1141.09,-260.978 4819.8,-271.467 4927,-257 4966.85,-251.622 5010.47,-239.771 5044.31,-229.191"/>
<polygon fill="black" stroke="black" points="5045.56,-232.466 5054.03,-226.103 5043.44,-225.795 5045.56,-232.466"/>
<text text-anchor="middle" x="1075" y="-268.8" font-family="Times,serif" font-size="14.00">RESPONSE</text>
</g>
<!-- 10.1.80.1:53546#ServerID_OuterContainerID -->
<g id="node18" class="node"><title>10.1.80.1:53546#ServerID_OuterContainerID</title>
<polygon fill="none" stroke="black" points="335,-226 16.1049,-208 335,-190 653.895,-208 335,-226"/>
<text text-anchor="middle" x="335" y="-204.3" font-family="Times,serif" font-size="14.00">10.1.80.1:53546#ServerID_OuterContainerID</text>
</g>
<!-- 10.1.80.247:8080#ServerID_OuterContainerID&#45;&gt;10.1.80.1:53546#ServerID_OuterContainerID -->
<g id="edge25" class="edge"><title>10.1.80.247:8080#ServerID_OuterContainerID&#45;&gt;10.1.80.1:53546#ServerID_OuterContainerID</title>
<path fill="none" stroke="black" d="M303.089,-300.103C294.688,-295.04 286.895,-288.453 282,-280 271.93,-262.613 285.936,-244.484 302.069,-230.897"/>
<polygon fill="black" stroke="black" points="304.364,-233.546 310.064,-224.615 300.039,-228.041 304.364,-233.546"/>
<text text-anchor="middle" x="324" y="-268.8" font-family="Times,serif" font-size="14.00">RESPONSE</text>
</g>
<!-- 10.0.88.125:31112#ServerID_OuterContainerID -->
<g id="node19" class="node"><title>10.0.88.125:31112#ServerID_OuterContainerID</title>
<polygon fill="none" stroke="black" points="1007,-226 671.515,-208 1007,-190 1342.48,-208 1007,-226"/>
<text text-anchor="middle" x="1007" y="-204.3" font-family="Times,serif" font-size="14.00">10.0.88.125:31112#ServerID_OuterContainerID</text>
</g>
<!-- 10.1.80.247:8080#ServerID_OuterContainerID&#45;&gt;10.0.88.125:31112#ServerID_OuterContainerID -->
<g id="edge24" class="edge"><title>10.1.80.247:8080#ServerID_OuterContainerID&#45;&gt;10.0.88.125:31112#ServerID_OuterContainerID</title>
<path fill="none" stroke="black" d="M422.434,-302.319C546.818,-282.463 786.788,-244.154 917.247,-223.328"/>
<polygon fill="black" stroke="black" points="917.893,-226.769 927.216,-221.737 916.789,-219.857 917.893,-226.769"/>
<text text-anchor="middle" x="698" y="-268.8" font-family="Times,serif" font-size="14.00">RESPONSE</text>
</g>
<!-- gateway:8080#ServerID_OuterContainerID&#45;&gt;1_fwatchdog#ServerID_6dcbcc88d5&#45;4vpdn -->
<g id="edge6" class="edge"><title>gateway:8080#ServerID_OuterContainerID&#45;&gt;1_fwatchdog#ServerID_6dcbcc88d5&#45;4vpdn</title>
<path fill="none" stroke="black" d="M1809.42,-305.515C1978.87,-293.397 2287.74,-273.033 2552,-265 2617.94,-262.996 4861.63,-265.867 4927,-257 4966.85,-251.595 5010.46,-239.745 5044.3,-229.171"/>
<polygon fill="black" stroke="black" points="5045.56,-232.446 5054.03,-226.085 5043.44,-225.775 5045.56,-232.446"/>
<text text-anchor="middle" x="2594" y="-268.8" font-family="Times,serif" font-size="14.00">RESPONSE</text>
</g>
<!-- 10.1.80.247:57052#ServerID_OuterContainerID&#45;&gt;1_fwatchdog#ServerID_6dcbcc88d5&#45;4vpdn -->
<g id="edge7" class="edge"><title>10.1.80.247:57052#ServerID_OuterContainerID&#45;&gt;1_fwatchdog#ServerID_6dcbcc88d5&#45;4vpdn</title>
<path fill="none" stroke="black" d="M3319.75,-314.495C3780.24,-312.236 4626.61,-301.866 4927,-257 4966.34,-251.124 5009.45,-239.459 5043.15,-229.1"/>
<polygon fill="black" stroke="black" points="5044.34,-232.396 5052.84,-226.078 5042.26,-225.713 5044.34,-232.396"/>
<text text-anchor="middle" x="4860" y="-268.8" font-family="Times,serif" font-size="14.00">POST</text>
</g>
<!-- 1_fwatchdog#ServerID_d4de233c55aa -->
<g id="node7" class="node"><title>1_fwatchdog#ServerID_d4de233c55aa</title>
<polygon fill="none" stroke="black" points="2437.5,-637 2140.5,-637 2140.5,-601 2437.5,-601 2437.5,-637"/>
<text text-anchor="middle" x="2289" y="-615.3" font-family="Times,serif" font-size="14.00">1_fwatchdog#ServerID_d4de233c55aa</text>
</g>
<!-- 10.1.80.247:57052#ServerID_OuterContainerID&#45;&gt;1_fwatchdog#ServerID_d4de233c55aa -->
<g id="edge10" class="edge"><title>10.1.80.247:57052#ServerID_OuterContainerID&#45;&gt;1_fwatchdog#ServerID_d4de233c55aa</title>
<path fill="none" stroke="black" d="M3010.69,-334C3006.32,-377.99 2988.07,-495.888 2916,-550 2879.25,-577.589 2621.1,-598.235 2447.71,-609.18"/>
<polygon fill="black" stroke="black" points="2447.47,-605.688 2437.71,-609.807 2447.91,-612.675 2447.47,-605.688"/>
<text text-anchor="middle" x="2987.5" y="-484.8" font-family="Times,serif" font-size="14.00">read</text>
</g>
<!-- localhost:3000#ServerID_d4de233c55aa -->
<g id="node8" class="node"><title>localhost:3000#ServerID_d4de233c55aa</title>
<polygon fill="none" stroke="black" points="1819,-550 1533.28,-532 1819,-514 2104.72,-532 1819,-550"/>
<text text-anchor="middle" x="1819" y="-528.3" font-family="Times,serif" font-size="14.00">localhost:3000#ServerID_d4de233c55aa</text>
</g>
<!-- 1_fwatchdog#ServerID_d4de233c55aa&#45;&gt;localhost:3000#ServerID_d4de233c55aa -->
<g id="edge9" class="edge"><title>1_fwatchdog#ServerID_d4de233c55aa&#45;&gt;localhost:3000#ServerID_d4de233c55aa</title>
<path fill="none" stroke="black" d="M2194.74,-600.952C2108.04,-585.274 1980.9,-562.28 1899.03,-547.474"/>
<polygon fill="black" stroke="black" points="1899.49,-544 1889.03,-545.665 1898.25,-550.889 1899.49,-544"/>
<text text-anchor="middle" x="2102" y="-571.8" font-family="Times,serif" font-size="14.00">write</text>
</g>
<!-- 10_node#ServerID_d4de233c55aa -->
<g id="node9" class="node"><title>10_node#ServerID_d4de233c55aa</title>
<polygon fill="none" stroke="black" points="2406,-442 2140,-442 2140,-406 2406,-406 2406,-442"/>
<text text-anchor="middle" x="2273" y="-420.3" font-family="Times,serif" font-size="14.00">10_node#ServerID_d4de233c55aa</text>
</g>
<!-- localhost:3000#ServerID_d4de233c55aa&#45;&gt;10_node#ServerID_d4de233c55aa -->
<g id="edge11" class="edge"><title>localhost:3000#ServerID_d4de233c55aa&#45;&gt;10_node#ServerID_d4de233c55aa</title>
<path fill="none" stroke="black" d="M1876.5,-517.575C1955.73,-499.077 2098.96,-465.635 2189.85,-444.413"/>
<polygon fill="black" stroke="black" points="2190.91,-447.761 2199.85,-442.079 2189.32,-440.944 2190.91,-447.761"/>
<text text-anchor="middle" x="2049.5" y="-484.8" font-family="Times,serif" font-size="14.00">read</text>
</g>
<!-- 10_node#ServerID_d4de233c55aa&#45;&gt;gateway:8080#ServerID_OuterContainerID -->
<g id="edge16" class="edge"><title>10_node#ServerID_d4de233c55aa&#45;&gt;gateway:8080#ServerID_OuterContainerID</title>
<path fill="none" stroke="black" d="M2178.05,-405.969C2063.19,-385.369 1871.79,-351.04 1763.39,-331.598"/>
<polygon fill="black" stroke="black" points="1763.95,-328.142 1753.49,-329.822 1762.71,-335.032 1763.95,-328.142"/>
<text text-anchor="middle" x="2094" y="-376.8" font-family="Times,serif" font-size="14.00">connect</text>
</g>
<!-- 10.152.183.10:53#ServerID_OuterContainerID -->
<g id="node12" class="node"><title>10.152.183.10:53#ServerID_OuterContainerID</title>
<polygon fill="none" stroke="black" points="2331,-334 2003.56,-316 2331,-298 2658.44,-316 2331,-334"/>
<text text-anchor="middle" x="2331" y="-312.3" font-family="Times,serif" font-size="14.00">10.152.183.10:53#ServerID_OuterContainerID</text>
</g>
<!-- 10_node#ServerID_d4de233c55aa&#45;&gt;10.152.183.10:53#ServerID_OuterContainerID -->
<g id="edge14" class="edge"><title>10_node#ServerID_d4de233c55aa&#45;&gt;10.152.183.10:53#ServerID_OuterContainerID</title>
<path fill="none" stroke="black" d="M2265.45,-405.658C2262.27,-395.711 2260.27,-383.211 2265,-373 2271.35,-359.284 2282.9,-347.7 2294.58,-338.692"/>
<polygon fill="black" stroke="black" points="2296.98,-341.281 2303.04,-332.594 2292.88,-335.603 2296.98,-341.281"/>
<text text-anchor="middle" x="2289.5" y="-376.8" font-family="Times,serif" font-size="14.00">sendto</text>
</g>
<!-- /etc/hosts#ServerID_d4de233c55aa -->
<g id="node10" class="node"><title>/etc/hosts#ServerID_d4de233c55aa</title>
<ellipse fill="none" stroke="black" cx="2728" cy="-532" rx="178.969" ry="18"/>
<text text-anchor="middle" x="2728" y="-528.3" font-family="Times,serif" font-size="14.00">/etc/hosts#ServerID_d4de233c55aa</text>
</g>
<!-- /etc/hosts#ServerID_d4de233c55aa&#45;&gt;10_node#ServerID_d4de233c55aa -->
<g id="edge12" class="edge"><title>/etc/hosts#ServerID_d4de233c55aa&#45;&gt;10_node#ServerID_d4de233c55aa</title>
<path fill="none" stroke="black" d="M2660.37,-515.245C2579.33,-496.364 2443.55,-464.732 2356.16,-444.374"/>
<polygon fill="black" stroke="black" points="2356.81,-440.932 2346.28,-442.072 2355.23,-447.75 2356.81,-440.932"/>
<text text-anchor="middle" x="2584.5" y="-484.8" font-family="Times,serif" font-size="14.00">read</text>
</g>
<!-- /etc/resolv.conf#ServerID_d4de233c55aa -->
<g id="node11" class="node"><title>/etc/resolv.conf#ServerID_d4de233c55aa</title>
<ellipse fill="none" stroke="black" cx="2327" cy="-532" rx="204.164" ry="18"/>
<text text-anchor="middle" x="2327" y="-528.3" font-family="Times,serif" font-size="14.00">/etc/resolv.conf#ServerID_d4de233c55aa</text>
</g>
<!-- /etc/resolv.conf#ServerID_d4de233c55aa&#45;&gt;10_node#ServerID_d4de233c55aa -->
<g id="edge13" class="edge"><title>/etc/resolv.conf#ServerID_d4de233c55aa&#45;&gt;10_node#ServerID_d4de233c55aa</title>
<path fill="none" stroke="black" d="M2318.32,-513.969C2309.72,-497.071 2296.4,-470.935 2286.43,-451.356"/>
<polygon fill="black" stroke="black" points="2289.49,-449.662 2281.83,-442.341 2283.25,-452.84 2289.49,-449.662"/>
<text text-anchor="middle" x="2324.5" y="-484.8" font-family="Times,serif" font-size="14.00">read</text>
</g>
<!-- 10.152.183.10:53#ServerID_OuterContainerID&#45;&gt;10_node#ServerID_d4de233c55aa -->
<g id="edge15" class="edge"><title>10.152.183.10:53#ServerID_OuterContainerID&#45;&gt;10_node#ServerID_d4de233c55aa</title>
<path fill="none" stroke="black" d="M2329.88,-334.201C2328.22,-349.332 2324.13,-371.463 2314,-388 2311.63,-391.876 2308.68,-395.54 2305.46,-398.935"/>
<polygon fill="black" stroke="black" points="2302.95,-396.493 2298.09,-405.911 2307.76,-401.575 2302.95,-396.493"/>
<text text-anchor="middle" x="2354" y="-376.8" font-family="Times,serif" font-size="14.00">recvfrom</text>
</g>
<!-- localhost:3000#ServerID_79226724f3b6 -->
<g id="node14" class="node"><title>localhost:3000#ServerID_79226724f3b6</title>
<polygon fill="none" stroke="black" points="4630,-139 4345.12,-121 4630,-103 4914.88,-121 4630,-139"/>
<text text-anchor="middle" x="4630" y="-117.3" font-family="Times,serif" font-size="14.00">localhost:3000#ServerID_79226724f3b6</text>
</g>
<!-- 1_fwatchdog#ServerID_79226724f3b6&#45;&gt;localhost:3000#ServerID_79226724f3b6 -->
<g id="edge18" class="edge"><title>1_fwatchdog#ServerID_79226724f3b6&#45;&gt;localhost:3000#ServerID_79226724f3b6</title>
<path fill="none" stroke="black" d="M4359.19,-189.901C4419.42,-174.801 4506.59,-152.943 4565.64,-138.138"/>
<polygon fill="black" stroke="black" points="4566.74,-141.47 4575.59,-135.642 4565.04,-134.68 4566.74,-141.47"/>
<text text-anchor="middle" x="4499" y="-160.8" font-family="Times,serif" font-size="14.00">write</text>
</g>
<!-- pipe:[273416608]#ServerID_79226724f3b6 -->
<g id="node17" class="node"><title>pipe:[273416608]#ServerID_79226724f3b6</title>
<ellipse fill="none" stroke="black" cx="4111" cy="-121" rx="215.562" ry="18"/>
<text text-anchor="middle" x="4111" y="-117.3" font-family="Times,serif" font-size="14.00">pipe:[273416608]#ServerID_79226724f3b6</text>
</g>
<!-- 1_fwatchdog#ServerID_79226724f3b6&#45;&gt;pipe:[273416608]#ServerID_79226724f3b6 -->
<g id="edge22" class="edge"><title>1_fwatchdog#ServerID_79226724f3b6&#45;&gt;pipe:[273416608]#ServerID_79226724f3b6</title>
<path fill="none" stroke="black" d="M4254.57,-189.799C4226.09,-176.346 4186.34,-157.577 4155.89,-143.197"/>
<polygon fill="black" stroke="black" points="4157.29,-139.991 4146.76,-138.885 4154.31,-146.32 4157.29,-139.991"/>
<text text-anchor="middle" x="4230" y="-160.8" font-family="Times,serif" font-size="14.00">write</text>
</g>
<!-- localhost:3000#ServerID_79226724f3b6&#45;&gt;1_fwatchdog#ServerID_79226724f3b6 -->
<g id="edge21" class="edge"><title>localhost:3000#ServerID_79226724f3b6&#45;&gt;1_fwatchdog#ServerID_79226724f3b6</title>
<path fill="none" stroke="black" d="M4602.43,-137.419C4581.1,-148.686 4550.49,-163.436 4522,-172 4498.78,-178.978 4473.82,-184.605 4449.18,-189.133"/>
<polygon fill="black" stroke="black" points="4448.26,-185.742 4439.03,-190.942 4449.48,-192.634 4448.26,-185.742"/>
<text text-anchor="middle" x="4577.5" y="-160.8" font-family="Times,serif" font-size="14.00">read</text>
</g>
<!-- 10_node#ServerID_79226724f3b6 -->
<g id="node15" class="node"><title>10_node#ServerID_79226724f3b6</title>
<polygon fill="none" stroke="black" points="4258.5,-52 3993.5,-52 3993.5,-16 4258.5,-16 4258.5,-52"/>
<text text-anchor="middle" x="4126" y="-30.3" font-family="Times,serif" font-size="14.00">10_node#ServerID_79226724f3b6</text>
</g>
<!-- localhost:3000#ServerID_79226724f3b6&#45;&gt;10_node#ServerID_79226724f3b6 -->
<g id="edge19" class="edge"><title>localhost:3000#ServerID_79226724f3b6&#45;&gt;10_node#ServerID_79226724f3b6</title>
<path fill="none" stroke="black" d="M4556.44,-107.595C4472.53,-93.4427 4334.4,-70.1469 4237.29,-53.7699"/>
<polygon fill="black" stroke="black" points="4237.59,-50.2697 4227.14,-52.0579 4236.42,-57.1723 4237.59,-50.2697"/>
<text text-anchor="middle" x="4424.5" y="-73.8" font-family="Times,serif" font-size="14.00">read</text>
</g>
<!-- /home/app/credentials.txt#ServerID_79226724f3b6 -->
<g id="node16" class="node"><title>/home/app/credentials.txt#ServerID_79226724f3b6</title>
<ellipse fill="none" stroke="black" cx="3624" cy="-121" rx="252.655" ry="18"/>
<text text-anchor="middle" x="3624" y="-117.3" font-family="Times,serif" font-size="14.00">/home/app/credentials.txt#ServerID_79226724f3b6</text>
</g>
<!-- /home/app/credentials.txt#ServerID_79226724f3b6&#45;&gt;10_node#ServerID_79226724f3b6 -->
<g id="edge20" class="edge"><title>/home/app/credentials.txt#ServerID_79226724f3b6&#45;&gt;10_node#ServerID_79226724f3b6</title>
<path fill="none" stroke="black" d="M3717.25,-104.211C3801.7,-89.9122 3926.21,-68.8288 4015.6,-53.6927"/>
<polygon fill="black" stroke="black" points="4016.23,-57.1367 4025.5,-52.0162 4015.06,-50.2349 4016.23,-57.1367"/>
<text text-anchor="middle" x="3921.5" y="-73.8" font-family="Times,serif" font-size="14.00">read</text>
</g>
<!-- 10.1.80.1:53546#ServerID_OuterContainerID&#45;&gt;10.1.80.247:8080#ServerID_OuterContainerID -->
<g id="edge23" class="edge"><title>10.1.80.1:53546#ServerID_OuterContainerID&#45;&gt;10.1.80.247:8080#ServerID_OuterContainerID</title>
<path fill="none" stroke="black" d="M348.743,-225.449C356.653,-236.019 365.828,-250.453 370,-265 371.838,-271.408 372.151,-273.69 370,-280 368.79,-283.55 367.057,-287.021 365.047,-290.312"/>
<polygon fill="black" stroke="black" points="362.147,-288.351 359.24,-298.54 367.866,-292.387 362.147,-288.351"/>
<text text-anchor="middle" x="392" y="-268.8" font-family="Times,serif" font-size="14.00">POST</text>
</g>
</g>
</svg>
