<?xml version="1.0" encoding="UTF-8" standalone="no"?>
<!DOCTYPE svg PUBLIC "-//W3C//DTD SVG 1.1//EN"
 "http://www.w3.org/Graphics/SVG/1.1/DTD/svg11.dtd">
<!-- Generated by graphviz version 2.38.0 (20140413.2041)
 -->
<!-- Title: G Pages: 1 -->
<svg width="6410pt" height="558pt"
 viewBox="0.00 0.00 6410.00 558.00" xmlns="http://www.w3.org/2000/svg" xmlns:xlink="http://www.w3.org/1999/xlink">
<g id="graph0" class="graph" transform="scale(1 1) rotate(0) translate(4 554)">
<title>G</title>
<polygon fill="white" stroke="none" points="-4,4 -4,-554 6406,-554 6406,4 -4,4"/>
<g id="clust1" class="cluster"><title>clusterServerID_3113a7a2a86a</title>
<polygon fill="none" stroke="black" points="5279,-182 5279,-411 6394,-411 6394,-182 5279,-182"/>
<text text-anchor="middle" x="5836.5" y="-395.8" font-family="Times,serif" font-size="14.00">clusterServerID_3113a7a2a86a</text>
</g>
<g id="clust2" class="cluster"><title>clusterServerID_5f846fd567&#45;srhtc</title>
<polygon fill="none" stroke="black" points="856,-444 856,-542 1190,-542 1190,-444 856,-444"/>
<text text-anchor="middle" x="1023" y="-526.8" font-family="Times,serif" font-size="14.00">clusterServerID_5f846fd567&#45;srhtc</text>
</g>
<g id="clust3" class="cluster"><title>clusterServerID_6df85d7674&#45;grtsk</title>
<polygon fill="none" stroke="black" points="4933,-182 4933,-280 5271,-280 5271,-182 4933,-182"/>
<text text-anchor="middle" x="5102" y="-264.8" font-family="Times,serif" font-size="14.00">clusterServerID_6df85d7674&#45;grtsk</text>
</g>
<g id="clust4" class="cluster"><title>clusterServerID_9c632c9c841a</title>
<polygon fill="none" stroke="black" points="3363,-8 3363,-280 4925,-280 4925,-8 3363,-8"/>
<text text-anchor="middle" x="4144" y="-264.8" font-family="Times,serif" font-size="14.00">clusterServerID_9c632c9c841a</text>
</g>
<g id="clust5" class="cluster"><title>clusterServerID_OuterContainerID</title>
<polygon fill="none" stroke="black" points="8,-182 8,-411 3355,-411 3355,-182 8,-182"/>
<text text-anchor="middle" x="1681.5" y="-395.8" font-family="Times,serif" font-size="14.00">clusterServerID_OuterContainerID</text>
</g>
<!-- 1_fwatchdog#ServerID_5f846fd567&#45;srhtc -->
<g id="node1" class="node"><title>1_fwatchdog#ServerID_5f846fd567&#45;srhtc</title>
<polygon fill="none" stroke="black" points="1181.5,-488 864.5,-488 864.5,-452 1181.5,-452 1181.5,-488"/>
<text text-anchor="middle" x="1023" y="-466.3" font-family="Times,serif" font-size="14.00">1_fwatchdog#ServerID_5f846fd567&#45;srhtc</text>
</g>
<!-- 10.1.80.247:44900#ServerID_OuterContainerID -->
<g id="node2" class="node"><title>10.1.80.247:44900#ServerID_OuterContainerID</title>
<polygon fill="none" stroke="black" points="1024,-357 688.515,-339 1024,-321 1359.48,-339 1024,-357"/>
<text text-anchor="middle" x="1024" y="-335.3" font-family="Times,serif" font-size="14.00">10.1.80.247:44900#ServerID_OuterContainerID</text>
</g>
<!-- 1_fwatchdog#ServerID_5f846fd567&#45;srhtc&#45;&gt;10.1.80.247:44900#ServerID_OuterContainerID -->
<g id="edge1" class="edge"><title>1_fwatchdog#ServerID_5f846fd567&#45;srhtc&#45;&gt;10.1.80.247:44900#ServerID_OuterContainerID</title>
<path fill="none" stroke="black" d="M987.261,-451.861C980.725,-447.032 974.784,-441.108 971,-434 967.867,-428.115 969.059,-425.378 971,-419 977.151,-398.792 990.385,-379.057 1002.09,-364.367"/>
<polygon fill="black" stroke="black" points="1005.06,-366.27 1008.74,-356.335 999.665,-361.806 1005.06,-366.27"/>
<text text-anchor="middle" x="1013" y="-422.8" font-family="Times,serif" font-size="14.00">RESPONSE</text>
</g>
<!-- 10.1.80.247:44900#ServerID_OuterContainerID&#45;&gt;1_fwatchdog#ServerID_5f846fd567&#45;srhtc -->
<g id="edge7" class="edge"><title>10.1.80.247:44900#ServerID_OuterContainerID&#45;&gt;1_fwatchdog#ServerID_5f846fd567&#45;srhtc</title>
<path fill="none" stroke="black" d="M1036.4,-356.484C1049.03,-375.397 1065.39,-407.248 1055,-434 1053.64,-437.507 1051.74,-440.876 1049.55,-444.046"/>
<polygon fill="black" stroke="black" points="1046.75,-441.944 1043.2,-451.928 1052.2,-446.335 1046.75,-441.944"/>
<text text-anchor="middle" x="1079" y="-422.8" font-family="Times,serif" font-size="14.00">POST</text>
</g>
<!-- 1_fwatchdog#ServerID_9c632c9c841a -->
<g id="node13" class="node"><title>1_fwatchdog#ServerID_9c632c9c841a</title>
<polygon fill="none" stroke="black" points="4329.5,-226 4032.5,-226 4032.5,-190 4329.5,-190 4329.5,-226"/>
<text text-anchor="middle" x="4181" y="-204.3" font-family="Times,serif" font-size="14.00">1_fwatchdog#ServerID_9c632c9c841a</text>
</g>
<!-- 10.1.80.247:44900#ServerID_OuterContainerID&#45;&gt;1_fwatchdog#ServerID_9c632c9c841a -->
<g id="edge19" class="edge"><title>10.1.80.247:44900#ServerID_OuterContainerID&#45;&gt;1_fwatchdog#ServerID_9c632c9c841a</title>
<path fill="none" stroke="black" d="M1162.3,-328.413C1342.73,-316.387 1668.29,-296.334 1947,-288 2260.64,-278.622 3045.55,-294.402 3359,-280 3590.08,-269.383 3856.73,-243.906 4022.11,-226.543"/>
<polygon fill="black" stroke="black" points="4022.79,-229.992 4032.37,-225.464 4022.06,-223.03 4022.79,-229.992"/>
<text text-anchor="middle" x="1963.5" y="-291.8" font-family="Times,serif" font-size="14.00">read</text>
</g>
<!-- 1_fwatchdog#ServerID_6df85d7674&#45;grtsk -->
<g id="node3" class="node"><title>1_fwatchdog#ServerID_6df85d7674&#45;grtsk</title>
<polygon fill="none" stroke="black" points="5262.5,-226 4941.5,-226 4941.5,-190 5262.5,-190 5262.5,-226"/>
<text text-anchor="middle" x="5102" y="-204.3" font-family="Times,serif" font-size="14.00">1_fwatchdog#ServerID_6df85d7674&#45;grtsk</text>
</g>
<!-- 10.1.80.247:8080#ServerID_OuterContainerID -->
<g id="node4" class="node"><title>10.1.80.247:8080#ServerID_OuterContainerID</title>
<polygon fill="none" stroke="black" points="343,-357 15.5599,-339 343,-321 670.44,-339 343,-357"/>
<text text-anchor="middle" x="343" y="-335.3" font-family="Times,serif" font-size="14.00">10.1.80.247:8080#ServerID_OuterContainerID</text>
</g>
<!-- 1_fwatchdog#ServerID_6df85d7674&#45;grtsk&#45;&gt;10.1.80.247:8080#ServerID_OuterContainerID -->
<g id="edge2" class="edge"><title>1_fwatchdog#ServerID_6df85d7674&#45;grtsk&#45;&gt;10.1.80.247:8080#ServerID_OuterContainerID</title>
<path fill="none" stroke="black" d="M5070.96,-226.063C5037.19,-243.572 4981.07,-269.667 4929,-280 4882.94,-289.141 1594.95,-287.052 1548,-288 1355.01,-291.896 872.84,-312.471 680,-321 624.905,-323.437 564.758,-326.38 510.726,-329.128"/>
<polygon fill="black" stroke="black" points="510.519,-325.634 500.711,-329.639 510.876,-332.625 510.519,-325.634"/>
<text text-anchor="middle" x="1568" y="-291.8" font-family="Times,serif" font-size="14.00">POST</text>
</g>
<!-- 10.1.80.247:50370#ServerID_OuterContainerID -->
<g id="node5" class="node"><title>10.1.80.247:50370#ServerID_OuterContainerID</title>
<polygon fill="none" stroke="black" points="1713,-357 1377.52,-339 1713,-321 2048.48,-339 1713,-357"/>
<text text-anchor="middle" x="1713" y="-335.3" font-family="Times,serif" font-size="14.00">10.1.80.247:50370#ServerID_OuterContainerID</text>
</g>
<!-- 1_fwatchdog#ServerID_6df85d7674&#45;grtsk&#45;&gt;10.1.80.247:50370#ServerID_OuterContainerID -->
<g id="edge10" class="edge"><title>1_fwatchdog#ServerID_6df85d7674&#45;grtsk&#45;&gt;10.1.80.247:50370#ServerID_OuterContainerID</title>
<path fill="none" stroke="black" d="M5070.95,-226.051C5037.19,-243.549 4981.06,-269.636 4929,-280 4868.14,-292.116 2757.03,-286.311 2695,-288 2540.76,-292.201 2114.66,-315.402 1877.58,-328.674"/>
<polygon fill="black" stroke="black" points="1877.27,-325.186 1867.48,-329.24 1877.66,-332.175 1877.27,-325.186"/>
<text text-anchor="middle" x="2737" y="-291.8" font-family="Times,serif" font-size="14.00">RESPONSE</text>
</g>
<!-- gateway:8080#ServerID_OuterContainerID -->
<g id="node8" class="node"><title>gateway:8080#ServerID_OuterContainerID</title>
<polygon fill="none" stroke="black" points="2371,-357 2066.52,-339 2371,-321 2675.48,-339 2371,-357"/>
<text text-anchor="middle" x="2371" y="-335.3" font-family="Times,serif" font-size="14.00">gateway:8080#ServerID_OuterContainerID</text>
</g>
<!-- 1_fwatchdog#ServerID_6df85d7674&#45;grtsk&#45;&gt;gateway:8080#ServerID_OuterContainerID -->
<g id="edge6" class="edge"><title>1_fwatchdog#ServerID_6df85d7674&#45;grtsk&#45;&gt;gateway:8080#ServerID_OuterContainerID</title>
<path fill="none" stroke="black" d="M5070.95,-226.044C5037.19,-243.537 4981.06,-269.619 4929,-280 4877.54,-290.262 3092.43,-285.932 3040,-288 2847.46,-295.593 2624.38,-314.254 2490.64,-326.507"/>
<polygon fill="black" stroke="black" points="2490.01,-323.05 2480.37,-327.451 2490.65,-330.02 2490.01,-323.05"/>
<text text-anchor="middle" x="3060" y="-291.8" font-family="Times,serif" font-size="14.00">POST</text>
</g>
<!-- 10.1.80.247:8080#ServerID_OuterContainerID&#45;&gt;1_fwatchdog#ServerID_6df85d7674&#45;grtsk -->
<g id="edge3" class="edge"><title>10.1.80.247:8080#ServerID_OuterContainerID&#45;&gt;1_fwatchdog#ServerID_6df85d7674&#45;grtsk</title>
<path fill="none" stroke="black" d="M456.462,-327.215C591.871,-314.919 825.211,-295.546 1026,-288 1080.17,-285.964 4875.83,-290.543 4929,-280 4976.59,-270.563 5027.58,-247.947 5061.77,-230.756"/>
<polygon fill="black" stroke="black" points="5063.64,-233.731 5070.96,-226.066 5060.46,-227.497 5063.64,-233.731"/>
<text text-anchor="middle" x="1068" y="-291.8" font-family="Times,serif" font-size="14.00">RESPONSE</text>
</g>
<!-- 10.1.80.1:17892#ServerID_OuterContainerID -->
<g id="node18" class="node"><title>10.1.80.1:17892#ServerID_OuterContainerID</title>
<polygon fill="none" stroke="black" points="335,-226 16.1049,-208 335,-190 653.895,-208 335,-226"/>
<text text-anchor="middle" x="335" y="-204.3" font-family="Times,serif" font-size="14.00">10.1.80.1:17892#ServerID_OuterContainerID</text>
</g>
<!-- 10.1.80.247:8080#ServerID_OuterContainerID&#45;&gt;10.1.80.1:17892#ServerID_OuterContainerID -->
<g id="edge26" class="edge"><title>10.1.80.247:8080#ServerID_OuterContainerID&#45;&gt;10.1.80.1:17892#ServerID_OuterContainerID</title>
<path fill="none" stroke="black" d="M303.089,-323.103C294.688,-318.04 286.895,-311.453 282,-303 268.013,-278.849 288.251,-250.975 307.619,-231.889"/>
<polygon fill="black" stroke="black" points="310.03,-234.427 314.926,-225.031 305.239,-229.323 310.03,-234.427"/>
<text text-anchor="middle" x="324" y="-291.8" font-family="Times,serif" font-size="14.00">RESPONSE</text>
</g>
<!-- 10.0.88.125:31112#ServerID_OuterContainerID -->
<g id="node19" class="node"><title>10.0.88.125:31112#ServerID_OuterContainerID</title>
<polygon fill="none" stroke="black" points="1007,-226 671.515,-208 1007,-190 1342.48,-208 1007,-226"/>
<text text-anchor="middle" x="1007" y="-204.3" font-family="Times,serif" font-size="14.00">10.0.88.125:31112#ServerID_OuterContainerID</text>
</g>
<!-- 10.1.80.247:8080#ServerID_OuterContainerID&#45;&gt;10.0.88.125:31112#ServerID_OuterContainerID -->
<g id="edge27" class="edge"><title>10.1.80.247:8080#ServerID_OuterContainerID&#45;&gt;10.0.88.125:31112#ServerID_OuterContainerID</title>
<path fill="none" stroke="black" d="M417.454,-325.032C482.37,-313.599 579.024,-296.274 663,-280 756.437,-261.893 863.805,-239.474 933.388,-224.731"/>
<polygon fill="black" stroke="black" points="934.318,-228.112 943.374,-222.613 932.866,-221.264 934.318,-228.112"/>
<text text-anchor="middle" x="662" y="-291.8" font-family="Times,serif" font-size="14.00">RESPONSE</text>
</g>
<!-- 10.1.80.247:50370#ServerID_OuterContainerID&#45;&gt;1_fwatchdog#ServerID_6df85d7674&#45;grtsk -->
<g id="edge4" class="edge"><title>10.1.80.247:50370#ServerID_OuterContainerID&#45;&gt;1_fwatchdog#ServerID_6df85d7674&#45;grtsk</title>
<path fill="none" stroke="black" d="M1815.85,-326.518C1931.48,-314.216 2124.93,-295.454 2292,-288 2328.59,-286.368 4893.08,-287.141 4929,-280 4976.59,-270.54 5027.57,-247.928 5061.77,-230.744"/>
<polygon fill="black" stroke="black" points="5063.64,-233.72 5070.95,-226.056 5060.46,-227.485 5063.64,-233.72"/>
<text text-anchor="middle" x="2312" y="-291.8" font-family="Times,serif" font-size="14.00">POST</text>
</g>
<!-- 1_fwatchdog#ServerID_3113a7a2a86a -->
<g id="node6" class="node"><title>1_fwatchdog#ServerID_3113a7a2a86a</title>
<polygon fill="none" stroke="black" points="6385.5,-357 6088.5,-357 6088.5,-321 6385.5,-321 6385.5,-357"/>
<text text-anchor="middle" x="6237" y="-335.3" font-family="Times,serif" font-size="14.00">1_fwatchdog#ServerID_3113a7a2a86a</text>
</g>
<!-- 10.1.80.247:50370#ServerID_OuterContainerID&#45;&gt;1_fwatchdog#ServerID_3113a7a2a86a -->
<g id="edge12" class="edge"><title>10.1.80.247:50370#ServerID_OuterContainerID&#45;&gt;1_fwatchdog#ServerID_3113a7a2a86a</title>
<path fill="none" stroke="black" d="M1767.72,-354.066C1835.3,-371.823 1954.08,-400.271 2058,-411 2169.13,-422.473 5970.85,-434.835 6080,-411 6122.93,-401.626 6168.15,-379.393 6198.98,-362.093"/>
<polygon fill="black" stroke="black" points="6200.72,-365.129 6207.67,-357.131 6197.25,-359.05 6200.72,-365.129"/>
<text text-anchor="middle" x="4068" y="-422.8" font-family="Times,serif" font-size="14.00">read</text>
</g>
<!-- localhost:3000#ServerID_3113a7a2a86a -->
<g id="node7" class="node"><title>localhost:3000#ServerID_3113a7a2a86a</title>
<polygon fill="none" stroke="black" points="6100,-226 5814.28,-208 6100,-190 6385.72,-208 6100,-226"/>
<text text-anchor="middle" x="6100" y="-204.3" font-family="Times,serif" font-size="14.00">localhost:3000#ServerID_3113a7a2a86a</text>
</g>
<!-- 1_fwatchdog#ServerID_3113a7a2a86a&#45;&gt;localhost:3000#ServerID_3113a7a2a86a -->
<g id="edge5" class="edge"><title>1_fwatchdog#ServerID_3113a7a2a86a&#45;&gt;localhost:3000#ServerID_3113a7a2a86a</title>
<path fill="none" stroke="black" d="M6134.37,-320.996C6117.47,-316.169 6103.62,-310.213 6098,-303 6083.32,-284.167 6086.07,-256.163 6091.12,-235.62"/>
<polygon fill="black" stroke="black" points="6094.51,-236.498 6093.81,-225.926 6087.77,-234.629 6094.51,-236.498"/>
<text text-anchor="middle" x="6127" y="-291.8" font-family="Times,serif" font-size="14.00">connect</text>
</g>
<!-- 1_fwatchdog#ServerID_3113a7a2a86a&#45;&gt;localhost:3000#ServerID_3113a7a2a86a -->
<g id="edge11" class="edge"><title>1_fwatchdog#ServerID_3113a7a2a86a&#45;&gt;localhost:3000#ServerID_3113a7a2a86a</title>
<path fill="none" stroke="black" d="M6201.35,-320.951C6192.3,-315.816 6182.9,-309.733 6175,-303 6151.33,-282.832 6129.81,-254.309 6115.96,-233.982"/>
<polygon fill="black" stroke="black" points="6118.79,-231.923 6110.33,-225.55 6112.97,-235.81 6118.79,-231.923"/>
<text text-anchor="middle" x="6194" y="-291.8" font-family="Times,serif" font-size="14.00">write</text>
</g>
<!-- localhost:3000#ServerID_3113a7a2a86a&#45;&gt;1_fwatchdog#ServerID_3113a7a2a86a -->
<g id="edge9" class="edge"><title>localhost:3000#ServerID_3113a7a2a86a&#45;&gt;1_fwatchdog#ServerID_3113a7a2a86a</title>
<path fill="none" stroke="black" d="M6132.48,-224.105C6158.44,-237.624 6194.15,-259.67 6217,-288 6222.51,-294.829 6226.67,-303.371 6229.72,-311.451"/>
<polygon fill="black" stroke="black" points="6226.41,-312.577 6232.92,-320.933 6233.04,-310.339 6226.41,-312.577"/>
<text text-anchor="middle" x="6241.5" y="-291.8" font-family="Times,serif" font-size="14.00">read</text>
</g>
<!-- gateway:8080#ServerID_OuterContainerID&#45;&gt;1_fwatchdog#ServerID_6df85d7674&#45;grtsk -->
<g id="edge8" class="edge"><title>gateway:8080#ServerID_OuterContainerID&#45;&gt;1_fwatchdog#ServerID_6df85d7674&#45;grtsk</title>
<path fill="none" stroke="black" d="M2518.67,-329.711C2570.89,-326.851 2630.05,-323.691 2684,-321 2859.96,-312.222 2904.1,-312.939 3080,-303 3178.73,-297.421 3203.17,-291.578 3302,-288 3347.17,-286.365 4884.68,-288.854 4929,-280 4976.58,-270.495 5027.57,-247.89 5061.77,-230.72"/>
<polygon fill="black" stroke="black" points="5063.63,-233.698 5070.95,-226.037 5060.45,-227.462 5063.63,-233.698"/>
<text text-anchor="middle" x="3344" y="-291.8" font-family="Times,serif" font-size="14.00">RESPONSE</text>
</g>
<!-- /etc/hosts#ServerID_3113a7a2a86a -->
<g id="node9" class="node"><title>/etc/hosts#ServerID_3113a7a2a86a</title>
<ellipse fill="none" stroke="black" cx="5892" cy="-339" rx="178.969" ry="18"/>
<text text-anchor="middle" x="5892" y="-335.3" font-family="Times,serif" font-size="14.00">/etc/hosts#ServerID_3113a7a2a86a</text>
</g>
<!-- 12_node#ServerID_3113a7a2a86a -->
<g id="node10" class="node"><title>12_node#ServerID_3113a7a2a86a</title>
<polygon fill="none" stroke="black" points="5553,-226 5287,-226 5287,-190 5553,-190 5553,-226"/>
<text text-anchor="middle" x="5420" y="-204.3" font-family="Times,serif" font-size="14.00">12_node#ServerID_3113a7a2a86a</text>
</g>
<!-- /etc/hosts#ServerID_3113a7a2a86a&#45;&gt;12_node#ServerID_3113a7a2a86a -->
<g id="edge13" class="edge"><title>/etc/hosts#ServerID_3113a7a2a86a&#45;&gt;12_node#ServerID_3113a7a2a86a</title>
<path fill="none" stroke="black" d="M5833.18,-321.923C5746.77,-298.309 5585.71,-254.289 5492.24,-228.743"/>
<polygon fill="black" stroke="black" points="5493.14,-225.362 5482.58,-226.102 5491.3,-232.115 5493.14,-225.362"/>
<text text-anchor="middle" x="5768.5" y="-291.8" font-family="Times,serif" font-size="14.00">read</text>
</g>
<!-- 12_node#ServerID_3113a7a2a86a&#45;&gt;gateway:8080#ServerID_OuterContainerID -->
<g id="edge17" class="edge"><title>12_node#ServerID_3113a7a2a86a&#45;&gt;gateway:8080#ServerID_OuterContainerID</title>
<path fill="none" stroke="black" d="M5394.1,-226.16C5366.1,-243.613 5319.47,-269.536 5275,-280 5243.25,-287.469 4133.61,-287.509 4101,-288 3943.53,-290.37 2841.37,-314.895 2684,-321 2631.49,-323.037 2574.06,-325.956 2522.89,-328.802"/>
<polygon fill="black" stroke="black" points="2522.54,-325.316 2512.75,-329.37 2522.93,-332.305 2522.54,-325.316"/>
<text text-anchor="middle" x="4130" y="-291.8" font-family="Times,serif" font-size="14.00">connect</text>
</g>
<!-- 10.152.183.10:53#ServerID_OuterContainerID -->
<g id="node12" class="node"><title>10.152.183.10:53#ServerID_OuterContainerID</title>
<polygon fill="none" stroke="black" points="3020,-357 2692.56,-339 3020,-321 3347.44,-339 3020,-357"/>
<text text-anchor="middle" x="3020" y="-335.3" font-family="Times,serif" font-size="14.00">10.152.183.10:53#ServerID_OuterContainerID</text>
</g>
<!-- 12_node#ServerID_3113a7a2a86a&#45;&gt;10.152.183.10:53#ServerID_OuterContainerID -->
<g id="edge15" class="edge"><title>12_node#ServerID_3113a7a2a86a&#45;&gt;10.152.183.10:53#ServerID_OuterContainerID</title>
<path fill="none" stroke="black" d="M5394.09,-226.091C5366.07,-243.488 5319.43,-269.364 5275,-280 5245.33,-287.101 4756.5,-287.331 4726,-288 4181.83,-299.938 3540.22,-320.488 3221.18,-331.144"/>
<polygon fill="black" stroke="black" points="3220.78,-327.655 3210.9,-331.488 3221.02,-334.651 3220.78,-327.655"/>
<text text-anchor="middle" x="4750.5" y="-291.8" font-family="Times,serif" font-size="14.00">sendto</text>
</g>
<!-- /etc/resolv.conf#ServerID_3113a7a2a86a -->
<g id="node11" class="node"><title>/etc/resolv.conf#ServerID_3113a7a2a86a</title>
<ellipse fill="none" stroke="black" cx="5491" cy="-339" rx="204.164" ry="18"/>
<text text-anchor="middle" x="5491" y="-335.3" font-family="Times,serif" font-size="14.00">/etc/resolv.conf#ServerID_3113a7a2a86a</text>
</g>
<!-- /etc/resolv.conf#ServerID_3113a7a2a86a&#45;&gt;12_node#ServerID_3113a7a2a86a -->
<g id="edge14" class="edge"><title>/etc/resolv.conf#ServerID_3113a7a2a86a&#45;&gt;12_node#ServerID_3113a7a2a86a</title>
<path fill="none" stroke="black" d="M5481.57,-320.87C5469.48,-298.895 5448.38,-260.573 5434.31,-234.994"/>
<polygon fill="black" stroke="black" points="5437.36,-233.274 5429.47,-226.201 5431.22,-236.649 5437.36,-233.274"/>
<text text-anchor="middle" x="5487.5" y="-291.8" font-family="Times,serif" font-size="14.00">read</text>
</g>
<!-- 10.152.183.10:53#ServerID_OuterContainerID&#45;&gt;12_node#ServerID_3113a7a2a86a -->
<g id="edge16" class="edge"><title>10.152.183.10:53#ServerID_OuterContainerID&#45;&gt;12_node#ServerID_3113a7a2a86a</title>
<path fill="none" stroke="black" d="M3274.73,-334.997C3616.25,-330.496 4241.41,-320.59 4775,-303 4997.34,-295.67 5059.49,-335.177 5275,-280 5314.69,-269.837 5356.33,-248.13 5384.76,-231.377"/>
<polygon fill="black" stroke="black" points="5386.72,-234.278 5393.5,-226.133 5383.12,-228.275 5386.72,-234.278"/>
<text text-anchor="middle" x="5271" y="-291.8" font-family="Times,serif" font-size="14.00">recvfrom</text>
</g>
<!-- localhost:3000#ServerID_9c632c9c841a -->
<g id="node14" class="node"><title>localhost:3000#ServerID_9c632c9c841a</title>
<polygon fill="none" stroke="black" points="4181,-139 3895.28,-121 4181,-103 4466.72,-121 4181,-139"/>
<text text-anchor="middle" x="4181" y="-117.3" font-family="Times,serif" font-size="14.00">localhost:3000#ServerID_9c632c9c841a</text>
</g>
<!-- 1_fwatchdog#ServerID_9c632c9c841a&#45;&gt;localhost:3000#ServerID_9c632c9c841a -->
<g id="edge18" class="edge"><title>1_fwatchdog#ServerID_9c632c9c841a&#45;&gt;localhost:3000#ServerID_9c632c9c841a</title>
<path fill="none" stroke="black" d="M4181,-189.799C4181,-178.163 4181,-162.548 4181,-149.237"/>
<polygon fill="black" stroke="black" points="4184.5,-149.175 4181,-139.175 4177.5,-149.175 4184.5,-149.175"/>
<text text-anchor="middle" x="4210" y="-160.8" font-family="Times,serif" font-size="14.00">connect</text>
</g>
<!-- 1_fwatchdog#ServerID_9c632c9c841a&#45;&gt;localhost:3000#ServerID_9c632c9c841a -->
<g id="edge21" class="edge"><title>1_fwatchdog#ServerID_9c632c9c841a&#45;&gt;localhost:3000#ServerID_9c632c9c841a</title>
<path fill="none" stroke="black" d="M4222.69,-189.967C4236.89,-181.471 4247.51,-170.184 4240,-157 4236.83,-151.431 4232.38,-146.657 4227.34,-142.589"/>
<polygon fill="black" stroke="black" points="4229.22,-139.632 4219.02,-136.766 4225.21,-145.367 4229.22,-139.632"/>
<text text-anchor="middle" x="4262" y="-160.8" font-family="Times,serif" font-size="14.00">write</text>
</g>
<!-- pipe:[240002549]#ServerID_9c632c9c841a -->
<g id="node17" class="node"><title>pipe:[240002549]#ServerID_9c632c9c841a</title>
<ellipse fill="none" stroke="black" cx="4701" cy="-121" rx="215.562" ry="18"/>
<text text-anchor="middle" x="4701" y="-117.3" font-family="Times,serif" font-size="14.00">pipe:[240002549]#ServerID_9c632c9c841a</text>
</g>
<!-- 1_fwatchdog#ServerID_9c632c9c841a&#45;&gt;pipe:[240002549]#ServerID_9c632c9c841a -->
<g id="edge24" class="edge"><title>1_fwatchdog#ServerID_9c632c9c841a&#45;&gt;pipe:[240002549]#ServerID_9c632c9c841a</title>
<path fill="none" stroke="black" d="M4285.29,-189.952C4376.17,-175.098 4507.22,-153.676 4597.78,-138.873"/>
<polygon fill="black" stroke="black" points="4598.48,-142.304 4607.79,-137.237 4597.35,-135.396 4598.48,-142.304"/>
<text text-anchor="middle" x="4492" y="-160.8" font-family="Times,serif" font-size="14.00">write</text>
</g>
<!-- localhost:3000#ServerID_9c632c9c841a&#45;&gt;1_fwatchdog#ServerID_9c632c9c841a -->
<g id="edge20" class="edge"><title>localhost:3000#ServerID_9c632c9c841a&#45;&gt;1_fwatchdog#ServerID_9c632c9c841a</title>
<path fill="none" stroke="black" d="M4158.47,-137.844C4152.65,-143.195 4147.15,-149.691 4144,-157 4140.24,-165.741 4143.45,-174.389 4149.28,-181.972"/>
<polygon fill="black" stroke="black" points="4147.08,-184.751 4156.43,-189.737 4152.23,-180.009 4147.08,-184.751"/>
<text text-anchor="middle" x="4160.5" y="-160.8" font-family="Times,serif" font-size="14.00">read</text>
</g>
<!-- 10_node#ServerID_9c632c9c841a -->
<g id="node15" class="node"><title>10_node#ServerID_9c632c9c841a</title>
<polygon fill="none" stroke="black" points="4035,-52 3769,-52 3769,-16 4035,-16 4035,-52"/>
<text text-anchor="middle" x="3902" y="-30.3" font-family="Times,serif" font-size="14.00">10_node#ServerID_9c632c9c841a</text>
</g>
<!-- localhost:3000#ServerID_9c632c9c841a&#45;&gt;10_node#ServerID_9c632c9c841a -->
<g id="edge22" class="edge"><title>localhost:3000#ServerID_9c632c9c841a&#45;&gt;10_node#ServerID_9c632c9c841a</title>
<path fill="none" stroke="black" d="M4134.62,-105.869C4089.05,-91.9873 4019.1,-70.6754 3967.8,-55.0465"/>
<polygon fill="black" stroke="black" points="3968.71,-51.6653 3958.12,-52.099 3966.67,-58.3615 3968.71,-51.6653"/>
<text text-anchor="middle" x="4075.5" y="-73.8" font-family="Times,serif" font-size="14.00">read</text>
</g>
<!-- /home/app/credentials.txt#ServerID_9c632c9c841a -->
<g id="node16" class="node"><title>/home/app/credentials.txt#ServerID_9c632c9c841a</title>
<ellipse fill="none" stroke="black" cx="3624" cy="-121" rx="252.655" ry="18"/>
<text text-anchor="middle" x="3624" y="-117.3" font-family="Times,serif" font-size="14.00">/home/app/credentials.txt#ServerID_9c632c9c841a</text>
</g>
<!-- /home/app/credentials.txt#ServerID_9c632c9c841a&#45;&gt;10_node#ServerID_9c632c9c841a -->
<g id="edge23" class="edge"><title>/home/app/credentials.txt#ServerID_9c632c9c841a&#45;&gt;10_node#ServerID_9c632c9c841a</title>
<path fill="none" stroke="black" d="M3678.26,-103.409C3723.5,-89.5783 3788.09,-69.8271 3836.26,-55.1002"/>
<polygon fill="black" stroke="black" points="3837.43,-58.4025 3845.97,-52.1315 3835.38,-51.7085 3837.43,-58.4025"/>
<text text-anchor="middle" x="3796.5" y="-73.8" font-family="Times,serif" font-size="14.00">read</text>
</g>
<!-- 10.1.80.1:17892#ServerID_OuterContainerID&#45;&gt;10.1.80.247:8080#ServerID_OuterContainerID -->
<g id="edge25" class="edge"><title>10.1.80.1:17892#ServerID_OuterContainerID&#45;&gt;10.1.80.247:8080#ServerID_OuterContainerID</title>
<path fill="none" stroke="black" d="M344.797,-225.565C353.371,-241.09 365.187,-265.252 370,-288 371.38,-294.522 372.151,-296.69 370,-303 368.79,-306.55 367.057,-310.021 365.047,-313.312"/>
<polygon fill="black" stroke="black" points="362.147,-311.351 359.24,-321.54 367.866,-315.387 362.147,-311.351"/>
<text text-anchor="middle" x="392" y="-291.8" font-family="Times,serif" font-size="14.00">POST</text>
</g>
</g>
</svg>
