<?xml version="1.0" encoding="UTF-8" standalone="no"?>
<!DOCTYPE svg PUBLIC "-//W3C//DTD SVG 1.1//EN"
 "http://www.w3.org/Graphics/SVG/1.1/DTD/svg11.dtd">
<!-- Generated by graphviz version 2.38.0 (20140413.2041)
 -->
<!-- Title: G Pages: 1 -->
<svg width="4428pt" height="489pt"
 viewBox="0.00 0.00 4428.00 489.00" xmlns="http://www.w3.org/2000/svg" xmlns:xlink="http://www.w3.org/1999/xlink">
<g id="graph0" class="graph" transform="scale(1 1) rotate(0) translate(4 485)">
<title>G</title>
<polygon fill="white" stroke="none" points="-4,4 -4,-485 4424,-485 4424,4 -4,4"/>
<g id="clust1" class="cluster"><title>clusterServerID_04eca90de97f</title>
<polygon fill="none" stroke="black" points="8,-8 8,-257 1108,-257 1108,-8 8,-8"/>
<text text-anchor="middle" x="558" y="-241.8" font-family="Times,serif" font-size="14.00">clusterServerID_04eca90de97f</text>
</g>
<g id="clust2" class="cluster"><title>clusterServerID_309ec2955ffa</title>
<polygon fill="none" stroke="black" points="2660,-290 2660,-473 3752,-473 3752,-290 2660,-290"/>
<text text-anchor="middle" x="3206" y="-457.8" font-family="Times,serif" font-size="14.00">clusterServerID_309ec2955ffa</text>
</g>
<g id="clust3" class="cluster"><title>clusterServerID_7d87d9945d&#45;dl2ff</title>
<polygon fill="none" stroke="black" points="3898,-290 3898,-365 4234,-365 4234,-290 3898,-290"/>
<text text-anchor="middle" x="4066" y="-349.8" font-family="Times,serif" font-size="14.00">clusterServerID_7d87d9945d&#45;dl2ff</text>
</g>
<g id="clust4" class="cluster"><title>clusterServerID_866797f645&#45;wb664</title>
<polygon fill="none" stroke="black" points="1941,-290 1941,-365 2289,-365 2289,-290 1941,-290"/>
<text text-anchor="middle" x="2115" y="-349.8" font-family="Times,serif" font-size="14.00">clusterServerID_866797f645&#45;wb664</text>
</g>
<g id="clust5" class="cluster"><title>clusterServerID_OuterContainerID</title>
<polygon fill="none" stroke="black" points="1116,-95 1116,-257 4412,-257 4412,-95 1116,-95"/>
<text text-anchor="middle" x="2764" y="-241.8" font-family="Times,serif" font-size="14.00">clusterServerID_OuterContainerID</text>
</g>
<!-- 10.1.80.44:46368#ServerID_OuterContainerID -->
<g id="node1" class="node"><title>10.1.80.44:46368#ServerID_OuterContainerID</title>
<polygon fill="none" stroke="black" points="1451,-226 1123.56,-208 1451,-190 1778.44,-208 1451,-226"/>
<text text-anchor="middle" x="1451" y="-204.3" font-family="Times,serif" font-size="14.00">10.1.80.44:46368#ServerID_OuterContainerID</text>
</g>
<!-- 1_fwatchdog#ServerID_866797f645&#45;wb664 -->
<g id="node2" class="node"><title>1_fwatchdog#ServerID_866797f645&#45;wb664</title>
<polygon fill="none" stroke="black" points="2280.5,-334 1949.5,-334 1949.5,-298 2280.5,-298 2280.5,-334"/>
<text text-anchor="middle" x="2115" y="-312.3" font-family="Times,serif" font-size="14.00">1_fwatchdog#ServerID_866797f645&#45;wb664</text>
</g>
<!-- 10.1.80.44:46368#ServerID_OuterContainerID&#45;&gt;1_fwatchdog#ServerID_866797f645&#45;wb664 -->
<g id="edge1" class="edge"><title>10.1.80.44:46368#ServerID_OuterContainerID&#45;&gt;1_fwatchdog#ServerID_866797f645&#45;wb664</title>
<path fill="none" stroke="black" d="M1508.91,-222.854C1576.5,-238.606 1691.8,-264.179 1792,-280 1839.59,-287.515 1891.39,-293.912 1939.28,-299.1"/>
<polygon fill="black" stroke="black" points="1939.13,-302.603 1949.44,-300.189 1939.87,-295.643 1939.13,-302.603"/>
<text text-anchor="middle" x="1812" y="-268.8" font-family="Times,serif" font-size="14.00">POST</text>
</g>
<!-- 1_fwatchdog#ServerID_309ec2955ffa -->
<g id="node7" class="node"><title>1_fwatchdog#ServerID_309ec2955ffa</title>
<polygon fill="none" stroke="black" points="3744,-442 3454,-442 3454,-406 3744,-406 3744,-442"/>
<text text-anchor="middle" x="3599" y="-420.3" font-family="Times,serif" font-size="14.00">1_fwatchdog#ServerID_309ec2955ffa</text>
</g>
<!-- 10.1.80.44:46368#ServerID_OuterContainerID&#45;&gt;1_fwatchdog#ServerID_309ec2955ffa -->
<g id="edge12" class="edge"><title>10.1.80.44:46368#ServerID_OuterContainerID&#45;&gt;1_fwatchdog#ServerID_309ec2955ffa</title>
<path fill="none" stroke="black" d="M1522.46,-222.103C1590.27,-233.848 1695.18,-250.237 1787,-257 1959.09,-269.676 3167.54,-259.315 3340,-265 3385.73,-266.507 3719.65,-256.681 3751,-290 3773.84,-314.275 3769.91,-337.548 3751,-365 3739.56,-381.616 3722.66,-393.475 3704.26,-401.938"/>
<polygon fill="black" stroke="black" points="3702.65,-398.816 3694.81,-405.943 3705.39,-405.26 3702.65,-398.816"/>
<text text-anchor="middle" x="3782.5" y="-312.3" font-family="Times,serif" font-size="14.00">read</text>
</g>
<!-- 1_fwatchdog#ServerID_866797f645&#45;wb664&#45;&gt;10.1.80.44:46368#ServerID_OuterContainerID -->
<g id="edge4" class="edge"><title>1_fwatchdog#ServerID_866797f645&#45;wb664&#45;&gt;10.1.80.44:46368#ServerID_OuterContainerID</title>
<path fill="none" stroke="black" d="M2022.71,-297.999C1967.45,-287.993 1895.78,-275.32 1832,-265 1735.99,-249.467 1626.07,-233.504 1549.05,-222.616"/>
<polygon fill="black" stroke="black" points="1549.27,-219.113 1538.88,-221.181 1548.29,-226.044 1549.27,-219.113"/>
<text text-anchor="middle" x="1959" y="-268.8" font-family="Times,serif" font-size="14.00">RESPONSE</text>
</g>
<!-- gateway:8080#ServerID_OuterContainerID -->
<g id="node3" class="node"><title>gateway:8080#ServerID_OuterContainerID</title>
<polygon fill="none" stroke="black" points="2756,-226 2451.52,-208 2756,-190 3060.48,-208 2756,-226"/>
<text text-anchor="middle" x="2756" y="-204.3" font-family="Times,serif" font-size="14.00">gateway:8080#ServerID_OuterContainerID</text>
</g>
<!-- 1_fwatchdog#ServerID_866797f645&#45;wb664&#45;&gt;gateway:8080#ServerID_OuterContainerID -->
<g id="edge5" class="edge"><title>1_fwatchdog#ServerID_866797f645&#45;wb664&#45;&gt;gateway:8080#ServerID_OuterContainerID</title>
<path fill="none" stroke="black" d="M2217.74,-297.981C2276.16,-288.306 2350.67,-275.969 2417,-265 2503.1,-250.76 2601.51,-234.506 2670.04,-223.191"/>
<polygon fill="black" stroke="black" points="2670.63,-226.641 2679.93,-221.558 2669.49,-219.734 2670.63,-226.641"/>
<text text-anchor="middle" x="2437" y="-268.8" font-family="Times,serif" font-size="14.00">POST</text>
</g>
<!-- 10.1.80.44:8080#ServerID_OuterContainerID -->
<g id="node6" class="node"><title>10.1.80.44:8080#ServerID_OuterContainerID</title>
<polygon fill="none" stroke="black" points="2115,-226 1796.1,-208 2115,-190 2433.9,-208 2115,-226"/>
<text text-anchor="middle" x="2115" y="-204.3" font-family="Times,serif" font-size="14.00">10.1.80.44:8080#ServerID_OuterContainerID</text>
</g>
<!-- 1_fwatchdog#ServerID_866797f645&#45;wb664&#45;&gt;10.1.80.44:8080#ServerID_OuterContainerID -->
<g id="edge6" class="edge"><title>1_fwatchdog#ServerID_866797f645&#45;wb664&#45;&gt;10.1.80.44:8080#ServerID_OuterContainerID</title>
<path fill="none" stroke="black" d="M2096.04,-297.736C2091.56,-292.523 2087.39,-286.455 2085,-280 2079.25,-264.454 2086.09,-247.33 2094.68,-233.794"/>
<polygon fill="black" stroke="black" points="2097.63,-235.68 2100.46,-225.47 2091.88,-231.685 2097.63,-235.68"/>
<text text-anchor="middle" x="2105" y="-268.8" font-family="Times,serif" font-size="14.00">POST</text>
</g>
<!-- gateway:8080#ServerID_OuterContainerID&#45;&gt;1_fwatchdog#ServerID_866797f645&#45;wb664 -->
<g id="edge2" class="edge"><title>gateway:8080#ServerID_OuterContainerID&#45;&gt;1_fwatchdog#ServerID_866797f645&#45;wb664</title>
<path fill="none" stroke="black" d="M2706.32,-223.14C2648.03,-239.219 2548.25,-265.158 2461,-280 2405.95,-289.365 2345.51,-296.532 2290.76,-301.866"/>
<polygon fill="black" stroke="black" points="2290.23,-298.401 2280.61,-302.841 2290.9,-305.369 2290.23,-298.401"/>
<text text-anchor="middle" x="2576" y="-268.8" font-family="Times,serif" font-size="14.00">RESPONSE</text>
</g>
<!-- 1_fwatchdog#ServerID_7d87d9945d&#45;dl2ff -->
<g id="node4" class="node"><title>1_fwatchdog#ServerID_7d87d9945d&#45;dl2ff</title>
<polygon fill="none" stroke="black" points="4226,-334 3906,-334 3906,-298 4226,-298 4226,-334"/>
<text text-anchor="middle" x="4066" y="-312.3" font-family="Times,serif" font-size="14.00">1_fwatchdog#ServerID_7d87d9945d&#45;dl2ff</text>
</g>
<!-- 10.1.80.44:37898#ServerID_OuterContainerID -->
<g id="node5" class="node"><title>10.1.80.44:37898#ServerID_OuterContainerID</title>
<polygon fill="none" stroke="black" points="4077,-226 3749.56,-208 4077,-190 4404.44,-208 4077,-226"/>
<text text-anchor="middle" x="4077" y="-204.3" font-family="Times,serif" font-size="14.00">10.1.80.44:37898#ServerID_OuterContainerID</text>
</g>
<!-- 1_fwatchdog#ServerID_7d87d9945d&#45;dl2ff&#45;&gt;10.1.80.44:37898#ServerID_OuterContainerID -->
<g id="edge3" class="edge"><title>1_fwatchdog#ServerID_7d87d9945d&#45;dl2ff&#45;&gt;10.1.80.44:37898#ServerID_OuterContainerID</title>
<path fill="none" stroke="black" d="M4030.35,-297.937C4017.82,-289.364 4008.15,-278.024 4014,-265 4020.08,-251.465 4031.22,-239.867 4042.47,-230.795"/>
<polygon fill="black" stroke="black" points="4044.74,-233.466 4050.61,-224.644 4040.52,-227.883 4044.74,-233.466"/>
<text text-anchor="middle" x="4056" y="-268.8" font-family="Times,serif" font-size="14.00">RESPONSE</text>
</g>
<!-- 10.1.80.44:37898#ServerID_OuterContainerID&#45;&gt;1_fwatchdog#ServerID_7d87d9945d&#45;dl2ff -->
<g id="edge7" class="edge"><title>10.1.80.44:37898#ServerID_OuterContainerID&#45;&gt;1_fwatchdog#ServerID_7d87d9945d&#45;dl2ff</title>
<path fill="none" stroke="black" d="M4088.08,-225.615C4096.34,-240.171 4105.07,-261.786 4098,-280 4096.64,-283.507 4094.74,-286.876 4092.55,-290.046"/>
<polygon fill="black" stroke="black" points="4089.75,-287.944 4086.2,-297.928 4095.2,-292.335 4089.75,-287.944"/>
<text text-anchor="middle" x="4120" y="-268.8" font-family="Times,serif" font-size="14.00">POST</text>
</g>
<!-- 1_fwatchdog#ServerID_04eca90de97f -->
<g id="node14" class="node"><title>1_fwatchdog#ServerID_04eca90de97f</title>
<polygon fill="none" stroke="black" points="1022.5,-139 729.5,-139 729.5,-103 1022.5,-103 1022.5,-139"/>
<text text-anchor="middle" x="876" y="-117.3" font-family="Times,serif" font-size="14.00">1_fwatchdog#ServerID_04eca90de97f</text>
</g>
<!-- 10.1.80.44:37898#ServerID_OuterContainerID&#45;&gt;1_fwatchdog#ServerID_04eca90de97f -->
<g id="edge20" class="edge"><title>10.1.80.44:37898#ServerID_OuterContainerID&#45;&gt;1_fwatchdog#ServerID_04eca90de97f</title>
<path fill="none" stroke="black" d="M3928.19,-198.175C3869.84,-195.054 3802.3,-191.86 3741,-190 2950.66,-166.018 2752.47,-191.339 1962,-172 1584.05,-162.753 1489.48,-159.918 1112,-139 1086.36,-137.579 1059.17,-135.839 1032.71,-134.019"/>
<polygon fill="black" stroke="black" points="1032.83,-130.519 1022.62,-133.318 1032.35,-137.502 1032.83,-130.519"/>
<text text-anchor="middle" x="1978.5" y="-160.8" font-family="Times,serif" font-size="14.00">read</text>
</g>
<!-- 10.1.80.44:8080#ServerID_OuterContainerID&#45;&gt;1_fwatchdog#ServerID_866797f645&#45;wb664 -->
<g id="edge8" class="edge"><title>10.1.80.44:8080#ServerID_OuterContainerID&#45;&gt;1_fwatchdog#ServerID_866797f645&#45;wb664</title>
<path fill="none" stroke="black" d="M2120.06,-225.927C2123.71,-240.311 2127.59,-261.508 2125,-280 2124.64,-282.574 2124.14,-285.224 2123.55,-287.859"/>
<polygon fill="black" stroke="black" points="2120.1,-287.198 2120.96,-297.759 2126.87,-288.971 2120.1,-287.198"/>
<text text-anchor="middle" x="2167" y="-268.8" font-family="Times,serif" font-size="14.00">RESPONSE</text>
</g>
<!-- 10.1.80.1:39781#ServerID_OuterContainerID -->
<g id="node18" class="node"><title>10.1.80.1:39781#ServerID_OuterContainerID</title>
<polygon fill="none" stroke="black" points="2008,-139 1689.1,-121 2008,-103 2326.9,-121 2008,-139"/>
<text text-anchor="middle" x="2008" y="-117.3" font-family="Times,serif" font-size="14.00">10.1.80.1:39781#ServerID_OuterContainerID</text>
</g>
<!-- 10.1.80.44:8080#ServerID_OuterContainerID&#45;&gt;10.1.80.1:39781#ServerID_OuterContainerID -->
<g id="edge26" class="edge"><title>10.1.80.44:8080#ServerID_OuterContainerID&#45;&gt;10.1.80.1:39781#ServerID_OuterContainerID</title>
<path fill="none" stroke="black" d="M2033.87,-194.444C2022.57,-189.254 2012.33,-182.03 2005,-172 2000.16,-165.386 1999.29,-156.868 2000.13,-148.743"/>
<polygon fill="black" stroke="black" points="2003.58,-149.298 2001.92,-138.835 1996.69,-148.051 2003.58,-149.298"/>
<text text-anchor="middle" x="2047" y="-160.8" font-family="Times,serif" font-size="14.00">RESPONSE</text>
</g>
<!-- 10.0.88.125:31112#ServerID_OuterContainerID -->
<g id="node19" class="node"><title>10.0.88.125:31112#ServerID_OuterContainerID</title>
<polygon fill="none" stroke="black" points="2680,-139 2344.52,-121 2680,-103 3015.48,-121 2680,-139"/>
<text text-anchor="middle" x="2680" y="-117.3" font-family="Times,serif" font-size="14.00">10.0.88.125:31112#ServerID_OuterContainerID</text>
</g>
<!-- 10.1.80.44:8080#ServerID_OuterContainerID&#45;&gt;10.0.88.125:31112#ServerID_OuterContainerID -->
<g id="edge27" class="edge"><title>10.1.80.44:8080#ServerID_OuterContainerID&#45;&gt;10.0.88.125:31112#ServerID_OuterContainerID</title>
<path fill="none" stroke="black" d="M2197.46,-194.595C2300.97,-179.023 2478.06,-152.38 2586.51,-136.065"/>
<polygon fill="black" stroke="black" points="2587.09,-139.517 2596.46,-134.568 2586.05,-132.595 2587.09,-139.517"/>
<text text-anchor="middle" x="2473" y="-160.8" font-family="Times,serif" font-size="14.00">RESPONSE</text>
</g>
<!-- localhost:3000#ServerID_309ec2955ffa -->
<g id="node8" class="node"><title>localhost:3000#ServerID_309ec2955ffa</title>
<polygon fill="none" stroke="black" points="3463,-334 3183.65,-316 3463,-298 3742.35,-316 3463,-334"/>
<text text-anchor="middle" x="3463" y="-312.3" font-family="Times,serif" font-size="14.00">localhost:3000#ServerID_309ec2955ffa</text>
</g>
<!-- 1_fwatchdog#ServerID_309ec2955ffa&#45;&gt;localhost:3000#ServerID_309ec2955ffa -->
<g id="edge9" class="edge"><title>1_fwatchdog#ServerID_309ec2955ffa&#45;&gt;localhost:3000#ServerID_309ec2955ffa</title>
<path fill="none" stroke="black" d="M3498.17,-405.96C3481.37,-401.124 3467.57,-395.174 3462,-388 3452.45,-375.7 3452.57,-358.248 3455.14,-343.726"/>
<polygon fill="black" stroke="black" points="3458.59,-344.304 3457.34,-333.784 3451.76,-342.79 3458.59,-344.304"/>
<text text-anchor="middle" x="3491" y="-376.8" font-family="Times,serif" font-size="14.00">connect</text>
</g>
<!-- 1_fwatchdog#ServerID_309ec2955ffa&#45;&gt;localhost:3000#ServerID_309ec2955ffa -->
<g id="edge11" class="edge"><title>1_fwatchdog#ServerID_309ec2955ffa&#45;&gt;localhost:3000#ServerID_309ec2955ffa</title>
<path fill="none" stroke="black" d="M3566.71,-405.929C3557.49,-400.59 3547.61,-394.407 3539,-388 3519.63,-373.588 3499.77,-354.865 3485.2,-340.264"/>
<polygon fill="black" stroke="black" points="3487.61,-337.721 3478.1,-333.049 3482.62,-342.631 3487.61,-337.721"/>
<text text-anchor="middle" x="3558" y="-376.8" font-family="Times,serif" font-size="14.00">write</text>
</g>
<!-- localhost:3000#ServerID_309ec2955ffa&#45;&gt;1_fwatchdog#ServerID_309ec2955ffa -->
<g id="edge10" class="edge"><title>localhost:3000#ServerID_309ec2955ffa&#45;&gt;1_fwatchdog#ServerID_309ec2955ffa</title>
<path fill="none" stroke="black" d="M3512.93,-330.885C3536.32,-339.619 3562.95,-353.095 3581,-373 3586.9,-379.51 3590.91,-388.1 3593.61,-396.319"/>
<polygon fill="black" stroke="black" points="3590.24,-397.296 3596.29,-405.996 3596.99,-395.424 3590.24,-397.296"/>
<text text-anchor="middle" x="3606.5" y="-376.8" font-family="Times,serif" font-size="14.00">read</text>
</g>
<!-- /etc/hosts#ServerID_309ec2955ffa -->
<g id="node9" class="node"><title>/etc/hosts#ServerID_309ec2955ffa</title>
<ellipse fill="none" stroke="black" cx="3261" cy="-424" rx="174.669" ry="18"/>
<text text-anchor="middle" x="3261" y="-420.3" font-family="Times,serif" font-size="14.00">/etc/hosts#ServerID_309ec2955ffa</text>
</g>
<!-- 11_node#ServerID_309ec2955ffa -->
<g id="node10" class="node"><title>11_node#ServerID_309ec2955ffa</title>
<polygon fill="none" stroke="black" points="3165.5,-334 2906.5,-334 2906.5,-298 3165.5,-298 3165.5,-334"/>
<text text-anchor="middle" x="3036" y="-312.3" font-family="Times,serif" font-size="14.00">11_node#ServerID_309ec2955ffa</text>
</g>
<!-- /etc/hosts#ServerID_309ec2955ffa&#45;&gt;11_node#ServerID_309ec2955ffa -->
<g id="edge13" class="edge"><title>/etc/hosts#ServerID_309ec2955ffa&#45;&gt;11_node#ServerID_309ec2955ffa</title>
<path fill="none" stroke="black" d="M3225.35,-406.204C3186.41,-387.86 3123.94,-358.432 3081.5,-338.435"/>
<polygon fill="black" stroke="black" points="3082.77,-335.164 3072.23,-334.068 3079.78,-341.497 3082.77,-335.164"/>
<text text-anchor="middle" x="3197.5" y="-376.8" font-family="Times,serif" font-size="14.00">read</text>
</g>
<!-- 11_node#ServerID_309ec2955ffa&#45;&gt;gateway:8080#ServerID_OuterContainerID -->
<g id="edge19" class="edge"><title>11_node#ServerID_309ec2955ffa&#45;&gt;gateway:8080#ServerID_OuterContainerID</title>
<path fill="none" stroke="black" d="M2991.01,-297.969C2939.93,-278.631 2856.9,-247.197 2804.43,-227.334"/>
<polygon fill="black" stroke="black" points="2805.6,-224.033 2795,-223.766 2803.12,-230.58 2805.6,-224.033"/>
<text text-anchor="middle" x="2966" y="-268.8" font-family="Times,serif" font-size="14.00">connect</text>
</g>
<!-- 10.152.183.10:53#ServerID_OuterContainerID -->
<g id="node12" class="node"><title>10.152.183.10:53#ServerID_OuterContainerID</title>
<polygon fill="none" stroke="black" points="3405,-226 3077.56,-208 3405,-190 3732.44,-208 3405,-226"/>
<text text-anchor="middle" x="3405" y="-204.3" font-family="Times,serif" font-size="14.00">10.152.183.10:53#ServerID_OuterContainerID</text>
</g>
<!-- 11_node#ServerID_309ec2955ffa&#45;&gt;10.152.183.10:53#ServerID_OuterContainerID -->
<g id="edge15" class="edge"><title>11_node#ServerID_309ec2955ffa&#45;&gt;10.152.183.10:53#ServerID_OuterContainerID</title>
<path fill="none" stroke="black" d="M3080.06,-297.944C3107.44,-287.678 3143.49,-274.751 3176,-265 3227.57,-249.53 3286.61,-235.172 3331.83,-224.868"/>
<polygon fill="black" stroke="black" points="3332.86,-228.223 3341.84,-222.6 3331.31,-221.395 3332.86,-228.223"/>
<text text-anchor="middle" x="3200.5" y="-268.8" font-family="Times,serif" font-size="14.00">sendto</text>
</g>
<!-- /etc/resolv.conf#ServerID_309ec2955ffa -->
<g id="node11" class="node"><title>/etc/resolv.conf#ServerID_309ec2955ffa</title>
<ellipse fill="none" stroke="black" cx="2868" cy="-424" rx="200.365" ry="18"/>
<text text-anchor="middle" x="2868" y="-420.3" font-family="Times,serif" font-size="14.00">/etc/resolv.conf#ServerID_309ec2955ffa</text>
</g>
<!-- /etc/resolv.conf#ServerID_309ec2955ffa&#45;&gt;11_node#ServerID_309ec2955ffa -->
<g id="edge14" class="edge"><title>/etc/resolv.conf#ServerID_309ec2955ffa&#45;&gt;11_node#ServerID_309ec2955ffa</title>
<path fill="none" stroke="black" d="M2894.99,-405.969C2923.56,-387.942 2968.8,-359.402 3000.3,-339.525"/>
<polygon fill="black" stroke="black" points="3002.21,-342.46 3008.8,-334.164 2998.47,-336.54 3002.21,-342.46"/>
<text text-anchor="middle" x="2962.5" y="-376.8" font-family="Times,serif" font-size="14.00">read</text>
</g>
<!-- 10.152.183.10:53#ServerID_OuterContainerID&#45;&gt;11_node#ServerID_309ec2955ffa -->
<g id="edge16" class="edge"><title>10.152.183.10:53#ServerID_OuterContainerID&#45;&gt;11_node#ServerID_309ec2955ffa</title>
<path fill="none" stroke="black" d="M3371.83,-224.323C3336.22,-240.244 3277.63,-264.899 3225,-280 3220.37,-281.329 3181.45,-288.582 3140.12,-296.144"/>
<polygon fill="black" stroke="black" points="3139.36,-292.725 3130.15,-297.965 3140.62,-299.611 3139.36,-292.725"/>
<text text-anchor="middle" x="3303" y="-268.8" font-family="Times,serif" font-size="14.00">recvfrom</text>
</g>
<!-- localhost:3000#ServerID_04eca90de97f -->
<g id="node13" class="node"><title>localhost:3000#ServerID_04eca90de97f</title>
<polygon fill="none" stroke="black" points="818,-226 535.637,-208 818,-190 1100.36,-208 818,-226"/>
<text text-anchor="middle" x="818" y="-204.3" font-family="Times,serif" font-size="14.00">localhost:3000#ServerID_04eca90de97f</text>
</g>
<!-- localhost:3000#ServerID_04eca90de97f&#45;&gt;1_fwatchdog#ServerID_04eca90de97f -->
<g id="edge17" class="edge"><title>localhost:3000#ServerID_04eca90de97f&#45;&gt;1_fwatchdog#ServerID_04eca90de97f</title>
<path fill="none" stroke="black" d="M862.092,-192.659C871.191,-187.595 879.628,-180.867 885,-172 889.177,-165.105 889.224,-156.759 887.558,-148.878"/>
<polygon fill="black" stroke="black" points="890.912,-147.878 884.712,-139.287 884.201,-149.87 890.912,-147.878"/>
<text text-anchor="middle" x="905.5" y="-160.8" font-family="Times,serif" font-size="14.00">read</text>
</g>
<!-- 13_node#ServerID_04eca90de97f -->
<g id="node15" class="node"><title>13_node#ServerID_04eca90de97f</title>
<polygon fill="none" stroke="black" points="631,-139 369,-139 369,-103 631,-103 631,-139"/>
<text text-anchor="middle" x="500" y="-117.3" font-family="Times,serif" font-size="14.00">13_node#ServerID_04eca90de97f</text>
</g>
<!-- localhost:3000#ServerID_04eca90de97f&#45;&gt;13_node#ServerID_04eca90de97f -->
<g id="edge22" class="edge"><title>localhost:3000#ServerID_04eca90de97f&#45;&gt;13_node#ServerID_04eca90de97f</title>
<path fill="none" stroke="black" d="M766.554,-193.249C714.294,-179.28 632.85,-157.51 573.736,-141.709"/>
<polygon fill="black" stroke="black" points="574.275,-138.231 563.71,-139.029 572.467,-144.993 574.275,-138.231"/>
<text text-anchor="middle" x="695.5" y="-160.8" font-family="Times,serif" font-size="14.00">read</text>
</g>
<!-- 1_fwatchdog#ServerID_04eca90de97f&#45;&gt;localhost:3000#ServerID_04eca90de97f -->
<g id="edge18" class="edge"><title>1_fwatchdog#ServerID_04eca90de97f&#45;&gt;localhost:3000#ServerID_04eca90de97f</title>
<path fill="none" stroke="black" d="M786.106,-139.146C778.326,-143.79 771.382,-149.639 766,-157 758.252,-167.596 765.565,-177.897 776.905,-186.368"/>
<polygon fill="black" stroke="black" points="774.998,-189.303 785.264,-191.922 778.872,-183.473 774.998,-189.303"/>
<text text-anchor="middle" x="795" y="-160.8" font-family="Times,serif" font-size="14.00">connect</text>
</g>
<!-- 1_fwatchdog#ServerID_04eca90de97f&#45;&gt;localhost:3000#ServerID_04eca90de97f -->
<g id="edge21" class="edge"><title>1_fwatchdog#ServerID_04eca90de97f&#45;&gt;localhost:3000#ServerID_04eca90de97f</title>
<path fill="none" stroke="black" d="M857.798,-139.292C852.661,-144.683 847.305,-150.839 843,-157 837.863,-164.353 833.177,-172.914 829.285,-180.852"/>
<polygon fill="black" stroke="black" points="826.025,-179.561 824.956,-190.102 832.365,-182.529 826.025,-179.561"/>
<text text-anchor="middle" x="862" y="-160.8" font-family="Times,serif" font-size="14.00">write</text>
</g>
<!-- pipe:[445142]#ServerID_04eca90de97f -->
<g id="node17" class="node"><title>pipe:[445142]#ServerID_04eca90de97f</title>
<ellipse fill="none" stroke="black" cx="876" cy="-34" rx="196.065" ry="18"/>
<text text-anchor="middle" x="876" y="-30.3" font-family="Times,serif" font-size="14.00">pipe:[445142]#ServerID_04eca90de97f</text>
</g>
<!-- 1_fwatchdog#ServerID_04eca90de97f&#45;&gt;pipe:[445142]#ServerID_04eca90de97f -->
<g id="edge24" class="edge"><title>1_fwatchdog#ServerID_04eca90de97f&#45;&gt;pipe:[445142]#ServerID_04eca90de97f</title>
<path fill="none" stroke="black" d="M876,-102.799C876,-91.1626 876,-75.5479 876,-62.2368"/>
<polygon fill="black" stroke="black" points="879.5,-62.1754 876,-52.1754 872.5,-62.1755 879.5,-62.1754"/>
<text text-anchor="middle" x="895" y="-73.8" font-family="Times,serif" font-size="14.00">write</text>
</g>
<!-- /home/app/credentials.txt#ServerID_04eca90de97f -->
<g id="node16" class="node"><title>/home/app/credentials.txt#ServerID_04eca90de97f</title>
<ellipse fill="none" stroke="black" cx="267" cy="-208" rx="250.756" ry="18"/>
<text text-anchor="middle" x="267" y="-204.3" font-family="Times,serif" font-size="14.00">/home/app/credentials.txt#ServerID_04eca90de97f</text>
</g>
<!-- /home/app/credentials.txt#ServerID_04eca90de97f&#45;&gt;13_node#ServerID_04eca90de97f -->
<g id="edge23" class="edge"><title>/home/app/credentials.txt#ServerID_04eca90de97f&#45;&gt;13_node#ServerID_04eca90de97f</title>
<path fill="none" stroke="black" d="M313.033,-190.207C350.525,-176.53 403.613,-157.163 443.645,-142.559"/>
<polygon fill="black" stroke="black" points="445.07,-145.765 453.265,-139.049 442.671,-139.188 445.07,-145.765"/>
<text text-anchor="middle" x="414.5" y="-160.8" font-family="Times,serif" font-size="14.00">read</text>
</g>
<!-- 10.1.80.1:39781#ServerID_OuterContainerID&#45;&gt;10.1.80.44:8080#ServerID_OuterContainerID -->
<g id="edge25" class="edge"><title>10.1.80.1:39781#ServerID_OuterContainerID&#45;&gt;10.1.80.44:8080#ServerID_OuterContainerID</title>
<path fill="none" stroke="black" d="M2060.33,-136.235C2072.14,-141.318 2083.86,-148.081 2093,-157 2099.54,-163.381 2104.27,-172.038 2107.63,-180.355"/>
<polygon fill="black" stroke="black" points="2104.34,-181.544 2110.97,-189.805 2110.94,-179.211 2104.34,-181.544"/>
<text text-anchor="middle" x="2123" y="-160.8" font-family="Times,serif" font-size="14.00">POST</text>
</g>
</g>
</svg>
