<?xml version="1.0" encoding="UTF-8" standalone="no"?>
<!DOCTYPE svg PUBLIC "-//W3C//DTD SVG 1.1//EN"
 "http://www.w3.org/Graphics/SVG/1.1/DTD/svg11.dtd">
<!-- Generated by graphviz version 2.38.0 (20140413.2041)
 -->
<!-- Title: G Pages: 1 -->
<svg width="5857pt" height="906pt"
 viewBox="0.00 0.00 5857.00 906.00" xmlns="http://www.w3.org/2000/svg" xmlns:xlink="http://www.w3.org/1999/xlink">
<g id="graph0" class="graph" transform="scale(1 1) rotate(0) translate(4 902)">
<title>G</title>
<polygon fill="white" stroke="none" points="-4,4 -4,-902 5853,-902 5853,4 -4,4"/>
<g id="clust1" class="cluster"><title>clusterServerID_2347d2f455dd</title>
<polygon fill="none" stroke="black" points="8,-530 8,-759 1122,-759 1122,-530 8,-530"/>
<text text-anchor="middle" x="565" y="-743.8" font-family="Times,serif" font-size="14.00">clusterServerID_2347d2f455dd</text>
</g>
<g id="clust2" class="cluster"><title>clusterServerID_5f846fd567&#45;g8dn6</title>
<polygon fill="none" stroke="black" points="2623,-792 2623,-890 2963,-890 2963,-792 2623,-792"/>
<text text-anchor="middle" x="2793" y="-874.8" font-family="Times,serif" font-size="14.00">clusterServerID_5f846fd567&#45;g8dn6</text>
</g>
<g id="clust3" class="cluster"><title>clusterServerID_6df85d7674&#45;f2xxt</title>
<polygon fill="none" stroke="black" points="5505,-530 5505,-628 5841,-628 5841,-530 5505,-530"/>
<text text-anchor="middle" x="5673" y="-612.8" font-family="Times,serif" font-size="14.00">clusterServerID_6df85d7674&#45;f2xxt</text>
</g>
<g id="clust4" class="cluster"><title>clusterServerID_7cf8268e6ab5</title>
<polygon fill="none" stroke="black" points="4434,-8 4434,-628 5497,-628 5497,-8 4434,-8"/>
<text text-anchor="middle" x="4965.5" y="-612.8" font-family="Times,serif" font-size="14.00">clusterServerID_7cf8268e6ab5</text>
</g>
<g id="clust5" class="cluster"><title>clusterServerID_OuterContainerID</title>
<polygon fill="none" stroke="black" points="1130,-530 1130,-759 4426,-759 4426,-530 1130,-530"/>
<text text-anchor="middle" x="2778" y="-743.8" font-family="Times,serif" font-size="14.00">clusterServerID_OuterContainerID</text>
</g>
<!-- 10.1.80.93:35660#ServerID_OuterContainerID -->
<g id="node1" class="node"><title>10.1.80.93:35660#ServerID_OuterContainerID</title>
<polygon fill="none" stroke="black" points="2793,-705 2465.56,-687 2793,-669 3120.44,-687 2793,-705"/>
<text text-anchor="middle" x="2793" y="-683.3" font-family="Times,serif" font-size="14.00">10.1.80.93:35660#ServerID_OuterContainerID</text>
</g>
<!-- 1_fwatchdog#ServerID_5f846fd567&#45;g8dn6 -->
<g id="node2" class="node"><title>1_fwatchdog#ServerID_5f846fd567&#45;g8dn6</title>
<polygon fill="none" stroke="black" points="2955,-836 2631,-836 2631,-800 2955,-800 2955,-836"/>
<text text-anchor="middle" x="2793" y="-814.3" font-family="Times,serif" font-size="14.00">1_fwatchdog#ServerID_5f846fd567&#45;g8dn6</text>
</g>
<!-- 10.1.80.93:35660#ServerID_OuterContainerID&#45;&gt;1_fwatchdog#ServerID_5f846fd567&#45;g8dn6 -->
<g id="edge1" class="edge"><title>10.1.80.93:35660#ServerID_OuterContainerID&#45;&gt;1_fwatchdog#ServerID_5f846fd567&#45;g8dn6</title>
<path fill="none" stroke="black" d="M2778.59,-704.491C2766.42,-719.588 2749.91,-743.148 2743,-767 2741.14,-773.403 2739.92,-776.087 2743,-782 2745.12,-786.075 2747.96,-789.774 2751.21,-793.107"/>
<polygon fill="black" stroke="black" points="2749.04,-795.859 2758.86,-799.823 2753.66,-790.597 2749.04,-795.859"/>
<text text-anchor="middle" x="2763" y="-770.8" font-family="Times,serif" font-size="14.00">POST</text>
</g>
<!-- 1_fwatchdog#ServerID_7cf8268e6ab5 -->
<g id="node13" class="node"><title>1_fwatchdog#ServerID_7cf8268e6ab5</title>
<polygon fill="none" stroke="black" points="4875,-574 4581,-574 4581,-538 4875,-538 4875,-574"/>
<text text-anchor="middle" x="4728" y="-552.3" font-family="Times,serif" font-size="14.00">1_fwatchdog#ServerID_7cf8268e6ab5</text>
</g>
<!-- 10.1.80.93:35660#ServerID_OuterContainerID&#45;&gt;1_fwatchdog#ServerID_7cf8268e6ab5 -->
<g id="edge18" class="edge"><title>10.1.80.93:35660#ServerID_OuterContainerID&#45;&gt;1_fwatchdog#ServerID_7cf8268e6ab5</title>
<path fill="none" stroke="black" d="M2929.46,-676.496C3105.38,-664.681 3420.82,-644.979 3691,-636 3773.07,-633.272 4348.5,-638.023 4430,-628 4511.63,-617.962 4603.38,-594.143 4663.24,-576.856"/>
<polygon fill="black" stroke="black" points="4664.31,-580.19 4672.93,-574.033 4662.35,-573.469 4664.31,-580.19"/>
<text text-anchor="middle" x="3707.5" y="-639.8" font-family="Times,serif" font-size="14.00">read</text>
</g>
<!-- 1_fwatchdog#ServerID_5f846fd567&#45;g8dn6&#45;&gt;10.1.80.93:35660#ServerID_OuterContainerID -->
<g id="edge4" class="edge"><title>1_fwatchdog#ServerID_5f846fd567&#45;g8dn6&#45;&gt;10.1.80.93:35660#ServerID_OuterContainerID</title>
<path fill="none" stroke="black" d="M2811.34,-799.642C2815.67,-794.429 2819.7,-788.384 2822,-782 2830.31,-758.942 2820.19,-732.195 2809.69,-713.141"/>
<polygon fill="black" stroke="black" points="2812.67,-711.303 2804.58,-704.455 2806.64,-714.85 2812.67,-711.303"/>
<text text-anchor="middle" x="2867" y="-770.8" font-family="Times,serif" font-size="14.00">RESPONSE</text>
</g>
<!-- 1_fwatchdog#ServerID_6df85d7674&#45;f2xxt -->
<g id="node3" class="node"><title>1_fwatchdog#ServerID_6df85d7674&#45;f2xxt</title>
<polygon fill="none" stroke="black" points="5833,-574 5513,-574 5513,-538 5833,-538 5833,-574"/>
<text text-anchor="middle" x="5673" y="-552.3" font-family="Times,serif" font-size="14.00">1_fwatchdog#ServerID_6df85d7674&#45;f2xxt</text>
</g>
<!-- 10.1.80.93:43650#ServerID_OuterContainerID -->
<g id="node4" class="node"><title>10.1.80.93:43650#ServerID_OuterContainerID</title>
<polygon fill="none" stroke="black" points="4091,-705 3763.56,-687 4091,-669 4418.44,-687 4091,-705"/>
<text text-anchor="middle" x="4091" y="-683.3" font-family="Times,serif" font-size="14.00">10.1.80.93:43650#ServerID_OuterContainerID</text>
</g>
<!-- 1_fwatchdog#ServerID_6df85d7674&#45;f2xxt&#45;&gt;10.1.80.93:43650#ServerID_OuterContainerID -->
<g id="edge2" class="edge"><title>1_fwatchdog#ServerID_6df85d7674&#45;f2xxt&#45;&gt;10.1.80.93:43650#ServerID_OuterContainerID</title>
<path fill="none" stroke="black" d="M5641.48,-574.137C5607.82,-591.438 5552.35,-617.111 5501,-628 5468.05,-634.986 5231.66,-634.796 5198,-636 4866.33,-647.868 4478.97,-666.446 4261.59,-677.302"/>
<polygon fill="black" stroke="black" points="4261.18,-673.818 4251.37,-677.813 4261.53,-680.809 4261.18,-673.818"/>
<text text-anchor="middle" x="5240" y="-639.8" font-family="Times,serif" font-size="14.00">RESPONSE</text>
</g>
<!-- 10.1.80.93:8080#ServerID_OuterContainerID -->
<g id="node5" class="node"><title>10.1.80.93:8080#ServerID_OuterContainerID</title>
<polygon fill="none" stroke="black" points="2129,-705 1810.1,-687 2129,-669 2447.9,-687 2129,-705"/>
<text text-anchor="middle" x="2129" y="-683.3" font-family="Times,serif" font-size="14.00">10.1.80.93:8080#ServerID_OuterContainerID</text>
</g>
<!-- 1_fwatchdog#ServerID_6df85d7674&#45;f2xxt&#45;&gt;10.1.80.93:8080#ServerID_OuterContainerID -->
<g id="edge6" class="edge"><title>1_fwatchdog#ServerID_6df85d7674&#45;f2xxt&#45;&gt;10.1.80.93:8080#ServerID_OuterContainerID</title>
<path fill="none" stroke="black" d="M5642.15,-574.056C5608.59,-591.56 5552.8,-617.65 5501,-628 5464.15,-635.364 2832.55,-634.537 2795,-636 2604.16,-643.436 2383.2,-662.001 2249.87,-674.297"/>
<polygon fill="black" stroke="black" points="2249.27,-670.838 2239.63,-675.244 2249.91,-677.808 2249.27,-670.838"/>
<text text-anchor="middle" x="2815" y="-639.8" font-family="Times,serif" font-size="14.00">POST</text>
</g>
<!-- gateway:8080#ServerID_OuterContainerID -->
<g id="node6" class="node"><title>gateway:8080#ServerID_OuterContainerID</title>
<polygon fill="none" stroke="black" points="3442,-705 3137.52,-687 3442,-669 3746.48,-687 3442,-705"/>
<text text-anchor="middle" x="3442" y="-683.3" font-family="Times,serif" font-size="14.00">gateway:8080#ServerID_OuterContainerID</text>
</g>
<!-- 1_fwatchdog#ServerID_6df85d7674&#45;f2xxt&#45;&gt;gateway:8080#ServerID_OuterContainerID -->
<g id="edge8" class="edge"><title>1_fwatchdog#ServerID_6df85d7674&#45;f2xxt&#45;&gt;gateway:8080#ServerID_OuterContainerID</title>
<path fill="none" stroke="black" d="M5642.14,-574.026C5608.58,-591.504 5552.78,-617.573 5501,-628 5464.37,-635.376 4193.33,-634.583 4156,-636 3948.94,-643.858 3708.7,-662.692 3566.34,-674.87"/>
<polygon fill="black" stroke="black" points="3565.93,-671.393 3556.26,-675.736 3566.53,-678.367 3565.93,-671.393"/>
<text text-anchor="middle" x="4176" y="-639.8" font-family="Times,serif" font-size="14.00">POST</text>
</g>
<!-- 10.1.80.93:43650#ServerID_OuterContainerID&#45;&gt;1_fwatchdog#ServerID_6df85d7674&#45;f2xxt -->
<g id="edge5" class="edge"><title>10.1.80.93:43650#ServerID_OuterContainerID&#45;&gt;1_fwatchdog#ServerID_6df85d7674&#45;f2xxt</title>
<path fill="none" stroke="black" d="M4361.19,-683.85C4602.77,-680.548 4966.34,-672.184 5282,-651 5379.65,-644.447 5406.13,-652.029 5501,-628 5546.8,-616.4 5596.41,-594.881 5630.52,-578.563"/>
<polygon fill="black" stroke="black" points="5632.24,-581.619 5639.72,-574.111 5629.19,-575.319 5632.24,-581.619"/>
<text text-anchor="middle" x="5484" y="-639.8" font-family="Times,serif" font-size="14.00">POST</text>
</g>
<!-- 1_fwatchdog#ServerID_2347d2f455dd -->
<g id="node7" class="node"><title>1_fwatchdog#ServerID_2347d2f455dd</title>
<polygon fill="none" stroke="black" points="312,-705 16,-705 16,-669 312,-669 312,-705"/>
<text text-anchor="middle" x="164" y="-683.3" font-family="Times,serif" font-size="14.00">1_fwatchdog#ServerID_2347d2f455dd</text>
</g>
<!-- 10.1.80.93:43650#ServerID_OuterContainerID&#45;&gt;1_fwatchdog#ServerID_2347d2f455dd -->
<g id="edge13" class="edge"><title>10.1.80.93:43650#ServerID_OuterContainerID&#45;&gt;1_fwatchdog#ServerID_2347d2f455dd</title>
<path fill="none" stroke="black" d="M4037.45,-702.143C3971.61,-719.905 3856.15,-748.284 3755,-759 3660.14,-769.049 414.193,-779.35 321,-759 278.071,-749.626 232.847,-727.393 202.021,-710.093"/>
<polygon fill="black" stroke="black" points="203.749,-707.05 193.329,-705.131 200.278,-713.129 203.749,-707.05"/>
<text text-anchor="middle" x="2804" y="-770.8" font-family="Times,serif" font-size="14.00">read</text>
</g>
<!-- 10.1.80.93:8080#ServerID_OuterContainerID&#45;&gt;1_fwatchdog#ServerID_6df85d7674&#45;f2xxt -->
<g id="edge3" class="edge"><title>10.1.80.93:8080#ServerID_OuterContainerID&#45;&gt;1_fwatchdog#ServerID_6df85d7674&#45;f2xxt</title>
<path fill="none" stroke="black" d="M2279.1,-677.424C2499.06,-665.326 2921.94,-643.848 3282,-636 3312.81,-635.328 5470.78,-634.049 5501,-628 5548.34,-618.524 5599.03,-595.915 5633.02,-578.736"/>
<polygon fill="black" stroke="black" points="5634.85,-581.731 5642.15,-574.05 5631.65,-575.503 5634.85,-581.731"/>
<text text-anchor="middle" x="3324" y="-639.8" font-family="Times,serif" font-size="14.00">RESPONSE</text>
</g>
<!-- 10.1.80.1:54731#ServerID_OuterContainerID -->
<g id="node24" class="node"><title>10.1.80.1:54731#ServerID_OuterContainerID</title>
<polygon fill="none" stroke="black" points="2022,-574 1703.1,-556 2022,-538 2340.9,-556 2022,-574"/>
<text text-anchor="middle" x="2022" y="-552.3" font-family="Times,serif" font-size="14.00">10.1.80.1:54731#ServerID_OuterContainerID</text>
</g>
<!-- 10.1.80.93:8080#ServerID_OuterContainerID&#45;&gt;10.1.80.1:54731#ServerID_OuterContainerID -->
<g id="edge34" class="edge"><title>10.1.80.93:8080#ServerID_OuterContainerID&#45;&gt;10.1.80.1:54731#ServerID_OuterContainerID</title>
<path fill="none" stroke="black" d="M2047.87,-673.444C2036.57,-668.254 2026.33,-661.03 2019,-651 2004.97,-631.808 2007.87,-604.035 2012.98,-583.653"/>
<polygon fill="black" stroke="black" points="2016.43,-584.328 2015.78,-573.753 2009.69,-582.425 2016.43,-584.328"/>
<text text-anchor="middle" x="2061" y="-639.8" font-family="Times,serif" font-size="14.00">RESPONSE</text>
</g>
<!-- 10.0.88.125:31112#ServerID_OuterContainerID -->
<g id="node25" class="node"><title>10.0.88.125:31112#ServerID_OuterContainerID</title>
<polygon fill="none" stroke="black" points="2694,-574 2358.52,-556 2694,-538 3029.48,-556 2694,-574"/>
<text text-anchor="middle" x="2694" y="-552.3" font-family="Times,serif" font-size="14.00">10.0.88.125:31112#ServerID_OuterContainerID</text>
</g>
<!-- 10.1.80.93:8080#ServerID_OuterContainerID&#45;&gt;10.0.88.125:31112#ServerID_OuterContainerID -->
<g id="edge35" class="edge"><title>10.1.80.93:8080#ServerID_OuterContainerID&#45;&gt;10.0.88.125:31112#ServerID_OuterContainerID</title>
<path fill="none" stroke="black" d="M2188.93,-672.317C2294.1,-648.304 2511.36,-598.7 2623.54,-573.087"/>
<polygon fill="black" stroke="black" points="2624.44,-576.473 2633.41,-570.835 2622.88,-569.648 2624.44,-576.473"/>
<text text-anchor="middle" x="2387" y="-639.8" font-family="Times,serif" font-size="14.00">RESPONSE</text>
</g>
<!-- gateway:8080#ServerID_OuterContainerID&#45;&gt;1_fwatchdog#ServerID_6df85d7674&#45;f2xxt -->
<g id="edge7" class="edge"><title>gateway:8080#ServerID_OuterContainerID&#45;&gt;1_fwatchdog#ServerID_6df85d7674&#45;f2xxt</title>
<path fill="none" stroke="black" d="M3586.5,-677.519C3639.49,-674.577 3699.95,-671.413 3755,-669 4194.38,-649.74 4304.31,-645.658 4744,-636 4786.05,-635.076 5459.79,-636.398 5501,-628 5548.16,-618.389 5598.69,-595.916 5632.69,-578.808"/>
<polygon fill="black" stroke="black" points="5634.51,-581.807 5641.82,-574.139 5631.33,-575.573 5634.51,-581.807"/>
<text text-anchor="middle" x="4786" y="-639.8" font-family="Times,serif" font-size="14.00">RESPONSE</text>
</g>
<!-- localhost:3000#ServerID_2347d2f455dd -->
<g id="node8" class="node"><title>localhost:3000#ServerID_2347d2f455dd</title>
<polygon fill="none" stroke="black" points="301,-574 16.1225,-556 301,-538 585.878,-556 301,-574"/>
<text text-anchor="middle" x="301" y="-552.3" font-family="Times,serif" font-size="14.00">localhost:3000#ServerID_2347d2f455dd</text>
</g>
<!-- 1_fwatchdog#ServerID_2347d2f455dd&#45;&gt;localhost:3000#ServerID_2347d2f455dd -->
<g id="edge9" class="edge"><title>1_fwatchdog#ServerID_2347d2f455dd&#45;&gt;localhost:3000#ServerID_2347d2f455dd</title>
<path fill="none" stroke="black" d="M182.193,-668.87C206.439,-646.039 249.427,-605.562 276.505,-580.064"/>
<polygon fill="black" stroke="black" points="279.145,-582.386 284.026,-572.983 274.346,-577.29 279.145,-582.386"/>
<text text-anchor="middle" x="246" y="-639.8" font-family="Times,serif" font-size="14.00">connect</text>
</g>
<!-- 1_fwatchdog#ServerID_2347d2f455dd&#45;&gt;localhost:3000#ServerID_2347d2f455dd -->
<g id="edge12" class="edge"><title>1_fwatchdog#ServerID_2347d2f455dd&#45;&gt;localhost:3000#ServerID_2347d2f455dd</title>
<path fill="none" stroke="black" d="M254.262,-668.996C263.482,-664.353 272.01,-658.464 279,-651 295.683,-633.186 300.505,-605.224 301.562,-584.422"/>
<polygon fill="black" stroke="black" points="305.064,-584.373 301.814,-574.289 298.066,-584.198 305.064,-584.373"/>
<text text-anchor="middle" x="309" y="-639.8" font-family="Times,serif" font-size="14.00">write</text>
</g>
<!-- localhost:3000#ServerID_2347d2f455dd&#45;&gt;1_fwatchdog#ServerID_2347d2f455dd -->
<g id="edge11" class="edge"><title>localhost:3000#ServerID_2347d2f455dd&#45;&gt;1_fwatchdog#ServerID_2347d2f455dd</title>
<path fill="none" stroke="black" d="M256.074,-571.306C225.799,-583.455 187.887,-604.091 168,-636 163.883,-642.605 162.154,-650.693 161.646,-658.422"/>
<polygon fill="black" stroke="black" points="158.145,-658.553 161.602,-668.568 165.145,-658.584 158.145,-658.553"/>
<text text-anchor="middle" x="184.5" y="-639.8" font-family="Times,serif" font-size="14.00">read</text>
</g>
<!-- 13_node#ServerID_2347d2f455dd -->
<g id="node9" class="node"><title>13_node#ServerID_2347d2f455dd</title>
<polygon fill="none" stroke="black" points="1113.5,-574 848.5,-574 848.5,-538 1113.5,-538 1113.5,-574"/>
<text text-anchor="middle" x="981" y="-552.3" font-family="Times,serif" font-size="14.00">13_node#ServerID_2347d2f455dd</text>
</g>
<!-- 13_node#ServerID_2347d2f455dd&#45;&gt;gateway:8080#ServerID_OuterContainerID -->
<g id="edge17" class="edge"><title>13_node#ServerID_2347d2f455dd&#45;&gt;gateway:8080#ServerID_OuterContainerID</title>
<path fill="none" stroke="black" d="M1007.2,-574.134C1035.27,-591.432 1081.78,-617.102 1126,-628 1170.52,-638.97 1905.16,-650.011 1951,-651 2474.49,-662.296 2605.7,-650.798 3129,-669 3182.16,-670.849 3240.34,-673.764 3291.98,-676.661"/>
<polygon fill="black" stroke="black" points="3292.03,-680.17 3302.21,-677.24 3292.43,-673.181 3292.03,-680.17"/>
<text text-anchor="middle" x="1980" y="-639.8" font-family="Times,serif" font-size="14.00">connect</text>
</g>
<!-- 10.152.183.10:53#ServerID_OuterContainerID -->
<g id="node10" class="node"><title>10.152.183.10:53#ServerID_OuterContainerID</title>
<polygon fill="none" stroke="black" points="1465,-705 1137.56,-687 1465,-669 1792.44,-687 1465,-705"/>
<text text-anchor="middle" x="1465" y="-683.3" font-family="Times,serif" font-size="14.00">10.152.183.10:53#ServerID_OuterContainerID</text>
</g>
<!-- 13_node#ServerID_2347d2f455dd&#45;&gt;10.152.183.10:53#ServerID_OuterContainerID -->
<g id="edge10" class="edge"><title>13_node#ServerID_2347d2f455dd&#45;&gt;10.152.183.10:53#ServerID_OuterContainerID</title>
<path fill="none" stroke="black" d="M1009.68,-574.11C1038.21,-590.383 1083.72,-614.346 1126,-628 1196.39,-650.735 1278.05,-665.049 1343.58,-673.768"/>
<polygon fill="black" stroke="black" points="1343.17,-677.244 1353.54,-675.066 1344.08,-670.303 1343.17,-677.244"/>
<text text-anchor="middle" x="1232.5" y="-639.8" font-family="Times,serif" font-size="14.00">sendto</text>
</g>
<!-- 10.152.183.10:53#ServerID_OuterContainerID&#45;&gt;13_node#ServerID_2347d2f455dd -->
<g id="edge16" class="edge"><title>10.152.183.10:53#ServerID_OuterContainerID&#45;&gt;13_node#ServerID_2347d2f455dd</title>
<path fill="none" stroke="black" d="M1271.24,-679.638C1194.81,-674.768 1117.16,-666.172 1083,-651 1048.85,-635.831 1018.62,-604.514 1000.11,-582.198"/>
<polygon fill="black" stroke="black" points="1002.61,-579.722 993.605,-574.139 997.162,-584.119 1002.61,-579.722"/>
<text text-anchor="middle" x="1116" y="-639.8" font-family="Times,serif" font-size="14.00">recvfrom</text>
</g>
<!-- /etc/hosts#ServerID_2347d2f455dd -->
<g id="node11" class="node"><title>/etc/hosts#ServerID_2347d2f455dd</title>
<ellipse fill="none" stroke="black" cx="509" cy="-687" rx="178.969" ry="18"/>
<text text-anchor="middle" x="509" y="-683.3" font-family="Times,serif" font-size="14.00">/etc/hosts#ServerID_2347d2f455dd</text>
</g>
<!-- /etc/hosts#ServerID_2347d2f455dd&#45;&gt;13_node#ServerID_2347d2f455dd -->
<g id="edge14" class="edge"><title>/etc/hosts#ServerID_2347d2f455dd&#45;&gt;13_node#ServerID_2347d2f455dd</title>
<path fill="none" stroke="black" d="M567.825,-669.923C654.226,-646.309 815.292,-602.289 908.762,-576.743"/>
<polygon fill="black" stroke="black" points="909.701,-580.115 918.425,-574.102 907.856,-573.362 909.701,-580.115"/>
<text text-anchor="middle" x="705.5" y="-639.8" font-family="Times,serif" font-size="14.00">read</text>
</g>
<!-- /etc/resolv.conf#ServerID_2347d2f455dd -->
<g id="node12" class="node"><title>/etc/resolv.conf#ServerID_2347d2f455dd</title>
<ellipse fill="none" stroke="black" cx="910" cy="-687" rx="204.164" ry="18"/>
<text text-anchor="middle" x="910" y="-683.3" font-family="Times,serif" font-size="14.00">/etc/resolv.conf#ServerID_2347d2f455dd</text>
</g>
<!-- /etc/resolv.conf#ServerID_2347d2f455dd&#45;&gt;13_node#ServerID_2347d2f455dd -->
<g id="edge15" class="edge"><title>/etc/resolv.conf#ServerID_2347d2f455dd&#45;&gt;13_node#ServerID_2347d2f455dd</title>
<path fill="none" stroke="black" d="M919.428,-668.87C931.523,-646.895 952.615,-608.573 966.693,-582.994"/>
<polygon fill="black" stroke="black" points="969.777,-584.649 971.533,-574.201 963.645,-581.274 969.777,-584.649"/>
<text text-anchor="middle" x="954.5" y="-639.8" font-family="Times,serif" font-size="14.00">read</text>
</g>
<!-- localhost:3000#ServerID_7cf8268e6ab5 -->
<g id="node14" class="node"><title>localhost:3000#ServerID_7cf8268e6ab5</title>
<polygon fill="none" stroke="black" points="4728,-487 4444.8,-469 4728,-451 5011.2,-469 4728,-487"/>
<text text-anchor="middle" x="4728" y="-465.3" font-family="Times,serif" font-size="14.00">localhost:3000#ServerID_7cf8268e6ab5</text>
</g>
<!-- 1_fwatchdog#ServerID_7cf8268e6ab5&#45;&gt;localhost:3000#ServerID_7cf8268e6ab5 -->
<g id="edge19" class="edge"><title>1_fwatchdog#ServerID_7cf8268e6ab5&#45;&gt;localhost:3000#ServerID_7cf8268e6ab5</title>
<path fill="none" stroke="black" d="M4728,-537.799C4728,-526.163 4728,-510.548 4728,-497.237"/>
<polygon fill="black" stroke="black" points="4731.5,-497.175 4728,-487.175 4724.5,-497.175 4731.5,-497.175"/>
<text text-anchor="middle" x="4747" y="-508.8" font-family="Times,serif" font-size="14.00">write</text>
</g>
<!-- 1_fwatchdog#ServerID_7cf8268e6ab5&#45;&gt;localhost:3000#ServerID_7cf8268e6ab5 -->
<g id="edge21" class="edge"><title>1_fwatchdog#ServerID_7cf8268e6ab5&#45;&gt;localhost:3000#ServerID_7cf8268e6ab5</title>
<path fill="none" stroke="black" d="M4753.35,-537.914C4758.87,-532.852 4763.96,-526.813 4767,-520 4771.36,-510.225 4766.78,-500.662 4759.43,-492.56"/>
<polygon fill="black" stroke="black" points="4761.73,-489.918 4752.07,-485.567 4756.91,-494.992 4761.73,-489.918"/>
<text text-anchor="middle" x="4797" y="-508.8" font-family="Times,serif" font-size="14.00">connect</text>
</g>
<!-- pipe:[7845976]#ServerID_7cf8268e6ab5 -->
<g id="node23" class="node"><title>pipe:[7845976]#ServerID_7cf8268e6ab5</title>
<ellipse fill="none" stroke="black" cx="5231" cy="-469" rx="202.264" ry="18"/>
<text text-anchor="middle" x="5231" y="-465.3" font-family="Times,serif" font-size="14.00">pipe:[7845976]#ServerID_7cf8268e6ab5</text>
</g>
<!-- 1_fwatchdog#ServerID_7cf8268e6ab5&#45;&gt;pipe:[7845976]#ServerID_7cf8268e6ab5 -->
<g id="edge32" class="edge"><title>1_fwatchdog#ServerID_7cf8268e6ab5&#45;&gt;pipe:[7845976]#ServerID_7cf8268e6ab5</title>
<path fill="none" stroke="black" d="M4828.88,-537.952C4916.84,-523.089 5043.7,-501.652 5131.3,-486.848"/>
<polygon fill="black" stroke="black" points="5131.97,-490.284 5141.25,-485.167 5130.8,-483.382 5131.97,-490.284"/>
<text text-anchor="middle" x="5028" y="-508.8" font-family="Times,serif" font-size="14.00">write</text>
</g>
<!-- localhost:3000#ServerID_7cf8268e6ab5&#45;&gt;1_fwatchdog#ServerID_7cf8268e6ab5 -->
<g id="edge20" class="edge"><title>localhost:3000#ServerID_7cf8268e6ab5&#45;&gt;1_fwatchdog#ServerID_7cf8268e6ab5</title>
<path fill="none" stroke="black" d="M4704.9,-485.918C4694.5,-495.195 4685.62,-507.503 4691,-520 4692.57,-523.642 4694.72,-527.082 4697.21,-530.279"/>
<polygon fill="black" stroke="black" points="4694.62,-532.639 4703.93,-537.702 4699.81,-527.94 4694.62,-532.639"/>
<text text-anchor="middle" x="4707.5" y="-508.8" font-family="Times,serif" font-size="14.00">read</text>
</g>
<!-- 13_node#ServerID_7cf8268e6ab5 -->
<g id="node16" class="node"><title>13_node#ServerID_7cf8268e6ab5</title>
<polygon fill="none" stroke="black" points="4861.5,-400 4598.5,-400 4598.5,-364 4861.5,-364 4861.5,-400"/>
<text text-anchor="middle" x="4730" y="-378.3" font-family="Times,serif" font-size="14.00">13_node#ServerID_7cf8268e6ab5</text>
</g>
<!-- localhost:3000#ServerID_7cf8268e6ab5&#45;&gt;13_node#ServerID_7cf8268e6ab5 -->
<g id="edge23" class="edge"><title>localhost:3000#ServerID_7cf8268e6ab5&#45;&gt;13_node#ServerID_7cf8268e6ab5</title>
<path fill="none" stroke="black" d="M4728.4,-450.799C4728.68,-439.163 4729.05,-423.548 4729.36,-410.237"/>
<polygon fill="black" stroke="black" points="4732.86,-410.255 4729.6,-400.175 4725.86,-410.09 4732.86,-410.255"/>
<text text-anchor="middle" x="4745.5" y="-421.8" font-family="Times,serif" font-size="14.00">read</text>
</g>
<!-- /dev/null#ServerID_7cf8268e6ab5 -->
<g id="node15" class="node"><title>/dev/null#ServerID_7cf8268e6ab5</title>
<ellipse fill="none" stroke="black" cx="4614" cy="-295" rx="171.67" ry="18"/>
<text text-anchor="middle" x="4614" y="-291.3" font-family="Times,serif" font-size="14.00">/dev/null#ServerID_7cf8268e6ab5</text>
</g>
<!-- /dev/null#ServerID_7cf8268e6ab5&#45;&gt;13_node#ServerID_7cf8268e6ab5 -->
<g id="edge22" class="edge"><title>/dev/null#ServerID_7cf8268e6ab5&#45;&gt;13_node#ServerID_7cf8268e6ab5</title>
<path fill="none" stroke="black" d="M4642.69,-312.894C4651.61,-318.418 4661.36,-324.747 4670,-331 4681.18,-339.094 4692.95,-348.657 4703.08,-357.24"/>
<polygon fill="black" stroke="black" points="4700.94,-360.014 4710.81,-363.867 4705.5,-354.7 4700.94,-360.014"/>
<text text-anchor="middle" x="4705.5" y="-334.8" font-family="Times,serif" font-size="14.00">read</text>
</g>
<!-- 13_node#ServerID_7cf8268e6ab5&#45;&gt;/dev/null#ServerID_7cf8268e6ab5 -->
<g id="edge31" class="edge"><title>13_node#ServerID_7cf8268e6ab5&#45;&gt;/dev/null#ServerID_7cf8268e6ab5</title>
<path fill="none" stroke="black" d="M4653.17,-364C4643.81,-359.373 4635.07,-353.488 4628,-346 4622.17,-339.824 4618.73,-331.421 4616.72,-323.268"/>
<polygon fill="black" stroke="black" points="4620.13,-322.45 4614.86,-313.259 4613.25,-323.731 4620.13,-322.45"/>
<text text-anchor="middle" x="4647" y="-334.8" font-family="Times,serif" font-size="14.00">write</text>
</g>
<!-- pipe:[7845627]#ServerID_7cf8268e6ab5 -->
<g id="node17" class="node"><title>pipe:[7845627]#ServerID_7cf8268e6ab5</title>
<ellipse fill="none" stroke="black" cx="5287" cy="-295" rx="202.264" ry="18"/>
<text text-anchor="middle" x="5287" y="-291.3" font-family="Times,serif" font-size="14.00">pipe:[7845627]#ServerID_7cf8268e6ab5</text>
</g>
<!-- 13_node#ServerID_7cf8268e6ab5&#45;&gt;pipe:[7845627]#ServerID_7cf8268e6ab5 -->
<g id="edge25" class="edge"><title>13_node#ServerID_7cf8268e6ab5&#45;&gt;pipe:[7845627]#ServerID_7cf8268e6ab5</title>
<path fill="none" stroke="black" d="M4841.71,-363.952C4940.17,-348.927 5082.66,-327.183 5179.76,-312.366"/>
<polygon fill="black" stroke="black" points="5180.53,-315.788 5189.89,-310.819 5179.48,-308.868 5180.53,-315.788"/>
<text text-anchor="middle" x="5060" y="-334.8" font-family="Times,serif" font-size="14.00">write</text>
</g>
<!-- 37_node#ServerID_7cf8268e6ab5 -->
<g id="node18" class="node"><title>37_node#ServerID_7cf8268e6ab5</title>
<polygon fill="none" stroke="black" points="5066.5,-313 4803.5,-313 4803.5,-277 5066.5,-277 5066.5,-313"/>
<text text-anchor="middle" x="4935" y="-291.3" font-family="Times,serif" font-size="14.00">37_node#ServerID_7cf8268e6ab5</text>
</g>
<!-- 13_node#ServerID_7cf8268e6ab5&#45;&gt;37_node#ServerID_7cf8268e6ab5 -->
<g id="edge26" class="edge"><title>13_node#ServerID_7cf8268e6ab5&#45;&gt;37_node#ServerID_7cf8268e6ab5</title>
<path fill="none" stroke="black" d="M4771.48,-363.799C4804.1,-350.275 4849.68,-331.377 4884.43,-316.967"/>
<polygon fill="black" stroke="black" points="4886.03,-320.093 4893.93,-313.03 4883.35,-313.627 4886.03,-320.093"/>
<text text-anchor="middle" x="4859" y="-334.8" font-family="Times,serif" font-size="14.00">fork</text>
</g>
<!-- pipe:[7845627]#ServerID_7cf8268e6ab5&#45;&gt;13_node#ServerID_7cf8268e6ab5 -->
<g id="edge24" class="edge"><title>pipe:[7845627]#ServerID_7cf8268e6ab5&#45;&gt;13_node#ServerID_7cf8268e6ab5</title>
<path fill="none" stroke="black" d="M5240.26,-312.542C5206.67,-323.76 5160.08,-337.96 5118,-346 5037.26,-361.428 4945.74,-370.095 4871.86,-374.944"/>
<polygon fill="black" stroke="black" points="4871.31,-371.472 4861.56,-375.604 4871.76,-378.458 4871.31,-371.472"/>
<text text-anchor="middle" x="5195.5" y="-334.8" font-family="Times,serif" font-size="14.00">read</text>
</g>
<!-- 37_sh#ServerID_7cf8268e6ab5 -->
<g id="node19" class="node"><title>37_sh#ServerID_7cf8268e6ab5</title>
<polygon fill="none" stroke="black" points="5057.5,-226 4812.5,-226 4812.5,-190 5057.5,-190 5057.5,-226"/>
<text text-anchor="middle" x="4935" y="-204.3" font-family="Times,serif" font-size="14.00">37_sh#ServerID_7cf8268e6ab5</text>
</g>
<!-- 37_node#ServerID_7cf8268e6ab5&#45;&gt;37_sh#ServerID_7cf8268e6ab5 -->
<g id="edge27" class="edge"><title>37_node#ServerID_7cf8268e6ab5&#45;&gt;37_sh#ServerID_7cf8268e6ab5</title>
<path fill="none" stroke="black" d="M4935,-276.799C4935,-265.163 4935,-249.548 4935,-236.237"/>
<polygon fill="black" stroke="black" points="4938.5,-236.175 4935,-226.175 4931.5,-236.175 4938.5,-236.175"/>
<text text-anchor="middle" x="4960" y="-247.8" font-family="Times,serif" font-size="14.00">execve</text>
</g>
<!-- 38_sh#ServerID_7cf8268e6ab5 -->
<g id="node20" class="node"><title>38_sh#ServerID_7cf8268e6ab5</title>
<polygon fill="none" stroke="black" points="4957.5,-139 4712.5,-139 4712.5,-103 4957.5,-103 4957.5,-139"/>
<text text-anchor="middle" x="4835" y="-117.3" font-family="Times,serif" font-size="14.00">38_sh#ServerID_7cf8268e6ab5</text>
</g>
<!-- 37_sh#ServerID_7cf8268e6ab5&#45;&gt;38_sh#ServerID_7cf8268e6ab5 -->
<g id="edge29" class="edge"><title>37_sh#ServerID_7cf8268e6ab5&#45;&gt;38_sh#ServerID_7cf8268e6ab5</title>
<path fill="none" stroke="black" d="M4914.76,-189.799C4899.85,-177.126 4879.39,-159.734 4862.93,-145.738"/>
<polygon fill="black" stroke="black" points="4865.09,-142.985 4855.21,-139.175 4860.56,-148.319 4865.09,-142.985"/>
<text text-anchor="middle" x="4905" y="-160.8" font-family="Times,serif" font-size="14.00">fork</text>
</g>
<!-- /home/app/3.txt#ServerID_7cf8268e6ab5 -->
<g id="node22" class="node"><title>/home/app/3.txt#ServerID_7cf8268e6ab5</title>
<ellipse fill="none" stroke="black" cx="5180" cy="-121" rx="204.964" ry="18"/>
<text text-anchor="middle" x="5180" y="-117.3" font-family="Times,serif" font-size="14.00">/home/app/3.txt#ServerID_7cf8268e6ab5</text>
</g>
<!-- 37_sh#ServerID_7cf8268e6ab5&#45;&gt;/home/app/3.txt#ServerID_7cf8268e6ab5 -->
<g id="edge30" class="edge"><title>37_sh#ServerID_7cf8268e6ab5&#45;&gt;/home/app/3.txt#ServerID_7cf8268e6ab5</title>
<path fill="none" stroke="black" d="M4984.28,-189.901C5024.21,-176.049 5080.53,-156.509 5122.51,-141.945"/>
<polygon fill="black" stroke="black" points="5123.75,-145.222 5132.05,-138.637 5121.45,-138.608 5123.75,-145.222"/>
<text text-anchor="middle" x="5091" y="-160.8" font-family="Times,serif" font-size="14.00">write</text>
</g>
<!-- 38_touch#ServerID_7cf8268e6ab5 -->
<g id="node21" class="node"><title>38_touch#ServerID_7cf8268e6ab5</title>
<polygon fill="none" stroke="black" points="4969.5,-52 4700.5,-52 4700.5,-16 4969.5,-16 4969.5,-52"/>
<text text-anchor="middle" x="4835" y="-30.3" font-family="Times,serif" font-size="14.00">38_touch#ServerID_7cf8268e6ab5</text>
</g>
<!-- 38_sh#ServerID_7cf8268e6ab5&#45;&gt;38_touch#ServerID_7cf8268e6ab5 -->
<g id="edge28" class="edge"><title>38_sh#ServerID_7cf8268e6ab5&#45;&gt;38_touch#ServerID_7cf8268e6ab5</title>
<path fill="none" stroke="black" d="M4835,-102.799C4835,-91.1626 4835,-75.5479 4835,-62.2368"/>
<polygon fill="black" stroke="black" points="4838.5,-62.1754 4835,-52.1754 4831.5,-62.1755 4838.5,-62.1754"/>
<text text-anchor="middle" x="4860" y="-73.8" font-family="Times,serif" font-size="14.00">execve</text>
</g>
<!-- 10.1.80.1:54731#ServerID_OuterContainerID&#45;&gt;10.1.80.93:8080#ServerID_OuterContainerID -->
<g id="edge33" class="edge"><title>10.1.80.1:54731#ServerID_OuterContainerID&#45;&gt;10.1.80.93:8080#ServerID_OuterContainerID</title>
<path fill="none" stroke="black" d="M2043.53,-572.876C2062.26,-587.569 2089.13,-610.882 2107,-636 2112.08,-643.143 2116.36,-651.645 2119.75,-659.594"/>
<polygon fill="black" stroke="black" points="2116.5,-660.889 2123.45,-668.887 2123.01,-658.302 2116.5,-660.889"/>
<text text-anchor="middle" x="2136" y="-639.8" font-family="Times,serif" font-size="14.00">POST</text>
</g>
</g>
</svg>
