<?xml version="1.0" encoding="UTF-8" standalone="no"?>
<!DOCTYPE svg PUBLIC "-//W3C//DTD SVG 1.1//EN"
 "http://www.w3.org/Graphics/SVG/1.1/DTD/svg11.dtd">
<!-- Generated by graphviz version 2.38.0 (20140413.2041)
 -->
<!-- Title: G Pages: 1 -->
<svg width="4382pt" height="597pt"
 viewBox="0.00 0.00 4382.00 597.00" xmlns="http://www.w3.org/2000/svg" xmlns:xlink="http://www.w3.org/1999/xlink">
<g id="graph0" class="graph" transform="scale(1 1) rotate(0) translate(4 593)">
<title>G</title>
<polygon fill="white" stroke="none" points="-4,4 -4,-593 4378,-593 4378,4 -4,4"/>
<g id="clust1" class="cluster"><title>clusterServerID_1f4f60deee3d</title>
<polygon fill="none" stroke="black" points="3362,-8 3362,-257 4366,-257 4366,-8 3362,-8"/>
<text text-anchor="middle" x="3864" y="-241.8" font-family="Times,serif" font-size="14.00">clusterServerID_1f4f60deee3d</text>
</g>
<g id="clust2" class="cluster"><title>clusterServerID_667d78fb58&#45;847xt</title>
<polygon fill="none" stroke="black" points="2841,-398 2841,-473 3181,-473 3181,-398 2841,-398"/>
<text text-anchor="middle" x="3011" y="-457.8" font-family="Times,serif" font-size="14.00">clusterServerID_667d78fb58&#45;847xt</text>
</g>
<g id="clust3" class="cluster"><title>clusterServerID_6dcbcc88d5&#45;mp48t</title>
<polygon fill="none" stroke="black" points="857,-398 857,-473 1205,-473 1205,-398 857,-398"/>
<text text-anchor="middle" x="1031" y="-457.8" font-family="Times,serif" font-size="14.00">clusterServerID_6dcbcc88d5&#45;mp48t</text>
</g>
<g id="clust4" class="cluster"><title>clusterServerID_OuterContainerID</title>
<polygon fill="none" stroke="black" points="8,-182 8,-365 3354,-365 3354,-182 8,-182"/>
<text text-anchor="middle" x="1681" y="-349.8" font-family="Times,serif" font-size="14.00">clusterServerID_OuterContainerID</text>
</g>
<g id="clust5" class="cluster"><title>clusterServerID_e47e2b15aff4</title>
<polygon fill="none" stroke="black" points="1489,-398 1489,-581 2581,-581 2581,-398 1489,-398"/>
<text text-anchor="middle" x="2035" y="-565.8" font-family="Times,serif" font-size="14.00">clusterServerID_e47e2b15aff4</text>
</g>
<!-- 1_fwatchdog#ServerID_6dcbcc88d5&#45;mp48t -->
<g id="node1" class="node"><title>1_fwatchdog#ServerID_6dcbcc88d5&#45;mp48t</title>
<polygon fill="none" stroke="black" points="1196.5,-442 865.5,-442 865.5,-406 1196.5,-406 1196.5,-442"/>
<text text-anchor="middle" x="1031" y="-420.3" font-family="Times,serif" font-size="14.00">1_fwatchdog#ServerID_6dcbcc88d5&#45;mp48t</text>
</g>
<!-- 10.1.80.183:54838#ServerID_OuterContainerID -->
<g id="node2" class="node"><title>10.1.80.183:54838#ServerID_OuterContainerID</title>
<polygon fill="none" stroke="black" points="351,-334 15.5152,-316 351,-298 686.485,-316 351,-334"/>
<text text-anchor="middle" x="351" y="-312.3" font-family="Times,serif" font-size="14.00">10.1.80.183:54838#ServerID_OuterContainerID</text>
</g>
<!-- 1_fwatchdog#ServerID_6dcbcc88d5&#45;mp48t&#45;&gt;10.1.80.183:54838#ServerID_OuterContainerID -->
<g id="edge1" class="edge"><title>1_fwatchdog#ServerID_6dcbcc88d5&#45;mp48t&#45;&gt;10.1.80.183:54838#ServerID_OuterContainerID</title>
<path fill="none" stroke="black" d="M865.462,-416.572C786.723,-411.673 691.531,-403.072 607,-388 535.55,-375.26 455.213,-351.356 403.91,-334.826"/>
<polygon fill="black" stroke="black" points="404.955,-331.485 394.363,-331.727 402.793,-338.144 404.955,-331.485"/>
<text text-anchor="middle" x="649" y="-376.8" font-family="Times,serif" font-size="14.00">RESPONSE</text>
</g>
<!-- gateway:8080#ServerID_OuterContainerID -->
<g id="node7" class="node"><title>gateway:8080#ServerID_OuterContainerID</title>
<polygon fill="none" stroke="black" points="1681,-334 1376.52,-316 1681,-298 1985.48,-316 1681,-334"/>
<text text-anchor="middle" x="1681" y="-312.3" font-family="Times,serif" font-size="14.00">gateway:8080#ServerID_OuterContainerID</text>
</g>
<!-- 1_fwatchdog#ServerID_6dcbcc88d5&#45;mp48t&#45;&gt;gateway:8080#ServerID_OuterContainerID -->
<g id="edge7" class="edge"><title>1_fwatchdog#ServerID_6dcbcc88d5&#45;mp48t&#45;&gt;gateway:8080#ServerID_OuterContainerID</title>
<path fill="none" stroke="black" d="M1130.3,-405.96C1187.74,-396.17 1261.42,-383.725 1327,-373 1417.02,-358.276 1520.04,-342.051 1591.64,-330.872"/>
<polygon fill="black" stroke="black" points="1592.18,-334.329 1601.53,-329.329 1591.11,-327.413 1592.18,-334.329"/>
<text text-anchor="middle" x="1347" y="-376.8" font-family="Times,serif" font-size="14.00">POST</text>
</g>
<!-- 10.1.80.183:8080#ServerID_OuterContainerID -->
<g id="node8" class="node"><title>10.1.80.183:8080#ServerID_OuterContainerID</title>
<polygon fill="none" stroke="black" points="1032,-334 704.56,-316 1032,-298 1359.44,-316 1032,-334"/>
<text text-anchor="middle" x="1032" y="-312.3" font-family="Times,serif" font-size="14.00">10.1.80.183:8080#ServerID_OuterContainerID</text>
</g>
<!-- 1_fwatchdog#ServerID_6dcbcc88d5&#45;mp48t&#45;&gt;10.1.80.183:8080#ServerID_OuterContainerID -->
<g id="edge6" class="edge"><title>1_fwatchdog#ServerID_6dcbcc88d5&#45;mp48t&#45;&gt;10.1.80.183:8080#ServerID_OuterContainerID</title>
<path fill="none" stroke="black" d="M1012.04,-405.736C1007.56,-400.523 1003.39,-394.455 1001,-388 998.687,-381.747 999.333,-379.455 1001,-373 1003.75,-362.348 1009.01,-351.56 1014.43,-342.334"/>
<polygon fill="black" stroke="black" points="1017.49,-344.03 1019.81,-333.692 1011.55,-340.33 1017.49,-344.03"/>
<text text-anchor="middle" x="1021" y="-376.8" font-family="Times,serif" font-size="14.00">POST</text>
</g>
<!-- 10.1.80.183:54838#ServerID_OuterContainerID&#45;&gt;1_fwatchdog#ServerID_6dcbcc88d5&#45;mp48t -->
<g id="edge9" class="edge"><title>10.1.80.183:54838#ServerID_OuterContainerID&#45;&gt;1_fwatchdog#ServerID_6dcbcc88d5&#45;mp48t</title>
<path fill="none" stroke="black" d="M432.243,-329.664C551.289,-348.222 773.884,-382.92 911.572,-404.383"/>
<polygon fill="black" stroke="black" points="911.326,-407.887 921.746,-405.969 912.405,-400.971 911.326,-407.887"/>
<text text-anchor="middle" x="812" y="-376.8" font-family="Times,serif" font-size="14.00">POST</text>
</g>
<!-- 1_fwatchdog#ServerID_e47e2b15aff4 -->
<g id="node5" class="node"><title>1_fwatchdog#ServerID_e47e2b15aff4</title>
<polygon fill="none" stroke="black" points="2573,-550 2283,-550 2283,-514 2573,-514 2573,-550"/>
<text text-anchor="middle" x="2428" y="-528.3" font-family="Times,serif" font-size="14.00">1_fwatchdog#ServerID_e47e2b15aff4</text>
</g>
<!-- 10.1.80.183:54838#ServerID_OuterContainerID&#45;&gt;1_fwatchdog#ServerID_e47e2b15aff4 -->
<g id="edge12" class="edge"><title>10.1.80.183:54838#ServerID_OuterContainerID&#45;&gt;1_fwatchdog#ServerID_e47e2b15aff4</title>
<path fill="none" stroke="black" d="M424.393,-330.102C494.032,-341.846 601.754,-358.234 696,-365 869.777,-377.476 2089.93,-365.702 2264,-373 2334.6,-375.96 2533.04,-346.107 2581,-398 2603.62,-422.479 2599.94,-445.569 2581,-473 2569.54,-489.599 2552.67,-501.452 2534.27,-509.915"/>
<polygon fill="black" stroke="black" points="2532.67,-506.792 2524.83,-513.92 2535.4,-513.236 2532.67,-506.792"/>
<text text-anchor="middle" x="2613.5" y="-420.3" font-family="Times,serif" font-size="14.00">read</text>
</g>
<!-- 1_fwatchdog#ServerID_667d78fb58&#45;847xt -->
<g id="node3" class="node"><title>1_fwatchdog#ServerID_667d78fb58&#45;847xt</title>
<polygon fill="none" stroke="black" points="3173,-442 2849,-442 2849,-406 3173,-406 3173,-442"/>
<text text-anchor="middle" x="3011" y="-420.3" font-family="Times,serif" font-size="14.00">1_fwatchdog#ServerID_667d78fb58&#45;847xt</text>
</g>
<!-- 10.1.80.183:38760#ServerID_OuterContainerID -->
<g id="node4" class="node"><title>10.1.80.183:38760#ServerID_OuterContainerID</title>
<polygon fill="none" stroke="black" points="3011,-334 2675.52,-316 3011,-298 3346.48,-316 3011,-334"/>
<text text-anchor="middle" x="3011" y="-312.3" font-family="Times,serif" font-size="14.00">10.1.80.183:38760#ServerID_OuterContainerID</text>
</g>
<!-- 1_fwatchdog#ServerID_667d78fb58&#45;847xt&#45;&gt;10.1.80.183:38760#ServerID_OuterContainerID -->
<g id="edge2" class="edge"><title>1_fwatchdog#ServerID_667d78fb58&#45;847xt&#45;&gt;10.1.80.183:38760#ServerID_OuterContainerID</title>
<path fill="none" stroke="black" d="M2974.59,-405.979C2967.93,-401.142 2961.87,-395.186 2958,-388 2954.84,-382.129 2955.53,-379.194 2958,-373 2963,-360.439 2972.31,-349.073 2981.74,-339.914"/>
<polygon fill="black" stroke="black" points="2984.22,-342.386 2989.25,-333.061 2979.51,-337.214 2984.22,-342.386"/>
<text text-anchor="middle" x="3000" y="-376.8" font-family="Times,serif" font-size="14.00">RESPONSE</text>
</g>
<!-- 10.1.80.183:38760#ServerID_OuterContainerID&#45;&gt;1_fwatchdog#ServerID_667d78fb58&#45;847xt -->
<g id="edge4" class="edge"><title>10.1.80.183:38760#ServerID_OuterContainerID&#45;&gt;1_fwatchdog#ServerID_667d78fb58&#45;847xt</title>
<path fill="none" stroke="black" d="M3026,-333.451C3037.12,-347.72 3049.2,-369.01 3042,-388 3040.72,-391.366 3038.96,-394.615 3036.91,-397.689"/>
<polygon fill="black" stroke="black" points="3033.96,-395.789 3030.58,-405.831 3039.48,-400.087 3033.96,-395.789"/>
<text text-anchor="middle" x="3065" y="-376.8" font-family="Times,serif" font-size="14.00">POST</text>
</g>
<!-- 1_fwatchdog#ServerID_1f4f60deee3d -->
<g id="node13" class="node"><title>1_fwatchdog#ServerID_1f4f60deee3d</title>
<polygon fill="none" stroke="black" points="3794,-226 3504,-226 3504,-190 3794,-190 3794,-226"/>
<text text-anchor="middle" x="3649" y="-204.3" font-family="Times,serif" font-size="14.00">1_fwatchdog#ServerID_1f4f60deee3d</text>
</g>
<!-- 10.1.80.183:38760#ServerID_OuterContainerID&#45;&gt;1_fwatchdog#ServerID_1f4f60deee3d -->
<g id="edge19" class="edge"><title>10.1.80.183:38760#ServerID_OuterContainerID&#45;&gt;1_fwatchdog#ServerID_1f4f60deee3d</title>
<path fill="none" stroke="black" d="M3088.59,-302.108C3200.5,-283.516 3407.85,-249.066 3536.54,-227.685"/>
<polygon fill="black" stroke="black" points="3537.14,-231.133 3546.43,-226.041 3535.99,-224.228 3537.14,-231.133"/>
<text text-anchor="middle" x="3327.5" y="-268.8" font-family="Times,serif" font-size="14.00">read</text>
</g>
<!-- localhost:3000#ServerID_e47e2b15aff4 -->
<g id="node6" class="node"><title>localhost:3000#ServerID_e47e2b15aff4</title>
<polygon fill="none" stroke="black" points="2293,-442 2013.65,-424 2293,-406 2572.35,-424 2293,-442"/>
<text text-anchor="middle" x="2293" y="-420.3" font-family="Times,serif" font-size="14.00">localhost:3000#ServerID_e47e2b15aff4</text>
</g>
<!-- 1_fwatchdog#ServerID_e47e2b15aff4&#45;&gt;localhost:3000#ServerID_e47e2b15aff4 -->
<g id="edge3" class="edge"><title>1_fwatchdog#ServerID_e47e2b15aff4&#45;&gt;localhost:3000#ServerID_e47e2b15aff4</title>
<path fill="none" stroke="black" d="M2379.53,-513.982C2368.91,-509.07 2358.12,-503.082 2349,-496 2332.77,-483.406 2318.5,-465.138 2308.43,-450.286"/>
<polygon fill="black" stroke="black" points="2311.13,-448.013 2302.72,-441.562 2305.27,-451.846 2311.13,-448.013"/>
<text text-anchor="middle" x="2378" y="-484.8" font-family="Times,serif" font-size="14.00">connect</text>
</g>
<!-- 1_fwatchdog#ServerID_e47e2b15aff4&#45;&gt;localhost:3000#ServerID_e47e2b15aff4 -->
<g id="edge11" class="edge"><title>1_fwatchdog#ServerID_e47e2b15aff4&#45;&gt;localhost:3000#ServerID_e47e2b15aff4</title>
<path fill="none" stroke="black" d="M2423.99,-513.537C2420.84,-503.054 2415.52,-490.043 2407,-481 2391.13,-464.164 2369.12,-451.721 2348.66,-442.899"/>
<polygon fill="black" stroke="black" points="2349.98,-439.657 2339.4,-439.097 2347.32,-446.133 2349.98,-439.657"/>
<text text-anchor="middle" x="2436" y="-484.8" font-family="Times,serif" font-size="14.00">write</text>
</g>
<!-- localhost:3000#ServerID_e47e2b15aff4&#45;&gt;1_fwatchdog#ServerID_e47e2b15aff4 -->
<g id="edge10" class="edge"><title>localhost:3000#ServerID_e47e2b15aff4&#45;&gt;1_fwatchdog#ServerID_e47e2b15aff4</title>
<path fill="none" stroke="black" d="M2289.13,-441.924C2286.58,-457.714 2285.67,-481.026 2298,-496 2302.66,-501.662 2312.86,-506.651 2325.58,-510.957"/>
<polygon fill="black" stroke="black" points="2324.67,-514.338 2335.26,-513.972 2326.75,-507.655 2324.67,-514.338"/>
<text text-anchor="middle" x="2314.5" y="-484.8" font-family="Times,serif" font-size="14.00">read</text>
</g>
<!-- gateway:8080#ServerID_OuterContainerID&#45;&gt;1_fwatchdog#ServerID_6dcbcc88d5&#45;mp48t -->
<g id="edge5" class="edge"><title>gateway:8080#ServerID_OuterContainerID&#45;&gt;1_fwatchdog#ServerID_6dcbcc88d5&#45;mp48t</title>
<path fill="none" stroke="black" d="M1629.01,-330.966C1567.73,-346.943 1462.65,-372.846 1371,-388 1317.92,-396.776 1259.8,-403.725 1206.86,-409.042"/>
<polygon fill="black" stroke="black" points="1206.3,-405.58 1196.69,-410.049 1206.99,-412.546 1206.3,-405.58"/>
<text text-anchor="middle" x="1491" y="-376.8" font-family="Times,serif" font-size="14.00">RESPONSE</text>
</g>
<!-- 10.1.80.183:8080#ServerID_OuterContainerID&#45;&gt;1_fwatchdog#ServerID_6dcbcc88d5&#45;mp48t -->
<g id="edge8" class="edge"><title>10.1.80.183:8080#ServerID_OuterContainerID&#45;&gt;1_fwatchdog#ServerID_6dcbcc88d5&#45;mp48t</title>
<path fill="none" stroke="black" d="M1036.68,-333.944C1040.05,-348.339 1043.59,-369.543 1041,-388 1040.64,-390.574 1040.14,-393.224 1039.55,-395.859"/>
<polygon fill="black" stroke="black" points="1036.1,-395.198 1036.96,-405.759 1042.87,-396.971 1036.1,-395.198"/>
<text text-anchor="middle" x="1084" y="-376.8" font-family="Times,serif" font-size="14.00">RESPONSE</text>
</g>
<!-- 10.1.80.1:38929#ServerID_OuterContainerID -->
<g id="node17" class="node"><title>10.1.80.1:38929#ServerID_OuterContainerID</title>
<polygon fill="none" stroke="black" points="447,-226 128.105,-208 447,-190 765.895,-208 447,-226"/>
<text text-anchor="middle" x="447" y="-204.3" font-family="Times,serif" font-size="14.00">10.1.80.1:38929#ServerID_OuterContainerID</text>
</g>
<!-- 10.1.80.183:8080#ServerID_OuterContainerID&#45;&gt;10.1.80.1:38929#ServerID_OuterContainerID -->
<g id="edge25" class="edge"><title>10.1.80.183:8080#ServerID_OuterContainerID&#45;&gt;10.1.80.1:38929#ServerID_OuterContainerID</title>
<path fill="none" stroke="black" d="M959.974,-301.949C850.731,-282.155 643.749,-244.65 528.919,-223.843"/>
<polygon fill="black" stroke="black" points="529.242,-220.345 518.779,-222.006 527.994,-227.233 529.242,-220.345"/>
<text text-anchor="middle" x="869" y="-268.8" font-family="Times,serif" font-size="14.00">RESPONSE</text>
</g>
<!-- 10.0.88.125:31112#ServerID_OuterContainerID -->
<g id="node18" class="node"><title>10.0.88.125:31112#ServerID_OuterContainerID</title>
<polygon fill="none" stroke="black" points="1759,-226 1423.52,-208 1759,-190 2094.48,-208 1759,-226"/>
<text text-anchor="middle" x="1759" y="-204.3" font-family="Times,serif" font-size="14.00">10.0.88.125:31112#ServerID_OuterContainerID</text>
</g>
<!-- 10.1.80.183:8080#ServerID_OuterContainerID&#45;&gt;10.0.88.125:31112#ServerID_OuterContainerID -->
<g id="edge26" class="edge"><title>10.1.80.183:8080#ServerID_OuterContainerID&#45;&gt;10.0.88.125:31112#ServerID_OuterContainerID</title>
<path fill="none" stroke="black" d="M1116.82,-302.633C1253.26,-282.74 1520.6,-243.76 1663.53,-222.921"/>
<polygon fill="black" stroke="black" points="1664.21,-226.358 1673.6,-221.452 1663.2,-219.432 1664.21,-226.358"/>
<text text-anchor="middle" x="1416" y="-268.8" font-family="Times,serif" font-size="14.00">RESPONSE</text>
</g>
<!-- 10.1.80.1:1525#ServerID_OuterContainerID -->
<g id="node19" class="node"><title>10.1.80.1:1525#ServerID_OuterContainerID</title>
<polygon fill="none" stroke="black" points="1095,-226 784.15,-208 1095,-190 1405.85,-208 1095,-226"/>
<text text-anchor="middle" x="1095" y="-204.3" font-family="Times,serif" font-size="14.00">10.1.80.1:1525#ServerID_OuterContainerID</text>
</g>
<!-- 10.1.80.183:8080#ServerID_OuterContainerID&#45;&gt;10.1.80.1:1525#ServerID_OuterContainerID -->
<g id="edge28" class="edge"><title>10.1.80.183:8080#ServerID_OuterContainerID&#45;&gt;10.1.80.1:1525#ServerID_OuterContainerID</title>
<path fill="none" stroke="black" d="M1055.09,-299.166C1061.64,-293.734 1068.26,-287.191 1073,-280 1081.71,-266.774 1087.12,-249.913 1090.4,-235.941"/>
<polygon fill="black" stroke="black" points="1093.87,-236.434 1092.51,-225.928 1087.02,-234.992 1093.87,-236.434"/>
<text text-anchor="middle" x="1123" y="-268.8" font-family="Times,serif" font-size="14.00">RESPONSE</text>
</g>
<!-- /etc/hosts#ServerID_e47e2b15aff4 -->
<g id="node9" class="node"><title>/etc/hosts#ServerID_e47e2b15aff4</title>
<ellipse fill="none" stroke="black" cx="2090" cy="-532" rx="174.669" ry="18"/>
<text text-anchor="middle" x="2090" y="-528.3" font-family="Times,serif" font-size="14.00">/etc/hosts#ServerID_e47e2b15aff4</text>
</g>
<!-- 9_node#ServerID_e47e2b15aff4 -->
<g id="node10" class="node"><title>9_node#ServerID_e47e2b15aff4</title>
<polygon fill="none" stroke="black" points="1996,-442 1746,-442 1746,-406 1996,-406 1996,-442"/>
<text text-anchor="middle" x="1871" y="-420.3" font-family="Times,serif" font-size="14.00">9_node#ServerID_e47e2b15aff4</text>
</g>
<!-- /etc/hosts#ServerID_e47e2b15aff4&#45;&gt;9_node#ServerID_e47e2b15aff4 -->
<g id="edge13" class="edge"><title>/etc/hosts#ServerID_e47e2b15aff4&#45;&gt;9_node#ServerID_e47e2b15aff4</title>
<path fill="none" stroke="black" d="M2055.3,-514.204C2017.4,-495.86 1956.6,-466.432 1915.29,-446.435"/>
<polygon fill="black" stroke="black" points="1916.79,-443.275 1906.26,-442.068 1913.74,-449.576 1916.79,-443.275"/>
<text text-anchor="middle" x="2029.5" y="-484.8" font-family="Times,serif" font-size="14.00">read</text>
</g>
<!-- 9_node#ServerID_e47e2b15aff4&#45;&gt;gateway:8080#ServerID_OuterContainerID -->
<g id="edge20" class="edge"><title>9_node#ServerID_e47e2b15aff4&#45;&gt;gateway:8080#ServerID_OuterContainerID</title>
<path fill="none" stroke="black" d="M1840.47,-405.969C1807.06,-387.328 1753.5,-357.445 1717.79,-337.524"/>
<polygon fill="black" stroke="black" points="1719.11,-334.253 1708.67,-332.437 1715.7,-340.366 1719.11,-334.253"/>
<text text-anchor="middle" x="1834" y="-376.8" font-family="Times,serif" font-size="14.00">connect</text>
</g>
<!-- 10.152.183.10:53#ServerID_OuterContainerID -->
<g id="node12" class="node"><title>10.152.183.10:53#ServerID_OuterContainerID</title>
<polygon fill="none" stroke="black" points="2330,-334 2002.56,-316 2330,-298 2657.44,-316 2330,-334"/>
<text text-anchor="middle" x="2330" y="-312.3" font-family="Times,serif" font-size="14.00">10.152.183.10:53#ServerID_OuterContainerID</text>
</g>
<!-- 9_node#ServerID_e47e2b15aff4&#45;&gt;10.152.183.10:53#ServerID_OuterContainerID -->
<g id="edge15" class="edge"><title>9_node#ServerID_e47e2b15aff4&#45;&gt;10.152.183.10:53#ServerID_OuterContainerID</title>
<path fill="none" stroke="black" d="M1944.75,-405.969C2031.77,-385.872 2175.37,-352.711 2260.5,-333.051"/>
<polygon fill="black" stroke="black" points="2261.37,-336.441 2270.33,-330.78 2259.8,-329.62 2261.37,-336.441"/>
<text text-anchor="middle" x="2111.5" y="-376.8" font-family="Times,serif" font-size="14.00">sendto</text>
</g>
<!-- /etc/resolv.conf#ServerID_e47e2b15aff4 -->
<g id="node11" class="node"><title>/etc/resolv.conf#ServerID_e47e2b15aff4</title>
<ellipse fill="none" stroke="black" cx="1697" cy="-532" rx="200.365" ry="18"/>
<text text-anchor="middle" x="1697" y="-528.3" font-family="Times,serif" font-size="14.00">/etc/resolv.conf#ServerID_e47e2b15aff4</text>
</g>
<!-- /etc/resolv.conf#ServerID_e47e2b15aff4&#45;&gt;9_node#ServerID_e47e2b15aff4 -->
<g id="edge14" class="edge"><title>/etc/resolv.conf#ServerID_e47e2b15aff4&#45;&gt;9_node#ServerID_e47e2b15aff4</title>
<path fill="none" stroke="black" d="M1724.96,-513.969C1754.55,-495.942 1801.4,-467.402 1834.02,-447.525"/>
<polygon fill="black" stroke="black" points="1836.11,-450.356 1842.82,-442.164 1832.46,-444.378 1836.11,-450.356"/>
<text text-anchor="middle" x="1795.5" y="-484.8" font-family="Times,serif" font-size="14.00">read</text>
</g>
<!-- 10.152.183.10:53#ServerID_OuterContainerID&#45;&gt;9_node#ServerID_e47e2b15aff4 -->
<g id="edge16" class="edge"><title>10.152.183.10:53#ServerID_OuterContainerID&#45;&gt;9_node#ServerID_e47e2b15aff4</title>
<path fill="none" stroke="black" d="M2297.57,-332.363C2260.42,-349.189 2197.27,-375.447 2140,-388 2081.23,-400.882 2064.66,-390.249 2005,-398 1991.78,-399.717 1977.89,-401.889 1964.27,-404.233"/>
<polygon fill="black" stroke="black" points="1963.65,-400.787 1954.41,-405.965 1964.86,-407.682 1963.65,-400.787"/>
<text text-anchor="middle" x="2227" y="-376.8" font-family="Times,serif" font-size="14.00">recvfrom</text>
</g>
<!-- localhost:3000#ServerID_1f4f60deee3d -->
<g id="node14" class="node"><title>localhost:3000#ServerID_1f4f60deee3d</title>
<polygon fill="none" stroke="black" points="3649,-139 3369.65,-121 3649,-103 3928.35,-121 3649,-139"/>
<text text-anchor="middle" x="3649" y="-117.3" font-family="Times,serif" font-size="14.00">localhost:3000#ServerID_1f4f60deee3d</text>
</g>
<!-- 1_fwatchdog#ServerID_1f4f60deee3d&#45;&gt;localhost:3000#ServerID_1f4f60deee3d -->
<g id="edge17" class="edge"><title>1_fwatchdog#ServerID_1f4f60deee3d&#45;&gt;localhost:3000#ServerID_1f4f60deee3d</title>
<path fill="none" stroke="black" d="M3649,-189.799C3649,-178.163 3649,-162.548 3649,-149.237"/>
<polygon fill="black" stroke="black" points="3652.5,-149.175 3649,-139.175 3645.5,-149.175 3652.5,-149.175"/>
<text text-anchor="middle" x="3678" y="-160.8" font-family="Times,serif" font-size="14.00">connect</text>
</g>
<!-- 1_fwatchdog#ServerID_1f4f60deee3d&#45;&gt;localhost:3000#ServerID_1f4f60deee3d -->
<g id="edge22" class="edge"><title>1_fwatchdog#ServerID_1f4f60deee3d&#45;&gt;localhost:3000#ServerID_1f4f60deee3d</title>
<path fill="none" stroke="black" d="M3690.64,-189.892C3697.59,-185.144 3703.87,-179.244 3708,-172 3714.69,-160.245 3706.98,-149.999 3695.16,-141.893"/>
<polygon fill="black" stroke="black" points="3696.82,-138.807 3686.45,-136.632 3693.2,-144.799 3696.82,-138.807"/>
<text text-anchor="middle" x="3729" y="-160.8" font-family="Times,serif" font-size="14.00">write</text>
</g>
<!-- pipe:[77303348]#ServerID_1f4f60deee3d -->
<g id="node16" class="node"><title>pipe:[77303348]#ServerID_1f4f60deee3d</title>
<ellipse fill="none" stroke="black" cx="4152" cy="-121" rx="206.063" ry="18"/>
<text text-anchor="middle" x="4152" y="-117.3" font-family="Times,serif" font-size="14.00">pipe:[77303348]#ServerID_1f4f60deee3d</text>
</g>
<!-- 1_fwatchdog#ServerID_1f4f60deee3d&#45;&gt;pipe:[77303348]#ServerID_1f4f60deee3d -->
<g id="edge23" class="edge"><title>1_fwatchdog#ServerID_1f4f60deee3d&#45;&gt;pipe:[77303348]#ServerID_1f4f60deee3d</title>
<path fill="none" stroke="black" d="M3749.88,-189.952C3837.7,-175.113 3964.3,-153.719 4051.89,-138.918"/>
<polygon fill="black" stroke="black" points="4052.56,-142.354 4061.83,-137.237 4051.39,-135.452 4052.56,-142.354"/>
<text text-anchor="middle" x="3949" y="-160.8" font-family="Times,serif" font-size="14.00">write</text>
</g>
<!-- localhost:3000#ServerID_1f4f60deee3d&#45;&gt;1_fwatchdog#ServerID_1f4f60deee3d -->
<g id="edge18" class="edge"><title>localhost:3000#ServerID_1f4f60deee3d&#45;&gt;1_fwatchdog#ServerID_1f4f60deee3d</title>
<path fill="none" stroke="black" d="M3625.9,-137.918C3615.5,-147.195 3606.62,-159.503 3612,-172 3613.57,-175.642 3615.72,-179.082 3618.21,-182.279"/>
<polygon fill="black" stroke="black" points="3615.62,-184.639 3624.93,-189.702 3620.81,-179.94 3615.62,-184.639"/>
<text text-anchor="middle" x="3628.5" y="-160.8" font-family="Times,serif" font-size="14.00">read</text>
</g>
<!-- 10_node#ServerID_1f4f60deee3d -->
<g id="node15" class="node"><title>10_node#ServerID_1f4f60deee3d</title>
<polygon fill="none" stroke="black" points="3778.5,-52 3519.5,-52 3519.5,-16 3778.5,-16 3778.5,-52"/>
<text text-anchor="middle" x="3649" y="-30.3" font-family="Times,serif" font-size="14.00">10_node#ServerID_1f4f60deee3d</text>
</g>
<!-- localhost:3000#ServerID_1f4f60deee3d&#45;&gt;10_node#ServerID_1f4f60deee3d -->
<g id="edge21" class="edge"><title>localhost:3000#ServerID_1f4f60deee3d&#45;&gt;10_node#ServerID_1f4f60deee3d</title>
<path fill="none" stroke="black" d="M3649,-102.799C3649,-91.1626 3649,-75.5479 3649,-62.2368"/>
<polygon fill="black" stroke="black" points="3652.5,-62.1754 3649,-52.1754 3645.5,-62.1755 3652.5,-62.1754"/>
<text text-anchor="middle" x="3665.5" y="-73.8" font-family="Times,serif" font-size="14.00">read</text>
</g>
<!-- 10.1.80.1:38929#ServerID_OuterContainerID&#45;&gt;10.1.80.183:8080#ServerID_OuterContainerID -->
<g id="edge24" class="edge"><title>10.1.80.1:38929#ServerID_OuterContainerID&#45;&gt;10.1.80.183:8080#ServerID_OuterContainerID</title>
<path fill="none" stroke="black" d="M482.893,-224.086C523.959,-240.66 593.599,-266.69 656,-280 718.255,-293.279 787.374,-301.52 849.195,-306.634"/>
<polygon fill="black" stroke="black" points="849.201,-310.146 859.449,-307.46 849.762,-303.168 849.201,-310.146"/>
<text text-anchor="middle" x="676" y="-268.8" font-family="Times,serif" font-size="14.00">POST</text>
</g>
<!-- 10.1.80.1:1525#ServerID_OuterContainerID&#45;&gt;10.1.80.183:8080#ServerID_OuterContainerID -->
<g id="edge27" class="edge"><title>10.1.80.1:1525#ServerID_OuterContainerID&#45;&gt;10.1.80.183:8080#ServerID_OuterContainerID</title>
<path fill="none" stroke="black" d="M1069.46,-224.562C1055.97,-234.329 1040.65,-248.242 1033,-265 1029.78,-272.06 1028.68,-280.284 1028.63,-288"/>
<polygon fill="black" stroke="black" points="1025.13,-288.218 1029.08,-298.048 1032.12,-287.899 1025.13,-288.218"/>
<text text-anchor="middle" x="1053" y="-268.8" font-family="Times,serif" font-size="14.00">POST</text>
</g>
</g>
</svg>
