<?xml version="1.0" encoding="UTF-8" standalone="no"?>
<!DOCTYPE svg PUBLIC "-//W3C//DTD SVG 1.1//EN"
 "http://www.w3.org/Graphics/SVG/1.1/DTD/svg11.dtd">
<!-- Generated by graphviz version 2.38.0 (20140413.2041)
 -->
<!-- Title: G Pages: 1 -->
<svg width="5927pt" height="489pt"
 viewBox="0.00 0.00 5927.16 489.00" xmlns="http://www.w3.org/2000/svg" xmlns:xlink="http://www.w3.org/1999/xlink">
<g id="graph0" class="graph" transform="scale(1 1) rotate(0) translate(4 485)">
<title>G</title>
<polygon fill="white" stroke="none" points="-4,4 -4,-485 5923.16,-485 5923.16,4 -4,4"/>
<g id="clust1" class="cluster"><title>clusterServerID_3113a7a2a86a</title>
<polygon fill="none" stroke="black" points="2350,-203 2350,-473 3740,-473 3740,-203 2350,-203"/>
<text text-anchor="middle" x="3045" y="-457.8" font-family="Times,serif" font-size="14.00">clusterServerID_3113a7a2a86a</text>
</g>
<g id="clust2" class="cluster"><title>clusterServerID_5f846fd567&#45;srhtc</title>
<polygon fill="none" stroke="black" points="2008,-203 2008,-278 2342,-278 2342,-203 2008,-203"/>
<text text-anchor="middle" x="2175" y="-262.8" font-family="Times,serif" font-size="14.00">clusterServerID_5f846fd567&#45;srhtc</text>
</g>
<g id="clust3" class="cluster"><title>clusterServerID_6df85d7674&#45;grtsk</title>
<polygon fill="none" stroke="black" points="855,-203 855,-278 1193,-278 1193,-203 855,-203"/>
<text text-anchor="middle" x="1024" y="-262.8" font-family="Times,serif" font-size="14.00">clusterServerID_6df85d7674&#45;grtsk</text>
</g>
<g id="clust4" class="cluster"><title>clusterServerID_9c632c9c841a</title>
<polygon fill="none" stroke="black" points="4070,-95 4070,-473 5910,-473 5910,-95 4070,-95"/>
<text text-anchor="middle" x="4990" y="-457.8" font-family="Times,serif" font-size="14.00">clusterServerID_9c632c9c841a</text>
</g>
<g id="clust5" class="cluster"><title>clusterServerID_OuterContainerID</title>
<polygon fill="none" stroke="black" points="8,-8 8,-170 4062,-170 4062,-8 8,-8"/>
<text text-anchor="middle" x="2035" y="-154.8" font-family="Times,serif" font-size="14.00">clusterServerID_OuterContainerID</text>
</g>
<!-- gateway:8080#ServerID_OuterContainerID -->
<g id="node1" class="node"><title>gateway:8080#ServerID_OuterContainerID</title>
<polygon fill="none" stroke="black" points="1682,-139 1377.52,-121 1682,-103 1986.48,-121 1682,-139"/>
<text text-anchor="middle" x="1682" y="-117.3" font-family="Times,serif" font-size="14.00">gateway:8080#ServerID_OuterContainerID</text>
</g>
<!-- 1_fwatchdog#ServerID_6df85d7674&#45;grtsk -->
<g id="node2" class="node"><title>1_fwatchdog#ServerID_6df85d7674&#45;grtsk</title>
<polygon fill="none" stroke="black" points="1184.5,-247 863.5,-247 863.5,-211 1184.5,-211 1184.5,-247"/>
<text text-anchor="middle" x="1024" y="-225.3" font-family="Times,serif" font-size="14.00">1_fwatchdog#ServerID_6df85d7674&#45;grtsk</text>
</g>
<!-- gateway:8080#ServerID_OuterContainerID&#45;&gt;1_fwatchdog#ServerID_6df85d7674&#45;grtsk -->
<g id="edge1" class="edge"><title>gateway:8080#ServerID_OuterContainerID&#45;&gt;1_fwatchdog#ServerID_6df85d7674&#45;grtsk</title>
<path fill="none" stroke="black" d="M1604.36,-134.508C1489.41,-153.025 1273.2,-187.855 1139.59,-209.379"/>
<polygon fill="black" stroke="black" points="1139.04,-205.923 1129.72,-210.969 1140.15,-212.834 1139.04,-205.923"/>
<text text-anchor="middle" x="1376" y="-181.8" font-family="Times,serif" font-size="14.00">RESPONSE</text>
</g>
<!-- 1_fwatchdog#ServerID_6df85d7674&#45;grtsk&#45;&gt;gateway:8080#ServerID_OuterContainerID -->
<g id="edge7" class="edge"><title>1_fwatchdog#ServerID_6df85d7674&#45;grtsk&#45;&gt;gateway:8080#ServerID_OuterContainerID</title>
<path fill="none" stroke="black" d="M1184.63,-220.435C1257.49,-215.325 1344.5,-206.874 1422,-193 1494.69,-179.986 1576.58,-156.032 1628.69,-139.574"/>
<polygon fill="black" stroke="black" points="1629.92,-142.857 1638.38,-136.49 1627.79,-136.186 1629.92,-142.857"/>
<text text-anchor="middle" x="1508" y="-181.8" font-family="Times,serif" font-size="14.00">POST</text>
</g>
<!-- 10.1.80.247:58374#ServerID_OuterContainerID -->
<g id="node3" class="node"><title>10.1.80.247:58374#ServerID_OuterContainerID</title>
<polygon fill="none" stroke="black" points="1024,-139 688.515,-121 1024,-103 1359.48,-121 1024,-139"/>
<text text-anchor="middle" x="1024" y="-117.3" font-family="Times,serif" font-size="14.00">10.1.80.247:58374#ServerID_OuterContainerID</text>
</g>
<!-- 1_fwatchdog#ServerID_6df85d7674&#45;grtsk&#45;&gt;10.1.80.247:58374#ServerID_OuterContainerID -->
<g id="edge3" class="edge"><title>1_fwatchdog#ServerID_6df85d7674&#45;grtsk&#45;&gt;10.1.80.247:58374#ServerID_OuterContainerID</title>
<path fill="none" stroke="black" d="M1029.96,-210.759C1031.61,-205.165 1033.18,-198.883 1034,-193 1036.04,-178.409 1034.06,-162.133 1031.34,-148.849"/>
<polygon fill="black" stroke="black" points="1034.71,-147.889 1029.06,-138.927 1027.88,-149.457 1034.71,-147.889"/>
<text text-anchor="middle" x="1077" y="-181.8" font-family="Times,serif" font-size="14.00">RESPONSE</text>
</g>
<!-- 10.1.80.247:8080#ServerID_OuterContainerID -->
<g id="node4" class="node"><title>10.1.80.247:8080#ServerID_OuterContainerID</title>
<polygon fill="none" stroke="black" points="343,-139 15.5599,-121 343,-103 670.44,-121 343,-139"/>
<text text-anchor="middle" x="343" y="-117.3" font-family="Times,serif" font-size="14.00">10.1.80.247:8080#ServerID_OuterContainerID</text>
</g>
<!-- 1_fwatchdog#ServerID_6df85d7674&#45;grtsk&#45;&gt;10.1.80.247:8080#ServerID_OuterContainerID -->
<g id="edge4" class="edge"><title>1_fwatchdog#ServerID_6df85d7674&#45;grtsk&#45;&gt;10.1.80.247:8080#ServerID_OuterContainerID</title>
<path fill="none" stroke="black" d="M914.586,-210.969C781.287,-190.221 558.527,-155.548 434.115,-136.182"/>
<polygon fill="black" stroke="black" points="434.279,-132.666 423.86,-134.586 433.202,-139.583 434.279,-132.666"/>
<text text-anchor="middle" x="805" y="-181.8" font-family="Times,serif" font-size="14.00">POST</text>
</g>
<!-- 10.1.80.247:58374#ServerID_OuterContainerID&#45;&gt;1_fwatchdog#ServerID_6df85d7674&#45;grtsk -->
<g id="edge2" class="edge"><title>10.1.80.247:58374#ServerID_OuterContainerID&#45;&gt;1_fwatchdog#ServerID_6df85d7674&#45;grtsk</title>
<path fill="none" stroke="black" d="M1009.46,-138.47C998.687,-152.752 986.99,-174.049 994,-193 995.231,-196.328 996.936,-199.554 998.914,-202.612"/>
<polygon fill="black" stroke="black" points="996.225,-204.86 1005.04,-210.736 1001.81,-200.644 996.225,-204.86"/>
<text text-anchor="middle" x="1014" y="-181.8" font-family="Times,serif" font-size="14.00">POST</text>
</g>
<!-- 1_fwatchdog#ServerID_3113a7a2a86a -->
<g id="node7" class="node"><title>1_fwatchdog#ServerID_3113a7a2a86a</title>
<polygon fill="none" stroke="black" points="2723.5,-442 2426.5,-442 2426.5,-406 2723.5,-406 2723.5,-442"/>
<text text-anchor="middle" x="2575" y="-420.3" font-family="Times,serif" font-size="14.00">1_fwatchdog#ServerID_3113a7a2a86a</text>
</g>
<!-- 10.1.80.247:58374#ServerID_OuterContainerID&#45;&gt;1_fwatchdog#ServerID_3113a7a2a86a -->
<g id="edge14" class="edge"><title>10.1.80.247:58374#ServerID_OuterContainerID&#45;&gt;1_fwatchdog#ServerID_3113a7a2a86a</title>
<path fill="none" stroke="black" d="M1101.87,-134.857C1171.64,-145.893 1276.88,-161.349 1369,-170 1441.21,-176.782 1460.18,-167.887 1532,-178 1723.75,-204.999 2293.55,-350.152 2499.59,-403.4"/>
<polygon fill="black" stroke="black" points="2498.86,-406.826 2509.42,-405.941 2500.61,-400.049 2498.86,-406.826"/>
<text text-anchor="middle" x="2105.5" y="-289.8" font-family="Times,serif" font-size="14.00">read</text>
</g>
<!-- 10.1.80.247:8080#ServerID_OuterContainerID&#45;&gt;1_fwatchdog#ServerID_6df85d7674&#45;grtsk -->
<g id="edge5" class="edge"><title>10.1.80.247:8080#ServerID_OuterContainerID&#45;&gt;1_fwatchdog#ServerID_6df85d7674&#45;grtsk</title>
<path fill="none" stroke="black" d="M389.335,-136.613C443.23,-153.009 535.154,-179.122 616,-193 693.294,-206.268 779.732,-214.601 853.082,-219.787"/>
<polygon fill="black" stroke="black" points="853.125,-223.299 863.343,-220.498 853.609,-216.315 853.125,-223.299"/>
<text text-anchor="middle" x="658" y="-181.8" font-family="Times,serif" font-size="14.00">RESPONSE</text>
</g>
<!-- 10.1.80.1:41329#ServerID_OuterContainerID -->
<g id="node21" class="node"><title>10.1.80.1:41329#ServerID_OuterContainerID</title>
<polygon fill="none" stroke="black" points="1023,-52 704.105,-34 1023,-16 1341.9,-34 1023,-52"/>
<text text-anchor="middle" x="1023" y="-30.3" font-family="Times,serif" font-size="14.00">10.1.80.1:41329#ServerID_OuterContainerID</text>
</g>
<!-- 10.1.80.247:8080#ServerID_OuterContainerID&#45;&gt;10.1.80.1:41329#ServerID_OuterContainerID -->
<g id="edge31" class="edge"><title>10.1.80.247:8080#ServerID_OuterContainerID&#45;&gt;10.1.80.1:41329#ServerID_OuterContainerID</title>
<path fill="none" stroke="black" d="M423.502,-107.357C493.138,-96.6463 596.572,-81.2769 687,-70 757.296,-61.2336 836.058,-52.9479 899.647,-46.6409"/>
<polygon fill="black" stroke="black" points="900.112,-50.1122 909.719,-45.6459 899.423,-43.1461 900.112,-50.1122"/>
<text text-anchor="middle" x="729" y="-73.8" font-family="Times,serif" font-size="14.00">RESPONSE</text>
</g>
<!-- 10.0.88.125:31112#ServerID_OuterContainerID -->
<g id="node22" class="node"><title>10.0.88.125:31112#ServerID_OuterContainerID</title>
<polygon fill="none" stroke="black" points="351,-52 15.5152,-34 351,-16 686.485,-34 351,-52"/>
<text text-anchor="middle" x="351" y="-30.3" font-family="Times,serif" font-size="14.00">10.0.88.125:31112#ServerID_OuterContainerID</text>
</g>
<!-- 10.1.80.247:8080#ServerID_OuterContainerID&#45;&gt;10.0.88.125:31112#ServerID_OuterContainerID -->
<g id="edge32" class="edge"><title>10.1.80.247:8080#ServerID_OuterContainerID&#45;&gt;10.0.88.125:31112#ServerID_OuterContainerID</title>
<path fill="none" stroke="black" d="M344.619,-102.799C345.714,-91.1626 347.184,-75.5479 348.437,-62.2368"/>
<polygon fill="black" stroke="black" points="351.931,-62.4594 349.383,-52.1754 344.962,-61.8034 351.931,-62.4594"/>
<text text-anchor="middle" x="390" y="-73.8" font-family="Times,serif" font-size="14.00">RESPONSE</text>
</g>
<!-- 10.1.80.1:20262#ServerID_OuterContainerID -->
<g id="node23" class="node"><title>10.1.80.1:20262#ServerID_OuterContainerID</title>
<polygon fill="none" stroke="black" points="1679,-52 1360.1,-34 1679,-16 1997.9,-34 1679,-52"/>
<text text-anchor="middle" x="1679" y="-30.3" font-family="Times,serif" font-size="14.00">10.1.80.1:20262#ServerID_OuterContainerID</text>
</g>
<!-- 10.1.80.247:8080#ServerID_OuterContainerID&#45;&gt;10.1.80.1:20262#ServerID_OuterContainerID -->
<g id="edge34" class="edge"><title>10.1.80.247:8080#ServerID_OuterContainerID&#45;&gt;10.1.80.1:20262#ServerID_OuterContainerID</title>
<path fill="none" stroke="black" d="M468.172,-109.845C531.61,-104.92 609.87,-99.1799 680,-95 778.592,-89.1237 803.381,-90.3937 902,-85 1122.73,-72.9279 1378.52,-55.8756 1534.51,-45.1321"/>
<polygon fill="black" stroke="black" points="1534.91,-48.6134 1544.64,-44.4337 1534.42,-41.63 1534.91,-48.6134"/>
<text text-anchor="middle" x="1180" y="-73.8" font-family="Times,serif" font-size="14.00">RESPONSE</text>
</g>
<!-- 1_fwatchdog#ServerID_5f846fd567&#45;srhtc -->
<g id="node5" class="node"><title>1_fwatchdog#ServerID_5f846fd567&#45;srhtc</title>
<polygon fill="none" stroke="black" points="2333.5,-247 2016.5,-247 2016.5,-211 2333.5,-211 2333.5,-247"/>
<text text-anchor="middle" x="2175" y="-225.3" font-family="Times,serif" font-size="14.00">1_fwatchdog#ServerID_5f846fd567&#45;srhtc</text>
</g>
<!-- 10.1.80.247:52904#ServerID_OuterContainerID -->
<g id="node6" class="node"><title>10.1.80.247:52904#ServerID_OuterContainerID</title>
<polygon fill="none" stroke="black" points="2340,-139 2004.52,-121 2340,-103 2675.48,-121 2340,-139"/>
<text text-anchor="middle" x="2340" y="-117.3" font-family="Times,serif" font-size="14.00">10.1.80.247:52904#ServerID_OuterContainerID</text>
</g>
<!-- 1_fwatchdog#ServerID_5f846fd567&#45;srhtc&#45;&gt;10.1.80.247:52904#ServerID_OuterContainerID -->
<g id="edge6" class="edge"><title>1_fwatchdog#ServerID_5f846fd567&#45;srhtc&#45;&gt;10.1.80.247:52904#ServerID_OuterContainerID</title>
<path fill="none" stroke="black" d="M2241.02,-210.928C2253.53,-206.177 2266.09,-200.267 2277,-193 2295.23,-180.854 2311.51,-162.181 2322.95,-147.033"/>
<polygon fill="black" stroke="black" points="2326.04,-148.738 2329.11,-138.598 2320.39,-144.612 2326.04,-148.738"/>
<text text-anchor="middle" x="2338" y="-181.8" font-family="Times,serif" font-size="14.00">RESPONSE</text>
</g>
<!-- 10.1.80.247:52904#ServerID_OuterContainerID&#45;&gt;1_fwatchdog#ServerID_5f846fd567&#45;srhtc -->
<g id="edge8" class="edge"><title>10.1.80.247:52904#ServerID_OuterContainerID&#45;&gt;1_fwatchdog#ServerID_5f846fd567&#45;srhtc</title>
<path fill="none" stroke="black" d="M2306.09,-137.275C2284.47,-147.607 2256.24,-162.21 2233,-178 2221.63,-185.723 2209.99,-195.361 2200.15,-204.109"/>
<polygon fill="black" stroke="black" points="2197.74,-201.57 2192.68,-210.88 2202.44,-206.756 2197.74,-201.57"/>
<text text-anchor="middle" x="2253" y="-181.8" font-family="Times,serif" font-size="14.00">POST</text>
</g>
<!-- 1_fwatchdog#ServerID_9c632c9c841a -->
<g id="node13" class="node"><title>1_fwatchdog#ServerID_9c632c9c841a</title>
<polygon fill="none" stroke="black" points="5054.5,-442 4757.5,-442 4757.5,-406 5054.5,-406 5054.5,-442"/>
<text text-anchor="middle" x="4906" y="-420.3" font-family="Times,serif" font-size="14.00">1_fwatchdog#ServerID_9c632c9c841a</text>
</g>
<!-- 10.1.80.247:52904#ServerID_OuterContainerID&#45;&gt;1_fwatchdog#ServerID_9c632c9c841a -->
<g id="edge17" class="edge"><title>10.1.80.247:52904#ServerID_OuterContainerID&#45;&gt;1_fwatchdog#ServerID_9c632c9c841a</title>
<path fill="none" stroke="black" d="M2413.39,-135.105C2483.03,-146.851 2590.75,-163.241 2685,-170 2864.32,-182.86 4123.41,-169.696 4303,-178 4482.16,-186.284 5789.84,-186.756 5911,-319 5921.81,-330.797 5921.93,-343.311 5911,-355 5854.58,-415.37 5333.64,-423.664 5064.86,-423.87"/>
<polygon fill="black" stroke="black" points="5064.62,-420.37 5054.62,-423.874 5064.62,-427.37 5064.62,-420.37"/>
<text text-anchor="middle" x="5897.5" y="-289.8" font-family="Times,serif" font-size="14.00">read</text>
</g>
<!-- localhost:3000#ServerID_3113a7a2a86a -->
<g id="node8" class="node"><title>localhost:3000#ServerID_3113a7a2a86a</title>
<polygon fill="none" stroke="black" points="2644,-355 2358.28,-337 2644,-319 2929.72,-337 2644,-355"/>
<text text-anchor="middle" x="2644" y="-333.3" font-family="Times,serif" font-size="14.00">localhost:3000#ServerID_3113a7a2a86a</text>
</g>
<!-- 1_fwatchdog#ServerID_3113a7a2a86a&#45;&gt;localhost:3000#ServerID_3113a7a2a86a -->
<g id="edge9" class="edge"><title>1_fwatchdog#ServerID_3113a7a2a86a&#45;&gt;localhost:3000#ServerID_3113a7a2a86a</title>
<path fill="none" stroke="black" d="M2588.96,-405.799C2599.17,-393.228 2613.14,-376.014 2624.45,-362.077"/>
<polygon fill="black" stroke="black" points="2627.17,-364.28 2630.76,-354.31 2621.74,-359.868 2627.17,-364.28"/>
<text text-anchor="middle" x="2633" y="-376.8" font-family="Times,serif" font-size="14.00">write</text>
</g>
<!-- 12_node#ServerID_3113a7a2a86a -->
<g id="node10" class="node"><title>12_node#ServerID_3113a7a2a86a</title>
<polygon fill="none" stroke="black" points="3125,-247 2859,-247 2859,-211 3125,-211 3125,-247"/>
<text text-anchor="middle" x="2992" y="-225.3" font-family="Times,serif" font-size="14.00">12_node#ServerID_3113a7a2a86a</text>
</g>
<!-- localhost:3000#ServerID_3113a7a2a86a&#45;&gt;12_node#ServerID_3113a7a2a86a -->
<g id="edge11" class="edge"><title>localhost:3000#ServerID_3113a7a2a86a&#45;&gt;12_node#ServerID_3113a7a2a86a</title>
<path fill="none" stroke="black" d="M2690.57,-321.814C2751.12,-303.371 2857.24,-271.047 2926.05,-250.088"/>
<polygon fill="black" stroke="black" points="2927.37,-253.344 2935.92,-247.082 2925.34,-246.647 2927.37,-253.344"/>
<text text-anchor="middle" x="2824.5" y="-289.8" font-family="Times,serif" font-size="14.00">read</text>
</g>
<!-- /etc/hosts#ServerID_3113a7a2a86a -->
<g id="node9" class="node"><title>/etc/hosts#ServerID_3113a7a2a86a</title>
<ellipse fill="none" stroke="black" cx="3553" cy="-337" rx="178.969" ry="18"/>
<text text-anchor="middle" x="3553" y="-333.3" font-family="Times,serif" font-size="14.00">/etc/hosts#ServerID_3113a7a2a86a</text>
</g>
<!-- /etc/hosts#ServerID_3113a7a2a86a&#45;&gt;12_node#ServerID_3113a7a2a86a -->
<g id="edge10" class="edge"><title>/etc/hosts#ServerID_3113a7a2a86a&#45;&gt;12_node#ServerID_3113a7a2a86a</title>
<path fill="none" stroke="black" d="M3472.92,-320.869C3372.67,-301.926 3200.91,-269.473 3092.08,-248.911"/>
<polygon fill="black" stroke="black" points="3092.56,-245.438 3082.08,-247.02 3091.26,-252.316 3092.56,-245.438"/>
<text text-anchor="middle" x="3372.5" y="-289.8" font-family="Times,serif" font-size="14.00">read</text>
</g>
<!-- 12_node#ServerID_3113a7a2a86a&#45;&gt;gateway:8080#ServerID_OuterContainerID -->
<g id="edge16" class="edge"><title>12_node#ServerID_3113a7a2a86a&#45;&gt;gateway:8080#ServerID_OuterContainerID</title>
<path fill="none" stroke="black" d="M2858.72,-214.669C2735.65,-202.923 2547.68,-186.41 2384,-178 2211.75,-169.15 2167.84,-184.842 1996,-170 1915.03,-163.007 1823.23,-148.159 1759.9,-136.817"/>
<polygon fill="black" stroke="black" points="1760.45,-133.36 1749.99,-135.029 1759.21,-140.248 1760.45,-133.36"/>
<text text-anchor="middle" x="2631" y="-181.8" font-family="Times,serif" font-size="14.00">connect</text>
</g>
<!-- 10.152.183.10:53#ServerID_OuterContainerID -->
<g id="node12" class="node"><title>10.152.183.10:53#ServerID_OuterContainerID</title>
<polygon fill="none" stroke="black" points="3021,-139 2693.56,-121 3021,-103 3348.44,-121 3021,-139"/>
<text text-anchor="middle" x="3021" y="-117.3" font-family="Times,serif" font-size="14.00">10.152.183.10:53#ServerID_OuterContainerID</text>
</g>
<!-- 12_node#ServerID_3113a7a2a86a&#45;&gt;10.152.183.10:53#ServerID_OuterContainerID -->
<g id="edge15" class="edge"><title>12_node#ServerID_3113a7a2a86a&#45;&gt;10.152.183.10:53#ServerID_OuterContainerID</title>
<path fill="none" stroke="black" d="M2965.9,-210.775C2955.58,-201.68 2947.36,-189.947 2953,-178 2959.58,-164.066 2971.51,-152.425 2983.56,-143.432"/>
<polygon fill="black" stroke="black" points="2985.67,-146.229 2991.86,-137.633 2981.66,-140.491 2985.67,-146.229"/>
<text text-anchor="middle" x="2977.5" y="-181.8" font-family="Times,serif" font-size="14.00">sendto</text>
</g>
<!-- /etc/resolv.conf#ServerID_3113a7a2a86a -->
<g id="node11" class="node"><title>/etc/resolv.conf#ServerID_3113a7a2a86a</title>
<ellipse fill="none" stroke="black" cx="3152" cy="-337" rx="204.164" ry="18"/>
<text text-anchor="middle" x="3152" y="-333.3" font-family="Times,serif" font-size="14.00">/etc/resolv.conf#ServerID_3113a7a2a86a</text>
</g>
<!-- /etc/resolv.conf#ServerID_3113a7a2a86a&#45;&gt;12_node#ServerID_3113a7a2a86a -->
<g id="edge12" class="edge"><title>/etc/resolv.conf#ServerID_3113a7a2a86a&#45;&gt;12_node#ServerID_3113a7a2a86a</title>
<path fill="none" stroke="black" d="M3126.29,-318.969C3099.2,-301.019 3056.37,-272.646 3026.39,-252.78"/>
<polygon fill="black" stroke="black" points="3028.18,-249.769 3017.91,-247.164 3024.31,-255.605 3028.18,-249.769"/>
<text text-anchor="middle" x="3112.5" y="-289.8" font-family="Times,serif" font-size="14.00">read</text>
</g>
<!-- 10.152.183.10:53#ServerID_OuterContainerID&#45;&gt;12_node#ServerID_3113a7a2a86a -->
<g id="edge13" class="edge"><title>10.152.183.10:53#ServerID_OuterContainerID&#45;&gt;12_node#ServerID_3113a7a2a86a</title>
<path fill="none" stroke="black" d="M3018.23,-139.136C3015.69,-153.648 3011.48,-174.915 3006,-193 3005.16,-195.76 3004.2,-198.606 3003.18,-201.428"/>
<polygon fill="black" stroke="black" points="2999.91,-200.174 2999.58,-210.764 3006.44,-202.692 2999.91,-200.174"/>
<text text-anchor="middle" x="3043" y="-181.8" font-family="Times,serif" font-size="14.00">recvfrom</text>
</g>
<!-- 10_node#ServerID_9c632c9c841a -->
<g id="node15" class="node"><title>10_node#ServerID_9c632c9c841a</title>
<polygon fill="none" stroke="black" points="4344,-247 4078,-247 4078,-211 4344,-211 4344,-247"/>
<text text-anchor="middle" x="4211" y="-225.3" font-family="Times,serif" font-size="14.00">10_node#ServerID_9c632c9c841a</text>
</g>
<!-- 10.152.183.10:53#ServerID_OuterContainerID&#45;&gt;10_node#ServerID_9c632c9c841a -->
<g id="edge23" class="edge"><title>10.152.183.10:53#ServerID_OuterContainerID&#45;&gt;10_node#ServerID_9c632c9c841a</title>
<path fill="none" stroke="black" d="M3096.48,-134.909C3164.42,-146.019 3267.09,-161.555 3357,-170 3434.96,-177.323 3454.84,-173.342 3533,-178 3717.77,-189.01 3930.6,-205.295 4067.77,-216.259"/>
<polygon fill="black" stroke="black" points="4067.67,-219.763 4077.92,-217.072 4068.23,-212.785 4067.67,-219.763"/>
<text text-anchor="middle" x="3790" y="-181.8" font-family="Times,serif" font-size="14.00">recvfrom</text>
</g>
<!-- localhost:3000#ServerID_9c632c9c841a -->
<g id="node14" class="node"><title>localhost:3000#ServerID_9c632c9c841a</title>
<polygon fill="none" stroke="black" points="4364,-355 4078.28,-337 4364,-319 4649.72,-337 4364,-355"/>
<text text-anchor="middle" x="4364" y="-333.3" font-family="Times,serif" font-size="14.00">localhost:3000#ServerID_9c632c9c841a</text>
</g>
<!-- 1_fwatchdog#ServerID_9c632c9c841a&#45;&gt;localhost:3000#ServerID_9c632c9c841a -->
<g id="edge18" class="edge"><title>1_fwatchdog#ServerID_9c632c9c841a&#45;&gt;localhost:3000#ServerID_9c632c9c841a</title>
<path fill="none" stroke="black" d="M4786.8,-405.978C4748.52,-400.395 4705.95,-394.065 4667,-388 4592.52,-376.402 4507.89,-362.365 4447.04,-352.12"/>
<polygon fill="black" stroke="black" points="4447.55,-348.656 4437.1,-350.445 4446.38,-355.558 4447.55,-348.656"/>
<text text-anchor="middle" x="4686" y="-376.8" font-family="Times,serif" font-size="14.00">write</text>
</g>
<!-- pipe:[240002549]#ServerID_9c632c9c841a -->
<g id="node20" class="node"><title>pipe:[240002549]#ServerID_9c632c9c841a</title>
<ellipse fill="none" stroke="black" cx="5686" cy="-337" rx="215.562" ry="18"/>
<text text-anchor="middle" x="5686" y="-333.3" font-family="Times,serif" font-size="14.00">pipe:[240002549]#ServerID_9c632c9c841a</text>
</g>
<!-- 1_fwatchdog#ServerID_9c632c9c841a&#45;&gt;pipe:[240002549]#ServerID_9c632c9c841a -->
<g id="edge29" class="edge"><title>1_fwatchdog#ServerID_9c632c9c841a&#45;&gt;pipe:[240002549]#ServerID_9c632c9c841a</title>
<path fill="none" stroke="black" d="M5054.55,-406.812C5197.5,-391.234 5411.8,-367.881 5550.28,-352.79"/>
<polygon fill="black" stroke="black" points="5550.97,-356.236 5560.53,-351.673 5550.21,-349.277 5550.97,-356.236"/>
<text text-anchor="middle" x="5361" y="-376.8" font-family="Times,serif" font-size="14.00">write</text>
</g>
<!-- localhost:3000#ServerID_9c632c9c841a&#45;&gt;1_fwatchdog#ServerID_9c632c9c841a -->
<g id="edge28" class="edge"><title>localhost:3000#ServerID_9c632c9c841a&#45;&gt;1_fwatchdog#ServerID_9c632c9c841a</title>
<path fill="none" stroke="black" d="M4492.92,-346.901C4556.98,-352.421 4635.38,-360.832 4705,-373 4749.22,-380.73 4798.12,-392.812 4836.61,-403.162"/>
<polygon fill="black" stroke="black" points="4836.1,-406.651 4846.67,-405.891 4837.93,-399.895 4836.1,-406.651"/>
<text text-anchor="middle" x="4787.5" y="-376.8" font-family="Times,serif" font-size="14.00">read</text>
</g>
<!-- localhost:3000#ServerID_9c632c9c841a&#45;&gt;10_node#ServerID_9c632c9c841a -->
<g id="edge19" class="edge"><title>localhost:3000#ServerID_9c632c9c841a&#45;&gt;10_node#ServerID_9c632c9c841a</title>
<path fill="none" stroke="black" d="M4341.42,-320.359C4315.7,-302.538 4273.43,-273.251 4244.01,-252.868"/>
<polygon fill="black" stroke="black" points="4245.91,-249.93 4235.7,-247.112 4241.93,-255.684 4245.91,-249.93"/>
<text text-anchor="middle" x="4326.5" y="-289.8" font-family="Times,serif" font-size="14.00">read</text>
</g>
<!-- 10_node#ServerID_9c632c9c841a&#45;&gt;10.152.183.10:53#ServerID_OuterContainerID -->
<g id="edge22" class="edge"><title>10_node#ServerID_9c632c9c841a&#45;&gt;10.152.183.10:53#ServerID_OuterContainerID</title>
<path fill="none" stroke="black" d="M4077.92,-220.343C3984.5,-215.098 3856.64,-208.181 3744,-203 3628.48,-197.687 3599.12,-204.004 3484,-193 3348.62,-180.059 3192.54,-153.727 3100.57,-137.022"/>
<polygon fill="black" stroke="black" points="3100.97,-133.537 3090.5,-135.185 3099.71,-140.424 3100.97,-133.537"/>
<text text-anchor="middle" x="3508.5" y="-181.8" font-family="Times,serif" font-size="14.00">sendto</text>
</g>
<!-- 10.152.183.73:8888#ServerID_OuterContainerID -->
<g id="node18" class="node"><title>10.152.183.73:8888#ServerID_OuterContainerID</title>
<polygon fill="none" stroke="black" points="3710,-139 3366.47,-121 3710,-103 4053.53,-121 3710,-139"/>
<text text-anchor="middle" x="3710" y="-117.3" font-family="Times,serif" font-size="14.00">10.152.183.73:8888#ServerID_OuterContainerID</text>
</g>
<!-- 10_node#ServerID_9c632c9c841a&#45;&gt;10.152.183.73:8888#ServerID_OuterContainerID -->
<g id="edge24" class="edge"><title>10_node#ServerID_9c632c9c841a&#45;&gt;10.152.183.73:8888#ServerID_OuterContainerID</title>
<path fill="none" stroke="black" d="M4154.69,-210.94C4119.15,-200.546 4072.14,-187.485 4030,-178 3954.92,-161.102 3868.97,-146.308 3805.06,-136.176"/>
<polygon fill="black" stroke="black" points="3805.42,-132.689 3795,-134.59 3804.33,-139.604 3805.42,-132.689"/>
<text text-anchor="middle" x="4120" y="-181.8" font-family="Times,serif" font-size="14.00">connect</text>
</g>
<!-- 10_node#ServerID_9c632c9c841a&#45;&gt;10.152.183.73:8888#ServerID_OuterContainerID -->
<g id="edge27" class="edge"><title>10_node#ServerID_9c632c9c841a&#45;&gt;10.152.183.73:8888#ServerID_OuterContainerID</title>
<path fill="none" stroke="black" d="M4078,-221.617C4019.4,-216.743 3950.13,-208.15 3889,-193 3839.85,-180.819 3786.2,-158.197 3750.58,-141.754"/>
<polygon fill="black" stroke="black" points="3752.02,-138.564 3741.48,-137.506 3749.06,-144.907 3752.02,-138.564"/>
<text text-anchor="middle" x="3908" y="-181.8" font-family="Times,serif" font-size="14.00">write</text>
</g>
<!-- /home/app/sqldump.sh#ServerID_9c632c9c841a -->
<g id="node19" class="node"><title>/home/app/sqldump.sh#ServerID_9c632c9c841a</title>
<ellipse fill="none" stroke="black" cx="4317" cy="-121" rx="238.558" ry="18"/>
<text text-anchor="middle" x="4317" y="-117.3" font-family="Times,serif" font-size="14.00">/home/app/sqldump.sh#ServerID_9c632c9c841a</text>
</g>
<!-- 10_node#ServerID_9c632c9c841a&#45;&gt;/home/app/sqldump.sh#ServerID_9c632c9c841a -->
<g id="edge26" class="edge"><title>10_node#ServerID_9c632c9c841a&#45;&gt;/home/app/sqldump.sh#ServerID_9c632c9c841a</title>
<path fill="none" stroke="black" d="M4228.03,-210.969C4245.57,-193.429 4273.06,-165.938 4292.84,-146.156"/>
<polygon fill="black" stroke="black" points="4295.42,-148.534 4300.01,-138.988 4290.47,-143.585 4295.42,-148.534"/>
<text text-anchor="middle" x="4280" y="-181.8" font-family="Times,serif" font-size="14.00">write</text>
</g>
<!-- /etc/hosts#ServerID_9c632c9c841a -->
<g id="node16" class="node"><title>/etc/hosts#ServerID_9c632c9c841a</title>
<ellipse fill="none" stroke="black" cx="5273" cy="-337" rx="178.969" ry="18"/>
<text text-anchor="middle" x="5273" y="-333.3" font-family="Times,serif" font-size="14.00">/etc/hosts#ServerID_9c632c9c841a</text>
</g>
<!-- /etc/hosts#ServerID_9c632c9c841a&#45;&gt;10_node#ServerID_9c632c9c841a -->
<g id="edge20" class="edge"><title>/etc/hosts#ServerID_9c632c9c841a&#45;&gt;10_node#ServerID_9c632c9c841a</title>
<path fill="none" stroke="black" d="M5150.92,-323.815C4953.41,-304.101 4564.75,-265.309 4354.39,-244.312"/>
<polygon fill="black" stroke="black" points="4354.5,-240.805 4344.2,-243.295 4353.8,-247.771 4354.5,-240.805"/>
<text text-anchor="middle" x="4915.5" y="-289.8" font-family="Times,serif" font-size="14.00">read</text>
</g>
<!-- /etc/resolv.conf#ServerID_9c632c9c841a -->
<g id="node17" class="node"><title>/etc/resolv.conf#ServerID_9c632c9c841a</title>
<ellipse fill="none" stroke="black" cx="4872" cy="-337" rx="204.164" ry="18"/>
<text text-anchor="middle" x="4872" y="-333.3" font-family="Times,serif" font-size="14.00">/etc/resolv.conf#ServerID_9c632c9c841a</text>
</g>
<!-- /etc/resolv.conf#ServerID_9c632c9c841a&#45;&gt;10_node#ServerID_9c632c9c841a -->
<g id="edge21" class="edge"><title>/etc/resolv.conf#ServerID_9c632c9c841a&#45;&gt;10_node#ServerID_9c632c9c841a</title>
<path fill="none" stroke="black" d="M4778.35,-320.982C4659.72,-301.959 4455.34,-269.183 4326.98,-248.598"/>
<polygon fill="black" stroke="black" points="4327.53,-245.142 4317.1,-247.015 4326.42,-252.054 4327.53,-245.142"/>
<text text-anchor="middle" x="4655.5" y="-289.8" font-family="Times,serif" font-size="14.00">read</text>
</g>
<!-- 10.152.183.73:8888#ServerID_OuterContainerID&#45;&gt;10_node#ServerID_9c632c9c841a -->
<g id="edge25" class="edge"><title>10.152.183.73:8888#ServerID_OuterContainerID&#45;&gt;10_node#ServerID_9c632c9c841a</title>
<path fill="none" stroke="black" d="M3761.59,-136.374C3818.08,-151.778 3911.5,-176.267 3993,-193 4022.01,-198.957 4053.37,-204.506 4083.02,-209.351"/>
<polygon fill="black" stroke="black" points="4082.57,-212.824 4093,-210.967 4083.68,-205.914 4082.57,-212.824"/>
<text text-anchor="middle" x="4009.5" y="-181.8" font-family="Times,serif" font-size="14.00">read</text>
</g>
<!-- 10.1.80.1:41329#ServerID_OuterContainerID&#45;&gt;10.1.80.247:8080#ServerID_OuterContainerID -->
<g id="edge30" class="edge"><title>10.1.80.1:41329#ServerID_OuterContainerID&#45;&gt;10.1.80.247:8080#ServerID_OuterContainerID</title>
<path fill="none" stroke="black" d="M964.709,-48.7799C914.663,-60.1222 840.457,-75.7828 775,-85 746.634,-88.9943 599.158,-100.621 484.311,-109.386"/>
<polygon fill="black" stroke="black" points="483.711,-105.922 474.006,-110.172 484.243,-112.902 483.711,-105.922"/>
<text text-anchor="middle" x="878" y="-73.8" font-family="Times,serif" font-size="14.00">POST</text>
</g>
<!-- 10.1.80.1:20262#ServerID_OuterContainerID&#45;&gt;10.1.80.247:8080#ServerID_OuterContainerID -->
<g id="edge33" class="edge"><title>10.1.80.1:20262#ServerID_OuterContainerID&#45;&gt;10.1.80.247:8080#ServerID_OuterContainerID</title>
<path fill="none" stroke="black" d="M1612.55,-48.2959C1548.64,-60.4135 1449.15,-77.5258 1362,-85 1210.98,-97.9513 831.423,-88.2792 680,-95 611.156,-98.0556 534.54,-103.57 471.778,-108.644"/>
<polygon fill="black" stroke="black" points="471.112,-105.187 461.429,-109.487 471.68,-112.164 471.112,-105.187"/>
<text text-anchor="middle" x="1505" y="-73.8" font-family="Times,serif" font-size="14.00">POST</text>
</g>
</g>
</svg>
