<?xml version="1.0" encoding="UTF-8" standalone="no"?>
<!DOCTYPE svg PUBLIC "-//W3C//DTD SVG 1.1//EN"
 "http://www.w3.org/Graphics/SVG/1.1/DTD/svg11.dtd">
<!-- Generated by graphviz version 2.38.0 (20140413.2041)
 -->
<!-- Title: G Pages: 1 -->
<svg width="7787pt" height="402pt"
 viewBox="0.00 0.00 7787.00 402.00" xmlns="http://www.w3.org/2000/svg" xmlns:xlink="http://www.w3.org/1999/xlink">
<g id="graph0" class="graph" transform="scale(1 1) rotate(0) translate(4 398)">
<title>G</title>
<polygon fill="white" stroke="none" points="-4,4 -4,-398 7783,-398 7783,4 -4,4"/>
<g id="clust1" class="cluster"><title>clusterServerID_34e86192c217</title>
<polygon fill="none" stroke="black" points="6375,-95 6375,-386 7771,-386 7771,-95 6375,-95"/>
<text text-anchor="middle" x="7073" y="-370.8" font-family="Times,serif" font-size="14.00">clusterServerID_34e86192c217</text>
</g>
<g id="clust2" class="cluster"><title>clusterServerID_5f846fd567&#45;w7nbt</title>
<polygon fill="none" stroke="black" points="2858,-311 2858,-386 3198,-386 3198,-311 2858,-311"/>
<text text-anchor="middle" x="3028" y="-370.8" font-family="Times,serif" font-size="14.00">clusterServerID_5f846fd567&#45;w7nbt</text>
</g>
<g id="clust3" class="cluster"><title>clusterServerID_6df85d7674&#45;2kqrj</title>
<polygon fill="none" stroke="black" points="5431,-95 5431,-170 5769,-170 5769,-95 5431,-95"/>
<text text-anchor="middle" x="5600" y="-154.8" font-family="Times,serif" font-size="14.00">clusterServerID_6df85d7674&#45;2kqrj</text>
</g>
<g id="clust4" class="cluster"><title>clusterServerID_OuterContainerID</title>
<polygon fill="none" stroke="black" points="8,-95 8,-278 5423,-278 5423,-95 8,-95"/>
<text text-anchor="middle" x="2715.5" y="-262.8" font-family="Times,serif" font-size="14.00">clusterServerID_OuterContainerID</text>
</g>
<g id="clust5" class="cluster"><title>clusterServerID_e56b6537e2d5</title>
<polygon fill="none" stroke="black" points="5777,-8 5777,-170 6367,-170 6367,-8 5777,-8"/>
<text text-anchor="middle" x="6072" y="-154.8" font-family="Times,serif" font-size="14.00">clusterServerID_e56b6537e2d5</text>
</g>
<!-- 1_fwatchdog#ServerID_5f846fd567&#45;w7nbt -->
<g id="node1" class="node"><title>1_fwatchdog#ServerID_5f846fd567&#45;w7nbt</title>
<polygon fill="none" stroke="black" points="3190,-355 2866,-355 2866,-319 3190,-319 3190,-355"/>
<text text-anchor="middle" x="3028" y="-333.3" font-family="Times,serif" font-size="14.00">1_fwatchdog#ServerID_5f846fd567&#45;w7nbt</text>
</g>
<!-- 10.1.80.247:40018#ServerID_OuterContainerID -->
<g id="node2" class="node"><title>10.1.80.247:40018#ServerID_OuterContainerID</title>
<polygon fill="none" stroke="black" points="3029,-247 2693.52,-229 3029,-211 3364.48,-229 3029,-247"/>
<text text-anchor="middle" x="3029" y="-225.3" font-family="Times,serif" font-size="14.00">10.1.80.247:40018#ServerID_OuterContainerID</text>
</g>
<!-- 1_fwatchdog#ServerID_5f846fd567&#45;w7nbt&#45;&gt;10.1.80.247:40018#ServerID_OuterContainerID -->
<g id="edge1" class="edge"><title>1_fwatchdog#ServerID_5f846fd567&#45;w7nbt&#45;&gt;10.1.80.247:40018#ServerID_OuterContainerID</title>
<path fill="none" stroke="black" d="M3033.96,-318.759C3035.61,-313.165 3037.18,-306.883 3038,-301 3040.04,-286.436 3038.27,-270.162 3035.78,-256.873"/>
<polygon fill="black" stroke="black" points="3039.17,-256.006 3033.68,-246.944 3032.32,-257.452 3039.17,-256.006"/>
<text text-anchor="middle" x="3081" y="-289.8" font-family="Times,serif" font-size="14.00">RESPONSE</text>
</g>
<!-- 10.1.80.247:40018#ServerID_OuterContainerID&#45;&gt;1_fwatchdog#ServerID_5f846fd567&#45;w7nbt -->
<g id="edge5" class="edge"><title>10.1.80.247:40018#ServerID_OuterContainerID&#45;&gt;1_fwatchdog#ServerID_5f846fd567&#45;w7nbt</title>
<path fill="none" stroke="black" d="M3015.26,-246.449C3007.35,-257.019 2998.17,-271.453 2994,-286 2992.16,-292.408 2991.49,-294.822 2994,-301 2995.42,-304.503 2997.38,-307.848 2999.65,-310.984"/>
<polygon fill="black" stroke="black" points="2997.08,-313.372 3006.2,-318.762 3002.43,-308.86 2997.08,-313.372"/>
<text text-anchor="middle" x="3014" y="-289.8" font-family="Times,serif" font-size="14.00">POST</text>
</g>
<!-- 1_fwatchdog#ServerID_e56b6537e2d5 -->
<g id="node14" class="node"><title>1_fwatchdog#ServerID_e56b6537e2d5</title>
<polygon fill="none" stroke="black" points="6084.5,-139 5785.5,-139 5785.5,-103 6084.5,-103 6084.5,-139"/>
<text text-anchor="middle" x="5935" y="-117.3" font-family="Times,serif" font-size="14.00">1_fwatchdog#ServerID_e56b6537e2d5</text>
</g>
<!-- 10.1.80.247:40018#ServerID_OuterContainerID&#45;&gt;1_fwatchdog#ServerID_e56b6537e2d5 -->
<g id="edge22" class="edge"><title>10.1.80.247:40018#ServerID_OuterContainerID&#45;&gt;1_fwatchdog#ServerID_e56b6537e2d5</title>
<path fill="none" stroke="black" d="M3183.95,-219.302C3243.37,-216.246 3311.82,-213.063 3374,-211 3440.61,-208.79 5707.13,-180.129 5773,-170 5809.36,-164.408 5848.98,-152.774 5879.94,-142.36"/>
<polygon fill="black" stroke="black" points="5881.34,-145.579 5889.67,-139.031 5879.07,-138.956 5881.34,-145.579"/>
<text text-anchor="middle" x="5473.5" y="-181.8" font-family="Times,serif" font-size="14.00">read</text>
</g>
<!-- 10.1.80.247:38000#ServerID_OuterContainerID -->
<g id="node3" class="node"><title>10.1.80.247:38000#ServerID_OuterContainerID</title>
<polygon fill="none" stroke="black" points="1024,-247 688.515,-229 1024,-211 1359.48,-229 1024,-247"/>
<text text-anchor="middle" x="1024" y="-225.3" font-family="Times,serif" font-size="14.00">10.1.80.247:38000#ServerID_OuterContainerID</text>
</g>
<!-- 1_fwatchdog#ServerID_6df85d7674&#45;2kqrj -->
<g id="node4" class="node"><title>1_fwatchdog#ServerID_6df85d7674&#45;2kqrj</title>
<polygon fill="none" stroke="black" points="5760.5,-139 5439.5,-139 5439.5,-103 5760.5,-103 5760.5,-139"/>
<text text-anchor="middle" x="5600" y="-117.3" font-family="Times,serif" font-size="14.00">1_fwatchdog#ServerID_6df85d7674&#45;2kqrj</text>
</g>
<!-- 10.1.80.247:38000#ServerID_OuterContainerID&#45;&gt;1_fwatchdog#ServerID_6df85d7674&#45;2kqrj -->
<g id="edge2" class="edge"><title>10.1.80.247:38000#ServerID_OuterContainerID&#45;&gt;1_fwatchdog#ServerID_6df85d7674&#45;2kqrj</title>
<path fill="none" stroke="black" d="M1145.98,-217.527C1295.32,-205.26 1556.02,-185.644 1780,-178 1881.25,-174.544 5326.64,-183.777 5427,-170 5466.21,-164.618 5509.08,-152.767 5542.33,-142.189"/>
<polygon fill="black" stroke="black" points="5543.45,-145.506 5551.89,-139.1 5541.3,-138.846 5543.45,-145.506"/>
<text text-anchor="middle" x="1800" y="-181.8" font-family="Times,serif" font-size="14.00">POST</text>
</g>
<!-- 1_fwatchdog#ServerID_34e86192c217 -->
<g id="node7" class="node"><title>1_fwatchdog#ServerID_34e86192c217</title>
<polygon fill="none" stroke="black" points="7488.5,-355 7189.5,-355 7189.5,-319 7488.5,-319 7488.5,-355"/>
<text text-anchor="middle" x="7339" y="-333.3" font-family="Times,serif" font-size="14.00">1_fwatchdog#ServerID_34e86192c217</text>
</g>
<!-- 10.1.80.247:38000#ServerID_OuterContainerID&#45;&gt;1_fwatchdog#ServerID_34e86192c217 -->
<g id="edge12" class="edge"><title>10.1.80.247:38000#ServerID_OuterContainerID&#45;&gt;1_fwatchdog#ServerID_34e86192c217</title>
<path fill="none" stroke="black" d="M1097.39,-243.114C1167.03,-254.866 1274.75,-271.26 1369,-278 1466.42,-284.967 3029.34,-285.198 3127,-286 4707.37,-298.976 6621.15,-325.676 7179.19,-333.682"/>
<polygon fill="black" stroke="black" points="7179.26,-337.183 7189.31,-333.827 7179.36,-330.184 7179.26,-337.183"/>
<text text-anchor="middle" x="4649.5" y="-289.8" font-family="Times,serif" font-size="14.00">read</text>
</g>
<!-- 1_fwatchdog#ServerID_6df85d7674&#45;2kqrj&#45;&gt;10.1.80.247:38000#ServerID_OuterContainerID -->
<g id="edge4" class="edge"><title>1_fwatchdog#ServerID_6df85d7674&#45;2kqrj&#45;&gt;10.1.80.247:38000#ServerID_OuterContainerID</title>
<path fill="none" stroke="black" d="M5551.89,-139.096C5517.58,-150.359 5470.08,-164.08 5427,-170 5338.97,-182.099 2316.84,-176.183 2228,-178 2180.25,-178.977 1416.71,-208.908 1369,-211 1312.74,-213.467 1251.33,-216.411 1196.13,-219.151"/>
<polygon fill="black" stroke="black" points="1195.71,-215.667 1185.89,-219.66 1196.05,-222.659 1195.71,-215.667"/>
<text text-anchor="middle" x="2270" y="-181.8" font-family="Times,serif" font-size="14.00">RESPONSE</text>
</g>
<!-- 10.1.80.247:8080#ServerID_OuterContainerID -->
<g id="node5" class="node"><title>10.1.80.247:8080#ServerID_OuterContainerID</title>
<polygon fill="none" stroke="black" points="343,-247 15.5599,-229 343,-211 670.44,-229 343,-247"/>
<text text-anchor="middle" x="343" y="-225.3" font-family="Times,serif" font-size="14.00">10.1.80.247:8080#ServerID_OuterContainerID</text>
</g>
<!-- 1_fwatchdog#ServerID_6df85d7674&#45;2kqrj&#45;&gt;10.1.80.247:8080#ServerID_OuterContainerID -->
<g id="edge8" class="edge"><title>1_fwatchdog#ServerID_6df85d7674&#45;2kqrj&#45;&gt;10.1.80.247:8080#ServerID_OuterContainerID</title>
<path fill="none" stroke="black" d="M5551.89,-139.103C5517.58,-150.368 5470.08,-164.091 5427,-170 5372.21,-177.516 1500.28,-176.41 1445,-178 1324.86,-181.455 1295.06,-187.483 1175,-193 955.087,-203.106 899.938,-201.454 680,-211 624.765,-213.397 564.455,-216.337 510.318,-219.094"/>
<polygon fill="black" stroke="black" points="510.093,-215.601 500.284,-219.607 510.45,-222.592 510.093,-215.601"/>
<text text-anchor="middle" x="1465" y="-181.8" font-family="Times,serif" font-size="14.00">POST</text>
</g>
<!-- gateway:8080#ServerID_OuterContainerID -->
<g id="node6" class="node"><title>gateway:8080#ServerID_OuterContainerID</title>
<polygon fill="none" stroke="black" points="2371,-247 2066.52,-229 2371,-211 2675.48,-229 2371,-247"/>
<text text-anchor="middle" x="2371" y="-225.3" font-family="Times,serif" font-size="14.00">gateway:8080#ServerID_OuterContainerID</text>
</g>
<!-- 1_fwatchdog#ServerID_6df85d7674&#45;2kqrj&#45;&gt;gateway:8080#ServerID_OuterContainerID -->
<g id="edge7" class="edge"><title>1_fwatchdog#ServerID_6df85d7674&#45;2kqrj&#45;&gt;gateway:8080#ServerID_OuterContainerID</title>
<path fill="none" stroke="black" d="M5551.89,-139.086C5517.57,-150.344 5470.07,-164.064 5427,-170 5358.95,-179.378 3022.63,-174.951 2954,-178 2788.95,-185.332 2598.31,-203.528 2481.21,-215.825"/>
<polygon fill="black" stroke="black" points="2480.74,-212.355 2471.16,-216.885 2481.48,-219.317 2480.74,-212.355"/>
<text text-anchor="middle" x="2974" y="-181.8" font-family="Times,serif" font-size="14.00">POST</text>
</g>
<!-- 10.1.80.247:8080#ServerID_OuterContainerID&#45;&gt;1_fwatchdog#ServerID_6df85d7674&#45;2kqrj -->
<g id="edge3" class="edge"><title>10.1.80.247:8080#ServerID_OuterContainerID&#45;&gt;1_fwatchdog#ServerID_6df85d7674&#45;2kqrj</title>
<path fill="none" stroke="black" d="M463.036,-217.567C610.686,-205.29 869.061,-185.614 1091,-178 1151.19,-175.935 5367.34,-178.18 5427,-170 5466.21,-164.625 5509.08,-152.774 5542.34,-142.194"/>
<polygon fill="black" stroke="black" points="5543.45,-145.511 5551.89,-139.105 5541.3,-138.851 5543.45,-145.511"/>
<text text-anchor="middle" x="1133" y="-181.8" font-family="Times,serif" font-size="14.00">RESPONSE</text>
</g>
<!-- 10.1.80.1:47976#ServerID_OuterContainerID -->
<g id="node18" class="node"><title>10.1.80.1:47976#ServerID_OuterContainerID</title>
<polygon fill="none" stroke="black" points="335,-139 16.1049,-121 335,-103 653.895,-121 335,-139"/>
<text text-anchor="middle" x="335" y="-117.3" font-family="Times,serif" font-size="14.00">10.1.80.1:47976#ServerID_OuterContainerID</text>
</g>
<!-- 10.1.80.247:8080#ServerID_OuterContainerID&#45;&gt;10.1.80.1:47976#ServerID_OuterContainerID -->
<g id="edge26" class="edge"><title>10.1.80.247:8080#ServerID_OuterContainerID&#45;&gt;10.1.80.1:47976#ServerID_OuterContainerID</title>
<path fill="none" stroke="black" d="M306.241,-212.99C298.168,-207.888 290.649,-201.31 286,-193 276.535,-176.082 289.168,-158.121 303.973,-144.497"/>
<polygon fill="black" stroke="black" points="306.482,-146.956 311.807,-137.796 301.932,-141.636 306.482,-146.956"/>
<text text-anchor="middle" x="328" y="-181.8" font-family="Times,serif" font-size="14.00">RESPONSE</text>
</g>
<!-- 10.0.88.125:31112#ServerID_OuterContainerID -->
<g id="node19" class="node"><title>10.0.88.125:31112#ServerID_OuterContainerID</title>
<polygon fill="none" stroke="black" points="1007,-139 671.515,-121 1007,-103 1342.48,-121 1007,-139"/>
<text text-anchor="middle" x="1007" y="-117.3" font-family="Times,serif" font-size="14.00">10.0.88.125:31112#ServerID_OuterContainerID</text>
</g>
<!-- 10.1.80.247:8080#ServerID_OuterContainerID&#45;&gt;10.0.88.125:31112#ServerID_OuterContainerID -->
<g id="edge28" class="edge"><title>10.1.80.247:8080#ServerID_OuterContainerID&#45;&gt;10.0.88.125:31112#ServerID_OuterContainerID</title>
<path fill="none" stroke="black" d="M422.434,-215.319C546.818,-195.463 786.788,-157.154 917.247,-136.328"/>
<polygon fill="black" stroke="black" points="917.893,-139.769 927.216,-134.737 916.789,-132.857 917.893,-139.769"/>
<text text-anchor="middle" x="698" y="-181.8" font-family="Times,serif" font-size="14.00">RESPONSE</text>
</g>
<!-- gateway:8080#ServerID_OuterContainerID&#45;&gt;1_fwatchdog#ServerID_6df85d7674&#45;2kqrj -->
<g id="edge6" class="edge"><title>gateway:8080#ServerID_OuterContainerID&#45;&gt;1_fwatchdog#ServerID_6df85d7674&#45;2kqrj</title>
<path fill="none" stroke="black" d="M2509.24,-219.13C2704.97,-207.044 3074.13,-185.994 3389,-178 3445.59,-176.563 5370.92,-177.748 5427,-170 5466.2,-164.584 5509.07,-152.733 5542.33,-142.163"/>
<polygon fill="black" stroke="black" points="5543.45,-145.481 5551.89,-139.077 5541.29,-138.82 5543.45,-145.481"/>
<text text-anchor="middle" x="3431" y="-181.8" font-family="Times,serif" font-size="14.00">RESPONSE</text>
</g>
<!-- 10_node#ServerID_34e86192c217 -->
<g id="node10" class="node"><title>10_node#ServerID_34e86192c217</title>
<polygon fill="none" stroke="black" points="6668.5,-139 6401.5,-139 6401.5,-103 6668.5,-103 6668.5,-139"/>
<text text-anchor="middle" x="6535" y="-117.3" font-family="Times,serif" font-size="14.00">10_node#ServerID_34e86192c217</text>
</g>
<!-- gateway:8080#ServerID_OuterContainerID&#45;&gt;10_node#ServerID_34e86192c217 -->
<g id="edge25" class="edge"><title>gateway:8080#ServerID_OuterContainerID&#45;&gt;10_node#ServerID_34e86192c217</title>
<path fill="none" stroke="black" d="M2512.81,-219.381C2566.7,-216.352 2628.67,-213.168 2685,-211 3035.05,-197.529 3123.58,-218.065 3473,-193 3528.37,-189.028 3541.59,-181.419 3597,-178 3673.91,-173.254 6294.74,-181.043 6371,-170 6407.96,-164.648 6448.22,-152.954 6479.61,-142.449"/>
<polygon fill="black" stroke="black" points="6481.13,-145.627 6489.47,-139.089 6478.87,-139.001 6481.13,-145.627"/>
<text text-anchor="middle" x="3613.5" y="-181.8" font-family="Times,serif" font-size="14.00">read</text>
</g>
<!-- localhost:3000#ServerID_34e86192c217 -->
<g id="node8" class="node"><title>localhost:3000#ServerID_34e86192c217</title>
<polygon fill="none" stroke="black" points="7476,-247 7189.45,-229 7476,-211 7762.55,-229 7476,-247"/>
<text text-anchor="middle" x="7476" y="-225.3" font-family="Times,serif" font-size="14.00">localhost:3000#ServerID_34e86192c217</text>
</g>
<!-- 1_fwatchdog#ServerID_34e86192c217&#45;&gt;localhost:3000#ServerID_34e86192c217 -->
<g id="edge9" class="edge"><title>1_fwatchdog#ServerID_34e86192c217&#45;&gt;localhost:3000#ServerID_34e86192c217</title>
<path fill="none" stroke="black" d="M7357.56,-318.802C7368.5,-308.902 7382.75,-296.402 7396,-286 7411.39,-273.926 7429.15,-261.362 7444.02,-251.202"/>
<polygon fill="black" stroke="black" points="7446.09,-254.027 7452.41,-245.519 7442.17,-248.232 7446.09,-254.027"/>
<text text-anchor="middle" x="7425" y="-289.8" font-family="Times,serif" font-size="14.00">connect</text>
</g>
<!-- 1_fwatchdog#ServerID_34e86192c217&#45;&gt;localhost:3000#ServerID_34e86192c217 -->
<g id="edge11" class="edge"><title>1_fwatchdog#ServerID_34e86192c217&#45;&gt;localhost:3000#ServerID_34e86192c217</title>
<path fill="none" stroke="black" d="M7427.9,-318.919C7437.53,-314.296 7446.53,-308.433 7454,-301 7465.56,-289.501 7471.07,-272.06 7473.68,-257.342"/>
<polygon fill="black" stroke="black" points="7477.18,-257.624 7475.12,-247.231 7470.24,-256.638 7477.18,-257.624"/>
<text text-anchor="middle" x="7483" y="-289.8" font-family="Times,serif" font-size="14.00">write</text>
</g>
<!-- localhost:3000#ServerID_34e86192c217&#45;&gt;1_fwatchdog#ServerID_34e86192c217 -->
<g id="edge10" class="edge"><title>localhost:3000#ServerID_34e86192c217&#45;&gt;1_fwatchdog#ServerID_34e86192c217</title>
<path fill="none" stroke="black" d="M7406.41,-242.653C7381.68,-250.796 7356.24,-264.144 7341,-286 7336.44,-292.541 7334.89,-300.819 7334.78,-308.747"/>
<polygon fill="black" stroke="black" points="7331.29,-309.001 7335.34,-318.793 7338.28,-308.616 7331.29,-309.001"/>
<text text-anchor="middle" x="7357.5" y="-289.8" font-family="Times,serif" font-size="14.00">read</text>
</g>
<!-- localhost:3000#ServerID_34e86192c217&#45;&gt;10_node#ServerID_34e86192c217 -->
<g id="edge17" class="edge"><title>localhost:3000#ServerID_34e86192c217&#45;&gt;10_node#ServerID_34e86192c217</title>
<path fill="none" stroke="black" d="M7378.84,-217.055C7212.57,-198.325 6872.67,-160.038 6678.84,-138.203"/>
<polygon fill="black" stroke="black" points="6679.19,-134.72 6668.86,-137.079 6678.41,-141.676 6679.19,-134.72"/>
<text text-anchor="middle" x="7160.5" y="-181.8" font-family="Times,serif" font-size="14.00">read</text>
</g>
<!-- /etc/hosts#ServerID_34e86192c217 -->
<g id="node9" class="node"><title>/etc/hosts#ServerID_34e86192c217</title>
<ellipse fill="none" stroke="black" cx="6991" cy="-229" rx="180.068" ry="18"/>
<text text-anchor="middle" x="6991" y="-225.3" font-family="Times,serif" font-size="14.00">/etc/hosts#ServerID_34e86192c217</text>
</g>
<!-- /etc/hosts#ServerID_34e86192c217&#45;&gt;10_node#ServerID_34e86192c217 -->
<g id="edge13" class="edge"><title>/etc/hosts#ServerID_34e86192c217&#45;&gt;10_node#ServerID_34e86192c217</title>
<path fill="none" stroke="black" d="M6923.22,-212.245C6842,-193.364 6705.92,-161.732 6618.35,-141.374"/>
<polygon fill="black" stroke="black" points="6618.98,-137.927 6608.44,-139.072 6617.39,-144.745 6618.98,-137.927"/>
<text text-anchor="middle" x="6846.5" y="-181.8" font-family="Times,serif" font-size="14.00">read</text>
</g>
<!-- 10_node#ServerID_34e86192c217&#45;&gt;gateway:8080#ServerID_OuterContainerID -->
<g id="edge18" class="edge"><title>10_node#ServerID_34e86192c217&#45;&gt;gateway:8080#ServerID_OuterContainerID</title>
<path fill="none" stroke="black" d="M6489.46,-139.069C6456.97,-150.319 6411.95,-164.037 6371,-170 6321.82,-177.161 4631.69,-177.457 4582,-178 4371.2,-180.305 2895.68,-203.467 2685,-211 2631.81,-212.902 2573.58,-215.821 2521.88,-218.707"/>
<polygon fill="black" stroke="black" points="2521.42,-215.227 2511.63,-219.283 2521.81,-222.216 2521.42,-215.227"/>
<text text-anchor="middle" x="4611" y="-181.8" font-family="Times,serif" font-size="14.00">connect</text>
</g>
<!-- 10.152.183.10:53#ServerID_OuterContainerID -->
<g id="node12" class="node"><title>10.152.183.10:53#ServerID_OuterContainerID</title>
<polygon fill="none" stroke="black" points="4399,-247 4071.56,-229 4399,-211 4726.44,-229 4399,-247"/>
<text text-anchor="middle" x="4399" y="-225.3" font-family="Times,serif" font-size="14.00">10.152.183.10:53#ServerID_OuterContainerID</text>
</g>
<!-- 10_node#ServerID_34e86192c217&#45;&gt;10.152.183.10:53#ServerID_OuterContainerID -->
<g id="edge15" class="edge"><title>10_node#ServerID_34e86192c217&#45;&gt;10.152.183.10:53#ServerID_OuterContainerID</title>
<path fill="none" stroke="black" d="M6488.72,-139.047C6456.27,-150.131 6411.6,-163.661 6371,-170 6011.9,-226.073 5099.19,-197.288 4736,-211 4679.65,-213.127 4618.03,-216.059 4563.07,-218.888"/>
<polygon fill="black" stroke="black" points="4562.69,-215.403 4552.89,-219.415 4563.06,-222.393 4562.69,-215.403"/>
<text text-anchor="middle" x="6325.5" y="-181.8" font-family="Times,serif" font-size="14.00">sendto</text>
</g>
<!-- /etc/resolv.conf#ServerID_34e86192c217 -->
<g id="node11" class="node"><title>/etc/resolv.conf#ServerID_34e86192c217</title>
<ellipse fill="none" stroke="black" cx="6588" cy="-229" rx="205.264" ry="18"/>
<text text-anchor="middle" x="6588" y="-225.3" font-family="Times,serif" font-size="14.00">/etc/resolv.conf#ServerID_34e86192c217</text>
</g>
<!-- /etc/resolv.conf#ServerID_34e86192c217&#45;&gt;10_node#ServerID_34e86192c217 -->
<g id="edge14" class="edge"><title>/etc/resolv.conf#ServerID_34e86192c217&#45;&gt;10_node#ServerID_34e86192c217</title>
<path fill="none" stroke="black" d="M6579.48,-210.969C6571.04,-194.071 6557.97,-167.935 6548.18,-148.356"/>
<polygon fill="black" stroke="black" points="6551.27,-146.72 6543.67,-139.341 6545.01,-149.85 6551.27,-146.72"/>
<text text-anchor="middle" x="6585.5" y="-181.8" font-family="Times,serif" font-size="14.00">read</text>
</g>
<!-- 10.1.80.247:38012#ServerID_OuterContainerID -->
<g id="node13" class="node"><title>10.1.80.247:38012#ServerID_OuterContainerID</title>
<polygon fill="none" stroke="black" points="5080,-247 4744.52,-229 5080,-211 5415.48,-229 5080,-247"/>
<text text-anchor="middle" x="5080" y="-225.3" font-family="Times,serif" font-size="14.00">10.1.80.247:38012#ServerID_OuterContainerID</text>
</g>
<!-- 10.1.80.247:38012#ServerID_OuterContainerID&#45;&gt;1_fwatchdog#ServerID_34e86192c217 -->
<g id="edge16" class="edge"><title>10.1.80.247:38012#ServerID_OuterContainerID&#45;&gt;1_fwatchdog#ServerID_34e86192c217</title>
<path fill="none" stroke="black" d="M5249.36,-237.947C5671.74,-257.766 6767.33,-309.175 7179.27,-328.505"/>
<polygon fill="black" stroke="black" points="7179.32,-332.011 7189.47,-328.984 7179.64,-325.019 7179.32,-332.011"/>
<text text-anchor="middle" x="6559.5" y="-289.8" font-family="Times,serif" font-size="14.00">read</text>
</g>
<!-- localhost:3000#ServerID_e56b6537e2d5 -->
<g id="node15" class="node"><title>localhost:3000#ServerID_e56b6537e2d5</title>
<polygon fill="none" stroke="black" points="6072,-52 5785.45,-34 6072,-16 6358.55,-34 6072,-52"/>
<text text-anchor="middle" x="6072" y="-30.3" font-family="Times,serif" font-size="14.00">localhost:3000#ServerID_e56b6537e2d5</text>
</g>
<!-- 1_fwatchdog#ServerID_e56b6537e2d5&#45;&gt;localhost:3000#ServerID_e56b6537e2d5 -->
<g id="edge19" class="edge"><title>1_fwatchdog#ServerID_e56b6537e2d5&#45;&gt;localhost:3000#ServerID_e56b6537e2d5</title>
<path fill="none" stroke="black" d="M5929.08,-102.538C5926.7,-92.0555 5925.95,-79.0447 5933,-70 5939.8,-61.2803 5958.62,-54.3972 5980.3,-49.1263"/>
<polygon fill="black" stroke="black" points="5981.12,-52.5305 5990.09,-46.8914 5979.56,-45.7062 5981.12,-52.5305"/>
<text text-anchor="middle" x="5962" y="-73.8" font-family="Times,serif" font-size="14.00">connect</text>
</g>
<!-- 1_fwatchdog#ServerID_e56b6537e2d5&#45;&gt;localhost:3000#ServerID_e56b6537e2d5 -->
<g id="edge21" class="edge"><title>1_fwatchdog#ServerID_e56b6537e2d5&#45;&gt;localhost:3000#ServerID_e56b6537e2d5</title>
<path fill="none" stroke="black" d="M5963.59,-102.967C5972.51,-97.4357 5982.28,-91.1382 5991,-85 5999.8,-78.8063 6001.07,-75.9957 6010,-70 6017.53,-64.9452 6025.84,-59.9124 6033.86,-55.3043"/>
<polygon fill="black" stroke="black" points="6035.74,-58.2613 6042.74,-50.3037 6032.31,-52.1625 6035.74,-58.2613"/>
<text text-anchor="middle" x="6029" y="-73.8" font-family="Times,serif" font-size="14.00">write</text>
</g>
<!-- localhost:3000#ServerID_e56b6537e2d5&#45;&gt;1_fwatchdog#ServerID_e56b6537e2d5 -->
<g id="edge20" class="edge"><title>localhost:3000#ServerID_e56b6537e2d5&#45;&gt;1_fwatchdog#ServerID_e56b6537e2d5</title>
<path fill="none" stroke="black" d="M6069.12,-52.0048C6066.44,-62.8467 6061.39,-76.4219 6052,-85 6046.41,-90.1136 6040.09,-94.4815 6033.37,-98.2123"/>
<polygon fill="black" stroke="black" points="6031.35,-95.3082 6023.98,-102.915 6034.48,-101.567 6031.35,-95.3082"/>
<text text-anchor="middle" x="6079.5" y="-73.8" font-family="Times,serif" font-size="14.00">read</text>
</g>
<!-- 10.1.80.247:40020#ServerID_OuterContainerID -->
<g id="node16" class="node"><title>10.1.80.247:40020#ServerID_OuterContainerID</title>
<polygon fill="none" stroke="black" points="3718,-247 3382.52,-229 3718,-211 4053.48,-229 3718,-247"/>
<text text-anchor="middle" x="3718" y="-225.3" font-family="Times,serif" font-size="14.00">10.1.80.247:40020#ServerID_OuterContainerID</text>
</g>
<!-- 10.1.80.247:40020#ServerID_OuterContainerID&#45;&gt;1_fwatchdog#ServerID_e56b6537e2d5 -->
<g id="edge23" class="edge"><title>10.1.80.247:40020#ServerID_OuterContainerID&#45;&gt;1_fwatchdog#ServerID_e56b6537e2d5</title>
<path fill="none" stroke="black" d="M3875.11,-219.42C3934.03,-216.423 4001.57,-213.249 4063,-211 4442.85,-197.09 5397.51,-229.062 5773,-170 5809.21,-164.304 5848.68,-152.73 5879.59,-142.374"/>
<polygon fill="black" stroke="black" points="5880.97,-145.601 5889.31,-139.064 5878.71,-138.975 5880.97,-145.601"/>
<text text-anchor="middle" x="5716.5" y="-181.8" font-family="Times,serif" font-size="14.00">read</text>
</g>
<!-- 10.1.80.247:40022#ServerID_OuterContainerID -->
<g id="node17" class="node"><title>10.1.80.247:40022#ServerID_OuterContainerID</title>
<polygon fill="none" stroke="black" points="1713,-247 1377.52,-229 1713,-211 2048.48,-229 1713,-247"/>
<text text-anchor="middle" x="1713" y="-225.3" font-family="Times,serif" font-size="14.00">10.1.80.247:40022#ServerID_OuterContainerID</text>
</g>
<!-- 10.1.80.247:40022#ServerID_OuterContainerID&#45;&gt;1_fwatchdog#ServerID_e56b6537e2d5 -->
<g id="edge24" class="edge"><title>10.1.80.247:40022#ServerID_OuterContainerID&#45;&gt;1_fwatchdog#ServerID_e56b6537e2d5</title>
<path fill="none" stroke="black" d="M1854.92,-218.601C2045.46,-206.476 2394.55,-185.996 2693,-178 2778.53,-175.709 5688.35,-182.39 5773,-170 5809.54,-164.653 5849.31,-152.959 5880.3,-142.453"/>
<polygon fill="black" stroke="black" points="5881.73,-145.663 5890.04,-139.093 5879.45,-139.045 5881.73,-145.663"/>
<text text-anchor="middle" x="2709.5" y="-181.8" font-family="Times,serif" font-size="14.00">read</text>
</g>
<!-- 10.1.80.1:47976#ServerID_OuterContainerID&#45;&gt;10.1.80.247:8080#ServerID_OuterContainerID -->
<g id="edge27" class="edge"><title>10.1.80.1:47976#ServerID_OuterContainerID&#45;&gt;10.1.80.247:8080#ServerID_OuterContainerID</title>
<path fill="none" stroke="black" d="M348.743,-138.449C356.653,-149.019 365.828,-163.453 370,-178 371.838,-184.408 372.151,-186.69 370,-193 368.79,-196.55 367.057,-200.021 365.047,-203.312"/>
<polygon fill="black" stroke="black" points="362.147,-201.351 359.24,-211.54 367.866,-205.387 362.147,-201.351"/>
<text text-anchor="middle" x="392" y="-181.8" font-family="Times,serif" font-size="14.00">POST</text>
</g>
</g>
</svg>
