<?xml version="1.0" encoding="UTF-8" standalone="no"?>
<!DOCTYPE svg PUBLIC "-//W3C//DTD SVG 1.1//EN"
 "http://www.w3.org/Graphics/SVG/1.1/DTD/svg11.dtd">
<!-- Generated by graphviz version 2.38.0 (20140413.2041)
 -->
<!-- Title: G Pages: 1 -->
<svg width="4769pt" height="597pt"
 viewBox="0.00 0.00 4769.00 597.00" xmlns="http://www.w3.org/2000/svg" xmlns:xlink="http://www.w3.org/1999/xlink">
<g id="graph0" class="graph" transform="scale(1 1) rotate(0) translate(4 593)">
<title>G</title>
<polygon fill="white" stroke="none" points="-4,4 -4,-593 4765,-593 4765,4 -4,4"/>
<g id="clust1" class="cluster"><title>clusterServerID_34e86192c217</title>
<polygon fill="none" stroke="black" points="1705,-398 1705,-581 2827,-581 2827,-398 1705,-398"/>
<text text-anchor="middle" x="2266" y="-565.8" font-family="Times,serif" font-size="14.00">clusterServerID_34e86192c217</text>
</g>
<g id="clust2" class="cluster"><title>clusterServerID_5f846fd567&#45;w7nbt</title>
<polygon fill="none" stroke="black" points="3363,-182 3363,-257 3703,-257 3703,-182 3363,-182"/>
<text text-anchor="middle" x="3533" y="-241.8" font-family="Times,serif" font-size="14.00">clusterServerID_5f846fd567&#45;w7nbt</text>
</g>
<g id="clust3" class="cluster"><title>clusterServerID_6df85d7674&#45;2kqrj</title>
<polygon fill="none" stroke="black" points="822,-398 822,-473 1160,-473 1160,-398 822,-398"/>
<text text-anchor="middle" x="991" y="-457.8" font-family="Times,serif" font-size="14.00">clusterServerID_6df85d7674&#45;2kqrj</text>
</g>
<g id="clust4" class="cluster"><title>clusterServerID_OuterContainerID</title>
<polygon fill="none" stroke="black" points="8,-182 8,-365 3355,-365 3355,-182 8,-182"/>
<text text-anchor="middle" x="1681.5" y="-349.8" font-family="Times,serif" font-size="14.00">clusterServerID_OuterContainerID</text>
</g>
<g id="clust5" class="cluster"><title>clusterServerID_e56b6537e2d5</title>
<polygon fill="none" stroke="black" points="3711,-8 3711,-257 4753,-257 4753,-8 3711,-8"/>
<text text-anchor="middle" x="4232" y="-241.8" font-family="Times,serif" font-size="14.00">clusterServerID_e56b6537e2d5</text>
</g>
<!-- gateway:8080#ServerID_OuterContainerID -->
<g id="node1" class="node"><title>gateway:8080#ServerID_OuterContainerID</title>
<polygon fill="none" stroke="black" points="992,-334 687.518,-316 992,-298 1296.48,-316 992,-334"/>
<text text-anchor="middle" x="992" y="-312.3" font-family="Times,serif" font-size="14.00">gateway:8080#ServerID_OuterContainerID</text>
</g>
<!-- 1_fwatchdog#ServerID_6df85d7674&#45;2kqrj -->
<g id="node2" class="node"><title>1_fwatchdog#ServerID_6df85d7674&#45;2kqrj</title>
<polygon fill="none" stroke="black" points="1151.5,-442 830.5,-442 830.5,-406 1151.5,-406 1151.5,-442"/>
<text text-anchor="middle" x="991" y="-420.3" font-family="Times,serif" font-size="14.00">1_fwatchdog#ServerID_6df85d7674&#45;2kqrj</text>
</g>
<!-- gateway:8080#ServerID_OuterContainerID&#45;&gt;1_fwatchdog#ServerID_6df85d7674&#45;2kqrj -->
<g id="edge1" class="edge"><title>gateway:8080#ServerID_OuterContainerID&#45;&gt;1_fwatchdog#ServerID_6df85d7674&#45;2kqrj</title>
<path fill="none" stroke="black" d="M970.527,-332.827C958.796,-342.863 945.388,-356.957 939,-373 936.534,-379.194 935.867,-382.115 939,-388 941.188,-392.11 944.096,-395.823 947.424,-399.158"/>
<polygon fill="black" stroke="black" points="945.386,-402.021 955.261,-405.861 949.937,-396.701 945.386,-402.021"/>
<text text-anchor="middle" x="981" y="-376.8" font-family="Times,serif" font-size="14.00">RESPONSE</text>
</g>
<!-- 1_fwatchdog#ServerID_6df85d7674&#45;2kqrj&#45;&gt;gateway:8080#ServerID_OuterContainerID -->
<g id="edge7" class="edge"><title>1_fwatchdog#ServerID_6df85d7674&#45;2kqrj&#45;&gt;gateway:8080#ServerID_OuterContainerID</title>
<path fill="none" stroke="black" d="M1011.2,-405.928C1015.99,-400.716 1020.44,-394.601 1023,-388 1029.07,-372.366 1021.87,-355.119 1012.89,-341.538"/>
<polygon fill="black" stroke="black" points="1015.55,-339.245 1006.86,-333.197 1009.88,-343.349 1015.55,-339.245"/>
<text text-anchor="middle" x="1046" y="-376.8" font-family="Times,serif" font-size="14.00">POST</text>
</g>
<!-- 10.1.80.247:38172#ServerID_OuterContainerID -->
<g id="node3" class="node"><title>10.1.80.247:38172#ServerID_OuterContainerID</title>
<polygon fill="none" stroke="black" points="1650,-334 1314.52,-316 1650,-298 1985.48,-316 1650,-334"/>
<text text-anchor="middle" x="1650" y="-312.3" font-family="Times,serif" font-size="14.00">10.1.80.247:38172#ServerID_OuterContainerID</text>
</g>
<!-- 1_fwatchdog#ServerID_6df85d7674&#45;2kqrj&#45;&gt;10.1.80.247:38172#ServerID_OuterContainerID -->
<g id="edge8" class="edge"><title>1_fwatchdog#ServerID_6df85d7674&#45;2kqrj&#45;&gt;10.1.80.247:38172#ServerID_OuterContainerID</title>
<path fill="none" stroke="black" d="M1151.5,-411.582C1212.34,-406.089 1282.09,-398.387 1345,-388 1430.11,-373.948 1526.88,-350.04 1588.17,-333.892"/>
<polygon fill="black" stroke="black" points="1589.29,-337.214 1598.06,-331.27 1587.5,-330.448 1589.29,-337.214"/>
<text text-anchor="middle" x="1463" y="-376.8" font-family="Times,serif" font-size="14.00">RESPONSE</text>
</g>
<!-- 10.1.80.247:8080#ServerID_OuterContainerID -->
<g id="node6" class="node"><title>10.1.80.247:8080#ServerID_OuterContainerID</title>
<polygon fill="none" stroke="black" points="343,-334 15.5599,-316 343,-298 670.44,-316 343,-334"/>
<text text-anchor="middle" x="343" y="-312.3" font-family="Times,serif" font-size="14.00">10.1.80.247:8080#ServerID_OuterContainerID</text>
</g>
<!-- 1_fwatchdog#ServerID_6df85d7674&#45;2kqrj&#45;&gt;10.1.80.247:8080#ServerID_OuterContainerID -->
<g id="edge5" class="edge"><title>1_fwatchdog#ServerID_6df85d7674&#45;2kqrj&#45;&gt;10.1.80.247:8080#ServerID_OuterContainerID</title>
<path fill="none" stroke="black" d="M886.888,-405.969C760.524,-385.299 549.669,-350.807 431.034,-331.401"/>
<polygon fill="black" stroke="black" points="431.334,-327.903 420.9,-329.743 430.203,-334.811 431.334,-327.903"/>
<text text-anchor="middle" x="783" y="-376.8" font-family="Times,serif" font-size="14.00">POST</text>
</g>
<!-- 10.1.80.247:38172#ServerID_OuterContainerID&#45;&gt;1_fwatchdog#ServerID_6df85d7674&#45;2kqrj -->
<g id="edge2" class="edge"><title>10.1.80.247:38172#ServerID_OuterContainerID&#45;&gt;1_fwatchdog#ServerID_6df85d7674&#45;2kqrj</title>
<path fill="none" stroke="black" d="M1570.29,-329.822C1454.79,-348.4 1240.2,-382.916 1107.11,-404.323"/>
<polygon fill="black" stroke="black" points="1106.2,-400.926 1096.88,-405.969 1107.31,-407.837 1106.2,-400.926"/>
<text text-anchor="middle" x="1321" y="-376.8" font-family="Times,serif" font-size="14.00">POST</text>
</g>
<!-- 1_fwatchdog#ServerID_34e86192c217 -->
<g id="node7" class="node"><title>1_fwatchdog#ServerID_34e86192c217</title>
<polygon fill="none" stroke="black" points="2818.5,-550 2519.5,-550 2519.5,-514 2818.5,-514 2818.5,-550"/>
<text text-anchor="middle" x="2669" y="-528.3" font-family="Times,serif" font-size="14.00">1_fwatchdog#ServerID_34e86192c217</text>
</g>
<!-- 10.1.80.247:38172#ServerID_OuterContainerID&#45;&gt;1_fwatchdog#ServerID_34e86192c217 -->
<g id="edge10" class="edge"><title>10.1.80.247:38172#ServerID_OuterContainerID&#45;&gt;1_fwatchdog#ServerID_34e86192c217</title>
<path fill="none" stroke="black" d="M1724.07,-330.079C1793.74,-341.719 1901.08,-357.96 1995,-365 2033.95,-367.919 2661.14,-360.074 2698,-373 2742.04,-388.443 2748.4,-430.116 2730,-473 2724.25,-486.4 2713.72,-498.166 2703,-507.535"/>
<polygon fill="black" stroke="black" points="2700.73,-504.869 2695.23,-513.923 2705.18,-510.276 2700.73,-504.869"/>
<text text-anchor="middle" x="2756.5" y="-420.3" font-family="Times,serif" font-size="14.00">read</text>
</g>
<!-- 10.1.80.247:40160#ServerID_OuterContainerID -->
<g id="node4" class="node"><title>10.1.80.247:40160#ServerID_OuterContainerID</title>
<polygon fill="none" stroke="black" points="2339,-334 2003.52,-316 2339,-298 2674.48,-316 2339,-334"/>
<text text-anchor="middle" x="2339" y="-312.3" font-family="Times,serif" font-size="14.00">10.1.80.247:40160#ServerID_OuterContainerID</text>
</g>
<!-- 1_fwatchdog#ServerID_5f846fd567&#45;w7nbt -->
<g id="node5" class="node"><title>1_fwatchdog#ServerID_5f846fd567&#45;w7nbt</title>
<polygon fill="none" stroke="black" points="3695,-226 3371,-226 3371,-190 3695,-190 3695,-226"/>
<text text-anchor="middle" x="3533" y="-204.3" font-family="Times,serif" font-size="14.00">1_fwatchdog#ServerID_5f846fd567&#45;w7nbt</text>
</g>
<!-- 10.1.80.247:40160#ServerID_OuterContainerID&#45;&gt;1_fwatchdog#ServerID_5f846fd567&#45;w7nbt -->
<g id="edge3" class="edge"><title>10.1.80.247:40160#ServerID_OuterContainerID&#45;&gt;1_fwatchdog#ServerID_5f846fd567&#45;w7nbt</title>
<path fill="none" stroke="black" d="M2476.08,-305.322C2635.18,-294.344 2905.48,-276.482 3138,-265 3236.17,-260.153 3261.86,-271.948 3359,-257 3397.9,-251.014 3440.52,-239.347 3473.83,-229.015"/>
<polygon fill="black" stroke="black" points="3474.93,-232.34 3483.42,-226.001 3472.83,-225.663 3474.93,-232.34"/>
<text text-anchor="middle" x="3158" y="-268.8" font-family="Times,serif" font-size="14.00">POST</text>
</g>
<!-- 1_fwatchdog#ServerID_e56b6537e2d5 -->
<g id="node13" class="node"><title>1_fwatchdog#ServerID_e56b6537e2d5</title>
<polygon fill="none" stroke="black" points="4155.5,-226 3856.5,-226 3856.5,-190 4155.5,-190 4155.5,-226"/>
<text text-anchor="middle" x="4006" y="-204.3" font-family="Times,serif" font-size="14.00">1_fwatchdog#ServerID_e56b6537e2d5</text>
</g>
<!-- 10.1.80.247:40160#ServerID_OuterContainerID&#45;&gt;1_fwatchdog#ServerID_e56b6537e2d5 -->
<g id="edge17" class="edge"><title>10.1.80.247:40160#ServerID_OuterContainerID&#45;&gt;1_fwatchdog#ServerID_e56b6537e2d5</title>
<path fill="none" stroke="black" d="M2496.54,-306.44C2555.36,-303.454 2622.72,-300.283 2684,-298 3138.72,-281.06 3255.06,-309.944 3707,-257 3772.39,-249.339 3845.36,-237.687 3902.84,-227.782"/>
<polygon fill="black" stroke="black" points="3903.76,-231.174 3913.02,-226.018 3902.57,-224.277 3903.76,-231.174"/>
<text text-anchor="middle" x="3646.5" y="-268.8" font-family="Times,serif" font-size="14.00">read</text>
</g>
<!-- 1_fwatchdog#ServerID_5f846fd567&#45;w7nbt&#45;&gt;10.1.80.247:40160#ServerID_OuterContainerID -->
<g id="edge4" class="edge"><title>1_fwatchdog#ServerID_5f846fd567&#45;w7nbt&#45;&gt;10.1.80.247:40160#ServerID_OuterContainerID</title>
<path fill="none" stroke="black" d="M3479.01,-226.039C3444.89,-236.27 3399.71,-248.841 3359,-257 3064.31,-316.057 2984.28,-285.132 2684,-298 2627.46,-300.423 2565.71,-303.37 2510.29,-306.125"/>
<polygon fill="black" stroke="black" points="2509.83,-302.644 2500.02,-306.637 2510.18,-309.635 2509.83,-302.644"/>
<text text-anchor="middle" x="3351" y="-268.8" font-family="Times,serif" font-size="14.00">RESPONSE</text>
</g>
<!-- 10.1.80.247:8080#ServerID_OuterContainerID&#45;&gt;1_fwatchdog#ServerID_6df85d7674&#45;2kqrj -->
<g id="edge6" class="edge"><title>10.1.80.247:8080#ServerID_OuterContainerID&#45;&gt;1_fwatchdog#ServerID_6df85d7674&#45;2kqrj</title>
<path fill="none" stroke="black" d="M386.379,-331.636C436.852,-348.053 522.991,-374.185 599,-388 670.923,-401.073 751.196,-409.332 820.277,-414.517"/>
<polygon fill="black" stroke="black" points="820.157,-418.018 830.386,-415.26 820.67,-411.037 820.157,-418.018"/>
<text text-anchor="middle" x="641" y="-376.8" font-family="Times,serif" font-size="14.00">RESPONSE</text>
</g>
<!-- 10.1.80.1:50572#ServerID_OuterContainerID -->
<g id="node17" class="node"><title>10.1.80.1:50572#ServerID_OuterContainerID</title>
<polygon fill="none" stroke="black" points="335,-226 16.1049,-208 335,-190 653.895,-208 335,-226"/>
<text text-anchor="middle" x="335" y="-204.3" font-family="Times,serif" font-size="14.00">10.1.80.1:50572#ServerID_OuterContainerID</text>
</g>
<!-- 10.1.80.247:8080#ServerID_OuterContainerID&#45;&gt;10.1.80.1:50572#ServerID_OuterContainerID -->
<g id="edge21" class="edge"><title>10.1.80.247:8080#ServerID_OuterContainerID&#45;&gt;10.1.80.1:50572#ServerID_OuterContainerID</title>
<path fill="none" stroke="black" d="M306.241,-299.99C298.168,-294.888 290.649,-288.31 286,-280 276.535,-263.082 289.168,-245.121 303.973,-231.497"/>
<polygon fill="black" stroke="black" points="306.482,-233.956 311.807,-224.796 301.932,-228.636 306.482,-233.956"/>
<text text-anchor="middle" x="328" y="-268.8" font-family="Times,serif" font-size="14.00">RESPONSE</text>
</g>
<!-- 10.0.88.125:31112#ServerID_OuterContainerID -->
<g id="node18" class="node"><title>10.0.88.125:31112#ServerID_OuterContainerID</title>
<polygon fill="none" stroke="black" points="1007,-226 671.515,-208 1007,-190 1342.48,-208 1007,-226"/>
<text text-anchor="middle" x="1007" y="-204.3" font-family="Times,serif" font-size="14.00">10.0.88.125:31112#ServerID_OuterContainerID</text>
</g>
<!-- 10.1.80.247:8080#ServerID_OuterContainerID&#45;&gt;10.0.88.125:31112#ServerID_OuterContainerID -->
<g id="edge22" class="edge"><title>10.1.80.247:8080#ServerID_OuterContainerID&#45;&gt;10.0.88.125:31112#ServerID_OuterContainerID</title>
<path fill="none" stroke="black" d="M422.434,-302.319C546.818,-282.463 786.788,-244.154 917.247,-223.328"/>
<polygon fill="black" stroke="black" points="917.893,-226.769 927.216,-221.737 916.789,-219.857 917.893,-226.769"/>
<text text-anchor="middle" x="698" y="-268.8" font-family="Times,serif" font-size="14.00">RESPONSE</text>
</g>
<!-- localhost:3000#ServerID_34e86192c217 -->
<g id="node8" class="node"><title>localhost:3000#ServerID_34e86192c217</title>
<polygon fill="none" stroke="black" points="2434,-442 2147.45,-424 2434,-406 2720.55,-424 2434,-442"/>
<text text-anchor="middle" x="2434" y="-420.3" font-family="Times,serif" font-size="14.00">localhost:3000#ServerID_34e86192c217</text>
</g>
<!-- 1_fwatchdog#ServerID_34e86192c217&#45;&gt;localhost:3000#ServerID_34e86192c217 -->
<g id="edge9" class="edge"><title>1_fwatchdog#ServerID_34e86192c217&#45;&gt;localhost:3000#ServerID_34e86192c217</title>
<path fill="none" stroke="black" d="M2631.24,-513.969C2588.94,-494.886 2520.52,-464.024 2476.4,-444.127"/>
<polygon fill="black" stroke="black" points="2477.66,-440.854 2467.11,-439.933 2474.78,-447.235 2477.66,-440.854"/>
<text text-anchor="middle" x="2606" y="-484.8" font-family="Times,serif" font-size="14.00">write</text>
</g>
<!-- 10_node#ServerID_34e86192c217 -->
<g id="node9" class="node"><title>10_node#ServerID_34e86192c217</title>
<polygon fill="none" stroke="black" points="2129.5,-442 1862.5,-442 1862.5,-406 2129.5,-406 2129.5,-442"/>
<text text-anchor="middle" x="1996" y="-420.3" font-family="Times,serif" font-size="14.00">10_node#ServerID_34e86192c217</text>
</g>
<!-- 10_node#ServerID_34e86192c217&#45;&gt;gateway:8080#ServerID_OuterContainerID -->
<g id="edge15" class="edge"><title>10_node#ServerID_34e86192c217&#45;&gt;gateway:8080#ServerID_OuterContainerID</title>
<path fill="none" stroke="black" d="M1862.36,-406.991C1764.62,-395.841 1628.75,-381.499 1509,-373 1418.93,-366.608 1395.88,-373.613 1306,-365 1225.75,-357.31 1134.77,-342.751 1071.47,-331.676"/>
<polygon fill="black" stroke="black" points="1072.02,-328.217 1061.56,-329.93 1070.8,-335.111 1072.02,-328.217"/>
<text text-anchor="middle" x="1713" y="-376.8" font-family="Times,serif" font-size="14.00">connect</text>
</g>
<!-- 10.152.183.10:53#ServerID_OuterContainerID -->
<g id="node10" class="node"><title>10.152.183.10:53#ServerID_OuterContainerID</title>
<polygon fill="none" stroke="black" points="3020,-334 2692.56,-316 3020,-298 3347.44,-316 3020,-334"/>
<text text-anchor="middle" x="3020" y="-312.3" font-family="Times,serif" font-size="14.00">10.152.183.10:53#ServerID_OuterContainerID</text>
</g>
<!-- 10_node#ServerID_34e86192c217&#45;&gt;10.152.183.10:53#ServerID_OuterContainerID -->
<g id="edge11" class="edge"><title>10_node#ServerID_34e86192c217&#45;&gt;10.152.183.10:53#ServerID_OuterContainerID</title>
<path fill="none" stroke="black" d="M2085.19,-405.964C2102.65,-403.006 2120.87,-400.183 2138,-398 2277.31,-380.249 2312.79,-380.998 2453,-373 2555.12,-367.175 2581.11,-374.002 2683,-365 2769.37,-357.369 2867.43,-342.719 2935.42,-331.601"/>
<polygon fill="black" stroke="black" points="2936.34,-334.996 2945.64,-329.918 2935.21,-328.089 2936.34,-334.996"/>
<text text-anchor="middle" x="2477.5" y="-376.8" font-family="Times,serif" font-size="14.00">sendto</text>
</g>
<!-- 10.152.183.10:53#ServerID_OuterContainerID&#45;&gt;10_node#ServerID_34e86192c217 -->
<g id="edge14" class="edge"><title>10.152.183.10:53#ServerID_OuterContainerID&#45;&gt;10_node#ServerID_34e86192c217</title>
<path fill="none" stroke="black" d="M2935.57,-329.386C2867.43,-339.294 2769.1,-353.399 2683,-365 2602.63,-375.829 2582.85,-381.768 2502,-388 2340.64,-400.438 2299.02,-381.703 2138,-398 2122.78,-399.54 2106.73,-401.77 2091.12,-404.272"/>
<polygon fill="black" stroke="black" points="2090.24,-400.871 2080.94,-405.951 2091.38,-407.777 2090.24,-400.871"/>
<text text-anchor="middle" x="2661" y="-376.8" font-family="Times,serif" font-size="14.00">recvfrom</text>
</g>
<!-- /etc/resolv.conf#ServerID_34e86192c217 -->
<g id="node11" class="node"><title>/etc/resolv.conf#ServerID_34e86192c217</title>
<ellipse fill="none" stroke="black" cx="2296" cy="-532" rx="205.264" ry="18"/>
<text text-anchor="middle" x="2296" y="-528.3" font-family="Times,serif" font-size="14.00">/etc/resolv.conf#ServerID_34e86192c217</text>
</g>
<!-- /etc/resolv.conf#ServerID_34e86192c217&#45;&gt;10_node#ServerID_34e86192c217 -->
<g id="edge12" class="edge"><title>/etc/resolv.conf#ServerID_34e86192c217&#45;&gt;10_node#ServerID_34e86192c217</title>
<path fill="none" stroke="black" d="M2249.12,-514.438C2196.47,-495.833 2110.96,-465.618 2054.1,-445.529"/>
<polygon fill="black" stroke="black" points="2055.13,-442.18 2044.53,-442.149 2052.8,-448.78 2055.13,-442.18"/>
<text text-anchor="middle" x="2207.5" y="-484.8" font-family="Times,serif" font-size="14.00">read</text>
</g>
<!-- /etc/hosts#ServerID_34e86192c217 -->
<g id="node12" class="node"><title>/etc/hosts#ServerID_34e86192c217</title>
<ellipse fill="none" stroke="black" cx="1893" cy="-532" rx="180.068" ry="18"/>
<text text-anchor="middle" x="1893" y="-528.3" font-family="Times,serif" font-size="14.00">/etc/hosts#ServerID_34e86192c217</text>
</g>
<!-- /etc/hosts#ServerID_34e86192c217&#45;&gt;10_node#ServerID_34e86192c217 -->
<g id="edge13" class="edge"><title>/etc/hosts#ServerID_34e86192c217&#45;&gt;10_node#ServerID_34e86192c217</title>
<path fill="none" stroke="black" d="M1909.55,-513.969C1926.42,-496.61 1952.76,-469.503 1971.93,-449.769"/>
<polygon fill="black" stroke="black" points="1974.69,-451.952 1979.15,-442.341 1969.67,-447.073 1974.69,-451.952"/>
<text text-anchor="middle" x="1958.5" y="-484.8" font-family="Times,serif" font-size="14.00">read</text>
</g>
<!-- localhost:3000#ServerID_e56b6537e2d5 -->
<g id="node14" class="node"><title>localhost:3000#ServerID_e56b6537e2d5</title>
<polygon fill="none" stroke="black" points="4006,-139 3719.45,-121 4006,-103 4292.55,-121 4006,-139"/>
<text text-anchor="middle" x="4006" y="-117.3" font-family="Times,serif" font-size="14.00">localhost:3000#ServerID_e56b6537e2d5</text>
</g>
<!-- 1_fwatchdog#ServerID_e56b6537e2d5&#45;&gt;localhost:3000#ServerID_e56b6537e2d5 -->
<g id="edge16" class="edge"><title>1_fwatchdog#ServerID_e56b6537e2d5&#45;&gt;localhost:3000#ServerID_e56b6537e2d5</title>
<path fill="none" stroke="black" d="M4009.79,-189.906C4011.5,-180.26 4012.93,-167.976 4012,-157 4011.78,-154.42 4011.47,-151.745 4011.11,-149.074"/>
<polygon fill="black" stroke="black" points="4014.54,-148.344 4009.51,-139.015 4007.62,-149.44 4014.54,-148.344"/>
<text text-anchor="middle" x="4031" y="-160.8" font-family="Times,serif" font-size="14.00">write</text>
</g>
<!-- pipe:[331682317]#ServerID_e56b6537e2d5 -->
<g id="node15" class="node"><title>pipe:[331682317]#ServerID_e56b6537e2d5</title>
<ellipse fill="none" stroke="black" cx="4528" cy="-121" rx="217.162" ry="18"/>
<text text-anchor="middle" x="4528" y="-117.3" font-family="Times,serif" font-size="14.00">pipe:[331682317]#ServerID_e56b6537e2d5</text>
</g>
<!-- 1_fwatchdog#ServerID_e56b6537e2d5&#45;&gt;pipe:[331682317]#ServerID_e56b6537e2d5 -->
<g id="edge19" class="edge"><title>1_fwatchdog#ServerID_e56b6537e2d5&#45;&gt;pipe:[331682317]#ServerID_e56b6537e2d5</title>
<path fill="none" stroke="black" d="M4110.69,-189.952C4201.77,-175.121 4333.06,-153.743 4423.95,-138.943"/>
<polygon fill="black" stroke="black" points="4424.69,-142.368 4434,-137.307 4423.57,-135.459 4424.69,-142.368"/>
<text text-anchor="middle" x="4317" y="-160.8" font-family="Times,serif" font-size="14.00">write</text>
</g>
<!-- localhost:3000#ServerID_e56b6537e2d5&#45;&gt;1_fwatchdog#ServerID_e56b6537e2d5 -->
<g id="edge18" class="edge"><title>localhost:3000#ServerID_e56b6537e2d5&#45;&gt;1_fwatchdog#ServerID_e56b6537e2d5</title>
<path fill="none" stroke="black" d="M3987.39,-138.091C3982.4,-143.533 3977.65,-150.017 3975,-157 3971.76,-165.556 3974.58,-174.248 3979.62,-181.932"/>
<polygon fill="black" stroke="black" points="3976.87,-184.092 3985.78,-189.82 3982.38,-179.784 3976.87,-184.092"/>
<text text-anchor="middle" x="3991.5" y="-160.8" font-family="Times,serif" font-size="14.00">read</text>
</g>
<!-- 12_node#ServerID_e56b6537e2d5 -->
<g id="node16" class="node"><title>12_node#ServerID_e56b6537e2d5</title>
<polygon fill="none" stroke="black" points="4139.5,-52 3872.5,-52 3872.5,-16 4139.5,-16 4139.5,-52"/>
<text text-anchor="middle" x="4006" y="-30.3" font-family="Times,serif" font-size="14.00">12_node#ServerID_e56b6537e2d5</text>
</g>
<!-- localhost:3000#ServerID_e56b6537e2d5&#45;&gt;12_node#ServerID_e56b6537e2d5 -->
<g id="edge20" class="edge"><title>localhost:3000#ServerID_e56b6537e2d5&#45;&gt;12_node#ServerID_e56b6537e2d5</title>
<path fill="none" stroke="black" d="M4006,-102.799C4006,-91.1626 4006,-75.5479 4006,-62.2368"/>
<polygon fill="black" stroke="black" points="4009.5,-62.1754 4006,-52.1754 4002.5,-62.1755 4009.5,-62.1754"/>
<text text-anchor="middle" x="4022.5" y="-73.8" font-family="Times,serif" font-size="14.00">read</text>
</g>
<!-- 10.1.80.1:50572#ServerID_OuterContainerID&#45;&gt;10.1.80.247:8080#ServerID_OuterContainerID -->
<g id="edge23" class="edge"><title>10.1.80.1:50572#ServerID_OuterContainerID&#45;&gt;10.1.80.247:8080#ServerID_OuterContainerID</title>
<path fill="none" stroke="black" d="M348.743,-225.449C356.653,-236.019 365.828,-250.453 370,-265 371.838,-271.408 372.151,-273.69 370,-280 368.79,-283.55 367.057,-287.021 365.047,-290.312"/>
<polygon fill="black" stroke="black" points="362.147,-288.351 359.24,-298.54 367.866,-292.387 362.147,-288.351"/>
<text text-anchor="middle" x="392" y="-268.8" font-family="Times,serif" font-size="14.00">POST</text>
</g>
</g>
</svg>
