<?xml version="1.0" encoding="UTF-8" standalone="no"?>
<!DOCTYPE svg PUBLIC "-//W3C//DTD SVG 1.1//EN"
 "http://www.w3.org/Graphics/SVG/1.1/DTD/svg11.dtd">
<!-- Generated by graphviz version 2.38.0 (20140413.2041)
 -->
<!-- Title: G Pages: 1 -->
<svg width="5816pt" height="510pt"
 viewBox="0.00 0.00 5816.00 510.00" xmlns="http://www.w3.org/2000/svg" xmlns:xlink="http://www.w3.org/1999/xlink">
<g id="graph0" class="graph" transform="scale(1 1) rotate(0) translate(4 506)">
<title>G</title>
<polygon fill="white" stroke="none" points="-4,4 -4,-506 5812,-506 5812,4 -4,4"/>
<g id="clust1" class="cluster"><title>clusterServerID_34e86192c217</title>
<polygon fill="none" stroke="black" points="4143,-311 4143,-494 4733,-494 4733,-311 4143,-311"/>
<text text-anchor="middle" x="4438" y="-478.8" font-family="Times,serif" font-size="14.00">clusterServerID_34e86192c217</text>
</g>
<g id="clust2" class="cluster"><title>clusterServerID_5f846fd567&#45;w7nbt</title>
<polygon fill="none" stroke="black" points="2920,-311 2920,-386 3260,-386 3260,-311 2920,-311"/>
<text text-anchor="middle" x="3090" y="-370.8" font-family="Times,serif" font-size="14.00">clusterServerID_5f846fd567&#45;w7nbt</text>
</g>
<g id="clust3" class="cluster"><title>clusterServerID_6df85d7674&#45;2kqrj</title>
<polygon fill="none" stroke="black" points="862,-311 862,-386 1200,-386 1200,-311 862,-311"/>
<text text-anchor="middle" x="1031" y="-370.8" font-family="Times,serif" font-size="14.00">clusterServerID_6df85d7674&#45;2kqrj</text>
</g>
<g id="clust4" class="cluster"><title>clusterServerID_OuterContainerID</title>
<polygon fill="none" stroke="black" points="8,-95 8,-278 4750,-278 4750,-95 8,-95"/>
<text text-anchor="middle" x="2379" y="-262.8" font-family="Times,serif" font-size="14.00">clusterServerID_OuterContainerID</text>
</g>
<g id="clust5" class="cluster"><title>clusterServerID_e56b6537e2d5</title>
<polygon fill="none" stroke="black" points="4758,-8 4758,-170 5800,-170 5800,-8 4758,-8"/>
<text text-anchor="middle" x="5279" y="-154.8" font-family="Times,serif" font-size="14.00">clusterServerID_e56b6537e2d5</text>
</g>
<!-- 1_fwatchdog#ServerID_6df85d7674&#45;2kqrj -->
<g id="node1" class="node"><title>1_fwatchdog#ServerID_6df85d7674&#45;2kqrj</title>
<polygon fill="none" stroke="black" points="1191.5,-355 870.5,-355 870.5,-319 1191.5,-319 1191.5,-355"/>
<text text-anchor="middle" x="1031" y="-333.3" font-family="Times,serif" font-size="14.00">1_fwatchdog#ServerID_6df85d7674&#45;2kqrj</text>
</g>
<!-- 10.1.80.247:8080#ServerID_OuterContainerID -->
<g id="node2" class="node"><title>10.1.80.247:8080#ServerID_OuterContainerID</title>
<polygon fill="none" stroke="black" points="1032,-247 704.56,-229 1032,-211 1359.44,-229 1032,-247"/>
<text text-anchor="middle" x="1032" y="-225.3" font-family="Times,serif" font-size="14.00">10.1.80.247:8080#ServerID_OuterContainerID</text>
</g>
<!-- 1_fwatchdog#ServerID_6df85d7674&#45;2kqrj&#45;&gt;10.1.80.247:8080#ServerID_OuterContainerID -->
<g id="edge1" class="edge"><title>1_fwatchdog#ServerID_6df85d7674&#45;2kqrj&#45;&gt;10.1.80.247:8080#ServerID_OuterContainerID</title>
<path fill="none" stroke="black" d="M1012.04,-318.736C1007.56,-313.523 1003.39,-307.455 1001,-301 998.687,-294.747 999.333,-292.455 1001,-286 1003.75,-275.348 1009.01,-264.56 1014.43,-255.334"/>
<polygon fill="black" stroke="black" points="1017.49,-257.03 1019.81,-246.692 1011.55,-253.33 1017.49,-257.03"/>
<text text-anchor="middle" x="1021" y="-289.8" font-family="Times,serif" font-size="14.00">POST</text>
</g>
<!-- 10.1.80.247:38116#ServerID_OuterContainerID -->
<g id="node5" class="node"><title>10.1.80.247:38116#ServerID_OuterContainerID</title>
<polygon fill="none" stroke="black" points="351,-247 15.5152,-229 351,-211 686.485,-229 351,-247"/>
<text text-anchor="middle" x="351" y="-225.3" font-family="Times,serif" font-size="14.00">10.1.80.247:38116#ServerID_OuterContainerID</text>
</g>
<!-- 1_fwatchdog#ServerID_6df85d7674&#45;2kqrj&#45;&gt;10.1.80.247:38116#ServerID_OuterContainerID -->
<g id="edge8" class="edge"><title>1_fwatchdog#ServerID_6df85d7674&#45;2kqrj&#45;&gt;10.1.80.247:38116#ServerID_OuterContainerID</title>
<path fill="none" stroke="black" d="M937.08,-318.962C880.848,-308.943 807.911,-296.269 743,-286 644.185,-270.368 531.041,-254.412 451.791,-243.552"/>
<polygon fill="black" stroke="black" points="452.194,-240.074 441.812,-242.187 451.245,-247.01 452.194,-240.074"/>
<text text-anchor="middle" x="873" y="-289.8" font-family="Times,serif" font-size="14.00">RESPONSE</text>
</g>
<!-- gateway:8080#ServerID_OuterContainerID -->
<g id="node6" class="node"><title>gateway:8080#ServerID_OuterContainerID</title>
<polygon fill="none" stroke="black" points="4438,-247 4133.52,-229 4438,-211 4742.48,-229 4438,-247"/>
<text text-anchor="middle" x="4438" y="-225.3" font-family="Times,serif" font-size="14.00">gateway:8080#ServerID_OuterContainerID</text>
</g>
<!-- 1_fwatchdog#ServerID_6df85d7674&#45;2kqrj&#45;&gt;gateway:8080#ServerID_OuterContainerID -->
<g id="edge7" class="edge"><title>1_fwatchdog#ServerID_6df85d7674&#45;2kqrj&#45;&gt;gateway:8080#ServerID_OuterContainerID</title>
<path fill="none" stroke="black" d="M1191.61,-332.751C1466.41,-327.082 2044.45,-314.675 2533,-301 2737.03,-295.289 2787.93,-290.055 2992,-286 3117.76,-283.501 3998.62,-287.974 4124,-278 4205.53,-271.514 4297.99,-256.432 4361.34,-244.891"/>
<polygon fill="black" stroke="black" points="4362.05,-248.32 4371.26,-243.072 4360.79,-241.435 4362.05,-248.32"/>
<text text-anchor="middle" x="3012" y="-289.8" font-family="Times,serif" font-size="14.00">POST</text>
</g>
<!-- 10.1.80.247:8080#ServerID_OuterContainerID&#45;&gt;1_fwatchdog#ServerID_6df85d7674&#45;2kqrj -->
<g id="edge6" class="edge"><title>10.1.80.247:8080#ServerID_OuterContainerID&#45;&gt;1_fwatchdog#ServerID_6df85d7674&#45;2kqrj</title>
<path fill="none" stroke="black" d="M1036.68,-246.944C1040.05,-261.339 1043.59,-282.543 1041,-301 1040.64,-303.574 1040.14,-306.224 1039.55,-308.859"/>
<polygon fill="black" stroke="black" points="1036.1,-308.198 1036.96,-318.759 1042.87,-309.971 1036.1,-308.198"/>
<text text-anchor="middle" x="1084" y="-289.8" font-family="Times,serif" font-size="14.00">RESPONSE</text>
</g>
<!-- 10.1.80.1:27980#ServerID_OuterContainerID -->
<g id="node15" class="node"><title>10.1.80.1:27980#ServerID_OuterContainerID</title>
<polygon fill="none" stroke="black" points="1095,-139 776.105,-121 1095,-103 1413.9,-121 1095,-139"/>
<text text-anchor="middle" x="1095" y="-117.3" font-family="Times,serif" font-size="14.00">10.1.80.1:27980#ServerID_OuterContainerID</text>
</g>
<!-- 10.1.80.247:8080#ServerID_OuterContainerID&#45;&gt;10.1.80.1:27980#ServerID_OuterContainerID -->
<g id="edge20" class="edge"><title>10.1.80.247:8080#ServerID_OuterContainerID&#45;&gt;10.1.80.1:27980#ServerID_OuterContainerID</title>
<path fill="none" stroke="black" d="M1055.09,-212.166C1061.64,-206.734 1068.26,-200.191 1073,-193 1081.71,-179.774 1087.12,-162.913 1090.4,-148.941"/>
<polygon fill="black" stroke="black" points="1093.87,-149.434 1092.51,-138.928 1087.02,-147.992 1093.87,-149.434"/>
<text text-anchor="middle" x="1123" y="-181.8" font-family="Times,serif" font-size="14.00">RESPONSE</text>
</g>
<!-- 10.0.88.125:31112#ServerID_OuterContainerID -->
<g id="node16" class="node"><title>10.0.88.125:31112#ServerID_OuterContainerID</title>
<polygon fill="none" stroke="black" points="423,-139 87.5152,-121 423,-103 758.485,-121 423,-139"/>
<text text-anchor="middle" x="423" y="-117.3" font-family="Times,serif" font-size="14.00">10.0.88.125:31112#ServerID_OuterContainerID</text>
</g>
<!-- 10.1.80.247:8080#ServerID_OuterContainerID&#45;&gt;10.0.88.125:31112#ServerID_OuterContainerID -->
<g id="edge21" class="edge"><title>10.1.80.247:8080#ServerID_OuterContainerID&#45;&gt;10.0.88.125:31112#ServerID_OuterContainerID</title>
<path fill="none" stroke="black" d="M957.629,-215.055C843.899,-195.26 627.399,-157.577 507.751,-136.751"/>
<polygon fill="black" stroke="black" points="508.346,-133.302 497.894,-135.036 507.146,-140.199 508.346,-133.302"/>
<text text-anchor="middle" x="860" y="-181.8" font-family="Times,serif" font-size="14.00">RESPONSE</text>
</g>
<!-- 1_fwatchdog#ServerID_5f846fd567&#45;w7nbt -->
<g id="node3" class="node"><title>1_fwatchdog#ServerID_5f846fd567&#45;w7nbt</title>
<polygon fill="none" stroke="black" points="3252,-355 2928,-355 2928,-319 3252,-319 3252,-355"/>
<text text-anchor="middle" x="3090" y="-333.3" font-family="Times,serif" font-size="14.00">1_fwatchdog#ServerID_5f846fd567&#45;w7nbt</text>
</g>
<!-- 10.1.80.247:40102#ServerID_OuterContainerID -->
<g id="node4" class="node"><title>10.1.80.247:40102#ServerID_OuterContainerID</title>
<polygon fill="none" stroke="black" points="3091,-247 2755.52,-229 3091,-211 3426.48,-229 3091,-247"/>
<text text-anchor="middle" x="3091" y="-225.3" font-family="Times,serif" font-size="14.00">10.1.80.247:40102#ServerID_OuterContainerID</text>
</g>
<!-- 1_fwatchdog#ServerID_5f846fd567&#45;w7nbt&#45;&gt;10.1.80.247:40102#ServerID_OuterContainerID -->
<g id="edge2" class="edge"><title>1_fwatchdog#ServerID_5f846fd567&#45;w7nbt&#45;&gt;10.1.80.247:40102#ServerID_OuterContainerID</title>
<path fill="none" stroke="black" d="M3054.26,-318.861C3047.73,-314.032 3041.78,-308.108 3038,-301 3034.87,-295.115 3035.53,-292.194 3038,-286 3043,-273.439 3052.31,-262.073 3061.74,-252.914"/>
<polygon fill="black" stroke="black" points="3064.22,-255.386 3069.25,-246.061 3059.51,-250.214 3064.22,-255.386"/>
<text text-anchor="middle" x="3080" y="-289.8" font-family="Times,serif" font-size="14.00">RESPONSE</text>
</g>
<!-- 10.1.80.247:40102#ServerID_OuterContainerID&#45;&gt;1_fwatchdog#ServerID_5f846fd567&#45;w7nbt -->
<g id="edge4" class="edge"><title>10.1.80.247:40102#ServerID_OuterContainerID&#45;&gt;1_fwatchdog#ServerID_5f846fd567&#45;w7nbt</title>
<path fill="none" stroke="black" d="M3106.08,-246.48C3117.24,-260.767 3129.35,-282.067 3122,-301 3120.64,-304.507 3118.74,-307.876 3116.55,-311.046"/>
<polygon fill="black" stroke="black" points="3113.75,-308.944 3110.2,-318.928 3119.2,-313.335 3113.75,-308.944"/>
<text text-anchor="middle" x="3145" y="-289.8" font-family="Times,serif" font-size="14.00">POST</text>
</g>
<!-- 1_fwatchdog#ServerID_e56b6537e2d5 -->
<g id="node9" class="node"><title>1_fwatchdog#ServerID_e56b6537e2d5</title>
<polygon fill="none" stroke="black" points="5065.5,-139 4766.5,-139 4766.5,-103 5065.5,-103 5065.5,-139"/>
<text text-anchor="middle" x="4916" y="-117.3" font-family="Times,serif" font-size="14.00">1_fwatchdog#ServerID_e56b6537e2d5</text>
</g>
<!-- 10.1.80.247:40102#ServerID_OuterContainerID&#45;&gt;1_fwatchdog#ServerID_e56b6537e2d5 -->
<g id="edge14" class="edge"><title>10.1.80.247:40102#ServerID_OuterContainerID&#45;&gt;1_fwatchdog#ServerID_e56b6537e2d5</title>
<path fill="none" stroke="black" d="M3251.58,-219.611C3309.68,-216.702 3375.79,-213.537 3436,-211 3855,-193.346 3959.8,-189.806 4379,-178 4462.32,-175.654 4671.64,-182.843 4754,-170 4790.22,-164.352 4829.69,-152.779 4860.59,-142.412"/>
<polygon fill="black" stroke="black" points="4861.98,-145.638 4870.31,-139.097 4859.72,-139.012 4861.98,-145.638"/>
<text text-anchor="middle" x="4395.5" y="-181.8" font-family="Times,serif" font-size="14.00">read</text>
</g>
<!-- 10.1.80.247:38116#ServerID_OuterContainerID&#45;&gt;1_fwatchdog#ServerID_6df85d7674&#45;2kqrj -->
<g id="edge3" class="edge"><title>10.1.80.247:38116#ServerID_OuterContainerID&#45;&gt;1_fwatchdog#ServerID_6df85d7674&#45;2kqrj</title>
<path fill="none" stroke="black" d="M410.802,-243.825C480.594,-259.549 599.638,-285.096 703,-301 753.941,-308.838 809.604,-315.491 860.373,-320.823"/>
<polygon fill="black" stroke="black" points="860.15,-324.319 870.458,-321.872 860.874,-317.356 860.15,-324.319"/>
<text text-anchor="middle" x="723" y="-289.8" font-family="Times,serif" font-size="14.00">POST</text>
</g>
<!-- gateway:8080#ServerID_OuterContainerID&#45;&gt;1_fwatchdog#ServerID_6df85d7674&#45;2kqrj -->
<g id="edge5" class="edge"><title>gateway:8080#ServerID_OuterContainerID&#45;&gt;1_fwatchdog#ServerID_6df85d7674&#45;2kqrj</title>
<path fill="none" stroke="black" d="M4371.26,-243.116C4307.92,-254.871 4209.9,-271.266 4124,-278 4031.23,-285.273 2542.04,-284.138 2449,-286 1998.55,-295.015 1467.95,-316.67 1201.65,-328.303"/>
<polygon fill="black" stroke="black" points="1201.35,-324.812 1191.51,-328.746 1201.65,-331.806 1201.35,-324.812"/>
<text text-anchor="middle" x="2491" y="-289.8" font-family="Times,serif" font-size="14.00">RESPONSE</text>
</g>
<!-- 10_node#ServerID_34e86192c217 -->
<g id="node7" class="node"><title>10_node#ServerID_34e86192c217</title>
<polygon fill="none" stroke="black" points="4571.5,-355 4304.5,-355 4304.5,-319 4571.5,-319 4571.5,-355"/>
<text text-anchor="middle" x="4438" y="-333.3" font-family="Times,serif" font-size="14.00">10_node#ServerID_34e86192c217</text>
</g>
<!-- gateway:8080#ServerID_OuterContainerID&#45;&gt;10_node#ServerID_34e86192c217 -->
<g id="edge9" class="edge"><title>gateway:8080#ServerID_OuterContainerID&#45;&gt;10_node#ServerID_34e86192c217</title>
<path fill="none" stroke="black" d="M4425.05,-246.239C4415.26,-260.554 4404.53,-282.027 4411,-301 4412.09,-304.196 4413.6,-307.327 4415.36,-310.322"/>
<polygon fill="black" stroke="black" points="4412.65,-312.557 4421.19,-318.823 4418.42,-308.597 4412.65,-312.557"/>
<text text-anchor="middle" x="4427.5" y="-289.8" font-family="Times,serif" font-size="14.00">read</text>
</g>
<!-- 10_node#ServerID_34e86192c217&#45;&gt;gateway:8080#ServerID_OuterContainerID -->
<g id="edge10" class="edge"><title>10_node#ServerID_34e86192c217&#45;&gt;gateway:8080#ServerID_OuterContainerID</title>
<path fill="none" stroke="black" d="M4441.51,-318.985C4442.53,-313.293 4443.5,-306.897 4444,-301 4445.24,-286.411 4444.05,-270.136 4442.41,-256.851"/>
<polygon fill="black" stroke="black" points="4445.88,-256.355 4441.04,-246.928 4438.95,-257.313 4445.88,-256.355"/>
<text text-anchor="middle" x="4474" y="-289.8" font-family="Times,serif" font-size="14.00">connect</text>
</g>
<!-- localhost:3000#ServerID_34e86192c217 -->
<g id="node8" class="node"><title>localhost:3000#ServerID_34e86192c217</title>
<polygon fill="none" stroke="black" points="4438,-463 4151.45,-445 4438,-427 4724.55,-445 4438,-463"/>
<text text-anchor="middle" x="4438" y="-441.3" font-family="Times,serif" font-size="14.00">localhost:3000#ServerID_34e86192c217</text>
</g>
<!-- localhost:3000#ServerID_34e86192c217&#45;&gt;10_node#ServerID_34e86192c217 -->
<g id="edge11" class="edge"><title>localhost:3000#ServerID_34e86192c217&#45;&gt;10_node#ServerID_34e86192c217</title>
<path fill="none" stroke="black" d="M4438,-426.969C4438,-410.378 4438,-384.883 4438,-365.431"/>
<polygon fill="black" stroke="black" points="4441.5,-365.341 4438,-355.341 4434.5,-365.341 4441.5,-365.341"/>
<text text-anchor="middle" x="4454.5" y="-397.8" font-family="Times,serif" font-size="14.00">read</text>
</g>
<!-- localhost:3000#ServerID_e56b6537e2d5 -->
<g id="node10" class="node"><title>localhost:3000#ServerID_e56b6537e2d5</title>
<polygon fill="none" stroke="black" points="5053,-52 4766.45,-34 5053,-16 5339.55,-34 5053,-52"/>
<text text-anchor="middle" x="5053" y="-30.3" font-family="Times,serif" font-size="14.00">localhost:3000#ServerID_e56b6537e2d5</text>
</g>
<!-- 1_fwatchdog#ServerID_e56b6537e2d5&#45;&gt;localhost:3000#ServerID_e56b6537e2d5 -->
<g id="edge12" class="edge"><title>1_fwatchdog#ServerID_e56b6537e2d5&#45;&gt;localhost:3000#ServerID_e56b6537e2d5</title>
<path fill="none" stroke="black" d="M4933.2,-102.777C4944.21,-92.385 4959.17,-79.3849 4974,-70 4983.51,-63.9807 4994.23,-58.4833 5004.64,-53.7188"/>
<polygon fill="black" stroke="black" points="5006.33,-56.798 5014.06,-49.5554 5003.5,-50.395 5006.33,-56.798"/>
<text text-anchor="middle" x="4993" y="-73.8" font-family="Times,serif" font-size="14.00">write</text>
</g>
<!-- pipe:[331682317]#ServerID_e56b6537e2d5 -->
<g id="node14" class="node"><title>pipe:[331682317]#ServerID_e56b6537e2d5</title>
<ellipse fill="none" stroke="black" cx="5575" cy="-34" rx="217.162" ry="18"/>
<text text-anchor="middle" x="5575" y="-30.3" font-family="Times,serif" font-size="14.00">pipe:[331682317]#ServerID_e56b6537e2d5</text>
</g>
<!-- 1_fwatchdog#ServerID_e56b6537e2d5&#45;&gt;pipe:[331682317]#ServerID_e56b6537e2d5 -->
<g id="edge18" class="edge"><title>1_fwatchdog#ServerID_e56b6537e2d5&#45;&gt;pipe:[331682317]#ServerID_e56b6537e2d5</title>
<path fill="none" stroke="black" d="M5048.17,-102.952C5166.25,-87.7219 5337.86,-65.5873 5452.8,-50.7622"/>
<polygon fill="black" stroke="black" points="5453.58,-54.1908 5463.05,-49.4402 5452.68,-47.2483 5453.58,-54.1908"/>
<text text-anchor="middle" x="5303" y="-73.8" font-family="Times,serif" font-size="14.00">write</text>
</g>
<!-- localhost:3000#ServerID_e56b6537e2d5&#45;&gt;1_fwatchdog#ServerID_e56b6537e2d5 -->
<g id="edge17" class="edge"><title>localhost:3000#ServerID_e56b6537e2d5&#45;&gt;1_fwatchdog#ServerID_e56b6537e2d5</title>
<path fill="none" stroke="black" d="M5042.63,-51.8382C5035.25,-62.6098 5024.45,-76.1692 5012,-85 5004.37,-90.4071 4995.82,-95.0712 4987.04,-99.069"/>
<polygon fill="black" stroke="black" points="4985.67,-95.8507 4977.85,-102.997 4988.42,-102.288 4985.67,-95.8507"/>
<text text-anchor="middle" x="5043.5" y="-73.8" font-family="Times,serif" font-size="14.00">read</text>
</g>
<!-- 10.1.80.247:40104#ServerID_OuterContainerID -->
<g id="node11" class="node"><title>10.1.80.247:40104#ServerID_OuterContainerID</title>
<polygon fill="none" stroke="black" points="3780,-247 3444.52,-229 3780,-211 4115.48,-229 3780,-247"/>
<text text-anchor="middle" x="3780" y="-225.3" font-family="Times,serif" font-size="14.00">10.1.80.247:40104#ServerID_OuterContainerID</text>
</g>
<!-- 10.1.80.247:40104#ServerID_OuterContainerID&#45;&gt;1_fwatchdog#ServerID_e56b6537e2d5 -->
<g id="edge13" class="edge"><title>10.1.80.247:40104#ServerID_OuterContainerID&#45;&gt;1_fwatchdog#ServerID_e56b6537e2d5</title>
<path fill="none" stroke="black" d="M3938.71,-219.497C4204.51,-205.123 4714.66,-176.905 4754,-170 4789.59,-163.753 4828.43,-152.406 4859.16,-142.313"/>
<polygon fill="black" stroke="black" points="4860.46,-145.57 4868.84,-139.088 4858.24,-138.929 4860.46,-145.57"/>
<text text-anchor="middle" x="4668.5" y="-181.8" font-family="Times,serif" font-size="14.00">read</text>
</g>
<!-- 10.1.80.247:40106#ServerID_OuterContainerID -->
<g id="node12" class="node"><title>10.1.80.247:40106#ServerID_OuterContainerID</title>
<polygon fill="none" stroke="black" points="1713,-247 1377.52,-229 1713,-211 2048.48,-229 1713,-247"/>
<text text-anchor="middle" x="1713" y="-225.3" font-family="Times,serif" font-size="14.00">10.1.80.247:40106#ServerID_OuterContainerID</text>
</g>
<!-- 10.1.80.247:40106#ServerID_OuterContainerID&#45;&gt;1_fwatchdog#ServerID_e56b6537e2d5 -->
<g id="edge15" class="edge"><title>10.1.80.247:40106#ServerID_OuterContainerID&#45;&gt;1_fwatchdog#ServerID_e56b6537e2d5</title>
<path fill="none" stroke="black" d="M1871.84,-219.488C1930.35,-216.533 1997.18,-213.37 2058,-211 2569.38,-191.072 2697.31,-186.659 3209,-178 3251.91,-177.274 4711.54,-176.27 4754,-170 4790.53,-164.606 4830.3,-152.911 4861.3,-142.416"/>
<polygon fill="black" stroke="black" points="4862.72,-145.627 4871.04,-139.06 4860.44,-139.009 4862.72,-145.627"/>
<text text-anchor="middle" x="3225.5" y="-181.8" font-family="Times,serif" font-size="14.00">read</text>
</g>
<!-- 10.1.80.247:40100#ServerID_OuterContainerID -->
<g id="node13" class="node"><title>10.1.80.247:40100#ServerID_OuterContainerID</title>
<polygon fill="none" stroke="black" points="2402,-247 2066.52,-229 2402,-211 2737.48,-229 2402,-247"/>
<text text-anchor="middle" x="2402" y="-225.3" font-family="Times,serif" font-size="14.00">10.1.80.247:40100#ServerID_OuterContainerID</text>
</g>
<!-- 10.1.80.247:40100#ServerID_OuterContainerID&#45;&gt;1_fwatchdog#ServerID_e56b6537e2d5 -->
<g id="edge16" class="edge"><title>10.1.80.247:40100#ServerID_OuterContainerID&#45;&gt;1_fwatchdog#ServerID_e56b6537e2d5</title>
<path fill="none" stroke="black" d="M2561.28,-219.503C2619.68,-216.558 2686.33,-213.398 2747,-211 3239.28,-191.542 3362.43,-187.526 3855,-178 3904.94,-177.034 4704.6,-177.389 4754,-170 4790.52,-164.538 4830.29,-152.842 4861.29,-142.363"/>
<polygon fill="black" stroke="black" points="4862.71,-145.575 4871.03,-139.013 4860.44,-138.956 4862.71,-145.575"/>
<text text-anchor="middle" x="3871.5" y="-181.8" font-family="Times,serif" font-size="14.00">read</text>
</g>
<!-- 10.1.80.1:27980#ServerID_OuterContainerID&#45;&gt;10.1.80.247:8080#ServerID_OuterContainerID -->
<g id="edge19" class="edge"><title>10.1.80.1:27980#ServerID_OuterContainerID&#45;&gt;10.1.80.247:8080#ServerID_OuterContainerID</title>
<path fill="none" stroke="black" d="M1069.46,-137.562C1055.97,-147.329 1040.65,-161.242 1033,-178 1029.78,-185.06 1028.68,-193.284 1028.63,-201"/>
<polygon fill="black" stroke="black" points="1025.13,-201.218 1029.08,-211.048 1032.12,-200.899 1025.13,-201.218"/>
<text text-anchor="middle" x="1053" y="-181.8" font-family="Times,serif" font-size="14.00">POST</text>
</g>
</g>
</svg>
