<?xml version="1.0" encoding="UTF-8" standalone="no"?>
<!DOCTYPE svg PUBLIC "-//W3C//DTD SVG 1.1//EN"
 "http://www.w3.org/Graphics/SVG/1.1/DTD/svg11.dtd">
<!-- Generated by graphviz version 2.38.0 (20140413.2041)
 -->
<!-- Title: G Pages: 1 -->
<svg width="4254pt" height="402pt"
 viewBox="0.00 0.00 4254.00 402.00" xmlns="http://www.w3.org/2000/svg" xmlns:xlink="http://www.w3.org/1999/xlink">
<g id="graph0" class="graph" transform="scale(1 1) rotate(0) translate(4 398)">
<title>G</title>
<polygon fill="white" stroke="none" points="-4,4 -4,-398 4250,-398 4250,4 -4,4"/>
<g id="clust1" class="cluster"><title>clusterServerID_34e86192c217</title>
<polygon fill="none" stroke="black" points="3039,-95 3039,-386 3629,-386 3629,-95 3039,-95"/>
<text text-anchor="middle" x="3334" y="-370.8" font-family="Times,serif" font-size="14.00">clusterServerID_34e86192c217</text>
</g>
<g id="clust2" class="cluster"><title>clusterServerID_5f846fd567&#45;w7nbt</title>
<polygon fill="none" stroke="black" points="2691,-95 2691,-170 3031,-170 3031,-95 2691,-95"/>
<text text-anchor="middle" x="2861" y="-154.8" font-family="Times,serif" font-size="14.00">clusterServerID_5f846fd567&#45;w7nbt</text>
</g>
<g id="clust3" class="cluster"><title>clusterServerID_6df85d7674&#45;2kqrj</title>
<polygon fill="none" stroke="black" points="1512,-311 1512,-386 1850,-386 1850,-311 1512,-311"/>
<text text-anchor="middle" x="1681" y="-370.8" font-family="Times,serif" font-size="14.00">clusterServerID_6df85d7674&#45;2kqrj</text>
</g>
<g id="clust4" class="cluster"><title>clusterServerID_OuterContainerID</title>
<polygon fill="none" stroke="black" points="8,-95 8,-278 2683,-278 2683,-95 8,-95"/>
<text text-anchor="middle" x="1345.5" y="-262.8" font-family="Times,serif" font-size="14.00">clusterServerID_OuterContainerID</text>
</g>
<g id="clust5" class="cluster"><title>clusterServerID_e56b6537e2d5</title>
<polygon fill="none" stroke="black" points="3637,-8 3637,-278 4238,-278 4238,-8 3637,-8"/>
<text text-anchor="middle" x="3937.5" y="-262.8" font-family="Times,serif" font-size="14.00">clusterServerID_e56b6537e2d5</text>
</g>
<!-- 1_fwatchdog#ServerID_6df85d7674&#45;2kqrj -->
<g id="node1" class="node"><title>1_fwatchdog#ServerID_6df85d7674&#45;2kqrj</title>
<polygon fill="none" stroke="black" points="1841.5,-355 1520.5,-355 1520.5,-319 1841.5,-319 1841.5,-355"/>
<text text-anchor="middle" x="1681" y="-333.3" font-family="Times,serif" font-size="14.00">1_fwatchdog#ServerID_6df85d7674&#45;2kqrj</text>
</g>
<!-- gateway:8080#ServerID_OuterContainerID -->
<g id="node2" class="node"><title>gateway:8080#ServerID_OuterContainerID</title>
<polygon fill="none" stroke="black" points="1682,-247 1377.52,-229 1682,-211 1986.48,-229 1682,-247"/>
<text text-anchor="middle" x="1682" y="-225.3" font-family="Times,serif" font-size="14.00">gateway:8080#ServerID_OuterContainerID</text>
</g>
<!-- 1_fwatchdog#ServerID_6df85d7674&#45;2kqrj&#45;&gt;gateway:8080#ServerID_OuterContainerID -->
<g id="edge1" class="edge"><title>1_fwatchdog#ServerID_6df85d7674&#45;2kqrj&#45;&gt;gateway:8080#ServerID_OuterContainerID</title>
<path fill="none" stroke="black" d="M1662.04,-318.736C1657.56,-313.523 1653.39,-307.455 1651,-301 1648.69,-294.747 1649.33,-292.455 1651,-286 1653.75,-275.348 1659.01,-264.56 1664.43,-255.334"/>
<polygon fill="black" stroke="black" points="1667.49,-257.03 1669.81,-246.692 1661.55,-253.33 1667.49,-257.03"/>
<text text-anchor="middle" x="1671" y="-289.8" font-family="Times,serif" font-size="14.00">POST</text>
</g>
<!-- 10.1.80.247:38172#ServerID_OuterContainerID -->
<g id="node3" class="node"><title>10.1.80.247:38172#ServerID_OuterContainerID</title>
<polygon fill="none" stroke="black" points="2340,-247 2004.52,-229 2340,-211 2675.48,-229 2340,-247"/>
<text text-anchor="middle" x="2340" y="-225.3" font-family="Times,serif" font-size="14.00">10.1.80.247:38172#ServerID_OuterContainerID</text>
</g>
<!-- 1_fwatchdog#ServerID_6df85d7674&#45;2kqrj&#45;&gt;10.1.80.247:38172#ServerID_OuterContainerID -->
<g id="edge8" class="edge"><title>1_fwatchdog#ServerID_6df85d7674&#45;2kqrj&#45;&gt;10.1.80.247:38172#ServerID_OuterContainerID</title>
<path fill="none" stroke="black" d="M1773.62,-318.986C1828.83,-309.005 1900.35,-296.361 1964,-286 2058.45,-270.626 2166.52,-254.704 2242.49,-243.785"/>
<polygon fill="black" stroke="black" points="2243.12,-247.23 2252.52,-242.345 2242.13,-240.301 2243.12,-247.23"/>
<text text-anchor="middle" x="2006" y="-289.8" font-family="Times,serif" font-size="14.00">RESPONSE</text>
</g>
<!-- 10.1.80.247:8080#ServerID_OuterContainerID -->
<g id="node6" class="node"><title>10.1.80.247:8080#ServerID_OuterContainerID</title>
<polygon fill="none" stroke="black" points="343,-247 15.5599,-229 343,-211 670.44,-229 343,-247"/>
<text text-anchor="middle" x="343" y="-225.3" font-family="Times,serif" font-size="14.00">10.1.80.247:8080#ServerID_OuterContainerID</text>
</g>
<!-- 1_fwatchdog#ServerID_6df85d7674&#45;2kqrj&#45;&gt;10.1.80.247:8080#ServerID_OuterContainerID -->
<g id="edge6" class="edge"><title>1_fwatchdog#ServerID_6df85d7674&#45;2kqrj&#45;&gt;10.1.80.247:8080#ServerID_OuterContainerID</title>
<path fill="none" stroke="black" d="M1520.31,-330.829C1322.3,-323.503 975.76,-307.579 680,-278 594.702,-269.469 497.872,-255.195 429.963,-244.425"/>
<polygon fill="black" stroke="black" points="430.165,-240.913 419.739,-242.796 429.063,-247.826 430.165,-240.913"/>
<text text-anchor="middle" x="947" y="-289.8" font-family="Times,serif" font-size="14.00">POST</text>
</g>
<!-- gateway:8080#ServerID_OuterContainerID&#45;&gt;1_fwatchdog#ServerID_6df85d7674&#45;2kqrj -->
<g id="edge5" class="edge"><title>gateway:8080#ServerID_OuterContainerID&#45;&gt;1_fwatchdog#ServerID_6df85d7674&#45;2kqrj</title>
<path fill="none" stroke="black" d="M1686.68,-246.944C1690.05,-261.339 1693.59,-282.543 1691,-301 1690.64,-303.574 1690.14,-306.224 1689.55,-308.859"/>
<polygon fill="black" stroke="black" points="1686.1,-308.198 1686.96,-318.759 1692.87,-309.971 1686.1,-308.198"/>
<text text-anchor="middle" x="1734" y="-289.8" font-family="Times,serif" font-size="14.00">RESPONSE</text>
</g>
<!-- 10_node#ServerID_34e86192c217 -->
<g id="node12" class="node"><title>10_node#ServerID_34e86192c217</title>
<polygon fill="none" stroke="black" points="3314.5,-139 3047.5,-139 3047.5,-103 3314.5,-103 3314.5,-139"/>
<text text-anchor="middle" x="3181" y="-117.3" font-family="Times,serif" font-size="14.00">10_node#ServerID_34e86192c217</text>
</g>
<!-- gateway:8080#ServerID_OuterContainerID&#45;&gt;10_node#ServerID_34e86192c217 -->
<g id="edge14" class="edge"><title>gateway:8080#ServerID_OuterContainerID&#45;&gt;10_node#ServerID_34e86192c217</title>
<path fill="none" stroke="black" d="M1828.55,-219.62C1881.32,-216.72 1941.33,-213.558 1996,-211 2226.82,-200.198 2807.6,-211.036 3035,-170 3067.41,-164.151 3102.52,-152.781 3130.18,-142.576"/>
<polygon fill="black" stroke="black" points="3131.5,-145.817 3139.63,-139.025 3129.04,-139.263 3131.5,-145.817"/>
<text text-anchor="middle" x="2991.5" y="-181.8" font-family="Times,serif" font-size="14.00">read</text>
</g>
<!-- 10.1.80.247:38172#ServerID_OuterContainerID&#45;&gt;1_fwatchdog#ServerID_6df85d7674&#45;2kqrj -->
<g id="edge2" class="edge"><title>10.1.80.247:38172#ServerID_OuterContainerID&#45;&gt;1_fwatchdog#ServerID_6df85d7674&#45;2kqrj</title>
<path fill="none" stroke="black" d="M2291.03,-244.421C2234.09,-260.639 2137.04,-286.587 2052,-301 1987.06,-312.005 1915.1,-319.793 1851.97,-325.181"/>
<polygon fill="black" stroke="black" points="1851.59,-321.701 1841.92,-326.025 1852.18,-328.676 1851.59,-321.701"/>
<text text-anchor="middle" x="2144" y="-289.8" font-family="Times,serif" font-size="14.00">POST</text>
</g>
<!-- 1_fwatchdog#ServerID_34e86192c217 -->
<g id="node7" class="node"><title>1_fwatchdog#ServerID_34e86192c217</title>
<polygon fill="none" stroke="black" points="3414.5,-355 3115.5,-355 3115.5,-319 3414.5,-319 3414.5,-355"/>
<text text-anchor="middle" x="3265" y="-333.3" font-family="Times,serif" font-size="14.00">1_fwatchdog#ServerID_34e86192c217</text>
</g>
<!-- 10.1.80.247:38172#ServerID_OuterContainerID&#45;&gt;1_fwatchdog#ServerID_34e86192c217 -->
<g id="edge10" class="edge"><title>10.1.80.247:38172#ServerID_OuterContainerID&#45;&gt;1_fwatchdog#ServerID_34e86192c217</title>
<path fill="none" stroke="black" d="M2441.17,-241.593C2601.66,-259.985 2915.93,-295.999 3106.53,-317.84"/>
<polygon fill="black" stroke="black" points="3106.31,-321.337 3116.64,-318.999 3107.1,-314.383 3106.31,-321.337"/>
<text text-anchor="middle" x="2956.5" y="-289.8" font-family="Times,serif" font-size="14.00">read</text>
</g>
<!-- 10.1.80.247:40160#ServerID_OuterContainerID -->
<g id="node4" class="node"><title>10.1.80.247:40160#ServerID_OuterContainerID</title>
<polygon fill="none" stroke="black" points="1024,-247 688.515,-229 1024,-211 1359.48,-229 1024,-247"/>
<text text-anchor="middle" x="1024" y="-225.3" font-family="Times,serif" font-size="14.00">10.1.80.247:40160#ServerID_OuterContainerID</text>
</g>
<!-- 1_fwatchdog#ServerID_5f846fd567&#45;w7nbt -->
<g id="node5" class="node"><title>1_fwatchdog#ServerID_5f846fd567&#45;w7nbt</title>
<polygon fill="none" stroke="black" points="3023,-139 2699,-139 2699,-103 3023,-103 3023,-139"/>
<text text-anchor="middle" x="2861" y="-117.3" font-family="Times,serif" font-size="14.00">1_fwatchdog#ServerID_5f846fd567&#45;w7nbt</text>
</g>
<!-- 10.1.80.247:40160#ServerID_OuterContainerID&#45;&gt;1_fwatchdog#ServerID_5f846fd567&#45;w7nbt -->
<g id="edge3" class="edge"><title>10.1.80.247:40160#ServerID_OuterContainerID&#45;&gt;1_fwatchdog#ServerID_5f846fd567&#45;w7nbt</title>
<path fill="none" stroke="black" d="M1112.97,-215.694C1206.03,-203.458 1356.44,-185.466 1487,-178 1553.56,-174.194 2620.96,-179.166 2687,-170 2726.41,-164.53 2769.53,-152.679 2802.98,-142.122"/>
<polygon fill="black" stroke="black" points="2804.14,-145.426 2812.59,-139.04 2802,-138.76 2804.14,-145.426"/>
<text text-anchor="middle" x="1507" y="-181.8" font-family="Times,serif" font-size="14.00">POST</text>
</g>
<!-- 1_fwatchdog#ServerID_e56b6537e2d5 -->
<g id="node10" class="node"><title>1_fwatchdog#ServerID_e56b6537e2d5</title>
<polygon fill="none" stroke="black" points="3944.5,-139 3645.5,-139 3645.5,-103 3944.5,-103 3944.5,-139"/>
<text text-anchor="middle" x="3795" y="-117.3" font-family="Times,serif" font-size="14.00">1_fwatchdog#ServerID_e56b6537e2d5</text>
</g>
<!-- 10.1.80.247:40160#ServerID_OuterContainerID&#45;&gt;1_fwatchdog#ServerID_e56b6537e2d5 -->
<g id="edge17" class="edge"><title>10.1.80.247:40160#ServerID_OuterContainerID&#45;&gt;1_fwatchdog#ServerID_e56b6537e2d5</title>
<path fill="none" stroke="black" d="M1184.58,-219.589C1242.68,-216.678 1308.78,-213.517 1369,-211 1475.75,-206.537 2223.18,-180.162 2330,-178 2402.38,-176.535 3561.39,-180.61 3633,-170 3669.53,-164.588 3709.3,-152.893 3740.3,-142.402"/>
<polygon fill="black" stroke="black" points="3741.72,-145.614 3750.04,-139.048 3739.44,-138.995 3741.72,-145.614"/>
<text text-anchor="middle" x="2346.5" y="-181.8" font-family="Times,serif" font-size="14.00">read</text>
</g>
<!-- 1_fwatchdog#ServerID_5f846fd567&#45;w7nbt&#45;&gt;10.1.80.247:40160#ServerID_OuterContainerID -->
<g id="edge4" class="edge"><title>1_fwatchdog#ServerID_5f846fd567&#45;w7nbt&#45;&gt;10.1.80.247:40160#ServerID_OuterContainerID</title>
<path fill="none" stroke="black" d="M2812.59,-139.013C2778.07,-150.237 2730.29,-163.946 2687,-170 2585.65,-184.172 1868.26,-174.114 1766,-178 1708.43,-180.188 1370.45,-203.63 1171.05,-217.626"/>
<polygon fill="black" stroke="black" points="1170.8,-214.134 1161.07,-218.326 1171.29,-221.117 1170.8,-214.134"/>
<text text-anchor="middle" x="1808" y="-181.8" font-family="Times,serif" font-size="14.00">RESPONSE</text>
</g>
<!-- 10.1.80.247:8080#ServerID_OuterContainerID&#45;&gt;1_fwatchdog#ServerID_6df85d7674&#45;2kqrj -->
<g id="edge7" class="edge"><title>10.1.80.247:8080#ServerID_OuterContainerID&#45;&gt;1_fwatchdog#ServerID_6df85d7674&#45;2kqrj</title>
<path fill="none" stroke="black" d="M398.984,-243.998C469.073,-260.851 593.059,-288.451 701,-301 852.501,-318.614 1272,-328.717 1510.14,-333.195"/>
<polygon fill="black" stroke="black" points="1510.22,-336.697 1520.28,-333.384 1510.35,-329.698 1510.22,-336.697"/>
<text text-anchor="middle" x="743" y="-289.8" font-family="Times,serif" font-size="14.00">RESPONSE</text>
</g>
<!-- 10.1.80.1:50339#ServerID_OuterContainerID -->
<g id="node14" class="node"><title>10.1.80.1:50339#ServerID_OuterContainerID</title>
<polygon fill="none" stroke="black" points="335,-139 16.1049,-121 335,-103 653.895,-121 335,-139"/>
<text text-anchor="middle" x="335" y="-117.3" font-family="Times,serif" font-size="14.00">10.1.80.1:50339#ServerID_OuterContainerID</text>
</g>
<!-- 10.1.80.247:8080#ServerID_OuterContainerID&#45;&gt;10.1.80.1:50339#ServerID_OuterContainerID -->
<g id="edge20" class="edge"><title>10.1.80.247:8080#ServerID_OuterContainerID&#45;&gt;10.1.80.1:50339#ServerID_OuterContainerID</title>
<path fill="none" stroke="black" d="M303.089,-213.103C294.688,-208.04 286.895,-201.453 282,-193 271.93,-175.613 285.936,-157.484 302.069,-143.897"/>
<polygon fill="black" stroke="black" points="304.364,-146.546 310.064,-137.615 300.039,-141.041 304.364,-146.546"/>
<text text-anchor="middle" x="324" y="-181.8" font-family="Times,serif" font-size="14.00">RESPONSE</text>
</g>
<!-- 10.0.88.125:31112#ServerID_OuterContainerID -->
<g id="node15" class="node"><title>10.0.88.125:31112#ServerID_OuterContainerID</title>
<polygon fill="none" stroke="black" points="1007,-139 671.515,-121 1007,-103 1342.48,-121 1007,-139"/>
<text text-anchor="middle" x="1007" y="-117.3" font-family="Times,serif" font-size="14.00">10.0.88.125:31112#ServerID_OuterContainerID</text>
</g>
<!-- 10.1.80.247:8080#ServerID_OuterContainerID&#45;&gt;10.0.88.125:31112#ServerID_OuterContainerID -->
<g id="edge21" class="edge"><title>10.1.80.247:8080#ServerID_OuterContainerID&#45;&gt;10.0.88.125:31112#ServerID_OuterContainerID</title>
<path fill="none" stroke="black" d="M422.434,-215.319C546.818,-195.463 786.788,-157.154 917.247,-136.328"/>
<polygon fill="black" stroke="black" points="917.893,-139.769 927.216,-134.737 916.789,-132.857 917.893,-139.769"/>
<text text-anchor="middle" x="698" y="-181.8" font-family="Times,serif" font-size="14.00">RESPONSE</text>
</g>
<!-- localhost:3000#ServerID_34e86192c217 -->
<g id="node8" class="node"><title>localhost:3000#ServerID_34e86192c217</title>
<polygon fill="none" stroke="black" points="3334,-247 3047.45,-229 3334,-211 3620.55,-229 3334,-247"/>
<text text-anchor="middle" x="3334" y="-225.3" font-family="Times,serif" font-size="14.00">localhost:3000#ServerID_34e86192c217</text>
</g>
<!-- 1_fwatchdog#ServerID_34e86192c217&#45;&gt;localhost:3000#ServerID_34e86192c217 -->
<g id="edge9" class="edge"><title>1_fwatchdog#ServerID_34e86192c217&#45;&gt;localhost:3000#ServerID_34e86192c217</title>
<path fill="none" stroke="black" d="M3276.09,-318.969C3287.32,-301.714 3304.82,-274.828 3317.64,-255.126"/>
<polygon fill="black" stroke="black" points="3320.65,-256.929 3323.17,-246.639 3314.78,-253.11 3320.65,-256.929"/>
<text text-anchor="middle" x="3317" y="-289.8" font-family="Times,serif" font-size="14.00">write</text>
</g>
<!-- localhost:3000#ServerID_34e86192c217&#45;&gt;10_node#ServerID_34e86192c217 -->
<g id="edge13" class="edge"><title>localhost:3000#ServerID_34e86192c217&#45;&gt;10_node#ServerID_34e86192c217</title>
<path fill="none" stroke="black" d="M3311.42,-212.359C3285.7,-194.538 3243.43,-165.251 3214.01,-144.868"/>
<polygon fill="black" stroke="black" points="3215.91,-141.93 3205.7,-139.112 3211.93,-147.684 3215.91,-141.93"/>
<text text-anchor="middle" x="3297.5" y="-181.8" font-family="Times,serif" font-size="14.00">read</text>
</g>
<!-- localhost:3000#ServerID_e56b6537e2d5 -->
<g id="node9" class="node"><title>localhost:3000#ServerID_e56b6537e2d5</title>
<polygon fill="none" stroke="black" points="3932,-247 3645.45,-229 3932,-211 4218.55,-229 3932,-247"/>
<text text-anchor="middle" x="3932" y="-225.3" font-family="Times,serif" font-size="14.00">localhost:3000#ServerID_e56b6537e2d5</text>
</g>
<!-- localhost:3000#ServerID_e56b6537e2d5&#45;&gt;1_fwatchdog#ServerID_e56b6537e2d5 -->
<g id="edge11" class="edge"><title>localhost:3000#ServerID_e56b6537e2d5&#45;&gt;1_fwatchdog#ServerID_e56b6537e2d5</title>
<path fill="none" stroke="black" d="M3879.39,-214.146C3865.96,-208.968 3852.17,-202.064 3841,-193 3826.31,-181.083 3814.76,-163.187 3806.91,-148.344"/>
<polygon fill="black" stroke="black" points="3809.89,-146.495 3802.28,-139.124 3803.64,-149.632 3809.89,-146.495"/>
<text text-anchor="middle" x="3857.5" y="-181.8" font-family="Times,serif" font-size="14.00">read</text>
</g>
<!-- 12_node#ServerID_e56b6537e2d5 -->
<g id="node13" class="node"><title>12_node#ServerID_e56b6537e2d5</title>
<polygon fill="none" stroke="black" points="4229.5,-139 3962.5,-139 3962.5,-103 4229.5,-103 4229.5,-139"/>
<text text-anchor="middle" x="4096" y="-117.3" font-family="Times,serif" font-size="14.00">12_node#ServerID_e56b6537e2d5</text>
</g>
<!-- localhost:3000#ServerID_e56b6537e2d5&#45;&gt;12_node#ServerID_e56b6537e2d5 -->
<g id="edge18" class="edge"><title>localhost:3000#ServerID_e56b6537e2d5&#45;&gt;12_node#ServerID_e56b6537e2d5</title>
<path fill="none" stroke="black" d="M3956.2,-212.359C3983.89,-194.462 4029.47,-164.999 4061.02,-144.606"/>
<polygon fill="black" stroke="black" points="4063.03,-147.479 4069.53,-139.112 4059.23,-141.601 4063.03,-147.479"/>
<text text-anchor="middle" x="4025.5" y="-181.8" font-family="Times,serif" font-size="14.00">read</text>
</g>
<!-- 1_fwatchdog#ServerID_e56b6537e2d5&#45;&gt;localhost:3000#ServerID_e56b6537e2d5 -->
<g id="edge16" class="edge"><title>1_fwatchdog#ServerID_e56b6537e2d5&#45;&gt;localhost:3000#ServerID_e56b6537e2d5</title>
<path fill="none" stroke="black" d="M3820.35,-139.061C3836.07,-149.862 3856.52,-164.323 3874,-178 3884.99,-186.599 3896.71,-196.55 3906.73,-205.3"/>
<polygon fill="black" stroke="black" points="3904.53,-208.026 3914.34,-212.011 3909.15,-202.774 3904.53,-208.026"/>
<text text-anchor="middle" x="3910" y="-181.8" font-family="Times,serif" font-size="14.00">write</text>
</g>
<!-- pipe:[331682317]#ServerID_e56b6537e2d5 -->
<g id="node11" class="node"><title>pipe:[331682317]#ServerID_e56b6537e2d5</title>
<ellipse fill="none" stroke="black" cx="3862" cy="-34" rx="217.162" ry="18"/>
<text text-anchor="middle" x="3862" y="-30.3" font-family="Times,serif" font-size="14.00">pipe:[331682317]#ServerID_e56b6537e2d5</text>
</g>
<!-- 1_fwatchdog#ServerID_e56b6537e2d5&#45;&gt;pipe:[331682317]#ServerID_e56b6537e2d5 -->
<g id="edge12" class="edge"><title>1_fwatchdog#ServerID_e56b6537e2d5&#45;&gt;pipe:[331682317]#ServerID_e56b6537e2d5</title>
<path fill="none" stroke="black" d="M3808.56,-102.799C3818.18,-90.5865 3831.27,-73.9921 3842.08,-60.2776"/>
<polygon fill="black" stroke="black" points="3845.02,-62.1957 3848.46,-52.1754 3839.52,-57.8623 3845.02,-62.1957"/>
<text text-anchor="middle" x="3851" y="-73.8" font-family="Times,serif" font-size="14.00">write</text>
</g>
<!-- 10_node#ServerID_34e86192c217&#45;&gt;gateway:8080#ServerID_OuterContainerID -->
<g id="edge15" class="edge"><title>10_node#ServerID_34e86192c217&#45;&gt;gateway:8080#ServerID_OuterContainerID</title>
<path fill="none" stroke="black" d="M3139.97,-139.051C3111.16,-150.137 3071.41,-163.666 3035,-170 2969.73,-181.354 2803.2,-175.637 2737,-178 2407.55,-189.757 2325.26,-194.756 1996,-211 1945.24,-213.504 1889.88,-216.435 1839.97,-219.151"/>
<polygon fill="black" stroke="black" points="1839.53,-215.67 1829.74,-219.709 1839.92,-222.659 1839.53,-215.67"/>
<text text-anchor="middle" x="2766" y="-181.8" font-family="Times,serif" font-size="14.00">connect</text>
</g>
<!-- 10.1.80.1:50339#ServerID_OuterContainerID&#45;&gt;10.1.80.247:8080#ServerID_OuterContainerID -->
<g id="edge19" class="edge"><title>10.1.80.1:50339#ServerID_OuterContainerID&#45;&gt;10.1.80.247:8080#ServerID_OuterContainerID</title>
<path fill="none" stroke="black" d="M348.743,-138.449C356.653,-149.019 365.828,-163.453 370,-178 371.838,-184.408 372.151,-186.69 370,-193 368.79,-196.55 367.057,-200.021 365.047,-203.312"/>
<polygon fill="black" stroke="black" points="362.147,-201.351 359.24,-211.54 367.866,-205.387 362.147,-201.351"/>
<text text-anchor="middle" x="392" y="-181.8" font-family="Times,serif" font-size="14.00">POST</text>
</g>
</g>
</svg>
