<?xml version="1.0" encoding="UTF-8" standalone="no"?>
<!DOCTYPE svg PUBLIC "-//W3C//DTD SVG 1.1//EN"
 "http://www.w3.org/Graphics/SVG/1.1/DTD/svg11.dtd">
<!-- Generated by graphviz version 2.38.0 (20140413.2041)
 -->
<!-- Title: G Pages: 1 -->
<svg width="6076pt" height="489pt"
 viewBox="0.00 0.00 6076.00 489.00" xmlns="http://www.w3.org/2000/svg" xmlns:xlink="http://www.w3.org/1999/xlink">
<g id="graph0" class="graph" transform="scale(1 1) rotate(0) translate(4 485)">
<title>G</title>
<polygon fill="white" stroke="none" points="-4,4 -4,-485 6072,-485 6072,4 -4,4"/>
<g id="clust1" class="cluster"><title>clusterServerID_34e86192c217</title>
<polygon fill="none" stroke="black" points="4758,-8 4758,-257 5348,-257 5348,-8 4758,-8"/>
<text text-anchor="middle" x="5053" y="-241.8" font-family="Times,serif" font-size="14.00">clusterServerID_34e86192c217</text>
</g>
<g id="clust2" class="cluster"><title>clusterServerID_5f846fd567&#45;w7nbt</title>
<polygon fill="none" stroke="black" points="4236,-398 4236,-473 4576,-473 4576,-398 4236,-398"/>
<text text-anchor="middle" x="4406" y="-457.8" font-family="Times,serif" font-size="14.00">clusterServerID_5f846fd567&#45;w7nbt</text>
</g>
<g id="clust3" class="cluster"><title>clusterServerID_6df85d7674&#45;2kqrj</title>
<polygon fill="none" stroke="black" points="1543,-398 1543,-473 1881,-473 1881,-398 1543,-398"/>
<text text-anchor="middle" x="1712" y="-457.8" font-family="Times,serif" font-size="14.00">clusterServerID_6df85d7674&#45;2kqrj</text>
</g>
<g id="clust4" class="cluster"><title>clusterServerID_OuterContainerID</title>
<polygon fill="none" stroke="black" points="8,-182 8,-365 4750,-365 4750,-182 8,-182"/>
<text text-anchor="middle" x="2379" y="-349.8" font-family="Times,serif" font-size="14.00">clusterServerID_OuterContainerID</text>
</g>
<g id="clust5" class="cluster"><title>clusterServerID_e56b6537e2d5</title>
<polygon fill="none" stroke="black" points="5356,-95 5356,-257 5946,-257 5946,-95 5356,-95"/>
<text text-anchor="middle" x="5651" y="-241.8" font-family="Times,serif" font-size="14.00">clusterServerID_e56b6537e2d5</text>
</g>
<!-- 10.1.80.247:38012#ServerID_OuterContainerID -->
<g id="node1" class="node"><title>10.1.80.247:38012#ServerID_OuterContainerID</title>
<polygon fill="none" stroke="black" points="1713,-334 1377.52,-316 1713,-298 2048.48,-316 1713,-334"/>
<text text-anchor="middle" x="1713" y="-312.3" font-family="Times,serif" font-size="14.00">10.1.80.247:38012#ServerID_OuterContainerID</text>
</g>
<!-- 1_fwatchdog#ServerID_6df85d7674&#45;2kqrj -->
<g id="node2" class="node"><title>1_fwatchdog#ServerID_6df85d7674&#45;2kqrj</title>
<polygon fill="none" stroke="black" points="1872.5,-442 1551.5,-442 1551.5,-406 1872.5,-406 1872.5,-442"/>
<text text-anchor="middle" x="1712" y="-420.3" font-family="Times,serif" font-size="14.00">1_fwatchdog#ServerID_6df85d7674&#45;2kqrj</text>
</g>
<!-- 10.1.80.247:38012#ServerID_OuterContainerID&#45;&gt;1_fwatchdog#ServerID_6df85d7674&#45;2kqrj -->
<g id="edge1" class="edge"><title>10.1.80.247:38012#ServerID_OuterContainerID&#45;&gt;1_fwatchdog#ServerID_6df85d7674&#45;2kqrj</title>
<path fill="none" stroke="black" d="M1700.81,-333.692C1693.8,-344.353 1685.67,-358.798 1682,-373 1680.33,-379.455 1679.69,-381.747 1682,-388 1683.23,-391.328 1684.94,-394.554 1686.91,-397.612"/>
<polygon fill="black" stroke="black" points="1684.22,-399.86 1693.04,-405.736 1689.81,-395.644 1684.22,-399.86"/>
<text text-anchor="middle" x="1702" y="-376.8" font-family="Times,serif" font-size="14.00">POST</text>
</g>
<!-- 1_fwatchdog#ServerID_34e86192c217 -->
<g id="node7" class="node"><title>1_fwatchdog#ServerID_34e86192c217</title>
<polygon fill="none" stroke="black" points="5075.5,-226 4776.5,-226 4776.5,-190 5075.5,-190 5075.5,-226"/>
<text text-anchor="middle" x="4926" y="-204.3" font-family="Times,serif" font-size="14.00">1_fwatchdog#ServerID_34e86192c217</text>
</g>
<!-- 10.1.80.247:38012#ServerID_OuterContainerID&#45;&gt;1_fwatchdog#ServerID_34e86192c217 -->
<g id="edge13" class="edge"><title>10.1.80.247:38012#ServerID_OuterContainerID&#45;&gt;1_fwatchdog#ServerID_34e86192c217</title>
<path fill="none" stroke="black" d="M1870.54,-306.43C1929.36,-303.443 1996.72,-300.274 2058,-298 2645.78,-276.191 2792.89,-274.047 3381,-265 3457.27,-263.827 4678.46,-267.568 4754,-257 4792.82,-251.57 4835.24,-239.797 4868.24,-229.27"/>
<polygon fill="black" stroke="black" points="4869.74,-232.466 4878.17,-226.052 4867.58,-225.807 4869.74,-232.466"/>
<text text-anchor="middle" x="3397.5" y="-268.8" font-family="Times,serif" font-size="14.00">read</text>
</g>
<!-- 1_fwatchdog#ServerID_6df85d7674&#45;2kqrj&#45;&gt;10.1.80.247:38012#ServerID_OuterContainerID -->
<g id="edge4" class="edge"><title>1_fwatchdog#ServerID_6df85d7674&#45;2kqrj&#45;&gt;10.1.80.247:38012#ServerID_OuterContainerID</title>
<path fill="none" stroke="black" d="M1717.96,-405.759C1719.61,-400.165 1721.18,-393.883 1722,-388 1724.04,-373.436 1722.27,-357.162 1719.78,-343.873"/>
<polygon fill="black" stroke="black" points="1723.17,-343.006 1717.68,-333.944 1716.32,-344.452 1723.17,-343.006"/>
<text text-anchor="middle" x="1765" y="-376.8" font-family="Times,serif" font-size="14.00">RESPONSE</text>
</g>
<!-- gateway:8080#ServerID_OuterContainerID -->
<g id="node5" class="node"><title>gateway:8080#ServerID_OuterContainerID</title>
<polygon fill="none" stroke="black" points="3749,-334 3444.52,-316 3749,-298 4053.48,-316 3749,-334"/>
<text text-anchor="middle" x="3749" y="-312.3" font-family="Times,serif" font-size="14.00">gateway:8080#ServerID_OuterContainerID</text>
</g>
<!-- 1_fwatchdog#ServerID_6df85d7674&#45;2kqrj&#45;&gt;gateway:8080#ServerID_OuterContainerID -->
<g id="edge6" class="edge"><title>1_fwatchdog#ServerID_6df85d7674&#45;2kqrj&#45;&gt;gateway:8080#ServerID_OuterContainerID</title>
<path fill="none" stroke="black" d="M1872.64,-416.673C2132.6,-406.564 2661.67,-386.535 3110,-373 3254.42,-368.64 3291.07,-377.72 3435,-365 3515.82,-357.857 3607.46,-343.07 3670.79,-331.784"/>
<polygon fill="black" stroke="black" points="3671.47,-335.217 3680.7,-330.005 3670.24,-328.327 3671.47,-335.217"/>
<text text-anchor="middle" x="3130" y="-376.8" font-family="Times,serif" font-size="14.00">POST</text>
</g>
<!-- 10.1.80.247:8080#ServerID_OuterContainerID -->
<g id="node6" class="node"><title>10.1.80.247:8080#ServerID_OuterContainerID</title>
<polygon fill="none" stroke="black" points="343,-334 15.5599,-316 343,-298 670.44,-316 343,-334"/>
<text text-anchor="middle" x="343" y="-312.3" font-family="Times,serif" font-size="14.00">10.1.80.247:8080#ServerID_OuterContainerID</text>
</g>
<!-- 1_fwatchdog#ServerID_6df85d7674&#45;2kqrj&#45;&gt;10.1.80.247:8080#ServerID_OuterContainerID -->
<g id="edge5" class="edge"><title>1_fwatchdog#ServerID_6df85d7674&#45;2kqrj&#45;&gt;10.1.80.247:8080#ServerID_OuterContainerID</title>
<path fill="none" stroke="black" d="M1551.07,-419.736C1347.62,-414.282 986.866,-400.195 680,-365 596.092,-355.377 500.842,-341.539 433.064,-331.191"/>
<polygon fill="black" stroke="black" points="433.263,-327.681 422.848,-329.626 432.203,-334.6 433.263,-327.681"/>
<text text-anchor="middle" x="926" y="-376.8" font-family="Times,serif" font-size="14.00">POST</text>
</g>
<!-- 1_fwatchdog#ServerID_5f846fd567&#45;w7nbt -->
<g id="node3" class="node"><title>1_fwatchdog#ServerID_5f846fd567&#45;w7nbt</title>
<polygon fill="none" stroke="black" points="4568,-442 4244,-442 4244,-406 4568,-406 4568,-442"/>
<text text-anchor="middle" x="4406" y="-420.3" font-family="Times,serif" font-size="14.00">1_fwatchdog#ServerID_5f846fd567&#45;w7nbt</text>
</g>
<!-- 10.1.80.247:40024#ServerID_OuterContainerID -->
<g id="node4" class="node"><title>10.1.80.247:40024#ServerID_OuterContainerID</title>
<polygon fill="none" stroke="black" points="4407,-334 4071.52,-316 4407,-298 4742.48,-316 4407,-334"/>
<text text-anchor="middle" x="4407" y="-312.3" font-family="Times,serif" font-size="14.00">10.1.80.247:40024#ServerID_OuterContainerID</text>
</g>
<!-- 1_fwatchdog#ServerID_5f846fd567&#45;w7nbt&#45;&gt;10.1.80.247:40024#ServerID_OuterContainerID -->
<g id="edge2" class="edge"><title>1_fwatchdog#ServerID_5f846fd567&#45;w7nbt&#45;&gt;10.1.80.247:40024#ServerID_OuterContainerID</title>
<path fill="none" stroke="black" d="M4370.26,-405.861C4363.73,-401.032 4357.78,-395.108 4354,-388 4350.87,-382.115 4351.53,-379.194 4354,-373 4359,-360.439 4368.31,-349.073 4377.74,-339.914"/>
<polygon fill="black" stroke="black" points="4380.22,-342.386 4385.25,-333.061 4375.51,-337.214 4380.22,-342.386"/>
<text text-anchor="middle" x="4396" y="-376.8" font-family="Times,serif" font-size="14.00">RESPONSE</text>
</g>
<!-- 10.1.80.247:40024#ServerID_OuterContainerID&#45;&gt;1_fwatchdog#ServerID_5f846fd567&#45;w7nbt -->
<g id="edge8" class="edge"><title>10.1.80.247:40024#ServerID_OuterContainerID&#45;&gt;1_fwatchdog#ServerID_5f846fd567&#45;w7nbt</title>
<path fill="none" stroke="black" d="M4422.08,-333.48C4433.24,-347.767 4445.35,-369.067 4438,-388 4436.64,-391.507 4434.74,-394.876 4432.55,-398.046"/>
<polygon fill="black" stroke="black" points="4429.75,-395.944 4426.2,-405.928 4435.2,-400.335 4429.75,-395.944"/>
<text text-anchor="middle" x="4461" y="-376.8" font-family="Times,serif" font-size="14.00">POST</text>
</g>
<!-- 1_fwatchdog#ServerID_e56b6537e2d5 -->
<g id="node11" class="node"><title>1_fwatchdog#ServerID_e56b6537e2d5</title>
<polygon fill="none" stroke="black" points="5683.5,-226 5384.5,-226 5384.5,-190 5683.5,-190 5683.5,-226"/>
<text text-anchor="middle" x="5534" y="-204.3" font-family="Times,serif" font-size="14.00">1_fwatchdog#ServerID_e56b6537e2d5</text>
</g>
<!-- 10.1.80.247:40024#ServerID_OuterContainerID&#45;&gt;1_fwatchdog#ServerID_e56b6537e2d5 -->
<g id="edge19" class="edge"><title>10.1.80.247:40024#ServerID_OuterContainerID&#45;&gt;1_fwatchdog#ServerID_e56b6537e2d5</title>
<path fill="none" stroke="black" d="M4677.13,-312.487C4866.98,-307.298 5126.33,-293.322 5352,-257 5391.93,-250.572 5435.8,-239.139 5470.46,-229.042"/>
<polygon fill="black" stroke="black" points="5471.84,-232.284 5480.44,-226.098 5469.86,-225.57 5471.84,-232.284"/>
<text text-anchor="middle" x="5293.5" y="-268.8" font-family="Times,serif" font-size="14.00">read</text>
</g>
<!-- gateway:8080#ServerID_OuterContainerID&#45;&gt;1_fwatchdog#ServerID_6df85d7674&#45;2kqrj -->
<g id="edge3" class="edge"><title>gateway:8080#ServerID_OuterContainerID&#45;&gt;1_fwatchdog#ServerID_6df85d7674&#45;2kqrj</title>
<path fill="none" stroke="black" d="M3680.07,-329.935C3616.64,-341.265 3519.84,-357.116 3435,-365 2868.5,-417.649 2193.29,-424.089 1883.17,-423.916"/>
<polygon fill="black" stroke="black" points="1882.74,-420.415 1872.74,-423.907 1882.74,-427.415 1882.74,-420.415"/>
<text text-anchor="middle" x="3385" y="-376.8" font-family="Times,serif" font-size="14.00">RESPONSE</text>
</g>
<!-- 10_node#ServerID_34e86192c217 -->
<g id="node10" class="node"><title>10_node#ServerID_34e86192c217</title>
<polygon fill="none" stroke="black" points="5339.5,-52 5072.5,-52 5072.5,-16 5339.5,-16 5339.5,-52"/>
<text text-anchor="middle" x="5206" y="-30.3" font-family="Times,serif" font-size="14.00">10_node#ServerID_34e86192c217</text>
</g>
<!-- gateway:8080#ServerID_OuterContainerID&#45;&gt;10_node#ServerID_34e86192c217 -->
<g id="edge22" class="edge"><title>gateway:8080#ServerID_OuterContainerID&#45;&gt;10_node#ServerID_34e86192c217</title>
<path fill="none" stroke="black" d="M3887.67,-306.187C3942.29,-303.058 4005.57,-299.854 4063,-298 4444.82,-285.671 5400.78,-304.756 5782,-280 5867.76,-274.431 5900.72,-301.896 5974,-257 6017.62,-230.276 6049.99,-204.502 6031,-157 6007.73,-98.7976 5980.75,-85.4202 5920,-70 5816.01,-43.6063 5526.81,-36.8992 5350.01,-35.3261"/>
<polygon fill="black" stroke="black" points="5349.87,-31.8249 5339.84,-35.2402 5349.81,-38.8247 5349.87,-31.8249"/>
<text text-anchor="middle" x="6051.5" y="-160.8" font-family="Times,serif" font-size="14.00">read</text>
</g>
<!-- 10.1.80.247:8080#ServerID_OuterContainerID&#45;&gt;1_fwatchdog#ServerID_6df85d7674&#45;2kqrj -->
<g id="edge7" class="edge"><title>10.1.80.247:8080#ServerID_OuterContainerID&#45;&gt;1_fwatchdog#ServerID_6df85d7674&#45;2kqrj</title>
<path fill="none" stroke="black" d="M417.018,-329.974C485.116,-341.33 589.028,-357.198 680,-365 799.614,-375.258 830.083,-367.291 950,-373 1153.28,-382.678 1386.76,-398.727 1541.12,-410.027"/>
<polygon fill="black" stroke="black" points="1540.95,-413.523 1551.18,-410.764 1541.46,-406.542 1540.95,-413.523"/>
<text text-anchor="middle" x="1244" y="-376.8" font-family="Times,serif" font-size="14.00">RESPONSE</text>
</g>
<!-- 10.1.80.1:21621#ServerID_OuterContainerID -->
<g id="node15" class="node"><title>10.1.80.1:21621#ServerID_OuterContainerID</title>
<polygon fill="none" stroke="black" points="335,-226 16.1049,-208 335,-190 653.895,-208 335,-226"/>
<text text-anchor="middle" x="335" y="-204.3" font-family="Times,serif" font-size="14.00">10.1.80.1:21621#ServerID_OuterContainerID</text>
</g>
<!-- 10.1.80.247:8080#ServerID_OuterContainerID&#45;&gt;10.1.80.1:21621#ServerID_OuterContainerID -->
<g id="edge24" class="edge"><title>10.1.80.247:8080#ServerID_OuterContainerID&#45;&gt;10.1.80.1:21621#ServerID_OuterContainerID</title>
<path fill="none" stroke="black" d="M345.928,-297.962C346.775,-292.269 347.582,-285.878 348,-280 348.473,-273.35 348.759,-271.623 348,-265 346.894,-255.346 344.749,-244.935 342.515,-235.74"/>
<polygon fill="black" stroke="black" points="345.886,-234.793 340.006,-225.98 339.106,-236.536 345.886,-234.793"/>
<text text-anchor="middle" x="391" y="-268.8" font-family="Times,serif" font-size="14.00">RESPONSE</text>
</g>
<!-- 10.0.88.125:31112#ServerID_OuterContainerID -->
<g id="node16" class="node"><title>10.0.88.125:31112#ServerID_OuterContainerID</title>
<polygon fill="none" stroke="black" points="1007,-226 671.515,-208 1007,-190 1342.48,-208 1007,-226"/>
<text text-anchor="middle" x="1007" y="-204.3" font-family="Times,serif" font-size="14.00">10.0.88.125:31112#ServerID_OuterContainerID</text>
</g>
<!-- 10.1.80.247:8080#ServerID_OuterContainerID&#45;&gt;10.0.88.125:31112#ServerID_OuterContainerID -->
<g id="edge25" class="edge"><title>10.1.80.247:8080#ServerID_OuterContainerID&#45;&gt;10.0.88.125:31112#ServerID_OuterContainerID</title>
<path fill="none" stroke="black" d="M422.434,-302.319C546.818,-282.463 786.788,-244.154 917.247,-223.328"/>
<polygon fill="black" stroke="black" points="917.893,-226.769 927.216,-221.737 916.789,-219.857 917.893,-226.769"/>
<text text-anchor="middle" x="698" y="-268.8" font-family="Times,serif" font-size="14.00">RESPONSE</text>
</g>
<!-- localhost:3000#ServerID_34e86192c217 -->
<g id="node8" class="node"><title>localhost:3000#ServerID_34e86192c217</title>
<polygon fill="none" stroke="black" points="5053,-139 4766.45,-121 5053,-103 5339.55,-121 5053,-139"/>
<text text-anchor="middle" x="5053" y="-117.3" font-family="Times,serif" font-size="14.00">localhost:3000#ServerID_34e86192c217</text>
</g>
<!-- 1_fwatchdog#ServerID_34e86192c217&#45;&gt;localhost:3000#ServerID_34e86192c217 -->
<g id="edge9" class="edge"><title>1_fwatchdog#ServerID_34e86192c217&#45;&gt;localhost:3000#ServerID_34e86192c217</title>
<path fill="none" stroke="black" d="M5000.03,-189.971C5010.53,-185.336 5020.59,-179.455 5029,-172 5036.04,-165.756 5041.21,-156.99 5044.9,-148.539"/>
<polygon fill="black" stroke="black" points="5048.27,-149.523 5048.58,-138.932 5041.73,-147.016 5048.27,-149.523"/>
<text text-anchor="middle" x="5070" y="-160.8" font-family="Times,serif" font-size="14.00">connect</text>
</g>
<!-- 1_fwatchdog#ServerID_34e86192c217&#45;&gt;localhost:3000#ServerID_34e86192c217 -->
<g id="edge11" class="edge"><title>1_fwatchdog#ServerID_34e86192c217&#45;&gt;localhost:3000#ServerID_34e86192c217</title>
<path fill="none" stroke="black" d="M4922.82,-189.905C4921.85,-179.301 4922.6,-166.024 4930,-157 4936.61,-148.933 4944.94,-142.648 4954.13,-137.763"/>
<polygon fill="black" stroke="black" points="4955.63,-140.926 4963.18,-133.496 4952.65,-134.595 4955.63,-140.926"/>
<text text-anchor="middle" x="4949" y="-160.8" font-family="Times,serif" font-size="14.00">write</text>
</g>
<!-- localhost:3000#ServerID_34e86192c217&#45;&gt;1_fwatchdog#ServerID_34e86192c217 -->
<g id="edge10" class="edge"><title>localhost:3000#ServerID_34e86192c217&#45;&gt;1_fwatchdog#ServerID_34e86192c217</title>
<path fill="none" stroke="black" d="M5024.61,-137.297C5014.18,-143.174 5002.39,-150.127 4992,-157 4979.68,-165.155 4966.61,-174.823 4955.38,-183.474"/>
<polygon fill="black" stroke="black" points="4952.93,-180.943 4947.2,-189.849 4957.24,-186.465 4952.93,-180.943"/>
<text text-anchor="middle" x="5008.5" y="-160.8" font-family="Times,serif" font-size="14.00">read</text>
</g>
<!-- localhost:3000#ServerID_34e86192c217&#45;&gt;10_node#ServerID_34e86192c217 -->
<g id="edge14" class="edge"><title>localhost:3000#ServerID_34e86192c217&#45;&gt;10_node#ServerID_34e86192c217</title>
<path fill="none" stroke="black" d="M5080.71,-104.607C5104.69,-91.2826 5139.66,-71.8571 5166.56,-56.911"/>
<polygon fill="black" stroke="black" points="5168.31,-59.9454 5175.35,-52.0294 5164.91,-53.8263 5168.31,-59.9454"/>
<text text-anchor="middle" x="5155.5" y="-73.8" font-family="Times,serif" font-size="14.00">read</text>
</g>
<!-- 10.1.80.247:38022#ServerID_OuterContainerID -->
<g id="node9" class="node"><title>10.1.80.247:38022#ServerID_OuterContainerID</title>
<polygon fill="none" stroke="black" points="2402,-334 2066.52,-316 2402,-298 2737.48,-316 2402,-334"/>
<text text-anchor="middle" x="2402" y="-312.3" font-family="Times,serif" font-size="14.00">10.1.80.247:38022#ServerID_OuterContainerID</text>
</g>
<!-- 10.1.80.247:38022#ServerID_OuterContainerID&#45;&gt;1_fwatchdog#ServerID_34e86192c217 -->
<g id="edge12" class="edge"><title>10.1.80.247:38022#ServerID_OuterContainerID&#45;&gt;1_fwatchdog#ServerID_34e86192c217</title>
<path fill="none" stroke="black" d="M2558.25,-306.348C2617.36,-303.325 2685.27,-300.153 2747,-298 3462.72,-273.041 3642,-279.566 4358,-265 4402,-264.105 4710.46,-263.41 4754,-257 4792.5,-251.332 4834.59,-239.684 4867.5,-229.281"/>
<polygon fill="black" stroke="black" points="4868.95,-232.491 4877.41,-226.101 4866.81,-225.826 4868.95,-232.491"/>
<text text-anchor="middle" x="4374.5" y="-268.8" font-family="Times,serif" font-size="14.00">read</text>
</g>
<!-- 10_node#ServerID_34e86192c217&#45;&gt;gateway:8080#ServerID_OuterContainerID -->
<g id="edge15" class="edge"><title>10_node#ServerID_34e86192c217&#45;&gt;gateway:8080#ServerID_OuterContainerID</title>
<path fill="none" stroke="black" d="M5339.86,-36.1719C5542.91,-39.3598 5909.58,-51.1883 5950,-95 5974.41,-121.459 5974.99,-231.088 5950,-257 5913.6,-294.737 4115.4,-296.205 4063,-298 4009.55,-299.831 3951.02,-302.75 3899.13,-305.657"/>
<polygon fill="black" stroke="black" points="3898.63,-302.179 3888.84,-306.237 3899.03,-309.168 3898.63,-302.179"/>
<text text-anchor="middle" x="5998" y="-160.8" font-family="Times,serif" font-size="14.00">connect</text>
</g>
<!-- localhost:3000#ServerID_e56b6537e2d5 -->
<g id="node12" class="node"><title>localhost:3000#ServerID_e56b6537e2d5</title>
<polygon fill="none" stroke="black" points="5651,-139 5364.45,-121 5651,-103 5937.55,-121 5651,-139"/>
<text text-anchor="middle" x="5651" y="-117.3" font-family="Times,serif" font-size="14.00">localhost:3000#ServerID_e56b6537e2d5</text>
</g>
<!-- 1_fwatchdog#ServerID_e56b6537e2d5&#45;&gt;localhost:3000#ServerID_e56b6537e2d5 -->
<g id="edge16" class="edge"><title>1_fwatchdog#ServerID_e56b6537e2d5&#45;&gt;localhost:3000#ServerID_e56b6537e2d5</title>
<path fill="none" stroke="black" d="M5601.79,-189.799C5611.71,-185.176 5621.19,-179.345 5629,-172 5635.75,-165.65 5640.56,-156.859 5643.92,-148.417"/>
<polygon fill="black" stroke="black" points="5647.27,-149.43 5647.22,-138.835 5640.65,-147.145 5647.27,-149.43"/>
<text text-anchor="middle" x="5669" y="-160.8" font-family="Times,serif" font-size="14.00">connect</text>
</g>
<!-- 1_fwatchdog#ServerID_e56b6537e2d5&#45;&gt;localhost:3000#ServerID_e56b6537e2d5 -->
<g id="edge18" class="edge"><title>1_fwatchdog#ServerID_e56b6537e2d5&#45;&gt;localhost:3000#ServerID_e56b6537e2d5</title>
<path fill="none" stroke="black" d="M5528.7,-189.636C5526.62,-179.191 5526.14,-166.184 5533,-157 5538.88,-149.12 5546.46,-142.943 5554.94,-138.11"/>
<polygon fill="black" stroke="black" points="5556.69,-141.149 5564.06,-133.545 5553.56,-134.888 5556.69,-141.149"/>
<text text-anchor="middle" x="5552" y="-160.8" font-family="Times,serif" font-size="14.00">write</text>
</g>
<!-- localhost:3000#ServerID_e56b6537e2d5&#45;&gt;1_fwatchdog#ServerID_e56b6537e2d5 -->
<g id="edge17" class="edge"><title>localhost:3000#ServerID_e56b6537e2d5&#45;&gt;1_fwatchdog#ServerID_e56b6537e2d5</title>
<path fill="none" stroke="black" d="M5622.75,-137.405C5612.79,-143.185 5601.67,-150.047 5592,-157 5585.63,-161.584 5572.78,-172.584 5560.8,-183.102"/>
<polygon fill="black" stroke="black" points="5558.31,-180.632 5553.13,-189.872 5562.94,-185.881 5558.31,-180.632"/>
<text text-anchor="middle" x="5608.5" y="-160.8" font-family="Times,serif" font-size="14.00">read</text>
</g>
<!-- 10.1.80.247:40030#ServerID_OuterContainerID -->
<g id="node13" class="node"><title>10.1.80.247:40030#ServerID_OuterContainerID</title>
<polygon fill="none" stroke="black" points="3091,-334 2755.52,-316 3091,-298 3426.48,-316 3091,-334"/>
<text text-anchor="middle" x="3091" y="-312.3" font-family="Times,serif" font-size="14.00">10.1.80.247:40030#ServerID_OuterContainerID</text>
</g>
<!-- 10.1.80.247:40030#ServerID_OuterContainerID&#45;&gt;1_fwatchdog#ServerID_e56b6537e2d5 -->
<g id="edge20" class="edge"><title>10.1.80.247:40030#ServerID_OuterContainerID&#45;&gt;1_fwatchdog#ServerID_e56b6537e2d5</title>
<path fill="none" stroke="black" d="M3247.25,-306.378C3306.37,-303.359 3374.27,-300.181 3436,-298 3489.2,-296.12 5299.28,-264.409 5352,-257 5392.97,-251.242 5437.92,-239.441 5472.91,-228.981"/>
<polygon fill="black" stroke="black" points="5473.94,-232.324 5482.5,-226.073 5471.91,-225.625 5473.94,-232.324"/>
<text text-anchor="middle" x="5075.5" y="-268.8" font-family="Times,serif" font-size="14.00">read</text>
</g>
<!-- 10.1.80.247:38098#ServerID_OuterContainerID -->
<g id="node14" class="node"><title>10.1.80.247:38098#ServerID_OuterContainerID</title>
<polygon fill="none" stroke="black" points="1024,-334 688.515,-316 1024,-298 1359.48,-316 1024,-334"/>
<text text-anchor="middle" x="1024" y="-312.3" font-family="Times,serif" font-size="14.00">10.1.80.247:38098#ServerID_OuterContainerID</text>
</g>
<!-- 10.1.80.247:38098#ServerID_OuterContainerID&#45;&gt;1_fwatchdog#ServerID_34e86192c217 -->
<g id="edge21" class="edge"><title>10.1.80.247:38098#ServerID_OuterContainerID&#45;&gt;1_fwatchdog#ServerID_34e86192c217</title>
<path fill="none" stroke="black" d="M1182.41,-306.469C1241.02,-303.503 1308.03,-300.338 1369,-298 1903.47,-277.504 2037.2,-273.314 2572,-265 2632.6,-264.058 4693.96,-265.332 4754,-257 4792.82,-251.612 4835.25,-239.84 4868.25,-229.303"/>
<polygon fill="black" stroke="black" points="4869.74,-232.497 4878.17,-226.081 4867.58,-225.839 4869.74,-232.497"/>
<text text-anchor="middle" x="2588.5" y="-268.8" font-family="Times,serif" font-size="14.00">read</text>
</g>
<!-- 10.1.80.1:21621#ServerID_OuterContainerID&#45;&gt;10.1.80.247:8080#ServerID_OuterContainerID -->
<g id="edge23" class="edge"><title>10.1.80.1:21621#ServerID_OuterContainerID&#45;&gt;10.1.80.247:8080#ServerID_OuterContainerID</title>
<path fill="none" stroke="black" d="M321.454,-225.463C311.286,-239.923 300.329,-261.481 308,-280 309.665,-284.019 312.04,-287.818 314.779,-291.325"/>
<polygon fill="black" stroke="black" points="312.368,-293.877 321.669,-298.949 317.561,-289.183 312.368,-293.877"/>
<text text-anchor="middle" x="328" y="-268.8" font-family="Times,serif" font-size="14.00">POST</text>
</g>
</g>
</svg>
