<?xml version="1.0" encoding="UTF-8" standalone="no"?>
<!DOCTYPE svg PUBLIC "-//W3C//DTD SVG 1.1//EN"
 "http://www.w3.org/Graphics/SVG/1.1/DTD/svg11.dtd">
<!-- Generated by graphviz version 2.38.0 (20140413.2041)
 -->
<!-- Title: G Pages: 1 -->
<svg width="8057pt" height="489pt"
 viewBox="0.00 0.00 8057.00 489.00" xmlns="http://www.w3.org/2000/svg" xmlns:xlink="http://www.w3.org/1999/xlink">
<g id="graph0" class="graph" transform="scale(1 1) rotate(0) translate(4 485)">
<title>G</title>
<polygon fill="white" stroke="none" points="-4,4 -4,-485 8053,-485 8053,4 -4,4"/>
<g id="clust1" class="cluster"><title>clusterServerID_34e86192c217</title>
<polygon fill="none" stroke="black" points="5778,-8 5778,-257 7174,-257 7174,-8 5778,-8"/>
<text text-anchor="middle" x="6476" y="-241.8" font-family="Times,serif" font-size="14.00">clusterServerID_34e86192c217</text>
</g>
<g id="clust2" class="cluster"><title>clusterServerID_5f846fd567&#45;w7nbt</title>
<polygon fill="none" stroke="black" points="5430,-182 5430,-257 5770,-257 5770,-182 5430,-182"/>
<text text-anchor="middle" x="5600" y="-241.8" font-family="Times,serif" font-size="14.00">clusterServerID_5f846fd567&#45;w7nbt</text>
</g>
<g id="clust3" class="cluster"><title>clusterServerID_6df85d7674&#45;2kqrj</title>
<polygon fill="none" stroke="black" points="2232,-398 2232,-473 2570,-473 2570,-398 2232,-398"/>
<text text-anchor="middle" x="2401" y="-457.8" font-family="Times,serif" font-size="14.00">clusterServerID_6df85d7674&#45;2kqrj</text>
</g>
<g id="clust4" class="cluster"><title>clusterServerID_OuterContainerID</title>
<polygon fill="none" stroke="black" points="8,-182 8,-365 5422,-365 5422,-182 8,-182"/>
<text text-anchor="middle" x="2715" y="-349.8" font-family="Times,serif" font-size="14.00">clusterServerID_OuterContainerID</text>
</g>
<g id="clust5" class="cluster"><title>clusterServerID_e56b6537e2d5</title>
<polygon fill="none" stroke="black" points="7182,-95 7182,-257 7772,-257 7772,-95 7182,-95"/>
<text text-anchor="middle" x="7477" y="-241.8" font-family="Times,serif" font-size="14.00">clusterServerID_e56b6537e2d5</text>
</g>
<!-- 10.1.80.247:37976#ServerID_OuterContainerID -->
<g id="node1" class="node"><title>10.1.80.247:37976#ServerID_OuterContainerID</title>
<polygon fill="none" stroke="black" points="2402,-334 2066.52,-316 2402,-298 2737.48,-316 2402,-334"/>
<text text-anchor="middle" x="2402" y="-312.3" font-family="Times,serif" font-size="14.00">10.1.80.247:37976#ServerID_OuterContainerID</text>
</g>
<!-- 1_fwatchdog#ServerID_6df85d7674&#45;2kqrj -->
<g id="node2" class="node"><title>1_fwatchdog#ServerID_6df85d7674&#45;2kqrj</title>
<polygon fill="none" stroke="black" points="2561.5,-442 2240.5,-442 2240.5,-406 2561.5,-406 2561.5,-442"/>
<text text-anchor="middle" x="2401" y="-420.3" font-family="Times,serif" font-size="14.00">1_fwatchdog#ServerID_6df85d7674&#45;2kqrj</text>
</g>
<!-- 10.1.80.247:37976#ServerID_OuterContainerID&#45;&gt;1_fwatchdog#ServerID_6df85d7674&#45;2kqrj -->
<g id="edge1" class="edge"><title>10.1.80.247:37976#ServerID_OuterContainerID&#45;&gt;1_fwatchdog#ServerID_6df85d7674&#45;2kqrj</title>
<path fill="none" stroke="black" d="M2389.81,-333.692C2382.8,-344.353 2374.67,-358.798 2371,-373 2369.33,-379.455 2368.69,-381.747 2371,-388 2372.23,-391.328 2373.94,-394.554 2375.91,-397.612"/>
<polygon fill="black" stroke="black" points="2373.22,-399.86 2382.04,-405.736 2378.81,-395.644 2373.22,-399.86"/>
<text text-anchor="middle" x="2391" y="-376.8" font-family="Times,serif" font-size="14.00">POST</text>
</g>
<!-- 1_fwatchdog#ServerID_34e86192c217 -->
<g id="node7" class="node"><title>1_fwatchdog#ServerID_34e86192c217</title>
<polygon fill="none" stroke="black" points="6085.5,-226 5786.5,-226 5786.5,-190 6085.5,-190 6085.5,-226"/>
<text text-anchor="middle" x="5936" y="-204.3" font-family="Times,serif" font-size="14.00">1_fwatchdog#ServerID_34e86192c217</text>
</g>
<!-- 10.1.80.247:37976#ServerID_OuterContainerID&#45;&gt;1_fwatchdog#ServerID_34e86192c217 -->
<g id="edge12" class="edge"><title>10.1.80.247:37976#ServerID_OuterContainerID&#45;&gt;1_fwatchdog#ServerID_34e86192c217</title>
<path fill="none" stroke="black" d="M2557.38,-306.314C2616.7,-303.268 2684.97,-300.09 2747,-298 3556.45,-270.733 3759.15,-275.022 4569,-265 4635.94,-264.172 5707.78,-266.829 5774,-257 5810.52,-251.579 5850.3,-239.884 5881.29,-229.395"/>
<polygon fill="black" stroke="black" points="5882.72,-232.607 5891.03,-226.042 5880.44,-225.988 5882.72,-232.607"/>
<text text-anchor="middle" x="4585.5" y="-268.8" font-family="Times,serif" font-size="14.00">read</text>
</g>
<!-- 1_fwatchdog#ServerID_6df85d7674&#45;2kqrj&#45;&gt;10.1.80.247:37976#ServerID_OuterContainerID -->
<g id="edge2" class="edge"><title>1_fwatchdog#ServerID_6df85d7674&#45;2kqrj&#45;&gt;10.1.80.247:37976#ServerID_OuterContainerID</title>
<path fill="none" stroke="black" d="M2406.96,-405.759C2408.61,-400.165 2410.18,-393.883 2411,-388 2413.04,-373.436 2411.27,-357.162 2408.78,-343.873"/>
<polygon fill="black" stroke="black" points="2412.17,-343.006 2406.68,-333.944 2405.32,-344.452 2412.17,-343.006"/>
<text text-anchor="middle" x="2454" y="-376.8" font-family="Times,serif" font-size="14.00">RESPONSE</text>
</g>
<!-- 10.1.80.247:8080#ServerID_OuterContainerID -->
<g id="node3" class="node"><title>10.1.80.247:8080#ServerID_OuterContainerID</title>
<polygon fill="none" stroke="black" points="343,-334 15.5599,-316 343,-298 670.44,-316 343,-334"/>
<text text-anchor="middle" x="343" y="-312.3" font-family="Times,serif" font-size="14.00">10.1.80.247:8080#ServerID_OuterContainerID</text>
</g>
<!-- 1_fwatchdog#ServerID_6df85d7674&#45;2kqrj&#45;&gt;10.1.80.247:8080#ServerID_OuterContainerID -->
<g id="edge5" class="edge"><title>1_fwatchdog#ServerID_6df85d7674&#45;2kqrj&#45;&gt;10.1.80.247:8080#ServerID_OuterContainerID</title>
<path fill="none" stroke="black" d="M2240.35,-421.619C1900.4,-418.329 1117.75,-408.707 852,-388 701.069,-376.24 526.612,-348.879 426.116,-331.764"/>
<polygon fill="black" stroke="black" points="426.475,-328.275 416.028,-330.038 425.294,-335.174 426.475,-328.275"/>
<text text-anchor="middle" x="872" y="-376.8" font-family="Times,serif" font-size="14.00">POST</text>
</g>
<!-- gateway:8080#ServerID_OuterContainerID -->
<g id="node6" class="node"><title>gateway:8080#ServerID_OuterContainerID</title>
<polygon fill="none" stroke="black" points="4438,-334 4133.52,-316 4438,-298 4742.48,-316 4438,-334"/>
<text text-anchor="middle" x="4438" y="-312.3" font-family="Times,serif" font-size="14.00">gateway:8080#ServerID_OuterContainerID</text>
</g>
<!-- 1_fwatchdog#ServerID_6df85d7674&#45;2kqrj&#45;&gt;gateway:8080#ServerID_OuterContainerID -->
<g id="edge7" class="edge"><title>1_fwatchdog#ServerID_6df85d7674&#45;2kqrj&#45;&gt;gateway:8080#ServerID_OuterContainerID</title>
<path fill="none" stroke="black" d="M2561.59,-417.845C2982.04,-404.315 4085.43,-368.584 4124,-365 4204.53,-357.516 4295.84,-342.854 4359.15,-331.694"/>
<polygon fill="black" stroke="black" points="4359.83,-335.128 4369.07,-329.935 4358.61,-328.236 4359.83,-335.128"/>
<text text-anchor="middle" x="3912" y="-376.8" font-family="Times,serif" font-size="14.00">POST</text>
</g>
<!-- 10.1.80.247:8080#ServerID_OuterContainerID&#45;&gt;1_fwatchdog#ServerID_6df85d7674&#45;2kqrj -->
<g id="edge3" class="edge"><title>10.1.80.247:8080#ServerID_OuterContainerID&#45;&gt;1_fwatchdog#ServerID_6df85d7674&#45;2kqrj</title>
<path fill="none" stroke="black" d="M417.357,-329.942C485.465,-341.235 589.192,-357.026 680,-365 756.183,-371.69 1810.39,-404.749 2230.24,-417.743"/>
<polygon fill="black" stroke="black" points="2230.24,-421.244 2240.35,-418.055 2230.46,-414.248 2230.24,-421.244"/>
<text text-anchor="middle" x="1321" y="-376.8" font-family="Times,serif" font-size="14.00">RESPONSE</text>
</g>
<!-- 10.1.80.1:19273#ServerID_OuterContainerID -->
<g id="node18" class="node"><title>10.1.80.1:19273#ServerID_OuterContainerID</title>
<polygon fill="none" stroke="black" points="1023,-226 704.105,-208 1023,-190 1341.9,-208 1023,-226"/>
<text text-anchor="middle" x="1023" y="-204.3" font-family="Times,serif" font-size="14.00">10.1.80.1:19273#ServerID_OuterContainerID</text>
</g>
<!-- 10.1.80.247:8080#ServerID_OuterContainerID&#45;&gt;10.1.80.1:19273#ServerID_OuterContainerID -->
<g id="edge27" class="edge"><title>10.1.80.247:8080#ServerID_OuterContainerID&#45;&gt;10.1.80.1:19273#ServerID_OuterContainerID</title>
<path fill="none" stroke="black" d="M423.675,-302.424C551.31,-282.528 798.985,-243.92 932.495,-223.108"/>
<polygon fill="black" stroke="black" points="933.352,-226.517 942.693,-221.518 932.274,-219.6 933.352,-226.517"/>
<text text-anchor="middle" x="705" y="-268.8" font-family="Times,serif" font-size="14.00">RESPONSE</text>
</g>
<!-- 10.0.88.125:31112#ServerID_OuterContainerID -->
<g id="node19" class="node"><title>10.0.88.125:31112#ServerID_OuterContainerID</title>
<polygon fill="none" stroke="black" points="351,-226 15.5152,-208 351,-190 686.485,-208 351,-226"/>
<text text-anchor="middle" x="351" y="-204.3" font-family="Times,serif" font-size="14.00">10.0.88.125:31112#ServerID_OuterContainerID</text>
</g>
<!-- 10.1.80.247:8080#ServerID_OuterContainerID&#45;&gt;10.0.88.125:31112#ServerID_OuterContainerID -->
<g id="edge29" class="edge"><title>10.1.80.247:8080#ServerID_OuterContainerID&#45;&gt;10.0.88.125:31112#ServerID_OuterContainerID</title>
<path fill="none" stroke="black" d="M344.285,-297.969C345.545,-281.279 347.485,-255.579 348.956,-236.084"/>
<polygon fill="black" stroke="black" points="352.455,-236.224 349.718,-225.988 345.475,-235.697 352.455,-236.224"/>
<text text-anchor="middle" x="389" y="-268.8" font-family="Times,serif" font-size="14.00">RESPONSE</text>
</g>
<!-- 10.1.80.247:39998#ServerID_OuterContainerID -->
<g id="node4" class="node"><title>10.1.80.247:39998#ServerID_OuterContainerID</title>
<polygon fill="none" stroke="black" points="1024,-334 688.515,-316 1024,-298 1359.48,-316 1024,-334"/>
<text text-anchor="middle" x="1024" y="-312.3" font-family="Times,serif" font-size="14.00">10.1.80.247:39998#ServerID_OuterContainerID</text>
</g>
<!-- 1_fwatchdog#ServerID_5f846fd567&#45;w7nbt -->
<g id="node5" class="node"><title>1_fwatchdog#ServerID_5f846fd567&#45;w7nbt</title>
<polygon fill="none" stroke="black" points="5762,-226 5438,-226 5438,-190 5762,-190 5762,-226"/>
<text text-anchor="middle" x="5600" y="-204.3" font-family="Times,serif" font-size="14.00">1_fwatchdog#ServerID_5f846fd567&#45;w7nbt</text>
</g>
<!-- 10.1.80.247:39998#ServerID_OuterContainerID&#45;&gt;1_fwatchdog#ServerID_5f846fd567&#45;w7nbt -->
<g id="edge4" class="edge"><title>10.1.80.247:39998#ServerID_OuterContainerID&#45;&gt;1_fwatchdog#ServerID_5f846fd567&#45;w7nbt</title>
<path fill="none" stroke="black" d="M1182.31,-306.47C1416.6,-294.323 1869.54,-272.662 2255,-265 2343.07,-263.249 5338.73,-268.929 5426,-257 5465.42,-251.612 5508.54,-239.761 5541.99,-229.184"/>
<polygon fill="black" stroke="black" points="5543.15,-232.487 5551.6,-226.096 5541.01,-225.823 5543.15,-232.487"/>
<text text-anchor="middle" x="2275" y="-268.8" font-family="Times,serif" font-size="14.00">POST</text>
</g>
<!-- 1_fwatchdog#ServerID_e56b6537e2d5 -->
<g id="node15" class="node"><title>1_fwatchdog#ServerID_e56b6537e2d5</title>
<polygon fill="none" stroke="black" points="7489.5,-226 7190.5,-226 7190.5,-190 7489.5,-190 7489.5,-226"/>
<text text-anchor="middle" x="7340" y="-204.3" font-family="Times,serif" font-size="14.00">1_fwatchdog#ServerID_e56b6537e2d5</text>
</g>
<!-- 10.1.80.247:39998#ServerID_OuterContainerID&#45;&gt;1_fwatchdog#ServerID_e56b6537e2d5 -->
<g id="edge23" class="edge"><title>10.1.80.247:39998#ServerID_OuterContainerID&#45;&gt;1_fwatchdog#ServerID_e56b6537e2d5</title>
<path fill="none" stroke="black" d="M1179.81,-306.336C1239.03,-303.302 1307.12,-300.126 1369,-298 1780.39,-283.869 1883.65,-295.294 2295,-280 2416.43,-275.485 2446.53,-268.44 2568,-265 2632,-263.187 7114.64,-266.245 7178,-257 7214.54,-251.669 7254.31,-239.975 7285.3,-229.465"/>
<polygon fill="black" stroke="black" points="7286.73,-232.674 7295.04,-226.103 7284.45,-226.057 7286.73,-232.674"/>
<text text-anchor="middle" x="2584.5" y="-268.8" font-family="Times,serif" font-size="14.00">read</text>
</g>
<!-- 1_fwatchdog#ServerID_5f846fd567&#45;w7nbt&#45;&gt;10.1.80.247:39998#ServerID_OuterContainerID -->
<g id="edge6" class="edge"><title>1_fwatchdog#ServerID_5f846fd567&#45;w7nbt&#45;&gt;10.1.80.247:39998#ServerID_OuterContainerID</title>
<path fill="none" stroke="black" d="M5551.6,-226.101C5517.09,-237.366 5469.31,-251.088 5426,-257 5323.29,-271.02 1797.59,-261.029 1694,-265 1502.87,-272.327 1281.7,-290.782 1147.39,-303.103"/>
<polygon fill="black" stroke="black" points="1146.71,-299.651 1137.07,-304.053 1147.35,-306.621 1146.71,-299.651"/>
<text text-anchor="middle" x="1736" y="-268.8" font-family="Times,serif" font-size="14.00">RESPONSE</text>
</g>
<!-- gateway:8080#ServerID_OuterContainerID&#45;&gt;1_fwatchdog#ServerID_6df85d7674&#45;2kqrj -->
<g id="edge8" class="edge"><title>gateway:8080#ServerID_OuterContainerID&#45;&gt;1_fwatchdog#ServerID_6df85d7674&#45;2kqrj</title>
<path fill="none" stroke="black" d="M4368.48,-329.897C4271.88,-347.116 4091.39,-376.751 3936,-388 3675.53,-406.856 2914.52,-417.352 2571.8,-421.238"/>
<polygon fill="black" stroke="black" points="2571.74,-417.739 2561.78,-421.351 2571.82,-424.738 2571.74,-417.739"/>
<text text-anchor="middle" x="4117" y="-376.8" font-family="Times,serif" font-size="14.00">RESPONSE</text>
</g>
<!-- 10_node#ServerID_34e86192c217 -->
<g id="node10" class="node"><title>10_node#ServerID_34e86192c217</title>
<polygon fill="none" stroke="black" points="7165.5,-52 6898.5,-52 6898.5,-16 7165.5,-16 7165.5,-52"/>
<text text-anchor="middle" x="7032" y="-30.3" font-family="Times,serif" font-size="14.00">10_node#ServerID_34e86192c217</text>
</g>
<!-- gateway:8080#ServerID_OuterContainerID&#45;&gt;10_node#ServerID_34e86192c217 -->
<g id="edge26" class="edge"><title>gateway:8080#ServerID_OuterContainerID&#45;&gt;10_node#ServerID_34e86192c217</title>
<path fill="none" stroke="black" d="M4575.84,-306.121C4630.37,-302.973 4693.61,-299.774 4751,-298 5809.64,-265.271 6075.11,-302.962 7134,-280 7205.36,-278.452 7726.44,-308.368 7776,-257 7801,-231.092 7800.41,-121.459 7776,-95 7736.25,-51.9156 7381,-39.7614 7176.1,-36.3379"/>
<polygon fill="black" stroke="black" points="7175.91,-32.8345 7165.86,-36.1719 7175.8,-39.8335 7175.91,-32.8345"/>
<text text-anchor="middle" x="7811.5" y="-160.8" font-family="Times,serif" font-size="14.00">read</text>
</g>
<!-- localhost:3000#ServerID_34e86192c217 -->
<g id="node8" class="node"><title>localhost:3000#ServerID_34e86192c217</title>
<polygon fill="none" stroke="black" points="6073,-139 5786.45,-121 6073,-103 6359.55,-121 6073,-139"/>
<text text-anchor="middle" x="6073" y="-117.3" font-family="Times,serif" font-size="14.00">localhost:3000#ServerID_34e86192c217</text>
</g>
<!-- 1_fwatchdog#ServerID_34e86192c217&#45;&gt;localhost:3000#ServerID_34e86192c217 -->
<g id="edge9" class="edge"><title>1_fwatchdog#ServerID_34e86192c217&#45;&gt;localhost:3000#ServerID_34e86192c217</title>
<path fill="none" stroke="black" d="M5952.84,-189.733C5963.64,-179.324 5978.34,-166.322 5993,-157 6002.5,-150.96 6013.22,-145.479 6023.66,-140.741"/>
<polygon fill="black" stroke="black" points="6025.36,-143.818 6033.11,-136.604 6022.55,-137.405 6025.36,-143.818"/>
<text text-anchor="middle" x="6022" y="-160.8" font-family="Times,serif" font-size="14.00">connect</text>
</g>
<!-- 1_fwatchdog#ServerID_34e86192c217&#45;&gt;localhost:3000#ServerID_34e86192c217 -->
<g id="edge11" class="edge"><title>1_fwatchdog#ServerID_34e86192c217&#45;&gt;localhost:3000#ServerID_34e86192c217</title>
<path fill="none" stroke="black" d="M6022.06,-189.987C6032.58,-185.362 6042.57,-179.481 6051,-172 6057.93,-165.847 6062.78,-157.102 6066.12,-148.643"/>
<polygon fill="black" stroke="black" points="6069.49,-149.61 6069.39,-139.016 6062.86,-147.361 6069.49,-149.61"/>
<text text-anchor="middle" x="6081" y="-160.8" font-family="Times,serif" font-size="14.00">write</text>
</g>
<!-- localhost:3000#ServerID_34e86192c217&#45;&gt;1_fwatchdog#ServerID_34e86192c217 -->
<g id="edge10" class="edge"><title>localhost:3000#ServerID_34e86192c217&#45;&gt;1_fwatchdog#ServerID_34e86192c217</title>
<path fill="none" stroke="black" d="M5992.25,-134.024C5966.99,-139.547 5943.68,-147.112 5936,-157 5931.11,-163.292 5929.73,-171.5 5929.97,-179.44"/>
<polygon fill="black" stroke="black" points="5926.5,-179.973 5931.05,-189.541 5933.46,-179.224 5926.5,-179.973"/>
<text text-anchor="middle" x="5952.5" y="-160.8" font-family="Times,serif" font-size="14.00">read</text>
</g>
<!-- localhost:3000#ServerID_34e86192c217&#45;&gt;10_node#ServerID_34e86192c217 -->
<g id="edge14" class="edge"><title>localhost:3000#ServerID_34e86192c217&#45;&gt;10_node#ServerID_34e86192c217</title>
<path fill="none" stroke="black" d="M6185.36,-110.041C6359.92,-94.5689 6696.12,-64.7702 6888.17,-47.7481"/>
<polygon fill="black" stroke="black" points="6888.69,-51.2161 6898.34,-46.8468 6888.07,-44.2435 6888.69,-51.2161"/>
<text text-anchor="middle" x="6626.5" y="-73.8" font-family="Times,serif" font-size="14.00">read</text>
</g>
<!-- 10.1.80.247:37978#ServerID_OuterContainerID -->
<g id="node9" class="node"><title>10.1.80.247:37978#ServerID_OuterContainerID</title>
<polygon fill="none" stroke="black" points="3091,-334 2755.52,-316 3091,-298 3426.48,-316 3091,-334"/>
<text text-anchor="middle" x="3091" y="-312.3" font-family="Times,serif" font-size="14.00">10.1.80.247:37978#ServerID_OuterContainerID</text>
</g>
<!-- 10.1.80.247:37978#ServerID_OuterContainerID&#45;&gt;1_fwatchdog#ServerID_34e86192c217 -->
<g id="edge13" class="edge"><title>10.1.80.247:37978#ServerID_OuterContainerID&#45;&gt;1_fwatchdog#ServerID_34e86192c217</title>
<path fill="none" stroke="black" d="M3246.38,-306.295C3305.7,-303.247 3373.97,-300.072 3436,-298 3468.46,-296.916 5741.9,-261.943 5774,-257 5810.36,-251.4 5849.98,-239.765 5880.94,-229.353"/>
<polygon fill="black" stroke="black" points="5882.34,-232.573 5890.67,-226.025 5880.07,-225.95 5882.34,-232.573"/>
<text text-anchor="middle" x="5390.5" y="-268.8" font-family="Times,serif" font-size="14.00">read</text>
</g>
<!-- 10_node#ServerID_34e86192c217&#45;&gt;gateway:8080#ServerID_OuterContainerID -->
<g id="edge19" class="edge"><title>10_node#ServerID_34e86192c217&#45;&gt;gateway:8080#ServerID_OuterContainerID</title>
<path fill="none" stroke="black" d="M7165.71,-36.8288C7382.14,-40.3761 7787.64,-49.6994 7812,-70 7847.85,-99.8789 7847.79,-250.051 7812,-280 7795.7,-293.642 4772.25,-297.361 4751,-298 4696.96,-299.625 4637.72,-302.55 4585.46,-305.52"/>
<polygon fill="black" stroke="black" points="4585.23,-302.027 4575.45,-306.094 4585.63,-309.016 4585.23,-302.027"/>
<text text-anchor="middle" x="7868" y="-160.8" font-family="Times,serif" font-size="14.00">connect</text>
</g>
<!-- 10.152.183.10:53#ServerID_OuterContainerID -->
<g id="node12" class="node"><title>10.152.183.10:53#ServerID_OuterContainerID</title>
<polygon fill="none" stroke="black" points="5087,-334 4759.56,-316 5087,-298 5414.44,-316 5087,-334"/>
<text text-anchor="middle" x="5087" y="-312.3" font-family="Times,serif" font-size="14.00">10.152.183.10:53#ServerID_OuterContainerID</text>
</g>
<!-- 10_node#ServerID_34e86192c217&#45;&gt;10.152.183.10:53#ServerID_OuterContainerID -->
<g id="edge16" class="edge"><title>10_node#ServerID_34e86192c217&#45;&gt;10.152.183.10:53#ServerID_OuterContainerID</title>
<path fill="none" stroke="black" d="M7165.6,-37.105C7394.26,-41.1967 7838.97,-51.4874 7868,-70 7946.7,-120.181 7945.33,-227.74 7868,-280 7817.89,-313.864 6141.89,-316.157 5416.36,-315.556"/>
<polygon fill="black" stroke="black" points="5416.29,-312.056 5406.28,-315.548 5416.28,-319.056 5416.29,-312.056"/>
<text text-anchor="middle" x="7950.5" y="-160.8" font-family="Times,serif" font-size="14.00">sendto</text>
</g>
<!-- 10.1.80.247:37990#ServerID_OuterContainerID -->
<g id="node11" class="node"><title>10.1.80.247:37990#ServerID_OuterContainerID</title>
<polygon fill="none" stroke="black" points="1713,-334 1377.52,-316 1713,-298 2048.48,-316 1713,-334"/>
<text text-anchor="middle" x="1713" y="-312.3" font-family="Times,serif" font-size="14.00">10.1.80.247:37990#ServerID_OuterContainerID</text>
</g>
<!-- 10.1.80.247:37990#ServerID_OuterContainerID&#45;&gt;1_fwatchdog#ServerID_34e86192c217 -->
<g id="edge15" class="edge"><title>10.1.80.247:37990#ServerID_OuterContainerID&#45;&gt;1_fwatchdog#ServerID_34e86192c217</title>
<path fill="none" stroke="black" d="M1870.54,-306.435C1929.36,-303.449 1996.72,-300.278 2058,-298 2642.22,-276.279 2788.43,-273.308 3373,-265 3439.69,-264.052 5708.01,-266.683 5774,-257 5810.53,-251.639 5850.31,-239.945 5881.3,-229.442"/>
<polygon fill="black" stroke="black" points="5882.73,-232.652 5891.04,-226.083 5880.45,-226.035 5882.73,-232.652"/>
<text text-anchor="middle" x="3389.5" y="-268.8" font-family="Times,serif" font-size="14.00">read</text>
</g>
<!-- 10.152.183.10:53#ServerID_OuterContainerID&#45;&gt;10_node#ServerID_34e86192c217 -->
<g id="edge20" class="edge"><title>10.152.183.10:53#ServerID_OuterContainerID&#45;&gt;10_node#ServerID_34e86192c217</title>
<path fill="none" stroke="black" d="M5371.69,-313.644C6073.03,-310.016 7831.67,-299.043 7891,-280 7908.02,-274.536 7911.58,-269.857 7924,-257 7959.24,-220.522 7997.21,-204.34 7979,-157 7959.36,-105.964 7943.18,-89.2464 7892,-70 7827.01,-45.5621 7403.07,-38.1603 7175.66,-35.9389"/>
<polygon fill="black" stroke="black" points="7175.68,-32.439 7165.64,-35.8432 7175.61,-39.4387 7175.68,-32.439"/>
<text text-anchor="middle" x="8016" y="-160.8" font-family="Times,serif" font-size="14.00">recvfrom</text>
</g>
<!-- /etc/hosts#ServerID_34e86192c217 -->
<g id="node13" class="node"><title>/etc/hosts#ServerID_34e86192c217</title>
<ellipse fill="none" stroke="black" cx="6986" cy="-121" rx="180.068" ry="18"/>
<text text-anchor="middle" x="6986" y="-117.3" font-family="Times,serif" font-size="14.00">/etc/hosts#ServerID_34e86192c217</text>
</g>
<!-- /etc/hosts#ServerID_34e86192c217&#45;&gt;10_node#ServerID_34e86192c217 -->
<g id="edge17" class="edge"><title>/etc/hosts#ServerID_34e86192c217&#45;&gt;10_node#ServerID_34e86192c217</title>
<path fill="none" stroke="black" d="M6995.31,-102.799C7001.79,-90.8169 7010.56,-74.6168 7017.9,-61.0569"/>
<polygon fill="black" stroke="black" points="7021.02,-62.636 7022.71,-52.1754 7014.87,-59.3043 7021.02,-62.636"/>
<text text-anchor="middle" x="7028.5" y="-73.8" font-family="Times,serif" font-size="14.00">read</text>
</g>
<!-- /etc/resolv.conf#ServerID_34e86192c217 -->
<g id="node14" class="node"><title>/etc/resolv.conf#ServerID_34e86192c217</title>
<ellipse fill="none" stroke="black" cx="6583" cy="-121" rx="205.264" ry="18"/>
<text text-anchor="middle" x="6583" y="-117.3" font-family="Times,serif" font-size="14.00">/etc/resolv.conf#ServerID_34e86192c217</text>
</g>
<!-- /etc/resolv.conf#ServerID_34e86192c217&#45;&gt;10_node#ServerID_34e86192c217 -->
<g id="edge18" class="edge"><title>/etc/resolv.conf#ServerID_34e86192c217&#45;&gt;10_node#ServerID_34e86192c217</title>
<path fill="none" stroke="black" d="M6665.09,-104.459C6740.2,-90.2404 6851.53,-69.165 6931.84,-53.9608"/>
<polygon fill="black" stroke="black" points="6932.8,-57.3422 6941.97,-52.0432 6931.5,-50.4644 6932.8,-57.3422"/>
<text text-anchor="middle" x="6851.5" y="-73.8" font-family="Times,serif" font-size="14.00">read</text>
</g>
<!-- localhost:3000#ServerID_e56b6537e2d5 -->
<g id="node16" class="node"><title>localhost:3000#ServerID_e56b6537e2d5</title>
<polygon fill="none" stroke="black" points="7477,-139 7190.45,-121 7477,-103 7763.55,-121 7477,-139"/>
<text text-anchor="middle" x="7477" y="-117.3" font-family="Times,serif" font-size="14.00">localhost:3000#ServerID_e56b6537e2d5</text>
</g>
<!-- 1_fwatchdog#ServerID_e56b6537e2d5&#45;&gt;localhost:3000#ServerID_e56b6537e2d5 -->
<g id="edge21" class="edge"><title>1_fwatchdog#ServerID_e56b6537e2d5&#45;&gt;localhost:3000#ServerID_e56b6537e2d5</title>
<path fill="none" stroke="black" d="M7356.84,-189.733C7367.64,-179.324 7382.34,-166.322 7397,-157 7406.5,-150.96 7417.22,-145.479 7427.66,-140.741"/>
<polygon fill="black" stroke="black" points="7429.36,-143.818 7437.11,-136.604 7426.55,-137.405 7429.36,-143.818"/>
<text text-anchor="middle" x="7426" y="-160.8" font-family="Times,serif" font-size="14.00">connect</text>
</g>
<!-- 1_fwatchdog#ServerID_e56b6537e2d5&#45;&gt;localhost:3000#ServerID_e56b6537e2d5 -->
<g id="edge22" class="edge"><title>1_fwatchdog#ServerID_e56b6537e2d5&#45;&gt;localhost:3000#ServerID_e56b6537e2d5</title>
<path fill="none" stroke="black" d="M7426.06,-189.987C7436.58,-185.362 7446.57,-179.481 7455,-172 7461.93,-165.847 7466.78,-157.102 7470.12,-148.643"/>
<polygon fill="black" stroke="black" points="7473.49,-149.61 7473.39,-139.016 7466.86,-147.361 7473.49,-149.61"/>
<text text-anchor="middle" x="7485" y="-160.8" font-family="Times,serif" font-size="14.00">write</text>
</g>
<!-- localhost:3000#ServerID_e56b6537e2d5&#45;&gt;1_fwatchdog#ServerID_e56b6537e2d5 -->
<g id="edge25" class="edge"><title>localhost:3000#ServerID_e56b6537e2d5&#45;&gt;1_fwatchdog#ServerID_e56b6537e2d5</title>
<path fill="none" stroke="black" d="M7396.25,-134.024C7370.99,-139.547 7347.68,-147.112 7340,-157 7335.11,-163.292 7333.73,-171.5 7333.97,-179.44"/>
<polygon fill="black" stroke="black" points="7330.5,-179.973 7335.05,-189.541 7337.46,-179.224 7330.5,-179.973"/>
<text text-anchor="middle" x="7356.5" y="-160.8" font-family="Times,serif" font-size="14.00">read</text>
</g>
<!-- 10.1.80.247:40030#ServerID_OuterContainerID -->
<g id="node17" class="node"><title>10.1.80.247:40030#ServerID_OuterContainerID</title>
<polygon fill="none" stroke="black" points="3780,-334 3444.52,-316 3780,-298 4115.48,-316 3780,-334"/>
<text text-anchor="middle" x="3780" y="-312.3" font-family="Times,serif" font-size="14.00">10.1.80.247:40030#ServerID_OuterContainerID</text>
</g>
<!-- 10.1.80.247:40030#ServerID_OuterContainerID&#45;&gt;1_fwatchdog#ServerID_e56b6537e2d5 -->
<g id="edge24" class="edge"><title>10.1.80.247:40030#ServerID_OuterContainerID&#45;&gt;1_fwatchdog#ServerID_e56b6537e2d5</title>
<path fill="none" stroke="black" d="M3934.09,-306.226C3993.71,-303.141 4062.51,-299.958 4125,-298 4464.09,-287.372 6842.59,-307.946 7178,-257 7214.37,-251.475 7253.99,-239.842 7284.95,-229.412"/>
<polygon fill="black" stroke="black" points="7286.35,-232.63 7294.68,-226.077 7284.08,-226.008 7286.35,-232.63"/>
<text text-anchor="middle" x="7113.5" y="-268.8" font-family="Times,serif" font-size="14.00">read</text>
</g>
<!-- 10.1.80.1:19273#ServerID_OuterContainerID&#45;&gt;10.1.80.247:8080#ServerID_OuterContainerID -->
<g id="edge28" class="edge"><title>10.1.80.1:19273#ServerID_OuterContainerID&#45;&gt;10.1.80.247:8080#ServerID_OuterContainerID</title>
<path fill="none" stroke="black" d="M977.319,-223.471C923.693,-239.861 831.803,-266.092 751,-280 675.72,-292.958 591.759,-301.204 519.666,-306.411"/>
<polygon fill="black" stroke="black" points="519.301,-302.928 509.574,-307.126 519.796,-309.91 519.301,-302.928"/>
<text text-anchor="middle" x="839" y="-268.8" font-family="Times,serif" font-size="14.00">POST</text>
</g>
</g>
</svg>
