<?xml version="1.0" encoding="UTF-8" standalone="no"?>
<!DOCTYPE svg PUBLIC "-//W3C//DTD SVG 1.1//EN"
 "http://www.w3.org/Graphics/SVG/1.1/DTD/svg11.dtd">
<!-- Generated by graphviz version 2.38.0 (20140413.2041)
 -->
<!-- Title: G Pages: 1 -->
<svg width="6745pt" height="489pt"
 viewBox="0.00 0.00 6745.00 489.00" xmlns="http://www.w3.org/2000/svg" xmlns:xlink="http://www.w3.org/1999/xlink">
<g id="graph0" class="graph" transform="scale(1 1) rotate(0) translate(4 485)">
<title>G</title>
<polygon fill="white" stroke="none" points="-4,4 -4,-485 6741,-485 6741,4 -4,4"/>
<g id="clust1" class="cluster"><title>clusterServerID_34e86192c217</title>
<polygon fill="none" stroke="black" points="6139,-182 6139,-473 6729,-473 6729,-182 6139,-182"/>
<text text-anchor="middle" x="6434" y="-457.8" font-family="Times,serif" font-size="14.00">clusterServerID_34e86192c217</text>
</g>
<g id="clust2" class="cluster"><title>clusterServerID_5f846fd567&#45;w7nbt</title>
<polygon fill="none" stroke="black" points="4741,-182 4741,-257 5081,-257 5081,-182 4741,-182"/>
<text text-anchor="middle" x="4911" y="-241.8" font-family="Times,serif" font-size="14.00">clusterServerID_5f846fd567&#45;w7nbt</text>
</g>
<g id="clust3" class="cluster"><title>clusterServerID_6df85d7674&#45;2kqrj</title>
<polygon fill="none" stroke="black" points="2201,-398 2201,-473 2539,-473 2539,-398 2201,-398"/>
<text text-anchor="middle" x="2370" y="-457.8" font-family="Times,serif" font-size="14.00">clusterServerID_6df85d7674&#45;2kqrj</text>
</g>
<g id="clust4" class="cluster"><title>clusterServerID_OuterContainerID</title>
<polygon fill="none" stroke="black" points="8,-182 8,-365 4733,-365 4733,-182 8,-182"/>
<text text-anchor="middle" x="2370.5" y="-349.8" font-family="Times,serif" font-size="14.00">clusterServerID_OuterContainerID</text>
</g>
<g id="clust5" class="cluster"><title>clusterServerID_e56b6537e2d5</title>
<polygon fill="none" stroke="black" points="5089,-8 5089,-257 6131,-257 6131,-8 5089,-8"/>
<text text-anchor="middle" x="5610" y="-241.8" font-family="Times,serif" font-size="14.00">clusterServerID_e56b6537e2d5</text>
</g>
<!-- 1_fwatchdog#ServerID_6df85d7674&#45;2kqrj -->
<g id="node1" class="node"><title>1_fwatchdog#ServerID_6df85d7674&#45;2kqrj</title>
<polygon fill="none" stroke="black" points="2530.5,-442 2209.5,-442 2209.5,-406 2530.5,-406 2530.5,-442"/>
<text text-anchor="middle" x="2370" y="-420.3" font-family="Times,serif" font-size="14.00">1_fwatchdog#ServerID_6df85d7674&#45;2kqrj</text>
</g>
<!-- gateway:8080#ServerID_OuterContainerID -->
<g id="node2" class="node"><title>gateway:8080#ServerID_OuterContainerID</title>
<polygon fill="none" stroke="black" points="2371,-334 2066.52,-316 2371,-298 2675.48,-316 2371,-334"/>
<text text-anchor="middle" x="2371" y="-312.3" font-family="Times,serif" font-size="14.00">gateway:8080#ServerID_OuterContainerID</text>
</g>
<!-- 1_fwatchdog#ServerID_6df85d7674&#45;2kqrj&#45;&gt;gateway:8080#ServerID_OuterContainerID -->
<g id="edge1" class="edge"><title>1_fwatchdog#ServerID_6df85d7674&#45;2kqrj&#45;&gt;gateway:8080#ServerID_OuterContainerID</title>
<path fill="none" stroke="black" d="M2390.2,-405.928C2394.99,-400.716 2399.44,-394.601 2402,-388 2408.07,-372.366 2400.87,-355.119 2391.89,-341.538"/>
<polygon fill="black" stroke="black" points="2394.55,-339.245 2385.86,-333.197 2388.88,-343.349 2394.55,-339.245"/>
<text text-anchor="middle" x="2425" y="-376.8" font-family="Times,serif" font-size="14.00">POST</text>
</g>
<!-- 10.1.80.247:38034#ServerID_OuterContainerID -->
<g id="node3" class="node"><title>10.1.80.247:38034#ServerID_OuterContainerID</title>
<polygon fill="none" stroke="black" points="3701,-334 3365.52,-316 3701,-298 4036.48,-316 3701,-334"/>
<text text-anchor="middle" x="3701" y="-312.3" font-family="Times,serif" font-size="14.00">10.1.80.247:38034#ServerID_OuterContainerID</text>
</g>
<!-- 1_fwatchdog#ServerID_6df85d7674&#45;2kqrj&#45;&gt;10.1.80.247:38034#ServerID_OuterContainerID -->
<g id="edge7" class="edge"><title>1_fwatchdog#ServerID_6df85d7674&#45;2kqrj&#45;&gt;10.1.80.247:38034#ServerID_OuterContainerID</title>
<path fill="none" stroke="black" d="M2530.72,-423.466C2715.42,-422.484 3027.4,-416.174 3294,-388 3411.83,-375.549 3547.05,-349.605 3628.17,-332.765"/>
<polygon fill="black" stroke="black" points="3629.2,-336.125 3638.27,-330.656 3627.77,-329.273 3629.2,-336.125"/>
<text text-anchor="middle" x="3449" y="-376.8" font-family="Times,serif" font-size="14.00">RESPONSE</text>
</g>
<!-- 10.1.80.247:8080#ServerID_OuterContainerID -->
<g id="node6" class="node"><title>10.1.80.247:8080#ServerID_OuterContainerID</title>
<polygon fill="none" stroke="black" points="343,-334 15.5599,-316 343,-298 670.44,-316 343,-334"/>
<text text-anchor="middle" x="343" y="-312.3" font-family="Times,serif" font-size="14.00">10.1.80.247:8080#ServerID_OuterContainerID</text>
</g>
<!-- 1_fwatchdog#ServerID_6df85d7674&#45;2kqrj&#45;&gt;10.1.80.247:8080#ServerID_OuterContainerID -->
<g id="edge5" class="edge"><title>1_fwatchdog#ServerID_6df85d7674&#45;2kqrj&#45;&gt;10.1.80.247:8080#ServerID_OuterContainerID</title>
<path fill="none" stroke="black" d="M2209.3,-417.374C1942.11,-408.036 1389.6,-388.802 922,-373 814.447,-369.365 787.205,-374.379 680,-365 593.623,-357.443 495.562,-342.782 427.581,-331.642"/>
<polygon fill="black" stroke="black" points="427.792,-328.129 417.356,-329.956 426.653,-335.036 427.792,-328.129"/>
<text text-anchor="middle" x="1380" y="-376.8" font-family="Times,serif" font-size="14.00">POST</text>
</g>
<!-- gateway:8080#ServerID_OuterContainerID&#45;&gt;1_fwatchdog#ServerID_6df85d7674&#45;2kqrj -->
<g id="edge2" class="edge"><title>gateway:8080#ServerID_OuterContainerID&#45;&gt;1_fwatchdog#ServerID_6df85d7674&#45;2kqrj</title>
<path fill="none" stroke="black" d="M2347.65,-332.719C2335.12,-342.625 2320.87,-356.625 2314,-373 2309.67,-383.319 2314.55,-392.34 2322.93,-399.773"/>
<polygon fill="black" stroke="black" points="2320.97,-402.677 2331.07,-405.889 2325.18,-397.082 2320.97,-402.677"/>
<text text-anchor="middle" x="2356" y="-376.8" font-family="Times,serif" font-size="14.00">RESPONSE</text>
</g>
<!-- 10.1.80.247:38034#ServerID_OuterContainerID&#45;&gt;1_fwatchdog#ServerID_6df85d7674&#45;2kqrj -->
<g id="edge3" class="edge"><title>10.1.80.247:38034#ServerID_OuterContainerID&#45;&gt;1_fwatchdog#ServerID_6df85d7674&#45;2kqrj</title>
<path fill="none" stroke="black" d="M3622.08,-329.8C3552.29,-340.684 3447.62,-355.946 3356,-365 3070.86,-393.177 2737.88,-409.281 2540.99,-417.068"/>
<polygon fill="black" stroke="black" points="2540.7,-413.577 2530.84,-417.467 2540.97,-420.571 2540.7,-413.577"/>
<text text-anchor="middle" x="3270" y="-376.8" font-family="Times,serif" font-size="14.00">POST</text>
</g>
<!-- 1_fwatchdog#ServerID_34e86192c217 -->
<g id="node9" class="node"><title>1_fwatchdog#ServerID_34e86192c217</title>
<polygon fill="none" stroke="black" points="6446.5,-442 6147.5,-442 6147.5,-406 6446.5,-406 6446.5,-442"/>
<text text-anchor="middle" x="6297" y="-420.3" font-family="Times,serif" font-size="14.00">1_fwatchdog#ServerID_34e86192c217</text>
</g>
<!-- 10.1.80.247:38034#ServerID_OuterContainerID&#45;&gt;1_fwatchdog#ServerID_34e86192c217 -->
<g id="edge12" class="edge"><title>10.1.80.247:38034#ServerID_OuterContainerID&#45;&gt;1_fwatchdog#ServerID_34e86192c217</title>
<path fill="none" stroke="black" d="M3776.44,-329.989C3846.16,-341.397 3952.73,-357.335 4046,-365 4452.85,-398.437 5693.99,-415.919 6137.42,-421.225"/>
<polygon fill="black" stroke="black" points="6137.39,-424.724 6147.43,-421.344 6137.47,-417.725 6137.39,-424.724"/>
<text text-anchor="middle" x="4488.5" y="-376.8" font-family="Times,serif" font-size="14.00">read</text>
</g>
<!-- 10.1.80.247:40102#ServerID_OuterContainerID -->
<g id="node4" class="node"><title>10.1.80.247:40102#ServerID_OuterContainerID</title>
<polygon fill="none" stroke="black" points="1024,-334 688.515,-316 1024,-298 1359.48,-316 1024,-334"/>
<text text-anchor="middle" x="1024" y="-312.3" font-family="Times,serif" font-size="14.00">10.1.80.247:40102#ServerID_OuterContainerID</text>
</g>
<!-- 1_fwatchdog#ServerID_5f846fd567&#45;w7nbt -->
<g id="node5" class="node"><title>1_fwatchdog#ServerID_5f846fd567&#45;w7nbt</title>
<polygon fill="none" stroke="black" points="5073,-226 4749,-226 4749,-190 5073,-190 5073,-226"/>
<text text-anchor="middle" x="4911" y="-204.3" font-family="Times,serif" font-size="14.00">1_fwatchdog#ServerID_5f846fd567&#45;w7nbt</text>
</g>
<!-- 10.1.80.247:40102#ServerID_OuterContainerID&#45;&gt;1_fwatchdog#ServerID_5f846fd567&#45;w7nbt -->
<g id="edge4" class="edge"><title>10.1.80.247:40102#ServerID_OuterContainerID&#45;&gt;1_fwatchdog#ServerID_5f846fd567&#45;w7nbt</title>
<path fill="none" stroke="black" d="M1146.3,-304.546C1296.04,-292.299 1557.44,-272.703 1782,-265 1864.04,-262.186 4655.67,-268.124 4737,-257 4776.42,-251.608 4819.54,-239.757 4852.99,-229.181"/>
<polygon fill="black" stroke="black" points="4854.15,-232.484 4862.6,-226.094 4852.01,-225.82 4854.15,-232.484"/>
<text text-anchor="middle" x="1802" y="-268.8" font-family="Times,serif" font-size="14.00">POST</text>
</g>
<!-- 1_fwatchdog#ServerID_e56b6537e2d5 -->
<g id="node8" class="node"><title>1_fwatchdog#ServerID_e56b6537e2d5</title>
<polygon fill="none" stroke="black" points="5472.5,-226 5173.5,-226 5173.5,-190 5472.5,-190 5472.5,-226"/>
<text text-anchor="middle" x="5323" y="-204.3" font-family="Times,serif" font-size="14.00">1_fwatchdog#ServerID_e56b6537e2d5</text>
</g>
<!-- 10.1.80.247:40102#ServerID_OuterContainerID&#45;&gt;1_fwatchdog#ServerID_e56b6537e2d5 -->
<g id="edge11" class="edge"><title>10.1.80.247:40102#ServerID_OuterContainerID&#45;&gt;1_fwatchdog#ServerID_e56b6537e2d5</title>
<path fill="none" stroke="black" d="M1180.68,-306.401C1239.7,-303.393 1307.42,-300.217 1369,-298 1720.42,-285.346 1808.61,-293.308 2160,-280 2285.86,-275.233 2317.1,-268.525 2443,-265 2516.36,-262.946 5011.98,-264.401 5085,-257 5139.6,-251.465 5200.22,-239.145 5246.62,-228.373"/>
<polygon fill="black" stroke="black" points="5247.66,-231.724 5256.6,-226.03 5246.06,-224.909 5247.66,-231.724"/>
<text text-anchor="middle" x="2459.5" y="-268.8" font-family="Times,serif" font-size="14.00">read</text>
</g>
<!-- 1_fwatchdog#ServerID_5f846fd567&#45;w7nbt&#45;&gt;10.1.80.247:40102#ServerID_OuterContainerID -->
<g id="edge6" class="edge"><title>1_fwatchdog#ServerID_5f846fd567&#45;w7nbt&#45;&gt;10.1.80.247:40102#ServerID_OuterContainerID</title>
<path fill="none" stroke="black" d="M4862.6,-226.09C4828.09,-237.349 4780.31,-251.069 4737,-257 4663.77,-267.028 2149.88,-262.709 2076,-265 1962.97,-268.505 1934.95,-274.421 1822,-280 1620.75,-289.94 1570.29,-289.042 1369,-298 1312.88,-300.497 1251.64,-303.443 1196.54,-306.175"/>
<polygon fill="black" stroke="black" points="1196.14,-302.69 1186.33,-306.682 1196.49,-309.682 1196.14,-302.69"/>
<text text-anchor="middle" x="2118" y="-268.8" font-family="Times,serif" font-size="14.00">RESPONSE</text>
</g>
<!-- 10.1.80.247:8080#ServerID_OuterContainerID&#45;&gt;1_fwatchdog#ServerID_6df85d7674&#45;2kqrj -->
<g id="edge8" class="edge"><title>10.1.80.247:8080#ServerID_OuterContainerID&#45;&gt;1_fwatchdog#ServerID_6df85d7674&#45;2kqrj</title>
<path fill="none" stroke="black" d="M414.656,-330.136C510.001,-346.977 684.009,-375.493 834,-388 1094.5,-409.723 1856.52,-418.699 2199.38,-421.713"/>
<polygon fill="black" stroke="black" points="2199.37,-425.213 2209.4,-421.801 2199.43,-418.214 2199.37,-425.213"/>
<text text-anchor="middle" x="876" y="-376.8" font-family="Times,serif" font-size="14.00">RESPONSE</text>
</g>
<!-- 10.1.80.1:57383#ServerID_OuterContainerID -->
<g id="node17" class="node"><title>10.1.80.1:57383#ServerID_OuterContainerID</title>
<polygon fill="none" stroke="black" points="1023,-226 704.105,-208 1023,-190 1341.9,-208 1023,-226"/>
<text text-anchor="middle" x="1023" y="-204.3" font-family="Times,serif" font-size="14.00">10.1.80.1:57383#ServerID_OuterContainerID</text>
</g>
<!-- 10.1.80.247:8080#ServerID_OuterContainerID&#45;&gt;10.1.80.1:57383#ServerID_OuterContainerID -->
<g id="edge23" class="edge"><title>10.1.80.247:8080#ServerID_OuterContainerID&#45;&gt;10.1.80.1:57383#ServerID_OuterContainerID</title>
<path fill="none" stroke="black" d="M413.82,-301.831C472.239,-291.189 557.347,-276.192 632,-265 659.913,-260.815 667.035,-260.821 695,-257 774.864,-246.087 865.519,-232.747 931.252,-222.903"/>
<polygon fill="black" stroke="black" points="931.803,-226.359 941.173,-221.415 930.765,-219.437 931.803,-226.359"/>
<text text-anchor="middle" x="674" y="-268.8" font-family="Times,serif" font-size="14.00">RESPONSE</text>
</g>
<!-- 10.0.88.125:31112#ServerID_OuterContainerID -->
<g id="node18" class="node"><title>10.0.88.125:31112#ServerID_OuterContainerID</title>
<polygon fill="none" stroke="black" points="351,-226 15.5152,-208 351,-190 686.485,-208 351,-226"/>
<text text-anchor="middle" x="351" y="-204.3" font-family="Times,serif" font-size="14.00">10.0.88.125:31112#ServerID_OuterContainerID</text>
</g>
<!-- 10.1.80.247:8080#ServerID_OuterContainerID&#45;&gt;10.0.88.125:31112#ServerID_OuterContainerID -->
<g id="edge24" class="edge"><title>10.1.80.247:8080#ServerID_OuterContainerID&#45;&gt;10.0.88.125:31112#ServerID_OuterContainerID</title>
<path fill="none" stroke="black" d="M344.285,-297.969C345.545,-281.279 347.485,-255.579 348.956,-236.084"/>
<polygon fill="black" stroke="black" points="352.455,-236.224 349.718,-225.988 345.475,-235.697 352.455,-236.224"/>
<text text-anchor="middle" x="389" y="-268.8" font-family="Times,serif" font-size="14.00">RESPONSE</text>
</g>
<!-- 10.1.80.247:40100#ServerID_OuterContainerID -->
<g id="node7" class="node"><title>10.1.80.247:40100#ServerID_OuterContainerID</title>
<polygon fill="none" stroke="black" points="1713,-334 1377.52,-316 1713,-298 2048.48,-316 1713,-334"/>
<text text-anchor="middle" x="1713" y="-312.3" font-family="Times,serif" font-size="14.00">10.1.80.247:40100#ServerID_OuterContainerID</text>
</g>
<!-- 10.1.80.247:40100#ServerID_OuterContainerID&#45;&gt;1_fwatchdog#ServerID_e56b6537e2d5 -->
<g id="edge9" class="edge"><title>10.1.80.247:40100#ServerID_OuterContainerID&#45;&gt;1_fwatchdog#ServerID_e56b6537e2d5</title>
<path fill="none" stroke="black" d="M1874.02,-306.596C1932.01,-303.693 1997.94,-300.536 2058,-298 2474.78,-280.401 2578.93,-273.133 2996,-265 3112.03,-262.737 4969.54,-268.75 5085,-257 5139.6,-251.444 5200.22,-239.124 5246.62,-228.357"/>
<polygon fill="black" stroke="black" points="5247.66,-231.708 5256.59,-226.015 5246.06,-224.893 5247.66,-231.708"/>
<text text-anchor="middle" x="3012.5" y="-268.8" font-family="Times,serif" font-size="14.00">read</text>
</g>
<!-- localhost:3000#ServerID_e56b6537e2d5 -->
<g id="node11" class="node"><title>localhost:3000#ServerID_e56b6537e2d5</title>
<polygon fill="none" stroke="black" points="5384,-139 5097.45,-121 5384,-103 5670.55,-121 5384,-139"/>
<text text-anchor="middle" x="5384" y="-117.3" font-family="Times,serif" font-size="14.00">localhost:3000#ServerID_e56b6537e2d5</text>
</g>
<!-- 1_fwatchdog#ServerID_e56b6537e2d5&#45;&gt;localhost:3000#ServerID_e56b6537e2d5 -->
<g id="edge17" class="edge"><title>1_fwatchdog#ServerID_e56b6537e2d5&#45;&gt;localhost:3000#ServerID_e56b6537e2d5</title>
<path fill="none" stroke="black" d="M5319.33,-189.658C5318.11,-179.472 5318.28,-166.731 5324,-157 5327.29,-151.405 5331.85,-146.616 5336.99,-142.541"/>
<polygon fill="black" stroke="black" points="5339.21,-145.262 5345.47,-136.712 5335.25,-139.494 5339.21,-145.262"/>
<text text-anchor="middle" x="5343" y="-160.8" font-family="Times,serif" font-size="14.00">write</text>
</g>
<!-- pipe:[331682317]#ServerID_e56b6537e2d5 -->
<g id="node16" class="node"><title>pipe:[331682317]#ServerID_e56b6537e2d5</title>
<ellipse fill="none" stroke="black" cx="5906" cy="-121" rx="217.162" ry="18"/>
<text text-anchor="middle" x="5906" y="-117.3" font-family="Times,serif" font-size="14.00">pipe:[331682317]#ServerID_e56b6537e2d5</text>
</g>
<!-- 1_fwatchdog#ServerID_e56b6537e2d5&#45;&gt;pipe:[331682317]#ServerID_e56b6537e2d5 -->
<g id="edge21" class="edge"><title>1_fwatchdog#ServerID_e56b6537e2d5&#45;&gt;pipe:[331682317]#ServerID_e56b6537e2d5</title>
<path fill="none" stroke="black" d="M5439.93,-189.952C5543.03,-174.92 5692.26,-153.163 5793.89,-138.345"/>
<polygon fill="black" stroke="black" points="5794.49,-141.795 5803.88,-136.889 5793.48,-134.868 5794.49,-141.795"/>
<text text-anchor="middle" x="5669" y="-160.8" font-family="Times,serif" font-size="14.00">write</text>
</g>
<!-- localhost:3000#ServerID_34e86192c217 -->
<g id="node10" class="node"><title>localhost:3000#ServerID_34e86192c217</title>
<polygon fill="none" stroke="black" points="6434,-334 6147.45,-316 6434,-298 6720.55,-316 6434,-334"/>
<text text-anchor="middle" x="6434" y="-312.3" font-family="Times,serif" font-size="14.00">localhost:3000#ServerID_34e86192c217</text>
</g>
<!-- 1_fwatchdog#ServerID_34e86192c217&#45;&gt;localhost:3000#ServerID_34e86192c217 -->
<g id="edge10" class="edge"><title>1_fwatchdog#ServerID_34e86192c217&#45;&gt;localhost:3000#ServerID_34e86192c217</title>
<path fill="none" stroke="black" d="M6319.01,-405.969C6342.49,-387.803 6379.76,-358.963 6405.48,-339.068"/>
<polygon fill="black" stroke="black" points="6407.62,-341.836 6413.39,-332.948 6403.34,-336.299 6407.62,-341.836"/>
<text text-anchor="middle" x="6380" y="-376.8" font-family="Times,serif" font-size="14.00">write</text>
</g>
<!-- 10_node#ServerID_34e86192c217 -->
<g id="node13" class="node"><title>10_node#ServerID_34e86192c217</title>
<polygon fill="none" stroke="black" points="6414.5,-226 6147.5,-226 6147.5,-190 6414.5,-190 6414.5,-226"/>
<text text-anchor="middle" x="6281" y="-204.3" font-family="Times,serif" font-size="14.00">10_node#ServerID_34e86192c217</text>
</g>
<!-- localhost:3000#ServerID_34e86192c217&#45;&gt;10_node#ServerID_34e86192c217 -->
<g id="edge15" class="edge"><title>localhost:3000#ServerID_34e86192c217&#45;&gt;10_node#ServerID_34e86192c217</title>
<path fill="none" stroke="black" d="M6411.42,-299.359C6385.7,-281.538 6343.43,-252.251 6314.01,-231.868"/>
<polygon fill="black" stroke="black" points="6315.91,-228.93 6305.7,-226.112 6311.93,-234.684 6315.91,-228.93"/>
<text text-anchor="middle" x="6396.5" y="-268.8" font-family="Times,serif" font-size="14.00">read</text>
</g>
<!-- localhost:3000#ServerID_e56b6537e2d5&#45;&gt;1_fwatchdog#ServerID_e56b6537e2d5 -->
<g id="edge20" class="edge"><title>localhost:3000#ServerID_e56b6537e2d5&#45;&gt;1_fwatchdog#ServerID_e56b6537e2d5</title>
<path fill="none" stroke="black" d="M5378.68,-138.693C5374.96,-148.886 5369.34,-161.862 5362,-172 5359.28,-175.748 5356.11,-179.389 5352.76,-182.817"/>
<polygon fill="black" stroke="black" points="5350.11,-180.511 5345.27,-189.94 5354.93,-185.583 5350.11,-180.511"/>
<text text-anchor="middle" x="5387.5" y="-160.8" font-family="Times,serif" font-size="14.00">read</text>
</g>
<!-- 12_node#ServerID_e56b6537e2d5 -->
<g id="node12" class="node"><title>12_node#ServerID_e56b6537e2d5</title>
<polygon fill="none" stroke="black" points="5517.5,-52 5250.5,-52 5250.5,-16 5517.5,-16 5517.5,-52"/>
<text text-anchor="middle" x="5384" y="-30.3" font-family="Times,serif" font-size="14.00">12_node#ServerID_e56b6537e2d5</text>
</g>
<!-- localhost:3000#ServerID_e56b6537e2d5&#45;&gt;12_node#ServerID_e56b6537e2d5 -->
<g id="edge13" class="edge"><title>localhost:3000#ServerID_e56b6537e2d5&#45;&gt;12_node#ServerID_e56b6537e2d5</title>
<path fill="none" stroke="black" d="M5384,-102.799C5384,-91.1626 5384,-75.5479 5384,-62.2368"/>
<polygon fill="black" stroke="black" points="5387.5,-62.1754 5384,-52.1754 5380.5,-62.1755 5387.5,-62.1754"/>
<text text-anchor="middle" x="5400.5" y="-73.8" font-family="Times,serif" font-size="14.00">read</text>
</g>
<!-- 10_node#ServerID_34e86192c217&#45;&gt;gateway:8080#ServerID_OuterContainerID -->
<g id="edge14" class="edge"><title>10_node#ServerID_34e86192c217&#45;&gt;gateway:8080#ServerID_OuterContainerID</title>
<path fill="none" stroke="black" d="M6240.64,-226.075C6211.79,-237.328 6171.74,-251.046 6135,-257 6075.5,-266.643 4025.27,-264.113 3965,-265 3395.54,-273.384 3253.07,-275.221 2684,-298 2631.75,-300.092 2574.62,-303.008 2523.64,-305.836"/>
<polygon fill="black" stroke="black" points="2523.32,-302.348 2513.53,-306.4 2523.71,-309.337 2523.32,-302.348"/>
<text text-anchor="middle" x="3994" y="-268.8" font-family="Times,serif" font-size="14.00">connect</text>
</g>
<!-- 10.152.183.10:53#ServerID_OuterContainerID -->
<g id="node15" class="node"><title>10.152.183.10:53#ServerID_OuterContainerID</title>
<polygon fill="none" stroke="black" points="3020,-334 2692.56,-316 3020,-298 3347.44,-316 3020,-334"/>
<text text-anchor="middle" x="3020" y="-312.3" font-family="Times,serif" font-size="14.00">10.152.183.10:53#ServerID_OuterContainerID</text>
</g>
<!-- 10_node#ServerID_34e86192c217&#45;&gt;10.152.183.10:53#ServerID_OuterContainerID -->
<g id="edge19" class="edge"><title>10_node#ServerID_34e86192c217&#45;&gt;10.152.183.10:53#ServerID_OuterContainerID</title>
<path fill="none" stroke="black" d="M6239.64,-226.084C6210.85,-237.108 6171.25,-250.553 6135,-257 5842.09,-309.092 5763.44,-273.619 5466,-280 4528.85,-300.105 4293.96,-270.381 3357,-298 3298.86,-299.714 3235.13,-302.655 3178.88,-305.615"/>
<polygon fill="black" stroke="black" points="3178.64,-302.123 3168.84,-306.148 3179.01,-309.113 3178.64,-302.123"/>
<text text-anchor="middle" x="6109.5" y="-268.8" font-family="Times,serif" font-size="14.00">sendto</text>
</g>
<!-- 10.1.80.247:38196#ServerID_OuterContainerID -->
<g id="node14" class="node"><title>10.1.80.247:38196#ServerID_OuterContainerID</title>
<polygon fill="none" stroke="black" points="4390,-334 4054.52,-316 4390,-298 4725.48,-316 4390,-334"/>
<text text-anchor="middle" x="4390" y="-312.3" font-family="Times,serif" font-size="14.00">10.1.80.247:38196#ServerID_OuterContainerID</text>
</g>
<!-- 10.1.80.247:38196#ServerID_OuterContainerID&#45;&gt;1_fwatchdog#ServerID_34e86192c217 -->
<g id="edge16" class="edge"><title>10.1.80.247:38196#ServerID_OuterContainerID&#45;&gt;1_fwatchdog#ServerID_34e86192c217</title>
<path fill="none" stroke="black" d="M4545.91,-325.666C4902.95,-345.512 5776.77,-394.083 6137.37,-414.127"/>
<polygon fill="black" stroke="black" points="6137.18,-417.622 6147.36,-414.682 6137.57,-410.633 6137.18,-417.622"/>
<text text-anchor="middle" x="5642.5" y="-376.8" font-family="Times,serif" font-size="14.00">read</text>
</g>
<!-- 10.152.183.10:53#ServerID_OuterContainerID&#45;&gt;10_node#ServerID_34e86192c217 -->
<g id="edge18" class="edge"><title>10.152.183.10:53#ServerID_OuterContainerID&#45;&gt;10_node#ServerID_34e86192c217</title>
<path fill="none" stroke="black" d="M3170.94,-306.281C3229.07,-303.213 3296.11,-300.027 3357,-298 4264.62,-267.786 4491.96,-277.275 5400,-265 5440.83,-264.448 6094.71,-263.678 6135,-257 6167.73,-251.575 6203.11,-240.096 6230.84,-229.724"/>
<polygon fill="black" stroke="black" points="6232.22,-232.946 6240.31,-226.114 6229.72,-226.405 6232.22,-232.946"/>
<text text-anchor="middle" x="5433" y="-268.8" font-family="Times,serif" font-size="14.00">recvfrom</text>
</g>
<!-- 10.1.80.1:57383#ServerID_OuterContainerID&#45;&gt;10.1.80.247:8080#ServerID_OuterContainerID -->
<g id="edge22" class="edge"><title>10.1.80.1:57383#ServerID_OuterContainerID&#45;&gt;10.1.80.247:8080#ServerID_OuterContainerID</title>
<path fill="none" stroke="black" d="M972.23,-223.159C912.389,-239.319 809.723,-265.394 720,-280 648.261,-291.678 568.16,-299.798 500.305,-305.254"/>
<polygon fill="black" stroke="black" points="499.647,-301.795 489.955,-306.074 500.2,-308.773 499.647,-301.795"/>
<text text-anchor="middle" x="816" y="-268.8" font-family="Times,serif" font-size="14.00">POST</text>
</g>
</g>
</svg>
