<?xml version="1.0" encoding="UTF-8" standalone="no"?>
<!DOCTYPE svg PUBLIC "-//W3C//DTD SVG 1.1//EN"
 "http://www.w3.org/Graphics/SVG/1.1/DTD/svg11.dtd">
<!-- Generated by graphviz version 2.38.0 (20140413.2041)
 -->
<!-- Title: G Pages: 1 -->
<svg width="5457pt" height="597pt"
 viewBox="0.00 0.00 5457.00 597.00" xmlns="http://www.w3.org/2000/svg" xmlns:xlink="http://www.w3.org/1999/xlink">
<g id="graph0" class="graph" transform="scale(1 1) rotate(0) translate(4 593)">
<title>G</title>
<polygon fill="white" stroke="none" points="-4,4 -4,-593 5453,-593 5453,4 -4,4"/>
<g id="clust1" class="cluster"><title>clusterServerID_34e86192c217</title>
<polygon fill="none" stroke="black" points="3005,-311 3005,-581 4401,-581 4401,-311 3005,-311"/>
<text text-anchor="middle" x="3703" y="-565.8" font-family="Times,serif" font-size="14.00">clusterServerID_34e86192c217</text>
</g>
<g id="clust2" class="cluster"><title>clusterServerID_5f846fd567&#45;w7nbt</title>
<polygon fill="none" stroke="black" points="853,-311 853,-386 1193,-386 1193,-311 853,-311"/>
<text text-anchor="middle" x="1023" y="-370.8" font-family="Times,serif" font-size="14.00">clusterServerID_5f846fd567&#45;w7nbt</text>
</g>
<g id="clust3" class="cluster"><title>clusterServerID_6df85d7674&#45;2kqrj</title>
<polygon fill="none" stroke="black" points="5103,-95 5103,-170 5441,-170 5441,-95 5103,-95"/>
<text text-anchor="middle" x="5272" y="-154.8" font-family="Times,serif" font-size="14.00">clusterServerID_6df85d7674&#45;2kqrj</text>
</g>
<g id="clust4" class="cluster"><title>clusterServerID_OuterContainerID</title>
<polygon fill="none" stroke="black" points="8,-95 8,-278 4045,-278 4045,-95 8,-95"/>
<text text-anchor="middle" x="2026.5" y="-262.8" font-family="Times,serif" font-size="14.00">clusterServerID_OuterContainerID</text>
</g>
<g id="clust5" class="cluster"><title>clusterServerID_e56b6537e2d5</title>
<polygon fill="none" stroke="black" points="4053,-8 4053,-170 5095,-170 5095,-8 4053,-8"/>
<text text-anchor="middle" x="4574" y="-154.8" font-family="Times,serif" font-size="14.00">clusterServerID_e56b6537e2d5</text>
</g>
<!-- 1_fwatchdog#ServerID_5f846fd567&#45;w7nbt -->
<g id="node1" class="node"><title>1_fwatchdog#ServerID_5f846fd567&#45;w7nbt</title>
<polygon fill="none" stroke="black" points="1185,-355 861,-355 861,-319 1185,-319 1185,-355"/>
<text text-anchor="middle" x="1023" y="-333.3" font-family="Times,serif" font-size="14.00">1_fwatchdog#ServerID_5f846fd567&#45;w7nbt</text>
</g>
<!-- 10.1.80.247:40160#ServerID_OuterContainerID -->
<g id="node2" class="node"><title>10.1.80.247:40160#ServerID_OuterContainerID</title>
<polygon fill="none" stroke="black" points="1024,-247 688.515,-229 1024,-211 1359.48,-229 1024,-247"/>
<text text-anchor="middle" x="1024" y="-225.3" font-family="Times,serif" font-size="14.00">10.1.80.247:40160#ServerID_OuterContainerID</text>
</g>
<!-- 1_fwatchdog#ServerID_5f846fd567&#45;w7nbt&#45;&gt;10.1.80.247:40160#ServerID_OuterContainerID -->
<g id="edge1" class="edge"><title>1_fwatchdog#ServerID_5f846fd567&#45;w7nbt&#45;&gt;10.1.80.247:40160#ServerID_OuterContainerID</title>
<path fill="none" stroke="black" d="M1028.96,-318.759C1030.61,-313.165 1032.18,-306.883 1033,-301 1035.04,-286.436 1033.27,-270.162 1030.78,-256.873"/>
<polygon fill="black" stroke="black" points="1034.17,-256.006 1028.68,-246.944 1027.32,-257.452 1034.17,-256.006"/>
<text text-anchor="middle" x="1076" y="-289.8" font-family="Times,serif" font-size="14.00">RESPONSE</text>
</g>
<!-- 10.1.80.247:40160#ServerID_OuterContainerID&#45;&gt;1_fwatchdog#ServerID_5f846fd567&#45;w7nbt -->
<g id="edge3" class="edge"><title>10.1.80.247:40160#ServerID_OuterContainerID&#45;&gt;1_fwatchdog#ServerID_5f846fd567&#45;w7nbt</title>
<path fill="none" stroke="black" d="M1010.26,-246.449C1002.35,-257.019 993.172,-271.453 989,-286 987.162,-292.408 986.493,-294.822 989,-301 990.421,-304.503 992.38,-307.848 994.646,-310.984"/>
<polygon fill="black" stroke="black" points="992.081,-313.372 1001.2,-318.762 997.433,-308.86 992.081,-313.372"/>
<text text-anchor="middle" x="1009" y="-289.8" font-family="Times,serif" font-size="14.00">POST</text>
</g>
<!-- 1_fwatchdog#ServerID_e56b6537e2d5 -->
<g id="node10" class="node"><title>1_fwatchdog#ServerID_e56b6537e2d5</title>
<polygon fill="none" stroke="black" points="4436.5,-139 4137.5,-139 4137.5,-103 4436.5,-103 4436.5,-139"/>
<text text-anchor="middle" x="4287" y="-117.3" font-family="Times,serif" font-size="14.00">1_fwatchdog#ServerID_e56b6537e2d5</text>
</g>
<!-- 10.1.80.247:40160#ServerID_OuterContainerID&#45;&gt;1_fwatchdog#ServerID_e56b6537e2d5 -->
<g id="edge19" class="edge"><title>10.1.80.247:40160#ServerID_OuterContainerID&#45;&gt;1_fwatchdog#ServerID_e56b6537e2d5</title>
<path fill="none" stroke="black" d="M1185.02,-219.621C1243.01,-216.721 1308.94,-213.559 1369,-211 1776.89,-193.62 1878.82,-186.261 2287,-178 2384.87,-176.019 3951.62,-179.946 4049,-170 4103.6,-164.424 4164.22,-152.104 4210.62,-141.343"/>
<polygon fill="black" stroke="black" points="4211.66,-144.694 4220.59,-139.002 4210.06,-137.879 4211.66,-144.694"/>
<text text-anchor="middle" x="2303.5" y="-181.8" font-family="Times,serif" font-size="14.00">read</text>
</g>
<!-- gateway:8080#ServerID_OuterContainerID -->
<g id="node3" class="node"><title>gateway:8080#ServerID_OuterContainerID</title>
<polygon fill="none" stroke="black" points="2371,-247 2066.52,-229 2371,-211 2675.48,-229 2371,-247"/>
<text text-anchor="middle" x="2371" y="-225.3" font-family="Times,serif" font-size="14.00">gateway:8080#ServerID_OuterContainerID</text>
</g>
<!-- 1_fwatchdog#ServerID_6df85d7674&#45;2kqrj -->
<g id="node4" class="node"><title>1_fwatchdog#ServerID_6df85d7674&#45;2kqrj</title>
<polygon fill="none" stroke="black" points="5432.5,-139 5111.5,-139 5111.5,-103 5432.5,-103 5432.5,-139"/>
<text text-anchor="middle" x="5272" y="-117.3" font-family="Times,serif" font-size="14.00">1_fwatchdog#ServerID_6df85d7674&#45;2kqrj</text>
</g>
<!-- gateway:8080#ServerID_OuterContainerID&#45;&gt;1_fwatchdog#ServerID_6df85d7674&#45;2kqrj -->
<g id="edge2" class="edge"><title>gateway:8080#ServerID_OuterContainerID&#45;&gt;1_fwatchdog#ServerID_6df85d7674&#45;2kqrj</title>
<path fill="none" stroke="black" d="M2491,-218.056C2643.89,-205.902 2916.36,-185.97 3150,-178 3204.11,-176.154 5045.37,-177.414 5099,-170 5138.2,-164.58 5181.07,-152.73 5214.33,-142.16"/>
<polygon fill="black" stroke="black" points="5215.44,-145.478 5223.89,-139.075 5213.29,-138.817 5215.44,-145.478"/>
<text text-anchor="middle" x="3192" y="-181.8" font-family="Times,serif" font-size="14.00">RESPONSE</text>
</g>
<!-- 1_fwatchdog#ServerID_6df85d7674&#45;2kqrj&#45;&gt;gateway:8080#ServerID_OuterContainerID -->
<g id="edge5" class="edge"><title>1_fwatchdog#ServerID_6df85d7674&#45;2kqrj&#45;&gt;gateway:8080#ServerID_OuterContainerID</title>
<path fill="none" stroke="black" d="M5223.88,-139.041C5189.57,-150.277 5142.06,-163.991 5099,-170 5032.81,-179.237 3962.83,-176.867 3896,-178 3626.83,-182.562 2953.99,-200.055 2685,-211 2632.58,-213.133 2575.27,-216.06 2524.13,-218.884"/>
<polygon fill="black" stroke="black" points="2523.78,-215.398 2513.99,-219.447 2524.17,-222.387 2523.78,-215.398"/>
<text text-anchor="middle" x="3916" y="-181.8" font-family="Times,serif" font-size="14.00">POST</text>
</g>
<!-- 10.1.80.247:8080#ServerID_OuterContainerID -->
<g id="node5" class="node"><title>10.1.80.247:8080#ServerID_OuterContainerID</title>
<polygon fill="none" stroke="black" points="343,-247 15.5599,-229 343,-211 670.44,-229 343,-247"/>
<text text-anchor="middle" x="343" y="-225.3" font-family="Times,serif" font-size="14.00">10.1.80.247:8080#ServerID_OuterContainerID</text>
</g>
<!-- 1_fwatchdog#ServerID_6df85d7674&#45;2kqrj&#45;&gt;10.1.80.247:8080#ServerID_OuterContainerID -->
<g id="edge8" class="edge"><title>1_fwatchdog#ServerID_6df85d7674&#45;2kqrj&#45;&gt;10.1.80.247:8080#ServerID_OuterContainerID</title>
<path fill="none" stroke="black" d="M5223.89,-139.103C5189.58,-150.369 5142.08,-164.091 5099,-170 5043.63,-177.595 1130.85,-176.039 1075,-178 1046.3,-179.007 694.816,-203.406 489.534,-217.741"/>
<polygon fill="black" stroke="black" points="488.997,-214.27 479.265,-218.458 489.485,-221.253 488.997,-214.27"/>
<text text-anchor="middle" x="1095" y="-181.8" font-family="Times,serif" font-size="14.00">POST</text>
</g>
<!-- 10.1.80.247:38196#ServerID_OuterContainerID -->
<g id="node6" class="node"><title>10.1.80.247:38196#ServerID_OuterContainerID</title>
<polygon fill="none" stroke="black" points="3029,-247 2693.52,-229 3029,-211 3364.48,-229 3029,-247"/>
<text text-anchor="middle" x="3029" y="-225.3" font-family="Times,serif" font-size="14.00">10.1.80.247:38196#ServerID_OuterContainerID</text>
</g>
<!-- 1_fwatchdog#ServerID_6df85d7674&#45;2kqrj&#45;&gt;10.1.80.247:38196#ServerID_OuterContainerID -->
<g id="edge6" class="edge"><title>1_fwatchdog#ServerID_6df85d7674&#45;2kqrj&#45;&gt;10.1.80.247:38196#ServerID_OuterContainerID</title>
<path fill="none" stroke="black" d="M5223.49,-139.021C5189.2,-150.17 5141.88,-163.787 5099,-170 5047.64,-177.442 4683.88,-176.875 4632,-178 4072.83,-190.123 3932.91,-189.902 3374,-211 3316.34,-213.177 3253.28,-216.119 3197.03,-218.943"/>
<polygon fill="black" stroke="black" points="3196.79,-215.451 3186.98,-219.451 3197.14,-222.442 3196.79,-215.451"/>
<text text-anchor="middle" x="4674" y="-181.8" font-family="Times,serif" font-size="14.00">RESPONSE</text>
</g>
<!-- 10.1.80.247:8080#ServerID_OuterContainerID&#45;&gt;1_fwatchdog#ServerID_6df85d7674&#45;2kqrj -->
<g id="edge4" class="edge"><title>10.1.80.247:8080#ServerID_OuterContainerID&#45;&gt;1_fwatchdog#ServerID_6df85d7674&#45;2kqrj</title>
<path fill="none" stroke="black" d="M499.009,-219.548C555.958,-216.616 620.884,-213.453 680,-211 1130.52,-192.307 1243.16,-185.864 1694,-178 1741.28,-177.175 5052.15,-176.435 5099,-170 5138.21,-164.615 5181.08,-152.764 5214.33,-142.186"/>
<polygon fill="black" stroke="black" points="5215.45,-145.504 5223.89,-139.098 5213.3,-138.843 5215.45,-145.504"/>
<text text-anchor="middle" x="1736" y="-181.8" font-family="Times,serif" font-size="14.00">RESPONSE</text>
</g>
<!-- 10.1.80.1:14269#ServerID_OuterContainerID -->
<g id="node17" class="node"><title>10.1.80.1:14269#ServerID_OuterContainerID</title>
<polygon fill="none" stroke="black" points="1023,-139 704.105,-121 1023,-103 1341.9,-121 1023,-139"/>
<text text-anchor="middle" x="1023" y="-117.3" font-family="Times,serif" font-size="14.00">10.1.80.1:14269#ServerID_OuterContainerID</text>
</g>
<!-- 10.1.80.247:8080#ServerID_OuterContainerID&#45;&gt;10.1.80.1:14269#ServerID_OuterContainerID -->
<g id="edge22" class="edge"><title>10.1.80.247:8080#ServerID_OuterContainerID&#45;&gt;10.1.80.1:14269#ServerID_OuterContainerID</title>
<path fill="none" stroke="black" d="M413.82,-214.831C472.239,-204.189 557.347,-189.192 632,-178 659.913,-173.815 667.035,-173.821 695,-170 774.864,-159.087 865.519,-145.747 931.252,-135.903"/>
<polygon fill="black" stroke="black" points="931.803,-139.359 941.173,-134.415 930.765,-132.437 931.803,-139.359"/>
<text text-anchor="middle" x="674" y="-181.8" font-family="Times,serif" font-size="14.00">RESPONSE</text>
</g>
<!-- 10.0.88.125:31112#ServerID_OuterContainerID -->
<g id="node18" class="node"><title>10.0.88.125:31112#ServerID_OuterContainerID</title>
<polygon fill="none" stroke="black" points="351,-139 15.5152,-121 351,-103 686.485,-121 351,-139"/>
<text text-anchor="middle" x="351" y="-117.3" font-family="Times,serif" font-size="14.00">10.0.88.125:31112#ServerID_OuterContainerID</text>
</g>
<!-- 10.1.80.247:8080#ServerID_OuterContainerID&#45;&gt;10.0.88.125:31112#ServerID_OuterContainerID -->
<g id="edge23" class="edge"><title>10.1.80.247:8080#ServerID_OuterContainerID&#45;&gt;10.0.88.125:31112#ServerID_OuterContainerID</title>
<path fill="none" stroke="black" d="M344.285,-210.969C345.545,-194.279 347.485,-168.579 348.956,-149.084"/>
<polygon fill="black" stroke="black" points="352.455,-149.224 349.718,-138.988 345.475,-148.697 352.455,-149.224"/>
<text text-anchor="middle" x="389" y="-181.8" font-family="Times,serif" font-size="14.00">RESPONSE</text>
</g>
<!-- 10.1.80.247:38196#ServerID_OuterContainerID&#45;&gt;1_fwatchdog#ServerID_6df85d7674&#45;2kqrj -->
<g id="edge7" class="edge"><title>10.1.80.247:38196#ServerID_OuterContainerID&#45;&gt;1_fwatchdog#ServerID_6df85d7674&#45;2kqrj</title>
<path fill="none" stroke="black" d="M3183.09,-219.225C3242.71,-216.14 3311.51,-212.958 3374,-211 3970.21,-192.318 4119.9,-214.884 4716,-193 4886.41,-186.744 4930.8,-198.063 5099,-170 5137.03,-163.655 5178.7,-152.234 5211.62,-142.124"/>
<polygon fill="black" stroke="black" points="5213.03,-145.35 5221.54,-139.036 5210.95,-138.667 5213.03,-145.35"/>
<text text-anchor="middle" x="5063" y="-181.8" font-family="Times,serif" font-size="14.00">POST</text>
</g>
<!-- 1_fwatchdog#ServerID_34e86192c217 -->
<g id="node7" class="node"><title>1_fwatchdog#ServerID_34e86192c217</title>
<polygon fill="none" stroke="black" points="4255.5,-550 3956.5,-550 3956.5,-514 4255.5,-514 4255.5,-550"/>
<text text-anchor="middle" x="4106" y="-528.3" font-family="Times,serif" font-size="14.00">1_fwatchdog#ServerID_34e86192c217</text>
</g>
<!-- localhost:3000#ServerID_34e86192c217 -->
<g id="node8" class="node"><title>localhost:3000#ServerID_34e86192c217</title>
<polygon fill="none" stroke="black" points="4106,-463 3819.45,-445 4106,-427 4392.55,-445 4106,-463"/>
<text text-anchor="middle" x="4106" y="-441.3" font-family="Times,serif" font-size="14.00">localhost:3000#ServerID_34e86192c217</text>
</g>
<!-- 1_fwatchdog#ServerID_34e86192c217&#45;&gt;localhost:3000#ServerID_34e86192c217 -->
<g id="edge9" class="edge"><title>1_fwatchdog#ServerID_34e86192c217&#45;&gt;localhost:3000#ServerID_34e86192c217</title>
<path fill="none" stroke="black" d="M4106,-513.799C4106,-502.163 4106,-486.548 4106,-473.237"/>
<polygon fill="black" stroke="black" points="4109.5,-473.175 4106,-463.175 4102.5,-473.175 4109.5,-473.175"/>
<text text-anchor="middle" x="4125" y="-484.8" font-family="Times,serif" font-size="14.00">write</text>
</g>
<!-- 10_node#ServerID_34e86192c217 -->
<g id="node12" class="node"><title>10_node#ServerID_34e86192c217</title>
<polygon fill="none" stroke="black" points="3754.5,-355 3487.5,-355 3487.5,-319 3754.5,-319 3754.5,-355"/>
<text text-anchor="middle" x="3621" y="-333.3" font-family="Times,serif" font-size="14.00">10_node#ServerID_34e86192c217</text>
</g>
<!-- localhost:3000#ServerID_34e86192c217&#45;&gt;10_node#ServerID_34e86192c217 -->
<g id="edge16" class="edge"><title>localhost:3000#ServerID_34e86192c217&#45;&gt;10_node#ServerID_34e86192c217</title>
<path fill="none" stroke="black" d="M4045.56,-430.789C3960.86,-412.278 3806.33,-378.506 3708.91,-357.213"/>
<polygon fill="black" stroke="black" points="3709.59,-353.78 3699.08,-355.064 3708.1,-360.619 3709.59,-353.78"/>
<text text-anchor="middle" x="3952.5" y="-397.8" font-family="Times,serif" font-size="14.00">read</text>
</g>
<!-- 10.1.80.247:40102#ServerID_OuterContainerID -->
<g id="node9" class="node"><title>10.1.80.247:40102#ServerID_OuterContainerID</title>
<polygon fill="none" stroke="black" points="1713,-247 1377.52,-229 1713,-211 2048.48,-229 1713,-247"/>
<text text-anchor="middle" x="1713" y="-225.3" font-family="Times,serif" font-size="14.00">10.1.80.247:40102#ServerID_OuterContainerID</text>
</g>
<!-- 10.1.80.247:40102#ServerID_OuterContainerID&#45;&gt;1_fwatchdog#ServerID_e56b6537e2d5 -->
<g id="edge10" class="edge"><title>10.1.80.247:40102#ServerID_OuterContainerID&#45;&gt;1_fwatchdog#ServerID_e56b6537e2d5</title>
<path fill="none" stroke="black" d="M1857.08,-218.728C2050.04,-206.77 2403.13,-186.502 2705,-178 2779.64,-175.898 3974.72,-177.639 4049,-170 4103.49,-164.396 4164,-152.111 4210.36,-141.372"/>
<polygon fill="black" stroke="black" points="4211.4,-144.726 4220.33,-139.037 4209.8,-137.91 4211.4,-144.726"/>
<text text-anchor="middle" x="2721.5" y="-181.8" font-family="Times,serif" font-size="14.00">read</text>
</g>
<!-- localhost:3000#ServerID_e56b6537e2d5 -->
<g id="node15" class="node"><title>localhost:3000#ServerID_e56b6537e2d5</title>
<polygon fill="none" stroke="black" points="4348,-52 4061.45,-34 4348,-16 4634.55,-34 4348,-52"/>
<text text-anchor="middle" x="4348" y="-30.3" font-family="Times,serif" font-size="14.00">localhost:3000#ServerID_e56b6537e2d5</text>
</g>
<!-- 1_fwatchdog#ServerID_e56b6537e2d5&#45;&gt;localhost:3000#ServerID_e56b6537e2d5 -->
<g id="edge17" class="edge"><title>1_fwatchdog#ServerID_e56b6537e2d5&#45;&gt;localhost:3000#ServerID_e56b6537e2d5</title>
<path fill="none" stroke="black" d="M4283.33,-102.658C4282.11,-92.4724 4282.28,-79.7307 4288,-70 4291.29,-64.4053 4295.85,-59.6162 4300.99,-55.5411"/>
<polygon fill="black" stroke="black" points="4303.21,-58.2623 4309.47,-49.7121 4299.25,-52.4945 4303.21,-58.2623"/>
<text text-anchor="middle" x="4307" y="-73.8" font-family="Times,serif" font-size="14.00">write</text>
</g>
<!-- pipe:[331682317]#ServerID_e56b6537e2d5 -->
<g id="node16" class="node"><title>pipe:[331682317]#ServerID_e56b6537e2d5</title>
<ellipse fill="none" stroke="black" cx="4870" cy="-34" rx="217.162" ry="18"/>
<text text-anchor="middle" x="4870" y="-30.3" font-family="Times,serif" font-size="14.00">pipe:[331682317]#ServerID_e56b6537e2d5</text>
</g>
<!-- 1_fwatchdog#ServerID_e56b6537e2d5&#45;&gt;pipe:[331682317]#ServerID_e56b6537e2d5 -->
<g id="edge20" class="edge"><title>1_fwatchdog#ServerID_e56b6537e2d5&#45;&gt;pipe:[331682317]#ServerID_e56b6537e2d5</title>
<path fill="none" stroke="black" d="M4403.93,-102.952C4507.03,-87.9203 4656.26,-66.1628 4757.89,-51.3452"/>
<polygon fill="black" stroke="black" points="4758.49,-54.7947 4767.88,-49.8885 4757.48,-47.868 4758.49,-54.7947"/>
<text text-anchor="middle" x="4632" y="-73.8" font-family="Times,serif" font-size="14.00">write</text>
</g>
<!-- /etc/hosts#ServerID_34e86192c217 -->
<g id="node11" class="node"><title>/etc/hosts#ServerID_34e86192c217</title>
<ellipse fill="none" stroke="black" cx="3621" cy="-445" rx="180.068" ry="18"/>
<text text-anchor="middle" x="3621" y="-441.3" font-family="Times,serif" font-size="14.00">/etc/hosts#ServerID_34e86192c217</text>
</g>
<!-- /etc/hosts#ServerID_34e86192c217&#45;&gt;10_node#ServerID_34e86192c217 -->
<g id="edge11" class="edge"><title>/etc/hosts#ServerID_34e86192c217&#45;&gt;10_node#ServerID_34e86192c217</title>
<path fill="none" stroke="black" d="M3621,-426.969C3621,-410.378 3621,-384.883 3621,-365.431"/>
<polygon fill="black" stroke="black" points="3624.5,-365.341 3621,-355.341 3617.5,-365.341 3624.5,-365.341"/>
<text text-anchor="middle" x="3637.5" y="-397.8" font-family="Times,serif" font-size="14.00">read</text>
</g>
<!-- 10_node#ServerID_34e86192c217&#45;&gt;gateway:8080#ServerID_OuterContainerID -->
<g id="edge15" class="edge"><title>10_node#ServerID_34e86192c217&#45;&gt;gateway:8080#ServerID_OuterContainerID</title>
<path fill="none" stroke="black" d="M3487.38,-331.496C3305.48,-324.503 2969.92,-308.542 2685,-278 2605.63,-269.491 2515.62,-255.258 2452.38,-244.494"/>
<polygon fill="black" stroke="black" points="2452.92,-241.035 2442.47,-242.798 2451.74,-247.934 2452.92,-241.035"/>
<text text-anchor="middle" x="2945" y="-289.8" font-family="Times,serif" font-size="14.00">connect</text>
</g>
<!-- 10.152.183.10:53#ServerID_OuterContainerID -->
<g id="node14" class="node"><title>10.152.183.10:53#ServerID_OuterContainerID</title>
<polygon fill="none" stroke="black" points="3710,-247 3382.56,-229 3710,-211 4037.44,-229 3710,-247"/>
<text text-anchor="middle" x="3710" y="-225.3" font-family="Times,serif" font-size="14.00">10.152.183.10:53#ServerID_OuterContainerID</text>
</g>
<!-- 10_node#ServerID_34e86192c217&#45;&gt;10.152.183.10:53#ServerID_OuterContainerID -->
<g id="edge13" class="edge"><title>10_node#ServerID_34e86192c217&#45;&gt;10.152.183.10:53#ServerID_OuterContainerID</title>
<path fill="none" stroke="black" d="M3665.7,-318.996C3674,-314.201 3681.95,-308.258 3688,-301 3698.37,-288.557 3703.86,-271.246 3706.76,-256.832"/>
<polygon fill="black" stroke="black" points="3710.22,-257.406 3708.45,-246.959 3703.32,-256.226 3710.22,-257.406"/>
<text text-anchor="middle" x="3721.5" y="-289.8" font-family="Times,serif" font-size="14.00">sendto</text>
</g>
<!-- /etc/resolv.conf#ServerID_34e86192c217 -->
<g id="node13" class="node"><title>/etc/resolv.conf#ServerID_34e86192c217</title>
<ellipse fill="none" stroke="black" cx="3218" cy="-445" rx="205.264" ry="18"/>
<text text-anchor="middle" x="3218" y="-441.3" font-family="Times,serif" font-size="14.00">/etc/resolv.conf#ServerID_34e86192c217</text>
</g>
<!-- /etc/resolv.conf#ServerID_34e86192c217&#45;&gt;10_node#ServerID_34e86192c217 -->
<g id="edge12" class="edge"><title>/etc/resolv.conf#ServerID_34e86192c217&#45;&gt;10_node#ServerID_34e86192c217</title>
<path fill="none" stroke="black" d="M3279.65,-427.785C3351.29,-408.942 3469.47,-377.857 3546.27,-357.656"/>
<polygon fill="black" stroke="black" points="3547.58,-360.931 3556.36,-355.003 3545.8,-354.162 3547.58,-360.931"/>
<text text-anchor="middle" x="3424.5" y="-397.8" font-family="Times,serif" font-size="14.00">read</text>
</g>
<!-- 10.152.183.10:53#ServerID_OuterContainerID&#45;&gt;10_node#ServerID_34e86192c217 -->
<g id="edge14" class="edge"><title>10.152.183.10:53#ServerID_OuterContainerID&#45;&gt;10_node#ServerID_34e86192c217</title>
<path fill="none" stroke="black" d="M3667.56,-244.733C3648.86,-253.592 3628.72,-266.928 3618,-286 3614.19,-292.776 3613.41,-300.914 3614,-308.639"/>
<polygon fill="black" stroke="black" points="3610.57,-309.374 3615.51,-318.748 3617.5,-308.341 3610.57,-309.374"/>
<text text-anchor="middle" x="3651" y="-289.8" font-family="Times,serif" font-size="14.00">recvfrom</text>
</g>
<!-- localhost:3000#ServerID_e56b6537e2d5&#45;&gt;1_fwatchdog#ServerID_e56b6537e2d5 -->
<g id="edge18" class="edge"><title>localhost:3000#ServerID_e56b6537e2d5&#45;&gt;1_fwatchdog#ServerID_e56b6537e2d5</title>
<path fill="none" stroke="black" d="M4342.68,-51.693C4338.96,-61.8857 4333.34,-74.8623 4326,-85 4323.28,-88.7482 4320.11,-92.3889 4316.76,-95.8168"/>
<polygon fill="black" stroke="black" points="4314.11,-93.5115 4309.27,-102.94 4318.93,-98.5827 4314.11,-93.5115"/>
<text text-anchor="middle" x="4350.5" y="-73.8" font-family="Times,serif" font-size="14.00">read</text>
</g>
<!-- 10.1.80.1:14269#ServerID_OuterContainerID&#45;&gt;10.1.80.247:8080#ServerID_OuterContainerID -->
<g id="edge21" class="edge"><title>10.1.80.1:14269#ServerID_OuterContainerID&#45;&gt;10.1.80.247:8080#ServerID_OuterContainerID</title>
<path fill="none" stroke="black" d="M972.23,-136.159C912.389,-152.319 809.723,-178.394 720,-193 648.261,-204.678 568.16,-212.798 500.305,-218.254"/>
<polygon fill="black" stroke="black" points="499.647,-214.795 489.955,-219.074 500.2,-221.773 499.647,-214.795"/>
<text text-anchor="middle" x="816" y="-181.8" font-family="Times,serif" font-size="14.00">POST</text>
</g>
</g>
</svg>
