<?xml version="1.0" encoding="UTF-8" standalone="no"?>
<!DOCTYPE svg PUBLIC "-//W3C//DTD SVG 1.1//EN"
 "http://www.w3.org/Graphics/SVG/1.1/DTD/svg11.dtd">
<!-- Generated by graphviz version 2.38.0 (20140413.2041)
 -->
<!-- Title: G Pages: 1 -->
<svg width="4328pt" height="510pt"
 viewBox="0.00 0.00 4328.00 510.00" xmlns="http://www.w3.org/2000/svg" xmlns:xlink="http://www.w3.org/1999/xlink">
<g id="graph0" class="graph" transform="scale(1 1) rotate(0) translate(4 506)">
<title>G</title>
<polygon fill="white" stroke="none" points="-4,4 -4,-506 4324,-506 4324,4 -4,4"/>
<g id="clust1" class="cluster"><title>clusterServerID_34e86192c217</title>
<polygon fill="none" stroke="black" points="2309,-311 2309,-494 3431,-494 3431,-311 2309,-311"/>
<text text-anchor="middle" x="2870" y="-478.8" font-family="Times,serif" font-size="14.00">clusterServerID_34e86192c217</text>
</g>
<g id="clust2" class="cluster"><title>clusterServerID_5f846fd567&#45;w7nbt</title>
<polygon fill="none" stroke="black" points="3972,-95 3972,-170 4312,-170 4312,-95 3972,-95"/>
<text text-anchor="middle" x="4142" y="-154.8" font-family="Times,serif" font-size="14.00">clusterServerID_5f846fd567&#45;w7nbt</text>
</g>
<g id="clust3" class="cluster"><title>clusterServerID_6df85d7674&#45;2kqrj</title>
<polygon fill="none" stroke="black" points="1431,-311 1431,-386 1769,-386 1769,-311 1431,-311"/>
<text text-anchor="middle" x="1600" y="-370.8" font-family="Times,serif" font-size="14.00">clusterServerID_6df85d7674&#45;2kqrj</text>
</g>
<g id="clust4" class="cluster"><title>clusterServerID_OuterContainerID</title>
<polygon fill="none" stroke="black" points="617,-95 617,-278 3964,-278 3964,-95 617,-95"/>
<text text-anchor="middle" x="2290.5" y="-262.8" font-family="Times,serif" font-size="14.00">clusterServerID_OuterContainerID</text>
</g>
<g id="clust5" class="cluster"><title>clusterServerID_e56b6537e2d5</title>
<polygon fill="none" stroke="black" points="8,-8 8,-278 609,-278 609,-8 8,-8"/>
<text text-anchor="middle" x="308.5" y="-262.8" font-family="Times,serif" font-size="14.00">clusterServerID_e56b6537e2d5</text>
</g>
<!-- gateway:8080#ServerID_OuterContainerID -->
<g id="node1" class="node"><title>gateway:8080#ServerID_OuterContainerID</title>
<polygon fill="none" stroke="black" points="1601,-247 1296.52,-229 1601,-211 1905.48,-229 1601,-247"/>
<text text-anchor="middle" x="1601" y="-225.3" font-family="Times,serif" font-size="14.00">gateway:8080#ServerID_OuterContainerID</text>
</g>
<!-- 1_fwatchdog#ServerID_6df85d7674&#45;2kqrj -->
<g id="node2" class="node"><title>1_fwatchdog#ServerID_6df85d7674&#45;2kqrj</title>
<polygon fill="none" stroke="black" points="1760.5,-355 1439.5,-355 1439.5,-319 1760.5,-319 1760.5,-355"/>
<text text-anchor="middle" x="1600" y="-333.3" font-family="Times,serif" font-size="14.00">1_fwatchdog#ServerID_6df85d7674&#45;2kqrj</text>
</g>
<!-- gateway:8080#ServerID_OuterContainerID&#45;&gt;1_fwatchdog#ServerID_6df85d7674&#45;2kqrj -->
<g id="edge1" class="edge"><title>gateway:8080#ServerID_OuterContainerID&#45;&gt;1_fwatchdog#ServerID_6df85d7674&#45;2kqrj</title>
<path fill="none" stroke="black" d="M1579.53,-245.827C1567.8,-255.863 1554.39,-269.957 1548,-286 1545.53,-292.194 1544.87,-295.115 1548,-301 1550.19,-305.11 1553.1,-308.823 1556.42,-312.158"/>
<polygon fill="black" stroke="black" points="1554.39,-315.021 1564.26,-318.861 1558.94,-309.701 1554.39,-315.021"/>
<text text-anchor="middle" x="1590" y="-289.8" font-family="Times,serif" font-size="14.00">RESPONSE</text>
</g>
<!-- 1_fwatchdog#ServerID_6df85d7674&#45;2kqrj&#45;&gt;gateway:8080#ServerID_OuterContainerID -->
<g id="edge4" class="edge"><title>1_fwatchdog#ServerID_6df85d7674&#45;2kqrj&#45;&gt;gateway:8080#ServerID_OuterContainerID</title>
<path fill="none" stroke="black" d="M1620.2,-318.928C1624.99,-313.716 1629.44,-307.601 1632,-301 1638.07,-285.366 1630.87,-268.119 1621.89,-254.538"/>
<polygon fill="black" stroke="black" points="1624.55,-252.245 1615.86,-246.197 1618.88,-256.349 1624.55,-252.245"/>
<text text-anchor="middle" x="1654" y="-289.8" font-family="Times,serif" font-size="14.00">POST</text>
</g>
<!-- 10.1.80.247:38172#ServerID_OuterContainerID -->
<g id="node3" class="node"><title>10.1.80.247:38172#ServerID_OuterContainerID</title>
<polygon fill="none" stroke="black" points="2259,-247 1923.52,-229 2259,-211 2594.48,-229 2259,-247"/>
<text text-anchor="middle" x="2259" y="-225.3" font-family="Times,serif" font-size="14.00">10.1.80.247:38172#ServerID_OuterContainerID</text>
</g>
<!-- 1_fwatchdog#ServerID_6df85d7674&#45;2kqrj&#45;&gt;10.1.80.247:38172#ServerID_OuterContainerID -->
<g id="edge5" class="edge"><title>1_fwatchdog#ServerID_6df85d7674&#45;2kqrj&#45;&gt;10.1.80.247:38172#ServerID_OuterContainerID</title>
<path fill="none" stroke="black" d="M1760.92,-324.456C1821.38,-318.963 1890.56,-311.294 1953,-301 2038.38,-286.923 2135.47,-263.021 2196.96,-246.881"/>
<polygon fill="black" stroke="black" points="2198.11,-250.197 2206.89,-244.261 2196.33,-243.428 2198.11,-250.197"/>
<text text-anchor="middle" x="2071" y="-289.8" font-family="Times,serif" font-size="14.00">RESPONSE</text>
</g>
<!-- 10.1.80.247:8080#ServerID_OuterContainerID -->
<g id="node6" class="node"><title>10.1.80.247:8080#ServerID_OuterContainerID</title>
<polygon fill="none" stroke="black" points="952,-247 624.56,-229 952,-211 1279.44,-229 952,-247"/>
<text text-anchor="middle" x="952" y="-225.3" font-family="Times,serif" font-size="14.00">10.1.80.247:8080#ServerID_OuterContainerID</text>
</g>
<!-- 1_fwatchdog#ServerID_6df85d7674&#45;2kqrj&#45;&gt;10.1.80.247:8080#ServerID_OuterContainerID -->
<g id="edge8" class="edge"><title>1_fwatchdog#ServerID_6df85d7674&#45;2kqrj&#45;&gt;10.1.80.247:8080#ServerID_OuterContainerID</title>
<path fill="none" stroke="black" d="M1531.4,-318.989C1485.65,-308.18 1424.03,-294.644 1369,-286 1333.26,-280.387 1323.91,-282.337 1288,-278 1204.95,-267.972 1110.69,-254.305 1043.18,-244.119"/>
<polygon fill="black" stroke="black" points="1043.41,-240.614 1033,-242.578 1042.37,-247.535 1043.41,-240.614"/>
<text text-anchor="middle" x="1465" y="-289.8" font-family="Times,serif" font-size="14.00">POST</text>
</g>
<!-- 10.1.80.247:38172#ServerID_OuterContainerID&#45;&gt;1_fwatchdog#ServerID_6df85d7674&#45;2kqrj -->
<g id="edge2" class="edge"><title>10.1.80.247:38172#ServerID_OuterContainerID&#45;&gt;1_fwatchdog#ServerID_6df85d7674&#45;2kqrj</title>
<path fill="none" stroke="black" d="M2179.29,-242.822C2063.79,-261.4 1849.2,-295.916 1716.11,-317.323"/>
<polygon fill="black" stroke="black" points="1715.2,-313.926 1705.88,-318.969 1716.31,-320.837 1715.2,-313.926"/>
<text text-anchor="middle" x="1929" y="-289.8" font-family="Times,serif" font-size="14.00">POST</text>
</g>
<!-- 1_fwatchdog#ServerID_34e86192c217 -->
<g id="node7" class="node"><title>1_fwatchdog#ServerID_34e86192c217</title>
<polygon fill="none" stroke="black" points="3422.5,-463 3123.5,-463 3123.5,-427 3422.5,-427 3422.5,-463"/>
<text text-anchor="middle" x="3273" y="-441.3" font-family="Times,serif" font-size="14.00">1_fwatchdog#ServerID_34e86192c217</text>
</g>
<!-- 10.1.80.247:38172#ServerID_OuterContainerID&#45;&gt;1_fwatchdog#ServerID_34e86192c217 -->
<g id="edge10" class="edge"><title>10.1.80.247:38172#ServerID_OuterContainerID&#45;&gt;1_fwatchdog#ServerID_34e86192c217</title>
<path fill="none" stroke="black" d="M2333.07,-243.077C2402.74,-254.716 2510.08,-270.956 2604,-278 2623.31,-279.448 3283.23,-278.306 3301,-286 3342.94,-304.162 3341.33,-343.312 3325,-386 3320.16,-398.657 3311.14,-410.293 3301.95,-419.767"/>
<polygon fill="black" stroke="black" points="3299.36,-417.402 3294.63,-426.88 3304.24,-422.424 3299.36,-417.402"/>
<text text-anchor="middle" x="3351.5" y="-333.3" font-family="Times,serif" font-size="14.00">read</text>
</g>
<!-- 10.1.80.247:40160#ServerID_OuterContainerID -->
<g id="node4" class="node"><title>10.1.80.247:40160#ServerID_OuterContainerID</title>
<polygon fill="none" stroke="black" points="2948,-247 2612.52,-229 2948,-211 3283.48,-229 2948,-247"/>
<text text-anchor="middle" x="2948" y="-225.3" font-family="Times,serif" font-size="14.00">10.1.80.247:40160#ServerID_OuterContainerID</text>
</g>
<!-- 1_fwatchdog#ServerID_5f846fd567&#45;w7nbt -->
<g id="node5" class="node"><title>1_fwatchdog#ServerID_5f846fd567&#45;w7nbt</title>
<polygon fill="none" stroke="black" points="4304,-139 3980,-139 3980,-103 4304,-103 4304,-139"/>
<text text-anchor="middle" x="4142" y="-117.3" font-family="Times,serif" font-size="14.00">1_fwatchdog#ServerID_5f846fd567&#45;w7nbt</text>
</g>
<!-- 10.1.80.247:40160#ServerID_OuterContainerID&#45;&gt;1_fwatchdog#ServerID_5f846fd567&#45;w7nbt -->
<g id="edge3" class="edge"><title>10.1.80.247:40160#ServerID_OuterContainerID&#45;&gt;1_fwatchdog#ServerID_5f846fd567&#45;w7nbt</title>
<path fill="none" stroke="black" d="M3094.45,-218.837C3263.64,-208.376 3550.4,-191.03 3797,-178 3872.98,-173.986 3892.86,-181.968 3968,-170 4006.59,-163.854 4048.87,-152.307 4082.08,-142.079"/>
<polygon fill="black" stroke="black" points="4083.14,-145.416 4091.64,-139.095 4081.06,-138.734 4083.14,-145.416"/>
<text text-anchor="middle" x="3817" y="-181.8" font-family="Times,serif" font-size="14.00">POST</text>
</g>
<!-- 1_fwatchdog#ServerID_e56b6537e2d5 -->
<g id="node15" class="node"><title>1_fwatchdog#ServerID_e56b6537e2d5</title>
<polygon fill="none" stroke="black" points="600.5,-139 301.5,-139 301.5,-103 600.5,-103 600.5,-139"/>
<text text-anchor="middle" x="451" y="-117.3" font-family="Times,serif" font-size="14.00">1_fwatchdog#ServerID_e56b6537e2d5</text>
</g>
<!-- 10.1.80.247:40160#ServerID_OuterContainerID&#45;&gt;1_fwatchdog#ServerID_e56b6537e2d5 -->
<g id="edge18" class="edge"><title>10.1.80.247:40160#ServerID_OuterContainerID&#45;&gt;1_fwatchdog#ServerID_e56b6537e2d5</title>
<path fill="none" stroke="black" d="M2795.2,-219.193C2735.29,-216.075 2665.94,-212.878 2603,-211 1834.86,-188.085 1641.56,-230.758 874,-193 757.691,-187.278 727.398,-191.761 613,-170 577.896,-163.323 539.519,-152.131 508.932,-142.234"/>
<polygon fill="black" stroke="black" points="509.882,-138.862 499.289,-139.074 507.702,-145.514 509.882,-138.862"/>
<text text-anchor="middle" x="890.5" y="-181.8" font-family="Times,serif" font-size="14.00">read</text>
</g>
<!-- 1_fwatchdog#ServerID_5f846fd567&#45;w7nbt&#45;&gt;10.1.80.247:40160#ServerID_OuterContainerID -->
<g id="edge7" class="edge"><title>1_fwatchdog#ServerID_5f846fd567&#45;w7nbt&#45;&gt;10.1.80.247:40160#ServerID_OuterContainerID</title>
<path fill="none" stroke="black" d="M4087.6,-139.025C4027.14,-156.92 3926.23,-183.737 3837,-193 3596.38,-217.978 3534.71,-201.047 3293,-211 3236.17,-213.34 3174.09,-216.28 3118.46,-219.054"/>
<polygon fill="black" stroke="black" points="3117.96,-215.574 3108.15,-219.569 3118.31,-222.565 3117.96,-215.574"/>
<text text-anchor="middle" x="3972" y="-181.8" font-family="Times,serif" font-size="14.00">RESPONSE</text>
</g>
<!-- 10.1.80.247:8080#ServerID_OuterContainerID&#45;&gt;1_fwatchdog#ServerID_6df85d7674&#45;2kqrj -->
<g id="edge6" class="edge"><title>10.1.80.247:8080#ServerID_OuterContainerID&#45;&gt;1_fwatchdog#ServerID_6df85d7674&#45;2kqrj</title>
<path fill="none" stroke="black" d="M1008.83,-243.921C1074.86,-259.674 1187.26,-285.19 1285,-301 1331.65,-308.546 1382.46,-314.969 1429.38,-320.172"/>
<polygon fill="black" stroke="black" points="1429.01,-323.652 1439.33,-321.264 1429.77,-316.694 1429.01,-323.652"/>
<text text-anchor="middle" x="1327" y="-289.8" font-family="Times,serif" font-size="14.00">RESPONSE</text>
</g>
<!-- 10.1.80.1:51728#ServerID_OuterContainerID -->
<g id="node17" class="node"><title>10.1.80.1:51728#ServerID_OuterContainerID</title>
<polygon fill="none" stroke="black" points="944,-139 625.105,-121 944,-103 1262.9,-121 944,-139"/>
<text text-anchor="middle" x="944" y="-117.3" font-family="Times,serif" font-size="14.00">10.1.80.1:51728#ServerID_OuterContainerID</text>
</g>
<!-- 10.1.80.247:8080#ServerID_OuterContainerID&#45;&gt;10.1.80.1:51728#ServerID_OuterContainerID -->
<g id="edge21" class="edge"><title>10.1.80.247:8080#ServerID_OuterContainerID&#45;&gt;10.1.80.1:51728#ServerID_OuterContainerID</title>
<path fill="none" stroke="black" d="M954.928,-210.962C955.775,-205.269 956.582,-198.878 957,-193 957.473,-186.35 957.759,-184.623 957,-178 955.894,-168.346 953.749,-157.935 951.515,-148.74"/>
<polygon fill="black" stroke="black" points="954.886,-147.793 949.006,-138.98 948.106,-149.536 954.886,-147.793"/>
<text text-anchor="middle" x="1000" y="-181.8" font-family="Times,serif" font-size="14.00">RESPONSE</text>
</g>
<!-- 10.0.88.125:31112#ServerID_OuterContainerID -->
<g id="node18" class="node"><title>10.0.88.125:31112#ServerID_OuterContainerID</title>
<polygon fill="none" stroke="black" points="1616,-139 1280.52,-121 1616,-103 1951.48,-121 1616,-139"/>
<text text-anchor="middle" x="1616" y="-117.3" font-family="Times,serif" font-size="14.00">10.0.88.125:31112#ServerID_OuterContainerID</text>
</g>
<!-- 10.1.80.247:8080#ServerID_OuterContainerID&#45;&gt;10.0.88.125:31112#ServerID_OuterContainerID -->
<g id="edge23" class="edge"><title>10.1.80.247:8080#ServerID_OuterContainerID&#45;&gt;10.0.88.125:31112#ServerID_OuterContainerID</title>
<path fill="none" stroke="black" d="M1031.43,-215.319C1155.82,-195.463 1395.79,-157.154 1526.25,-136.328"/>
<polygon fill="black" stroke="black" points="1526.89,-139.769 1536.22,-134.737 1525.79,-132.857 1526.89,-139.769"/>
<text text-anchor="middle" x="1306" y="-181.8" font-family="Times,serif" font-size="14.00">RESPONSE</text>
</g>
<!-- localhost:3000#ServerID_34e86192c217 -->
<g id="node8" class="node"><title>localhost:3000#ServerID_34e86192c217</title>
<polygon fill="none" stroke="black" points="3029,-355 2742.45,-337 3029,-319 3315.55,-337 3029,-355"/>
<text text-anchor="middle" x="3029" y="-333.3" font-family="Times,serif" font-size="14.00">localhost:3000#ServerID_34e86192c217</text>
</g>
<!-- 1_fwatchdog#ServerID_34e86192c217&#45;&gt;localhost:3000#ServerID_34e86192c217 -->
<g id="edge9" class="edge"><title>1_fwatchdog#ServerID_34e86192c217&#45;&gt;localhost:3000#ServerID_34e86192c217</title>
<path fill="none" stroke="black" d="M3233.8,-426.969C3189.78,-407.846 3118.53,-376.895 3072.74,-357.002"/>
<polygon fill="black" stroke="black" points="3073.94,-353.707 3063.37,-352.933 3071.15,-360.127 3073.94,-353.707"/>
<text text-anchor="middle" x="3206" y="-397.8" font-family="Times,serif" font-size="14.00">write</text>
</g>
<!-- /etc/hosts#ServerID_34e86192c217 -->
<g id="node9" class="node"><title>/etc/hosts#ServerID_34e86192c217</title>
<ellipse fill="none" stroke="black" cx="2925" cy="-445" rx="180.068" ry="18"/>
<text text-anchor="middle" x="2925" y="-441.3" font-family="Times,serif" font-size="14.00">/etc/hosts#ServerID_34e86192c217</text>
</g>
<!-- 10_node#ServerID_34e86192c217 -->
<g id="node10" class="node"><title>10_node#ServerID_34e86192c217</title>
<polygon fill="none" stroke="black" points="2724.5,-355 2457.5,-355 2457.5,-319 2724.5,-319 2724.5,-355"/>
<text text-anchor="middle" x="2591" y="-333.3" font-family="Times,serif" font-size="14.00">10_node#ServerID_34e86192c217</text>
</g>
<!-- /etc/hosts#ServerID_34e86192c217&#45;&gt;10_node#ServerID_34e86192c217 -->
<g id="edge11" class="edge"><title>/etc/hosts#ServerID_34e86192c217&#45;&gt;10_node#ServerID_34e86192c217</title>
<path fill="none" stroke="black" d="M2869.82,-427.849C2831.36,-416.468 2778.93,-400.697 2733,-386 2705.53,-377.21 2675.23,-367.033 2649.69,-358.319"/>
<polygon fill="black" stroke="black" points="2650.75,-354.982 2640.16,-355.056 2648.49,-361.605 2650.75,-354.982"/>
<text text-anchor="middle" x="2822.5" y="-397.8" font-family="Times,serif" font-size="14.00">read</text>
</g>
<!-- 10_node#ServerID_34e86192c217&#45;&gt;gateway:8080#ServerID_OuterContainerID -->
<g id="edge15" class="edge"><title>10_node#ServerID_34e86192c217&#45;&gt;gateway:8080#ServerID_OuterContainerID</title>
<path fill="none" stroke="black" d="M2457.38,-319.544C2362.54,-308.441 2232.13,-294.343 2117,-286 2027.39,-279.506 2004.44,-286.58 1915,-278 1834.75,-270.302 1743.77,-255.745 1680.47,-244.671"/>
<polygon fill="black" stroke="black" points="1681.02,-241.213 1670.56,-242.926 1679.8,-248.107 1681.02,-241.213"/>
<text text-anchor="middle" x="2315" y="-289.8" font-family="Times,serif" font-size="14.00">connect</text>
</g>
<!-- 10.152.183.10:53#ServerID_OuterContainerID -->
<g id="node12" class="node"><title>10.152.183.10:53#ServerID_OuterContainerID</title>
<polygon fill="none" stroke="black" points="3629,-247 3301.56,-229 3629,-211 3956.44,-229 3629,-247"/>
<text text-anchor="middle" x="3629" y="-225.3" font-family="Times,serif" font-size="14.00">10.152.183.10:53#ServerID_OuterContainerID</text>
</g>
<!-- 10_node#ServerID_34e86192c217&#45;&gt;10.152.183.10:53#ServerID_OuterContainerID -->
<g id="edge13" class="edge"><title>10_node#ServerID_34e86192c217&#45;&gt;10.152.183.10:53#ServerID_OuterContainerID</title>
<path fill="none" stroke="black" d="M2680.19,-318.964C2697.65,-316.006 2715.87,-313.183 2733,-311 2872.31,-293.249 2907.78,-293.859 3048,-286 3156.33,-279.928 3183.91,-287.442 3292,-278 3378.38,-270.455 3476.44,-255.792 3544.42,-244.648"/>
<polygon fill="black" stroke="black" points="3545.35,-248.042 3554.64,-242.961 3544.21,-241.136 3545.35,-248.042"/>
<text text-anchor="middle" x="3072.5" y="-289.8" font-family="Times,serif" font-size="14.00">sendto</text>
</g>
<!-- /etc/resolv.conf#ServerID_34e86192c217 -->
<g id="node11" class="node"><title>/etc/resolv.conf#ServerID_34e86192c217</title>
<ellipse fill="none" stroke="black" cx="2522" cy="-445" rx="205.264" ry="18"/>
<text text-anchor="middle" x="2522" y="-441.3" font-family="Times,serif" font-size="14.00">/etc/resolv.conf#ServerID_34e86192c217</text>
</g>
<!-- /etc/resolv.conf#ServerID_34e86192c217&#45;&gt;10_node#ServerID_34e86192c217 -->
<g id="edge12" class="edge"><title>/etc/resolv.conf#ServerID_34e86192c217&#45;&gt;10_node#ServerID_34e86192c217</title>
<path fill="none" stroke="black" d="M2533.09,-426.969C2544.19,-409.917 2561.41,-383.459 2574.19,-363.824"/>
<polygon fill="black" stroke="black" points="2577.19,-365.631 2579.71,-355.341 2571.32,-361.812 2577.19,-365.631"/>
<text text-anchor="middle" x="2570.5" y="-397.8" font-family="Times,serif" font-size="14.00">read</text>
</g>
<!-- 10.152.183.10:53#ServerID_OuterContainerID&#45;&gt;10_node#ServerID_34e86192c217 -->
<g id="edge14" class="edge"><title>10.152.183.10:53#ServerID_OuterContainerID&#45;&gt;10_node#ServerID_34e86192c217</title>
<path fill="none" stroke="black" d="M3545.63,-242.443C3477.48,-252.479 3378.59,-266.729 3292,-278 3205.46,-289.265 3184.04,-294.684 3097,-301 2935.59,-312.713 2894.02,-294.703 2733,-311 2717.78,-312.54 2701.73,-314.77 2686.12,-317.272"/>
<polygon fill="black" stroke="black" points="2685.24,-313.871 2675.94,-318.951 2686.38,-320.777 2685.24,-313.871"/>
<text text-anchor="middle" x="3264" y="-289.8" font-family="Times,serif" font-size="14.00">recvfrom</text>
</g>
<!-- localhost:3000#ServerID_e56b6537e2d5 -->
<g id="node13" class="node"><title>localhost:3000#ServerID_e56b6537e2d5</title>
<polygon fill="none" stroke="black" points="314,-247 27.4457,-229 314,-211 600.554,-229 314,-247"/>
<text text-anchor="middle" x="314" y="-225.3" font-family="Times,serif" font-size="14.00">localhost:3000#ServerID_e56b6537e2d5</text>
</g>
<!-- 12_node#ServerID_e56b6537e2d5 -->
<g id="node14" class="node"><title>12_node#ServerID_e56b6537e2d5</title>
<polygon fill="none" stroke="black" points="283.5,-139 16.5,-139 16.5,-103 283.5,-103 283.5,-139"/>
<text text-anchor="middle" x="150" y="-117.3" font-family="Times,serif" font-size="14.00">12_node#ServerID_e56b6537e2d5</text>
</g>
<!-- localhost:3000#ServerID_e56b6537e2d5&#45;&gt;12_node#ServerID_e56b6537e2d5 -->
<g id="edge16" class="edge"><title>localhost:3000#ServerID_e56b6537e2d5&#45;&gt;12_node#ServerID_e56b6537e2d5</title>
<path fill="none" stroke="black" d="M289.801,-212.359C262.111,-194.462 216.527,-164.999 184.975,-144.606"/>
<polygon fill="black" stroke="black" points="186.773,-141.601 176.475,-139.112 182.973,-147.479 186.773,-141.601"/>
<text text-anchor="middle" x="273.5" y="-181.8" font-family="Times,serif" font-size="14.00">read</text>
</g>
<!-- localhost:3000#ServerID_e56b6537e2d5&#45;&gt;1_fwatchdog#ServerID_e56b6537e2d5 -->
<g id="edge19" class="edge"><title>localhost:3000#ServerID_e56b6537e2d5&#45;&gt;1_fwatchdog#ServerID_e56b6537e2d5</title>
<path fill="none" stroke="black" d="M358.813,-213.676C371.566,-208.368 384.974,-201.514 396,-193 411.943,-180.689 425.801,-162.722 435.619,-147.943"/>
<polygon fill="black" stroke="black" points="438.751,-149.542 441.192,-139.232 432.855,-145.769 438.751,-149.542"/>
<text text-anchor="middle" x="429.5" y="-181.8" font-family="Times,serif" font-size="14.00">read</text>
</g>
<!-- 1_fwatchdog#ServerID_e56b6537e2d5&#45;&gt;localhost:3000#ServerID_e56b6537e2d5 -->
<g id="edge17" class="edge"><title>1_fwatchdog#ServerID_e56b6537e2d5&#45;&gt;localhost:3000#ServerID_e56b6537e2d5</title>
<path fill="none" stroke="black" d="M417.073,-139.124C398.683,-149.198 376.086,-162.903 358,-178 348.986,-185.525 340.2,-194.947 332.879,-203.577"/>
<polygon fill="black" stroke="black" points="329.995,-201.574 326.35,-211.522 335.403,-206.018 329.995,-201.574"/>
<text text-anchor="middle" x="377" y="-181.8" font-family="Times,serif" font-size="14.00">write</text>
</g>
<!-- pipe:[331682317]#ServerID_e56b6537e2d5 -->
<g id="node16" class="node"><title>pipe:[331682317]#ServerID_e56b6537e2d5</title>
<ellipse fill="none" stroke="black" cx="384" cy="-34" rx="217.162" ry="18"/>
<text text-anchor="middle" x="384" y="-30.3" font-family="Times,serif" font-size="14.00">pipe:[331682317]#ServerID_e56b6537e2d5</text>
</g>
<!-- 1_fwatchdog#ServerID_e56b6537e2d5&#45;&gt;pipe:[331682317]#ServerID_e56b6537e2d5 -->
<g id="edge20" class="edge"><title>1_fwatchdog#ServerID_e56b6537e2d5&#45;&gt;pipe:[331682317]#ServerID_e56b6537e2d5</title>
<path fill="none" stroke="black" d="M437.442,-102.799C427.815,-90.5865 414.735,-73.9921 403.925,-60.2776"/>
<polygon fill="black" stroke="black" points="406.478,-57.8623 397.538,-52.1754 400.98,-62.1957 406.478,-57.8623"/>
<text text-anchor="middle" x="441" y="-73.8" font-family="Times,serif" font-size="14.00">write</text>
</g>
<!-- 10.1.80.1:51728#ServerID_OuterContainerID&#45;&gt;10.1.80.247:8080#ServerID_OuterContainerID -->
<g id="edge22" class="edge"><title>10.1.80.1:51728#ServerID_OuterContainerID&#45;&gt;10.1.80.247:8080#ServerID_OuterContainerID</title>
<path fill="none" stroke="black" d="M928.684,-138.389C917.16,-152.8 904.669,-174.33 913,-193 914.886,-197.227 917.563,-201.156 920.641,-204.739"/>
<polygon fill="black" stroke="black" points="918.339,-207.387 927.872,-212.01 923.302,-202.451 918.339,-207.387"/>
<text text-anchor="middle" x="933" y="-181.8" font-family="Times,serif" font-size="14.00">POST</text>
</g>
</g>
</svg>
