<?xml version="1.0" encoding="UTF-8" standalone="no"?>
<!DOCTYPE svg PUBLIC "-//W3C//DTD SVG 1.1//EN"
 "http://www.w3.org/Graphics/SVG/1.1/DTD/svg11.dtd">
<!-- Generated by graphviz version 2.38.0 (20140413.2041)
 -->
<!-- Title: G Pages: 1 -->
<svg width="6477pt" height="471pt"
 viewBox="0.00 0.00 6477.00 471.00" xmlns="http://www.w3.org/2000/svg" xmlns:xlink="http://www.w3.org/1999/xlink">
<g id="graph0" class="graph" transform="scale(1 1) rotate(0) translate(4 467)">
<title>G</title>
<polygon fill="white" stroke="none" points="-4,4 -4,-467 6473,-467 6473,4 -4,4"/>
<g id="clust1" class="cluster"><title>clusterServerID_34e86192c217</title>
<polygon fill="none" stroke="black" points="8,-95 8,-324 1130,-324 1130,-95 8,-95"/>
<text text-anchor="middle" x="569" y="-308.8" font-family="Times,serif" font-size="14.00">clusterServerID_34e86192c217</text>
</g>
<g id="clust2" class="cluster"><title>clusterServerID_5f846fd567&#45;w7nbt</title>
<polygon fill="none" stroke="black" points="5349,-357 5349,-455 5689,-455 5689,-357 5349,-357"/>
<text text-anchor="middle" x="5519" y="-439.8" font-family="Times,serif" font-size="14.00">clusterServerID_5f846fd567&#45;w7nbt</text>
</g>
<g id="clust3" class="cluster"><title>clusterServerID_6df85d7674&#45;2kqrj</title>
<polygon fill="none" stroke="black" points="3300,-357 3300,-455 3638,-455 3638,-357 3300,-357"/>
<text text-anchor="middle" x="3469" y="-439.8" font-family="Times,serif" font-size="14.00">clusterServerID_6df85d7674&#45;2kqrj</text>
</g>
<g id="clust4" class="cluster"><title>clusterServerID_OuterContainerID</title>
<polygon fill="none" stroke="black" points="1138,-95 1138,-324 5863,-324 5863,-95 1138,-95"/>
<text text-anchor="middle" x="3500.5" y="-308.8" font-family="Times,serif" font-size="14.00">clusterServerID_OuterContainerID</text>
</g>
<g id="clust5" class="cluster"><title>clusterServerID_e56b6537e2d5</title>
<polygon fill="none" stroke="black" points="5871,-8 5871,-193 6461,-193 6461,-8 5871,-8"/>
<text text-anchor="middle" x="6166" y="-177.8" font-family="Times,serif" font-size="14.00">clusterServerID_e56b6537e2d5</text>
</g>
<!-- gateway:8080#ServerID_OuterContainerID -->
<g id="node1" class="node"><title>gateway:8080#ServerID_OuterContainerID</title>
<polygon fill="none" stroke="black" points="1450,-270 1145.52,-252 1450,-234 1754.48,-252 1450,-270"/>
<text text-anchor="middle" x="1450" y="-248.3" font-family="Times,serif" font-size="14.00">gateway:8080#ServerID_OuterContainerID</text>
</g>
<!-- 1_fwatchdog#ServerID_6df85d7674&#45;2kqrj -->
<g id="node2" class="node"><title>1_fwatchdog#ServerID_6df85d7674&#45;2kqrj</title>
<polygon fill="none" stroke="black" points="3629.5,-401 3308.5,-401 3308.5,-365 3629.5,-365 3629.5,-401"/>
<text text-anchor="middle" x="3469" y="-379.3" font-family="Times,serif" font-size="14.00">1_fwatchdog#ServerID_6df85d7674&#45;2kqrj</text>
</g>
<!-- gateway:8080#ServerID_OuterContainerID&#45;&gt;1_fwatchdog#ServerID_6df85d7674&#45;2kqrj -->
<g id="edge1" class="edge"><title>gateway:8080#ServerID_OuterContainerID&#45;&gt;1_fwatchdog#ServerID_6df85d7674&#45;2kqrj</title>
<path fill="none" stroke="black" d="M1500.78,-267.041C1562.33,-283.47 1669.43,-310.179 1763,-324 2055.25,-367.166 2927.01,-378.275 3298.39,-381.078"/>
<polygon fill="black" stroke="black" points="3298.4,-384.578 3308.42,-381.153 3298.45,-377.578 3298.4,-384.578"/>
<text text-anchor="middle" x="2050" y="-335.8" font-family="Times,serif" font-size="14.00">RESPONSE</text>
</g>
<!-- 10_node#ServerID_34e86192c217 -->
<g id="node10" class="node"><title>10_node#ServerID_34e86192c217</title>
<polygon fill="none" stroke="black" points="1121.5,-139 854.5,-139 854.5,-103 1121.5,-103 1121.5,-139"/>
<text text-anchor="middle" x="988" y="-117.3" font-family="Times,serif" font-size="14.00">10_node#ServerID_34e86192c217</text>
</g>
<!-- gateway:8080#ServerID_OuterContainerID&#45;&gt;10_node#ServerID_34e86192c217 -->
<g id="edge17" class="edge"><title>gateway:8080#ServerID_OuterContainerID&#45;&gt;10_node#ServerID_34e86192c217</title>
<path fill="none" stroke="black" d="M1311.05,-242.181C1240.9,-236.445 1163.83,-227.813 1131,-216 1086.92,-200.138 1042.89,-168.152 1015.57,-145.924"/>
<polygon fill="black" stroke="black" points="1017.58,-143.046 1007.64,-139.367 1013.12,-148.439 1017.58,-143.046"/>
<text text-anchor="middle" x="1147.5" y="-204.8" font-family="Times,serif" font-size="14.00">read</text>
</g>
<!-- 1_fwatchdog#ServerID_6df85d7674&#45;2kqrj&#45;&gt;gateway:8080#ServerID_OuterContainerID -->
<g id="edge9" class="edge"><title>1_fwatchdog#ServerID_6df85d7674&#45;2kqrj&#45;&gt;gateway:8080#ServerID_OuterContainerID</title>
<path fill="none" stroke="black" d="M3308.2,-374.448C3069.64,-363.503 2607.84,-343.307 2215,-332 2114.58,-329.11 1862.73,-336.064 1763,-324 1672.69,-313.075 1570.26,-287.207 1507.91,-269.899"/>
<polygon fill="black" stroke="black" points="1508.82,-266.522 1498.25,-267.199 1506.94,-273.263 1508.82,-266.522"/>
<text text-anchor="middle" x="2649" y="-335.8" font-family="Times,serif" font-size="14.00">POST</text>
</g>
<!-- 10.1.80.247:38000#ServerID_OuterContainerID -->
<g id="node3" class="node"><title>10.1.80.247:38000#ServerID_OuterContainerID</title>
<polygon fill="none" stroke="black" points="3469,-270 3133.52,-252 3469,-234 3804.48,-252 3469,-270"/>
<text text-anchor="middle" x="3469" y="-248.3" font-family="Times,serif" font-size="14.00">10.1.80.247:38000#ServerID_OuterContainerID</text>
</g>
<!-- 1_fwatchdog#ServerID_6df85d7674&#45;2kqrj&#45;&gt;10.1.80.247:38000#ServerID_OuterContainerID -->
<g id="edge8" class="edge"><title>1_fwatchdog#ServerID_6df85d7674&#45;2kqrj&#45;&gt;10.1.80.247:38000#ServerID_OuterContainerID</title>
<path fill="none" stroke="black" d="M3430,-364.938C3423.18,-360.147 3417,-354.22 3413,-347 3409.77,-341.169 3410.98,-338.352 3413,-332 3419.59,-311.321 3433.77,-291.408 3446.21,-276.748"/>
<polygon fill="black" stroke="black" points="3448.9,-278.989 3452.89,-269.172 3443.65,-274.361 3448.9,-278.989"/>
<text text-anchor="middle" x="3455" y="-335.8" font-family="Times,serif" font-size="14.00">RESPONSE</text>
</g>
<!-- 10.1.80.247:8080#ServerID_OuterContainerID -->
<g id="node4" class="node"><title>10.1.80.247:8080#ServerID_OuterContainerID</title>
<polygon fill="none" stroke="black" points="4150,-270 3822.56,-252 4150,-234 4477.44,-252 4150,-270"/>
<text text-anchor="middle" x="4150" y="-248.3" font-family="Times,serif" font-size="14.00">10.1.80.247:8080#ServerID_OuterContainerID</text>
</g>
<!-- 1_fwatchdog#ServerID_6df85d7674&#45;2kqrj&#45;&gt;10.1.80.247:8080#ServerID_OuterContainerID -->
<g id="edge3" class="edge"><title>1_fwatchdog#ServerID_6df85d7674&#45;2kqrj&#45;&gt;10.1.80.247:8080#ServerID_OuterContainerID</title>
<path fill="none" stroke="black" d="M3576.88,-364.964C3644.77,-353.958 3734.16,-338.946 3813,-324 3905.11,-306.54 4010.8,-283.835 4078.89,-268.858"/>
<polygon fill="black" stroke="black" points="4079.64,-272.276 4088.66,-266.706 4078.14,-265.44 4079.64,-272.276"/>
<text text-anchor="middle" x="3787" y="-335.8" font-family="Times,serif" font-size="14.00">POST</text>
</g>
<!-- 10.1.80.247:38000#ServerID_OuterContainerID&#45;&gt;1_fwatchdog#ServerID_6df85d7674&#45;2kqrj -->
<g id="edge2" class="edge"><title>10.1.80.247:38000#ServerID_OuterContainerID&#45;&gt;1_fwatchdog#ServerID_6df85d7674&#45;2kqrj</title>
<path fill="none" stroke="black" d="M3481.69,-269.453C3494.63,-288.337 3511.42,-320.162 3501,-347 3499.64,-350.507 3497.74,-353.876 3495.55,-357.046"/>
<polygon fill="black" stroke="black" points="3492.75,-354.944 3489.2,-364.928 3498.2,-359.335 3492.75,-354.944"/>
<text text-anchor="middle" x="3524" y="-335.8" font-family="Times,serif" font-size="14.00">POST</text>
</g>
<!-- 10.1.80.247:8080#ServerID_OuterContainerID&#45;&gt;1_fwatchdog#ServerID_6df85d7674&#45;2kqrj -->
<g id="edge7" class="edge"><title>10.1.80.247:8080#ServerID_OuterContainerID&#45;&gt;1_fwatchdog#ServerID_6df85d7674&#45;2kqrj</title>
<path fill="none" stroke="black" d="M4106.4,-267.64C4042.4,-288.548 3918.88,-326.672 3811,-347 3755.78,-357.404 3694.93,-364.889 3640.05,-370.195"/>
<polygon fill="black" stroke="black" points="3639.5,-366.732 3629.87,-371.161 3640.16,-373.7 3639.5,-366.732"/>
<text text-anchor="middle" x="3919" y="-335.8" font-family="Times,serif" font-size="14.00">RESPONSE</text>
</g>
<!-- 10.1.80.1:19299#ServerID_OuterContainerID -->
<g id="node16" class="node"><title>10.1.80.1:19299#ServerID_OuterContainerID</title>
<polygon fill="none" stroke="black" points="4043,-139 3724.1,-121 4043,-103 4361.9,-121 4043,-139"/>
<text text-anchor="middle" x="4043" y="-117.3" font-family="Times,serif" font-size="14.00">10.1.80.1:19299#ServerID_OuterContainerID</text>
</g>
<!-- 10.1.80.247:8080#ServerID_OuterContainerID&#45;&gt;10.1.80.1:19299#ServerID_OuterContainerID -->
<g id="edge19" class="edge"><title>10.1.80.247:8080#ServerID_OuterContainerID&#45;&gt;10.1.80.1:19299#ServerID_OuterContainerID</title>
<path fill="none" stroke="black" d="M4068.87,-238.444C4057.57,-233.254 4047.33,-226.03 4040,-216 4025.97,-196.808 4028.87,-169.035 4033.98,-148.653"/>
<polygon fill="black" stroke="black" points="4037.43,-149.328 4036.78,-138.753 4030.69,-147.425 4037.43,-149.328"/>
<text text-anchor="middle" x="4082" y="-204.8" font-family="Times,serif" font-size="14.00">RESPONSE</text>
</g>
<!-- 10.0.88.125:31112#ServerID_OuterContainerID -->
<g id="node17" class="node"><title>10.0.88.125:31112#ServerID_OuterContainerID</title>
<polygon fill="none" stroke="black" points="4715,-139 4379.52,-121 4715,-103 5050.48,-121 4715,-139"/>
<text text-anchor="middle" x="4715" y="-117.3" font-family="Times,serif" font-size="14.00">10.0.88.125:31112#ServerID_OuterContainerID</text>
</g>
<!-- 10.1.80.247:8080#ServerID_OuterContainerID&#45;&gt;10.0.88.125:31112#ServerID_OuterContainerID -->
<g id="edge20" class="edge"><title>10.1.80.247:8080#ServerID_OuterContainerID&#45;&gt;10.0.88.125:31112#ServerID_OuterContainerID</title>
<path fill="none" stroke="black" d="M4210.2,-237.256C4315.5,-213.214 4532.56,-163.655 4644.62,-138.069"/>
<polygon fill="black" stroke="black" points="4645.51,-141.457 4654.48,-135.819 4643.95,-134.633 4645.51,-141.457"/>
<text text-anchor="middle" x="4408" y="-204.8" font-family="Times,serif" font-size="14.00">RESPONSE</text>
</g>
<!-- 1_fwatchdog#ServerID_5f846fd567&#45;w7nbt -->
<g id="node5" class="node"><title>1_fwatchdog#ServerID_5f846fd567&#45;w7nbt</title>
<polygon fill="none" stroke="black" points="5681,-401 5357,-401 5357,-365 5681,-365 5681,-401"/>
<text text-anchor="middle" x="5519" y="-379.3" font-family="Times,serif" font-size="14.00">1_fwatchdog#ServerID_5f846fd567&#45;w7nbt</text>
</g>
<!-- 10.1.80.247:40106#ServerID_OuterContainerID -->
<g id="node6" class="node"><title>10.1.80.247:40106#ServerID_OuterContainerID</title>
<polygon fill="none" stroke="black" points="5520,-270 5184.52,-252 5520,-234 5855.48,-252 5520,-270"/>
<text text-anchor="middle" x="5520" y="-248.3" font-family="Times,serif" font-size="14.00">10.1.80.247:40106#ServerID_OuterContainerID</text>
</g>
<!-- 1_fwatchdog#ServerID_5f846fd567&#45;w7nbt&#45;&gt;10.1.80.247:40106#ServerID_OuterContainerID -->
<g id="edge4" class="edge"><title>1_fwatchdog#ServerID_5f846fd567&#45;w7nbt&#45;&gt;10.1.80.247:40106#ServerID_OuterContainerID</title>
<path fill="none" stroke="black" d="M5483.26,-364.861C5476.73,-360.032 5470.78,-354.108 5467,-347 5463.87,-341.115 5465.06,-338.378 5467,-332 5473.15,-311.792 5486.38,-292.057 5498.09,-277.367"/>
<polygon fill="black" stroke="black" points="5501.06,-279.27 5504.74,-269.335 5495.67,-274.806 5501.06,-279.27"/>
<text text-anchor="middle" x="5509" y="-335.8" font-family="Times,serif" font-size="14.00">RESPONSE</text>
</g>
<!-- 10.1.80.247:40106#ServerID_OuterContainerID&#45;&gt;1_fwatchdog#ServerID_5f846fd567&#45;w7nbt -->
<g id="edge6" class="edge"><title>10.1.80.247:40106#ServerID_OuterContainerID&#45;&gt;1_fwatchdog#ServerID_5f846fd567&#45;w7nbt</title>
<path fill="none" stroke="black" d="M5532.4,-269.484C5545.03,-288.397 5561.39,-320.248 5551,-347 5549.64,-350.507 5547.74,-353.876 5545.55,-357.046"/>
<polygon fill="black" stroke="black" points="5542.75,-354.944 5539.2,-364.928 5548.2,-359.335 5542.75,-354.944"/>
<text text-anchor="middle" x="5575" y="-335.8" font-family="Times,serif" font-size="14.00">POST</text>
</g>
<!-- 10.1.80.247:38034#ServerID_OuterContainerID -->
<g id="node7" class="node"><title>10.1.80.247:38034#ServerID_OuterContainerID</title>
<polygon fill="none" stroke="black" points="2780,-270 2444.52,-252 2780,-234 3115.48,-252 2780,-270"/>
<text text-anchor="middle" x="2780" y="-248.3" font-family="Times,serif" font-size="14.00">10.1.80.247:38034#ServerID_OuterContainerID</text>
</g>
<!-- 1_fwatchdog#ServerID_34e86192c217 -->
<g id="node8" class="node"><title>1_fwatchdog#ServerID_34e86192c217</title>
<polygon fill="none" stroke="black" points="1121.5,-270 822.5,-270 822.5,-234 1121.5,-234 1121.5,-270"/>
<text text-anchor="middle" x="972" y="-248.3" font-family="Times,serif" font-size="14.00">1_fwatchdog#ServerID_34e86192c217</text>
</g>
<!-- 10.1.80.247:38034#ServerID_OuterContainerID&#45;&gt;1_fwatchdog#ServerID_34e86192c217 -->
<g id="edge5" class="edge"><title>10.1.80.247:38034#ServerID_OuterContainerID&#45;&gt;1_fwatchdog#ServerID_34e86192c217</title>
<path fill="none" stroke="black" d="M2725.28,-267.066C2657.7,-284.823 2538.92,-313.271 2435,-324 2291.21,-338.844 1275.41,-354.009 1134,-324 1089.88,-314.638 1043.19,-292.403 1011.33,-275.1"/>
<polygon fill="black" stroke="black" points="1012.79,-271.908 1002.34,-270.137 1009.41,-278.035 1012.79,-271.908"/>
<text text-anchor="middle" x="2195" y="-335.8" font-family="Times,serif" font-size="14.00">read</text>
</g>
<!-- /etc/hosts#ServerID_34e86192c217 -->
<g id="node9" class="node"><title>/etc/hosts#ServerID_34e86192c217</title>
<ellipse fill="none" stroke="black" cx="624" cy="-252" rx="180.068" ry="18"/>
<text text-anchor="middle" x="624" y="-248.3" font-family="Times,serif" font-size="14.00">/etc/hosts#ServerID_34e86192c217</text>
</g>
<!-- /etc/hosts#ServerID_34e86192c217&#45;&gt;10_node#ServerID_34e86192c217 -->
<g id="edge10" class="edge"><title>/etc/hosts#ServerID_34e86192c217&#45;&gt;10_node#ServerID_34e86192c217</title>
<path fill="none" stroke="black" d="M670.471,-234.531C736.643,-211.08 857.961,-168.085 929.96,-142.569"/>
<polygon fill="black" stroke="black" points="931.525,-145.728 939.781,-139.088 929.187,-139.13 931.525,-145.728"/>
<text text-anchor="middle" x="779.5" y="-204.8" font-family="Times,serif" font-size="14.00">read</text>
</g>
<!-- 10_node#ServerID_34e86192c217&#45;&gt;gateway:8080#ServerID_OuterContainerID -->
<g id="edge15" class="edge"><title>10_node#ServerID_34e86192c217&#45;&gt;gateway:8080#ServerID_OuterContainerID</title>
<path fill="none" stroke="black" d="M1017.2,-139.144C1045.99,-155.324 1091.69,-179.115 1134,-193 1201.02,-214.993 1278.94,-229.41 1340.63,-238.37"/>
<polygon fill="black" stroke="black" points="1340.38,-241.871 1350.78,-239.816 1341.37,-234.941 1340.38,-241.871"/>
<text text-anchor="middle" x="1240" y="-204.8" font-family="Times,serif" font-size="14.00">connect</text>
</g>
<!-- 10.152.183.10:53#ServerID_OuterContainerID -->
<g id="node12" class="node"><title>10.152.183.10:53#ServerID_OuterContainerID</title>
<polygon fill="none" stroke="black" points="2099,-270 1771.56,-252 2099,-234 2426.44,-252 2099,-270"/>
<text text-anchor="middle" x="2099" y="-248.3" font-family="Times,serif" font-size="14.00">10.152.183.10:53#ServerID_OuterContainerID</text>
</g>
<!-- 10_node#ServerID_34e86192c217&#45;&gt;10.152.183.10:53#ServerID_OuterContainerID -->
<g id="edge12" class="edge"><title>10_node#ServerID_34e86192c217&#45;&gt;10.152.183.10:53#ServerID_OuterContainerID</title>
<path fill="none" stroke="black" d="M1014.73,-139.028C1043.09,-156.108 1089.82,-181.48 1134,-193 1163.94,-200.806 1242.11,-199.176 1273,-201 1506.19,-214.768 1776.37,-231.217 1942.49,-241.387"/>
<polygon fill="black" stroke="black" points="1942.59,-244.9 1952.78,-242.018 1943.02,-237.913 1942.59,-244.9"/>
<text text-anchor="middle" x="1547.5" y="-204.8" font-family="Times,serif" font-size="14.00">sendto</text>
</g>
<!-- /etc/resolv.conf#ServerID_34e86192c217 -->
<g id="node11" class="node"><title>/etc/resolv.conf#ServerID_34e86192c217</title>
<ellipse fill="none" stroke="black" cx="221" cy="-252" rx="205.264" ry="18"/>
<text text-anchor="middle" x="221" y="-248.3" font-family="Times,serif" font-size="14.00">/etc/resolv.conf#ServerID_34e86192c217</text>
</g>
<!-- /etc/resolv.conf#ServerID_34e86192c217&#45;&gt;10_node#ServerID_34e86192c217 -->
<g id="edge11" class="edge"><title>/etc/resolv.conf#ServerID_34e86192c217&#45;&gt;10_node#ServerID_34e86192c217</title>
<path fill="none" stroke="black" d="M311.24,-235.823C452.189,-212.117 724.233,-166.362 876.983,-140.672"/>
<polygon fill="black" stroke="black" points="877.589,-144.119 886.87,-139.009 876.428,-137.216 877.589,-144.119"/>
<text text-anchor="middle" x="530.5" y="-204.8" font-family="Times,serif" font-size="14.00">read</text>
</g>
<!-- 10.152.183.10:53#ServerID_OuterContainerID&#45;&gt;10_node#ServerID_34e86192c217 -->
<g id="edge13" class="edge"><title>10.152.183.10:53#ServerID_OuterContainerID&#45;&gt;10_node#ServerID_34e86192c217</title>
<path fill="none" stroke="black" d="M2000.85,-239.334C1895.88,-227.393 1724.44,-209.426 1576,-201 1526.96,-198.216 1181.76,-204.454 1134,-193 1093.69,-183.333 1051.5,-161.337 1022.9,-144.371"/>
<polygon fill="black" stroke="black" points="1024.49,-141.236 1014.12,-139.061 1020.87,-147.228 1024.49,-141.236"/>
<text text-anchor="middle" x="1797" y="-204.8" font-family="Times,serif" font-size="14.00">recvfrom</text>
</g>
<!-- 1_fwatchdog#ServerID_e56b6537e2d5 -->
<g id="node13" class="node"><title>1_fwatchdog#ServerID_e56b6537e2d5</title>
<polygon fill="none" stroke="black" points="6246.5,-139 5947.5,-139 5947.5,-103 6246.5,-103 6246.5,-139"/>
<text text-anchor="middle" x="6097" y="-117.3" font-family="Times,serif" font-size="14.00">1_fwatchdog#ServerID_e56b6537e2d5</text>
</g>
<!-- localhost:3000#ServerID_e56b6537e2d5 -->
<g id="node14" class="node"><title>localhost:3000#ServerID_e56b6537e2d5</title>
<polygon fill="none" stroke="black" points="6166,-52 5879.45,-34 6166,-16 6452.55,-34 6166,-52"/>
<text text-anchor="middle" x="6166" y="-30.3" font-family="Times,serif" font-size="14.00">localhost:3000#ServerID_e56b6537e2d5</text>
</g>
<!-- 1_fwatchdog#ServerID_e56b6537e2d5&#45;&gt;localhost:3000#ServerID_e56b6537e2d5 -->
<g id="edge14" class="edge"><title>1_fwatchdog#ServerID_e56b6537e2d5&#45;&gt;localhost:3000#ServerID_e56b6537e2d5</title>
<path fill="none" stroke="black" d="M6110.96,-102.799C6121.17,-90.228 6135.14,-73.014 6146.45,-59.0774"/>
<polygon fill="black" stroke="black" points="6149.17,-61.2801 6152.76,-51.3103 6143.74,-56.8683 6149.17,-61.2801"/>
<text text-anchor="middle" x="6154" y="-73.8" font-family="Times,serif" font-size="14.00">write</text>
</g>
<!-- 10.1.80.247:40100#ServerID_OuterContainerID -->
<g id="node15" class="node"><title>10.1.80.247:40100#ServerID_OuterContainerID</title>
<polygon fill="none" stroke="black" points="4831,-270 4495.52,-252 4831,-234 5166.48,-252 4831,-270"/>
<text text-anchor="middle" x="4831" y="-248.3" font-family="Times,serif" font-size="14.00">10.1.80.247:40100#ServerID_OuterContainerID</text>
</g>
<!-- 10.1.80.247:40100#ServerID_OuterContainerID&#45;&gt;1_fwatchdog#ServerID_e56b6537e2d5 -->
<g id="edge16" class="edge"><title>10.1.80.247:40100#ServerID_OuterContainerID&#45;&gt;1_fwatchdog#ServerID_e56b6537e2d5</title>
<path fill="none" stroke="black" d="M4995.9,-242.819C5277.51,-228.699 5825,-200.542 5867,-193 5929.02,-181.864 5997.76,-159.217 6043.8,-142.481"/>
<polygon fill="black" stroke="black" points="6045.09,-145.737 6053.27,-139.006 6042.68,-139.165 6045.09,-145.737"/>
<text text-anchor="middle" x="5774.5" y="-204.8" font-family="Times,serif" font-size="14.00">read</text>
</g>
<!-- 10.1.80.1:19299#ServerID_OuterContainerID&#45;&gt;10.1.80.247:8080#ServerID_OuterContainerID -->
<g id="edge18" class="edge"><title>10.1.80.1:19299#ServerID_OuterContainerID&#45;&gt;10.1.80.247:8080#ServerID_OuterContainerID</title>
<path fill="none" stroke="black" d="M4064.53,-137.876C4083.26,-152.569 4110.13,-175.882 4128,-201 4133.08,-208.143 4137.36,-216.645 4140.75,-224.594"/>
<polygon fill="black" stroke="black" points="4137.5,-225.889 4144.45,-233.887 4144.01,-223.302 4137.5,-225.889"/>
<text text-anchor="middle" x="4157" y="-204.8" font-family="Times,serif" font-size="14.00">POST</text>
</g>
</g>
</svg>
