<?xml version="1.0" encoding="UTF-8" standalone="no"?>
<!DOCTYPE svg PUBLIC "-//W3C//DTD SVG 1.1//EN"
 "http://www.w3.org/Graphics/SVG/1.1/DTD/svg11.dtd">
<!-- Generated by graphviz version 2.38.0 (20140413.2041)
 -->
<!-- Title: G Pages: 1 -->
<svg width="6016pt" height="315pt"
 viewBox="0.00 0.00 6016.00 315.00" xmlns="http://www.w3.org/2000/svg" xmlns:xlink="http://www.w3.org/1999/xlink">
<g id="graph0" class="graph" transform="scale(1 1) rotate(0) translate(4 311)">
<title>G</title>
<polygon fill="white" stroke="none" points="-4,4 -4,-311 6012,-311 6012,4 -4,4"/>
<g id="clust1" class="cluster"><title>clusterServerID_34e86192c217</title>
<polygon fill="none" stroke="black" points="8,-8 8,-299 598,-299 598,-8 8,-8"/>
<text text-anchor="middle" x="303" y="-283.8" font-family="Times,serif" font-size="14.00">clusterServerID_34e86192c217</text>
</g>
<g id="clust2" class="cluster"><title>clusterServerID_5f846fd567&#45;w7nbt</title>
<polygon fill="none" stroke="black" points="4816,-224 4816,-299 5156,-299 5156,-224 4816,-224"/>
<text text-anchor="middle" x="4986" y="-283.8" font-family="Times,serif" font-size="14.00">clusterServerID_5f846fd567&#45;w7nbt</text>
</g>
<g id="clust3" class="cluster"><title>clusterServerID_6df85d7674&#45;2kqrj</title>
<polygon fill="none" stroke="black" points="5338,-8 5338,-83 5676,-83 5676,-8 5338,-8"/>
<text text-anchor="middle" x="5507" y="-67.8" font-family="Times,serif" font-size="14.00">clusterServerID_6df85d7674&#45;2kqrj</text>
</g>
<g id="clust4" class="cluster"><title>clusterServerID_OuterContainerID</title>
<polygon fill="none" stroke="black" points="606,-8 606,-191 5330,-191 5330,-8 606,-8"/>
<text text-anchor="middle" x="2968" y="-175.8" font-family="Times,serif" font-size="14.00">clusterServerID_OuterContainerID</text>
</g>
<g id="clust5" class="cluster"><title>clusterServerID_e56b6537e2d5</title>
<polygon fill="none" stroke="black" points="5684,-8 5684,-83 6000,-83 6000,-8 5684,-8"/>
<text text-anchor="middle" x="5842" y="-67.8" font-family="Times,serif" font-size="14.00">clusterServerID_e56b6537e2d5</text>
</g>
<!-- 10.1.80.247:40030#ServerID_OuterContainerID -->
<g id="node1" class="node"><title>10.1.80.247:40030#ServerID_OuterContainerID</title>
<polygon fill="none" stroke="black" points="4987,-160 4651.52,-142 4987,-124 5322.48,-142 4987,-160"/>
<text text-anchor="middle" x="4987" y="-138.3" font-family="Times,serif" font-size="14.00">10.1.80.247:40030#ServerID_OuterContainerID</text>
</g>
<!-- 1_fwatchdog#ServerID_5f846fd567&#45;w7nbt -->
<g id="node2" class="node"><title>1_fwatchdog#ServerID_5f846fd567&#45;w7nbt</title>
<polygon fill="none" stroke="black" points="5148,-268 4824,-268 4824,-232 5148,-232 5148,-268"/>
<text text-anchor="middle" x="4986" y="-246.3" font-family="Times,serif" font-size="14.00">1_fwatchdog#ServerID_5f846fd567&#45;w7nbt</text>
</g>
<!-- 10.1.80.247:40030#ServerID_OuterContainerID&#45;&gt;1_fwatchdog#ServerID_5f846fd567&#45;w7nbt -->
<g id="edge1" class="edge"><title>10.1.80.247:40030#ServerID_OuterContainerID&#45;&gt;1_fwatchdog#ServerID_5f846fd567&#45;w7nbt</title>
<path fill="none" stroke="black" d="M5002.08,-159.48C5013.24,-173.767 5025.35,-195.067 5018,-214 5016.64,-217.507 5014.74,-220.876 5012.55,-224.046"/>
<polygon fill="black" stroke="black" points="5009.75,-221.944 5006.2,-231.928 5015.2,-226.335 5009.75,-221.944"/>
<text text-anchor="middle" x="5040" y="-202.8" font-family="Times,serif" font-size="14.00">POST</text>
</g>
<!-- 1_fwatchdog#ServerID_5f846fd567&#45;w7nbt&#45;&gt;10.1.80.247:40030#ServerID_OuterContainerID -->
<g id="edge2" class="edge"><title>1_fwatchdog#ServerID_5f846fd567&#45;w7nbt&#45;&gt;10.1.80.247:40030#ServerID_OuterContainerID</title>
<path fill="none" stroke="black" d="M4947.07,-231.889C4934.19,-223.513 4924.4,-212.341 4930,-199 4935.43,-186.053 4945.47,-174.591 4955.64,-165.463"/>
<polygon fill="black" stroke="black" points="4957.97,-168.075 4963.36,-158.952 4953.46,-162.724 4957.97,-168.075"/>
<text text-anchor="middle" x="4972" y="-202.8" font-family="Times,serif" font-size="14.00">RESPONSE</text>
</g>
<!-- 10.1.80.247:38022#ServerID_OuterContainerID -->
<g id="node3" class="node"><title>10.1.80.247:38022#ServerID_OuterContainerID</title>
<polygon fill="none" stroke="black" points="2920,-160 2584.52,-142 2920,-124 3255.48,-142 2920,-160"/>
<text text-anchor="middle" x="2920" y="-138.3" font-family="Times,serif" font-size="14.00">10.1.80.247:38022#ServerID_OuterContainerID</text>
</g>
<!-- 1_fwatchdog#ServerID_6df85d7674&#45;2kqrj -->
<g id="node4" class="node"><title>1_fwatchdog#ServerID_6df85d7674&#45;2kqrj</title>
<polygon fill="none" stroke="black" points="5667.5,-52 5346.5,-52 5346.5,-16 5667.5,-16 5667.5,-52"/>
<text text-anchor="middle" x="5507" y="-30.3" font-family="Times,serif" font-size="14.00">1_fwatchdog#ServerID_6df85d7674&#45;2kqrj</text>
</g>
<!-- 10.1.80.247:38022#ServerID_OuterContainerID&#45;&gt;1_fwatchdog#ServerID_6df85d7674&#45;2kqrj -->
<g id="edge3" class="edge"><title>10.1.80.247:38022#ServerID_OuterContainerID&#45;&gt;1_fwatchdog#ServerID_6df85d7674&#45;2kqrj</title>
<path fill="none" stroke="black" d="M3075.81,-132.348C3135.03,-129.316 3203.12,-126.137 3265,-124 3724.59,-108.126 4878.97,-149.553 5334,-83 5372.88,-77.3138 5415.41,-65.589 5448.58,-55.1514"/>
<polygon fill="black" stroke="black" points="5449.66,-58.4824 5458.12,-52.105 5447.52,-51.8144 5449.66,-58.4824"/>
<text text-anchor="middle" x="5264" y="-94.8" font-family="Times,serif" font-size="14.00">POST</text>
</g>
<!-- 1_fwatchdog#ServerID_34e86192c217 -->
<g id="node7" class="node"><title>1_fwatchdog#ServerID_34e86192c217</title>
<polygon fill="none" stroke="black" points="589.5,-268 290.5,-268 290.5,-232 589.5,-232 589.5,-268"/>
<text text-anchor="middle" x="440" y="-246.3" font-family="Times,serif" font-size="14.00">1_fwatchdog#ServerID_34e86192c217</text>
</g>
<!-- 10.1.80.247:38022#ServerID_OuterContainerID&#45;&gt;1_fwatchdog#ServerID_34e86192c217 -->
<g id="edge12" class="edge"><title>10.1.80.247:38022#ServerID_OuterContainerID&#45;&gt;1_fwatchdog#ServerID_34e86192c217</title>
<path fill="none" stroke="black" d="M2844.55,-155.958C2774.84,-167.345 2668.26,-183.269 2575,-191 2191.72,-222.77 1027.74,-241.136 599.944,-246.96"/>
<polygon fill="black" stroke="black" points="599.618,-243.464 589.666,-247.1 599.713,-250.464 599.618,-243.464"/>
<text text-anchor="middle" x="2456.5" y="-202.8" font-family="Times,serif" font-size="14.00">read</text>
</g>
<!-- 1_fwatchdog#ServerID_6df85d7674&#45;2kqrj&#45;&gt;10.1.80.247:38022#ServerID_OuterContainerID -->
<g id="edge6" class="edge"><title>1_fwatchdog#ServerID_6df85d7674&#45;2kqrj&#45;&gt;10.1.80.247:38022#ServerID_OuterContainerID</title>
<path fill="none" stroke="black" d="M5458.12,-52.105C5423.85,-63.2154 5376.72,-76.7524 5334,-83 5305.56,-87.1595 3293.72,-123.008 3265,-124 3206.62,-126.016 3142.73,-128.959 3085.96,-131.832"/>
<polygon fill="black" stroke="black" points="3085.62,-128.344 3075.81,-132.348 3085.98,-135.335 3085.62,-128.344"/>
<text text-anchor="middle" x="5021" y="-94.8" font-family="Times,serif" font-size="14.00">RESPONSE</text>
</g>
<!-- gateway:8080#ServerID_OuterContainerID -->
<g id="node5" class="node"><title>gateway:8080#ServerID_OuterContainerID</title>
<polygon fill="none" stroke="black" points="1590,-160 1285.52,-142 1590,-124 1894.48,-142 1590,-160"/>
<text text-anchor="middle" x="1590" y="-138.3" font-family="Times,serif" font-size="14.00">gateway:8080#ServerID_OuterContainerID</text>
</g>
<!-- 1_fwatchdog#ServerID_6df85d7674&#45;2kqrj&#45;&gt;gateway:8080#ServerID_OuterContainerID -->
<g id="edge8" class="edge"><title>1_fwatchdog#ServerID_6df85d7674&#45;2kqrj&#45;&gt;gateway:8080#ServerID_OuterContainerID</title>
<path fill="none" stroke="black" d="M5458.89,-52.088C5424.58,-63.3466 5377.07,-77.0667 5334,-83 5263.42,-92.7226 2840.16,-87.4753 2769,-91 2699.43,-94.4457 2682.53,-101.781 2613,-106 2297.92,-125.118 2218.41,-111.439 1903,-124 1850.75,-126.081 1793.62,-128.995 1742.64,-131.823"/>
<polygon fill="black" stroke="black" points="1742.32,-128.336 1732.53,-132.388 1742.71,-135.325 1742.32,-128.336"/>
<text text-anchor="middle" x="2789" y="-94.8" font-family="Times,serif" font-size="14.00">POST</text>
</g>
<!-- 10.1.80.247:8080#ServerID_OuterContainerID -->
<g id="node6" class="node"><title>10.1.80.247:8080#ServerID_OuterContainerID</title>
<polygon fill="none" stroke="black" points="2239,-160 1911.56,-142 2239,-124 2566.44,-142 2239,-160"/>
<text text-anchor="middle" x="2239" y="-138.3" font-family="Times,serif" font-size="14.00">10.1.80.247:8080#ServerID_OuterContainerID</text>
</g>
<!-- 1_fwatchdog#ServerID_6df85d7674&#45;2kqrj&#45;&gt;10.1.80.247:8080#ServerID_OuterContainerID -->
<g id="edge5" class="edge"><title>1_fwatchdog#ServerID_6df85d7674&#45;2kqrj&#45;&gt;10.1.80.247:8080#ServerID_OuterContainerID</title>
<path fill="none" stroke="black" d="M5458.88,-52.0359C5424.56,-63.2702 5377.06,-76.9827 5334,-83 5271.27,-91.7648 4257.33,-90.132 4194,-91 3474.81,-100.857 3294.81,-98.5453 2576,-124 2519.09,-126.015 2456.82,-128.951 2401.45,-131.817"/>
<polygon fill="black" stroke="black" points="2401,-128.336 2391.2,-132.352 2401.37,-135.327 2401,-128.336"/>
<text text-anchor="middle" x="4214" y="-94.8" font-family="Times,serif" font-size="14.00">POST</text>
</g>
<!-- gateway:8080#ServerID_OuterContainerID&#45;&gt;1_fwatchdog#ServerID_6df85d7674&#45;2kqrj -->
<g id="edge4" class="edge"><title>gateway:8080#ServerID_OuterContainerID&#45;&gt;1_fwatchdog#ServerID_6df85d7674&#45;2kqrj</title>
<path fill="none" stroke="black" d="M1730.96,-132.309C1784.78,-129.262 1846.71,-126.085 1903,-124 2105.12,-116.514 2613.1,-136.808 2813,-106 2836.35,-102.401 2840.62,-94.4056 2864,-91 2999.79,-71.2205 5198.06,-101.733 5334,-83 5373.2,-77.5974 5416.08,-65.7467 5449.33,-55.173"/>
<polygon fill="black" stroke="black" points="5450.45,-58.491 5458.89,-52.0864 5448.3,-51.8299 5450.45,-58.491"/>
<text text-anchor="middle" x="2906" y="-94.8" font-family="Times,serif" font-size="14.00">RESPONSE</text>
</g>
<!-- 10_node#ServerID_34e86192c217 -->
<g id="node10" class="node"><title>10_node#ServerID_34e86192c217</title>
<polygon fill="none" stroke="black" points="589.5,-52 322.5,-52 322.5,-16 589.5,-16 589.5,-52"/>
<text text-anchor="middle" x="456" y="-30.3" font-family="Times,serif" font-size="14.00">10_node#ServerID_34e86192c217</text>
</g>
<!-- gateway:8080#ServerID_OuterContainerID&#45;&gt;10_node#ServerID_34e86192c217 -->
<g id="edge18" class="edge"><title>gateway:8080#ServerID_OuterContainerID&#45;&gt;10_node#ServerID_34e86192c217</title>
<path fill="none" stroke="black" d="M1531.44,-127.437C1475.84,-115.264 1389.74,-98.2346 1314,-91 1235.24,-83.4775 680.049,-95.9509 602,-83 569.271,-77.5692 533.893,-66.0904 506.16,-55.7198"/>
<polygon fill="black" stroke="black" points="507.277,-52.4 496.686,-52.1095 504.784,-58.9411 507.277,-52.4"/>
<text text-anchor="middle" x="1436.5" y="-94.8" font-family="Times,serif" font-size="14.00">read</text>
</g>
<!-- 10.1.80.247:8080#ServerID_OuterContainerID&#45;&gt;1_fwatchdog#ServerID_6df85d7674&#45;2kqrj -->
<g id="edge7" class="edge"><title>10.1.80.247:8080#ServerID_OuterContainerID&#45;&gt;1_fwatchdog#ServerID_6df85d7674&#45;2kqrj</title>
<path fill="none" stroke="black" d="M2399.7,-132.809C2455.51,-129.987 2518.51,-126.826 2576,-124 2743.1,-115.786 2785.14,-118.166 2952,-106 3020.15,-101.032 3036.76,-94.4598 3105,-91 3166.84,-87.8647 5272.66,-91.4634 5334,-83 5373.2,-77.5905 5416.07,-65.7398 5449.33,-55.1677"/>
<polygon fill="black" stroke="black" points="5450.45,-58.4858 5458.89,-52.0817 5448.29,-51.8246 5450.45,-58.4858"/>
<text text-anchor="middle" x="3147" y="-94.8" font-family="Times,serif" font-size="14.00">RESPONSE</text>
</g>
<!-- 10.1.80.1:62730#ServerID_OuterContainerID -->
<g id="node14" class="node"><title>10.1.80.1:62730#ServerID_OuterContainerID</title>
<polygon fill="none" stroke="black" points="2176,-52 1857.1,-34 2176,-16 2494.9,-34 2176,-52"/>
<text text-anchor="middle" x="2176" y="-30.3" font-family="Times,serif" font-size="14.00">10.1.80.1:62730#ServerID_OuterContainerID</text>
</g>
<!-- 10.1.80.247:8080#ServerID_OuterContainerID&#45;&gt;10.1.80.1:62730#ServerID_OuterContainerID -->
<g id="edge20" class="edge"><title>10.1.80.247:8080#ServerID_OuterContainerID&#45;&gt;10.1.80.1:62730#ServerID_OuterContainerID</title>
<path fill="none" stroke="black" d="M2232.55,-123.886C2228.57,-114.015 2223.07,-101.515 2217,-91 2210.82,-80.292 2203.01,-69.1727 2195.87,-59.6915"/>
<polygon fill="black" stroke="black" points="2198.44,-57.2905 2189.56,-51.5036 2192.89,-61.5618 2198.44,-57.2905"/>
<text text-anchor="middle" x="2266" y="-94.8" font-family="Times,serif" font-size="14.00">RESPONSE</text>
</g>
<!-- 10.0.88.125:31112#ServerID_OuterContainerID -->
<g id="node15" class="node"><title>10.0.88.125:31112#ServerID_OuterContainerID</title>
<polygon fill="none" stroke="black" points="2848,-52 2512.52,-34 2848,-16 3183.48,-34 2848,-52"/>
<text text-anchor="middle" x="2848" y="-30.3" font-family="Times,serif" font-size="14.00">10.0.88.125:31112#ServerID_OuterContainerID</text>
</g>
<!-- 10.1.80.247:8080#ServerID_OuterContainerID&#45;&gt;10.0.88.125:31112#ServerID_OuterContainerID -->
<g id="edge22" class="edge"><title>10.1.80.247:8080#ServerID_OuterContainerID&#45;&gt;10.0.88.125:31112#ServerID_OuterContainerID</title>
<path fill="none" stroke="black" d="M2313.37,-128.055C2427.1,-108.26 2643.6,-70.5768 2763.25,-49.7514"/>
<polygon fill="black" stroke="black" points="2763.85,-53.1988 2773.11,-48.0358 2762.65,-46.3025 2763.85,-53.1988"/>
<text text-anchor="middle" x="2567" y="-94.8" font-family="Times,serif" font-size="14.00">RESPONSE</text>
</g>
<!-- localhost:3000#ServerID_34e86192c217 -->
<g id="node8" class="node"><title>localhost:3000#ServerID_34e86192c217</title>
<polygon fill="none" stroke="black" points="303,-160 16.4457,-142 303,-124 589.554,-142 303,-160"/>
<text text-anchor="middle" x="303" y="-138.3" font-family="Times,serif" font-size="14.00">localhost:3000#ServerID_34e86192c217</text>
</g>
<!-- 1_fwatchdog#ServerID_34e86192c217&#45;&gt;localhost:3000#ServerID_34e86192c217 -->
<g id="edge9" class="edge"><title>1_fwatchdog#ServerID_34e86192c217&#45;&gt;localhost:3000#ServerID_34e86192c217</title>
<path fill="none" stroke="black" d="M390.535,-231.81C379.916,-226.934 369.149,-221.004 360,-214 343.577,-201.428 329.052,-183.159 318.774,-168.302"/>
<polygon fill="black" stroke="black" points="321.41,-165.946 312.945,-159.574 315.588,-169.833 321.41,-165.946"/>
<text text-anchor="middle" x="389" y="-202.8" font-family="Times,serif" font-size="14.00">connect</text>
</g>
<!-- 1_fwatchdog#ServerID_34e86192c217&#45;&gt;localhost:3000#ServerID_34e86192c217 -->
<g id="edge11" class="edge"><title>1_fwatchdog#ServerID_34e86192c217&#45;&gt;localhost:3000#ServerID_34e86192c217</title>
<path fill="none" stroke="black" d="M435.776,-231.996C432.425,-221.428 426.811,-208.158 418,-199 401.845,-182.208 379.613,-169.773 359,-160.945"/>
<polygon fill="black" stroke="black" points="360.251,-157.676 349.67,-157.14 357.608,-164.158 360.251,-157.676"/>
<text text-anchor="middle" x="448" y="-202.8" font-family="Times,serif" font-size="14.00">write</text>
</g>
<!-- localhost:3000#ServerID_34e86192c217&#45;&gt;1_fwatchdog#ServerID_34e86192c217 -->
<g id="edge10" class="edge"><title>localhost:3000#ServerID_34e86192c217&#45;&gt;1_fwatchdog#ServerID_34e86192c217</title>
<path fill="none" stroke="black" d="M299.404,-159.961C297.101,-175.778 296.533,-199.108 309,-214 313.742,-219.665 324.034,-224.656 336.869,-228.963"/>
<polygon fill="black" stroke="black" points="336.033,-232.368 346.621,-231.978 338.101,-225.68 336.033,-232.368"/>
<text text-anchor="middle" x="325.5" y="-202.8" font-family="Times,serif" font-size="14.00">read</text>
</g>
<!-- localhost:3000#ServerID_34e86192c217&#45;&gt;10_node#ServerID_34e86192c217 -->
<g id="edge16" class="edge"><title>localhost:3000#ServerID_34e86192c217&#45;&gt;10_node#ServerID_34e86192c217</title>
<path fill="none" stroke="black" d="M325.576,-125.359C351.299,-107.538 393.572,-78.251 422.992,-57.868"/>
<polygon fill="black" stroke="black" points="425.074,-60.6836 431.301,-52.1117 421.088,-54.9296 425.074,-60.6836"/>
<text text-anchor="middle" x="391.5" y="-94.8" font-family="Times,serif" font-size="14.00">read</text>
</g>
<!-- 10.152.183.10:53#ServerID_OuterContainerID -->
<g id="node9" class="node"><title>10.152.183.10:53#ServerID_OuterContainerID</title>
<polygon fill="none" stroke="black" points="941,-160 613.56,-142 941,-124 1268.44,-142 941,-160"/>
<text text-anchor="middle" x="941" y="-138.3" font-family="Times,serif" font-size="14.00">10.152.183.10:53#ServerID_OuterContainerID</text>
</g>
<!-- 10.152.183.10:53#ServerID_OuterContainerID&#45;&gt;10_node#ServerID_34e86192c217 -->
<g id="edge13" class="edge"><title>10.152.183.10:53#ServerID_OuterContainerID&#45;&gt;10_node#ServerID_34e86192c217</title>
<path fill="none" stroke="black" d="M848.873,-129.006C780.259,-119.165 684.575,-103.518 602,-83 571.673,-75.4645 538.537,-64.7776 511.51,-55.3999"/>
<polygon fill="black" stroke="black" points="512.44,-52.0173 501.846,-52.0125 510.125,-58.6233 512.44,-52.0173"/>
<text text-anchor="middle" x="737" y="-94.8" font-family="Times,serif" font-size="14.00">recvfrom</text>
</g>
<!-- 10_node#ServerID_34e86192c217&#45;&gt;gateway:8080#ServerID_OuterContainerID -->
<g id="edge19" class="edge"><title>10_node#ServerID_34e86192c217&#45;&gt;gateway:8080#ServerID_OuterContainerID</title>
<path fill="none" stroke="black" d="M497.695,-52.0633C526.478,-63.0032 565.919,-76.3576 602,-83 677.262,-96.8554 697.584,-86.8819 774,-91 1008.26,-103.624 1280.19,-120.79 1443.48,-131.371"/>
<polygon fill="black" stroke="black" points="1443.39,-134.872 1453.6,-132.026 1443.84,-127.887 1443.39,-134.872"/>
<text text-anchor="middle" x="1050" y="-94.8" font-family="Times,serif" font-size="14.00">connect</text>
</g>
<!-- 10_node#ServerID_34e86192c217&#45;&gt;10.152.183.10:53#ServerID_OuterContainerID -->
<g id="edge14" class="edge"><title>10_node#ServerID_34e86192c217&#45;&gt;10.152.183.10:53#ServerID_OuterContainerID</title>
<path fill="none" stroke="black" d="M480.075,-52.0359C505.217,-68.8639 546.435,-93.801 586,-106 622.107,-117.133 704.447,-125.605 780.742,-131.423"/>
<polygon fill="black" stroke="black" points="780.744,-134.932 790.978,-132.19 781.267,-127.952 780.744,-134.932"/>
<text text-anchor="middle" x="610.5" y="-94.8" font-family="Times,serif" font-size="14.00">sendto</text>
</g>
<!-- 10.1.80.247:38034#ServerID_OuterContainerID -->
<g id="node11" class="node"><title>10.1.80.247:38034#ServerID_OuterContainerID</title>
<polygon fill="none" stroke="black" points="4298,-160 3962.52,-142 4298,-124 4633.48,-142 4298,-160"/>
<text text-anchor="middle" x="4298" y="-138.3" font-family="Times,serif" font-size="14.00">10.1.80.247:38034#ServerID_OuterContainerID</text>
</g>
<!-- 10.1.80.247:38034#ServerID_OuterContainerID&#45;&gt;1_fwatchdog#ServerID_34e86192c217 -->
<g id="edge15" class="edge"><title>10.1.80.247:38034#ServerID_OuterContainerID&#45;&gt;1_fwatchdog#ServerID_34e86192c217</title>
<path fill="none" stroke="black" d="M4223.58,-156.024C4153.9,-167.583 4046.75,-183.731 3953,-191 3288.14,-242.547 1196.32,-248.352 600.069,-248.948"/>
<polygon fill="black" stroke="black" points="599.679,-245.448 589.682,-248.958 599.686,-252.448 599.679,-245.448"/>
<text text-anchor="middle" x="3808.5" y="-202.8" font-family="Times,serif" font-size="14.00">read</text>
</g>
<!-- 10.1.80.247:40020#ServerID_OuterContainerID -->
<g id="node12" class="node"><title>10.1.80.247:40020#ServerID_OuterContainerID</title>
<polygon fill="none" stroke="black" points="3609,-160 3273.52,-142 3609,-124 3944.48,-142 3609,-160"/>
<text text-anchor="middle" x="3609" y="-138.3" font-family="Times,serif" font-size="14.00">10.1.80.247:40020#ServerID_OuterContainerID</text>
</g>
<!-- 1_fwatchdog#ServerID_e56b6537e2d5 -->
<g id="node13" class="node"><title>1_fwatchdog#ServerID_e56b6537e2d5</title>
<polygon fill="none" stroke="black" points="5991.5,-52 5692.5,-52 5692.5,-16 5991.5,-16 5991.5,-52"/>
<text text-anchor="middle" x="5842" y="-30.3" font-family="Times,serif" font-size="14.00">1_fwatchdog#ServerID_e56b6537e2d5</text>
</g>
<!-- 10.1.80.247:40020#ServerID_OuterContainerID&#45;&gt;1_fwatchdog#ServerID_e56b6537e2d5 -->
<g id="edge17" class="edge"><title>10.1.80.247:40020#ServerID_OuterContainerID&#45;&gt;1_fwatchdog#ServerID_e56b6537e2d5</title>
<path fill="none" stroke="black" d="M3766.11,-132.412C3825.03,-129.415 3892.57,-126.243 3954,-124 4337.41,-110.002 5300.99,-142.572 5680,-83 5716.21,-77.3078 5755.68,-65.7338 5786.59,-55.3774"/>
<polygon fill="black" stroke="black" points="5787.97,-58.604 5796.31,-52.0667 5785.71,-51.9778 5787.97,-58.604"/>
<text text-anchor="middle" x="5621.5" y="-94.8" font-family="Times,serif" font-size="14.00">read</text>
</g>
<!-- 10.1.80.1:62730#ServerID_OuterContainerID&#45;&gt;10.1.80.247:8080#ServerID_OuterContainerID -->
<g id="edge21" class="edge"><title>10.1.80.1:62730#ServerID_OuterContainerID&#45;&gt;10.1.80.247:8080#ServerID_OuterContainerID</title>
<path fill="none" stroke="black" d="M2170.36,-51.7824C2166.32,-67.0422 2163.14,-89.6138 2173,-106 2176.5,-111.824 2181.34,-116.731 2186.81,-120.851"/>
<polygon fill="black" stroke="black" points="2184.93,-123.798 2195.21,-126.34 2188.76,-117.939 2184.93,-123.798"/>
<text text-anchor="middle" x="2193" y="-94.8" font-family="Times,serif" font-size="14.00">POST</text>
</g>
</g>
</svg>
