<?xml version="1.0" encoding="UTF-8" standalone="no"?>
<!DOCTYPE svg PUBLIC "-//W3C//DTD SVG 1.1//EN"
 "http://www.w3.org/Graphics/SVG/1.1/DTD/svg11.dtd">
<!-- Generated by graphviz version 2.38.0 (20140413.2041)
 -->
<!-- Title: G Pages: 1 -->
<svg width="4440pt" height="576pt"
 viewBox="0.00 0.00 4440.00 576.00" xmlns="http://www.w3.org/2000/svg" xmlns:xlink="http://www.w3.org/1999/xlink">
<g id="graph0" class="graph" transform="scale(1 1) rotate(0) translate(4 572)">
<title>G</title>
<polygon fill="white" stroke="none" points="-4,4 -4,-572 4436,-572 4436,4 -4,4"/>
<g id="clust1" class="cluster"><title>clusterServerID_34e86192c217</title>
<polygon fill="none" stroke="black" points="3023,-290 3023,-560 4419,-560 4419,-290 3023,-290"/>
<text text-anchor="middle" x="3721" y="-544.8" font-family="Times,serif" font-size="14.00">clusterServerID_34e86192c217</text>
</g>
<g id="clust2" class="cluster"><title>clusterServerID_5f846fd567&#45;w7nbt</title>
<polygon fill="none" stroke="black" points="2675,-290 2675,-365 3015,-365 3015,-290 2675,-290"/>
<text text-anchor="middle" x="2845" y="-349.8" font-family="Times,serif" font-size="14.00">clusterServerID_5f846fd567&#45;w7nbt</text>
</g>
<g id="clust3" class="cluster"><title>clusterServerID_6df85d7674&#45;2kqrj</title>
<polygon fill="none" stroke="black" points="1408,-290 1408,-365 1746,-365 1746,-290 1408,-290"/>
<text text-anchor="middle" x="1577" y="-349.8" font-family="Times,serif" font-size="14.00">clusterServerID_6df85d7674&#45;2kqrj</text>
</g>
<g id="clust4" class="cluster"><title>clusterServerID_OuterContainerID</title>
<polygon fill="none" stroke="black" points="617,-95 617,-257 3964,-257 3964,-95 617,-95"/>
<text text-anchor="middle" x="2290.5" y="-241.8" font-family="Times,serif" font-size="14.00">clusterServerID_OuterContainerID</text>
</g>
<g id="clust5" class="cluster"><title>clusterServerID_e56b6537e2d5</title>
<polygon fill="none" stroke="black" points="8,-8 8,-257 609,-257 609,-8 8,-8"/>
<text text-anchor="middle" x="308.5" y="-241.8" font-family="Times,serif" font-size="14.00">clusterServerID_e56b6537e2d5</text>
</g>
<!-- gateway:8080#ServerID_OuterContainerID -->
<g id="node1" class="node"><title>gateway:8080#ServerID_OuterContainerID</title>
<polygon fill="none" stroke="black" points="929,-226 624.518,-208 929,-190 1233.48,-208 929,-226"/>
<text text-anchor="middle" x="929" y="-204.3" font-family="Times,serif" font-size="14.00">gateway:8080#ServerID_OuterContainerID</text>
</g>
<!-- 1_fwatchdog#ServerID_6df85d7674&#45;2kqrj -->
<g id="node2" class="node"><title>1_fwatchdog#ServerID_6df85d7674&#45;2kqrj</title>
<polygon fill="none" stroke="black" points="1737.5,-334 1416.5,-334 1416.5,-298 1737.5,-298 1737.5,-334"/>
<text text-anchor="middle" x="1577" y="-312.3" font-family="Times,serif" font-size="14.00">1_fwatchdog#ServerID_6df85d7674&#45;2kqrj</text>
</g>
<!-- gateway:8080#ServerID_OuterContainerID&#45;&gt;1_fwatchdog#ServerID_6df85d7674&#45;2kqrj -->
<g id="edge1" class="edge"><title>gateway:8080#ServerID_OuterContainerID&#45;&gt;1_fwatchdog#ServerID_6df85d7674&#45;2kqrj</title>
<path fill="none" stroke="black" d="M984.088,-222.766C1048.99,-238.555 1160.24,-264.28 1257,-280 1305.15,-287.823 1357.67,-294.381 1405.98,-299.626"/>
<polygon fill="black" stroke="black" points="1405.91,-303.138 1416.23,-300.725 1406.66,-296.178 1405.91,-303.138"/>
<text text-anchor="middle" x="1299" y="-268.8" font-family="Times,serif" font-size="14.00">RESPONSE</text>
</g>
<!-- 1_fwatchdog#ServerID_6df85d7674&#45;2kqrj&#45;&gt;gateway:8080#ServerID_OuterContainerID -->
<g id="edge6" class="edge"><title>1_fwatchdog#ServerID_6df85d7674&#45;2kqrj&#45;&gt;gateway:8080#ServerID_OuterContainerID</title>
<path fill="none" stroke="black" d="M1508.23,-297.996C1461.37,-287.012 1397.78,-273.274 1341,-265 1297.32,-258.634 1285.84,-262.127 1242,-257 1163.74,-247.849 1074.99,-233.898 1012.04,-223.391"/>
<polygon fill="black" stroke="black" points="1012.6,-219.937 1002.16,-221.735 1011.44,-226.84 1012.6,-219.937"/>
<text text-anchor="middle" x="1446" y="-268.8" font-family="Times,serif" font-size="14.00">POST</text>
</g>
<!-- 10.1.80.247:8080#ServerID_OuterContainerID -->
<g id="node5" class="node"><title>10.1.80.247:8080#ServerID_OuterContainerID</title>
<polygon fill="none" stroke="black" points="1578,-226 1250.56,-208 1578,-190 1905.44,-208 1578,-226"/>
<text text-anchor="middle" x="1578" y="-204.3" font-family="Times,serif" font-size="14.00">10.1.80.247:8080#ServerID_OuterContainerID</text>
</g>
<!-- 1_fwatchdog#ServerID_6df85d7674&#45;2kqrj&#45;&gt;10.1.80.247:8080#ServerID_OuterContainerID -->
<g id="edge3" class="edge"><title>1_fwatchdog#ServerID_6df85d7674&#45;2kqrj&#45;&gt;10.1.80.247:8080#ServerID_OuterContainerID</title>
<path fill="none" stroke="black" d="M1558.04,-297.736C1553.56,-292.523 1549.39,-286.455 1547,-280 1544.69,-273.747 1545.33,-271.455 1547,-265 1549.75,-254.348 1555.01,-243.56 1560.43,-234.334"/>
<polygon fill="black" stroke="black" points="1563.49,-236.03 1565.81,-225.692 1557.55,-232.33 1563.49,-236.03"/>
<text text-anchor="middle" x="1567" y="-268.8" font-family="Times,serif" font-size="14.00">POST</text>
</g>
<!-- 10.1.80.247:38172#ServerID_OuterContainerID -->
<g id="node6" class="node"><title>10.1.80.247:38172#ServerID_OuterContainerID</title>
<polygon fill="none" stroke="black" points="2259,-226 1923.52,-208 2259,-190 2594.48,-208 2259,-226"/>
<text text-anchor="middle" x="2259" y="-204.3" font-family="Times,serif" font-size="14.00">10.1.80.247:38172#ServerID_OuterContainerID</text>
</g>
<!-- 1_fwatchdog#ServerID_6df85d7674&#45;2kqrj&#45;&gt;10.1.80.247:38172#ServerID_OuterContainerID -->
<g id="edge8" class="edge"><title>1_fwatchdog#ServerID_6df85d7674&#45;2kqrj&#45;&gt;10.1.80.247:38172#ServerID_OuterContainerID</title>
<path fill="none" stroke="black" d="M1642,-297.888C1686.69,-286.784 1747.56,-272.949 1802,-265 1851.38,-257.79 1864.37,-262.219 1914,-257 2000.7,-247.883 2099.16,-233.812 2168.64,-223.259"/>
<polygon fill="black" stroke="black" points="2169.31,-226.696 2178.67,-221.728 2168.26,-219.776 2169.31,-226.696"/>
<text text-anchor="middle" x="1844" y="-268.8" font-family="Times,serif" font-size="14.00">RESPONSE</text>
</g>
<!-- 1_fwatchdog#ServerID_5f846fd567&#45;w7nbt -->
<g id="node3" class="node"><title>1_fwatchdog#ServerID_5f846fd567&#45;w7nbt</title>
<polygon fill="none" stroke="black" points="3007,-334 2683,-334 2683,-298 3007,-298 3007,-334"/>
<text text-anchor="middle" x="2845" y="-312.3" font-family="Times,serif" font-size="14.00">1_fwatchdog#ServerID_5f846fd567&#45;w7nbt</text>
</g>
<!-- 10.1.80.247:40160#ServerID_OuterContainerID -->
<g id="node4" class="node"><title>10.1.80.247:40160#ServerID_OuterContainerID</title>
<polygon fill="none" stroke="black" points="2948,-226 2612.52,-208 2948,-190 3283.48,-208 2948,-226"/>
<text text-anchor="middle" x="2948" y="-204.3" font-family="Times,serif" font-size="14.00">10.1.80.247:40160#ServerID_OuterContainerID</text>
</g>
<!-- 1_fwatchdog#ServerID_5f846fd567&#45;w7nbt&#45;&gt;10.1.80.247:40160#ServerID_OuterContainerID -->
<g id="edge2" class="edge"><title>1_fwatchdog#ServerID_5f846fd567&#45;w7nbt&#45;&gt;10.1.80.247:40160#ServerID_OuterContainerID</title>
<path fill="none" stroke="black" d="M2869.78,-297.886C2876.93,-292.499 2884.53,-286.303 2891,-280 2905.53,-265.841 2919.82,-248.031 2930.46,-233.791"/>
<polygon fill="black" stroke="black" points="2933.48,-235.583 2936.58,-225.45 2927.84,-231.442 2933.48,-235.583"/>
<text text-anchor="middle" x="2946" y="-268.8" font-family="Times,serif" font-size="14.00">RESPONSE</text>
</g>
<!-- 10.1.80.247:40160#ServerID_OuterContainerID&#45;&gt;1_fwatchdog#ServerID_5f846fd567&#45;w7nbt -->
<g id="edge5" class="edge"><title>10.1.80.247:40160#ServerID_OuterContainerID&#45;&gt;1_fwatchdog#ServerID_5f846fd567&#45;w7nbt</title>
<path fill="none" stroke="black" d="M2900.58,-223.5C2880.52,-232.192 2859.04,-245.456 2847,-265 2842.93,-271.61 2841.45,-279.699 2841.26,-287.429"/>
<polygon fill="black" stroke="black" points="2837.77,-287.722 2841.67,-297.573 2844.77,-287.441 2837.77,-287.722"/>
<text text-anchor="middle" x="2867" y="-268.8" font-family="Times,serif" font-size="14.00">POST</text>
</g>
<!-- 1_fwatchdog#ServerID_e56b6537e2d5 -->
<g id="node15" class="node"><title>1_fwatchdog#ServerID_e56b6537e2d5</title>
<polygon fill="none" stroke="black" points="600.5,-139 301.5,-139 301.5,-103 600.5,-103 600.5,-139"/>
<text text-anchor="middle" x="451" y="-117.3" font-family="Times,serif" font-size="14.00">1_fwatchdog#ServerID_e56b6537e2d5</text>
</g>
<!-- 10.1.80.247:40160#ServerID_OuterContainerID&#45;&gt;1_fwatchdog#ServerID_e56b6537e2d5 -->
<g id="edge18" class="edge"><title>10.1.80.247:40160#ServerID_OuterContainerID&#45;&gt;1_fwatchdog#ServerID_e56b6537e2d5</title>
<path fill="none" stroke="black" d="M2793.48,-198.287C2733.96,-195.219 2665.33,-192.033 2603,-190 1718.74,-161.166 1495.48,-202.125 613,-139 612.233,-138.945 611.464,-138.89 610.694,-138.833"/>
<polygon fill="black" stroke="black" points="610.817,-135.333 600.58,-138.061 610.285,-142.312 610.817,-135.333"/>
<text text-anchor="middle" x="1245.5" y="-160.8" font-family="Times,serif" font-size="14.00">read</text>
</g>
<!-- 10.1.80.247:8080#ServerID_OuterContainerID&#45;&gt;1_fwatchdog#ServerID_6df85d7674&#45;2kqrj -->
<g id="edge7" class="edge"><title>10.1.80.247:8080#ServerID_OuterContainerID&#45;&gt;1_fwatchdog#ServerID_6df85d7674&#45;2kqrj</title>
<path fill="none" stroke="black" d="M1582.68,-225.944C1586.05,-240.339 1589.59,-261.543 1587,-280 1586.64,-282.574 1586.14,-285.224 1585.55,-287.859"/>
<polygon fill="black" stroke="black" points="1582.1,-287.198 1582.96,-297.759 1588.87,-288.971 1582.1,-287.198"/>
<text text-anchor="middle" x="1629" y="-268.8" font-family="Times,serif" font-size="14.00">RESPONSE</text>
</g>
<!-- 10.1.80.1:19022#ServerID_OuterContainerID -->
<g id="node17" class="node"><title>10.1.80.1:19022#ServerID_OuterContainerID</title>
<polygon fill="none" stroke="black" points="1515,-139 1196.1,-121 1515,-103 1833.9,-121 1515,-139"/>
<text text-anchor="middle" x="1515" y="-117.3" font-family="Times,serif" font-size="14.00">10.1.80.1:19022#ServerID_OuterContainerID</text>
</g>
<!-- 10.1.80.247:8080#ServerID_OuterContainerID&#45;&gt;10.1.80.1:19022#ServerID_OuterContainerID -->
<g id="edge23" class="edge"><title>10.1.80.247:8080#ServerID_OuterContainerID&#45;&gt;10.1.80.1:19022#ServerID_OuterContainerID</title>
<path fill="none" stroke="black" d="M1572.77,-190.242C1569.09,-180.025 1563.47,-167.046 1556,-157 1552.72,-152.588 1548.79,-148.357 1544.67,-144.457"/>
<polygon fill="black" stroke="black" points="1546.98,-141.828 1537.17,-137.827 1542.34,-147.073 1546.98,-141.828"/>
<text text-anchor="middle" x="1606" y="-160.8" font-family="Times,serif" font-size="14.00">RESPONSE</text>
</g>
<!-- 10.0.88.125:31112#ServerID_OuterContainerID -->
<g id="node18" class="node"><title>10.0.88.125:31112#ServerID_OuterContainerID</title>
<polygon fill="none" stroke="black" points="2187,-139 1851.52,-121 2187,-103 2522.48,-121 2187,-139"/>
<text text-anchor="middle" x="2187" y="-117.3" font-family="Times,serif" font-size="14.00">10.0.88.125:31112#ServerID_OuterContainerID</text>
</g>
<!-- 10.1.80.247:8080#ServerID_OuterContainerID&#45;&gt;10.0.88.125:31112#ServerID_OuterContainerID -->
<g id="edge24" class="edge"><title>10.1.80.247:8080#ServerID_OuterContainerID&#45;&gt;10.0.88.125:31112#ServerID_OuterContainerID</title>
<path fill="none" stroke="black" d="M1665.58,-194.776C1777.68,-179.13 1971.36,-152.098 2088.48,-135.75"/>
<polygon fill="black" stroke="black" points="2089.11,-139.197 2098.53,-134.349 2088.14,-132.265 2089.11,-139.197"/>
<text text-anchor="middle" x="1960" y="-160.8" font-family="Times,serif" font-size="14.00">RESPONSE</text>
</g>
<!-- 10.1.80.247:38172#ServerID_OuterContainerID&#45;&gt;1_fwatchdog#ServerID_6df85d7674&#45;2kqrj -->
<g id="edge4" class="edge"><title>10.1.80.247:38172#ServerID_OuterContainerID&#45;&gt;1_fwatchdog#ServerID_6df85d7674&#45;2kqrj</title>
<path fill="none" stroke="black" d="M2196.25,-222.637C2123.04,-238.185 1998.2,-263.568 1890,-280 1844.04,-286.98 1794.09,-293.183 1747.87,-298.357"/>
<polygon fill="black" stroke="black" points="1747.31,-294.897 1737.76,-299.479 1748.08,-301.855 1747.31,-294.897"/>
<text text-anchor="middle" x="1991" y="-268.8" font-family="Times,serif" font-size="14.00">POST</text>
</g>
<!-- 1_fwatchdog#ServerID_34e86192c217 -->
<g id="node7" class="node"><title>1_fwatchdog#ServerID_34e86192c217</title>
<polygon fill="none" stroke="black" points="4342.5,-529 4043.5,-529 4043.5,-493 4342.5,-493 4342.5,-529"/>
<text text-anchor="middle" x="4193" y="-507.3" font-family="Times,serif" font-size="14.00">1_fwatchdog#ServerID_34e86192c217</text>
</g>
<!-- 10.1.80.247:38172#ServerID_OuterContainerID&#45;&gt;1_fwatchdog#ServerID_34e86192c217 -->
<g id="edge10" class="edge"><title>10.1.80.247:38172#ServerID_OuterContainerID&#45;&gt;1_fwatchdog#ServerID_34e86192c217</title>
<path fill="none" stroke="black" d="M2332.73,-222.109C2402.38,-233.813 2509.91,-250.136 2604,-257 2723.8,-265.739 3565.47,-253.192 3685,-265 3850.51,-281.35 4314.06,-277.8 4420,-406 4455.93,-449.474 4396.71,-475.621 4329.77,-490.824"/>
<polygon fill="black" stroke="black" points="4328.88,-487.437 4319.85,-492.988 4330.37,-494.276 4328.88,-487.437"/>
<text text-anchor="middle" x="4415.5" y="-376.8" font-family="Times,serif" font-size="14.00">read</text>
</g>
<!-- localhost:3000#ServerID_34e86192c217 -->
<g id="node8" class="node"><title>localhost:3000#ServerID_34e86192c217</title>
<polygon fill="none" stroke="black" points="4124,-442 3837.45,-424 4124,-406 4410.55,-424 4124,-442"/>
<text text-anchor="middle" x="4124" y="-420.3" font-family="Times,serif" font-size="14.00">localhost:3000#ServerID_34e86192c217</text>
</g>
<!-- 1_fwatchdog#ServerID_34e86192c217&#45;&gt;localhost:3000#ServerID_34e86192c217 -->
<g id="edge9" class="edge"><title>1_fwatchdog#ServerID_34e86192c217&#45;&gt;localhost:3000#ServerID_34e86192c217</title>
<path fill="none" stroke="black" d="M4179.04,-492.799C4168.83,-480.228 4154.86,-463.014 4143.55,-449.077"/>
<polygon fill="black" stroke="black" points="4146.26,-446.868 4137.24,-441.31 4140.83,-451.28 4146.26,-446.868"/>
<text text-anchor="middle" x="4181" y="-463.8" font-family="Times,serif" font-size="14.00">write</text>
</g>
<!-- 10_node#ServerID_34e86192c217 -->
<g id="node9" class="node"><title>10_node#ServerID_34e86192c217</title>
<polygon fill="none" stroke="black" points="3707.5,-334 3440.5,-334 3440.5,-298 3707.5,-298 3707.5,-334"/>
<text text-anchor="middle" x="3574" y="-312.3" font-family="Times,serif" font-size="14.00">10_node#ServerID_34e86192c217</text>
</g>
<!-- localhost:3000#ServerID_34e86192c217&#45;&gt;10_node#ServerID_34e86192c217 -->
<g id="edge11" class="edge"><title>localhost:3000#ServerID_34e86192c217&#45;&gt;10_node#ServerID_34e86192c217</title>
<path fill="none" stroke="black" d="M4057.38,-410.161C3961.33,-391.649 3783.29,-357.335 3672.16,-335.918"/>
<polygon fill="black" stroke="black" points="3672.76,-332.47 3662.28,-334.014 3671.44,-339.344 3672.76,-332.47"/>
<text text-anchor="middle" x="3946.5" y="-376.8" font-family="Times,serif" font-size="14.00">read</text>
</g>
<!-- 10_node#ServerID_34e86192c217&#45;&gt;gateway:8080#ServerID_OuterContainerID -->
<g id="edge16" class="edge"><title>10_node#ServerID_34e86192c217&#45;&gt;gateway:8080#ServerID_OuterContainerID</title>
<path fill="none" stroke="black" d="M3440.42,-300.422C3322.59,-288.305 3146.12,-271.961 2992,-265 2797.75,-256.226 1435.85,-272.223 1242,-257 1160.71,-250.616 1068.55,-235.518 1005.41,-223.946"/>
<polygon fill="black" stroke="black" points="1006,-220.496 995.526,-222.121 1004.72,-227.379 1006,-220.496"/>
<text text-anchor="middle" x="3245" y="-268.8" font-family="Times,serif" font-size="14.00">connect</text>
</g>
<!-- 10.152.183.10:53#ServerID_OuterContainerID -->
<g id="node12" class="node"><title>10.152.183.10:53#ServerID_OuterContainerID</title>
<polygon fill="none" stroke="black" points="3629,-226 3301.56,-208 3629,-190 3956.44,-208 3629,-226"/>
<text text-anchor="middle" x="3629" y="-204.3" font-family="Times,serif" font-size="14.00">10.152.183.10:53#ServerID_OuterContainerID</text>
</g>
<!-- 10_node#ServerID_34e86192c217&#45;&gt;10.152.183.10:53#ServerID_OuterContainerID -->
<g id="edge14" class="edge"><title>10_node#ServerID_34e86192c217&#45;&gt;10.152.183.10:53#ServerID_OuterContainerID</title>
<path fill="none" stroke="black" d="M3563.28,-297.813C3558.54,-287.917 3555.04,-275.417 3560,-265 3566.68,-250.967 3578.79,-239.306 3591.02,-230.323"/>
<polygon fill="black" stroke="black" points="3593.19,-233.084 3599.44,-224.536 3589.22,-227.315 3593.19,-233.084"/>
<text text-anchor="middle" x="3584.5" y="-268.8" font-family="Times,serif" font-size="14.00">sendto</text>
</g>
<!-- /etc/hosts#ServerID_34e86192c217 -->
<g id="node10" class="node"><title>/etc/hosts#ServerID_34e86192c217</title>
<ellipse fill="none" stroke="black" cx="3639" cy="-424" rx="180.068" ry="18"/>
<text text-anchor="middle" x="3639" y="-420.3" font-family="Times,serif" font-size="14.00">/etc/hosts#ServerID_34e86192c217</text>
</g>
<!-- /etc/hosts#ServerID_34e86192c217&#45;&gt;10_node#ServerID_34e86192c217 -->
<g id="edge12" class="edge"><title>/etc/hosts#ServerID_34e86192c217&#45;&gt;10_node#ServerID_34e86192c217</title>
<path fill="none" stroke="black" d="M3628.56,-405.969C3618.15,-388.994 3602.02,-362.698 3590,-343.09"/>
<polygon fill="black" stroke="black" points="3592.84,-341.036 3584.63,-334.341 3586.88,-344.695 3592.84,-341.036"/>
<text text-anchor="middle" x="3632.5" y="-376.8" font-family="Times,serif" font-size="14.00">read</text>
</g>
<!-- /etc/resolv.conf#ServerID_34e86192c217 -->
<g id="node11" class="node"><title>/etc/resolv.conf#ServerID_34e86192c217</title>
<ellipse fill="none" stroke="black" cx="3236" cy="-424" rx="205.264" ry="18"/>
<text text-anchor="middle" x="3236" y="-420.3" font-family="Times,serif" font-size="14.00">/etc/resolv.conf#ServerID_34e86192c217</text>
</g>
<!-- /etc/resolv.conf#ServerID_34e86192c217&#45;&gt;10_node#ServerID_34e86192c217 -->
<g id="edge13" class="edge"><title>/etc/resolv.conf#ServerID_34e86192c217&#45;&gt;10_node#ServerID_34e86192c217</title>
<path fill="none" stroke="black" d="M3288.44,-406.554C3348.23,-387.803 3445.97,-357.151 3510.15,-337.025"/>
<polygon fill="black" stroke="black" points="3511.26,-340.344 3519.76,-334.012 3509.17,-333.665 3511.26,-340.344"/>
<text text-anchor="middle" x="3410.5" y="-376.8" font-family="Times,serif" font-size="14.00">read</text>
</g>
<!-- 10.152.183.10:53#ServerID_OuterContainerID&#45;&gt;10_node#ServerID_34e86192c217 -->
<g id="edge15" class="edge"><title>10.152.183.10:53#ServerID_OuterContainerID&#45;&gt;10_node#ServerID_34e86192c217</title>
<path fill="none" stroke="black" d="M3626.7,-226.022C3624.11,-241.036 3618.9,-263.095 3609,-280 3606.85,-283.67 3604.22,-287.23 3601.38,-290.584"/>
<polygon fill="black" stroke="black" points="3598.74,-288.286 3594.5,-297.994 3603.87,-293.051 3598.74,-288.286"/>
<text text-anchor="middle" x="3648" y="-268.8" font-family="Times,serif" font-size="14.00">recvfrom</text>
</g>
<!-- localhost:3000#ServerID_e56b6537e2d5 -->
<g id="node13" class="node"><title>localhost:3000#ServerID_e56b6537e2d5</title>
<polygon fill="none" stroke="black" points="314,-226 27.4457,-208 314,-190 600.554,-208 314,-226"/>
<text text-anchor="middle" x="314" y="-204.3" font-family="Times,serif" font-size="14.00">localhost:3000#ServerID_e56b6537e2d5</text>
</g>
<!-- 12_node#ServerID_e56b6537e2d5 -->
<g id="node14" class="node"><title>12_node#ServerID_e56b6537e2d5</title>
<polygon fill="none" stroke="black" points="283.5,-139 16.5,-139 16.5,-103 283.5,-103 283.5,-139"/>
<text text-anchor="middle" x="150" y="-117.3" font-family="Times,serif" font-size="14.00">12_node#ServerID_e56b6537e2d5</text>
</g>
<!-- localhost:3000#ServerID_e56b6537e2d5&#45;&gt;12_node#ServerID_e56b6537e2d5 -->
<g id="edge17" class="edge"><title>localhost:3000#ServerID_e56b6537e2d5&#45;&gt;12_node#ServerID_e56b6537e2d5</title>
<path fill="none" stroke="black" d="M284.68,-191.804C258.908,-178.446 221.096,-158.849 192.093,-143.816"/>
<polygon fill="black" stroke="black" points="193.501,-140.604 183.012,-139.11 190.28,-146.819 193.501,-140.604"/>
<text text-anchor="middle" x="258.5" y="-160.8" font-family="Times,serif" font-size="14.00">read</text>
</g>
<!-- localhost:3000#ServerID_e56b6537e2d5&#45;&gt;1_fwatchdog#ServerID_e56b6537e2d5 -->
<g id="edge21" class="edge"><title>localhost:3000#ServerID_e56b6537e2d5&#45;&gt;1_fwatchdog#ServerID_e56b6537e2d5</title>
<path fill="none" stroke="black" d="M355.4,-192.48C368.837,-186.955 383.495,-180.026 396,-172 407.199,-164.812 418.301,-155.301 427.566,-146.506"/>
<polygon fill="black" stroke="black" points="430.178,-148.847 434.879,-139.352 425.283,-143.843 430.178,-148.847"/>
<text text-anchor="middle" x="432.5" y="-160.8" font-family="Times,serif" font-size="14.00">read</text>
</g>
<!-- 1_fwatchdog#ServerID_e56b6537e2d5&#45;&gt;localhost:3000#ServerID_e56b6537e2d5 -->
<g id="edge19" class="edge"><title>1_fwatchdog#ServerID_e56b6537e2d5&#45;&gt;localhost:3000#ServerID_e56b6537e2d5</title>
<path fill="none" stroke="black" d="M392.258,-139.112C380.376,-143.92 368.361,-149.842 358,-157 348.094,-163.843 338.967,-173.392 331.624,-182.312"/>
<polygon fill="black" stroke="black" points="328.829,-180.204 325.411,-190.233 334.337,-184.525 328.829,-180.204"/>
<text text-anchor="middle" x="377" y="-160.8" font-family="Times,serif" font-size="14.00">write</text>
</g>
<!-- pipe:[331682317]#ServerID_e56b6537e2d5 -->
<g id="node16" class="node"><title>pipe:[331682317]#ServerID_e56b6537e2d5</title>
<ellipse fill="none" stroke="black" cx="384" cy="-34" rx="217.162" ry="18"/>
<text text-anchor="middle" x="384" y="-30.3" font-family="Times,serif" font-size="14.00">pipe:[331682317]#ServerID_e56b6537e2d5</text>
</g>
<!-- 1_fwatchdog#ServerID_e56b6537e2d5&#45;&gt;pipe:[331682317]#ServerID_e56b6537e2d5 -->
<g id="edge20" class="edge"><title>1_fwatchdog#ServerID_e56b6537e2d5&#45;&gt;pipe:[331682317]#ServerID_e56b6537e2d5</title>
<path fill="none" stroke="black" d="M437.442,-102.799C427.815,-90.5865 414.735,-73.9921 403.925,-60.2776"/>
<polygon fill="black" stroke="black" points="406.478,-57.8623 397.538,-52.1754 400.98,-62.1957 406.478,-57.8623"/>
<text text-anchor="middle" x="441" y="-73.8" font-family="Times,serif" font-size="14.00">write</text>
</g>
<!-- 10.1.80.1:19022#ServerID_OuterContainerID&#45;&gt;10.1.80.247:8080#ServerID_OuterContainerID -->
<g id="edge22" class="edge"><title>10.1.80.1:19022#ServerID_OuterContainerID&#45;&gt;10.1.80.247:8080#ServerID_OuterContainerID</title>
<path fill="none" stroke="black" d="M1511.34,-138.903C1510.04,-149.175 1510.12,-162.161 1516,-172 1519.33,-177.571 1523.9,-182.329 1529.06,-186.373"/>
<polygon fill="black" stroke="black" points="1527.33,-189.43 1537.57,-192.155 1531.27,-183.64 1527.33,-189.43"/>
<text text-anchor="middle" x="1536" y="-160.8" font-family="Times,serif" font-size="14.00">POST</text>
</g>
</g>
</svg>
