<?xml version="1.0" encoding="UTF-8" standalone="no"?>
<!DOCTYPE svg PUBLIC "-//W3C//DTD SVG 1.1//EN"
 "http://www.w3.org/Graphics/SVG/1.1/DTD/svg11.dtd">
<!-- Generated by graphviz version 2.38.0 (20140413.2041)
 -->
<!-- Title: G Pages: 1 -->
<svg width="7166pt" height="558pt"
 viewBox="0.00 0.00 7166.00 558.00" xmlns="http://www.w3.org/2000/svg" xmlns:xlink="http://www.w3.org/1999/xlink">
<g id="graph0" class="graph" transform="scale(1 1) rotate(0) translate(4 554)">
<title>G</title>
<polygon fill="white" stroke="none" points="-4,4 -4,-554 7162,-554 7162,4 -4,4"/>
<g id="clust1" class="cluster"><title>clusterServerID_34e86192c217</title>
<polygon fill="none" stroke="black" points="8,-182 8,-411 1130,-411 1130,-182 8,-182"/>
<text text-anchor="middle" x="569" y="-395.8" font-family="Times,serif" font-size="14.00">clusterServerID_34e86192c217</text>
</g>
<g id="clust2" class="cluster"><title>clusterServerID_5f846fd567&#45;w7nbt</title>
<polygon fill="none" stroke="black" points="6038,-444 6038,-542 6378,-542 6378,-444 6038,-444"/>
<text text-anchor="middle" x="6208" y="-526.8" font-family="Times,serif" font-size="14.00">clusterServerID_5f846fd567&#45;w7nbt</text>
</g>
<g id="clust3" class="cluster"><title>clusterServerID_6df85d7674&#45;2kqrj</title>
<polygon fill="none" stroke="black" points="1939,-444 1939,-542 2277,-542 2277,-444 1939,-444"/>
<text text-anchor="middle" x="2108" y="-526.8" font-family="Times,serif" font-size="14.00">clusterServerID_6df85d7674&#45;2kqrj</text>
</g>
<g id="clust4" class="cluster"><title>clusterServerID_OuterContainerID</title>
<polygon fill="none" stroke="black" points="1138,-182 1138,-411 6552,-411 6552,-182 1138,-182"/>
<text text-anchor="middle" x="3845" y="-395.8" font-family="Times,serif" font-size="14.00">clusterServerID_OuterContainerID</text>
</g>
<g id="clust5" class="cluster"><title>clusterServerID_e56b6537e2d5</title>
<polygon fill="none" stroke="black" points="6560,-8 6560,-280 7150,-280 7150,-8 6560,-8"/>
<text text-anchor="middle" x="6855" y="-264.8" font-family="Times,serif" font-size="14.00">clusterServerID_e56b6537e2d5</text>
</g>
<!-- 10.1.80.247:38136#ServerID_OuterContainerID -->
<g id="node1" class="node"><title>10.1.80.247:38136#ServerID_OuterContainerID</title>
<polygon fill="none" stroke="black" points="2108,-357 1772.52,-339 2108,-321 2443.48,-339 2108,-357"/>
<text text-anchor="middle" x="2108" y="-335.3" font-family="Times,serif" font-size="14.00">10.1.80.247:38136#ServerID_OuterContainerID</text>
</g>
<!-- 1_fwatchdog#ServerID_6df85d7674&#45;2kqrj -->
<g id="node2" class="node"><title>1_fwatchdog#ServerID_6df85d7674&#45;2kqrj</title>
<polygon fill="none" stroke="black" points="2268.5,-488 1947.5,-488 1947.5,-452 2268.5,-452 2268.5,-488"/>
<text text-anchor="middle" x="2108" y="-466.3" font-family="Times,serif" font-size="14.00">1_fwatchdog#ServerID_6df85d7674&#45;2kqrj</text>
</g>
<!-- 10.1.80.247:38136#ServerID_OuterContainerID&#45;&gt;1_fwatchdog#ServerID_6df85d7674&#45;2kqrj -->
<g id="edge1" class="edge"><title>10.1.80.247:38136#ServerID_OuterContainerID&#45;&gt;1_fwatchdog#ServerID_6df85d7674&#45;2kqrj</title>
<path fill="none" stroke="black" d="M2096.04,-356.456C2083.87,-375.342 2068.07,-407.169 2078,-434 2079.23,-437.328 2080.94,-440.554 2082.91,-443.612"/>
<polygon fill="black" stroke="black" points="2080.22,-445.86 2089.04,-451.736 2085.81,-441.644 2080.22,-445.86"/>
<text text-anchor="middle" x="2098" y="-422.8" font-family="Times,serif" font-size="14.00">POST</text>
</g>
<!-- 1_fwatchdog#ServerID_34e86192c217 -->
<g id="node7" class="node"><title>1_fwatchdog#ServerID_34e86192c217</title>
<polygon fill="none" stroke="black" points="315.5,-357 16.5,-357 16.5,-321 315.5,-321 315.5,-357"/>
<text text-anchor="middle" x="166" y="-335.3" font-family="Times,serif" font-size="14.00">1_fwatchdog#ServerID_34e86192c217</text>
</g>
<!-- 10.1.80.247:38136#ServerID_OuterContainerID&#45;&gt;1_fwatchdog#ServerID_34e86192c217 -->
<g id="edge10" class="edge"><title>10.1.80.247:38136#ServerID_OuterContainerID&#45;&gt;1_fwatchdog#ServerID_34e86192c217</title>
<path fill="none" stroke="black" d="M2053.28,-354.066C1985.7,-371.823 1866.92,-400.271 1763,-411 1604.07,-427.408 481.18,-444.714 325,-411 281.596,-401.631 235.786,-379.397 204.545,-362.096"/>
<polygon fill="black" stroke="black" points="206.166,-358.992 195.735,-357.134 202.73,-365.091 206.166,-358.992"/>
<text text-anchor="middle" x="1657" y="-422.8" font-family="Times,serif" font-size="14.00">read</text>
</g>
<!-- 1_fwatchdog#ServerID_6df85d7674&#45;2kqrj&#45;&gt;10.1.80.247:38136#ServerID_OuterContainerID -->
<g id="edge8" class="edge"><title>1_fwatchdog#ServerID_6df85d7674&#45;2kqrj&#45;&gt;10.1.80.247:38136#ServerID_OuterContainerID</title>
<path fill="none" stroke="black" d="M2113.96,-451.759C2115.61,-446.165 2117.18,-439.883 2118,-434 2121.15,-411.478 2117.96,-385.795 2114.37,-366.973"/>
<polygon fill="black" stroke="black" points="2117.77,-366.107 2112.32,-357.023 2110.91,-367.524 2117.77,-366.107"/>
<text text-anchor="middle" x="2162" y="-422.8" font-family="Times,serif" font-size="14.00">RESPONSE</text>
</g>
<!-- 10.1.80.247:8080#ServerID_OuterContainerID -->
<g id="node3" class="node"><title>10.1.80.247:8080#ServerID_OuterContainerID</title>
<polygon fill="none" stroke="black" points="3461,-357 3133.56,-339 3461,-321 3788.44,-339 3461,-357"/>
<text text-anchor="middle" x="3461" y="-335.3" font-family="Times,serif" font-size="14.00">10.1.80.247:8080#ServerID_OuterContainerID</text>
</g>
<!-- 1_fwatchdog#ServerID_6df85d7674&#45;2kqrj&#45;&gt;10.1.80.247:8080#ServerID_OuterContainerID -->
<g id="edge7" class="edge"><title>1_fwatchdog#ServerID_6df85d7674&#45;2kqrj&#45;&gt;10.1.80.247:8080#ServerID_OuterContainerID</title>
<path fill="none" stroke="black" d="M2268.51,-457.286C2426.15,-446.119 2673.52,-429.492 2888,-419 2993.27,-413.851 3020.38,-423.721 3125,-411 3221.41,-399.278 3331.16,-373.728 3398.25,-356.693"/>
<polygon fill="black" stroke="black" points="3399.41,-360.008 3408.23,-354.14 3397.68,-353.226 3399.41,-360.008"/>
<text text-anchor="middle" x="2908" y="-422.8" font-family="Times,serif" font-size="14.00">POST</text>
</g>
<!-- gateway:8080#ServerID_OuterContainerID -->
<g id="node6" class="node"><title>gateway:8080#ServerID_OuterContainerID</title>
<polygon fill="none" stroke="black" points="1450,-357 1145.52,-339 1450,-321 1754.48,-339 1450,-357"/>
<text text-anchor="middle" x="1450" y="-335.3" font-family="Times,serif" font-size="14.00">gateway:8080#ServerID_OuterContainerID</text>
</g>
<!-- 1_fwatchdog#ServerID_6df85d7674&#45;2kqrj&#45;&gt;gateway:8080#ServerID_OuterContainerID -->
<g id="edge6" class="edge"><title>1_fwatchdog#ServerID_6df85d7674&#45;2kqrj&#45;&gt;gateway:8080#ServerID_OuterContainerID</title>
<path fill="none" stroke="black" d="M1947.45,-466.716C1822.11,-463.318 1659,-454.889 1596,-434 1549.84,-418.696 1503.88,-385.355 1476.2,-362.785"/>
<polygon fill="black" stroke="black" points="1478.15,-359.852 1468.22,-356.159 1473.68,-365.238 1478.15,-359.852"/>
<text text-anchor="middle" x="1616" y="-422.8" font-family="Times,serif" font-size="14.00">POST</text>
</g>
<!-- 10.1.80.247:8080#ServerID_OuterContainerID&#45;&gt;1_fwatchdog#ServerID_6df85d7674&#45;2kqrj -->
<g id="edge2" class="edge"><title>10.1.80.247:8080#ServerID_OuterContainerID&#45;&gt;1_fwatchdog#ServerID_6df85d7674&#45;2kqrj</title>
<path fill="none" stroke="black" d="M3407.03,-354.044C3341.01,-370.607 3225.61,-397.579 3125,-411 2829.14,-450.465 2481.35,-463.102 2278.7,-467.133"/>
<polygon fill="black" stroke="black" points="2278.49,-463.636 2268.56,-467.33 2278.63,-470.635 2278.49,-463.636"/>
<text text-anchor="middle" x="3086" y="-422.8" font-family="Times,serif" font-size="14.00">RESPONSE</text>
</g>
<!-- 10.1.80.1:13667#ServerID_OuterContainerID -->
<g id="node19" class="node"><title>10.1.80.1:13667#ServerID_OuterContainerID</title>
<polygon fill="none" stroke="black" points="3568,-226 3249.1,-208 3568,-190 3886.9,-208 3568,-226"/>
<text text-anchor="middle" x="3568" y="-204.3" font-family="Times,serif" font-size="14.00">10.1.80.1:13667#ServerID_OuterContainerID</text>
</g>
<!-- 10.1.80.247:8080#ServerID_OuterContainerID&#45;&gt;10.1.80.1:13667#ServerID_OuterContainerID -->
<g id="edge23" class="edge"><title>10.1.80.247:8080#ServerID_OuterContainerID&#45;&gt;10.1.80.1:13667#ServerID_OuterContainerID</title>
<path fill="none" stroke="black" d="M3455.79,-320.896C3453.69,-310.795 3452.84,-298.059 3458,-288 3471.66,-261.381 3498.91,-241.706 3522.88,-228.649"/>
<polygon fill="black" stroke="black" points="3524.61,-231.691 3531.86,-223.968 3521.38,-225.483 3524.61,-231.691"/>
<text text-anchor="middle" x="3500" y="-291.8" font-family="Times,serif" font-size="14.00">RESPONSE</text>
</g>
<!-- 10.0.88.125:31112#ServerID_OuterContainerID -->
<g id="node20" class="node"><title>10.0.88.125:31112#ServerID_OuterContainerID</title>
<polygon fill="none" stroke="black" points="2896,-226 2560.52,-208 2896,-190 3231.48,-208 2896,-226"/>
<text text-anchor="middle" x="2896" y="-204.3" font-family="Times,serif" font-size="14.00">10.0.88.125:31112#ServerID_OuterContainerID</text>
</g>
<!-- 10.1.80.247:8080#ServerID_OuterContainerID&#45;&gt;10.0.88.125:31112#ServerID_OuterContainerID -->
<g id="edge24" class="edge"><title>10.1.80.247:8080#ServerID_OuterContainerID&#45;&gt;10.0.88.125:31112#ServerID_OuterContainerID</title>
<path fill="none" stroke="black" d="M3400.8,-324.256C3295.5,-300.214 3078.44,-250.655 2966.38,-225.069"/>
<polygon fill="black" stroke="black" points="2967.05,-221.633 2956.52,-222.819 2965.49,-228.457 2967.05,-221.633"/>
<text text-anchor="middle" x="3337" y="-291.8" font-family="Times,serif" font-size="14.00">RESPONSE</text>
</g>
<!-- 1_fwatchdog#ServerID_5f846fd567&#45;w7nbt -->
<g id="node4" class="node"><title>1_fwatchdog#ServerID_5f846fd567&#45;w7nbt</title>
<polygon fill="none" stroke="black" points="6370,-488 6046,-488 6046,-452 6370,-452 6370,-488"/>
<text text-anchor="middle" x="6208" y="-466.3" font-family="Times,serif" font-size="14.00">1_fwatchdog#ServerID_5f846fd567&#45;w7nbt</text>
</g>
<!-- 10.1.80.247:40100#ServerID_OuterContainerID -->
<g id="node5" class="node"><title>10.1.80.247:40100#ServerID_OuterContainerID</title>
<polygon fill="none" stroke="black" points="6209,-357 5873.52,-339 6209,-321 6544.48,-339 6209,-357"/>
<text text-anchor="middle" x="6209" y="-335.3" font-family="Times,serif" font-size="14.00">10.1.80.247:40100#ServerID_OuterContainerID</text>
</g>
<!-- 1_fwatchdog#ServerID_5f846fd567&#45;w7nbt&#45;&gt;10.1.80.247:40100#ServerID_OuterContainerID -->
<g id="edge3" class="edge"><title>1_fwatchdog#ServerID_5f846fd567&#45;w7nbt&#45;&gt;10.1.80.247:40100#ServerID_OuterContainerID</title>
<path fill="none" stroke="black" d="M6172.26,-451.861C6165.73,-447.032 6159.78,-441.108 6156,-434 6152.87,-428.115 6154.06,-425.378 6156,-419 6162.15,-398.792 6175.38,-379.057 6187.09,-364.367"/>
<polygon fill="black" stroke="black" points="6190.06,-366.27 6193.74,-356.335 6184.67,-361.806 6190.06,-366.27"/>
<text text-anchor="middle" x="6198" y="-422.8" font-family="Times,serif" font-size="14.00">RESPONSE</text>
</g>
<!-- 10.1.80.247:40100#ServerID_OuterContainerID&#45;&gt;1_fwatchdog#ServerID_5f846fd567&#45;w7nbt -->
<g id="edge4" class="edge"><title>10.1.80.247:40100#ServerID_OuterContainerID&#45;&gt;1_fwatchdog#ServerID_5f846fd567&#45;w7nbt</title>
<path fill="none" stroke="black" d="M6221.4,-356.484C6234.03,-375.397 6250.39,-407.248 6240,-434 6238.64,-437.507 6236.74,-440.876 6234.55,-444.046"/>
<polygon fill="black" stroke="black" points="6231.75,-441.944 6228.2,-451.928 6237.2,-446.335 6231.75,-441.944"/>
<text text-anchor="middle" x="6264" y="-422.8" font-family="Times,serif" font-size="14.00">POST</text>
</g>
<!-- gateway:8080#ServerID_OuterContainerID&#45;&gt;1_fwatchdog#ServerID_6df85d7674&#45;2kqrj -->
<g id="edge5" class="edge"><title>gateway:8080#ServerID_OuterContainerID&#45;&gt;1_fwatchdog#ServerID_6df85d7674&#45;2kqrj</title>
<path fill="none" stroke="black" d="M1506.24,-353.704C1568.92,-368.747 1673.39,-393.131 1764,-411 1838.04,-425.601 1921.5,-439.729 1987.67,-450.386"/>
<polygon fill="black" stroke="black" points="1987.29,-453.87 1997.72,-451.999 1988.4,-446.958 1987.29,-453.87"/>
<text text-anchor="middle" x="1929" y="-422.8" font-family="Times,serif" font-size="14.00">RESPONSE</text>
</g>
<!-- 10_node#ServerID_34e86192c217 -->
<g id="node10" class="node"><title>10_node#ServerID_34e86192c217</title>
<polygon fill="none" stroke="black" points="1121.5,-226 854.5,-226 854.5,-190 1121.5,-190 1121.5,-226"/>
<text text-anchor="middle" x="988" y="-204.3" font-family="Times,serif" font-size="14.00">10_node#ServerID_34e86192c217</text>
</g>
<!-- gateway:8080#ServerID_OuterContainerID&#45;&gt;10_node#ServerID_34e86192c217 -->
<g id="edge21" class="edge"><title>gateway:8080#ServerID_OuterContainerID&#45;&gt;10_node#ServerID_34e86192c217</title>
<path fill="none" stroke="black" d="M1311.05,-329.181C1240.9,-323.445 1163.83,-314.813 1131,-303 1086.92,-287.138 1042.89,-255.152 1015.57,-232.924"/>
<polygon fill="black" stroke="black" points="1017.58,-230.046 1007.64,-226.367 1013.12,-235.439 1017.58,-230.046"/>
<text text-anchor="middle" x="1147.5" y="-291.8" font-family="Times,serif" font-size="14.00">read</text>
</g>
<!-- localhost:3000#ServerID_34e86192c217 -->
<g id="node8" class="node"><title>localhost:3000#ServerID_34e86192c217</title>
<polygon fill="none" stroke="black" points="303,-226 16.4457,-208 303,-190 589.554,-208 303,-226"/>
<text text-anchor="middle" x="303" y="-204.3" font-family="Times,serif" font-size="14.00">localhost:3000#ServerID_34e86192c217</text>
</g>
<!-- 1_fwatchdog#ServerID_34e86192c217&#45;&gt;localhost:3000#ServerID_34e86192c217 -->
<g id="edge9" class="edge"><title>1_fwatchdog#ServerID_34e86192c217&#45;&gt;localhost:3000#ServerID_34e86192c217</title>
<path fill="none" stroke="black" d="M184.193,-320.87C208.439,-298.039 251.427,-257.562 278.505,-232.064"/>
<polygon fill="black" stroke="black" points="281.145,-234.386 286.026,-224.983 276.346,-229.29 281.145,-234.386"/>
<text text-anchor="middle" x="238" y="-291.8" font-family="Times,serif" font-size="14.00">write</text>
</g>
<!-- 10.152.183.10:53#ServerID_OuterContainerID -->
<g id="node9" class="node"><title>10.152.183.10:53#ServerID_OuterContainerID</title>
<polygon fill="none" stroke="black" points="2789,-357 2461.56,-339 2789,-321 3116.44,-339 2789,-357"/>
<text text-anchor="middle" x="2789" y="-335.3" font-family="Times,serif" font-size="14.00">10.152.183.10:53#ServerID_OuterContainerID</text>
</g>
<!-- 10.152.183.10:53#ServerID_OuterContainerID&#45;&gt;10_node#ServerID_34e86192c217 -->
<g id="edge11" class="edge"><title>10.152.183.10:53#ServerID_OuterContainerID&#45;&gt;10_node#ServerID_34e86192c217</title>
<path fill="none" stroke="black" d="M2682.01,-326.869C2559.8,-314.712 2353.74,-295.92 2176,-288 2118.17,-285.423 1190.36,-293.206 1134,-280 1093.64,-270.543 1051.46,-248.516 1022.88,-231.485"/>
<polygon fill="black" stroke="black" points="1024.46,-228.35 1014.09,-226.153 1020.83,-234.334 1024.46,-228.35"/>
<text text-anchor="middle" x="2446" y="-291.8" font-family="Times,serif" font-size="14.00">recvfrom</text>
</g>
<!-- 10_node#ServerID_34e86192c217&#45;&gt;gateway:8080#ServerID_OuterContainerID -->
<g id="edge16" class="edge"><title>10_node#ServerID_34e86192c217&#45;&gt;gateway:8080#ServerID_OuterContainerID</title>
<path fill="none" stroke="black" d="M1017.2,-226.144C1045.99,-242.324 1091.69,-266.115 1134,-280 1201.02,-301.993 1278.94,-316.41 1340.63,-325.37"/>
<polygon fill="black" stroke="black" points="1340.38,-328.871 1350.78,-326.816 1341.37,-321.941 1340.38,-328.871"/>
<text text-anchor="middle" x="1240" y="-291.8" font-family="Times,serif" font-size="14.00">connect</text>
</g>
<!-- 10_node#ServerID_34e86192c217&#45;&gt;10.152.183.10:53#ServerID_OuterContainerID -->
<g id="edge12" class="edge"><title>10_node#ServerID_34e86192c217&#45;&gt;10.152.183.10:53#ServerID_OuterContainerID</title>
<path fill="none" stroke="black" d="M1014.41,-226.105C1042.69,-243.379 1089.53,-269.03 1134,-280 1169.56,-288.773 2415.4,-319.508 2452,-321 2507.79,-323.275 2568.76,-326.212 2623.31,-329.004"/>
<polygon fill="black" stroke="black" points="2623.25,-332.505 2633.42,-329.523 2623.61,-325.515 2623.25,-332.505"/>
<text text-anchor="middle" x="1779.5" y="-291.8" font-family="Times,serif" font-size="14.00">sendto</text>
</g>
<!-- /etc/hosts#ServerID_34e86192c217 -->
<g id="node11" class="node"><title>/etc/hosts#ServerID_34e86192c217</title>
<ellipse fill="none" stroke="black" cx="514" cy="-339" rx="180.068" ry="18"/>
<text text-anchor="middle" x="514" y="-335.3" font-family="Times,serif" font-size="14.00">/etc/hosts#ServerID_34e86192c217</text>
</g>
<!-- /etc/hosts#ServerID_34e86192c217&#45;&gt;10_node#ServerID_34e86192c217 -->
<g id="edge13" class="edge"><title>/etc/hosts#ServerID_34e86192c217&#45;&gt;10_node#ServerID_34e86192c217</title>
<path fill="none" stroke="black" d="M573.074,-321.923C659.842,-298.309 821.59,-254.289 915.456,-228.743"/>
<polygon fill="black" stroke="black" points="916.43,-232.105 925.16,-226.102 914.592,-225.351 916.43,-232.105"/>
<text text-anchor="middle" x="711.5" y="-291.8" font-family="Times,serif" font-size="14.00">read</text>
</g>
<!-- /etc/resolv.conf#ServerID_34e86192c217 -->
<g id="node12" class="node"><title>/etc/resolv.conf#ServerID_34e86192c217</title>
<ellipse fill="none" stroke="black" cx="917" cy="-339" rx="205.264" ry="18"/>
<text text-anchor="middle" x="917" y="-335.3" font-family="Times,serif" font-size="14.00">/etc/resolv.conf#ServerID_34e86192c217</text>
</g>
<!-- /etc/resolv.conf#ServerID_34e86192c217&#45;&gt;10_node#ServerID_34e86192c217 -->
<g id="edge14" class="edge"><title>/etc/resolv.conf#ServerID_34e86192c217&#45;&gt;10_node#ServerID_34e86192c217</title>
<path fill="none" stroke="black" d="M926.428,-320.87C938.523,-298.895 959.615,-260.573 973.693,-234.994"/>
<polygon fill="black" stroke="black" points="976.777,-236.649 978.533,-226.201 970.645,-233.274 976.777,-236.649"/>
<text text-anchor="middle" x="961.5" y="-291.8" font-family="Times,serif" font-size="14.00">read</text>
</g>
<!-- 1_fwatchdog#ServerID_e56b6537e2d5 -->
<g id="node13" class="node"><title>1_fwatchdog#ServerID_e56b6537e2d5</title>
<polygon fill="none" stroke="black" points="6867.5,-226 6568.5,-226 6568.5,-190 6867.5,-190 6867.5,-226"/>
<text text-anchor="middle" x="6718" y="-204.3" font-family="Times,serif" font-size="14.00">1_fwatchdog#ServerID_e56b6537e2d5</text>
</g>
<!-- localhost:3000#ServerID_e56b6537e2d5 -->
<g id="node14" class="node"><title>localhost:3000#ServerID_e56b6537e2d5</title>
<polygon fill="none" stroke="black" points="6855,-139 6568.45,-121 6855,-103 7141.55,-121 6855,-139"/>
<text text-anchor="middle" x="6855" y="-117.3" font-family="Times,serif" font-size="14.00">localhost:3000#ServerID_e56b6537e2d5</text>
</g>
<!-- 1_fwatchdog#ServerID_e56b6537e2d5&#45;&gt;localhost:3000#ServerID_e56b6537e2d5 -->
<g id="edge15" class="edge"><title>1_fwatchdog#ServerID_e56b6537e2d5&#45;&gt;localhost:3000#ServerID_e56b6537e2d5</title>
<path fill="none" stroke="black" d="M6745.72,-189.799C6767.63,-176.206 6798.29,-157.185 6821.56,-142.748"/>
<polygon fill="black" stroke="black" points="6823.43,-145.707 6830.08,-137.461 6819.74,-139.759 6823.43,-145.707"/>
<text text-anchor="middle" x="6813" y="-160.8" font-family="Times,serif" font-size="14.00">write</text>
</g>
<!-- 12_node#ServerID_e56b6537e2d5 -->
<g id="node16" class="node"><title>12_node#ServerID_e56b6537e2d5</title>
<polygon fill="none" stroke="black" points="6988.5,-52 6721.5,-52 6721.5,-16 6988.5,-16 6988.5,-52"/>
<text text-anchor="middle" x="6855" y="-30.3" font-family="Times,serif" font-size="14.00">12_node#ServerID_e56b6537e2d5</text>
</g>
<!-- localhost:3000#ServerID_e56b6537e2d5&#45;&gt;12_node#ServerID_e56b6537e2d5 -->
<g id="edge18" class="edge"><title>localhost:3000#ServerID_e56b6537e2d5&#45;&gt;12_node#ServerID_e56b6537e2d5</title>
<path fill="none" stroke="black" d="M6855,-102.799C6855,-91.1626 6855,-75.5479 6855,-62.2368"/>
<polygon fill="black" stroke="black" points="6858.5,-62.1754 6855,-52.1754 6851.5,-62.1755 6858.5,-62.1754"/>
<text text-anchor="middle" x="6871.5" y="-73.8" font-family="Times,serif" font-size="14.00">read</text>
</g>
<!-- 10.1.80.247:40104#ServerID_OuterContainerID -->
<g id="node15" class="node"><title>10.1.80.247:40104#ServerID_OuterContainerID</title>
<polygon fill="none" stroke="black" points="4142,-357 3806.52,-339 4142,-321 4477.48,-339 4142,-357"/>
<text text-anchor="middle" x="4142" y="-335.3" font-family="Times,serif" font-size="14.00">10.1.80.247:40104#ServerID_OuterContainerID</text>
</g>
<!-- 10.1.80.247:40104#ServerID_OuterContainerID&#45;&gt;1_fwatchdog#ServerID_e56b6537e2d5 -->
<g id="edge17" class="edge"><title>10.1.80.247:40104#ServerID_OuterContainerID&#45;&gt;1_fwatchdog#ServerID_e56b6537e2d5</title>
<path fill="none" stroke="black" d="M4300.84,-329.502C4359.35,-326.549 4426.18,-323.383 4487,-321 4990.83,-301.258 5116.88,-297.491 5621,-288 5672.94,-287.022 6505.2,-290.87 6556,-280 6600.55,-270.467 6647.87,-248.139 6679.79,-231.047"/>
<polygon fill="black" stroke="black" points="6681.66,-234.011 6688.77,-226.156 6678.32,-227.863 6681.66,-234.011"/>
<text text-anchor="middle" x="5637.5" y="-291.8" font-family="Times,serif" font-size="14.00">read</text>
</g>
<!-- 10.1.80.247:40098#ServerID_OuterContainerID -->
<g id="node17" class="node"><title>10.1.80.247:40098#ServerID_OuterContainerID</title>
<polygon fill="none" stroke="black" points="4831,-357 4495.52,-339 4831,-321 5166.48,-339 4831,-357"/>
<text text-anchor="middle" x="4831" y="-335.3" font-family="Times,serif" font-size="14.00">10.1.80.247:40098#ServerID_OuterContainerID</text>
</g>
<!-- 10.1.80.247:40098#ServerID_OuterContainerID&#45;&gt;1_fwatchdog#ServerID_e56b6537e2d5 -->
<g id="edge19" class="edge"><title>10.1.80.247:40098#ServerID_OuterContainerID&#45;&gt;1_fwatchdog#ServerID_e56b6537e2d5</title>
<path fill="none" stroke="black" d="M4991.15,-329.571C5049.35,-326.65 5115.63,-323.487 5176,-321 5618.53,-302.767 5729.25,-299.946 6172,-288 6214.66,-286.849 6514.32,-289.186 6556,-280 6600.49,-270.194 6647.82,-247.909 6679.76,-230.902"/>
<polygon fill="black" stroke="black" points="6681.62,-233.874 6688.75,-226.037 6678.29,-227.718 6681.62,-233.874"/>
<text text-anchor="middle" x="6188.5" y="-291.8" font-family="Times,serif" font-size="14.00">read</text>
</g>
<!-- 10.1.80.247:40106#ServerID_OuterContainerID -->
<g id="node18" class="node"><title>10.1.80.247:40106#ServerID_OuterContainerID</title>
<polygon fill="none" stroke="black" points="5520,-357 5184.52,-339 5520,-321 5855.48,-339 5520,-357"/>
<text text-anchor="middle" x="5520" y="-335.3" font-family="Times,serif" font-size="14.00">10.1.80.247:40106#ServerID_OuterContainerID</text>
</g>
<!-- 10.1.80.247:40106#ServerID_OuterContainerID&#45;&gt;1_fwatchdog#ServerID_e56b6537e2d5 -->
<g id="edge20" class="edge"><title>10.1.80.247:40106#ServerID_OuterContainerID&#45;&gt;1_fwatchdog#ServerID_e56b6537e2d5</title>
<path fill="none" stroke="black" d="M5681.84,-329.677C5967.94,-314.862 6535.07,-285 6556,-280 6600.04,-269.48 6647.09,-247.525 6679.07,-230.798"/>
<polygon fill="black" stroke="black" points="6680.89,-233.793 6688.09,-226.013 6677.61,-227.61 6680.89,-233.793"/>
<text text-anchor="middle" x="6454.5" y="-291.8" font-family="Times,serif" font-size="14.00">read</text>
</g>
<!-- 10.1.80.1:13667#ServerID_OuterContainerID&#45;&gt;10.1.80.247:8080#ServerID_OuterContainerID -->
<g id="edge22" class="edge"><title>10.1.80.1:13667#ServerID_OuterContainerID&#45;&gt;10.1.80.247:8080#ServerID_OuterContainerID</title>
<path fill="none" stroke="black" d="M3568.48,-225.988C3568.15,-246.564 3564.57,-281.173 3546,-303 3540.42,-309.552 3533.43,-314.896 3525.86,-319.251"/>
<polygon fill="black" stroke="black" points="3524.05,-316.243 3516.76,-323.922 3527.25,-322.47 3524.05,-316.243"/>
<text text-anchor="middle" x="3575" y="-291.8" font-family="Times,serif" font-size="14.00">POST</text>
</g>
</g>
</svg>
