<?xml version="1.0" encoding="UTF-8" standalone="no"?>
<!DOCTYPE svg PUBLIC "-//W3C//DTD SVG 1.1//EN"
 "http://www.w3.org/Graphics/SVG/1.1/DTD/svg11.dtd">
<!-- Generated by graphviz version 2.38.0 (20140413.2041)
 -->
<!-- Title: G Pages: 1 -->
<svg width="4942pt" height="402pt"
 viewBox="0.00 0.00 4942.00 402.00" xmlns="http://www.w3.org/2000/svg" xmlns:xlink="http://www.w3.org/1999/xlink">
<g id="graph0" class="graph" transform="scale(1 1) rotate(0) translate(4 398)">
<title>G</title>
<polygon fill="white" stroke="none" points="-4,4 -4,-398 4938,-398 4938,4 -4,4"/>
<g id="clust1" class="cluster"><title>clusterServerID_34e86192c217</title>
<polygon fill="none" stroke="black" points="3379,-8 3379,-170 3980,-170 3980,-8 3379,-8"/>
<text text-anchor="middle" x="3679.5" y="-154.8" font-family="Times,serif" font-size="14.00">clusterServerID_34e86192c217</text>
</g>
<g id="clust2" class="cluster"><title>clusterServerID_5f846fd567&#45;w7nbt</title>
<polygon fill="none" stroke="black" points="3988,-95 3988,-170 4328,-170 4328,-95 3988,-95"/>
<text text-anchor="middle" x="4158" y="-154.8" font-family="Times,serif" font-size="14.00">clusterServerID_5f846fd567&#45;w7nbt</text>
</g>
<g id="clust3" class="cluster"><title>clusterServerID_6df85d7674&#45;2kqrj</title>
<polygon fill="none" stroke="black" points="822,-311 822,-386 1160,-386 1160,-311 822,-311"/>
<text text-anchor="middle" x="991" y="-370.8" font-family="Times,serif" font-size="14.00">clusterServerID_6df85d7674&#45;2kqrj</text>
</g>
<g id="clust4" class="cluster"><title>clusterServerID_OuterContainerID</title>
<polygon fill="none" stroke="black" points="8,-95 8,-278 3371,-278 3371,-95 8,-95"/>
<text text-anchor="middle" x="1689.5" y="-262.8" font-family="Times,serif" font-size="14.00">clusterServerID_OuterContainerID</text>
</g>
<g id="clust5" class="cluster"><title>clusterServerID_e56b6537e2d5</title>
<polygon fill="none" stroke="black" points="4336,-95 4336,-278 4926,-278 4926,-95 4336,-95"/>
<text text-anchor="middle" x="4631" y="-262.8" font-family="Times,serif" font-size="14.00">clusterServerID_e56b6537e2d5</text>
</g>
<!-- 1_fwatchdog#ServerID_6df85d7674&#45;2kqrj -->
<g id="node1" class="node"><title>1_fwatchdog#ServerID_6df85d7674&#45;2kqrj</title>
<polygon fill="none" stroke="black" points="1151.5,-355 830.5,-355 830.5,-319 1151.5,-319 1151.5,-355"/>
<text text-anchor="middle" x="991" y="-333.3" font-family="Times,serif" font-size="14.00">1_fwatchdog#ServerID_6df85d7674&#45;2kqrj</text>
</g>
<!-- gateway:8080#ServerID_OuterContainerID -->
<g id="node2" class="node"><title>gateway:8080#ServerID_OuterContainerID</title>
<polygon fill="none" stroke="black" points="992,-247 687.518,-229 992,-211 1296.48,-229 992,-247"/>
<text text-anchor="middle" x="992" y="-225.3" font-family="Times,serif" font-size="14.00">gateway:8080#ServerID_OuterContainerID</text>
</g>
<!-- 1_fwatchdog#ServerID_6df85d7674&#45;2kqrj&#45;&gt;gateway:8080#ServerID_OuterContainerID -->
<g id="edge1" class="edge"><title>1_fwatchdog#ServerID_6df85d7674&#45;2kqrj&#45;&gt;gateway:8080#ServerID_OuterContainerID</title>
<path fill="none" stroke="black" d="M972.041,-318.736C967.557,-313.523 963.388,-307.455 961,-301 958.687,-294.747 959.333,-292.455 961,-286 963.752,-275.348 969.011,-264.56 974.427,-255.334"/>
<polygon fill="black" stroke="black" points="977.494,-257.03 979.809,-246.692 971.552,-253.33 977.494,-257.03"/>
<text text-anchor="middle" x="981" y="-289.8" font-family="Times,serif" font-size="14.00">POST</text>
</g>
<!-- 10.1.80.247:38098#ServerID_OuterContainerID -->
<g id="node5" class="node"><title>10.1.80.247:38098#ServerID_OuterContainerID</title>
<polygon fill="none" stroke="black" points="1650,-247 1314.52,-229 1650,-211 1985.48,-229 1650,-247"/>
<text text-anchor="middle" x="1650" y="-225.3" font-family="Times,serif" font-size="14.00">10.1.80.247:38098#ServerID_OuterContainerID</text>
</g>
<!-- 1_fwatchdog#ServerID_6df85d7674&#45;2kqrj&#45;&gt;10.1.80.247:38098#ServerID_OuterContainerID -->
<g id="edge6" class="edge"><title>1_fwatchdog#ServerID_6df85d7674&#45;2kqrj&#45;&gt;10.1.80.247:38098#ServerID_OuterContainerID</title>
<path fill="none" stroke="black" d="M1096.88,-318.969C1225.34,-298.306 1439.66,-263.833 1560.34,-244.422"/>
<polygon fill="black" stroke="black" points="1560.97,-247.865 1570.29,-242.822 1559.86,-240.954 1560.97,-247.865"/>
<text text-anchor="middle" x="1343" y="-289.8" font-family="Times,serif" font-size="14.00">RESPONSE</text>
</g>
<!-- 10.1.80.247:8080#ServerID_OuterContainerID -->
<g id="node6" class="node"><title>10.1.80.247:8080#ServerID_OuterContainerID</title>
<polygon fill="none" stroke="black" points="343,-247 15.5599,-229 343,-211 670.44,-229 343,-247"/>
<text text-anchor="middle" x="343" y="-225.3" font-family="Times,serif" font-size="14.00">10.1.80.247:8080#ServerID_OuterContainerID</text>
</g>
<!-- 1_fwatchdog#ServerID_6df85d7674&#45;2kqrj&#45;&gt;10.1.80.247:8080#ServerID_OuterContainerID -->
<g id="edge7" class="edge"><title>1_fwatchdog#ServerID_6df85d7674&#45;2kqrj&#45;&gt;10.1.80.247:8080#ServerID_OuterContainerID</title>
<path fill="none" stroke="black" d="M830.124,-329.71C754.618,-324.846 663.688,-316.234 583,-301 516.291,-288.405 441.616,-264.739 393.544,-248.206"/>
<polygon fill="black" stroke="black" points="394.593,-244.865 383.999,-244.896 392.3,-251.479 394.593,-244.865"/>
<text text-anchor="middle" x="603" y="-289.8" font-family="Times,serif" font-size="14.00">POST</text>
</g>
<!-- gateway:8080#ServerID_OuterContainerID&#45;&gt;1_fwatchdog#ServerID_6df85d7674&#45;2kqrj -->
<g id="edge2" class="edge"><title>gateway:8080#ServerID_OuterContainerID&#45;&gt;1_fwatchdog#ServerID_6df85d7674&#45;2kqrj</title>
<path fill="none" stroke="black" d="M996.681,-246.944C1000.05,-261.339 1003.59,-282.543 1001,-301 1000.64,-303.574 1000.14,-306.224 999.547,-308.859"/>
<polygon fill="black" stroke="black" points="996.102,-308.198 996.955,-318.759 1002.87,-309.971 996.102,-308.198"/>
<text text-anchor="middle" x="1044" y="-289.8" font-family="Times,serif" font-size="14.00">RESPONSE</text>
</g>
<!-- 10_node#ServerID_34e86192c217 -->
<g id="node12" class="node"><title>10_node#ServerID_34e86192c217</title>
<polygon fill="none" stroke="black" points="3654.5,-139 3387.5,-139 3387.5,-103 3654.5,-103 3654.5,-139"/>
<text text-anchor="middle" x="3521" y="-117.3" font-family="Times,serif" font-size="14.00">10_node#ServerID_34e86192c217</text>
</g>
<!-- gateway:8080#ServerID_OuterContainerID&#45;&gt;10_node#ServerID_34e86192c217 -->
<g id="edge15" class="edge"><title>gateway:8080#ServerID_OuterContainerID&#45;&gt;10_node#ServerID_34e86192c217</title>
<path fill="none" stroke="black" d="M1135.78,-219.488C1189.21,-216.516 1250.36,-213.342 1306,-211 1793.79,-190.468 1915.87,-187.345 2404,-178 2457.94,-176.967 3321.77,-178.751 3375,-170 3407.85,-164.599 3443.37,-153.058 3471.15,-142.647"/>
<polygon fill="black" stroke="black" points="3472.54,-145.862 3480.63,-139.023 3470.04,-139.322 3472.54,-145.862"/>
<text text-anchor="middle" x="2420.5" y="-181.8" font-family="Times,serif" font-size="14.00">read</text>
</g>
<!-- 10.1.80.247:40098#ServerID_OuterContainerID -->
<g id="node3" class="node"><title>10.1.80.247:40098#ServerID_OuterContainerID</title>
<polygon fill="none" stroke="black" points="2339,-247 2003.52,-229 2339,-211 2674.48,-229 2339,-247"/>
<text text-anchor="middle" x="2339" y="-225.3" font-family="Times,serif" font-size="14.00">10.1.80.247:40098#ServerID_OuterContainerID</text>
</g>
<!-- 1_fwatchdog#ServerID_5f846fd567&#45;w7nbt -->
<g id="node4" class="node"><title>1_fwatchdog#ServerID_5f846fd567&#45;w7nbt</title>
<polygon fill="none" stroke="black" points="4320,-139 3996,-139 3996,-103 4320,-103 4320,-139"/>
<text text-anchor="middle" x="4158" y="-117.3" font-family="Times,serif" font-size="14.00">1_fwatchdog#ServerID_5f846fd567&#45;w7nbt</text>
</g>
<!-- 10.1.80.247:40098#ServerID_OuterContainerID&#45;&gt;1_fwatchdog#ServerID_5f846fd567&#45;w7nbt -->
<g id="edge3" class="edge"><title>10.1.80.247:40098#ServerID_OuterContainerID&#45;&gt;1_fwatchdog#ServerID_5f846fd567&#45;w7nbt</title>
<path fill="none" stroke="black" d="M2487.25,-218.937C2683.9,-207.309 3041.88,-187.507 3348,-178 3418.64,-175.806 3914.03,-179.923 3984,-170 4023.25,-164.434 4066.2,-152.646 4099.61,-142.146"/>
<polygon fill="black" stroke="black" points="4100.75,-145.457 4109.21,-139.081 4098.62,-138.788 4100.75,-145.457"/>
<text text-anchor="middle" x="3368" y="-181.8" font-family="Times,serif" font-size="14.00">POST</text>
</g>
<!-- 1_fwatchdog#ServerID_5f846fd567&#45;w7nbt&#45;&gt;10.1.80.247:40098#ServerID_OuterContainerID -->
<g id="edge4" class="edge"><title>1_fwatchdog#ServerID_5f846fd567&#45;w7nbt&#45;&gt;10.1.80.247:40098#ServerID_OuterContainerID</title>
<path fill="none" stroke="black" d="M4108.04,-139.088C4073.62,-150.039 4026.58,-163.396 3984,-170 3698.38,-214.298 2972.83,-200.193 2684,-211 2626.2,-213.163 2562.97,-216.109 2506.62,-218.942"/>
<polygon fill="black" stroke="black" points="2506.36,-215.451 2496.54,-219.451 2506.71,-222.442 2506.36,-215.451"/>
<text text-anchor="middle" x="3950" y="-181.8" font-family="Times,serif" font-size="14.00">RESPONSE</text>
</g>
<!-- 10.1.80.247:38098#ServerID_OuterContainerID&#45;&gt;1_fwatchdog#ServerID_6df85d7674&#45;2kqrj -->
<g id="edge5" class="edge"><title>10.1.80.247:38098#ServerID_OuterContainerID&#45;&gt;1_fwatchdog#ServerID_6df85d7674&#45;2kqrj</title>
<path fill="none" stroke="black" d="M1614.33,-245.104C1573.15,-261.824 1502.97,-288.111 1440,-301 1349.19,-319.59 1246.19,-328.468 1161.77,-332.642"/>
<polygon fill="black" stroke="black" points="1161.39,-329.156 1151.57,-333.128 1161.72,-336.148 1161.39,-329.156"/>
<text text-anchor="middle" x="1519" y="-289.8" font-family="Times,serif" font-size="14.00">POST</text>
</g>
<!-- 1_fwatchdog#ServerID_34e86192c217 -->
<g id="node7" class="node"><title>1_fwatchdog#ServerID_34e86192c217</title>
<polygon fill="none" stroke="black" points="3971.5,-139 3672.5,-139 3672.5,-103 3971.5,-103 3971.5,-139"/>
<text text-anchor="middle" x="3822" y="-117.3" font-family="Times,serif" font-size="14.00">1_fwatchdog#ServerID_34e86192c217</text>
</g>
<!-- 10.1.80.247:38098#ServerID_OuterContainerID&#45;&gt;1_fwatchdog#ServerID_34e86192c217 -->
<g id="edge13" class="edge"><title>10.1.80.247:38098#ServerID_OuterContainerID&#45;&gt;1_fwatchdog#ServerID_34e86192c217</title>
<path fill="none" stroke="black" d="M1810.58,-219.595C1868.68,-216.685 1934.78,-213.523 1995,-211 2419.77,-193.204 2525.97,-187.722 2951,-178 3030.1,-176.191 3584.8,-181.996 3663,-170 3698.75,-164.516 3737.63,-152.884 3768,-142.444"/>
<polygon fill="black" stroke="black" points="3769.26,-145.711 3777.55,-139.106 3766.95,-139.103 3769.26,-145.711"/>
<text text-anchor="middle" x="2967.5" y="-181.8" font-family="Times,serif" font-size="14.00">read</text>
</g>
<!-- 10.1.80.247:8080#ServerID_OuterContainerID&#45;&gt;1_fwatchdog#ServerID_6df85d7674&#45;2kqrj -->
<g id="edge8" class="edge"><title>10.1.80.247:8080#ServerID_OuterContainerID&#45;&gt;1_fwatchdog#ServerID_6df85d7674&#45;2kqrj</title>
<path fill="none" stroke="black" d="M420.9,-242.743C534.351,-261.301 745.759,-295.883 876.812,-317.321"/>
<polygon fill="black" stroke="black" points="876.454,-320.809 886.888,-318.969 877.584,-313.901 876.454,-320.809"/>
<text text-anchor="middle" x="805" y="-289.8" font-family="Times,serif" font-size="14.00">RESPONSE</text>
</g>
<!-- 10.1.80.1:1479#ServerID_OuterContainerID -->
<g id="node13" class="node"><title>10.1.80.1:1479#ServerID_OuterContainerID</title>
<polygon fill="none" stroke="black" points="327,-139 16.1496,-121 327,-103 637.85,-121 327,-139"/>
<text text-anchor="middle" x="327" y="-117.3" font-family="Times,serif" font-size="14.00">10.1.80.1:1479#ServerID_OuterContainerID</text>
</g>
<!-- 10.1.80.247:8080#ServerID_OuterContainerID&#45;&gt;10.1.80.1:1479#ServerID_OuterContainerID -->
<g id="edge17" class="edge"><title>10.1.80.247:8080#ServerID_OuterContainerID&#45;&gt;10.1.80.1:1479#ServerID_OuterContainerID</title>
<path fill="none" stroke="black" d="M343.586,-210.912C343.755,-205.216 343.917,-198.835 344,-193 344.095,-186.334 344.979,-184.594 344,-178 342.548,-168.215 339.741,-157.773 336.82,-148.589"/>
<polygon fill="black" stroke="black" points="340.051,-147.216 333.541,-138.857 333.418,-149.451 340.051,-147.216"/>
<text text-anchor="middle" x="387" y="-181.8" font-family="Times,serif" font-size="14.00">RESPONSE</text>
</g>
<!-- 10.0.88.125:31112#ServerID_OuterContainerID -->
<g id="node14" class="node"><title>10.0.88.125:31112#ServerID_OuterContainerID</title>
<polygon fill="none" stroke="black" points="991,-139 655.515,-121 991,-103 1326.48,-121 991,-139"/>
<text text-anchor="middle" x="991" y="-117.3" font-family="Times,serif" font-size="14.00">10.0.88.125:31112#ServerID_OuterContainerID</text>
</g>
<!-- 10.1.80.247:8080#ServerID_OuterContainerID&#45;&gt;10.0.88.125:31112#ServerID_OuterContainerID -->
<g id="edge19" class="edge"><title>10.1.80.247:8080#ServerID_OuterContainerID&#45;&gt;10.0.88.125:31112#ServerID_OuterContainerID</title>
<path fill="none" stroke="black" d="M420.842,-215.267C542.066,-195.437 775.229,-157.296 902.61,-136.459"/>
<polygon fill="black" stroke="black" points="903.418,-139.873 912.722,-134.805 902.288,-132.965 903.418,-139.873"/>
<text text-anchor="middle" x="690" y="-181.8" font-family="Times,serif" font-size="14.00">RESPONSE</text>
</g>
<!-- localhost:3000#ServerID_34e86192c217 -->
<g id="node8" class="node"><title>localhost:3000#ServerID_34e86192c217</title>
<polygon fill="none" stroke="black" points="3685,-52 3398.45,-34 3685,-16 3971.55,-34 3685,-52"/>
<text text-anchor="middle" x="3685" y="-30.3" font-family="Times,serif" font-size="14.00">localhost:3000#ServerID_34e86192c217</text>
</g>
<!-- 1_fwatchdog#ServerID_34e86192c217&#45;&gt;localhost:3000#ServerID_34e86192c217 -->
<g id="edge9" class="edge"><title>1_fwatchdog#ServerID_34e86192c217&#45;&gt;localhost:3000#ServerID_34e86192c217</title>
<path fill="none" stroke="black" d="M3719.37,-102.996C3702.47,-98.1695 3688.62,-92.2131 3683,-85 3677.97,-78.5441 3676.91,-70.0675 3677.58,-61.9322"/>
<polygon fill="black" stroke="black" points="3681.05,-62.4184 3679.19,-51.9876 3674.14,-61.2998 3681.05,-62.4184"/>
<text text-anchor="middle" x="3712" y="-73.8" font-family="Times,serif" font-size="14.00">connect</text>
</g>
<!-- 1_fwatchdog#ServerID_34e86192c217&#45;&gt;localhost:3000#ServerID_34e86192c217 -->
<g id="edge11" class="edge"><title>1_fwatchdog#ServerID_34e86192c217&#45;&gt;localhost:3000#ServerID_34e86192c217</title>
<path fill="none" stroke="black" d="M3789.57,-102.935C3779.87,-97.5028 3769.34,-91.2683 3760,-85 3751.07,-79.0043 3749.8,-76.1937 3741,-70 3734.28,-65.2664 3726.93,-60.4381 3719.83,-55.9397"/>
<polygon fill="black" stroke="black" points="3721.37,-52.7773 3711.03,-50.45 3717.66,-58.715 3721.37,-52.7773"/>
<text text-anchor="middle" x="3779" y="-73.8" font-family="Times,serif" font-size="14.00">write</text>
</g>
<!-- localhost:3000#ServerID_34e86192c217&#45;&gt;1_fwatchdog#ServerID_34e86192c217 -->
<g id="edge10" class="edge"><title>localhost:3000#ServerID_34e86192c217&#45;&gt;1_fwatchdog#ServerID_34e86192c217</title>
<path fill="none" stroke="black" d="M3761.67,-47.184C3776.35,-52.3262 3790.65,-59.6298 3802,-70 3808.75,-76.1655 3813.26,-84.9125 3816.25,-93.3707"/>
<polygon fill="black" stroke="black" points="3812.91,-94.4116 3819.12,-102.995 3819.62,-92.412 3812.91,-94.4116"/>
<text text-anchor="middle" x="3829.5" y="-73.8" font-family="Times,serif" font-size="14.00">read</text>
</g>
<!-- localhost:3000#ServerID_e56b6537e2d5 -->
<g id="node9" class="node"><title>localhost:3000#ServerID_e56b6537e2d5</title>
<polygon fill="none" stroke="black" points="4631,-247 4344.45,-229 4631,-211 4917.55,-229 4631,-247"/>
<text text-anchor="middle" x="4631" y="-225.3" font-family="Times,serif" font-size="14.00">localhost:3000#ServerID_e56b6537e2d5</text>
</g>
<!-- 1_fwatchdog#ServerID_e56b6537e2d5 -->
<g id="node10" class="node"><title>1_fwatchdog#ServerID_e56b6537e2d5</title>
<polygon fill="none" stroke="black" points="4677.5,-139 4378.5,-139 4378.5,-103 4677.5,-103 4677.5,-139"/>
<text text-anchor="middle" x="4528" y="-117.3" font-family="Times,serif" font-size="14.00">1_fwatchdog#ServerID_e56b6537e2d5</text>
</g>
<!-- localhost:3000#ServerID_e56b6537e2d5&#45;&gt;1_fwatchdog#ServerID_e56b6537e2d5 -->
<g id="edge12" class="edge"><title>localhost:3000#ServerID_e56b6537e2d5&#45;&gt;1_fwatchdog#ServerID_e56b6537e2d5</title>
<path fill="none" stroke="black" d="M4615.36,-211.901C4598.49,-194.543 4571.44,-166.701 4551.9,-146.597"/>
<polygon fill="black" stroke="black" points="4554.3,-144.042 4544.82,-139.309 4549.28,-148.92 4554.3,-144.042"/>
<text text-anchor="middle" x="4610.5" y="-181.8" font-family="Times,serif" font-size="14.00">read</text>
</g>
<!-- 10.1.80.247:40060#ServerID_OuterContainerID -->
<g id="node11" class="node"><title>10.1.80.247:40060#ServerID_OuterContainerID</title>
<polygon fill="none" stroke="black" points="3028,-247 2692.52,-229 3028,-211 3363.48,-229 3028,-247"/>
<text text-anchor="middle" x="3028" y="-225.3" font-family="Times,serif" font-size="14.00">10.1.80.247:40060#ServerID_OuterContainerID</text>
</g>
<!-- 10.1.80.247:40060#ServerID_OuterContainerID&#45;&gt;1_fwatchdog#ServerID_e56b6537e2d5 -->
<g id="edge14" class="edge"><title>10.1.80.247:40060#ServerID_OuterContainerID&#45;&gt;1_fwatchdog#ServerID_e56b6537e2d5</title>
<path fill="none" stroke="black" d="M3256.13,-223.23C3573.3,-215.673 4131.16,-198.776 4332,-170 4375.61,-163.751 4423.68,-152.058 4461.29,-141.777"/>
<polygon fill="black" stroke="black" points="4462.41,-145.1 4471.12,-139.06 4460.55,-138.353 4462.41,-145.1"/>
<text text-anchor="middle" x="4266.5" y="-181.8" font-family="Times,serif" font-size="14.00">read</text>
</g>
<!-- 10_node#ServerID_34e86192c217&#45;&gt;gateway:8080#ServerID_OuterContainerID -->
<g id="edge16" class="edge"><title>10_node#ServerID_34e86192c217&#45;&gt;gateway:8080#ServerID_OuterContainerID</title>
<path fill="none" stroke="black" d="M3480.64,-139.062C3451.79,-150.308 3411.74,-164.025 3375,-170 3329.62,-177.38 1765.94,-176.313 1720,-178 1508.28,-185.775 1262.5,-204.729 1117.51,-216.939"/>
<polygon fill="black" stroke="black" points="1116.92,-213.477 1107.25,-217.806 1117.51,-220.452 1116.92,-213.477"/>
<text text-anchor="middle" x="1749" y="-181.8" font-family="Times,serif" font-size="14.00">connect</text>
</g>
<!-- 10.1.80.1:1479#ServerID_OuterContainerID&#45;&gt;10.1.80.247:8080#ServerID_OuterContainerID -->
<g id="edge18" class="edge"><title>10.1.80.1:1479#ServerID_OuterContainerID&#45;&gt;10.1.80.247:8080#ServerID_OuterContainerID</title>
<path fill="none" stroke="black" d="M313.197,-138.382C302.673,-152.976 291.336,-174.778 300,-193 302.216,-197.662 305.391,-201.906 309.025,-205.704"/>
<polygon fill="black" stroke="black" points="306.694,-208.314 316.449,-212.448 311.4,-203.133 306.694,-208.314"/>
<text text-anchor="middle" x="320" y="-181.8" font-family="Times,serif" font-size="14.00">POST</text>
</g>
</g>
</svg>
