<?xml version="1.0" encoding="UTF-8" standalone="no"?>
<!DOCTYPE svg PUBLIC "-//W3C//DTD SVG 1.1//EN"
 "http://www.w3.org/Graphics/SVG/1.1/DTD/svg11.dtd">
<!-- Generated by graphviz version 2.38.0 (20140413.2041)
 -->
<!-- Title: G Pages: 1 -->
<svg width="5897pt" height="558pt"
 viewBox="0.00 0.00 5897.00 558.00" xmlns="http://www.w3.org/2000/svg" xmlns:xlink="http://www.w3.org/1999/xlink">
<g id="graph0" class="graph" transform="scale(1 1) rotate(0) translate(4 554)">
<title>G</title>
<polygon fill="white" stroke="none" points="-4,4 -4,-554 5893,-554 5893,4 -4,4"/>
<g id="clust1" class="cluster"><title>clusterServerID_34e86192c217</title>
<polygon fill="none" stroke="black" points="8,-182 8,-411 1130,-411 1130,-182 8,-182"/>
<text text-anchor="middle" x="569" y="-395.8" font-family="Times,serif" font-size="14.00">clusterServerID_34e86192c217</text>
</g>
<g id="clust2" class="cluster"><title>clusterServerID_5f846fd567&#45;w7nbt</title>
<polygon fill="none" stroke="black" points="2656,-444 2656,-542 2996,-542 2996,-444 2656,-444"/>
<text text-anchor="middle" x="2826" y="-526.8" font-family="Times,serif" font-size="14.00">clusterServerID_5f846fd567&#45;w7nbt</text>
</g>
<g id="clust3" class="cluster"><title>clusterServerID_6df85d7674&#45;2kqrj</title>
<polygon fill="none" stroke="black" points="5543,-182 5543,-280 5881,-280 5881,-182 5543,-182"/>
<text text-anchor="middle" x="5712" y="-264.8" font-family="Times,serif" font-size="14.00">clusterServerID_6df85d7674&#45;2kqrj</text>
</g>
<g id="clust4" class="cluster"><title>clusterServerID_OuterContainerID</title>
<polygon fill="none" stroke="black" points="1138,-182 1138,-411 4485,-411 4485,-182 1138,-182"/>
<text text-anchor="middle" x="2811.5" y="-395.8" font-family="Times,serif" font-size="14.00">clusterServerID_OuterContainerID</text>
</g>
<g id="clust5" class="cluster"><title>clusterServerID_e56b6537e2d5</title>
<polygon fill="none" stroke="black" points="4493,-8 4493,-280 5535,-280 5535,-8 4493,-8"/>
<text text-anchor="middle" x="5014" y="-264.8" font-family="Times,serif" font-size="14.00">clusterServerID_e56b6537e2d5</text>
</g>
<!-- 10.1.80.247:40160#ServerID_OuterContainerID -->
<g id="node1" class="node"><title>10.1.80.247:40160#ServerID_OuterContainerID</title>
<polygon fill="none" stroke="black" points="2826,-357 2490.52,-339 2826,-321 3161.48,-339 2826,-357"/>
<text text-anchor="middle" x="2826" y="-335.3" font-family="Times,serif" font-size="14.00">10.1.80.247:40160#ServerID_OuterContainerID</text>
</g>
<!-- 1_fwatchdog#ServerID_5f846fd567&#45;w7nbt -->
<g id="node2" class="node"><title>1_fwatchdog#ServerID_5f846fd567&#45;w7nbt</title>
<polygon fill="none" stroke="black" points="2988,-488 2664,-488 2664,-452 2988,-452 2988,-488"/>
<text text-anchor="middle" x="2826" y="-466.3" font-family="Times,serif" font-size="14.00">1_fwatchdog#ServerID_5f846fd567&#45;w7nbt</text>
</g>
<!-- 10.1.80.247:40160#ServerID_OuterContainerID&#45;&gt;1_fwatchdog#ServerID_5f846fd567&#45;w7nbt -->
<g id="edge1" class="edge"><title>10.1.80.247:40160#ServerID_OuterContainerID&#45;&gt;1_fwatchdog#ServerID_5f846fd567&#45;w7nbt</title>
<path fill="none" stroke="black" d="M2811.59,-356.491C2799.42,-371.588 2782.91,-395.148 2776,-419 2774.14,-425.403 2772.92,-428.087 2776,-434 2778.12,-438.075 2780.96,-441.774 2784.21,-445.107"/>
<polygon fill="black" stroke="black" points="2782.04,-447.859 2791.86,-451.823 2786.66,-442.597 2782.04,-447.859"/>
<text text-anchor="middle" x="2796" y="-422.8" font-family="Times,serif" font-size="14.00">POST</text>
</g>
<!-- 1_fwatchdog#ServerID_e56b6537e2d5 -->
<g id="node13" class="node"><title>1_fwatchdog#ServerID_e56b6537e2d5</title>
<polygon fill="none" stroke="black" points="4937.5,-226 4638.5,-226 4638.5,-190 4937.5,-190 4937.5,-226"/>
<text text-anchor="middle" x="4788" y="-204.3" font-family="Times,serif" font-size="14.00">1_fwatchdog#ServerID_e56b6537e2d5</text>
</g>
<!-- 10.1.80.247:40160#ServerID_OuterContainerID&#45;&gt;1_fwatchdog#ServerID_e56b6537e2d5 -->
<g id="edge15" class="edge"><title>10.1.80.247:40160#ServerID_OuterContainerID&#45;&gt;1_fwatchdog#ServerID_e56b6537e2d5</title>
<path fill="none" stroke="black" d="M2964.75,-328.44C3142.78,-316.614 3461.22,-296.951 3734,-288 3817.85,-285.249 4405.73,-290.199 4489,-280 4570.89,-269.97 4662.95,-246.15 4723.01,-228.86"/>
<polygon fill="black" stroke="black" points="4724.11,-232.186 4732.74,-226.037 4722.16,-225.463 4724.11,-232.186"/>
<text text-anchor="middle" x="3750.5" y="-291.8" font-family="Times,serif" font-size="14.00">read</text>
</g>
<!-- 1_fwatchdog#ServerID_5f846fd567&#45;w7nbt&#45;&gt;10.1.80.247:40160#ServerID_OuterContainerID -->
<g id="edge8" class="edge"><title>1_fwatchdog#ServerID_5f846fd567&#45;w7nbt&#45;&gt;10.1.80.247:40160#ServerID_OuterContainerID</title>
<path fill="none" stroke="black" d="M2844.34,-451.642C2848.67,-446.429 2852.7,-440.384 2855,-434 2863.31,-410.942 2853.19,-384.195 2842.69,-365.141"/>
<polygon fill="black" stroke="black" points="2845.67,-363.303 2837.58,-356.455 2839.64,-366.85 2845.67,-363.303"/>
<text text-anchor="middle" x="2900" y="-422.8" font-family="Times,serif" font-size="14.00">RESPONSE</text>
</g>
<!-- 10.1.80.247:8080#ServerID_OuterContainerID -->
<g id="node3" class="node"><title>10.1.80.247:8080#ServerID_OuterContainerID</title>
<polygon fill="none" stroke="black" points="2145,-357 1817.56,-339 2145,-321 2472.44,-339 2145,-357"/>
<text text-anchor="middle" x="2145" y="-335.3" font-family="Times,serif" font-size="14.00">10.1.80.247:8080#ServerID_OuterContainerID</text>
</g>
<!-- 1_fwatchdog#ServerID_6df85d7674&#45;2kqrj -->
<g id="node4" class="node"><title>1_fwatchdog#ServerID_6df85d7674&#45;2kqrj</title>
<polygon fill="none" stroke="black" points="5872.5,-226 5551.5,-226 5551.5,-190 5872.5,-190 5872.5,-226"/>
<text text-anchor="middle" x="5712" y="-204.3" font-family="Times,serif" font-size="14.00">1_fwatchdog#ServerID_6df85d7674&#45;2kqrj</text>
</g>
<!-- 10.1.80.247:8080#ServerID_OuterContainerID&#45;&gt;1_fwatchdog#ServerID_6df85d7674&#45;2kqrj -->
<g id="edge2" class="edge"><title>10.1.80.247:8080#ServerID_OuterContainerID&#45;&gt;1_fwatchdog#ServerID_6df85d7674&#45;2kqrj</title>
<path fill="none" stroke="black" d="M2298.7,-329.407C2523.37,-317.315 2954.71,-295.875 3322,-288 3352.78,-287.34 5508.8,-286.013 5539,-280 5586.59,-270.526 5637.57,-247.916 5671.77,-230.737"/>
<polygon fill="black" stroke="black" points="5673.64,-233.713 5680.95,-226.05 5670.45,-227.478 5673.64,-233.713"/>
<text text-anchor="middle" x="3364" y="-291.8" font-family="Times,serif" font-size="14.00">RESPONSE</text>
</g>
<!-- 10.1.80.1:19031#ServerID_OuterContainerID -->
<g id="node17" class="node"><title>10.1.80.1:19031#ServerID_OuterContainerID</title>
<polygon fill="none" stroke="black" points="2082,-226 1763.1,-208 2082,-190 2400.9,-208 2082,-226"/>
<text text-anchor="middle" x="2082" y="-204.3" font-family="Times,serif" font-size="14.00">10.1.80.1:19031#ServerID_OuterContainerID</text>
</g>
<!-- 10.1.80.247:8080#ServerID_OuterContainerID&#45;&gt;10.1.80.1:19031#ServerID_OuterContainerID -->
<g id="edge21" class="edge"><title>10.1.80.247:8080#ServerID_OuterContainerID&#45;&gt;10.1.80.1:19031#ServerID_OuterContainerID</title>
<path fill="none" stroke="black" d="M2137.93,-321.211C2133.74,-311.448 2128.24,-298.948 2123,-288 2114.38,-269.996 2104.02,-250.044 2095.87,-234.696"/>
<polygon fill="black" stroke="black" points="2098.91,-232.967 2091.11,-225.793 2092.74,-236.263 2098.91,-232.967"/>
<text text-anchor="middle" x="2172" y="-291.8" font-family="Times,serif" font-size="14.00">RESPONSE</text>
</g>
<!-- 10.0.88.125:31112#ServerID_OuterContainerID -->
<g id="node18" class="node"><title>10.0.88.125:31112#ServerID_OuterContainerID</title>
<polygon fill="none" stroke="black" points="2754,-226 2418.52,-208 2754,-190 3089.48,-208 2754,-226"/>
<text text-anchor="middle" x="2754" y="-204.3" font-family="Times,serif" font-size="14.00">10.0.88.125:31112#ServerID_OuterContainerID</text>
</g>
<!-- 10.1.80.247:8080#ServerID_OuterContainerID&#45;&gt;10.0.88.125:31112#ServerID_OuterContainerID -->
<g id="edge23" class="edge"><title>10.1.80.247:8080#ServerID_OuterContainerID&#45;&gt;10.0.88.125:31112#ServerID_OuterContainerID</title>
<path fill="none" stroke="black" d="M2208.74,-324.499C2322.36,-300.43 2559.3,-250.242 2679.95,-224.685"/>
<polygon fill="black" stroke="black" points="2680.79,-228.085 2689.85,-222.589 2679.34,-221.237 2680.79,-228.085"/>
<text text-anchor="middle" x="2420" y="-291.8" font-family="Times,serif" font-size="14.00">RESPONSE</text>
</g>
<!-- 1_fwatchdog#ServerID_6df85d7674&#45;2kqrj&#45;&gt;10.1.80.247:8080#ServerID_OuterContainerID -->
<g id="edge5" class="edge"><title>1_fwatchdog#ServerID_6df85d7674&#45;2kqrj&#45;&gt;10.1.80.247:8080#ServerID_OuterContainerID</title>
<path fill="none" stroke="black" d="M5680.95,-226.057C5647.19,-243.561 5591.06,-269.652 5539,-280 5502.03,-287.348 2862.67,-286.561 2825,-288 2630.12,-295.443 2404.44,-314.014 2268.31,-326.308"/>
<polygon fill="black" stroke="black" points="2267.91,-322.83 2258.26,-327.219 2268.54,-329.802 2267.91,-322.83"/>
<text text-anchor="middle" x="2845" y="-291.8" font-family="Times,serif" font-size="14.00">POST</text>
</g>
<!-- 10.1.80.247:38172#ServerID_OuterContainerID -->
<g id="node5" class="node"><title>10.1.80.247:38172#ServerID_OuterContainerID</title>
<polygon fill="none" stroke="black" points="4142,-357 3806.52,-339 4142,-321 4477.48,-339 4142,-357"/>
<text text-anchor="middle" x="4142" y="-335.3" font-family="Times,serif" font-size="14.00">10.1.80.247:38172#ServerID_OuterContainerID</text>
</g>
<!-- 1_fwatchdog#ServerID_6df85d7674&#45;2kqrj&#45;&gt;10.1.80.247:38172#ServerID_OuterContainerID -->
<g id="edge6" class="edge"><title>1_fwatchdog#ServerID_6df85d7674&#45;2kqrj&#45;&gt;10.1.80.247:38172#ServerID_OuterContainerID</title>
<path fill="none" stroke="black" d="M5680.26,-226.049C5646.38,-243.276 5590.57,-268.89 5539,-280 5489.22,-290.723 5360.88,-286.022 5310,-288 4961.28,-301.555 4554.09,-319.457 4324.29,-329.752"/>
<polygon fill="black" stroke="black" points="4323.99,-326.262 4314.16,-330.207 4324.3,-333.255 4323.99,-326.262"/>
<text text-anchor="middle" x="5352" y="-291.8" font-family="Times,serif" font-size="14.00">RESPONSE</text>
</g>
<!-- gateway:8080#ServerID_OuterContainerID -->
<g id="node6" class="node"><title>gateway:8080#ServerID_OuterContainerID</title>
<polygon fill="none" stroke="black" points="3484,-357 3179.52,-339 3484,-321 3788.48,-339 3484,-357"/>
<text text-anchor="middle" x="3484" y="-335.3" font-family="Times,serif" font-size="14.00">gateway:8080#ServerID_OuterContainerID</text>
</g>
<!-- 1_fwatchdog#ServerID_6df85d7674&#45;2kqrj&#45;&gt;gateway:8080#ServerID_OuterContainerID -->
<g id="edge4" class="edge"><title>1_fwatchdog#ServerID_6df85d7674&#45;2kqrj&#45;&gt;gateway:8080#ServerID_OuterContainerID</title>
<path fill="none" stroke="black" d="M5680.95,-226.031C5647.18,-243.512 5591.05,-269.585 5539,-280 5499.67,-287.87 4135.07,-286.252 4095,-288 3921.25,-295.58 3720.37,-313.855 3597.78,-326.083"/>
<polygon fill="black" stroke="black" points="3597.24,-322.62 3587.63,-327.1 3597.93,-329.586 3597.24,-322.62"/>
<text text-anchor="middle" x="4115" y="-291.8" font-family="Times,serif" font-size="14.00">POST</text>
</g>
<!-- 10.1.80.247:38172#ServerID_OuterContainerID&#45;&gt;1_fwatchdog#ServerID_6df85d7674&#45;2kqrj -->
<g id="edge3" class="edge"><title>10.1.80.247:38172#ServerID_OuterContainerID&#45;&gt;1_fwatchdog#ServerID_6df85d7674&#45;2kqrj</title>
<path fill="none" stroke="black" d="M4451.96,-337.615C4799.22,-334.976 5339.59,-323.645 5539,-280 5585.96,-269.721 5636.48,-247.578 5670.72,-230.736"/>
<polygon fill="black" stroke="black" points="5672.55,-233.736 5679.94,-226.14 5669.43,-227.472 5672.55,-233.736"/>
<text text-anchor="middle" x="5496" y="-291.8" font-family="Times,serif" font-size="14.00">POST</text>
</g>
<!-- 1_fwatchdog#ServerID_34e86192c217 -->
<g id="node7" class="node"><title>1_fwatchdog#ServerID_34e86192c217</title>
<polygon fill="none" stroke="black" points="315.5,-357 16.5,-357 16.5,-321 315.5,-321 315.5,-357"/>
<text text-anchor="middle" x="166" y="-335.3" font-family="Times,serif" font-size="14.00">1_fwatchdog#ServerID_34e86192c217</text>
</g>
<!-- 10.1.80.247:38172#ServerID_OuterContainerID&#45;&gt;1_fwatchdog#ServerID_34e86192c217 -->
<g id="edge10" class="edge"><title>10.1.80.247:38172#ServerID_OuterContainerID&#45;&gt;1_fwatchdog#ServerID_34e86192c217</title>
<path fill="none" stroke="black" d="M4087.28,-354.066C4019.7,-371.823 3900.92,-400.271 3797,-411 3701.07,-420.904 419.273,-431.35 325,-411 281.596,-401.631 235.786,-379.397 204.545,-362.096"/>
<polygon fill="black" stroke="black" points="206.166,-358.992 195.735,-357.134 202.73,-365.091 206.166,-358.992"/>
<text text-anchor="middle" x="2837" y="-422.8" font-family="Times,serif" font-size="14.00">read</text>
</g>
<!-- gateway:8080#ServerID_OuterContainerID&#45;&gt;1_fwatchdog#ServerID_6df85d7674&#45;2kqrj -->
<g id="edge7" class="edge"><title>gateway:8080#ServerID_OuterContainerID&#45;&gt;1_fwatchdog#ServerID_6df85d7674&#45;2kqrj</title>
<path fill="none" stroke="black" d="M3628.17,-329.49C3681.52,-326.527 3742.5,-323.358 3798,-321 4273.35,-300.805 4392.33,-298.17 4868,-288 4905.27,-287.203 5502.47,-287.431 5539,-280 5586.4,-270.358 5637.23,-247.89 5671.43,-230.791"/>
<polygon fill="black" stroke="black" points="5673.29,-233.773 5680.63,-226.126 5670.12,-227.531 5673.29,-233.773"/>
<text text-anchor="middle" x="4910" y="-291.8" font-family="Times,serif" font-size="14.00">RESPONSE</text>
</g>
<!-- localhost:3000#ServerID_34e86192c217 -->
<g id="node8" class="node"><title>localhost:3000#ServerID_34e86192c217</title>
<polygon fill="none" stroke="black" points="303,-226 16.4457,-208 303,-190 589.554,-208 303,-226"/>
<text text-anchor="middle" x="303" y="-204.3" font-family="Times,serif" font-size="14.00">localhost:3000#ServerID_34e86192c217</text>
</g>
<!-- 1_fwatchdog#ServerID_34e86192c217&#45;&gt;localhost:3000#ServerID_34e86192c217 -->
<g id="edge9" class="edge"><title>1_fwatchdog#ServerID_34e86192c217&#45;&gt;localhost:3000#ServerID_34e86192c217</title>
<path fill="none" stroke="black" d="M184.193,-320.87C208.439,-298.039 251.427,-257.562 278.505,-232.064"/>
<polygon fill="black" stroke="black" points="281.145,-234.386 286.026,-224.983 276.346,-229.29 281.145,-234.386"/>
<text text-anchor="middle" x="238" y="-291.8" font-family="Times,serif" font-size="14.00">write</text>
</g>
<!-- /etc/hosts#ServerID_34e86192c217 -->
<g id="node9" class="node"><title>/etc/hosts#ServerID_34e86192c217</title>
<ellipse fill="none" stroke="black" cx="514" cy="-339" rx="180.068" ry="18"/>
<text text-anchor="middle" x="514" y="-335.3" font-family="Times,serif" font-size="14.00">/etc/hosts#ServerID_34e86192c217</text>
</g>
<!-- 10_node#ServerID_34e86192c217 -->
<g id="node10" class="node"><title>10_node#ServerID_34e86192c217</title>
<polygon fill="none" stroke="black" points="1121.5,-226 854.5,-226 854.5,-190 1121.5,-190 1121.5,-226"/>
<text text-anchor="middle" x="988" y="-204.3" font-family="Times,serif" font-size="14.00">10_node#ServerID_34e86192c217</text>
</g>
<!-- /etc/hosts#ServerID_34e86192c217&#45;&gt;10_node#ServerID_34e86192c217 -->
<g id="edge11" class="edge"><title>/etc/hosts#ServerID_34e86192c217&#45;&gt;10_node#ServerID_34e86192c217</title>
<path fill="none" stroke="black" d="M573.074,-321.923C659.842,-298.309 821.59,-254.289 915.456,-228.743"/>
<polygon fill="black" stroke="black" points="916.43,-232.105 925.16,-226.102 914.592,-225.351 916.43,-232.105"/>
<text text-anchor="middle" x="711.5" y="-291.8" font-family="Times,serif" font-size="14.00">read</text>
</g>
<!-- 10_node#ServerID_34e86192c217&#45;&gt;gateway:8080#ServerID_OuterContainerID -->
<g id="edge16" class="edge"><title>10_node#ServerID_34e86192c217&#45;&gt;gateway:8080#ServerID_OuterContainerID</title>
<path fill="none" stroke="black" d="M1014.39,-226.149C1042.67,-243.459 1089.5,-269.139 1134,-280 1181.4,-291.571 1963.22,-301.982 2012,-303 2526.62,-313.74 2655.58,-303.083 3170,-321 3223.32,-322.857 3281.7,-325.774 3333.5,-328.671"/>
<polygon fill="black" stroke="black" points="3333.58,-332.181 3343.76,-329.25 3333.98,-325.192 3333.58,-332.181"/>
<text text-anchor="middle" x="2041" y="-291.8" font-family="Times,serif" font-size="14.00">connect</text>
</g>
<!-- 10.152.183.10:53#ServerID_OuterContainerID -->
<g id="node12" class="node"><title>10.152.183.10:53#ServerID_OuterContainerID</title>
<polygon fill="none" stroke="black" points="1473,-357 1145.56,-339 1473,-321 1800.44,-339 1473,-357"/>
<text text-anchor="middle" x="1473" y="-335.3" font-family="Times,serif" font-size="14.00">10.152.183.10:53#ServerID_OuterContainerID</text>
</g>
<!-- 10_node#ServerID_34e86192c217&#45;&gt;10.152.183.10:53#ServerID_OuterContainerID -->
<g id="edge13" class="edge"><title>10_node#ServerID_34e86192c217&#45;&gt;10.152.183.10:53#ServerID_OuterContainerID</title>
<path fill="none" stroke="black" d="M1016.89,-226.102C1045.64,-242.369 1091.47,-266.328 1134,-280 1204.56,-302.683 1286.39,-317.005 1351.98,-325.742"/>
<polygon fill="black" stroke="black" points="1351.58,-329.219 1361.95,-327.043 1352.49,-322.278 1351.58,-329.219"/>
<text text-anchor="middle" x="1240.5" y="-291.8" font-family="Times,serif" font-size="14.00">sendto</text>
</g>
<!-- /etc/resolv.conf#ServerID_34e86192c217 -->
<g id="node11" class="node"><title>/etc/resolv.conf#ServerID_34e86192c217</title>
<ellipse fill="none" stroke="black" cx="917" cy="-339" rx="205.264" ry="18"/>
<text text-anchor="middle" x="917" y="-335.3" font-family="Times,serif" font-size="14.00">/etc/resolv.conf#ServerID_34e86192c217</text>
</g>
<!-- /etc/resolv.conf#ServerID_34e86192c217&#45;&gt;10_node#ServerID_34e86192c217 -->
<g id="edge12" class="edge"><title>/etc/resolv.conf#ServerID_34e86192c217&#45;&gt;10_node#ServerID_34e86192c217</title>
<path fill="none" stroke="black" d="M926.428,-320.87C938.523,-298.895 959.615,-260.573 973.693,-234.994"/>
<polygon fill="black" stroke="black" points="976.777,-236.649 978.533,-226.201 970.645,-233.274 976.777,-236.649"/>
<text text-anchor="middle" x="961.5" y="-291.8" font-family="Times,serif" font-size="14.00">read</text>
</g>
<!-- 10.152.183.10:53#ServerID_OuterContainerID&#45;&gt;10_node#ServerID_34e86192c217 -->
<g id="edge14" class="edge"><title>10.152.183.10:53#ServerID_OuterContainerID&#45;&gt;10_node#ServerID_34e86192c217</title>
<path fill="none" stroke="black" d="M1279.78,-331.592C1203.19,-326.713 1125.27,-318.123 1091,-303 1056.48,-287.767 1025.81,-256.24 1007.1,-233.905"/>
<polygon fill="black" stroke="black" points="1009.8,-231.675 1000.77,-226.14 1004.38,-236.101 1009.8,-231.675"/>
<text text-anchor="middle" x="1124" y="-291.8" font-family="Times,serif" font-size="14.00">recvfrom</text>
</g>
<!-- localhost:3000#ServerID_e56b6537e2d5 -->
<g id="node14" class="node"><title>localhost:3000#ServerID_e56b6537e2d5</title>
<polygon fill="none" stroke="black" points="4788,-139 4501.45,-121 4788,-103 5074.55,-121 4788,-139"/>
<text text-anchor="middle" x="4788" y="-117.3" font-family="Times,serif" font-size="14.00">localhost:3000#ServerID_e56b6537e2d5</text>
</g>
<!-- 1_fwatchdog#ServerID_e56b6537e2d5&#45;&gt;localhost:3000#ServerID_e56b6537e2d5 -->
<g id="edge17" class="edge"><title>1_fwatchdog#ServerID_e56b6537e2d5&#45;&gt;localhost:3000#ServerID_e56b6537e2d5</title>
<path fill="none" stroke="black" d="M4768.42,-189.764C4760.33,-180.482 4753.72,-168.583 4758,-157 4759.4,-153.224 4761.4,-149.58 4763.73,-146.162"/>
<polygon fill="black" stroke="black" points="4766.56,-148.214 4769.98,-138.186 4761.06,-143.893 4766.56,-148.214"/>
<text text-anchor="middle" x="4777" y="-160.8" font-family="Times,serif" font-size="14.00">write</text>
</g>
<!-- pipe:[331682317]#ServerID_e56b6537e2d5 -->
<g id="node16" class="node"><title>pipe:[331682317]#ServerID_e56b6537e2d5</title>
<ellipse fill="none" stroke="black" cx="5310" cy="-121" rx="217.162" ry="18"/>
<text text-anchor="middle" x="5310" y="-117.3" font-family="Times,serif" font-size="14.00">pipe:[331682317]#ServerID_e56b6537e2d5</text>
</g>
<!-- 1_fwatchdog#ServerID_e56b6537e2d5&#45;&gt;pipe:[331682317]#ServerID_e56b6537e2d5 -->
<g id="edge20" class="edge"><title>1_fwatchdog#ServerID_e56b6537e2d5&#45;&gt;pipe:[331682317]#ServerID_e56b6537e2d5</title>
<path fill="none" stroke="black" d="M4892.69,-189.952C4983.77,-175.121 5115.06,-153.743 5205.95,-138.943"/>
<polygon fill="black" stroke="black" points="5206.69,-142.368 5216,-137.307 5205.57,-135.459 5206.69,-142.368"/>
<text text-anchor="middle" x="5099" y="-160.8" font-family="Times,serif" font-size="14.00">write</text>
</g>
<!-- localhost:3000#ServerID_e56b6537e2d5&#45;&gt;1_fwatchdog#ServerID_e56b6537e2d5 -->
<g id="edge19" class="edge"><title>localhost:3000#ServerID_e56b6537e2d5&#45;&gt;1_fwatchdog#ServerID_e56b6537e2d5</title>
<path fill="none" stroke="black" d="M4792.68,-138.958C4794.04,-144.646 4795.33,-151.054 4796,-157 4796.84,-164.481 4796.23,-172.553 4795.03,-179.982"/>
<polygon fill="black" stroke="black" points="4791.57,-179.438 4793.05,-189.929 4798.44,-180.805 4791.57,-179.438"/>
<text text-anchor="middle" x="4812.5" y="-160.8" font-family="Times,serif" font-size="14.00">read</text>
</g>
<!-- 12_node#ServerID_e56b6537e2d5 -->
<g id="node15" class="node"><title>12_node#ServerID_e56b6537e2d5</title>
<polygon fill="none" stroke="black" points="4921.5,-52 4654.5,-52 4654.5,-16 4921.5,-16 4921.5,-52"/>
<text text-anchor="middle" x="4788" y="-30.3" font-family="Times,serif" font-size="14.00">12_node#ServerID_e56b6537e2d5</text>
</g>
<!-- localhost:3000#ServerID_e56b6537e2d5&#45;&gt;12_node#ServerID_e56b6537e2d5 -->
<g id="edge18" class="edge"><title>localhost:3000#ServerID_e56b6537e2d5&#45;&gt;12_node#ServerID_e56b6537e2d5</title>
<path fill="none" stroke="black" d="M4788,-102.799C4788,-91.1626 4788,-75.5479 4788,-62.2368"/>
<polygon fill="black" stroke="black" points="4791.5,-62.1754 4788,-52.1754 4784.5,-62.1755 4791.5,-62.1754"/>
<text text-anchor="middle" x="4804.5" y="-73.8" font-family="Times,serif" font-size="14.00">read</text>
</g>
<!-- 10.1.80.1:19031#ServerID_OuterContainerID&#45;&gt;10.1.80.247:8080#ServerID_OuterContainerID -->
<g id="edge22" class="edge"><title>10.1.80.1:19031#ServerID_OuterContainerID&#45;&gt;10.1.80.247:8080#ServerID_OuterContainerID</title>
<path fill="none" stroke="black" d="M2076.27,-225.998C2070.64,-245.963 2064.78,-279.355 2079,-303 2082.5,-308.824 2087.34,-313.731 2092.81,-317.851"/>
<polygon fill="black" stroke="black" points="2090.93,-320.798 2101.21,-323.34 2094.76,-314.939 2090.93,-320.798"/>
<text text-anchor="middle" x="2099" y="-291.8" font-family="Times,serif" font-size="14.00">POST</text>
</g>
</g>
</svg>
