<?xml version="1.0" encoding="UTF-8" standalone="no"?>
<!DOCTYPE svg PUBLIC "-//W3C//DTD SVG 1.1//EN"
 "http://www.w3.org/Graphics/SVG/1.1/DTD/svg11.dtd">
<!-- Generated by graphviz version 2.38.0 (20140413.2041)
 -->
<!-- Title: G Pages: 1 -->
<svg width="6355pt" height="645pt"
 viewBox="0.00 0.00 6355.00 645.00" xmlns="http://www.w3.org/2000/svg" xmlns:xlink="http://www.w3.org/1999/xlink">
<g id="graph0" class="graph" transform="scale(1 1) rotate(0) translate(4 641)">
<title>G</title>
<polygon fill="white" stroke="none" points="-4,4 -4,-641 6351,-641 6351,4 -4,4"/>
<g id="clust1" class="cluster"><title>clusterServerID_5f846fd567&#45;wptbp</title>
<polygon fill="none" stroke="black" points="828,-531 828,-629 1168,-629 1168,-531 828,-531"/>
<text text-anchor="middle" x="998" y="-613.8" font-family="Times,serif" font-size="14.00">clusterServerID_5f846fd567&#45;wptbp</text>
</g>
<g id="clust2" class="cluster"><title>clusterServerID_62fde1e95276</title>
<polygon fill="none" stroke="black" points="5231,-182 5231,-498 6339,-498 6339,-182 5231,-182"/>
<text text-anchor="middle" x="5785" y="-482.8" font-family="Times,serif" font-size="14.00">clusterServerID_62fde1e95276</text>
</g>
<g id="clust3" class="cluster"><title>clusterServerID_6df85d7674&#45;kxx8d</title>
<polygon fill="none" stroke="black" points="4881,-269 4881,-367 5223,-367 5223,-269 4881,-269"/>
<text text-anchor="middle" x="5052" y="-351.8" font-family="Times,serif" font-size="14.00">clusterServerID_6df85d7674&#45;kxx8d</text>
</g>
<g id="clust4" class="cluster"><title>clusterServerID_OuterContainerID</title>
<polygon fill="none" stroke="black" points="8,-269 8,-498 3304,-498 3304,-269 8,-269"/>
<text text-anchor="middle" x="1656" y="-482.8" font-family="Times,serif" font-size="14.00">clusterServerID_OuterContainerID</text>
</g>
<g id="clust5" class="cluster"><title>clusterServerID_d4490627de97</title>
<polygon fill="none" stroke="black" points="3312,-8 3312,-367 4873,-367 4873,-8 3312,-8"/>
<text text-anchor="middle" x="4092.5" y="-351.8" font-family="Times,serif" font-size="14.00">clusterServerID_d4490627de97</text>
</g>
<!-- 1_fwatchdog#ServerID_5f846fd567&#45;wptbp -->
<g id="node1" class="node"><title>1_fwatchdog#ServerID_5f846fd567&#45;wptbp</title>
<polygon fill="none" stroke="black" points="1160,-575 836,-575 836,-539 1160,-539 1160,-575"/>
<text text-anchor="middle" x="998" y="-553.3" font-family="Times,serif" font-size="14.00">1_fwatchdog#ServerID_5f846fd567&#45;wptbp</text>
</g>
<!-- 10.1.80.93:49132#ServerID_OuterContainerID -->
<g id="node2" class="node"><title>10.1.80.93:49132#ServerID_OuterContainerID</title>
<polygon fill="none" stroke="black" points="999,-444 671.56,-426 999,-408 1326.44,-426 999,-444"/>
<text text-anchor="middle" x="999" y="-422.3" font-family="Times,serif" font-size="14.00">10.1.80.93:49132#ServerID_OuterContainerID</text>
</g>
<!-- 1_fwatchdog#ServerID_5f846fd567&#45;wptbp&#45;&gt;10.1.80.93:49132#ServerID_OuterContainerID -->
<g id="edge1" class="edge"><title>1_fwatchdog#ServerID_5f846fd567&#45;wptbp&#45;&gt;10.1.80.93:49132#ServerID_OuterContainerID</title>
<path fill="none" stroke="black" d="M962.261,-538.861C955.725,-534.032 949.784,-528.108 946,-521 942.867,-515.115 944.059,-512.378 946,-506 952.151,-485.792 965.385,-466.057 977.089,-451.367"/>
<polygon fill="black" stroke="black" points="980.057,-453.27 983.738,-443.335 974.665,-448.806 980.057,-453.27"/>
<text text-anchor="middle" x="988" y="-509.8" font-family="Times,serif" font-size="14.00">RESPONSE</text>
</g>
<!-- 10.1.80.93:49132#ServerID_OuterContainerID&#45;&gt;1_fwatchdog#ServerID_5f846fd567&#45;wptbp -->
<g id="edge5" class="edge"><title>10.1.80.93:49132#ServerID_OuterContainerID&#45;&gt;1_fwatchdog#ServerID_5f846fd567&#45;wptbp</title>
<path fill="none" stroke="black" d="M1011.4,-443.484C1024.03,-462.397 1040.39,-494.248 1030,-521 1028.64,-524.507 1026.74,-527.876 1024.55,-531.046"/>
<polygon fill="black" stroke="black" points="1021.75,-528.944 1018.2,-538.928 1027.2,-533.335 1021.75,-528.944"/>
<text text-anchor="middle" x="1054" y="-509.8" font-family="Times,serif" font-size="14.00">POST</text>
</g>
<!-- 1_fwatchdog#ServerID_d4490627de97 -->
<g id="node14" class="node"><title>1_fwatchdog#ServerID_d4490627de97</title>
<polygon fill="none" stroke="black" points="4284.5,-313 3985.5,-313 3985.5,-277 4284.5,-277 4284.5,-313"/>
<text text-anchor="middle" x="4135" y="-291.3" font-family="Times,serif" font-size="14.00">1_fwatchdog#ServerID_d4490627de97</text>
</g>
<!-- 10.1.80.93:49132#ServerID_OuterContainerID&#45;&gt;1_fwatchdog#ServerID_d4490627de97 -->
<g id="edge18" class="edge"><title>10.1.80.93:49132#ServerID_OuterContainerID&#45;&gt;1_fwatchdog#ServerID_d4490627de97</title>
<path fill="none" stroke="black" d="M1077.86,-412.329C1158.54,-400.037 1287.63,-382.215 1400,-375 1611.57,-361.416 3096.21,-376.519 3308,-367 3540.49,-356.55 3808.76,-331.03 3975.15,-313.612"/>
<polygon fill="black" stroke="black" points="3975.88,-317.054 3985.46,-312.529 3975.15,-310.092 3975.88,-317.054"/>
<text text-anchor="middle" x="1416.5" y="-378.8" font-family="Times,serif" font-size="14.00">read</text>
</g>
<!-- gateway:8080#ServerID_OuterContainerID -->
<g id="node3" class="node"><title>gateway:8080#ServerID_OuterContainerID</title>
<polygon fill="none" stroke="black" points="2320,-444 2015.52,-426 2320,-408 2624.48,-426 2320,-444"/>
<text text-anchor="middle" x="2320" y="-422.3" font-family="Times,serif" font-size="14.00">gateway:8080#ServerID_OuterContainerID</text>
</g>
<!-- 1_fwatchdog#ServerID_6df85d7674&#45;kxx8d -->
<g id="node4" class="node"><title>1_fwatchdog#ServerID_6df85d7674&#45;kxx8d</title>
<polygon fill="none" stroke="black" points="5215,-313 4889,-313 4889,-277 5215,-277 5215,-313"/>
<text text-anchor="middle" x="5052" y="-291.3" font-family="Times,serif" font-size="14.00">1_fwatchdog#ServerID_6df85d7674&#45;kxx8d</text>
</g>
<!-- gateway:8080#ServerID_OuterContainerID&#45;&gt;1_fwatchdog#ServerID_6df85d7674&#45;kxx8d -->
<g id="edge2" class="edge"><title>gateway:8080#ServerID_OuterContainerID&#45;&gt;1_fwatchdog#ServerID_6df85d7674&#45;kxx8d</title>
<path fill="none" stroke="black" d="M2469.65,-416.831C2521.39,-414.017 2579.74,-410.857 2633,-408 2909.88,-393.148 2978.84,-383.02 3256,-375 3301.01,-373.698 4832.83,-375.733 4877,-367 4925.07,-357.497 4976.66,-334.892 5011.27,-317.721"/>
<polygon fill="black" stroke="black" points="5013.21,-320.663 5020.57,-313.038 5010.06,-314.412 5013.21,-320.663"/>
<text text-anchor="middle" x="3298" y="-378.8" font-family="Times,serif" font-size="14.00">RESPONSE</text>
</g>
<!-- 1_fwatchdog#ServerID_6df85d7674&#45;kxx8d&#45;&gt;gateway:8080#ServerID_OuterContainerID -->
<g id="edge3" class="edge"><title>1_fwatchdog#ServerID_6df85d7674&#45;kxx8d&#45;&gt;gateway:8080#ServerID_OuterContainerID</title>
<path fill="none" stroke="black" d="M5020.57,-313.047C4986.39,-330.543 4929.59,-356.627 4877,-367 4822.88,-377.675 2946.11,-372.481 2891,-375 2729.85,-382.367 2543.83,-400.453 2429.06,-412.729"/>
<polygon fill="black" stroke="black" points="2428.43,-409.276 2418.86,-413.824 2429.18,-416.236 2428.43,-409.276"/>
<text text-anchor="middle" x="2911" y="-378.8" font-family="Times,serif" font-size="14.00">POST</text>
</g>
<!-- 10.1.80.93:8080#ServerID_OuterContainerID -->
<g id="node5" class="node"><title>10.1.80.93:8080#ServerID_OuterContainerID</title>
<polygon fill="none" stroke="black" points="335,-444 16.1049,-426 335,-408 653.895,-426 335,-444"/>
<text text-anchor="middle" x="335" y="-422.3" font-family="Times,serif" font-size="14.00">10.1.80.93:8080#ServerID_OuterContainerID</text>
</g>
<!-- 1_fwatchdog#ServerID_6df85d7674&#45;kxx8d&#45;&gt;10.1.80.93:8080#ServerID_OuterContainerID -->
<g id="edge6" class="edge"><title>1_fwatchdog#ServerID_6df85d7674&#45;kxx8d&#45;&gt;10.1.80.93:8080#ServerID_OuterContainerID</title>
<path fill="none" stroke="black" d="M5020.57,-313.06C4986.39,-330.567 4929.6,-356.66 4877,-367 4837.55,-374.755 2022.18,-373.57 1982,-375 1884.5,-378.47 1860.47,-385.867 1763,-390 1274.48,-410.713 1151.67,-391.343 663,-408 607.205,-409.902 546.113,-412.835 491.935,-415.733"/>
<polygon fill="black" stroke="black" points="491.7,-412.241 481.902,-416.274 492.076,-419.231 491.7,-412.241"/>
<text text-anchor="middle" x="2002" y="-378.8" font-family="Times,serif" font-size="14.00">POST</text>
</g>
<!-- 10.1.80.93:35492#ServerID_OuterContainerID -->
<g id="node6" class="node"><title>10.1.80.93:35492#ServerID_OuterContainerID</title>
<polygon fill="none" stroke="black" points="1671,-444 1343.56,-426 1671,-408 1998.44,-426 1671,-444"/>
<text text-anchor="middle" x="1671" y="-422.3" font-family="Times,serif" font-size="14.00">10.1.80.93:35492#ServerID_OuterContainerID</text>
</g>
<!-- 1_fwatchdog#ServerID_6df85d7674&#45;kxx8d&#45;&gt;10.1.80.93:35492#ServerID_OuterContainerID -->
<g id="edge8" class="edge"><title>1_fwatchdog#ServerID_6df85d7674&#45;kxx8d&#45;&gt;10.1.80.93:35492#ServerID_OuterContainerID</title>
<path fill="none" stroke="black" d="M5020.57,-313.053C4986.39,-330.553 4929.6,-356.641 4877,-367 4814.48,-379.313 2646.7,-373.144 2583,-375 2510.39,-377.116 2074.45,-401.821 1832.53,-415.692"/>
<polygon fill="black" stroke="black" points="1832.01,-412.216 1822.23,-416.283 1832.41,-419.205 1832.01,-412.216"/>
<text text-anchor="middle" x="2625" y="-378.8" font-family="Times,serif" font-size="14.00">RESPONSE</text>
</g>
<!-- 10.1.80.93:8080#ServerID_OuterContainerID&#45;&gt;1_fwatchdog#ServerID_6df85d7674&#45;kxx8d -->
<g id="edge4" class="edge"><title>10.1.80.93:8080#ServerID_OuterContainerID&#45;&gt;1_fwatchdog#ServerID_6df85d7674&#45;kxx8d</title>
<path fill="none" stroke="black" d="M483.954,-416.384C540.064,-413.374 604.452,-410.201 663,-408 1005.07,-395.14 1090.99,-404.42 1433,-390 1542.44,-385.386 1569.52,-378.472 1679,-375 1723.39,-373.592 4833.42,-375.561 4877,-367 4925.08,-357.555 4976.67,-334.941 5011.28,-317.752"/>
<polygon fill="black" stroke="black" points="5013.22,-320.692 5020.57,-313.063 5010.07,-314.442 5013.22,-320.692"/>
<text text-anchor="middle" x="1721" y="-378.8" font-family="Times,serif" font-size="14.00">RESPONSE</text>
</g>
<!-- 10.1.80.1:41430#ServerID_OuterContainerID -->
<g id="node20" class="node"><title>10.1.80.1:41430#ServerID_OuterContainerID</title>
<polygon fill="none" stroke="black" points="335,-313 16.1049,-295 335,-277 653.895,-295 335,-313"/>
<text text-anchor="middle" x="335" y="-291.3" font-family="Times,serif" font-size="14.00">10.1.80.1:41430#ServerID_OuterContainerID</text>
</g>
<!-- 10.1.80.93:8080#ServerID_OuterContainerID&#45;&gt;10.1.80.1:41430#ServerID_OuterContainerID -->
<g id="edge28" class="edge"><title>10.1.80.93:8080#ServerID_OuterContainerID&#45;&gt;10.1.80.1:41430#ServerID_OuterContainerID</title>
<path fill="none" stroke="black" d="M298.241,-409.99C290.168,-404.888 282.649,-398.31 278,-390 274.745,-384.182 275.95,-381.344 278,-375 284.713,-354.224 299.15,-334.313 311.814,-319.677"/>
<polygon fill="black" stroke="black" points="314.527,-321.895 318.607,-312.117 309.32,-317.216 314.527,-321.895"/>
<text text-anchor="middle" x="320" y="-378.8" font-family="Times,serif" font-size="14.00">RESPONSE</text>
</g>
<!-- 10.0.88.125:31112#ServerID_OuterContainerID -->
<g id="node21" class="node"><title>10.0.88.125:31112#ServerID_OuterContainerID</title>
<polygon fill="none" stroke="black" points="1007,-313 671.515,-295 1007,-277 1342.48,-295 1007,-313"/>
<text text-anchor="middle" x="1007" y="-291.3" font-family="Times,serif" font-size="14.00">10.0.88.125:31112#ServerID_OuterContainerID</text>
</g>
<!-- 10.1.80.93:8080#ServerID_OuterContainerID&#45;&gt;10.0.88.125:31112#ServerID_OuterContainerID -->
<g id="edge29" class="edge"><title>10.1.80.93:8080#ServerID_OuterContainerID&#45;&gt;10.0.88.125:31112#ServerID_OuterContainerID</title>
<path fill="none" stroke="black" d="M410.673,-412.249C477.225,-400.884 576.671,-383.538 663,-367 756.619,-349.065 864.163,-326.562 933.724,-311.755"/>
<polygon fill="black" stroke="black" points="934.655,-315.135 943.706,-309.628 933.196,-308.289 934.655,-315.135"/>
<text text-anchor="middle" x="661" y="-378.8" font-family="Times,serif" font-size="14.00">RESPONSE</text>
</g>
<!-- 10.1.80.93:35492#ServerID_OuterContainerID&#45;&gt;1_fwatchdog#ServerID_6df85d7674&#45;kxx8d -->
<g id="edge7" class="edge"><title>10.1.80.93:35492#ServerID_OuterContainerID&#45;&gt;1_fwatchdog#ServerID_6df85d7674&#45;kxx8d</title>
<path fill="none" stroke="black" d="M1772.97,-413.574C1888.15,-401.273 2081.26,-382.465 2248,-375 2284.48,-373.367 4841.17,-374.048 4877,-367 4925.08,-357.542 4976.66,-334.93 5011.27,-317.745"/>
<polygon fill="black" stroke="black" points="5013.22,-320.686 5020.57,-313.057 5010.06,-314.435 5013.22,-320.686"/>
<text text-anchor="middle" x="2268" y="-378.8" font-family="Times,serif" font-size="14.00">POST</text>
</g>
<!-- 1_fwatchdog#ServerID_62fde1e95276 -->
<g id="node9" class="node"><title>1_fwatchdog#ServerID_62fde1e95276</title>
<polygon fill="none" stroke="black" points="6330.5,-444 6035.5,-444 6035.5,-408 6330.5,-408 6330.5,-444"/>
<text text-anchor="middle" x="6183" y="-422.3" font-family="Times,serif" font-size="14.00">1_fwatchdog#ServerID_62fde1e95276</text>
</g>
<!-- 10.1.80.93:35492#ServerID_OuterContainerID&#45;&gt;1_fwatchdog#ServerID_62fde1e95276 -->
<g id="edge13" class="edge"><title>10.1.80.93:35492#ServerID_OuterContainerID&#45;&gt;1_fwatchdog#ServerID_62fde1e95276</title>
<path fill="none" stroke="black" d="M1724.55,-441.143C1790.39,-458.905 1905.85,-487.284 2007,-498 2118.02,-509.761 5916.93,-521.817 6026,-498 6068.93,-488.626 6114.15,-466.393 6144.98,-449.093"/>
<polygon fill="black" stroke="black" points="6146.72,-452.129 6153.67,-444.131 6143.25,-446.05 6146.72,-452.129"/>
<text text-anchor="middle" x="4016" y="-509.8" font-family="Times,serif" font-size="14.00">read</text>
</g>
<!-- 15_node#ServerID_62fde1e95276 -->
<g id="node7" class="node"><title>15_node#ServerID_62fde1e95276</title>
<polygon fill="none" stroke="black" points="5520.5,-313 5257.5,-313 5257.5,-277 5520.5,-277 5520.5,-313"/>
<text text-anchor="middle" x="5389" y="-291.3" font-family="Times,serif" font-size="14.00">15_node#ServerID_62fde1e95276</text>
</g>
<!-- 15_node#ServerID_62fde1e95276&#45;&gt;gateway:8080#ServerID_OuterContainerID -->
<g id="edge20" class="edge"><title>15_node#ServerID_62fde1e95276&#45;&gt;gateway:8080#ServerID_OuterContainerID</title>
<path fill="none" stroke="black" d="M5360.07,-313.012C5328.57,-330.477 5276.1,-356.536 5227,-367 5195.32,-373.751 4093.39,-374.515 4061,-375 3902.31,-377.378 2791.59,-401.862 2633,-408 2580.49,-410.032 2523.06,-412.95 2471.89,-415.796"/>
<polygon fill="black" stroke="black" points="2471.54,-412.311 2461.75,-416.364 2471.93,-419.3 2471.54,-412.311"/>
<text text-anchor="middle" x="4090" y="-378.8" font-family="Times,serif" font-size="14.00">connect</text>
</g>
<!-- pipe:[18737782]#ServerID_62fde1e95276 -->
<g id="node8" class="node"><title>pipe:[18737782]#ServerID_62fde1e95276</title>
<ellipse fill="none" stroke="black" cx="5448" cy="-208" rx="208.763" ry="18"/>
<text text-anchor="middle" x="5448" y="-204.3" font-family="Times,serif" font-size="14.00">pipe:[18737782]#ServerID_62fde1e95276</text>
</g>
<!-- 15_node#ServerID_62fde1e95276&#45;&gt;pipe:[18737782]#ServerID_62fde1e95276 -->
<g id="edge9" class="edge"><title>15_node#ServerID_62fde1e95276&#45;&gt;pipe:[18737782]#ServerID_62fde1e95276</title>
<path fill="none" stroke="black" d="M5400.94,-276.799C5409.34,-264.702 5420.72,-248.305 5430.18,-234.667"/>
<polygon fill="black" stroke="black" points="5433.25,-236.386 5436.08,-226.175 5427.5,-232.395 5433.25,-236.386"/>
<text text-anchor="middle" x="5442" y="-247.8" font-family="Times,serif" font-size="14.00">write</text>
</g>
<!-- 10.152.183.10:53#ServerID_OuterContainerID -->
<g id="node13" class="node"><title>10.152.183.10:53#ServerID_OuterContainerID</title>
<polygon fill="none" stroke="black" points="2969,-444 2641.56,-426 2969,-408 3296.44,-426 2969,-444"/>
<text text-anchor="middle" x="2969" y="-422.3" font-family="Times,serif" font-size="14.00">10.152.183.10:53#ServerID_OuterContainerID</text>
</g>
<!-- 15_node#ServerID_62fde1e95276&#45;&gt;10.152.183.10:53#ServerID_OuterContainerID -->
<g id="edge16" class="edge"><title>15_node#ServerID_62fde1e95276&#45;&gt;10.152.183.10:53#ServerID_OuterContainerID</title>
<path fill="none" stroke="black" d="M5359.76,-313.094C5328.21,-330.493 5275.91,-356.371 5227,-367 5197.84,-373.336 4719.83,-374.345 4690,-375 4140.69,-387.071 3492.92,-407.586 3171.3,-418.195"/>
<polygon fill="black" stroke="black" points="3170.82,-414.709 3160.94,-418.537 3171.05,-421.705 3170.82,-414.709"/>
<text text-anchor="middle" x="4714.5" y="-378.8" font-family="Times,serif" font-size="14.00">sendto</text>
</g>
<!-- localhost:3000#ServerID_62fde1e95276 -->
<g id="node10" class="node"><title>localhost:3000#ServerID_62fde1e95276</title>
<polygon fill="none" stroke="black" points="6048,-313 5764.8,-295 6048,-277 6331.2,-295 6048,-313"/>
<text text-anchor="middle" x="6048" y="-291.3" font-family="Times,serif" font-size="14.00">localhost:3000#ServerID_62fde1e95276</text>
</g>
<!-- 1_fwatchdog#ServerID_62fde1e95276&#45;&gt;localhost:3000#ServerID_62fde1e95276 -->
<g id="edge10" class="edge"><title>1_fwatchdog#ServerID_62fde1e95276&#45;&gt;localhost:3000#ServerID_62fde1e95276</title>
<path fill="none" stroke="black" d="M6081.1,-407.929C6064.33,-403.107 6050.58,-397.169 6045,-390 6030.33,-371.149 6033.41,-343.148 6038.74,-322.61"/>
<polygon fill="black" stroke="black" points="6042.12,-323.499 6041.56,-312.919 6035.4,-321.543 6042.12,-323.499"/>
<text text-anchor="middle" x="6074" y="-378.8" font-family="Times,serif" font-size="14.00">connect</text>
</g>
<!-- 1_fwatchdog#ServerID_62fde1e95276&#45;&gt;localhost:3000#ServerID_62fde1e95276 -->
<g id="edge12" class="edge"><title>1_fwatchdog#ServerID_62fde1e95276&#45;&gt;localhost:3000#ServerID_62fde1e95276</title>
<path fill="none" stroke="black" d="M6147.9,-407.911C6139,-402.777 6129.76,-396.704 6122,-390 6098.59,-369.778 6077.37,-341.263 6063.71,-320.953"/>
<polygon fill="black" stroke="black" points="6066.59,-318.957 6058.17,-312.529 6060.74,-322.806 6066.59,-318.957"/>
<text text-anchor="middle" x="6141" y="-378.8" font-family="Times,serif" font-size="14.00">write</text>
</g>
<!-- localhost:3000#ServerID_62fde1e95276&#45;&gt;1_fwatchdog#ServerID_62fde1e95276 -->
<g id="edge11" class="edge"><title>localhost:3000#ServerID_62fde1e95276&#45;&gt;1_fwatchdog#ServerID_62fde1e95276</title>
<path fill="none" stroke="black" d="M6080.33,-311.065C6106.14,-324.561 6141.59,-346.595 6164,-375 6169.34,-381.766 6173.3,-390.198 6176.19,-398.199"/>
<polygon fill="black" stroke="black" points="6172.92,-399.476 6179.29,-407.945 6179.59,-397.354 6172.92,-399.476"/>
<text text-anchor="middle" x="6188.5" y="-378.8" font-family="Times,serif" font-size="14.00">read</text>
</g>
<!-- /etc/hosts#ServerID_62fde1e95276 -->
<g id="node11" class="node"><title>/etc/hosts#ServerID_62fde1e95276</title>
<ellipse fill="none" stroke="black" cx="5840" cy="-426" rx="177.369" ry="18"/>
<text text-anchor="middle" x="5840" y="-422.3" font-family="Times,serif" font-size="14.00">/etc/hosts#ServerID_62fde1e95276</text>
</g>
<!-- /etc/hosts#ServerID_62fde1e95276&#45;&gt;15_node#ServerID_62fde1e95276 -->
<g id="edge14" class="edge"><title>/etc/hosts#ServerID_62fde1e95276&#45;&gt;15_node#ServerID_62fde1e95276</title>
<path fill="none" stroke="black" d="M5783.79,-408.923C5701.4,-385.357 5547.96,-341.467 5458.57,-315.898"/>
<polygon fill="black" stroke="black" points="5459.37,-312.487 5448.79,-313.102 5457.44,-319.217 5459.37,-312.487"/>
<text text-anchor="middle" x="5722.5" y="-378.8" font-family="Times,serif" font-size="14.00">read</text>
</g>
<!-- /etc/resolv.conf#ServerID_62fde1e95276 -->
<g id="node12" class="node"><title>/etc/resolv.conf#ServerID_62fde1e95276</title>
<ellipse fill="none" stroke="black" cx="5442" cy="-426" rx="202.564" ry="18"/>
<text text-anchor="middle" x="5442" y="-422.3" font-family="Times,serif" font-size="14.00">/etc/resolv.conf#ServerID_62fde1e95276</text>
</g>
<!-- /etc/resolv.conf#ServerID_62fde1e95276&#45;&gt;15_node#ServerID_62fde1e95276 -->
<g id="edge15" class="edge"><title>/etc/resolv.conf#ServerID_62fde1e95276&#45;&gt;15_node#ServerID_62fde1e95276</title>
<path fill="none" stroke="black" d="M5434.96,-407.87C5426.01,-386.088 5410.46,-348.244 5399.96,-322.67"/>
<polygon fill="black" stroke="black" points="5403.1,-321.121 5396.07,-313.201 5396.63,-323.781 5403.1,-321.121"/>
<text text-anchor="middle" x="5443.5" y="-378.8" font-family="Times,serif" font-size="14.00">read</text>
</g>
<!-- 10.152.183.10:53#ServerID_OuterContainerID&#45;&gt;15_node#ServerID_62fde1e95276 -->
<g id="edge17" class="edge"><title>10.152.183.10:53#ServerID_OuterContainerID&#45;&gt;15_node#ServerID_62fde1e95276</title>
<path fill="none" stroke="black" d="M3225.91,-422.119C3570.35,-417.754 4200.86,-407.999 4739,-390 4956.01,-382.742 5015.59,-416.517 5227,-367 5271.08,-356.674 5318.13,-334.69 5350.1,-317.903"/>
<polygon fill="black" stroke="black" points="5351.93,-320.893 5359.11,-313.099 5348.63,-314.716 5351.93,-320.893"/>
<text text-anchor="middle" x="5224" y="-378.8" font-family="Times,serif" font-size="14.00">recvfrom</text>
</g>
<!-- localhost:3000#ServerID_d4490627de97 -->
<g id="node15" class="node"><title>localhost:3000#ServerID_d4490627de97</title>
<polygon fill="none" stroke="black" points="4135,-226 3847.11,-208 4135,-190 4422.89,-208 4135,-226"/>
<text text-anchor="middle" x="4135" y="-204.3" font-family="Times,serif" font-size="14.00">localhost:3000#ServerID_d4490627de97</text>
</g>
<!-- 1_fwatchdog#ServerID_d4490627de97&#45;&gt;localhost:3000#ServerID_d4490627de97 -->
<g id="edge19" class="edge"><title>1_fwatchdog#ServerID_d4490627de97&#45;&gt;localhost:3000#ServerID_d4490627de97</title>
<path fill="none" stroke="black" d="M4135,-276.799C4135,-265.163 4135,-249.548 4135,-236.237"/>
<polygon fill="black" stroke="black" points="4138.5,-236.175 4135,-226.175 4131.5,-236.175 4138.5,-236.175"/>
<text text-anchor="middle" x="4164" y="-247.8" font-family="Times,serif" font-size="14.00">connect</text>
</g>
<!-- 1_fwatchdog#ServerID_d4490627de97&#45;&gt;localhost:3000#ServerID_d4490627de97 -->
<g id="edge21" class="edge"><title>1_fwatchdog#ServerID_d4490627de97&#45;&gt;localhost:3000#ServerID_d4490627de97</title>
<path fill="none" stroke="black" d="M4176.69,-276.967C4190.89,-268.471 4201.51,-257.184 4194,-244 4190.83,-238.431 4186.38,-233.657 4181.34,-229.589"/>
<polygon fill="black" stroke="black" points="4183.22,-226.632 4173.02,-223.766 4179.21,-232.367 4183.22,-226.632"/>
<text text-anchor="middle" x="4216" y="-247.8" font-family="Times,serif" font-size="14.00">write</text>
</g>
<!-- pipe:[18738434]#ServerID_d4490627de97 -->
<g id="node19" class="node"><title>pipe:[18738434]#ServerID_d4490627de97</title>
<ellipse fill="none" stroke="black" cx="4653" cy="-208" rx="211.762" ry="18"/>
<text text-anchor="middle" x="4653" y="-204.3" font-family="Times,serif" font-size="14.00">pipe:[18738434]#ServerID_d4490627de97</text>
</g>
<!-- 1_fwatchdog#ServerID_d4490627de97&#45;&gt;pipe:[18738434]#ServerID_d4490627de97 -->
<g id="edge26" class="edge"><title>1_fwatchdog#ServerID_d4490627de97&#45;&gt;pipe:[18738434]#ServerID_d4490627de97</title>
<path fill="none" stroke="black" d="M4238.89,-276.952C4329.42,-262.098 4459.97,-240.676 4550.17,-225.873"/>
<polygon fill="black" stroke="black" points="4550.84,-229.31 4560.15,-224.237 4549.71,-222.402 4550.84,-229.31"/>
<text text-anchor="middle" x="4445" y="-247.8" font-family="Times,serif" font-size="14.00">write</text>
</g>
<!-- localhost:3000#ServerID_d4490627de97&#45;&gt;1_fwatchdog#ServerID_d4490627de97 -->
<g id="edge22" class="edge"><title>localhost:3000#ServerID_d4490627de97&#45;&gt;1_fwatchdog#ServerID_d4490627de97</title>
<path fill="none" stroke="black" d="M4112.47,-224.844C4106.65,-230.195 4101.15,-236.691 4098,-244 4094.24,-252.741 4097.45,-261.389 4103.28,-268.972"/>
<polygon fill="black" stroke="black" points="4101.08,-271.751 4110.43,-276.737 4106.23,-267.009 4101.08,-271.751"/>
<text text-anchor="middle" x="4114.5" y="-247.8" font-family="Times,serif" font-size="14.00">read</text>
</g>
<!-- 10_node#ServerID_d4490627de97 -->
<g id="node16" class="node"><title>10_node#ServerID_d4490627de97</title>
<polygon fill="none" stroke="black" points="3989,-139 3721,-139 3721,-103 3989,-103 3989,-139"/>
<text text-anchor="middle" x="3855" y="-117.3" font-family="Times,serif" font-size="14.00">10_node#ServerID_d4490627de97</text>
</g>
<!-- localhost:3000#ServerID_d4490627de97&#45;&gt;10_node#ServerID_d4490627de97 -->
<g id="edge24" class="edge"><title>localhost:3000#ServerID_d4490627de97&#45;&gt;10_node#ServerID_d4490627de97</title>
<path fill="none" stroke="black" d="M4088.45,-192.869C4042.72,-178.987 3972.52,-157.675 3921.04,-142.046"/>
<polygon fill="black" stroke="black" points="3921.91,-138.655 3911.33,-139.099 3919.88,-145.353 3921.91,-138.655"/>
<text text-anchor="middle" x="4028.5" y="-160.8" font-family="Times,serif" font-size="14.00">read</text>
</g>
<!-- pipe:[18738585]#ServerID_d4490627de97 -->
<g id="node17" class="node"><title>pipe:[18738585]#ServerID_d4490627de97</title>
<ellipse fill="none" stroke="black" cx="3855" cy="-34" rx="211.762" ry="18"/>
<text text-anchor="middle" x="3855" y="-30.3" font-family="Times,serif" font-size="14.00">pipe:[18738585]#ServerID_d4490627de97</text>
</g>
<!-- 10_node#ServerID_d4490627de97&#45;&gt;pipe:[18738585]#ServerID_d4490627de97 -->
<g id="edge23" class="edge"><title>10_node#ServerID_d4490627de97&#45;&gt;pipe:[18738585]#ServerID_d4490627de97</title>
<path fill="none" stroke="black" d="M3855,-102.799C3855,-91.1626 3855,-75.5479 3855,-62.2368"/>
<polygon fill="black" stroke="black" points="3858.5,-62.1754 3855,-52.1754 3851.5,-62.1755 3858.5,-62.1754"/>
<text text-anchor="middle" x="3874" y="-73.8" font-family="Times,serif" font-size="14.00">write</text>
</g>
<!-- /home/app/credentials.txt#ServerID_d4490627de97 -->
<g id="node18" class="node"><title>/home/app/credentials.txt#ServerID_d4490627de97</title>
<ellipse fill="none" stroke="black" cx="3575" cy="-208" rx="254.555" ry="18"/>
<text text-anchor="middle" x="3575" y="-204.3" font-family="Times,serif" font-size="14.00">/home/app/credentials.txt#ServerID_d4490627de97</text>
</g>
<!-- /home/app/credentials.txt#ServerID_d4490627de97&#45;&gt;10_node#ServerID_d4490627de97 -->
<g id="edge25" class="edge"><title>/home/app/credentials.txt#ServerID_d4490627de97&#45;&gt;10_node#ServerID_d4490627de97</title>
<path fill="none" stroke="black" d="M3629.65,-190.409C3675.21,-176.578 3740.28,-156.827 3788.79,-142.1"/>
<polygon fill="black" stroke="black" points="3790.01,-145.385 3798.57,-139.131 3787.98,-138.687 3790.01,-145.385"/>
<text text-anchor="middle" x="3748.5" y="-160.8" font-family="Times,serif" font-size="14.00">read</text>
</g>
<!-- 10.1.80.1:41430#ServerID_OuterContainerID&#45;&gt;10.1.80.93:8080#ServerID_OuterContainerID -->
<g id="edge27" class="edge"><title>10.1.80.1:41430#ServerID_OuterContainerID&#45;&gt;10.1.80.93:8080#ServerID_OuterContainerID</title>
<path fill="none" stroke="black" d="M347.324,-312.455C359.882,-331.341 376.175,-363.167 366,-390 364.552,-393.819 362.476,-397.488 360.074,-400.92"/>
<polygon fill="black" stroke="black" points="357.178,-398.934 353.607,-408.909 362.619,-403.339 357.178,-398.934"/>
<text text-anchor="middle" x="389" y="-378.8" font-family="Times,serif" font-size="14.00">POST</text>
</g>
</g>
</svg>
