<?xml version="1.0" encoding="UTF-8" standalone="no"?>
<!DOCTYPE svg PUBLIC "-//W3C//DTD SVG 1.1//EN"
 "http://www.w3.org/Graphics/SVG/1.1/DTD/svg11.dtd">
<!-- Generated by graphviz version 2.38.0 (20140413.2041)
 -->
<!-- Title: G Pages: 1 -->
<svg width="7513pt" height="402pt"
 viewBox="0.00 0.00 7513.00 402.00" xmlns="http://www.w3.org/2000/svg" xmlns:xlink="http://www.w3.org/1999/xlink">
<g id="graph0" class="graph" transform="scale(1 1) rotate(0) translate(4 398)">
<title>G</title>
<polygon fill="white" stroke="none" points="-4,4 -4,-398 7509,-398 7509,4 -4,4"/>
<g id="clust1" class="cluster"><title>clusterServerID_0802701be25e</title>
<polygon fill="none" stroke="black" points="6101,-95 6101,-386 7497,-386 7497,-95 6101,-95"/>
<text text-anchor="middle" x="6799" y="-370.8" font-family="Times,serif" font-size="14.00">clusterServerID_0802701be25e</text>
</g>
<g id="clust2" class="cluster"><title>clusterServerID_667d78fb58&#45;55kvm</title>
<polygon fill="none" stroke="black" points="4205,-203 4205,-278 4553,-278 4553,-203 4205,-203"/>
<text text-anchor="middle" x="4379" y="-262.8" font-family="Times,serif" font-size="14.00">clusterServerID_667d78fb58&#45;55kvm</text>
</g>
<g id="clust3" class="cluster"><title>clusterServerID_6dcbcc88d5&#45;j9zwp</title>
<polygon fill="none" stroke="black" points="2904,-203 2904,-278 3246,-278 3246,-203 2904,-203"/>
<text text-anchor="middle" x="3075" y="-262.8" font-family="Times,serif" font-size="14.00">clusterServerID_6dcbcc88d5&#45;j9zwp</text>
</g>
<g id="clust4" class="cluster"><title>clusterServerID_736074b81582</title>
<polygon fill="none" stroke="black" points="8,-8 8,-278 1411,-278 1411,-8 8,-8"/>
<text text-anchor="middle" x="709.5" y="-262.8" font-family="Times,serif" font-size="14.00">clusterServerID_736074b81582</text>
</g>
<g id="clust5" class="cluster"><title>clusterServerID_OuterContainerID</title>
<polygon fill="none" stroke="black" points="1419,-8 1419,-170 6093,-170 6093,-8 1419,-8"/>
<text text-anchor="middle" x="3756" y="-154.8" font-family="Times,serif" font-size="14.00">clusterServerID_OuterContainerID</text>
</g>
<!-- 10.1.80.93:54510#ServerID_OuterContainerID -->
<g id="node1" class="node"><title>10.1.80.93:54510#ServerID_OuterContainerID</title>
<polygon fill="none" stroke="black" points="2426,-139 2098.56,-121 2426,-103 2753.44,-121 2426,-139"/>
<text text-anchor="middle" x="2426" y="-117.3" font-family="Times,serif" font-size="14.00">10.1.80.93:54510#ServerID_OuterContainerID</text>
</g>
<!-- 1_fwatchdog#ServerID_6dcbcc88d5&#45;j9zwp -->
<g id="node2" class="node"><title>1_fwatchdog#ServerID_6dcbcc88d5&#45;j9zwp</title>
<polygon fill="none" stroke="black" points="3238,-247 2912,-247 2912,-211 3238,-211 3238,-247"/>
<text text-anchor="middle" x="3075" y="-225.3" font-family="Times,serif" font-size="14.00">1_fwatchdog#ServerID_6dcbcc88d5&#45;j9zwp</text>
</g>
<!-- 10.1.80.93:54510#ServerID_OuterContainerID&#45;&gt;1_fwatchdog#ServerID_6dcbcc88d5&#45;j9zwp -->
<g id="edge1" class="edge"><title>10.1.80.93:54510#ServerID_OuterContainerID&#45;&gt;1_fwatchdog#ServerID_6dcbcc88d5&#45;j9zwp</title>
<path fill="none" stroke="black" d="M2504.02,-134.743C2617.65,-153.301 2829.38,-187.883 2960.64,-209.321"/>
<polygon fill="black" stroke="black" points="2960.29,-212.811 2970.73,-210.969 2961.42,-205.903 2960.29,-212.811"/>
<text text-anchor="middle" x="2867" y="-181.8" font-family="Times,serif" font-size="14.00">POST</text>
</g>
<!-- 1_fwatchdog#ServerID_736074b81582 -->
<g id="node7" class="node"><title>1_fwatchdog#ServerID_736074b81582</title>
<polygon fill="none" stroke="black" points="1403,-247 1103,-247 1103,-211 1403,-211 1403,-247"/>
<text text-anchor="middle" x="1253" y="-225.3" font-family="Times,serif" font-size="14.00">1_fwatchdog#ServerID_736074b81582</text>
</g>
<!-- 10.1.80.93:54510#ServerID_OuterContainerID&#45;&gt;1_fwatchdog#ServerID_736074b81582 -->
<g id="edge12" class="edge"><title>10.1.80.93:54510#ServerID_OuterContainerID&#45;&gt;1_fwatchdog#ServerID_736074b81582</title>
<path fill="none" stroke="black" d="M2348.12,-134.764C2280.15,-145.511 2178.78,-160.596 2090,-170 1855.25,-194.868 1582.28,-211.495 1413.56,-220.348"/>
<polygon fill="black" stroke="black" points="1413.16,-216.864 1403.35,-220.881 1413.52,-223.855 1413.16,-216.864"/>
<text text-anchor="middle" x="2016.5" y="-181.8" font-family="Times,serif" font-size="14.00">read</text>
</g>
<!-- 1_fwatchdog#ServerID_6dcbcc88d5&#45;j9zwp&#45;&gt;10.1.80.93:54510#ServerID_OuterContainerID -->
<g id="edge8" class="edge"><title>1_fwatchdog#ServerID_6dcbcc88d5&#45;j9zwp&#45;&gt;10.1.80.93:54510#ServerID_OuterContainerID</title>
<path fill="none" stroke="black" d="M2911.58,-220.113C2840.63,-214.974 2756.81,-206.589 2682,-193 2610.59,-180.029 2530.24,-156.178 2478.93,-139.723"/>
<polygon fill="black" stroke="black" points="2479.97,-136.382 2469.38,-136.639 2477.82,-143.043 2479.97,-136.382"/>
<text text-anchor="middle" x="2724" y="-181.8" font-family="Times,serif" font-size="14.00">RESPONSE</text>
</g>
<!-- 10.1.80.93:8080#ServerID_OuterContainerID -->
<g id="node3" class="node"><title>10.1.80.93:8080#ServerID_OuterContainerID</title>
<polygon fill="none" stroke="black" points="3716,-139 3397.1,-121 3716,-103 4034.9,-121 3716,-139"/>
<text text-anchor="middle" x="3716" y="-117.3" font-family="Times,serif" font-size="14.00">10.1.80.93:8080#ServerID_OuterContainerID</text>
</g>
<!-- 1_fwatchdog#ServerID_6dcbcc88d5&#45;j9zwp&#45;&gt;10.1.80.93:8080#ServerID_OuterContainerID -->
<g id="edge2" class="edge"><title>1_fwatchdog#ServerID_6dcbcc88d5&#45;j9zwp&#45;&gt;10.1.80.93:8080#ServerID_OuterContainerID</title>
<path fill="none" stroke="black" d="M3238.1,-216.357C3296.93,-210.916 3363.68,-203.308 3424,-193 3505.55,-179.065 3598.11,-155.151 3656.75,-138.967"/>
<polygon fill="black" stroke="black" points="3657.88,-142.287 3666.58,-136.24 3656.01,-135.542 3657.88,-142.287"/>
<text text-anchor="middle" x="3517" y="-181.8" font-family="Times,serif" font-size="14.00">POST</text>
</g>
<!-- gateway:8080#ServerID_OuterContainerID -->
<g id="node6" class="node"><title>gateway:8080#ServerID_OuterContainerID</title>
<polygon fill="none" stroke="black" points="3075,-139 2770.52,-121 3075,-103 3379.48,-121 3075,-139"/>
<text text-anchor="middle" x="3075" y="-117.3" font-family="Times,serif" font-size="14.00">gateway:8080#ServerID_OuterContainerID</text>
</g>
<!-- 1_fwatchdog#ServerID_6dcbcc88d5&#45;j9zwp&#45;&gt;gateway:8080#ServerID_OuterContainerID -->
<g id="edge7" class="edge"><title>1_fwatchdog#ServerID_6dcbcc88d5&#45;j9zwp&#45;&gt;gateway:8080#ServerID_OuterContainerID</title>
<path fill="none" stroke="black" d="M3095.2,-210.928C3099.99,-205.716 3104.44,-199.601 3107,-193 3109.41,-186.785 3108.71,-184.443 3107,-178 3104.15,-167.286 3098.72,-156.483 3093.13,-147.263"/>
<polygon fill="black" stroke="black" points="3095.93,-145.148 3087.58,-138.633 3090.05,-148.936 3095.93,-145.148"/>
<text text-anchor="middle" x="3129" y="-181.8" font-family="Times,serif" font-size="14.00">POST</text>
</g>
<!-- 10.1.80.93:8080#ServerID_OuterContainerID&#45;&gt;1_fwatchdog#ServerID_6dcbcc88d5&#45;j9zwp -->
<g id="edge6" class="edge"><title>10.1.80.93:8080#ServerID_OuterContainerID&#45;&gt;1_fwatchdog#ServerID_6dcbcc88d5&#45;j9zwp</title>
<path fill="none" stroke="black" d="M3632.1,-134.27C3524.65,-150 3350.46,-175.55 3336,-178 3280.46,-187.407 3218.54,-199.214 3168.95,-208.992"/>
<polygon fill="black" stroke="black" points="3168.01,-205.609 3158.88,-210.982 3169.37,-212.476 3168.01,-205.609"/>
<text text-anchor="middle" x="3378" y="-181.8" font-family="Times,serif" font-size="14.00">RESPONSE</text>
</g>
<!-- 10.1.80.1:25778#ServerID_OuterContainerID -->
<g id="node21" class="node"><title>10.1.80.1:25778#ServerID_OuterContainerID</title>
<polygon fill="none" stroke="black" points="3653,-52 3334.1,-34 3653,-16 3971.9,-34 3653,-52"/>
<text text-anchor="middle" x="3653" y="-30.3" font-family="Times,serif" font-size="14.00">10.1.80.1:25778#ServerID_OuterContainerID</text>
</g>
<!-- 10.1.80.93:8080#ServerID_OuterContainerID&#45;&gt;10.1.80.1:25778#ServerID_OuterContainerID -->
<g id="edge32" class="edge"><title>10.1.80.93:8080#ServerID_OuterContainerID&#45;&gt;10.1.80.1:25778#ServerID_OuterContainerID</title>
<path fill="none" stroke="black" d="M3710.77,-103.242C3707.09,-93.0254 3701.47,-80.0459 3694,-70 3690.72,-65.5876 3686.79,-61.3571 3682.67,-57.4574"/>
<polygon fill="black" stroke="black" points="3684.98,-54.8282 3675.17,-50.8274 3680.34,-60.0728 3684.98,-54.8282"/>
<text text-anchor="middle" x="3745" y="-73.8" font-family="Times,serif" font-size="14.00">RESPONSE</text>
</g>
<!-- 10.0.88.125:31112#ServerID_OuterContainerID -->
<g id="node22" class="node"><title>10.0.88.125:31112#ServerID_OuterContainerID</title>
<polygon fill="none" stroke="black" points="4325,-52 3989.52,-34 4325,-16 4660.48,-34 4325,-52"/>
<text text-anchor="middle" x="4325" y="-30.3" font-family="Times,serif" font-size="14.00">10.0.88.125:31112#ServerID_OuterContainerID</text>
</g>
<!-- 10.1.80.93:8080#ServerID_OuterContainerID&#45;&gt;10.0.88.125:31112#ServerID_OuterContainerID -->
<g id="edge34" class="edge"><title>10.1.80.93:8080#ServerID_OuterContainerID&#45;&gt;10.0.88.125:31112#ServerID_OuterContainerID</title>
<path fill="none" stroke="black" d="M3802.93,-107.867C3915.02,-92.2225 4109.43,-65.0872 4226.76,-48.7119"/>
<polygon fill="black" stroke="black" points="4227.4,-52.1568 4236.82,-47.308 4226.43,-45.224 4227.4,-52.1568"/>
<text text-anchor="middle" x="4099" y="-73.8" font-family="Times,serif" font-size="14.00">RESPONSE</text>
</g>
<!-- 1_fwatchdog#ServerID_667d78fb58&#45;55kvm -->
<g id="node4" class="node"><title>1_fwatchdog#ServerID_667d78fb58&#45;55kvm</title>
<polygon fill="none" stroke="black" points="4545,-247 4213,-247 4213,-211 4545,-211 4545,-247"/>
<text text-anchor="middle" x="4379" y="-225.3" font-family="Times,serif" font-size="14.00">1_fwatchdog#ServerID_667d78fb58&#45;55kvm</text>
</g>
<!-- 10.1.80.93:33174#ServerID_OuterContainerID -->
<g id="node5" class="node"><title>10.1.80.93:33174#ServerID_OuterContainerID</title>
<polygon fill="none" stroke="black" points="4380,-139 4052.56,-121 4380,-103 4707.44,-121 4380,-139"/>
<text text-anchor="middle" x="4380" y="-117.3" font-family="Times,serif" font-size="14.00">10.1.80.93:33174#ServerID_OuterContainerID</text>
</g>
<!-- 1_fwatchdog#ServerID_667d78fb58&#45;55kvm&#45;&gt;10.1.80.93:33174#ServerID_OuterContainerID -->
<g id="edge3" class="edge"><title>1_fwatchdog#ServerID_667d78fb58&#45;55kvm&#45;&gt;10.1.80.93:33174#ServerID_OuterContainerID</title>
<path fill="none" stroke="black" d="M4343.26,-210.861C4336.73,-206.032 4330.78,-200.108 4327,-193 4323.87,-187.115 4324.53,-184.194 4327,-178 4332.04,-165.341 4341.45,-153.895 4350.96,-144.7"/>
<polygon fill="black" stroke="black" points="4353.48,-147.142 4358.53,-137.827 4348.77,-141.96 4353.48,-147.142"/>
<text text-anchor="middle" x="4369" y="-181.8" font-family="Times,serif" font-size="14.00">RESPONSE</text>
</g>
<!-- 10.1.80.93:33174#ServerID_OuterContainerID&#45;&gt;1_fwatchdog#ServerID_667d78fb58&#45;55kvm -->
<g id="edge4" class="edge"><title>10.1.80.93:33174#ServerID_OuterContainerID&#45;&gt;1_fwatchdog#ServerID_667d78fb58&#45;55kvm</title>
<path fill="none" stroke="black" d="M4394.86,-138.197C4406.08,-152.485 4418.4,-173.942 4411,-193 4409.64,-196.507 4407.74,-199.876 4405.55,-203.046"/>
<polygon fill="black" stroke="black" points="4402.75,-200.944 4399.2,-210.928 4408.2,-205.335 4402.75,-200.944"/>
<text text-anchor="middle" x="4434" y="-181.8" font-family="Times,serif" font-size="14.00">POST</text>
</g>
<!-- 1_fwatchdog#ServerID_0802701be25e -->
<g id="node14" class="node"><title>1_fwatchdog#ServerID_0802701be25e</title>
<polygon fill="none" stroke="black" points="6408.5,-247 6109.5,-247 6109.5,-211 6408.5,-211 6408.5,-247"/>
<text text-anchor="middle" x="6259" y="-225.3" font-family="Times,serif" font-size="14.00">1_fwatchdog#ServerID_0802701be25e</text>
</g>
<!-- 10.1.80.93:33174#ServerID_OuterContainerID&#45;&gt;1_fwatchdog#ServerID_0802701be25e -->
<g id="edge19" class="edge"><title>10.1.80.93:33174#ServerID_OuterContainerID&#45;&gt;1_fwatchdog#ServerID_0802701be25e</title>
<path fill="none" stroke="black" d="M4454.47,-134.915C4522.39,-146.15 4625.62,-161.868 4716,-170 5219.57,-215.309 5818.66,-225.338 6099.19,-227.478"/>
<polygon fill="black" stroke="black" points="6099.42,-230.979 6109.45,-227.554 6099.47,-223.98 6099.42,-230.979"/>
<text text-anchor="middle" x="5027.5" y="-181.8" font-family="Times,serif" font-size="14.00">read</text>
</g>
<!-- gateway:8080#ServerID_OuterContainerID&#45;&gt;1_fwatchdog#ServerID_6dcbcc88d5&#45;j9zwp -->
<g id="edge5" class="edge"><title>gateway:8080#ServerID_OuterContainerID&#45;&gt;1_fwatchdog#ServerID_6dcbcc88d5&#45;j9zwp</title>
<path fill="none" stroke="black" d="M3053.92,-137.91C3042.41,-147.974 3029.26,-162.069 3023,-178 3020.56,-184.205 3019.87,-187.115 3023,-193 3025.19,-197.11 3028.1,-200.823 3031.42,-204.158"/>
<polygon fill="black" stroke="black" points="3029.39,-207.021 3039.26,-210.861 3033.94,-201.701 3029.39,-207.021"/>
<text text-anchor="middle" x="3065" y="-181.8" font-family="Times,serif" font-size="14.00">RESPONSE</text>
</g>
<!-- localhost:3000#ServerID_736074b81582 -->
<g id="node8" class="node"><title>localhost:3000#ServerID_736074b81582</title>
<polygon fill="none" stroke="black" points="1114,-139 825.269,-121 1114,-103 1402.73,-121 1114,-139"/>
<text text-anchor="middle" x="1114" y="-117.3" font-family="Times,serif" font-size="14.00">localhost:3000#ServerID_736074b81582</text>
</g>
<!-- 1_fwatchdog#ServerID_736074b81582&#45;&gt;localhost:3000#ServerID_736074b81582 -->
<g id="edge9" class="edge"><title>1_fwatchdog#ServerID_736074b81582&#45;&gt;localhost:3000#ServerID_736074b81582</title>
<path fill="none" stroke="black" d="M1149.29,-210.964C1132.43,-206.151 1118.63,-200.208 1113,-193 1103.42,-180.724 1103.53,-163.273 1106.11,-148.745"/>
<polygon fill="black" stroke="black" points="1109.57,-149.319 1108.32,-138.798 1102.74,-147.801 1109.57,-149.319"/>
<text text-anchor="middle" x="1142" y="-181.8" font-family="Times,serif" font-size="14.00">connect</text>
</g>
<!-- 1_fwatchdog#ServerID_736074b81582&#45;&gt;localhost:3000#ServerID_736074b81582 -->
<g id="edge11" class="edge"><title>1_fwatchdog#ServerID_736074b81582&#45;&gt;localhost:3000#ServerID_736074b81582</title>
<path fill="none" stroke="black" d="M1218.72,-210.936C1209.13,-205.641 1198.9,-199.48 1190,-193 1170.48,-178.792 1150.62,-160.06 1136.1,-145.404"/>
<polygon fill="black" stroke="black" points="1138.52,-142.866 1129.02,-138.157 1133.51,-147.756 1138.52,-142.866"/>
<text text-anchor="middle" x="1209" y="-181.8" font-family="Times,serif" font-size="14.00">write</text>
</g>
<!-- localhost:3000#ServerID_736074b81582&#45;&gt;1_fwatchdog#ServerID_736074b81582 -->
<g id="edge10" class="edge"><title>localhost:3000#ServerID_736074b81582&#45;&gt;1_fwatchdog#ServerID_736074b81582</title>
<path fill="none" stroke="black" d="M1162.9,-136.075C1186.32,-144.905 1213.28,-158.408 1232,-178 1238.2,-184.485 1242.69,-193.067 1245.89,-201.288"/>
<polygon fill="black" stroke="black" points="1242.65,-202.628 1249.18,-210.971 1249.28,-200.377 1242.65,-202.628"/>
<text text-anchor="middle" x="1258.5" y="-181.8" font-family="Times,serif" font-size="14.00">read</text>
</g>
<!-- 10_node#ServerID_736074b81582 -->
<g id="node10" class="node"><title>10_node#ServerID_736074b81582</title>
<polygon fill="none" stroke="black" points="1339.5,-52 1070.5,-52 1070.5,-16 1339.5,-16 1339.5,-52"/>
<text text-anchor="middle" x="1205" y="-30.3" font-family="Times,serif" font-size="14.00">10_node#ServerID_736074b81582</text>
</g>
<!-- localhost:3000#ServerID_736074b81582&#45;&gt;10_node#ServerID_736074b81582 -->
<g id="edge28" class="edge"><title>localhost:3000#ServerID_736074b81582&#45;&gt;10_node#ServerID_736074b81582</title>
<path fill="none" stroke="black" d="M1131.12,-104.012C1144.62,-91.3989 1163.68,-73.5983 1179.05,-59.2349"/>
<polygon fill="black" stroke="black" points="1181.79,-61.4667 1186.71,-52.0828 1177.01,-56.3511 1181.79,-61.4667"/>
<text text-anchor="middle" x="1181.5" y="-73.8" font-family="Times,serif" font-size="14.00">read</text>
</g>
<!-- /etc/hosts#ServerID_736074b81582 -->
<g id="node9" class="node"><title>/etc/hosts#ServerID_736074b81582</title>
<ellipse fill="none" stroke="black" cx="627" cy="-121" rx="180.868" ry="18"/>
<text text-anchor="middle" x="627" y="-117.3" font-family="Times,serif" font-size="14.00">/etc/hosts#ServerID_736074b81582</text>
</g>
<!-- /etc/hosts#ServerID_736074b81582&#45;&gt;10_node#ServerID_736074b81582 -->
<g id="edge13" class="edge"><title>/etc/hosts#ServerID_736074b81582&#45;&gt;10_node#ServerID_736074b81582</title>
<path fill="none" stroke="black" d="M723.744,-105.773C821.268,-91.4312 972.248,-69.2282 1079.06,-53.5208"/>
<polygon fill="black" stroke="black" points="1079.87,-56.9393 1089.25,-52.0215 1078.85,-50.0138 1079.87,-56.9393"/>
<text text-anchor="middle" x="967.5" y="-73.8" font-family="Times,serif" font-size="14.00">read</text>
</g>
<!-- 10_node#ServerID_736074b81582&#45;&gt;gateway:8080#ServerID_OuterContainerID -->
<g id="edge17" class="edge"><title>10_node#ServerID_736074b81582&#45;&gt;gateway:8080#ServerID_OuterContainerID</title>
<path fill="none" stroke="black" d="M1339.65,-46.8812C1364.68,-48.8114 1390.62,-50.6251 1415,-52 2013.02,-85.7307 2163.96,-61.5903 2762,-95 2824.64,-98.4995 2894.22,-103.905 2951.84,-108.796"/>
<polygon fill="black" stroke="black" points="2951.82,-112.307 2962.08,-109.671 2952.42,-105.333 2951.82,-112.307"/>
<text text-anchor="middle" x="2564" y="-73.8" font-family="Times,serif" font-size="14.00">connect</text>
</g>
<!-- 10.152.183.10:53#ServerID_OuterContainerID -->
<g id="node12" class="node"><title>10.152.183.10:53#ServerID_OuterContainerID</title>
<polygon fill="none" stroke="black" points="5758,-139 5430.56,-121 5758,-103 6085.44,-121 5758,-139"/>
<text text-anchor="middle" x="5758" y="-117.3" font-family="Times,serif" font-size="14.00">10.152.183.10:53#ServerID_OuterContainerID</text>
</g>
<!-- 10_node#ServerID_736074b81582&#45;&gt;10.152.183.10:53#ServerID_OuterContainerID -->
<g id="edge15" class="edge"><title>10_node#ServerID_736074b81582&#45;&gt;10.152.183.10:53#ServerID_OuterContainerID</title>
<path fill="none" stroke="black" d="M1339.63,-47.2892C1364.66,-49.1793 1390.61,-50.8739 1415,-52 2109.86,-84.0827 2284.51,-57.4917 2980,-70 3252.48,-74.9006 3320.5,-80.9215 3593,-85 3999.41,-91.0828 5015.87,-78.8001 5422,-95 5491.49,-97.7718 5568.9,-103.361 5631.89,-108.553"/>
<polygon fill="black" stroke="black" points="5631.62,-112.042 5641.88,-109.382 5632.2,-105.066 5631.62,-112.042"/>
<text text-anchor="middle" x="3617.5" y="-73.8" font-family="Times,serif" font-size="14.00">sendto</text>
</g>
<!-- /etc/resolv.conf#ServerID_736074b81582 -->
<g id="node11" class="node"><title>/etc/resolv.conf#ServerID_736074b81582</title>
<ellipse fill="none" stroke="black" cx="222" cy="-121" rx="206.063" ry="18"/>
<text text-anchor="middle" x="222" y="-117.3" font-family="Times,serif" font-size="14.00">/etc/resolv.conf#ServerID_736074b81582</text>
</g>
<!-- /etc/resolv.conf#ServerID_736074b81582&#45;&gt;10_node#ServerID_736074b81582 -->
<g id="edge14" class="edge"><title>/etc/resolv.conf#ServerID_736074b81582&#45;&gt;10_node#ServerID_736074b81582</title>
<path fill="none" stroke="black" d="M335.726,-105.963C368.396,-102.152 404.086,-98.1981 437,-95 653.871,-73.9273 905.762,-55.375 1060.26,-44.6701"/>
<polygon fill="black" stroke="black" points="1060.56,-48.1579 1070.29,-43.9764 1060.08,-41.1745 1060.56,-48.1579"/>
<text text-anchor="middle" x="728.5" y="-73.8" font-family="Times,serif" font-size="14.00">read</text>
</g>
<!-- 10.152.183.10:53#ServerID_OuterContainerID&#45;&gt;10_node#ServerID_736074b81582 -->
<g id="edge16" class="edge"><title>10.152.183.10:53#ServerID_OuterContainerID&#45;&gt;10_node#ServerID_736074b81582</title>
<path fill="none" stroke="black" d="M5641.88,-109.34C5577.21,-103.912 5495.21,-97.8657 5422,-95 4864.2,-73.1653 3468.04,-99.4753 2910,-85 2770.78,-81.3886 2736.2,-74.3942 2597,-70 2071.87,-53.4229 1939.79,-77.2102 1415,-52 1393.85,-50.9841 1371.53,-49.5584 1349.65,-47.9602"/>
<polygon fill="black" stroke="black" points="1349.86,-44.4666 1339.63,-47.2147 1349.34,-51.4473 1349.86,-44.4666"/>
<text text-anchor="middle" x="2943" y="-73.8" font-family="Times,serif" font-size="14.00">recvfrom</text>
</g>
<!-- 11_node#ServerID_0802701be25e -->
<g id="node15" class="node"><title>11_node#ServerID_0802701be25e</title>
<polygon fill="none" stroke="black" points="6693.5,-247 6426.5,-247 6426.5,-211 6693.5,-211 6693.5,-247"/>
<text text-anchor="middle" x="6560" y="-225.3" font-family="Times,serif" font-size="14.00">11_node#ServerID_0802701be25e</text>
</g>
<!-- 10.152.183.10:53#ServerID_OuterContainerID&#45;&gt;11_node#ServerID_0802701be25e -->
<g id="edge26" class="edge"><title>10.152.183.10:53#ServerID_OuterContainerID&#45;&gt;11_node#ServerID_0802701be25e</title>
<path fill="none" stroke="black" d="M5811.75,-136.088C5879.05,-153.033 5998.14,-180.726 6102,-193 6241.1,-209.439 6277.66,-188.681 6417,-203 6432.22,-204.564 6448.26,-206.792 6463.88,-209.281"/>
<polygon fill="black" stroke="black" points="6463.63,-212.787 6474.07,-210.95 6464.77,-205.88 6463.63,-212.787"/>
<text text-anchor="middle" x="6135" y="-181.8" font-family="Times,serif" font-size="14.00">recvfrom</text>
</g>
<!-- localhost:3000#ServerID_0802701be25e -->
<g id="node13" class="node"><title>localhost:3000#ServerID_0802701be25e</title>
<polygon fill="none" stroke="black" points="6396,-355 6109.45,-337 6396,-319 6682.55,-337 6396,-355"/>
<text text-anchor="middle" x="6396" y="-333.3" font-family="Times,serif" font-size="14.00">localhost:3000#ServerID_0802701be25e</text>
</g>
<!-- localhost:3000#ServerID_0802701be25e&#45;&gt;1_fwatchdog#ServerID_0802701be25e -->
<g id="edge18" class="edge"><title>localhost:3000#ServerID_0802701be25e&#45;&gt;1_fwatchdog#ServerID_0802701be25e</title>
<path fill="none" stroke="black" d="M6392.54,-318.988C6389.64,-308.416 6384.56,-295.146 6376,-286 6361.98,-271.022 6343.12,-259.613 6324.64,-251.128"/>
<polygon fill="black" stroke="black" points="6325.9,-247.859 6315.33,-247.076 6323.1,-254.277 6325.9,-247.859"/>
<text text-anchor="middle" x="6402.5" y="-289.8" font-family="Times,serif" font-size="14.00">read</text>
</g>
<!-- localhost:3000#ServerID_0802701be25e&#45;&gt;11_node#ServerID_0802701be25e -->
<g id="edge22" class="edge"><title>localhost:3000#ServerID_0802701be25e&#45;&gt;11_node#ServerID_0802701be25e</title>
<path fill="none" stroke="black" d="M6420.2,-320.359C6447.89,-302.462 6493.47,-272.999 6525.02,-252.606"/>
<polygon fill="black" stroke="black" points="6527.03,-255.479 6533.53,-247.112 6523.23,-249.601 6527.03,-255.479"/>
<text text-anchor="middle" x="6489.5" y="-289.8" font-family="Times,serif" font-size="14.00">read</text>
</g>
<!-- 1_fwatchdog#ServerID_0802701be25e&#45;&gt;localhost:3000#ServerID_0802701be25e -->
<g id="edge20" class="edge"><title>1_fwatchdog#ServerID_0802701be25e&#45;&gt;localhost:3000#ServerID_0802701be25e</title>
<path fill="none" stroke="black" d="M6252.91,-247.092C6248.5,-262.781 6245.17,-285.827 6257,-301 6263.8,-309.72 6282.62,-316.603 6304.3,-321.874"/>
<polygon fill="black" stroke="black" points="6303.56,-325.294 6314.09,-324.109 6305.12,-318.47 6303.56,-325.294"/>
<text text-anchor="middle" x="6286" y="-289.8" font-family="Times,serif" font-size="14.00">connect</text>
</g>
<!-- 1_fwatchdog#ServerID_0802701be25e&#45;&gt;localhost:3000#ServerID_0802701be25e -->
<g id="edge21" class="edge"><title>1_fwatchdog#ServerID_0802701be25e&#45;&gt;localhost:3000#ServerID_0802701be25e</title>
<path fill="none" stroke="black" d="M6274.65,-247.022C6289.16,-262.238 6311.79,-284.6 6334,-301 6341.15,-306.281 6349.18,-311.357 6357.03,-315.927"/>
<polygon fill="black" stroke="black" points="6355.32,-318.985 6365.75,-320.855 6358.77,-312.89 6355.32,-318.985"/>
<text text-anchor="middle" x="6353" y="-289.8" font-family="Times,serif" font-size="14.00">write</text>
</g>
<!-- 11_node#ServerID_0802701be25e&#45;&gt;10.152.183.10:53#ServerID_OuterContainerID -->
<g id="edge25" class="edge"><title>11_node#ServerID_0802701be25e&#45;&gt;10.152.183.10:53#ServerID_OuterContainerID</title>
<path fill="none" stroke="black" d="M6468.22,-210.972C6451.23,-208.098 6433.6,-205.304 6417,-203 6275.38,-183.343 6238.92,-187.359 6097,-170 6013.38,-159.772 5918.45,-146.157 5850.36,-136.041"/>
<polygon fill="black" stroke="black" points="5850.49,-132.523 5840.09,-134.511 5849.46,-139.446 5850.49,-132.523"/>
<text text-anchor="middle" x="6361.5" y="-181.8" font-family="Times,serif" font-size="14.00">sendto</text>
</g>
<!-- 182.255.33.134:443#ServerID_OuterContainerID -->
<g id="node18" class="node"><title>182.255.33.134:443#ServerID_OuterContainerID</title>
<polygon fill="none" stroke="black" points="5069,-139 4725.47,-121 5069,-103 5412.53,-121 5069,-139"/>
<text text-anchor="middle" x="5069" y="-117.3" font-family="Times,serif" font-size="14.00">182.255.33.134:443#ServerID_OuterContainerID</text>
</g>
<!-- 11_node#ServerID_0802701be25e&#45;&gt;182.255.33.134:443#ServerID_OuterContainerID -->
<g id="edge27" class="edge"><title>11_node#ServerID_0802701be25e&#45;&gt;182.255.33.134:443#ServerID_OuterContainerID</title>
<path fill="none" stroke="black" d="M6475.22,-210.993C6456.14,-207.777 6435.94,-204.845 6417,-203 6312.58,-192.826 6049.86,-196.416 5945,-193 5712.45,-185.424 5653.74,-190.807 5422,-170 5332.02,-161.921 5229.8,-147.435 5158.6,-136.483"/>
<polygon fill="black" stroke="black" points="5158.74,-132.964 5148.33,-134.894 5157.68,-139.881 5158.74,-132.964"/>
<text text-anchor="middle" x="5974" y="-181.8" font-family="Times,serif" font-size="14.00">connect</text>
</g>
<!-- 11_node#ServerID_0802701be25e&#45;&gt;182.255.33.134:443#ServerID_OuterContainerID -->
<g id="edge29" class="edge"><title>11_node#ServerID_0802701be25e&#45;&gt;182.255.33.134:443#ServerID_OuterContainerID</title>
<path fill="none" stroke="black" d="M6475.99,-210.972C6456.69,-207.713 6436.2,-204.769 6417,-203 6209.64,-183.896 5687.38,-211.895 5480,-193 5360.02,-182.067 5222.38,-155.354 5140.73,-137.991"/>
<polygon fill="black" stroke="black" points="5141.07,-134.486 5130.56,-135.817 5139.61,-141.331 5141.07,-134.486"/>
<text text-anchor="middle" x="5499" y="-181.8" font-family="Times,serif" font-size="14.00">write</text>
</g>
<!-- /home/app/escape2.sh#ServerID_0802701be25e -->
<g id="node20" class="node"><title>/home/app/escape2.sh#ServerID_0802701be25e</title>
<ellipse fill="none" stroke="black" cx="6560" cy="-121" rx="237.458" ry="18"/>
<text text-anchor="middle" x="6560" y="-117.3" font-family="Times,serif" font-size="14.00">/home/app/escape2.sh#ServerID_0802701be25e</text>
</g>
<!-- 11_node#ServerID_0802701be25e&#45;&gt;/home/app/escape2.sh#ServerID_0802701be25e -->
<g id="edge31" class="edge"><title>11_node#ServerID_0802701be25e&#45;&gt;/home/app/escape2.sh#ServerID_0802701be25e</title>
<path fill="none" stroke="black" d="M6560,-210.969C6560,-194.378 6560,-168.883 6560,-149.431"/>
<polygon fill="black" stroke="black" points="6563.5,-149.341 6560,-139.341 6556.5,-149.341 6563.5,-149.341"/>
<text text-anchor="middle" x="6579" y="-181.8" font-family="Times,serif" font-size="14.00">write</text>
</g>
<!-- /etc/hosts#ServerID_0802701be25e -->
<g id="node16" class="node"><title>/etc/hosts#ServerID_0802701be25e</title>
<ellipse fill="none" stroke="black" cx="7309" cy="-337" rx="180.068" ry="18"/>
<text text-anchor="middle" x="7309" y="-333.3" font-family="Times,serif" font-size="14.00">/etc/hosts#ServerID_0802701be25e</text>
</g>
<!-- /etc/hosts#ServerID_0802701be25e&#45;&gt;11_node#ServerID_0802701be25e -->
<g id="edge23" class="edge"><title>/etc/hosts#ServerID_0802701be25e&#45;&gt;11_node#ServerID_0802701be25e</title>
<path fill="none" stroke="black" d="M7209.54,-321.924C7075.92,-303.014 6838.19,-269.37 6690.38,-248.451"/>
<polygon fill="black" stroke="black" points="6690.72,-244.965 6680.33,-247.03 6689.74,-251.896 6690.72,-244.965"/>
<text text-anchor="middle" x="7061.5" y="-289.8" font-family="Times,serif" font-size="14.00">read</text>
</g>
<!-- /etc/resolv.conf#ServerID_0802701be25e -->
<g id="node17" class="node"><title>/etc/resolv.conf#ServerID_0802701be25e</title>
<ellipse fill="none" stroke="black" cx="6906" cy="-337" rx="205.264" ry="18"/>
<text text-anchor="middle" x="6906" y="-333.3" font-family="Times,serif" font-size="14.00">/etc/resolv.conf#ServerID_0802701be25e</text>
</g>
<!-- /etc/resolv.conf#ServerID_0802701be25e&#45;&gt;11_node#ServerID_0802701be25e -->
<g id="edge24" class="edge"><title>/etc/resolv.conf#ServerID_0802701be25e&#45;&gt;11_node#ServerID_0802701be25e</title>
<path fill="none" stroke="black" d="M6852.32,-319.554C6791.11,-300.803 6691.06,-270.151 6625.36,-250.025"/>
<polygon fill="black" stroke="black" points="6626.12,-246.594 6615.53,-247.012 6624.06,-253.287 6626.12,-246.594"/>
<text text-anchor="middle" x="6800.5" y="-289.8" font-family="Times,serif" font-size="14.00">read</text>
</g>
<!-- 10.1.80.93:54538#ServerID_OuterContainerID -->
<g id="node19" class="node"><title>10.1.80.93:54538#ServerID_OuterContainerID</title>
<polygon fill="none" stroke="black" points="1754,-139 1426.56,-121 1754,-103 2081.44,-121 1754,-139"/>
<text text-anchor="middle" x="1754" y="-117.3" font-family="Times,serif" font-size="14.00">10.1.80.93:54538#ServerID_OuterContainerID</text>
</g>
<!-- 10.1.80.93:54538#ServerID_OuterContainerID&#45;&gt;1_fwatchdog#ServerID_736074b81582 -->
<g id="edge30" class="edge"><title>10.1.80.93:54538#ServerID_OuterContainerID&#45;&gt;1_fwatchdog#ServerID_736074b81582</title>
<path fill="none" stroke="black" d="M1690.01,-135.538C1602.05,-154.15 1443.31,-187.735 1343.29,-208.898"/>
<polygon fill="black" stroke="black" points="1342.55,-205.475 1333.49,-210.969 1344,-212.323 1342.55,-205.475"/>
<text text-anchor="middle" x="1505.5" y="-181.8" font-family="Times,serif" font-size="14.00">read</text>
</g>
<!-- 10.1.80.1:25778#ServerID_OuterContainerID&#45;&gt;10.1.80.93:8080#ServerID_OuterContainerID -->
<g id="edge33" class="edge"><title>10.1.80.1:25778#ServerID_OuterContainerID&#45;&gt;10.1.80.93:8080#ServerID_OuterContainerID</title>
<path fill="none" stroke="black" d="M3647.41,-51.9053C3645.07,-62.1778 3644.08,-75.1639 3650,-85 3653.5,-90.8242 3658.34,-95.7306 3663.81,-99.8509"/>
<polygon fill="black" stroke="black" points="3661.93,-102.798 3672.21,-105.34 3665.76,-96.9392 3661.93,-102.798"/>
<text text-anchor="middle" x="3670" y="-73.8" font-family="Times,serif" font-size="14.00">POST</text>
</g>
</g>
</svg>
