<?xml version="1.0" encoding="UTF-8" standalone="no"?>
<!DOCTYPE svg PUBLIC "-//W3C//DTD SVG 1.1//EN"
 "http://www.w3.org/Graphics/SVG/1.1/DTD/svg11.dtd">
<!-- Generated by graphviz version 2.38.0 (20140413.2041)
 -->
<!-- Title: G Pages: 1 -->
<svg width="5084pt" height="402pt"
 viewBox="0.00 0.00 5084.00 402.00" xmlns="http://www.w3.org/2000/svg" xmlns:xlink="http://www.w3.org/1999/xlink">
<g id="graph0" class="graph" transform="scale(1 1) rotate(0) translate(4 398)">
<title>G</title>
<polygon fill="white" stroke="none" points="-4,4 -4,-398 5080,-398 5080,4 -4,4"/>
<g id="clust1" class="cluster"><title>clusterServerID_34e86192c217</title>
<polygon fill="none" stroke="black" points="3574,-203 3574,-386 5068,-386 5068,-203 3574,-203"/>
<text text-anchor="middle" x="4321" y="-370.8" font-family="Times,serif" font-size="14.00">clusterServerID_34e86192c217</text>
</g>
<g id="clust2" class="cluster"><title>clusterServerID_5f846fd567&#45;w7nbt</title>
<polygon fill="none" stroke="black" points="1063,-311 1063,-386 1403,-386 1403,-311 1063,-311"/>
<text text-anchor="middle" x="1233" y="-370.8" font-family="Times,serif" font-size="14.00">clusterServerID_5f846fd567&#45;w7nbt</text>
</g>
<g id="clust3" class="cluster"><title>clusterServerID_6df85d7674&#45;2kqrj</title>
<polygon fill="none" stroke="black" points="3574,-95 3574,-170 3912,-170 3912,-95 3574,-95"/>
<text text-anchor="middle" x="3743" y="-154.8" font-family="Times,serif" font-size="14.00">clusterServerID_6df85d7674&#45;2kqrj</text>
</g>
<g id="clust4" class="cluster"><title>clusterServerID_OuterContainerID</title>
<polygon fill="none" stroke="black" points="891,-95 891,-278 3566,-278 3566,-95 891,-95"/>
<text text-anchor="middle" x="2228.5" y="-262.8" font-family="Times,serif" font-size="14.00">clusterServerID_OuterContainerID</text>
</g>
<g id="clust5" class="cluster"><title>clusterServerID_e56b6537e2d5</title>
<polygon fill="none" stroke="black" points="8,-8 8,-278 883,-278 883,-8 8,-8"/>
<text text-anchor="middle" x="445.5" y="-262.8" font-family="Times,serif" font-size="14.00">clusterServerID_e56b6537e2d5</text>
</g>
<!-- 10.1.80.247:46134#ServerID_OuterContainerID -->
<g id="node1" class="node"><title>10.1.80.247:46134#ServerID_OuterContainerID</title>
<polygon fill="none" stroke="black" points="2596,-247 2260.52,-229 2596,-211 2931.48,-229 2596,-247"/>
<text text-anchor="middle" x="2596" y="-225.3" font-family="Times,serif" font-size="14.00">10.1.80.247:46134#ServerID_OuterContainerID</text>
</g>
<!-- 1_fwatchdog#ServerID_6df85d7674&#45;2kqrj -->
<g id="node2" class="node"><title>1_fwatchdog#ServerID_6df85d7674&#45;2kqrj</title>
<polygon fill="none" stroke="black" points="3903.5,-139 3582.5,-139 3582.5,-103 3903.5,-103 3903.5,-139"/>
<text text-anchor="middle" x="3743" y="-117.3" font-family="Times,serif" font-size="14.00">1_fwatchdog#ServerID_6df85d7674&#45;2kqrj</text>
</g>
<!-- 10.1.80.247:46134#ServerID_OuterContainerID&#45;&gt;1_fwatchdog#ServerID_6df85d7674&#45;2kqrj -->
<g id="edge1" class="edge"><title>10.1.80.247:46134#ServerID_OuterContainerID&#45;&gt;1_fwatchdog#ServerID_6df85d7674&#45;2kqrj</title>
<path fill="none" stroke="black" d="M2726.2,-217.95C2790.78,-213.122 2869.98,-207.436 2941,-203 2945.37,-202.727 3565.68,-170.703 3570,-170 3608.19,-163.776 3650.03,-152.299 3683,-142.128"/>
<polygon fill="black" stroke="black" points="3684.43,-145.347 3692.93,-139.021 3682.34,-138.667 3684.43,-145.347"/>
<text text-anchor="middle" x="3437" y="-181.8" font-family="Times,serif" font-size="14.00">POST</text>
</g>
<!-- 1_fwatchdog#ServerID_6df85d7674&#45;2kqrj&#45;&gt;10.1.80.247:46134#ServerID_OuterContainerID -->
<g id="edge7" class="edge"><title>1_fwatchdog#ServerID_6df85d7674&#45;2kqrj&#45;&gt;10.1.80.247:46134#ServerID_OuterContainerID</title>
<path fill="none" stroke="black" d="M3694.49,-139.041C3660.2,-150.2 3612.88,-163.82 3570,-170 3457.37,-186.232 3171.58,-170.982 3058,-178 2932.92,-185.729 2789.52,-202.489 2696.1,-214.473"/>
<polygon fill="black" stroke="black" points="2695.56,-211.014 2686.09,-215.763 2696.45,-217.956 2695.56,-211.014"/>
<text text-anchor="middle" x="3100" y="-181.8" font-family="Times,serif" font-size="14.00">RESPONSE</text>
</g>
<!-- 10.1.80.247:8080#ServerID_OuterContainerID -->
<g id="node3" class="node"><title>10.1.80.247:8080#ServerID_OuterContainerID</title>
<polygon fill="none" stroke="black" points="1915,-247 1587.56,-229 1915,-211 2242.44,-229 1915,-247"/>
<text text-anchor="middle" x="1915" y="-225.3" font-family="Times,serif" font-size="14.00">10.1.80.247:8080#ServerID_OuterContainerID</text>
</g>
<!-- 1_fwatchdog#ServerID_6df85d7674&#45;2kqrj&#45;&gt;10.1.80.247:8080#ServerID_OuterContainerID -->
<g id="edge2" class="edge"><title>1_fwatchdog#ServerID_6df85d7674&#45;2kqrj&#45;&gt;10.1.80.247:8080#ServerID_OuterContainerID</title>
<path fill="none" stroke="black" d="M3694.88,-139.029C3660.56,-150.26 3613.06,-163.971 3570,-170 3511.73,-178.158 2569.77,-175.317 2511,-178 2343.56,-185.645 2150.32,-203.528 2030.38,-215.699"/>
<polygon fill="black" stroke="black" points="2029.68,-212.253 2020.08,-216.748 2030.38,-219.216 2029.68,-212.253"/>
<text text-anchor="middle" x="2531" y="-181.8" font-family="Times,serif" font-size="14.00">POST</text>
</g>
<!-- gateway:8080#ServerID_OuterContainerID -->
<g id="node4" class="node"><title>gateway:8080#ServerID_OuterContainerID</title>
<polygon fill="none" stroke="black" points="3254,-247 2949.52,-229 3254,-211 3558.48,-229 3254,-247"/>
<text text-anchor="middle" x="3254" y="-225.3" font-family="Times,serif" font-size="14.00">gateway:8080#ServerID_OuterContainerID</text>
</g>
<!-- 1_fwatchdog#ServerID_6df85d7674&#45;2kqrj&#45;&gt;gateway:8080#ServerID_OuterContainerID -->
<g id="edge8" class="edge"><title>1_fwatchdog#ServerID_6df85d7674&#45;2kqrj&#45;&gt;gateway:8080#ServerID_OuterContainerID</title>
<path fill="none" stroke="black" d="M3719.55,-139.061C3695.04,-155.909 3654.82,-180.862 3616,-193 3578.51,-204.724 3491.94,-213.32 3412.86,-219.058"/>
<polygon fill="black" stroke="black" points="3412.49,-215.576 3402.76,-219.779 3412.99,-222.558 3412.49,-215.576"/>
<text text-anchor="middle" x="3673" y="-181.8" font-family="Times,serif" font-size="14.00">POST</text>
</g>
<!-- 10.1.80.247:8080#ServerID_OuterContainerID&#45;&gt;1_fwatchdog#ServerID_6df85d7674&#45;2kqrj -->
<g id="edge6" class="edge"><title>10.1.80.247:8080#ServerID_OuterContainerID&#45;&gt;1_fwatchdog#ServerID_6df85d7674&#45;2kqrj</title>
<path fill="none" stroke="black" d="M2037.38,-217.719C2101.3,-212.655 2180.82,-206.829 2252,-203 2384.77,-195.858 2418.18,-199.142 2551,-193 2663.96,-187.776 2691.98,-181.926 2805,-178 2889.95,-175.049 3485.83,-181.908 3570,-170 3609.04,-164.476 3651.75,-152.689 3684.96,-142.179"/>
<polygon fill="black" stroke="black" points="3686.06,-145.503 3694.5,-139.111 3683.91,-138.839 3686.06,-145.503"/>
<text text-anchor="middle" x="2847" y="-181.8" font-family="Times,serif" font-size="14.00">RESPONSE</text>
</g>
<!-- 10.1.80.1:6303#ServerID_OuterContainerID -->
<g id="node17" class="node"><title>10.1.80.1:6303#ServerID_OuterContainerID</title>
<polygon fill="none" stroke="black" points="1978,-139 1667.15,-121 1978,-103 2288.85,-121 1978,-139"/>
<text text-anchor="middle" x="1978" y="-117.3" font-family="Times,serif" font-size="14.00">10.1.80.1:6303#ServerID_OuterContainerID</text>
</g>
<!-- 10.1.80.247:8080#ServerID_OuterContainerID&#45;&gt;10.1.80.1:6303#ServerID_OuterContainerID -->
<g id="edge20" class="edge"><title>10.1.80.247:8080#ServerID_OuterContainerID&#45;&gt;10.1.80.1:6303#ServerID_OuterContainerID</title>
<path fill="none" stroke="black" d="M1938.09,-212.166C1944.64,-206.734 1951.26,-200.191 1956,-193 1964.71,-179.774 1970.12,-162.913 1973.4,-148.941"/>
<polygon fill="black" stroke="black" points="1976.87,-149.434 1975.51,-138.928 1970.02,-147.992 1976.87,-149.434"/>
<text text-anchor="middle" x="2006" y="-181.8" font-family="Times,serif" font-size="14.00">RESPONSE</text>
</g>
<!-- 10.0.88.125:31112#ServerID_OuterContainerID -->
<g id="node18" class="node"><title>10.0.88.125:31112#ServerID_OuterContainerID</title>
<polygon fill="none" stroke="black" points="1314,-139 978.515,-121 1314,-103 1649.48,-121 1314,-139"/>
<text text-anchor="middle" x="1314" y="-117.3" font-family="Times,serif" font-size="14.00">10.0.88.125:31112#ServerID_OuterContainerID</text>
</g>
<!-- 10.1.80.247:8080#ServerID_OuterContainerID&#45;&gt;10.0.88.125:31112#ServerID_OuterContainerID -->
<g id="edge21" class="edge"><title>10.1.80.247:8080#ServerID_OuterContainerID&#45;&gt;10.0.88.125:31112#ServerID_OuterContainerID</title>
<path fill="none" stroke="black" d="M1841.31,-215.002C1729.22,-195.234 1516.5,-157.716 1398.38,-136.882"/>
<polygon fill="black" stroke="black" points="1398.75,-133.394 1388.3,-135.104 1397.54,-140.288 1398.75,-133.394"/>
<text text-anchor="middle" x="1746" y="-181.8" font-family="Times,serif" font-size="14.00">RESPONSE</text>
</g>
<!-- gateway:8080#ServerID_OuterContainerID&#45;&gt;1_fwatchdog#ServerID_6df85d7674&#45;2kqrj -->
<g id="edge3" class="edge"><title>gateway:8080#ServerID_OuterContainerID&#45;&gt;1_fwatchdog#ServerID_6df85d7674&#45;2kqrj</title>
<path fill="none" stroke="black" d="M3332.32,-215.622C3396.5,-204.999 3489.55,-188.505 3570,-170 3605.51,-161.832 3644.67,-151.114 3676.73,-141.878"/>
<polygon fill="black" stroke="black" points="3677.81,-145.209 3686.45,-139.064 3675.87,-138.485 3677.81,-145.209"/>
<text text-anchor="middle" x="3570" y="-181.8" font-family="Times,serif" font-size="14.00">RESPONSE</text>
</g>
<!-- 1_fwatchdog#ServerID_5f846fd567&#45;w7nbt -->
<g id="node5" class="node"><title>1_fwatchdog#ServerID_5f846fd567&#45;w7nbt</title>
<polygon fill="none" stroke="black" points="1395,-355 1071,-355 1071,-319 1395,-319 1395,-355"/>
<text text-anchor="middle" x="1233" y="-333.3" font-family="Times,serif" font-size="14.00">1_fwatchdog#ServerID_5f846fd567&#45;w7nbt</text>
</g>
<!-- 10.1.80.247:48052#ServerID_OuterContainerID -->
<g id="node6" class="node"><title>10.1.80.247:48052#ServerID_OuterContainerID</title>
<polygon fill="none" stroke="black" points="1234,-247 898.515,-229 1234,-211 1569.48,-229 1234,-247"/>
<text text-anchor="middle" x="1234" y="-225.3" font-family="Times,serif" font-size="14.00">10.1.80.247:48052#ServerID_OuterContainerID</text>
</g>
<!-- 1_fwatchdog#ServerID_5f846fd567&#45;w7nbt&#45;&gt;10.1.80.247:48052#ServerID_OuterContainerID -->
<g id="edge4" class="edge"><title>1_fwatchdog#ServerID_5f846fd567&#45;w7nbt&#45;&gt;10.1.80.247:48052#ServerID_OuterContainerID</title>
<path fill="none" stroke="black" d="M1238.96,-318.759C1240.61,-313.165 1242.18,-306.883 1243,-301 1245.04,-286.436 1243.27,-270.162 1240.78,-256.873"/>
<polygon fill="black" stroke="black" points="1244.17,-256.006 1238.68,-246.944 1237.32,-257.452 1244.17,-256.006"/>
<text text-anchor="middle" x="1286" y="-289.8" font-family="Times,serif" font-size="14.00">RESPONSE</text>
</g>
<!-- 10.1.80.247:48052#ServerID_OuterContainerID&#45;&gt;1_fwatchdog#ServerID_5f846fd567&#45;w7nbt -->
<g id="edge5" class="edge"><title>10.1.80.247:48052#ServerID_OuterContainerID&#45;&gt;1_fwatchdog#ServerID_5f846fd567&#45;w7nbt</title>
<path fill="none" stroke="black" d="M1220.26,-246.449C1212.35,-257.019 1203.17,-271.453 1199,-286 1197.16,-292.408 1196.49,-294.822 1199,-301 1200.42,-304.503 1202.38,-307.848 1204.65,-310.984"/>
<polygon fill="black" stroke="black" points="1202.08,-313.372 1211.2,-318.762 1207.43,-308.86 1202.08,-313.372"/>
<text text-anchor="middle" x="1219" y="-289.8" font-family="Times,serif" font-size="14.00">POST</text>
</g>
<!-- 1_fwatchdog#ServerID_e56b6537e2d5 -->
<g id="node10" class="node"><title>1_fwatchdog#ServerID_e56b6537e2d5</title>
<polygon fill="none" stroke="black" points="798.5,-139 499.5,-139 499.5,-103 798.5,-103 798.5,-139"/>
<text text-anchor="middle" x="649" y="-117.3" font-family="Times,serif" font-size="14.00">1_fwatchdog#ServerID_e56b6537e2d5</text>
</g>
<!-- 10.1.80.247:48052#ServerID_OuterContainerID&#45;&gt;1_fwatchdog#ServerID_e56b6537e2d5 -->
<g id="edge16" class="edge"><title>10.1.80.247:48052#ServerID_OuterContainerID&#45;&gt;1_fwatchdog#ServerID_e56b6537e2d5</title>
<path fill="none" stroke="black" d="M1153.23,-215.283C1082.82,-204.01 978.001,-186.777 887,-170 838.249,-161.012 784.062,-150.152 739.721,-141.037"/>
<polygon fill="black" stroke="black" points="740.337,-137.59 729.836,-139 738.924,-144.446 740.337,-137.59"/>
<text text-anchor="middle" x="1027.5" y="-181.8" font-family="Times,serif" font-size="14.00">read</text>
</g>
<!-- 1_fwatchdog#ServerID_34e86192c217 -->
<g id="node7" class="node"><title>1_fwatchdog#ServerID_34e86192c217</title>
<polygon fill="none" stroke="black" points="4866.5,-355 4567.5,-355 4567.5,-319 4866.5,-319 4866.5,-355"/>
<text text-anchor="middle" x="4717" y="-333.3" font-family="Times,serif" font-size="14.00">1_fwatchdog#ServerID_34e86192c217</text>
</g>
<!-- localhost:3000#ServerID_34e86192c217 -->
<g id="node8" class="node"><title>localhost:3000#ServerID_34e86192c217</title>
<polygon fill="none" stroke="black" points="4773,-247 4486.45,-229 4773,-211 5059.55,-229 4773,-247"/>
<text text-anchor="middle" x="4773" y="-225.3" font-family="Times,serif" font-size="14.00">localhost:3000#ServerID_34e86192c217</text>
</g>
<!-- 1_fwatchdog#ServerID_34e86192c217&#45;&gt;localhost:3000#ServerID_34e86192c217 -->
<g id="edge9" class="edge"><title>1_fwatchdog#ServerID_34e86192c217&#45;&gt;localhost:3000#ServerID_34e86192c217</title>
<path fill="none" stroke="black" d="M4736.79,-318.846C4741.99,-313.55 4747.19,-307.411 4751,-301 4759.03,-287.471 4764.4,-270.724 4767.83,-256.893"/>
<polygon fill="black" stroke="black" points="4771.27,-257.513 4770.08,-246.987 4764.45,-255.963 4771.27,-257.513"/>
<text text-anchor="middle" x="4787" y="-289.8" font-family="Times,serif" font-size="14.00">connect</text>
</g>
<!-- pipe:[331683132]#ServerID_34e86192c217 -->
<g id="node16" class="node"><title>pipe:[331683132]#ServerID_34e86192c217</title>
<ellipse fill="none" stroke="black" cx="4251" cy="-229" rx="217.162" ry="18"/>
<text text-anchor="middle" x="4251" y="-225.3" font-family="Times,serif" font-size="14.00">pipe:[331683132]#ServerID_34e86192c217</text>
</g>
<!-- 1_fwatchdog#ServerID_34e86192c217&#45;&gt;pipe:[331683132]#ServerID_34e86192c217 -->
<g id="edge17" class="edge"><title>1_fwatchdog#ServerID_34e86192c217&#45;&gt;pipe:[331683132]#ServerID_34e86192c217</title>
<path fill="none" stroke="black" d="M4642.13,-318.969C4557.03,-299.613 4418.66,-268.136 4331.35,-248.277"/>
<polygon fill="black" stroke="black" points="4332.02,-244.839 4321.49,-246.034 4330.46,-251.665 4332.02,-244.839"/>
<text text-anchor="middle" x="4571" y="-289.8" font-family="Times,serif" font-size="14.00">write</text>
</g>
<!-- localhost:3000#ServerID_34e86192c217&#45;&gt;1_fwatchdog#ServerID_34e86192c217 -->
<g id="edge18" class="edge"><title>localhost:3000#ServerID_34e86192c217&#45;&gt;1_fwatchdog#ServerID_34e86192c217</title>
<path fill="none" stroke="black" d="M4748.85,-245.543C4735.88,-255.391 4721.13,-269.391 4714,-286 4710.98,-293.031 4710.39,-301.137 4710.92,-308.747"/>
<polygon fill="black" stroke="black" points="4707.45,-309.204 4712.2,-318.671 4714.39,-308.303 4707.45,-309.204"/>
<text text-anchor="middle" x="4730.5" y="-289.8" font-family="Times,serif" font-size="14.00">read</text>
</g>
<!-- localhost:3000#ServerID_e56b6537e2d5 -->
<g id="node9" class="node"><title>localhost:3000#ServerID_e56b6537e2d5</title>
<polygon fill="none" stroke="black" points="588,-247 301.446,-229 588,-211 874.554,-229 588,-247"/>
<text text-anchor="middle" x="588" y="-225.3" font-family="Times,serif" font-size="14.00">localhost:3000#ServerID_e56b6537e2d5</text>
</g>
<!-- localhost:3000#ServerID_e56b6537e2d5&#45;&gt;1_fwatchdog#ServerID_e56b6537e2d5 -->
<g id="edge10" class="edge"><title>localhost:3000#ServerID_e56b6537e2d5&#45;&gt;1_fwatchdog#ServerID_e56b6537e2d5</title>
<path fill="none" stroke="black" d="M609.543,-212.341C615.902,-206.831 622.386,-200.2 627,-193 635.489,-179.753 640.883,-163.02 644.203,-149.126"/>
<polygon fill="black" stroke="black" points="647.666,-149.672 646.355,-139.159 640.824,-148.195 647.666,-149.672"/>
<text text-anchor="middle" x="651.5" y="-181.8" font-family="Times,serif" font-size="14.00">read</text>
</g>
<!-- 1_fwatchdog#ServerID_e56b6537e2d5&#45;&gt;localhost:3000#ServerID_e56b6537e2d5 -->
<g id="edge14" class="edge"><title>1_fwatchdog#ServerID_e56b6537e2d5&#45;&gt;localhost:3000#ServerID_e56b6537e2d5</title>
<path fill="none" stroke="black" d="M619.868,-139.202C606.599,-148.775 592.26,-162.001 585,-178 581.788,-185.078 581.185,-193.308 581.76,-201.023"/>
<polygon fill="black" stroke="black" points="578.311,-201.637 583.14,-211.068 585.246,-200.684 578.311,-201.637"/>
<text text-anchor="middle" x="604" y="-181.8" font-family="Times,serif" font-size="14.00">write</text>
</g>
<!-- pipe:[331682317]#ServerID_e56b6537e2d5 -->
<g id="node11" class="node"><title>pipe:[331682317]#ServerID_e56b6537e2d5</title>
<ellipse fill="none" stroke="black" cx="649" cy="-34" rx="217.162" ry="18"/>
<text text-anchor="middle" x="649" y="-30.3" font-family="Times,serif" font-size="14.00">pipe:[331682317]#ServerID_e56b6537e2d5</text>
</g>
<!-- 1_fwatchdog#ServerID_e56b6537e2d5&#45;&gt;pipe:[331682317]#ServerID_e56b6537e2d5 -->
<g id="edge11" class="edge"><title>1_fwatchdog#ServerID_e56b6537e2d5&#45;&gt;pipe:[331682317]#ServerID_e56b6537e2d5</title>
<path fill="none" stroke="black" d="M649,-102.799C649,-91.1626 649,-75.5479 649,-62.2368"/>
<polygon fill="black" stroke="black" points="652.5,-62.1754 649,-52.1754 645.5,-62.1755 652.5,-62.1754"/>
<text text-anchor="middle" x="668" y="-73.8" font-family="Times,serif" font-size="14.00">write</text>
</g>
<!-- 10_node#ServerID_34e86192c217 -->
<g id="node12" class="node"><title>10_node#ServerID_34e86192c217</title>
<polygon fill="none" stroke="black" points="3870.5,-355 3603.5,-355 3603.5,-319 3870.5,-319 3870.5,-355"/>
<text text-anchor="middle" x="3737" y="-333.3" font-family="Times,serif" font-size="14.00">10_node#ServerID_34e86192c217</text>
</g>
<!-- 10_node#ServerID_34e86192c217&#45;&gt;gateway:8080#ServerID_OuterContainerID -->
<g id="edge13" class="edge"><title>10_node#ServerID_34e86192c217&#45;&gt;gateway:8080#ServerID_OuterContainerID</title>
<path fill="none" stroke="black" d="M3659.4,-318.969C3567.12,-298.719 3414.41,-265.203 3325.09,-245.602"/>
<polygon fill="black" stroke="black" points="3325.84,-242.183 3315.32,-243.458 3324.34,-249.02 3325.84,-242.183"/>
<text text-anchor="middle" x="3596" y="-289.8" font-family="Times,serif" font-size="14.00">connect</text>
</g>
<!-- pipe:[331683264]#ServerID_34e86192c217 -->
<g id="node13" class="node"><title>pipe:[331683264]#ServerID_34e86192c217</title>
<ellipse fill="none" stroke="black" cx="3799" cy="-229" rx="217.162" ry="18"/>
<text text-anchor="middle" x="3799" y="-225.3" font-family="Times,serif" font-size="14.00">pipe:[331683264]#ServerID_34e86192c217</text>
</g>
<!-- 10_node#ServerID_34e86192c217&#45;&gt;pipe:[331683264]#ServerID_34e86192c217 -->
<g id="edge12" class="edge"><title>10_node#ServerID_34e86192c217&#45;&gt;pipe:[331683264]#ServerID_34e86192c217</title>
<path fill="none" stroke="black" d="M3746.96,-318.969C3756.95,-301.893 3772.45,-275.384 3783.94,-255.74"/>
<polygon fill="black" stroke="black" points="3787.04,-257.387 3789.06,-246.988 3780.99,-253.853 3787.04,-257.387"/>
<text text-anchor="middle" x="3786" y="-289.8" font-family="Times,serif" font-size="14.00">write</text>
</g>
<!-- 12_node#ServerID_e56b6537e2d5 -->
<g id="node14" class="node"><title>12_node#ServerID_e56b6537e2d5</title>
<polygon fill="none" stroke="black" points="283.5,-247 16.5,-247 16.5,-211 283.5,-211 283.5,-247"/>
<text text-anchor="middle" x="150" y="-225.3" font-family="Times,serif" font-size="14.00">12_node#ServerID_e56b6537e2d5</text>
</g>
<!-- pipe:[331682415]#ServerID_e56b6537e2d5 -->
<g id="node15" class="node"><title>pipe:[331682415]#ServerID_e56b6537e2d5</title>
<ellipse fill="none" stroke="black" cx="233" cy="-121" rx="217.162" ry="18"/>
<text text-anchor="middle" x="233" y="-117.3" font-family="Times,serif" font-size="14.00">pipe:[331682415]#ServerID_e56b6537e2d5</text>
</g>
<!-- 12_node#ServerID_e56b6537e2d5&#45;&gt;pipe:[331682415]#ServerID_e56b6537e2d5 -->
<g id="edge15" class="edge"><title>12_node#ServerID_e56b6537e2d5&#45;&gt;pipe:[331682415]#ServerID_e56b6537e2d5</title>
<path fill="none" stroke="black" d="M163.335,-210.969C176.888,-193.661 198.028,-166.663 213.468,-146.944"/>
<polygon fill="black" stroke="black" points="216.288,-149.02 219.698,-138.988 210.777,-144.704 216.288,-149.02"/>
<text text-anchor="middle" x="209" y="-181.8" font-family="Times,serif" font-size="14.00">write</text>
</g>
<!-- 10.1.80.1:6303#ServerID_OuterContainerID&#45;&gt;10.1.80.247:8080#ServerID_OuterContainerID -->
<g id="edge19" class="edge"><title>10.1.80.1:6303#ServerID_OuterContainerID&#45;&gt;10.1.80.247:8080#ServerID_OuterContainerID</title>
<path fill="none" stroke="black" d="M1952.46,-137.562C1938.97,-147.329 1923.65,-161.242 1916,-178 1912.78,-185.06 1911.68,-193.284 1911.63,-201"/>
<polygon fill="black" stroke="black" points="1908.13,-201.218 1912.08,-211.048 1915.12,-200.899 1908.13,-201.218"/>
<text text-anchor="middle" x="1936" y="-181.8" font-family="Times,serif" font-size="14.00">POST</text>
</g>
</g>
</svg>
