<?xml version="1.0" encoding="UTF-8" standalone="no"?>
<!DOCTYPE svg PUBLIC "-//W3C//DTD SVG 1.1//EN"
 "http://www.w3.org/Graphics/SVG/1.1/DTD/svg11.dtd">
<!-- Generated by graphviz version 2.38.0 (20140413.2041)
 -->
<!-- Title: G Pages: 1 -->
<svg width="5898pt" height="645pt"
 viewBox="0.00 0.00 5898.00 645.00" xmlns="http://www.w3.org/2000/svg" xmlns:xlink="http://www.w3.org/1999/xlink">
<g id="graph0" class="graph" transform="scale(1 1) rotate(0) translate(4 641)">
<title>G</title>
<polygon fill="white" stroke="none" points="-4,4 -4,-641 5894,-641 5894,4 -4,4"/>
<g id="clust1" class="cluster"><title>clusterServerID_34e86192c217</title>
<polygon fill="none" stroke="black" points="8,-182 8,-498 1130,-498 1130,-182 8,-182"/>
<text text-anchor="middle" x="569" y="-482.8" font-family="Times,serif" font-size="14.00">clusterServerID_34e86192c217</text>
</g>
<g id="clust2" class="cluster"><title>clusterServerID_5f846fd567&#45;w7nbt</title>
<polygon fill="none" stroke="black" points="4492,-269 4492,-367 4832,-367 4832,-269 4492,-269"/>
<text text-anchor="middle" x="4662" y="-351.8" font-family="Times,serif" font-size="14.00">clusterServerID_5f846fd567&#45;w7nbt</text>
</g>
<g id="clust3" class="cluster"><title>clusterServerID_6df85d7674&#45;2kqrj</title>
<polygon fill="none" stroke="black" points="1969,-531 1969,-629 2307,-629 2307,-531 1969,-531"/>
<text text-anchor="middle" x="2138" y="-613.8" font-family="Times,serif" font-size="14.00">clusterServerID_6df85d7674&#45;2kqrj</text>
</g>
<g id="clust4" class="cluster"><title>clusterServerID_OuterContainerID</title>
<polygon fill="none" stroke="black" points="1138,-269 1138,-498 4484,-498 4484,-269 1138,-269"/>
<text text-anchor="middle" x="2811" y="-482.8" font-family="Times,serif" font-size="14.00">clusterServerID_OuterContainerID</text>
</g>
<g id="clust5" class="cluster"><title>clusterServerID_e56b6537e2d5</title>
<polygon fill="none" stroke="black" points="4840,-8 4840,-367 5882,-367 5882,-8 4840,-8"/>
<text text-anchor="middle" x="5361" y="-351.8" font-family="Times,serif" font-size="14.00">clusterServerID_e56b6537e2d5</text>
</g>
<!-- 10.1.80.247:46082#ServerID_OuterContainerID -->
<g id="node1" class="node"><title>10.1.80.247:46082#ServerID_OuterContainerID</title>
<polygon fill="none" stroke="black" points="1481,-444 1145.52,-426 1481,-408 1816.48,-426 1481,-444"/>
<text text-anchor="middle" x="1481" y="-422.3" font-family="Times,serif" font-size="14.00">10.1.80.247:46082#ServerID_OuterContainerID</text>
</g>
<!-- 1_fwatchdog#ServerID_6df85d7674&#45;2kqrj -->
<g id="node2" class="node"><title>1_fwatchdog#ServerID_6df85d7674&#45;2kqrj</title>
<polygon fill="none" stroke="black" points="2298.5,-575 1977.5,-575 1977.5,-539 2298.5,-539 2298.5,-575"/>
<text text-anchor="middle" x="2138" y="-553.3" font-family="Times,serif" font-size="14.00">1_fwatchdog#ServerID_6df85d7674&#45;2kqrj</text>
</g>
<!-- 10.1.80.247:46082#ServerID_OuterContainerID&#45;&gt;1_fwatchdog#ServerID_6df85d7674&#45;2kqrj -->
<g id="edge1" class="edge"><title>10.1.80.247:46082#ServerID_OuterContainerID&#45;&gt;1_fwatchdog#ServerID_6df85d7674&#45;2kqrj</title>
<path fill="none" stroke="black" d="M1422.7,-440.895C1354.03,-456.806 1236.31,-482.646 1134,-498 1055.9,-509.72 1026.4,-495.595 1051,-521 1082.28,-553.304 1669.07,-556.91 1967.19,-556.642"/>
<polygon fill="black" stroke="black" points="1967.24,-560.142 1977.23,-556.631 1967.23,-553.142 1967.24,-560.142"/>
<text text-anchor="middle" x="1071" y="-509.8" font-family="Times,serif" font-size="14.00">POST</text>
</g>
<!-- 1_fwatchdog#ServerID_34e86192c217 -->
<g id="node7" class="node"><title>1_fwatchdog#ServerID_34e86192c217</title>
<polygon fill="none" stroke="black" points="315.5,-444 16.5,-444 16.5,-408 315.5,-408 315.5,-444"/>
<text text-anchor="middle" x="166" y="-422.3" font-family="Times,serif" font-size="14.00">1_fwatchdog#ServerID_34e86192c217</text>
</g>
<!-- 10.1.80.247:46082#ServerID_OuterContainerID&#45;&gt;1_fwatchdog#ServerID_34e86192c217 -->
<g id="edge10" class="edge"><title>10.1.80.247:46082#ServerID_OuterContainerID&#45;&gt;1_fwatchdog#ServerID_34e86192c217</title>
<path fill="none" stroke="black" d="M1425.96,-441.066C1357.98,-458.824 1238.51,-487.272 1134,-498 955.162,-516.358 500.73,-535.934 325,-498 281.596,-488.631 235.786,-466.397 204.545,-449.096"/>
<polygon fill="black" stroke="black" points="206.166,-445.992 195.735,-444.134 202.73,-452.091 206.166,-445.992"/>
<text text-anchor="middle" x="1112" y="-509.8" font-family="Times,serif" font-size="14.00">read</text>
</g>
<!-- 1_fwatchdog#ServerID_6df85d7674&#45;2kqrj&#45;&gt;10.1.80.247:46082#ServerID_OuterContainerID -->
<g id="edge6" class="edge"><title>1_fwatchdog#ServerID_6df85d7674&#45;2kqrj&#45;&gt;10.1.80.247:46082#ServerID_OuterContainerID</title>
<path fill="none" stroke="black" d="M2043.7,-538.956C1981.76,-527.641 1898.99,-512.294 1826,-498 1732.48,-479.686 1624.98,-457.359 1555.17,-442.691"/>
<polygon fill="black" stroke="black" points="1555.65,-439.217 1545.15,-440.584 1554.21,-446.067 1555.65,-439.217"/>
<text text-anchor="middle" x="1988" y="-509.8" font-family="Times,serif" font-size="14.00">RESPONSE</text>
</g>
<!-- gateway:8080#ServerID_OuterContainerID -->
<g id="node3" class="node"><title>gateway:8080#ServerID_OuterContainerID</title>
<polygon fill="none" stroke="black" points="2139,-444 1834.52,-426 2139,-408 2443.48,-426 2139,-444"/>
<text text-anchor="middle" x="2139" y="-422.3" font-family="Times,serif" font-size="14.00">gateway:8080#ServerID_OuterContainerID</text>
</g>
<!-- 1_fwatchdog#ServerID_6df85d7674&#45;2kqrj&#45;&gt;gateway:8080#ServerID_OuterContainerID -->
<g id="edge8" class="edge"><title>1_fwatchdog#ServerID_6df85d7674&#45;2kqrj&#45;&gt;gateway:8080#ServerID_OuterContainerID</title>
<path fill="none" stroke="black" d="M2116.2,-538.762C2111.26,-533.629 2106.68,-527.594 2104,-521 2101.49,-514.822 2102.62,-512.522 2104,-506 2107.95,-487.34 2116.61,-467.727 2124.33,-452.712"/>
<polygon fill="black" stroke="black" points="2127.59,-454.036 2129.2,-443.565 2121.41,-450.743 2127.59,-454.036"/>
<text text-anchor="middle" x="2124" y="-509.8" font-family="Times,serif" font-size="14.00">POST</text>
</g>
<!-- 10.1.80.247:8080#ServerID_OuterContainerID -->
<g id="node4" class="node"><title>10.1.80.247:8080#ServerID_OuterContainerID</title>
<polygon fill="none" stroke="black" points="3460,-444 3132.56,-426 3460,-408 3787.44,-426 3460,-444"/>
<text text-anchor="middle" x="3460" y="-422.3" font-family="Times,serif" font-size="14.00">10.1.80.247:8080#ServerID_OuterContainerID</text>
</g>
<!-- 1_fwatchdog#ServerID_6df85d7674&#45;2kqrj&#45;&gt;10.1.80.247:8080#ServerID_OuterContainerID -->
<g id="edge3" class="edge"><title>1_fwatchdog#ServerID_6df85d7674&#45;2kqrj&#45;&gt;10.1.80.247:8080#ServerID_OuterContainerID</title>
<path fill="none" stroke="black" d="M2298.81,-553.907C2494.58,-549.665 2834.87,-536.83 3124,-498 3219.55,-485.168 3328.45,-460.22 3395.71,-443.581"/>
<polygon fill="black" stroke="black" points="3396.87,-446.898 3405.73,-441.087 3395.18,-440.105 3396.87,-446.898"/>
<text text-anchor="middle" x="3065" y="-509.8" font-family="Times,serif" font-size="14.00">POST</text>
</g>
<!-- gateway:8080#ServerID_OuterContainerID&#45;&gt;1_fwatchdog#ServerID_6df85d7674&#45;2kqrj -->
<g id="edge2" class="edge"><title>gateway:8080#ServerID_OuterContainerID&#45;&gt;1_fwatchdog#ServerID_6df85d7674&#45;2kqrj</title>
<path fill="none" stroke="black" d="M2143.03,-444.034C2146.93,-462.905 2151.75,-494.211 2148,-521 2147.64,-523.574 2147.14,-526.224 2146.55,-528.859"/>
<polygon fill="black" stroke="black" points="2143.1,-528.198 2143.96,-538.759 2149.87,-529.971 2143.1,-528.198"/>
<text text-anchor="middle" x="2192" y="-509.8" font-family="Times,serif" font-size="14.00">RESPONSE</text>
</g>
<!-- 10_node#ServerID_34e86192c217 -->
<g id="node9" class="node"><title>10_node#ServerID_34e86192c217</title>
<polygon fill="none" stroke="black" points="1121.5,-313 854.5,-313 854.5,-277 1121.5,-277 1121.5,-313"/>
<text text-anchor="middle" x="988" y="-291.3" font-family="Times,serif" font-size="14.00">10_node#ServerID_34e86192c217</text>
</g>
<!-- gateway:8080#ServerID_OuterContainerID&#45;&gt;10_node#ServerID_34e86192c217 -->
<g id="edge23" class="edge"><title>gateway:8080#ServerID_OuterContainerID&#45;&gt;10_node#ServerID_34e86192c217</title>
<path fill="none" stroke="black" d="M2035.94,-414.072C1919.54,-402.217 1724.4,-383.808 1556,-375 1509.17,-372.551 1179.6,-377.956 1134,-367 1093.69,-357.315 1051.51,-335.322 1022.91,-318.361"/>
<polygon fill="black" stroke="black" points="1024.49,-315.227 1014.12,-313.053 1020.87,-321.219 1024.49,-315.227"/>
<text text-anchor="middle" x="1781.5" y="-378.8" font-family="Times,serif" font-size="14.00">read</text>
</g>
<!-- 10.1.80.247:8080#ServerID_OuterContainerID&#45;&gt;1_fwatchdog#ServerID_6df85d7674&#45;2kqrj -->
<g id="edge7" class="edge"><title>10.1.80.247:8080#ServerID_OuterContainerID&#45;&gt;1_fwatchdog#ServerID_6df85d7674&#45;2kqrj</title>
<path fill="none" stroke="black" d="M3415.21,-441.628C3346.1,-463.452 3208.87,-503.806 3089,-521 2943.57,-541.861 2541.19,-550.629 2309.08,-554.039"/>
<polygon fill="black" stroke="black" points="2308.8,-550.542 2298.85,-554.187 2308.9,-557.542 2308.8,-550.542"/>
<text text-anchor="middle" x="3214" y="-509.8" font-family="Times,serif" font-size="14.00">RESPONSE</text>
</g>
<!-- 10.1.80.1:58094#ServerID_OuterContainerID -->
<g id="node19" class="node"><title>10.1.80.1:58094#ServerID_OuterContainerID</title>
<polygon fill="none" stroke="black" points="3353,-313 3034.1,-295 3353,-277 3671.9,-295 3353,-313"/>
<text text-anchor="middle" x="3353" y="-291.3" font-family="Times,serif" font-size="14.00">10.1.80.1:58094#ServerID_OuterContainerID</text>
</g>
<!-- 10.1.80.247:8080#ServerID_OuterContainerID&#45;&gt;10.1.80.1:58094#ServerID_OuterContainerID -->
<g id="edge24" class="edge"><title>10.1.80.247:8080#ServerID_OuterContainerID&#45;&gt;10.1.80.1:58094#ServerID_OuterContainerID</title>
<path fill="none" stroke="black" d="M3382.65,-412.244C3371.44,-407.094 3361.26,-399.935 3354,-390 3339.97,-370.815 3341.58,-343.041 3345.57,-322.657"/>
<polygon fill="black" stroke="black" points="3349.02,-323.281 3347.81,-312.756 3342.19,-321.74 3349.02,-323.281"/>
<text text-anchor="middle" x="3396" y="-378.8" font-family="Times,serif" font-size="14.00">RESPONSE</text>
</g>
<!-- 10.0.88.125:31112#ServerID_OuterContainerID -->
<g id="node20" class="node"><title>10.0.88.125:31112#ServerID_OuterContainerID</title>
<polygon fill="none" stroke="black" points="4025,-313 3689.52,-295 4025,-277 4360.48,-295 4025,-313"/>
<text text-anchor="middle" x="4025" y="-291.3" font-family="Times,serif" font-size="14.00">10.0.88.125:31112#ServerID_OuterContainerID</text>
</g>
<!-- 10.1.80.247:8080#ServerID_OuterContainerID&#45;&gt;10.0.88.125:31112#ServerID_OuterContainerID -->
<g id="edge26" class="edge"><title>10.1.80.247:8080#ServerID_OuterContainerID&#45;&gt;10.0.88.125:31112#ServerID_OuterContainerID</title>
<path fill="none" stroke="black" d="M3520.2,-411.256C3625.5,-387.214 3842.56,-337.655 3954.62,-312.069"/>
<polygon fill="black" stroke="black" points="3955.51,-315.457 3964.48,-309.819 3953.95,-308.633 3955.51,-315.457"/>
<text text-anchor="middle" x="3718" y="-378.8" font-family="Times,serif" font-size="14.00">RESPONSE</text>
</g>
<!-- 10.1.80.247:48072#ServerID_OuterContainerID -->
<g id="node5" class="node"><title>10.1.80.247:48072#ServerID_OuterContainerID</title>
<polygon fill="none" stroke="black" points="4141,-444 3805.52,-426 4141,-408 4476.48,-426 4141,-444"/>
<text text-anchor="middle" x="4141" y="-422.3" font-family="Times,serif" font-size="14.00">10.1.80.247:48072#ServerID_OuterContainerID</text>
</g>
<!-- 1_fwatchdog#ServerID_5f846fd567&#45;w7nbt -->
<g id="node6" class="node"><title>1_fwatchdog#ServerID_5f846fd567&#45;w7nbt</title>
<polygon fill="none" stroke="black" points="4824,-313 4500,-313 4500,-277 4824,-277 4824,-313"/>
<text text-anchor="middle" x="4662" y="-291.3" font-family="Times,serif" font-size="14.00">1_fwatchdog#ServerID_5f846fd567&#45;w7nbt</text>
</g>
<!-- 10.1.80.247:48072#ServerID_OuterContainerID&#45;&gt;1_fwatchdog#ServerID_5f846fd567&#45;w7nbt -->
<g id="edge4" class="edge"><title>10.1.80.247:48072#ServerID_OuterContainerID&#45;&gt;1_fwatchdog#ServerID_5f846fd567&#45;w7nbt</title>
<path fill="none" stroke="black" d="M4245.96,-413.614C4315.49,-404.575 4408.24,-389.636 4488,-367 4533.33,-354.136 4582.89,-333.19 4617.48,-317.374"/>
<polygon fill="black" stroke="black" points="4619.22,-320.43 4626.83,-313.061 4616.28,-314.075 4619.22,-320.43"/>
<text text-anchor="middle" x="4472" y="-378.8" font-family="Times,serif" font-size="14.00">POST</text>
</g>
<!-- 1_fwatchdog#ServerID_e56b6537e2d5 -->
<g id="node14" class="node"><title>1_fwatchdog#ServerID_e56b6537e2d5</title>
<polygon fill="none" stroke="black" points="5397.5,-313 5098.5,-313 5098.5,-277 5397.5,-277 5397.5,-313"/>
<text text-anchor="middle" x="5248" y="-291.3" font-family="Times,serif" font-size="14.00">1_fwatchdog#ServerID_e56b6537e2d5</text>
</g>
<!-- 10.1.80.247:48072#ServerID_OuterContainerID&#45;&gt;1_fwatchdog#ServerID_e56b6537e2d5 -->
<g id="edge18" class="edge"><title>10.1.80.247:48072#ServerID_OuterContainerID&#45;&gt;1_fwatchdog#ServerID_e56b6537e2d5</title>
<path fill="none" stroke="black" d="M4293.25,-416.136C4434.32,-407.012 4649.84,-390.762 4836,-367 4944.97,-353.091 5069.09,-330.812 5152.37,-314.921"/>
<polygon fill="black" stroke="black" points="5153.15,-318.335 5162.32,-313.016 5151.84,-311.46 5153.15,-318.335"/>
<text text-anchor="middle" x="4777.5" y="-378.8" font-family="Times,serif" font-size="14.00">read</text>
</g>
<!-- 1_fwatchdog#ServerID_5f846fd567&#45;w7nbt&#45;&gt;10.1.80.247:48072#ServerID_OuterContainerID -->
<g id="edge5" class="edge"><title>1_fwatchdog#ServerID_5f846fd567&#45;w7nbt&#45;&gt;10.1.80.247:48072#ServerID_OuterContainerID</title>
<path fill="none" stroke="black" d="M4629.73,-313.11C4595.59,-330.257 4539.63,-355.682 4488,-367 4409.34,-384.242 4386.38,-361.507 4307,-375 4266.93,-381.81 4222.95,-395.347 4190.33,-406.62"/>
<polygon fill="black" stroke="black" points="4188.86,-403.424 4180.59,-410.036 4191.18,-410.03 4188.86,-403.424"/>
<text text-anchor="middle" x="4349" y="-378.8" font-family="Times,serif" font-size="14.00">RESPONSE</text>
</g>
<!-- localhost:3000#ServerID_34e86192c217 -->
<g id="node8" class="node"><title>localhost:3000#ServerID_34e86192c217</title>
<polygon fill="none" stroke="black" points="303,-313 16.4457,-295 303,-277 589.554,-295 303,-313"/>
<text text-anchor="middle" x="303" y="-291.3" font-family="Times,serif" font-size="14.00">localhost:3000#ServerID_34e86192c217</text>
</g>
<!-- 1_fwatchdog#ServerID_34e86192c217&#45;&gt;localhost:3000#ServerID_34e86192c217 -->
<g id="edge9" class="edge"><title>1_fwatchdog#ServerID_34e86192c217&#45;&gt;localhost:3000#ServerID_34e86192c217</title>
<path fill="none" stroke="black" d="M184.193,-407.87C208.439,-385.039 251.427,-344.562 278.505,-319.064"/>
<polygon fill="black" stroke="black" points="281.145,-321.386 286.026,-311.983 276.346,-316.29 281.145,-321.386"/>
<text text-anchor="middle" x="238" y="-378.8" font-family="Times,serif" font-size="14.00">write</text>
</g>
<!-- 10_node#ServerID_34e86192c217&#45;&gt;gateway:8080#ServerID_OuterContainerID -->
<g id="edge17" class="edge"><title>10_node#ServerID_34e86192c217&#45;&gt;gateway:8080#ServerID_OuterContainerID</title>
<path fill="none" stroke="black" d="M1014.73,-313.027C1043.09,-330.105 1089.82,-355.476 1134,-367 1144.1,-369.634 1699.01,-400.648 1979.82,-416.209"/>
<polygon fill="black" stroke="black" points="1979.92,-419.72 1990.1,-416.779 1980.31,-412.731 1979.92,-419.72"/>
<text text-anchor="middle" x="1523" y="-378.8" font-family="Times,serif" font-size="14.00">connect</text>
</g>
<!-- pipe:[331683264]#ServerID_34e86192c217 -->
<g id="node10" class="node"><title>pipe:[331683264]#ServerID_34e86192c217</title>
<ellipse fill="none" stroke="black" cx="905" cy="-208" rx="217.162" ry="18"/>
<text text-anchor="middle" x="905" y="-204.3" font-family="Times,serif" font-size="14.00">pipe:[331683264]#ServerID_34e86192c217</text>
</g>
<!-- 10_node#ServerID_34e86192c217&#45;&gt;pipe:[331683264]#ServerID_34e86192c217 -->
<g id="edge11" class="edge"><title>10_node#ServerID_34e86192c217&#45;&gt;pipe:[331683264]#ServerID_34e86192c217</title>
<path fill="none" stroke="black" d="M971.204,-276.799C959.054,-264.356 942.462,-247.364 928.928,-233.504"/>
<polygon fill="black" stroke="black" points="931.262,-230.885 921.771,-226.175 926.254,-235.775 931.262,-230.885"/>
<text text-anchor="middle" x="971" y="-247.8" font-family="Times,serif" font-size="14.00">write</text>
</g>
<!-- 10.152.183.10:53#ServerID_OuterContainerID -->
<g id="node13" class="node"><title>10.152.183.10:53#ServerID_OuterContainerID</title>
<polygon fill="none" stroke="black" points="2788,-444 2460.56,-426 2788,-408 3115.44,-426 2788,-444"/>
<text text-anchor="middle" x="2788" y="-422.3" font-family="Times,serif" font-size="14.00">10.152.183.10:53#ServerID_OuterContainerID</text>
</g>
<!-- 10_node#ServerID_34e86192c217&#45;&gt;10.152.183.10:53#ServerID_OuterContainerID -->
<g id="edge14" class="edge"><title>10_node#ServerID_34e86192c217&#45;&gt;10.152.183.10:53#ServerID_OuterContainerID</title>
<path fill="none" stroke="black" d="M1013.83,-313.004C1042.02,-330.462 1089.13,-356.515 1134,-367 1167.68,-374.868 2344.49,-372.787 2379,-375 2488.99,-382.053 2614.74,-398.728 2697.43,-410.887"/>
<polygon fill="black" stroke="black" points="2697.14,-414.383 2707.55,-412.384 2698.17,-407.458 2697.14,-414.383"/>
<text text-anchor="middle" x="2561.5" y="-378.8" font-family="Times,serif" font-size="14.00">sendto</text>
</g>
<!-- /etc/hosts#ServerID_34e86192c217 -->
<g id="node11" class="node"><title>/etc/hosts#ServerID_34e86192c217</title>
<ellipse fill="none" stroke="black" cx="514" cy="-426" rx="180.068" ry="18"/>
<text text-anchor="middle" x="514" y="-422.3" font-family="Times,serif" font-size="14.00">/etc/hosts#ServerID_34e86192c217</text>
</g>
<!-- /etc/hosts#ServerID_34e86192c217&#45;&gt;10_node#ServerID_34e86192c217 -->
<g id="edge12" class="edge"><title>/etc/hosts#ServerID_34e86192c217&#45;&gt;10_node#ServerID_34e86192c217</title>
<path fill="none" stroke="black" d="M573.074,-408.923C659.842,-385.309 821.59,-341.289 915.456,-315.743"/>
<polygon fill="black" stroke="black" points="916.43,-319.105 925.16,-313.102 914.592,-312.351 916.43,-319.105"/>
<text text-anchor="middle" x="711.5" y="-378.8" font-family="Times,serif" font-size="14.00">read</text>
</g>
<!-- /etc/resolv.conf#ServerID_34e86192c217 -->
<g id="node12" class="node"><title>/etc/resolv.conf#ServerID_34e86192c217</title>
<ellipse fill="none" stroke="black" cx="917" cy="-426" rx="205.264" ry="18"/>
<text text-anchor="middle" x="917" y="-422.3" font-family="Times,serif" font-size="14.00">/etc/resolv.conf#ServerID_34e86192c217</text>
</g>
<!-- /etc/resolv.conf#ServerID_34e86192c217&#45;&gt;10_node#ServerID_34e86192c217 -->
<g id="edge13" class="edge"><title>/etc/resolv.conf#ServerID_34e86192c217&#45;&gt;10_node#ServerID_34e86192c217</title>
<path fill="none" stroke="black" d="M926.428,-407.87C938.523,-385.895 959.615,-347.573 973.693,-321.994"/>
<polygon fill="black" stroke="black" points="976.777,-323.649 978.533,-313.201 970.645,-320.274 976.777,-323.649"/>
<text text-anchor="middle" x="961.5" y="-378.8" font-family="Times,serif" font-size="14.00">read</text>
</g>
<!-- 10.152.183.10:53#ServerID_OuterContainerID&#45;&gt;10_node#ServerID_34e86192c217 -->
<g id="edge15" class="edge"><title>10.152.183.10:53#ServerID_OuterContainerID&#45;&gt;10_node#ServerID_34e86192c217</title>
<path fill="none" stroke="black" d="M2643.55,-415.922C2451.48,-404.252 2101.38,-384.38 1802,-375 1764.9,-373.838 1170.12,-375.544 1134,-367 1093.66,-357.456 1051.48,-335.442 1022.89,-318.438"/>
<polygon fill="black" stroke="black" points="1024.47,-315.303 1014.1,-313.115 1020.84,-321.29 1024.47,-315.303"/>
<text text-anchor="middle" x="2188" y="-378.8" font-family="Times,serif" font-size="14.00">recvfrom</text>
</g>
<!-- localhost:3000#ServerID_e56b6537e2d5 -->
<g id="node15" class="node"><title>localhost:3000#ServerID_e56b6537e2d5</title>
<polygon fill="none" stroke="black" points="5587,-226 5300.45,-208 5587,-190 5873.55,-208 5587,-226"/>
<text text-anchor="middle" x="5587" y="-204.3" font-family="Times,serif" font-size="14.00">localhost:3000#ServerID_e56b6537e2d5</text>
</g>
<!-- 1_fwatchdog#ServerID_e56b6537e2d5&#45;&gt;localhost:3000#ServerID_e56b6537e2d5 -->
<g id="edge16" class="edge"><title>1_fwatchdog#ServerID_e56b6537e2d5&#45;&gt;localhost:3000#ServerID_e56b6537e2d5</title>
<path fill="none" stroke="black" d="M5336.36,-276.958C5362.13,-271.619 5390.28,-265.43 5416,-259 5455.19,-249.204 5498.9,-236.389 5532.32,-226.185"/>
<polygon fill="black" stroke="black" points="5533.37,-229.525 5541.9,-223.246 5531.32,-222.833 5533.37,-229.525"/>
<text text-anchor="middle" x="5487" y="-247.8" font-family="Times,serif" font-size="14.00">write</text>
</g>
<!-- pipe:[331682317]#ServerID_e56b6537e2d5 -->
<g id="node18" class="node"><title>pipe:[331682317]#ServerID_e56b6537e2d5</title>
<ellipse fill="none" stroke="black" cx="5065" cy="-208" rx="217.162" ry="18"/>
<text text-anchor="middle" x="5065" y="-204.3" font-family="Times,serif" font-size="14.00">pipe:[331682317]#ServerID_e56b6537e2d5</text>
</g>
<!-- 1_fwatchdog#ServerID_e56b6537e2d5&#45;&gt;pipe:[331682317]#ServerID_e56b6537e2d5 -->
<g id="edge22" class="edge"><title>1_fwatchdog#ServerID_e56b6537e2d5&#45;&gt;pipe:[331682317]#ServerID_e56b6537e2d5</title>
<path fill="none" stroke="black" d="M5210.97,-276.799C5182,-263.346 5141.6,-244.577 5110.64,-230.197"/>
<polygon fill="black" stroke="black" points="5111.9,-226.924 5101.35,-225.885 5108.95,-233.272 5111.9,-226.924"/>
<text text-anchor="middle" x="5186" y="-247.8" font-family="Times,serif" font-size="14.00">write</text>
</g>
<!-- localhost:3000#ServerID_e56b6537e2d5&#45;&gt;1_fwatchdog#ServerID_e56b6537e2d5 -->
<g id="edge21" class="edge"><title>localhost:3000#ServerID_e56b6537e2d5&#45;&gt;1_fwatchdog#ServerID_e56b6537e2d5</title>
<path fill="none" stroke="black" d="M5496.06,-220.313C5459.35,-225.911 5416.81,-233.713 5379,-244 5350.9,-251.645 5320.46,-263.063 5296,-273.058"/>
<polygon fill="black" stroke="black" points="5294.5,-269.893 5286.59,-276.951 5297.17,-276.36 5294.5,-269.893"/>
<text text-anchor="middle" x="5395.5" y="-247.8" font-family="Times,serif" font-size="14.00">read</text>
</g>
<!-- 12_node#ServerID_e56b6537e2d5 -->
<g id="node16" class="node"><title>12_node#ServerID_e56b6537e2d5</title>
<polygon fill="none" stroke="black" points="5720.5,-139 5453.5,-139 5453.5,-103 5720.5,-103 5720.5,-139"/>
<text text-anchor="middle" x="5587" y="-117.3" font-family="Times,serif" font-size="14.00">12_node#ServerID_e56b6537e2d5</text>
</g>
<!-- localhost:3000#ServerID_e56b6537e2d5&#45;&gt;12_node#ServerID_e56b6537e2d5 -->
<g id="edge20" class="edge"><title>localhost:3000#ServerID_e56b6537e2d5&#45;&gt;12_node#ServerID_e56b6537e2d5</title>
<path fill="none" stroke="black" d="M5587,-189.799C5587,-178.163 5587,-162.548 5587,-149.237"/>
<polygon fill="black" stroke="black" points="5590.5,-149.175 5587,-139.175 5583.5,-149.175 5590.5,-149.175"/>
<text text-anchor="middle" x="5603.5" y="-160.8" font-family="Times,serif" font-size="14.00">read</text>
</g>
<!-- pipe:[331682415]#ServerID_e56b6537e2d5 -->
<g id="node17" class="node"><title>pipe:[331682415]#ServerID_e56b6537e2d5</title>
<ellipse fill="none" stroke="black" cx="5587" cy="-34" rx="217.162" ry="18"/>
<text text-anchor="middle" x="5587" y="-30.3" font-family="Times,serif" font-size="14.00">pipe:[331682415]#ServerID_e56b6537e2d5</text>
</g>
<!-- 12_node#ServerID_e56b6537e2d5&#45;&gt;pipe:[331682415]#ServerID_e56b6537e2d5 -->
<g id="edge19" class="edge"><title>12_node#ServerID_e56b6537e2d5&#45;&gt;pipe:[331682415]#ServerID_e56b6537e2d5</title>
<path fill="none" stroke="black" d="M5587,-102.799C5587,-91.1626 5587,-75.5479 5587,-62.2368"/>
<polygon fill="black" stroke="black" points="5590.5,-62.1754 5587,-52.1754 5583.5,-62.1755 5590.5,-62.1754"/>
<text text-anchor="middle" x="5606" y="-73.8" font-family="Times,serif" font-size="14.00">write</text>
</g>
<!-- 10.1.80.1:58094#ServerID_OuterContainerID&#45;&gt;10.1.80.247:8080#ServerID_OuterContainerID -->
<g id="edge25" class="edge"><title>10.1.80.1:58094#ServerID_OuterContainerID&#45;&gt;10.1.80.247:8080#ServerID_OuterContainerID</title>
<path fill="none" stroke="black" d="M3374.53,-311.876C3393.26,-326.569 3420.13,-349.882 3438,-375 3443.08,-382.143 3447.36,-390.645 3450.75,-398.594"/>
<polygon fill="black" stroke="black" points="3447.5,-399.889 3454.45,-407.887 3454.01,-397.302 3447.5,-399.889"/>
<text text-anchor="middle" x="3467" y="-378.8" font-family="Times,serif" font-size="14.00">POST</text>
</g>
</g>
</svg>
