<?xml version="1.0" encoding="UTF-8" standalone="no"?>
<!DOCTYPE svg PUBLIC "-//W3C//DTD SVG 1.1//EN"
 "http://www.w3.org/Graphics/SVG/1.1/DTD/svg11.dtd">
<!-- Generated by graphviz version 2.38.0 (20140413.2041)
 -->
<!-- Title: G Pages: 1 -->
<svg width="5464pt" height="510pt"
 viewBox="0.00 0.00 5464.00 510.00" xmlns="http://www.w3.org/2000/svg" xmlns:xlink="http://www.w3.org/1999/xlink">
<g id="graph0" class="graph" transform="scale(1 1) rotate(0) translate(4 506)">
<title>G</title>
<polygon fill="white" stroke="none" points="-4,4 -4,-506 5460,-506 5460,4 -4,4"/>
<g id="clust1" class="cluster"><title>clusterServerID_34e86192c217</title>
<polygon fill="none" stroke="black" points="4052,-203 4052,-494 5448,-494 5448,-203 4052,-203"/>
<text text-anchor="middle" x="4750" y="-478.8" font-family="Times,serif" font-size="14.00">clusterServerID_34e86192c217</text>
</g>
<g id="clust2" class="cluster"><title>clusterServerID_5f846fd567&#45;w7nbt</title>
<polygon fill="none" stroke="black" points="4052,-95 4052,-170 4392,-170 4392,-95 4052,-95"/>
<text text-anchor="middle" x="4222" y="-154.8" font-family="Times,serif" font-size="14.00">clusterServerID_5f846fd567&#45;w7nbt</text>
</g>
<g id="clust3" class="cluster"><title>clusterServerID_6df85d7674&#45;2kqrj</title>
<polygon fill="none" stroke="black" points="862,-311 862,-386 1200,-386 1200,-311 862,-311"/>
<text text-anchor="middle" x="1031" y="-370.8" font-family="Times,serif" font-size="14.00">clusterServerID_6df85d7674&#45;2kqrj</text>
</g>
<g id="clust4" class="cluster"><title>clusterServerID_OuterContainerID</title>
<polygon fill="none" stroke="black" points="8,-95 8,-278 4044,-278 4044,-95 8,-95"/>
<text text-anchor="middle" x="2026" y="-262.8" font-family="Times,serif" font-size="14.00">clusterServerID_OuterContainerID</text>
</g>
<g id="clust5" class="cluster"><title>clusterServerID_e56b6537e2d5</title>
<polygon fill="none" stroke="black" points="4400,-8 4400,-170 5442,-170 5442,-8 4400,-8"/>
<text text-anchor="middle" x="4921" y="-154.8" font-family="Times,serif" font-size="14.00">clusterServerID_e56b6537e2d5</text>
</g>
<!-- 10.1.80.247:46018#ServerID_OuterContainerID -->
<g id="node1" class="node"><title>10.1.80.247:46018#ServerID_OuterContainerID</title>
<polygon fill="none" stroke="black" points="351,-247 15.5152,-229 351,-211 686.485,-229 351,-247"/>
<text text-anchor="middle" x="351" y="-225.3" font-family="Times,serif" font-size="14.00">10.1.80.247:46018#ServerID_OuterContainerID</text>
</g>
<!-- 1_fwatchdog#ServerID_6df85d7674&#45;2kqrj -->
<g id="node2" class="node"><title>1_fwatchdog#ServerID_6df85d7674&#45;2kqrj</title>
<polygon fill="none" stroke="black" points="1191.5,-355 870.5,-355 870.5,-319 1191.5,-319 1191.5,-355"/>
<text text-anchor="middle" x="1031" y="-333.3" font-family="Times,serif" font-size="14.00">1_fwatchdog#ServerID_6df85d7674&#45;2kqrj</text>
</g>
<!-- 10.1.80.247:46018#ServerID_OuterContainerID&#45;&gt;1_fwatchdog#ServerID_6df85d7674&#45;2kqrj -->
<g id="edge1" class="edge"><title>10.1.80.247:46018#ServerID_OuterContainerID&#45;&gt;1_fwatchdog#ServerID_6df85d7674&#45;2kqrj</title>
<path fill="none" stroke="black" d="M413.902,-243.705C486.962,-259.258 611.255,-284.589 719,-301 764.683,-307.958 814.327,-314.146 860.297,-319.311"/>
<polygon fill="black" stroke="black" points="860.028,-322.803 870.354,-320.432 860.803,-315.846 860.028,-322.803"/>
<text text-anchor="middle" x="739" y="-289.8" font-family="Times,serif" font-size="14.00">POST</text>
</g>
<!-- 1_fwatchdog#ServerID_6df85d7674&#45;2kqrj&#45;&gt;10.1.80.247:46018#ServerID_OuterContainerID -->
<g id="edge8" class="edge"><title>1_fwatchdog#ServerID_6df85d7674&#45;2kqrj&#45;&gt;10.1.80.247:46018#ServerID_OuterContainerID</title>
<path fill="none" stroke="black" d="M945.15,-318.958C891.72,-308.665 821.509,-295.706 759,-286 731.109,-281.669 723.978,-281.723 696,-278 612.155,-266.844 516.941,-253.55 447.811,-243.784"/>
<polygon fill="black" stroke="black" points="448.197,-240.304 437.805,-242.369 447.217,-247.235 448.197,-240.304"/>
<text text-anchor="middle" x="884" y="-289.8" font-family="Times,serif" font-size="14.00">RESPONSE</text>
</g>
<!-- 10.1.80.247:8080#ServerID_OuterContainerID -->
<g id="node3" class="node"><title>10.1.80.247:8080#ServerID_OuterContainerID</title>
<polygon fill="none" stroke="black" points="1032,-247 704.56,-229 1032,-211 1359.44,-229 1032,-247"/>
<text text-anchor="middle" x="1032" y="-225.3" font-family="Times,serif" font-size="14.00">10.1.80.247:8080#ServerID_OuterContainerID</text>
</g>
<!-- 1_fwatchdog#ServerID_6df85d7674&#45;2kqrj&#45;&gt;10.1.80.247:8080#ServerID_OuterContainerID -->
<g id="edge2" class="edge"><title>1_fwatchdog#ServerID_6df85d7674&#45;2kqrj&#45;&gt;10.1.80.247:8080#ServerID_OuterContainerID</title>
<path fill="none" stroke="black" d="M1012.04,-318.736C1007.56,-313.523 1003.39,-307.455 1001,-301 998.687,-294.747 999.333,-292.455 1001,-286 1003.75,-275.348 1009.01,-264.56 1014.43,-255.334"/>
<polygon fill="black" stroke="black" points="1017.49,-257.03 1019.81,-246.692 1011.55,-253.33 1017.49,-257.03"/>
<text text-anchor="middle" x="1021" y="-289.8" font-family="Times,serif" font-size="14.00">POST</text>
</g>
<!-- gateway:8080#ServerID_OuterContainerID -->
<g id="node4" class="node"><title>gateway:8080#ServerID_OuterContainerID</title>
<polygon fill="none" stroke="black" points="3060,-247 2755.52,-229 3060,-211 3364.48,-229 3060,-247"/>
<text text-anchor="middle" x="3060" y="-225.3" font-family="Times,serif" font-size="14.00">gateway:8080#ServerID_OuterContainerID</text>
</g>
<!-- 1_fwatchdog#ServerID_6df85d7674&#45;2kqrj&#45;&gt;gateway:8080#ServerID_OuterContainerID -->
<g id="edge7" class="edge"><title>1_fwatchdog#ServerID_6df85d7674&#45;2kqrj&#45;&gt;gateway:8080#ServerID_OuterContainerID</title>
<path fill="none" stroke="black" d="M1191.7,-335.984C1548.59,-335.396 2398.24,-330.798 2684,-301 2793.55,-289.576 2918.92,-263.167 2993.67,-245.975"/>
<polygon fill="black" stroke="black" points="2994.47,-249.382 3003.42,-243.718 2992.89,-242.563 2994.47,-249.382"/>
<text text-anchor="middle" x="2809" y="-289.8" font-family="Times,serif" font-size="14.00">POST</text>
</g>
<!-- 10.1.80.247:8080#ServerID_OuterContainerID&#45;&gt;1_fwatchdog#ServerID_6df85d7674&#45;2kqrj -->
<g id="edge3" class="edge"><title>10.1.80.247:8080#ServerID_OuterContainerID&#45;&gt;1_fwatchdog#ServerID_6df85d7674&#45;2kqrj</title>
<path fill="none" stroke="black" d="M1036.68,-246.944C1040.05,-261.339 1043.59,-282.543 1041,-301 1040.64,-303.574 1040.14,-306.224 1039.55,-308.859"/>
<polygon fill="black" stroke="black" points="1036.1,-308.198 1036.96,-318.759 1042.87,-309.971 1036.1,-308.198"/>
<text text-anchor="middle" x="1084" y="-289.8" font-family="Times,serif" font-size="14.00">RESPONSE</text>
</g>
<!-- 10.1.80.1:39155#ServerID_OuterContainerID -->
<g id="node18" class="node"><title>10.1.80.1:39155#ServerID_OuterContainerID</title>
<polygon fill="none" stroke="black" points="969,-139 650.105,-121 969,-103 1287.9,-121 969,-139"/>
<text text-anchor="middle" x="969" y="-117.3" font-family="Times,serif" font-size="14.00">10.1.80.1:39155#ServerID_OuterContainerID</text>
</g>
<!-- 10.1.80.247:8080#ServerID_OuterContainerID&#45;&gt;10.1.80.1:39155#ServerID_OuterContainerID -->
<g id="edge20" class="edge"><title>10.1.80.247:8080#ServerID_OuterContainerID&#45;&gt;10.1.80.1:39155#ServerID_OuterContainerID</title>
<path fill="none" stroke="black" d="M1025.55,-210.886C1021.57,-201.015 1016.07,-188.515 1010,-178 1003.82,-167.292 996.012,-156.173 988.869,-146.691"/>
<polygon fill="black" stroke="black" points="991.437,-144.291 982.563,-138.504 985.892,-148.562 991.437,-144.291"/>
<text text-anchor="middle" x="1060" y="-181.8" font-family="Times,serif" font-size="14.00">RESPONSE</text>
</g>
<!-- 10.0.88.125:31112#ServerID_OuterContainerID -->
<g id="node19" class="node"><title>10.0.88.125:31112#ServerID_OuterContainerID</title>
<polygon fill="none" stroke="black" points="1641,-139 1305.52,-121 1641,-103 1976.48,-121 1641,-139"/>
<text text-anchor="middle" x="1641" y="-117.3" font-family="Times,serif" font-size="14.00">10.0.88.125:31112#ServerID_OuterContainerID</text>
</g>
<!-- 10.1.80.247:8080#ServerID_OuterContainerID&#45;&gt;10.0.88.125:31112#ServerID_OuterContainerID -->
<g id="edge22" class="edge"><title>10.1.80.247:8080#ServerID_OuterContainerID&#45;&gt;10.0.88.125:31112#ServerID_OuterContainerID</title>
<path fill="none" stroke="black" d="M1106.37,-215.055C1220.1,-195.26 1436.6,-157.577 1556.25,-136.751"/>
<polygon fill="black" stroke="black" points="1556.85,-140.199 1566.11,-135.036 1555.65,-133.302 1556.85,-140.199"/>
<text text-anchor="middle" x="1361" y="-181.8" font-family="Times,serif" font-size="14.00">RESPONSE</text>
</g>
<!-- gateway:8080#ServerID_OuterContainerID&#45;&gt;1_fwatchdog#ServerID_6df85d7674&#45;2kqrj -->
<g id="edge4" class="edge"><title>gateway:8080#ServerID_OuterContainerID&#45;&gt;1_fwatchdog#ServerID_6df85d7674&#45;2kqrj</title>
<path fill="none" stroke="black" d="M2991.07,-242.932C2927.64,-254.259 2830.84,-270.109 2746,-278 2595.47,-292.002 1605.39,-320.265 1201.8,-331.37"/>
<polygon fill="black" stroke="black" points="1201.69,-327.872 1191.79,-331.645 1201.88,-334.869 1201.69,-327.872"/>
<text text-anchor="middle" x="2638" y="-289.8" font-family="Times,serif" font-size="14.00">RESPONSE</text>
</g>
<!-- 10_node#ServerID_34e86192c217 -->
<g id="node7" class="node"><title>10_node#ServerID_34e86192c217</title>
<polygon fill="none" stroke="black" points="4345.5,-355 4078.5,-355 4078.5,-319 4345.5,-319 4345.5,-355"/>
<text text-anchor="middle" x="4212" y="-333.3" font-family="Times,serif" font-size="14.00">10_node#ServerID_34e86192c217</text>
</g>
<!-- gateway:8080#ServerID_OuterContainerID&#45;&gt;10_node#ServerID_34e86192c217 -->
<g id="edge19" class="edge"><title>gateway:8080#ServerID_OuterContainerID&#45;&gt;10_node#ServerID_34e86192c217</title>
<path fill="none" stroke="black" d="M3116.81,-243.678C3188.59,-260.338 3316.15,-287.878 3427,-301 3649.71,-327.363 3910.09,-334.301 4067.93,-335.89"/>
<polygon fill="black" stroke="black" points="4068.14,-339.392 4078.18,-335.987 4068.21,-332.392 4068.14,-339.392"/>
<text text-anchor="middle" x="3443.5" y="-289.8" font-family="Times,serif" font-size="14.00">read</text>
</g>
<!-- 10.1.80.247:48036#ServerID_OuterContainerID -->
<g id="node5" class="node"><title>10.1.80.247:48036#ServerID_OuterContainerID</title>
<polygon fill="none" stroke="black" points="1713,-247 1377.52,-229 1713,-211 2048.48,-229 1713,-247"/>
<text text-anchor="middle" x="1713" y="-225.3" font-family="Times,serif" font-size="14.00">10.1.80.247:48036#ServerID_OuterContainerID</text>
</g>
<!-- 1_fwatchdog#ServerID_5f846fd567&#45;w7nbt -->
<g id="node6" class="node"><title>1_fwatchdog#ServerID_5f846fd567&#45;w7nbt</title>
<polygon fill="none" stroke="black" points="4384,-139 4060,-139 4060,-103 4384,-103 4384,-139"/>
<text text-anchor="middle" x="4222" y="-117.3" font-family="Times,serif" font-size="14.00">1_fwatchdog#ServerID_5f846fd567&#45;w7nbt</text>
</g>
<!-- 10.1.80.247:48036#ServerID_OuterContainerID&#45;&gt;1_fwatchdog#ServerID_5f846fd567&#45;w7nbt -->
<g id="edge5" class="edge"><title>10.1.80.247:48036#ServerID_OuterContainerID&#45;&gt;1_fwatchdog#ServerID_5f846fd567&#45;w7nbt</title>
<path fill="none" stroke="black" d="M1836.67,-217.608C1902.37,-212.448 1984.52,-206.571 2058,-203 2506.05,-181.228 2618.48,-185.385 3067,-178 3121.49,-177.103 3994.02,-177.533 4048,-170 4087.41,-164.501 4130.52,-152.649 4163.98,-142.099"/>
<polygon fill="black" stroke="black" points="4165.14,-145.404 4173.59,-139.02 4163,-138.738 4165.14,-145.404"/>
<text text-anchor="middle" x="3087" y="-181.8" font-family="Times,serif" font-size="14.00">POST</text>
</g>
<!-- 1_fwatchdog#ServerID_5f846fd567&#45;w7nbt&#45;&gt;10.1.80.247:48036#ServerID_OuterContainerID -->
<g id="edge6" class="edge"><title>1_fwatchdog#ServerID_5f846fd567&#45;w7nbt&#45;&gt;10.1.80.247:48036#ServerID_OuterContainerID</title>
<path fill="none" stroke="black" d="M4173.21,-139.087C4138.72,-150.267 4091.13,-163.894 4048,-170 3975.5,-180.266 3462.19,-175.61 3389,-178 3263.56,-182.096 3232.45,-189.068 3107,-193 2640.99,-207.608 2523.85,-183.92 2058,-203 1987.09,-205.904 1908.13,-211.455 1843.66,-216.589"/>
<polygon fill="black" stroke="black" points="1843.13,-213.121 1833.44,-217.409 1843.69,-220.098 1843.13,-213.121"/>
<text text-anchor="middle" x="3431" y="-181.8" font-family="Times,serif" font-size="14.00">RESPONSE</text>
</g>
<!-- 10_node#ServerID_34e86192c217&#45;&gt;gateway:8080#ServerID_OuterContainerID -->
<g id="edge12" class="edge"><title>10_node#ServerID_34e86192c217&#45;&gt;gateway:8080#ServerID_OuterContainerID</title>
<path fill="none" stroke="black" d="M4078.37,-330.195C3912.56,-322.202 3621.33,-305.576 3373,-278 3294.17,-269.246 3204.77,-255.112 3141.76,-244.444"/>
<polygon fill="black" stroke="black" points="3142.32,-240.99 3131.88,-242.763 3141.15,-247.891 3142.32,-240.99"/>
<text text-anchor="middle" x="3632" y="-289.8" font-family="Times,serif" font-size="14.00">connect</text>
</g>
<!-- pipe:[331683264]#ServerID_34e86192c217 -->
<g id="node8" class="node"><title>pipe:[331683264]#ServerID_34e86192c217</title>
<ellipse fill="none" stroke="black" cx="4277" cy="-229" rx="217.162" ry="18"/>
<text text-anchor="middle" x="4277" y="-225.3" font-family="Times,serif" font-size="14.00">pipe:[331683264]#ServerID_34e86192c217</text>
</g>
<!-- 10_node#ServerID_34e86192c217&#45;&gt;pipe:[331683264]#ServerID_34e86192c217 -->
<g id="edge9" class="edge"><title>10_node#ServerID_34e86192c217&#45;&gt;pipe:[331683264]#ServerID_34e86192c217</title>
<path fill="none" stroke="black" d="M4222.44,-318.969C4232.91,-301.893 4249.17,-275.384 4261.22,-255.74"/>
<polygon fill="black" stroke="black" points="4264.34,-257.343 4266.58,-246.988 4258.37,-253.684 4264.34,-257.343"/>
<text text-anchor="middle" x="4262" y="-289.8" font-family="Times,serif" font-size="14.00">write</text>
</g>
<!-- 10.152.183.10:53#ServerID_OuterContainerID -->
<g id="node11" class="node"><title>10.152.183.10:53#ServerID_OuterContainerID</title>
<polygon fill="none" stroke="black" points="3709,-247 3381.56,-229 3709,-211 4036.44,-229 3709,-247"/>
<text text-anchor="middle" x="3709" y="-225.3" font-family="Times,serif" font-size="14.00">10.152.183.10:53#ServerID_OuterContainerID</text>
</g>
<!-- 10_node#ServerID_34e86192c217&#45;&gt;10.152.183.10:53#ServerID_OuterContainerID -->
<g id="edge14" class="edge"><title>10_node#ServerID_34e86192c217&#45;&gt;10.152.183.10:53#ServerID_OuterContainerID</title>
<path fill="none" stroke="black" d="M4165.07,-318.924C4134.37,-308.259 4093.2,-294.91 4056,-286 3976.53,-266.966 3885.25,-252.522 3816.26,-243.074"/>
<polygon fill="black" stroke="black" points="3816.63,-239.592 3806.25,-241.716 3815.69,-246.528 3816.63,-239.592"/>
<text text-anchor="middle" x="4133.5" y="-289.8" font-family="Times,serif" font-size="14.00">sendto</text>
</g>
<!-- localhost:3000#ServerID_34e86192c217 -->
<g id="node9" class="node"><title>localhost:3000#ServerID_34e86192c217</title>
<polygon fill="none" stroke="black" points="5153,-463 4866.45,-445 5153,-427 5439.55,-445 5153,-463"/>
<text text-anchor="middle" x="5153" y="-441.3" font-family="Times,serif" font-size="14.00">localhost:3000#ServerID_34e86192c217</text>
</g>
<!-- localhost:3000#ServerID_34e86192c217&#45;&gt;10_node#ServerID_34e86192c217 -->
<g id="edge10" class="edge"><title>localhost:3000#ServerID_34e86192c217&#45;&gt;10_node#ServerID_34e86192c217</title>
<path fill="none" stroke="black" d="M5055.84,-433.055C4889.57,-414.325 4549.67,-376.038 4355.84,-354.203"/>
<polygon fill="black" stroke="black" points="4356.19,-350.72 4345.86,-353.079 4355.41,-357.676 4356.19,-350.72"/>
<text text-anchor="middle" x="4837.5" y="-397.8" font-family="Times,serif" font-size="14.00">read</text>
</g>
<!-- /etc/hosts#ServerID_34e86192c217 -->
<g id="node10" class="node"><title>/etc/hosts#ServerID_34e86192c217</title>
<ellipse fill="none" stroke="black" cx="4668" cy="-445" rx="180.068" ry="18"/>
<text text-anchor="middle" x="4668" y="-441.3" font-family="Times,serif" font-size="14.00">/etc/hosts#ServerID_34e86192c217</text>
</g>
<!-- /etc/hosts#ServerID_34e86192c217&#45;&gt;10_node#ServerID_34e86192c217 -->
<g id="edge11" class="edge"><title>/etc/hosts#ServerID_34e86192c217&#45;&gt;10_node#ServerID_34e86192c217</title>
<path fill="none" stroke="black" d="M4600.22,-428.245C4519,-409.364 4382.92,-377.732 4295.35,-357.374"/>
<polygon fill="black" stroke="black" points="4295.98,-353.927 4285.44,-355.072 4294.39,-360.745 4295.98,-353.927"/>
<text text-anchor="middle" x="4523.5" y="-397.8" font-family="Times,serif" font-size="14.00">read</text>
</g>
<!-- 10.152.183.10:53#ServerID_OuterContainerID&#45;&gt;10_node#ServerID_34e86192c217 -->
<g id="edge13" class="edge"><title>10.152.183.10:53#ServerID_OuterContainerID&#45;&gt;10_node#ServerID_34e86192c217</title>
<path fill="none" stroke="black" d="M3759.7,-244.294C3815.72,-259.742 3908.79,-284.374 3990,-301 4019.28,-306.994 4050.91,-312.534 4080.86,-317.355"/>
<polygon fill="black" stroke="black" points="4080.52,-320.846 4090.95,-318.962 4081.63,-313.933 4080.52,-320.846"/>
<text text-anchor="middle" x="4023" y="-289.8" font-family="Times,serif" font-size="14.00">recvfrom</text>
</g>
<!-- 1_fwatchdog#ServerID_e56b6537e2d5 -->
<g id="node12" class="node"><title>1_fwatchdog#ServerID_e56b6537e2d5</title>
<polygon fill="none" stroke="black" points="5185.5,-139 4886.5,-139 4886.5,-103 5185.5,-103 5185.5,-139"/>
<text text-anchor="middle" x="5036" y="-117.3" font-family="Times,serif" font-size="14.00">1_fwatchdog#ServerID_e56b6537e2d5</text>
</g>
<!-- localhost:3000#ServerID_e56b6537e2d5 -->
<g id="node13" class="node"><title>localhost:3000#ServerID_e56b6537e2d5</title>
<polygon fill="none" stroke="black" points="5147,-52 4860.45,-34 5147,-16 5433.55,-34 5147,-52"/>
<text text-anchor="middle" x="5147" y="-30.3" font-family="Times,serif" font-size="14.00">localhost:3000#ServerID_e56b6537e2d5</text>
</g>
<!-- 1_fwatchdog#ServerID_e56b6537e2d5&#45;&gt;localhost:3000#ServerID_e56b6537e2d5 -->
<g id="edge15" class="edge"><title>1_fwatchdog#ServerID_e56b6537e2d5&#45;&gt;localhost:3000#ServerID_e56b6537e2d5</title>
<path fill="none" stroke="black" d="M5058.46,-102.799C5075.71,-89.5898 5099.66,-71.2542 5118.3,-56.9811"/>
<polygon fill="black" stroke="black" points="5120.63,-59.6008 5126.44,-50.7421 5116.38,-54.0431 5120.63,-59.6008"/>
<text text-anchor="middle" x="5127" y="-73.8" font-family="Times,serif" font-size="14.00">connect</text>
</g>
<!-- 10.1.80.247:48044#ServerID_OuterContainerID -->
<g id="node14" class="node"><title>10.1.80.247:48044#ServerID_OuterContainerID</title>
<polygon fill="none" stroke="black" points="2402,-247 2066.52,-229 2402,-211 2737.48,-229 2402,-247"/>
<text text-anchor="middle" x="2402" y="-225.3" font-family="Times,serif" font-size="14.00">10.1.80.247:48044#ServerID_OuterContainerID</text>
</g>
<!-- 10.1.80.247:48044#ServerID_OuterContainerID&#45;&gt;1_fwatchdog#ServerID_e56b6537e2d5 -->
<g id="edge16" class="edge"><title>10.1.80.247:48044#ServerID_OuterContainerID&#45;&gt;1_fwatchdog#ServerID_e56b6537e2d5</title>
<path fill="none" stroke="black" d="M2523.24,-217.471C2589.33,-212.171 2672.6,-206.205 2747,-203 3195.75,-183.667 4320.96,-213.721 4768,-170 4829.21,-164.013 4897.43,-151.713 4949.72,-141.063"/>
<polygon fill="black" stroke="black" points="4950.54,-144.468 4959.63,-139.026 4949.13,-137.612 4950.54,-144.468"/>
<text text-anchor="middle" x="4664.5" y="-181.8" font-family="Times,serif" font-size="14.00">read</text>
</g>
<!-- /etc/resolv.conf#ServerID_34e86192c217 -->
<g id="node15" class="node"><title>/etc/resolv.conf#ServerID_34e86192c217</title>
<ellipse fill="none" stroke="black" cx="4265" cy="-445" rx="205.264" ry="18"/>
<text text-anchor="middle" x="4265" y="-441.3" font-family="Times,serif" font-size="14.00">/etc/resolv.conf#ServerID_34e86192c217</text>
</g>
<!-- /etc/resolv.conf#ServerID_34e86192c217&#45;&gt;10_node#ServerID_34e86192c217 -->
<g id="edge17" class="edge"><title>/etc/resolv.conf#ServerID_34e86192c217&#45;&gt;10_node#ServerID_34e86192c217</title>
<path fill="none" stroke="black" d="M4256.48,-426.969C4248.04,-410.071 4234.97,-383.935 4225.18,-364.356"/>
<polygon fill="black" stroke="black" points="4228.27,-362.72 4220.67,-355.341 4222.01,-365.85 4228.27,-362.72"/>
<text text-anchor="middle" x="4263.5" y="-397.8" font-family="Times,serif" font-size="14.00">read</text>
</g>
<!-- 12_node#ServerID_e56b6537e2d5 -->
<g id="node16" class="node"><title>12_node#ServerID_e56b6537e2d5</title>
<polygon fill="none" stroke="black" points="4758.5,-139 4491.5,-139 4491.5,-103 4758.5,-103 4758.5,-139"/>
<text text-anchor="middle" x="4625" y="-117.3" font-family="Times,serif" font-size="14.00">12_node#ServerID_e56b6537e2d5</text>
</g>
<!-- pipe:[331682415]#ServerID_e56b6537e2d5 -->
<g id="node17" class="node"><title>pipe:[331682415]#ServerID_e56b6537e2d5</title>
<ellipse fill="none" stroke="black" cx="4625" cy="-34" rx="217.162" ry="18"/>
<text text-anchor="middle" x="4625" y="-30.3" font-family="Times,serif" font-size="14.00">pipe:[331682415]#ServerID_e56b6537e2d5</text>
</g>
<!-- 12_node#ServerID_e56b6537e2d5&#45;&gt;pipe:[331682415]#ServerID_e56b6537e2d5 -->
<g id="edge18" class="edge"><title>12_node#ServerID_e56b6537e2d5&#45;&gt;pipe:[331682415]#ServerID_e56b6537e2d5</title>
<path fill="none" stroke="black" d="M4625,-102.799C4625,-91.1626 4625,-75.5479 4625,-62.2368"/>
<polygon fill="black" stroke="black" points="4628.5,-62.1754 4625,-52.1754 4621.5,-62.1755 4628.5,-62.1754"/>
<text text-anchor="middle" x="4644" y="-73.8" font-family="Times,serif" font-size="14.00">write</text>
</g>
<!-- 10.1.80.1:39155#ServerID_OuterContainerID&#45;&gt;10.1.80.247:8080#ServerID_OuterContainerID -->
<g id="edge21" class="edge"><title>10.1.80.1:39155#ServerID_OuterContainerID&#45;&gt;10.1.80.247:8080#ServerID_OuterContainerID</title>
<path fill="none" stroke="black" d="M963.364,-138.782C959.321,-154.042 956.142,-176.614 966,-193 969.504,-198.824 974.339,-203.731 979.814,-207.851"/>
<polygon fill="black" stroke="black" points="977.926,-210.798 988.211,-213.34 981.756,-204.939 977.926,-210.798"/>
<text text-anchor="middle" x="986" y="-181.8" font-family="Times,serif" font-size="14.00">POST</text>
</g>
</g>
</svg>
