<?xml version="1.0" encoding="UTF-8" standalone="no"?>
<!DOCTYPE svg PUBLIC "-//W3C//DTD SVG 1.1//EN"
 "http://www.w3.org/Graphics/SVG/1.1/DTD/svg11.dtd">
<!-- Generated by graphviz version 2.38.0 (20140413.2041)
 -->
<!-- Title: G Pages: 1 -->
<svg width="4779pt" height="771pt"
 viewBox="0.00 0.00 4779.00 771.00" xmlns="http://www.w3.org/2000/svg" xmlns:xlink="http://www.w3.org/1999/xlink">
<g id="graph0" class="graph" transform="scale(1 1) rotate(0) translate(4 767)">
<title>G</title>
<polygon fill="white" stroke="none" points="-4,4 -4,-767 4775,-767 4775,4 -4,4"/>
<g id="clust1" class="cluster"><title>clusterServerID_34e86192c217</title>
<polygon fill="none" stroke="black" points="3363,-377 3363,-755 4759,-755 4759,-377 3363,-377"/>
<text text-anchor="middle" x="4061" y="-739.8" font-family="Times,serif" font-size="14.00">clusterServerID_34e86192c217</text>
</g>
<g id="clust2" class="cluster"><title>clusterServerID_5f846fd567&#45;w7nbt</title>
<polygon fill="none" stroke="black" points="3363,-269 3363,-344 3703,-344 3703,-269 3363,-269"/>
<text text-anchor="middle" x="3533" y="-328.8" font-family="Times,serif" font-size="14.00">clusterServerID_5f846fd567&#45;w7nbt</text>
</g>
<g id="clust3" class="cluster"><title>clusterServerID_6df85d7674&#45;2kqrj</title>
<polygon fill="none" stroke="black" points="1543,-485 1543,-560 1881,-560 1881,-485 1543,-485"/>
<text text-anchor="middle" x="1712" y="-544.8" font-family="Times,serif" font-size="14.00">clusterServerID_6df85d7674&#45;2kqrj</text>
</g>
<g id="clust4" class="cluster"><title>clusterServerID_OuterContainerID</title>
<polygon fill="none" stroke="black" points="8,-269 8,-452 3355,-452 3355,-269 8,-269"/>
<text text-anchor="middle" x="1681.5" y="-436.8" font-family="Times,serif" font-size="14.00">clusterServerID_OuterContainerID</text>
</g>
<g id="clust5" class="cluster"><title>clusterServerID_e56b6537e2d5</title>
<polygon fill="none" stroke="black" points="3711,-8 3711,-344 4753,-344 4753,-8 3711,-8"/>
<text text-anchor="middle" x="4232" y="-328.8" font-family="Times,serif" font-size="14.00">clusterServerID_e56b6537e2d5</text>
</g>
<!-- 1_fwatchdog#ServerID_6df85d7674&#45;2kqrj -->
<g id="node1" class="node"><title>1_fwatchdog#ServerID_6df85d7674&#45;2kqrj</title>
<polygon fill="none" stroke="black" points="1872.5,-529 1551.5,-529 1551.5,-493 1872.5,-493 1872.5,-529"/>
<text text-anchor="middle" x="1712" y="-507.3" font-family="Times,serif" font-size="14.00">1_fwatchdog#ServerID_6df85d7674&#45;2kqrj</text>
</g>
<!-- 10.1.80.247:8080#ServerID_OuterContainerID -->
<g id="node2" class="node"><title>10.1.80.247:8080#ServerID_OuterContainerID</title>
<polygon fill="none" stroke="black" points="343,-421 15.5599,-403 343,-385 670.44,-403 343,-421"/>
<text text-anchor="middle" x="343" y="-399.3" font-family="Times,serif" font-size="14.00">10.1.80.247:8080#ServerID_OuterContainerID</text>
</g>
<!-- 1_fwatchdog#ServerID_6df85d7674&#45;2kqrj&#45;&gt;10.1.80.247:8080#ServerID_OuterContainerID -->
<g id="edge1" class="edge"><title>1_fwatchdog#ServerID_6df85d7674&#45;2kqrj&#45;&gt;10.1.80.247:8080#ServerID_OuterContainerID</title>
<path fill="none" stroke="black" d="M1551.23,-505.214C1347.95,-498.187 987.371,-482.471 680,-452 594.695,-443.543 497.865,-429.259 429.959,-418.467"/>
<polygon fill="black" stroke="black" points="430.162,-414.955 419.735,-416.834 429.057,-421.867 430.162,-414.955"/>
<text text-anchor="middle" x="955" y="-463.8" font-family="Times,serif" font-size="14.00">POST</text>
</g>
<!-- 10.1.80.247:46082#ServerID_OuterContainerID -->
<g id="node3" class="node"><title>10.1.80.247:46082#ServerID_OuterContainerID</title>
<polygon fill="none" stroke="black" points="1713,-421 1377.52,-403 1713,-385 2048.48,-403 1713,-421"/>
<text text-anchor="middle" x="1713" y="-399.3" font-family="Times,serif" font-size="14.00">10.1.80.247:46082#ServerID_OuterContainerID</text>
</g>
<!-- 1_fwatchdog#ServerID_6df85d7674&#45;2kqrj&#45;&gt;10.1.80.247:46082#ServerID_OuterContainerID -->
<g id="edge8" class="edge"><title>1_fwatchdog#ServerID_6df85d7674&#45;2kqrj&#45;&gt;10.1.80.247:46082#ServerID_OuterContainerID</title>
<path fill="none" stroke="black" d="M1673.07,-492.889C1660.19,-484.513 1650.4,-473.341 1656,-460 1661.43,-447.053 1671.47,-435.591 1681.64,-426.463"/>
<polygon fill="black" stroke="black" points="1683.97,-429.075 1689.36,-419.952 1679.46,-423.724 1683.97,-429.075"/>
<text text-anchor="middle" x="1698" y="-463.8" font-family="Times,serif" font-size="14.00">RESPONSE</text>
</g>
<!-- gateway:8080#ServerID_OuterContainerID -->
<g id="node4" class="node"><title>gateway:8080#ServerID_OuterContainerID</title>
<polygon fill="none" stroke="black" points="2371,-421 2066.52,-403 2371,-385 2675.48,-403 2371,-421"/>
<text text-anchor="middle" x="2371" y="-399.3" font-family="Times,serif" font-size="14.00">gateway:8080#ServerID_OuterContainerID</text>
</g>
<!-- 1_fwatchdog#ServerID_6df85d7674&#45;2kqrj&#45;&gt;gateway:8080#ServerID_OuterContainerID -->
<g id="edge5" class="edge"><title>1_fwatchdog#ServerID_6df85d7674&#45;2kqrj&#45;&gt;gateway:8080#ServerID_OuterContainerID</title>
<path fill="none" stroke="black" d="M1872.63,-502.4C1945.48,-497.283 2032.5,-488.836 2110,-475 2182.96,-461.975 2265.16,-438.024 2317.48,-421.569"/>
<polygon fill="black" stroke="black" points="2318.74,-424.843 2327.21,-418.486 2316.62,-418.17 2318.74,-424.843"/>
<text text-anchor="middle" x="2196" y="-463.8" font-family="Times,serif" font-size="14.00">POST</text>
</g>
<!-- 10.1.80.247:8080#ServerID_OuterContainerID&#45;&gt;1_fwatchdog#ServerID_6df85d7674&#45;2kqrj -->
<g id="edge3" class="edge"><title>10.1.80.247:8080#ServerID_OuterContainerID&#45;&gt;1_fwatchdog#ServerID_6df85d7674&#45;2kqrj</title>
<path fill="none" stroke="black" d="M416.683,-416.98C484.771,-428.382 588.87,-444.316 680,-452 812.466,-463.169 846.213,-453.697 979,-460 1171.74,-469.148 1392.64,-484.944 1541.12,-496.336"/>
<polygon fill="black" stroke="black" points="1541,-499.837 1551.24,-497.114 1541.54,-492.858 1541,-499.837"/>
<text text-anchor="middle" x="1284" y="-463.8" font-family="Times,serif" font-size="14.00">RESPONSE</text>
</g>
<!-- 10.1.80.1:26211#ServerID_OuterContainerID -->
<g id="node19" class="node"><title>10.1.80.1:26211#ServerID_OuterContainerID</title>
<polygon fill="none" stroke="black" points="335,-313 16.1049,-295 335,-277 653.895,-295 335,-313"/>
<text text-anchor="middle" x="335" y="-291.3" font-family="Times,serif" font-size="14.00">10.1.80.1:26211#ServerID_OuterContainerID</text>
</g>
<!-- 10.1.80.247:8080#ServerID_OuterContainerID&#45;&gt;10.1.80.1:26211#ServerID_OuterContainerID -->
<g id="edge25" class="edge"><title>10.1.80.247:8080#ServerID_OuterContainerID&#45;&gt;10.1.80.1:26211#ServerID_OuterContainerID</title>
<path fill="none" stroke="black" d="M303.089,-387.103C294.688,-382.04 286.895,-375.453 282,-367 271.93,-349.613 285.936,-331.484 302.069,-317.897"/>
<polygon fill="black" stroke="black" points="304.364,-320.546 310.064,-311.615 300.039,-315.041 304.364,-320.546"/>
<text text-anchor="middle" x="324" y="-355.8" font-family="Times,serif" font-size="14.00">RESPONSE</text>
</g>
<!-- 10.0.88.125:31112#ServerID_OuterContainerID -->
<g id="node20" class="node"><title>10.0.88.125:31112#ServerID_OuterContainerID</title>
<polygon fill="none" stroke="black" points="1007,-313 671.515,-295 1007,-277 1342.48,-295 1007,-313"/>
<text text-anchor="middle" x="1007" y="-291.3" font-family="Times,serif" font-size="14.00">10.0.88.125:31112#ServerID_OuterContainerID</text>
</g>
<!-- 10.1.80.247:8080#ServerID_OuterContainerID&#45;&gt;10.0.88.125:31112#ServerID_OuterContainerID -->
<g id="edge26" class="edge"><title>10.1.80.247:8080#ServerID_OuterContainerID&#45;&gt;10.0.88.125:31112#ServerID_OuterContainerID</title>
<path fill="none" stroke="black" d="M422.434,-389.319C546.818,-369.463 786.788,-331.154 917.247,-310.328"/>
<polygon fill="black" stroke="black" points="917.893,-313.769 927.216,-308.737 916.789,-306.857 917.893,-313.769"/>
<text text-anchor="middle" x="698" y="-355.8" font-family="Times,serif" font-size="14.00">RESPONSE</text>
</g>
<!-- 10.1.80.247:46082#ServerID_OuterContainerID&#45;&gt;1_fwatchdog#ServerID_6df85d7674&#45;2kqrj -->
<g id="edge2" class="edge"><title>10.1.80.247:46082#ServerID_OuterContainerID&#45;&gt;1_fwatchdog#ServerID_6df85d7674&#45;2kqrj</title>
<path fill="none" stroke="black" d="M1728.08,-420.48C1739.24,-434.767 1751.35,-456.067 1744,-475 1742.64,-478.507 1740.74,-481.876 1738.55,-485.046"/>
<polygon fill="black" stroke="black" points="1735.75,-482.944 1732.2,-492.928 1741.2,-487.335 1735.75,-482.944"/>
<text text-anchor="middle" x="1767" y="-463.8" font-family="Times,serif" font-size="14.00">POST</text>
</g>
<!-- 1_fwatchdog#ServerID_34e86192c217 -->
<g id="node7" class="node"><title>1_fwatchdog#ServerID_34e86192c217</title>
<polygon fill="none" stroke="black" points="4279.5,-724 3980.5,-724 3980.5,-688 4279.5,-688 4279.5,-724"/>
<text text-anchor="middle" x="4130" y="-702.3" font-family="Times,serif" font-size="14.00">1_fwatchdog#ServerID_34e86192c217</text>
</g>
<!-- 10.1.80.247:46082#ServerID_OuterContainerID&#45;&gt;1_fwatchdog#ServerID_34e86192c217 -->
<g id="edge10" class="edge"><title>10.1.80.247:46082#ServerID_OuterContainerID&#45;&gt;1_fwatchdog#ServerID_34e86192c217</title>
<path fill="none" stroke="black" d="M1786.39,-417.103C1856.03,-428.848 1963.75,-445.237 2058,-452 2234.1,-464.638 3470.82,-448.44 3647,-460 3895.78,-476.324 4595.16,-413.961 4760,-601 4770.58,-613.004 4770.69,-625.095 4760,-637 4729.04,-671.478 4465.96,-690.027 4289.7,-698.68"/>
<polygon fill="black" stroke="black" points="4289.35,-695.193 4279.54,-699.173 4289.69,-702.185 4289.35,-695.193"/>
<text text-anchor="middle" x="4754.5" y="-571.8" font-family="Times,serif" font-size="14.00">read</text>
</g>
<!-- gateway:8080#ServerID_OuterContainerID&#45;&gt;1_fwatchdog#ServerID_6df85d7674&#45;2kqrj -->
<g id="edge4" class="edge"><title>gateway:8080#ServerID_OuterContainerID&#45;&gt;1_fwatchdog#ServerID_6df85d7674&#45;2kqrj</title>
<path fill="none" stroke="black" d="M2293.24,-416.508C2178.12,-435.025 1961.58,-469.855 1827.77,-491.379"/>
<polygon fill="black" stroke="black" points="1827.2,-487.926 1817.88,-492.969 1828.31,-494.837 1827.2,-487.926"/>
<text text-anchor="middle" x="2064" y="-463.8" font-family="Times,serif" font-size="14.00">RESPONSE</text>
</g>
<!-- 10.1.80.247:48072#ServerID_OuterContainerID -->
<g id="node5" class="node"><title>10.1.80.247:48072#ServerID_OuterContainerID</title>
<polygon fill="none" stroke="black" points="1024,-421 688.515,-403 1024,-385 1359.48,-403 1024,-421"/>
<text text-anchor="middle" x="1024" y="-399.3" font-family="Times,serif" font-size="14.00">10.1.80.247:48072#ServerID_OuterContainerID</text>
</g>
<!-- 1_fwatchdog#ServerID_5f846fd567&#45;w7nbt -->
<g id="node6" class="node"><title>1_fwatchdog#ServerID_5f846fd567&#45;w7nbt</title>
<polygon fill="none" stroke="black" points="3695,-313 3371,-313 3371,-277 3695,-277 3695,-313"/>
<text text-anchor="middle" x="3533" y="-291.3" font-family="Times,serif" font-size="14.00">1_fwatchdog#ServerID_5f846fd567&#45;w7nbt</text>
</g>
<!-- 10.1.80.247:48072#ServerID_OuterContainerID&#45;&gt;1_fwatchdog#ServerID_5f846fd567&#45;w7nbt -->
<g id="edge6" class="edge"><title>10.1.80.247:48072#ServerID_OuterContainerID&#45;&gt;1_fwatchdog#ServerID_5f846fd567&#45;w7nbt</title>
<path fill="none" stroke="black" d="M1147.26,-391.61C1213.03,-386.434 1295.37,-380.541 1369,-377 1835.7,-354.553 1952.82,-359.546 2420,-352 2472.16,-351.157 3307.33,-351.22 3359,-344 3398.4,-338.494 3441.52,-326.642 3474.98,-316.094"/>
<polygon fill="black" stroke="black" points="3476.14,-319.399 3484.59,-313.016 3474,-312.732 3476.14,-319.399"/>
<text text-anchor="middle" x="2440" y="-355.8" font-family="Times,serif" font-size="14.00">POST</text>
</g>
<!-- 1_fwatchdog#ServerID_e56b6537e2d5 -->
<g id="node14" class="node"><title>1_fwatchdog#ServerID_e56b6537e2d5</title>
<polygon fill="none" stroke="black" points="4155.5,-313 3856.5,-313 3856.5,-277 4155.5,-277 4155.5,-313"/>
<text text-anchor="middle" x="4006" y="-291.3" font-family="Times,serif" font-size="14.00">1_fwatchdog#ServerID_e56b6537e2d5</text>
</g>
<!-- 10.1.80.247:48072#ServerID_OuterContainerID&#45;&gt;1_fwatchdog#ServerID_e56b6537e2d5 -->
<g id="edge18" class="edge"><title>10.1.80.247:48072#ServerID_OuterContainerID&#45;&gt;1_fwatchdog#ServerID_e56b6537e2d5</title>
<path fill="none" stroke="black" d="M1143.24,-391.375C1209.64,-385.957 1293.84,-379.91 1369,-377 1807.79,-360.011 2906.14,-382.039 3345,-367 3506.12,-361.479 3546.78,-361.908 3707,-344 3773.06,-336.616 3846.8,-324.817 3904.52,-314.766"/>
<polygon fill="black" stroke="black" points="3905.13,-318.213 3914.38,-313.04 3903.92,-311.318 3905.13,-318.213"/>
<text text-anchor="middle" x="3647.5" y="-355.8" font-family="Times,serif" font-size="14.00">read</text>
</g>
<!-- 1_fwatchdog#ServerID_5f846fd567&#45;w7nbt&#45;&gt;10.1.80.247:48072#ServerID_OuterContainerID -->
<g id="edge7" class="edge"><title>1_fwatchdog#ServerID_5f846fd567&#45;w7nbt&#45;&gt;10.1.80.247:48072#ServerID_OuterContainerID</title>
<path fill="none" stroke="black" d="M3483.81,-313.026C3449.34,-324.1 3401.93,-337.627 3359,-344 3140.26,-376.472 1589.96,-367.991 1369,-377 1297.95,-379.897 1218.81,-385.463 1154.27,-390.609"/>
<polygon fill="black" stroke="black" points="1153.73,-387.141 1144.04,-391.431 1154.29,-394.119 1153.73,-387.141"/>
<text text-anchor="middle" x="3299" y="-355.8" font-family="Times,serif" font-size="14.00">RESPONSE</text>
</g>
<!-- localhost:3000#ServerID_34e86192c217 -->
<g id="node8" class="node"><title>localhost:3000#ServerID_34e86192c217</title>
<polygon fill="none" stroke="black" points="3658,-637 3371.45,-619 3658,-601 3944.55,-619 3658,-637"/>
<text text-anchor="middle" x="3658" y="-615.3" font-family="Times,serif" font-size="14.00">localhost:3000#ServerID_34e86192c217</text>
</g>
<!-- 1_fwatchdog#ServerID_34e86192c217&#45;&gt;localhost:3000#ServerID_34e86192c217 -->
<g id="edge9" class="edge"><title>1_fwatchdog#ServerID_34e86192c217&#45;&gt;localhost:3000#ServerID_34e86192c217</title>
<path fill="none" stroke="black" d="M4035.33,-687.952C3948.27,-672.274 3820.59,-649.28 3738.37,-634.474"/>
<polygon fill="black" stroke="black" points="3738.79,-630.993 3728.33,-632.665 3737.55,-637.882 3738.79,-630.993"/>
<text text-anchor="middle" x="3941" y="-658.8" font-family="Times,serif" font-size="14.00">write</text>
</g>
<!-- 10_node#ServerID_34e86192c217 -->
<g id="node9" class="node"><title>10_node#ServerID_34e86192c217</title>
<polygon fill="none" stroke="black" points="3738.5,-529 3471.5,-529 3471.5,-493 3738.5,-493 3738.5,-529"/>
<text text-anchor="middle" x="3605" y="-507.3" font-family="Times,serif" font-size="14.00">10_node#ServerID_34e86192c217</text>
</g>
<!-- localhost:3000#ServerID_34e86192c217&#45;&gt;10_node#ServerID_34e86192c217 -->
<g id="edge23" class="edge"><title>localhost:3000#ServerID_34e86192c217&#45;&gt;10_node#ServerID_34e86192c217</title>
<path fill="none" stroke="black" d="M3649.72,-601.438C3641.26,-584.524 3628.01,-558.016 3618.12,-538.243"/>
<polygon fill="black" stroke="black" points="3621.18,-536.528 3613.57,-529.149 3614.92,-539.658 3621.18,-536.528"/>
<text text-anchor="middle" x="3656.5" y="-571.8" font-family="Times,serif" font-size="14.00">read</text>
</g>
<!-- 10_node#ServerID_34e86192c217&#45;&gt;gateway:8080#ServerID_OuterContainerID -->
<g id="edge16" class="edge"><title>10_node#ServerID_34e86192c217&#45;&gt;gateway:8080#ServerID_OuterContainerID</title>
<path fill="none" stroke="black" d="M3471.23,-505.323C3291.72,-498.191 2963.15,-482.133 2684,-452 2605.01,-443.473 2515.45,-429.276 2452.43,-418.529"/>
<polygon fill="black" stroke="black" points="2453,-415.075 2442.55,-416.835 2451.82,-421.974 2453,-415.075"/>
<text text-anchor="middle" x="2966" y="-463.8" font-family="Times,serif" font-size="14.00">connect</text>
</g>
<!-- pipe:[331683264]#ServerID_34e86192c217 -->
<g id="node10" class="node"><title>pipe:[331683264]#ServerID_34e86192c217</title>
<ellipse fill="none" stroke="black" cx="3605" cy="-403" rx="217.162" ry="18"/>
<text text-anchor="middle" x="3605" y="-399.3" font-family="Times,serif" font-size="14.00">pipe:[331683264]#ServerID_34e86192c217</text>
</g>
<!-- 10_node#ServerID_34e86192c217&#45;&gt;pipe:[331683264]#ServerID_34e86192c217 -->
<g id="edge11" class="edge"><title>10_node#ServerID_34e86192c217&#45;&gt;pipe:[331683264]#ServerID_34e86192c217</title>
<path fill="none" stroke="black" d="M3605,-492.969C3605,-476.378 3605,-450.883 3605,-431.431"/>
<polygon fill="black" stroke="black" points="3608.5,-431.341 3605,-421.341 3601.5,-431.341 3608.5,-431.341"/>
<text text-anchor="middle" x="3624" y="-463.8" font-family="Times,serif" font-size="14.00">write</text>
</g>
<!-- 10.152.183.10:53#ServerID_OuterContainerID -->
<g id="node13" class="node"><title>10.152.183.10:53#ServerID_OuterContainerID</title>
<polygon fill="none" stroke="black" points="3020,-421 2692.56,-403 3020,-385 3347.44,-403 3020,-421"/>
<text text-anchor="middle" x="3020" y="-399.3" font-family="Times,serif" font-size="14.00">10.152.183.10:53#ServerID_OuterContainerID</text>
</g>
<!-- 10_node#ServerID_34e86192c217&#45;&gt;10.152.183.10:53#ServerID_OuterContainerID -->
<g id="edge14" class="edge"><title>10_node#ServerID_34e86192c217&#45;&gt;10.152.183.10:53#ServerID_OuterContainerID</title>
<path fill="none" stroke="black" d="M3471.37,-494.757C3428.93,-489.291 3381.89,-482.579 3339,-475 3250.83,-459.419 3150.14,-436.068 3085.88,-420.447"/>
<polygon fill="black" stroke="black" points="3086.43,-416.978 3075.88,-418.008 3084.77,-423.779 3086.43,-416.978"/>
<text text-anchor="middle" x="3363.5" y="-463.8" font-family="Times,serif" font-size="14.00">sendto</text>
</g>
<!-- /etc/hosts#ServerID_34e86192c217 -->
<g id="node11" class="node"><title>/etc/hosts#ServerID_34e86192c217</title>
<ellipse fill="none" stroke="black" cx="4571" cy="-619" rx="180.068" ry="18"/>
<text text-anchor="middle" x="4571" y="-615.3" font-family="Times,serif" font-size="14.00">/etc/hosts#ServerID_34e86192c217</text>
</g>
<!-- /etc/hosts#ServerID_34e86192c217&#45;&gt;10_node#ServerID_34e86192c217 -->
<g id="edge12" class="edge"><title>/etc/hosts#ServerID_34e86192c217&#45;&gt;10_node#ServerID_34e86192c217</title>
<path fill="none" stroke="black" d="M4454.48,-605.214C4277.37,-585.78 3940.79,-548.846 3748.74,-527.773"/>
<polygon fill="black" stroke="black" points="3748.9,-524.269 3738.58,-526.657 3748.13,-531.227 3748.9,-524.269"/>
<text text-anchor="middle" x="4246.5" y="-571.8" font-family="Times,serif" font-size="14.00">read</text>
</g>
<!-- /etc/resolv.conf#ServerID_34e86192c217 -->
<g id="node12" class="node"><title>/etc/resolv.conf#ServerID_34e86192c217</title>
<ellipse fill="none" stroke="black" cx="4168" cy="-619" rx="205.264" ry="18"/>
<text text-anchor="middle" x="4168" y="-615.3" font-family="Times,serif" font-size="14.00">/etc/resolv.conf#ServerID_34e86192c217</text>
</g>
<!-- /etc/resolv.conf#ServerID_34e86192c217&#45;&gt;10_node#ServerID_34e86192c217 -->
<g id="edge13" class="edge"><title>/etc/resolv.conf#ServerID_34e86192c217&#45;&gt;10_node#ServerID_34e86192c217</title>
<path fill="none" stroke="black" d="M4085.53,-602.473C3984.68,-583.486 3814.05,-551.36 3705.59,-530.939"/>
<polygon fill="black" stroke="black" points="3706.1,-527.473 3695.62,-529.062 3704.8,-534.352 3706.1,-527.473"/>
<text text-anchor="middle" x="3985.5" y="-571.8" font-family="Times,serif" font-size="14.00">read</text>
</g>
<!-- 10.152.183.10:53#ServerID_OuterContainerID&#45;&gt;10_node#ServerID_34e86192c217 -->
<g id="edge15" class="edge"><title>10.152.183.10:53#ServerID_OuterContainerID&#45;&gt;10_node#ServerID_34e86192c217</title>
<path fill="none" stroke="black" d="M3111.82,-416.013C3186.47,-426.25 3294.37,-442.116 3388,-460 3434.31,-468.845 3485.74,-480.609 3526.9,-490.504"/>
<polygon fill="black" stroke="black" points="3526.32,-493.965 3536.87,-492.911 3527.97,-487.161 3526.32,-493.965"/>
<text text-anchor="middle" x="3493" y="-463.8" font-family="Times,serif" font-size="14.00">recvfrom</text>
</g>
<!-- localhost:3000#ServerID_e56b6537e2d5 -->
<g id="node15" class="node"><title>localhost:3000#ServerID_e56b6537e2d5</title>
<polygon fill="none" stroke="black" points="4006,-226 3719.45,-208 4006,-190 4292.55,-208 4006,-226"/>
<text text-anchor="middle" x="4006" y="-204.3" font-family="Times,serif" font-size="14.00">localhost:3000#ServerID_e56b6537e2d5</text>
</g>
<!-- 1_fwatchdog#ServerID_e56b6537e2d5&#45;&gt;localhost:3000#ServerID_e56b6537e2d5 -->
<g id="edge17" class="edge"><title>1_fwatchdog#ServerID_e56b6537e2d5&#45;&gt;localhost:3000#ServerID_e56b6537e2d5</title>
<path fill="none" stroke="black" d="M3986.42,-276.764C3978.33,-267.482 3971.72,-255.583 3976,-244 3977.4,-240.224 3979.4,-236.58 3981.73,-233.162"/>
<polygon fill="black" stroke="black" points="3984.56,-235.214 3987.98,-225.186 3979.06,-230.893 3984.56,-235.214"/>
<text text-anchor="middle" x="3995" y="-247.8" font-family="Times,serif" font-size="14.00">write</text>
</g>
<!-- pipe:[331682317]#ServerID_e56b6537e2d5 -->
<g id="node18" class="node"><title>pipe:[331682317]#ServerID_e56b6537e2d5</title>
<ellipse fill="none" stroke="black" cx="4528" cy="-208" rx="217.162" ry="18"/>
<text text-anchor="middle" x="4528" y="-204.3" font-family="Times,serif" font-size="14.00">pipe:[331682317]#ServerID_e56b6537e2d5</text>
</g>
<!-- 1_fwatchdog#ServerID_e56b6537e2d5&#45;&gt;pipe:[331682317]#ServerID_e56b6537e2d5 -->
<g id="edge22" class="edge"><title>1_fwatchdog#ServerID_e56b6537e2d5&#45;&gt;pipe:[331682317]#ServerID_e56b6537e2d5</title>
<path fill="none" stroke="black" d="M4110.69,-276.952C4201.77,-262.121 4333.06,-240.743 4423.95,-225.943"/>
<polygon fill="black" stroke="black" points="4424.69,-229.368 4434,-224.307 4423.57,-222.459 4424.69,-229.368"/>
<text text-anchor="middle" x="4317" y="-247.8" font-family="Times,serif" font-size="14.00">write</text>
</g>
<!-- localhost:3000#ServerID_e56b6537e2d5&#45;&gt;1_fwatchdog#ServerID_e56b6537e2d5 -->
<g id="edge21" class="edge"><title>localhost:3000#ServerID_e56b6537e2d5&#45;&gt;1_fwatchdog#ServerID_e56b6537e2d5</title>
<path fill="none" stroke="black" d="M4011.05,-226.071C4013.32,-235.709 4015.24,-247.993 4014,-259 4013.71,-261.547 4013.31,-264.179 4012.84,-266.803"/>
<polygon fill="black" stroke="black" points="4009.39,-266.18 4010.77,-276.686 4016.25,-267.617 4009.39,-266.18"/>
<text text-anchor="middle" x="4030.5" y="-247.8" font-family="Times,serif" font-size="14.00">read</text>
</g>
<!-- 12_node#ServerID_e56b6537e2d5 -->
<g id="node16" class="node"><title>12_node#ServerID_e56b6537e2d5</title>
<polygon fill="none" stroke="black" points="4139.5,-139 3872.5,-139 3872.5,-103 4139.5,-103 4139.5,-139"/>
<text text-anchor="middle" x="4006" y="-117.3" font-family="Times,serif" font-size="14.00">12_node#ServerID_e56b6537e2d5</text>
</g>
<!-- localhost:3000#ServerID_e56b6537e2d5&#45;&gt;12_node#ServerID_e56b6537e2d5 -->
<g id="edge20" class="edge"><title>localhost:3000#ServerID_e56b6537e2d5&#45;&gt;12_node#ServerID_e56b6537e2d5</title>
<path fill="none" stroke="black" d="M4006,-189.799C4006,-178.163 4006,-162.548 4006,-149.237"/>
<polygon fill="black" stroke="black" points="4009.5,-149.175 4006,-139.175 4002.5,-149.175 4009.5,-149.175"/>
<text text-anchor="middle" x="4022.5" y="-160.8" font-family="Times,serif" font-size="14.00">read</text>
</g>
<!-- pipe:[331682415]#ServerID_e56b6537e2d5 -->
<g id="node17" class="node"><title>pipe:[331682415]#ServerID_e56b6537e2d5</title>
<ellipse fill="none" stroke="black" cx="4006" cy="-34" rx="217.162" ry="18"/>
<text text-anchor="middle" x="4006" y="-30.3" font-family="Times,serif" font-size="14.00">pipe:[331682415]#ServerID_e56b6537e2d5</text>
</g>
<!-- 12_node#ServerID_e56b6537e2d5&#45;&gt;pipe:[331682415]#ServerID_e56b6537e2d5 -->
<g id="edge19" class="edge"><title>12_node#ServerID_e56b6537e2d5&#45;&gt;pipe:[331682415]#ServerID_e56b6537e2d5</title>
<path fill="none" stroke="black" d="M4006,-102.799C4006,-91.1626 4006,-75.5479 4006,-62.2368"/>
<polygon fill="black" stroke="black" points="4009.5,-62.1754 4006,-52.1754 4002.5,-62.1755 4009.5,-62.1754"/>
<text text-anchor="middle" x="4025" y="-73.8" font-family="Times,serif" font-size="14.00">write</text>
</g>
<!-- 10.1.80.1:26211#ServerID_OuterContainerID&#45;&gt;10.1.80.247:8080#ServerID_OuterContainerID -->
<g id="edge24" class="edge"><title>10.1.80.1:26211#ServerID_OuterContainerID&#45;&gt;10.1.80.247:8080#ServerID_OuterContainerID</title>
<path fill="none" stroke="black" d="M348.743,-312.449C356.653,-323.019 365.828,-337.453 370,-352 371.838,-358.408 372.151,-360.69 370,-367 368.79,-370.55 367.057,-374.021 365.047,-377.312"/>
<polygon fill="black" stroke="black" points="362.147,-375.351 359.24,-385.54 367.866,-379.387 362.147,-375.351"/>
<text text-anchor="middle" x="392" y="-355.8" font-family="Times,serif" font-size="14.00">POST</text>
</g>
</g>
</svg>
