<?xml version="1.0" encoding="UTF-8" standalone="no"?>
<!DOCTYPE svg PUBLIC "-//W3C//DTD SVG 1.1//EN"
 "http://www.w3.org/Graphics/SVG/1.1/DTD/svg11.dtd">
<!-- Generated by graphviz version 2.38.0 (20140413.2041)
 -->
<!-- Title: G Pages: 1 -->
<svg width="4769pt" height="684pt"
 viewBox="0.00 0.00 4769.00 684.00" xmlns="http://www.w3.org/2000/svg" xmlns:xlink="http://www.w3.org/1999/xlink">
<g id="graph0" class="graph" transform="scale(1 1) rotate(0) translate(4 680)">
<title>G</title>
<polygon fill="white" stroke="none" points="-4,4 -4,-680 4765,-680 4765,4 -4,4"/>
<g id="clust1" class="cluster"><title>clusterServerID_34e86192c217</title>
<polygon fill="none" stroke="black" points="3363,-377 3363,-668 4485,-668 4485,-377 3363,-377"/>
<text text-anchor="middle" x="3924" y="-652.8" font-family="Times,serif" font-size="14.00">clusterServerID_34e86192c217</text>
</g>
<g id="clust2" class="cluster"><title>clusterServerID_5f846fd567&#45;w7nbt</title>
<polygon fill="none" stroke="black" points="3363,-269 3363,-344 3703,-344 3703,-269 3363,-269"/>
<text text-anchor="middle" x="3533" y="-328.8" font-family="Times,serif" font-size="14.00">clusterServerID_5f846fd567&#45;w7nbt</text>
</g>
<g id="clust3" class="cluster"><title>clusterServerID_6df85d7674&#45;2kqrj</title>
<polygon fill="none" stroke="black" points="862,-485 862,-560 1200,-560 1200,-485 862,-485"/>
<text text-anchor="middle" x="1031" y="-544.8" font-family="Times,serif" font-size="14.00">clusterServerID_6df85d7674&#45;2kqrj</text>
</g>
<g id="clust4" class="cluster"><title>clusterServerID_OuterContainerID</title>
<polygon fill="none" stroke="black" points="8,-269 8,-452 3355,-452 3355,-269 8,-269"/>
<text text-anchor="middle" x="1681.5" y="-436.8" font-family="Times,serif" font-size="14.00">clusterServerID_OuterContainerID</text>
</g>
<g id="clust5" class="cluster"><title>clusterServerID_e56b6537e2d5</title>
<polygon fill="none" stroke="black" points="3711,-8 3711,-344 4753,-344 4753,-8 3711,-8"/>
<text text-anchor="middle" x="4232" y="-328.8" font-family="Times,serif" font-size="14.00">clusterServerID_e56b6537e2d5</text>
</g>
<!-- 10.1.80.247:46082#ServerID_OuterContainerID -->
<g id="node1" class="node"><title>10.1.80.247:46082#ServerID_OuterContainerID</title>
<polygon fill="none" stroke="black" points="351,-421 15.5152,-403 351,-385 686.485,-403 351,-421"/>
<text text-anchor="middle" x="351" y="-399.3" font-family="Times,serif" font-size="14.00">10.1.80.247:46082#ServerID_OuterContainerID</text>
</g>
<!-- 1_fwatchdog#ServerID_6df85d7674&#45;2kqrj -->
<g id="node2" class="node"><title>1_fwatchdog#ServerID_6df85d7674&#45;2kqrj</title>
<polygon fill="none" stroke="black" points="1191.5,-529 870.5,-529 870.5,-493 1191.5,-493 1191.5,-529"/>
<text text-anchor="middle" x="1031" y="-507.3" font-family="Times,serif" font-size="14.00">1_fwatchdog#ServerID_6df85d7674&#45;2kqrj</text>
</g>
<!-- 10.1.80.247:46082#ServerID_OuterContainerID&#45;&gt;1_fwatchdog#ServerID_6df85d7674&#45;2kqrj -->
<g id="edge1" class="edge"><title>10.1.80.247:46082#ServerID_OuterContainerID&#45;&gt;1_fwatchdog#ServerID_6df85d7674&#45;2kqrj</title>
<path fill="none" stroke="black" d="M413.055,-417.673C485.467,-433.254 608.946,-458.668 716,-475 762.72,-482.127 813.549,-488.412 860.47,-493.617"/>
<polygon fill="black" stroke="black" points="860.097,-497.097 870.42,-494.711 860.862,-490.139 860.097,-497.097"/>
<text text-anchor="middle" x="736" y="-463.8" font-family="Times,serif" font-size="14.00">POST</text>
</g>
<!-- 1_fwatchdog#ServerID_34e86192c217 -->
<g id="node7" class="node"><title>1_fwatchdog#ServerID_34e86192c217</title>
<polygon fill="none" stroke="black" points="3670.5,-637 3371.5,-637 3371.5,-601 3670.5,-601 3670.5,-637"/>
<text text-anchor="middle" x="3521" y="-615.3" font-family="Times,serif" font-size="14.00">1_fwatchdog#ServerID_34e86192c217</text>
</g>
<!-- 10.1.80.247:46082#ServerID_OuterContainerID&#45;&gt;1_fwatchdog#ServerID_34e86192c217 -->
<g id="edge10" class="edge"><title>10.1.80.247:46082#ServerID_OuterContainerID&#45;&gt;1_fwatchdog#ServerID_34e86192c217</title>
<path fill="none" stroke="black" d="M385.181,-419.176C461.944,-452.374 654.649,-530.806 825,-560 1073.96,-602.665 2819.1,-614.615 3360.92,-617.315"/>
<polygon fill="black" stroke="black" points="3361.14,-620.816 3371.16,-617.366 3361.17,-613.816 3361.14,-620.816"/>
<text text-anchor="middle" x="841.5" y="-507.3" font-family="Times,serif" font-size="14.00">read</text>
</g>
<!-- 1_fwatchdog#ServerID_6df85d7674&#45;2kqrj&#45;&gt;10.1.80.247:46082#ServerID_OuterContainerID -->
<g id="edge8" class="edge"><title>1_fwatchdog#ServerID_6df85d7674&#45;2kqrj&#45;&gt;10.1.80.247:46082#ServerID_OuterContainerID</title>
<path fill="none" stroke="black" d="M943.247,-492.952C889.334,-482.75 818.795,-469.889 756,-460 729.425,-455.815 722.656,-455.631 696,-452 612.476,-440.621 517.622,-427.403 448.54,-417.722"/>
<polygon fill="black" stroke="black" points="448.929,-414.242 438.539,-416.32 447.957,-421.174 448.929,-414.242"/>
<text text-anchor="middle" x="882" y="-463.8" font-family="Times,serif" font-size="14.00">RESPONSE</text>
</g>
<!-- gateway:8080#ServerID_OuterContainerID -->
<g id="node5" class="node"><title>gateway:8080#ServerID_OuterContainerID</title>
<polygon fill="none" stroke="black" points="1681,-421 1376.52,-403 1681,-385 1985.48,-403 1681,-421"/>
<text text-anchor="middle" x="1681" y="-399.3" font-family="Times,serif" font-size="14.00">gateway:8080#ServerID_OuterContainerID</text>
</g>
<!-- 1_fwatchdog#ServerID_6df85d7674&#45;2kqrj&#45;&gt;gateway:8080#ServerID_OuterContainerID -->
<g id="edge3" class="edge"><title>1_fwatchdog#ServerID_6df85d7674&#45;2kqrj&#45;&gt;gateway:8080#ServerID_OuterContainerID</title>
<path fill="none" stroke="black" d="M1135.43,-492.969C1262.71,-472.213 1475.44,-437.522 1594.16,-418.161"/>
<polygon fill="black" stroke="black" points="1594.99,-421.572 1604.3,-416.508 1593.87,-414.663 1594.99,-421.572"/>
<text text-anchor="middle" x="1357" y="-463.8" font-family="Times,serif" font-size="14.00">POST</text>
</g>
<!-- 10.1.80.247:8080#ServerID_OuterContainerID -->
<g id="node6" class="node"><title>10.1.80.247:8080#ServerID_OuterContainerID</title>
<polygon fill="none" stroke="black" points="1032,-421 704.56,-403 1032,-385 1359.44,-403 1032,-421"/>
<text text-anchor="middle" x="1032" y="-399.3" font-family="Times,serif" font-size="14.00">10.1.80.247:8080#ServerID_OuterContainerID</text>
</g>
<!-- 1_fwatchdog#ServerID_6df85d7674&#45;2kqrj&#45;&gt;10.1.80.247:8080#ServerID_OuterContainerID -->
<g id="edge7" class="edge"><title>1_fwatchdog#ServerID_6df85d7674&#45;2kqrj&#45;&gt;10.1.80.247:8080#ServerID_OuterContainerID</title>
<path fill="none" stroke="black" d="M1051.2,-492.928C1055.99,-487.716 1060.44,-481.601 1063,-475 1069.07,-459.366 1061.87,-442.119 1052.89,-428.538"/>
<polygon fill="black" stroke="black" points="1055.55,-426.245 1046.86,-420.197 1049.88,-430.349 1055.55,-426.245"/>
<text text-anchor="middle" x="1086" y="-463.8" font-family="Times,serif" font-size="14.00">POST</text>
</g>
<!-- 10.1.80.247:48072#ServerID_OuterContainerID -->
<g id="node3" class="node"><title>10.1.80.247:48072#ServerID_OuterContainerID</title>
<polygon fill="none" stroke="black" points="2339,-421 2003.52,-403 2339,-385 2674.48,-403 2339,-421"/>
<text text-anchor="middle" x="2339" y="-399.3" font-family="Times,serif" font-size="14.00">10.1.80.247:48072#ServerID_OuterContainerID</text>
</g>
<!-- 1_fwatchdog#ServerID_5f846fd567&#45;w7nbt -->
<g id="node4" class="node"><title>1_fwatchdog#ServerID_5f846fd567&#45;w7nbt</title>
<polygon fill="none" stroke="black" points="3695,-313 3371,-313 3371,-277 3695,-277 3695,-313"/>
<text text-anchor="middle" x="3533" y="-291.3" font-family="Times,serif" font-size="14.00">1_fwatchdog#ServerID_5f846fd567&#45;w7nbt</text>
</g>
<!-- 10.1.80.247:48072#ServerID_OuterContainerID&#45;&gt;1_fwatchdog#ServerID_5f846fd567&#45;w7nbt -->
<g id="edge2" class="edge"><title>10.1.80.247:48072#ServerID_OuterContainerID&#45;&gt;1_fwatchdog#ServerID_5f846fd567&#45;w7nbt</title>
<path fill="none" stroke="black" d="M2469.61,-391.999C2534.12,-387.197 2613.13,-381.519 2684,-377 2885.67,-364.141 2936.13,-361.211 3138,-352 3187.09,-349.76 3310.43,-351.474 3359,-344 3397.9,-338.014 3440.52,-326.347 3473.83,-316.015"/>
<polygon fill="black" stroke="black" points="3474.93,-319.34 3483.42,-313.001 3472.83,-312.663 3474.93,-319.34"/>
<text text-anchor="middle" x="3158" y="-355.8" font-family="Times,serif" font-size="14.00">POST</text>
</g>
<!-- 1_fwatchdog#ServerID_e56b6537e2d5 -->
<g id="node14" class="node"><title>1_fwatchdog#ServerID_e56b6537e2d5</title>
<polygon fill="none" stroke="black" points="4155.5,-313 3856.5,-313 3856.5,-277 4155.5,-277 4155.5,-313"/>
<text text-anchor="middle" x="4006" y="-291.3" font-family="Times,serif" font-size="14.00">1_fwatchdog#ServerID_e56b6537e2d5</text>
</g>
<!-- 10.1.80.247:48072#ServerID_OuterContainerID&#45;&gt;1_fwatchdog#ServerID_e56b6537e2d5 -->
<g id="edge17" class="edge"><title>10.1.80.247:48072#ServerID_OuterContainerID&#45;&gt;1_fwatchdog#ServerID_e56b6537e2d5</title>
<path fill="none" stroke="black" d="M2460.24,-391.475C2526.34,-386.177 2609.6,-380.211 2684,-377 3138.48,-357.385 3255.22,-397.203 3707,-344 3772.26,-336.314 3845.08,-324.691 3902.51,-314.807"/>
<polygon fill="black" stroke="black" points="3903.43,-318.2 3912.68,-313.047 3902.23,-311.303 3903.43,-318.2"/>
<text text-anchor="middle" x="3646.5" y="-355.8" font-family="Times,serif" font-size="14.00">read</text>
</g>
<!-- 1_fwatchdog#ServerID_5f846fd567&#45;w7nbt&#45;&gt;10.1.80.247:48072#ServerID_OuterContainerID -->
<g id="edge6" class="edge"><title>1_fwatchdog#ServerID_5f846fd567&#45;w7nbt&#45;&gt;10.1.80.247:48072#ServerID_OuterContainerID</title>
<path fill="none" stroke="black" d="M3479.01,-313.039C3444.89,-323.27 3399.71,-335.841 3359,-344 3279.49,-359.934 3258.87,-361.06 3178,-367 2958.99,-383.086 2903.37,-366.839 2684,-377 2613.82,-380.251 2535.73,-385.752 2471.62,-390.767"/>
<polygon fill="black" stroke="black" points="2471.15,-387.293 2461.45,-391.567 2471.7,-394.272 2471.15,-387.293"/>
<text text-anchor="middle" x="3356" y="-355.8" font-family="Times,serif" font-size="14.00">RESPONSE</text>
</g>
<!-- gateway:8080#ServerID_OuterContainerID&#45;&gt;1_fwatchdog#ServerID_6df85d7674&#45;2kqrj -->
<g id="edge4" class="edge"><title>gateway:8080#ServerID_OuterContainerID&#45;&gt;1_fwatchdog#ServerID_6df85d7674&#45;2kqrj</title>
<path fill="none" stroke="black" d="M1630.72,-418.061C1571.47,-434.129 1469.81,-460.117 1381,-475 1323.05,-484.711 1259.21,-492.067 1202.11,-497.466"/>
<polygon fill="black" stroke="black" points="1201.53,-494.004 1191.89,-498.417 1202.18,-500.974 1201.53,-494.004"/>
<text text-anchor="middle" x="1498" y="-463.8" font-family="Times,serif" font-size="14.00">RESPONSE</text>
</g>
<!-- 10.1.80.247:8080#ServerID_OuterContainerID&#45;&gt;1_fwatchdog#ServerID_6df85d7674&#45;2kqrj -->
<g id="edge5" class="edge"><title>10.1.80.247:8080#ServerID_OuterContainerID&#45;&gt;1_fwatchdog#ServerID_6df85d7674&#45;2kqrj</title>
<path fill="none" stroke="black" d="M1010.53,-419.827C998.796,-429.863 985.388,-443.957 979,-460 976.534,-466.194 975.867,-469.115 979,-475 981.188,-479.11 984.096,-482.823 987.424,-486.158"/>
<polygon fill="black" stroke="black" points="985.386,-489.021 995.261,-492.861 989.937,-483.701 985.386,-489.021"/>
<text text-anchor="middle" x="1021" y="-463.8" font-family="Times,serif" font-size="14.00">RESPONSE</text>
</g>
<!-- 10.1.80.1:15068#ServerID_OuterContainerID -->
<g id="node19" class="node"><title>10.1.80.1:15068#ServerID_OuterContainerID</title>
<polygon fill="none" stroke="black" points="925,-313 606.105,-295 925,-277 1243.9,-295 925,-313"/>
<text text-anchor="middle" x="925" y="-291.3" font-family="Times,serif" font-size="14.00">10.1.80.1:15068#ServerID_OuterContainerID</text>
</g>
<!-- 10.1.80.247:8080#ServerID_OuterContainerID&#45;&gt;10.1.80.1:15068#ServerID_OuterContainerID -->
<g id="edge23" class="edge"><title>10.1.80.247:8080#ServerID_OuterContainerID&#45;&gt;10.1.80.1:15068#ServerID_OuterContainerID</title>
<path fill="none" stroke="black" d="M954.679,-389.223C943.47,-384.075 933.28,-376.922 926,-367 916.846,-354.523 916.429,-337.21 918.381,-322.805"/>
<polygon fill="black" stroke="black" points="921.831,-323.397 920.131,-312.94 914.938,-322.175 921.831,-323.397"/>
<text text-anchor="middle" x="968" y="-355.8" font-family="Times,serif" font-size="14.00">RESPONSE</text>
</g>
<!-- 10.0.88.125:31112#ServerID_OuterContainerID -->
<g id="node20" class="node"><title>10.0.88.125:31112#ServerID_OuterContainerID</title>
<polygon fill="none" stroke="black" points="1597,-313 1261.52,-295 1597,-277 1932.48,-295 1597,-313"/>
<text text-anchor="middle" x="1597" y="-291.3" font-family="Times,serif" font-size="14.00">10.0.88.125:31112#ServerID_OuterContainerID</text>
</g>
<!-- 10.1.80.247:8080#ServerID_OuterContainerID&#45;&gt;10.0.88.125:31112#ServerID_OuterContainerID -->
<g id="edge25" class="edge"><title>10.1.80.247:8080#ServerID_OuterContainerID&#45;&gt;10.0.88.125:31112#ServerID_OuterContainerID</title>
<path fill="none" stroke="black" d="M1102.13,-388.843C1207.31,-369.11 1405.37,-331.952 1516.37,-311.127"/>
<polygon fill="black" stroke="black" points="1517.32,-314.509 1526.51,-309.225 1516.03,-307.629 1517.32,-314.509"/>
<text text-anchor="middle" x="1340" y="-355.8" font-family="Times,serif" font-size="14.00">RESPONSE</text>
</g>
<!-- localhost:3000#ServerID_34e86192c217 -->
<g id="node8" class="node"><title>localhost:3000#ServerID_34e86192c217</title>
<polygon fill="none" stroke="black" points="3658,-529 3371.45,-511 3658,-493 3944.55,-511 3658,-529"/>
<text text-anchor="middle" x="3658" y="-507.3" font-family="Times,serif" font-size="14.00">localhost:3000#ServerID_34e86192c217</text>
</g>
<!-- 1_fwatchdog#ServerID_34e86192c217&#45;&gt;localhost:3000#ServerID_34e86192c217 -->
<g id="edge9" class="edge"><title>1_fwatchdog#ServerID_34e86192c217&#45;&gt;localhost:3000#ServerID_34e86192c217</title>
<path fill="none" stroke="black" d="M3543.01,-600.969C3566.49,-582.803 3603.76,-553.963 3629.48,-534.068"/>
<polygon fill="black" stroke="black" points="3631.62,-536.836 3637.39,-527.948 3627.34,-531.299 3631.62,-536.836"/>
<text text-anchor="middle" x="3605" y="-571.8" font-family="Times,serif" font-size="14.00">write</text>
</g>
<!-- 10_node#ServerID_34e86192c217 -->
<g id="node9" class="node"><title>10_node#ServerID_34e86192c217</title>
<polygon fill="none" stroke="black" points="4229.5,-529 3962.5,-529 3962.5,-493 4229.5,-493 4229.5,-529"/>
<text text-anchor="middle" x="4096" y="-507.3" font-family="Times,serif" font-size="14.00">10_node#ServerID_34e86192c217</text>
</g>
<!-- 10_node#ServerID_34e86192c217&#45;&gt;gateway:8080#ServerID_OuterContainerID -->
<g id="edge16" class="edge"><title>10_node#ServerID_34e86192c217&#45;&gt;gateway:8080#ServerID_OuterContainerID</title>
<path fill="none" stroke="black" d="M4012.21,-492.95C3993.15,-489.715 3972.94,-486.786 3954,-485 3792.92,-469.813 3387.77,-477.622 3226,-475 2678.87,-466.131 2540.22,-498.558 1995,-452 1913.9,-445.074 1821.93,-430.178 1758.59,-418.805"/>
<polygon fill="black" stroke="black" points="1759.14,-415.347 1748.68,-417.011 1757.9,-422.235 1759.14,-415.347"/>
<text text-anchor="middle" x="3255" y="-463.8" font-family="Times,serif" font-size="14.00">connect</text>
</g>
<!-- pipe:[331683264]#ServerID_34e86192c217 -->
<g id="node10" class="node"><title>pipe:[331683264]#ServerID_34e86192c217</title>
<ellipse fill="none" stroke="black" cx="4096" cy="-403" rx="217.162" ry="18"/>
<text text-anchor="middle" x="4096" y="-399.3" font-family="Times,serif" font-size="14.00">pipe:[331683264]#ServerID_34e86192c217</text>
</g>
<!-- 10_node#ServerID_34e86192c217&#45;&gt;pipe:[331683264]#ServerID_34e86192c217 -->
<g id="edge11" class="edge"><title>10_node#ServerID_34e86192c217&#45;&gt;pipe:[331683264]#ServerID_34e86192c217</title>
<path fill="none" stroke="black" d="M4096,-492.969C4096,-476.378 4096,-450.883 4096,-431.431"/>
<polygon fill="black" stroke="black" points="4099.5,-431.341 4096,-421.341 4092.5,-431.341 4099.5,-431.341"/>
<text text-anchor="middle" x="4115" y="-463.8" font-family="Times,serif" font-size="14.00">write</text>
</g>
<!-- 10.152.183.10:53#ServerID_OuterContainerID -->
<g id="node13" class="node"><title>10.152.183.10:53#ServerID_OuterContainerID</title>
<polygon fill="none" stroke="black" points="3020,-421 2692.56,-403 3020,-385 3347.44,-403 3020,-421"/>
<text text-anchor="middle" x="3020" y="-399.3" font-family="Times,serif" font-size="14.00">10.152.183.10:53#ServerID_OuterContainerID</text>
</g>
<!-- 10_node#ServerID_34e86192c217&#45;&gt;10.152.183.10:53#ServerID_OuterContainerID -->
<g id="edge14" class="edge"><title>10_node#ServerID_34e86192c217&#45;&gt;10.152.183.10:53#ServerID_OuterContainerID</title>
<path fill="none" stroke="black" d="M4008.75,-492.957C3990.71,-489.906 3971.78,-487.051 3954,-485 3690.89,-454.652 3622.58,-477.922 3359,-452 3273.05,-443.547 3175.47,-429.228 3107.14,-418.424"/>
<polygon fill="black" stroke="black" points="3107.28,-414.902 3096.85,-416.789 3106.18,-421.815 3107.28,-414.902"/>
<text text-anchor="middle" x="3866.5" y="-463.8" font-family="Times,serif" font-size="14.00">sendto</text>
</g>
<!-- /etc/hosts#ServerID_34e86192c217 -->
<g id="node11" class="node"><title>/etc/hosts#ServerID_34e86192c217</title>
<ellipse fill="none" stroke="black" cx="3869" cy="-619" rx="180.068" ry="18"/>
<text text-anchor="middle" x="3869" y="-615.3" font-family="Times,serif" font-size="14.00">/etc/hosts#ServerID_34e86192c217</text>
</g>
<!-- /etc/hosts#ServerID_34e86192c217&#45;&gt;10_node#ServerID_34e86192c217 -->
<g id="edge12" class="edge"><title>/etc/hosts#ServerID_34e86192c217&#45;&gt;10_node#ServerID_34e86192c217</title>
<path fill="none" stroke="black" d="M3904.72,-601.321C3944.03,-582.962 4007.34,-553.399 4050.26,-533.358"/>
<polygon fill="black" stroke="black" points="4051.78,-536.511 4059.36,-529.108 4048.82,-530.168 4051.78,-536.511"/>
<text text-anchor="middle" x="3991.5" y="-571.8" font-family="Times,serif" font-size="14.00">read</text>
</g>
<!-- /etc/resolv.conf#ServerID_34e86192c217 -->
<g id="node12" class="node"><title>/etc/resolv.conf#ServerID_34e86192c217</title>
<ellipse fill="none" stroke="black" cx="4272" cy="-619" rx="205.264" ry="18"/>
<text text-anchor="middle" x="4272" y="-615.3" font-family="Times,serif" font-size="14.00">/etc/resolv.conf#ServerID_34e86192c217</text>
</g>
<!-- /etc/resolv.conf#ServerID_34e86192c217&#45;&gt;10_node#ServerID_34e86192c217 -->
<g id="edge13" class="edge"><title>/etc/resolv.conf#ServerID_34e86192c217&#45;&gt;10_node#ServerID_34e86192c217</title>
<path fill="none" stroke="black" d="M4243.72,-600.969C4213.79,-582.942 4166.4,-554.402 4133.4,-534.525"/>
<polygon fill="black" stroke="black" points="4134.87,-531.325 4124.5,-529.164 4131.26,-537.322 4134.87,-531.325"/>
<text text-anchor="middle" x="4226.5" y="-571.8" font-family="Times,serif" font-size="14.00">read</text>
</g>
<!-- 10.152.183.10:53#ServerID_OuterContainerID&#45;&gt;10_node#ServerID_34e86192c217 -->
<g id="edge15" class="edge"><title>10.152.183.10:53#ServerID_OuterContainerID&#45;&gt;10_node#ServerID_34e86192c217</title>
<path fill="none" stroke="black" d="M3076.28,-417.933C3148.42,-435.065 3277.61,-463.308 3390,-475 3639.36,-500.941 3704.45,-460.969 3954,-485 3969.43,-486.486 3985.71,-488.716 4001.52,-491.244"/>
<polygon fill="black" stroke="black" points="4001.39,-494.77 4011.82,-492.943 4002.53,-487.863 4001.39,-494.77"/>
<text text-anchor="middle" x="3423" y="-463.8" font-family="Times,serif" font-size="14.00">recvfrom</text>
</g>
<!-- localhost:3000#ServerID_e56b6537e2d5 -->
<g id="node15" class="node"><title>localhost:3000#ServerID_e56b6537e2d5</title>
<polygon fill="none" stroke="black" points="4006,-226 3719.45,-208 4006,-190 4292.55,-208 4006,-226"/>
<text text-anchor="middle" x="4006" y="-204.3" font-family="Times,serif" font-size="14.00">localhost:3000#ServerID_e56b6537e2d5</text>
</g>
<!-- 1_fwatchdog#ServerID_e56b6537e2d5&#45;&gt;localhost:3000#ServerID_e56b6537e2d5 -->
<g id="edge18" class="edge"><title>1_fwatchdog#ServerID_e56b6537e2d5&#45;&gt;localhost:3000#ServerID_e56b6537e2d5</title>
<path fill="none" stroke="black" d="M3986.42,-276.764C3978.33,-267.482 3971.72,-255.583 3976,-244 3977.4,-240.224 3979.4,-236.58 3981.73,-233.162"/>
<polygon fill="black" stroke="black" points="3984.56,-235.214 3987.98,-225.186 3979.06,-230.893 3984.56,-235.214"/>
<text text-anchor="middle" x="3995" y="-247.8" font-family="Times,serif" font-size="14.00">write</text>
</g>
<!-- pipe:[331682317]#ServerID_e56b6537e2d5 -->
<g id="node18" class="node"><title>pipe:[331682317]#ServerID_e56b6537e2d5</title>
<ellipse fill="none" stroke="black" cx="4528" cy="-208" rx="217.162" ry="18"/>
<text text-anchor="middle" x="4528" y="-204.3" font-family="Times,serif" font-size="14.00">pipe:[331682317]#ServerID_e56b6537e2d5</text>
</g>
<!-- 1_fwatchdog#ServerID_e56b6537e2d5&#45;&gt;pipe:[331682317]#ServerID_e56b6537e2d5 -->
<g id="edge22" class="edge"><title>1_fwatchdog#ServerID_e56b6537e2d5&#45;&gt;pipe:[331682317]#ServerID_e56b6537e2d5</title>
<path fill="none" stroke="black" d="M4110.69,-276.952C4201.77,-262.121 4333.06,-240.743 4423.95,-225.943"/>
<polygon fill="black" stroke="black" points="4424.69,-229.368 4434,-224.307 4423.57,-222.459 4424.69,-229.368"/>
<text text-anchor="middle" x="4317" y="-247.8" font-family="Times,serif" font-size="14.00">write</text>
</g>
<!-- localhost:3000#ServerID_e56b6537e2d5&#45;&gt;1_fwatchdog#ServerID_e56b6537e2d5 -->
<g id="edge21" class="edge"><title>localhost:3000#ServerID_e56b6537e2d5&#45;&gt;1_fwatchdog#ServerID_e56b6537e2d5</title>
<path fill="none" stroke="black" d="M4011.05,-226.071C4013.32,-235.709 4015.24,-247.993 4014,-259 4013.71,-261.547 4013.31,-264.179 4012.84,-266.803"/>
<polygon fill="black" stroke="black" points="4009.39,-266.18 4010.77,-276.686 4016.25,-267.617 4009.39,-266.18"/>
<text text-anchor="middle" x="4030.5" y="-247.8" font-family="Times,serif" font-size="14.00">read</text>
</g>
<!-- 12_node#ServerID_e56b6537e2d5 -->
<g id="node16" class="node"><title>12_node#ServerID_e56b6537e2d5</title>
<polygon fill="none" stroke="black" points="4139.5,-139 3872.5,-139 3872.5,-103 4139.5,-103 4139.5,-139"/>
<text text-anchor="middle" x="4006" y="-117.3" font-family="Times,serif" font-size="14.00">12_node#ServerID_e56b6537e2d5</text>
</g>
<!-- localhost:3000#ServerID_e56b6537e2d5&#45;&gt;12_node#ServerID_e56b6537e2d5 -->
<g id="edge20" class="edge"><title>localhost:3000#ServerID_e56b6537e2d5&#45;&gt;12_node#ServerID_e56b6537e2d5</title>
<path fill="none" stroke="black" d="M4006,-189.799C4006,-178.163 4006,-162.548 4006,-149.237"/>
<polygon fill="black" stroke="black" points="4009.5,-149.175 4006,-139.175 4002.5,-149.175 4009.5,-149.175"/>
<text text-anchor="middle" x="4022.5" y="-160.8" font-family="Times,serif" font-size="14.00">read</text>
</g>
<!-- pipe:[331682415]#ServerID_e56b6537e2d5 -->
<g id="node17" class="node"><title>pipe:[331682415]#ServerID_e56b6537e2d5</title>
<ellipse fill="none" stroke="black" cx="4006" cy="-34" rx="217.162" ry="18"/>
<text text-anchor="middle" x="4006" y="-30.3" font-family="Times,serif" font-size="14.00">pipe:[331682415]#ServerID_e56b6537e2d5</text>
</g>
<!-- 12_node#ServerID_e56b6537e2d5&#45;&gt;pipe:[331682415]#ServerID_e56b6537e2d5 -->
<g id="edge19" class="edge"><title>12_node#ServerID_e56b6537e2d5&#45;&gt;pipe:[331682415]#ServerID_e56b6537e2d5</title>
<path fill="none" stroke="black" d="M4006,-102.799C4006,-91.1626 4006,-75.5479 4006,-62.2368"/>
<polygon fill="black" stroke="black" points="4009.5,-62.1754 4006,-52.1754 4002.5,-62.1755 4009.5,-62.1754"/>
<text text-anchor="middle" x="4025" y="-73.8" font-family="Times,serif" font-size="14.00">write</text>
</g>
<!-- 10.1.80.1:15068#ServerID_OuterContainerID&#45;&gt;10.1.80.247:8080#ServerID_OuterContainerID -->
<g id="edge24" class="edge"><title>10.1.80.1:15068#ServerID_OuterContainerID&#45;&gt;10.1.80.247:8080#ServerID_OuterContainerID</title>
<path fill="none" stroke="black" d="M956.966,-311.267C974.486,-320.938 995.518,-334.854 1010,-352 1015.74,-358.799 1020.23,-367.332 1023.61,-375.415"/>
<polygon fill="black" stroke="black" points="1020.39,-376.787 1027.2,-384.903 1026.94,-374.311 1020.39,-376.787"/>
<text text-anchor="middle" x="1040" y="-355.8" font-family="Times,serif" font-size="14.00">POST</text>
</g>
</g>
</svg>
