<?xml version="1.0" encoding="UTF-8" standalone="no"?>
<!DOCTYPE svg PUBLIC "-//W3C//DTD SVG 1.1//EN"
 "http://www.w3.org/Graphics/SVG/1.1/DTD/svg11.dtd">
<!-- Generated by graphviz version 2.38.0 (20140413.2041)
 -->
<!-- Title: G Pages: 1 -->
<svg width="6589pt" height="645pt"
 viewBox="0.00 0.00 6589.00 645.00" xmlns="http://www.w3.org/2000/svg" xmlns:xlink="http://www.w3.org/1999/xlink">
<g id="graph0" class="graph" transform="scale(1 1) rotate(0) translate(4 641)">
<title>G</title>
<polygon fill="white" stroke="none" points="-4,4 -4,-641 6585,-641 6585,4 -4,4"/>
<g id="clust1" class="cluster"><title>clusterServerID_34e86192c217</title>
<polygon fill="none" stroke="black" points="8,-182 8,-498 1130,-498 1130,-182 8,-182"/>
<text text-anchor="middle" x="569" y="-482.8" font-family="Times,serif" font-size="14.00">clusterServerID_34e86192c217</text>
</g>
<g id="clust2" class="cluster"><title>clusterServerID_5f846fd567&#45;w7nbt</title>
<polygon fill="none" stroke="black" points="1138,-269 1138,-367 1478,-367 1478,-269 1138,-269"/>
<text text-anchor="middle" x="1308" y="-351.8" font-family="Times,serif" font-size="14.00">clusterServerID_5f846fd567&#45;w7nbt</text>
</g>
<g id="clust3" class="cluster"><title>clusterServerID_6df85d7674&#45;2kqrj</title>
<polygon fill="none" stroke="black" points="4040,-531 4040,-629 4378,-629 4378,-531 4040,-531"/>
<text text-anchor="middle" x="4209" y="-613.8" font-family="Times,serif" font-size="14.00">clusterServerID_6df85d7674&#45;2kqrj</text>
</g>
<g id="clust4" class="cluster"><title>clusterServerID_OuterContainerID</title>
<polygon fill="none" stroke="black" points="2536,-269 2536,-498 6573,-498 6573,-269 2536,-269"/>
<text text-anchor="middle" x="4554.5" y="-482.8" font-family="Times,serif" font-size="14.00">clusterServerID_OuterContainerID</text>
</g>
<g id="clust5" class="cluster"><title>clusterServerID_e56b6537e2d5</title>
<polygon fill="none" stroke="black" points="1486,-8 1486,-367 2528,-367 2528,-8 1486,-8"/>
<text text-anchor="middle" x="2007" y="-351.8" font-family="Times,serif" font-size="14.00">clusterServerID_e56b6537e2d5</text>
</g>
<!-- 1_fwatchdog#ServerID_6df85d7674&#45;2kqrj -->
<g id="node1" class="node"><title>1_fwatchdog#ServerID_6df85d7674&#45;2kqrj</title>
<polygon fill="none" stroke="black" points="4369.5,-575 4048.5,-575 4048.5,-539 4369.5,-539 4369.5,-575"/>
<text text-anchor="middle" x="4209" y="-553.3" font-family="Times,serif" font-size="14.00">1_fwatchdog#ServerID_6df85d7674&#45;2kqrj</text>
</g>
<!-- 10.1.80.247:46082#ServerID_OuterContainerID -->
<g id="node2" class="node"><title>10.1.80.247:46082#ServerID_OuterContainerID</title>
<polygon fill="none" stroke="black" points="3552,-444 3216.52,-426 3552,-408 3887.48,-426 3552,-444"/>
<text text-anchor="middle" x="3552" y="-422.3" font-family="Times,serif" font-size="14.00">10.1.80.247:46082#ServerID_OuterContainerID</text>
</g>
<!-- 1_fwatchdog#ServerID_6df85d7674&#45;2kqrj&#45;&gt;10.1.80.247:46082#ServerID_OuterContainerID -->
<g id="edge1" class="edge"><title>1_fwatchdog#ServerID_6df85d7674&#45;2kqrj&#45;&gt;10.1.80.247:46082#ServerID_OuterContainerID</title>
<path fill="none" stroke="black" d="M4048.39,-556.848C3744.39,-557.654 3112.14,-555.184 3079,-521 3074.36,-516.214 3074.44,-510.859 3079,-506 3088.76,-495.614 3192.88,-499.885 3207,-498 3305.07,-484.91 3416.98,-460.007 3486.07,-443.45"/>
<polygon fill="black" stroke="black" points="3487.04,-446.816 3495.94,-441.071 3485.4,-440.011 3487.04,-446.816"/>
<text text-anchor="middle" x="3121" y="-509.8" font-family="Times,serif" font-size="14.00">RESPONSE</text>
</g>
<!-- 10.1.80.247:8080#ServerID_OuterContainerID -->
<g id="node3" class="node"><title>10.1.80.247:8080#ServerID_OuterContainerID</title>
<polygon fill="none" stroke="black" points="6238,-444 5910.56,-426 6238,-408 6565.44,-426 6238,-444"/>
<text text-anchor="middle" x="6238" y="-422.3" font-family="Times,serif" font-size="14.00">10.1.80.247:8080#ServerID_OuterContainerID</text>
</g>
<!-- 1_fwatchdog#ServerID_6df85d7674&#45;2kqrj&#45;&gt;10.1.80.247:8080#ServerID_OuterContainerID -->
<g id="edge6" class="edge"><title>1_fwatchdog#ServerID_6df85d7674&#45;2kqrj&#45;&gt;10.1.80.247:8080#ServerID_OuterContainerID</title>
<path fill="none" stroke="black" d="M4369.71,-549.499C4625.17,-539.306 5139.68,-519.349 5576,-506 5648.21,-503.791 5829.24,-506.371 5901,-498 5998.02,-486.682 6108.45,-460.896 6175.66,-443.717"/>
<polygon fill="black" stroke="black" points="6176.86,-447.024 6185.67,-441.142 6175.11,-440.245 6176.86,-447.024"/>
<text text-anchor="middle" x="5596" y="-509.8" font-family="Times,serif" font-size="14.00">POST</text>
</g>
<!-- gateway:8080#ServerID_OuterContainerID -->
<g id="node4" class="node"><title>gateway:8080#ServerID_OuterContainerID</title>
<polygon fill="none" stroke="black" points="4210,-444 3905.52,-426 4210,-408 4514.48,-426 4210,-444"/>
<text text-anchor="middle" x="4210" y="-422.3" font-family="Times,serif" font-size="14.00">gateway:8080#ServerID_OuterContainerID</text>
</g>
<!-- 1_fwatchdog#ServerID_6df85d7674&#45;2kqrj&#45;&gt;gateway:8080#ServerID_OuterContainerID -->
<g id="edge4" class="edge"><title>1_fwatchdog#ServerID_6df85d7674&#45;2kqrj&#45;&gt;gateway:8080#ServerID_OuterContainerID</title>
<path fill="none" stroke="black" d="M4190.04,-538.736C4185.56,-533.523 4181.39,-527.455 4179,-521 4170.44,-497.87 4181.22,-471.131 4192.35,-452.099"/>
<polygon fill="black" stroke="black" points="4195.44,-453.763 4197.75,-443.425 4189.5,-450.061 4195.44,-453.763"/>
<text text-anchor="middle" x="4199" y="-509.8" font-family="Times,serif" font-size="14.00">POST</text>
</g>
<!-- 10.1.80.247:46082#ServerID_OuterContainerID&#45;&gt;1_fwatchdog#ServerID_6df85d7674&#45;2kqrj -->
<g id="edge3" class="edge"><title>10.1.80.247:46082#ServerID_OuterContainerID&#45;&gt;1_fwatchdog#ServerID_6df85d7674&#45;2kqrj</title>
<path fill="none" stroke="black" d="M3616.15,-440.584C3685.37,-455.154 3798.88,-478.786 3897,-498 3966.14,-511.54 4044.06,-526.026 4104.74,-537.133"/>
<polygon fill="black" stroke="black" points="4104.24,-540.6 4114.7,-538.956 4105.5,-533.715 4104.24,-540.6"/>
<text text-anchor="middle" x="4036" y="-509.8" font-family="Times,serif" font-size="14.00">POST</text>
</g>
<!-- 1_fwatchdog#ServerID_34e86192c217 -->
<g id="node7" class="node"><title>1_fwatchdog#ServerID_34e86192c217</title>
<polygon fill="none" stroke="black" points="315.5,-444 16.5,-444 16.5,-408 315.5,-408 315.5,-444"/>
<text text-anchor="middle" x="166" y="-422.3" font-family="Times,serif" font-size="14.00">1_fwatchdog#ServerID_34e86192c217</text>
</g>
<!-- 10.1.80.247:46082#ServerID_OuterContainerID&#45;&gt;1_fwatchdog#ServerID_34e86192c217 -->
<g id="edge11" class="edge"><title>10.1.80.247:46082#ServerID_OuterContainerID&#45;&gt;1_fwatchdog#ServerID_34e86192c217</title>
<path fill="none" stroke="black" d="M3497.28,-441.066C3429.7,-458.823 3310.92,-487.271 3207,-498 3047.74,-514.442 481.506,-531.784 325,-498 281.596,-488.631 235.786,-466.397 204.545,-449.096"/>
<polygon fill="black" stroke="black" points="206.166,-445.992 195.735,-444.134 202.73,-452.091 206.166,-445.992"/>
<text text-anchor="middle" x="3183" y="-509.8" font-family="Times,serif" font-size="14.00">read</text>
</g>
<!-- 10.1.80.247:8080#ServerID_OuterContainerID&#45;&gt;1_fwatchdog#ServerID_6df85d7674&#45;2kqrj -->
<g id="edge2" class="edge"><title>10.1.80.247:8080#ServerID_OuterContainerID&#45;&gt;1_fwatchdog#ServerID_6df85d7674&#45;2kqrj</title>
<path fill="none" stroke="black" d="M6184.77,-441.114C6118.74,-457.948 6002.46,-485.391 5901,-498 5610.76,-534.069 4749.25,-549.11 4380.07,-554.019"/>
<polygon fill="black" stroke="black" points="4379.78,-550.523 4369.82,-554.154 4379.87,-557.522 4379.78,-550.523"/>
<text text-anchor="middle" x="5836" y="-509.8" font-family="Times,serif" font-size="14.00">RESPONSE</text>
</g>
<!-- 10.1.80.1:31386#ServerID_OuterContainerID -->
<g id="node20" class="node"><title>10.1.80.1:31386#ServerID_OuterContainerID</title>
<polygon fill="none" stroke="black" points="6246,-313 5927.1,-295 6246,-277 6564.9,-295 6246,-313"/>
<text text-anchor="middle" x="6246" y="-291.3" font-family="Times,serif" font-size="14.00">10.1.80.1:31386#ServerID_OuterContainerID</text>
</g>
<!-- 10.1.80.247:8080#ServerID_OuterContainerID&#45;&gt;10.1.80.1:31386#ServerID_OuterContainerID -->
<g id="edge26" class="edge"><title>10.1.80.247:8080#ServerID_OuterContainerID&#45;&gt;10.1.80.1:31386#ServerID_OuterContainerID</title>
<path fill="none" stroke="black" d="M6245.6,-408.251C6247.8,-402.578 6249.9,-396.125 6251,-390 6255.01,-367.711 6253.21,-342.009 6250.72,-323.12"/>
<polygon fill="black" stroke="black" points="6254.17,-322.514 6249.25,-313.128 6247.24,-323.53 6254.17,-322.514"/>
<text text-anchor="middle" x="6294" y="-378.8" font-family="Times,serif" font-size="14.00">RESPONSE</text>
</g>
<!-- 10.0.88.125:31112#ServerID_OuterContainerID -->
<g id="node21" class="node"><title>10.0.88.125:31112#ServerID_OuterContainerID</title>
<polygon fill="none" stroke="black" points="5574,-313 5238.52,-295 5574,-277 5909.48,-295 5574,-313"/>
<text text-anchor="middle" x="5574" y="-291.3" font-family="Times,serif" font-size="14.00">10.0.88.125:31112#ServerID_OuterContainerID</text>
</g>
<!-- 10.1.80.247:8080#ServerID_OuterContainerID&#45;&gt;10.0.88.125:31112#ServerID_OuterContainerID -->
<g id="edge27" class="edge"><title>10.1.80.247:8080#ServerID_OuterContainerID&#45;&gt;10.0.88.125:31112#ServerID_OuterContainerID</title>
<path fill="none" stroke="black" d="M6163.55,-412.032C6098.63,-400.599 6001.98,-383.274 5918,-367 5824.56,-348.893 5717.19,-326.474 5647.61,-311.731"/>
<polygon fill="black" stroke="black" points="5648.13,-308.264 5637.63,-309.613 5646.68,-315.112 5648.13,-308.264"/>
<text text-anchor="middle" x="6074" y="-378.8" font-family="Times,serif" font-size="14.00">RESPONSE</text>
</g>
<!-- gateway:8080#ServerID_OuterContainerID&#45;&gt;1_fwatchdog#ServerID_6df85d7674&#45;2kqrj -->
<g id="edge5" class="edge"><title>gateway:8080#ServerID_OuterContainerID&#45;&gt;1_fwatchdog#ServerID_6df85d7674&#45;2kqrj</title>
<path fill="none" stroke="black" d="M4214.03,-444.034C4217.93,-462.905 4222.75,-494.211 4219,-521 4218.64,-523.574 4218.14,-526.224 4217.55,-528.859"/>
<polygon fill="black" stroke="black" points="4214.1,-528.198 4214.96,-538.759 4220.87,-529.971 4214.1,-528.198"/>
<text text-anchor="middle" x="4262" y="-509.8" font-family="Times,serif" font-size="14.00">RESPONSE</text>
</g>
<!-- 10_node#ServerID_34e86192c217 -->
<g id="node9" class="node"><title>10_node#ServerID_34e86192c217</title>
<polygon fill="none" stroke="black" points="1121.5,-313 854.5,-313 854.5,-277 1121.5,-277 1121.5,-313"/>
<text text-anchor="middle" x="988" y="-291.3" font-family="Times,serif" font-size="14.00">10_node#ServerID_34e86192c217</text>
</g>
<!-- gateway:8080#ServerID_OuterContainerID&#45;&gt;10_node#ServerID_34e86192c217 -->
<g id="edge24" class="edge"><title>gateway:8080#ServerID_OuterContainerID&#45;&gt;10_node#ServerID_34e86192c217</title>
<path fill="none" stroke="black" d="M4071.72,-416.137C4017.02,-412.99 3953.57,-409.789 3896,-408 3833.83,-406.068 1716.36,-408.572 1657,-390 1645.71,-386.466 1646.28,-378.578 1635,-375 1581.93,-358.165 1188.15,-379.925 1134,-367 1093.68,-357.376 1051.49,-335.374 1022.9,-318.394"/>
<polygon fill="black" stroke="black" points="1024.48,-315.26 1014.11,-313.079 1020.86,-321.25 1024.48,-315.26"/>
<text text-anchor="middle" x="1673.5" y="-378.8" font-family="Times,serif" font-size="14.00">read</text>
</g>
<!-- 10.1.80.247:48208#ServerID_OuterContainerID -->
<g id="node5" class="node"><title>10.1.80.247:48208#ServerID_OuterContainerID</title>
<polygon fill="none" stroke="black" points="4868,-444 4532.52,-426 4868,-408 5203.48,-426 4868,-444"/>
<text text-anchor="middle" x="4868" y="-422.3" font-family="Times,serif" font-size="14.00">10.1.80.247:48208#ServerID_OuterContainerID</text>
</g>
<!-- 1_fwatchdog#ServerID_5f846fd567&#45;w7nbt -->
<g id="node6" class="node"><title>1_fwatchdog#ServerID_5f846fd567&#45;w7nbt</title>
<polygon fill="none" stroke="black" points="1470,-313 1146,-313 1146,-277 1470,-277 1470,-313"/>
<text text-anchor="middle" x="1308" y="-291.3" font-family="Times,serif" font-size="14.00">1_fwatchdog#ServerID_5f846fd567&#45;w7nbt</text>
</g>
<!-- 10.1.80.247:48208#ServerID_OuterContainerID&#45;&gt;1_fwatchdog#ServerID_5f846fd567&#45;w7nbt -->
<g id="edge7" class="edge"><title>10.1.80.247:48208#ServerID_OuterContainerID&#45;&gt;1_fwatchdog#ServerID_5f846fd567&#45;w7nbt</title>
<path fill="none" stroke="black" d="M4715.2,-416.168C4655.29,-413.046 4585.94,-409.853 4523,-408 3693.1,-383.564 3485.15,-403.505 2655,-390 2363.85,-385.264 2291.13,-380.582 2000,-375 1971.22,-374.448 1510.2,-372.758 1482,-367 1434.37,-357.274 1383.24,-334.82 1348.82,-317.747"/>
<polygon fill="black" stroke="black" points="1350.08,-314.462 1339.58,-313.09 1346.93,-320.714 1350.08,-314.462"/>
<text text-anchor="middle" x="2675" y="-378.8" font-family="Times,serif" font-size="14.00">POST</text>
</g>
<!-- 1_fwatchdog#ServerID_e56b6537e2d5 -->
<g id="node14" class="node"><title>1_fwatchdog#ServerID_e56b6537e2d5</title>
<polygon fill="none" stroke="black" points="2438.5,-313 2139.5,-313 2139.5,-277 2438.5,-277 2438.5,-313"/>
<text text-anchor="middle" x="2289" y="-291.3" font-family="Times,serif" font-size="14.00">1_fwatchdog#ServerID_e56b6537e2d5</text>
</g>
<!-- 10.1.80.247:48208#ServerID_OuterContainerID&#45;&gt;1_fwatchdog#ServerID_e56b6537e2d5 -->
<g id="edge17" class="edge"><title>10.1.80.247:48208#ServerID_OuterContainerID&#45;&gt;1_fwatchdog#ServerID_e56b6537e2d5</title>
<path fill="none" stroke="black" d="M4711.75,-416.352C4652.64,-413.329 4584.73,-410.156 4523,-408 4412.43,-404.138 2641.35,-383.799 2532,-367 2465.96,-356.854 2392.66,-333.72 2344.01,-316.601"/>
<polygon fill="black" stroke="black" points="2344.91,-313.207 2334.32,-313.155 2342.57,-319.803 2344.91,-313.207"/>
<text text-anchor="middle" x="3374.5" y="-378.8" font-family="Times,serif" font-size="14.00">read</text>
</g>
<!-- 1_fwatchdog#ServerID_5f846fd567&#45;w7nbt&#45;&gt;10.1.80.247:48208#ServerID_OuterContainerID -->
<g id="edge8" class="edge"><title>1_fwatchdog#ServerID_5f846fd567&#45;w7nbt&#45;&gt;10.1.80.247:48208#ServerID_OuterContainerID</title>
<path fill="none" stroke="black" d="M1339.58,-313.047C1373.62,-330.406 1429.92,-356.251 1482,-367 1526.41,-376.164 1846.81,-361.211 1890,-375 1901.27,-378.599 1900.7,-386.473 1912,-390 1981.23,-411.618 4450.5,-405.965 4523,-408 4582.66,-409.675 4648.08,-412.617 4705.75,-415.587"/>
<polygon fill="black" stroke="black" points="4705.89,-419.099 4716.06,-416.123 4706.25,-412.109 4705.89,-419.099"/>
<text text-anchor="middle" x="1954" y="-378.8" font-family="Times,serif" font-size="14.00">RESPONSE</text>
</g>
<!-- localhost:3000#ServerID_34e86192c217 -->
<g id="node8" class="node"><title>localhost:3000#ServerID_34e86192c217</title>
<polygon fill="none" stroke="black" points="303,-313 16.4457,-295 303,-277 589.554,-295 303,-313"/>
<text text-anchor="middle" x="303" y="-291.3" font-family="Times,serif" font-size="14.00">localhost:3000#ServerID_34e86192c217</text>
</g>
<!-- 1_fwatchdog#ServerID_34e86192c217&#45;&gt;localhost:3000#ServerID_34e86192c217 -->
<g id="edge9" class="edge"><title>1_fwatchdog#ServerID_34e86192c217&#45;&gt;localhost:3000#ServerID_34e86192c217</title>
<path fill="none" stroke="black" d="M184.193,-407.87C208.439,-385.039 251.427,-344.562 278.505,-319.064"/>
<polygon fill="black" stroke="black" points="281.145,-321.386 286.026,-311.983 276.346,-316.29 281.145,-321.386"/>
<text text-anchor="middle" x="238" y="-378.8" font-family="Times,serif" font-size="14.00">write</text>
</g>
<!-- 10_node#ServerID_34e86192c217&#45;&gt;gateway:8080#ServerID_OuterContainerID -->
<g id="edge16" class="edge"><title>10_node#ServerID_34e86192c217&#45;&gt;gateway:8080#ServerID_OuterContainerID</title>
<path fill="none" stroke="black" d="M1014.11,-313.094C1042.34,-330.494 1089.3,-356.372 1134,-367 1164.27,-374.198 1662.94,-373.095 1694,-375 1755.58,-378.778 1770.41,-386.393 1832,-390 2289.9,-416.816 3437.54,-393.598 3896,-408 3950.08,-409.699 4009.35,-412.631 4061.69,-415.586"/>
<polygon fill="black" stroke="black" points="4061.54,-419.082 4071.72,-416.157 4061.93,-412.094 4061.54,-419.082"/>
<text text-anchor="middle" x="1861" y="-378.8" font-family="Times,serif" font-size="14.00">connect</text>
</g>
<!-- pipe:[331683264]#ServerID_34e86192c217 -->
<g id="node10" class="node"><title>pipe:[331683264]#ServerID_34e86192c217</title>
<ellipse fill="none" stroke="black" cx="905" cy="-208" rx="217.162" ry="18"/>
<text text-anchor="middle" x="905" y="-204.3" font-family="Times,serif" font-size="14.00">pipe:[331683264]#ServerID_34e86192c217</text>
</g>
<!-- 10_node#ServerID_34e86192c217&#45;&gt;pipe:[331683264]#ServerID_34e86192c217 -->
<g id="edge10" class="edge"><title>10_node#ServerID_34e86192c217&#45;&gt;pipe:[331683264]#ServerID_34e86192c217</title>
<path fill="none" stroke="black" d="M971.204,-276.799C959.054,-264.356 942.462,-247.364 928.928,-233.504"/>
<polygon fill="black" stroke="black" points="931.262,-230.885 921.771,-226.175 926.254,-235.775 931.262,-230.885"/>
<text text-anchor="middle" x="971" y="-247.8" font-family="Times,serif" font-size="14.00">write</text>
</g>
<!-- 10.152.183.10:53#ServerID_OuterContainerID -->
<g id="node13" class="node"><title>10.152.183.10:53#ServerID_OuterContainerID</title>
<polygon fill="none" stroke="black" points="2871,-444 2543.56,-426 2871,-408 3198.44,-426 2871,-444"/>
<text text-anchor="middle" x="2871" y="-422.3" font-family="Times,serif" font-size="14.00">10.152.183.10:53#ServerID_OuterContainerID</text>
</g>
<!-- 10_node#ServerID_34e86192c217&#45;&gt;10.152.183.10:53#ServerID_OuterContainerID -->
<g id="edge14" class="edge"><title>10_node#ServerID_34e86192c217&#45;&gt;10.152.183.10:53#ServerID_OuterContainerID</title>
<path fill="none" stroke="black" d="M1015.65,-313.021C1044.19,-329.711 1090.54,-354.427 1134,-367 1222.92,-392.727 1248.64,-383.824 1341,-390 1579.16,-405.924 2236.69,-416.737 2607.6,-421.768"/>
<polygon fill="black" stroke="black" points="2607.62,-425.269 2617.67,-421.904 2607.72,-418.269 2607.62,-425.269"/>
<text text-anchor="middle" x="1365.5" y="-378.8" font-family="Times,serif" font-size="14.00">sendto</text>
</g>
<!-- /etc/hosts#ServerID_34e86192c217 -->
<g id="node11" class="node"><title>/etc/hosts#ServerID_34e86192c217</title>
<ellipse fill="none" stroke="black" cx="514" cy="-426" rx="180.068" ry="18"/>
<text text-anchor="middle" x="514" y="-422.3" font-family="Times,serif" font-size="14.00">/etc/hosts#ServerID_34e86192c217</text>
</g>
<!-- /etc/hosts#ServerID_34e86192c217&#45;&gt;10_node#ServerID_34e86192c217 -->
<g id="edge12" class="edge"><title>/etc/hosts#ServerID_34e86192c217&#45;&gt;10_node#ServerID_34e86192c217</title>
<path fill="none" stroke="black" d="M573.074,-408.923C659.842,-385.309 821.59,-341.289 915.456,-315.743"/>
<polygon fill="black" stroke="black" points="916.43,-319.105 925.16,-313.102 914.592,-312.351 916.43,-319.105"/>
<text text-anchor="middle" x="711.5" y="-378.8" font-family="Times,serif" font-size="14.00">read</text>
</g>
<!-- /etc/resolv.conf#ServerID_34e86192c217 -->
<g id="node12" class="node"><title>/etc/resolv.conf#ServerID_34e86192c217</title>
<ellipse fill="none" stroke="black" cx="917" cy="-426" rx="205.264" ry="18"/>
<text text-anchor="middle" x="917" y="-422.3" font-family="Times,serif" font-size="14.00">/etc/resolv.conf#ServerID_34e86192c217</text>
</g>
<!-- /etc/resolv.conf#ServerID_34e86192c217&#45;&gt;10_node#ServerID_34e86192c217 -->
<g id="edge13" class="edge"><title>/etc/resolv.conf#ServerID_34e86192c217&#45;&gt;10_node#ServerID_34e86192c217</title>
<path fill="none" stroke="black" d="M926.428,-407.87C938.523,-385.895 959.615,-347.573 973.693,-321.994"/>
<polygon fill="black" stroke="black" points="976.777,-323.649 978.533,-313.201 970.645,-320.274 976.777,-323.649"/>
<text text-anchor="middle" x="961.5" y="-378.8" font-family="Times,serif" font-size="14.00">read</text>
</g>
<!-- 10.152.183.10:53#ServerID_OuterContainerID&#45;&gt;10_node#ServerID_34e86192c217 -->
<g id="edge15" class="edge"><title>10.152.183.10:53#ServerID_OuterContainerID&#45;&gt;10_node#ServerID_34e86192c217</title>
<path fill="none" stroke="black" d="M2610.21,-422.335C2347.22,-418.626 1929.68,-409.944 1569,-390 1489.29,-385.592 1469.7,-379.582 1390,-375 1333.18,-371.734 1189.26,-380.636 1134,-367 1093.88,-357.098 1051.82,-335.246 1023.2,-318.382"/>
<polygon fill="black" stroke="black" points="1024.78,-315.247 1014.41,-313.104 1021.18,-321.25 1024.78,-315.247"/>
<text text-anchor="middle" x="1602" y="-378.8" font-family="Times,serif" font-size="14.00">recvfrom</text>
</g>
<!-- localhost:3000#ServerID_e56b6537e2d5 -->
<g id="node15" class="node"><title>localhost:3000#ServerID_e56b6537e2d5</title>
<polygon fill="none" stroke="black" points="2233,-226 1946.45,-208 2233,-190 2519.55,-208 2233,-226"/>
<text text-anchor="middle" x="2233" y="-204.3" font-family="Times,serif" font-size="14.00">localhost:3000#ServerID_e56b6537e2d5</text>
</g>
<!-- 1_fwatchdog#ServerID_e56b6537e2d5&#45;&gt;localhost:3000#ServerID_e56b6537e2d5 -->
<g id="edge18" class="edge"><title>1_fwatchdog#ServerID_e56b6537e2d5&#45;&gt;localhost:3000#ServerID_e56b6537e2d5</title>
<path fill="none" stroke="black" d="M2283.09,-276.551C2279.28,-266.569 2273.78,-254.069 2267,-244 2264.3,-239.995 2261.12,-236.038 2257.8,-232.307"/>
<polygon fill="black" stroke="black" points="2260.33,-229.885 2250.92,-225.021 2255.24,-234.693 2260.33,-229.885"/>
<text text-anchor="middle" x="2295" y="-247.8" font-family="Times,serif" font-size="14.00">write</text>
</g>
<!-- pipe:[331682317]#ServerID_e56b6537e2d5 -->
<g id="node19" class="node"><title>pipe:[331682317]#ServerID_e56b6537e2d5</title>
<ellipse fill="none" stroke="black" cx="1711" cy="-208" rx="217.162" ry="18"/>
<text text-anchor="middle" x="1711" y="-204.3" font-family="Times,serif" font-size="14.00">pipe:[331682317]#ServerID_e56b6537e2d5</text>
</g>
<!-- 1_fwatchdog#ServerID_e56b6537e2d5&#45;&gt;pipe:[331682317]#ServerID_e56b6537e2d5 -->
<g id="edge23" class="edge"><title>1_fwatchdog#ServerID_e56b6537e2d5&#45;&gt;pipe:[331682317]#ServerID_e56b6537e2d5</title>
<path fill="none" stroke="black" d="M2173.08,-276.952C2071.02,-261.944 1923.37,-240.231 1822.62,-225.415"/>
<polygon fill="black" stroke="black" points="1823.12,-221.95 1812.71,-223.958 1822.1,-228.876 1823.12,-221.95"/>
<text text-anchor="middle" x="2054" y="-247.8" font-family="Times,serif" font-size="14.00">write</text>
</g>
<!-- localhost:3000#ServerID_e56b6537e2d5&#45;&gt;1_fwatchdog#ServerID_e56b6537e2d5 -->
<g id="edge22" class="edge"><title>localhost:3000#ServerID_e56b6537e2d5&#45;&gt;1_fwatchdog#ServerID_e56b6537e2d5</title>
<path fill="none" stroke="black" d="M2227.57,-225.808C2225.29,-236.043 2224.32,-249.025 2230,-259 2232.45,-263.301 2235.66,-267.129 2239.32,-270.522"/>
<polygon fill="black" stroke="black" points="2237.34,-273.425 2247.36,-276.892 2241.69,-267.938 2237.34,-273.425"/>
<text text-anchor="middle" x="2246.5" y="-247.8" font-family="Times,serif" font-size="14.00">read</text>
</g>
<!-- 12_node#ServerID_e56b6537e2d5 -->
<g id="node17" class="node"><title>12_node#ServerID_e56b6537e2d5</title>
<polygon fill="none" stroke="black" points="2366.5,-139 2099.5,-139 2099.5,-103 2366.5,-103 2366.5,-139"/>
<text text-anchor="middle" x="2233" y="-117.3" font-family="Times,serif" font-size="14.00">12_node#ServerID_e56b6537e2d5</text>
</g>
<!-- localhost:3000#ServerID_e56b6537e2d5&#45;&gt;12_node#ServerID_e56b6537e2d5 -->
<g id="edge20" class="edge"><title>localhost:3000#ServerID_e56b6537e2d5&#45;&gt;12_node#ServerID_e56b6537e2d5</title>
<path fill="none" stroke="black" d="M2233,-189.799C2233,-178.163 2233,-162.548 2233,-149.237"/>
<polygon fill="black" stroke="black" points="2236.5,-149.175 2233,-139.175 2229.5,-149.175 2236.5,-149.175"/>
<text text-anchor="middle" x="2249.5" y="-160.8" font-family="Times,serif" font-size="14.00">read</text>
</g>
<!-- 10.1.80.247:48072#ServerID_OuterContainerID -->
<g id="node16" class="node"><title>10.1.80.247:48072#ServerID_OuterContainerID</title>
<polygon fill="none" stroke="black" points="5557,-444 5221.52,-426 5557,-408 5892.48,-426 5557,-444"/>
<text text-anchor="middle" x="5557" y="-422.3" font-family="Times,serif" font-size="14.00">10.1.80.247:48072#ServerID_OuterContainerID</text>
</g>
<!-- 10.1.80.247:48072#ServerID_OuterContainerID&#45;&gt;1_fwatchdog#ServerID_e56b6537e2d5 -->
<g id="edge19" class="edge"><title>10.1.80.247:48072#ServerID_OuterContainerID&#45;&gt;1_fwatchdog#ServerID_e56b6537e2d5</title>
<path fill="none" stroke="black" d="M5401.62,-416.316C5342.3,-413.27 5274.03,-410.091 5212,-408 4404.77,-380.788 4202.61,-386.077 3395,-375 3347.06,-374.342 2579.43,-374.012 2532,-367 2465.7,-357.198 2392.16,-333.881 2343.53,-316.627"/>
<polygon fill="black" stroke="black" points="2344.44,-313.235 2333.85,-313.154 2342.08,-319.825 2344.44,-313.235"/>
<text text-anchor="middle" x="4566.5" y="-378.8" font-family="Times,serif" font-size="14.00">read</text>
</g>
<!-- pipe:[331682415]#ServerID_e56b6537e2d5 -->
<g id="node18" class="node"><title>pipe:[331682415]#ServerID_e56b6537e2d5</title>
<ellipse fill="none" stroke="black" cx="2233" cy="-34" rx="217.162" ry="18"/>
<text text-anchor="middle" x="2233" y="-30.3" font-family="Times,serif" font-size="14.00">pipe:[331682415]#ServerID_e56b6537e2d5</text>
</g>
<!-- 12_node#ServerID_e56b6537e2d5&#45;&gt;pipe:[331682415]#ServerID_e56b6537e2d5 -->
<g id="edge21" class="edge"><title>12_node#ServerID_e56b6537e2d5&#45;&gt;pipe:[331682415]#ServerID_e56b6537e2d5</title>
<path fill="none" stroke="black" d="M2233,-102.799C2233,-91.1626 2233,-75.5479 2233,-62.2368"/>
<polygon fill="black" stroke="black" points="2236.5,-62.1754 2233,-52.1754 2229.5,-62.1755 2236.5,-62.1754"/>
<text text-anchor="middle" x="2252" y="-73.8" font-family="Times,serif" font-size="14.00">write</text>
</g>
<!-- 10.1.80.1:31386#ServerID_OuterContainerID&#45;&gt;10.1.80.247:8080#ServerID_OuterContainerID -->
<g id="edge25" class="edge"><title>10.1.80.1:31386#ServerID_OuterContainerID&#45;&gt;10.1.80.247:8080#ServerID_OuterContainerID</title>
<path fill="none" stroke="black" d="M6236.2,-312.565C6227.63,-328.09 6215.81,-352.252 6211,-375 6209.62,-381.522 6208.85,-383.69 6211,-390 6212.21,-393.55 6213.94,-397.021 6215.95,-400.312"/>
<polygon fill="black" stroke="black" points="6213.13,-402.387 6221.76,-408.54 6218.85,-398.351 6213.13,-402.387"/>
<text text-anchor="middle" x="6231" y="-378.8" font-family="Times,serif" font-size="14.00">POST</text>
</g>
</g>
</svg>
