<?xml version="1.0" encoding="UTF-8" standalone="no"?>
<!DOCTYPE svg PUBLIC "-//W3C//DTD SVG 1.1//EN"
 "http://www.w3.org/Graphics/SVG/1.1/DTD/svg11.dtd">
<!-- Generated by graphviz version 2.38.0 (20140413.2041)
 -->
<!-- Title: G Pages: 1 -->
<svg width="6164pt" height="576pt"
 viewBox="0.00 0.00 6164.00 576.00" xmlns="http://www.w3.org/2000/svg" xmlns:xlink="http://www.w3.org/1999/xlink">
<g id="graph0" class="graph" transform="scale(1 1) rotate(0) translate(4 572)">
<title>G</title>
<polygon fill="white" stroke="none" points="-4,4 -4,-572 6160,-572 6160,4 -4,4"/>
<g id="clust1" class="cluster"><title>clusterServerID_34e86192c217</title>
<polygon fill="none" stroke="black" points="4417,-8 4417,-344 5007,-344 5007,-8 4417,-8"/>
<text text-anchor="middle" x="4712" y="-328.8" font-family="Times,serif" font-size="14.00">clusterServerID_34e86192c217</text>
</g>
<g id="clust2" class="cluster"><title>clusterServerID_5f846fd567&#45;w7nbt</title>
<polygon fill="none" stroke="black" points="4069,-269 4069,-344 4409,-344 4409,-269 4069,-269"/>
<text text-anchor="middle" x="4239" y="-328.8" font-family="Times,serif" font-size="14.00">clusterServerID_5f846fd567&#45;w7nbt</text>
</g>
<g id="clust3" class="cluster"><title>clusterServerID_6df85d7674&#45;2kqrj</title>
<polygon fill="none" stroke="black" points="1543,-485 1543,-560 1881,-560 1881,-485 1543,-485"/>
<text text-anchor="middle" x="1712" y="-544.8" font-family="Times,serif" font-size="14.00">clusterServerID_6df85d7674&#45;2kqrj</text>
</g>
<g id="clust4" class="cluster"><title>clusterServerID_OuterContainerID</title>
<polygon fill="none" stroke="black" points="8,-269 8,-452 4061,-452 4061,-269 8,-269"/>
<text text-anchor="middle" x="2034.5" y="-436.8" font-family="Times,serif" font-size="14.00">clusterServerID_OuterContainerID</text>
</g>
<g id="clust5" class="cluster"><title>clusterServerID_e56b6537e2d5</title>
<polygon fill="none" stroke="black" points="5015,-182 5015,-344 6057,-344 6057,-182 5015,-182"/>
<text text-anchor="middle" x="5536" y="-328.8" font-family="Times,serif" font-size="14.00">clusterServerID_e56b6537e2d5</text>
</g>
<!-- 1_fwatchdog#ServerID_6df85d7674&#45;2kqrj -->
<g id="node1" class="node"><title>1_fwatchdog#ServerID_6df85d7674&#45;2kqrj</title>
<polygon fill="none" stroke="black" points="1872.5,-529 1551.5,-529 1551.5,-493 1872.5,-493 1872.5,-529"/>
<text text-anchor="middle" x="1712" y="-507.3" font-family="Times,serif" font-size="14.00">1_fwatchdog#ServerID_6df85d7674&#45;2kqrj</text>
</g>
<!-- gateway:8080#ServerID_OuterContainerID -->
<g id="node2" class="node"><title>gateway:8080#ServerID_OuterContainerID</title>
<polygon fill="none" stroke="black" points="3749,-421 3444.52,-403 3749,-385 4053.48,-403 3749,-421"/>
<text text-anchor="middle" x="3749" y="-399.3" font-family="Times,serif" font-size="14.00">gateway:8080#ServerID_OuterContainerID</text>
</g>
<!-- 1_fwatchdog#ServerID_6df85d7674&#45;2kqrj&#45;&gt;gateway:8080#ServerID_OuterContainerID -->
<g id="edge1" class="edge"><title>1_fwatchdog#ServerID_6df85d7674&#45;2kqrj&#45;&gt;gateway:8080#ServerID_OuterContainerID</title>
<path fill="none" stroke="black" d="M1872.84,-505.101C2286.1,-492.443 3358.14,-459.143 3435,-452 3515.53,-444.516 3606.84,-429.854 3670.15,-418.694"/>
<polygon fill="black" stroke="black" points="3670.83,-422.128 3680.07,-416.935 3669.61,-415.236 3670.83,-422.128"/>
<text text-anchor="middle" x="3273" y="-463.8" font-family="Times,serif" font-size="14.00">POST</text>
</g>
<!-- 10.1.80.247:46030#ServerID_OuterContainerID -->
<g id="node5" class="node"><title>10.1.80.247:46030#ServerID_OuterContainerID</title>
<polygon fill="none" stroke="black" points="1713,-421 1377.52,-403 1713,-385 2048.48,-403 1713,-421"/>
<text text-anchor="middle" x="1713" y="-399.3" font-family="Times,serif" font-size="14.00">10.1.80.247:46030#ServerID_OuterContainerID</text>
</g>
<!-- 1_fwatchdog#ServerID_6df85d7674&#45;2kqrj&#45;&gt;10.1.80.247:46030#ServerID_OuterContainerID -->
<g id="edge7" class="edge"><title>1_fwatchdog#ServerID_6df85d7674&#45;2kqrj&#45;&gt;10.1.80.247:46030#ServerID_OuterContainerID</title>
<path fill="none" stroke="black" d="M1673.07,-492.889C1660.19,-484.513 1650.4,-473.341 1656,-460 1661.43,-447.053 1671.47,-435.591 1681.64,-426.463"/>
<polygon fill="black" stroke="black" points="1683.97,-429.075 1689.36,-419.952 1679.46,-423.724 1683.97,-429.075"/>
<text text-anchor="middle" x="1698" y="-463.8" font-family="Times,serif" font-size="14.00">RESPONSE</text>
</g>
<!-- 10.1.80.247:8080#ServerID_OuterContainerID -->
<g id="node6" class="node"><title>10.1.80.247:8080#ServerID_OuterContainerID</title>
<polygon fill="none" stroke="black" points="343,-421 15.5599,-403 343,-385 670.44,-403 343,-421"/>
<text text-anchor="middle" x="343" y="-399.3" font-family="Times,serif" font-size="14.00">10.1.80.247:8080#ServerID_OuterContainerID</text>
</g>
<!-- 1_fwatchdog#ServerID_6df85d7674&#45;2kqrj&#45;&gt;10.1.80.247:8080#ServerID_OuterContainerID -->
<g id="edge8" class="edge"><title>1_fwatchdog#ServerID_6df85d7674&#45;2kqrj&#45;&gt;10.1.80.247:8080#ServerID_OuterContainerID</title>
<path fill="none" stroke="black" d="M1551.19,-510.89C1359.43,-510.399 1029.47,-504.64 748,-475 630.561,-462.633 495.785,-436.602 415.117,-419.73"/>
<polygon fill="black" stroke="black" points="415.575,-416.25 405.069,-417.617 414.134,-423.1 415.575,-416.25"/>
<text text-anchor="middle" x="768" y="-463.8" font-family="Times,serif" font-size="14.00">POST</text>
</g>
<!-- gateway:8080#ServerID_OuterContainerID&#45;&gt;1_fwatchdog#ServerID_6df85d7674&#45;2kqrj -->
<g id="edge5" class="edge"><title>gateway:8080#ServerID_OuterContainerID&#45;&gt;1_fwatchdog#ServerID_6df85d7674&#45;2kqrj</title>
<path fill="none" stroke="black" d="M3683.09,-417.19C3595.38,-434.09 3435.26,-462.67 3297,-475 3026.99,-499.079 2234.08,-506.825 1882.83,-509.116"/>
<polygon fill="black" stroke="black" points="1882.8,-505.616 1872.82,-509.181 1882.85,-512.616 1882.8,-505.616"/>
<text text-anchor="middle" x="3464" y="-463.8" font-family="Times,serif" font-size="14.00">RESPONSE</text>
</g>
<!-- 10_node#ServerID_34e86192c217 -->
<g id="node10" class="node"><title>10_node#ServerID_34e86192c217</title>
<polygon fill="none" stroke="black" points="4845.5,-139 4578.5,-139 4578.5,-103 4845.5,-103 4845.5,-139"/>
<text text-anchor="middle" x="4712" y="-117.3" font-family="Times,serif" font-size="14.00">10_node#ServerID_34e86192c217</text>
</g>
<!-- gateway:8080#ServerID_OuterContainerID&#45;&gt;10_node#ServerID_34e86192c217 -->
<g id="edge20" class="edge"><title>gateway:8080#ServerID_OuterContainerID&#45;&gt;10_node#ServerID_34e86192c217</title>
<path fill="none" stroke="black" d="M3813.69,-388.803C3836.6,-383.23 3862.32,-375.935 3885,-367 3969.75,-333.618 3980.1,-302.004 4065,-269 4214.8,-210.766 4259.21,-217.306 4416,-182 4481.4,-167.273 4555.31,-152.291 4612.91,-140.981"/>
<polygon fill="black" stroke="black" points="4613.6,-144.413 4622.74,-139.056 4612.25,-137.544 4613.6,-144.413"/>
<text text-anchor="middle" x="4150.5" y="-247.8" font-family="Times,serif" font-size="14.00">read</text>
</g>
<!-- 10.1.80.247:48044#ServerID_OuterContainerID -->
<g id="node3" class="node"><title>10.1.80.247:48044#ServerID_OuterContainerID</title>
<polygon fill="none" stroke="black" points="1024,-421 688.515,-403 1024,-385 1359.48,-403 1024,-421"/>
<text text-anchor="middle" x="1024" y="-399.3" font-family="Times,serif" font-size="14.00">10.1.80.247:48044#ServerID_OuterContainerID</text>
</g>
<!-- 1_fwatchdog#ServerID_5f846fd567&#45;w7nbt -->
<g id="node4" class="node"><title>1_fwatchdog#ServerID_5f846fd567&#45;w7nbt</title>
<polygon fill="none" stroke="black" points="4401,-313 4077,-313 4077,-277 4401,-277 4401,-313"/>
<text text-anchor="middle" x="4239" y="-291.3" font-family="Times,serif" font-size="14.00">1_fwatchdog#ServerID_5f846fd567&#45;w7nbt</text>
</g>
<!-- 10.1.80.247:48044#ServerID_OuterContainerID&#45;&gt;1_fwatchdog#ServerID_5f846fd567&#45;w7nbt -->
<g id="edge2" class="edge"><title>10.1.80.247:48044#ServerID_OuterContainerID&#45;&gt;1_fwatchdog#ServerID_5f846fd567&#45;w7nbt</title>
<path fill="none" stroke="black" d="M1179.38,-393.292C1238.7,-390.244 1306.97,-387.069 1369,-385 2209.55,-356.968 2420.06,-363.517 3261,-352 3305.66,-351.388 4020.77,-350.214 4065,-344 4104.26,-338.485 4147.21,-326.699 4180.62,-316.186"/>
<polygon fill="black" stroke="black" points="4181.76,-319.495 4190.22,-313.117 4179.63,-312.828 4181.76,-319.495"/>
<text text-anchor="middle" x="3281" y="-355.8" font-family="Times,serif" font-size="14.00">POST</text>
</g>
<!-- 1_fwatchdog#ServerID_5f846fd567&#45;w7nbt&#45;&gt;10.1.80.247:48044#ServerID_OuterContainerID -->
<g id="edge4" class="edge"><title>1_fwatchdog#ServerID_5f846fd567&#45;w7nbt&#45;&gt;10.1.80.247:48044#ServerID_OuterContainerID</title>
<path fill="none" stroke="black" d="M4190.6,-313.08C4156.08,-324.334 4108.31,-338.053 4065,-344 4006.41,-352.045 1995.11,-350.27 1936,-352 1665.71,-359.912 1350.84,-379.469 1170.72,-391.646"/>
<polygon fill="black" stroke="black" points="1170.39,-388.161 1160.65,-392.329 1170.86,-395.145 1170.39,-388.161"/>
<text text-anchor="middle" x="1978" y="-355.8" font-family="Times,serif" font-size="14.00">RESPONSE</text>
</g>
<!-- 10.1.80.247:46030#ServerID_OuterContainerID&#45;&gt;1_fwatchdog#ServerID_6df85d7674&#45;2kqrj -->
<g id="edge3" class="edge"><title>10.1.80.247:46030#ServerID_OuterContainerID&#45;&gt;1_fwatchdog#ServerID_6df85d7674&#45;2kqrj</title>
<path fill="none" stroke="black" d="M1728.08,-420.48C1739.24,-434.767 1751.35,-456.067 1744,-475 1742.64,-478.507 1740.74,-481.876 1738.55,-485.046"/>
<polygon fill="black" stroke="black" points="1735.75,-482.944 1732.2,-492.928 1741.2,-487.335 1735.75,-482.944"/>
<text text-anchor="middle" x="1767" y="-463.8" font-family="Times,serif" font-size="14.00">POST</text>
</g>
<!-- 1_fwatchdog#ServerID_34e86192c217 -->
<g id="node7" class="node"><title>1_fwatchdog#ServerID_34e86192c217</title>
<polygon fill="none" stroke="black" points="4724.5,-313 4425.5,-313 4425.5,-277 4724.5,-277 4724.5,-313"/>
<text text-anchor="middle" x="4575" y="-291.3" font-family="Times,serif" font-size="14.00">1_fwatchdog#ServerID_34e86192c217</text>
</g>
<!-- 10.1.80.247:46030#ServerID_OuterContainerID&#45;&gt;1_fwatchdog#ServerID_34e86192c217 -->
<g id="edge12" class="edge"><title>10.1.80.247:46030#ServerID_OuterContainerID&#45;&gt;1_fwatchdog#ServerID_34e86192c217</title>
<path fill="none" stroke="black" d="M1867.95,-393.313C1927.37,-390.258 1995.82,-387.073 2058,-385 2123.39,-382.82 4348.34,-353.954 4413,-344 4449.36,-338.403 4488.98,-326.768 4519.94,-316.355"/>
<polygon fill="black" stroke="black" points="4521.34,-319.575 4529.67,-313.027 4519.07,-312.952 4521.34,-319.575"/>
<text text-anchor="middle" x="4119.5" y="-355.8" font-family="Times,serif" font-size="14.00">read</text>
</g>
<!-- 10.1.80.247:8080#ServerID_OuterContainerID&#45;&gt;1_fwatchdog#ServerID_6df85d7674&#45;2kqrj -->
<g id="edge6" class="edge"><title>10.1.80.247:8080#ServerID_OuterContainerID&#45;&gt;1_fwatchdog#ServerID_6df85d7674&#45;2kqrj</title>
<path fill="none" stroke="black" d="M419.735,-416.834C487.894,-427.778 590.316,-443.109 680,-452 982.268,-481.965 1335.99,-497.661 1540.98,-504.857"/>
<polygon fill="black" stroke="black" points="1541.12,-508.364 1551.23,-505.214 1541.36,-501.368 1541.12,-508.364"/>
<text text-anchor="middle" x="977" y="-463.8" font-family="Times,serif" font-size="14.00">RESPONSE</text>
</g>
<!-- 10.1.80.1:24457#ServerID_OuterContainerID -->
<g id="node17" class="node"><title>10.1.80.1:24457#ServerID_OuterContainerID</title>
<polygon fill="none" stroke="black" points="335,-313 16.1049,-295 335,-277 653.895,-295 335,-313"/>
<text text-anchor="middle" x="335" y="-291.3" font-family="Times,serif" font-size="14.00">10.1.80.1:24457#ServerID_OuterContainerID</text>
</g>
<!-- 10.1.80.247:8080#ServerID_OuterContainerID&#45;&gt;10.1.80.1:24457#ServerID_OuterContainerID -->
<g id="edge22" class="edge"><title>10.1.80.247:8080#ServerID_OuterContainerID&#45;&gt;10.1.80.1:24457#ServerID_OuterContainerID</title>
<path fill="none" stroke="black" d="M303.089,-387.103C294.688,-382.04 286.895,-375.453 282,-367 271.93,-349.613 285.936,-331.484 302.069,-317.897"/>
<polygon fill="black" stroke="black" points="304.364,-320.546 310.064,-311.615 300.039,-315.041 304.364,-320.546"/>
<text text-anchor="middle" x="324" y="-355.8" font-family="Times,serif" font-size="14.00">RESPONSE</text>
</g>
<!-- 10.0.88.125:31112#ServerID_OuterContainerID -->
<g id="node18" class="node"><title>10.0.88.125:31112#ServerID_OuterContainerID</title>
<polygon fill="none" stroke="black" points="1007,-313 671.515,-295 1007,-277 1342.48,-295 1007,-313"/>
<text text-anchor="middle" x="1007" y="-291.3" font-family="Times,serif" font-size="14.00">10.0.88.125:31112#ServerID_OuterContainerID</text>
</g>
<!-- 10.1.80.247:8080#ServerID_OuterContainerID&#45;&gt;10.0.88.125:31112#ServerID_OuterContainerID -->
<g id="edge23" class="edge"><title>10.1.80.247:8080#ServerID_OuterContainerID&#45;&gt;10.0.88.125:31112#ServerID_OuterContainerID</title>
<path fill="none" stroke="black" d="M422.434,-389.319C546.818,-369.463 786.788,-331.154 917.247,-310.328"/>
<polygon fill="black" stroke="black" points="917.893,-313.769 927.216,-308.737 916.789,-306.857 917.893,-313.769"/>
<text text-anchor="middle" x="698" y="-355.8" font-family="Times,serif" font-size="14.00">RESPONSE</text>
</g>
<!-- localhost:3000#ServerID_34e86192c217 -->
<g id="node8" class="node"><title>localhost:3000#ServerID_34e86192c217</title>
<polygon fill="none" stroke="black" points="4712,-226 4425.45,-208 4712,-190 4998.55,-208 4712,-226"/>
<text text-anchor="middle" x="4712" y="-204.3" font-family="Times,serif" font-size="14.00">localhost:3000#ServerID_34e86192c217</text>
</g>
<!-- 1_fwatchdog#ServerID_34e86192c217&#45;&gt;localhost:3000#ServerID_34e86192c217 -->
<g id="edge9" class="edge"><title>1_fwatchdog#ServerID_34e86192c217&#45;&gt;localhost:3000#ServerID_34e86192c217</title>
<path fill="none" stroke="black" d="M4591.84,-276.733C4602.64,-266.324 4617.34,-253.322 4632,-244 4641.5,-237.96 4652.22,-232.479 4662.66,-227.741"/>
<polygon fill="black" stroke="black" points="4664.36,-230.818 4672.11,-223.604 4661.55,-224.405 4664.36,-230.818"/>
<text text-anchor="middle" x="4661" y="-247.8" font-family="Times,serif" font-size="14.00">connect</text>
</g>
<!-- 1_fwatchdog#ServerID_34e86192c217&#45;&gt;localhost:3000#ServerID_34e86192c217 -->
<g id="edge11" class="edge"><title>1_fwatchdog#ServerID_34e86192c217&#45;&gt;localhost:3000#ServerID_34e86192c217</title>
<path fill="none" stroke="black" d="M4661.06,-276.987C4671.58,-272.362 4681.57,-266.481 4690,-259 4696.93,-252.847 4701.78,-244.102 4705.12,-235.643"/>
<polygon fill="black" stroke="black" points="4708.49,-236.61 4708.39,-226.016 4701.86,-234.361 4708.49,-236.61"/>
<text text-anchor="middle" x="4720" y="-247.8" font-family="Times,serif" font-size="14.00">write</text>
</g>
<!-- localhost:3000#ServerID_34e86192c217&#45;&gt;1_fwatchdog#ServerID_34e86192c217 -->
<g id="edge10" class="edge"><title>localhost:3000#ServerID_34e86192c217&#45;&gt;1_fwatchdog#ServerID_34e86192c217</title>
<path fill="none" stroke="black" d="M4631.25,-221.024C4605.99,-226.547 4582.68,-234.112 4575,-244 4570.11,-250.292 4568.73,-258.5 4568.97,-266.44"/>
<polygon fill="black" stroke="black" points="4565.5,-266.973 4570.05,-276.541 4572.46,-266.224 4565.5,-266.973"/>
<text text-anchor="middle" x="4591.5" y="-247.8" font-family="Times,serif" font-size="14.00">read</text>
</g>
<!-- localhost:3000#ServerID_34e86192c217&#45;&gt;10_node#ServerID_34e86192c217 -->
<g id="edge15" class="edge"><title>localhost:3000#ServerID_34e86192c217&#45;&gt;10_node#ServerID_34e86192c217</title>
<path fill="none" stroke="black" d="M4712,-189.799C4712,-178.163 4712,-162.548 4712,-149.237"/>
<polygon fill="black" stroke="black" points="4715.5,-149.175 4712,-139.175 4708.5,-149.175 4715.5,-149.175"/>
<text text-anchor="middle" x="4728.5" y="-160.8" font-family="Times,serif" font-size="14.00">read</text>
</g>
<!-- 10.1.80.247:46040#ServerID_OuterContainerID -->
<g id="node9" class="node"><title>10.1.80.247:46040#ServerID_OuterContainerID</title>
<polygon fill="none" stroke="black" points="2402,-421 2066.52,-403 2402,-385 2737.48,-403 2402,-421"/>
<text text-anchor="middle" x="2402" y="-399.3" font-family="Times,serif" font-size="14.00">10.1.80.247:46040#ServerID_OuterContainerID</text>
</g>
<!-- 10.1.80.247:46040#ServerID_OuterContainerID&#45;&gt;1_fwatchdog#ServerID_34e86192c217 -->
<g id="edge13" class="edge"><title>10.1.80.247:46040#ServerID_OuterContainerID&#45;&gt;1_fwatchdog#ServerID_34e86192c217</title>
<path fill="none" stroke="black" d="M2559.54,-393.419C2618.36,-390.431 2685.72,-387.263 2747,-385 3117.08,-371.33 4047.18,-401.659 4413,-344 4449.21,-338.292 4488.68,-326.718 4519.59,-316.365"/>
<polygon fill="black" stroke="black" points="4520.97,-319.592 4529.31,-313.056 4518.71,-312.966 4520.97,-319.592"/>
<text text-anchor="middle" x="4358.5" y="-355.8" font-family="Times,serif" font-size="14.00">read</text>
</g>
<!-- 10_node#ServerID_34e86192c217&#45;&gt;gateway:8080#ServerID_OuterContainerID -->
<g id="edge16" class="edge"><title>10_node#ServerID_34e86192c217&#45;&gt;gateway:8080#ServerID_OuterContainerID</title>
<path fill="none" stroke="black" d="M4845.73,-123.02C5178.38,-126.213 6019.45,-138.562 6061,-182 6110.77,-234.03 6111.27,-292.454 6061,-344 6025.75,-380.148 4617.69,-395.303 4016.56,-400.134"/>
<polygon fill="black" stroke="black" points="4016.42,-396.635 4006.45,-400.215 4016.48,-403.635 4016.42,-396.635"/>
<text text-anchor="middle" x="6127" y="-247.8" font-family="Times,serif" font-size="14.00">connect</text>
</g>
<!-- pipe:[331683264]#ServerID_34e86192c217 -->
<g id="node11" class="node"><title>pipe:[331683264]#ServerID_34e86192c217</title>
<ellipse fill="none" stroke="black" cx="4712" cy="-34" rx="217.162" ry="18"/>
<text text-anchor="middle" x="4712" y="-30.3" font-family="Times,serif" font-size="14.00">pipe:[331683264]#ServerID_34e86192c217</text>
</g>
<!-- 10_node#ServerID_34e86192c217&#45;&gt;pipe:[331683264]#ServerID_34e86192c217 -->
<g id="edge14" class="edge"><title>10_node#ServerID_34e86192c217&#45;&gt;pipe:[331683264]#ServerID_34e86192c217</title>
<path fill="none" stroke="black" d="M4712,-102.799C4712,-91.1626 4712,-75.5479 4712,-62.2368"/>
<polygon fill="black" stroke="black" points="4715.5,-62.1754 4712,-52.1754 4708.5,-62.1755 4715.5,-62.1754"/>
<text text-anchor="middle" x="4731" y="-73.8" font-family="Times,serif" font-size="14.00">write</text>
</g>
<!-- 12_node#ServerID_e56b6537e2d5 -->
<g id="node12" class="node"><title>12_node#ServerID_e56b6537e2d5</title>
<polygon fill="none" stroke="black" points="5965.5,-313 5698.5,-313 5698.5,-277 5965.5,-277 5965.5,-313"/>
<text text-anchor="middle" x="5832" y="-291.3" font-family="Times,serif" font-size="14.00">12_node#ServerID_e56b6537e2d5</text>
</g>
<!-- pipe:[331682415]#ServerID_e56b6537e2d5 -->
<g id="node13" class="node"><title>pipe:[331682415]#ServerID_e56b6537e2d5</title>
<ellipse fill="none" stroke="black" cx="5832" cy="-208" rx="217.162" ry="18"/>
<text text-anchor="middle" x="5832" y="-204.3" font-family="Times,serif" font-size="14.00">pipe:[331682415]#ServerID_e56b6537e2d5</text>
</g>
<!-- 12_node#ServerID_e56b6537e2d5&#45;&gt;pipe:[331682415]#ServerID_e56b6537e2d5 -->
<g id="edge17" class="edge"><title>12_node#ServerID_e56b6537e2d5&#45;&gt;pipe:[331682415]#ServerID_e56b6537e2d5</title>
<path fill="none" stroke="black" d="M5832,-276.799C5832,-265.163 5832,-249.548 5832,-236.237"/>
<polygon fill="black" stroke="black" points="5835.5,-236.175 5832,-226.175 5828.5,-236.175 5835.5,-236.175"/>
<text text-anchor="middle" x="5851" y="-247.8" font-family="Times,serif" font-size="14.00">write</text>
</g>
<!-- 1_fwatchdog#ServerID_e56b6537e2d5 -->
<g id="node14" class="node"><title>1_fwatchdog#ServerID_e56b6537e2d5</title>
<polygon fill="none" stroke="black" points="5357.5,-313 5058.5,-313 5058.5,-277 5357.5,-277 5357.5,-313"/>
<text text-anchor="middle" x="5208" y="-291.3" font-family="Times,serif" font-size="14.00">1_fwatchdog#ServerID_e56b6537e2d5</text>
</g>
<!-- localhost:3000#ServerID_e56b6537e2d5 -->
<g id="node15" class="node"><title>localhost:3000#ServerID_e56b6537e2d5</title>
<polygon fill="none" stroke="black" points="5310,-226 5023.45,-208 5310,-190 5596.55,-208 5310,-226"/>
<text text-anchor="middle" x="5310" y="-204.3" font-family="Times,serif" font-size="14.00">localhost:3000#ServerID_e56b6537e2d5</text>
</g>
<!-- 1_fwatchdog#ServerID_e56b6537e2d5&#45;&gt;localhost:3000#ServerID_e56b6537e2d5 -->
<g id="edge18" class="edge"><title>1_fwatchdog#ServerID_e56b6537e2d5&#45;&gt;localhost:3000#ServerID_e56b6537e2d5</title>
<path fill="none" stroke="black" d="M5228.64,-276.799C5244.25,-263.792 5265.82,-245.815 5282.83,-231.64"/>
<polygon fill="black" stroke="black" points="5285.33,-234.116 5290.77,-225.025 5280.85,-228.738 5285.33,-234.116"/>
<text text-anchor="middle" x="5295" y="-247.8" font-family="Times,serif" font-size="14.00">connect</text>
</g>
<!-- 10.1.80.247:48048#ServerID_OuterContainerID -->
<g id="node16" class="node"><title>10.1.80.247:48048#ServerID_OuterContainerID</title>
<polygon fill="none" stroke="black" points="3091,-421 2755.52,-403 3091,-385 3426.48,-403 3091,-421"/>
<text text-anchor="middle" x="3091" y="-399.3" font-family="Times,serif" font-size="14.00">10.1.80.247:48048#ServerID_OuterContainerID</text>
</g>
<!-- 10.1.80.247:48048#ServerID_OuterContainerID&#45;&gt;1_fwatchdog#ServerID_e56b6537e2d5 -->
<g id="edge19" class="edge"><title>10.1.80.247:48048#ServerID_OuterContainerID&#45;&gt;1_fwatchdog#ServerID_e56b6537e2d5</title>
<path fill="none" stroke="black" d="M3248.98,-393.444C3307.69,-390.467 3374.88,-387.301 3436,-385 3785.87,-371.828 4663.95,-390.259 5011,-344 5055.2,-338.108 5103.9,-326.294 5141.82,-315.861"/>
<polygon fill="black" stroke="black" points="5143.02,-319.159 5151.71,-313.102 5141.14,-312.416 5143.02,-319.159"/>
<text text-anchor="middle" x="4935.5" y="-355.8" font-family="Times,serif" font-size="14.00">read</text>
</g>
<!-- 10.1.80.1:24457#ServerID_OuterContainerID&#45;&gt;10.1.80.247:8080#ServerID_OuterContainerID -->
<g id="edge21" class="edge"><title>10.1.80.1:24457#ServerID_OuterContainerID&#45;&gt;10.1.80.247:8080#ServerID_OuterContainerID</title>
<path fill="none" stroke="black" d="M348.743,-312.449C356.653,-323.019 365.828,-337.453 370,-352 371.838,-358.408 372.151,-360.69 370,-367 368.79,-370.55 367.057,-374.021 365.047,-377.312"/>
<polygon fill="black" stroke="black" points="362.147,-375.351 359.24,-385.54 367.866,-379.387 362.147,-375.351"/>
<text text-anchor="middle" x="392" y="-355.8" font-family="Times,serif" font-size="14.00">POST</text>
</g>
</g>
</svg>
