<?xml version="1.0" encoding="UTF-8" standalone="no"?>
<!DOCTYPE svg PUBLIC "-//W3C//DTD SVG 1.1//EN"
 "http://www.w3.org/Graphics/SVG/1.1/DTD/svg11.dtd">
<!-- Generated by graphviz version 2.38.0 (20140413.2041)
 -->
<!-- Title: G Pages: 1 -->
<svg width="7126pt" height="576pt"
 viewBox="0.00 0.00 7126.00 576.00" xmlns="http://www.w3.org/2000/svg" xmlns:xlink="http://www.w3.org/1999/xlink">
<g id="graph0" class="graph" transform="scale(1 1) rotate(0) translate(4 572)">
<title>G</title>
<polygon fill="white" stroke="none" points="-4,4 -4,-572 7122,-572 7122,4 -4,4"/>
<g id="clust1" class="cluster"><title>clusterServerID_34e86192c217</title>
<polygon fill="none" stroke="black" points="5430,-8 5430,-344 6020,-344 6020,-8 5430,-8"/>
<text text-anchor="middle" x="5725" y="-328.8" font-family="Times,serif" font-size="14.00">clusterServerID_34e86192c217</text>
</g>
<g id="clust2" class="cluster"><title>clusterServerID_5f846fd567&#45;w7nbt</title>
<polygon fill="none" stroke="black" points="6161,-269 6161,-344 6501,-344 6501,-269 6161,-269"/>
<text text-anchor="middle" x="6331" y="-328.8" font-family="Times,serif" font-size="14.00">clusterServerID_5f846fd567&#45;w7nbt</text>
</g>
<g id="clust3" class="cluster"><title>clusterServerID_6df85d7674&#45;2kqrj</title>
<polygon fill="none" stroke="black" points="854,-485 854,-560 1192,-560 1192,-485 854,-485"/>
<text text-anchor="middle" x="1023" y="-544.8" font-family="Times,serif" font-size="14.00">clusterServerID_6df85d7674&#45;2kqrj</text>
</g>
<g id="clust4" class="cluster"><title>clusterServerID_OuterContainerID</title>
<polygon fill="none" stroke="black" points="8,-269 8,-452 5422,-452 5422,-269 8,-269"/>
<text text-anchor="middle" x="2715" y="-436.8" font-family="Times,serif" font-size="14.00">clusterServerID_OuterContainerID</text>
</g>
<g id="clust5" class="cluster"><title>clusterServerID_e56b6537e2d5</title>
<polygon fill="none" stroke="black" points="6509,-182 6509,-452 7110,-452 7110,-182 6509,-182"/>
<text text-anchor="middle" x="6809.5" y="-436.8" font-family="Times,serif" font-size="14.00">clusterServerID_e56b6537e2d5</text>
</g>
<!-- 1_fwatchdog#ServerID_6df85d7674&#45;2kqrj -->
<g id="node1" class="node"><title>1_fwatchdog#ServerID_6df85d7674&#45;2kqrj</title>
<polygon fill="none" stroke="black" points="1183.5,-529 862.5,-529 862.5,-493 1183.5,-493 1183.5,-529"/>
<text text-anchor="middle" x="1023" y="-507.3" font-family="Times,serif" font-size="14.00">1_fwatchdog#ServerID_6df85d7674&#45;2kqrj</text>
</g>
<!-- gateway:8080#ServerID_OuterContainerID -->
<g id="node2" class="node"><title>gateway:8080#ServerID_OuterContainerID</title>
<polygon fill="none" stroke="black" points="3749,-421 3444.52,-403 3749,-385 4053.48,-403 3749,-421"/>
<text text-anchor="middle" x="3749" y="-399.3" font-family="Times,serif" font-size="14.00">gateway:8080#ServerID_OuterContainerID</text>
</g>
<!-- 1_fwatchdog#ServerID_6df85d7674&#45;2kqrj&#45;&gt;gateway:8080#ServerID_OuterContainerID -->
<g id="edge1" class="edge"><title>1_fwatchdog#ServerID_6df85d7674&#45;2kqrj&#45;&gt;gateway:8080#ServerID_OuterContainerID</title>
<path fill="none" stroke="black" d="M1183.81,-506.055C1531.55,-497.537 2379.46,-476.832 3090,-460 3243.33,-456.368 3282.21,-465.394 3435,-452 3515.83,-444.915 3607.46,-430.119 3670.79,-418.816"/>
<polygon fill="black" stroke="black" points="3671.48,-422.248 3680.7,-417.033 3670.24,-415.358 3671.48,-422.248"/>
<text text-anchor="middle" x="3110" y="-463.8" font-family="Times,serif" font-size="14.00">POST</text>
</g>
<!-- 10.1.80.247:46012#ServerID_OuterContainerID -->
<g id="node3" class="node"><title>10.1.80.247:46012#ServerID_OuterContainerID</title>
<polygon fill="none" stroke="black" points="1024,-421 688.515,-403 1024,-385 1359.48,-403 1024,-421"/>
<text text-anchor="middle" x="1024" y="-399.3" font-family="Times,serif" font-size="14.00">10.1.80.247:46012#ServerID_OuterContainerID</text>
</g>
<!-- 1_fwatchdog#ServerID_6df85d7674&#45;2kqrj&#45;&gt;10.1.80.247:46012#ServerID_OuterContainerID -->
<g id="edge7" class="edge"><title>1_fwatchdog#ServerID_6df85d7674&#45;2kqrj&#45;&gt;10.1.80.247:46012#ServerID_OuterContainerID</title>
<path fill="none" stroke="black" d="M984.069,-492.889C971.19,-484.513 961.405,-473.341 967,-460 972.43,-447.053 982.475,-435.591 992.637,-426.463"/>
<polygon fill="black" stroke="black" points="994.969,-429.075 1000.36,-419.952 990.456,-423.724 994.969,-429.075"/>
<text text-anchor="middle" x="1009" y="-463.8" font-family="Times,serif" font-size="14.00">RESPONSE</text>
</g>
<!-- 10.1.80.247:8080#ServerID_OuterContainerID -->
<g id="node6" class="node"><title>10.1.80.247:8080#ServerID_OuterContainerID</title>
<polygon fill="none" stroke="black" points="343,-421 15.5599,-403 343,-385 670.44,-403 343,-421"/>
<text text-anchor="middle" x="343" y="-399.3" font-family="Times,serif" font-size="14.00">10.1.80.247:8080#ServerID_OuterContainerID</text>
</g>
<!-- 1_fwatchdog#ServerID_6df85d7674&#45;2kqrj&#45;&gt;10.1.80.247:8080#ServerID_OuterContainerID -->
<g id="edge8" class="edge"><title>1_fwatchdog#ServerID_6df85d7674&#45;2kqrj&#45;&gt;10.1.80.247:8080#ServerID_OuterContainerID</title>
<path fill="none" stroke="black" d="M862.077,-498.807C798.858,-493.282 725.805,-485.5 660,-475 571.186,-460.828 470.014,-436.762 406.343,-420.627"/>
<polygon fill="black" stroke="black" points="407.008,-417.185 396.453,-418.109 405.28,-423.969 407.008,-417.185"/>
<text text-anchor="middle" x="680" y="-463.8" font-family="Times,serif" font-size="14.00">POST</text>
</g>
<!-- gateway:8080#ServerID_OuterContainerID&#45;&gt;1_fwatchdog#ServerID_6df85d7674&#45;2kqrj -->
<g id="edge3" class="edge"><title>gateway:8080#ServerID_OuterContainerID&#45;&gt;1_fwatchdog#ServerID_6df85d7674&#45;2kqrj</title>
<path fill="none" stroke="black" d="M3676.25,-416.736C3612.74,-427.466 3518.01,-442.539 3435,-452 3299.93,-467.393 3265.8,-468.757 3130,-475 2411.01,-508.053 1552.75,-510.974 1193.89,-510.555"/>
<polygon fill="black" stroke="black" points="1193.68,-507.055 1183.68,-510.542 1193.67,-514.055 1193.68,-507.055"/>
<text text-anchor="middle" x="3401" y="-463.8" font-family="Times,serif" font-size="14.00">RESPONSE</text>
</g>
<!-- 10.1.80.247:46012#ServerID_OuterContainerID&#45;&gt;1_fwatchdog#ServerID_6df85d7674&#45;2kqrj -->
<g id="edge2" class="edge"><title>10.1.80.247:46012#ServerID_OuterContainerID&#45;&gt;1_fwatchdog#ServerID_6df85d7674&#45;2kqrj</title>
<path fill="none" stroke="black" d="M1039.08,-420.48C1050.24,-434.767 1062.35,-456.067 1055,-475 1053.64,-478.507 1051.74,-481.876 1049.55,-485.046"/>
<polygon fill="black" stroke="black" points="1046.75,-482.944 1043.2,-492.928 1052.2,-487.335 1046.75,-482.944"/>
<text text-anchor="middle" x="1078" y="-463.8" font-family="Times,serif" font-size="14.00">POST</text>
</g>
<!-- 1_fwatchdog#ServerID_34e86192c217 -->
<g id="node7" class="node"><title>1_fwatchdog#ServerID_34e86192c217</title>
<polygon fill="none" stroke="black" points="5737.5,-313 5438.5,-313 5438.5,-277 5737.5,-277 5737.5,-313"/>
<text text-anchor="middle" x="5588" y="-291.3" font-family="Times,serif" font-size="14.00">1_fwatchdog#ServerID_34e86192c217</text>
</g>
<!-- 10.1.80.247:46012#ServerID_OuterContainerID&#45;&gt;1_fwatchdog#ServerID_34e86192c217 -->
<g id="edge13" class="edge"><title>10.1.80.247:46012#ServerID_OuterContainerID&#45;&gt;1_fwatchdog#ServerID_34e86192c217</title>
<path fill="none" stroke="black" d="M1181.54,-393.425C1240.36,-390.437 1307.72,-387.269 1369,-385 1960.33,-363.104 2108.32,-360.202 2700,-352 2775.72,-350.95 5351.08,-354.978 5426,-344 5462.53,-338.647 5502.31,-326.953 5533.3,-316.448"/>
<polygon fill="black" stroke="black" points="5534.73,-319.658 5543.04,-313.088 5532.45,-313.04 5534.73,-319.658"/>
<text text-anchor="middle" x="2716.5" y="-355.8" font-family="Times,serif" font-size="14.00">read</text>
</g>
<!-- 10.1.80.247:48052#ServerID_OuterContainerID -->
<g id="node4" class="node"><title>10.1.80.247:48052#ServerID_OuterContainerID</title>
<polygon fill="none" stroke="black" points="5079,-421 4743.52,-403 5079,-385 5414.48,-403 5079,-421"/>
<text text-anchor="middle" x="5079" y="-399.3" font-family="Times,serif" font-size="14.00">10.1.80.247:48052#ServerID_OuterContainerID</text>
</g>
<!-- 1_fwatchdog#ServerID_5f846fd567&#45;w7nbt -->
<g id="node5" class="node"><title>1_fwatchdog#ServerID_5f846fd567&#45;w7nbt</title>
<polygon fill="none" stroke="black" points="6493,-313 6169,-313 6169,-277 6493,-277 6493,-313"/>
<text text-anchor="middle" x="6331" y="-291.3" font-family="Times,serif" font-size="14.00">1_fwatchdog#ServerID_5f846fd567&#45;w7nbt</text>
</g>
<!-- 10.1.80.247:48052#ServerID_OuterContainerID&#45;&gt;1_fwatchdog#ServerID_5f846fd567&#45;w7nbt -->
<g id="edge4" class="edge"><title>10.1.80.247:48052#ServerID_OuterContainerID&#45;&gt;1_fwatchdog#ServerID_5f846fd567&#45;w7nbt</title>
<path fill="none" stroke="black" d="M5329.92,-398.449C5622.66,-393.58 6076.79,-383.504 6155,-367 6202.88,-356.895 6254.45,-334.614 6289.31,-317.688"/>
<polygon fill="black" stroke="black" points="6291.26,-320.63 6298.68,-313.071 6288.16,-314.351 6291.26,-320.63"/>
<text text-anchor="middle" x="6225" y="-355.8" font-family="Times,serif" font-size="14.00">POST</text>
</g>
<!-- 1_fwatchdog#ServerID_e56b6537e2d5 -->
<g id="node15" class="node"><title>1_fwatchdog#ServerID_e56b6537e2d5</title>
<polygon fill="none" stroke="black" points="6816.5,-313 6517.5,-313 6517.5,-277 6816.5,-277 6816.5,-313"/>
<text text-anchor="middle" x="6667" y="-291.3" font-family="Times,serif" font-size="14.00">1_fwatchdog#ServerID_e56b6537e2d5</text>
</g>
<!-- 10.1.80.247:48052#ServerID_OuterContainerID&#45;&gt;1_fwatchdog#ServerID_e56b6537e2d5 -->
<g id="edge24" class="edge"><title>10.1.80.247:48052#ServerID_OuterContainerID&#45;&gt;1_fwatchdog#ServerID_e56b6537e2d5</title>
<path fill="none" stroke="black" d="M5339.96,-398.996C5656.59,-394.63 6171.79,-385.011 6363,-367 6426.65,-361.005 6442.67,-358.221 6505,-344 6538.81,-336.287 6575.93,-325.463 6606.1,-316.045"/>
<polygon fill="black" stroke="black" points="6607.16,-319.384 6615.64,-313.043 6605.05,-312.707 6607.16,-319.384"/>
<text text-anchor="middle" x="6483.5" y="-355.8" font-family="Times,serif" font-size="14.00">read</text>
</g>
<!-- 1_fwatchdog#ServerID_5f846fd567&#45;w7nbt&#45;&gt;10.1.80.247:48052#ServerID_OuterContainerID -->
<g id="edge6" class="edge"><title>1_fwatchdog#ServerID_5f846fd567&#45;w7nbt&#45;&gt;10.1.80.247:48052#ServerID_OuterContainerID</title>
<path fill="none" stroke="black" d="M6317.45,-313.206C6302.71,-330.43 6277.42,-355.918 6249,-367 6207.63,-383.131 5677.18,-393.552 5344.9,-398.54"/>
<polygon fill="black" stroke="black" points="5344.58,-395.044 5334.63,-398.693 5344.68,-402.043 5344.58,-395.044"/>
<text text-anchor="middle" x="6317" y="-355.8" font-family="Times,serif" font-size="14.00">RESPONSE</text>
</g>
<!-- 10.1.80.247:8080#ServerID_OuterContainerID&#45;&gt;1_fwatchdog#ServerID_6df85d7674&#45;2kqrj -->
<g id="edge5" class="edge"><title>10.1.80.247:8080#ServerID_OuterContainerID&#45;&gt;1_fwatchdog#ServerID_6df85d7674&#45;2kqrj</title>
<path fill="none" stroke="black" d="M423.741,-416.586C542.658,-435.123 765.675,-469.888 903.558,-491.381"/>
<polygon fill="black" stroke="black" points="903.326,-494.887 913.746,-492.969 904.405,-487.971 903.326,-494.887"/>
<text text-anchor="middle" x="826" y="-463.8" font-family="Times,serif" font-size="14.00">RESPONSE</text>
</g>
<!-- 10.1.80.1:38722#ServerID_OuterContainerID -->
<g id="node19" class="node"><title>10.1.80.1:38722#ServerID_OuterContainerID</title>
<polygon fill="none" stroke="black" points="1023,-313 704.105,-295 1023,-277 1341.9,-295 1023,-313"/>
<text text-anchor="middle" x="1023" y="-291.3" font-family="Times,serif" font-size="14.00">10.1.80.1:38722#ServerID_OuterContainerID</text>
</g>
<!-- 10.1.80.247:8080#ServerID_OuterContainerID&#45;&gt;10.1.80.1:38722#ServerID_OuterContainerID -->
<g id="edge28" class="edge"><title>10.1.80.247:8080#ServerID_OuterContainerID&#45;&gt;10.1.80.1:38722#ServerID_OuterContainerID</title>
<path fill="none" stroke="black" d="M483.096,-392.65C550.965,-387.073 633.495,-378.744 707,-367 795.676,-352.832 896.695,-328.709 960.145,-312.566"/>
<polygon fill="black" stroke="black" points="961.177,-315.914 969.998,-310.046 959.442,-309.133 961.177,-315.914"/>
<text text-anchor="middle" x="828" y="-355.8" font-family="Times,serif" font-size="14.00">RESPONSE</text>
</g>
<!-- 10.0.88.125:31112#ServerID_OuterContainerID -->
<g id="node20" class="node"><title>10.0.88.125:31112#ServerID_OuterContainerID</title>
<polygon fill="none" stroke="black" points="351,-313 15.5152,-295 351,-277 686.485,-295 351,-313"/>
<text text-anchor="middle" x="351" y="-291.3" font-family="Times,serif" font-size="14.00">10.0.88.125:31112#ServerID_OuterContainerID</text>
</g>
<!-- 10.1.80.247:8080#ServerID_OuterContainerID&#45;&gt;10.0.88.125:31112#ServerID_OuterContainerID -->
<g id="edge29" class="edge"><title>10.1.80.247:8080#ServerID_OuterContainerID&#45;&gt;10.0.88.125:31112#ServerID_OuterContainerID</title>
<path fill="none" stroke="black" d="M344.285,-384.969C345.545,-368.279 347.485,-342.579 348.956,-323.084"/>
<polygon fill="black" stroke="black" points="352.455,-323.224 349.718,-312.988 345.475,-322.697 352.455,-323.224"/>
<text text-anchor="middle" x="389" y="-355.8" font-family="Times,serif" font-size="14.00">RESPONSE</text>
</g>
<!-- localhost:3000#ServerID_34e86192c217 -->
<g id="node8" class="node"><title>localhost:3000#ServerID_34e86192c217</title>
<polygon fill="none" stroke="black" points="5725,-226 5438.45,-208 5725,-190 6011.55,-208 5725,-226"/>
<text text-anchor="middle" x="5725" y="-204.3" font-family="Times,serif" font-size="14.00">localhost:3000#ServerID_34e86192c217</text>
</g>
<!-- 1_fwatchdog#ServerID_34e86192c217&#45;&gt;localhost:3000#ServerID_34e86192c217 -->
<g id="edge9" class="edge"><title>1_fwatchdog#ServerID_34e86192c217&#45;&gt;localhost:3000#ServerID_34e86192c217</title>
<path fill="none" stroke="black" d="M5658.41,-276.931C5669.96,-272.26 5681.31,-266.378 5691,-259 5699.43,-252.583 5706.5,-243.453 5711.97,-234.747"/>
<polygon fill="black" stroke="black" points="5715.08,-236.364 5717.08,-225.96 5709.03,-232.844 5715.08,-236.364"/>
<text text-anchor="middle" x="5734" y="-247.8" font-family="Times,serif" font-size="14.00">connect</text>
</g>
<!-- 1_fwatchdog#ServerID_34e86192c217&#45;&gt;localhost:3000#ServerID_34e86192c217 -->
<g id="edge11" class="edge"><title>1_fwatchdog#ServerID_34e86192c217&#45;&gt;localhost:3000#ServerID_34e86192c217</title>
<path fill="none" stroke="black" d="M5585.16,-276.819C5584.4,-266.181 5585.42,-252.898 5593,-244 5599.97,-235.823 5618.54,-229.049 5639.63,-223.71"/>
<polygon fill="black" stroke="black" points="5640.56,-227.088 5649.47,-221.358 5638.93,-220.28 5640.56,-227.088"/>
<text text-anchor="middle" x="5612" y="-247.8" font-family="Times,serif" font-size="14.00">write</text>
</g>
<!-- localhost:3000#ServerID_34e86192c217&#45;&gt;1_fwatchdog#ServerID_34e86192c217 -->
<g id="edge10" class="edge"><title>localhost:3000#ServerID_34e86192c217&#45;&gt;1_fwatchdog#ServerID_34e86192c217</title>
<path fill="none" stroke="black" d="M5691.42,-223.935C5679.35,-229.721 5665.81,-236.708 5654,-244 5646.64,-248.546 5631.61,-259.872 5617.75,-270.596"/>
<polygon fill="black" stroke="black" points="5615.53,-267.884 5609.79,-276.786 5619.83,-273.409 5615.53,-267.884"/>
<text text-anchor="middle" x="5670.5" y="-247.8" font-family="Times,serif" font-size="14.00">read</text>
</g>
<!-- 10_node#ServerID_34e86192c217 -->
<g id="node11" class="node"><title>10_node#ServerID_34e86192c217</title>
<polygon fill="none" stroke="black" points="6011.5,-139 5744.5,-139 5744.5,-103 6011.5,-103 6011.5,-139"/>
<text text-anchor="middle" x="5878" y="-117.3" font-family="Times,serif" font-size="14.00">10_node#ServerID_34e86192c217</text>
</g>
<!-- localhost:3000#ServerID_34e86192c217&#45;&gt;10_node#ServerID_34e86192c217 -->
<g id="edge16" class="edge"><title>localhost:3000#ServerID_34e86192c217&#45;&gt;10_node#ServerID_34e86192c217</title>
<path fill="none" stroke="black" d="M5752.71,-191.607C5776.69,-178.283 5811.66,-158.857 5838.56,-143.911"/>
<polygon fill="black" stroke="black" points="5840.31,-146.945 5847.35,-139.029 5836.91,-140.826 5840.31,-146.945"/>
<text text-anchor="middle" x="5827.5" y="-160.8" font-family="Times,serif" font-size="14.00">read</text>
</g>
<!-- 10.1.80.247:46018#ServerID_OuterContainerID -->
<g id="node9" class="node"><title>10.1.80.247:46018#ServerID_OuterContainerID</title>
<polygon fill="none" stroke="black" points="1713,-421 1377.52,-403 1713,-385 2048.48,-403 1713,-421"/>
<text text-anchor="middle" x="1713" y="-399.3" font-family="Times,serif" font-size="14.00">10.1.80.247:46018#ServerID_OuterContainerID</text>
</g>
<!-- 10.1.80.247:46018#ServerID_OuterContainerID&#45;&gt;1_fwatchdog#ServerID_34e86192c217 -->
<g id="edge12" class="edge"><title>10.1.80.247:46018#ServerID_OuterContainerID&#45;&gt;1_fwatchdog#ServerID_34e86192c217</title>
<path fill="none" stroke="black" d="M1867.52,-393.287C1927.04,-390.219 1995.67,-387.032 2058,-385 2977.63,-355.02 3207.94,-362.169 4128,-352 4200.11,-351.203 5354.67,-354.57 5426,-344 5462.53,-338.588 5502.3,-326.893 5533.3,-316.402"/>
<polygon fill="black" stroke="black" points="5534.72,-319.613 5543.04,-313.048 5532.44,-312.995 5534.72,-319.613"/>
<text text-anchor="middle" x="4144.5" y="-355.8" font-family="Times,serif" font-size="14.00">read</text>
</g>
<!-- 10.1.80.247:46030#ServerID_OuterContainerID -->
<g id="node10" class="node"><title>10.1.80.247:46030#ServerID_OuterContainerID</title>
<polygon fill="none" stroke="black" points="2402,-421 2066.52,-403 2402,-385 2737.48,-403 2402,-421"/>
<text text-anchor="middle" x="2402" y="-399.3" font-family="Times,serif" font-size="14.00">10.1.80.247:46030#ServerID_OuterContainerID</text>
</g>
<!-- 10.1.80.247:46030#ServerID_OuterContainerID&#45;&gt;1_fwatchdog#ServerID_34e86192c217 -->
<g id="edge14" class="edge"><title>10.1.80.247:46030#ServerID_OuterContainerID&#45;&gt;1_fwatchdog#ServerID_34e86192c217</title>
<path fill="none" stroke="black" d="M2556.52,-393.266C2616.04,-390.195 2684.67,-387.012 2747,-385 2821.39,-382.599 5352.43,-355.246 5426,-344 5462.37,-338.441 5501.99,-326.807 5532.94,-316.385"/>
<polygon fill="black" stroke="black" points="5534.35,-319.604 5542.67,-313.053 5532.08,-312.982 5534.35,-319.604"/>
<text text-anchor="middle" x="5143.5" y="-355.8" font-family="Times,serif" font-size="14.00">read</text>
</g>
<!-- 10_node#ServerID_34e86192c217&#45;&gt;gateway:8080#ServerID_OuterContainerID -->
<g id="edge17" class="edge"><title>10_node#ServerID_34e86192c217&#45;&gt;gateway:8080#ServerID_OuterContainerID</title>
<path fill="none" stroke="black" d="M5962.36,-139.073C5985.2,-147.971 6007.36,-161.486 6021,-182 6031.83,-198.285 6031.76,-209.672 6021,-226 6002.7,-253.762 5778.34,-336.294 5746,-344 5563.93,-387.376 4249.06,-378.643 4062,-385 4008.72,-386.811 3950.37,-389.725 3898.65,-392.633"/>
<polygon fill="black" stroke="black" points="3898.18,-389.154 3888.4,-393.215 3898.58,-396.143 3898.18,-389.154"/>
<text text-anchor="middle" x="6025" y="-247.8" font-family="Times,serif" font-size="14.00">connect</text>
</g>
<!-- pipe:[331683264]#ServerID_34e86192c217 -->
<g id="node12" class="node"><title>pipe:[331683264]#ServerID_34e86192c217</title>
<ellipse fill="none" stroke="black" cx="5795" cy="-34" rx="217.162" ry="18"/>
<text text-anchor="middle" x="5795" y="-30.3" font-family="Times,serif" font-size="14.00">pipe:[331683264]#ServerID_34e86192c217</text>
</g>
<!-- 10_node#ServerID_34e86192c217&#45;&gt;pipe:[331683264]#ServerID_34e86192c217 -->
<g id="edge15" class="edge"><title>10_node#ServerID_34e86192c217&#45;&gt;pipe:[331683264]#ServerID_34e86192c217</title>
<path fill="none" stroke="black" d="M5861.2,-102.799C5849.05,-90.3561 5832.46,-73.3644 5818.93,-59.5044"/>
<polygon fill="black" stroke="black" points="5821.26,-56.885 5811.77,-52.1754 5816.25,-61.7755 5821.26,-56.885"/>
<text text-anchor="middle" x="5861" y="-73.8" font-family="Times,serif" font-size="14.00">write</text>
</g>
<!-- 10.152.183.10:53#ServerID_OuterContainerID -->
<g id="node13" class="node"><title>10.152.183.10:53#ServerID_OuterContainerID</title>
<polygon fill="none" stroke="black" points="4398,-421 4070.56,-403 4398,-385 4725.44,-403 4398,-421"/>
<text text-anchor="middle" x="4398" y="-399.3" font-family="Times,serif" font-size="14.00">10.152.183.10:53#ServerID_OuterContainerID</text>
</g>
<!-- 10_node#ServerID_34e86192c217&#45;&gt;10.152.183.10:53#ServerID_OuterContainerID -->
<g id="edge19" class="edge"><title>10_node#ServerID_34e86192c217&#45;&gt;10.152.183.10:53#ServerID_OuterContainerID</title>
<path fill="none" stroke="black" d="M6011.64,-138.614C6037.78,-143.597 6060.61,-149.718 6072,-157 6111.79,-182.44 6118.79,-198.966 6133,-244 6154.21,-311.186 6098.71,-341.585 6033,-367 5999.37,-380.008 4771.04,-383.841 4735,-385 4677.54,-386.847 4614.6,-389.777 4558.84,-392.687"/>
<polygon fill="black" stroke="black" points="4558.32,-389.209 4548.51,-393.23 4558.68,-396.2 4558.32,-389.209"/>
<text text-anchor="middle" x="6161.5" y="-247.8" font-family="Times,serif" font-size="14.00">sendto</text>
</g>
<!-- 10.152.183.10:53#ServerID_OuterContainerID&#45;&gt;10_node#ServerID_34e86192c217 -->
<g id="edge18" class="edge"><title>10.152.183.10:53#ServerID_OuterContainerID&#45;&gt;10_node#ServerID_34e86192c217</title>
<path fill="none" stroke="black" d="M4548.51,-393.237C4606.75,-390.154 4673.96,-386.969 4735,-385 4770.43,-383.857 5981.64,-386.871 6011,-367 6050.45,-340.298 6084.64,-193.472 6054,-157 6048.32,-150.234 6036.51,-144.749 6021.57,-140.308"/>
<polygon fill="black" stroke="black" points="6022.46,-136.923 6011.89,-137.676 6020.62,-143.677 6022.46,-136.923"/>
<text text-anchor="middle" x="6096" y="-247.8" font-family="Times,serif" font-size="14.00">recvfrom</text>
</g>
<!-- localhost:3000#ServerID_e56b6537e2d5 -->
<g id="node14" class="node"><title>localhost:3000#ServerID_e56b6537e2d5</title>
<polygon fill="none" stroke="black" points="6804,-421 6517.45,-403 6804,-385 7090.55,-403 6804,-421"/>
<text text-anchor="middle" x="6804" y="-399.3" font-family="Times,serif" font-size="14.00">localhost:3000#ServerID_e56b6537e2d5</text>
</g>
<!-- localhost:3000#ServerID_e56b6537e2d5&#45;&gt;1_fwatchdog#ServerID_e56b6537e2d5 -->
<g id="edge20" class="edge"><title>localhost:3000#ServerID_e56b6537e2d5&#45;&gt;1_fwatchdog#ServerID_e56b6537e2d5</title>
<path fill="none" stroke="black" d="M6715.95,-390.458C6702.4,-385.185 6689.71,-377.67 6680,-367 6669.34,-355.292 6666.04,-337.848 6665.43,-323.181"/>
<polygon fill="black" stroke="black" points="6668.93,-323.101 6665.39,-313.114 6661.93,-323.127 6668.93,-323.101"/>
<text text-anchor="middle" x="6696.5" y="-355.8" font-family="Times,serif" font-size="14.00">read</text>
</g>
<!-- 12_node#ServerID_e56b6537e2d5 -->
<g id="node17" class="node"><title>12_node#ServerID_e56b6537e2d5</title>
<polygon fill="none" stroke="black" points="7101.5,-313 6834.5,-313 6834.5,-277 7101.5,-277 7101.5,-313"/>
<text text-anchor="middle" x="6968" y="-291.3" font-family="Times,serif" font-size="14.00">12_node#ServerID_e56b6537e2d5</text>
</g>
<!-- localhost:3000#ServerID_e56b6537e2d5&#45;&gt;12_node#ServerID_e56b6537e2d5 -->
<g id="edge26" class="edge"><title>localhost:3000#ServerID_e56b6537e2d5&#45;&gt;12_node#ServerID_e56b6537e2d5</title>
<path fill="none" stroke="black" d="M6828.2,-386.359C6855.89,-368.462 6901.47,-338.999 6933.02,-318.606"/>
<polygon fill="black" stroke="black" points="6935.03,-321.479 6941.53,-313.112 6931.23,-315.601 6935.03,-321.479"/>
<text text-anchor="middle" x="6897.5" y="-355.8" font-family="Times,serif" font-size="14.00">read</text>
</g>
<!-- 1_fwatchdog#ServerID_e56b6537e2d5&#45;&gt;localhost:3000#ServerID_e56b6537e2d5 -->
<g id="edge21" class="edge"><title>1_fwatchdog#ServerID_e56b6537e2d5&#45;&gt;localhost:3000#ServerID_e56b6537e2d5</title>
<path fill="none" stroke="black" d="M6682.38,-313.077C6696.64,-328.33 6718.94,-350.716 6741,-367 6748.17,-372.291 6756.22,-377.346 6764.11,-381.888"/>
<polygon fill="black" stroke="black" points="6762.46,-384.974 6772.9,-386.782 6765.87,-378.859 6762.46,-384.974"/>
<text text-anchor="middle" x="6760" y="-355.8" font-family="Times,serif" font-size="14.00">write</text>
</g>
<!-- 1_fwatchdog#ServerID_e56b6537e2d5&#45;&gt;localhost:3000#ServerID_e56b6537e2d5 -->
<g id="edge23" class="edge"><title>1_fwatchdog#ServerID_e56b6537e2d5&#45;&gt;localhost:3000#ServerID_e56b6537e2d5</title>
<path fill="none" stroke="black" d="M6717.39,-313.001C6738.4,-322.027 6761.86,-334.86 6779,-352 6785.61,-358.61 6790.78,-367.323 6794.67,-375.622"/>
<polygon fill="black" stroke="black" points="6791.53,-377.175 6798.64,-385.022 6797.97,-374.448 6791.53,-377.175"/>
<text text-anchor="middle" x="6818" y="-355.8" font-family="Times,serif" font-size="14.00">connect</text>
</g>
<!-- 10.1.80.247:46082#ServerID_OuterContainerID -->
<g id="node16" class="node"><title>10.1.80.247:46082#ServerID_OuterContainerID</title>
<polygon fill="none" stroke="black" points="3091,-421 2755.52,-403 3091,-385 3426.48,-403 3091,-421"/>
<text text-anchor="middle" x="3091" y="-399.3" font-family="Times,serif" font-size="14.00">10.1.80.247:46082#ServerID_OuterContainerID</text>
</g>
<!-- 10.1.80.247:46082#ServerID_OuterContainerID&#45;&gt;1_fwatchdog#ServerID_34e86192c217 -->
<g id="edge22" class="edge"><title>10.1.80.247:46082#ServerID_OuterContainerID&#45;&gt;1_fwatchdog#ServerID_34e86192c217</title>
<path fill="none" stroke="black" d="M3247.25,-393.352C3306.36,-390.329 3374.27,-387.156 3436,-385 3878.05,-369.558 4988.94,-411.991 5426,-344 5462.22,-338.365 5501.69,-326.792 5532.6,-316.422"/>
<polygon fill="black" stroke="black" points="5533.98,-319.648 5542.32,-313.107 5531.72,-313.023 5533.98,-319.648"/>
<text text-anchor="middle" x="5357.5" y="-355.8" font-family="Times,serif" font-size="14.00">read</text>
</g>
<!-- pipe:[331682415]#ServerID_e56b6537e2d5 -->
<g id="node18" class="node"><title>pipe:[331682415]#ServerID_e56b6537e2d5</title>
<ellipse fill="none" stroke="black" cx="6885" cy="-208" rx="217.162" ry="18"/>
<text text-anchor="middle" x="6885" y="-204.3" font-family="Times,serif" font-size="14.00">pipe:[331682415]#ServerID_e56b6537e2d5</text>
</g>
<!-- 12_node#ServerID_e56b6537e2d5&#45;&gt;pipe:[331682415]#ServerID_e56b6537e2d5 -->
<g id="edge25" class="edge"><title>12_node#ServerID_e56b6537e2d5&#45;&gt;pipe:[331682415]#ServerID_e56b6537e2d5</title>
<path fill="none" stroke="black" d="M6951.2,-276.799C6939.05,-264.356 6922.46,-247.364 6908.93,-233.504"/>
<polygon fill="black" stroke="black" points="6911.26,-230.885 6901.77,-226.175 6906.25,-235.775 6911.26,-230.885"/>
<text text-anchor="middle" x="6950" y="-247.8" font-family="Times,serif" font-size="14.00">write</text>
</g>
<!-- 10.1.80.1:38722#ServerID_OuterContainerID&#45;&gt;10.1.80.247:8080#ServerID_OuterContainerID -->
<g id="edge27" class="edge"><title>10.1.80.1:38722#ServerID_OuterContainerID&#45;&gt;10.1.80.247:8080#ServerID_OuterContainerID</title>
<path fill="none" stroke="black" d="M942.693,-308.518C815.29,-328.378 567.621,-366.985 433.891,-387.832"/>
<polygon fill="black" stroke="black" points="433.017,-384.426 423.675,-389.424 434.095,-391.342 433.017,-384.426"/>
<text text-anchor="middle" x="683" y="-355.8" font-family="Times,serif" font-size="14.00">POST</text>
</g>
</g>
</svg>
