<?xml version="1.0" encoding="UTF-8" standalone="no"?>
<!DOCTYPE svg PUBLIC "-//W3C//DTD SVG 1.1//EN"
 "http://www.w3.org/Graphics/SVG/1.1/DTD/svg11.dtd">
<!-- Generated by graphviz version 2.38.0 (20140413.2041)
 -->
<!-- Title: G Pages: 1 -->
<svg width="5685pt" height="576pt"
 viewBox="0.00 0.00 5685.00 576.00" xmlns="http://www.w3.org/2000/svg" xmlns:xlink="http://www.w3.org/1999/xlink">
<g id="graph0" class="graph" transform="scale(1 1) rotate(0) translate(4 572)">
<title>G</title>
<polygon fill="white" stroke="none" points="-4,4 -4,-572 5681,-572 5681,4 -4,4"/>
<g id="clust1" class="cluster"><title>clusterServerID_34e86192c217</title>
<polygon fill="none" stroke="black" points="3363,-182 3363,-560 4759,-560 4759,-182 3363,-182"/>
<text text-anchor="middle" x="4061" y="-544.8" font-family="Times,serif" font-size="14.00">clusterServerID_34e86192c217</text>
</g>
<g id="clust2" class="cluster"><title>clusterServerID_5f846fd567&#45;w7nbt</title>
<polygon fill="none" stroke="black" points="2169,-290 2169,-365 2509,-365 2509,-290 2169,-290"/>
<text text-anchor="middle" x="2339" y="-349.8" font-family="Times,serif" font-size="14.00">clusterServerID_5f846fd567&#45;w7nbt</text>
</g>
<g id="clust3" class="cluster"><title>clusterServerID_6df85d7674&#45;2kqrj</title>
<polygon fill="none" stroke="black" points="824,-290 824,-365 1162,-365 1162,-290 824,-290"/>
<text text-anchor="middle" x="993" y="-349.8" font-family="Times,serif" font-size="14.00">clusterServerID_6df85d7674&#45;2kqrj</text>
</g>
<g id="clust4" class="cluster"><title>clusterServerID_OuterContainerID</title>
<polygon fill="none" stroke="black" points="8,-95 8,-257 3355,-257 3355,-95 8,-95"/>
<text text-anchor="middle" x="1681.5" y="-241.8" font-family="Times,serif" font-size="14.00">clusterServerID_OuterContainerID</text>
</g>
<g id="clust5" class="cluster"><title>clusterServerID_e56b6537e2d5</title>
<polygon fill="none" stroke="black" points="4767,-8 4767,-257 5669,-257 5669,-8 4767,-8"/>
<text text-anchor="middle" x="5218" y="-241.8" font-family="Times,serif" font-size="14.00">clusterServerID_e56b6537e2d5</text>
</g>
<!-- 1_fwatchdog#ServerID_6df85d7674&#45;2kqrj -->
<g id="node1" class="node"><title>1_fwatchdog#ServerID_6df85d7674&#45;2kqrj</title>
<polygon fill="none" stroke="black" points="1153.5,-334 832.5,-334 832.5,-298 1153.5,-298 1153.5,-334"/>
<text text-anchor="middle" x="993" y="-312.3" font-family="Times,serif" font-size="14.00">1_fwatchdog#ServerID_6df85d7674&#45;2kqrj</text>
</g>
<!-- gateway:8080#ServerID_OuterContainerID -->
<g id="node2" class="node"><title>gateway:8080#ServerID_OuterContainerID</title>
<polygon fill="none" stroke="black" points="992,-226 687.518,-208 992,-190 1296.48,-208 992,-226"/>
<text text-anchor="middle" x="992" y="-204.3" font-family="Times,serif" font-size="14.00">gateway:8080#ServerID_OuterContainerID</text>
</g>
<!-- 1_fwatchdog#ServerID_6df85d7674&#45;2kqrj&#45;&gt;gateway:8080#ServerID_OuterContainerID -->
<g id="edge1" class="edge"><title>1_fwatchdog#ServerID_6df85d7674&#45;2kqrj&#45;&gt;gateway:8080#ServerID_OuterContainerID</title>
<path fill="none" stroke="black" d="M1012.58,-297.831C1017.21,-292.619 1021.52,-286.527 1024,-280 1026.36,-273.766 1025.71,-271.443 1024,-265 1021.15,-254.286 1015.72,-243.483 1010.13,-234.263"/>
<polygon fill="black" stroke="black" points="1012.93,-232.148 1004.58,-225.633 1007.05,-235.936 1012.93,-232.148"/>
<text text-anchor="middle" x="1046" y="-268.8" font-family="Times,serif" font-size="14.00">POST</text>
</g>
<!-- 10.1.80.247:46082#ServerID_OuterContainerID -->
<g id="node5" class="node"><title>10.1.80.247:46082#ServerID_OuterContainerID</title>
<polygon fill="none" stroke="black" points="1650,-226 1314.52,-208 1650,-190 1985.48,-208 1650,-226"/>
<text text-anchor="middle" x="1650" y="-204.3" font-family="Times,serif" font-size="14.00">10.1.80.247:46082#ServerID_OuterContainerID</text>
</g>
<!-- 1_fwatchdog#ServerID_6df85d7674&#45;2kqrj&#45;&gt;10.1.80.247:46082#ServerID_OuterContainerID -->
<g id="edge4" class="edge"><title>1_fwatchdog#ServerID_6df85d7674&#45;2kqrj&#45;&gt;10.1.80.247:46082#ServerID_OuterContainerID</title>
<path fill="none" stroke="black" d="M1096.73,-297.951C1155.97,-288.239 1231.64,-275.876 1299,-265 1387.55,-250.702 1488.7,-234.588 1559.59,-223.328"/>
<polygon fill="black" stroke="black" points="1560.5,-226.728 1569.83,-221.703 1559.4,-219.815 1560.5,-226.728"/>
<text text-anchor="middle" x="1341" y="-268.8" font-family="Times,serif" font-size="14.00">RESPONSE</text>
</g>
<!-- 10.1.80.247:8080#ServerID_OuterContainerID -->
<g id="node6" class="node"><title>10.1.80.247:8080#ServerID_OuterContainerID</title>
<polygon fill="none" stroke="black" points="343,-226 15.5599,-208 343,-190 670.44,-208 343,-226"/>
<text text-anchor="middle" x="343" y="-204.3" font-family="Times,serif" font-size="14.00">10.1.80.247:8080#ServerID_OuterContainerID</text>
</g>
<!-- 1_fwatchdog#ServerID_6df85d7674&#45;2kqrj&#45;&gt;10.1.80.247:8080#ServerID_OuterContainerID -->
<g id="edge7" class="edge"><title>1_fwatchdog#ServerID_6df85d7674&#45;2kqrj&#45;&gt;10.1.80.247:8080#ServerID_OuterContainerID</title>
<path fill="none" stroke="black" d="M832.132,-303.33C772.776,-297.852 705.11,-290.226 644,-280 559.978,-265.94 464.482,-242.035 404.01,-225.889"/>
<polygon fill="black" stroke="black" points="404.81,-222.48 394.245,-223.267 402.996,-229.24 404.81,-222.48"/>
<text text-anchor="middle" x="664" y="-268.8" font-family="Times,serif" font-size="14.00">POST</text>
</g>
<!-- gateway:8080#ServerID_OuterContainerID&#45;&gt;1_fwatchdog#ServerID_6df85d7674&#45;2kqrj -->
<g id="edge8" class="edge"><title>gateway:8080#ServerID_OuterContainerID&#45;&gt;1_fwatchdog#ServerID_6df85d7674&#45;2kqrj</title>
<path fill="none" stroke="black" d="M965.625,-224.594C945.989,-238.327 924.426,-259.312 936,-280 938.39,-284.272 941.539,-288.087 945.131,-291.478"/>
<polygon fill="black" stroke="black" points="943.049,-294.295 953.028,-297.856 947.448,-288.85 943.049,-294.295"/>
<text text-anchor="middle" x="978" y="-268.8" font-family="Times,serif" font-size="14.00">RESPONSE</text>
</g>
<!-- 1_fwatchdog#ServerID_5f846fd567&#45;w7nbt -->
<g id="node3" class="node"><title>1_fwatchdog#ServerID_5f846fd567&#45;w7nbt</title>
<polygon fill="none" stroke="black" points="2501,-334 2177,-334 2177,-298 2501,-298 2501,-334"/>
<text text-anchor="middle" x="2339" y="-312.3" font-family="Times,serif" font-size="14.00">1_fwatchdog#ServerID_5f846fd567&#45;w7nbt</text>
</g>
<!-- 10.1.80.247:48072#ServerID_OuterContainerID -->
<g id="node4" class="node"><title>10.1.80.247:48072#ServerID_OuterContainerID</title>
<polygon fill="none" stroke="black" points="2339,-226 2003.52,-208 2339,-190 2674.48,-208 2339,-226"/>
<text text-anchor="middle" x="2339" y="-204.3" font-family="Times,serif" font-size="14.00">10.1.80.247:48072#ServerID_OuterContainerID</text>
</g>
<!-- 1_fwatchdog#ServerID_5f846fd567&#45;w7nbt&#45;&gt;10.1.80.247:48072#ServerID_OuterContainerID -->
<g id="edge2" class="edge"><title>1_fwatchdog#ServerID_5f846fd567&#45;w7nbt&#45;&gt;10.1.80.247:48072#ServerID_OuterContainerID</title>
<path fill="none" stroke="black" d="M2344.96,-297.759C2346.61,-292.165 2348.18,-285.883 2349,-280 2351.04,-265.409 2349.06,-249.133 2346.34,-235.849"/>
<polygon fill="black" stroke="black" points="2349.71,-234.889 2344.06,-225.927 2342.88,-236.457 2349.71,-234.889"/>
<text text-anchor="middle" x="2392" y="-268.8" font-family="Times,serif" font-size="14.00">RESPONSE</text>
</g>
<!-- 10.1.80.247:48072#ServerID_OuterContainerID&#45;&gt;1_fwatchdog#ServerID_5f846fd567&#45;w7nbt -->
<g id="edge5" class="edge"><title>10.1.80.247:48072#ServerID_OuterContainerID&#45;&gt;1_fwatchdog#ServerID_5f846fd567&#45;w7nbt</title>
<path fill="none" stroke="black" d="M2325.64,-225.511C2317.96,-236.105 2309.05,-250.542 2305,-265 2303.2,-271.42 2302.49,-273.822 2305,-280 2306.42,-283.503 2308.38,-286.848 2310.65,-289.984"/>
<polygon fill="black" stroke="black" points="2308.08,-292.372 2317.2,-297.762 2313.43,-287.86 2308.08,-292.372"/>
<text text-anchor="middle" x="2325" y="-268.8" font-family="Times,serif" font-size="14.00">POST</text>
</g>
<!-- 1_fwatchdog#ServerID_e56b6537e2d5 -->
<g id="node16" class="node"><title>1_fwatchdog#ServerID_e56b6537e2d5</title>
<polygon fill="none" stroke="black" points="5143.5,-139 4844.5,-139 4844.5,-103 5143.5,-103 5143.5,-139"/>
<text text-anchor="middle" x="4994" y="-117.3" font-family="Times,serif" font-size="14.00">1_fwatchdog#ServerID_e56b6537e2d5</text>
</g>
<!-- 10.1.80.247:48072#ServerID_OuterContainerID&#45;&gt;1_fwatchdog#ServerID_e56b6537e2d5 -->
<g id="edge19" class="edge"><title>10.1.80.247:48072#ServerID_OuterContainerID&#45;&gt;1_fwatchdog#ServerID_e56b6537e2d5</title>
<path fill="none" stroke="black" d="M2463.07,-196.612C2528.71,-191.47 2610.67,-185.607 2684,-182 3491.3,-142.287 4458.68,-127.92 4834.14,-123.601"/>
<polygon fill="black" stroke="black" points="4834.3,-127.1 4844.26,-123.486 4834.22,-120.1 4834.3,-127.1"/>
<text text-anchor="middle" x="3271.5" y="-160.8" font-family="Times,serif" font-size="14.00">read</text>
</g>
<!-- 10.1.80.247:46082#ServerID_OuterContainerID&#45;&gt;1_fwatchdog#ServerID_6df85d7674&#45;2kqrj -->
<g id="edge3" class="edge"><title>10.1.80.247:46082#ServerID_OuterContainerID&#45;&gt;1_fwatchdog#ServerID_6df85d7674&#45;2kqrj</title>
<path fill="none" stroke="black" d="M1605.4,-223.612C1553.52,-240.007 1464.99,-266.119 1387,-280 1314.5,-292.903 1233.62,-301.137 1164.08,-306.35"/>
<polygon fill="black" stroke="black" points="1163.63,-302.874 1153.91,-307.098 1164.14,-309.856 1163.63,-302.874"/>
<text text-anchor="middle" x="1473" y="-268.8" font-family="Times,serif" font-size="14.00">POST</text>
</g>
<!-- 1_fwatchdog#ServerID_34e86192c217 -->
<g id="node7" class="node"><title>1_fwatchdog#ServerID_34e86192c217</title>
<polygon fill="none" stroke="black" points="4682.5,-529 4383.5,-529 4383.5,-493 4682.5,-493 4682.5,-529"/>
<text text-anchor="middle" x="4533" y="-507.3" font-family="Times,serif" font-size="14.00">1_fwatchdog#ServerID_34e86192c217</text>
</g>
<!-- 10.1.80.247:46082#ServerID_OuterContainerID&#45;&gt;1_fwatchdog#ServerID_34e86192c217 -->
<g id="edge10" class="edge"><title>10.1.80.247:46082#ServerID_OuterContainerID&#45;&gt;1_fwatchdog#ServerID_34e86192c217</title>
<path fill="none" stroke="black" d="M1723.39,-222.106C1793.03,-233.853 1900.75,-250.243 1995,-257 2175.54,-269.945 3443.37,-253.388 3624,-265 3877.86,-281.32 4591.57,-215.369 4760,-406 4798.03,-449.038 4735.9,-475.384 4667.09,-490.788"/>
<polygon fill="black" stroke="black" points="4665.94,-487.455 4656.91,-492.982 4667.42,-494.298 4665.94,-487.455"/>
<text text-anchor="middle" x="4755.5" y="-376.8" font-family="Times,serif" font-size="14.00">read</text>
</g>
<!-- 10.1.80.247:8080#ServerID_OuterContainerID&#45;&gt;1_fwatchdog#ServerID_6df85d7674&#45;2kqrj -->
<g id="edge6" class="edge"><title>10.1.80.247:8080#ServerID_OuterContainerID&#45;&gt;1_fwatchdog#ServerID_6df85d7674&#45;2kqrj</title>
<path fill="none" stroke="black" d="M421.14,-221.743C534.942,-240.301 747.002,-274.883 878.459,-296.321"/>
<polygon fill="black" stroke="black" points="878.133,-299.814 888.566,-297.969 879.26,-292.905 878.133,-299.814"/>
<text text-anchor="middle" x="807" y="-268.8" font-family="Times,serif" font-size="14.00">RESPONSE</text>
</g>
<!-- 10.1.80.1:11790#ServerID_OuterContainerID -->
<g id="node19" class="node"><title>10.1.80.1:11790#ServerID_OuterContainerID</title>
<polygon fill="none" stroke="black" points="335,-139 16.1049,-121 335,-103 653.895,-121 335,-139"/>
<text text-anchor="middle" x="335" y="-117.3" font-family="Times,serif" font-size="14.00">10.1.80.1:11790#ServerID_OuterContainerID</text>
</g>
<!-- 10.1.80.247:8080#ServerID_OuterContainerID&#45;&gt;10.1.80.1:11790#ServerID_OuterContainerID -->
<g id="edge25" class="edge"><title>10.1.80.247:8080#ServerID_OuterContainerID&#45;&gt;10.1.80.1:11790#ServerID_OuterContainerID</title>
<path fill="none" stroke="black" d="M303.089,-192.103C294.688,-187.04 286.895,-180.453 282,-172 275.685,-161.096 282.309,-151.108 292.758,-142.973"/>
<polygon fill="black" stroke="black" points="295.046,-145.65 301.343,-137.13 291.107,-139.863 295.046,-145.65"/>
<text text-anchor="middle" x="324" y="-160.8" font-family="Times,serif" font-size="14.00">RESPONSE</text>
</g>
<!-- 10.0.88.125:31112#ServerID_OuterContainerID -->
<g id="node20" class="node"><title>10.0.88.125:31112#ServerID_OuterContainerID</title>
<polygon fill="none" stroke="black" points="1007,-139 671.515,-121 1007,-103 1342.48,-121 1007,-139"/>
<text text-anchor="middle" x="1007" y="-117.3" font-family="Times,serif" font-size="14.00">10.0.88.125:31112#ServerID_OuterContainerID</text>
</g>
<!-- 10.1.80.247:8080#ServerID_OuterContainerID&#45;&gt;10.0.88.125:31112#ServerID_OuterContainerID -->
<g id="edge26" class="edge"><title>10.1.80.247:8080#ServerID_OuterContainerID&#45;&gt;10.0.88.125:31112#ServerID_OuterContainerID</title>
<path fill="none" stroke="black" d="M436.026,-195.092C558.956,-179.355 774.877,-151.715 903.049,-135.307"/>
<polygon fill="black" stroke="black" points="903.791,-138.741 913.265,-133.999 902.902,-131.797 903.791,-138.741"/>
<text text-anchor="middle" x="757" y="-160.8" font-family="Times,serif" font-size="14.00">RESPONSE</text>
</g>
<!-- localhost:3000#ServerID_34e86192c217 -->
<g id="node8" class="node"><title>localhost:3000#ServerID_34e86192c217</title>
<polygon fill="none" stroke="black" points="4464,-442 4177.45,-424 4464,-406 4750.55,-424 4464,-442"/>
<text text-anchor="middle" x="4464" y="-420.3" font-family="Times,serif" font-size="14.00">localhost:3000#ServerID_34e86192c217</text>
</g>
<!-- 1_fwatchdog#ServerID_34e86192c217&#45;&gt;localhost:3000#ServerID_34e86192c217 -->
<g id="edge9" class="edge"><title>1_fwatchdog#ServerID_34e86192c217&#45;&gt;localhost:3000#ServerID_34e86192c217</title>
<path fill="none" stroke="black" d="M4519.04,-492.799C4508.83,-480.228 4494.86,-463.014 4483.55,-449.077"/>
<polygon fill="black" stroke="black" points="4486.26,-446.868 4477.24,-441.31 4480.83,-451.28 4486.26,-446.868"/>
<text text-anchor="middle" x="4522" y="-463.8" font-family="Times,serif" font-size="14.00">write</text>
</g>
<!-- 10_node#ServerID_34e86192c217 -->
<g id="node9" class="node"><title>10_node#ServerID_34e86192c217</title>
<polygon fill="none" stroke="black" points="3709.5,-334 3442.5,-334 3442.5,-298 3709.5,-298 3709.5,-334"/>
<text text-anchor="middle" x="3576" y="-312.3" font-family="Times,serif" font-size="14.00">10_node#ServerID_34e86192c217</text>
</g>
<!-- localhost:3000#ServerID_34e86192c217&#45;&gt;10_node#ServerID_34e86192c217 -->
<g id="edge20" class="edge"><title>localhost:3000#ServerID_34e86192c217&#45;&gt;10_node#ServerID_34e86192c217</title>
<path fill="none" stroke="black" d="M4370.65,-411.856C4215.42,-393.328 3903.22,-356.06 3719.74,-334.158"/>
<polygon fill="black" stroke="black" points="3720.09,-330.675 3709.74,-332.965 3719.26,-337.625 3720.09,-330.675"/>
<text text-anchor="middle" x="4168.5" y="-376.8" font-family="Times,serif" font-size="14.00">read</text>
</g>
<!-- 10_node#ServerID_34e86192c217&#45;&gt;gateway:8080#ServerID_OuterContainerID -->
<g id="edge16" class="edge"><title>10_node#ServerID_34e86192c217&#45;&gt;gateway:8080#ServerID_OuterContainerID</title>
<path fill="none" stroke="black" d="M3442.47,-307.537C3229.93,-296.017 2801.51,-274.267 2438,-265 2312.26,-261.794 1431.38,-266.974 1306,-257 1224.47,-250.514 1132.01,-235.432 1068.66,-223.891"/>
<polygon fill="black" stroke="black" points="1069.21,-220.435 1058.74,-222.072 1067.95,-227.32 1069.21,-220.435"/>
<text text-anchor="middle" x="2874" y="-268.8" font-family="Times,serif" font-size="14.00">connect</text>
</g>
<!-- pipe:[331683264]#ServerID_34e86192c217 -->
<g id="node10" class="node"><title>pipe:[331683264]#ServerID_34e86192c217</title>
<ellipse fill="none" stroke="black" cx="3588" cy="-208" rx="217.162" ry="18"/>
<text text-anchor="middle" x="3588" y="-204.3" font-family="Times,serif" font-size="14.00">pipe:[331683264]#ServerID_34e86192c217</text>
</g>
<!-- 10_node#ServerID_34e86192c217&#45;&gt;pipe:[331683264]#ServerID_34e86192c217 -->
<g id="edge11" class="edge"><title>10_node#ServerID_34e86192c217&#45;&gt;pipe:[331683264]#ServerID_34e86192c217</title>
<path fill="none" stroke="black" d="M3577.93,-297.969C3579.81,-281.378 3582.69,-255.883 3584.89,-236.431"/>
<polygon fill="black" stroke="black" points="3588.39,-236.671 3586.04,-226.341 3581.43,-235.883 3588.39,-236.671"/>
<text text-anchor="middle" x="3601" y="-268.8" font-family="Times,serif" font-size="14.00">write</text>
</g>
<!-- 10.152.183.10:53#ServerID_OuterContainerID -->
<g id="node13" class="node"><title>10.152.183.10:53#ServerID_OuterContainerID</title>
<polygon fill="none" stroke="black" points="3020,-226 2692.56,-208 3020,-190 3347.44,-208 3020,-226"/>
<text text-anchor="middle" x="3020" y="-204.3" font-family="Times,serif" font-size="14.00">10.152.183.10:53#ServerID_OuterContainerID</text>
</g>
<!-- 10_node#ServerID_34e86192c217&#45;&gt;10.152.183.10:53#ServerID_OuterContainerID -->
<g id="edge14" class="edge"><title>10_node#ServerID_34e86192c217&#45;&gt;10.152.183.10:53#ServerID_OuterContainerID</title>
<path fill="none" stroke="black" d="M3486.67,-297.969C3379.57,-277.552 3201.75,-243.649 3099.31,-224.12"/>
<polygon fill="black" stroke="black" points="3099.81,-220.652 3089.33,-222.218 3098.5,-227.529 3099.81,-220.652"/>
<text text-anchor="middle" x="3405.5" y="-268.8" font-family="Times,serif" font-size="14.00">sendto</text>
</g>
<!-- /etc/hosts#ServerID_34e86192c217 -->
<g id="node11" class="node"><title>/etc/hosts#ServerID_34e86192c217</title>
<ellipse fill="none" stroke="black" cx="3979" cy="-424" rx="180.068" ry="18"/>
<text text-anchor="middle" x="3979" y="-420.3" font-family="Times,serif" font-size="14.00">/etc/hosts#ServerID_34e86192c217</text>
</g>
<!-- /etc/hosts#ServerID_34e86192c217&#45;&gt;10_node#ServerID_34e86192c217 -->
<g id="edge12" class="edge"><title>/etc/hosts#ServerID_34e86192c217&#45;&gt;10_node#ServerID_34e86192c217</title>
<path fill="none" stroke="black" d="M3918.23,-407.016C3846.79,-388.224 3728.2,-357.033 3651.07,-336.746"/>
<polygon fill="black" stroke="black" points="3651.5,-333.241 3640.94,-334.082 3649.72,-340.011 3651.5,-333.241"/>
<text text-anchor="middle" x="3854.5" y="-376.8" font-family="Times,serif" font-size="14.00">read</text>
</g>
<!-- /etc/resolv.conf#ServerID_34e86192c217 -->
<g id="node12" class="node"><title>/etc/resolv.conf#ServerID_34e86192c217</title>
<ellipse fill="none" stroke="black" cx="3576" cy="-424" rx="205.264" ry="18"/>
<text text-anchor="middle" x="3576" y="-420.3" font-family="Times,serif" font-size="14.00">/etc/resolv.conf#ServerID_34e86192c217</text>
</g>
<!-- /etc/resolv.conf#ServerID_34e86192c217&#45;&gt;10_node#ServerID_34e86192c217 -->
<g id="edge13" class="edge"><title>/etc/resolv.conf#ServerID_34e86192c217&#45;&gt;10_node#ServerID_34e86192c217</title>
<path fill="none" stroke="black" d="M3576,-405.969C3576,-389.378 3576,-363.883 3576,-344.431"/>
<polygon fill="black" stroke="black" points="3579.5,-344.341 3576,-334.341 3572.5,-344.341 3579.5,-344.341"/>
<text text-anchor="middle" x="3592.5" y="-376.8" font-family="Times,serif" font-size="14.00">read</text>
</g>
<!-- 10.152.183.10:53#ServerID_OuterContainerID&#45;&gt;10_node#ServerID_34e86192c217 -->
<g id="edge15" class="edge"><title>10.152.183.10:53#ServerID_OuterContainerID&#45;&gt;10_node#ServerID_34e86192c217</title>
<path fill="none" stroke="black" d="M3059.19,-224.011C3103.59,-240.39 3178.44,-266.125 3245,-280 3305.7,-292.652 3373.66,-300.847 3432.13,-306.098"/>
<polygon fill="black" stroke="black" points="3431.91,-309.592 3442.18,-306.98 3432.53,-302.619 3431.91,-309.592"/>
<text text-anchor="middle" x="3278" y="-268.8" font-family="Times,serif" font-size="14.00">recvfrom</text>
</g>
<!-- localhost:3000#ServerID_e56b6537e2d5 -->
<g id="node14" class="node"><title>localhost:3000#ServerID_e56b6537e2d5</title>
<polygon fill="none" stroke="black" points="5062,-226 4775.45,-208 5062,-190 5348.55,-208 5062,-226"/>
<text text-anchor="middle" x="5062" y="-204.3" font-family="Times,serif" font-size="14.00">localhost:3000#ServerID_e56b6537e2d5</text>
</g>
<!-- 12_node#ServerID_e56b6537e2d5 -->
<g id="node15" class="node"><title>12_node#ServerID_e56b6537e2d5</title>
<polygon fill="none" stroke="black" points="5503.5,-139 5236.5,-139 5236.5,-103 5503.5,-103 5503.5,-139"/>
<text text-anchor="middle" x="5370" y="-117.3" font-family="Times,serif" font-size="14.00">12_node#ServerID_e56b6537e2d5</text>
</g>
<!-- localhost:3000#ServerID_e56b6537e2d5&#45;&gt;12_node#ServerID_e56b6537e2d5 -->
<g id="edge17" class="edge"><title>localhost:3000#ServerID_e56b6537e2d5&#45;&gt;12_node#ServerID_e56b6537e2d5</title>
<path fill="none" stroke="black" d="M5112.52,-193.059C5163.17,-179.079 5241.63,-157.426 5298.64,-141.695"/>
<polygon fill="black" stroke="black" points="5299.6,-145.061 5308.3,-139.027 5297.73,-138.313 5299.6,-145.061"/>
<text text-anchor="middle" x="5250.5" y="-160.8" font-family="Times,serif" font-size="14.00">read</text>
</g>
<!-- localhost:3000#ServerID_e56b6537e2d5&#45;&gt;1_fwatchdog#ServerID_e56b6537e2d5 -->
<g id="edge22" class="edge"><title>localhost:3000#ServerID_e56b6537e2d5&#45;&gt;1_fwatchdog#ServerID_e56b6537e2d5</title>
<path fill="none" stroke="black" d="M5056.55,-190.127C5052.71,-179.867 5046.84,-166.882 5039,-157 5035.93,-153.132 5032.35,-149.443 5028.58,-146.01"/>
<polygon fill="black" stroke="black" points="5030.56,-143.102 5020.65,-139.346 5026.05,-148.46 5030.56,-143.102"/>
<text text-anchor="middle" x="5063.5" y="-160.8" font-family="Times,serif" font-size="14.00">read</text>
</g>
<!-- pipe:[331682415]#ServerID_e56b6537e2d5 -->
<g id="node17" class="node"><title>pipe:[331682415]#ServerID_e56b6537e2d5</title>
<ellipse fill="none" stroke="black" cx="5444" cy="-34" rx="217.162" ry="18"/>
<text text-anchor="middle" x="5444" y="-30.3" font-family="Times,serif" font-size="14.00">pipe:[331682415]#ServerID_e56b6537e2d5</text>
</g>
<!-- 12_node#ServerID_e56b6537e2d5&#45;&gt;pipe:[331682415]#ServerID_e56b6537e2d5 -->
<g id="edge21" class="edge"><title>12_node#ServerID_e56b6537e2d5&#45;&gt;pipe:[331682415]#ServerID_e56b6537e2d5</title>
<path fill="none" stroke="black" d="M5384.98,-102.799C5395.71,-90.4713 5410.33,-73.6787 5422.33,-59.8902"/>
<polygon fill="black" stroke="black" points="5425.12,-62.0159 5429.05,-52.1754 5419.84,-57.4195 5425.12,-62.0159"/>
<text text-anchor="middle" x="5430" y="-73.8" font-family="Times,serif" font-size="14.00">write</text>
</g>
<!-- 1_fwatchdog#ServerID_e56b6537e2d5&#45;&gt;localhost:3000#ServerID_e56b6537e2d5 -->
<g id="edge18" class="edge"><title>1_fwatchdog#ServerID_e56b6537e2d5&#45;&gt;localhost:3000#ServerID_e56b6537e2d5</title>
<path fill="none" stroke="black" d="M4992.77,-139.082C4992.86,-149.421 4994.52,-162.415 5001,-172 5004.86,-177.709 5009.98,-182.601 5015.62,-186.76"/>
<polygon fill="black" stroke="black" points="5013.88,-189.805 5024.17,-192.338 5017.71,-183.943 5013.88,-189.805"/>
<text text-anchor="middle" x="5020" y="-160.8" font-family="Times,serif" font-size="14.00">write</text>
</g>
<!-- pipe:[331682317]#ServerID_e56b6537e2d5 -->
<g id="node18" class="node"><title>pipe:[331682317]#ServerID_e56b6537e2d5</title>
<ellipse fill="none" stroke="black" cx="4992" cy="-34" rx="217.162" ry="18"/>
<text text-anchor="middle" x="4992" y="-30.3" font-family="Times,serif" font-size="14.00">pipe:[331682317]#ServerID_e56b6537e2d5</text>
</g>
<!-- 1_fwatchdog#ServerID_e56b6537e2d5&#45;&gt;pipe:[331682317]#ServerID_e56b6537e2d5 -->
<g id="edge23" class="edge"><title>1_fwatchdog#ServerID_e56b6537e2d5&#45;&gt;pipe:[331682317]#ServerID_e56b6537e2d5</title>
<path fill="none" stroke="black" d="M4993.6,-102.799C4993.32,-91.1626 4992.95,-75.5479 4992.64,-62.2368"/>
<polygon fill="black" stroke="black" points="4996.14,-62.0903 4992.4,-52.1754 4989.14,-62.255 4996.14,-62.0903"/>
<text text-anchor="middle" x="5012" y="-73.8" font-family="Times,serif" font-size="14.00">write</text>
</g>
<!-- 10.1.80.1:11790#ServerID_OuterContainerID&#45;&gt;10.1.80.247:8080#ServerID_OuterContainerID -->
<g id="edge24" class="edge"><title>10.1.80.1:11790#ServerID_OuterContainerID&#45;&gt;10.1.80.247:8080#ServerID_OuterContainerID</title>
<path fill="none" stroke="black" d="M356.331,-138.051C361.836,-143.408 367.04,-149.855 370,-157 373.549,-165.568 370.851,-174.585 366.016,-182.566"/>
<polygon fill="black" stroke="black" points="363.126,-180.589 360.124,-190.75 368.807,-184.679 363.126,-180.589"/>
<text text-anchor="middle" x="392" y="-160.8" font-family="Times,serif" font-size="14.00">POST</text>
</g>
</g>
</svg>
