<?xml version="1.0" encoding="UTF-8" standalone="no"?>
<!DOCTYPE svg PUBLIC "-//W3C//DTD SVG 1.1//EN"
 "http://www.w3.org/Graphics/SVG/1.1/DTD/svg11.dtd">
<!-- Generated by graphviz version 2.38.0 (20140413.2041)
 -->
<!-- Title: G Pages: 1 -->
<svg width="5645pt" height="315pt"
 viewBox="0.00 0.00 5645.00 315.00" xmlns="http://www.w3.org/2000/svg" xmlns:xlink="http://www.w3.org/1999/xlink">
<g id="graph0" class="graph" transform="scale(1 1) rotate(0) translate(4 311)">
<title>G</title>
<polygon fill="white" stroke="none" points="-4,4 -4,-311 5641,-311 5641,4 -4,4"/>
<g id="clust1" class="cluster"><title>clusterServerID_6dcbcc88d5&#45;mmq29</title>
<polygon fill="none" stroke="black" points="1801,-224 1801,-299 2155,-299 2155,-224 1801,-224"/>
<text text-anchor="middle" x="1978" y="-283.8" font-family="Times,serif" font-size="14.00">clusterServerID_6dcbcc88d5&#45;mmq29</text>
</g>
<g id="clust2" class="cluster"><title>clusterServerID_76c96688d7&#45;5sj98</title>
<polygon fill="none" stroke="black" points="4532,-224 4532,-299 4872,-299 4872,-224 4532,-224"/>
<text text-anchor="middle" x="4702" y="-283.8" font-family="Times,serif" font-size="14.00">clusterServerID_76c96688d7&#45;5sj98</text>
</g>
<g id="clust3" class="cluster"><title>clusterServerID_8665dd9487&#45;8ztxg</title>
<polygon fill="none" stroke="black" points="3841,-224 3841,-299 4183,-299 4183,-224 3841,-224"/>
<text text-anchor="middle" x="4012" y="-283.8" font-family="Times,serif" font-size="14.00">clusterServerID_8665dd9487&#45;8ztxg</text>
</g>
<g id="clust4" class="cluster"><title>clusterServerID_OuterContainerID</title>
<polygon fill="none" stroke="black" points="320,-8 320,-191 5045,-191 5045,-8 320,-8"/>
<text text-anchor="middle" x="2682.5" y="-175.8" font-family="Times,serif" font-size="14.00">clusterServerID_OuterContainerID</text>
</g>
<g id="clust5" class="cluster"><title>clusterServerID_b10d4e8ff34a</title>
<polygon fill="none" stroke="black" points="5053,-8 5053,-299 5629,-299 5629,-8 5053,-8"/>
<text text-anchor="middle" x="5341" y="-283.8" font-family="Times,serif" font-size="14.00">clusterServerID_b10d4e8ff34a</text>
</g>
<g id="clust6" class="cluster"><title>clusterServerID_ef03aa1de3fe</title>
<polygon fill="none" stroke="black" points="8,-8 8,-83 312,-83 312,-8 8,-8"/>
<text text-anchor="middle" x="160" y="-67.8" font-family="Times,serif" font-size="14.00">clusterServerID_ef03aa1de3fe</text>
</g>
<!-- 1_fwatchdog#ServerID_6dcbcc88d5&#45;mmq29 -->
<g id="node1" class="node"><title>1_fwatchdog#ServerID_6dcbcc88d5&#45;mmq29</title>
<polygon fill="none" stroke="black" points="2147,-268 1809,-268 1809,-232 2147,-232 2147,-268"/>
<text text-anchor="middle" x="1978" y="-246.3" font-family="Times,serif" font-size="14.00">1_fwatchdog#ServerID_6dcbcc88d5&#45;mmq29</text>
</g>
<!-- 10.1.80.247:8080#ServerID_OuterContainerID -->
<g id="node2" class="node"><title>10.1.80.247:8080#ServerID_OuterContainerID</title>
<polygon fill="none" stroke="black" points="2660,-160 2332.56,-142 2660,-124 2987.44,-142 2660,-160"/>
<text text-anchor="middle" x="2660" y="-138.3" font-family="Times,serif" font-size="14.00">10.1.80.247:8080#ServerID_OuterContainerID</text>
</g>
<!-- 1_fwatchdog#ServerID_6dcbcc88d5&#45;mmq29&#45;&gt;10.1.80.247:8080#ServerID_OuterContainerID -->
<g id="edge1" class="edge"><title>1_fwatchdog#ServerID_6dcbcc88d5&#45;mmq29&#45;&gt;10.1.80.247:8080#ServerID_OuterContainerID</title>
<path fill="none" stroke="black" d="M2125.32,-232C2168.17,-226.673 2215.01,-220.479 2258,-214 2370.57,-197.035 2500.14,-173.406 2581.06,-158.156"/>
<polygon fill="black" stroke="black" points="2582,-161.541 2591.17,-156.246 2580.7,-154.663 2582,-161.541"/>
<text text-anchor="middle" x="2367" y="-202.8" font-family="Times,serif" font-size="14.00">POST</text>
</g>
<!-- 10.1.80.247:42150#ServerID_OuterContainerID -->
<g id="node3" class="node"><title>10.1.80.247:42150#ServerID_OuterContainerID</title>
<polygon fill="none" stroke="black" points="1979,-160 1643.52,-142 1979,-124 2314.48,-142 1979,-160"/>
<text text-anchor="middle" x="1979" y="-138.3" font-family="Times,serif" font-size="14.00">10.1.80.247:42150#ServerID_OuterContainerID</text>
</g>
<!-- 1_fwatchdog#ServerID_6dcbcc88d5&#45;mmq29&#45;&gt;10.1.80.247:42150#ServerID_OuterContainerID -->
<g id="edge11" class="edge"><title>1_fwatchdog#ServerID_6dcbcc88d5&#45;mmq29&#45;&gt;10.1.80.247:42150#ServerID_OuterContainerID</title>
<path fill="none" stroke="black" d="M1939.07,-231.889C1926.19,-223.513 1916.4,-212.341 1922,-199 1927.43,-186.053 1937.47,-174.591 1947.64,-165.463"/>
<polygon fill="black" stroke="black" points="1949.97,-168.075 1955.36,-158.952 1945.46,-162.724 1949.97,-168.075"/>
<text text-anchor="middle" x="1964" y="-202.8" font-family="Times,serif" font-size="14.00">RESPONSE</text>
</g>
<!-- gateway:8080#ServerID_OuterContainerID -->
<g id="node6" class="node"><title>gateway:8080#ServerID_OuterContainerID</title>
<polygon fill="none" stroke="black" points="1321,-160 1016.52,-142 1321,-124 1625.48,-142 1321,-160"/>
<text text-anchor="middle" x="1321" y="-138.3" font-family="Times,serif" font-size="14.00">gateway:8080#ServerID_OuterContainerID</text>
</g>
<!-- 1_fwatchdog#ServerID_6dcbcc88d5&#45;mmq29&#45;&gt;gateway:8080#ServerID_OuterContainerID -->
<g id="edge7" class="edge"><title>1_fwatchdog#ServerID_6dcbcc88d5&#45;mmq29&#45;&gt;gateway:8080#ServerID_OuterContainerID</title>
<path fill="none" stroke="black" d="M1808.67,-236.641C1750.54,-231.214 1685.23,-223.796 1626,-214 1540.51,-199.861 1443.25,-175.808 1382.01,-159.665"/>
<polygon fill="black" stroke="black" points="1382.69,-156.224 1372.13,-157.046 1380.9,-162.991 1382.69,-156.224"/>
<text text-anchor="middle" x="1646" y="-202.8" font-family="Times,serif" font-size="14.00">POST</text>
</g>
<!-- 10.1.80.247:8080#ServerID_OuterContainerID&#45;&gt;1_fwatchdog#ServerID_6dcbcc88d5&#45;mmq29 -->
<g id="edge5" class="edge"><title>10.1.80.247:8080#ServerID_OuterContainerID&#45;&gt;1_fwatchdog#ServerID_6dcbcc88d5&#45;mmq29</title>
<path fill="none" stroke="black" d="M2583.61,-155.866C2515.46,-166.869 2412.85,-182.27 2323,-191 2255.23,-197.585 2237.29,-188.589 2170,-199 2126.41,-205.744 2078.39,-218.252 2041.27,-229.07"/>
<polygon fill="black" stroke="black" points="2040.2,-225.738 2031.59,-231.925 2042.18,-232.453 2040.2,-225.738"/>
<text text-anchor="middle" x="2212" y="-202.8" font-family="Times,serif" font-size="14.00">RESPONSE</text>
</g>
<!-- 10.1.80.1:56160#ServerID_OuterContainerID -->
<g id="node15" class="node"><title>10.1.80.1:56160#ServerID_OuterContainerID</title>
<polygon fill="none" stroke="black" points="2597,-52 2278.1,-34 2597,-16 2915.9,-34 2597,-52"/>
<text text-anchor="middle" x="2597" y="-30.3" font-family="Times,serif" font-size="14.00">10.1.80.1:56160#ServerID_OuterContainerID</text>
</g>
<!-- 10.1.80.247:8080#ServerID_OuterContainerID&#45;&gt;10.1.80.1:56160#ServerID_OuterContainerID -->
<g id="edge20" class="edge"><title>10.1.80.247:8080#ServerID_OuterContainerID&#45;&gt;10.1.80.1:56160#ServerID_OuterContainerID</title>
<path fill="none" stroke="black" d="M2653.55,-123.886C2649.57,-114.015 2644.07,-101.515 2638,-91 2631.82,-80.292 2624.01,-69.1727 2616.87,-59.6915"/>
<polygon fill="black" stroke="black" points="2619.44,-57.2905 2610.56,-51.5036 2613.89,-61.5618 2619.44,-57.2905"/>
<text text-anchor="middle" x="2688" y="-94.8" font-family="Times,serif" font-size="14.00">RESPONSE</text>
</g>
<!-- 10.0.88.125:31112#ServerID_OuterContainerID -->
<g id="node16" class="node"><title>10.0.88.125:31112#ServerID_OuterContainerID</title>
<polygon fill="none" stroke="black" points="3269,-52 2933.52,-34 3269,-16 3604.48,-34 3269,-52"/>
<text text-anchor="middle" x="3269" y="-30.3" font-family="Times,serif" font-size="14.00">10.0.88.125:31112#ServerID_OuterContainerID</text>
</g>
<!-- 10.1.80.247:8080#ServerID_OuterContainerID&#45;&gt;10.0.88.125:31112#ServerID_OuterContainerID -->
<g id="edge21" class="edge"><title>10.1.80.247:8080#ServerID_OuterContainerID&#45;&gt;10.0.88.125:31112#ServerID_OuterContainerID</title>
<path fill="none" stroke="black" d="M2734.37,-128.055C2848.1,-108.26 3064.6,-70.5768 3184.25,-49.7514"/>
<polygon fill="black" stroke="black" points="3184.85,-53.1988 3194.11,-48.0358 3183.65,-46.3025 3184.85,-53.1988"/>
<text text-anchor="middle" x="2989" y="-94.8" font-family="Times,serif" font-size="14.00">RESPONSE</text>
</g>
<!-- 10.1.80.247:42150#ServerID_OuterContainerID&#45;&gt;1_fwatchdog#ServerID_6dcbcc88d5&#45;mmq29 -->
<g id="edge2" class="edge"><title>10.1.80.247:42150#ServerID_OuterContainerID&#45;&gt;1_fwatchdog#ServerID_6dcbcc88d5&#45;mmq29</title>
<path fill="none" stroke="black" d="M1994.08,-159.48C2005.24,-173.767 2017.35,-195.067 2010,-214 2008.64,-217.507 2006.74,-220.876 2004.55,-224.046"/>
<polygon fill="black" stroke="black" points="2001.75,-221.944 1998.2,-231.928 2007.2,-226.335 2001.75,-221.944"/>
<text text-anchor="middle" x="2033" y="-202.8" font-family="Times,serif" font-size="14.00">POST</text>
</g>
<!-- 1_fwatchdog#ServerID_b10d4e8ff34a -->
<g id="node9" class="node"><title>1_fwatchdog#ServerID_b10d4e8ff34a</title>
<polygon fill="none" stroke="black" points="5418.5,-268 5127.5,-268 5127.5,-232 5418.5,-232 5418.5,-268"/>
<text text-anchor="middle" x="5273" y="-246.3" font-family="Times,serif" font-size="14.00">1_fwatchdog#ServerID_b10d4e8ff34a</text>
</g>
<!-- 10.1.80.247:42150#ServerID_OuterContainerID&#45;&gt;1_fwatchdog#ServerID_b10d4e8ff34a -->
<g id="edge12" class="edge"><title>10.1.80.247:42150#ServerID_OuterContainerID&#45;&gt;1_fwatchdog#ServerID_b10d4e8ff34a</title>
<path fill="none" stroke="black" d="M2052.06,-156.085C2121.68,-167.862 2229.6,-184.311 2324,-191 2598.42,-210.444 4525.29,-184.076 4800,-199 4913.37,-205.159 5041.4,-219.125 5135.64,-230.735"/>
<polygon fill="black" stroke="black" points="5135.45,-234.238 5145.8,-231.994 5136.31,-227.291 5135.45,-234.238"/>
<text text-anchor="middle" x="4999.5" y="-202.8" font-family="Times,serif" font-size="14.00">read</text>
</g>
<!-- 1_fwatchdog#ServerID_8665dd9487&#45;8ztxg -->
<g id="node4" class="node"><title>1_fwatchdog#ServerID_8665dd9487&#45;8ztxg</title>
<polygon fill="none" stroke="black" points="4175,-268 3849,-268 3849,-232 4175,-232 4175,-268"/>
<text text-anchor="middle" x="4012" y="-246.3" font-family="Times,serif" font-size="14.00">1_fwatchdog#ServerID_8665dd9487&#45;8ztxg</text>
</g>
<!-- 10.1.80.247:38798#ServerID_OuterContainerID -->
<g id="node5" class="node"><title>10.1.80.247:38798#ServerID_OuterContainerID</title>
<polygon fill="none" stroke="black" points="4013,-160 3677.52,-142 4013,-124 4348.48,-142 4013,-160"/>
<text text-anchor="middle" x="4013" y="-138.3" font-family="Times,serif" font-size="14.00">10.1.80.247:38798#ServerID_OuterContainerID</text>
</g>
<!-- 1_fwatchdog#ServerID_8665dd9487&#45;8ztxg&#45;&gt;10.1.80.247:38798#ServerID_OuterContainerID -->
<g id="edge3" class="edge"><title>1_fwatchdog#ServerID_8665dd9487&#45;8ztxg&#45;&gt;10.1.80.247:38798#ServerID_OuterContainerID</title>
<path fill="none" stroke="black" d="M3976.26,-231.861C3969.73,-227.032 3963.78,-221.108 3960,-214 3956.87,-208.115 3957.53,-205.194 3960,-199 3965,-186.439 3974.31,-175.073 3983.74,-165.914"/>
<polygon fill="black" stroke="black" points="3986.22,-168.386 3991.25,-159.061 3981.51,-163.214 3986.22,-168.386"/>
<text text-anchor="middle" x="4002" y="-202.8" font-family="Times,serif" font-size="14.00">RESPONSE</text>
</g>
<!-- 10.1.80.247:38798#ServerID_OuterContainerID&#45;&gt;1_fwatchdog#ServerID_8665dd9487&#45;8ztxg -->
<g id="edge4" class="edge"><title>10.1.80.247:38798#ServerID_OuterContainerID&#45;&gt;1_fwatchdog#ServerID_8665dd9487&#45;8ztxg</title>
<path fill="none" stroke="black" d="M4028.08,-159.48C4039.24,-173.767 4051.35,-195.067 4044,-214 4042.64,-217.507 4040.74,-220.876 4038.55,-224.046"/>
<polygon fill="black" stroke="black" points="4035.75,-221.944 4032.2,-231.928 4041.2,-226.335 4035.75,-221.944"/>
<text text-anchor="middle" x="4067" y="-202.8" font-family="Times,serif" font-size="14.00">POST</text>
</g>
<!-- gateway:8080#ServerID_OuterContainerID&#45;&gt;1_fwatchdog#ServerID_6dcbcc88d5&#45;mmq29 -->
<g id="edge6" class="edge"><title>gateway:8080#ServerID_OuterContainerID&#45;&gt;1_fwatchdog#ServerID_6dcbcc88d5&#45;mmq29</title>
<path fill="none" stroke="black" d="M1398.53,-155.508C1513.18,-174.006 1728.74,-208.785 1862.18,-230.314"/>
<polygon fill="black" stroke="black" points="1862.01,-233.832 1872.44,-231.969 1863.13,-226.921 1862.01,-233.832"/>
<text text-anchor="middle" x="1789" y="-202.8" font-family="Times,serif" font-size="14.00">RESPONSE</text>
</g>
<!-- 11_node#ServerID_b10d4e8ff34a -->
<g id="node14" class="node"><title>11_node#ServerID_b10d4e8ff34a</title>
<polygon fill="none" stroke="black" points="5321,-52 5061,-52 5061,-16 5321,-16 5321,-52"/>
<text text-anchor="middle" x="5191" y="-30.3" font-family="Times,serif" font-size="14.00">11_node#ServerID_b10d4e8ff34a</text>
</g>
<!-- gateway:8080#ServerID_OuterContainerID&#45;&gt;11_node#ServerID_b10d4e8ff34a -->
<g id="edge17" class="edge"><title>gateway:8080#ServerID_OuterContainerID&#45;&gt;11_node#ServerID_b10d4e8ff34a</title>
<path fill="none" stroke="black" d="M1459.67,-132.171C1514.29,-129.04 1577.57,-125.839 1635,-124 2438.63,-98.2602 2640.09,-120.67 3444,-106 3695.16,-101.417 3757.84,-95.2996 4009,-91 4066.77,-90.011 4992.02,-92.5948 5049,-83 5080.88,-77.6311 5115.27,-66.1677 5142.21,-55.79"/>
<polygon fill="black" stroke="black" points="5143.76,-58.9434 5151.78,-52.029 5141.2,-52.4282 5143.76,-58.9434"/>
<text text-anchor="middle" x="4025.5" y="-94.8" font-family="Times,serif" font-size="14.00">read</text>
</g>
<!-- 10.1.80.247:43784#ServerID_OuterContainerID -->
<g id="node7" class="node"><title>10.1.80.247:43784#ServerID_OuterContainerID</title>
<polygon fill="none" stroke="black" points="4702,-160 4366.52,-142 4702,-124 5037.48,-142 4702,-160"/>
<text text-anchor="middle" x="4702" y="-138.3" font-family="Times,serif" font-size="14.00">10.1.80.247:43784#ServerID_OuterContainerID</text>
</g>
<!-- 1_fwatchdog#ServerID_76c96688d7&#45;5sj98 -->
<g id="node8" class="node"><title>1_fwatchdog#ServerID_76c96688d7&#45;5sj98</title>
<polygon fill="none" stroke="black" points="4864.5,-268 4539.5,-268 4539.5,-232 4864.5,-232 4864.5,-268"/>
<text text-anchor="middle" x="4702" y="-246.3" font-family="Times,serif" font-size="14.00">1_fwatchdog#ServerID_76c96688d7&#45;5sj98</text>
</g>
<!-- 10.1.80.247:43784#ServerID_OuterContainerID&#45;&gt;1_fwatchdog#ServerID_76c96688d7&#45;5sj98 -->
<g id="edge8" class="edge"><title>10.1.80.247:43784#ServerID_OuterContainerID&#45;&gt;1_fwatchdog#ServerID_76c96688d7&#45;5sj98</title>
<path fill="none" stroke="black" d="M4687,-159.451C4675.88,-173.72 4663.8,-195.01 4671,-214 4672.28,-217.366 4674.04,-220.615 4676.09,-223.689"/>
<polygon fill="black" stroke="black" points="4673.52,-226.087 4682.42,-231.831 4679.04,-221.789 4673.52,-226.087"/>
<text text-anchor="middle" x="4691" y="-202.8" font-family="Times,serif" font-size="14.00">POST</text>
</g>
<!-- 1_fwatchdog#ServerID_76c96688d7&#45;5sj98&#45;&gt;10.1.80.247:43784#ServerID_OuterContainerID -->
<g id="edge10" class="edge"><title>1_fwatchdog#ServerID_76c96688d7&#45;5sj98&#45;&gt;10.1.80.247:43784#ServerID_OuterContainerID</title>
<path fill="none" stroke="black" d="M4707.36,-231.72C4708.85,-226.124 4710.26,-219.851 4711,-214 4712.85,-199.41 4711.06,-183.134 4708.61,-169.85"/>
<polygon fill="black" stroke="black" points="4712.01,-169.011 4706.55,-159.927 4705.15,-170.429 4712.01,-169.011"/>
<text text-anchor="middle" x="4754" y="-202.8" font-family="Times,serif" font-size="14.00">RESPONSE</text>
</g>
<!-- localhost:3000#ServerID_b10d4e8ff34a -->
<g id="node10" class="node"><title>localhost:3000#ServerID_b10d4e8ff34a</title>
<polygon fill="none" stroke="black" points="5341,-160 5060.81,-142 5341,-124 5621.19,-142 5341,-160"/>
<text text-anchor="middle" x="5341" y="-138.3" font-family="Times,serif" font-size="14.00">localhost:3000#ServerID_b10d4e8ff34a</text>
</g>
<!-- 1_fwatchdog#ServerID_b10d4e8ff34a&#45;&gt;localhost:3000#ServerID_b10d4e8ff34a -->
<g id="edge9" class="edge"><title>1_fwatchdog#ServerID_b10d4e8ff34a&#45;&gt;localhost:3000#ServerID_b10d4e8ff34a</title>
<path fill="none" stroke="black" d="M5283.93,-231.969C5294.99,-214.714 5312.24,-187.828 5324.88,-168.126"/>
<polygon fill="black" stroke="black" points="5327.87,-169.946 5330.33,-159.639 5321.98,-166.166 5327.87,-169.946"/>
<text text-anchor="middle" x="5323" y="-202.8" font-family="Times,serif" font-size="14.00">write</text>
</g>
<!-- localhost:3000#ServerID_b10d4e8ff34a&#45;&gt;11_node#ServerID_b10d4e8ff34a -->
<g id="edge18" class="edge"><title>localhost:3000#ServerID_b10d4e8ff34a&#45;&gt;11_node#ServerID_b10d4e8ff34a</title>
<path fill="none" stroke="black" d="M5318.87,-125.359C5293.76,-107.615 5252.56,-78.5022 5223.73,-58.1309"/>
<polygon fill="black" stroke="black" points="5225.4,-55.0245 5215.21,-52.1117 5221.36,-60.7412 5225.4,-55.0245"/>
<text text-anchor="middle" x="5304.5" y="-94.8" font-family="Times,serif" font-size="14.00">read</text>
</g>
<!-- 10.1.80.247:51362#ServerID_OuterContainerID -->
<g id="node11" class="node"><title>10.1.80.247:51362#ServerID_OuterContainerID</title>
<polygon fill="none" stroke="black" points="663,-160 327.515,-142 663,-124 998.485,-142 663,-160"/>
<text text-anchor="middle" x="663" y="-138.3" font-family="Times,serif" font-size="14.00">10.1.80.247:51362#ServerID_OuterContainerID</text>
</g>
<!-- 1_fwatchdog#ServerID_ef03aa1de3fe -->
<g id="node12" class="node"><title>1_fwatchdog#ServerID_ef03aa1de3fe</title>
<polygon fill="none" stroke="black" points="304.5,-52 15.5,-52 15.5,-16 304.5,-16 304.5,-52"/>
<text text-anchor="middle" x="160" y="-30.3" font-family="Times,serif" font-size="14.00">1_fwatchdog#ServerID_ef03aa1de3fe</text>
</g>
<!-- 10.1.80.247:51362#ServerID_OuterContainerID&#45;&gt;1_fwatchdog#ServerID_ef03aa1de3fe -->
<g id="edge13" class="edge"><title>10.1.80.247:51362#ServerID_OuterContainerID&#45;&gt;1_fwatchdog#ServerID_ef03aa1de3fe</title>
<path fill="none" stroke="black" d="M570.279,-128.92C500.001,-118.941 401.299,-103.157 316,-83 283.543,-75.33 247.957,-64.5669 218.979,-55.1759"/>
<polygon fill="black" stroke="black" points="220.012,-51.8313 209.419,-52.0502 217.836,-58.4847 220.012,-51.8313"/>
<text text-anchor="middle" x="437.5" y="-94.8" font-family="Times,serif" font-size="14.00">read</text>
</g>
<!-- 10.152.183.10:53#ServerID_OuterContainerID -->
<g id="node13" class="node"><title>10.152.183.10:53#ServerID_OuterContainerID</title>
<polygon fill="none" stroke="black" points="3332,-160 3004.56,-142 3332,-124 3659.44,-142 3332,-160"/>
<text text-anchor="middle" x="3332" y="-138.3" font-family="Times,serif" font-size="14.00">10.152.183.10:53#ServerID_OuterContainerID</text>
</g>
<!-- 10.152.183.10:53#ServerID_OuterContainerID&#45;&gt;11_node#ServerID_b10d4e8ff34a -->
<g id="edge14" class="edge"><title>10.152.183.10:53#ServerID_OuterContainerID&#45;&gt;11_node#ServerID_b10d4e8ff34a</title>
<path fill="none" stroke="black" d="M3490.99,-132.716C3547.22,-129.856 3610.92,-126.695 3669,-124 4015.16,-107.937 4101.6,-100.641 4448,-91 4514.76,-89.1421 4983.17,-94.2749 5049,-83 5080.75,-77.5611 5115,-66.1576 5141.91,-55.8302"/>
<polygon fill="black" stroke="black" points="5143.43,-58.9915 5151.47,-52.0871 5140.88,-52.4731 5143.43,-58.9915"/>
<text text-anchor="middle" x="4481" y="-94.8" font-family="Times,serif" font-size="14.00">recvfrom</text>
</g>
<!-- 11_node#ServerID_b10d4e8ff34a&#45;&gt;gateway:8080#ServerID_OuterContainerID -->
<g id="edge16" class="edge"><title>11_node#ServerID_b10d4e8ff34a&#45;&gt;gateway:8080#ServerID_OuterContainerID</title>
<path fill="none" stroke="black" d="M5151.79,-52.0611C5123.76,-63.3071 5084.81,-77.0233 5049,-83 5003.44,-90.6054 3432.18,-89.9025 3386,-91 3229.9,-94.7096 3191.08,-101.662 3035,-106 2412.97,-123.286 2256.93,-103.175 1635,-124 1581.42,-125.794 1522.74,-128.713 1470.76,-131.631"/>
<polygon fill="black" stroke="black" points="1470.24,-128.154 1460.45,-132.214 1470.63,-135.143 1470.24,-128.154"/>
<text text-anchor="middle" x="3415" y="-94.8" font-family="Times,serif" font-size="14.00">connect</text>
</g>
<!-- 11_node#ServerID_b10d4e8ff34a&#45;&gt;10.152.183.10:53#ServerID_OuterContainerID -->
<g id="edge15" class="edge"><title>11_node#ServerID_b10d4e8ff34a&#45;&gt;10.152.183.10:53#ServerID_OuterContainerID</title>
<path fill="none" stroke="black" d="M5150.5,-52.1142C5122.53,-63.0766 5084.17,-76.4368 5049,-83 4747.4,-139.274 3975.6,-113.003 3669,-124 3612.23,-126.036 3550.12,-128.969 3494.86,-131.826"/>
<polygon fill="black" stroke="black" points="3494.43,-128.344 3484.62,-132.359 3494.79,-135.335 3494.43,-128.344"/>
<text text-anchor="middle" x="5014.5" y="-94.8" font-family="Times,serif" font-size="14.00">sendto</text>
</g>
<!-- 10.1.80.1:56160#ServerID_OuterContainerID&#45;&gt;10.1.80.247:8080#ServerID_OuterContainerID -->
<g id="edge19" class="edge"><title>10.1.80.1:56160#ServerID_OuterContainerID&#45;&gt;10.1.80.247:8080#ServerID_OuterContainerID</title>
<path fill="none" stroke="black" d="M2592.74,-52.0564C2589.92,-67.296 2588.31,-89.6729 2598,-106 2601.31,-111.581 2605.87,-116.345 2611.03,-120.392"/>
<polygon fill="black" stroke="black" points="2609.3,-123.446 2619.53,-126.177 2613.23,-117.658 2609.3,-123.446"/>
<text text-anchor="middle" x="2618" y="-94.8" font-family="Times,serif" font-size="14.00">POST</text>
</g>
</g>
</svg>
