<?xml version="1.0" encoding="UTF-8" standalone="no"?>
<!DOCTYPE svg PUBLIC "-//W3C//DTD SVG 1.1//EN"
 "http://www.w3.org/Graphics/SVG/1.1/DTD/svg11.dtd">
<!-- Generated by graphviz version 2.38.0 (20140413.2041)
 -->
<!-- Title: G Pages: 1 -->
<svg width="12199pt" height="645pt"
 viewBox="0.00 0.00 12199.00 645.00" xmlns="http://www.w3.org/2000/svg" xmlns:xlink="http://www.w3.org/1999/xlink">
<g id="graph0" class="graph" transform="scale(1 1) rotate(0) translate(4 641)">
<title>G</title>
<polygon fill="white" stroke="none" points="-4,4 -4,-641 12195,-641 12195,4 -4,4"/>
<g id="clust1" class="cluster"><title>clusterServerID_34e86192c217</title>
<polygon fill="none" stroke="black" points="464,-8 464,-367 1860,-367 1860,-8 464,-8"/>
<text text-anchor="middle" x="1162" y="-351.8" font-family="Times,serif" font-size="14.00">clusterServerID_34e86192c217</text>
</g>
<g id="clust2" class="cluster"><title>clusterServerID_5f846fd567&#45;w7nbt</title>
<polygon fill="none" stroke="black" points="8,-269 8,-367 348,-367 348,-269 8,-269"/>
<text text-anchor="middle" x="178" y="-351.8" font-family="Times,serif" font-size="14.00">clusterServerID_5f846fd567&#45;w7nbt</text>
</g>
<g id="clust3" class="cluster"><title>clusterServerID_6df85d7674&#45;2kqrj</title>
<polygon fill="none" stroke="black" points="3358,-531 3358,-629 3696,-629 3696,-531 3358,-531"/>
<text text-anchor="middle" x="3527" y="-613.8" font-family="Times,serif" font-size="14.00">clusterServerID_6df85d7674&#45;2kqrj</text>
</g>
<g id="clust4" class="cluster"><title>clusterServerID_OuterContainerID</title>
<polygon fill="none" stroke="black" points="1868,-269 1868,-498 10777,-498 10777,-269 1868,-269"/>
<text text-anchor="middle" x="6322.5" y="-482.8" font-family="Times,serif" font-size="14.00">clusterServerID_OuterContainerID</text>
</g>
<g id="clust5" class="cluster"><title>clusterServerID_e56b6537e2d5</title>
<polygon fill="none" stroke="black" points="10785,-95 10785,-498 12183,-498 12183,-95 10785,-95"/>
<text text-anchor="middle" x="11484" y="-482.8" font-family="Times,serif" font-size="14.00">clusterServerID_e56b6537e2d5</text>
</g>
<!-- 1_fwatchdog#ServerID_6df85d7674&#45;2kqrj -->
<g id="node1" class="node"><title>1_fwatchdog#ServerID_6df85d7674&#45;2kqrj</title>
<polygon fill="none" stroke="black" points="3687.5,-575 3366.5,-575 3366.5,-539 3687.5,-539 3687.5,-575"/>
<text text-anchor="middle" x="3527" y="-553.3" font-family="Times,serif" font-size="14.00">1_fwatchdog#ServerID_6df85d7674&#45;2kqrj</text>
</g>
<!-- 10.1.80.247:56536#ServerID_OuterContainerID -->
<g id="node2" class="node"><title>10.1.80.247:56536#ServerID_OuterContainerID</title>
<polygon fill="none" stroke="black" points="3527,-444 3191.52,-426 3527,-408 3862.48,-426 3527,-444"/>
<text text-anchor="middle" x="3527" y="-422.3" font-family="Times,serif" font-size="14.00">10.1.80.247:56536#ServerID_OuterContainerID</text>
</g>
<!-- 1_fwatchdog#ServerID_6df85d7674&#45;2kqrj&#45;&gt;10.1.80.247:56536#ServerID_OuterContainerID -->
<g id="edge1" class="edge"><title>1_fwatchdog#ServerID_6df85d7674&#45;2kqrj&#45;&gt;10.1.80.247:56536#ServerID_OuterContainerID</title>
<path fill="none" stroke="black" d="M3473.86,-538.972C3466.36,-534.312 3459.64,-528.423 3455,-521 3438.64,-494.854 3466.19,-467.067 3491.8,-448.543"/>
<polygon fill="black" stroke="black" points="3494.11,-451.2 3500.34,-442.632 3490.13,-445.443 3494.11,-451.2"/>
<text text-anchor="middle" x="3497" y="-509.8" font-family="Times,serif" font-size="14.00">RESPONSE</text>
</g>
<!-- 10.1.80.247:8080#ServerID_OuterContainerID -->
<g id="node3" class="node"><title>10.1.80.247:8080#ServerID_OuterContainerID</title>
<polygon fill="none" stroke="black" points="7653,-444 7325.56,-426 7653,-408 7980.44,-426 7653,-444"/>
<text text-anchor="middle" x="7653" y="-422.3" font-family="Times,serif" font-size="14.00">10.1.80.247:8080#ServerID_OuterContainerID</text>
</g>
<!-- 1_fwatchdog#ServerID_6df85d7674&#45;2kqrj&#45;&gt;10.1.80.247:8080#ServerID_OuterContainerID -->
<g id="edge6" class="edge"><title>1_fwatchdog#ServerID_6df85d7674&#45;2kqrj&#45;&gt;10.1.80.247:8080#ServerID_OuterContainerID</title>
<path fill="none" stroke="black" d="M3687.73,-553.54C4409.61,-542.493 7317,-498 7317,-498 7413.93,-487.12 7524.2,-461.149 7591.17,-443.819"/>
<polygon fill="black" stroke="black" points="7592.34,-447.131 7601.13,-441.222 7590.57,-440.358 7592.34,-447.131"/>
<text text-anchor="middle" x="6787" y="-509.8" font-family="Times,serif" font-size="14.00">POST</text>
</g>
<!-- gateway:8080#ServerID_OuterContainerID -->
<g id="node6" class="node"><title>gateway:8080#ServerID_OuterContainerID</title>
<polygon fill="none" stroke="black" points="2869,-444 2564.52,-426 2869,-408 3173.48,-426 2869,-444"/>
<text text-anchor="middle" x="2869" y="-422.3" font-family="Times,serif" font-size="14.00">gateway:8080#ServerID_OuterContainerID</text>
</g>
<!-- 1_fwatchdog#ServerID_6df85d7674&#45;2kqrj&#45;&gt;gateway:8080#ServerID_OuterContainerID -->
<g id="edge8" class="edge"><title>1_fwatchdog#ServerID_6df85d7674&#45;2kqrj&#45;&gt;gateway:8080#ServerID_OuterContainerID</title>
<path fill="none" stroke="black" d="M3366.48,-545.714C3309.18,-540.414 3244.38,-532.548 3186,-521 3089.79,-501.969 2980.79,-466.469 2918.94,-444.961"/>
<polygon fill="black" stroke="black" points="2920.02,-441.631 2909.43,-441.634 2917.71,-448.239 2920.02,-441.631"/>
<text text-anchor="middle" x="3206" y="-509.8" font-family="Times,serif" font-size="14.00">POST</text>
</g>
<!-- 10.1.80.247:56536#ServerID_OuterContainerID&#45;&gt;1_fwatchdog#ServerID_6df85d7674&#45;2kqrj -->
<g id="edge4" class="edge"><title>10.1.80.247:56536#ServerID_OuterContainerID&#45;&gt;1_fwatchdog#ServerID_6df85d7674&#45;2kqrj</title>
<path fill="none" stroke="black" d="M3541.69,-443.44C3554.1,-458.503 3570.94,-482.042 3578,-506 3579.88,-512.395 3581.11,-515.101 3578,-521 3575.83,-525.12 3572.93,-528.848 3569.62,-532.2"/>
<polygon fill="black" stroke="black" points="3567.09,-529.757 3561.81,-538.939 3571.66,-535.056 3567.09,-529.757"/>
<text text-anchor="middle" x="3600" y="-509.8" font-family="Times,serif" font-size="14.00">POST</text>
</g>
<!-- 1_fwatchdog#ServerID_34e86192c217 -->
<g id="node7" class="node"><title>1_fwatchdog#ServerID_34e86192c217</title>
<polygon fill="none" stroke="black" points="1851.5,-313 1552.5,-313 1552.5,-277 1851.5,-277 1851.5,-313"/>
<text text-anchor="middle" x="1702" y="-291.3" font-family="Times,serif" font-size="14.00">1_fwatchdog#ServerID_34e86192c217</text>
</g>
<!-- 10.1.80.247:56536#ServerID_OuterContainerID&#45;&gt;1_fwatchdog#ServerID_34e86192c217 -->
<g id="edge12" class="edge"><title>10.1.80.247:56536#ServerID_OuterContainerID&#45;&gt;1_fwatchdog#ServerID_34e86192c217</title>
<path fill="none" stroke="black" d="M3373.77,-416.214C3313.96,-413.108 3244.79,-409.914 3182,-408 3160.69,-407.35 1661.99,-405.164 1647,-390 1626.91,-369.67 1649.73,-340.571 1671.78,-320.149"/>
<polygon fill="black" stroke="black" points="1674.32,-322.572 1679.48,-313.316 1669.68,-317.337 1674.32,-322.572"/>
<text text-anchor="middle" x="1663.5" y="-378.8" font-family="Times,serif" font-size="14.00">read</text>
</g>
<!-- 10.1.80.247:8080#ServerID_OuterContainerID&#45;&gt;1_fwatchdog#ServerID_6df85d7674&#45;2kqrj -->
<g id="edge2" class="edge"><title>10.1.80.247:8080#ServerID_OuterContainerID&#45;&gt;1_fwatchdog#ServerID_6df85d7674&#45;2kqrj</title>
<path fill="none" stroke="black" d="M7601.13,-441.222C7535.55,-458.443 7418.91,-486.562 7317,-498 6955.32,-538.596 4388.42,-552.342 3697.76,-555.327"/>
<polygon fill="black" stroke="black" points="3697.72,-551.827 3687.73,-555.371 3697.75,-558.827 3697.72,-551.827"/>
<text text-anchor="middle" x="7254" y="-509.8" font-family="Times,serif" font-size="14.00">RESPONSE</text>
</g>
<!-- 10.1.80.1:28331#ServerID_OuterContainerID -->
<g id="node32" class="node"><title>10.1.80.1:28331#ServerID_OuterContainerID</title>
<polygon fill="none" stroke="black" points="8683,-313 8364.1,-295 8683,-277 9001.9,-295 8683,-313"/>
<text text-anchor="middle" x="8683" y="-291.3" font-family="Times,serif" font-size="14.00">10.1.80.1:28331#ServerID_OuterContainerID</text>
</g>
<!-- 10.1.80.247:8080#ServerID_OuterContainerID&#45;&gt;10.1.80.1:28331#ServerID_OuterContainerID -->
<g id="edge44" class="edge"><title>10.1.80.247:8080#ServerID_OuterContainerID&#45;&gt;10.1.80.1:28331#ServerID_OuterContainerID</title>
<path fill="none" stroke="black" d="M7821.79,-417.257C7964.44,-409.233 8173.87,-393.969 8355,-367 8447.64,-353.207 8553.26,-328.742 8619.04,-312.445"/>
<polygon fill="black" stroke="black" points="8619.99,-315.816 8628.85,-310.003 8618.3,-309.023 8619.99,-315.816"/>
<text text-anchor="middle" x="8322" y="-378.8" font-family="Times,serif" font-size="14.00">RESPONSE</text>
</g>
<!-- 10.0.88.125:31112#ServerID_OuterContainerID -->
<g id="node33" class="node"><title>10.0.88.125:31112#ServerID_OuterContainerID</title>
<polygon fill="none" stroke="black" points="7355,-313 7019.52,-295 7355,-277 7690.48,-295 7355,-313"/>
<text text-anchor="middle" x="7355" y="-291.3" font-family="Times,serif" font-size="14.00">10.0.88.125:31112#ServerID_OuterContainerID</text>
</g>
<!-- 10.1.80.247:8080#ServerID_OuterContainerID&#45;&gt;10.0.88.125:31112#ServerID_OuterContainerID -->
<g id="edge45" class="edge"><title>10.1.80.247:8080#ServerID_OuterContainerID&#45;&gt;10.0.88.125:31112#ServerID_OuterContainerID</title>
<path fill="none" stroke="black" d="M7617.94,-409.823C7563.72,-386.353 7459.59,-341.273 7399.92,-315.447"/>
<polygon fill="black" stroke="black" points="7400.96,-312.08 7390.39,-311.32 7398.18,-318.504 7400.96,-312.08"/>
<text text-anchor="middle" x="7607" y="-378.8" font-family="Times,serif" font-size="14.00">RESPONSE</text>
</g>
<!-- 10.1.80.1:58423#ServerID_OuterContainerID -->
<g id="node34" class="node"><title>10.1.80.1:58423#ServerID_OuterContainerID</title>
<polygon fill="none" stroke="black" points="8027,-313 7708.1,-295 8027,-277 8345.9,-295 8027,-313"/>
<text text-anchor="middle" x="8027" y="-291.3" font-family="Times,serif" font-size="14.00">10.1.80.1:58423#ServerID_OuterContainerID</text>
</g>
<!-- 10.1.80.247:8080#ServerID_OuterContainerID&#45;&gt;10.1.80.1:58423#ServerID_OuterContainerID -->
<g id="edge47" class="edge"><title>10.1.80.247:8080#ServerID_OuterContainerID&#45;&gt;10.1.80.1:58423#ServerID_OuterContainerID</title>
<path fill="none" stroke="black" d="M7745.15,-413.037C7775.8,-407.67 7809.8,-400.19 7840,-390 7896.02,-371.099 7956.37,-338.251 7992.92,-316.821"/>
<polygon fill="black" stroke="black" points="7994.86,-319.74 8001.68,-311.634 7991.29,-313.716 7994.86,-319.74"/>
<text text-anchor="middle" x="7920" y="-378.8" font-family="Times,serif" font-size="14.00">RESPONSE</text>
</g>
<!-- 10.1.80.247:58528#ServerID_OuterContainerID -->
<g id="node4" class="node"><title>10.1.80.247:58528#ServerID_OuterContainerID</title>
<polygon fill="none" stroke="black" points="2211,-444 1875.52,-426 2211,-408 2546.48,-426 2211,-444"/>
<text text-anchor="middle" x="2211" y="-422.3" font-family="Times,serif" font-size="14.00">10.1.80.247:58528#ServerID_OuterContainerID</text>
</g>
<!-- 1_fwatchdog#ServerID_5f846fd567&#45;w7nbt -->
<g id="node5" class="node"><title>1_fwatchdog#ServerID_5f846fd567&#45;w7nbt</title>
<polygon fill="none" stroke="black" points="340,-313 16,-313 16,-277 340,-277 340,-313"/>
<text text-anchor="middle" x="178" y="-291.3" font-family="Times,serif" font-size="14.00">1_fwatchdog#ServerID_5f846fd567&#45;w7nbt</text>
</g>
<!-- 10.1.80.247:58528#ServerID_OuterContainerID&#45;&gt;1_fwatchdog#ServerID_5f846fd567&#45;w7nbt -->
<g id="edge3" class="edge"><title>10.1.80.247:58528#ServerID_OuterContainerID&#45;&gt;1_fwatchdog#ServerID_5f846fd567&#45;w7nbt</title>
<path fill="none" stroke="black" d="M1912.6,-424.003C1397.34,-421.647 388.464,-413.985 314,-390 270.613,-376.025 228.718,-343.213 203.161,-320.314"/>
<polygon fill="black" stroke="black" points="205.197,-317.433 195.456,-313.264 200.471,-322.597 205.197,-317.433"/>
<text text-anchor="middle" x="334" y="-378.8" font-family="Times,serif" font-size="14.00">POST</text>
</g>
<!-- 1_fwatchdog#ServerID_e56b6537e2d5 -->
<g id="node12" class="node"><title>1_fwatchdog#ServerID_e56b6537e2d5</title>
<polygon fill="none" stroke="black" points="11840.5,-444 11541.5,-444 11541.5,-408 11840.5,-408 11840.5,-444"/>
<text text-anchor="middle" x="11691" y="-422.3" font-family="Times,serif" font-size="14.00">1_fwatchdog#ServerID_e56b6537e2d5</text>
</g>
<!-- 10.1.80.247:58528#ServerID_OuterContainerID&#45;&gt;1_fwatchdog#ServerID_e56b6537e2d5 -->
<g id="edge15" class="edge"><title>10.1.80.247:58528#ServerID_OuterContainerID&#45;&gt;1_fwatchdog#ServerID_e56b6537e2d5</title>
<path fill="none" stroke="black" d="M2265.72,-441.066C2333.3,-458.823 2452.08,-487.271 2556,-498 2680.01,-510.802 11410.1,-524.305 11532,-498 11575.4,-488.631 11621.2,-466.397 11652.5,-449.096"/>
<polygon fill="black" stroke="black" points="11654.3,-452.091 11661.3,-444.134 11650.8,-445.992 11654.3,-452.091"/>
<text text-anchor="middle" x="3560" y="-509.8" font-family="Times,serif" font-size="14.00">read</text>
</g>
<!-- 1_fwatchdog#ServerID_5f846fd567&#45;w7nbt&#45;&gt;10.1.80.247:58528#ServerID_OuterContainerID -->
<g id="edge5" class="edge"><title>1_fwatchdog#ServerID_5f846fd567&#45;w7nbt&#45;&gt;10.1.80.247:58528#ServerID_OuterContainerID</title>
<path fill="none" stroke="black" d="M174.9,-313.325C172.151,-334.918 171.411,-371.257 193,-390 224.522,-417.366 1327.86,-423.384 1889.45,-424.672"/>
<polygon fill="black" stroke="black" points="1889.72,-428.173 1899.73,-424.696 1889.74,-421.173 1889.72,-428.173"/>
<text text-anchor="middle" x="235" y="-378.8" font-family="Times,serif" font-size="14.00">RESPONSE</text>
</g>
<!-- gateway:8080#ServerID_OuterContainerID&#45;&gt;1_fwatchdog#ServerID_6df85d7674&#45;2kqrj -->
<g id="edge7" class="edge"><title>gateway:8080#ServerID_OuterContainerID&#45;&gt;1_fwatchdog#ServerID_6df85d7674&#45;2kqrj</title>
<path fill="none" stroke="black" d="M2925.24,-440.704C2987.92,-455.747 3092.39,-480.131 3183,-498 3257.04,-512.601 3340.5,-526.729 3406.67,-537.386"/>
<polygon fill="black" stroke="black" points="3406.29,-540.87 3416.72,-538.999 3407.4,-533.958 3406.29,-540.87"/>
<text text-anchor="middle" x="3348" y="-509.8" font-family="Times,serif" font-size="14.00">RESPONSE</text>
</g>
<!-- 10_node#ServerID_34e86192c217 -->
<g id="node9" class="node"><title>10_node#ServerID_34e86192c217</title>
<polygon fill="none" stroke="black" points="819.5,-139 552.5,-139 552.5,-103 819.5,-103 819.5,-139"/>
<text text-anchor="middle" x="686" y="-117.3" font-family="Times,serif" font-size="14.00">10_node#ServerID_34e86192c217</text>
</g>
<!-- gateway:8080#ServerID_OuterContainerID&#45;&gt;10_node#ServerID_34e86192c217 -->
<g id="edge23" class="edge"><title>gateway:8080#ServerID_OuterContainerID&#45;&gt;10_node#ServerID_34e86192c217</title>
<path fill="none" stroke="black" d="M2730.33,-416.156C2675.71,-413.023 2612.43,-409.825 2555,-408 2131.86,-394.553 1072.37,-418.879 650,-390 569.537,-384.498 536.773,-412.232 470,-367 390.213,-312.953 348.139,-225.425 416,-157 434.487,-138.359 487.77,-129.306 542.169,-125.029"/>
<polygon fill="black" stroke="black" points="542.614,-128.506 552.331,-124.285 542.102,-121.524 542.614,-128.506"/>
<text text-anchor="middle" x="402.5" y="-247.8" font-family="Times,serif" font-size="14.00">read</text>
</g>
<!-- localhost:3000#ServerID_34e86192c217 -->
<g id="node8" class="node"><title>localhost:3000#ServerID_34e86192c217</title>
<polygon fill="none" stroke="black" points="1565,-226 1278.45,-208 1565,-190 1851.55,-208 1565,-226"/>
<text text-anchor="middle" x="1565" y="-204.3" font-family="Times,serif" font-size="14.00">localhost:3000#ServerID_34e86192c217</text>
</g>
<!-- 1_fwatchdog#ServerID_34e86192c217&#45;&gt;localhost:3000#ServerID_34e86192c217 -->
<g id="edge9" class="edge"><title>1_fwatchdog#ServerID_34e86192c217&#45;&gt;localhost:3000#ServerID_34e86192c217</title>
<path fill="none" stroke="black" d="M1674.28,-276.799C1652.37,-263.206 1621.71,-244.185 1598.44,-229.748"/>
<polygon fill="black" stroke="black" points="1600.26,-226.759 1589.92,-224.461 1596.57,-232.707 1600.26,-226.759"/>
<text text-anchor="middle" x="1661" y="-247.8" font-family="Times,serif" font-size="14.00">write</text>
</g>
<!-- 10.1.80.247:56602#ServerID_OuterContainerID -->
<g id="node20" class="node"><title>10.1.80.247:56602#ServerID_OuterContainerID</title>
<polygon fill="none" stroke="black" points="4905,-444 4569.52,-426 4905,-408 5240.48,-426 4905,-444"/>
<text text-anchor="middle" x="4905" y="-422.3" font-family="Times,serif" font-size="14.00">10.1.80.247:56602#ServerID_OuterContainerID</text>
</g>
<!-- 1_fwatchdog#ServerID_34e86192c217&#45;&gt;10.1.80.247:56602#ServerID_OuterContainerID -->
<g id="edge26" class="edge"><title>1_fwatchdog#ServerID_34e86192c217&#45;&gt;10.1.80.247:56602#ServerID_OuterContainerID</title>
<path fill="none" stroke="black" d="M1731.24,-313.091C1762.79,-330.488 1815.09,-356.364 1864,-367 2156.75,-430.663 4260.57,-398.349 4560,-408 4618.8,-409.895 4683.21,-412.835 4740.28,-415.74"/>
<polygon fill="black" stroke="black" points="4740.31,-419.246 4750.48,-416.262 4740.67,-412.255 4740.31,-419.246"/>
<text text-anchor="middle" x="2103" y="-378.8" font-family="Times,serif" font-size="14.00">write</text>
</g>
<!-- localhost:3000#ServerID_34e86192c217&#45;&gt;10_node#ServerID_34e86192c217 -->
<g id="edge32" class="edge"><title>localhost:3000#ServerID_34e86192c217&#45;&gt;10_node#ServerID_34e86192c217</title>
<path fill="none" stroke="black" d="M1458.1,-196.662C1300.67,-181.439 1006.15,-152.959 829.887,-135.914"/>
<polygon fill="black" stroke="black" points="830.048,-132.413 819.757,-134.934 829.374,-139.381 830.048,-132.413"/>
<text text-anchor="middle" x="1195.5" y="-160.8" font-family="Times,serif" font-size="14.00">read</text>
</g>
<!-- 10_node#ServerID_34e86192c217&#45;&gt;gateway:8080#ServerID_OuterContainerID -->
<g id="edge13" class="edge"><title>10_node#ServerID_34e86192c217&#45;&gt;gateway:8080#ServerID_OuterContainerID</title>
<path fill="none" stroke="black" d="M552.251,-124.604C499.185,-128.726 446.774,-137.777 430,-157 409.837,-180.107 410.243,-202.546 430,-226 667.677,-508.151 881.518,-324.686 1248,-367 1825.34,-433.66 1974.22,-386.597 2555,-408 2608.06,-409.956 2666.13,-412.879 2717.75,-415.753"/>
<polygon fill="black" stroke="black" points="2717.8,-419.261 2727.98,-416.327 2718.19,-412.272 2717.8,-419.261"/>
<text text-anchor="middle" x="487" y="-247.8" font-family="Times,serif" font-size="14.00">connect</text>
</g>
<!-- pipe:[331683264]#ServerID_34e86192c217 -->
<g id="node10" class="node"><title>pipe:[331683264]#ServerID_34e86192c217</title>
<ellipse fill="none" stroke="black" cx="689" cy="-34" rx="217.162" ry="18"/>
<text text-anchor="middle" x="689" y="-30.3" font-family="Times,serif" font-size="14.00">pipe:[331683264]#ServerID_34e86192c217</text>
</g>
<!-- 10_node#ServerID_34e86192c217&#45;&gt;pipe:[331683264]#ServerID_34e86192c217 -->
<g id="edge10" class="edge"><title>10_node#ServerID_34e86192c217&#45;&gt;pipe:[331683264]#ServerID_34e86192c217</title>
<path fill="none" stroke="black" d="M686.607,-102.799C687.018,-91.1626 687.569,-75.5479 688.039,-62.2368"/>
<polygon fill="black" stroke="black" points="691.539,-62.2927 688.394,-52.1754 684.543,-62.0457 691.539,-62.2927"/>
<text text-anchor="middle" x="707" y="-73.8" font-family="Times,serif" font-size="14.00">write</text>
</g>
<!-- 10.152.183.10:53#ServerID_OuterContainerID -->
<g id="node18" class="node"><title>10.152.183.10:53#ServerID_OuterContainerID</title>
<polygon fill="none" stroke="black" points="6275,-444 5947.56,-426 6275,-408 6602.44,-426 6275,-444"/>
<text text-anchor="middle" x="6275" y="-422.3" font-family="Times,serif" font-size="14.00">10.152.183.10:53#ServerID_OuterContainerID</text>
</g>
<!-- 10_node#ServerID_34e86192c217&#45;&gt;10.152.183.10:53#ServerID_OuterContainerID -->
<g id="edge33" class="edge"><title>10_node#ServerID_34e86192c217&#45;&gt;10.152.183.10:53#ServerID_OuterContainerID</title>
<path fill="none" stroke="black" d="M567.018,-139.016C494.424,-154.248 422.68,-181.253 463,-226 478.405,-243.097 852.166,-266.135 875,-269 1172.73,-306.36 1244.04,-341.306 1543,-367 1680.32,-378.802 1715.24,-370.874 1853,-375 2048.58,-380.857 2097.37,-386.183 2293,-390 3912.71,-421.601 4318.6,-363.179 5938,-408 5996.56,-409.621 6060.79,-412.569 6117.32,-415.561"/>
<polygon fill="black" stroke="black" points="6117.25,-419.062 6127.42,-416.1 6117.62,-412.071 6117.25,-419.062"/>
<text text-anchor="middle" x="766.5" y="-247.8" font-family="Times,serif" font-size="14.00">sendto</text>
</g>
<!-- 10.1.80.247:56552#ServerID_OuterContainerID -->
<g id="node11" class="node"><title>10.1.80.247:56552#ServerID_OuterContainerID</title>
<polygon fill="none" stroke="black" points="4216,-444 3880.52,-426 4216,-408 4551.48,-426 4216,-444"/>
<text text-anchor="middle" x="4216" y="-422.3" font-family="Times,serif" font-size="14.00">10.1.80.247:56552#ServerID_OuterContainerID</text>
</g>
<!-- 10.1.80.247:56552#ServerID_OuterContainerID&#45;&gt;1_fwatchdog#ServerID_34e86192c217 -->
<g id="edge11" class="edge"><title>10.1.80.247:56552#ServerID_OuterContainerID&#45;&gt;1_fwatchdog#ServerID_34e86192c217</title>
<path fill="none" stroke="black" d="M4063.63,-416.146C4003.62,-413.012 3934.09,-409.816 3871,-408 3840.9,-407.134 1724.32,-411.268 1703,-390 1685.92,-372.962 1688.23,-344.261 1693.23,-323.046"/>
<polygon fill="black" stroke="black" points="1696.63,-323.881 1695.83,-313.316 1689.87,-322.074 1696.63,-323.881"/>
<text text-anchor="middle" x="1719.5" y="-378.8" font-family="Times,serif" font-size="14.00">read</text>
</g>
<!-- localhost:3000#ServerID_e56b6537e2d5 -->
<g id="node13" class="node"><title>localhost:3000#ServerID_e56b6537e2d5</title>
<polygon fill="none" stroke="black" points="11414,-313 11127.4,-295 11414,-277 11700.6,-295 11414,-313"/>
<text text-anchor="middle" x="11414" y="-291.3" font-family="Times,serif" font-size="14.00">localhost:3000#ServerID_e56b6537e2d5</text>
</g>
<!-- 1_fwatchdog#ServerID_e56b6537e2d5&#45;&gt;localhost:3000#ServerID_e56b6537e2d5 -->
<g id="edge14" class="edge"><title>1_fwatchdog#ServerID_e56b6537e2d5&#45;&gt;localhost:3000#ServerID_e56b6537e2d5</title>
<path fill="none" stroke="black" d="M11654.2,-407.87C11602.7,-383.883 11509.4,-340.417 11455.5,-315.31"/>
<polygon fill="black" stroke="black" points="11456.7,-312.043 11446.2,-310.995 11453.8,-318.389 11456.7,-312.043"/>
<text text-anchor="middle" x="11628" y="-378.8" font-family="Times,serif" font-size="14.00">write</text>
</g>
<!-- 12_node#ServerID_e56b6537e2d5 -->
<g id="node14" class="node"><title>12_node#ServerID_e56b6537e2d5</title>
<polygon fill="none" stroke="black" points="11305.5,-226 11038.5,-226 11038.5,-190 11305.5,-190 11305.5,-226"/>
<text text-anchor="middle" x="11172" y="-204.3" font-family="Times,serif" font-size="14.00">12_node#ServerID_e56b6537e2d5</text>
</g>
<!-- localhost:3000#ServerID_e56b6537e2d5&#45;&gt;12_node#ServerID_e56b6537e2d5 -->
<g id="edge20" class="edge"><title>localhost:3000#ServerID_e56b6537e2d5&#45;&gt;12_node#ServerID_e56b6537e2d5</title>
<path fill="none" stroke="black" d="M11372.7,-279.485C11333.5,-265.731 11274.3,-244.939 11230.4,-229.497"/>
<polygon fill="black" stroke="black" points="11231.3,-226.103 11220.7,-226.091 11228.9,-232.707 11231.3,-226.103"/>
<text text-anchor="middle" x="11323.5" y="-247.8" font-family="Times,serif" font-size="14.00">read</text>
</g>
<!-- pipe:[331682415]#ServerID_e56b6537e2d5 -->
<g id="node15" class="node"><title>pipe:[331682415]#ServerID_e56b6537e2d5</title>
<ellipse fill="none" stroke="black" cx="11958" cy="-121" rx="217.162" ry="18"/>
<text text-anchor="middle" x="11958" y="-117.3" font-family="Times,serif" font-size="14.00">pipe:[331682415]#ServerID_e56b6537e2d5</text>
</g>
<!-- 12_node#ServerID_e56b6537e2d5&#45;&gt;pipe:[331682415]#ServerID_e56b6537e2d5 -->
<g id="edge16" class="edge"><title>12_node#ServerID_e56b6537e2d5&#45;&gt;pipe:[331682415]#ServerID_e56b6537e2d5</title>
<path fill="none" stroke="black" d="M11305.8,-192.533C11449.5,-176.994 11676.6,-152.432 11821.4,-136.775"/>
<polygon fill="black" stroke="black" points="11822.1,-140.218 11831.7,-135.664 11821.3,-133.259 11822.1,-140.218"/>
<text text-anchor="middle" x="11631" y="-160.8" font-family="Times,serif" font-size="14.00">write</text>
</g>
<!-- 10.152.183.73:8888#ServerID_OuterContainerID -->
<g id="node17" class="node"><title>10.152.183.73:8888#ServerID_OuterContainerID</title>
<polygon fill="none" stroke="black" points="6964,-444 6620.47,-426 6964,-408 7307.53,-426 6964,-444"/>
<text text-anchor="middle" x="6964" y="-422.3" font-family="Times,serif" font-size="14.00">10.152.183.73:8888#ServerID_OuterContainerID</text>
</g>
<!-- 12_node#ServerID_e56b6537e2d5&#45;&gt;10.152.183.73:8888#ServerID_OuterContainerID -->
<g id="edge18" class="edge"><title>12_node#ServerID_e56b6537e2d5&#45;&gt;10.152.183.73:8888#ServerID_OuterContainerID</title>
<path fill="none" stroke="black" d="M11038.3,-208.783C10342.1,-207.822 7155.28,-205.544 6950,-244 6919.17,-249.776 6901.82,-243.189 6884,-269 6859.25,-304.841 6864.21,-328.202 6884,-367 6892.01,-382.692 6906.46,-395.127 6920.9,-404.394"/>
<polygon fill="black" stroke="black" points="6919.46,-407.61 6929.84,-409.755 6923.06,-401.608 6919.46,-407.61"/>
<text text-anchor="middle" x="6913" y="-291.3" font-family="Times,serif" font-size="14.00">connect</text>
</g>
<!-- 12_node#ServerID_e56b6537e2d5&#45;&gt;10.152.183.73:8888#ServerID_OuterContainerID -->
<g id="edge22" class="edge"><title>12_node#ServerID_e56b6537e2d5&#45;&gt;10.152.183.73:8888#ServerID_OuterContainerID</title>
<path fill="none" stroke="black" d="M11038.3,-209.682C10326.4,-213.463 7010.6,-232.994 6973,-269 6938.64,-301.902 6947.13,-362.927 6955.89,-398.108"/>
<polygon fill="black" stroke="black" points="6952.61,-399.379 6958.57,-408.137 6959.37,-397.573 6952.61,-399.379"/>
<text text-anchor="middle" x="6992" y="-291.3" font-family="Times,serif" font-size="14.00">write</text>
</g>
<!-- 12_node#ServerID_e56b6537e2d5&#45;&gt;10.152.183.10:53#ServerID_OuterContainerID -->
<g id="edge21" class="edge"><title>12_node#ServerID_e56b6537e2d5&#45;&gt;10.152.183.10:53#ServerID_OuterContainerID</title>
<path fill="none" stroke="black" d="M11038.4,-208.901C10336.5,-208.532 7098.12,-208.751 6889,-244 6732.6,-270.362 6706.34,-322.851 6554,-367 6490.81,-385.312 6417.99,-400.249 6362.59,-410.377"/>
<polygon fill="black" stroke="black" points="6361.68,-406.986 6352.46,-412.211 6362.92,-413.874 6361.68,-406.986"/>
<text text-anchor="middle" x="6811.5" y="-291.3" font-family="Times,serif" font-size="14.00">sendto</text>
</g>
<!-- /home/app/sqldump.sh#ServerID_e56b6537e2d5 -->
<g id="node19" class="node"><title>/home/app/sqldump.sh#ServerID_e56b6537e2d5</title>
<ellipse fill="none" stroke="black" cx="11032" cy="-121" rx="239.358" ry="18"/>
<text text-anchor="middle" x="11032" y="-117.3" font-family="Times,serif" font-size="14.00">/home/app/sqldump.sh#ServerID_e56b6537e2d5</text>
</g>
<!-- 12_node#ServerID_e56b6537e2d5&#45;&gt;/home/app/sqldump.sh#ServerID_e56b6537e2d5 -->
<g id="edge24" class="edge"><title>12_node#ServerID_e56b6537e2d5&#45;&gt;/home/app/sqldump.sh#ServerID_e56b6537e2d5</title>
<path fill="none" stroke="black" d="M11143.7,-189.799C11122,-176.636 11091.9,-158.384 11068.5,-144.132"/>
<polygon fill="black" stroke="black" points="11070.2,-141.083 11059.8,-138.885 11066.5,-147.067 11070.2,-141.083"/>
<text text-anchor="middle" x="11129" y="-160.8" font-family="Times,serif" font-size="14.00">write</text>
</g>
<!-- pipe:[331683435]#ServerID_e56b6537e2d5 -->
<g id="node30" class="node"><title>pipe:[331683435]#ServerID_e56b6537e2d5</title>
<ellipse fill="none" stroke="black" cx="11506" cy="-121" rx="217.162" ry="18"/>
<text text-anchor="middle" x="11506" y="-117.3" font-family="Times,serif" font-size="14.00">pipe:[331683435]#ServerID_e56b6537e2d5</text>
</g>
<!-- 12_node#ServerID_e56b6537e2d5&#45;&gt;pipe:[331683435]#ServerID_e56b6537e2d5 -->
<g id="edge42" class="edge"><title>12_node#ServerID_e56b6537e2d5&#45;&gt;pipe:[331683435]#ServerID_e56b6537e2d5</title>
<path fill="none" stroke="black" d="M11305.7,-191.982C11335.4,-186.996 11366.5,-180.473 11395,-172 11419.1,-164.833 11444.7,-153.549 11465.3,-143.514"/>
<polygon fill="black" stroke="black" points="11466.9,-146.593 11474.3,-139.01 11463.8,-140.324 11466.9,-146.593"/>
<text text-anchor="middle" x="11454" y="-160.8" font-family="Times,serif" font-size="14.00">write</text>
</g>
<!-- 10.1.80.247:58576#ServerID_OuterContainerID -->
<g id="node16" class="node"><title>10.1.80.247:58576#ServerID_OuterContainerID</title>
<polygon fill="none" stroke="black" points="10434,-444 10098.5,-426 10434,-408 10769.5,-426 10434,-444"/>
<text text-anchor="middle" x="10434" y="-422.3" font-family="Times,serif" font-size="14.00">10.1.80.247:58576#ServerID_OuterContainerID</text>
</g>
<!-- 10.1.80.247:58576#ServerID_OuterContainerID&#45;&gt;1_fwatchdog#ServerID_e56b6537e2d5 -->
<g id="edge17" class="edge"><title>10.1.80.247:58576#ServerID_OuterContainerID&#45;&gt;1_fwatchdog#ServerID_e56b6537e2d5</title>
<path fill="none" stroke="black" d="M10489,-441.066C10557,-458.824 10676.5,-487.272 10781,-498 10947,-515.042 11368.9,-533.214 11532,-498 11575.4,-488.631 11621.2,-466.397 11652.5,-449.096"/>
<polygon fill="black" stroke="black" points="11654.3,-452.091 11661.3,-444.134 11650.8,-445.992 11654.3,-452.091"/>
<text text-anchor="middle" x="11155" y="-509.8" font-family="Times,serif" font-size="14.00">read</text>
</g>
<!-- 10.152.183.10:53#ServerID_OuterContainerID&#45;&gt;10_node#ServerID_34e86192c217 -->
<g id="edge31" class="edge"><title>10.152.183.10:53#ServerID_OuterContainerID&#45;&gt;10_node#ServerID_34e86192c217</title>
<path fill="none" stroke="black" d="M6118.95,-416.54C5310.76,-372.725 1608.33,-172.003 829.882,-129.8"/>
<polygon fill="black" stroke="black" points="829.92,-126.297 819.745,-129.251 829.541,-133.287 829.92,-126.297"/>
<text text-anchor="middle" x="3192" y="-247.8" font-family="Times,serif" font-size="14.00">recvfrom</text>
</g>
<!-- 10.152.183.10:53#ServerID_OuterContainerID&#45;&gt;12_node#ServerID_e56b6537e2d5 -->
<g id="edge19" class="edge"><title>10.152.183.10:53#ServerID_OuterContainerID&#45;&gt;12_node#ServerID_e56b6537e2d5</title>
<path fill="none" stroke="black" d="M6290.79,-408.727C6331.71,-368.15 6446.43,-264.288 6567,-244 6791.85,-206.167 10273.5,-207.969 11028.4,-208.809"/>
<polygon fill="black" stroke="black" points="11028.5,-212.309 11038.5,-208.821 11028.5,-205.309 11028.5,-212.309"/>
<text text-anchor="middle" x="6517" y="-291.3" font-family="Times,serif" font-size="14.00">recvfrom</text>
</g>
<!-- 10.1.80.247:56602#ServerID_OuterContainerID&#45;&gt;1_fwatchdog#ServerID_34e86192c217 -->
<g id="edge25" class="edge"><title>10.1.80.247:56602#ServerID_OuterContainerID&#45;&gt;1_fwatchdog#ServerID_34e86192c217</title>
<path fill="none" stroke="black" d="M4753.06,-416.107C4692.95,-412.957 4623.24,-409.761 4560,-408 4521.11,-406.917 1792.84,-409.197 1759,-390 1733.81,-375.708 1718.45,-345.327 1710.13,-322.956"/>
<polygon fill="black" stroke="black" points="1713.37,-321.626 1706.78,-313.327 1706.76,-323.922 1713.37,-321.626"/>
<text text-anchor="middle" x="1775.5" y="-378.8" font-family="Times,serif" font-size="14.00">read</text>
</g>
<!-- 10.1.80.247:58596#ServerID_OuterContainerID -->
<g id="node21" class="node"><title>10.1.80.247:58596#ServerID_OuterContainerID</title>
<polygon fill="none" stroke="black" points="9745,-444 9409.52,-426 9745,-408 10080.5,-426 9745,-444"/>
<text text-anchor="middle" x="9745" y="-422.3" font-family="Times,serif" font-size="14.00">10.1.80.247:58596#ServerID_OuterContainerID</text>
</g>
<!-- 10.1.80.247:58596#ServerID_OuterContainerID&#45;&gt;1_fwatchdog#ServerID_e56b6537e2d5 -->
<g id="edge27" class="edge"><title>10.1.80.247:58596#ServerID_OuterContainerID&#45;&gt;1_fwatchdog#ServerID_e56b6537e2d5</title>
<path fill="none" stroke="black" d="M9799.72,-441.066C9867.3,-458.823 9986.08,-487.271 10090,-498 10249.4,-514.453 11375.4,-531.808 11532,-498 11575.4,-488.631 11621.2,-466.397 11652.5,-449.096"/>
<polygon fill="black" stroke="black" points="11654.3,-452.091 11661.3,-444.134 11650.8,-445.992 11654.3,-452.091"/>
<text text-anchor="middle" x="10354" y="-509.8" font-family="Times,serif" font-size="14.00">read</text>
</g>
<!-- 10.1.80.247:56638#ServerID_OuterContainerID -->
<g id="node22" class="node"><title>10.1.80.247:56638#ServerID_OuterContainerID</title>
<polygon fill="none" stroke="black" points="5594,-444 5258.52,-426 5594,-408 5929.48,-426 5594,-444"/>
<text text-anchor="middle" x="5594" y="-422.3" font-family="Times,serif" font-size="14.00">10.1.80.247:56638#ServerID_OuterContainerID</text>
</g>
<!-- 10.1.80.247:56638#ServerID_OuterContainerID&#45;&gt;1_fwatchdog#ServerID_34e86192c217 -->
<g id="edge28" class="edge"><title>10.1.80.247:56638#ServerID_OuterContainerID&#45;&gt;1_fwatchdog#ServerID_34e86192c217</title>
<path fill="none" stroke="black" d="M5440.34,-416.205C5380.62,-413.107 5311.64,-409.922 5249,-408 5202,-406.558 1909.96,-376.92 1864,-367 1819.47,-357.388 1772.15,-335.072 1740.22,-318.005"/>
<polygon fill="black" stroke="black" points="1741.69,-314.821 1731.23,-313.121 1738.35,-320.971 1741.69,-314.821"/>
<text text-anchor="middle" x="3473.5" y="-378.8" font-family="Times,serif" font-size="14.00">read</text>
</g>
<!-- /etc/hosts#ServerID_34e86192c217 -->
<g id="node23" class="node"><title>/etc/hosts#ServerID_34e86192c217</title>
<ellipse fill="none" stroke="black" cx="1080" cy="-208" rx="180.068" ry="18"/>
<text text-anchor="middle" x="1080" y="-204.3" font-family="Times,serif" font-size="14.00">/etc/hosts#ServerID_34e86192c217</text>
</g>
<!-- /etc/hosts#ServerID_34e86192c217&#45;&gt;10_node#ServerID_34e86192c217 -->
<g id="edge29" class="edge"><title>/etc/hosts#ServerID_34e86192c217&#45;&gt;10_node#ServerID_34e86192c217</title>
<path fill="none" stroke="black" d="M1007.73,-191.41C942.2,-177.272 845.38,-156.384 775.08,-141.218"/>
<polygon fill="black" stroke="black" points="775.42,-137.711 764.907,-139.023 773.944,-144.553 775.42,-137.711"/>
<text text-anchor="middle" x="923.5" y="-160.8" font-family="Times,serif" font-size="14.00">read</text>
</g>
<!-- /etc/resolv.conf#ServerID_34e86192c217 -->
<g id="node24" class="node"><title>/etc/resolv.conf#ServerID_34e86192c217</title>
<ellipse fill="none" stroke="black" cx="677" cy="-208" rx="205.264" ry="18"/>
<text text-anchor="middle" x="677" y="-204.3" font-family="Times,serif" font-size="14.00">/etc/resolv.conf#ServerID_34e86192c217</text>
</g>
<!-- /etc/resolv.conf#ServerID_34e86192c217&#45;&gt;10_node#ServerID_34e86192c217 -->
<g id="edge30" class="edge"><title>/etc/resolv.conf#ServerID_34e86192c217&#45;&gt;10_node#ServerID_34e86192c217</title>
<path fill="none" stroke="black" d="M678.821,-189.799C680.053,-178.163 681.707,-162.548 683.116,-149.237"/>
<polygon fill="black" stroke="black" points="686.609,-149.488 684.181,-139.175 679.648,-148.751 686.609,-149.488"/>
<text text-anchor="middle" x="699.5" y="-160.8" font-family="Times,serif" font-size="14.00">read</text>
</g>
<!-- 10.1.80.247:58520#ServerID_OuterContainerID -->
<g id="node25" class="node"><title>10.1.80.247:58520#ServerID_OuterContainerID</title>
<polygon fill="none" stroke="black" points="9056,-444 8720.52,-426 9056,-408 9391.48,-426 9056,-444"/>
<text text-anchor="middle" x="9056" y="-422.3" font-family="Times,serif" font-size="14.00">10.1.80.247:58520#ServerID_OuterContainerID</text>
</g>
<!-- 10.1.80.247:58520#ServerID_OuterContainerID&#45;&gt;1_fwatchdog#ServerID_e56b6537e2d5 -->
<g id="edge34" class="edge"><title>10.1.80.247:58520#ServerID_OuterContainerID&#45;&gt;1_fwatchdog#ServerID_e56b6537e2d5</title>
<path fill="none" stroke="black" d="M9110.72,-441.066C9178.3,-458.823 9297.08,-487.271 9401,-498 9518.76,-510.157 11416.3,-522.981 11532,-498 11575.4,-488.631 11621.2,-466.397 11652.5,-449.096"/>
<polygon fill="black" stroke="black" points="11654.3,-452.091 11661.3,-444.134 11650.8,-445.992 11654.3,-452.091"/>
<text text-anchor="middle" x="10512" y="-509.8" font-family="Times,serif" font-size="14.00">read</text>
</g>
<!-- 37_mysqldump#ServerID_e56b6537e2d5 -->
<g id="node26" class="node"><title>37_mysqldump#ServerID_e56b6537e2d5</title>
<polygon fill="none" stroke="black" points="11109,-444 10793,-444 10793,-408 11109,-408 11109,-444"/>
<text text-anchor="middle" x="10951" y="-422.3" font-family="Times,serif" font-size="14.00">37_mysqldump#ServerID_e56b6537e2d5</text>
</g>
<!-- 10.152.183.198:3306#ServerID_OuterContainerID -->
<g id="node27" class="node"><title>10.152.183.198:3306#ServerID_OuterContainerID</title>
<polygon fill="none" stroke="black" points="8350,-444 7997.93,-426 8350,-408 8702.07,-426 8350,-444"/>
<text text-anchor="middle" x="8350" y="-422.3" font-family="Times,serif" font-size="14.00">10.152.183.198:3306#ServerID_OuterContainerID</text>
</g>
<!-- 37_mysqldump#ServerID_e56b6537e2d5&#45;&gt;10.152.183.198:3306#ServerID_OuterContainerID -->
<g id="edge35" class="edge"><title>37_mysqldump#ServerID_e56b6537e2d5&#45;&gt;10.152.183.198:3306#ServerID_OuterContainerID</title>
<path fill="none" stroke="black" d="M10919,-444.145C10885.8,-461.902 10831.6,-487.732 10781,-498 10668.4,-520.871 8826.39,-509.266 8712,-498 8608,-487.758 8489.6,-461.347 8417.35,-443.523"/>
<polygon fill="black" stroke="black" points="8418.02,-440.083 8407.47,-441.068 8416.33,-446.876 8418.02,-440.083"/>
<text text-anchor="middle" x="10720" y="-509.8" font-family="Times,serif" font-size="14.00">sendto</text>
</g>
<!-- 10.152.183.198:3306#ServerID_OuterContainerID&#45;&gt;37_mysqldump#ServerID_e56b6537e2d5 -->
<g id="edge37" class="edge"><title>10.152.183.198:3306#ServerID_OuterContainerID&#45;&gt;37_mysqldump#ServerID_e56b6537e2d5</title>
<path fill="none" stroke="black" d="M8407.47,-441.068C8478.43,-458.827 8603.11,-487.276 8712,-498 8826.39,-509.266 10668.4,-520.871 10781,-498 10827.2,-488.615 10876.5,-466.226 10910,-448.886"/>
<polygon fill="black" stroke="black" points="10911.8,-451.895 10919,-444.145 10908.6,-445.698 10911.8,-451.895"/>
<text text-anchor="middle" x="10627" y="-509.8" font-family="Times,serif" font-size="14.00">recvfrom</text>
</g>
<!-- 38_mysqldump#ServerID_e56b6537e2d5 -->
<g id="node28" class="node"><title>38_mysqldump#ServerID_e56b6537e2d5</title>
<polygon fill="none" stroke="black" points="11109,-313 10793,-313 10793,-277 11109,-277 11109,-313"/>
<text text-anchor="middle" x="10951" y="-291.3" font-family="Times,serif" font-size="14.00">38_mysqldump#ServerID_e56b6537e2d5</text>
</g>
<!-- 10.152.183.198:3306#ServerID_OuterContainerID&#45;&gt;38_mysqldump#ServerID_e56b6537e2d5 -->
<g id="edge38" class="edge"><title>10.152.183.198:3306#ServerID_OuterContainerID&#45;&gt;38_mysqldump#ServerID_e56b6537e2d5</title>
<path fill="none" stroke="black" d="M8512.59,-416.278C8574.94,-413.219 8646.76,-410.04 8712,-408 8941.82,-400.815 10556.1,-415.02 10781,-367 10827.5,-357.078 10877.2,-334.768 10910.8,-317.785"/>
<polygon fill="black" stroke="black" points="10912.6,-320.83 10919.9,-313.151 10909.4,-314.602 10912.6,-320.83"/>
<text text-anchor="middle" x="10735" y="-378.8" font-family="Times,serif" font-size="14.00">recvfrom</text>
</g>
<!-- 38_mysqldump#ServerID_e56b6537e2d5&#45;&gt;10.152.183.198:3306#ServerID_OuterContainerID -->
<g id="edge36" class="edge"><title>38_mysqldump#ServerID_e56b6537e2d5&#45;&gt;10.152.183.198:3306#ServerID_OuterContainerID</title>
<path fill="none" stroke="black" d="M10920.5,-313.001C10887.4,-330.458 10832.2,-356.51 10781,-367 10728.6,-377.732 9871.49,-373.98 9818,-375 9326.32,-384.376 9203.41,-389.132 8712,-408 8651.97,-410.305 8586.37,-413.255 8527.7,-416.049"/>
<polygon fill="black" stroke="black" points="8527.41,-412.558 8517.59,-416.532 8527.74,-419.55 8527.41,-412.558"/>
<text text-anchor="middle" x="9842.5" y="-378.8" font-family="Times,serif" font-size="14.00">sendto</text>
</g>
<!-- pipe:[331683436]#ServerID_e56b6537e2d5 -->
<g id="node29" class="node"><title>pipe:[331683436]#ServerID_e56b6537e2d5</title>
<ellipse fill="none" stroke="black" cx="11936" cy="-295" rx="217.162" ry="18"/>
<text text-anchor="middle" x="11936" y="-291.3" font-family="Times,serif" font-size="14.00">pipe:[331683436]#ServerID_e56b6537e2d5</text>
</g>
<!-- pipe:[331683436]#ServerID_e56b6537e2d5&#45;&gt;12_node#ServerID_e56b6537e2d5 -->
<g id="edge39" class="edge"><title>pipe:[331683436]#ServerID_e56b6537e2d5&#45;&gt;12_node#ServerID_e56b6537e2d5</title>
<path fill="none" stroke="black" d="M11812,-280.201C11676.2,-265.096 11458.8,-240.911 11315.7,-224.99"/>
<polygon fill="black" stroke="black" points="11315.9,-221.485 11305.5,-223.858 11315.1,-228.442 11315.9,-221.485"/>
<text text-anchor="middle" x="11615.5" y="-247.8" font-family="Times,serif" font-size="14.00">read</text>
</g>
<!-- pipe:[331683435]#ServerID_e56b6537e2d5&#45;&gt;12_node#ServerID_e56b6537e2d5 -->
<g id="edge40" class="edge"><title>pipe:[331683435]#ServerID_e56b6537e2d5&#45;&gt;12_node#ServerID_e56b6537e2d5</title>
<path fill="none" stroke="black" d="M11442,-138.278C11387.1,-152.271 11307.6,-172.488 11249.1,-187.374"/>
<polygon fill="black" stroke="black" points="11248,-184.043 11239.2,-189.901 11249.7,-190.827 11248,-184.043"/>
<text text-anchor="middle" x="11374.5" y="-160.8" font-family="Times,serif" font-size="14.00">read</text>
</g>
<!-- /etc/localtime#ServerID_e56b6537e2d5 -->
<g id="node31" class="node"><title>/etc/localtime#ServerID_e56b6537e2d5</title>
<ellipse fill="none" stroke="black" cx="11325" cy="-426" rx="198.465" ry="18"/>
<text text-anchor="middle" x="11325" y="-422.3" font-family="Times,serif" font-size="14.00">/etc/localtime#ServerID_e56b6537e2d5</text>
</g>
<!-- /etc/localtime#ServerID_e56b6537e2d5&#45;&gt;38_mysqldump#ServerID_e56b6537e2d5 -->
<g id="edge41" class="edge"><title>/etc/localtime#ServerID_e56b6537e2d5&#45;&gt;38_mysqldump#ServerID_e56b6537e2d5</title>
<path fill="none" stroke="black" d="M11259.5,-408.964C11218.5,-398.341 11164.7,-383.379 11118,-367 11076.2,-352.327 11029.9,-332.351 10996.7,-317.325"/>
<polygon fill="black" stroke="black" points="10997.8,-313.987 10987.3,-313.03 10994.9,-320.358 10997.8,-313.987"/>
<text text-anchor="middle" x="11201.5" y="-378.8" font-family="Times,serif" font-size="14.00">read</text>
</g>
<!-- 10.1.80.1:28331#ServerID_OuterContainerID&#45;&gt;10.1.80.247:8080#ServerID_OuterContainerID -->
<g id="edge43" class="edge"><title>10.1.80.1:28331#ServerID_OuterContainerID&#45;&gt;10.1.80.247:8080#ServerID_OuterContainerID</title>
<path fill="none" stroke="black" d="M8647.69,-311.126C8590.24,-335.454 8478.76,-381.422 8437,-390 8339.4,-410.046 8088.53,-403.483 7989,-408 7934.46,-410.475 7874.95,-413.41 7821.37,-416.138"/>
<polygon fill="black" stroke="black" points="7820.9,-412.657 7811.09,-416.662 7821.26,-419.648 7820.9,-412.657"/>
<text text-anchor="middle" x="8505" y="-378.8" font-family="Times,serif" font-size="14.00">POST</text>
</g>
<!-- 10.1.80.1:58423#ServerID_OuterContainerID&#45;&gt;10.1.80.247:8080#ServerID_OuterContainerID -->
<g id="edge46" class="edge"><title>10.1.80.1:58423#ServerID_OuterContainerID&#45;&gt;10.1.80.247:8080#ServerID_OuterContainerID</title>
<path fill="none" stroke="black" d="M7984.5,-310.659C7915.63,-334.413 7779.85,-381.246 7705.21,-406.991"/>
<polygon fill="black" stroke="black" points="7703.85,-403.758 7695.54,-410.328 7706.13,-410.376 7703.85,-403.758"/>
<text text-anchor="middle" x="7816" y="-378.8" font-family="Times,serif" font-size="14.00">POST</text>
</g>
</g>
</svg>
