<?xml version="1.0" encoding="UTF-8" standalone="no"?>
<!DOCTYPE svg PUBLIC "-//W3C//DTD SVG 1.1//EN"
 "http://www.w3.org/Graphics/SVG/1.1/DTD/svg11.dtd">
<!-- Generated by graphviz version 2.38.0 (20140413.2041)
 -->
<!-- Title: G Pages: 1 -->
<svg width="8140pt" height="558pt"
 viewBox="0.00 0.00 8140.00 558.00" xmlns="http://www.w3.org/2000/svg" xmlns:xlink="http://www.w3.org/1999/xlink">
<g id="graph0" class="graph" transform="scale(1 1) rotate(0) translate(4 554)">
<title>G</title>
<polygon fill="white" stroke="none" points="-4,4 -4,-554 8136,-554 8136,4 -4,4"/>
<g id="clust1" class="cluster"><title>clusterServerID_34e86192c217</title>
<polygon fill="none" stroke="black" points="8,-95 8,-411 1130,-411 1130,-95 8,-95"/>
<text text-anchor="middle" x="569" y="-395.8" font-family="Times,serif" font-size="14.00">clusterServerID_34e86192c217</text>
</g>
<g id="clust2" class="cluster"><title>clusterServerID_5f846fd567&#45;w7nbt</title>
<polygon fill="none" stroke="black" points="4660,-444 4660,-542 5000,-542 5000,-444 4660,-444"/>
<text text-anchor="middle" x="4830" y="-526.8" font-family="Times,serif" font-size="14.00">clusterServerID_5f846fd567&#45;w7nbt</text>
</g>
<g id="clust3" class="cluster"><title>clusterServerID_6df85d7674&#45;2kqrj</title>
<polygon fill="none" stroke="black" points="3292,-444 3292,-542 3630,-542 3630,-444 3292,-444"/>
<text text-anchor="middle" x="3461" y="-526.8" font-family="Times,serif" font-size="14.00">clusterServerID_6df85d7674&#45;2kqrj</text>
</g>
<g id="clust4" class="cluster"><title>clusterServerID_OuterContainerID</title>
<polygon fill="none" stroke="black" points="1138,-182 1138,-411 7241,-411 7241,-182 1138,-182"/>
<text text-anchor="middle" x="4189.5" y="-395.8" font-family="Times,serif" font-size="14.00">clusterServerID_OuterContainerID</text>
</g>
<g id="clust5" class="cluster"><title>clusterServerID_e56b6537e2d5</title>
<polygon fill="none" stroke="black" points="7249,-8 7249,-280 8124,-280 8124,-8 7249,-8"/>
<text text-anchor="middle" x="7686.5" y="-264.8" font-family="Times,serif" font-size="14.00">clusterServerID_e56b6537e2d5</text>
</g>
<!-- gateway:8080#ServerID_OuterContainerID -->
<g id="node1" class="node"><title>gateway:8080#ServerID_OuterContainerID</title>
<polygon fill="none" stroke="black" points="1450,-357 1145.52,-339 1450,-321 1754.48,-339 1450,-357"/>
<text text-anchor="middle" x="1450" y="-335.3" font-family="Times,serif" font-size="14.00">gateway:8080#ServerID_OuterContainerID</text>
</g>
<!-- 1_fwatchdog#ServerID_6df85d7674&#45;2kqrj -->
<g id="node2" class="node"><title>1_fwatchdog#ServerID_6df85d7674&#45;2kqrj</title>
<polygon fill="none" stroke="black" points="3621.5,-488 3300.5,-488 3300.5,-452 3621.5,-452 3621.5,-488"/>
<text text-anchor="middle" x="3461" y="-466.3" font-family="Times,serif" font-size="14.00">1_fwatchdog#ServerID_6df85d7674&#45;2kqrj</text>
</g>
<!-- gateway:8080#ServerID_OuterContainerID&#45;&gt;1_fwatchdog#ServerID_6df85d7674&#45;2kqrj -->
<g id="edge1" class="edge"><title>gateway:8080#ServerID_OuterContainerID&#45;&gt;1_fwatchdog#ServerID_6df85d7674&#45;2kqrj</title>
<path fill="none" stroke="black" d="M1466.52,-356.123C1490.79,-378.57 1538.56,-418.253 1588,-434 1668.18,-459.536 2843.13,-466.659 3290.12,-468.45"/>
<polygon fill="black" stroke="black" points="3290.2,-471.951 3300.22,-468.491 3290.23,-464.951 3290.2,-471.951"/>
<text text-anchor="middle" x="1630" y="-422.8" font-family="Times,serif" font-size="14.00">RESPONSE</text>
</g>
<!-- 10_node#ServerID_34e86192c217 -->
<g id="node9" class="node"><title>10_node#ServerID_34e86192c217</title>
<polygon fill="none" stroke="black" points="1121.5,-226 854.5,-226 854.5,-190 1121.5,-190 1121.5,-226"/>
<text text-anchor="middle" x="988" y="-204.3" font-family="Times,serif" font-size="14.00">10_node#ServerID_34e86192c217</text>
</g>
<!-- gateway:8080#ServerID_OuterContainerID&#45;&gt;10_node#ServerID_34e86192c217 -->
<g id="edge29" class="edge"><title>gateway:8080#ServerID_OuterContainerID&#45;&gt;10_node#ServerID_34e86192c217</title>
<path fill="none" stroke="black" d="M1339.95,-327.493C1278.01,-319.205 1200.07,-304.753 1134,-280 1096.97,-266.126 1056.67,-246.131 1027.81,-230.893"/>
<polygon fill="black" stroke="black" points="1029.33,-227.738 1018.86,-226.127 1026.04,-233.917 1029.33,-227.738"/>
<text text-anchor="middle" x="1217.5" y="-291.8" font-family="Times,serif" font-size="14.00">read</text>
</g>
<!-- 1_fwatchdog#ServerID_6df85d7674&#45;2kqrj&#45;&gt;gateway:8080#ServerID_OuterContainerID -->
<g id="edge6" class="edge"><title>1_fwatchdog#ServerID_6df85d7674&#45;2kqrj&#45;&gt;gateway:8080#ServerID_OuterContainerID</title>
<path fill="none" stroke="black" d="M3300.45,-463.203C3034.89,-453.662 2487.44,-434.192 2024,-419 1966.23,-417.106 1821.34,-418.297 1764,-411 1673.74,-399.515 1571.3,-373.926 1508.67,-356.815"/>
<polygon fill="black" stroke="black" points="1509.54,-353.424 1498.97,-354.145 1507.68,-360.173 1509.54,-353.424"/>
<text text-anchor="middle" x="2479" y="-422.8" font-family="Times,serif" font-size="14.00">POST</text>
</g>
<!-- 10.1.80.247:8080#ServerID_OuterContainerID -->
<g id="node3" class="node"><title>10.1.80.247:8080#ServerID_OuterContainerID</title>
<polygon fill="none" stroke="black" points="3461,-357 3133.56,-339 3461,-321 3788.44,-339 3461,-357"/>
<text text-anchor="middle" x="3461" y="-335.3" font-family="Times,serif" font-size="14.00">10.1.80.247:8080#ServerID_OuterContainerID</text>
</g>
<!-- 1_fwatchdog#ServerID_6df85d7674&#45;2kqrj&#45;&gt;10.1.80.247:8080#ServerID_OuterContainerID -->
<g id="edge4" class="edge"><title>1_fwatchdog#ServerID_6df85d7674&#45;2kqrj&#45;&gt;10.1.80.247:8080#ServerID_OuterContainerID</title>
<path fill="none" stroke="black" d="M3439.2,-451.762C3434.26,-446.629 3429.68,-440.594 3427,-434 3417.59,-410.817 3429.56,-383.933 3441.82,-364.87"/>
<polygon fill="black" stroke="black" points="3444.82,-366.677 3447.58,-356.447 3439.04,-362.726 3444.82,-366.677"/>
<text text-anchor="middle" x="3447" y="-422.8" font-family="Times,serif" font-size="14.00">POST</text>
</g>
<!-- 10.1.80.247:50688#ServerID_OuterContainerID -->
<g id="node4" class="node"><title>10.1.80.247:50688#ServerID_OuterContainerID</title>
<polygon fill="none" stroke="black" points="4142,-357 3806.52,-339 4142,-321 4477.48,-339 4142,-357"/>
<text text-anchor="middle" x="4142" y="-335.3" font-family="Times,serif" font-size="14.00">10.1.80.247:50688#ServerID_OuterContainerID</text>
</g>
<!-- 1_fwatchdog#ServerID_6df85d7674&#45;2kqrj&#45;&gt;10.1.80.247:50688#ServerID_OuterContainerID -->
<g id="edge7" class="edge"><title>1_fwatchdog#ServerID_6df85d7674&#45;2kqrj&#45;&gt;10.1.80.247:50688#ServerID_OuterContainerID</title>
<path fill="none" stroke="black" d="M3538.26,-451.961C3588.89,-441.278 3656.63,-427.894 3717,-419 3752.35,-413.792 3761.68,-416.386 3797,-411 3893.8,-396.24 4004.48,-372.167 4073.81,-356.205"/>
<polygon fill="black" stroke="black" points="4074.77,-359.574 4083.73,-353.911 4073.2,-352.754 4074.77,-359.574"/>
<text text-anchor="middle" x="3759" y="-422.8" font-family="Times,serif" font-size="14.00">RESPONSE</text>
</g>
<!-- 10.1.80.247:8080#ServerID_OuterContainerID&#45;&gt;1_fwatchdog#ServerID_6df85d7674&#45;2kqrj -->
<g id="edge2" class="edge"><title>10.1.80.247:8080#ServerID_OuterContainerID&#45;&gt;1_fwatchdog#ServerID_6df85d7674&#45;2kqrj</title>
<path fill="none" stroke="black" d="M3465.32,-357.023C3469.52,-375.885 3474.76,-407.183 3471,-434 3470.64,-436.574 3470.14,-439.224 3469.55,-441.859"/>
<polygon fill="black" stroke="black" points="3466.1,-441.198 3466.96,-451.759 3472.87,-442.971 3466.1,-441.198"/>
<text text-anchor="middle" x="3515" y="-422.8" font-family="Times,serif" font-size="14.00">RESPONSE</text>
</g>
<!-- 10.1.80.1:10308#ServerID_OuterContainerID -->
<g id="node23" class="node"><title>10.1.80.1:10308#ServerID_OuterContainerID</title>
<polygon fill="none" stroke="black" points="3354,-226 3035.1,-208 3354,-190 3672.9,-208 3354,-226"/>
<text text-anchor="middle" x="3354" y="-204.3" font-family="Times,serif" font-size="14.00">10.1.80.1:10308#ServerID_OuterContainerID</text>
</g>
<!-- 10.1.80.247:8080#ServerID_OuterContainerID&#45;&gt;10.1.80.1:10308#ServerID_OuterContainerID -->
<g id="edge31" class="edge"><title>10.1.80.247:8080#ServerID_OuterContainerID&#45;&gt;10.1.80.1:10308#ServerID_OuterContainerID</title>
<path fill="none" stroke="black" d="M3379.87,-325.444C3368.57,-320.254 3358.33,-313.03 3351,-303 3336.97,-283.808 3339.87,-256.035 3344.98,-235.653"/>
<polygon fill="black" stroke="black" points="3348.43,-236.328 3347.78,-225.753 3341.69,-234.425 3348.43,-236.328"/>
<text text-anchor="middle" x="3393" y="-291.8" font-family="Times,serif" font-size="14.00">RESPONSE</text>
</g>
<!-- 10.0.88.125:31112#ServerID_OuterContainerID -->
<g id="node24" class="node"><title>10.0.88.125:31112#ServerID_OuterContainerID</title>
<polygon fill="none" stroke="black" points="4026,-226 3690.52,-208 4026,-190 4361.48,-208 4026,-226"/>
<text text-anchor="middle" x="4026" y="-204.3" font-family="Times,serif" font-size="14.00">10.0.88.125:31112#ServerID_OuterContainerID</text>
</g>
<!-- 10.1.80.247:8080#ServerID_OuterContainerID&#45;&gt;10.0.88.125:31112#ServerID_OuterContainerID -->
<g id="edge32" class="edge"><title>10.1.80.247:8080#ServerID_OuterContainerID&#45;&gt;10.0.88.125:31112#ServerID_OuterContainerID</title>
<path fill="none" stroke="black" d="M3521.2,-324.256C3626.5,-300.214 3843.56,-250.655 3955.62,-225.069"/>
<polygon fill="black" stroke="black" points="3956.51,-228.457 3965.48,-222.819 3954.95,-221.633 3956.51,-228.457"/>
<text text-anchor="middle" x="3719" y="-291.8" font-family="Times,serif" font-size="14.00">RESPONSE</text>
</g>
<!-- 10.1.80.247:50688#ServerID_OuterContainerID&#45;&gt;1_fwatchdog#ServerID_6df85d7674&#45;2kqrj -->
<g id="edge3" class="edge"><title>10.1.80.247:50688#ServerID_OuterContainerID&#45;&gt;1_fwatchdog#ServerID_6df85d7674&#45;2kqrj</title>
<path fill="none" stroke="black" d="M4098.41,-354.744C4034.71,-375.69 3912.13,-413.762 3805,-434 3749.05,-444.569 3687.34,-452.111 3631.82,-457.418"/>
<polygon fill="black" stroke="black" points="3631.16,-453.964 3621.53,-458.383 3631.81,-460.934 3631.16,-453.964"/>
<text text-anchor="middle" x="3891" y="-422.8" font-family="Times,serif" font-size="14.00">POST</text>
</g>
<!-- 1_fwatchdog#ServerID_34e86192c217 -->
<g id="node7" class="node"><title>1_fwatchdog#ServerID_34e86192c217</title>
<polygon fill="none" stroke="black" points="315.5,-357 16.5,-357 16.5,-321 315.5,-321 315.5,-357"/>
<text text-anchor="middle" x="166" y="-335.3" font-family="Times,serif" font-size="14.00">1_fwatchdog#ServerID_34e86192c217</text>
</g>
<!-- 10.1.80.247:50688#ServerID_OuterContainerID&#45;&gt;1_fwatchdog#ServerID_34e86192c217 -->
<g id="edge12" class="edge"><title>10.1.80.247:50688#ServerID_OuterContainerID&#45;&gt;1_fwatchdog#ServerID_34e86192c217</title>
<path fill="none" stroke="black" d="M4087.28,-354.066C4019.7,-371.823 3900.92,-400.271 3797,-411 3701.07,-420.904 419.273,-431.35 325,-411 281.596,-401.631 235.786,-379.397 204.545,-362.096"/>
<polygon fill="black" stroke="black" points="206.166,-358.992 195.735,-357.134 202.73,-365.091 206.166,-358.992"/>
<text text-anchor="middle" x="2004" y="-422.8" font-family="Times,serif" font-size="14.00">read</text>
</g>
<!-- 1_fwatchdog#ServerID_5f846fd567&#45;w7nbt -->
<g id="node5" class="node"><title>1_fwatchdog#ServerID_5f846fd567&#45;w7nbt</title>
<polygon fill="none" stroke="black" points="4992,-488 4668,-488 4668,-452 4992,-452 4992,-488"/>
<text text-anchor="middle" x="4830" y="-466.3" font-family="Times,serif" font-size="14.00">1_fwatchdog#ServerID_5f846fd567&#45;w7nbt</text>
</g>
<!-- 10.1.80.247:52664#ServerID_OuterContainerID -->
<g id="node6" class="node"><title>10.1.80.247:52664#ServerID_OuterContainerID</title>
<polygon fill="none" stroke="black" points="4831,-357 4495.52,-339 4831,-321 5166.48,-339 4831,-357"/>
<text text-anchor="middle" x="4831" y="-335.3" font-family="Times,serif" font-size="14.00">10.1.80.247:52664#ServerID_OuterContainerID</text>
</g>
<!-- 1_fwatchdog#ServerID_5f846fd567&#45;w7nbt&#45;&gt;10.1.80.247:52664#ServerID_OuterContainerID -->
<g id="edge5" class="edge"><title>1_fwatchdog#ServerID_5f846fd567&#45;w7nbt&#45;&gt;10.1.80.247:52664#ServerID_OuterContainerID</title>
<path fill="none" stroke="black" d="M4794.26,-451.861C4787.73,-447.032 4781.78,-441.108 4778,-434 4774.87,-428.115 4776.06,-425.378 4778,-419 4784.15,-398.792 4797.38,-379.057 4809.09,-364.367"/>
<polygon fill="black" stroke="black" points="4812.06,-366.27 4815.74,-356.335 4806.67,-361.806 4812.06,-366.27"/>
<text text-anchor="middle" x="4820" y="-422.8" font-family="Times,serif" font-size="14.00">RESPONSE</text>
</g>
<!-- 10.1.80.247:52664#ServerID_OuterContainerID&#45;&gt;1_fwatchdog#ServerID_5f846fd567&#45;w7nbt -->
<g id="edge8" class="edge"><title>10.1.80.247:52664#ServerID_OuterContainerID&#45;&gt;1_fwatchdog#ServerID_5f846fd567&#45;w7nbt</title>
<path fill="none" stroke="black" d="M4843.4,-356.484C4856.03,-375.397 4872.39,-407.248 4862,-434 4860.64,-437.507 4858.74,-440.876 4856.55,-444.046"/>
<polygon fill="black" stroke="black" points="4853.75,-441.944 4850.2,-451.928 4859.2,-446.335 4853.75,-441.944"/>
<text text-anchor="middle" x="4886" y="-422.8" font-family="Times,serif" font-size="14.00">POST</text>
</g>
<!-- 1_fwatchdog#ServerID_e56b6537e2d5 -->
<g id="node15" class="node"><title>1_fwatchdog#ServerID_e56b6537e2d5</title>
<polygon fill="none" stroke="black" points="8082.5,-226 7783.5,-226 7783.5,-190 8082.5,-190 8082.5,-226"/>
<text text-anchor="middle" x="7933" y="-204.3" font-family="Times,serif" font-size="14.00">1_fwatchdog#ServerID_e56b6537e2d5</text>
</g>
<!-- 10.1.80.247:52664#ServerID_OuterContainerID&#45;&gt;1_fwatchdog#ServerID_e56b6537e2d5 -->
<g id="edge23" class="edge"><title>10.1.80.247:52664#ServerID_OuterContainerID&#45;&gt;1_fwatchdog#ServerID_e56b6537e2d5</title>
<path fill="none" stroke="black" d="M4989.41,-329.483C5048.02,-326.52 5115.03,-323.352 5176,-321 5702.04,-300.711 5833.65,-296.823 6360,-288 6399.27,-287.342 7735.61,-288.296 7774,-280 7817.97,-270.498 7864.55,-248.052 7895.84,-230.921"/>
<polygon fill="black" stroke="black" points="7897.61,-233.943 7904.65,-226.021 7894.21,-227.826 7897.61,-233.943"/>
<text text-anchor="middle" x="6376.5" y="-291.8" font-family="Times,serif" font-size="14.00">read</text>
</g>
<!-- localhost:3000#ServerID_34e86192c217 -->
<g id="node8" class="node"><title>localhost:3000#ServerID_34e86192c217</title>
<polygon fill="none" stroke="black" points="303,-226 16.4457,-208 303,-190 589.554,-208 303,-226"/>
<text text-anchor="middle" x="303" y="-204.3" font-family="Times,serif" font-size="14.00">localhost:3000#ServerID_34e86192c217</text>
</g>
<!-- 1_fwatchdog#ServerID_34e86192c217&#45;&gt;localhost:3000#ServerID_34e86192c217 -->
<g id="edge9" class="edge"><title>1_fwatchdog#ServerID_34e86192c217&#45;&gt;localhost:3000#ServerID_34e86192c217</title>
<path fill="none" stroke="black" d="M160.896,-320.68C158.924,-310.503 158.32,-297.761 164,-288 181.32,-258.234 214.502,-238.764 244.102,-226.602"/>
<polygon fill="black" stroke="black" points="245.521,-229.805 253.562,-222.906 242.974,-223.285 245.521,-229.805"/>
<text text-anchor="middle" x="193" y="-291.8" font-family="Times,serif" font-size="14.00">connect</text>
</g>
<!-- 1_fwatchdog#ServerID_34e86192c217&#45;&gt;localhost:3000#ServerID_34e86192c217 -->
<g id="edge10" class="edge"><title>1_fwatchdog#ServerID_34e86192c217&#45;&gt;localhost:3000#ServerID_34e86192c217</title>
<path fill="none" stroke="black" d="M197.096,-320.871C205.537,-315.617 214.43,-309.495 222,-303 246.464,-282.012 270.001,-253.447 285.338,-233.331"/>
<polygon fill="black" stroke="black" points="288.182,-235.373 291.387,-225.274 282.584,-231.169 288.182,-235.373"/>
<text text-anchor="middle" x="256" y="-291.8" font-family="Times,serif" font-size="14.00">write</text>
</g>
<!-- localhost:3000#ServerID_34e86192c217&#45;&gt;1_fwatchdog#ServerID_34e86192c217 -->
<g id="edge11" class="edge"><title>localhost:3000#ServerID_34e86192c217&#45;&gt;1_fwatchdog#ServerID_34e86192c217</title>
<path fill="none" stroke="black" d="M303.383,-226.304C302.888,-247.198 298.846,-282.128 279,-303 274.246,-308 268.794,-312.29 262.908,-315.971"/>
<polygon fill="black" stroke="black" points="261.033,-313.01 254.007,-320.94 264.444,-319.122 261.033,-313.01"/>
<text text-anchor="middle" x="306.5" y="-291.8" font-family="Times,serif" font-size="14.00">read</text>
</g>
<!-- 10_node#ServerID_34e86192c217&#45;&gt;gateway:8080#ServerID_OuterContainerID -->
<g id="edge19" class="edge"><title>10_node#ServerID_34e86192c217&#45;&gt;gateway:8080#ServerID_OuterContainerID</title>
<path fill="none" stroke="black" d="M1015.01,-226.115C1043.41,-243.134 1090,-268.339 1134,-280 1186.53,-293.92 1202.35,-279.404 1256,-288 1303.29,-295.576 1355.83,-309.468 1394.3,-320.689"/>
<polygon fill="black" stroke="black" points="1393.68,-324.155 1404.26,-323.627 1395.66,-317.441 1393.68,-324.155"/>
<text text-anchor="middle" x="1356" y="-291.8" font-family="Times,serif" font-size="14.00">connect</text>
</g>
<!-- pipe:[331683264]#ServerID_34e86192c217 -->
<g id="node10" class="node"><title>pipe:[331683264]#ServerID_34e86192c217</title>
<ellipse fill="none" stroke="black" cx="905" cy="-121" rx="217.162" ry="18"/>
<text text-anchor="middle" x="905" y="-117.3" font-family="Times,serif" font-size="14.00">pipe:[331683264]#ServerID_34e86192c217</text>
</g>
<!-- 10_node#ServerID_34e86192c217&#45;&gt;pipe:[331683264]#ServerID_34e86192c217 -->
<g id="edge13" class="edge"><title>10_node#ServerID_34e86192c217&#45;&gt;pipe:[331683264]#ServerID_34e86192c217</title>
<path fill="none" stroke="black" d="M971.204,-189.799C959.054,-177.356 942.462,-160.364 928.928,-146.504"/>
<polygon fill="black" stroke="black" points="931.262,-143.885 921.771,-139.175 926.254,-148.775 931.262,-143.885"/>
<text text-anchor="middle" x="971" y="-160.8" font-family="Times,serif" font-size="14.00">write</text>
</g>
<!-- 10.152.183.10:53#ServerID_OuterContainerID -->
<g id="node11" class="node"><title>10.152.183.10:53#ServerID_OuterContainerID</title>
<polygon fill="none" stroke="black" points="2789,-357 2461.56,-339 2789,-321 3116.44,-339 2789,-357"/>
<text text-anchor="middle" x="2789" y="-335.3" font-family="Times,serif" font-size="14.00">10.152.183.10:53#ServerID_OuterContainerID</text>
</g>
<!-- 10_node#ServerID_34e86192c217&#45;&gt;10.152.183.10:53#ServerID_OuterContainerID -->
<g id="edge15" class="edge"><title>10_node#ServerID_34e86192c217&#45;&gt;10.152.183.10:53#ServerID_OuterContainerID</title>
<path fill="none" stroke="black" d="M1014.41,-226.105C1042.69,-243.379 1089.53,-269.03 1134,-280 1134,-280 2452,-321 2452,-321 2507.79,-323.275 2568.76,-326.212 2623.31,-329.004"/>
<polygon fill="black" stroke="black" points="2623.25,-332.505 2633.42,-329.523 2623.61,-325.515 2623.25,-332.505"/>
<text text-anchor="middle" x="1896.5" y="-291.8" font-family="Times,serif" font-size="14.00">sendto</text>
</g>
<!-- 10.152.183.10:53#ServerID_OuterContainerID&#45;&gt;10_node#ServerID_34e86192c217 -->
<g id="edge14" class="edge"><title>10.152.183.10:53#ServerID_OuterContainerID&#45;&gt;10_node#ServerID_34e86192c217</title>
<path fill="none" stroke="black" d="M2678.89,-327.022C2551.66,-314.886 2335.94,-295.997 2150,-288 2093.61,-285.575 1188.96,-292.882 1134,-280 1093.64,-270.539 1051.46,-248.513 1022.88,-231.483"/>
<polygon fill="black" stroke="black" points="1024.46,-228.348 1014.1,-226.151 1020.83,-234.332 1024.46,-228.348"/>
<text text-anchor="middle" x="2430" y="-291.8" font-family="Times,serif" font-size="14.00">recvfrom</text>
</g>
<!-- /etc/resolv.conf#ServerID_34e86192c217 -->
<g id="node12" class="node"><title>/etc/resolv.conf#ServerID_34e86192c217</title>
<ellipse fill="none" stroke="black" cx="539" cy="-339" rx="205.264" ry="18"/>
<text text-anchor="middle" x="539" y="-335.3" font-family="Times,serif" font-size="14.00">/etc/resolv.conf#ServerID_34e86192c217</text>
</g>
<!-- /etc/resolv.conf#ServerID_34e86192c217&#45;&gt;10_node#ServerID_34e86192c217 -->
<g id="edge16" class="edge"><title>/etc/resolv.conf#ServerID_34e86192c217&#45;&gt;10_node#ServerID_34e86192c217</title>
<path fill="none" stroke="black" d="M595.866,-321.662C678.203,-298.006 830.432,-254.27 919.054,-228.809"/>
<polygon fill="black" stroke="black" points="920.101,-232.149 928.745,-226.024 918.168,-225.422 920.101,-232.149"/>
<text text-anchor="middle" x="727.5" y="-291.8" font-family="Times,serif" font-size="14.00">read</text>
</g>
<!-- /etc/hosts#ServerID_34e86192c217 -->
<g id="node13" class="node"><title>/etc/hosts#ServerID_34e86192c217</title>
<ellipse fill="none" stroke="black" cx="942" cy="-339" rx="180.068" ry="18"/>
<text text-anchor="middle" x="942" y="-335.3" font-family="Times,serif" font-size="14.00">/etc/hosts#ServerID_34e86192c217</text>
</g>
<!-- /etc/hosts#ServerID_34e86192c217&#45;&gt;10_node#ServerID_34e86192c217 -->
<g id="edge17" class="edge"><title>/etc/hosts#ServerID_34e86192c217&#45;&gt;10_node#ServerID_34e86192c217</title>
<path fill="none" stroke="black" d="M948.108,-320.87C955.876,-299.088 969.37,-261.244 978.49,-235.67"/>
<polygon fill="black" stroke="black" points="981.804,-236.796 981.866,-226.201 975.211,-234.445 981.804,-236.796"/>
<text text-anchor="middle" x="976.5" y="-291.8" font-family="Times,serif" font-size="14.00">read</text>
</g>
<!-- 10.1.80.247:52666#ServerID_OuterContainerID -->
<g id="node14" class="node"><title>10.1.80.247:52666#ServerID_OuterContainerID</title>
<polygon fill="none" stroke="black" points="5520,-357 5184.52,-339 5520,-321 5855.48,-339 5520,-357"/>
<text text-anchor="middle" x="5520" y="-335.3" font-family="Times,serif" font-size="14.00">10.1.80.247:52666#ServerID_OuterContainerID</text>
</g>
<!-- 10.1.80.247:52666#ServerID_OuterContainerID&#45;&gt;1_fwatchdog#ServerID_e56b6537e2d5 -->
<g id="edge18" class="edge"><title>10.1.80.247:52666#ServerID_OuterContainerID&#45;&gt;1_fwatchdog#ServerID_e56b6537e2d5</title>
<path fill="none" stroke="black" d="M5677.98,-329.473C5736.69,-326.499 5803.88,-323.328 5865,-321 6410.14,-300.241 6546.57,-298.533 7092,-288 7129.88,-287.268 7736.99,-288.116 7774,-280 7817.81,-270.394 7864.24,-248.077 7895.54,-231.008"/>
<polygon fill="black" stroke="black" points="7897.3,-234.033 7904.35,-226.124 7893.91,-227.911 7897.3,-234.033"/>
<text text-anchor="middle" x="7108.5" y="-291.8" font-family="Times,serif" font-size="14.00">read</text>
</g>
<!-- localhost:3000#ServerID_e56b6537e2d5 -->
<g id="node16" class="node"><title>localhost:3000#ServerID_e56b6537e2d5</title>
<polygon fill="none" stroke="black" points="7829,-139 7542.45,-121 7829,-103 8115.55,-121 7829,-139"/>
<text text-anchor="middle" x="7829" y="-117.3" font-family="Times,serif" font-size="14.00">localhost:3000#ServerID_e56b6537e2d5</text>
</g>
<!-- 1_fwatchdog#ServerID_e56b6537e2d5&#45;&gt;localhost:3000#ServerID_e56b6537e2d5 -->
<g id="edge21" class="edge"><title>1_fwatchdog#ServerID_e56b6537e2d5&#45;&gt;localhost:3000#ServerID_e56b6537e2d5</title>
<path fill="none" stroke="black" d="M7831.17,-189.844C7823.43,-185.159 7816.5,-179.303 7811,-172 7805.54,-164.749 7806.93,-155.684 7810.72,-147.272"/>
<polygon fill="black" stroke="black" points="7813.79,-148.961 7815.56,-138.516 7807.66,-145.574 7813.79,-148.961"/>
<text text-anchor="middle" x="7840" y="-160.8" font-family="Times,serif" font-size="14.00">connect</text>
</g>
<!-- 1_fwatchdog#ServerID_e56b6537e2d5&#45;&gt;localhost:3000#ServerID_e56b6537e2d5 -->
<g id="edge22" class="edge"><title>1_fwatchdog#ServerID_e56b6537e2d5&#45;&gt;localhost:3000#ServerID_e56b6537e2d5</title>
<path fill="none" stroke="black" d="M7910.42,-189.737C7903.21,-184.141 7895.22,-177.865 7888,-172 7877.14,-163.185 7865.35,-153.266 7855.19,-144.6"/>
<polygon fill="black" stroke="black" points="7857.31,-141.807 7847.43,-137.965 7852.76,-147.125 7857.31,-141.807"/>
<text text-anchor="middle" x="7907" y="-160.8" font-family="Times,serif" font-size="14.00">write</text>
</g>
<!-- localhost:3000#ServerID_e56b6537e2d5&#45;&gt;1_fwatchdog#ServerID_e56b6537e2d5 -->
<g id="edge20" class="edge"><title>localhost:3000#ServerID_e56b6537e2d5&#45;&gt;1_fwatchdog#ServerID_e56b6537e2d5</title>
<path fill="none" stroke="black" d="M7900.07,-134.632C7911.68,-139.759 7922.38,-146.943 7930,-157 7934.82,-163.361 7936.57,-171.587 7936.83,-179.525"/>
<polygon fill="black" stroke="black" points="7933.33,-179.485 7936.45,-189.61 7940.33,-179.75 7933.33,-179.485"/>
<text text-anchor="middle" x="7952.5" y="-160.8" font-family="Times,serif" font-size="14.00">read</text>
</g>
<!-- 10.1.80.247:52662#ServerID_OuterContainerID -->
<g id="node17" class="node"><title>10.1.80.247:52662#ServerID_OuterContainerID</title>
<polygon fill="none" stroke="black" points="6209,-357 5873.52,-339 6209,-321 6544.48,-339 6209,-357"/>
<text text-anchor="middle" x="6209" y="-335.3" font-family="Times,serif" font-size="14.00">10.1.80.247:52662#ServerID_OuterContainerID</text>
</g>
<!-- 10.1.80.247:52662#ServerID_OuterContainerID&#45;&gt;1_fwatchdog#ServerID_e56b6537e2d5 -->
<g id="edge24" class="edge"><title>10.1.80.247:52662#ServerID_OuterContainerID&#45;&gt;1_fwatchdog#ServerID_e56b6537e2d5</title>
<path fill="none" stroke="black" d="M6369.15,-329.587C6427.35,-326.667 6493.63,-323.501 6554,-321 6570.94,-320.298 7757.48,-283.812 7774,-280 7817.57,-269.947 7863.86,-247.811 7895.2,-230.91"/>
<polygon fill="black" stroke="black" points="7896.93,-233.95 7904.02,-226.075 7893.57,-227.811 7896.93,-233.95"/>
<text text-anchor="middle" x="7580.5" y="-291.8" font-family="Times,serif" font-size="14.00">read</text>
</g>
<!-- 10.1.80.247:52670#ServerID_OuterContainerID -->
<g id="node18" class="node"><title>10.1.80.247:52670#ServerID_OuterContainerID</title>
<polygon fill="none" stroke="black" points="6898,-357 6562.52,-339 6898,-321 7233.48,-339 6898,-357"/>
<text text-anchor="middle" x="6898" y="-335.3" font-family="Times,serif" font-size="14.00">10.1.80.247:52670#ServerID_OuterContainerID</text>
</g>
<!-- 10.1.80.247:52670#ServerID_OuterContainerID&#45;&gt;1_fwatchdog#ServerID_e56b6537e2d5 -->
<g id="edge25" class="edge"><title>10.1.80.247:52670#ServerID_OuterContainerID&#45;&gt;1_fwatchdog#ServerID_e56b6537e2d5</title>
<path fill="none" stroke="black" d="M7112.09,-332.467C7330.27,-325.281 7653.25,-309.94 7774,-280 7817.13,-269.306 7863.15,-247.485 7894.52,-230.84"/>
<polygon fill="black" stroke="black" points="7896.22,-233.901 7903.37,-226.078 7892.91,-227.737 7896.22,-233.901"/>
<text text-anchor="middle" x="7750.5" y="-291.8" font-family="Times,serif" font-size="14.00">read</text>
</g>
<!-- 10.1.80.247:50734#ServerID_OuterContainerID -->
<g id="node19" class="node"><title>10.1.80.247:50734#ServerID_OuterContainerID</title>
<polygon fill="none" stroke="black" points="2108,-357 1772.52,-339 2108,-321 2443.48,-339 2108,-357"/>
<text text-anchor="middle" x="2108" y="-335.3" font-family="Times,serif" font-size="14.00">10.1.80.247:50734#ServerID_OuterContainerID</text>
</g>
<!-- 10.1.80.247:50734#ServerID_OuterContainerID&#45;&gt;1_fwatchdog#ServerID_34e86192c217 -->
<g id="edge26" class="edge"><title>10.1.80.247:50734#ServerID_OuterContainerID&#45;&gt;1_fwatchdog#ServerID_34e86192c217</title>
<path fill="none" stroke="black" d="M2053.28,-354.066C1985.7,-371.823 1866.92,-400.271 1763,-411 1604.07,-427.408 481.18,-444.714 325,-411 281.596,-401.631 235.786,-379.397 204.545,-362.096"/>
<polygon fill="black" stroke="black" points="206.166,-358.992 195.735,-357.134 202.73,-365.091 206.166,-358.992"/>
<text text-anchor="middle" x="1693" y="-422.8" font-family="Times,serif" font-size="14.00">read</text>
</g>
<!-- 12_node#ServerID_e56b6537e2d5 -->
<g id="node20" class="node"><title>12_node#ServerID_e56b6537e2d5</title>
<polygon fill="none" stroke="black" points="7524.5,-139 7257.5,-139 7257.5,-103 7524.5,-103 7524.5,-139"/>
<text text-anchor="middle" x="7391" y="-117.3" font-family="Times,serif" font-size="14.00">12_node#ServerID_e56b6537e2d5</text>
</g>
<!-- pipe:[331682415]#ServerID_e56b6537e2d5 -->
<g id="node21" class="node"><title>pipe:[331682415]#ServerID_e56b6537e2d5</title>
<ellipse fill="none" stroke="black" cx="7474" cy="-34" rx="217.162" ry="18"/>
<text text-anchor="middle" x="7474" y="-30.3" font-family="Times,serif" font-size="14.00">pipe:[331682415]#ServerID_e56b6537e2d5</text>
</g>
<!-- 12_node#ServerID_e56b6537e2d5&#45;&gt;pipe:[331682415]#ServerID_e56b6537e2d5 -->
<g id="edge27" class="edge"><title>12_node#ServerID_e56b6537e2d5&#45;&gt;pipe:[331682415]#ServerID_e56b6537e2d5</title>
<path fill="none" stroke="black" d="M7407.8,-102.799C7419.95,-90.3561 7436.54,-73.3644 7450.07,-59.5044"/>
<polygon fill="black" stroke="black" points="7452.75,-61.7755 7457.23,-52.1754 7447.74,-56.885 7452.75,-61.7755"/>
<text text-anchor="middle" x="7457" y="-73.8" font-family="Times,serif" font-size="14.00">write</text>
</g>
<!-- /home/app/credentials.txt#ServerID_e56b6537e2d5 -->
<g id="node22" class="node"><title>/home/app/credentials.txt#ServerID_e56b6537e2d5</title>
<ellipse fill="none" stroke="black" cx="7511" cy="-208" rx="254.255" ry="18"/>
<text text-anchor="middle" x="7511" y="-204.3" font-family="Times,serif" font-size="14.00">/home/app/credentials.txt#ServerID_e56b6537e2d5</text>
</g>
<!-- /home/app/credentials.txt#ServerID_e56b6537e2d5&#45;&gt;12_node#ServerID_e56b6537e2d5 -->
<g id="edge28" class="edge"><title>/home/app/credentials.txt#ServerID_e56b6537e2d5&#45;&gt;12_node#ServerID_e56b6537e2d5</title>
<path fill="none" stroke="black" d="M7487,-190.003C7468.81,-177.116 7443.61,-159.265 7423.59,-145.085"/>
<polygon fill="black" stroke="black" points="7425.55,-142.183 7415.37,-139.259 7421.5,-147.895 7425.55,-142.183"/>
<text text-anchor="middle" x="7475.5" y="-160.8" font-family="Times,serif" font-size="14.00">read</text>
</g>
<!-- 10.1.80.1:10308#ServerID_OuterContainerID&#45;&gt;10.1.80.247:8080#ServerID_OuterContainerID -->
<g id="edge30" class="edge"><title>10.1.80.1:10308#ServerID_OuterContainerID&#45;&gt;10.1.80.247:8080#ServerID_OuterContainerID</title>
<path fill="none" stroke="black" d="M3375.53,-224.876C3394.26,-239.569 3421.13,-262.882 3439,-288 3444.08,-295.143 3448.36,-303.645 3451.75,-311.594"/>
<polygon fill="black" stroke="black" points="3448.5,-312.889 3455.45,-320.887 3455.01,-310.302 3448.5,-312.889"/>
<text text-anchor="middle" x="3468" y="-291.8" font-family="Times,serif" font-size="14.00">POST</text>
</g>
</g>
</svg>
