<?xml version="1.0" encoding="UTF-8" standalone="no"?>
<!DOCTYPE svg PUBLIC "-//W3C//DTD SVG 1.1//EN"
 "http://www.w3.org/Graphics/SVG/1.1/DTD/svg11.dtd">
<!-- Generated by graphviz version 2.38.0 (20140413.2041)
 -->
<!-- Title: G Pages: 1 -->
<svg width="4391pt" height="1032pt"
 viewBox="0.00 0.00 4391.00 1032.00" xmlns="http://www.w3.org/2000/svg" xmlns:xlink="http://www.w3.org/1999/xlink">
<g id="graph0" class="graph" transform="scale(1 1) rotate(0) translate(4 1028)">
<title>G</title>
<polygon fill="white" stroke="none" points="-4,4 -4,-1028 4387,-1028 4387,4 -4,4"/>
<g id="clust1" class="cluster"><title>clusterServerID_2347d2f455dd</title>
<polygon fill="none" stroke="black" points="2299,-746 2299,-1016 3687,-1016 3687,-746 2299,-746"/>
<text text-anchor="middle" x="2993" y="-1000.8" font-family="Times,serif" font-size="14.00">clusterServerID_2347d2f455dd</text>
</g>
<g id="clust2" class="cluster"><title>clusterServerID_5f846fd567&#45;g8dn6</title>
<polygon fill="none" stroke="black" points="1951,-746 1951,-821 2291,-821 2291,-746 1951,-746"/>
<text text-anchor="middle" x="2121" y="-805.8" font-family="Times,serif" font-size="14.00">clusterServerID_5f846fd567&#45;g8dn6</text>
</g>
<g id="clust3" class="cluster"><title>clusterServerID_6df85d7674&#45;f2xxt</title>
<polygon fill="none" stroke="black" points="832,-746 832,-821 1168,-821 1168,-746 832,-746"/>
<text text-anchor="middle" x="1000" y="-805.8" font-family="Times,serif" font-size="14.00">clusterServerID_6df85d7674&#45;f2xxt</text>
</g>
<g id="clust4" class="cluster"><title>clusterServerID_7cf8268e6ab5</title>
<polygon fill="none" stroke="black" points="3312,-8 3312,-605 4375,-605 4375,-8 3312,-8"/>
<text text-anchor="middle" x="3843.5" y="-589.8" font-family="Times,serif" font-size="14.00">clusterServerID_7cf8268e6ab5</text>
</g>
<g id="clust5" class="cluster"><title>clusterServerID_OuterContainerID</title>
<polygon fill="none" stroke="black" points="8,-530 8,-713 3304,-713 3304,-530 8,-530"/>
<text text-anchor="middle" x="1656" y="-697.8" font-family="Times,serif" font-size="14.00">clusterServerID_OuterContainerID</text>
</g>
<!-- 1_fwatchdog#ServerID_6df85d7674&#45;f2xxt -->
<g id="node1" class="node"><title>1_fwatchdog#ServerID_6df85d7674&#45;f2xxt</title>
<polygon fill="none" stroke="black" points="1160,-790 840,-790 840,-754 1160,-754 1160,-790"/>
<text text-anchor="middle" x="1000" y="-768.3" font-family="Times,serif" font-size="14.00">1_fwatchdog#ServerID_6df85d7674&#45;f2xxt</text>
</g>
<!-- 10.1.80.93:8080#ServerID_OuterContainerID -->
<g id="node2" class="node"><title>10.1.80.93:8080#ServerID_OuterContainerID</title>
<polygon fill="none" stroke="black" points="335,-682 16.1049,-664 335,-646 653.895,-664 335,-682"/>
<text text-anchor="middle" x="335" y="-660.3" font-family="Times,serif" font-size="14.00">10.1.80.93:8080#ServerID_OuterContainerID</text>
</g>
<!-- 1_fwatchdog#ServerID_6df85d7674&#45;f2xxt&#45;&gt;10.1.80.93:8080#ServerID_OuterContainerID -->
<g id="edge1" class="edge"><title>1_fwatchdog#ServerID_6df85d7674&#45;f2xxt&#45;&gt;10.1.80.93:8080#ServerID_OuterContainerID</title>
<path fill="none" stroke="black" d="M839.907,-769.942C748.288,-766.642 631.694,-757.862 530,-736 475.772,-724.342 416.244,-701.028 377.403,-684.294"/>
<polygon fill="black" stroke="black" points="378.555,-680.978 367.989,-680.192 375.759,-687.395 378.555,-680.978"/>
<text text-anchor="middle" x="550" y="-724.8" font-family="Times,serif" font-size="14.00">POST</text>
</g>
<!-- 10.1.80.93:53738#ServerID_OuterContainerID -->
<g id="node5" class="node"><title>10.1.80.93:53738#ServerID_OuterContainerID</title>
<polygon fill="none" stroke="black" points="999,-682 671.56,-664 999,-646 1326.44,-664 999,-682"/>
<text text-anchor="middle" x="999" y="-660.3" font-family="Times,serif" font-size="14.00">10.1.80.93:53738#ServerID_OuterContainerID</text>
</g>
<!-- 1_fwatchdog#ServerID_6df85d7674&#45;f2xxt&#45;&gt;10.1.80.93:53738#ServerID_OuterContainerID -->
<g id="edge6" class="edge"><title>1_fwatchdog#ServerID_6df85d7674&#45;f2xxt&#45;&gt;10.1.80.93:53738#ServerID_OuterContainerID</title>
<path fill="none" stroke="black" d="M960.028,-753.856C953.202,-749.092 947.025,-743.195 943,-736 933.054,-718.221 947.58,-700.223 964.324,-686.797"/>
<polygon fill="black" stroke="black" points="966.709,-689.383 972.625,-680.594 962.519,-683.776 966.709,-689.383"/>
<text text-anchor="middle" x="985" y="-724.8" font-family="Times,serif" font-size="14.00">RESPONSE</text>
</g>
<!-- gateway:8080#ServerID_OuterContainerID -->
<g id="node6" class="node"><title>gateway:8080#ServerID_OuterContainerID</title>
<polygon fill="none" stroke="black" points="1648,-682 1343.52,-664 1648,-646 1952.48,-664 1648,-682"/>
<text text-anchor="middle" x="1648" y="-660.3" font-family="Times,serif" font-size="14.00">gateway:8080#ServerID_OuterContainerID</text>
</g>
<!-- 1_fwatchdog#ServerID_6df85d7674&#45;f2xxt&#45;&gt;gateway:8080#ServerID_OuterContainerID -->
<g id="edge7" class="edge"><title>1_fwatchdog#ServerID_6df85d7674&#45;f2xxt&#45;&gt;gateway:8080#ServerID_OuterContainerID</title>
<path fill="none" stroke="black" d="M1086.48,-753.954C1140.07,-743.691 1210.39,-730.765 1273,-721 1300.45,-716.718 1307.49,-716.884 1335,-713 1411.06,-702.263 1497.33,-688.947 1560.01,-679.067"/>
<polygon fill="black" stroke="black" points="1560.92,-682.466 1570.26,-677.45 1559.83,-675.552 1560.92,-682.466"/>
<text text-anchor="middle" x="1293" y="-724.8" font-family="Times,serif" font-size="14.00">POST</text>
</g>
<!-- 10.1.80.93:8080#ServerID_OuterContainerID&#45;&gt;1_fwatchdog#ServerID_6df85d7674&#45;f2xxt -->
<g id="edge8" class="edge"><title>10.1.80.93:8080#ServerID_OuterContainerID&#45;&gt;1_fwatchdog#ServerID_6df85d7674&#45;f2xxt</title>
<path fill="none" stroke="black" d="M413.96,-677.586C530.254,-696.123 748.351,-730.888 883.192,-752.381"/>
<polygon fill="black" stroke="black" points="882.73,-755.851 893.156,-753.969 883.832,-748.939 882.73,-755.851"/>
<text text-anchor="middle" x="808" y="-724.8" font-family="Times,serif" font-size="14.00">RESPONSE</text>
</g>
<!-- 10.1.80.1:38850#ServerID_OuterContainerID -->
<g id="node24" class="node"><title>10.1.80.1:38850#ServerID_OuterContainerID</title>
<polygon fill="none" stroke="black" points="1023,-574 704.105,-556 1023,-538 1341.9,-556 1023,-574"/>
<text text-anchor="middle" x="1023" y="-552.3" font-family="Times,serif" font-size="14.00">10.1.80.1:38850#ServerID_OuterContainerID</text>
</g>
<!-- 10.1.80.93:8080#ServerID_OuterContainerID&#45;&gt;10.1.80.1:38850#ServerID_OuterContainerID -->
<g id="edge35" class="edge"><title>10.1.80.93:8080#ServerID_OuterContainerID&#45;&gt;10.1.80.1:38850#ServerID_OuterContainerID</title>
<path fill="none" stroke="black" d="M387.541,-648.899C433.073,-637.277 500.903,-621.388 561,-613 620.089,-604.753 635.651,-611.103 695,-605 778.042,-596.461 872.284,-582.188 938.372,-571.42"/>
<polygon fill="black" stroke="black" points="939.019,-574.861 948.322,-569.791 937.888,-567.953 939.019,-574.861"/>
<text text-anchor="middle" x="603" y="-616.8" font-family="Times,serif" font-size="14.00">RESPONSE</text>
</g>
<!-- 10.0.88.125:31112#ServerID_OuterContainerID -->
<g id="node25" class="node"><title>10.0.88.125:31112#ServerID_OuterContainerID</title>
<polygon fill="none" stroke="black" points="351,-574 15.5152,-556 351,-538 686.485,-556 351,-574"/>
<text text-anchor="middle" x="351" y="-552.3" font-family="Times,serif" font-size="14.00">10.0.88.125:31112#ServerID_OuterContainerID</text>
</g>
<!-- 10.1.80.93:8080#ServerID_OuterContainerID&#45;&gt;10.0.88.125:31112#ServerID_OuterContainerID -->
<g id="edge36" class="edge"><title>10.1.80.93:8080#ServerID_OuterContainerID&#45;&gt;10.0.88.125:31112#ServerID_OuterContainerID</title>
<path fill="none" stroke="black" d="M337.571,-645.969C340.09,-629.279 343.969,-603.579 346.912,-584.084"/>
<polygon fill="black" stroke="black" points="350.404,-584.399 348.436,-573.988 343.482,-583.354 350.404,-584.399"/>
<text text-anchor="middle" x="385" y="-616.8" font-family="Times,serif" font-size="14.00">RESPONSE</text>
</g>
<!-- 1_fwatchdog#ServerID_5f846fd567&#45;g8dn6 -->
<g id="node3" class="node"><title>1_fwatchdog#ServerID_5f846fd567&#45;g8dn6</title>
<polygon fill="none" stroke="black" points="2283,-790 1959,-790 1959,-754 2283,-754 2283,-790"/>
<text text-anchor="middle" x="2121" y="-768.3" font-family="Times,serif" font-size="14.00">1_fwatchdog#ServerID_5f846fd567&#45;g8dn6</text>
</g>
<!-- 10.1.80.93:45748#ServerID_OuterContainerID -->
<g id="node4" class="node"><title>10.1.80.93:45748#ServerID_OuterContainerID</title>
<polygon fill="none" stroke="black" points="2297,-682 1969.56,-664 2297,-646 2624.44,-664 2297,-682"/>
<text text-anchor="middle" x="2297" y="-660.3" font-family="Times,serif" font-size="14.00">10.1.80.93:45748#ServerID_OuterContainerID</text>
</g>
<!-- 1_fwatchdog#ServerID_5f846fd567&#45;g8dn6&#45;&gt;10.1.80.93:45748#ServerID_OuterContainerID -->
<g id="edge2" class="edge"><title>1_fwatchdog#ServerID_5f846fd567&#45;g8dn6&#45;&gt;10.1.80.93:45748#ServerID_OuterContainerID</title>
<path fill="none" stroke="black" d="M2140.35,-753.889C2152.42,-743.664 2168.56,-730.801 2184,-721 2205.74,-707.204 2231.35,-694.266 2252.69,-684.308"/>
<polygon fill="black" stroke="black" points="2254.24,-687.45 2261.86,-680.091 2251.31,-681.091 2254.24,-687.45"/>
<text text-anchor="middle" x="2226" y="-724.8" font-family="Times,serif" font-size="14.00">RESPONSE</text>
</g>
<!-- 10.1.80.93:45748#ServerID_OuterContainerID&#45;&gt;1_fwatchdog#ServerID_5f846fd567&#45;g8dn6 -->
<g id="edge4" class="edge"><title>10.1.80.93:45748#ServerID_OuterContainerID&#45;&gt;1_fwatchdog#ServerID_5f846fd567&#45;g8dn6</title>
<path fill="none" stroke="black" d="M2294.59,-681.923C2291.37,-698.173 2284.08,-722.226 2268,-736 2261.98,-741.16 2255.33,-745.59 2248.28,-749.39"/>
<polygon fill="black" stroke="black" points="2246.59,-746.32 2239.16,-753.873 2249.68,-752.602 2246.59,-746.32"/>
<text text-anchor="middle" x="2300" y="-724.8" font-family="Times,serif" font-size="14.00">POST</text>
</g>
<!-- 1_fwatchdog#ServerID_7cf8268e6ab5 -->
<g id="node13" class="node"><title>1_fwatchdog#ServerID_7cf8268e6ab5</title>
<polygon fill="none" stroke="black" points="3753,-574 3459,-574 3459,-538 3753,-538 3753,-574"/>
<text text-anchor="middle" x="3606" y="-552.3" font-family="Times,serif" font-size="14.00">1_fwatchdog#ServerID_7cf8268e6ab5</text>
</g>
<!-- 10.1.80.93:45748#ServerID_OuterContainerID&#45;&gt;1_fwatchdog#ServerID_7cf8268e6ab5 -->
<g id="edge18" class="edge"><title>10.1.80.93:45748#ServerID_OuterContainerID&#45;&gt;1_fwatchdog#ServerID_7cf8268e6ab5</title>
<path fill="none" stroke="black" d="M2456.5,-654.75C2720.13,-640.979 3225.94,-613.939 3308,-605 3374.1,-597.8 3447.88,-585.946 3505.49,-575.82"/>
<polygon fill="black" stroke="black" points="3506.45,-579.204 3515.69,-574.016 3505.23,-572.311 3506.45,-579.204"/>
<text text-anchor="middle" x="3217.5" y="-616.8" font-family="Times,serif" font-size="14.00">read</text>
</g>
<!-- 10.1.80.93:53738#ServerID_OuterContainerID&#45;&gt;1_fwatchdog#ServerID_6df85d7674&#45;f2xxt -->
<g id="edge3" class="edge"><title>10.1.80.93:53738#ServerID_OuterContainerID&#45;&gt;1_fwatchdog#ServerID_6df85d7674&#45;f2xxt</title>
<path fill="none" stroke="black" d="M1011.58,-681.633C1018.82,-692.272 1027.21,-706.714 1031,-721 1032.71,-727.443 1033.36,-729.766 1031,-736 1029.72,-739.366 1027.96,-742.615 1025.91,-745.689"/>
<polygon fill="black" stroke="black" points="1022.96,-743.789 1019.58,-753.831 1028.48,-748.087 1022.96,-743.789"/>
<text text-anchor="middle" x="1053" y="-724.8" font-family="Times,serif" font-size="14.00">POST</text>
</g>
<!-- 1_fwatchdog#ServerID_2347d2f455dd -->
<g id="node7" class="node"><title>1_fwatchdog#ServerID_2347d2f455dd</title>
<polygon fill="none" stroke="black" points="2808,-985 2512,-985 2512,-949 2808,-949 2808,-985"/>
<text text-anchor="middle" x="2660" y="-963.3" font-family="Times,serif" font-size="14.00">1_fwatchdog#ServerID_2347d2f455dd</text>
</g>
<!-- 10.1.80.93:53738#ServerID_OuterContainerID&#45;&gt;1_fwatchdog#ServerID_2347d2f455dd -->
<g id="edge12" class="edge"><title>10.1.80.93:53738#ServerID_OuterContainerID&#45;&gt;1_fwatchdog#ServerID_2347d2f455dd</title>
<path fill="none" stroke="black" d="M1070.46,-678.112C1138.27,-689.863 1243.18,-706.256 1335,-713 1428.75,-719.885 2933.54,-710.919 3027,-721 3325.65,-753.213 3499.04,-628.487 3688,-862 3698.06,-874.438 3698.93,-886.319 3688,-898 3658.78,-929.219 3099.41,-951.746 2818.37,-961.143"/>
<polygon fill="black" stroke="black" points="2817.96,-957.655 2808.08,-961.485 2818.19,-964.651 2817.96,-957.655"/>
<text text-anchor="middle" x="3686.5" y="-832.8" font-family="Times,serif" font-size="14.00">read</text>
</g>
<!-- gateway:8080#ServerID_OuterContainerID&#45;&gt;1_fwatchdog#ServerID_6df85d7674&#45;f2xxt -->
<g id="edge5" class="edge"><title>gateway:8080#ServerID_OuterContainerID&#45;&gt;1_fwatchdog#ServerID_6df85d7674&#45;f2xxt</title>
<path fill="none" stroke="black" d="M1592.4,-678.733C1526.89,-694.489 1414.61,-720.184 1317,-736 1269.55,-743.689 1217.82,-750.188 1170.17,-755.421"/>
<polygon fill="black" stroke="black" points="1169.63,-751.959 1160.07,-756.518 1170.39,-758.918 1169.63,-751.959"/>
<text text-anchor="middle" x="1442" y="-724.8" font-family="Times,serif" font-size="14.00">RESPONSE</text>
</g>
<!-- localhost:3000#ServerID_2347d2f455dd -->
<g id="node8" class="node"><title>localhost:3000#ServerID_2347d2f455dd</title>
<polygon fill="none" stroke="black" points="2592,-898 2307.12,-880 2592,-862 2876.88,-880 2592,-898"/>
<text text-anchor="middle" x="2592" y="-876.3" font-family="Times,serif" font-size="14.00">localhost:3000#ServerID_2347d2f455dd</text>
</g>
<!-- 1_fwatchdog#ServerID_2347d2f455dd&#45;&gt;localhost:3000#ServerID_2347d2f455dd -->
<g id="edge9" class="edge"><title>1_fwatchdog#ServerID_2347d2f455dd&#45;&gt;localhost:3000#ServerID_2347d2f455dd</title>
<path fill="none" stroke="black" d="M2638.59,-948.951C2632.52,-943.566 2626.16,-937.354 2621,-931 2614.93,-923.532 2609.34,-914.642 2604.72,-906.443"/>
<polygon fill="black" stroke="black" points="2607.77,-904.731 2599.94,-897.594 2601.61,-908.056 2607.77,-904.731"/>
<text text-anchor="middle" x="2650" y="-919.8" font-family="Times,serif" font-size="14.00">connect</text>
</g>
<!-- 1_fwatchdog#ServerID_2347d2f455dd&#45;&gt;localhost:3000#ServerID_2347d2f455dd -->
<g id="edge11" class="edge"><title>1_fwatchdog#ServerID_2347d2f455dd&#45;&gt;localhost:3000#ServerID_2347d2f455dd</title>
<path fill="none" stroke="black" d="M2674.19,-948.856C2680.75,-938.741 2685.76,-926.003 2679,-916 2674.45,-909.265 2668.37,-903.826 2661.52,-899.434"/>
<polygon fill="black" stroke="black" points="2662.94,-896.217 2652.5,-894.411 2659.53,-902.333 2662.94,-896.217"/>
<text text-anchor="middle" x="2702" y="-919.8" font-family="Times,serif" font-size="14.00">write</text>
</g>
<!-- localhost:3000#ServerID_2347d2f455dd&#45;&gt;1_fwatchdog#ServerID_2347d2f455dd -->
<g id="edge10" class="edge"><title>localhost:3000#ServerID_2347d2f455dd&#45;&gt;1_fwatchdog#ServerID_2347d2f455dd</title>
<path fill="none" stroke="black" d="M2578.93,-897.254C2572.36,-907.524 2567.1,-920.742 2574,-931 2577.02,-935.483 2580.72,-939.392 2584.87,-942.8"/>
<polygon fill="black" stroke="black" points="2583.16,-945.876 2593.35,-948.757 2587.18,-940.147 2583.16,-945.876"/>
<text text-anchor="middle" x="2590.5" y="-919.8" font-family="Times,serif" font-size="14.00">read</text>
</g>
<!-- 13_node#ServerID_2347d2f455dd -->
<g id="node9" class="node"><title>13_node#ServerID_2347d2f455dd</title>
<polygon fill="none" stroke="black" points="3071.5,-790 2806.5,-790 2806.5,-754 3071.5,-754 3071.5,-790"/>
<text text-anchor="middle" x="2939" y="-768.3" font-family="Times,serif" font-size="14.00">13_node#ServerID_2347d2f455dd</text>
</g>
<!-- localhost:3000#ServerID_2347d2f455dd&#45;&gt;13_node#ServerID_2347d2f455dd -->
<g id="edge13" class="edge"><title>localhost:3000#ServerID_2347d2f455dd&#45;&gt;13_node#ServerID_2347d2f455dd</title>
<path fill="none" stroke="black" d="M2638.44,-864.814C2698.81,-846.371 2804.63,-814.047 2873.24,-793.088"/>
<polygon fill="black" stroke="black" points="2874.54,-796.35 2883.08,-790.082 2872.5,-789.656 2874.54,-796.35"/>
<text text-anchor="middle" x="2772.5" y="-832.8" font-family="Times,serif" font-size="14.00">read</text>
</g>
<!-- 13_node#ServerID_2347d2f455dd&#45;&gt;gateway:8080#ServerID_OuterContainerID -->
<g id="edge19" class="edge"><title>13_node#ServerID_2347d2f455dd&#45;&gt;gateway:8080#ServerID_OuterContainerID</title>
<path fill="none" stroke="black" d="M2806.29,-757.932C2681.83,-746.218 2490.49,-729.595 2324,-721 2162.84,-712.68 2121.76,-727.038 1961,-713 1880.29,-705.952 1788.78,-691.113 1725.65,-679.788"/>
<polygon fill="black" stroke="black" points="1726.23,-676.336 1715.77,-678.002 1724.99,-683.224 1726.23,-676.336"/>
<text text-anchor="middle" x="2574" y="-724.8" font-family="Times,serif" font-size="14.00">connect</text>
</g>
<!-- 10.152.183.10:53#ServerID_OuterContainerID -->
<g id="node12" class="node"><title>10.152.183.10:53#ServerID_OuterContainerID</title>
<polygon fill="none" stroke="black" points="2969,-682 2641.56,-664 2969,-646 3296.44,-664 2969,-682"/>
<text text-anchor="middle" x="2969" y="-660.3" font-family="Times,serif" font-size="14.00">10.152.183.10:53#ServerID_OuterContainerID</text>
</g>
<!-- 13_node#ServerID_2347d2f455dd&#45;&gt;10.152.183.10:53#ServerID_OuterContainerID -->
<g id="edge16" class="edge"><title>13_node#ServerID_2347d2f455dd&#45;&gt;10.152.183.10:53#ServerID_OuterContainerID</title>
<path fill="none" stroke="black" d="M2915.84,-753.903C2906.31,-744.658 2898.61,-732.751 2904,-721 2910.24,-707.38 2921.62,-695.818 2933.12,-686.799"/>
<polygon fill="black" stroke="black" points="2935.46,-689.425 2941.45,-680.688 2931.32,-683.781 2935.46,-689.425"/>
<text text-anchor="middle" x="2928.5" y="-724.8" font-family="Times,serif" font-size="14.00">sendto</text>
</g>
<!-- /etc/hosts#ServerID_2347d2f455dd -->
<g id="node10" class="node"><title>/etc/hosts#ServerID_2347d2f455dd</title>
<ellipse fill="none" stroke="black" cx="3500" cy="-880" rx="178.969" ry="18"/>
<text text-anchor="middle" x="3500" y="-876.3" font-family="Times,serif" font-size="14.00">/etc/hosts#ServerID_2347d2f455dd</text>
</g>
<!-- /etc/hosts#ServerID_2347d2f455dd&#45;&gt;13_node#ServerID_2347d2f455dd -->
<g id="edge14" class="edge"><title>/etc/hosts#ServerID_2347d2f455dd&#45;&gt;13_node#ServerID_2347d2f455dd</title>
<path fill="none" stroke="black" d="M3419.92,-863.869C3319.67,-844.926 3147.91,-812.473 3039.08,-791.911"/>
<polygon fill="black" stroke="black" points="3039.56,-788.438 3029.08,-790.02 3038.26,-795.316 3039.56,-788.438"/>
<text text-anchor="middle" x="3319.5" y="-832.8" font-family="Times,serif" font-size="14.00">read</text>
</g>
<!-- /etc/resolv.conf#ServerID_2347d2f455dd -->
<g id="node11" class="node"><title>/etc/resolv.conf#ServerID_2347d2f455dd</title>
<ellipse fill="none" stroke="black" cx="3099" cy="-880" rx="204.164" ry="18"/>
<text text-anchor="middle" x="3099" y="-876.3" font-family="Times,serif" font-size="14.00">/etc/resolv.conf#ServerID_2347d2f455dd</text>
</g>
<!-- /etc/resolv.conf#ServerID_2347d2f455dd&#45;&gt;13_node#ServerID_2347d2f455dd -->
<g id="edge15" class="edge"><title>/etc/resolv.conf#ServerID_2347d2f455dd&#45;&gt;13_node#ServerID_2347d2f455dd</title>
<path fill="none" stroke="black" d="M3073.29,-861.969C3046.2,-844.019 3003.37,-815.646 2973.39,-795.78"/>
<polygon fill="black" stroke="black" points="2975.18,-792.769 2964.91,-790.164 2971.31,-798.605 2975.18,-792.769"/>
<text text-anchor="middle" x="3059.5" y="-832.8" font-family="Times,serif" font-size="14.00">read</text>
</g>
<!-- 10.152.183.10:53#ServerID_OuterContainerID&#45;&gt;13_node#ServerID_2347d2f455dd -->
<g id="edge17" class="edge"><title>10.152.183.10:53#ServerID_OuterContainerID&#45;&gt;13_node#ServerID_2347d2f455dd</title>
<path fill="none" stroke="black" d="M2965.99,-681.839C2963.21,-696.351 2958.66,-717.779 2953,-736 2952.14,-738.754 2951.17,-741.597 2950.14,-744.416"/>
<polygon fill="black" stroke="black" points="2946.87,-743.16 2946.53,-753.749 2953.4,-745.684 2946.87,-743.16"/>
<text text-anchor="middle" x="2990" y="-724.8" font-family="Times,serif" font-size="14.00">recvfrom</text>
</g>
<!-- localhost:3000#ServerID_7cf8268e6ab5 -->
<g id="node14" class="node"><title>localhost:3000#ServerID_7cf8268e6ab5</title>
<polygon fill="none" stroke="black" points="3606,-487 3322.8,-469 3606,-451 3889.2,-469 3606,-487"/>
<text text-anchor="middle" x="3606" y="-465.3" font-family="Times,serif" font-size="14.00">localhost:3000#ServerID_7cf8268e6ab5</text>
</g>
<!-- 1_fwatchdog#ServerID_7cf8268e6ab5&#45;&gt;localhost:3000#ServerID_7cf8268e6ab5 -->
<g id="edge20" class="edge"><title>1_fwatchdog#ServerID_7cf8268e6ab5&#45;&gt;localhost:3000#ServerID_7cf8268e6ab5</title>
<path fill="none" stroke="black" d="M3606,-537.799C3606,-526.163 3606,-510.548 3606,-497.237"/>
<polygon fill="black" stroke="black" points="3609.5,-497.175 3606,-487.175 3602.5,-497.175 3609.5,-497.175"/>
<text text-anchor="middle" x="3635" y="-508.8" font-family="Times,serif" font-size="14.00">connect</text>
</g>
<!-- 1_fwatchdog#ServerID_7cf8268e6ab5&#45;&gt;localhost:3000#ServerID_7cf8268e6ab5 -->
<g id="edge21" class="edge"><title>1_fwatchdog#ServerID_7cf8268e6ab5&#45;&gt;localhost:3000#ServerID_7cf8268e6ab5</title>
<path fill="none" stroke="black" d="M3647.64,-537.892C3654.59,-533.144 3660.87,-527.244 3665,-520 3671.69,-508.245 3663.98,-497.999 3652.16,-489.893"/>
<polygon fill="black" stroke="black" points="3653.82,-486.807 3643.45,-484.632 3650.2,-492.799 3653.82,-486.807"/>
<text text-anchor="middle" x="3686" y="-508.8" font-family="Times,serif" font-size="14.00">write</text>
</g>
<!-- pipe:[7845976]#ServerID_7cf8268e6ab5 -->
<g id="node23" class="node"><title>pipe:[7845976]#ServerID_7cf8268e6ab5</title>
<ellipse fill="none" stroke="black" cx="4109" cy="-469" rx="202.264" ry="18"/>
<text text-anchor="middle" x="4109" y="-465.3" font-family="Times,serif" font-size="14.00">pipe:[7845976]#ServerID_7cf8268e6ab5</text>
</g>
<!-- 1_fwatchdog#ServerID_7cf8268e6ab5&#45;&gt;pipe:[7845976]#ServerID_7cf8268e6ab5 -->
<g id="edge33" class="edge"><title>1_fwatchdog#ServerID_7cf8268e6ab5&#45;&gt;pipe:[7845976]#ServerID_7cf8268e6ab5</title>
<path fill="none" stroke="black" d="M3706.88,-537.952C3794.84,-523.089 3921.7,-501.652 4009.3,-486.848"/>
<polygon fill="black" stroke="black" points="4009.97,-490.284 4019.25,-485.167 4008.8,-483.382 4009.97,-490.284"/>
<text text-anchor="middle" x="3906" y="-508.8" font-family="Times,serif" font-size="14.00">write</text>
</g>
<!-- localhost:3000#ServerID_7cf8268e6ab5&#45;&gt;1_fwatchdog#ServerID_7cf8268e6ab5 -->
<g id="edge23" class="edge"><title>localhost:3000#ServerID_7cf8268e6ab5&#45;&gt;1_fwatchdog#ServerID_7cf8268e6ab5</title>
<path fill="none" stroke="black" d="M3582.9,-485.918C3572.5,-495.195 3563.62,-507.503 3569,-520 3570.57,-523.642 3572.72,-527.082 3575.21,-530.279"/>
<polygon fill="black" stroke="black" points="3572.62,-532.639 3581.93,-537.702 3577.81,-527.94 3572.62,-532.639"/>
<text text-anchor="middle" x="3585.5" y="-508.8" font-family="Times,serif" font-size="14.00">read</text>
</g>
<!-- 13_node#ServerID_7cf8268e6ab5 -->
<g id="node15" class="node"><title>13_node#ServerID_7cf8268e6ab5</title>
<polygon fill="none" stroke="black" points="3739.5,-400 3476.5,-400 3476.5,-364 3739.5,-364 3739.5,-400"/>
<text text-anchor="middle" x="3608" y="-378.3" font-family="Times,serif" font-size="14.00">13_node#ServerID_7cf8268e6ab5</text>
</g>
<!-- localhost:3000#ServerID_7cf8268e6ab5&#45;&gt;13_node#ServerID_7cf8268e6ab5 -->
<g id="edge22" class="edge"><title>localhost:3000#ServerID_7cf8268e6ab5&#45;&gt;13_node#ServerID_7cf8268e6ab5</title>
<path fill="none" stroke="black" d="M3606.4,-450.799C3606.68,-439.163 3607.05,-423.548 3607.36,-410.237"/>
<polygon fill="black" stroke="black" points="3610.86,-410.255 3607.6,-400.175 3603.86,-410.09 3610.86,-410.255"/>
<text text-anchor="middle" x="3623.5" y="-421.8" font-family="Times,serif" font-size="14.00">read</text>
</g>
<!-- /dev/null#ServerID_7cf8268e6ab5 -->
<g id="node16" class="node"><title>/dev/null#ServerID_7cf8268e6ab5</title>
<ellipse fill="none" stroke="black" cx="3492" cy="-295" rx="171.67" ry="18"/>
<text text-anchor="middle" x="3492" y="-291.3" font-family="Times,serif" font-size="14.00">/dev/null#ServerID_7cf8268e6ab5</text>
</g>
<!-- 13_node#ServerID_7cf8268e6ab5&#45;&gt;/dev/null#ServerID_7cf8268e6ab5 -->
<g id="edge32" class="edge"><title>13_node#ServerID_7cf8268e6ab5&#45;&gt;/dev/null#ServerID_7cf8268e6ab5</title>
<path fill="none" stroke="black" d="M3531.17,-364C3521.81,-359.373 3513.07,-353.488 3506,-346 3500.17,-339.824 3496.73,-331.421 3494.72,-323.268"/>
<polygon fill="black" stroke="black" points="3498.13,-322.45 3492.86,-313.259 3491.25,-323.731 3498.13,-322.45"/>
<text text-anchor="middle" x="3525" y="-334.8" font-family="Times,serif" font-size="14.00">write</text>
</g>
<!-- pipe:[7845627]#ServerID_7cf8268e6ab5 -->
<g id="node17" class="node"><title>pipe:[7845627]#ServerID_7cf8268e6ab5</title>
<ellipse fill="none" stroke="black" cx="4165" cy="-295" rx="202.264" ry="18"/>
<text text-anchor="middle" x="4165" y="-291.3" font-family="Times,serif" font-size="14.00">pipe:[7845627]#ServerID_7cf8268e6ab5</text>
</g>
<!-- 13_node#ServerID_7cf8268e6ab5&#45;&gt;pipe:[7845627]#ServerID_7cf8268e6ab5 -->
<g id="edge26" class="edge"><title>13_node#ServerID_7cf8268e6ab5&#45;&gt;pipe:[7845627]#ServerID_7cf8268e6ab5</title>
<path fill="none" stroke="black" d="M3719.71,-363.952C3818.17,-348.927 3960.66,-327.183 4057.76,-312.366"/>
<polygon fill="black" stroke="black" points="4058.53,-315.788 4067.89,-310.819 4057.48,-308.868 4058.53,-315.788"/>
<text text-anchor="middle" x="3938" y="-334.8" font-family="Times,serif" font-size="14.00">write</text>
</g>
<!-- 48_node#ServerID_7cf8268e6ab5 -->
<g id="node18" class="node"><title>48_node#ServerID_7cf8268e6ab5</title>
<polygon fill="none" stroke="black" points="3944.5,-313 3681.5,-313 3681.5,-277 3944.5,-277 3944.5,-313"/>
<text text-anchor="middle" x="3813" y="-291.3" font-family="Times,serif" font-size="14.00">48_node#ServerID_7cf8268e6ab5</text>
</g>
<!-- 13_node#ServerID_7cf8268e6ab5&#45;&gt;48_node#ServerID_7cf8268e6ab5 -->
<g id="edge27" class="edge"><title>13_node#ServerID_7cf8268e6ab5&#45;&gt;48_node#ServerID_7cf8268e6ab5</title>
<path fill="none" stroke="black" d="M3649.48,-363.799C3682.1,-350.275 3727.68,-331.377 3762.43,-316.967"/>
<polygon fill="black" stroke="black" points="3764.03,-320.093 3771.93,-313.03 3761.35,-313.627 3764.03,-320.093"/>
<text text-anchor="middle" x="3737" y="-334.8" font-family="Times,serif" font-size="14.00">fork</text>
</g>
<!-- /dev/null#ServerID_7cf8268e6ab5&#45;&gt;13_node#ServerID_7cf8268e6ab5 -->
<g id="edge24" class="edge"><title>/dev/null#ServerID_7cf8268e6ab5&#45;&gt;13_node#ServerID_7cf8268e6ab5</title>
<path fill="none" stroke="black" d="M3520.69,-312.894C3529.61,-318.418 3539.36,-324.747 3548,-331 3559.18,-339.094 3570.95,-348.657 3581.08,-357.24"/>
<polygon fill="black" stroke="black" points="3578.94,-360.014 3588.81,-363.867 3583.5,-354.7 3578.94,-360.014"/>
<text text-anchor="middle" x="3583.5" y="-334.8" font-family="Times,serif" font-size="14.00">read</text>
</g>
<!-- pipe:[7845627]#ServerID_7cf8268e6ab5&#45;&gt;13_node#ServerID_7cf8268e6ab5 -->
<g id="edge25" class="edge"><title>pipe:[7845627]#ServerID_7cf8268e6ab5&#45;&gt;13_node#ServerID_7cf8268e6ab5</title>
<path fill="none" stroke="black" d="M4118.26,-312.542C4084.67,-323.76 4038.08,-337.96 3996,-346 3915.26,-361.428 3823.74,-370.095 3749.86,-374.944"/>
<polygon fill="black" stroke="black" points="3749.31,-371.472 3739.56,-375.604 3749.76,-378.458 3749.31,-371.472"/>
<text text-anchor="middle" x="4073.5" y="-334.8" font-family="Times,serif" font-size="14.00">read</text>
</g>
<!-- 48_sh#ServerID_7cf8268e6ab5 -->
<g id="node19" class="node"><title>48_sh#ServerID_7cf8268e6ab5</title>
<polygon fill="none" stroke="black" points="3935.5,-226 3690.5,-226 3690.5,-190 3935.5,-190 3935.5,-226"/>
<text text-anchor="middle" x="3813" y="-204.3" font-family="Times,serif" font-size="14.00">48_sh#ServerID_7cf8268e6ab5</text>
</g>
<!-- 48_node#ServerID_7cf8268e6ab5&#45;&gt;48_sh#ServerID_7cf8268e6ab5 -->
<g id="edge29" class="edge"><title>48_node#ServerID_7cf8268e6ab5&#45;&gt;48_sh#ServerID_7cf8268e6ab5</title>
<path fill="none" stroke="black" d="M3813,-276.799C3813,-265.163 3813,-249.548 3813,-236.237"/>
<polygon fill="black" stroke="black" points="3816.5,-236.175 3813,-226.175 3809.5,-236.175 3816.5,-236.175"/>
<text text-anchor="middle" x="3838" y="-247.8" font-family="Times,serif" font-size="14.00">execve</text>
</g>
<!-- 49_sh#ServerID_7cf8268e6ab5 -->
<g id="node20" class="node"><title>49_sh#ServerID_7cf8268e6ab5</title>
<polygon fill="none" stroke="black" points="3835.5,-139 3590.5,-139 3590.5,-103 3835.5,-103 3835.5,-139"/>
<text text-anchor="middle" x="3713" y="-117.3" font-family="Times,serif" font-size="14.00">49_sh#ServerID_7cf8268e6ab5</text>
</g>
<!-- 48_sh#ServerID_7cf8268e6ab5&#45;&gt;49_sh#ServerID_7cf8268e6ab5 -->
<g id="edge28" class="edge"><title>48_sh#ServerID_7cf8268e6ab5&#45;&gt;49_sh#ServerID_7cf8268e6ab5</title>
<path fill="none" stroke="black" d="M3792.76,-189.799C3777.85,-177.126 3757.39,-159.734 3740.93,-145.738"/>
<polygon fill="black" stroke="black" points="3743.09,-142.985 3733.21,-139.175 3738.56,-148.319 3743.09,-142.985"/>
<text text-anchor="middle" x="3783" y="-160.8" font-family="Times,serif" font-size="14.00">fork</text>
</g>
<!-- /home/app/3.txt#ServerID_7cf8268e6ab5 -->
<g id="node22" class="node"><title>/home/app/3.txt#ServerID_7cf8268e6ab5</title>
<ellipse fill="none" stroke="black" cx="4058" cy="-121" rx="204.964" ry="18"/>
<text text-anchor="middle" x="4058" y="-117.3" font-family="Times,serif" font-size="14.00">/home/app/3.txt#ServerID_7cf8268e6ab5</text>
</g>
<!-- 48_sh#ServerID_7cf8268e6ab5&#45;&gt;/home/app/3.txt#ServerID_7cf8268e6ab5 -->
<g id="edge31" class="edge"><title>48_sh#ServerID_7cf8268e6ab5&#45;&gt;/home/app/3.txt#ServerID_7cf8268e6ab5</title>
<path fill="none" stroke="black" d="M3862.28,-189.901C3902.21,-176.049 3958.53,-156.509 4000.51,-141.945"/>
<polygon fill="black" stroke="black" points="4001.75,-145.222 4010.05,-138.637 3999.45,-138.608 4001.75,-145.222"/>
<text text-anchor="middle" x="3969" y="-160.8" font-family="Times,serif" font-size="14.00">write</text>
</g>
<!-- 49_touch#ServerID_7cf8268e6ab5 -->
<g id="node21" class="node"><title>49_touch#ServerID_7cf8268e6ab5</title>
<polygon fill="none" stroke="black" points="3847.5,-52 3578.5,-52 3578.5,-16 3847.5,-16 3847.5,-52"/>
<text text-anchor="middle" x="3713" y="-30.3" font-family="Times,serif" font-size="14.00">49_touch#ServerID_7cf8268e6ab5</text>
</g>
<!-- 49_sh#ServerID_7cf8268e6ab5&#45;&gt;49_touch#ServerID_7cf8268e6ab5 -->
<g id="edge30" class="edge"><title>49_sh#ServerID_7cf8268e6ab5&#45;&gt;49_touch#ServerID_7cf8268e6ab5</title>
<path fill="none" stroke="black" d="M3713,-102.799C3713,-91.1626 3713,-75.5479 3713,-62.2368"/>
<polygon fill="black" stroke="black" points="3716.5,-62.1754 3713,-52.1754 3709.5,-62.1755 3716.5,-62.1754"/>
<text text-anchor="middle" x="3738" y="-73.8" font-family="Times,serif" font-size="14.00">execve</text>
</g>
<!-- 10.1.80.1:38850#ServerID_OuterContainerID&#45;&gt;10.1.80.93:8080#ServerID_OuterContainerID -->
<g id="edge34" class="edge"><title>10.1.80.1:38850#ServerID_OuterContainerID&#45;&gt;10.1.80.93:8080#ServerID_OuterContainerID</title>
<path fill="none" stroke="black" d="M960.056,-570.477C885.931,-585.992 758.96,-611.459 649,-628 586.702,-637.371 517.1,-645.379 459.288,-651.36"/>
<polygon fill="black" stroke="black" points="458.596,-647.912 449.006,-652.415 459.311,-654.876 458.596,-647.912"/>
<text text-anchor="middle" x="752" y="-616.8" font-family="Times,serif" font-size="14.00">POST</text>
</g>
</g>
</svg>
