<?xml version="1.0" encoding="UTF-8" standalone="no"?>
<!DOCTYPE svg PUBLIC "-//W3C//DTD SVG 1.1//EN"
 "http://www.w3.org/Graphics/SVG/1.1/DTD/svg11.dtd">
<!-- Generated by graphviz version 2.38.0 (20140413.2041)
 -->
<!-- Title: G Pages: 1 -->
<svg width="5161pt" height="858pt"
 viewBox="0.00 0.00 5161.00 858.00" xmlns="http://www.w3.org/2000/svg" xmlns:xlink="http://www.w3.org/1999/xlink">
<g id="graph0" class="graph" transform="scale(1 1) rotate(0) translate(4 854)">
<title>G</title>
<polygon fill="white" stroke="none" points="-4,4 -4,-854 5157,-854 5157,4 -4,4"/>
<g id="clust1" class="cluster"><title>clusterServerID_2347d2f455dd</title>
<polygon fill="none" stroke="black" points="1427,-572 1427,-842 2815,-842 2815,-572 1427,-572"/>
<text text-anchor="middle" x="2121" y="-826.8" font-family="Times,serif" font-size="14.00">clusterServerID_2347d2f455dd</text>
</g>
<g id="clust2" class="cluster"><title>clusterServerID_5f846fd567&#45;g8dn6</title>
<polygon fill="none" stroke="black" points="3312,-356 3312,-431 3652,-431 3652,-356 3312,-356"/>
<text text-anchor="middle" x="3482" y="-415.8" font-family="Times,serif" font-size="14.00">clusterServerID_5f846fd567&#45;g8dn6</text>
</g>
<g id="clust3" class="cluster"><title>clusterServerID_6df85d7674&#45;f2xxt</title>
<polygon fill="none" stroke="black" points="807,-572 807,-647 1143,-647 1143,-572 807,-572"/>
<text text-anchor="middle" x="975" y="-631.8" font-family="Times,serif" font-size="14.00">clusterServerID_6df85d7674&#45;f2xxt</text>
</g>
<g id="clust4" class="cluster"><title>clusterServerID_7cf8268e6ab5</title>
<polygon fill="none" stroke="black" points="3660,-8 3660,-539 5145,-539 5145,-8 3660,-8"/>
<text text-anchor="middle" x="4402.5" y="-523.8" font-family="Times,serif" font-size="14.00">clusterServerID_7cf8268e6ab5</text>
</g>
<g id="clust5" class="cluster"><title>clusterServerID_OuterContainerID</title>
<polygon fill="none" stroke="black" points="8,-356 8,-539 3304,-539 3304,-356 8,-356"/>
<text text-anchor="middle" x="1656" y="-523.8" font-family="Times,serif" font-size="14.00">clusterServerID_OuterContainerID</text>
</g>
<!-- 1_fwatchdog#ServerID_6df85d7674&#45;f2xxt -->
<g id="node1" class="node"><title>1_fwatchdog#ServerID_6df85d7674&#45;f2xxt</title>
<polygon fill="none" stroke="black" points="1135,-616 815,-616 815,-580 1135,-580 1135,-616"/>
<text text-anchor="middle" x="975" y="-594.3" font-family="Times,serif" font-size="14.00">1_fwatchdog#ServerID_6df85d7674&#45;f2xxt</text>
</g>
<!-- 10.1.80.93:8080#ServerID_OuterContainerID -->
<g id="node2" class="node"><title>10.1.80.93:8080#ServerID_OuterContainerID</title>
<polygon fill="none" stroke="black" points="335,-508 16.1049,-490 335,-472 653.895,-490 335,-508"/>
<text text-anchor="middle" x="335" y="-486.3" font-family="Times,serif" font-size="14.00">10.1.80.93:8080#ServerID_OuterContainerID</text>
</g>
<!-- 1_fwatchdog#ServerID_6df85d7674&#45;f2xxt&#45;&gt;10.1.80.93:8080#ServerID_OuterContainerID -->
<g id="edge1" class="edge"><title>1_fwatchdog#ServerID_6df85d7674&#45;f2xxt&#45;&gt;10.1.80.93:8080#ServerID_OuterContainerID</title>
<path fill="none" stroke="black" d="M814.698,-590.71C740.117,-585.847 650.515,-577.237 571,-562 505.288,-549.408 431.796,-525.707 384.549,-509.167"/>
<polygon fill="black" stroke="black" points="385.472,-505.782 374.877,-505.753 383.142,-512.383 385.472,-505.782"/>
<text text-anchor="middle" x="591" y="-550.8" font-family="Times,serif" font-size="14.00">POST</text>
</g>
<!-- 10.1.80.93:45514#ServerID_OuterContainerID -->
<g id="node7" class="node"><title>10.1.80.93:45514#ServerID_OuterContainerID</title>
<polygon fill="none" stroke="black" points="1625,-508 1297.56,-490 1625,-472 1952.44,-490 1625,-508"/>
<text text-anchor="middle" x="1625" y="-486.3" font-family="Times,serif" font-size="14.00">10.1.80.93:45514#ServerID_OuterContainerID</text>
</g>
<!-- 1_fwatchdog#ServerID_6df85d7674&#45;f2xxt&#45;&gt;10.1.80.93:45514#ServerID_OuterContainerID -->
<g id="edge6" class="edge"><title>1_fwatchdog#ServerID_6df85d7674&#45;f2xxt&#45;&gt;10.1.80.93:45514#ServerID_OuterContainerID</title>
<path fill="none" stroke="black" d="M1079.43,-579.969C1206.19,-559.299 1417.69,-524.807 1536.69,-505.401"/>
<polygon fill="black" stroke="black" points="1537.55,-508.807 1546.86,-503.743 1536.43,-501.898 1537.55,-508.807"/>
<text text-anchor="middle" x="1323" y="-550.8" font-family="Times,serif" font-size="14.00">RESPONSE</text>
</g>
<!-- gateway:8080#ServerID_OuterContainerID -->
<g id="node8" class="node"><title>gateway:8080#ServerID_OuterContainerID</title>
<polygon fill="none" stroke="black" points="976,-508 671.518,-490 976,-472 1280.48,-490 976,-508"/>
<text text-anchor="middle" x="976" y="-486.3" font-family="Times,serif" font-size="14.00">gateway:8080#ServerID_OuterContainerID</text>
</g>
<!-- 1_fwatchdog#ServerID_6df85d7674&#45;f2xxt&#45;&gt;gateway:8080#ServerID_OuterContainerID -->
<g id="edge9" class="edge"><title>1_fwatchdog#ServerID_6df85d7674&#45;f2xxt&#45;&gt;gateway:8080#ServerID_OuterContainerID</title>
<path fill="none" stroke="black" d="M953.203,-579.762C948.256,-574.629 943.675,-568.594 941,-562 938.493,-555.822 939.162,-553.408 941,-547 944.162,-535.976 950.196,-525.017 956.376,-515.755"/>
<polygon fill="black" stroke="black" points="959.335,-517.633 962.257,-507.449 953.622,-513.588 959.335,-517.633"/>
<text text-anchor="middle" x="961" y="-550.8" font-family="Times,serif" font-size="14.00">POST</text>
</g>
<!-- 10.1.80.93:8080#ServerID_OuterContainerID&#45;&gt;1_fwatchdog#ServerID_6df85d7674&#45;f2xxt -->
<g id="edge5" class="edge"><title>10.1.80.93:8080#ServerID_OuterContainerID&#45;&gt;1_fwatchdog#ServerID_6df85d7674&#45;f2xxt</title>
<path fill="none" stroke="black" d="M411.938,-503.743C523.989,-522.301 732.787,-556.883 862.221,-578.321"/>
<polygon fill="black" stroke="black" points="861.735,-581.788 872.173,-579.969 862.879,-574.882 861.735,-581.788"/>
<text text-anchor="middle" x="792" y="-550.8" font-family="Times,serif" font-size="14.00">RESPONSE</text>
</g>
<!-- 10.1.80.1:23491#ServerID_OuterContainerID -->
<g id="node24" class="node"><title>10.1.80.1:23491#ServerID_OuterContainerID</title>
<polygon fill="none" stroke="black" points="335,-400 16.1049,-382 335,-364 653.895,-382 335,-400"/>
<text text-anchor="middle" x="335" y="-378.3" font-family="Times,serif" font-size="14.00">10.1.80.1:23491#ServerID_OuterContainerID</text>
</g>
<!-- 10.1.80.93:8080#ServerID_OuterContainerID&#45;&gt;10.1.80.1:23491#ServerID_OuterContainerID -->
<g id="edge31" class="edge"><title>10.1.80.93:8080#ServerID_OuterContainerID&#45;&gt;10.1.80.1:23491#ServerID_OuterContainerID</title>
<path fill="none" stroke="black" d="M340.266,-472.077C341.789,-466.391 343.244,-459.975 344,-454 345.846,-439.41 344.061,-423.134 341.608,-409.85"/>
<polygon fill="black" stroke="black" points="345.009,-409.011 339.554,-399.927 338.154,-410.429 345.009,-409.011"/>
<text text-anchor="middle" x="387" y="-442.8" font-family="Times,serif" font-size="14.00">RESPONSE</text>
</g>
<!-- 10.0.88.125:31112#ServerID_OuterContainerID -->
<g id="node25" class="node"><title>10.0.88.125:31112#ServerID_OuterContainerID</title>
<polygon fill="none" stroke="black" points="1007,-400 671.515,-382 1007,-364 1342.48,-382 1007,-400"/>
<text text-anchor="middle" x="1007" y="-378.3" font-family="Times,serif" font-size="14.00">10.0.88.125:31112#ServerID_OuterContainerID</text>
</g>
<!-- 10.1.80.93:8080#ServerID_OuterContainerID&#45;&gt;10.0.88.125:31112#ServerID_OuterContainerID -->
<g id="edge33" class="edge"><title>10.1.80.93:8080#ServerID_OuterContainerID&#45;&gt;10.0.88.125:31112#ServerID_OuterContainerID</title>
<path fill="none" stroke="black" d="M414.394,-476.476C540.059,-456.654 784.064,-418.166 916.392,-397.292"/>
<polygon fill="black" stroke="black" points="917.17,-400.713 926.503,-395.698 916.079,-393.798 917.17,-400.713"/>
<text text-anchor="middle" x="693" y="-442.8" font-family="Times,serif" font-size="14.00">RESPONSE</text>
</g>
<!-- 10.1.80.93:37522#ServerID_OuterContainerID -->
<g id="node3" class="node"><title>10.1.80.93:37522#ServerID_OuterContainerID</title>
<polygon fill="none" stroke="black" points="2297,-508 1969.56,-490 2297,-472 2624.44,-490 2297,-508"/>
<text text-anchor="middle" x="2297" y="-486.3" font-family="Times,serif" font-size="14.00">10.1.80.93:37522#ServerID_OuterContainerID</text>
</g>
<!-- 1_fwatchdog#ServerID_5f846fd567&#45;g8dn6 -->
<g id="node4" class="node"><title>1_fwatchdog#ServerID_5f846fd567&#45;g8dn6</title>
<polygon fill="none" stroke="black" points="3644,-400 3320,-400 3320,-364 3644,-364 3644,-400"/>
<text text-anchor="middle" x="3482" y="-378.3" font-family="Times,serif" font-size="14.00">1_fwatchdog#ServerID_5f846fd567&#45;g8dn6</text>
</g>
<!-- 10.1.80.93:37522#ServerID_OuterContainerID&#45;&gt;1_fwatchdog#ServerID_5f846fd567&#45;g8dn6 -->
<g id="edge2" class="edge"><title>10.1.80.93:37522#ServerID_OuterContainerID&#45;&gt;1_fwatchdog#ServerID_5f846fd567&#45;g8dn6</title>
<path fill="none" stroke="black" d="M2456.27,-480.747C2730.56,-466.41 3266.83,-437.781 3308,-431 3346.25,-424.7 3388.16,-413.281 3421.27,-403.161"/>
<polygon fill="black" stroke="black" points="3422.73,-406.372 3431.24,-400.069 3420.66,-399.686 3422.73,-406.372"/>
<text text-anchor="middle" x="3222" y="-442.8" font-family="Times,serif" font-size="14.00">POST</text>
</g>
<!-- 1_fwatchdog#ServerID_7cf8268e6ab5 -->
<g id="node15" class="node"><title>1_fwatchdog#ServerID_7cf8268e6ab5</title>
<polygon fill="none" stroke="black" points="4650,-400 4356,-400 4356,-364 4650,-364 4650,-400"/>
<text text-anchor="middle" x="4503" y="-378.3" font-family="Times,serif" font-size="14.00">1_fwatchdog#ServerID_7cf8268e6ab5</text>
</g>
<!-- 10.1.80.93:37522#ServerID_OuterContainerID&#45;&gt;1_fwatchdog#ServerID_7cf8268e6ab5 -->
<g id="edge18" class="edge"><title>10.1.80.93:37522#ServerID_OuterContainerID&#45;&gt;1_fwatchdog#ServerID_7cf8268e6ab5</title>
<path fill="none" stroke="black" d="M2450.01,-480.397C2507.39,-477.398 2573.17,-474.229 2633,-472 3013.73,-457.817 3970.94,-492.154 4347,-431 4381.8,-425.34 4419.63,-413.842 4449.32,-403.518"/>
<polygon fill="black" stroke="black" points="4450.8,-406.707 4459.06,-400.072 4448.46,-400.108 4450.8,-406.707"/>
<text text-anchor="middle" x="4289.5" y="-442.8" font-family="Times,serif" font-size="14.00">read</text>
</g>
<!-- 1_fwatchdog#ServerID_5f846fd567&#45;g8dn6&#45;&gt;10.1.80.93:37522#ServerID_OuterContainerID -->
<g id="edge8" class="edge"><title>1_fwatchdog#ServerID_5f846fd567&#45;g8dn6&#45;&gt;10.1.80.93:37522#ServerID_OuterContainerID</title>
<path fill="none" stroke="black" d="M3433.2,-400.005C3398.7,-411.147 3351.11,-424.762 3308,-431 3211.43,-444.972 2966.44,-433.86 2869,-439 2710.04,-447.386 2526.84,-464.764 2411.48,-476.653"/>
<polygon fill="black" stroke="black" points="2410.81,-473.204 2401.23,-477.714 2411.53,-480.167 2410.81,-473.204"/>
<text text-anchor="middle" x="2911" y="-442.8" font-family="Times,serif" font-size="14.00">RESPONSE</text>
</g>
<!-- 1_fwatchdog#ServerID_2347d2f455dd -->
<g id="node5" class="node"><title>1_fwatchdog#ServerID_2347d2f455dd</title>
<polygon fill="none" stroke="black" points="2739,-811 2443,-811 2443,-775 2739,-775 2739,-811"/>
<text text-anchor="middle" x="2591" y="-789.3" font-family="Times,serif" font-size="14.00">1_fwatchdog#ServerID_2347d2f455dd</text>
</g>
<!-- localhost:3000#ServerID_2347d2f455dd -->
<g id="node6" class="node"><title>localhost:3000#ServerID_2347d2f455dd</title>
<polygon fill="none" stroke="black" points="2522,-724 2237.12,-706 2522,-688 2806.88,-706 2522,-724"/>
<text text-anchor="middle" x="2522" y="-702.3" font-family="Times,serif" font-size="14.00">localhost:3000#ServerID_2347d2f455dd</text>
</g>
<!-- 1_fwatchdog#ServerID_2347d2f455dd&#45;&gt;localhost:3000#ServerID_2347d2f455dd -->
<g id="edge3" class="edge"><title>1_fwatchdog#ServerID_2347d2f455dd&#45;&gt;localhost:3000#ServerID_2347d2f455dd</title>
<path fill="none" stroke="black" d="M2577.04,-774.799C2566.83,-762.228 2552.86,-745.014 2541.55,-731.077"/>
<polygon fill="black" stroke="black" points="2544.26,-728.868 2535.24,-723.31 2538.83,-733.28 2544.26,-728.868"/>
<text text-anchor="middle" x="2580" y="-745.8" font-family="Times,serif" font-size="14.00">write</text>
</g>
<!-- 13_node#ServerID_2347d2f455dd -->
<g id="node9" class="node"><title>13_node#ServerID_2347d2f455dd</title>
<polygon fill="none" stroke="black" points="2413.5,-616 2148.5,-616 2148.5,-580 2413.5,-580 2413.5,-616"/>
<text text-anchor="middle" x="2281" y="-594.3" font-family="Times,serif" font-size="14.00">13_node#ServerID_2347d2f455dd</text>
</g>
<!-- localhost:3000#ServerID_2347d2f455dd&#45;&gt;13_node#ServerID_2347d2f455dd -->
<g id="edge11" class="edge"><title>localhost:3000#ServerID_2347d2f455dd&#45;&gt;13_node#ServerID_2347d2f455dd</title>
<path fill="none" stroke="black" d="M2487.98,-690.038C2446.59,-671.832 2376.42,-640.969 2329.41,-620.291"/>
<polygon fill="black" stroke="black" points="2330.6,-616.992 2320.04,-616.169 2327.78,-623.399 2330.6,-616.992"/>
<text text-anchor="middle" x="2454.5" y="-658.8" font-family="Times,serif" font-size="14.00">read</text>
</g>
<!-- 10.1.80.93:45514#ServerID_OuterContainerID&#45;&gt;1_fwatchdog#ServerID_6df85d7674&#45;f2xxt -->
<g id="edge4" class="edge"><title>10.1.80.93:45514#ServerID_OuterContainerID&#45;&gt;1_fwatchdog#ServerID_6df85d7674&#45;f2xxt</title>
<path fill="none" stroke="black" d="M1590.04,-506.108C1549.67,-522.832 1480.85,-549.122 1419,-562 1329.71,-580.592 1228.44,-589.482 1145.19,-593.663"/>
<polygon fill="black" stroke="black" points="1144.95,-590.17 1135.13,-594.15 1145.28,-597.162 1144.95,-590.17"/>
<text text-anchor="middle" x="1497" y="-550.8" font-family="Times,serif" font-size="14.00">POST</text>
</g>
<!-- 10.1.80.93:45514#ServerID_OuterContainerID&#45;&gt;1_fwatchdog#ServerID_2347d2f455dd -->
<g id="edge10" class="edge"><title>10.1.80.93:45514#ServerID_OuterContainerID&#45;&gt;1_fwatchdog#ServerID_2347d2f455dd</title>
<path fill="none" stroke="black" d="M1697.12,-504.088C1764.96,-515.734 1869.49,-531.979 1961,-539 1980.69,-540.511 2653.75,-539.435 2672,-547 2840.58,-616.901 2882.45,-634.496 2816,-724 2800.86,-744.392 2747.25,-761.031 2696.15,-772.744"/>
<polygon fill="black" stroke="black" points="2695.31,-769.346 2686.32,-774.947 2696.84,-776.177 2695.31,-769.346"/>
<text text-anchor="middle" x="2863.5" y="-658.8" font-family="Times,serif" font-size="14.00">read</text>
</g>
<!-- gateway:8080#ServerID_OuterContainerID&#45;&gt;1_fwatchdog#ServerID_6df85d7674&#45;f2xxt -->
<g id="edge7" class="edge"><title>gateway:8080#ServerID_OuterContainerID&#45;&gt;1_fwatchdog#ServerID_6df85d7674&#45;f2xxt</title>
<path fill="none" stroke="black" d="M980.681,-507.944C984.051,-522.339 987.585,-543.543 985,-562 984.64,-564.574 984.137,-567.224 983.547,-569.859"/>
<polygon fill="black" stroke="black" points="980.102,-569.198 980.955,-579.759 986.874,-570.971 980.102,-569.198"/>
<text text-anchor="middle" x="1028" y="-550.8" font-family="Times,serif" font-size="14.00">RESPONSE</text>
</g>
<!-- 13_node#ServerID_2347d2f455dd&#45;&gt;gateway:8080#ServerID_OuterContainerID -->
<g id="edge19" class="edge"><title>13_node#ServerID_2347d2f455dd&#45;&gt;gateway:8080#ServerID_OuterContainerID</title>
<path fill="none" stroke="black" d="M2148.24,-587.006C1996.62,-575.884 1741.05,-558.03 1521,-547 1417.96,-541.835 1391.72,-548.614 1289,-539 1208.86,-531.499 1118,-516.877 1054.9,-505.733"/>
<polygon fill="black" stroke="black" points="1055.48,-502.28 1045.02,-503.976 1054.25,-509.172 1055.48,-502.28"/>
<text text-anchor="middle" x="1801" y="-550.8" font-family="Times,serif" font-size="14.00">connect</text>
</g>
<!-- 10.152.183.10:53#ServerID_OuterContainerID -->
<g id="node12" class="node"><title>10.152.183.10:53#ServerID_OuterContainerID</title>
<polygon fill="none" stroke="black" points="2969,-508 2641.56,-490 2969,-472 3296.44,-490 2969,-508"/>
<text text-anchor="middle" x="2969" y="-486.3" font-family="Times,serif" font-size="14.00">10.152.183.10:53#ServerID_OuterContainerID</text>
</g>
<!-- 13_node#ServerID_2347d2f455dd&#45;&gt;10.152.183.10:53#ServerID_OuterContainerID -->
<g id="edge15" class="edge"><title>13_node#ServerID_2347d2f455dd&#45;&gt;10.152.183.10:53#ServerID_OuterContainerID</title>
<path fill="none" stroke="black" d="M2330.76,-579.926C2366.53,-568.457 2416.16,-554.176 2461,-547 2536.57,-534.905 2556.81,-546.197 2633,-539 2718.51,-530.922 2815.58,-516.481 2883.32,-505.542"/>
<polygon fill="black" stroke="black" points="2884.21,-508.944 2893.52,-503.886 2883.08,-502.034 2884.21,-508.944"/>
<text text-anchor="middle" x="2485.5" y="-550.8" font-family="Times,serif" font-size="14.00">sendto</text>
</g>
<!-- /etc/hosts#ServerID_2347d2f455dd -->
<g id="node10" class="node"><title>/etc/hosts#ServerID_2347d2f455dd</title>
<ellipse fill="none" stroke="black" cx="2040" cy="-706" rx="178.969" ry="18"/>
<text text-anchor="middle" x="2040" y="-702.3" font-family="Times,serif" font-size="14.00">/etc/hosts#ServerID_2347d2f455dd</text>
</g>
<!-- /etc/hosts#ServerID_2347d2f455dd&#45;&gt;13_node#ServerID_2347d2f455dd -->
<g id="edge12" class="edge"><title>/etc/hosts#ServerID_2347d2f455dd&#45;&gt;13_node#ServerID_2347d2f455dd</title>
<path fill="none" stroke="black" d="M2077.92,-688.321C2119.75,-669.923 2187.16,-640.275 2232.73,-620.232"/>
<polygon fill="black" stroke="black" points="2234.36,-623.338 2242.1,-616.108 2231.54,-616.931 2234.36,-623.338"/>
<text text-anchor="middle" x="2170.5" y="-658.8" font-family="Times,serif" font-size="14.00">read</text>
</g>
<!-- /etc/resolv.conf#ServerID_2347d2f455dd -->
<g id="node11" class="node"><title>/etc/resolv.conf#ServerID_2347d2f455dd</title>
<ellipse fill="none" stroke="black" cx="1639" cy="-706" rx="204.164" ry="18"/>
<text text-anchor="middle" x="1639" y="-702.3" font-family="Times,serif" font-size="14.00">/etc/resolv.conf#ServerID_2347d2f455dd</text>
</g>
<!-- /etc/resolv.conf#ServerID_2347d2f455dd&#45;&gt;13_node#ServerID_2347d2f455dd -->
<g id="edge13" class="edge"><title>/etc/resolv.conf#ServerID_2347d2f455dd&#45;&gt;13_node#ServerID_2347d2f455dd</title>
<path fill="none" stroke="black" d="M1730.64,-689.869C1845.83,-670.85 2043.52,-638.211 2167.97,-617.663"/>
<polygon fill="black" stroke="black" points="2168.62,-621.103 2177.91,-616.02 2167.48,-614.196 2168.62,-621.103"/>
<text text-anchor="middle" x="1957.5" y="-658.8" font-family="Times,serif" font-size="14.00">read</text>
</g>
<!-- 10.152.183.10:53#ServerID_OuterContainerID&#45;&gt;13_node#ServerID_2347d2f455dd -->
<g id="edge14" class="edge"><title>10.152.183.10:53#ServerID_OuterContainerID&#45;&gt;13_node#ServerID_2347d2f455dd</title>
<path fill="none" stroke="black" d="M2888.89,-503.643C2798.01,-517.95 2645.38,-541.881 2514,-562 2478.76,-567.396 2440.52,-573.174 2405.39,-578.449"/>
<polygon fill="black" stroke="black" points="2404.46,-575.05 2395.09,-579.995 2405.49,-581.972 2404.46,-575.05"/>
<text text-anchor="middle" x="2635" y="-550.8" font-family="Times,serif" font-size="14.00">recvfrom</text>
</g>
<!-- localhost:3000#ServerID_7cf8268e6ab5 -->
<g id="node13" class="node"><title>localhost:3000#ServerID_7cf8268e6ab5</title>
<polygon fill="none" stroke="black" points="4442,-508 4158.8,-490 4442,-472 4725.2,-490 4442,-508"/>
<text text-anchor="middle" x="4442" y="-486.3" font-family="Times,serif" font-size="14.00">localhost:3000#ServerID_7cf8268e6ab5</text>
</g>
<!-- 13_node#ServerID_7cf8268e6ab5 -->
<g id="node14" class="node"><title>13_node#ServerID_7cf8268e6ab5</title>
<polygon fill="none" stroke="black" points="4337.5,-400 4074.5,-400 4074.5,-364 4337.5,-364 4337.5,-400"/>
<text text-anchor="middle" x="4206" y="-378.3" font-family="Times,serif" font-size="14.00">13_node#ServerID_7cf8268e6ab5</text>
</g>
<!-- localhost:3000#ServerID_7cf8268e6ab5&#45;&gt;13_node#ServerID_7cf8268e6ab5 -->
<g id="edge16" class="edge"><title>localhost:3000#ServerID_7cf8268e6ab5&#45;&gt;13_node#ServerID_7cf8268e6ab5</title>
<path fill="none" stroke="black" d="M4408.69,-474.038C4368.15,-455.832 4299.44,-424.969 4253.4,-404.291"/>
<polygon fill="black" stroke="black" points="4254.78,-401.074 4244.23,-400.169 4251.91,-407.459 4254.78,-401.074"/>
<text text-anchor="middle" x="4374.5" y="-442.8" font-family="Times,serif" font-size="14.00">read</text>
</g>
<!-- localhost:3000#ServerID_7cf8268e6ab5&#45;&gt;1_fwatchdog#ServerID_7cf8268e6ab5 -->
<g id="edge29" class="edge"><title>localhost:3000#ServerID_7cf8268e6ab5&#45;&gt;1_fwatchdog#ServerID_7cf8268e6ab5</title>
<path fill="none" stroke="black" d="M4463.54,-473.341C4469.9,-467.831 4476.39,-461.2 4481,-454 4489.49,-440.753 4494.88,-424.02 4498.2,-410.126"/>
<polygon fill="black" stroke="black" points="4501.67,-410.672 4500.36,-400.159 4494.82,-409.195 4501.67,-410.672"/>
<text text-anchor="middle" x="4504.5" y="-442.8" font-family="Times,serif" font-size="14.00">read</text>
</g>
<!-- /dev/null#ServerID_7cf8268e6ab5 -->
<g id="node16" class="node"><title>/dev/null#ServerID_7cf8268e6ab5</title>
<ellipse fill="none" stroke="black" cx="4262" cy="-295" rx="171.67" ry="18"/>
<text text-anchor="middle" x="4262" y="-291.3" font-family="Times,serif" font-size="14.00">/dev/null#ServerID_7cf8268e6ab5</text>
</g>
<!-- 13_node#ServerID_7cf8268e6ab5&#45;&gt;/dev/null#ServerID_7cf8268e6ab5 -->
<g id="edge28" class="edge"><title>13_node#ServerID_7cf8268e6ab5&#45;&gt;/dev/null#ServerID_7cf8268e6ab5</title>
<path fill="none" stroke="black" d="M4224.98,-363.913C4230.27,-358.527 4235.74,-352.324 4240,-346 4244.77,-338.921 4248.9,-330.639 4252.26,-322.876"/>
<polygon fill="black" stroke="black" points="4255.57,-324.031 4256.09,-313.449 4249.08,-321.398 4255.57,-324.031"/>
<text text-anchor="middle" x="4267" y="-334.8" font-family="Times,serif" font-size="14.00">write</text>
</g>
<!-- pipe:[7845627]#ServerID_7cf8268e6ab5 -->
<g id="node17" class="node"><title>pipe:[7845627]#ServerID_7cf8268e6ab5</title>
<ellipse fill="none" stroke="black" cx="3870" cy="-295" rx="202.264" ry="18"/>
<text text-anchor="middle" x="3870" y="-291.3" font-family="Times,serif" font-size="14.00">pipe:[7845627]#ServerID_7cf8268e6ab5</text>
</g>
<!-- 13_node#ServerID_7cf8268e6ab5&#45;&gt;pipe:[7845627]#ServerID_7cf8268e6ab5 -->
<g id="edge22" class="edge"><title>13_node#ServerID_7cf8268e6ab5&#45;&gt;pipe:[7845627]#ServerID_7cf8268e6ab5</title>
<path fill="none" stroke="black" d="M4074.39,-367.886C4041.5,-362.753 4006.61,-355.687 3975,-346 3952,-338.952 3927.67,-327.635 3908.23,-317.55"/>
<polygon fill="black" stroke="black" points="3909.86,-314.453 3899.38,-312.872 3906.58,-320.641 3909.86,-314.453"/>
<text text-anchor="middle" x="3994" y="-334.8" font-family="Times,serif" font-size="14.00">write</text>
</g>
<!-- 41_node#ServerID_7cf8268e6ab5 -->
<g id="node18" class="node"><title>41_node#ServerID_7cf8268e6ab5</title>
<polygon fill="none" stroke="black" points="4714.5,-313 4451.5,-313 4451.5,-277 4714.5,-277 4714.5,-313"/>
<text text-anchor="middle" x="4583" y="-291.3" font-family="Times,serif" font-size="14.00">41_node#ServerID_7cf8268e6ab5</text>
</g>
<!-- 13_node#ServerID_7cf8268e6ab5&#45;&gt;41_node#ServerID_7cf8268e6ab5 -->
<g id="edge23" class="edge"><title>13_node#ServerID_7cf8268e6ab5&#45;&gt;41_node#ServerID_7cf8268e6ab5</title>
<path fill="none" stroke="black" d="M4281.84,-363.901C4344.22,-349.837 4432.6,-329.911 4497.48,-315.281"/>
<polygon fill="black" stroke="black" points="4498.3,-318.685 4507.28,-313.071 4496.76,-311.857 4498.3,-318.685"/>
<text text-anchor="middle" x="4432" y="-334.8" font-family="Times,serif" font-size="14.00">fork</text>
</g>
<!-- 1_fwatchdog#ServerID_7cf8268e6ab5&#45;&gt;localhost:3000#ServerID_7cf8268e6ab5 -->
<g id="edge17" class="edge"><title>1_fwatchdog#ServerID_7cf8268e6ab5&#45;&gt;localhost:3000#ServerID_7cf8268e6ab5</title>
<path fill="none" stroke="black" d="M4476.41,-400.161C4463.82,-409.885 4450.03,-423.257 4443,-439 4439.84,-446.086 4438.76,-454.318 4438.7,-462.033"/>
<polygon fill="black" stroke="black" points="4435.2,-462.241 4439.14,-472.076 4442.2,-461.931 4435.2,-462.241"/>
<text text-anchor="middle" x="4462" y="-442.8" font-family="Times,serif" font-size="14.00">write</text>
</g>
<!-- pipe:[7845976]#ServerID_7cf8268e6ab5 -->
<g id="node23" class="node"><title>pipe:[7845976]#ServerID_7cf8268e6ab5</title>
<ellipse fill="none" stroke="black" cx="4935" cy="-295" rx="202.264" ry="18"/>
<text text-anchor="middle" x="4935" y="-291.3" font-family="Times,serif" font-size="14.00">pipe:[7845976]#ServerID_7cf8268e6ab5</text>
</g>
<!-- 1_fwatchdog#ServerID_7cf8268e6ab5&#45;&gt;pipe:[7845976]#ServerID_7cf8268e6ab5 -->
<g id="edge30" class="edge"><title>1_fwatchdog#ServerID_7cf8268e6ab5&#45;&gt;pipe:[7845976]#ServerID_7cf8268e6ab5</title>
<path fill="none" stroke="black" d="M4589.64,-363.952C4664.01,-349.319 4770.78,-328.312 4845.86,-313.539"/>
<polygon fill="black" stroke="black" points="4846.64,-316.953 4855.78,-311.588 4845.29,-310.084 4846.64,-316.953"/>
<text text-anchor="middle" x="4763" y="-334.8" font-family="Times,serif" font-size="14.00">write</text>
</g>
<!-- /dev/null#ServerID_7cf8268e6ab5&#45;&gt;13_node#ServerID_7cf8268e6ab5 -->
<g id="edge20" class="edge"><title>/dev/null#ServerID_7cf8268e6ab5&#45;&gt;13_node#ServerID_7cf8268e6ab5</title>
<path fill="none" stroke="black" d="M4224.63,-312.651C4217.6,-317.532 4211.16,-323.6 4207,-331 4203.2,-337.765 4201.93,-345.9 4201.89,-353.625"/>
<polygon fill="black" stroke="black" points="4198.4,-353.954 4202.47,-363.737 4205.39,-353.552 4198.4,-353.954"/>
<text text-anchor="middle" x="4223.5" y="-334.8" font-family="Times,serif" font-size="14.00">read</text>
</g>
<!-- pipe:[7845627]#ServerID_7cf8268e6ab5&#45;&gt;13_node#ServerID_7cf8268e6ab5 -->
<g id="edge21" class="edge"><title>pipe:[7845627]#ServerID_7cf8268e6ab5&#45;&gt;13_node#ServerID_7cf8268e6ab5</title>
<path fill="none" stroke="black" d="M3933.78,-312.136C3989.1,-326.131 4069.35,-346.43 4128.39,-361.365"/>
<polygon fill="black" stroke="black" points="4127.86,-364.842 4138.41,-363.901 4129.57,-358.056 4127.86,-364.842"/>
<text text-anchor="middle" x="4074.5" y="-334.8" font-family="Times,serif" font-size="14.00">read</text>
</g>
<!-- 41_sh#ServerID_7cf8268e6ab5 -->
<g id="node19" class="node"><title>41_sh#ServerID_7cf8268e6ab5</title>
<polygon fill="none" stroke="black" points="4705.5,-226 4460.5,-226 4460.5,-190 4705.5,-190 4705.5,-226"/>
<text text-anchor="middle" x="4583" y="-204.3" font-family="Times,serif" font-size="14.00">41_sh#ServerID_7cf8268e6ab5</text>
</g>
<!-- 41_node#ServerID_7cf8268e6ab5&#45;&gt;41_sh#ServerID_7cf8268e6ab5 -->
<g id="edge26" class="edge"><title>41_node#ServerID_7cf8268e6ab5&#45;&gt;41_sh#ServerID_7cf8268e6ab5</title>
<path fill="none" stroke="black" d="M4583,-276.799C4583,-265.163 4583,-249.548 4583,-236.237"/>
<polygon fill="black" stroke="black" points="4586.5,-236.175 4583,-226.175 4579.5,-236.175 4586.5,-236.175"/>
<text text-anchor="middle" x="4608" y="-247.8" font-family="Times,serif" font-size="14.00">execve</text>
</g>
<!-- 42_sh#ServerID_7cf8268e6ab5 -->
<g id="node20" class="node"><title>42_sh#ServerID_7cf8268e6ab5</title>
<polygon fill="none" stroke="black" points="4605.5,-139 4360.5,-139 4360.5,-103 4605.5,-103 4605.5,-139"/>
<text text-anchor="middle" x="4483" y="-117.3" font-family="Times,serif" font-size="14.00">42_sh#ServerID_7cf8268e6ab5</text>
</g>
<!-- 41_sh#ServerID_7cf8268e6ab5&#45;&gt;42_sh#ServerID_7cf8268e6ab5 -->
<g id="edge24" class="edge"><title>41_sh#ServerID_7cf8268e6ab5&#45;&gt;42_sh#ServerID_7cf8268e6ab5</title>
<path fill="none" stroke="black" d="M4562.76,-189.799C4547.85,-177.126 4527.39,-159.734 4510.93,-145.738"/>
<polygon fill="black" stroke="black" points="4513.09,-142.985 4503.21,-139.175 4508.56,-148.319 4513.09,-142.985"/>
<text text-anchor="middle" x="4553" y="-160.8" font-family="Times,serif" font-size="14.00">fork</text>
</g>
<!-- /home/app/3.txt#ServerID_7cf8268e6ab5 -->
<g id="node22" class="node"><title>/home/app/3.txt#ServerID_7cf8268e6ab5</title>
<ellipse fill="none" stroke="black" cx="4828" cy="-121" rx="204.964" ry="18"/>
<text text-anchor="middle" x="4828" y="-117.3" font-family="Times,serif" font-size="14.00">/home/app/3.txt#ServerID_7cf8268e6ab5</text>
</g>
<!-- 41_sh#ServerID_7cf8268e6ab5&#45;&gt;/home/app/3.txt#ServerID_7cf8268e6ab5 -->
<g id="edge27" class="edge"><title>41_sh#ServerID_7cf8268e6ab5&#45;&gt;/home/app/3.txt#ServerID_7cf8268e6ab5</title>
<path fill="none" stroke="black" d="M4632.28,-189.901C4672.21,-176.049 4728.53,-156.509 4770.51,-141.945"/>
<polygon fill="black" stroke="black" points="4771.75,-145.222 4780.05,-138.637 4769.45,-138.608 4771.75,-145.222"/>
<text text-anchor="middle" x="4739" y="-160.8" font-family="Times,serif" font-size="14.00">write</text>
</g>
<!-- 42_touch#ServerID_7cf8268e6ab5 -->
<g id="node21" class="node"><title>42_touch#ServerID_7cf8268e6ab5</title>
<polygon fill="none" stroke="black" points="4617.5,-52 4348.5,-52 4348.5,-16 4617.5,-16 4617.5,-52"/>
<text text-anchor="middle" x="4483" y="-30.3" font-family="Times,serif" font-size="14.00">42_touch#ServerID_7cf8268e6ab5</text>
</g>
<!-- 42_sh#ServerID_7cf8268e6ab5&#45;&gt;42_touch#ServerID_7cf8268e6ab5 -->
<g id="edge25" class="edge"><title>42_sh#ServerID_7cf8268e6ab5&#45;&gt;42_touch#ServerID_7cf8268e6ab5</title>
<path fill="none" stroke="black" d="M4483,-102.799C4483,-91.1626 4483,-75.5479 4483,-62.2368"/>
<polygon fill="black" stroke="black" points="4486.5,-62.1754 4483,-52.1754 4479.5,-62.1755 4486.5,-62.1754"/>
<text text-anchor="middle" x="4508" y="-73.8" font-family="Times,serif" font-size="14.00">execve</text>
</g>
<!-- 10.1.80.1:23491#ServerID_OuterContainerID&#45;&gt;10.1.80.93:8080#ServerID_OuterContainerID -->
<g id="edge32" class="edge"><title>10.1.80.1:23491#ServerID_OuterContainerID&#45;&gt;10.1.80.93:8080#ServerID_OuterContainerID</title>
<path fill="none" stroke="black" d="M321.257,-399.449C313.347,-410.019 304.172,-424.453 300,-439 298.162,-445.408 297.449,-447.841 300,-454 301.665,-458.019 304.04,-461.818 306.779,-465.325"/>
<polygon fill="black" stroke="black" points="304.368,-467.877 313.669,-472.949 309.561,-463.183 304.368,-467.877"/>
<text text-anchor="middle" x="320" y="-442.8" font-family="Times,serif" font-size="14.00">POST</text>
</g>
</g>
</svg>
