<?xml version="1.0" encoding="UTF-8" standalone="no"?>
<!DOCTYPE svg PUBLIC "-//W3C//DTD SVG 1.1//EN"
 "http://www.w3.org/Graphics/SVG/1.1/DTD/svg11.dtd">
<!-- Generated by graphviz version 2.38.0 (20140413.2041)
 -->
<!-- Title: G Pages: 1 -->
<svg width="4669pt" height="576pt"
 viewBox="0.00 0.00 4669.00 576.00" xmlns="http://www.w3.org/2000/svg" xmlns:xlink="http://www.w3.org/1999/xlink">
<g id="graph0" class="graph" transform="scale(1 1) rotate(0) translate(4 572)">
<title>G</title>
<polygon fill="white" stroke="none" points="-4,4 -4,-572 4665,-572 4665,4 -4,4"/>
<g id="clust1" class="cluster"><title>clusterServerID_6dcbcc88d5&#45;mp48t</title>
<polygon fill="none" stroke="black" points="818,-290 818,-365 1166,-365 1166,-290 818,-290"/>
<text text-anchor="middle" x="992" y="-349.8" font-family="Times,serif" font-size="14.00">clusterServerID_6dcbcc88d5&#45;mp48t</text>
</g>
<g id="clust2" class="cluster"><title>clusterServerID_76c96688d7&#45;9bscs</title>
<polygon fill="none" stroke="black" points="3600,-290 3600,-365 3942,-365 3942,-290 3600,-290"/>
<text text-anchor="middle" x="3771" y="-349.8" font-family="Times,serif" font-size="14.00">clusterServerID_76c96688d7&#45;9bscs</text>
</g>
<g id="clust3" class="cluster"><title>clusterServerID_8665dd9487&#45;pdgrc</title>
<polygon fill="none" stroke="black" points="1847,-290 1847,-365 2191,-365 2191,-290 1847,-290"/>
<text text-anchor="middle" x="2019" y="-349.8" font-family="Times,serif" font-size="14.00">clusterServerID_8665dd9487&#45;pdgrc</text>
</g>
<g id="clust4" class="cluster"><title>clusterServerID_OuterContainerID</title>
<polygon fill="none" stroke="black" points="8,-95 8,-257 4044,-257 4044,-95 8,-95"/>
<text text-anchor="middle" x="2026" y="-241.8" font-family="Times,serif" font-size="14.00">clusterServerID_OuterContainerID</text>
</g>
<g id="clust5" class="cluster"><title>clusterServerID_d68681b9e3dc</title>
<polygon fill="none" stroke="black" points="4052,-8 4052,-257 4653,-257 4653,-8 4052,-8"/>
<text text-anchor="middle" x="4352.5" y="-241.8" font-family="Times,serif" font-size="14.00">clusterServerID_d68681b9e3dc</text>
</g>
<g id="clust6" class="cluster"><title>clusterServerID_e47e2b15aff4</title>
<polygon fill="none" stroke="black" points="2199,-290 2199,-560 3560,-560 3560,-290 2199,-290"/>
<text text-anchor="middle" x="2879.5" y="-544.8" font-family="Times,serif" font-size="14.00">clusterServerID_e47e2b15aff4</text>
</g>
<!-- 1_fwatchdog#ServerID_6dcbcc88d5&#45;mp48t -->
<g id="node1" class="node"><title>1_fwatchdog#ServerID_6dcbcc88d5&#45;mp48t</title>
<polygon fill="none" stroke="black" points="1157.5,-334 826.5,-334 826.5,-298 1157.5,-298 1157.5,-334"/>
<text text-anchor="middle" x="992" y="-312.3" font-family="Times,serif" font-size="14.00">1_fwatchdog#ServerID_6dcbcc88d5&#45;mp48t</text>
</g>
<!-- gateway:8080#ServerID_OuterContainerID -->
<g id="node2" class="node"><title>gateway:8080#ServerID_OuterContainerID</title>
<polygon fill="none" stroke="black" points="992,-226 687.518,-208 992,-190 1296.48,-208 992,-226"/>
<text text-anchor="middle" x="992" y="-204.3" font-family="Times,serif" font-size="14.00">gateway:8080#ServerID_OuterContainerID</text>
</g>
<!-- 1_fwatchdog#ServerID_6dcbcc88d5&#45;mp48t&#45;&gt;gateway:8080#ServerID_OuterContainerID -->
<g id="edge1" class="edge"><title>1_fwatchdog#ServerID_6dcbcc88d5&#45;mp48t&#45;&gt;gateway:8080#ServerID_OuterContainerID</title>
<path fill="none" stroke="black" d="M973.041,-297.736C968.557,-292.523 964.388,-286.455 962,-280 956.211,-264.351 963.178,-247.103 971.849,-233.526"/>
<polygon fill="black" stroke="black" points="974.816,-235.389 977.675,-225.187 969.078,-231.38 974.816,-235.389"/>
<text text-anchor="middle" x="982" y="-268.8" font-family="Times,serif" font-size="14.00">POST</text>
</g>
<!-- 10.1.80.183:59326#ServerID_OuterContainerID -->
<g id="node5" class="node"><title>10.1.80.183:59326#ServerID_OuterContainerID</title>
<polygon fill="none" stroke="black" points="1650,-226 1314.52,-208 1650,-190 1985.48,-208 1650,-226"/>
<text text-anchor="middle" x="1650" y="-204.3" font-family="Times,serif" font-size="14.00">10.1.80.183:59326#ServerID_OuterContainerID</text>
</g>
<!-- 1_fwatchdog#ServerID_6dcbcc88d5&#45;mp48t&#45;&gt;10.1.80.183:59326#ServerID_OuterContainerID -->
<g id="edge11" class="edge"><title>1_fwatchdog#ServerID_6dcbcc88d5&#45;mp48t&#45;&gt;10.1.80.183:59326#ServerID_OuterContainerID</title>
<path fill="none" stroke="black" d="M1097.72,-297.969C1225.99,-277.306 1439.98,-242.833 1560.47,-223.422"/>
<polygon fill="black" stroke="black" points="1561.09,-226.867 1570.41,-221.822 1559.98,-219.957 1561.09,-226.867"/>
<text text-anchor="middle" x="1344" y="-268.8" font-family="Times,serif" font-size="14.00">RESPONSE</text>
</g>
<!-- 10.1.80.183:8080#ServerID_OuterContainerID -->
<g id="node6" class="node"><title>10.1.80.183:8080#ServerID_OuterContainerID</title>
<polygon fill="none" stroke="black" points="343,-226 15.5599,-208 343,-190 670.44,-208 343,-226"/>
<text text-anchor="middle" x="343" y="-204.3" font-family="Times,serif" font-size="14.00">10.1.80.183:8080#ServerID_OuterContainerID</text>
</g>
<!-- 1_fwatchdog#ServerID_6dcbcc88d5&#45;mp48t&#45;&gt;10.1.80.183:8080#ServerID_OuterContainerID -->
<g id="edge7" class="edge"><title>1_fwatchdog#ServerID_6dcbcc88d5&#45;mp48t&#45;&gt;10.1.80.183:8080#ServerID_OuterContainerID</title>
<path fill="none" stroke="black" d="M826.297,-302.906C768.119,-297.465 702.455,-289.972 643,-280 559.248,-265.953 464.071,-242.044 403.804,-225.894"/>
<polygon fill="black" stroke="black" points="404.637,-222.494 394.071,-223.272 402.816,-229.253 404.637,-222.494"/>
<text text-anchor="middle" x="663" y="-268.8" font-family="Times,serif" font-size="14.00">POST</text>
</g>
<!-- gateway:8080#ServerID_OuterContainerID&#45;&gt;1_fwatchdog#ServerID_6dcbcc88d5&#45;mp48t -->
<g id="edge3" class="edge"><title>gateway:8080#ServerID_OuterContainerID&#45;&gt;1_fwatchdog#ServerID_6dcbcc88d5&#45;mp48t</title>
<path fill="none" stroke="black" d="M997.056,-225.927C1000.71,-240.311 1004.59,-261.508 1002,-280 1001.64,-282.574 1001.14,-285.224 1000.55,-287.859"/>
<polygon fill="black" stroke="black" points="997.102,-287.198 997.955,-297.759 1003.87,-288.971 997.102,-287.198"/>
<text text-anchor="middle" x="1045" y="-268.8" font-family="Times,serif" font-size="14.00">RESPONSE</text>
</g>
<!-- 1_fwatchdog#ServerID_8665dd9487&#45;pdgrc -->
<g id="node3" class="node"><title>1_fwatchdog#ServerID_8665dd9487&#45;pdgrc</title>
<polygon fill="none" stroke="black" points="2183.5,-334 1854.5,-334 1854.5,-298 2183.5,-298 2183.5,-334"/>
<text text-anchor="middle" x="2019" y="-312.3" font-family="Times,serif" font-size="14.00">1_fwatchdog#ServerID_8665dd9487&#45;pdgrc</text>
</g>
<!-- 10.1.80.183:45928#ServerID_OuterContainerID -->
<g id="node4" class="node"><title>10.1.80.183:45928#ServerID_OuterContainerID</title>
<polygon fill="none" stroke="black" points="2339,-226 2003.52,-208 2339,-190 2674.48,-208 2339,-226"/>
<text text-anchor="middle" x="2339" y="-204.3" font-family="Times,serif" font-size="14.00">10.1.80.183:45928#ServerID_OuterContainerID</text>
</g>
<!-- 1_fwatchdog#ServerID_8665dd9487&#45;pdgrc&#45;&gt;10.1.80.183:45928#ServerID_OuterContainerID -->
<g id="edge2" class="edge"><title>1_fwatchdog#ServerID_8665dd9487&#45;pdgrc&#45;&gt;10.1.80.183:45928#ServerID_OuterContainerID</title>
<path fill="none" stroke="black" d="M2070.41,-297.969C2129.24,-278.483 2225.14,-246.715 2285.02,-226.88"/>
<polygon fill="black" stroke="black" points="2286.28,-230.15 2294.67,-223.683 2284.08,-223.505 2286.28,-230.15"/>
<text text-anchor="middle" x="2212" y="-268.8" font-family="Times,serif" font-size="14.00">RESPONSE</text>
</g>
<!-- 10.1.80.183:45928#ServerID_OuterContainerID&#45;&gt;1_fwatchdog#ServerID_8665dd9487&#45;pdgrc -->
<g id="edge5" class="edge"><title>10.1.80.183:45928#ServerID_OuterContainerID&#45;&gt;1_fwatchdog#ServerID_8665dd9487&#45;pdgrc</title>
<path fill="none" stroke="black" d="M2325.38,-225.552C2310.63,-242.242 2285.5,-267.301 2258,-280 2256.57,-280.662 2203.52,-288.457 2147.77,-296.523"/>
<polygon fill="black" stroke="black" points="2147.1,-293.082 2137.71,-297.977 2148.1,-300.01 2147.1,-293.082"/>
<text text-anchor="middle" x="2301" y="-268.8" font-family="Times,serif" font-size="14.00">POST</text>
</g>
<!-- 1_fwatchdog#ServerID_d68681b9e3dc -->
<g id="node16" class="node"><title>1_fwatchdog#ServerID_d68681b9e3dc</title>
<polygon fill="none" stroke="black" points="4359.5,-139 4060.5,-139 4060.5,-103 4359.5,-103 4359.5,-139"/>
<text text-anchor="middle" x="4210" y="-117.3" font-family="Times,serif" font-size="14.00">1_fwatchdog#ServerID_d68681b9e3dc</text>
</g>
<!-- 10.1.80.183:45928#ServerID_OuterContainerID&#45;&gt;1_fwatchdog#ServerID_d68681b9e3dc -->
<g id="edge20" class="edge"><title>10.1.80.183:45928#ServerID_OuterContainerID&#45;&gt;1_fwatchdog#ServerID_d68681b9e3dc</title>
<path fill="none" stroke="black" d="M2500.46,-198.647C2558.34,-195.758 2624.09,-192.596 2684,-190 3290.08,-163.738 3442.88,-182.014 4048,-139 4048.77,-138.945 4049.54,-138.89 4050.31,-138.834"/>
<polygon fill="black" stroke="black" points="4050.71,-142.313 4060.42,-138.066 4050.18,-135.334 4050.71,-142.313"/>
<text text-anchor="middle" x="3748.5" y="-160.8" font-family="Times,serif" font-size="14.00">read</text>
</g>
<!-- 10.1.80.183:59326#ServerID_OuterContainerID&#45;&gt;1_fwatchdog#ServerID_6dcbcc88d5&#45;mp48t -->
<g id="edge4" class="edge"><title>10.1.80.183:59326#ServerID_OuterContainerID&#45;&gt;1_fwatchdog#ServerID_6dcbcc88d5&#45;mp48t</title>
<path fill="none" stroke="black" d="M1608.83,-223.916C1561.34,-240.463 1480.6,-266.592 1409,-280 1330.49,-294.701 1242.51,-303.231 1167.67,-308.178"/>
<polygon fill="black" stroke="black" points="1167.42,-304.686 1157.67,-308.823 1167.87,-311.672 1167.42,-304.686"/>
<text text-anchor="middle" x="1490" y="-268.8" font-family="Times,serif" font-size="14.00">POST</text>
</g>
<!-- 1_fwatchdog#ServerID_e47e2b15aff4 -->
<g id="node9" class="node"><title>1_fwatchdog#ServerID_e47e2b15aff4</title>
<polygon fill="none" stroke="black" points="3276,-529 2986,-529 2986,-493 3276,-493 3276,-529"/>
<text text-anchor="middle" x="3131" y="-507.3" font-family="Times,serif" font-size="14.00">1_fwatchdog#ServerID_e47e2b15aff4</text>
</g>
<!-- 10.1.80.183:59326#ServerID_OuterContainerID&#45;&gt;1_fwatchdog#ServerID_e47e2b15aff4 -->
<g id="edge12" class="edge"><title>10.1.80.183:59326#ServerID_OuterContainerID&#45;&gt;1_fwatchdog#ServerID_e47e2b15aff4</title>
<path fill="none" stroke="black" d="M1723.73,-222.103C1793.38,-233.804 1900.91,-250.124 1995,-257 2110.69,-265.455 2924.06,-249.302 3039,-265 3277.1,-297.52 3414.9,-215.198 3561,-406 3570.73,-418.703 3571.39,-429.835 3561,-442 3525.71,-483.307 3394.45,-499.665 3286.14,-506.069"/>
<polygon fill="black" stroke="black" points="3285.85,-502.579 3276.07,-506.64 3286.25,-509.568 3285.85,-502.579"/>
<text text-anchor="middle" x="3561.5" y="-376.8" font-family="Times,serif" font-size="14.00">read</text>
</g>
<!-- 10.1.80.183:8080#ServerID_OuterContainerID&#45;&gt;1_fwatchdog#ServerID_6dcbcc88d5&#45;mp48t -->
<g id="edge6" class="edge"><title>10.1.80.183:8080#ServerID_OuterContainerID&#45;&gt;1_fwatchdog#ServerID_6dcbcc88d5&#45;mp48t</title>
<path fill="none" stroke="black" d="M421.02,-221.743C534.646,-240.301 746.381,-274.883 877.636,-296.321"/>
<polygon fill="black" stroke="black" points="877.293,-299.811 887.727,-297.969 878.422,-292.903 877.293,-299.811"/>
<text text-anchor="middle" x="806" y="-268.8" font-family="Times,serif" font-size="14.00">RESPONSE</text>
</g>
<!-- 10.1.80.1:7986#ServerID_OuterContainerID -->
<g id="node19" class="node"><title>10.1.80.1:7986#ServerID_OuterContainerID</title>
<polygon fill="none" stroke="black" points="1015,-139 704.15,-121 1015,-103 1325.85,-121 1015,-139"/>
<text text-anchor="middle" x="1015" y="-117.3" font-family="Times,serif" font-size="14.00">10.1.80.1:7986#ServerID_OuterContainerID</text>
</g>
<!-- 10.1.80.183:8080#ServerID_OuterContainerID&#45;&gt;10.1.80.1:7986#ServerID_OuterContainerID -->
<g id="edge26" class="edge"><title>10.1.80.183:8080#ServerID_OuterContainerID&#45;&gt;10.1.80.1:7986#ServerID_OuterContainerID</title>
<path fill="none" stroke="black" d="M395.973,-192.809C440.696,-181.375 506.596,-165.801 565,-157 654.165,-143.563 754.093,-135.134 837.093,-129.926"/>
<polygon fill="black" stroke="black" points="837.364,-133.416 847.129,-129.306 836.933,-126.429 837.364,-133.416"/>
<text text-anchor="middle" x="607" y="-160.8" font-family="Times,serif" font-size="14.00">RESPONSE</text>
</g>
<!-- 10.0.88.125:31112#ServerID_OuterContainerID -->
<g id="node20" class="node"><title>10.0.88.125:31112#ServerID_OuterContainerID</title>
<polygon fill="none" stroke="black" points="351,-139 15.5152,-121 351,-103 686.485,-121 351,-139"/>
<text text-anchor="middle" x="351" y="-117.3" font-family="Times,serif" font-size="14.00">10.0.88.125:31112#ServerID_OuterContainerID</text>
</g>
<!-- 10.1.80.183:8080#ServerID_OuterContainerID&#45;&gt;10.0.88.125:31112#ServerID_OuterContainerID -->
<g id="edge27" class="edge"><title>10.1.80.183:8080#ServerID_OuterContainerID&#45;&gt;10.0.88.125:31112#ServerID_OuterContainerID</title>
<path fill="none" stroke="black" d="M344.619,-189.799C345.714,-178.163 347.184,-162.548 348.437,-149.237"/>
<polygon fill="black" stroke="black" points="351.931,-149.459 349.383,-139.175 344.962,-148.803 351.931,-149.459"/>
<text text-anchor="middle" x="390" y="-160.8" font-family="Times,serif" font-size="14.00">RESPONSE</text>
</g>
<!-- 10.1.80.183:57550#ServerID_OuterContainerID -->
<g id="node7" class="node"><title>10.1.80.183:57550#ServerID_OuterContainerID</title>
<polygon fill="none" stroke="black" points="3701,-226 3365.52,-208 3701,-190 4036.48,-208 3701,-226"/>
<text text-anchor="middle" x="3701" y="-204.3" font-family="Times,serif" font-size="14.00">10.1.80.183:57550#ServerID_OuterContainerID</text>
</g>
<!-- 1_fwatchdog#ServerID_76c96688d7&#45;9bscs -->
<g id="node8" class="node"><title>1_fwatchdog#ServerID_76c96688d7&#45;9bscs</title>
<polygon fill="none" stroke="black" points="3934.5,-334 3607.5,-334 3607.5,-298 3934.5,-298 3934.5,-334"/>
<text text-anchor="middle" x="3771" y="-312.3" font-family="Times,serif" font-size="14.00">1_fwatchdog#ServerID_76c96688d7&#45;9bscs</text>
</g>
<!-- 10.1.80.183:57550#ServerID_OuterContainerID&#45;&gt;1_fwatchdog#ServerID_76c96688d7&#45;9bscs -->
<g id="edge8" class="edge"><title>10.1.80.183:57550#ServerID_OuterContainerID&#45;&gt;1_fwatchdog#ServerID_76c96688d7&#45;9bscs</title>
<path fill="none" stroke="black" d="M3697.56,-225.91C3695.39,-241.257 3694.68,-263.887 3705,-280 3707.86,-284.459 3711.48,-288.386 3715.55,-291.837"/>
<polygon fill="black" stroke="black" points="3713.72,-294.832 3723.86,-297.902 3717.85,-289.178 3713.72,-294.832"/>
<text text-anchor="middle" x="3725" y="-268.8" font-family="Times,serif" font-size="14.00">POST</text>
</g>
<!-- 1_fwatchdog#ServerID_76c96688d7&#45;9bscs&#45;&gt;10.1.80.183:57550#ServerID_OuterContainerID -->
<g id="edge10" class="edge"><title>1_fwatchdog#ServerID_76c96688d7&#45;9bscs&#45;&gt;10.1.80.183:57550#ServerID_OuterContainerID</title>
<path fill="none" stroke="black" d="M3763.09,-297.894C3758.29,-288.025 3751.79,-275.525 3745,-265 3738.06,-254.231 3729.52,-243.003 3721.82,-233.453"/>
<polygon fill="black" stroke="black" points="3724.39,-231.056 3715.34,-225.546 3718.97,-235.496 3724.39,-231.056"/>
<text text-anchor="middle" x="3796" y="-268.8" font-family="Times,serif" font-size="14.00">RESPONSE</text>
</g>
<!-- localhost:3000#ServerID_e47e2b15aff4 -->
<g id="node10" class="node"><title>localhost:3000#ServerID_e47e2b15aff4</title>
<polygon fill="none" stroke="black" points="2854,-442 2574.65,-424 2854,-406 3133.35,-424 2854,-442"/>
<text text-anchor="middle" x="2854" y="-420.3" font-family="Times,serif" font-size="14.00">localhost:3000#ServerID_e47e2b15aff4</text>
</g>
<!-- 1_fwatchdog#ServerID_e47e2b15aff4&#45;&gt;localhost:3000#ServerID_e47e2b15aff4 -->
<g id="edge9" class="edge"><title>1_fwatchdog#ServerID_e47e2b15aff4&#45;&gt;localhost:3000#ServerID_e47e2b15aff4</title>
<path fill="none" stroke="black" d="M3075.28,-492.901C3027.09,-478.116 2957.8,-456.851 2909.64,-442.073"/>
<polygon fill="black" stroke="black" points="2910.59,-438.703 2900,-439.115 2908.53,-445.395 2910.59,-438.703"/>
<text text-anchor="middle" x="3029" y="-463.8" font-family="Times,serif" font-size="14.00">write</text>
</g>
<!-- 9_node#ServerID_e47e2b15aff4 -->
<g id="node12" class="node"><title>9_node#ServerID_e47e2b15aff4</title>
<polygon fill="none" stroke="black" points="3016,-334 2766,-334 2766,-298 3016,-298 3016,-334"/>
<text text-anchor="middle" x="2891" y="-312.3" font-family="Times,serif" font-size="14.00">9_node#ServerID_e47e2b15aff4</text>
</g>
<!-- localhost:3000#ServerID_e47e2b15aff4&#45;&gt;9_node#ServerID_e47e2b15aff4 -->
<g id="edge24" class="edge"><title>localhost:3000#ServerID_e47e2b15aff4&#45;&gt;9_node#ServerID_e47e2b15aff4</title>
<path fill="none" stroke="black" d="M2859.94,-405.969C2865.79,-389.224 2874.8,-363.41 2881.61,-343.892"/>
<polygon fill="black" stroke="black" points="2884.96,-344.935 2884.95,-334.341 2878.35,-342.629 2884.96,-344.935"/>
<text text-anchor="middle" x="2888.5" y="-376.8" font-family="Times,serif" font-size="14.00">read</text>
</g>
<!-- /etc/hosts#ServerID_e47e2b15aff4 -->
<g id="node11" class="node"><title>/etc/hosts#ServerID_e47e2b15aff4</title>
<ellipse fill="none" stroke="black" cx="2382" cy="-424" rx="174.669" ry="18"/>
<text text-anchor="middle" x="2382" y="-420.3" font-family="Times,serif" font-size="14.00">/etc/hosts#ServerID_e47e2b15aff4</text>
</g>
<!-- /etc/hosts#ServerID_e47e2b15aff4&#45;&gt;9_node#ServerID_e47e2b15aff4 -->
<g id="edge13" class="edge"><title>/etc/hosts#ServerID_e47e2b15aff4&#45;&gt;9_node#ServerID_e47e2b15aff4</title>
<path fill="none" stroke="black" d="M2455.74,-407.643C2546.57,-388.728 2700.89,-356.59 2799.28,-336.1"/>
<polygon fill="black" stroke="black" points="2800.14,-339.497 2809.22,-334.032 2798.71,-332.644 2800.14,-339.497"/>
<text text-anchor="middle" x="2638.5" y="-376.8" font-family="Times,serif" font-size="14.00">read</text>
</g>
<!-- 9_node#ServerID_e47e2b15aff4&#45;&gt;gateway:8080#ServerID_OuterContainerID -->
<g id="edge18" class="edge"><title>9_node#ServerID_e47e2b15aff4&#45;&gt;gateway:8080#ServerID_OuterContainerID</title>
<path fill="none" stroke="black" d="M2765.79,-310.465C2392.92,-296.955 1315.07,-257.856 1306,-257 1225.61,-249.41 1134.46,-234.801 1071.16,-223.684"/>
<polygon fill="black" stroke="black" points="1071.7,-220.225 1061.25,-221.931 1070.48,-227.119 1071.7,-220.225"/>
<text text-anchor="middle" x="1944" y="-268.8" font-family="Times,serif" font-size="14.00">connect</text>
</g>
<!-- 10.152.183.10:53#ServerID_OuterContainerID -->
<g id="node14" class="node"><title>10.152.183.10:53#ServerID_OuterContainerID</title>
<polygon fill="none" stroke="black" points="3020,-226 2692.56,-208 3020,-190 3347.44,-208 3020,-226"/>
<text text-anchor="middle" x="3020" y="-204.3" font-family="Times,serif" font-size="14.00">10.152.183.10:53#ServerID_OuterContainerID</text>
</g>
<!-- 9_node#ServerID_e47e2b15aff4&#45;&gt;10.152.183.10:53#ServerID_OuterContainerID -->
<g id="edge15" class="edge"><title>9_node#ServerID_e47e2b15aff4&#45;&gt;10.152.183.10:53#ServerID_OuterContainerID</title>
<path fill="none" stroke="black" d="M2940.59,-297.955C2950.92,-293.096 2961.3,-287.137 2970,-280 2985.25,-267.487 2997.97,-249.218 3006.77,-234.345"/>
<polygon fill="black" stroke="black" points="3009.84,-236.03 3011.72,-225.605 3003.75,-232.577 3009.84,-236.03"/>
<text text-anchor="middle" x="3010.5" y="-268.8" font-family="Times,serif" font-size="14.00">sendto</text>
</g>
<!-- /etc/resolv.conf#ServerID_e47e2b15aff4 -->
<g id="node13" class="node"><title>/etc/resolv.conf#ServerID_e47e2b15aff4</title>
<ellipse fill="none" stroke="black" cx="3352" cy="-424" rx="200.365" ry="18"/>
<text text-anchor="middle" x="3352" y="-420.3" font-family="Times,serif" font-size="14.00">/etc/resolv.conf#ServerID_e47e2b15aff4</text>
</g>
<!-- /etc/resolv.conf#ServerID_e47e2b15aff4&#45;&gt;9_node#ServerID_e47e2b15aff4 -->
<g id="edge14" class="edge"><title>/etc/resolv.conf#ServerID_e47e2b15aff4&#45;&gt;9_node#ServerID_e47e2b15aff4</title>
<path fill="none" stroke="black" d="M3282.48,-407.016C3200.26,-388.109 3063.44,-356.65 2975.26,-336.375"/>
<polygon fill="black" stroke="black" points="2975.82,-332.912 2965.29,-334.082 2974.25,-339.734 2975.82,-332.912"/>
<text text-anchor="middle" x="3206.5" y="-376.8" font-family="Times,serif" font-size="14.00">read</text>
</g>
<!-- 10.152.183.10:53#ServerID_OuterContainerID&#45;&gt;9_node#ServerID_e47e2b15aff4 -->
<g id="edge16" class="edge"><title>10.152.183.10:53#ServerID_OuterContainerID&#45;&gt;9_node#ServerID_e47e2b15aff4</title>
<path fill="none" stroke="black" d="M2963.41,-222.97C2940.42,-231.447 2915.64,-244.689 2900,-265 2895.06,-271.414 2892.51,-279.656 2891.26,-287.591"/>
<polygon fill="black" stroke="black" points="2887.77,-287.375 2890.29,-297.665 2894.73,-288.047 2887.77,-287.375"/>
<text text-anchor="middle" x="2933" y="-268.8" font-family="Times,serif" font-size="14.00">recvfrom</text>
</g>
<!-- localhost:3000#ServerID_d68681b9e3dc -->
<g id="node15" class="node"><title>localhost:3000#ServerID_d68681b9e3dc</title>
<polygon fill="none" stroke="black" points="4349,-226 4062.45,-208 4349,-190 4635.55,-208 4349,-226"/>
<text text-anchor="middle" x="4349" y="-204.3" font-family="Times,serif" font-size="14.00">localhost:3000#ServerID_d68681b9e3dc</text>
</g>
<!-- localhost:3000#ServerID_d68681b9e3dc&#45;&gt;1_fwatchdog#ServerID_d68681b9e3dc -->
<g id="edge17" class="edge"><title>localhost:3000#ServerID_d68681b9e3dc&#45;&gt;1_fwatchdog#ServerID_d68681b9e3dc</title>
<path fill="none" stroke="black" d="M4345.77,-189.974C4342.87,-179.123 4337.54,-165.546 4328,-157 4322.18,-151.785 4315.62,-147.347 4308.64,-143.568"/>
<polygon fill="black" stroke="black" points="4310.13,-140.398 4299.61,-139.126 4307.04,-146.68 4310.13,-140.398"/>
<text text-anchor="middle" x="4354.5" y="-160.8" font-family="Times,serif" font-size="14.00">read</text>
</g>
<!-- 10_node#ServerID_d68681b9e3dc -->
<g id="node17" class="node"><title>10_node#ServerID_d68681b9e3dc</title>
<polygon fill="none" stroke="black" points="4644.5,-139 4377.5,-139 4377.5,-103 4644.5,-103 4644.5,-139"/>
<text text-anchor="middle" x="4511" y="-117.3" font-family="Times,serif" font-size="14.00">10_node#ServerID_d68681b9e3dc</text>
</g>
<!-- localhost:3000#ServerID_d68681b9e3dc&#45;&gt;10_node#ServerID_d68681b9e3dc -->
<g id="edge22" class="edge"><title>localhost:3000#ServerID_d68681b9e3dc&#45;&gt;10_node#ServerID_d68681b9e3dc</title>
<path fill="none" stroke="black" d="M4377.96,-191.804C4403.42,-178.446 4440.77,-158.849 4469.42,-143.816"/>
<polygon fill="black" stroke="black" points="4471.16,-146.855 4478.39,-139.11 4467.91,-140.657 4471.16,-146.855"/>
<text text-anchor="middle" x="4455.5" y="-160.8" font-family="Times,serif" font-size="14.00">read</text>
</g>
<!-- 1_fwatchdog#ServerID_d68681b9e3dc&#45;&gt;localhost:3000#ServerID_d68681b9e3dc -->
<g id="edge19" class="edge"><title>1_fwatchdog#ServerID_d68681b9e3dc&#45;&gt;localhost:3000#ServerID_d68681b9e3dc</title>
<path fill="none" stroke="black" d="M4204.56,-139.47C4202.43,-149.956 4201.95,-162.967 4209,-172 4215.85,-180.773 4234.81,-187.672 4256.65,-192.942"/>
<polygon fill="black" stroke="black" points="4255.98,-196.378 4266.5,-195.175 4257.52,-189.551 4255.98,-196.378"/>
<text text-anchor="middle" x="4238" y="-160.8" font-family="Times,serif" font-size="14.00">connect</text>
</g>
<!-- 1_fwatchdog#ServerID_d68681b9e3dc&#45;&gt;localhost:3000#ServerID_d68681b9e3dc -->
<g id="edge21" class="edge"><title>1_fwatchdog#ServerID_d68681b9e3dc&#45;&gt;localhost:3000#ServerID_d68681b9e3dc</title>
<path fill="none" stroke="black" d="M4239.42,-139.158C4248.41,-144.644 4258.24,-150.884 4267,-157 4275.82,-163.159 4277.05,-166.035 4286,-172 4293.72,-177.145 4302.26,-182.247 4310.49,-186.899"/>
<polygon fill="black" stroke="black" points="4308.8,-189.966 4319.25,-191.751 4312.2,-183.843 4308.8,-189.966"/>
<text text-anchor="middle" x="4305" y="-160.8" font-family="Times,serif" font-size="14.00">write</text>
</g>
<!-- pipe:[77302415]#ServerID_d68681b9e3dc -->
<g id="node18" class="node"><title>pipe:[77302415]#ServerID_d68681b9e3dc</title>
<ellipse fill="none" stroke="black" cx="4271" cy="-34" rx="211.463" ry="18"/>
<text text-anchor="middle" x="4271" y="-30.3" font-family="Times,serif" font-size="14.00">pipe:[77302415]#ServerID_d68681b9e3dc</text>
</g>
<!-- 1_fwatchdog#ServerID_d68681b9e3dc&#45;&gt;pipe:[77302415]#ServerID_d68681b9e3dc -->
<g id="edge23" class="edge"><title>1_fwatchdog#ServerID_d68681b9e3dc&#45;&gt;pipe:[77302415]#ServerID_d68681b9e3dc</title>
<path fill="none" stroke="black" d="M4222.34,-102.799C4231.03,-90.7017 4242.79,-74.3049 4252.58,-60.6665"/>
<polygon fill="black" stroke="black" points="4255.69,-62.3405 4258.67,-52.1754 4250,-58.2592 4255.69,-62.3405"/>
<text text-anchor="middle" x="4264" y="-73.8" font-family="Times,serif" font-size="14.00">write</text>
</g>
<!-- 10.1.80.1:7986#ServerID_OuterContainerID&#45;&gt;10.1.80.183:8080#ServerID_OuterContainerID -->
<g id="edge25" class="edge"><title>10.1.80.1:7986#ServerID_OuterContainerID&#45;&gt;10.1.80.183:8080#ServerID_OuterContainerID</title>
<path fill="none" stroke="black" d="M931.323,-134.158C858.002,-144.667 748.527,-160.012 653,-172 588.61,-180.081 516.585,-188.264 458.177,-194.684"/>
<polygon fill="black" stroke="black" points="457.74,-191.211 448.181,-195.78 458.503,-198.169 457.74,-191.211"/>
<text text-anchor="middle" x="783" y="-160.8" font-family="Times,serif" font-size="14.00">POST</text>
</g>
</g>
</svg>
