<?xml version="1.0" encoding="UTF-8" standalone="no"?>
<!DOCTYPE svg PUBLIC "-//W3C//DTD SVG 1.1//EN"
 "http://www.w3.org/Graphics/SVG/1.1/DTD/svg11.dtd">
<!-- Generated by graphviz version 2.38.0 (20140413.2041)
 -->
<!-- Title: G Pages: 1 -->
<svg width="7846pt" height="510pt"
 viewBox="0.00 0.00 7846.00 510.00" xmlns="http://www.w3.org/2000/svg" xmlns:xlink="http://www.w3.org/1999/xlink">
<g id="graph0" class="graph" transform="scale(1 1) rotate(0) translate(4 506)">
<title>G</title>
<polygon fill="white" stroke="none" points="-4,4 -4,-506 7842,-506 7842,4 -4,4"/>
<g id="clust1" class="cluster"><title>clusterServerID_0802701be25e</title>
<polygon fill="none" stroke="black" points="6434,-116 6434,-494 7830,-494 7830,-116 6434,-116"/>
<text text-anchor="middle" x="7132" y="-478.8" font-family="Times,serif" font-size="14.00">clusterServerID_0802701be25e</text>
</g>
<g id="clust2" class="cluster"><title>clusterServerID_667d78fb58&#45;55kvm</title>
<polygon fill="none" stroke="black" points="2755,-224 2755,-299 3103,-299 3103,-224 2755,-224"/>
<text text-anchor="middle" x="2929" y="-283.8" font-family="Times,serif" font-size="14.00">clusterServerID_667d78fb58&#45;55kvm</text>
</g>
<g id="clust3" class="cluster"><title>clusterServerID_6dcbcc88d5&#45;j9zwp</title>
<polygon fill="none" stroke="black" points="1419,-8 1419,-83 1761,-83 1761,-8 1419,-8"/>
<text text-anchor="middle" x="1590" y="-67.8" font-family="Times,serif" font-size="14.00">clusterServerID_6dcbcc88d5&#45;j9zwp</text>
</g>
<g id="clust4" class="cluster"><title>clusterServerID_736074b81582</title>
<polygon fill="none" stroke="black" points="8,-8 8,-299 1411,-299 1411,-8 8,-8"/>
<text text-anchor="middle" x="709.5" y="-283.8" font-family="Times,serif" font-size="14.00">clusterServerID_736074b81582</text>
</g>
<g id="clust5" class="cluster"><title>clusterServerID_OuterContainerID</title>
<polygon fill="none" stroke="black" points="1769,-8 1769,-191 6426,-191 6426,-8 1769,-8"/>
<text text-anchor="middle" x="4097.5" y="-175.8" font-family="Times,serif" font-size="14.00">clusterServerID_OuterContainerID</text>
</g>
<!-- 10.1.80.93:33798#ServerID_OuterContainerID -->
<g id="node1" class="node"><title>10.1.80.93:33798#ServerID_OuterContainerID</title>
<polygon fill="none" stroke="black" points="2776,-160 2448.56,-142 2776,-124 3103.44,-142 2776,-160"/>
<text text-anchor="middle" x="2776" y="-138.3" font-family="Times,serif" font-size="14.00">10.1.80.93:33798#ServerID_OuterContainerID</text>
</g>
<!-- 1_fwatchdog#ServerID_667d78fb58&#45;55kvm -->
<g id="node2" class="node"><title>1_fwatchdog#ServerID_667d78fb58&#45;55kvm</title>
<polygon fill="none" stroke="black" points="3095,-268 2763,-268 2763,-232 3095,-232 3095,-268"/>
<text text-anchor="middle" x="2929" y="-246.3" font-family="Times,serif" font-size="14.00">1_fwatchdog#ServerID_667d78fb58&#45;55kvm</text>
</g>
<!-- 10.1.80.93:33798#ServerID_OuterContainerID&#45;&gt;1_fwatchdog#ServerID_667d78fb58&#45;55kvm -->
<g id="edge1" class="edge"><title>10.1.80.93:33798#ServerID_OuterContainerID&#45;&gt;1_fwatchdog#ServerID_667d78fb58&#45;55kvm</title>
<path fill="none" stroke="black" d="M2788.22,-159.596C2800.56,-175.371 2820.91,-198.87 2843,-214 2850.52,-219.15 2858.92,-223.733 2867.43,-227.747"/>
<polygon fill="black" stroke="black" points="2866.12,-230.997 2876.68,-231.881 2868.98,-224.606 2866.12,-230.997"/>
<text text-anchor="middle" x="2863" y="-202.8" font-family="Times,serif" font-size="14.00">POST</text>
</g>
<!-- 1_fwatchdog#ServerID_0802701be25e -->
<g id="node13" class="node"><title>1_fwatchdog#ServerID_0802701be25e</title>
<polygon fill="none" stroke="black" points="6809.5,-463 6510.5,-463 6510.5,-427 6809.5,-427 6809.5,-463"/>
<text text-anchor="middle" x="6660" y="-441.3" font-family="Times,serif" font-size="14.00">1_fwatchdog#ServerID_0802701be25e</text>
</g>
<!-- 10.1.80.93:33798#ServerID_OuterContainerID&#45;&gt;1_fwatchdog#ServerID_0802701be25e -->
<g id="edge17" class="edge"><title>10.1.80.93:33798#ServerID_OuterContainerID&#45;&gt;1_fwatchdog#ServerID_0802701be25e</title>
<path fill="none" stroke="black" d="M2765.53,-159.767C2747.13,-191.571 2714.27,-260.88 2751,-299 2883.06,-436.054 5782.21,-444.263 6500.23,-444.188"/>
<polygon fill="black" stroke="black" points="6500.39,-447.688 6510.38,-444.186 6500.38,-440.688 6500.39,-447.688"/>
<text text-anchor="middle" x="2811.5" y="-310.8" font-family="Times,serif" font-size="14.00">read</text>
</g>
<!-- 1_fwatchdog#ServerID_667d78fb58&#45;55kvm&#45;&gt;10.1.80.93:33798#ServerID_OuterContainerID -->
<g id="edge3" class="edge"><title>1_fwatchdog#ServerID_667d78fb58&#45;55kvm&#45;&gt;10.1.80.93:33798#ServerID_OuterContainerID</title>
<path fill="none" stroke="black" d="M2915.77,-231.844C2907.2,-221.477 2895.35,-208.48 2883,-199 2864.19,-184.564 2841.12,-171.954 2821.22,-162.374"/>
<polygon fill="black" stroke="black" points="2822.57,-159.142 2812.03,-158.055 2819.6,-165.477 2822.57,-159.142"/>
<text text-anchor="middle" x="2942" y="-202.8" font-family="Times,serif" font-size="14.00">RESPONSE</text>
</g>
<!-- 10.1.80.93:8080#ServerID_OuterContainerID -->
<g id="node3" class="node"><title>10.1.80.93:8080#ServerID_OuterContainerID</title>
<polygon fill="none" stroke="black" points="6099,-160 5780.1,-142 6099,-124 6417.9,-142 6099,-160"/>
<text text-anchor="middle" x="6099" y="-138.3" font-family="Times,serif" font-size="14.00">10.1.80.93:8080#ServerID_OuterContainerID</text>
</g>
<!-- 1_fwatchdog#ServerID_6dcbcc88d5&#45;j9zwp -->
<g id="node4" class="node"><title>1_fwatchdog#ServerID_6dcbcc88d5&#45;j9zwp</title>
<polygon fill="none" stroke="black" points="1753,-52 1427,-52 1427,-16 1753,-16 1753,-52"/>
<text text-anchor="middle" x="1590" y="-30.3" font-family="Times,serif" font-size="14.00">1_fwatchdog#ServerID_6dcbcc88d5&#45;j9zwp</text>
</g>
<!-- 10.1.80.93:8080#ServerID_OuterContainerID&#45;&gt;1_fwatchdog#ServerID_6dcbcc88d5&#45;j9zwp -->
<g id="edge2" class="edge"><title>10.1.80.93:8080#ServerID_OuterContainerID&#45;&gt;1_fwatchdog#ServerID_6dcbcc88d5&#45;j9zwp</title>
<path fill="none" stroke="black" d="M5982.97,-130.544C5920.26,-125.3 5841.45,-119.363 5771,-116 5483.94,-102.296 4765.37,-94.2016 4478,-91 4402.64,-90.1604 1839.67,-93.1672 1765,-83 1725.37,-77.6035 1682,-65.7529 1648.35,-55.1776"/>
<polygon fill="black" stroke="black" points="1649.28,-51.7985 1638.68,-52.0906 1647.15,-58.4668 1649.28,-51.7985"/>
<text text-anchor="middle" x="5490" y="-94.8" font-family="Times,serif" font-size="14.00">RESPONSE</text>
</g>
<!-- 10.1.80.1:60141#ServerID_OuterContainerID -->
<g id="node21" class="node"><title>10.1.80.1:60141#ServerID_OuterContainerID</title>
<polygon fill="none" stroke="black" points="5411,-52 5092.1,-34 5411,-16 5729.9,-34 5411,-52"/>
<text text-anchor="middle" x="5411" y="-30.3" font-family="Times,serif" font-size="14.00">10.1.80.1:60141#ServerID_OuterContainerID</text>
</g>
<!-- 10.1.80.93:8080#ServerID_OuterContainerID&#45;&gt;10.1.80.1:60141#ServerID_OuterContainerID -->
<g id="edge29" class="edge"><title>10.1.80.93:8080#ServerID_OuterContainerID&#45;&gt;10.1.80.1:60141#ServerID_OuterContainerID</title>
<path fill="none" stroke="black" d="M6018.05,-128.529C5888.88,-108.627 5636.97,-69.8145 5501.83,-48.9935"/>
<polygon fill="black" stroke="black" points="5502.32,-45.5284 5491.9,-47.4648 5501.25,-52.4468 5502.32,-45.5284"/>
<text text-anchor="middle" x="5899" y="-94.8" font-family="Times,serif" font-size="14.00">RESPONSE</text>
</g>
<!-- 10.0.88.125:31112#ServerID_OuterContainerID -->
<g id="node22" class="node"><title>10.0.88.125:31112#ServerID_OuterContainerID</title>
<polygon fill="none" stroke="black" points="6083,-52 5747.52,-34 6083,-16 6418.48,-34 6083,-52"/>
<text text-anchor="middle" x="6083" y="-30.3" font-family="Times,serif" font-size="14.00">10.0.88.125:31112#ServerID_OuterContainerID</text>
</g>
<!-- 10.1.80.93:8080#ServerID_OuterContainerID&#45;&gt;10.0.88.125:31112#ServerID_OuterContainerID -->
<g id="edge30" class="edge"><title>10.1.80.93:8080#ServerID_OuterContainerID&#45;&gt;10.0.88.125:31112#ServerID_OuterContainerID</title>
<path fill="none" stroke="black" d="M6096.43,-123.969C6093.91,-107.279 6090.03,-81.5788 6087.09,-62.0839"/>
<polygon fill="black" stroke="black" points="6090.52,-61.354 6085.56,-51.9885 6083.6,-62.3989 6090.52,-61.354"/>
<text text-anchor="middle" x="6136" y="-94.8" font-family="Times,serif" font-size="14.00">RESPONSE</text>
</g>
<!-- 1_fwatchdog#ServerID_6dcbcc88d5&#45;j9zwp&#45;&gt;10.1.80.93:8080#ServerID_OuterContainerID -->
<g id="edge8" class="edge"><title>1_fwatchdog#ServerID_6dcbcc88d5&#45;j9zwp&#45;&gt;10.1.80.93:8080#ServerID_OuterContainerID</title>
<path fill="none" stroke="black" d="M1638.69,-52.0873C1673.4,-63.3456 1721.45,-77.0656 1765,-83 1834,-92.4036 4202.44,-87.6753 4272,-91 4344.23,-94.4521 4361.78,-102.393 4434,-106 4730.75,-120.821 5474.14,-103.591 5771,-116 5838.56,-118.824 5913.8,-124.384 5975.15,-129.545"/>
<polygon fill="black" stroke="black" points="5975.01,-133.045 5985.27,-130.403 5975.6,-126.07 5975.01,-133.045"/>
<text text-anchor="middle" x="4454" y="-94.8" font-family="Times,serif" font-size="14.00">POST</text>
</g>
<!-- 10.1.80.93:55136#ServerID_OuterContainerID -->
<g id="node5" class="node"><title>10.1.80.93:55136#ServerID_OuterContainerID</title>
<polygon fill="none" stroke="black" points="4746,-160 4418.56,-142 4746,-124 5073.44,-142 4746,-160"/>
<text text-anchor="middle" x="4746" y="-138.3" font-family="Times,serif" font-size="14.00">10.1.80.93:55136#ServerID_OuterContainerID</text>
</g>
<!-- 1_fwatchdog#ServerID_6dcbcc88d5&#45;j9zwp&#45;&gt;10.1.80.93:55136#ServerID_OuterContainerID -->
<g id="edge4" class="edge"><title>1_fwatchdog#ServerID_6dcbcc88d5&#45;j9zwp&#45;&gt;10.1.80.93:55136#ServerID_OuterContainerID</title>
<path fill="none" stroke="black" d="M1638.69,-52.0657C1673.41,-63.3139 1721.46,-77.0307 1765,-83 1810.96,-89.3008 3388.62,-90.2943 3435,-91 3868.43,-97.5942 3977.06,-94.3562 4410,-116 4477.79,-119.389 4553.16,-124.842 4615.31,-129.792"/>
<polygon fill="black" stroke="black" points="4615.32,-133.304 4625.57,-130.614 4615.88,-126.326 4615.32,-133.304"/>
<text text-anchor="middle" x="4226" y="-94.8" font-family="Times,serif" font-size="14.00">RESPONSE</text>
</g>
<!-- gateway:8080#ServerID_OuterContainerID -->
<g id="node6" class="node"><title>gateway:8080#ServerID_OuterContainerID</title>
<polygon fill="none" stroke="black" points="4097,-160 3792.52,-142 4097,-124 4401.48,-142 4097,-160"/>
<text text-anchor="middle" x="4097" y="-138.3" font-family="Times,serif" font-size="14.00">gateway:8080#ServerID_OuterContainerID</text>
</g>
<!-- 1_fwatchdog#ServerID_6dcbcc88d5&#45;j9zwp&#45;&gt;gateway:8080#ServerID_OuterContainerID -->
<g id="edge7" class="edge"><title>1_fwatchdog#ServerID_6dcbcc88d5&#45;j9zwp&#45;&gt;gateway:8080#ServerID_OuterContainerID</title>
<path fill="none" stroke="black" d="M1638.69,-52.033C1673.41,-63.266 1721.47,-76.9781 1765,-83 1826.09,-91.4499 2813.34,-89.7595 2875,-91 3076.85,-95.0612 3127.19,-100.449 3329,-106 3531.19,-111.562 3581.99,-105.721 3784,-116 3847.3,-119.221 3917.67,-124.673 3975.62,-129.665"/>
<polygon fill="black" stroke="black" points="3975.66,-133.181 3985.92,-130.559 3976.26,-126.207 3975.66,-133.181"/>
<text text-anchor="middle" x="3349" y="-94.8" font-family="Times,serif" font-size="14.00">POST</text>
</g>
<!-- 10.1.80.93:55136#ServerID_OuterContainerID&#45;&gt;1_fwatchdog#ServerID_6dcbcc88d5&#45;j9zwp -->
<g id="edge6" class="edge"><title>10.1.80.93:55136#ServerID_OuterContainerID&#45;&gt;1_fwatchdog#ServerID_6dcbcc88d5&#45;j9zwp</title>
<path fill="none" stroke="black" d="M4628.71,-130.41C4564.22,-125.057 4482.76,-119.061 4410,-116 4381.72,-114.81 3418.01,-114.477 3391,-106 3379.71,-102.456 3380.3,-94.5165 3369,-91 3326.46,-77.7603 1809.14,-89.0562 1765,-83 1725.37,-77.5631 1682.01,-65.7122 1648.36,-55.1468"/>
<polygon fill="black" stroke="black" points="1649.28,-51.7676 1638.69,-52.063 1647.15,-58.4365 1649.28,-51.7676"/>
<text text-anchor="middle" x="3411" y="-94.8" font-family="Times,serif" font-size="14.00">POST</text>
</g>
<!-- 1_fwatchdog#ServerID_736074b81582 -->
<g id="node7" class="node"><title>1_fwatchdog#ServerID_736074b81582</title>
<polygon fill="none" stroke="black" points="1403,-268 1103,-268 1103,-232 1403,-232 1403,-268"/>
<text text-anchor="middle" x="1253" y="-246.3" font-family="Times,serif" font-size="14.00">1_fwatchdog#ServerID_736074b81582</text>
</g>
<!-- 10.1.80.93:55136#ServerID_OuterContainerID&#45;&gt;1_fwatchdog#ServerID_736074b81582 -->
<g id="edge10" class="edge"><title>10.1.80.93:55136#ServerID_OuterContainerID&#45;&gt;1_fwatchdog#ServerID_736074b81582</title>
<path fill="none" stroke="black" d="M4674.54,-156.108C4606.73,-167.856 4501.82,-184.247 4410,-191 4230.26,-204.219 2968.19,-195.622 2788,-199 2286.19,-208.409 1692.42,-231.014 1413.24,-242.322"/>
<polygon fill="black" stroke="black" points="1412.88,-238.834 1403.03,-242.736 1413.17,-245.828 1412.88,-238.834"/>
<text text-anchor="middle" x="2804.5" y="-202.8" font-family="Times,serif" font-size="14.00">read</text>
</g>
<!-- gateway:8080#ServerID_OuterContainerID&#45;&gt;1_fwatchdog#ServerID_6dcbcc88d5&#45;j9zwp -->
<g id="edge5" class="edge"><title>gateway:8080#ServerID_OuterContainerID&#45;&gt;1_fwatchdog#ServerID_6dcbcc88d5&#45;j9zwp</title>
<path fill="none" stroke="black" d="M3988.11,-130.43C3927.99,-125.066 3851.94,-119.052 3784,-116 3563.54,-106.098 3011.65,-109.585 2791,-106 2493.63,-101.169 2419.33,-97.6648 2122,-91 2042.67,-89.2217 1843.52,-94.4702 1765,-83 1725.7,-77.2597 1682.68,-65.5341 1649.12,-55.1096"/>
<polygon fill="black" stroke="black" points="1650.06,-51.7367 1639.47,-52.0675 1647.96,-58.4127 1650.06,-51.7367"/>
<text text-anchor="middle" x="2833" y="-94.8" font-family="Times,serif" font-size="14.00">RESPONSE</text>
</g>
<!-- localhost:3000#ServerID_736074b81582 -->
<g id="node8" class="node"><title>localhost:3000#ServerID_736074b81582</title>
<polygon fill="none" stroke="black" points="1114,-160 825.269,-142 1114,-124 1402.73,-142 1114,-160"/>
<text text-anchor="middle" x="1114" y="-138.3" font-family="Times,serif" font-size="14.00">localhost:3000#ServerID_736074b81582</text>
</g>
<!-- 1_fwatchdog#ServerID_736074b81582&#45;&gt;localhost:3000#ServerID_736074b81582 -->
<g id="edge9" class="edge"><title>1_fwatchdog#ServerID_736074b81582&#45;&gt;localhost:3000#ServerID_736074b81582</title>
<path fill="none" stroke="black" d="M1230.67,-231.969C1206.85,-213.803 1169.03,-184.963 1142.94,-165.068"/>
<polygon fill="black" stroke="black" points="1144.99,-162.229 1134.91,-158.948 1140.74,-167.795 1144.99,-162.229"/>
<text text-anchor="middle" x="1224" y="-202.8" font-family="Times,serif" font-size="14.00">write</text>
</g>
<!-- 10_node#ServerID_736074b81582 -->
<g id="node9" class="node"><title>10_node#ServerID_736074b81582</title>
<polygon fill="none" stroke="black" points="1325.5,-52 1056.5,-52 1056.5,-16 1325.5,-16 1325.5,-52"/>
<text text-anchor="middle" x="1191" y="-30.3" font-family="Times,serif" font-size="14.00">10_node#ServerID_736074b81582</text>
</g>
<!-- localhost:3000#ServerID_736074b81582&#45;&gt;10_node#ServerID_736074b81582 -->
<g id="edge11" class="edge"><title>localhost:3000#ServerID_736074b81582&#45;&gt;10_node#ServerID_736074b81582</title>
<path fill="none" stroke="black" d="M1126.03,-124.438C1138.48,-107.294 1158.1,-80.2909 1172.52,-60.4376"/>
<polygon fill="black" stroke="black" points="1175.5,-62.2962 1178.54,-52.1485 1169.83,-58.1822 1175.5,-62.2962"/>
<text text-anchor="middle" x="1167.5" y="-94.8" font-family="Times,serif" font-size="14.00">read</text>
</g>
<!-- 10_node#ServerID_736074b81582&#45;&gt;gateway:8080#ServerID_OuterContainerID -->
<g id="edge16" class="edge"><title>10_node#ServerID_736074b81582&#45;&gt;gateway:8080#ServerID_OuterContainerID</title>
<path fill="none" stroke="black" d="M1254.17,-52.0432C1298.75,-63.2028 1360.06,-76.8231 1415,-83 1449.4,-86.8675 2004.99,-80.5849 2038,-91 2049.29,-94.5609 2048.7,-102.479 2060,-106 2105.72,-120.249 3736.15,-113.953 3784,-116 3848.49,-118.759 3920.27,-124.313 3978.82,-129.487"/>
<polygon fill="black" stroke="black" points="3978.57,-132.979 3988.84,-130.381 3979.19,-126.007 3978.57,-132.979"/>
<text text-anchor="middle" x="2089" y="-94.8" font-family="Times,serif" font-size="14.00">connect</text>
</g>
<!-- 10.152.183.10:53#ServerID_OuterContainerID -->
<g id="node12" class="node"><title>10.152.183.10:53#ServerID_OuterContainerID</title>
<polygon fill="none" stroke="black" points="3448,-160 3120.56,-142 3448,-124 3775.44,-142 3448,-160"/>
<text text-anchor="middle" x="3448" y="-138.3" font-family="Times,serif" font-size="14.00">10.152.183.10:53#ServerID_OuterContainerID</text>
</g>
<!-- 10_node#ServerID_736074b81582&#45;&gt;10.152.183.10:53#ServerID_OuterContainerID -->
<g id="edge14" class="edge"><title>10_node#ServerID_736074b81582&#45;&gt;10.152.183.10:53#ServerID_OuterContainerID</title>
<path fill="none" stroke="black" d="M1255.66,-52.0986C1300.12,-63.0542 1360.71,-76.4126 1415,-83 1531.09,-97.0867 1561.15,-86.4051 1678,-91 1816.28,-96.4373 1850.67,-102.05 1989,-106 2487.93,-120.248 2613.3,-95.249 3112,-116 3181.06,-118.874 3257.96,-124.421 3320.75,-129.562"/>
<polygon fill="black" stroke="black" points="3320.84,-133.082 3331.1,-130.416 3321.42,-126.106 3320.84,-133.082"/>
<text text-anchor="middle" x="2013.5" y="-94.8" font-family="Times,serif" font-size="14.00">sendto</text>
</g>
<!-- /etc/hosts#ServerID_736074b81582 -->
<g id="node10" class="node"><title>/etc/hosts#ServerID_736074b81582</title>
<ellipse fill="none" stroke="black" cx="627" cy="-142" rx="180.868" ry="18"/>
<text text-anchor="middle" x="627" y="-138.3" font-family="Times,serif" font-size="14.00">/etc/hosts#ServerID_736074b81582</text>
</g>
<!-- /etc/hosts#ServerID_736074b81582&#45;&gt;10_node#ServerID_736074b81582 -->
<g id="edge12" class="edge"><title>/etc/hosts#ServerID_736074b81582&#45;&gt;10_node#ServerID_736074b81582</title>
<path fill="none" stroke="black" d="M707.508,-125.869C808.299,-106.926 980.976,-74.4726 1090.38,-53.9107"/>
<polygon fill="black" stroke="black" points="1091.26,-57.3074 1100.44,-52.0205 1089.96,-50.4278 1091.26,-57.3074"/>
<text text-anchor="middle" x="909.5" y="-94.8" font-family="Times,serif" font-size="14.00">read</text>
</g>
<!-- /etc/resolv.conf#ServerID_736074b81582 -->
<g id="node11" class="node"><title>/etc/resolv.conf#ServerID_736074b81582</title>
<ellipse fill="none" stroke="black" cx="222" cy="-142" rx="206.063" ry="18"/>
<text text-anchor="middle" x="222" y="-138.3" font-family="Times,serif" font-size="14.00">/etc/resolv.conf#ServerID_736074b81582</text>
</g>
<!-- /etc/resolv.conf#ServerID_736074b81582&#45;&gt;10_node#ServerID_736074b81582 -->
<g id="edge13" class="edge"><title>/etc/resolv.conf#ServerID_736074b81582&#45;&gt;10_node#ServerID_736074b81582</title>
<path fill="none" stroke="black" d="M339.142,-127.191C370.89,-123.499 405.257,-119.551 437,-116 648.836,-92.3059 894.311,-66.1835 1046.14,-50.1816"/>
<polygon fill="black" stroke="black" points="1046.88,-53.6233 1056.46,-49.0947 1046.15,-46.6618 1046.88,-53.6233"/>
<text text-anchor="middle" x="661.5" y="-94.8" font-family="Times,serif" font-size="14.00">read</text>
</g>
<!-- 10.152.183.10:53#ServerID_OuterContainerID&#45;&gt;10_node#ServerID_736074b81582 -->
<g id="edge15" class="edge"><title>10.152.183.10:53#ServerID_OuterContainerID&#45;&gt;10_node#ServerID_736074b81582</title>
<path fill="none" stroke="black" d="M3331.49,-130.384C3266.88,-124.987 3185.06,-118.957 3112,-116 2778.04,-102.481 1941.57,-126.919 1608,-106 1521.78,-100.593 1500.21,-97.1763 1415,-83 1367.42,-75.0845 1314.65,-63.8961 1272.28,-54.3124"/>
<polygon fill="black" stroke="black" points="1272.83,-50.8474 1262.3,-52.0409 1271.28,-57.6729 1272.83,-50.8474"/>
<text text-anchor="middle" x="1641" y="-94.8" font-family="Times,serif" font-size="14.00">recvfrom</text>
</g>
<!-- 11_node#ServerID_0802701be25e -->
<g id="node15" class="node"><title>11_node#ServerID_0802701be25e</title>
<polygon fill="none" stroke="black" points="6747.5,-268 6480.5,-268 6480.5,-232 6747.5,-232 6747.5,-268"/>
<text text-anchor="middle" x="6614" y="-246.3" font-family="Times,serif" font-size="14.00">11_node#ServerID_0802701be25e</text>
</g>
<!-- 10.152.183.10:53#ServerID_OuterContainerID&#45;&gt;11_node#ServerID_0802701be25e -->
<g id="edge23" class="edge"><title>10.152.183.10:53#ServerID_OuterContainerID&#45;&gt;11_node#ServerID_0802701be25e</title>
<path fill="none" stroke="black" d="M3526.57,-155.689C3594.55,-166.317 3695.56,-181.268 3784,-191 3915.6,-205.48 3948.74,-207.971 4081,-214 4551.2,-235.433 6005.91,-245.493 6470.09,-248.215"/>
<polygon fill="black" stroke="black" points="6470.18,-251.715 6480.2,-248.274 6470.22,-244.716 6470.18,-251.715"/>
<text text-anchor="middle" x="4114" y="-202.8" font-family="Times,serif" font-size="14.00">recvfrom</text>
</g>
<!-- localhost:3000#ServerID_0802701be25e -->
<g id="node14" class="node"><title>localhost:3000#ServerID_0802701be25e</title>
<polygon fill="none" stroke="black" points="6729,-376 6442.45,-358 6729,-340 7015.55,-358 6729,-376"/>
<text text-anchor="middle" x="6729" y="-354.3" font-family="Times,serif" font-size="14.00">localhost:3000#ServerID_0802701be25e</text>
</g>
<!-- 1_fwatchdog#ServerID_0802701be25e&#45;&gt;localhost:3000#ServerID_0802701be25e -->
<g id="edge19" class="edge"><title>1_fwatchdog#ServerID_0802701be25e&#45;&gt;localhost:3000#ServerID_0802701be25e</title>
<path fill="none" stroke="black" d="M6673.96,-426.799C6684.17,-414.228 6698.14,-397.014 6709.45,-383.077"/>
<polygon fill="black" stroke="black" points="6712.17,-385.28 6715.76,-375.31 6706.74,-380.868 6712.17,-385.28"/>
<text text-anchor="middle" x="6717" y="-397.8" font-family="Times,serif" font-size="14.00">write</text>
</g>
<!-- localhost:3000#ServerID_0802701be25e&#45;&gt;11_node#ServerID_0802701be25e -->
<g id="edge18" class="edge"><title>localhost:3000#ServerID_0802701be25e&#45;&gt;11_node#ServerID_0802701be25e</title>
<path fill="none" stroke="black" d="M6711.53,-340.901C6692.62,-323.466 6662.23,-295.455 6640.4,-275.332"/>
<polygon fill="black" stroke="black" points="6642.5,-272.513 6632.78,-268.309 6637.76,-277.66 6642.5,-272.513"/>
<text text-anchor="middle" x="6704.5" y="-310.8" font-family="Times,serif" font-size="14.00">read</text>
</g>
<!-- 11_node#ServerID_0802701be25e&#45;&gt;10.152.183.10:53#ServerID_OuterContainerID -->
<g id="edge22" class="edge"><title>11_node#ServerID_0802701be25e&#45;&gt;10.152.183.10:53#ServerID_OuterContainerID</title>
<path fill="none" stroke="black" d="M6480.24,-246.367C5923.6,-235.398 3818,-193.767 3784,-191 3697.27,-183.943 3598.8,-169.056 3530.99,-157.72"/>
<polygon fill="black" stroke="black" points="3531.24,-154.213 3520.79,-156.004 3530.07,-161.116 3531.24,-154.213"/>
<text text-anchor="middle" x="4822.5" y="-202.8" font-family="Times,serif" font-size="14.00">sendto</text>
</g>
<!-- 182.255.35.53:443#ServerID_OuterContainerID -->
<g id="node19" class="node"><title>182.255.35.53:443#ServerID_OuterContainerID</title>
<polygon fill="none" stroke="black" points="5427,-160 5091.52,-142 5427,-124 5762.48,-142 5427,-160"/>
<text text-anchor="middle" x="5427" y="-138.3" font-family="Times,serif" font-size="14.00">182.255.35.53:443#ServerID_OuterContainerID</text>
</g>
<!-- 11_node#ServerID_0802701be25e&#45;&gt;182.255.35.53:443#ServerID_OuterContainerID -->
<g id="edge25" class="edge"><title>11_node#ServerID_0802701be25e&#45;&gt;182.255.35.53:443#ServerID_OuterContainerID</title>
<path fill="none" stroke="black" d="M6480.16,-242.686C6313.68,-234.167 6020.88,-216.997 5771,-191 5684.39,-181.99 5586.04,-167.872 5516.75,-157.276"/>
<polygon fill="black" stroke="black" points="5517.16,-153.798 5506.74,-155.739 5516.1,-160.716 5517.16,-153.798"/>
<text text-anchor="middle" x="6055" y="-202.8" font-family="Times,serif" font-size="14.00">connect</text>
</g>
<!-- 11_node#ServerID_0802701be25e&#45;&gt;182.255.35.53:443#ServerID_OuterContainerID -->
<g id="edge26" class="edge"><title>11_node#ServerID_0802701be25e&#45;&gt;182.255.35.53:443#ServerID_OuterContainerID</title>
<path fill="none" stroke="black" d="M6480.43,-233.717C6374.23,-222.19 6221.8,-207.038 6088,-199 5947.32,-190.549 5911.46,-202.535 5771,-191 5682.36,-183.721 5581.67,-168.896 5512.23,-157.636"/>
<polygon fill="black" stroke="black" points="5512.66,-154.159 5502.22,-156.002 5511.53,-161.067 5512.66,-154.159"/>
<text text-anchor="middle" x="6296" y="-202.8" font-family="Times,serif" font-size="14.00">write</text>
</g>
<!-- /home/app/escape2.sh#ServerID_0802701be25e -->
<g id="node20" class="node"><title>/home/app/escape2.sh#ServerID_0802701be25e</title>
<ellipse fill="none" stroke="black" cx="6679" cy="-142" rx="237.458" ry="18"/>
<text text-anchor="middle" x="6679" y="-138.3" font-family="Times,serif" font-size="14.00">/home/app/escape2.sh#ServerID_0802701be25e</text>
</g>
<!-- 11_node#ServerID_0802701be25e&#45;&gt;/home/app/escape2.sh#ServerID_0802701be25e -->
<g id="edge27" class="edge"><title>11_node#ServerID_0802701be25e&#45;&gt;/home/app/escape2.sh#ServerID_0802701be25e</title>
<path fill="none" stroke="black" d="M6624.44,-231.969C6634.91,-214.893 6651.17,-188.384 6663.22,-168.74"/>
<polygon fill="black" stroke="black" points="6666.34,-170.343 6668.58,-159.988 6660.37,-166.684 6666.34,-170.343"/>
<text text-anchor="middle" x="6663" y="-202.8" font-family="Times,serif" font-size="14.00">write</text>
</g>
<!-- /etc/hosts#ServerID_0802701be25e -->
<g id="node16" class="node"><title>/etc/hosts#ServerID_0802701be25e</title>
<ellipse fill="none" stroke="black" cx="7642" cy="-358" rx="180.068" ry="18"/>
<text text-anchor="middle" x="7642" y="-354.3" font-family="Times,serif" font-size="14.00">/etc/hosts#ServerID_0802701be25e</text>
</g>
<!-- /etc/hosts#ServerID_0802701be25e&#45;&gt;11_node#ServerID_0802701be25e -->
<g id="edge20" class="edge"><title>/etc/hosts#ServerID_0802701be25e&#45;&gt;11_node#ServerID_0802701be25e</title>
<path fill="none" stroke="black" d="M7521.56,-344.581C7331.25,-324.958 6961.73,-286.855 6757.8,-265.828"/>
<polygon fill="black" stroke="black" points="6757.93,-262.322 6747.62,-264.778 6757.21,-269.285 6757.93,-262.322"/>
<text text-anchor="middle" x="7296.5" y="-310.8" font-family="Times,serif" font-size="14.00">read</text>
</g>
<!-- /etc/resolv.conf#ServerID_0802701be25e -->
<g id="node17" class="node"><title>/etc/resolv.conf#ServerID_0802701be25e</title>
<ellipse fill="none" stroke="black" cx="7239" cy="-358" rx="205.264" ry="18"/>
<text text-anchor="middle" x="7239" y="-354.3" font-family="Times,serif" font-size="14.00">/etc/resolv.conf#ServerID_0802701be25e</text>
</g>
<!-- /etc/resolv.conf#ServerID_0802701be25e&#45;&gt;11_node#ServerID_0802701be25e -->
<g id="edge21" class="edge"><title>/etc/resolv.conf#ServerID_0802701be25e&#45;&gt;11_node#ServerID_0802701be25e</title>
<path fill="none" stroke="black" d="M7149.12,-341.756C7037,-322.741 6845.36,-290.238 6724.42,-269.727"/>
<polygon fill="black" stroke="black" points="6724.83,-266.248 6714.39,-268.026 6723.66,-273.149 6724.83,-266.248"/>
<text text-anchor="middle" x="7035.5" y="-310.8" font-family="Times,serif" font-size="14.00">read</text>
</g>
<!-- 10.1.80.93:55148#ServerID_OuterContainerID -->
<g id="node18" class="node"><title>10.1.80.93:55148#ServerID_OuterContainerID</title>
<polygon fill="none" stroke="black" points="2104,-160 1776.56,-142 2104,-124 2431.44,-142 2104,-160"/>
<text text-anchor="middle" x="2104" y="-138.3" font-family="Times,serif" font-size="14.00">10.1.80.93:55148#ServerID_OuterContainerID</text>
</g>
<!-- 10.1.80.93:55148#ServerID_OuterContainerID&#45;&gt;1_fwatchdog#ServerID_736074b81582 -->
<g id="edge24" class="edge"><title>10.1.80.93:55148#ServerID_OuterContainerID&#45;&gt;1_fwatchdog#ServerID_736074b81582</title>
<path fill="none" stroke="black" d="M2009.15,-154.814C1861.24,-173.238 1574.52,-208.952 1399.78,-230.718"/>
<polygon fill="black" stroke="black" points="1399.22,-227.26 1389.73,-231.969 1400.08,-234.206 1399.22,-227.26"/>
<text text-anchor="middle" x="1669.5" y="-202.8" font-family="Times,serif" font-size="14.00">read</text>
</g>
<!-- 10.1.80.1:60141#ServerID_OuterContainerID&#45;&gt;10.1.80.93:8080#ServerID_OuterContainerID -->
<g id="edge28" class="edge"><title>10.1.80.1:60141#ServerID_OuterContainerID&#45;&gt;10.1.80.93:8080#ServerID_OuterContainerID</title>
<path fill="none" stroke="black" d="M5454.6,-49.5743C5505.8,-66.0619 5593.58,-92.3841 5671,-106 5685.36,-108.526 5842.07,-121.04 5961.75,-130.389"/>
<polygon fill="black" stroke="black" points="5961.51,-133.88 5971.75,-131.169 5962.05,-126.902 5961.51,-133.88"/>
<text text-anchor="middle" x="5691" y="-94.8" font-family="Times,serif" font-size="14.00">POST</text>
</g>
</g>
</svg>
