<?xml version="1.0" encoding="UTF-8" standalone="no"?>
<!DOCTYPE svg PUBLIC "-//W3C//DTD SVG 1.1//EN"
 "http://www.w3.org/Graphics/SVG/1.1/DTD/svg11.dtd">
<!-- Generated by graphviz version 2.38.0 (20140413.2041)
 -->
<!-- Title: G Pages: 1 -->
<svg width="6905pt" height="558pt"
 viewBox="0.00 0.00 6905.00 558.00" xmlns="http://www.w3.org/2000/svg" xmlns:xlink="http://www.w3.org/1999/xlink">
<g id="graph0" class="graph" transform="scale(1 1) rotate(0) translate(4 554)">
<title>G</title>
<polygon fill="white" stroke="none" points="-4,4 -4,-554 6901,-554 6901,4 -4,4"/>
<g id="clust1" class="cluster"><title>clusterServerID_6dcbcc88d5&#45;mp48t</title>
<polygon fill="none" stroke="black" points="5091,-182 5091,-280 5439,-280 5439,-182 5091,-182"/>
<text text-anchor="middle" x="5265" y="-264.8" font-family="Times,serif" font-size="14.00">clusterServerID_6dcbcc88d5&#45;mp48t</text>
</g>
<g id="clust2" class="cluster"><title>clusterServerID_76c96688d7&#45;9bscs</title>
<polygon fill="none" stroke="black" points="5447,-182 5447,-280 5789,-280 5789,-182 5447,-182"/>
<text text-anchor="middle" x="5618" y="-264.8" font-family="Times,serif" font-size="14.00">clusterServerID_76c96688d7&#45;9bscs</text>
</g>
<g id="clust3" class="cluster"><title>clusterServerID_8665dd9487&#45;pdgrc</title>
<polygon fill="none" stroke="black" points="851,-444 851,-542 1195,-542 1195,-444 851,-444"/>
<text text-anchor="middle" x="1023" y="-526.8" font-family="Times,serif" font-size="14.00">clusterServerID_8665dd9487&#45;pdgrc</text>
</g>
<g id="clust4" class="cluster"><title>clusterServerID_OuterContainerID</title>
<polygon fill="none" stroke="black" points="8,-182 8,-411 4045,-411 4045,-182 8,-182"/>
<text text-anchor="middle" x="2026.5" y="-395.8" font-family="Times,serif" font-size="14.00">clusterServerID_OuterContainerID</text>
</g>
<g id="clust5" class="cluster"><title>clusterServerID_d68681b9e3dc</title>
<polygon fill="none" stroke="black" points="4053,-8 4053,-280 5083,-280 5083,-8 4053,-8"/>
<text text-anchor="middle" x="4568" y="-264.8" font-family="Times,serif" font-size="14.00">clusterServerID_d68681b9e3dc</text>
</g>
<g id="clust6" class="cluster"><title>clusterServerID_e47e2b15aff4</title>
<polygon fill="none" stroke="black" points="5797,-182 5797,-411 6889,-411 6889,-182 5797,-182"/>
<text text-anchor="middle" x="6343" y="-395.8" font-family="Times,serif" font-size="14.00">clusterServerID_e47e2b15aff4</text>
</g>
<!-- 1_fwatchdog#ServerID_8665dd9487&#45;pdgrc -->
<g id="node1" class="node"><title>1_fwatchdog#ServerID_8665dd9487&#45;pdgrc</title>
<polygon fill="none" stroke="black" points="1187.5,-488 858.5,-488 858.5,-452 1187.5,-452 1187.5,-488"/>
<text text-anchor="middle" x="1023" y="-466.3" font-family="Times,serif" font-size="14.00">1_fwatchdog#ServerID_8665dd9487&#45;pdgrc</text>
</g>
<!-- 10.1.80.183:44040#ServerID_OuterContainerID -->
<g id="node2" class="node"><title>10.1.80.183:44040#ServerID_OuterContainerID</title>
<polygon fill="none" stroke="black" points="1024,-357 688.515,-339 1024,-321 1359.48,-339 1024,-357"/>
<text text-anchor="middle" x="1024" y="-335.3" font-family="Times,serif" font-size="14.00">10.1.80.183:44040#ServerID_OuterContainerID</text>
</g>
<!-- 1_fwatchdog#ServerID_8665dd9487&#45;pdgrc&#45;&gt;10.1.80.183:44040#ServerID_OuterContainerID -->
<g id="edge1" class="edge"><title>1_fwatchdog#ServerID_8665dd9487&#45;pdgrc&#45;&gt;10.1.80.183:44040#ServerID_OuterContainerID</title>
<path fill="none" stroke="black" d="M987.261,-451.861C980.725,-447.032 974.784,-441.108 971,-434 967.867,-428.115 969.059,-425.378 971,-419 977.151,-398.792 990.385,-379.057 1002.09,-364.367"/>
<polygon fill="black" stroke="black" points="1005.06,-366.27 1008.74,-356.335 999.665,-361.806 1005.06,-366.27"/>
<text text-anchor="middle" x="1013" y="-422.8" font-family="Times,serif" font-size="14.00">RESPONSE</text>
</g>
<!-- 10.1.80.183:44040#ServerID_OuterContainerID&#45;&gt;1_fwatchdog#ServerID_8665dd9487&#45;pdgrc -->
<g id="edge5" class="edge"><title>10.1.80.183:44040#ServerID_OuterContainerID&#45;&gt;1_fwatchdog#ServerID_8665dd9487&#45;pdgrc</title>
<path fill="none" stroke="black" d="M1036.4,-356.484C1049.03,-375.397 1065.39,-407.248 1055,-434 1053.64,-437.507 1051.74,-440.876 1049.55,-444.046"/>
<polygon fill="black" stroke="black" points="1046.75,-441.944 1043.2,-451.928 1052.2,-446.335 1046.75,-441.944"/>
<text text-anchor="middle" x="1079" y="-422.8" font-family="Times,serif" font-size="14.00">POST</text>
</g>
<!-- 1_fwatchdog#ServerID_d68681b9e3dc -->
<g id="node15" class="node"><title>1_fwatchdog#ServerID_d68681b9e3dc</title>
<polygon fill="none" stroke="black" points="4497.5,-226 4198.5,-226 4198.5,-190 4497.5,-190 4497.5,-226"/>
<text text-anchor="middle" x="4348" y="-204.3" font-family="Times,serif" font-size="14.00">1_fwatchdog#ServerID_d68681b9e3dc</text>
</g>
<!-- 10.1.80.183:44040#ServerID_OuterContainerID&#45;&gt;1_fwatchdog#ServerID_d68681b9e3dc -->
<g id="edge21" class="edge"><title>10.1.80.183:44040#ServerID_OuterContainerID&#45;&gt;1_fwatchdog#ServerID_d68681b9e3dc</title>
<path fill="none" stroke="black" d="M1152.15,-327.858C1312.76,-315.676 1596.54,-295.893 1840,-288 1962.66,-284.023 3927.14,-294.494 4049,-280 4131.05,-270.241 4223.26,-246.303 4283.31,-228.914"/>
<polygon fill="black" stroke="black" points="4284.41,-232.238 4293.03,-226.075 4282.45,-225.519 4284.41,-232.238"/>
<text text-anchor="middle" x="1856.5" y="-291.8" font-family="Times,serif" font-size="14.00">read</text>
</g>
<!-- 1_fwatchdog#ServerID_e47e2b15aff4 -->
<g id="node3" class="node"><title>1_fwatchdog#ServerID_e47e2b15aff4</title>
<polygon fill="none" stroke="black" points="6881,-357 6591,-357 6591,-321 6881,-321 6881,-357"/>
<text text-anchor="middle" x="6736" y="-335.3" font-family="Times,serif" font-size="14.00">1_fwatchdog#ServerID_e47e2b15aff4</text>
</g>
<!-- localhost:3000#ServerID_e47e2b15aff4 -->
<g id="node4" class="node"><title>localhost:3000#ServerID_e47e2b15aff4</title>
<polygon fill="none" stroke="black" points="6602,-226 6322.65,-208 6602,-190 6881.35,-208 6602,-226"/>
<text text-anchor="middle" x="6602" y="-204.3" font-family="Times,serif" font-size="14.00">localhost:3000#ServerID_e47e2b15aff4</text>
</g>
<!-- 1_fwatchdog#ServerID_e47e2b15aff4&#45;&gt;localhost:3000#ServerID_e47e2b15aff4 -->
<g id="edge2" class="edge"><title>1_fwatchdog#ServerID_e47e2b15aff4&#45;&gt;localhost:3000#ServerID_e47e2b15aff4</title>
<path fill="none" stroke="black" d="M6635.17,-320.96C6618.37,-316.124 6604.57,-310.174 6599,-303 6584.35,-284.136 6587.42,-256.137 6592.75,-235.603"/>
<polygon fill="black" stroke="black" points="6596.13,-236.494 6595.56,-225.914 6589.41,-234.539 6596.13,-236.494"/>
<text text-anchor="middle" x="6628" y="-291.8" font-family="Times,serif" font-size="14.00">connect</text>
</g>
<!-- 1_fwatchdog#ServerID_e47e2b15aff4&#45;&gt;localhost:3000#ServerID_e47e2b15aff4 -->
<g id="edge13" class="edge"><title>1_fwatchdog#ServerID_e47e2b15aff4&#45;&gt;localhost:3000#ServerID_e47e2b15aff4</title>
<path fill="none" stroke="black" d="M6701.49,-320.836C6692.73,-315.703 6683.64,-309.649 6676,-303 6652.66,-282.694 6631.43,-254.193 6617.75,-233.909"/>
<polygon fill="black" stroke="black" points="6620.63,-231.912 6612.19,-225.498 6614.79,-235.771 6620.63,-231.912"/>
<text text-anchor="middle" x="6695" y="-291.8" font-family="Times,serif" font-size="14.00">write</text>
</g>
<!-- localhost:3000#ServerID_e47e2b15aff4&#45;&gt;1_fwatchdog#ServerID_e47e2b15aff4 -->
<g id="edge8" class="edge"><title>localhost:3000#ServerID_e47e2b15aff4&#45;&gt;1_fwatchdog#ServerID_e47e2b15aff4</title>
<path fill="none" stroke="black" d="M6634.46,-223.962C6660.35,-237.397 6695.84,-259.399 6718,-288 6723.24,-294.769 6727.05,-303.201 6729.78,-311.202"/>
<polygon fill="black" stroke="black" points="6726.47,-312.359 6732.67,-320.947 6733.18,-310.364 6726.47,-312.359"/>
<text text-anchor="middle" x="6742.5" y="-291.8" font-family="Times,serif" font-size="14.00">read</text>
</g>
<!-- gateway:8080#ServerID_OuterContainerID -->
<g id="node5" class="node"><title>gateway:8080#ServerID_OuterContainerID</title>
<polygon fill="none" stroke="black" points="1682,-357 1377.52,-339 1682,-321 1986.48,-339 1682,-357"/>
<text text-anchor="middle" x="1682" y="-335.3" font-family="Times,serif" font-size="14.00">gateway:8080#ServerID_OuterContainerID</text>
</g>
<!-- 1_fwatchdog#ServerID_6dcbcc88d5&#45;mp48t -->
<g id="node6" class="node"><title>1_fwatchdog#ServerID_6dcbcc88d5&#45;mp48t</title>
<polygon fill="none" stroke="black" points="5430.5,-226 5099.5,-226 5099.5,-190 5430.5,-190 5430.5,-226"/>
<text text-anchor="middle" x="5265" y="-204.3" font-family="Times,serif" font-size="14.00">1_fwatchdog#ServerID_6dcbcc88d5&#45;mp48t</text>
</g>
<!-- gateway:8080#ServerID_OuterContainerID&#45;&gt;1_fwatchdog#ServerID_6dcbcc88d5&#45;mp48t -->
<g id="edge3" class="edge"><title>gateway:8080#ServerID_OuterContainerID&#45;&gt;1_fwatchdog#ServerID_6dcbcc88d5&#45;mp48t</title>
<path fill="none" stroke="black" d="M1793.49,-327.573C1930.32,-315.328 2169.48,-295.708 2375,-288 2412.64,-286.588 5050.02,-287.16 5087,-280 5136.02,-270.508 5188.75,-247.742 5223.98,-230.528"/>
<polygon fill="black" stroke="black" points="5225.59,-233.638 5232.99,-226.06 5222.48,-227.367 5225.59,-233.638"/>
<text text-anchor="middle" x="2417" y="-291.8" font-family="Times,serif" font-size="14.00">RESPONSE</text>
</g>
<!-- 1_fwatchdog#ServerID_6dcbcc88d5&#45;mp48t&#45;&gt;gateway:8080#ServerID_OuterContainerID -->
<g id="edge4" class="edge"><title>1_fwatchdog#ServerID_6dcbcc88d5&#45;mp48t&#45;&gt;gateway:8080#ServerID_OuterContainerID</title>
<path fill="none" stroke="black" d="M5232.99,-226.063C5198.2,-243.573 5140.41,-269.668 5087,-280 5045.79,-287.972 2106.88,-285.222 2065,-288 1961.9,-294.838 1844.16,-311.558 1766.76,-323.787"/>
<polygon fill="black" stroke="black" points="1765.91,-320.378 1756.58,-325.406 1767,-327.291 1765.91,-320.378"/>
<text text-anchor="middle" x="2085" y="-291.8" font-family="Times,serif" font-size="14.00">POST</text>
</g>
<!-- 10.1.80.183:8080#ServerID_OuterContainerID -->
<g id="node7" class="node"><title>10.1.80.183:8080#ServerID_OuterContainerID</title>
<polygon fill="none" stroke="black" points="343,-357 15.5599,-339 343,-321 670.44,-339 343,-357"/>
<text text-anchor="middle" x="343" y="-335.3" font-family="Times,serif" font-size="14.00">10.1.80.183:8080#ServerID_OuterContainerID</text>
</g>
<!-- 1_fwatchdog#ServerID_6dcbcc88d5&#45;mp48t&#45;&gt;10.1.80.183:8080#ServerID_OuterContainerID -->
<g id="edge7" class="edge"><title>1_fwatchdog#ServerID_6dcbcc88d5&#45;mp48t&#45;&gt;10.1.80.183:8080#ServerID_OuterContainerID</title>
<path fill="none" stroke="black" d="M5233,-226.071C5198.2,-243.586 5140.41,-269.686 5087,-280 5031.57,-290.704 1078.41,-285.559 1022,-288 943.125,-291.414 923.714,-296.921 845,-303 727.207,-312.097 593.782,-321.35 494.109,-328.055"/>
<polygon fill="black" stroke="black" points="493.704,-324.574 483.961,-328.737 494.173,-331.558 493.704,-324.574"/>
<text text-anchor="middle" x="1042" y="-291.8" font-family="Times,serif" font-size="14.00">POST</text>
</g>
<!-- 10.1.80.183:57642#ServerID_OuterContainerID -->
<g id="node8" class="node"><title>10.1.80.183:57642#ServerID_OuterContainerID</title>
<polygon fill="none" stroke="black" points="2340,-357 2004.52,-339 2340,-321 2675.48,-339 2340,-357"/>
<text text-anchor="middle" x="2340" y="-335.3" font-family="Times,serif" font-size="14.00">10.1.80.183:57642#ServerID_OuterContainerID</text>
</g>
<!-- 1_fwatchdog#ServerID_6dcbcc88d5&#45;mp48t&#45;&gt;10.1.80.183:57642#ServerID_OuterContainerID -->
<g id="edge12" class="edge"><title>1_fwatchdog#ServerID_6dcbcc88d5&#45;mp48t&#45;&gt;10.1.80.183:57642#ServerID_OuterContainerID</title>
<path fill="none" stroke="black" d="M5232.99,-226.052C5198.2,-243.551 5140.4,-269.638 5087,-280 5029.03,-291.249 3020,-285.517 2961,-288 2785.55,-295.382 2582.87,-313.511 2458.07,-325.786"/>
<polygon fill="black" stroke="black" points="2457.71,-322.305 2448.1,-326.77 2458.4,-329.271 2457.71,-322.305"/>
<text text-anchor="middle" x="3003" y="-291.8" font-family="Times,serif" font-size="14.00">RESPONSE</text>
</g>
<!-- 10.1.80.183:8080#ServerID_OuterContainerID&#45;&gt;1_fwatchdog#ServerID_6dcbcc88d5&#45;mp48t -->
<g id="edge6" class="edge"><title>10.1.80.183:8080#ServerID_OuterContainerID&#45;&gt;1_fwatchdog#ServerID_6dcbcc88d5&#45;mp48t</title>
<path fill="none" stroke="black" d="M503.109,-329.789C761.857,-316.672 1260.83,-292.049 1438,-288 1488.67,-286.842 5037.24,-289.615 5087,-280 5136.03,-270.527 5188.75,-247.757 5223.98,-230.538"/>
<polygon fill="black" stroke="black" points="5225.59,-233.647 5233,-226.068 5222.48,-227.376 5225.59,-233.647"/>
<text text-anchor="middle" x="1480" y="-291.8" font-family="Times,serif" font-size="14.00">RESPONSE</text>
</g>
<!-- 10.1.80.1:21023#ServerID_OuterContainerID -->
<g id="node19" class="node"><title>10.1.80.1:21023#ServerID_OuterContainerID</title>
<polygon fill="none" stroke="black" points="1023,-226 704.105,-208 1023,-190 1341.9,-208 1023,-226"/>
<text text-anchor="middle" x="1023" y="-204.3" font-family="Times,serif" font-size="14.00">10.1.80.1:21023#ServerID_OuterContainerID</text>
</g>
<!-- 10.1.80.183:8080#ServerID_OuterContainerID&#45;&gt;10.1.80.1:21023#ServerID_OuterContainerID -->
<g id="edge27" class="edge"><title>10.1.80.183:8080#ServerID_OuterContainerID&#45;&gt;10.1.80.1:21023#ServerID_OuterContainerID</title>
<path fill="none" stroke="black" d="M489.861,-329.069C552.511,-323.766 626.201,-315.54 692,-303 792.329,-283.879 906.286,-248.37 970.916,-226.892"/>
<polygon fill="black" stroke="black" points="972.096,-230.189 980.471,-223.7 969.878,-223.549 972.096,-230.189"/>
<text text-anchor="middle" x="799" y="-291.8" font-family="Times,serif" font-size="14.00">RESPONSE</text>
</g>
<!-- 10.0.88.125:31112#ServerID_OuterContainerID -->
<g id="node20" class="node"><title>10.0.88.125:31112#ServerID_OuterContainerID</title>
<polygon fill="none" stroke="black" points="351,-226 15.5152,-208 351,-190 686.485,-208 351,-226"/>
<text text-anchor="middle" x="351" y="-204.3" font-family="Times,serif" font-size="14.00">10.0.88.125:31112#ServerID_OuterContainerID</text>
</g>
<!-- 10.1.80.183:8080#ServerID_OuterContainerID&#45;&gt;10.0.88.125:31112#ServerID_OuterContainerID -->
<g id="edge28" class="edge"><title>10.1.80.183:8080#ServerID_OuterContainerID&#45;&gt;10.0.88.125:31112#ServerID_OuterContainerID</title>
<path fill="none" stroke="black" d="M344.062,-320.87C345.401,-299.281 347.719,-261.912 349.304,-236.352"/>
<polygon fill="black" stroke="black" points="352.807,-236.399 349.933,-226.201 345.821,-235.965 352.807,-236.399"/>
<text text-anchor="middle" x="389" y="-291.8" font-family="Times,serif" font-size="14.00">RESPONSE</text>
</g>
<!-- 10.1.80.183:57642#ServerID_OuterContainerID&#45;&gt;1_fwatchdog#ServerID_e47e2b15aff4 -->
<g id="edge17" class="edge"><title>10.1.80.183:57642#ServerID_OuterContainerID&#45;&gt;1_fwatchdog#ServerID_e47e2b15aff4</title>
<path fill="none" stroke="black" d="M2394.72,-354.066C2462.3,-371.823 2581.08,-400.271 2685,-411 2792.68,-422.116 6476.33,-434.483 6582,-411 6624.04,-401.658 6668.18,-379.577 6698.38,-362.312"/>
<polygon fill="black" stroke="black" points="6700.4,-365.184 6707.28,-357.128 6696.88,-359.134 6700.4,-365.184"/>
<text text-anchor="middle" x="4633" y="-422.8" font-family="Times,serif" font-size="14.00">read</text>
</g>
<!-- 10.1.80.183:57642#ServerID_OuterContainerID&#45;&gt;1_fwatchdog#ServerID_6dcbcc88d5&#45;mp48t -->
<g id="edge9" class="edge"><title>10.1.80.183:57642#ServerID_OuterContainerID&#45;&gt;1_fwatchdog#ServerID_6dcbcc88d5&#45;mp48t</title>
<path fill="none" stroke="black" d="M2503.2,-329.727C2560.66,-326.875 2625.69,-323.717 2685,-321 3031.17,-305.139 3117.56,-296.189 3464,-288 3509.07,-286.935 5042.75,-288.613 5087,-280 5136.02,-270.46 5188.74,-247.702 5223.98,-230.504"/>
<polygon fill="black" stroke="black" points="5225.58,-233.614 5232.99,-226.04 5222.48,-227.342 5225.58,-233.614"/>
<text text-anchor="middle" x="3484" y="-291.8" font-family="Times,serif" font-size="14.00">POST</text>
</g>
<!-- 10.1.80.183:55664#ServerID_OuterContainerID -->
<g id="node9" class="node"><title>10.1.80.183:55664#ServerID_OuterContainerID</title>
<polygon fill="none" stroke="black" points="3029,-357 2693.52,-339 3029,-321 3364.48,-339 3029,-357"/>
<text text-anchor="middle" x="3029" y="-335.3" font-family="Times,serif" font-size="14.00">10.1.80.183:55664#ServerID_OuterContainerID</text>
</g>
<!-- 1_fwatchdog#ServerID_76c96688d7&#45;9bscs -->
<g id="node10" class="node"><title>1_fwatchdog#ServerID_76c96688d7&#45;9bscs</title>
<polygon fill="none" stroke="black" points="5781.5,-226 5454.5,-226 5454.5,-190 5781.5,-190 5781.5,-226"/>
<text text-anchor="middle" x="5618" y="-204.3" font-family="Times,serif" font-size="14.00">1_fwatchdog#ServerID_76c96688d7&#45;9bscs</text>
</g>
<!-- 10.1.80.183:55664#ServerID_OuterContainerID&#45;&gt;1_fwatchdog#ServerID_76c96688d7&#45;9bscs -->
<g id="edge10" class="edge"><title>10.1.80.183:55664#ServerID_OuterContainerID&#45;&gt;1_fwatchdog#ServerID_76c96688d7&#45;9bscs</title>
<path fill="none" stroke="black" d="M3153.86,-327.687C3307.45,-315.53 3576.2,-295.974 3807,-288 3852.42,-286.431 5398.42,-288.813 5443,-280 5491.07,-270.498 5542.66,-247.893 5577.27,-230.722"/>
<polygon fill="black" stroke="black" points="5579.21,-233.664 5586.57,-226.038 5576.06,-227.412 5579.21,-233.664"/>
<text text-anchor="middle" x="3827" y="-291.8" font-family="Times,serif" font-size="14.00">POST</text>
</g>
<!-- 1_fwatchdog#ServerID_76c96688d7&#45;9bscs&#45;&gt;10.1.80.183:55664#ServerID_OuterContainerID -->
<g id="edge11" class="edge"><title>1_fwatchdog#ServerID_76c96688d7&#45;9bscs&#45;&gt;10.1.80.183:55664#ServerID_OuterContainerID</title>
<path fill="none" stroke="black" d="M5586.24,-226.143C5552.02,-243.582 5495.4,-269.493 5443,-280 5400.89,-288.443 4712.94,-287.231 4670,-288 4093.91,-298.315 3949.78,-299.486 3374,-321 3316.2,-323.16 3252.97,-326.106 3196.62,-328.938"/>
<polygon fill="black" stroke="black" points="3196.36,-325.447 3186.54,-329.447 3196.71,-332.438 3196.36,-325.447"/>
<text text-anchor="middle" x="4712" y="-291.8" font-family="Times,serif" font-size="14.00">RESPONSE</text>
</g>
<!-- /etc/resolv.conf#ServerID_e47e2b15aff4 -->
<g id="node11" class="node"><title>/etc/resolv.conf#ServerID_e47e2b15aff4</title>
<ellipse fill="none" stroke="black" cx="6373" cy="-339" rx="200.365" ry="18"/>
<text text-anchor="middle" x="6373" y="-335.3" font-family="Times,serif" font-size="14.00">/etc/resolv.conf#ServerID_e47e2b15aff4</text>
</g>
<!-- 9_node#ServerID_e47e2b15aff4 -->
<g id="node12" class="node"><title>9_node#ServerID_e47e2b15aff4</title>
<polygon fill="none" stroke="black" points="6055,-226 5805,-226 5805,-190 6055,-190 6055,-226"/>
<text text-anchor="middle" x="5930" y="-204.3" font-family="Times,serif" font-size="14.00">9_node#ServerID_e47e2b15aff4</text>
</g>
<!-- /etc/resolv.conf#ServerID_e47e2b15aff4&#45;&gt;9_node#ServerID_e47e2b15aff4 -->
<g id="edge14" class="edge"><title>/etc/resolv.conf#ServerID_e47e2b15aff4&#45;&gt;9_node#ServerID_e47e2b15aff4</title>
<path fill="none" stroke="black" d="M6316.89,-321.662C6235.74,-298.03 6085.77,-254.359 5998.29,-228.886"/>
<polygon fill="black" stroke="black" points="5999.04,-225.46 5988.46,-226.024 5997.09,-232.18 5999.04,-225.46"/>
<text text-anchor="middle" x="6258.5" y="-291.8" font-family="Times,serif" font-size="14.00">read</text>
</g>
<!-- 9_node#ServerID_e47e2b15aff4&#45;&gt;gateway:8080#ServerID_OuterContainerID -->
<g id="edge19" class="edge"><title>9_node#ServerID_e47e2b15aff4&#45;&gt;gateway:8080#ServerID_OuterContainerID</title>
<path fill="none" stroke="black" d="M5905.69,-226.187C5879.36,-243.664 5835.41,-269.606 5793,-280 5750.74,-290.358 2703.48,-286.324 2660,-288 2570.48,-291.45 2548.44,-297.926 2459,-303 2253.4,-314.665 2201.71,-311.433 1996,-321 1944.62,-323.39 1888.52,-326.323 1838.15,-329.076"/>
<polygon fill="black" stroke="black" points="1837.95,-325.582 1828.15,-329.624 1838.33,-332.571 1837.95,-325.582"/>
<text text-anchor="middle" x="2689" y="-291.8" font-family="Times,serif" font-size="14.00">connect</text>
</g>
<!-- 10.152.183.10:53#ServerID_OuterContainerID -->
<g id="node13" class="node"><title>10.152.183.10:53#ServerID_OuterContainerID</title>
<polygon fill="none" stroke="black" points="3710,-357 3382.56,-339 3710,-321 4037.44,-339 3710,-357"/>
<text text-anchor="middle" x="3710" y="-335.3" font-family="Times,serif" font-size="14.00">10.152.183.10:53#ServerID_OuterContainerID</text>
</g>
<!-- 9_node#ServerID_e47e2b15aff4&#45;&gt;10.152.183.10:53#ServerID_OuterContainerID -->
<g id="edge15" class="edge"><title>9_node#ServerID_e47e2b15aff4&#45;&gt;10.152.183.10:53#ServerID_OuterContainerID</title>
<path fill="none" stroke="black" d="M5905.66,-226.079C5879.31,-243.466 5835.34,-269.333 5793,-280 5765.04,-287.044 5302.83,-287.317 5274,-288 4780.97,-299.68 4200.71,-319.938 3904.86,-330.734"/>
<polygon fill="black" stroke="black" points="3904.32,-327.252 3894.46,-331.114 3904.58,-334.247 3904.32,-327.252"/>
<text text-anchor="middle" x="5298.5" y="-291.8" font-family="Times,serif" font-size="14.00">sendto</text>
</g>
<!-- 10.152.183.10:53#ServerID_OuterContainerID&#45;&gt;9_node#ServerID_e47e2b15aff4 -->
<g id="edge18" class="edge"><title>10.152.183.10:53#ServerID_OuterContainerID&#45;&gt;9_node#ServerID_e47e2b15aff4</title>
<path fill="none" stroke="black" d="M3959.44,-334.69C4276.45,-330 4840.48,-320.038 5323,-303 5532.01,-295.62 5591.08,-334.476 5793,-280 5830.64,-269.844 5869.77,-248.286 5896.52,-231.574"/>
<polygon fill="black" stroke="black" points="5898.54,-234.437 5905.1,-226.116 5894.78,-228.531 5898.54,-234.437"/>
<text text-anchor="middle" x="5792" y="-291.8" font-family="Times,serif" font-size="14.00">recvfrom</text>
</g>
<!-- /etc/hosts#ServerID_e47e2b15aff4 -->
<g id="node14" class="node"><title>/etc/hosts#ServerID_e47e2b15aff4</title>
<ellipse fill="none" stroke="black" cx="5980" cy="-339" rx="174.669" ry="18"/>
<text text-anchor="middle" x="5980" y="-335.3" font-family="Times,serif" font-size="14.00">/etc/hosts#ServerID_e47e2b15aff4</text>
</g>
<!-- /etc/hosts#ServerID_e47e2b15aff4&#45;&gt;9_node#ServerID_e47e2b15aff4 -->
<g id="edge16" class="edge"><title>/etc/hosts#ServerID_e47e2b15aff4&#45;&gt;9_node#ServerID_e47e2b15aff4</title>
<path fill="none" stroke="black" d="M5973.36,-320.87C5964.92,-299.088 5950.25,-261.244 5940.34,-235.67"/>
<polygon fill="black" stroke="black" points="5943.54,-234.26 5936.67,-226.201 5937.02,-236.79 5943.54,-234.26"/>
<text text-anchor="middle" x="5982.5" y="-291.8" font-family="Times,serif" font-size="14.00">read</text>
</g>
<!-- localhost:3000#ServerID_d68681b9e3dc -->
<g id="node16" class="node"><title>localhost:3000#ServerID_d68681b9e3dc</title>
<polygon fill="none" stroke="black" points="4348,-139 4061.45,-121 4348,-103 4634.55,-121 4348,-139"/>
<text text-anchor="middle" x="4348" y="-117.3" font-family="Times,serif" font-size="14.00">localhost:3000#ServerID_d68681b9e3dc</text>
</g>
<!-- 1_fwatchdog#ServerID_d68681b9e3dc&#45;&gt;localhost:3000#ServerID_d68681b9e3dc -->
<g id="edge20" class="edge"><title>1_fwatchdog#ServerID_d68681b9e3dc&#45;&gt;localhost:3000#ServerID_d68681b9e3dc</title>
<path fill="none" stroke="black" d="M4369.8,-189.762C4374.74,-184.629 4379.32,-178.594 4382,-172 4385.73,-162.808 4382.07,-153.589 4375.97,-145.615"/>
<polygon fill="black" stroke="black" points="4378.53,-143.217 4369.25,-138.104 4373.31,-147.888 4378.53,-143.217"/>
<text text-anchor="middle" x="4413" y="-160.8" font-family="Times,serif" font-size="14.00">connect</text>
</g>
<!-- 1_fwatchdog#ServerID_d68681b9e3dc&#45;&gt;localhost:3000#ServerID_d68681b9e3dc -->
<g id="edge24" class="edge"><title>1_fwatchdog#ServerID_d68681b9e3dc&#45;&gt;localhost:3000#ServerID_d68681b9e3dc</title>
<path fill="none" stroke="black" d="M4317.91,-189.826C4311.89,-184.893 4306.39,-178.935 4303,-172 4297.95,-161.673 4303.44,-151.895 4312.1,-143.771"/>
<polygon fill="black" stroke="black" points="4314.43,-146.39 4319.97,-137.36 4310.01,-140.964 4314.43,-146.39"/>
<text text-anchor="middle" x="4322" y="-160.8" font-family="Times,serif" font-size="14.00">write</text>
</g>
<!-- pipe:[77302415]#ServerID_d68681b9e3dc -->
<g id="node18" class="node"><title>pipe:[77302415]#ServerID_d68681b9e3dc</title>
<ellipse fill="none" stroke="black" cx="4864" cy="-121" rx="211.463" ry="18"/>
<text text-anchor="middle" x="4864" y="-117.3" font-family="Times,serif" font-size="14.00">pipe:[77302415]#ServerID_d68681b9e3dc</text>
</g>
<!-- 1_fwatchdog#ServerID_d68681b9e3dc&#45;&gt;pipe:[77302415]#ServerID_d68681b9e3dc -->
<g id="edge25" class="edge"><title>1_fwatchdog#ServerID_d68681b9e3dc&#45;&gt;pipe:[77302415]#ServerID_d68681b9e3dc</title>
<path fill="none" stroke="black" d="M4451.49,-189.952C4541.67,-175.098 4671.71,-153.676 4761.57,-138.873"/>
<polygon fill="black" stroke="black" points="4762.21,-142.316 4771.5,-137.237 4761.07,-135.409 4762.21,-142.316"/>
<text text-anchor="middle" x="4656" y="-160.8" font-family="Times,serif" font-size="14.00">write</text>
</g>
<!-- localhost:3000#ServerID_d68681b9e3dc&#45;&gt;1_fwatchdog#ServerID_d68681b9e3dc -->
<g id="edge22" class="edge"><title>localhost:3000#ServerID_d68681b9e3dc&#45;&gt;1_fwatchdog#ServerID_d68681b9e3dc</title>
<path fill="none" stroke="black" d="M4346.24,-139.071C4345.73,-144.766 4345.25,-151.151 4345,-157 4344.69,-164.355 4344.91,-172.313 4345.34,-179.672"/>
<polygon fill="black" stroke="black" points="4341.87,-180.17 4346.1,-189.883 4348.85,-179.651 4341.87,-180.17"/>
<text text-anchor="middle" x="4361.5" y="-160.8" font-family="Times,serif" font-size="14.00">read</text>
</g>
<!-- 10_node#ServerID_d68681b9e3dc -->
<g id="node17" class="node"><title>10_node#ServerID_d68681b9e3dc</title>
<polygon fill="none" stroke="black" points="4481.5,-52 4214.5,-52 4214.5,-16 4481.5,-16 4481.5,-52"/>
<text text-anchor="middle" x="4348" y="-30.3" font-family="Times,serif" font-size="14.00">10_node#ServerID_d68681b9e3dc</text>
</g>
<!-- localhost:3000#ServerID_d68681b9e3dc&#45;&gt;10_node#ServerID_d68681b9e3dc -->
<g id="edge23" class="edge"><title>localhost:3000#ServerID_d68681b9e3dc&#45;&gt;10_node#ServerID_d68681b9e3dc</title>
<path fill="none" stroke="black" d="M4348,-102.799C4348,-91.1626 4348,-75.5479 4348,-62.2368"/>
<polygon fill="black" stroke="black" points="4351.5,-62.1754 4348,-52.1754 4344.5,-62.1755 4351.5,-62.1754"/>
<text text-anchor="middle" x="4364.5" y="-73.8" font-family="Times,serif" font-size="14.00">read</text>
</g>
<!-- 10.1.80.1:21023#ServerID_OuterContainerID&#45;&gt;10.1.80.183:8080#ServerID_OuterContainerID -->
<g id="edge26" class="edge"><title>10.1.80.1:21023#ServerID_OuterContainerID&#45;&gt;10.1.80.183:8080#ServerID_OuterContainerID</title>
<path fill="none" stroke="black" d="M963.927,-222.717C898.396,-237.716 789.436,-262.01 695,-280 607.581,-296.653 507.407,-312.883 436.333,-323.92"/>
<polygon fill="black" stroke="black" points="435.41,-320.521 426.063,-325.51 436.481,-327.439 435.41,-320.521"/>
<text text-anchor="middle" x="668" y="-291.8" font-family="Times,serif" font-size="14.00">POST</text>
</g>
</g>
</svg>
