<?xml version="1.0" encoding="UTF-8" standalone="no"?>
<!DOCTYPE svg PUBLIC "-//W3C//DTD SVG 1.1//EN"
 "http://www.w3.org/Graphics/SVG/1.1/DTD/svg11.dtd">
<!-- Generated by graphviz version 2.38.0 (20140413.2041)
 -->
<!-- Title: G Pages: 1 -->
<svg width="5142pt" height="1032pt"
 viewBox="0.00 0.00 5142.00 1032.00" xmlns="http://www.w3.org/2000/svg" xmlns:xlink="http://www.w3.org/1999/xlink">
<g id="graph0" class="graph" transform="scale(1 1) rotate(0) translate(4 1028)">
<title>G</title>
<polygon fill="white" stroke="none" points="-4,4 -4,-1028 5138,-1028 5138,4 -4,4"/>
<g id="clust1" class="cluster"><title>clusterServerID_04eca90de97f</title>
<polygon fill="none" stroke="black" points="3312,-8 3312,-605 4770,-605 4770,-8 3312,-8"/>
<text text-anchor="middle" x="4041" y="-589.8" font-family="Times,serif" font-size="14.00">clusterServerID_04eca90de97f</text>
</g>
<g id="clust2" class="cluster"><title>clusterServerID_309ec2955ffa</title>
<polygon fill="none" stroke="black" points="1509,-746 1509,-1016 2870,-1016 2870,-746 1509,-746"/>
<text text-anchor="middle" x="2189.5" y="-1000.8" font-family="Times,serif" font-size="14.00">clusterServerID_309ec2955ffa</text>
</g>
<g id="clust3" class="cluster"><title>clusterServerID_7d87d9945d&#45;dl2ff</title>
<polygon fill="none" stroke="black" points="830,-746 830,-821 1166,-821 1166,-746 830,-746"/>
<text text-anchor="middle" x="998" y="-805.8" font-family="Times,serif" font-size="14.00">clusterServerID_7d87d9945d&#45;dl2ff</text>
</g>
<g id="clust4" class="cluster"><title>clusterServerID_866797f645&#45;wb664</title>
<polygon fill="none" stroke="black" points="4778,-530 4778,-605 5126,-605 5126,-530 4778,-530"/>
<text text-anchor="middle" x="4952" y="-589.8" font-family="Times,serif" font-size="14.00">clusterServerID_866797f645&#45;wb664</text>
</g>
<g id="clust5" class="cluster"><title>clusterServerID_OuterContainerID</title>
<polygon fill="none" stroke="black" points="8,-530 8,-713 3304,-713 3304,-530 8,-530"/>
<text text-anchor="middle" x="1656" y="-697.8" font-family="Times,serif" font-size="14.00">clusterServerID_OuterContainerID</text>
</g>
<!-- 10.1.80.44:39928#ServerID_OuterContainerID -->
<g id="node1" class="node"><title>10.1.80.44:39928#ServerID_OuterContainerID</title>
<polygon fill="none" stroke="black" points="999,-682 671.56,-664 999,-646 1326.44,-664 999,-682"/>
<text text-anchor="middle" x="999" y="-660.3" font-family="Times,serif" font-size="14.00">10.1.80.44:39928#ServerID_OuterContainerID</text>
</g>
<!-- 1_fwatchdog#ServerID_7d87d9945d&#45;dl2ff -->
<g id="node2" class="node"><title>1_fwatchdog#ServerID_7d87d9945d&#45;dl2ff</title>
<polygon fill="none" stroke="black" points="1158,-790 838,-790 838,-754 1158,-754 1158,-790"/>
<text text-anchor="middle" x="998" y="-768.3" font-family="Times,serif" font-size="14.00">1_fwatchdog#ServerID_7d87d9945d&#45;dl2ff</text>
</g>
<!-- 10.1.80.44:39928#ServerID_OuterContainerID&#45;&gt;1_fwatchdog#ServerID_7d87d9945d&#45;dl2ff -->
<g id="edge1" class="edge"><title>10.1.80.44:39928#ServerID_OuterContainerID&#45;&gt;1_fwatchdog#ServerID_7d87d9945d&#45;dl2ff</title>
<path fill="none" stroke="black" d="M986.809,-681.692C979.796,-692.353 971.669,-706.798 968,-721 966.333,-727.455 965.687,-729.747 968,-736 969.231,-739.328 970.936,-742.554 972.914,-745.612"/>
<polygon fill="black" stroke="black" points="970.225,-747.86 979.041,-753.736 975.813,-743.644 970.225,-747.86"/>
<text text-anchor="middle" x="988" y="-724.8" font-family="Times,serif" font-size="14.00">POST</text>
</g>
<!-- 1_fwatchdog#ServerID_04eca90de97f -->
<g id="node13" class="node"><title>1_fwatchdog#ServerID_04eca90de97f</title>
<polygon fill="none" stroke="black" points="3928.5,-574 3635.5,-574 3635.5,-538 3928.5,-538 3928.5,-574"/>
<text text-anchor="middle" x="3782" y="-552.3" font-family="Times,serif" font-size="14.00">1_fwatchdog#ServerID_04eca90de97f</text>
</g>
<!-- 10.1.80.44:39928#ServerID_OuterContainerID&#45;&gt;1_fwatchdog#ServerID_04eca90de97f -->
<g id="edge19" class="edge"><title>10.1.80.44:39928#ServerID_OuterContainerID&#45;&gt;1_fwatchdog#ServerID_04eca90de97f</title>
<path fill="none" stroke="black" d="M1157.52,-654.699C1213.58,-651.838 1277.09,-648.681 1335,-646 1684.27,-629.833 1771.46,-621.513 2121,-613 2384.71,-606.578 3044.6,-619.193 3308,-605 3418.87,-599.026 3543.79,-586.12 3637.55,-575.194"/>
<polygon fill="black" stroke="black" points="3638.15,-578.648 3647.67,-574.007 3637.33,-571.695 3638.15,-578.648"/>
<text text-anchor="middle" x="2137.5" y="-616.8" font-family="Times,serif" font-size="14.00">read</text>
</g>
<!-- 1_fwatchdog#ServerID_7d87d9945d&#45;dl2ff&#45;&gt;10.1.80.44:39928#ServerID_OuterContainerID -->
<g id="edge5" class="edge"><title>1_fwatchdog#ServerID_7d87d9945d&#45;dl2ff&#45;&gt;10.1.80.44:39928#ServerID_OuterContainerID</title>
<path fill="none" stroke="black" d="M1003.96,-753.759C1005.61,-748.165 1007.18,-741.883 1008,-736 1010.04,-721.436 1008.27,-705.162 1005.78,-691.873"/>
<polygon fill="black" stroke="black" points="1009.17,-691.006 1003.68,-681.944 1002.32,-692.452 1009.17,-691.006"/>
<text text-anchor="middle" x="1051" y="-724.8" font-family="Times,serif" font-size="14.00">RESPONSE</text>
</g>
<!-- 10.1.80.44:48398#ServerID_OuterContainerID -->
<g id="node3" class="node"><title>10.1.80.44:48398#ServerID_OuterContainerID</title>
<polygon fill="none" stroke="black" points="2969,-682 2641.56,-664 2969,-646 3296.44,-664 2969,-682"/>
<text text-anchor="middle" x="2969" y="-660.3" font-family="Times,serif" font-size="14.00">10.1.80.44:48398#ServerID_OuterContainerID</text>
</g>
<!-- 1_fwatchdog#ServerID_866797f645&#45;wb664 -->
<g id="node4" class="node"><title>1_fwatchdog#ServerID_866797f645&#45;wb664</title>
<polygon fill="none" stroke="black" points="5117.5,-574 4786.5,-574 4786.5,-538 5117.5,-538 5117.5,-574"/>
<text text-anchor="middle" x="4952" y="-552.3" font-family="Times,serif" font-size="14.00">1_fwatchdog#ServerID_866797f645&#45;wb664</text>
</g>
<!-- 10.1.80.44:48398#ServerID_OuterContainerID&#45;&gt;1_fwatchdog#ServerID_866797f645&#45;wb664 -->
<g id="edge2" class="edge"><title>10.1.80.44:48398#ServerID_OuterContainerID&#45;&gt;1_fwatchdog#ServerID_866797f645&#45;wb664</title>
<path fill="none" stroke="black" d="M3150.39,-655.966C3423.54,-645.542 3956.78,-625.843 4410,-613 4490.88,-610.708 4693.91,-616.505 4774,-605 4813.94,-599.263 4857.7,-587.537 4891.84,-577.112"/>
<polygon fill="black" stroke="black" points="4893.14,-580.373 4901.66,-574.07 4891.07,-573.687 4893.14,-580.373"/>
<text text-anchor="middle" x="4430" y="-616.8" font-family="Times,serif" font-size="14.00">POST</text>
</g>
<!-- 1_fwatchdog#ServerID_309ec2955ffa -->
<g id="node7" class="node"><title>1_fwatchdog#ServerID_309ec2955ffa</title>
<polygon fill="none" stroke="black" points="2009,-985 1719,-985 1719,-949 2009,-949 2009,-985"/>
<text text-anchor="middle" x="1864" y="-963.3" font-family="Times,serif" font-size="14.00">1_fwatchdog#ServerID_309ec2955ffa</text>
</g>
<!-- 10.1.80.44:48398#ServerID_OuterContainerID&#45;&gt;1_fwatchdog#ServerID_309ec2955ffa -->
<g id="edge13" class="edge"><title>10.1.80.44:48398#ServerID_OuterContainerID&#45;&gt;1_fwatchdog#ServerID_309ec2955ffa</title>
<path fill="none" stroke="black" d="M2967.66,-682.181C2963.2,-726.608 2944.57,-845.471 2871,-898 2803.46,-946.221 2284.45,-960.311 2019.13,-964.379"/>
<polygon fill="black" stroke="black" points="2018.97,-960.881 2009.02,-964.531 2019.07,-967.88 2018.97,-960.881"/>
<text text-anchor="middle" x="2943.5" y="-832.8" font-family="Times,serif" font-size="14.00">read</text>
</g>
<!-- 1_fwatchdog#ServerID_866797f645&#45;wb664&#45;&gt;10.1.80.44:48398#ServerID_OuterContainerID -->
<g id="edge6" class="edge"><title>1_fwatchdog#ServerID_866797f645&#45;wb664&#45;&gt;10.1.80.44:48398#ServerID_OuterContainerID</title>
<path fill="none" stroke="black" d="M4899.24,-574.098C4864.13,-584.761 4816.76,-597.785 4774,-605 4631.65,-629.016 4594.2,-621.182 4450,-628 4029.28,-647.893 3540.78,-656.658 3243.38,-660.391"/>
<polygon fill="black" stroke="black" points="3243.27,-656.892 3233.32,-660.516 3243.36,-663.891 3243.27,-656.892"/>
<text text-anchor="middle" x="4761" y="-616.8" font-family="Times,serif" font-size="14.00">RESPONSE</text>
</g>
<!-- gateway:8080#ServerID_OuterContainerID -->
<g id="node5" class="node"><title>gateway:8080#ServerID_OuterContainerID</title>
<polygon fill="none" stroke="black" points="1648,-682 1343.52,-664 1648,-646 1952.48,-664 1648,-682"/>
<text text-anchor="middle" x="1648" y="-660.3" font-family="Times,serif" font-size="14.00">gateway:8080#ServerID_OuterContainerID</text>
</g>
<!-- 1_fwatchdog#ServerID_866797f645&#45;wb664&#45;&gt;gateway:8080#ServerID_OuterContainerID -->
<g id="edge3" class="edge"><title>1_fwatchdog#ServerID_866797f645&#45;wb664&#45;&gt;gateway:8080#ServerID_OuterContainerID</title>
<path fill="none" stroke="black" d="M4902.45,-574.078C4867.13,-585.333 4818.25,-599.051 4774,-605 4717.04,-612.657 2762.46,-611.615 2705,-613 2381.93,-620.786 2003.78,-641.48 1798.79,-653.666"/>
<polygon fill="black" stroke="black" points="1798.33,-650.187 1788.55,-654.276 1798.74,-657.175 1798.33,-650.187"/>
<text text-anchor="middle" x="2725" y="-616.8" font-family="Times,serif" font-size="14.00">POST</text>
</g>
<!-- 10.1.80.44:8080#ServerID_OuterContainerID -->
<g id="node6" class="node"><title>10.1.80.44:8080#ServerID_OuterContainerID</title>
<polygon fill="none" stroke="black" points="335,-682 16.1049,-664 335,-646 653.895,-664 335,-682"/>
<text text-anchor="middle" x="335" y="-660.3" font-family="Times,serif" font-size="14.00">10.1.80.44:8080#ServerID_OuterContainerID</text>
</g>
<!-- 1_fwatchdog#ServerID_866797f645&#45;wb664&#45;&gt;10.1.80.44:8080#ServerID_OuterContainerID -->
<g id="edge7" class="edge"><title>1_fwatchdog#ServerID_866797f645&#45;wb664&#45;&gt;10.1.80.44:8080#ServerID_OuterContainerID</title>
<path fill="none" stroke="black" d="M4902.46,-574.096C4867.13,-585.359 4818.26,-599.08 4774,-605 4688.21,-616.477 1744.54,-611.454 1658,-613 1215.61,-620.902 1105.07,-627.215 663,-646 608.945,-648.297 549.9,-651.227 496.991,-654.004"/>
<polygon fill="black" stroke="black" points="496.643,-650.518 486.841,-654.539 497.011,-657.508 496.643,-650.518"/>
<text text-anchor="middle" x="1678" y="-616.8" font-family="Times,serif" font-size="14.00">POST</text>
</g>
<!-- gateway:8080#ServerID_OuterContainerID&#45;&gt;1_fwatchdog#ServerID_866797f645&#45;wb664 -->
<g id="edge4" class="edge"><title>gateway:8080#ServerID_OuterContainerID&#45;&gt;1_fwatchdog#ServerID_866797f645&#45;wb664</title>
<path fill="none" stroke="black" d="M1788.18,-654.285C1842.18,-651.217 1904.44,-648.03 1961,-646 2379.68,-630.97 3427.08,-618.472 3846,-613 3897.55,-612.327 4722.92,-611.991 4774,-605 4814.26,-599.49 4858.37,-587.638 4892.61,-577.091"/>
<polygon fill="black" stroke="black" points="4893.95,-580.34 4902.45,-574.013 4891.86,-573.659 4893.95,-580.34"/>
<text text-anchor="middle" x="3888" y="-616.8" font-family="Times,serif" font-size="14.00">RESPONSE</text>
</g>
<!-- 10.1.80.44:8080#ServerID_OuterContainerID&#45;&gt;1_fwatchdog#ServerID_866797f645&#45;wb664 -->
<g id="edge8" class="edge"><title>10.1.80.44:8080#ServerID_OuterContainerID&#45;&gt;1_fwatchdog#ServerID_866797f645&#45;wb664</title>
<path fill="none" stroke="black" d="M446.169,-652.244C579.15,-639.95 808.579,-620.555 1006,-613 1110.59,-608.997 4670.25,-618.855 4774,-605 4814.28,-599.621 4858.39,-587.77 4892.62,-577.191"/>
<polygon fill="black" stroke="black" points="4893.97,-580.437 4902.46,-574.102 4891.87,-573.759 4893.97,-580.437"/>
<text text-anchor="middle" x="1048" y="-616.8" font-family="Times,serif" font-size="14.00">RESPONSE</text>
</g>
<!-- 10.1.80.1:5947#ServerID_OuterContainerID -->
<g id="node25" class="node"><title>10.1.80.1:5947#ServerID_OuterContainerID</title>
<polygon fill="none" stroke="black" points="327,-574 16.1496,-556 327,-538 637.85,-556 327,-574"/>
<text text-anchor="middle" x="327" y="-552.3" font-family="Times,serif" font-size="14.00">10.1.80.1:5947#ServerID_OuterContainerID</text>
</g>
<!-- 10.1.80.44:8080#ServerID_OuterContainerID&#45;&gt;10.1.80.1:5947#ServerID_OuterContainerID -->
<g id="edge36" class="edge"><title>10.1.80.44:8080#ServerID_OuterContainerID&#45;&gt;10.1.80.1:5947#ServerID_OuterContainerID</title>
<path fill="none" stroke="black" d="M295.089,-648.103C286.688,-643.04 278.895,-636.453 274,-628 263.93,-610.613 277.936,-592.484 294.069,-578.897"/>
<polygon fill="black" stroke="black" points="296.364,-581.546 302.064,-572.615 292.039,-576.041 296.364,-581.546"/>
<text text-anchor="middle" x="316" y="-616.8" font-family="Times,serif" font-size="14.00">RESPONSE</text>
</g>
<!-- 10.0.88.125:31112#ServerID_OuterContainerID -->
<g id="node26" class="node"><title>10.0.88.125:31112#ServerID_OuterContainerID</title>
<polygon fill="none" stroke="black" points="991,-574 655.515,-556 991,-538 1326.48,-556 991,-574"/>
<text text-anchor="middle" x="991" y="-552.3" font-family="Times,serif" font-size="14.00">10.0.88.125:31112#ServerID_OuterContainerID</text>
</g>
<!-- 10.1.80.44:8080#ServerID_OuterContainerID&#45;&gt;10.0.88.125:31112#ServerID_OuterContainerID -->
<g id="edge37" class="edge"><title>10.1.80.44:8080#ServerID_OuterContainerID&#45;&gt;10.0.88.125:31112#ServerID_OuterContainerID</title>
<path fill="none" stroke="black" d="M413.152,-650.372C535.706,-630.569 772.409,-592.321 901.578,-571.449"/>
<polygon fill="black" stroke="black" points="902.518,-574.843 911.831,-569.793 901.401,-567.933 902.518,-574.843"/>
<text text-anchor="middle" x="686" y="-616.8" font-family="Times,serif" font-size="14.00">RESPONSE</text>
</g>
<!-- localhost:3000#ServerID_309ec2955ffa -->
<g id="node8" class="node"><title>localhost:3000#ServerID_309ec2955ffa</title>
<polygon fill="none" stroke="black" points="1796,-898 1516.65,-880 1796,-862 2075.35,-880 1796,-898"/>
<text text-anchor="middle" x="1796" y="-876.3" font-family="Times,serif" font-size="14.00">localhost:3000#ServerID_309ec2955ffa</text>
</g>
<!-- 1_fwatchdog#ServerID_309ec2955ffa&#45;&gt;localhost:3000#ServerID_309ec2955ffa -->
<g id="edge9" class="edge"><title>1_fwatchdog#ServerID_309ec2955ffa&#45;&gt;localhost:3000#ServerID_309ec2955ffa</title>
<path fill="none" stroke="black" d="M1842.59,-948.951C1836.52,-943.566 1830.16,-937.354 1825,-931 1818.93,-923.532 1813.34,-914.642 1808.72,-906.443"/>
<polygon fill="black" stroke="black" points="1811.77,-904.731 1803.94,-897.594 1805.61,-908.056 1811.77,-904.731"/>
<text text-anchor="middle" x="1854" y="-919.8" font-family="Times,serif" font-size="14.00">connect</text>
</g>
<!-- 1_fwatchdog#ServerID_309ec2955ffa&#45;&gt;localhost:3000#ServerID_309ec2955ffa -->
<g id="edge10" class="edge"><title>1_fwatchdog#ServerID_309ec2955ffa&#45;&gt;localhost:3000#ServerID_309ec2955ffa</title>
<path fill="none" stroke="black" d="M1878.19,-948.856C1884.75,-938.741 1889.76,-926.003 1883,-916 1878.39,-909.17 1872.19,-903.673 1865.23,-899.249"/>
<polygon fill="black" stroke="black" points="1866.5,-895.955 1856.06,-894.198 1863.13,-902.087 1866.5,-895.955"/>
<text text-anchor="middle" x="1906" y="-919.8" font-family="Times,serif" font-size="14.00">write</text>
</g>
<!-- localhost:3000#ServerID_309ec2955ffa&#45;&gt;1_fwatchdog#ServerID_309ec2955ffa -->
<g id="edge11" class="edge"><title>localhost:3000#ServerID_309ec2955ffa&#45;&gt;1_fwatchdog#ServerID_309ec2955ffa</title>
<path fill="none" stroke="black" d="M1782.93,-897.254C1776.36,-907.524 1771.1,-920.742 1778,-931 1781.02,-935.483 1784.72,-939.392 1788.87,-942.8"/>
<polygon fill="black" stroke="black" points="1787.16,-945.876 1797.35,-948.757 1791.18,-940.147 1787.16,-945.876"/>
<text text-anchor="middle" x="1794.5" y="-919.8" font-family="Times,serif" font-size="14.00">read</text>
</g>
<!-- 11_node#ServerID_309ec2955ffa -->
<g id="node10" class="node"><title>11_node#ServerID_309ec2955ffa</title>
<polygon fill="none" stroke="black" points="2368.5,-790 2109.5,-790 2109.5,-754 2368.5,-754 2368.5,-790"/>
<text text-anchor="middle" x="2239" y="-768.3" font-family="Times,serif" font-size="14.00">11_node#ServerID_309ec2955ffa</text>
</g>
<!-- localhost:3000#ServerID_309ec2955ffa&#45;&gt;11_node#ServerID_309ec2955ffa -->
<g id="edge14" class="edge"><title>localhost:3000#ServerID_309ec2955ffa&#45;&gt;11_node#ServerID_309ec2955ffa</title>
<path fill="none" stroke="black" d="M1852.11,-865.575C1929.42,-847.077 2069.18,-813.635 2157.87,-792.413"/>
<polygon fill="black" stroke="black" points="2158.71,-795.81 2167.62,-790.079 2157.08,-789.002 2158.71,-795.81"/>
<text text-anchor="middle" x="2021.5" y="-832.8" font-family="Times,serif" font-size="14.00">read</text>
</g>
<!-- /etc/hosts#ServerID_309ec2955ffa -->
<g id="node9" class="node"><title>/etc/hosts#ServerID_309ec2955ffa</title>
<ellipse fill="none" stroke="black" cx="2687" cy="-880" rx="174.669" ry="18"/>
<text text-anchor="middle" x="2687" y="-876.3" font-family="Times,serif" font-size="14.00">/etc/hosts#ServerID_309ec2955ffa</text>
</g>
<!-- /etc/hosts#ServerID_309ec2955ffa&#45;&gt;11_node#ServerID_309ec2955ffa -->
<g id="edge12" class="edge"><title>/etc/hosts#ServerID_309ec2955ffa&#45;&gt;11_node#ServerID_309ec2955ffa</title>
<path fill="none" stroke="black" d="M2620.41,-863.245C2540.7,-844.383 2407.19,-812.796 2321.15,-792.436"/>
<polygon fill="black" stroke="black" points="2321.69,-788.969 2311.15,-790.072 2320.08,-795.781 2321.69,-788.969"/>
<text text-anchor="middle" x="2546.5" y="-832.8" font-family="Times,serif" font-size="14.00">read</text>
</g>
<!-- 11_node#ServerID_309ec2955ffa&#45;&gt;gateway:8080#ServerID_OuterContainerID -->
<g id="edge22" class="edge"><title>11_node#ServerID_309ec2955ffa&#45;&gt;gateway:8080#ServerID_OuterContainerID</title>
<path fill="none" stroke="black" d="M2144.05,-753.969C2029.19,-733.369 1837.79,-699.04 1729.39,-679.598"/>
<polygon fill="black" stroke="black" points="1729.95,-676.142 1719.49,-677.822 1728.71,-683.032 1729.95,-676.142"/>
<text text-anchor="middle" x="2060" y="-724.8" font-family="Times,serif" font-size="14.00">connect</text>
</g>
<!-- 10.152.183.10:53#ServerID_OuterContainerID -->
<g id="node12" class="node"><title>10.152.183.10:53#ServerID_OuterContainerID</title>
<polygon fill="none" stroke="black" points="2297,-682 1969.56,-664 2297,-646 2624.44,-664 2297,-682"/>
<text text-anchor="middle" x="2297" y="-660.3" font-family="Times,serif" font-size="14.00">10.152.183.10:53#ServerID_OuterContainerID</text>
</g>
<!-- 11_node#ServerID_309ec2955ffa&#45;&gt;10.152.183.10:53#ServerID_OuterContainerID -->
<g id="edge16" class="edge"><title>11_node#ServerID_309ec2955ffa&#45;&gt;10.152.183.10:53#ServerID_OuterContainerID</title>
<path fill="none" stroke="black" d="M2231.45,-753.658C2228.27,-743.711 2226.27,-731.211 2231,-721 2237.35,-707.284 2248.9,-695.7 2260.58,-686.692"/>
<polygon fill="black" stroke="black" points="2262.98,-689.281 2269.04,-680.594 2258.88,-683.603 2262.98,-689.281"/>
<text text-anchor="middle" x="2255.5" y="-724.8" font-family="Times,serif" font-size="14.00">sendto</text>
</g>
<!-- /etc/resolv.conf#ServerID_309ec2955ffa -->
<g id="node11" class="node"><title>/etc/resolv.conf#ServerID_309ec2955ffa</title>
<ellipse fill="none" stroke="black" cx="2294" cy="-880" rx="200.365" ry="18"/>
<text text-anchor="middle" x="2294" y="-876.3" font-family="Times,serif" font-size="14.00">/etc/resolv.conf#ServerID_309ec2955ffa</text>
</g>
<!-- /etc/resolv.conf#ServerID_309ec2955ffa&#45;&gt;11_node#ServerID_309ec2955ffa -->
<g id="edge15" class="edge"><title>/etc/resolv.conf#ServerID_309ec2955ffa&#45;&gt;11_node#ServerID_309ec2955ffa</title>
<path fill="none" stroke="black" d="M2285.16,-861.969C2276.4,-845.071 2262.83,-818.935 2252.68,-799.356"/>
<polygon fill="black" stroke="black" points="2255.71,-797.605 2248,-790.341 2249.5,-800.829 2255.71,-797.605"/>
<text text-anchor="middle" x="2291.5" y="-832.8" font-family="Times,serif" font-size="14.00">read</text>
</g>
<!-- 10.152.183.10:53#ServerID_OuterContainerID&#45;&gt;11_node#ServerID_309ec2955ffa -->
<g id="edge17" class="edge"><title>10.152.183.10:53#ServerID_OuterContainerID&#45;&gt;11_node#ServerID_309ec2955ffa</title>
<path fill="none" stroke="black" d="M2295.88,-682.201C2294.22,-697.332 2290.13,-719.463 2280,-736 2277.63,-739.876 2274.68,-743.54 2271.46,-746.935"/>
<polygon fill="black" stroke="black" points="2268.95,-744.493 2264.09,-753.911 2273.76,-749.575 2268.95,-744.493"/>
<text text-anchor="middle" x="2320" y="-724.8" font-family="Times,serif" font-size="14.00">recvfrom</text>
</g>
<!-- localhost:3000#ServerID_04eca90de97f -->
<g id="node14" class="node"><title>localhost:3000#ServerID_04eca90de97f</title>
<polygon fill="none" stroke="black" points="3782,-487 3499.64,-469 3782,-451 4064.36,-469 3782,-487"/>
<text text-anchor="middle" x="3782" y="-465.3" font-family="Times,serif" font-size="14.00">localhost:3000#ServerID_04eca90de97f</text>
</g>
<!-- 1_fwatchdog#ServerID_04eca90de97f&#45;&gt;localhost:3000#ServerID_04eca90de97f -->
<g id="edge18" class="edge"><title>1_fwatchdog#ServerID_04eca90de97f&#45;&gt;localhost:3000#ServerID_04eca90de97f</title>
<path fill="none" stroke="black" d="M3782,-537.799C3782,-526.163 3782,-510.548 3782,-497.237"/>
<polygon fill="black" stroke="black" points="3785.5,-497.175 3782,-487.175 3778.5,-497.175 3785.5,-497.175"/>
<text text-anchor="middle" x="3811" y="-508.8" font-family="Times,serif" font-size="14.00">connect</text>
</g>
<!-- 1_fwatchdog#ServerID_04eca90de97f&#45;&gt;localhost:3000#ServerID_04eca90de97f -->
<g id="edge21" class="edge"><title>1_fwatchdog#ServerID_04eca90de97f&#45;&gt;localhost:3000#ServerID_04eca90de97f</title>
<path fill="none" stroke="black" d="M3823.64,-537.892C3830.59,-533.144 3836.87,-527.244 3841,-520 3847.69,-508.245 3839.98,-497.999 3828.16,-489.893"/>
<polygon fill="black" stroke="black" points="3829.82,-486.807 3819.45,-484.632 3826.2,-492.799 3829.82,-486.807"/>
<text text-anchor="middle" x="3862" y="-508.8" font-family="Times,serif" font-size="14.00">write</text>
</g>
<!-- pipe:[445142]#ServerID_04eca90de97f -->
<g id="node24" class="node"><title>pipe:[445142]#ServerID_04eca90de97f</title>
<ellipse fill="none" stroke="black" cx="4278" cy="-469" rx="196.065" ry="18"/>
<text text-anchor="middle" x="4278" y="-465.3" font-family="Times,serif" font-size="14.00">pipe:[445142]#ServerID_04eca90de97f</text>
</g>
<!-- 1_fwatchdog#ServerID_04eca90de97f&#45;&gt;pipe:[445142]#ServerID_04eca90de97f -->
<g id="edge34" class="edge"><title>1_fwatchdog#ServerID_04eca90de97f&#45;&gt;pipe:[445142]#ServerID_04eca90de97f</title>
<path fill="none" stroke="black" d="M3881.48,-537.952C3968.26,-523.081 4093.44,-501.628 4179.83,-486.824"/>
<polygon fill="black" stroke="black" points="4180.64,-490.236 4189.9,-485.097 4179.46,-483.337 4180.64,-490.236"/>
<text text-anchor="middle" x="4078" y="-508.8" font-family="Times,serif" font-size="14.00">write</text>
</g>
<!-- localhost:3000#ServerID_04eca90de97f&#45;&gt;1_fwatchdog#ServerID_04eca90de97f -->
<g id="edge20" class="edge"><title>localhost:3000#ServerID_04eca90de97f&#45;&gt;1_fwatchdog#ServerID_04eca90de97f</title>
<path fill="none" stroke="black" d="M3758.9,-485.918C3748.5,-495.195 3739.62,-507.503 3745,-520 3746.57,-523.642 3748.72,-527.082 3751.21,-530.279"/>
<polygon fill="black" stroke="black" points="3748.62,-532.639 3757.93,-537.702 3753.81,-527.94 3748.62,-532.639"/>
<text text-anchor="middle" x="3761.5" y="-508.8" font-family="Times,serif" font-size="14.00">read</text>
</g>
<!-- 13_node#ServerID_04eca90de97f -->
<g id="node15" class="node"><title>13_node#ServerID_04eca90de97f</title>
<polygon fill="none" stroke="black" points="4093,-400 3831,-400 3831,-364 4093,-364 4093,-400"/>
<text text-anchor="middle" x="3962" y="-378.3" font-family="Times,serif" font-size="14.00">13_node#ServerID_04eca90de97f</text>
</g>
<!-- localhost:3000#ServerID_04eca90de97f&#45;&gt;13_node#ServerID_04eca90de97f -->
<g id="edge23" class="edge"><title>localhost:3000#ServerID_04eca90de97f&#45;&gt;13_node#ServerID_04eca90de97f</title>
<path fill="none" stroke="black" d="M3813.77,-452.999C3842.33,-439.509 3884.62,-419.54 3916.73,-404.379"/>
<polygon fill="black" stroke="black" points="3918.37,-407.476 3925.91,-400.041 3915.38,-401.146 3918.37,-407.476"/>
<text text-anchor="middle" x="3898.5" y="-421.8" font-family="Times,serif" font-size="14.00">read</text>
</g>
<!-- pipe:[445197]#ServerID_04eca90de97f -->
<g id="node16" class="node"><title>pipe:[445197]#ServerID_04eca90de97f</title>
<ellipse fill="none" stroke="black" cx="3516" cy="-295" rx="196.065" ry="18"/>
<text text-anchor="middle" x="3516" y="-291.3" font-family="Times,serif" font-size="14.00">pipe:[445197]#ServerID_04eca90de97f</text>
</g>
<!-- 13_node#ServerID_04eca90de97f&#45;&gt;pipe:[445197]#ServerID_04eca90de97f -->
<g id="edge24" class="edge"><title>13_node#ServerID_04eca90de97f&#45;&gt;pipe:[445197]#ServerID_04eca90de97f</title>
<path fill="none" stroke="black" d="M3872.55,-363.952C3795.52,-349.273 3684.85,-328.179 3607.29,-313.399"/>
<polygon fill="black" stroke="black" points="3607.53,-309.881 3597.05,-311.447 3606.22,-316.757 3607.53,-309.881"/>
<text text-anchor="middle" x="3784" y="-334.8" font-family="Times,serif" font-size="14.00">write</text>
</g>
<!-- /dev/null#ServerID_04eca90de97f -->
<g id="node17" class="node"><title>/dev/null#ServerID_04eca90de97f</title>
<ellipse fill="none" stroke="black" cx="3901" cy="-295" rx="170.87" ry="18"/>
<text text-anchor="middle" x="3901" y="-291.3" font-family="Times,serif" font-size="14.00">/dev/null#ServerID_04eca90de97f</text>
</g>
<!-- 13_node#ServerID_04eca90de97f&#45;&gt;/dev/null#ServerID_04eca90de97f -->
<g id="edge33" class="edge"><title>13_node#ServerID_04eca90de97f&#45;&gt;/dev/null#ServerID_04eca90de97f</title>
<path fill="none" stroke="black" d="M3915.93,-363.872C3908.77,-359.174 3902.33,-353.299 3898,-346 3894.04,-339.315 3893.21,-331.203 3893.8,-323.476"/>
<polygon fill="black" stroke="black" points="3897.3,-323.76 3895.35,-313.347 3890.38,-322.707 3897.3,-323.76"/>
<text text-anchor="middle" x="3917" y="-334.8" font-family="Times,serif" font-size="14.00">write</text>
</g>
<!-- pipe:[445218]#ServerID_04eca90de97f -->
<g id="node18" class="node"><title>pipe:[445218]#ServerID_04eca90de97f</title>
<ellipse fill="none" stroke="black" cx="4566" cy="-295" rx="196.065" ry="18"/>
<text text-anchor="middle" x="4566" y="-291.3" font-family="Times,serif" font-size="14.00">pipe:[445218]#ServerID_04eca90de97f</text>
</g>
<!-- 13_node#ServerID_04eca90de97f&#45;&gt;pipe:[445218]#ServerID_04eca90de97f -->
<g id="edge27" class="edge"><title>13_node#ServerID_04eca90de97f&#45;&gt;pipe:[445218]#ServerID_04eca90de97f</title>
<path fill="none" stroke="black" d="M4083.14,-363.952C4191.23,-348.741 4348.26,-326.642 4453.6,-311.817"/>
<polygon fill="black" stroke="black" points="4454.22,-315.265 4463.63,-310.406 4453.24,-308.334 4454.22,-315.265"/>
<text text-anchor="middle" x="4319" y="-334.8" font-family="Times,serif" font-size="14.00">write</text>
</g>
<!-- 29_node#ServerID_04eca90de97f -->
<g id="node19" class="node"><title>29_node#ServerID_04eca90de97f</title>
<polygon fill="none" stroke="black" points="4352,-313 4090,-313 4090,-277 4352,-277 4352,-313"/>
<text text-anchor="middle" x="4221" y="-291.3" font-family="Times,serif" font-size="14.00">29_node#ServerID_04eca90de97f</text>
</g>
<!-- 13_node#ServerID_04eca90de97f&#45;&gt;29_node#ServerID_04eca90de97f -->
<g id="edge29" class="edge"><title>13_node#ServerID_04eca90de97f&#45;&gt;29_node#ServerID_04eca90de97f</title>
<path fill="none" stroke="black" d="M4014.1,-363.901C4055.99,-350.155 4114.94,-330.808 4159.2,-316.28"/>
<polygon fill="black" stroke="black" points="4160.57,-319.515 4168.98,-313.071 4158.39,-312.864 4160.57,-319.515"/>
<text text-anchor="middle" x="4122" y="-334.8" font-family="Times,serif" font-size="14.00">fork</text>
</g>
<!-- /dev/null#ServerID_04eca90de97f&#45;&gt;13_node#ServerID_04eca90de97f -->
<g id="edge25" class="edge"><title>/dev/null#ServerID_04eca90de97f&#45;&gt;13_node#ServerID_04eca90de97f</title>
<path fill="none" stroke="black" d="M3923.27,-313.06C3929.23,-318.355 3935.3,-324.517 3940,-331 3945.14,-338.098 3949.44,-346.588 3952.83,-354.539"/>
<polygon fill="black" stroke="black" points="3949.58,-355.833 3956.51,-363.842 3956.09,-353.256 3949.58,-355.833"/>
<text text-anchor="middle" x="3964.5" y="-334.8" font-family="Times,serif" font-size="14.00">read</text>
</g>
<!-- pipe:[445218]#ServerID_04eca90de97f&#45;&gt;13_node#ServerID_04eca90de97f -->
<g id="edge26" class="edge"><title>pipe:[445218]#ServerID_04eca90de97f&#45;&gt;13_node#ServerID_04eca90de97f</title>
<path fill="none" stroke="black" d="M4514.84,-312.409C4477.78,-323.639 4426.28,-337.909 4380,-346 4288.68,-361.965 4184.81,-370.707 4103.46,-375.462"/>
<polygon fill="black" stroke="black" points="4102.94,-371.986 4093.15,-376.05 4103.34,-378.975 4102.94,-371.986"/>
<text text-anchor="middle" x="4463.5" y="-334.8" font-family="Times,serif" font-size="14.00">read</text>
</g>
<!-- 29_sh#ServerID_04eca90de97f -->
<g id="node20" class="node"><title>29_sh#ServerID_04eca90de97f</title>
<polygon fill="none" stroke="black" points="4343,-226 4099,-226 4099,-190 4343,-190 4343,-226"/>
<text text-anchor="middle" x="4221" y="-204.3" font-family="Times,serif" font-size="14.00">29_sh#ServerID_04eca90de97f</text>
</g>
<!-- 29_node#ServerID_04eca90de97f&#45;&gt;29_sh#ServerID_04eca90de97f -->
<g id="edge28" class="edge"><title>29_node#ServerID_04eca90de97f&#45;&gt;29_sh#ServerID_04eca90de97f</title>
<path fill="none" stroke="black" d="M4221,-276.799C4221,-265.163 4221,-249.548 4221,-236.237"/>
<polygon fill="black" stroke="black" points="4224.5,-236.175 4221,-226.175 4217.5,-236.175 4224.5,-236.175"/>
<text text-anchor="middle" x="4246" y="-247.8" font-family="Times,serif" font-size="14.00">execve</text>
</g>
<!-- 30_sh#ServerID_04eca90de97f -->
<g id="node21" class="node"><title>30_sh#ServerID_04eca90de97f</title>
<polygon fill="none" stroke="black" points="4240,-139 3996,-139 3996,-103 4240,-103 4240,-139"/>
<text text-anchor="middle" x="4118" y="-117.3" font-family="Times,serif" font-size="14.00">30_sh#ServerID_04eca90de97f</text>
</g>
<!-- 29_sh#ServerID_04eca90de97f&#45;&gt;30_sh#ServerID_04eca90de97f -->
<g id="edge31" class="edge"><title>29_sh#ServerID_04eca90de97f&#45;&gt;30_sh#ServerID_04eca90de97f</title>
<path fill="none" stroke="black" d="M4200.16,-189.799C4184.8,-177.126 4163.72,-159.734 4146.76,-145.738"/>
<polygon fill="black" stroke="black" points="4148.75,-142.841 4138.81,-139.175 4144.3,-148.24 4148.75,-142.841"/>
<text text-anchor="middle" x="4190" y="-160.8" font-family="Times,serif" font-size="14.00">fork</text>
</g>
<!-- /home/app/3.txt#ServerID_04eca90de97f -->
<g id="node23" class="node"><title>/home/app/3.txt#ServerID_04eca90de97f</title>
<ellipse fill="none" stroke="black" cx="4462" cy="-121" rx="204.164" ry="18"/>
<text text-anchor="middle" x="4462" y="-117.3" font-family="Times,serif" font-size="14.00">/home/app/3.txt#ServerID_04eca90de97f</text>
</g>
<!-- 29_sh#ServerID_04eca90de97f&#45;&gt;/home/app/3.txt#ServerID_04eca90de97f -->
<g id="edge32" class="edge"><title>29_sh#ServerID_04eca90de97f&#45;&gt;/home/app/3.txt#ServerID_04eca90de97f</title>
<path fill="none" stroke="black" d="M4269.48,-189.901C4308.67,-176.078 4363.92,-156.591 4405.19,-142.037"/>
<polygon fill="black" stroke="black" points="4406.56,-145.264 4414.83,-138.637 4404.23,-138.663 4406.56,-145.264"/>
<text text-anchor="middle" x="4374" y="-160.8" font-family="Times,serif" font-size="14.00">write</text>
</g>
<!-- 30_touch#ServerID_04eca90de97f -->
<g id="node22" class="node"><title>30_touch#ServerID_04eca90de97f</title>
<polygon fill="none" stroke="black" points="4252,-52 3984,-52 3984,-16 4252,-16 4252,-52"/>
<text text-anchor="middle" x="4118" y="-30.3" font-family="Times,serif" font-size="14.00">30_touch#ServerID_04eca90de97f</text>
</g>
<!-- 30_sh#ServerID_04eca90de97f&#45;&gt;30_touch#ServerID_04eca90de97f -->
<g id="edge30" class="edge"><title>30_sh#ServerID_04eca90de97f&#45;&gt;30_touch#ServerID_04eca90de97f</title>
<path fill="none" stroke="black" d="M4118,-102.799C4118,-91.1626 4118,-75.5479 4118,-62.2368"/>
<polygon fill="black" stroke="black" points="4121.5,-62.1754 4118,-52.1754 4114.5,-62.1755 4121.5,-62.1754"/>
<text text-anchor="middle" x="4143" y="-73.8" font-family="Times,serif" font-size="14.00">execve</text>
</g>
<!-- 10.1.80.1:5947#ServerID_OuterContainerID&#45;&gt;10.1.80.44:8080#ServerID_OuterContainerID -->
<g id="edge35" class="edge"><title>10.1.80.1:5947#ServerID_OuterContainerID&#45;&gt;10.1.80.44:8080#ServerID_OuterContainerID</title>
<path fill="none" stroke="black" d="M340.743,-573.449C348.653,-584.019 357.828,-598.453 362,-613 363.838,-619.408 364.151,-621.69 362,-628 360.763,-631.627 358.982,-635.171 356.915,-638.527"/>
<polygon fill="black" stroke="black" points="353.906,-636.718 350.956,-646.894 359.608,-640.779 353.906,-636.718"/>
<text text-anchor="middle" x="384" y="-616.8" font-family="Times,serif" font-size="14.00">POST</text>
</g>
</g>
</svg>
