<?xml version="1.0" encoding="UTF-8" standalone="no"?>
<!DOCTYPE svg PUBLIC "-//W3C//DTD SVG 1.1//EN"
 "http://www.w3.org/Graphics/SVG/1.1/DTD/svg11.dtd">
<!-- Generated by graphviz version 2.38.0 (20140413.2041)
 -->
<!-- Title: G Pages: 1 -->
<svg width="6900pt" height="558pt"
 viewBox="0.00 0.00 6900.00 558.00" xmlns="http://www.w3.org/2000/svg" xmlns:xlink="http://www.w3.org/1999/xlink">
<g id="graph0" class="graph" transform="scale(1 1) rotate(0) translate(4 554)">
<title>G</title>
<polygon fill="white" stroke="none" points="-4,4 -4,-554 6896,-554 6896,4 -4,4"/>
<g id="clust1" class="cluster"><title>clusterServerID_6dcbcc88d5&#45;mp48t</title>
<polygon fill="none" stroke="black" points="2196,-444 2196,-542 2544,-542 2544,-444 2196,-444"/>
<text text-anchor="middle" x="2370" y="-526.8" font-family="Times,serif" font-size="14.00">clusterServerID_6dcbcc88d5&#45;mp48t</text>
</g>
<g id="clust2" class="cluster"><title>clusterServerID_76c96688d7&#45;9bscs</title>
<polygon fill="none" stroke="black" points="5442,-182 5442,-280 5784,-280 5784,-182 5442,-182"/>
<text text-anchor="middle" x="5613" y="-264.8" font-family="Times,serif" font-size="14.00">clusterServerID_76c96688d7&#45;9bscs</text>
</g>
<g id="clust3" class="cluster"><title>clusterServerID_8665dd9487&#45;pdgrc</title>
<polygon fill="none" stroke="black" points="4052,-182 4052,-280 4396,-280 4396,-182 4052,-182"/>
<text text-anchor="middle" x="4224" y="-264.8" font-family="Times,serif" font-size="14.00">clusterServerID_8665dd9487&#45;pdgrc</text>
</g>
<g id="clust4" class="cluster"><title>clusterServerID_OuterContainerID</title>
<polygon fill="none" stroke="black" points="8,-182 8,-411 4044,-411 4044,-182 8,-182"/>
<text text-anchor="middle" x="2026" y="-395.8" font-family="Times,serif" font-size="14.00">clusterServerID_OuterContainerID</text>
</g>
<g id="clust5" class="cluster"><title>clusterServerID_d68681b9e3dc</title>
<polygon fill="none" stroke="black" points="4404,-8 4404,-280 5434,-280 5434,-8 4404,-8"/>
<text text-anchor="middle" x="4919" y="-264.8" font-family="Times,serif" font-size="14.00">clusterServerID_d68681b9e3dc</text>
</g>
<g id="clust6" class="cluster"><title>clusterServerID_e47e2b15aff4</title>
<polygon fill="none" stroke="black" points="5792,-182 5792,-411 6884,-411 6884,-182 5792,-182"/>
<text text-anchor="middle" x="6338" y="-395.8" font-family="Times,serif" font-size="14.00">clusterServerID_e47e2b15aff4</text>
</g>
<!-- 1_fwatchdog#ServerID_6dcbcc88d5&#45;mp48t -->
<g id="node1" class="node"><title>1_fwatchdog#ServerID_6dcbcc88d5&#45;mp48t</title>
<polygon fill="none" stroke="black" points="2535.5,-488 2204.5,-488 2204.5,-452 2535.5,-452 2535.5,-488"/>
<text text-anchor="middle" x="2370" y="-466.3" font-family="Times,serif" font-size="14.00">1_fwatchdog#ServerID_6dcbcc88d5&#45;mp48t</text>
</g>
<!-- 10.1.80.183:8080#ServerID_OuterContainerID -->
<g id="node2" class="node"><title>10.1.80.183:8080#ServerID_OuterContainerID</title>
<polygon fill="none" stroke="black" points="343,-357 15.5599,-339 343,-321 670.44,-339 343,-357"/>
<text text-anchor="middle" x="343" y="-335.3" font-family="Times,serif" font-size="14.00">10.1.80.183:8080#ServerID_OuterContainerID</text>
</g>
<!-- 1_fwatchdog#ServerID_6dcbcc88d5&#45;mp48t&#45;&gt;10.1.80.183:8080#ServerID_OuterContainerID -->
<g id="edge1" class="edge"><title>1_fwatchdog#ServerID_6dcbcc88d5&#45;mp48t&#45;&gt;10.1.80.183:8080#ServerID_OuterContainerID</title>
<path fill="none" stroke="black" d="M2204.25,-467.063C1838.42,-462.175 971.259,-447.068 680,-411 583.486,-399.048 473.575,-373.623 406.251,-356.669"/>
<polygon fill="black" stroke="black" points="406.78,-353.193 396.227,-354.129 405.06,-359.978 406.78,-353.193"/>
<text text-anchor="middle" x="980" y="-422.8" font-family="Times,serif" font-size="14.00">POST</text>
</g>
<!-- gateway:8080#ServerID_OuterContainerID -->
<g id="node7" class="node"><title>gateway:8080#ServerID_OuterContainerID</title>
<polygon fill="none" stroke="black" points="2371,-357 2066.52,-339 2371,-321 2675.48,-339 2371,-357"/>
<text text-anchor="middle" x="2371" y="-335.3" font-family="Times,serif" font-size="14.00">gateway:8080#ServerID_OuterContainerID</text>
</g>
<!-- 1_fwatchdog#ServerID_6dcbcc88d5&#45;mp48t&#45;&gt;gateway:8080#ServerID_OuterContainerID -->
<g id="edge4" class="edge"><title>1_fwatchdog#ServerID_6dcbcc88d5&#45;mp48t&#45;&gt;gateway:8080#ServerID_OuterContainerID</title>
<path fill="none" stroke="black" d="M2351.04,-451.736C2346.56,-446.523 2342.39,-440.455 2340,-434 2331.44,-410.87 2342.22,-384.131 2353.35,-365.099"/>
<polygon fill="black" stroke="black" points="2356.44,-366.763 2358.75,-356.425 2350.5,-363.061 2356.44,-366.763"/>
<text text-anchor="middle" x="2360" y="-422.8" font-family="Times,serif" font-size="14.00">POST</text>
</g>
<!-- 10.1.80.183:58608#ServerID_OuterContainerID -->
<g id="node8" class="node"><title>10.1.80.183:58608#ServerID_OuterContainerID</title>
<polygon fill="none" stroke="black" points="3701,-357 3365.52,-339 3701,-321 4036.48,-339 3701,-357"/>
<text text-anchor="middle" x="3701" y="-335.3" font-family="Times,serif" font-size="14.00">10.1.80.183:58608#ServerID_OuterContainerID</text>
</g>
<!-- 1_fwatchdog#ServerID_6dcbcc88d5&#45;mp48t&#45;&gt;10.1.80.183:58608#ServerID_OuterContainerID -->
<g id="edge15" class="edge"><title>1_fwatchdog#ServerID_6dcbcc88d5&#45;mp48t&#45;&gt;10.1.80.183:58608#ServerID_OuterContainerID</title>
<path fill="none" stroke="black" d="M2535.51,-456.105C2685.01,-444.858 2911.12,-428.842 3108,-419 3218.14,-413.494 3246.48,-423.94 3356,-411 3455.12,-399.289 3568.1,-373.648 3636.96,-356.602"/>
<polygon fill="black" stroke="black" points="3637.94,-359.966 3646.8,-354.152 3636.25,-353.174 3637.94,-359.966"/>
<text text-anchor="middle" x="3150" y="-422.8" font-family="Times,serif" font-size="14.00">RESPONSE</text>
</g>
<!-- 10.1.80.183:8080#ServerID_OuterContainerID&#45;&gt;1_fwatchdog#ServerID_6dcbcc88d5&#45;mp48t -->
<g id="edge6" class="edge"><title>10.1.80.183:8080#ServerID_OuterContainerID&#45;&gt;1_fwatchdog#ServerID_6dcbcc88d5&#45;mp48t</title>
<path fill="none" stroke="black" d="M395.333,-354.141C461.178,-371.208 578.001,-399.098 680,-411 751.537,-419.348 932.012,-416.794 1004,-419 1431.48,-432.101 1934.05,-451.535 2194.14,-461.893"/>
<polygon fill="black" stroke="black" points="2194.3,-465.403 2204.43,-462.304 2194.58,-458.408 2194.3,-465.403"/>
<text text-anchor="middle" x="1497" y="-422.8" font-family="Times,serif" font-size="14.00">RESPONSE</text>
</g>
<!-- 10.1.80.1:41702#ServerID_OuterContainerID -->
<g id="node19" class="node"><title>10.1.80.1:41702#ServerID_OuterContainerID</title>
<polygon fill="none" stroke="black" points="1023,-226 704.105,-208 1023,-190 1341.9,-208 1023,-226"/>
<text text-anchor="middle" x="1023" y="-204.3" font-family="Times,serif" font-size="14.00">10.1.80.1:41702#ServerID_OuterContainerID</text>
</g>
<!-- 10.1.80.183:8080#ServerID_OuterContainerID&#45;&gt;10.1.80.1:41702#ServerID_OuterContainerID -->
<g id="edge25" class="edge"><title>10.1.80.183:8080#ServerID_OuterContainerID&#45;&gt;10.1.80.1:41702#ServerID_OuterContainerID</title>
<path fill="none" stroke="black" d="M413.82,-324.831C472.239,-314.189 557.347,-299.192 632,-288 659.913,-283.815 667.181,-284.768 695,-280 786.219,-264.366 890.52,-240.798 956.548,-225.161"/>
<polygon fill="black" stroke="black" points="957.487,-228.535 966.407,-222.818 955.869,-221.725 957.487,-228.535"/>
<text text-anchor="middle" x="674" y="-291.8" font-family="Times,serif" font-size="14.00">RESPONSE</text>
</g>
<!-- 10.0.88.125:31112#ServerID_OuterContainerID -->
<g id="node20" class="node"><title>10.0.88.125:31112#ServerID_OuterContainerID</title>
<polygon fill="none" stroke="black" points="351,-226 15.5152,-208 351,-190 686.485,-208 351,-226"/>
<text text-anchor="middle" x="351" y="-204.3" font-family="Times,serif" font-size="14.00">10.0.88.125:31112#ServerID_OuterContainerID</text>
</g>
<!-- 10.1.80.183:8080#ServerID_OuterContainerID&#45;&gt;10.0.88.125:31112#ServerID_OuterContainerID -->
<g id="edge26" class="edge"><title>10.1.80.183:8080#ServerID_OuterContainerID&#45;&gt;10.0.88.125:31112#ServerID_OuterContainerID</title>
<path fill="none" stroke="black" d="M344.062,-320.87C345.401,-299.281 347.719,-261.912 349.304,-236.352"/>
<polygon fill="black" stroke="black" points="352.807,-236.399 349.933,-226.201 345.821,-235.965 352.807,-236.399"/>
<text text-anchor="middle" x="389" y="-291.8" font-family="Times,serif" font-size="14.00">RESPONSE</text>
</g>
<!-- 10.1.80.183:45028#ServerID_OuterContainerID -->
<g id="node3" class="node"><title>10.1.80.183:45028#ServerID_OuterContainerID</title>
<polygon fill="none" stroke="black" points="1024,-357 688.515,-339 1024,-321 1359.48,-339 1024,-357"/>
<text text-anchor="middle" x="1024" y="-335.3" font-family="Times,serif" font-size="14.00">10.1.80.183:45028#ServerID_OuterContainerID</text>
</g>
<!-- 1_fwatchdog#ServerID_8665dd9487&#45;pdgrc -->
<g id="node4" class="node"><title>1_fwatchdog#ServerID_8665dd9487&#45;pdgrc</title>
<polygon fill="none" stroke="black" points="4388.5,-226 4059.5,-226 4059.5,-190 4388.5,-190 4388.5,-226"/>
<text text-anchor="middle" x="4224" y="-204.3" font-family="Times,serif" font-size="14.00">1_fwatchdog#ServerID_8665dd9487&#45;pdgrc</text>
</g>
<!-- 10.1.80.183:45028#ServerID_OuterContainerID&#45;&gt;1_fwatchdog#ServerID_8665dd9487&#45;pdgrc -->
<g id="edge2" class="edge"><title>10.1.80.183:45028#ServerID_OuterContainerID&#45;&gt;1_fwatchdog#ServerID_8665dd9487&#45;pdgrc</title>
<path fill="none" stroke="black" d="M1123.9,-326.353C1234.7,-314.051 1418.83,-295.426 1578,-288 1646.54,-284.802 3980.67,-293.183 4048,-280 4096.32,-270.539 4148.21,-247.927 4183.03,-230.743"/>
<polygon fill="black" stroke="black" points="4185.01,-233.666 4192.38,-226.056 4181.87,-227.408 4185.01,-233.666"/>
<text text-anchor="middle" x="1598" y="-291.8" font-family="Times,serif" font-size="14.00">POST</text>
</g>
<!-- 1_fwatchdog#ServerID_d68681b9e3dc -->
<g id="node15" class="node"><title>1_fwatchdog#ServerID_d68681b9e3dc</title>
<polygon fill="none" stroke="black" points="4848.5,-226 4549.5,-226 4549.5,-190 4848.5,-190 4848.5,-226"/>
<text text-anchor="middle" x="4699" y="-204.3" font-family="Times,serif" font-size="14.00">1_fwatchdog#ServerID_d68681b9e3dc</text>
</g>
<!-- 10.1.80.183:45028#ServerID_OuterContainerID&#45;&gt;1_fwatchdog#ServerID_d68681b9e3dc -->
<g id="edge17" class="edge"><title>10.1.80.183:45028#ServerID_OuterContainerID&#45;&gt;1_fwatchdog#ServerID_d68681b9e3dc</title>
<path fill="none" stroke="black" d="M1183.28,-329.532C1241.68,-326.591 1308.33,-323.425 1369,-321 1629.8,-310.577 1695.61,-321.015 1956,-303 2017.99,-298.711 2032.96,-291.446 2095,-288 2222.86,-280.899 4272.84,-295.114 4400,-280 4482.05,-270.247 4574.26,-246.308 4634.31,-228.917"/>
<polygon fill="black" stroke="black" points="4635.41,-232.241 4644.03,-226.077 4633.45,-225.522 4635.41,-232.241"/>
<text text-anchor="middle" x="2111.5" y="-291.8" font-family="Times,serif" font-size="14.00">read</text>
</g>
<!-- 1_fwatchdog#ServerID_8665dd9487&#45;pdgrc&#45;&gt;10.1.80.183:45028#ServerID_OuterContainerID -->
<g id="edge7" class="edge"><title>1_fwatchdog#ServerID_8665dd9487&#45;pdgrc&#45;&gt;10.1.80.183:45028#ServerID_OuterContainerID</title>
<path fill="none" stroke="black" d="M4192.38,-226.052C4157.99,-243.551 4100.86,-269.638 4048,-280 3988.68,-291.627 1932.42,-286.106 1872,-288 1758.97,-291.543 1730.89,-296.341 1618,-303 1471.58,-311.637 1304.85,-321.46 1185.38,-328.497"/>
<polygon fill="black" stroke="black" points="1184.84,-325.023 1175.06,-329.105 1185.25,-332.011 1184.84,-325.023"/>
<text text-anchor="middle" x="1914" y="-291.8" font-family="Times,serif" font-size="14.00">RESPONSE</text>
</g>
<!-- 1_fwatchdog#ServerID_e47e2b15aff4 -->
<g id="node5" class="node"><title>1_fwatchdog#ServerID_e47e2b15aff4</title>
<polygon fill="none" stroke="black" points="6876,-357 6586,-357 6586,-321 6876,-321 6876,-357"/>
<text text-anchor="middle" x="6731" y="-335.3" font-family="Times,serif" font-size="14.00">1_fwatchdog#ServerID_e47e2b15aff4</text>
</g>
<!-- localhost:3000#ServerID_e47e2b15aff4 -->
<g id="node6" class="node"><title>localhost:3000#ServerID_e47e2b15aff4</title>
<polygon fill="none" stroke="black" points="6597,-226 6317.65,-208 6597,-190 6876.35,-208 6597,-226"/>
<text text-anchor="middle" x="6597" y="-204.3" font-family="Times,serif" font-size="14.00">localhost:3000#ServerID_e47e2b15aff4</text>
</g>
<!-- 1_fwatchdog#ServerID_e47e2b15aff4&#45;&gt;localhost:3000#ServerID_e47e2b15aff4 -->
<g id="edge3" class="edge"><title>1_fwatchdog#ServerID_e47e2b15aff4&#45;&gt;localhost:3000#ServerID_e47e2b15aff4</title>
<path fill="none" stroke="black" d="M6713.21,-320.87C6689.49,-298.039 6647.44,-257.562 6620.96,-232.064"/>
<polygon fill="black" stroke="black" points="6623.23,-229.397 6613.6,-224.983 6618.38,-234.44 6623.23,-229.397"/>
<text text-anchor="middle" x="6710" y="-291.8" font-family="Times,serif" font-size="14.00">write</text>
</g>
<!-- gateway:8080#ServerID_OuterContainerID&#45;&gt;1_fwatchdog#ServerID_6dcbcc88d5&#45;mp48t -->
<g id="edge9" class="edge"><title>gateway:8080#ServerID_OuterContainerID&#45;&gt;1_fwatchdog#ServerID_6dcbcc88d5&#45;mp48t</title>
<path fill="none" stroke="black" d="M2375.03,-357.034C2378.93,-375.905 2383.75,-407.211 2380,-434 2379.64,-436.574 2379.14,-439.224 2378.55,-441.859"/>
<polygon fill="black" stroke="black" points="2375.1,-441.198 2375.96,-451.759 2381.87,-442.971 2375.1,-441.198"/>
<text text-anchor="middle" x="2424" y="-422.8" font-family="Times,serif" font-size="14.00">RESPONSE</text>
</g>
<!-- 10.1.80.183:58608#ServerID_OuterContainerID&#45;&gt;1_fwatchdog#ServerID_6dcbcc88d5&#45;mp48t -->
<g id="edge5" class="edge"><title>10.1.80.183:58608#ServerID_OuterContainerID&#45;&gt;1_fwatchdog#ServerID_6dcbcc88d5&#45;mp48t</title>
<path fill="none" stroke="black" d="M3641.77,-353.865C3573.28,-369.506 3456.99,-394.862 3356,-411 3074.93,-455.911 2743.82,-466.966 2545.73,-469.188"/>
<polygon fill="black" stroke="black" points="2545.48,-465.69 2535.52,-469.296 2545.55,-472.69 2545.48,-465.69"/>
<text text-anchor="middle" x="3297" y="-422.8" font-family="Times,serif" font-size="14.00">POST</text>
</g>
<!-- 10.1.80.183:58608#ServerID_OuterContainerID&#45;&gt;1_fwatchdog#ServerID_e47e2b15aff4 -->
<g id="edge8" class="edge"><title>10.1.80.183:58608#ServerID_OuterContainerID&#45;&gt;1_fwatchdog#ServerID_e47e2b15aff4</title>
<path fill="none" stroke="black" d="M3881.7,-347.333C4243.47,-363.552 5082.51,-398.834 5788,-411 5963.31,-414.023 6405.84,-449.035 6577,-411 6619.04,-401.658 6663.18,-379.577 6693.38,-362.312"/>
<polygon fill="black" stroke="black" points="6695.4,-365.184 6702.28,-357.128 6691.88,-359.134 6695.4,-365.184"/>
<text text-anchor="middle" x="5311" y="-422.8" font-family="Times,serif" font-size="14.00">read</text>
</g>
<!-- /etc/hosts#ServerID_e47e2b15aff4 -->
<g id="node9" class="node"><title>/etc/hosts#ServerID_e47e2b15aff4</title>
<ellipse fill="none" stroke="black" cx="6393" cy="-339" rx="174.669" ry="18"/>
<text text-anchor="middle" x="6393" y="-335.3" font-family="Times,serif" font-size="14.00">/etc/hosts#ServerID_e47e2b15aff4</text>
</g>
<!-- 9_node#ServerID_e47e2b15aff4 -->
<g id="node10" class="node"><title>9_node#ServerID_e47e2b15aff4</title>
<polygon fill="none" stroke="black" points="6050,-226 5800,-226 5800,-190 6050,-190 6050,-226"/>
<text text-anchor="middle" x="5925" y="-204.3" font-family="Times,serif" font-size="14.00">9_node#ServerID_e47e2b15aff4</text>
</g>
<!-- /etc/hosts#ServerID_e47e2b15aff4&#45;&gt;9_node#ServerID_e47e2b15aff4 -->
<g id="edge10" class="edge"><title>/etc/hosts#ServerID_e47e2b15aff4&#45;&gt;9_node#ServerID_e47e2b15aff4</title>
<path fill="none" stroke="black" d="M6334.67,-321.923C6249.09,-298.333 6089.63,-254.378 5996.91,-228.821"/>
<polygon fill="black" stroke="black" points="5997.62,-225.385 5987.04,-226.102 5995.76,-232.134 5997.62,-225.385"/>
<text text-anchor="middle" x="6270.5" y="-291.8" font-family="Times,serif" font-size="14.00">read</text>
</g>
<!-- 9_node#ServerID_e47e2b15aff4&#45;&gt;gateway:8080#ServerID_OuterContainerID -->
<g id="edge21" class="edge"><title>9_node#ServerID_e47e2b15aff4&#45;&gt;gateway:8080#ServerID_OuterContainerID</title>
<path fill="none" stroke="black" d="M5900.68,-226.172C5874.35,-243.637 5830.4,-269.569 5788,-280 5762.97,-286.158 3957.77,-287.604 3932,-288 3377.21,-296.53 3238.41,-298.619 2684,-321 2631.75,-323.109 2574.62,-326.031 2523.64,-328.857"/>
<polygon fill="black" stroke="black" points="2523.32,-325.369 2513.53,-329.42 2523.71,-332.358 2523.32,-325.369"/>
<text text-anchor="middle" x="3961" y="-291.8" font-family="Times,serif" font-size="14.00">connect</text>
</g>
<!-- 10.152.183.10:53#ServerID_OuterContainerID -->
<g id="node14" class="node"><title>10.152.183.10:53#ServerID_OuterContainerID</title>
<polygon fill="none" stroke="black" points="3020,-357 2692.56,-339 3020,-321 3347.44,-339 3020,-357"/>
<text text-anchor="middle" x="3020" y="-335.3" font-family="Times,serif" font-size="14.00">10.152.183.10:53#ServerID_OuterContainerID</text>
</g>
<!-- 9_node#ServerID_e47e2b15aff4&#45;&gt;10.152.183.10:53#ServerID_OuterContainerID -->
<g id="edge14" class="edge"><title>9_node#ServerID_e47e2b15aff4&#45;&gt;10.152.183.10:53#ServerID_OuterContainerID</title>
<path fill="none" stroke="black" d="M5900.67,-226.11C5874.32,-243.522 5830.36,-269.411 5788,-280 5751.24,-289.188 5143.89,-287.42 5106,-288 4328.62,-299.893 4134.01,-294.078 3357,-321 3299.96,-322.976 3237.52,-325.911 3182.05,-328.788"/>
<polygon fill="black" stroke="black" points="3181.58,-325.308 3171.78,-329.324 3181.95,-332.298 3181.58,-325.308"/>
<text text-anchor="middle" x="5130.5" y="-291.8" font-family="Times,serif" font-size="14.00">sendto</text>
</g>
<!-- /etc/resolv.conf#ServerID_e47e2b15aff4 -->
<g id="node11" class="node"><title>/etc/resolv.conf#ServerID_e47e2b15aff4</title>
<ellipse fill="none" stroke="black" cx="6000" cy="-339" rx="200.365" ry="18"/>
<text text-anchor="middle" x="6000" y="-335.3" font-family="Times,serif" font-size="14.00">/etc/resolv.conf#ServerID_e47e2b15aff4</text>
</g>
<!-- /etc/resolv.conf#ServerID_e47e2b15aff4&#45;&gt;9_node#ServerID_e47e2b15aff4 -->
<g id="edge11" class="edge"><title>/etc/resolv.conf#ServerID_e47e2b15aff4&#45;&gt;9_node#ServerID_e47e2b15aff4</title>
<path fill="none" stroke="black" d="M5990.04,-320.87C5977.26,-298.895 5954.98,-260.573 5940.11,-234.994"/>
<polygon fill="black" stroke="black" points="5943.05,-233.087 5935,-226.201 5937,-236.605 5943.05,-233.087"/>
<text text-anchor="middle" x="5993.5" y="-291.8" font-family="Times,serif" font-size="14.00">read</text>
</g>
<!-- 10.1.80.183:56648#ServerID_OuterContainerID -->
<g id="node12" class="node"><title>10.1.80.183:56648#ServerID_OuterContainerID</title>
<polygon fill="none" stroke="black" points="1713,-357 1377.52,-339 1713,-321 2048.48,-339 1713,-357"/>
<text text-anchor="middle" x="1713" y="-335.3" font-family="Times,serif" font-size="14.00">10.1.80.183:56648#ServerID_OuterContainerID</text>
</g>
<!-- 1_fwatchdog#ServerID_76c96688d7&#45;9bscs -->
<g id="node13" class="node"><title>1_fwatchdog#ServerID_76c96688d7&#45;9bscs</title>
<polygon fill="none" stroke="black" points="5776.5,-226 5449.5,-226 5449.5,-190 5776.5,-190 5776.5,-226"/>
<text text-anchor="middle" x="5613" y="-204.3" font-family="Times,serif" font-size="14.00">1_fwatchdog#ServerID_76c96688d7&#45;9bscs</text>
</g>
<!-- 10.1.80.183:56648#ServerID_OuterContainerID&#45;&gt;1_fwatchdog#ServerID_76c96688d7&#45;9bscs -->
<g id="edge12" class="edge"><title>10.1.80.183:56648#ServerID_OuterContainerID&#45;&gt;1_fwatchdog#ServerID_76c96688d7&#45;9bscs</title>
<path fill="none" stroke="black" d="M1846.47,-328.126C2018.14,-315.945 2325.59,-295.882 2589,-288 2628.55,-286.817 5399.17,-287.633 5438,-280 5486.08,-270.548 5537.66,-247.935 5572.28,-230.748"/>
<polygon fill="black" stroke="black" points="5574.22,-233.688 5581.57,-226.06 5571.07,-227.438 5574.22,-233.688"/>
<text text-anchor="middle" x="2609" y="-291.8" font-family="Times,serif" font-size="14.00">POST</text>
</g>
<!-- 1_fwatchdog#ServerID_76c96688d7&#45;9bscs&#45;&gt;10.1.80.183:56648#ServerID_OuterContainerID -->
<g id="edge13" class="edge"><title>1_fwatchdog#ServerID_76c96688d7&#45;9bscs&#45;&gt;10.1.80.183:56648#ServerID_OuterContainerID</title>
<path fill="none" stroke="black" d="M5581.57,-226.054C5547.39,-243.555 5490.6,-269.643 5438,-280 5406.06,-286.29 3126.55,-287.42 3094,-288 2887.26,-291.687 2835.67,-296.409 2629,-303 2375.23,-311.093 2311.7,-310.752 2058,-321 2001.03,-323.301 1938.78,-326.238 1883.04,-329.021"/>
<polygon fill="black" stroke="black" points="1882.53,-325.543 1872.71,-329.539 1882.88,-332.534 1882.53,-325.543"/>
<text text-anchor="middle" x="3136" y="-291.8" font-family="Times,serif" font-size="14.00">RESPONSE</text>
</g>
<!-- 10.152.183.10:53#ServerID_OuterContainerID&#45;&gt;9_node#ServerID_e47e2b15aff4 -->
<g id="edge16" class="edge"><title>10.152.183.10:53#ServerID_OuterContainerID&#45;&gt;9_node#ServerID_e47e2b15aff4</title>
<path fill="none" stroke="black" d="M3169.26,-329.173C3227.78,-326.051 3295.52,-322.858 3357,-321 4155.79,-296.864 4356.06,-321.511 5155,-303 5436.44,-296.479 5515.74,-351.619 5788,-280 5825.71,-270.081 5864.82,-248.49 5891.56,-231.706"/>
<polygon fill="black" stroke="black" points="5893.59,-234.56 5900.13,-226.222 5889.82,-228.664 5893.59,-234.56"/>
<text text-anchor="middle" x="5774" y="-291.8" font-family="Times,serif" font-size="14.00">recvfrom</text>
</g>
<!-- localhost:3000#ServerID_d68681b9e3dc -->
<g id="node16" class="node"><title>localhost:3000#ServerID_d68681b9e3dc</title>
<polygon fill="none" stroke="black" points="4699,-139 4412.45,-121 4699,-103 4985.55,-121 4699,-139"/>
<text text-anchor="middle" x="4699" y="-117.3" font-family="Times,serif" font-size="14.00">localhost:3000#ServerID_d68681b9e3dc</text>
</g>
<!-- 1_fwatchdog#ServerID_d68681b9e3dc&#45;&gt;localhost:3000#ServerID_d68681b9e3dc -->
<g id="edge18" class="edge"><title>1_fwatchdog#ServerID_d68681b9e3dc&#45;&gt;localhost:3000#ServerID_d68681b9e3dc</title>
<path fill="none" stroke="black" d="M4699,-189.799C4699,-178.163 4699,-162.548 4699,-149.237"/>
<polygon fill="black" stroke="black" points="4702.5,-149.175 4699,-139.175 4695.5,-149.175 4702.5,-149.175"/>
<text text-anchor="middle" x="4728" y="-160.8" font-family="Times,serif" font-size="14.00">connect</text>
</g>
<!-- 1_fwatchdog#ServerID_d68681b9e3dc&#45;&gt;localhost:3000#ServerID_d68681b9e3dc -->
<g id="edge20" class="edge"><title>1_fwatchdog#ServerID_d68681b9e3dc&#45;&gt;localhost:3000#ServerID_d68681b9e3dc</title>
<path fill="none" stroke="black" d="M4740.69,-189.967C4754.89,-181.471 4765.51,-170.184 4758,-157 4754.83,-151.431 4750.38,-146.657 4745.34,-142.589"/>
<polygon fill="black" stroke="black" points="4747.22,-139.632 4737.02,-136.766 4743.21,-145.367 4747.22,-139.632"/>
<text text-anchor="middle" x="4780" y="-160.8" font-family="Times,serif" font-size="14.00">write</text>
</g>
<!-- pipe:[77302415]#ServerID_d68681b9e3dc -->
<g id="node18" class="node"><title>pipe:[77302415]#ServerID_d68681b9e3dc</title>
<ellipse fill="none" stroke="black" cx="5215" cy="-121" rx="211.463" ry="18"/>
<text text-anchor="middle" x="5215" y="-117.3" font-family="Times,serif" font-size="14.00">pipe:[77302415]#ServerID_d68681b9e3dc</text>
</g>
<!-- 1_fwatchdog#ServerID_d68681b9e3dc&#45;&gt;pipe:[77302415]#ServerID_d68681b9e3dc -->
<g id="edge23" class="edge"><title>1_fwatchdog#ServerID_d68681b9e3dc&#45;&gt;pipe:[77302415]#ServerID_d68681b9e3dc</title>
<path fill="none" stroke="black" d="M4802.49,-189.952C4892.67,-175.098 5022.71,-153.676 5112.57,-138.873"/>
<polygon fill="black" stroke="black" points="5113.21,-142.316 5122.5,-137.237 5112.07,-135.409 5113.21,-142.316"/>
<text text-anchor="middle" x="5007" y="-160.8" font-family="Times,serif" font-size="14.00">write</text>
</g>
<!-- localhost:3000#ServerID_d68681b9e3dc&#45;&gt;1_fwatchdog#ServerID_d68681b9e3dc -->
<g id="edge19" class="edge"><title>localhost:3000#ServerID_d68681b9e3dc&#45;&gt;1_fwatchdog#ServerID_d68681b9e3dc</title>
<path fill="none" stroke="black" d="M4676.47,-137.844C4670.65,-143.195 4665.15,-149.691 4662,-157 4658.24,-165.741 4661.45,-174.389 4667.28,-181.972"/>
<polygon fill="black" stroke="black" points="4665.08,-184.751 4674.43,-189.737 4670.23,-180.009 4665.08,-184.751"/>
<text text-anchor="middle" x="4678.5" y="-160.8" font-family="Times,serif" font-size="14.00">read</text>
</g>
<!-- 10_node#ServerID_d68681b9e3dc -->
<g id="node17" class="node"><title>10_node#ServerID_d68681b9e3dc</title>
<polygon fill="none" stroke="black" points="4832.5,-52 4565.5,-52 4565.5,-16 4832.5,-16 4832.5,-52"/>
<text text-anchor="middle" x="4699" y="-30.3" font-family="Times,serif" font-size="14.00">10_node#ServerID_d68681b9e3dc</text>
</g>
<!-- localhost:3000#ServerID_d68681b9e3dc&#45;&gt;10_node#ServerID_d68681b9e3dc -->
<g id="edge22" class="edge"><title>localhost:3000#ServerID_d68681b9e3dc&#45;&gt;10_node#ServerID_d68681b9e3dc</title>
<path fill="none" stroke="black" d="M4699,-102.799C4699,-91.1626 4699,-75.5479 4699,-62.2368"/>
<polygon fill="black" stroke="black" points="4702.5,-62.1754 4699,-52.1754 4695.5,-62.1755 4702.5,-62.1754"/>
<text text-anchor="middle" x="4715.5" y="-73.8" font-family="Times,serif" font-size="14.00">read</text>
</g>
<!-- 10.1.80.1:41702#ServerID_OuterContainerID&#45;&gt;10.1.80.183:8080#ServerID_OuterContainerID -->
<g id="edge24" class="edge"><title>10.1.80.1:41702#ServerID_OuterContainerID&#45;&gt;10.1.80.183:8080#ServerID_OuterContainerID</title>
<path fill="none" stroke="black" d="M983.973,-223.989C926.915,-245.238 816.958,-283.679 720,-303 654.984,-315.956 582.683,-324.136 518.927,-329.292"/>
<polygon fill="black" stroke="black" points="518.464,-325.817 508.771,-330.094 519.015,-332.796 518.464,-325.817"/>
<text text-anchor="middle" x="800" y="-291.8" font-family="Times,serif" font-size="14.00">POST</text>
</g>
</g>
</svg>
