<?xml version="1.0" encoding="UTF-8" standalone="no"?>
<!DOCTYPE svg PUBLIC "-//W3C//DTD SVG 1.1//EN"
 "http://www.w3.org/Graphics/SVG/1.1/DTD/svg11.dtd">
<!-- Generated by graphviz version 2.38.0 (20140413.2041)
 -->
<!-- Title: G Pages: 1 -->
<svg width="6702pt" height="489pt"
 viewBox="0.00 0.00 6702.00 489.00" xmlns="http://www.w3.org/2000/svg" xmlns:xlink="http://www.w3.org/1999/xlink">
<g id="graph0" class="graph" transform="scale(1 1) rotate(0) translate(4 485)">
<title>G</title>
<polygon fill="white" stroke="none" points="-4,4 -4,-485 6698,-485 6698,4 -4,4"/>
<g id="clust1" class="cluster"><title>clusterServerID_04eca90de97f</title>
<polygon fill="none" stroke="black" points="5696,-8 5696,-257 6686,-257 6686,-8 5696,-8"/>
<text text-anchor="middle" x="6191" y="-241.8" font-family="Times,serif" font-size="14.00">clusterServerID_04eca90de97f</text>
</g>
<g id="clust2" class="cluster"><title>clusterServerID_309ec2955ffa</title>
<polygon fill="none" stroke="black" points="8,-182 8,-473 1368,-473 1368,-182 8,-182"/>
<text text-anchor="middle" x="688" y="-457.8" font-family="Times,serif" font-size="14.00">clusterServerID_309ec2955ffa</text>
</g>
<g id="clust3" class="cluster"><title>clusterServerID_7d87d9945d&#45;dl2ff</title>
<polygon fill="none" stroke="black" points="5352,-182 5352,-257 5688,-257 5688,-182 5352,-182"/>
<text text-anchor="middle" x="5520" y="-241.8" font-family="Times,serif" font-size="14.00">clusterServerID_7d87d9945d&#45;dl2ff</text>
</g>
<g id="clust4" class="cluster"><title>clusterServerID_866797f645&#45;wb664</title>
<polygon fill="none" stroke="black" points="2857,-398 2857,-473 3205,-473 3205,-398 2857,-398"/>
<text text-anchor="middle" x="3031" y="-457.8" font-family="Times,serif" font-size="14.00">clusterServerID_866797f645&#45;wb664</text>
</g>
<g id="clust5" class="cluster"><title>clusterServerID_OuterContainerID</title>
<polygon fill="none" stroke="black" points="1376,-182 1376,-365 5344,-365 5344,-182 1376,-182"/>
<text text-anchor="middle" x="3360" y="-349.8" font-family="Times,serif" font-size="14.00">clusterServerID_OuterContainerID</text>
</g>
<!-- 10.1.80.44:50372#ServerID_OuterContainerID -->
<g id="node1" class="node"><title>10.1.80.44:50372#ServerID_OuterContainerID</title>
<polygon fill="none" stroke="black" points="2383,-334 2055.56,-316 2383,-298 2710.44,-316 2383,-334"/>
<text text-anchor="middle" x="2383" y="-312.3" font-family="Times,serif" font-size="14.00">10.1.80.44:50372#ServerID_OuterContainerID</text>
</g>
<!-- 1_fwatchdog#ServerID_866797f645&#45;wb664 -->
<g id="node2" class="node"><title>1_fwatchdog#ServerID_866797f645&#45;wb664</title>
<polygon fill="none" stroke="black" points="3196.5,-442 2865.5,-442 2865.5,-406 3196.5,-406 3196.5,-442"/>
<text text-anchor="middle" x="3031" y="-420.3" font-family="Times,serif" font-size="14.00">1_fwatchdog#ServerID_866797f645&#45;wb664</text>
</g>
<!-- 10.1.80.44:50372#ServerID_OuterContainerID&#45;&gt;1_fwatchdog#ServerID_866797f645&#45;wb664 -->
<g id="edge1" class="edge"><title>10.1.80.44:50372#ServerID_OuterContainerID&#45;&gt;1_fwatchdog#ServerID_866797f645&#45;wb664</title>
<path fill="none" stroke="black" d="M2424,-331.896C2471.29,-348.425 2551.7,-374.538 2623,-388 2698.39,-402.234 2782.73,-410.688 2855.07,-415.704"/>
<polygon fill="black" stroke="black" points="2854.99,-419.206 2865.2,-416.389 2855.46,-412.222 2854.99,-419.206"/>
<text text-anchor="middle" x="2643" y="-376.8" font-family="Times,serif" font-size="14.00">POST</text>
</g>
<!-- 1_fwatchdog#ServerID_309ec2955ffa -->
<g id="node7" class="node"><title>1_fwatchdog#ServerID_309ec2955ffa</title>
<polygon fill="none" stroke="black" points="1360,-442 1070,-442 1070,-406 1360,-406 1360,-442"/>
<text text-anchor="middle" x="1215" y="-420.3" font-family="Times,serif" font-size="14.00">1_fwatchdog#ServerID_309ec2955ffa</text>
</g>
<!-- 10.1.80.44:50372#ServerID_OuterContainerID&#45;&gt;1_fwatchdog#ServerID_309ec2955ffa -->
<g id="edge11" class="edge"><title>10.1.80.44:50372#ServerID_OuterContainerID&#45;&gt;1_fwatchdog#ServerID_309ec2955ffa</title>
<path fill="none" stroke="black" d="M2305.12,-329.755C2237.15,-340.496 2135.77,-355.577 2047,-365 1811.71,-389.975 1537.8,-406.698 1370.44,-415.528"/>
<polygon fill="black" stroke="black" points="1370.12,-412.04 1360.32,-416.059 1370.49,-419.03 1370.12,-412.04"/>
<text text-anchor="middle" x="1974.5" y="-376.8" font-family="Times,serif" font-size="14.00">read</text>
</g>
<!-- 1_fwatchdog#ServerID_866797f645&#45;wb664&#45;&gt;10.1.80.44:50372#ServerID_OuterContainerID -->
<g id="edge8" class="edge"><title>1_fwatchdog#ServerID_866797f645&#45;wb664&#45;&gt;10.1.80.44:50372#ServerID_OuterContainerID</title>
<path fill="none" stroke="black" d="M2926.89,-405.969C2800.52,-385.299 2589.67,-350.807 2471.03,-331.401"/>
<polygon fill="black" stroke="black" points="2471.33,-327.903 2460.9,-329.743 2470.2,-334.811 2471.33,-327.903"/>
<text text-anchor="middle" x="2845" y="-376.8" font-family="Times,serif" font-size="14.00">RESPONSE</text>
</g>
<!-- gateway:8080#ServerID_OuterContainerID -->
<g id="node5" class="node"><title>gateway:8080#ServerID_OuterContainerID</title>
<polygon fill="none" stroke="black" points="3032,-334 2727.52,-316 3032,-298 3336.48,-316 3032,-334"/>
<text text-anchor="middle" x="3032" y="-312.3" font-family="Times,serif" font-size="14.00">gateway:8080#ServerID_OuterContainerID</text>
</g>
<!-- 1_fwatchdog#ServerID_866797f645&#45;wb664&#45;&gt;gateway:8080#ServerID_OuterContainerID -->
<g id="edge3" class="edge"><title>1_fwatchdog#ServerID_866797f645&#45;wb664&#45;&gt;gateway:8080#ServerID_OuterContainerID</title>
<path fill="none" stroke="black" d="M3051.2,-405.928C3055.99,-400.716 3060.44,-394.601 3063,-388 3069.07,-372.366 3061.87,-355.119 3052.89,-341.538"/>
<polygon fill="black" stroke="black" points="3055.55,-339.245 3046.86,-333.197 3049.88,-343.349 3055.55,-339.245"/>
<text text-anchor="middle" x="3086" y="-376.8" font-family="Times,serif" font-size="14.00">POST</text>
</g>
<!-- 10.1.80.44:8080#ServerID_OuterContainerID -->
<g id="node6" class="node"><title>10.1.80.44:8080#ServerID_OuterContainerID</title>
<polygon fill="none" stroke="black" points="4345,-334 4026.1,-316 4345,-298 4663.9,-316 4345,-334"/>
<text text-anchor="middle" x="4345" y="-312.3" font-family="Times,serif" font-size="14.00">10.1.80.44:8080#ServerID_OuterContainerID</text>
</g>
<!-- 1_fwatchdog#ServerID_866797f645&#45;wb664&#45;&gt;10.1.80.44:8080#ServerID_OuterContainerID -->
<g id="edge4" class="edge"><title>1_fwatchdog#ServerID_866797f645&#45;wb664&#45;&gt;10.1.80.44:8080#ServerID_OuterContainerID</title>
<path fill="none" stroke="black" d="M3196.65,-417.635C3392.85,-410.269 3729.35,-394.452 4017,-365 4100.05,-356.497 4194.29,-342.219 4260.37,-331.441"/>
<polygon fill="black" stroke="black" points="4261.02,-334.882 4270.32,-329.81 4259.89,-327.974 4261.02,-334.882"/>
<text text-anchor="middle" x="3931" y="-376.8" font-family="Times,serif" font-size="14.00">POST</text>
</g>
<!-- 10.1.80.44:41902#ServerID_OuterContainerID -->
<g id="node3" class="node"><title>10.1.80.44:41902#ServerID_OuterContainerID</title>
<polygon fill="none" stroke="black" points="5009,-334 4681.56,-316 5009,-298 5336.44,-316 5009,-334"/>
<text text-anchor="middle" x="5009" y="-312.3" font-family="Times,serif" font-size="14.00">10.1.80.44:41902#ServerID_OuterContainerID</text>
</g>
<!-- 1_fwatchdog#ServerID_7d87d9945d&#45;dl2ff -->
<g id="node4" class="node"><title>1_fwatchdog#ServerID_7d87d9945d&#45;dl2ff</title>
<polygon fill="none" stroke="black" points="5680,-226 5360,-226 5360,-190 5680,-190 5680,-226"/>
<text text-anchor="middle" x="5520" y="-204.3" font-family="Times,serif" font-size="14.00">1_fwatchdog#ServerID_7d87d9945d&#45;dl2ff</text>
</g>
<!-- 10.1.80.44:41902#ServerID_OuterContainerID&#45;&gt;1_fwatchdog#ServerID_7d87d9945d&#45;dl2ff -->
<g id="edge2" class="edge"><title>10.1.80.44:41902#ServerID_OuterContainerID&#45;&gt;1_fwatchdog#ServerID_7d87d9945d&#45;dl2ff</title>
<path fill="none" stroke="black" d="M5095.51,-302.705C5164.3,-292.328 5262.8,-276.125 5348,-257 5383.64,-249.001 5422.9,-238.198 5454.91,-228.867"/>
<polygon fill="black" stroke="black" points="5455.99,-232.198 5464.59,-226.023 5454.01,-225.482 5455.99,-232.198"/>
<text text-anchor="middle" x="5323" y="-268.8" font-family="Times,serif" font-size="14.00">POST</text>
</g>
<!-- 1_fwatchdog#ServerID_04eca90de97f -->
<g id="node13" class="node"><title>1_fwatchdog#ServerID_04eca90de97f</title>
<polygon fill="none" stroke="black" points="6132.5,-226 5839.5,-226 5839.5,-190 6132.5,-190 6132.5,-226"/>
<text text-anchor="middle" x="5986" y="-204.3" font-family="Times,serif" font-size="14.00">1_fwatchdog#ServerID_04eca90de97f</text>
</g>
<!-- 10.1.80.44:41902#ServerID_OuterContainerID&#45;&gt;1_fwatchdog#ServerID_04eca90de97f -->
<g id="edge16" class="edge"><title>10.1.80.44:41902#ServerID_OuterContainerID&#45;&gt;1_fwatchdog#ServerID_04eca90de97f</title>
<path fill="none" stroke="black" d="M5162.41,-306.393C5301.15,-297.56 5510.84,-281.597 5692,-257 5754.49,-248.516 5824.14,-237.225 5879.96,-227.725"/>
<polygon fill="black" stroke="black" points="5880.6,-231.168 5889.87,-226.034 5879.42,-224.268 5880.6,-231.168"/>
<text text-anchor="middle" x="5635.5" y="-268.8" font-family="Times,serif" font-size="14.00">read</text>
</g>
<!-- 1_fwatchdog#ServerID_7d87d9945d&#45;dl2ff&#45;&gt;10.1.80.44:41902#ServerID_OuterContainerID -->
<g id="edge7" class="edge"><title>1_fwatchdog#ServerID_7d87d9945d&#45;dl2ff&#45;&gt;10.1.80.44:41902#ServerID_OuterContainerID</title>
<path fill="none" stroke="black" d="M5486.51,-226.121C5452.36,-242.766 5397.38,-267.334 5347,-280 5295.67,-292.906 5238.8,-301.064 5186.59,-306.218"/>
<polygon fill="black" stroke="black" points="5186.17,-302.741 5176.55,-307.177 5186.84,-309.71 5186.17,-302.741"/>
<text text-anchor="middle" x="5434" y="-268.8" font-family="Times,serif" font-size="14.00">RESPONSE</text>
</g>
<!-- gateway:8080#ServerID_OuterContainerID&#45;&gt;1_fwatchdog#ServerID_866797f645&#45;wb664 -->
<g id="edge6" class="edge"><title>gateway:8080#ServerID_OuterContainerID&#45;&gt;1_fwatchdog#ServerID_866797f645&#45;wb664</title>
<path fill="none" stroke="black" d="M3008.65,-332.719C2996.12,-342.625 2981.87,-356.625 2975,-373 2970.67,-383.319 2975.55,-392.34 2983.93,-399.773"/>
<polygon fill="black" stroke="black" points="2981.97,-402.677 2992.07,-405.889 2986.18,-397.082 2981.97,-402.677"/>
<text text-anchor="middle" x="3017" y="-376.8" font-family="Times,serif" font-size="14.00">RESPONSE</text>
</g>
<!-- 10.1.80.44:8080#ServerID_OuterContainerID&#45;&gt;1_fwatchdog#ServerID_866797f645&#45;wb664 -->
<g id="edge5" class="edge"><title>10.1.80.44:8080#ServerID_OuterContainerID&#45;&gt;1_fwatchdog#ServerID_866797f645&#45;wb664</title>
<path fill="none" stroke="black" d="M4284.93,-330.685C4208.67,-347.421 4072.84,-375.108 3955,-388 3695.67,-416.372 3393.24,-422.827 3206.93,-423.757"/>
<polygon fill="black" stroke="black" points="3206.75,-420.258 3196.76,-423.803 3206.78,-427.258 3206.75,-420.258"/>
<text text-anchor="middle" x="4105" y="-376.8" font-family="Times,serif" font-size="14.00">RESPONSE</text>
</g>
<!-- 10.1.80.1:34829#ServerID_OuterContainerID -->
<g id="node18" class="node"><title>10.1.80.1:34829#ServerID_OuterContainerID</title>
<polygon fill="none" stroke="black" points="4894,-226 4575.1,-208 4894,-190 5212.9,-208 4894,-226"/>
<text text-anchor="middle" x="4894" y="-204.3" font-family="Times,serif" font-size="14.00">10.1.80.1:34829#ServerID_OuterContainerID</text>
</g>
<!-- 10.1.80.44:8080#ServerID_OuterContainerID&#45;&gt;10.1.80.1:34829#ServerID_OuterContainerID -->
<g id="edge24" class="edge"><title>10.1.80.44:8080#ServerID_OuterContainerID&#45;&gt;10.1.80.1:34829#ServerID_OuterContainerID</title>
<path fill="none" stroke="black" d="M4471.41,-305.125C4526.04,-299.641 4590.5,-291.536 4648,-280 4716.03,-266.352 4792.56,-242.951 4841.93,-226.764"/>
<polygon fill="black" stroke="black" points="4843.03,-230.086 4851.43,-223.628 4840.84,-223.439 4843.03,-230.086"/>
<text text-anchor="middle" x="4752" y="-268.8" font-family="Times,serif" font-size="14.00">RESPONSE</text>
</g>
<!-- 10.0.88.125:31112#ServerID_OuterContainerID -->
<g id="node19" class="node"><title>10.0.88.125:31112#ServerID_OuterContainerID</title>
<polygon fill="none" stroke="black" points="3566,-226 3230.52,-208 3566,-190 3901.48,-208 3566,-226"/>
<text text-anchor="middle" x="3566" y="-204.3" font-family="Times,serif" font-size="14.00">10.0.88.125:31112#ServerID_OuterContainerID</text>
</g>
<!-- 10.1.80.44:8080#ServerID_OuterContainerID&#45;&gt;10.0.88.125:31112#ServerID_OuterContainerID -->
<g id="edge25" class="edge"><title>10.1.80.44:8080#ServerID_OuterContainerID&#45;&gt;10.0.88.125:31112#ServerID_OuterContainerID</title>
<path fill="none" stroke="black" d="M4254.17,-303.052C4166.15,-291.437 4028.9,-273.221 3910,-257 3826.72,-245.637 3732.14,-232.417 3663.26,-222.731"/>
<polygon fill="black" stroke="black" points="3663.67,-219.256 3653.28,-221.329 3662.7,-226.188 3663.67,-219.256"/>
<text text-anchor="middle" x="4120" y="-268.8" font-family="Times,serif" font-size="14.00">RESPONSE</text>
</g>
<!-- 10.1.80.1:52895#ServerID_OuterContainerID -->
<g id="node20" class="node"><title>10.1.80.1:52895#ServerID_OuterContainerID</title>
<polygon fill="none" stroke="black" points="4238,-226 3919.1,-208 4238,-190 4556.9,-208 4238,-226"/>
<text text-anchor="middle" x="4238" y="-204.3" font-family="Times,serif" font-size="14.00">10.1.80.1:52895#ServerID_OuterContainerID</text>
</g>
<!-- 10.1.80.44:8080#ServerID_OuterContainerID&#45;&gt;10.1.80.1:52895#ServerID_OuterContainerID -->
<g id="edge27" class="edge"><title>10.1.80.44:8080#ServerID_OuterContainerID&#45;&gt;10.1.80.1:52895#ServerID_OuterContainerID</title>
<path fill="none" stroke="black" d="M4263.87,-302.444C4252.57,-297.254 4242.33,-290.03 4235,-280 4225.86,-267.498 4226.4,-250.185 4229.33,-235.786"/>
<polygon fill="black" stroke="black" points="4232.77,-236.475 4231.78,-225.926 4225.98,-234.786 4232.77,-236.475"/>
<text text-anchor="middle" x="4277" y="-268.8" font-family="Times,serif" font-size="14.00">RESPONSE</text>
</g>
<!-- localhost:3000#ServerID_309ec2955ffa -->
<g id="node8" class="node"><title>localhost:3000#ServerID_309ec2955ffa</title>
<polygon fill="none" stroke="black" points="1081,-334 801.652,-316 1081,-298 1360.35,-316 1081,-334"/>
<text text-anchor="middle" x="1081" y="-312.3" font-family="Times,serif" font-size="14.00">localhost:3000#ServerID_309ec2955ffa</text>
</g>
<!-- 1_fwatchdog#ServerID_309ec2955ffa&#45;&gt;localhost:3000#ServerID_309ec2955ffa -->
<g id="edge9" class="edge"><title>1_fwatchdog#ServerID_309ec2955ffa&#45;&gt;localhost:3000#ServerID_309ec2955ffa</title>
<path fill="none" stroke="black" d="M1193.47,-405.969C1170.61,-387.882 1134.36,-359.213 1109.22,-339.327"/>
<polygon fill="black" stroke="black" points="1111.18,-336.407 1101.16,-332.948 1106.83,-341.897 1111.18,-336.407"/>
<text text-anchor="middle" x="1187" y="-376.8" font-family="Times,serif" font-size="14.00">write</text>
</g>
<!-- 11_node#ServerID_309ec2955ffa -->
<g id="node10" class="node"><title>11_node#ServerID_309ec2955ffa</title>
<polygon fill="none" stroke="black" points="1321.5,-226 1062.5,-226 1062.5,-190 1321.5,-190 1321.5,-226"/>
<text text-anchor="middle" x="1192" y="-204.3" font-family="Times,serif" font-size="14.00">11_node#ServerID_309ec2955ffa</text>
</g>
<!-- localhost:3000#ServerID_309ec2955ffa&#45;&gt;11_node#ServerID_309ec2955ffa -->
<g id="edge12" class="edge"><title>localhost:3000#ServerID_309ec2955ffa&#45;&gt;11_node#ServerID_309ec2955ffa</title>
<path fill="none" stroke="black" d="M1097.86,-298.901C1116.12,-281.466 1145.45,-253.455 1166.52,-233.332"/>
<polygon fill="black" stroke="black" points="1169.06,-235.747 1173.87,-226.309 1164.23,-230.684 1169.06,-235.747"/>
<text text-anchor="middle" x="1150.5" y="-268.8" font-family="Times,serif" font-size="14.00">read</text>
</g>
<!-- /etc/hosts#ServerID_309ec2955ffa -->
<g id="node9" class="node"><title>/etc/hosts#ServerID_309ec2955ffa</title>
<ellipse fill="none" stroke="black" cx="609" cy="-316" rx="174.669" ry="18"/>
<text text-anchor="middle" x="609" y="-312.3" font-family="Times,serif" font-size="14.00">/etc/hosts#ServerID_309ec2955ffa</text>
</g>
<!-- /etc/hosts#ServerID_309ec2955ffa&#45;&gt;11_node#ServerID_309ec2955ffa -->
<g id="edge10" class="edge"><title>/etc/hosts#ServerID_309ec2955ffa&#45;&gt;11_node#ServerID_309ec2955ffa</title>
<path fill="none" stroke="black" d="M690.985,-300.094C795.103,-281.163 974.839,-248.484 1088.36,-227.844"/>
<polygon fill="black" stroke="black" points="1089.24,-231.241 1098.45,-226.009 1087.99,-224.354 1089.24,-231.241"/>
<text text-anchor="middle" x="900.5" y="-268.8" font-family="Times,serif" font-size="14.00">read</text>
</g>
<!-- 11_node#ServerID_309ec2955ffa&#45;&gt;gateway:8080#ServerID_OuterContainerID -->
<g id="edge18" class="edge"><title>11_node#ServerID_309ec2955ffa&#45;&gt;gateway:8080#ServerID_OuterContainerID</title>
<path fill="none" stroke="black" d="M1243.33,-226.068C1278.98,-237.086 1327.84,-250.528 1372,-257 1668.31,-300.424 2419.8,-285.323 2719,-298 2770.87,-300.198 2827.54,-303.118 2878.23,-305.917"/>
<polygon fill="black" stroke="black" points="2878.11,-309.415 2888.29,-306.475 2878.5,-302.426 2878.11,-309.415"/>
<text text-anchor="middle" x="1681" y="-268.8" font-family="Times,serif" font-size="14.00">connect</text>
</g>
<!-- 10.152.183.10:53#ServerID_OuterContainerID -->
<g id="node11" class="node"><title>10.152.183.10:53#ServerID_OuterContainerID</title>
<polygon fill="none" stroke="black" points="3681,-334 3353.56,-316 3681,-298 4008.44,-316 3681,-334"/>
<text text-anchor="middle" x="3681" y="-312.3" font-family="Times,serif" font-size="14.00">10.152.183.10:53#ServerID_OuterContainerID</text>
</g>
<!-- 11_node#ServerID_309ec2955ffa&#45;&gt;10.152.183.10:53#ServerID_OuterContainerID -->
<g id="edge13" class="edge"><title>11_node#ServerID_309ec2955ffa&#45;&gt;10.152.183.10:53#ServerID_OuterContainerID</title>
<path fill="none" stroke="black" d="M1242.92,-226.084C1278.6,-237.185 1327.65,-250.719 1372,-257 1385.57,-258.922 3331.3,-297.511 3345,-298 3401.6,-300.019 3463.53,-302.948 3518.63,-305.807"/>
<polygon fill="black" stroke="black" points="3518.66,-309.314 3528.83,-306.34 3519.03,-302.323 3518.66,-309.314"/>
<text text-anchor="middle" x="2442.5" y="-268.8" font-family="Times,serif" font-size="14.00">sendto</text>
</g>
<!-- 10.152.183.10:53#ServerID_OuterContainerID&#45;&gt;11_node#ServerID_309ec2955ffa -->
<g id="edge15" class="edge"><title>10.152.183.10:53#ServerID_OuterContainerID&#45;&gt;11_node#ServerID_309ec2955ffa</title>
<path fill="none" stroke="black" d="M3523.76,-306.627C3467.38,-303.735 3403.35,-300.578 3345,-298 2956.66,-280.845 2859.62,-273.749 2471,-265 2409.96,-263.626 1432.51,-265.154 1372,-257 1331.3,-251.516 1286.7,-239.665 1252.07,-229.111"/>
<polygon fill="black" stroke="black" points="1252.71,-225.645 1242.12,-226.031 1250.64,-232.332 1252.71,-225.645"/>
<text text-anchor="middle" x="2971" y="-268.8" font-family="Times,serif" font-size="14.00">recvfrom</text>
</g>
<!-- /etc/resolv.conf#ServerID_309ec2955ffa -->
<g id="node12" class="node"><title>/etc/resolv.conf#ServerID_309ec2955ffa</title>
<ellipse fill="none" stroke="black" cx="216" cy="-316" rx="200.365" ry="18"/>
<text text-anchor="middle" x="216" y="-312.3" font-family="Times,serif" font-size="14.00">/etc/resolv.conf#ServerID_309ec2955ffa</text>
</g>
<!-- /etc/resolv.conf#ServerID_309ec2955ffa&#45;&gt;11_node#ServerID_309ec2955ffa -->
<g id="edge14" class="edge"><title>/etc/resolv.conf#ServerID_309ec2955ffa&#45;&gt;11_node#ServerID_309ec2955ffa</title>
<path fill="none" stroke="black" d="M338.13,-301.736C519.91,-281.993 860.735,-244.978 1052.23,-224.18"/>
<polygon fill="black" stroke="black" points="1052.8,-227.639 1062.36,-223.079 1052.04,-220.68 1052.8,-227.639"/>
<text text-anchor="middle" x="691.5" y="-268.8" font-family="Times,serif" font-size="14.00">read</text>
</g>
<!-- localhost:3000#ServerID_04eca90de97f -->
<g id="node14" class="node"><title>localhost:3000#ServerID_04eca90de97f</title>
<polygon fill="none" stroke="black" points="5986,-139 5703.64,-121 5986,-103 6268.36,-121 5986,-139"/>
<text text-anchor="middle" x="5986" y="-117.3" font-family="Times,serif" font-size="14.00">localhost:3000#ServerID_04eca90de97f</text>
</g>
<!-- 1_fwatchdog#ServerID_04eca90de97f&#45;&gt;localhost:3000#ServerID_04eca90de97f -->
<g id="edge17" class="edge"><title>1_fwatchdog#ServerID_04eca90de97f&#45;&gt;localhost:3000#ServerID_04eca90de97f</title>
<path fill="none" stroke="black" d="M5966.42,-189.764C5958.33,-180.482 5951.72,-168.583 5956,-157 5957.4,-153.224 5959.4,-149.58 5961.73,-146.162"/>
<polygon fill="black" stroke="black" points="5964.56,-148.214 5967.98,-138.186 5959.06,-143.893 5964.56,-148.214"/>
<text text-anchor="middle" x="5975" y="-160.8" font-family="Times,serif" font-size="14.00">write</text>
</g>
<!-- pipe:[445142]#ServerID_04eca90de97f -->
<g id="node16" class="node"><title>pipe:[445142]#ServerID_04eca90de97f</title>
<ellipse fill="none" stroke="black" cx="6482" cy="-121" rx="196.065" ry="18"/>
<text text-anchor="middle" x="6482" y="-117.3" font-family="Times,serif" font-size="14.00">pipe:[445142]#ServerID_04eca90de97f</text>
</g>
<!-- 1_fwatchdog#ServerID_04eca90de97f&#45;&gt;pipe:[445142]#ServerID_04eca90de97f -->
<g id="edge21" class="edge"><title>1_fwatchdog#ServerID_04eca90de97f&#45;&gt;pipe:[445142]#ServerID_04eca90de97f</title>
<path fill="none" stroke="black" d="M6085.48,-189.952C6172.26,-175.081 6297.44,-153.628 6383.83,-138.824"/>
<polygon fill="black" stroke="black" points="6384.64,-142.236 6393.9,-137.097 6383.46,-135.337 6384.64,-142.236"/>
<text text-anchor="middle" x="6282" y="-160.8" font-family="Times,serif" font-size="14.00">write</text>
</g>
<!-- localhost:3000#ServerID_04eca90de97f&#45;&gt;1_fwatchdog#ServerID_04eca90de97f -->
<g id="edge20" class="edge"><title>localhost:3000#ServerID_04eca90de97f&#45;&gt;1_fwatchdog#ServerID_04eca90de97f</title>
<path fill="none" stroke="black" d="M5990.68,-138.958C5992.04,-144.646 5993.33,-151.054 5994,-157 5994.84,-164.481 5994.23,-172.553 5993.03,-179.982"/>
<polygon fill="black" stroke="black" points="5989.57,-179.438 5991.05,-189.929 5996.44,-180.805 5989.57,-179.438"/>
<text text-anchor="middle" x="6010.5" y="-160.8" font-family="Times,serif" font-size="14.00">read</text>
</g>
<!-- 13_node#ServerID_04eca90de97f -->
<g id="node15" class="node"><title>13_node#ServerID_04eca90de97f</title>
<polygon fill="none" stroke="black" points="6117,-52 5855,-52 5855,-16 6117,-16 6117,-52"/>
<text text-anchor="middle" x="5986" y="-30.3" font-family="Times,serif" font-size="14.00">13_node#ServerID_04eca90de97f</text>
</g>
<!-- localhost:3000#ServerID_04eca90de97f&#45;&gt;13_node#ServerID_04eca90de97f -->
<g id="edge19" class="edge"><title>localhost:3000#ServerID_04eca90de97f&#45;&gt;13_node#ServerID_04eca90de97f</title>
<path fill="none" stroke="black" d="M5986,-102.799C5986,-91.1626 5986,-75.5479 5986,-62.2368"/>
<polygon fill="black" stroke="black" points="5989.5,-62.1754 5986,-52.1754 5982.5,-62.1755 5989.5,-62.1754"/>
<text text-anchor="middle" x="6002.5" y="-73.8" font-family="Times,serif" font-size="14.00">read</text>
</g>
<!-- 10.1.80.44:50554#ServerID_OuterContainerID -->
<g id="node17" class="node"><title>10.1.80.44:50554#ServerID_OuterContainerID</title>
<polygon fill="none" stroke="black" points="1711,-334 1383.56,-316 1711,-298 2038.44,-316 1711,-334"/>
<text text-anchor="middle" x="1711" y="-312.3" font-family="Times,serif" font-size="14.00">10.1.80.44:50554#ServerID_OuterContainerID</text>
</g>
<!-- 10.1.80.44:50554#ServerID_OuterContainerID&#45;&gt;1_fwatchdog#ServerID_309ec2955ffa -->
<g id="edge22" class="edge"><title>10.1.80.44:50554#ServerID_OuterContainerID&#45;&gt;1_fwatchdog#ServerID_309ec2955ffa</title>
<path fill="none" stroke="black" d="M1647.65,-330.538C1560.65,-349.131 1403.72,-382.668 1304.69,-403.833"/>
<polygon fill="black" stroke="black" points="1303.74,-400.457 1294.69,-405.969 1305.2,-407.302 1303.74,-400.457"/>
<text text-anchor="middle" x="1465.5" y="-376.8" font-family="Times,serif" font-size="14.00">read</text>
</g>
<!-- 10.1.80.1:34829#ServerID_OuterContainerID&#45;&gt;10.1.80.44:8080#ServerID_OuterContainerID -->
<g id="edge23" class="edge"><title>10.1.80.1:34829#ServerID_OuterContainerID&#45;&gt;10.1.80.44:8080#ServerID_OuterContainerID</title>
<path fill="none" stroke="black" d="M4825.5,-222.225C4723.1,-241.998 4530.64,-279.157 4422.97,-299.945"/>
<polygon fill="black" stroke="black" points="4422.3,-296.51 4413.14,-301.843 4423.63,-303.383 4422.3,-296.51"/>
<text text-anchor="middle" x="4624" y="-268.8" font-family="Times,serif" font-size="14.00">POST</text>
</g>
<!-- 10.1.80.1:52895#ServerID_OuterContainerID&#45;&gt;10.1.80.44:8080#ServerID_OuterContainerID -->
<g id="edge26" class="edge"><title>10.1.80.1:52895#ServerID_OuterContainerID&#45;&gt;10.1.80.44:8080#ServerID_OuterContainerID</title>
<path fill="none" stroke="black" d="M4269.97,-224.267C4287.49,-233.938 4308.52,-247.854 4323,-265 4328.74,-271.799 4333.23,-280.332 4336.61,-288.415"/>
<polygon fill="black" stroke="black" points="4333.39,-289.787 4340.2,-297.903 4339.94,-287.311 4333.39,-289.787"/>
<text text-anchor="middle" x="4353" y="-268.8" font-family="Times,serif" font-size="14.00">POST</text>
</g>
</g>
</svg>
