<?xml version="1.0" encoding="UTF-8" standalone="no"?>
<!DOCTYPE svg PUBLIC "-//W3C//DTD SVG 1.1//EN"
 "http://www.w3.org/Graphics/SVG/1.1/DTD/svg11.dtd">
<!-- Generated by graphviz version 2.38.0 (20140413.2041)
 -->
<!-- Title: G Pages: 1 -->
<svg width="10537pt" height="558pt"
 viewBox="0.00 0.00 10537.00 558.00" xmlns="http://www.w3.org/2000/svg" xmlns:xlink="http://www.w3.org/1999/xlink">
<g id="graph0" class="graph" transform="scale(1 1) rotate(0) translate(4 554)">
<title>G</title>
<polygon fill="white" stroke="none" points="-4,4 -4,-554 10533,-554 10533,4 -4,4"/>
<g id="clust1" class="cluster"><title>clusterServerID_6dcbcc88d5&#45;j9zwp</title>
<polygon fill="none" stroke="black" points="8037,-444 8037,-542 8379,-542 8379,-444 8037,-444"/>
<text text-anchor="middle" x="8208" y="-526.8" font-family="Times,serif" font-size="14.00">clusterServerID_6dcbcc88d5&#45;j9zwp</text>
</g>
<g id="clust2" class="cluster"><title>clusterServerID_736074b81582</title>
<polygon fill="none" stroke="black" points="8,-95 8,-411 2831,-411 2831,-95 8,-95"/>
<text text-anchor="middle" x="1419.5" y="-395.8" font-family="Times,serif" font-size="14.00">clusterServerID_736074b81582</text>
</g>
<g id="clust3" class="cluster"><title>clusterServerID_76c96688d7&#45;jnp5f</title>
<polygon fill="none" stroke="black" points="10015,-444 10015,-542 10355,-542 10355,-444 10015,-444"/>
<text text-anchor="middle" x="10185" y="-526.8" font-family="Times,serif" font-size="14.00">clusterServerID_76c96688d7&#45;jnp5f</text>
</g>
<g id="clust4" class="cluster"><title>clusterServerID_834d81eb81b3</title>
<polygon fill="none" stroke="black" points="5225,-95 5225,-280 6545,-280 6545,-95 5225,-95"/>
<text text-anchor="middle" x="5885" y="-264.8" font-family="Times,serif" font-size="14.00">clusterServerID_834d81eb81b3</text>
</g>
<g id="clust5" class="cluster"><title>clusterServerID_8665dd9487&#45;fclr8</title>
<polygon fill="none" stroke="black" points="9345,-444 9345,-542 9681,-542 9681,-444 9345,-444"/>
<text text-anchor="middle" x="9513" y="-526.8" font-family="Times,serif" font-size="14.00">clusterServerID_8665dd9487&#45;fclr8</text>
</g>
<g id="clust6" class="cluster"><title>clusterServerID_86aa7f3fa3b0</title>
<polygon fill="none" stroke="black" points="2839,-8 2839,-280 5217,-280 5217,-8 2839,-8"/>
<text text-anchor="middle" x="4028" y="-264.8" font-family="Times,serif" font-size="14.00">clusterServerID_86aa7f3fa3b0</text>
</g>
<g id="clust7" class="cluster"><title>clusterServerID_OuterContainerID</title>
<polygon fill="none" stroke="black" points="6553,-182 6553,-411 10521,-411 10521,-182 6553,-182"/>
<text text-anchor="middle" x="8537" y="-395.8" font-family="Times,serif" font-size="14.00">clusterServerID_OuterContainerID</text>
</g>
<!-- 1_fwatchdog#ServerID_6dcbcc88d5&#45;j9zwp -->
<g id="node1" class="node"><title>1_fwatchdog#ServerID_6dcbcc88d5&#45;j9zwp</title>
<polygon fill="none" stroke="black" points="8371,-488 8045,-488 8045,-452 8371,-452 8371,-488"/>
<text text-anchor="middle" x="8208" y="-466.3" font-family="Times,serif" font-size="14.00">1_fwatchdog#ServerID_6dcbcc88d5&#45;j9zwp</text>
</g>
<!-- gateway:8080#ServerID_OuterContainerID -->
<g id="node2" class="node"><title>gateway:8080#ServerID_OuterContainerID</title>
<polygon fill="none" stroke="black" points="8209,-357 7904.52,-339 8209,-321 8513.48,-339 8209,-357"/>
<text text-anchor="middle" x="8209" y="-335.3" font-family="Times,serif" font-size="14.00">gateway:8080#ServerID_OuterContainerID</text>
</g>
<!-- 1_fwatchdog#ServerID_6dcbcc88d5&#45;j9zwp&#45;&gt;gateway:8080#ServerID_OuterContainerID -->
<g id="edge1" class="edge"><title>1_fwatchdog#ServerID_6dcbcc88d5&#45;j9zwp&#45;&gt;gateway:8080#ServerID_OuterContainerID</title>
<path fill="none" stroke="black" d="M8228.2,-451.928C8232.99,-446.716 8237.44,-440.601 8240,-434 8248.93,-411.01 8238.1,-384.254 8226.87,-365.18"/>
<polygon fill="black" stroke="black" points="8229.68,-363.089 8221.4,-356.484 8223.76,-366.814 8229.68,-363.089"/>
<text text-anchor="middle" x="8263" y="-422.8" font-family="Times,serif" font-size="14.00">POST</text>
</g>
<!-- 10.1.80.93:8080#ServerID_OuterContainerID -->
<g id="node3" class="node"><title>10.1.80.93:8080#ServerID_OuterContainerID</title>
<polygon fill="none" stroke="black" points="8850,-357 8531.1,-339 8850,-321 9168.9,-339 8850,-357"/>
<text text-anchor="middle" x="8850" y="-335.3" font-family="Times,serif" font-size="14.00">10.1.80.93:8080#ServerID_OuterContainerID</text>
</g>
<!-- 1_fwatchdog#ServerID_6dcbcc88d5&#45;j9zwp&#45;&gt;10.1.80.93:8080#ServerID_OuterContainerID -->
<g id="edge7" class="edge"><title>1_fwatchdog#ServerID_6dcbcc88d5&#45;j9zwp&#45;&gt;10.1.80.93:8080#ServerID_OuterContainerID</title>
<path fill="none" stroke="black" d="M8371.36,-460.812C8433.12,-455.698 8503.75,-447.411 8567,-434 8652.76,-415.816 8748.89,-380.561 8804.14,-358.774"/>
<polygon fill="black" stroke="black" points="8805.64,-361.945 8813.64,-355.002 8803.06,-355.439 8805.64,-361.945"/>
<text text-anchor="middle" x="8642" y="-422.8" font-family="Times,serif" font-size="14.00">POST</text>
</g>
<!-- 10.1.80.93:37454#ServerID_OuterContainerID -->
<g id="node6" class="node"><title>10.1.80.93:37454#ServerID_OuterContainerID</title>
<polygon fill="none" stroke="black" points="7560,-357 7232.56,-339 7560,-321 7887.44,-339 7560,-357"/>
<text text-anchor="middle" x="7560" y="-335.3" font-family="Times,serif" font-size="14.00">10.1.80.93:37454#ServerID_OuterContainerID</text>
</g>
<!-- 1_fwatchdog#ServerID_6dcbcc88d5&#45;j9zwp&#45;&gt;10.1.80.93:37454#ServerID_OuterContainerID -->
<g id="edge10" class="edge"><title>1_fwatchdog#ServerID_6dcbcc88d5&#45;j9zwp&#45;&gt;10.1.80.93:37454#ServerID_OuterContainerID</title>
<path fill="none" stroke="black" d="M8044.78,-467.015C7728.01,-462.77 7059.21,-451.73 7042,-434 7037.36,-429.216 7037.39,-423.816 7042,-419 7049,-411.688 7213.96,-412.273 7224,-411 7320.06,-398.823 7429.48,-373.52 7496.63,-356.647"/>
<polygon fill="black" stroke="black" points="7497.8,-359.962 7506.63,-354.118 7496.08,-353.176 7497.8,-359.962"/>
<text text-anchor="middle" x="7084" y="-422.8" font-family="Times,serif" font-size="14.00">RESPONSE</text>
</g>
<!-- gateway:8080#ServerID_OuterContainerID&#45;&gt;1_fwatchdog#ServerID_6dcbcc88d5&#45;j9zwp -->
<g id="edge6" class="edge"><title>gateway:8080#ServerID_OuterContainerID&#45;&gt;1_fwatchdog#ServerID_6dcbcc88d5&#45;j9zwp</title>
<path fill="none" stroke="black" d="M8192.61,-356.117C8178.76,-370.968 8159.96,-394.377 8152,-419 8149.95,-425.344 8148.77,-428.169 8152,-434 8154.38,-438.287 8157.52,-442.118 8161.11,-445.526"/>
<polygon fill="black" stroke="black" points="8159.03,-448.347 8169,-451.938 8163.45,-442.915 8159.03,-448.347"/>
<text text-anchor="middle" x="8194" y="-422.8" font-family="Times,serif" font-size="14.00">RESPONSE</text>
</g>
<!-- 10_node#ServerID_736074b81582 -->
<g id="node11" class="node"><title>10_node#ServerID_736074b81582</title>
<polygon fill="none" stroke="black" points="2108.5,-226 1839.5,-226 1839.5,-190 2108.5,-190 2108.5,-226"/>
<text text-anchor="middle" x="1974" y="-204.3" font-family="Times,serif" font-size="14.00">10_node#ServerID_736074b81582</text>
</g>
<!-- gateway:8080#ServerID_OuterContainerID&#45;&gt;10_node#ServerID_736074b81582 -->
<g id="edge38" class="edge"><title>gateway:8080#ServerID_OuterContainerID&#45;&gt;10_node#ServerID_736074b81582</title>
<path fill="none" stroke="black" d="M8070.77,-329.147C8016.33,-326.013 7953.25,-322.816 7896,-321 7841.53,-319.272 5986.01,-319.304 5934,-303 5922.71,-299.46 5923.3,-291.501 5912,-288 5863.23,-272.898 2286.6,-286.791 2236,-280 2164.26,-270.372 2084.28,-246.737 2031.79,-229.37"/>
<polygon fill="black" stroke="black" points="2032.58,-225.946 2021.99,-226.096 2030.36,-232.585 2032.58,-225.946"/>
<text text-anchor="middle" x="5950.5" y="-291.8" font-family="Times,serif" font-size="14.00">read</text>
</g>
<!-- 10.1.80.93:8080#ServerID_OuterContainerID&#45;&gt;1_fwatchdog#ServerID_6dcbcc88d5&#45;j9zwp -->
<g id="edge2" class="edge"><title>10.1.80.93:8080#ServerID_OuterContainerID&#45;&gt;1_fwatchdog#ServerID_6dcbcc88d5&#45;j9zwp</title>
<path fill="none" stroke="black" d="M8789.66,-353.639C8723.95,-368.358 8615.69,-392.212 8522,-411 8453.01,-424.836 8375.23,-439.211 8314.35,-450.188"/>
<polygon fill="black" stroke="black" points="8313.57,-446.773 8304.34,-451.989 8314.81,-453.662 8313.57,-446.773"/>
<text text-anchor="middle" x="8521" y="-422.8" font-family="Times,serif" font-size="14.00">RESPONSE</text>
</g>
<!-- 10.1.80.1:11890#ServerID_OuterContainerID -->
<g id="node37" class="node"><title>10.1.80.1:11890#ServerID_OuterContainerID</title>
<polygon fill="none" stroke="black" points="8787,-226 8468.1,-208 8787,-190 9105.9,-208 8787,-226"/>
<text text-anchor="middle" x="8787" y="-204.3" font-family="Times,serif" font-size="14.00">10.1.80.1:11890#ServerID_OuterContainerID</text>
</g>
<!-- 10.1.80.93:8080#ServerID_OuterContainerID&#45;&gt;10.1.80.1:11890#ServerID_OuterContainerID -->
<g id="edge47" class="edge"><title>10.1.80.93:8080#ServerID_OuterContainerID&#45;&gt;10.1.80.1:11890#ServerID_OuterContainerID</title>
<path fill="none" stroke="black" d="M8842.93,-321.211C8838.74,-311.448 8833.24,-298.948 8828,-288 8819.38,-269.996 8809.02,-250.044 8800.87,-234.696"/>
<polygon fill="black" stroke="black" points="8803.91,-232.967 8796.11,-225.793 8797.74,-236.263 8803.91,-232.967"/>
<text text-anchor="middle" x="8876" y="-291.8" font-family="Times,serif" font-size="14.00">RESPONSE</text>
</g>
<!-- 10.0.88.125:31112#ServerID_OuterContainerID -->
<g id="node38" class="node"><title>10.0.88.125:31112#ServerID_OuterContainerID</title>
<polygon fill="none" stroke="black" points="9459,-226 9123.52,-208 9459,-190 9794.48,-208 9459,-226"/>
<text text-anchor="middle" x="9459" y="-204.3" font-family="Times,serif" font-size="14.00">10.0.88.125:31112#ServerID_OuterContainerID</text>
</g>
<!-- 10.1.80.93:8080#ServerID_OuterContainerID&#45;&gt;10.0.88.125:31112#ServerID_OuterContainerID -->
<g id="edge48" class="edge"><title>10.1.80.93:8080#ServerID_OuterContainerID&#45;&gt;10.0.88.125:31112#ServerID_OuterContainerID</title>
<path fill="none" stroke="black" d="M8913.45,-324.56C9026.94,-300.52 9264.09,-250.286 9384.87,-224.702"/>
<polygon fill="black" stroke="black" points="9385.72,-228.1 9394.78,-222.604 9384.27,-221.252 9385.72,-228.1"/>
<text text-anchor="middle" x="9124" y="-291.8" font-family="Times,serif" font-size="14.00">RESPONSE</text>
</g>
<!-- 1_fwatchdog#ServerID_8665dd9487&#45;fclr8 -->
<g id="node4" class="node"><title>1_fwatchdog#ServerID_8665dd9487&#45;fclr8</title>
<polygon fill="none" stroke="black" points="9673,-488 9353,-488 9353,-452 9673,-452 9673,-488"/>
<text text-anchor="middle" x="9513" y="-466.3" font-family="Times,serif" font-size="14.00">1_fwatchdog#ServerID_8665dd9487&#45;fclr8</text>
</g>
<!-- 10.1.80.93:33224#ServerID_OuterContainerID -->
<g id="node5" class="node"><title>10.1.80.93:33224#ServerID_OuterContainerID</title>
<polygon fill="none" stroke="black" points="9514,-357 9186.56,-339 9514,-321 9841.44,-339 9514,-357"/>
<text text-anchor="middle" x="9514" y="-335.3" font-family="Times,serif" font-size="14.00">10.1.80.93:33224#ServerID_OuterContainerID</text>
</g>
<!-- 1_fwatchdog#ServerID_8665dd9487&#45;fclr8&#45;&gt;10.1.80.93:33224#ServerID_OuterContainerID -->
<g id="edge3" class="edge"><title>1_fwatchdog#ServerID_8665dd9487&#45;fclr8&#45;&gt;10.1.80.93:33224#ServerID_OuterContainerID</title>
<path fill="none" stroke="black" d="M9477.26,-451.861C9470.73,-447.032 9464.78,-441.108 9461,-434 9457.87,-428.115 9459.06,-425.378 9461,-419 9467.15,-398.792 9480.38,-379.057 9492.09,-364.367"/>
<polygon fill="black" stroke="black" points="9495.06,-366.27 9498.74,-356.335 9489.67,-361.806 9495.06,-366.27"/>
<text text-anchor="middle" x="9503" y="-422.8" font-family="Times,serif" font-size="14.00">RESPONSE</text>
</g>
<!-- 10.1.80.93:33224#ServerID_OuterContainerID&#45;&gt;1_fwatchdog#ServerID_8665dd9487&#45;fclr8 -->
<g id="edge4" class="edge"><title>10.1.80.93:33224#ServerID_OuterContainerID&#45;&gt;1_fwatchdog#ServerID_8665dd9487&#45;fclr8</title>
<path fill="none" stroke="black" d="M9526.4,-356.484C9539.03,-375.397 9555.39,-407.248 9545,-434 9543.64,-437.507 9541.74,-440.876 9539.55,-444.046"/>
<polygon fill="black" stroke="black" points="9536.75,-441.944 9533.2,-451.928 9542.2,-446.335 9536.75,-441.944"/>
<text text-anchor="middle" x="9568" y="-422.8" font-family="Times,serif" font-size="14.00">POST</text>
</g>
<!-- 1_fwatchdog#ServerID_86aa7f3fa3b0 -->
<g id="node24" class="node"><title>1_fwatchdog#ServerID_86aa7f3fa3b0</title>
<polygon fill="none" stroke="black" points="5075,-226 4785,-226 4785,-190 5075,-190 5075,-226"/>
<text text-anchor="middle" x="4930" y="-204.3" font-family="Times,serif" font-size="14.00">1_fwatchdog#ServerID_86aa7f3fa3b0</text>
</g>
<!-- 10.1.80.93:33224#ServerID_OuterContainerID&#45;&gt;1_fwatchdog#ServerID_86aa7f3fa3b0 -->
<g id="edge29" class="edge"><title>10.1.80.93:33224#ServerID_OuterContainerID&#45;&gt;1_fwatchdog#ServerID_86aa7f3fa3b0</title>
<path fill="none" stroke="black" d="M9366.02,-329.123C9307.49,-325.975 9239.59,-322.776 9178,-321 8050.44,-288.492 7767.91,-319.643 6640,-303 6342.62,-298.612 6268.37,-292.92 5971,-288 5887.67,-286.621 5303.69,-290.389 5221,-280 5141.37,-269.996 5052,-246.252 4993.57,-228.969"/>
<polygon fill="black" stroke="black" points="4994.33,-225.544 4983.75,-226.039 4992.33,-232.252 4994.33,-225.544"/>
<text text-anchor="middle" x="6656.5" y="-291.8" font-family="Times,serif" font-size="14.00">read</text>
</g>
<!-- 10.1.80.93:37454#ServerID_OuterContainerID&#45;&gt;1_fwatchdog#ServerID_6dcbcc88d5&#45;j9zwp -->
<g id="edge5" class="edge"><title>10.1.80.93:37454#ServerID_OuterContainerID&#45;&gt;1_fwatchdog#ServerID_6dcbcc88d5&#45;j9zwp</title>
<path fill="none" stroke="black" d="M7503.88,-353.916C7437.46,-369.907 7323.32,-395.883 7224,-411 7141.94,-423.489 7114.04,-408.214 7139,-434 7169.56,-465.577 7739.55,-469.591 8034.41,-469.54"/>
<polygon fill="black" stroke="black" points="8034.79,-473.04 8044.79,-469.537 8034.79,-466.04 8034.79,-473.04"/>
<text text-anchor="middle" x="7159" y="-422.8" font-family="Times,serif" font-size="14.00">POST</text>
</g>
<!-- 1_fwatchdog#ServerID_736074b81582 -->
<g id="node9" class="node"><title>1_fwatchdog#ServerID_736074b81582</title>
<polygon fill="none" stroke="black" points="2823,-357 2523,-357 2523,-321 2823,-321 2823,-357"/>
<text text-anchor="middle" x="2673" y="-335.3" font-family="Times,serif" font-size="14.00">1_fwatchdog#ServerID_736074b81582</text>
</g>
<!-- 10.1.80.93:37454#ServerID_OuterContainerID&#45;&gt;1_fwatchdog#ServerID_736074b81582 -->
<g id="edge14" class="edge"><title>10.1.80.93:37454#ServerID_OuterContainerID&#45;&gt;1_fwatchdog#ServerID_736074b81582</title>
<path fill="none" stroke="black" d="M7506.45,-354.143C7440.61,-371.905 7325.15,-400.284 7224,-411 6925.67,-442.605 6848.99,-413.786 6549,-411 5106.63,-397.605 3362.73,-356.175 2833.09,-343.039"/>
<polygon fill="black" stroke="black" points="2833.17,-339.54 2823.08,-342.791 2832.99,-346.538 2833.17,-339.54"/>
<text text-anchor="middle" x="7199" y="-422.8" font-family="Times,serif" font-size="14.00">read</text>
</g>
<!-- 10.1.80.93:40300#ServerID_OuterContainerID -->
<g id="node7" class="node"><title>10.1.80.93:40300#ServerID_OuterContainerID</title>
<polygon fill="none" stroke="black" points="10186,-357 9858.56,-339 10186,-321 10513.4,-339 10186,-357"/>
<text text-anchor="middle" x="10186" y="-335.3" font-family="Times,serif" font-size="14.00">10.1.80.93:40300#ServerID_OuterContainerID</text>
</g>
<!-- 1_fwatchdog#ServerID_76c96688d7&#45;jnp5f -->
<g id="node8" class="node"><title>1_fwatchdog#ServerID_76c96688d7&#45;jnp5f</title>
<polygon fill="none" stroke="black" points="10346.5,-488 10023.5,-488 10023.5,-452 10346.5,-452 10346.5,-488"/>
<text text-anchor="middle" x="10185" y="-466.3" font-family="Times,serif" font-size="14.00">1_fwatchdog#ServerID_76c96688d7&#45;jnp5f</text>
</g>
<!-- 10.1.80.93:40300#ServerID_OuterContainerID&#45;&gt;1_fwatchdog#ServerID_76c96688d7&#45;jnp5f -->
<g id="edge8" class="edge"><title>10.1.80.93:40300#ServerID_OuterContainerID&#45;&gt;1_fwatchdog#ServerID_76c96688d7&#45;jnp5f</title>
<path fill="none" stroke="black" d="M10173.8,-356.425C10161.3,-375.284 10145,-407.085 10155,-434 10156.2,-437.328 10157.9,-440.554 10159.9,-443.612"/>
<polygon fill="black" stroke="black" points="10157.2,-445.86 10166,-451.736 10162.8,-441.644 10157.2,-445.86"/>
<text text-anchor="middle" x="10175" y="-422.8" font-family="Times,serif" font-size="14.00">POST</text>
</g>
<!-- 1_fwatchdog#ServerID_834d81eb81b3 -->
<g id="node31" class="node"><title>1_fwatchdog#ServerID_834d81eb81b3</title>
<polygon fill="none" stroke="black" points="6418.5,-226 6119.5,-226 6119.5,-190 6418.5,-190 6418.5,-226"/>
<text text-anchor="middle" x="6269" y="-204.3" font-family="Times,serif" font-size="14.00">1_fwatchdog#ServerID_834d81eb81b3</text>
</g>
<!-- 10.1.80.93:40300#ServerID_OuterContainerID&#45;&gt;1_fwatchdog#ServerID_834d81eb81b3 -->
<g id="edge39" class="edge"><title>10.1.80.93:40300#ServerID_OuterContainerID&#45;&gt;1_fwatchdog#ServerID_834d81eb81b3</title>
<path fill="none" stroke="black" d="M10036.4,-329.204C9978.19,-326.107 9911.01,-322.921 9850,-321 9483.38,-309.453 6912.69,-327.688 6549,-280 6472.42,-269.959 6386.65,-246.304 6330.46,-229.049"/>
<polygon fill="black" stroke="black" points="6331.25,-225.631 6320.66,-226.015 6329.18,-232.318 6331.25,-225.631"/>
<text text-anchor="middle" x="7078.5" y="-291.8" font-family="Times,serif" font-size="14.00">read</text>
</g>
<!-- 1_fwatchdog#ServerID_76c96688d7&#45;jnp5f&#45;&gt;10.1.80.93:40300#ServerID_OuterContainerID -->
<g id="edge9" class="edge"><title>1_fwatchdog#ServerID_76c96688d7&#45;jnp5f&#45;&gt;10.1.80.93:40300#ServerID_OuterContainerID</title>
<path fill="none" stroke="black" d="M10191,-451.759C10192.6,-446.165 10194.2,-439.883 10195,-434 10198.2,-411.502 10195.3,-385.817 10191.9,-366.988"/>
<polygon fill="black" stroke="black" points="10195.3,-366.197 10190,-357.034 10188.5,-367.514 10195.3,-366.197"/>
<text text-anchor="middle" x="10238" y="-422.8" font-family="Times,serif" font-size="14.00">RESPONSE</text>
</g>
<!-- localhost:3000#ServerID_736074b81582 -->
<g id="node10" class="node"><title>localhost:3000#ServerID_736074b81582</title>
<polygon fill="none" stroke="black" points="2534,-226 2245.27,-208 2534,-190 2822.73,-208 2534,-226"/>
<text text-anchor="middle" x="2534" y="-204.3" font-family="Times,serif" font-size="14.00">localhost:3000#ServerID_736074b81582</text>
</g>
<!-- 1_fwatchdog#ServerID_736074b81582&#45;&gt;localhost:3000#ServerID_736074b81582 -->
<g id="edge11" class="edge"><title>1_fwatchdog#ServerID_736074b81582&#45;&gt;localhost:3000#ServerID_736074b81582</title>
<path fill="none" stroke="black" d="M2569.29,-320.964C2552.43,-316.151 2538.63,-310.208 2533,-303 2518.31,-284.182 2520.73,-256.177 2525.51,-235.628"/>
<polygon fill="black" stroke="black" points="2528.9,-236.494 2528.06,-225.932 2522.13,-234.712 2528.9,-236.494"/>
<text text-anchor="middle" x="2562" y="-291.8" font-family="Times,serif" font-size="14.00">connect</text>
</g>
<!-- 1_fwatchdog#ServerID_736074b81582&#45;&gt;localhost:3000#ServerID_736074b81582 -->
<g id="edge12" class="edge"><title>1_fwatchdog#ServerID_736074b81582&#45;&gt;localhost:3000#ServerID_736074b81582</title>
<path fill="none" stroke="black" d="M2639.86,-320.931C2631.06,-315.719 2621.83,-309.603 2614,-303 2589.49,-282.33 2566.3,-253.711 2551.26,-233.496"/>
<polygon fill="black" stroke="black" points="2554.07,-231.4 2545.34,-225.395 2548.42,-235.532 2554.07,-231.4"/>
<text text-anchor="middle" x="2633" y="-291.8" font-family="Times,serif" font-size="14.00">write</text>
</g>
<!-- localhost:3000#ServerID_736074b81582&#45;&gt;1_fwatchdog#ServerID_736074b81582 -->
<g id="edge15" class="edge"><title>localhost:3000#ServerID_736074b81582&#45;&gt;1_fwatchdog#ServerID_736074b81582</title>
<path fill="none" stroke="black" d="M2566.37,-224.009C2592.5,-237.54 2628.64,-259.652 2652,-288 2657.62,-294.819 2661.94,-303.357 2665.16,-311.438"/>
<polygon fill="black" stroke="black" points="2661.89,-312.687 2668.55,-320.922 2668.48,-310.328 2661.89,-312.687"/>
<text text-anchor="middle" x="2678.5" y="-291.8" font-family="Times,serif" font-size="14.00">read</text>
</g>
<!-- 10_node#ServerID_736074b81582&#45;&gt;gateway:8080#ServerID_OuterContainerID -->
<g id="edge28" class="edge"><title>10_node#ServerID_736074b81582&#45;&gt;gateway:8080#ServerID_OuterContainerID</title>
<path fill="none" stroke="black" d="M2021.99,-226.09C2073.94,-243.621 2159.63,-269.736 2236,-280 2321.18,-291.449 5244.07,-286.659 5330,-288 5562.96,-291.635 5621.06,-298.64 5854,-303 6761.43,-319.986 6988.86,-292.382 7896,-321 7949.67,-322.693 8008.47,-325.607 8060.47,-328.548"/>
<polygon fill="black" stroke="black" points="8060.59,-332.061 8070.77,-329.137 8060.99,-325.072 8060.59,-332.061"/>
<text text-anchor="middle" x="5883" y="-291.8" font-family="Times,serif" font-size="14.00">connect</text>
</g>
<!-- pipe:[20744134]#ServerID_736074b81582 -->
<g id="node12" class="node"><title>pipe:[20744134]#ServerID_736074b81582</title>
<ellipse fill="none" stroke="black" cx="1323" cy="-121" rx="211.762" ry="18"/>
<text text-anchor="middle" x="1323" y="-117.3" font-family="Times,serif" font-size="14.00">pipe:[20744134]#ServerID_736074b81582</text>
</g>
<!-- 10_node#ServerID_736074b81582&#45;&gt;pipe:[20744134]#ServerID_736074b81582 -->
<g id="edge13" class="edge"><title>10_node#ServerID_736074b81582&#45;&gt;pipe:[20744134]#ServerID_736074b81582</title>
<path fill="none" stroke="black" d="M1843.43,-189.952C1726.7,-174.71 1557,-152.553 1443.46,-137.728"/>
<polygon fill="black" stroke="black" points="1443.7,-134.23 1433.33,-136.406 1442.8,-141.171 1443.7,-134.23"/>
<text text-anchor="middle" x="1707" y="-160.8" font-family="Times,serif" font-size="14.00">write</text>
</g>
<!-- 22_node#ServerID_736074b81582 -->
<g id="node18" class="node"><title>22_node#ServerID_736074b81582</title>
<polygon fill="none" stroke="black" points="1821.5,-139 1552.5,-139 1552.5,-103 1821.5,-103 1821.5,-139"/>
<text text-anchor="middle" x="1687" y="-117.3" font-family="Times,serif" font-size="14.00">22_node#ServerID_736074b81582</text>
</g>
<!-- 10_node#ServerID_736074b81582&#45;&gt;22_node#ServerID_736074b81582 -->
<g id="edge21" class="edge"><title>10_node#ServerID_736074b81582&#45;&gt;22_node#ServerID_736074b81582</title>
<path fill="none" stroke="black" d="M1916.27,-189.901C1869.46,-176.039 1803.43,-156.483 1754.24,-141.915"/>
<polygon fill="black" stroke="black" points="1755.22,-138.555 1744.64,-139.071 1753.24,-145.267 1755.22,-138.555"/>
<text text-anchor="middle" x="1867.5" y="-160.8" font-family="Times,serif" font-size="14.00">clone</text>
</g>
<!-- 23_node#ServerID_736074b81582 -->
<g id="node19" class="node"><title>23_node#ServerID_736074b81582</title>
<polygon fill="none" stroke="black" points="2108.5,-139 1839.5,-139 1839.5,-103 2108.5,-103 2108.5,-139"/>
<text text-anchor="middle" x="1974" y="-117.3" font-family="Times,serif" font-size="14.00">23_node#ServerID_736074b81582</text>
</g>
<!-- 10_node#ServerID_736074b81582&#45;&gt;23_node#ServerID_736074b81582 -->
<g id="edge22" class="edge"><title>10_node#ServerID_736074b81582&#45;&gt;23_node#ServerID_736074b81582</title>
<path fill="none" stroke="black" d="M1974,-189.799C1974,-178.163 1974,-162.548 1974,-149.237"/>
<polygon fill="black" stroke="black" points="1977.5,-149.175 1974,-139.175 1970.5,-149.175 1977.5,-149.175"/>
<text text-anchor="middle" x="1993.5" y="-160.8" font-family="Times,serif" font-size="14.00">clone</text>
</g>
<!-- 24_node#ServerID_736074b81582 -->
<g id="node20" class="node"><title>24_node#ServerID_736074b81582</title>
<polygon fill="none" stroke="black" points="2395.5,-139 2126.5,-139 2126.5,-103 2395.5,-103 2395.5,-139"/>
<text text-anchor="middle" x="2261" y="-117.3" font-family="Times,serif" font-size="14.00">24_node#ServerID_736074b81582</text>
</g>
<!-- 10_node#ServerID_736074b81582&#45;&gt;24_node#ServerID_736074b81582 -->
<g id="edge23" class="edge"><title>10_node#ServerID_736074b81582&#45;&gt;24_node#ServerID_736074b81582</title>
<path fill="none" stroke="black" d="M2031.73,-189.901C2078.54,-176.039 2144.57,-156.483 2193.76,-141.915"/>
<polygon fill="black" stroke="black" points="2194.76,-145.267 2203.36,-139.071 2192.78,-138.555 2194.76,-145.267"/>
<text text-anchor="middle" x="2154.5" y="-160.8" font-family="Times,serif" font-size="14.00">clone</text>
</g>
<!-- 25_node#ServerID_736074b81582 -->
<g id="node21" class="node"><title>25_node#ServerID_736074b81582</title>
<polygon fill="none" stroke="black" points="2682.5,-139 2413.5,-139 2413.5,-103 2682.5,-103 2682.5,-139"/>
<text text-anchor="middle" x="2548" y="-117.3" font-family="Times,serif" font-size="14.00">25_node#ServerID_736074b81582</text>
</g>
<!-- 10_node#ServerID_736074b81582&#45;&gt;25_node#ServerID_736074b81582 -->
<g id="edge24" class="edge"><title>10_node#ServerID_736074b81582&#45;&gt;25_node#ServerID_736074b81582</title>
<path fill="none" stroke="black" d="M2089.12,-189.952C2185.78,-175.638 2323.63,-155.226 2422.97,-140.514"/>
<polygon fill="black" stroke="black" points="2423.69,-143.947 2433.07,-139.019 2422.66,-137.022 2423.69,-143.947"/>
<text text-anchor="middle" x="2315.5" y="-160.8" font-family="Times,serif" font-size="14.00">clone</text>
</g>
<!-- 10.152.183.10:53#ServerID_OuterContainerID -->
<g id="node23" class="node"><title>10.152.183.10:53#ServerID_OuterContainerID</title>
<polygon fill="none" stroke="black" points="6888,-357 6560.56,-339 6888,-321 7215.44,-339 6888,-357"/>
<text text-anchor="middle" x="6888" y="-335.3" font-family="Times,serif" font-size="14.00">10.152.183.10:53#ServerID_OuterContainerID</text>
</g>
<!-- 10_node#ServerID_736074b81582&#45;&gt;10.152.183.10:53#ServerID_OuterContainerID -->
<g id="edge26" class="edge"><title>10_node#ServerID_736074b81582&#45;&gt;10.152.183.10:53#ServerID_OuterContainerID</title>
<path fill="none" stroke="black" d="M2021.99,-226.073C2073.95,-243.59 2159.64,-269.692 2236,-280 2295.02,-287.967 4320.45,-287.295 4380,-288 5224.43,-297.992 6228.58,-321.534 6665.99,-332.366"/>
<polygon fill="black" stroke="black" points="6666.13,-335.871 6676.22,-332.62 6666.31,-328.873 6666.13,-335.871"/>
<text text-anchor="middle" x="5301.5" y="-291.8" font-family="Times,serif" font-size="14.00">sendto</text>
</g>
<!-- /etc/resolv.conf#ServerID_736074b81582 -->
<g id="node13" class="node"><title>/etc/resolv.conf#ServerID_736074b81582</title>
<ellipse fill="none" stroke="black" cx="2299" cy="-339" rx="206.063" ry="18"/>
<text text-anchor="middle" x="2299" y="-335.3" font-family="Times,serif" font-size="14.00">/etc/resolv.conf#ServerID_736074b81582</text>
</g>
<!-- /etc/resolv.conf#ServerID_736074b81582&#45;&gt;10_node#ServerID_736074b81582 -->
<g id="edge16" class="edge"><title>/etc/resolv.conf#ServerID_736074b81582&#45;&gt;10_node#ServerID_736074b81582</title>
<path fill="none" stroke="black" d="M2256.85,-321.268C2197.79,-297.827 2090.49,-255.236 2026.37,-229.789"/>
<polygon fill="black" stroke="black" points="2027.44,-226.446 2016.86,-226.01 2024.86,-232.953 2027.44,-226.446"/>
<text text-anchor="middle" x="2219.5" y="-291.8" font-family="Times,serif" font-size="14.00">read</text>
</g>
<!-- /etc/nsswitch.conf#ServerID_736074b81582 -->
<g id="node14" class="node"><title>/etc/nsswitch.conf#ServerID_736074b81582</title>
<ellipse fill="none" stroke="black" cx="1855" cy="-339" rx="220.161" ry="18"/>
<text text-anchor="middle" x="1855" y="-335.3" font-family="Times,serif" font-size="14.00">/etc/nsswitch.conf#ServerID_736074b81582</text>
</g>
<!-- /etc/nsswitch.conf#ServerID_736074b81582&#45;&gt;10_node#ServerID_736074b81582 -->
<g id="edge17" class="edge"><title>/etc/nsswitch.conf#ServerID_736074b81582&#45;&gt;10_node#ServerID_736074b81582</title>
<path fill="none" stroke="black" d="M1870.8,-320.87C1891.43,-298.51 1927.67,-259.223 1951.25,-233.66"/>
<polygon fill="black" stroke="black" points="1953.92,-235.924 1958.13,-226.201 1948.78,-231.178 1953.92,-235.924"/>
<text text-anchor="middle" x="1917.5" y="-291.8" font-family="Times,serif" font-size="14.00">read</text>
</g>
<!-- /etc/svc.conf#ServerID_736074b81582 -->
<g id="node15" class="node"><title>/etc/svc.conf#ServerID_736074b81582</title>
<ellipse fill="none" stroke="black" cx="1422" cy="-339" rx="194.166" ry="18"/>
<text text-anchor="middle" x="1422" y="-335.3" font-family="Times,serif" font-size="14.00">/etc/svc.conf#ServerID_736074b81582</text>
</g>
<!-- /etc/svc.conf#ServerID_736074b81582&#45;&gt;10_node#ServerID_736074b81582 -->
<g id="edge18" class="edge"><title>/etc/svc.conf#ServerID_736074b81582&#45;&gt;10_node#ServerID_736074b81582</title>
<path fill="none" stroke="black" d="M1489.96,-322.117C1591.26,-298.444 1781.63,-253.956 1891.01,-228.394"/>
<polygon fill="black" stroke="black" points="1892.07,-231.741 1901.01,-226.057 1890.48,-224.924 1892.07,-231.741"/>
<text text-anchor="middle" x="1649.5" y="-291.8" font-family="Times,serif" font-size="14.00">read</text>
</g>
<!-- /etc/host.conf#ServerID_736074b81582 -->
<g id="node16" class="node"><title>/etc/host.conf#ServerID_736074b81582</title>
<ellipse fill="none" stroke="black" cx="1011" cy="-339" rx="198.765" ry="18"/>
<text text-anchor="middle" x="1011" y="-335.3" font-family="Times,serif" font-size="14.00">/etc/host.conf#ServerID_736074b81582</text>
</g>
<!-- /etc/host.conf#ServerID_736074b81582&#45;&gt;10_node#ServerID_736074b81582 -->
<g id="edge19" class="edge"><title>/etc/host.conf#ServerID_736074b81582&#45;&gt;10_node#ServerID_736074b81582</title>
<path fill="none" stroke="black" d="M1117.27,-323.764C1292.76,-300.256 1642.96,-253.344 1836.87,-227.37"/>
<polygon fill="black" stroke="black" points="1837.39,-230.831 1846.84,-226.034 1836.46,-223.893 1837.39,-230.831"/>
<text text-anchor="middle" x="1394.5" y="-291.8" font-family="Times,serif" font-size="14.00">read</text>
</g>
<!-- /dev/urandom#ServerID_736074b81582 -->
<g id="node17" class="node"><title>/dev/urandom#ServerID_736074b81582</title>
<ellipse fill="none" stroke="black" cx="595" cy="-339" rx="199.565" ry="18"/>
<text text-anchor="middle" x="595" y="-335.3" font-family="Times,serif" font-size="14.00">/dev/urandom#ServerID_736074b81582</text>
</g>
<!-- /dev/urandom#ServerID_736074b81582&#45;&gt;10_node#ServerID_736074b81582 -->
<g id="edge20" class="edge"><title>/dev/urandom#ServerID_736074b81582&#45;&gt;10_node#ServerID_736074b81582</title>
<path fill="none" stroke="black" d="M728.164,-325.543C987.923,-301.244 1560.29,-247.701 1829.14,-222.551"/>
<polygon fill="black" stroke="black" points="1829.73,-226.011 1839.36,-221.595 1829.08,-219.042 1829.73,-226.011"/>
<text text-anchor="middle" x="1137.5" y="-291.8" font-family="Times,serif" font-size="14.00">read</text>
</g>
<!-- /etc/hosts#ServerID_736074b81582 -->
<g id="node22" class="node"><title>/etc/hosts#ServerID_736074b81582</title>
<ellipse fill="none" stroke="black" cx="197" cy="-339" rx="180.868" ry="18"/>
<text text-anchor="middle" x="197" y="-335.3" font-family="Times,serif" font-size="14.00">/etc/hosts#ServerID_736074b81582</text>
</g>
<!-- /etc/hosts#ServerID_736074b81582&#45;&gt;10_node#ServerID_736074b81582 -->
<g id="edge25" class="edge"><title>/etc/hosts#ServerID_736074b81582&#45;&gt;10_node#ServerID_736074b81582</title>
<path fill="none" stroke="black" d="M324.307,-326.211C344.925,-324.399 366.05,-322.601 386,-321 917.506,-278.357 1549.81,-236.377 1829.11,-218.28"/>
<polygon fill="black" stroke="black" points="1829.55,-221.759 1839.3,-217.62 1829.1,-214.774 1829.55,-221.759"/>
<text text-anchor="middle" x="794.5" y="-291.8" font-family="Times,serif" font-size="14.00">read</text>
</g>
<!-- 10.152.183.10:53#ServerID_OuterContainerID&#45;&gt;10_node#ServerID_736074b81582 -->
<g id="edge27" class="edge"><title>10.152.183.10:53#ServerID_OuterContainerID&#45;&gt;10_node#ServerID_736074b81582</title>
<path fill="none" stroke="black" d="M6632.52,-335.028C5662.88,-323.72 2263.43,-283.825 2236,-280 2164.53,-270.033 2084.81,-246.586 2032.29,-229.352"/>
<polygon fill="black" stroke="black" points="2033.08,-225.925 2022.49,-226.102 2030.88,-232.57 2033.08,-225.925"/>
<text text-anchor="middle" x="3921" y="-291.8" font-family="Times,serif" font-size="14.00">recvfrom</text>
</g>
<!-- localhost:3000#ServerID_86aa7f3fa3b0 -->
<g id="node25" class="node"><title>localhost:3000#ServerID_86aa7f3fa3b0</title>
<polygon fill="none" stroke="black" points="4930,-139 4650.65,-121 4930,-103 5209.35,-121 4930,-139"/>
<text text-anchor="middle" x="4930" y="-117.3" font-family="Times,serif" font-size="14.00">localhost:3000#ServerID_86aa7f3fa3b0</text>
</g>
<!-- 1_fwatchdog#ServerID_86aa7f3fa3b0&#45;&gt;localhost:3000#ServerID_86aa7f3fa3b0 -->
<g id="edge30" class="edge"><title>1_fwatchdog#ServerID_86aa7f3fa3b0&#45;&gt;localhost:3000#ServerID_86aa7f3fa3b0</title>
<path fill="none" stroke="black" d="M4951.8,-189.762C4956.74,-184.629 4961.32,-178.594 4964,-172 4967.79,-162.662 4963.95,-153.296 4957.68,-145.237"/>
<polygon fill="black" stroke="black" points="4960.11,-142.702 4950.79,-137.662 4954.93,-147.414 4960.11,-142.702"/>
<text text-anchor="middle" x="4985" y="-160.8" font-family="Times,serif" font-size="14.00">write</text>
</g>
<!-- 1_fwatchdog#ServerID_86aa7f3fa3b0&#45;&gt;localhost:3000#ServerID_86aa7f3fa3b0 -->
<g id="edge32" class="edge"><title>1_fwatchdog#ServerID_86aa7f3fa3b0&#45;&gt;localhost:3000#ServerID_86aa7f3fa3b0</title>
<path fill="none" stroke="black" d="M4869.1,-189.782C4861.55,-185.18 4854.81,-179.359 4850,-172 4841,-158.237 4851.36,-147.579 4867.29,-139.707"/>
<polygon fill="black" stroke="black" points="4868.87,-142.837 4876.62,-135.618 4866.06,-136.425 4868.87,-142.837"/>
<text text-anchor="middle" x="4879" y="-160.8" font-family="Times,serif" font-size="14.00">connect</text>
</g>
<!-- pipe:[20744110]#ServerID_86aa7f3fa3b0 -->
<g id="node30" class="node"><title>pipe:[20744110]#ServerID_86aa7f3fa3b0</title>
<ellipse fill="none" stroke="black" cx="4427" cy="-121" rx="206.063" ry="18"/>
<text text-anchor="middle" x="4427" y="-117.3" font-family="Times,serif" font-size="14.00">pipe:[20744110]#ServerID_86aa7f3fa3b0</text>
</g>
<!-- 1_fwatchdog#ServerID_86aa7f3fa3b0&#45;&gt;pipe:[20744110]#ServerID_86aa7f3fa3b0 -->
<g id="edge37" class="edge"><title>1_fwatchdog#ServerID_86aa7f3fa3b0&#45;&gt;pipe:[20744110]#ServerID_86aa7f3fa3b0</title>
<path fill="none" stroke="black" d="M4829.12,-189.952C4741.3,-175.113 4614.7,-153.719 4527.11,-138.918"/>
<polygon fill="black" stroke="black" points="4527.61,-135.452 4517.17,-137.237 4526.44,-142.354 4527.61,-135.452"/>
<text text-anchor="middle" x="4728" y="-160.8" font-family="Times,serif" font-size="14.00">write</text>
</g>
<!-- localhost:3000#ServerID_86aa7f3fa3b0&#45;&gt;1_fwatchdog#ServerID_86aa7f3fa3b0 -->
<g id="edge34" class="edge"><title>localhost:3000#ServerID_86aa7f3fa3b0&#45;&gt;1_fwatchdog#ServerID_86aa7f3fa3b0</title>
<path fill="none" stroke="black" d="M4928.24,-139.071C4927.73,-144.766 4927.25,-151.151 4927,-157 4926.69,-164.355 4926.91,-172.313 4927.34,-179.672"/>
<polygon fill="black" stroke="black" points="4923.87,-180.17 4928.1,-189.883 4930.85,-179.651 4923.87,-180.17"/>
<text text-anchor="middle" x="4943.5" y="-160.8" font-family="Times,serif" font-size="14.00">read</text>
</g>
<!-- 10_node#ServerID_86aa7f3fa3b0 -->
<g id="node26" class="node"><title>10_node#ServerID_86aa7f3fa3b0</title>
<polygon fill="none" stroke="black" points="3856.5,-52 3597.5,-52 3597.5,-16 3856.5,-16 3856.5,-52"/>
<text text-anchor="middle" x="3727" y="-30.3" font-family="Times,serif" font-size="14.00">10_node#ServerID_86aa7f3fa3b0</text>
</g>
<!-- localhost:3000#ServerID_86aa7f3fa3b0&#45;&gt;10_node#ServerID_86aa7f3fa3b0 -->
<g id="edge31" class="edge"><title>localhost:3000#ServerID_86aa7f3fa3b0&#45;&gt;10_node#ServerID_86aa7f3fa3b0</title>
<path fill="none" stroke="black" d="M4820.98,-109.99C4767.13,-105.186 4701.18,-99.5081 4642,-95 4367.42,-74.0822 4046.14,-54.0384 3866.64,-43.238"/>
<polygon fill="black" stroke="black" points="3866.81,-39.7417 3856.62,-42.6354 3866.39,-46.729 3866.81,-39.7417"/>
<text text-anchor="middle" x="4509.5" y="-73.8" font-family="Times,serif" font-size="14.00">read</text>
</g>
<!-- /home/app/node_modules#ServerID_86aa7f3fa3b0 -->
<g id="node27" class="node"><title>/home/app/node_modules#ServerID_86aa7f3fa3b0</title>
<ellipse fill="none" stroke="black" cx="3956" cy="-121" rx="246.956" ry="18"/>
<text text-anchor="middle" x="3956" y="-117.3" font-family="Times,serif" font-size="14.00">/home/app/node_modules#ServerID_86aa7f3fa3b0</text>
</g>
<!-- /home/app/node_modules#ServerID_86aa7f3fa3b0&#45;&gt;10_node#ServerID_86aa7f3fa3b0 -->
<g id="edge33" class="edge"><title>/home/app/node_modules#ServerID_86aa7f3fa3b0&#45;&gt;10_node#ServerID_86aa7f3fa3b0</title>
<path fill="none" stroke="black" d="M3910.76,-103.207C3873.99,-89.5585 3821.95,-70.2447 3782.64,-55.6514"/>
<polygon fill="black" stroke="black" points="3783.53,-52.2479 3772.93,-52.0493 3781.09,-58.8104 3783.53,-52.2479"/>
<text text-anchor="middle" x="3872.5" y="-73.8" font-family="Times,serif" font-size="14.00">read</text>
</g>
<!-- /etc/localtime#ServerID_86aa7f3fa3b0 -->
<g id="node28" class="node"><title>/etc/localtime#ServerID_86aa7f3fa3b0</title>
<ellipse fill="none" stroke="black" cx="3499" cy="-121" rx="192.266" ry="18"/>
<text text-anchor="middle" x="3499" y="-117.3" font-family="Times,serif" font-size="14.00">/etc/localtime#ServerID_86aa7f3fa3b0</text>
</g>
<!-- /etc/localtime#ServerID_86aa7f3fa3b0&#45;&gt;10_node#ServerID_86aa7f3fa3b0 -->
<g id="edge35" class="edge"><title>/etc/localtime#ServerID_86aa7f3fa3b0&#45;&gt;10_node#ServerID_86aa7f3fa3b0</title>
<path fill="none" stroke="black" d="M3543.5,-103.409C3580.06,-89.7804 3632.04,-70.4031 3671.34,-55.749"/>
<polygon fill="black" stroke="black" points="3672.9,-58.9043 3681.05,-52.1315 3670.45,-52.3453 3672.9,-58.9043"/>
<text text-anchor="middle" x="3643.5" y="-73.8" font-family="Times,serif" font-size="14.00">read</text>
</g>
<!-- /usr/share/zoneinfo/#ServerID_86aa7f3fa3b0 -->
<g id="node29" class="node"><title>/usr/share/zoneinfo/#ServerID_86aa7f3fa3b0</title>
<ellipse fill="none" stroke="black" cx="3068" cy="-121" rx="220.961" ry="18"/>
<text text-anchor="middle" x="3068" y="-117.3" font-family="Times,serif" font-size="14.00">/usr/share/zoneinfo/#ServerID_86aa7f3fa3b0</text>
</g>
<!-- /usr/share/zoneinfo/#ServerID_86aa7f3fa3b0&#45;&gt;10_node#ServerID_86aa7f3fa3b0 -->
<g id="edge36" class="edge"><title>/usr/share/zoneinfo/#ServerID_86aa7f3fa3b0&#45;&gt;10_node#ServerID_86aa7f3fa3b0</title>
<path fill="none" stroke="black" d="M3180.54,-105.485C3292.99,-90.98 3466.14,-68.6471 3587.31,-53.0176"/>
<polygon fill="black" stroke="black" points="3587.93,-56.4663 3597.4,-51.7157 3587.04,-49.5238 3587.93,-56.4663"/>
<text text-anchor="middle" x="3453.5" y="-73.8" font-family="Times,serif" font-size="14.00">read</text>
</g>
<!-- localhost:3000#ServerID_834d81eb81b3 -->
<g id="node32" class="node"><title>localhost:3000#ServerID_834d81eb81b3</title>
<polygon fill="none" stroke="black" points="6249,-139 5961.11,-121 6249,-103 6536.89,-121 6249,-139"/>
<text text-anchor="middle" x="6249" y="-117.3" font-family="Times,serif" font-size="14.00">localhost:3000#ServerID_834d81eb81b3</text>
</g>
<!-- 1_fwatchdog#ServerID_834d81eb81b3&#45;&gt;localhost:3000#ServerID_834d81eb81b3 -->
<g id="edge40" class="edge"><title>1_fwatchdog#ServerID_834d81eb81b3&#45;&gt;localhost:3000#ServerID_834d81eb81b3</title>
<path fill="none" stroke="black" d="M6198.87,-189.972C6191.07,-185.349 6184.11,-179.472 6179,-172 6170.33,-159.326 6179.92,-148.767 6194.49,-140.668"/>
<polygon fill="black" stroke="black" points="6196.14,-143.758 6203.55,-136.187 6193.04,-137.484 6196.14,-143.758"/>
<text text-anchor="middle" x="6208" y="-160.8" font-family="Times,serif" font-size="14.00">connect</text>
</g>
<!-- 1_fwatchdog#ServerID_834d81eb81b3&#45;&gt;localhost:3000#ServerID_834d81eb81b3 -->
<g id="edge42" class="edge"><title>1_fwatchdog#ServerID_834d81eb81b3&#45;&gt;localhost:3000#ServerID_834d81eb81b3</title>
<path fill="none" stroke="black" d="M6261.76,-189.788C6259.64,-184.196 6257.49,-177.908 6256,-172 6254.16,-164.722 6252.77,-156.718 6251.73,-149.288"/>
<polygon fill="black" stroke="black" points="6255.2,-148.793 6250.49,-139.302 6248.25,-149.658 6255.2,-148.793"/>
<text text-anchor="middle" x="6275" y="-160.8" font-family="Times,serif" font-size="14.00">write</text>
</g>
<!-- pipe:[20745046]#ServerID_834d81eb81b3 -->
<g id="node36" class="node"><title>pipe:[20745046]#ServerID_834d81eb81b3</title>
<ellipse fill="none" stroke="black" cx="5731" cy="-121" rx="211.762" ry="18"/>
<text text-anchor="middle" x="5731" y="-117.3" font-family="Times,serif" font-size="14.00">pipe:[20745046]#ServerID_834d81eb81b3</text>
</g>
<!-- 1_fwatchdog#ServerID_834d81eb81b3&#45;&gt;pipe:[20745046]#ServerID_834d81eb81b3 -->
<g id="edge45" class="edge"><title>1_fwatchdog#ServerID_834d81eb81b3&#45;&gt;pipe:[20745046]#ServerID_834d81eb81b3</title>
<path fill="none" stroke="black" d="M6161.1,-189.952C6066.69,-175.036 5930.36,-153.497 5836.63,-138.688"/>
<polygon fill="black" stroke="black" points="5836.98,-135.201 5826.56,-137.097 5835.89,-142.115 5836.98,-135.201"/>
<text text-anchor="middle" x="6052" y="-160.8" font-family="Times,serif" font-size="14.00">write</text>
</g>
<!-- localhost:3000#ServerID_834d81eb81b3&#45;&gt;1_fwatchdog#ServerID_834d81eb81b3 -->
<g id="edge41" class="edge"><title>localhost:3000#ServerID_834d81eb81b3&#45;&gt;1_fwatchdog#ServerID_834d81eb81b3</title>
<path fill="none" stroke="black" d="M6279.68,-137.228C6287.01,-142.433 6293.89,-149.006 6298,-157 6302.18,-165.125 6299.72,-173.797 6294.81,-181.597"/>
<polygon fill="black" stroke="black" points="6291.96,-179.565 6288.72,-189.653 6297.54,-183.786 6291.96,-179.565"/>
<text text-anchor="middle" x="6317.5" y="-160.8" font-family="Times,serif" font-size="14.00">read</text>
</g>
<!-- /etc/localtime#ServerID_834d81eb81b3 -->
<g id="node33" class="node"><title>/etc/localtime#ServerID_834d81eb81b3</title>
<ellipse fill="none" stroke="black" cx="5903" cy="-208" rx="198.465" ry="18"/>
<text text-anchor="middle" x="5903" y="-204.3" font-family="Times,serif" font-size="14.00">/etc/localtime#ServerID_834d81eb81b3</text>
</g>
<!-- 13_node#ServerID_834d81eb81b3 -->
<g id="node34" class="node"><title>13_node#ServerID_834d81eb81b3</title>
<polygon fill="none" stroke="black" points="5501,-139 5233,-139 5233,-103 5501,-103 5501,-139"/>
<text text-anchor="middle" x="5367" y="-117.3" font-family="Times,serif" font-size="14.00">13_node#ServerID_834d81eb81b3</text>
</g>
<!-- /etc/localtime#ServerID_834d81eb81b3&#45;&gt;13_node#ServerID_834d81eb81b3 -->
<g id="edge43" class="edge"><title>/etc/localtime#ServerID_834d81eb81b3&#45;&gt;13_node#ServerID_834d81eb81b3</title>
<path fill="none" stroke="black" d="M5809.02,-192.097C5718.6,-177.758 5581.62,-156.035 5484.14,-140.576"/>
<polygon fill="black" stroke="black" points="5484.66,-137.116 5474.24,-139.006 5483.57,-144.029 5484.66,-137.116"/>
<text text-anchor="middle" x="5684.5" y="-160.8" font-family="Times,serif" font-size="14.00">read</text>
</g>
<!-- /usr/share/zoneinfo/#ServerID_834d81eb81b3 -->
<g id="node35" class="node"><title>/usr/share/zoneinfo/#ServerID_834d81eb81b3</title>
<ellipse fill="none" stroke="black" cx="5460" cy="-208" rx="226.66" ry="18"/>
<text text-anchor="middle" x="5460" y="-204.3" font-family="Times,serif" font-size="14.00">/usr/share/zoneinfo/#ServerID_834d81eb81b3</text>
</g>
<!-- /usr/share/zoneinfo/#ServerID_834d81eb81b3&#45;&gt;13_node#ServerID_834d81eb81b3 -->
<g id="edge44" class="edge"><title>/usr/share/zoneinfo/#ServerID_834d81eb81b3&#45;&gt;13_node#ServerID_834d81eb81b3</title>
<path fill="none" stroke="black" d="M5441.18,-189.799C5427.44,-177.241 5408.63,-160.049 5393.39,-146.12"/>
<polygon fill="black" stroke="black" points="5395.53,-143.338 5385.79,-139.175 5390.81,-148.505 5395.53,-143.338"/>
<text text-anchor="middle" x="5436.5" y="-160.8" font-family="Times,serif" font-size="14.00">read</text>
</g>
<!-- 10.1.80.1:11890#ServerID_OuterContainerID&#45;&gt;10.1.80.93:8080#ServerID_OuterContainerID -->
<g id="edge46" class="edge"><title>10.1.80.1:11890#ServerID_OuterContainerID&#45;&gt;10.1.80.93:8080#ServerID_OuterContainerID</title>
<path fill="none" stroke="black" d="M8782.41,-225.963C8778.03,-245.895 8773.97,-279.255 8788,-303 8791.3,-308.587 8795.86,-313.354 8801.01,-317.403"/>
<polygon fill="black" stroke="black" points="8799.28,-320.456 8809.51,-323.189 8803.22,-314.669 8799.28,-320.456"/>
<text text-anchor="middle" x="8808" y="-291.8" font-family="Times,serif" font-size="14.00">POST</text>
</g>
</g>
</svg>
