<?xml version="1.0" encoding="UTF-8" standalone="no"?>
<!DOCTYPE svg PUBLIC "-//W3C//DTD SVG 1.1//EN"
 "http://www.w3.org/Graphics/SVG/1.1/DTD/svg11.dtd">
<!-- Generated by graphviz version 2.38.0 (20140413.2041)
 -->
<!-- Title: G Pages: 1 -->
<svg width="10401pt" height="489pt"
 viewBox="0.00 0.00 10401.00 489.00" xmlns="http://www.w3.org/2000/svg" xmlns:xlink="http://www.w3.org/1999/xlink">
<g id="graph0" class="graph" transform="scale(1 1) rotate(0) translate(4 485)">
<title>G</title>
<polygon fill="white" stroke="none" points="-4,4 -4,-485 10397,-485 10397,4 -4,4"/>
<g id="clust1" class="cluster"><title>clusterServerID_4451aee8bc70</title>
<polygon fill="none" stroke="black" points="8623,-398 8623,-473 8937,-473 8937,-398 8623,-398"/>
<text text-anchor="middle" x="8780" y="-457.8" font-family="Times,serif" font-size="14.00">clusterServerID_4451aee8bc70</text>
</g>
<g id="clust2" class="cluster"><title>clusterServerID_6dcbcc88d5&#45;mmq29</title>
<polygon fill="none" stroke="black" points="3514,-398 3514,-473 3868,-473 3868,-398 3514,-398"/>
<text text-anchor="middle" x="3691" y="-457.8" font-family="Times,serif" font-size="14.00">clusterServerID_6dcbcc88d5&#45;mmq29</text>
</g>
<g id="clust3" class="cluster"><title>clusterServerID_76c96688d7&#45;5sj98</title>
<polygon fill="none" stroke="black" points="7524,-398 7524,-473 7864,-473 7864,-398 7524,-398"/>
<text text-anchor="middle" x="7694" y="-457.8" font-family="Times,serif" font-size="14.00">clusterServerID_76c96688d7&#45;5sj98</text>
</g>
<g id="clust4" class="cluster"><title>clusterServerID_8665dd9487&#45;8ztxg</title>
<polygon fill="none" stroke="black" points="5522,-398 5522,-473 5864,-473 5864,-398 5522,-398"/>
<text text-anchor="middle" x="5693" y="-457.8" font-family="Times,serif" font-size="14.00">clusterServerID_8665dd9487&#45;8ztxg</text>
</g>
<g id="clust5" class="cluster"><title>clusterServerID_OuterContainerID</title>
<polygon fill="none" stroke="black" points="1378,-182 1378,-365 9348,-365 9348,-182 1378,-182"/>
<text text-anchor="middle" x="5363" y="-349.8" font-family="Times,serif" font-size="14.00">clusterServerID_OuterContainerID</text>
</g>
<g id="clust6" class="cluster"><title>clusterServerID_b10d4e8ff34a</title>
<polygon fill="none" stroke="black" points="8,-182 8,-473 1370,-473 1370,-182 8,-182"/>
<text text-anchor="middle" x="689" y="-457.8" font-family="Times,serif" font-size="14.00">clusterServerID_b10d4e8ff34a</text>
</g>
<g id="clust7" class="cluster"><title>clusterServerID_b81a51f66a3b</title>
<polygon fill="none" stroke="black" points="9356,-8 9356,-257 10385,-257 10385,-8 9356,-8"/>
<text text-anchor="middle" x="9870.5" y="-241.8" font-family="Times,serif" font-size="14.00">clusterServerID_b81a51f66a3b</text>
</g>
<!-- 10.1.80.247:40000#ServerID_OuterContainerID -->
<g id="node1" class="node"><title>10.1.80.247:40000#ServerID_OuterContainerID</title>
<polygon fill="none" stroke="black" points="3033,-334 2697.52,-316 3033,-298 3368.48,-316 3033,-334"/>
<text text-anchor="middle" x="3033" y="-312.3" font-family="Times,serif" font-size="14.00">10.1.80.247:40000#ServerID_OuterContainerID</text>
</g>
<!-- 1_fwatchdog#ServerID_6dcbcc88d5&#45;mmq29 -->
<g id="node2" class="node"><title>1_fwatchdog#ServerID_6dcbcc88d5&#45;mmq29</title>
<polygon fill="none" stroke="black" points="3860,-442 3522,-442 3522,-406 3860,-406 3860,-442"/>
<text text-anchor="middle" x="3691" y="-420.3" font-family="Times,serif" font-size="14.00">1_fwatchdog#ServerID_6dcbcc88d5&#45;mmq29</text>
</g>
<!-- 10.1.80.247:40000#ServerID_OuterContainerID&#45;&gt;1_fwatchdog#ServerID_6dcbcc88d5&#45;mmq29 -->
<g id="edge1" class="edge"><title>10.1.80.247:40000#ServerID_OuterContainerID&#45;&gt;1_fwatchdog#ServerID_6dcbcc88d5&#45;mmq29</title>
<path fill="none" stroke="black" d="M3091.04,-330.9C3158.48,-346.634 3273.25,-372.133 3373,-388 3417.84,-395.133 3466.47,-401.279 3511.9,-406.342"/>
<polygon fill="black" stroke="black" points="3511.52,-409.821 3521.85,-407.439 3512.29,-402.864 3511.52,-409.821"/>
<text text-anchor="middle" x="3393" y="-376.8" font-family="Times,serif" font-size="14.00">POST</text>
</g>
<!-- 1_fwatchdog#ServerID_b10d4e8ff34a -->
<g id="node9" class="node"><title>1_fwatchdog#ServerID_b10d4e8ff34a</title>
<polygon fill="none" stroke="black" points="1362.5,-442 1071.5,-442 1071.5,-406 1362.5,-406 1362.5,-442"/>
<text text-anchor="middle" x="1217" y="-420.3" font-family="Times,serif" font-size="14.00">1_fwatchdog#ServerID_b10d4e8ff34a</text>
</g>
<!-- 10.1.80.247:40000#ServerID_OuterContainerID&#45;&gt;1_fwatchdog#ServerID_b10d4e8ff34a -->
<g id="edge14" class="edge"><title>10.1.80.247:40000#ServerID_OuterContainerID&#45;&gt;1_fwatchdog#ServerID_b10d4e8ff34a</title>
<path fill="none" stroke="black" d="M2956.06,-329.929C2886.5,-341.092 2781.19,-356.695 2689,-365 2210.54,-408.103 1641.74,-419.179 1372.75,-422.021"/>
<polygon fill="black" stroke="black" points="1372.48,-418.524 1362.52,-422.127 1372.56,-425.523 1372.48,-418.524"/>
<text text-anchor="middle" x="2587.5" y="-376.8" font-family="Times,serif" font-size="14.00">read</text>
</g>
<!-- 1_fwatchdog#ServerID_6dcbcc88d5&#45;mmq29&#45;&gt;10.1.80.247:40000#ServerID_OuterContainerID -->
<g id="edge10" class="edge"><title>1_fwatchdog#ServerID_6dcbcc88d5&#45;mmq29&#45;&gt;10.1.80.247:40000#ServerID_OuterContainerID</title>
<path fill="none" stroke="black" d="M3600.35,-405.949C3546.08,-395.926 3475.67,-383.251 3413,-373 3317.74,-357.418 3208.71,-341.553 3131.95,-330.707"/>
<polygon fill="black" stroke="black" points="3132.2,-327.208 3121.81,-329.277 3131.22,-334.139 3132.2,-327.208"/>
<text text-anchor="middle" x="3540" y="-376.8" font-family="Times,serif" font-size="14.00">RESPONSE</text>
</g>
<!-- 10.1.80.247:8080#ServerID_OuterContainerID -->
<g id="node3" class="node"><title>10.1.80.247:8080#ServerID_OuterContainerID</title>
<polygon fill="none" stroke="black" points="5012,-334 4684.56,-316 5012,-298 5339.44,-316 5012,-334"/>
<text text-anchor="middle" x="5012" y="-312.3" font-family="Times,serif" font-size="14.00">10.1.80.247:8080#ServerID_OuterContainerID</text>
</g>
<!-- 1_fwatchdog#ServerID_6dcbcc88d5&#45;mmq29&#45;&gt;10.1.80.247:8080#ServerID_OuterContainerID -->
<g id="edge4" class="edge"><title>1_fwatchdog#ServerID_6dcbcc88d5&#45;mmq29&#45;&gt;10.1.80.247:8080#ServerID_OuterContainerID</title>
<path fill="none" stroke="black" d="M3860.3,-420.171C4095.4,-415.675 4508.68,-405.56 4658,-388 4759.76,-376.033 4875.9,-350.401 4946.56,-333.434"/>
<polygon fill="black" stroke="black" points="4947.75,-336.747 4956.65,-330.996 4946.11,-329.943 4947.75,-336.747"/>
<text text-anchor="middle" x="4777" y="-376.8" font-family="Times,serif" font-size="14.00">POST</text>
</g>
<!-- gateway:8080#ServerID_OuterContainerID -->
<g id="node6" class="node"><title>gateway:8080#ServerID_OuterContainerID</title>
<polygon fill="none" stroke="black" points="3691,-334 3386.52,-316 3691,-298 3995.48,-316 3691,-334"/>
<text text-anchor="middle" x="3691" y="-312.3" font-family="Times,serif" font-size="14.00">gateway:8080#ServerID_OuterContainerID</text>
</g>
<!-- 1_fwatchdog#ServerID_6dcbcc88d5&#45;mmq29&#45;&gt;gateway:8080#ServerID_OuterContainerID -->
<g id="edge5" class="edge"><title>1_fwatchdog#ServerID_6dcbcc88d5&#45;mmq29&#45;&gt;gateway:8080#ServerID_OuterContainerID</title>
<path fill="none" stroke="black" d="M3711.2,-405.928C3715.99,-400.716 3720.44,-394.601 3723,-388 3725.41,-381.785 3724.71,-379.443 3723,-373 3720.15,-362.286 3714.72,-351.483 3709.13,-342.263"/>
<polygon fill="black" stroke="black" points="3711.93,-340.148 3703.58,-333.633 3706.05,-343.936 3711.93,-340.148"/>
<text text-anchor="middle" x="3745" y="-376.8" font-family="Times,serif" font-size="14.00">POST</text>
</g>
<!-- 10.1.80.247:8080#ServerID_OuterContainerID&#45;&gt;1_fwatchdog#ServerID_6dcbcc88d5&#45;mmq29 -->
<g id="edge2" class="edge"><title>10.1.80.247:8080#ServerID_OuterContainerID&#45;&gt;1_fwatchdog#ServerID_6dcbcc88d5&#45;mmq29</title>
<path fill="none" stroke="black" d="M4935.15,-329.832C4867.19,-340.737 4765.26,-356.012 4676,-365 4395.39,-393.256 4068.32,-409.157 3870.6,-416.908"/>
<polygon fill="black" stroke="black" points="3870.26,-413.418 3860.41,-417.304 3870.53,-420.413 3870.26,-413.418"/>
<text text-anchor="middle" x="4612" y="-376.8" font-family="Times,serif" font-size="14.00">RESPONSE</text>
</g>
<!-- 10.1.80.1:15763#ServerID_OuterContainerID -->
<g id="node26" class="node"><title>10.1.80.1:15763#ServerID_OuterContainerID</title>
<polygon fill="none" stroke="black" points="5075,-226 4756.1,-208 5075,-190 5393.9,-208 5075,-226"/>
<text text-anchor="middle" x="5075" y="-204.3" font-family="Times,serif" font-size="14.00">10.1.80.1:15763#ServerID_OuterContainerID</text>
</g>
<!-- 10.1.80.247:8080#ServerID_OuterContainerID&#45;&gt;10.1.80.1:15763#ServerID_OuterContainerID -->
<g id="edge40" class="edge"><title>10.1.80.247:8080#ServerID_OuterContainerID&#45;&gt;10.1.80.1:15763#ServerID_OuterContainerID</title>
<path fill="none" stroke="black" d="M5035.09,-299.166C5041.64,-293.734 5048.26,-287.191 5053,-280 5061.71,-266.774 5067.12,-249.913 5070.4,-235.941"/>
<polygon fill="black" stroke="black" points="5073.87,-236.434 5072.51,-225.928 5067.02,-234.992 5073.87,-236.434"/>
<text text-anchor="middle" x="5103" y="-268.8" font-family="Times,serif" font-size="14.00">RESPONSE</text>
</g>
<!-- 10.0.88.125:31112#ServerID_OuterContainerID -->
<g id="node27" class="node"><title>10.0.88.125:31112#ServerID_OuterContainerID</title>
<polygon fill="none" stroke="black" points="4403,-226 4067.52,-208 4403,-190 4738.48,-208 4403,-226"/>
<text text-anchor="middle" x="4403" y="-204.3" font-family="Times,serif" font-size="14.00">10.0.88.125:31112#ServerID_OuterContainerID</text>
</g>
<!-- 10.1.80.247:8080#ServerID_OuterContainerID&#45;&gt;10.0.88.125:31112#ServerID_OuterContainerID -->
<g id="edge41" class="edge"><title>10.1.80.247:8080#ServerID_OuterContainerID&#45;&gt;10.0.88.125:31112#ServerID_OuterContainerID</title>
<path fill="none" stroke="black" d="M4937.63,-302.055C4823.9,-282.26 4607.4,-244.577 4487.75,-223.751"/>
<polygon fill="black" stroke="black" points="4488.35,-220.302 4477.89,-222.036 4487.15,-227.199 4488.35,-220.302"/>
<text text-anchor="middle" x="4840" y="-268.8" font-family="Times,serif" font-size="14.00">RESPONSE</text>
</g>
<!-- 1_fwatchdog#ServerID_8665dd9487&#45;8ztxg -->
<g id="node4" class="node"><title>1_fwatchdog#ServerID_8665dd9487&#45;8ztxg</title>
<polygon fill="none" stroke="black" points="5856,-442 5530,-442 5530,-406 5856,-406 5856,-442"/>
<text text-anchor="middle" x="5693" y="-420.3" font-family="Times,serif" font-size="14.00">1_fwatchdog#ServerID_8665dd9487&#45;8ztxg</text>
</g>
<!-- 10.1.80.247:36046#ServerID_OuterContainerID -->
<g id="node5" class="node"><title>10.1.80.247:36046#ServerID_OuterContainerID</title>
<polygon fill="none" stroke="black" points="5693,-334 5357.52,-316 5693,-298 6028.48,-316 5693,-334"/>
<text text-anchor="middle" x="5693" y="-312.3" font-family="Times,serif" font-size="14.00">10.1.80.247:36046#ServerID_OuterContainerID</text>
</g>
<!-- 1_fwatchdog#ServerID_8665dd9487&#45;8ztxg&#45;&gt;10.1.80.247:36046#ServerID_OuterContainerID -->
<g id="edge3" class="edge"><title>1_fwatchdog#ServerID_8665dd9487&#45;8ztxg&#45;&gt;10.1.80.247:36046#ServerID_OuterContainerID</title>
<path fill="none" stroke="black" d="M5657.26,-405.861C5650.73,-401.032 5644.78,-395.108 5641,-388 5637.87,-382.115 5638.56,-379.205 5641,-373 5645.94,-360.43 5655.17,-349.002 5664.5,-339.796"/>
<polygon fill="black" stroke="black" points="5666.97,-342.276 5671.92,-332.91 5662.21,-337.144 5666.97,-342.276"/>
<text text-anchor="middle" x="5683" y="-376.8" font-family="Times,serif" font-size="14.00">RESPONSE</text>
</g>
<!-- 10.1.80.247:36046#ServerID_OuterContainerID&#45;&gt;1_fwatchdog#ServerID_8665dd9487&#45;8ztxg -->
<g id="edge7" class="edge"><title>10.1.80.247:36046#ServerID_OuterContainerID&#45;&gt;1_fwatchdog#ServerID_8665dd9487&#45;8ztxg</title>
<path fill="none" stroke="black" d="M5705.58,-333.633C5712.82,-344.272 5721.21,-358.714 5725,-373 5726.71,-379.443 5727.41,-381.785 5725,-388 5723.64,-391.507 5721.74,-394.876 5719.55,-398.046"/>
<polygon fill="black" stroke="black" points="5716.75,-395.944 5713.2,-405.928 5722.2,-400.335 5716.75,-395.944"/>
<text text-anchor="middle" x="5747" y="-376.8" font-family="Times,serif" font-size="14.00">POST</text>
</g>
<!-- 1_fwatchdog#ServerID_b81a51f66a3b -->
<g id="node19" class="node"><title>1_fwatchdog#ServerID_b81a51f66a3b</title>
<polygon fill="none" stroke="black" points="9659.5,-226 9364.5,-226 9364.5,-190 9659.5,-190 9659.5,-226"/>
<text text-anchor="middle" x="9512" y="-204.3" font-family="Times,serif" font-size="14.00">1_fwatchdog#ServerID_b81a51f66a3b</text>
</g>
<!-- 10.1.80.247:36046#ServerID_OuterContainerID&#45;&gt;1_fwatchdog#ServerID_b81a51f66a3b -->
<g id="edge33" class="edge"><title>10.1.80.247:36046#ServerID_OuterContainerID&#45;&gt;1_fwatchdog#ServerID_b81a51f66a3b</title>
<path fill="none" stroke="black" d="M5848.32,-306.304C6073.13,-294.192 6502.35,-272.846 6868,-265 6936.98,-263.52 9283.75,-267.13 9352,-257 9388.11,-251.641 9427.39,-239.947 9458,-229.443"/>
<polygon fill="black" stroke="black" points="9459.33,-232.686 9467.61,-226.084 9457.02,-226.078 9459.33,-232.686"/>
<text text-anchor="middle" x="6884.5" y="-268.8" font-family="Times,serif" font-size="14.00">read</text>
</g>
<!-- gateway:8080#ServerID_OuterContainerID&#45;&gt;1_fwatchdog#ServerID_6dcbcc88d5&#45;mmq29 -->
<g id="edge6" class="edge"><title>gateway:8080#ServerID_OuterContainerID&#45;&gt;1_fwatchdog#ServerID_6dcbcc88d5&#45;mmq29</title>
<path fill="none" stroke="black" d="M3664.67,-332.571C3645.06,-346.29 3623.51,-367.266 3635,-388 3637.38,-392.287 3640.52,-396.118 3644.11,-399.526"/>
<polygon fill="black" stroke="black" points="3642.03,-402.347 3652,-405.938 3646.45,-396.915 3642.03,-402.347"/>
<text text-anchor="middle" x="3677" y="-376.8" font-family="Times,serif" font-size="14.00">RESPONSE</text>
</g>
<!-- 10.1.80.247:40942#ServerID_OuterContainerID -->
<g id="node7" class="node"><title>10.1.80.247:40942#ServerID_OuterContainerID</title>
<polygon fill="none" stroke="black" points="7693,-334 7357.52,-316 7693,-298 8028.48,-316 7693,-334"/>
<text text-anchor="middle" x="7693" y="-312.3" font-family="Times,serif" font-size="14.00">10.1.80.247:40942#ServerID_OuterContainerID</text>
</g>
<!-- 1_fwatchdog#ServerID_76c96688d7&#45;5sj98 -->
<g id="node8" class="node"><title>1_fwatchdog#ServerID_76c96688d7&#45;5sj98</title>
<polygon fill="none" stroke="black" points="7856.5,-442 7531.5,-442 7531.5,-406 7856.5,-406 7856.5,-442"/>
<text text-anchor="middle" x="7694" y="-420.3" font-family="Times,serif" font-size="14.00">1_fwatchdog#ServerID_76c96688d7&#45;5sj98</text>
</g>
<!-- 10.1.80.247:40942#ServerID_OuterContainerID&#45;&gt;1_fwatchdog#ServerID_76c96688d7&#45;5sj98 -->
<g id="edge8" class="edge"><title>10.1.80.247:40942#ServerID_OuterContainerID&#45;&gt;1_fwatchdog#ServerID_76c96688d7&#45;5sj98</title>
<path fill="none" stroke="black" d="M7678.38,-333.499C7667.56,-347.799 7655.84,-369.106 7663,-388 7664.28,-391.366 7666.04,-394.615 7668.09,-397.689"/>
<polygon fill="black" stroke="black" points="7665.52,-400.087 7674.42,-405.831 7671.04,-395.789 7665.52,-400.087"/>
<text text-anchor="middle" x="7683" y="-376.8" font-family="Times,serif" font-size="14.00">POST</text>
</g>
<!-- 1_fwatchdog#ServerID_76c96688d7&#45;5sj98&#45;&gt;10.1.80.247:40942#ServerID_OuterContainerID -->
<g id="edge9" class="edge"><title>1_fwatchdog#ServerID_76c96688d7&#45;5sj98&#45;&gt;10.1.80.247:40942#ServerID_OuterContainerID</title>
<path fill="none" stroke="black" d="M7699.36,-405.72C7700.85,-400.124 7702.26,-393.851 7703,-388 7704.85,-373.383 7702.85,-357.105 7700.17,-343.827"/>
<polygon fill="black" stroke="black" points="7703.55,-342.894 7697.93,-333.91 7696.72,-344.435 7703.55,-342.894"/>
<text text-anchor="middle" x="7746" y="-376.8" font-family="Times,serif" font-size="14.00">RESPONSE</text>
</g>
<!-- localhost:3000#ServerID_b10d4e8ff34a -->
<g id="node10" class="node"><title>localhost:3000#ServerID_b10d4e8ff34a</title>
<polygon fill="none" stroke="black" points="1082,-334 801.814,-316 1082,-298 1362.19,-316 1082,-334"/>
<text text-anchor="middle" x="1082" y="-312.3" font-family="Times,serif" font-size="14.00">localhost:3000#ServerID_b10d4e8ff34a</text>
</g>
<!-- 1_fwatchdog#ServerID_b10d4e8ff34a&#45;&gt;localhost:3000#ServerID_b10d4e8ff34a -->
<g id="edge11" class="edge"><title>1_fwatchdog#ServerID_b10d4e8ff34a&#45;&gt;localhost:3000#ServerID_b10d4e8ff34a</title>
<path fill="none" stroke="black" d="M1211.05,-405.583C1206.78,-395.118 1200.15,-382.11 1191,-373 1174.79,-356.871 1152.98,-344.414 1133.13,-335.39"/>
<polygon fill="black" stroke="black" points="1134.44,-332.143 1123.87,-331.359 1131.64,-338.561 1134.44,-332.143"/>
<text text-anchor="middle" x="1232" y="-376.8" font-family="Times,serif" font-size="14.00">connect</text>
</g>
<!-- 1_fwatchdog#ServerID_b10d4e8ff34a&#45;&gt;localhost:3000#ServerID_b10d4e8ff34a -->
<g id="edge13" class="edge"><title>1_fwatchdog#ServerID_b10d4e8ff34a&#45;&gt;localhost:3000#ServerID_b10d4e8ff34a</title>
<path fill="none" stroke="black" d="M1118.85,-405.993C1109.93,-401.323 1101.73,-395.429 1095,-388 1084.37,-376.269 1081.06,-358.825 1080.44,-344.164"/>
<polygon fill="black" stroke="black" points="1083.94,-344.086 1080.4,-334.101 1076.94,-344.116 1083.94,-344.086"/>
<text text-anchor="middle" x="1114" y="-376.8" font-family="Times,serif" font-size="14.00">write</text>
</g>
<!-- 10.1.80.1:39482#ServerID_OuterContainerID -->
<g id="node21" class="node"><title>10.1.80.1:39482#ServerID_OuterContainerID</title>
<polygon fill="none" stroke="black" points="2361,-334 2042.1,-316 2361,-298 2679.9,-316 2361,-334"/>
<text text-anchor="middle" x="2361" y="-312.3" font-family="Times,serif" font-size="14.00">10.1.80.1:39482#ServerID_OuterContainerID</text>
</g>
<!-- 1_fwatchdog#ServerID_b10d4e8ff34a&#45;&gt;10.1.80.1:39482#ServerID_OuterContainerID -->
<g id="edge30" class="edge"><title>1_fwatchdog#ServerID_b10d4e8ff34a&#45;&gt;10.1.80.1:39482#ServerID_OuterContainerID</title>
<path fill="none" stroke="black" d="M1362.72,-422.364C1517,-420.282 1767.39,-412.888 1982,-388 2091.3,-375.324 2216.49,-349.656 2292.1,-332.905"/>
<polygon fill="black" stroke="black" points="2292.98,-336.295 2301.98,-330.705 2291.46,-329.462 2292.98,-336.295"/>
<text text-anchor="middle" x="2106" y="-376.8" font-family="Times,serif" font-size="14.00">write</text>
</g>
<!-- 10.1.80.1:39480#ServerID_OuterContainerID -->
<g id="node22" class="node"><title>10.1.80.1:39480#ServerID_OuterContainerID</title>
<polygon fill="none" stroke="black" points="1705,-334 1386.1,-316 1705,-298 2023.9,-316 1705,-334"/>
<text text-anchor="middle" x="1705" y="-312.3" font-family="Times,serif" font-size="14.00">10.1.80.1:39480#ServerID_OuterContainerID</text>
</g>
<!-- 1_fwatchdog#ServerID_b10d4e8ff34a&#45;&gt;10.1.80.1:39480#ServerID_OuterContainerID -->
<g id="edge29" class="edge"><title>1_fwatchdog#ServerID_b10d4e8ff34a&#45;&gt;10.1.80.1:39480#ServerID_OuterContainerID</title>
<path fill="none" stroke="black" d="M1295.41,-405.969C1388.5,-385.747 1542.5,-352.296 1632.79,-332.684"/>
<polygon fill="black" stroke="black" points="1633.64,-336.081 1642.67,-330.538 1632.16,-329.241 1633.64,-336.081"/>
<text text-anchor="middle" x="1466" y="-376.8" font-family="Times,serif" font-size="14.00">write</text>
</g>
<!-- localhost:3000#ServerID_b10d4e8ff34a&#45;&gt;1_fwatchdog#ServerID_b10d4e8ff34a -->
<g id="edge12" class="edge"><title>localhost:3000#ServerID_b10d4e8ff34a&#45;&gt;1_fwatchdog#ServerID_b10d4e8ff34a</title>
<path fill="none" stroke="black" d="M1096.08,-333.23C1109.86,-348.518 1131.94,-371.479 1154,-388 1159.99,-392.486 1166.62,-396.786 1173.26,-400.743"/>
<polygon fill="black" stroke="black" points="1171.86,-403.971 1182.27,-405.91 1175.34,-397.899 1171.86,-403.971"/>
<text text-anchor="middle" x="1170.5" y="-376.8" font-family="Times,serif" font-size="14.00">read</text>
</g>
<!-- 11_node#ServerID_b10d4e8ff34a -->
<g id="node11" class="node"><title>11_node#ServerID_b10d4e8ff34a</title>
<polygon fill="none" stroke="black" points="1324,-226 1064,-226 1064,-190 1324,-190 1324,-226"/>
<text text-anchor="middle" x="1194" y="-204.3" font-family="Times,serif" font-size="14.00">11_node#ServerID_b10d4e8ff34a</text>
</g>
<!-- localhost:3000#ServerID_b10d4e8ff34a&#45;&gt;11_node#ServerID_b10d4e8ff34a -->
<g id="edge15" class="edge"><title>localhost:3000#ServerID_b10d4e8ff34a&#45;&gt;11_node#ServerID_b10d4e8ff34a</title>
<path fill="none" stroke="black" d="M1099.01,-298.901C1117.43,-281.466 1147.03,-253.455 1168.29,-233.332"/>
<polygon fill="black" stroke="black" points="1170.85,-235.725 1175.71,-226.309 1166.04,-230.641 1170.85,-235.725"/>
<text text-anchor="middle" x="1151.5" y="-268.8" font-family="Times,serif" font-size="14.00">read</text>
</g>
<!-- 11_node#ServerID_b10d4e8ff34a&#45;&gt;gateway:8080#ServerID_OuterContainerID -->
<g id="edge32" class="edge"><title>11_node#ServerID_b10d4e8ff34a&#45;&gt;gateway:8080#ServerID_OuterContainerID</title>
<path fill="none" stroke="black" d="M1244.92,-226.088C1280.6,-237.191 1329.65,-250.726 1374,-257 1814.82,-319.361 2932.1,-281.408 3377,-298 3429.94,-299.974 3487.85,-302.894 3539.37,-305.759"/>
<polygon fill="black" stroke="black" points="3539.41,-309.267 3549.59,-306.331 3539.8,-302.278 3539.41,-309.267"/>
<text text-anchor="middle" x="1662" y="-268.8" font-family="Times,serif" font-size="14.00">connect</text>
</g>
<!-- 10.152.183.10:53#ServerID_OuterContainerID -->
<g id="node16" class="node"><title>10.152.183.10:53#ServerID_OuterContainerID</title>
<polygon fill="none" stroke="black" points="4340,-334 4012.56,-316 4340,-298 4667.44,-316 4340,-334"/>
<text text-anchor="middle" x="4340" y="-312.3" font-family="Times,serif" font-size="14.00">10.152.183.10:53#ServerID_OuterContainerID</text>
</g>
<!-- 11_node#ServerID_b10d4e8ff34a&#45;&gt;10.152.183.10:53#ServerID_OuterContainerID -->
<g id="edge21" class="edge"><title>11_node#ServerID_b10d4e8ff34a&#45;&gt;10.152.183.10:53#ServerID_OuterContainerID</title>
<path fill="none" stroke="black" d="M1244.52,-226.036C1280.23,-237.192 1329.47,-250.812 1374,-257 1410.18,-262.029 3967.49,-296.792 4004,-298 4061.15,-299.891 4123.74,-302.822 4179.24,-305.721"/>
<polygon fill="black" stroke="black" points="4179.34,-309.231 4189.51,-306.262 4179.71,-302.241 4179.34,-309.231"/>
<text text-anchor="middle" x="2713.5" y="-268.8" font-family="Times,serif" font-size="14.00">sendto</text>
</g>
<!-- 10.1.80.1:33326#ServerID_OuterContainerID -->
<g id="node12" class="node"><title>10.1.80.1:33326#ServerID_OuterContainerID</title>
<polygon fill="none" stroke="black" points="8365,-334 8046.1,-316 8365,-298 8683.9,-316 8365,-334"/>
<text text-anchor="middle" x="8365" y="-312.3" font-family="Times,serif" font-size="14.00">10.1.80.1:33326#ServerID_OuterContainerID</text>
</g>
<!-- 1_fwatchdog#ServerID_4451aee8bc70 -->
<g id="node13" class="node"><title>1_fwatchdog#ServerID_4451aee8bc70</title>
<polygon fill="none" stroke="black" points="8928.5,-442 8631.5,-442 8631.5,-406 8928.5,-406 8928.5,-442"/>
<text text-anchor="middle" x="8780" y="-420.3" font-family="Times,serif" font-size="14.00">1_fwatchdog#ServerID_4451aee8bc70</text>
</g>
<!-- 10.1.80.1:33326#ServerID_OuterContainerID&#45;&gt;1_fwatchdog#ServerID_4451aee8bc70 -->
<g id="edge16" class="edge"><title>10.1.80.1:33326#ServerID_OuterContainerID&#45;&gt;1_fwatchdog#ServerID_4451aee8bc70</title>
<path fill="none" stroke="black" d="M8417.18,-331.058C8471.51,-345.614 8559.1,-368.862 8635,-388 8655.39,-393.142 8677.44,-398.544 8698.04,-403.523"/>
<polygon fill="black" stroke="black" points="8697.48,-406.988 8708.02,-405.93 8699.12,-400.183 8697.48,-406.988"/>
<text text-anchor="middle" x="8651.5" y="-376.8" font-family="Times,serif" font-size="14.00">read</text>
</g>
<!-- 1_fwatchdog#ServerID_4451aee8bc70&#45;&gt;10.1.80.1:33326#ServerID_OuterContainerID -->
<g id="edge19" class="edge"><title>1_fwatchdog#ServerID_4451aee8bc70&#45;&gt;10.1.80.1:33326#ServerID_OuterContainerID</title>
<path fill="none" stroke="black" d="M8746.99,-405.767C8725.1,-394.97 8695.45,-381.532 8668,-373 8603.65,-353.002 8529.27,-339.126 8470.31,-330.189"/>
<polygon fill="black" stroke="black" points="8470.64,-326.7 8460.23,-328.687 8469.61,-333.623 8470.64,-326.7"/>
<text text-anchor="middle" x="8725" y="-376.8" font-family="Times,serif" font-size="14.00">write</text>
</g>
<!-- 10.1.80.1:33328#ServerID_OuterContainerID -->
<g id="node14" class="node"><title>10.1.80.1:33328#ServerID_OuterContainerID</title>
<polygon fill="none" stroke="black" points="9021,-334 8702.1,-316 9021,-298 9339.9,-316 9021,-334"/>
<text text-anchor="middle" x="9021" y="-312.3" font-family="Times,serif" font-size="14.00">10.1.80.1:33328#ServerID_OuterContainerID</text>
</g>
<!-- 1_fwatchdog#ServerID_4451aee8bc70&#45;&gt;10.1.80.1:33328#ServerID_OuterContainerID -->
<g id="edge18" class="edge"><title>1_fwatchdog#ServerID_4451aee8bc70&#45;&gt;10.1.80.1:33328#ServerID_OuterContainerID</title>
<path fill="none" stroke="black" d="M8808.2,-405.878C8825.66,-395.648 8848.73,-382.785 8870,-373 8901.38,-358.566 8937.64,-345.022 8966.76,-334.871"/>
<polygon fill="black" stroke="black" points="8968.03,-338.133 8976.34,-331.561 8965.75,-331.517 8968.03,-338.133"/>
<text text-anchor="middle" x="8889" y="-376.8" font-family="Times,serif" font-size="14.00">write</text>
</g>
<!-- 10.1.80.1:33328#ServerID_OuterContainerID&#45;&gt;1_fwatchdog#ServerID_4451aee8bc70 -->
<g id="edge17" class="edge"><title>10.1.80.1:33328#ServerID_OuterContainerID&#45;&gt;1_fwatchdog#ServerID_4451aee8bc70</title>
<path fill="none" stroke="black" d="M9000.84,-332.974C8979.77,-348.957 8945.23,-373.231 8912,-388 8898.89,-393.829 8884.59,-398.858 8870.41,-403.14"/>
<polygon fill="black" stroke="black" points="8869.25,-399.832 8860.63,-405.986 8871.21,-406.554 8869.25,-399.832"/>
<text text-anchor="middle" x="8957.5" y="-376.8" font-family="Times,serif" font-size="14.00">read</text>
</g>
<!-- /etc/hosts#ServerID_b10d4e8ff34a -->
<g id="node15" class="node"><title>/etc/hosts#ServerID_b10d4e8ff34a</title>
<ellipse fill="none" stroke="black" cx="609" cy="-316" rx="174.669" ry="18"/>
<text text-anchor="middle" x="609" y="-312.3" font-family="Times,serif" font-size="14.00">/etc/hosts#ServerID_b10d4e8ff34a</text>
</g>
<!-- /etc/hosts#ServerID_b10d4e8ff34a&#45;&gt;11_node#ServerID_b10d4e8ff34a -->
<g id="edge20" class="edge"><title>/etc/hosts#ServerID_b10d4e8ff34a&#45;&gt;11_node#ServerID_b10d4e8ff34a</title>
<path fill="none" stroke="black" d="M691.266,-300.094C795.742,-281.163 976.094,-248.484 1090,-227.844"/>
<polygon fill="black" stroke="black" points="1090.91,-231.236 1100.13,-226.009 1089.67,-224.348 1090.91,-231.236"/>
<text text-anchor="middle" x="900.5" y="-268.8" font-family="Times,serif" font-size="14.00">read</text>
</g>
<!-- 10.152.183.10:53#ServerID_OuterContainerID&#45;&gt;11_node#ServerID_b10d4e8ff34a -->
<g id="edge31" class="edge"><title>10.152.183.10:53#ServerID_OuterContainerID&#45;&gt;11_node#ServerID_b10d4e8ff34a</title>
<path fill="none" stroke="black" d="M4186.15,-306.425C4128.97,-303.447 4063.53,-300.284 4004,-298 3443.33,-276.489 3303.01,-273.974 2742,-265 2666.01,-263.784 1449.33,-267.095 1374,-257 1333.3,-251.545 1288.7,-239.694 1254.07,-229.133"/>
<polygon fill="black" stroke="black" points="1254.71,-225.667 1244.12,-226.051 1252.64,-232.354 1254.71,-225.667"/>
<text text-anchor="middle" x="3513" y="-268.8" font-family="Times,serif" font-size="14.00">recvfrom</text>
</g>
<!-- /etc/resolv.conf#ServerID_b10d4e8ff34a -->
<g id="node17" class="node"><title>/etc/resolv.conf#ServerID_b10d4e8ff34a</title>
<ellipse fill="none" stroke="black" cx="216" cy="-316" rx="200.365" ry="18"/>
<text text-anchor="middle" x="216" y="-312.3" font-family="Times,serif" font-size="14.00">/etc/resolv.conf#ServerID_b10d4e8ff34a</text>
</g>
<!-- /etc/resolv.conf#ServerID_b10d4e8ff34a&#45;&gt;11_node#ServerID_b10d4e8ff34a -->
<g id="edge22" class="edge"><title>/etc/resolv.conf#ServerID_b10d4e8ff34a&#45;&gt;11_node#ServerID_b10d4e8ff34a</title>
<path fill="none" stroke="black" d="M338.38,-301.736C520.407,-282.007 861.584,-245.029 1053.54,-224.223"/>
<polygon fill="black" stroke="black" points="1054.14,-227.679 1063.7,-223.122 1053.38,-220.72 1054.14,-227.679"/>
<text text-anchor="middle" x="692.5" y="-268.8" font-family="Times,serif" font-size="14.00">read</text>
</g>
<!-- 10.1.80.1:56588#ServerID_OuterContainerID -->
<g id="node18" class="node"><title>10.1.80.1:56588#ServerID_OuterContainerID</title>
<polygon fill="none" stroke="black" points="6365,-334 6046.1,-316 6365,-298 6683.9,-316 6365,-334"/>
<text text-anchor="middle" x="6365" y="-312.3" font-family="Times,serif" font-size="14.00">10.1.80.1:56588#ServerID_OuterContainerID</text>
</g>
<!-- 10.1.80.1:56588#ServerID_OuterContainerID&#45;&gt;1_fwatchdog#ServerID_b81a51f66a3b -->
<g id="edge23" class="edge"><title>10.1.80.1:56588#ServerID_OuterContainerID&#45;&gt;1_fwatchdog#ServerID_b81a51f66a3b</title>
<path fill="none" stroke="black" d="M6495.81,-305.377C6667.28,-293.261 6977.46,-273.059 7243,-265 7301.56,-263.223 9294.05,-265.617 9352,-257 9388.11,-251.63 9427.39,-239.936 9458,-229.435"/>
<polygon fill="black" stroke="black" points="9459.33,-232.678 9467.61,-226.077 9457.02,-226.069 9459.33,-232.678"/>
<text text-anchor="middle" x="7259.5" y="-268.8" font-family="Times,serif" font-size="14.00">read</text>
</g>
<!-- 1_fwatchdog#ServerID_b81a51f66a3b&#45;&gt;10.1.80.1:56588#ServerID_OuterContainerID -->
<g id="edge28" class="edge"><title>1_fwatchdog#ServerID_b81a51f66a3b&#45;&gt;10.1.80.1:56588#ServerID_OuterContainerID</title>
<path fill="none" stroke="black" d="M9467.61,-226.034C9435.92,-237.268 9392.01,-250.98 9352,-257 9291.46,-266.11 8311.22,-264.129 8250,-265 7903.96,-269.923 7038.85,-285.375 6693,-298 6637.73,-300.018 6577.25,-302.947 6523.45,-305.807"/>
<polygon fill="black" stroke="black" points="6522.93,-302.33 6513.13,-306.359 6523.31,-309.32 6522.93,-302.33"/>
<text text-anchor="middle" x="8269" y="-268.8" font-family="Times,serif" font-size="14.00">write</text>
</g>
<!-- 10.1.80.1:56586#ServerID_OuterContainerID -->
<g id="node20" class="node"><title>10.1.80.1:56586#ServerID_OuterContainerID</title>
<polygon fill="none" stroke="black" points="7021,-334 6702.1,-316 7021,-298 7339.9,-316 7021,-334"/>
<text text-anchor="middle" x="7021" y="-312.3" font-family="Times,serif" font-size="14.00">10.1.80.1:56586#ServerID_OuterContainerID</text>
</g>
<!-- 1_fwatchdog#ServerID_b81a51f66a3b&#45;&gt;10.1.80.1:56586#ServerID_OuterContainerID -->
<g id="edge27" class="edge"><title>1_fwatchdog#ServerID_b81a51f66a3b&#45;&gt;10.1.80.1:56586#ServerID_OuterContainerID</title>
<path fill="none" stroke="black" d="M9466.9,-226.11C9435.26,-237.223 9391.68,-250.761 9352,-257 9324.51,-261.322 7376.81,-296.995 7349,-298 7293.73,-299.998 7233.25,-302.922 7179.45,-305.784"/>
<polygon fill="black" stroke="black" points="7178.93,-302.307 7169.13,-306.336 7179.31,-309.297 7178.93,-302.307"/>
<text text-anchor="middle" x="9028" y="-268.8" font-family="Times,serif" font-size="14.00">write</text>
</g>
<!-- localhost:3000#ServerID_b81a51f66a3b -->
<g id="node23" class="node"><title>localhost:3000#ServerID_b81a51f66a3b</title>
<polygon fill="none" stroke="black" points="9647,-139 9363.8,-121 9647,-103 9930.2,-121 9647,-139"/>
<text text-anchor="middle" x="9647" y="-117.3" font-family="Times,serif" font-size="14.00">localhost:3000#ServerID_b81a51f66a3b</text>
</g>
<!-- 1_fwatchdog#ServerID_b81a51f66a3b&#45;&gt;localhost:3000#ServerID_b81a51f66a3b -->
<g id="edge35" class="edge"><title>1_fwatchdog#ServerID_b81a51f66a3b&#45;&gt;localhost:3000#ServerID_b81a51f66a3b</title>
<path fill="none" stroke="black" d="M9528.51,-189.736C9539.11,-179.329 9553.54,-166.327 9568,-157 9577.36,-150.961 9587.94,-145.48 9598.24,-140.741"/>
<polygon fill="black" stroke="black" points="9599.86,-143.854 9607.58,-136.604 9597.02,-137.454 9599.86,-143.854"/>
<text text-anchor="middle" x="9597" y="-160.8" font-family="Times,serif" font-size="14.00">connect</text>
</g>
<!-- 1_fwatchdog#ServerID_b81a51f66a3b&#45;&gt;localhost:3000#ServerID_b81a51f66a3b -->
<g id="edge37" class="edge"><title>1_fwatchdog#ServerID_b81a51f66a3b&#45;&gt;localhost:3000#ServerID_b81a51f66a3b</title>
<path fill="none" stroke="black" d="M9597.73,-189.898C9608.03,-185.286 9617.79,-179.432 9626,-172 9632.82,-165.825 9637.5,-157.076 9640.67,-148.618"/>
<polygon fill="black" stroke="black" points="9644.03,-149.587 9643.74,-138.996 9637.37,-147.458 9644.03,-149.587"/>
<text text-anchor="middle" x="9655" y="-160.8" font-family="Times,serif" font-size="14.00">write</text>
</g>
<!-- pipe:[320783879]#ServerID_b81a51f66a3b -->
<g id="node25" class="node"><title>pipe:[320783879]#ServerID_b81a51f66a3b</title>
<ellipse fill="none" stroke="black" cx="10163" cy="-121" rx="214.462" ry="18"/>
<text text-anchor="middle" x="10163" y="-117.3" font-family="Times,serif" font-size="14.00">pipe:[320783879]#ServerID_b81a51f66a3b</text>
</g>
<!-- 1_fwatchdog#ServerID_b81a51f66a3b&#45;&gt;pipe:[320783879]#ServerID_b81a51f66a3b -->
<g id="edge38" class="edge"><title>1_fwatchdog#ServerID_b81a51f66a3b&#45;&gt;pipe:[320783879]#ServerID_b81a51f66a3b</title>
<path fill="none" stroke="black" d="M9642.57,-189.952C9759.21,-174.722 9928.74,-152.587 10042.3,-137.762"/>
<polygon fill="black" stroke="black" points="10042.9,-141.206 10052.4,-136.44 10042,-134.264 10042.9,-141.206"/>
<text text-anchor="middle" x="9895" y="-160.8" font-family="Times,serif" font-size="14.00">write</text>
</g>
<!-- 10.1.80.1:56586#ServerID_OuterContainerID&#45;&gt;1_fwatchdog#ServerID_b81a51f66a3b -->
<g id="edge24" class="edge"><title>10.1.80.1:56586#ServerID_OuterContainerID&#45;&gt;1_fwatchdog#ServerID_b81a51f66a3b</title>
<path fill="none" stroke="black" d="M7169.13,-306.336C7225.43,-303.303 7290.16,-300.126 7349,-298 7793.91,-281.921 8912.2,-326.154 9352,-257 9387.8,-251.37 9426.78,-239.798 9457.3,-229.426"/>
<polygon fill="black" stroke="black" points="9458.59,-232.684 9466.9,-226.11 9456.3,-226.068 9458.59,-232.684"/>
<text text-anchor="middle" x="9282.5" y="-268.8" font-family="Times,serif" font-size="14.00">read</text>
</g>
<!-- 10.1.80.1:39482#ServerID_OuterContainerID&#45;&gt;1_fwatchdog#ServerID_b10d4e8ff34a -->
<g id="edge25" class="edge"><title>10.1.80.1:39482#ServerID_OuterContainerID&#45;&gt;1_fwatchdog#ServerID_b10d4e8ff34a</title>
<path fill="none" stroke="black" d="M2284.99,-329.761C2218.64,-340.507 2119.68,-355.59 2033,-365 1803.94,-389.866 1537.5,-406.508 1373.05,-415.364"/>
<polygon fill="black" stroke="black" points="1372.65,-411.88 1362.85,-415.91 1373.03,-418.87 1372.65,-411.88"/>
<text text-anchor="middle" x="1961.5" y="-376.8" font-family="Times,serif" font-size="14.00">read</text>
</g>
<!-- 10.1.80.1:39480#ServerID_OuterContainerID&#45;&gt;1_fwatchdog#ServerID_b10d4e8ff34a -->
<g id="edge26" class="edge"><title>10.1.80.1:39480#ServerID_OuterContainerID&#45;&gt;1_fwatchdog#ServerID_b10d4e8ff34a</title>
<path fill="none" stroke="black" d="M1671.24,-332.181C1633.29,-348.586 1569.46,-374.225 1512,-388 1467.35,-398.703 1418.09,-406.195 1372.81,-411.414"/>
<polygon fill="black" stroke="black" points="1372.16,-407.966 1362.61,-412.56 1372.94,-414.922 1372.16,-407.966"/>
<text text-anchor="middle" x="1577.5" y="-376.8" font-family="Times,serif" font-size="14.00">read</text>
</g>
<!-- localhost:3000#ServerID_b81a51f66a3b&#45;&gt;1_fwatchdog#ServerID_b81a51f66a3b -->
<g id="edge36" class="edge"><title>localhost:3000#ServerID_b81a51f66a3b&#45;&gt;1_fwatchdog#ServerID_b81a51f66a3b</title>
<path fill="none" stroke="black" d="M9568.15,-133.994C9542.98,-139.546 9519.63,-147.138 9512,-157 9507.12,-163.301 9505.74,-171.511 9505.98,-179.451"/>
<polygon fill="black" stroke="black" points="9502.52,-179.98 9507.06,-189.55 9509.48,-179.234 9502.52,-179.98"/>
<text text-anchor="middle" x="9528.5" y="-160.8" font-family="Times,serif" font-size="14.00">read</text>
</g>
<!-- 12_node#ServerID_b81a51f66a3b -->
<g id="node24" class="node"><title>12_node#ServerID_b81a51f66a3b</title>
<polygon fill="none" stroke="black" points="9778.5,-52 9515.5,-52 9515.5,-16 9778.5,-16 9778.5,-52"/>
<text text-anchor="middle" x="9647" y="-30.3" font-family="Times,serif" font-size="14.00">12_node#ServerID_b81a51f66a3b</text>
</g>
<!-- localhost:3000#ServerID_b81a51f66a3b&#45;&gt;12_node#ServerID_b81a51f66a3b -->
<g id="edge34" class="edge"><title>localhost:3000#ServerID_b81a51f66a3b&#45;&gt;12_node#ServerID_b81a51f66a3b</title>
<path fill="none" stroke="black" d="M9647,-102.799C9647,-91.1626 9647,-75.5479 9647,-62.2368"/>
<polygon fill="black" stroke="black" points="9650.5,-62.1754 9647,-52.1754 9643.5,-62.1755 9650.5,-62.1754"/>
<text text-anchor="middle" x="9663.5" y="-73.8" font-family="Times,serif" font-size="14.00">read</text>
</g>
<!-- 10.1.80.1:15763#ServerID_OuterContainerID&#45;&gt;10.1.80.247:8080#ServerID_OuterContainerID -->
<g id="edge39" class="edge"><title>10.1.80.1:15763#ServerID_OuterContainerID&#45;&gt;10.1.80.247:8080#ServerID_OuterContainerID</title>
<path fill="none" stroke="black" d="M5049.46,-224.562C5035.97,-234.329 5020.65,-248.242 5013,-265 5009.78,-272.06 5008.68,-280.284 5008.63,-288"/>
<polygon fill="black" stroke="black" points="5005.13,-288.218 5009.08,-298.048 5012.12,-287.899 5005.13,-288.218"/>
<text text-anchor="middle" x="5033" y="-268.8" font-family="Times,serif" font-size="14.00">POST</text>
</g>
</g>
</svg>
