<?xml version="1.0" encoding="UTF-8" standalone="no"?>
<!DOCTYPE svg PUBLIC "-//W3C//DTD SVG 1.1//EN"
 "http://www.w3.org/Graphics/SVG/1.1/DTD/svg11.dtd">
<!-- Generated by graphviz version 2.38.0 (20140413.2041)
 -->
<!-- Title: G Pages: 1 -->
<svg width="4941pt" height="684pt"
 viewBox="0.00 0.00 4941.00 684.00" xmlns="http://www.w3.org/2000/svg" xmlns:xlink="http://www.w3.org/1999/xlink">
<g id="graph0" class="graph" transform="scale(1 1) rotate(0) translate(4 680)">
<title>G</title>
<polygon fill="white" stroke="none" points="-4,4 -4,-680 4937,-680 4937,4 -4,4"/>
<g id="clust1" class="cluster"><title>clusterServerID_3113a7a2a86a</title>
<polygon fill="none" stroke="black" points="1252,-398 1252,-668 2642,-668 2642,-398 1252,-398"/>
<text text-anchor="middle" x="1947" y="-652.8" font-family="Times,serif" font-size="14.00">clusterServerID_3113a7a2a86a</text>
</g>
<g id="clust2" class="cluster"><title>clusterServerID_5f846fd567&#45;srhtc</title>
<polygon fill="none" stroke="black" points="2820,-398 2820,-473 3154,-473 3154,-398 2820,-398"/>
<text text-anchor="middle" x="2987" y="-457.8" font-family="Times,serif" font-size="14.00">clusterServerID_5f846fd567&#45;srhtc</text>
</g>
<g id="clust3" class="cluster"><title>clusterServerID_6df85d7674&#45;grtsk</title>
<polygon fill="none" stroke="black" points="799,-398 799,-473 1137,-473 1137,-398 799,-398"/>
<text text-anchor="middle" x="968" y="-457.8" font-family="Times,serif" font-size="14.00">clusterServerID_6df85d7674&#45;grtsk</text>
</g>
<g id="clust4" class="cluster"><title>clusterServerID_9c632c9c841a</title>
<polygon fill="none" stroke="black" points="3363,-8 3363,-257 4925,-257 4925,-8 3363,-8"/>
<text text-anchor="middle" x="4144" y="-241.8" font-family="Times,serif" font-size="14.00">clusterServerID_9c632c9c841a</text>
</g>
<g id="clust5" class="cluster"><title>clusterServerID_OuterContainerID</title>
<polygon fill="none" stroke="black" points="8,-182 8,-365 3355,-365 3355,-182 8,-182"/>
<text text-anchor="middle" x="1681.5" y="-349.8" font-family="Times,serif" font-size="14.00">clusterServerID_OuterContainerID</text>
</g>
<!-- gateway:8080#ServerID_OuterContainerID -->
<g id="node1" class="node"><title>gateway:8080#ServerID_OuterContainerID</title>
<polygon fill="none" stroke="black" points="320,-334 15.5177,-316 320,-298 624.482,-316 320,-334"/>
<text text-anchor="middle" x="320" y="-312.3" font-family="Times,serif" font-size="14.00">gateway:8080#ServerID_OuterContainerID</text>
</g>
<!-- 1_fwatchdog#ServerID_6df85d7674&#45;grtsk -->
<g id="node2" class="node"><title>1_fwatchdog#ServerID_6df85d7674&#45;grtsk</title>
<polygon fill="none" stroke="black" points="1128.5,-442 807.5,-442 807.5,-406 1128.5,-406 1128.5,-442"/>
<text text-anchor="middle" x="968" y="-420.3" font-family="Times,serif" font-size="14.00">1_fwatchdog#ServerID_6df85d7674&#45;grtsk</text>
</g>
<!-- gateway:8080#ServerID_OuterContainerID&#45;&gt;1_fwatchdog#ServerID_6df85d7674&#45;grtsk -->
<g id="edge1" class="edge"><title>gateway:8080#ServerID_OuterContainerID&#45;&gt;1_fwatchdog#ServerID_6df85d7674&#45;grtsk</title>
<path fill="none" stroke="black" d="M375.088,-330.766C439.988,-346.555 551.241,-372.28 648,-388 696.153,-395.823 748.673,-402.381 796.984,-407.626"/>
<polygon fill="black" stroke="black" points="796.909,-411.138 807.225,-408.725 797.656,-404.178 796.909,-411.138"/>
<text text-anchor="middle" x="690" y="-376.8" font-family="Times,serif" font-size="14.00">RESPONSE</text>
</g>
<!-- 1_fwatchdog#ServerID_6df85d7674&#45;grtsk&#45;&gt;gateway:8080#ServerID_OuterContainerID -->
<g id="edge6" class="edge"><title>1_fwatchdog#ServerID_6df85d7674&#45;grtsk&#45;&gt;gateway:8080#ServerID_OuterContainerID</title>
<path fill="none" stroke="black" d="M899.231,-405.996C852.375,-395.012 788.778,-381.274 732,-373 688.318,-366.634 676.845,-370.127 633,-365 554.736,-355.849 465.992,-341.898 403.037,-331.391"/>
<polygon fill="black" stroke="black" points="403.601,-327.937 393.16,-329.735 402.444,-334.84 403.601,-327.937"/>
<text text-anchor="middle" x="837" y="-376.8" font-family="Times,serif" font-size="14.00">POST</text>
</g>
<!-- 10.1.80.247:49858#ServerID_OuterContainerID -->
<g id="node3" class="node"><title>10.1.80.247:49858#ServerID_OuterContainerID</title>
<polygon fill="none" stroke="black" points="1650,-334 1314.52,-316 1650,-298 1985.48,-316 1650,-334"/>
<text text-anchor="middle" x="1650" y="-312.3" font-family="Times,serif" font-size="14.00">10.1.80.247:49858#ServerID_OuterContainerID</text>
</g>
<!-- 1_fwatchdog#ServerID_6df85d7674&#45;grtsk&#45;&gt;10.1.80.247:49858#ServerID_OuterContainerID -->
<g id="edge10" class="edge"><title>1_fwatchdog#ServerID_6df85d7674&#45;grtsk&#45;&gt;10.1.80.247:49858#ServerID_OuterContainerID</title>
<path fill="none" stroke="black" d="M1038.78,-405.953C1086.59,-395.022 1151.27,-381.362 1209,-373 1251.37,-366.862 1262.45,-369.73 1305,-365 1391.07,-355.433 1488.81,-341.549 1558.22,-331.172"/>
<polygon fill="black" stroke="black" points="1558.88,-334.612 1568.25,-329.667 1557.84,-327.689 1558.88,-334.612"/>
<text text-anchor="middle" x="1251" y="-376.8" font-family="Times,serif" font-size="14.00">RESPONSE</text>
</g>
<!-- 10.1.80.247:8080#ServerID_OuterContainerID -->
<g id="node6" class="node"><title>10.1.80.247:8080#ServerID_OuterContainerID</title>
<polygon fill="none" stroke="black" points="969,-334 641.56,-316 969,-298 1296.44,-316 969,-334"/>
<text text-anchor="middle" x="969" y="-312.3" font-family="Times,serif" font-size="14.00">10.1.80.247:8080#ServerID_OuterContainerID</text>
</g>
<!-- 1_fwatchdog#ServerID_6df85d7674&#45;grtsk&#45;&gt;10.1.80.247:8080#ServerID_OuterContainerID -->
<g id="edge5" class="edge"><title>1_fwatchdog#ServerID_6df85d7674&#45;grtsk&#45;&gt;10.1.80.247:8080#ServerID_OuterContainerID</title>
<path fill="none" stroke="black" d="M949.041,-405.736C944.557,-400.523 940.388,-394.455 938,-388 935.687,-381.747 936.333,-379.455 938,-373 940.752,-362.348 946.011,-351.56 951.427,-342.334"/>
<polygon fill="black" stroke="black" points="954.494,-344.03 956.809,-333.692 948.552,-340.33 954.494,-344.03"/>
<text text-anchor="middle" x="958" y="-376.8" font-family="Times,serif" font-size="14.00">POST</text>
</g>
<!-- 10.1.80.247:49858#ServerID_OuterContainerID&#45;&gt;1_fwatchdog#ServerID_6df85d7674&#45;grtsk -->
<g id="edge2" class="edge"><title>10.1.80.247:49858#ServerID_OuterContainerID&#45;&gt;1_fwatchdog#ServerID_6df85d7674&#45;grtsk</title>
<path fill="none" stroke="black" d="M1590.03,-330.826C1520.03,-346.55 1400.65,-372.098 1297,-388 1245.77,-395.86 1189.78,-402.528 1138.75,-407.867"/>
<polygon fill="black" stroke="black" points="1138.2,-404.405 1128.61,-408.917 1138.92,-411.368 1138.2,-404.405"/>
<text text-anchor="middle" x="1405" y="-376.8" font-family="Times,serif" font-size="14.00">POST</text>
</g>
<!-- 1_fwatchdog#ServerID_3113a7a2a86a -->
<g id="node7" class="node"><title>1_fwatchdog#ServerID_3113a7a2a86a</title>
<polygon fill="none" stroke="black" points="1762.5,-637 1465.5,-637 1465.5,-601 1762.5,-601 1762.5,-637"/>
<text text-anchor="middle" x="1614" y="-615.3" font-family="Times,serif" font-size="14.00">1_fwatchdog#ServerID_3113a7a2a86a</text>
</g>
<!-- 10.1.80.247:49858#ServerID_OuterContainerID&#45;&gt;1_fwatchdog#ServerID_3113a7a2a86a -->
<g id="edge12" class="edge"><title>10.1.80.247:49858#ServerID_OuterContainerID&#45;&gt;1_fwatchdog#ServerID_3113a7a2a86a</title>
<path fill="none" stroke="black" d="M1725.1,-329.999C1794.8,-341.455 1901.57,-357.461 1995,-365 2033.88,-368.138 2308.04,-363.992 2346,-373 3218.76,-580.129 2783.51,-399.897 2643,-550 2613.77,-581.228 2054.56,-603.732 1773.07,-613.13"/>
<polygon fill="black" stroke="black" points="1772.64,-609.643 1762.76,-613.473 1772.87,-616.639 1772.64,-609.643"/>
<text text-anchor="middle" x="2893.5" y="-484.8" font-family="Times,serif" font-size="14.00">read</text>
</g>
<!-- 1_fwatchdog#ServerID_5f846fd567&#45;srhtc -->
<g id="node4" class="node"><title>1_fwatchdog#ServerID_5f846fd567&#45;srhtc</title>
<polygon fill="none" stroke="black" points="3145.5,-442 2828.5,-442 2828.5,-406 3145.5,-406 3145.5,-442"/>
<text text-anchor="middle" x="2987" y="-420.3" font-family="Times,serif" font-size="14.00">1_fwatchdog#ServerID_5f846fd567&#45;srhtc</text>
</g>
<!-- 10.1.80.247:44388#ServerID_OuterContainerID -->
<g id="node5" class="node"><title>10.1.80.247:44388#ServerID_OuterContainerID</title>
<polygon fill="none" stroke="black" points="3012,-334 2676.52,-316 3012,-298 3347.48,-316 3012,-334"/>
<text text-anchor="middle" x="3012" y="-312.3" font-family="Times,serif" font-size="14.00">10.1.80.247:44388#ServerID_OuterContainerID</text>
</g>
<!-- 1_fwatchdog#ServerID_5f846fd567&#45;srhtc&#45;&gt;10.1.80.247:44388#ServerID_OuterContainerID -->
<g id="edge3" class="edge"><title>1_fwatchdog#ServerID_5f846fd567&#45;srhtc&#45;&gt;10.1.80.247:44388#ServerID_OuterContainerID</title>
<path fill="none" stroke="black" d="M2950.43,-405.984C2937.38,-397.347 2927.36,-385.943 2934,-373 2941.55,-358.278 2954.98,-346.554 2968.58,-337.716"/>
<polygon fill="black" stroke="black" points="2970.75,-340.496 2977.49,-332.322 2967.12,-334.508 2970.75,-340.496"/>
<text text-anchor="middle" x="2976" y="-376.8" font-family="Times,serif" font-size="14.00">RESPONSE</text>
</g>
<!-- 10.1.80.247:44388#ServerID_OuterContainerID&#45;&gt;1_fwatchdog#ServerID_5f846fd567&#45;srhtc -->
<g id="edge4" class="edge"><title>10.1.80.247:44388#ServerID_OuterContainerID&#45;&gt;1_fwatchdog#ServerID_5f846fd567&#45;srhtc</title>
<path fill="none" stroke="black" d="M3017.47,-333.928C3021.3,-348.685 3024.67,-370.419 3018,-388 3016.72,-391.366 3014.96,-394.615 3012.91,-397.689"/>
<polygon fill="black" stroke="black" points="3009.96,-395.789 3006.58,-405.831 3015.48,-400.087 3009.96,-395.789"/>
<text text-anchor="middle" x="3042" y="-376.8" font-family="Times,serif" font-size="14.00">POST</text>
</g>
<!-- 1_fwatchdog#ServerID_9c632c9c841a -->
<g id="node13" class="node"><title>1_fwatchdog#ServerID_9c632c9c841a</title>
<polygon fill="none" stroke="black" points="4329.5,-226 4032.5,-226 4032.5,-190 4329.5,-190 4329.5,-226"/>
<text text-anchor="middle" x="4181" y="-204.3" font-family="Times,serif" font-size="14.00">1_fwatchdog#ServerID_9c632c9c841a</text>
</g>
<!-- 10.1.80.247:44388#ServerID_OuterContainerID&#45;&gt;1_fwatchdog#ServerID_9c632c9c841a -->
<g id="edge22" class="edge"><title>10.1.80.247:44388#ServerID_OuterContainerID&#45;&gt;1_fwatchdog#ServerID_9c632c9c841a</title>
<path fill="none" stroke="black" d="M3129.98,-304.302C3341.3,-285.141 3784.45,-244.958 4022.21,-223.398"/>
<polygon fill="black" stroke="black" points="4022.69,-226.869 4032.33,-222.481 4022.06,-219.898 4022.69,-226.869"/>
<text text-anchor="middle" x="3578.5" y="-268.8" font-family="Times,serif" font-size="14.00">read</text>
</g>
<!-- 10.1.80.247:8080#ServerID_OuterContainerID&#45;&gt;1_fwatchdog#ServerID_6df85d7674&#45;grtsk -->
<g id="edge8" class="edge"><title>10.1.80.247:8080#ServerID_OuterContainerID&#45;&gt;1_fwatchdog#ServerID_6df85d7674&#45;grtsk</title>
<path fill="none" stroke="black" d="M973.681,-333.944C977.051,-348.339 980.585,-369.543 978,-388 977.64,-390.574 977.137,-393.224 976.547,-395.859"/>
<polygon fill="black" stroke="black" points="973.102,-395.198 973.955,-405.759 979.874,-396.971 973.102,-395.198"/>
<text text-anchor="middle" x="1021" y="-376.8" font-family="Times,serif" font-size="14.00">RESPONSE</text>
</g>
<!-- 10.1.80.1:27858#ServerID_OuterContainerID -->
<g id="node18" class="node"><title>10.1.80.1:27858#ServerID_OuterContainerID</title>
<polygon fill="none" stroke="black" points="1076,-226 757.105,-208 1076,-190 1394.9,-208 1076,-226"/>
<text text-anchor="middle" x="1076" y="-204.3" font-family="Times,serif" font-size="14.00">10.1.80.1:27858#ServerID_OuterContainerID</text>
</g>
<!-- 10.1.80.247:8080#ServerID_OuterContainerID&#45;&gt;10.1.80.1:27858#ServerID_OuterContainerID -->
<g id="edge27" class="edge"><title>10.1.80.247:8080#ServerID_OuterContainerID&#45;&gt;10.1.80.1:27858#ServerID_OuterContainerID</title>
<path fill="none" stroke="black" d="M963.348,-298.06C960.986,-287.774 960.001,-274.786 966,-265 976.635,-247.652 994.515,-235.468 1012.8,-227.005"/>
<polygon fill="black" stroke="black" points="1014.26,-230.187 1022.07,-223.027 1011.5,-223.754 1014.26,-230.187"/>
<text text-anchor="middle" x="1008" y="-268.8" font-family="Times,serif" font-size="14.00">RESPONSE</text>
</g>
<!-- 10.0.88.125:31112#ServerID_OuterContainerID -->
<g id="node19" class="node"><title>10.0.88.125:31112#ServerID_OuterContainerID</title>
<polygon fill="none" stroke="black" points="404,-226 68.5152,-208 404,-190 739.485,-208 404,-226"/>
<text text-anchor="middle" x="404" y="-204.3" font-family="Times,serif" font-size="14.00">10.0.88.125:31112#ServerID_OuterContainerID</text>
</g>
<!-- 10.1.80.247:8080#ServerID_OuterContainerID&#45;&gt;10.0.88.125:31112#ServerID_OuterContainerID -->
<g id="edge28" class="edge"><title>10.1.80.247:8080#ServerID_OuterContainerID&#45;&gt;10.0.88.125:31112#ServerID_OuterContainerID</title>
<path fill="none" stroke="black" d="M898.869,-301.843C793.692,-282.11 595.631,-244.952 484.63,-224.127"/>
<polygon fill="black" stroke="black" points="484.968,-220.629 474.494,-222.225 483.677,-227.509 484.968,-220.629"/>
<text text-anchor="middle" x="813" y="-268.8" font-family="Times,serif" font-size="14.00">RESPONSE</text>
</g>
<!-- localhost:3000#ServerID_3113a7a2a86a -->
<g id="node8" class="node"><title>localhost:3000#ServerID_3113a7a2a86a</title>
<polygon fill="none" stroke="black" points="1546,-550 1260.28,-532 1546,-514 1831.72,-532 1546,-550"/>
<text text-anchor="middle" x="1546" y="-528.3" font-family="Times,serif" font-size="14.00">localhost:3000#ServerID_3113a7a2a86a</text>
</g>
<!-- 1_fwatchdog#ServerID_3113a7a2a86a&#45;&gt;localhost:3000#ServerID_3113a7a2a86a -->
<g id="edge7" class="edge"><title>1_fwatchdog#ServerID_3113a7a2a86a&#45;&gt;localhost:3000#ServerID_3113a7a2a86a</title>
<path fill="none" stroke="black" d="M1592.59,-600.951C1586.52,-595.566 1580.16,-589.354 1575,-583 1568.93,-575.532 1563.34,-566.642 1558.72,-558.443"/>
<polygon fill="black" stroke="black" points="1561.77,-556.731 1553.94,-549.594 1555.61,-560.056 1561.77,-556.731"/>
<text text-anchor="middle" x="1604" y="-571.8" font-family="Times,serif" font-size="14.00">connect</text>
</g>
<!-- 1_fwatchdog#ServerID_3113a7a2a86a&#45;&gt;localhost:3000#ServerID_3113a7a2a86a -->
<g id="edge11" class="edge"><title>1_fwatchdog#ServerID_3113a7a2a86a&#45;&gt;localhost:3000#ServerID_3113a7a2a86a</title>
<path fill="none" stroke="black" d="M1628.19,-600.856C1634.75,-590.741 1639.76,-578.003 1633,-568 1628.45,-561.265 1622.37,-555.826 1615.52,-551.434"/>
<polygon fill="black" stroke="black" points="1616.94,-548.217 1606.5,-546.411 1613.53,-554.333 1616.94,-548.217"/>
<text text-anchor="middle" x="1656" y="-571.8" font-family="Times,serif" font-size="14.00">write</text>
</g>
<!-- localhost:3000#ServerID_3113a7a2a86a&#45;&gt;1_fwatchdog#ServerID_3113a7a2a86a -->
<g id="edge9" class="edge"><title>localhost:3000#ServerID_3113a7a2a86a&#45;&gt;1_fwatchdog#ServerID_3113a7a2a86a</title>
<path fill="none" stroke="black" d="M1532.93,-549.254C1526.36,-559.524 1521.1,-572.742 1528,-583 1531.02,-587.483 1534.72,-591.392 1538.87,-594.8"/>
<polygon fill="black" stroke="black" points="1537.16,-597.876 1547.35,-600.757 1541.18,-592.147 1537.16,-597.876"/>
<text text-anchor="middle" x="1544.5" y="-571.8" font-family="Times,serif" font-size="14.00">read</text>
</g>
<!-- 12_node#ServerID_3113a7a2a86a -->
<g id="node9" class="node"><title>12_node#ServerID_3113a7a2a86a</title>
<polygon fill="none" stroke="black" points="2218,-442 1952,-442 1952,-406 2218,-406 2218,-442"/>
<text text-anchor="middle" x="2085" y="-420.3" font-family="Times,serif" font-size="14.00">12_node#ServerID_3113a7a2a86a</text>
</g>
<!-- localhost:3000#ServerID_3113a7a2a86a&#45;&gt;12_node#ServerID_3113a7a2a86a -->
<g id="edge13" class="edge"><title>localhost:3000#ServerID_3113a7a2a86a&#45;&gt;12_node#ServerID_3113a7a2a86a</title>
<path fill="none" stroke="black" d="M1611.55,-518.108C1705.55,-499.623 1879.26,-465.46 1988.11,-444.054"/>
<polygon fill="black" stroke="black" points="1988.98,-447.451 1998.11,-442.087 1987.62,-440.583 1988.98,-447.451"/>
<text text-anchor="middle" x="1816.5" y="-484.8" font-family="Times,serif" font-size="14.00">read</text>
</g>
<!-- 12_node#ServerID_3113a7a2a86a&#45;&gt;gateway:8080#ServerID_OuterContainerID -->
<g id="edge23" class="edge"><title>12_node#ServerID_3113a7a2a86a&#45;&gt;gateway:8080#ServerID_OuterContainerID</title>
<path fill="none" stroke="black" d="M1951.97,-410.272C1819.55,-398.212 1610.44,-380.818 1429,-373 1252.27,-365.385 809.316,-379.332 633,-365 551.861,-358.404 459.864,-343.379 396.719,-331.883"/>
<polygon fill="black" stroke="black" points="397.305,-328.432 386.838,-330.07 396.042,-335.317 397.305,-328.432"/>
<text text-anchor="middle" x="1693" y="-376.8" font-family="Times,serif" font-size="14.00">connect</text>
</g>
<!-- 10.152.183.10:53#ServerID_OuterContainerID -->
<g id="node12" class="node"><title>10.152.183.10:53#ServerID_OuterContainerID</title>
<polygon fill="none" stroke="black" points="2331,-334 2003.56,-316 2331,-298 2658.44,-316 2331,-334"/>
<text text-anchor="middle" x="2331" y="-312.3" font-family="Times,serif" font-size="14.00">10.152.183.10:53#ServerID_OuterContainerID</text>
</g>
<!-- 12_node#ServerID_3113a7a2a86a&#45;&gt;10.152.183.10:53#ServerID_OuterContainerID -->
<g id="edge16" class="edge"><title>12_node#ServerID_3113a7a2a86a&#45;&gt;10.152.183.10:53#ServerID_OuterContainerID</title>
<path fill="none" stroke="black" d="M2124.52,-405.969C2168.78,-386.901 2240.32,-356.072 2286.51,-336.172"/>
<polygon fill="black" stroke="black" points="2288.16,-339.272 2295.96,-332.1 2285.39,-332.843 2288.16,-339.272"/>
<text text-anchor="middle" x="2225.5" y="-376.8" font-family="Times,serif" font-size="14.00">sendto</text>
</g>
<!-- /etc/hosts#ServerID_3113a7a2a86a -->
<g id="node10" class="node"><title>/etc/hosts#ServerID_3113a7a2a86a</title>
<ellipse fill="none" stroke="black" cx="2455" cy="-532" rx="178.969" ry="18"/>
<text text-anchor="middle" x="2455" y="-528.3" font-family="Times,serif" font-size="14.00">/etc/hosts#ServerID_3113a7a2a86a</text>
</g>
<!-- /etc/hosts#ServerID_3113a7a2a86a&#45;&gt;12_node#ServerID_3113a7a2a86a -->
<g id="edge14" class="edge"><title>/etc/hosts#ServerID_3113a7a2a86a&#45;&gt;12_node#ServerID_3113a7a2a86a</title>
<path fill="none" stroke="black" d="M2398.8,-514.901C2333.25,-496.122 2224.87,-465.072 2154.2,-444.825"/>
<polygon fill="black" stroke="black" points="2155.06,-441.432 2144.49,-442.042 2153.14,-448.161 2155.06,-441.432"/>
<text text-anchor="middle" x="2341.5" y="-484.8" font-family="Times,serif" font-size="14.00">read</text>
</g>
<!-- /etc/resolv.conf#ServerID_3113a7a2a86a -->
<g id="node11" class="node"><title>/etc/resolv.conf#ServerID_3113a7a2a86a</title>
<ellipse fill="none" stroke="black" cx="2054" cy="-532" rx="204.164" ry="18"/>
<text text-anchor="middle" x="2054" y="-528.3" font-family="Times,serif" font-size="14.00">/etc/resolv.conf#ServerID_3113a7a2a86a</text>
</g>
<!-- /etc/resolv.conf#ServerID_3113a7a2a86a&#45;&gt;12_node#ServerID_3113a7a2a86a -->
<g id="edge15" class="edge"><title>/etc/resolv.conf#ServerID_3113a7a2a86a&#45;&gt;12_node#ServerID_3113a7a2a86a</title>
<path fill="none" stroke="black" d="M2058.98,-513.969C2063.86,-497.301 2071.36,-471.646 2077.06,-452.161"/>
<polygon fill="black" stroke="black" points="2080.48,-452.921 2079.93,-442.341 2073.76,-450.956 2080.48,-452.921"/>
<text text-anchor="middle" x="2085.5" y="-484.8" font-family="Times,serif" font-size="14.00">read</text>
</g>
<!-- 10.152.183.10:53#ServerID_OuterContainerID&#45;&gt;12_node#ServerID_3113a7a2a86a -->
<g id="edge17" class="edge"><title>10.152.183.10:53#ServerID_OuterContainerID&#45;&gt;12_node#ServerID_3113a7a2a86a</title>
<path fill="none" stroke="black" d="M2317.82,-333.549C2303.78,-349.99 2280.04,-374.623 2254,-388 2242.43,-393.946 2229.91,-398.882 2217.12,-402.979"/>
<polygon fill="black" stroke="black" points="2215.84,-399.707 2207.29,-405.952 2217.87,-406.408 2215.84,-399.707"/>
<text text-anchor="middle" x="2309" y="-376.8" font-family="Times,serif" font-size="14.00">recvfrom</text>
</g>
<!-- localhost:3000#ServerID_9c632c9c841a -->
<g id="node14" class="node"><title>localhost:3000#ServerID_9c632c9c841a</title>
<polygon fill="none" stroke="black" points="4181,-139 3895.28,-121 4181,-103 4466.72,-121 4181,-139"/>
<text text-anchor="middle" x="4181" y="-117.3" font-family="Times,serif" font-size="14.00">localhost:3000#ServerID_9c632c9c841a</text>
</g>
<!-- 1_fwatchdog#ServerID_9c632c9c841a&#45;&gt;localhost:3000#ServerID_9c632c9c841a -->
<g id="edge18" class="edge"><title>1_fwatchdog#ServerID_9c632c9c841a&#45;&gt;localhost:3000#ServerID_9c632c9c841a</title>
<path fill="none" stroke="black" d="M4181,-189.799C4181,-178.163 4181,-162.548 4181,-149.237"/>
<polygon fill="black" stroke="black" points="4184.5,-149.175 4181,-139.175 4177.5,-149.175 4184.5,-149.175"/>
<text text-anchor="middle" x="4210" y="-160.8" font-family="Times,serif" font-size="14.00">connect</text>
</g>
<!-- 1_fwatchdog#ServerID_9c632c9c841a&#45;&gt;localhost:3000#ServerID_9c632c9c841a -->
<g id="edge19" class="edge"><title>1_fwatchdog#ServerID_9c632c9c841a&#45;&gt;localhost:3000#ServerID_9c632c9c841a</title>
<path fill="none" stroke="black" d="M4222.64,-189.892C4229.59,-185.144 4235.87,-179.244 4240,-172 4246.64,-160.34 4239.1,-150.164 4227.45,-142.09"/>
<polygon fill="black" stroke="black" points="4229.21,-139.062 4218.85,-136.844 4225.56,-145.038 4229.21,-139.062"/>
<text text-anchor="middle" x="4261" y="-160.8" font-family="Times,serif" font-size="14.00">write</text>
</g>
<!-- pipe:[240002549]#ServerID_9c632c9c841a -->
<g id="node17" class="node"><title>pipe:[240002549]#ServerID_9c632c9c841a</title>
<ellipse fill="none" stroke="black" cx="4701" cy="-121" rx="215.562" ry="18"/>
<text text-anchor="middle" x="4701" y="-117.3" font-family="Times,serif" font-size="14.00">pipe:[240002549]#ServerID_9c632c9c841a</text>
</g>
<!-- 1_fwatchdog#ServerID_9c632c9c841a&#45;&gt;pipe:[240002549]#ServerID_9c632c9c841a -->
<g id="edge25" class="edge"><title>1_fwatchdog#ServerID_9c632c9c841a&#45;&gt;pipe:[240002549]#ServerID_9c632c9c841a</title>
<path fill="none" stroke="black" d="M4285.29,-189.952C4376.17,-175.098 4507.22,-153.676 4597.78,-138.873"/>
<polygon fill="black" stroke="black" points="4598.48,-142.304 4607.79,-137.237 4597.35,-135.396 4598.48,-142.304"/>
<text text-anchor="middle" x="4491" y="-160.8" font-family="Times,serif" font-size="14.00">write</text>
</g>
<!-- localhost:3000#ServerID_9c632c9c841a&#45;&gt;1_fwatchdog#ServerID_9c632c9c841a -->
<g id="edge20" class="edge"><title>localhost:3000#ServerID_9c632c9c841a&#45;&gt;1_fwatchdog#ServerID_9c632c9c841a</title>
<path fill="none" stroke="black" d="M4157.9,-137.918C4147.5,-147.195 4138.62,-159.503 4144,-172 4145.57,-175.642 4147.72,-179.082 4150.21,-182.279"/>
<polygon fill="black" stroke="black" points="4147.62,-184.639 4156.93,-189.702 4152.81,-179.94 4147.62,-184.639"/>
<text text-anchor="middle" x="4160.5" y="-160.8" font-family="Times,serif" font-size="14.00">read</text>
</g>
<!-- 10_node#ServerID_9c632c9c841a -->
<g id="node15" class="node"><title>10_node#ServerID_9c632c9c841a</title>
<polygon fill="none" stroke="black" points="4035,-52 3769,-52 3769,-16 4035,-16 4035,-52"/>
<text text-anchor="middle" x="3902" y="-30.3" font-family="Times,serif" font-size="14.00">10_node#ServerID_9c632c9c841a</text>
</g>
<!-- localhost:3000#ServerID_9c632c9c841a&#45;&gt;10_node#ServerID_9c632c9c841a -->
<g id="edge21" class="edge"><title>localhost:3000#ServerID_9c632c9c841a&#45;&gt;10_node#ServerID_9c632c9c841a</title>
<path fill="none" stroke="black" d="M4134.62,-105.869C4089.05,-91.9873 4019.1,-70.6754 3967.8,-55.0465"/>
<polygon fill="black" stroke="black" points="3968.71,-51.6653 3958.12,-52.099 3966.67,-58.3615 3968.71,-51.6653"/>
<text text-anchor="middle" x="4074.5" y="-73.8" font-family="Times,serif" font-size="14.00">read</text>
</g>
<!-- /home/app/credentials.txt#ServerID_9c632c9c841a -->
<g id="node16" class="node"><title>/home/app/credentials.txt#ServerID_9c632c9c841a</title>
<ellipse fill="none" stroke="black" cx="3624" cy="-121" rx="252.655" ry="18"/>
<text text-anchor="middle" x="3624" y="-117.3" font-family="Times,serif" font-size="14.00">/home/app/credentials.txt#ServerID_9c632c9c841a</text>
</g>
<!-- /home/app/credentials.txt#ServerID_9c632c9c841a&#45;&gt;10_node#ServerID_9c632c9c841a -->
<g id="edge24" class="edge"><title>/home/app/credentials.txt#ServerID_9c632c9c841a&#45;&gt;10_node#ServerID_9c632c9c841a</title>
<path fill="none" stroke="black" d="M3678.26,-103.409C3723.5,-89.5783 3788.09,-69.8271 3836.26,-55.1002"/>
<polygon fill="black" stroke="black" points="3837.43,-58.4025 3845.97,-52.1315 3835.38,-51.7085 3837.43,-58.4025"/>
<text text-anchor="middle" x="3795.5" y="-73.8" font-family="Times,serif" font-size="14.00">read</text>
</g>
<!-- 10.1.80.1:27858#ServerID_OuterContainerID&#45;&gt;10.1.80.247:8080#ServerID_OuterContainerID -->
<g id="edge26" class="edge"><title>10.1.80.1:27858#ServerID_OuterContainerID&#45;&gt;10.1.80.247:8080#ServerID_OuterContainerID</title>
<path fill="none" stroke="black" d="M1074.77,-226.234C1072.78,-242.024 1067.58,-265.138 1054,-280 1047.98,-286.591 1040.53,-291.973 1032.56,-296.36"/>
<polygon fill="black" stroke="black" points="1030.8,-293.324 1023.4,-300.9 1033.91,-299.597 1030.8,-293.324"/>
<text text-anchor="middle" x="1084" y="-268.8" font-family="Times,serif" font-size="14.00">POST</text>
</g>
</g>
</svg>
