<?xml version="1.0" encoding="UTF-8" standalone="no"?>
<!DOCTYPE svg PUBLIC "-//W3C//DTD SVG 1.1//EN"
 "http://www.w3.org/Graphics/SVG/1.1/DTD/svg11.dtd">
<!-- Generated by graphviz version 2.38.0 (20140413.2041)
 -->
<!-- Title: G Pages: 1 -->
<svg width="8528pt" height="558pt"
 viewBox="0.00 0.00 8528.00 558.00" xmlns="http://www.w3.org/2000/svg" xmlns:xlink="http://www.w3.org/1999/xlink">
<g id="graph0" class="graph" transform="scale(1 1) rotate(0) translate(4 554)">
<title>G</title>
<polygon fill="white" stroke="none" points="-4,4 -4,-554 8524,-554 8524,4 -4,4"/>
<g id="clust1" class="cluster"><title>clusterServerID_6dcbcc88d5&#45;j9zwp</title>
<polygon fill="none" stroke="black" points="2595,-444 2595,-542 2937,-542 2937,-444 2595,-444"/>
<text text-anchor="middle" x="2766" y="-526.8" font-family="Times,serif" font-size="14.00">clusterServerID_6dcbcc88d5&#45;j9zwp</text>
</g>
<g id="clust2" class="cluster"><title>clusterServerID_736074b81582</title>
<polygon fill="none" stroke="black" points="8,-182 8,-411 1134,-411 1134,-182 8,-182"/>
<text text-anchor="middle" x="571" y="-395.8" font-family="Times,serif" font-size="14.00">clusterServerID_736074b81582</text>
</g>
<g id="clust3" class="cluster"><title>clusterServerID_76c96688d7&#45;jnp5f</title>
<polygon fill="none" stroke="black" points="6118,-182 6118,-280 6458,-280 6458,-182 6118,-182"/>
<text text-anchor="middle" x="6288" y="-264.8" font-family="Times,serif" font-size="14.00">clusterServerID_76c96688d7&#45;jnp5f</text>
</g>
<g id="clust4" class="cluster"><title>clusterServerID_834d81eb81b3</title>
<polygon fill="none" stroke="black" points="7478,-95 7478,-280 8512,-280 8512,-95 7478,-95"/>
<text text-anchor="middle" x="7995" y="-264.8" font-family="Times,serif" font-size="14.00">clusterServerID_834d81eb81b3</text>
</g>
<g id="clust5" class="cluster"><title>clusterServerID_8665dd9487&#45;fclr8</title>
<polygon fill="none" stroke="black" points="5774,-182 5774,-280 6110,-280 6110,-182 5774,-182"/>
<text text-anchor="middle" x="5942" y="-264.8" font-family="Times,serif" font-size="14.00">clusterServerID_8665dd9487&#45;fclr8</text>
</g>
<g id="clust6" class="cluster"><title>clusterServerID_86aa7f3fa3b0</title>
<polygon fill="none" stroke="black" points="6466,-8 6466,-280 7470,-280 7470,-8 6466,-8"/>
<text text-anchor="middle" x="6968" y="-264.8" font-family="Times,serif" font-size="14.00">clusterServerID_86aa7f3fa3b0</text>
</g>
<g id="clust7" class="cluster"><title>clusterServerID_OuterContainerID</title>
<polygon fill="none" stroke="black" points="1142,-182 1142,-411 5766,-411 5766,-182 1142,-182"/>
<text text-anchor="middle" x="3454" y="-395.8" font-family="Times,serif" font-size="14.00">clusterServerID_OuterContainerID</text>
</g>
<!-- gateway:8080#ServerID_OuterContainerID -->
<g id="node1" class="node"><title>gateway:8080#ServerID_OuterContainerID</title>
<polygon fill="none" stroke="black" points="1454,-357 1149.52,-339 1454,-321 1758.48,-339 1454,-357"/>
<text text-anchor="middle" x="1454" y="-335.3" font-family="Times,serif" font-size="14.00">gateway:8080#ServerID_OuterContainerID</text>
</g>
<!-- 1_fwatchdog#ServerID_6dcbcc88d5&#45;j9zwp -->
<g id="node2" class="node"><title>1_fwatchdog#ServerID_6dcbcc88d5&#45;j9zwp</title>
<polygon fill="none" stroke="black" points="2929,-488 2603,-488 2603,-452 2929,-452 2929,-488"/>
<text text-anchor="middle" x="2766" y="-466.3" font-family="Times,serif" font-size="14.00">1_fwatchdog#ServerID_6dcbcc88d5&#45;j9zwp</text>
</g>
<!-- gateway:8080#ServerID_OuterContainerID&#45;&gt;1_fwatchdog#ServerID_6dcbcc88d5&#45;j9zwp -->
<g id="edge1" class="edge"><title>gateway:8080#ServerID_OuterContainerID&#45;&gt;1_fwatchdog#ServerID_6dcbcc88d5&#45;j9zwp</title>
<path fill="none" stroke="black" d="M1513.42,-353.502C1576.37,-367.802 1678.68,-391.026 1767,-411 1812.33,-421.251 1822.92,-427.958 1869,-434 2003.97,-451.699 2372.42,-461.541 2592.86,-466.007"/>
<polygon fill="black" stroke="black" points="2592.85,-469.507 2602.92,-466.209 2592.99,-462.509 2592.85,-469.507"/>
<text text-anchor="middle" x="1911" y="-422.8" font-family="Times,serif" font-size="14.00">RESPONSE</text>
</g>
<!-- 1_fwatchdog#ServerID_6dcbcc88d5&#45;j9zwp&#45;&gt;gateway:8080#ServerID_OuterContainerID -->
<g id="edge3" class="edge"><title>1_fwatchdog#ServerID_6dcbcc88d5&#45;j9zwp&#45;&gt;gateway:8080#ServerID_OuterContainerID</title>
<path fill="none" stroke="black" d="M2602.68,-457.021C2446.47,-445.897 2204.27,-429.512 1994,-419 1893.17,-413.959 1867.11,-424.001 1767,-411 1677.18,-399.335 1575.23,-373.857 1512.76,-356.811"/>
<polygon fill="black" stroke="black" points="1513.66,-353.427 1503.09,-354.152 1511.8,-360.177 1513.66,-353.427"/>
<text text-anchor="middle" x="2269" y="-422.8" font-family="Times,serif" font-size="14.00">POST</text>
</g>
<!-- 10.1.80.93:8080#ServerID_OuterContainerID -->
<g id="node5" class="node"><title>10.1.80.93:8080#ServerID_OuterContainerID</title>
<polygon fill="none" stroke="black" points="2767,-357 2448.1,-339 2767,-321 3085.9,-339 2767,-357"/>
<text text-anchor="middle" x="2767" y="-335.3" font-family="Times,serif" font-size="14.00">10.1.80.93:8080#ServerID_OuterContainerID</text>
</g>
<!-- 1_fwatchdog#ServerID_6dcbcc88d5&#45;j9zwp&#45;&gt;10.1.80.93:8080#ServerID_OuterContainerID -->
<g id="edge4" class="edge"><title>1_fwatchdog#ServerID_6dcbcc88d5&#45;j9zwp&#45;&gt;10.1.80.93:8080#ServerID_OuterContainerID</title>
<path fill="none" stroke="black" d="M2747.04,-451.736C2742.56,-446.523 2738.39,-440.455 2736,-434 2727.44,-410.87 2738.22,-384.131 2749.35,-365.099"/>
<polygon fill="black" stroke="black" points="2752.44,-366.763 2754.75,-356.425 2746.5,-363.061 2752.44,-366.763"/>
<text text-anchor="middle" x="2756" y="-422.8" font-family="Times,serif" font-size="14.00">POST</text>
</g>
<!-- 10.1.80.93:52510#ServerID_OuterContainerID -->
<g id="node6" class="node"><title>10.1.80.93:52510#ServerID_OuterContainerID</title>
<polygon fill="none" stroke="black" points="5431,-357 5103.56,-339 5431,-321 5758.44,-339 5431,-357"/>
<text text-anchor="middle" x="5431" y="-335.3" font-family="Times,serif" font-size="14.00">10.1.80.93:52510#ServerID_OuterContainerID</text>
</g>
<!-- 1_fwatchdog#ServerID_6dcbcc88d5&#45;j9zwp&#45;&gt;10.1.80.93:52510#ServerID_OuterContainerID -->
<g id="edge10" class="edge"><title>1_fwatchdog#ServerID_6dcbcc88d5&#45;j9zwp&#45;&gt;10.1.80.93:52510#ServerID_OuterContainerID</title>
<path fill="none" stroke="black" d="M2929.09,-464.616C3264.94,-455.638 4058.13,-434.681 4724,-419 4806.44,-417.059 5013.08,-420.454 5095,-411 5191.76,-399.833 5301.85,-374.005 5368.86,-356.776"/>
<polygon fill="black" stroke="black" points="5370.03,-360.089 5378.83,-354.193 5368.27,-353.312 5370.03,-360.089"/>
<text text-anchor="middle" x="4766" y="-422.8" font-family="Times,serif" font-size="14.00">RESPONSE</text>
</g>
<!-- 10.1.80.93:48278#ServerID_OuterContainerID -->
<g id="node3" class="node"><title>10.1.80.93:48278#ServerID_OuterContainerID</title>
<polygon fill="none" stroke="black" points="3431,-357 3103.56,-339 3431,-321 3758.44,-339 3431,-357"/>
<text text-anchor="middle" x="3431" y="-335.3" font-family="Times,serif" font-size="14.00">10.1.80.93:48278#ServerID_OuterContainerID</text>
</g>
<!-- 1_fwatchdog#ServerID_8665dd9487&#45;fclr8 -->
<g id="node4" class="node"><title>1_fwatchdog#ServerID_8665dd9487&#45;fclr8</title>
<polygon fill="none" stroke="black" points="6102,-226 5782,-226 5782,-190 6102,-190 6102,-226"/>
<text text-anchor="middle" x="5942" y="-204.3" font-family="Times,serif" font-size="14.00">1_fwatchdog#ServerID_8665dd9487&#45;fclr8</text>
</g>
<!-- 10.1.80.93:48278#ServerID_OuterContainerID&#45;&gt;1_fwatchdog#ServerID_8665dd9487&#45;fclr8 -->
<g id="edge2" class="edge"><title>10.1.80.93:48278#ServerID_OuterContainerID&#45;&gt;1_fwatchdog#ServerID_8665dd9487&#45;fclr8</title>
<path fill="none" stroke="black" d="M3508.85,-325.268C3588.13,-312.975 3714.74,-295.196 3825,-288 3878.91,-284.481 5717.03,-290.617 5770,-280 5817.34,-270.512 5868.02,-247.905 5902.02,-230.73"/>
<polygon fill="black" stroke="black" points="5903.85,-233.725 5911.14,-226.045 5900.65,-227.497 5903.85,-233.725"/>
<text text-anchor="middle" x="3845" y="-291.8" font-family="Times,serif" font-size="14.00">POST</text>
</g>
<!-- 1_fwatchdog#ServerID_86aa7f3fa3b0 -->
<g id="node11" class="node"><title>1_fwatchdog#ServerID_86aa7f3fa3b0</title>
<polygon fill="none" stroke="black" points="6781,-226 6491,-226 6491,-190 6781,-190 6781,-226"/>
<text text-anchor="middle" x="6636" y="-204.3" font-family="Times,serif" font-size="14.00">1_fwatchdog#ServerID_86aa7f3fa3b0</text>
</g>
<!-- 10.1.80.93:48278#ServerID_OuterContainerID&#45;&gt;1_fwatchdog#ServerID_86aa7f3fa3b0 -->
<g id="edge23" class="edge"><title>10.1.80.93:48278#ServerID_OuterContainerID&#45;&gt;1_fwatchdog#ServerID_86aa7f3fa3b0</title>
<path fill="none" stroke="black" d="M3589.52,-329.702C3645.58,-326.84 3709.09,-323.683 3767,-321 3957.19,-312.19 4004.9,-313.536 4195,-303 4291.97,-297.626 4315.95,-291.525 4413,-288 4469.88,-285.934 6406.17,-291.066 6462,-280 6509.83,-270.52 6561.11,-247.912 6595.52,-230.734"/>
<polygon fill="black" stroke="black" points="6597.42,-233.693 6604.76,-226.048 6594.26,-227.449 6597.42,-233.693"/>
<text text-anchor="middle" x="4429.5" y="-291.8" font-family="Times,serif" font-size="14.00">read</text>
</g>
<!-- 1_fwatchdog#ServerID_8665dd9487&#45;fclr8&#45;&gt;10.1.80.93:48278#ServerID_OuterContainerID -->
<g id="edge7" class="edge"><title>1_fwatchdog#ServerID_8665dd9487&#45;fclr8&#45;&gt;10.1.80.93:48278#ServerID_OuterContainerID</title>
<path fill="none" stroke="black" d="M5911.14,-226.038C5877.58,-243.525 5821.79,-269.602 5770,-280 5724.82,-289.072 4157.05,-286.198 4111,-288 4008.41,-292.014 3732.66,-313.543 3565.5,-327.009"/>
<polygon fill="black" stroke="black" points="3565.08,-323.532 3555.4,-327.824 3565.65,-330.509 3565.08,-323.532"/>
<text text-anchor="middle" x="4153" y="-291.8" font-family="Times,serif" font-size="14.00">RESPONSE</text>
</g>
<!-- 10.1.80.93:8080#ServerID_OuterContainerID&#45;&gt;1_fwatchdog#ServerID_6dcbcc88d5&#45;j9zwp -->
<g id="edge5" class="edge"><title>10.1.80.93:8080#ServerID_OuterContainerID&#45;&gt;1_fwatchdog#ServerID_6dcbcc88d5&#45;j9zwp</title>
<path fill="none" stroke="black" d="M2771.03,-357.034C2774.93,-375.905 2779.75,-407.211 2776,-434 2775.64,-436.574 2775.14,-439.224 2774.55,-441.859"/>
<polygon fill="black" stroke="black" points="2771.1,-441.198 2771.96,-451.759 2777.87,-442.971 2771.1,-441.198"/>
<text text-anchor="middle" x="2820" y="-422.8" font-family="Times,serif" font-size="14.00">RESPONSE</text>
</g>
<!-- 10.1.80.1:1594#ServerID_OuterContainerID -->
<g id="node23" class="node"><title>10.1.80.1:1594#ServerID_OuterContainerID</title>
<polygon fill="none" stroke="black" points="2874,-226 2563.15,-208 2874,-190 3184.85,-208 2874,-226"/>
<text text-anchor="middle" x="2874" y="-204.3" font-family="Times,serif" font-size="14.00">10.1.80.1:1594#ServerID_OuterContainerID</text>
</g>
<!-- 10.1.80.93:8080#ServerID_OuterContainerID&#45;&gt;10.1.80.1:1594#ServerID_OuterContainerID -->
<g id="edge32" class="edge"><title>10.1.80.93:8080#ServerID_OuterContainerID&#45;&gt;10.1.80.1:1594#ServerID_OuterContainerID</title>
<path fill="none" stroke="black" d="M2761.79,-320.896C2759.69,-310.795 2758.84,-298.059 2764,-288 2777.66,-261.381 2804.91,-241.706 2828.88,-228.649"/>
<polygon fill="black" stroke="black" points="2830.61,-231.691 2837.86,-223.968 2827.38,-225.483 2830.61,-231.691"/>
<text text-anchor="middle" x="2806" y="-291.8" font-family="Times,serif" font-size="14.00">RESPONSE</text>
</g>
<!-- 10.0.88.125:31112#ServerID_OuterContainerID -->
<g id="node24" class="node"><title>10.0.88.125:31112#ServerID_OuterContainerID</title>
<polygon fill="none" stroke="black" points="2210,-226 1874.52,-208 2210,-190 2545.48,-208 2210,-226"/>
<text text-anchor="middle" x="2210" y="-204.3" font-family="Times,serif" font-size="14.00">10.0.88.125:31112#ServerID_OuterContainerID</text>
</g>
<!-- 10.1.80.93:8080#ServerID_OuterContainerID&#45;&gt;10.0.88.125:31112#ServerID_OuterContainerID -->
<g id="edge33" class="edge"><title>10.1.80.93:8080#ServerID_OuterContainerID&#45;&gt;10.0.88.125:31112#ServerID_OuterContainerID</title>
<path fill="none" stroke="black" d="M2707.92,-324.317C2604.34,-300.328 2390.48,-250.8 2279.79,-225.164"/>
<polygon fill="black" stroke="black" points="2280.27,-221.681 2269.74,-222.835 2278.69,-228.501 2280.27,-221.681"/>
<text text-anchor="middle" x="2645" y="-291.8" font-family="Times,serif" font-size="14.00">RESPONSE</text>
</g>
<!-- 10.1.80.93:52510#ServerID_OuterContainerID&#45;&gt;1_fwatchdog#ServerID_6dcbcc88d5&#45;j9zwp -->
<g id="edge6" class="edge"><title>10.1.80.93:52510#ServerID_OuterContainerID&#45;&gt;1_fwatchdog#ServerID_6dcbcc88d5&#45;j9zwp</title>
<path fill="none" stroke="black" d="M5378.54,-354.191C5312.83,-371.24 5196.55,-399.04 5095,-411 4677.94,-460.119 3405.06,-467.714 2939.18,-468.831"/>
<polygon fill="black" stroke="black" points="2939,-465.331 2929.01,-468.855 2939.01,-472.331 2939,-465.331"/>
<text text-anchor="middle" x="5010" y="-422.8" font-family="Times,serif" font-size="14.00">POST</text>
</g>
<!-- 1_fwatchdog#ServerID_736074b81582 -->
<g id="node9" class="node"><title>1_fwatchdog#ServerID_736074b81582</title>
<polygon fill="none" stroke="black" points="316,-357 16,-357 16,-321 316,-321 316,-357"/>
<text text-anchor="middle" x="166" y="-335.3" font-family="Times,serif" font-size="14.00">1_fwatchdog#ServerID_736074b81582</text>
</g>
<!-- 10.1.80.93:52510#ServerID_OuterContainerID&#45;&gt;1_fwatchdog#ServerID_736074b81582 -->
<g id="edge12" class="edge"><title>10.1.80.93:52510#ServerID_OuterContainerID&#45;&gt;1_fwatchdog#ServerID_736074b81582</title>
<path fill="none" stroke="black" d="M5377.45,-354.143C5311.61,-371.905 5196.15,-400.284 5095,-411 4963.24,-424.959 454.517,-438.958 325,-411 281.596,-401.631 235.786,-379.397 204.545,-362.096"/>
<polygon fill="black" stroke="black" points="206.166,-358.992 195.735,-357.134 202.73,-365.091 206.166,-358.992"/>
<text text-anchor="middle" x="1974" y="-422.8" font-family="Times,serif" font-size="14.00">read</text>
</g>
<!-- 10.1.80.93:55354#ServerID_OuterContainerID -->
<g id="node7" class="node"><title>10.1.80.93:55354#ServerID_OuterContainerID</title>
<polygon fill="none" stroke="black" points="4103,-357 3775.56,-339 4103,-321 4430.44,-339 4103,-357"/>
<text text-anchor="middle" x="4103" y="-335.3" font-family="Times,serif" font-size="14.00">10.1.80.93:55354#ServerID_OuterContainerID</text>
</g>
<!-- 1_fwatchdog#ServerID_76c96688d7&#45;jnp5f -->
<g id="node8" class="node"><title>1_fwatchdog#ServerID_76c96688d7&#45;jnp5f</title>
<polygon fill="none" stroke="black" points="6449.5,-226 6126.5,-226 6126.5,-190 6449.5,-190 6449.5,-226"/>
<text text-anchor="middle" x="6288" y="-204.3" font-family="Times,serif" font-size="14.00">1_fwatchdog#ServerID_76c96688d7&#45;jnp5f</text>
</g>
<!-- 10.1.80.93:55354#ServerID_OuterContainerID&#45;&gt;1_fwatchdog#ServerID_76c96688d7&#45;jnp5f -->
<g id="edge8" class="edge"><title>10.1.80.93:55354#ServerID_OuterContainerID&#45;&gt;1_fwatchdog#ServerID_76c96688d7&#45;jnp5f</title>
<path fill="none" stroke="black" d="M4203.95,-326.508C4316.67,-314.27 4504.61,-295.634 4667,-288 4707.15,-286.113 6074.58,-287.847 6114,-280 6161.82,-270.481 6213.11,-247.879 6247.52,-230.713"/>
<polygon fill="black" stroke="black" points="6249.42,-233.673 6256.76,-226.031 6246.25,-227.429 6249.42,-233.673"/>
<text text-anchor="middle" x="4687" y="-291.8" font-family="Times,serif" font-size="14.00">POST</text>
</g>
<!-- 1_fwatchdog#ServerID_834d81eb81b3 -->
<g id="node20" class="node"><title>1_fwatchdog#ServerID_834d81eb81b3</title>
<polygon fill="none" stroke="black" points="7923.5,-226 7624.5,-226 7624.5,-190 7923.5,-190 7923.5,-226"/>
<text text-anchor="middle" x="7774" y="-204.3" font-family="Times,serif" font-size="14.00">1_fwatchdog#ServerID_834d81eb81b3</text>
</g>
<!-- 10.1.80.93:55354#ServerID_OuterContainerID&#45;&gt;1_fwatchdog#ServerID_834d81eb81b3 -->
<g id="edge29" class="edge"><title>10.1.80.93:55354#ServerID_OuterContainerID&#45;&gt;1_fwatchdog#ServerID_834d81eb81b3</title>
<path fill="none" stroke="black" d="M4256.85,-329.425C4314.03,-326.446 4379.47,-323.283 4439,-321 4719.56,-310.239 5421.27,-292.301 5702,-288 5800.43,-286.492 7376.24,-291.634 7474,-280 7556.31,-270.204 7648.83,-246.274 7709.08,-228.897"/>
<polygon fill="black" stroke="black" points="7710.21,-232.214 7718.84,-226.06 7708.26,-225.492 7710.21,-232.214"/>
<text text-anchor="middle" x="5718.5" y="-291.8" font-family="Times,serif" font-size="14.00">read</text>
</g>
<!-- 1_fwatchdog#ServerID_76c96688d7&#45;jnp5f&#45;&gt;10.1.80.93:55354#ServerID_OuterContainerID -->
<g id="edge9" class="edge"><title>1_fwatchdog#ServerID_76c96688d7&#45;jnp5f&#45;&gt;10.1.80.93:55354#ServerID_OuterContainerID</title>
<path fill="none" stroke="black" d="M6256.75,-226.018C6222.78,-243.488 6166.31,-269.551 6114,-280 6050.53,-292.677 5013.69,-285.775 4949,-288 4841.3,-291.705 4814.57,-296.55 4707,-303 4557.47,-311.967 4387.09,-321.805 4265.5,-328.761"/>
<polygon fill="black" stroke="black" points="4265.15,-325.276 4255.36,-329.341 4265.55,-332.264 4265.15,-325.276"/>
<text text-anchor="middle" x="4991" y="-291.8" font-family="Times,serif" font-size="14.00">RESPONSE</text>
</g>
<!-- localhost:3000#ServerID_736074b81582 -->
<g id="node10" class="node"><title>localhost:3000#ServerID_736074b81582</title>
<polygon fill="none" stroke="black" points="305,-226 16.2692,-208 305,-190 593.731,-208 305,-226"/>
<text text-anchor="middle" x="305" y="-204.3" font-family="Times,serif" font-size="14.00">localhost:3000#ServerID_736074b81582</text>
</g>
<!-- 1_fwatchdog#ServerID_736074b81582&#45;&gt;localhost:3000#ServerID_736074b81582 -->
<g id="edge11" class="edge"><title>1_fwatchdog#ServerID_736074b81582&#45;&gt;localhost:3000#ServerID_736074b81582</title>
<path fill="none" stroke="black" d="M184.458,-320.87C209.059,-298.039 252.674,-257.562 280.148,-232.064"/>
<polygon fill="black" stroke="black" points="282.829,-234.351 287.778,-224.983 278.068,-229.22 282.829,-234.351"/>
<text text-anchor="middle" x="238" y="-291.8" font-family="Times,serif" font-size="14.00">write</text>
</g>
<!-- 10.1.80.1:55266#ServerID_OuterContainerID -->
<g id="node12" class="node"><title>10.1.80.1:55266#ServerID_OuterContainerID</title>
<polygon fill="none" stroke="black" points="4767,-357 4448.1,-339 4767,-321 5085.9,-339 4767,-357"/>
<text text-anchor="middle" x="4767" y="-335.3" font-family="Times,serif" font-size="14.00">10.1.80.1:55266#ServerID_OuterContainerID</text>
</g>
<!-- 1_fwatchdog#ServerID_86aa7f3fa3b0&#45;&gt;10.1.80.1:55266#ServerID_OuterContainerID -->
<g id="edge13" class="edge"><title>1_fwatchdog#ServerID_86aa7f3fa3b0&#45;&gt;10.1.80.1:55266#ServerID_OuterContainerID</title>
<path fill="none" stroke="black" d="M6604.08,-226.099C6570,-243.368 6513.87,-269.015 6462,-280 6164.68,-342.969 5398.66,-308.578 5095,-321 5040.67,-323.222 4981.31,-326.148 4928.2,-328.944"/>
<polygon fill="black" stroke="black" points="4927.82,-325.459 4918.01,-329.483 4928.18,-332.45 4927.82,-325.459"/>
<text text-anchor="middle" x="6423" y="-291.8" font-family="Times,serif" font-size="14.00">write</text>
</g>
<!-- localhost:3000#ServerID_86aa7f3fa3b0 -->
<g id="node17" class="node"><title>localhost:3000#ServerID_86aa7f3fa3b0</title>
<polygon fill="none" stroke="black" points="6753,-139 6473.65,-121 6753,-103 7032.35,-121 6753,-139"/>
<text text-anchor="middle" x="6753" y="-117.3" font-family="Times,serif" font-size="14.00">localhost:3000#ServerID_86aa7f3fa3b0</text>
</g>
<!-- 1_fwatchdog#ServerID_86aa7f3fa3b0&#45;&gt;localhost:3000#ServerID_86aa7f3fa3b0 -->
<g id="edge21" class="edge"><title>1_fwatchdog#ServerID_86aa7f3fa3b0&#45;&gt;localhost:3000#ServerID_86aa7f3fa3b0</title>
<path fill="none" stroke="black" d="M6703.79,-189.799C6713.71,-185.176 6723.19,-179.345 6731,-172 6737.75,-165.65 6742.56,-156.859 6745.92,-148.417"/>
<polygon fill="black" stroke="black" points="6749.27,-149.43 6749.22,-138.835 6742.65,-147.145 6749.27,-149.43"/>
<text text-anchor="middle" x="6771" y="-160.8" font-family="Times,serif" font-size="14.00">connect</text>
</g>
<!-- 1_fwatchdog#ServerID_86aa7f3fa3b0&#45;&gt;localhost:3000#ServerID_86aa7f3fa3b0 -->
<g id="edge24" class="edge"><title>1_fwatchdog#ServerID_86aa7f3fa3b0&#45;&gt;localhost:3000#ServerID_86aa7f3fa3b0</title>
<path fill="none" stroke="black" d="M6631.6,-189.599C6630.02,-179.139 6630.07,-166.131 6637,-157 6642.94,-149.163 6650.59,-143.022 6659.11,-138.217"/>
<polygon fill="black" stroke="black" points="6660.86,-141.253 6668.27,-133.68 6657.76,-134.98 6660.86,-141.253"/>
<text text-anchor="middle" x="6656" y="-160.8" font-family="Times,serif" font-size="14.00">write</text>
</g>
<!-- pipe:[20744110]#ServerID_86aa7f3fa3b0 -->
<g id="node19" class="node"><title>pipe:[20744110]#ServerID_86aa7f3fa3b0</title>
<ellipse fill="none" stroke="black" cx="7256" cy="-121" rx="206.063" ry="18"/>
<text text-anchor="middle" x="7256" y="-117.3" font-family="Times,serif" font-size="14.00">pipe:[20744110]#ServerID_86aa7f3fa3b0</text>
</g>
<!-- 1_fwatchdog#ServerID_86aa7f3fa3b0&#45;&gt;pipe:[20744110]#ServerID_86aa7f3fa3b0 -->
<g id="edge25" class="edge"><title>1_fwatchdog#ServerID_86aa7f3fa3b0&#45;&gt;pipe:[20744110]#ServerID_86aa7f3fa3b0</title>
<path fill="none" stroke="black" d="M6760.35,-189.952C6871.24,-174.749 7032.32,-152.666 7140.45,-137.841"/>
<polygon fill="black" stroke="black" points="7140.99,-141.3 7150.42,-136.475 7140.04,-134.365 7140.99,-141.3"/>
<text text-anchor="middle" x="7003" y="-160.8" font-family="Times,serif" font-size="14.00">write</text>
</g>
<!-- 10.1.80.1:55266#ServerID_OuterContainerID&#45;&gt;1_fwatchdog#ServerID_86aa7f3fa3b0 -->
<g id="edge14" class="edge"><title>10.1.80.1:55266#ServerID_OuterContainerID&#45;&gt;1_fwatchdog#ServerID_86aa7f3fa3b0</title>
<path fill="none" stroke="black" d="M4918.01,-329.483C4973.64,-326.528 5037.17,-323.366 5095,-321 5113.98,-320.224 6443.42,-283.936 6462,-280 6509.41,-269.959 6560.38,-247.668 6594.82,-230.722"/>
<polygon fill="black" stroke="black" points="6596.7,-233.698 6604.08,-226.099 6593.57,-227.435 6596.7,-233.698"/>
<text text-anchor="middle" x="6244.5" y="-291.8" font-family="Times,serif" font-size="14.00">read</text>
</g>
<!-- /etc/hosts#ServerID_736074b81582 -->
<g id="node13" class="node"><title>/etc/hosts#ServerID_736074b81582</title>
<ellipse fill="none" stroke="black" cx="515" cy="-339" rx="180.868" ry="18"/>
<text text-anchor="middle" x="515" y="-335.3" font-family="Times,serif" font-size="14.00">/etc/hosts#ServerID_736074b81582</text>
</g>
<!-- 10_node#ServerID_736074b81582 -->
<g id="node14" class="node"><title>10_node#ServerID_736074b81582</title>
<polygon fill="none" stroke="black" points="1125.5,-226 856.5,-226 856.5,-190 1125.5,-190 1125.5,-226"/>
<text text-anchor="middle" x="991" y="-204.3" font-family="Times,serif" font-size="14.00">10_node#ServerID_736074b81582</text>
</g>
<!-- /etc/hosts#ServerID_736074b81582&#45;&gt;10_node#ServerID_736074b81582 -->
<g id="edge15" class="edge"><title>/etc/hosts#ServerID_736074b81582&#45;&gt;10_node#ServerID_736074b81582</title>
<path fill="none" stroke="black" d="M574.323,-321.923C661.457,-298.309 823.888,-254.289 918.149,-228.743"/>
<polygon fill="black" stroke="black" points="919.158,-232.096 927.895,-226.102 917.327,-225.34 919.158,-232.096"/>
<text text-anchor="middle" x="713.5" y="-291.8" font-family="Times,serif" font-size="14.00">read</text>
</g>
<!-- 10_node#ServerID_736074b81582&#45;&gt;gateway:8080#ServerID_OuterContainerID -->
<g id="edge19" class="edge"><title>10_node#ServerID_736074b81582&#45;&gt;gateway:8080#ServerID_OuterContainerID</title>
<path fill="none" stroke="black" d="M1020.42,-226.135C1049.41,-242.309 1095.43,-266.095 1138,-280 1205.18,-301.944 1283.26,-316.373 1345,-325.352"/>
<polygon fill="black" stroke="black" points="1344.76,-328.853 1355.15,-326.801 1345.75,-321.923 1344.76,-328.853"/>
<text text-anchor="middle" x="1244" y="-291.8" font-family="Times,serif" font-size="14.00">connect</text>
</g>
<!-- 10.152.183.10:53#ServerID_OuterContainerID -->
<g id="node16" class="node"><title>10.152.183.10:53#ServerID_OuterContainerID</title>
<polygon fill="none" stroke="black" points="2103,-357 1775.56,-339 2103,-321 2430.44,-339 2103,-357"/>
<text text-anchor="middle" x="2103" y="-335.3" font-family="Times,serif" font-size="14.00">10.152.183.10:53#ServerID_OuterContainerID</text>
</g>
<!-- 10_node#ServerID_736074b81582&#45;&gt;10.152.183.10:53#ServerID_OuterContainerID -->
<g id="edge17" class="edge"><title>10_node#ServerID_736074b81582&#45;&gt;10.152.183.10:53#ServerID_OuterContainerID</title>
<path fill="none" stroke="black" d="M1017.3,-226.102C1045.74,-243.508 1093.04,-269.391 1138,-280 1202.13,-295.133 1665.28,-283.158 1731,-288 1829.74,-295.275 1942.3,-311.525 2017.5,-323.536"/>
<polygon fill="black" stroke="black" points="2016.97,-326.995 2027.4,-325.126 2018.08,-320.084 2016.97,-326.995"/>
<text text-anchor="middle" x="1899.5" y="-291.8" font-family="Times,serif" font-size="14.00">sendto</text>
</g>
<!-- /etc/resolv.conf#ServerID_736074b81582 -->
<g id="node15" class="node"><title>/etc/resolv.conf#ServerID_736074b81582</title>
<ellipse fill="none" stroke="black" cx="920" cy="-339" rx="206.063" ry="18"/>
<text text-anchor="middle" x="920" y="-335.3" font-family="Times,serif" font-size="14.00">/etc/resolv.conf#ServerID_736074b81582</text>
</g>
<!-- /etc/resolv.conf#ServerID_736074b81582&#45;&gt;10_node#ServerID_736074b81582 -->
<g id="edge16" class="edge"><title>/etc/resolv.conf#ServerID_736074b81582&#45;&gt;10_node#ServerID_736074b81582</title>
<path fill="none" stroke="black" d="M929.428,-320.87C941.523,-298.895 962.615,-260.573 976.693,-234.994"/>
<polygon fill="black" stroke="black" points="979.777,-236.649 981.533,-226.201 973.645,-233.274 979.777,-236.649"/>
<text text-anchor="middle" x="964.5" y="-291.8" font-family="Times,serif" font-size="14.00">read</text>
</g>
<!-- 10.152.183.10:53#ServerID_OuterContainerID&#45;&gt;10_node#ServerID_736074b81582 -->
<g id="edge18" class="edge"><title>10.152.183.10:53#ServerID_OuterContainerID&#45;&gt;10_node#ServerID_736074b81582</title>
<path fill="none" stroke="black" d="M1956.78,-329.018C1791.7,-318.907 1515.07,-302.056 1277,-288 1246.11,-286.176 1167.95,-287.766 1138,-280 1097.9,-269.601 1055.66,-247.928 1026.81,-231.247"/>
<polygon fill="black" stroke="black" points="1028.32,-228.077 1017.93,-226.027 1024.77,-234.112 1028.32,-228.077"/>
<text text-anchor="middle" x="1560" y="-291.8" font-family="Times,serif" font-size="14.00">recvfrom</text>
</g>
<!-- localhost:3000#ServerID_86aa7f3fa3b0&#45;&gt;1_fwatchdog#ServerID_86aa7f3fa3b0 -->
<g id="edge20" class="edge"><title>localhost:3000#ServerID_86aa7f3fa3b0&#45;&gt;1_fwatchdog#ServerID_86aa7f3fa3b0</title>
<path fill="none" stroke="black" d="M6727.42,-137.449C6718.01,-143.343 6707.38,-150.267 6698,-157 6686.57,-165.209 6674.42,-174.795 6663.94,-183.365"/>
<polygon fill="black" stroke="black" points="6661.42,-180.908 6655.94,-189.974 6665.88,-186.306 6661.42,-180.908"/>
<text text-anchor="middle" x="6714.5" y="-160.8" font-family="Times,serif" font-size="14.00">read</text>
</g>
<!-- 10_node#ServerID_86aa7f3fa3b0 -->
<g id="node18" class="node"><title>10_node#ServerID_86aa7f3fa3b0</title>
<polygon fill="none" stroke="black" points="6882.5,-52 6623.5,-52 6623.5,-16 6882.5,-16 6882.5,-52"/>
<text text-anchor="middle" x="6753" y="-30.3" font-family="Times,serif" font-size="14.00">10_node#ServerID_86aa7f3fa3b0</text>
</g>
<!-- localhost:3000#ServerID_86aa7f3fa3b0&#45;&gt;10_node#ServerID_86aa7f3fa3b0 -->
<g id="edge22" class="edge"><title>localhost:3000#ServerID_86aa7f3fa3b0&#45;&gt;10_node#ServerID_86aa7f3fa3b0</title>
<path fill="none" stroke="black" d="M6753,-102.799C6753,-91.1626 6753,-75.5479 6753,-62.2368"/>
<polygon fill="black" stroke="black" points="6756.5,-62.1754 6753,-52.1754 6749.5,-62.1755 6756.5,-62.1754"/>
<text text-anchor="middle" x="6769.5" y="-73.8" font-family="Times,serif" font-size="14.00">read</text>
</g>
<!-- localhost:3000#ServerID_834d81eb81b3 -->
<g id="node21" class="node"><title>localhost:3000#ServerID_834d81eb81b3</title>
<polygon fill="none" stroke="black" points="7774,-139 7486.11,-121 7774,-103 8061.89,-121 7774,-139"/>
<text text-anchor="middle" x="7774" y="-117.3" font-family="Times,serif" font-size="14.00">localhost:3000#ServerID_834d81eb81b3</text>
</g>
<!-- 1_fwatchdog#ServerID_834d81eb81b3&#45;&gt;localhost:3000#ServerID_834d81eb81b3 -->
<g id="edge26" class="edge"><title>1_fwatchdog#ServerID_834d81eb81b3&#45;&gt;localhost:3000#ServerID_834d81eb81b3</title>
<path fill="none" stroke="black" d="M7796.15,-189.998C7805.32,-180.779 7812.82,-168.867 7808,-157 7806.35,-152.938 7803.98,-149.088 7801.25,-145.53"/>
<polygon fill="black" stroke="black" points="7803.63,-142.947 7794.38,-137.797 7798.4,-147.597 7803.63,-142.947"/>
<text text-anchor="middle" x="7838" y="-160.8" font-family="Times,serif" font-size="14.00">connect</text>
</g>
<!-- 1_fwatchdog#ServerID_834d81eb81b3&#45;&gt;localhost:3000#ServerID_834d81eb81b3 -->
<g id="edge28" class="edge"><title>1_fwatchdog#ServerID_834d81eb81b3&#45;&gt;localhost:3000#ServerID_834d81eb81b3</title>
<path fill="none" stroke="black" d="M7743.25,-189.939C7737.1,-185.002 7731.48,-179.013 7728,-172 7722.84,-161.597 7728.45,-151.801 7737.31,-143.684"/>
<polygon fill="black" stroke="black" points="7739.71,-146.25 7745.35,-137.284 7735.35,-140.773 7739.71,-146.25"/>
<text text-anchor="middle" x="7747" y="-160.8" font-family="Times,serif" font-size="14.00">write</text>
</g>
<!-- pipe:[20745046]#ServerID_834d81eb81b3 -->
<g id="node22" class="node"><title>pipe:[20745046]#ServerID_834d81eb81b3</title>
<ellipse fill="none" stroke="black" cx="8292" cy="-121" rx="211.762" ry="18"/>
<text text-anchor="middle" x="8292" y="-117.3" font-family="Times,serif" font-size="14.00">pipe:[20745046]#ServerID_834d81eb81b3</text>
</g>
<!-- 1_fwatchdog#ServerID_834d81eb81b3&#45;&gt;pipe:[20745046]#ServerID_834d81eb81b3 -->
<g id="edge30" class="edge"><title>1_fwatchdog#ServerID_834d81eb81b3&#45;&gt;pipe:[20745046]#ServerID_834d81eb81b3</title>
<path fill="none" stroke="black" d="M7877.89,-189.952C7968.42,-175.098 8098.97,-153.676 8189.17,-138.873"/>
<polygon fill="black" stroke="black" points="8189.84,-142.31 8199.15,-137.237 8188.71,-135.402 8189.84,-142.31"/>
<text text-anchor="middle" x="8083" y="-160.8" font-family="Times,serif" font-size="14.00">write</text>
</g>
<!-- localhost:3000#ServerID_834d81eb81b3&#45;&gt;1_fwatchdog#ServerID_834d81eb81b3 -->
<g id="edge27" class="edge"><title>localhost:3000#ServerID_834d81eb81b3&#45;&gt;1_fwatchdog#ServerID_834d81eb81b3</title>
<path fill="none" stroke="black" d="M7772.1,-139.117C7771.25,-148.769 7770.53,-161.053 7771,-172 7771.11,-174.559 7771.26,-177.221 7771.45,-179.882"/>
<polygon fill="black" stroke="black" points="7767.96,-180.237 7772.24,-189.929 7774.94,-179.683 7767.96,-180.237"/>
<text text-anchor="middle" x="7787.5" y="-160.8" font-family="Times,serif" font-size="14.00">read</text>
</g>
<!-- 10.1.80.1:1594#ServerID_OuterContainerID&#45;&gt;10.1.80.93:8080#ServerID_OuterContainerID -->
<g id="edge31" class="edge"><title>10.1.80.1:1594#ServerID_OuterContainerID&#45;&gt;10.1.80.93:8080#ServerID_OuterContainerID</title>
<path fill="none" stroke="black" d="M2874.48,-225.988C2874.15,-246.564 2870.57,-281.173 2852,-303 2846.42,-309.552 2839.43,-314.896 2831.86,-319.251"/>
<polygon fill="black" stroke="black" points="2830.05,-316.243 2822.76,-323.922 2833.25,-322.47 2830.05,-316.243"/>
<text text-anchor="middle" x="2881" y="-291.8" font-family="Times,serif" font-size="14.00">POST</text>
</g>
</g>
</svg>
