<?xml version="1.0" encoding="UTF-8" standalone="no"?>
<!DOCTYPE svg PUBLIC "-//W3C//DTD SVG 1.1//EN"
 "http://www.w3.org/Graphics/SVG/1.1/DTD/svg11.dtd">
<!-- Generated by graphviz version 2.38.0 (20140413.2041)
 -->
<!-- Title: G Pages: 1 -->
<svg width="4825pt" height="510pt"
 viewBox="0.00 0.00 4825.00 510.00" xmlns="http://www.w3.org/2000/svg" xmlns:xlink="http://www.w3.org/1999/xlink">
<g id="graph0" class="graph" transform="scale(1 1) rotate(0) translate(4 506)">
<title>G</title>
<polygon fill="white" stroke="none" points="-4,4 -4,-506 4821,-506 4821,4 -4,4"/>
<g id="clust1" class="cluster"><title>clusterServerID_1f4f60deee3d</title>
<polygon fill="none" stroke="black" points="3719,-8 3719,-278 4809,-278 4809,-8 3719,-8"/>
<text text-anchor="middle" x="4264" y="-262.8" font-family="Times,serif" font-size="14.00">clusterServerID_1f4f60deee3d</text>
</g>
<g id="clust2" class="cluster"><title>clusterServerID_667d78fb58&#45;847xt</title>
<polygon fill="none" stroke="black" points="853,-311 853,-386 1193,-386 1193,-311 853,-311"/>
<text text-anchor="middle" x="1023" y="-370.8" font-family="Times,serif" font-size="14.00">clusterServerID_667d78fb58&#45;847xt</text>
</g>
<g id="clust3" class="cluster"><title>clusterServerID_6dcbcc88d5&#45;mp48t</title>
<polygon fill="none" stroke="black" points="3363,-95 3363,-170 3711,-170 3711,-95 3363,-95"/>
<text text-anchor="middle" x="3537" y="-154.8" font-family="Times,serif" font-size="14.00">clusterServerID_6dcbcc88d5&#45;mp48t</text>
</g>
<g id="clust4" class="cluster"><title>clusterServerID_OuterContainerID</title>
<polygon fill="none" stroke="black" points="8,-95 8,-278 3355,-278 3355,-95 8,-95"/>
<text text-anchor="middle" x="1681.5" y="-262.8" font-family="Times,serif" font-size="14.00">clusterServerID_OuterContainerID</text>
</g>
<g id="clust5" class="cluster"><title>clusterServerID_e47e2b15aff4</title>
<polygon fill="none" stroke="black" points="1578,-311 1578,-494 2939,-494 2939,-311 1578,-311"/>
<text text-anchor="middle" x="2258.5" y="-478.8" font-family="Times,serif" font-size="14.00">clusterServerID_e47e2b15aff4</text>
</g>
<!-- 1_fwatchdog#ServerID_667d78fb58&#45;847xt -->
<g id="node1" class="node"><title>1_fwatchdog#ServerID_667d78fb58&#45;847xt</title>
<polygon fill="none" stroke="black" points="1185,-355 861,-355 861,-319 1185,-319 1185,-355"/>
<text text-anchor="middle" x="1023" y="-333.3" font-family="Times,serif" font-size="14.00">1_fwatchdog#ServerID_667d78fb58&#45;847xt</text>
</g>
<!-- 10.1.80.183:36014#ServerID_OuterContainerID -->
<g id="node2" class="node"><title>10.1.80.183:36014#ServerID_OuterContainerID</title>
<polygon fill="none" stroke="black" points="1024,-247 688.515,-229 1024,-211 1359.48,-229 1024,-247"/>
<text text-anchor="middle" x="1024" y="-225.3" font-family="Times,serif" font-size="14.00">10.1.80.183:36014#ServerID_OuterContainerID</text>
</g>
<!-- 1_fwatchdog#ServerID_667d78fb58&#45;847xt&#45;&gt;10.1.80.183:36014#ServerID_OuterContainerID -->
<g id="edge1" class="edge"><title>1_fwatchdog#ServerID_667d78fb58&#45;847xt&#45;&gt;10.1.80.183:36014#ServerID_OuterContainerID</title>
<path fill="none" stroke="black" d="M987.261,-318.861C980.725,-314.032 974.784,-308.108 971,-301 967.867,-295.115 968.534,-292.194 971,-286 976.002,-273.439 985.306,-262.073 994.74,-252.914"/>
<polygon fill="black" stroke="black" points="997.224,-255.386 1002.25,-246.061 992.507,-250.214 997.224,-255.386"/>
<text text-anchor="middle" x="1013" y="-289.8" font-family="Times,serif" font-size="14.00">RESPONSE</text>
</g>
<!-- 10.1.80.183:36014#ServerID_OuterContainerID&#45;&gt;1_fwatchdog#ServerID_667d78fb58&#45;847xt -->
<g id="edge5" class="edge"><title>10.1.80.183:36014#ServerID_OuterContainerID&#45;&gt;1_fwatchdog#ServerID_667d78fb58&#45;847xt</title>
<path fill="none" stroke="black" d="M1039.08,-246.48C1050.24,-260.767 1062.35,-282.067 1055,-301 1053.64,-304.507 1051.74,-307.876 1049.55,-311.046"/>
<polygon fill="black" stroke="black" points="1046.75,-308.944 1043.2,-318.928 1052.2,-313.335 1046.75,-308.944"/>
<text text-anchor="middle" x="1078" y="-289.8" font-family="Times,serif" font-size="14.00">POST</text>
</g>
<!-- 1_fwatchdog#ServerID_1f4f60deee3d -->
<g id="node14" class="node"><title>1_fwatchdog#ServerID_1f4f60deee3d</title>
<polygon fill="none" stroke="black" points="4099,-139 3809,-139 3809,-103 4099,-103 4099,-139"/>
<text text-anchor="middle" x="3954" y="-117.3" font-family="Times,serif" font-size="14.00">1_fwatchdog#ServerID_1f4f60deee3d</text>
</g>
<!-- 10.1.80.183:36014#ServerID_OuterContainerID&#45;&gt;1_fwatchdog#ServerID_1f4f60deee3d -->
<g id="edge20" class="edge"><title>10.1.80.183:36014#ServerID_OuterContainerID&#45;&gt;1_fwatchdog#ServerID_1f4f60deee3d</title>
<path fill="none" stroke="black" d="M1166.45,-218.641C1356.78,-206.613 1704.59,-186.292 2002,-178 2097.13,-175.348 3620.32,-179.637 3715,-170 3769.72,-164.43 3830.48,-152.145 3877.04,-141.398"/>
<polygon fill="black" stroke="black" points="3878.11,-144.742 3887.05,-139.06 3876.52,-137.925 3878.11,-144.742"/>
<text text-anchor="middle" x="2018.5" y="-181.8" font-family="Times,serif" font-size="14.00">read</text>
</g>
<!-- 10.1.80.183:52092#ServerID_OuterContainerID -->
<g id="node3" class="node"><title>10.1.80.183:52092#ServerID_OuterContainerID</title>
<polygon fill="none" stroke="black" points="1713,-247 1377.52,-229 1713,-211 2048.48,-229 1713,-247"/>
<text text-anchor="middle" x="1713" y="-225.3" font-family="Times,serif" font-size="14.00">10.1.80.183:52092#ServerID_OuterContainerID</text>
</g>
<!-- 1_fwatchdog#ServerID_6dcbcc88d5&#45;mp48t -->
<g id="node4" class="node"><title>1_fwatchdog#ServerID_6dcbcc88d5&#45;mp48t</title>
<polygon fill="none" stroke="black" points="3702.5,-139 3371.5,-139 3371.5,-103 3702.5,-103 3702.5,-139"/>
<text text-anchor="middle" x="3537" y="-117.3" font-family="Times,serif" font-size="14.00">1_fwatchdog#ServerID_6dcbcc88d5&#45;mp48t</text>
</g>
<!-- 10.1.80.183:52092#ServerID_OuterContainerID&#45;&gt;1_fwatchdog#ServerID_6dcbcc88d5&#45;mp48t -->
<g id="edge2" class="edge"><title>10.1.80.183:52092#ServerID_OuterContainerID&#45;&gt;1_fwatchdog#ServerID_6dcbcc88d5&#45;mp48t</title>
<path fill="none" stroke="black" d="M1857.16,-218.695C2045.23,-206.971 2384.57,-187.242 2675,-178 2750.97,-175.583 3283.71,-180.421 3359,-170 3399.11,-164.448 3443.05,-152.661 3477.23,-142.157"/>
<polygon fill="black" stroke="black" points="3478.56,-145.411 3487.06,-139.091 3476.47,-138.729 3478.56,-145.411"/>
<text text-anchor="middle" x="2695" y="-181.8" font-family="Times,serif" font-size="14.00">POST</text>
</g>
<!-- 1_fwatchdog#ServerID_e47e2b15aff4 -->
<g id="node6" class="node"><title>1_fwatchdog#ServerID_e47e2b15aff4</title>
<polygon fill="none" stroke="black" points="1952,-355 1662,-355 1662,-319 1952,-319 1952,-355"/>
<text text-anchor="middle" x="1807" y="-333.3" font-family="Times,serif" font-size="14.00">1_fwatchdog#ServerID_e47e2b15aff4</text>
</g>
<!-- 10.1.80.183:52092#ServerID_OuterContainerID&#45;&gt;1_fwatchdog#ServerID_e47e2b15aff4 -->
<g id="edge7" class="edge"><title>10.1.80.183:52092#ServerID_OuterContainerID&#45;&gt;1_fwatchdog#ServerID_e47e2b15aff4</title>
<path fill="none" stroke="black" d="M1727.45,-246.292C1742.86,-263.674 1767.46,-291.409 1785.22,-311.441"/>
<polygon fill="black" stroke="black" points="1782.64,-313.81 1791.9,-318.969 1787.88,-309.165 1782.64,-313.81"/>
<text text-anchor="middle" x="1790.5" y="-289.8" font-family="Times,serif" font-size="14.00">read</text>
</g>
<!-- 1_fwatchdog#ServerID_6dcbcc88d5&#45;mp48t&#45;&gt;10.1.80.183:52092#ServerID_OuterContainerID -->
<g id="edge12" class="edge"><title>1_fwatchdog#ServerID_6dcbcc88d5&#45;mp48t&#45;&gt;10.1.80.183:52092#ServerID_OuterContainerID</title>
<path fill="none" stroke="black" d="M3487.45,-139.033C3452.12,-150.266 3403.24,-163.978 3359,-170 3297.56,-178.362 2304.92,-174.863 2243,-178 2096.58,-185.418 1928.11,-202.841 1821.14,-215.022"/>
<polygon fill="black" stroke="black" points="1820.52,-211.57 1810.99,-216.184 1821.32,-218.525 1820.52,-211.57"/>
<text text-anchor="middle" x="2285" y="-181.8" font-family="Times,serif" font-size="14.00">RESPONSE</text>
</g>
<!-- gateway:8080#ServerID_OuterContainerID -->
<g id="node7" class="node"><title>gateway:8080#ServerID_OuterContainerID</title>
<polygon fill="none" stroke="black" points="2371,-247 2066.52,-229 2371,-211 2675.48,-229 2371,-247"/>
<text text-anchor="middle" x="2371" y="-225.3" font-family="Times,serif" font-size="14.00">gateway:8080#ServerID_OuterContainerID</text>
</g>
<!-- 1_fwatchdog#ServerID_6dcbcc88d5&#45;mp48t&#45;&gt;gateway:8080#ServerID_OuterContainerID -->
<g id="edge4" class="edge"><title>1_fwatchdog#ServerID_6dcbcc88d5&#45;mp48t&#45;&gt;gateway:8080#ServerID_OuterContainerID</title>
<path fill="none" stroke="black" d="M3485.04,-139.034C3449.87,-149.814 3402.12,-162.996 3359,-170 3338.82,-173.277 2802.49,-203.743 2528.68,-219.156"/>
<polygon fill="black" stroke="black" points="2528.44,-215.664 2518.65,-219.721 2528.83,-222.653 2528.44,-215.664"/>
<text text-anchor="middle" x="3246" y="-181.8" font-family="Times,serif" font-size="14.00">POST</text>
</g>
<!-- 10.1.80.183:8080#ServerID_OuterContainerID -->
<g id="node8" class="node"><title>10.1.80.183:8080#ServerID_OuterContainerID</title>
<polygon fill="none" stroke="black" points="343,-247 15.5599,-229 343,-211 670.44,-229 343,-247"/>
<text text-anchor="middle" x="343" y="-225.3" font-family="Times,serif" font-size="14.00">10.1.80.183:8080#ServerID_OuterContainerID</text>
</g>
<!-- 1_fwatchdog#ServerID_6dcbcc88d5&#45;mp48t&#45;&gt;10.1.80.183:8080#ServerID_OuterContainerID -->
<g id="edge6" class="edge"><title>1_fwatchdog#ServerID_6dcbcc88d5&#45;mp48t&#45;&gt;10.1.80.183:8080#ServerID_OuterContainerID</title>
<path fill="none" stroke="black" d="M3487.45,-139.07C3452.13,-150.32 3403.25,-164.037 3359,-170 3310.08,-176.592 1631.35,-176.986 1582,-178 1381.46,-182.119 880.389,-202.28 680,-211 624.766,-213.403 564.455,-216.345 510.319,-219.102"/>
<polygon fill="black" stroke="black" points="510.093,-215.609 500.285,-219.614 510.45,-222.6 510.093,-215.609"/>
<text text-anchor="middle" x="1602" y="-181.8" font-family="Times,serif" font-size="14.00">POST</text>
</g>
<!-- localhost:3000#ServerID_e47e2b15aff4 -->
<g id="node5" class="node"><title>localhost:3000#ServerID_e47e2b15aff4</title>
<polygon fill="none" stroke="black" points="1865,-463 1585.65,-445 1865,-427 2144.35,-445 1865,-463"/>
<text text-anchor="middle" x="1865" y="-441.3" font-family="Times,serif" font-size="14.00">localhost:3000#ServerID_e47e2b15aff4</text>
</g>
<!-- localhost:3000#ServerID_e47e2b15aff4&#45;&gt;1_fwatchdog#ServerID_e47e2b15aff4 -->
<g id="edge3" class="edge"><title>localhost:3000#ServerID_e47e2b15aff4&#45;&gt;1_fwatchdog#ServerID_e47e2b15aff4</title>
<path fill="none" stroke="black" d="M1851.22,-427.857C1846.68,-422.118 1841.83,-415.472 1838,-409 1829.68,-394.935 1822.27,-378.227 1816.79,-364.553"/>
<polygon fill="black" stroke="black" points="1820.04,-363.26 1813.15,-355.214 1813.52,-365.802 1820.04,-363.26"/>
<text text-anchor="middle" x="1854.5" y="-397.8" font-family="Times,serif" font-size="14.00">read</text>
</g>
<!-- 9_node#ServerID_e47e2b15aff4 -->
<g id="node9" class="node"><title>9_node#ServerID_e47e2b15aff4</title>
<polygon fill="none" stroke="black" points="2672,-355 2422,-355 2422,-319 2672,-319 2672,-355"/>
<text text-anchor="middle" x="2547" y="-333.3" font-family="Times,serif" font-size="14.00">9_node#ServerID_e47e2b15aff4</text>
</g>
<!-- localhost:3000#ServerID_e47e2b15aff4&#45;&gt;9_node#ServerID_e47e2b15aff4 -->
<g id="edge13" class="edge"><title>localhost:3000#ServerID_e47e2b15aff4&#45;&gt;9_node#ServerID_e47e2b15aff4</title>
<path fill="none" stroke="black" d="M1942.57,-431.944C2061.05,-413.529 2288,-378.255 2427.59,-356.56"/>
<polygon fill="black" stroke="black" points="2428.14,-360.016 2437.48,-355.022 2427.06,-353.099 2428.14,-360.016"/>
<text text-anchor="middle" x="2202.5" y="-397.8" font-family="Times,serif" font-size="14.00">read</text>
</g>
<!-- 1_fwatchdog#ServerID_e47e2b15aff4&#45;&gt;localhost:3000#ServerID_e47e2b15aff4 -->
<g id="edge8" class="edge"><title>1_fwatchdog#ServerID_e47e2b15aff4&#45;&gt;localhost:3000#ServerID_e47e2b15aff4</title>
<path fill="none" stroke="black" d="M1836.13,-355.202C1849.4,-364.775 1863.74,-378.001 1871,-394 1874.23,-401.116 1874.47,-409.357 1873.42,-417.071"/>
<polygon fill="black" stroke="black" points="1869.94,-416.606 1871.34,-427.108 1876.8,-418.025 1869.94,-416.606"/>
<text text-anchor="middle" x="1903" y="-397.8" font-family="Times,serif" font-size="14.00">connect</text>
</g>
<!-- 1_fwatchdog#ServerID_e47e2b15aff4&#45;&gt;localhost:3000#ServerID_e47e2b15aff4 -->
<g id="edge9" class="edge"><title>1_fwatchdog#ServerID_e47e2b15aff4&#45;&gt;localhost:3000#ServerID_e47e2b15aff4</title>
<path fill="none" stroke="black" d="M1795.11,-355.26C1786.28,-370.431 1777.43,-392.586 1788,-409 1792.1,-415.366 1797.67,-420.587 1803.96,-424.867"/>
<polygon fill="black" stroke="black" points="1802.5,-428.075 1812.9,-430.138 1806.06,-422.045 1802.5,-428.075"/>
<text text-anchor="middle" x="1807" y="-397.8" font-family="Times,serif" font-size="14.00">write</text>
</g>
<!-- gateway:8080#ServerID_OuterContainerID&#45;&gt;1_fwatchdog#ServerID_6dcbcc88d5&#45;mp48t -->
<g id="edge11" class="edge"><title>gateway:8080#ServerID_OuterContainerID&#45;&gt;1_fwatchdog#ServerID_6dcbcc88d5&#45;mp48t</title>
<path fill="none" stroke="black" d="M2469.06,-216.728C2577.32,-204.801 2756.84,-186.547 2912,-178 3011.2,-172.536 3260.63,-183.927 3359,-170 3399.09,-164.324 3443.03,-152.535 3477.22,-142.062"/>
<polygon fill="black" stroke="black" points="3478.54,-145.317 3487.05,-139.006 3476.46,-138.633 3478.54,-145.317"/>
<text text-anchor="middle" x="2954" y="-181.8" font-family="Times,serif" font-size="14.00">RESPONSE</text>
</g>
<!-- 10.1.80.183:8080#ServerID_OuterContainerID&#45;&gt;1_fwatchdog#ServerID_6dcbcc88d5&#45;mp48t -->
<g id="edge10" class="edge"><title>10.1.80.183:8080#ServerID_OuterContainerID&#45;&gt;1_fwatchdog#ServerID_6dcbcc88d5&#45;mp48t</title>
<path fill="none" stroke="black" d="M458.679,-217.321C597.375,-205.078 836.934,-185.707 1043,-178 1107.29,-175.596 3295.24,-178.558 3359,-170 3399.28,-164.594 3443.39,-152.743 3477.62,-142.17"/>
<polygon fill="black" stroke="black" points="3478.96,-145.417 3487.46,-139.084 3476.87,-138.738 3478.96,-145.417"/>
<text text-anchor="middle" x="1085" y="-181.8" font-family="Times,serif" font-size="14.00">RESPONSE</text>
</g>
<!-- 10.1.80.1:27335#ServerID_OuterContainerID -->
<g id="node18" class="node"><title>10.1.80.1:27335#ServerID_OuterContainerID</title>
<polygon fill="none" stroke="black" points="335,-139 16.1049,-121 335,-103 653.895,-121 335,-139"/>
<text text-anchor="middle" x="335" y="-117.3" font-family="Times,serif" font-size="14.00">10.1.80.1:27335#ServerID_OuterContainerID</text>
</g>
<!-- 10.1.80.183:8080#ServerID_OuterContainerID&#45;&gt;10.1.80.1:27335#ServerID_OuterContainerID -->
<g id="edge27" class="edge"><title>10.1.80.183:8080#ServerID_OuterContainerID&#45;&gt;10.1.80.1:27335#ServerID_OuterContainerID</title>
<path fill="none" stroke="black" d="M303.089,-213.103C294.688,-208.04 286.895,-201.453 282,-193 271.93,-175.613 285.936,-157.484 302.069,-143.897"/>
<polygon fill="black" stroke="black" points="304.364,-146.546 310.064,-137.615 300.039,-141.041 304.364,-146.546"/>
<text text-anchor="middle" x="324" y="-181.8" font-family="Times,serif" font-size="14.00">RESPONSE</text>
</g>
<!-- 10.0.88.125:31112#ServerID_OuterContainerID -->
<g id="node19" class="node"><title>10.0.88.125:31112#ServerID_OuterContainerID</title>
<polygon fill="none" stroke="black" points="1007,-139 671.515,-121 1007,-103 1342.48,-121 1007,-139"/>
<text text-anchor="middle" x="1007" y="-117.3" font-family="Times,serif" font-size="14.00">10.0.88.125:31112#ServerID_OuterContainerID</text>
</g>
<!-- 10.1.80.183:8080#ServerID_OuterContainerID&#45;&gt;10.0.88.125:31112#ServerID_OuterContainerID -->
<g id="edge28" class="edge"><title>10.1.80.183:8080#ServerID_OuterContainerID&#45;&gt;10.0.88.125:31112#ServerID_OuterContainerID</title>
<path fill="none" stroke="black" d="M422.434,-215.319C546.818,-195.463 786.788,-157.154 917.247,-136.328"/>
<polygon fill="black" stroke="black" points="917.893,-139.769 927.216,-134.737 916.789,-132.857 917.893,-139.769"/>
<text text-anchor="middle" x="698" y="-181.8" font-family="Times,serif" font-size="14.00">RESPONSE</text>
</g>
<!-- 9_node#ServerID_e47e2b15aff4&#45;&gt;gateway:8080#ServerID_OuterContainerID -->
<g id="edge18" class="edge"><title>9_node#ServerID_e47e2b15aff4&#45;&gt;gateway:8080#ServerID_OuterContainerID</title>
<path fill="none" stroke="black" d="M2518.72,-318.969C2487.99,-300.46 2438.86,-270.87 2405.79,-250.951"/>
<polygon fill="black" stroke="black" points="2407.29,-247.768 2396.91,-245.607 2403.67,-253.764 2407.29,-247.768"/>
<text text-anchor="middle" x="2515" y="-289.8" font-family="Times,serif" font-size="14.00">connect</text>
</g>
<!-- 10.152.183.10:53#ServerID_OuterContainerID -->
<g id="node12" class="node"><title>10.152.183.10:53#ServerID_OuterContainerID</title>
<polygon fill="none" stroke="black" points="3020,-247 2692.56,-229 3020,-211 3347.44,-229 3020,-247"/>
<text text-anchor="middle" x="3020" y="-225.3" font-family="Times,serif" font-size="14.00">10.152.183.10:53#ServerID_OuterContainerID</text>
</g>
<!-- 9_node#ServerID_e47e2b15aff4&#45;&gt;10.152.183.10:53#ServerID_OuterContainerID -->
<g id="edge16" class="edge"><title>9_node#ServerID_e47e2b15aff4&#45;&gt;10.152.183.10:53#ServerID_OuterContainerID</title>
<path fill="none" stroke="black" d="M2623,-318.969C2712.89,-298.824 2861.36,-265.55 2949.01,-245.908"/>
<polygon fill="black" stroke="black" points="2949.88,-249.302 2958.87,-243.699 2948.35,-242.471 2949.88,-249.302"/>
<text text-anchor="middle" x="2794.5" y="-289.8" font-family="Times,serif" font-size="14.00">sendto</text>
</g>
<!-- /etc/hosts#ServerID_e47e2b15aff4 -->
<g id="node10" class="node"><title>/etc/hosts#ServerID_e47e2b15aff4</title>
<ellipse fill="none" stroke="black" cx="2756" cy="-445" rx="174.669" ry="18"/>
<text text-anchor="middle" x="2756" y="-441.3" font-family="Times,serif" font-size="14.00">/etc/hosts#ServerID_e47e2b15aff4</text>
</g>
<!-- /etc/hosts#ServerID_e47e2b15aff4&#45;&gt;9_node#ServerID_e47e2b15aff4 -->
<g id="edge14" class="edge"><title>/etc/hosts#ServerID_e47e2b15aff4&#45;&gt;9_node#ServerID_e47e2b15aff4</title>
<path fill="none" stroke="black" d="M2722.88,-427.204C2686.87,-408.937 2629.18,-379.679 2589.76,-359.687"/>
<polygon fill="black" stroke="black" points="2591.16,-356.47 2580.65,-355.068 2587.99,-362.713 2591.16,-356.47"/>
<text text-anchor="middle" x="2699.5" y="-397.8" font-family="Times,serif" font-size="14.00">read</text>
</g>
<!-- /etc/resolv.conf#ServerID_e47e2b15aff4 -->
<g id="node11" class="node"><title>/etc/resolv.conf#ServerID_e47e2b15aff4</title>
<ellipse fill="none" stroke="black" cx="2363" cy="-445" rx="200.365" ry="18"/>
<text text-anchor="middle" x="2363" y="-441.3" font-family="Times,serif" font-size="14.00">/etc/resolv.conf#ServerID_e47e2b15aff4</text>
</g>
<!-- /etc/resolv.conf#ServerID_e47e2b15aff4&#45;&gt;9_node#ServerID_e47e2b15aff4 -->
<g id="edge15" class="edge"><title>/etc/resolv.conf#ServerID_e47e2b15aff4&#45;&gt;9_node#ServerID_e47e2b15aff4</title>
<path fill="none" stroke="black" d="M2392.56,-426.969C2423.99,-408.865 2473.82,-380.158 2508.34,-360.271"/>
<polygon fill="black" stroke="black" points="2510.29,-363.189 2517.21,-355.164 2506.79,-357.123 2510.29,-363.189"/>
<text text-anchor="middle" x="2466.5" y="-397.8" font-family="Times,serif" font-size="14.00">read</text>
</g>
<!-- 10.152.183.10:53#ServerID_OuterContainerID&#45;&gt;9_node#ServerID_e47e2b15aff4 -->
<g id="edge17" class="edge"><title>10.152.183.10:53#ServerID_OuterContainerID&#45;&gt;9_node#ServerID_e47e2b15aff4</title>
<path fill="none" stroke="black" d="M2985.13,-245.219C2946.3,-261.533 2881.32,-286.973 2823,-301 2777.7,-311.894 2727.36,-319.548 2682.2,-324.856"/>
<polygon fill="black" stroke="black" points="2681.58,-321.404 2672.05,-326.021 2682.38,-328.358 2681.58,-321.404"/>
<text text-anchor="middle" x="2906" y="-289.8" font-family="Times,serif" font-size="14.00">recvfrom</text>
</g>
<!-- localhost:3000#ServerID_1f4f60deee3d -->
<g id="node13" class="node"><title>localhost:3000#ServerID_1f4f60deee3d</title>
<polygon fill="none" stroke="black" points="4006,-247 3726.65,-229 4006,-211 4285.35,-229 4006,-247"/>
<text text-anchor="middle" x="4006" y="-225.3" font-family="Times,serif" font-size="14.00">localhost:3000#ServerID_1f4f60deee3d</text>
</g>
<!-- localhost:3000#ServerID_1f4f60deee3d&#45;&gt;1_fwatchdog#ServerID_1f4f60deee3d -->
<g id="edge19" class="edge"><title>localhost:3000#ServerID_1f4f60deee3d&#45;&gt;1_fwatchdog#ServerID_1f4f60deee3d</title>
<path fill="none" stroke="black" d="M4013.22,-211.203C4016.42,-201.211 4018.55,-188.481 4014,-178 4008.52,-165.399 3998.66,-154.346 3988.49,-145.463"/>
<polygon fill="black" stroke="black" points="3990.68,-142.73 3980.73,-139.103 3986.25,-148.146 3990.68,-142.73"/>
<text text-anchor="middle" x="4032.5" y="-181.8" font-family="Times,serif" font-size="14.00">read</text>
</g>
<!-- 10_node#ServerID_1f4f60deee3d -->
<g id="node16" class="node"><title>10_node#ServerID_1f4f60deee3d</title>
<polygon fill="none" stroke="black" points="4511.5,-139 4252.5,-139 4252.5,-103 4511.5,-103 4511.5,-139"/>
<text text-anchor="middle" x="4382" y="-117.3" font-family="Times,serif" font-size="14.00">10_node#ServerID_1f4f60deee3d</text>
</g>
<!-- localhost:3000#ServerID_1f4f60deee3d&#45;&gt;10_node#ServerID_1f4f60deee3d -->
<g id="edge24" class="edge"><title>localhost:3000#ServerID_1f4f60deee3d&#45;&gt;10_node#ServerID_1f4f60deee3d</title>
<path fill="none" stroke="black" d="M4055.16,-214.142C4120.69,-195.667 4237.08,-162.854 4311.83,-141.781"/>
<polygon fill="black" stroke="black" points="4312.97,-145.098 4321.64,-139.016 4311.07,-138.361 4312.97,-145.098"/>
<text text-anchor="middle" x="4198.5" y="-181.8" font-family="Times,serif" font-size="14.00">read</text>
</g>
<!-- 1_fwatchdog#ServerID_1f4f60deee3d&#45;&gt;localhost:3000#ServerID_1f4f60deee3d -->
<g id="edge21" class="edge"><title>1_fwatchdog#ServerID_1f4f60deee3d&#45;&gt;localhost:3000#ServerID_1f4f60deee3d</title>
<path fill="none" stroke="black" d="M3923.87,-139.034C3902.89,-153.13 3880.97,-173.871 3895,-193 3900.62,-200.659 3907.91,-206.685 3916.08,-211.42"/>
<polygon fill="black" stroke="black" points="3914.75,-214.668 3925.25,-216.068 3917.91,-208.424 3914.75,-214.668"/>
<text text-anchor="middle" x="3924" y="-181.8" font-family="Times,serif" font-size="14.00">connect</text>
</g>
<!-- 1_fwatchdog#ServerID_1f4f60deee3d&#45;&gt;localhost:3000#ServerID_1f4f60deee3d -->
<g id="edge22" class="edge"><title>1_fwatchdog#ServerID_1f4f60deee3d&#45;&gt;localhost:3000#ServerID_1f4f60deee3d</title>
<path fill="none" stroke="black" d="M3955.83,-139.279C3957.99,-154.26 3962.57,-176.127 3972,-193 3974.25,-197.019 3977.07,-200.909 3980.13,-204.543"/>
<polygon fill="black" stroke="black" points="3977.7,-207.071 3987.05,-212.042 3982.84,-202.321 3977.7,-207.071"/>
<text text-anchor="middle" x="3991" y="-181.8" font-family="Times,serif" font-size="14.00">write</text>
</g>
<!-- pipe:[77303348]#ServerID_1f4f60deee3d -->
<g id="node17" class="node"><title>pipe:[77303348]#ServerID_1f4f60deee3d</title>
<ellipse fill="none" stroke="black" cx="3954" cy="-34" rx="206.063" ry="18"/>
<text text-anchor="middle" x="3954" y="-30.3" font-family="Times,serif" font-size="14.00">pipe:[77303348]#ServerID_1f4f60deee3d</text>
</g>
<!-- 1_fwatchdog#ServerID_1f4f60deee3d&#45;&gt;pipe:[77303348]#ServerID_1f4f60deee3d -->
<g id="edge25" class="edge"><title>1_fwatchdog#ServerID_1f4f60deee3d&#45;&gt;pipe:[77303348]#ServerID_1f4f60deee3d</title>
<path fill="none" stroke="black" d="M3954,-102.799C3954,-91.1626 3954,-75.5479 3954,-62.2368"/>
<polygon fill="black" stroke="black" points="3957.5,-62.1754 3954,-52.1754 3950.5,-62.1755 3957.5,-62.1754"/>
<text text-anchor="middle" x="3973" y="-73.8" font-family="Times,serif" font-size="14.00">write</text>
</g>
<!-- /home/app/credentials.txt#ServerID_1f4f60deee3d -->
<g id="node15" class="node"><title>/home/app/credentials.txt#ServerID_1f4f60deee3d</title>
<ellipse fill="none" stroke="black" cx="4552" cy="-229" rx="248.856" ry="18"/>
<text text-anchor="middle" x="4552" y="-225.3" font-family="Times,serif" font-size="14.00">/home/app/credentials.txt#ServerID_1f4f60deee3d</text>
</g>
<!-- /home/app/credentials.txt#ServerID_1f4f60deee3d&#45;&gt;10_node#ServerID_1f4f60deee3d -->
<g id="edge23" class="edge"><title>/home/app/credentials.txt#ServerID_1f4f60deee3d&#45;&gt;10_node#ServerID_1f4f60deee3d</title>
<path fill="none" stroke="black" d="M4524.69,-210.969C4495.77,-192.942 4450,-164.402 4418.13,-144.525"/>
<polygon fill="black" stroke="black" points="4419.86,-141.485 4409.53,-139.164 4416.16,-147.425 4419.86,-141.485"/>
<text text-anchor="middle" x="4508.5" y="-181.8" font-family="Times,serif" font-size="14.00">read</text>
</g>
<!-- 10.1.80.1:27335#ServerID_OuterContainerID&#45;&gt;10.1.80.183:8080#ServerID_OuterContainerID -->
<g id="edge26" class="edge"><title>10.1.80.1:27335#ServerID_OuterContainerID&#45;&gt;10.1.80.183:8080#ServerID_OuterContainerID</title>
<path fill="none" stroke="black" d="M348.743,-138.449C356.653,-149.019 365.828,-163.453 370,-178 371.838,-184.408 372.151,-186.69 370,-193 368.79,-196.55 367.057,-200.021 365.047,-203.312"/>
<polygon fill="black" stroke="black" points="362.147,-201.351 359.24,-211.54 367.866,-205.387 362.147,-201.351"/>
<text text-anchor="middle" x="392" y="-181.8" font-family="Times,serif" font-size="14.00">POST</text>
</g>
</g>
</svg>
