<?xml version="1.0" encoding="UTF-8" standalone="no"?>
<!DOCTYPE svg PUBLIC "-//W3C//DTD SVG 1.1//EN"
 "http://www.w3.org/Graphics/SVG/1.1/DTD/svg11.dtd">
<!-- Generated by graphviz version 2.38.0 (20140413.2041)
 -->
<!-- Title: G Pages: 1 -->
<svg width="6398pt" height="906pt"
 viewBox="0.00 0.00 6398.00 906.00" xmlns="http://www.w3.org/2000/svg" xmlns:xlink="http://www.w3.org/1999/xlink">
<g id="graph0" class="graph" transform="scale(1 1) rotate(0) translate(4 902)">
<title>G</title>
<polygon fill="white" stroke="none" points="-4,4 -4,-902 6394,-902 6394,4 -4,4"/>
<g id="clust1" class="cluster"><title>clusterServerID_667d78fb58&#45;2fhs5</title>
<polygon fill="none" stroke="black" points="853,-792 853,-890 1193,-890 1193,-792 853,-792"/>
<text text-anchor="middle" x="1023" y="-874.8" font-family="Times,serif" font-size="14.00">clusterServerID_667d78fb58&#45;2fhs5</text>
</g>
<g id="clust2" class="cluster"><title>clusterServerID_6dcbcc88d5&#45;4vpdn</title>
<polygon fill="none" stroke="black" points="4915,-530 4915,-628 5259,-628 5259,-530 4915,-530"/>
<text text-anchor="middle" x="5087" y="-612.8" font-family="Times,serif" font-size="14.00">clusterServerID_6dcbcc88d5&#45;4vpdn</text>
</g>
<g id="clust3" class="cluster"><title>clusterServerID_79226724f3b6</title>
<polygon fill="none" stroke="black" points="3363,-8 3363,-628 4907,-628 4907,-8 3363,-8"/>
<text text-anchor="middle" x="4135" y="-612.8" font-family="Times,serif" font-size="14.00">clusterServerID_79226724f3b6</text>
</g>
<g id="clust4" class="cluster"><title>clusterServerID_OuterContainerID</title>
<polygon fill="none" stroke="black" points="8,-530 8,-759 3355,-759 3355,-530 8,-530"/>
<text text-anchor="middle" x="1681.5" y="-743.8" font-family="Times,serif" font-size="14.00">clusterServerID_OuterContainerID</text>
</g>
<g id="clust5" class="cluster"><title>clusterServerID_d4de233c55aa</title>
<polygon fill="none" stroke="black" points="5267,-443 5267,-759 6382,-759 6382,-443 5267,-443"/>
<text text-anchor="middle" x="5824.5" y="-743.8" font-family="Times,serif" font-size="14.00">clusterServerID_d4de233c55aa</text>
</g>
<!-- 1_fwatchdog#ServerID_667d78fb58&#45;2fhs5 -->
<g id="node1" class="node"><title>1_fwatchdog#ServerID_667d78fb58&#45;2fhs5</title>
<polygon fill="none" stroke="black" points="1184.5,-836 861.5,-836 861.5,-800 1184.5,-800 1184.5,-836"/>
<text text-anchor="middle" x="1023" y="-814.3" font-family="Times,serif" font-size="14.00">1_fwatchdog#ServerID_667d78fb58&#45;2fhs5</text>
</g>
<!-- 10.1.80.247:55796#ServerID_OuterContainerID -->
<g id="node2" class="node"><title>10.1.80.247:55796#ServerID_OuterContainerID</title>
<polygon fill="none" stroke="black" points="1024,-705 688.515,-687 1024,-669 1359.48,-687 1024,-705"/>
<text text-anchor="middle" x="1024" y="-683.3" font-family="Times,serif" font-size="14.00">10.1.80.247:55796#ServerID_OuterContainerID</text>
</g>
<!-- 1_fwatchdog#ServerID_667d78fb58&#45;2fhs5&#45;&gt;10.1.80.247:55796#ServerID_OuterContainerID -->
<g id="edge1" class="edge"><title>1_fwatchdog#ServerID_667d78fb58&#45;2fhs5&#45;&gt;10.1.80.247:55796#ServerID_OuterContainerID</title>
<path fill="none" stroke="black" d="M987.261,-799.861C980.725,-795.032 974.784,-789.108 971,-782 967.867,-776.115 969.059,-773.378 971,-767 977.151,-746.792 990.385,-727.057 1002.09,-712.367"/>
<polygon fill="black" stroke="black" points="1005.06,-714.27 1008.74,-704.335 999.665,-709.806 1005.06,-714.27"/>
<text text-anchor="middle" x="1013" y="-770.8" font-family="Times,serif" font-size="14.00">RESPONSE</text>
</g>
<!-- 10.1.80.247:55796#ServerID_OuterContainerID&#45;&gt;1_fwatchdog#ServerID_667d78fb58&#45;2fhs5 -->
<g id="edge9" class="edge"><title>10.1.80.247:55796#ServerID_OuterContainerID&#45;&gt;1_fwatchdog#ServerID_667d78fb58&#45;2fhs5</title>
<path fill="none" stroke="black" d="M1036.4,-704.484C1049.03,-723.397 1065.39,-755.248 1055,-782 1053.64,-785.507 1051.74,-788.876 1049.55,-792.046"/>
<polygon fill="black" stroke="black" points="1046.75,-789.944 1043.2,-799.928 1052.2,-794.335 1046.75,-789.944"/>
<text text-anchor="middle" x="1079" y="-770.8" font-family="Times,serif" font-size="14.00">POST</text>
</g>
<!-- 1_fwatchdog#ServerID_79226724f3b6 -->
<g id="node14" class="node"><title>1_fwatchdog#ServerID_79226724f3b6</title>
<polygon fill="none" stroke="black" points="3915,-574 3619,-574 3619,-538 3915,-538 3915,-574"/>
<text text-anchor="middle" x="3767" y="-552.3" font-family="Times,serif" font-size="14.00">1_fwatchdog#ServerID_79226724f3b6</text>
</g>
<!-- 10.1.80.247:55796#ServerID_OuterContainerID&#45;&gt;1_fwatchdog#ServerID_79226724f3b6 -->
<g id="edge17" class="edge"><title>10.1.80.247:55796#ServerID_OuterContainerID&#45;&gt;1_fwatchdog#ServerID_79226724f3b6</title>
<path fill="none" stroke="black" d="M1162.3,-676.413C1342.73,-664.387 1668.29,-644.334 1947,-636 2103.82,-631.311 3202.73,-641.942 3359,-628 3471.51,-617.962 3599.6,-593.502 3681.76,-576.104"/>
<polygon fill="black" stroke="black" points="3682.5,-579.526 3691.55,-574.019 3681.04,-572.679 3682.5,-579.526"/>
<text text-anchor="middle" x="1963.5" y="-639.8" font-family="Times,serif" font-size="14.00">read</text>
</g>
<!-- 10.1.80.247:54222#ServerID_OuterContainerID -->
<g id="node3" class="node"><title>10.1.80.247:54222#ServerID_OuterContainerID</title>
<polygon fill="none" stroke="black" points="1713,-705 1377.52,-687 1713,-669 2048.48,-687 1713,-705"/>
<text text-anchor="middle" x="1713" y="-683.3" font-family="Times,serif" font-size="14.00">10.1.80.247:54222#ServerID_OuterContainerID</text>
</g>
<!-- 1_fwatchdog#ServerID_6dcbcc88d5&#45;4vpdn -->
<g id="node4" class="node"><title>1_fwatchdog#ServerID_6dcbcc88d5&#45;4vpdn</title>
<polygon fill="none" stroke="black" points="5251.5,-574 4922.5,-574 4922.5,-538 5251.5,-538 5251.5,-574"/>
<text text-anchor="middle" x="5087" y="-552.3" font-family="Times,serif" font-size="14.00">1_fwatchdog#ServerID_6dcbcc88d5&#45;4vpdn</text>
</g>
<!-- 10.1.80.247:54222#ServerID_OuterContainerID&#45;&gt;1_fwatchdog#ServerID_6dcbcc88d5&#45;4vpdn -->
<g id="edge2" class="edge"><title>10.1.80.247:54222#ServerID_OuterContainerID&#45;&gt;1_fwatchdog#ServerID_6dcbcc88d5&#45;4vpdn</title>
<path fill="none" stroke="black" d="M1816.03,-674.519C1931.86,-662.218 2125.65,-643.456 2293,-636 2329.33,-634.382 4875.32,-634.983 4911,-628 4959.32,-618.543 5011.21,-595.931 5046.03,-578.746"/>
<polygon fill="black" stroke="black" points="5048.01,-581.668 5055.38,-574.058 5044.87,-575.411 5048.01,-581.668"/>
<text text-anchor="middle" x="2313" y="-639.8" font-family="Times,serif" font-size="14.00">POST</text>
</g>
<!-- 1_fwatchdog#ServerID_d4de233c55aa -->
<g id="node9" class="node"><title>1_fwatchdog#ServerID_d4de233c55aa</title>
<polygon fill="none" stroke="black" points="6373.5,-705 6076.5,-705 6076.5,-669 6373.5,-669 6373.5,-705"/>
<text text-anchor="middle" x="6225" y="-683.3" font-family="Times,serif" font-size="14.00">1_fwatchdog#ServerID_d4de233c55aa</text>
</g>
<!-- 10.1.80.247:54222#ServerID_OuterContainerID&#45;&gt;1_fwatchdog#ServerID_d4de233c55aa -->
<g id="edge11" class="edge"><title>10.1.80.247:54222#ServerID_OuterContainerID&#45;&gt;1_fwatchdog#ServerID_d4de233c55aa</title>
<path fill="none" stroke="black" d="M1767.72,-702.066C1835.3,-719.823 1954.08,-748.271 2058,-759 2168.8,-770.439 5959.18,-782.764 6068,-759 6110.93,-749.626 6156.15,-727.393 6186.98,-710.093"/>
<polygon fill="black" stroke="black" points="6188.72,-713.129 6195.67,-705.131 6185.25,-707.05 6188.72,-713.129"/>
<text text-anchor="middle" x="4062" y="-770.8" font-family="Times,serif" font-size="14.00">read</text>
</g>
<!-- 1_fwatchdog#ServerID_6dcbcc88d5&#45;4vpdn&#45;&gt;10.1.80.247:54222#ServerID_OuterContainerID -->
<g id="edge8" class="edge"><title>1_fwatchdog#ServerID_6dcbcc88d5&#45;4vpdn&#45;&gt;10.1.80.247:54222#ServerID_OuterContainerID</title>
<path fill="none" stroke="black" d="M5055.38,-574.053C5020.99,-591.554 4963.87,-617.643 4911,-628 4848.52,-640.241 2682.64,-634.134 2619,-636 2582.72,-637.064 2129.01,-662.516 1877.78,-676.685"/>
<polygon fill="black" stroke="black" points="1877.24,-673.21 1867.45,-677.268 1877.63,-680.199 1877.24,-673.21"/>
<text text-anchor="middle" x="2661" y="-639.8" font-family="Times,serif" font-size="14.00">RESPONSE</text>
</g>
<!-- gateway:8080#ServerID_OuterContainerID -->
<g id="node5" class="node"><title>gateway:8080#ServerID_OuterContainerID</title>
<polygon fill="none" stroke="black" points="2371,-705 2066.52,-687 2371,-669 2675.48,-687 2371,-705"/>
<text text-anchor="middle" x="2371" y="-683.3" font-family="Times,serif" font-size="14.00">gateway:8080#ServerID_OuterContainerID</text>
</g>
<!-- 1_fwatchdog#ServerID_6dcbcc88d5&#45;4vpdn&#45;&gt;gateway:8080#ServerID_OuterContainerID -->
<g id="edge3" class="edge"><title>1_fwatchdog#ServerID_6dcbcc88d5&#45;4vpdn&#45;&gt;gateway:8080#ServerID_OuterContainerID</title>
<path fill="none" stroke="black" d="M5055.37,-574.037C5020.99,-591.523 4963.86,-617.6 4911,-628 4868.4,-636.382 3391.4,-634.811 3348,-636 3052.64,-644.092 2979.08,-653.654 2684,-669 2633.92,-671.605 2579.34,-674.537 2529.98,-677.223"/>
<polygon fill="black" stroke="black" points="2529.65,-673.736 2519.86,-677.775 2530.03,-680.726 2529.65,-673.736"/>
<text text-anchor="middle" x="3368" y="-639.8" font-family="Times,serif" font-size="14.00">POST</text>
</g>
<!-- 10.1.80.247:8080#ServerID_OuterContainerID -->
<g id="node6" class="node"><title>10.1.80.247:8080#ServerID_OuterContainerID</title>
<polygon fill="none" stroke="black" points="343,-705 15.5599,-687 343,-669 670.44,-687 343,-705"/>
<text text-anchor="middle" x="343" y="-683.3" font-family="Times,serif" font-size="14.00">10.1.80.247:8080#ServerID_OuterContainerID</text>
</g>
<!-- 1_fwatchdog#ServerID_6dcbcc88d5&#45;4vpdn&#45;&gt;10.1.80.247:8080#ServerID_OuterContainerID -->
<g id="edge5" class="edge"><title>1_fwatchdog#ServerID_6dcbcc88d5&#45;4vpdn&#45;&gt;10.1.80.247:8080#ServerID_OuterContainerID</title>
<path fill="none" stroke="black" d="M5055.38,-574.065C5021,-591.576 4963.87,-617.672 4911,-628 4865.16,-636.955 1594.7,-635.04 1548,-636 1375.91,-639.539 1333,-644.448 1161,-651 947.228,-659.143 893.721,-659.611 680,-669 624.767,-671.426 564.457,-674.374 510.32,-677.129"/>
<polygon fill="black" stroke="black" points="510.094,-673.636 500.286,-677.641 510.451,-680.627 510.094,-673.636"/>
<text text-anchor="middle" x="1568" y="-639.8" font-family="Times,serif" font-size="14.00">POST</text>
</g>
<!-- gateway:8080#ServerID_OuterContainerID&#45;&gt;1_fwatchdog#ServerID_6dcbcc88d5&#45;4vpdn -->
<g id="edge6" class="edge"><title>gateway:8080#ServerID_OuterContainerID&#45;&gt;1_fwatchdog#ServerID_6dcbcc88d5&#45;4vpdn</title>
<path fill="none" stroke="black" d="M2466.99,-674.653C2575.9,-662.374 2758.93,-643.54 2917,-636 2972.33,-633.361 4856.65,-638.663 4911,-628 4959.32,-618.52 5011.2,-595.912 5046.02,-578.734"/>
<polygon fill="black" stroke="black" points="5048,-581.657 5055.38,-574.048 5044.87,-575.399 5048,-581.657"/>
<text text-anchor="middle" x="2959" y="-639.8" font-family="Times,serif" font-size="14.00">RESPONSE</text>
</g>
<!-- 10.1.80.247:8080#ServerID_OuterContainerID&#45;&gt;1_fwatchdog#ServerID_6dcbcc88d5&#45;4vpdn -->
<g id="edge4" class="edge"><title>10.1.80.247:8080#ServerID_OuterContainerID&#45;&gt;1_fwatchdog#ServerID_6dcbcc88d5&#45;4vpdn</title>
<path fill="none" stroke="black" d="M461.742,-675.493C606.781,-663.219 859.68,-643.62 1077,-636 1130.22,-634.134 4858.74,-638.201 4911,-628 4959.33,-618.567 5011.21,-595.95 5046.03,-578.758"/>
<polygon fill="black" stroke="black" points="5048.01,-581.68 5055.38,-574.068 5044.87,-575.423 5048.01,-581.68"/>
<text text-anchor="middle" x="1119" y="-639.8" font-family="Times,serif" font-size="14.00">RESPONSE</text>
</g>
<!-- 10.1.80.1:48418#ServerID_OuterContainerID -->
<g id="node26" class="node"><title>10.1.80.1:48418#ServerID_OuterContainerID</title>
<polygon fill="none" stroke="black" points="335,-574 16.1049,-556 335,-538 653.895,-556 335,-574"/>
<text text-anchor="middle" x="335" y="-552.3" font-family="Times,serif" font-size="14.00">10.1.80.1:48418#ServerID_OuterContainerID</text>
</g>
<!-- 10.1.80.247:8080#ServerID_OuterContainerID&#45;&gt;10.1.80.1:48418#ServerID_OuterContainerID -->
<g id="edge33" class="edge"><title>10.1.80.247:8080#ServerID_OuterContainerID&#45;&gt;10.1.80.1:48418#ServerID_OuterContainerID</title>
<path fill="none" stroke="black" d="M345.928,-668.962C346.775,-663.269 347.582,-656.878 348,-651 349.618,-628.228 345.676,-602.566 341.718,-583.815"/>
<polygon fill="black" stroke="black" points="345.099,-582.899 339.491,-573.91 338.27,-584.434 345.099,-582.899"/>
<text text-anchor="middle" x="391" y="-639.8" font-family="Times,serif" font-size="14.00">RESPONSE</text>
</g>
<!-- 10.0.88.125:31112#ServerID_OuterContainerID -->
<g id="node27" class="node"><title>10.0.88.125:31112#ServerID_OuterContainerID</title>
<polygon fill="none" stroke="black" points="1007,-574 671.515,-556 1007,-538 1342.48,-556 1007,-574"/>
<text text-anchor="middle" x="1007" y="-552.3" font-family="Times,serif" font-size="14.00">10.0.88.125:31112#ServerID_OuterContainerID</text>
</g>
<!-- 10.1.80.247:8080#ServerID_OuterContainerID&#45;&gt;10.0.88.125:31112#ServerID_OuterContainerID -->
<g id="edge34" class="edge"><title>10.1.80.247:8080#ServerID_OuterContainerID&#45;&gt;10.0.88.125:31112#ServerID_OuterContainerID</title>
<path fill="none" stroke="black" d="M417.454,-673.032C482.37,-661.599 579.024,-644.274 663,-628 756.437,-609.893 863.805,-587.474 933.388,-572.731"/>
<polygon fill="black" stroke="black" points="934.318,-576.112 943.374,-570.613 932.866,-569.264 934.318,-576.112"/>
<text text-anchor="middle" x="662" y="-639.8" font-family="Times,serif" font-size="14.00">RESPONSE</text>
</g>
<!-- 10_node#ServerID_d4de233c55aa -->
<g id="node7" class="node"><title>10_node#ServerID_d4de233c55aa</title>
<polygon fill="none" stroke="black" points="5559,-574 5293,-574 5293,-538 5559,-538 5559,-574"/>
<text text-anchor="middle" x="5426" y="-552.3" font-family="Times,serif" font-size="14.00">10_node#ServerID_d4de233c55aa</text>
</g>
<!-- 10_node#ServerID_d4de233c55aa&#45;&gt;gateway:8080#ServerID_OuterContainerID -->
<g id="edge20" class="edge"><title>10_node#ServerID_d4de233c55aa&#45;&gt;gateway:8080#ServerID_OuterContainerID</title>
<path fill="none" stroke="black" d="M5396.87,-574.012C5365.17,-591.477 5312.37,-617.536 5263,-628 5231.53,-634.67 4137.16,-635.515 4105,-636 3947.09,-638.379 2841.81,-662.883 2684,-669 2631.49,-671.035 2574.06,-673.954 2522.89,-676.8"/>
<polygon fill="black" stroke="black" points="2522.54,-673.314 2512.75,-677.368 2522.93,-680.303 2522.54,-673.314"/>
<text text-anchor="middle" x="4134" y="-639.8" font-family="Times,serif" font-size="14.00">connect</text>
</g>
<!-- pipe:[273418164]#ServerID_d4de233c55aa -->
<g id="node8" class="node"><title>pipe:[273418164]#ServerID_d4de233c55aa</title>
<ellipse fill="none" stroke="black" cx="5491" cy="-469" rx="215.562" ry="18"/>
<text text-anchor="middle" x="5491" y="-465.3" font-family="Times,serif" font-size="14.00">pipe:[273418164]#ServerID_d4de233c55aa</text>
</g>
<!-- 10_node#ServerID_d4de233c55aa&#45;&gt;pipe:[273418164]#ServerID_d4de233c55aa -->
<g id="edge7" class="edge"><title>10_node#ServerID_d4de233c55aa&#45;&gt;pipe:[273418164]#ServerID_d4de233c55aa</title>
<path fill="none" stroke="black" d="M5439.15,-537.799C5448.49,-525.587 5461.18,-508.992 5471.67,-495.278"/>
<polygon fill="black" stroke="black" points="5474.57,-497.245 5477.87,-487.175 5469.01,-492.993 5474.57,-497.245"/>
<text text-anchor="middle" x="5481" y="-508.8" font-family="Times,serif" font-size="14.00">write</text>
</g>
<!-- 10.152.183.10:53#ServerID_OuterContainerID -->
<g id="node13" class="node"><title>10.152.183.10:53#ServerID_OuterContainerID</title>
<polygon fill="none" stroke="black" points="3020,-705 2692.56,-687 3020,-669 3347.44,-687 3020,-705"/>
<text text-anchor="middle" x="3020" y="-683.3" font-family="Times,serif" font-size="14.00">10.152.183.10:53#ServerID_OuterContainerID</text>
</g>
<!-- 10_node#ServerID_d4de233c55aa&#45;&gt;10.152.183.10:53#ServerID_OuterContainerID -->
<g id="edge14" class="edge"><title>10_node#ServerID_d4de233c55aa&#45;&gt;10.152.183.10:53#ServerID_OuterContainerID</title>
<path fill="none" stroke="black" d="M5396.56,-574.093C5364.81,-591.491 5312.18,-617.368 5263,-628 5234.11,-634.246 4760.55,-635.346 4731,-636 4185.24,-648.077 3541.75,-668.566 3221.77,-679.177"/>
<polygon fill="black" stroke="black" points="3221.34,-675.689 3211.46,-679.519 3221.58,-682.685 3221.34,-675.689"/>
<text text-anchor="middle" x="4755.5" y="-639.8" font-family="Times,serif" font-size="14.00">sendto</text>
</g>
<!-- localhost:3000#ServerID_d4de233c55aa -->
<g id="node10" class="node"><title>localhost:3000#ServerID_d4de233c55aa</title>
<polygon fill="none" stroke="black" points="6088,-574 5802.28,-556 6088,-538 6373.72,-556 6088,-574"/>
<text text-anchor="middle" x="6088" y="-552.3" font-family="Times,serif" font-size="14.00">localhost:3000#ServerID_d4de233c55aa</text>
</g>
<!-- 1_fwatchdog#ServerID_d4de233c55aa&#45;&gt;localhost:3000#ServerID_d4de233c55aa -->
<g id="edge10" class="edge"><title>1_fwatchdog#ServerID_d4de233c55aa&#45;&gt;localhost:3000#ServerID_d4de233c55aa</title>
<path fill="none" stroke="black" d="M6206.81,-668.87C6182.56,-646.039 6139.57,-605.562 6112.49,-580.064"/>
<polygon fill="black" stroke="black" points="6114.65,-577.29 6104.97,-572.983 6109.86,-582.386 6114.65,-577.29"/>
<text text-anchor="middle" x="6203" y="-639.8" font-family="Times,serif" font-size="14.00">write</text>
</g>
<!-- /etc/hosts#ServerID_d4de233c55aa -->
<g id="node11" class="node"><title>/etc/hosts#ServerID_d4de233c55aa</title>
<ellipse fill="none" stroke="black" cx="5880" cy="-687" rx="178.969" ry="18"/>
<text text-anchor="middle" x="5880" y="-683.3" font-family="Times,serif" font-size="14.00">/etc/hosts#ServerID_d4de233c55aa</text>
</g>
<!-- /etc/hosts#ServerID_d4de233c55aa&#45;&gt;10_node#ServerID_d4de233c55aa -->
<g id="edge12" class="edge"><title>/etc/hosts#ServerID_d4de233c55aa&#45;&gt;10_node#ServerID_d4de233c55aa</title>
<path fill="none" stroke="black" d="M5823.42,-669.923C5740.48,-646.357 5586.01,-602.467 5496.03,-576.898"/>
<polygon fill="black" stroke="black" points="5496.76,-573.469 5486.19,-574.102 5494.85,-580.202 5496.76,-573.469"/>
<text text-anchor="middle" x="5761.5" y="-639.8" font-family="Times,serif" font-size="14.00">read</text>
</g>
<!-- /etc/resolv.conf#ServerID_d4de233c55aa -->
<g id="node12" class="node"><title>/etc/resolv.conf#ServerID_d4de233c55aa</title>
<ellipse fill="none" stroke="black" cx="5479" cy="-687" rx="204.164" ry="18"/>
<text text-anchor="middle" x="5479" y="-683.3" font-family="Times,serif" font-size="14.00">/etc/resolv.conf#ServerID_d4de233c55aa</text>
</g>
<!-- /etc/resolv.conf#ServerID_d4de233c55aa&#45;&gt;10_node#ServerID_d4de233c55aa -->
<g id="edge13" class="edge"><title>/etc/resolv.conf#ServerID_d4de233c55aa&#45;&gt;10_node#ServerID_d4de233c55aa</title>
<path fill="none" stroke="black" d="M5471.96,-668.87C5463.01,-647.088 5447.46,-609.244 5436.96,-583.67"/>
<polygon fill="black" stroke="black" points="5440.1,-582.121 5433.07,-574.201 5433.63,-584.781 5440.1,-582.121"/>
<text text-anchor="middle" x="5479.5" y="-639.8" font-family="Times,serif" font-size="14.00">read</text>
</g>
<!-- 10.152.183.10:53#ServerID_OuterContainerID&#45;&gt;10_node#ServerID_d4de233c55aa -->
<g id="edge15" class="edge"><title>10.152.183.10:53#ServerID_OuterContainerID&#45;&gt;10_node#ServerID_d4de233c55aa</title>
<path fill="none" stroke="black" d="M3276.92,-683.118C3619.75,-678.763 4245.67,-669.032 4780,-651 4994.79,-643.752 5053.71,-676.825 5263,-628 5307.32,-617.66 5354.66,-595.678 5386.84,-578.895"/>
<polygon fill="black" stroke="black" points="5388.71,-581.866 5395.91,-574.093 5385.43,-575.68 5388.71,-581.866"/>
<text text-anchor="middle" x="5249" y="-639.8" font-family="Times,serif" font-size="14.00">recvfrom</text>
</g>
<!-- localhost:3000#ServerID_79226724f3b6 -->
<g id="node15" class="node"><title>localhost:3000#ServerID_79226724f3b6</title>
<polygon fill="none" stroke="black" points="4106,-487 3821.12,-469 4106,-451 4390.88,-469 4106,-487"/>
<text text-anchor="middle" x="4106" y="-465.3" font-family="Times,serif" font-size="14.00">localhost:3000#ServerID_79226724f3b6</text>
</g>
<!-- 1_fwatchdog#ServerID_79226724f3b6&#45;&gt;localhost:3000#ServerID_79226724f3b6 -->
<g id="edge16" class="edge"><title>1_fwatchdog#ServerID_79226724f3b6&#45;&gt;localhost:3000#ServerID_79226724f3b6</title>
<path fill="none" stroke="black" d="M3835.19,-537.901C3895.42,-522.801 3982.59,-500.943 4041.64,-486.138"/>
<polygon fill="black" stroke="black" points="4042.74,-489.47 4051.59,-483.642 4041.04,-482.68 4042.74,-489.47"/>
<text text-anchor="middle" x="3976" y="-508.8" font-family="Times,serif" font-size="14.00">write</text>
</g>
<!-- pipe:[273416608]#ServerID_79226724f3b6 -->
<g id="node25" class="node"><title>pipe:[273416608]#ServerID_79226724f3b6</title>
<ellipse fill="none" stroke="black" cx="3587" cy="-469" rx="215.562" ry="18"/>
<text text-anchor="middle" x="3587" y="-465.3" font-family="Times,serif" font-size="14.00">pipe:[273416608]#ServerID_79226724f3b6</text>
</g>
<!-- 1_fwatchdog#ServerID_79226724f3b6&#45;&gt;pipe:[273416608]#ServerID_79226724f3b6 -->
<g id="edge31" class="edge"><title>1_fwatchdog#ServerID_79226724f3b6&#45;&gt;pipe:[273416608]#ServerID_79226724f3b6</title>
<path fill="none" stroke="black" d="M3730.57,-537.799C3702.09,-524.346 3662.34,-505.577 3631.89,-491.197"/>
<polygon fill="black" stroke="black" points="3633.29,-487.991 3622.76,-486.885 3630.31,-494.32 3633.29,-487.991"/>
<text text-anchor="middle" x="3707" y="-508.8" font-family="Times,serif" font-size="14.00">write</text>
</g>
<!-- localhost:3000#ServerID_79226724f3b6&#45;&gt;1_fwatchdog#ServerID_79226724f3b6 -->
<g id="edge30" class="edge"><title>localhost:3000#ServerID_79226724f3b6&#45;&gt;1_fwatchdog#ServerID_79226724f3b6</title>
<path fill="none" stroke="black" d="M4078.71,-485.433C4057.59,-496.707 4027.26,-511.46 3999,-520 3975.42,-527.125 3950.03,-532.837 3925.01,-537.405"/>
<polygon fill="black" stroke="black" points="3924.31,-533.975 3915.07,-539.165 3925.53,-540.868 3924.31,-533.975"/>
<text text-anchor="middle" x="4055.5" y="-508.8" font-family="Times,serif" font-size="14.00">read</text>
</g>
<!-- 10_node#ServerID_79226724f3b6 -->
<g id="node16" class="node"><title>10_node#ServerID_79226724f3b6</title>
<polygon fill="none" stroke="black" points="4238.5,-400 3973.5,-400 3973.5,-364 4238.5,-364 4238.5,-400"/>
<text text-anchor="middle" x="4106" y="-378.3" font-family="Times,serif" font-size="14.00">10_node#ServerID_79226724f3b6</text>
</g>
<!-- localhost:3000#ServerID_79226724f3b6&#45;&gt;10_node#ServerID_79226724f3b6 -->
<g id="edge19" class="edge"><title>localhost:3000#ServerID_79226724f3b6&#45;&gt;10_node#ServerID_79226724f3b6</title>
<path fill="none" stroke="black" d="M4106,-450.799C4106,-439.163 4106,-423.548 4106,-410.237"/>
<polygon fill="black" stroke="black" points="4109.5,-410.175 4106,-400.175 4102.5,-410.175 4109.5,-410.175"/>
<text text-anchor="middle" x="4122.5" y="-421.8" font-family="Times,serif" font-size="14.00">read</text>
</g>
<!-- pipe:[273417785]#ServerID_79226724f3b6 -->
<g id="node17" class="node"><title>pipe:[273417785]#ServerID_79226724f3b6</title>
<ellipse fill="none" stroke="black" cx="3587" cy="-295" rx="215.562" ry="18"/>
<text text-anchor="middle" x="3587" y="-291.3" font-family="Times,serif" font-size="14.00">pipe:[273417785]#ServerID_79226724f3b6</text>
</g>
<!-- 10_node#ServerID_79226724f3b6&#45;&gt;pipe:[273417785]#ServerID_79226724f3b6 -->
<g id="edge18" class="edge"><title>10_node#ServerID_79226724f3b6&#45;&gt;pipe:[273417785]#ServerID_79226724f3b6</title>
<path fill="none" stroke="black" d="M4001.91,-363.952C3911.35,-349.121 3780.82,-327.743 3690.45,-312.943"/>
<polygon fill="black" stroke="black" points="3690.9,-309.469 3680.46,-311.307 3689.76,-316.377 3690.9,-309.469"/>
<text text-anchor="middle" x="3897" y="-334.8" font-family="Times,serif" font-size="14.00">write</text>
</g>
<!-- /dev/null#ServerID_79226724f3b6 -->
<g id="node18" class="node"><title>/dev/null#ServerID_79226724f3b6</title>
<ellipse fill="none" stroke="black" cx="3994" cy="-295" rx="172.769" ry="18"/>
<text text-anchor="middle" x="3994" y="-291.3" font-family="Times,serif" font-size="14.00">/dev/null#ServerID_79226724f3b6</text>
</g>
<!-- 10_node#ServerID_79226724f3b6&#45;&gt;/dev/null#ServerID_79226724f3b6 -->
<g id="edge29" class="edge"><title>10_node#ServerID_79226724f3b6&#45;&gt;/dev/null#ServerID_79226724f3b6</title>
<path fill="none" stroke="black" d="M4031.29,-363.812C4022.22,-359.214 4013.78,-353.386 4007,-346 4001.29,-339.775 3998.02,-331.359 3996.17,-323.208"/>
<polygon fill="black" stroke="black" points="3999.6,-322.502 3994.51,-313.211 3992.69,-323.65 3999.6,-322.502"/>
<text text-anchor="middle" x="4026" y="-334.8" font-family="Times,serif" font-size="14.00">write</text>
</g>
<!-- pipe:[273416745]#ServerID_79226724f3b6 -->
<g id="node19" class="node"><title>pipe:[273416745]#ServerID_79226724f3b6</title>
<ellipse fill="none" stroke="black" cx="4683" cy="-295" rx="215.562" ry="18"/>
<text text-anchor="middle" x="4683" y="-291.3" font-family="Times,serif" font-size="14.00">pipe:[273416745]#ServerID_79226724f3b6</text>
</g>
<!-- 10_node#ServerID_79226724f3b6&#45;&gt;pipe:[273416745]#ServerID_79226724f3b6 -->
<g id="edge23" class="edge"><title>10_node#ServerID_79226724f3b6&#45;&gt;pipe:[273416745]#ServerID_79226724f3b6</title>
<path fill="none" stroke="black" d="M4221.72,-363.952C4323.5,-348.959 4470.7,-327.274 4571.27,-312.459"/>
<polygon fill="black" stroke="black" points="4572.08,-315.878 4581.46,-310.958 4571.06,-308.953 4572.08,-315.878"/>
<text text-anchor="middle" x="4449" y="-334.8" font-family="Times,serif" font-size="14.00">write</text>
</g>
<!-- 27_node#ServerID_79226724f3b6 -->
<g id="node20" class="node"><title>27_node#ServerID_79226724f3b6</title>
<polygon fill="none" stroke="black" points="4449.5,-313 4184.5,-313 4184.5,-277 4449.5,-277 4449.5,-313"/>
<text text-anchor="middle" x="4317" y="-291.3" font-family="Times,serif" font-size="14.00">27_node#ServerID_79226724f3b6</text>
</g>
<!-- 10_node#ServerID_79226724f3b6&#45;&gt;27_node#ServerID_79226724f3b6 -->
<g id="edge24" class="edge"><title>10_node#ServerID_79226724f3b6&#45;&gt;27_node#ServerID_79226724f3b6</title>
<path fill="none" stroke="black" d="M4148.45,-363.901C4182.14,-350.328 4229.39,-331.295 4265.29,-316.832"/>
<polygon fill="black" stroke="black" points="4266.65,-320.055 4274.62,-313.071 4264.04,-313.562 4266.65,-320.055"/>
<text text-anchor="middle" x="4240" y="-334.8" font-family="Times,serif" font-size="14.00">fork</text>
</g>
<!-- /dev/null#ServerID_79226724f3b6&#45;&gt;10_node#ServerID_79226724f3b6 -->
<g id="edge21" class="edge"><title>/dev/null#ServerID_79226724f3b6&#45;&gt;10_node#ServerID_79226724f3b6</title>
<path fill="none" stroke="black" d="M4022.26,-312.819C4031.02,-318.34 4040.58,-324.685 4049,-331 4059.61,-338.959 4070.7,-348.4 4080.25,-356.924"/>
<polygon fill="black" stroke="black" points="4078.1,-359.698 4087.86,-363.814 4082.8,-354.509 4078.1,-359.698"/>
<text text-anchor="middle" x="4083.5" y="-334.8" font-family="Times,serif" font-size="14.00">read</text>
</g>
<!-- pipe:[273416745]#ServerID_79226724f3b6&#45;&gt;10_node#ServerID_79226724f3b6 -->
<g id="edge22" class="edge"><title>pipe:[273416745]#ServerID_79226724f3b6&#45;&gt;10_node#ServerID_79226724f3b6</title>
<path fill="none" stroke="black" d="M4633.33,-312.641C4597.95,-323.83 4549.05,-337.954 4505,-346 4420.88,-361.366 4325.5,-370.046 4249.09,-374.917"/>
<polygon fill="black" stroke="black" points="4248.68,-371.436 4238.92,-375.551 4249.12,-378.422 4248.68,-371.436"/>
<text text-anchor="middle" x="4586.5" y="-334.8" font-family="Times,serif" font-size="14.00">read</text>
</g>
<!-- 27_sh#ServerID_79226724f3b6 -->
<g id="node21" class="node"><title>27_sh#ServerID_79226724f3b6</title>
<polygon fill="none" stroke="black" points="4440.5,-226 4193.5,-226 4193.5,-190 4440.5,-190 4440.5,-226"/>
<text text-anchor="middle" x="4317" y="-204.3" font-family="Times,serif" font-size="14.00">27_sh#ServerID_79226724f3b6</text>
</g>
<!-- 27_node#ServerID_79226724f3b6&#45;&gt;27_sh#ServerID_79226724f3b6 -->
<g id="edge25" class="edge"><title>27_node#ServerID_79226724f3b6&#45;&gt;27_sh#ServerID_79226724f3b6</title>
<path fill="none" stroke="black" d="M4317,-276.799C4317,-265.163 4317,-249.548 4317,-236.237"/>
<polygon fill="black" stroke="black" points="4320.5,-236.175 4317,-226.175 4313.5,-236.175 4320.5,-236.175"/>
<text text-anchor="middle" x="4342" y="-247.8" font-family="Times,serif" font-size="14.00">execve</text>
</g>
<!-- 28_sh#ServerID_79226724f3b6 -->
<g id="node22" class="node"><title>28_sh#ServerID_79226724f3b6</title>
<polygon fill="none" stroke="black" points="4339.5,-139 4092.5,-139 4092.5,-103 4339.5,-103 4339.5,-139"/>
<text text-anchor="middle" x="4216" y="-117.3" font-family="Times,serif" font-size="14.00">28_sh#ServerID_79226724f3b6</text>
</g>
<!-- 27_sh#ServerID_79226724f3b6&#45;&gt;28_sh#ServerID_79226724f3b6 -->
<g id="edge26" class="edge"><title>27_sh#ServerID_79226724f3b6&#45;&gt;28_sh#ServerID_79226724f3b6</title>
<path fill="none" stroke="black" d="M4296.56,-189.799C4281.5,-177.126 4260.84,-159.734 4244.21,-145.738"/>
<polygon fill="black" stroke="black" points="4246.31,-142.937 4236.41,-139.175 4241.81,-148.292 4246.31,-142.937"/>
<text text-anchor="middle" x="4288" y="-160.8" font-family="Times,serif" font-size="14.00">fork</text>
</g>
<!-- /home/app/3.txt#ServerID_79226724f3b6 -->
<g id="node24" class="node"><title>/home/app/3.txt#ServerID_79226724f3b6</title>
<ellipse fill="none" stroke="black" cx="4564" cy="-121" rx="206.063" ry="18"/>
<text text-anchor="middle" x="4564" y="-117.3" font-family="Times,serif" font-size="14.00">/home/app/3.txt#ServerID_79226724f3b6</text>
</g>
<!-- 27_sh#ServerID_79226724f3b6&#45;&gt;/home/app/3.txt#ServerID_79226724f3b6 -->
<g id="edge28" class="edge"><title>27_sh#ServerID_79226724f3b6&#45;&gt;/home/app/3.txt#ServerID_79226724f3b6</title>
<path fill="none" stroke="black" d="M4366.69,-189.901C4406.94,-176.049 4463.72,-156.509 4506.04,-141.945"/>
<polygon fill="black" stroke="black" points="4507.34,-145.201 4515.65,-138.637 4505.06,-138.582 4507.34,-145.201"/>
<text text-anchor="middle" x="4475" y="-160.8" font-family="Times,serif" font-size="14.00">write</text>
</g>
<!-- 28_touch#ServerID_79226724f3b6 -->
<g id="node23" class="node"><title>28_touch#ServerID_79226724f3b6</title>
<polygon fill="none" stroke="black" points="4351.5,-52 4080.5,-52 4080.5,-16 4351.5,-16 4351.5,-52"/>
<text text-anchor="middle" x="4216" y="-30.3" font-family="Times,serif" font-size="14.00">28_touch#ServerID_79226724f3b6</text>
</g>
<!-- 28_sh#ServerID_79226724f3b6&#45;&gt;28_touch#ServerID_79226724f3b6 -->
<g id="edge27" class="edge"><title>28_sh#ServerID_79226724f3b6&#45;&gt;28_touch#ServerID_79226724f3b6</title>
<path fill="none" stroke="black" d="M4216,-102.799C4216,-91.1626 4216,-75.5479 4216,-62.2368"/>
<polygon fill="black" stroke="black" points="4219.5,-62.1754 4216,-52.1754 4212.5,-62.1755 4219.5,-62.1754"/>
<text text-anchor="middle" x="4241" y="-73.8" font-family="Times,serif" font-size="14.00">execve</text>
</g>
<!-- 10.1.80.1:48418#ServerID_OuterContainerID&#45;&gt;10.1.80.247:8080#ServerID_OuterContainerID -->
<g id="edge32" class="edge"><title>10.1.80.1:48418#ServerID_OuterContainerID&#45;&gt;10.1.80.247:8080#ServerID_OuterContainerID</title>
<path fill="none" stroke="black" d="M323.544,-573.685C311.945,-592.783 297.149,-624.803 308,-651 309.665,-655.019 312.04,-658.818 314.779,-662.325"/>
<polygon fill="black" stroke="black" points="312.368,-664.877 321.669,-669.949 317.561,-660.183 312.368,-664.877"/>
<text text-anchor="middle" x="328" y="-639.8" font-family="Times,serif" font-size="14.00">POST</text>
</g>
</g>
</svg>
