<?xml version="1.0" encoding="UTF-8" standalone="no"?>
<!DOCTYPE svg PUBLIC "-//W3C//DTD SVG 1.1//EN"
 "http://www.w3.org/Graphics/SVG/1.1/DTD/svg11.dtd">
<!-- Generated by graphviz version 2.38.0 (20140413.2041)
 -->
<!-- Title: G Pages: 1 -->
<svg width="5444pt" height="597pt"
 viewBox="0.00 0.00 5444.00 597.00" xmlns="http://www.w3.org/2000/svg" xmlns:xlink="http://www.w3.org/1999/xlink">
<g id="graph0" class="graph" transform="scale(1 1) rotate(0) translate(4 593)">
<title>G</title>
<polygon fill="white" stroke="none" points="-4,4 -4,-593 5440,-593 5440,4 -4,4"/>
<g id="clust1" class="cluster"><title>clusterServerID_04eca90de97f</title>
<polygon fill="none" stroke="black" points="4328,-8 4328,-278 5428,-278 5428,-8 4328,-8"/>
<text text-anchor="middle" x="4878" y="-262.8" font-family="Times,serif" font-size="14.00">clusterServerID_04eca90de97f</text>
</g>
<g id="clust2" class="cluster"><title>clusterServerID_309ec2955ffa</title>
<polygon fill="none" stroke="black" points="2249,-311 2249,-581 3610,-581 3610,-311 2249,-311"/>
<text text-anchor="middle" x="2929.5" y="-565.8" font-family="Times,serif" font-size="14.00">clusterServerID_309ec2955ffa</text>
</g>
<g id="clust3" class="cluster"><title>clusterServerID_7d87d9945d&#45;dl2ff</title>
<polygon fill="none" stroke="black" points="3984,-95 3984,-170 4320,-170 4320,-95 3984,-95"/>
<text text-anchor="middle" x="4152" y="-154.8" font-family="Times,serif" font-size="14.00">clusterServerID_7d87d9945d&#45;dl2ff</text>
</g>
<g id="clust4" class="cluster"><title>clusterServerID_866797f645&#45;wb664</title>
<polygon fill="none" stroke="black" points="1496,-311 1496,-386 1844,-386 1844,-311 1496,-311"/>
<text text-anchor="middle" x="1670" y="-370.8" font-family="Times,serif" font-size="14.00">clusterServerID_866797f645&#45;wb664</text>
</g>
<g id="clust5" class="cluster"><title>clusterServerID_OuterContainerID</title>
<polygon fill="none" stroke="black" points="8,-95 8,-278 3976,-278 3976,-95 8,-95"/>
<text text-anchor="middle" x="1992" y="-262.8" font-family="Times,serif" font-size="14.00">clusterServerID_OuterContainerID</text>
</g>
<!-- 1_fwatchdog#ServerID_866797f645&#45;wb664 -->
<g id="node1" class="node"><title>1_fwatchdog#ServerID_866797f645&#45;wb664</title>
<polygon fill="none" stroke="black" points="1835.5,-355 1504.5,-355 1504.5,-319 1835.5,-319 1835.5,-355"/>
<text text-anchor="middle" x="1670" y="-333.3" font-family="Times,serif" font-size="14.00">1_fwatchdog#ServerID_866797f645&#45;wb664</text>
</g>
<!-- 10.1.80.44:8080#ServerID_OuterContainerID -->
<g id="node2" class="node"><title>10.1.80.44:8080#ServerID_OuterContainerID</title>
<polygon fill="none" stroke="black" points="335,-247 16.1049,-229 335,-211 653.895,-229 335,-247"/>
<text text-anchor="middle" x="335" y="-225.3" font-family="Times,serif" font-size="14.00">10.1.80.44:8080#ServerID_OuterContainerID</text>
</g>
<!-- 1_fwatchdog#ServerID_866797f645&#45;wb664&#45;&gt;10.1.80.44:8080#ServerID_OuterContainerID -->
<g id="edge1" class="edge"><title>1_fwatchdog#ServerID_866797f645&#45;wb664&#45;&gt;10.1.80.44:8080#ServerID_OuterContainerID</title>
<path fill="none" stroke="black" d="M1504.19,-332.535C1304.17,-326.953 957.994,-312.809 663,-278 581.319,-268.362 488.614,-254.525 422.65,-244.182"/>
<polygon fill="black" stroke="black" points="423.131,-240.715 412.708,-242.618 422.043,-247.63 423.131,-240.715"/>
<text text-anchor="middle" x="903" y="-289.8" font-family="Times,serif" font-size="14.00">POST</text>
</g>
<!-- 10.1.80.44:48256#ServerID_OuterContainerID -->
<g id="node3" class="node"><title>10.1.80.44:48256#ServerID_OuterContainerID</title>
<polygon fill="none" stroke="black" points="1671,-247 1343.56,-229 1671,-211 1998.44,-229 1671,-247"/>
<text text-anchor="middle" x="1671" y="-225.3" font-family="Times,serif" font-size="14.00">10.1.80.44:48256#ServerID_OuterContainerID</text>
</g>
<!-- 1_fwatchdog#ServerID_866797f645&#45;wb664&#45;&gt;10.1.80.44:48256#ServerID_OuterContainerID -->
<g id="edge6" class="edge"><title>1_fwatchdog#ServerID_866797f645&#45;wb664&#45;&gt;10.1.80.44:48256#ServerID_OuterContainerID</title>
<path fill="none" stroke="black" d="M1675.96,-318.759C1677.61,-313.165 1679.18,-306.883 1680,-301 1682.04,-286.436 1680.27,-270.162 1677.78,-256.873"/>
<polygon fill="black" stroke="black" points="1681.17,-256.006 1675.68,-246.944 1674.32,-257.452 1681.17,-256.006"/>
<text text-anchor="middle" x="1723" y="-289.8" font-family="Times,serif" font-size="14.00">RESPONSE</text>
</g>
<!-- gateway:8080#ServerID_OuterContainerID -->
<g id="node6" class="node"><title>gateway:8080#ServerID_OuterContainerID</title>
<polygon fill="none" stroke="black" points="2992,-247 2687.52,-229 2992,-211 3296.48,-229 2992,-247"/>
<text text-anchor="middle" x="2992" y="-225.3" font-family="Times,serif" font-size="14.00">gateway:8080#ServerID_OuterContainerID</text>
</g>
<!-- 1_fwatchdog#ServerID_866797f645&#45;wb664&#45;&gt;gateway:8080#ServerID_OuterContainerID -->
<g id="edge8" class="edge"><title>1_fwatchdog#ServerID_866797f645&#45;wb664&#45;&gt;gateway:8080#ServerID_OuterContainerID</title>
<path fill="none" stroke="black" d="M1835.72,-327.931C1950.58,-322.551 2107.06,-315.64 2245,-311 2338.31,-307.861 2572.3,-312.066 2665,-301 2759.37,-289.735 2866.67,-263.871 2931.84,-246.669"/>
<polygon fill="black" stroke="black" points="2932.77,-250.043 2941.53,-244.091 2930.97,-243.278 2932.77,-250.043"/>
<text text-anchor="middle" x="2776" y="-289.8" font-family="Times,serif" font-size="14.00">POST</text>
</g>
<!-- 10.1.80.44:8080#ServerID_OuterContainerID&#45;&gt;1_fwatchdog#ServerID_866797f645&#45;wb664 -->
<g id="edge5" class="edge"><title>10.1.80.44:8080#ServerID_OuterContainerID&#45;&gt;1_fwatchdog#ServerID_866797f645&#45;wb664</title>
<path fill="none" stroke="black" d="M407.027,-242.976C473.296,-254.334 574.426,-270.203 663,-278 779.935,-288.294 809.752,-280.28 927,-286 1121.24,-295.475 1343.73,-311.078 1494.22,-322.336"/>
<polygon fill="black" stroke="black" points="1494.24,-325.848 1504.48,-323.105 1494.77,-318.867 1494.24,-325.848"/>
<text text-anchor="middle" x="1215" y="-289.8" font-family="Times,serif" font-size="14.00">RESPONSE</text>
</g>
<!-- 10.1.80.1:8765#ServerID_OuterContainerID -->
<g id="node19" class="node"><title>10.1.80.1:8765#ServerID_OuterContainerID</title>
<polygon fill="none" stroke="black" points="1015,-139 704.15,-121 1015,-103 1325.85,-121 1015,-139"/>
<text text-anchor="middle" x="1015" y="-117.3" font-family="Times,serif" font-size="14.00">10.1.80.1:8765#ServerID_OuterContainerID</text>
</g>
<!-- 10.1.80.44:8080#ServerID_OuterContainerID&#45;&gt;10.1.80.1:8765#ServerID_OuterContainerID -->
<g id="edge24" class="edge"><title>10.1.80.44:8080#ServerID_OuterContainerID&#45;&gt;10.1.80.1:8765#ServerID_OuterContainerID</title>
<path fill="none" stroke="black" d="M473.363,-218.793C541.557,-213.214 624.868,-204.844 699,-193 787.808,-178.811 888.995,-154.637 952.427,-138.494"/>
<polygon fill="black" stroke="black" points="953.455,-141.844 962.276,-135.975 951.72,-135.062 953.455,-141.844"/>
<text text-anchor="middle" x="820" y="-181.8" font-family="Times,serif" font-size="14.00">RESPONSE</text>
</g>
<!-- 10.0.88.125:31112#ServerID_OuterContainerID -->
<g id="node20" class="node"><title>10.0.88.125:31112#ServerID_OuterContainerID</title>
<polygon fill="none" stroke="black" points="351,-139 15.5152,-121 351,-103 686.485,-121 351,-139"/>
<text text-anchor="middle" x="351" y="-117.3" font-family="Times,serif" font-size="14.00">10.0.88.125:31112#ServerID_OuterContainerID</text>
</g>
<!-- 10.1.80.44:8080#ServerID_OuterContainerID&#45;&gt;10.0.88.125:31112#ServerID_OuterContainerID -->
<g id="edge25" class="edge"><title>10.1.80.44:8080#ServerID_OuterContainerID&#45;&gt;10.0.88.125:31112#ServerID_OuterContainerID</title>
<path fill="none" stroke="black" d="M337.571,-210.969C340.09,-194.279 343.969,-168.579 346.912,-149.084"/>
<polygon fill="black" stroke="black" points="350.404,-149.399 348.436,-138.988 343.482,-148.354 350.404,-149.399"/>
<text text-anchor="middle" x="385" y="-181.8" font-family="Times,serif" font-size="14.00">RESPONSE</text>
</g>
<!-- 10.1.80.44:48256#ServerID_OuterContainerID&#45;&gt;1_fwatchdog#ServerID_866797f645&#45;wb664 -->
<g id="edge2" class="edge"><title>10.1.80.44:48256#ServerID_OuterContainerID&#45;&gt;1_fwatchdog#ServerID_866797f645&#45;wb664</title>
<path fill="none" stroke="black" d="M1658.81,-246.692C1651.8,-257.353 1643.67,-271.798 1640,-286 1638.33,-292.455 1637.69,-294.747 1640,-301 1641.23,-304.328 1642.94,-307.554 1644.91,-310.612"/>
<polygon fill="black" stroke="black" points="1642.22,-312.86 1651.04,-318.736 1647.81,-308.644 1642.22,-312.86"/>
<text text-anchor="middle" x="1660" y="-289.8" font-family="Times,serif" font-size="14.00">POST</text>
</g>
<!-- 1_fwatchdog#ServerID_309ec2955ffa -->
<g id="node7" class="node"><title>1_fwatchdog#ServerID_309ec2955ffa</title>
<polygon fill="none" stroke="black" points="3142,-550 2852,-550 2852,-514 3142,-514 3142,-550"/>
<text text-anchor="middle" x="2997" y="-528.3" font-family="Times,serif" font-size="14.00">1_fwatchdog#ServerID_309ec2955ffa</text>
</g>
<!-- 10.1.80.44:48256#ServerID_OuterContainerID&#45;&gt;1_fwatchdog#ServerID_309ec2955ffa -->
<g id="edge10" class="edge"><title>10.1.80.44:48256#ServerID_OuterContainerID&#45;&gt;1_fwatchdog#ServerID_309ec2955ffa</title>
<path fill="none" stroke="black" d="M1742.46,-243.107C1810.27,-254.854 1915.18,-271.245 2007,-278 2018.14,-278.819 3607.12,-278.084 3615,-286 3670.5,-341.778 3664.21,-405.03 3611,-463 3580.45,-496.288 3324.06,-515.216 3152.4,-524.266"/>
<polygon fill="black" stroke="black" points="3152.04,-520.78 3142.24,-524.795 3152.41,-527.77 3152.04,-520.78"/>
<text text-anchor="middle" x="3667.5" y="-397.8" font-family="Times,serif" font-size="14.00">read</text>
</g>
<!-- 10.1.80.44:39468#ServerID_OuterContainerID -->
<g id="node4" class="node"><title>10.1.80.44:39468#ServerID_OuterContainerID</title>
<polygon fill="none" stroke="black" points="999,-247 671.56,-229 999,-211 1326.44,-229 999,-247"/>
<text text-anchor="middle" x="999" y="-225.3" font-family="Times,serif" font-size="14.00">10.1.80.44:39468#ServerID_OuterContainerID</text>
</g>
<!-- 1_fwatchdog#ServerID_7d87d9945d&#45;dl2ff -->
<g id="node5" class="node"><title>1_fwatchdog#ServerID_7d87d9945d&#45;dl2ff</title>
<polygon fill="none" stroke="black" points="4312,-139 3992,-139 3992,-103 4312,-103 4312,-139"/>
<text text-anchor="middle" x="4152" y="-117.3" font-family="Times,serif" font-size="14.00">1_fwatchdog#ServerID_7d87d9945d&#45;dl2ff</text>
</g>
<!-- 10.1.80.44:39468#ServerID_OuterContainerID&#45;&gt;1_fwatchdog#ServerID_7d87d9945d&#45;dl2ff -->
<g id="edge3" class="edge"><title>10.1.80.44:39468#ServerID_OuterContainerID&#45;&gt;1_fwatchdog#ServerID_7d87d9945d&#45;dl2ff</title>
<path fill="none" stroke="black" d="M1150.75,-219.324C1208.42,-216.289 1274.73,-213.115 1335,-211 2082.68,-184.761 2269.93,-188.444 3018,-178 3071.44,-177.254 3927.08,-177.47 3980,-170 4018.81,-164.522 4061.23,-152.748 4094.24,-142.233"/>
<polygon fill="black" stroke="black" points="4095.73,-145.43 4104.16,-139.019 4093.57,-138.77 4095.73,-145.43"/>
<text text-anchor="middle" x="3038" y="-181.8" font-family="Times,serif" font-size="14.00">POST</text>
</g>
<!-- 1_fwatchdog#ServerID_04eca90de97f -->
<g id="node10" class="node"><title>1_fwatchdog#ServerID_04eca90de97f</title>
<polygon fill="none" stroke="black" points="4682.5,-139 4389.5,-139 4389.5,-103 4682.5,-103 4682.5,-139"/>
<text text-anchor="middle" x="4536" y="-117.3" font-family="Times,serif" font-size="14.00">1_fwatchdog#ServerID_04eca90de97f</text>
</g>
<!-- 10.1.80.44:39468#ServerID_OuterContainerID&#45;&gt;1_fwatchdog#ServerID_04eca90de97f -->
<g id="edge20" class="edge"><title>10.1.80.44:39468#ServerID_OuterContainerID&#45;&gt;1_fwatchdog#ServerID_04eca90de97f</title>
<path fill="none" stroke="black" d="M1148.23,-219.163C1206.48,-216.051 1273.85,-212.866 1335,-211 2100.46,-187.647 2292.26,-203.955 3058,-193 3075.58,-192.748 4306.54,-172.113 4324,-170 4371.94,-164.2 4424.91,-152.207 4465.92,-141.661"/>
<polygon fill="black" stroke="black" points="4467.01,-144.993 4475.81,-139.086 4465.25,-138.218 4467.01,-144.993"/>
<text text-anchor="middle" x="3928.5" y="-181.8" font-family="Times,serif" font-size="14.00">read</text>
</g>
<!-- 1_fwatchdog#ServerID_7d87d9945d&#45;dl2ff&#45;&gt;10.1.80.44:39468#ServerID_OuterContainerID -->
<g id="edge4" class="edge"><title>1_fwatchdog#ServerID_7d87d9945d&#45;dl2ff&#45;&gt;10.1.80.44:39468#ServerID_OuterContainerID</title>
<path fill="none" stroke="black" d="M4104.17,-139.079C4070.06,-150.334 4022.84,-164.052 3980,-170 3921.67,-178.099 1918.86,-176.181 1860,-178 1605.96,-185.85 1310.27,-205.272 1139.85,-217.47"/>
<polygon fill="black" stroke="black" points="1139.54,-213.983 1129.82,-218.19 1140.04,-220.965 1139.54,-213.983"/>
<text text-anchor="middle" x="1902" y="-181.8" font-family="Times,serif" font-size="14.00">RESPONSE</text>
</g>
<!-- gateway:8080#ServerID_OuterContainerID&#45;&gt;1_fwatchdog#ServerID_866797f645&#45;wb664 -->
<g id="edge7" class="edge"><title>gateway:8080#ServerID_OuterContainerID&#45;&gt;1_fwatchdog#ServerID_866797f645&#45;wb664</title>
<path fill="none" stroke="black" d="M2921.08,-242.839C2857.8,-253.825 2762.51,-269.216 2679,-278 2522.64,-294.445 2090.76,-316.288 1845.71,-327.913"/>
<polygon fill="black" stroke="black" points="1845.46,-324.421 1835.63,-328.39 1845.79,-331.413 1845.46,-324.421"/>
<text text-anchor="middle" x="2619" y="-289.8" font-family="Times,serif" font-size="14.00">RESPONSE</text>
</g>
<!-- localhost:3000#ServerID_309ec2955ffa -->
<g id="node8" class="node"><title>localhost:3000#ServerID_309ec2955ffa</title>
<polygon fill="none" stroke="black" points="2536,-463 2256.65,-445 2536,-427 2815.35,-445 2536,-463"/>
<text text-anchor="middle" x="2536" y="-441.3" font-family="Times,serif" font-size="14.00">localhost:3000#ServerID_309ec2955ffa</text>
</g>
<!-- 1_fwatchdog#ServerID_309ec2955ffa&#45;&gt;localhost:3000#ServerID_309ec2955ffa -->
<g id="edge9" class="edge"><title>1_fwatchdog#ServerID_309ec2955ffa&#45;&gt;localhost:3000#ServerID_309ec2955ffa</title>
<path fill="none" stroke="black" d="M2904.54,-513.952C2819.47,-498.267 2694.68,-475.258 2614.39,-460.453"/>
<polygon fill="black" stroke="black" points="2614.8,-456.971 2604.33,-458.6 2613.53,-463.855 2614.8,-456.971"/>
<text text-anchor="middle" x="2814" y="-484.8" font-family="Times,serif" font-size="14.00">write</text>
</g>
<!-- 11_node#ServerID_309ec2955ffa -->
<g id="node14" class="node"><title>11_node#ServerID_309ec2955ffa</title>
<polygon fill="none" stroke="black" points="3457.5,-355 3198.5,-355 3198.5,-319 3457.5,-319 3457.5,-355"/>
<text text-anchor="middle" x="3328" y="-333.3" font-family="Times,serif" font-size="14.00">11_node#ServerID_309ec2955ffa</text>
</g>
<!-- localhost:3000#ServerID_309ec2955ffa&#45;&gt;11_node#ServerID_309ec2955ffa -->
<g id="edge22" class="edge"><title>localhost:3000#ServerID_309ec2955ffa&#45;&gt;11_node#ServerID_309ec2955ffa</title>
<path fill="none" stroke="black" d="M2621.89,-432.505C2758.58,-414.21 3026.87,-378.303 3190.52,-356.399"/>
<polygon fill="black" stroke="black" points="3191.22,-359.838 3200.66,-355.042 3190.29,-352.9 3191.22,-359.838"/>
<text text-anchor="middle" x="2925.5" y="-397.8" font-family="Times,serif" font-size="14.00">read</text>
</g>
<!-- localhost:3000#ServerID_04eca90de97f -->
<g id="node9" class="node"><title>localhost:3000#ServerID_04eca90de97f</title>
<polygon fill="none" stroke="black" points="4618,-247 4335.64,-229 4618,-211 4900.36,-229 4618,-247"/>
<text text-anchor="middle" x="4618" y="-225.3" font-family="Times,serif" font-size="14.00">localhost:3000#ServerID_04eca90de97f</text>
</g>
<!-- localhost:3000#ServerID_04eca90de97f&#45;&gt;1_fwatchdog#ServerID_04eca90de97f -->
<g id="edge11" class="edge"><title>localhost:3000#ServerID_04eca90de97f&#45;&gt;1_fwatchdog#ServerID_04eca90de97f</title>
<path fill="none" stroke="black" d="M4573.77,-213.695C4563.96,-208.597 4554.55,-201.845 4548,-193 4538.81,-180.59 4535.7,-163.627 4534.93,-149.394"/>
<polygon fill="black" stroke="black" points="4538.43,-149.096 4534.75,-139.162 4531.43,-149.224 4538.43,-149.096"/>
<text text-anchor="middle" x="4564.5" y="-181.8" font-family="Times,serif" font-size="14.00">read</text>
</g>
<!-- 1_fwatchdog#ServerID_04eca90de97f&#45;&gt;localhost:3000#ServerID_04eca90de97f -->
<g id="edge19" class="edge"><title>1_fwatchdog#ServerID_04eca90de97f&#45;&gt;localhost:3000#ServerID_04eca90de97f</title>
<path fill="none" stroke="black" d="M4549.96,-139.016C4558.94,-150.043 4570.79,-164.766 4581,-178 4587.36,-186.25 4594.19,-195.384 4600.22,-203.563"/>
<polygon fill="black" stroke="black" points="4597.43,-205.674 4606.16,-211.664 4603.07,-201.532 4597.43,-205.674"/>
<text text-anchor="middle" x="4611" y="-181.8" font-family="Times,serif" font-size="14.00">write</text>
</g>
<!-- pipe:[445142]#ServerID_04eca90de97f -->
<g id="node11" class="node"><title>pipe:[445142]#ServerID_04eca90de97f</title>
<ellipse fill="none" stroke="black" cx="4536" cy="-34" rx="196.065" ry="18"/>
<text text-anchor="middle" x="4536" y="-30.3" font-family="Times,serif" font-size="14.00">pipe:[445142]#ServerID_04eca90de97f</text>
</g>
<!-- 1_fwatchdog#ServerID_04eca90de97f&#45;&gt;pipe:[445142]#ServerID_04eca90de97f -->
<g id="edge12" class="edge"><title>1_fwatchdog#ServerID_04eca90de97f&#45;&gt;pipe:[445142]#ServerID_04eca90de97f</title>
<path fill="none" stroke="black" d="M4536,-102.799C4536,-91.1626 4536,-75.5479 4536,-62.2368"/>
<polygon fill="black" stroke="black" points="4539.5,-62.1754 4536,-52.1754 4532.5,-62.1755 4539.5,-62.1754"/>
<text text-anchor="middle" x="4555" y="-73.8" font-family="Times,serif" font-size="14.00">write</text>
</g>
<!-- 10.1.80.44:39850#ServerID_OuterContainerID -->
<g id="node12" class="node"><title>10.1.80.44:39850#ServerID_OuterContainerID</title>
<polygon fill="none" stroke="black" points="2343,-247 2015.56,-229 2343,-211 2670.44,-229 2343,-247"/>
<text text-anchor="middle" x="2343" y="-225.3" font-family="Times,serif" font-size="14.00">10.1.80.44:39850#ServerID_OuterContainerID</text>
</g>
<!-- 10.1.80.44:39850#ServerID_OuterContainerID&#45;&gt;1_fwatchdog#ServerID_04eca90de97f -->
<g id="edge13" class="edge"><title>10.1.80.44:39850#ServerID_OuterContainerID&#45;&gt;1_fwatchdog#ServerID_04eca90de97f</title>
<path fill="none" stroke="black" d="M2496.43,-219.408C2553.71,-216.418 2619.32,-213.253 2679,-211 3044.41,-197.205 3961.13,-215.151 4324,-170 4371.74,-164.06 4424.51,-152.132 4465.46,-141.653"/>
<polygon fill="black" stroke="black" points="4466.53,-144.99 4475.34,-139.095 4464.78,-138.214 4466.53,-144.99"/>
<text text-anchor="middle" x="4243.5" y="-181.8" font-family="Times,serif" font-size="14.00">read</text>
</g>
<!-- /etc/hosts#ServerID_309ec2955ffa -->
<g id="node13" class="node"><title>/etc/hosts#ServerID_309ec2955ffa</title>
<ellipse fill="none" stroke="black" cx="3427" cy="-445" rx="174.669" ry="18"/>
<text text-anchor="middle" x="3427" y="-441.3" font-family="Times,serif" font-size="14.00">/etc/hosts#ServerID_309ec2955ffa</text>
</g>
<!-- /etc/hosts#ServerID_309ec2955ffa&#45;&gt;11_node#ServerID_309ec2955ffa -->
<g id="edge14" class="edge"><title>/etc/hosts#ServerID_309ec2955ffa&#45;&gt;11_node#ServerID_309ec2955ffa</title>
<path fill="none" stroke="black" d="M3411.09,-426.969C3394.88,-409.61 3369.56,-382.503 3351.13,-362.769"/>
<polygon fill="black" stroke="black" points="3353.58,-360.26 3344.2,-355.341 3348.46,-365.038 3353.58,-360.26"/>
<text text-anchor="middle" x="3409.5" y="-397.8" font-family="Times,serif" font-size="14.00">read</text>
</g>
<!-- 11_node#ServerID_309ec2955ffa&#45;&gt;gateway:8080#ServerID_OuterContainerID -->
<g id="edge18" class="edge"><title>11_node#ServerID_309ec2955ffa&#45;&gt;gateway:8080#ServerID_OuterContainerID</title>
<path fill="none" stroke="black" d="M3274.02,-318.969C3211.77,-299.332 3109.98,-267.221 3047.22,-247.42"/>
<polygon fill="black" stroke="black" points="3048.08,-244.023 3037.49,-244.352 3045.98,-250.699 3048.08,-244.023"/>
<text text-anchor="middle" x="3239" y="-289.8" font-family="Times,serif" font-size="14.00">connect</text>
</g>
<!-- 10.152.183.10:53#ServerID_OuterContainerID -->
<g id="node16" class="node"><title>10.152.183.10:53#ServerID_OuterContainerID</title>
<polygon fill="none" stroke="black" points="3641,-247 3313.56,-229 3641,-211 3968.44,-229 3641,-247"/>
<text text-anchor="middle" x="3641" y="-225.3" font-family="Times,serif" font-size="14.00">10.152.183.10:53#ServerID_OuterContainerID</text>
</g>
<!-- 11_node#ServerID_309ec2955ffa&#45;&gt;10.152.183.10:53#ServerID_OuterContainerID -->
<g id="edge16" class="edge"><title>11_node#ServerID_309ec2955ffa&#45;&gt;10.152.183.10:53#ServerID_OuterContainerID</title>
<path fill="none" stroke="black" d="M3371.84,-318.96C3397.91,-309 3431.7,-296.385 3462,-286 3502.12,-272.25 3547.76,-257.994 3582.9,-247.308"/>
<polygon fill="black" stroke="black" points="3583.97,-250.641 3592.53,-244.392 3581.94,-243.942 3583.97,-250.641"/>
<text text-anchor="middle" x="3486.5" y="-289.8" font-family="Times,serif" font-size="14.00">sendto</text>
</g>
<!-- /etc/resolv.conf#ServerID_309ec2955ffa -->
<g id="node15" class="node"><title>/etc/resolv.conf#ServerID_309ec2955ffa</title>
<ellipse fill="none" stroke="black" cx="3034" cy="-445" rx="200.365" ry="18"/>
<text text-anchor="middle" x="3034" y="-441.3" font-family="Times,serif" font-size="14.00">/etc/resolv.conf#ServerID_309ec2955ffa</text>
</g>
<!-- /etc/resolv.conf#ServerID_309ec2955ffa&#45;&gt;11_node#ServerID_309ec2955ffa -->
<g id="edge15" class="edge"><title>/etc/resolv.conf#ServerID_309ec2955ffa&#45;&gt;11_node#ServerID_309ec2955ffa</title>
<path fill="none" stroke="black" d="M3079.94,-427.438C3131.43,-408.871 3215,-378.743 3270.71,-358.654"/>
<polygon fill="black" stroke="black" points="3272.22,-361.833 3280.44,-355.149 3269.84,-355.248 3272.22,-361.833"/>
<text text-anchor="middle" x="3189.5" y="-397.8" font-family="Times,serif" font-size="14.00">read</text>
</g>
<!-- 10.152.183.10:53#ServerID_OuterContainerID&#45;&gt;11_node#ServerID_309ec2955ffa -->
<g id="edge17" class="edge"><title>10.152.183.10:53#ServerID_OuterContainerID&#45;&gt;11_node#ServerID_309ec2955ffa</title>
<path fill="none" stroke="black" d="M3617.15,-245.998C3591.86,-262.237 3550.21,-286.933 3511,-301 3493.71,-307.203 3475.08,-312.376 3456.56,-316.672"/>
<polygon fill="black" stroke="black" points="3455.59,-313.302 3446.6,-318.903 3457.12,-320.133 3455.59,-313.302"/>
<text text-anchor="middle" x="3578" y="-289.8" font-family="Times,serif" font-size="14.00">recvfrom</text>
</g>
<!-- /home/app/credentials.txt#ServerID_04eca90de97f -->
<g id="node17" class="node"><title>/home/app/credentials.txt#ServerID_04eca90de97f</title>
<ellipse fill="none" stroke="black" cx="5169" cy="-229" rx="250.756" ry="18"/>
<text text-anchor="middle" x="5169" y="-225.3" font-family="Times,serif" font-size="14.00">/home/app/credentials.txt#ServerID_04eca90de97f</text>
</g>
<!-- 13_node#ServerID_04eca90de97f -->
<g id="node18" class="node"><title>13_node#ServerID_04eca90de97f</title>
<polygon fill="none" stroke="black" points="5300,-139 5038,-139 5038,-103 5300,-103 5300,-139"/>
<text text-anchor="middle" x="5169" y="-117.3" font-family="Times,serif" font-size="14.00">13_node#ServerID_04eca90de97f</text>
</g>
<!-- /home/app/credentials.txt#ServerID_04eca90de97f&#45;&gt;13_node#ServerID_04eca90de97f -->
<g id="edge21" class="edge"><title>/home/app/credentials.txt#ServerID_04eca90de97f&#45;&gt;13_node#ServerID_04eca90de97f</title>
<path fill="none" stroke="black" d="M5169,-210.969C5169,-194.378 5169,-168.883 5169,-149.431"/>
<polygon fill="black" stroke="black" points="5172.5,-149.341 5169,-139.341 5165.5,-149.341 5172.5,-149.341"/>
<text text-anchor="middle" x="5185.5" y="-181.8" font-family="Times,serif" font-size="14.00">read</text>
</g>
<!-- 10.1.80.1:8765#ServerID_OuterContainerID&#45;&gt;10.1.80.44:8080#ServerID_OuterContainerID -->
<g id="edge23" class="edge"><title>10.1.80.1:8765#ServerID_OuterContainerID&#45;&gt;10.1.80.44:8080#ServerID_OuterContainerID</title>
<path fill="none" stroke="black" d="M935.391,-134.41C808.094,-154.253 559.465,-193.01 425.567,-213.882"/>
<polygon fill="black" stroke="black" points="424.681,-210.478 415.339,-215.476 425.759,-217.394 424.681,-210.478"/>
<text text-anchor="middle" x="675" y="-181.8" font-family="Times,serif" font-size="14.00">POST</text>
</g>
</g>
</svg>
