<?xml version="1.0" encoding="UTF-8" standalone="no"?>
<!DOCTYPE svg PUBLIC "-//W3C//DTD SVG 1.1//EN"
 "http://www.w3.org/Graphics/SVG/1.1/DTD/svg11.dtd">
<!-- Generated by graphviz version 2.38.0 (20140413.2041)
 -->
<!-- Title: G Pages: 1 -->
<svg width="4268pt" height="510pt"
 viewBox="0.00 0.00 4268.00 510.00" xmlns="http://www.w3.org/2000/svg" xmlns:xlink="http://www.w3.org/1999/xlink">
<g id="graph0" class="graph" transform="scale(1 1) rotate(0) translate(4 506)">
<title>G</title>
<polygon fill="white" stroke="none" points="-4,4 -4,-506 4264,-506 4264,4 -4,4"/>
<g id="clust1" class="cluster"><title>clusterServerID_2347d2f455dd</title>
<polygon fill="none" stroke="black" points="2422,-311 2422,-494 3536,-494 3536,-311 2422,-311"/>
<text text-anchor="middle" x="2979" y="-478.8" font-family="Times,serif" font-size="14.00">clusterServerID_2347d2f455dd</text>
</g>
<g id="clust2" class="cluster"><title>clusterServerID_5f846fd567&#45;g8dn6</title>
<polygon fill="none" stroke="black" points="3912,-95 3912,-170 4252,-170 4252,-95 3912,-95"/>
<text text-anchor="middle" x="4082" y="-154.8" font-family="Times,serif" font-size="14.00">clusterServerID_5f846fd567&#45;g8dn6</text>
</g>
<g id="clust3" class="cluster"><title>clusterServerID_6df85d7674&#45;f2xxt</title>
<polygon fill="none" stroke="black" points="1431,-311 1431,-386 1767,-386 1767,-311 1431,-311"/>
<text text-anchor="middle" x="1599" y="-370.8" font-family="Times,serif" font-size="14.00">clusterServerID_6df85d7674&#45;f2xxt</text>
</g>
<g id="clust4" class="cluster"><title>clusterServerID_7cf8268e6ab5</title>
<polygon fill="none" stroke="black" points="8,-8 8,-278 600,-278 600,-8 8,-8"/>
<text text-anchor="middle" x="304" y="-262.8" font-family="Times,serif" font-size="14.00">clusterServerID_7cf8268e6ab5</text>
</g>
<g id="clust5" class="cluster"><title>clusterServerID_OuterContainerID</title>
<polygon fill="none" stroke="black" points="608,-95 608,-278 3904,-278 3904,-95 608,-95"/>
<text text-anchor="middle" x="2256" y="-262.8" font-family="Times,serif" font-size="14.00">clusterServerID_OuterContainerID</text>
</g>
<!-- 10.1.80.93:35104#ServerID_OuterContainerID -->
<g id="node1" class="node"><title>10.1.80.93:35104#ServerID_OuterContainerID</title>
<polygon fill="none" stroke="black" points="1599,-247 1271.56,-229 1599,-211 1926.44,-229 1599,-247"/>
<text text-anchor="middle" x="1599" y="-225.3" font-family="Times,serif" font-size="14.00">10.1.80.93:35104#ServerID_OuterContainerID</text>
</g>
<!-- 1_fwatchdog#ServerID_6df85d7674&#45;f2xxt -->
<g id="node2" class="node"><title>1_fwatchdog#ServerID_6df85d7674&#45;f2xxt</title>
<polygon fill="none" stroke="black" points="1759,-355 1439,-355 1439,-319 1759,-319 1759,-355"/>
<text text-anchor="middle" x="1599" y="-333.3" font-family="Times,serif" font-size="14.00">1_fwatchdog#ServerID_6df85d7674&#45;f2xxt</text>
</g>
<!-- 10.1.80.93:35104#ServerID_OuterContainerID&#45;&gt;1_fwatchdog#ServerID_6df85d7674&#45;f2xxt -->
<g id="edge1" class="edge"><title>10.1.80.93:35104#ServerID_OuterContainerID&#45;&gt;1_fwatchdog#ServerID_6df85d7674&#45;f2xxt</title>
<path fill="none" stroke="black" d="M1611.58,-246.633C1618.82,-257.272 1627.21,-271.714 1631,-286 1632.71,-292.443 1633.41,-294.785 1631,-301 1629.64,-304.507 1627.74,-307.876 1625.55,-311.046"/>
<polygon fill="black" stroke="black" points="1622.75,-308.944 1619.2,-318.928 1628.2,-313.335 1622.75,-308.944"/>
<text text-anchor="middle" x="1652" y="-289.8" font-family="Times,serif" font-size="14.00">POST</text>
</g>
<!-- 1_fwatchdog#ServerID_2347d2f455dd -->
<g id="node9" class="node"><title>1_fwatchdog#ServerID_2347d2f455dd</title>
<polygon fill="none" stroke="black" points="3528,-463 3232,-463 3232,-427 3528,-427 3528,-463"/>
<text text-anchor="middle" x="3380" y="-441.3" font-family="Times,serif" font-size="14.00">1_fwatchdog#ServerID_2347d2f455dd</text>
</g>
<!-- 10.1.80.93:35104#ServerID_OuterContainerID&#45;&gt;1_fwatchdog#ServerID_2347d2f455dd -->
<g id="edge10" class="edge"><title>10.1.80.93:35104#ServerID_OuterContainerID&#45;&gt;1_fwatchdog#ServerID_2347d2f455dd</title>
<path fill="none" stroke="black" d="M1670.46,-243.095C1738.27,-254.834 1843.18,-271.219 1935,-278 2095.34,-289.841 3221.77,-272.715 3382,-286 3451.54,-291.766 3491.76,-257.875 3537,-311 3558.61,-336.378 3556.05,-358.649 3537,-386 3525.37,-402.699 3508.35,-414.602 3489.76,-423.083"/>
<polygon fill="black" stroke="black" points="3488.38,-419.867 3480.53,-426.978 3491.1,-426.317 3488.38,-419.867"/>
<text text-anchor="middle" x="3568.5" y="-333.3" font-family="Times,serif" font-size="14.00">read</text>
</g>
<!-- 1_fwatchdog#ServerID_6df85d7674&#45;f2xxt&#45;&gt;10.1.80.93:35104#ServerID_OuterContainerID -->
<g id="edge6" class="edge"><title>1_fwatchdog#ServerID_6df85d7674&#45;f2xxt&#45;&gt;10.1.80.93:35104#ServerID_OuterContainerID</title>
<path fill="none" stroke="black" d="M1560,-318.938C1553.18,-314.147 1547,-308.22 1543,-301 1533.12,-283.182 1547.65,-265.184 1564.38,-251.768"/>
<polygon fill="black" stroke="black" points="1566.75,-254.361 1572.67,-245.571 1562.56,-248.755 1566.75,-254.361"/>
<text text-anchor="middle" x="1585" y="-289.8" font-family="Times,serif" font-size="14.00">RESPONSE</text>
</g>
<!-- gateway:8080#ServerID_OuterContainerID -->
<g id="node3" class="node"><title>gateway:8080#ServerID_OuterContainerID</title>
<polygon fill="none" stroke="black" points="2248,-247 1943.52,-229 2248,-211 2552.48,-229 2248,-247"/>
<text text-anchor="middle" x="2248" y="-225.3" font-family="Times,serif" font-size="14.00">gateway:8080#ServerID_OuterContainerID</text>
</g>
<!-- 1_fwatchdog#ServerID_6df85d7674&#45;f2xxt&#45;&gt;gateway:8080#ServerID_OuterContainerID -->
<g id="edge5" class="edge"><title>1_fwatchdog#ServerID_6df85d7674&#45;f2xxt&#45;&gt;gateway:8080#ServerID_OuterContainerID</title>
<path fill="none" stroke="black" d="M1683.91,-318.981C1737.21,-308.634 1807.46,-295.609 1870,-286 1898.77,-281.58 1906.17,-281.984 1935,-278 2011.35,-267.45 2097.94,-254.06 2160.67,-244.104"/>
<polygon fill="black" stroke="black" points="2161.59,-247.501 2170.92,-242.474 2160.49,-240.588 2161.59,-247.501"/>
<text text-anchor="middle" x="1890" y="-289.8" font-family="Times,serif" font-size="14.00">POST</text>
</g>
<!-- 10.1.80.93:8080#ServerID_OuterContainerID -->
<g id="node6" class="node"><title>10.1.80.93:8080#ServerID_OuterContainerID</title>
<polygon fill="none" stroke="black" points="935,-247 616.105,-229 935,-211 1253.9,-229 935,-247"/>
<text text-anchor="middle" x="935" y="-225.3" font-family="Times,serif" font-size="14.00">10.1.80.93:8080#ServerID_OuterContainerID</text>
</g>
<!-- 1_fwatchdog#ServerID_6df85d7674&#45;f2xxt&#45;&gt;10.1.80.93:8080#ServerID_OuterContainerID -->
<g id="edge4" class="edge"><title>1_fwatchdog#ServerID_6df85d7674&#45;f2xxt&#45;&gt;10.1.80.93:8080#ServerID_OuterContainerID</title>
<path fill="none" stroke="black" d="M1492.32,-318.969C1362.35,-298.221 1145.15,-263.548 1023.84,-244.182"/>
<polygon fill="black" stroke="black" points="1024.27,-240.706 1013.84,-242.586 1023.16,-247.619 1024.27,-240.706"/>
<text text-anchor="middle" x="1385" y="-289.8" font-family="Times,serif" font-size="14.00">POST</text>
</g>
<!-- gateway:8080#ServerID_OuterContainerID&#45;&gt;1_fwatchdog#ServerID_6df85d7674&#45;f2xxt -->
<g id="edge2" class="edge"><title>gateway:8080#ServerID_OuterContainerID&#45;&gt;1_fwatchdog#ServerID_6df85d7674&#45;f2xxt</title>
<path fill="none" stroke="black" d="M2191.88,-243.704C2125.77,-259.434 2012.47,-285.104 1914,-301 1867.22,-308.553 1816.26,-314.985 1769.23,-320.196"/>
<polygon fill="black" stroke="black" points="1768.82,-316.72 1759.26,-321.289 1769.58,-323.678 1768.82,-316.72"/>
<text text-anchor="middle" x="2038" y="-289.8" font-family="Times,serif" font-size="14.00">RESPONSE</text>
</g>
<!-- 10.1.80.93:55346#ServerID_OuterContainerID -->
<g id="node4" class="node"><title>10.1.80.93:55346#ServerID_OuterContainerID</title>
<polygon fill="none" stroke="black" points="2897,-247 2569.56,-229 2897,-211 3224.44,-229 2897,-247"/>
<text text-anchor="middle" x="2897" y="-225.3" font-family="Times,serif" font-size="14.00">10.1.80.93:55346#ServerID_OuterContainerID</text>
</g>
<!-- 1_fwatchdog#ServerID_5f846fd567&#45;g8dn6 -->
<g id="node5" class="node"><title>1_fwatchdog#ServerID_5f846fd567&#45;g8dn6</title>
<polygon fill="none" stroke="black" points="4244,-139 3920,-139 3920,-103 4244,-103 4244,-139"/>
<text text-anchor="middle" x="4082" y="-117.3" font-family="Times,serif" font-size="14.00">1_fwatchdog#ServerID_5f846fd567&#45;g8dn6</text>
</g>
<!-- 10.1.80.93:55346#ServerID_OuterContainerID&#45;&gt;1_fwatchdog#ServerID_5f846fd567&#45;g8dn6 -->
<g id="edge3" class="edge"><title>10.1.80.93:55346#ServerID_OuterContainerID&#45;&gt;1_fwatchdog#ServerID_5f846fd567&#45;g8dn6</title>
<path fill="none" stroke="black" d="M3041.12,-218.914C3208.76,-208.467 3493.88,-191.079 3739,-178 3814.09,-173.993 3833.74,-181.849 3908,-170 3946.59,-163.843 3988.86,-152.296 4022.08,-142.071"/>
<polygon fill="black" stroke="black" points="4023.14,-145.407 4031.64,-139.088 4021.05,-138.725 4023.14,-145.407"/>
<text text-anchor="middle" x="3759" y="-181.8" font-family="Times,serif" font-size="14.00">POST</text>
</g>
<!-- 1_fwatchdog#ServerID_7cf8268e6ab5 -->
<g id="node14" class="node"><title>1_fwatchdog#ServerID_7cf8268e6ab5</title>
<polygon fill="none" stroke="black" points="592,-139 298,-139 298,-103 592,-103 592,-139"/>
<text text-anchor="middle" x="445" y="-117.3" font-family="Times,serif" font-size="14.00">1_fwatchdog#ServerID_7cf8268e6ab5</text>
</g>
<!-- 10.1.80.93:55346#ServerID_OuterContainerID&#45;&gt;1_fwatchdog#ServerID_7cf8268e6ab5 -->
<g id="edge18" class="edge"><title>10.1.80.93:55346#ServerID_OuterContainerID&#45;&gt;1_fwatchdog#ServerID_7cf8268e6ab5</title>
<path fill="none" stroke="black" d="M2747.77,-219.163C2689.52,-216.051 2622.15,-212.866 2561,-211 1795.54,-187.647 1602.69,-234.496 838,-193 733.652,-187.338 706.509,-190.308 604,-170 569.821,-163.229 532.481,-152.155 502.581,-142.349"/>
<polygon fill="black" stroke="black" points="503.335,-138.911 492.741,-139.08 501.128,-145.555 503.335,-138.911"/>
<text text-anchor="middle" x="854.5" y="-181.8" font-family="Times,serif" font-size="14.00">read</text>
</g>
<!-- 1_fwatchdog#ServerID_5f846fd567&#45;g8dn6&#45;&gt;10.1.80.93:55346#ServerID_OuterContainerID -->
<g id="edge7" class="edge"><title>1_fwatchdog#ServerID_5f846fd567&#45;g8dn6&#45;&gt;10.1.80.93:55346#ServerID_OuterContainerID</title>
<path fill="none" stroke="black" d="M4027.97,-139.004C3967.9,-156.882 3867.66,-183.683 3779,-193 3537.53,-218.374 3475.59,-200.865 3233,-211 3177.65,-213.312 3117.19,-216.245 3063.01,-219.021"/>
<polygon fill="black" stroke="black" points="3062.78,-215.528 3052.97,-219.537 3063.13,-222.519 3062.78,-215.528"/>
<text text-anchor="middle" x="3913" y="-181.8" font-family="Times,serif" font-size="14.00">RESPONSE</text>
</g>
<!-- 10.1.80.93:8080#ServerID_OuterContainerID&#45;&gt;1_fwatchdog#ServerID_6df85d7674&#45;f2xxt -->
<g id="edge8" class="edge"><title>10.1.80.93:8080#ServerID_OuterContainerID&#45;&gt;1_fwatchdog#ServerID_6df85d7674&#45;f2xxt</title>
<path fill="none" stroke="black" d="M979.596,-244.634C1031.48,-261.048 1120,-287.179 1198,-301 1273.08,-314.304 1357.02,-322.626 1428.61,-327.795"/>
<polygon fill="black" stroke="black" points="1428.41,-331.289 1438.63,-328.504 1428.9,-324.307 1428.41,-331.289"/>
<text text-anchor="middle" x="1240" y="-289.8" font-family="Times,serif" font-size="14.00">RESPONSE</text>
</g>
<!-- 10.1.80.1:48952#ServerID_OuterContainerID -->
<g id="node17" class="node"><title>10.1.80.1:48952#ServerID_OuterContainerID</title>
<polygon fill="none" stroke="black" points="1591,-139 1272.1,-121 1591,-103 1909.9,-121 1591,-139"/>
<text text-anchor="middle" x="1591" y="-117.3" font-family="Times,serif" font-size="14.00">10.1.80.1:48952#ServerID_OuterContainerID</text>
</g>
<!-- 10.1.80.93:8080#ServerID_OuterContainerID&#45;&gt;10.1.80.1:48952#ServerID_OuterContainerID -->
<g id="edge25" class="edge"><title>10.1.80.93:8080#ServerID_OuterContainerID&#45;&gt;10.1.80.1:48952#ServerID_OuterContainerID</title>
<path fill="none" stroke="black" d="M1070.94,-218.642C1136.5,-213.071 1216.11,-204.75 1287,-193 1372.09,-178.895 1468.87,-154.889 1529.92,-138.743"/>
<polygon fill="black" stroke="black" points="1531.01,-142.075 1539.77,-136.123 1529.21,-135.31 1531.01,-142.075"/>
<text text-anchor="middle" x="1404" y="-181.8" font-family="Times,serif" font-size="14.00">RESPONSE</text>
</g>
<!-- 10.0.88.125:31112#ServerID_OuterContainerID -->
<g id="node18" class="node"><title>10.0.88.125:31112#ServerID_OuterContainerID</title>
<polygon fill="none" stroke="black" points="2263,-139 1927.52,-121 2263,-103 2598.48,-121 2263,-139"/>
<text text-anchor="middle" x="2263" y="-117.3" font-family="Times,serif" font-size="14.00">10.0.88.125:31112#ServerID_OuterContainerID</text>
</g>
<!-- 10.1.80.93:8080#ServerID_OuterContainerID&#45;&gt;10.0.88.125:31112#ServerID_OuterContainerID -->
<g id="edge26" class="edge"><title>10.1.80.93:8080#ServerID_OuterContainerID&#45;&gt;10.0.88.125:31112#ServerID_OuterContainerID</title>
<path fill="none" stroke="black" d="M1088.18,-219.646C1344.16,-205.584 1838.83,-177.943 1919,-170 2006.08,-161.372 2104.97,-147.103 2174.3,-136.359"/>
<polygon fill="black" stroke="black" points="2174.97,-139.798 2184.31,-134.801 2173.89,-132.881 2174.97,-139.798"/>
<text text-anchor="middle" x="1837" y="-181.8" font-family="Times,serif" font-size="14.00">RESPONSE</text>
</g>
<!-- 10.1.80.1:57732#ServerID_OuterContainerID -->
<g id="node19" class="node"><title>10.1.80.1:57732#ServerID_OuterContainerID</title>
<polygon fill="none" stroke="black" points="935,-139 616.105,-121 935,-103 1253.9,-121 935,-139"/>
<text text-anchor="middle" x="935" y="-117.3" font-family="Times,serif" font-size="14.00">10.1.80.1:57732#ServerID_OuterContainerID</text>
</g>
<!-- 10.1.80.93:8080#ServerID_OuterContainerID&#45;&gt;10.1.80.1:57732#ServerID_OuterContainerID -->
<g id="edge28" class="edge"><title>10.1.80.93:8080#ServerID_OuterContainerID&#45;&gt;10.1.80.1:57732#ServerID_OuterContainerID</title>
<path fill="none" stroke="black" d="M898.241,-212.99C890.168,-207.888 882.649,-201.31 878,-193 867.985,-175.099 882.769,-157.102 899.784,-143.707"/>
<polygon fill="black" stroke="black" points="902.224,-146.258 908.218,-137.522 898.084,-140.614 902.224,-146.258"/>
<text text-anchor="middle" x="920" y="-181.8" font-family="Times,serif" font-size="14.00">RESPONSE</text>
</g>
<!-- /etc/hosts#ServerID_2347d2f455dd -->
<g id="node7" class="node"><title>/etc/hosts#ServerID_2347d2f455dd</title>
<ellipse fill="none" stroke="black" cx="3035" cy="-445" rx="178.969" ry="18"/>
<text text-anchor="middle" x="3035" y="-441.3" font-family="Times,serif" font-size="14.00">/etc/hosts#ServerID_2347d2f455dd</text>
</g>
<!-- 13_node#ServerID_2347d2f455dd -->
<g id="node8" class="node"><title>13_node#ServerID_2347d2f455dd</title>
<polygon fill="none" stroke="black" points="2940.5,-355 2675.5,-355 2675.5,-319 2940.5,-319 2940.5,-355"/>
<text text-anchor="middle" x="2808" y="-333.3" font-family="Times,serif" font-size="14.00">13_node#ServerID_2347d2f455dd</text>
</g>
<!-- /etc/hosts#ServerID_2347d2f455dd&#45;&gt;13_node#ServerID_2347d2f455dd -->
<g id="edge9" class="edge"><title>/etc/hosts#ServerID_2347d2f455dd&#45;&gt;13_node#ServerID_2347d2f455dd</title>
<path fill="none" stroke="black" d="M2999.28,-427.321C2959.97,-408.962 2896.66,-379.399 2853.74,-359.358"/>
<polygon fill="black" stroke="black" points="2855.18,-356.168 2844.64,-355.108 2852.22,-362.511 2855.18,-356.168"/>
<text text-anchor="middle" x="2971.5" y="-397.8" font-family="Times,serif" font-size="14.00">read</text>
</g>
<!-- 13_node#ServerID_2347d2f455dd&#45;&gt;gateway:8080#ServerID_OuterContainerID -->
<g id="edge20" class="edge"><title>13_node#ServerID_2347d2f455dd&#45;&gt;gateway:8080#ServerID_OuterContainerID</title>
<path fill="none" stroke="black" d="M2718.03,-318.969C2609.71,-298.467 2429.56,-264.367 2326.59,-244.877"/>
<polygon fill="black" stroke="black" points="2327.05,-241.4 2316.57,-242.979 2325.75,-248.278 2327.05,-241.4"/>
<text text-anchor="middle" x="2639" y="-289.8" font-family="Times,serif" font-size="14.00">connect</text>
</g>
<!-- 10.152.183.10:53#ServerID_OuterContainerID -->
<g id="node12" class="node"><title>10.152.183.10:53#ServerID_OuterContainerID</title>
<polygon fill="none" stroke="black" points="3569,-247 3241.56,-229 3569,-211 3896.44,-229 3569,-247"/>
<text text-anchor="middle" x="3569" y="-225.3" font-family="Times,serif" font-size="14.00">10.152.183.10:53#ServerID_OuterContainerID</text>
</g>
<!-- 13_node#ServerID_2347d2f455dd&#45;&gt;10.152.183.10:53#ServerID_OuterContainerID -->
<g id="edge15" class="edge"><title>13_node#ServerID_2347d2f455dd&#45;&gt;10.152.183.10:53#ServerID_OuterContainerID</title>
<path fill="none" stroke="black" d="M2899.27,-318.997C2915.79,-316.152 2932.89,-313.362 2949,-311 3074.73,-292.566 3106.98,-294.32 3233,-278 3315.13,-267.364 3408.34,-253.94 3475.72,-243.995"/>
<polygon fill="black" stroke="black" points="3476.51,-247.417 3485.89,-242.491 3475.48,-240.492 3476.51,-247.417"/>
<text text-anchor="middle" x="3185.5" y="-289.8" font-family="Times,serif" font-size="14.00">sendto</text>
</g>
<!-- localhost:3000#ServerID_2347d2f455dd -->
<g id="node10" class="node"><title>localhost:3000#ServerID_2347d2f455dd</title>
<polygon fill="none" stroke="black" points="3243,-355 2958.12,-337 3243,-319 3527.88,-337 3243,-355"/>
<text text-anchor="middle" x="3243" y="-333.3" font-family="Times,serif" font-size="14.00">localhost:3000#ServerID_2347d2f455dd</text>
</g>
<!-- 1_fwatchdog#ServerID_2347d2f455dd&#45;&gt;localhost:3000#ServerID_2347d2f455dd -->
<g id="edge11" class="edge"><title>1_fwatchdog#ServerID_2347d2f455dd&#45;&gt;localhost:3000#ServerID_2347d2f455dd</title>
<path fill="none" stroke="black" d="M3371.03,-426.718C3364.99,-416.303 3356.27,-403.3 3346,-394 3329.4,-378.973 3308.05,-366.52 3289.1,-357.204"/>
<polygon fill="black" stroke="black" points="3290.55,-354.019 3280.02,-352.885 3287.54,-360.341 3290.55,-354.019"/>
<text text-anchor="middle" x="3388" y="-397.8" font-family="Times,serif" font-size="14.00">connect</text>
</g>
<!-- 1_fwatchdog#ServerID_2347d2f455dd&#45;&gt;localhost:3000#ServerID_2347d2f455dd -->
<g id="edge12" class="edge"><title>1_fwatchdog#ServerID_2347d2f455dd&#45;&gt;localhost:3000#ServerID_2347d2f455dd</title>
<path fill="none" stroke="black" d="M3286.62,-426.978C3269.36,-422.039 3254.89,-416.04 3249,-409 3238.97,-397.017 3237.38,-379.57 3238.34,-364.97"/>
<polygon fill="black" stroke="black" points="3241.82,-365.275 3239.4,-354.961 3234.86,-364.533 3241.82,-365.275"/>
<text text-anchor="middle" x="3268" y="-397.8" font-family="Times,serif" font-size="14.00">write</text>
</g>
<!-- localhost:3000#ServerID_2347d2f455dd&#45;&gt;1_fwatchdog#ServerID_2347d2f455dd -->
<g id="edge13" class="edge"><title>localhost:3000#ServerID_2347d2f455dd&#45;&gt;1_fwatchdog#ServerID_2347d2f455dd</title>
<path fill="none" stroke="black" d="M3255.23,-354.267C3267.53,-369.798 3287.67,-393.121 3309,-409 3315.43,-413.789 3322.62,-418.214 3329.89,-422.191"/>
<polygon fill="black" stroke="black" points="3328.6,-425.465 3339.09,-426.983 3331.84,-419.258 3328.6,-425.465"/>
<text text-anchor="middle" x="3325.5" y="-397.8" font-family="Times,serif" font-size="14.00">read</text>
</g>
<!-- /etc/resolv.conf#ServerID_2347d2f455dd -->
<g id="node11" class="node"><title>/etc/resolv.conf#ServerID_2347d2f455dd</title>
<ellipse fill="none" stroke="black" cx="2634" cy="-445" rx="204.164" ry="18"/>
<text text-anchor="middle" x="2634" y="-441.3" font-family="Times,serif" font-size="14.00">/etc/resolv.conf#ServerID_2347d2f455dd</text>
</g>
<!-- /etc/resolv.conf#ServerID_2347d2f455dd&#45;&gt;13_node#ServerID_2347d2f455dd -->
<g id="edge14" class="edge"><title>/etc/resolv.conf#ServerID_2347d2f455dd&#45;&gt;13_node#ServerID_2347d2f455dd</title>
<path fill="none" stroke="black" d="M2661.96,-426.969C2691.55,-408.942 2738.4,-380.402 2771.02,-360.525"/>
<polygon fill="black" stroke="black" points="2773.11,-363.356 2779.82,-355.164 2769.46,-357.378 2773.11,-363.356"/>
<text text-anchor="middle" x="2731.5" y="-397.8" font-family="Times,serif" font-size="14.00">read</text>
</g>
<!-- 10.152.183.10:53#ServerID_OuterContainerID&#45;&gt;13_node#ServerID_2347d2f455dd -->
<g id="edge16" class="edge"><title>10.152.183.10:53#ServerID_OuterContainerID&#45;&gt;13_node#ServerID_2347d2f455dd</title>
<path fill="none" stroke="black" d="M3513.49,-243.968C3443.99,-260.789 3321.05,-288.357 3214,-301 3096.95,-314.824 3066.19,-298.46 2949,-311 2934.1,-312.595 2918.39,-314.825 2903.09,-317.303"/>
<polygon fill="black" stroke="black" points="2902.39,-313.871 2893.1,-318.963 2903.54,-320.776 2902.39,-313.871"/>
<text text-anchor="middle" x="3345" y="-289.8" font-family="Times,serif" font-size="14.00">recvfrom</text>
</g>
<!-- localhost:3000#ServerID_7cf8268e6ab5 -->
<g id="node13" class="node"><title>localhost:3000#ServerID_7cf8268e6ab5</title>
<polygon fill="none" stroke="black" points="309,-247 25.7991,-229 309,-211 592.201,-229 309,-247"/>
<text text-anchor="middle" x="309" y="-225.3" font-family="Times,serif" font-size="14.00">localhost:3000#ServerID_7cf8268e6ab5</text>
</g>
<!-- localhost:3000#ServerID_7cf8268e6ab5&#45;&gt;1_fwatchdog#ServerID_7cf8268e6ab5 -->
<g id="edge17" class="edge"><title>localhost:3000#ServerID_7cf8268e6ab5&#45;&gt;1_fwatchdog#ServerID_7cf8268e6ab5</title>
<path fill="none" stroke="black" d="M304.512,-210.873C302.823,-200.517 302.624,-187.521 309,-178 319.37,-162.515 334.881,-151.308 351.759,-143.198"/>
<polygon fill="black" stroke="black" points="353.52,-146.247 361.252,-139.004 350.691,-139.844 353.52,-146.247"/>
<text text-anchor="middle" x="325.5" y="-181.8" font-family="Times,serif" font-size="14.00">read</text>
</g>
<!-- 13_node#ServerID_7cf8268e6ab5 -->
<g id="node15" class="node"><title>13_node#ServerID_7cf8268e6ab5</title>
<polygon fill="none" stroke="black" points="279.5,-139 16.5,-139 16.5,-103 279.5,-103 279.5,-139"/>
<text text-anchor="middle" x="148" y="-117.3" font-family="Times,serif" font-size="14.00">13_node#ServerID_7cf8268e6ab5</text>
</g>
<!-- localhost:3000#ServerID_7cf8268e6ab5&#45;&gt;13_node#ServerID_7cf8268e6ab5 -->
<g id="edge21" class="edge"><title>localhost:3000#ServerID_7cf8268e6ab5&#45;&gt;13_node#ServerID_7cf8268e6ab5</title>
<path fill="none" stroke="black" d="M285.244,-212.359C258.176,-194.538 213.693,-165.251 182.733,-144.868"/>
<polygon fill="black" stroke="black" points="184.267,-141.687 173.99,-139.112 180.418,-147.534 184.267,-141.687"/>
<text text-anchor="middle" x="269.5" y="-181.8" font-family="Times,serif" font-size="14.00">read</text>
</g>
<!-- 1_fwatchdog#ServerID_7cf8268e6ab5&#45;&gt;localhost:3000#ServerID_7cf8268e6ab5 -->
<g id="edge19" class="edge"><title>1_fwatchdog#ServerID_7cf8268e6ab5&#45;&gt;localhost:3000#ServerID_7cf8268e6ab5</title>
<path fill="none" stroke="black" d="M418.859,-139.154C402.951,-149.871 382.411,-164.212 365,-178 354.463,-186.344 343.328,-196.08 333.787,-204.731"/>
<polygon fill="black" stroke="black" points="331.202,-202.352 326.195,-211.689 335.932,-207.513 331.202,-202.352"/>
<text text-anchor="middle" x="394" y="-181.8" font-family="Times,serif" font-size="14.00">connect</text>
</g>
<!-- 1_fwatchdog#ServerID_7cf8268e6ab5&#45;&gt;localhost:3000#ServerID_7cf8268e6ab5 -->
<g id="edge22" class="edge"><title>1_fwatchdog#ServerID_7cf8268e6ab5&#45;&gt;localhost:3000#ServerID_7cf8268e6ab5</title>
<path fill="none" stroke="black" d="M444.11,-139.223C442.369,-155.23 437.345,-178.692 423,-193 414.95,-201.029 405.109,-207.223 394.614,-212.002"/>
<polygon fill="black" stroke="black" points="393.173,-208.81 385.252,-215.846 395.832,-215.285 393.173,-208.81"/>
<text text-anchor="middle" x="453" y="-181.8" font-family="Times,serif" font-size="14.00">write</text>
</g>
<!-- pipe:[7845976]#ServerID_7cf8268e6ab5 -->
<g id="node16" class="node"><title>pipe:[7845976]#ServerID_7cf8268e6ab5</title>
<ellipse fill="none" stroke="black" cx="390" cy="-34" rx="202.264" ry="18"/>
<text text-anchor="middle" x="390" y="-30.3" font-family="Times,serif" font-size="14.00">pipe:[7845976]#ServerID_7cf8268e6ab5</text>
</g>
<!-- 1_fwatchdog#ServerID_7cf8268e6ab5&#45;&gt;pipe:[7845976]#ServerID_7cf8268e6ab5 -->
<g id="edge23" class="edge"><title>1_fwatchdog#ServerID_7cf8268e6ab5&#45;&gt;pipe:[7845976]#ServerID_7cf8268e6ab5</title>
<path fill="none" stroke="black" d="M433.87,-102.799C426.042,-90.7017 415.433,-74.3049 406.608,-60.6665"/>
<polygon fill="black" stroke="black" points="409.485,-58.6698 401.114,-52.1754 403.608,-62.4725 409.485,-58.6698"/>
<text text-anchor="middle" x="440" y="-73.8" font-family="Times,serif" font-size="14.00">write</text>
</g>
<!-- 10.1.80.1:48952#ServerID_OuterContainerID&#45;&gt;10.1.80.93:8080#ServerID_OuterContainerID -->
<g id="edge24" class="edge"><title>10.1.80.1:48952#ServerID_OuterContainerID&#45;&gt;10.1.80.93:8080#ServerID_OuterContainerID</title>
<path fill="none" stroke="black" d="M1512.85,-134.627C1389.97,-154.483 1152.32,-192.884 1023.38,-213.718"/>
<polygon fill="black" stroke="black" points="1022.47,-210.321 1013.15,-215.372 1023.58,-217.232 1022.47,-210.321"/>
<text text-anchor="middle" x="1263" y="-181.8" font-family="Times,serif" font-size="14.00">POST</text>
</g>
<!-- 10.1.80.1:57732#ServerID_OuterContainerID&#45;&gt;10.1.80.93:8080#ServerID_OuterContainerID -->
<g id="edge27" class="edge"><title>10.1.80.1:57732#ServerID_OuterContainerID&#45;&gt;10.1.80.93:8080#ServerID_OuterContainerID</title>
<path fill="none" stroke="black" d="M949.781,-138.168C960.961,-152.438 973.248,-173.884 966,-193 964.552,-196.819 962.476,-200.488 960.074,-203.92"/>
<polygon fill="black" stroke="black" points="957.178,-201.934 953.607,-211.909 962.619,-206.339 957.178,-201.934"/>
<text text-anchor="middle" x="989" y="-181.8" font-family="Times,serif" font-size="14.00">POST</text>
</g>
</g>
</svg>
