<?xml version="1.0" encoding="UTF-8" standalone="no"?>
<!DOCTYPE svg PUBLIC "-//W3C//DTD SVG 1.1//EN"
 "http://www.w3.org/Graphics/SVG/1.1/DTD/svg11.dtd">
<!-- Generated by graphviz version 9.0.0 (20230911.1827)
 -->
<!-- Title: G Pages: 1 -->
<svg width="3590pt" height="279pt"
 viewBox="0.00 0.00 3590.40 278.50" xmlns="http://www.w3.org/2000/svg" xmlns:xlink="http://www.w3.org/1999/xlink">
<g id="graph0" class="graph" transform="scale(1 1) rotate(0) translate(4 274.5)">
<title>G</title>
<polygon fill="white" stroke="none" points="-4,4 -4,-274.5 3586.4,-274.5 3586.4,4 -4,4"/>
<!-- Container##iterproduct&#45;purchase&#45;publish&#45;6b5687c66&#45;p4g7h -->
<g id="node1" class="node">
<title>Container##iterproduct&#45;purchase&#45;publish&#45;6b5687c66&#45;p4g7h</title>
<polygon fill="none" stroke="black" points="341.5,-270.5 0,-270.5 0,-234.5 341.5,-234.5 341.5,-270.5"/>
<text text-anchor="middle" x="170.75" y="-247.45" font-family="Times,serif" font-size="14.00">Container##iterproduct&#45;purchase&#45;publish&#45;6b5687c66&#45;p4g7h</text>
</g>
<!-- Process##20 -->
<g id="node2" class="node">
<title>Process##20</title>
<polygon fill="none" stroke="black" points="2051.88,-182 1967.62,-182 1967.62,-146 2051.88,-146 2051.88,-182"/>
<text text-anchor="middle" x="2009.75" y="-158.95" font-family="Times,serif" font-size="14.00">Process##20</text>
</g>
<!-- Container##iterproduct&#45;purchase&#45;publish&#45;6b5687c66&#45;p4g7h&#45;&gt;Process##20 -->
<g id="edge1" class="edge">
<title>Container##iterproduct&#45;purchase&#45;publish&#45;6b5687c66&#45;p4g7h&#45;&gt;Process##20</title>
<path fill="none" stroke="black" d="M165.53,-234.34C163.26,-223.03 162.79,-208.75 171.5,-200 203.81,-167.54 1656.3,-165.15 1956,-165"/>
<polygon fill="black" stroke="black" points="1955.88,-168.5 1965.88,-165 1955.87,-161.5 1955.88,-168.5"/>
<text text-anchor="middle" x="283.88" y="-203.2" font-family="Times,serif" font-size="14.00">0ff807bf&#45;8ddf&#45;4118&#45;8203&#45;d750d73815e8</text>
</g>
<!-- Container##iterproduct&#45;purchase&#45;publish&#45;6b5687c66&#45;p4g7h&#45;&gt;Process##20 -->
<g id="edge2" class="edge">
<title>Container##iterproduct&#45;purchase&#45;publish&#45;6b5687c66&#45;p4g7h&#45;&gt;Process##20</title>
<path fill="none" stroke="black" d="M284.24,-234.04C365.88,-222.24 478.71,-207.5 578.5,-200 853.94,-179.29 1729.95,-168.16 1956.07,-165.58"/>
<polygon fill="black" stroke="black" points="1955.8,-169.09 1965.76,-165.48 1955.72,-162.09 1955.8,-169.09"/>
<text text-anchor="middle" x="692.38" y="-203.2" font-family="Times,serif" font-size="14.00">a363b55b&#45;4b7e&#45;4ff9&#45;bdb2&#45;1516d6b8339a</text>
</g>
<!-- Process##23 -->
<g id="node10" class="node">
<title>Process##23</title>
<polygon fill="none" stroke="black" points="1443.88,-109 1359.62,-109 1359.62,-73 1443.88,-73 1443.88,-109"/>
<text text-anchor="middle" x="1401.75" y="-85.95" font-family="Times,serif" font-size="14.00">Process##23</text>
</g>
<!-- Process##20&#45;&gt;Process##23 -->
<g id="edge10" class="edge">
<title>Process##20&#45;&gt;Process##23</title>
<path fill="none" stroke="black" d="M1967.33,-162.13C1875.28,-159.56 1650.42,-149.53 1455.17,-109.24"/>
<polygon fill="black" stroke="black" points="1456.12,-105.86 1445.61,-107.23 1454.68,-112.71 1456.12,-105.86"/>
</g>
<!-- Process##24 -->
<g id="node11" class="node">
<title>Process##24</title>
<polygon fill="none" stroke="black" points="1545.88,-109 1461.62,-109 1461.62,-73 1545.88,-73 1545.88,-109"/>
<text text-anchor="middle" x="1503.75" y="-85.95" font-family="Times,serif" font-size="14.00">Process##24</text>
</g>
<!-- Process##20&#45;&gt;Process##24 -->
<g id="edge11" class="edge">
<title>Process##20&#45;&gt;Process##24</title>
<path fill="none" stroke="black" d="M1967.24,-160.85C1888.06,-156.22 1712.66,-143.05 1557.29,-109.31"/>
<polygon fill="black" stroke="black" points="1558.14,-105.92 1547.62,-107.18 1556.63,-112.75 1558.14,-105.92"/>
</g>
<!-- Process##25 -->
<g id="node12" class="node">
<title>Process##25</title>
<polygon fill="none" stroke="black" points="1647.88,-109 1563.62,-109 1563.62,-73 1647.88,-73 1647.88,-109"/>
<text text-anchor="middle" x="1605.75" y="-85.95" font-family="Times,serif" font-size="14.00">Process##25</text>
</g>
<!-- Process##20&#45;&gt;Process##25 -->
<g id="edge12" class="edge">
<title>Process##20&#45;&gt;Process##25</title>
<path fill="none" stroke="black" d="M1967.19,-158.85C1902.48,-152.04 1775.45,-136.65 1659.37,-109.41"/>
<polygon fill="black" stroke="black" points="1660.18,-106.01 1649.64,-107.09 1658.56,-112.82 1660.18,-106.01"/>
</g>
<!-- Process##26 -->
<g id="node13" class="node">
<title>Process##26</title>
<polygon fill="none" stroke="black" points="1749.88,-109 1665.62,-109 1665.62,-73 1749.88,-73 1749.88,-109"/>
<text text-anchor="middle" x="1707.75" y="-85.95" font-family="Times,serif" font-size="14.00">Process##26</text>
</g>
<!-- Process##20&#45;&gt;Process##26 -->
<g id="edge13" class="edge">
<title>Process##20&#45;&gt;Process##26</title>
<path fill="none" stroke="black" d="M1967.22,-155.33C1919.27,-146.35 1838.84,-130.33 1761.16,-109.51"/>
<polygon fill="black" stroke="black" points="1762.25,-106.18 1751.68,-106.94 1760.41,-112.94 1762.25,-106.18"/>
</g>
<!-- Process##27 -->
<g id="node14" class="node">
<title>Process##27</title>
<polygon fill="none" stroke="black" points="1851.88,-109 1767.62,-109 1767.62,-73 1851.88,-73 1851.88,-109"/>
<text text-anchor="middle" x="1809.75" y="-85.95" font-family="Times,serif" font-size="14.00">Process##27</text>
</g>
<!-- Process##20&#45;&gt;Process##27 -->
<g id="edge14" class="edge">
<title>Process##20&#45;&gt;Process##27</title>
<path fill="none" stroke="black" d="M1967.34,-147.94C1936.84,-137.12 1895.51,-122.45 1862.83,-110.84"/>
<polygon fill="black" stroke="black" points="1864.12,-107.59 1853.53,-107.54 1861.78,-114.19 1864.12,-107.59"/>
</g>
<!-- Process##28 -->
<g id="node17" class="node">
<title>Process##28</title>
<polygon fill="none" stroke="black" points="1953.88,-109 1869.62,-109 1869.62,-73 1953.88,-73 1953.88,-109"/>
<text text-anchor="middle" x="1911.75" y="-85.95" font-family="Times,serif" font-size="14.00">Process##28</text>
</g>
<!-- Process##20&#45;&gt;Process##28 -->
<g id="edge17" class="edge">
<title>Process##20&#45;&gt;Process##28</title>
<path fill="none" stroke="black" d="M1985.78,-145.63C1973.44,-136.69 1958.2,-125.66 1944.77,-115.92"/>
<polygon fill="black" stroke="black" points="1947.19,-113.36 1937.04,-110.32 1943.09,-119.02 1947.19,-113.36"/>
</g>
<!-- NetPeer##0.0.0.0:3000 -->
<g id="node21" class="node">
<title>NetPeer##0.0.0.0:3000</title>
<polygon fill="none" stroke="black" points="2108.75,-109 1971.71,-91 2108.75,-73 2245.79,-91 2108.75,-109"/>
<text text-anchor="middle" x="2108.75" y="-85.95" font-family="Times,serif" font-size="14.00">NetPeer##0.0.0.0:3000</text>
</g>
<!-- Process##20&#45;&gt;NetPeer##0.0.0.0:3000 -->
<g id="edge22" class="edge">
<title>Process##20&#45;&gt;NetPeer##0.0.0.0:3000</title>
<path fill="none" stroke="black" d="M2033.97,-145.63C2047.59,-135.87 2064.69,-123.6 2079.11,-113.26"/>
<polygon fill="black" stroke="black" points="2080.81,-116.34 2086.9,-107.67 2076.73,-110.66 2080.81,-116.34"/>
</g>
<!-- NetPeer##0.0.0.0:0 -->
<g id="node22" class="node">
<title>NetPeer##0.0.0.0:0</title>
<polygon fill="none" stroke="black" points="2381.75,-109 2264.25,-91 2381.75,-73 2499.25,-91 2381.75,-109"/>
<text text-anchor="middle" x="2381.75" y="-85.95" font-family="Times,serif" font-size="14.00">NetPeer##0.0.0.0:0</text>
</g>
<!-- Process##20&#45;&gt;NetPeer##0.0.0.0:0 -->
<g id="edge23" class="edge">
<title>Process##20&#45;&gt;NetPeer##0.0.0.0:0</title>
<path fill="none" stroke="black" d="M2052.06,-154.92C2117.54,-142.43 2243.77,-118.34 2319.61,-103.86"/>
<polygon fill="black" stroke="black" points="2320.23,-107.31 2329.4,-101.99 2318.92,-100.43 2320.23,-107.31"/>
</g>
<!-- Process##73 -->
<g id="node23" class="node">
<title>Process##73</title>
<polygon fill="none" stroke="black" points="2601.88,-109 2517.62,-109 2517.62,-73 2601.88,-73 2601.88,-109"/>
<text text-anchor="middle" x="2559.75" y="-85.95" font-family="Times,serif" font-size="14.00">Process##73</text>
</g>
<!-- Process##20&#45;&gt;Process##73 -->
<g id="edge24" class="edge">
<title>Process##20&#45;&gt;Process##73</title>
<path fill="none" stroke="black" d="M2052.2,-161.37C2136.94,-157.48 2333.08,-145.3 2506.27,-109.02"/>
<polygon fill="black" stroke="black" points="2506.85,-112.47 2515.9,-106.96 2505.39,-105.62 2506.85,-112.47"/>
</g>
<!-- Process##74 -->
<g id="node24" class="node">
<title>Process##74</title>
<polygon fill="none" stroke="black" points="2703.88,-109 2619.62,-109 2619.62,-73 2703.88,-73 2703.88,-109"/>
<text text-anchor="middle" x="2661.75" y="-85.95" font-family="Times,serif" font-size="14.00">Process##74</text>
</g>
<!-- Process##20&#45;&gt;Process##74 -->
<g id="edge25" class="edge">
<title>Process##20&#45;&gt;Process##74</title>
<path fill="none" stroke="black" d="M2052.17,-162.7C2149.45,-161.26 2395.96,-153.37 2608.32,-109.24"/>
<polygon fill="black" stroke="black" points="2608.83,-112.72 2617.89,-107.22 2607.38,-105.87 2608.83,-112.72"/>
</g>
<!-- Process##75 -->
<g id="node25" class="node">
<title>Process##75</title>
<polygon fill="none" stroke="black" points="2805.88,-109 2721.62,-109 2721.62,-73 2805.88,-73 2805.88,-109"/>
<text text-anchor="middle" x="2763.75" y="-85.95" font-family="Times,serif" font-size="14.00">Process##75</text>
</g>
<!-- Process##20&#45;&gt;Process##75 -->
<g id="edge26" class="edge">
<title>Process##20&#45;&gt;Process##75</title>
<path fill="none" stroke="black" d="M2052.1,-160.58C2140.04,-155.45 2348.84,-142.74 2523.75,-128 2604.34,-121.21 2628.21,-126.22 2710.24,-109.27"/>
<polygon fill="black" stroke="black" points="2710.83,-112.72 2719.89,-107.22 2709.38,-105.87 2710.83,-112.72"/>
</g>
<!-- Process##76 -->
<g id="node26" class="node">
<title>Process##76</title>
<polygon fill="none" stroke="black" points="2907.88,-109 2823.62,-109 2823.62,-73 2907.88,-73 2907.88,-109"/>
<text text-anchor="middle" x="2865.75" y="-85.95" font-family="Times,serif" font-size="14.00">Process##76</text>
</g>
<!-- Process##20&#45;&gt;Process##76 -->
<g id="edge27" class="edge">
<title>Process##20&#45;&gt;Process##76</title>
<path fill="none" stroke="black" d="M2052.24,-160.27C2142.55,-154.45 2360.25,-140.37 2542.75,-128 2660.11,-120.05 2693.92,-131.84 2812.42,-109.16"/>
<polygon fill="black" stroke="black" points="2812.76,-112.66 2821.9,-107.3 2811.42,-105.79 2812.76,-112.66"/>
</g>
<!-- File##/etc/ld&#45;musl&#45;x86_64.path -->
<g id="node3" class="node">
<title>File##/etc/ld&#45;musl&#45;x86_64.path</title>
<ellipse fill="none" stroke="black" cx="487.75" cy="-252.5" rx="128.12" ry="18"/>
<text text-anchor="middle" x="487.75" y="-247.45" font-family="Times,serif" font-size="14.00">File##/etc/ld&#45;musl&#45;x86_64.path</text>
</g>
<!-- File##/etc/ld&#45;musl&#45;x86_64.path&#45;&gt;Process##20 -->
<g id="edge3" class="edge">
<title>File##/etc/ld&#45;musl&#45;x86_64.path&#45;&gt;Process##20</title>
<path fill="none" stroke="black" d="M579.44,-239.61C594.57,-237.8 610.09,-236.03 624.75,-234.5 806.63,-215.57 852.21,-210.95 1034.75,-200 1385.8,-178.94 1808.76,-169.02 1956.07,-166.02"/>
<polygon fill="black" stroke="black" points="1955.99,-169.52 1965.91,-165.82 1955.85,-162.53 1955.99,-169.52"/>
</g>
<!-- File##/lib/libstdc++.so.6 -->
<g id="node4" class="node">
<title>File##/lib/libstdc++.so.6</title>
<ellipse fill="none" stroke="black" cx="736.75" cy="-252.5" rx="103.04" ry="18"/>
<text text-anchor="middle" x="736.75" y="-247.45" font-family="Times,serif" font-size="14.00">File##/lib/libstdc++.so.6</text>
</g>
<!-- File##/lib/libstdc++.so.6&#45;&gt;Process##20 -->
<g id="edge4" class="edge">
<title>File##/lib/libstdc++.so.6&#45;&gt;Process##20</title>
<path fill="none" stroke="black" d="M810.14,-239.48C822.98,-237.63 836.24,-235.88 848.75,-234.5 1273.84,-187.74 1790.21,-170.78 1955.87,-166.32"/>
<polygon fill="black" stroke="black" points="1955.77,-169.82 1965.67,-166.06 1955.58,-162.83 1955.77,-169.82"/>
</g>
<!-- File##/usr/local/lib/libstdc++.so.6 -->
<g id="node5" class="node">
<title>File##/usr/local/lib/libstdc++.so.6</title>
<ellipse fill="none" stroke="black" cx="994.75" cy="-252.5" rx="137.34" ry="18"/>
<text text-anchor="middle" x="994.75" y="-247.45" font-family="Times,serif" font-size="14.00">File##/usr/local/lib/libstdc++.so.6</text>
</g>
<!-- File##/usr/local/lib/libstdc++.so.6&#45;&gt;Process##20 -->
<g id="edge5" class="edge">
<title>File##/usr/local/lib/libstdc++.so.6&#45;&gt;Process##20</title>
<path fill="none" stroke="black" d="M1093.27,-239.62C1109.14,-237.82 1125.39,-236.05 1140.75,-234.5 1448.75,-203.33 1819.32,-177.6 1955.86,-168.52"/>
<polygon fill="black" stroke="black" points="1955.94,-172.02 1965.68,-167.87 1955.47,-165.04 1955.94,-172.02"/>
</g>
<!-- File##/usr/lib/libstdc++.so.6 -->
<g id="node6" class="node">
<title>File##/usr/lib/libstdc++.so.6</title>
<ellipse fill="none" stroke="black" cx="1266.75" cy="-252.5" rx="116.86" ry="18"/>
<text text-anchor="middle" x="1266.75" y="-247.45" font-family="Times,serif" font-size="14.00">File##/usr/lib/libstdc++.so.6</text>
</g>
<!-- File##/usr/lib/libstdc++.so.6&#45;&gt;Process##20 -->
<g id="edge6" class="edge">
<title>File##/usr/lib/libstdc++.so.6&#45;&gt;Process##20</title>
<path fill="none" stroke="black" d="M1351.78,-239.77C1365.47,-237.95 1379.5,-236.14 1392.75,-234.5 1600.99,-208.73 1849.28,-181.97 1956.32,-170.62"/>
<polygon fill="black" stroke="black" points="1956.37,-174.13 1965.94,-169.6 1955.63,-167.17 1956.37,-174.13"/>
</g>
<!-- File##/lib/libgcc_s.so.1 -->
<g id="node7" class="node">
<title>File##/lib/libgcc_s.so.1</title>
<ellipse fill="none" stroke="black" cx="1499.75" cy="-252.5" rx="97.93" ry="18"/>
<text text-anchor="middle" x="1499.75" y="-247.45" font-family="Times,serif" font-size="14.00">File##/lib/libgcc_s.so.1</text>
</g>
<!-- File##/lib/libgcc_s.so.1&#45;&gt;Process##20 -->
<g id="edge7" class="edge">
<title>File##/lib/libgcc_s.so.1&#45;&gt;Process##20</title>
<path fill="none" stroke="black" d="M1569.86,-239.61C1673,-222.12 1863.39,-189.82 1956.15,-174.09"/>
<polygon fill="black" stroke="black" points="1956.47,-177.59 1965.74,-172.46 1955.3,-170.69 1956.47,-177.59"/>
</g>
<!-- File##/usr/local/lib/libgcc_s.so.1 -->
<g id="node8" class="node">
<title>File##/usr/local/lib/libgcc_s.so.1</title>
<ellipse fill="none" stroke="black" cx="1747.75" cy="-252.5" rx="132.22" ry="18"/>
<text text-anchor="middle" x="1747.75" y="-247.45" font-family="Times,serif" font-size="14.00">File##/usr/local/lib/libgcc_s.so.1</text>
</g>
<!-- File##/usr/local/lib/libgcc_s.so.1&#45;&gt;Process##20 -->
<g id="edge8" class="edge">
<title>File##/usr/local/lib/libgcc_s.so.1&#45;&gt;Process##20</title>
<path fill="none" stroke="black" d="M1796.72,-235.33C1842.25,-220.3 1909.88,-197.97 1956.68,-182.52"/>
<polygon fill="black" stroke="black" points="1957.67,-185.88 1966.07,-179.42 1955.48,-179.23 1957.67,-185.88"/>
</g>
<!-- File##/usr/lib/libgcc_s.so.1 -->
<g id="node9" class="node">
<title>File##/usr/lib/libgcc_s.so.1</title>
<ellipse fill="none" stroke="black" cx="2009.75" cy="-252.5" rx="111.74" ry="18"/>
<text text-anchor="middle" x="2009.75" y="-247.45" font-family="Times,serif" font-size="14.00">File##/usr/lib/libgcc_s.so.1</text>
</g>
<!-- File##/usr/lib/libgcc_s.so.1&#45;&gt;Process##20 -->
<g id="edge9" class="edge">
<title>File##/usr/lib/libgcc_s.so.1&#45;&gt;Process##20</title>
<path fill="none" stroke="black" d="M2009.75,-234.41C2009.75,-222.76 2009.75,-207.05 2009.75,-193.52"/>
<polygon fill="black" stroke="black" points="2013.25,-193.86 2009.75,-183.86 2006.25,-193.86 2013.25,-193.86"/>
</g>
<!-- File##/usr/local/bin/node -->
<g id="node15" class="node">
<title>File##/usr/local/bin/node</title>
<ellipse fill="none" stroke="black" cx="2242.75" cy="-252.5" rx="103.56" ry="18"/>
<text text-anchor="middle" x="2242.75" y="-247.45" font-family="Times,serif" font-size="14.00">File##/usr/local/bin/node</text>
</g>
<!-- File##/usr/local/bin/node&#45;&gt;Process##20 -->
<g id="edge15" class="edge">
<title>File##/usr/local/bin/node&#45;&gt;Process##20</title>
<path fill="none" stroke="black" d="M2195.78,-236.04C2156.93,-222.24 2101.93,-201.89 2061.76,-186.51"/>
<polygon fill="black" stroke="black" points="2063.12,-183.28 2052.53,-182.96 2060.6,-189.81 2063.12,-183.28"/>
</g>
<!-- File##/usr/local/bin/node&#45;&gt;Process##20 -->
<g id="edge20" class="edge">
<title>File##/usr/local/bin/node&#45;&gt;Process##20</title>
<path fill="none" stroke="black" d="M2204.6,-235.33C2165.91,-220.32 2105.91,-198.03 2062.66,-182.58"/>
<polygon fill="black" stroke="black" points="2064.07,-179.37 2053.47,-179.31 2061.72,-185.96 2064.07,-179.37"/>
</g>
<!-- File##/dev/urandom -->
<g id="node16" class="node">
<title>File##/dev/urandom</title>
<ellipse fill="none" stroke="black" cx="2450.75" cy="-252.5" rx="86.15" ry="18"/>
<text text-anchor="middle" x="2450.75" y="-247.45" font-family="Times,serif" font-size="14.00">File##/dev/urandom</text>
</g>
<!-- File##/dev/urandom&#45;&gt;Process##20 -->
<g id="edge16" class="edge">
<title>File##/dev/urandom&#45;&gt;Process##20</title>
<path fill="none" stroke="black" d="M2389.43,-239.47C2302.75,-222.47 2145.78,-191.68 2063.45,-175.53"/>
<polygon fill="black" stroke="black" points="2064.31,-172.14 2053.83,-173.65 2062.97,-179 2064.31,-172.14"/>
</g>
<!-- File##/dev/null -->
<g id="node18" class="node">
<title>File##/dev/null</title>
<ellipse fill="none" stroke="black" cx="2621.75" cy="-252.5" rx="67.22" ry="18"/>
<text text-anchor="middle" x="2621.75" y="-247.45" font-family="Times,serif" font-size="14.00">File##/dev/null</text>
</g>
<!-- File##/dev/null&#45;&gt;Process##20 -->
<g id="edge18" class="edge">
<title>File##/dev/null&#45;&gt;Process##20</title>
<path fill="none" stroke="black" d="M2572.82,-239.87C2563.85,-237.93 2554.54,-236.05 2545.75,-234.5 2370.37,-203.58 2160.44,-180.31 2063.58,-170.34"/>
<polygon fill="black" stroke="black" points="2064.15,-166.88 2053.84,-169.34 2063.43,-173.84 2064.15,-166.88"/>
</g>
<!-- File##/home/app/index.js -->
<g id="node19" class="node">
<title>File##/home/app/index.js</title>
<ellipse fill="none" stroke="black" cx="2812.75" cy="-252.5" rx="105.6" ry="18"/>
<text text-anchor="middle" x="2812.75" y="-247.45" font-family="Times,serif" font-size="14.00">File##/home/app/index.js</text>
</g>
<!-- File##/home/app/index.js&#45;&gt;Process##20 -->
<g id="edge19" class="edge">
<title>File##/home/app/index.js&#45;&gt;Process##20</title>
<path fill="none" stroke="black" d="M2736.1,-239.79C2723.3,-237.95 2710.16,-236.12 2697.75,-234.5 2462.09,-203.81 2179.52,-179.03 2063.48,-169.37"/>
<polygon fill="black" stroke="black" points="2063.89,-165.89 2053.63,-168.55 2063.31,-172.86 2063.89,-165.89"/>
</g>
<!-- File##/home/app/handler.js -->
<g id="node20" class="node">
<title>File##/home/app/handler.js</title>
<ellipse fill="none" stroke="black" cx="3048.75" cy="-252.5" rx="112.26" ry="18"/>
<text text-anchor="middle" x="3048.75" y="-247.45" font-family="Times,serif" font-size="14.00">File##/home/app/handler.js</text>
</g>
<!-- File##/home/app/handler.js&#45;&gt;Process##20 -->
<g id="edge21" class="edge">
<title>File##/home/app/handler.js&#45;&gt;Process##20</title>
<path fill="none" stroke="black" d="M2968.45,-239.51C2954.89,-237.69 2940.93,-235.94 2927.75,-234.5 2600.12,-198.7 2204.69,-175.48 2063.25,-167.8"/>
<polygon fill="black" stroke="black" points="2063.62,-164.32 2053.44,-167.27 2063.24,-171.31 2063.62,-164.32"/>
</g>
<!-- File##request.alastor.r.log -->
<g id="node29" class="node">
<title>File##request.alastor.r.log</title>
<ellipse fill="none" stroke="black" cx="2711.75" cy="-18" rx="107.14" ry="18"/>
<text text-anchor="middle" x="2711.75" y="-12.95" font-family="Times,serif" font-size="14.00">File##request.alastor.r.log</text>
</g>
<!-- Process##73&#45;&gt;File##request.alastor.r.log -->
<g id="edge30" class="edge">
<title>Process##73&#45;&gt;File##request.alastor.r.log</title>
<path fill="none" stroke="black" d="M2596.93,-72.63C2617.87,-62.85 2644.19,-50.56 2666.34,-40.21"/>
<polygon fill="black" stroke="black" points="2667.57,-43.5 2675.15,-36.1 2664.6,-37.16 2667.57,-43.5"/>
</g>
<!-- Process##76&#45;&gt;File##request.alastor.r.log -->
<g id="edge31" class="edge">
<title>Process##76&#45;&gt;File##request.alastor.r.log</title>
<path fill="none" stroke="black" d="M2828.08,-72.63C2806.78,-62.81 2780.01,-50.47 2757.51,-40.1"/>
<polygon fill="black" stroke="black" points="2759.11,-36.98 2748.56,-35.97 2756.17,-43.34 2759.11,-36.98"/>
</g>
<!-- File##/etc/localtime -->
<g id="node27" class="node">
<title>File##/etc/localtime</title>
<ellipse fill="none" stroke="black" cx="3263.75" cy="-252.5" rx="85.13" ry="18"/>
<text text-anchor="middle" x="3263.75" y="-247.45" font-family="Times,serif" font-size="14.00">File##/etc/localtime</text>
</g>
<!-- File##/etc/localtime&#45;&gt;Process##20 -->
<g id="edge28" class="edge">
<title>File##/etc/localtime&#45;&gt;Process##20</title>
<path fill="none" stroke="black" d="M3202.97,-239.49C3191.95,-237.61 3180.53,-235.84 3169.75,-234.5 2745.72,-181.84 2229.34,-168.74 2063.64,-165.79"/>
<polygon fill="black" stroke="black" points="2063.9,-162.29 2053.84,-165.62 2063.78,-169.29 2063.9,-162.29"/>
</g>
<!-- File##/usr/share/zoneinfo/ -->
<g id="node28" class="node">
<title>File##/usr/share/zoneinfo/</title>
<ellipse fill="none" stroke="black" cx="3474.75" cy="-252.5" rx="107.65" ry="18"/>
<text text-anchor="middle" x="3474.75" y="-247.45" font-family="Times,serif" font-size="14.00">File##/usr/share/zoneinfo/</text>
</g>
<!-- File##/usr/share/zoneinfo/&#45;&gt;Process##20 -->
<g id="edge29" class="edge">
<title>File##/usr/share/zoneinfo/&#45;&gt;Process##20</title>
<path fill="none" stroke="black" d="M3397.75,-239.57C3384.43,-237.72 3370.7,-235.94 3357.75,-234.5 2856.67,-178.69 2245.71,-167.6 2063.49,-165.48"/>
<polygon fill="black" stroke="black" points="2063.66,-161.98 2053.62,-165.37 2063.58,-168.98 2063.66,-161.98"/>
</g>
</g>
</svg>
