<?xml version="1.0" encoding="UTF-8" standalone="no"?>
<!DOCTYPE svg PUBLIC "-//W3C//DTD SVG 1.1//EN"
 "http://www.w3.org/Graphics/SVG/1.1/DTD/svg11.dtd">
<!-- Generated by graphviz version 9.0.0 (20230911.1827)
 -->
<!-- Title: G Pages: 1 -->
<svg width="3606pt" height="279pt"
 viewBox="0.00 0.00 3606.28 278.50" xmlns="http://www.w3.org/2000/svg" xmlns:xlink="http://www.w3.org/1999/xlink">
<g id="graph0" class="graph" transform="scale(1 1) rotate(0) translate(4 274.5)">
<title>G</title>
<polygon fill="white" stroke="none" points="-4,4 -4,-274.5 3602.28,-274.5 3602.28,4 -4,4"/>
<!-- Container##iterproduct&#45;purchase&#45;get&#45;price&#45;65dbd9948b&#45;j85wk -->
<g id="node1" class="node">
<title>Container##iterproduct&#45;purchase&#45;get&#45;price&#45;65dbd9948b&#45;j85wk</title>
<polygon fill="none" stroke="black" points="357.25,-270.5 0,-270.5 0,-234.5 357.25,-234.5 357.25,-270.5"/>
<text text-anchor="middle" x="178.62" y="-247.45" font-family="Times,serif" font-size="14.00">Container##iterproduct&#45;purchase&#45;get&#45;price&#45;65dbd9948b&#45;j85wk</text>
</g>
<!-- Process##21 -->
<g id="node2" class="node">
<title>Process##21</title>
<polygon fill="none" stroke="black" points="2067.75,-182 1983.5,-182 1983.5,-146 2067.75,-146 2067.75,-182"/>
<text text-anchor="middle" x="2025.62" y="-158.95" font-family="Times,serif" font-size="14.00">Process##21</text>
</g>
<!-- Container##iterproduct&#45;purchase&#45;get&#45;price&#45;65dbd9948b&#45;j85wk&#45;&gt;Process##21 -->
<g id="edge1" class="edge">
<title>Container##iterproduct&#45;purchase&#45;get&#45;price&#45;65dbd9948b&#45;j85wk&#45;&gt;Process##21</title>
<path fill="none" stroke="black" d="M173.6,-234.31C171.45,-222.99 171.12,-208.7 179.88,-200 212.48,-167.57 1670.76,-165.16 1971.66,-165.01"/>
<polygon fill="black" stroke="black" points="1971.58,-168.51 1981.58,-165 1971.58,-161.51 1971.58,-168.51"/>
<text text-anchor="middle" x="292" y="-203.2" font-family="Times,serif" font-size="14.00">d29fffb5&#45;c4d3&#45;4c51&#45;908f&#45;3bab5db88419</text>
</g>
<!-- Container##iterproduct&#45;purchase&#45;get&#45;price&#45;65dbd9948b&#45;j85wk&#45;&gt;Process##21 -->
<g id="edge2" class="edge">
<title>Container##iterproduct&#45;purchase&#45;get&#45;price&#45;65dbd9948b&#45;j85wk&#45;&gt;Process##21</title>
<path fill="none" stroke="black" d="M296.49,-234C380.9,-222.23 497.38,-207.54 600.38,-200 874.57,-179.94 1746.14,-168.34 1971.84,-165.62"/>
<polygon fill="black" stroke="black" points="1971.86,-169.12 1981.81,-165.5 1971.77,-162.12 1971.86,-169.12"/>
<text text-anchor="middle" x="711.25" y="-203.2" font-family="Times,serif" font-size="14.00">ab2766f2&#45;2e1f&#45;4677&#45;a162&#45;78924fcf2ad2</text>
</g>
<!-- Process##24 -->
<g id="node10" class="node">
<title>Process##24</title>
<polygon fill="none" stroke="black" points="1459.75,-109 1375.5,-109 1375.5,-73 1459.75,-73 1459.75,-109"/>
<text text-anchor="middle" x="1417.62" y="-85.95" font-family="Times,serif" font-size="14.00">Process##24</text>
</g>
<!-- Process##21&#45;&gt;Process##24 -->
<g id="edge10" class="edge">
<title>Process##21&#45;&gt;Process##24</title>
<path fill="none" stroke="black" d="M1983.21,-162.13C1891.16,-159.56 1666.3,-149.53 1471.04,-109.24"/>
<polygon fill="black" stroke="black" points="1471.99,-105.86 1461.49,-107.23 1470.55,-112.71 1471.99,-105.86"/>
</g>
<!-- Process##25 -->
<g id="node11" class="node">
<title>Process##25</title>
<polygon fill="none" stroke="black" points="1561.75,-109 1477.5,-109 1477.5,-73 1561.75,-73 1561.75,-109"/>
<text text-anchor="middle" x="1519.62" y="-85.95" font-family="Times,serif" font-size="14.00">Process##25</text>
</g>
<!-- Process##21&#45;&gt;Process##25 -->
<g id="edge11" class="edge">
<title>Process##21&#45;&gt;Process##25</title>
<path fill="none" stroke="black" d="M1983.11,-160.85C1903.93,-156.22 1728.54,-143.05 1573.17,-109.31"/>
<polygon fill="black" stroke="black" points="1574.02,-105.92 1563.5,-107.18 1572.51,-112.75 1574.02,-105.92"/>
</g>
<!-- Process##26 -->
<g id="node12" class="node">
<title>Process##26</title>
<polygon fill="none" stroke="black" points="1663.75,-109 1579.5,-109 1579.5,-73 1663.75,-73 1663.75,-109"/>
<text text-anchor="middle" x="1621.62" y="-85.95" font-family="Times,serif" font-size="14.00">Process##26</text>
</g>
<!-- Process##21&#45;&gt;Process##26 -->
<g id="edge12" class="edge">
<title>Process##21&#45;&gt;Process##26</title>
<path fill="none" stroke="black" d="M1983.06,-158.85C1918.36,-152.04 1791.33,-136.65 1675.24,-109.41"/>
<polygon fill="black" stroke="black" points="1676.06,-106.01 1665.52,-107.09 1674.43,-112.82 1676.06,-106.01"/>
</g>
<!-- Process##27 -->
<g id="node13" class="node">
<title>Process##27</title>
<polygon fill="none" stroke="black" points="1765.75,-109 1681.5,-109 1681.5,-73 1765.75,-73 1765.75,-109"/>
<text text-anchor="middle" x="1723.62" y="-85.95" font-family="Times,serif" font-size="14.00">Process##27</text>
</g>
<!-- Process##21&#45;&gt;Process##27 -->
<g id="edge13" class="edge">
<title>Process##21&#45;&gt;Process##27</title>
<path fill="none" stroke="black" d="M1983.09,-155.33C1935.15,-146.35 1854.71,-130.33 1777.03,-109.51"/>
<polygon fill="black" stroke="black" points="1778.12,-106.18 1767.56,-106.94 1776.29,-112.94 1778.12,-106.18"/>
</g>
<!-- Process##28 -->
<g id="node14" class="node">
<title>Process##28</title>
<polygon fill="none" stroke="black" points="1867.75,-109 1783.5,-109 1783.5,-73 1867.75,-73 1867.75,-109"/>
<text text-anchor="middle" x="1825.62" y="-85.95" font-family="Times,serif" font-size="14.00">Process##28</text>
</g>
<!-- Process##21&#45;&gt;Process##28 -->
<g id="edge14" class="edge">
<title>Process##21&#45;&gt;Process##28</title>
<path fill="none" stroke="black" d="M1983.21,-147.94C1952.72,-137.12 1911.39,-122.45 1878.7,-110.84"/>
<polygon fill="black" stroke="black" points="1880,-107.59 1869.41,-107.54 1877.66,-114.19 1880,-107.59"/>
</g>
<!-- Process##29 -->
<g id="node17" class="node">
<title>Process##29</title>
<polygon fill="none" stroke="black" points="1969.75,-109 1885.5,-109 1885.5,-73 1969.75,-73 1969.75,-109"/>
<text text-anchor="middle" x="1927.62" y="-85.95" font-family="Times,serif" font-size="14.00">Process##29</text>
</g>
<!-- Process##21&#45;&gt;Process##29 -->
<g id="edge17" class="edge">
<title>Process##21&#45;&gt;Process##29</title>
<path fill="none" stroke="black" d="M2001.65,-145.63C1989.31,-136.69 1974.08,-125.66 1960.65,-115.92"/>
<polygon fill="black" stroke="black" points="1963.07,-113.36 1952.92,-110.32 1958.96,-119.02 1963.07,-113.36"/>
</g>
<!-- NetPeer##0.0.0.0:3000 -->
<g id="node21" class="node">
<title>NetPeer##0.0.0.0:3000</title>
<polygon fill="none" stroke="black" points="2124.62,-109 1987.58,-91 2124.62,-73 2261.67,-91 2124.62,-109"/>
<text text-anchor="middle" x="2124.62" y="-85.95" font-family="Times,serif" font-size="14.00">NetPeer##0.0.0.0:3000</text>
</g>
<!-- Process##21&#45;&gt;NetPeer##0.0.0.0:3000 -->
<g id="edge22" class="edge">
<title>Process##21&#45;&gt;NetPeer##0.0.0.0:3000</title>
<path fill="none" stroke="black" d="M2049.84,-145.63C2063.46,-135.87 2080.57,-123.6 2094.98,-113.26"/>
<polygon fill="black" stroke="black" points="2096.69,-116.34 2102.77,-107.67 2092.61,-110.66 2096.69,-116.34"/>
</g>
<!-- NetPeer##0.0.0.0:0 -->
<g id="node22" class="node">
<title>NetPeer##0.0.0.0:0</title>
<polygon fill="none" stroke="black" points="2397.62,-109 2280.13,-91 2397.62,-73 2515.12,-91 2397.62,-109"/>
<text text-anchor="middle" x="2397.62" y="-85.95" font-family="Times,serif" font-size="14.00">NetPeer##0.0.0.0:0</text>
</g>
<!-- Process##21&#45;&gt;NetPeer##0.0.0.0:0 -->
<g id="edge23" class="edge">
<title>Process##21&#45;&gt;NetPeer##0.0.0.0:0</title>
<path fill="none" stroke="black" d="M2067.94,-154.92C2133.42,-142.43 2259.64,-118.34 2335.49,-103.86"/>
<polygon fill="black" stroke="black" points="2336.1,-107.31 2345.27,-101.99 2334.79,-100.43 2336.1,-107.31"/>
</g>
<!-- Process##67 -->
<g id="node23" class="node">
<title>Process##67</title>
<polygon fill="none" stroke="black" points="2617.75,-109 2533.5,-109 2533.5,-73 2617.75,-73 2617.75,-109"/>
<text text-anchor="middle" x="2575.62" y="-85.95" font-family="Times,serif" font-size="14.00">Process##67</text>
</g>
<!-- Process##21&#45;&gt;Process##67 -->
<g id="edge24" class="edge">
<title>Process##21&#45;&gt;Process##67</title>
<path fill="none" stroke="black" d="M2068.07,-161.37C2152.82,-157.48 2348.95,-145.3 2522.15,-109.02"/>
<polygon fill="black" stroke="black" points="2522.72,-112.47 2531.78,-106.96 2521.27,-105.62 2522.72,-112.47"/>
</g>
<!-- Process##68 -->
<g id="node24" class="node">
<title>Process##68</title>
<polygon fill="none" stroke="black" points="2719.75,-109 2635.5,-109 2635.5,-73 2719.75,-73 2719.75,-109"/>
<text text-anchor="middle" x="2677.62" y="-85.95" font-family="Times,serif" font-size="14.00">Process##68</text>
</g>
<!-- Process##21&#45;&gt;Process##68 -->
<g id="edge25" class="edge">
<title>Process##21&#45;&gt;Process##68</title>
<path fill="none" stroke="black" d="M2068.04,-162.7C2165.33,-161.26 2411.84,-153.37 2624.2,-109.24"/>
<polygon fill="black" stroke="black" points="2624.7,-112.72 2633.76,-107.22 2623.26,-105.87 2624.7,-112.72"/>
</g>
<!-- Process##69 -->
<g id="node25" class="node">
<title>Process##69</title>
<polygon fill="none" stroke="black" points="2821.75,-109 2737.5,-109 2737.5,-73 2821.75,-73 2821.75,-109"/>
<text text-anchor="middle" x="2779.62" y="-85.95" font-family="Times,serif" font-size="14.00">Process##69</text>
</g>
<!-- Process##21&#45;&gt;Process##69 -->
<g id="edge26" class="edge">
<title>Process##21&#45;&gt;Process##69</title>
<path fill="none" stroke="black" d="M2067.97,-160.58C2155.91,-155.45 2364.71,-142.74 2539.62,-128 2620.22,-121.21 2644.09,-126.22 2726.11,-109.27"/>
<polygon fill="black" stroke="black" points="2726.71,-112.72 2735.76,-107.22 2725.25,-105.87 2726.71,-112.72"/>
</g>
<!-- Process##70 -->
<g id="node26" class="node">
<title>Process##70</title>
<polygon fill="none" stroke="black" points="2923.75,-109 2839.5,-109 2839.5,-73 2923.75,-73 2923.75,-109"/>
<text text-anchor="middle" x="2881.62" y="-85.95" font-family="Times,serif" font-size="14.00">Process##70</text>
</g>
<!-- Process##21&#45;&gt;Process##70 -->
<g id="edge27" class="edge">
<title>Process##21&#45;&gt;Process##70</title>
<path fill="none" stroke="black" d="M2068.12,-160.27C2158.43,-154.45 2376.13,-140.37 2558.62,-128 2675.99,-120.05 2709.79,-131.84 2828.3,-109.16"/>
<polygon fill="black" stroke="black" points="2828.64,-112.66 2837.78,-107.3 2827.29,-105.79 2828.64,-112.66"/>
</g>
<!-- File##/etc/ld&#45;musl&#45;x86_64.path -->
<g id="node3" class="node">
<title>File##/etc/ld&#45;musl&#45;x86_64.path</title>
<ellipse fill="none" stroke="black" cx="503.62" cy="-252.5" rx="128.12" ry="18"/>
<text text-anchor="middle" x="503.62" y="-247.45" font-family="Times,serif" font-size="14.00">File##/etc/ld&#45;musl&#45;x86_64.path</text>
</g>
<!-- File##/etc/ld&#45;musl&#45;x86_64.path&#45;&gt;Process##21 -->
<g id="edge3" class="edge">
<title>File##/etc/ld&#45;musl&#45;x86_64.path&#45;&gt;Process##21</title>
<path fill="none" stroke="black" d="M595.32,-239.61C610.44,-237.8 625.96,-236.03 640.62,-234.5 822.51,-215.57 868.09,-210.95 1050.62,-200 1401.67,-178.94 1824.64,-169.02 1971.95,-166.02"/>
<polygon fill="black" stroke="black" points="1971.86,-169.52 1981.79,-165.82 1971.72,-162.53 1971.86,-169.52"/>
</g>
<!-- File##/lib/libstdc++.so.6 -->
<g id="node4" class="node">
<title>File##/lib/libstdc++.so.6</title>
<ellipse fill="none" stroke="black" cx="752.62" cy="-252.5" rx="103.04" ry="18"/>
<text text-anchor="middle" x="752.62" y="-247.45" font-family="Times,serif" font-size="14.00">File##/lib/libstdc++.so.6</text>
</g>
<!-- File##/lib/libstdc++.so.6&#45;&gt;Process##21 -->
<g id="edge4" class="edge">
<title>File##/lib/libstdc++.so.6&#45;&gt;Process##21</title>
<path fill="none" stroke="black" d="M826.01,-239.48C838.86,-237.63 852.11,-235.88 864.62,-234.5 1289.72,-187.74 1806.08,-170.78 1971.75,-166.32"/>
<polygon fill="black" stroke="black" points="1971.65,-169.82 1981.55,-166.06 1971.46,-162.83 1971.65,-169.82"/>
</g>
<!-- File##/usr/local/lib/libstdc++.so.6 -->
<g id="node5" class="node">
<title>File##/usr/local/lib/libstdc++.so.6</title>
<ellipse fill="none" stroke="black" cx="1010.62" cy="-252.5" rx="137.34" ry="18"/>
<text text-anchor="middle" x="1010.62" y="-247.45" font-family="Times,serif" font-size="14.00">File##/usr/local/lib/libstdc++.so.6</text>
</g>
<!-- File##/usr/local/lib/libstdc++.so.6&#45;&gt;Process##21 -->
<g id="edge5" class="edge">
<title>File##/usr/local/lib/libstdc++.so.6&#45;&gt;Process##21</title>
<path fill="none" stroke="black" d="M1109.14,-239.62C1125.01,-237.82 1141.26,-236.05 1156.62,-234.5 1464.62,-203.33 1835.19,-177.6 1971.73,-168.52"/>
<polygon fill="black" stroke="black" points="1971.81,-172.02 1981.56,-167.87 1971.35,-165.04 1971.81,-172.02"/>
</g>
<!-- File##/usr/lib/libstdc++.so.6 -->
<g id="node6" class="node">
<title>File##/usr/lib/libstdc++.so.6</title>
<ellipse fill="none" stroke="black" cx="1282.62" cy="-252.5" rx="116.86" ry="18"/>
<text text-anchor="middle" x="1282.62" y="-247.45" font-family="Times,serif" font-size="14.00">File##/usr/lib/libstdc++.so.6</text>
</g>
<!-- File##/usr/lib/libstdc++.so.6&#45;&gt;Process##21 -->
<g id="edge6" class="edge">
<title>File##/usr/lib/libstdc++.so.6&#45;&gt;Process##21</title>
<path fill="none" stroke="black" d="M1367.65,-239.77C1381.35,-237.95 1395.37,-236.14 1408.62,-234.5 1616.87,-208.73 1865.16,-181.97 1972.19,-170.62"/>
<polygon fill="black" stroke="black" points="1972.24,-174.13 1981.82,-169.6 1971.5,-167.17 1972.24,-174.13"/>
</g>
<!-- File##/lib/libgcc_s.so.1 -->
<g id="node7" class="node">
<title>File##/lib/libgcc_s.so.1</title>
<ellipse fill="none" stroke="black" cx="1515.62" cy="-252.5" rx="97.93" ry="18"/>
<text text-anchor="middle" x="1515.62" y="-247.45" font-family="Times,serif" font-size="14.00">File##/lib/libgcc_s.so.1</text>
</g>
<!-- File##/lib/libgcc_s.so.1&#45;&gt;Process##21 -->
<g id="edge7" class="edge">
<title>File##/lib/libgcc_s.so.1&#45;&gt;Process##21</title>
<path fill="none" stroke="black" d="M1585.74,-239.61C1688.87,-222.12 1879.27,-189.82 1972.02,-174.09"/>
<polygon fill="black" stroke="black" points="1972.34,-177.59 1981.61,-172.46 1971.17,-170.69 1972.34,-177.59"/>
</g>
<!-- File##/usr/local/lib/libgcc_s.so.1 -->
<g id="node8" class="node">
<title>File##/usr/local/lib/libgcc_s.so.1</title>
<ellipse fill="none" stroke="black" cx="1763.62" cy="-252.5" rx="132.22" ry="18"/>
<text text-anchor="middle" x="1763.62" y="-247.45" font-family="Times,serif" font-size="14.00">File##/usr/local/lib/libgcc_s.so.1</text>
</g>
<!-- File##/usr/local/lib/libgcc_s.so.1&#45;&gt;Process##21 -->
<g id="edge8" class="edge">
<title>File##/usr/local/lib/libgcc_s.so.1&#45;&gt;Process##21</title>
<path fill="none" stroke="black" d="M1812.6,-235.33C1858.12,-220.3 1925.76,-197.97 1972.55,-182.52"/>
<polygon fill="black" stroke="black" points="1973.55,-185.88 1981.95,-179.42 1971.35,-179.23 1973.55,-185.88"/>
</g>
<!-- File##/usr/lib/libgcc_s.so.1 -->
<g id="node9" class="node">
<title>File##/usr/lib/libgcc_s.so.1</title>
<ellipse fill="none" stroke="black" cx="2025.62" cy="-252.5" rx="111.74" ry="18"/>
<text text-anchor="middle" x="2025.62" y="-247.45" font-family="Times,serif" font-size="14.00">File##/usr/lib/libgcc_s.so.1</text>
</g>
<!-- File##/usr/lib/libgcc_s.so.1&#45;&gt;Process##21 -->
<g id="edge9" class="edge">
<title>File##/usr/lib/libgcc_s.so.1&#45;&gt;Process##21</title>
<path fill="none" stroke="black" d="M2025.62,-234.41C2025.62,-222.76 2025.62,-207.05 2025.62,-193.52"/>
<polygon fill="black" stroke="black" points="2029.13,-193.86 2025.63,-183.86 2022.13,-193.86 2029.13,-193.86"/>
</g>
<!-- File##/usr/local/bin/node -->
<g id="node15" class="node">
<title>File##/usr/local/bin/node</title>
<ellipse fill="none" stroke="black" cx="2258.62" cy="-252.5" rx="103.56" ry="18"/>
<text text-anchor="middle" x="2258.62" y="-247.45" font-family="Times,serif" font-size="14.00">File##/usr/local/bin/node</text>
</g>
<!-- File##/usr/local/bin/node&#45;&gt;Process##21 -->
<g id="edge15" class="edge">
<title>File##/usr/local/bin/node&#45;&gt;Process##21</title>
<path fill="none" stroke="black" d="M2211.65,-236.04C2172.8,-222.24 2117.8,-201.89 2077.64,-186.51"/>
<polygon fill="black" stroke="black" points="2078.99,-183.28 2068.4,-182.96 2076.48,-189.81 2078.99,-183.28"/>
</g>
<!-- File##/usr/local/bin/node&#45;&gt;Process##21 -->
<g id="edge20" class="edge">
<title>File##/usr/local/bin/node&#45;&gt;Process##21</title>
<path fill="none" stroke="black" d="M2220.47,-235.33C2181.78,-220.32 2121.78,-198.03 2078.53,-182.58"/>
<polygon fill="black" stroke="black" points="2079.94,-179.37 2069.35,-179.31 2077.6,-185.96 2079.94,-179.37"/>
</g>
<!-- File##/dev/urandom -->
<g id="node16" class="node">
<title>File##/dev/urandom</title>
<ellipse fill="none" stroke="black" cx="2466.62" cy="-252.5" rx="86.15" ry="18"/>
<text text-anchor="middle" x="2466.62" y="-247.45" font-family="Times,serif" font-size="14.00">File##/dev/urandom</text>
</g>
<!-- File##/dev/urandom&#45;&gt;Process##21 -->
<g id="edge16" class="edge">
<title>File##/dev/urandom&#45;&gt;Process##21</title>
<path fill="none" stroke="black" d="M2405.31,-239.47C2318.62,-222.47 2161.65,-191.68 2079.32,-175.53"/>
<polygon fill="black" stroke="black" points="2080.19,-172.14 2069.7,-173.65 2078.84,-179 2080.19,-172.14"/>
</g>
<!-- File##/dev/null -->
<g id="node18" class="node">
<title>File##/dev/null</title>
<ellipse fill="none" stroke="black" cx="2637.62" cy="-252.5" rx="67.22" ry="18"/>
<text text-anchor="middle" x="2637.62" y="-247.45" font-family="Times,serif" font-size="14.00">File##/dev/null</text>
</g>
<!-- File##/dev/null&#45;&gt;Process##21 -->
<g id="edge18" class="edge">
<title>File##/dev/null&#45;&gt;Process##21</title>
<path fill="none" stroke="black" d="M2588.7,-239.87C2579.72,-237.93 2570.41,-236.05 2561.62,-234.5 2386.25,-203.58 2176.32,-180.31 2079.45,-170.34"/>
<polygon fill="black" stroke="black" points="2080.02,-166.88 2069.72,-169.34 2079.31,-173.84 2080.02,-166.88"/>
</g>
<!-- File##/home/app/index.js -->
<g id="node19" class="node">
<title>File##/home/app/index.js</title>
<ellipse fill="none" stroke="black" cx="2828.62" cy="-252.5" rx="105.6" ry="18"/>
<text text-anchor="middle" x="2828.62" y="-247.45" font-family="Times,serif" font-size="14.00">File##/home/app/index.js</text>
</g>
<!-- File##/home/app/index.js&#45;&gt;Process##21 -->
<g id="edge19" class="edge">
<title>File##/home/app/index.js&#45;&gt;Process##21</title>
<path fill="none" stroke="black" d="M2751.97,-239.79C2739.18,-237.95 2726.03,-236.12 2713.62,-234.5 2477.97,-203.81 2195.39,-179.03 2079.36,-169.37"/>
<polygon fill="black" stroke="black" points="2079.76,-165.89 2069.51,-168.55 2079.18,-172.86 2079.76,-165.89"/>
</g>
<!-- File##/home/app/handler.js -->
<g id="node20" class="node">
<title>File##/home/app/handler.js</title>
<ellipse fill="none" stroke="black" cx="3064.62" cy="-252.5" rx="112.26" ry="18"/>
<text text-anchor="middle" x="3064.62" y="-247.45" font-family="Times,serif" font-size="14.00">File##/home/app/handler.js</text>
</g>
<!-- File##/home/app/handler.js&#45;&gt;Process##21 -->
<g id="edge21" class="edge">
<title>File##/home/app/handler.js&#45;&gt;Process##21</title>
<path fill="none" stroke="black" d="M2984.33,-239.51C2970.76,-237.69 2956.8,-235.94 2943.62,-234.5 2616,-198.7 2220.57,-175.48 2079.13,-167.8"/>
<polygon fill="black" stroke="black" points="2079.49,-164.32 2069.32,-167.27 2079.12,-171.31 2079.49,-164.32"/>
</g>
<!-- File##request.alastor.r.log -->
<g id="node29" class="node">
<title>File##request.alastor.r.log</title>
<ellipse fill="none" stroke="black" cx="2727.62" cy="-18" rx="107.14" ry="18"/>
<text text-anchor="middle" x="2727.62" y="-12.95" font-family="Times,serif" font-size="14.00">File##request.alastor.r.log</text>
</g>
<!-- Process##67&#45;&gt;File##request.alastor.r.log -->
<g id="edge30" class="edge">
<title>Process##67&#45;&gt;File##request.alastor.r.log</title>
<path fill="none" stroke="black" d="M2612.81,-72.63C2633.75,-62.85 2660.07,-50.56 2682.22,-40.21"/>
<polygon fill="black" stroke="black" points="2683.44,-43.5 2691.02,-36.1 2680.48,-37.16 2683.44,-43.5"/>
</g>
<!-- Process##70&#45;&gt;File##request.alastor.r.log -->
<g id="edge31" class="edge">
<title>Process##70&#45;&gt;File##request.alastor.r.log</title>
<path fill="none" stroke="black" d="M2843.95,-72.63C2822.66,-62.81 2795.88,-50.47 2773.39,-40.1"/>
<polygon fill="black" stroke="black" points="2774.98,-36.98 2764.43,-35.97 2772.05,-43.34 2774.98,-36.98"/>
</g>
<!-- File##/etc/localtime -->
<g id="node27" class="node">
<title>File##/etc/localtime</title>
<ellipse fill="none" stroke="black" cx="3279.62" cy="-252.5" rx="85.13" ry="18"/>
<text text-anchor="middle" x="3279.62" y="-247.45" font-family="Times,serif" font-size="14.00">File##/etc/localtime</text>
</g>
<!-- File##/etc/localtime&#45;&gt;Process##21 -->
<g id="edge28" class="edge">
<title>File##/etc/localtime&#45;&gt;Process##21</title>
<path fill="none" stroke="black" d="M3218.84,-239.49C3207.82,-237.61 3196.4,-235.84 3185.62,-234.5 2761.59,-181.84 2245.22,-168.74 2079.52,-165.79"/>
<polygon fill="black" stroke="black" points="2079.77,-162.29 2069.71,-165.62 2079.65,-169.29 2079.77,-162.29"/>
</g>
<!-- File##/usr/share/zoneinfo/ -->
<g id="node28" class="node">
<title>File##/usr/share/zoneinfo/</title>
<ellipse fill="none" stroke="black" cx="3490.62" cy="-252.5" rx="107.65" ry="18"/>
<text text-anchor="middle" x="3490.62" y="-247.45" font-family="Times,serif" font-size="14.00">File##/usr/share/zoneinfo/</text>
</g>
<!-- File##/usr/share/zoneinfo/&#45;&gt;Process##21 -->
<g id="edge29" class="edge">
<title>File##/usr/share/zoneinfo/&#45;&gt;Process##21</title>
<path fill="none" stroke="black" d="M3413.62,-239.57C3400.3,-237.72 3386.58,-235.94 3373.62,-234.5 2872.54,-178.69 2261.58,-167.6 2079.36,-165.48"/>
<polygon fill="black" stroke="black" points="2079.54,-161.98 2069.5,-165.37 2079.46,-168.98 2079.54,-161.98"/>
</g>
</g>
</svg>
