<?xml version="1.0" encoding="UTF-8" standalone="no"?>
<!DOCTYPE svg PUBLIC "-//W3C//DTD SVG 1.1//EN"
 "http://www.w3.org/Graphics/SVG/1.1/DTD/svg11.dtd">
<!-- Generated by graphviz version 2.38.0 (20140413.2041)
 -->
<!-- Title: G Pages: 1 -->
<svg width="5996pt" height="837pt"
 viewBox="0.00 0.00 5996.00 837.00" xmlns="http://www.w3.org/2000/svg" xmlns:xlink="http://www.w3.org/1999/xlink">
<g id="graph0" class="graph" transform="scale(1 1) rotate(0) translate(4 833)">
<title>G</title>
<polygon fill="white" stroke="none" points="-4,4 -4,-833 5992,-833 5992,4 -4,4"/>
<g id="clust1" class="cluster"><title>clusterServerID_667d78fb58&#45;2fhs5</title>
<polygon fill="none" stroke="black" points="5640,-530 5640,-605 5980,-605 5980,-530 5640,-530"/>
<text text-anchor="middle" x="5810" y="-589.8" font-family="Times,serif" font-size="14.00">clusterServerID_667d78fb58&#45;2fhs5</text>
</g>
<g id="clust2" class="cluster"><title>clusterServerID_6dcbcc88d5&#45;4vpdn</title>
<polygon fill="none" stroke="black" points="5288,-530 5288,-605 5632,-605 5632,-530 5288,-530"/>
<text text-anchor="middle" x="5460" y="-589.8" font-family="Times,serif" font-size="14.00">clusterServerID_6dcbcc88d5&#45;4vpdn</text>
</g>
<g id="clust3" class="cluster"><title>clusterServerID_79226724f3b6</title>
<polygon fill="none" stroke="black" points="3736,-8 3736,-605 5280,-605 5280,-8 3736,-8"/>
<text text-anchor="middle" x="4508" y="-589.8" font-family="Times,serif" font-size="14.00">clusterServerID_79226724f3b6</text>
</g>
<g id="clust4" class="cluster"><title>clusterServerID_OuterContainerID</title>
<polygon fill="none" stroke="black" points="1054,-530 1054,-713 3728,-713 3728,-530 1054,-530"/>
<text text-anchor="middle" x="2391" y="-697.8" font-family="Times,serif" font-size="14.00">clusterServerID_OuterContainerID</text>
</g>
<g id="clust5" class="cluster"><title>clusterServerID_d4de233c55aa</title>
<polygon fill="none" stroke="black" points="8,-638 8,-821 1046,-821 1046,-638 8,-638"/>
<text text-anchor="middle" x="527" y="-805.8" font-family="Times,serif" font-size="14.00">clusterServerID_d4de233c55aa</text>
</g>
<!-- 1_fwatchdog#ServerID_d4de233c55aa -->
<g id="node1" class="node"><title>1_fwatchdog#ServerID_d4de233c55aa</title>
<polygon fill="none" stroke="black" points="969.5,-790 672.5,-790 672.5,-754 969.5,-754 969.5,-790"/>
<text text-anchor="middle" x="821" y="-768.3" font-family="Times,serif" font-size="14.00">1_fwatchdog#ServerID_d4de233c55aa</text>
</g>
<!-- localhost:3000#ServerID_d4de233c55aa -->
<g id="node2" class="node"><title>localhost:3000#ServerID_d4de233c55aa</title>
<polygon fill="none" stroke="black" points="752,-682 466.284,-664 752,-646 1037.72,-664 752,-682"/>
<text text-anchor="middle" x="752" y="-660.3" font-family="Times,serif" font-size="14.00">localhost:3000#ServerID_d4de233c55aa</text>
</g>
<!-- 1_fwatchdog#ServerID_d4de233c55aa&#45;&gt;localhost:3000#ServerID_d4de233c55aa -->
<g id="edge1" class="edge"><title>1_fwatchdog#ServerID_d4de233c55aa&#45;&gt;localhost:3000#ServerID_d4de233c55aa</title>
<path fill="none" stroke="black" d="M809.914,-753.969C798.682,-736.714 781.181,-709.828 768.355,-690.126"/>
<polygon fill="black" stroke="black" points="771.22,-688.11 762.831,-681.639 765.353,-691.929 771.22,-688.11"/>
<text text-anchor="middle" x="816" y="-724.8" font-family="Times,serif" font-size="14.00">write</text>
</g>
<!-- 10_node#ServerID_d4de233c55aa -->
<g id="node3" class="node"><title>10_node#ServerID_d4de233c55aa</title>
<polygon fill="none" stroke="black" points="581,-790 315,-790 315,-754 581,-754 581,-790"/>
<text text-anchor="middle" x="448" y="-768.3" font-family="Times,serif" font-size="14.00">10_node#ServerID_d4de233c55aa</text>
</g>
<!-- gateway:8080#ServerID_OuterContainerID -->
<g id="node4" class="node"><title>gateway:8080#ServerID_OuterContainerID</title>
<polygon fill="none" stroke="black" points="2038,-682 1733.52,-664 2038,-646 2342.48,-664 2038,-682"/>
<text text-anchor="middle" x="2038" y="-660.3" font-family="Times,serif" font-size="14.00">gateway:8080#ServerID_OuterContainerID</text>
</g>
<!-- 10_node#ServerID_d4de233c55aa&#45;&gt;gateway:8080#ServerID_OuterContainerID -->
<g id="edge2" class="edge"><title>10_node#ServerID_d4de233c55aa&#45;&gt;gateway:8080#ServerID_OuterContainerID</title>
<path fill="none" stroke="black" d="M581.269,-759.621C608.305,-757.549 636.555,-755.555 663,-754 1134.54,-726.267 1254.8,-757.984 1725,-713 1805,-705.347 1895.69,-690.783 1958.78,-679.696"/>
<polygon fill="black" stroke="black" points="1959.43,-683.136 1968.67,-677.948 1958.21,-676.243 1959.43,-683.136"/>
<text text-anchor="middle" x="1648" y="-724.8" font-family="Times,serif" font-size="14.00">connect</text>
</g>
<!-- pipe:[273418164]#ServerID_d4de233c55aa -->
<g id="node8" class="node"><title>pipe:[273418164]#ServerID_d4de233c55aa</title>
<ellipse fill="none" stroke="black" cx="232" cy="-664" rx="215.562" ry="18"/>
<text text-anchor="middle" x="232" y="-660.3" font-family="Times,serif" font-size="14.00">pipe:[273418164]#ServerID_d4de233c55aa</text>
</g>
<!-- 10_node#ServerID_d4de233c55aa&#45;&gt;pipe:[273418164]#ServerID_d4de233c55aa -->
<g id="edge5" class="edge"><title>10_node#ServerID_d4de233c55aa&#45;&gt;pipe:[273418164]#ServerID_d4de233c55aa</title>
<path fill="none" stroke="black" d="M413.296,-753.969C375.79,-735.564 315.955,-706.2 275.374,-686.285"/>
<polygon fill="black" stroke="black" points="276.78,-683.077 266.261,-681.813 273.697,-689.361 276.78,-683.077"/>
<text text-anchor="middle" x="391" y="-724.8" font-family="Times,serif" font-size="14.00">write</text>
</g>
<!-- 1_fwatchdog#ServerID_6dcbcc88d5&#45;4vpdn -->
<g id="node13" class="node"><title>1_fwatchdog#ServerID_6dcbcc88d5&#45;4vpdn</title>
<polygon fill="none" stroke="black" points="5624.5,-574 5295.5,-574 5295.5,-538 5624.5,-538 5624.5,-574"/>
<text text-anchor="middle" x="5460" y="-552.3" font-family="Times,serif" font-size="14.00">1_fwatchdog#ServerID_6dcbcc88d5&#45;4vpdn</text>
</g>
<!-- gateway:8080#ServerID_OuterContainerID&#45;&gt;1_fwatchdog#ServerID_6dcbcc88d5&#45;4vpdn -->
<g id="edge19" class="edge"><title>gateway:8080#ServerID_OuterContainerID&#45;&gt;1_fwatchdog#ServerID_6dcbcc88d5&#45;4vpdn</title>
<path fill="none" stroke="black" d="M2115.75,-650.527C2196.72,-638.202 2327.37,-620.183 2441,-613 2519.82,-608.018 5205.74,-615.592 5284,-605 5323.85,-599.606 5367.46,-587.756 5401.31,-577.18"/>
<polygon fill="black" stroke="black" points="5402.56,-580.455 5411.03,-574.093 5400.44,-573.783 5402.56,-580.455"/>
<text text-anchor="middle" x="2483" y="-616.8" font-family="Times,serif" font-size="14.00">RESPONSE</text>
</g>
<!-- 10.1.80.247:56522#ServerID_OuterContainerID -->
<g id="node5" class="node"><title>10.1.80.247:56522#ServerID_OuterContainerID</title>
<polygon fill="none" stroke="black" points="3385,-682 3049.52,-664 3385,-646 3720.48,-664 3385,-682"/>
<text text-anchor="middle" x="3385" y="-660.3" font-family="Times,serif" font-size="14.00">10.1.80.247:56522#ServerID_OuterContainerID</text>
</g>
<!-- 1_fwatchdog#ServerID_79226724f3b6 -->
<g id="node6" class="node"><title>1_fwatchdog#ServerID_79226724f3b6</title>
<polygon fill="none" stroke="black" points="4376,-574 4080,-574 4080,-538 4376,-538 4376,-574"/>
<text text-anchor="middle" x="4228" y="-552.3" font-family="Times,serif" font-size="14.00">1_fwatchdog#ServerID_79226724f3b6</text>
</g>
<!-- 10.1.80.247:56522#ServerID_OuterContainerID&#45;&gt;1_fwatchdog#ServerID_79226724f3b6 -->
<g id="edge3" class="edge"><title>10.1.80.247:56522#ServerID_OuterContainerID&#45;&gt;1_fwatchdog#ServerID_79226724f3b6</title>
<path fill="none" stroke="black" d="M3480.06,-651.047C3626.95,-632.576 3910.12,-596.97 4082.77,-575.261"/>
<polygon fill="black" stroke="black" points="4083.21,-578.733 4092.7,-574.013 4082.34,-571.788 4083.21,-578.733"/>
<text text-anchor="middle" x="3798.5" y="-616.8" font-family="Times,serif" font-size="14.00">read</text>
</g>
<!-- 1_fwatchdog#ServerID_667d78fb58&#45;2fhs5 -->
<g id="node14" class="node"><title>1_fwatchdog#ServerID_667d78fb58&#45;2fhs5</title>
<polygon fill="none" stroke="black" points="5971.5,-574 5648.5,-574 5648.5,-538 5971.5,-538 5971.5,-574"/>
<text text-anchor="middle" x="5810" y="-552.3" font-family="Times,serif" font-size="14.00">1_fwatchdog#ServerID_667d78fb58&#45;2fhs5</text>
</g>
<!-- 10.1.80.247:56522#ServerID_OuterContainerID&#45;&gt;1_fwatchdog#ServerID_667d78fb58&#45;2fhs5 -->
<g id="edge12" class="edge"><title>10.1.80.247:56522#ServerID_OuterContainerID&#45;&gt;1_fwatchdog#ServerID_667d78fb58&#45;2fhs5</title>
<path fill="none" stroke="black" d="M3608.19,-657.963C4167.2,-645.255 5586.36,-612.374 5636,-605 5675.07,-599.196 5717.86,-587.469 5751.22,-577.06"/>
<polygon fill="black" stroke="black" points="5752.34,-580.378 5760.81,-574.023 5750.22,-573.705 5752.34,-580.378"/>
<text text-anchor="middle" x="5440" y="-616.8" font-family="Times,serif" font-size="14.00">POST</text>
</g>
<!-- localhost:3000#ServerID_79226724f3b6 -->
<g id="node9" class="node"><title>localhost:3000#ServerID_79226724f3b6</title>
<polygon fill="none" stroke="black" points="4228,-487 3943.12,-469 4228,-451 4512.88,-469 4228,-487"/>
<text text-anchor="middle" x="4228" y="-465.3" font-family="Times,serif" font-size="14.00">localhost:3000#ServerID_79226724f3b6</text>
</g>
<!-- 1_fwatchdog#ServerID_79226724f3b6&#45;&gt;localhost:3000#ServerID_79226724f3b6 -->
<g id="edge6" class="edge"><title>1_fwatchdog#ServerID_79226724f3b6&#45;&gt;localhost:3000#ServerID_79226724f3b6</title>
<path fill="none" stroke="black" d="M4208.42,-537.764C4200.33,-528.482 4193.72,-516.583 4198,-505 4199.4,-501.224 4201.4,-497.58 4203.73,-494.162"/>
<polygon fill="black" stroke="black" points="4206.56,-496.214 4209.98,-486.186 4201.06,-491.893 4206.56,-496.214"/>
<text text-anchor="middle" x="4217" y="-508.8" font-family="Times,serif" font-size="14.00">write</text>
</g>
<!-- pipe:[273416608]#ServerID_79226724f3b6 -->
<g id="node22" class="node"><title>pipe:[273416608]#ServerID_79226724f3b6</title>
<ellipse fill="none" stroke="black" cx="4747" cy="-469" rx="215.562" ry="18"/>
<text text-anchor="middle" x="4747" y="-465.3" font-family="Times,serif" font-size="14.00">pipe:[273416608]#ServerID_79226724f3b6</text>
</g>
<!-- 1_fwatchdog#ServerID_79226724f3b6&#45;&gt;pipe:[273416608]#ServerID_79226724f3b6 -->
<g id="edge27" class="edge"><title>1_fwatchdog#ServerID_79226724f3b6&#45;&gt;pipe:[273416608]#ServerID_79226724f3b6</title>
<path fill="none" stroke="black" d="M4332.09,-537.952C4422.65,-523.121 4553.18,-501.743 4643.55,-486.943"/>
<polygon fill="black" stroke="black" points="4644.24,-490.377 4653.54,-485.307 4643.1,-483.469 4644.24,-490.377"/>
<text text-anchor="middle" x="4537" y="-508.8" font-family="Times,serif" font-size="14.00">write</text>
</g>
<!-- 10.1.80.247:55110#ServerID_OuterContainerID -->
<g id="node7" class="node"><title>10.1.80.247:55110#ServerID_OuterContainerID</title>
<polygon fill="none" stroke="black" points="2696,-682 2360.52,-664 2696,-646 3031.48,-664 2696,-682"/>
<text text-anchor="middle" x="2696" y="-660.3" font-family="Times,serif" font-size="14.00">10.1.80.247:55110#ServerID_OuterContainerID</text>
</g>
<!-- 10.1.80.247:55110#ServerID_OuterContainerID&#45;&gt;1_fwatchdog#ServerID_d4de233c55aa -->
<g id="edge4" class="edge"><title>10.1.80.247:55110#ServerID_OuterContainerID&#45;&gt;1_fwatchdog#ServerID_d4de233c55aa</title>
<path fill="none" stroke="black" d="M2619.18,-677.942C2549.43,-689.154 2443.62,-704.822 2351,-713 1851.76,-757.08 1257.97,-767.691 979.716,-770.223"/>
<polygon fill="black" stroke="black" points="979.514,-766.724 969.546,-770.313 979.576,-773.724 979.514,-766.724"/>
<text text-anchor="middle" x="2244.5" y="-724.8" font-family="Times,serif" font-size="14.00">read</text>
</g>
<!-- 10.1.80.247:55110#ServerID_OuterContainerID&#45;&gt;1_fwatchdog#ServerID_6dcbcc88d5&#45;4vpdn -->
<g id="edge11" class="edge"><title>10.1.80.247:55110#ServerID_OuterContainerID&#45;&gt;1_fwatchdog#ServerID_6dcbcc88d5&#45;4vpdn</title>
<path fill="none" stroke="black" d="M2823.74,-652.811C2888.75,-647.862 2969.05,-642.112 3041,-638 3306.13,-622.846 3372.51,-619.202 3638,-613 3729.42,-610.864 5193.39,-617.358 5284,-605 5323.84,-599.566 5367.46,-587.715 5401.3,-577.149"/>
<polygon fill="black" stroke="black" points="5402.55,-580.424 5411.03,-574.065 5400.44,-573.752 5402.55,-580.424"/>
<text text-anchor="middle" x="3658" y="-616.8" font-family="Times,serif" font-size="14.00">POST</text>
</g>
<!-- localhost:3000#ServerID_79226724f3b6&#45;&gt;1_fwatchdog#ServerID_79226724f3b6 -->
<g id="edge26" class="edge"><title>localhost:3000#ServerID_79226724f3b6&#45;&gt;1_fwatchdog#ServerID_79226724f3b6</title>
<path fill="none" stroke="black" d="M4233.05,-487.071C4235.32,-496.709 4237.24,-508.993 4236,-520 4235.71,-522.547 4235.31,-525.179 4234.84,-527.803"/>
<polygon fill="black" stroke="black" points="4231.39,-527.18 4232.77,-537.686 4238.25,-528.617 4231.39,-527.18"/>
<text text-anchor="middle" x="4252.5" y="-508.8" font-family="Times,serif" font-size="14.00">read</text>
</g>
<!-- 10_node#ServerID_79226724f3b6 -->
<g id="node10" class="node"><title>10_node#ServerID_79226724f3b6</title>
<polygon fill="none" stroke="black" points="4560.5,-400 4295.5,-400 4295.5,-364 4560.5,-364 4560.5,-400"/>
<text text-anchor="middle" x="4428" y="-378.3" font-family="Times,serif" font-size="14.00">10_node#ServerID_79226724f3b6</text>
</g>
<!-- localhost:3000#ServerID_79226724f3b6&#45;&gt;10_node#ServerID_79226724f3b6 -->
<g id="edge7" class="edge"><title>localhost:3000#ServerID_79226724f3b6&#45;&gt;10_node#ServerID_79226724f3b6</title>
<path fill="none" stroke="black" d="M4262.84,-453.194C4294.79,-439.615 4342.46,-419.355 4378.38,-404.086"/>
<polygon fill="black" stroke="black" points="4379.88,-407.254 4387.72,-400.121 4377.14,-400.811 4379.88,-407.254"/>
<text text-anchor="middle" x="4355.5" y="-421.8" font-family="Times,serif" font-size="14.00">read</text>
</g>
<!-- pipe:[273417785]#ServerID_79226724f3b6 -->
<g id="node11" class="node"><title>pipe:[273417785]#ServerID_79226724f3b6</title>
<ellipse fill="none" stroke="black" cx="3960" cy="-295" rx="215.562" ry="18"/>
<text text-anchor="middle" x="3960" y="-291.3" font-family="Times,serif" font-size="14.00">pipe:[273417785]#ServerID_79226724f3b6</text>
</g>
<!-- 10_node#ServerID_79226724f3b6&#45;&gt;pipe:[273417785]#ServerID_79226724f3b6 -->
<g id="edge8" class="edge"><title>10_node#ServerID_79226724f3b6&#45;&gt;pipe:[273417785]#ServerID_79226724f3b6</title>
<path fill="none" stroke="black" d="M4334.14,-363.952C4253.4,-349.289 4137.44,-328.227 4056.07,-313.448"/>
<polygon fill="black" stroke="black" points="4056.29,-309.931 4045.82,-311.588 4055.04,-316.818 4056.29,-309.931"/>
<text text-anchor="middle" x="4241" y="-334.8" font-family="Times,serif" font-size="14.00">write</text>
</g>
<!-- /dev/null#ServerID_79226724f3b6 -->
<g id="node12" class="node"><title>/dev/null#ServerID_79226724f3b6</title>
<ellipse fill="none" stroke="black" cx="4367" cy="-295" rx="172.769" ry="18"/>
<text text-anchor="middle" x="4367" y="-291.3" font-family="Times,serif" font-size="14.00">/dev/null#ServerID_79226724f3b6</text>
</g>
<!-- 10_node#ServerID_79226724f3b6&#45;&gt;/dev/null#ServerID_79226724f3b6 -->
<g id="edge25" class="edge"><title>10_node#ServerID_79226724f3b6&#45;&gt;/dev/null#ServerID_79226724f3b6</title>
<path fill="none" stroke="black" d="M4381.93,-363.872C4374.77,-359.174 4368.33,-353.299 4364,-346 4360.04,-339.315 4359.21,-331.203 4359.8,-323.476"/>
<polygon fill="black" stroke="black" points="4363.3,-323.76 4361.35,-313.347 4356.38,-322.707 4363.3,-323.76"/>
<text text-anchor="middle" x="4383" y="-334.8" font-family="Times,serif" font-size="14.00">write</text>
</g>
<!-- pipe:[273416745]#ServerID_79226724f3b6 -->
<g id="node16" class="node"><title>pipe:[273416745]#ServerID_79226724f3b6</title>
<ellipse fill="none" stroke="black" cx="5056" cy="-295" rx="215.562" ry="18"/>
<text text-anchor="middle" x="5056" y="-291.3" font-family="Times,serif" font-size="14.00">pipe:[273416745]#ServerID_79226724f3b6</text>
</g>
<!-- 10_node#ServerID_79226724f3b6&#45;&gt;pipe:[273416745]#ServerID_79226724f3b6 -->
<g id="edge17" class="edge"><title>10_node#ServerID_79226724f3b6&#45;&gt;pipe:[273416745]#ServerID_79226724f3b6</title>
<path fill="none" stroke="black" d="M4553.95,-363.952C4665.93,-348.796 4828.42,-326.802 4937.94,-311.979"/>
<polygon fill="black" stroke="black" points="4938.6,-315.422 4948.04,-310.612 4937.66,-308.485 4938.6,-315.422"/>
<text text-anchor="middle" x="4798" y="-334.8" font-family="Times,serif" font-size="14.00">write</text>
</g>
<!-- 29_node#ServerID_79226724f3b6 -->
<g id="node17" class="node"><title>29_node#ServerID_79226724f3b6</title>
<polygon fill="none" stroke="black" points="4822.5,-313 4557.5,-313 4557.5,-277 4822.5,-277 4822.5,-313"/>
<text text-anchor="middle" x="4690" y="-291.3" font-family="Times,serif" font-size="14.00">29_node#ServerID_79226724f3b6</text>
</g>
<!-- 10_node#ServerID_79226724f3b6&#45;&gt;29_node#ServerID_79226724f3b6 -->
<g id="edge18" class="edge"><title>10_node#ServerID_79226724f3b6&#45;&gt;29_node#ServerID_79226724f3b6</title>
<path fill="none" stroke="black" d="M4480.7,-363.901C4523.17,-350.126 4582.96,-330.727 4627.77,-316.189"/>
<polygon fill="black" stroke="black" points="4628.95,-319.487 4637.38,-313.071 4626.79,-312.828 4628.95,-319.487"/>
<text text-anchor="middle" x="4589" y="-334.8" font-family="Times,serif" font-size="14.00">fork</text>
</g>
<!-- /dev/null#ServerID_79226724f3b6&#45;&gt;10_node#ServerID_79226724f3b6 -->
<g id="edge9" class="edge"><title>/dev/null#ServerID_79226724f3b6&#45;&gt;10_node#ServerID_79226724f3b6</title>
<path fill="none" stroke="black" d="M4389.27,-313.06C4395.23,-318.355 4401.3,-324.517 4406,-331 4411.14,-338.098 4415.44,-346.588 4418.83,-354.539"/>
<polygon fill="black" stroke="black" points="4415.58,-355.833 4422.51,-363.842 4422.09,-353.256 4415.58,-355.833"/>
<text text-anchor="middle" x="4430.5" y="-334.8" font-family="Times,serif" font-size="14.00">read</text>
</g>
<!-- 1_fwatchdog#ServerID_6dcbcc88d5&#45;4vpdn&#45;&gt;gateway:8080#ServerID_OuterContainerID -->
<g id="edge10" class="edge"><title>1_fwatchdog#ServerID_6dcbcc88d5&#45;4vpdn&#45;&gt;gateway:8080#ServerID_OuterContainerID</title>
<path fill="none" stroke="black" d="M5411.03,-574.085C5376.11,-585.342 5327.78,-599.061 5284,-605 5219.04,-613.812 2989.54,-611.457 2924,-613 2669.61,-618.988 2605.98,-622.344 2352,-638 2289.95,-641.825 2221.1,-647.182 2163.71,-651.957"/>
<polygon fill="black" stroke="black" points="2163.18,-648.489 2153.5,-652.81 2163.76,-655.465 2163.18,-648.489"/>
<text text-anchor="middle" x="2944" y="-616.8" font-family="Times,serif" font-size="14.00">POST</text>
</g>
<!-- 1_fwatchdog#ServerID_6dcbcc88d5&#45;4vpdn&#45;&gt;10.1.80.247:55110#ServerID_OuterContainerID -->
<g id="edge20" class="edge"><title>1_fwatchdog#ServerID_6dcbcc88d5&#45;4vpdn&#45;&gt;10.1.80.247:55110#ServerID_OuterContainerID</title>
<path fill="none" stroke="black" d="M5411.03,-574.08C5376.11,-585.335 5327.78,-599.054 5284,-605 5165.86,-621.045 3257.02,-606.067 3138,-613 3018.11,-619.984 2880.78,-636.933 2791.44,-649.163"/>
<polygon fill="black" stroke="black" points="2790.75,-645.724 2781.32,-650.555 2791.71,-652.659 2790.75,-645.724"/>
<text text-anchor="middle" x="3180" y="-616.8" font-family="Times,serif" font-size="14.00">RESPONSE</text>
</g>
<!-- 10.1.80.247:8080#ServerID_OuterContainerID -->
<g id="node15" class="node"><title>10.1.80.247:8080#ServerID_OuterContainerID</title>
<polygon fill="none" stroke="black" points="1389,-682 1061.56,-664 1389,-646 1716.44,-664 1389,-682"/>
<text text-anchor="middle" x="1389" y="-660.3" font-family="Times,serif" font-size="14.00">10.1.80.247:8080#ServerID_OuterContainerID</text>
</g>
<!-- 1_fwatchdog#ServerID_6dcbcc88d5&#45;4vpdn&#45;&gt;10.1.80.247:8080#ServerID_OuterContainerID -->
<g id="edge13" class="edge"><title>1_fwatchdog#ServerID_6dcbcc88d5&#45;4vpdn&#45;&gt;10.1.80.247:8080#ServerID_OuterContainerID</title>
<path fill="none" stroke="black" d="M5411.03,-574.095C5376.11,-585.357 5327.78,-599.078 5284,-605 5200.26,-616.326 2326.38,-608.475 2242,-613 2178.19,-616.422 2162.77,-623.809 2099,-628 1933.08,-638.904 1891.07,-629.606 1725,-638 1657.35,-641.419 1582.15,-646.861 1520.07,-651.795"/>
<polygon fill="black" stroke="black" points="1519.52,-648.328 1509.83,-652.614 1520.08,-655.306 1519.52,-648.328"/>
<text text-anchor="middle" x="2262" y="-616.8" font-family="Times,serif" font-size="14.00">POST</text>
</g>
<!-- 1_fwatchdog#ServerID_667d78fb58&#45;2fhs5&#45;&gt;10.1.80.247:56522#ServerID_OuterContainerID -->
<g id="edge16" class="edge"><title>1_fwatchdog#ServerID_667d78fb58&#45;2fhs5&#45;&gt;10.1.80.247:56522#ServerID_OuterContainerID</title>
<path fill="none" stroke="black" d="M5755.61,-574.061C5721.53,-584.236 5676.53,-596.74 5636,-605 5560.43,-620.402 5540.91,-622.23 5464,-628 5130.73,-653.003 4191.93,-660.147 3697.9,-662.187"/>
<polygon fill="black" stroke="black" points="3697.75,-658.687 3687.76,-662.228 3697.78,-665.687 3697.75,-658.687"/>
<text text-anchor="middle" x="5635" y="-616.8" font-family="Times,serif" font-size="14.00">RESPONSE</text>
</g>
<!-- 10.1.80.247:8080#ServerID_OuterContainerID&#45;&gt;1_fwatchdog#ServerID_6dcbcc88d5&#45;4vpdn -->
<g id="edge15" class="edge"><title>10.1.80.247:8080#ServerID_OuterContainerID&#45;&gt;1_fwatchdog#ServerID_6dcbcc88d5&#45;4vpdn</title>
<path fill="none" stroke="black" d="M1506.66,-652.442C1658.94,-638.969 1916.02,-616.928 2011,-613 2101.84,-609.244 5193.9,-617.178 5284,-605 5323.85,-599.614 5367.46,-587.763 5401.31,-577.185"/>
<polygon fill="black" stroke="black" points="5402.56,-580.46 5411.03,-574.098 5400.44,-573.789 5402.56,-580.46"/>
<text text-anchor="middle" x="2053" y="-616.8" font-family="Times,serif" font-size="14.00">RESPONSE</text>
</g>
<!-- 10.1.80.1:9089#ServerID_OuterContainerID -->
<g id="node23" class="node"><title>10.1.80.1:9089#ServerID_OuterContainerID</title>
<polygon fill="none" stroke="black" points="1373,-574 1062.15,-556 1373,-538 1683.85,-556 1373,-574"/>
<text text-anchor="middle" x="1373" y="-552.3" font-family="Times,serif" font-size="14.00">10.1.80.1:9089#ServerID_OuterContainerID</text>
</g>
<!-- 10.1.80.247:8080#ServerID_OuterContainerID&#45;&gt;10.1.80.1:9089#ServerID_OuterContainerID -->
<g id="edge29" class="edge"><title>10.1.80.247:8080#ServerID_OuterContainerID&#45;&gt;10.1.80.1:9089#ServerID_OuterContainerID</title>
<path fill="none" stroke="black" d="M1345.86,-648.216C1337.16,-643.184 1329.13,-636.583 1324,-628 1313.99,-611.248 1326.86,-593.157 1341.92,-579.429"/>
<polygon fill="black" stroke="black" points="1344.52,-581.815 1349.88,-572.678 1339.99,-576.476 1344.52,-581.815"/>
<text text-anchor="middle" x="1366" y="-616.8" font-family="Times,serif" font-size="14.00">RESPONSE</text>
</g>
<!-- 10.0.88.125:31112#ServerID_OuterContainerID -->
<g id="node24" class="node"><title>10.0.88.125:31112#ServerID_OuterContainerID</title>
<polygon fill="none" stroke="black" points="2037,-574 1701.52,-556 2037,-538 2372.48,-556 2037,-574"/>
<text text-anchor="middle" x="2037" y="-552.3" font-family="Times,serif" font-size="14.00">10.0.88.125:31112#ServerID_OuterContainerID</text>
</g>
<!-- 10.1.80.247:8080#ServerID_OuterContainerID&#45;&gt;10.0.88.125:31112#ServerID_OuterContainerID -->
<g id="edge30" class="edge"><title>10.1.80.247:8080#ServerID_OuterContainerID&#45;&gt;10.0.88.125:31112#ServerID_OuterContainerID</title>
<path fill="none" stroke="black" d="M1466.84,-650.267C1588.07,-630.437 1821.23,-592.296 1948.61,-571.459"/>
<polygon fill="black" stroke="black" points="1949.42,-574.873 1958.72,-569.805 1948.29,-567.965 1949.42,-574.873"/>
<text text-anchor="middle" x="1736" y="-616.8" font-family="Times,serif" font-size="14.00">RESPONSE</text>
</g>
<!-- pipe:[273416745]#ServerID_79226724f3b6&#45;&gt;10_node#ServerID_79226724f3b6 -->
<g id="edge14" class="edge"><title>pipe:[273416745]#ServerID_79226724f3b6&#45;&gt;10_node#ServerID_79226724f3b6</title>
<path fill="none" stroke="black" d="M5001.33,-312.503C4962.08,-323.702 4907.73,-337.896 4859,-346 4763.64,-361.858 4655.17,-370.618 4570.9,-375.409"/>
<polygon fill="black" stroke="black" points="4570.54,-371.924 4560.75,-375.974 4570.93,-378.913 4570.54,-371.924"/>
<text text-anchor="middle" x="4946.5" y="-334.8" font-family="Times,serif" font-size="14.00">read</text>
</g>
<!-- 29_sh#ServerID_79226724f3b6 -->
<g id="node18" class="node"><title>29_sh#ServerID_79226724f3b6</title>
<polygon fill="none" stroke="black" points="4813.5,-226 4566.5,-226 4566.5,-190 4813.5,-190 4813.5,-226"/>
<text text-anchor="middle" x="4690" y="-204.3" font-family="Times,serif" font-size="14.00">29_sh#ServerID_79226724f3b6</text>
</g>
<!-- 29_node#ServerID_79226724f3b6&#45;&gt;29_sh#ServerID_79226724f3b6 -->
<g id="edge21" class="edge"><title>29_node#ServerID_79226724f3b6&#45;&gt;29_sh#ServerID_79226724f3b6</title>
<path fill="none" stroke="black" d="M4690,-276.799C4690,-265.163 4690,-249.548 4690,-236.237"/>
<polygon fill="black" stroke="black" points="4693.5,-236.175 4690,-226.175 4686.5,-236.175 4693.5,-236.175"/>
<text text-anchor="middle" x="4715" y="-247.8" font-family="Times,serif" font-size="14.00">execve</text>
</g>
<!-- 30_sh#ServerID_79226724f3b6 -->
<g id="node19" class="node"><title>30_sh#ServerID_79226724f3b6</title>
<polygon fill="none" stroke="black" points="4712.5,-139 4465.5,-139 4465.5,-103 4712.5,-103 4712.5,-139"/>
<text text-anchor="middle" x="4589" y="-117.3" font-family="Times,serif" font-size="14.00">30_sh#ServerID_79226724f3b6</text>
</g>
<!-- 29_sh#ServerID_79226724f3b6&#45;&gt;30_sh#ServerID_79226724f3b6 -->
<g id="edge22" class="edge"><title>29_sh#ServerID_79226724f3b6&#45;&gt;30_sh#ServerID_79226724f3b6</title>
<path fill="none" stroke="black" d="M4669.56,-189.799C4654.5,-177.126 4633.84,-159.734 4617.21,-145.738"/>
<polygon fill="black" stroke="black" points="4619.31,-142.937 4609.41,-139.175 4614.81,-148.292 4619.31,-142.937"/>
<text text-anchor="middle" x="4660" y="-160.8" font-family="Times,serif" font-size="14.00">fork</text>
</g>
<!-- /home/app/3.txt#ServerID_79226724f3b6 -->
<g id="node21" class="node"><title>/home/app/3.txt#ServerID_79226724f3b6</title>
<ellipse fill="none" stroke="black" cx="4937" cy="-121" rx="206.063" ry="18"/>
<text text-anchor="middle" x="4937" y="-117.3" font-family="Times,serif" font-size="14.00">/home/app/3.txt#ServerID_79226724f3b6</text>
</g>
<!-- 29_sh#ServerID_79226724f3b6&#45;&gt;/home/app/3.txt#ServerID_79226724f3b6 -->
<g id="edge24" class="edge"><title>29_sh#ServerID_79226724f3b6&#45;&gt;/home/app/3.txt#ServerID_79226724f3b6</title>
<path fill="none" stroke="black" d="M4739.69,-189.901C4779.94,-176.049 4836.72,-156.509 4879.04,-141.945"/>
<polygon fill="black" stroke="black" points="4880.34,-145.201 4888.65,-138.637 4878.06,-138.582 4880.34,-145.201"/>
<text text-anchor="middle" x="4847" y="-160.8" font-family="Times,serif" font-size="14.00">write</text>
</g>
<!-- 30_touch#ServerID_79226724f3b6 -->
<g id="node20" class="node"><title>30_touch#ServerID_79226724f3b6</title>
<polygon fill="none" stroke="black" points="4724.5,-52 4453.5,-52 4453.5,-16 4724.5,-16 4724.5,-52"/>
<text text-anchor="middle" x="4589" y="-30.3" font-family="Times,serif" font-size="14.00">30_touch#ServerID_79226724f3b6</text>
</g>
<!-- 30_sh#ServerID_79226724f3b6&#45;&gt;30_touch#ServerID_79226724f3b6 -->
<g id="edge23" class="edge"><title>30_sh#ServerID_79226724f3b6&#45;&gt;30_touch#ServerID_79226724f3b6</title>
<path fill="none" stroke="black" d="M4589,-102.799C4589,-91.1626 4589,-75.5479 4589,-62.2368"/>
<polygon fill="black" stroke="black" points="4592.5,-62.1754 4589,-52.1754 4585.5,-62.1755 4592.5,-62.1754"/>
<text text-anchor="middle" x="4614" y="-73.8" font-family="Times,serif" font-size="14.00">execve</text>
</g>
<!-- 10.1.80.1:9089#ServerID_OuterContainerID&#45;&gt;10.1.80.247:8080#ServerID_OuterContainerID -->
<g id="edge28" class="edge"><title>10.1.80.1:9089#ServerID_OuterContainerID&#45;&gt;10.1.80.247:8080#ServerID_OuterContainerID</title>
<path fill="none" stroke="black" d="M1388.29,-573.186C1397.09,-583.657 1407.32,-598.079 1412,-613 1414.63,-621.387 1412.4,-630.203 1408.47,-638.057"/>
<polygon fill="black" stroke="black" points="1405.39,-636.376 1403.25,-646.752 1411.39,-639.978 1405.39,-636.376"/>
<text text-anchor="middle" x="1434" y="-616.8" font-family="Times,serif" font-size="14.00">POST</text>
</g>
</g>
</svg>
