<?xml version="1.0" encoding="UTF-8" standalone="no"?>
<!DOCTYPE svg PUBLIC "-//W3C//DTD SVG 1.1//EN"
 "http://www.w3.org/Graphics/SVG/1.1/DTD/svg11.dtd">
<!-- Generated by graphviz version 2.38.0 (20140413.2041)
 -->
<!-- Title: G Pages: 1 -->
<svg width="6266pt" height="510pt"
 viewBox="0.00 0.00 6266.00 510.00" xmlns="http://www.w3.org/2000/svg" xmlns:xlink="http://www.w3.org/1999/xlink">
<g id="graph0" class="graph" transform="scale(1 1) rotate(0) translate(4 506)">
<title>G</title>
<polygon fill="white" stroke="none" points="-4,4 -4,-506 6262,-506 6262,4 -4,4"/>
<g id="clust1" class="cluster"><title>clusterServerID_3113a7a2a86a</title>
<polygon fill="none" stroke="black" points="3969,-224 3969,-494 5359,-494 5359,-224 3969,-224"/>
<text text-anchor="middle" x="4664" y="-478.8" font-family="Times,serif" font-size="14.00">clusterServerID_3113a7a2a86a</text>
</g>
<g id="clust2" class="cluster"><title>clusterServerID_5f846fd567&#45;srhtc</title>
<polygon fill="none" stroke="black" points="5916,-8 5916,-83 6250,-83 6250,-8 5916,-8"/>
<text text-anchor="middle" x="6083" y="-67.8" font-family="Times,serif" font-size="14.00">clusterServerID_5f846fd567&#45;srhtc</text>
</g>
<g id="clust3" class="cluster"><title>clusterServerID_6df85d7674&#45;grtsk</title>
<polygon fill="none" stroke="black" points="3585,-224 3585,-299 3923,-299 3923,-224 3585,-224"/>
<text text-anchor="middle" x="3754" y="-283.8" font-family="Times,serif" font-size="14.00">clusterServerID_6df85d7674&#45;grtsk</text>
</g>
<g id="clust4" class="cluster"><title>clusterServerID_9c632c9c841a</title>
<polygon fill="none" stroke="black" points="8,-116 8,-494 1848,-494 1848,-116 8,-116"/>
<text text-anchor="middle" x="928" y="-478.8" font-family="Times,serif" font-size="14.00">clusterServerID_9c632c9c841a</text>
</g>
<g id="clust5" class="cluster"><title>clusterServerID_OuterContainerID</title>
<polygon fill="none" stroke="black" points="1856,-8 1856,-191 5908,-191 5908,-8 1856,-8"/>
<text text-anchor="middle" x="3882" y="-175.8" font-family="Times,serif" font-size="14.00">clusterServerID_OuterContainerID</text>
</g>
<!-- 1_fwatchdog#ServerID_6df85d7674&#45;grtsk -->
<g id="node1" class="node"><title>1_fwatchdog#ServerID_6df85d7674&#45;grtsk</title>
<polygon fill="none" stroke="black" points="3914.5,-268 3593.5,-268 3593.5,-232 3914.5,-232 3914.5,-268"/>
<text text-anchor="middle" x="3754" y="-246.3" font-family="Times,serif" font-size="14.00">1_fwatchdog#ServerID_6df85d7674&#45;grtsk</text>
</g>
<!-- gateway:8080#ServerID_OuterContainerID -->
<g id="node2" class="node"><title>gateway:8080#ServerID_OuterContainerID</title>
<polygon fill="none" stroke="black" points="4218,-160 3913.52,-142 4218,-124 4522.48,-142 4218,-160"/>
<text text-anchor="middle" x="4218" y="-138.3" font-family="Times,serif" font-size="14.00">gateway:8080#ServerID_OuterContainerID</text>
</g>
<!-- 1_fwatchdog#ServerID_6df85d7674&#45;grtsk&#45;&gt;gateway:8080#ServerID_OuterContainerID -->
<g id="edge1" class="edge"><title>1_fwatchdog#ServerID_6df85d7674&#45;grtsk&#45;&gt;gateway:8080#ServerID_OuterContainerID</title>
<path fill="none" stroke="black" d="M3798.62,-231.908C3811.24,-226.612 3824.85,-220.458 3837,-214 3847.78,-208.273 3848.61,-203.374 3860,-199 3866.26,-196.598 4022.98,-172.555 4126.97,-156.763"/>
<polygon fill="black" stroke="black" points="4127.5,-160.223 4136.86,-155.262 4126.45,-153.302 4127.5,-160.223"/>
<text text-anchor="middle" x="3880" y="-202.8" font-family="Times,serif" font-size="14.00">POST</text>
</g>
<!-- 10.1.80.247:57314#ServerID_OuterContainerID -->
<g id="node5" class="node"><title>10.1.80.247:57314#ServerID_OuterContainerID</title>
<polygon fill="none" stroke="black" points="4876,-160 4540.52,-142 4876,-124 5211.48,-142 4876,-160"/>
<text text-anchor="middle" x="4876" y="-138.3" font-family="Times,serif" font-size="14.00">10.1.80.247:57314#ServerID_OuterContainerID</text>
</g>
<!-- 1_fwatchdog#ServerID_6df85d7674&#45;grtsk&#45;&gt;10.1.80.247:57314#ServerID_OuterContainerID -->
<g id="edge7" class="edge"><title>1_fwatchdog#ServerID_6df85d7674&#45;grtsk&#45;&gt;10.1.80.247:57314#ServerID_OuterContainerID</title>
<path fill="none" stroke="black" d="M3877.36,-231.988C3931.11,-224.332 3983.31,-216.46 3989,-214 3998.88,-209.73 3997.86,-202.606 4008,-199 4035.38,-189.26 4502.03,-193.229 4531,-191 4620.36,-184.126 4721.89,-169.123 4791.54,-157.707"/>
<polygon fill="black" stroke="black" points="4792.29,-161.132 4801.58,-156.05 4791.15,-154.225 4792.29,-161.132"/>
<text text-anchor="middle" x="4050" y="-202.8" font-family="Times,serif" font-size="14.00">RESPONSE</text>
</g>
<!-- 10.1.80.247:8080#ServerID_OuterContainerID -->
<g id="node6" class="node"><title>10.1.80.247:8080#ServerID_OuterContainerID</title>
<polygon fill="none" stroke="black" points="2897,-160 2569.56,-142 2897,-124 3224.44,-142 2897,-160"/>
<text text-anchor="middle" x="2897" y="-138.3" font-family="Times,serif" font-size="14.00">10.1.80.247:8080#ServerID_OuterContainerID</text>
</g>
<!-- 1_fwatchdog#ServerID_6df85d7674&#45;grtsk&#45;&gt;10.1.80.247:8080#ServerID_OuterContainerID -->
<g id="edge6" class="edge"><title>1_fwatchdog#ServerID_6df85d7674&#45;grtsk&#45;&gt;10.1.80.247:8080#ServerID_OuterContainerID</title>
<path fill="none" stroke="black" d="M3593.18,-245.246C3432.67,-240.606 3197.42,-231.138 3108,-214 3049.01,-202.695 2983.89,-178.953 2941.82,-162.039"/>
<polygon fill="black" stroke="black" points="2943,-158.742 2932.42,-158.22 2940.37,-165.227 2943,-158.742"/>
<text text-anchor="middle" x="3128" y="-202.8" font-family="Times,serif" font-size="14.00">POST</text>
</g>
<!-- gateway:8080#ServerID_OuterContainerID&#45;&gt;1_fwatchdog#ServerID_6df85d7674&#45;grtsk -->
<g id="edge4" class="edge"><title>gateway:8080#ServerID_OuterContainerID&#45;&gt;1_fwatchdog#ServerID_6df85d7674&#45;grtsk</title>
<path fill="none" stroke="black" d="M4147.71,-155.857C4084.45,-166.932 3988.81,-182.446 3905,-191 3896.37,-191.881 3754.98,-192.709 3749,-199 3743.28,-205.025 3742.5,-213.49 3743.79,-221.745"/>
<polygon fill="black" stroke="black" points="3740.41,-222.651 3746.19,-231.531 3747.21,-220.985 3740.41,-222.651"/>
<text text-anchor="middle" x="3791" y="-202.8" font-family="Times,serif" font-size="14.00">RESPONSE</text>
</g>
<!-- 10.1.80.247:51844#ServerID_OuterContainerID -->
<g id="node3" class="node"><title>10.1.80.247:51844#ServerID_OuterContainerID</title>
<polygon fill="none" stroke="black" points="5565,-160 5229.52,-142 5565,-124 5900.48,-142 5565,-160"/>
<text text-anchor="middle" x="5565" y="-138.3" font-family="Times,serif" font-size="14.00">10.1.80.247:51844#ServerID_OuterContainerID</text>
</g>
<!-- 1_fwatchdog#ServerID_5f846fd567&#45;srhtc -->
<g id="node4" class="node"><title>1_fwatchdog#ServerID_5f846fd567&#45;srhtc</title>
<polygon fill="none" stroke="black" points="6241.5,-52 5924.5,-52 5924.5,-16 6241.5,-16 6241.5,-52"/>
<text text-anchor="middle" x="6083" y="-30.3" font-family="Times,serif" font-size="14.00">1_fwatchdog#ServerID_5f846fd567&#45;srhtc</text>
</g>
<!-- 10.1.80.247:51844#ServerID_OuterContainerID&#45;&gt;1_fwatchdog#ServerID_5f846fd567&#45;srhtc -->
<g id="edge2" class="edge"><title>10.1.80.247:51844#ServerID_OuterContainerID&#45;&gt;1_fwatchdog#ServerID_5f846fd567&#45;srhtc</title>
<path fill="none" stroke="black" d="M5654.3,-128.786C5724.69,-118.506 5825.12,-102.396 5912,-83 5947.45,-75.0851 5986.49,-64.2893 6018.31,-54.9405"/>
<polygon fill="black" stroke="black" points="6019.34,-58.2847 6027.94,-52.0904 6017.35,-51.5725 6019.34,-58.2847"/>
<text text-anchor="middle" x="5885" y="-94.8" font-family="Times,serif" font-size="14.00">POST</text>
</g>
<!-- 1_fwatchdog#ServerID_9c632c9c841a -->
<g id="node13" class="node"><title>1_fwatchdog#ServerID_9c632c9c841a</title>
<polygon fill="none" stroke="black" points="567.5,-463 270.5,-463 270.5,-427 567.5,-427 567.5,-463"/>
<text text-anchor="middle" x="419" y="-441.3" font-family="Times,serif" font-size="14.00">1_fwatchdog#ServerID_9c632c9c841a</text>
</g>
<!-- 10.1.80.247:51844#ServerID_OuterContainerID&#45;&gt;1_fwatchdog#ServerID_9c632c9c841a -->
<g id="edge19" class="edge"><title>10.1.80.247:51844#ServerID_OuterContainerID&#45;&gt;1_fwatchdog#ServerID_9c632c9c841a</title>
<path fill="none" stroke="black" d="M5489.55,-155.977C5419.84,-167.377 5313.27,-183.31 5220,-191 5211.31,-191.716 3972.37,-219.339 3965,-224 3933.42,-243.978 3958.43,-278.786 3927,-299 3784.53,-390.635 1243.77,-432.469 577.755,-441.89"/>
<polygon fill="black" stroke="black" points="577.558,-438.392 567.608,-442.033 577.657,-445.391 577.558,-438.392"/>
<text text-anchor="middle" x="3919.5" y="-310.8" font-family="Times,serif" font-size="14.00">read</text>
</g>
<!-- 1_fwatchdog#ServerID_5f846fd567&#45;srhtc&#45;&gt;10.1.80.247:51844#ServerID_OuterContainerID -->
<g id="edge3" class="edge"><title>1_fwatchdog#ServerID_5f846fd567&#45;srhtc&#45;&gt;10.1.80.247:51844#ServerID_OuterContainerID</title>
<path fill="none" stroke="black" d="M6033.92,-52.082C6000.1,-63.0302 5953.88,-76.3867 5912,-83 5823.25,-97.0147 5798.3,-74.4002 5710,-91 5675.24,-97.5352 5637.51,-110.751 5609.25,-121.955"/>
<polygon fill="black" stroke="black" points="5607.64,-118.832 5599.67,-125.819 5610.26,-125.323 5607.64,-118.832"/>
<text text-anchor="middle" x="5752" y="-94.8" font-family="Times,serif" font-size="14.00">RESPONSE</text>
</g>
<!-- 10.1.80.247:57314#ServerID_OuterContainerID&#45;&gt;1_fwatchdog#ServerID_6df85d7674&#45;grtsk -->
<g id="edge5" class="edge"><title>10.1.80.247:57314#ServerID_OuterContainerID&#45;&gt;1_fwatchdog#ServerID_6df85d7674&#45;grtsk</title>
<path fill="none" stroke="black" d="M4800.9,-156.038C4731.2,-167.521 4624.44,-183.545 4531,-191 4446.58,-197.735 4233.78,-186.682 4150,-199 4125.36,-202.623 4120.57,-209.877 4096,-214 4024.86,-225.941 4005.78,-216.811 3934,-224 3915.64,-225.839 3896.27,-228.143 3877.32,-230.603"/>
<polygon fill="black" stroke="black" points="3876.6,-227.167 3867.15,-231.942 3877.52,-234.107 3876.6,-227.167"/>
<text text-anchor="middle" x="4170" y="-202.8" font-family="Times,serif" font-size="14.00">POST</text>
</g>
<!-- 1_fwatchdog#ServerID_3113a7a2a86a -->
<g id="node7" class="node"><title>1_fwatchdog#ServerID_3113a7a2a86a</title>
<polygon fill="none" stroke="black" points="4907.5,-463 4610.5,-463 4610.5,-427 4907.5,-427 4907.5,-463"/>
<text text-anchor="middle" x="4759" y="-441.3" font-family="Times,serif" font-size="14.00">1_fwatchdog#ServerID_3113a7a2a86a</text>
</g>
<!-- 10.1.80.247:57314#ServerID_OuterContainerID&#45;&gt;1_fwatchdog#ServerID_3113a7a2a86a -->
<g id="edge13" class="edge"><title>10.1.80.247:57314#ServerID_OuterContainerID&#45;&gt;1_fwatchdog#ServerID_3113a7a2a86a</title>
<path fill="none" stroke="black" d="M4976.03,-154.649C5149.98,-178.672 5478.82,-242.983 5360,-376 5330.91,-408.569 5085.85,-427.524 4917.78,-436.805"/>
<polygon fill="black" stroke="black" points="4917.38,-433.322 4907.58,-437.362 4917.76,-440.312 4917.38,-433.322"/>
<text text-anchor="middle" x="5401.5" y="-310.8" font-family="Times,serif" font-size="14.00">read</text>
</g>
<!-- 10.1.80.247:8080#ServerID_OuterContainerID&#45;&gt;1_fwatchdog#ServerID_6df85d7674&#45;grtsk -->
<g id="edge8" class="edge"><title>10.1.80.247:8080#ServerID_OuterContainerID&#45;&gt;1_fwatchdog#ServerID_6df85d7674&#45;grtsk</title>
<path fill="none" stroke="black" d="M2972.82,-155.891C3040.76,-166.95 3143.25,-182.419 3233,-191 3305.64,-197.945 3324.35,-192.154 3397,-199 3478.66,-206.694 3570.27,-219.614 3640.24,-230.393"/>
<polygon fill="black" stroke="black" points="3639.99,-233.895 3650.41,-231.967 3641.06,-226.978 3639.99,-233.895"/>
<text text-anchor="middle" x="3566" y="-202.8" font-family="Times,serif" font-size="14.00">RESPONSE</text>
</g>
<!-- 10.1.80.1:11478#ServerID_OuterContainerID -->
<g id="node21" class="node"><title>10.1.80.1:11478#ServerID_OuterContainerID</title>
<polygon fill="none" stroke="black" points="3004,-52 2685.1,-34 3004,-16 3322.9,-34 3004,-52"/>
<text text-anchor="middle" x="3004" y="-30.3" font-family="Times,serif" font-size="14.00">10.1.80.1:11478#ServerID_OuterContainerID</text>
</g>
<!-- 10.1.80.247:8080#ServerID_OuterContainerID&#45;&gt;10.1.80.1:11478#ServerID_OuterContainerID -->
<g id="edge34" class="edge"><title>10.1.80.247:8080#ServerID_OuterContainerID&#45;&gt;10.1.80.1:11478#ServerID_OuterContainerID</title>
<path fill="none" stroke="black" d="M2891.35,-124.06C2888.99,-113.774 2888,-100.786 2894,-91 2904.64,-73.6516 2922.52,-61.4683 2940.8,-53.0053"/>
<polygon fill="black" stroke="black" points="2942.26,-56.1871 2950.07,-49.0274 2939.5,-49.7543 2942.26,-56.1871"/>
<text text-anchor="middle" x="2936" y="-94.8" font-family="Times,serif" font-size="14.00">RESPONSE</text>
</g>
<!-- 10.0.88.125:31112#ServerID_OuterContainerID -->
<g id="node22" class="node"><title>10.0.88.125:31112#ServerID_OuterContainerID</title>
<polygon fill="none" stroke="black" points="3676,-52 3340.52,-34 3676,-16 4011.48,-34 3676,-52"/>
<text text-anchor="middle" x="3676" y="-30.3" font-family="Times,serif" font-size="14.00">10.0.88.125:31112#ServerID_OuterContainerID</text>
</g>
<!-- 10.1.80.247:8080#ServerID_OuterContainerID&#45;&gt;10.0.88.125:31112#ServerID_OuterContainerID -->
<g id="edge35" class="edge"><title>10.1.80.247:8080#ServerID_OuterContainerID&#45;&gt;10.0.88.125:31112#ServerID_OuterContainerID</title>
<path fill="none" stroke="black" d="M2988.25,-128.997C3076.29,-117.379 3213.29,-99.1956 3332,-83 3415.28,-71.6373 3509.86,-58.4172 3578.74,-48.7314"/>
<polygon fill="black" stroke="black" points="3579.3,-52.1876 3588.72,-47.3287 3578.33,-45.2559 3579.3,-52.1876"/>
<text text-anchor="middle" x="3314" y="-94.8" font-family="Times,serif" font-size="14.00">RESPONSE</text>
</g>
<!-- 10.1.80.1:38465#ServerID_OuterContainerID -->
<g id="node23" class="node"><title>10.1.80.1:38465#ServerID_OuterContainerID</title>
<polygon fill="none" stroke="black" points="2348,-52 2029.1,-34 2348,-16 2666.9,-34 2348,-52"/>
<text text-anchor="middle" x="2348" y="-30.3" font-family="Times,serif" font-size="14.00">10.1.80.1:38465#ServerID_OuterContainerID</text>
</g>
<!-- 10.1.80.247:8080#ServerID_OuterContainerID&#45;&gt;10.1.80.1:38465#ServerID_OuterContainerID -->
<g id="edge37" class="edge"><title>10.1.80.247:8080#ServerID_OuterContainerID&#45;&gt;10.1.80.1:38465#ServerID_OuterContainerID</title>
<path fill="none" stroke="black" d="M2828.3,-127.736C2725.91,-107.966 2533.8,-70.8737 2426.17,-50.0927"/>
<polygon fill="black" stroke="black" points="2426.82,-46.6544 2416.34,-48.1951 2425.5,-53.5275 2426.82,-46.6544"/>
<text text-anchor="middle" x="2746" y="-94.8" font-family="Times,serif" font-size="14.00">RESPONSE</text>
</g>
<!-- localhost:3000#ServerID_3113a7a2a86a -->
<g id="node8" class="node"><title>localhost:3000#ServerID_3113a7a2a86a</title>
<polygon fill="none" stroke="black" points="4689,-376 4403.28,-358 4689,-340 4974.72,-358 4689,-376"/>
<text text-anchor="middle" x="4689" y="-354.3" font-family="Times,serif" font-size="14.00">localhost:3000#ServerID_3113a7a2a86a</text>
</g>
<!-- 1_fwatchdog#ServerID_3113a7a2a86a&#45;&gt;localhost:3000#ServerID_3113a7a2a86a -->
<g id="edge9" class="edge"><title>1_fwatchdog#ServerID_3113a7a2a86a&#45;&gt;localhost:3000#ServerID_3113a7a2a86a</title>
<path fill="none" stroke="black" d="M4669.11,-426.854C4661.33,-422.21 4654.38,-416.361 4649,-409 4642.17,-399.654 4647.51,-389.636 4656.26,-381.04"/>
<polygon fill="black" stroke="black" points="4658.56,-383.678 4663.84,-374.491 4653.99,-378.382 4658.56,-383.678"/>
<text text-anchor="middle" x="4678" y="-397.8" font-family="Times,serif" font-size="14.00">connect</text>
</g>
<!-- 1_fwatchdog#ServerID_3113a7a2a86a&#45;&gt;localhost:3000#ServerID_3113a7a2a86a -->
<g id="edge10" class="edge"><title>1_fwatchdog#ServerID_3113a7a2a86a&#45;&gt;localhost:3000#ServerID_3113a7a2a86a</title>
<path fill="none" stroke="black" d="M4744.82,-426.925C4740.1,-421.229 4734.82,-414.846 4730,-409 4723.04,-400.554 4715.43,-391.289 4708.68,-383.054"/>
<polygon fill="black" stroke="black" points="4711.32,-380.748 4702.27,-375.23 4705.9,-385.184 4711.32,-380.748"/>
<text text-anchor="middle" x="4749" y="-397.8" font-family="Times,serif" font-size="14.00">write</text>
</g>
<!-- localhost:3000#ServerID_3113a7a2a86a&#45;&gt;1_fwatchdog#ServerID_3113a7a2a86a -->
<g id="edge11" class="edge"><title>localhost:3000#ServerID_3113a7a2a86a&#45;&gt;1_fwatchdog#ServerID_3113a7a2a86a</title>
<path fill="none" stroke="black" d="M4742.83,-372.809C4752.79,-377.846 4761.95,-384.696 4768,-394 4772.4,-400.757 4772.51,-409.064 4770.83,-416.951"/>
<polygon fill="black" stroke="black" points="4767.47,-415.986 4767.94,-426.57 4774.17,-418.001 4767.47,-415.986"/>
<text text-anchor="middle" x="4787.5" y="-397.8" font-family="Times,serif" font-size="14.00">read</text>
</g>
<!-- 12_node#ServerID_3113a7a2a86a -->
<g id="node9" class="node"><title>12_node#ServerID_3113a7a2a86a</title>
<polygon fill="none" stroke="black" points="4314,-268 4048,-268 4048,-232 4314,-232 4314,-268"/>
<text text-anchor="middle" x="4181" y="-246.3" font-family="Times,serif" font-size="14.00">12_node#ServerID_3113a7a2a86a</text>
</g>
<!-- localhost:3000#ServerID_3113a7a2a86a&#45;&gt;12_node#ServerID_3113a7a2a86a -->
<g id="edge12" class="edge"><title>localhost:3000#ServerID_3113a7a2a86a&#45;&gt;12_node#ServerID_3113a7a2a86a</title>
<path fill="none" stroke="black" d="M4626.2,-343.896C4537.44,-325.375 4374.74,-291.426 4272.53,-270.098"/>
<polygon fill="black" stroke="black" points="4273.03,-266.627 4262.52,-268.011 4271.6,-273.48 4273.03,-266.627"/>
<text text-anchor="middle" x="4526.5" y="-310.8" font-family="Times,serif" font-size="14.00">read</text>
</g>
<!-- 12_node#ServerID_3113a7a2a86a&#45;&gt;gateway:8080#ServerID_OuterContainerID -->
<g id="edge18" class="edge"><title>12_node#ServerID_3113a7a2a86a&#45;&gt;gateway:8080#ServerID_OuterContainerID</title>
<path fill="none" stroke="black" d="M4186.94,-231.969C4192.82,-215.125 4201.91,-189.102 4208.73,-169.544"/>
<polygon fill="black" stroke="black" points="4212.08,-170.583 4212.07,-159.988 4205.47,-168.276 4212.08,-170.583"/>
<text text-anchor="middle" x="4227" y="-202.8" font-family="Times,serif" font-size="14.00">connect</text>
</g>
<!-- 10.152.183.10:53#ServerID_OuterContainerID -->
<g id="node12" class="node"><title>10.152.183.10:53#ServerID_OuterContainerID</title>
<polygon fill="none" stroke="black" points="3569,-160 3241.56,-142 3569,-124 3896.44,-142 3569,-160"/>
<text text-anchor="middle" x="3569" y="-138.3" font-family="Times,serif" font-size="14.00">10.152.183.10:53#ServerID_OuterContainerID</text>
</g>
<!-- 12_node#ServerID_3113a7a2a86a&#45;&gt;10.152.183.10:53#ServerID_OuterContainerID -->
<g id="edge16" class="edge"><title>12_node#ServerID_3113a7a2a86a&#45;&gt;10.152.183.10:53#ServerID_OuterContainerID</title>
<path fill="none" stroke="black" d="M4047.98,-234.492C4009.03,-230.627 3966.34,-226.764 3927,-224 3874.42,-220.306 3740.57,-228.892 3690,-214 3655.46,-203.827 3620.46,-181.724 3597.05,-164.863"/>
<polygon fill="black" stroke="black" points="3599.1,-162.028 3588.97,-158.921 3594.95,-167.666 3599.1,-162.028"/>
<text text-anchor="middle" x="3714.5" y="-202.8" font-family="Times,serif" font-size="14.00">sendto</text>
</g>
<!-- /etc/hosts#ServerID_3113a7a2a86a -->
<g id="node10" class="node"><title>/etc/hosts#ServerID_3113a7a2a86a</title>
<ellipse fill="none" stroke="black" cx="5172" cy="-358" rx="178.969" ry="18"/>
<text text-anchor="middle" x="5172" y="-354.3" font-family="Times,serif" font-size="14.00">/etc/hosts#ServerID_3113a7a2a86a</text>
</g>
<!-- /etc/hosts#ServerID_3113a7a2a86a&#45;&gt;12_node#ServerID_3113a7a2a86a -->
<g id="edge14" class="edge"><title>/etc/hosts#ServerID_3113a7a2a86a&#45;&gt;12_node#ServerID_3113a7a2a86a</title>
<path fill="none" stroke="black" d="M5054.43,-344.424C4872,-324.911 4521.3,-287.4 4324.32,-266.33"/>
<polygon fill="black" stroke="black" points="4324.5,-262.829 4314.18,-265.246 4323.76,-269.79 4324.5,-262.829"/>
<text text-anchor="middle" x="4839.5" y="-310.8" font-family="Times,serif" font-size="14.00">read</text>
</g>
<!-- /etc/resolv.conf#ServerID_3113a7a2a86a -->
<g id="node11" class="node"><title>/etc/resolv.conf#ServerID_3113a7a2a86a</title>
<ellipse fill="none" stroke="black" cx="4181" cy="-358" rx="204.164" ry="18"/>
<text text-anchor="middle" x="4181" y="-354.3" font-family="Times,serif" font-size="14.00">/etc/resolv.conf#ServerID_3113a7a2a86a</text>
</g>
<!-- /etc/resolv.conf#ServerID_3113a7a2a86a&#45;&gt;12_node#ServerID_3113a7a2a86a -->
<g id="edge15" class="edge"><title>/etc/resolv.conf#ServerID_3113a7a2a86a&#45;&gt;12_node#ServerID_3113a7a2a86a</title>
<path fill="none" stroke="black" d="M4181,-339.969C4181,-323.378 4181,-297.883 4181,-278.431"/>
<polygon fill="black" stroke="black" points="4184.5,-278.341 4181,-268.341 4177.5,-278.341 4184.5,-278.341"/>
<text text-anchor="middle" x="4197.5" y="-310.8" font-family="Times,serif" font-size="14.00">read</text>
</g>
<!-- 10.152.183.10:53#ServerID_OuterContainerID&#45;&gt;12_node#ServerID_3113a7a2a86a -->
<g id="edge17" class="edge"><title>10.152.183.10:53#ServerID_OuterContainerID&#45;&gt;12_node#ServerID_3113a7a2a86a</title>
<path fill="none" stroke="black" d="M3700.81,-152.786C3762.85,-160.513 3836.9,-174.326 3900,-199 3911.37,-203.444 3911.56,-209.742 3923,-214 3959.07,-227.427 3999.68,-235.794 4037.83,-240.982"/>
<polygon fill="black" stroke="black" points="4037.63,-244.484 4047.99,-242.298 4038.52,-237.542 4037.63,-244.484"/>
<text text-anchor="middle" x="3956" y="-202.8" font-family="Times,serif" font-size="14.00">recvfrom</text>
</g>
<!-- 10_node#ServerID_9c632c9c841a -->
<g id="node15" class="node"><title>10_node#ServerID_9c632c9c841a</title>
<polygon fill="none" stroke="black" points="1840,-268 1574,-268 1574,-232 1840,-232 1840,-268"/>
<text text-anchor="middle" x="1707" y="-246.3" font-family="Times,serif" font-size="14.00">10_node#ServerID_9c632c9c841a</text>
</g>
<!-- 10.152.183.10:53#ServerID_OuterContainerID&#45;&gt;10_node#ServerID_9c632c9c841a -->
<g id="edge27" class="edge"><title>10.152.183.10:53#ServerID_OuterContainerID&#45;&gt;10_node#ServerID_9c632c9c841a</title>
<path fill="none" stroke="black" d="M3487.91,-155.563C3440.04,-164.492 3378.86,-178.567 3327,-199 3314.59,-203.891 3313.85,-210.408 3301,-214 3231.9,-233.318 2228.92,-244.304 1850.28,-247.782"/>
<polygon fill="black" stroke="black" points="1850.05,-244.284 1840.08,-247.875 1850.12,-251.283 1850.05,-244.284"/>
<text text-anchor="middle" x="3360" y="-202.8" font-family="Times,serif" font-size="14.00">recvfrom</text>
</g>
<!-- localhost:3000#ServerID_9c632c9c841a -->
<g id="node14" class="node"><title>localhost:3000#ServerID_9c632c9c841a</title>
<polygon fill="none" stroke="black" points="302,-376 16.2841,-358 302,-340 587.716,-358 302,-376"/>
<text text-anchor="middle" x="302" y="-354.3" font-family="Times,serif" font-size="14.00">localhost:3000#ServerID_9c632c9c841a</text>
</g>
<!-- 1_fwatchdog#ServerID_9c632c9c841a&#45;&gt;localhost:3000#ServerID_9c632c9c841a -->
<g id="edge20" class="edge"><title>1_fwatchdog#ServerID_9c632c9c841a&#45;&gt;localhost:3000#ServerID_9c632c9c841a</title>
<path fill="none" stroke="black" d="M415.081,-426.688C411.852,-415.997 406.258,-402.705 397,-394 389.334,-386.792 380.058,-381.041 370.344,-376.46"/>
<polygon fill="black" stroke="black" points="371.505,-373.149 360.935,-372.416 368.741,-379.58 371.505,-373.149"/>
<text text-anchor="middle" x="437" y="-397.8" font-family="Times,serif" font-size="14.00">connect</text>
</g>
<!-- 1_fwatchdog#ServerID_9c632c9c841a&#45;&gt;localhost:3000#ServerID_9c632c9c841a -->
<g id="edge23" class="edge"><title>1_fwatchdog#ServerID_9c632c9c841a&#45;&gt;localhost:3000#ServerID_9c632c9c841a</title>
<path fill="none" stroke="black" d="M321.284,-426.923C313.475,-422.24 306.496,-416.363 301,-409 296.107,-402.445 294.951,-393.942 295.444,-385.813"/>
<polygon fill="black" stroke="black" points="298.914,-386.272 296.793,-375.891 291.978,-385.328 298.914,-386.272"/>
<text text-anchor="middle" x="320" y="-397.8" font-family="Times,serif" font-size="14.00">write</text>
</g>
<!-- pipe:[240002549]#ServerID_9c632c9c841a -->
<g id="node20" class="node"><title>pipe:[240002549]#ServerID_9c632c9c841a</title>
<ellipse fill="none" stroke="black" cx="1624" cy="-358" rx="215.562" ry="18"/>
<text text-anchor="middle" x="1624" y="-354.3" font-family="Times,serif" font-size="14.00">pipe:[240002549]#ServerID_9c632c9c841a</text>
</g>
<!-- 1_fwatchdog#ServerID_9c632c9c841a&#45;&gt;pipe:[240002549]#ServerID_9c632c9c841a -->
<g id="edge32" class="edge"><title>1_fwatchdog#ServerID_9c632c9c841a&#45;&gt;pipe:[240002549]#ServerID_9c632c9c841a</title>
<path fill="none" stroke="black" d="M567.614,-433.973C759.639,-420.951 1104.3,-397.357 1399,-376 1418.98,-374.552 1439.95,-373.004 1460.73,-371.455"/>
<polygon fill="black" stroke="black" points="1461.19,-374.93 1470.9,-370.694 1460.67,-367.949 1461.19,-374.93"/>
<text text-anchor="middle" x="1149" y="-397.8" font-family="Times,serif" font-size="14.00">write</text>
</g>
<!-- localhost:3000#ServerID_9c632c9c841a&#45;&gt;1_fwatchdog#ServerID_9c632c9c841a -->
<g id="edge21" class="edge"><title>localhost:3000#ServerID_9c632c9c841a&#45;&gt;1_fwatchdog#ServerID_9c632c9c841a</title>
<path fill="none" stroke="black" d="M319.994,-375.122C333.876,-387.442 352.013,-403.256 360,-409 365.983,-413.302 372.52,-417.57 378.995,-421.567"/>
<polygon fill="black" stroke="black" points="377.355,-424.666 387.726,-426.83 380.968,-418.67 377.355,-424.666"/>
<text text-anchor="middle" x="376.5" y="-397.8" font-family="Times,serif" font-size="14.00">read</text>
</g>
<!-- localhost:3000#ServerID_9c632c9c841a&#45;&gt;10_node#ServerID_9c632c9c841a -->
<g id="edge22" class="edge"><title>localhost:3000#ServerID_9c632c9c841a&#45;&gt;10_node#ServerID_9c632c9c841a</title>
<path fill="none" stroke="black" d="M424.839,-347.732C684.403,-328.15 1287.45,-282.653 1563.9,-261.796"/>
<polygon fill="black" stroke="black" points="1564.29,-265.277 1573.99,-261.035 1563.76,-258.297 1564.29,-265.277"/>
<text text-anchor="middle" x="979.5" y="-310.8" font-family="Times,serif" font-size="14.00">read</text>
</g>
<!-- 10_node#ServerID_9c632c9c841a&#45;&gt;10.152.183.10:53#ServerID_OuterContainerID -->
<g id="edge25" class="edge"><title>10_node#ServerID_9c632c9c841a&#45;&gt;10.152.183.10:53#ServerID_OuterContainerID</title>
<path fill="none" stroke="black" d="M1840.14,-248.198C2146.99,-245.954 2896.8,-238.109 3148,-214 3212.53,-207.807 3385.44,-176.927 3488.49,-157.989"/>
<polygon fill="black" stroke="black" points="3489.34,-161.391 3498.54,-156.139 3488.07,-154.507 3489.34,-161.391"/>
<text text-anchor="middle" x="3272.5" y="-202.8" font-family="Times,serif" font-size="14.00">sendto</text>
</g>
<!-- 10.152.183.73:8888#ServerID_OuterContainerID -->
<g id="node18" class="node"><title>10.152.183.73:8888#ServerID_OuterContainerID</title>
<polygon fill="none" stroke="black" points="2208,-160 1864.47,-142 2208,-124 2551.53,-142 2208,-160"/>
<text text-anchor="middle" x="2208" y="-138.3" font-family="Times,serif" font-size="14.00">10.152.183.73:8888#ServerID_OuterContainerID</text>
</g>
<!-- 10_node#ServerID_9c632c9c841a&#45;&gt;10.152.183.73:8888#ServerID_OuterContainerID -->
<g id="edge30" class="edge"><title>10_node#ServerID_9c632c9c841a&#45;&gt;10.152.183.73:8888#ServerID_OuterContainerID</title>
<path fill="none" stroke="black" d="M1840.13,-235.174C1881.34,-229.817 1926.76,-222.811 1968,-214 2033.59,-199.987 2107.35,-177.058 2155.57,-161.061"/>
<polygon fill="black" stroke="black" points="2156.78,-164.345 2165.16,-157.858 2154.57,-157.705 2156.78,-164.345"/>
<text text-anchor="middle" x="2058" y="-202.8" font-family="Times,serif" font-size="14.00">connect</text>
</g>
<!-- 10_node#ServerID_9c632c9c841a&#45;&gt;10.152.183.73:8888#ServerID_OuterContainerID -->
<g id="edge31" class="edge"><title>10_node#ServerID_9c632c9c841a&#45;&gt;10.152.183.73:8888#ServerID_OuterContainerID</title>
<path fill="none" stroke="black" d="M1840.28,-243.232C1932.25,-238.043 2045.78,-228.894 2091,-214 2123.82,-203.191 2157.11,-181.752 2179.74,-165.247"/>
<polygon fill="black" stroke="black" points="2181.94,-167.974 2187.87,-159.195 2177.76,-162.359 2181.94,-167.974"/>
<text text-anchor="middle" x="2145" y="-202.8" font-family="Times,serif" font-size="14.00">write</text>
</g>
<!-- /home/app/sqldump.sh#ServerID_9c632c9c841a -->
<g id="node19" class="node"><title>/home/app/sqldump.sh#ServerID_9c632c9c841a</title>
<ellipse fill="none" stroke="black" cx="1601" cy="-142" rx="238.558" ry="18"/>
<text text-anchor="middle" x="1601" y="-138.3" font-family="Times,serif" font-size="14.00">/home/app/sqldump.sh#ServerID_9c632c9c841a</text>
</g>
<!-- 10_node#ServerID_9c632c9c841a&#45;&gt;/home/app/sqldump.sh#ServerID_9c632c9c841a -->
<g id="edge29" class="edge"><title>10_node#ServerID_9c632c9c841a&#45;&gt;/home/app/sqldump.sh#ServerID_9c632c9c841a</title>
<path fill="none" stroke="black" d="M1689.97,-231.969C1672.43,-214.429 1644.94,-186.938 1625.16,-167.156"/>
<polygon fill="black" stroke="black" points="1627.53,-164.585 1617.99,-159.988 1622.58,-169.534 1627.53,-164.585"/>
<text text-anchor="middle" x="1689" y="-202.8" font-family="Times,serif" font-size="14.00">write</text>
</g>
<!-- /etc/hosts#ServerID_9c632c9c841a -->
<g id="node16" class="node"><title>/etc/hosts#ServerID_9c632c9c841a</title>
<ellipse fill="none" stroke="black" cx="1211" cy="-358" rx="178.969" ry="18"/>
<text text-anchor="middle" x="1211" y="-354.3" font-family="Times,serif" font-size="14.00">/etc/hosts#ServerID_9c632c9c841a</text>
</g>
<!-- /etc/hosts#ServerID_9c632c9c841a&#45;&gt;10_node#ServerID_9c632c9c841a -->
<g id="edge24" class="edge"><title>/etc/hosts#ServerID_9c632c9c841a&#45;&gt;10_node#ServerID_9c632c9c841a</title>
<path fill="none" stroke="black" d="M1283.39,-341.53C1371.81,-322.633 1521.41,-290.662 1617.12,-270.209"/>
<polygon fill="black" stroke="black" points="1618.02,-273.594 1627.07,-268.082 1616.56,-266.749 1618.02,-273.594"/>
<text text-anchor="middle" x="1461.5" y="-310.8" font-family="Times,serif" font-size="14.00">read</text>
</g>
<!-- /etc/resolv.conf#ServerID_9c632c9c841a -->
<g id="node17" class="node"><title>/etc/resolv.conf#ServerID_9c632c9c841a</title>
<ellipse fill="none" stroke="black" cx="810" cy="-358" rx="204.164" ry="18"/>
<text text-anchor="middle" x="810" y="-354.3" font-family="Times,serif" font-size="14.00">/etc/resolv.conf#ServerID_9c632c9c841a</text>
</g>
<!-- /etc/resolv.conf#ServerID_9c632c9c841a&#45;&gt;10_node#ServerID_9c632c9c841a -->
<g id="edge26" class="edge"><title>/etc/resolv.conf#ServerID_9c632c9c841a&#45;&gt;10_node#ServerID_9c632c9c841a</title>
<path fill="none" stroke="black" d="M926.807,-343.197C1090.29,-323.878 1387.07,-288.806 1563.71,-267.933"/>
<polygon fill="black" stroke="black" points="1564.34,-271.383 1573.86,-266.734 1563.51,-264.432 1564.34,-271.383"/>
<text text-anchor="middle" x="1248.5" y="-310.8" font-family="Times,serif" font-size="14.00">read</text>
</g>
<!-- 10.152.183.73:8888#ServerID_OuterContainerID&#45;&gt;10_node#ServerID_9c632c9c841a -->
<g id="edge28" class="edge"><title>10.152.183.73:8888#ServerID_OuterContainerID&#45;&gt;10_node#ServerID_9c632c9c841a</title>
<path fill="none" stroke="black" d="M2140.91,-156.498C2085.62,-167.686 2005.16,-184.111 1935,-199 1888.11,-208.95 1835.87,-220.38 1793.24,-229.798"/>
<polygon fill="black" stroke="black" points="1792.47,-226.384 1783.46,-231.96 1793.98,-233.219 1792.47,-226.384"/>
<text text-anchor="middle" x="1951.5" y="-202.8" font-family="Times,serif" font-size="14.00">read</text>
</g>
<!-- 10.1.80.1:11478#ServerID_OuterContainerID&#45;&gt;10.1.80.247:8080#ServerID_OuterContainerID -->
<g id="edge33" class="edge"><title>10.1.80.1:11478#ServerID_OuterContainerID&#45;&gt;10.1.80.247:8080#ServerID_OuterContainerID</title>
<path fill="none" stroke="black" d="M3002.77,-52.2342C3000.78,-68.0243 2995.58,-91.1383 2982,-106 2975.98,-112.591 2968.53,-117.973 2960.56,-122.36"/>
<polygon fill="black" stroke="black" points="2958.8,-119.324 2951.4,-126.9 2961.91,-125.597 2958.8,-119.324"/>
<text text-anchor="middle" x="3011" y="-94.8" font-family="Times,serif" font-size="14.00">POST</text>
</g>
<!-- 10.1.80.1:38465#ServerID_OuterContainerID&#45;&gt;10.1.80.247:8080#ServerID_OuterContainerID -->
<g id="edge36" class="edge"><title>10.1.80.1:38465#ServerID_OuterContainerID&#45;&gt;10.1.80.247:8080#ServerID_OuterContainerID</title>
<path fill="none" stroke="black" d="M2381,-50.2622C2418.46,-66.8667 2481.78,-92.802 2539,-106 2595.83,-119.108 2658.84,-127.31 2715.96,-132.441"/>
<polygon fill="black" stroke="black" points="2715.92,-135.95 2726.18,-133.332 2716.53,-128.977 2715.92,-135.95"/>
<text text-anchor="middle" x="2559" y="-94.8" font-family="Times,serif" font-size="14.00">POST</text>
</g>
</g>
</svg>
