<?xml version="1.0" encoding="UTF-8" standalone="no"?>
<!DOCTYPE svg PUBLIC "-//W3C//DTD SVG 1.1//EN"
 "http://www.w3.org/Graphics/SVG/1.1/DTD/svg11.dtd">
<!-- Generated by graphviz version 2.38.0 (20140413.2041)
 -->
<!-- Title: G Pages: 1 -->
<svg width="4778pt" height="597pt"
 viewBox="0.00 0.00 4778.00 597.00" xmlns="http://www.w3.org/2000/svg" xmlns:xlink="http://www.w3.org/1999/xlink">
<g id="graph0" class="graph" transform="scale(1 1) rotate(0) translate(4 593)">
<title>G</title>
<polygon fill="white" stroke="none" points="-4,4 -4,-593 4774,-593 4774,4 -4,4"/>
<g id="clust1" class="cluster"><title>clusterServerID_2347d2f455dd</title>
<polygon fill="none" stroke="black" points="1554,-311 1554,-581 2942,-581 2942,-311 1554,-311"/>
<text text-anchor="middle" x="2248" y="-565.8" font-family="Times,serif" font-size="14.00">clusterServerID_2347d2f455dd</text>
</g>
<g id="clust2" class="cluster"><title>clusterServerID_5f846fd567&#45;g8dn6</title>
<polygon fill="none" stroke="black" points="3312,-95 3312,-170 3652,-170 3652,-95 3312,-95"/>
<text text-anchor="middle" x="3482" y="-154.8" font-family="Times,serif" font-size="14.00">clusterServerID_5f846fd567&#45;g8dn6</text>
</g>
<g id="clust3" class="cluster"><title>clusterServerID_6df85d7674&#45;f2xxt</title>
<polygon fill="none" stroke="black" points="816,-311 816,-386 1152,-386 1152,-311 816,-311"/>
<text text-anchor="middle" x="984" y="-370.8" font-family="Times,serif" font-size="14.00">clusterServerID_6df85d7674&#45;f2xxt</text>
</g>
<g id="clust4" class="cluster"><title>clusterServerID_7cf8268e6ab5</title>
<polygon fill="none" stroke="black" points="3660,-8 3660,-278 4762,-278 4762,-8 3660,-8"/>
<text text-anchor="middle" x="4211" y="-262.8" font-family="Times,serif" font-size="14.00">clusterServerID_7cf8268e6ab5</text>
</g>
<g id="clust5" class="cluster"><title>clusterServerID_OuterContainerID</title>
<polygon fill="none" stroke="black" points="8,-95 8,-278 3304,-278 3304,-95 8,-95"/>
<text text-anchor="middle" x="1656" y="-262.8" font-family="Times,serif" font-size="14.00">clusterServerID_OuterContainerID</text>
</g>
<!-- 1_fwatchdog#ServerID_6df85d7674&#45;f2xxt -->
<g id="node1" class="node"><title>1_fwatchdog#ServerID_6df85d7674&#45;f2xxt</title>
<polygon fill="none" stroke="black" points="1144,-355 824,-355 824,-319 1144,-319 1144,-355"/>
<text text-anchor="middle" x="984" y="-333.3" font-family="Times,serif" font-size="14.00">1_fwatchdog#ServerID_6df85d7674&#45;f2xxt</text>
</g>
<!-- 10.1.80.93:60602#ServerID_OuterContainerID -->
<g id="node2" class="node"><title>10.1.80.93:60602#ServerID_OuterContainerID</title>
<polygon fill="none" stroke="black" points="999,-247 671.56,-229 999,-211 1326.44,-229 999,-247"/>
<text text-anchor="middle" x="999" y="-225.3" font-family="Times,serif" font-size="14.00">10.1.80.93:60602#ServerID_OuterContainerID</text>
</g>
<!-- 1_fwatchdog#ServerID_6df85d7674&#45;f2xxt&#45;&gt;10.1.80.93:60602#ServerID_OuterContainerID -->
<g id="edge1" class="edge"><title>1_fwatchdog#ServerID_6df85d7674&#45;f2xxt&#45;&gt;10.1.80.93:60602#ServerID_OuterContainerID</title>
<path fill="none" stroke="black" d="M959.123,-318.951C949.207,-309.901 941.16,-298.155 946,-286 951.041,-273.341 960.452,-261.895 969.961,-252.7"/>
<polygon fill="black" stroke="black" points="972.478,-255.142 977.527,-245.827 967.772,-249.96 972.478,-255.142"/>
<text text-anchor="middle" x="988" y="-289.8" font-family="Times,serif" font-size="14.00">RESPONSE</text>
</g>
<!-- gateway:8080#ServerID_OuterContainerID -->
<g id="node5" class="node"><title>gateway:8080#ServerID_OuterContainerID</title>
<polygon fill="none" stroke="black" points="2320,-247 2015.52,-229 2320,-211 2624.48,-229 2320,-247"/>
<text text-anchor="middle" x="2320" y="-225.3" font-family="Times,serif" font-size="14.00">gateway:8080#ServerID_OuterContainerID</text>
</g>
<!-- 1_fwatchdog#ServerID_6df85d7674&#45;f2xxt&#45;&gt;gateway:8080#ServerID_OuterContainerID -->
<g id="edge3" class="edge"><title>1_fwatchdog#ServerID_6df85d7674&#45;f2xxt&#45;&gt;gateway:8080#ServerID_OuterContainerID</title>
<path fill="none" stroke="black" d="M1144.12,-328.795C1388.82,-317.465 1844.56,-295.021 2007,-278 2086.28,-269.693 2176.16,-255.398 2239.2,-244.563"/>
<polygon fill="black" stroke="black" points="2239.82,-248.007 2249.08,-242.855 2238.63,-241.109 2239.82,-248.007"/>
<text text-anchor="middle" x="1924" y="-289.8" font-family="Times,serif" font-size="14.00">POST</text>
</g>
<!-- 10.1.80.93:8080#ServerID_OuterContainerID -->
<g id="node6" class="node"><title>10.1.80.93:8080#ServerID_OuterContainerID</title>
<polygon fill="none" stroke="black" points="335,-247 16.1049,-229 335,-211 653.895,-229 335,-247"/>
<text text-anchor="middle" x="335" y="-225.3" font-family="Times,serif" font-size="14.00">10.1.80.93:8080#ServerID_OuterContainerID</text>
</g>
<!-- 1_fwatchdog#ServerID_6df85d7674&#45;f2xxt&#45;&gt;10.1.80.93:8080#ServerID_OuterContainerID -->
<g id="edge9" class="edge"><title>1_fwatchdog#ServerID_6df85d7674&#45;f2xxt&#45;&gt;10.1.80.93:8080#ServerID_OuterContainerID</title>
<path fill="none" stroke="black" d="M908.612,-318.969C859.624,-308.356 794.267,-295.048 736,-286 703.748,-280.992 695.375,-282.141 663,-278 582.367,-267.685 490.859,-254.14 425.024,-244.07"/>
<polygon fill="black" stroke="black" points="425.508,-240.603 415.094,-242.547 424.448,-247.522 425.508,-240.603"/>
<text text-anchor="middle" x="839" y="-289.8" font-family="Times,serif" font-size="14.00">POST</text>
</g>
<!-- 10.1.80.93:60602#ServerID_OuterContainerID&#45;&gt;1_fwatchdog#ServerID_6df85d7674&#45;f2xxt -->
<g id="edge8" class="edge"><title>10.1.80.93:60602#ServerID_OuterContainerID&#45;&gt;1_fwatchdog#ServerID_6df85d7674&#45;f2xxt</title>
<path fill="none" stroke="black" d="M1014.46,-246.278C1026.28,-260.803 1039.14,-282.562 1030,-301 1027.99,-305.054 1025.26,-308.766 1022.13,-312.131"/>
<polygon fill="black" stroke="black" points="1019.73,-309.586 1014.75,-318.939 1024.47,-314.731 1019.73,-309.586"/>
<text text-anchor="middle" x="1054" y="-289.8" font-family="Times,serif" font-size="14.00">POST</text>
</g>
<!-- 1_fwatchdog#ServerID_2347d2f455dd -->
<g id="node3" class="node"><title>1_fwatchdog#ServerID_2347d2f455dd</title>
<polygon fill="none" stroke="black" points="2465,-550 2169,-550 2169,-514 2465,-514 2465,-550"/>
<text text-anchor="middle" x="2317" y="-528.3" font-family="Times,serif" font-size="14.00">1_fwatchdog#ServerID_2347d2f455dd</text>
</g>
<!-- 10.1.80.93:60602#ServerID_OuterContainerID&#45;&gt;1_fwatchdog#ServerID_2347d2f455dd -->
<g id="edge10" class="edge"><title>10.1.80.93:60602#ServerID_OuterContainerID&#45;&gt;1_fwatchdog#ServerID_2347d2f455dd</title>
<path fill="none" stroke="black" d="M1070.46,-243.107C1138.27,-254.854 1243.18,-271.244 1335,-278 1346.12,-278.818 2932.05,-278.183 2940,-286 3047.11,-391.384 2971.45,-431.292 2943,-463 2912.23,-497.297 2650.46,-515.913 2475.31,-524.627"/>
<polygon fill="black" stroke="black" points="2475.02,-521.137 2465.21,-525.123 2475.37,-528.128 2475.02,-521.137"/>
<text text-anchor="middle" x="3011.5" y="-397.8" font-family="Times,serif" font-size="14.00">read</text>
</g>
<!-- localhost:3000#ServerID_2347d2f455dd -->
<g id="node4" class="node"><title>localhost:3000#ServerID_2347d2f455dd</title>
<polygon fill="none" stroke="black" points="1847,-463 1562.12,-445 1847,-427 2131.88,-445 1847,-463"/>
<text text-anchor="middle" x="1847" y="-441.3" font-family="Times,serif" font-size="14.00">localhost:3000#ServerID_2347d2f455dd</text>
</g>
<!-- 1_fwatchdog#ServerID_2347d2f455dd&#45;&gt;localhost:3000#ServerID_2347d2f455dd -->
<g id="edge2" class="edge"><title>1_fwatchdog#ServerID_2347d2f455dd&#45;&gt;localhost:3000#ServerID_2347d2f455dd</title>
<path fill="none" stroke="black" d="M2222.74,-513.952C2135.92,-498.251 2008.52,-475.211 1926.67,-460.408"/>
<polygon fill="black" stroke="black" points="1927.13,-456.935 1916.67,-458.6 1925.89,-463.823 1927.13,-456.935"/>
<text text-anchor="middle" x="2130" y="-484.8" font-family="Times,serif" font-size="14.00">write</text>
</g>
<!-- 13_node#ServerID_2347d2f455dd -->
<g id="node9" class="node"><title>13_node#ServerID_2347d2f455dd</title>
<polygon fill="none" stroke="black" points="2867.5,-355 2602.5,-355 2602.5,-319 2867.5,-319 2867.5,-355"/>
<text text-anchor="middle" x="2735" y="-333.3" font-family="Times,serif" font-size="14.00">13_node#ServerID_2347d2f455dd</text>
</g>
<!-- localhost:3000#ServerID_2347d2f455dd&#45;&gt;13_node#ServerID_2347d2f455dd -->
<g id="edge11" class="edge"><title>localhost:3000#ServerID_2347d2f455dd&#45;&gt;13_node#ServerID_2347d2f455dd</title>
<path fill="none" stroke="black" d="M1940.35,-432.856C2095.9,-414.288 2409.1,-376.902 2592.42,-355.019"/>
<polygon fill="black" stroke="black" points="2592.89,-358.488 2602.41,-353.827 2592.06,-351.537 2592.89,-358.488"/>
<text text-anchor="middle" x="2281.5" y="-397.8" font-family="Times,serif" font-size="14.00">read</text>
</g>
<!-- gateway:8080#ServerID_OuterContainerID&#45;&gt;1_fwatchdog#ServerID_6df85d7674&#45;f2xxt -->
<g id="edge5" class="edge"><title>gateway:8080#ServerID_OuterContainerID&#45;&gt;1_fwatchdog#ServerID_6df85d7674&#45;f2xxt</title>
<path fill="none" stroke="black" d="M2252.23,-243.05C2189.05,-254.584 2092.03,-270.679 2007,-278 1826.3,-293.558 1780.14,-276.869 1599,-286 1448.5,-293.586 1277.7,-307.932 1154.36,-319.319"/>
<polygon fill="black" stroke="black" points="1153.7,-315.864 1144.07,-320.272 1154.35,-322.835 1153.7,-315.864"/>
<text text-anchor="middle" x="1641" y="-289.8" font-family="Times,serif" font-size="14.00">RESPONSE</text>
</g>
<!-- 10.1.80.93:8080#ServerID_OuterContainerID&#45;&gt;1_fwatchdog#ServerID_6df85d7674&#45;f2xxt -->
<g id="edge4" class="edge"><title>10.1.80.93:8080#ServerID_OuterContainerID&#45;&gt;1_fwatchdog#ServerID_6df85d7674&#45;f2xxt</title>
<path fill="none" stroke="black" d="M388.758,-244.032C451.519,-259.949 558.641,-285.676 652,-301 704.387,-309.599 761.789,-316.525 813.91,-321.875"/>
<polygon fill="black" stroke="black" points="813.617,-325.363 823.919,-322.889 814.323,-318.398 813.617,-325.363"/>
<text text-anchor="middle" x="694" y="-289.8" font-family="Times,serif" font-size="14.00">RESPONSE</text>
</g>
<!-- 10.1.80.1:26176#ServerID_OuterContainerID -->
<g id="node18" class="node"><title>10.1.80.1:26176#ServerID_OuterContainerID</title>
<polygon fill="none" stroke="black" points="1023,-139 704.105,-121 1023,-103 1341.9,-121 1023,-139"/>
<text text-anchor="middle" x="1023" y="-117.3" font-family="Times,serif" font-size="14.00">10.1.80.1:26176#ServerID_OuterContainerID</text>
</g>
<!-- 10.1.80.93:8080#ServerID_OuterContainerID&#45;&gt;10.1.80.1:26176#ServerID_OuterContainerID -->
<g id="edge24" class="edge"><title>10.1.80.93:8080#ServerID_OuterContainerID&#45;&gt;10.1.80.1:26176#ServerID_OuterContainerID</title>
<path fill="none" stroke="black" d="M387.541,-213.899C433.073,-202.277 500.903,-186.388 561,-178 620.089,-169.753 635.651,-176.103 695,-170 778.042,-161.461 872.284,-147.188 938.372,-136.42"/>
<polygon fill="black" stroke="black" points="939.019,-139.861 948.322,-134.791 937.888,-132.953 939.019,-139.861"/>
<text text-anchor="middle" x="603" y="-181.8" font-family="Times,serif" font-size="14.00">RESPONSE</text>
</g>
<!-- 10.0.88.125:31112#ServerID_OuterContainerID -->
<g id="node19" class="node"><title>10.0.88.125:31112#ServerID_OuterContainerID</title>
<polygon fill="none" stroke="black" points="351,-139 15.5152,-121 351,-103 686.485,-121 351,-139"/>
<text text-anchor="middle" x="351" y="-117.3" font-family="Times,serif" font-size="14.00">10.0.88.125:31112#ServerID_OuterContainerID</text>
</g>
<!-- 10.1.80.93:8080#ServerID_OuterContainerID&#45;&gt;10.0.88.125:31112#ServerID_OuterContainerID -->
<g id="edge25" class="edge"><title>10.1.80.93:8080#ServerID_OuterContainerID&#45;&gt;10.0.88.125:31112#ServerID_OuterContainerID</title>
<path fill="none" stroke="black" d="M337.571,-210.969C340.09,-194.279 343.969,-168.579 346.912,-149.084"/>
<polygon fill="black" stroke="black" points="350.404,-149.399 348.436,-138.988 343.482,-148.354 350.404,-149.399"/>
<text text-anchor="middle" x="385" y="-181.8" font-family="Times,serif" font-size="14.00">RESPONSE</text>
</g>
<!-- 10.1.80.93:52610#ServerID_OuterContainerID -->
<g id="node7" class="node"><title>10.1.80.93:52610#ServerID_OuterContainerID</title>
<polygon fill="none" stroke="black" points="1671,-247 1343.56,-229 1671,-211 1998.44,-229 1671,-247"/>
<text text-anchor="middle" x="1671" y="-225.3" font-family="Times,serif" font-size="14.00">10.1.80.93:52610#ServerID_OuterContainerID</text>
</g>
<!-- 1_fwatchdog#ServerID_5f846fd567&#45;g8dn6 -->
<g id="node8" class="node"><title>1_fwatchdog#ServerID_5f846fd567&#45;g8dn6</title>
<polygon fill="none" stroke="black" points="3644,-139 3320,-139 3320,-103 3644,-103 3644,-139"/>
<text text-anchor="middle" x="3482" y="-117.3" font-family="Times,serif" font-size="14.00">1_fwatchdog#ServerID_5f846fd567&#45;g8dn6</text>
</g>
<!-- 10.1.80.93:52610#ServerID_OuterContainerID&#45;&gt;1_fwatchdog#ServerID_5f846fd567&#45;g8dn6 -->
<g id="edge6" class="edge"><title>10.1.80.93:52610#ServerID_OuterContainerID&#45;&gt;1_fwatchdog#ServerID_5f846fd567&#45;g8dn6</title>
<path fill="none" stroke="black" d="M1826.54,-219.512C1883.32,-216.576 1948.06,-213.42 2007,-211 2296.01,-199.136 3022.01,-213.322 3308,-170 3346.92,-164.105 3389.53,-152.44 3422.85,-142.086"/>
<polygon fill="black" stroke="black" points="3423.94,-145.41 3432.43,-139.065 3421.84,-138.734 3423.94,-145.41"/>
<text text-anchor="middle" x="3252" y="-181.8" font-family="Times,serif" font-size="14.00">POST</text>
</g>
<!-- 1_fwatchdog#ServerID_7cf8268e6ab5 -->
<g id="node15" class="node"><title>1_fwatchdog#ServerID_7cf8268e6ab5</title>
<polygon fill="none" stroke="black" points="4042,-139 3748,-139 3748,-103 4042,-103 4042,-139"/>
<text text-anchor="middle" x="3895" y="-117.3" font-family="Times,serif" font-size="14.00">1_fwatchdog#ServerID_7cf8268e6ab5</text>
</g>
<!-- 10.1.80.93:52610#ServerID_OuterContainerID&#45;&gt;1_fwatchdog#ServerID_7cf8268e6ab5 -->
<g id="edge18" class="edge"><title>10.1.80.93:52610#ServerID_OuterContainerID&#45;&gt;1_fwatchdog#ServerID_7cf8268e6ab5</title>
<path fill="none" stroke="black" d="M1821.07,-219.239C1879.13,-216.155 1946.14,-212.971 2007,-211 2570.76,-192.746 2712.34,-214.045 3276,-193 3445.08,-186.687 3488.22,-191.821 3656,-170 3708.88,-163.123 3767.61,-151.387 3813.61,-141.241"/>
<polygon fill="black" stroke="black" points="3814.53,-144.624 3823.53,-139.036 3813.01,-137.791 3814.53,-144.624"/>
<text text-anchor="middle" x="3601.5" y="-181.8" font-family="Times,serif" font-size="14.00">read</text>
</g>
<!-- 1_fwatchdog#ServerID_5f846fd567&#45;g8dn6&#45;&gt;10.1.80.93:52610#ServerID_OuterContainerID -->
<g id="edge7" class="edge"><title>1_fwatchdog#ServerID_5f846fd567&#45;g8dn6&#45;&gt;10.1.80.93:52610#ServerID_OuterContainerID</title>
<path fill="none" stroke="black" d="M3432.82,-139.069C3398.35,-150.163 3350.94,-163.695 3308,-170 3229.49,-181.528 3030.32,-175.725 2951,-178 2531.36,-190.036 2426.43,-193.059 2007,-211 1951.79,-213.362 1891.5,-216.3 1837.42,-219.065"/>
<polygon fill="black" stroke="black" points="1837.2,-215.572 1827.39,-219.58 1837.56,-222.562 1837.2,-215.572"/>
<text text-anchor="middle" x="2993" y="-181.8" font-family="Times,serif" font-size="14.00">RESPONSE</text>
</g>
<!-- 13_node#ServerID_2347d2f455dd&#45;&gt;gateway:8080#ServerID_OuterContainerID -->
<g id="edge16" class="edge"><title>13_node#ServerID_2347d2f455dd&#45;&gt;gateway:8080#ServerID_OuterContainerID</title>
<path fill="none" stroke="black" d="M2668.32,-318.969C2590.15,-299.002 2461.49,-266.139 2384.34,-246.434"/>
<polygon fill="black" stroke="black" points="2384.82,-242.945 2374.27,-243.861 2383.09,-249.727 2384.82,-242.945"/>
<text text-anchor="middle" x="2618" y="-289.8" font-family="Times,serif" font-size="14.00">connect</text>
</g>
<!-- 10.152.183.10:53#ServerID_OuterContainerID -->
<g id="node12" class="node"><title>10.152.183.10:53#ServerID_OuterContainerID</title>
<polygon fill="none" stroke="black" points="2969,-247 2641.56,-229 2969,-211 3296.44,-229 2969,-247"/>
<text text-anchor="middle" x="2969" y="-225.3" font-family="Times,serif" font-size="14.00">10.152.183.10:53#ServerID_OuterContainerID</text>
</g>
<!-- 13_node#ServerID_2347d2f455dd&#45;&gt;10.152.183.10:53#ServerID_OuterContainerID -->
<g id="edge14" class="edge"><title>13_node#ServerID_2347d2f455dd&#45;&gt;10.152.183.10:53#ServerID_OuterContainerID</title>
<path fill="none" stroke="black" d="M2751.03,-318.658C2761.74,-307.954 2776.63,-294.661 2792,-286 2823.68,-268.145 2861.82,-255.15 2894.56,-246.201"/>
<polygon fill="black" stroke="black" points="2895.77,-249.501 2904.54,-243.552 2893.98,-242.735 2895.77,-249.501"/>
<text text-anchor="middle" x="2816.5" y="-289.8" font-family="Times,serif" font-size="14.00">sendto</text>
</g>
<!-- /etc/hosts#ServerID_2347d2f455dd -->
<g id="node10" class="node"><title>/etc/hosts#ServerID_2347d2f455dd</title>
<ellipse fill="none" stroke="black" cx="2755" cy="-445" rx="178.969" ry="18"/>
<text text-anchor="middle" x="2755" y="-441.3" font-family="Times,serif" font-size="14.00">/etc/hosts#ServerID_2347d2f455dd</text>
</g>
<!-- /etc/hosts#ServerID_2347d2f455dd&#45;&gt;13_node#ServerID_2347d2f455dd -->
<g id="edge12" class="edge"><title>/etc/hosts#ServerID_2347d2f455dd&#45;&gt;13_node#ServerID_2347d2f455dd</title>
<path fill="none" stroke="black" d="M2751.79,-426.969C2748.66,-410.378 2743.85,-384.883 2740.18,-365.431"/>
<polygon fill="black" stroke="black" points="2743.57,-364.518 2738.27,-355.341 2736.69,-365.816 2743.57,-364.518"/>
<text text-anchor="middle" x="2764.5" y="-397.8" font-family="Times,serif" font-size="14.00">read</text>
</g>
<!-- /etc/resolv.conf#ServerID_2347d2f455dd -->
<g id="node11" class="node"><title>/etc/resolv.conf#ServerID_2347d2f455dd</title>
<ellipse fill="none" stroke="black" cx="2354" cy="-445" rx="204.164" ry="18"/>
<text text-anchor="middle" x="2354" y="-441.3" font-family="Times,serif" font-size="14.00">/etc/resolv.conf#ServerID_2347d2f455dd</text>
</g>
<!-- /etc/resolv.conf#ServerID_2347d2f455dd&#45;&gt;13_node#ServerID_2347d2f455dd -->
<g id="edge13" class="edge"><title>/etc/resolv.conf#ServerID_2347d2f455dd&#45;&gt;13_node#ServerID_2347d2f455dd</title>
<path fill="none" stroke="black" d="M2412.7,-427.67C2480.28,-408.867 2591.27,-377.987 2663.75,-357.823"/>
<polygon fill="black" stroke="black" points="2665.02,-361.104 2673.71,-355.051 2663.14,-354.36 2665.02,-361.104"/>
<text text-anchor="middle" x="2550.5" y="-397.8" font-family="Times,serif" font-size="14.00">read</text>
</g>
<!-- 10.152.183.10:53#ServerID_OuterContainerID&#45;&gt;13_node#ServerID_2347d2f455dd -->
<g id="edge15" class="edge"><title>10.152.183.10:53#ServerID_OuterContainerID&#45;&gt;13_node#ServerID_2347d2f455dd</title>
<path fill="none" stroke="black" d="M2943.74,-245.876C2918.43,-261.331 2878.01,-284.795 2841,-301 2828.9,-306.296 2815.74,-311.252 2802.93,-315.674"/>
<polygon fill="black" stroke="black" points="2801.58,-312.434 2793.23,-318.948 2803.82,-319.067 2801.58,-312.434"/>
<text text-anchor="middle" x="2903" y="-289.8" font-family="Times,serif" font-size="14.00">recvfrom</text>
</g>
<!-- localhost:3000#ServerID_7cf8268e6ab5 -->
<g id="node13" class="node"><title>localhost:3000#ServerID_7cf8268e6ab5</title>
<polygon fill="none" stroke="black" points="3951,-247 3667.8,-229 3951,-211 4234.2,-229 3951,-247"/>
<text text-anchor="middle" x="3951" y="-225.3" font-family="Times,serif" font-size="14.00">localhost:3000#ServerID_7cf8268e6ab5</text>
</g>
<!-- 13_node#ServerID_7cf8268e6ab5 -->
<g id="node14" class="node"><title>13_node#ServerID_7cf8268e6ab5</title>
<polygon fill="none" stroke="black" points="4401.5,-139 4138.5,-139 4138.5,-103 4401.5,-103 4401.5,-139"/>
<text text-anchor="middle" x="4270" y="-117.3" font-family="Times,serif" font-size="14.00">13_node#ServerID_7cf8268e6ab5</text>
</g>
<!-- localhost:3000#ServerID_7cf8268e6ab5&#45;&gt;13_node#ServerID_7cf8268e6ab5 -->
<g id="edge17" class="edge"><title>localhost:3000#ServerID_7cf8268e6ab5&#45;&gt;13_node#ServerID_7cf8268e6ab5</title>
<path fill="none" stroke="black" d="M3994.02,-213.704C4049.39,-195.306 4145.94,-163.224 4208.91,-142.301"/>
<polygon fill="black" stroke="black" points="4210.33,-145.518 4218.71,-139.043 4208.12,-138.875 4210.33,-145.518"/>
<text text-anchor="middle" x="4116.5" y="-181.8" font-family="Times,serif" font-size="14.00">read</text>
</g>
<!-- localhost:3000#ServerID_7cf8268e6ab5&#45;&gt;1_fwatchdog#ServerID_7cf8268e6ab5 -->
<g id="edge21" class="edge"><title>localhost:3000#ServerID_7cf8268e6ab5&#45;&gt;1_fwatchdog#ServerID_7cf8268e6ab5</title>
<path fill="none" stroke="black" d="M3912.98,-213.234C3904.62,-208.127 3896.83,-201.486 3892,-193 3884.56,-179.929 3884.88,-163.204 3887.27,-149.27"/>
<polygon fill="black" stroke="black" points="3890.74,-149.776 3889.4,-139.266 3883.89,-148.318 3890.74,-149.776"/>
<text text-anchor="middle" x="3908.5" y="-181.8" font-family="Times,serif" font-size="14.00">read</text>
</g>
<!-- 1_fwatchdog#ServerID_7cf8268e6ab5&#45;&gt;localhost:3000#ServerID_7cf8268e6ab5 -->
<g id="edge19" class="edge"><title>1_fwatchdog#ServerID_7cf8268e6ab5&#45;&gt;localhost:3000#ServerID_7cf8268e6ab5</title>
<path fill="none" stroke="black" d="M3906.32,-139.315C3913.24,-150.211 3922.07,-164.684 3929,-178 3932.94,-185.57 3936.83,-193.998 3940.22,-201.744"/>
<polygon fill="black" stroke="black" points="3937.06,-203.254 3944.2,-211.075 3943.49,-200.504 3937.06,-203.254"/>
<text text-anchor="middle" x="3955" y="-181.8" font-family="Times,serif" font-size="14.00">write</text>
</g>
<!-- pipe:[7845976]#ServerID_7cf8268e6ab5 -->
<g id="node17" class="node"><title>pipe:[7845976]#ServerID_7cf8268e6ab5</title>
<ellipse fill="none" stroke="black" cx="3895" cy="-34" rx="202.264" ry="18"/>
<text text-anchor="middle" x="3895" y="-30.3" font-family="Times,serif" font-size="14.00">pipe:[7845976]#ServerID_7cf8268e6ab5</text>
</g>
<!-- 1_fwatchdog#ServerID_7cf8268e6ab5&#45;&gt;pipe:[7845976]#ServerID_7cf8268e6ab5 -->
<g id="edge22" class="edge"><title>1_fwatchdog#ServerID_7cf8268e6ab5&#45;&gt;pipe:[7845976]#ServerID_7cf8268e6ab5</title>
<path fill="none" stroke="black" d="M3895,-102.799C3895,-91.1626 3895,-75.5479 3895,-62.2368"/>
<polygon fill="black" stroke="black" points="3898.5,-62.1754 3895,-52.1754 3891.5,-62.1755 3898.5,-62.1754"/>
<text text-anchor="middle" x="3914" y="-73.8" font-family="Times,serif" font-size="14.00">write</text>
</g>
<!-- /home/app/credentials.txt#ServerID_7cf8268e6ab5 -->
<g id="node16" class="node"><title>/home/app/credentials.txt#ServerID_7cf8268e6ab5</title>
<ellipse fill="none" stroke="black" cx="4503" cy="-229" rx="250.756" ry="18"/>
<text text-anchor="middle" x="4503" y="-225.3" font-family="Times,serif" font-size="14.00">/home/app/credentials.txt#ServerID_7cf8268e6ab5</text>
</g>
<!-- /home/app/credentials.txt#ServerID_7cf8268e6ab5&#45;&gt;13_node#ServerID_7cf8268e6ab5 -->
<g id="edge20" class="edge"><title>/home/app/credentials.txt#ServerID_7cf8268e6ab5&#45;&gt;13_node#ServerID_7cf8268e6ab5</title>
<path fill="none" stroke="black" d="M4465.82,-211.087C4425.36,-192.681 4360.6,-163.217 4316.73,-143.26"/>
<polygon fill="black" stroke="black" points="4317.98,-139.984 4307.43,-139.028 4315.08,-146.355 4317.98,-139.984"/>
<text text-anchor="middle" x="4436.5" y="-181.8" font-family="Times,serif" font-size="14.00">read</text>
</g>
<!-- 10.1.80.1:26176#ServerID_OuterContainerID&#45;&gt;10.1.80.93:8080#ServerID_OuterContainerID -->
<g id="edge23" class="edge"><title>10.1.80.1:26176#ServerID_OuterContainerID&#45;&gt;10.1.80.93:8080#ServerID_OuterContainerID</title>
<path fill="none" stroke="black" d="M960.056,-135.477C885.931,-150.992 758.96,-176.459 649,-193 586.702,-202.371 517.1,-210.379 459.288,-216.36"/>
<polygon fill="black" stroke="black" points="458.596,-212.912 449.006,-217.415 459.311,-219.876 458.596,-212.912"/>
<text text-anchor="middle" x="752" y="-181.8" font-family="Times,serif" font-size="14.00">POST</text>
</g>
</g>
</svg>
