<?xml version="1.0" encoding="UTF-8" standalone="no"?>
<!DOCTYPE svg PUBLIC "-//W3C//DTD SVG 1.1//EN"
 "http://www.w3.org/Graphics/SVG/1.1/DTD/svg11.dtd">
<!-- Generated by graphviz version 2.38.0 (20140413.2041)
 -->
<!-- Title: G Pages: 1 -->
<svg width="6330pt" height="906pt"
 viewBox="0.00 0.00 6330.00 906.00" xmlns="http://www.w3.org/2000/svg" xmlns:xlink="http://www.w3.org/1999/xlink">
<g id="graph0" class="graph" transform="scale(1 1) rotate(0) translate(4 902)">
<title>G</title>
<polygon fill="white" stroke="none" points="-4,4 -4,-902 6326,-902 6326,4 -4,4"/>
<g id="clust1" class="cluster"><title>clusterServerID_5f846fd567&#45;wptbp</title>
<polygon fill="none" stroke="black" points="2617,-792 2617,-890 2957,-890 2957,-792 2617,-792"/>
<text text-anchor="middle" x="2787" y="-874.8" font-family="Times,serif" font-size="14.00">clusterServerID_5f846fd567&#45;wptbp</text>
</g>
<g id="clust2" class="cluster"><title>clusterServerID_62fde1e95276</title>
<polygon fill="none" stroke="black" points="8,-443 8,-759 1116,-759 1116,-443 8,-443"/>
<text text-anchor="middle" x="562" y="-743.8" font-family="Times,serif" font-size="14.00">clusterServerID_62fde1e95276</text>
</g>
<g id="clust3" class="cluster"><title>clusterServerID_6df85d7674&#45;kxx8d</title>
<polygon fill="none" stroke="black" points="5972,-530 5972,-628 6314,-628 6314,-530 5972,-530"/>
<text text-anchor="middle" x="6143" y="-612.8" font-family="Times,serif" font-size="14.00">clusterServerID_6df85d7674&#45;kxx8d</text>
</g>
<g id="clust4" class="cluster"><title>clusterServerID_OuterContainerID</title>
<polygon fill="none" stroke="black" points="1124,-530 1124,-759 4420,-759 4420,-530 1124,-530"/>
<text text-anchor="middle" x="2772" y="-743.8" font-family="Times,serif" font-size="14.00">clusterServerID_OuterContainerID</text>
</g>
<g id="clust5" class="cluster"><title>clusterServerID_d4490627de97</title>
<polygon fill="none" stroke="black" points="4428,-8 4428,-628 5964,-628 5964,-8 4428,-8"/>
<text text-anchor="middle" x="5196" y="-612.8" font-family="Times,serif" font-size="14.00">clusterServerID_d4490627de97</text>
</g>
<!-- 10.1.80.93:43674#ServerID_OuterContainerID -->
<g id="node1" class="node"><title>10.1.80.93:43674#ServerID_OuterContainerID</title>
<polygon fill="none" stroke="black" points="2787,-705 2459.56,-687 2787,-669 3114.44,-687 2787,-705"/>
<text text-anchor="middle" x="2787" y="-683.3" font-family="Times,serif" font-size="14.00">10.1.80.93:43674#ServerID_OuterContainerID</text>
</g>
<!-- 1_fwatchdog#ServerID_5f846fd567&#45;wptbp -->
<g id="node2" class="node"><title>1_fwatchdog#ServerID_5f846fd567&#45;wptbp</title>
<polygon fill="none" stroke="black" points="2949,-836 2625,-836 2625,-800 2949,-800 2949,-836"/>
<text text-anchor="middle" x="2787" y="-814.3" font-family="Times,serif" font-size="14.00">1_fwatchdog#ServerID_5f846fd567&#45;wptbp</text>
</g>
<!-- 10.1.80.93:43674#ServerID_OuterContainerID&#45;&gt;1_fwatchdog#ServerID_5f846fd567&#45;wptbp -->
<g id="edge1" class="edge"><title>10.1.80.93:43674#ServerID_OuterContainerID&#45;&gt;1_fwatchdog#ServerID_5f846fd567&#45;wptbp</title>
<path fill="none" stroke="black" d="M2772.59,-704.491C2760.42,-719.588 2743.91,-743.148 2737,-767 2735.14,-773.403 2733.92,-776.087 2737,-782 2739.12,-786.075 2741.96,-789.774 2745.21,-793.107"/>
<polygon fill="black" stroke="black" points="2743.04,-795.859 2752.86,-799.823 2747.66,-790.597 2743.04,-795.859"/>
<text text-anchor="middle" x="2757" y="-770.8" font-family="Times,serif" font-size="14.00">POST</text>
</g>
<!-- 1_fwatchdog#ServerID_d4490627de97 -->
<g id="node14" class="node"><title>1_fwatchdog#ServerID_d4490627de97</title>
<polygon fill="none" stroke="black" points="4976.5,-574 4677.5,-574 4677.5,-538 4976.5,-538 4976.5,-574"/>
<text text-anchor="middle" x="4827" y="-552.3" font-family="Times,serif" font-size="14.00">1_fwatchdog#ServerID_d4490627de97</text>
</g>
<!-- 10.1.80.93:43674#ServerID_OuterContainerID&#45;&gt;1_fwatchdog#ServerID_d4490627de97 -->
<g id="edge19" class="edge"><title>10.1.80.93:43674#ServerID_OuterContainerID&#45;&gt;1_fwatchdog#ServerID_d4490627de97</title>
<path fill="none" stroke="black" d="M2876.71,-673.931C2972.25,-661.7 3127.98,-643.539 3263,-636 3391.8,-628.809 4295.53,-639.677 4424,-628 4534.76,-617.933 4660.77,-593.626 4741.95,-576.261"/>
<polygon fill="black" stroke="black" points="4743.08,-579.598 4752.12,-574.072 4741.6,-572.755 4743.08,-579.598"/>
<text text-anchor="middle" x="3279.5" y="-639.8" font-family="Times,serif" font-size="14.00">read</text>
</g>
<!-- 1_fwatchdog#ServerID_5f846fd567&#45;wptbp&#45;&gt;10.1.80.93:43674#ServerID_OuterContainerID -->
<g id="edge2" class="edge"><title>1_fwatchdog#ServerID_5f846fd567&#45;wptbp&#45;&gt;10.1.80.93:43674#ServerID_OuterContainerID</title>
<path fill="none" stroke="black" d="M2805.34,-799.642C2809.67,-794.429 2813.7,-788.384 2816,-782 2824.31,-758.942 2814.19,-732.195 2803.69,-713.141"/>
<polygon fill="black" stroke="black" points="2806.67,-711.303 2798.58,-704.455 2800.64,-714.85 2806.67,-711.303"/>
<text text-anchor="middle" x="2861" y="-770.8" font-family="Times,serif" font-size="14.00">RESPONSE</text>
</g>
<!-- 10.1.80.93:58266#ServerID_OuterContainerID -->
<g id="node3" class="node"><title>10.1.80.93:58266#ServerID_OuterContainerID</title>
<polygon fill="none" stroke="black" points="4085,-705 3757.56,-687 4085,-669 4412.44,-687 4085,-705"/>
<text text-anchor="middle" x="4085" y="-683.3" font-family="Times,serif" font-size="14.00">10.1.80.93:58266#ServerID_OuterContainerID</text>
</g>
<!-- 1_fwatchdog#ServerID_6df85d7674&#45;kxx8d -->
<g id="node4" class="node"><title>1_fwatchdog#ServerID_6df85d7674&#45;kxx8d</title>
<polygon fill="none" stroke="black" points="6306,-574 5980,-574 5980,-538 6306,-538 6306,-574"/>
<text text-anchor="middle" x="6143" y="-552.3" font-family="Times,serif" font-size="14.00">1_fwatchdog#ServerID_6df85d7674&#45;kxx8d</text>
</g>
<!-- 10.1.80.93:58266#ServerID_OuterContainerID&#45;&gt;1_fwatchdog#ServerID_6df85d7674&#45;kxx8d -->
<g id="edge3" class="edge"><title>10.1.80.93:58266#ServerID_OuterContainerID&#45;&gt;1_fwatchdog#ServerID_6df85d7674&#45;kxx8d</title>
<path fill="none" stroke="black" d="M4269.06,-679.102C4551.47,-668.687 5108.74,-648.807 5582,-636 5624.88,-634.84 5925.98,-636.652 5968,-628 6015.85,-618.148 6067.28,-595.714 6101.91,-578.681"/>
<polygon fill="black" stroke="black" points="6103.83,-581.633 6111.22,-574.035 6100.71,-575.37 6103.83,-581.633"/>
<text text-anchor="middle" x="5602" y="-639.8" font-family="Times,serif" font-size="14.00">POST</text>
</g>
<!-- 1_fwatchdog#ServerID_62fde1e95276 -->
<g id="node5" class="node"><title>1_fwatchdog#ServerID_62fde1e95276</title>
<polygon fill="none" stroke="black" points="311.5,-705 16.5,-705 16.5,-669 311.5,-669 311.5,-705"/>
<text text-anchor="middle" x="164" y="-683.3" font-family="Times,serif" font-size="14.00">1_fwatchdog#ServerID_62fde1e95276</text>
</g>
<!-- 10.1.80.93:58266#ServerID_OuterContainerID&#45;&gt;1_fwatchdog#ServerID_62fde1e95276 -->
<g id="edge10" class="edge"><title>10.1.80.93:58266#ServerID_OuterContainerID&#45;&gt;1_fwatchdog#ServerID_62fde1e95276</title>
<path fill="none" stroke="black" d="M4031.45,-702.143C3965.61,-719.905 3850.15,-748.284 3749,-759 3654.31,-769.032 414.03,-779.315 321,-759 278.071,-749.626 232.847,-727.393 202.021,-710.093"/>
<polygon fill="black" stroke="black" points="203.749,-707.05 193.329,-705.131 200.278,-713.129 203.749,-707.05"/>
<text text-anchor="middle" x="2798" y="-770.8" font-family="Times,serif" font-size="14.00">read</text>
</g>
<!-- 1_fwatchdog#ServerID_6df85d7674&#45;kxx8d&#45;&gt;10.1.80.93:58266#ServerID_OuterContainerID -->
<g id="edge9" class="edge"><title>1_fwatchdog#ServerID_6df85d7674&#45;kxx8d&#45;&gt;10.1.80.93:58266#ServerID_OuterContainerID</title>
<path fill="none" stroke="black" d="M6110.16,-574.033C6075.75,-590.987 6019.61,-616.14 5968,-628 5817.8,-662.52 5775.96,-644.133 5622,-651 5180.22,-670.704 4666.49,-679.563 4358.98,-683.362"/>
<polygon fill="black" stroke="black" points="4358.54,-679.867 4348.59,-683.49 4358.63,-686.867 4358.54,-679.867"/>
<text text-anchor="middle" x="5967" y="-639.8" font-family="Times,serif" font-size="14.00">RESPONSE</text>
</g>
<!-- gateway:8080#ServerID_OuterContainerID -->
<g id="node7" class="node"><title>gateway:8080#ServerID_OuterContainerID</title>
<polygon fill="none" stroke="black" points="3436,-705 3131.52,-687 3436,-669 3740.48,-687 3436,-705"/>
<text text-anchor="middle" x="3436" y="-683.3" font-family="Times,serif" font-size="14.00">gateway:8080#ServerID_OuterContainerID</text>
</g>
<!-- 1_fwatchdog#ServerID_6df85d7674&#45;kxx8d&#45;&gt;gateway:8080#ServerID_OuterContainerID -->
<g id="edge6" class="edge"><title>1_fwatchdog#ServerID_6df85d7674&#45;kxx8d&#45;&gt;gateway:8080#ServerID_OuterContainerID</title>
<path fill="none" stroke="black" d="M6111.57,-574.042C6077.39,-591.532 6020.59,-617.612 5968,-628 5920.5,-637.382 4273.39,-634.357 4225,-636 3993.12,-643.873 3723.46,-663.149 3567.01,-675.336"/>
<polygon fill="black" stroke="black" points="3566.56,-671.86 3556.87,-676.129 3567.11,-678.839 3566.56,-671.86"/>
<text text-anchor="middle" x="4245" y="-639.8" font-family="Times,serif" font-size="14.00">POST</text>
</g>
<!-- 10.1.80.93:8080#ServerID_OuterContainerID -->
<g id="node8" class="node"><title>10.1.80.93:8080#ServerID_OuterContainerID</title>
<polygon fill="none" stroke="black" points="2123,-705 1804.1,-687 2123,-669 2441.9,-687 2123,-705"/>
<text text-anchor="middle" x="2123" y="-683.3" font-family="Times,serif" font-size="14.00">10.1.80.93:8080#ServerID_OuterContainerID</text>
</g>
<!-- 1_fwatchdog#ServerID_6df85d7674&#45;kxx8d&#45;&gt;10.1.80.93:8080#ServerID_OuterContainerID -->
<g id="edge8" class="edge"><title>1_fwatchdog#ServerID_6df85d7674&#45;kxx8d&#45;&gt;10.1.80.93:8080#ServerID_OuterContainerID</title>
<path fill="none" stroke="black" d="M6111.57,-574.049C6077.39,-591.547 6020.6,-617.632 5968,-628 5911.04,-639.228 3936.03,-634.242 3878,-636 3760.53,-639.56 3731.45,-646.756 3614,-651 3097.39,-669.666 2967.66,-651.619 2451,-669 2395.07,-670.882 2333.82,-673.819 2279.54,-676.726"/>
<polygon fill="black" stroke="black" points="2279.29,-673.235 2269.49,-677.268 2279.67,-680.224 2279.29,-673.235"/>
<text text-anchor="middle" x="3898" y="-639.8" font-family="Times,serif" font-size="14.00">POST</text>
</g>
<!-- localhost:3000#ServerID_62fde1e95276 -->
<g id="node6" class="node"><title>localhost:3000#ServerID_62fde1e95276</title>
<polygon fill="none" stroke="black" points="299,-574 15.7991,-556 299,-538 582.201,-556 299,-574"/>
<text text-anchor="middle" x="299" y="-552.3" font-family="Times,serif" font-size="14.00">localhost:3000#ServerID_62fde1e95276</text>
</g>
<!-- 1_fwatchdog#ServerID_62fde1e95276&#45;&gt;localhost:3000#ServerID_62fde1e95276 -->
<g id="edge4" class="edge"><title>1_fwatchdog#ServerID_62fde1e95276&#45;&gt;localhost:3000#ServerID_62fde1e95276</title>
<path fill="none" stroke="black" d="M181.927,-668.87C205.819,-646.039 248.18,-605.562 274.863,-580.064"/>
<polygon fill="black" stroke="black" points="277.462,-582.422 282.274,-572.983 272.626,-577.361 277.462,-582.422"/>
<text text-anchor="middle" x="235" y="-639.8" font-family="Times,serif" font-size="14.00">write</text>
</g>
<!-- gateway:8080#ServerID_OuterContainerID&#45;&gt;1_fwatchdog#ServerID_6df85d7674&#45;kxx8d -->
<g id="edge5" class="edge"><title>gateway:8080#ServerID_OuterContainerID&#45;&gt;1_fwatchdog#ServerID_6df85d7674&#45;kxx8d</title>
<path fill="none" stroke="black" d="M3578.53,-677.419C3631.98,-674.422 3693.26,-671.249 3749,-669 4304.3,-646.594 4443.33,-645.628 4999,-636 5052.83,-635.067 5915.2,-638.529 5968,-628 6016.05,-618.417 6067.64,-595.826 6102.26,-578.68"/>
<polygon fill="black" stroke="black" points="6104.2,-581.624 6111.56,-574.004 6101.05,-575.37 6104.2,-581.624"/>
<text text-anchor="middle" x="5041" y="-639.8" font-family="Times,serif" font-size="14.00">RESPONSE</text>
</g>
<!-- 10.1.80.93:8080#ServerID_OuterContainerID&#45;&gt;1_fwatchdog#ServerID_6df85d7674&#45;kxx8d -->
<g id="edge7" class="edge"><title>10.1.80.93:8080#ServerID_OuterContainerID&#45;&gt;1_fwatchdog#ServerID_6df85d7674&#45;kxx8d</title>
<path fill="none" stroke="black" d="M2271.54,-677.341C2327.75,-674.317 2392.31,-671.146 2451,-669 2826.39,-655.277 2920.7,-667.019 3296,-651 3400.12,-646.556 3425.85,-639.506 3530,-636 3563.84,-634.861 5934.78,-634.54 5968,-628 6016.08,-618.537 6067.66,-595.925 6102.27,-578.742"/>
<polygon fill="black" stroke="black" points="6104.22,-581.683 6111.57,-574.055 6101.06,-575.432 6104.22,-581.683"/>
<text text-anchor="middle" x="3572" y="-639.8" font-family="Times,serif" font-size="14.00">RESPONSE</text>
</g>
<!-- 10.1.80.1:11098#ServerID_OuterContainerID -->
<g id="node26" class="node"><title>10.1.80.1:11098#ServerID_OuterContainerID</title>
<polygon fill="none" stroke="black" points="2016,-574 1697.1,-556 2016,-538 2334.9,-556 2016,-574"/>
<text text-anchor="middle" x="2016" y="-552.3" font-family="Times,serif" font-size="14.00">10.1.80.1:11098#ServerID_OuterContainerID</text>
</g>
<!-- 10.1.80.93:8080#ServerID_OuterContainerID&#45;&gt;10.1.80.1:11098#ServerID_OuterContainerID -->
<g id="edge32" class="edge"><title>10.1.80.93:8080#ServerID_OuterContainerID&#45;&gt;10.1.80.1:11098#ServerID_OuterContainerID</title>
<path fill="none" stroke="black" d="M2045.65,-673.244C2034.44,-668.094 2024.26,-660.935 2017,-651 2002.97,-631.815 2004.58,-604.041 2008.57,-583.657"/>
<polygon fill="black" stroke="black" points="2012.02,-584.281 2010.81,-573.756 2005.19,-582.74 2012.02,-584.281"/>
<text text-anchor="middle" x="2059" y="-639.8" font-family="Times,serif" font-size="14.00">RESPONSE</text>
</g>
<!-- 10.0.88.125:31112#ServerID_OuterContainerID -->
<g id="node27" class="node"><title>10.0.88.125:31112#ServerID_OuterContainerID</title>
<polygon fill="none" stroke="black" points="2688,-574 2352.52,-556 2688,-538 3023.48,-556 2688,-574"/>
<text text-anchor="middle" x="2688" y="-552.3" font-family="Times,serif" font-size="14.00">10.0.88.125:31112#ServerID_OuterContainerID</text>
</g>
<!-- 10.1.80.93:8080#ServerID_OuterContainerID&#45;&gt;10.0.88.125:31112#ServerID_OuterContainerID -->
<g id="edge34" class="edge"><title>10.1.80.93:8080#ServerID_OuterContainerID&#45;&gt;10.0.88.125:31112#ServerID_OuterContainerID</title>
<path fill="none" stroke="black" d="M2182.93,-672.317C2288.1,-648.304 2505.36,-598.7 2617.54,-573.087"/>
<polygon fill="black" stroke="black" points="2618.44,-576.473 2627.41,-570.835 2616.88,-569.648 2618.44,-576.473"/>
<text text-anchor="middle" x="2381" y="-639.8" font-family="Times,serif" font-size="14.00">RESPONSE</text>
</g>
<!-- 15_node#ServerID_62fde1e95276 -->
<g id="node9" class="node"><title>15_node#ServerID_62fde1e95276</title>
<polygon fill="none" stroke="black" points="1089.5,-574 826.5,-574 826.5,-538 1089.5,-538 1089.5,-574"/>
<text text-anchor="middle" x="958" y="-552.3" font-family="Times,serif" font-size="14.00">15_node#ServerID_62fde1e95276</text>
</g>
<!-- 15_node#ServerID_62fde1e95276&#45;&gt;gateway:8080#ServerID_OuterContainerID -->
<g id="edge18" class="edge"><title>15_node#ServerID_62fde1e95276&#45;&gt;gateway:8080#ServerID_OuterContainerID</title>
<path fill="none" stroke="black" d="M987.559,-574.129C1019.16,-591.423 1071.31,-617.091 1120,-628 1120.7,-628.157 1948.28,-650.984 1949,-651 2470.72,-662.236 2601.48,-650.846 3123,-669 3176.16,-670.85 3234.34,-673.766 3285.98,-676.663"/>
<polygon fill="black" stroke="black" points="3286.03,-680.172 3296.21,-677.242 3286.42,-673.183 3286.03,-680.172"/>
<text text-anchor="middle" x="1978" y="-639.8" font-family="Times,serif" font-size="14.00">connect</text>
</g>
<!-- pipe:[18737782]#ServerID_62fde1e95276 -->
<g id="node10" class="node"><title>pipe:[18737782]#ServerID_62fde1e95276</title>
<ellipse fill="none" stroke="black" cx="899" cy="-469" rx="208.763" ry="18"/>
<text text-anchor="middle" x="899" y="-465.3" font-family="Times,serif" font-size="14.00">pipe:[18737782]#ServerID_62fde1e95276</text>
</g>
<!-- 15_node#ServerID_62fde1e95276&#45;&gt;pipe:[18737782]#ServerID_62fde1e95276 -->
<g id="edge11" class="edge"><title>15_node#ServerID_62fde1e95276&#45;&gt;pipe:[18737782]#ServerID_62fde1e95276</title>
<path fill="none" stroke="black" d="M946.06,-537.799C937.664,-525.702 926.282,-509.305 916.816,-495.667"/>
<polygon fill="black" stroke="black" points="919.499,-493.395 910.922,-487.175 913.749,-497.386 919.499,-493.395"/>
<text text-anchor="middle" x="952" y="-508.8" font-family="Times,serif" font-size="14.00">write</text>
</g>
<!-- 10.152.183.10:53#ServerID_OuterContainerID -->
<g id="node13" class="node"><title>10.152.183.10:53#ServerID_OuterContainerID</title>
<polygon fill="none" stroke="black" points="1459,-705 1131.56,-687 1459,-669 1786.44,-687 1459,-705"/>
<text text-anchor="middle" x="1459" y="-683.3" font-family="Times,serif" font-size="14.00">10.152.183.10:53#ServerID_OuterContainerID</text>
</g>
<!-- 15_node#ServerID_62fde1e95276&#45;&gt;10.152.183.10:53#ServerID_OuterContainerID -->
<g id="edge14" class="edge"><title>15_node#ServerID_62fde1e95276&#45;&gt;10.152.183.10:53#ServerID_OuterContainerID</title>
<path fill="none" stroke="black" d="M990.613,-574.123C1022.71,-590.288 1073.53,-614.068 1120,-628 1193.03,-649.894 1277.56,-664.377 1343.93,-673.395"/>
<polygon fill="black" stroke="black" points="1343.63,-676.886 1354.01,-674.741 1344.56,-669.948 1343.63,-676.886"/>
<text text-anchor="middle" x="1236.5" y="-639.8" font-family="Times,serif" font-size="14.00">sendto</text>
</g>
<!-- /etc/hosts#ServerID_62fde1e95276 -->
<g id="node11" class="node"><title>/etc/hosts#ServerID_62fde1e95276</title>
<ellipse fill="none" stroke="black" cx="507" cy="-687" rx="177.369" ry="18"/>
<text text-anchor="middle" x="507" y="-683.3" font-family="Times,serif" font-size="14.00">/etc/hosts#ServerID_62fde1e95276</text>
</g>
<!-- /etc/hosts#ServerID_62fde1e95276&#45;&gt;15_node#ServerID_62fde1e95276 -->
<g id="edge12" class="edge"><title>/etc/hosts#ServerID_62fde1e95276&#45;&gt;15_node#ServerID_62fde1e95276</title>
<path fill="none" stroke="black" d="M563.208,-669.923C645.598,-646.357 799.043,-602.467 888.433,-576.898"/>
<polygon fill="black" stroke="black" points="889.557,-580.217 898.209,-574.102 887.632,-573.487 889.557,-580.217"/>
<text text-anchor="middle" x="695.5" y="-639.8" font-family="Times,serif" font-size="14.00">read</text>
</g>
<!-- /etc/resolv.conf#ServerID_62fde1e95276 -->
<g id="node12" class="node"><title>/etc/resolv.conf#ServerID_62fde1e95276</title>
<ellipse fill="none" stroke="black" cx="905" cy="-687" rx="202.564" ry="18"/>
<text text-anchor="middle" x="905" y="-683.3" font-family="Times,serif" font-size="14.00">/etc/resolv.conf#ServerID_62fde1e95276</text>
</g>
<!-- /etc/resolv.conf#ServerID_62fde1e95276&#45;&gt;15_node#ServerID_62fde1e95276 -->
<g id="edge13" class="edge"><title>/etc/resolv.conf#ServerID_62fde1e95276&#45;&gt;15_node#ServerID_62fde1e95276</title>
<path fill="none" stroke="black" d="M912.038,-668.87C920.987,-647.088 936.536,-609.244 947.042,-583.67"/>
<polygon fill="black" stroke="black" points="950.37,-584.781 950.933,-574.201 943.895,-582.121 950.37,-584.781"/>
<text text-anchor="middle" x="942.5" y="-639.8" font-family="Times,serif" font-size="14.00">read</text>
</g>
<!-- 10.152.183.10:53#ServerID_OuterContainerID&#45;&gt;15_node#ServerID_62fde1e95276 -->
<g id="edge15" class="edge"><title>10.152.183.10:53#ServerID_OuterContainerID&#45;&gt;15_node#ServerID_62fde1e95276</title>
<path fill="none" stroke="black" d="M1413.28,-671.49C1374.3,-659.78 1316.56,-643.986 1265,-636 1201.22,-626.12 1182.78,-642.971 1120,-628 1075.96,-617.498 1028.91,-595.541 996.926,-578.807"/>
<polygon fill="black" stroke="black" points="998.386,-575.62 987.913,-574.021 995.103,-581.802 998.386,-575.62"/>
<text text-anchor="middle" x="1369" y="-639.8" font-family="Times,serif" font-size="14.00">recvfrom</text>
</g>
<!-- localhost:3000#ServerID_d4490627de97 -->
<g id="node15" class="node"><title>localhost:3000#ServerID_d4490627de97</title>
<polygon fill="none" stroke="black" points="5166,-487 4878.11,-469 5166,-451 5453.89,-469 5166,-487"/>
<text text-anchor="middle" x="5166" y="-465.3" font-family="Times,serif" font-size="14.00">localhost:3000#ServerID_d4490627de97</text>
</g>
<!-- 1_fwatchdog#ServerID_d4490627de97&#45;&gt;localhost:3000#ServerID_d4490627de97 -->
<g id="edge16" class="edge"><title>1_fwatchdog#ServerID_d4490627de97&#45;&gt;localhost:3000#ServerID_d4490627de97</title>
<path fill="none" stroke="black" d="M4895.19,-537.901C4955.42,-522.801 5042.59,-500.943 5101.64,-486.138"/>
<polygon fill="black" stroke="black" points="5102.74,-489.47 5111.59,-483.642 5101.04,-482.68 5102.74,-489.47"/>
<text text-anchor="middle" x="5035" y="-508.8" font-family="Times,serif" font-size="14.00">write</text>
</g>
<!-- pipe:[18738434]#ServerID_d4490627de97 -->
<g id="node25" class="node"><title>pipe:[18738434]#ServerID_d4490627de97</title>
<ellipse fill="none" stroke="black" cx="4648" cy="-469" rx="211.762" ry="18"/>
<text text-anchor="middle" x="4648" y="-465.3" font-family="Times,serif" font-size="14.00">pipe:[18738434]#ServerID_d4490627de97</text>
</g>
<!-- 1_fwatchdog#ServerID_d4490627de97&#45;&gt;pipe:[18738434]#ServerID_d4490627de97 -->
<g id="edge31" class="edge"><title>1_fwatchdog#ServerID_d4490627de97&#45;&gt;pipe:[18738434]#ServerID_d4490627de97</title>
<path fill="none" stroke="black" d="M4790.78,-537.799C4762.45,-524.346 4722.92,-505.577 4692.64,-491.197"/>
<polygon fill="black" stroke="black" points="4694.09,-488.013 4683.56,-486.885 4691.09,-494.337 4694.09,-488.013"/>
<text text-anchor="middle" x="4767" y="-508.8" font-family="Times,serif" font-size="14.00">write</text>
</g>
<!-- localhost:3000#ServerID_d4490627de97&#45;&gt;1_fwatchdog#ServerID_d4490627de97 -->
<g id="edge30" class="edge"><title>localhost:3000#ServerID_d4490627de97&#45;&gt;1_fwatchdog#ServerID_d4490627de97</title>
<path fill="none" stroke="black" d="M5138.43,-485.419C5117.1,-496.686 5086.49,-511.436 5058,-520 5035.21,-526.85 5010.73,-532.398 4986.54,-536.882"/>
<polygon fill="black" stroke="black" points="4985.79,-533.461 4976.56,-538.675 4987.03,-540.351 4985.79,-533.461"/>
<text text-anchor="middle" x="5113.5" y="-508.8" font-family="Times,serif" font-size="14.00">read</text>
</g>
<!-- 10_node#ServerID_d4490627de97 -->
<g id="node16" class="node"><title>10_node#ServerID_d4490627de97</title>
<polygon fill="none" stroke="black" points="5300,-400 5032,-400 5032,-364 5300,-364 5300,-400"/>
<text text-anchor="middle" x="5166" y="-378.3" font-family="Times,serif" font-size="14.00">10_node#ServerID_d4490627de97</text>
</g>
<!-- localhost:3000#ServerID_d4490627de97&#45;&gt;10_node#ServerID_d4490627de97 -->
<g id="edge17" class="edge"><title>localhost:3000#ServerID_d4490627de97&#45;&gt;10_node#ServerID_d4490627de97</title>
<path fill="none" stroke="black" d="M5166,-450.799C5166,-439.163 5166,-423.548 5166,-410.237"/>
<polygon fill="black" stroke="black" points="5169.5,-410.175 5166,-400.175 5162.5,-410.175 5169.5,-410.175"/>
<text text-anchor="middle" x="5182.5" y="-421.8" font-family="Times,serif" font-size="14.00">read</text>
</g>
<!-- pipe:[18738585]#ServerID_d4490627de97 -->
<g id="node17" class="node"><title>pipe:[18738585]#ServerID_d4490627de97</title>
<ellipse fill="none" stroke="black" cx="4648" cy="-295" rx="211.762" ry="18"/>
<text text-anchor="middle" x="4648" y="-291.3" font-family="Times,serif" font-size="14.00">pipe:[18738585]#ServerID_d4490627de97</text>
</g>
<!-- 10_node#ServerID_d4490627de97&#45;&gt;pipe:[18738585]#ServerID_d4490627de97 -->
<g id="edge20" class="edge"><title>10_node#ServerID_d4490627de97&#45;&gt;pipe:[18738585]#ServerID_d4490627de97</title>
<path fill="none" stroke="black" d="M5062.11,-363.952C4971.58,-349.098 4841.03,-327.676 4750.83,-312.873"/>
<polygon fill="black" stroke="black" points="4751.29,-309.402 4740.85,-311.237 4750.16,-316.31 4751.29,-309.402"/>
<text text-anchor="middle" x="4957" y="-334.8" font-family="Times,serif" font-size="14.00">write</text>
</g>
<!-- /dev/null#ServerID_d4490627de97 -->
<g id="node18" class="node"><title>/dev/null#ServerID_d4490627de97</title>
<ellipse fill="none" stroke="black" cx="5053" cy="-295" rx="174.669" ry="18"/>
<text text-anchor="middle" x="5053" y="-291.3" font-family="Times,serif" font-size="14.00">/dev/null#ServerID_d4490627de97</text>
</g>
<!-- 10_node#ServerID_d4490627de97&#45;&gt;/dev/null#ServerID_d4490627de97 -->
<g id="edge29" class="edge"><title>10_node#ServerID_d4490627de97&#45;&gt;/dev/null#ServerID_d4490627de97</title>
<path fill="none" stroke="black" d="M5090.54,-363.915C5081.38,-359.301 5072.85,-353.442 5066,-346 5060.28,-339.784 5057,-331.37 5055.15,-323.219"/>
<polygon fill="black" stroke="black" points="5058.59,-322.512 5053.5,-313.22 5051.68,-323.658 5058.59,-322.512"/>
<text text-anchor="middle" x="5085" y="-334.8" font-family="Times,serif" font-size="14.00">write</text>
</g>
<!-- pipe:[18738640]#ServerID_d4490627de97 -->
<g id="node19" class="node"><title>pipe:[18738640]#ServerID_d4490627de97</title>
<ellipse fill="none" stroke="black" cx="5744" cy="-295" rx="211.762" ry="18"/>
<text text-anchor="middle" x="5744" y="-291.3" font-family="Times,serif" font-size="14.00">pipe:[18738640]#ServerID_d4490627de97</text>
</g>
<!-- 10_node#ServerID_d4490627de97&#45;&gt;pipe:[18738640]#ServerID_d4490627de97 -->
<g id="edge27" class="edge"><title>10_node#ServerID_d4490627de97&#45;&gt;pipe:[18738640]#ServerID_d4490627de97</title>
<path fill="none" stroke="black" d="M5281.92,-363.952C5384.14,-348.92 5532.09,-327.163 5632.85,-312.345"/>
<polygon fill="black" stroke="black" points="5633.37,-315.806 5642.76,-310.889 5632.36,-308.881 5633.37,-315.806"/>
<text text-anchor="middle" x="5508" y="-334.8" font-family="Times,serif" font-size="14.00">write</text>
</g>
<!-- 29_node#ServerID_d4490627de97 -->
<g id="node22" class="node"><title>29_node#ServerID_d4490627de97</title>
<polygon fill="none" stroke="black" points="5514,-313 5246,-313 5246,-277 5514,-277 5514,-313"/>
<text text-anchor="middle" x="5380" y="-291.3" font-family="Times,serif" font-size="14.00">29_node#ServerID_d4490627de97</text>
</g>
<!-- 10_node#ServerID_d4490627de97&#45;&gt;29_node#ServerID_d4490627de97 -->
<g id="edge25" class="edge"><title>10_node#ServerID_d4490627de97&#45;&gt;29_node#ServerID_d4490627de97</title>
<path fill="none" stroke="black" d="M5209.05,-363.901C5243.22,-350.328 5291.14,-331.295 5327.55,-316.832"/>
<polygon fill="black" stroke="black" points="5329.02,-320.016 5337.02,-313.071 5326.43,-313.51 5329.02,-320.016"/>
<text text-anchor="middle" x="5300" y="-334.8" font-family="Times,serif" font-size="14.00">fork</text>
</g>
<!-- /dev/null#ServerID_d4490627de97&#45;&gt;10_node#ServerID_d4490627de97 -->
<g id="edge21" class="edge"><title>/dev/null#ServerID_d4490627de97&#45;&gt;10_node#ServerID_d4490627de97</title>
<path fill="none" stroke="black" d="M5081.22,-312.863C5089.98,-318.386 5099.55,-324.722 5108,-331 5118.75,-338.992 5130.03,-348.44 5139.75,-356.96"/>
<polygon fill="black" stroke="black" points="5137.7,-359.822 5147.5,-363.846 5142.35,-354.588 5137.7,-359.822"/>
<text text-anchor="middle" x="5142.5" y="-334.8" font-family="Times,serif" font-size="14.00">read</text>
</g>
<!-- pipe:[18738640]#ServerID_d4490627de97&#45;&gt;10_node#ServerID_d4490627de97 -->
<g id="edge22" class="edge"><title>pipe:[18738640]#ServerID_d4490627de97&#45;&gt;10_node#ServerID_d4490627de97</title>
<path fill="none" stroke="black" d="M5694.99,-312.533C5659.79,-323.746 5610.97,-337.944 5567,-346 5482.63,-361.456 5386.98,-370.137 5310.27,-374.986"/>
<polygon fill="black" stroke="black" points="5309.82,-371.507 5300.05,-375.617 5310.25,-378.494 5309.82,-371.507"/>
<text text-anchor="middle" x="5647.5" y="-334.8" font-family="Times,serif" font-size="14.00">read</text>
</g>
<!-- 29_sh#ServerID_d4490627de97 -->
<g id="node20" class="node"><title>29_sh#ServerID_d4490627de97</title>
<polygon fill="none" stroke="black" points="5505,-226 5255,-226 5255,-190 5505,-190 5505,-226"/>
<text text-anchor="middle" x="5380" y="-204.3" font-family="Times,serif" font-size="14.00">29_sh#ServerID_d4490627de97</text>
</g>
<!-- 30_sh#ServerID_d4490627de97 -->
<g id="node21" class="node"><title>30_sh#ServerID_d4490627de97</title>
<polygon fill="none" stroke="black" points="5404,-139 5154,-139 5154,-103 5404,-103 5404,-139"/>
<text text-anchor="middle" x="5279" y="-117.3" font-family="Times,serif" font-size="14.00">30_sh#ServerID_d4490627de97</text>
</g>
<!-- 29_sh#ServerID_d4490627de97&#45;&gt;30_sh#ServerID_d4490627de97 -->
<g id="edge23" class="edge"><title>29_sh#ServerID_d4490627de97&#45;&gt;30_sh#ServerID_d4490627de97</title>
<path fill="none" stroke="black" d="M5359.56,-189.799C5344.5,-177.126 5323.84,-159.734 5307.21,-145.738"/>
<polygon fill="black" stroke="black" points="5309.31,-142.937 5299.41,-139.175 5304.81,-148.292 5309.31,-142.937"/>
<text text-anchor="middle" x="5350" y="-160.8" font-family="Times,serif" font-size="14.00">fork</text>
</g>
<!-- /home/app/3.txt#ServerID_d4490627de97 -->
<g id="node24" class="node"><title>/home/app/3.txt#ServerID_d4490627de97</title>
<ellipse fill="none" stroke="black" cx="5630" cy="-121" rx="207.963" ry="18"/>
<text text-anchor="middle" x="5630" y="-117.3" font-family="Times,serif" font-size="14.00">/home/app/3.txt#ServerID_d4490627de97</text>
</g>
<!-- 29_sh#ServerID_d4490627de97&#45;&gt;/home/app/3.txt#ServerID_d4490627de97 -->
<g id="edge28" class="edge"><title>29_sh#ServerID_d4490627de97&#45;&gt;/home/app/3.txt#ServerID_d4490627de97</title>
<path fill="none" stroke="black" d="M5430.29,-189.901C5471.03,-176.049 5528.5,-156.509 5571.34,-141.945"/>
<polygon fill="black" stroke="black" points="5572.73,-145.17 5581.07,-138.637 5570.47,-138.543 5572.73,-145.17"/>
<text text-anchor="middle" x="5538" y="-160.8" font-family="Times,serif" font-size="14.00">write</text>
</g>
<!-- 30_touch#ServerID_d4490627de97 -->
<g id="node23" class="node"><title>30_touch#ServerID_d4490627de97</title>
<polygon fill="none" stroke="black" points="5416,-52 5142,-52 5142,-16 5416,-16 5416,-52"/>
<text text-anchor="middle" x="5279" y="-30.3" font-family="Times,serif" font-size="14.00">30_touch#ServerID_d4490627de97</text>
</g>
<!-- 30_sh#ServerID_d4490627de97&#45;&gt;30_touch#ServerID_d4490627de97 -->
<g id="edge26" class="edge"><title>30_sh#ServerID_d4490627de97&#45;&gt;30_touch#ServerID_d4490627de97</title>
<path fill="none" stroke="black" d="M5279,-102.799C5279,-91.1626 5279,-75.5479 5279,-62.2368"/>
<polygon fill="black" stroke="black" points="5282.5,-62.1754 5279,-52.1754 5275.5,-62.1755 5282.5,-62.1754"/>
<text text-anchor="middle" x="5304" y="-73.8" font-family="Times,serif" font-size="14.00">execve</text>
</g>
<!-- 29_node#ServerID_d4490627de97&#45;&gt;29_sh#ServerID_d4490627de97 -->
<g id="edge24" class="edge"><title>29_node#ServerID_d4490627de97&#45;&gt;29_sh#ServerID_d4490627de97</title>
<path fill="none" stroke="black" d="M5380,-276.799C5380,-265.163 5380,-249.548 5380,-236.237"/>
<polygon fill="black" stroke="black" points="5383.5,-236.175 5380,-226.175 5376.5,-236.175 5383.5,-236.175"/>
<text text-anchor="middle" x="5405" y="-247.8" font-family="Times,serif" font-size="14.00">execve</text>
</g>
<!-- 10.1.80.1:11098#ServerID_OuterContainerID&#45;&gt;10.1.80.93:8080#ServerID_OuterContainerID -->
<g id="edge33" class="edge"><title>10.1.80.1:11098#ServerID_OuterContainerID&#45;&gt;10.1.80.93:8080#ServerID_OuterContainerID</title>
<path fill="none" stroke="black" d="M2037.53,-572.876C2056.26,-587.569 2083.13,-610.882 2101,-636 2106.08,-643.143 2110.36,-651.645 2113.75,-659.594"/>
<polygon fill="black" stroke="black" points="2110.5,-660.889 2117.45,-668.887 2117.01,-658.302 2110.5,-660.889"/>
<text text-anchor="middle" x="2130" y="-639.8" font-family="Times,serif" font-size="14.00">POST</text>
</g>
</g>
</svg>
