<?xml version="1.0" encoding="UTF-8" standalone="no"?>
<!DOCTYPE svg PUBLIC "-//W3C//DTD SVG 1.1//EN"
 "http://www.w3.org/Graphics/SVG/1.1/DTD/svg11.dtd">
<!-- Generated by graphviz version 2.38.0 (20140413.2041)
 -->
<!-- Title: G Pages: 1 -->
<svg width="4739pt" height="1032pt"
 viewBox="0.00 0.00 4739.00 1032.00" xmlns="http://www.w3.org/2000/svg" xmlns:xlink="http://www.w3.org/1999/xlink">
<g id="graph0" class="graph" transform="scale(1 1) rotate(0) translate(4 1028)">
<title>G</title>
<polygon fill="white" stroke="none" points="-4,4 -4,-1028 4735,-1028 4735,4 -4,4"/>
<g id="clust1" class="cluster"><title>clusterServerID_2347d2f455dd</title>
<polygon fill="none" stroke="black" points="1963,-746 1963,-1016 3351,-1016 3351,-746 1963,-746"/>
<text text-anchor="middle" x="2657" y="-1000.8" font-family="Times,serif" font-size="14.00">clusterServerID_2347d2f455dd</text>
</g>
<g id="clust2" class="cluster"><title>clusterServerID_5f846fd567&#45;g8dn6</title>
<polygon fill="none" stroke="black" points="3312,-530 3312,-605 3652,-605 3652,-530 3312,-530"/>
<text text-anchor="middle" x="3482" y="-589.8" font-family="Times,serif" font-size="14.00">clusterServerID_5f846fd567&#45;g8dn6</text>
</g>
<g id="clust3" class="cluster"><title>clusterServerID_6df85d7674&#45;f2xxt</title>
<polygon fill="none" stroke="black" points="1451,-746 1451,-821 1787,-821 1787,-746 1451,-746"/>
<text text-anchor="middle" x="1619" y="-805.8" font-family="Times,serif" font-size="14.00">clusterServerID_6df85d7674&#45;f2xxt</text>
</g>
<g id="clust4" class="cluster"><title>clusterServerID_7cf8268e6ab5</title>
<polygon fill="none" stroke="black" points="3660,-8 3660,-605 4723,-605 4723,-8 3660,-8"/>
<text text-anchor="middle" x="4191.5" y="-589.8" font-family="Times,serif" font-size="14.00">clusterServerID_7cf8268e6ab5</text>
</g>
<g id="clust5" class="cluster"><title>clusterServerID_OuterContainerID</title>
<polygon fill="none" stroke="black" points="8,-530 8,-713 3304,-713 3304,-530 8,-530"/>
<text text-anchor="middle" x="1656" y="-697.8" font-family="Times,serif" font-size="14.00">clusterServerID_OuterContainerID</text>
</g>
<!-- 1_fwatchdog#ServerID_6df85d7674&#45;f2xxt -->
<g id="node1" class="node"><title>1_fwatchdog#ServerID_6df85d7674&#45;f2xxt</title>
<polygon fill="none" stroke="black" points="1779,-790 1459,-790 1459,-754 1779,-754 1779,-790"/>
<text text-anchor="middle" x="1619" y="-768.3" font-family="Times,serif" font-size="14.00">1_fwatchdog#ServerID_6df85d7674&#45;f2xxt</text>
</g>
<!-- gateway:8080#ServerID_OuterContainerID -->
<g id="node2" class="node"><title>gateway:8080#ServerID_OuterContainerID</title>
<polygon fill="none" stroke="black" points="1648,-682 1343.52,-664 1648,-646 1952.48,-664 1648,-682"/>
<text text-anchor="middle" x="1648" y="-660.3" font-family="Times,serif" font-size="14.00">gateway:8080#ServerID_OuterContainerID</text>
</g>
<!-- 1_fwatchdog#ServerID_6df85d7674&#45;f2xxt&#45;&gt;gateway:8080#ServerID_OuterContainerID -->
<g id="edge1" class="edge"><title>1_fwatchdog#ServerID_6df85d7674&#45;f2xxt&#45;&gt;gateway:8080#ServerID_OuterContainerID</title>
<path fill="none" stroke="black" d="M1598.94,-753.571C1590.71,-744.235 1584.13,-732.348 1589,-721 1594.64,-707.868 1605.04,-696.367 1615.56,-687.26"/>
<polygon fill="black" stroke="black" points="1617.99,-689.795 1623.55,-680.775 1613.58,-684.361 1617.99,-689.795"/>
<text text-anchor="middle" x="1609" y="-724.8" font-family="Times,serif" font-size="14.00">POST</text>
</g>
<!-- 10.1.80.93:8080#ServerID_OuterContainerID -->
<g id="node3" class="node"><title>10.1.80.93:8080#ServerID_OuterContainerID</title>
<polygon fill="none" stroke="black" points="335,-682 16.1049,-664 335,-646 653.895,-664 335,-682"/>
<text text-anchor="middle" x="335" y="-660.3" font-family="Times,serif" font-size="14.00">10.1.80.93:8080#ServerID_OuterContainerID</text>
</g>
<!-- 1_fwatchdog#ServerID_6df85d7674&#45;f2xxt&#45;&gt;10.1.80.93:8080#ServerID_OuterContainerID -->
<g id="edge6" class="edge"><title>1_fwatchdog#ServerID_6df85d7674&#45;f2xxt&#45;&gt;10.1.80.93:8080#ServerID_OuterContainerID</title>
<path fill="none" stroke="black" d="M1459,-755.157C1337.14,-743.728 1165.16,-728.962 1014,-721 858.175,-712.793 818.49,-726.1 663,-713 578.451,-705.877 482.5,-691.038 416.322,-679.733"/>
<polygon fill="black" stroke="black" points="416.82,-676.268 406.371,-678.022 415.633,-683.166 416.82,-676.268"/>
<text text-anchor="middle" x="1251" y="-724.8" font-family="Times,serif" font-size="14.00">POST</text>
</g>
<!-- 10.1.80.93:55880#ServerID_OuterContainerID -->
<g id="node4" class="node"><title>10.1.80.93:55880#ServerID_OuterContainerID</title>
<polygon fill="none" stroke="black" points="2297,-682 1969.56,-664 2297,-646 2624.44,-664 2297,-682"/>
<text text-anchor="middle" x="2297" y="-660.3" font-family="Times,serif" font-size="14.00">10.1.80.93:55880#ServerID_OuterContainerID</text>
</g>
<!-- 1_fwatchdog#ServerID_6df85d7674&#45;f2xxt&#45;&gt;10.1.80.93:55880#ServerID_OuterContainerID -->
<g id="edge4" class="edge"><title>1_fwatchdog#ServerID_6df85d7674&#45;f2xxt&#45;&gt;10.1.80.93:55880#ServerID_OuterContainerID</title>
<path fill="none" stroke="black" d="M1779.25,-754.391C1824.52,-749.133 1873.77,-742.878 1919,-736 2024.98,-719.885 2146.69,-696.059 2222.73,-680.532"/>
<polygon fill="black" stroke="black" points="2223.59,-683.927 2232.69,-678.492 2222.19,-677.069 2223.59,-683.927"/>
<text text-anchor="middle" x="2045" y="-724.8" font-family="Times,serif" font-size="14.00">RESPONSE</text>
</g>
<!-- gateway:8080#ServerID_OuterContainerID&#45;&gt;1_fwatchdog#ServerID_6df85d7674&#45;f2xxt -->
<g id="edge3" class="edge"><title>gateway:8080#ServerID_OuterContainerID&#45;&gt;1_fwatchdog#ServerID_6df85d7674&#45;f2xxt</title>
<path fill="none" stroke="black" d="M1643.55,-681.95C1639.75,-696.347 1634.1,-717.553 1629,-736 1628.27,-738.649 1627.49,-741.409 1626.72,-744.165"/>
<polygon fill="black" stroke="black" points="1623.31,-743.35 1623.94,-753.926 1630.04,-745.265 1623.31,-743.35"/>
<text text-anchor="middle" x="1675" y="-724.8" font-family="Times,serif" font-size="14.00">RESPONSE</text>
</g>
<!-- 10.1.80.93:8080#ServerID_OuterContainerID&#45;&gt;1_fwatchdog#ServerID_6df85d7674&#45;f2xxt -->
<g id="edge2" class="edge"><title>10.1.80.93:8080#ServerID_OuterContainerID&#45;&gt;1_fwatchdog#ServerID_6df85d7674&#45;f2xxt</title>
<path fill="none" stroke="black" d="M410.006,-677.824C476.341,-688.724 575.843,-703.995 663,-713 937.201,-741.33 1257.18,-757.291 1448.66,-765.023"/>
<polygon fill="black" stroke="black" points="1448.68,-768.526 1458.81,-765.43 1448.96,-761.532 1448.68,-768.526"/>
<text text-anchor="middle" x="968" y="-724.8" font-family="Times,serif" font-size="14.00">RESPONSE</text>
</g>
<!-- 10.1.80.1:54181#ServerID_OuterContainerID -->
<g id="node24" class="node"><title>10.1.80.1:54181#ServerID_OuterContainerID</title>
<polygon fill="none" stroke="black" points="335,-574 16.1049,-556 335,-538 653.895,-556 335,-574"/>
<text text-anchor="middle" x="335" y="-552.3" font-family="Times,serif" font-size="14.00">10.1.80.1:54181#ServerID_OuterContainerID</text>
</g>
<!-- 10.1.80.93:8080#ServerID_OuterContainerID&#45;&gt;10.1.80.1:54181#ServerID_OuterContainerID -->
<g id="edge32" class="edge"><title>10.1.80.93:8080#ServerID_OuterContainerID&#45;&gt;10.1.80.1:54181#ServerID_OuterContainerID</title>
<path fill="none" stroke="black" d="M298.241,-647.99C290.168,-642.888 282.649,-636.31 278,-628 267.985,-610.099 282.769,-592.102 299.784,-578.707"/>
<polygon fill="black" stroke="black" points="302.224,-581.258 308.218,-572.522 298.084,-575.614 302.224,-581.258"/>
<text text-anchor="middle" x="320" y="-616.8" font-family="Times,serif" font-size="14.00">RESPONSE</text>
</g>
<!-- 10.0.88.125:31112#ServerID_OuterContainerID -->
<g id="node25" class="node"><title>10.0.88.125:31112#ServerID_OuterContainerID</title>
<polygon fill="none" stroke="black" points="1007,-574 671.515,-556 1007,-538 1342.48,-556 1007,-574"/>
<text text-anchor="middle" x="1007" y="-552.3" font-family="Times,serif" font-size="14.00">10.0.88.125:31112#ServerID_OuterContainerID</text>
</g>
<!-- 10.1.80.93:8080#ServerID_OuterContainerID&#45;&gt;10.0.88.125:31112#ServerID_OuterContainerID -->
<g id="edge33" class="edge"><title>10.1.80.93:8080#ServerID_OuterContainerID&#45;&gt;10.0.88.125:31112#ServerID_OuterContainerID</title>
<path fill="none" stroke="black" d="M414.394,-650.476C540.059,-630.654 784.064,-592.166 916.392,-571.292"/>
<polygon fill="black" stroke="black" points="917.17,-574.713 926.503,-569.698 916.079,-567.798 917.17,-574.713"/>
<text text-anchor="middle" x="693" y="-616.8" font-family="Times,serif" font-size="14.00">RESPONSE</text>
</g>
<!-- 10.1.80.93:55880#ServerID_OuterContainerID&#45;&gt;1_fwatchdog#ServerID_6df85d7674&#45;f2xxt -->
<g id="edge5" class="edge"><title>10.1.80.93:55880#ServerID_OuterContainerID&#45;&gt;1_fwatchdog#ServerID_6df85d7674&#45;f2xxt</title>
<path fill="none" stroke="black" d="M2216.7,-677.604C2148.72,-688.001 2048.63,-702.671 1961,-713 1922.88,-717.494 1913,-715.536 1875,-721 1818.18,-729.171 1754.86,-741.51 1705.41,-751.885"/>
<polygon fill="black" stroke="black" points="1704.45,-748.51 1695.39,-754 1705.9,-755.359 1704.45,-748.51"/>
<text text-anchor="middle" x="1895" y="-724.8" font-family="Times,serif" font-size="14.00">POST</text>
</g>
<!-- 1_fwatchdog#ServerID_2347d2f455dd -->
<g id="node7" class="node"><title>1_fwatchdog#ServerID_2347d2f455dd</title>
<polygon fill="none" stroke="black" points="2874,-985 2578,-985 2578,-949 2874,-949 2874,-985"/>
<text text-anchor="middle" x="2726" y="-963.3" font-family="Times,serif" font-size="14.00">1_fwatchdog#ServerID_2347d2f455dd</text>
</g>
<!-- 10.1.80.93:55880#ServerID_OuterContainerID&#45;&gt;1_fwatchdog#ServerID_2347d2f455dd -->
<g id="edge10" class="edge"><title>10.1.80.93:55880#ServerID_OuterContainerID&#45;&gt;1_fwatchdog#ServerID_2347d2f455dd</title>
<path fill="none" stroke="black" d="M2369.79,-678.005C2437.66,-689.508 2541.82,-705.582 2633,-713 2676.31,-716.524 2981.53,-711.805 3024,-721 3179.08,-754.578 3264.72,-729.482 3352,-862 3360.8,-875.362 3362.69,-886.091 3352,-898 3321.23,-932.297 3059.46,-950.913 2884.31,-959.627"/>
<polygon fill="black" stroke="black" points="2884.02,-956.137 2874.21,-960.123 2884.37,-963.128 2884.02,-956.137"/>
<text text-anchor="middle" x="3354.5" y="-832.8" font-family="Times,serif" font-size="14.00">read</text>
</g>
<!-- 10.1.80.93:47888#ServerID_OuterContainerID -->
<g id="node5" class="node"><title>10.1.80.93:47888#ServerID_OuterContainerID</title>
<polygon fill="none" stroke="black" points="999,-682 671.56,-664 999,-646 1326.44,-664 999,-682"/>
<text text-anchor="middle" x="999" y="-660.3" font-family="Times,serif" font-size="14.00">10.1.80.93:47888#ServerID_OuterContainerID</text>
</g>
<!-- 1_fwatchdog#ServerID_5f846fd567&#45;g8dn6 -->
<g id="node6" class="node"><title>1_fwatchdog#ServerID_5f846fd567&#45;g8dn6</title>
<polygon fill="none" stroke="black" points="3644,-574 3320,-574 3320,-538 3644,-538 3644,-574"/>
<text text-anchor="middle" x="3482" y="-552.3" font-family="Times,serif" font-size="14.00">1_fwatchdog#ServerID_5f846fd567&#45;g8dn6</text>
</g>
<!-- 10.1.80.93:47888#ServerID_OuterContainerID&#45;&gt;1_fwatchdog#ServerID_5f846fd567&#45;g8dn6 -->
<g id="edge7" class="edge"><title>10.1.80.93:47888#ServerID_OuterContainerID&#45;&gt;1_fwatchdog#ServerID_5f846fd567&#45;g8dn6</title>
<path fill="none" stroke="black" d="M1154.12,-654.525C1211,-651.582 1275.91,-648.418 1335,-646 1804.17,-626.802 1921.53,-622.382 2391,-613 2441.94,-611.982 3257.54,-612.056 3308,-605 3347.4,-599.49 3390.52,-587.638 3423.98,-577.091"/>
<polygon fill="black" stroke="black" points="3425.13,-580.396 3433.59,-574.013 3423,-573.729 3425.13,-580.396"/>
<text text-anchor="middle" x="2411" y="-616.8" font-family="Times,serif" font-size="14.00">POST</text>
</g>
<!-- 1_fwatchdog#ServerID_7cf8268e6ab5 -->
<g id="node13" class="node"><title>1_fwatchdog#ServerID_7cf8268e6ab5</title>
<polygon fill="none" stroke="black" points="4101,-574 3807,-574 3807,-538 4101,-538 4101,-574"/>
<text text-anchor="middle" x="3954" y="-552.3" font-family="Times,serif" font-size="14.00">1_fwatchdog#ServerID_7cf8268e6ab5</text>
</g>
<!-- 10.1.80.93:47888#ServerID_OuterContainerID&#45;&gt;1_fwatchdog#ServerID_7cf8268e6ab5 -->
<g id="edge18" class="edge"><title>10.1.80.93:47888#ServerID_OuterContainerID&#45;&gt;1_fwatchdog#ServerID_7cf8268e6ab5</title>
<path fill="none" stroke="black" d="M1147.81,-654.145C1206.16,-651.021 1273.7,-647.832 1335,-646 2205.32,-619.996 2423.87,-659.616 3294,-628 3455.11,-622.146 3495.79,-622.95 3656,-605 3721.71,-597.638 3795.04,-585.873 3852.51,-575.833"/>
<polygon fill="black" stroke="black" points="3853.44,-579.223 3862.69,-574.045 3852.23,-572.329 3853.44,-579.223"/>
<text text-anchor="middle" x="3596.5" y="-616.8" font-family="Times,serif" font-size="14.00">read</text>
</g>
<!-- 1_fwatchdog#ServerID_5f846fd567&#45;g8dn6&#45;&gt;10.1.80.93:47888#ServerID_OuterContainerID -->
<g id="edge8" class="edge"><title>1_fwatchdog#ServerID_5f846fd567&#45;g8dn6&#45;&gt;10.1.80.93:47888#ServerID_OuterContainerID</title>
<path fill="none" stroke="black" d="M3432.81,-574.017C3398.34,-585.088 3350.93,-598.613 3308,-605 3091.12,-637.267 1554.15,-638.659 1335,-646 1277.98,-647.91 1215.57,-650.837 1160.17,-653.727"/>
<polygon fill="black" stroke="black" points="1159.71,-650.246 1149.91,-654.266 1160.08,-657.237 1159.71,-650.246"/>
<text text-anchor="middle" x="3248" y="-616.8" font-family="Times,serif" font-size="14.00">RESPONSE</text>
</g>
<!-- localhost:3000#ServerID_2347d2f455dd -->
<g id="node8" class="node"><title>localhost:3000#ServerID_2347d2f455dd</title>
<polygon fill="none" stroke="black" points="2256,-898 1971.12,-880 2256,-862 2540.88,-880 2256,-898"/>
<text text-anchor="middle" x="2256" y="-876.3" font-family="Times,serif" font-size="14.00">localhost:3000#ServerID_2347d2f455dd</text>
</g>
<!-- 1_fwatchdog#ServerID_2347d2f455dd&#45;&gt;localhost:3000#ServerID_2347d2f455dd -->
<g id="edge9" class="edge"><title>1_fwatchdog#ServerID_2347d2f455dd&#45;&gt;localhost:3000#ServerID_2347d2f455dd</title>
<path fill="none" stroke="black" d="M2631.74,-948.952C2544.92,-933.251 2417.52,-910.211 2335.67,-895.408"/>
<polygon fill="black" stroke="black" points="2336.13,-891.935 2325.67,-893.6 2334.89,-898.823 2336.13,-891.935"/>
<text text-anchor="middle" x="2539" y="-919.8" font-family="Times,serif" font-size="14.00">write</text>
</g>
<!-- 13_node#ServerID_2347d2f455dd -->
<g id="node9" class="node"><title>13_node#ServerID_2347d2f455dd</title>
<polygon fill="none" stroke="black" points="2986.5,-790 2721.5,-790 2721.5,-754 2986.5,-754 2986.5,-790"/>
<text text-anchor="middle" x="2854" y="-768.3" font-family="Times,serif" font-size="14.00">13_node#ServerID_2347d2f455dd</text>
</g>
<!-- localhost:3000#ServerID_2347d2f455dd&#45;&gt;13_node#ServerID_2347d2f455dd -->
<g id="edge11" class="edge"><title>localhost:3000#ServerID_2347d2f455dd&#45;&gt;13_node#ServerID_2347d2f455dd</title>
<path fill="none" stroke="black" d="M2326.95,-866.424C2431.22,-847.942 2626.59,-813.311 2747.94,-791.8"/>
<polygon fill="black" stroke="black" points="2748.76,-795.209 2758,-790.017 2747.54,-788.317 2748.76,-795.209"/>
<text text-anchor="middle" x="2554.5" y="-832.8" font-family="Times,serif" font-size="14.00">read</text>
</g>
<!-- 13_node#ServerID_2347d2f455dd&#45;&gt;gateway:8080#ServerID_OuterContainerID -->
<g id="edge16" class="edge"><title>13_node#ServerID_2347d2f455dd&#45;&gt;gateway:8080#ServerID_OuterContainerID</title>
<path fill="none" stroke="black" d="M2721.34,-762.146C2569.15,-752.026 2312.08,-735.046 2091,-721 2033.23,-717.33 2018.56,-719.171 1961,-713 1881.87,-704.516 1792.15,-690.279 1729.12,-679.508"/>
<polygon fill="black" stroke="black" points="1729.69,-676.054 1719.24,-677.811 1728.5,-682.953 1729.69,-676.054"/>
<text text-anchor="middle" x="2351" y="-724.8" font-family="Times,serif" font-size="14.00">connect</text>
</g>
<!-- 10.152.183.10:53#ServerID_OuterContainerID -->
<g id="node12" class="node"><title>10.152.183.10:53#ServerID_OuterContainerID</title>
<polygon fill="none" stroke="black" points="2969,-682 2641.56,-664 2969,-646 3296.44,-664 2969,-682"/>
<text text-anchor="middle" x="2969" y="-660.3" font-family="Times,serif" font-size="14.00">10.152.183.10:53#ServerID_OuterContainerID</text>
</g>
<!-- 13_node#ServerID_2347d2f455dd&#45;&gt;10.152.183.10:53#ServerID_OuterContainerID -->
<g id="edge14" class="edge"><title>13_node#ServerID_2347d2f455dd&#45;&gt;10.152.183.10:53#ServerID_OuterContainerID</title>
<path fill="none" stroke="black" d="M2865.98,-753.887C2873.46,-743.783 2883.61,-731.047 2894,-721 2906.96,-708.464 2922.78,-696.273 2936.54,-686.485"/>
<polygon fill="black" stroke="black" points="2938.6,-689.313 2944.8,-680.719 2934.6,-683.573 2938.6,-689.313"/>
<text text-anchor="middle" x="2918.5" y="-724.8" font-family="Times,serif" font-size="14.00">sendto</text>
</g>
<!-- /etc/hosts#ServerID_2347d2f455dd -->
<g id="node10" class="node"><title>/etc/hosts#ServerID_2347d2f455dd</title>
<ellipse fill="none" stroke="black" cx="3164" cy="-880" rx="178.969" ry="18"/>
<text text-anchor="middle" x="3164" y="-876.3" font-family="Times,serif" font-size="14.00">/etc/hosts#ServerID_2347d2f455dd</text>
</g>
<!-- /etc/hosts#ServerID_2347d2f455dd&#45;&gt;13_node#ServerID_2347d2f455dd -->
<g id="edge12" class="edge"><title>/etc/hosts#ServerID_2347d2f455dd&#45;&gt;13_node#ServerID_2347d2f455dd</title>
<path fill="none" stroke="black" d="M3115.9,-862.554C3061.29,-843.88 2972.16,-813.403 2913.29,-793.273"/>
<polygon fill="black" stroke="black" points="2914.35,-789.935 2903.75,-790.012 2912.08,-796.559 2914.35,-789.935"/>
<text text-anchor="middle" x="3071.5" y="-832.8" font-family="Times,serif" font-size="14.00">read</text>
</g>
<!-- /etc/resolv.conf#ServerID_2347d2f455dd -->
<g id="node11" class="node"><title>/etc/resolv.conf#ServerID_2347d2f455dd</title>
<ellipse fill="none" stroke="black" cx="2763" cy="-880" rx="204.164" ry="18"/>
<text text-anchor="middle" x="2763" y="-876.3" font-family="Times,serif" font-size="14.00">/etc/resolv.conf#ServerID_2347d2f455dd</text>
</g>
<!-- /etc/resolv.conf#ServerID_2347d2f455dd&#45;&gt;13_node#ServerID_2347d2f455dd -->
<g id="edge13" class="edge"><title>/etc/resolv.conf#ServerID_2347d2f455dd&#45;&gt;13_node#ServerID_2347d2f455dd</title>
<path fill="none" stroke="black" d="M2777.62,-861.969C2792.46,-844.687 2815.59,-817.743 2832.51,-798.032"/>
<polygon fill="black" stroke="black" points="2835.26,-800.208 2839.11,-790.341 2829.94,-795.648 2835.26,-800.208"/>
<text text-anchor="middle" x="2822.5" y="-832.8" font-family="Times,serif" font-size="14.00">read</text>
</g>
<!-- 10.152.183.10:53#ServerID_OuterContainerID&#45;&gt;13_node#ServerID_2347d2f455dd -->
<g id="edge15" class="edge"><title>10.152.183.10:53#ServerID_OuterContainerID&#45;&gt;13_node#ServerID_2347d2f455dd</title>
<path fill="none" stroke="black" d="M2966.8,-682.027C2963.92,-697.892 2957.4,-721.256 2943,-736 2938.17,-740.948 2932.55,-745.213 2926.53,-748.885"/>
<polygon fill="black" stroke="black" points="2924.56,-745.975 2917.48,-753.852 2927.93,-752.113 2924.56,-745.975"/>
<text text-anchor="middle" x="2987" y="-724.8" font-family="Times,serif" font-size="14.00">recvfrom</text>
</g>
<!-- localhost:3000#ServerID_7cf8268e6ab5 -->
<g id="node14" class="node"><title>localhost:3000#ServerID_7cf8268e6ab5</title>
<polygon fill="none" stroke="black" points="3954,-487 3670.8,-469 3954,-451 4237.2,-469 3954,-487"/>
<text text-anchor="middle" x="3954" y="-465.3" font-family="Times,serif" font-size="14.00">localhost:3000#ServerID_7cf8268e6ab5</text>
</g>
<!-- 1_fwatchdog#ServerID_7cf8268e6ab5&#45;&gt;localhost:3000#ServerID_7cf8268e6ab5 -->
<g id="edge17" class="edge"><title>1_fwatchdog#ServerID_7cf8268e6ab5&#45;&gt;localhost:3000#ServerID_7cf8268e6ab5</title>
<path fill="none" stroke="black" d="M3934.42,-537.764C3926.33,-528.482 3919.72,-516.583 3924,-505 3925.4,-501.224 3927.4,-497.58 3929.73,-494.162"/>
<polygon fill="black" stroke="black" points="3932.56,-496.214 3935.98,-486.186 3927.06,-491.893 3932.56,-496.214"/>
<text text-anchor="middle" x="3943" y="-508.8" font-family="Times,serif" font-size="14.00">write</text>
</g>
<!-- pipe:[7845976]#ServerID_7cf8268e6ab5 -->
<g id="node23" class="node"><title>pipe:[7845976]#ServerID_7cf8268e6ab5</title>
<ellipse fill="none" stroke="black" cx="4457" cy="-469" rx="202.264" ry="18"/>
<text text-anchor="middle" x="4457" y="-465.3" font-family="Times,serif" font-size="14.00">pipe:[7845976]#ServerID_7cf8268e6ab5</text>
</g>
<!-- 1_fwatchdog#ServerID_7cf8268e6ab5&#45;&gt;pipe:[7845976]#ServerID_7cf8268e6ab5 -->
<g id="edge30" class="edge"><title>1_fwatchdog#ServerID_7cf8268e6ab5&#45;&gt;pipe:[7845976]#ServerID_7cf8268e6ab5</title>
<path fill="none" stroke="black" d="M4054.88,-537.952C4142.84,-523.089 4269.7,-501.652 4357.3,-486.848"/>
<polygon fill="black" stroke="black" points="4357.97,-490.284 4367.25,-485.167 4356.8,-483.382 4357.97,-490.284"/>
<text text-anchor="middle" x="4254" y="-508.8" font-family="Times,serif" font-size="14.00">write</text>
</g>
<!-- localhost:3000#ServerID_7cf8268e6ab5&#45;&gt;1_fwatchdog#ServerID_7cf8268e6ab5 -->
<g id="edge29" class="edge"><title>localhost:3000#ServerID_7cf8268e6ab5&#45;&gt;1_fwatchdog#ServerID_7cf8268e6ab5</title>
<path fill="none" stroke="black" d="M3959.05,-487.071C3961.32,-496.709 3963.24,-508.993 3962,-520 3961.71,-522.547 3961.31,-525.179 3960.84,-527.803"/>
<polygon fill="black" stroke="black" points="3957.39,-527.18 3958.77,-537.686 3964.25,-528.617 3957.39,-527.18"/>
<text text-anchor="middle" x="3978.5" y="-508.8" font-family="Times,serif" font-size="14.00">read</text>
</g>
<!-- 13_node#ServerID_7cf8268e6ab5 -->
<g id="node15" class="node"><title>13_node#ServerID_7cf8268e6ab5</title>
<polygon fill="none" stroke="black" points="4087.5,-400 3824.5,-400 3824.5,-364 4087.5,-364 4087.5,-400"/>
<text text-anchor="middle" x="3956" y="-378.3" font-family="Times,serif" font-size="14.00">13_node#ServerID_7cf8268e6ab5</text>
</g>
<!-- localhost:3000#ServerID_7cf8268e6ab5&#45;&gt;13_node#ServerID_7cf8268e6ab5 -->
<g id="edge19" class="edge"><title>localhost:3000#ServerID_7cf8268e6ab5&#45;&gt;13_node#ServerID_7cf8268e6ab5</title>
<path fill="none" stroke="black" d="M3954.4,-450.799C3954.68,-439.163 3955.05,-423.548 3955.36,-410.237"/>
<polygon fill="black" stroke="black" points="3958.86,-410.255 3955.6,-400.175 3951.86,-410.09 3958.86,-410.255"/>
<text text-anchor="middle" x="3971.5" y="-421.8" font-family="Times,serif" font-size="14.00">read</text>
</g>
<!-- /dev/null#ServerID_7cf8268e6ab5 -->
<g id="node16" class="node"><title>/dev/null#ServerID_7cf8268e6ab5</title>
<ellipse fill="none" stroke="black" cx="3840" cy="-295" rx="171.67" ry="18"/>
<text text-anchor="middle" x="3840" y="-291.3" font-family="Times,serif" font-size="14.00">/dev/null#ServerID_7cf8268e6ab5</text>
</g>
<!-- 13_node#ServerID_7cf8268e6ab5&#45;&gt;/dev/null#ServerID_7cf8268e6ab5 -->
<g id="edge28" class="edge"><title>13_node#ServerID_7cf8268e6ab5&#45;&gt;/dev/null#ServerID_7cf8268e6ab5</title>
<path fill="none" stroke="black" d="M3879.17,-364C3869.81,-359.373 3861.07,-353.488 3854,-346 3848.17,-339.824 3844.73,-331.421 3842.72,-323.268"/>
<polygon fill="black" stroke="black" points="3846.13,-322.45 3840.86,-313.259 3839.25,-323.731 3846.13,-322.45"/>
<text text-anchor="middle" x="3873" y="-334.8" font-family="Times,serif" font-size="14.00">write</text>
</g>
<!-- pipe:[7845627]#ServerID_7cf8268e6ab5 -->
<g id="node17" class="node"><title>pipe:[7845627]#ServerID_7cf8268e6ab5</title>
<ellipse fill="none" stroke="black" cx="4513" cy="-295" rx="202.264" ry="18"/>
<text text-anchor="middle" x="4513" y="-291.3" font-family="Times,serif" font-size="14.00">pipe:[7845627]#ServerID_7cf8268e6ab5</text>
</g>
<!-- 13_node#ServerID_7cf8268e6ab5&#45;&gt;pipe:[7845627]#ServerID_7cf8268e6ab5 -->
<g id="edge22" class="edge"><title>13_node#ServerID_7cf8268e6ab5&#45;&gt;pipe:[7845627]#ServerID_7cf8268e6ab5</title>
<path fill="none" stroke="black" d="M4067.71,-363.952C4166.17,-348.927 4308.66,-327.183 4405.76,-312.366"/>
<polygon fill="black" stroke="black" points="4406.53,-315.788 4415.89,-310.819 4405.48,-308.868 4406.53,-315.788"/>
<text text-anchor="middle" x="4286" y="-334.8" font-family="Times,serif" font-size="14.00">write</text>
</g>
<!-- 52_node#ServerID_7cf8268e6ab5 -->
<g id="node18" class="node"><title>52_node#ServerID_7cf8268e6ab5</title>
<polygon fill="none" stroke="black" points="4292.5,-313 4029.5,-313 4029.5,-277 4292.5,-277 4292.5,-313"/>
<text text-anchor="middle" x="4161" y="-291.3" font-family="Times,serif" font-size="14.00">52_node#ServerID_7cf8268e6ab5</text>
</g>
<!-- 13_node#ServerID_7cf8268e6ab5&#45;&gt;52_node#ServerID_7cf8268e6ab5 -->
<g id="edge23" class="edge"><title>13_node#ServerID_7cf8268e6ab5&#45;&gt;52_node#ServerID_7cf8268e6ab5</title>
<path fill="none" stroke="black" d="M3997.48,-363.799C4030.1,-350.275 4075.68,-331.377 4110.43,-316.967"/>
<polygon fill="black" stroke="black" points="4112.03,-320.093 4119.93,-313.03 4109.35,-313.627 4112.03,-320.093"/>
<text text-anchor="middle" x="4085" y="-334.8" font-family="Times,serif" font-size="14.00">fork</text>
</g>
<!-- /dev/null#ServerID_7cf8268e6ab5&#45;&gt;13_node#ServerID_7cf8268e6ab5 -->
<g id="edge20" class="edge"><title>/dev/null#ServerID_7cf8268e6ab5&#45;&gt;13_node#ServerID_7cf8268e6ab5</title>
<path fill="none" stroke="black" d="M3868.69,-312.894C3877.61,-318.418 3887.36,-324.747 3896,-331 3907.18,-339.094 3918.95,-348.657 3929.08,-357.24"/>
<polygon fill="black" stroke="black" points="3926.94,-360.014 3936.81,-363.867 3931.5,-354.7 3926.94,-360.014"/>
<text text-anchor="middle" x="3931.5" y="-334.8" font-family="Times,serif" font-size="14.00">read</text>
</g>
<!-- pipe:[7845627]#ServerID_7cf8268e6ab5&#45;&gt;13_node#ServerID_7cf8268e6ab5 -->
<g id="edge21" class="edge"><title>pipe:[7845627]#ServerID_7cf8268e6ab5&#45;&gt;13_node#ServerID_7cf8268e6ab5</title>
<path fill="none" stroke="black" d="M4466.26,-312.542C4432.67,-323.76 4386.08,-337.96 4344,-346 4263.26,-361.428 4171.74,-370.095 4097.86,-374.944"/>
<polygon fill="black" stroke="black" points="4097.31,-371.472 4087.56,-375.604 4097.76,-378.458 4097.31,-371.472"/>
<text text-anchor="middle" x="4421.5" y="-334.8" font-family="Times,serif" font-size="14.00">read</text>
</g>
<!-- 52_sh#ServerID_7cf8268e6ab5 -->
<g id="node19" class="node"><title>52_sh#ServerID_7cf8268e6ab5</title>
<polygon fill="none" stroke="black" points="4283.5,-226 4038.5,-226 4038.5,-190 4283.5,-190 4283.5,-226"/>
<text text-anchor="middle" x="4161" y="-204.3" font-family="Times,serif" font-size="14.00">52_sh#ServerID_7cf8268e6ab5</text>
</g>
<!-- 52_node#ServerID_7cf8268e6ab5&#45;&gt;52_sh#ServerID_7cf8268e6ab5 -->
<g id="edge27" class="edge"><title>52_node#ServerID_7cf8268e6ab5&#45;&gt;52_sh#ServerID_7cf8268e6ab5</title>
<path fill="none" stroke="black" d="M4161,-276.799C4161,-265.163 4161,-249.548 4161,-236.237"/>
<polygon fill="black" stroke="black" points="4164.5,-236.175 4161,-226.175 4157.5,-236.175 4164.5,-236.175"/>
<text text-anchor="middle" x="4186" y="-247.8" font-family="Times,serif" font-size="14.00">execve</text>
</g>
<!-- /home/app/3.txt#ServerID_7cf8268e6ab5 -->
<g id="node20" class="node"><title>/home/app/3.txt#ServerID_7cf8268e6ab5</title>
<ellipse fill="none" stroke="black" cx="3937" cy="-121" rx="204.964" ry="18"/>
<text text-anchor="middle" x="3937" y="-117.3" font-family="Times,serif" font-size="14.00">/home/app/3.txt#ServerID_7cf8268e6ab5</text>
</g>
<!-- 52_sh#ServerID_7cf8268e6ab5&#45;&gt;/home/app/3.txt#ServerID_7cf8268e6ab5 -->
<g id="edge24" class="edge"><title>52_sh#ServerID_7cf8268e6ab5&#45;&gt;/home/app/3.txt#ServerID_7cf8268e6ab5</title>
<path fill="none" stroke="black" d="M4115.94,-189.901C4079.66,-176.136 4028.59,-156.756 3990.29,-142.222"/>
<polygon fill="black" stroke="black" points="3991.44,-138.913 3980.84,-138.637 3988.95,-145.457 3991.44,-138.913"/>
<text text-anchor="middle" x="4081" y="-160.8" font-family="Times,serif" font-size="14.00">write</text>
</g>
<!-- 53_sh#ServerID_7cf8268e6ab5 -->
<g id="node21" class="node"><title>53_sh#ServerID_7cf8268e6ab5</title>
<polygon fill="none" stroke="black" points="4404.5,-139 4159.5,-139 4159.5,-103 4404.5,-103 4404.5,-139"/>
<text text-anchor="middle" x="4282" y="-117.3" font-family="Times,serif" font-size="14.00">53_sh#ServerID_7cf8268e6ab5</text>
</g>
<!-- 52_sh#ServerID_7cf8268e6ab5&#45;&gt;53_sh#ServerID_7cf8268e6ab5 -->
<g id="edge26" class="edge"><title>52_sh#ServerID_7cf8268e6ab5&#45;&gt;53_sh#ServerID_7cf8268e6ab5</title>
<path fill="none" stroke="black" d="M4185.49,-189.799C4203.85,-176.895 4229.19,-159.099 4249.29,-144.978"/>
<polygon fill="black" stroke="black" points="4251.38,-147.788 4257.55,-139.175 4247.36,-142.06 4251.38,-147.788"/>
<text text-anchor="middle" x="4243" y="-160.8" font-family="Times,serif" font-size="14.00">fork</text>
</g>
<!-- 53_touch#ServerID_7cf8268e6ab5 -->
<g id="node22" class="node"><title>53_touch#ServerID_7cf8268e6ab5</title>
<polygon fill="none" stroke="black" points="4416.5,-52 4147.5,-52 4147.5,-16 4416.5,-16 4416.5,-52"/>
<text text-anchor="middle" x="4282" y="-30.3" font-family="Times,serif" font-size="14.00">53_touch#ServerID_7cf8268e6ab5</text>
</g>
<!-- 53_sh#ServerID_7cf8268e6ab5&#45;&gt;53_touch#ServerID_7cf8268e6ab5 -->
<g id="edge25" class="edge"><title>53_sh#ServerID_7cf8268e6ab5&#45;&gt;53_touch#ServerID_7cf8268e6ab5</title>
<path fill="none" stroke="black" d="M4282,-102.799C4282,-91.1626 4282,-75.5479 4282,-62.2368"/>
<polygon fill="black" stroke="black" points="4285.5,-62.1754 4282,-52.1754 4278.5,-62.1755 4285.5,-62.1754"/>
<text text-anchor="middle" x="4307" y="-73.8" font-family="Times,serif" font-size="14.00">execve</text>
</g>
<!-- 10.1.80.1:54181#ServerID_OuterContainerID&#45;&gt;10.1.80.93:8080#ServerID_OuterContainerID -->
<g id="edge31" class="edge"><title>10.1.80.1:54181#ServerID_OuterContainerID&#45;&gt;10.1.80.93:8080#ServerID_OuterContainerID</title>
<path fill="none" stroke="black" d="M349.781,-573.168C360.961,-587.438 373.248,-608.884 366,-628 364.552,-631.819 362.476,-635.488 360.074,-638.92"/>
<polygon fill="black" stroke="black" points="357.178,-636.934 353.607,-646.909 362.619,-641.339 357.178,-636.934"/>
<text text-anchor="middle" x="389" y="-616.8" font-family="Times,serif" font-size="14.00">POST</text>
</g>
</g>
</svg>
