<?xml version="1.0" encoding="UTF-8" standalone="no"?>
<!DOCTYPE svg PUBLIC "-//W3C//DTD SVG 1.1//EN"
 "http://www.w3.org/Graphics/SVG/1.1/DTD/svg11.dtd">
<!-- Generated by graphviz version 2.38.0 (20140413.2041)
 -->
<!-- Title: G Pages: 1 -->
<svg width="4732pt" height="597pt"
 viewBox="0.00 0.00 4732.00 597.00" xmlns="http://www.w3.org/2000/svg" xmlns:xlink="http://www.w3.org/1999/xlink">
<g id="graph0" class="graph" transform="scale(1 1) rotate(0) translate(4 593)">
<title>G</title>
<polygon fill="white" stroke="none" points="-4,4 -4,-593 4728,-593 4728,4 -4,4"/>
<g id="clust1" class="cluster"><title>clusterServerID_1f4f60deee3d</title>
<polygon fill="none" stroke="black" points="3712,-8 3712,-257 4716,-257 4716,-8 3712,-8"/>
<text text-anchor="middle" x="4214" y="-241.8" font-family="Times,serif" font-size="14.00">clusterServerID_1f4f60deee3d</text>
</g>
<g id="clust2" class="cluster"><title>clusterServerID_667d78fb58&#45;847xt</title>
<polygon fill="none" stroke="black" points="3364,-182 3364,-257 3704,-257 3704,-182 3364,-182"/>
<text text-anchor="middle" x="3534" y="-241.8" font-family="Times,serif" font-size="14.00">clusterServerID_667d78fb58&#45;847xt</text>
</g>
<g id="clust3" class="cluster"><title>clusterServerID_6dcbcc88d5&#45;mp48t</title>
<polygon fill="none" stroke="black" points="1507,-398 1507,-473 1855,-473 1855,-398 1507,-398"/>
<text text-anchor="middle" x="1681" y="-457.8" font-family="Times,serif" font-size="14.00">clusterServerID_6dcbcc88d5&#45;mp48t</text>
</g>
<g id="clust4" class="cluster"><title>clusterServerID_OuterContainerID</title>
<polygon fill="none" stroke="black" points="8,-182 8,-365 3356,-365 3356,-182 8,-182"/>
<text text-anchor="middle" x="1682" y="-349.8" font-family="Times,serif" font-size="14.00">clusterServerID_OuterContainerID</text>
</g>
<g id="clust5" class="cluster"><title>clusterServerID_e47e2b15aff4</title>
<polygon fill="none" stroke="black" points="1977,-398 1977,-581 3069,-581 3069,-398 1977,-398"/>
<text text-anchor="middle" x="2523" y="-565.8" font-family="Times,serif" font-size="14.00">clusterServerID_e47e2b15aff4</text>
</g>
<!-- 10.1.80.183:8080#ServerID_OuterContainerID -->
<g id="node1" class="node"><title>10.1.80.183:8080#ServerID_OuterContainerID</title>
<polygon fill="none" stroke="black" points="343,-334 15.5599,-316 343,-298 670.44,-316 343,-334"/>
<text text-anchor="middle" x="343" y="-312.3" font-family="Times,serif" font-size="14.00">10.1.80.183:8080#ServerID_OuterContainerID</text>
</g>
<!-- 1_fwatchdog#ServerID_6dcbcc88d5&#45;mp48t -->
<g id="node2" class="node"><title>1_fwatchdog#ServerID_6dcbcc88d5&#45;mp48t</title>
<polygon fill="none" stroke="black" points="1846.5,-442 1515.5,-442 1515.5,-406 1846.5,-406 1846.5,-442"/>
<text text-anchor="middle" x="1681" y="-420.3" font-family="Times,serif" font-size="14.00">1_fwatchdog#ServerID_6dcbcc88d5&#45;mp48t</text>
</g>
<!-- 10.1.80.183:8080#ServerID_OuterContainerID&#45;&gt;1_fwatchdog#ServerID_6dcbcc88d5&#45;mp48t -->
<g id="edge1" class="edge"><title>10.1.80.183:8080#ServerID_OuterContainerID&#45;&gt;1_fwatchdog#ServerID_6dcbcc88d5&#45;mp48t</title>
<path fill="none" stroke="black" d="M419.739,-329.796C487.9,-340.715 590.324,-356.031 680,-365 968.507,-393.854 1305.34,-409.714 1505.48,-417.274"/>
<polygon fill="black" stroke="black" points="1505.37,-420.773 1515.5,-417.65 1505.64,-413.777 1505.37,-420.773"/>
<text text-anchor="middle" x="969" y="-376.8" font-family="Times,serif" font-size="14.00">RESPONSE</text>
</g>
<!-- 10.0.88.125:31112#ServerID_OuterContainerID -->
<g id="node17" class="node"><title>10.0.88.125:31112#ServerID_OuterContainerID</title>
<polygon fill="none" stroke="black" points="351,-226 15.5152,-208 351,-190 686.485,-208 351,-226"/>
<text text-anchor="middle" x="351" y="-204.3" font-family="Times,serif" font-size="14.00">10.0.88.125:31112#ServerID_OuterContainerID</text>
</g>
<!-- 10.1.80.183:8080#ServerID_OuterContainerID&#45;&gt;10.0.88.125:31112#ServerID_OuterContainerID -->
<g id="edge24" class="edge"><title>10.1.80.183:8080#ServerID_OuterContainerID&#45;&gt;10.0.88.125:31112#ServerID_OuterContainerID</title>
<path fill="none" stroke="black" d="M344.285,-297.969C345.545,-281.279 347.485,-255.579 348.956,-236.084"/>
<polygon fill="black" stroke="black" points="352.455,-236.224 349.718,-225.988 345.475,-235.697 352.455,-236.224"/>
<text text-anchor="middle" x="389" y="-268.8" font-family="Times,serif" font-size="14.00">RESPONSE</text>
</g>
<!-- 10.1.80.1:32251#ServerID_OuterContainerID -->
<g id="node18" class="node"><title>10.1.80.1:32251#ServerID_OuterContainerID</title>
<polygon fill="none" stroke="black" points="1679,-226 1360.1,-208 1679,-190 1997.9,-208 1679,-226"/>
<text text-anchor="middle" x="1679" y="-204.3" font-family="Times,serif" font-size="14.00">10.1.80.1:32251#ServerID_OuterContainerID</text>
</g>
<!-- 10.1.80.183:8080#ServerID_OuterContainerID&#45;&gt;10.1.80.1:32251#ServerID_OuterContainerID -->
<g id="edge26" class="edge"><title>10.1.80.183:8080#ServerID_OuterContainerID&#45;&gt;10.1.80.1:32251#ServerID_OuterContainerID</title>
<path fill="none" stroke="black" d="M502.34,-306.732C607.893,-300.706 749.351,-291.579 874,-280 929.714,-274.825 943.187,-268.974 999,-265 1155.09,-253.887 1195.07,-270.132 1351,-257 1435.55,-249.88 1531.5,-235.041 1597.68,-223.735"/>
<polygon fill="black" stroke="black" points="1598.37,-227.168 1607.63,-222.023 1597.18,-220.269 1598.37,-227.168"/>
<text text-anchor="middle" x="1041" y="-268.8" font-family="Times,serif" font-size="14.00">RESPONSE</text>
</g>
<!-- 10.1.80.1:65372#ServerID_OuterContainerID -->
<g id="node19" class="node"><title>10.1.80.1:65372#ServerID_OuterContainerID</title>
<polygon fill="none" stroke="black" points="1023,-226 704.105,-208 1023,-190 1341.9,-208 1023,-226"/>
<text text-anchor="middle" x="1023" y="-204.3" font-family="Times,serif" font-size="14.00">10.1.80.1:65372#ServerID_OuterContainerID</text>
</g>
<!-- 10.1.80.183:8080#ServerID_OuterContainerID&#45;&gt;10.1.80.1:65372#ServerID_OuterContainerID -->
<g id="edge28" class="edge"><title>10.1.80.183:8080#ServerID_OuterContainerID&#45;&gt;10.1.80.1:65372#ServerID_OuterContainerID</title>
<path fill="none" stroke="black" d="M483.096,-305.65C550.965,-300.073 633.495,-291.744 707,-280 795.676,-265.832 896.695,-241.709 960.145,-225.566"/>
<polygon fill="black" stroke="black" points="961.177,-228.914 969.998,-223.046 959.442,-222.133 961.177,-228.914"/>
<text text-anchor="middle" x="828" y="-268.8" font-family="Times,serif" font-size="14.00">RESPONSE</text>
</g>
<!-- 1_fwatchdog#ServerID_6dcbcc88d5&#45;mp48t&#45;&gt;10.1.80.183:8080#ServerID_OuterContainerID -->
<g id="edge7" class="edge"><title>1_fwatchdog#ServerID_6dcbcc88d5&#45;mp48t&#45;&gt;10.1.80.183:8080#ServerID_OuterContainerID</title>
<path fill="none" stroke="black" d="M1515.22,-408.191C1380.56,-396.732 1185.67,-381.439 1015,-373 866.25,-365.645 828.423,-377.299 680,-365 593.169,-357.805 494.579,-342.977 426.574,-331.694"/>
<polygon fill="black" stroke="black" points="426.788,-328.182 416.348,-329.986 425.635,-335.086 426.788,-328.182"/>
<text text-anchor="middle" x="1274" y="-376.8" font-family="Times,serif" font-size="14.00">POST</text>
</g>
<!-- gateway:8080#ServerID_OuterContainerID -->
<g id="node3" class="node"><title>gateway:8080#ServerID_OuterContainerID</title>
<polygon fill="none" stroke="black" points="1682,-334 1377.52,-316 1682,-298 1986.48,-316 1682,-334"/>
<text text-anchor="middle" x="1682" y="-312.3" font-family="Times,serif" font-size="14.00">gateway:8080#ServerID_OuterContainerID</text>
</g>
<!-- 1_fwatchdog#ServerID_6dcbcc88d5&#45;mp48t&#45;&gt;gateway:8080#ServerID_OuterContainerID -->
<g id="edge2" class="edge"><title>1_fwatchdog#ServerID_6dcbcc88d5&#45;mp48t&#45;&gt;gateway:8080#ServerID_OuterContainerID</title>
<path fill="none" stroke="black" d="M1701.2,-405.928C1705.99,-400.716 1710.44,-394.601 1713,-388 1719.07,-372.366 1711.87,-355.119 1702.89,-341.538"/>
<polygon fill="black" stroke="black" points="1705.55,-339.245 1696.86,-333.197 1699.88,-343.349 1705.55,-339.245"/>
<text text-anchor="middle" x="1736" y="-376.8" font-family="Times,serif" font-size="14.00">POST</text>
</g>
<!-- 10.1.80.183:55340#ServerID_OuterContainerID -->
<g id="node4" class="node"><title>10.1.80.183:55340#ServerID_OuterContainerID</title>
<polygon fill="none" stroke="black" points="2340,-334 2004.52,-316 2340,-298 2675.48,-316 2340,-334"/>
<text text-anchor="middle" x="2340" y="-312.3" font-family="Times,serif" font-size="14.00">10.1.80.183:55340#ServerID_OuterContainerID</text>
</g>
<!-- 1_fwatchdog#ServerID_6dcbcc88d5&#45;mp48t&#45;&gt;10.1.80.183:55340#ServerID_OuterContainerID -->
<g id="edge11" class="edge"><title>1_fwatchdog#ServerID_6dcbcc88d5&#45;mp48t&#45;&gt;10.1.80.183:55340#ServerID_OuterContainerID</title>
<path fill="none" stroke="black" d="M1846.83,-411.098C1906.38,-405.64 1973.91,-398.086 2035,-388 2120.11,-373.948 2216.88,-350.04 2278.17,-333.892"/>
<polygon fill="black" stroke="black" points="2279.29,-337.214 2288.06,-331.27 2277.5,-330.448 2279.29,-337.214"/>
<text text-anchor="middle" x="2153" y="-376.8" font-family="Times,serif" font-size="14.00">RESPONSE</text>
</g>
<!-- gateway:8080#ServerID_OuterContainerID&#45;&gt;1_fwatchdog#ServerID_6dcbcc88d5&#45;mp48t -->
<g id="edge10" class="edge"><title>gateway:8080#ServerID_OuterContainerID&#45;&gt;1_fwatchdog#ServerID_6dcbcc88d5&#45;mp48t</title>
<path fill="none" stroke="black" d="M1658.65,-332.719C1646.12,-342.625 1631.87,-356.625 1625,-373 1620.67,-383.319 1625.55,-392.34 1633.93,-399.773"/>
<polygon fill="black" stroke="black" points="1631.97,-402.677 1642.07,-405.889 1636.18,-397.082 1631.97,-402.677"/>
<text text-anchor="middle" x="1667" y="-376.8" font-family="Times,serif" font-size="14.00">RESPONSE</text>
</g>
<!-- 10.1.80.183:55340#ServerID_OuterContainerID&#45;&gt;1_fwatchdog#ServerID_6dcbcc88d5&#45;mp48t -->
<g id="edge3" class="edge"><title>10.1.80.183:55340#ServerID_OuterContainerID&#45;&gt;1_fwatchdog#ServerID_6dcbcc88d5&#45;mp48t</title>
<path fill="none" stroke="black" d="M2260.29,-329.822C2144.79,-348.4 1930.2,-382.916 1797.11,-404.323"/>
<polygon fill="black" stroke="black" points="1796.2,-400.926 1786.88,-405.969 1797.31,-407.837 1796.2,-400.926"/>
<text text-anchor="middle" x="2011" y="-376.8" font-family="Times,serif" font-size="14.00">POST</text>
</g>
<!-- 1_fwatchdog#ServerID_e47e2b15aff4 -->
<g id="node5" class="node"><title>1_fwatchdog#ServerID_e47e2b15aff4</title>
<polygon fill="none" stroke="black" points="3061,-550 2771,-550 2771,-514 3061,-514 3061,-550"/>
<text text-anchor="middle" x="2916" y="-528.3" font-family="Times,serif" font-size="14.00">1_fwatchdog#ServerID_e47e2b15aff4</text>
</g>
<!-- 10.1.80.183:55340#ServerID_OuterContainerID&#45;&gt;1_fwatchdog#ServerID_e47e2b15aff4 -->
<g id="edge12" class="edge"><title>10.1.80.183:55340#ServerID_OuterContainerID&#45;&gt;1_fwatchdog#ServerID_e47e2b15aff4</title>
<path fill="none" stroke="black" d="M2422.1,-329.66C2491.91,-340.126 2594.86,-354.863 2685,-365 2727.56,-369.786 3040.04,-366.449 3069,-398 3091.54,-422.559 3087.94,-445.569 3069,-473 3057.54,-489.599 3040.67,-501.452 3022.27,-509.915"/>
<polygon fill="black" stroke="black" points="3020.67,-506.792 3012.83,-513.92 3023.4,-513.236 3020.67,-506.792"/>
<text text-anchor="middle" x="3101.5" y="-420.3" font-family="Times,serif" font-size="14.00">read</text>
</g>
<!-- localhost:3000#ServerID_e47e2b15aff4 -->
<g id="node6" class="node"><title>localhost:3000#ServerID_e47e2b15aff4</title>
<polygon fill="none" stroke="black" points="2781,-442 2501.65,-424 2781,-406 3060.35,-424 2781,-442"/>
<text text-anchor="middle" x="2781" y="-420.3" font-family="Times,serif" font-size="14.00">localhost:3000#ServerID_e47e2b15aff4</text>
</g>
<!-- 1_fwatchdog#ServerID_e47e2b15aff4&#45;&gt;localhost:3000#ServerID_e47e2b15aff4 -->
<g id="edge4" class="edge"><title>1_fwatchdog#ServerID_e47e2b15aff4&#45;&gt;localhost:3000#ServerID_e47e2b15aff4</title>
<path fill="none" stroke="black" d="M2867.53,-513.982C2856.91,-509.07 2846.12,-503.082 2837,-496 2820.77,-483.406 2806.5,-465.138 2796.43,-450.286"/>
<polygon fill="black" stroke="black" points="2799.13,-448.013 2790.72,-441.562 2793.27,-451.846 2799.13,-448.013"/>
<text text-anchor="middle" x="2866" y="-484.8" font-family="Times,serif" font-size="14.00">connect</text>
</g>
<!-- 1_fwatchdog#ServerID_e47e2b15aff4&#45;&gt;localhost:3000#ServerID_e47e2b15aff4 -->
<g id="edge8" class="edge"><title>1_fwatchdog#ServerID_e47e2b15aff4&#45;&gt;localhost:3000#ServerID_e47e2b15aff4</title>
<path fill="none" stroke="black" d="M2911.99,-513.537C2908.84,-503.054 2903.52,-490.043 2895,-481 2879.13,-464.164 2857.12,-451.721 2836.66,-442.899"/>
<polygon fill="black" stroke="black" points="2837.98,-439.657 2827.4,-439.097 2835.32,-446.133 2837.98,-439.657"/>
<text text-anchor="middle" x="2924" y="-484.8" font-family="Times,serif" font-size="14.00">write</text>
</g>
<!-- localhost:3000#ServerID_e47e2b15aff4&#45;&gt;1_fwatchdog#ServerID_e47e2b15aff4 -->
<g id="edge5" class="edge"><title>localhost:3000#ServerID_e47e2b15aff4&#45;&gt;1_fwatchdog#ServerID_e47e2b15aff4</title>
<path fill="none" stroke="black" d="M2777.13,-441.924C2774.58,-457.714 2773.67,-481.026 2786,-496 2790.66,-501.662 2800.86,-506.651 2813.58,-510.957"/>
<polygon fill="black" stroke="black" points="2812.67,-514.338 2823.26,-513.972 2814.75,-507.655 2812.67,-514.338"/>
<text text-anchor="middle" x="2802.5" y="-484.8" font-family="Times,serif" font-size="14.00">read</text>
</g>
<!-- 10.1.80.183:39262#ServerID_OuterContainerID -->
<g id="node7" class="node"><title>10.1.80.183:39262#ServerID_OuterContainerID</title>
<polygon fill="none" stroke="black" points="1024,-334 688.515,-316 1024,-298 1359.48,-316 1024,-334"/>
<text text-anchor="middle" x="1024" y="-312.3" font-family="Times,serif" font-size="14.00">10.1.80.183:39262#ServerID_OuterContainerID</text>
</g>
<!-- 1_fwatchdog#ServerID_667d78fb58&#45;847xt -->
<g id="node8" class="node"><title>1_fwatchdog#ServerID_667d78fb58&#45;847xt</title>
<polygon fill="none" stroke="black" points="3696,-226 3372,-226 3372,-190 3696,-190 3696,-226"/>
<text text-anchor="middle" x="3534" y="-204.3" font-family="Times,serif" font-size="14.00">1_fwatchdog#ServerID_667d78fb58&#45;847xt</text>
</g>
<!-- 10.1.80.183:39262#ServerID_OuterContainerID&#45;&gt;1_fwatchdog#ServerID_667d78fb58&#45;847xt -->
<g id="edge6" class="edge"><title>10.1.80.183:39262#ServerID_OuterContainerID&#45;&gt;1_fwatchdog#ServerID_667d78fb58&#45;847xt</title>
<path fill="none" stroke="black" d="M1183.28,-306.54C1241.68,-303.599 1308.33,-300.432 1369,-298 1843.51,-278.98 1962.2,-274.392 2437,-265 2488.27,-263.986 3309.21,-264.101 3360,-257 3399.4,-251.491 3442.52,-239.639 3475.98,-229.092"/>
<polygon fill="black" stroke="black" points="3477.13,-232.397 3485.59,-226.014 3475,-225.73 3477.13,-232.397"/>
<text text-anchor="middle" x="2457" y="-268.8" font-family="Times,serif" font-size="14.00">POST</text>
</g>
<!-- 1_fwatchdog#ServerID_1f4f60deee3d -->
<g id="node13" class="node"><title>1_fwatchdog#ServerID_1f4f60deee3d</title>
<polygon fill="none" stroke="black" points="4144,-226 3854,-226 3854,-190 4144,-190 4144,-226"/>
<text text-anchor="middle" x="3999" y="-204.3" font-family="Times,serif" font-size="14.00">1_fwatchdog#ServerID_1f4f60deee3d</text>
</g>
<!-- 10.1.80.183:39262#ServerID_OuterContainerID&#45;&gt;1_fwatchdog#ServerID_1f4f60deee3d -->
<g id="edge18" class="edge"><title>10.1.80.183:39262#ServerID_OuterContainerID&#45;&gt;1_fwatchdog#ServerID_1f4f60deee3d</title>
<path fill="none" stroke="black" d="M1176.37,-306.173C1236.38,-303.042 1305.91,-299.841 1369,-298 2247.33,-272.372 2467.88,-311.87 3346,-280 3507.11,-274.153 3547.82,-275.253 3708,-257 3772.31,-249.672 3844.06,-237.877 3900.23,-227.813"/>
<polygon fill="black" stroke="black" points="3900.95,-231.24 3910.17,-226.021 3899.71,-224.351 3900.95,-231.24"/>
<text text-anchor="middle" x="3648.5" y="-268.8" font-family="Times,serif" font-size="14.00">read</text>
</g>
<!-- 1_fwatchdog#ServerID_667d78fb58&#45;847xt&#45;&gt;10.1.80.183:39262#ServerID_OuterContainerID -->
<g id="edge9" class="edge"><title>1_fwatchdog#ServerID_667d78fb58&#45;847xt&#45;&gt;10.1.80.183:39262#ServerID_OuterContainerID</title>
<path fill="none" stroke="black" d="M3484.81,-226.019C3450.34,-237.091 3402.93,-250.617 3360,-257 3141.14,-289.542 1590.15,-290.757 1369,-298 1310.34,-299.921 1246.1,-302.858 1189.13,-305.754"/>
<polygon fill="black" stroke="black" points="1188.76,-302.268 1178.95,-306.274 1189.12,-309.259 1188.76,-302.268"/>
<text text-anchor="middle" x="3300" y="-268.8" font-family="Times,serif" font-size="14.00">RESPONSE</text>
</g>
<!-- 10.152.183.10:53#ServerID_OuterContainerID -->
<g id="node9" class="node"><title>10.152.183.10:53#ServerID_OuterContainerID</title>
<polygon fill="none" stroke="black" points="3021,-334 2693.56,-316 3021,-298 3348.44,-316 3021,-334"/>
<text text-anchor="middle" x="3021" y="-312.3" font-family="Times,serif" font-size="14.00">10.152.183.10:53#ServerID_OuterContainerID</text>
</g>
<!-- 9_node#ServerID_e47e2b15aff4 -->
<g id="node10" class="node"><title>9_node#ServerID_e47e2b15aff4</title>
<polygon fill="none" stroke="black" points="2484,-442 2234,-442 2234,-406 2484,-406 2484,-442"/>
<text text-anchor="middle" x="2359" y="-420.3" font-family="Times,serif" font-size="14.00">9_node#ServerID_e47e2b15aff4</text>
</g>
<!-- 10.152.183.10:53#ServerID_OuterContainerID&#45;&gt;9_node#ServerID_e47e2b15aff4 -->
<g id="edge13" class="edge"><title>10.152.183.10:53#ServerID_OuterContainerID&#45;&gt;9_node#ServerID_e47e2b15aff4</title>
<path fill="none" stroke="black" d="M2949,-330.051C2863.05,-345.335 2714.87,-370.753 2587,-388 2545.36,-393.616 2534.57,-391.92 2493,-398 2480.62,-399.81 2467.64,-401.939 2454.83,-404.178"/>
<polygon fill="black" stroke="black" points="2453.85,-400.798 2444.61,-405.993 2455.07,-407.69 2453.85,-400.798"/>
<text text-anchor="middle" x="2716" y="-376.8" font-family="Times,serif" font-size="14.00">recvfrom</text>
</g>
<!-- 9_node#ServerID_e47e2b15aff4&#45;&gt;gateway:8080#ServerID_OuterContainerID -->
<g id="edge17" class="edge"><title>9_node#ServerID_e47e2b15aff4&#45;&gt;gateway:8080#ServerID_OuterContainerID</title>
<path fill="none" stroke="black" d="M2315.29,-405.903C2283.55,-394.344 2239.29,-379.964 2199,-373 2110.03,-357.623 2085.88,-373.613 1996,-365 1915.75,-357.31 1824.77,-342.751 1761.47,-331.676"/>
<polygon fill="black" stroke="black" points="1762.02,-328.217 1751.56,-329.93 1760.8,-335.111 1762.02,-328.217"/>
<text text-anchor="middle" x="2287" y="-376.8" font-family="Times,serif" font-size="14.00">connect</text>
</g>
<!-- 9_node#ServerID_e47e2b15aff4&#45;&gt;10.152.183.10:53#ServerID_OuterContainerID -->
<g id="edge16" class="edge"><title>9_node#ServerID_e47e2b15aff4&#45;&gt;10.152.183.10:53#ServerID_OuterContainerID</title>
<path fill="none" stroke="black" d="M2407.73,-405.88C2442.47,-394.468 2490.53,-380.274 2534,-373 2599.85,-361.982 2617.55,-371.491 2684,-365 2769.46,-356.652 2866.46,-342.318 2934.38,-331.482"/>
<polygon fill="black" stroke="black" points="2935.29,-334.882 2944.61,-329.843 2934.18,-327.97 2935.29,-334.882"/>
<text text-anchor="middle" x="2558.5" y="-376.8" font-family="Times,serif" font-size="14.00">sendto</text>
</g>
<!-- /etc/hosts#ServerID_e47e2b15aff4 -->
<g id="node11" class="node"><title>/etc/hosts#ServerID_e47e2b15aff4</title>
<ellipse fill="none" stroke="black" cx="2578" cy="-532" rx="174.669" ry="18"/>
<text text-anchor="middle" x="2578" y="-528.3" font-family="Times,serif" font-size="14.00">/etc/hosts#ServerID_e47e2b15aff4</text>
</g>
<!-- /etc/hosts#ServerID_e47e2b15aff4&#45;&gt;9_node#ServerID_e47e2b15aff4 -->
<g id="edge14" class="edge"><title>/etc/hosts#ServerID_e47e2b15aff4&#45;&gt;9_node#ServerID_e47e2b15aff4</title>
<path fill="none" stroke="black" d="M2543.3,-514.204C2505.4,-495.86 2444.6,-466.432 2403.29,-446.435"/>
<polygon fill="black" stroke="black" points="2404.79,-443.275 2394.26,-442.068 2401.74,-449.576 2404.79,-443.275"/>
<text text-anchor="middle" x="2517.5" y="-484.8" font-family="Times,serif" font-size="14.00">read</text>
</g>
<!-- /etc/resolv.conf#ServerID_e47e2b15aff4 -->
<g id="node12" class="node"><title>/etc/resolv.conf#ServerID_e47e2b15aff4</title>
<ellipse fill="none" stroke="black" cx="2185" cy="-532" rx="200.365" ry="18"/>
<text text-anchor="middle" x="2185" y="-528.3" font-family="Times,serif" font-size="14.00">/etc/resolv.conf#ServerID_e47e2b15aff4</text>
</g>
<!-- /etc/resolv.conf#ServerID_e47e2b15aff4&#45;&gt;9_node#ServerID_e47e2b15aff4 -->
<g id="edge15" class="edge"><title>/etc/resolv.conf#ServerID_e47e2b15aff4&#45;&gt;9_node#ServerID_e47e2b15aff4</title>
<path fill="none" stroke="black" d="M2212.96,-513.969C2242.55,-495.942 2289.4,-467.402 2322.02,-447.525"/>
<polygon fill="black" stroke="black" points="2324.11,-450.356 2330.82,-442.164 2320.46,-444.378 2324.11,-450.356"/>
<text text-anchor="middle" x="2283.5" y="-484.8" font-family="Times,serif" font-size="14.00">read</text>
</g>
<!-- localhost:3000#ServerID_1f4f60deee3d -->
<g id="node14" class="node"><title>localhost:3000#ServerID_1f4f60deee3d</title>
<polygon fill="none" stroke="black" points="3999,-139 3719.65,-121 3999,-103 4278.35,-121 3999,-139"/>
<text text-anchor="middle" x="3999" y="-117.3" font-family="Times,serif" font-size="14.00">localhost:3000#ServerID_1f4f60deee3d</text>
</g>
<!-- 1_fwatchdog#ServerID_1f4f60deee3d&#45;&gt;localhost:3000#ServerID_1f4f60deee3d -->
<g id="edge19" class="edge"><title>1_fwatchdog#ServerID_1f4f60deee3d&#45;&gt;localhost:3000#ServerID_1f4f60deee3d</title>
<path fill="none" stroke="black" d="M3999,-189.799C3999,-178.163 3999,-162.548 3999,-149.237"/>
<polygon fill="black" stroke="black" points="4002.5,-149.175 3999,-139.175 3995.5,-149.175 4002.5,-149.175"/>
<text text-anchor="middle" x="4028" y="-160.8" font-family="Times,serif" font-size="14.00">connect</text>
</g>
<!-- 1_fwatchdog#ServerID_1f4f60deee3d&#45;&gt;localhost:3000#ServerID_1f4f60deee3d -->
<g id="edge20" class="edge"><title>1_fwatchdog#ServerID_1f4f60deee3d&#45;&gt;localhost:3000#ServerID_1f4f60deee3d</title>
<path fill="none" stroke="black" d="M4040.64,-189.892C4047.59,-185.144 4053.87,-179.244 4058,-172 4064.69,-160.245 4056.98,-149.999 4045.16,-141.893"/>
<polygon fill="black" stroke="black" points="4046.82,-138.807 4036.45,-136.632 4043.2,-144.799 4046.82,-138.807"/>
<text text-anchor="middle" x="4079" y="-160.8" font-family="Times,serif" font-size="14.00">write</text>
</g>
<!-- pipe:[77303348]#ServerID_1f4f60deee3d -->
<g id="node16" class="node"><title>pipe:[77303348]#ServerID_1f4f60deee3d</title>
<ellipse fill="none" stroke="black" cx="4502" cy="-121" rx="206.063" ry="18"/>
<text text-anchor="middle" x="4502" y="-117.3" font-family="Times,serif" font-size="14.00">pipe:[77303348]#ServerID_1f4f60deee3d</text>
</g>
<!-- 1_fwatchdog#ServerID_1f4f60deee3d&#45;&gt;pipe:[77303348]#ServerID_1f4f60deee3d -->
<g id="edge23" class="edge"><title>1_fwatchdog#ServerID_1f4f60deee3d&#45;&gt;pipe:[77303348]#ServerID_1f4f60deee3d</title>
<path fill="none" stroke="black" d="M4099.88,-189.952C4187.7,-175.113 4314.3,-153.719 4401.89,-138.918"/>
<polygon fill="black" stroke="black" points="4402.56,-142.354 4411.83,-137.237 4401.39,-135.452 4402.56,-142.354"/>
<text text-anchor="middle" x="4299" y="-160.8" font-family="Times,serif" font-size="14.00">write</text>
</g>
<!-- localhost:3000#ServerID_1f4f60deee3d&#45;&gt;1_fwatchdog#ServerID_1f4f60deee3d -->
<g id="edge21" class="edge"><title>localhost:3000#ServerID_1f4f60deee3d&#45;&gt;1_fwatchdog#ServerID_1f4f60deee3d</title>
<path fill="none" stroke="black" d="M3975.9,-137.918C3965.5,-147.195 3956.62,-159.503 3962,-172 3963.57,-175.642 3965.72,-179.082 3968.21,-182.279"/>
<polygon fill="black" stroke="black" points="3965.62,-184.639 3974.93,-189.702 3970.81,-179.94 3965.62,-184.639"/>
<text text-anchor="middle" x="3978.5" y="-160.8" font-family="Times,serif" font-size="14.00">read</text>
</g>
<!-- 10_node#ServerID_1f4f60deee3d -->
<g id="node15" class="node"><title>10_node#ServerID_1f4f60deee3d</title>
<polygon fill="none" stroke="black" points="4128.5,-52 3869.5,-52 3869.5,-16 4128.5,-16 4128.5,-52"/>
<text text-anchor="middle" x="3999" y="-30.3" font-family="Times,serif" font-size="14.00">10_node#ServerID_1f4f60deee3d</text>
</g>
<!-- localhost:3000#ServerID_1f4f60deee3d&#45;&gt;10_node#ServerID_1f4f60deee3d -->
<g id="edge22" class="edge"><title>localhost:3000#ServerID_1f4f60deee3d&#45;&gt;10_node#ServerID_1f4f60deee3d</title>
<path fill="none" stroke="black" d="M3999,-102.799C3999,-91.1626 3999,-75.5479 3999,-62.2368"/>
<polygon fill="black" stroke="black" points="4002.5,-62.1754 3999,-52.1754 3995.5,-62.1755 4002.5,-62.1754"/>
<text text-anchor="middle" x="4015.5" y="-73.8" font-family="Times,serif" font-size="14.00">read</text>
</g>
<!-- 10.1.80.1:32251#ServerID_OuterContainerID&#45;&gt;10.1.80.183:8080#ServerID_OuterContainerID -->
<g id="edge25" class="edge"><title>10.1.80.1:32251#ServerID_OuterContainerID&#45;&gt;10.1.80.183:8080#ServerID_OuterContainerID</title>
<path fill="none" stroke="black" d="M1605.99,-221.938C1539.69,-233.147 1439.11,-248.814 1351,-257 1262.42,-265.23 1239.15,-253.018 1151,-265 1122.05,-268.935 1115.94,-276.004 1087,-280 907.636,-304.766 860.863,-289.439 680,-298 625.577,-300.576 566.217,-303.524 512.692,-306.234"/>
<polygon fill="black" stroke="black" points="512.228,-302.753 502.418,-306.755 512.583,-309.744 512.228,-302.753"/>
<text text-anchor="middle" x="1171" y="-268.8" font-family="Times,serif" font-size="14.00">POST</text>
</g>
<!-- 10.1.80.1:65372#ServerID_OuterContainerID&#45;&gt;10.1.80.183:8080#ServerID_OuterContainerID -->
<g id="edge27" class="edge"><title>10.1.80.1:65372#ServerID_OuterContainerID&#45;&gt;10.1.80.183:8080#ServerID_OuterContainerID</title>
<path fill="none" stroke="black" d="M942.693,-221.518C815.29,-241.378 567.621,-279.985 433.891,-300.832"/>
<polygon fill="black" stroke="black" points="433.017,-297.426 423.675,-302.424 434.095,-304.342 433.017,-297.426"/>
<text text-anchor="middle" x="683" y="-268.8" font-family="Times,serif" font-size="14.00">POST</text>
</g>
</g>
</svg>
