<?xml version="1.0" encoding="UTF-8" standalone="no"?>
<!DOCTYPE svg PUBLIC "-//W3C//DTD SVG 1.1//EN"
 "http://www.w3.org/Graphics/SVG/1.1/DTD/svg11.dtd">
<!-- Generated by graphviz version 2.38.0 (20140413.2041)
 -->
<!-- Title: G Pages: 1 -->
<svg width="16424pt" height="381pt"
 viewBox="0.00 0.00 16424.00 381.00" xmlns="http://www.w3.org/2000/svg" xmlns:xlink="http://www.w3.org/1999/xlink">
<g id="graph0" class="graph" transform="scale(1 1) rotate(0) translate(4 377)">
<title>G</title>
<polygon fill="white" stroke="none" points="-4,4 -4,-377 16420,-377 16420,4 -4,4"/>
<g id="clust1" class="cluster"><title>clusterServerID_34e86192c217</title>
<polygon fill="none" stroke="black" points="14340,-8 14340,-257 15736,-257 15736,-8 14340,-8"/>
<text text-anchor="middle" x="15038" y="-241.8" font-family="Times,serif" font-size="14.00">clusterServerID_34e86192c217</text>
</g>
<g id="clust2" class="cluster"><title>clusterServerID_5f846fd567&#45;w7nbt</title>
<polygon fill="none" stroke="black" points="15744,-182 15744,-257 16084,-257 16084,-182 15744,-182"/>
<text text-anchor="middle" x="15914" y="-241.8" font-family="Times,serif" font-size="14.00">clusterServerID_5f846fd567&#45;w7nbt</text>
</g>
<g id="clust3" class="cluster"><title>clusterServerID_6df85d7674&#45;2kqrj</title>
<polygon fill="none" stroke="black" points="12944,-182 12944,-257 13282,-257 13282,-182 12944,-182"/>
<text text-anchor="middle" x="13113" y="-241.8" font-family="Times,serif" font-size="14.00">clusterServerID_6df85d7674&#45;2kqrj</text>
</g>
<g id="clust4" class="cluster"><title>clusterServerID_90667071e782</title>
<polygon fill="none" stroke="black" points="16092,-182 16092,-257 16408,-257 16408,-182 16092,-182"/>
<text text-anchor="middle" x="16250" y="-241.8" font-family="Times,serif" font-size="14.00">clusterServerID_90667071e782</text>
</g>
<g id="clust5" class="cluster"><title>clusterServerID_OuterContainerID</title>
<polygon fill="none" stroke="black" points="8,-182 8,-365 12936,-365 12936,-182 8,-182"/>
<text text-anchor="middle" x="6472" y="-349.8" font-family="Times,serif" font-size="14.00">clusterServerID_OuterContainerID</text>
</g>
<g id="clust6" class="cluster"><title>clusterServerID_e56b6537e2d5</title>
<polygon fill="none" stroke="black" points="13290,-8 13290,-257 14332,-257 14332,-8 13290,-8"/>
<text text-anchor="middle" x="13811" y="-241.8" font-family="Times,serif" font-size="14.00">clusterServerID_e56b6537e2d5</text>
</g>
<!-- 10.1.80.247:39998#ServerID_OuterContainerID -->
<g id="node1" class="node"><title>10.1.80.247:39998#ServerID_OuterContainerID</title>
<polygon fill="none" stroke="black" points="2340,-334 2004.52,-316 2340,-298 2675.48,-316 2340,-334"/>
<text text-anchor="middle" x="2340" y="-312.3" font-family="Times,serif" font-size="14.00">10.1.80.247:39998#ServerID_OuterContainerID</text>
</g>
<!-- 1_fwatchdog#ServerID_e56b6537e2d5 -->
<g id="node2" class="node"><title>1_fwatchdog#ServerID_e56b6537e2d5</title>
<polygon fill="none" stroke="black" points="14127.5,-226 13828.5,-226 13828.5,-190 14127.5,-190 14127.5,-226"/>
<text text-anchor="middle" x="13978" y="-204.3" font-family="Times,serif" font-size="14.00">1_fwatchdog#ServerID_e56b6537e2d5</text>
</g>
<!-- 10.1.80.247:39998#ServerID_OuterContainerID&#45;&gt;1_fwatchdog#ServerID_e56b6537e2d5 -->
<g id="edge1" class="edge"><title>10.1.80.247:39998#ServerID_OuterContainerID&#45;&gt;1_fwatchdog#ServerID_e56b6537e2d5</title>
<path fill="none" stroke="black" d="M2490.23,-306.045C2550.72,-302.844 2621.15,-299.628 2685,-298 3816.52,-269.139 11740.6,-312.405 12872,-280 13209.2,-270.341 13603.4,-240.606 13818.2,-222.827"/>
<polygon fill="black" stroke="black" points="13818.7,-226.304 13828.3,-221.989 13818.1,-219.328 13818.7,-226.304"/>
<text text-anchor="middle" x="13223.5" y="-268.8" font-family="Times,serif" font-size="14.00">read</text>
</g>
<!-- localhost:3000#ServerID_e56b6537e2d5 -->
<g id="node10" class="node"><title>localhost:3000#ServerID_e56b6537e2d5</title>
<polygon fill="none" stroke="black" points="14037,-139 13750.4,-121 14037,-103 14323.6,-121 14037,-139"/>
<text text-anchor="middle" x="14037" y="-117.3" font-family="Times,serif" font-size="14.00">localhost:3000#ServerID_e56b6537e2d5</text>
</g>
<!-- 1_fwatchdog#ServerID_e56b6537e2d5&#45;&gt;localhost:3000#ServerID_e56b6537e2d5 -->
<g id="edge11" class="edge"><title>1_fwatchdog#ServerID_e56b6537e2d5&#45;&gt;localhost:3000#ServerID_e56b6537e2d5</title>
<path fill="none" stroke="black" d="M14024.8,-189.992C14032,-185.283 14038.6,-179.372 14043,-172 14047.1,-165.111 14047.5,-156.735 14046.3,-148.823"/>
<polygon fill="black" stroke="black" points="14049.7,-147.815 14044,-138.855 14042.9,-149.385 14049.7,-147.815"/>
<text text-anchor="middle" x="14076" y="-160.8" font-family="Times,serif" font-size="14.00">connect</text>
</g>
<!-- 1_fwatchdog#ServerID_e56b6537e2d5&#45;&gt;localhost:3000#ServerID_e56b6537e2d5 -->
<g id="edge40" class="edge"><title>1_fwatchdog#ServerID_e56b6537e2d5&#45;&gt;localhost:3000#ServerID_e56b6537e2d5</title>
<path fill="none" stroke="black" d="M13961.4,-189.654C13954,-179.705 13948.3,-167.205 13955,-157 13959.4,-150.37 13965.3,-144.992 13972,-140.63"/>
<polygon fill="black" stroke="black" points="13973.8,-143.62 13980.7,-135.631 13970.3,-137.536 13973.8,-143.62"/>
<text text-anchor="middle" x="13974" y="-160.8" font-family="Times,serif" font-size="14.00">write</text>
</g>
<!-- pipe:[331682317]#ServerID_e56b6537e2d5 -->
<g id="node12" class="node"><title>pipe:[331682317]#ServerID_e56b6537e2d5</title>
<ellipse fill="none" stroke="black" cx="13515" cy="-121" rx="217.162" ry="18"/>
<text text-anchor="middle" x="13515" y="-117.3" font-family="Times,serif" font-size="14.00">pipe:[331682317]#ServerID_e56b6537e2d5</text>
</g>
<!-- 1_fwatchdog#ServerID_e56b6537e2d5&#45;&gt;pipe:[331682317]#ServerID_e56b6537e2d5 -->
<g id="edge13" class="edge"><title>1_fwatchdog#ServerID_e56b6537e2d5&#45;&gt;pipe:[331682317]#ServerID_e56b6537e2d5</title>
<path fill="none" stroke="black" d="M13885.1,-189.952C13805.3,-175.289 13690.5,-154.227 13610,-139.448"/>
<polygon fill="black" stroke="black" points="13610.4,-135.951 13599.9,-137.588 13609.1,-142.836 13610.4,-135.951"/>
<text text-anchor="middle" x="13794" y="-160.8" font-family="Times,serif" font-size="14.00">write</text>
</g>
<!-- 1_fwatchdog#ServerID_34e86192c217 -->
<g id="node3" class="node"><title>1_fwatchdog#ServerID_34e86192c217</title>
<polygon fill="none" stroke="black" points="14647.5,-226 14348.5,-226 14348.5,-190 14647.5,-190 14647.5,-226"/>
<text text-anchor="middle" x="14498" y="-204.3" font-family="Times,serif" font-size="14.00">1_fwatchdog#ServerID_34e86192c217</text>
</g>
<!-- localhost:3000#ServerID_34e86192c217 -->
<g id="node4" class="node"><title>localhost:3000#ServerID_34e86192c217</title>
<polygon fill="none" stroke="black" points="15441,-139 15154.4,-121 15441,-103 15727.6,-121 15441,-139"/>
<text text-anchor="middle" x="15441" y="-117.3" font-family="Times,serif" font-size="14.00">localhost:3000#ServerID_34e86192c217</text>
</g>
<!-- 1_fwatchdog#ServerID_34e86192c217&#45;&gt;localhost:3000#ServerID_34e86192c217 -->
<g id="edge2" class="edge"><title>1_fwatchdog#ServerID_34e86192c217&#45;&gt;localhost:3000#ServerID_34e86192c217</title>
<path fill="none" stroke="black" d="M14647.7,-194.969C14727.9,-188.413 14828.4,-180.02 14918,-172 15058.4,-159.441 15219.8,-143.828 15325.8,-133.422"/>
<polygon fill="black" stroke="black" points="15326.2,-136.893 15335.9,-132.432 15325.6,-129.927 15326.2,-136.893"/>
<text text-anchor="middle" x="15095" y="-160.8" font-family="Times,serif" font-size="14.00">write</text>
</g>
<!-- 1_fwatchdog#ServerID_34e86192c217&#45;&gt;localhost:3000#ServerID_34e86192c217 -->
<g id="edge6" class="edge"><title>1_fwatchdog#ServerID_34e86192c217&#45;&gt;localhost:3000#ServerID_34e86192c217</title>
<path fill="none" stroke="black" d="M14556,-189.929C14597.6,-178.463 14655.3,-164.182 14707,-157 14900,-130.209 14950.4,-148.586 15145,-139 15193.2,-136.624 15245.9,-133.706 15293.2,-130.962"/>
<polygon fill="black" stroke="black" points="15293.4,-134.455 15303.2,-130.38 15293,-127.466 15293.4,-134.455"/>
<text text-anchor="middle" x="14736" y="-160.8" font-family="Times,serif" font-size="14.00">connect</text>
</g>
<!-- localhost:3000#ServerID_34e86192c217&#45;&gt;1_fwatchdog#ServerID_34e86192c217 -->
<g id="edge3" class="edge"><title>localhost:3000#ServerID_34e86192c217&#45;&gt;1_fwatchdog#ServerID_34e86192c217</title>
<path fill="none" stroke="black" d="M15301.4,-130.233C15149.2,-139.289 14921.6,-153.082 14881,-157 14856.6,-159.355 14734.9,-175.358 14635.2,-188.635"/>
<polygon fill="black" stroke="black" points="14634.4,-185.203 14625,-189.992 14635.3,-192.142 14634.4,-185.203"/>
<text text-anchor="middle" x="14897.5" y="-160.8" font-family="Times,serif" font-size="14.00">read</text>
</g>
<!-- 10_node#ServerID_34e86192c217 -->
<g id="node6" class="node"><title>10_node#ServerID_34e86192c217</title>
<polygon fill="none" stroke="black" points="15688.5,-52 15421.5,-52 15421.5,-16 15688.5,-16 15688.5,-52"/>
<text text-anchor="middle" x="15555" y="-30.3" font-family="Times,serif" font-size="14.00">10_node#ServerID_34e86192c217</text>
</g>
<!-- localhost:3000#ServerID_34e86192c217&#45;&gt;10_node#ServerID_34e86192c217 -->
<g id="edge25" class="edge"><title>localhost:3000#ServerID_34e86192c217&#45;&gt;10_node#ServerID_34e86192c217</title>
<path fill="none" stroke="black" d="M15462.2,-104.211C15479.5,-91.2725 15504.3,-72.779 15523.9,-58.1632"/>
<polygon fill="black" stroke="black" points="15526.1,-60.9477 15532,-52.1642 15521.9,-55.3359 15526.1,-60.9477"/>
<text text-anchor="middle" x="15520.5" y="-73.8" font-family="Times,serif" font-size="14.00">read</text>
</g>
<!-- 10.1.80.247:38034#ServerID_OuterContainerID -->
<g id="node5" class="node"><title>10.1.80.247:38034#ServerID_OuterContainerID</title>
<polygon fill="none" stroke="black" points="1024,-334 688.515,-316 1024,-298 1359.48,-316 1024,-334"/>
<text text-anchor="middle" x="1024" y="-312.3" font-family="Times,serif" font-size="14.00">10.1.80.247:38034#ServerID_OuterContainerID</text>
</g>
<!-- 10.1.80.247:38034#ServerID_OuterContainerID&#45;&gt;1_fwatchdog#ServerID_34e86192c217 -->
<g id="edge4" class="edge"><title>10.1.80.247:38034#ServerID_OuterContainerID&#45;&gt;1_fwatchdog#ServerID_34e86192c217</title>
<path fill="none" stroke="black" d="M1175.51,-306.118C1235.72,-302.959 1305.61,-299.753 1369,-298 2028.54,-279.76 3679.08,-313.811 4338,-280 4407.12,-276.453 4423.87,-268.365 4493,-265 4561.27,-261.676 14268.4,-266.838 14336,-257 14372.5,-251.685 14412.3,-239.992 14443.3,-229.478"/>
<polygon fill="black" stroke="black" points="14444.7,-232.687 14453,-226.115 14442.5,-226.071 14444.7,-232.687"/>
<text text-anchor="middle" x="4509.5" y="-268.8" font-family="Times,serif" font-size="14.00">read</text>
</g>
<!-- 1_fwatchdog#ServerID_6df85d7674&#45;2kqrj -->
<g id="node15" class="node"><title>1_fwatchdog#ServerID_6df85d7674&#45;2kqrj</title>
<polygon fill="none" stroke="black" points="13273.5,-226 12952.5,-226 12952.5,-190 13273.5,-190 13273.5,-226"/>
<text text-anchor="middle" x="13113" y="-204.3" font-family="Times,serif" font-size="14.00">1_fwatchdog#ServerID_6df85d7674&#45;2kqrj</text>
</g>
<!-- 10.1.80.247:38034#ServerID_OuterContainerID&#45;&gt;1_fwatchdog#ServerID_6df85d7674&#45;2kqrj -->
<g id="edge15" class="edge"><title>10.1.80.247:38034#ServerID_OuterContainerID&#45;&gt;1_fwatchdog#ServerID_6df85d7674&#45;2kqrj</title>
<path fill="none" stroke="black" d="M1177.66,-306.223C1237.38,-303.128 1306.36,-299.939 1369,-298 2526.76,-262.157 2816.71,-272.85 3975,-265 4037.26,-264.578 12878.3,-265.427 12940,-257 12979.2,-251.643 13022.1,-239.793 13055.3,-229.208"/>
<polygon fill="black" stroke="black" points="13056.5,-232.525 13064.9,-226.118 13054.3,-225.865 13056.5,-232.525"/>
<text text-anchor="middle" x="3995" y="-268.8" font-family="Times,serif" font-size="14.00">POST</text>
</g>
<!-- 10.152.183.10:53#ServerID_OuterContainerID -->
<g id="node7" class="node"><title>10.152.183.10:53#ServerID_OuterContainerID</title>
<polygon fill="none" stroke="black" points="9911,-334 9583.56,-316 9911,-298 10238.4,-316 9911,-334"/>
<text text-anchor="middle" x="9911" y="-312.3" font-family="Times,serif" font-size="14.00">10.152.183.10:53#ServerID_OuterContainerID</text>
</g>
<!-- 10_node#ServerID_34e86192c217&#45;&gt;10.152.183.10:53#ServerID_OuterContainerID -->
<g id="edge5" class="edge"><title>10_node#ServerID_34e86192c217&#45;&gt;10.152.183.10:53#ServerID_OuterContainerID</title>
<path fill="none" stroke="black" d="M15688.8,-42.7999C15725.4,-47.8798 15758.3,-56.2435 15770,-70 15789.9,-93.3618 15789.7,-115.507 15770,-139 15755.2,-156.633 15690.4,-151.914 15668,-157 15643.7,-162.504 15638.3,-166.489 15614,-172 15137.5,-280.105 15008.5,-269.825 14520,-280 13570.9,-299.771 11197,-272.079 10248,-298 10189.4,-299.599 10125.2,-302.543 10068.7,-305.537"/>
<polygon fill="black" stroke="black" points="10068.4,-302.048 10058.6,-306.076 10068.8,-309.038 10068.4,-302.048"/>
<text text-anchor="middle" x="15692.5" y="-160.8" font-family="Times,serif" font-size="14.00">sendto</text>
</g>
<!-- gateway:8080#ServerID_OuterContainerID -->
<g id="node16" class="node"><title>gateway:8080#ServerID_OuterContainerID</title>
<polygon fill="none" stroke="black" points="1682,-334 1377.52,-316 1682,-298 1986.48,-316 1682,-334"/>
<text text-anchor="middle" x="1682" y="-312.3" font-family="Times,serif" font-size="14.00">gateway:8080#ServerID_OuterContainerID</text>
</g>
<!-- 10_node#ServerID_34e86192c217&#45;&gt;gateway:8080#ServerID_OuterContainerID -->
<g id="edge39" class="edge"><title>10_node#ServerID_34e86192c217&#45;&gt;gateway:8080#ServerID_OuterContainerID</title>
<path fill="none" stroke="black" d="M15637.5,-52.0053C15702.1,-68.872 15775.1,-98.119 15737,-139 15731.3,-145.145 15142.3,-181.05 15134,-182 14920.3,-206.336 14870.3,-239.223 14656,-257 14566.4,-264.431 13936.9,-263.864 13847,-265 13413.6,-270.476 13305.4,-276.308 12872,-280 11663.6,-290.295 3203.98,-264.324 1996,-298 1941.27,-299.526 1881.23,-302.465 1828.45,-305.476"/>
<polygon fill="black" stroke="black" points="1828.12,-301.989 1818.33,-306.059 1828.52,-308.978 1828.12,-301.989"/>
<text text-anchor="middle" x="15540" y="-160.8" font-family="Times,serif" font-size="14.00">connect</text>
</g>
<!-- 10.152.183.10:53#ServerID_OuterContainerID&#45;&gt;10_node#ServerID_34e86192c217 -->
<g id="edge10" class="edge"><title>10.152.183.10:53#ServerID_OuterContainerID&#45;&gt;10_node#ServerID_34e86192c217</title>
<path fill="none" stroke="black" d="M10058.6,-306.068C10117.5,-302.892 10185.9,-299.688 10248,-298 11257.4,-270.556 13782.5,-302.396 14792,-280 15205.8,-270.82 15325,-304.919 15717,-172 15751.1,-160.436 15771.4,-169.207 15791,-139 15807.7,-113.265 15809.7,-92.6263 15789,-70 15775.6,-55.3769 15739,-46.8054 15698.7,-41.8008"/>
<polygon fill="black" stroke="black" points="15699,-38.3107 15688.6,-40.6343 15698.2,-45.264 15699,-38.3107"/>
<text text-anchor="middle" x="15805" y="-160.8" font-family="Times,serif" font-size="14.00">recvfrom</text>
</g>
<!-- /etc/resolv.conf#ServerID_34e86192c217 -->
<g id="node8" class="node"><title>/etc/resolv.conf#ServerID_34e86192c217</title>
<ellipse fill="none" stroke="black" cx="14931" cy="-121" rx="205.264" ry="18"/>
<text text-anchor="middle" x="14931" y="-117.3" font-family="Times,serif" font-size="14.00">/etc/resolv.conf#ServerID_34e86192c217</text>
</g>
<!-- /etc/resolv.conf#ServerID_34e86192c217&#45;&gt;10_node#ServerID_34e86192c217 -->
<g id="edge7" class="edge"><title>/etc/resolv.conf#ServerID_34e86192c217&#45;&gt;10_node#ServerID_34e86192c217</title>
<path fill="none" stroke="black" d="M15037.2,-105.533C15142.7,-91.1571 15305,-69.0572 15419.7,-53.4321"/>
<polygon fill="black" stroke="black" points="15420.5,-56.8532 15429.9,-52.0354 15419.6,-49.9172 15420.5,-56.8532"/>
<text text-anchor="middle" x="15296.5" y="-73.8" font-family="Times,serif" font-size="14.00">read</text>
</g>
<!-- /etc/hosts#ServerID_34e86192c217 -->
<g id="node9" class="node"><title>/etc/hosts#ServerID_34e86192c217</title>
<ellipse fill="none" stroke="black" cx="14528" cy="-121" rx="180.068" ry="18"/>
<text text-anchor="middle" x="14528" y="-117.3" font-family="Times,serif" font-size="14.00">/etc/hosts#ServerID_34e86192c217</text>
</g>
<!-- /etc/hosts#ServerID_34e86192c217&#45;&gt;10_node#ServerID_34e86192c217 -->
<g id="edge8" class="edge"><title>/etc/hosts#ServerID_34e86192c217&#45;&gt;10_node#ServerID_34e86192c217</title>
<path fill="none" stroke="black" d="M14656.1,-108.327C14676.5,-106.514 14697.3,-104.685 14717,-103 14960.6,-82.1621 15244.2,-59.4827 15411.1,-46.2916"/>
<polygon fill="black" stroke="black" points="15411.8,-49.7521 15421.4,-45.4756 15411.2,-42.7738 15411.8,-49.7521"/>
<text text-anchor="middle" x="15123.5" y="-73.8" font-family="Times,serif" font-size="14.00">read</text>
</g>
<!-- localhost:3000#ServerID_e56b6537e2d5&#45;&gt;1_fwatchdog#ServerID_e56b6537e2d5 -->
<g id="edge12" class="edge"><title>localhost:3000#ServerID_e56b6537e2d5&#45;&gt;1_fwatchdog#ServerID_e56b6537e2d5</title>
<path fill="none" stroke="black" d="M14021.4,-138.129C14016.2,-143.866 14010.6,-150.515 14006,-157 14000.7,-164.462 13995.6,-173.018 13991.2,-180.918"/>
<polygon fill="black" stroke="black" points="13988.1,-179.319 13986.5,-189.786 13994.3,-182.627 13988.1,-179.319"/>
<text text-anchor="middle" x="14022.5" y="-160.8" font-family="Times,serif" font-size="14.00">read</text>
</g>
<!-- 12_node#ServerID_e56b6537e2d5 -->
<g id="node11" class="node"><title>12_node#ServerID_e56b6537e2d5</title>
<polygon fill="none" stroke="black" points="14170.5,-52 13903.5,-52 13903.5,-16 14170.5,-16 14170.5,-52"/>
<text text-anchor="middle" x="14037" y="-30.3" font-family="Times,serif" font-size="14.00">12_node#ServerID_e56b6537e2d5</text>
</g>
<!-- localhost:3000#ServerID_e56b6537e2d5&#45;&gt;12_node#ServerID_e56b6537e2d5 -->
<g id="edge9" class="edge"><title>localhost:3000#ServerID_e56b6537e2d5&#45;&gt;12_node#ServerID_e56b6537e2d5</title>
<path fill="none" stroke="black" d="M14037,-102.799C14037,-91.1626 14037,-75.5479 14037,-62.2368"/>
<polygon fill="black" stroke="black" points="14040.5,-62.1754 14037,-52.1754 14033.5,-62.1755 14040.5,-62.1754"/>
<text text-anchor="middle" x="14053.5" y="-73.8" font-family="Times,serif" font-size="14.00">read</text>
</g>
<!-- 10.1.80.247:40060#ServerID_OuterContainerID -->
<g id="node13" class="node"><title>10.1.80.247:40060#ServerID_OuterContainerID</title>
<polygon fill="none" stroke="black" points="10592,-334 10256.5,-316 10592,-298 10927.5,-316 10592,-334"/>
<text text-anchor="middle" x="10592" y="-312.3" font-family="Times,serif" font-size="14.00">10.1.80.247:40060#ServerID_OuterContainerID</text>
</g>
<!-- 10.1.80.247:40060#ServerID_OuterContainerID&#45;&gt;1_fwatchdog#ServerID_e56b6537e2d5 -->
<g id="edge34" class="edge"><title>10.1.80.247:40060#ServerID_OuterContainerID&#45;&gt;1_fwatchdog#ServerID_e56b6537e2d5</title>
<path fill="none" stroke="black" d="M10743.1,-306.106C10803.4,-302.935 10873.5,-299.724 10937,-298 10962,-297.323 14516.4,-297.707 14534,-280 14538.7,-275.274 14538.6,-269.808 14534,-265 14526.4,-257.06 14347,-257.955 14336,-257 14255.5,-249.989 14165.3,-237.868 14095.5,-227.561"/>
<polygon fill="black" stroke="black" points="14095.8,-224.063 14085.4,-226.054 14094.8,-230.987 14095.8,-224.063"/>
<text text-anchor="middle" x="14554.5" y="-268.8" font-family="Times,serif" font-size="14.00">read</text>
</g>
<!-- 1_fwatchdog#ServerID_5f846fd567&#45;w7nbt -->
<g id="node14" class="node"><title>1_fwatchdog#ServerID_5f846fd567&#45;w7nbt</title>
<polygon fill="none" stroke="black" points="16076,-226 15752,-226 15752,-190 16076,-190 16076,-226"/>
<text text-anchor="middle" x="15914" y="-204.3" font-family="Times,serif" font-size="14.00">1_fwatchdog#ServerID_5f846fd567&#45;w7nbt</text>
</g>
<!-- 10.1.80.247:40060#ServerID_OuterContainerID&#45;&gt;1_fwatchdog#ServerID_5f846fd567&#45;w7nbt -->
<g id="edge14" class="edge"><title>10.1.80.247:40060#ServerID_OuterContainerID&#45;&gt;1_fwatchdog#ServerID_5f846fd567&#45;w7nbt</title>
<path fill="none" stroke="black" d="M10743.1,-306.062C10803.4,-302.885 10873.5,-299.682 10937,-298 11004.9,-296.204 15761,-302.546 15825,-280 15825.5,-279.839 15858.8,-253.169 15884.6,-232.567"/>
<polygon fill="black" stroke="black" points="15887,-235.114 15892.6,-226.132 15882.6,-229.649 15887,-235.114"/>
<text text-anchor="middle" x="15862" y="-268.8" font-family="Times,serif" font-size="14.00">POST</text>
</g>
<!-- 1_fwatchdog#ServerID_5f846fd567&#45;w7nbt&#45;&gt;10.1.80.247:40060#ServerID_OuterContainerID -->
<g id="edge16" class="edge"><title>1_fwatchdog#ServerID_5f846fd567&#45;w7nbt&#45;&gt;10.1.80.247:40060#ServerID_OuterContainerID</title>
<path fill="none" stroke="black" d="M15864.8,-226.105C15830.4,-237.215 15782.9,-250.752 15740,-257 15227.5,-331.55 15092.8,-273.608 14575,-280 13766.6,-289.979 11745.2,-276.1 10937,-298 10877.1,-299.624 10811.3,-302.574 10753.4,-305.565"/>
<polygon fill="black" stroke="black" points="10752.9,-302.088 10743.1,-306.104 10753.3,-309.078 10752.9,-302.088"/>
<text text-anchor="middle" x="15722" y="-268.8" font-family="Times,serif" font-size="14.00">RESPONSE</text>
</g>
<!-- 10.1.80.247:40104#ServerID_OuterContainerID -->
<g id="node18" class="node"><title>10.1.80.247:40104#ServerID_OuterContainerID</title>
<polygon fill="none" stroke="black" points="11281,-334 10945.5,-316 11281,-298 11616.5,-316 11281,-334"/>
<text text-anchor="middle" x="11281" y="-312.3" font-family="Times,serif" font-size="14.00">10.1.80.247:40104#ServerID_OuterContainerID</text>
</g>
<!-- 1_fwatchdog#ServerID_5f846fd567&#45;w7nbt&#45;&gt;10.1.80.247:40104#ServerID_OuterContainerID -->
<g id="edge23" class="edge"><title>1_fwatchdog#ServerID_5f846fd567&#45;w7nbt&#45;&gt;10.1.80.247:40104#ServerID_OuterContainerID</title>
<path fill="none" stroke="black" d="M15931.3,-226.232C15945.1,-242.02 15959.8,-265.132 15945,-280 15923.8,-301.258 11655,-297.197 11625,-298 11565.2,-299.601 11499.7,-302.545 11442,-305.538"/>
<polygon fill="black" stroke="black" points="11441.5,-302.06 11431.6,-306.078 11441.8,-309.05 11441.5,-302.06"/>
<text text-anchor="middle" x="15993" y="-268.8" font-family="Times,serif" font-size="14.00">RESPONSE</text>
</g>
<!-- 1_fwatchdog#ServerID_6df85d7674&#45;2kqrj&#45;&gt;10.1.80.247:38034#ServerID_OuterContainerID -->
<g id="edge20" class="edge"><title>1_fwatchdog#ServerID_6df85d7674&#45;2kqrj&#45;&gt;10.1.80.247:38034#ServerID_OuterContainerID</title>
<path fill="none" stroke="black" d="M13064.9,-226.117C13030.6,-237.39 12983.1,-251.114 12940,-257 12880.2,-265.165 4314.29,-263.082 4254,-265 4147.62,-268.384 4121.37,-276.303 4015,-280 2839.68,-320.848 2544.57,-265.053 1369,-298 1309.34,-299.672 1243.92,-302.613 1186.25,-305.584"/>
<polygon fill="black" stroke="black" points="1185.75,-302.105 1175.94,-306.12 1186.11,-309.096 1185.75,-302.105"/>
<text text-anchor="middle" x="4296" y="-268.8" font-family="Times,serif" font-size="14.00">RESPONSE</text>
</g>
<!-- 1_fwatchdog#ServerID_6df85d7674&#45;2kqrj&#45;&gt;gateway:8080#ServerID_OuterContainerID -->
<g id="edge17" class="edge"><title>1_fwatchdog#ServerID_6df85d7674&#45;2kqrj&#45;&gt;gateway:8080#ServerID_OuterContainerID</title>
<path fill="none" stroke="black" d="M13064.9,-226.111C13030.6,-237.38 12983.1,-251.103 12940,-257 12901.7,-262.249 7405.7,-264.853 7367,-265 7068.61,-266.131 2294.26,-289.015 1996,-298 1941.66,-299.637 1882.08,-302.573 1829.56,-305.549"/>
<polygon fill="black" stroke="black" points="1829.29,-302.059 1819.5,-306.125 1829.69,-309.048 1829.29,-302.059"/>
<text text-anchor="middle" x="7387" y="-268.8" font-family="Times,serif" font-size="14.00">POST</text>
</g>
<!-- 10.1.80.247:8080#ServerID_OuterContainerID -->
<g id="node17" class="node"><title>10.1.80.247:8080#ServerID_OuterContainerID</title>
<polygon fill="none" stroke="black" points="343,-334 15.5599,-316 343,-298 670.44,-316 343,-334"/>
<text text-anchor="middle" x="343" y="-312.3" font-family="Times,serif" font-size="14.00">10.1.80.247:8080#ServerID_OuterContainerID</text>
</g>
<!-- 1_fwatchdog#ServerID_6df85d7674&#45;2kqrj&#45;&gt;10.1.80.247:8080#ServerID_OuterContainerID -->
<g id="edge18" class="edge"><title>1_fwatchdog#ServerID_6df85d7674&#45;2kqrj&#45;&gt;10.1.80.247:8080#ServerID_OuterContainerID</title>
<path fill="none" stroke="black" d="M13064.9,-226.12C13030.6,-237.393 12983.1,-251.118 12940,-257 12865,-267.246 2108.74,-264.049 2033,-265 1957.82,-265.944 755.136,-295.189 680,-298 623.512,-300.113 561.728,-303.049 506.667,-305.886"/>
<polygon fill="black" stroke="black" points="506.272,-302.402 496.467,-306.415 506.634,-309.393 506.272,-302.402"/>
<text text-anchor="middle" x="2053" y="-268.8" font-family="Times,serif" font-size="14.00">POST</text>
</g>
<!-- gateway:8080#ServerID_OuterContainerID&#45;&gt;1_fwatchdog#ServerID_6df85d7674&#45;2kqrj -->
<g id="edge21" class="edge"><title>gateway:8080#ServerID_OuterContainerID&#45;&gt;1_fwatchdog#ServerID_6df85d7674&#45;2kqrj</title>
<path fill="none" stroke="black" d="M1819.11,-306.063C1874.08,-302.876 1938.02,-299.665 1996,-298 2596.98,-280.743 6805.78,-282.25 7407,-280 7714.39,-278.85 12635.5,-299.104 12940,-257 12979.2,-251.579 13022.1,-239.729 13055.3,-229.159"/>
<polygon fill="black" stroke="black" points="13056.4,-232.477 13064.9,-226.074 13054.3,-225.816 13056.4,-232.477"/>
<text text-anchor="middle" x="12826" y="-268.8" font-family="Times,serif" font-size="14.00">RESPONSE</text>
</g>
<!-- 10.1.80.247:8080#ServerID_OuterContainerID&#45;&gt;1_fwatchdog#ServerID_6df85d7674&#45;2kqrj -->
<g id="edge19" class="edge"><title>10.1.80.247:8080#ServerID_OuterContainerID&#45;&gt;1_fwatchdog#ServerID_6df85d7674&#45;2kqrj</title>
<path fill="none" stroke="black" d="M498.161,-306.516C555.312,-303.564 620.588,-300.395 680,-298 746.199,-295.331 1211.65,-295.776 1276,-280 1290.87,-276.355 1292.08,-268.425 1307,-265 1385.74,-246.923 12860,-267.926 12940,-257 12979.2,-251.647 13022.1,-239.797 13055.3,-229.211"/>
<polygon fill="black" stroke="black" points="13056.5,-232.528 13064.9,-226.121 13054.3,-225.868 13056.5,-232.528"/>
<text text-anchor="middle" x="1349" y="-268.8" font-family="Times,serif" font-size="14.00">RESPONSE</text>
</g>
<!-- 10.1.80.1:15178#ServerID_OuterContainerID -->
<g id="node32" class="node"><title>10.1.80.1:15178#ServerID_OuterContainerID</title>
<polygon fill="none" stroke="black" points="1023,-226 704.105,-208 1023,-190 1341.9,-208 1023,-226"/>
<text text-anchor="middle" x="1023" y="-204.3" font-family="Times,serif" font-size="14.00">10.1.80.1:15178#ServerID_OuterContainerID</text>
</g>
<!-- 10.1.80.247:8080#ServerID_OuterContainerID&#45;&gt;10.1.80.1:15178#ServerID_OuterContainerID -->
<g id="edge44" class="edge"><title>10.1.80.247:8080#ServerID_OuterContainerID&#45;&gt;10.1.80.1:15178#ServerID_OuterContainerID</title>
<path fill="none" stroke="black" d="M381.516,-300.076C416.527,-286.779 465.715,-268.845 486,-265 577.331,-247.69 602.434,-265.52 695,-257 778.946,-249.273 874.213,-234.674 940.362,-223.596"/>
<polygon fill="black" stroke="black" points="941.034,-227.032 950.314,-221.919 939.871,-220.13 941.034,-227.032"/>
<text text-anchor="middle" x="528" y="-268.8" font-family="Times,serif" font-size="14.00">RESPONSE</text>
</g>
<!-- 10.0.88.125:31112#ServerID_OuterContainerID -->
<g id="node33" class="node"><title>10.0.88.125:31112#ServerID_OuterContainerID</title>
<polygon fill="none" stroke="black" points="351,-226 15.5152,-208 351,-190 686.485,-208 351,-226"/>
<text text-anchor="middle" x="351" y="-204.3" font-family="Times,serif" font-size="14.00">10.0.88.125:31112#ServerID_OuterContainerID</text>
</g>
<!-- 10.1.80.247:8080#ServerID_OuterContainerID&#45;&gt;10.0.88.125:31112#ServerID_OuterContainerID -->
<g id="edge43" class="edge"><title>10.1.80.247:8080#ServerID_OuterContainerID&#45;&gt;10.0.88.125:31112#ServerID_OuterContainerID</title>
<path fill="none" stroke="black" d="M344.285,-297.969C345.545,-281.279 347.485,-255.579 348.956,-236.084"/>
<polygon fill="black" stroke="black" points="352.455,-236.224 349.718,-225.988 345.475,-235.697 352.455,-236.224"/>
<text text-anchor="middle" x="389" y="-268.8" font-family="Times,serif" font-size="14.00">RESPONSE</text>
</g>
<!-- 10.1.80.1:51637#ServerID_OuterContainerID -->
<g id="node34" class="node"><title>10.1.80.1:51637#ServerID_OuterContainerID</title>
<polygon fill="none" stroke="black" points="1679,-226 1360.1,-208 1679,-190 1997.9,-208 1679,-226"/>
<text text-anchor="middle" x="1679" y="-204.3" font-family="Times,serif" font-size="14.00">10.1.80.1:51637#ServerID_OuterContainerID</text>
</g>
<!-- 10.1.80.247:8080#ServerID_OuterContainerID&#45;&gt;10.1.80.1:51637#ServerID_OuterContainerID -->
<g id="edge46" class="edge"><title>10.1.80.247:8080#ServerID_OuterContainerID&#45;&gt;10.1.80.1:51637#ServerID_OuterContainerID</title>
<path fill="none" stroke="black" d="M474.92,-305.235C628.74,-294.136 890.681,-276.12 1116,-265 1220.38,-259.849 1246.91,-266.358 1351,-257 1435.1,-249.439 1530.54,-234.778 1596.69,-223.639"/>
<polygon fill="black" stroke="black" points="1597.37,-227.075 1606.64,-221.953 1596.2,-220.173 1597.37,-227.075"/>
<text text-anchor="middle" x="1158" y="-268.8" font-family="Times,serif" font-size="14.00">RESPONSE</text>
</g>
<!-- 10.1.80.247:40104#ServerID_OuterContainerID&#45;&gt;1_fwatchdog#ServerID_5f846fd567&#45;w7nbt -->
<g id="edge22" class="edge"><title>10.1.80.247:40104#ServerID_OuterContainerID&#45;&gt;1_fwatchdog#ServerID_5f846fd567&#45;w7nbt</title>
<path fill="none" stroke="black" d="M11431.6,-306.08C11491.8,-302.905 11561.6,-299.698 11625,-298 11654.6,-297.207 15863.8,-297.008 15888,-280 15902.1,-270.135 15908.5,-251.813 15911.5,-236.253"/>
<polygon fill="black" stroke="black" points="15915,-236.472 15913.1,-226.06 15908.1,-235.419 15915,-236.472"/>
<text text-anchor="middle" x="15921" y="-268.8" font-family="Times,serif" font-size="14.00">POST</text>
</g>
<!-- 10.1.80.247:40024#ServerID_OuterContainerID -->
<g id="node19" class="node"><title>10.1.80.247:40024#ServerID_OuterContainerID</title>
<polygon fill="none" stroke="black" points="3029,-334 2693.52,-316 3029,-298 3364.48,-316 3029,-334"/>
<text text-anchor="middle" x="3029" y="-312.3" font-family="Times,serif" font-size="14.00">10.1.80.247:40024#ServerID_OuterContainerID</text>
</g>
<!-- 10.1.80.247:40024#ServerID_OuterContainerID&#45;&gt;1_fwatchdog#ServerID_e56b6537e2d5 -->
<g id="edge24" class="edge"><title>10.1.80.247:40024#ServerID_OuterContainerID&#45;&gt;1_fwatchdog#ServerID_e56b6537e2d5</title>
<path fill="none" stroke="black" d="M3179.23,-306.043C3239.72,-302.842 3310.15,-299.627 3374,-298 3410.54,-297.069 13865.9,-293.219 13900,-280 13903.3,-278.724 13930.9,-253.265 13952.3,-233.195"/>
<polygon fill="black" stroke="black" points="13955,-235.493 13959.9,-226.099 13950.2,-230.387 13955,-235.493"/>
<text text-anchor="middle" x="13934.5" y="-268.8" font-family="Times,serif" font-size="14.00">read</text>
</g>
<!-- 10.1.80.1:40018#ServerID_OuterContainerID -->
<g id="node20" class="node"><title>10.1.80.1:40018#ServerID_OuterContainerID</title>
<polygon fill="none" stroke="black" points="11953,-334 11634.1,-316 11953,-298 12271.9,-316 11953,-334"/>
<text text-anchor="middle" x="11953" y="-312.3" font-family="Times,serif" font-size="14.00">10.1.80.1:40018#ServerID_OuterContainerID</text>
</g>
<!-- 1_fwatchdog#ServerID_90667071e782 -->
<g id="node21" class="node"><title>1_fwatchdog#ServerID_90667071e782</title>
<polygon fill="none" stroke="black" points="16399.5,-226 16100.5,-226 16100.5,-190 16399.5,-190 16399.5,-226"/>
<text text-anchor="middle" x="16250" y="-204.3" font-family="Times,serif" font-size="14.00">1_fwatchdog#ServerID_90667071e782</text>
</g>
<!-- 10.1.80.1:40018#ServerID_OuterContainerID&#45;&gt;1_fwatchdog#ServerID_90667071e782 -->
<g id="edge26" class="edge"><title>10.1.80.1:40018#ServerID_OuterContainerID&#45;&gt;1_fwatchdog#ServerID_90667071e782</title>
<path fill="none" stroke="black" d="M12096.6,-306.088C12154,-302.914 12220.6,-299.706 12281,-298 12334.3,-296.495 16068.7,-297.6 16119,-280 16129.2,-276.448 16128.9,-270.769 16138,-265 16158.2,-252.161 16181.8,-240.005 16202,-230.32"/>
<polygon fill="black" stroke="black" points="16203.5,-233.479 16211.1,-226.05 16200.6,-227.146 16203.5,-233.479"/>
<text text-anchor="middle" x="16154.5" y="-268.8" font-family="Times,serif" font-size="14.00">read</text>
</g>
<!-- 1_fwatchdog#ServerID_90667071e782&#45;&gt;10.1.80.1:40018#ServerID_OuterContainerID -->
<g id="edge37" class="edge"><title>1_fwatchdog#ServerID_90667071e782&#45;&gt;10.1.80.1:40018#ServerID_OuterContainerID</title>
<path fill="none" stroke="black" d="M16178.2,-226.043C16146.2,-235.195 16108.6,-248.116 16077,-265 16067.5,-270.07 16068.2,-276.447 16058,-280 16008.5,-297.323 12333.4,-296.517 12281,-298 12224.1,-299.609 12161.7,-302.546 12106.8,-305.532"/>
<polygon fill="black" stroke="black" points="12106.4,-302.048 12096.6,-306.09 12106.8,-309.037 12106.4,-302.048"/>
<text text-anchor="middle" x="16096" y="-268.8" font-family="Times,serif" font-size="14.00">write</text>
</g>
<!-- 10.1.80.1:40016#ServerID_OuterContainerID -->
<g id="node24" class="node"><title>10.1.80.1:40016#ServerID_OuterContainerID</title>
<polygon fill="none" stroke="black" points="12609,-334 12290.1,-316 12609,-298 12927.9,-316 12609,-334"/>
<text text-anchor="middle" x="12609" y="-312.3" font-family="Times,serif" font-size="14.00">10.1.80.1:40016#ServerID_OuterContainerID</text>
</g>
<!-- 1_fwatchdog#ServerID_90667071e782&#45;&gt;10.1.80.1:40016#ServerID_OuterContainerID -->
<g id="edge31" class="edge"><title>1_fwatchdog#ServerID_90667071e782&#45;&gt;10.1.80.1:40016#ServerID_OuterContainerID</title>
<path fill="none" stroke="black" d="M16250.8,-226.187C16250.5,-242.884 16247.1,-267.491 16231,-280 16198.3,-305.318 13775.8,-312.658 12911.3,-314.472"/>
<polygon fill="black" stroke="black" points="12911.2,-310.972 12901.2,-314.493 12911.2,-317.972 12911.2,-310.972"/>
<text text-anchor="middle" x="16260" y="-268.8" font-family="Times,serif" font-size="14.00">write</text>
</g>
<!-- 10.1.80.247:40030#ServerID_OuterContainerID -->
<g id="node22" class="node"><title>10.1.80.247:40030#ServerID_OuterContainerID</title>
<polygon fill="none" stroke="black" points="3718,-334 3382.52,-316 3718,-298 4053.48,-316 3718,-334"/>
<text text-anchor="middle" x="3718" y="-312.3" font-family="Times,serif" font-size="14.00">10.1.80.247:40030#ServerID_OuterContainerID</text>
</g>
<!-- 10.1.80.247:40030#ServerID_OuterContainerID&#45;&gt;1_fwatchdog#ServerID_e56b6537e2d5 -->
<g id="edge27" class="edge"><title>10.1.80.247:40030#ServerID_OuterContainerID&#45;&gt;1_fwatchdog#ServerID_e56b6537e2d5</title>
<path fill="none" stroke="black" d="M3868.23,-306.046C3928.72,-302.846 3999.15,-299.63 4063,-298 4097.34,-297.123 13928.4,-300.406 13956,-280 13969.5,-270.034 13975,-251.881 13977.1,-236.426"/>
<polygon fill="black" stroke="black" points="13980.6,-236.581 13978,-226.29 13973.6,-235.907 13980.6,-236.581"/>
<text text-anchor="middle" x="13985.5" y="-268.8" font-family="Times,serif" font-size="14.00">read</text>
</g>
<!-- 10.1.80.247:38000#ServerID_OuterContainerID -->
<g id="node23" class="node"><title>10.1.80.247:38000#ServerID_OuterContainerID</title>
<polygon fill="none" stroke="black" points="5096,-334 4760.52,-316 5096,-298 5431.48,-316 5096,-334"/>
<text text-anchor="middle" x="5096" y="-312.3" font-family="Times,serif" font-size="14.00">10.1.80.247:38000#ServerID_OuterContainerID</text>
</g>
<!-- 10.1.80.247:38000#ServerID_OuterContainerID&#45;&gt;1_fwatchdog#ServerID_34e86192c217 -->
<g id="edge28" class="edge"><title>10.1.80.247:38000#ServerID_OuterContainerID&#45;&gt;1_fwatchdog#ServerID_34e86192c217</title>
<path fill="none" stroke="black" d="M5246.23,-306.055C5306.72,-302.856 5377.15,-299.639 5441,-298 5500.9,-296.463 14011.8,-297.721 14069,-280 14080.3,-276.5 14079.7,-268.672 14091,-265 14142.8,-248.096 14282.2,-265.697 14336,-257 14372.1,-251.168 14411.4,-239.653 14442.2,-229.363"/>
<polygon fill="black" stroke="black" points="14443.6,-232.597 14451.9,-226.074 14441.3,-225.967 14443.6,-232.597"/>
<text text-anchor="middle" x="14107.5" y="-268.8" font-family="Times,serif" font-size="14.00">read</text>
</g>
<!-- 10.1.80.1:40016#ServerID_OuterContainerID&#45;&gt;1_fwatchdog#ServerID_90667071e782 -->
<g id="edge29" class="edge"><title>10.1.80.1:40016#ServerID_OuterContainerID&#45;&gt;1_fwatchdog#ServerID_90667071e782</title>
<path fill="none" stroke="black" d="M12909.5,-314.962C13755.3,-314.478 16099.8,-310.391 16175,-280 16187.3,-275.035 16210.4,-252.115 16227.7,-233.641"/>
<polygon fill="black" stroke="black" points="16230.5,-235.774 16234.8,-226.061 16225.4,-231.015 16230.5,-235.774"/>
<text text-anchor="middle" x="16210.5" y="-268.8" font-family="Times,serif" font-size="14.00">read</text>
</g>
<!-- 10.1.80.247:38012#ServerID_OuterContainerID -->
<g id="node25" class="node"><title>10.1.80.247:38012#ServerID_OuterContainerID</title>
<polygon fill="none" stroke="black" points="5785,-334 5449.52,-316 5785,-298 6120.48,-316 5785,-334"/>
<text text-anchor="middle" x="5785" y="-312.3" font-family="Times,serif" font-size="14.00">10.1.80.247:38012#ServerID_OuterContainerID</text>
</g>
<!-- 10.1.80.247:38012#ServerID_OuterContainerID&#45;&gt;1_fwatchdog#ServerID_34e86192c217 -->
<g id="edge30" class="edge"><title>10.1.80.247:38012#ServerID_OuterContainerID&#45;&gt;1_fwatchdog#ServerID_34e86192c217</title>
<path fill="none" stroke="black" d="M5935.23,-306.06C5995.72,-302.862 6066.15,-299.644 6130,-298 6241.05,-295.141 14017.9,-294.868 14128,-280 14153.1,-276.609 14158,-269.018 14183,-265 14250.2,-254.202 14268.9,-268.53 14336,-257 14371.7,-250.86 14410.7,-239.457 14441.5,-229.305"/>
<polygon fill="black" stroke="black" points="14442.8,-232.555 14451.2,-226.062 14440.6,-225.917 14442.8,-232.555"/>
<text text-anchor="middle" x="14199.5" y="-268.8" font-family="Times,serif" font-size="14.00">read</text>
</g>
<!-- 10.1.80.247:37990#ServerID_OuterContainerID -->
<g id="node26" class="node"><title>10.1.80.247:37990#ServerID_OuterContainerID</title>
<polygon fill="none" stroke="black" points="6474,-334 6138.52,-316 6474,-298 6809.48,-316 6474,-334"/>
<text text-anchor="middle" x="6474" y="-312.3" font-family="Times,serif" font-size="14.00">10.1.80.247:37990#ServerID_OuterContainerID</text>
</g>
<!-- 10.1.80.247:37990#ServerID_OuterContainerID&#45;&gt;1_fwatchdog#ServerID_34e86192c217 -->
<g id="edge32" class="edge"><title>10.1.80.247:37990#ServerID_OuterContainerID&#45;&gt;1_fwatchdog#ServerID_34e86192c217</title>
<path fill="none" stroke="black" d="M6624.66,-306.044C6685.05,-302.854 6755.3,-299.646 6819,-298 6921.76,-295.345 14119.3,-300.79 14220,-280 14236.6,-276.577 14238.6,-269.214 14255,-265 14290,-255.992 14300.5,-263.947 14336,-257 14370.9,-250.163 14409.2,-239.02 14439.7,-229.191"/>
<polygon fill="black" stroke="black" points="14440.9,-232.479 14449.3,-226.053 14438.7,-225.823 14440.9,-232.479"/>
<text text-anchor="middle" x="14271.5" y="-268.8" font-family="Times,serif" font-size="14.00">read</text>
</g>
<!-- 10.1.80.247:38022#ServerID_OuterContainerID -->
<g id="node27" class="node"><title>10.1.80.247:38022#ServerID_OuterContainerID</title>
<polygon fill="none" stroke="black" points="7163,-334 6827.52,-316 7163,-298 7498.48,-316 7163,-334"/>
<text text-anchor="middle" x="7163" y="-312.3" font-family="Times,serif" font-size="14.00">10.1.80.247:38022#ServerID_OuterContainerID</text>
</g>
<!-- 10.1.80.247:38022#ServerID_OuterContainerID&#45;&gt;1_fwatchdog#ServerID_34e86192c217 -->
<g id="edge33" class="edge"><title>10.1.80.247:38022#ServerID_OuterContainerID&#45;&gt;1_fwatchdog#ServerID_34e86192c217</title>
<path fill="none" stroke="black" d="M7313.66,-306.051C7374.05,-302.862 7444.3,-299.653 7508,-298 7555.1,-296.778 14247.2,-294.437 14292,-280 14302.9,-276.485 14302.7,-270.062 14313,-265 14318.6,-262.252 14379.9,-243.864 14430.4,-228.897"/>
<polygon fill="black" stroke="black" points="14431.4,-232.244 14440,-226.051 14429.5,-225.532 14431.4,-232.244"/>
<text text-anchor="middle" x="14329.5" y="-268.8" font-family="Times,serif" font-size="14.00">read</text>
</g>
<!-- 10.1.80.247:37978#ServerID_OuterContainerID -->
<g id="node28" class="node"><title>10.1.80.247:37978#ServerID_OuterContainerID</title>
<polygon fill="none" stroke="black" points="7852,-334 7516.52,-316 7852,-298 8187.48,-316 7852,-334"/>
<text text-anchor="middle" x="7852" y="-312.3" font-family="Times,serif" font-size="14.00">10.1.80.247:37978#ServerID_OuterContainerID</text>
</g>
<!-- 10.1.80.247:37978#ServerID_OuterContainerID&#45;&gt;1_fwatchdog#ServerID_34e86192c217 -->
<g id="edge35" class="edge"><title>10.1.80.247:37978#ServerID_OuterContainerID&#45;&gt;1_fwatchdog#ServerID_34e86192c217</title>
<path fill="none" stroke="black" d="M8002.66,-306.06C8063.05,-302.872 8133.31,-299.662 8197,-298 8282.43,-295.771 14268.4,-305.31 14350,-280 14361.3,-276.495 14361.7,-270.76 14372,-265 14395.3,-251.995 14422.3,-239.685 14445.2,-229.935"/>
<polygon fill="black" stroke="black" points="14446.6,-233.153 14454.5,-226.056 14443.9,-226.698 14446.6,-233.153"/>
<text text-anchor="middle" x="14388.5" y="-268.8" font-family="Times,serif" font-size="14.00">read</text>
</g>
<!-- 10.1.80.247:37976#ServerID_OuterContainerID -->
<g id="node29" class="node"><title>10.1.80.247:37976#ServerID_OuterContainerID</title>
<polygon fill="none" stroke="black" points="8541,-334 8205.52,-316 8541,-298 8876.48,-316 8541,-334"/>
<text text-anchor="middle" x="8541" y="-312.3" font-family="Times,serif" font-size="14.00">10.1.80.247:37976#ServerID_OuterContainerID</text>
</g>
<!-- 10.1.80.247:37976#ServerID_OuterContainerID&#45;&gt;1_fwatchdog#ServerID_34e86192c217 -->
<g id="edge36" class="edge"><title>10.1.80.247:37976#ServerID_OuterContainerID&#45;&gt;1_fwatchdog#ServerID_34e86192c217</title>
<path fill="none" stroke="black" d="M8691.66,-306.071C8752.05,-302.885 8822.31,-299.672 8886,-298 8924.34,-296.993 14372.8,-292.73 14409,-280 14416.2,-277.477 14446.9,-252.34 14470.2,-232.683"/>
<polygon fill="black" stroke="black" points="14472.8,-235.132 14478.1,-226.005 14468.2,-229.785 14472.8,-235.132"/>
<text text-anchor="middle" x="14446.5" y="-268.8" font-family="Times,serif" font-size="14.00">read</text>
</g>
<!-- 10.1.80.247:38136#ServerID_OuterContainerID -->
<g id="node30" class="node"><title>10.1.80.247:38136#ServerID_OuterContainerID</title>
<polygon fill="none" stroke="black" points="9230,-334 8894.52,-316 9230,-298 9565.48,-316 9230,-334"/>
<text text-anchor="middle" x="9230" y="-312.3" font-family="Times,serif" font-size="14.00">10.1.80.247:38136#ServerID_OuterContainerID</text>
</g>
<!-- 10.1.80.247:38136#ServerID_OuterContainerID&#45;&gt;1_fwatchdog#ServerID_34e86192c217 -->
<g id="edge38" class="edge"><title>10.1.80.247:38136#ServerID_OuterContainerID&#45;&gt;1_fwatchdog#ServerID_34e86192c217</title>
<path fill="none" stroke="black" d="M9381.09,-306.062C9441.38,-302.885 9511.46,-299.682 9575,-298 9608.97,-297.101 14440.8,-299.003 14469,-280 14483.4,-270.261 14490.7,-251.936 14494.3,-236.343"/>
<polygon fill="black" stroke="black" points="14497.9,-236.608 14496.3,-226.124 14491,-235.271 14497.9,-236.608"/>
<text text-anchor="middle" x="14499.5" y="-268.8" font-family="Times,serif" font-size="14.00">read</text>
</g>
<!-- 10.1.80.247:40102#ServerID_OuterContainerID -->
<g id="node31" class="node"><title>10.1.80.247:40102#ServerID_OuterContainerID</title>
<polygon fill="none" stroke="black" points="4407,-334 4071.52,-316 4407,-298 4742.48,-316 4407,-334"/>
<text text-anchor="middle" x="4407" y="-312.3" font-family="Times,serif" font-size="14.00">10.1.80.247:40102#ServerID_OuterContainerID</text>
</g>
<!-- 10.1.80.247:40102#ServerID_OuterContainerID&#45;&gt;1_fwatchdog#ServerID_e56b6537e2d5 -->
<g id="edge41" class="edge"><title>10.1.80.247:40102#ServerID_OuterContainerID&#45;&gt;1_fwatchdog#ServerID_e56b6537e2d5</title>
<path fill="none" stroke="black" d="M4557.23,-306.05C4617.72,-302.851 4688.15,-299.634 4752,-298 4768.07,-297.589 14000.6,-291.379 14012,-280 14024.7,-267.268 14015.4,-248.858 14003.3,-233.976"/>
<polygon fill="black" stroke="black" points="14005.6,-231.347 13996.4,-226.13 14000.4,-235.959 14005.6,-231.347"/>
<text text-anchor="middle" x="14035.5" y="-268.8" font-family="Times,serif" font-size="14.00">read</text>
</g>
<!-- 10.1.80.1:15178#ServerID_OuterContainerID&#45;&gt;10.1.80.247:8080#ServerID_OuterContainerID -->
<g id="edge42" class="edge"><title>10.1.80.1:15178#ServerID_OuterContainerID&#45;&gt;10.1.80.247:8080#ServerID_OuterContainerID</title>
<path fill="none" stroke="black" d="M944.349,-221.595C854.727,-235.909 703.855,-259.896 574,-280 528.634,-287.024 478.231,-294.678 436.112,-301.032"/>
<polygon fill="black" stroke="black" points="435.515,-297.582 426.149,-302.534 436.559,-304.504 435.515,-297.582"/>
<text text-anchor="middle" x="680" y="-268.8" font-family="Times,serif" font-size="14.00">POST</text>
</g>
<!-- 10.1.80.1:51637#ServerID_OuterContainerID&#45;&gt;10.1.80.247:8080#ServerID_OuterContainerID -->
<g id="edge45" class="edge"><title>10.1.80.1:51637#ServerID_OuterContainerID&#45;&gt;10.1.80.247:8080#ServerID_OuterContainerID</title>
<path fill="none" stroke="black" d="M1603.32,-221.74C1536.97,-232.51 1437.83,-247.64 1351,-257 1300.06,-262.491 1285.59,-252.131 1236,-265 1220.8,-268.945 1219.27,-276.322 1204,-280 1090.73,-307.281 796.409,-293.065 680,-298 624.487,-300.353 563.85,-303.297 509.506,-306.069"/>
<polygon fill="black" stroke="black" points="509.242,-302.578 499.434,-306.585 509.6,-309.569 509.242,-302.578"/>
<text text-anchor="middle" x="1256" y="-268.8" font-family="Times,serif" font-size="14.00">POST</text>
</g>
</g>
</svg>
