<?xml version="1.0" encoding="UTF-8" standalone="no"?>
<!DOCTYPE svg PUBLIC "-//W3C//DTD SVG 1.1//EN"
 "http://www.w3.org/Graphics/SVG/1.1/DTD/svg11.dtd">
<!-- Generated by graphviz version 2.38.0 (20140413.2041)
 -->
<!-- Title: G Pages: 1 -->
<svg width="4435pt" height="684pt"
 viewBox="0.00 0.00 4435.00 684.00" xmlns="http://www.w3.org/2000/svg" xmlns:xlink="http://www.w3.org/1999/xlink">
<g id="graph0" class="graph" transform="scale(1 1) rotate(0) translate(4 680)">
<title>G</title>
<polygon fill="white" stroke="none" points="-4,4 -4,-680 4431,-680 4431,4 -4,4"/>
<g id="clust1" class="cluster"><title>clusterServerID_5f846fd567&#45;wptbp</title>
<polygon fill="none" stroke="black" points="1864,-485 1864,-560 2204,-560 2204,-485 1864,-485"/>
<text text-anchor="middle" x="2034" y="-544.8" font-family="Times,serif" font-size="14.00">clusterServerID_5f846fd567&#45;wptbp</text>
</g>
<g id="clust2" class="cluster"><title>clusterServerID_62fde1e95276</title>
<polygon fill="none" stroke="black" points="3312,-377 3312,-668 4419,-668 4419,-377 3312,-377"/>
<text text-anchor="middle" x="3865.5" y="-652.8" font-family="Times,serif" font-size="14.00">clusterServerID_62fde1e95276</text>
</g>
<g id="clust3" class="cluster"><title>clusterServerID_6df85d7674&#45;kxx8d</title>
<polygon fill="none" stroke="black" points="827,-485 827,-560 1169,-560 1169,-485 827,-485"/>
<text text-anchor="middle" x="998" y="-544.8" font-family="Times,serif" font-size="14.00">clusterServerID_6df85d7674&#45;kxx8d</text>
</g>
<g id="clust4" class="cluster"><title>clusterServerID_OuterContainerID</title>
<polygon fill="none" stroke="black" points="8,-269 8,-452 3304,-452 3304,-269 8,-269"/>
<text text-anchor="middle" x="1656" y="-436.8" font-family="Times,serif" font-size="14.00">clusterServerID_OuterContainerID</text>
</g>
<g id="clust5" class="cluster"><title>clusterServerID_d4490627de97</title>
<polygon fill="none" stroke="black" points="3312,-8 3312,-344 4346,-344 4346,-8 3312,-8"/>
<text text-anchor="middle" x="3829" y="-328.8" font-family="Times,serif" font-size="14.00">clusterServerID_d4490627de97</text>
</g>
<!-- 1_fwatchdog#ServerID_6df85d7674&#45;kxx8d -->
<g id="node1" class="node"><title>1_fwatchdog#ServerID_6df85d7674&#45;kxx8d</title>
<polygon fill="none" stroke="black" points="1161,-529 835,-529 835,-493 1161,-493 1161,-529"/>
<text text-anchor="middle" x="998" y="-507.3" font-family="Times,serif" font-size="14.00">1_fwatchdog#ServerID_6df85d7674&#45;kxx8d</text>
</g>
<!-- 10.1.80.93:8080#ServerID_OuterContainerID -->
<g id="node2" class="node"><title>10.1.80.93:8080#ServerID_OuterContainerID</title>
<polygon fill="none" stroke="black" points="335,-421 16.1049,-403 335,-385 653.895,-403 335,-421"/>
<text text-anchor="middle" x="335" y="-399.3" font-family="Times,serif" font-size="14.00">10.1.80.93:8080#ServerID_OuterContainerID</text>
</g>
<!-- 1_fwatchdog#ServerID_6df85d7674&#45;kxx8d&#45;&gt;10.1.80.93:8080#ServerID_OuterContainerID -->
<g id="edge1" class="edge"><title>1_fwatchdog#ServerID_6df85d7674&#45;kxx8d&#45;&gt;10.1.80.93:8080#ServerID_OuterContainerID</title>
<path fill="none" stroke="black" d="M834.913,-495.098C784.769,-489.714 729.494,-482.963 679,-475 582.546,-459.79 472.169,-435.829 403.022,-420.016"/>
<polygon fill="black" stroke="black" points="403.655,-416.57 393.126,-417.744 402.089,-423.393 403.655,-416.57"/>
<text text-anchor="middle" x="699" y="-463.8" font-family="Times,serif" font-size="14.00">POST</text>
</g>
<!-- 10.1.80.93:39176#ServerID_OuterContainerID -->
<g id="node5" class="node"><title>10.1.80.93:39176#ServerID_OuterContainerID</title>
<polygon fill="none" stroke="black" points="999,-421 671.56,-403 999,-385 1326.44,-403 999,-421"/>
<text text-anchor="middle" x="999" y="-399.3" font-family="Times,serif" font-size="14.00">10.1.80.93:39176#ServerID_OuterContainerID</text>
</g>
<!-- 1_fwatchdog#ServerID_6df85d7674&#45;kxx8d&#45;&gt;10.1.80.93:39176#ServerID_OuterContainerID -->
<g id="edge5" class="edge"><title>1_fwatchdog#ServerID_6df85d7674&#45;kxx8d&#45;&gt;10.1.80.93:39176#ServerID_OuterContainerID</title>
<path fill="none" stroke="black" d="M959.069,-492.889C946.19,-484.513 936.405,-473.341 942,-460 947.473,-446.951 957.633,-435.41 967.877,-426.248"/>
<polygon fill="black" stroke="black" points="970.244,-428.83 975.651,-419.719 965.742,-423.47 970.244,-428.83"/>
<text text-anchor="middle" x="984" y="-463.8" font-family="Times,serif" font-size="14.00">RESPONSE</text>
</g>
<!-- gateway:8080#ServerID_OuterContainerID -->
<g id="node6" class="node"><title>gateway:8080#ServerID_OuterContainerID</title>
<polygon fill="none" stroke="black" points="1648,-421 1343.52,-403 1648,-385 1952.48,-403 1648,-421"/>
<text text-anchor="middle" x="1648" y="-399.3" font-family="Times,serif" font-size="14.00">gateway:8080#ServerID_OuterContainerID</text>
</g>
<!-- 1_fwatchdog#ServerID_6df85d7674&#45;kxx8d&#45;&gt;gateway:8080#ServerID_OuterContainerID -->
<g id="edge4" class="edge"><title>1_fwatchdog#ServerID_6df85d7674&#45;kxx8d&#45;&gt;gateway:8080#ServerID_OuterContainerID</title>
<path fill="none" stroke="black" d="M1142.56,-492.973C1183.8,-487.689 1228.73,-481.525 1270,-475 1375.88,-458.258 1497.62,-434.592 1573.69,-419.27"/>
<polygon fill="black" stroke="black" points="1574.54,-422.668 1583.65,-417.258 1573.16,-415.807 1574.54,-422.668"/>
<text text-anchor="middle" x="1374" y="-463.8" font-family="Times,serif" font-size="14.00">POST</text>
</g>
<!-- 10.1.80.93:8080#ServerID_OuterContainerID&#45;&gt;1_fwatchdog#ServerID_6df85d7674&#45;kxx8d -->
<g id="edge6" class="edge"><title>10.1.80.93:8080#ServerID_OuterContainerID&#45;&gt;1_fwatchdog#ServerID_6df85d7674&#45;kxx8d</title>
<path fill="none" stroke="black" d="M418.573,-416.31C484.851,-426.054 579.84,-439.975 663,-452 687.883,-455.598 694.178,-456.004 719,-460 778.335,-469.552 844.554,-481.37 897.586,-491.117"/>
<polygon fill="black" stroke="black" points="897.201,-494.605 907.67,-492.975 898.469,-487.721 897.201,-494.605"/>
<text text-anchor="middle" x="846" y="-463.8" font-family="Times,serif" font-size="14.00">RESPONSE</text>
</g>
<!-- 10.1.80.1:1999#ServerID_OuterContainerID -->
<g id="node19" class="node"><title>10.1.80.1:1999#ServerID_OuterContainerID</title>
<polygon fill="none" stroke="black" points="966,-313 655.15,-295 966,-277 1276.85,-295 966,-313"/>
<text text-anchor="middle" x="966" y="-291.3" font-family="Times,serif" font-size="14.00">10.1.80.1:1999#ServerID_OuterContainerID</text>
</g>
<!-- 10.1.80.93:8080#ServerID_OuterContainerID&#45;&gt;10.1.80.1:1999#ServerID_OuterContainerID -->
<g id="edge24" class="edge"><title>10.1.80.93:8080#ServerID_OuterContainerID&#45;&gt;10.1.80.1:1999#ServerID_OuterContainerID</title>
<path fill="none" stroke="black" d="M385.546,-387.792C428.231,-376.347 491.15,-360.768 547,-352 591.047,-345.085 602.706,-349.098 647,-344 726.747,-334.822 817.194,-320.874 881.361,-310.375"/>
<polygon fill="black" stroke="black" points="882.128,-313.796 891.428,-308.721 880.993,-306.889 882.128,-313.796"/>
<text text-anchor="middle" x="589" y="-355.8" font-family="Times,serif" font-size="14.00">RESPONSE</text>
</g>
<!-- 10.0.88.125:31112#ServerID_OuterContainerID -->
<g id="node20" class="node"><title>10.0.88.125:31112#ServerID_OuterContainerID</title>
<polygon fill="none" stroke="black" points="1630,-313 1294.52,-295 1630,-277 1965.48,-295 1630,-313"/>
<text text-anchor="middle" x="1630" y="-291.3" font-family="Times,serif" font-size="14.00">10.0.88.125:31112#ServerID_OuterContainerID</text>
</g>
<!-- 10.1.80.93:8080#ServerID_OuterContainerID&#45;&gt;10.0.88.125:31112#ServerID_OuterContainerID -->
<g id="edge25" class="edge"><title>10.1.80.93:8080#ServerID_OuterContainerID&#45;&gt;10.0.88.125:31112#ServerID_OuterContainerID</title>
<path fill="none" stroke="black" d="M458.388,-391.917C519.856,-387.066 595.323,-381.371 663,-377 939.701,-359.129 1009.99,-370.517 1286,-344 1373.39,-335.604 1472.64,-321.233 1542,-310.399"/>
<polygon fill="black" stroke="black" points="1542.67,-313.836 1552.01,-308.827 1541.59,-306.921 1542.67,-313.836"/>
<text text-anchor="middle" x="1237" y="-355.8" font-family="Times,serif" font-size="14.00">RESPONSE</text>
</g>
<!-- 10.1.80.1:5664#ServerID_OuterContainerID -->
<g id="node21" class="node"><title>10.1.80.1:5664#ServerID_OuterContainerID</title>
<polygon fill="none" stroke="black" points="327,-313 16.1496,-295 327,-277 637.85,-295 327,-313"/>
<text text-anchor="middle" x="327" y="-291.3" font-family="Times,serif" font-size="14.00">10.1.80.1:5664#ServerID_OuterContainerID</text>
</g>
<!-- 10.1.80.93:8080#ServerID_OuterContainerID&#45;&gt;10.1.80.1:5664#ServerID_OuterContainerID -->
<g id="edge27" class="edge"><title>10.1.80.93:8080#ServerID_OuterContainerID&#45;&gt;10.1.80.1:5664#ServerID_OuterContainerID</title>
<path fill="none" stroke="black" d="M337.928,-384.962C338.775,-379.269 339.582,-372.878 340,-367 340.473,-360.35 340.759,-358.623 340,-352 338.894,-342.346 336.749,-331.935 334.515,-322.74"/>
<polygon fill="black" stroke="black" points="337.886,-321.793 332.006,-312.98 331.106,-323.536 337.886,-321.793"/>
<text text-anchor="middle" x="383" y="-355.8" font-family="Times,serif" font-size="14.00">RESPONSE</text>
</g>
<!-- 1_fwatchdog#ServerID_5f846fd567&#45;wptbp -->
<g id="node3" class="node"><title>1_fwatchdog#ServerID_5f846fd567&#45;wptbp</title>
<polygon fill="none" stroke="black" points="2196,-529 1872,-529 1872,-493 2196,-493 2196,-529"/>
<text text-anchor="middle" x="2034" y="-507.3" font-family="Times,serif" font-size="14.00">1_fwatchdog#ServerID_5f846fd567&#45;wptbp</text>
</g>
<!-- 10.1.80.93:52814#ServerID_OuterContainerID -->
<g id="node4" class="node"><title>10.1.80.93:52814#ServerID_OuterContainerID</title>
<polygon fill="none" stroke="black" points="2297,-421 1969.56,-403 2297,-385 2624.44,-403 2297,-421"/>
<text text-anchor="middle" x="2297" y="-399.3" font-family="Times,serif" font-size="14.00">10.1.80.93:52814#ServerID_OuterContainerID</text>
</g>
<!-- 1_fwatchdog#ServerID_5f846fd567&#45;wptbp&#45;&gt;10.1.80.93:52814#ServerID_OuterContainerID -->
<g id="edge2" class="edge"><title>1_fwatchdog#ServerID_5f846fd567&#45;wptbp&#45;&gt;10.1.80.93:52814#ServerID_OuterContainerID</title>
<path fill="none" stroke="black" d="M2149.42,-492.977C2169.59,-490.181 2190.4,-487.413 2210,-485 2220.64,-483.69 2298.82,-482.966 2306,-475 2316.75,-463.076 2314.35,-445.106 2309.35,-430.228"/>
<polygon fill="black" stroke="black" points="2312.47,-428.596 2305.59,-420.535 2305.94,-431.124 2312.47,-428.596"/>
<text text-anchor="middle" x="2355" y="-463.8" font-family="Times,serif" font-size="14.00">RESPONSE</text>
</g>
<!-- 10.1.80.93:52814#ServerID_OuterContainerID&#45;&gt;1_fwatchdog#ServerID_5f846fd567&#45;wptbp -->
<g id="edge7" class="edge"><title>10.1.80.93:52814#ServerID_OuterContainerID&#45;&gt;1_fwatchdog#ServerID_5f846fd567&#45;wptbp</title>
<path fill="none" stroke="black" d="M2259.53,-419.1C2214.02,-437.444 2136.99,-468.49 2085.81,-489.117"/>
<polygon fill="black" stroke="black" points="2084.22,-485.985 2076.26,-492.969 2086.84,-492.477 2084.22,-485.985"/>
<text text-anchor="middle" x="2178" y="-463.8" font-family="Times,serif" font-size="14.00">POST</text>
</g>
<!-- 1_fwatchdog#ServerID_d4490627de97 -->
<g id="node14" class="node"><title>1_fwatchdog#ServerID_d4490627de97</title>
<polygon fill="none" stroke="black" points="3757.5,-313 3458.5,-313 3458.5,-277 3757.5,-277 3757.5,-313"/>
<text text-anchor="middle" x="3608" y="-291.3" font-family="Times,serif" font-size="14.00">1_fwatchdog#ServerID_d4490627de97</text>
</g>
<!-- 10.1.80.93:52814#ServerID_OuterContainerID&#45;&gt;1_fwatchdog#ServerID_d4490627de97 -->
<g id="edge17" class="edge"><title>10.1.80.93:52814#ServerID_OuterContainerID&#45;&gt;1_fwatchdog#ServerID_d4490627de97</title>
<path fill="none" stroke="black" d="M2422.6,-391.894C2485.71,-387.009 2563.38,-381.291 2633,-377 2932.79,-358.522 3009.26,-375.107 3308,-344 3375.07,-337.016 3449.98,-325.035 3508.16,-314.791"/>
<polygon fill="black" stroke="black" points="3508.85,-318.223 3518.09,-313.032 3507.63,-311.331 3508.85,-318.223"/>
<text text-anchor="middle" x="3226.5" y="-355.8" font-family="Times,serif" font-size="14.00">read</text>
</g>
<!-- 10.1.80.93:39176#ServerID_OuterContainerID&#45;&gt;1_fwatchdog#ServerID_6df85d7674&#45;kxx8d -->
<g id="edge3" class="edge"><title>10.1.80.93:39176#ServerID_OuterContainerID&#45;&gt;1_fwatchdog#ServerID_6df85d7674&#45;kxx8d</title>
<path fill="none" stroke="black" d="M1013.86,-420.197C1025.08,-434.485 1037.4,-455.942 1030,-475 1028.64,-478.507 1026.74,-481.876 1024.55,-485.046"/>
<polygon fill="black" stroke="black" points="1021.75,-482.944 1018.2,-492.928 1027.2,-487.335 1021.75,-482.944"/>
<text text-anchor="middle" x="1053" y="-463.8" font-family="Times,serif" font-size="14.00">POST</text>
</g>
<!-- 1_fwatchdog#ServerID_62fde1e95276 -->
<g id="node7" class="node"><title>1_fwatchdog#ServerID_62fde1e95276</title>
<polygon fill="none" stroke="black" points="3615.5,-637 3320.5,-637 3320.5,-601 3615.5,-601 3615.5,-637"/>
<text text-anchor="middle" x="3468" y="-615.3" font-family="Times,serif" font-size="14.00">1_fwatchdog#ServerID_62fde1e95276</text>
</g>
<!-- 10.1.80.93:39176#ServerID_OuterContainerID&#45;&gt;1_fwatchdog#ServerID_62fde1e95276 -->
<g id="edge11" class="edge"><title>10.1.80.93:39176#ServerID_OuterContainerID&#45;&gt;1_fwatchdog#ServerID_62fde1e95276</title>
<path fill="none" stroke="black" d="M1073.47,-416.911C1141.39,-428.142 1244.62,-443.858 1335,-452 1721.71,-486.836 1820.71,-457.272 2208,-485 2613.9,-514.061 3091.16,-570.576 3324.67,-599.69"/>
<polygon fill="black" stroke="black" points="3324.56,-603.204 3334.92,-600.97 3325.43,-596.258 3324.56,-603.204"/>
<text text-anchor="middle" x="2998.5" y="-507.3" font-family="Times,serif" font-size="14.00">read</text>
</g>
<!-- gateway:8080#ServerID_OuterContainerID&#45;&gt;1_fwatchdog#ServerID_6df85d7674&#45;kxx8d -->
<g id="edge8" class="edge"><title>gateway:8080#ServerID_OuterContainerID&#45;&gt;1_fwatchdog#ServerID_6df85d7674&#45;kxx8d</title>
<path fill="none" stroke="black" d="M1577.4,-416.891C1514.13,-427.949 1418.67,-443.418 1335,-452 1267.26,-458.947 1249.24,-449.233 1182,-460 1140.32,-466.674 1094.51,-479.105 1059.03,-489.901"/>
<polygon fill="black" stroke="black" points="1057.83,-486.607 1049.31,-492.897 1059.89,-493.297 1057.83,-486.607"/>
<text text-anchor="middle" x="1224" y="-463.8" font-family="Times,serif" font-size="14.00">RESPONSE</text>
</g>
<!-- localhost:3000#ServerID_62fde1e95276 -->
<g id="node8" class="node"><title>localhost:3000#ServerID_62fde1e95276</title>
<polygon fill="none" stroke="black" points="3603,-529 3319.8,-511 3603,-493 3886.2,-511 3603,-529"/>
<text text-anchor="middle" x="3603" y="-507.3" font-family="Times,serif" font-size="14.00">localhost:3000#ServerID_62fde1e95276</text>
</g>
<!-- 1_fwatchdog#ServerID_62fde1e95276&#45;&gt;localhost:3000#ServerID_62fde1e95276 -->
<g id="edge9" class="edge"><title>1_fwatchdog#ServerID_62fde1e95276&#45;&gt;localhost:3000#ServerID_62fde1e95276</title>
<path fill="none" stroke="black" d="M3489.69,-600.969C3512.73,-582.882 3549.24,-554.213 3574.56,-534.327"/>
<polygon fill="black" stroke="black" points="3576.98,-536.877 3582.69,-527.948 3572.66,-531.371 3576.98,-536.877"/>
<text text-anchor="middle" x="3550" y="-571.8" font-family="Times,serif" font-size="14.00">write</text>
</g>
<!-- 15_node#ServerID_62fde1e95276 -->
<g id="node9" class="node"><title>15_node#ServerID_62fde1e95276</title>
<polygon fill="none" stroke="black" points="4167.5,-529 3904.5,-529 3904.5,-493 4167.5,-493 4167.5,-529"/>
<text text-anchor="middle" x="4036" y="-507.3" font-family="Times,serif" font-size="14.00">15_node#ServerID_62fde1e95276</text>
</g>
<!-- 15_node#ServerID_62fde1e95276&#45;&gt;gateway:8080#ServerID_OuterContainerID -->
<g id="edge16" class="edge"><title>15_node#ServerID_62fde1e95276&#45;&gt;gateway:8080#ServerID_OuterContainerID</title>
<path fill="none" stroke="black" d="M3952.8,-492.954C3933.88,-489.718 3913.81,-486.788 3895,-485 3738.14,-470.086 3343.55,-477.616 3186,-475 2837.1,-469.206 2749.89,-466.505 2401,-460 2303.22,-458.177 2058.44,-460.319 1961,-452 1880.15,-445.097 1788.48,-430.197 1725.34,-418.817"/>
<polygon fill="black" stroke="black" points="1725.92,-415.365 1715.46,-417.022 1724.67,-422.253 1725.92,-415.365"/>
<text text-anchor="middle" x="3215" y="-463.8" font-family="Times,serif" font-size="14.00">connect</text>
</g>
<!-- pipe:[18737782]#ServerID_62fde1e95276 -->
<g id="node10" class="node"><title>pipe:[18737782]#ServerID_62fde1e95276</title>
<ellipse fill="none" stroke="black" cx="4036" cy="-403" rx="208.763" ry="18"/>
<text text-anchor="middle" x="4036" y="-399.3" font-family="Times,serif" font-size="14.00">pipe:[18737782]#ServerID_62fde1e95276</text>
</g>
<!-- 15_node#ServerID_62fde1e95276&#45;&gt;pipe:[18737782]#ServerID_62fde1e95276 -->
<g id="edge10" class="edge"><title>15_node#ServerID_62fde1e95276&#45;&gt;pipe:[18737782]#ServerID_62fde1e95276</title>
<path fill="none" stroke="black" d="M4036,-492.969C4036,-476.378 4036,-450.883 4036,-431.431"/>
<polygon fill="black" stroke="black" points="4039.5,-431.341 4036,-421.341 4032.5,-431.341 4039.5,-431.341"/>
<text text-anchor="middle" x="4055" y="-463.8" font-family="Times,serif" font-size="14.00">write</text>
</g>
<!-- 10.152.183.10:53#ServerID_OuterContainerID -->
<g id="node13" class="node"><title>10.152.183.10:53#ServerID_OuterContainerID</title>
<polygon fill="none" stroke="black" points="2969,-421 2641.56,-403 2969,-385 3296.44,-403 2969,-421"/>
<text text-anchor="middle" x="2969" y="-399.3" font-family="Times,serif" font-size="14.00">10.152.183.10:53#ServerID_OuterContainerID</text>
</g>
<!-- 15_node#ServerID_62fde1e95276&#45;&gt;10.152.183.10:53#ServerID_OuterContainerID -->
<g id="edge15" class="edge"><title>15_node#ServerID_62fde1e95276&#45;&gt;10.152.183.10:53#ServerID_OuterContainerID</title>
<path fill="none" stroke="black" d="M3952.42,-492.951C3933.61,-489.737 3913.68,-486.817 3895,-485 3655.64,-461.714 3593.27,-499.11 3354,-475 3242.04,-463.718 3113.86,-437.332 3037.27,-420.097"/>
<polygon fill="black" stroke="black" points="3037.8,-416.628 3027.28,-417.833 3036.26,-423.455 3037.8,-416.628"/>
<text text-anchor="middle" x="3378.5" y="-463.8" font-family="Times,serif" font-size="14.00">sendto</text>
</g>
<!-- /etc/resolv.conf#ServerID_62fde1e95276 -->
<g id="node11" class="node"><title>/etc/resolv.conf#ServerID_62fde1e95276</title>
<ellipse fill="none" stroke="black" cx="3836" cy="-619" rx="202.564" ry="18"/>
<text text-anchor="middle" x="3836" y="-615.3" font-family="Times,serif" font-size="14.00">/etc/resolv.conf#ServerID_62fde1e95276</text>
</g>
<!-- /etc/resolv.conf#ServerID_62fde1e95276&#45;&gt;15_node#ServerID_62fde1e95276 -->
<g id="edge12" class="edge"><title>/etc/resolv.conf#ServerID_62fde1e95276&#45;&gt;15_node#ServerID_62fde1e95276</title>
<path fill="none" stroke="black" d="M3867.69,-601.204C3902.01,-583.014 3956.9,-553.926 3994.6,-533.941"/>
<polygon fill="black" stroke="black" points="3996.6,-536.844 4003.8,-529.068 3993.32,-530.659 3996.6,-536.844"/>
<text text-anchor="middle" x="3946.5" y="-571.8" font-family="Times,serif" font-size="14.00">read</text>
</g>
<!-- /etc/hosts#ServerID_62fde1e95276 -->
<g id="node12" class="node"><title>/etc/hosts#ServerID_62fde1e95276</title>
<ellipse fill="none" stroke="black" cx="4234" cy="-619" rx="177.369" ry="18"/>
<text text-anchor="middle" x="4234" y="-615.3" font-family="Times,serif" font-size="14.00">/etc/hosts#ServerID_62fde1e95276</text>
</g>
<!-- /etc/hosts#ServerID_62fde1e95276&#45;&gt;15_node#ServerID_62fde1e95276 -->
<g id="edge13" class="edge"><title>/etc/hosts#ServerID_62fde1e95276&#45;&gt;15_node#ServerID_62fde1e95276</title>
<path fill="none" stroke="black" d="M4202.63,-601.204C4168.65,-583.014 4114.31,-553.926 4076.98,-533.941"/>
<polygon fill="black" stroke="black" points="4078.35,-530.703 4067.88,-529.068 4075.05,-536.874 4078.35,-530.703"/>
<text text-anchor="middle" x="4180.5" y="-571.8" font-family="Times,serif" font-size="14.00">read</text>
</g>
<!-- 10.152.183.10:53#ServerID_OuterContainerID&#45;&gt;15_node#ServerID_62fde1e95276 -->
<g id="edge14" class="edge"><title>10.152.183.10:53#ServerID_OuterContainerID&#45;&gt;15_node#ServerID_62fde1e95276</title>
<path fill="none" stroke="black" d="M3046.19,-416.826C3114.76,-427.765 3217.79,-443.094 3308,-452 3568.04,-477.673 3635.45,-454.804 3895,-485 3909.35,-486.669 3924.44,-488.868 3939.21,-491.27"/>
<polygon fill="black" stroke="black" points="3938.93,-494.772 3949.37,-492.962 3940.08,-487.867 3938.93,-494.772"/>
<text text-anchor="middle" x="3816" y="-463.8" font-family="Times,serif" font-size="14.00">recvfrom</text>
</g>
<!-- localhost:3000#ServerID_d4490627de97 -->
<g id="node15" class="node"><title>localhost:3000#ServerID_d4490627de97</title>
<polygon fill="none" stroke="black" points="3608,-226 3320.11,-208 3608,-190 3895.89,-208 3608,-226"/>
<text text-anchor="middle" x="3608" y="-204.3" font-family="Times,serif" font-size="14.00">localhost:3000#ServerID_d4490627de97</text>
</g>
<!-- 1_fwatchdog#ServerID_d4490627de97&#45;&gt;localhost:3000#ServerID_d4490627de97 -->
<g id="edge18" class="edge"><title>1_fwatchdog#ServerID_d4490627de97&#45;&gt;localhost:3000#ServerID_d4490627de97</title>
<path fill="none" stroke="black" d="M3588.42,-276.764C3580.33,-267.482 3573.72,-255.583 3578,-244 3579.4,-240.224 3581.4,-236.58 3583.73,-233.162"/>
<polygon fill="black" stroke="black" points="3586.56,-235.214 3589.98,-225.186 3581.06,-230.893 3586.56,-235.214"/>
<text text-anchor="middle" x="3597" y="-247.8" font-family="Times,serif" font-size="14.00">write</text>
</g>
<!-- pipe:[18738434]#ServerID_d4490627de97 -->
<g id="node18" class="node"><title>pipe:[18738434]#ServerID_d4490627de97</title>
<ellipse fill="none" stroke="black" cx="4126" cy="-208" rx="211.762" ry="18"/>
<text text-anchor="middle" x="4126" y="-204.3" font-family="Times,serif" font-size="14.00">pipe:[18738434]#ServerID_d4490627de97</text>
</g>
<!-- 1_fwatchdog#ServerID_d4490627de97&#45;&gt;pipe:[18738434]#ServerID_d4490627de97 -->
<g id="edge22" class="edge"><title>1_fwatchdog#ServerID_d4490627de97&#45;&gt;pipe:[18738434]#ServerID_d4490627de97</title>
<path fill="none" stroke="black" d="M3711.89,-276.952C3802.42,-262.098 3932.97,-240.676 4023.17,-225.873"/>
<polygon fill="black" stroke="black" points="4023.84,-229.31 4033.15,-224.237 4022.71,-222.402 4023.84,-229.31"/>
<text text-anchor="middle" x="3917" y="-247.8" font-family="Times,serif" font-size="14.00">write</text>
</g>
<!-- localhost:3000#ServerID_d4490627de97&#45;&gt;1_fwatchdog#ServerID_d4490627de97 -->
<g id="edge21" class="edge"><title>localhost:3000#ServerID_d4490627de97&#45;&gt;1_fwatchdog#ServerID_d4490627de97</title>
<path fill="none" stroke="black" d="M3612.68,-225.958C3614.04,-231.646 3615.33,-238.054 3616,-244 3616.84,-251.481 3616.23,-259.553 3615.03,-266.982"/>
<polygon fill="black" stroke="black" points="3611.57,-266.438 3613.05,-276.929 3618.44,-267.805 3611.57,-266.438"/>
<text text-anchor="middle" x="3632.5" y="-247.8" font-family="Times,serif" font-size="14.00">read</text>
</g>
<!-- 10_node#ServerID_d4490627de97 -->
<g id="node16" class="node"><title>10_node#ServerID_d4490627de97</title>
<polygon fill="none" stroke="black" points="3742,-139 3474,-139 3474,-103 3742,-103 3742,-139"/>
<text text-anchor="middle" x="3608" y="-117.3" font-family="Times,serif" font-size="14.00">10_node#ServerID_d4490627de97</text>
</g>
<!-- localhost:3000#ServerID_d4490627de97&#45;&gt;10_node#ServerID_d4490627de97 -->
<g id="edge19" class="edge"><title>localhost:3000#ServerID_d4490627de97&#45;&gt;10_node#ServerID_d4490627de97</title>
<path fill="none" stroke="black" d="M3608,-189.799C3608,-178.163 3608,-162.548 3608,-149.237"/>
<polygon fill="black" stroke="black" points="3611.5,-149.175 3608,-139.175 3604.5,-149.175 3611.5,-149.175"/>
<text text-anchor="middle" x="3624.5" y="-160.8" font-family="Times,serif" font-size="14.00">read</text>
</g>
<!-- pipe:[18738585]#ServerID_d4490627de97 -->
<g id="node17" class="node"><title>pipe:[18738585]#ServerID_d4490627de97</title>
<ellipse fill="none" stroke="black" cx="3608" cy="-34" rx="211.762" ry="18"/>
<text text-anchor="middle" x="3608" y="-30.3" font-family="Times,serif" font-size="14.00">pipe:[18738585]#ServerID_d4490627de97</text>
</g>
<!-- 10_node#ServerID_d4490627de97&#45;&gt;pipe:[18738585]#ServerID_d4490627de97 -->
<g id="edge20" class="edge"><title>10_node#ServerID_d4490627de97&#45;&gt;pipe:[18738585]#ServerID_d4490627de97</title>
<path fill="none" stroke="black" d="M3608,-102.799C3608,-91.1626 3608,-75.5479 3608,-62.2368"/>
<polygon fill="black" stroke="black" points="3611.5,-62.1754 3608,-52.1754 3604.5,-62.1755 3611.5,-62.1754"/>
<text text-anchor="middle" x="3627" y="-73.8" font-family="Times,serif" font-size="14.00">write</text>
</g>
<!-- 10.1.80.1:1999#ServerID_OuterContainerID&#45;&gt;10.1.80.93:8080#ServerID_OuterContainerID -->
<g id="edge23" class="edge"><title>10.1.80.1:1999#ServerID_OuterContainerID&#45;&gt;10.1.80.93:8080#ServerID_OuterContainerID</title>
<path fill="none" stroke="black" d="M909.793,-309.766C844.191,-325.435 732.272,-350.931 635,-367 577.164,-376.554 512.632,-384.439 458.281,-390.289"/>
<polygon fill="black" stroke="black" points="457.827,-386.818 448.254,-391.358 458.569,-393.778 457.827,-386.818"/>
<text text-anchor="middle" x="738" y="-355.8" font-family="Times,serif" font-size="14.00">POST</text>
</g>
<!-- 10.1.80.1:5664#ServerID_OuterContainerID&#45;&gt;10.1.80.93:8080#ServerID_OuterContainerID -->
<g id="edge26" class="edge"><title>10.1.80.1:5664#ServerID_OuterContainerID&#45;&gt;10.1.80.93:8080#ServerID_OuterContainerID</title>
<path fill="none" stroke="black" d="M313.454,-312.463C303.286,-326.923 292.329,-348.481 300,-367 301.665,-371.019 304.04,-374.818 306.779,-378.325"/>
<polygon fill="black" stroke="black" points="304.368,-380.877 313.669,-385.949 309.561,-376.183 304.368,-380.877"/>
<text text-anchor="middle" x="320" y="-355.8" font-family="Times,serif" font-size="14.00">POST</text>
</g>
</g>
</svg>
