<?xml version="1.0" encoding="UTF-8" standalone="no"?>
<!DOCTYPE svg PUBLIC "-//W3C//DTD SVG 1.1//EN"
 "http://www.w3.org/Graphics/SVG/1.1/DTD/svg11.dtd">
<!-- Generated by graphviz version 2.38.0 (20140413.2041)
 -->
<!-- Title: G Pages: 1 -->
<svg width="5886pt" height="381pt"
 viewBox="0.00 0.00 5886.00 381.00" xmlns="http://www.w3.org/2000/svg" xmlns:xlink="http://www.w3.org/1999/xlink">
<g id="graph0" class="graph" transform="scale(1 1) rotate(0) translate(4 377)">
<title>G</title>
<polygon fill="white" stroke="none" points="-4,4 -4,-377 5882,-377 5882,4 -4,4"/>
<g id="clust1" class="cluster"><title>clusterServerID_667d78fb58&#45;2fhs5</title>
<polygon fill="none" stroke="black" points="2840,-290 2840,-365 3180,-365 3180,-290 2840,-290"/>
<text text-anchor="middle" x="3010" y="-349.8" font-family="Times,serif" font-size="14.00">clusterServerID_667d78fb58&#45;2fhs5</text>
</g>
<g id="clust2" class="cluster"><title>clusterServerID_6dcbcc88d5&#45;4vpdn</title>
<polygon fill="none" stroke="black" points="820,-290 820,-365 1164,-365 1164,-290 820,-290"/>
<text text-anchor="middle" x="992" y="-349.8" font-family="Times,serif" font-size="14.00">clusterServerID_6dcbcc88d5&#45;4vpdn</text>
</g>
<g id="clust3" class="cluster"><title>clusterServerID_79226724f3b6</title>
<polygon fill="none" stroke="black" points="4760,-8 4760,-257 5870,-257 5870,-8 4760,-8"/>
<text text-anchor="middle" x="5315" y="-241.8" font-family="Times,serif" font-size="14.00">clusterServerID_79226724f3b6</text>
</g>
<g id="clust4" class="cluster"><title>clusterServerID_OuterContainerID</title>
<polygon fill="none" stroke="black" points="8,-95 8,-257 3354,-257 3354,-95 8,-95"/>
<text text-anchor="middle" x="1681" y="-241.8" font-family="Times,serif" font-size="14.00">clusterServerID_OuterContainerID</text>
</g>
<g id="clust5" class="cluster"><title>clusterServerID_d4de233c55aa</title>
<polygon fill="none" stroke="black" points="3362,-95 3362,-365 4752,-365 4752,-95 3362,-95"/>
<text text-anchor="middle" x="4057" y="-349.8" font-family="Times,serif" font-size="14.00">clusterServerID_d4de233c55aa</text>
</g>
<!-- 10.1.80.247:57840#ServerID_OuterContainerID -->
<g id="node1" class="node"><title>10.1.80.247:57840#ServerID_OuterContainerID</title>
<polygon fill="none" stroke="black" points="2322,-226 1986.52,-208 2322,-190 2657.48,-208 2322,-226"/>
<text text-anchor="middle" x="2322" y="-204.3" font-family="Times,serif" font-size="14.00">10.1.80.247:57840#ServerID_OuterContainerID</text>
</g>
<!-- 1_fwatchdog#ServerID_6dcbcc88d5&#45;4vpdn -->
<g id="node2" class="node"><title>1_fwatchdog#ServerID_6dcbcc88d5&#45;4vpdn</title>
<polygon fill="none" stroke="black" points="1156.5,-334 827.5,-334 827.5,-298 1156.5,-298 1156.5,-334"/>
<text text-anchor="middle" x="992" y="-312.3" font-family="Times,serif" font-size="14.00">1_fwatchdog#ServerID_6dcbcc88d5&#45;4vpdn</text>
</g>
<!-- 10.1.80.247:57840#ServerID_OuterContainerID&#45;&gt;1_fwatchdog#ServerID_6dcbcc88d5&#45;4vpdn -->
<g id="edge1" class="edge"><title>10.1.80.247:57840#ServerID_OuterContainerID&#45;&gt;1_fwatchdog#ServerID_6dcbcc88d5&#45;4vpdn</title>
<path fill="none" stroke="black" d="M2243.08,-221.799C2173.29,-232.681 2068.62,-247.943 1977,-257 1694.03,-284.971 1363.91,-301.054 1166.74,-308.905"/>
<polygon fill="black" stroke="black" points="1166.43,-305.414 1156.58,-309.307 1166.71,-312.409 1166.43,-305.414"/>
<text text-anchor="middle" x="1891" y="-268.8" font-family="Times,serif" font-size="14.00">POST</text>
</g>
<!-- 1_fwatchdog#ServerID_d4de233c55aa -->
<g id="node7" class="node"><title>1_fwatchdog#ServerID_d4de233c55aa</title>
<polygon fill="none" stroke="black" points="4136.5,-334 3839.5,-334 3839.5,-298 4136.5,-298 4136.5,-334"/>
<text text-anchor="middle" x="3988" y="-312.3" font-family="Times,serif" font-size="14.00">1_fwatchdog#ServerID_d4de233c55aa</text>
</g>
<!-- 10.1.80.247:57840#ServerID_OuterContainerID&#45;&gt;1_fwatchdog#ServerID_d4de233c55aa -->
<g id="edge11" class="edge"><title>10.1.80.247:57840#ServerID_OuterContainerID&#45;&gt;1_fwatchdog#ServerID_d4de233c55aa</title>
<path fill="none" stroke="black" d="M2396.76,-222.026C2466.45,-233.545 2573.41,-249.628 2667,-257 2854.01,-271.729 2901.54,-258.012 3089,-265 3348.48,-274.672 3649.73,-292.844 3829.29,-304.413"/>
<polygon fill="black" stroke="black" points="3829.14,-307.91 3839.34,-305.062 3829.59,-300.924 3829.14,-307.91"/>
<text text-anchor="middle" x="3427.5" y="-268.8" font-family="Times,serif" font-size="14.00">read</text>
</g>
<!-- 1_fwatchdog#ServerID_6dcbcc88d5&#45;4vpdn&#45;&gt;10.1.80.247:57840#ServerID_OuterContainerID -->
<g id="edge7" class="edge"><title>1_fwatchdog#ServerID_6dcbcc88d5&#45;4vpdn&#45;&gt;10.1.80.247:57840#ServerID_OuterContainerID</title>
<path fill="none" stroke="black" d="M1156.52,-299.292C1282.89,-287.855 1461.82,-273.017 1619,-265 1777.94,-256.893 1818.36,-269.765 1977,-257 2066.05,-249.834 2167.22,-234.954 2236.86,-223.649"/>
<polygon fill="black" stroke="black" points="2237.59,-227.075 2246.9,-222.008 2236.47,-220.167 2237.59,-227.075"/>
<text text-anchor="middle" x="1661" y="-268.8" font-family="Times,serif" font-size="14.00">RESPONSE</text>
</g>
<!-- gateway:8080#ServerID_OuterContainerID -->
<g id="node5" class="node"><title>gateway:8080#ServerID_OuterContainerID</title>
<polygon fill="none" stroke="black" points="992,-226 687.518,-208 992,-190 1296.48,-208 992,-226"/>
<text text-anchor="middle" x="992" y="-204.3" font-family="Times,serif" font-size="14.00">gateway:8080#ServerID_OuterContainerID</text>
</g>
<!-- 1_fwatchdog#ServerID_6dcbcc88d5&#45;4vpdn&#45;&gt;gateway:8080#ServerID_OuterContainerID -->
<g id="edge3" class="edge"><title>1_fwatchdog#ServerID_6dcbcc88d5&#45;4vpdn&#45;&gt;gateway:8080#ServerID_OuterContainerID</title>
<path fill="none" stroke="black" d="M973.041,-297.736C968.557,-292.523 964.388,-286.455 962,-280 956.211,-264.351 963.178,-247.103 971.849,-233.526"/>
<polygon fill="black" stroke="black" points="974.816,-235.389 977.675,-225.187 969.078,-231.38 974.816,-235.389"/>
<text text-anchor="middle" x="982" y="-268.8" font-family="Times,serif" font-size="14.00">POST</text>
</g>
<!-- 10.1.80.247:8080#ServerID_OuterContainerID -->
<g id="node6" class="node"><title>10.1.80.247:8080#ServerID_OuterContainerID</title>
<polygon fill="none" stroke="black" points="343,-226 15.5599,-208 343,-190 670.44,-208 343,-226"/>
<text text-anchor="middle" x="343" y="-204.3" font-family="Times,serif" font-size="14.00">10.1.80.247:8080#ServerID_OuterContainerID</text>
</g>
<!-- 1_fwatchdog#ServerID_6dcbcc88d5&#45;4vpdn&#45;&gt;10.1.80.247:8080#ServerID_OuterContainerID -->
<g id="edge6" class="edge"><title>1_fwatchdog#ServerID_6dcbcc88d5&#45;4vpdn&#45;&gt;10.1.80.247:8080#ServerID_OuterContainerID</title>
<path fill="none" stroke="black" d="M827.259,-311.468C744.307,-307.269 642.588,-298.421 553,-280 494.595,-267.991 429.967,-244.512 388.041,-227.846"/>
<polygon fill="black" stroke="black" points="389.254,-224.562 378.67,-224.084 386.646,-231.058 389.254,-224.562"/>
<text text-anchor="middle" x="573" y="-268.8" font-family="Times,serif" font-size="14.00">POST</text>
</g>
<!-- 1_fwatchdog#ServerID_667d78fb58&#45;2fhs5 -->
<g id="node3" class="node"><title>1_fwatchdog#ServerID_667d78fb58&#45;2fhs5</title>
<polygon fill="none" stroke="black" points="3171.5,-334 2848.5,-334 2848.5,-298 3171.5,-298 3171.5,-334"/>
<text text-anchor="middle" x="3010" y="-312.3" font-family="Times,serif" font-size="14.00">1_fwatchdog#ServerID_667d78fb58&#45;2fhs5</text>
</g>
<!-- 10.1.80.247:59796#ServerID_OuterContainerID -->
<g id="node4" class="node"><title>10.1.80.247:59796#ServerID_OuterContainerID</title>
<polygon fill="none" stroke="black" points="3011,-226 2675.52,-208 3011,-190 3346.48,-208 3011,-226"/>
<text text-anchor="middle" x="3011" y="-204.3" font-family="Times,serif" font-size="14.00">10.1.80.247:59796#ServerID_OuterContainerID</text>
</g>
<!-- 1_fwatchdog#ServerID_667d78fb58&#45;2fhs5&#45;&gt;10.1.80.247:59796#ServerID_OuterContainerID -->
<g id="edge2" class="edge"><title>1_fwatchdog#ServerID_667d78fb58&#45;2fhs5&#45;&gt;10.1.80.247:59796#ServerID_OuterContainerID</title>
<path fill="none" stroke="black" d="M2974.26,-297.861C2967.73,-293.032 2961.78,-287.108 2958,-280 2954.87,-274.115 2955.53,-271.194 2958,-265 2963,-252.439 2972.31,-241.073 2981.74,-231.914"/>
<polygon fill="black" stroke="black" points="2984.22,-234.386 2989.25,-225.061 2979.51,-229.214 2984.22,-234.386"/>
<text text-anchor="middle" x="3000" y="-268.8" font-family="Times,serif" font-size="14.00">RESPONSE</text>
</g>
<!-- 10.1.80.247:59796#ServerID_OuterContainerID&#45;&gt;1_fwatchdog#ServerID_667d78fb58&#45;2fhs5 -->
<g id="edge5" class="edge"><title>10.1.80.247:59796#ServerID_OuterContainerID&#45;&gt;1_fwatchdog#ServerID_667d78fb58&#45;2fhs5</title>
<path fill="none" stroke="black" d="M3026.08,-225.48C3037.24,-239.767 3049.35,-261.067 3042,-280 3040.64,-283.507 3038.74,-286.876 3036.55,-290.046"/>
<polygon fill="black" stroke="black" points="3033.75,-287.944 3030.2,-297.928 3039.2,-292.335 3033.75,-287.944"/>
<text text-anchor="middle" x="3065" y="-268.8" font-family="Times,serif" font-size="14.00">POST</text>
</g>
<!-- 1_fwatchdog#ServerID_79226724f3b6 -->
<g id="node10" class="node"><title>1_fwatchdog#ServerID_79226724f3b6</title>
<polygon fill="none" stroke="black" points="5145,-139 4849,-139 4849,-103 5145,-103 5145,-139"/>
<text text-anchor="middle" x="4997" y="-117.3" font-family="Times,serif" font-size="14.00">1_fwatchdog#ServerID_79226724f3b6</text>
</g>
<!-- 10.1.80.247:59796#ServerID_OuterContainerID&#45;&gt;1_fwatchdog#ServerID_79226724f3b6 -->
<g id="edge21" class="edge"><title>10.1.80.247:59796#ServerID_OuterContainerID&#45;&gt;1_fwatchdog#ServerID_79226724f3b6</title>
<path fill="none" stroke="black" d="M3077.42,-193.545C3140.74,-181.404 3238.92,-164.355 3325,-157 3641.87,-129.923 4438.25,-152.194 4756,-139 4782.78,-137.888 4811.21,-136.272 4838.79,-134.473"/>
<polygon fill="black" stroke="black" points="4839.16,-137.956 4848.91,-133.802 4838.7,-130.971 4839.16,-137.956"/>
<text text-anchor="middle" x="3341.5" y="-160.8" font-family="Times,serif" font-size="14.00">read</text>
</g>
<!-- gateway:8080#ServerID_OuterContainerID&#45;&gt;1_fwatchdog#ServerID_6dcbcc88d5&#45;4vpdn -->
<g id="edge4" class="edge"><title>gateway:8080#ServerID_OuterContainerID&#45;&gt;1_fwatchdog#ServerID_6dcbcc88d5&#45;4vpdn</title>
<path fill="none" stroke="black" d="M997.056,-225.927C1000.71,-240.311 1004.59,-261.508 1002,-280 1001.64,-282.574 1001.14,-285.224 1000.55,-287.859"/>
<polygon fill="black" stroke="black" points="997.102,-287.198 997.955,-297.759 1003.87,-288.971 997.102,-287.198"/>
<text text-anchor="middle" x="1045" y="-268.8" font-family="Times,serif" font-size="14.00">RESPONSE</text>
</g>
<!-- 10_node#ServerID_d4de233c55aa -->
<g id="node12" class="node"><title>10_node#ServerID_d4de233c55aa</title>
<polygon fill="none" stroke="black" points="3654,-139 3388,-139 3388,-103 3654,-103 3654,-139"/>
<text text-anchor="middle" x="3521" y="-117.3" font-family="Times,serif" font-size="14.00">10_node#ServerID_d4de233c55aa</text>
</g>
<!-- gateway:8080#ServerID_OuterContainerID&#45;&gt;10_node#ServerID_d4de233c55aa -->
<g id="edge13" class="edge"><title>gateway:8080#ServerID_OuterContainerID&#45;&gt;10_node#ServerID_d4de233c55aa</title>
<path fill="none" stroke="black" d="M1138.87,-198.646C1191.29,-195.764 1250.78,-192.608 1305,-190 1655.12,-173.161 1742.61,-166.828 2093,-157 2655.06,-141.235 2796.7,-172.197 3358,-139 3364.34,-138.625 3370.81,-138.187 3377.34,-137.698"/>
<polygon fill="black" stroke="black" points="3377.95,-141.161 3387.65,-136.892 3377.41,-134.182 3377.95,-141.161"/>
<text text-anchor="middle" x="2109.5" y="-160.8" font-family="Times,serif" font-size="14.00">read</text>
</g>
<!-- 10.1.80.247:8080#ServerID_OuterContainerID&#45;&gt;1_fwatchdog#ServerID_6dcbcc88d5&#45;4vpdn -->
<g id="edge8" class="edge"><title>10.1.80.247:8080#ServerID_OuterContainerID&#45;&gt;1_fwatchdog#ServerID_6dcbcc88d5&#45;4vpdn</title>
<path fill="none" stroke="black" d="M421.02,-221.743C534.646,-240.301 746.381,-274.883 877.636,-296.321"/>
<polygon fill="black" stroke="black" points="877.293,-299.811 887.727,-297.969 878.422,-292.903 877.293,-299.811"/>
<text text-anchor="middle" x="806" y="-268.8" font-family="Times,serif" font-size="14.00">RESPONSE</text>
</g>
<!-- 10.1.80.1:12716#ServerID_OuterContainerID -->
<g id="node18" class="node"><title>10.1.80.1:12716#ServerID_OuterContainerID</title>
<polygon fill="none" stroke="black" points="1023,-139 704.105,-121 1023,-103 1341.9,-121 1023,-139"/>
<text text-anchor="middle" x="1023" y="-117.3" font-family="Times,serif" font-size="14.00">10.1.80.1:12716#ServerID_OuterContainerID</text>
</g>
<!-- 10.1.80.247:8080#ServerID_OuterContainerID&#45;&gt;10.1.80.1:12716#ServerID_OuterContainerID -->
<g id="edge24" class="edge"><title>10.1.80.247:8080#ServerID_OuterContainerID&#45;&gt;10.1.80.1:12716#ServerID_OuterContainerID</title>
<path fill="none" stroke="black" d="M497.392,-198.441C578.232,-192.911 678.719,-184.39 768,-172 831.153,-163.236 902.295,-148.91 953.357,-137.834"/>
<polygon fill="black" stroke="black" points="954.27,-141.217 963.293,-135.665 952.777,-134.378 954.27,-141.217"/>
<text text-anchor="middle" x="895" y="-160.8" font-family="Times,serif" font-size="14.00">RESPONSE</text>
</g>
<!-- 10.0.88.125:31112#ServerID_OuterContainerID -->
<g id="node19" class="node"><title>10.0.88.125:31112#ServerID_OuterContainerID</title>
<polygon fill="none" stroke="black" points="351,-139 15.5152,-121 351,-103 686.485,-121 351,-139"/>
<text text-anchor="middle" x="351" y="-117.3" font-family="Times,serif" font-size="14.00">10.0.88.125:31112#ServerID_OuterContainerID</text>
</g>
<!-- 10.1.80.247:8080#ServerID_OuterContainerID&#45;&gt;10.0.88.125:31112#ServerID_OuterContainerID -->
<g id="edge25" class="edge"><title>10.1.80.247:8080#ServerID_OuterContainerID&#45;&gt;10.0.88.125:31112#ServerID_OuterContainerID</title>
<path fill="none" stroke="black" d="M344.619,-189.799C345.714,-178.163 347.184,-162.548 348.437,-149.237"/>
<polygon fill="black" stroke="black" points="351.931,-149.459 349.383,-139.175 344.962,-148.803 351.931,-149.459"/>
<text text-anchor="middle" x="390" y="-160.8" font-family="Times,serif" font-size="14.00">RESPONSE</text>
</g>
<!-- localhost:3000#ServerID_d4de233c55aa -->
<g id="node8" class="node"><title>localhost:3000#ServerID_d4de233c55aa</title>
<polygon fill="none" stroke="black" points="4458,-226 4172.28,-208 4458,-190 4743.72,-208 4458,-226"/>
<text text-anchor="middle" x="4458" y="-204.3" font-family="Times,serif" font-size="14.00">localhost:3000#ServerID_d4de233c55aa</text>
</g>
<!-- 1_fwatchdog#ServerID_d4de233c55aa&#45;&gt;localhost:3000#ServerID_d4de233c55aa -->
<g id="edge9" class="edge"><title>1_fwatchdog#ServerID_d4de233c55aa&#45;&gt;localhost:3000#ServerID_d4de233c55aa</title>
<path fill="none" stroke="black" d="M4063.51,-297.969C4153.46,-277.683 4302.44,-244.084 4389.28,-224.498"/>
<polygon fill="black" stroke="black" points="4390.05,-227.912 4399.04,-222.298 4388.51,-221.083 4390.05,-227.912"/>
<text text-anchor="middle" x="4228" y="-268.8" font-family="Times,serif" font-size="14.00">write</text>
</g>
<!-- localhost:3000#ServerID_d4de233c55aa&#45;&gt;10_node#ServerID_d4de233c55aa -->
<g id="edge22" class="edge"><title>localhost:3000#ServerID_d4de233c55aa&#45;&gt;10_node#ServerID_d4de233c55aa</title>
<path fill="none" stroke="black" d="M4347.3,-196.958C4177.3,-181.536 3851.98,-152.025 3664.24,-134.994"/>
<polygon fill="black" stroke="black" points="3664.3,-131.485 3654.02,-134.067 3663.66,-138.456 3664.3,-131.485"/>
<text text-anchor="middle" x="4062.5" y="-160.8" font-family="Times,serif" font-size="14.00">read</text>
</g>
<!-- localhost:3000#ServerID_79226724f3b6 -->
<g id="node9" class="node"><title>localhost:3000#ServerID_79226724f3b6</title>
<polygon fill="none" stroke="black" points="5053,-226 4768.12,-208 5053,-190 5337.88,-208 5053,-226"/>
<text text-anchor="middle" x="5053" y="-204.3" font-family="Times,serif" font-size="14.00">localhost:3000#ServerID_79226724f3b6</text>
</g>
<!-- localhost:3000#ServerID_79226724f3b6&#45;&gt;1_fwatchdog#ServerID_79226724f3b6 -->
<g id="edge10" class="edge"><title>localhost:3000#ServerID_79226724f3b6&#45;&gt;1_fwatchdog#ServerID_79226724f3b6</title>
<path fill="none" stroke="black" d="M5018.19,-192.056C5010.18,-186.905 5002.66,-180.288 4998,-172 4994.2,-165.235 4992.93,-157.1 4992.89,-149.375"/>
<polygon fill="black" stroke="black" points="4996.39,-149.448 4993.47,-139.263 4989.4,-149.046 4996.39,-149.448"/>
<text text-anchor="middle" x="5014.5" y="-160.8" font-family="Times,serif" font-size="14.00">read</text>
</g>
<!-- 10_node#ServerID_79226724f3b6 -->
<g id="node16" class="node"><title>10_node#ServerID_79226724f3b6</title>
<polygon fill="none" stroke="black" points="5506.5,-139 5241.5,-139 5241.5,-103 5506.5,-103 5506.5,-139"/>
<text text-anchor="middle" x="5374" y="-117.3" font-family="Times,serif" font-size="14.00">10_node#ServerID_79226724f3b6</text>
</g>
<!-- localhost:3000#ServerID_79226724f3b6&#45;&gt;10_node#ServerID_79226724f3b6 -->
<g id="edge18" class="edge"><title>localhost:3000#ServerID_79226724f3b6&#45;&gt;10_node#ServerID_79226724f3b6</title>
<path fill="none" stroke="black" d="M5104.93,-193.249C5157.79,-179.251 5240.24,-157.42 5299.94,-141.611"/>
<polygon fill="black" stroke="black" points="5300.92,-144.973 5309.69,-139.029 5299.13,-138.206 5300.92,-144.973"/>
<text text-anchor="middle" x="5248.5" y="-160.8" font-family="Times,serif" font-size="14.00">read</text>
</g>
<!-- 1_fwatchdog#ServerID_79226724f3b6&#45;&gt;localhost:3000#ServerID_79226724f3b6 -->
<g id="edge19" class="edge"><title>1_fwatchdog#ServerID_79226724f3b6&#45;&gt;localhost:3000#ServerID_79226724f3b6</title>
<path fill="none" stroke="black" d="M5015.98,-139.087C5021.27,-144.473 5026.74,-150.676 5031,-157 5035.84,-164.19 5040.03,-172.62 5043.42,-180.488"/>
<polygon fill="black" stroke="black" points="5040.27,-182.054 5047.26,-190.018 5046.77,-179.434 5040.27,-182.054"/>
<text text-anchor="middle" x="5058" y="-160.8" font-family="Times,serif" font-size="14.00">write</text>
</g>
<!-- pipe:[273416608]#ServerID_79226724f3b6 -->
<g id="node11" class="node"><title>pipe:[273416608]#ServerID_79226724f3b6</title>
<ellipse fill="none" stroke="black" cx="4997" cy="-34" rx="215.562" ry="18"/>
<text text-anchor="middle" x="4997" y="-30.3" font-family="Times,serif" font-size="14.00">pipe:[273416608]#ServerID_79226724f3b6</text>
</g>
<!-- 1_fwatchdog#ServerID_79226724f3b6&#45;&gt;pipe:[273416608]#ServerID_79226724f3b6 -->
<g id="edge12" class="edge"><title>1_fwatchdog#ServerID_79226724f3b6&#45;&gt;pipe:[273416608]#ServerID_79226724f3b6</title>
<path fill="none" stroke="black" d="M4997,-102.799C4997,-91.1626 4997,-75.5479 4997,-62.2368"/>
<polygon fill="black" stroke="black" points="5000.5,-62.1754 4997,-52.1754 4993.5,-62.1755 5000.5,-62.1754"/>
<text text-anchor="middle" x="5016" y="-73.8" font-family="Times,serif" font-size="14.00">write</text>
</g>
<!-- 10.152.183.10:53#ServerID_OuterContainerID -->
<g id="node15" class="node"><title>10.152.183.10:53#ServerID_OuterContainerID</title>
<polygon fill="none" stroke="black" points="1641,-226 1313.56,-208 1641,-190 1968.44,-208 1641,-226"/>
<text text-anchor="middle" x="1641" y="-204.3" font-family="Times,serif" font-size="14.00">10.152.183.10:53#ServerID_OuterContainerID</text>
</g>
<!-- 10_node#ServerID_d4de233c55aa&#45;&gt;10.152.183.10:53#ServerID_OuterContainerID -->
<g id="edge16" class="edge"><title>10_node#ServerID_d4de233c55aa&#45;&gt;10.152.183.10:53#ServerID_OuterContainerID</title>
<path fill="none" stroke="black" d="M3387.65,-136.841C3377.62,-137.671 3367.66,-138.407 3358,-139 2933.84,-165.065 2826.59,-139.064 2402,-157 2183.3,-166.239 1929.69,-184.398 1777.47,-196.102"/>
<polygon fill="black" stroke="black" points="1776.84,-192.64 1767.14,-196.899 1777.38,-199.62 1776.84,-192.64"/>
<text text-anchor="middle" x="2426.5" y="-160.8" font-family="Times,serif" font-size="14.00">sendto</text>
</g>
<!-- /etc/hosts#ServerID_d4de233c55aa -->
<g id="node13" class="node"><title>/etc/hosts#ServerID_d4de233c55aa</title>
<ellipse fill="none" stroke="black" cx="3975" cy="-208" rx="178.969" ry="18"/>
<text text-anchor="middle" x="3975" y="-204.3" font-family="Times,serif" font-size="14.00">/etc/hosts#ServerID_d4de233c55aa</text>
</g>
<!-- /etc/hosts#ServerID_d4de233c55aa&#45;&gt;10_node#ServerID_d4de233c55aa -->
<g id="edge14" class="edge"><title>/etc/hosts#ServerID_d4de233c55aa&#45;&gt;10_node#ServerID_d4de233c55aa</title>
<path fill="none" stroke="black" d="M3894.36,-191.902C3818.21,-177.645 3703.75,-156.216 3621.65,-140.845"/>
<polygon fill="black" stroke="black" points="3622.28,-137.401 3611.8,-139.001 3620.99,-144.281 3622.28,-137.401"/>
<text text-anchor="middle" x="3792.5" y="-160.8" font-family="Times,serif" font-size="14.00">read</text>
</g>
<!-- /etc/resolv.conf#ServerID_d4de233c55aa -->
<g id="node14" class="node"><title>/etc/resolv.conf#ServerID_d4de233c55aa</title>
<ellipse fill="none" stroke="black" cx="3574" cy="-208" rx="204.164" ry="18"/>
<text text-anchor="middle" x="3574" y="-204.3" font-family="Times,serif" font-size="14.00">/etc/resolv.conf#ServerID_d4de233c55aa</text>
</g>
<!-- /etc/resolv.conf#ServerID_d4de233c55aa&#45;&gt;10_node#ServerID_d4de233c55aa -->
<g id="edge15" class="edge"><title>/etc/resolv.conf#ServerID_d4de233c55aa&#45;&gt;10_node#ServerID_d4de233c55aa</title>
<path fill="none" stroke="black" d="M3563.27,-189.799C3555.73,-177.702 3545.51,-161.305 3537,-147.667"/>
<polygon fill="black" stroke="black" points="3539.97,-145.809 3531.71,-139.175 3534.03,-149.513 3539.97,-145.809"/>
<text text-anchor="middle" x="3567.5" y="-160.8" font-family="Times,serif" font-size="14.00">read</text>
</g>
<!-- 10.152.183.10:53#ServerID_OuterContainerID&#45;&gt;10_node#ServerID_d4de233c55aa -->
<g id="edge17" class="edge"><title>10.152.183.10:53#ServerID_OuterContainerID&#45;&gt;10_node#ServerID_d4de233c55aa</title>
<path fill="none" stroke="black" d="M1798.29,-198.626C1854.93,-195.727 1919.33,-192.564 1978,-190 2591.17,-163.205 2745.77,-182.19 3358,-139 3364.33,-138.553 3370.8,-138.055 3377.33,-137.518"/>
<polygon fill="black" stroke="black" points="3377.96,-140.977 3387.63,-136.644 3377.37,-134.002 3377.96,-140.977"/>
<text text-anchor="middle" x="3072" y="-160.8" font-family="Times,serif" font-size="14.00">recvfrom</text>
</g>
<!-- /home/app/credentials.txt#ServerID_79226724f3b6 -->
<g id="node17" class="node"><title>/home/app/credentials.txt#ServerID_79226724f3b6</title>
<ellipse fill="none" stroke="black" cx="5609" cy="-208" rx="252.655" ry="18"/>
<text text-anchor="middle" x="5609" y="-204.3" font-family="Times,serif" font-size="14.00">/home/app/credentials.txt#ServerID_79226724f3b6</text>
</g>
<!-- /home/app/credentials.txt#ServerID_79226724f3b6&#45;&gt;10_node#ServerID_79226724f3b6 -->
<g id="edge20" class="edge"><title>/home/app/credentials.txt#ServerID_79226724f3b6&#45;&gt;10_node#ServerID_79226724f3b6</title>
<path fill="none" stroke="black" d="M5562.57,-190.207C5524.68,-176.501 5470.99,-157.081 5430.58,-142.466"/>
<polygon fill="black" stroke="black" points="5431.73,-139.159 5421.14,-139.049 5429.35,-145.742 5431.73,-139.159"/>
<text text-anchor="middle" x="5521.5" y="-160.8" font-family="Times,serif" font-size="14.00">read</text>
</g>
<!-- 10.1.80.1:12716#ServerID_OuterContainerID&#45;&gt;10.1.80.247:8080#ServerID_OuterContainerID -->
<g id="edge23" class="edge"><title>10.1.80.1:12716#ServerID_OuterContainerID&#45;&gt;10.1.80.247:8080#ServerID_OuterContainerID</title>
<path fill="none" stroke="black" d="M929.252,-133.719C803.047,-149.494 579.197,-177.475 447.642,-193.92"/>
<polygon fill="black" stroke="black" points="447.04,-190.468 437.551,-195.181 447.908,-197.414 447.04,-190.468"/>
<text text-anchor="middle" x="744" y="-160.8" font-family="Times,serif" font-size="14.00">POST</text>
</g>
</g>
</svg>
