<?xml version="1.0" encoding="UTF-8" standalone="no"?>
<!DOCTYPE svg PUBLIC "-//W3C//DTD SVG 1.1//EN"
 "http://www.w3.org/Graphics/SVG/1.1/DTD/svg11.dtd">
<!-- Generated by graphviz version 2.38.0 (20140413.2041)
 -->
<!-- Title: G Pages: 1 -->
<svg width="7208pt" height="558pt"
 viewBox="0.00 0.00 7208.00 558.00" xmlns="http://www.w3.org/2000/svg" xmlns:xlink="http://www.w3.org/1999/xlink">
<g id="graph0" class="graph" transform="scale(1 1) rotate(0) translate(4 554)">
<title>G</title>
<polygon fill="white" stroke="none" points="-4,4 -4,-554 7204,-554 7204,4 -4,4"/>
<g id="clust1" class="cluster"><title>clusterServerID_1f4f60deee3d</title>
<polygon fill="none" stroke="black" points="6188,-8 6188,-280 7192,-280 7192,-8 6188,-8"/>
<text text-anchor="middle" x="6690" y="-264.8" font-family="Times,serif" font-size="14.00">clusterServerID_1f4f60deee3d</text>
</g>
<g id="clust2" class="cluster"><title>clusterServerID_667d78fb58&#45;847xt</title>
<polygon fill="none" stroke="black" points="5840,-182 5840,-280 6180,-280 6180,-182 5840,-182"/>
<text text-anchor="middle" x="6010" y="-264.8" font-family="Times,serif" font-size="14.00">clusterServerID_667d78fb58&#45;847xt</text>
</g>
<g id="clust3" class="cluster"><title>clusterServerID_6dcbcc88d5&#45;mp48t</title>
<polygon fill="none" stroke="black" points="2623,-444 2623,-542 2971,-542 2971,-444 2623,-444"/>
<text text-anchor="middle" x="2797" y="-526.8" font-family="Times,serif" font-size="14.00">clusterServerID_6dcbcc88d5&#45;mp48t</text>
</g>
<g id="clust4" class="cluster"><title>clusterServerID_OuterContainerID</title>
<polygon fill="none" stroke="black" points="1108,-182 1108,-411 5832,-411 5832,-182 1108,-182"/>
<text text-anchor="middle" x="3470" y="-395.8" font-family="Times,serif" font-size="14.00">clusterServerID_OuterContainerID</text>
</g>
<g id="clust5" class="cluster"><title>clusterServerID_e47e2b15aff4</title>
<polygon fill="none" stroke="black" points="8,-182 8,-411 1100,-411 1100,-182 8,-182"/>
<text text-anchor="middle" x="554" y="-395.8" font-family="Times,serif" font-size="14.00">clusterServerID_e47e2b15aff4</text>
</g>
<!-- 10.1.80.183:56550#ServerID_OuterContainerID -->
<g id="node1" class="node"><title>10.1.80.183:56550#ServerID_OuterContainerID</title>
<polygon fill="none" stroke="black" points="2140,-357 1804.52,-339 2140,-321 2475.48,-339 2140,-357"/>
<text text-anchor="middle" x="2140" y="-335.3" font-family="Times,serif" font-size="14.00">10.1.80.183:56550#ServerID_OuterContainerID</text>
</g>
<!-- 1_fwatchdog#ServerID_6dcbcc88d5&#45;mp48t -->
<g id="node2" class="node"><title>1_fwatchdog#ServerID_6dcbcc88d5&#45;mp48t</title>
<polygon fill="none" stroke="black" points="2962.5,-488 2631.5,-488 2631.5,-452 2962.5,-452 2962.5,-488"/>
<text text-anchor="middle" x="2797" y="-466.3" font-family="Times,serif" font-size="14.00">1_fwatchdog#ServerID_6dcbcc88d5&#45;mp48t</text>
</g>
<!-- 10.1.80.183:56550#ServerID_OuterContainerID&#45;&gt;1_fwatchdog#ServerID_6dcbcc88d5&#45;mp48t -->
<g id="edge1" class="edge"><title>10.1.80.183:56550#ServerID_OuterContainerID&#45;&gt;1_fwatchdog#ServerID_6dcbcc88d5&#45;mp48t</title>
<path fill="none" stroke="black" d="M2087.02,-354.225C2019.72,-371.52 1899.73,-399.788 1795,-411 1784.31,-412.144 1028.56,-411.359 1021,-419 1016.31,-423.738 1016.33,-429.24 1021,-434 1048.76,-462.308 2178.36,-467.721 2621.35,-468.756"/>
<polygon fill="black" stroke="black" points="2621.35,-472.256 2631.36,-468.779 2621.37,-465.256 2621.35,-472.256"/>
<text text-anchor="middle" x="1041" y="-422.8" font-family="Times,serif" font-size="14.00">POST</text>
</g>
<!-- 1_fwatchdog#ServerID_e47e2b15aff4 -->
<g id="node8" class="node"><title>1_fwatchdog#ServerID_e47e2b15aff4</title>
<polygon fill="none" stroke="black" points="306,-357 16,-357 16,-321 306,-321 306,-357"/>
<text text-anchor="middle" x="161" y="-335.3" font-family="Times,serif" font-size="14.00">1_fwatchdog#ServerID_e47e2b15aff4</text>
</g>
<!-- 10.1.80.183:56550#ServerID_OuterContainerID&#45;&gt;1_fwatchdog#ServerID_e47e2b15aff4 -->
<g id="edge12" class="edge"><title>10.1.80.183:56550#ServerID_OuterContainerID&#45;&gt;1_fwatchdog#ServerID_e47e2b15aff4</title>
<path fill="none" stroke="black" d="M2085.28,-354.066C2017.7,-371.823 1898.92,-400.271 1795,-411 1631.42,-427.887 475.529,-446.673 315,-411 272.963,-401.658 228.818,-379.577 198.624,-362.312"/>
<polygon fill="black" stroke="black" points="200.122,-359.134 189.719,-357.128 196.6,-365.184 200.122,-359.134"/>
<text text-anchor="middle" x="1446" y="-422.8" font-family="Times,serif" font-size="14.00">read</text>
</g>
<!-- 1_fwatchdog#ServerID_6dcbcc88d5&#45;mp48t&#45;&gt;10.1.80.183:56550#ServerID_OuterContainerID -->
<g id="edge6" class="edge"><title>1_fwatchdog#ServerID_6dcbcc88d5&#45;mp48t&#45;&gt;10.1.80.183:56550#ServerID_OuterContainerID</title>
<path fill="none" stroke="black" d="M2702.7,-451.956C2640.76,-440.641 2557.99,-425.294 2485,-411 2391.48,-392.686 2283.98,-370.359 2214.17,-355.691"/>
<polygon fill="black" stroke="black" points="2214.65,-352.217 2204.15,-353.584 2213.21,-359.067 2214.65,-352.217"/>
<text text-anchor="middle" x="2647" y="-422.8" font-family="Times,serif" font-size="14.00">RESPONSE</text>
</g>
<!-- gateway:8080#ServerID_OuterContainerID -->
<g id="node3" class="node"><title>gateway:8080#ServerID_OuterContainerID</title>
<polygon fill="none" stroke="black" points="2798,-357 2493.52,-339 2798,-321 3102.48,-339 2798,-357"/>
<text text-anchor="middle" x="2798" y="-335.3" font-family="Times,serif" font-size="14.00">gateway:8080#ServerID_OuterContainerID</text>
</g>
<!-- 1_fwatchdog#ServerID_6dcbcc88d5&#45;mp48t&#45;&gt;gateway:8080#ServerID_OuterContainerID -->
<g id="edge4" class="edge"><title>1_fwatchdog#ServerID_6dcbcc88d5&#45;mp48t&#45;&gt;gateway:8080#ServerID_OuterContainerID</title>
<path fill="none" stroke="black" d="M2775.2,-451.762C2770.26,-446.629 2765.68,-440.594 2763,-434 2760.49,-427.822 2761.62,-425.522 2763,-419 2766.95,-400.34 2775.61,-380.727 2783.33,-365.712"/>
<polygon fill="black" stroke="black" points="2786.59,-367.036 2788.2,-356.565 2780.41,-363.743 2786.59,-367.036"/>
<text text-anchor="middle" x="2783" y="-422.8" font-family="Times,serif" font-size="14.00">POST</text>
</g>
<!-- 10.1.80.183:8080#ServerID_OuterContainerID -->
<g id="node6" class="node"><title>10.1.80.183:8080#ServerID_OuterContainerID</title>
<polygon fill="none" stroke="black" points="4119,-357 3791.56,-339 4119,-321 4446.44,-339 4119,-357"/>
<text text-anchor="middle" x="4119" y="-335.3" font-family="Times,serif" font-size="14.00">10.1.80.183:8080#ServerID_OuterContainerID</text>
</g>
<!-- 1_fwatchdog#ServerID_6dcbcc88d5&#45;mp48t&#45;&gt;10.1.80.183:8080#ServerID_OuterContainerID -->
<g id="edge5" class="edge"><title>1_fwatchdog#ServerID_6dcbcc88d5&#45;mp48t&#45;&gt;10.1.80.183:8080#ServerID_OuterContainerID</title>
<path fill="none" stroke="black" d="M2962.59,-466.803C3159.08,-462.456 3496.21,-449.516 3783,-411 3878.55,-398.168 3987.45,-373.22 4054.71,-356.581"/>
<polygon fill="black" stroke="black" points="4055.87,-359.898 4064.73,-354.087 4054.18,-353.105 4055.87,-359.898"/>
<text text-anchor="middle" x="3724" y="-422.8" font-family="Times,serif" font-size="14.00">POST</text>
</g>
<!-- gateway:8080#ServerID_OuterContainerID&#45;&gt;1_fwatchdog#ServerID_6dcbcc88d5&#45;mp48t -->
<g id="edge2" class="edge"><title>gateway:8080#ServerID_OuterContainerID&#45;&gt;1_fwatchdog#ServerID_6dcbcc88d5&#45;mp48t</title>
<path fill="none" stroke="black" d="M2802.03,-357.034C2805.93,-375.905 2810.75,-407.211 2807,-434 2806.64,-436.574 2806.14,-439.224 2805.55,-441.859"/>
<polygon fill="black" stroke="black" points="2802.1,-441.198 2802.96,-451.759 2808.87,-442.971 2802.1,-441.198"/>
<text text-anchor="middle" x="2851" y="-422.8" font-family="Times,serif" font-size="14.00">RESPONSE</text>
</g>
<!-- 10.1.80.183:40424#ServerID_OuterContainerID -->
<g id="node4" class="node"><title>10.1.80.183:40424#ServerID_OuterContainerID</title>
<polygon fill="none" stroke="black" points="4800,-357 4464.52,-339 4800,-321 5135.48,-339 4800,-357"/>
<text text-anchor="middle" x="4800" y="-335.3" font-family="Times,serif" font-size="14.00">10.1.80.183:40424#ServerID_OuterContainerID</text>
</g>
<!-- 1_fwatchdog#ServerID_667d78fb58&#45;847xt -->
<g id="node5" class="node"><title>1_fwatchdog#ServerID_667d78fb58&#45;847xt</title>
<polygon fill="none" stroke="black" points="6172,-226 5848,-226 5848,-190 6172,-190 6172,-226"/>
<text text-anchor="middle" x="6010" y="-204.3" font-family="Times,serif" font-size="14.00">1_fwatchdog#ServerID_667d78fb58&#45;847xt</text>
</g>
<!-- 10.1.80.183:40424#ServerID_OuterContainerID&#45;&gt;1_fwatchdog#ServerID_667d78fb58&#45;847xt -->
<g id="edge3" class="edge"><title>10.1.80.183:40424#ServerID_OuterContainerID&#45;&gt;1_fwatchdog#ServerID_667d78fb58&#45;847xt</title>
<path fill="none" stroke="black" d="M4849.28,-323.618C4893.52,-311.472 4960.48,-294.974 5020,-288 5110.05,-277.448 5747.11,-297.89 5836,-280 5883.66,-270.409 5934.78,-247.932 5969.19,-230.818"/>
<polygon fill="black" stroke="black" points="5971.09,-233.78 5978.44,-226.148 5967.93,-227.532 5971.09,-233.78"/>
<text text-anchor="middle" x="5040" y="-291.8" font-family="Times,serif" font-size="14.00">POST</text>
</g>
<!-- 1_fwatchdog#ServerID_1f4f60deee3d -->
<g id="node14" class="node"><title>1_fwatchdog#ServerID_1f4f60deee3d</title>
<polygon fill="none" stroke="black" points="6561,-226 6271,-226 6271,-190 6561,-190 6561,-226"/>
<text text-anchor="middle" x="6416" y="-204.3" font-family="Times,serif" font-size="14.00">1_fwatchdog#ServerID_1f4f60deee3d</text>
</g>
<!-- 10.1.80.183:40424#ServerID_OuterContainerID&#45;&gt;1_fwatchdog#ServerID_1f4f60deee3d -->
<g id="edge19" class="edge"><title>10.1.80.183:40424#ServerID_OuterContainerID&#45;&gt;1_fwatchdog#ServerID_1f4f60deee3d</title>
<path fill="none" stroke="black" d="M4965.73,-329.861C5085.82,-323.583 5252.05,-314.109 5398,-303 5469.22,-297.579 5486.68,-291.793 5558,-288 5627.46,-284.306 6115.27,-290.731 6184,-280 6247.33,-270.112 6317.35,-246.891 6363.72,-229.683"/>
<polygon fill="black" stroke="black" points="6365.12,-232.899 6373.25,-226.109 6362.66,-226.345 6365.12,-232.899"/>
<text text-anchor="middle" x="5574.5" y="-291.8" font-family="Times,serif" font-size="14.00">read</text>
</g>
<!-- 1_fwatchdog#ServerID_667d78fb58&#45;847xt&#45;&gt;10.1.80.183:40424#ServerID_OuterContainerID -->
<g id="edge7" class="edge"><title>1_fwatchdog#ServerID_667d78fb58&#45;847xt&#45;&gt;10.1.80.183:40424#ServerID_OuterContainerID</title>
<path fill="none" stroke="black" d="M5978.42,-226.091C5944.4,-243.487 5888.11,-269.363 5836,-280 5779.17,-291.602 5371.92,-284.745 5314,-288 5173.01,-295.925 5010.94,-313.025 4907.1,-325.01"/>
<polygon fill="black" stroke="black" points="4906.45,-321.562 4896.92,-326.19 4907.26,-328.515 4906.45,-321.562"/>
<text text-anchor="middle" x="5356" y="-291.8" font-family="Times,serif" font-size="14.00">RESPONSE</text>
</g>
<!-- 10.1.80.183:40586#ServerID_OuterContainerID -->
<g id="node7" class="node"><title>10.1.80.183:40586#ServerID_OuterContainerID</title>
<polygon fill="none" stroke="black" points="5489,-357 5153.52,-339 5489,-321 5824.48,-339 5489,-357"/>
<text text-anchor="middle" x="5489" y="-335.3" font-family="Times,serif" font-size="14.00">10.1.80.183:40586#ServerID_OuterContainerID</text>
</g>
<!-- 1_fwatchdog#ServerID_667d78fb58&#45;847xt&#45;&gt;10.1.80.183:40586#ServerID_OuterContainerID -->
<g id="edge10" class="edge"><title>1_fwatchdog#ServerID_667d78fb58&#45;847xt&#45;&gt;10.1.80.183:40586#ServerID_OuterContainerID</title>
<path fill="none" stroke="black" d="M5977.73,-226.11C5943.59,-243.257 5887.63,-268.682 5836,-280 5757.34,-297.242 5734.38,-274.507 5655,-288 5614.93,-294.81 5570.95,-308.347 5538.33,-319.62"/>
<polygon fill="black" stroke="black" points="5536.86,-316.424 5528.59,-323.036 5539.18,-323.03 5536.86,-316.424"/>
<text text-anchor="middle" x="5697" y="-291.8" font-family="Times,serif" font-size="14.00">RESPONSE</text>
</g>
<!-- 10.1.80.183:8080#ServerID_OuterContainerID&#45;&gt;1_fwatchdog#ServerID_6dcbcc88d5&#45;mp48t -->
<g id="edge8" class="edge"><title>10.1.80.183:8080#ServerID_OuterContainerID&#45;&gt;1_fwatchdog#ServerID_6dcbcc88d5&#45;mp48t</title>
<path fill="none" stroke="black" d="M4074.21,-354.628C4005.1,-376.452 3867.87,-416.806 3748,-434 3603.57,-454.717 3205.75,-463.507 2972.93,-466.967"/>
<polygon fill="black" stroke="black" points="2972.61,-463.471 2962.66,-467.118 2972.71,-470.471 2972.61,-463.471"/>
<text text-anchor="middle" x="3873" y="-422.8" font-family="Times,serif" font-size="14.00">RESPONSE</text>
</g>
<!-- 10.1.80.1:43296#ServerID_OuterContainerID -->
<g id="node19" class="node"><title>10.1.80.1:43296#ServerID_OuterContainerID</title>
<polygon fill="none" stroke="black" points="4712,-226 4393.1,-208 4712,-190 5030.9,-208 4712,-226"/>
<text text-anchor="middle" x="4712" y="-204.3" font-family="Times,serif" font-size="14.00">10.1.80.1:43296#ServerID_OuterContainerID</text>
</g>
<!-- 10.1.80.183:8080#ServerID_OuterContainerID&#45;&gt;10.1.80.1:43296#ServerID_OuterContainerID -->
<g id="edge27" class="edge"><title>10.1.80.183:8080#ServerID_OuterContainerID&#45;&gt;10.1.80.1:43296#ServerID_OuterContainerID</title>
<path fill="none" stroke="black" d="M4169.7,-323.711C4210.34,-312.68 4268.97,-297.709 4321,-288 4348.75,-282.823 4356.18,-284.768 4384,-280 4475.22,-264.366 4579.52,-240.798 4645.55,-225.161"/>
<polygon fill="black" stroke="black" points="4646.49,-228.535 4655.41,-222.818 4644.87,-221.725 4646.49,-228.535"/>
<text text-anchor="middle" x="4363" y="-291.8" font-family="Times,serif" font-size="14.00">RESPONSE</text>
</g>
<!-- 10.0.88.125:31112#ServerID_OuterContainerID -->
<g id="node20" class="node"><title>10.0.88.125:31112#ServerID_OuterContainerID</title>
<polygon fill="none" stroke="black" points="3384,-226 3048.52,-208 3384,-190 3719.48,-208 3384,-226"/>
<text text-anchor="middle" x="3384" y="-204.3" font-family="Times,serif" font-size="14.00">10.0.88.125:31112#ServerID_OuterContainerID</text>
</g>
<!-- 10.1.80.183:8080#ServerID_OuterContainerID&#45;&gt;10.0.88.125:31112#ServerID_OuterContainerID -->
<g id="edge28" class="edge"><title>10.1.80.183:8080#ServerID_OuterContainerID&#45;&gt;10.0.88.125:31112#ServerID_OuterContainerID</title>
<path fill="none" stroke="black" d="M4027.91,-325.966C3948.51,-315.125 3830.37,-298.142 3728,-280 3633.28,-263.214 3524.68,-240.157 3455.27,-224.931"/>
<polygon fill="black" stroke="black" points="3455.84,-221.472 3445.32,-222.743 3454.33,-228.309 3455.84,-221.472"/>
<text text-anchor="middle" x="3910" y="-291.8" font-family="Times,serif" font-size="14.00">RESPONSE</text>
</g>
<!-- 10.1.80.1:32902#ServerID_OuterContainerID -->
<g id="node21" class="node"><title>10.1.80.1:32902#ServerID_OuterContainerID</title>
<polygon fill="none" stroke="black" points="4056,-226 3737.1,-208 4056,-190 4374.9,-208 4056,-226"/>
<text text-anchor="middle" x="4056" y="-204.3" font-family="Times,serif" font-size="14.00">10.1.80.1:32902#ServerID_OuterContainerID</text>
</g>
<!-- 10.1.80.183:8080#ServerID_OuterContainerID&#45;&gt;10.1.80.1:32902#ServerID_OuterContainerID -->
<g id="edge30" class="edge"><title>10.1.80.183:8080#ServerID_OuterContainerID&#45;&gt;10.1.80.1:32902#ServerID_OuterContainerID</title>
<path fill="none" stroke="black" d="M4111.93,-321.211C4107.74,-311.448 4102.24,-298.948 4097,-288 4088.38,-269.996 4078.02,-250.044 4069.87,-234.696"/>
<polygon fill="black" stroke="black" points="4072.91,-232.967 4065.11,-225.793 4066.74,-236.263 4072.91,-232.967"/>
<text text-anchor="middle" x="4146" y="-291.8" font-family="Times,serif" font-size="14.00">RESPONSE</text>
</g>
<!-- 10.1.80.183:40586#ServerID_OuterContainerID&#45;&gt;1_fwatchdog#ServerID_667d78fb58&#45;847xt -->
<g id="edge9" class="edge"><title>10.1.80.183:40586#ServerID_OuterContainerID&#45;&gt;1_fwatchdog#ServerID_667d78fb58&#45;847xt</title>
<path fill="none" stroke="black" d="M5593.96,-326.614C5663.49,-317.575 5756.24,-302.636 5836,-280 5881.33,-267.136 5930.89,-246.19 5965.48,-230.374"/>
<polygon fill="black" stroke="black" points="5967.22,-233.43 5974.83,-226.061 5964.28,-227.075 5967.22,-233.43"/>
<text text-anchor="middle" x="5820" y="-291.8" font-family="Times,serif" font-size="14.00">POST</text>
</g>
<!-- 10.1.80.183:40586#ServerID_OuterContainerID&#45;&gt;1_fwatchdog#ServerID_1f4f60deee3d -->
<g id="edge25" class="edge"><title>10.1.80.183:40586#ServerID_OuterContainerID&#45;&gt;1_fwatchdog#ServerID_1f4f60deee3d</title>
<path fill="none" stroke="black" d="M5698.14,-332.191C5836.94,-325.49 6022.6,-311.061 6184,-280 6245.79,-268.11 6314.46,-245.922 6360.94,-229.502"/>
<polygon fill="black" stroke="black" points="6362.27,-232.745 6370.51,-226.092 6359.92,-226.151 6362.27,-232.745"/>
<text text-anchor="middle" x="6145.5" y="-291.8" font-family="Times,serif" font-size="14.00">read</text>
</g>
<!-- localhost:3000#ServerID_e47e2b15aff4 -->
<g id="node9" class="node"><title>localhost:3000#ServerID_e47e2b15aff4</title>
<polygon fill="none" stroke="black" points="295,-226 15.6524,-208 295,-190 574.348,-208 295,-226"/>
<text text-anchor="middle" x="295" y="-204.3" font-family="Times,serif" font-size="14.00">localhost:3000#ServerID_e47e2b15aff4</text>
</g>
<!-- 1_fwatchdog#ServerID_e47e2b15aff4&#45;&gt;localhost:3000#ServerID_e47e2b15aff4 -->
<g id="edge11" class="edge"><title>1_fwatchdog#ServerID_e47e2b15aff4&#45;&gt;localhost:3000#ServerID_e47e2b15aff4</title>
<path fill="none" stroke="black" d="M178.794,-320.87C202.51,-298.039 244.556,-257.562 271.042,-232.064"/>
<polygon fill="black" stroke="black" points="273.621,-234.44 278.398,-224.983 268.766,-229.397 273.621,-234.44"/>
<text text-anchor="middle" x="232" y="-291.8" font-family="Times,serif" font-size="14.00">write</text>
</g>
<!-- 9_node#ServerID_e47e2b15aff4 -->
<g id="node10" class="node"><title>9_node#ServerID_e47e2b15aff4</title>
<polygon fill="none" stroke="black" points="1092,-226 842,-226 842,-190 1092,-190 1092,-226"/>
<text text-anchor="middle" x="967" y="-204.3" font-family="Times,serif" font-size="14.00">9_node#ServerID_e47e2b15aff4</text>
</g>
<!-- 9_node#ServerID_e47e2b15aff4&#45;&gt;gateway:8080#ServerID_OuterContainerID -->
<g id="edge17" class="edge"><title>9_node#ServerID_e47e2b15aff4&#45;&gt;gateway:8080#ServerID_OuterContainerID</title>
<path fill="none" stroke="black" d="M991.858,-226.279C1018.29,-243.562 1061.99,-269.098 1104,-280 1252.48,-318.534 2330.73,-314.575 2484,-321 2536.16,-323.186 2593.16,-326.111 2644.12,-328.918"/>
<polygon fill="black" stroke="black" points="2644.04,-332.42 2654.22,-329.478 2644.43,-325.43 2644.04,-332.42"/>
<text text-anchor="middle" x="1405" y="-291.8" font-family="Times,serif" font-size="14.00">connect</text>
</g>
<!-- 10.152.183.10:53#ServerID_OuterContainerID -->
<g id="node11" class="node"><title>10.152.183.10:53#ServerID_OuterContainerID</title>
<polygon fill="none" stroke="black" points="3447,-357 3119.56,-339 3447,-321 3774.44,-339 3447,-357"/>
<text text-anchor="middle" x="3447" y="-335.3" font-family="Times,serif" font-size="14.00">10.152.183.10:53#ServerID_OuterContainerID</text>
</g>
<!-- 9_node#ServerID_e47e2b15aff4&#45;&gt;10.152.183.10:53#ServerID_OuterContainerID -->
<g id="edge13" class="edge"><title>9_node#ServerID_e47e2b15aff4&#45;&gt;10.152.183.10:53#ServerID_OuterContainerID</title>
<path fill="none" stroke="black" d="M991.318,-226.168C1017.65,-243.629 1061.6,-269.557 1104,-280 1148.58,-290.981 2711.12,-286.229 2757,-288 2954.73,-295.634 3183.74,-314.151 3321.87,-326.381"/>
<polygon fill="black" stroke="black" points="3321.79,-329.888 3332.06,-327.287 3322.41,-322.916 3321.79,-329.888"/>
<text text-anchor="middle" x="3047.5" y="-291.8" font-family="Times,serif" font-size="14.00">sendto</text>
</g>
<!-- 10.152.183.10:53#ServerID_OuterContainerID&#45;&gt;9_node#ServerID_e47e2b15aff4 -->
<g id="edge16" class="edge"><title>10.152.183.10:53#ServerID_OuterContainerID&#45;&gt;9_node#ServerID_e47e2b15aff4</title>
<path fill="none" stroke="black" d="M3294.83,-329.329C3237.26,-326.303 3171.12,-323.135 3111,-321 3104.03,-320.753 1110.75,-281.72 1104,-280 1065.98,-270.321 1026.63,-248.482 999.908,-231.562"/>
<polygon fill="black" stroke="black" points="1001.65,-228.521 991.351,-226.037 997.853,-234.402 1001.65,-228.521"/>
<text text-anchor="middle" x="2201" y="-291.8" font-family="Times,serif" font-size="14.00">recvfrom</text>
</g>
<!-- /etc/resolv.conf#ServerID_e47e2b15aff4 -->
<g id="node12" class="node"><title>/etc/resolv.conf#ServerID_e47e2b15aff4</title>
<ellipse fill="none" stroke="black" cx="524" cy="-339" rx="200.365" ry="18"/>
<text text-anchor="middle" x="524" y="-335.3" font-family="Times,serif" font-size="14.00">/etc/resolv.conf#ServerID_e47e2b15aff4</text>
</g>
<!-- /etc/resolv.conf#ServerID_e47e2b15aff4&#45;&gt;9_node#ServerID_e47e2b15aff4 -->
<g id="edge14" class="edge"><title>/etc/resolv.conf#ServerID_e47e2b15aff4&#45;&gt;9_node#ServerID_e47e2b15aff4</title>
<path fill="none" stroke="black" d="M580.106,-321.662C661.26,-298.03 811.234,-254.359 898.709,-228.886"/>
<polygon fill="black" stroke="black" points="899.915,-232.18 908.537,-226.024 897.957,-225.46 899.915,-232.18"/>
<text text-anchor="middle" x="709.5" y="-291.8" font-family="Times,serif" font-size="14.00">read</text>
</g>
<!-- /etc/hosts#ServerID_e47e2b15aff4 -->
<g id="node13" class="node"><title>/etc/hosts#ServerID_e47e2b15aff4</title>
<ellipse fill="none" stroke="black" cx="917" cy="-339" rx="174.669" ry="18"/>
<text text-anchor="middle" x="917" y="-335.3" font-family="Times,serif" font-size="14.00">/etc/hosts#ServerID_e47e2b15aff4</text>
</g>
<!-- /etc/hosts#ServerID_e47e2b15aff4&#45;&gt;9_node#ServerID_e47e2b15aff4 -->
<g id="edge15" class="edge"><title>/etc/hosts#ServerID_e47e2b15aff4&#45;&gt;9_node#ServerID_e47e2b15aff4</title>
<path fill="none" stroke="black" d="M923.64,-320.87C932.082,-299.088 946.751,-261.244 956.663,-235.67"/>
<polygon fill="black" stroke="black" points="959.982,-236.79 960.333,-226.201 953.455,-234.26 959.982,-236.79"/>
<text text-anchor="middle" x="953.5" y="-291.8" font-family="Times,serif" font-size="14.00">read</text>
</g>
<!-- localhost:3000#ServerID_1f4f60deee3d -->
<g id="node15" class="node"><title>localhost:3000#ServerID_1f4f60deee3d</title>
<polygon fill="none" stroke="black" points="6475,-139 6195.65,-121 6475,-103 6754.35,-121 6475,-139"/>
<text text-anchor="middle" x="6475" y="-117.3" font-family="Times,serif" font-size="14.00">localhost:3000#ServerID_1f4f60deee3d</text>
</g>
<!-- 1_fwatchdog#ServerID_1f4f60deee3d&#45;&gt;localhost:3000#ServerID_1f4f60deee3d -->
<g id="edge18" class="edge"><title>1_fwatchdog#ServerID_1f4f60deee3d&#45;&gt;localhost:3000#ServerID_1f4f60deee3d</title>
<path fill="none" stroke="black" d="M6424.93,-189.857C6430.32,-179.976 6437.57,-167.476 6445,-157 6447.62,-153.302 6450.56,-149.527 6453.53,-145.889"/>
<polygon fill="black" stroke="black" points="6456.22,-148.125 6460.01,-138.23 6450.88,-143.604 6456.22,-148.125"/>
<text text-anchor="middle" x="6464" y="-160.8" font-family="Times,serif" font-size="14.00">write</text>
</g>
<!-- 1_fwatchdog#ServerID_1f4f60deee3d&#45;&gt;localhost:3000#ServerID_1f4f60deee3d -->
<g id="edge24" class="edge"><title>1_fwatchdog#ServerID_1f4f60deee3d&#45;&gt;localhost:3000#ServerID_1f4f60deee3d</title>
<path fill="none" stroke="black" d="M6464.85,-189.807C6472.09,-185.143 6478.58,-179.296 6483,-172 6487.23,-165.022 6487.34,-156.531 6485.76,-148.542"/>
<polygon fill="black" stroke="black" points="6489.11,-147.528 6483.04,-138.843 6482.37,-149.416 6489.11,-147.528"/>
<text text-anchor="middle" x="6515" y="-160.8" font-family="Times,serif" font-size="14.00">connect</text>
</g>
<!-- pipe:[77303348]#ServerID_1f4f60deee3d -->
<g id="node17" class="node"><title>pipe:[77303348]#ServerID_1f4f60deee3d</title>
<ellipse fill="none" stroke="black" cx="6978" cy="-121" rx="206.063" ry="18"/>
<text text-anchor="middle" x="6978" y="-117.3" font-family="Times,serif" font-size="14.00">pipe:[77303348]#ServerID_1f4f60deee3d</text>
</g>
<!-- 1_fwatchdog#ServerID_1f4f60deee3d&#45;&gt;pipe:[77303348]#ServerID_1f4f60deee3d -->
<g id="edge22" class="edge"><title>1_fwatchdog#ServerID_1f4f60deee3d&#45;&gt;pipe:[77303348]#ServerID_1f4f60deee3d</title>
<path fill="none" stroke="black" d="M6528.72,-189.952C6628,-174.935 6771.67,-153.207 6869.63,-138.39"/>
<polygon fill="black" stroke="black" points="6870.2,-141.845 6879.56,-136.889 6869.15,-134.923 6870.2,-141.845"/>
<text text-anchor="middle" x="6749" y="-160.8" font-family="Times,serif" font-size="14.00">write</text>
</g>
<!-- localhost:3000#ServerID_1f4f60deee3d&#45;&gt;1_fwatchdog#ServerID_1f4f60deee3d -->
<g id="edge21" class="edge"><title>localhost:3000#ServerID_1f4f60deee3d&#45;&gt;1_fwatchdog#ServerID_1f4f60deee3d</title>
<path fill="none" stroke="black" d="M6422.9,-135.862C6413.04,-140.902 6403.96,-147.74 6398,-157 6393.33,-164.248 6394.47,-172.866 6397.8,-180.888"/>
<polygon fill="black" stroke="black" points="6394.77,-182.657 6402.49,-189.914 6400.98,-179.428 6394.77,-182.657"/>
<text text-anchor="middle" x="6414.5" y="-160.8" font-family="Times,serif" font-size="14.00">read</text>
</g>
<!-- 10_node#ServerID_1f4f60deee3d -->
<g id="node16" class="node"><title>10_node#ServerID_1f4f60deee3d</title>
<polygon fill="none" stroke="black" points="6604.5,-52 6345.5,-52 6345.5,-16 6604.5,-16 6604.5,-52"/>
<text text-anchor="middle" x="6475" y="-30.3" font-family="Times,serif" font-size="14.00">10_node#ServerID_1f4f60deee3d</text>
</g>
<!-- localhost:3000#ServerID_1f4f60deee3d&#45;&gt;10_node#ServerID_1f4f60deee3d -->
<g id="edge20" class="edge"><title>localhost:3000#ServerID_1f4f60deee3d&#45;&gt;10_node#ServerID_1f4f60deee3d</title>
<path fill="none" stroke="black" d="M6475,-102.799C6475,-91.1626 6475,-75.5479 6475,-62.2368"/>
<polygon fill="black" stroke="black" points="6478.5,-62.1754 6475,-52.1754 6471.5,-62.1755 6478.5,-62.1754"/>
<text text-anchor="middle" x="6491.5" y="-73.8" font-family="Times,serif" font-size="14.00">read</text>
</g>
<!-- 10.1.80.183:56502#ServerID_OuterContainerID -->
<g id="node18" class="node"><title>10.1.80.183:56502#ServerID_OuterContainerID</title>
<polygon fill="none" stroke="black" points="1451,-357 1115.52,-339 1451,-321 1786.48,-339 1451,-357"/>
<text text-anchor="middle" x="1451" y="-335.3" font-family="Times,serif" font-size="14.00">10.1.80.183:56502#ServerID_OuterContainerID</text>
</g>
<!-- 10.1.80.183:56502#ServerID_OuterContainerID&#45;&gt;1_fwatchdog#ServerID_e47e2b15aff4 -->
<g id="edge23" class="edge"><title>10.1.80.183:56502#ServerID_OuterContainerID&#45;&gt;1_fwatchdog#ServerID_e47e2b15aff4</title>
<path fill="none" stroke="black" d="M1395.96,-354.066C1327.98,-371.824 1208.51,-400.272 1104,-411 929.583,-428.904 486.158,-449.035 315,-411 272.963,-401.658 228.818,-379.577 198.624,-362.312"/>
<polygon fill="black" stroke="black" points="200.122,-359.134 189.719,-357.128 196.6,-365.184 200.122,-359.134"/>
<text text-anchor="middle" x="1082" y="-422.8" font-family="Times,serif" font-size="14.00">read</text>
</g>
<!-- 10.1.80.1:43296#ServerID_OuterContainerID&#45;&gt;10.1.80.183:8080#ServerID_OuterContainerID -->
<g id="edge26" class="edge"><title>10.1.80.1:43296#ServerID_OuterContainerID&#45;&gt;10.1.80.183:8080#ServerID_OuterContainerID</title>
<path fill="none" stroke="black" d="M4672.42,-223.807C4615.14,-244.653 4505.41,-282.404 4409,-303 4359.01,-313.68 4303.42,-321.376 4254.4,-326.782"/>
<polygon fill="black" stroke="black" points="4253.93,-323.312 4244.36,-327.867 4254.68,-330.271 4253.93,-323.312"/>
<text text-anchor="middle" x="4488" y="-291.8" font-family="Times,serif" font-size="14.00">POST</text>
</g>
<!-- 10.1.80.1:32902#ServerID_OuterContainerID&#45;&gt;10.1.80.183:8080#ServerID_OuterContainerID -->
<g id="edge29" class="edge"><title>10.1.80.1:32902#ServerID_OuterContainerID&#45;&gt;10.1.80.183:8080#ServerID_OuterContainerID</title>
<path fill="none" stroke="black" d="M4051.41,-225.963C4047.03,-245.895 4042.97,-279.255 4057,-303 4060.3,-308.587 4064.86,-313.354 4070.01,-317.403"/>
<polygon fill="black" stroke="black" points="4068.28,-320.456 4078.51,-323.189 4072.22,-314.669 4068.28,-320.456"/>
<text text-anchor="middle" x="4077" y="-291.8" font-family="Times,serif" font-size="14.00">POST</text>
</g>
</g>
</svg>
