<?xml version="1.0" encoding="UTF-8" standalone="no"?>
<!DOCTYPE svg PUBLIC "-//W3C//DTD SVG 1.1//EN"
 "http://www.w3.org/Graphics/SVG/1.1/DTD/svg11.dtd">
<!-- Generated by graphviz version 2.38.0 (20140413.2041)
 -->
<!-- Title: G Pages: 1 -->
<svg width="8860pt" height="645pt"
 viewBox="0.00 0.00 8860.00 645.00" xmlns="http://www.w3.org/2000/svg" xmlns:xlink="http://www.w3.org/1999/xlink">
<g id="graph0" class="graph" transform="scale(1 1) rotate(0) translate(4 641)">
<title>G</title>
<polygon fill="white" stroke="none" points="-4,4 -4,-641 8856,-641 8856,4 -4,4"/>
<g id="clust1" class="cluster"><title>clusterServerID_34e86192c217</title>
<polygon fill="none" stroke="black" points="8,-182 8,-498 1335,-498 1335,-182 8,-182"/>
<text text-anchor="middle" x="671.5" y="-482.8" font-family="Times,serif" font-size="14.00">clusterServerID_34e86192c217</text>
</g>
<g id="clust2" class="cluster"><title>clusterServerID_5f846fd567&#45;w7nbt</title>
<polygon fill="none" stroke="black" points="7454,-269 7454,-367 7794,-367 7794,-269 7454,-269"/>
<text text-anchor="middle" x="7624" y="-351.8" font-family="Times,serif" font-size="14.00">clusterServerID_5f846fd567&#45;w7nbt</text>
</g>
<g id="clust3" class="cluster"><title>clusterServerID_6df85d7674&#45;2kqrj</title>
<polygon fill="none" stroke="black" points="2815,-531 2815,-629 3153,-629 3153,-531 2815,-531"/>
<text text-anchor="middle" x="2984" y="-613.8" font-family="Times,serif" font-size="14.00">clusterServerID_6df85d7674&#45;2kqrj</text>
</g>
<g id="clust4" class="cluster"><title>clusterServerID_OuterContainerID</title>
<polygon fill="none" stroke="black" points="1343,-269 1343,-498 7446,-498 7446,-269 1343,-269"/>
<text text-anchor="middle" x="4394.5" y="-482.8" font-family="Times,serif" font-size="14.00">clusterServerID_OuterContainerID</text>
</g>
<g id="clust5" class="cluster"><title>clusterServerID_e56b6537e2d5</title>
<polygon fill="none" stroke="black" points="7802,-8 7802,-367 8844,-367 8844,-8 7802,-8"/>
<text text-anchor="middle" x="8323" y="-351.8" font-family="Times,serif" font-size="14.00">clusterServerID_e56b6537e2d5</text>
</g>
<!-- gateway:8080#ServerID_OuterContainerID -->
<g id="node1" class="node"><title>gateway:8080#ServerID_OuterContainerID</title>
<polygon fill="none" stroke="black" points="1655,-444 1350.52,-426 1655,-408 1959.48,-426 1655,-444"/>
<text text-anchor="middle" x="1655" y="-422.3" font-family="Times,serif" font-size="14.00">gateway:8080#ServerID_OuterContainerID</text>
</g>
<!-- 1_fwatchdog#ServerID_6df85d7674&#45;2kqrj -->
<g id="node2" class="node"><title>1_fwatchdog#ServerID_6df85d7674&#45;2kqrj</title>
<polygon fill="none" stroke="black" points="3144.5,-575 2823.5,-575 2823.5,-539 3144.5,-539 3144.5,-575"/>
<text text-anchor="middle" x="2984" y="-553.3" font-family="Times,serif" font-size="14.00">1_fwatchdog#ServerID_6df85d7674&#45;2kqrj</text>
</g>
<!-- gateway:8080#ServerID_OuterContainerID&#45;&gt;1_fwatchdog#ServerID_6df85d7674&#45;2kqrj -->
<g id="edge1" class="edge"><title>gateway:8080#ServerID_OuterContainerID&#45;&gt;1_fwatchdog#ServerID_6df85d7674&#45;2kqrj</title>
<path fill="none" stroke="black" d="M1713.79,-440.58C1776.66,-455.044 1879.29,-478.495 1968,-498 2015.93,-508.54 2027.3,-514.921 2076,-521 2213.6,-538.175 2590.4,-548.267 2813,-552.904"/>
<polygon fill="black" stroke="black" points="2813.08,-556.406 2823.15,-553.114 2813.22,-549.408 2813.08,-556.406"/>
<text text-anchor="middle" x="2118" y="-509.8" font-family="Times,serif" font-size="14.00">RESPONSE</text>
</g>
<!-- 10_node#ServerID_34e86192c217 -->
<g id="node14" class="node"><title>10_node#ServerID_34e86192c217</title>
<polygon fill="none" stroke="black" points="1326.5,-313 1059.5,-313 1059.5,-277 1326.5,-277 1326.5,-313"/>
<text text-anchor="middle" x="1193" y="-291.3" font-family="Times,serif" font-size="14.00">10_node#ServerID_34e86192c217</text>
</g>
<!-- gateway:8080#ServerID_OuterContainerID&#45;&gt;10_node#ServerID_34e86192c217 -->
<g id="edge29" class="edge"><title>gateway:8080#ServerID_OuterContainerID&#45;&gt;10_node#ServerID_34e86192c217</title>
<path fill="none" stroke="black" d="M1555.78,-413.816C1492.65,-404.992 1409.75,-390.217 1339,-367 1300.82,-354.471 1259.88,-333.876 1231.1,-318.085"/>
<polygon fill="black" stroke="black" points="1232.65,-314.939 1222.2,-313.144 1229.25,-321.059 1232.65,-314.939"/>
<text text-anchor="middle" x="1432.5" y="-378.8" font-family="Times,serif" font-size="14.00">read</text>
</g>
<!-- 1_fwatchdog#ServerID_6df85d7674&#45;2kqrj&#45;&gt;gateway:8080#ServerID_OuterContainerID -->
<g id="edge7" class="edge"><title>1_fwatchdog#ServerID_6df85d7674&#45;2kqrj&#45;&gt;gateway:8080#ServerID_OuterContainerID</title>
<path fill="none" stroke="black" d="M2823.25,-544.346C2665.02,-533.203 2416.47,-516.576 2201,-506 2097.51,-500.92 2070.76,-511.298 1968,-498 1878.17,-486.376 1776.22,-460.887 1713.76,-443.828"/>
<polygon fill="black" stroke="black" points="1714.65,-440.443 1704.08,-441.166 1712.8,-447.193 1714.65,-440.443"/>
<text text-anchor="middle" x="2480" y="-509.8" font-family="Times,serif" font-size="14.00">POST</text>
</g>
<!-- 10.1.80.247:33194#ServerID_OuterContainerID -->
<g id="node3" class="node"><title>10.1.80.247:33194#ServerID_OuterContainerID</title>
<polygon fill="none" stroke="black" points="2985,-444 2649.52,-426 2985,-408 3320.48,-426 2985,-444"/>
<text text-anchor="middle" x="2985" y="-422.3" font-family="Times,serif" font-size="14.00">10.1.80.247:33194#ServerID_OuterContainerID</text>
</g>
<!-- 1_fwatchdog#ServerID_6df85d7674&#45;2kqrj&#45;&gt;10.1.80.247:33194#ServerID_OuterContainerID -->
<g id="edge2" class="edge"><title>1_fwatchdog#ServerID_6df85d7674&#45;2kqrj&#45;&gt;10.1.80.247:33194#ServerID_OuterContainerID</title>
<path fill="none" stroke="black" d="M2948.26,-538.861C2941.73,-534.032 2935.78,-528.108 2932,-521 2928.87,-515.115 2930.06,-512.378 2932,-506 2938.15,-485.792 2951.38,-466.057 2963.09,-451.367"/>
<polygon fill="black" stroke="black" points="2966.06,-453.27 2969.74,-443.335 2960.67,-448.806 2966.06,-453.27"/>
<text text-anchor="middle" x="2974" y="-509.8" font-family="Times,serif" font-size="14.00">RESPONSE</text>
</g>
<!-- 10.1.80.247:8080#ServerID_OuterContainerID -->
<g id="node6" class="node"><title>10.1.80.247:8080#ServerID_OuterContainerID</title>
<polygon fill="none" stroke="black" points="3666,-444 3338.56,-426 3666,-408 3993.44,-426 3666,-444"/>
<text text-anchor="middle" x="3666" y="-422.3" font-family="Times,serif" font-size="14.00">10.1.80.247:8080#ServerID_OuterContainerID</text>
</g>
<!-- 1_fwatchdog#ServerID_6df85d7674&#45;2kqrj&#45;&gt;10.1.80.247:8080#ServerID_OuterContainerID -->
<g id="edge6" class="edge"><title>1_fwatchdog#ServerID_6df85d7674&#45;2kqrj&#45;&gt;10.1.80.247:8080#ServerID_OuterContainerID</title>
<path fill="none" stroke="black" d="M3092.2,-538.98C3160.29,-527.981 3249.93,-512.969 3329,-498 3421.06,-480.571 3526.69,-457.876 3594.78,-442.892"/>
<polygon fill="black" stroke="black" points="3595.95,-446.218 3604.96,-440.647 3594.45,-439.382 3595.95,-446.218"/>
<text text-anchor="middle" x="3303" y="-509.8" font-family="Times,serif" font-size="14.00">POST</text>
</g>
<!-- 10.1.80.247:33194#ServerID_OuterContainerID&#45;&gt;1_fwatchdog#ServerID_6df85d7674&#45;2kqrj -->
<g id="edge4" class="edge"><title>10.1.80.247:33194#ServerID_OuterContainerID&#45;&gt;1_fwatchdog#ServerID_6df85d7674&#45;2kqrj</title>
<path fill="none" stroke="black" d="M2997.4,-443.484C3010.03,-462.397 3026.39,-494.248 3016,-521 3014.64,-524.507 3012.74,-527.876 3010.55,-531.046"/>
<polygon fill="black" stroke="black" points="3007.75,-528.944 3004.2,-538.928 3013.2,-533.335 3007.75,-528.944"/>
<text text-anchor="middle" x="3040" y="-509.8" font-family="Times,serif" font-size="14.00">POST</text>
</g>
<!-- 1_fwatchdog#ServerID_34e86192c217 -->
<g id="node7" class="node"><title>1_fwatchdog#ServerID_34e86192c217</title>
<polygon fill="none" stroke="black" points="520.5,-444 221.5,-444 221.5,-408 520.5,-408 520.5,-444"/>
<text text-anchor="middle" x="371" y="-422.3" font-family="Times,serif" font-size="14.00">1_fwatchdog#ServerID_34e86192c217</text>
</g>
<!-- 10.1.80.247:33194#ServerID_OuterContainerID&#45;&gt;1_fwatchdog#ServerID_34e86192c217 -->
<g id="edge12" class="edge"><title>10.1.80.247:33194#ServerID_OuterContainerID&#45;&gt;1_fwatchdog#ServerID_34e86192c217</title>
<path fill="none" stroke="black" d="M2930.28,-441.066C2862.7,-458.823 2743.92,-487.271 2640,-498 2523.4,-510.038 644.583,-522.734 530,-498 486.596,-488.631 440.786,-466.397 409.545,-449.096"/>
<polygon fill="black" stroke="black" points="411.166,-445.992 400.735,-444.134 407.73,-452.091 411.166,-445.992"/>
<text text-anchor="middle" x="2181" y="-509.8" font-family="Times,serif" font-size="14.00">read</text>
</g>
<!-- 10.1.80.247:35158#ServerID_OuterContainerID -->
<g id="node4" class="node"><title>10.1.80.247:35158#ServerID_OuterContainerID</title>
<polygon fill="none" stroke="black" points="4347,-444 4011.52,-426 4347,-408 4682.48,-426 4347,-444"/>
<text text-anchor="middle" x="4347" y="-422.3" font-family="Times,serif" font-size="14.00">10.1.80.247:35158#ServerID_OuterContainerID</text>
</g>
<!-- 1_fwatchdog#ServerID_5f846fd567&#45;w7nbt -->
<g id="node5" class="node"><title>1_fwatchdog#ServerID_5f846fd567&#45;w7nbt</title>
<polygon fill="none" stroke="black" points="7786,-313 7462,-313 7462,-277 7786,-277 7786,-313"/>
<text text-anchor="middle" x="7624" y="-291.3" font-family="Times,serif" font-size="14.00">1_fwatchdog#ServerID_5f846fd567&#45;w7nbt</text>
</g>
<!-- 10.1.80.247:35158#ServerID_OuterContainerID&#45;&gt;1_fwatchdog#ServerID_5f846fd567&#45;w7nbt -->
<g id="edge3" class="edge"><title>10.1.80.247:35158#ServerID_OuterContainerID&#45;&gt;1_fwatchdog#ServerID_5f846fd567&#45;w7nbt</title>
<path fill="none" stroke="black" d="M4495.55,-415.932C4700.82,-403.875 5082.86,-383.141 5409,-375 5465.68,-373.585 7394.39,-378.023 7450,-367 7497.83,-357.52 7549.11,-334.911 7583.52,-317.733"/>
<polygon fill="black" stroke="black" points="7585.42,-320.692 7592.76,-313.048 7582.26,-314.449 7585.42,-320.692"/>
<text text-anchor="middle" x="5429" y="-378.8" font-family="Times,serif" font-size="14.00">POST</text>
</g>
<!-- 1_fwatchdog#ServerID_e56b6537e2d5 -->
<g id="node9" class="node"><title>1_fwatchdog#ServerID_e56b6537e2d5</title>
<polygon fill="none" stroke="black" points="8109.5,-313 7810.5,-313 7810.5,-277 8109.5,-277 8109.5,-313"/>
<text text-anchor="middle" x="7960" y="-291.3" font-family="Times,serif" font-size="14.00">1_fwatchdog#ServerID_e56b6537e2d5</text>
</g>
<!-- 10.1.80.247:35158#ServerID_OuterContainerID&#45;&gt;1_fwatchdog#ServerID_e56b6537e2d5 -->
<g id="edge27" class="edge"><title>10.1.80.247:35158#ServerID_OuterContainerID&#45;&gt;1_fwatchdog#ServerID_e56b6537e2d5</title>
<path fill="none" stroke="black" d="M4504.11,-416.413C4563.03,-413.416 4630.57,-410.243 4692,-408 5028.32,-395.717 5112.62,-400.306 5449,-390 5626.82,-384.552 5671.14,-378.699 5849,-375 5903.13,-373.874 7745.03,-378.211 7798,-367 7842.71,-357.538 7890.18,-335.085 7922.09,-317.942"/>
<polygon fill="black" stroke="black" points="7923.97,-320.903 7931.07,-313.038 7920.62,-314.76 7923.97,-320.903"/>
<text text-anchor="middle" x="5865.5" y="-378.8" font-family="Times,serif" font-size="14.00">read</text>
</g>
<!-- 1_fwatchdog#ServerID_5f846fd567&#45;w7nbt&#45;&gt;10.1.80.247:35158#ServerID_OuterContainerID -->
<g id="edge5" class="edge"><title>1_fwatchdog#ServerID_5f846fd567&#45;w7nbt&#45;&gt;10.1.80.247:35158#ServerID_OuterContainerID</title>
<path fill="none" stroke="black" d="M7592.76,-313.056C7558.79,-330.558 7502.33,-356.649 7450,-367 7380.87,-380.675 4983.4,-371.785 4913,-375 4754.93,-382.218 4572.73,-400.022 4458.7,-412.311"/>
<polygon fill="black" stroke="black" points="4458.13,-408.852 4448.56,-413.408 4458.88,-415.812 4458.13,-408.852"/>
<text text-anchor="middle" x="4955" y="-378.8" font-family="Times,serif" font-size="14.00">RESPONSE</text>
</g>
<!-- 10.1.80.247:8080#ServerID_OuterContainerID&#45;&gt;1_fwatchdog#ServerID_6df85d7674&#45;2kqrj -->
<g id="edge8" class="edge"><title>10.1.80.247:8080#ServerID_OuterContainerID&#45;&gt;1_fwatchdog#ServerID_6df85d7674&#45;2kqrj</title>
<path fill="none" stroke="black" d="M3622.41,-441.644C3558.4,-462.557 3434.89,-500.688 3327,-521 3271.48,-531.452 3210.28,-538.954 3155.14,-544.261"/>
<polygon fill="black" stroke="black" points="3154.54,-540.802 3144.91,-545.227 3155.2,-547.771 3154.54,-540.802"/>
<text text-anchor="middle" x="3435" y="-509.8" font-family="Times,serif" font-size="14.00">RESPONSE</text>
</g>
<!-- 10.1.80.1:45238#ServerID_OuterContainerID -->
<g id="node24" class="node"><title>10.1.80.1:45238#ServerID_OuterContainerID</title>
<polygon fill="none" stroke="black" points="3773,-313 3454.1,-295 3773,-277 4091.9,-295 3773,-313"/>
<text text-anchor="middle" x="3773" y="-291.3" font-family="Times,serif" font-size="14.00">10.1.80.1:45238#ServerID_OuterContainerID</text>
</g>
<!-- 10.1.80.247:8080#ServerID_OuterContainerID&#45;&gt;10.1.80.1:45238#ServerID_OuterContainerID -->
<g id="edge30" class="edge"><title>10.1.80.247:8080#ServerID_OuterContainerID&#45;&gt;10.1.80.1:45238#ServerID_OuterContainerID</title>
<path fill="none" stroke="black" d="M3662.74,-407.88C3661.66,-397.773 3661.84,-385.037 3667,-375 3680.39,-348.965 3706.76,-329.26 3729.84,-316.042"/>
<polygon fill="black" stroke="black" points="3731.74,-318.996 3738.83,-311.121 3728.37,-312.857 3731.74,-318.996"/>
<text text-anchor="middle" x="3709" y="-378.8" font-family="Times,serif" font-size="14.00">RESPONSE</text>
</g>
<!-- 10.0.88.125:31112#ServerID_OuterContainerID -->
<g id="node25" class="node"><title>10.0.88.125:31112#ServerID_OuterContainerID</title>
<polygon fill="none" stroke="black" points="3101,-313 2765.52,-295 3101,-277 3436.48,-295 3101,-313"/>
<text text-anchor="middle" x="3101" y="-291.3" font-family="Times,serif" font-size="14.00">10.0.88.125:31112#ServerID_OuterContainerID</text>
</g>
<!-- 10.1.80.247:8080#ServerID_OuterContainerID&#45;&gt;10.0.88.125:31112#ServerID_OuterContainerID -->
<g id="edge32" class="edge"><title>10.1.80.247:8080#ServerID_OuterContainerID&#45;&gt;10.0.88.125:31112#ServerID_OuterContainerID</title>
<path fill="none" stroke="black" d="M3605.8,-411.256C3500.5,-387.214 3283.44,-337.655 3171.38,-312.069"/>
<polygon fill="black" stroke="black" points="3172.05,-308.633 3161.52,-309.819 3170.49,-315.457 3172.05,-308.633"/>
<text text-anchor="middle" x="3542" y="-378.8" font-family="Times,serif" font-size="14.00">RESPONSE</text>
</g>
<!-- localhost:3000#ServerID_34e86192c217 -->
<g id="node8" class="node"><title>localhost:3000#ServerID_34e86192c217</title>
<polygon fill="none" stroke="black" points="755,-313 468.446,-295 755,-277 1041.55,-295 755,-313"/>
<text text-anchor="middle" x="755" y="-291.3" font-family="Times,serif" font-size="14.00">localhost:3000#ServerID_34e86192c217</text>
</g>
<!-- 1_fwatchdog#ServerID_34e86192c217&#45;&gt;localhost:3000#ServerID_34e86192c217 -->
<g id="edge9" class="edge"><title>1_fwatchdog#ServerID_34e86192c217&#45;&gt;localhost:3000#ServerID_34e86192c217</title>
<path fill="none" stroke="black" d="M421.992,-407.87C495.015,-383.339 628.686,-338.434 702.522,-313.629"/>
<polygon fill="black" stroke="black" points="703.729,-316.916 712.094,-310.414 701.5,-310.28 703.729,-316.916"/>
<text text-anchor="middle" x="547" y="-378.8" font-family="Times,serif" font-size="14.00">connect</text>
</g>
<!-- 1_fwatchdog#ServerID_34e86192c217&#45;&gt;localhost:3000#ServerID_34e86192c217 -->
<g id="edge11" class="edge"><title>1_fwatchdog#ServerID_34e86192c217&#45;&gt;localhost:3000#ServerID_34e86192c217</title>
<path fill="none" stroke="black" d="M511.419,-407.989C534.652,-403.331 558.243,-397.438 580,-390 633.022,-371.873 689.235,-338.89 723.229,-317.211"/>
<polygon fill="black" stroke="black" points="725.284,-320.05 731.791,-311.688 721.491,-314.167 725.284,-320.05"/>
<text text-anchor="middle" x="635" y="-378.8" font-family="Times,serif" font-size="14.00">write</text>
</g>
<!-- pipe:[331683132]#ServerID_34e86192c217 -->
<g id="node21" class="node"><title>pipe:[331683132]#ServerID_34e86192c217</title>
<ellipse fill="none" stroke="black" cx="233" cy="-295" rx="217.162" ry="18"/>
<text text-anchor="middle" x="233" y="-291.3" font-family="Times,serif" font-size="14.00">pipe:[331683132]#ServerID_34e86192c217</text>
</g>
<!-- 1_fwatchdog#ServerID_34e86192c217&#45;&gt;pipe:[331683132]#ServerID_34e86192c217 -->
<g id="edge25" class="edge"><title>1_fwatchdog#ServerID_34e86192c217&#45;&gt;pipe:[331683132]#ServerID_34e86192c217</title>
<path fill="none" stroke="black" d="M352.675,-407.87C328.652,-385.413 286.364,-345.884 259.028,-320.33"/>
<polygon fill="black" stroke="black" points="261.097,-317.473 251.401,-313.201 256.316,-322.587 261.097,-317.473"/>
<text text-anchor="middle" x="350" y="-378.8" font-family="Times,serif" font-size="14.00">write</text>
</g>
<!-- localhost:3000#ServerID_34e86192c217&#45;&gt;1_fwatchdog#ServerID_34e86192c217 -->
<g id="edge10" class="edge"><title>localhost:3000#ServerID_34e86192c217&#45;&gt;1_fwatchdog#ServerID_34e86192c217</title>
<path fill="none" stroke="black" d="M679.56,-308.34C615.991,-320.383 523.582,-341.799 448,-375 431.839,-382.099 415.251,-392.413 401.63,-401.831"/>
<polygon fill="black" stroke="black" points="399.275,-399.21 393.141,-407.849 403.323,-404.921 399.275,-399.21"/>
<text text-anchor="middle" x="464.5" y="-378.8" font-family="Times,serif" font-size="14.00">read</text>
</g>
<!-- localhost:3000#ServerID_e56b6537e2d5 -->
<g id="node10" class="node"><title>localhost:3000#ServerID_e56b6537e2d5</title>
<polygon fill="none" stroke="black" points="8549,-226 8262.45,-208 8549,-190 8835.55,-208 8549,-226"/>
<text text-anchor="middle" x="8549" y="-204.3" font-family="Times,serif" font-size="14.00">localhost:3000#ServerID_e56b6537e2d5</text>
</g>
<!-- 1_fwatchdog#ServerID_e56b6537e2d5&#45;&gt;localhost:3000#ServerID_e56b6537e2d5 -->
<g id="edge13" class="edge"><title>1_fwatchdog#ServerID_e56b6537e2d5&#45;&gt;localhost:3000#ServerID_e56b6537e2d5</title>
<path fill="none" stroke="black" d="M8109.64,-284.037C8176.41,-278.485 8255.9,-270.351 8327,-259 8381.41,-250.315 8442.41,-236.255 8486.69,-225.253"/>
<polygon fill="black" stroke="black" points="8487.58,-228.637 8496.43,-222.813 8485.88,-221.846 8487.58,-228.637"/>
<text text-anchor="middle" x="8419" y="-247.8" font-family="Times,serif" font-size="14.00">write</text>
</g>
<!-- pipe:[331682317]#ServerID_e56b6537e2d5 -->
<g id="node20" class="node"><title>pipe:[331682317]#ServerID_e56b6537e2d5</title>
<ellipse fill="none" stroke="black" cx="8027" cy="-208" rx="217.162" ry="18"/>
<text text-anchor="middle" x="8027" y="-204.3" font-family="Times,serif" font-size="14.00">pipe:[331682317]#ServerID_e56b6537e2d5</text>
</g>
<!-- 1_fwatchdog#ServerID_e56b6537e2d5&#45;&gt;pipe:[331682317]#ServerID_e56b6537e2d5 -->
<g id="edge24" class="edge"><title>1_fwatchdog#ServerID_e56b6537e2d5&#45;&gt;pipe:[331682317]#ServerID_e56b6537e2d5</title>
<path fill="none" stroke="black" d="M7973.56,-276.799C7983.18,-264.587 7996.27,-247.992 8007.08,-234.278"/>
<polygon fill="black" stroke="black" points="8010.02,-236.196 8013.46,-226.175 8004.52,-231.862 8010.02,-236.196"/>
<text text-anchor="middle" x="8016" y="-247.8" font-family="Times,serif" font-size="14.00">write</text>
</g>
<!-- localhost:3000#ServerID_e56b6537e2d5&#45;&gt;1_fwatchdog#ServerID_e56b6537e2d5 -->
<g id="edge14" class="edge"><title>localhost:3000#ServerID_e56b6537e2d5&#45;&gt;1_fwatchdog#ServerID_e56b6537e2d5</title>
<path fill="none" stroke="black" d="M8461.14,-220.517C8410.98,-227.181 8346.93,-235.841 8290,-244 8220.17,-254.007 8142.13,-265.804 8079.48,-275.425"/>
<polygon fill="black" stroke="black" points="8078.91,-271.971 8069.56,-276.949 8079.97,-278.889 8078.91,-271.971"/>
<text text-anchor="middle" x="8306.5" y="-247.8" font-family="Times,serif" font-size="14.00">read</text>
</g>
<!-- 12_node#ServerID_e56b6537e2d5 -->
<g id="node22" class="node"><title>12_node#ServerID_e56b6537e2d5</title>
<polygon fill="none" stroke="black" points="8682.5,-139 8415.5,-139 8415.5,-103 8682.5,-103 8682.5,-139"/>
<text text-anchor="middle" x="8549" y="-117.3" font-family="Times,serif" font-size="14.00">12_node#ServerID_e56b6537e2d5</text>
</g>
<!-- localhost:3000#ServerID_e56b6537e2d5&#45;&gt;12_node#ServerID_e56b6537e2d5 -->
<g id="edge28" class="edge"><title>localhost:3000#ServerID_e56b6537e2d5&#45;&gt;12_node#ServerID_e56b6537e2d5</title>
<path fill="none" stroke="black" d="M8549,-189.799C8549,-178.163 8549,-162.548 8549,-149.237"/>
<polygon fill="black" stroke="black" points="8552.5,-149.175 8549,-139.175 8545.5,-149.175 8552.5,-149.175"/>
<text text-anchor="middle" x="8565.5" y="-160.8" font-family="Times,serif" font-size="14.00">read</text>
</g>
<!-- 10.1.80.247:35114#ServerID_OuterContainerID -->
<g id="node11" class="node"><title>10.1.80.247:35114#ServerID_OuterContainerID</title>
<polygon fill="none" stroke="black" points="5036,-444 4700.52,-426 5036,-408 5371.48,-426 5036,-444"/>
<text text-anchor="middle" x="5036" y="-422.3" font-family="Times,serif" font-size="14.00">10.1.80.247:35114#ServerID_OuterContainerID</text>
</g>
<!-- 10.1.80.247:35114#ServerID_OuterContainerID&#45;&gt;1_fwatchdog#ServerID_e56b6537e2d5 -->
<g id="edge15" class="edge"><title>10.1.80.247:35114#ServerID_OuterContainerID&#45;&gt;1_fwatchdog#ServerID_e56b6537e2d5</title>
<path fill="none" stroke="black" d="M5194.41,-416.498C5253.02,-413.535 5320.03,-410.365 5381,-408 5899.04,-387.908 6028.65,-383.991 6547,-375 6581.75,-374.397 7764.01,-374.235 7798,-367 7842.69,-357.486 7890.17,-335.042 7922.09,-317.915"/>
<polygon fill="black" stroke="black" points="7923.96,-320.878 7931.07,-313.016 7920.61,-314.733 7923.96,-320.878"/>
<text text-anchor="middle" x="6563.5" y="-378.8" font-family="Times,serif" font-size="14.00">read</text>
</g>
<!-- 10.1.80.247:35102#ServerID_OuterContainerID -->
<g id="node12" class="node"><title>10.1.80.247:35102#ServerID_OuterContainerID</title>
<polygon fill="none" stroke="black" points="5725,-444 5389.52,-426 5725,-408 6060.48,-426 5725,-444"/>
<text text-anchor="middle" x="5725" y="-422.3" font-family="Times,serif" font-size="14.00">10.1.80.247:35102#ServerID_OuterContainerID</text>
</g>
<!-- 10.1.80.247:35102#ServerID_OuterContainerID&#45;&gt;1_fwatchdog#ServerID_e56b6537e2d5 -->
<g id="edge16" class="edge"><title>10.1.80.247:35102#ServerID_OuterContainerID&#45;&gt;1_fwatchdog#ServerID_e56b6537e2d5</title>
<path fill="none" stroke="black" d="M5883.84,-416.496C5942.35,-413.542 6009.18,-410.378 6070,-408 6576.94,-388.182 6703.79,-385.79 7211,-375 7243.61,-374.306 7766.13,-373.905 7798,-367 7842.52,-357.354 7889.85,-335.044 7921.78,-317.987"/>
<polygon fill="black" stroke="black" points="7923.64,-320.955 7930.76,-313.107 7920.3,-314.803 7923.64,-320.955"/>
<text text-anchor="middle" x="7227.5" y="-378.8" font-family="Times,serif" font-size="14.00">read</text>
</g>
<!-- 10.1.80.247:35108#ServerID_OuterContainerID -->
<g id="node13" class="node"><title>10.1.80.247:35108#ServerID_OuterContainerID</title>
<polygon fill="none" stroke="black" points="6414,-444 6078.52,-426 6414,-408 6749.48,-426 6414,-444"/>
<text text-anchor="middle" x="6414" y="-422.3" font-family="Times,serif" font-size="14.00">10.1.80.247:35108#ServerID_OuterContainerID</text>
</g>
<!-- 10.1.80.247:35108#ServerID_OuterContainerID&#45;&gt;1_fwatchdog#ServerID_e56b6537e2d5 -->
<g id="edge17" class="edge"><title>10.1.80.247:35108#ServerID_OuterContainerID&#45;&gt;1_fwatchdog#ServerID_e56b6537e2d5</title>
<path fill="none" stroke="black" d="M6576.33,-416.673C6634,-413.802 6699.39,-410.645 6759,-408 6766.21,-407.68 7790.96,-368.62 7798,-367 7842.26,-356.812 7889.45,-334.698 7921.41,-317.838"/>
<polygon fill="black" stroke="black" points="7923.25,-320.823 7930.42,-313.015 7919.95,-314.652 7923.25,-320.823"/>
<text text-anchor="middle" x="7614.5" y="-378.8" font-family="Times,serif" font-size="14.00">read</text>
</g>
<!-- pipe:[331683264]#ServerID_34e86192c217 -->
<g id="node15" class="node"><title>pipe:[331683264]#ServerID_34e86192c217</title>
<ellipse fill="none" stroke="black" cx="1110" cy="-208" rx="217.162" ry="18"/>
<text text-anchor="middle" x="1110" y="-204.3" font-family="Times,serif" font-size="14.00">pipe:[331683264]#ServerID_34e86192c217</text>
</g>
<!-- 10_node#ServerID_34e86192c217&#45;&gt;pipe:[331683264]#ServerID_34e86192c217 -->
<g id="edge18" class="edge"><title>10_node#ServerID_34e86192c217&#45;&gt;pipe:[331683264]#ServerID_34e86192c217</title>
<path fill="none" stroke="black" d="M1176.2,-276.799C1164.05,-264.356 1147.46,-247.364 1133.93,-233.504"/>
<polygon fill="black" stroke="black" points="1136.26,-230.885 1126.77,-226.175 1131.25,-235.775 1136.26,-230.885"/>
<text text-anchor="middle" x="1176" y="-247.8" font-family="Times,serif" font-size="14.00">write</text>
</g>
<!-- 10.152.183.10:53#ServerID_OuterContainerID -->
<g id="node19" class="node"><title>10.152.183.10:53#ServerID_OuterContainerID</title>
<polygon fill="none" stroke="black" points="2304,-444 1976.56,-426 2304,-408 2631.44,-426 2304,-444"/>
<text text-anchor="middle" x="2304" y="-422.3" font-family="Times,serif" font-size="14.00">10.152.183.10:53#ServerID_OuterContainerID</text>
</g>
<!-- 10_node#ServerID_34e86192c217&#45;&gt;10.152.183.10:53#ServerID_OuterContainerID -->
<g id="edge22" class="edge"><title>10_node#ServerID_34e86192c217&#45;&gt;10.152.183.10:53#ServerID_OuterContainerID</title>
<path fill="none" stroke="black" d="M1219.11,-313.104C1247.33,-330.511 1294.3,-356.395 1339,-367 1371.65,-374.747 1909.54,-372.471 1943,-375 2038.36,-382.207 2146.95,-398.332 2219.91,-410.333"/>
<polygon fill="black" stroke="black" points="2219.53,-413.817 2229.97,-411.998 2220.67,-406.911 2219.53,-413.817"/>
<text text-anchor="middle" x="2107.5" y="-378.8" font-family="Times,serif" font-size="14.00">sendto</text>
</g>
<!-- /etc/hosts#ServerID_34e86192c217 -->
<g id="node16" class="node"><title>/etc/hosts#ServerID_34e86192c217</title>
<ellipse fill="none" stroke="black" cx="1147" cy="-426" rx="180.068" ry="18"/>
<text text-anchor="middle" x="1147" y="-422.3" font-family="Times,serif" font-size="14.00">/etc/hosts#ServerID_34e86192c217</text>
</g>
<!-- /etc/hosts#ServerID_34e86192c217&#45;&gt;10_node#ServerID_34e86192c217 -->
<g id="edge19" class="edge"><title>/etc/hosts#ServerID_34e86192c217&#45;&gt;10_node#ServerID_34e86192c217</title>
<path fill="none" stroke="black" d="M1153.11,-407.87C1160.88,-386.088 1174.37,-348.244 1183.49,-322.67"/>
<polygon fill="black" stroke="black" points="1186.8,-323.796 1186.87,-313.201 1180.21,-321.445 1186.8,-323.796"/>
<text text-anchor="middle" x="1181.5" y="-378.8" font-family="Times,serif" font-size="14.00">read</text>
</g>
<!-- 10.1.80.247:35138#ServerID_OuterContainerID -->
<g id="node17" class="node"><title>10.1.80.247:35138#ServerID_OuterContainerID</title>
<polygon fill="none" stroke="black" points="7103,-444 6767.52,-426 7103,-408 7438.48,-426 7103,-444"/>
<text text-anchor="middle" x="7103" y="-422.3" font-family="Times,serif" font-size="14.00">10.1.80.247:35138#ServerID_OuterContainerID</text>
</g>
<!-- 10.1.80.247:35138#ServerID_OuterContainerID&#45;&gt;1_fwatchdog#ServerID_e56b6537e2d5 -->
<g id="edge20" class="edge"><title>10.1.80.247:35138#ServerID_OuterContainerID&#45;&gt;1_fwatchdog#ServerID_e56b6537e2d5</title>
<path fill="none" stroke="black" d="M7274.05,-417.173C7447.13,-408.098 7702.42,-391.219 7798,-367 7841.62,-355.948 7888.38,-334.285 7920.4,-317.781"/>
<polygon fill="black" stroke="black" points="7922.19,-320.793 7929.43,-313.059 7918.95,-314.59 7922.19,-320.793"/>
<text text-anchor="middle" x="7771.5" y="-378.8" font-family="Times,serif" font-size="14.00">read</text>
</g>
<!-- /etc/resolv.conf#ServerID_34e86192c217 -->
<g id="node18" class="node"><title>/etc/resolv.conf#ServerID_34e86192c217</title>
<ellipse fill="none" stroke="black" cx="744" cy="-426" rx="205.264" ry="18"/>
<text text-anchor="middle" x="744" y="-422.3" font-family="Times,serif" font-size="14.00">/etc/resolv.conf#ServerID_34e86192c217</text>
</g>
<!-- /etc/resolv.conf#ServerID_34e86192c217&#45;&gt;10_node#ServerID_34e86192c217 -->
<g id="edge21" class="edge"><title>/etc/resolv.conf#ServerID_34e86192c217&#45;&gt;10_node#ServerID_34e86192c217</title>
<path fill="none" stroke="black" d="M858.921,-411.005C917.416,-401.956 989.065,-387.882 1051,-367 1088.08,-354.5 1127.7,-334.032 1155.64,-318.276"/>
<polygon fill="black" stroke="black" points="1157.7,-321.13 1164.65,-313.131 1154.23,-315.051 1157.7,-321.13"/>
<text text-anchor="middle" x="1035.5" y="-378.8" font-family="Times,serif" font-size="14.00">read</text>
</g>
<!-- 10.152.183.10:53#ServerID_OuterContainerID&#45;&gt;10_node#ServerID_34e86192c217 -->
<g id="edge23" class="edge"><title>10.152.183.10:53#ServerID_OuterContainerID&#45;&gt;10_node#ServerID_34e86192c217</title>
<path fill="none" stroke="black" d="M2152.94,-416.295C1883.88,-400.738 1348.72,-369.546 1339,-367 1299.14,-356.554 1257.2,-334.888 1228.55,-318.221"/>
<polygon fill="black" stroke="black" points="1230.12,-315.085 1219.73,-313.006 1226.56,-321.109 1230.12,-315.085"/>
<text text-anchor="middle" x="1718" y="-378.8" font-family="Times,serif" font-size="14.00">recvfrom</text>
</g>
<!-- pipe:[331682415]#ServerID_e56b6537e2d5 -->
<g id="node23" class="node"><title>pipe:[331682415]#ServerID_e56b6537e2d5</title>
<ellipse fill="none" stroke="black" cx="8549" cy="-34" rx="217.162" ry="18"/>
<text text-anchor="middle" x="8549" y="-30.3" font-family="Times,serif" font-size="14.00">pipe:[331682415]#ServerID_e56b6537e2d5</text>
</g>
<!-- 12_node#ServerID_e56b6537e2d5&#45;&gt;pipe:[331682415]#ServerID_e56b6537e2d5 -->
<g id="edge26" class="edge"><title>12_node#ServerID_e56b6537e2d5&#45;&gt;pipe:[331682415]#ServerID_e56b6537e2d5</title>
<path fill="none" stroke="black" d="M8549,-102.799C8549,-91.1626 8549,-75.5479 8549,-62.2368"/>
<polygon fill="black" stroke="black" points="8552.5,-62.1754 8549,-52.1754 8545.5,-62.1755 8552.5,-62.1754"/>
<text text-anchor="middle" x="8568" y="-73.8" font-family="Times,serif" font-size="14.00">write</text>
</g>
<!-- 10.1.80.1:45238#ServerID_OuterContainerID&#45;&gt;10.1.80.247:8080#ServerID_OuterContainerID -->
<g id="edge31" class="edge"><title>10.1.80.1:45238#ServerID_OuterContainerID&#45;&gt;10.1.80.247:8080#ServerID_OuterContainerID</title>
<path fill="none" stroke="black" d="M3773.48,-312.988C3773.15,-333.564 3769.57,-368.173 3751,-390 3745.42,-396.552 3738.43,-401.896 3730.86,-406.251"/>
<polygon fill="black" stroke="black" points="3729.05,-403.243 3721.76,-410.922 3732.25,-409.47 3729.05,-403.243"/>
<text text-anchor="middle" x="3780" y="-378.8" font-family="Times,serif" font-size="14.00">POST</text>
</g>
</g>
</svg>
