<?xml version="1.0" encoding="UTF-8" standalone="no"?>
<!DOCTYPE svg PUBLIC "-//W3C//DTD SVG 1.1//EN"
 "http://www.w3.org/Graphics/SVG/1.1/DTD/svg11.dtd">
<!-- Generated by graphviz version 2.38.0 (20140413.2041)
 -->
<!-- Title: G Pages: 1 -->
<svg width="5421pt" height="315pt"
 viewBox="0.00 0.00 5421.00 315.00" xmlns="http://www.w3.org/2000/svg" xmlns:xlink="http://www.w3.org/1999/xlink">
<g id="graph0" class="graph" transform="scale(1 1) rotate(0) translate(4 311)">
<title>G</title>
<polygon fill="white" stroke="none" points="-4,4 -4,-311 5417,-311 5417,4 -4,4"/>
<g id="clust1" class="cluster"><title>clusterServerID_34e86192c217</title>
<polygon fill="none" stroke="black" points="2877,-224 2877,-299 3478,-299 3478,-224 2877,-224"/>
<text text-anchor="middle" x="3177.5" y="-283.8" font-family="Times,serif" font-size="14.00">clusterServerID_34e86192c217</text>
</g>
<g id="clust2" class="cluster"><title>clusterServerID_5f846fd567&#45;w7nbt</title>
<polygon fill="none" stroke="black" points="4741,-8 4741,-83 5081,-83 5081,-8 4741,-8"/>
<text text-anchor="middle" x="4911" y="-67.8" font-family="Times,serif" font-size="14.00">clusterServerID_5f846fd567&#45;w7nbt</text>
</g>
<g id="clust3" class="cluster"><title>clusterServerID_6df85d7674&#45;2kqrj</title>
<polygon fill="none" stroke="black" points="854,-224 854,-299 1192,-299 1192,-224 854,-224"/>
<text text-anchor="middle" x="1023" y="-283.8" font-family="Times,serif" font-size="14.00">clusterServerID_6df85d7674&#45;2kqrj</text>
</g>
<g id="clust4" class="cluster"><title>clusterServerID_90667071e782</title>
<polygon fill="none" stroke="black" points="4812,-116 4812,-299 5334,-299 5334,-116 4812,-116"/>
<text text-anchor="middle" x="5073" y="-283.8" font-family="Times,serif" font-size="14.00">clusterServerID_90667071e782</text>
</g>
<g id="clust5" class="cluster"><title>clusterServerID_OuterContainerID</title>
<polygon fill="none" stroke="black" points="8,-8 8,-191 4733,-191 4733,-8 8,-8"/>
<text text-anchor="middle" x="2370.5" y="-175.8" font-family="Times,serif" font-size="14.00">clusterServerID_OuterContainerID</text>
</g>
<g id="clust6" class="cluster"><title>clusterServerID_e56b6537e2d5</title>
<polygon fill="none" stroke="black" points="5089,-8 5089,-83 5405,-83 5405,-8 5089,-8"/>
<text text-anchor="middle" x="5247" y="-67.8" font-family="Times,serif" font-size="14.00">clusterServerID_e56b6537e2d5</text>
</g>
<!-- 10.1.80.247:35290#ServerID_OuterContainerID -->
<g id="node1" class="node"><title>10.1.80.247:35290#ServerID_OuterContainerID</title>
<polygon fill="none" stroke="black" points="1713,-160 1377.52,-142 1713,-124 2048.48,-142 1713,-160"/>
<text text-anchor="middle" x="1713" y="-138.3" font-family="Times,serif" font-size="14.00">10.1.80.247:35290#ServerID_OuterContainerID</text>
</g>
<!-- 1_fwatchdog#ServerID_5f846fd567&#45;w7nbt -->
<g id="node2" class="node"><title>1_fwatchdog#ServerID_5f846fd567&#45;w7nbt</title>
<polygon fill="none" stroke="black" points="5073,-52 4749,-52 4749,-16 5073,-16 5073,-52"/>
<text text-anchor="middle" x="4911" y="-30.3" font-family="Times,serif" font-size="14.00">1_fwatchdog#ServerID_5f846fd567&#45;w7nbt</text>
</g>
<!-- 10.1.80.247:35290#ServerID_OuterContainerID&#45;&gt;1_fwatchdog#ServerID_5f846fd567&#45;w7nbt -->
<g id="edge1" class="edge"><title>10.1.80.247:35290#ServerID_OuterContainerID&#45;&gt;1_fwatchdog#ServerID_5f846fd567&#45;w7nbt</title>
<path fill="none" stroke="black" d="M1835.45,-130.521C1901.35,-125.287 1984.06,-119.367 2058,-116 2652.15,-88.9414 2801.27,-98.3298 3396,-91 3470.5,-90.0819 4663.2,-93.2166 4737,-83 4776.41,-77.5439 4819.53,-65.6928 4852.98,-55.1321"/>
<polygon fill="black" stroke="black" points="4854.14,-58.4364 4862.6,-52.0499 4852,-51.7708 4854.14,-58.4364"/>
<text text-anchor="middle" x="3416" y="-94.8" font-family="Times,serif" font-size="14.00">POST</text>
</g>
<!-- 1_fwatchdog#ServerID_5f846fd567&#45;w7nbt&#45;&gt;10.1.80.247:35290#ServerID_OuterContainerID -->
<g id="edge3" class="edge"><title>1_fwatchdog#ServerID_5f846fd567&#45;w7nbt&#45;&gt;10.1.80.247:35290#ServerID_OuterContainerID</title>
<path fill="none" stroke="black" d="M4862.2,-52.0126C4827.7,-63.1581 4780.11,-76.7742 4737,-83 4442.37,-125.549 2355.45,-104.156 2058,-116 1986.8,-118.835 1907.49,-124.412 1842.88,-129.581"/>
<polygon fill="black" stroke="black" points="1842.33,-126.114 1832.64,-130.407 1842.89,-133.092 1842.33,-126.114"/>
<text text-anchor="middle" x="4676" y="-94.8" font-family="Times,serif" font-size="14.00">RESPONSE</text>
</g>
<!-- 1_fwatchdog#ServerID_6df85d7674&#45;2kqrj -->
<g id="node3" class="node"><title>1_fwatchdog#ServerID_6df85d7674&#45;2kqrj</title>
<polygon fill="none" stroke="black" points="1183.5,-268 862.5,-268 862.5,-232 1183.5,-232 1183.5,-268"/>
<text text-anchor="middle" x="1023" y="-246.3" font-family="Times,serif" font-size="14.00">1_fwatchdog#ServerID_6df85d7674&#45;2kqrj</text>
</g>
<!-- 10.1.80.247:33330#ServerID_OuterContainerID -->
<g id="node4" class="node"><title>10.1.80.247:33330#ServerID_OuterContainerID</title>
<polygon fill="none" stroke="black" points="1024,-160 688.515,-142 1024,-124 1359.48,-142 1024,-160"/>
<text text-anchor="middle" x="1024" y="-138.3" font-family="Times,serif" font-size="14.00">10.1.80.247:33330#ServerID_OuterContainerID</text>
</g>
<!-- 1_fwatchdog#ServerID_6df85d7674&#45;2kqrj&#45;&gt;10.1.80.247:33330#ServerID_OuterContainerID -->
<g id="edge2" class="edge"><title>1_fwatchdog#ServerID_6df85d7674&#45;2kqrj&#45;&gt;10.1.80.247:33330#ServerID_OuterContainerID</title>
<path fill="none" stroke="black" d="M987.261,-231.861C980.725,-227.032 974.784,-221.108 971,-214 967.867,-208.115 968.534,-205.194 971,-199 976.002,-186.439 985.306,-175.073 994.74,-165.914"/>
<polygon fill="black" stroke="black" points="997.224,-168.386 1002.25,-159.061 992.507,-163.214 997.224,-168.386"/>
<text text-anchor="middle" x="1013" y="-202.8" font-family="Times,serif" font-size="14.00">RESPONSE</text>
</g>
<!-- gateway:8080#ServerID_OuterContainerID -->
<g id="node5" class="node"><title>gateway:8080#ServerID_OuterContainerID</title>
<polygon fill="none" stroke="black" points="2371,-160 2066.52,-142 2371,-124 2675.48,-142 2371,-160"/>
<text text-anchor="middle" x="2371" y="-138.3" font-family="Times,serif" font-size="14.00">gateway:8080#ServerID_OuterContainerID</text>
</g>
<!-- 1_fwatchdog#ServerID_6df85d7674&#45;2kqrj&#45;&gt;gateway:8080#ServerID_OuterContainerID -->
<g id="edge5" class="edge"><title>1_fwatchdog#ServerID_6df85d7674&#45;2kqrj&#45;&gt;gateway:8080#ServerID_OuterContainerID</title>
<path fill="none" stroke="black" d="M1183.7,-236.179C1332.73,-224.741 1560.71,-208.393 1759,-199 1891.34,-192.731 1925.04,-202.811 2057,-191 2137.68,-183.779 2229.16,-169.041 2292.47,-157.79"/>
<polygon fill="black" stroke="black" points="2293.16,-161.223 2302.39,-156.016 2291.93,-154.332 2293.16,-161.223"/>
<text text-anchor="middle" x="1779" y="-202.8" font-family="Times,serif" font-size="14.00">POST</text>
</g>
<!-- 10.1.80.247:8080#ServerID_OuterContainerID -->
<g id="node6" class="node"><title>10.1.80.247:8080#ServerID_OuterContainerID</title>
<polygon fill="none" stroke="black" points="343,-160 15.5599,-142 343,-124 670.44,-142 343,-160"/>
<text text-anchor="middle" x="343" y="-138.3" font-family="Times,serif" font-size="14.00">10.1.80.247:8080#ServerID_OuterContainerID</text>
</g>
<!-- 1_fwatchdog#ServerID_6df85d7674&#45;2kqrj&#45;&gt;10.1.80.247:8080#ServerID_OuterContainerID -->
<g id="edge7" class="edge"><title>1_fwatchdog#ServerID_6df85d7674&#45;2kqrj&#45;&gt;10.1.80.247:8080#ServerID_OuterContainerID</title>
<path fill="none" stroke="black" d="M913.746,-231.969C780.644,-211.221 558.211,-176.548 433.981,-157.182"/>
<polygon fill="black" stroke="black" points="434.161,-153.668 423.741,-155.586 433.082,-160.585 434.161,-153.668"/>
<text text-anchor="middle" x="804" y="-202.8" font-family="Times,serif" font-size="14.00">POST</text>
</g>
<!-- 10.1.80.247:33330#ServerID_OuterContainerID&#45;&gt;1_fwatchdog#ServerID_6df85d7674&#45;2kqrj -->
<g id="edge6" class="edge"><title>10.1.80.247:33330#ServerID_OuterContainerID&#45;&gt;1_fwatchdog#ServerID_6df85d7674&#45;2kqrj</title>
<path fill="none" stroke="black" d="M1039.08,-159.48C1050.24,-173.767 1062.35,-195.067 1055,-214 1053.64,-217.507 1051.74,-220.876 1049.55,-224.046"/>
<polygon fill="black" stroke="black" points="1046.75,-221.944 1043.2,-231.928 1052.2,-226.335 1046.75,-221.944"/>
<text text-anchor="middle" x="1078" y="-202.8" font-family="Times,serif" font-size="14.00">POST</text>
</g>
<!-- gateway:8080#ServerID_OuterContainerID&#45;&gt;1_fwatchdog#ServerID_6df85d7674&#45;2kqrj -->
<g id="edge4" class="edge"><title>gateway:8080#ServerID_OuterContainerID&#45;&gt;1_fwatchdog#ServerID_6df85d7674&#45;2kqrj</title>
<path fill="none" stroke="black" d="M2299.86,-155.864C2236.38,-166.866 2140.78,-182.267 2057,-191 1754.08,-222.575 1399.33,-237.759 1193.96,-244.418"/>
<polygon fill="black" stroke="black" points="1193.57,-240.929 1183.69,-244.748 1193.79,-247.925 1193.57,-240.929"/>
<text text-anchor="middle" x="2016" y="-202.8" font-family="Times,serif" font-size="14.00">RESPONSE</text>
</g>
<!-- 10.1.80.247:8080#ServerID_OuterContainerID&#45;&gt;1_fwatchdog#ServerID_6df85d7674&#45;2kqrj -->
<g id="edge8" class="edge"><title>10.1.80.247:8080#ServerID_OuterContainerID&#45;&gt;1_fwatchdog#ServerID_6df85d7674&#45;2kqrj</title>
<path fill="none" stroke="black" d="M389.336,-157.61C443.231,-174.003 535.155,-200.113 616,-214 692.937,-227.216 778.957,-235.537 852.026,-240.73"/>
<polygon fill="black" stroke="black" points="852.028,-244.239 862.248,-241.442 852.515,-237.256 852.028,-244.239"/>
<text text-anchor="middle" x="658" y="-202.8" font-family="Times,serif" font-size="14.00">RESPONSE</text>
</g>
<!-- 10.1.80.1:34138#ServerID_OuterContainerID -->
<g id="node15" class="node"><title>10.1.80.1:34138#ServerID_OuterContainerID</title>
<polygon fill="none" stroke="black" points="335,-52 16.1049,-34 335,-16 653.895,-34 335,-52"/>
<text text-anchor="middle" x="335" y="-30.3" font-family="Times,serif" font-size="14.00">10.1.80.1:34138#ServerID_OuterContainerID</text>
</g>
<!-- 10.1.80.247:8080#ServerID_OuterContainerID&#45;&gt;10.1.80.1:34138#ServerID_OuterContainerID -->
<g id="edge15" class="edge"><title>10.1.80.247:8080#ServerID_OuterContainerID&#45;&gt;10.1.80.1:34138#ServerID_OuterContainerID</title>
<path fill="none" stroke="black" d="M345.928,-123.962C346.775,-118.269 347.582,-111.878 348,-106 348.473,-99.3501 348.759,-97.6234 348,-91 346.894,-81.3459 344.749,-70.9353 342.515,-61.74"/>
<polygon fill="black" stroke="black" points="345.886,-60.7932 340.006,-51.9796 339.106,-62.5361 345.886,-60.7932"/>
<text text-anchor="middle" x="391" y="-94.8" font-family="Times,serif" font-size="14.00">RESPONSE</text>
</g>
<!-- 10.0.88.125:31112#ServerID_OuterContainerID -->
<g id="node16" class="node"><title>10.0.88.125:31112#ServerID_OuterContainerID</title>
<polygon fill="none" stroke="black" points="1007,-52 671.515,-34 1007,-16 1342.48,-34 1007,-52"/>
<text text-anchor="middle" x="1007" y="-30.3" font-family="Times,serif" font-size="14.00">10.0.88.125:31112#ServerID_OuterContainerID</text>
</g>
<!-- 10.1.80.247:8080#ServerID_OuterContainerID&#45;&gt;10.0.88.125:31112#ServerID_OuterContainerID -->
<g id="edge16" class="edge"><title>10.1.80.247:8080#ServerID_OuterContainerID&#45;&gt;10.0.88.125:31112#ServerID_OuterContainerID</title>
<path fill="none" stroke="black" d="M422.434,-128.319C546.818,-108.463 786.788,-70.1543 917.247,-49.3281"/>
<polygon fill="black" stroke="black" points="917.893,-52.7694 927.216,-47.7366 916.789,-45.8569 917.893,-52.7694"/>
<text text-anchor="middle" x="698" y="-94.8" font-family="Times,serif" font-size="14.00">RESPONSE</text>
</g>
<!-- 10.1.80.247:35286#ServerID_OuterContainerID -->
<g id="node7" class="node"><title>10.1.80.247:35286#ServerID_OuterContainerID</title>
<polygon fill="none" stroke="black" points="4390,-160 4054.52,-142 4390,-124 4725.48,-142 4390,-160"/>
<text text-anchor="middle" x="4390" y="-138.3" font-family="Times,serif" font-size="14.00">10.1.80.247:35286#ServerID_OuterContainerID</text>
</g>
<!-- 1_fwatchdog#ServerID_e56b6537e2d5 -->
<g id="node8" class="node"><title>1_fwatchdog#ServerID_e56b6537e2d5</title>
<polygon fill="none" stroke="black" points="5396.5,-52 5097.5,-52 5097.5,-16 5396.5,-16 5396.5,-52"/>
<text text-anchor="middle" x="5247" y="-30.3" font-family="Times,serif" font-size="14.00">1_fwatchdog#ServerID_e56b6537e2d5</text>
</g>
<!-- 10.1.80.247:35286#ServerID_OuterContainerID&#45;&gt;1_fwatchdog#ServerID_e56b6537e2d5 -->
<g id="edge9" class="edge"><title>10.1.80.247:35286#ServerID_OuterContainerID&#45;&gt;1_fwatchdog#ServerID_e56b6537e2d5</title>
<path fill="none" stroke="black" d="M4540.64,-132.049C4712.97,-121.17 4984.3,-101.914 5085,-83 5120.25,-76.3795 5158.78,-65.1337 5189.42,-55.1911"/>
<polygon fill="black" stroke="black" points="5190.67,-58.4646 5199.08,-52.0162 5188.48,-51.8148 5190.67,-58.4646"/>
<text text-anchor="middle" x="5044.5" y="-94.8" font-family="Times,serif" font-size="14.00">read</text>
</g>
<!-- 10_node#ServerID_34e86192c217 -->
<g id="node9" class="node"><title>10_node#ServerID_34e86192c217</title>
<polygon fill="none" stroke="black" points="3152.5,-268 2885.5,-268 2885.5,-232 3152.5,-232 3152.5,-268"/>
<text text-anchor="middle" x="3019" y="-246.3" font-family="Times,serif" font-size="14.00">10_node#ServerID_34e86192c217</text>
</g>
<!-- 10_node#ServerID_34e86192c217&#45;&gt;gateway:8080#ServerID_OuterContainerID -->
<g id="edge10" class="edge"><title>10_node#ServerID_34e86192c217&#45;&gt;gateway:8080#ServerID_OuterContainerID</title>
<path fill="none" stroke="black" d="M2914.89,-231.969C2788,-211.213 2575.93,-176.522 2457.57,-157.161"/>
<polygon fill="black" stroke="black" points="2457.9,-153.668 2447.46,-155.508 2456.77,-160.577 2457.9,-153.668"/>
<text text-anchor="middle" x="2820" y="-202.8" font-family="Times,serif" font-size="14.00">connect</text>
</g>
<!-- 10.152.183.10:53#ServerID_OuterContainerID -->
<g id="node14" class="node"><title>10.152.183.10:53#ServerID_OuterContainerID</title>
<polygon fill="none" stroke="black" points="3020,-160 2692.56,-142 3020,-124 3347.44,-142 3020,-160"/>
<text text-anchor="middle" x="3020" y="-138.3" font-family="Times,serif" font-size="14.00">10.152.183.10:53#ServerID_OuterContainerID</text>
</g>
<!-- 10_node#ServerID_34e86192c217&#45;&gt;10.152.183.10:53#ServerID_OuterContainerID -->
<g id="edge14" class="edge"><title>10_node#ServerID_34e86192c217&#45;&gt;10.152.183.10:53#ServerID_OuterContainerID</title>
<path fill="none" stroke="black" d="M3033.1,-231.844C3036.72,-226.456 3040.12,-220.269 3042,-214 3046.49,-198.978 3041.77,-182.221 3035.56,-168.76"/>
<polygon fill="black" stroke="black" points="3038.55,-166.927 3030.89,-159.613 3032.32,-170.111 3038.55,-166.927"/>
<text text-anchor="middle" x="3068.5" y="-202.8" font-family="Times,serif" font-size="14.00">sendto</text>
</g>
<!-- 10.1.80.247:33290#ServerID_OuterContainerID -->
<g id="node10" class="node"><title>10.1.80.247:33290#ServerID_OuterContainerID</title>
<polygon fill="none" stroke="black" points="3701,-160 3365.52,-142 3701,-124 4036.48,-142 3701,-160"/>
<text text-anchor="middle" x="3701" y="-138.3" font-family="Times,serif" font-size="14.00">10.1.80.247:33290#ServerID_OuterContainerID</text>
</g>
<!-- 1_fwatchdog#ServerID_34e86192c217 -->
<g id="node11" class="node"><title>1_fwatchdog#ServerID_34e86192c217</title>
<polygon fill="none" stroke="black" points="3469.5,-268 3170.5,-268 3170.5,-232 3469.5,-232 3469.5,-268"/>
<text text-anchor="middle" x="3320" y="-246.3" font-family="Times,serif" font-size="14.00">1_fwatchdog#ServerID_34e86192c217</text>
</g>
<!-- 10.1.80.247:33290#ServerID_OuterContainerID&#45;&gt;1_fwatchdog#ServerID_34e86192c217 -->
<g id="edge11" class="edge"><title>10.1.80.247:33290#ServerID_OuterContainerID&#45;&gt;1_fwatchdog#ServerID_34e86192c217</title>
<path fill="none" stroke="black" d="M3649.71,-157.27C3583.04,-175.819 3466.27,-208.307 3391.08,-229.224"/>
<polygon fill="black" stroke="black" points="3389.91,-225.917 3381.21,-231.969 3391.79,-232.661 3389.91,-225.917"/>
<text text-anchor="middle" x="3516.5" y="-202.8" font-family="Times,serif" font-size="14.00">read</text>
</g>
<!-- /home/app/node_modules#ServerID_90667071e782 -->
<g id="node12" class="node"><title>/home/app/node_modules#ServerID_90667071e782</title>
<ellipse fill="none" stroke="black" cx="5073" cy="-250" rx="252.655" ry="18"/>
<text text-anchor="middle" x="5073" y="-246.3" font-family="Times,serif" font-size="14.00">/home/app/node_modules#ServerID_90667071e782</text>
</g>
<!-- 15_node#ServerID_90667071e782 -->
<g id="node13" class="node"><title>15_node#ServerID_90667071e782</title>
<polygon fill="none" stroke="black" points="5207,-160 4939,-160 4939,-124 5207,-124 5207,-160"/>
<text text-anchor="middle" x="5073" y="-138.3" font-family="Times,serif" font-size="14.00">15_node#ServerID_90667071e782</text>
</g>
<!-- /home/app/node_modules#ServerID_90667071e782&#45;&gt;15_node#ServerID_90667071e782 -->
<g id="edge12" class="edge"><title>/home/app/node_modules#ServerID_90667071e782&#45;&gt;15_node#ServerID_90667071e782</title>
<path fill="none" stroke="black" d="M5073,-231.969C5073,-215.378 5073,-189.883 5073,-170.431"/>
<polygon fill="black" stroke="black" points="5076.5,-170.341 5073,-160.341 5069.5,-170.341 5076.5,-170.341"/>
<text text-anchor="middle" x="5089.5" y="-202.8" font-family="Times,serif" font-size="14.00">read</text>
</g>
<!-- 10.152.183.10:53#ServerID_OuterContainerID&#45;&gt;10_node#ServerID_34e86192c217 -->
<g id="edge13" class="edge"><title>10.152.183.10:53#ServerID_OuterContainerID&#45;&gt;10_node#ServerID_34e86192c217</title>
<path fill="none" stroke="black" d="M3002.33,-159.304C2992.52,-169.606 2981.25,-183.809 2976,-199 2973.82,-205.3 2973.14,-207.979 2976,-214 2977.86,-217.912 2980.39,-221.53 2983.31,-224.837"/>
<polygon fill="black" stroke="black" points="2981.05,-227.522 2990.66,-231.979 2985.93,-222.501 2981.05,-227.522"/>
<text text-anchor="middle" x="3009" y="-202.8" font-family="Times,serif" font-size="14.00">recvfrom</text>
</g>
<!-- 10.1.80.1:34138#ServerID_OuterContainerID&#45;&gt;10.1.80.247:8080#ServerID_OuterContainerID -->
<g id="edge17" class="edge"><title>10.1.80.1:34138#ServerID_OuterContainerID&#45;&gt;10.1.80.247:8080#ServerID_OuterContainerID</title>
<path fill="none" stroke="black" d="M319.684,-51.3889C308.16,-65.8005 295.669,-87.3302 304,-106 305.886,-110.227 308.563,-114.156 311.641,-117.739"/>
<polygon fill="black" stroke="black" points="309.339,-120.387 318.872,-125.01 314.302,-115.451 309.339,-120.387"/>
<text text-anchor="middle" x="324" y="-94.8" font-family="Times,serif" font-size="14.00">POST</text>
</g>
</g>
</svg>
