<?xml version="1.0" encoding="UTF-8" standalone="no"?>
<!DOCTYPE svg PUBLIC "-//W3C//DTD SVG 1.1//EN"
 "http://www.w3.org/Graphics/SVG/1.1/DTD/svg11.dtd">
<!-- Generated by graphviz version 2.38.0 (20140413.2041)
 -->
<!-- Title: G Pages: 1 -->
<svg width="5006pt" height="684pt"
 viewBox="0.00 0.00 5006.00 684.00" xmlns="http://www.w3.org/2000/svg" xmlns:xlink="http://www.w3.org/1999/xlink">
<g id="graph0" class="graph" transform="scale(1 1) rotate(0) translate(4 680)">
<title>G</title>
<polygon fill="white" stroke="none" points="-4,4 -4,-680 5002,-680 5002,4 -4,4"/>
<g id="clust1" class="cluster"><title>clusterServerID_34e86192c217</title>
<polygon fill="none" stroke="black" points="1940,-398 1940,-668 3788,-668 3788,-398 1940,-398"/>
<text text-anchor="middle" x="2864" y="-652.8" font-family="Times,serif" font-size="14.00">clusterServerID_34e86192c217</text>
</g>
<g id="clust2" class="cluster"><title>clusterServerID_5f846fd567&#45;w7nbt</title>
<polygon fill="none" stroke="black" points="4052,-182 4052,-257 4392,-257 4392,-182 4052,-182"/>
<text text-anchor="middle" x="4222" y="-241.8" font-family="Times,serif" font-size="14.00">clusterServerID_5f846fd567&#45;w7nbt</text>
</g>
<g id="clust3" class="cluster"><title>clusterServerID_6df85d7674&#45;2kqrj</title>
<polygon fill="none" stroke="black" points="854,-398 854,-473 1192,-473 1192,-398 854,-398"/>
<text text-anchor="middle" x="1023" y="-457.8" font-family="Times,serif" font-size="14.00">clusterServerID_6df85d7674&#45;2kqrj</text>
</g>
<g id="clust4" class="cluster"><title>clusterServerID_90667071e782</title>
<polygon fill="none" stroke="black" points="4328,-506 4328,-668 4920,-668 4920,-506 4328,-506"/>
<text text-anchor="middle" x="4624" y="-652.8" font-family="Times,serif" font-size="14.00">clusterServerID_90667071e782</text>
</g>
<g id="clust5" class="cluster"><title>clusterServerID_OuterContainerID</title>
<polygon fill="none" stroke="black" points="8,-182 8,-365 4044,-365 4044,-182 8,-182"/>
<text text-anchor="middle" x="2026" y="-349.8" font-family="Times,serif" font-size="14.00">clusterServerID_OuterContainerID</text>
</g>
<g id="clust6" class="cluster"><title>clusterServerID_e56b6537e2d5</title>
<polygon fill="none" stroke="black" points="4400,-8 4400,-257 4990,-257 4990,-8 4400,-8"/>
<text text-anchor="middle" x="4695" y="-241.8" font-family="Times,serif" font-size="14.00">clusterServerID_e56b6537e2d5</text>
</g>
<!-- 10.1.80.247:33214#ServerID_OuterContainerID -->
<g id="node1" class="node"><title>10.1.80.247:33214#ServerID_OuterContainerID</title>
<polygon fill="none" stroke="black" points="1024,-334 688.515,-316 1024,-298 1359.48,-316 1024,-334"/>
<text text-anchor="middle" x="1024" y="-312.3" font-family="Times,serif" font-size="14.00">10.1.80.247:33214#ServerID_OuterContainerID</text>
</g>
<!-- 1_fwatchdog#ServerID_6df85d7674&#45;2kqrj -->
<g id="node2" class="node"><title>1_fwatchdog#ServerID_6df85d7674&#45;2kqrj</title>
<polygon fill="none" stroke="black" points="1183.5,-442 862.5,-442 862.5,-406 1183.5,-406 1183.5,-442"/>
<text text-anchor="middle" x="1023" y="-420.3" font-family="Times,serif" font-size="14.00">1_fwatchdog#ServerID_6df85d7674&#45;2kqrj</text>
</g>
<!-- 10.1.80.247:33214#ServerID_OuterContainerID&#45;&gt;1_fwatchdog#ServerID_6df85d7674&#45;2kqrj -->
<g id="edge1" class="edge"><title>10.1.80.247:33214#ServerID_OuterContainerID&#45;&gt;1_fwatchdog#ServerID_6df85d7674&#45;2kqrj</title>
<path fill="none" stroke="black" d="M1011.81,-333.692C1004.8,-344.353 996.669,-358.798 993,-373 991.333,-379.455 990.687,-381.747 993,-388 994.231,-391.328 995.936,-394.554 997.914,-397.612"/>
<polygon fill="black" stroke="black" points="995.225,-399.86 1004.04,-405.736 1000.81,-395.644 995.225,-399.86"/>
<text text-anchor="middle" x="1013" y="-376.8" font-family="Times,serif" font-size="14.00">POST</text>
</g>
<!-- 1_fwatchdog#ServerID_34e86192c217 -->
<g id="node7" class="node"><title>1_fwatchdog#ServerID_34e86192c217</title>
<polygon fill="none" stroke="black" points="3642.5,-637 3343.5,-637 3343.5,-601 3642.5,-601 3642.5,-637"/>
<text text-anchor="middle" x="3493" y="-615.3" font-family="Times,serif" font-size="14.00">1_fwatchdog#ServerID_34e86192c217</text>
</g>
<!-- 10.1.80.247:33214#ServerID_OuterContainerID&#45;&gt;1_fwatchdog#ServerID_34e86192c217 -->
<g id="edge11" class="edge"><title>10.1.80.247:33214#ServerID_OuterContainerID&#45;&gt;1_fwatchdog#ServerID_34e86192c217</title>
<path fill="none" stroke="black" d="M1097.39,-330.132C1167.03,-341.897 1274.75,-358.299 1369,-365 1428.71,-369.245 3465.78,-359.095 3524,-373 3652.17,-403.611 3719.8,-393.85 3789,-506 3828.28,-569.663 3742.06,-597.288 3652.72,-609.202"/>
<polygon fill="black" stroke="black" points="3652.15,-605.746 3642.67,-610.476 3653.03,-612.691 3652.15,-605.746"/>
<text text-anchor="middle" x="3799.5" y="-484.8" font-family="Times,serif" font-size="14.00">read</text>
</g>
<!-- 1_fwatchdog#ServerID_6df85d7674&#45;2kqrj&#45;&gt;10.1.80.247:33214#ServerID_OuterContainerID -->
<g id="edge4" class="edge"><title>1_fwatchdog#ServerID_6df85d7674&#45;2kqrj&#45;&gt;10.1.80.247:33214#ServerID_OuterContainerID</title>
<path fill="none" stroke="black" d="M1028.96,-405.759C1030.61,-400.165 1032.18,-393.883 1033,-388 1035.04,-373.436 1033.27,-357.162 1030.78,-343.873"/>
<polygon fill="black" stroke="black" points="1034.17,-343.006 1028.68,-333.944 1027.32,-344.452 1034.17,-343.006"/>
<text text-anchor="middle" x="1076" y="-376.8" font-family="Times,serif" font-size="14.00">RESPONSE</text>
</g>
<!-- 10.1.80.247:8080#ServerID_OuterContainerID -->
<g id="node3" class="node"><title>10.1.80.247:8080#ServerID_OuterContainerID</title>
<polygon fill="none" stroke="black" points="343,-334 15.5599,-316 343,-298 670.44,-316 343,-334"/>
<text text-anchor="middle" x="343" y="-312.3" font-family="Times,serif" font-size="14.00">10.1.80.247:8080#ServerID_OuterContainerID</text>
</g>
<!-- 1_fwatchdog#ServerID_6df85d7674&#45;2kqrj&#45;&gt;10.1.80.247:8080#ServerID_OuterContainerID -->
<g id="edge2" class="edge"><title>1_fwatchdog#ServerID_6df85d7674&#45;2kqrj&#45;&gt;10.1.80.247:8080#ServerID_OuterContainerID</title>
<path fill="none" stroke="black" d="M913.746,-405.969C780.644,-385.221 558.211,-350.548 433.981,-331.182"/>
<polygon fill="black" stroke="black" points="434.161,-327.668 423.741,-329.586 433.082,-334.585 434.161,-327.668"/>
<text text-anchor="middle" x="804" y="-376.8" font-family="Times,serif" font-size="14.00">POST</text>
</g>
<!-- gateway:8080#ServerID_OuterContainerID -->
<g id="node6" class="node"><title>gateway:8080#ServerID_OuterContainerID</title>
<polygon fill="none" stroke="black" points="3060,-334 2755.52,-316 3060,-298 3364.48,-316 3060,-334"/>
<text text-anchor="middle" x="3060" y="-312.3" font-family="Times,serif" font-size="14.00">gateway:8080#ServerID_OuterContainerID</text>
</g>
<!-- 1_fwatchdog#ServerID_6df85d7674&#45;2kqrj&#45;&gt;gateway:8080#ServerID_OuterContainerID -->
<g id="edge7" class="edge"><title>1_fwatchdog#ServerID_6df85d7674&#45;2kqrj&#45;&gt;gateway:8080#ServerID_OuterContainerID</title>
<path fill="none" stroke="black" d="M1183.81,-418.672C1582.12,-407.796 2593.41,-379.182 2746,-365 2826.53,-357.516 2917.84,-342.854 2981.15,-331.694"/>
<polygon fill="black" stroke="black" points="2981.83,-335.128 2991.07,-329.935 2980.61,-328.236 2981.83,-335.128"/>
<text text-anchor="middle" x="2615" y="-376.8" font-family="Times,serif" font-size="14.00">POST</text>
</g>
<!-- 10.1.80.247:8080#ServerID_OuterContainerID&#45;&gt;1_fwatchdog#ServerID_6df85d7674&#45;2kqrj -->
<g id="edge5" class="edge"><title>10.1.80.247:8080#ServerID_OuterContainerID&#45;&gt;1_fwatchdog#ServerID_6df85d7674&#45;2kqrj</title>
<path fill="none" stroke="black" d="M389.336,-331.61C443.231,-348.003 535.155,-374.113 616,-388 692.937,-401.216 778.957,-409.537 852.026,-414.73"/>
<polygon fill="black" stroke="black" points="852.028,-418.239 862.248,-415.442 852.515,-411.256 852.028,-418.239"/>
<text text-anchor="middle" x="658" y="-376.8" font-family="Times,serif" font-size="14.00">RESPONSE</text>
</g>
<!-- 10.1.80.1:33847#ServerID_OuterContainerID -->
<g id="node20" class="node"><title>10.1.80.1:33847#ServerID_OuterContainerID</title>
<polygon fill="none" stroke="black" points="335,-226 16.1049,-208 335,-190 653.895,-208 335,-226"/>
<text text-anchor="middle" x="335" y="-204.3" font-family="Times,serif" font-size="14.00">10.1.80.1:33847#ServerID_OuterContainerID</text>
</g>
<!-- 10.1.80.247:8080#ServerID_OuterContainerID&#45;&gt;10.1.80.1:33847#ServerID_OuterContainerID -->
<g id="edge24" class="edge"><title>10.1.80.247:8080#ServerID_OuterContainerID&#45;&gt;10.1.80.1:33847#ServerID_OuterContainerID</title>
<path fill="none" stroke="black" d="M345.928,-297.962C346.775,-292.269 347.582,-285.878 348,-280 348.473,-273.35 348.759,-271.623 348,-265 346.894,-255.346 344.749,-244.935 342.515,-235.74"/>
<polygon fill="black" stroke="black" points="345.886,-234.793 340.006,-225.98 339.106,-236.536 345.886,-234.793"/>
<text text-anchor="middle" x="391" y="-268.8" font-family="Times,serif" font-size="14.00">RESPONSE</text>
</g>
<!-- 10.0.88.125:31112#ServerID_OuterContainerID -->
<g id="node21" class="node"><title>10.0.88.125:31112#ServerID_OuterContainerID</title>
<polygon fill="none" stroke="black" points="1007,-226 671.515,-208 1007,-190 1342.48,-208 1007,-226"/>
<text text-anchor="middle" x="1007" y="-204.3" font-family="Times,serif" font-size="14.00">10.0.88.125:31112#ServerID_OuterContainerID</text>
</g>
<!-- 10.1.80.247:8080#ServerID_OuterContainerID&#45;&gt;10.0.88.125:31112#ServerID_OuterContainerID -->
<g id="edge25" class="edge"><title>10.1.80.247:8080#ServerID_OuterContainerID&#45;&gt;10.0.88.125:31112#ServerID_OuterContainerID</title>
<path fill="none" stroke="black" d="M422.434,-302.319C546.818,-282.463 786.788,-244.154 917.247,-223.328"/>
<polygon fill="black" stroke="black" points="917.893,-226.769 927.216,-221.737 916.789,-219.857 917.893,-226.769"/>
<text text-anchor="middle" x="698" y="-268.8" font-family="Times,serif" font-size="14.00">RESPONSE</text>
</g>
<!-- 10.1.80.247:35290#ServerID_OuterContainerID -->
<g id="node4" class="node"><title>10.1.80.247:35290#ServerID_OuterContainerID</title>
<polygon fill="none" stroke="black" points="1713,-334 1377.52,-316 1713,-298 2048.48,-316 1713,-334"/>
<text text-anchor="middle" x="1713" y="-312.3" font-family="Times,serif" font-size="14.00">10.1.80.247:35290#ServerID_OuterContainerID</text>
</g>
<!-- 1_fwatchdog#ServerID_5f846fd567&#45;w7nbt -->
<g id="node5" class="node"><title>1_fwatchdog#ServerID_5f846fd567&#45;w7nbt</title>
<polygon fill="none" stroke="black" points="4384,-226 4060,-226 4060,-190 4384,-190 4384,-226"/>
<text text-anchor="middle" x="4222" y="-204.3" font-family="Times,serif" font-size="14.00">1_fwatchdog#ServerID_5f846fd567&#45;w7nbt</text>
</g>
<!-- 10.1.80.247:35290#ServerID_OuterContainerID&#45;&gt;1_fwatchdog#ServerID_5f846fd567&#45;w7nbt -->
<g id="edge3" class="edge"><title>10.1.80.247:35290#ServerID_OuterContainerID&#45;&gt;1_fwatchdog#ServerID_5f846fd567&#45;w7nbt</title>
<path fill="none" stroke="black" d="M1873.15,-306.557C1931.35,-303.634 1997.63,-300.474 2058,-298 2506.31,-279.625 2618.41,-274.163 3067,-265 3121.49,-263.887 3994.02,-264.533 4048,-257 4087.41,-251.501 4130.52,-239.649 4163.98,-229.099"/>
<polygon fill="black" stroke="black" points="4165.14,-232.404 4173.59,-226.02 4163,-225.738 4165.14,-232.404"/>
<text text-anchor="middle" x="3087" y="-268.8" font-family="Times,serif" font-size="14.00">POST</text>
</g>
<!-- 1_fwatchdog#ServerID_5f846fd567&#45;w7nbt&#45;&gt;10.1.80.247:35290#ServerID_OuterContainerID -->
<g id="edge6" class="edge"><title>1_fwatchdog#ServerID_5f846fd567&#45;w7nbt&#45;&gt;10.1.80.247:35290#ServerID_OuterContainerID</title>
<path fill="none" stroke="black" d="M4172.82,-226.041C4138.34,-237.123 4090.93,-250.651 4048,-257 3938.61,-273.175 2168.52,-294.33 2058,-298 1999.34,-299.948 1935.1,-302.891 1878.13,-305.784"/>
<polygon fill="black" stroke="black" points="1877.76,-302.299 1867.95,-306.305 1878.12,-309.29 1877.76,-302.299"/>
<text text-anchor="middle" x="3924" y="-268.8" font-family="Times,serif" font-size="14.00">RESPONSE</text>
</g>
<!-- gateway:8080#ServerID_OuterContainerID&#45;&gt;1_fwatchdog#ServerID_6df85d7674&#45;2kqrj -->
<g id="edge8" class="edge"><title>gateway:8080#ServerID_OuterContainerID&#45;&gt;1_fwatchdog#ServerID_6df85d7674&#45;2kqrj</title>
<path fill="none" stroke="black" d="M2992.64,-330.056C2929.27,-341.68 2831.6,-357.91 2746,-365 2615.55,-375.805 2287.85,-369.228 2157,-373 1815.07,-382.858 1415.47,-402.335 1193.61,-413.855"/>
<polygon fill="black" stroke="black" points="1193.31,-410.366 1183.51,-414.38 1193.68,-417.356 1193.31,-410.366"/>
<text text-anchor="middle" x="2199" y="-376.8" font-family="Times,serif" font-size="14.00">RESPONSE</text>
</g>
<!-- localhost:3000#ServerID_34e86192c217 -->
<g id="node8" class="node"><title>localhost:3000#ServerID_34e86192c217</title>
<polygon fill="none" stroke="black" points="3493,-550 3206.45,-532 3493,-514 3779.55,-532 3493,-550"/>
<text text-anchor="middle" x="3493" y="-528.3" font-family="Times,serif" font-size="14.00">localhost:3000#ServerID_34e86192c217</text>
</g>
<!-- 1_fwatchdog#ServerID_34e86192c217&#45;&gt;localhost:3000#ServerID_34e86192c217 -->
<g id="edge9" class="edge"><title>1_fwatchdog#ServerID_34e86192c217&#45;&gt;localhost:3000#ServerID_34e86192c217</title>
<path fill="none" stroke="black" d="M3474.04,-600.736C3469.56,-595.523 3465.39,-589.455 3463,-583 3459.66,-573.98 3462.93,-564.769 3468.37,-556.751"/>
<polygon fill="black" stroke="black" points="3471.14,-558.89 3474.63,-548.885 3465.66,-554.531 3471.14,-558.89"/>
<text text-anchor="middle" x="3482" y="-571.8" font-family="Times,serif" font-size="14.00">write</text>
</g>
<!-- pipe:[331683132]#ServerID_34e86192c217 -->
<g id="node11" class="node"><title>pipe:[331683132]#ServerID_34e86192c217</title>
<ellipse fill="none" stroke="black" cx="2971" cy="-532" rx="217.162" ry="18"/>
<text text-anchor="middle" x="2971" y="-528.3" font-family="Times,serif" font-size="14.00">pipe:[331683132]#ServerID_34e86192c217</text>
</g>
<!-- 1_fwatchdog#ServerID_34e86192c217&#45;&gt;pipe:[331683132]#ServerID_34e86192c217 -->
<g id="edge13" class="edge"><title>1_fwatchdog#ServerID_34e86192c217&#45;&gt;pipe:[331683132]#ServerID_34e86192c217</title>
<path fill="none" stroke="black" d="M3388.31,-600.952C3297.23,-586.121 3165.94,-564.743 3075.05,-549.943"/>
<polygon fill="black" stroke="black" points="3075.43,-546.459 3065,-548.307 3074.31,-553.368 3075.43,-546.459"/>
<text text-anchor="middle" x="3283" y="-571.8" font-family="Times,serif" font-size="14.00">write</text>
</g>
<!-- localhost:3000#ServerID_34e86192c217&#45;&gt;1_fwatchdog#ServerID_34e86192c217 -->
<g id="edge12" class="edge"><title>localhost:3000#ServerID_34e86192c217&#45;&gt;1_fwatchdog#ServerID_34e86192c217</title>
<path fill="none" stroke="black" d="M3498.05,-550.071C3500.32,-559.709 3502.24,-571.993 3501,-583 3500.71,-585.547 3500.31,-588.179 3499.84,-590.803"/>
<polygon fill="black" stroke="black" points="3496.39,-590.18 3497.77,-600.686 3503.25,-591.617 3496.39,-590.18"/>
<text text-anchor="middle" x="3518.5" y="-571.8" font-family="Times,serif" font-size="14.00">read</text>
</g>
<!-- 10_node#ServerID_34e86192c217 -->
<g id="node10" class="node"><title>10_node#ServerID_34e86192c217</title>
<polygon fill="none" stroke="black" points="3367.5,-442 3100.5,-442 3100.5,-406 3367.5,-406 3367.5,-442"/>
<text text-anchor="middle" x="3234" y="-420.3" font-family="Times,serif" font-size="14.00">10_node#ServerID_34e86192c217</text>
</g>
<!-- localhost:3000#ServerID_34e86192c217&#45;&gt;10_node#ServerID_34e86192c217 -->
<g id="edge18" class="edge"><title>localhost:3000#ServerID_34e86192c217&#45;&gt;10_node#ServerID_34e86192c217</title>
<path fill="none" stroke="black" d="M3456.99,-516.261C3412.33,-497.984 3335.91,-466.708 3285.18,-445.945"/>
<polygon fill="black" stroke="black" points="3286.28,-442.616 3275.7,-442.068 3283.63,-449.095 3286.28,-442.616"/>
<text text-anchor="middle" x="3418.5" y="-484.8" font-family="Times,serif" font-size="14.00">read</text>
</g>
<!-- 10.152.183.10:53#ServerID_OuterContainerID -->
<g id="node9" class="node"><title>10.152.183.10:53#ServerID_OuterContainerID</title>
<polygon fill="none" stroke="black" points="3709,-334 3381.56,-316 3709,-298 4036.44,-316 3709,-334"/>
<text text-anchor="middle" x="3709" y="-312.3" font-family="Times,serif" font-size="14.00">10.152.183.10:53#ServerID_OuterContainerID</text>
</g>
<!-- 10.152.183.10:53#ServerID_OuterContainerID&#45;&gt;10_node#ServerID_34e86192c217 -->
<g id="edge10" class="edge"><title>10.152.183.10:53#ServerID_OuterContainerID&#45;&gt;10_node#ServerID_34e86192c217</title>
<path fill="none" stroke="black" d="M3648.44,-330.689C3584.84,-345.045 3481.92,-368.224 3393,-388 3369.82,-393.155 3344.74,-398.695 3321.49,-403.812"/>
<polygon fill="black" stroke="black" points="3320.67,-400.41 3311.65,-405.978 3322.17,-407.247 3320.67,-400.41"/>
<text text-anchor="middle" x="3487" y="-376.8" font-family="Times,serif" font-size="14.00">recvfrom</text>
</g>
<!-- 10_node#ServerID_34e86192c217&#45;&gt;gateway:8080#ServerID_OuterContainerID -->
<g id="edge15" class="edge"><title>10_node#ServerID_34e86192c217&#45;&gt;gateway:8080#ServerID_OuterContainerID</title>
<path fill="none" stroke="black" d="M3206.04,-405.969C3175.66,-387.46 3127.09,-357.87 3094.39,-337.951"/>
<polygon fill="black" stroke="black" points="3095.98,-334.82 3085.62,-332.607 3092.34,-340.799 3095.98,-334.82"/>
<text text-anchor="middle" x="3202" y="-376.8" font-family="Times,serif" font-size="14.00">connect</text>
</g>
<!-- 10_node#ServerID_34e86192c217&#45;&gt;10.152.183.10:53#ServerID_OuterContainerID -->
<g id="edge22" class="edge"><title>10_node#ServerID_34e86192c217&#45;&gt;10.152.183.10:53#ServerID_OuterContainerID</title>
<path fill="none" stroke="black" d="M3264.13,-405.898C3284.85,-394.871 3313.33,-381.123 3340,-373 3365.39,-365.265 3509.48,-344.486 3609.9,-330.532"/>
<polygon fill="black" stroke="black" points="3610.66,-333.96 3620.08,-329.12 3609.69,-327.027 3610.66,-333.96"/>
<text text-anchor="middle" x="3364.5" y="-376.8" font-family="Times,serif" font-size="14.00">sendto</text>
</g>
<!-- localhost:3000#ServerID_e56b6537e2d5 -->
<g id="node12" class="node"><title>localhost:3000#ServerID_e56b6537e2d5</title>
<polygon fill="none" stroke="black" points="4695,-139 4408.45,-121 4695,-103 4981.55,-121 4695,-139"/>
<text text-anchor="middle" x="4695" y="-117.3" font-family="Times,serif" font-size="14.00">localhost:3000#ServerID_e56b6537e2d5</text>
</g>
<!-- 12_node#ServerID_e56b6537e2d5 -->
<g id="node13" class="node"><title>12_node#ServerID_e56b6537e2d5</title>
<polygon fill="none" stroke="black" points="4828.5,-52 4561.5,-52 4561.5,-16 4828.5,-16 4828.5,-52"/>
<text text-anchor="middle" x="4695" y="-30.3" font-family="Times,serif" font-size="14.00">12_node#ServerID_e56b6537e2d5</text>
</g>
<!-- localhost:3000#ServerID_e56b6537e2d5&#45;&gt;12_node#ServerID_e56b6537e2d5 -->
<g id="edge14" class="edge"><title>localhost:3000#ServerID_e56b6537e2d5&#45;&gt;12_node#ServerID_e56b6537e2d5</title>
<path fill="none" stroke="black" d="M4695,-102.799C4695,-91.1626 4695,-75.5479 4695,-62.2368"/>
<polygon fill="black" stroke="black" points="4698.5,-62.1754 4695,-52.1754 4691.5,-62.1755 4698.5,-62.1754"/>
<text text-anchor="middle" x="4711.5" y="-73.8" font-family="Times,serif" font-size="14.00">read</text>
</g>
<!-- 1_fwatchdog#ServerID_e56b6537e2d5 -->
<g id="node14" class="node"><title>1_fwatchdog#ServerID_e56b6537e2d5</title>
<polygon fill="none" stroke="black" points="4775.5,-226 4476.5,-226 4476.5,-190 4775.5,-190 4775.5,-226"/>
<text text-anchor="middle" x="4626" y="-204.3" font-family="Times,serif" font-size="14.00">1_fwatchdog#ServerID_e56b6537e2d5</text>
</g>
<!-- 1_fwatchdog#ServerID_e56b6537e2d5&#45;&gt;localhost:3000#ServerID_e56b6537e2d5 -->
<g id="edge16" class="edge"><title>1_fwatchdog#ServerID_e56b6537e2d5&#45;&gt;localhost:3000#ServerID_e56b6537e2d5</title>
<path fill="none" stroke="black" d="M4639.96,-189.799C4650.17,-177.228 4664.14,-160.014 4675.45,-146.077"/>
<polygon fill="black" stroke="black" points="4678.17,-148.28 4681.76,-138.31 4672.74,-143.868 4678.17,-148.28"/>
<text text-anchor="middle" x="4693" y="-160.8" font-family="Times,serif" font-size="14.00">connect</text>
</g>
<!-- 10.1.80.247:35296#ServerID_OuterContainerID -->
<g id="node15" class="node"><title>10.1.80.247:35296#ServerID_OuterContainerID</title>
<polygon fill="none" stroke="black" points="2402,-334 2066.52,-316 2402,-298 2737.48,-316 2402,-334"/>
<text text-anchor="middle" x="2402" y="-312.3" font-family="Times,serif" font-size="14.00">10.1.80.247:35296#ServerID_OuterContainerID</text>
</g>
<!-- 10.1.80.247:35296#ServerID_OuterContainerID&#45;&gt;1_fwatchdog#ServerID_e56b6537e2d5 -->
<g id="edge17" class="edge"><title>10.1.80.247:35296#ServerID_OuterContainerID&#45;&gt;1_fwatchdog#ServerID_e56b6537e2d5</title>
<path fill="none" stroke="black" d="M2559.54,-306.427C2618.36,-303.44 2685.72,-300.271 2747,-298 3113.31,-284.423 4031.88,-299.171 4396,-257 4447.99,-250.979 4505.63,-238.938 4550.21,-228.422"/>
<polygon fill="black" stroke="black" points="4551.18,-231.79 4560.09,-226.065 4549.55,-224.981 4551.18,-231.79"/>
<text text-anchor="middle" x="4315.5" y="-268.8" font-family="Times,serif" font-size="14.00">read</text>
</g>
<!-- localhost:3000#ServerID_90667071e782 -->
<g id="node16" class="node"><title>localhost:3000#ServerID_90667071e782</title>
<polygon fill="none" stroke="black" points="4624,-637 4336.11,-619 4624,-601 4911.89,-619 4624,-637"/>
<text text-anchor="middle" x="4624" y="-615.3" font-family="Times,serif" font-size="14.00">localhost:3000#ServerID_90667071e782</text>
</g>
<!-- 15_node#ServerID_90667071e782 -->
<g id="node17" class="node"><title>15_node#ServerID_90667071e782</title>
<polygon fill="none" stroke="black" points="4758,-550 4490,-550 4490,-514 4758,-514 4758,-550"/>
<text text-anchor="middle" x="4624" y="-528.3" font-family="Times,serif" font-size="14.00">15_node#ServerID_90667071e782</text>
</g>
<!-- localhost:3000#ServerID_90667071e782&#45;&gt;15_node#ServerID_90667071e782 -->
<g id="edge19" class="edge"><title>localhost:3000#ServerID_90667071e782&#45;&gt;15_node#ServerID_90667071e782</title>
<path fill="none" stroke="black" d="M4624,-600.799C4624,-589.163 4624,-573.548 4624,-560.237"/>
<polygon fill="black" stroke="black" points="4627.5,-560.175 4624,-550.175 4620.5,-560.175 4627.5,-560.175"/>
<text text-anchor="middle" x="4640.5" y="-571.8" font-family="Times,serif" font-size="14.00">read</text>
</g>
<!-- /etc/hosts#ServerID_34e86192c217 -->
<g id="node18" class="node"><title>/etc/hosts#ServerID_34e86192c217</title>
<ellipse fill="none" stroke="black" cx="2556" cy="-532" rx="180.068" ry="18"/>
<text text-anchor="middle" x="2556" y="-528.3" font-family="Times,serif" font-size="14.00">/etc/hosts#ServerID_34e86192c217</text>
</g>
<!-- /etc/hosts#ServerID_34e86192c217&#45;&gt;10_node#ServerID_34e86192c217 -->
<g id="edge20" class="edge"><title>/etc/hosts#ServerID_34e86192c217&#45;&gt;10_node#ServerID_34e86192c217</title>
<path fill="none" stroke="black" d="M2648.5,-516.539C2769.55,-497.614 2981.87,-464.418 3114.85,-443.629"/>
<polygon fill="black" stroke="black" points="3115.74,-447.032 3125.07,-442.03 3114.65,-440.116 3115.74,-447.032"/>
<text text-anchor="middle" x="2891.5" y="-484.8" font-family="Times,serif" font-size="14.00">read</text>
</g>
<!-- /etc/resolv.conf#ServerID_34e86192c217 -->
<g id="node19" class="node"><title>/etc/resolv.conf#ServerID_34e86192c217</title>
<ellipse fill="none" stroke="black" cx="2153" cy="-532" rx="205.264" ry="18"/>
<text text-anchor="middle" x="2153" y="-528.3" font-family="Times,serif" font-size="14.00">/etc/resolv.conf#ServerID_34e86192c217</text>
</g>
<!-- /etc/resolv.conf#ServerID_34e86192c217&#45;&gt;10_node#ServerID_34e86192c217 -->
<g id="edge21" class="edge"><title>/etc/resolv.conf#ServerID_34e86192c217&#45;&gt;10_node#ServerID_34e86192c217</title>
<path fill="none" stroke="black" d="M2268.17,-517.05C2300.16,-513.31 2334.91,-509.372 2367,-506 2621.28,-479.272 2918,-452.506 3090.1,-437.418"/>
<polygon fill="black" stroke="black" points="3090.57,-440.89 3100.23,-436.53 3089.96,-433.916 3090.57,-440.89"/>
<text text-anchor="middle" x="2621.5" y="-484.8" font-family="Times,serif" font-size="14.00">read</text>
</g>
<!-- 10.1.80.1:33847#ServerID_OuterContainerID&#45;&gt;10.1.80.247:8080#ServerID_OuterContainerID -->
<g id="edge23" class="edge"><title>10.1.80.1:33847#ServerID_OuterContainerID&#45;&gt;10.1.80.247:8080#ServerID_OuterContainerID</title>
<path fill="none" stroke="black" d="M321.454,-225.463C311.286,-239.923 300.329,-261.481 308,-280 309.665,-284.019 312.04,-287.818 314.779,-291.325"/>
<polygon fill="black" stroke="black" points="312.368,-293.877 321.669,-298.949 317.561,-289.183 312.368,-293.877"/>
<text text-anchor="middle" x="328" y="-268.8" font-family="Times,serif" font-size="14.00">POST</text>
</g>
</g>
</svg>
