<?xml version="1.0" encoding="UTF-8" standalone="no"?>
<!DOCTYPE svg PUBLIC "-//W3C//DTD SVG 1.1//EN"
 "http://www.w3.org/Graphics/SVG/1.1/DTD/svg11.dtd">
<!-- Generated by graphviz version 2.38.0 (20140413.2041)
 -->
<!-- Title: G Pages: 1 -->
<svg width="6761pt" height="771pt"
 viewBox="0.00 0.00 6761.00 771.00" xmlns="http://www.w3.org/2000/svg" xmlns:xlink="http://www.w3.org/1999/xlink">
<g id="graph0" class="graph" transform="scale(1 1) rotate(0) translate(4 767)">
<title>G</title>
<polygon fill="white" stroke="none" points="-4,4 -4,-767 6757,-767 6757,4 -4,4"/>
<g id="clust1" class="cluster"><title>clusterServerID_34e86192c217</title>
<polygon fill="none" stroke="black" points="1045,-485 1045,-755 1635,-755 1635,-485 1045,-485"/>
<text text-anchor="middle" x="1340" y="-739.8" font-family="Times,serif" font-size="14.00">clusterServerID_34e86192c217</text>
</g>
<g id="clust2" class="cluster"><title>clusterServerID_5f846fd567&#45;w7nbt</title>
<polygon fill="none" stroke="black" points="2168,-485 2168,-560 2508,-560 2508,-485 2168,-485"/>
<text text-anchor="middle" x="2338" y="-544.8" font-family="Times,serif" font-size="14.00">clusterServerID_5f846fd567&#45;w7nbt</text>
</g>
<g id="clust3" class="cluster"><title>clusterServerID_6df85d7674&#45;2kqrj</title>
<polygon fill="none" stroke="black" points="699,-485 699,-560 1037,-560 1037,-485 699,-485"/>
<text text-anchor="middle" x="868" y="-544.8" font-family="Times,serif" font-size="14.00">clusterServerID_6df85d7674&#45;2kqrj</text>
</g>
<g id="clust4" class="cluster"><title>clusterServerID_90667071e782</title>
<polygon fill="none" stroke="black" points="6429,-269 6429,-344 6745,-344 6745,-269 6429,-269"/>
<text text-anchor="middle" x="6587" y="-328.8" font-family="Times,serif" font-size="14.00">clusterServerID_90667071e782</text>
</g>
<g id="clust5" class="cluster"><title>clusterServerID_OuterContainerID</title>
<polygon fill="none" stroke="black" points="8,-269 8,-452 5371,-452 5371,-269 8,-269"/>
<text text-anchor="middle" x="2689.5" y="-436.8" font-family="Times,serif" font-size="14.00">clusterServerID_OuterContainerID</text>
</g>
<g id="clust6" class="cluster"><title>clusterServerID_e56b6537e2d5</title>
<polygon fill="none" stroke="black" points="5379,-8 5379,-344 6421,-344 6421,-8 5379,-8"/>
<text text-anchor="middle" x="5900" y="-328.8" font-family="Times,serif" font-size="14.00">clusterServerID_e56b6537e2d5</text>
</g>
<!-- 1_fwatchdog#ServerID_6df85d7674&#45;2kqrj -->
<g id="node1" class="node"><title>1_fwatchdog#ServerID_6df85d7674&#45;2kqrj</title>
<polygon fill="none" stroke="black" points="1028.5,-529 707.5,-529 707.5,-493 1028.5,-493 1028.5,-529"/>
<text text-anchor="middle" x="868" y="-507.3" font-family="Times,serif" font-size="14.00">1_fwatchdog#ServerID_6df85d7674&#45;2kqrj</text>
</g>
<!-- 10.1.80.247:33214#ServerID_OuterContainerID -->
<g id="node2" class="node"><title>10.1.80.247:33214#ServerID_OuterContainerID</title>
<polygon fill="none" stroke="black" points="1650,-421 1314.52,-403 1650,-385 1985.48,-403 1650,-421"/>
<text text-anchor="middle" x="1650" y="-399.3" font-family="Times,serif" font-size="14.00">10.1.80.247:33214#ServerID_OuterContainerID</text>
</g>
<!-- 1_fwatchdog#ServerID_6df85d7674&#45;2kqrj&#45;&gt;10.1.80.247:33214#ServerID_OuterContainerID -->
<g id="edge1" class="edge"><title>1_fwatchdog#ServerID_6df85d7674&#45;2kqrj&#45;&gt;10.1.80.247:33214#ServerID_OuterContainerID</title>
<path fill="none" stroke="black" d="M984.984,-492.981C1043.96,-484.359 1103.44,-475.576 1105,-475 1116.8,-470.656 1116.99,-463.741 1129,-460 1166.38,-448.355 1266.01,-455.59 1305,-452 1392.96,-443.9 1492.86,-429.417 1562.44,-418.471"/>
<polygon fill="black" stroke="black" points="1563.15,-421.903 1572.48,-416.883 1562.06,-414.988 1563.15,-421.903"/>
<text text-anchor="middle" x="1171" y="-463.8" font-family="Times,serif" font-size="14.00">RESPONSE</text>
</g>
<!-- 10.1.80.247:8080#ServerID_OuterContainerID -->
<g id="node3" class="node"><title>10.1.80.247:8080#ServerID_OuterContainerID</title>
<polygon fill="none" stroke="black" points="343,-421 15.5599,-403 343,-385 670.44,-403 343,-421"/>
<text text-anchor="middle" x="343" y="-399.3" font-family="Times,serif" font-size="14.00">10.1.80.247:8080#ServerID_OuterContainerID</text>
</g>
<!-- 1_fwatchdog#ServerID_6df85d7674&#45;2kqrj&#45;&gt;10.1.80.247:8080#ServerID_OuterContainerID -->
<g id="edge7" class="edge"><title>1_fwatchdog#ServerID_6df85d7674&#45;2kqrj&#45;&gt;10.1.80.247:8080#ServerID_OuterContainerID</title>
<path fill="none" stroke="black" d="M813.794,-492.927C778.971,-482.398 732.625,-469.196 691,-460 609.274,-441.945 515.54,-427.197 445.958,-417.377"/>
<polygon fill="black" stroke="black" points="446.261,-413.885 435.872,-415.964 445.289,-420.817 446.261,-413.885"/>
<text text-anchor="middle" x="770" y="-463.8" font-family="Times,serif" font-size="14.00">POST</text>
</g>
<!-- gateway:8080#ServerID_OuterContainerID -->
<g id="node6" class="node"><title>gateway:8080#ServerID_OuterContainerID</title>
<polygon fill="none" stroke="black" points="992,-421 687.518,-403 992,-385 1296.48,-403 992,-421"/>
<text text-anchor="middle" x="992" y="-399.3" font-family="Times,serif" font-size="14.00">gateway:8080#ServerID_OuterContainerID</text>
</g>
<!-- 1_fwatchdog#ServerID_6df85d7674&#45;2kqrj&#45;&gt;gateway:8080#ServerID_OuterContainerID -->
<g id="edge6" class="edge"><title>1_fwatchdog#ServerID_6df85d7674&#45;2kqrj&#45;&gt;gateway:8080#ServerID_OuterContainerID</title>
<path fill="none" stroke="black" d="M938.536,-492.875C948.255,-488.256 957.467,-482.405 965,-475 976.881,-463.32 983.611,-445.877 987.381,-431.203"/>
<polygon fill="black" stroke="black" points="990.867,-431.653 989.634,-421.13 984.035,-430.125 990.867,-431.653"/>
<text text-anchor="middle" x="997" y="-463.8" font-family="Times,serif" font-size="14.00">POST</text>
</g>
<!-- 10.1.80.247:33214#ServerID_OuterContainerID&#45;&gt;1_fwatchdog#ServerID_6df85d7674&#45;2kqrj -->
<g id="edge8" class="edge"><title>10.1.80.247:33214#ServerID_OuterContainerID&#45;&gt;1_fwatchdog#ServerID_6df85d7674&#45;2kqrj</title>
<path fill="none" stroke="black" d="M1573.87,-416.945C1504.13,-428.241 1397.94,-444.033 1305,-452 1250.95,-456.633 1114.22,-449.447 1061,-460 1042.38,-463.693 1039.18,-469.537 1021,-475 1002.02,-480.701 981.484,-485.986 961.799,-490.633"/>
<polygon fill="black" stroke="black" points="960.855,-487.26 951.907,-492.933 962.44,-494.078 960.855,-487.26"/>
<text text-anchor="middle" x="1081" y="-463.8" font-family="Times,serif" font-size="14.00">POST</text>
</g>
<!-- 1_fwatchdog#ServerID_34e86192c217 -->
<g id="node7" class="node"><title>1_fwatchdog#ServerID_34e86192c217</title>
<polygon fill="none" stroke="black" points="1558.5,-724 1259.5,-724 1259.5,-688 1558.5,-688 1558.5,-724"/>
<text text-anchor="middle" x="1409" y="-702.3" font-family="Times,serif" font-size="14.00">1_fwatchdog#ServerID_34e86192c217</text>
</g>
<!-- 10.1.80.247:33214#ServerID_OuterContainerID&#45;&gt;1_fwatchdog#ServerID_34e86192c217 -->
<g id="edge10" class="edge"><title>10.1.80.247:33214#ServerID_OuterContainerID&#45;&gt;1_fwatchdog#ServerID_34e86192c217</title>
<path fill="none" stroke="black" d="M1654.86,-420.914C1665.74,-462.716 1687.33,-572.196 1636,-637 1618.6,-658.972 1594.38,-674.066 1568.2,-684.386"/>
<polygon fill="black" stroke="black" points="1566.65,-681.228 1558.48,-687.975 1569.07,-687.795 1566.65,-681.228"/>
<text text-anchor="middle" x="1681.5" y="-571.8" font-family="Times,serif" font-size="14.00">read</text>
</g>
<!-- 10.1.80.247:8080#ServerID_OuterContainerID&#45;&gt;1_fwatchdog#ServerID_6df85d7674&#45;2kqrj -->
<g id="edge2" class="edge"><title>10.1.80.247:8080#ServerID_OuterContainerID&#45;&gt;1_fwatchdog#ServerID_6df85d7674&#45;2kqrj</title>
<path fill="none" stroke="black" d="M389.778,-418.552C442.212,-434.401 529.985,-459.548 607,-475 638.787,-481.378 672.991,-486.908 705.834,-491.571"/>
<polygon fill="black" stroke="black" points="705.59,-495.07 715.978,-492.99 706.56,-488.138 705.59,-495.07"/>
<text text-anchor="middle" x="649" y="-463.8" font-family="Times,serif" font-size="14.00">RESPONSE</text>
</g>
<!-- 10.1.80.1:38567#ServerID_OuterContainerID -->
<g id="node20" class="node"><title>10.1.80.1:38567#ServerID_OuterContainerID</title>
<polygon fill="none" stroke="black" points="335,-313 16.1049,-295 335,-277 653.895,-295 335,-313"/>
<text text-anchor="middle" x="335" y="-291.3" font-family="Times,serif" font-size="14.00">10.1.80.1:38567#ServerID_OuterContainerID</text>
</g>
<!-- 10.1.80.247:8080#ServerID_OuterContainerID&#45;&gt;10.1.80.1:38567#ServerID_OuterContainerID -->
<g id="edge26" class="edge"><title>10.1.80.247:8080#ServerID_OuterContainerID&#45;&gt;10.1.80.1:38567#ServerID_OuterContainerID</title>
<path fill="none" stroke="black" d="M303.089,-387.103C294.688,-382.04 286.895,-375.453 282,-367 271.93,-349.613 285.936,-331.484 302.069,-317.897"/>
<polygon fill="black" stroke="black" points="304.364,-320.546 310.064,-311.615 300.039,-315.041 304.364,-320.546"/>
<text text-anchor="middle" x="324" y="-355.8" font-family="Times,serif" font-size="14.00">RESPONSE</text>
</g>
<!-- 10.0.88.125:31112#ServerID_OuterContainerID -->
<g id="node21" class="node"><title>10.0.88.125:31112#ServerID_OuterContainerID</title>
<polygon fill="none" stroke="black" points="1007,-313 671.515,-295 1007,-277 1342.48,-295 1007,-313"/>
<text text-anchor="middle" x="1007" y="-291.3" font-family="Times,serif" font-size="14.00">10.0.88.125:31112#ServerID_OuterContainerID</text>
</g>
<!-- 10.1.80.247:8080#ServerID_OuterContainerID&#45;&gt;10.0.88.125:31112#ServerID_OuterContainerID -->
<g id="edge27" class="edge"><title>10.1.80.247:8080#ServerID_OuterContainerID&#45;&gt;10.0.88.125:31112#ServerID_OuterContainerID</title>
<path fill="none" stroke="black" d="M422.434,-389.319C546.818,-369.463 786.788,-331.154 917.247,-310.328"/>
<polygon fill="black" stroke="black" points="917.893,-313.769 927.216,-308.737 916.789,-306.857 917.893,-313.769"/>
<text text-anchor="middle" x="698" y="-355.8" font-family="Times,serif" font-size="14.00">RESPONSE</text>
</g>
<!-- 1_fwatchdog#ServerID_5f846fd567&#45;w7nbt -->
<g id="node4" class="node"><title>1_fwatchdog#ServerID_5f846fd567&#45;w7nbt</title>
<polygon fill="none" stroke="black" points="2500,-529 2176,-529 2176,-493 2500,-493 2500,-529"/>
<text text-anchor="middle" x="2338" y="-507.3" font-family="Times,serif" font-size="14.00">1_fwatchdog#ServerID_5f846fd567&#45;w7nbt</text>
</g>
<!-- 10.1.80.247:35208#ServerID_OuterContainerID -->
<g id="node5" class="node"><title>10.1.80.247:35208#ServerID_OuterContainerID</title>
<polygon fill="none" stroke="black" points="2339,-421 2003.52,-403 2339,-385 2674.48,-403 2339,-421"/>
<text text-anchor="middle" x="2339" y="-399.3" font-family="Times,serif" font-size="14.00">10.1.80.247:35208#ServerID_OuterContainerID</text>
</g>
<!-- 1_fwatchdog#ServerID_5f846fd567&#45;w7nbt&#45;&gt;10.1.80.247:35208#ServerID_OuterContainerID -->
<g id="edge3" class="edge"><title>1_fwatchdog#ServerID_5f846fd567&#45;w7nbt&#45;&gt;10.1.80.247:35208#ServerID_OuterContainerID</title>
<path fill="none" stroke="black" d="M2302.26,-492.861C2295.73,-488.032 2289.78,-482.108 2286,-475 2282.87,-469.115 2283.53,-466.194 2286,-460 2291,-447.439 2300.31,-436.073 2309.74,-426.914"/>
<polygon fill="black" stroke="black" points="2312.22,-429.386 2317.25,-420.061 2307.51,-424.214 2312.22,-429.386"/>
<text text-anchor="middle" x="2328" y="-463.8" font-family="Times,serif" font-size="14.00">RESPONSE</text>
</g>
<!-- 10.1.80.247:35208#ServerID_OuterContainerID&#45;&gt;1_fwatchdog#ServerID_5f846fd567&#45;w7nbt -->
<g id="edge4" class="edge"><title>10.1.80.247:35208#ServerID_OuterContainerID&#45;&gt;1_fwatchdog#ServerID_5f846fd567&#45;w7nbt</title>
<path fill="none" stroke="black" d="M2354.08,-420.48C2365.24,-434.767 2377.35,-456.067 2370,-475 2368.64,-478.507 2366.74,-481.876 2364.55,-485.046"/>
<polygon fill="black" stroke="black" points="2361.75,-482.944 2358.2,-492.928 2367.2,-487.335 2361.75,-482.944"/>
<text text-anchor="middle" x="2393" y="-463.8" font-family="Times,serif" font-size="14.00">POST</text>
</g>
<!-- 1_fwatchdog#ServerID_e56b6537e2d5 -->
<g id="node13" class="node"><title>1_fwatchdog#ServerID_e56b6537e2d5</title>
<polygon fill="none" stroke="black" points="5767.5,-313 5468.5,-313 5468.5,-277 5767.5,-277 5767.5,-313"/>
<text text-anchor="middle" x="5618" y="-291.3" font-family="Times,serif" font-size="14.00">1_fwatchdog#ServerID_e56b6537e2d5</text>
</g>
<!-- 10.1.80.247:35208#ServerID_OuterContainerID&#45;&gt;1_fwatchdog#ServerID_e56b6537e2d5 -->
<g id="edge19" class="edge"><title>10.1.80.247:35208#ServerID_OuterContainerID&#45;&gt;1_fwatchdog#ServerID_e56b6537e2d5</title>
<path fill="none" stroke="black" d="M2500.02,-393.613C2558.01,-390.713 2623.94,-387.552 2684,-385 3094.56,-367.554 3197.15,-360.265 3608,-352 3706.15,-350.026 5277.32,-353.778 5375,-344 5430.83,-338.411 5492.87,-326.052 5540.29,-315.274"/>
<polygon fill="black" stroke="black" points="5541.21,-318.652 5550.18,-313.001 5539.65,-311.83 5541.21,-318.652"/>
<text text-anchor="middle" x="3624.5" y="-355.8" font-family="Times,serif" font-size="14.00">read</text>
</g>
<!-- gateway:8080#ServerID_OuterContainerID&#45;&gt;1_fwatchdog#ServerID_6df85d7674&#45;2kqrj -->
<g id="edge5" class="edge"><title>gateway:8080#ServerID_OuterContainerID&#45;&gt;1_fwatchdog#ServerID_6df85d7674&#45;2kqrj</title>
<path fill="none" stroke="black" d="M943.39,-418.218C921.407,-426.961 896.859,-440.347 881,-460 875.83,-466.406 872.697,-474.646 870.803,-482.581"/>
<polygon fill="black" stroke="black" points="867.317,-482.19 868.962,-492.657 874.203,-483.449 867.317,-482.19"/>
<text text-anchor="middle" x="923" y="-463.8" font-family="Times,serif" font-size="14.00">RESPONSE</text>
</g>
<!-- localhost:3000#ServerID_34e86192c217 -->
<g id="node8" class="node"><title>localhost:3000#ServerID_34e86192c217</title>
<polygon fill="none" stroke="black" points="1340,-637 1053.45,-619 1340,-601 1626.55,-619 1340,-637"/>
<text text-anchor="middle" x="1340" y="-615.3" font-family="Times,serif" font-size="14.00">localhost:3000#ServerID_34e86192c217</text>
</g>
<!-- 1_fwatchdog#ServerID_34e86192c217&#45;&gt;localhost:3000#ServerID_34e86192c217 -->
<g id="edge9" class="edge"><title>1_fwatchdog#ServerID_34e86192c217&#45;&gt;localhost:3000#ServerID_34e86192c217</title>
<path fill="none" stroke="black" d="M1395.04,-687.799C1384.83,-675.228 1370.86,-658.014 1359.55,-644.077"/>
<polygon fill="black" stroke="black" points="1362.26,-641.868 1353.24,-636.31 1356.83,-646.28 1362.26,-641.868"/>
<text text-anchor="middle" x="1398" y="-658.8" font-family="Times,serif" font-size="14.00">write</text>
</g>
<!-- 10_node#ServerID_34e86192c217 -->
<g id="node15" class="node"><title>10_node#ServerID_34e86192c217</title>
<polygon fill="none" stroke="black" points="1405.5,-529 1138.5,-529 1138.5,-493 1405.5,-493 1405.5,-529"/>
<text text-anchor="middle" x="1272" y="-507.3" font-family="Times,serif" font-size="14.00">10_node#ServerID_34e86192c217</text>
</g>
<!-- localhost:3000#ServerID_34e86192c217&#45;&gt;10_node#ServerID_34e86192c217 -->
<g id="edge24" class="edge"><title>localhost:3000#ServerID_34e86192c217&#45;&gt;10_node#ServerID_34e86192c217</title>
<path fill="none" stroke="black" d="M1329.38,-601.438C1318.43,-584.37 1301.21,-557.533 1288.49,-537.705"/>
<polygon fill="black" stroke="black" points="1291.35,-535.676 1283,-529.149 1285.45,-539.455 1291.35,-535.676"/>
<text text-anchor="middle" x="1333.5" y="-571.8" font-family="Times,serif" font-size="14.00">read</text>
</g>
<!-- 1_fwatchdog#ServerID_90667071e782 -->
<g id="node9" class="node"><title>1_fwatchdog#ServerID_90667071e782</title>
<polygon fill="none" stroke="black" points="6736.5,-313 6437.5,-313 6437.5,-277 6736.5,-277 6736.5,-313"/>
<text text-anchor="middle" x="6587" y="-291.3" font-family="Times,serif" font-size="14.00">1_fwatchdog#ServerID_90667071e782</text>
</g>
<!-- 10.1.80.1:35128#ServerID_OuterContainerID -->
<g id="node10" class="node"><title>10.1.80.1:35128#ServerID_OuterContainerID</title>
<polygon fill="none" stroke="black" points="3700,-421 3381.1,-403 3700,-385 4018.9,-403 3700,-421"/>
<text text-anchor="middle" x="3700" y="-399.3" font-family="Times,serif" font-size="14.00">10.1.80.1:35128#ServerID_OuterContainerID</text>
</g>
<!-- 1_fwatchdog#ServerID_90667071e782&#45;&gt;10.1.80.1:35128#ServerID_OuterContainerID -->
<g id="edge11" class="edge"><title>1_fwatchdog#ServerID_90667071e782&#45;&gt;10.1.80.1:35128#ServerID_OuterContainerID</title>
<path fill="none" stroke="black" d="M6542.04,-313.046C6509.95,-324.284 6465.48,-337.998 6425,-344 6355.65,-354.283 5233.1,-350.759 5163,-352 4658.42,-360.933 4532.25,-364.605 4028,-385 3973.54,-387.203 3914.02,-390.131 3860.81,-392.935"/>
<polygon fill="black" stroke="black" points="3860.4,-389.452 3850.6,-393.476 3860.77,-396.442 3860.4,-389.452"/>
<text text-anchor="middle" x="5182" y="-355.8" font-family="Times,serif" font-size="14.00">write</text>
</g>
<!-- 10.1.80.1:35126#ServerID_OuterContainerID -->
<g id="node14" class="node"><title>10.1.80.1:35126#ServerID_OuterContainerID</title>
<polygon fill="none" stroke="black" points="5044,-421 4725.1,-403 5044,-385 5362.9,-403 5044,-421"/>
<text text-anchor="middle" x="5044" y="-399.3" font-family="Times,serif" font-size="14.00">10.1.80.1:35126#ServerID_OuterContainerID</text>
</g>
<!-- 1_fwatchdog#ServerID_90667071e782&#45;&gt;10.1.80.1:35126#ServerID_OuterContainerID -->
<g id="edge17" class="edge"><title>1_fwatchdog#ServerID_90667071e782&#45;&gt;10.1.80.1:35126#ServerID_OuterContainerID</title>
<path fill="none" stroke="black" d="M6540.94,-313.065C6508.91,-324.081 6464.96,-337.523 6425,-344 6372.32,-352.538 6238.32,-349.943 6185,-352 5842.54,-365.211 5442.39,-383.375 5218.56,-393.782"/>
<polygon fill="black" stroke="black" points="5218.19,-390.295 5208.36,-394.256 5218.52,-397.288 5218.19,-390.295"/>
<text text-anchor="middle" x="6204" y="-355.8" font-family="Times,serif" font-size="14.00">write</text>
</g>
<!-- 10.1.80.1:35128#ServerID_OuterContainerID&#45;&gt;1_fwatchdog#ServerID_90667071e782 -->
<g id="edge12" class="edge"><title>10.1.80.1:35128#ServerID_OuterContainerID&#45;&gt;1_fwatchdog#ServerID_90667071e782</title>
<path fill="none" stroke="black" d="M3822.62,-391.898C3976.67,-379.731 4249.19,-359.94 4483,-352 4536.91,-350.169 6371.63,-351.853 6425,-344 6461.53,-338.625 6501.3,-326.931 6532.3,-316.431"/>
<polygon fill="black" stroke="black" points="6533.73,-319.641 6542.04,-313.073 6531.44,-313.024 6533.73,-319.641"/>
<text text-anchor="middle" x="4499.5" y="-355.8" font-family="Times,serif" font-size="14.00">read</text>
</g>
<!-- 10.1.80.247:44900#ServerID_OuterContainerID -->
<g id="node11" class="node"><title>10.1.80.247:44900#ServerID_OuterContainerID</title>
<polygon fill="none" stroke="black" points="4372,-421 4036.52,-403 4372,-385 4707.48,-403 4372,-421"/>
<text text-anchor="middle" x="4372" y="-399.3" font-family="Times,serif" font-size="14.00">10.1.80.247:44900#ServerID_OuterContainerID</text>
</g>
<!-- 10.1.80.247:44900#ServerID_OuterContainerID&#45;&gt;1_fwatchdog#ServerID_90667071e782 -->
<g id="edge13" class="edge"><title>10.1.80.247:44900#ServerID_OuterContainerID&#45;&gt;1_fwatchdog#ServerID_90667071e782</title>
<path fill="none" stroke="black" d="M4530.82,-393.52C4589.05,-390.577 4655.51,-387.414 4716,-385 5198.51,-365.748 5319.22,-362.434 5802,-352 5871.21,-350.504 6356.55,-354.376 6425,-344 6461.38,-338.486 6501,-326.853 6531.95,-316.42"/>
<polygon fill="black" stroke="black" points="6533.35,-319.638 6541.68,-313.084 6531.08,-313.017 6533.35,-319.638"/>
<text text-anchor="middle" x="5818.5" y="-355.8" font-family="Times,serif" font-size="14.00">read</text>
</g>
<!-- 10.1.80.247:35158#ServerID_OuterContainerID -->
<g id="node12" class="node"><title>10.1.80.247:35158#ServerID_OuterContainerID</title>
<polygon fill="none" stroke="black" points="3028,-421 2692.52,-403 3028,-385 3363.48,-403 3028,-421"/>
<text text-anchor="middle" x="3028" y="-399.3" font-family="Times,serif" font-size="14.00">10.1.80.247:35158#ServerID_OuterContainerID</text>
</g>
<!-- 10.1.80.247:35158#ServerID_OuterContainerID&#45;&gt;1_fwatchdog#ServerID_e56b6537e2d5 -->
<g id="edge14" class="edge"><title>10.1.80.247:35158#ServerID_OuterContainerID&#45;&gt;1_fwatchdog#ServerID_e56b6537e2d5</title>
<path fill="none" stroke="black" d="M3173.12,-392.756C3367.94,-380.804 3724.88,-360.516 4030,-352 4104.69,-349.915 5300.65,-351.496 5375,-344 5430.72,-338.382 5492.64,-326.057 5540.03,-315.303"/>
<polygon fill="black" stroke="black" points="5540.95,-318.683 5549.91,-313.036 5539.38,-311.861 5540.95,-318.683"/>
<text text-anchor="middle" x="4046.5" y="-355.8" font-family="Times,serif" font-size="14.00">read</text>
</g>
<!-- localhost:3000#ServerID_e56b6537e2d5 -->
<g id="node16" class="node"><title>localhost:3000#ServerID_e56b6537e2d5</title>
<polygon fill="none" stroke="black" points="5674,-226 5387.45,-208 5674,-190 5960.55,-208 5674,-226"/>
<text text-anchor="middle" x="5674" y="-204.3" font-family="Times,serif" font-size="14.00">localhost:3000#ServerID_e56b6537e2d5</text>
</g>
<!-- 1_fwatchdog#ServerID_e56b6537e2d5&#45;&gt;localhost:3000#ServerID_e56b6537e2d5 -->
<g id="edge18" class="edge"><title>1_fwatchdog#ServerID_e56b6537e2d5&#45;&gt;localhost:3000#ServerID_e56b6537e2d5</title>
<path fill="none" stroke="black" d="M5636.98,-276.913C5642.27,-271.527 5647.74,-265.324 5652,-259 5656.84,-251.81 5661.03,-243.38 5664.42,-235.512"/>
<polygon fill="black" stroke="black" points="5667.77,-236.566 5668.26,-225.982 5661.27,-233.946 5667.77,-236.566"/>
<text text-anchor="middle" x="5679" y="-247.8" font-family="Times,serif" font-size="14.00">write</text>
</g>
<!-- pipe:[331682317]#ServerID_e56b6537e2d5 -->
<g id="node19" class="node"><title>pipe:[331682317]#ServerID_e56b6537e2d5</title>
<ellipse fill="none" stroke="black" cx="6196" cy="-208" rx="217.162" ry="18"/>
<text text-anchor="middle" x="6196" y="-204.3" font-family="Times,serif" font-size="14.00">pipe:[331682317]#ServerID_e56b6537e2d5</text>
</g>
<!-- 1_fwatchdog#ServerID_e56b6537e2d5&#45;&gt;pipe:[331682317]#ServerID_e56b6537e2d5 -->
<g id="edge23" class="edge"><title>1_fwatchdog#ServerID_e56b6537e2d5&#45;&gt;pipe:[331682317]#ServerID_e56b6537e2d5</title>
<path fill="none" stroke="black" d="M5733.92,-276.952C5835.98,-261.944 5983.63,-240.231 6084.38,-225.415"/>
<polygon fill="black" stroke="black" points="6084.9,-228.876 6094.29,-223.958 6083.88,-221.95 6084.9,-228.876"/>
<text text-anchor="middle" x="5960" y="-247.8" font-family="Times,serif" font-size="14.00">write</text>
</g>
<!-- 10.1.80.1:35126#ServerID_OuterContainerID&#45;&gt;1_fwatchdog#ServerID_90667071e782 -->
<g id="edge15" class="edge"><title>10.1.80.1:35126#ServerID_OuterContainerID&#45;&gt;1_fwatchdog#ServerID_90667071e782</title>
<path fill="none" stroke="black" d="M5290.75,-398.916C5627.73,-393.449 6214.11,-379.12 6425,-344 6460.9,-338.022 6500.05,-326.563 6530.88,-316.341"/>
<polygon fill="black" stroke="black" points="6532.22,-319.583 6540.58,-313.074 6529.98,-312.949 6532.22,-319.583"/>
<text text-anchor="middle" x="6378.5" y="-355.8" font-family="Times,serif" font-size="14.00">read</text>
</g>
<!-- 10_node#ServerID_34e86192c217&#45;&gt;gateway:8080#ServerID_OuterContainerID -->
<g id="edge16" class="edge"><title>10_node#ServerID_34e86192c217&#45;&gt;gateway:8080#ServerID_OuterContainerID</title>
<path fill="none" stroke="black" d="M1257.28,-492.794C1247.03,-481.867 1232.48,-468.273 1217,-460 1178.3,-439.314 1131.76,-426.091 1091.07,-417.726"/>
<polygon fill="black" stroke="black" points="1091.63,-414.268 1081.14,-415.755 1090.27,-421.134 1091.63,-414.268"/>
<text text-anchor="middle" x="1267" y="-463.8" font-family="Times,serif" font-size="14.00">connect</text>
</g>
<!-- localhost:3000#ServerID_e56b6537e2d5&#45;&gt;1_fwatchdog#ServerID_e56b6537e2d5 -->
<g id="edge22" class="edge"><title>localhost:3000#ServerID_e56b6537e2d5&#45;&gt;1_fwatchdog#ServerID_e56b6537e2d5</title>
<path fill="none" stroke="black" d="M5635.98,-223.766C5627.62,-228.873 5619.83,-235.514 5615,-244 5611.15,-250.754 5610.36,-258.886 5610.95,-266.611"/>
<polygon fill="black" stroke="black" points="5607.53,-267.355 5612.47,-276.725 5614.45,-266.317 5607.53,-267.355"/>
<text text-anchor="middle" x="5631.5" y="-247.8" font-family="Times,serif" font-size="14.00">read</text>
</g>
<!-- 12_node#ServerID_e56b6537e2d5 -->
<g id="node17" class="node"><title>12_node#ServerID_e56b6537e2d5</title>
<polygon fill="none" stroke="black" points="5807.5,-139 5540.5,-139 5540.5,-103 5807.5,-103 5807.5,-139"/>
<text text-anchor="middle" x="5674" y="-117.3" font-family="Times,serif" font-size="14.00">12_node#ServerID_e56b6537e2d5</text>
</g>
<!-- localhost:3000#ServerID_e56b6537e2d5&#45;&gt;12_node#ServerID_e56b6537e2d5 -->
<g id="edge21" class="edge"><title>localhost:3000#ServerID_e56b6537e2d5&#45;&gt;12_node#ServerID_e56b6537e2d5</title>
<path fill="none" stroke="black" d="M5674,-189.799C5674,-178.163 5674,-162.548 5674,-149.237"/>
<polygon fill="black" stroke="black" points="5677.5,-149.175 5674,-139.175 5670.5,-149.175 5677.5,-149.175"/>
<text text-anchor="middle" x="5690.5" y="-160.8" font-family="Times,serif" font-size="14.00">read</text>
</g>
<!-- pipe:[331682415]#ServerID_e56b6537e2d5 -->
<g id="node18" class="node"><title>pipe:[331682415]#ServerID_e56b6537e2d5</title>
<ellipse fill="none" stroke="black" cx="5674" cy="-34" rx="217.162" ry="18"/>
<text text-anchor="middle" x="5674" y="-30.3" font-family="Times,serif" font-size="14.00">pipe:[331682415]#ServerID_e56b6537e2d5</text>
</g>
<!-- 12_node#ServerID_e56b6537e2d5&#45;&gt;pipe:[331682415]#ServerID_e56b6537e2d5 -->
<g id="edge20" class="edge"><title>12_node#ServerID_e56b6537e2d5&#45;&gt;pipe:[331682415]#ServerID_e56b6537e2d5</title>
<path fill="none" stroke="black" d="M5674,-102.799C5674,-91.1626 5674,-75.5479 5674,-62.2368"/>
<polygon fill="black" stroke="black" points="5677.5,-62.1754 5674,-52.1754 5670.5,-62.1755 5677.5,-62.1754"/>
<text text-anchor="middle" x="5693" y="-73.8" font-family="Times,serif" font-size="14.00">write</text>
</g>
<!-- 10.1.80.1:38567#ServerID_OuterContainerID&#45;&gt;10.1.80.247:8080#ServerID_OuterContainerID -->
<g id="edge25" class="edge"><title>10.1.80.1:38567#ServerID_OuterContainerID&#45;&gt;10.1.80.247:8080#ServerID_OuterContainerID</title>
<path fill="none" stroke="black" d="M348.743,-312.449C356.653,-323.019 365.828,-337.453 370,-352 371.838,-358.408 372.151,-360.69 370,-367 368.79,-370.55 367.057,-374.021 365.047,-377.312"/>
<polygon fill="black" stroke="black" points="362.147,-375.351 359.24,-385.54 367.866,-379.387 362.147,-375.351"/>
<text text-anchor="middle" x="392" y="-355.8" font-family="Times,serif" font-size="14.00">POST</text>
</g>
</g>
</svg>
