<?xml version="1.0" encoding="UTF-8" standalone="no"?>
<!DOCTYPE svg PUBLIC "-//W3C//DTD SVG 1.1//EN"
 "http://www.w3.org/Graphics/SVG/1.1/DTD/svg11.dtd">
<!-- Generated by graphviz version 2.38.0 (20140413.2041)
 -->
<!-- Title: G Pages: 1 -->
<svg width="7617pt" height="471pt"
 viewBox="0.00 0.00 7617.00 471.00" xmlns="http://www.w3.org/2000/svg" xmlns:xlink="http://www.w3.org/1999/xlink">
<g id="graph0" class="graph" transform="scale(1 1) rotate(0) translate(4 467)">
<title>G</title>
<polygon fill="white" stroke="none" points="-4,4 -4,-467 7613,-467 7613,4 -4,4"/>
<g id="clust1" class="cluster"><title>clusterServerID_34e86192c217</title>
<polygon fill="none" stroke="black" points="8,-95 8,-324 1130,-324 1130,-95 8,-95"/>
<text text-anchor="middle" x="569" y="-308.8" font-family="Times,serif" font-size="14.00">clusterServerID_34e86192c217</text>
</g>
<g id="clust2" class="cluster"><title>clusterServerID_5f846fd567&#45;w7nbt</title>
<polygon fill="none" stroke="black" points="6037,-357 6037,-455 6377,-455 6377,-357 6037,-357"/>
<text text-anchor="middle" x="6207" y="-439.8" font-family="Times,serif" font-size="14.00">clusterServerID_5f846fd567&#45;w7nbt</text>
</g>
<g id="clust3" class="cluster"><title>clusterServerID_6df85d7674&#45;2kqrj</title>
<polygon fill="none" stroke="black" points="2659,-357 2659,-455 2997,-455 2997,-357 2659,-357"/>
<text text-anchor="middle" x="2828" y="-439.8" font-family="Times,serif" font-size="14.00">clusterServerID_6df85d7674&#45;2kqrj</text>
</g>
<g id="clust4" class="cluster"><title>clusterServerID_90667071e782</title>
<polygon fill="none" stroke="black" points="6784,-226 6784,-455 7376,-455 7376,-226 6784,-226"/>
<text text-anchor="middle" x="7080" y="-439.8" font-family="Times,serif" font-size="14.00">clusterServerID_90667071e782</text>
</g>
<g id="clust5" class="cluster"><title>clusterServerID_OuterContainerID</title>
<polygon fill="none" stroke="black" points="1138,-95 1138,-324 6551,-324 6551,-95 1138,-95"/>
<text text-anchor="middle" x="3844.5" y="-308.8" font-family="Times,serif" font-size="14.00">clusterServerID_OuterContainerID</text>
</g>
<g id="clust6" class="cluster"><title>clusterServerID_e56b6537e2d5</title>
<polygon fill="none" stroke="black" points="6559,-8 6559,-193 7601,-193 7601,-8 6559,-8"/>
<text text-anchor="middle" x="7080" y="-177.8" font-family="Times,serif" font-size="14.00">clusterServerID_e56b6537e2d5</text>
</g>
<!-- 10.1.80.247:33290#ServerID_OuterContainerID -->
<g id="node1" class="node"><title>10.1.80.247:33290#ServerID_OuterContainerID</title>
<polygon fill="none" stroke="black" points="1481,-270 1145.52,-252 1481,-234 1816.48,-252 1481,-270"/>
<text text-anchor="middle" x="1481" y="-248.3" font-family="Times,serif" font-size="14.00">10.1.80.247:33290#ServerID_OuterContainerID</text>
</g>
<!-- 1_fwatchdog#ServerID_6df85d7674&#45;2kqrj -->
<g id="node2" class="node"><title>1_fwatchdog#ServerID_6df85d7674&#45;2kqrj</title>
<polygon fill="none" stroke="black" points="2988.5,-401 2667.5,-401 2667.5,-365 2988.5,-365 2988.5,-401"/>
<text text-anchor="middle" x="2828" y="-379.3" font-family="Times,serif" font-size="14.00">1_fwatchdog#ServerID_6df85d7674&#45;2kqrj</text>
</g>
<!-- 10.1.80.247:33290#ServerID_OuterContainerID&#45;&gt;1_fwatchdog#ServerID_6df85d7674&#45;2kqrj -->
<g id="edge1" class="edge"><title>10.1.80.247:33290#ServerID_OuterContainerID&#45;&gt;1_fwatchdog#ServerID_6df85d7674&#45;2kqrj</title>
<path fill="none" stroke="black" d="M1422.7,-266.895C1354.03,-282.806 1236.31,-308.646 1134,-324 1054.4,-335.945 1026.13,-321.636 1051,-347 1078.87,-375.427 2217.33,-380.767 2657.1,-381.769"/>
<polygon fill="black" stroke="black" points="2657.35,-385.269 2667.36,-381.792 2657.37,-378.269 2657.35,-385.269"/>
<text text-anchor="middle" x="1071" y="-335.8" font-family="Times,serif" font-size="14.00">POST</text>
</g>
<!-- 1_fwatchdog#ServerID_34e86192c217 -->
<g id="node7" class="node"><title>1_fwatchdog#ServerID_34e86192c217</title>
<polygon fill="none" stroke="black" points="315.5,-270 16.5,-270 16.5,-234 315.5,-234 315.5,-270"/>
<text text-anchor="middle" x="166" y="-248.3" font-family="Times,serif" font-size="14.00">1_fwatchdog#ServerID_34e86192c217</text>
</g>
<!-- 10.1.80.247:33290#ServerID_OuterContainerID&#45;&gt;1_fwatchdog#ServerID_34e86192c217 -->
<g id="edge11" class="edge"><title>10.1.80.247:33290#ServerID_OuterContainerID&#45;&gt;1_fwatchdog#ServerID_34e86192c217</title>
<path fill="none" stroke="black" d="M1413.93,-266.43C1344.11,-281.331 1231.53,-305.017 1134,-324 1134,-324 325,-324 325,-324 281.602,-314.602 235.791,-292.373 204.548,-275.08"/>
<polygon fill="black" stroke="black" points="206.169,-271.977 195.738,-270.121 202.735,-278.076 206.169,-271.977"/>
<text text-anchor="middle" x="1112" y="-335.8" font-family="Times,serif" font-size="14.00">read</text>
</g>
<!-- 1_fwatchdog#ServerID_6df85d7674&#45;2kqrj&#45;&gt;10.1.80.247:33290#ServerID_OuterContainerID -->
<g id="edge6" class="edge"><title>1_fwatchdog#ServerID_6df85d7674&#45;2kqrj&#45;&gt;10.1.80.247:33290#ServerID_OuterContainerID</title>
<path fill="none" stroke="black" d="M2667.24,-379.868C2468.75,-375.587 2121.22,-362.714 1826,-324 1727.76,-311.117 1615.67,-286.099 1546.62,-269.469"/>
<polygon fill="black" stroke="black" points="1547.29,-266.031 1536.75,-267.078 1545.64,-272.834 1547.29,-266.031"/>
<text text-anchor="middle" x="2059" y="-335.8" font-family="Times,serif" font-size="14.00">RESPONSE</text>
</g>
<!-- gateway:8080#ServerID_OuterContainerID -->
<g id="node5" class="node"><title>gateway:8080#ServerID_OuterContainerID</title>
<polygon fill="none" stroke="black" points="2828,-270 2523.52,-252 2828,-234 3132.48,-252 2828,-270"/>
<text text-anchor="middle" x="2828" y="-248.3" font-family="Times,serif" font-size="14.00">gateway:8080#ServerID_OuterContainerID</text>
</g>
<!-- 1_fwatchdog#ServerID_6df85d7674&#45;2kqrj&#45;&gt;gateway:8080#ServerID_OuterContainerID -->
<g id="edge8" class="edge"><title>1_fwatchdog#ServerID_6df85d7674&#45;2kqrj&#45;&gt;gateway:8080#ServerID_OuterContainerID</title>
<path fill="none" stroke="black" d="M2848.2,-364.928C2852.99,-359.716 2857.44,-353.601 2860,-347 2868.99,-323.831 2857.71,-296.946 2846.13,-277.878"/>
<polygon fill="black" stroke="black" points="2849.06,-275.954 2840.69,-269.453 2843.18,-279.752 2849.06,-275.954"/>
<text text-anchor="middle" x="2883" y="-335.8" font-family="Times,serif" font-size="14.00">POST</text>
</g>
<!-- 10.1.80.247:8080#ServerID_OuterContainerID -->
<g id="node6" class="node"><title>10.1.80.247:8080#ServerID_OuterContainerID</title>
<polygon fill="none" stroke="black" points="4149,-270 3821.56,-252 4149,-234 4476.44,-252 4149,-270"/>
<text text-anchor="middle" x="4149" y="-248.3" font-family="Times,serif" font-size="14.00">10.1.80.247:8080#ServerID_OuterContainerID</text>
</g>
<!-- 1_fwatchdog#ServerID_6df85d7674&#45;2kqrj&#45;&gt;10.1.80.247:8080#ServerID_OuterContainerID -->
<g id="edge7" class="edge"><title>1_fwatchdog#ServerID_6df85d7674&#45;2kqrj&#45;&gt;10.1.80.247:8080#ServerID_OuterContainerID</title>
<path fill="none" stroke="black" d="M2988.61,-369.874C3141.19,-358.703 3377.11,-342.339 3582,-332 3684.6,-326.823 3711.03,-336.444 3813,-324 3909.4,-312.236 4019.16,-286.698 4086.24,-269.677"/>
<polygon fill="black" stroke="black" points="4087.41,-272.992 4096.23,-267.126 4085.68,-266.209 4087.41,-272.992"/>
<text text-anchor="middle" x="3602" y="-335.8" font-family="Times,serif" font-size="14.00">POST</text>
</g>
<!-- 1_fwatchdog#ServerID_5f846fd567&#45;w7nbt -->
<g id="node3" class="node"><title>1_fwatchdog#ServerID_5f846fd567&#45;w7nbt</title>
<polygon fill="none" stroke="black" points="6369,-401 6045,-401 6045,-365 6369,-365 6369,-401"/>
<text text-anchor="middle" x="6207" y="-379.3" font-family="Times,serif" font-size="14.00">1_fwatchdog#ServerID_5f846fd567&#45;w7nbt</text>
</g>
<!-- 10.1.80.247:35296#ServerID_OuterContainerID -->
<g id="node4" class="node"><title>10.1.80.247:35296#ServerID_OuterContainerID</title>
<polygon fill="none" stroke="black" points="6208,-270 5872.52,-252 6208,-234 6543.48,-252 6208,-270"/>
<text text-anchor="middle" x="6208" y="-248.3" font-family="Times,serif" font-size="14.00">10.1.80.247:35296#ServerID_OuterContainerID</text>
</g>
<!-- 1_fwatchdog#ServerID_5f846fd567&#45;w7nbt&#45;&gt;10.1.80.247:35296#ServerID_OuterContainerID -->
<g id="edge2" class="edge"><title>1_fwatchdog#ServerID_5f846fd567&#45;w7nbt&#45;&gt;10.1.80.247:35296#ServerID_OuterContainerID</title>
<path fill="none" stroke="black" d="M6212.96,-364.759C6214.61,-359.165 6216.18,-352.883 6217,-347 6220.15,-324.502 6217.25,-298.817 6213.93,-279.988"/>
<polygon fill="black" stroke="black" points="6217.34,-279.197 6212.03,-270.034 6210.47,-280.514 6217.34,-279.197"/>
<text text-anchor="middle" x="6261" y="-335.8" font-family="Times,serif" font-size="14.00">RESPONSE</text>
</g>
<!-- 10.1.80.247:35296#ServerID_OuterContainerID&#45;&gt;1_fwatchdog#ServerID_5f846fd567&#45;w7nbt -->
<g id="edge4" class="edge"><title>10.1.80.247:35296#ServerID_OuterContainerID&#45;&gt;1_fwatchdog#ServerID_5f846fd567&#45;w7nbt</title>
<path fill="none" stroke="black" d="M6198.2,-269.565C6189.63,-285.09 6177.81,-309.252 6173,-332 6171.62,-338.522 6170.49,-340.822 6173,-347 6174.42,-350.503 6176.38,-353.848 6178.65,-356.984"/>
<polygon fill="black" stroke="black" points="6176.08,-359.372 6185.2,-364.762 6181.43,-354.86 6176.08,-359.372"/>
<text text-anchor="middle" x="6193" y="-335.8" font-family="Times,serif" font-size="14.00">POST</text>
</g>
<!-- gateway:8080#ServerID_OuterContainerID&#45;&gt;1_fwatchdog#ServerID_6df85d7674&#45;2kqrj -->
<g id="edge3" class="edge"><title>gateway:8080#ServerID_OuterContainerID&#45;&gt;1_fwatchdog#ServerID_6df85d7674&#45;2kqrj</title>
<path fill="none" stroke="black" d="M2813.02,-269.388C2800.38,-284.416 2783.21,-307.934 2776,-332 2774.09,-338.386 2772.87,-341.115 2776,-347 2778.19,-351.11 2781.1,-354.823 2784.42,-358.158"/>
<polygon fill="black" stroke="black" points="2782.39,-361.021 2792.26,-364.861 2786.94,-355.701 2782.39,-361.021"/>
<text text-anchor="middle" x="2818" y="-335.8" font-family="Times,serif" font-size="14.00">RESPONSE</text>
</g>
<!-- 10.1.80.247:8080#ServerID_OuterContainerID&#45;&gt;1_fwatchdog#ServerID_6df85d7674&#45;2kqrj -->
<g id="edge5" class="edge"><title>10.1.80.247:8080#ServerID_OuterContainerID&#45;&gt;1_fwatchdog#ServerID_6df85d7674&#45;2kqrj</title>
<path fill="none" stroke="black" d="M4094.73,-267.086C4028.66,-283.624 3913.45,-310.506 3813,-324 3529.1,-362.136 3195.82,-375.198 2998.8,-379.671"/>
<polygon fill="black" stroke="black" points="2998.57,-376.175 2988.65,-379.897 2998.72,-383.174 2998.57,-376.175"/>
<text text-anchor="middle" x="3776" y="-335.8" font-family="Times,serif" font-size="14.00">RESPONSE</text>
</g>
<!-- 10.1.80.1:34325#ServerID_OuterContainerID -->
<g id="node21" class="node"><title>10.1.80.1:34325#ServerID_OuterContainerID</title>
<polygon fill="none" stroke="black" points="4212,-139 3893.1,-121 4212,-103 4530.9,-121 4212,-139"/>
<text text-anchor="middle" x="4212" y="-117.3" font-family="Times,serif" font-size="14.00">10.1.80.1:34325#ServerID_OuterContainerID</text>
</g>
<!-- 10.1.80.247:8080#ServerID_OuterContainerID&#45;&gt;10.1.80.1:34325#ServerID_OuterContainerID -->
<g id="edge23" class="edge"><title>10.1.80.247:8080#ServerID_OuterContainerID&#45;&gt;10.1.80.1:34325#ServerID_OuterContainerID</title>
<path fill="none" stroke="black" d="M4172.83,-235.01C4179.25,-229.655 4185.62,-223.194 4190,-216 4202.36,-195.709 4207.78,-169.069 4210.15,-149.332"/>
<polygon fill="black" stroke="black" points="4213.65,-149.463 4211.18,-139.161 4206.69,-148.757 4213.65,-149.463"/>
<text text-anchor="middle" x="4240" y="-204.8" font-family="Times,serif" font-size="14.00">RESPONSE</text>
</g>
<!-- 10.0.88.125:31112#ServerID_OuterContainerID -->
<g id="node22" class="node"><title>10.0.88.125:31112#ServerID_OuterContainerID</title>
<polygon fill="none" stroke="black" points="3540,-139 3204.52,-121 3540,-103 3875.48,-121 3540,-139"/>
<text text-anchor="middle" x="3540" y="-117.3" font-family="Times,serif" font-size="14.00">10.0.88.125:31112#ServerID_OuterContainerID</text>
</g>
<!-- 10.1.80.247:8080#ServerID_OuterContainerID&#45;&gt;10.0.88.125:31112#ServerID_OuterContainerID -->
<g id="edge25" class="edge"><title>10.1.80.247:8080#ServerID_OuterContainerID&#45;&gt;10.0.88.125:31112#ServerID_OuterContainerID</title>
<path fill="none" stroke="black" d="M4085.26,-237.499C3971.64,-213.43 3734.7,-163.242 3614.05,-137.685"/>
<polygon fill="black" stroke="black" points="3614.66,-134.237 3604.15,-135.589 3613.21,-141.085 3614.66,-134.237"/>
<text text-anchor="middle" x="4012" y="-204.8" font-family="Times,serif" font-size="14.00">RESPONSE</text>
</g>
<!-- localhost:3000#ServerID_34e86192c217 -->
<g id="node8" class="node"><title>localhost:3000#ServerID_34e86192c217</title>
<polygon fill="none" stroke="black" points="303,-139 16.4457,-121 303,-103 589.554,-121 303,-139"/>
<text text-anchor="middle" x="303" y="-117.3" font-family="Times,serif" font-size="14.00">localhost:3000#ServerID_34e86192c217</text>
</g>
<!-- 1_fwatchdog#ServerID_34e86192c217&#45;&gt;localhost:3000#ServerID_34e86192c217 -->
<g id="edge9" class="edge"><title>1_fwatchdog#ServerID_34e86192c217&#45;&gt;localhost:3000#ServerID_34e86192c217</title>
<path fill="none" stroke="black" d="M184.193,-233.87C208.439,-211.039 251.427,-170.562 278.505,-145.064"/>
<polygon fill="black" stroke="black" points="281.145,-147.386 286.026,-137.983 276.346,-142.29 281.145,-147.386"/>
<text text-anchor="middle" x="238" y="-204.8" font-family="Times,serif" font-size="14.00">write</text>
</g>
<!-- localhost:3000#ServerID_90667071e782 -->
<g id="node9" class="node"><title>localhost:3000#ServerID_90667071e782</title>
<polygon fill="none" stroke="black" points="7080,-401 6792.11,-383 7080,-365 7367.89,-383 7080,-401"/>
<text text-anchor="middle" x="7080" y="-379.3" font-family="Times,serif" font-size="14.00">localhost:3000#ServerID_90667071e782</text>
</g>
<!-- 1_fwatchdog#ServerID_90667071e782 -->
<g id="node10" class="node"><title>1_fwatchdog#ServerID_90667071e782</title>
<polygon fill="none" stroke="black" points="7229.5,-270 6930.5,-270 6930.5,-234 7229.5,-234 7229.5,-270"/>
<text text-anchor="middle" x="7080" y="-248.3" font-family="Times,serif" font-size="14.00">1_fwatchdog#ServerID_90667071e782</text>
</g>
<!-- localhost:3000#ServerID_90667071e782&#45;&gt;1_fwatchdog#ServerID_90667071e782 -->
<g id="edge10" class="edge"><title>localhost:3000#ServerID_90667071e782&#45;&gt;1_fwatchdog#ServerID_90667071e782</title>
<path fill="none" stroke="black" d="M7080,-364.87C7080,-343.281 7080,-305.912 7080,-280.352"/>
<polygon fill="black" stroke="black" points="7083.5,-280.201 7080,-270.201 7076.5,-280.201 7083.5,-280.201"/>
<text text-anchor="middle" x="7096.5" y="-335.8" font-family="Times,serif" font-size="14.00">read</text>
</g>
<!-- /etc/hosts#ServerID_34e86192c217 -->
<g id="node11" class="node"><title>/etc/hosts#ServerID_34e86192c217</title>
<ellipse fill="none" stroke="black" cx="514" cy="-252" rx="180.068" ry="18"/>
<text text-anchor="middle" x="514" y="-248.3" font-family="Times,serif" font-size="14.00">/etc/hosts#ServerID_34e86192c217</text>
</g>
<!-- 10_node#ServerID_34e86192c217 -->
<g id="node12" class="node"><title>10_node#ServerID_34e86192c217</title>
<polygon fill="none" stroke="black" points="1121.5,-139 854.5,-139 854.5,-103 1121.5,-103 1121.5,-139"/>
<text text-anchor="middle" x="988" y="-117.3" font-family="Times,serif" font-size="14.00">10_node#ServerID_34e86192c217</text>
</g>
<!-- /etc/hosts#ServerID_34e86192c217&#45;&gt;10_node#ServerID_34e86192c217 -->
<g id="edge12" class="edge"><title>/etc/hosts#ServerID_34e86192c217&#45;&gt;10_node#ServerID_34e86192c217</title>
<path fill="none" stroke="black" d="M573.074,-234.923C659.842,-211.309 821.59,-167.289 915.456,-141.743"/>
<polygon fill="black" stroke="black" points="916.43,-145.105 925.16,-139.102 914.592,-138.351 916.43,-145.105"/>
<text text-anchor="middle" x="711.5" y="-204.8" font-family="Times,serif" font-size="14.00">read</text>
</g>
<!-- 10_node#ServerID_34e86192c217&#45;&gt;gateway:8080#ServerID_OuterContainerID -->
<g id="edge20" class="edge"><title>10_node#ServerID_34e86192c217&#45;&gt;gateway:8080#ServerID_OuterContainerID</title>
<path fill="none" stroke="black" d="M1014.13,-139.009C1042.37,-156.337 1089.36,-182.157 1134,-193 1283.04,-229.2 2360.83,-218.077 2514,-226 2577.37,-229.278 2647.8,-234.72 2705.88,-239.692"/>
<polygon fill="black" stroke="black" points="2705.94,-243.21 2716.2,-240.581 2706.54,-236.236 2705.94,-243.21"/>
<text text-anchor="middle" x="1531" y="-204.8" font-family="Times,serif" font-size="14.00">connect</text>
</g>
<!-- 10.152.183.10:53#ServerID_OuterContainerID -->
<g id="node16" class="node"><title>10.152.183.10:53#ServerID_OuterContainerID</title>
<polygon fill="none" stroke="black" points="3477,-270 3149.56,-252 3477,-234 3804.44,-252 3477,-270"/>
<text text-anchor="middle" x="3477" y="-248.3" font-family="Times,serif" font-size="14.00">10.152.183.10:53#ServerID_OuterContainerID</text>
</g>
<!-- 10_node#ServerID_34e86192c217&#45;&gt;10.152.183.10:53#ServerID_OuterContainerID -->
<g id="edge15" class="edge"><title>10_node#ServerID_34e86192c217&#45;&gt;10.152.183.10:53#ServerID_OuterContainerID</title>
<path fill="none" stroke="black" d="M1013.83,-139.012C1042.01,-156.477 1089.12,-182.536 1134,-193 1173.33,-202.171 2547.62,-199.977 2588,-201 2833.95,-207.234 2895.41,-211.315 3141,-226 3207.24,-229.96 3280.74,-235.32 3342.07,-240.06"/>
<polygon fill="black" stroke="black" points="3341.96,-243.562 3352.2,-240.846 3342.5,-236.583 3341.96,-243.562"/>
<text text-anchor="middle" x="2994.5" y="-204.8" font-family="Times,serif" font-size="14.00">sendto</text>
</g>
<!-- 10.1.80.247:35250#ServerID_OuterContainerID -->
<g id="node13" class="node"><title>10.1.80.247:35250#ServerID_OuterContainerID</title>
<polygon fill="none" stroke="black" points="4830,-270 4494.52,-252 4830,-234 5165.48,-252 4830,-270"/>
<text text-anchor="middle" x="4830" y="-248.3" font-family="Times,serif" font-size="14.00">10.1.80.247:35250#ServerID_OuterContainerID</text>
</g>
<!-- 1_fwatchdog#ServerID_e56b6537e2d5 -->
<g id="node14" class="node"><title>1_fwatchdog#ServerID_e56b6537e2d5</title>
<polygon fill="none" stroke="black" points="6942.5,-139 6643.5,-139 6643.5,-103 6942.5,-103 6942.5,-139"/>
<text text-anchor="middle" x="6793" y="-117.3" font-family="Times,serif" font-size="14.00">1_fwatchdog#ServerID_e56b6537e2d5</text>
</g>
<!-- 10.1.80.247:35250#ServerID_OuterContainerID&#45;&gt;1_fwatchdog#ServerID_e56b6537e2d5 -->
<g id="edge13" class="edge"><title>10.1.80.247:35250#ServerID_OuterContainerID&#45;&gt;1_fwatchdog#ServerID_e56b6537e2d5</title>
<path fill="none" stroke="black" d="M4953.66,-240.582C5019.37,-235.415 5101.52,-229.539 5175,-226 5213.3,-224.155 6517.13,-198.992 6555,-193 6619.75,-182.756 6691.53,-159.64 6739.15,-142.553"/>
<polygon fill="black" stroke="black" points="6740.43,-145.812 6748.64,-139.113 6738.05,-139.231 6740.43,-145.812"/>
<text text-anchor="middle" x="6298.5" y="-204.8" font-family="Times,serif" font-size="14.00">read</text>
</g>
<!-- localhost:3000#ServerID_e56b6537e2d5 -->
<g id="node18" class="node"><title>localhost:3000#ServerID_e56b6537e2d5</title>
<polygon fill="none" stroke="black" points="6854,-52 6567.45,-34 6854,-16 7140.55,-34 6854,-52"/>
<text text-anchor="middle" x="6854" y="-30.3" font-family="Times,serif" font-size="14.00">localhost:3000#ServerID_e56b6537e2d5</text>
</g>
<!-- 1_fwatchdog#ServerID_e56b6537e2d5&#45;&gt;localhost:3000#ServerID_e56b6537e2d5 -->
<g id="edge19" class="edge"><title>1_fwatchdog#ServerID_e56b6537e2d5&#45;&gt;localhost:3000#ServerID_e56b6537e2d5</title>
<path fill="none" stroke="black" d="M6787.35,-102.653C6785.1,-92.4661 6784.23,-79.7243 6790,-70 6793.47,-64.1448 6798.31,-59.2054 6803.78,-55.0554"/>
<polygon fill="black" stroke="black" points="6805.75,-57.9507 6812.17,-49.5252 6801.89,-52.106 6805.75,-57.9507"/>
<text text-anchor="middle" x="6809" y="-73.8" font-family="Times,serif" font-size="14.00">write</text>
</g>
<!-- pipe:[331682317]#ServerID_e56b6537e2d5 -->
<g id="node20" class="node"><title>pipe:[331682317]#ServerID_e56b6537e2d5</title>
<ellipse fill="none" stroke="black" cx="7376" cy="-34" rx="217.162" ry="18"/>
<text text-anchor="middle" x="7376" y="-30.3" font-family="Times,serif" font-size="14.00">pipe:[331682317]#ServerID_e56b6537e2d5</text>
</g>
<!-- 1_fwatchdog#ServerID_e56b6537e2d5&#45;&gt;pipe:[331682317]#ServerID_e56b6537e2d5 -->
<g id="edge22" class="edge"><title>1_fwatchdog#ServerID_e56b6537e2d5&#45;&gt;pipe:[331682317]#ServerID_e56b6537e2d5</title>
<path fill="none" stroke="black" d="M6909.93,-102.952C7013.03,-87.9203 7162.26,-66.1628 7263.89,-51.3452"/>
<polygon fill="black" stroke="black" points="7264.49,-54.7947 7273.88,-49.8885 7263.48,-47.868 7264.49,-54.7947"/>
<text text-anchor="middle" x="7138" y="-73.8" font-family="Times,serif" font-size="14.00">write</text>
</g>
<!-- /etc/resolv.conf#ServerID_34e86192c217 -->
<g id="node15" class="node"><title>/etc/resolv.conf#ServerID_34e86192c217</title>
<ellipse fill="none" stroke="black" cx="917" cy="-252" rx="205.264" ry="18"/>
<text text-anchor="middle" x="917" y="-248.3" font-family="Times,serif" font-size="14.00">/etc/resolv.conf#ServerID_34e86192c217</text>
</g>
<!-- /etc/resolv.conf#ServerID_34e86192c217&#45;&gt;10_node#ServerID_34e86192c217 -->
<g id="edge14" class="edge"><title>/etc/resolv.conf#ServerID_34e86192c217&#45;&gt;10_node#ServerID_34e86192c217</title>
<path fill="none" stroke="black" d="M926.428,-233.87C938.523,-211.895 959.615,-173.573 973.693,-147.994"/>
<polygon fill="black" stroke="black" points="976.777,-149.649 978.533,-139.201 970.645,-146.274 976.777,-149.649"/>
<text text-anchor="middle" x="961.5" y="-204.8" font-family="Times,serif" font-size="14.00">read</text>
</g>
<!-- 10.152.183.10:53#ServerID_OuterContainerID&#45;&gt;10_node#ServerID_34e86192c217 -->
<g id="edge16" class="edge"><title>10.152.183.10:53#ServerID_OuterContainerID&#45;&gt;10_node#ServerID_34e86192c217</title>
<path fill="none" stroke="black" d="M3358.53,-240.494C3294.23,-235.218 3213.31,-229.268 3141,-226 3134.04,-225.685 1140.78,-194.62 1134,-193 1093.68,-183.363 1051.5,-161.362 1022.9,-144.387"/>
<polygon fill="black" stroke="black" points="1024.48,-141.253 1014.11,-139.074 1020.86,-147.243 1024.48,-141.253"/>
<text text-anchor="middle" x="2524" y="-204.8" font-family="Times,serif" font-size="14.00">recvfrom</text>
</g>
<!-- 10.1.80.247:33330#ServerID_OuterContainerID -->
<g id="node17" class="node"><title>10.1.80.247:33330#ServerID_OuterContainerID</title>
<polygon fill="none" stroke="black" points="2170,-270 1834.52,-252 2170,-234 2505.48,-252 2170,-270"/>
<text text-anchor="middle" x="2170" y="-248.3" font-family="Times,serif" font-size="14.00">10.1.80.247:33330#ServerID_OuterContainerID</text>
</g>
<!-- 10.1.80.247:33330#ServerID_OuterContainerID&#45;&gt;1_fwatchdog#ServerID_34e86192c217 -->
<g id="edge17" class="edge"><title>10.1.80.247:33330#ServerID_OuterContainerID&#45;&gt;1_fwatchdog#ServerID_34e86192c217</title>
<path fill="none" stroke="black" d="M2114.98,-267.092C2047.34,-284.802 1928.75,-313.131 1825,-324 1659.24,-341.364 487.899,-359.239 325,-324 281.6,-314.611 235.789,-292.381 204.547,-275.085"/>
<polygon fill="black" stroke="black" points="206.168,-271.982 195.737,-270.125 202.734,-278.081 206.168,-271.982"/>
<text text-anchor="middle" x="1476" y="-335.8" font-family="Times,serif" font-size="14.00">read</text>
</g>
<!-- localhost:3000#ServerID_e56b6537e2d5&#45;&gt;1_fwatchdog#ServerID_e56b6537e2d5 -->
<g id="edge18" class="edge"><title>localhost:3000#ServerID_e56b6537e2d5&#45;&gt;1_fwatchdog#ServerID_e56b6537e2d5</title>
<path fill="none" stroke="black" d="M6848.68,-51.693C6844.96,-61.8857 6839.34,-74.8623 6832,-85 6829.28,-88.7482 6826.11,-92.3889 6822.76,-95.8168"/>
<polygon fill="black" stroke="black" points="6820.11,-93.5115 6815.27,-102.94 6824.93,-98.5827 6820.11,-93.5115"/>
<text text-anchor="middle" x="6856.5" y="-73.8" font-family="Times,serif" font-size="14.00">read</text>
</g>
<!-- 10.1.80.247:35290#ServerID_OuterContainerID -->
<g id="node19" class="node"><title>10.1.80.247:35290#ServerID_OuterContainerID</title>
<polygon fill="none" stroke="black" points="5519,-270 5183.52,-252 5519,-234 5854.48,-252 5519,-270"/>
<text text-anchor="middle" x="5519" y="-248.3" font-family="Times,serif" font-size="14.00">10.1.80.247:35290#ServerID_OuterContainerID</text>
</g>
<!-- 10.1.80.247:35290#ServerID_OuterContainerID&#45;&gt;1_fwatchdog#ServerID_e56b6537e2d5 -->
<g id="edge21" class="edge"><title>10.1.80.247:35290#ServerID_OuterContainerID&#45;&gt;1_fwatchdog#ServerID_e56b6537e2d5</title>
<path fill="none" stroke="black" d="M5647.97,-240.898C5712.77,-236.015 5792.52,-230.296 5864,-226 6170.91,-207.555 6251.91,-244.659 6555,-193 6619.22,-182.054 6690.54,-159.297 6738.21,-142.483"/>
<polygon fill="black" stroke="black" points="6739.47,-145.75 6747.71,-139.099 6737.12,-139.156 6739.47,-145.75"/>
<text text-anchor="middle" x="6519.5" y="-204.8" font-family="Times,serif" font-size="14.00">read</text>
</g>
<!-- 10.1.80.1:34325#ServerID_OuterContainerID&#45;&gt;10.1.80.247:8080#ServerID_OuterContainerID -->
<g id="edge24" class="edge"><title>10.1.80.1:34325#ServerID_OuterContainerID&#45;&gt;10.1.80.247:8080#ServerID_OuterContainerID</title>
<path fill="none" stroke="black" d="M4192.44,-138.165C4176.51,-152.704 4155.2,-175.631 4146,-201 4143.42,-208.112 4142.94,-216.165 4143.43,-223.698"/>
<polygon fill="black" stroke="black" points="4139.98,-224.338 4144.65,-233.848 4146.93,-223.501 4139.98,-224.338"/>
<text text-anchor="middle" x="4166" y="-204.8" font-family="Times,serif" font-size="14.00">POST</text>
</g>
</g>
</svg>
