<?xml version="1.0" encoding="UTF-8" standalone="no"?>
<!DOCTYPE svg PUBLIC "-//W3C//DTD SVG 1.1//EN"
 "http://www.w3.org/Graphics/SVG/1.1/DTD/svg11.dtd">
<!-- Generated by graphviz version 2.38.0 (20140413.2041)
 -->
<!-- Title: G Pages: 1 -->
<svg width="6422pt" height="576pt"
 viewBox="0.00 0.00 6422.00 576.00" xmlns="http://www.w3.org/2000/svg" xmlns:xlink="http://www.w3.org/1999/xlink">
<g id="graph0" class="graph" transform="scale(1 1) rotate(0) translate(4 572)">
<title>G</title>
<polygon fill="white" stroke="none" points="-4,4 -4,-572 6418,-572 6418,4 -4,4"/>
<g id="clust1" class="cluster"><title>clusterServerID_34e86192c217</title>
<polygon fill="none" stroke="black" points="4741,-8 4741,-344 5331,-344 5331,-8 4741,-8"/>
<text text-anchor="middle" x="5036" y="-328.8" font-family="Times,serif" font-size="14.00">clusterServerID_34e86192c217</text>
</g>
<g id="clust2" class="cluster"><title>clusterServerID_5f846fd567&#45;w7nbt</title>
<polygon fill="none" stroke="black" points="5468,-269 5468,-344 5808,-344 5808,-269 5468,-269"/>
<text text-anchor="middle" x="5638" y="-328.8" font-family="Times,serif" font-size="14.00">clusterServerID_5f846fd567&#45;w7nbt</text>
</g>
<g id="clust3" class="cluster"><title>clusterServerID_6df85d7674&#45;2kqrj</title>
<polygon fill="none" stroke="black" points="1543,-485 1543,-560 1881,-560 1881,-485 1543,-485"/>
<text text-anchor="middle" x="1712" y="-544.8" font-family="Times,serif" font-size="14.00">clusterServerID_6df85d7674&#45;2kqrj</text>
</g>
<g id="clust4" class="cluster"><title>clusterServerID_OuterContainerID</title>
<polygon fill="none" stroke="black" points="8,-269 8,-452 4733,-452 4733,-269 8,-269"/>
<text text-anchor="middle" x="2370.5" y="-436.8" font-family="Times,serif" font-size="14.00">clusterServerID_OuterContainerID</text>
</g>
<g id="clust5" class="cluster"><title>clusterServerID_e56b6537e2d5</title>
<polygon fill="none" stroke="black" points="5816,-8 5816,-344 6406,-344 6406,-8 5816,-8"/>
<text text-anchor="middle" x="6111" y="-328.8" font-family="Times,serif" font-size="14.00">clusterServerID_e56b6537e2d5</text>
</g>
<!-- 10.1.80.247:33134#ServerID_OuterContainerID -->
<g id="node1" class="node"><title>10.1.80.247:33134#ServerID_OuterContainerID</title>
<polygon fill="none" stroke="black" points="1713,-421 1377.52,-403 1713,-385 2048.48,-403 1713,-421"/>
<text text-anchor="middle" x="1713" y="-399.3" font-family="Times,serif" font-size="14.00">10.1.80.247:33134#ServerID_OuterContainerID</text>
</g>
<!-- 1_fwatchdog#ServerID_6df85d7674&#45;2kqrj -->
<g id="node2" class="node"><title>1_fwatchdog#ServerID_6df85d7674&#45;2kqrj</title>
<polygon fill="none" stroke="black" points="1872.5,-529 1551.5,-529 1551.5,-493 1872.5,-493 1872.5,-529"/>
<text text-anchor="middle" x="1712" y="-507.3" font-family="Times,serif" font-size="14.00">1_fwatchdog#ServerID_6df85d7674&#45;2kqrj</text>
</g>
<!-- 10.1.80.247:33134#ServerID_OuterContainerID&#45;&gt;1_fwatchdog#ServerID_6df85d7674&#45;2kqrj -->
<g id="edge1" class="edge"><title>10.1.80.247:33134#ServerID_OuterContainerID&#45;&gt;1_fwatchdog#ServerID_6df85d7674&#45;2kqrj</title>
<path fill="none" stroke="black" d="M1700.81,-420.692C1693.8,-431.353 1685.67,-445.798 1682,-460 1680.33,-466.455 1679.69,-468.747 1682,-475 1683.23,-478.328 1684.94,-481.554 1686.91,-484.612"/>
<polygon fill="black" stroke="black" points="1684.22,-486.86 1693.04,-492.736 1689.81,-482.644 1684.22,-486.86"/>
<text text-anchor="middle" x="1702" y="-463.8" font-family="Times,serif" font-size="14.00">POST</text>
</g>
<!-- 1_fwatchdog#ServerID_34e86192c217 -->
<g id="node7" class="node"><title>1_fwatchdog#ServerID_34e86192c217</title>
<polygon fill="none" stroke="black" points="5068.5,-313 4769.5,-313 4769.5,-277 5068.5,-277 5068.5,-313"/>
<text text-anchor="middle" x="4919" y="-291.3" font-family="Times,serif" font-size="14.00">1_fwatchdog#ServerID_34e86192c217</text>
</g>
<!-- 10.1.80.247:33134#ServerID_OuterContainerID&#45;&gt;1_fwatchdog#ServerID_34e86192c217 -->
<g id="edge11" class="edge"><title>10.1.80.247:33134#ServerID_OuterContainerID&#45;&gt;1_fwatchdog#ServerID_34e86192c217</title>
<path fill="none" stroke="black" d="M1867.52,-393.266C1927.04,-390.195 1995.67,-387.012 2058,-385 2355.55,-375.395 4442.07,-384.535 4737,-344 4778.13,-338.347 4823.27,-326.482 4858.3,-315.963"/>
<polygon fill="black" stroke="black" points="4859.35,-319.301 4867.9,-313.038 4857.31,-312.604 4859.35,-319.301"/>
<text text-anchor="middle" x="4650.5" y="-355.8" font-family="Times,serif" font-size="14.00">read</text>
</g>
<!-- 1_fwatchdog#ServerID_6df85d7674&#45;2kqrj&#45;&gt;10.1.80.247:33134#ServerID_OuterContainerID -->
<g id="edge3" class="edge"><title>1_fwatchdog#ServerID_6df85d7674&#45;2kqrj&#45;&gt;10.1.80.247:33134#ServerID_OuterContainerID</title>
<path fill="none" stroke="black" d="M1717.96,-492.759C1719.61,-487.165 1721.18,-480.883 1722,-475 1724.04,-460.436 1722.27,-444.162 1719.78,-430.873"/>
<polygon fill="black" stroke="black" points="1723.17,-430.006 1717.68,-420.944 1716.32,-431.452 1723.17,-430.006"/>
<text text-anchor="middle" x="1765" y="-463.8" font-family="Times,serif" font-size="14.00">RESPONSE</text>
</g>
<!-- gateway:8080#ServerID_OuterContainerID -->
<g id="node5" class="node"><title>gateway:8080#ServerID_OuterContainerID</title>
<polygon fill="none" stroke="black" points="3043,-421 2738.52,-403 3043,-385 3347.48,-403 3043,-421"/>
<text text-anchor="middle" x="3043" y="-399.3" font-family="Times,serif" font-size="14.00">gateway:8080#ServerID_OuterContainerID</text>
</g>
<!-- 1_fwatchdog#ServerID_6df85d7674&#45;2kqrj&#45;&gt;gateway:8080#ServerID_OuterContainerID -->
<g id="edge7" class="edge"><title>1_fwatchdog#ServerID_6df85d7674&#45;2kqrj&#45;&gt;gateway:8080#ServerID_OuterContainerID</title>
<path fill="none" stroke="black" d="M1872.53,-497.631C2024.72,-486.307 2259.79,-469.856 2464,-460 2582.14,-454.298 2612.21,-462.762 2730,-452 2810.29,-444.664 2901.31,-429.98 2964.41,-418.775"/>
<polygon fill="black" stroke="black" points="2965.07,-422.214 2974.3,-417.009 2963.84,-415.323 2965.07,-422.214"/>
<text text-anchor="middle" x="2484" y="-463.8" font-family="Times,serif" font-size="14.00">POST</text>
</g>
<!-- 10.1.80.247:8080#ServerID_OuterContainerID -->
<g id="node6" class="node"><title>10.1.80.247:8080#ServerID_OuterContainerID</title>
<polygon fill="none" stroke="black" points="343,-421 15.5599,-403 343,-385 670.44,-403 343,-421"/>
<text text-anchor="middle" x="343" y="-399.3" font-family="Times,serif" font-size="14.00">10.1.80.247:8080#ServerID_OuterContainerID</text>
</g>
<!-- 1_fwatchdog#ServerID_6df85d7674&#45;2kqrj&#45;&gt;10.1.80.247:8080#ServerID_OuterContainerID -->
<g id="edge8" class="edge"><title>1_fwatchdog#ServerID_6df85d7674&#45;2kqrj&#45;&gt;10.1.80.247:8080#ServerID_OuterContainerID</title>
<path fill="none" stroke="black" d="M1551.19,-510.89C1359.43,-510.399 1029.47,-504.64 748,-475 630.561,-462.633 495.785,-436.602 415.117,-419.73"/>
<polygon fill="black" stroke="black" points="415.575,-416.25 405.069,-417.617 414.134,-423.1 415.575,-416.25"/>
<text text-anchor="middle" x="768" y="-463.8" font-family="Times,serif" font-size="14.00">POST</text>
</g>
<!-- 10.1.80.247:35138#ServerID_OuterContainerID -->
<g id="node3" class="node"><title>10.1.80.247:35138#ServerID_OuterContainerID</title>
<polygon fill="none" stroke="black" points="3701,-421 3365.52,-403 3701,-385 4036.48,-403 3701,-421"/>
<text text-anchor="middle" x="3701" y="-399.3" font-family="Times,serif" font-size="14.00">10.1.80.247:35138#ServerID_OuterContainerID</text>
</g>
<!-- 1_fwatchdog#ServerID_5f846fd567&#45;w7nbt -->
<g id="node4" class="node"><title>1_fwatchdog#ServerID_5f846fd567&#45;w7nbt</title>
<polygon fill="none" stroke="black" points="5800,-313 5476,-313 5476,-277 5800,-277 5800,-313"/>
<text text-anchor="middle" x="5638" y="-291.3" font-family="Times,serif" font-size="14.00">1_fwatchdog#ServerID_5f846fd567&#45;w7nbt</text>
</g>
<!-- 10.1.80.247:35138#ServerID_OuterContainerID&#45;&gt;1_fwatchdog#ServerID_5f846fd567&#45;w7nbt -->
<g id="edge2" class="edge"><title>10.1.80.247:35138#ServerID_OuterContainerID&#45;&gt;1_fwatchdog#ServerID_5f846fd567&#45;w7nbt</title>
<path fill="none" stroke="black" d="M3854.66,-393.225C3914.38,-390.13 3983.36,-386.941 4046,-385 4124.64,-382.564 5384.87,-382.482 5462,-367 5510.13,-357.34 5561.85,-334.875 5596.68,-317.782"/>
<polygon fill="black" stroke="black" points="5598.65,-320.711 5606.04,-313.118 5595.53,-314.445 5598.65,-320.711"/>
<text text-anchor="middle" x="5533" y="-355.8" font-family="Times,serif" font-size="14.00">POST</text>
</g>
<!-- 1_fwatchdog#ServerID_5f846fd567&#45;w7nbt&#45;&gt;10.1.80.247:35138#ServerID_OuterContainerID -->
<g id="edge4" class="edge"><title>1_fwatchdog#ServerID_5f846fd567&#45;w7nbt&#45;&gt;10.1.80.247:35138#ServerID_OuterContainerID</title>
<path fill="none" stroke="black" d="M5624.7,-313.305C5610.21,-330.61 5585.29,-356.164 5557,-367 5517.8,-382.015 4087.96,-383.717 4046,-385 3986.77,-386.811 3921.86,-389.757 3864.48,-392.692"/>
<polygon fill="black" stroke="black" points="3864.04,-389.21 3854.23,-393.22 3864.4,-396.201 3864.04,-389.21"/>
<text text-anchor="middle" x="5625" y="-355.8" font-family="Times,serif" font-size="14.00">RESPONSE</text>
</g>
<!-- gateway:8080#ServerID_OuterContainerID&#45;&gt;1_fwatchdog#ServerID_6df85d7674&#45;2kqrj -->
<g id="edge5" class="edge"><title>gateway:8080#ServerID_OuterContainerID&#45;&gt;1_fwatchdog#ServerID_6df85d7674&#45;2kqrj</title>
<path fill="none" stroke="black" d="M2969.19,-416.646C2905.87,-427.175 2812.13,-442.008 2730,-452 2433.42,-488.081 2085.42,-501.797 1882.71,-506.955"/>
<polygon fill="black" stroke="black" points="1882.48,-503.459 1872.57,-507.209 1882.66,-510.457 1882.48,-503.459"/>
<text text-anchor="middle" x="2690" y="-463.8" font-family="Times,serif" font-size="14.00">RESPONSE</text>
</g>
<!-- 10_node#ServerID_34e86192c217 -->
<g id="node9" class="node"><title>10_node#ServerID_34e86192c217</title>
<polygon fill="none" stroke="black" points="5322.5,-139 5055.5,-139 5055.5,-103 5322.5,-103 5322.5,-139"/>
<text text-anchor="middle" x="5189" y="-117.3" font-family="Times,serif" font-size="14.00">10_node#ServerID_34e86192c217</text>
</g>
<!-- gateway:8080#ServerID_OuterContainerID&#45;&gt;10_node#ServerID_34e86192c217 -->
<g id="edge22" class="edge"><title>gateway:8080#ServerID_OuterContainerID&#45;&gt;10_node#ServerID_34e86192c217</title>
<path fill="none" stroke="black" d="M3181.28,-393.168C3235.99,-390.026 3299.43,-386.819 3357,-385 3411.95,-383.264 5284.17,-385.323 5336,-367 5377.09,-352.473 5429.6,-268.699 5433,-259 5448.12,-215.89 5414.17,-178.965 5383,-157 5373.31,-150.174 5354.67,-144.48 5332.63,-139.805"/>
<polygon fill="black" stroke="black" points="5333.13,-136.336 5322.63,-137.796 5331.75,-143.198 5333.13,-136.336"/>
<text text-anchor="middle" x="5453.5" y="-247.8" font-family="Times,serif" font-size="14.00">read</text>
</g>
<!-- 10.1.80.247:8080#ServerID_OuterContainerID&#45;&gt;1_fwatchdog#ServerID_6df85d7674&#45;2kqrj -->
<g id="edge6" class="edge"><title>10.1.80.247:8080#ServerID_OuterContainerID&#45;&gt;1_fwatchdog#ServerID_6df85d7674&#45;2kqrj</title>
<path fill="none" stroke="black" d="M419.735,-416.834C487.894,-427.778 590.316,-443.109 680,-452 982.268,-481.965 1335.99,-497.661 1540.98,-504.857"/>
<polygon fill="black" stroke="black" points="1541.12,-508.364 1551.23,-505.214 1541.36,-501.368 1541.12,-508.364"/>
<text text-anchor="middle" x="977" y="-463.8" font-family="Times,serif" font-size="14.00">RESPONSE</text>
</g>
<!-- 10.1.80.1:36834#ServerID_OuterContainerID -->
<g id="node18" class="node"><title>10.1.80.1:36834#ServerID_OuterContainerID</title>
<polygon fill="none" stroke="black" points="1023,-313 704.105,-295 1023,-277 1341.9,-295 1023,-313"/>
<text text-anchor="middle" x="1023" y="-291.3" font-family="Times,serif" font-size="14.00">10.1.80.1:36834#ServerID_OuterContainerID</text>
</g>
<!-- 10.1.80.247:8080#ServerID_OuterContainerID&#45;&gt;10.1.80.1:36834#ServerID_OuterContainerID -->
<g id="edge25" class="edge"><title>10.1.80.247:8080#ServerID_OuterContainerID&#45;&gt;10.1.80.1:36834#ServerID_OuterContainerID</title>
<path fill="none" stroke="black" d="M483.096,-392.65C550.965,-387.073 633.495,-378.744 707,-367 795.676,-352.832 896.695,-328.709 960.145,-312.566"/>
<polygon fill="black" stroke="black" points="961.177,-315.914 969.998,-310.046 959.442,-309.133 961.177,-315.914"/>
<text text-anchor="middle" x="828" y="-355.8" font-family="Times,serif" font-size="14.00">RESPONSE</text>
</g>
<!-- 10.0.88.125:31112#ServerID_OuterContainerID -->
<g id="node19" class="node"><title>10.0.88.125:31112#ServerID_OuterContainerID</title>
<polygon fill="none" stroke="black" points="351,-313 15.5152,-295 351,-277 686.485,-295 351,-313"/>
<text text-anchor="middle" x="351" y="-291.3" font-family="Times,serif" font-size="14.00">10.0.88.125:31112#ServerID_OuterContainerID</text>
</g>
<!-- 10.1.80.247:8080#ServerID_OuterContainerID&#45;&gt;10.0.88.125:31112#ServerID_OuterContainerID -->
<g id="edge26" class="edge"><title>10.1.80.247:8080#ServerID_OuterContainerID&#45;&gt;10.0.88.125:31112#ServerID_OuterContainerID</title>
<path fill="none" stroke="black" d="M344.285,-384.969C345.545,-368.279 347.485,-342.579 348.956,-323.084"/>
<polygon fill="black" stroke="black" points="352.455,-323.224 349.718,-312.988 345.475,-322.697 352.455,-323.224"/>
<text text-anchor="middle" x="389" y="-355.8" font-family="Times,serif" font-size="14.00">RESPONSE</text>
</g>
<!-- localhost:3000#ServerID_34e86192c217 -->
<g id="node8" class="node"><title>localhost:3000#ServerID_34e86192c217</title>
<polygon fill="none" stroke="black" points="5036,-226 4749.45,-208 5036,-190 5322.55,-208 5036,-226"/>
<text text-anchor="middle" x="5036" y="-204.3" font-family="Times,serif" font-size="14.00">localhost:3000#ServerID_34e86192c217</text>
</g>
<!-- 1_fwatchdog#ServerID_34e86192c217&#45;&gt;localhost:3000#ServerID_34e86192c217 -->
<g id="edge9" class="edge"><title>1_fwatchdog#ServerID_34e86192c217&#45;&gt;localhost:3000#ServerID_34e86192c217</title>
<path fill="none" stroke="black" d="M4986.79,-276.799C4996.71,-272.176 5006.19,-266.345 5014,-259 5020.75,-252.65 5025.56,-243.859 5028.92,-235.417"/>
<polygon fill="black" stroke="black" points="5032.27,-236.43 5032.22,-225.835 5025.65,-234.145 5032.27,-236.43"/>
<text text-anchor="middle" x="5054" y="-247.8" font-family="Times,serif" font-size="14.00">connect</text>
</g>
<!-- 1_fwatchdog#ServerID_34e86192c217&#45;&gt;localhost:3000#ServerID_34e86192c217 -->
<g id="edge10" class="edge"><title>1_fwatchdog#ServerID_34e86192c217&#45;&gt;localhost:3000#ServerID_34e86192c217</title>
<path fill="none" stroke="black" d="M4914.6,-276.599C4913.02,-266.139 4913.07,-253.131 4920,-244 4925.94,-236.163 4933.59,-230.022 4942.11,-225.217"/>
<polygon fill="black" stroke="black" points="4943.86,-228.253 4951.27,-220.68 4940.76,-221.98 4943.86,-228.253"/>
<text text-anchor="middle" x="4939" y="-247.8" font-family="Times,serif" font-size="14.00">write</text>
</g>
<!-- localhost:3000#ServerID_34e86192c217&#45;&gt;1_fwatchdog#ServerID_34e86192c217 -->
<g id="edge12" class="edge"><title>localhost:3000#ServerID_34e86192c217&#45;&gt;1_fwatchdog#ServerID_34e86192c217</title>
<path fill="none" stroke="black" d="M5007.75,-224.405C4997.79,-230.185 4986.67,-237.047 4977,-244 4970.63,-248.584 4957.78,-259.584 4945.8,-270.102"/>
<polygon fill="black" stroke="black" points="4943.31,-267.632 4938.13,-276.872 4947.94,-272.881 4943.31,-267.632"/>
<text text-anchor="middle" x="4993.5" y="-247.8" font-family="Times,serif" font-size="14.00">read</text>
</g>
<!-- localhost:3000#ServerID_34e86192c217&#45;&gt;10_node#ServerID_34e86192c217 -->
<g id="edge20" class="edge"><title>localhost:3000#ServerID_34e86192c217&#45;&gt;10_node#ServerID_34e86192c217</title>
<path fill="none" stroke="black" d="M5063.71,-191.607C5087.69,-178.283 5122.66,-158.857 5149.56,-143.911"/>
<polygon fill="black" stroke="black" points="5151.31,-146.945 5158.35,-139.029 5147.91,-140.826 5151.31,-146.945"/>
<text text-anchor="middle" x="5138.5" y="-160.8" font-family="Times,serif" font-size="14.00">read</text>
</g>
<!-- 10_node#ServerID_34e86192c217&#45;&gt;gateway:8080#ServerID_OuterContainerID -->
<g id="edge15" class="edge"><title>10_node#ServerID_34e86192c217&#45;&gt;gateway:8080#ServerID_OuterContainerID</title>
<path fill="none" stroke="black" d="M5322.89,-137.676C5342.34,-142.527 5358.14,-148.83 5365,-157 5395.89,-193.769 5354.64,-341.414 5314,-367 5291,-381.482 3384.17,-384.14 3357,-385 3302.92,-386.712 3243.65,-389.646 3191.31,-392.6"/>
<polygon fill="black" stroke="black" points="3191.07,-389.108 3181.28,-393.171 3191.46,-396.097 3191.07,-389.108"/>
<text text-anchor="middle" x="5400" y="-247.8" font-family="Times,serif" font-size="14.00">connect</text>
</g>
<!-- pipe:[331683264]#ServerID_34e86192c217 -->
<g id="node10" class="node"><title>pipe:[331683264]#ServerID_34e86192c217</title>
<ellipse fill="none" stroke="black" cx="5106" cy="-34" rx="217.162" ry="18"/>
<text text-anchor="middle" x="5106" y="-30.3" font-family="Times,serif" font-size="14.00">pipe:[331683264]#ServerID_34e86192c217</text>
</g>
<!-- 10_node#ServerID_34e86192c217&#45;&gt;pipe:[331683264]#ServerID_34e86192c217 -->
<g id="edge13" class="edge"><title>10_node#ServerID_34e86192c217&#45;&gt;pipe:[331683264]#ServerID_34e86192c217</title>
<path fill="none" stroke="black" d="M5172.2,-102.799C5160.05,-90.3561 5143.46,-73.3644 5129.93,-59.5044"/>
<polygon fill="black" stroke="black" points="5132.26,-56.885 5122.77,-52.1754 5127.25,-61.7755 5132.26,-56.885"/>
<text text-anchor="middle" x="5172" y="-73.8" font-family="Times,serif" font-size="14.00">write</text>
</g>
<!-- 10.1.80.247:35114#ServerID_OuterContainerID -->
<g id="node11" class="node"><title>10.1.80.247:35114#ServerID_OuterContainerID</title>
<polygon fill="none" stroke="black" points="4390,-421 4054.52,-403 4390,-385 4725.48,-403 4390,-421"/>
<text text-anchor="middle" x="4390" y="-399.3" font-family="Times,serif" font-size="14.00">10.1.80.247:35114#ServerID_OuterContainerID</text>
</g>
<!-- 1_fwatchdog#ServerID_e56b6537e2d5 -->
<g id="node12" class="node"><title>1_fwatchdog#ServerID_e56b6537e2d5</title>
<polygon fill="none" stroke="black" points="6179.5,-313 5880.5,-313 5880.5,-277 6179.5,-277 6179.5,-313"/>
<text text-anchor="middle" x="6030" y="-291.3" font-family="Times,serif" font-size="14.00">1_fwatchdog#ServerID_e56b6537e2d5</text>
</g>
<!-- 10.1.80.247:35114#ServerID_OuterContainerID&#45;&gt;1_fwatchdog#ServerID_e56b6537e2d5 -->
<g id="edge14" class="edge"><title>10.1.80.247:35114#ServerID_OuterContainerID&#45;&gt;1_fwatchdog#ServerID_e56b6537e2d5</title>
<path fill="none" stroke="black" d="M4676.41,-400.358C5001.37,-397.433 5510.97,-389.336 5702,-367 5791.58,-356.526 5892.76,-332.757 5958.75,-315.602"/>
<polygon fill="black" stroke="black" points="5959.85,-318.934 5968.63,-313.015 5958.07,-312.163 5959.85,-318.934"/>
<text text-anchor="middle" x="5809.5" y="-355.8" font-family="Times,serif" font-size="14.00">read</text>
</g>
<!-- localhost:3000#ServerID_e56b6537e2d5 -->
<g id="node13" class="node"><title>localhost:3000#ServerID_e56b6537e2d5</title>
<polygon fill="none" stroke="black" points="6111,-226 5824.45,-208 6111,-190 6397.55,-208 6111,-226"/>
<text text-anchor="middle" x="6111" y="-204.3" font-family="Times,serif" font-size="14.00">localhost:3000#ServerID_e56b6537e2d5</text>
</g>
<!-- 1_fwatchdog#ServerID_e56b6537e2d5&#45;&gt;localhost:3000#ServerID_e56b6537e2d5 -->
<g id="edge16" class="edge"><title>1_fwatchdog#ServerID_e56b6537e2d5&#45;&gt;localhost:3000#ServerID_e56b6537e2d5</title>
<path fill="none" stroke="black" d="M6025.99,-276.878C6024.56,-266.524 6024.63,-253.528 6031,-244 6035.38,-237.442 6041.29,-232.104 6047.92,-227.761"/>
<polygon fill="black" stroke="black" points="6049.7,-230.776 6056.64,-222.775 6046.22,-224.699 6049.7,-230.776"/>
<text text-anchor="middle" x="6060" y="-247.8" font-family="Times,serif" font-size="14.00">connect</text>
</g>
<!-- localhost:3000#ServerID_e56b6537e2d5&#45;&gt;1_fwatchdog#ServerID_e56b6537e2d5 -->
<g id="edge17" class="edge"><title>localhost:3000#ServerID_e56b6537e2d5&#45;&gt;1_fwatchdog#ServerID_e56b6537e2d5</title>
<path fill="none" stroke="black" d="M6106.51,-225.762C6103.06,-236.234 6097.43,-249.487 6089,-259 6085.05,-263.455 6080.4,-267.504 6075.47,-271.136"/>
<polygon fill="black" stroke="black" points="6073.31,-268.366 6066.97,-276.853 6077.22,-274.173 6073.31,-268.366"/>
<text text-anchor="middle" x="6114.5" y="-247.8" font-family="Times,serif" font-size="14.00">read</text>
</g>
<!-- 12_node#ServerID_e56b6537e2d5 -->
<g id="node14" class="node"><title>12_node#ServerID_e56b6537e2d5</title>
<polygon fill="none" stroke="black" points="6244.5,-139 5977.5,-139 5977.5,-103 6244.5,-103 6244.5,-139"/>
<text text-anchor="middle" x="6111" y="-117.3" font-family="Times,serif" font-size="14.00">12_node#ServerID_e56b6537e2d5</text>
</g>
<!-- localhost:3000#ServerID_e56b6537e2d5&#45;&gt;12_node#ServerID_e56b6537e2d5 -->
<g id="edge18" class="edge"><title>localhost:3000#ServerID_e56b6537e2d5&#45;&gt;12_node#ServerID_e56b6537e2d5</title>
<path fill="none" stroke="black" d="M6111,-189.799C6111,-178.163 6111,-162.548 6111,-149.237"/>
<polygon fill="black" stroke="black" points="6114.5,-149.175 6111,-139.175 6107.5,-149.175 6114.5,-149.175"/>
<text text-anchor="middle" x="6127.5" y="-160.8" font-family="Times,serif" font-size="14.00">read</text>
</g>
<!-- pipe:[331682415]#ServerID_e56b6537e2d5 -->
<g id="node16" class="node"><title>pipe:[331682415]#ServerID_e56b6537e2d5</title>
<ellipse fill="none" stroke="black" cx="6111" cy="-34" rx="217.162" ry="18"/>
<text text-anchor="middle" x="6111" y="-30.3" font-family="Times,serif" font-size="14.00">pipe:[331682415]#ServerID_e56b6537e2d5</text>
</g>
<!-- 12_node#ServerID_e56b6537e2d5&#45;&gt;pipe:[331682415]#ServerID_e56b6537e2d5 -->
<g id="edge21" class="edge"><title>12_node#ServerID_e56b6537e2d5&#45;&gt;pipe:[331682415]#ServerID_e56b6537e2d5</title>
<path fill="none" stroke="black" d="M6111,-102.799C6111,-91.1626 6111,-75.5479 6111,-62.2368"/>
<polygon fill="black" stroke="black" points="6114.5,-62.1754 6111,-52.1754 6107.5,-62.1755 6114.5,-62.1754"/>
<text text-anchor="middle" x="6130" y="-73.8" font-family="Times,serif" font-size="14.00">write</text>
</g>
<!-- 10.1.80.247:33194#ServerID_OuterContainerID -->
<g id="node15" class="node"><title>10.1.80.247:33194#ServerID_OuterContainerID</title>
<polygon fill="none" stroke="black" points="1024,-421 688.515,-403 1024,-385 1359.48,-403 1024,-421"/>
<text text-anchor="middle" x="1024" y="-399.3" font-family="Times,serif" font-size="14.00">10.1.80.247:33194#ServerID_OuterContainerID</text>
</g>
<!-- 10.1.80.247:33194#ServerID_OuterContainerID&#45;&gt;1_fwatchdog#ServerID_34e86192c217 -->
<g id="edge19" class="edge"><title>10.1.80.247:33194#ServerID_OuterContainerID&#45;&gt;1_fwatchdog#ServerID_34e86192c217</title>
<path fill="none" stroke="black" d="M1177.66,-393.207C1237.38,-390.11 1306.36,-386.924 1369,-385 1380.69,-384.641 4725.41,-345.574 4737,-344 4778.14,-338.411 4823.27,-326.547 4858.3,-316.012"/>
<polygon fill="black" stroke="black" points="4859.36,-319.349 4867.91,-313.083 4857.32,-312.654 4859.36,-319.349"/>
<text text-anchor="middle" x="4106.5" y="-355.8" font-family="Times,serif" font-size="14.00">read</text>
</g>
<!-- 10.152.183.10:53#ServerID_OuterContainerID -->
<g id="node17" class="node"><title>10.152.183.10:53#ServerID_OuterContainerID</title>
<polygon fill="none" stroke="black" points="2394,-421 2066.56,-403 2394,-385 2721.44,-403 2394,-421"/>
<text text-anchor="middle" x="2394" y="-399.3" font-family="Times,serif" font-size="14.00">10.152.183.10:53#ServerID_OuterContainerID</text>
</g>
<!-- 10.152.183.10:53#ServerID_OuterContainerID&#45;&gt;10_node#ServerID_34e86192c217 -->
<g id="edge23" class="edge"><title>10.152.183.10:53#ServerID_OuterContainerID&#45;&gt;10_node#ServerID_34e86192c217</title>
<path fill="none" stroke="black" d="M2542.81,-393.148C2601.16,-390.024 2668.7,-386.834 2730,-385 3592.32,-359.198 3808.76,-395.405 4671,-367 4851.64,-361.049 4901.66,-387.837 5077,-344 5084.57,-342.107 5327.8,-232.576 5332,-226 5355.97,-188.492 5306.9,-160.107 5259.85,-142.544"/>
<polygon fill="black" stroke="black" points="5260.77,-139.157 5250.18,-139.069 5258.41,-145.744 5260.77,-139.157"/>
<text text-anchor="middle" x="5330" y="-247.8" font-family="Times,serif" font-size="14.00">recvfrom</text>
</g>
<!-- 10.1.80.1:36834#ServerID_OuterContainerID&#45;&gt;10.1.80.247:8080#ServerID_OuterContainerID -->
<g id="edge24" class="edge"><title>10.1.80.1:36834#ServerID_OuterContainerID&#45;&gt;10.1.80.247:8080#ServerID_OuterContainerID</title>
<path fill="none" stroke="black" d="M942.693,-308.518C815.29,-328.378 567.621,-366.985 433.891,-387.832"/>
<polygon fill="black" stroke="black" points="433.017,-384.426 423.675,-389.424 434.095,-391.342 433.017,-384.426"/>
<text text-anchor="middle" x="683" y="-355.8" font-family="Times,serif" font-size="14.00">POST</text>
</g>
</g>
</svg>
