<?xml version="1.0" encoding="UTF-8" standalone="no"?>
<!DOCTYPE svg PUBLIC "-//W3C//DTD SVG 1.1//EN"
 "http://www.w3.org/Graphics/SVG/1.1/DTD/svg11.dtd">
<!-- Generated by graphviz version 2.38.0 (20140413.2041)
 -->
<!-- Title: G Pages: 1 -->
<svg width="5578pt" height="402pt"
 viewBox="0.00 0.00 5578.00 402.00" xmlns="http://www.w3.org/2000/svg" xmlns:xlink="http://www.w3.org/1999/xlink">
<g id="graph0" class="graph" transform="scale(1 1) rotate(0) translate(4 398)">
<title>G</title>
<polygon fill="white" stroke="none" points="-4,4 -4,-398 5574,-398 5574,4 -4,4"/>
<g id="clust1" class="cluster"><title>clusterServerID_34e86192c217</title>
<polygon fill="none" stroke="black" points="4068,-203 4068,-386 5110,-386 5110,-203 4068,-203"/>
<text text-anchor="middle" x="4589" y="-370.8" font-family="Times,serif" font-size="14.00">clusterServerID_34e86192c217</text>
</g>
<g id="clust2" class="cluster"><title>clusterServerID_5f846fd567&#45;w7nbt</title>
<polygon fill="none" stroke="black" points="2168,-311 2168,-386 2508,-386 2508,-311 2168,-311"/>
<text text-anchor="middle" x="2338" y="-370.8" font-family="Times,serif" font-size="14.00">clusterServerID_5f846fd567&#45;w7nbt</text>
</g>
<g id="clust3" class="cluster"><title>clusterServerID_6df85d7674&#45;2kqrj</title>
<polygon fill="none" stroke="black" points="823,-311 823,-386 1161,-386 1161,-311 823,-311"/>
<text text-anchor="middle" x="992" y="-370.8" font-family="Times,serif" font-size="14.00">clusterServerID_6df85d7674&#45;2kqrj</text>
</g>
<g id="clust4" class="cluster"><title>clusterServerID_OuterContainerID</title>
<polygon fill="none" stroke="black" points="8,-95 8,-278 4060,-278 4060,-95 8,-95"/>
<text text-anchor="middle" x="2034" y="-262.8" font-family="Times,serif" font-size="14.00">clusterServerID_OuterContainerID</text>
</g>
<g id="clust5" class="cluster"><title>clusterServerID_e56b6537e2d5</title>
<polygon fill="none" stroke="black" points="4068,-8 4068,-170 5562,-170 5562,-8 4068,-8"/>
<text text-anchor="middle" x="4815" y="-154.8" font-family="Times,serif" font-size="14.00">clusterServerID_e56b6537e2d5</text>
</g>
<!-- 1_fwatchdog#ServerID_6df85d7674&#45;2kqrj -->
<g id="node1" class="node"><title>1_fwatchdog#ServerID_6df85d7674&#45;2kqrj</title>
<polygon fill="none" stroke="black" points="1152.5,-355 831.5,-355 831.5,-319 1152.5,-319 1152.5,-355"/>
<text text-anchor="middle" x="992" y="-333.3" font-family="Times,serif" font-size="14.00">1_fwatchdog#ServerID_6df85d7674&#45;2kqrj</text>
</g>
<!-- gateway:8080#ServerID_OuterContainerID -->
<g id="node2" class="node"><title>gateway:8080#ServerID_OuterContainerID</title>
<polygon fill="none" stroke="black" points="992,-247 687.518,-229 992,-211 1296.48,-229 992,-247"/>
<text text-anchor="middle" x="992" y="-225.3" font-family="Times,serif" font-size="14.00">gateway:8080#ServerID_OuterContainerID</text>
</g>
<!-- 1_fwatchdog#ServerID_6df85d7674&#45;2kqrj&#45;&gt;gateway:8080#ServerID_OuterContainerID -->
<g id="edge1" class="edge"><title>1_fwatchdog#ServerID_6df85d7674&#45;2kqrj&#45;&gt;gateway:8080#ServerID_OuterContainerID</title>
<path fill="none" stroke="black" d="M973.041,-318.736C968.557,-313.523 964.388,-307.455 962,-301 956.211,-285.351 963.178,-268.103 971.849,-254.526"/>
<polygon fill="black" stroke="black" points="974.816,-256.389 977.675,-246.187 969.078,-252.38 974.816,-256.389"/>
<text text-anchor="middle" x="982" y="-289.8" font-family="Times,serif" font-size="14.00">POST</text>
</g>
<!-- 10.1.80.247:8080#ServerID_OuterContainerID -->
<g id="node5" class="node"><title>10.1.80.247:8080#ServerID_OuterContainerID</title>
<polygon fill="none" stroke="black" points="343,-247 15.5599,-229 343,-211 670.44,-229 343,-247"/>
<text text-anchor="middle" x="343" y="-225.3" font-family="Times,serif" font-size="14.00">10.1.80.247:8080#ServerID_OuterContainerID</text>
</g>
<!-- 1_fwatchdog#ServerID_6df85d7674&#45;2kqrj&#45;&gt;10.1.80.247:8080#ServerID_OuterContainerID -->
<g id="edge3" class="edge"><title>1_fwatchdog#ServerID_6df85d7674&#45;2kqrj&#45;&gt;10.1.80.247:8080#ServerID_OuterContainerID</title>
<path fill="none" stroke="black" d="M887.727,-318.969C761.168,-298.299 549.988,-263.807 431.169,-244.401"/>
<polygon fill="black" stroke="black" points="431.453,-240.901 421.02,-242.743 430.325,-247.809 431.453,-240.901"/>
<text text-anchor="middle" x="784" y="-289.8" font-family="Times,serif" font-size="14.00">POST</text>
</g>
<!-- 10.1.80.247:33214#ServerID_OuterContainerID -->
<g id="node6" class="node"><title>10.1.80.247:33214#ServerID_OuterContainerID</title>
<polygon fill="none" stroke="black" points="1650,-247 1314.52,-229 1650,-211 1985.48,-229 1650,-247"/>
<text text-anchor="middle" x="1650" y="-225.3" font-family="Times,serif" font-size="14.00">10.1.80.247:33214#ServerID_OuterContainerID</text>
</g>
<!-- 1_fwatchdog#ServerID_6df85d7674&#45;2kqrj&#45;&gt;10.1.80.247:33214#ServerID_OuterContainerID -->
<g id="edge6" class="edge"><title>1_fwatchdog#ServerID_6df85d7674&#45;2kqrj&#45;&gt;10.1.80.247:33214#ServerID_OuterContainerID</title>
<path fill="none" stroke="black" d="M1097.72,-318.969C1225.99,-298.306 1439.98,-263.833 1560.47,-244.422"/>
<polygon fill="black" stroke="black" points="1561.09,-247.867 1570.41,-242.822 1559.98,-240.957 1561.09,-247.867"/>
<text text-anchor="middle" x="1344" y="-289.8" font-family="Times,serif" font-size="14.00">RESPONSE</text>
</g>
<!-- gateway:8080#ServerID_OuterContainerID&#45;&gt;1_fwatchdog#ServerID_6df85d7674&#45;2kqrj -->
<g id="edge5" class="edge"><title>gateway:8080#ServerID_OuterContainerID&#45;&gt;1_fwatchdog#ServerID_6df85d7674&#45;2kqrj</title>
<path fill="none" stroke="black" d="M997.056,-246.927C1000.71,-261.311 1004.59,-282.508 1002,-301 1001.64,-303.574 1001.14,-306.224 1000.55,-308.859"/>
<polygon fill="black" stroke="black" points="997.102,-308.198 997.955,-318.759 1003.87,-309.971 997.102,-308.198"/>
<text text-anchor="middle" x="1045" y="-289.8" font-family="Times,serif" font-size="14.00">RESPONSE</text>
</g>
<!-- 1_fwatchdog#ServerID_5f846fd567&#45;w7nbt -->
<g id="node3" class="node"><title>1_fwatchdog#ServerID_5f846fd567&#45;w7nbt</title>
<polygon fill="none" stroke="black" points="2500,-355 2176,-355 2176,-319 2500,-319 2500,-355"/>
<text text-anchor="middle" x="2338" y="-333.3" font-family="Times,serif" font-size="14.00">1_fwatchdog#ServerID_5f846fd567&#45;w7nbt</text>
</g>
<!-- 10.1.80.247:35158#ServerID_OuterContainerID -->
<g id="node4" class="node"><title>10.1.80.247:35158#ServerID_OuterContainerID</title>
<polygon fill="none" stroke="black" points="2339,-247 2003.52,-229 2339,-211 2674.48,-229 2339,-247"/>
<text text-anchor="middle" x="2339" y="-225.3" font-family="Times,serif" font-size="14.00">10.1.80.247:35158#ServerID_OuterContainerID</text>
</g>
<!-- 1_fwatchdog#ServerID_5f846fd567&#45;w7nbt&#45;&gt;10.1.80.247:35158#ServerID_OuterContainerID -->
<g id="edge2" class="edge"><title>1_fwatchdog#ServerID_5f846fd567&#45;w7nbt&#45;&gt;10.1.80.247:35158#ServerID_OuterContainerID</title>
<path fill="none" stroke="black" d="M2343.96,-318.759C2345.61,-313.165 2347.18,-306.883 2348,-301 2350.04,-286.436 2348.27,-270.162 2345.78,-256.873"/>
<polygon fill="black" stroke="black" points="2349.17,-256.006 2343.68,-246.944 2342.32,-257.452 2349.17,-256.006"/>
<text text-anchor="middle" x="2391" y="-289.8" font-family="Times,serif" font-size="14.00">RESPONSE</text>
</g>
<!-- 10.1.80.247:35158#ServerID_OuterContainerID&#45;&gt;1_fwatchdog#ServerID_5f846fd567&#45;w7nbt -->
<g id="edge8" class="edge"><title>10.1.80.247:35158#ServerID_OuterContainerID&#45;&gt;1_fwatchdog#ServerID_5f846fd567&#45;w7nbt</title>
<path fill="none" stroke="black" d="M2325.26,-246.449C2317.35,-257.019 2308.17,-271.453 2304,-286 2302.16,-292.408 2301.49,-294.822 2304,-301 2305.42,-304.503 2307.38,-307.848 2309.65,-310.984"/>
<polygon fill="black" stroke="black" points="2307.08,-313.372 2316.2,-318.762 2312.43,-308.86 2307.08,-313.372"/>
<text text-anchor="middle" x="2324" y="-289.8" font-family="Times,serif" font-size="14.00">POST</text>
</g>
<!-- 1_fwatchdog#ServerID_e56b6537e2d5 -->
<g id="node7" class="node"><title>1_fwatchdog#ServerID_e56b6537e2d5</title>
<polygon fill="none" stroke="black" points="4701.5,-139 4402.5,-139 4402.5,-103 4701.5,-103 4701.5,-139"/>
<text text-anchor="middle" x="4552" y="-117.3" font-family="Times,serif" font-size="14.00">1_fwatchdog#ServerID_e56b6537e2d5</text>
</g>
<!-- 10.1.80.247:35158#ServerID_OuterContainerID&#45;&gt;1_fwatchdog#ServerID_e56b6537e2d5 -->
<g id="edge16" class="edge"><title>10.1.80.247:35158#ServerID_OuterContainerID&#45;&gt;1_fwatchdog#ServerID_e56b6537e2d5</title>
<path fill="none" stroke="black" d="M2463.88,-217.66C2529.38,-212.563 2610.98,-206.727 2684,-203 3058.34,-183.895 3152.24,-185.285 3527,-178 3575.16,-177.064 4346.39,-177.297 4394,-170 4429.67,-164.533 4468.46,-152.837 4498.68,-142.36"/>
<polygon fill="black" stroke="black" points="4499.91,-145.637 4508.18,-139.01 4497.58,-139.036 4499.91,-145.637"/>
<text text-anchor="middle" x="3543.5" y="-181.8" font-family="Times,serif" font-size="14.00">read</text>
</g>
<!-- 10.1.80.247:8080#ServerID_OuterContainerID&#45;&gt;1_fwatchdog#ServerID_6df85d7674&#45;2kqrj -->
<g id="edge4" class="edge"><title>10.1.80.247:8080#ServerID_OuterContainerID&#45;&gt;1_fwatchdog#ServerID_6df85d7674&#45;2kqrj</title>
<path fill="none" stroke="black" d="M386.379,-244.639C436.851,-261.058 522.989,-287.193 599,-301 671.267,-314.127 751.943,-322.397 821.305,-327.577"/>
<polygon fill="black" stroke="black" points="821.225,-331.081 831.454,-328.319 821.736,-324.099 821.225,-331.081"/>
<text text-anchor="middle" x="641" y="-289.8" font-family="Times,serif" font-size="14.00">RESPONSE</text>
</g>
<!-- 10.1.80.1:21726#ServerID_OuterContainerID -->
<g id="node18" class="node"><title>10.1.80.1:21726#ServerID_OuterContainerID</title>
<polygon fill="none" stroke="black" points="335,-139 16.1049,-121 335,-103 653.895,-121 335,-139"/>
<text text-anchor="middle" x="335" y="-117.3" font-family="Times,serif" font-size="14.00">10.1.80.1:21726#ServerID_OuterContainerID</text>
</g>
<!-- 10.1.80.247:8080#ServerID_OuterContainerID&#45;&gt;10.1.80.1:21726#ServerID_OuterContainerID -->
<g id="edge24" class="edge"><title>10.1.80.247:8080#ServerID_OuterContainerID&#45;&gt;10.1.80.1:21726#ServerID_OuterContainerID</title>
<path fill="none" stroke="black" d="M345.928,-210.962C346.775,-205.269 347.582,-198.878 348,-193 348.473,-186.35 348.759,-184.623 348,-178 346.894,-168.346 344.749,-157.935 342.515,-148.74"/>
<polygon fill="black" stroke="black" points="345.886,-147.793 340.006,-138.98 339.106,-149.536 345.886,-147.793"/>
<text text-anchor="middle" x="391" y="-181.8" font-family="Times,serif" font-size="14.00">RESPONSE</text>
</g>
<!-- 10.0.88.125:31112#ServerID_OuterContainerID -->
<g id="node19" class="node"><title>10.0.88.125:31112#ServerID_OuterContainerID</title>
<polygon fill="none" stroke="black" points="1007,-139 671.515,-121 1007,-103 1342.48,-121 1007,-139"/>
<text text-anchor="middle" x="1007" y="-117.3" font-family="Times,serif" font-size="14.00">10.0.88.125:31112#ServerID_OuterContainerID</text>
</g>
<!-- 10.1.80.247:8080#ServerID_OuterContainerID&#45;&gt;10.0.88.125:31112#ServerID_OuterContainerID -->
<g id="edge25" class="edge"><title>10.1.80.247:8080#ServerID_OuterContainerID&#45;&gt;10.0.88.125:31112#ServerID_OuterContainerID</title>
<path fill="none" stroke="black" d="M422.434,-215.319C546.818,-195.463 786.788,-157.154 917.247,-136.328"/>
<polygon fill="black" stroke="black" points="917.893,-139.769 927.216,-134.737 916.789,-132.857 917.893,-139.769"/>
<text text-anchor="middle" x="698" y="-181.8" font-family="Times,serif" font-size="14.00">RESPONSE</text>
</g>
<!-- 10.1.80.247:33214#ServerID_OuterContainerID&#45;&gt;1_fwatchdog#ServerID_6df85d7674&#45;2kqrj -->
<g id="edge7" class="edge"><title>10.1.80.247:33214#ServerID_OuterContainerID&#45;&gt;1_fwatchdog#ServerID_6df85d7674&#45;2kqrj</title>
<path fill="none" stroke="black" d="M1605.93,-244.637C1554.65,-261.055 1467.15,-287.189 1390,-301 1316.14,-314.223 1233.63,-322.521 1162.97,-327.694"/>
<polygon fill="black" stroke="black" points="1162.36,-324.229 1152.63,-328.435 1162.86,-331.211 1162.36,-324.229"/>
<text text-anchor="middle" x="1476" y="-289.8" font-family="Times,serif" font-size="14.00">POST</text>
</g>
<!-- 1_fwatchdog#ServerID_34e86192c217 -->
<g id="node9" class="node"><title>1_fwatchdog#ServerID_34e86192c217</title>
<polygon fill="none" stroke="black" points="4893.5,-355 4594.5,-355 4594.5,-319 4893.5,-319 4893.5,-355"/>
<text text-anchor="middle" x="4744" y="-333.3" font-family="Times,serif" font-size="14.00">1_fwatchdog#ServerID_34e86192c217</text>
</g>
<!-- 10.1.80.247:33214#ServerID_OuterContainerID&#45;&gt;1_fwatchdog#ServerID_34e86192c217 -->
<g id="edge14" class="edge"><title>10.1.80.247:33214#ServerID_OuterContainerID&#45;&gt;1_fwatchdog#ServerID_34e86192c217</title>
<path fill="none" stroke="black" d="M1724.41,-243.081C1794.09,-254.68 1901.24,-270.855 1995,-278 2060.9,-283.022 4307.96,-308.313 4374,-311 4442.85,-313.801 4518.8,-318.63 4583.88,-323.301"/>
<polygon fill="black" stroke="black" points="4584,-326.819 4594.23,-324.049 4584.51,-319.837 4584,-326.819"/>
<text text-anchor="middle" x="3610.5" y="-289.8" font-family="Times,serif" font-size="14.00">read</text>
</g>
<!-- 10.1.80.247:35114#ServerID_OuterContainerID -->
<g id="node8" class="node"><title>10.1.80.247:35114#ServerID_OuterContainerID</title>
<polygon fill="none" stroke="black" points="3717,-247 3381.52,-229 3717,-211 4052.48,-229 3717,-247"/>
<text text-anchor="middle" x="3717" y="-225.3" font-family="Times,serif" font-size="14.00">10.1.80.247:35114#ServerID_OuterContainerID</text>
</g>
<!-- 1_fwatchdog#ServerID_e56b6537e2d5&#45;&gt;10.1.80.247:35114#ServerID_OuterContainerID -->
<g id="edge9" class="edge"><title>1_fwatchdog#ServerID_e56b6537e2d5&#45;&gt;10.1.80.247:35114#ServerID_OuterContainerID</title>
<path fill="none" stroke="black" d="M4505.29,-139.012C4474.17,-149.639 4432.15,-162.656 4394,-170 4343.1,-179.8 4042.96,-203.484 3859.82,-217.367"/>
<polygon fill="black" stroke="black" points="3859.54,-213.878 3849.83,-218.124 3860.07,-220.858 3859.54,-213.878"/>
<text text-anchor="middle" x="4341" y="-181.8" font-family="Times,serif" font-size="14.00">write</text>
</g>
<!-- localhost:3000#ServerID_e56b6537e2d5 -->
<g id="node14" class="node"><title>localhost:3000#ServerID_e56b6537e2d5</title>
<polygon fill="none" stroke="black" points="5267,-52 4980.45,-34 5267,-16 5553.55,-34 5267,-52"/>
<text text-anchor="middle" x="5267" y="-30.3" font-family="Times,serif" font-size="14.00">localhost:3000#ServerID_e56b6537e2d5</text>
</g>
<!-- 1_fwatchdog#ServerID_e56b6537e2d5&#45;&gt;localhost:3000#ServerID_e56b6537e2d5 -->
<g id="edge19" class="edge"><title>1_fwatchdog#ServerID_e56b6537e2d5&#45;&gt;localhost:3000#ServerID_e56b6537e2d5</title>
<path fill="none" stroke="black" d="M4701.59,-113.843C4794.67,-108.792 4916.68,-99.9572 5024,-85 5084.66,-76.5458 5152.91,-62.0559 5201.6,-50.8444"/>
<polygon fill="black" stroke="black" points="5202.43,-54.246 5211.38,-48.5769 5200.84,-47.4271 5202.43,-54.246"/>
<text text-anchor="middle" x="5130" y="-73.8" font-family="Times,serif" font-size="14.00">write</text>
</g>
<!-- pipe:[331682317]#ServerID_e56b6537e2d5 -->
<g id="node17" class="node"><title>pipe:[331682317]#ServerID_e56b6537e2d5</title>
<ellipse fill="none" stroke="black" cx="4745" cy="-34" rx="217.162" ry="18"/>
<text text-anchor="middle" x="4745" y="-30.3" font-family="Times,serif" font-size="14.00">pipe:[331682317]#ServerID_e56b6537e2d5</text>
</g>
<!-- 1_fwatchdog#ServerID_e56b6537e2d5&#45;&gt;pipe:[331682317]#ServerID_e56b6537e2d5 -->
<g id="edge22" class="edge"><title>1_fwatchdog#ServerID_e56b6537e2d5&#45;&gt;pipe:[331682317]#ServerID_e56b6537e2d5</title>
<path fill="none" stroke="black" d="M4591.06,-102.799C4621.83,-89.2443 4664.87,-70.2917 4697.61,-55.8698"/>
<polygon fill="black" stroke="black" points="4699.25,-58.9747 4706.99,-51.7409 4696.43,-52.5685 4699.25,-58.9747"/>
<text text-anchor="middle" x="4679" y="-73.8" font-family="Times,serif" font-size="14.00">write</text>
</g>
<!-- 10.1.80.247:35114#ServerID_OuterContainerID&#45;&gt;1_fwatchdog#ServerID_e56b6537e2d5 -->
<g id="edge10" class="edge"><title>10.1.80.247:35114#ServerID_OuterContainerID&#45;&gt;1_fwatchdog#ServerID_e56b6537e2d5</title>
<path fill="none" stroke="black" d="M3803.68,-215.637C3889.62,-203.899 4025.11,-186.781 4143,-178 4198.65,-173.855 4338.94,-179.078 4394,-170 4429.22,-164.193 4467.56,-152.678 4497.65,-142.382"/>
<polygon fill="black" stroke="black" points="4498.82,-145.681 4507.12,-139.091 4496.52,-139.069 4498.82,-145.681"/>
<text text-anchor="middle" x="4159.5" y="-181.8" font-family="Times,serif" font-size="14.00">read</text>
</g>
<!-- localhost:3000#ServerID_34e86192c217 -->
<g id="node10" class="node"><title>localhost:3000#ServerID_34e86192c217</title>
<polygon fill="none" stroke="black" points="4815,-247 4528.45,-229 4815,-211 5101.55,-229 4815,-247"/>
<text text-anchor="middle" x="4815" y="-225.3" font-family="Times,serif" font-size="14.00">localhost:3000#ServerID_34e86192c217</text>
</g>
<!-- 1_fwatchdog#ServerID_34e86192c217&#45;&gt;localhost:3000#ServerID_34e86192c217 -->
<g id="edge11" class="edge"><title>1_fwatchdog#ServerID_34e86192c217&#45;&gt;localhost:3000#ServerID_34e86192c217</title>
<path fill="none" stroke="black" d="M4717.02,-318.965C4705.79,-309.642 4696.83,-297.644 4704,-286 4714.84,-268.389 4733.12,-256.116 4751.74,-247.652"/>
<polygon fill="black" stroke="black" points="4753.32,-250.786 4761.18,-243.681 4750.6,-244.334 4753.32,-250.786"/>
<text text-anchor="middle" x="4733" y="-289.8" font-family="Times,serif" font-size="14.00">connect</text>
</g>
<!-- 1_fwatchdog#ServerID_34e86192c217&#45;&gt;localhost:3000#ServerID_34e86192c217 -->
<g id="edge13" class="edge"><title>1_fwatchdog#ServerID_34e86192c217&#45;&gt;localhost:3000#ServerID_34e86192c217</title>
<path fill="none" stroke="black" d="M4755.41,-318.969C4766.97,-301.714 4784.97,-274.828 4798.17,-255.126"/>
<polygon fill="black" stroke="black" points="4801.2,-256.895 4803.86,-246.639 4795.38,-253 4801.2,-256.895"/>
<text text-anchor="middle" x="4796" y="-289.8" font-family="Times,serif" font-size="14.00">write</text>
</g>
<!-- localhost:3000#ServerID_34e86192c217&#45;&gt;1_fwatchdog#ServerID_34e86192c217 -->
<g id="edge12" class="edge"><title>localhost:3000#ServerID_34e86192c217&#45;&gt;1_fwatchdog#ServerID_34e86192c217</title>
<path fill="none" stroke="black" d="M4822.54,-246.613C4828.27,-261.964 4833.55,-284.781 4823,-301 4820.06,-305.521 4816.38,-309.462 4812.24,-312.897"/>
<polygon fill="black" stroke="black" points="4809.91,-310.263 4803.77,-318.899 4813.95,-315.975 4809.91,-310.263"/>
<text text-anchor="middle" x="4844.5" y="-289.8" font-family="Times,serif" font-size="14.00">read</text>
</g>
<!-- 10.1.80.247:35138#ServerID_OuterContainerID -->
<g id="node11" class="node"><title>10.1.80.247:35138#ServerID_OuterContainerID</title>
<polygon fill="none" stroke="black" points="3028,-247 2692.52,-229 3028,-211 3363.48,-229 3028,-247"/>
<text text-anchor="middle" x="3028" y="-225.3" font-family="Times,serif" font-size="14.00">10.1.80.247:35138#ServerID_OuterContainerID</text>
</g>
<!-- 10.1.80.247:35138#ServerID_OuterContainerID&#45;&gt;1_fwatchdog#ServerID_e56b6537e2d5 -->
<g id="edge15" class="edge"><title>10.1.80.247:35138#ServerID_OuterContainerID&#45;&gt;1_fwatchdog#ServerID_e56b6537e2d5</title>
<path fill="none" stroke="black" d="M3155.74,-217.846C3220.75,-212.906 3301.06,-207.154 3373,-203 3631.03,-188.103 3695.66,-185.905 3954,-178 4002.87,-176.504 4345.7,-177.624 4394,-170 4429.52,-164.393 4468.16,-152.759 4498.34,-142.348"/>
<polygon fill="black" stroke="black" points="4499.55,-145.633 4507.82,-139.02 4497.23,-139.028 4499.55,-145.633"/>
<text text-anchor="middle" x="3970.5" y="-181.8" font-family="Times,serif" font-size="14.00">read</text>
</g>
<!-- 10_node#ServerID_34e86192c217 -->
<g id="node12" class="node"><title>10_node#ServerID_34e86192c217</title>
<polygon fill="none" stroke="black" points="4364.5,-355 4097.5,-355 4097.5,-319 4364.5,-319 4364.5,-355"/>
<text text-anchor="middle" x="4231" y="-333.3" font-family="Times,serif" font-size="14.00">10_node#ServerID_34e86192c217</text>
</g>
<!-- 10_node#ServerID_34e86192c217&#45;&gt;gateway:8080#ServerID_OuterContainerID -->
<g id="edge18" class="edge"><title>10_node#ServerID_34e86192c217&#45;&gt;gateway:8080#ServerID_OuterContainerID</title>
<path fill="none" stroke="black" d="M4097.35,-333.859C3542.93,-324.913 1446.4,-290.407 1306,-278 1225.18,-270.858 1133.54,-256.07 1070.21,-244.785"/>
<polygon fill="black" stroke="black" points="1070.76,-241.327 1060.3,-243.005 1069.53,-248.217 1070.76,-241.327"/>
<text text-anchor="middle" x="2192" y="-289.8" font-family="Times,serif" font-size="14.00">connect</text>
</g>
<!-- pipe:[331683264]#ServerID_34e86192c217 -->
<g id="node13" class="node"><title>pipe:[331683264]#ServerID_34e86192c217</title>
<ellipse fill="none" stroke="black" cx="4293" cy="-229" rx="217.162" ry="18"/>
<text text-anchor="middle" x="4293" y="-225.3" font-family="Times,serif" font-size="14.00">pipe:[331683264]#ServerID_34e86192c217</text>
</g>
<!-- 10_node#ServerID_34e86192c217&#45;&gt;pipe:[331683264]#ServerID_34e86192c217 -->
<g id="edge17" class="edge"><title>10_node#ServerID_34e86192c217&#45;&gt;pipe:[331683264]#ServerID_34e86192c217</title>
<path fill="none" stroke="black" d="M4240.96,-318.969C4250.95,-301.893 4266.45,-275.384 4277.94,-255.74"/>
<polygon fill="black" stroke="black" points="4281.04,-257.387 4283.06,-246.988 4274.99,-253.853 4281.04,-257.387"/>
<text text-anchor="middle" x="4280" y="-289.8" font-family="Times,serif" font-size="14.00">write</text>
</g>
<!-- localhost:3000#ServerID_e56b6537e2d5&#45;&gt;1_fwatchdog#ServerID_e56b6537e2d5 -->
<g id="edge21" class="edge"><title>localhost:3000#ServerID_e56b6537e2d5&#45;&gt;1_fwatchdog#ServerID_e56b6537e2d5</title>
<path fill="none" stroke="black" d="M5173.35,-46.1335C5054.43,-60.2707 4847.65,-84.8526 4705.52,-101.749"/>
<polygon fill="black" stroke="black" points="4704.92,-98.2962 4695.4,-102.952 4705.74,-105.247 4704.92,-98.2962"/>
<text text-anchor="middle" x="4968.5" y="-73.8" font-family="Times,serif" font-size="14.00">read</text>
</g>
<!-- 12_node#ServerID_e56b6537e2d5 -->
<g id="node15" class="node"><title>12_node#ServerID_e56b6537e2d5</title>
<polygon fill="none" stroke="black" points="4384.5,-139 4117.5,-139 4117.5,-103 4384.5,-103 4384.5,-139"/>
<text text-anchor="middle" x="4251" y="-117.3" font-family="Times,serif" font-size="14.00">12_node#ServerID_e56b6537e2d5</text>
</g>
<!-- pipe:[331682415]#ServerID_e56b6537e2d5 -->
<g id="node16" class="node"><title>pipe:[331682415]#ServerID_e56b6537e2d5</title>
<ellipse fill="none" stroke="black" cx="4293" cy="-34" rx="217.162" ry="18"/>
<text text-anchor="middle" x="4293" y="-30.3" font-family="Times,serif" font-size="14.00">pipe:[331682415]#ServerID_e56b6537e2d5</text>
</g>
<!-- 12_node#ServerID_e56b6537e2d5&#45;&gt;pipe:[331682415]#ServerID_e56b6537e2d5 -->
<g id="edge20" class="edge"><title>12_node#ServerID_e56b6537e2d5&#45;&gt;pipe:[331682415]#ServerID_e56b6537e2d5</title>
<path fill="none" stroke="black" d="M4259.5,-102.799C4265.36,-90.9322 4273.27,-74.9279 4279.93,-61.4488"/>
<polygon fill="black" stroke="black" points="4283.22,-62.6912 4284.51,-52.1754 4276.95,-59.5902 4283.22,-62.6912"/>
<text text-anchor="middle" x="4294" y="-73.8" font-family="Times,serif" font-size="14.00">write</text>
</g>
<!-- 10.1.80.1:21726#ServerID_OuterContainerID&#45;&gt;10.1.80.247:8080#ServerID_OuterContainerID -->
<g id="edge23" class="edge"><title>10.1.80.1:21726#ServerID_OuterContainerID&#45;&gt;10.1.80.247:8080#ServerID_OuterContainerID</title>
<path fill="none" stroke="black" d="M321.454,-138.463C311.286,-152.923 300.329,-174.481 308,-193 309.665,-197.019 312.04,-200.818 314.779,-204.325"/>
<polygon fill="black" stroke="black" points="312.368,-206.877 321.669,-211.949 317.561,-202.183 312.368,-206.877"/>
<text text-anchor="middle" x="328" y="-181.8" font-family="Times,serif" font-size="14.00">POST</text>
</g>
</g>
</svg>
