<?xml version="1.0" encoding="UTF-8" standalone="no"?>
<!DOCTYPE svg PUBLIC "-//W3C//DTD SVG 1.1//EN"
 "http://www.w3.org/Graphics/SVG/1.1/DTD/svg11.dtd">
<!-- Generated by graphviz version 2.38.0 (20140413.2041)
 -->
<!-- Title: G Pages: 1 -->
<svg width="7633pt" height="576pt"
 viewBox="0.00 0.00 7633.00 576.00" xmlns="http://www.w3.org/2000/svg" xmlns:xlink="http://www.w3.org/1999/xlink">
<g id="graph0" class="graph" transform="scale(1 1) rotate(0) translate(4 572)">
<title>G</title>
<polygon fill="white" stroke="none" points="-4,4 -4,-572 7629,-572 7629,4 -4,4"/>
<g id="clust1" class="cluster"><title>clusterServerID_34e86192c217</title>
<polygon fill="none" stroke="black" points="5777,-8 5777,-344 6367,-344 6367,-8 5777,-8"/>
<text text-anchor="middle" x="6072" y="-328.8" font-family="Times,serif" font-size="14.00">clusterServerID_34e86192c217</text>
</g>
<g id="clust2" class="cluster"><title>clusterServerID_5f846fd567&#45;w7nbt</title>
<polygon fill="none" stroke="black" points="4909,-485 4909,-560 5249,-560 5249,-485 4909,-485"/>
<text text-anchor="middle" x="5079" y="-544.8" font-family="Times,serif" font-size="14.00">clusterServerID_5f846fd567&#45;w7nbt</text>
</g>
<g id="clust3" class="cluster"><title>clusterServerID_6df85d7674&#45;2kqrj</title>
<polygon fill="none" stroke="black" points="5431,-269 5431,-344 5769,-344 5769,-269 5431,-269"/>
<text text-anchor="middle" x="5600" y="-328.8" font-family="Times,serif" font-size="14.00">clusterServerID_6df85d7674&#45;2kqrj</text>
</g>
<g id="clust4" class="cluster"><title>clusterServerID_OuterContainerID</title>
<polygon fill="none" stroke="black" points="8,-269 8,-452 5423,-452 5423,-269 8,-269"/>
<text text-anchor="middle" x="2715.5" y="-436.8" font-family="Times,serif" font-size="14.00">clusterServerID_OuterContainerID</text>
</g>
<g id="clust5" class="cluster"><title>clusterServerID_e56b6537e2d5</title>
<polygon fill="none" stroke="black" points="6375,-182 6375,-344 7417,-344 7417,-182 6375,-182"/>
<text text-anchor="middle" x="6896" y="-328.8" font-family="Times,serif" font-size="14.00">clusterServerID_e56b6537e2d5</text>
</g>
<!-- 10.1.80.247:35108#ServerID_OuterContainerID -->
<g id="node1" class="node"><title>10.1.80.247:35108#ServerID_OuterContainerID</title>
<polygon fill="none" stroke="black" points="5080,-421 4744.52,-403 5080,-385 5415.48,-403 5080,-421"/>
<text text-anchor="middle" x="5080" y="-399.3" font-family="Times,serif" font-size="14.00">10.1.80.247:35108#ServerID_OuterContainerID</text>
</g>
<!-- 1_fwatchdog#ServerID_5f846fd567&#45;w7nbt -->
<g id="node2" class="node"><title>1_fwatchdog#ServerID_5f846fd567&#45;w7nbt</title>
<polygon fill="none" stroke="black" points="5241,-529 4917,-529 4917,-493 5241,-493 5241,-529"/>
<text text-anchor="middle" x="5079" y="-507.3" font-family="Times,serif" font-size="14.00">1_fwatchdog#ServerID_5f846fd567&#45;w7nbt</text>
</g>
<!-- 10.1.80.247:35108#ServerID_OuterContainerID&#45;&gt;1_fwatchdog#ServerID_5f846fd567&#45;w7nbt -->
<g id="edge1" class="edge"><title>10.1.80.247:35108#ServerID_OuterContainerID&#45;&gt;1_fwatchdog#ServerID_5f846fd567&#45;w7nbt</title>
<path fill="none" stroke="black" d="M5067.81,-420.692C5060.8,-431.353 5052.67,-445.798 5049,-460 5047.33,-466.455 5046.69,-468.747 5049,-475 5050.23,-478.328 5051.94,-481.554 5053.91,-484.612"/>
<polygon fill="black" stroke="black" points="5051.22,-486.86 5060.04,-492.736 5056.81,-482.644 5051.22,-486.86"/>
<text text-anchor="middle" x="5069" y="-463.8" font-family="Times,serif" font-size="14.00">POST</text>
</g>
<!-- 1_fwatchdog#ServerID_5f846fd567&#45;w7nbt&#45;&gt;10.1.80.247:35108#ServerID_OuterContainerID -->
<g id="edge8" class="edge"><title>1_fwatchdog#ServerID_5f846fd567&#45;w7nbt&#45;&gt;10.1.80.247:35108#ServerID_OuterContainerID</title>
<path fill="none" stroke="black" d="M5084.96,-492.759C5086.61,-487.165 5088.18,-480.883 5089,-475 5091.04,-460.436 5089.27,-444.162 5086.78,-430.873"/>
<polygon fill="black" stroke="black" points="5090.17,-430.006 5084.68,-420.944 5083.32,-431.452 5090.17,-430.006"/>
<text text-anchor="middle" x="5132" y="-463.8" font-family="Times,serif" font-size="14.00">RESPONSE</text>
</g>
<!-- 10.1.80.247:33102#ServerID_OuterContainerID -->
<g id="node3" class="node"><title>10.1.80.247:33102#ServerID_OuterContainerID</title>
<polygon fill="none" stroke="black" points="1024,-421 688.515,-403 1024,-385 1359.48,-403 1024,-421"/>
<text text-anchor="middle" x="1024" y="-399.3" font-family="Times,serif" font-size="14.00">10.1.80.247:33102#ServerID_OuterContainerID</text>
</g>
<!-- 1_fwatchdog#ServerID_6df85d7674&#45;2kqrj -->
<g id="node4" class="node"><title>1_fwatchdog#ServerID_6df85d7674&#45;2kqrj</title>
<polygon fill="none" stroke="black" points="5760.5,-313 5439.5,-313 5439.5,-277 5760.5,-277 5760.5,-313"/>
<text text-anchor="middle" x="5600" y="-291.3" font-family="Times,serif" font-size="14.00">1_fwatchdog#ServerID_6df85d7674&#45;2kqrj</text>
</g>
<!-- 10.1.80.247:33102#ServerID_OuterContainerID&#45;&gt;1_fwatchdog#ServerID_6df85d7674&#45;2kqrj -->
<g id="edge2" class="edge"><title>10.1.80.247:33102#ServerID_OuterContainerID&#45;&gt;1_fwatchdog#ServerID_6df85d7674&#45;2kqrj</title>
<path fill="none" stroke="black" d="M1171.68,-392.912C1376.74,-380.78 1759.39,-359.903 2086,-352 2178.78,-349.755 5335.06,-356.631 5427,-344 5466.21,-338.614 5509.08,-326.763 5542.33,-316.186"/>
<polygon fill="black" stroke="black" points="5543.45,-319.503 5551.89,-313.098 5541.3,-312.843 5543.45,-319.503"/>
<text text-anchor="middle" x="2106" y="-355.8" font-family="Times,serif" font-size="14.00">POST</text>
</g>
<!-- 1_fwatchdog#ServerID_34e86192c217 -->
<g id="node7" class="node"><title>1_fwatchdog#ServerID_34e86192c217</title>
<polygon fill="none" stroke="black" points="6280.5,-313 5981.5,-313 5981.5,-277 6280.5,-277 6280.5,-313"/>
<text text-anchor="middle" x="6131" y="-291.3" font-family="Times,serif" font-size="14.00">1_fwatchdog#ServerID_34e86192c217</text>
</g>
<!-- 10.1.80.247:33102#ServerID_OuterContainerID&#45;&gt;1_fwatchdog#ServerID_34e86192c217 -->
<g id="edge13" class="edge"><title>10.1.80.247:33102#ServerID_OuterContainerID&#45;&gt;1_fwatchdog#ServerID_34e86192c217</title>
<path fill="none" stroke="black" d="M1178.52,-393.255C1238.04,-390.183 1306.66,-387.002 1369,-385 1491.4,-381.069 3450.55,-353.139 3573,-352 3695.22,-350.863 5651.06,-352.361 5773,-344 5856.18,-338.296 5949.53,-325.569 6020.05,-314.653"/>
<polygon fill="black" stroke="black" points="6020.94,-318.056 6030.28,-313.056 6019.86,-311.14 6020.94,-318.056"/>
<text text-anchor="middle" x="3589.5" y="-355.8" font-family="Times,serif" font-size="14.00">read</text>
</g>
<!-- 1_fwatchdog#ServerID_6df85d7674&#45;2kqrj&#45;&gt;10.1.80.247:33102#ServerID_OuterContainerID -->
<g id="edge6" class="edge"><title>1_fwatchdog#ServerID_6df85d7674&#45;2kqrj&#45;&gt;10.1.80.247:33102#ServerID_OuterContainerID</title>
<path fill="none" stroke="black" d="M5551.89,-313.095C5517.58,-324.357 5470.08,-338.078 5427,-344 5342.74,-355.585 2450.01,-349.224 2365,-352 2258.63,-355.474 2232.33,-362.401 2126,-367 1789.77,-381.543 1705.32,-372.717 1369,-385 1311.05,-387.116 1247.66,-390.059 1191.2,-392.902"/>
<polygon fill="black" stroke="black" points="1190.92,-389.412 1181.11,-393.413 1191.28,-396.403 1190.92,-389.412"/>
<text text-anchor="middle" x="2407" y="-355.8" font-family="Times,serif" font-size="14.00">RESPONSE</text>
</g>
<!-- gateway:8080#ServerID_OuterContainerID -->
<g id="node5" class="node"><title>gateway:8080#ServerID_OuterContainerID</title>
<polygon fill="none" stroke="black" points="1682,-421 1377.52,-403 1682,-385 1986.48,-403 1682,-421"/>
<text text-anchor="middle" x="1682" y="-399.3" font-family="Times,serif" font-size="14.00">gateway:8080#ServerID_OuterContainerID</text>
</g>
<!-- 1_fwatchdog#ServerID_6df85d7674&#45;2kqrj&#45;&gt;gateway:8080#ServerID_OuterContainerID -->
<g id="edge3" class="edge"><title>1_fwatchdog#ServerID_6df85d7674&#45;2kqrj&#45;&gt;gateway:8080#ServerID_OuterContainerID</title>
<path fill="none" stroke="black" d="M5551.5,-313.09C5517.21,-324.272 5469.89,-337.899 5427,-344 5049.55,-397.691 2377.04,-372.414 1996,-385 1942.18,-386.778 1883.21,-389.71 1831.06,-392.642"/>
<polygon fill="black" stroke="black" points="1830.85,-389.148 1821.06,-393.209 1831.24,-396.137 1830.85,-389.148"/>
<text text-anchor="middle" x="5356" y="-355.8" font-family="Times,serif" font-size="14.00">POST</text>
</g>
<!-- 10.1.80.247:8080#ServerID_OuterContainerID -->
<g id="node6" class="node"><title>10.1.80.247:8080#ServerID_OuterContainerID</title>
<polygon fill="none" stroke="black" points="343,-421 15.5599,-403 343,-385 670.44,-403 343,-421"/>
<text text-anchor="middle" x="343" y="-399.3" font-family="Times,serif" font-size="14.00">10.1.80.247:8080#ServerID_OuterContainerID</text>
</g>
<!-- 1_fwatchdog#ServerID_6df85d7674&#45;2kqrj&#45;&gt;10.1.80.247:8080#ServerID_OuterContainerID -->
<g id="edge5" class="edge"><title>1_fwatchdog#ServerID_6df85d7674&#45;2kqrj&#45;&gt;10.1.80.247:8080#ServerID_OuterContainerID</title>
<path fill="none" stroke="black" d="M5551.89,-313.106C5517.58,-324.372 5470.08,-338.095 5427,-344 5366.18,-352.337 1068.32,-349.196 1007,-352 932.557,-355.404 914.283,-361.049 840,-367 724.131,-376.283 592.956,-385.464 494.473,-392.093"/>
<polygon fill="black" stroke="black" points="494.187,-388.604 484.444,-392.767 494.657,-395.589 494.187,-388.604"/>
<text text-anchor="middle" x="1027" y="-355.8" font-family="Times,serif" font-size="14.00">POST</text>
</g>
<!-- gateway:8080#ServerID_OuterContainerID&#45;&gt;1_fwatchdog#ServerID_6df85d7674&#45;2kqrj -->
<g id="edge4" class="edge"><title>gateway:8080#ServerID_OuterContainerID&#45;&gt;1_fwatchdog#ServerID_6df85d7674&#45;2kqrj</title>
<path fill="none" stroke="black" d="M1821.06,-393.209C1875.59,-390.092 1938.71,-386.892 1996,-385 2019.82,-384.213 5403.41,-347.356 5427,-344 5466.04,-338.447 5508.74,-326.66 5541.96,-316.156"/>
<polygon fill="black" stroke="black" points="5543.05,-319.481 5551.5,-313.09 5540.91,-312.816 5543.05,-319.481"/>
<text text-anchor="middle" x="4888" y="-355.8" font-family="Times,serif" font-size="14.00">RESPONSE</text>
</g>
<!-- 10_node#ServerID_34e86192c217 -->
<g id="node10" class="node"><title>10_node#ServerID_34e86192c217</title>
<polygon fill="none" stroke="black" points="6358.5,-139 6091.5,-139 6091.5,-103 6358.5,-103 6358.5,-139"/>
<text text-anchor="middle" x="6225" y="-117.3" font-family="Times,serif" font-size="14.00">10_node#ServerID_34e86192c217</text>
</g>
<!-- gateway:8080#ServerID_OuterContainerID&#45;&gt;10_node#ServerID_34e86192c217 -->
<g id="edge22" class="edge"><title>gateway:8080#ServerID_OuterContainerID&#45;&gt;10_node#ServerID_34e86192c217</title>
<path fill="none" stroke="black" d="M1819.11,-393.091C1874.08,-389.907 1938.02,-386.691 1996,-385 2938.94,-357.492 5297.72,-378.009 6241,-367 6257.72,-366.805 7430.32,-352.013 7445,-344 7489.9,-319.492 7520.99,-291.502 7502,-244 7473.11,-171.723 7427,-168.39 7350,-157 7165.21,-129.665 6628.92,-123.638 6369.25,-122.338"/>
<polygon fill="black" stroke="black" points="6369.01,-118.837 6358.99,-122.288 6368.97,-125.837 6369.01,-118.837"/>
<text text-anchor="middle" x="7523.5" y="-247.8" font-family="Times,serif" font-size="14.00">read</text>
</g>
<!-- 10.1.80.247:8080#ServerID_OuterContainerID&#45;&gt;1_fwatchdog#ServerID_6df85d7674&#45;2kqrj -->
<g id="edge7" class="edge"><title>10.1.80.247:8080#ServerID_OuterContainerID&#45;&gt;1_fwatchdog#ServerID_6df85d7674&#45;2kqrj</title>
<path fill="none" stroke="black" d="M499.928,-393.6C736.253,-381.429 1197.63,-359.521 1590,-352 1643.28,-350.979 5374.2,-351.245 5427,-344 5466.21,-338.62 5509.08,-326.77 5542.33,-316.19"/>
<polygon fill="black" stroke="black" points="5543.45,-319.508 5551.89,-313.102 5541.3,-312.847 5543.45,-319.508"/>
<text text-anchor="middle" x="1632" y="-355.8" font-family="Times,serif" font-size="14.00">RESPONSE</text>
</g>
<!-- 10.1.80.1:16980#ServerID_OuterContainerID -->
<g id="node19" class="node"><title>10.1.80.1:16980#ServerID_OuterContainerID</title>
<polygon fill="none" stroke="black" points="1023,-313 704.105,-295 1023,-277 1341.9,-295 1023,-313"/>
<text text-anchor="middle" x="1023" y="-291.3" font-family="Times,serif" font-size="14.00">10.1.80.1:16980#ServerID_OuterContainerID</text>
</g>
<!-- 10.1.80.247:8080#ServerID_OuterContainerID&#45;&gt;10.1.80.1:16980#ServerID_OuterContainerID -->
<g id="edge24" class="edge"><title>10.1.80.247:8080#ServerID_OuterContainerID&#45;&gt;10.1.80.1:16980#ServerID_OuterContainerID</title>
<path fill="none" stroke="black" d="M413.82,-388.831C472.239,-378.189 557.347,-363.192 632,-352 659.913,-347.815 667.035,-347.821 695,-344 774.864,-333.087 865.519,-319.747 931.252,-309.903"/>
<polygon fill="black" stroke="black" points="931.803,-313.359 941.173,-308.415 930.765,-306.437 931.803,-313.359"/>
<text text-anchor="middle" x="674" y="-355.8" font-family="Times,serif" font-size="14.00">RESPONSE</text>
</g>
<!-- 10.0.88.125:31112#ServerID_OuterContainerID -->
<g id="node20" class="node"><title>10.0.88.125:31112#ServerID_OuterContainerID</title>
<polygon fill="none" stroke="black" points="351,-313 15.5152,-295 351,-277 686.485,-295 351,-313"/>
<text text-anchor="middle" x="351" y="-291.3" font-family="Times,serif" font-size="14.00">10.0.88.125:31112#ServerID_OuterContainerID</text>
</g>
<!-- 10.1.80.247:8080#ServerID_OuterContainerID&#45;&gt;10.0.88.125:31112#ServerID_OuterContainerID -->
<g id="edge25" class="edge"><title>10.1.80.247:8080#ServerID_OuterContainerID&#45;&gt;10.0.88.125:31112#ServerID_OuterContainerID</title>
<path fill="none" stroke="black" d="M344.285,-384.969C345.545,-368.279 347.485,-342.579 348.956,-323.084"/>
<polygon fill="black" stroke="black" points="352.455,-323.224 349.718,-312.988 345.475,-322.697 352.455,-323.224"/>
<text text-anchor="middle" x="389" y="-355.8" font-family="Times,serif" font-size="14.00">RESPONSE</text>
</g>
<!-- localhost:3000#ServerID_34e86192c217 -->
<g id="node8" class="node"><title>localhost:3000#ServerID_34e86192c217</title>
<polygon fill="none" stroke="black" points="6072,-226 5785.45,-208 6072,-190 6358.55,-208 6072,-226"/>
<text text-anchor="middle" x="6072" y="-204.3" font-family="Times,serif" font-size="14.00">localhost:3000#ServerID_34e86192c217</text>
</g>
<!-- 1_fwatchdog#ServerID_34e86192c217&#45;&gt;localhost:3000#ServerID_34e86192c217 -->
<g id="edge9" class="edge"><title>1_fwatchdog#ServerID_34e86192c217&#45;&gt;localhost:3000#ServerID_34e86192c217</title>
<path fill="none" stroke="black" d="M6138.17,-276.677C6141.19,-266.499 6142.83,-253.758 6137,-244 6133.47,-238.086 6128.55,-233.112 6122.99,-228.945"/>
<polygon fill="black" stroke="black" points="6124.76,-225.919 6114.47,-223.4 6120.94,-231.787 6124.76,-225.919"/>
<text text-anchor="middle" x="6170" y="-247.8" font-family="Times,serif" font-size="14.00">connect</text>
</g>
<!-- 1_fwatchdog#ServerID_34e86192c217&#45;&gt;localhost:3000#ServerID_34e86192c217 -->
<g id="edge11" class="edge"><title>1_fwatchdog#ServerID_34e86192c217&#45;&gt;localhost:3000#ServerID_34e86192c217</title>
<path fill="none" stroke="black" d="M6068.2,-276.779C6060.62,-272.181 6053.86,-266.362 6049,-259 6043.9,-251.271 6045.95,-242.226 6050.48,-233.97"/>
<polygon fill="black" stroke="black" points="6053.54,-235.691 6056.15,-225.421 6047.71,-231.825 6053.54,-235.691"/>
<text text-anchor="middle" x="6068" y="-247.8" font-family="Times,serif" font-size="14.00">write</text>
</g>
<!-- localhost:3000#ServerID_34e86192c217&#45;&gt;1_fwatchdog#ServerID_34e86192c217 -->
<g id="edge10" class="edge"><title>localhost:3000#ServerID_34e86192c217&#45;&gt;1_fwatchdog#ServerID_34e86192c217</title>
<path fill="none" stroke="black" d="M6080.23,-225.751C6085.41,-235.727 6092.51,-248.456 6100,-259 6102.37,-262.329 6105,-265.702 6107.7,-268.972"/>
<polygon fill="black" stroke="black" points="6105.28,-271.52 6114.46,-276.807 6110.58,-266.948 6105.28,-271.52"/>
<text text-anchor="middle" x="6116.5" y="-247.8" font-family="Times,serif" font-size="14.00">read</text>
</g>
<!-- localhost:3000#ServerID_34e86192c217&#45;&gt;10_node#ServerID_34e86192c217 -->
<g id="edge19" class="edge"><title>localhost:3000#ServerID_34e86192c217&#45;&gt;10_node#ServerID_34e86192c217</title>
<path fill="none" stroke="black" d="M6099.71,-191.607C6123.69,-178.283 6158.66,-158.857 6185.56,-143.911"/>
<polygon fill="black" stroke="black" points="6187.31,-146.945 6194.35,-139.029 6183.91,-140.826 6187.31,-146.945"/>
<text text-anchor="middle" x="6174.5" y="-160.8" font-family="Times,serif" font-size="14.00">read</text>
</g>
<!-- 10.1.80.247:33096#ServerID_OuterContainerID -->
<g id="node9" class="node"><title>10.1.80.247:33096#ServerID_OuterContainerID</title>
<polygon fill="none" stroke="black" points="2340,-421 2004.52,-403 2340,-385 2675.48,-403 2340,-421"/>
<text text-anchor="middle" x="2340" y="-399.3" font-family="Times,serif" font-size="14.00">10.1.80.247:33096#ServerID_OuterContainerID</text>
</g>
<!-- 10.1.80.247:33096#ServerID_OuterContainerID&#45;&gt;1_fwatchdog#ServerID_34e86192c217 -->
<g id="edge12" class="edge"><title>10.1.80.247:33096#ServerID_OuterContainerID&#45;&gt;1_fwatchdog#ServerID_34e86192c217</title>
<path fill="none" stroke="black" d="M2493.66,-393.243C2553.38,-390.151 2622.36,-386.958 2685,-385 3370.95,-363.553 5088.56,-394.246 5773,-344 5855.56,-337.939 5948.17,-325.366 6018.51,-314.608"/>
<polygon fill="black" stroke="black" points="6019.37,-318.016 6028.72,-313.035 6018.3,-311.098 6019.37,-318.016"/>
<text text-anchor="middle" x="5656.5" y="-355.8" font-family="Times,serif" font-size="14.00">read</text>
</g>
<!-- 10_node#ServerID_34e86192c217&#45;&gt;gateway:8080#ServerID_OuterContainerID -->
<g id="edge18" class="edge"><title>10_node#ServerID_34e86192c217&#45;&gt;gateway:8080#ServerID_OuterContainerID</title>
<path fill="none" stroke="black" d="M6358.78,-123.828C6663.32,-128.643 7384.88,-144.021 7421,-182 7445.81,-208.086 7446.31,-318.401 7421,-344 7411.03,-354.079 5394.17,-366.882 5380,-367 4628.02,-373.237 2747.68,-362.666 1996,-385 1941.66,-386.615 1882.08,-389.545 1829.56,-392.524"/>
<polygon fill="black" stroke="black" points="1829.28,-389.034 1819.5,-393.1 1829.68,-396.023 1829.28,-389.034"/>
<text text-anchor="middle" x="7469" y="-247.8" font-family="Times,serif" font-size="14.00">connect</text>
</g>
<!-- pipe:[331683264]#ServerID_34e86192c217 -->
<g id="node11" class="node"><title>pipe:[331683264]#ServerID_34e86192c217</title>
<ellipse fill="none" stroke="black" cx="6142" cy="-34" rx="217.162" ry="18"/>
<text text-anchor="middle" x="6142" y="-30.3" font-family="Times,serif" font-size="14.00">pipe:[331683264]#ServerID_34e86192c217</text>
</g>
<!-- 10_node#ServerID_34e86192c217&#45;&gt;pipe:[331683264]#ServerID_34e86192c217 -->
<g id="edge14" class="edge"><title>10_node#ServerID_34e86192c217&#45;&gt;pipe:[331683264]#ServerID_34e86192c217</title>
<path fill="none" stroke="black" d="M6208.2,-102.799C6196.05,-90.3561 6179.46,-73.3644 6165.93,-59.5044"/>
<polygon fill="black" stroke="black" points="6168.26,-56.885 6158.77,-52.1754 6163.25,-61.7755 6168.26,-56.885"/>
<text text-anchor="middle" x="6208" y="-73.8" font-family="Times,serif" font-size="14.00">write</text>
</g>
<!-- 10.152.183.10:53#ServerID_OuterContainerID -->
<g id="node13" class="node"><title>10.152.183.10:53#ServerID_OuterContainerID</title>
<polygon fill="none" stroke="black" points="4399,-421 4071.56,-403 4399,-385 4726.44,-403 4399,-421"/>
<text text-anchor="middle" x="4399" y="-399.3" font-family="Times,serif" font-size="14.00">10.152.183.10:53#ServerID_OuterContainerID</text>
</g>
<!-- 10_node#ServerID_34e86192c217&#45;&gt;10.152.183.10:53#ServerID_OuterContainerID -->
<g id="edge16" class="edge"><title>10_node#ServerID_34e86192c217&#45;&gt;10.152.183.10:53#ServerID_OuterContainerID</title>
<path fill="none" stroke="black" d="M6358.78,-123.421C6688.54,-127.205 7515.41,-138.516 7538,-157 7602.9,-210.098 7580.68,-294.496 7513,-344 7466.7,-377.866 7443.11,-361.674 7386,-367 7092.82,-394.338 5030.33,-376.581 4736,-385 4677.72,-386.667 4613.82,-389.607 4557.48,-392.579"/>
<polygon fill="black" stroke="black" points="4557.22,-389.088 4547.42,-393.114 4557.59,-396.078 4557.22,-389.088"/>
<text text-anchor="middle" x="7600.5" y="-247.8" font-family="Times,serif" font-size="14.00">sendto</text>
</g>
<!-- 10.1.80.247:33114#ServerID_OuterContainerID -->
<g id="node12" class="node"><title>10.1.80.247:33114#ServerID_OuterContainerID</title>
<polygon fill="none" stroke="black" points="3029,-421 2693.52,-403 3029,-385 3364.48,-403 3029,-421"/>
<text text-anchor="middle" x="3029" y="-399.3" font-family="Times,serif" font-size="14.00">10.1.80.247:33114#ServerID_OuterContainerID</text>
</g>
<!-- 10.1.80.247:33114#ServerID_OuterContainerID&#45;&gt;1_fwatchdog#ServerID_34e86192c217 -->
<g id="edge15" class="edge"><title>10.1.80.247:33114#ServerID_OuterContainerID&#45;&gt;1_fwatchdog#ServerID_34e86192c217</title>
<path fill="none" stroke="black" d="M3180.09,-393.092C3240.39,-389.919 3310.46,-386.71 3374,-385 3401.25,-384.266 7280.77,-386.323 7300,-367 7304.7,-362.275 7304.69,-356.734 7300,-352 7290.92,-342.837 6383.83,-345.327 6371,-344 6316.05,-338.32 6255.02,-326.03 6208.25,-315.309"/>
<polygon fill="black" stroke="black" points="6209.03,-311.896 6198.5,-313.048 6207.45,-318.716 6209.03,-311.896"/>
<text text-anchor="middle" x="7320.5" y="-355.8" font-family="Times,serif" font-size="14.00">read</text>
</g>
<!-- 1_fwatchdog#ServerID_e56b6537e2d5 -->
<g id="node14" class="node"><title>1_fwatchdog#ServerID_e56b6537e2d5</title>
<polygon fill="none" stroke="black" points="7373.5,-313 7074.5,-313 7074.5,-277 7373.5,-277 7373.5,-313"/>
<text text-anchor="middle" x="7224" y="-291.3" font-family="Times,serif" font-size="14.00">1_fwatchdog#ServerID_e56b6537e2d5</text>
</g>
<!-- localhost:3000#ServerID_e56b6537e2d5 -->
<g id="node15" class="node"><title>localhost:3000#ServerID_e56b6537e2d5</title>
<polygon fill="none" stroke="black" points="7122,-226 6835.45,-208 7122,-190 7408.55,-208 7122,-226"/>
<text text-anchor="middle" x="7122" y="-204.3" font-family="Times,serif" font-size="14.00">localhost:3000#ServerID_e56b6537e2d5</text>
</g>
<!-- 1_fwatchdog#ServerID_e56b6537e2d5&#45;&gt;localhost:3000#ServerID_e56b6537e2d5 -->
<g id="edge17" class="edge"><title>1_fwatchdog#ServerID_e56b6537e2d5&#45;&gt;localhost:3000#ServerID_e56b6537e2d5</title>
<path fill="none" stroke="black" d="M7203.36,-276.799C7187.75,-263.792 7166.18,-245.815 7149.17,-231.64"/>
<polygon fill="black" stroke="black" points="7151.15,-228.738 7141.23,-225.025 7146.67,-234.116 7151.15,-228.738"/>
<text text-anchor="middle" x="7209" y="-247.8" font-family="Times,serif" font-size="14.00">connect</text>
</g>
<!-- 12_node#ServerID_e56b6537e2d5 -->
<g id="node16" class="node"><title>12_node#ServerID_e56b6537e2d5</title>
<polygon fill="none" stroke="black" points="6733.5,-313 6466.5,-313 6466.5,-277 6733.5,-277 6733.5,-313"/>
<text text-anchor="middle" x="6600" y="-291.3" font-family="Times,serif" font-size="14.00">12_node#ServerID_e56b6537e2d5</text>
</g>
<!-- pipe:[331682415]#ServerID_e56b6537e2d5 -->
<g id="node17" class="node"><title>pipe:[331682415]#ServerID_e56b6537e2d5</title>
<ellipse fill="none" stroke="black" cx="6600" cy="-208" rx="217.162" ry="18"/>
<text text-anchor="middle" x="6600" y="-204.3" font-family="Times,serif" font-size="14.00">pipe:[331682415]#ServerID_e56b6537e2d5</text>
</g>
<!-- 12_node#ServerID_e56b6537e2d5&#45;&gt;pipe:[331682415]#ServerID_e56b6537e2d5 -->
<g id="edge20" class="edge"><title>12_node#ServerID_e56b6537e2d5&#45;&gt;pipe:[331682415]#ServerID_e56b6537e2d5</title>
<path fill="none" stroke="black" d="M6600,-276.799C6600,-265.163 6600,-249.548 6600,-236.237"/>
<polygon fill="black" stroke="black" points="6603.5,-236.175 6600,-226.175 6596.5,-236.175 6603.5,-236.175"/>
<text text-anchor="middle" x="6619" y="-247.8" font-family="Times,serif" font-size="14.00">write</text>
</g>
<!-- 10.1.80.247:35138#ServerID_OuterContainerID -->
<g id="node18" class="node"><title>10.1.80.247:35138#ServerID_OuterContainerID</title>
<polygon fill="none" stroke="black" points="3718,-421 3382.52,-403 3718,-385 4053.48,-403 3718,-421"/>
<text text-anchor="middle" x="3718" y="-399.3" font-family="Times,serif" font-size="14.00">10.1.80.247:35138#ServerID_OuterContainerID</text>
</g>
<!-- 10.1.80.247:35138#ServerID_OuterContainerID&#45;&gt;1_fwatchdog#ServerID_e56b6537e2d5 -->
<g id="edge21" class="edge"><title>10.1.80.247:35138#ServerID_OuterContainerID&#45;&gt;1_fwatchdog#ServerID_e56b6537e2d5</title>
<path fill="none" stroke="black" d="M3869.51,-393.099C3929.72,-389.938 3999.61,-386.735 4063,-385 4085.76,-384.377 7324.95,-383.141 7341,-367 7361.83,-346.057 7334.84,-328.712 7301.56,-316.408"/>
<polygon fill="black" stroke="black" points="7302.64,-313.077 7292.04,-313.073 7300.32,-319.683 7302.64,-313.077"/>
<text text-anchor="middle" x="7365.5" y="-355.8" font-family="Times,serif" font-size="14.00">read</text>
</g>
<!-- 10.1.80.1:16980#ServerID_OuterContainerID&#45;&gt;10.1.80.247:8080#ServerID_OuterContainerID -->
<g id="edge23" class="edge"><title>10.1.80.1:16980#ServerID_OuterContainerID&#45;&gt;10.1.80.247:8080#ServerID_OuterContainerID</title>
<path fill="none" stroke="black" d="M972.23,-310.159C912.389,-326.319 809.723,-352.394 720,-367 648.261,-378.678 568.16,-386.798 500.305,-392.254"/>
<polygon fill="black" stroke="black" points="499.647,-388.795 489.955,-393.074 500.2,-395.773 499.647,-388.795"/>
<text text-anchor="middle" x="816" y="-355.8" font-family="Times,serif" font-size="14.00">POST</text>
</g>
</g>
</svg>
