<?xml version="1.0" encoding="UTF-8" standalone="no"?>
<!DOCTYPE svg PUBLIC "-//W3C//DTD SVG 1.1//EN"
 "http://www.w3.org/Graphics/SVG/1.1/DTD/svg11.dtd">
<!-- Generated by graphviz version 2.38.0 (20140413.2041)
 -->
<!-- Title: G Pages: 1 -->
<svg width="4770pt" height="684pt"
 viewBox="0.00 0.00 4770.00 684.00" xmlns="http://www.w3.org/2000/svg" xmlns:xlink="http://www.w3.org/1999/xlink">
<g id="graph0" class="graph" transform="scale(1 1) rotate(0) translate(4 680)">
<title>G</title>
<polygon fill="white" stroke="none" points="-4,4 -4,-680 4766,-680 4766,4 -4,4"/>
<g id="clust1" class="cluster"><title>clusterServerID_34e86192c217</title>
<polygon fill="none" stroke="black" points="1749,-485 1749,-668 3077,-668 3077,-485 1749,-485"/>
<text text-anchor="middle" x="2413" y="-652.8" font-family="Times,serif" font-size="14.00">clusterServerID_34e86192c217</text>
</g>
<g id="clust2" class="cluster"><title>clusterServerID_5f846fd567&#45;w7nbt</title>
<polygon fill="none" stroke="black" points="3364,-269 3364,-344 3704,-344 3704,-269 3364,-269"/>
<text text-anchor="middle" x="3534" y="-328.8" font-family="Times,serif" font-size="14.00">clusterServerID_5f846fd567&#45;w7nbt</text>
</g>
<g id="clust3" class="cluster"><title>clusterServerID_6df85d7674&#45;2kqrj</title>
<polygon fill="none" stroke="black" points="854,-485 854,-560 1192,-560 1192,-485 854,-485"/>
<text text-anchor="middle" x="1023" y="-544.8" font-family="Times,serif" font-size="14.00">clusterServerID_6df85d7674&#45;2kqrj</text>
</g>
<g id="clust4" class="cluster"><title>clusterServerID_OuterContainerID</title>
<polygon fill="none" stroke="black" points="8,-269 8,-452 3356,-452 3356,-269 8,-269"/>
<text text-anchor="middle" x="1682" y="-436.8" font-family="Times,serif" font-size="14.00">clusterServerID_OuterContainerID</text>
</g>
<g id="clust5" class="cluster"><title>clusterServerID_e56b6537e2d5</title>
<polygon fill="none" stroke="black" points="3712,-8 3712,-344 4754,-344 4754,-8 3712,-8"/>
<text text-anchor="middle" x="4233" y="-328.8" font-family="Times,serif" font-size="14.00">clusterServerID_e56b6537e2d5</text>
</g>
<!-- 10.1.80.247:33290#ServerID_OuterContainerID -->
<g id="node1" class="node"><title>10.1.80.247:33290#ServerID_OuterContainerID</title>
<polygon fill="none" stroke="black" points="1024,-421 688.515,-403 1024,-385 1359.48,-403 1024,-421"/>
<text text-anchor="middle" x="1024" y="-399.3" font-family="Times,serif" font-size="14.00">10.1.80.247:33290#ServerID_OuterContainerID</text>
</g>
<!-- 1_fwatchdog#ServerID_6df85d7674&#45;2kqrj -->
<g id="node2" class="node"><title>1_fwatchdog#ServerID_6df85d7674&#45;2kqrj</title>
<polygon fill="none" stroke="black" points="1183.5,-529 862.5,-529 862.5,-493 1183.5,-493 1183.5,-529"/>
<text text-anchor="middle" x="1023" y="-507.3" font-family="Times,serif" font-size="14.00">1_fwatchdog#ServerID_6df85d7674&#45;2kqrj</text>
</g>
<!-- 10.1.80.247:33290#ServerID_OuterContainerID&#45;&gt;1_fwatchdog#ServerID_6df85d7674&#45;2kqrj -->
<g id="edge1" class="edge"><title>10.1.80.247:33290#ServerID_OuterContainerID&#45;&gt;1_fwatchdog#ServerID_6df85d7674&#45;2kqrj</title>
<path fill="none" stroke="black" d="M1039.08,-420.48C1050.24,-434.767 1062.35,-456.067 1055,-475 1053.64,-478.507 1051.74,-481.876 1049.55,-485.046"/>
<polygon fill="black" stroke="black" points="1046.75,-482.944 1043.2,-492.928 1052.2,-487.335 1046.75,-482.944"/>
<text text-anchor="middle" x="1078" y="-463.8" font-family="Times,serif" font-size="14.00">POST</text>
</g>
<!-- 1_fwatchdog#ServerID_34e86192c217 -->
<g id="node7" class="node"><title>1_fwatchdog#ServerID_34e86192c217</title>
<polygon fill="none" stroke="black" points="2931.5,-637 2632.5,-637 2632.5,-601 2931.5,-601 2931.5,-637"/>
<text text-anchor="middle" x="2782" y="-615.3" font-family="Times,serif" font-size="14.00">1_fwatchdog#ServerID_34e86192c217</text>
</g>
<!-- 10.1.80.247:33290#ServerID_OuterContainerID&#45;&gt;1_fwatchdog#ServerID_34e86192c217 -->
<g id="edge12" class="edge"><title>10.1.80.247:33290#ServerID_OuterContainerID&#45;&gt;1_fwatchdog#ServerID_34e86192c217</title>
<path fill="none" stroke="black" d="M1097.4,-417.07C1167.04,-428.792 1274.76,-445.165 1369,-452 1504.2,-461.806 2453.5,-456.094 2589,-460 2643.38,-461.568 3040.53,-445.56 3078,-485 3100.96,-509.164 3099.18,-534.263 3078,-560 3059.56,-582.405 3001.61,-596.282 2941.81,-604.815"/>
<polygon fill="black" stroke="black" points="2941.24,-601.36 2931.81,-606.191 2942.2,-608.294 2941.24,-601.36"/>
<text text-anchor="middle" x="3111.5" y="-507.3" font-family="Times,serif" font-size="14.00">read</text>
</g>
<!-- 1_fwatchdog#ServerID_6df85d7674&#45;2kqrj&#45;&gt;10.1.80.247:33290#ServerID_OuterContainerID -->
<g id="edge8" class="edge"><title>1_fwatchdog#ServerID_6df85d7674&#45;2kqrj&#45;&gt;10.1.80.247:33290#ServerID_OuterContainerID</title>
<path fill="none" stroke="black" d="M984.069,-492.889C971.19,-484.513 961.405,-473.341 967,-460 972.43,-447.053 982.475,-435.591 992.637,-426.463"/>
<polygon fill="black" stroke="black" points="994.969,-429.075 1000.36,-419.952 990.456,-423.724 994.969,-429.075"/>
<text text-anchor="middle" x="1009" y="-463.8" font-family="Times,serif" font-size="14.00">RESPONSE</text>
</g>
<!-- gateway:8080#ServerID_OuterContainerID -->
<g id="node5" class="node"><title>gateway:8080#ServerID_OuterContainerID</title>
<polygon fill="none" stroke="black" points="1682,-421 1377.52,-403 1682,-385 1986.48,-403 1682,-421"/>
<text text-anchor="middle" x="1682" y="-399.3" font-family="Times,serif" font-size="14.00">gateway:8080#ServerID_OuterContainerID</text>
</g>
<!-- 1_fwatchdog#ServerID_6df85d7674&#45;2kqrj&#45;&gt;gateway:8080#ServerID_OuterContainerID -->
<g id="edge7" class="edge"><title>1_fwatchdog#ServerID_6df85d7674&#45;2kqrj&#45;&gt;gateway:8080#ServerID_OuterContainerID</title>
<path fill="none" stroke="black" d="M1109.48,-492.977C1164,-482.597 1235.96,-469.538 1300,-460 1330.1,-455.517 1337.84,-456.078 1368,-452 1445.03,-441.584 1532.43,-428.086 1595.43,-418.057"/>
<polygon fill="black" stroke="black" points="1596,-421.51 1605.33,-416.479 1594.9,-414.598 1596,-421.51"/>
<text text-anchor="middle" x="1320" y="-463.8" font-family="Times,serif" font-size="14.00">POST</text>
</g>
<!-- 10.1.80.247:8080#ServerID_OuterContainerID -->
<g id="node6" class="node"><title>10.1.80.247:8080#ServerID_OuterContainerID</title>
<polygon fill="none" stroke="black" points="343,-421 15.5599,-403 343,-385 670.44,-403 343,-421"/>
<text text-anchor="middle" x="343" y="-399.3" font-family="Times,serif" font-size="14.00">10.1.80.247:8080#ServerID_OuterContainerID</text>
</g>
<!-- 1_fwatchdog#ServerID_6df85d7674&#45;2kqrj&#45;&gt;10.1.80.247:8080#ServerID_OuterContainerID -->
<g id="edge4" class="edge"><title>1_fwatchdog#ServerID_6df85d7674&#45;2kqrj&#45;&gt;10.1.80.247:8080#ServerID_OuterContainerID</title>
<path fill="none" stroke="black" d="M913.746,-492.969C780.644,-472.221 558.211,-437.548 433.981,-418.182"/>
<polygon fill="black" stroke="black" points="434.161,-414.668 423.741,-416.586 433.082,-421.585 434.161,-414.668"/>
<text text-anchor="middle" x="804" y="-463.8" font-family="Times,serif" font-size="14.00">POST</text>
</g>
<!-- 10.1.80.247:35250#ServerID_OuterContainerID -->
<g id="node3" class="node"><title>10.1.80.247:35250#ServerID_OuterContainerID</title>
<polygon fill="none" stroke="black" points="2340,-421 2004.52,-403 2340,-385 2675.48,-403 2340,-421"/>
<text text-anchor="middle" x="2340" y="-399.3" font-family="Times,serif" font-size="14.00">10.1.80.247:35250#ServerID_OuterContainerID</text>
</g>
<!-- 1_fwatchdog#ServerID_5f846fd567&#45;w7nbt -->
<g id="node4" class="node"><title>1_fwatchdog#ServerID_5f846fd567&#45;w7nbt</title>
<polygon fill="none" stroke="black" points="3696,-313 3372,-313 3372,-277 3696,-277 3696,-313"/>
<text text-anchor="middle" x="3534" y="-291.3" font-family="Times,serif" font-size="14.00">1_fwatchdog#ServerID_5f846fd567&#45;w7nbt</text>
</g>
<!-- 10.1.80.247:35250#ServerID_OuterContainerID&#45;&gt;1_fwatchdog#ServerID_5f846fd567&#45;w7nbt -->
<g id="edge2" class="edge"><title>10.1.80.247:35250#ServerID_OuterContainerID&#45;&gt;1_fwatchdog#ServerID_5f846fd567&#45;w7nbt</title>
<path fill="none" stroke="black" d="M2477.08,-392.322C2636.18,-381.344 2906.48,-363.482 3139,-352 3237.17,-347.153 3262.86,-358.948 3360,-344 3398.9,-338.014 3441.52,-326.347 3474.83,-316.015"/>
<polygon fill="black" stroke="black" points="3475.93,-319.34 3484.42,-313.001 3473.83,-312.663 3475.93,-319.34"/>
<text text-anchor="middle" x="3159" y="-355.8" font-family="Times,serif" font-size="14.00">POST</text>
</g>
<!-- 1_fwatchdog#ServerID_e56b6537e2d5 -->
<g id="node12" class="node"><title>1_fwatchdog#ServerID_e56b6537e2d5</title>
<polygon fill="none" stroke="black" points="4156.5,-313 3857.5,-313 3857.5,-277 4156.5,-277 4156.5,-313"/>
<text text-anchor="middle" x="4007" y="-291.3" font-family="Times,serif" font-size="14.00">1_fwatchdog#ServerID_e56b6537e2d5</text>
</g>
<!-- 10.1.80.247:35250#ServerID_OuterContainerID&#45;&gt;1_fwatchdog#ServerID_e56b6537e2d5 -->
<g id="edge18" class="edge"><title>10.1.80.247:35250#ServerID_OuterContainerID&#45;&gt;1_fwatchdog#ServerID_e56b6537e2d5</title>
<path fill="none" stroke="black" d="M2497.54,-393.44C2556.36,-390.454 2623.72,-387.283 2685,-385 3139.72,-368.06 3256.06,-396.944 3708,-344 3773.39,-336.339 3846.36,-324.687 3903.84,-314.782"/>
<polygon fill="black" stroke="black" points="3904.76,-318.174 3914.02,-313.018 3903.57,-311.277 3904.76,-318.174"/>
<text text-anchor="middle" x="3647.5" y="-355.8" font-family="Times,serif" font-size="14.00">read</text>
</g>
<!-- 1_fwatchdog#ServerID_5f846fd567&#45;w7nbt&#45;&gt;10.1.80.247:35250#ServerID_OuterContainerID -->
<g id="edge6" class="edge"><title>1_fwatchdog#ServerID_5f846fd567&#45;w7nbt&#45;&gt;10.1.80.247:35250#ServerID_OuterContainerID</title>
<path fill="none" stroke="black" d="M3480.01,-313.039C3445.89,-323.27 3400.71,-335.841 3360,-344 3065.31,-403.057 2985.28,-372.132 2685,-385 2628.46,-387.423 2566.71,-390.37 2511.29,-393.125"/>
<polygon fill="black" stroke="black" points="2510.83,-389.644 2501.02,-393.637 2511.18,-396.635 2510.83,-389.644"/>
<text text-anchor="middle" x="3352" y="-355.8" font-family="Times,serif" font-size="14.00">RESPONSE</text>
</g>
<!-- gateway:8080#ServerID_OuterContainerID&#45;&gt;1_fwatchdog#ServerID_6df85d7674&#45;2kqrj -->
<g id="edge3" class="edge"><title>gateway:8080#ServerID_OuterContainerID&#45;&gt;1_fwatchdog#ServerID_6df85d7674&#45;2kqrj</title>
<path fill="none" stroke="black" d="M1625.2,-417.718C1558.3,-433.462 1443.63,-459.144 1344,-475 1295.44,-482.728 1242.48,-489.269 1193.83,-494.529"/>
<polygon fill="black" stroke="black" points="1193.41,-491.054 1183.84,-495.598 1194.15,-498.014 1193.41,-491.054"/>
<text text-anchor="middle" x="1470" y="-463.8" font-family="Times,serif" font-size="14.00">RESPONSE</text>
</g>
<!-- 10.1.80.247:8080#ServerID_OuterContainerID&#45;&gt;1_fwatchdog#ServerID_6df85d7674&#45;2kqrj -->
<g id="edge5" class="edge"><title>10.1.80.247:8080#ServerID_OuterContainerID&#45;&gt;1_fwatchdog#ServerID_6df85d7674&#45;2kqrj</title>
<path fill="none" stroke="black" d="M389.336,-418.61C443.231,-435.003 535.155,-461.113 616,-475 692.937,-488.216 778.957,-496.537 852.026,-501.73"/>
<polygon fill="black" stroke="black" points="852.028,-505.239 862.248,-502.442 852.515,-498.256 852.028,-505.239"/>
<text text-anchor="middle" x="658" y="-463.8" font-family="Times,serif" font-size="14.00">RESPONSE</text>
</g>
<!-- 10.1.80.1:64164#ServerID_OuterContainerID -->
<g id="node19" class="node"><title>10.1.80.1:64164#ServerID_OuterContainerID</title>
<polygon fill="none" stroke="black" points="335,-313 16.1049,-295 335,-277 653.895,-295 335,-313"/>
<text text-anchor="middle" x="335" y="-291.3" font-family="Times,serif" font-size="14.00">10.1.80.1:64164#ServerID_OuterContainerID</text>
</g>
<!-- 10.1.80.247:8080#ServerID_OuterContainerID&#45;&gt;10.1.80.1:64164#ServerID_OuterContainerID -->
<g id="edge26" class="edge"><title>10.1.80.247:8080#ServerID_OuterContainerID&#45;&gt;10.1.80.1:64164#ServerID_OuterContainerID</title>
<path fill="none" stroke="black" d="M303.089,-387.103C294.688,-382.04 286.895,-375.453 282,-367 271.93,-349.613 285.936,-331.484 302.069,-317.897"/>
<polygon fill="black" stroke="black" points="304.364,-320.546 310.064,-311.615 300.039,-315.041 304.364,-320.546"/>
<text text-anchor="middle" x="324" y="-355.8" font-family="Times,serif" font-size="14.00">RESPONSE</text>
</g>
<!-- 10.0.88.125:31112#ServerID_OuterContainerID -->
<g id="node20" class="node"><title>10.0.88.125:31112#ServerID_OuterContainerID</title>
<polygon fill="none" stroke="black" points="1007,-313 671.515,-295 1007,-277 1342.48,-295 1007,-313"/>
<text text-anchor="middle" x="1007" y="-291.3" font-family="Times,serif" font-size="14.00">10.0.88.125:31112#ServerID_OuterContainerID</text>
</g>
<!-- 10.1.80.247:8080#ServerID_OuterContainerID&#45;&gt;10.0.88.125:31112#ServerID_OuterContainerID -->
<g id="edge27" class="edge"><title>10.1.80.247:8080#ServerID_OuterContainerID&#45;&gt;10.0.88.125:31112#ServerID_OuterContainerID</title>
<path fill="none" stroke="black" d="M422.434,-389.319C546.818,-369.463 786.788,-331.154 917.247,-310.328"/>
<polygon fill="black" stroke="black" points="917.893,-313.769 927.216,-308.737 916.789,-306.857 917.893,-313.769"/>
<text text-anchor="middle" x="698" y="-355.8" font-family="Times,serif" font-size="14.00">RESPONSE</text>
</g>
<!-- localhost:3000#ServerID_34e86192c217 -->
<g id="node8" class="node"><title>localhost:3000#ServerID_34e86192c217</title>
<polygon fill="none" stroke="black" points="2782,-529 2495.45,-511 2782,-493 3068.55,-511 2782,-529"/>
<text text-anchor="middle" x="2782" y="-507.3" font-family="Times,serif" font-size="14.00">localhost:3000#ServerID_34e86192c217</text>
</g>
<!-- 1_fwatchdog#ServerID_34e86192c217&#45;&gt;localhost:3000#ServerID_34e86192c217 -->
<g id="edge9" class="edge"><title>1_fwatchdog#ServerID_34e86192c217&#45;&gt;localhost:3000#ServerID_34e86192c217</title>
<path fill="none" stroke="black" d="M2782,-600.969C2782,-584.378 2782,-558.883 2782,-539.431"/>
<polygon fill="black" stroke="black" points="2785.5,-539.341 2782,-529.341 2778.5,-539.341 2785.5,-539.341"/>
<text text-anchor="middle" x="2811" y="-571.8" font-family="Times,serif" font-size="14.00">connect</text>
</g>
<!-- 1_fwatchdog#ServerID_34e86192c217&#45;&gt;localhost:3000#ServerID_34e86192c217 -->
<g id="edge11" class="edge"><title>1_fwatchdog#ServerID_34e86192c217&#45;&gt;localhost:3000#ServerID_34e86192c217</title>
<path fill="none" stroke="black" d="M2823.64,-600.892C2830.59,-596.144 2836.87,-590.244 2841,-583 2851.39,-564.764 2835.71,-546.607 2817.92,-533.22"/>
<polygon fill="black" stroke="black" points="2819.87,-530.315 2809.68,-527.421 2815.84,-536.039 2819.87,-530.315"/>
<text text-anchor="middle" x="2864" y="-571.8" font-family="Times,serif" font-size="14.00">write</text>
</g>
<!-- pipe:[331683132]#ServerID_34e86192c217 -->
<g id="node9" class="node"><title>pipe:[331683132]#ServerID_34e86192c217</title>
<ellipse fill="none" stroke="black" cx="2260" cy="-511" rx="217.162" ry="18"/>
<text text-anchor="middle" x="2260" y="-507.3" font-family="Times,serif" font-size="14.00">pipe:[331683132]#ServerID_34e86192c217</text>
</g>
<!-- 1_fwatchdog#ServerID_34e86192c217&#45;&gt;pipe:[331683132]#ServerID_34e86192c217 -->
<g id="edge13" class="edge"><title>1_fwatchdog#ServerID_34e86192c217&#45;&gt;pipe:[331683132]#ServerID_34e86192c217</title>
<path fill="none" stroke="black" d="M2693.2,-600.98C2634.37,-589.611 2555.52,-574.193 2486,-560 2438.88,-550.381 2386.33,-539.244 2343.77,-530.121"/>
<polygon fill="black" stroke="black" points="2344.24,-526.643 2333.73,-527.967 2342.78,-533.487 2344.24,-526.643"/>
<text text-anchor="middle" x="2619" y="-571.8" font-family="Times,serif" font-size="14.00">write</text>
</g>
<!-- localhost:3000#ServerID_34e86192c217&#45;&gt;1_fwatchdog#ServerID_34e86192c217 -->
<g id="edge10" class="edge"><title>localhost:3000#ServerID_34e86192c217&#45;&gt;1_fwatchdog#ServerID_34e86192c217</title>
<path fill="none" stroke="black" d="M2767.48,-528.32C2759.13,-538.841 2749.43,-553.269 2745,-568 2743.08,-574.385 2742.36,-576.877 2745,-583 2746.57,-586.642 2748.72,-590.082 2751.21,-593.279"/>
<polygon fill="black" stroke="black" points="2748.62,-595.639 2757.93,-600.702 2753.81,-590.94 2748.62,-595.639"/>
<text text-anchor="middle" x="2761.5" y="-571.8" font-family="Times,serif" font-size="14.00">read</text>
</g>
<!-- 10_node#ServerID_34e86192c217 -->
<g id="node10" class="node"><title>10_node#ServerID_34e86192c217</title>
<polygon fill="none" stroke="black" points="2024.5,-529 1757.5,-529 1757.5,-493 2024.5,-493 2024.5,-529"/>
<text text-anchor="middle" x="1891" y="-507.3" font-family="Times,serif" font-size="14.00">10_node#ServerID_34e86192c217</text>
</g>
<!-- 10_node#ServerID_34e86192c217&#45;&gt;gateway:8080#ServerID_OuterContainerID -->
<g id="edge14" class="edge"><title>10_node#ServerID_34e86192c217&#45;&gt;gateway:8080#ServerID_OuterContainerID</title>
<path fill="none" stroke="black" d="M1857.42,-492.969C1820.25,-474.115 1760.4,-443.761 1721.13,-423.846"/>
<polygon fill="black" stroke="black" points="1722.61,-420.67 1712.1,-419.268 1719.44,-426.913 1722.61,-420.67"/>
<text text-anchor="middle" x="1847" y="-463.8" font-family="Times,serif" font-size="14.00">connect</text>
</g>
<!-- 10.152.183.10:53#ServerID_OuterContainerID -->
<g id="node11" class="node"><title>10.152.183.10:53#ServerID_OuterContainerID</title>
<polygon fill="none" stroke="black" points="3021,-421 2693.56,-403 3021,-385 3348.44,-403 3021,-421"/>
<text text-anchor="middle" x="3021" y="-399.3" font-family="Times,serif" font-size="14.00">10.152.183.10:53#ServerID_OuterContainerID</text>
</g>
<!-- 10_node#ServerID_34e86192c217&#45;&gt;10.152.183.10:53#ServerID_OuterContainerID -->
<g id="edge16" class="edge"><title>10_node#ServerID_34e86192c217&#45;&gt;10.152.183.10:53#ServerID_OuterContainerID</title>
<path fill="none" stroke="black" d="M1969.64,-492.996C2027.72,-481.28 2108.89,-466.666 2181,-460 2403.63,-439.419 2461.11,-469.576 2684,-452 2771.14,-445.129 2870.08,-430.174 2938.1,-418.771"/>
<polygon fill="black" stroke="black" points="2939.05,-422.161 2948.32,-417.045 2937.88,-415.258 2939.05,-422.161"/>
<text text-anchor="middle" x="2205.5" y="-463.8" font-family="Times,serif" font-size="14.00">sendto</text>
</g>
<!-- 10.152.183.10:53#ServerID_OuterContainerID&#45;&gt;10_node#ServerID_34e86192c217 -->
<g id="edge15" class="edge"><title>10.152.183.10:53#ServerID_OuterContainerID&#45;&gt;10_node#ServerID_34e86192c217</title>
<path fill="none" stroke="black" d="M2944.95,-416.845C2876.8,-427.873 2774,-443.324 2684,-452 2648.01,-455.47 2069.93,-480.962 2034,-485 2019.21,-486.662 2003.63,-488.888 1988.41,-491.329"/>
<polygon fill="black" stroke="black" points="1987.78,-487.886 1978.48,-492.961 1988.92,-494.794 1987.78,-487.886"/>
<text text-anchor="middle" x="2552" y="-463.8" font-family="Times,serif" font-size="14.00">recvfrom</text>
</g>
<!-- localhost:3000#ServerID_e56b6537e2d5 -->
<g id="node13" class="node"><title>localhost:3000#ServerID_e56b6537e2d5</title>
<polygon fill="none" stroke="black" points="4007,-226 3720.45,-208 4007,-190 4293.55,-208 4007,-226"/>
<text text-anchor="middle" x="4007" y="-204.3" font-family="Times,serif" font-size="14.00">localhost:3000#ServerID_e56b6537e2d5</text>
</g>
<!-- 1_fwatchdog#ServerID_e56b6537e2d5&#45;&gt;localhost:3000#ServerID_e56b6537e2d5 -->
<g id="edge17" class="edge"><title>1_fwatchdog#ServerID_e56b6537e2d5&#45;&gt;localhost:3000#ServerID_e56b6537e2d5</title>
<path fill="none" stroke="black" d="M4010.51,-276.985C4011.53,-271.293 4012.5,-264.897 4013,-259 4013.63,-251.54 4013.17,-243.475 4012.28,-236.045"/>
<polygon fill="black" stroke="black" points="4015.73,-235.468 4010.79,-226.094 4008.81,-236.502 4015.73,-235.468"/>
<text text-anchor="middle" x="4032" y="-247.8" font-family="Times,serif" font-size="14.00">write</text>
</g>
<!-- pipe:[331682317]#ServerID_e56b6537e2d5 -->
<g id="node16" class="node"><title>pipe:[331682317]#ServerID_e56b6537e2d5</title>
<ellipse fill="none" stroke="black" cx="4529" cy="-208" rx="217.162" ry="18"/>
<text text-anchor="middle" x="4529" y="-204.3" font-family="Times,serif" font-size="14.00">pipe:[331682317]#ServerID_e56b6537e2d5</text>
</g>
<!-- 1_fwatchdog#ServerID_e56b6537e2d5&#45;&gt;pipe:[331682317]#ServerID_e56b6537e2d5 -->
<g id="edge22" class="edge"><title>1_fwatchdog#ServerID_e56b6537e2d5&#45;&gt;pipe:[331682317]#ServerID_e56b6537e2d5</title>
<path fill="none" stroke="black" d="M4111.69,-276.952C4202.77,-262.121 4334.06,-240.743 4424.95,-225.943"/>
<polygon fill="black" stroke="black" points="4425.69,-229.368 4435,-224.307 4424.57,-222.459 4425.69,-229.368"/>
<text text-anchor="middle" x="4318" y="-247.8" font-family="Times,serif" font-size="14.00">write</text>
</g>
<!-- localhost:3000#ServerID_e56b6537e2d5&#45;&gt;1_fwatchdog#ServerID_e56b6537e2d5 -->
<g id="edge21" class="edge"><title>localhost:3000#ServerID_e56b6537e2d5&#45;&gt;1_fwatchdog#ServerID_e56b6537e2d5</title>
<path fill="none" stroke="black" d="M3988.39,-225.091C3983.4,-230.533 3978.65,-237.017 3976,-244 3972.76,-252.556 3975.58,-261.248 3980.62,-268.932"/>
<polygon fill="black" stroke="black" points="3977.87,-271.092 3986.78,-276.82 3983.38,-266.784 3977.87,-271.092"/>
<text text-anchor="middle" x="3992.5" y="-247.8" font-family="Times,serif" font-size="14.00">read</text>
</g>
<!-- 12_node#ServerID_e56b6537e2d5 -->
<g id="node14" class="node"><title>12_node#ServerID_e56b6537e2d5</title>
<polygon fill="none" stroke="black" points="4140.5,-139 3873.5,-139 3873.5,-103 4140.5,-103 4140.5,-139"/>
<text text-anchor="middle" x="4007" y="-117.3" font-family="Times,serif" font-size="14.00">12_node#ServerID_e56b6537e2d5</text>
</g>
<!-- localhost:3000#ServerID_e56b6537e2d5&#45;&gt;12_node#ServerID_e56b6537e2d5 -->
<g id="edge20" class="edge"><title>localhost:3000#ServerID_e56b6537e2d5&#45;&gt;12_node#ServerID_e56b6537e2d5</title>
<path fill="none" stroke="black" d="M4007,-189.799C4007,-178.163 4007,-162.548 4007,-149.237"/>
<polygon fill="black" stroke="black" points="4010.5,-149.175 4007,-139.175 4003.5,-149.175 4010.5,-149.175"/>
<text text-anchor="middle" x="4023.5" y="-160.8" font-family="Times,serif" font-size="14.00">read</text>
</g>
<!-- pipe:[331682415]#ServerID_e56b6537e2d5 -->
<g id="node15" class="node"><title>pipe:[331682415]#ServerID_e56b6537e2d5</title>
<ellipse fill="none" stroke="black" cx="4007" cy="-34" rx="217.162" ry="18"/>
<text text-anchor="middle" x="4007" y="-30.3" font-family="Times,serif" font-size="14.00">pipe:[331682415]#ServerID_e56b6537e2d5</text>
</g>
<!-- 12_node#ServerID_e56b6537e2d5&#45;&gt;pipe:[331682415]#ServerID_e56b6537e2d5 -->
<g id="edge19" class="edge"><title>12_node#ServerID_e56b6537e2d5&#45;&gt;pipe:[331682415]#ServerID_e56b6537e2d5</title>
<path fill="none" stroke="black" d="M4007,-102.799C4007,-91.1626 4007,-75.5479 4007,-62.2368"/>
<polygon fill="black" stroke="black" points="4010.5,-62.1754 4007,-52.1754 4003.5,-62.1755 4010.5,-62.1754"/>
<text text-anchor="middle" x="4026" y="-73.8" font-family="Times,serif" font-size="14.00">write</text>
</g>
<!-- /etc/hosts#ServerID_34e86192c217 -->
<g id="node17" class="node"><title>/etc/hosts#ServerID_34e86192c217</title>
<ellipse fill="none" stroke="black" cx="1937" cy="-619" rx="180.068" ry="18"/>
<text text-anchor="middle" x="1937" y="-615.3" font-family="Times,serif" font-size="14.00">/etc/hosts#ServerID_34e86192c217</text>
</g>
<!-- /etc/hosts#ServerID_34e86192c217&#45;&gt;10_node#ServerID_34e86192c217 -->
<g id="edge23" class="edge"><title>/etc/hosts#ServerID_34e86192c217&#45;&gt;10_node#ServerID_34e86192c217</title>
<path fill="none" stroke="black" d="M1929.61,-600.969C1922.31,-584.148 1911.04,-558.173 1902.55,-538.624"/>
<polygon fill="black" stroke="black" points="1905.72,-537.121 1898.53,-529.341 1899.3,-539.907 1905.72,-537.121"/>
<text text-anchor="middle" x="1937.5" y="-571.8" font-family="Times,serif" font-size="14.00">read</text>
</g>
<!-- /etc/resolv.conf#ServerID_34e86192c217 -->
<g id="node18" class="node"><title>/etc/resolv.conf#ServerID_34e86192c217</title>
<ellipse fill="none" stroke="black" cx="2340" cy="-619" rx="205.264" ry="18"/>
<text text-anchor="middle" x="2340" y="-615.3" font-family="Times,serif" font-size="14.00">/etc/resolv.conf#ServerID_34e86192c217</text>
</g>
<!-- /etc/resolv.conf#ServerID_34e86192c217&#45;&gt;10_node#ServerID_34e86192c217 -->
<g id="edge24" class="edge"><title>/etc/resolv.conf#ServerID_34e86192c217&#45;&gt;10_node#ServerID_34e86192c217</title>
<path fill="none" stroke="black" d="M2243.12,-603.117C2182.55,-592.957 2103.19,-578.078 2034,-560 2004.55,-552.305 1972.37,-541.703 1946,-532.42"/>
<polygon fill="black" stroke="black" points="1947.16,-529.118 1936.57,-529.068 1944.82,-535.714 1947.16,-529.118"/>
<text text-anchor="middle" x="2151.5" y="-571.8" font-family="Times,serif" font-size="14.00">read</text>
</g>
<!-- 10.1.80.1:64164#ServerID_OuterContainerID&#45;&gt;10.1.80.247:8080#ServerID_OuterContainerID -->
<g id="edge25" class="edge"><title>10.1.80.1:64164#ServerID_OuterContainerID&#45;&gt;10.1.80.247:8080#ServerID_OuterContainerID</title>
<path fill="none" stroke="black" d="M348.743,-312.449C356.653,-323.019 365.828,-337.453 370,-352 371.838,-358.408 372.151,-360.69 370,-367 368.79,-370.55 367.057,-374.021 365.047,-377.312"/>
<polygon fill="black" stroke="black" points="362.147,-375.351 359.24,-385.54 367.866,-379.387 362.147,-375.351"/>
<text text-anchor="middle" x="392" y="-355.8" font-family="Times,serif" font-size="14.00">POST</text>
</g>
</g>
</svg>
