<?xml version="1.0" encoding="UTF-8" standalone="no"?>
<!DOCTYPE svg PUBLIC "-//W3C//DTD SVG 1.1//EN"
 "http://www.w3.org/Graphics/SVG/1.1/DTD/svg11.dtd">
<!-- Generated by graphviz version 2.38.0 (20140413.2041)
 -->
<!-- Title: G Pages: 1 -->
<svg width="5551pt" height="645pt"
 viewBox="0.00 0.00 5551.00 645.00" xmlns="http://www.w3.org/2000/svg" xmlns:xlink="http://www.w3.org/1999/xlink">
<g id="graph0" class="graph" transform="scale(1 1) rotate(0) translate(4 641)">
<title>G</title>
<polygon fill="white" stroke="none" points="-4,4 -4,-641 5547,-641 5547,4 -4,4"/>
<g id="clust1" class="cluster"><title>clusterServerID_34e86192c217</title>
<polygon fill="none" stroke="black" points="8,-182 8,-498 1130,-498 1130,-182 8,-182"/>
<text text-anchor="middle" x="569" y="-482.8" font-family="Times,serif" font-size="14.00">clusterServerID_34e86192c217</text>
</g>
<g id="clust2" class="cluster"><title>clusterServerID_5f846fd567&#45;w7nbt</title>
<polygon fill="none" stroke="black" points="3971,-531 3971,-629 4311,-629 4311,-531 3971,-531"/>
<text text-anchor="middle" x="4141" y="-613.8" font-family="Times,serif" font-size="14.00">clusterServerID_5f846fd567&#45;w7nbt</text>
</g>
<g id="clust3" class="cluster"><title>clusterServerID_6df85d7674&#45;2kqrj</title>
<polygon fill="none" stroke="black" points="1939,-531 1939,-629 2277,-629 2277,-531 1939,-531"/>
<text text-anchor="middle" x="2108" y="-613.8" font-family="Times,serif" font-size="14.00">clusterServerID_6df85d7674&#45;2kqrj</text>
</g>
<g id="clust4" class="cluster"><title>clusterServerID_OuterContainerID</title>
<polygon fill="none" stroke="black" points="1138,-269 1138,-498 4485,-498 4485,-269 1138,-269"/>
<text text-anchor="middle" x="2811.5" y="-482.8" font-family="Times,serif" font-size="14.00">clusterServerID_OuterContainerID</text>
</g>
<g id="clust5" class="cluster"><title>clusterServerID_e56b6537e2d5</title>
<polygon fill="none" stroke="black" points="4493,-8 4493,-367 5535,-367 5535,-8 4493,-8"/>
<text text-anchor="middle" x="5014" y="-351.8" font-family="Times,serif" font-size="14.00">clusterServerID_e56b6537e2d5</text>
</g>
<!-- 10.1.80.247:33214#ServerID_OuterContainerID -->
<g id="node1" class="node"><title>10.1.80.247:33214#ServerID_OuterContainerID</title>
<polygon fill="none" stroke="black" points="2108,-444 1772.52,-426 2108,-408 2443.48,-426 2108,-444"/>
<text text-anchor="middle" x="2108" y="-422.3" font-family="Times,serif" font-size="14.00">10.1.80.247:33214#ServerID_OuterContainerID</text>
</g>
<!-- 1_fwatchdog#ServerID_6df85d7674&#45;2kqrj -->
<g id="node2" class="node"><title>1_fwatchdog#ServerID_6df85d7674&#45;2kqrj</title>
<polygon fill="none" stroke="black" points="2268.5,-575 1947.5,-575 1947.5,-539 2268.5,-539 2268.5,-575"/>
<text text-anchor="middle" x="2108" y="-553.3" font-family="Times,serif" font-size="14.00">1_fwatchdog#ServerID_6df85d7674&#45;2kqrj</text>
</g>
<!-- 10.1.80.247:33214#ServerID_OuterContainerID&#45;&gt;1_fwatchdog#ServerID_6df85d7674&#45;2kqrj -->
<g id="edge1" class="edge"><title>10.1.80.247:33214#ServerID_OuterContainerID&#45;&gt;1_fwatchdog#ServerID_6df85d7674&#45;2kqrj</title>
<path fill="none" stroke="black" d="M2096.04,-443.456C2083.87,-462.342 2068.07,-494.169 2078,-521 2079.23,-524.328 2080.94,-527.554 2082.91,-530.612"/>
<polygon fill="black" stroke="black" points="2080.22,-532.86 2089.04,-538.736 2085.81,-528.644 2080.22,-532.86"/>
<text text-anchor="middle" x="2098" y="-509.8" font-family="Times,serif" font-size="14.00">POST</text>
</g>
<!-- 1_fwatchdog#ServerID_34e86192c217 -->
<g id="node7" class="node"><title>1_fwatchdog#ServerID_34e86192c217</title>
<polygon fill="none" stroke="black" points="315.5,-444 16.5,-444 16.5,-408 315.5,-408 315.5,-444"/>
<text text-anchor="middle" x="166" y="-422.3" font-family="Times,serif" font-size="14.00">1_fwatchdog#ServerID_34e86192c217</text>
</g>
<!-- 10.1.80.247:33214#ServerID_OuterContainerID&#45;&gt;1_fwatchdog#ServerID_34e86192c217 -->
<g id="edge10" class="edge"><title>10.1.80.247:33214#ServerID_OuterContainerID&#45;&gt;1_fwatchdog#ServerID_34e86192c217</title>
<path fill="none" stroke="black" d="M2053.28,-441.066C1985.7,-458.823 1866.92,-487.271 1763,-498 1604.07,-514.408 481.18,-531.714 325,-498 281.596,-488.631 235.786,-466.397 204.545,-449.096"/>
<polygon fill="black" stroke="black" points="206.166,-445.992 195.735,-444.134 202.73,-452.091 206.166,-445.992"/>
<text text-anchor="middle" x="1657" y="-509.8" font-family="Times,serif" font-size="14.00">read</text>
</g>
<!-- 1_fwatchdog#ServerID_6df85d7674&#45;2kqrj&#45;&gt;10.1.80.247:33214#ServerID_OuterContainerID -->
<g id="edge3" class="edge"><title>1_fwatchdog#ServerID_6df85d7674&#45;2kqrj&#45;&gt;10.1.80.247:33214#ServerID_OuterContainerID</title>
<path fill="none" stroke="black" d="M2113.96,-538.759C2115.61,-533.165 2117.18,-526.883 2118,-521 2121.15,-498.478 2117.96,-472.795 2114.37,-453.973"/>
<polygon fill="black" stroke="black" points="2117.77,-453.107 2112.32,-444.023 2110.91,-454.524 2117.77,-453.107"/>
<text text-anchor="middle" x="2162" y="-509.8" font-family="Times,serif" font-size="14.00">RESPONSE</text>
</g>
<!-- 10.1.80.247:8080#ServerID_OuterContainerID -->
<g id="node3" class="node"><title>10.1.80.247:8080#ServerID_OuterContainerID</title>
<polygon fill="none" stroke="black" points="3461,-444 3133.56,-426 3461,-408 3788.44,-426 3461,-444"/>
<text text-anchor="middle" x="3461" y="-422.3" font-family="Times,serif" font-size="14.00">10.1.80.247:8080#ServerID_OuterContainerID</text>
</g>
<!-- 1_fwatchdog#ServerID_6df85d7674&#45;2kqrj&#45;&gt;10.1.80.247:8080#ServerID_OuterContainerID -->
<g id="edge5" class="edge"><title>1_fwatchdog#ServerID_6df85d7674&#45;2kqrj&#45;&gt;10.1.80.247:8080#ServerID_OuterContainerID</title>
<path fill="none" stroke="black" d="M2268.51,-544.286C2426.15,-533.119 2673.52,-516.492 2888,-506 2993.27,-500.851 3020.38,-510.721 3125,-498 3221.41,-486.278 3331.16,-460.728 3398.25,-443.693"/>
<polygon fill="black" stroke="black" points="3399.41,-447.008 3408.23,-441.14 3397.68,-440.226 3399.41,-447.008"/>
<text text-anchor="middle" x="2908" y="-509.8" font-family="Times,serif" font-size="14.00">POST</text>
</g>
<!-- gateway:8080#ServerID_OuterContainerID -->
<g id="node4" class="node"><title>gateway:8080#ServerID_OuterContainerID</title>
<polygon fill="none" stroke="black" points="1450,-444 1145.52,-426 1450,-408 1754.48,-426 1450,-444"/>
<text text-anchor="middle" x="1450" y="-422.3" font-family="Times,serif" font-size="14.00">gateway:8080#ServerID_OuterContainerID</text>
</g>
<!-- 1_fwatchdog#ServerID_6df85d7674&#45;2kqrj&#45;&gt;gateway:8080#ServerID_OuterContainerID -->
<g id="edge4" class="edge"><title>1_fwatchdog#ServerID_6df85d7674&#45;2kqrj&#45;&gt;gateway:8080#ServerID_OuterContainerID</title>
<path fill="none" stroke="black" d="M1947.45,-553.716C1822.11,-550.318 1659,-541.889 1596,-521 1549.84,-505.696 1503.88,-472.355 1476.2,-449.785"/>
<polygon fill="black" stroke="black" points="1478.15,-446.852 1468.22,-443.159 1473.68,-452.238 1478.15,-446.852"/>
<text text-anchor="middle" x="1616" y="-509.8" font-family="Times,serif" font-size="14.00">POST</text>
</g>
<!-- 10.1.80.247:8080#ServerID_OuterContainerID&#45;&gt;1_fwatchdog#ServerID_6df85d7674&#45;2kqrj -->
<g id="edge2" class="edge"><title>10.1.80.247:8080#ServerID_OuterContainerID&#45;&gt;1_fwatchdog#ServerID_6df85d7674&#45;2kqrj</title>
<path fill="none" stroke="black" d="M3407.03,-441.044C3341.01,-457.607 3225.61,-484.579 3125,-498 2829.14,-537.465 2481.35,-550.102 2278.7,-554.133"/>
<polygon fill="black" stroke="black" points="2278.49,-550.636 2268.56,-554.33 2278.63,-557.635 2278.49,-550.636"/>
<text text-anchor="middle" x="3086" y="-509.8" font-family="Times,serif" font-size="14.00">RESPONSE</text>
</g>
<!-- 10.1.80.1:43138#ServerID_OuterContainerID -->
<g id="node19" class="node"><title>10.1.80.1:43138#ServerID_OuterContainerID</title>
<polygon fill="none" stroke="black" points="3524,-313 3205.1,-295 3524,-277 3842.9,-295 3524,-313"/>
<text text-anchor="middle" x="3524" y="-291.3" font-family="Times,serif" font-size="14.00">10.1.80.1:43138#ServerID_OuterContainerID</text>
</g>
<!-- 10.1.80.247:8080#ServerID_OuterContainerID&#45;&gt;10.1.80.1:43138#ServerID_OuterContainerID -->
<g id="edge25" class="edge"><title>10.1.80.247:8080#ServerID_OuterContainerID&#45;&gt;10.1.80.1:43138#ServerID_OuterContainerID</title>
<path fill="none" stroke="black" d="M3484.83,-409.01C3491.25,-403.655 3497.62,-397.194 3502,-390 3514.36,-369.709 3519.78,-343.069 3522.15,-323.332"/>
<polygon fill="black" stroke="black" points="3525.65,-323.463 3523.18,-313.161 3518.69,-322.757 3525.65,-323.463"/>
<text text-anchor="middle" x="3552" y="-378.8" font-family="Times,serif" font-size="14.00">RESPONSE</text>
</g>
<!-- 10.0.88.125:31112#ServerID_OuterContainerID -->
<g id="node20" class="node"><title>10.0.88.125:31112#ServerID_OuterContainerID</title>
<polygon fill="none" stroke="black" points="2852,-313 2516.52,-295 2852,-277 3187.48,-295 2852,-313"/>
<text text-anchor="middle" x="2852" y="-291.3" font-family="Times,serif" font-size="14.00">10.0.88.125:31112#ServerID_OuterContainerID</text>
</g>
<!-- 10.1.80.247:8080#ServerID_OuterContainerID&#45;&gt;10.0.88.125:31112#ServerID_OuterContainerID -->
<g id="edge26" class="edge"><title>10.1.80.247:8080#ServerID_OuterContainerID&#45;&gt;10.0.88.125:31112#ServerID_OuterContainerID</title>
<path fill="none" stroke="black" d="M3397.26,-411.499C3283.64,-387.43 3046.7,-337.242 2926.05,-311.685"/>
<polygon fill="black" stroke="black" points="2926.66,-308.237 2916.15,-309.589 2925.21,-315.085 2926.66,-308.237"/>
<text text-anchor="middle" x="3324" y="-378.8" font-family="Times,serif" font-size="14.00">RESPONSE</text>
</g>
<!-- gateway:8080#ServerID_OuterContainerID&#45;&gt;1_fwatchdog#ServerID_6df85d7674&#45;2kqrj -->
<g id="edge7" class="edge"><title>gateway:8080#ServerID_OuterContainerID&#45;&gt;1_fwatchdog#ServerID_6df85d7674&#45;2kqrj</title>
<path fill="none" stroke="black" d="M1506.24,-440.704C1568.92,-455.747 1673.39,-480.131 1764,-498 1838.04,-512.601 1921.5,-526.729 1987.67,-537.386"/>
<polygon fill="black" stroke="black" points="1987.29,-540.87 1997.72,-538.999 1988.4,-533.958 1987.29,-540.87"/>
<text text-anchor="middle" x="1929" y="-509.8" font-family="Times,serif" font-size="14.00">RESPONSE</text>
</g>
<!-- 10_node#ServerID_34e86192c217 -->
<g id="node9" class="node"><title>10_node#ServerID_34e86192c217</title>
<polygon fill="none" stroke="black" points="1121.5,-313 854.5,-313 854.5,-277 1121.5,-277 1121.5,-313"/>
<text text-anchor="middle" x="988" y="-291.3" font-family="Times,serif" font-size="14.00">10_node#ServerID_34e86192c217</text>
</g>
<!-- gateway:8080#ServerID_OuterContainerID&#45;&gt;10_node#ServerID_34e86192c217 -->
<g id="edge22" class="edge"><title>gateway:8080#ServerID_OuterContainerID&#45;&gt;10_node#ServerID_34e86192c217</title>
<path fill="none" stroke="black" d="M1408.03,-410.345C1372.53,-398.631 1320.08,-382.907 1273,-375 1211.97,-364.751 1193.88,-382.613 1134,-367 1094.13,-356.605 1052.19,-334.931 1023.54,-318.249"/>
<polygon fill="black" stroke="black" points="1025.11,-315.113 1014.73,-313.028 1021.55,-321.136 1025.11,-315.113"/>
<text text-anchor="middle" x="1354.5" y="-378.8" font-family="Times,serif" font-size="14.00">read</text>
</g>
<!-- 1_fwatchdog#ServerID_5f846fd567&#45;w7nbt -->
<g id="node5" class="node"><title>1_fwatchdog#ServerID_5f846fd567&#45;w7nbt</title>
<polygon fill="none" stroke="black" points="4303,-575 3979,-575 3979,-539 4303,-539 4303,-575"/>
<text text-anchor="middle" x="4141" y="-553.3" font-family="Times,serif" font-size="14.00">1_fwatchdog#ServerID_5f846fd567&#45;w7nbt</text>
</g>
<!-- 10.1.80.247:35158#ServerID_OuterContainerID -->
<g id="node6" class="node"><title>10.1.80.247:35158#ServerID_OuterContainerID</title>
<polygon fill="none" stroke="black" points="4142,-444 3806.52,-426 4142,-408 4477.48,-426 4142,-444"/>
<text text-anchor="middle" x="4142" y="-422.3" font-family="Times,serif" font-size="14.00">10.1.80.247:35158#ServerID_OuterContainerID</text>
</g>
<!-- 1_fwatchdog#ServerID_5f846fd567&#45;w7nbt&#45;&gt;10.1.80.247:35158#ServerID_OuterContainerID -->
<g id="edge6" class="edge"><title>1_fwatchdog#ServerID_5f846fd567&#45;w7nbt&#45;&gt;10.1.80.247:35158#ServerID_OuterContainerID</title>
<path fill="none" stroke="black" d="M4105.26,-538.861C4098.73,-534.032 4092.78,-528.108 4089,-521 4085.87,-515.115 4087.06,-512.378 4089,-506 4095.15,-485.792 4108.38,-466.057 4120.09,-451.367"/>
<polygon fill="black" stroke="black" points="4123.06,-453.27 4126.74,-443.335 4117.67,-448.806 4123.06,-453.27"/>
<text text-anchor="middle" x="4131" y="-509.8" font-family="Times,serif" font-size="14.00">RESPONSE</text>
</g>
<!-- 10.1.80.247:35158#ServerID_OuterContainerID&#45;&gt;1_fwatchdog#ServerID_5f846fd567&#45;w7nbt -->
<g id="edge8" class="edge"><title>10.1.80.247:35158#ServerID_OuterContainerID&#45;&gt;1_fwatchdog#ServerID_5f846fd567&#45;w7nbt</title>
<path fill="none" stroke="black" d="M4154.4,-443.484C4167.03,-462.397 4183.39,-494.248 4173,-521 4171.64,-524.507 4169.74,-527.876 4167.55,-531.046"/>
<polygon fill="black" stroke="black" points="4164.75,-528.944 4161.2,-538.928 4170.2,-533.335 4164.75,-528.944"/>
<text text-anchor="middle" x="4197" y="-509.8" font-family="Times,serif" font-size="14.00">POST</text>
</g>
<!-- 1_fwatchdog#ServerID_e56b6537e2d5 -->
<g id="node14" class="node"><title>1_fwatchdog#ServerID_e56b6537e2d5</title>
<polygon fill="none" stroke="black" points="5050.5,-313 4751.5,-313 4751.5,-277 5050.5,-277 5050.5,-313"/>
<text text-anchor="middle" x="4901" y="-291.3" font-family="Times,serif" font-size="14.00">1_fwatchdog#ServerID_e56b6537e2d5</text>
</g>
<!-- 10.1.80.247:35158#ServerID_OuterContainerID&#45;&gt;1_fwatchdog#ServerID_e56b6537e2d5 -->
<g id="edge17" class="edge"><title>10.1.80.247:35158#ServerID_OuterContainerID&#45;&gt;1_fwatchdog#ServerID_e56b6537e2d5</title>
<path fill="none" stroke="black" d="M4219.54,-412.154C4289.88,-400.474 4396.42,-382.715 4489,-367 4592.15,-349.492 4709.75,-329.191 4792.84,-314.793"/>
<polygon fill="black" stroke="black" points="4793.54,-318.223 4802.79,-313.067 4792.34,-311.326 4793.54,-318.223"/>
<text text-anchor="middle" x="4449.5" y="-378.8" font-family="Times,serif" font-size="14.00">read</text>
</g>
<!-- localhost:3000#ServerID_34e86192c217 -->
<g id="node8" class="node"><title>localhost:3000#ServerID_34e86192c217</title>
<polygon fill="none" stroke="black" points="303,-313 16.4457,-295 303,-277 589.554,-295 303,-313"/>
<text text-anchor="middle" x="303" y="-291.3" font-family="Times,serif" font-size="14.00">localhost:3000#ServerID_34e86192c217</text>
</g>
<!-- 1_fwatchdog#ServerID_34e86192c217&#45;&gt;localhost:3000#ServerID_34e86192c217 -->
<g id="edge9" class="edge"><title>1_fwatchdog#ServerID_34e86192c217&#45;&gt;localhost:3000#ServerID_34e86192c217</title>
<path fill="none" stroke="black" d="M184.193,-407.87C208.439,-385.039 251.427,-344.562 278.505,-319.064"/>
<polygon fill="black" stroke="black" points="281.145,-321.386 286.026,-311.983 276.346,-316.29 281.145,-321.386"/>
<text text-anchor="middle" x="238" y="-378.8" font-family="Times,serif" font-size="14.00">write</text>
</g>
<!-- 10_node#ServerID_34e86192c217&#45;&gt;gateway:8080#ServerID_OuterContainerID -->
<g id="edge18" class="edge"><title>10_node#ServerID_34e86192c217&#45;&gt;gateway:8080#ServerID_OuterContainerID</title>
<path fill="none" stroke="black" d="M1017.2,-313.144C1045.99,-329.324 1091.69,-353.115 1134,-367 1201.02,-388.993 1278.94,-403.41 1340.63,-412.37"/>
<polygon fill="black" stroke="black" points="1340.38,-415.871 1350.78,-413.816 1341.37,-408.941 1340.38,-415.871"/>
<text text-anchor="middle" x="1240" y="-378.8" font-family="Times,serif" font-size="14.00">connect</text>
</g>
<!-- pipe:[331683264]#ServerID_34e86192c217 -->
<g id="node10" class="node"><title>pipe:[331683264]#ServerID_34e86192c217</title>
<ellipse fill="none" stroke="black" cx="905" cy="-208" rx="217.162" ry="18"/>
<text text-anchor="middle" x="905" y="-204.3" font-family="Times,serif" font-size="14.00">pipe:[331683264]#ServerID_34e86192c217</text>
</g>
<!-- 10_node#ServerID_34e86192c217&#45;&gt;pipe:[331683264]#ServerID_34e86192c217 -->
<g id="edge11" class="edge"><title>10_node#ServerID_34e86192c217&#45;&gt;pipe:[331683264]#ServerID_34e86192c217</title>
<path fill="none" stroke="black" d="M971.204,-276.799C959.054,-264.356 942.462,-247.364 928.928,-233.504"/>
<polygon fill="black" stroke="black" points="931.262,-230.885 921.771,-226.175 926.254,-235.775 931.262,-230.885"/>
<text text-anchor="middle" x="971" y="-247.8" font-family="Times,serif" font-size="14.00">write</text>
</g>
<!-- 10.152.183.10:53#ServerID_OuterContainerID -->
<g id="node12" class="node"><title>10.152.183.10:53#ServerID_OuterContainerID</title>
<polygon fill="none" stroke="black" points="2789,-444 2461.56,-426 2789,-408 3116.44,-426 2789,-444"/>
<text text-anchor="middle" x="2789" y="-422.3" font-family="Times,serif" font-size="14.00">10.152.183.10:53#ServerID_OuterContainerID</text>
</g>
<!-- 10_node#ServerID_34e86192c217&#45;&gt;10.152.183.10:53#ServerID_OuterContainerID -->
<g id="edge13" class="edge"><title>10_node#ServerID_34e86192c217&#45;&gt;10.152.183.10:53#ServerID_OuterContainerID</title>
<path fill="none" stroke="black" d="M1014.1,-313.153C1042.31,-330.6 1089.27,-356.519 1134,-367 1190.15,-380.157 2114.39,-372.447 2172,-375 2346.13,-382.716 2547.28,-400.725 2671.32,-412.887"/>
<polygon fill="black" stroke="black" points="2671.3,-416.402 2681.59,-413.898 2671.98,-409.436 2671.3,-416.402"/>
<text text-anchor="middle" x="2434.5" y="-378.8" font-family="Times,serif" font-size="14.00">sendto</text>
</g>
<!-- /etc/hosts#ServerID_34e86192c217 -->
<g id="node11" class="node"><title>/etc/hosts#ServerID_34e86192c217</title>
<ellipse fill="none" stroke="black" cx="514" cy="-426" rx="180.068" ry="18"/>
<text text-anchor="middle" x="514" y="-422.3" font-family="Times,serif" font-size="14.00">/etc/hosts#ServerID_34e86192c217</text>
</g>
<!-- /etc/hosts#ServerID_34e86192c217&#45;&gt;10_node#ServerID_34e86192c217 -->
<g id="edge12" class="edge"><title>/etc/hosts#ServerID_34e86192c217&#45;&gt;10_node#ServerID_34e86192c217</title>
<path fill="none" stroke="black" d="M573.074,-408.923C659.842,-385.309 821.59,-341.289 915.456,-315.743"/>
<polygon fill="black" stroke="black" points="916.43,-319.105 925.16,-313.102 914.592,-312.351 916.43,-319.105"/>
<text text-anchor="middle" x="711.5" y="-378.8" font-family="Times,serif" font-size="14.00">read</text>
</g>
<!-- 10.152.183.10:53#ServerID_OuterContainerID&#45;&gt;10_node#ServerID_34e86192c217 -->
<g id="edge15" class="edge"><title>10.152.183.10:53#ServerID_OuterContainerID&#45;&gt;10_node#ServerID_34e86192c217</title>
<path fill="none" stroke="black" d="M2633.42,-416.523C2576.37,-413.581 2511.26,-410.416 2452,-408 2447.43,-407.813 1138.45,-368.097 1134,-367 1093.87,-357.101 1051.82,-335.249 1023.2,-318.384"/>
<polygon fill="black" stroke="black" points="1024.78,-315.249 1014.41,-313.105 1021.18,-321.251 1024.78,-315.249"/>
<text text-anchor="middle" x="1866" y="-378.8" font-family="Times,serif" font-size="14.00">recvfrom</text>
</g>
<!-- /etc/resolv.conf#ServerID_34e86192c217 -->
<g id="node13" class="node"><title>/etc/resolv.conf#ServerID_34e86192c217</title>
<ellipse fill="none" stroke="black" cx="917" cy="-426" rx="205.264" ry="18"/>
<text text-anchor="middle" x="917" y="-422.3" font-family="Times,serif" font-size="14.00">/etc/resolv.conf#ServerID_34e86192c217</text>
</g>
<!-- /etc/resolv.conf#ServerID_34e86192c217&#45;&gt;10_node#ServerID_34e86192c217 -->
<g id="edge14" class="edge"><title>/etc/resolv.conf#ServerID_34e86192c217&#45;&gt;10_node#ServerID_34e86192c217</title>
<path fill="none" stroke="black" d="M926.428,-407.87C938.523,-385.895 959.615,-347.573 973.693,-321.994"/>
<polygon fill="black" stroke="black" points="976.777,-323.649 978.533,-313.201 970.645,-320.274 976.777,-323.649"/>
<text text-anchor="middle" x="961.5" y="-378.8" font-family="Times,serif" font-size="14.00">read</text>
</g>
<!-- localhost:3000#ServerID_e56b6537e2d5 -->
<g id="node15" class="node"><title>localhost:3000#ServerID_e56b6537e2d5</title>
<polygon fill="none" stroke="black" points="5240,-226 4953.45,-208 5240,-190 5526.55,-208 5240,-226"/>
<text text-anchor="middle" x="5240" y="-204.3" font-family="Times,serif" font-size="14.00">localhost:3000#ServerID_e56b6537e2d5</text>
</g>
<!-- 1_fwatchdog#ServerID_e56b6537e2d5&#45;&gt;localhost:3000#ServerID_e56b6537e2d5 -->
<g id="edge16" class="edge"><title>1_fwatchdog#ServerID_e56b6537e2d5&#45;&gt;localhost:3000#ServerID_e56b6537e2d5</title>
<path fill="none" stroke="black" d="M4989.36,-276.958C5015.13,-271.619 5043.28,-265.43 5069,-259 5108.19,-249.204 5151.9,-236.389 5185.32,-226.185"/>
<polygon fill="black" stroke="black" points="5186.37,-229.525 5194.9,-223.246 5184.32,-222.833 5186.37,-229.525"/>
<text text-anchor="middle" x="5140" y="-247.8" font-family="Times,serif" font-size="14.00">write</text>
</g>
<!-- pipe:[331682317]#ServerID_e56b6537e2d5 -->
<g id="node18" class="node"><title>pipe:[331682317]#ServerID_e56b6537e2d5</title>
<ellipse fill="none" stroke="black" cx="4718" cy="-208" rx="217.162" ry="18"/>
<text text-anchor="middle" x="4718" y="-204.3" font-family="Times,serif" font-size="14.00">pipe:[331682317]#ServerID_e56b6537e2d5</text>
</g>
<!-- 1_fwatchdog#ServerID_e56b6537e2d5&#45;&gt;pipe:[331682317]#ServerID_e56b6537e2d5 -->
<g id="edge23" class="edge"><title>1_fwatchdog#ServerID_e56b6537e2d5&#45;&gt;pipe:[331682317]#ServerID_e56b6537e2d5</title>
<path fill="none" stroke="black" d="M4863.97,-276.799C4835,-263.346 4794.6,-244.577 4763.64,-230.197"/>
<polygon fill="black" stroke="black" points="4764.9,-226.924 4754.35,-225.885 4761.95,-233.272 4764.9,-226.924"/>
<text text-anchor="middle" x="4839" y="-247.8" font-family="Times,serif" font-size="14.00">write</text>
</g>
<!-- localhost:3000#ServerID_e56b6537e2d5&#45;&gt;1_fwatchdog#ServerID_e56b6537e2d5 -->
<g id="edge21" class="edge"><title>localhost:3000#ServerID_e56b6537e2d5&#45;&gt;1_fwatchdog#ServerID_e56b6537e2d5</title>
<path fill="none" stroke="black" d="M5149.06,-220.313C5112.35,-225.911 5069.81,-233.713 5032,-244 5003.9,-251.645 4973.46,-263.063 4949,-273.058"/>
<polygon fill="black" stroke="black" points="4947.5,-269.893 4939.59,-276.951 4950.17,-276.36 4947.5,-269.893"/>
<text text-anchor="middle" x="5048.5" y="-247.8" font-family="Times,serif" font-size="14.00">read</text>
</g>
<!-- 12_node#ServerID_e56b6537e2d5 -->
<g id="node16" class="node"><title>12_node#ServerID_e56b6537e2d5</title>
<polygon fill="none" stroke="black" points="5373.5,-139 5106.5,-139 5106.5,-103 5373.5,-103 5373.5,-139"/>
<text text-anchor="middle" x="5240" y="-117.3" font-family="Times,serif" font-size="14.00">12_node#ServerID_e56b6537e2d5</text>
</g>
<!-- localhost:3000#ServerID_e56b6537e2d5&#45;&gt;12_node#ServerID_e56b6537e2d5 -->
<g id="edge20" class="edge"><title>localhost:3000#ServerID_e56b6537e2d5&#45;&gt;12_node#ServerID_e56b6537e2d5</title>
<path fill="none" stroke="black" d="M5240,-189.799C5240,-178.163 5240,-162.548 5240,-149.237"/>
<polygon fill="black" stroke="black" points="5243.5,-149.175 5240,-139.175 5236.5,-149.175 5243.5,-149.175"/>
<text text-anchor="middle" x="5256.5" y="-160.8" font-family="Times,serif" font-size="14.00">read</text>
</g>
<!-- pipe:[331682415]#ServerID_e56b6537e2d5 -->
<g id="node17" class="node"><title>pipe:[331682415]#ServerID_e56b6537e2d5</title>
<ellipse fill="none" stroke="black" cx="5240" cy="-34" rx="217.162" ry="18"/>
<text text-anchor="middle" x="5240" y="-30.3" font-family="Times,serif" font-size="14.00">pipe:[331682415]#ServerID_e56b6537e2d5</text>
</g>
<!-- 12_node#ServerID_e56b6537e2d5&#45;&gt;pipe:[331682415]#ServerID_e56b6537e2d5 -->
<g id="edge19" class="edge"><title>12_node#ServerID_e56b6537e2d5&#45;&gt;pipe:[331682415]#ServerID_e56b6537e2d5</title>
<path fill="none" stroke="black" d="M5240,-102.799C5240,-91.1626 5240,-75.5479 5240,-62.2368"/>
<polygon fill="black" stroke="black" points="5243.5,-62.1754 5240,-52.1754 5236.5,-62.1755 5243.5,-62.1754"/>
<text text-anchor="middle" x="5259" y="-73.8" font-family="Times,serif" font-size="14.00">write</text>
</g>
<!-- 10.1.80.1:43138#ServerID_OuterContainerID&#45;&gt;10.1.80.247:8080#ServerID_OuterContainerID -->
<g id="edge24" class="edge"><title>10.1.80.1:43138#ServerID_OuterContainerID&#45;&gt;10.1.80.247:8080#ServerID_OuterContainerID</title>
<path fill="none" stroke="black" d="M3506.03,-312.163C3491.09,-326.87 3470.91,-350.04 3462,-375 3459.46,-382.114 3458.53,-390.168 3458.41,-397.701"/>
<polygon fill="black" stroke="black" points="3454.92,-397.953 3458.7,-407.85 3461.92,-397.756 3454.92,-397.953"/>
<text text-anchor="middle" x="3482" y="-378.8" font-family="Times,serif" font-size="14.00">POST</text>
</g>
</g>
</svg>
