<?xml version="1.0" encoding="UTF-8" standalone="no"?>
<!DOCTYPE svg PUBLIC "-//W3C//DTD SVG 1.1//EN"
 "http://www.w3.org/Graphics/SVG/1.1/DTD/svg11.dtd">
<!-- Generated by graphviz version 2.38.0 (20140413.2041)
 -->
<!-- Title: G Pages: 1 -->
<svg width="7892pt" height="402pt"
 viewBox="0.00 0.00 7892.00 402.00" xmlns="http://www.w3.org/2000/svg" xmlns:xlink="http://www.w3.org/1999/xlink">
<g id="graph0" class="graph" transform="scale(1 1) rotate(0) translate(4 398)">
<title>G</title>
<polygon fill="white" stroke="none" points="-4,4 -4,-398 7888,-398 7888,4 -4,4"/>
<g id="clust1" class="cluster"><title>clusterServerID_34e86192c217</title>
<polygon fill="none" stroke="black" points="6028,-95 6028,-386 7876,-386 7876,-95 6028,-95"/>
<text text-anchor="middle" x="6952" y="-370.8" font-family="Times,serif" font-size="14.00">clusterServerID_34e86192c217</text>
</g>
<g id="clust2" class="cluster"><title>clusterServerID_5f846fd567&#45;w7nbt</title>
<polygon fill="none" stroke="black" points="4144,-311 4144,-386 4484,-386 4484,-311 4144,-311"/>
<text text-anchor="middle" x="4314" y="-370.8" font-family="Times,serif" font-size="14.00">clusterServerID_5f846fd567&#45;w7nbt</text>
</g>
<g id="clust3" class="cluster"><title>clusterServerID_6df85d7674&#45;2kqrj</title>
<polygon fill="none" stroke="black" points="2799,-311 2799,-386 3137,-386 3137,-311 2799,-311"/>
<text text-anchor="middle" x="2968" y="-370.8" font-family="Times,serif" font-size="14.00">clusterServerID_6df85d7674&#45;2kqrj</text>
</g>
<g id="clust4" class="cluster"><title>clusterServerID_OuterContainerID</title>
<polygon fill="none" stroke="black" points="606,-95 606,-278 6020,-278 6020,-95 606,-95"/>
<text text-anchor="middle" x="3313" y="-262.8" font-family="Times,serif" font-size="14.00">clusterServerID_OuterContainerID</text>
</g>
<g id="clust5" class="cluster"><title>clusterServerID_e56b6537e2d5</title>
<polygon fill="none" stroke="black" points="8,-8 8,-170 598,-170 598,-8 8,-8"/>
<text text-anchor="middle" x="303" y="-154.8" font-family="Times,serif" font-size="14.00">clusterServerID_e56b6537e2d5</text>
</g>
<!-- 1_fwatchdog#ServerID_6df85d7674&#45;2kqrj -->
<g id="node1" class="node"><title>1_fwatchdog#ServerID_6df85d7674&#45;2kqrj</title>
<polygon fill="none" stroke="black" points="3128.5,-355 2807.5,-355 2807.5,-319 3128.5,-319 3128.5,-355"/>
<text text-anchor="middle" x="2968" y="-333.3" font-family="Times,serif" font-size="14.00">1_fwatchdog#ServerID_6df85d7674&#45;2kqrj</text>
</g>
<!-- 10.1.80.247:33262#ServerID_OuterContainerID -->
<g id="node2" class="node"><title>10.1.80.247:33262#ServerID_OuterContainerID</title>
<polygon fill="none" stroke="black" points="3626,-247 3290.52,-229 3626,-211 3961.48,-229 3626,-247"/>
<text text-anchor="middle" x="3626" y="-225.3" font-family="Times,serif" font-size="14.00">10.1.80.247:33262#ServerID_OuterContainerID</text>
</g>
<!-- 1_fwatchdog#ServerID_6df85d7674&#45;2kqrj&#45;&gt;10.1.80.247:33262#ServerID_OuterContainerID -->
<g id="edge1" class="edge"><title>1_fwatchdog#ServerID_6df85d7674&#45;2kqrj&#45;&gt;10.1.80.247:33262#ServerID_OuterContainerID</title>
<path fill="none" stroke="black" d="M3128.84,-321.617C3180.16,-316.184 3237.1,-309.276 3289,-301 3383.07,-286 3490.58,-262.171 3558.36,-246.312"/>
<polygon fill="black" stroke="black" points="3559.55,-249.629 3568.48,-243.935 3557.94,-242.815 3559.55,-249.629"/>
<text text-anchor="middle" x="3415" y="-289.8" font-family="Times,serif" font-size="14.00">RESPONSE</text>
</g>
<!-- gateway:8080#ServerID_OuterContainerID -->
<g id="node3" class="node"><title>gateway:8080#ServerID_OuterContainerID</title>
<polygon fill="none" stroke="black" points="2968,-247 2663.52,-229 2968,-211 3272.48,-229 2968,-247"/>
<text text-anchor="middle" x="2968" y="-225.3" font-family="Times,serif" font-size="14.00">gateway:8080#ServerID_OuterContainerID</text>
</g>
<!-- 1_fwatchdog#ServerID_6df85d7674&#45;2kqrj&#45;&gt;gateway:8080#ServerID_OuterContainerID -->
<g id="edge4" class="edge"><title>1_fwatchdog#ServerID_6df85d7674&#45;2kqrj&#45;&gt;gateway:8080#ServerID_OuterContainerID</title>
<path fill="none" stroke="black" d="M2988.2,-318.928C2992.99,-313.716 2997.44,-307.601 3000,-301 3002.41,-294.785 3001.71,-292.443 3000,-286 2997.15,-275.286 2991.72,-264.483 2986.13,-255.263"/>
<polygon fill="black" stroke="black" points="2988.93,-253.148 2980.58,-246.633 2983.05,-256.936 2988.93,-253.148"/>
<text text-anchor="middle" x="3022" y="-289.8" font-family="Times,serif" font-size="14.00">POST</text>
</g>
<!-- 10.1.80.247:8080#ServerID_OuterContainerID -->
<g id="node6" class="node"><title>10.1.80.247:8080#ServerID_OuterContainerID</title>
<polygon fill="none" stroke="black" points="2319,-247 1991.56,-229 2319,-211 2646.44,-229 2319,-247"/>
<text text-anchor="middle" x="2319" y="-225.3" font-family="Times,serif" font-size="14.00">10.1.80.247:8080#ServerID_OuterContainerID</text>
</g>
<!-- 1_fwatchdog#ServerID_6df85d7674&#45;2kqrj&#45;&gt;10.1.80.247:8080#ServerID_OuterContainerID -->
<g id="edge8" class="edge"><title>1_fwatchdog#ServerID_6df85d7674&#45;2kqrj&#45;&gt;10.1.80.247:8080#ServerID_OuterContainerID</title>
<path fill="none" stroke="black" d="M2807.13,-324.355C2747.77,-318.88 2680.11,-311.249 2619,-301 2535.25,-286.953 2440.07,-263.044 2379.8,-246.894"/>
<polygon fill="black" stroke="black" points="2380.64,-243.494 2370.07,-244.272 2378.82,-250.253 2380.64,-243.494"/>
<text text-anchor="middle" x="2639" y="-289.8" font-family="Times,serif" font-size="14.00">POST</text>
</g>
<!-- 10.1.80.247:33262#ServerID_OuterContainerID&#45;&gt;1_fwatchdog#ServerID_6df85d7674&#45;2kqrj -->
<g id="edge7" class="edge"><title>10.1.80.247:33262#ServerID_OuterContainerID&#45;&gt;1_fwatchdog#ServerID_6df85d7674&#45;2kqrj</title>
<path fill="none" stroke="black" d="M3536.96,-242.25C3459.66,-253.084 3344.79,-269.664 3245,-286 3186.22,-295.623 3120.61,-307.418 3068.01,-317.135"/>
<polygon fill="black" stroke="black" points="3067.2,-313.725 3058,-318.986 3068.47,-320.608 3067.2,-313.725"/>
<text text-anchor="middle" x="3265" y="-289.8" font-family="Times,serif" font-size="14.00">POST</text>
</g>
<!-- 1_fwatchdog#ServerID_34e86192c217 -->
<g id="node7" class="node"><title>1_fwatchdog#ServerID_34e86192c217</title>
<polygon fill="none" stroke="black" points="6832.5,-355 6533.5,-355 6533.5,-319 6832.5,-319 6832.5,-355"/>
<text text-anchor="middle" x="6683" y="-333.3" font-family="Times,serif" font-size="14.00">1_fwatchdog#ServerID_34e86192c217</text>
</g>
<!-- 10.1.80.247:33262#ServerID_OuterContainerID&#45;&gt;1_fwatchdog#ServerID_34e86192c217 -->
<g id="edge11" class="edge"><title>10.1.80.247:33262#ServerID_OuterContainerID&#45;&gt;1_fwatchdog#ServerID_34e86192c217</title>
<path fill="none" stroke="black" d="M3700.76,-243.045C3770.45,-254.576 3877.4,-270.669 3971,-278 4068.94,-285.671 4314.78,-284.029 4413,-286 5204.9,-301.888 6152.12,-323.638 6523,-332.26"/>
<polygon fill="black" stroke="black" points="6523.19,-335.765 6533.27,-332.499 6523.35,-328.767 6523.19,-335.765"/>
<text text-anchor="middle" x="5116.5" y="-289.8" font-family="Times,serif" font-size="14.00">read</text>
</g>
<!-- gateway:8080#ServerID_OuterContainerID&#45;&gt;1_fwatchdog#ServerID_6df85d7674&#45;2kqrj -->
<g id="edge2" class="edge"><title>gateway:8080#ServerID_OuterContainerID&#45;&gt;1_fwatchdog#ServerID_6df85d7674&#45;2kqrj</title>
<path fill="none" stroke="black" d="M2946.92,-245.91C2935.41,-255.974 2922.26,-270.069 2916,-286 2913.56,-292.205 2912.87,-295.115 2916,-301 2918.19,-305.11 2921.1,-308.823 2924.42,-312.158"/>
<polygon fill="black" stroke="black" points="2922.39,-315.021 2932.26,-318.861 2926.94,-309.701 2922.39,-315.021"/>
<text text-anchor="middle" x="2958" y="-289.8" font-family="Times,serif" font-size="14.00">RESPONSE</text>
</g>
<!-- 10_node#ServerID_34e86192c217 -->
<g id="node12" class="node"><title>10_node#ServerID_34e86192c217</title>
<polygon fill="none" stroke="black" points="6303.5,-139 6036.5,-139 6036.5,-103 6303.5,-103 6303.5,-139"/>
<text text-anchor="middle" x="6170" y="-117.3" font-family="Times,serif" font-size="14.00">10_node#ServerID_34e86192c217</text>
</g>
<!-- gateway:8080#ServerID_OuterContainerID&#45;&gt;10_node#ServerID_34e86192c217 -->
<g id="edge26" class="edge"><title>gateway:8080#ServerID_OuterContainerID&#45;&gt;10_node#ServerID_34e86192c217</title>
<path fill="none" stroke="black" d="M3107.85,-219.255C3162.19,-216.164 3224.98,-212.969 3282,-211 3526.88,-202.542 5242,-181.658 5487,-178 5546.67,-177.109 5965.15,-179.876 6024,-170 6056.72,-164.509 6092.1,-153.029 6119.83,-142.672"/>
<polygon fill="black" stroke="black" points="6121.21,-145.895 6129.31,-139.068 6118.72,-139.352 6121.21,-145.895"/>
<text text-anchor="middle" x="5503.5" y="-181.8" font-family="Times,serif" font-size="14.00">read</text>
</g>
<!-- 1_fwatchdog#ServerID_5f846fd567&#45;w7nbt -->
<g id="node4" class="node"><title>1_fwatchdog#ServerID_5f846fd567&#45;w7nbt</title>
<polygon fill="none" stroke="black" points="4476,-355 4152,-355 4152,-319 4476,-319 4476,-355"/>
<text text-anchor="middle" x="4314" y="-333.3" font-family="Times,serif" font-size="14.00">1_fwatchdog#ServerID_5f846fd567&#45;w7nbt</text>
</g>
<!-- 10.1.80.247:35286#ServerID_OuterContainerID -->
<g id="node5" class="node"><title>10.1.80.247:35286#ServerID_OuterContainerID</title>
<polygon fill="none" stroke="black" points="4315,-247 3979.52,-229 4315,-211 4650.48,-229 4315,-247"/>
<text text-anchor="middle" x="4315" y="-225.3" font-family="Times,serif" font-size="14.00">10.1.80.247:35286#ServerID_OuterContainerID</text>
</g>
<!-- 1_fwatchdog#ServerID_5f846fd567&#45;w7nbt&#45;&gt;10.1.80.247:35286#ServerID_OuterContainerID -->
<g id="edge3" class="edge"><title>1_fwatchdog#ServerID_5f846fd567&#45;w7nbt&#45;&gt;10.1.80.247:35286#ServerID_OuterContainerID</title>
<path fill="none" stroke="black" d="M4319.96,-318.759C4321.61,-313.165 4323.18,-306.883 4324,-301 4326.04,-286.436 4324.27,-270.162 4321.78,-256.873"/>
<polygon fill="black" stroke="black" points="4325.17,-256.006 4319.68,-246.944 4318.32,-257.452 4325.17,-256.006"/>
<text text-anchor="middle" x="4367" y="-289.8" font-family="Times,serif" font-size="14.00">RESPONSE</text>
</g>
<!-- 10.1.80.247:35286#ServerID_OuterContainerID&#45;&gt;1_fwatchdog#ServerID_5f846fd567&#45;w7nbt -->
<g id="edge5" class="edge"><title>10.1.80.247:35286#ServerID_OuterContainerID&#45;&gt;1_fwatchdog#ServerID_5f846fd567&#45;w7nbt</title>
<path fill="none" stroke="black" d="M4301.26,-246.449C4293.35,-257.019 4284.17,-271.453 4280,-286 4278.16,-292.408 4277.49,-294.822 4280,-301 4281.42,-304.503 4283.38,-307.848 4285.65,-310.984"/>
<polygon fill="black" stroke="black" points="4283.08,-313.372 4292.2,-318.762 4288.43,-308.86 4283.08,-313.372"/>
<text text-anchor="middle" x="4300" y="-289.8" font-family="Times,serif" font-size="14.00">POST</text>
</g>
<!-- 1_fwatchdog#ServerID_e56b6537e2d5 -->
<g id="node9" class="node"><title>1_fwatchdog#ServerID_e56b6537e2d5</title>
<polygon fill="none" stroke="black" points="589.5,-139 290.5,-139 290.5,-103 589.5,-103 589.5,-139"/>
<text text-anchor="middle" x="440" y="-117.3" font-family="Times,serif" font-size="14.00">1_fwatchdog#ServerID_e56b6537e2d5</text>
</g>
<!-- 10.1.80.247:35286#ServerID_OuterContainerID&#45;&gt;1_fwatchdog#ServerID_e56b6537e2d5 -->
<g id="edge23" class="edge"><title>10.1.80.247:35286#ServerID_OuterContainerID&#45;&gt;1_fwatchdog#ServerID_e56b6537e2d5</title>
<path fill="none" stroke="black" d="M4162.63,-219.173C4102.62,-216.042 4033.09,-212.841 3970,-211 3093,-185.405 2873.29,-204.615 1996,-193 1611.98,-187.916 1516.01,-184.232 1132,-178 1073.11,-177.044 660.22,-178.893 602,-170 565.63,-164.445 526.011,-152.811 495.057,-142.388"/>
<polygon fill="black" stroke="black" points="495.922,-138.985 485.327,-139.056 493.654,-145.607 495.922,-138.985"/>
<text text-anchor="middle" x="2012.5" y="-181.8" font-family="Times,serif" font-size="14.00">read</text>
</g>
<!-- 10.1.80.247:8080#ServerID_OuterContainerID&#45;&gt;1_fwatchdog#ServerID_6df85d7674&#45;2kqrj -->
<g id="edge6" class="edge"><title>10.1.80.247:8080#ServerID_OuterContainerID&#45;&gt;1_fwatchdog#ServerID_6df85d7674&#45;2kqrj</title>
<path fill="none" stroke="black" d="M2397.02,-242.743C2510.65,-261.301 2722.38,-295.883 2853.64,-317.321"/>
<polygon fill="black" stroke="black" points="2853.29,-320.811 2863.73,-318.969 2854.42,-313.903 2853.29,-320.811"/>
<text text-anchor="middle" x="2782" y="-289.8" font-family="Times,serif" font-size="14.00">RESPONSE</text>
</g>
<!-- 10.1.80.1:37958#ServerID_OuterContainerID -->
<g id="node19" class="node"><title>10.1.80.1:37958#ServerID_OuterContainerID</title>
<polygon fill="none" stroke="black" points="2382,-139 2063.1,-121 2382,-103 2700.9,-121 2382,-139"/>
<text text-anchor="middle" x="2382" y="-117.3" font-family="Times,serif" font-size="14.00">10.1.80.1:37958#ServerID_OuterContainerID</text>
</g>
<!-- 10.1.80.247:8080#ServerID_OuterContainerID&#45;&gt;10.1.80.1:37958#ServerID_OuterContainerID -->
<g id="edge27" class="edge"><title>10.1.80.247:8080#ServerID_OuterContainerID&#45;&gt;10.1.80.1:37958#ServerID_OuterContainerID</title>
<path fill="none" stroke="black" d="M2342.09,-212.166C2348.64,-206.734 2355.26,-200.191 2360,-193 2368.71,-179.774 2374.12,-162.913 2377.4,-148.941"/>
<polygon fill="black" stroke="black" points="2380.87,-149.434 2379.51,-138.928 2374.02,-147.992 2380.87,-149.434"/>
<text text-anchor="middle" x="2410" y="-181.8" font-family="Times,serif" font-size="14.00">RESPONSE</text>
</g>
<!-- 10.0.88.125:31112#ServerID_OuterContainerID -->
<g id="node20" class="node"><title>10.0.88.125:31112#ServerID_OuterContainerID</title>
<polygon fill="none" stroke="black" points="1710,-139 1374.52,-121 1710,-103 2045.48,-121 1710,-139"/>
<text text-anchor="middle" x="1710" y="-117.3" font-family="Times,serif" font-size="14.00">10.0.88.125:31112#ServerID_OuterContainerID</text>
</g>
<!-- 10.1.80.247:8080#ServerID_OuterContainerID&#45;&gt;10.0.88.125:31112#ServerID_OuterContainerID -->
<g id="edge29" class="edge"><title>10.1.80.247:8080#ServerID_OuterContainerID&#45;&gt;10.0.88.125:31112#ServerID_OuterContainerID</title>
<path fill="none" stroke="black" d="M2244.63,-215.055C2130.9,-195.26 1914.4,-157.577 1794.75,-136.751"/>
<polygon fill="black" stroke="black" points="1795.35,-133.302 1784.89,-135.036 1794.15,-140.199 1795.35,-133.302"/>
<text text-anchor="middle" x="2147" y="-181.8" font-family="Times,serif" font-size="14.00">RESPONSE</text>
</g>
<!-- localhost:3000#ServerID_34e86192c217 -->
<g id="node8" class="node"><title>localhost:3000#ServerID_34e86192c217</title>
<polygon fill="none" stroke="black" points="6751,-247 6464.45,-229 6751,-211 7037.55,-229 6751,-247"/>
<text text-anchor="middle" x="6751" y="-225.3" font-family="Times,serif" font-size="14.00">localhost:3000#ServerID_34e86192c217</text>
</g>
<!-- 1_fwatchdog#ServerID_34e86192c217&#45;&gt;localhost:3000#ServerID_34e86192c217 -->
<g id="edge9" class="edge"><title>1_fwatchdog#ServerID_34e86192c217&#45;&gt;localhost:3000#ServerID_34e86192c217</title>
<path fill="none" stroke="black" d="M6737.96,-318.99C6745.51,-314.336 6752.29,-308.444 6757,-301 6765.25,-287.965 6764.04,-270.778 6760.63,-256.579"/>
<polygon fill="black" stroke="black" points="6763.97,-255.525 6757.85,-246.87 6757.23,-257.446 6763.97,-255.525"/>
<text text-anchor="middle" x="6781" y="-289.8" font-family="Times,serif" font-size="14.00">write</text>
</g>
<!-- 1_fwatchdog#ServerID_34e86192c217&#45;&gt;localhost:3000#ServerID_34e86192c217 -->
<g id="edge22" class="edge"><title>1_fwatchdog#ServerID_34e86192c217&#45;&gt;localhost:3000#ServerID_34e86192c217</title>
<path fill="none" stroke="black" d="M6656.68,-318.916C6645.72,-309.579 6636.99,-297.584 6644,-286 6654.49,-268.664 6672.32,-256.436 6690.44,-247.93"/>
<polygon fill="black" stroke="black" points="6692.13,-251.011 6699.9,-243.814 6689.34,-244.592 6692.13,-251.011"/>
<text text-anchor="middle" x="6673" y="-289.8" font-family="Times,serif" font-size="14.00">connect</text>
</g>
<!-- pipe:[331683132]#ServerID_34e86192c217 -->
<g id="node13" class="node"><title>pipe:[331683132]#ServerID_34e86192c217</title>
<ellipse fill="none" stroke="black" cx="7651" cy="-229" rx="217.162" ry="18"/>
<text text-anchor="middle" x="7651" y="-225.3" font-family="Times,serif" font-size="14.00">pipe:[331683132]#ServerID_34e86192c217</text>
</g>
<!-- 1_fwatchdog#ServerID_34e86192c217&#45;&gt;pipe:[331683132]#ServerID_34e86192c217 -->
<g id="edge16" class="edge"><title>1_fwatchdog#ServerID_34e86192c217&#45;&gt;pipe:[331683132]#ServerID_34e86192c217</title>
<path fill="none" stroke="black" d="M6832.51,-330.082C6982.82,-322.781 7220.87,-307.526 7425,-278 7475.64,-270.675 7531.93,-258.732 7575.66,-248.592"/>
<polygon fill="black" stroke="black" points="7576.7,-251.943 7585.64,-246.258 7575.11,-245.126 7576.7,-251.943"/>
<text text-anchor="middle" x="7384" y="-289.8" font-family="Times,serif" font-size="14.00">write</text>
</g>
<!-- localhost:3000#ServerID_34e86192c217&#45;&gt;1_fwatchdog#ServerID_34e86192c217 -->
<g id="edge15" class="edge"><title>localhost:3000#ServerID_34e86192c217&#45;&gt;1_fwatchdog#ServerID_34e86192c217</title>
<path fill="none" stroke="black" d="M6740.33,-246.639C6729.35,-263.747 6712.12,-290.613 6699.41,-310.424"/>
<polygon fill="black" stroke="black" points="6696.38,-308.662 6693.93,-318.969 6702.27,-312.442 6696.38,-308.662"/>
<text text-anchor="middle" x="6730.5" y="-289.8" font-family="Times,serif" font-size="14.00">read</text>
</g>
<!-- localhost:3000#ServerID_34e86192c217&#45;&gt;10_node#ServerID_34e86192c217 -->
<g id="edge21" class="edge"><title>localhost:3000#ServerID_34e86192c217&#45;&gt;10_node#ServerID_34e86192c217</title>
<path fill="none" stroke="black" d="M6681.49,-215.319C6580.16,-196.831 6391.14,-162.345 6273.43,-140.869"/>
<polygon fill="black" stroke="black" points="6273.78,-137.377 6263.32,-139.026 6272.53,-144.264 6273.78,-137.377"/>
<text text-anchor="middle" x="6562.5" y="-181.8" font-family="Times,serif" font-size="14.00">read</text>
</g>
<!-- 10.1.80.247:35250#ServerID_OuterContainerID -->
<g id="node10" class="node"><title>10.1.80.247:35250#ServerID_OuterContainerID</title>
<polygon fill="none" stroke="black" points="949,-247 613.515,-229 949,-211 1284.48,-229 949,-247"/>
<text text-anchor="middle" x="949" y="-225.3" font-family="Times,serif" font-size="14.00">10.1.80.247:35250#ServerID_OuterContainerID</text>
</g>
<!-- 1_fwatchdog#ServerID_e56b6537e2d5&#45;&gt;10.1.80.247:35250#ServerID_OuterContainerID -->
<g id="edge10" class="edge"><title>1_fwatchdog#ServerID_e56b6537e2d5&#45;&gt;10.1.80.247:35250#ServerID_OuterContainerID</title>
<path fill="none" stroke="black" d="M487.914,-139.071C519.825,-149.723 562.921,-162.745 602,-170 646.273,-178.219 658.41,-171.726 703,-178 763.562,-186.521 831.649,-200.725 880.812,-211.82"/>
<polygon fill="black" stroke="black" points="880.168,-215.263 890.695,-214.067 881.719,-208.437 880.168,-215.263"/>
<text text-anchor="middle" x="804" y="-181.8" font-family="Times,serif" font-size="14.00">write</text>
</g>
<!-- localhost:3000#ServerID_e56b6537e2d5 -->
<g id="node16" class="node"><title>localhost:3000#ServerID_e56b6537e2d5</title>
<polygon fill="none" stroke="black" points="303,-52 16.4457,-34 303,-16 589.554,-34 303,-52"/>
<text text-anchor="middle" x="303" y="-30.3" font-family="Times,serif" font-size="14.00">localhost:3000#ServerID_e56b6537e2d5</text>
</g>
<!-- 1_fwatchdog#ServerID_e56b6537e2d5&#45;&gt;localhost:3000#ServerID_e56b6537e2d5 -->
<g id="edge19" class="edge"><title>1_fwatchdog#ServerID_e56b6537e2d5&#45;&gt;localhost:3000#ServerID_e56b6537e2d5</title>
<path fill="none" stroke="black" d="M412.276,-102.799C390.368,-89.2063 359.71,-70.1851 336.441,-55.7483"/>
<polygon fill="black" stroke="black" points="338.262,-52.7587 327.919,-50.4606 334.571,-58.7068 338.262,-52.7587"/>
<text text-anchor="middle" x="399" y="-73.8" font-family="Times,serif" font-size="14.00">write</text>
</g>
<!-- 10.1.80.247:35250#ServerID_OuterContainerID&#45;&gt;1_fwatchdog#ServerID_e56b6537e2d5 -->
<g id="edge12" class="edge"><title>10.1.80.247:35250#ServerID_OuterContainerID&#45;&gt;1_fwatchdog#ServerID_e56b6537e2d5</title>
<path fill="none" stroke="black" d="M825.25,-217.612C775.428,-212.156 717.646,-204.209 666,-193 606.652,-180.119 540.576,-158.475 495.279,-142.463"/>
<polygon fill="black" stroke="black" points="496.249,-139.093 485.655,-139.035 493.901,-145.688 496.249,-139.093"/>
<text text-anchor="middle" x="682.5" y="-181.8" font-family="Times,serif" font-size="14.00">read</text>
</g>
<!-- 10.152.183.10:53#ServerID_OuterContainerID -->
<g id="node11" class="node"><title>10.152.183.10:53#ServerID_OuterContainerID</title>
<polygon fill="none" stroke="black" points="4996,-247 4668.56,-229 4996,-211 5323.44,-229 4996,-247"/>
<text text-anchor="middle" x="4996" y="-225.3" font-family="Times,serif" font-size="14.00">10.152.183.10:53#ServerID_OuterContainerID</text>
</g>
<!-- 10.152.183.10:53#ServerID_OuterContainerID&#45;&gt;10_node#ServerID_34e86192c217 -->
<g id="edge13" class="edge"><title>10.152.183.10:53#ServerID_OuterContainerID&#45;&gt;10_node#ServerID_34e86192c217</title>
<path fill="none" stroke="black" d="M5129.26,-218.3C5285.73,-207.197 5553.09,-189.117 5783,-178 5836.52,-175.412 5971.24,-179.351 6024,-170 6056.43,-164.252 6091.53,-152.886 6119.19,-142.657"/>
<polygon fill="black" stroke="black" points="6120.52,-145.897 6128.65,-139.098 6118.05,-139.345 6120.52,-145.897"/>
<text text-anchor="middle" x="5816" y="-181.8" font-family="Times,serif" font-size="14.00">recvfrom</text>
</g>
<!-- 10_node#ServerID_34e86192c217&#45;&gt;gateway:8080#ServerID_OuterContainerID -->
<g id="edge20" class="edge"><title>10_node#ServerID_34e86192c217&#45;&gt;gateway:8080#ServerID_OuterContainerID</title>
<path fill="none" stroke="black" d="M6129.64,-139.068C6100.79,-150.317 6060.74,-164.034 6024,-170 5973.36,-178.224 4228.3,-176.944 4177,-178 3779.04,-186.196 3679.64,-192.907 3282,-211 3230.49,-213.344 3174.24,-216.272 3123.77,-219.035"/>
<polygon fill="black" stroke="black" points="3123.55,-215.542 3113.75,-219.585 3123.93,-222.531 3123.55,-215.542"/>
<text text-anchor="middle" x="4206" y="-181.8" font-family="Times,serif" font-size="14.00">connect</text>
</g>
<!-- 10_node#ServerID_34e86192c217&#45;&gt;10.152.183.10:53#ServerID_OuterContainerID -->
<g id="edge14" class="edge"><title>10_node#ServerID_34e86192c217&#45;&gt;10.152.183.10:53#ServerID_OuterContainerID</title>
<path fill="none" stroke="black" d="M6125.56,-139.015C6096.94,-149.369 6058.73,-162.082 6024,-170 5947.52,-187.438 5927.18,-186.514 5849,-193 5620.31,-211.973 5562.26,-201.219 5333,-211 5277.63,-213.362 5217.15,-216.301 5162.91,-219.066"/>
<polygon fill="black" stroke="black" points="5162.67,-215.574 5152.86,-219.581 5163.02,-222.565 5162.67,-215.574"/>
<text text-anchor="middle" x="6008.5" y="-181.8" font-family="Times,serif" font-size="14.00">sendto</text>
</g>
<!-- /etc/hosts#ServerID_34e86192c217 -->
<g id="node14" class="node"><title>/etc/hosts#ServerID_34e86192c217</title>
<ellipse fill="none" stroke="black" cx="7236" cy="-229" rx="180.068" ry="18"/>
<text text-anchor="middle" x="7236" y="-225.3" font-family="Times,serif" font-size="14.00">/etc/hosts#ServerID_34e86192c217</text>
</g>
<!-- /etc/hosts#ServerID_34e86192c217&#45;&gt;10_node#ServerID_34e86192c217 -->
<g id="edge17" class="edge"><title>/etc/hosts#ServerID_34e86192c217&#45;&gt;10_node#ServerID_34e86192c217</title>
<path fill="none" stroke="black" d="M7113.2,-215.789C6914.84,-196.065 6524.89,-157.29 6313.85,-136.304"/>
<polygon fill="black" stroke="black" points="6313.92,-132.794 6303.62,-135.287 6313.23,-139.76 6313.92,-132.794"/>
<text text-anchor="middle" x="6876.5" y="-181.8" font-family="Times,serif" font-size="14.00">read</text>
</g>
<!-- /etc/resolv.conf#ServerID_34e86192c217 -->
<g id="node15" class="node"><title>/etc/resolv.conf#ServerID_34e86192c217</title>
<ellipse fill="none" stroke="black" cx="6241" cy="-229" rx="205.264" ry="18"/>
<text text-anchor="middle" x="6241" y="-225.3" font-family="Times,serif" font-size="14.00">/etc/resolv.conf#ServerID_34e86192c217</text>
</g>
<!-- /etc/resolv.conf#ServerID_34e86192c217&#45;&gt;10_node#ServerID_34e86192c217 -->
<g id="edge18" class="edge"><title>/etc/resolv.conf#ServerID_34e86192c217&#45;&gt;10_node#ServerID_34e86192c217</title>
<path fill="none" stroke="black" d="M6229.59,-210.969C6218.17,-193.917 6200.45,-167.459 6187.3,-147.824"/>
<polygon fill="black" stroke="black" points="6190.09,-145.701 6181.61,-139.341 6184.27,-149.597 6190.09,-145.701"/>
<text text-anchor="middle" x="6233.5" y="-181.8" font-family="Times,serif" font-size="14.00">read</text>
</g>
<!-- 10.1.80.247:33330#ServerID_OuterContainerID -->
<g id="node17" class="node"><title>10.1.80.247:33330#ServerID_OuterContainerID</title>
<polygon fill="none" stroke="black" points="5677,-247 5341.52,-229 5677,-211 6012.48,-229 5677,-247"/>
<text text-anchor="middle" x="5677" y="-225.3" font-family="Times,serif" font-size="14.00">10.1.80.247:33330#ServerID_OuterContainerID</text>
</g>
<!-- 10.1.80.247:33330#ServerID_OuterContainerID&#45;&gt;1_fwatchdog#ServerID_34e86192c217 -->
<g id="edge24" class="edge"><title>10.1.80.247:33330#ServerID_OuterContainerID&#45;&gt;1_fwatchdog#ServerID_34e86192c217</title>
<path fill="none" stroke="black" d="M5759.59,-242.6C5829.8,-253.03 5933.35,-267.748 6024,-278 6194.04,-297.231 6389.37,-313.723 6522.96,-324.151"/>
<polygon fill="black" stroke="black" points="6523.03,-327.667 6533.28,-324.953 6523.58,-320.688 6523.03,-327.667"/>
<text text-anchor="middle" x="6258.5" y="-289.8" font-family="Times,serif" font-size="14.00">read</text>
</g>
<!-- 10.1.80.247:35290#ServerID_OuterContainerID -->
<g id="node18" class="node"><title>10.1.80.247:35290#ServerID_OuterContainerID</title>
<polygon fill="none" stroke="black" points="1638,-247 1302.52,-229 1638,-211 1973.48,-229 1638,-247"/>
<text text-anchor="middle" x="1638" y="-225.3" font-family="Times,serif" font-size="14.00">10.1.80.247:35290#ServerID_OuterContainerID</text>
</g>
<!-- 10.1.80.247:35290#ServerID_OuterContainerID&#45;&gt;1_fwatchdog#ServerID_e56b6537e2d5 -->
<g id="edge25" class="edge"><title>10.1.80.247:35290#ServerID_OuterContainerID&#45;&gt;1_fwatchdog#ServerID_e56b6537e2d5</title>
<path fill="none" stroke="black" d="M1499.94,-218.391C1338.6,-207.415 1063.54,-189.495 827,-178 777.027,-175.572 651.378,-178.06 602,-170 565.95,-164.116 526.641,-152.599 495.773,-142.321"/>
<polygon fill="black" stroke="black" points="496.657,-138.925 486.062,-139.037 494.414,-145.556 496.657,-138.925"/>
<text text-anchor="middle" x="1111.5" y="-181.8" font-family="Times,serif" font-size="14.00">read</text>
</g>
<!-- 10.1.80.1:37958#ServerID_OuterContainerID&#45;&gt;10.1.80.247:8080#ServerID_OuterContainerID -->
<g id="edge28" class="edge"><title>10.1.80.1:37958#ServerID_OuterContainerID&#45;&gt;10.1.80.247:8080#ServerID_OuterContainerID</title>
<path fill="none" stroke="black" d="M2354.04,-137.594C2339.81,-147.203 2323.89,-160.954 2316,-178 2312.73,-185.053 2312.11,-193.276 2312.69,-200.991"/>
<polygon fill="black" stroke="black" points="2309.24,-201.616 2314.08,-211.041 2316.18,-200.656 2309.24,-201.616"/>
<text text-anchor="middle" x="2336" y="-181.8" font-family="Times,serif" font-size="14.00">POST</text>
</g>
</g>
</svg>
