<?xml version="1.0" encoding="UTF-8" standalone="no"?>
<!DOCTYPE svg PUBLIC "-//W3C//DTD SVG 1.1//EN"
 "http://www.w3.org/Graphics/SVG/1.1/DTD/svg11.dtd">
<!-- Generated by graphviz version 2.38.0 (20140413.2041)
 -->
<!-- Title: G Pages: 1 -->
<svg width="8006pt" height="471pt"
 viewBox="0.00 0.00 8006.00 471.00" xmlns="http://www.w3.org/2000/svg" xmlns:xlink="http://www.w3.org/1999/xlink">
<g id="graph0" class="graph" transform="scale(1 1) rotate(0) translate(4 467)">
<title>G</title>
<polygon fill="white" stroke="none" points="-4,4 -4,-467 8002,-467 8002,4 -4,4"/>
<g id="clust1" class="cluster"><title>clusterServerID_34e86192c217</title>
<polygon fill="none" stroke="black" points="6338,-95 6338,-324 7460,-324 7460,-95 6338,-95"/>
<text text-anchor="middle" x="6899" y="-308.8" font-family="Times,serif" font-size="14.00">clusterServerID_34e86192c217</text>
</g>
<g id="clust2" class="cluster"><title>clusterServerID_5f846fd567&#45;w7nbt</title>
<polygon fill="none" stroke="black" points="1677,-357 1677,-455 2017,-455 2017,-357 1677,-357"/>
<text text-anchor="middle" x="1847" y="-439.8" font-family="Times,serif" font-size="14.00">clusterServerID_5f846fd567&#45;w7nbt</text>
</g>
<g id="clust3" class="cluster"><title>clusterServerID_6df85d7674&#45;2kqrj</title>
<polygon fill="none" stroke="black" points="5102,-95 5102,-193 5440,-193 5440,-95 5102,-95"/>
<text text-anchor="middle" x="5271" y="-177.8" font-family="Times,serif" font-size="14.00">clusterServerID_6df85d7674&#45;2kqrj</text>
</g>
<g id="clust4" class="cluster"><title>clusterServerID_90667071e782</title>
<polygon fill="none" stroke="black" points="7468,-226 7468,-455 7990,-455 7990,-226 7468,-226"/>
<text text-anchor="middle" x="7729" y="-439.8" font-family="Times,serif" font-size="14.00">clusterServerID_90667071e782</text>
</g>
<g id="clust5" class="cluster"><title>clusterServerID_OuterContainerID</title>
<polygon fill="none" stroke="black" points="8,-95 8,-324 4044,-324 4044,-95 8,-95"/>
<text text-anchor="middle" x="2026" y="-308.8" font-family="Times,serif" font-size="14.00">clusterServerID_OuterContainerID</text>
</g>
<g id="clust6" class="cluster"><title>clusterServerID_c437f7cecfb6</title>
<polygon fill="none" stroke="black" points="5448,-8 5448,-193 6330,-193 6330,-8 5448,-8"/>
<text text-anchor="middle" x="5889" y="-177.8" font-family="Times,serif" font-size="14.00">clusterServerID_c437f7cecfb6</text>
</g>
<g id="clust7" class="cluster"><title>clusterServerID_e56b6537e2d5</title>
<polygon fill="none" stroke="black" points="4052,-8 4052,-193 5094,-193 5094,-8 4052,-8"/>
<text text-anchor="middle" x="4573" y="-177.8" font-family="Times,serif" font-size="14.00">clusterServerID_e56b6537e2d5</text>
</g>
<!-- 1_fwatchdog#ServerID_5f846fd567&#45;w7nbt -->
<g id="node1" class="node"><title>1_fwatchdog#ServerID_5f846fd567&#45;w7nbt</title>
<polygon fill="none" stroke="black" points="2009,-401 1685,-401 1685,-365 2009,-365 2009,-401"/>
<text text-anchor="middle" x="1847" y="-379.3" font-family="Times,serif" font-size="14.00">1_fwatchdog#ServerID_5f846fd567&#45;w7nbt</text>
</g>
<!-- 10.1.80.247:35290#ServerID_OuterContainerID -->
<g id="node2" class="node"><title>10.1.80.247:35290#ServerID_OuterContainerID</title>
<polygon fill="none" stroke="black" points="1024,-270 688.515,-252 1024,-234 1359.48,-252 1024,-270"/>
<text text-anchor="middle" x="1024" y="-248.3" font-family="Times,serif" font-size="14.00">10.1.80.247:35290#ServerID_OuterContainerID</text>
</g>
<!-- 1_fwatchdog#ServerID_5f846fd567&#45;w7nbt&#45;&gt;10.1.80.247:35290#ServerID_OuterContainerID -->
<g id="edge1" class="edge"><title>1_fwatchdog#ServerID_5f846fd567&#45;w7nbt&#45;&gt;10.1.80.247:35290#ServerID_OuterContainerID</title>
<path fill="none" stroke="black" d="M2009.3,-376.206C2050.36,-371.177 2086.64,-362.338 2100,-347 2104.38,-341.973 2104.69,-336.74 2100,-332 2092.86,-324.781 1379.1,-325.084 1369,-324 1269.18,-313.283 1155.5,-287.111 1086.79,-269.714"/>
<polygon fill="black" stroke="black" points="1087.54,-266.294 1076.99,-267.214 1085.81,-273.077 1087.54,-266.294"/>
<text text-anchor="middle" x="2146" y="-335.8" font-family="Times,serif" font-size="14.00">RESPONSE</text>
</g>
<!-- 10.1.80.247:35290#ServerID_OuterContainerID&#45;&gt;1_fwatchdog#ServerID_5f846fd567&#45;w7nbt -->
<g id="edge6" class="edge"><title>10.1.80.247:35290#ServerID_OuterContainerID&#45;&gt;1_fwatchdog#ServerID_5f846fd567&#45;w7nbt</title>
<path fill="none" stroke="black" d="M1083.56,-266.81C1152.11,-282.343 1268.21,-307.543 1369,-324 1469.89,-340.474 1583.47,-354.444 1674.59,-364.543"/>
<polygon fill="black" stroke="black" points="1674.42,-368.046 1684.74,-365.663 1675.19,-361.088 1674.42,-368.046"/>
<text text-anchor="middle" x="1547" y="-335.8" font-family="Times,serif" font-size="14.00">POST</text>
</g>
<!-- 1_fwatchdog#ServerID_e56b6537e2d5 -->
<g id="node7" class="node"><title>1_fwatchdog#ServerID_e56b6537e2d5</title>
<polygon fill="none" stroke="black" points="4496.5,-139 4197.5,-139 4197.5,-103 4496.5,-103 4496.5,-139"/>
<text text-anchor="middle" x="4347" y="-117.3" font-family="Times,serif" font-size="14.00">1_fwatchdog#ServerID_e56b6537e2d5</text>
</g>
<!-- 10.1.80.247:35290#ServerID_OuterContainerID&#45;&gt;1_fwatchdog#ServerID_e56b6537e2d5 -->
<g id="edge19" class="edge"><title>10.1.80.247:35290#ServerID_OuterContainerID&#45;&gt;1_fwatchdog#ServerID_e56b6537e2d5</title>
<path fill="none" stroke="black" d="M1150.1,-240.74C1215.4,-235.711 1296.44,-229.912 1369,-226 1682.52,-209.095 1761.09,-207.193 2075,-201 2129.8,-199.919 3993.58,-199.485 4048,-193 4130.05,-183.223 4222.26,-159.289 4282.3,-141.906"/>
<polygon fill="black" stroke="black" points="4283.41,-145.23 4292.03,-139.068 4281.45,-138.511 4283.41,-145.23"/>
<text text-anchor="middle" x="2091.5" y="-204.8" font-family="Times,serif" font-size="14.00">read</text>
</g>
<!-- 1_fwatchdog#ServerID_6df85d7674&#45;2kqrj -->
<g id="node3" class="node"><title>1_fwatchdog#ServerID_6df85d7674&#45;2kqrj</title>
<polygon fill="none" stroke="black" points="5431.5,-139 5110.5,-139 5110.5,-103 5431.5,-103 5431.5,-139"/>
<text text-anchor="middle" x="5271" y="-117.3" font-family="Times,serif" font-size="14.00">1_fwatchdog#ServerID_6df85d7674&#45;2kqrj</text>
</g>
<!-- 10.1.80.247:33214#ServerID_OuterContainerID -->
<g id="node4" class="node"><title>10.1.80.247:33214#ServerID_OuterContainerID</title>
<polygon fill="none" stroke="black" points="1713,-270 1377.52,-252 1713,-234 2048.48,-252 1713,-270"/>
<text text-anchor="middle" x="1713" y="-248.3" font-family="Times,serif" font-size="14.00">10.1.80.247:33214#ServerID_OuterContainerID</text>
</g>
<!-- 1_fwatchdog#ServerID_6df85d7674&#45;2kqrj&#45;&gt;10.1.80.247:33214#ServerID_OuterContainerID -->
<g id="edge2" class="edge"><title>1_fwatchdog#ServerID_6df85d7674&#45;2kqrj&#45;&gt;10.1.80.247:33214#ServerID_OuterContainerID</title>
<path fill="none" stroke="black" d="M5239.95,-139.055C5206.19,-156.558 5150.06,-182.647 5098,-193 5063.26,-199.907 2583.4,-200.042 2548,-201 2302,-207.657 2015.82,-227.409 1850.43,-240.002"/>
<polygon fill="black" stroke="black" points="1849.91,-236.532 1840.2,-240.784 1850.44,-243.512 1849.91,-236.532"/>
<text text-anchor="middle" x="2590" y="-204.8" font-family="Times,serif" font-size="14.00">RESPONSE</text>
</g>
<!-- gateway:8080#ServerID_OuterContainerID -->
<g id="node5" class="node"><title>gateway:8080#ServerID_OuterContainerID</title>
<polygon fill="none" stroke="black" points="3060,-270 2755.52,-252 3060,-234 3364.48,-252 3060,-270"/>
<text text-anchor="middle" x="3060" y="-248.3" font-family="Times,serif" font-size="14.00">gateway:8080#ServerID_OuterContainerID</text>
</g>
<!-- 1_fwatchdog#ServerID_6df85d7674&#45;2kqrj&#45;&gt;gateway:8080#ServerID_OuterContainerID -->
<g id="edge9" class="edge"><title>1_fwatchdog#ServerID_6df85d7674&#45;2kqrj&#45;&gt;gateway:8080#ServerID_OuterContainerID</title>
<path fill="none" stroke="black" d="M5239.95,-139.032C5206.18,-156.514 5150.05,-182.587 5098,-193 5057.96,-201.01 3668.79,-199.097 3628,-201 3467.94,-208.468 3283.21,-226.481 3169,-238.719"/>
<polygon fill="black" stroke="black" points="3168.42,-235.261 3158.85,-239.811 3169.17,-242.221 3168.42,-235.261"/>
<text text-anchor="middle" x="3648" y="-204.8" font-family="Times,serif" font-size="14.00">POST</text>
</g>
<!-- 10.1.80.247:8080#ServerID_OuterContainerID -->
<g id="node6" class="node"><title>10.1.80.247:8080#ServerID_OuterContainerID</title>
<polygon fill="none" stroke="black" points="343,-270 15.5599,-252 343,-234 670.44,-252 343,-270"/>
<text text-anchor="middle" x="343" y="-248.3" font-family="Times,serif" font-size="14.00">10.1.80.247:8080#ServerID_OuterContainerID</text>
</g>
<!-- 1_fwatchdog#ServerID_6df85d7674&#45;2kqrj&#45;&gt;10.1.80.247:8080#ServerID_OuterContainerID -->
<g id="edge5" class="edge"><title>1_fwatchdog#ServerID_6df85d7674&#45;2kqrj&#45;&gt;10.1.80.247:8080#ServerID_OuterContainerID</title>
<path fill="none" stroke="black" d="M5239.96,-139.067C5206.19,-156.58 5150.07,-182.679 5098,-193 5041.86,-204.129 1034.17,-198.149 977,-201 908.759,-204.404 892.088,-210.299 824,-216 760.07,-221.353 743.989,-221.405 680,-226 615.561,-230.628 544.204,-235.9 483.803,-240.406"/>
<polygon fill="black" stroke="black" points="483.532,-236.916 473.82,-241.151 484.053,-243.897 483.532,-236.916"/>
<text text-anchor="middle" x="997" y="-204.8" font-family="Times,serif" font-size="14.00">POST</text>
</g>
<!-- 10.1.80.247:33214#ServerID_OuterContainerID&#45;&gt;1_fwatchdog#ServerID_6df85d7674&#45;2kqrj -->
<g id="edge7" class="edge"><title>10.1.80.247:33214#ServerID_OuterContainerID&#45;&gt;1_fwatchdog#ServerID_6df85d7674&#45;2kqrj</title>
<path fill="none" stroke="black" d="M1835.05,-240.515C1901.01,-235.263 1983.91,-229.327 2058,-226 2312.89,-214.553 2377.01,-225 2632,-216 2757.43,-211.573 2788.54,-204.564 2914,-201 2974.64,-199.277 5038.5,-204.848 5098,-193 5145.59,-183.525 5196.57,-160.915 5230.77,-143.736"/>
<polygon fill="black" stroke="black" points="5232.64,-146.713 5239.95,-139.05 5229.45,-140.477 5232.64,-146.713"/>
<text text-anchor="middle" x="2934" y="-204.8" font-family="Times,serif" font-size="14.00">POST</text>
</g>
<!-- 1_fwatchdog#ServerID_34e86192c217 -->
<g id="node9" class="node"><title>1_fwatchdog#ServerID_34e86192c217</title>
<polygon fill="none" stroke="black" points="7451.5,-270 7152.5,-270 7152.5,-234 7451.5,-234 7451.5,-270"/>
<text text-anchor="middle" x="7302" y="-248.3" font-family="Times,serif" font-size="14.00">1_fwatchdog#ServerID_34e86192c217</text>
</g>
<!-- 10.1.80.247:33214#ServerID_OuterContainerID&#45;&gt;1_fwatchdog#ServerID_34e86192c217 -->
<g id="edge11" class="edge"><title>10.1.80.247:33214#ServerID_OuterContainerID&#45;&gt;1_fwatchdog#ServerID_34e86192c217</title>
<path fill="none" stroke="black" d="M1776.32,-266.668C1845.32,-282.31 1959.09,-307.108 2058,-324 2075.75,-327.031 2080.49,-325.002 2098.5,-325 2238.63,-324.986 7006.03,-353.581 7143,-324 7186.4,-314.626 7232.21,-292.393 7263.45,-275.093"/>
<polygon fill="black" stroke="black" points="7265.27,-278.089 7272.26,-270.132 7261.83,-271.99 7265.27,-278.089"/>
<text text-anchor="middle" x="2082" y="-335.8" font-family="Times,serif" font-size="14.00">read</text>
</g>
<!-- gateway:8080#ServerID_OuterContainerID&#45;&gt;1_fwatchdog#ServerID_6df85d7674&#45;2kqrj -->
<g id="edge3" class="edge"><title>gateway:8080#ServerID_OuterContainerID&#45;&gt;1_fwatchdog#ServerID_6df85d7674&#45;2kqrj</title>
<path fill="none" stroke="black" d="M3171.81,-240.566C3231.47,-235.378 3306.18,-229.487 3373,-226 3598.76,-214.218 4163.97,-205.055 4390,-201 4429.33,-200.294 5059.45,-200.829 5098,-193 5145.4,-183.372 5196.23,-160.902 5230.44,-143.799"/>
<polygon fill="black" stroke="black" points="5232.29,-146.78 5239.63,-139.132 5229.13,-140.539 5232.29,-146.78"/>
<text text-anchor="middle" x="4432" y="-204.8" font-family="Times,serif" font-size="14.00">RESPONSE</text>
</g>
<!-- 10_node#ServerID_34e86192c217 -->
<g id="node12" class="node"><title>10_node#ServerID_34e86192c217</title>
<polygon fill="none" stroke="black" points="6613.5,-139 6346.5,-139 6346.5,-103 6613.5,-103 6613.5,-139"/>
<text text-anchor="middle" x="6480" y="-117.3" font-family="Times,serif" font-size="14.00">10_node#ServerID_34e86192c217</text>
</g>
<!-- gateway:8080#ServerID_OuterContainerID&#45;&gt;10_node#ServerID_34e86192c217 -->
<g id="edge13" class="edge"><title>gateway:8080#ServerID_OuterContainerID&#45;&gt;10_node#ServerID_34e86192c217</title>
<path fill="none" stroke="black" d="M3168.89,-240.404C3229.01,-235.031 3305.06,-229.018 3373,-226 3617.44,-215.142 4229.98,-233.978 4474,-216 4522.33,-212.439 4533.66,-204.452 4582,-201 4630.54,-197.534 6286.6,-204.029 6334,-193 6374.5,-183.577 6416.81,-161.434 6445.39,-144.362"/>
<polygon fill="black" stroke="black" points="6447.45,-147.209 6454.17,-139.02 6443.81,-141.229 6447.45,-147.209"/>
<text text-anchor="middle" x="4598.5" y="-204.8" font-family="Times,serif" font-size="14.00">read</text>
</g>
<!-- 10.1.80.247:8080#ServerID_OuterContainerID&#45;&gt;1_fwatchdog#ServerID_6df85d7674&#45;2kqrj -->
<g id="edge4" class="edge"><title>10.1.80.247:8080#ServerID_OuterContainerID&#45;&gt;1_fwatchdog#ServerID_6df85d7674&#45;2kqrj</title>
<path fill="none" stroke="black" d="M464.586,-240.661C528.634,-235.549 608.521,-229.698 680,-226 831.418,-218.167 869.451,-220.661 1021,-216 1228.12,-209.63 1279.81,-204.563 1487,-201 1537.15,-200.138 5048.81,-202.759 5098,-193 5145.59,-183.559 5196.58,-160.944 5230.77,-143.754"/>
<polygon fill="black" stroke="black" points="5232.64,-146.73 5239.96,-139.065 5229.46,-140.495 5232.64,-146.73"/>
<text text-anchor="middle" x="1529" y="-204.8" font-family="Times,serif" font-size="14.00">RESPONSE</text>
</g>
<!-- 10.1.80.1:28486#ServerID_OuterContainerID -->
<g id="node22" class="node"><title>10.1.80.1:28486#ServerID_OuterContainerID</title>
<polygon fill="none" stroke="black" points="1023,-139 704.105,-121 1023,-103 1341.9,-121 1023,-139"/>
<text text-anchor="middle" x="1023" y="-117.3" font-family="Times,serif" font-size="14.00">10.1.80.1:28486#ServerID_OuterContainerID</text>
</g>
<!-- 10.1.80.247:8080#ServerID_OuterContainerID&#45;&gt;10.1.80.1:28486#ServerID_OuterContainerID -->
<g id="edge24" class="edge"><title>10.1.80.247:8080#ServerID_OuterContainerID&#45;&gt;10.1.80.1:28486#ServerID_OuterContainerID</title>
<path fill="none" stroke="black" d="M413.82,-237.831C472.239,-227.189 557.347,-212.192 632,-201 659.913,-196.815 667.181,-197.768 695,-193 786.219,-177.366 890.52,-153.798 956.548,-138.161"/>
<polygon fill="black" stroke="black" points="957.487,-141.535 966.407,-135.818 955.869,-134.725 957.487,-141.535"/>
<text text-anchor="middle" x="674" y="-204.8" font-family="Times,serif" font-size="14.00">RESPONSE</text>
</g>
<!-- 10.0.88.125:31112#ServerID_OuterContainerID -->
<g id="node23" class="node"><title>10.0.88.125:31112#ServerID_OuterContainerID</title>
<polygon fill="none" stroke="black" points="351,-139 15.5152,-121 351,-103 686.485,-121 351,-139"/>
<text text-anchor="middle" x="351" y="-117.3" font-family="Times,serif" font-size="14.00">10.0.88.125:31112#ServerID_OuterContainerID</text>
</g>
<!-- 10.1.80.247:8080#ServerID_OuterContainerID&#45;&gt;10.0.88.125:31112#ServerID_OuterContainerID -->
<g id="edge25" class="edge"><title>10.1.80.247:8080#ServerID_OuterContainerID&#45;&gt;10.0.88.125:31112#ServerID_OuterContainerID</title>
<path fill="none" stroke="black" d="M344.062,-233.87C345.401,-212.281 347.719,-174.912 349.304,-149.352"/>
<polygon fill="black" stroke="black" points="352.807,-149.399 349.933,-139.201 345.821,-148.965 352.807,-149.399"/>
<text text-anchor="middle" x="389" y="-204.8" font-family="Times,serif" font-size="14.00">RESPONSE</text>
</g>
<!-- pipe:[331682317]#ServerID_e56b6537e2d5 -->
<g id="node8" class="node"><title>pipe:[331682317]#ServerID_e56b6537e2d5</title>
<ellipse fill="none" stroke="black" cx="4869" cy="-34" rx="217.162" ry="18"/>
<text text-anchor="middle" x="4869" y="-30.3" font-family="Times,serif" font-size="14.00">pipe:[331682317]#ServerID_e56b6537e2d5</text>
</g>
<!-- 1_fwatchdog#ServerID_e56b6537e2d5&#45;&gt;pipe:[331682317]#ServerID_e56b6537e2d5 -->
<g id="edge8" class="edge"><title>1_fwatchdog#ServerID_e56b6537e2d5&#45;&gt;pipe:[331682317]#ServerID_e56b6537e2d5</title>
<path fill="none" stroke="black" d="M4451.69,-102.952C4542.77,-88.1211 4674.06,-66.7429 4764.95,-51.9427"/>
<polygon fill="black" stroke="black" points="4765.69,-55.3685 4775,-50.3067 4764.57,-48.4595 4765.69,-55.3685"/>
<text text-anchor="middle" x="4659" y="-73.8" font-family="Times,serif" font-size="14.00">write</text>
</g>
<!-- localhost:3000#ServerID_e56b6537e2d5 -->
<g id="node11" class="node"><title>localhost:3000#ServerID_e56b6537e2d5</title>
<polygon fill="none" stroke="black" points="4347,-52 4060.45,-34 4347,-16 4633.55,-34 4347,-52"/>
<text text-anchor="middle" x="4347" y="-30.3" font-family="Times,serif" font-size="14.00">localhost:3000#ServerID_e56b6537e2d5</text>
</g>
<!-- 1_fwatchdog#ServerID_e56b6537e2d5&#45;&gt;localhost:3000#ServerID_e56b6537e2d5 -->
<g id="edge18" class="edge"><title>1_fwatchdog#ServerID_e56b6537e2d5&#45;&gt;localhost:3000#ServerID_e56b6537e2d5</title>
<path fill="none" stroke="black" d="M4350.51,-102.985C4351.53,-97.2933 4352.5,-90.8971 4353,-85 4353.63,-77.5395 4353.17,-69.475 4352.28,-62.0455"/>
<polygon fill="black" stroke="black" points="4355.73,-61.4681 4350.79,-52.0944 4348.81,-62.5016 4355.73,-61.4681"/>
<text text-anchor="middle" x="4373" y="-73.8" font-family="Times,serif" font-size="14.00">write</text>
</g>
<!-- localhost:3000#ServerID_34e86192c217 -->
<g id="node10" class="node"><title>localhost:3000#ServerID_34e86192c217</title>
<polygon fill="none" stroke="black" points="7165,-139 6878.45,-121 7165,-103 7451.55,-121 7165,-139"/>
<text text-anchor="middle" x="7165" y="-117.3" font-family="Times,serif" font-size="14.00">localhost:3000#ServerID_34e86192c217</text>
</g>
<!-- 1_fwatchdog#ServerID_34e86192c217&#45;&gt;localhost:3000#ServerID_34e86192c217 -->
<g id="edge10" class="edge"><title>1_fwatchdog#ServerID_34e86192c217&#45;&gt;localhost:3000#ServerID_34e86192c217</title>
<path fill="none" stroke="black" d="M7283.81,-233.87C7259.56,-211.039 7216.57,-170.562 7189.49,-145.064"/>
<polygon fill="black" stroke="black" points="7191.65,-142.29 7181.97,-137.983 7186.86,-147.386 7191.65,-142.29"/>
<text text-anchor="middle" x="7281" y="-204.8" font-family="Times,serif" font-size="14.00">write</text>
</g>
<!-- localhost:3000#ServerID_e56b6537e2d5&#45;&gt;1_fwatchdog#ServerID_e56b6537e2d5 -->
<g id="edge12" class="edge"><title>localhost:3000#ServerID_e56b6537e2d5&#45;&gt;1_fwatchdog#ServerID_e56b6537e2d5</title>
<path fill="none" stroke="black" d="M4330.44,-51.0358C4322.68,-60.5478 4315.93,-73.0478 4320,-85 4321.09,-88.1961 4322.6,-91.3275 4324.36,-94.322"/>
<polygon fill="black" stroke="black" points="4321.65,-96.5574 4330.19,-102.823 4327.42,-92.5968 4321.65,-96.5574"/>
<text text-anchor="middle" x="4336.5" y="-73.8" font-family="Times,serif" font-size="14.00">read</text>
</g>
<!-- 10_node#ServerID_34e86192c217&#45;&gt;gateway:8080#ServerID_OuterContainerID -->
<g id="edge17" class="edge"><title>10_node#ServerID_34e86192c217&#45;&gt;gateway:8080#ServerID_OuterContainerID</title>
<path fill="none" stroke="black" d="M6453.89,-139.102C6425.67,-156.508 6378.7,-182.392 6334,-193 6287.54,-204.027 4662.75,-215.488 4615,-216 4339.01,-218.957 3648.74,-213.893 3373,-226 3308.65,-228.825 3237.02,-234.369 3178.54,-239.519"/>
<polygon fill="black" stroke="black" points="3178.17,-236.038 3168.52,-240.409 3178.79,-243.01 3178.17,-236.038"/>
<text text-anchor="middle" x="6063" y="-204.8" font-family="Times,serif" font-size="14.00">connect</text>
</g>
<!-- 10.152.183.10:53#ServerID_OuterContainerID -->
<g id="node15" class="node"><title>10.152.183.10:53#ServerID_OuterContainerID</title>
<polygon fill="none" stroke="black" points="3709,-270 3381.56,-252 3709,-234 4036.44,-252 3709,-270"/>
<text text-anchor="middle" x="3709" y="-248.3" font-family="Times,serif" font-size="14.00">10.152.183.10:53#ServerID_OuterContainerID</text>
</g>
<!-- 10_node#ServerID_34e86192c217&#45;&gt;10.152.183.10:53#ServerID_OuterContainerID -->
<g id="edge16" class="edge"><title>10_node#ServerID_34e86192c217&#45;&gt;10.152.183.10:53#ServerID_OuterContainerID</title>
<path fill="none" stroke="black" d="M6453.87,-139.025C6425.63,-156.367 6378.65,-182.197 6334,-193 6117.02,-245.493 4695.01,-251.611 4039.25,-251.591"/>
<polygon fill="black" stroke="black" points="4039.18,-248.091 4029.18,-251.59 4039.18,-255.091 4039.18,-248.091"/>
<text text-anchor="middle" x="6286.5" y="-204.8" font-family="Times,serif" font-size="14.00">sendto</text>
</g>
<!-- /etc/hosts#ServerID_34e86192c217 -->
<g id="node13" class="node"><title>/etc/hosts#ServerID_34e86192c217</title>
<ellipse fill="none" stroke="black" cx="6954" cy="-252" rx="180.068" ry="18"/>
<text text-anchor="middle" x="6954" y="-248.3" font-family="Times,serif" font-size="14.00">/etc/hosts#ServerID_34e86192c217</text>
</g>
<!-- /etc/hosts#ServerID_34e86192c217&#45;&gt;10_node#ServerID_34e86192c217 -->
<g id="edge14" class="edge"><title>/etc/hosts#ServerID_34e86192c217&#45;&gt;10_node#ServerID_34e86192c217</title>
<path fill="none" stroke="black" d="M6894.93,-234.923C6808.16,-211.309 6646.41,-167.289 6552.54,-141.743"/>
<polygon fill="black" stroke="black" points="6553.41,-138.351 6542.84,-139.102 6551.57,-145.105 6553.41,-138.351"/>
<text text-anchor="middle" x="6830.5" y="-204.8" font-family="Times,serif" font-size="14.00">read</text>
</g>
<!-- /etc/resolv.conf#ServerID_34e86192c217 -->
<g id="node14" class="node"><title>/etc/resolv.conf#ServerID_34e86192c217</title>
<ellipse fill="none" stroke="black" cx="6551" cy="-252" rx="205.264" ry="18"/>
<text text-anchor="middle" x="6551" y="-248.3" font-family="Times,serif" font-size="14.00">/etc/resolv.conf#ServerID_34e86192c217</text>
</g>
<!-- /etc/resolv.conf#ServerID_34e86192c217&#45;&gt;10_node#ServerID_34e86192c217 -->
<g id="edge15" class="edge"><title>/etc/resolv.conf#ServerID_34e86192c217&#45;&gt;10_node#ServerID_34e86192c217</title>
<path fill="none" stroke="black" d="M6541.57,-233.87C6529.48,-211.895 6508.38,-173.573 6494.31,-147.994"/>
<polygon fill="black" stroke="black" points="6497.36,-146.274 6489.47,-139.201 6491.22,-149.649 6497.36,-146.274"/>
<text text-anchor="middle" x="6547.5" y="-204.8" font-family="Times,serif" font-size="14.00">read</text>
</g>
<!-- 10.1.80.247:39550#ServerID_OuterContainerID -->
<g id="node16" class="node"><title>10.1.80.247:39550#ServerID_OuterContainerID</title>
<polygon fill="none" stroke="black" points="2402,-270 2066.52,-252 2402,-234 2737.48,-252 2402,-270"/>
<text text-anchor="middle" x="2402" y="-248.3" font-family="Times,serif" font-size="14.00">10.1.80.247:39550#ServerID_OuterContainerID</text>
</g>
<!-- 1_fwatchdog#ServerID_c437f7cecfb6 -->
<g id="node17" class="node"><title>1_fwatchdog#ServerID_c437f7cecfb6</title>
<polygon fill="none" stroke="black" points="6322,-139 6032,-139 6032,-103 6322,-103 6322,-139"/>
<text text-anchor="middle" x="6177" y="-117.3" font-family="Times,serif" font-size="14.00">1_fwatchdog#ServerID_c437f7cecfb6</text>
</g>
<!-- 10.1.80.247:39550#ServerID_OuterContainerID&#45;&gt;1_fwatchdog#ServerID_c437f7cecfb6 -->
<g id="edge20" class="edge"><title>10.1.80.247:39550#ServerID_OuterContainerID&#45;&gt;1_fwatchdog#ServerID_c437f7cecfb6</title>
<path fill="none" stroke="black" d="M2529.33,-240.783C2594.41,-235.812 2674.9,-230.051 2747,-226 2886,-218.19 3233.81,-203.988 3373,-201 3409.8,-200.21 5987.06,-200.943 6023,-193 6065.6,-183.586 6110.47,-161.284 6140.72,-144.167"/>
<polygon fill="black" stroke="black" points="6142.7,-147.066 6149.62,-139.042 6139.21,-141 6142.7,-147.066"/>
<text text-anchor="middle" x="3389.5" y="-204.8" font-family="Times,serif" font-size="14.00">read</text>
</g>
<!-- /home/app/node_modules#ServerID_90667071e782 -->
<g id="node18" class="node"><title>/home/app/node_modules#ServerID_90667071e782</title>
<ellipse fill="none" stroke="black" cx="7729" cy="-383" rx="252.655" ry="18"/>
<text text-anchor="middle" x="7729" y="-379.3" font-family="Times,serif" font-size="14.00">/home/app/node_modules#ServerID_90667071e782</text>
</g>
<!-- 15_node#ServerID_90667071e782 -->
<g id="node19" class="node"><title>15_node#ServerID_90667071e782</title>
<polygon fill="none" stroke="black" points="7863,-270 7595,-270 7595,-234 7863,-234 7863,-270"/>
<text text-anchor="middle" x="7729" y="-248.3" font-family="Times,serif" font-size="14.00">15_node#ServerID_90667071e782</text>
</g>
<!-- /home/app/node_modules#ServerID_90667071e782&#45;&gt;15_node#ServerID_90667071e782 -->
<g id="edge21" class="edge"><title>/home/app/node_modules#ServerID_90667071e782&#45;&gt;15_node#ServerID_90667071e782</title>
<path fill="none" stroke="black" d="M7729,-364.87C7729,-343.281 7729,-305.912 7729,-280.352"/>
<polygon fill="black" stroke="black" points="7732.5,-280.201 7729,-270.201 7725.5,-280.201 7732.5,-280.201"/>
<text text-anchor="middle" x="7745.5" y="-335.8" font-family="Times,serif" font-size="14.00">read</text>
</g>
<!-- localhost:3000#ServerID_c437f7cecfb6 -->
<g id="node20" class="node"><title>localhost:3000#ServerID_c437f7cecfb6</title>
<polygon fill="none" stroke="black" points="5735,-139 5456.49,-121 5735,-103 6013.51,-121 5735,-139"/>
<text text-anchor="middle" x="5735" y="-117.3" font-family="Times,serif" font-size="14.00">localhost:3000#ServerID_c437f7cecfb6</text>
</g>
<!-- 15_node#ServerID_c437f7cecfb6 -->
<g id="node21" class="node"><title>15_node#ServerID_c437f7cecfb6</title>
<polygon fill="none" stroke="black" points="5864,-52 5606,-52 5606,-16 5864,-16 5864,-52"/>
<text text-anchor="middle" x="5735" y="-30.3" font-family="Times,serif" font-size="14.00">15_node#ServerID_c437f7cecfb6</text>
</g>
<!-- localhost:3000#ServerID_c437f7cecfb6&#45;&gt;15_node#ServerID_c437f7cecfb6 -->
<g id="edge22" class="edge"><title>localhost:3000#ServerID_c437f7cecfb6&#45;&gt;15_node#ServerID_c437f7cecfb6</title>
<path fill="none" stroke="black" d="M5735,-102.799C5735,-91.1626 5735,-75.5479 5735,-62.2368"/>
<polygon fill="black" stroke="black" points="5738.5,-62.1754 5735,-52.1754 5731.5,-62.1755 5738.5,-62.1754"/>
<text text-anchor="middle" x="5751.5" y="-73.8" font-family="Times,serif" font-size="14.00">read</text>
</g>
<!-- 10.1.80.1:28486#ServerID_OuterContainerID&#45;&gt;10.1.80.247:8080#ServerID_OuterContainerID -->
<g id="edge23" class="edge"><title>10.1.80.1:28486#ServerID_OuterContainerID&#45;&gt;10.1.80.247:8080#ServerID_OuterContainerID</title>
<path fill="none" stroke="black" d="M983.973,-136.989C926.915,-158.238 816.958,-196.679 720,-216 654.984,-228.956 582.683,-237.136 518.927,-242.292"/>
<polygon fill="black" stroke="black" points="518.464,-238.817 508.771,-243.094 519.015,-245.796 518.464,-238.817"/>
<text text-anchor="middle" x="800" y="-204.8" font-family="Times,serif" font-size="14.00">POST</text>
</g>
</g>
</svg>
