<?xml version="1.0" encoding="UTF-8" standalone="no"?>
<!DOCTYPE svg PUBLIC "-//W3C//DTD SVG 1.1//EN"
 "http://www.w3.org/Graphics/SVG/1.1/DTD/svg11.dtd">
<!-- Generated by graphviz version 2.38.0 (20140413.2041)
 -->
<!-- Title: G Pages: 1 -->
<svg width="9173pt" height="402pt"
 viewBox="0.00 0.00 9173.00 402.00" xmlns="http://www.w3.org/2000/svg" xmlns:xlink="http://www.w3.org/1999/xlink">
<g id="graph0" class="graph" transform="scale(1 1) rotate(0) translate(4 398)">
<title>G</title>
<polygon fill="white" stroke="none" points="-4,4 -4,-398 9169,-398 9169,4 -4,4"/>
<g id="clust1" class="cluster"><title>clusterServerID_34e86192c217</title>
<polygon fill="none" stroke="black" points="8556,-8 8556,-170 9157,-170 9157,-8 8556,-8"/>
<text text-anchor="middle" x="8856.5" y="-154.8" font-family="Times,serif" font-size="14.00">clusterServerID_34e86192c217</text>
</g>
<g id="clust2" class="cluster"><title>clusterServerID_5f846fd567&#45;w7nbt</title>
<polygon fill="none" stroke="black" points="2198,-311 2198,-386 2538,-386 2538,-311 2198,-311"/>
<text text-anchor="middle" x="2368" y="-370.8" font-family="Times,serif" font-size="14.00">clusterServerID_5f846fd567&#45;w7nbt</text>
</g>
<g id="clust3" class="cluster"><title>clusterServerID_6df85d7674&#45;2kqrj</title>
<polygon fill="none" stroke="black" points="6708,-95 6708,-170 7046,-170 7046,-95 6708,-95"/>
<text text-anchor="middle" x="6877" y="-154.8" font-family="Times,serif" font-size="14.00">clusterServerID_6df85d7674&#45;2kqrj</text>
</g>
<g id="clust4" class="cluster"><title>clusterServerID_OuterContainerID</title>
<polygon fill="none" stroke="black" points="8,-95 8,-278 6700,-278 6700,-95 8,-95"/>
<text text-anchor="middle" x="3354" y="-262.8" font-family="Times,serif" font-size="14.00">clusterServerID_OuterContainerID</text>
</g>
<g id="clust5" class="cluster"><title>clusterServerID_c437f7cecfb6</title>
<polygon fill="none" stroke="black" points="6220,-311 6220,-386 6526,-386 6526,-311 6220,-311"/>
<text text-anchor="middle" x="6373" y="-370.8" font-family="Times,serif" font-size="14.00">clusterServerID_c437f7cecfb6</text>
</g>
<g id="clust6" class="cluster"><title>clusterServerID_e56b6537e2d5</title>
<polygon fill="none" stroke="black" points="7054,-8 7054,-170 8548,-170 8548,-8 7054,-8"/>
<text text-anchor="middle" x="7801" y="-154.8" font-family="Times,serif" font-size="14.00">clusterServerID_e56b6537e2d5</text>
</g>
<!-- 1_fwatchdog#ServerID_5f846fd567&#45;w7nbt -->
<g id="node1" class="node"><title>1_fwatchdog#ServerID_5f846fd567&#45;w7nbt</title>
<polygon fill="none" stroke="black" points="2530,-355 2206,-355 2206,-319 2530,-319 2530,-355"/>
<text text-anchor="middle" x="2368" y="-333.3" font-family="Times,serif" font-size="14.00">1_fwatchdog#ServerID_5f846fd567&#45;w7nbt</text>
</g>
<!-- 10.1.80.247:35250#ServerID_OuterContainerID -->
<g id="node2" class="node"><title>10.1.80.247:35250#ServerID_OuterContainerID</title>
<polygon fill="none" stroke="black" points="2368,-247 2032.52,-229 2368,-211 2703.48,-229 2368,-247"/>
<text text-anchor="middle" x="2368" y="-225.3" font-family="Times,serif" font-size="14.00">10.1.80.247:35250#ServerID_OuterContainerID</text>
</g>
<!-- 1_fwatchdog#ServerID_5f846fd567&#45;w7nbt&#45;&gt;10.1.80.247:35250#ServerID_OuterContainerID -->
<g id="edge1" class="edge"><title>1_fwatchdog#ServerID_5f846fd567&#45;w7nbt&#45;&gt;10.1.80.247:35250#ServerID_OuterContainerID</title>
<path fill="none" stroke="black" d="M2373.96,-318.759C2375.61,-313.165 2377.18,-306.883 2378,-301 2380.04,-286.409 2378.06,-270.133 2375.34,-256.849"/>
<polygon fill="black" stroke="black" points="2378.71,-255.889 2373.06,-246.927 2371.88,-257.457 2378.71,-255.889"/>
<text text-anchor="middle" x="2421" y="-289.8" font-family="Times,serif" font-size="14.00">RESPONSE</text>
</g>
<!-- 10.1.80.247:35250#ServerID_OuterContainerID&#45;&gt;1_fwatchdog#ServerID_5f846fd567&#45;w7nbt -->
<g id="edge4" class="edge"><title>10.1.80.247:35250#ServerID_OuterContainerID&#45;&gt;1_fwatchdog#ServerID_5f846fd567&#45;w7nbt</title>
<path fill="none" stroke="black" d="M2354.64,-246.511C2346.96,-257.105 2338.05,-271.542 2334,-286 2332.2,-292.42 2331.49,-294.822 2334,-301 2335.42,-304.503 2337.38,-307.848 2339.65,-310.984"/>
<polygon fill="black" stroke="black" points="2337.08,-313.372 2346.2,-318.762 2342.43,-308.86 2337.08,-313.372"/>
<text text-anchor="middle" x="2354" y="-289.8" font-family="Times,serif" font-size="14.00">POST</text>
</g>
<!-- 1_fwatchdog#ServerID_e56b6537e2d5 -->
<g id="node10" class="node"><title>1_fwatchdog#ServerID_e56b6537e2d5</title>
<polygon fill="none" stroke="black" points="7646.5,-139 7347.5,-139 7347.5,-103 7646.5,-103 7646.5,-139"/>
<text text-anchor="middle" x="7497" y="-117.3" font-family="Times,serif" font-size="14.00">1_fwatchdog#ServerID_e56b6537e2d5</text>
</g>
<!-- 10.1.80.247:35250#ServerID_OuterContainerID&#45;&gt;1_fwatchdog#ServerID_e56b6537e2d5 -->
<g id="edge20" class="edge"><title>10.1.80.247:35250#ServerID_OuterContainerID&#45;&gt;1_fwatchdog#ServerID_e56b6537e2d5</title>
<path fill="none" stroke="black" d="M2510.69,-218.628C2703.18,-206.482 3056.77,-185.923 3359,-178 3414.25,-176.552 7283.34,-178.127 7338,-170 7373.9,-164.662 7412.94,-152.968 7443.35,-142.46"/>
<polygon fill="black" stroke="black" points="7444.63,-145.719 7452.9,-139.099 7442.31,-139.115 7444.63,-145.719"/>
<text text-anchor="middle" x="3375.5" y="-181.8" font-family="Times,serif" font-size="14.00">read</text>
</g>
<!-- 1_fwatchdog#ServerID_6df85d7674&#45;2kqrj -->
<g id="node3" class="node"><title>1_fwatchdog#ServerID_6df85d7674&#45;2kqrj</title>
<polygon fill="none" stroke="black" points="7037.5,-139 6716.5,-139 6716.5,-103 7037.5,-103 7037.5,-139"/>
<text text-anchor="middle" x="6877" y="-117.3" font-family="Times,serif" font-size="14.00">1_fwatchdog#ServerID_6df85d7674&#45;2kqrj</text>
</g>
<!-- 10.1.80.247:33214#ServerID_OuterContainerID -->
<g id="node4" class="node"><title>10.1.80.247:33214#ServerID_OuterContainerID</title>
<polygon fill="none" stroke="black" points="1024,-247 688.515,-229 1024,-211 1359.48,-229 1024,-247"/>
<text text-anchor="middle" x="1024" y="-225.3" font-family="Times,serif" font-size="14.00">10.1.80.247:33214#ServerID_OuterContainerID</text>
</g>
<!-- 1_fwatchdog#ServerID_6df85d7674&#45;2kqrj&#45;&gt;10.1.80.247:33214#ServerID_OuterContainerID -->
<g id="edge2" class="edge"><title>1_fwatchdog#ServerID_6df85d7674&#45;2kqrj&#45;&gt;10.1.80.247:33214#ServerID_OuterContainerID</title>
<path fill="none" stroke="black" d="M6828.89,-139.109C6794.58,-150.378 6747.08,-164.101 6704,-170 6632.4,-179.804 1573.16,-174.173 1501,-178 1370.3,-184.932 1220.27,-202.202 1123.92,-214.501"/>
<polygon fill="black" stroke="black" points="1123.37,-211.043 1113.9,-215.788 1124.26,-217.986 1123.37,-211.043"/>
<text text-anchor="middle" x="1543" y="-181.8" font-family="Times,serif" font-size="14.00">RESPONSE</text>
</g>
<!-- gateway:8080#ServerID_OuterContainerID -->
<g id="node5" class="node"><title>gateway:8080#ServerID_OuterContainerID</title>
<polygon fill="none" stroke="black" points="3026,-247 2721.52,-229 3026,-211 3330.48,-229 3026,-247"/>
<text text-anchor="middle" x="3026" y="-225.3" font-family="Times,serif" font-size="14.00">gateway:8080#ServerID_OuterContainerID</text>
</g>
<!-- 1_fwatchdog#ServerID_6df85d7674&#45;2kqrj&#45;&gt;gateway:8080#ServerID_OuterContainerID -->
<g id="edge8" class="edge"><title>1_fwatchdog#ServerID_6df85d7674&#45;2kqrj&#45;&gt;gateway:8080#ServerID_OuterContainerID</title>
<path fill="none" stroke="black" d="M6828.89,-139.091C6794.58,-150.352 6747.08,-164.072 6704,-170 6627.09,-180.585 3986.58,-174.954 3909,-178 3820.82,-181.462 3799.08,-187.528 3711,-193 3546.23,-203.236 3504.87,-202.538 3340,-211 3289.63,-213.585 3234.72,-216.519 3185.11,-219.212"/>
<polygon fill="black" stroke="black" points="3184.73,-215.728 3174.93,-219.765 3185.11,-222.717 3184.73,-215.728"/>
<text text-anchor="middle" x="3929" y="-181.8" font-family="Times,serif" font-size="14.00">POST</text>
</g>
<!-- 10.1.80.247:8080#ServerID_OuterContainerID -->
<g id="node6" class="node"><title>10.1.80.247:8080#ServerID_OuterContainerID</title>
<polygon fill="none" stroke="black" points="343,-247 15.5599,-229 343,-211 670.44,-229 343,-247"/>
<text text-anchor="middle" x="343" y="-225.3" font-family="Times,serif" font-size="14.00">10.1.80.247:8080#ServerID_OuterContainerID</text>
</g>
<!-- 1_fwatchdog#ServerID_6df85d7674&#45;2kqrj&#45;&gt;10.1.80.247:8080#ServerID_OuterContainerID -->
<g id="edge7" class="edge"><title>1_fwatchdog#ServerID_6df85d7674&#45;2kqrj&#45;&gt;10.1.80.247:8080#ServerID_OuterContainerID</title>
<path fill="none" stroke="black" d="M6828.89,-139.111C6794.58,-150.38 6747.08,-164.104 6704,-170 6625.01,-180.811 1043.66,-174.743 964,-178 871.298,-181.791 623.953,-202.956 470.866,-216.506"/>
<polygon fill="black" stroke="black" points="470.118,-213.058 460.466,-217.428 470.736,-220.031 470.118,-213.058"/>
<text text-anchor="middle" x="984" y="-181.8" font-family="Times,serif" font-size="14.00">POST</text>
</g>
<!-- 10.1.80.247:33214#ServerID_OuterContainerID&#45;&gt;1_fwatchdog#ServerID_6df85d7674&#45;2kqrj -->
<g id="edge5" class="edge"><title>10.1.80.247:33214#ServerID_OuterContainerID&#45;&gt;1_fwatchdog#ServerID_6df85d7674&#45;2kqrj</title>
<path fill="none" stroke="black" d="M1170.65,-218.858C1401.1,-204.501 1822.85,-178.259 1831,-178 1898.65,-175.851 6636.95,-179.186 6704,-170 6743.21,-164.629 6786.08,-152.778 6819.34,-142.197"/>
<polygon fill="black" stroke="black" points="6820.45,-145.514 6828.89,-139.108 6818.3,-138.854 6820.45,-145.514"/>
<text text-anchor="middle" x="1851" y="-181.8" font-family="Times,serif" font-size="14.00">POST</text>
</g>
<!-- 1_fwatchdog#ServerID_34e86192c217 -->
<g id="node7" class="node"><title>1_fwatchdog#ServerID_34e86192c217</title>
<polygon fill="none" stroke="black" points="8863.5,-139 8564.5,-139 8564.5,-103 8863.5,-103 8863.5,-139"/>
<text text-anchor="middle" x="8714" y="-117.3" font-family="Times,serif" font-size="14.00">1_fwatchdog#ServerID_34e86192c217</text>
</g>
<!-- 10.1.80.247:33214#ServerID_OuterContainerID&#45;&gt;1_fwatchdog#ServerID_34e86192c217 -->
<g id="edge10" class="edge"><title>10.1.80.247:33214#ServerID_OuterContainerID&#45;&gt;1_fwatchdog#ServerID_34e86192c217</title>
<path fill="none" stroke="black" d="M1184.55,-219.612C1242.37,-216.711 1308.11,-213.551 1368,-211 1591.5,-201.479 1647.58,-204.066 1871,-193 1976.41,-187.779 2002.51,-181.4 2108,-178 2197.45,-175.116 8463.43,-182.901 8552,-170 8588.54,-164.678 8628.31,-152.984 8659.31,-142.472"/>
<polygon fill="black" stroke="black" points="8660.73,-145.681 8669.04,-139.11 8658.45,-139.065 8660.73,-145.681"/>
<text text-anchor="middle" x="2124.5" y="-181.8" font-family="Times,serif" font-size="14.00">read</text>
</g>
<!-- gateway:8080#ServerID_OuterContainerID&#45;&gt;1_fwatchdog#ServerID_6df85d7674&#45;2kqrj -->
<g id="edge3" class="edge"><title>gateway:8080#ServerID_OuterContainerID&#45;&gt;1_fwatchdog#ServerID_6df85d7674&#45;2kqrj</title>
<path fill="none" stroke="black" d="M3127.93,-217.005C3247.35,-204.708 3451.26,-185.526 3627,-178 3712.39,-174.343 6619.32,-181.641 6704,-170 6743.21,-164.61 6786.08,-152.759 6819.33,-142.183"/>
<polygon fill="black" stroke="black" points="6820.45,-145.5 6828.89,-139.095 6818.3,-138.839 6820.45,-145.5"/>
<text text-anchor="middle" x="3669" y="-181.8" font-family="Times,serif" font-size="14.00">RESPONSE</text>
</g>
<!-- 10_node#ServerID_34e86192c217 -->
<g id="node16" class="node"><title>10_node#ServerID_34e86192c217</title>
<polygon fill="none" stroke="black" points="9148.5,-139 8881.5,-139 8881.5,-103 9148.5,-103 9148.5,-139"/>
<text text-anchor="middle" x="9015" y="-117.3" font-family="Times,serif" font-size="14.00">10_node#ServerID_34e86192c217</text>
</g>
<!-- gateway:8080#ServerID_OuterContainerID&#45;&gt;10_node#ServerID_34e86192c217 -->
<g id="edge24" class="edge"><title>gateway:8080#ServerID_OuterContainerID&#45;&gt;10_node#ServerID_34e86192c217</title>
<path fill="none" stroke="black" d="M3168.2,-219.367C3222.01,-216.346 3283.81,-213.171 3340,-211 3685.61,-197.649 3772.36,-205.754 4118,-193 4249.63,-188.143 4282.32,-181.453 4414,-178 4475.91,-176.377 8811.9,-180.104 8873,-170 8904.9,-164.725 8939.28,-153.264 8966.22,-142.865"/>
<polygon fill="black" stroke="black" points="8967.77,-146.016 8975.79,-139.095 8965.21,-139.503 8967.77,-146.016"/>
<text text-anchor="middle" x="4430.5" y="-181.8" font-family="Times,serif" font-size="14.00">read</text>
</g>
<!-- 10.1.80.247:8080#ServerID_OuterContainerID&#45;&gt;1_fwatchdog#ServerID_6df85d7674&#45;2kqrj -->
<g id="edge6" class="edge"><title>10.1.80.247:8080#ServerID_OuterContainerID&#45;&gt;1_fwatchdog#ServerID_6df85d7674&#45;2kqrj</title>
<path fill="none" stroke="black" d="M503.77,-219.814C668.569,-211.374 913.658,-198.67 1008,-193 1106.71,-187.068 1131.17,-181.407 1230,-178 1305.98,-175.38 6628.67,-180.312 6704,-170 6743.21,-164.632 6786.08,-152.782 6819.34,-142.2"/>
<polygon fill="black" stroke="black" points="6820.45,-145.517 6828.89,-139.11 6818.3,-138.857 6820.45,-145.517"/>
<text text-anchor="middle" x="1272" y="-181.8" font-family="Times,serif" font-size="14.00">RESPONSE</text>
</g>
<!-- 10.1.80.1:18677#ServerID_OuterContainerID -->
<g id="node22" class="node"><title>10.1.80.1:18677#ServerID_OuterContainerID</title>
<polygon fill="none" stroke="black" points="335,-139 16.1049,-121 335,-103 653.895,-121 335,-139"/>
<text text-anchor="middle" x="335" y="-117.3" font-family="Times,serif" font-size="14.00">10.1.80.1:18677#ServerID_OuterContainerID</text>
</g>
<!-- 10.1.80.247:8080#ServerID_OuterContainerID&#45;&gt;10.1.80.1:18677#ServerID_OuterContainerID -->
<g id="edge29" class="edge"><title>10.1.80.247:8080#ServerID_OuterContainerID&#45;&gt;10.1.80.1:18677#ServerID_OuterContainerID</title>
<path fill="none" stroke="black" d="M303.089,-213.103C294.688,-208.04 286.895,-201.453 282,-193 271.93,-175.613 285.936,-157.484 302.069,-143.897"/>
<polygon fill="black" stroke="black" points="304.364,-146.546 310.064,-137.615 300.039,-141.041 304.364,-146.546"/>
<text text-anchor="middle" x="324" y="-181.8" font-family="Times,serif" font-size="14.00">RESPONSE</text>
</g>
<!-- 10.0.88.125:31112#ServerID_OuterContainerID -->
<g id="node23" class="node"><title>10.0.88.125:31112#ServerID_OuterContainerID</title>
<polygon fill="none" stroke="black" points="1007,-139 671.515,-121 1007,-103 1342.48,-121 1007,-139"/>
<text text-anchor="middle" x="1007" y="-117.3" font-family="Times,serif" font-size="14.00">10.0.88.125:31112#ServerID_OuterContainerID</text>
</g>
<!-- 10.1.80.247:8080#ServerID_OuterContainerID&#45;&gt;10.0.88.125:31112#ServerID_OuterContainerID -->
<g id="edge28" class="edge"><title>10.1.80.247:8080#ServerID_OuterContainerID&#45;&gt;10.0.88.125:31112#ServerID_OuterContainerID</title>
<path fill="none" stroke="black" d="M422.434,-215.319C546.818,-195.463 786.788,-157.154 917.247,-136.328"/>
<polygon fill="black" stroke="black" points="917.893,-139.769 927.216,-134.737 916.789,-132.857 917.893,-139.769"/>
<text text-anchor="middle" x="698" y="-181.8" font-family="Times,serif" font-size="14.00">RESPONSE</text>
</g>
<!-- localhost:3000#ServerID_34e86192c217 -->
<g id="node8" class="node"><title>localhost:3000#ServerID_34e86192c217</title>
<polygon fill="none" stroke="black" points="8851,-52 8564.45,-34 8851,-16 9137.55,-34 8851,-52"/>
<text text-anchor="middle" x="8851" y="-30.3" font-family="Times,serif" font-size="14.00">localhost:3000#ServerID_34e86192c217</text>
</g>
<!-- 1_fwatchdog#ServerID_34e86192c217&#45;&gt;localhost:3000#ServerID_34e86192c217 -->
<g id="edge9" class="edge"><title>1_fwatchdog#ServerID_34e86192c217&#45;&gt;localhost:3000#ServerID_34e86192c217</title>
<path fill="none" stroke="black" d="M8741.72,-102.799C8763.63,-89.2063 8794.29,-70.1851 8817.56,-55.7483"/>
<polygon fill="black" stroke="black" points="8819.43,-58.7068 8826.08,-50.4606 8815.74,-52.7587 8819.43,-58.7068"/>
<text text-anchor="middle" x="8809" y="-73.8" font-family="Times,serif" font-size="14.00">write</text>
</g>
<!-- 10.1.80.247:35208#ServerID_OuterContainerID -->
<g id="node9" class="node"><title>10.1.80.247:35208#ServerID_OuterContainerID</title>
<polygon fill="none" stroke="black" points="3684,-247 3348.52,-229 3684,-211 4019.48,-229 3684,-247"/>
<text text-anchor="middle" x="3684" y="-225.3" font-family="Times,serif" font-size="14.00">10.1.80.247:35208#ServerID_OuterContainerID</text>
</g>
<!-- 10.1.80.247:35208#ServerID_OuterContainerID&#45;&gt;1_fwatchdog#ServerID_e56b6537e2d5 -->
<g id="edge11" class="edge"><title>10.1.80.247:35208#ServerID_OuterContainerID&#45;&gt;1_fwatchdog#ServerID_e56b6537e2d5</title>
<path fill="none" stroke="black" d="M3843.75,-219.527C4080.76,-207.424 4539.58,-185.788 4930,-178 4996.88,-176.666 7271.84,-179.88 7338,-170 7373.9,-164.639 7412.94,-152.944 7443.35,-142.442"/>
<polygon fill="black" stroke="black" points="7444.63,-145.701 7452.9,-139.083 7442.31,-139.097 7444.63,-145.701"/>
<text text-anchor="middle" x="4946.5" y="-181.8" font-family="Times,serif" font-size="14.00">read</text>
</g>
<!-- 10.1.80.1:47552#ServerID_OuterContainerID -->
<g id="node14" class="node"><title>10.1.80.1:47552#ServerID_OuterContainerID</title>
<polygon fill="none" stroke="black" points="1696,-247 1377.1,-229 1696,-211 2014.9,-229 1696,-247"/>
<text text-anchor="middle" x="1696" y="-225.3" font-family="Times,serif" font-size="14.00">10.1.80.1:47552#ServerID_OuterContainerID</text>
</g>
<!-- 1_fwatchdog#ServerID_e56b6537e2d5&#45;&gt;10.1.80.1:47552#ServerID_OuterContainerID -->
<g id="edge15" class="edge"><title>1_fwatchdog#ServerID_e56b6537e2d5&#45;&gt;10.1.80.1:47552#ServerID_OuterContainerID</title>
<path fill="none" stroke="black" d="M7452.9,-139.101C7421.43,-150.366 7377.79,-164.088 7338,-170 7277.52,-178.985 2997.13,-176.839 2936,-178 2733.24,-181.852 2226.6,-202.085 2024,-211 1970.22,-213.367 1911.49,-216.3 1858.78,-219.06"/>
<polygon fill="black" stroke="black" points="1858.47,-215.572 1848.67,-219.591 1858.84,-222.562 1858.47,-215.572"/>
<text text-anchor="middle" x="2955" y="-181.8" font-family="Times,serif" font-size="14.00">write</text>
</g>
<!-- 10.1.80.1:47554#ServerID_OuterContainerID -->
<g id="node15" class="node"><title>10.1.80.1:47554#ServerID_OuterContainerID</title>
<polygon fill="none" stroke="black" points="4356,-247 4037.1,-229 4356,-211 4674.9,-229 4356,-247"/>
<text text-anchor="middle" x="4356" y="-225.3" font-family="Times,serif" font-size="14.00">10.1.80.1:47554#ServerID_OuterContainerID</text>
</g>
<!-- 1_fwatchdog#ServerID_e56b6537e2d5&#45;&gt;10.1.80.1:47554#ServerID_OuterContainerID -->
<g id="edge18" class="edge"><title>1_fwatchdog#ServerID_e56b6537e2d5&#45;&gt;10.1.80.1:47554#ServerID_OuterContainerID</title>
<path fill="none" stroke="black" d="M7452.9,-139.059C7421.42,-150.304 7377.78,-164.02 7338,-170 7296.27,-176.273 5861.19,-177.165 5819,-178 5624.7,-181.845 5576.25,-187.162 5382,-193 5071.81,-202.323 4994.09,-198.968 4684,-211 4629.27,-213.124 4569.43,-216.047 4516.02,-218.871"/>
<polygon fill="black" stroke="black" points="4515.58,-215.39 4505.78,-219.416 4515.95,-222.38 4515.58,-215.39"/>
<text text-anchor="middle" x="5838" y="-181.8" font-family="Times,serif" font-size="14.00">write</text>
</g>
<!-- localhost:3000#ServerID_e56b6537e2d5 -->
<g id="node17" class="node"><title>localhost:3000#ServerID_e56b6537e2d5</title>
<polygon fill="none" stroke="black" points="8253,-52 7966.45,-34 8253,-16 8539.55,-34 8253,-52"/>
<text text-anchor="middle" x="8253" y="-30.3" font-family="Times,serif" font-size="14.00">localhost:3000#ServerID_e56b6537e2d5</text>
</g>
<!-- 1_fwatchdog#ServerID_e56b6537e2d5&#45;&gt;localhost:3000#ServerID_e56b6537e2d5 -->
<g id="edge19" class="edge"><title>1_fwatchdog#ServerID_e56b6537e2d5&#45;&gt;localhost:3000#ServerID_e56b6537e2d5</title>
<path fill="none" stroke="black" d="M7646.72,-114.161C7745.61,-109.148 7877.9,-100.238 7994,-85 8059.27,-76.4339 8132.89,-61.7246 8184.91,-50.471"/>
<polygon fill="black" stroke="black" points="8185.67,-53.8886 8194.7,-48.3407 8184.18,-47.0489 8185.67,-53.8886"/>
<text text-anchor="middle" x="8107" y="-73.8" font-family="Times,serif" font-size="14.00">write</text>
</g>
<!-- pipe:[331682317]#ServerID_e56b6537e2d5 -->
<g id="node20" class="node"><title>pipe:[331682317]#ServerID_e56b6537e2d5</title>
<ellipse fill="none" stroke="black" cx="7731" cy="-34" rx="217.162" ry="18"/>
<text text-anchor="middle" x="7731" y="-30.3" font-family="Times,serif" font-size="14.00">pipe:[331682317]#ServerID_e56b6537e2d5</text>
</g>
<!-- 1_fwatchdog#ServerID_e56b6537e2d5&#45;&gt;pipe:[331682317]#ServerID_e56b6537e2d5 -->
<g id="edge23" class="edge"><title>1_fwatchdog#ServerID_e56b6537e2d5&#45;&gt;pipe:[331682317]#ServerID_e56b6537e2d5</title>
<path fill="none" stroke="black" d="M7544.07,-102.901C7582.05,-89.107 7635.55,-69.6737 7675.59,-55.1293"/>
<polygon fill="black" stroke="black" points="7676.99,-58.3412 7685.2,-51.6373 7674.6,-51.7618 7676.99,-58.3412"/>
<text text-anchor="middle" x="7648" y="-73.8" font-family="Times,serif" font-size="14.00">write</text>
</g>
<!-- 1_fwatchdog#ServerID_c437f7cecfb6 -->
<g id="node11" class="node"><title>1_fwatchdog#ServerID_c437f7cecfb6</title>
<polygon fill="none" stroke="black" points="6518,-355 6228,-355 6228,-319 6518,-319 6518,-355"/>
<text text-anchor="middle" x="6373" y="-333.3" font-family="Times,serif" font-size="14.00">1_fwatchdog#ServerID_c437f7cecfb6</text>
</g>
<!-- 10.1.80.1:33364#ServerID_OuterContainerID -->
<g id="node12" class="node"><title>10.1.80.1:33364#ServerID_OuterContainerID</title>
<polygon fill="none" stroke="black" points="6373,-247 6054.1,-229 6373,-211 6691.9,-229 6373,-247"/>
<text text-anchor="middle" x="6373" y="-225.3" font-family="Times,serif" font-size="14.00">10.1.80.1:33364#ServerID_OuterContainerID</text>
</g>
<!-- 1_fwatchdog#ServerID_c437f7cecfb6&#45;&gt;10.1.80.1:33364#ServerID_OuterContainerID -->
<g id="edge12" class="edge"><title>1_fwatchdog#ServerID_c437f7cecfb6&#45;&gt;10.1.80.1:33364#ServerID_OuterContainerID</title>
<path fill="none" stroke="black" d="M6373,-318.969C6373,-302.378 6373,-276.883 6373,-257.431"/>
<polygon fill="black" stroke="black" points="6376.5,-257.341 6373,-247.341 6369.5,-257.341 6376.5,-257.341"/>
<text text-anchor="middle" x="6392" y="-289.8" font-family="Times,serif" font-size="14.00">write</text>
</g>
<!-- 10.1.80.247:35236#ServerID_OuterContainerID -->
<g id="node13" class="node"><title>10.1.80.247:35236#ServerID_OuterContainerID</title>
<polygon fill="none" stroke="black" points="5028,-247 4692.52,-229 5028,-211 5363.48,-229 5028,-247"/>
<text text-anchor="middle" x="5028" y="-225.3" font-family="Times,serif" font-size="14.00">10.1.80.247:35236#ServerID_OuterContainerID</text>
</g>
<!-- 10.1.80.247:35236#ServerID_OuterContainerID&#45;&gt;1_fwatchdog#ServerID_e56b6537e2d5 -->
<g id="edge13" class="edge"><title>10.1.80.247:35236#ServerID_OuterContainerID&#45;&gt;1_fwatchdog#ServerID_e56b6537e2d5</title>
<path fill="none" stroke="black" d="M5187.28,-219.524C5245.68,-216.582 5312.33,-213.417 5373,-211 5855.06,-191.794 5975.65,-187.527 6458,-178 6506.88,-177.035 7289.67,-177.361 7338,-170 7373.88,-164.535 7412.92,-152.839 7443.33,-142.361"/>
<polygon fill="black" stroke="black" points="7444.61,-145.622 7452.89,-139.012 7442.3,-139.016 7444.61,-145.622"/>
<text text-anchor="middle" x="6474.5" y="-181.8" font-family="Times,serif" font-size="14.00">read</text>
</g>
<!-- 10.1.80.1:47552#ServerID_OuterContainerID&#45;&gt;1_fwatchdog#ServerID_e56b6537e2d5 -->
<g id="edge14" class="edge"><title>10.1.80.1:47552#ServerID_OuterContainerID&#45;&gt;1_fwatchdog#ServerID_e56b6537e2d5</title>
<path fill="none" stroke="black" d="M1812.82,-217.584C1956.86,-205.3 2209.22,-185.592 2426,-178 2494.18,-175.612 7270.52,-180.02 7338,-170 7373.9,-164.669 7412.94,-152.975 7443.35,-142.465"/>
<polygon fill="black" stroke="black" points="7444.63,-145.724 7452.9,-139.104 7442.31,-139.121 7444.63,-145.724"/>
<text text-anchor="middle" x="2442.5" y="-181.8" font-family="Times,serif" font-size="14.00">read</text>
</g>
<!-- 10.1.80.1:47554#ServerID_OuterContainerID&#45;&gt;1_fwatchdog#ServerID_e56b6537e2d5 -->
<g id="edge16" class="edge"><title>10.1.80.1:47554#ServerID_OuterContainerID&#45;&gt;1_fwatchdog#ServerID_e56b6537e2d5</title>
<path fill="none" stroke="black" d="M4496.11,-218.866C4688.33,-206.809 5044.66,-186.159 5349,-178 5404.23,-176.519 7283.36,-178.18 7338,-170 7373.9,-164.626 7412.93,-152.932 7443.34,-142.432"/>
<polygon fill="black" stroke="black" points="7444.63,-145.691 7452.9,-139.074 7442.31,-139.087 7444.63,-145.691"/>
<text text-anchor="middle" x="5365.5" y="-181.8" font-family="Times,serif" font-size="14.00">read</text>
</g>
<!-- 10_node#ServerID_34e86192c217&#45;&gt;gateway:8080#ServerID_OuterContainerID -->
<g id="edge17" class="edge"><title>10_node#ServerID_34e86192c217&#45;&gt;gateway:8080#ServerID_OuterContainerID</title>
<path fill="none" stroke="black" d="M8975.79,-139.096C8947.76,-150.358 8908.82,-164.08 8873,-170 8807.05,-180.902 4126.69,-173.458 4060,-178 4010.33,-181.382 3998.61,-188.926 3949,-193 3679.12,-215.162 3610.55,-199.68 3340,-211 3287.84,-213.182 3230.84,-216.106 3179.88,-218.913"/>
<polygon fill="black" stroke="black" points="3179.57,-215.426 3169.78,-219.473 3179.96,-222.415 3179.57,-215.426"/>
<text text-anchor="middle" x="4089" y="-181.8" font-family="Times,serif" font-size="14.00">connect</text>
</g>
<!-- 10.152.183.10:53#ServerID_OuterContainerID -->
<g id="node21" class="node"><title>10.152.183.10:53#ServerID_OuterContainerID</title>
<polygon fill="none" stroke="black" points="5709,-247 5381.56,-229 5709,-211 6036.44,-229 5709,-247"/>
<text text-anchor="middle" x="5709" y="-225.3" font-family="Times,serif" font-size="14.00">10.152.183.10:53#ServerID_OuterContainerID</text>
</g>
<!-- 10_node#ServerID_34e86192c217&#45;&gt;10.152.183.10:53#ServerID_OuterContainerID -->
<g id="edge26" class="edge"><title>10_node#ServerID_34e86192c217&#45;&gt;10.152.183.10:53#ServerID_OuterContainerID</title>
<path fill="none" stroke="black" d="M8974.82,-139.1C8946.84,-150.132 8908.33,-163.579 8873,-170 8573.29,-224.465 8492.55,-186.609 8188,-193 7235.73,-212.983 6997.06,-182.929 6045,-211 5987.03,-212.709 5923.49,-215.65 5867.41,-218.609"/>
<polygon fill="black" stroke="black" points="5867.19,-215.116 5857.39,-219.142 5867.57,-222.106 5867.19,-215.116"/>
<text text-anchor="middle" x="8845.5" y="-181.8" font-family="Times,serif" font-size="14.00">sendto</text>
</g>
<!-- localhost:3000#ServerID_e56b6537e2d5&#45;&gt;1_fwatchdog#ServerID_e56b6537e2d5 -->
<g id="edge22" class="edge"><title>localhost:3000#ServerID_e56b6537e2d5&#45;&gt;1_fwatchdog#ServerID_e56b6537e2d5</title>
<path fill="none" stroke="black" d="M8155.97,-45.9092C8029.95,-60.0783 7808.25,-85.0048 7657.12,-101.997"/>
<polygon fill="black" stroke="black" points="7656.36,-98.5605 7646.81,-103.156 7657.14,-105.517 7656.36,-98.5605"/>
<text text-anchor="middle" x="7937.5" y="-73.8" font-family="Times,serif" font-size="14.00">read</text>
</g>
<!-- 12_node#ServerID_e56b6537e2d5 -->
<g id="node18" class="node"><title>12_node#ServerID_e56b6537e2d5</title>
<polygon fill="none" stroke="black" points="7329.5,-139 7062.5,-139 7062.5,-103 7329.5,-103 7329.5,-139"/>
<text text-anchor="middle" x="7196" y="-117.3" font-family="Times,serif" font-size="14.00">12_node#ServerID_e56b6537e2d5</text>
</g>
<!-- pipe:[331682415]#ServerID_e56b6537e2d5 -->
<g id="node19" class="node"><title>pipe:[331682415]#ServerID_e56b6537e2d5</title>
<ellipse fill="none" stroke="black" cx="7279" cy="-34" rx="217.162" ry="18"/>
<text text-anchor="middle" x="7279" y="-30.3" font-family="Times,serif" font-size="14.00">pipe:[331682415]#ServerID_e56b6537e2d5</text>
</g>
<!-- 12_node#ServerID_e56b6537e2d5&#45;&gt;pipe:[331682415]#ServerID_e56b6537e2d5 -->
<g id="edge21" class="edge"><title>12_node#ServerID_e56b6537e2d5&#45;&gt;pipe:[331682415]#ServerID_e56b6537e2d5</title>
<path fill="none" stroke="black" d="M7212.8,-102.799C7224.95,-90.3561 7241.54,-73.3644 7255.07,-59.5044"/>
<polygon fill="black" stroke="black" points="7257.75,-61.7755 7262.23,-52.1754 7252.74,-56.885 7257.75,-61.7755"/>
<text text-anchor="middle" x="7262" y="-73.8" font-family="Times,serif" font-size="14.00">write</text>
</g>
<!-- 10.152.183.10:53#ServerID_OuterContainerID&#45;&gt;10_node#ServerID_34e86192c217 -->
<g id="edge25" class="edge"><title>10.152.183.10:53#ServerID_OuterContainerID&#45;&gt;10_node#ServerID_34e86192c217</title>
<path fill="none" stroke="black" d="M5859.49,-219.271C5917.45,-216.201 5984.29,-213.018 6045,-211 6967.72,-180.336 7198.85,-190.25 8122,-178 8163.72,-177.446 8831.87,-176.99 8873,-170 8904.76,-164.603 8939.01,-153.201 8965.91,-142.864"/>
<polygon fill="black" stroke="black" points="8967.44,-146.024 8975.48,-139.117 8964.89,-139.507 8967.44,-146.024"/>
<text text-anchor="middle" x="8155" y="-181.8" font-family="Times,serif" font-size="14.00">recvfrom</text>
</g>
<!-- 10.1.80.1:18677#ServerID_OuterContainerID&#45;&gt;10.1.80.247:8080#ServerID_OuterContainerID -->
<g id="edge27" class="edge"><title>10.1.80.1:18677#ServerID_OuterContainerID&#45;&gt;10.1.80.247:8080#ServerID_OuterContainerID</title>
<path fill="none" stroke="black" d="M348.743,-138.449C356.653,-149.019 365.828,-163.453 370,-178 371.838,-184.408 372.151,-186.69 370,-193 368.79,-196.55 367.057,-200.021 365.047,-203.312"/>
<polygon fill="black" stroke="black" points="362.147,-201.351 359.24,-211.54 367.866,-205.387 362.147,-201.351"/>
<text text-anchor="middle" x="392" y="-181.8" font-family="Times,serif" font-size="14.00">POST</text>
</g>
</g>
</svg>
