<?xml version="1.0" encoding="UTF-8" standalone="no"?>
<!DOCTYPE svg PUBLIC "-//W3C//DTD SVG 1.1//EN"
 "http://www.w3.org/Graphics/SVG/1.1/DTD/svg11.dtd">
<!-- Generated by graphviz version 2.38.0 (20140413.2041)
 -->
<!-- Title: G Pages: 1 -->
<svg width="7037pt" height="510pt"
 viewBox="0.00 0.00 7037.00 510.00" xmlns="http://www.w3.org/2000/svg" xmlns:xlink="http://www.w3.org/1999/xlink">
<g id="graph0" class="graph" transform="scale(1 1) rotate(0) translate(4 506)">
<title>G</title>
<polygon fill="white" stroke="none" points="-4,4 -4,-506 7033,-506 7033,4 -4,4"/>
<g id="clust1" class="cluster"><title>clusterServerID_34e86192c217</title>
<polygon fill="none" stroke="black" points="5625,-203 5625,-494 7021,-494 7021,-203 5625,-203"/>
<text text-anchor="middle" x="6323" y="-478.8" font-family="Times,serif" font-size="14.00">clusterServerID_34e86192c217</text>
</g>
<g id="clust2" class="cluster"><title>clusterServerID_5f846fd567&#45;w7nbt</title>
<polygon fill="none" stroke="black" points="4053,-95 4053,-170 4393,-170 4393,-95 4053,-95"/>
<text text-anchor="middle" x="4223" y="-154.8" font-family="Times,serif" font-size="14.00">clusterServerID_5f846fd567&#45;w7nbt</text>
</g>
<g id="clust3" class="cluster"><title>clusterServerID_6df85d7674&#45;2kqrj</title>
<polygon fill="none" stroke="black" points="854,-311 854,-386 1192,-386 1192,-311 854,-311"/>
<text text-anchor="middle" x="1023" y="-370.8" font-family="Times,serif" font-size="14.00">clusterServerID_6df85d7674&#45;2kqrj</text>
</g>
<g id="clust4" class="cluster"><title>clusterServerID_OuterContainerID</title>
<polygon fill="none" stroke="black" points="8,-95 8,-278 4045,-278 4045,-95 8,-95"/>
<text text-anchor="middle" x="2026.5" y="-262.8" font-family="Times,serif" font-size="14.00">clusterServerID_OuterContainerID</text>
</g>
<g id="clust5" class="cluster"><title>clusterServerID_c437f7cecfb6</title>
<polygon fill="none" stroke="black" points="4401,-95 4401,-170 4707,-170 4707,-95 4401,-95"/>
<text text-anchor="middle" x="4554" y="-154.8" font-family="Times,serif" font-size="14.00">clusterServerID_c437f7cecfb6</text>
</g>
<g id="clust6" class="cluster"><title>clusterServerID_e56b6537e2d5</title>
<polygon fill="none" stroke="black" points="4715,-8 4715,-278 5617,-278 5617,-8 4715,-8"/>
<text text-anchor="middle" x="5166" y="-262.8" font-family="Times,serif" font-size="14.00">clusterServerID_e56b6537e2d5</text>
</g>
<!-- 1_fwatchdog#ServerID_6df85d7674&#45;2kqrj -->
<g id="node1" class="node"><title>1_fwatchdog#ServerID_6df85d7674&#45;2kqrj</title>
<polygon fill="none" stroke="black" points="1183.5,-355 862.5,-355 862.5,-319 1183.5,-319 1183.5,-355"/>
<text text-anchor="middle" x="1023" y="-333.3" font-family="Times,serif" font-size="14.00">1_fwatchdog#ServerID_6df85d7674&#45;2kqrj</text>
</g>
<!-- 10.1.80.247:33262#ServerID_OuterContainerID -->
<g id="node2" class="node"><title>10.1.80.247:33262#ServerID_OuterContainerID</title>
<polygon fill="none" stroke="black" points="1024,-247 688.515,-229 1024,-211 1359.48,-229 1024,-247"/>
<text text-anchor="middle" x="1024" y="-225.3" font-family="Times,serif" font-size="14.00">10.1.80.247:33262#ServerID_OuterContainerID</text>
</g>
<!-- 1_fwatchdog#ServerID_6df85d7674&#45;2kqrj&#45;&gt;10.1.80.247:33262#ServerID_OuterContainerID -->
<g id="edge1" class="edge"><title>1_fwatchdog#ServerID_6df85d7674&#45;2kqrj&#45;&gt;10.1.80.247:33262#ServerID_OuterContainerID</title>
<path fill="none" stroke="black" d="M987.261,-318.861C980.725,-314.032 974.784,-308.108 971,-301 967.867,-295.115 968.534,-292.194 971,-286 976.002,-273.439 985.306,-262.073 994.74,-252.914"/>
<polygon fill="black" stroke="black" points="997.224,-255.386 1002.25,-246.061 992.507,-250.214 997.224,-255.386"/>
<text text-anchor="middle" x="1013" y="-289.8" font-family="Times,serif" font-size="14.00">RESPONSE</text>
</g>
<!-- 10.1.80.247:8080#ServerID_OuterContainerID -->
<g id="node5" class="node"><title>10.1.80.247:8080#ServerID_OuterContainerID</title>
<polygon fill="none" stroke="black" points="343,-247 15.5599,-229 343,-211 670.44,-229 343,-247"/>
<text text-anchor="middle" x="343" y="-225.3" font-family="Times,serif" font-size="14.00">10.1.80.247:8080#ServerID_OuterContainerID</text>
</g>
<!-- 1_fwatchdog#ServerID_6df85d7674&#45;2kqrj&#45;&gt;10.1.80.247:8080#ServerID_OuterContainerID -->
<g id="edge5" class="edge"><title>1_fwatchdog#ServerID_6df85d7674&#45;2kqrj&#45;&gt;10.1.80.247:8080#ServerID_OuterContainerID</title>
<path fill="none" stroke="black" d="M913.746,-318.969C780.644,-298.221 558.211,-263.548 433.981,-244.182"/>
<polygon fill="black" stroke="black" points="434.161,-240.668 423.741,-242.586 433.082,-247.585 434.161,-240.668"/>
<text text-anchor="middle" x="804" y="-289.8" font-family="Times,serif" font-size="14.00">POST</text>
</g>
<!-- gateway:8080#ServerID_OuterContainerID -->
<g id="node6" class="node"><title>gateway:8080#ServerID_OuterContainerID</title>
<polygon fill="none" stroke="black" points="2371,-247 2066.52,-229 2371,-211 2675.48,-229 2371,-247"/>
<text text-anchor="middle" x="2371" y="-225.3" font-family="Times,serif" font-size="14.00">gateway:8080#ServerID_OuterContainerID</text>
</g>
<!-- 1_fwatchdog#ServerID_6df85d7674&#45;2kqrj&#45;&gt;gateway:8080#ServerID_OuterContainerID -->
<g id="edge7" class="edge"><title>1_fwatchdog#ServerID_6df85d7674&#45;2kqrj&#45;&gt;gateway:8080#ServerID_OuterContainerID</title>
<path fill="none" stroke="black" d="M1183.69,-331.748C1387.34,-325.267 1748.97,-310.108 2057,-278 2136.53,-269.71 2226.7,-255.413 2289.94,-244.573"/>
<polygon fill="black" stroke="black" points="2290.59,-248.012 2299.86,-242.864 2289.41,-241.113 2290.59,-248.012"/>
<text text-anchor="middle" x="1994" y="-289.8" font-family="Times,serif" font-size="14.00">POST</text>
</g>
<!-- 10.1.80.247:33262#ServerID_OuterContainerID&#45;&gt;1_fwatchdog#ServerID_6df85d7674&#45;2kqrj -->
<g id="edge3" class="edge"><title>10.1.80.247:33262#ServerID_OuterContainerID&#45;&gt;1_fwatchdog#ServerID_6df85d7674&#45;2kqrj</title>
<path fill="none" stroke="black" d="M1039.08,-246.48C1050.24,-260.767 1062.35,-282.067 1055,-301 1053.64,-304.507 1051.74,-307.876 1049.55,-311.046"/>
<polygon fill="black" stroke="black" points="1046.75,-308.944 1043.2,-318.928 1052.2,-313.335 1046.75,-308.944"/>
<text text-anchor="middle" x="1078" y="-289.8" font-family="Times,serif" font-size="14.00">POST</text>
</g>
<!-- 10.1.80.247:35236#ServerID_OuterContainerID -->
<g id="node3" class="node"><title>10.1.80.247:35236#ServerID_OuterContainerID</title>
<polygon fill="none" stroke="black" points="1713,-247 1377.52,-229 1713,-211 2048.48,-229 1713,-247"/>
<text text-anchor="middle" x="1713" y="-225.3" font-family="Times,serif" font-size="14.00">10.1.80.247:35236#ServerID_OuterContainerID</text>
</g>
<!-- 1_fwatchdog#ServerID_5f846fd567&#45;w7nbt -->
<g id="node4" class="node"><title>1_fwatchdog#ServerID_5f846fd567&#45;w7nbt</title>
<polygon fill="none" stroke="black" points="4385,-139 4061,-139 4061,-103 4385,-103 4385,-139"/>
<text text-anchor="middle" x="4223" y="-117.3" font-family="Times,serif" font-size="14.00">1_fwatchdog#ServerID_5f846fd567&#45;w7nbt</text>
</g>
<!-- 10.1.80.247:35236#ServerID_OuterContainerID&#45;&gt;1_fwatchdog#ServerID_5f846fd567&#45;w7nbt -->
<g id="edge2" class="edge"><title>10.1.80.247:35236#ServerID_OuterContainerID&#45;&gt;1_fwatchdog#ServerID_5f846fd567&#45;w7nbt</title>
<path fill="none" stroke="black" d="M1835.45,-217.519C1901.35,-212.284 1984.06,-206.365 2058,-203 2356.19,-189.431 3102.54,-182.62 3401,-178 3473,-176.885 3977.71,-180.102 4049,-170 4088.25,-164.438 4131.2,-152.651 4164.61,-142.15"/>
<polygon fill="black" stroke="black" points="4165.75,-145.46 4174.21,-139.085 4163.62,-138.791 4165.75,-145.46"/>
<text text-anchor="middle" x="3421" y="-181.8" font-family="Times,serif" font-size="14.00">POST</text>
</g>
<!-- 1_fwatchdog#ServerID_e56b6537e2d5 -->
<g id="node18" class="node"><title>1_fwatchdog#ServerID_e56b6537e2d5</title>
<polygon fill="none" stroke="black" points="5092.5,-139 4793.5,-139 4793.5,-103 5092.5,-103 5092.5,-139"/>
<text text-anchor="middle" x="4943" y="-117.3" font-family="Times,serif" font-size="14.00">1_fwatchdog#ServerID_e56b6537e2d5</text>
</g>
<!-- 10.1.80.247:35236#ServerID_OuterContainerID&#45;&gt;1_fwatchdog#ServerID_e56b6537e2d5 -->
<g id="edge21" class="edge"><title>10.1.80.247:35236#ServerID_OuterContainerID&#45;&gt;1_fwatchdog#ServerID_e56b6537e2d5</title>
<path fill="none" stroke="black" d="M1832.64,-217.406C1898.98,-212.016 1982.99,-205.986 2058,-203 2365.1,-190.776 3133.7,-197.971 3441,-193 3706.38,-188.707 3772.63,-182.911 4038,-178 4112.77,-176.616 4636.65,-178.057 4711,-170 4763.84,-164.273 4822.45,-152.097 4867.54,-141.442"/>
<polygon fill="black" stroke="black" points="4868.62,-144.783 4877.53,-139.054 4866.99,-137.975 4868.62,-144.783"/>
<text text-anchor="middle" x="4054.5" y="-181.8" font-family="Times,serif" font-size="14.00">read</text>
</g>
<!-- 1_fwatchdog#ServerID_5f846fd567&#45;w7nbt&#45;&gt;10.1.80.247:35236#ServerID_OuterContainerID -->
<g id="edge4" class="edge"><title>1_fwatchdog#ServerID_5f846fd567&#45;w7nbt&#45;&gt;10.1.80.247:35236#ServerID_OuterContainerID</title>
<path fill="none" stroke="black" d="M4174.6,-139.067C4140.08,-150.316 4092.31,-164.033 4049,-170 3954.72,-182.99 2431.08,-173.968 2336,-178 2159.99,-185.463 1956.66,-203.57 1831.45,-215.819"/>
<polygon fill="black" stroke="black" points="1831.06,-212.34 1821.45,-216.801 1831.75,-219.307 1831.06,-212.34"/>
<text text-anchor="middle" x="2378" y="-181.8" font-family="Times,serif" font-size="14.00">RESPONSE</text>
</g>
<!-- 10.1.80.247:8080#ServerID_OuterContainerID&#45;&gt;1_fwatchdog#ServerID_6df85d7674&#45;2kqrj -->
<g id="edge6" class="edge"><title>10.1.80.247:8080#ServerID_OuterContainerID&#45;&gt;1_fwatchdog#ServerID_6df85d7674&#45;2kqrj</title>
<path fill="none" stroke="black" d="M389.336,-244.61C443.231,-261.003 535.155,-287.113 616,-301 692.937,-314.216 778.957,-322.537 852.026,-327.73"/>
<polygon fill="black" stroke="black" points="852.028,-331.239 862.248,-328.442 852.515,-324.256 852.028,-331.239"/>
<text text-anchor="middle" x="658" y="-289.8" font-family="Times,serif" font-size="14.00">RESPONSE</text>
</g>
<!-- 10.1.80.1:54264#ServerID_OuterContainerID -->
<g id="node21" class="node"><title>10.1.80.1:54264#ServerID_OuterContainerID</title>
<polygon fill="none" stroke="black" points="335,-139 16.1049,-121 335,-103 653.895,-121 335,-139"/>
<text text-anchor="middle" x="335" y="-117.3" font-family="Times,serif" font-size="14.00">10.1.80.1:54264#ServerID_OuterContainerID</text>
</g>
<!-- 10.1.80.247:8080#ServerID_OuterContainerID&#45;&gt;10.1.80.1:54264#ServerID_OuterContainerID -->
<g id="edge23" class="edge"><title>10.1.80.247:8080#ServerID_OuterContainerID&#45;&gt;10.1.80.1:54264#ServerID_OuterContainerID</title>
<path fill="none" stroke="black" d="M306.241,-212.99C298.168,-207.888 290.649,-201.31 286,-193 276.535,-176.082 289.168,-158.121 303.973,-144.497"/>
<polygon fill="black" stroke="black" points="306.482,-146.956 311.807,-137.796 301.932,-141.636 306.482,-146.956"/>
<text text-anchor="middle" x="328" y="-181.8" font-family="Times,serif" font-size="14.00">RESPONSE</text>
</g>
<!-- 10.0.88.125:31112#ServerID_OuterContainerID -->
<g id="node22" class="node"><title>10.0.88.125:31112#ServerID_OuterContainerID</title>
<polygon fill="none" stroke="black" points="1007,-139 671.515,-121 1007,-103 1342.48,-121 1007,-139"/>
<text text-anchor="middle" x="1007" y="-117.3" font-family="Times,serif" font-size="14.00">10.0.88.125:31112#ServerID_OuterContainerID</text>
</g>
<!-- 10.1.80.247:8080#ServerID_OuterContainerID&#45;&gt;10.0.88.125:31112#ServerID_OuterContainerID -->
<g id="edge25" class="edge"><title>10.1.80.247:8080#ServerID_OuterContainerID&#45;&gt;10.0.88.125:31112#ServerID_OuterContainerID</title>
<path fill="none" stroke="black" d="M422.434,-215.319C546.818,-195.463 786.788,-157.154 917.247,-136.328"/>
<polygon fill="black" stroke="black" points="917.893,-139.769 927.216,-134.737 916.789,-132.857 917.893,-139.769"/>
<text text-anchor="middle" x="698" y="-181.8" font-family="Times,serif" font-size="14.00">RESPONSE</text>
</g>
<!-- gateway:8080#ServerID_OuterContainerID&#45;&gt;1_fwatchdog#ServerID_6df85d7674&#45;2kqrj -->
<g id="edge8" class="edge"><title>gateway:8080#ServerID_OuterContainerID&#45;&gt;1_fwatchdog#ServerID_6df85d7674&#45;2kqrj</title>
<path fill="none" stroke="black" d="M2302.7,-243.029C2239.3,-254.507 2142.15,-270.527 2057,-278 1905.54,-291.293 1866.87,-278.742 1715,-286 1537,-294.508 1333.61,-309.882 1193.63,-321.344"/>
<polygon fill="black" stroke="black" points="1193.35,-317.856 1183.67,-322.162 1193.92,-324.832 1193.35,-317.856"/>
<text text-anchor="middle" x="1757" y="-289.8" font-family="Times,serif" font-size="14.00">RESPONSE</text>
</g>
<!-- 10.1.80.247:39338#ServerID_OuterContainerID -->
<g id="node7" class="node"><title>10.1.80.247:39338#ServerID_OuterContainerID</title>
<polygon fill="none" stroke="black" points="3029,-247 2693.52,-229 3029,-211 3364.48,-229 3029,-247"/>
<text text-anchor="middle" x="3029" y="-225.3" font-family="Times,serif" font-size="14.00">10.1.80.247:39338#ServerID_OuterContainerID</text>
</g>
<!-- 1_fwatchdog#ServerID_c437f7cecfb6 -->
<g id="node8" class="node"><title>1_fwatchdog#ServerID_c437f7cecfb6</title>
<polygon fill="none" stroke="black" points="4699,-139 4409,-139 4409,-103 4699,-103 4699,-139"/>
<text text-anchor="middle" x="4554" y="-117.3" font-family="Times,serif" font-size="14.00">1_fwatchdog#ServerID_c437f7cecfb6</text>
</g>
<!-- 10.1.80.247:39338#ServerID_OuterContainerID&#45;&gt;1_fwatchdog#ServerID_c437f7cecfb6 -->
<g id="edge9" class="edge"><title>10.1.80.247:39338#ServerID_OuterContainerID&#45;&gt;1_fwatchdog#ServerID_c437f7cecfb6</title>
<path fill="none" stroke="black" d="M3154.29,-217.707C3219.72,-212.639 3301.14,-206.814 3374,-203 3601.14,-191.111 4172.62,-207.242 4397,-170 4431.86,-164.214 4469.78,-152.773 4499.62,-142.513"/>
<polygon fill="black" stroke="black" points="4501.13,-145.693 4509.41,-139.088 4498.82,-139.085 4501.13,-145.693"/>
<text text-anchor="middle" x="4336.5" y="-181.8" font-family="Times,serif" font-size="14.00">read</text>
</g>
<!-- localhost:3000#ServerID_34e86192c217 -->
<g id="node9" class="node"><title>localhost:3000#ServerID_34e86192c217</title>
<polygon fill="none" stroke="black" points="6726,-463 6439.45,-445 6726,-427 7012.55,-445 6726,-463"/>
<text text-anchor="middle" x="6726" y="-441.3" font-family="Times,serif" font-size="14.00">localhost:3000#ServerID_34e86192c217</text>
</g>
<!-- 1_fwatchdog#ServerID_34e86192c217 -->
<g id="node10" class="node"><title>1_fwatchdog#ServerID_34e86192c217</title>
<polygon fill="none" stroke="black" points="6875.5,-355 6576.5,-355 6576.5,-319 6875.5,-319 6875.5,-355"/>
<text text-anchor="middle" x="6726" y="-333.3" font-family="Times,serif" font-size="14.00">1_fwatchdog#ServerID_34e86192c217</text>
</g>
<!-- localhost:3000#ServerID_34e86192c217&#45;&gt;1_fwatchdog#ServerID_34e86192c217 -->
<g id="edge10" class="edge"><title>localhost:3000#ServerID_34e86192c217&#45;&gt;1_fwatchdog#ServerID_34e86192c217</title>
<path fill="none" stroke="black" d="M6726,-426.969C6726,-410.378 6726,-384.883 6726,-365.431"/>
<polygon fill="black" stroke="black" points="6729.5,-365.341 6726,-355.341 6722.5,-365.341 6729.5,-365.341"/>
<text text-anchor="middle" x="6742.5" y="-397.8" font-family="Times,serif" font-size="14.00">read</text>
</g>
<!-- pipe:[331683132]#ServerID_34e86192c217 -->
<g id="node11" class="node"><title>pipe:[331683132]#ServerID_34e86192c217</title>
<ellipse fill="none" stroke="black" cx="6726" cy="-229" rx="217.162" ry="18"/>
<text text-anchor="middle" x="6726" y="-225.3" font-family="Times,serif" font-size="14.00">pipe:[331683132]#ServerID_34e86192c217</text>
</g>
<!-- 1_fwatchdog#ServerID_34e86192c217&#45;&gt;pipe:[331683132]#ServerID_34e86192c217 -->
<g id="edge11" class="edge"><title>1_fwatchdog#ServerID_34e86192c217&#45;&gt;pipe:[331683132]#ServerID_34e86192c217</title>
<path fill="none" stroke="black" d="M6726,-318.969C6726,-302.378 6726,-276.883 6726,-257.431"/>
<polygon fill="black" stroke="black" points="6729.5,-257.341 6726,-247.341 6722.5,-257.341 6729.5,-257.341"/>
<text text-anchor="middle" x="6745" y="-289.8" font-family="Times,serif" font-size="14.00">write</text>
</g>
<!-- /etc/hosts#ServerID_34e86192c217 -->
<g id="node12" class="node"><title>/etc/hosts#ServerID_34e86192c217</title>
<ellipse fill="none" stroke="black" cx="6241" cy="-445" rx="180.068" ry="18"/>
<text text-anchor="middle" x="6241" y="-441.3" font-family="Times,serif" font-size="14.00">/etc/hosts#ServerID_34e86192c217</text>
</g>
<!-- 10_node#ServerID_34e86192c217 -->
<g id="node13" class="node"><title>10_node#ServerID_34e86192c217</title>
<polygon fill="none" stroke="black" points="5900.5,-355 5633.5,-355 5633.5,-319 5900.5,-319 5900.5,-355"/>
<text text-anchor="middle" x="5767" y="-333.3" font-family="Times,serif" font-size="14.00">10_node#ServerID_34e86192c217</text>
</g>
<!-- /etc/hosts#ServerID_34e86192c217&#45;&gt;10_node#ServerID_34e86192c217 -->
<g id="edge12" class="edge"><title>/etc/hosts#ServerID_34e86192c217&#45;&gt;10_node#ServerID_34e86192c217</title>
<path fill="none" stroke="black" d="M6171.06,-428.359C6086.54,-409.459 5944.35,-377.661 5853.15,-357.267"/>
<polygon fill="black" stroke="black" points="5853.64,-353.789 5843.12,-355.022 5852.11,-360.621 5853.64,-353.789"/>
<text text-anchor="middle" x="6090.5" y="-397.8" font-family="Times,serif" font-size="14.00">read</text>
</g>
<!-- 10_node#ServerID_34e86192c217&#45;&gt;gateway:8080#ServerID_OuterContainerID -->
<g id="edge16" class="edge"><title>10_node#ServerID_34e86192c217&#45;&gt;gateway:8080#ServerID_OuterContainerID</title>
<path fill="none" stroke="black" d="M5633.48,-335.851C5119.78,-334.909 3270.54,-328.041 2685,-278 2603.9,-271.069 2511.93,-256.173 2448.59,-244.802"/>
<polygon fill="black" stroke="black" points="2449.14,-241.344 2438.68,-243.009 2447.9,-248.232 2449.14,-241.344"/>
<text text-anchor="middle" x="3091" y="-289.8" font-family="Times,serif" font-size="14.00">connect</text>
</g>
<!-- 10.152.183.10:53#ServerID_OuterContainerID -->
<g id="node15" class="node"><title>10.152.183.10:53#ServerID_OuterContainerID</title>
<polygon fill="none" stroke="black" points="3710,-247 3382.56,-229 3710,-211 4037.44,-229 3710,-247"/>
<text text-anchor="middle" x="3710" y="-225.3" font-family="Times,serif" font-size="14.00">10.152.183.10:53#ServerID_OuterContainerID</text>
</g>
<!-- 10_node#ServerID_34e86192c217&#45;&gt;10.152.183.10:53#ServerID_OuterContainerID -->
<g id="edge14" class="edge"><title>10_node#ServerID_34e86192c217&#45;&gt;10.152.183.10:53#ServerID_OuterContainerID</title>
<path fill="none" stroke="black" d="M5633.22,-329.106C5272.41,-310.513 4279.56,-259.35 3879.93,-238.757"/>
<polygon fill="black" stroke="black" points="3879.9,-235.25 3869.73,-238.231 3879.54,-242.241 3879.9,-235.25"/>
<text text-anchor="middle" x="5067.5" y="-289.8" font-family="Times,serif" font-size="14.00">sendto</text>
</g>
<!-- /etc/resolv.conf#ServerID_34e86192c217 -->
<g id="node14" class="node"><title>/etc/resolv.conf#ServerID_34e86192c217</title>
<ellipse fill="none" stroke="black" cx="5838" cy="-445" rx="205.264" ry="18"/>
<text text-anchor="middle" x="5838" y="-441.3" font-family="Times,serif" font-size="14.00">/etc/resolv.conf#ServerID_34e86192c217</text>
</g>
<!-- /etc/resolv.conf#ServerID_34e86192c217&#45;&gt;10_node#ServerID_34e86192c217 -->
<g id="edge13" class="edge"><title>/etc/resolv.conf#ServerID_34e86192c217&#45;&gt;10_node#ServerID_34e86192c217</title>
<path fill="none" stroke="black" d="M5826.59,-426.969C5815.17,-409.917 5797.45,-383.459 5784.3,-363.824"/>
<polygon fill="black" stroke="black" points="5787.09,-361.701 5778.61,-355.341 5781.27,-365.597 5787.09,-361.701"/>
<text text-anchor="middle" x="5829.5" y="-397.8" font-family="Times,serif" font-size="14.00">read</text>
</g>
<!-- 10.152.183.10:53#ServerID_OuterContainerID&#45;&gt;10_node#ServerID_34e86192c217 -->
<g id="edge15" class="edge"><title>10.152.183.10:53#ServerID_OuterContainerID&#45;&gt;10_node#ServerID_34e86192c217</title>
<path fill="none" stroke="black" d="M3863,-238.629C4059.31,-249.404 4410.4,-267.672 4711,-278 4882.05,-283.877 4925.05,-277.86 5096,-286 5278.14,-294.672 5487.63,-311.358 5623.4,-323.061"/>
<polygon fill="black" stroke="black" points="5623.19,-326.555 5633.45,-323.93 5623.79,-319.581 5623.19,-326.555"/>
<text text-anchor="middle" x="5370" y="-289.8" font-family="Times,serif" font-size="14.00">recvfrom</text>
</g>
<!-- localhost:3000#ServerID_e56b6537e2d5 -->
<g id="node16" class="node"><title>localhost:3000#ServerID_e56b6537e2d5</title>
<polygon fill="none" stroke="black" points="5010,-247 4723.45,-229 5010,-211 5296.55,-229 5010,-247"/>
<text text-anchor="middle" x="5010" y="-225.3" font-family="Times,serif" font-size="14.00">localhost:3000#ServerID_e56b6537e2d5</text>
</g>
<!-- 12_node#ServerID_e56b6537e2d5 -->
<g id="node17" class="node"><title>12_node#ServerID_e56b6537e2d5</title>
<polygon fill="none" stroke="black" points="5452.5,-139 5185.5,-139 5185.5,-103 5452.5,-103 5452.5,-139"/>
<text text-anchor="middle" x="5319" y="-117.3" font-family="Times,serif" font-size="14.00">12_node#ServerID_e56b6537e2d5</text>
</g>
<!-- localhost:3000#ServerID_e56b6537e2d5&#45;&gt;12_node#ServerID_e56b6537e2d5 -->
<g id="edge17" class="edge"><title>localhost:3000#ServerID_e56b6537e2d5&#45;&gt;12_node#ServerID_e56b6537e2d5</title>
<path fill="none" stroke="black" d="M5051.99,-213.594C5105.72,-195.164 5199.09,-163.135 5259.95,-142.255"/>
<polygon fill="black" stroke="black" points="5261.11,-145.559 5269.43,-139.004 5258.84,-138.938 5261.11,-145.559"/>
<text text-anchor="middle" x="5172.5" y="-181.8" font-family="Times,serif" font-size="14.00">read</text>
</g>
<!-- localhost:3000#ServerID_e56b6537e2d5&#45;&gt;1_fwatchdog#ServerID_e56b6537e2d5 -->
<g id="edge20" class="edge"><title>localhost:3000#ServerID_e56b6537e2d5&#45;&gt;1_fwatchdog#ServerID_e56b6537e2d5</title>
<path fill="none" stroke="black" d="M4968.76,-213.507C4959.81,-208.414 4951.42,-201.711 4946,-193 4938.01,-180.143 4936.99,-163.297 4938.09,-149.241"/>
<polygon fill="black" stroke="black" points="4941.59,-149.487 4939.27,-139.148 4934.63,-148.674 4941.59,-149.487"/>
<text text-anchor="middle" x="4962.5" y="-181.8" font-family="Times,serif" font-size="14.00">read</text>
</g>
<!-- pipe:[331682415]#ServerID_e56b6537e2d5 -->
<g id="node19" class="node"><title>pipe:[331682415]#ServerID_e56b6537e2d5</title>
<ellipse fill="none" stroke="black" cx="5392" cy="-34" rx="217.162" ry="18"/>
<text text-anchor="middle" x="5392" y="-30.3" font-family="Times,serif" font-size="14.00">pipe:[331682415]#ServerID_e56b6537e2d5</text>
</g>
<!-- 12_node#ServerID_e56b6537e2d5&#45;&gt;pipe:[331682415]#ServerID_e56b6537e2d5 -->
<g id="edge19" class="edge"><title>12_node#ServerID_e56b6537e2d5&#45;&gt;pipe:[331682415]#ServerID_e56b6537e2d5</title>
<path fill="none" stroke="black" d="M5333.77,-102.799C5344.36,-90.4713 5358.78,-73.6787 5370.62,-59.8902"/>
<polygon fill="black" stroke="black" points="5373.39,-62.0421 5377.25,-52.1754 5368.08,-57.4814 5373.39,-62.0421"/>
<text text-anchor="middle" x="5379" y="-73.8" font-family="Times,serif" font-size="14.00">write</text>
</g>
<!-- 1_fwatchdog#ServerID_e56b6537e2d5&#45;&gt;localhost:3000#ServerID_e56b6537e2d5 -->
<g id="edge18" class="edge"><title>1_fwatchdog#ServerID_e56b6537e2d5&#45;&gt;localhost:3000#ServerID_e56b6537e2d5</title>
<path fill="none" stroke="black" d="M4956.19,-139.269C4964.28,-150.148 4974.65,-164.619 4983,-178 4987.88,-185.821 4992.79,-194.594 4997.07,-202.582"/>
<polygon fill="black" stroke="black" points="4994,-204.27 5001.75,-211.494 5000.2,-201.014 4994,-204.27"/>
<text text-anchor="middle" x="5011" y="-181.8" font-family="Times,serif" font-size="14.00">write</text>
</g>
<!-- pipe:[331682317]#ServerID_e56b6537e2d5 -->
<g id="node20" class="node"><title>pipe:[331682317]#ServerID_e56b6537e2d5</title>
<ellipse fill="none" stroke="black" cx="4940" cy="-34" rx="217.162" ry="18"/>
<text text-anchor="middle" x="4940" y="-30.3" font-family="Times,serif" font-size="14.00">pipe:[331682317]#ServerID_e56b6537e2d5</text>
</g>
<!-- 1_fwatchdog#ServerID_e56b6537e2d5&#45;&gt;pipe:[331682317]#ServerID_e56b6537e2d5 -->
<g id="edge22" class="edge"><title>1_fwatchdog#ServerID_e56b6537e2d5&#45;&gt;pipe:[331682317]#ServerID_e56b6537e2d5</title>
<path fill="none" stroke="black" d="M4942.39,-102.799C4941.98,-91.1626 4941.43,-75.5479 4940.96,-62.2368"/>
<polygon fill="black" stroke="black" points="4944.46,-62.0457 4940.61,-52.1754 4937.46,-62.2927 4944.46,-62.0457"/>
<text text-anchor="middle" x="4961" y="-73.8" font-family="Times,serif" font-size="14.00">write</text>
</g>
<!-- 10.1.80.1:54264#ServerID_OuterContainerID&#45;&gt;10.1.80.247:8080#ServerID_OuterContainerID -->
<g id="edge24" class="edge"><title>10.1.80.1:54264#ServerID_OuterContainerID&#45;&gt;10.1.80.247:8080#ServerID_OuterContainerID</title>
<path fill="none" stroke="black" d="M348.743,-138.449C356.653,-149.019 365.828,-163.453 370,-178 371.838,-184.408 372.151,-186.69 370,-193 368.79,-196.55 367.057,-200.021 365.047,-203.312"/>
<polygon fill="black" stroke="black" points="362.147,-201.351 359.24,-211.54 367.866,-205.387 362.147,-201.351"/>
<text text-anchor="middle" x="392" y="-181.8" font-family="Times,serif" font-size="14.00">POST</text>
</g>
</g>
</svg>
