<?xml version="1.0" encoding="UTF-8" standalone="no"?>
<!DOCTYPE svg PUBLIC "-//W3C//DTD SVG 1.1//EN"
 "http://www.w3.org/Graphics/SVG/1.1/DTD/svg11.dtd">
<!-- Generated by graphviz version 2.38.0 (20140413.2041)
 -->
<!-- Title: G Pages: 1 -->
<svg width="7886pt" height="294pt"
 viewBox="0.00 0.00 7886.00 294.00" xmlns="http://www.w3.org/2000/svg" xmlns:xlink="http://www.w3.org/1999/xlink">
<g id="graph0" class="graph" transform="scale(1 1) rotate(0) translate(4 290)">
<title>G</title>
<polygon fill="white" stroke="none" points="-4,4 -4,-290 7882,-290 7882,4 -4,4"/>
<g id="clust1" class="cluster"><title>clusterServerID_34e86192c217</title>
<polygon fill="none" stroke="black" points="6141,-8 6141,-170 6742,-170 6742,-8 6141,-8"/>
<text text-anchor="middle" x="6441.5" y="-154.8" font-family="Times,serif" font-size="14.00">clusterServerID_34e86192c217</text>
</g>
<g id="clust2" class="cluster"><title>clusterServerID_5f846fd567&#45;w7nbt</title>
<polygon fill="none" stroke="black" points="5793,-95 5793,-170 6133,-170 6133,-95 5793,-95"/>
<text text-anchor="middle" x="5963" y="-154.8" font-family="Times,serif" font-size="14.00">clusterServerID_5f846fd567&#45;w7nbt</text>
</g>
<g id="clust3" class="cluster"><title>clusterServerID_6df85d7674&#45;2kqrj</title>
<polygon fill="none" stroke="black" points="5447,-95 5447,-170 5785,-170 5785,-95 5447,-95"/>
<text text-anchor="middle" x="5616" y="-154.8" font-family="Times,serif" font-size="14.00">clusterServerID_6df85d7674&#45;2kqrj</text>
</g>
<g id="clust4" class="cluster"><title>clusterServerID_90667071e782</title>
<polygon fill="none" stroke="black" points="7348,-95 7348,-278 7870,-278 7870,-95 7348,-95"/>
<text text-anchor="middle" x="7609" y="-262.8" font-family="Times,serif" font-size="14.00">clusterServerID_90667071e782</text>
</g>
<g id="clust5" class="cluster"><title>clusterServerID_OuterContainerID</title>
<polygon fill="none" stroke="black" points="8,-95 8,-278 5439,-278 5439,-95 8,-95"/>
<text text-anchor="middle" x="2723.5" y="-262.8" font-family="Times,serif" font-size="14.00">clusterServerID_OuterContainerID</text>
</g>
<g id="clust6" class="cluster"><title>clusterServerID_e56b6537e2d5</title>
<polygon fill="none" stroke="black" points="6750,-8 6750,-170 7340,-170 7340,-8 6750,-8"/>
<text text-anchor="middle" x="7045" y="-154.8" font-family="Times,serif" font-size="14.00">clusterServerID_e56b6537e2d5</text>
</g>
<!-- 10.1.80.247:33290#ServerID_OuterContainerID -->
<g id="node1" class="node"><title>10.1.80.247:33290#ServerID_OuterContainerID</title>
<polygon fill="none" stroke="black" points="1024,-247 688.515,-229 1024,-211 1359.48,-229 1024,-247"/>
<text text-anchor="middle" x="1024" y="-225.3" font-family="Times,serif" font-size="14.00">10.1.80.247:33290#ServerID_OuterContainerID</text>
</g>
<!-- 1_fwatchdog#ServerID_6df85d7674&#45;2kqrj -->
<g id="node2" class="node"><title>1_fwatchdog#ServerID_6df85d7674&#45;2kqrj</title>
<polygon fill="none" stroke="black" points="5776.5,-139 5455.5,-139 5455.5,-103 5776.5,-103 5776.5,-139"/>
<text text-anchor="middle" x="5616" y="-117.3" font-family="Times,serif" font-size="14.00">1_fwatchdog#ServerID_6df85d7674&#45;2kqrj</text>
</g>
<!-- 10.1.80.247:33290#ServerID_OuterContainerID&#45;&gt;1_fwatchdog#ServerID_6df85d7674&#45;2kqrj -->
<g id="edge1" class="edge"><title>10.1.80.247:33290#ServerID_OuterContainerID&#45;&gt;1_fwatchdog#ServerID_6df85d7674&#45;2kqrj</title>
<path fill="none" stroke="black" d="M1134.96,-216.913C1264.06,-204.603 1483.72,-185.482 1673,-178 1777.64,-173.864 5339.25,-184.238 5443,-170 5482.21,-164.619 5525.08,-152.769 5558.33,-142.19"/>
<polygon fill="black" stroke="black" points="5559.45,-145.507 5567.89,-139.101 5557.3,-138.847 5559.45,-145.507"/>
<text text-anchor="middle" x="1693" y="-181.8" font-family="Times,serif" font-size="14.00">POST</text>
</g>
<!-- 1_fwatchdog#ServerID_34e86192c217 -->
<g id="node7" class="node"><title>1_fwatchdog#ServerID_34e86192c217</title>
<polygon fill="none" stroke="black" points="6733.5,-139 6434.5,-139 6434.5,-103 6733.5,-103 6733.5,-139"/>
<text text-anchor="middle" x="6584" y="-117.3" font-family="Times,serif" font-size="14.00">1_fwatchdog#ServerID_34e86192c217</text>
</g>
<!-- 10.1.80.247:33290#ServerID_OuterContainerID&#45;&gt;1_fwatchdog#ServerID_34e86192c217 -->
<g id="edge10" class="edge"><title>10.1.80.247:33290#ServerID_OuterContainerID&#45;&gt;1_fwatchdog#ServerID_34e86192c217</title>
<path fill="none" stroke="black" d="M1188.72,-219.81C1384.24,-210.061 1687.28,-194.858 1713,-193 1784.24,-187.854 1801.66,-181.4 1873,-178 1936.15,-174.991 6362.46,-179.29 6425,-170 6460.9,-164.667 6499.94,-152.973 6530.35,-142.463"/>
<polygon fill="black" stroke="black" points="6531.63,-145.722 6539.9,-139.102 6529.31,-139.119 6531.63,-145.722"/>
<text text-anchor="middle" x="1889.5" y="-181.8" font-family="Times,serif" font-size="14.00">read</text>
</g>
<!-- 1_fwatchdog#ServerID_6df85d7674&#45;2kqrj&#45;&gt;10.1.80.247:33290#ServerID_OuterContainerID -->
<g id="edge8" class="edge"><title>1_fwatchdog#ServerID_6df85d7674&#45;2kqrj&#45;&gt;10.1.80.247:33290#ServerID_OuterContainerID</title>
<path fill="none" stroke="black" d="M5567.89,-139.104C5533.58,-150.37 5486.08,-164.092 5443,-170 5329.95,-185.505 1448.74,-168.804 1335,-178 1253.93,-184.554 1162.1,-200.368 1099.36,-212.471"/>
<polygon fill="black" stroke="black" points="1098.31,-209.11 1089.16,-214.455 1099.65,-215.981 1098.31,-209.11"/>
<text text-anchor="middle" x="1377" y="-181.8" font-family="Times,serif" font-size="14.00">RESPONSE</text>
</g>
<!-- gateway:8080#ServerID_OuterContainerID -->
<g id="node5" class="node"><title>gateway:8080#ServerID_OuterContainerID</title>
<polygon fill="none" stroke="black" points="1682,-247 1377.52,-229 1682,-211 1986.48,-229 1682,-247"/>
<text text-anchor="middle" x="1682" y="-225.3" font-family="Times,serif" font-size="14.00">gateway:8080#ServerID_OuterContainerID</text>
</g>
<!-- 1_fwatchdog#ServerID_6df85d7674&#45;2kqrj&#45;&gt;gateway:8080#ServerID_OuterContainerID -->
<g id="edge7" class="edge"><title>1_fwatchdog#ServerID_6df85d7674&#45;2kqrj&#45;&gt;gateway:8080#ServerID_OuterContainerID</title>
<path fill="none" stroke="black" d="M5567.89,-139.098C5533.58,-150.362 5486.08,-164.083 5443,-170 5349.71,-182.814 2146.95,-171.586 2053,-178 1953.61,-184.785 1840.22,-201.372 1765.24,-213.59"/>
<polygon fill="black" stroke="black" points="1764.22,-210.21 1754.92,-215.283 1765.36,-217.117 1764.22,-210.21"/>
<text text-anchor="middle" x="2073" y="-181.8" font-family="Times,serif" font-size="14.00">POST</text>
</g>
<!-- 10.1.80.247:8080#ServerID_OuterContainerID -->
<g id="node6" class="node"><title>10.1.80.247:8080#ServerID_OuterContainerID</title>
<polygon fill="none" stroke="black" points="343,-247 15.5599,-229 343,-211 670.44,-229 343,-247"/>
<text text-anchor="middle" x="343" y="-225.3" font-family="Times,serif" font-size="14.00">10.1.80.247:8080#ServerID_OuterContainerID</text>
</g>
<!-- 1_fwatchdog#ServerID_6df85d7674&#45;2kqrj&#45;&gt;10.1.80.247:8080#ServerID_OuterContainerID -->
<g id="edge4" class="edge"><title>1_fwatchdog#ServerID_6df85d7674&#45;2kqrj&#45;&gt;10.1.80.247:8080#ServerID_OuterContainerID</title>
<path fill="none" stroke="black" d="M5567.89,-139.106C5533.58,-150.372 5486.08,-164.095 5443,-170 5381.89,-178.376 1063.62,-175.199 1002,-178 927.114,-181.404 908.723,-187.001 834,-193 719.742,-202.172 590.427,-211.341 493.199,-217.992"/>
<polygon fill="black" stroke="black" points="492.737,-214.515 482.999,-218.689 493.214,-221.499 492.737,-214.515"/>
<text text-anchor="middle" x="1022" y="-181.8" font-family="Times,serif" font-size="14.00">POST</text>
</g>
<!-- 10.1.80.247:35330#ServerID_OuterContainerID -->
<g id="node3" class="node"><title>10.1.80.247:35330#ServerID_OuterContainerID</title>
<polygon fill="none" stroke="black" points="2340,-247 2004.52,-229 2340,-211 2675.48,-229 2340,-247"/>
<text text-anchor="middle" x="2340" y="-225.3" font-family="Times,serif" font-size="14.00">10.1.80.247:35330#ServerID_OuterContainerID</text>
</g>
<!-- 1_fwatchdog#ServerID_5f846fd567&#45;w7nbt -->
<g id="node4" class="node"><title>1_fwatchdog#ServerID_5f846fd567&#45;w7nbt</title>
<polygon fill="none" stroke="black" points="6125,-139 5801,-139 5801,-103 6125,-103 6125,-139"/>
<text text-anchor="middle" x="5963" y="-117.3" font-family="Times,serif" font-size="14.00">1_fwatchdog#ServerID_5f846fd567&#45;w7nbt</text>
</g>
<!-- 10.1.80.247:35330#ServerID_OuterContainerID&#45;&gt;1_fwatchdog#ServerID_5f846fd567&#45;w7nbt -->
<g id="edge2" class="edge"><title>10.1.80.247:35330#ServerID_OuterContainerID&#45;&gt;1_fwatchdog#ServerID_5f846fd567&#45;w7nbt</title>
<path fill="none" stroke="black" d="M2464.81,-217.695C2619.4,-205.473 2890.91,-185.776 3124,-178 3197.99,-175.532 5715.66,-180.043 5789,-170 5828.42,-164.602 5871.54,-152.752 5904.99,-142.177"/>
<polygon fill="black" stroke="black" points="5906.15,-145.48 5914.6,-139.09 5904.01,-138.815 5906.15,-145.48"/>
<text text-anchor="middle" x="3144" y="-181.8" font-family="Times,serif" font-size="14.00">POST</text>
</g>
<!-- 1_fwatchdog#ServerID_e56b6537e2d5 -->
<g id="node9" class="node"><title>1_fwatchdog#ServerID_e56b6537e2d5</title>
<polygon fill="none" stroke="black" points="7057.5,-139 6758.5,-139 6758.5,-103 7057.5,-103 7057.5,-139"/>
<text text-anchor="middle" x="6908" y="-117.3" font-family="Times,serif" font-size="14.00">1_fwatchdog#ServerID_e56b6537e2d5</text>
</g>
<!-- 10.1.80.247:35330#ServerID_OuterContainerID&#45;&gt;1_fwatchdog#ServerID_e56b6537e2d5 -->
<g id="edge19" class="edge"><title>10.1.80.247:35330#ServerID_OuterContainerID&#45;&gt;1_fwatchdog#ServerID_e56b6537e2d5</title>
<path fill="none" stroke="black" d="M2496.68,-219.377C2555.7,-216.367 2623.42,-213.195 2685,-211 3047.97,-198.061 3138.98,-204.376 3502,-193 3666.05,-187.859 3706.9,-181.562 3871,-178 3950.84,-176.267 6666.98,-181.572 6746,-170 6782.53,-164.649 6822.31,-152.955 6853.3,-142.45"/>
<polygon fill="black" stroke="black" points="6854.73,-145.66 6863.04,-139.09 6852.45,-139.043 6854.73,-145.66"/>
<text text-anchor="middle" x="3887.5" y="-181.8" font-family="Times,serif" font-size="14.00">read</text>
</g>
<!-- 1_fwatchdog#ServerID_5f846fd567&#45;w7nbt&#45;&gt;10.1.80.247:35330#ServerID_OuterContainerID -->
<g id="edge6" class="edge"><title>1_fwatchdog#ServerID_5f846fd567&#45;w7nbt&#45;&gt;10.1.80.247:35330#ServerID_OuterContainerID</title>
<path fill="none" stroke="black" d="M5914.6,-139.085C5880.09,-150.342 5832.31,-164.061 5789,-170 5723.75,-178.947 3483.83,-175.947 3418,-178 3304.97,-181.525 3276.95,-187.543 3164,-193 2951.21,-203.28 2897.84,-201.757 2685,-211 2628.6,-213.449 2567.02,-216.396 2511.71,-219.143"/>
<polygon fill="black" stroke="black" points="2511.27,-215.661 2501.46,-219.654 2511.62,-222.652 2511.27,-215.661"/>
<text text-anchor="middle" x="3460" y="-181.8" font-family="Times,serif" font-size="14.00">RESPONSE</text>
</g>
<!-- gateway:8080#ServerID_OuterContainerID&#45;&gt;1_fwatchdog#ServerID_6df85d7674&#45;2kqrj -->
<g id="edge3" class="edge"><title>gateway:8080#ServerID_OuterContainerID&#45;&gt;1_fwatchdog#ServerID_6df85d7674&#45;2kqrj</title>
<path fill="none" stroke="black" d="M1791.6,-217.45C1924.86,-205.183 2156.68,-185.642 2356,-178 2441.69,-174.715 5358.05,-181.679 5443,-170 5482.21,-164.61 5525.08,-152.76 5558.33,-142.183"/>
<polygon fill="black" stroke="black" points="5559.45,-145.5 5567.89,-139.095 5557.3,-138.84 5559.45,-145.5"/>
<text text-anchor="middle" x="2398" y="-181.8" font-family="Times,serif" font-size="14.00">RESPONSE</text>
</g>
<!-- 10_node#ServerID_34e86192c217 -->
<g id="node15" class="node"><title>10_node#ServerID_34e86192c217</title>
<polygon fill="none" stroke="black" points="6416.5,-139 6149.5,-139 6149.5,-103 6416.5,-103 6416.5,-139"/>
<text text-anchor="middle" x="6283" y="-117.3" font-family="Times,serif" font-size="14.00">10_node#ServerID_34e86192c217</text>
</g>
<!-- gateway:8080#ServerID_OuterContainerID&#45;&gt;10_node#ServerID_34e86192c217 -->
<g id="edge21" class="edge"><title>gateway:8080#ServerID_OuterContainerID&#45;&gt;10_node#ServerID_34e86192c217</title>
<path fill="none" stroke="black" d="M1828.55,-219.653C1881.33,-216.756 1941.33,-213.588 1996,-211 2045.32,-208.665 2393.12,-208.506 2440,-193 2451.24,-189.283 2450.7,-181.501 2462,-178 2510.76,-162.902 6086.61,-178.127 6137,-170 6169.87,-164.698 6205.39,-153.16 6233.16,-142.725"/>
<polygon fill="black" stroke="black" points="6234.56,-145.938 6242.64,-139.092 6232.05,-139.401 6234.56,-145.938"/>
<text text-anchor="middle" x="2478.5" y="-181.8" font-family="Times,serif" font-size="14.00">read</text>
</g>
<!-- 10.1.80.247:8080#ServerID_OuterContainerID&#45;&gt;1_fwatchdog#ServerID_6df85d7674&#45;2kqrj -->
<g id="edge5" class="edge"><title>10.1.80.247:8080#ServerID_OuterContainerID&#45;&gt;1_fwatchdog#ServerID_6df85d7674&#45;2kqrj</title>
<path fill="none" stroke="black" d="M504.13,-219.848C559.838,-217.036 622.662,-213.872 680,-211 840.886,-202.942 881.925,-211.033 1042,-193 1080.12,-188.706 1088.79,-181.382 1127,-178 1246.42,-167.432 5324.22,-186.285 5443,-170 5482.21,-164.625 5525.08,-152.774 5558.34,-142.194"/>
<polygon fill="black" stroke="black" points="5559.45,-145.511 5567.89,-139.105 5557.3,-138.851 5559.45,-145.511"/>
<text text-anchor="middle" x="1169" y="-181.8" font-family="Times,serif" font-size="14.00">RESPONSE</text>
</g>
<!-- 10.1.80.1:6689#ServerID_OuterContainerID -->
<g id="node18" class="node"><title>10.1.80.1:6689#ServerID_OuterContainerID</title>
<polygon fill="none" stroke="black" points="1015,-139 704.15,-121 1015,-103 1325.85,-121 1015,-139"/>
<text text-anchor="middle" x="1015" y="-117.3" font-family="Times,serif" font-size="14.00">10.1.80.1:6689#ServerID_OuterContainerID</text>
</g>
<!-- 10.1.80.247:8080#ServerID_OuterContainerID&#45;&gt;10.1.80.1:6689#ServerID_OuterContainerID -->
<g id="edge23" class="edge"><title>10.1.80.247:8080#ServerID_OuterContainerID&#45;&gt;10.1.80.1:6689#ServerID_OuterContainerID</title>
<path fill="none" stroke="black" d="M411.688,-214.773C469.096,-203.991 553.195,-188.829 627,-178 657.108,-173.582 664.838,-174.035 695,-170 773.355,-159.517 862.26,-146.055 926.44,-136.057"/>
<polygon fill="black" stroke="black" points="927.182,-139.483 936.523,-134.483 926.103,-132.567 927.182,-139.483"/>
<text text-anchor="middle" x="669" y="-181.8" font-family="Times,serif" font-size="14.00">RESPONSE</text>
</g>
<!-- 10.0.88.125:31112#ServerID_OuterContainerID -->
<g id="node19" class="node"><title>10.0.88.125:31112#ServerID_OuterContainerID</title>
<polygon fill="none" stroke="black" points="351,-139 15.5152,-121 351,-103 686.485,-121 351,-139"/>
<text text-anchor="middle" x="351" y="-117.3" font-family="Times,serif" font-size="14.00">10.0.88.125:31112#ServerID_OuterContainerID</text>
</g>
<!-- 10.1.80.247:8080#ServerID_OuterContainerID&#45;&gt;10.0.88.125:31112#ServerID_OuterContainerID -->
<g id="edge24" class="edge"><title>10.1.80.247:8080#ServerID_OuterContainerID&#45;&gt;10.0.88.125:31112#ServerID_OuterContainerID</title>
<path fill="none" stroke="black" d="M344.285,-210.969C345.545,-194.279 347.485,-168.579 348.956,-149.084"/>
<polygon fill="black" stroke="black" points="352.455,-149.224 349.718,-138.988 345.475,-148.697 352.455,-149.224"/>
<text text-anchor="middle" x="389" y="-181.8" font-family="Times,serif" font-size="14.00">RESPONSE</text>
</g>
<!-- localhost:3000#ServerID_34e86192c217 -->
<g id="node8" class="node"><title>localhost:3000#ServerID_34e86192c217</title>
<polygon fill="none" stroke="black" points="6447,-52 6160.45,-34 6447,-16 6733.55,-34 6447,-52"/>
<text text-anchor="middle" x="6447" y="-30.3" font-family="Times,serif" font-size="14.00">localhost:3000#ServerID_34e86192c217</text>
</g>
<!-- 1_fwatchdog#ServerID_34e86192c217&#45;&gt;localhost:3000#ServerID_34e86192c217 -->
<g id="edge9" class="edge"><title>1_fwatchdog#ServerID_34e86192c217&#45;&gt;localhost:3000#ServerID_34e86192c217</title>
<path fill="none" stroke="black" d="M6539.35,-102.958C6527.81,-97.8235 6515.65,-91.7388 6505,-85 6492.94,-77.3703 6480.8,-67.3512 6470.77,-58.2866"/>
<polygon fill="black" stroke="black" points="6472.93,-55.5153 6463.21,-51.2855 6468.17,-60.6498 6472.93,-55.5153"/>
<text text-anchor="middle" x="6524" y="-73.8" font-family="Times,serif" font-size="14.00">write</text>
</g>
<!-- localhost:3000#ServerID_34e86192c217&#45;&gt;1_fwatchdog#ServerID_34e86192c217 -->
<g id="edge13" class="edge"><title>localhost:3000#ServerID_34e86192c217&#45;&gt;1_fwatchdog#ServerID_34e86192c217</title>
<path fill="none" stroke="black" d="M6500.31,-48.7697C6514.94,-54.0127 6530.27,-60.9702 6543,-70 6552.3,-76.5937 6560.67,-85.8236 6567.39,-94.5609"/>
<polygon fill="black" stroke="black" points="6564.59,-96.6577 6573.3,-102.685 6570.25,-92.5394 6564.59,-96.6577"/>
<text text-anchor="middle" x="6575.5" y="-73.8" font-family="Times,serif" font-size="14.00">read</text>
</g>
<!-- localhost:3000#ServerID_e56b6537e2d5 -->
<g id="node10" class="node"><title>localhost:3000#ServerID_e56b6537e2d5</title>
<polygon fill="none" stroke="black" points="7045,-52 6758.45,-34 7045,-16 7331.55,-34 7045,-52"/>
<text text-anchor="middle" x="7045" y="-30.3" font-family="Times,serif" font-size="14.00">localhost:3000#ServerID_e56b6537e2d5</text>
</g>
<!-- 1_fwatchdog#ServerID_e56b6537e2d5&#45;&gt;localhost:3000#ServerID_e56b6537e2d5 -->
<g id="edge11" class="edge"><title>1_fwatchdog#ServerID_e56b6537e2d5&#45;&gt;localhost:3000#ServerID_e56b6537e2d5</title>
<path fill="none" stroke="black" d="M6925.2,-102.777C6936.21,-92.385 6951.17,-79.3849 6966,-70 6975.51,-63.9807 6986.23,-58.4833 6996.64,-53.7188"/>
<polygon fill="black" stroke="black" points="6998.33,-56.798 7006.06,-49.5554 6995.5,-50.395 6998.33,-56.798"/>
<text text-anchor="middle" x="6985" y="-73.8" font-family="Times,serif" font-size="14.00">write</text>
</g>
<!-- localhost:3000#ServerID_e56b6537e2d5&#45;&gt;1_fwatchdog#ServerID_e56b6537e2d5 -->
<g id="edge16" class="edge"><title>localhost:3000#ServerID_e56b6537e2d5&#45;&gt;1_fwatchdog#ServerID_e56b6537e2d5</title>
<path fill="none" stroke="black" d="M7034.63,-51.8382C7027.25,-62.6098 7016.45,-76.1692 7004,-85 6996.37,-90.4071 6987.82,-95.0712 6979.04,-99.069"/>
<polygon fill="black" stroke="black" points="6977.67,-95.8507 6969.85,-102.997 6980.42,-102.288 6977.67,-95.8507"/>
<text text-anchor="middle" x="7036.5" y="-73.8" font-family="Times,serif" font-size="14.00">read</text>
</g>
<!-- 10.1.80.247:35290#ServerID_OuterContainerID -->
<g id="node11" class="node"><title>10.1.80.247:35290#ServerID_OuterContainerID</title>
<polygon fill="none" stroke="black" points="3718,-247 3382.52,-229 3718,-211 4053.48,-229 3718,-247"/>
<text text-anchor="middle" x="3718" y="-225.3" font-family="Times,serif" font-size="14.00">10.1.80.247:35290#ServerID_OuterContainerID</text>
</g>
<!-- 10.1.80.247:35290#ServerID_OuterContainerID&#45;&gt;1_fwatchdog#ServerID_e56b6537e2d5 -->
<g id="edge12" class="edge"><title>10.1.80.247:35290#ServerID_OuterContainerID&#45;&gt;1_fwatchdog#ServerID_e56b6537e2d5</title>
<path fill="none" stroke="black" d="M3873.82,-219.354C3933.03,-216.323 4001.12,-213.143 4063,-211 4796.04,-185.615 4979.59,-188.174 5713,-178 5770.39,-177.204 6689.24,-178.457 6746,-170 6782.52,-164.559 6822.29,-152.863 6853.29,-142.38"/>
<polygon fill="black" stroke="black" points="6854.72,-145.591 6863.03,-139.028 6852.44,-138.972 6854.72,-145.591"/>
<text text-anchor="middle" x="5729.5" y="-181.8" font-family="Times,serif" font-size="14.00">read</text>
</g>
<!-- 10.1.80.247:35286#ServerID_OuterContainerID -->
<g id="node12" class="node"><title>10.1.80.247:35286#ServerID_OuterContainerID</title>
<polygon fill="none" stroke="black" points="4407,-247 4071.52,-229 4407,-211 4742.48,-229 4407,-247"/>
<text text-anchor="middle" x="4407" y="-225.3" font-family="Times,serif" font-size="14.00">10.1.80.247:35286#ServerID_OuterContainerID</text>
</g>
<!-- 10.1.80.247:35286#ServerID_OuterContainerID&#45;&gt;1_fwatchdog#ServerID_e56b6537e2d5 -->
<g id="edge14" class="edge"><title>10.1.80.247:35286#ServerID_OuterContainerID&#45;&gt;1_fwatchdog#ServerID_e56b6537e2d5</title>
<path fill="none" stroke="black" d="M4563.25,-219.351C4622.36,-216.328 4690.27,-213.155 4752,-211 4807.37,-209.067 6691.26,-178.515 6746,-170 6782.22,-164.366 6821.69,-152.793 6852.6,-142.423"/>
<polygon fill="black" stroke="black" points="6853.98,-145.648 6862.32,-139.107 6851.72,-139.023 6853.98,-145.648"/>
<text text-anchor="middle" x="6500.5" y="-181.8" font-family="Times,serif" font-size="14.00">read</text>
</g>
<!-- 10.1.80.247:35296#ServerID_OuterContainerID -->
<g id="node13" class="node"><title>10.1.80.247:35296#ServerID_OuterContainerID</title>
<polygon fill="none" stroke="black" points="5096,-247 4760.52,-229 5096,-211 5431.48,-229 5096,-247"/>
<text text-anchor="middle" x="5096" y="-225.3" font-family="Times,serif" font-size="14.00">10.1.80.247:35296#ServerID_OuterContainerID</text>
</g>
<!-- 10.1.80.247:35296#ServerID_OuterContainerID&#45;&gt;1_fwatchdog#ServerID_e56b6537e2d5 -->
<g id="edge15" class="edge"><title>10.1.80.247:35296#ServerID_OuterContainerID&#45;&gt;1_fwatchdog#ServerID_e56b6537e2d5</title>
<path fill="none" stroke="black" d="M5386.99,-226.603C5788.96,-223.153 6493.16,-211.218 6746,-170 6782.05,-164.123 6821.36,-152.606 6852.23,-142.327"/>
<polygon fill="black" stroke="black" points="6853.59,-145.562 6861.94,-139.042 6851.34,-138.931 6853.59,-145.562"/>
<text text-anchor="middle" x="6688.5" y="-181.8" font-family="Times,serif" font-size="14.00">read</text>
</g>
<!-- 10.1.80.247:33362#ServerID_OuterContainerID -->
<g id="node14" class="node"><title>10.1.80.247:33362#ServerID_OuterContainerID</title>
<polygon fill="none" stroke="black" points="3029,-247 2693.52,-229 3029,-211 3364.48,-229 3029,-247"/>
<text text-anchor="middle" x="3029" y="-225.3" font-family="Times,serif" font-size="14.00">10.1.80.247:33362#ServerID_OuterContainerID</text>
</g>
<!-- 10.1.80.247:33362#ServerID_OuterContainerID&#45;&gt;1_fwatchdog#ServerID_34e86192c217 -->
<g id="edge17" class="edge"><title>10.1.80.247:33362#ServerID_OuterContainerID&#45;&gt;1_fwatchdog#ServerID_34e86192c217</title>
<path fill="none" stroke="black" d="M3186.98,-219.434C3245.69,-216.457 3312.88,-213.292 3374,-211 3943.57,-189.64 4086.1,-186.623 4656,-178 4705.13,-177.257 6376.4,-177.288 6425,-170 6460.89,-164.617 6499.93,-152.923 6530.34,-142.425"/>
<polygon fill="black" stroke="black" points="6531.62,-145.685 6539.9,-139.068 6529.3,-139.08 6531.62,-145.685"/>
<text text-anchor="middle" x="4672.5" y="-181.8" font-family="Times,serif" font-size="14.00">read</text>
</g>
<!-- 10_node#ServerID_34e86192c217&#45;&gt;gateway:8080#ServerID_OuterContainerID -->
<g id="edge18" class="edge"><title>10_node#ServerID_34e86192c217&#45;&gt;gateway:8080#ServerID_OuterContainerID</title>
<path fill="none" stroke="black" d="M6242.64,-139.09C6213.8,-150.35 6173.75,-164.07 6137,-170 6090.71,-177.47 2807.87,-176.604 2761,-178 2644.42,-181.473 2615.51,-187.581 2499,-193 2275.54,-203.394 2219.47,-200.953 1996,-211 1944.36,-213.322 1887.96,-216.252 1837.39,-219.022"/>
<polygon fill="black" stroke="black" points="1837.15,-215.53 1827.36,-219.574 1837.54,-222.52 1837.15,-215.53"/>
<text text-anchor="middle" x="2790" y="-181.8" font-family="Times,serif" font-size="14.00">connect</text>
</g>
<!-- /home/app/node_modules#ServerID_90667071e782 -->
<g id="node16" class="node"><title>/home/app/node_modules#ServerID_90667071e782</title>
<ellipse fill="none" stroke="black" cx="7609" cy="-229" rx="252.655" ry="18"/>
<text text-anchor="middle" x="7609" y="-225.3" font-family="Times,serif" font-size="14.00">/home/app/node_modules#ServerID_90667071e782</text>
</g>
<!-- 15_node#ServerID_90667071e782 -->
<g id="node17" class="node"><title>15_node#ServerID_90667071e782</title>
<polygon fill="none" stroke="black" points="7743,-139 7475,-139 7475,-103 7743,-103 7743,-139"/>
<text text-anchor="middle" x="7609" y="-117.3" font-family="Times,serif" font-size="14.00">15_node#ServerID_90667071e782</text>
</g>
<!-- /home/app/node_modules#ServerID_90667071e782&#45;&gt;15_node#ServerID_90667071e782 -->
<g id="edge20" class="edge"><title>/home/app/node_modules#ServerID_90667071e782&#45;&gt;15_node#ServerID_90667071e782</title>
<path fill="none" stroke="black" d="M7609,-210.969C7609,-194.378 7609,-168.883 7609,-149.431"/>
<polygon fill="black" stroke="black" points="7612.5,-149.341 7609,-139.341 7605.5,-149.341 7612.5,-149.341"/>
<text text-anchor="middle" x="7625.5" y="-181.8" font-family="Times,serif" font-size="14.00">read</text>
</g>
<!-- 10.1.80.1:6689#ServerID_OuterContainerID&#45;&gt;10.1.80.247:8080#ServerID_OuterContainerID -->
<g id="edge22" class="edge"><title>10.1.80.1:6689#ServerID_OuterContainerID&#45;&gt;10.1.80.247:8080#ServerID_OuterContainerID</title>
<path fill="none" stroke="black" d="M964.74,-136.153C905.499,-152.308 803.856,-178.378 715,-193 644.529,-204.597 565.867,-212.692 499.095,-218.153"/>
<polygon fill="black" stroke="black" points="498.595,-214.682 488.908,-218.974 499.157,-221.66 498.595,-214.682"/>
<text text-anchor="middle" x="810" y="-181.8" font-family="Times,serif" font-size="14.00">POST</text>
</g>
</g>
</svg>
