<?xml version="1.0" encoding="UTF-8" standalone="no"?>
<!DOCTYPE svg PUBLIC "-//W3C//DTD SVG 1.1//EN"
 "http://www.w3.org/Graphics/SVG/1.1/DTD/svg11.dtd">
<!-- Generated by graphviz version 2.38.0 (20140413.2041)
 -->
<!-- Title: G Pages: 1 -->
<svg width="5200pt" height="597pt"
 viewBox="0.00 0.00 5200.00 597.00" xmlns="http://www.w3.org/2000/svg" xmlns:xlink="http://www.w3.org/1999/xlink">
<g id="graph0" class="graph" transform="scale(1 1) rotate(0) translate(4 593)">
<title>G</title>
<polygon fill="white" stroke="none" points="-4,4 -4,-593 5196,-593 5196,4 -4,4"/>
<g id="clust1" class="cluster"><title>clusterServerID_2347d2f455dd</title>
<polygon fill="none" stroke="black" points="2363,-398 2363,-581 3477,-581 3477,-398 2363,-398"/>
<text text-anchor="middle" x="2920" y="-565.8" font-family="Times,serif" font-size="14.00">clusterServerID_2347d2f455dd</text>
</g>
<g id="clust2" class="cluster"><title>clusterServerID_5f846fd567&#45;g8dn6</title>
<polygon fill="none" stroke="black" points="3312,-182 3312,-257 3652,-257 3652,-182 3312,-182"/>
<text text-anchor="middle" x="3482" y="-241.8" font-family="Times,serif" font-size="14.00">clusterServerID_5f846fd567&#45;g8dn6</text>
</g>
<g id="clust3" class="cluster"><title>clusterServerID_6df85d7674&#45;f2xxt</title>
<polygon fill="none" stroke="black" points="830,-398 830,-473 1166,-473 1166,-398 830,-398"/>
<text text-anchor="middle" x="998" y="-457.8" font-family="Times,serif" font-size="14.00">clusterServerID_6df85d7674&#45;f2xxt</text>
</g>
<g id="clust4" class="cluster"><title>clusterServerID_7cf8268e6ab5</title>
<polygon fill="none" stroke="black" points="3660,-8 3660,-257 5184,-257 5184,-8 3660,-8"/>
<text text-anchor="middle" x="4422" y="-241.8" font-family="Times,serif" font-size="14.00">clusterServerID_7cf8268e6ab5</text>
</g>
<g id="clust5" class="cluster"><title>clusterServerID_OuterContainerID</title>
<polygon fill="none" stroke="black" points="8,-182 8,-365 3304,-365 3304,-182 8,-182"/>
<text text-anchor="middle" x="1656" y="-349.8" font-family="Times,serif" font-size="14.00">clusterServerID_OuterContainerID</text>
</g>
<!-- 10.1.80.93:49184#ServerID_OuterContainerID -->
<g id="node1" class="node"><title>10.1.80.93:49184#ServerID_OuterContainerID</title>
<polygon fill="none" stroke="black" points="999,-334 671.56,-316 999,-298 1326.44,-316 999,-334"/>
<text text-anchor="middle" x="999" y="-312.3" font-family="Times,serif" font-size="14.00">10.1.80.93:49184#ServerID_OuterContainerID</text>
</g>
<!-- 1_fwatchdog#ServerID_6df85d7674&#45;f2xxt -->
<g id="node2" class="node"><title>1_fwatchdog#ServerID_6df85d7674&#45;f2xxt</title>
<polygon fill="none" stroke="black" points="1158,-442 838,-442 838,-406 1158,-406 1158,-442"/>
<text text-anchor="middle" x="998" y="-420.3" font-family="Times,serif" font-size="14.00">1_fwatchdog#ServerID_6df85d7674&#45;f2xxt</text>
</g>
<!-- 10.1.80.93:49184#ServerID_OuterContainerID&#45;&gt;1_fwatchdog#ServerID_6df85d7674&#45;f2xxt -->
<g id="edge1" class="edge"><title>10.1.80.93:49184#ServerID_OuterContainerID&#45;&gt;1_fwatchdog#ServerID_6df85d7674&#45;f2xxt</title>
<path fill="none" stroke="black" d="M986.809,-333.692C979.796,-344.353 971.669,-358.798 968,-373 966.333,-379.455 965.687,-381.747 968,-388 969.231,-391.328 970.936,-394.554 972.914,-397.612"/>
<polygon fill="black" stroke="black" points="970.225,-399.86 979.041,-405.736 975.813,-395.644 970.225,-399.86"/>
<text text-anchor="middle" x="988" y="-376.8" font-family="Times,serif" font-size="14.00">POST</text>
</g>
<!-- 1_fwatchdog#ServerID_2347d2f455dd -->
<g id="node6" class="node"><title>1_fwatchdog#ServerID_2347d2f455dd</title>
<polygon fill="none" stroke="black" points="3469,-550 3173,-550 3173,-514 3469,-514 3469,-550"/>
<text text-anchor="middle" x="3321" y="-528.3" font-family="Times,serif" font-size="14.00">1_fwatchdog#ServerID_2347d2f455dd</text>
</g>
<!-- 10.1.80.93:49184#ServerID_OuterContainerID&#45;&gt;1_fwatchdog#ServerID_2347d2f455dd -->
<g id="edge10" class="edge"><title>10.1.80.93:49184#ServerID_OuterContainerID&#45;&gt;1_fwatchdog#ServerID_2347d2f455dd</title>
<path fill="none" stroke="black" d="M1070.46,-330.105C1138.27,-341.851 1243.18,-358.241 1335,-365 1510.08,-377.888 2739.52,-367.77 2915,-373 2965.94,-374.518 3337.96,-360.993 3373,-398 3395.92,-422.204 3384.91,-441.868 3373,-473 3368.16,-485.657 3359.14,-497.293 3349.95,-506.767"/>
<polygon fill="black" stroke="black" points="3347.36,-504.402 3342.63,-513.88 3352.24,-509.424 3347.36,-504.402"/>
<text text-anchor="middle" x="3403.5" y="-420.3" font-family="Times,serif" font-size="14.00">read</text>
</g>
<!-- 1_fwatchdog#ServerID_6df85d7674&#45;f2xxt&#45;&gt;10.1.80.93:49184#ServerID_OuterContainerID -->
<g id="edge4" class="edge"><title>1_fwatchdog#ServerID_6df85d7674&#45;f2xxt&#45;&gt;10.1.80.93:49184#ServerID_OuterContainerID</title>
<path fill="none" stroke="black" d="M1003.96,-405.759C1005.61,-400.165 1007.18,-393.883 1008,-388 1010.04,-373.436 1008.27,-357.162 1005.78,-343.873"/>
<polygon fill="black" stroke="black" points="1009.17,-343.006 1003.68,-333.944 1002.32,-344.452 1009.17,-343.006"/>
<text text-anchor="middle" x="1051" y="-376.8" font-family="Times,serif" font-size="14.00">RESPONSE</text>
</g>
<!-- 10.1.80.93:8080#ServerID_OuterContainerID -->
<g id="node3" class="node"><title>10.1.80.93:8080#ServerID_OuterContainerID</title>
<polygon fill="none" stroke="black" points="335,-334 16.1049,-316 335,-298 653.895,-316 335,-334"/>
<text text-anchor="middle" x="335" y="-312.3" font-family="Times,serif" font-size="14.00">10.1.80.93:8080#ServerID_OuterContainerID</text>
</g>
<!-- 1_fwatchdog#ServerID_6df85d7674&#45;f2xxt&#45;&gt;10.1.80.93:8080#ServerID_OuterContainerID -->
<g id="edge3" class="edge"><title>1_fwatchdog#ServerID_6df85d7674&#45;f2xxt&#45;&gt;10.1.80.93:8080#ServerID_OuterContainerID</title>
<path fill="none" stroke="black" d="M933.29,-405.894C888.805,-394.792 828.207,-380.959 774,-373 725.063,-365.815 712.17,-370.362 663,-365 580.556,-356.009 486.999,-341.931 420.962,-331.342"/>
<polygon fill="black" stroke="black" points="421.444,-327.874 411.015,-329.74 420.331,-334.785 421.444,-327.874"/>
<text text-anchor="middle" x="875" y="-376.8" font-family="Times,serif" font-size="14.00">POST</text>
</g>
<!-- gateway:8080#ServerID_OuterContainerID -->
<g id="node8" class="node"><title>gateway:8080#ServerID_OuterContainerID</title>
<polygon fill="none" stroke="black" points="2320,-334 2015.52,-316 2320,-298 2624.48,-316 2320,-334"/>
<text text-anchor="middle" x="2320" y="-312.3" font-family="Times,serif" font-size="14.00">gateway:8080#ServerID_OuterContainerID</text>
</g>
<!-- 1_fwatchdog#ServerID_6df85d7674&#45;f2xxt&#45;&gt;gateway:8080#ServerID_OuterContainerID -->
<g id="edge7" class="edge"><title>1_fwatchdog#ServerID_6df85d7674&#45;f2xxt&#45;&gt;gateway:8080#ServerID_OuterContainerID</title>
<path fill="none" stroke="black" d="M1158.28,-418.473C1357.63,-411.765 1708.17,-396.431 2007,-365 2086.27,-356.662 2176.16,-342.371 2239.2,-331.545"/>
<polygon fill="black" stroke="black" points="2239.82,-334.99 2249.08,-329.839 2238.63,-328.092 2239.82,-334.99"/>
<text text-anchor="middle" x="1946" y="-376.8" font-family="Times,serif" font-size="14.00">POST</text>
</g>
<!-- 10.1.80.93:8080#ServerID_OuterContainerID&#45;&gt;1_fwatchdog#ServerID_6df85d7674&#45;f2xxt -->
<g id="edge2" class="edge"><title>10.1.80.93:8080#ServerID_OuterContainerID&#45;&gt;1_fwatchdog#ServerID_6df85d7674&#45;f2xxt</title>
<path fill="none" stroke="black" d="M395.024,-330.612C465.393,-346.196 585.678,-371.67 690,-388 734.487,-394.964 782.797,-401.114 827.677,-406.239"/>
<polygon fill="black" stroke="black" points="827.468,-409.738 837.798,-407.385 828.255,-402.782 827.468,-409.738"/>
<text text-anchor="middle" x="732" y="-376.8" font-family="Times,serif" font-size="14.00">RESPONSE</text>
</g>
<!-- 10.1.80.1:19904#ServerID_OuterContainerID -->
<g id="node18" class="node"><title>10.1.80.1:19904#ServerID_OuterContainerID</title>
<polygon fill="none" stroke="black" points="335,-226 16.1049,-208 335,-190 653.895,-208 335,-226"/>
<text text-anchor="middle" x="335" y="-204.3" font-family="Times,serif" font-size="14.00">10.1.80.1:19904#ServerID_OuterContainerID</text>
</g>
<!-- 10.1.80.93:8080#ServerID_OuterContainerID&#45;&gt;10.1.80.1:19904#ServerID_OuterContainerID -->
<g id="edge23" class="edge"><title>10.1.80.93:8080#ServerID_OuterContainerID&#45;&gt;10.1.80.1:19904#ServerID_OuterContainerID</title>
<path fill="none" stroke="black" d="M298.241,-299.99C290.168,-294.888 282.649,-288.31 278,-280 267.985,-262.099 282.769,-244.102 299.784,-230.707"/>
<polygon fill="black" stroke="black" points="302.224,-233.258 308.218,-224.522 298.084,-227.614 302.224,-233.258"/>
<text text-anchor="middle" x="320" y="-268.8" font-family="Times,serif" font-size="14.00">RESPONSE</text>
</g>
<!-- 10.0.88.125:31112#ServerID_OuterContainerID -->
<g id="node19" class="node"><title>10.0.88.125:31112#ServerID_OuterContainerID</title>
<polygon fill="none" stroke="black" points="1007,-226 671.515,-208 1007,-190 1342.48,-208 1007,-226"/>
<text text-anchor="middle" x="1007" y="-204.3" font-family="Times,serif" font-size="14.00">10.0.88.125:31112#ServerID_OuterContainerID</text>
</g>
<!-- 10.1.80.93:8080#ServerID_OuterContainerID&#45;&gt;10.0.88.125:31112#ServerID_OuterContainerID -->
<g id="edge24" class="edge"><title>10.1.80.93:8080#ServerID_OuterContainerID&#45;&gt;10.0.88.125:31112#ServerID_OuterContainerID</title>
<path fill="none" stroke="black" d="M414.394,-302.476C540.059,-282.654 784.064,-244.166 916.392,-223.292"/>
<polygon fill="black" stroke="black" points="917.17,-226.713 926.503,-221.698 916.079,-219.798 917.17,-226.713"/>
<text text-anchor="middle" x="693" y="-268.8" font-family="Times,serif" font-size="14.00">RESPONSE</text>
</g>
<!-- 10.1.80.93:41192#ServerID_OuterContainerID -->
<g id="node4" class="node"><title>10.1.80.93:41192#ServerID_OuterContainerID</title>
<polygon fill="none" stroke="black" points="1671,-334 1343.56,-316 1671,-298 1998.44,-316 1671,-334"/>
<text text-anchor="middle" x="1671" y="-312.3" font-family="Times,serif" font-size="14.00">10.1.80.93:41192#ServerID_OuterContainerID</text>
</g>
<!-- 1_fwatchdog#ServerID_5f846fd567&#45;g8dn6 -->
<g id="node5" class="node"><title>1_fwatchdog#ServerID_5f846fd567&#45;g8dn6</title>
<polygon fill="none" stroke="black" points="3644,-226 3320,-226 3320,-190 3644,-190 3644,-226"/>
<text text-anchor="middle" x="3482" y="-204.3" font-family="Times,serif" font-size="14.00">1_fwatchdog#ServerID_5f846fd567&#45;g8dn6</text>
</g>
<!-- 10.1.80.93:41192#ServerID_OuterContainerID&#45;&gt;1_fwatchdog#ServerID_5f846fd567&#45;g8dn6 -->
<g id="edge5" class="edge"><title>10.1.80.93:41192#ServerID_OuterContainerID&#45;&gt;1_fwatchdog#ServerID_5f846fd567&#45;g8dn6</title>
<path fill="none" stroke="black" d="M1826.97,-306.564C1883.65,-303.642 1948.21,-300.481 2007,-298 2440.64,-279.7 2549.16,-277.674 2983,-265 3055.21,-262.89 3236.53,-267.574 3308,-257 3347.08,-251.218 3389.86,-239.492 3423.22,-229.078"/>
<polygon fill="black" stroke="black" points="3424.34,-232.396 3432.82,-226.039 3422.23,-225.722 3424.34,-232.396"/>
<text text-anchor="middle" x="3003" y="-268.8" font-family="Times,serif" font-size="14.00">POST</text>
</g>
<!-- 1_fwatchdog#ServerID_7cf8268e6ab5 -->
<g id="node13" class="node"><title>1_fwatchdog#ServerID_7cf8268e6ab5</title>
<polygon fill="none" stroke="black" points="4711,-226 4417,-226 4417,-190 4711,-190 4711,-226"/>
<text text-anchor="middle" x="4564" y="-204.3" font-family="Times,serif" font-size="14.00">1_fwatchdog#ServerID_7cf8268e6ab5</text>
</g>
<!-- 10.1.80.93:41192#ServerID_OuterContainerID&#45;&gt;1_fwatchdog#ServerID_7cf8268e6ab5 -->
<g id="edge17" class="edge"><title>10.1.80.93:41192#ServerID_OuterContainerID&#45;&gt;1_fwatchdog#ServerID_7cf8268e6ab5</title>
<path fill="none" stroke="black" d="M1821.07,-306.216C1879.13,-303.13 1946.14,-299.949 2007,-298 2600.53,-278.993 2749.55,-301.242 3343,-280 3725.12,-266.323 4173.8,-236.757 4406.33,-220.423"/>
<polygon fill="black" stroke="black" points="4406.83,-223.896 4416.56,-219.703 4406.34,-216.914 4406.83,-223.896"/>
<text text-anchor="middle" x="3695.5" y="-268.8" font-family="Times,serif" font-size="14.00">read</text>
</g>
<!-- 1_fwatchdog#ServerID_5f846fd567&#45;g8dn6&#45;&gt;10.1.80.93:41192#ServerID_OuterContainerID -->
<g id="edge9" class="edge"><title>1_fwatchdog#ServerID_5f846fd567&#45;g8dn6&#45;&gt;10.1.80.93:41192#ServerID_OuterContainerID</title>
<path fill="none" stroke="black" d="M3430.05,-226.101C3395.77,-236.695 3349.66,-249.641 3308,-257 3182.86,-279.106 3149.93,-273.76 3023,-280 2571.92,-302.175 2458.36,-282.587 2007,-298 1950.12,-299.942 1887.87,-302.869 1832.57,-305.749"/>
<polygon fill="black" stroke="black" points="1832.13,-302.267 1822.33,-306.286 1832.5,-309.257 1832.13,-302.267"/>
<text text-anchor="middle" x="3297" y="-268.8" font-family="Times,serif" font-size="14.00">RESPONSE</text>
</g>
<!-- localhost:3000#ServerID_2347d2f455dd -->
<g id="node7" class="node"><title>localhost:3000#ServerID_2347d2f455dd</title>
<polygon fill="none" stroke="black" points="3079,-442 2794.12,-424 3079,-406 3363.88,-424 3079,-442"/>
<text text-anchor="middle" x="3079" y="-420.3" font-family="Times,serif" font-size="14.00">localhost:3000#ServerID_2347d2f455dd</text>
</g>
<!-- 1_fwatchdog#ServerID_2347d2f455dd&#45;&gt;localhost:3000#ServerID_2347d2f455dd -->
<g id="edge6" class="edge"><title>1_fwatchdog#ServerID_2347d2f455dd&#45;&gt;localhost:3000#ServerID_2347d2f455dd</title>
<path fill="none" stroke="black" d="M3282.12,-513.969C3238.46,-494.846 3167.8,-463.895 3122.38,-444.002"/>
<polygon fill="black" stroke="black" points="3123.66,-440.739 3113.09,-439.933 3120.85,-447.151 3123.66,-440.739"/>
<text text-anchor="middle" x="3255" y="-484.8" font-family="Times,serif" font-size="14.00">write</text>
</g>
<!-- gateway:8080#ServerID_OuterContainerID&#45;&gt;1_fwatchdog#ServerID_6df85d7674&#45;f2xxt -->
<g id="edge8" class="edge"><title>gateway:8080#ServerID_OuterContainerID&#45;&gt;1_fwatchdog#ServerID_6df85d7674&#45;f2xxt</title>
<path fill="none" stroke="black" d="M2251.92,-330.022C2188.72,-341.495 2091.88,-357.512 2007,-365 1858.2,-378.126 1820.2,-365.686 1671,-373 1499.75,-381.395 1304.37,-396.53 1168.41,-407.957"/>
<polygon fill="black" stroke="black" points="1167.99,-404.48 1158.32,-408.808 1168.57,-411.455 1167.99,-404.48"/>
<text text-anchor="middle" x="1713" y="-376.8" font-family="Times,serif" font-size="14.00">RESPONSE</text>
</g>
<!-- /etc/hosts#ServerID_2347d2f455dd -->
<g id="node9" class="node"><title>/etc/hosts#ServerID_2347d2f455dd</title>
<ellipse fill="none" stroke="black" cx="2976" cy="-532" rx="178.969" ry="18"/>
<text text-anchor="middle" x="2976" y="-528.3" font-family="Times,serif" font-size="14.00">/etc/hosts#ServerID_2347d2f455dd</text>
</g>
<!-- 13_node#ServerID_2347d2f455dd -->
<g id="node10" class="node"><title>13_node#ServerID_2347d2f455dd</title>
<polygon fill="none" stroke="black" points="2776.5,-442 2511.5,-442 2511.5,-406 2776.5,-406 2776.5,-442"/>
<text text-anchor="middle" x="2644" y="-420.3" font-family="Times,serif" font-size="14.00">13_node#ServerID_2347d2f455dd</text>
</g>
<!-- /etc/hosts#ServerID_2347d2f455dd&#45;&gt;13_node#ServerID_2347d2f455dd -->
<g id="edge11" class="edge"><title>/etc/hosts#ServerID_2347d2f455dd&#45;&gt;13_node#ServerID_2347d2f455dd</title>
<path fill="none" stroke="black" d="M2921.1,-514.856C2882.85,-503.479 2830.69,-487.709 2785,-473 2757.72,-464.216 2727.63,-454.041 2702.28,-445.325"/>
<polygon fill="black" stroke="black" points="2703.4,-442.011 2692.81,-442.062 2701.12,-448.629 2703.4,-442.011"/>
<text text-anchor="middle" x="2875.5" y="-484.8" font-family="Times,serif" font-size="14.00">read</text>
</g>
<!-- 13_node#ServerID_2347d2f455dd&#45;&gt;gateway:8080#ServerID_OuterContainerID -->
<g id="edge15" class="edge"><title>13_node#ServerID_2347d2f455dd&#45;&gt;gateway:8080#ServerID_OuterContainerID</title>
<path fill="none" stroke="black" d="M2591.94,-405.969C2532.13,-386.4 2434.45,-354.444 2373.88,-334.627"/>
<polygon fill="black" stroke="black" points="2374.71,-331.217 2364.12,-331.434 2372.54,-337.87 2374.71,-331.217"/>
<text text-anchor="middle" x="2559" y="-376.8" font-family="Times,serif" font-size="14.00">connect</text>
</g>
<!-- 10.152.183.10:53#ServerID_OuterContainerID -->
<g id="node12" class="node"><title>10.152.183.10:53#ServerID_OuterContainerID</title>
<polygon fill="none" stroke="black" points="2969,-334 2641.56,-316 2969,-298 3296.44,-316 2969,-334"/>
<text text-anchor="middle" x="2969" y="-312.3" font-family="Times,serif" font-size="14.00">10.152.183.10:53#ServerID_OuterContainerID</text>
</g>
<!-- 13_node#ServerID_2347d2f455dd&#45;&gt;10.152.183.10:53#ServerID_OuterContainerID -->
<g id="edge13" class="edge"><title>13_node#ServerID_2347d2f455dd&#45;&gt;10.152.183.10:53#ServerID_OuterContainerID</title>
<path fill="none" stroke="black" d="M2677.57,-405.921C2699.04,-395.455 2727.7,-382.323 2754,-373 2800.11,-356.652 2853.3,-342.758 2895.24,-332.898"/>
<polygon fill="black" stroke="black" points="2896.16,-336.279 2905.11,-330.605 2894.57,-329.461 2896.16,-336.279"/>
<text text-anchor="middle" x="2778.5" y="-376.8" font-family="Times,serif" font-size="14.00">sendto</text>
</g>
<!-- /etc/resolv.conf#ServerID_2347d2f455dd -->
<g id="node11" class="node"><title>/etc/resolv.conf#ServerID_2347d2f455dd</title>
<ellipse fill="none" stroke="black" cx="2575" cy="-532" rx="204.164" ry="18"/>
<text text-anchor="middle" x="2575" y="-528.3" font-family="Times,serif" font-size="14.00">/etc/resolv.conf#ServerID_2347d2f455dd</text>
</g>
<!-- /etc/resolv.conf#ServerID_2347d2f455dd&#45;&gt;13_node#ServerID_2347d2f455dd -->
<g id="edge12" class="edge"><title>/etc/resolv.conf#ServerID_2347d2f455dd&#45;&gt;13_node#ServerID_2347d2f455dd</title>
<path fill="none" stroke="black" d="M2586.09,-513.969C2597.19,-496.917 2614.41,-470.459 2627.19,-450.824"/>
<polygon fill="black" stroke="black" points="2630.19,-452.631 2632.71,-442.341 2624.32,-448.812 2630.19,-452.631"/>
<text text-anchor="middle" x="2624.5" y="-484.8" font-family="Times,serif" font-size="14.00">read</text>
</g>
<!-- 10.152.183.10:53#ServerID_OuterContainerID&#45;&gt;13_node#ServerID_2347d2f455dd -->
<g id="edge14" class="edge"><title>10.152.183.10:53#ServerID_OuterContainerID&#45;&gt;13_node#ServerID_2347d2f455dd</title>
<path fill="none" stroke="black" d="M2937.85,-332.414C2904.98,-348.177 2851.35,-372.489 2803,-388 2784.66,-393.882 2764.83,-399.112 2745.59,-403.62"/>
<polygon fill="black" stroke="black" points="2744.56,-400.266 2735.59,-405.912 2746.12,-407.089 2744.56,-400.266"/>
<text text-anchor="middle" x="2878" y="-376.8" font-family="Times,serif" font-size="14.00">recvfrom</text>
</g>
<!-- localhost:3000#ServerID_7cf8268e6ab5 -->
<g id="node14" class="node"><title>localhost:3000#ServerID_7cf8268e6ab5</title>
<polygon fill="none" stroke="black" points="4893,-139 4609.8,-121 4893,-103 5176.2,-121 4893,-139"/>
<text text-anchor="middle" x="4893" y="-117.3" font-family="Times,serif" font-size="14.00">localhost:3000#ServerID_7cf8268e6ab5</text>
</g>
<!-- 1_fwatchdog#ServerID_7cf8268e6ab5&#45;&gt;localhost:3000#ServerID_7cf8268e6ab5 -->
<g id="edge16" class="edge"><title>1_fwatchdog#ServerID_7cf8268e6ab5&#45;&gt;localhost:3000#ServerID_7cf8268e6ab5</title>
<path fill="none" stroke="black" d="M4630.18,-189.901C4688.42,-174.855 4772.63,-153.099 4829.92,-138.298"/>
<polygon fill="black" stroke="black" points="4831.13,-141.6 4839.94,-135.71 4829.38,-134.822 4831.13,-141.6"/>
<text text-anchor="middle" x="4767" y="-160.8" font-family="Times,serif" font-size="14.00">write</text>
</g>
<!-- pipe:[7845976]#ServerID_7cf8268e6ab5 -->
<g id="node17" class="node"><title>pipe:[7845976]#ServerID_7cf8268e6ab5</title>
<ellipse fill="none" stroke="black" cx="4390" cy="-121" rx="202.264" ry="18"/>
<text text-anchor="middle" x="4390" y="-117.3" font-family="Times,serif" font-size="14.00">pipe:[7845976]#ServerID_7cf8268e6ab5</text>
</g>
<!-- 1_fwatchdog#ServerID_7cf8268e6ab5&#45;&gt;pipe:[7845976]#ServerID_7cf8268e6ab5 -->
<g id="edge21" class="edge"><title>1_fwatchdog#ServerID_7cf8268e6ab5&#45;&gt;pipe:[7845976]#ServerID_7cf8268e6ab5</title>
<path fill="none" stroke="black" d="M4528.79,-189.799C4501.28,-176.361 4462.91,-157.617 4433.48,-143.242"/>
<polygon fill="black" stroke="black" points="4434.79,-139.985 4424.27,-138.741 4431.72,-146.275 4434.79,-139.985"/>
<text text-anchor="middle" x="4506" y="-160.8" font-family="Times,serif" font-size="14.00">write</text>
</g>
<!-- localhost:3000#ServerID_7cf8268e6ab5&#45;&gt;1_fwatchdog#ServerID_7cf8268e6ab5 -->
<g id="edge20" class="edge"><title>localhost:3000#ServerID_7cf8268e6ab5&#45;&gt;1_fwatchdog#ServerID_7cf8268e6ab5</title>
<path fill="none" stroke="black" d="M4866.79,-137.436C4846.5,-148.712 4817.32,-163.465 4790,-172 4768.03,-178.863 4744.42,-184.412 4721.05,-188.891"/>
<polygon fill="black" stroke="black" points="4720.24,-185.481 4711.05,-190.746 4721.52,-192.364 4720.24,-185.481"/>
<text text-anchor="middle" x="4844.5" y="-160.8" font-family="Times,serif" font-size="14.00">read</text>
</g>
<!-- 13_node#ServerID_7cf8268e6ab5 -->
<g id="node15" class="node"><title>13_node#ServerID_7cf8268e6ab5</title>
<polygon fill="none" stroke="black" points="4536.5,-52 4273.5,-52 4273.5,-16 4536.5,-16 4536.5,-52"/>
<text text-anchor="middle" x="4405" y="-30.3" font-family="Times,serif" font-size="14.00">13_node#ServerID_7cf8268e6ab5</text>
</g>
<!-- localhost:3000#ServerID_7cf8268e6ab5&#45;&gt;13_node#ServerID_7cf8268e6ab5 -->
<g id="edge18" class="edge"><title>localhost:3000#ServerID_7cf8268e6ab5&#45;&gt;13_node#ServerID_7cf8268e6ab5</title>
<path fill="none" stroke="black" d="M4821.26,-107.504C4739.97,-93.345 4606.62,-70.1189 4512.8,-53.7774"/>
<polygon fill="black" stroke="black" points="4513.16,-50.2872 4502.71,-52.0192 4511.96,-57.1834 4513.16,-50.2872"/>
<text text-anchor="middle" x="4694.5" y="-73.8" font-family="Times,serif" font-size="14.00">read</text>
</g>
<!-- /home/app/credentials.txt#ServerID_7cf8268e6ab5 -->
<g id="node16" class="node"><title>/home/app/credentials.txt#ServerID_7cf8268e6ab5</title>
<ellipse fill="none" stroke="black" cx="3919" cy="-121" rx="250.756" ry="18"/>
<text text-anchor="middle" x="3919" y="-117.3" font-family="Times,serif" font-size="14.00">/home/app/credentials.txt#ServerID_7cf8268e6ab5</text>
</g>
<!-- /home/app/credentials.txt#ServerID_7cf8268e6ab5&#45;&gt;13_node#ServerID_7cf8268e6ab5 -->
<g id="edge19" class="edge"><title>/home/app/credentials.txt#ServerID_7cf8268e6ab5&#45;&gt;13_node#ServerID_7cf8268e6ab5</title>
<path fill="none" stroke="black" d="M4009.56,-104.162C4091.05,-89.9085 4210.92,-68.9442 4297.3,-53.8361"/>
<polygon fill="black" stroke="black" points="4298.15,-57.2405 4307.4,-52.0699 4296.95,-50.3451 4298.15,-57.2405"/>
<text text-anchor="middle" x="4207.5" y="-73.8" font-family="Times,serif" font-size="14.00">read</text>
</g>
<!-- 10.1.80.1:19904#ServerID_OuterContainerID&#45;&gt;10.1.80.93:8080#ServerID_OuterContainerID -->
<g id="edge22" class="edge"><title>10.1.80.1:19904#ServerID_OuterContainerID&#45;&gt;10.1.80.93:8080#ServerID_OuterContainerID</title>
<path fill="none" stroke="black" d="M349.781,-225.168C360.961,-239.438 373.248,-260.884 366,-280 364.552,-283.819 362.476,-287.488 360.074,-290.92"/>
<polygon fill="black" stroke="black" points="357.178,-288.934 353.607,-298.909 362.619,-293.339 357.178,-288.934"/>
<text text-anchor="middle" x="389" y="-268.8" font-family="Times,serif" font-size="14.00">POST</text>
</g>
</g>
</svg>
