<?xml version="1.0" encoding="UTF-8" standalone="no"?>
<!DOCTYPE svg PUBLIC "-//W3C//DTD SVG 1.1//EN"
 "http://www.w3.org/Graphics/SVG/1.1/DTD/svg11.dtd">
<!-- Generated by graphviz version 2.38.0 (20140413.2041)
 -->
<!-- Title: G Pages: 1 -->
<svg width="4825pt" height="597pt"
 viewBox="0.00 0.00 4825.00 597.00" xmlns="http://www.w3.org/2000/svg" xmlns:xlink="http://www.w3.org/1999/xlink">
<g id="graph0" class="graph" transform="scale(1 1) rotate(0) translate(4 593)">
<title>G</title>
<polygon fill="white" stroke="none" points="-4,4 -4,-593 4821,-593 4821,4 -4,4"/>
<g id="clust1" class="cluster"><title>clusterServerID_1f4f60deee3d</title>
<polygon fill="none" stroke="black" points="8,-8 8,-278 1098,-278 1098,-8 8,-8"/>
<text text-anchor="middle" x="553" y="-262.8" font-family="Times,serif" font-size="14.00">clusterServerID_1f4f60deee3d</text>
</g>
<g id="clust2" class="cluster"><title>clusterServerID_667d78fb58&#45;847xt</title>
<polygon fill="none" stroke="black" points="1278,-311 1278,-386 1618,-386 1618,-311 1278,-311"/>
<text text-anchor="middle" x="1448" y="-370.8" font-family="Times,serif" font-size="14.00">clusterServerID_667d78fb58&#45;847xt</text>
</g>
<g id="clust3" class="cluster"><title>clusterServerID_6dcbcc88d5&#45;mp48t</title>
<polygon fill="none" stroke="black" points="4461,-95 4461,-170 4809,-170 4809,-95 4461,-95"/>
<text text-anchor="middle" x="4635" y="-154.8" font-family="Times,serif" font-size="14.00">clusterServerID_6dcbcc88d5&#45;mp48t</text>
</g>
<g id="clust4" class="cluster"><title>clusterServerID_OuterContainerID</title>
<polygon fill="none" stroke="black" points="1106,-95 1106,-278 4453,-278 4453,-95 1106,-95"/>
<text text-anchor="middle" x="2779.5" y="-262.8" font-family="Times,serif" font-size="14.00">clusterServerID_OuterContainerID</text>
</g>
<g id="clust5" class="cluster"><title>clusterServerID_e47e2b15aff4</title>
<polygon fill="none" stroke="black" points="2095,-311 2095,-581 3456,-581 3456,-311 2095,-311"/>
<text text-anchor="middle" x="2775.5" y="-565.8" font-family="Times,serif" font-size="14.00">clusterServerID_e47e2b15aff4</text>
</g>
<!-- 10.1.80.183:36946#ServerID_OuterContainerID -->
<g id="node1" class="node"><title>10.1.80.183:36946#ServerID_OuterContainerID</title>
<polygon fill="none" stroke="black" points="1449,-247 1113.52,-229 1449,-211 1784.48,-229 1449,-247"/>
<text text-anchor="middle" x="1449" y="-225.3" font-family="Times,serif" font-size="14.00">10.1.80.183:36946#ServerID_OuterContainerID</text>
</g>
<!-- 1_fwatchdog#ServerID_667d78fb58&#45;847xt -->
<g id="node2" class="node"><title>1_fwatchdog#ServerID_667d78fb58&#45;847xt</title>
<polygon fill="none" stroke="black" points="1610,-355 1286,-355 1286,-319 1610,-319 1610,-355"/>
<text text-anchor="middle" x="1448" y="-333.3" font-family="Times,serif" font-size="14.00">1_fwatchdog#ServerID_667d78fb58&#45;847xt</text>
</g>
<!-- 10.1.80.183:36946#ServerID_OuterContainerID&#45;&gt;1_fwatchdog#ServerID_667d78fb58&#45;847xt -->
<g id="edge1" class="edge"><title>10.1.80.183:36946#ServerID_OuterContainerID&#45;&gt;1_fwatchdog#ServerID_667d78fb58&#45;847xt</title>
<path fill="none" stroke="black" d="M1436.81,-246.692C1429.8,-257.353 1421.67,-271.798 1418,-286 1416.33,-292.455 1415.69,-294.747 1418,-301 1419.23,-304.328 1420.94,-307.554 1422.91,-310.612"/>
<polygon fill="black" stroke="black" points="1420.22,-312.86 1429.04,-318.736 1425.81,-308.644 1420.22,-312.86"/>
<text text-anchor="middle" x="1438" y="-289.8" font-family="Times,serif" font-size="14.00">POST</text>
</g>
<!-- 1_fwatchdog#ServerID_1f4f60deee3d -->
<g id="node15" class="node"><title>1_fwatchdog#ServerID_1f4f60deee3d</title>
<polygon fill="none" stroke="black" points="1017,-139 727,-139 727,-103 1017,-103 1017,-139"/>
<text text-anchor="middle" x="872" y="-117.3" font-family="Times,serif" font-size="14.00">1_fwatchdog#ServerID_1f4f60deee3d</text>
</g>
<!-- 10.1.80.183:36946#ServerID_OuterContainerID&#45;&gt;1_fwatchdog#ServerID_1f4f60deee3d -->
<g id="edge19" class="edge"><title>10.1.80.183:36946#ServerID_OuterContainerID&#45;&gt;1_fwatchdog#ServerID_1f4f60deee3d</title>
<path fill="none" stroke="black" d="M1367.51,-215.325C1297.08,-204.146 1192.64,-187.027 1102,-170 1054.86,-161.145 1002.5,-150.297 959.657,-141.156"/>
<polygon fill="black" stroke="black" points="960.337,-137.722 949.826,-139.052 958.873,-144.567 960.337,-137.722"/>
<text text-anchor="middle" x="1242.5" y="-181.8" font-family="Times,serif" font-size="14.00">read</text>
</g>
<!-- 1_fwatchdog#ServerID_667d78fb58&#45;847xt&#45;&gt;10.1.80.183:36946#ServerID_OuterContainerID -->
<g id="edge5" class="edge"><title>1_fwatchdog#ServerID_667d78fb58&#45;847xt&#45;&gt;10.1.80.183:36946#ServerID_OuterContainerID</title>
<path fill="none" stroke="black" d="M1453.96,-318.759C1455.61,-313.165 1457.18,-306.883 1458,-301 1460.04,-286.436 1458.27,-270.162 1455.78,-256.873"/>
<polygon fill="black" stroke="black" points="1459.17,-256.006 1453.68,-246.944 1452.32,-257.452 1459.17,-256.006"/>
<text text-anchor="middle" x="1501" y="-289.8" font-family="Times,serif" font-size="14.00">RESPONSE</text>
</g>
<!-- 10.1.80.183:53024#ServerID_OuterContainerID -->
<g id="node3" class="node"><title>10.1.80.183:53024#ServerID_OuterContainerID</title>
<polygon fill="none" stroke="black" points="3483,-247 3147.52,-229 3483,-211 3818.48,-229 3483,-247"/>
<text text-anchor="middle" x="3483" y="-225.3" font-family="Times,serif" font-size="14.00">10.1.80.183:53024#ServerID_OuterContainerID</text>
</g>
<!-- 1_fwatchdog#ServerID_6dcbcc88d5&#45;mp48t -->
<g id="node4" class="node"><title>1_fwatchdog#ServerID_6dcbcc88d5&#45;mp48t</title>
<polygon fill="none" stroke="black" points="4800.5,-139 4469.5,-139 4469.5,-103 4800.5,-103 4800.5,-139"/>
<text text-anchor="middle" x="4635" y="-117.3" font-family="Times,serif" font-size="14.00">1_fwatchdog#ServerID_6dcbcc88d5&#45;mp48t</text>
</g>
<!-- 10.1.80.183:53024#ServerID_OuterContainerID&#45;&gt;1_fwatchdog#ServerID_6dcbcc88d5&#45;mp48t -->
<g id="edge2" class="edge"><title>10.1.80.183:53024#ServerID_OuterContainerID&#45;&gt;1_fwatchdog#ServerID_6dcbcc88d5&#45;mp48t</title>
<path fill="none" stroke="black" d="M3556.06,-214.869C3627.23,-202.736 3738.65,-185.491 3836,-178 3904.8,-172.706 4388.65,-179.502 4457,-170 4497.11,-164.424 4541.04,-152.637 4575.23,-142.139"/>
<polygon fill="black" stroke="black" points="4576.55,-145.393 4585.06,-139.075 4574.47,-138.711 4576.55,-145.393"/>
<text text-anchor="middle" x="3856" y="-181.8" font-family="Times,serif" font-size="14.00">POST</text>
</g>
<!-- 1_fwatchdog#ServerID_e47e2b15aff4 -->
<g id="node7" class="node"><title>1_fwatchdog#ServerID_e47e2b15aff4</title>
<polygon fill="none" stroke="black" points="2988,-550 2698,-550 2698,-514 2988,-514 2988,-550"/>
<text text-anchor="middle" x="2843" y="-528.3" font-family="Times,serif" font-size="14.00">1_fwatchdog#ServerID_e47e2b15aff4</text>
</g>
<!-- 10.1.80.183:53024#ServerID_OuterContainerID&#45;&gt;1_fwatchdog#ServerID_e47e2b15aff4 -->
<g id="edge10" class="edge"><title>10.1.80.183:53024#ServerID_OuterContainerID&#45;&gt;1_fwatchdog#ServerID_e47e2b15aff4</title>
<path fill="none" stroke="black" d="M3487.34,-247.036C3497.19,-290.09 3516.03,-404.023 3457,-463 3425.06,-494.913 3169.47,-514.265 2998.27,-523.772"/>
<polygon fill="black" stroke="black" points="2997.94,-520.285 2988.15,-524.329 2998.32,-527.275 2997.94,-520.285"/>
<text text-anchor="middle" x="3508.5" y="-397.8" font-family="Times,serif" font-size="14.00">read</text>
</g>
<!-- 1_fwatchdog#ServerID_6dcbcc88d5&#45;mp48t&#45;&gt;10.1.80.183:53024#ServerID_OuterContainerID -->
<g id="edge7" class="edge"><title>1_fwatchdog#ServerID_6dcbcc88d5&#45;mp48t&#45;&gt;10.1.80.183:53024#ServerID_OuterContainerID</title>
<path fill="none" stroke="black" d="M4583.85,-139.035C4548.62,-149.963 4500.5,-163.314 4457,-170 4372.58,-182.976 4350.29,-173.497 4265,-178 4043.67,-189.686 3787.32,-206.749 3630.18,-217.612"/>
<polygon fill="black" stroke="black" points="3629.71,-214.136 3619.97,-218.318 3630.19,-221.119 3629.71,-214.136"/>
<text text-anchor="middle" x="4307" y="-181.8" font-family="Times,serif" font-size="14.00">RESPONSE</text>
</g>
<!-- gateway:8080#ServerID_OuterContainerID -->
<g id="node5" class="node"><title>gateway:8080#ServerID_OuterContainerID</title>
<polygon fill="none" stroke="black" points="4141,-247 3836.52,-229 4141,-211 4445.48,-229 4141,-247"/>
<text text-anchor="middle" x="4141" y="-225.3" font-family="Times,serif" font-size="14.00">gateway:8080#ServerID_OuterContainerID</text>
</g>
<!-- 1_fwatchdog#ServerID_6dcbcc88d5&#45;mp48t&#45;&gt;gateway:8080#ServerID_OuterContainerID -->
<g id="edge3" class="edge"><title>1_fwatchdog#ServerID_6dcbcc88d5&#45;mp48t&#45;&gt;gateway:8080#ServerID_OuterContainerID</title>
<path fill="none" stroke="black" d="M4576.37,-139.107C4541.81,-148.867 4497.12,-160.926 4457,-170 4380.31,-187.347 4292.27,-203.175 4228.63,-213.898"/>
<polygon fill="black" stroke="black" points="4227.91,-210.469 4218.63,-215.575 4229.07,-217.373 4227.91,-210.469"/>
<text text-anchor="middle" x="4434" y="-181.8" font-family="Times,serif" font-size="14.00">POST</text>
</g>
<!-- 10.1.80.183:8080#ServerID_OuterContainerID -->
<g id="node6" class="node"><title>10.1.80.183:8080#ServerID_OuterContainerID</title>
<polygon fill="none" stroke="black" points="2130,-247 1802.56,-229 2130,-211 2457.44,-229 2130,-247"/>
<text text-anchor="middle" x="2130" y="-225.3" font-family="Times,serif" font-size="14.00">10.1.80.183:8080#ServerID_OuterContainerID</text>
</g>
<!-- 1_fwatchdog#ServerID_6dcbcc88d5&#45;mp48t&#45;&gt;10.1.80.183:8080#ServerID_OuterContainerID -->
<g id="edge4" class="edge"><title>1_fwatchdog#ServerID_6dcbcc88d5&#45;mp48t&#45;&gt;10.1.80.183:8080#ServerID_OuterContainerID</title>
<path fill="none" stroke="black" d="M4585.45,-139.041C4550.12,-150.278 4501.24,-163.992 4457,-170 4389.84,-179.121 3304.76,-176.328 3237,-178 2894.12,-186.459 2808.61,-195.001 2466,-211 2411.74,-213.534 2352.55,-216.471 2299.19,-219.183"/>
<polygon fill="black" stroke="black" points="2298.75,-215.7 2288.94,-219.704 2299.11,-222.691 2298.75,-215.7"/>
<text text-anchor="middle" x="3257" y="-181.8" font-family="Times,serif" font-size="14.00">POST</text>
</g>
<!-- gateway:8080#ServerID_OuterContainerID&#45;&gt;1_fwatchdog#ServerID_6dcbcc88d5&#45;mp48t -->
<g id="edge6" class="edge"><title>gateway:8080#ServerID_OuterContainerID&#45;&gt;1_fwatchdog#ServerID_6dcbcc88d5&#45;mp48t</title>
<path fill="none" stroke="black" d="M4290.85,-219.854C4344.18,-214.756 4404.29,-206.469 4458,-193 4504.97,-181.221 4556.04,-159.728 4591.2,-143.464"/>
<polygon fill="black" stroke="black" points="4593.1,-146.438 4600.67,-139.028 4590.13,-140.098 4593.1,-146.438"/>
<text text-anchor="middle" x="4544" y="-181.8" font-family="Times,serif" font-size="14.00">RESPONSE</text>
</g>
<!-- 10.1.80.183:8080#ServerID_OuterContainerID&#45;&gt;1_fwatchdog#ServerID_6dcbcc88d5&#45;mp48t -->
<g id="edge8" class="edge"><title>10.1.80.183:8080#ServerID_OuterContainerID&#45;&gt;1_fwatchdog#ServerID_6dcbcc88d5&#45;mp48t</title>
<path fill="none" stroke="black" d="M2282.59,-219.364C2340.07,-216.351 2406.03,-213.182 2466,-211 2826.29,-197.89 2916.67,-205.088 3277,-193 3425.51,-188.018 3462.46,-182.037 3611,-178 3704.97,-175.446 4363.87,-182.785 4457,-170 4497.26,-164.473 4541.37,-152.621 4575.61,-142.078"/>
<polygon fill="black" stroke="black" points="4576.94,-145.327 4585.44,-139.002 4574.86,-138.646 4576.94,-145.327"/>
<text text-anchor="middle" x="3653" y="-181.8" font-family="Times,serif" font-size="14.00">RESPONSE</text>
</g>
<!-- 10.1.80.1:41482#ServerID_OuterContainerID -->
<g id="node18" class="node"><title>10.1.80.1:41482#ServerID_OuterContainerID</title>
<polygon fill="none" stroke="black" points="2237,-139 1918.1,-121 2237,-103 2555.9,-121 2237,-139"/>
<text text-anchor="middle" x="2237" y="-117.3" font-family="Times,serif" font-size="14.00">10.1.80.1:41482#ServerID_OuterContainerID</text>
</g>
<!-- 10.1.80.183:8080#ServerID_OuterContainerID&#45;&gt;10.1.80.1:41482#ServerID_OuterContainerID -->
<g id="edge24" class="edge"><title>10.1.80.183:8080#ServerID_OuterContainerID&#45;&gt;10.1.80.1:41482#ServerID_OuterContainerID</title>
<path fill="none" stroke="black" d="M2124.35,-211.06C2121.99,-200.774 2121,-187.786 2127,-178 2137.64,-160.652 2155.52,-148.468 2173.8,-140.005"/>
<polygon fill="black" stroke="black" points="2175.26,-143.187 2183.07,-136.027 2172.5,-136.754 2175.26,-143.187"/>
<text text-anchor="middle" x="2169" y="-181.8" font-family="Times,serif" font-size="14.00">RESPONSE</text>
</g>
<!-- 10.0.88.125:31112#ServerID_OuterContainerID -->
<g id="node19" class="node"><title>10.0.88.125:31112#ServerID_OuterContainerID</title>
<polygon fill="none" stroke="black" points="1565,-139 1229.52,-121 1565,-103 1900.48,-121 1565,-139"/>
<text text-anchor="middle" x="1565" y="-117.3" font-family="Times,serif" font-size="14.00">10.0.88.125:31112#ServerID_OuterContainerID</text>
</g>
<!-- 10.1.80.183:8080#ServerID_OuterContainerID&#45;&gt;10.0.88.125:31112#ServerID_OuterContainerID -->
<g id="edge25" class="edge"><title>10.1.80.183:8080#ServerID_OuterContainerID&#45;&gt;10.0.88.125:31112#ServerID_OuterContainerID</title>
<path fill="none" stroke="black" d="M2059.87,-214.843C1954.69,-195.11 1756.63,-157.952 1645.63,-137.127"/>
<polygon fill="black" stroke="black" points="1645.97,-133.629 1635.49,-135.225 1644.68,-140.509 1645.97,-133.629"/>
<text text-anchor="middle" x="1973" y="-181.8" font-family="Times,serif" font-size="14.00">RESPONSE</text>
</g>
<!-- localhost:3000#ServerID_e47e2b15aff4 -->
<g id="node8" class="node"><title>localhost:3000#ServerID_e47e2b15aff4</title>
<polygon fill="none" stroke="black" points="2382,-463 2102.65,-445 2382,-427 2661.35,-445 2382,-463"/>
<text text-anchor="middle" x="2382" y="-441.3" font-family="Times,serif" font-size="14.00">localhost:3000#ServerID_e47e2b15aff4</text>
</g>
<!-- 1_fwatchdog#ServerID_e47e2b15aff4&#45;&gt;localhost:3000#ServerID_e47e2b15aff4 -->
<g id="edge9" class="edge"><title>1_fwatchdog#ServerID_e47e2b15aff4&#45;&gt;localhost:3000#ServerID_e47e2b15aff4</title>
<path fill="none" stroke="black" d="M2750.54,-513.952C2665.47,-498.267 2540.68,-475.258 2460.39,-460.453"/>
<polygon fill="black" stroke="black" points="2460.8,-456.971 2450.33,-458.6 2459.53,-463.855 2460.8,-456.971"/>
<text text-anchor="middle" x="2659" y="-484.8" font-family="Times,serif" font-size="14.00">write</text>
</g>
<!-- 9_node#ServerID_e47e2b15aff4 -->
<g id="node9" class="node"><title>9_node#ServerID_e47e2b15aff4</title>
<polygon fill="none" stroke="black" points="3000,-355 2750,-355 2750,-319 3000,-319 3000,-355"/>
<text text-anchor="middle" x="2875" y="-333.3" font-family="Times,serif" font-size="14.00">9_node#ServerID_e47e2b15aff4</text>
</g>
<!-- localhost:3000#ServerID_e47e2b15aff4&#45;&gt;9_node#ServerID_e47e2b15aff4 -->
<g id="edge11" class="edge"><title>localhost:3000#ServerID_e47e2b15aff4&#45;&gt;9_node#ServerID_e47e2b15aff4</title>
<path fill="none" stroke="black" d="M2442.95,-430.896C2529,-412.394 2686.66,-378.494 2785.87,-357.163"/>
<polygon fill="black" stroke="black" points="2786.84,-360.535 2795.88,-355.011 2785.37,-353.691 2786.84,-360.535"/>
<text text-anchor="middle" x="2629.5" y="-397.8" font-family="Times,serif" font-size="14.00">read</text>
</g>
<!-- 9_node#ServerID_e47e2b15aff4&#45;&gt;gateway:8080#ServerID_OuterContainerID -->
<g id="edge16" class="edge"><title>9_node#ServerID_e47e2b15aff4&#45;&gt;gateway:8080#ServerID_OuterContainerID</title>
<path fill="none" stroke="black" d="M3000.05,-332.003C3182.32,-325.357 3531.45,-309.527 3827,-278 3906.38,-269.533 3996.38,-255.294 4059.62,-244.518"/>
<polygon fill="black" stroke="black" points="4060.27,-247.958 4069.53,-242.819 4059.09,-241.058 4060.27,-247.958"/>
<text text-anchor="middle" x="3753" y="-289.8" font-family="Times,serif" font-size="14.00">connect</text>
</g>
<!-- 10.152.183.10:53#ServerID_OuterContainerID -->
<g id="node12" class="node"><title>10.152.183.10:53#ServerID_OuterContainerID</title>
<polygon fill="none" stroke="black" points="2802,-247 2474.56,-229 2802,-211 3129.44,-229 2802,-247"/>
<text text-anchor="middle" x="2802" y="-225.3" font-family="Times,serif" font-size="14.00">10.152.183.10:53#ServerID_OuterContainerID</text>
</g>
<!-- 9_node#ServerID_e47e2b15aff4&#45;&gt;10.152.183.10:53#ServerID_OuterContainerID -->
<g id="edge14" class="edge"><title>9_node#ServerID_e47e2b15aff4&#45;&gt;10.152.183.10:53#ServerID_OuterContainerID</title>
<path fill="none" stroke="black" d="M2821.94,-318.916C2814.44,-314.262 2807.7,-308.39 2803,-301 2794.83,-288.15 2794.31,-271.171 2795.96,-257.04"/>
<polygon fill="black" stroke="black" points="2799.46,-257.326 2797.56,-246.904 2792.55,-256.239 2799.46,-257.326"/>
<text text-anchor="middle" x="2827.5" y="-289.8" font-family="Times,serif" font-size="14.00">sendto</text>
</g>
<!-- /etc/hosts#ServerID_e47e2b15aff4 -->
<g id="node10" class="node"><title>/etc/hosts#ServerID_e47e2b15aff4</title>
<ellipse fill="none" stroke="black" cx="3273" cy="-445" rx="174.669" ry="18"/>
<text text-anchor="middle" x="3273" y="-441.3" font-family="Times,serif" font-size="14.00">/etc/hosts#ServerID_e47e2b15aff4</text>
</g>
<!-- /etc/hosts#ServerID_e47e2b15aff4&#45;&gt;9_node#ServerID_e47e2b15aff4 -->
<g id="edge12" class="edge"><title>/etc/hosts#ServerID_e47e2b15aff4&#45;&gt;9_node#ServerID_e47e2b15aff4</title>
<path fill="none" stroke="black" d="M3212.98,-428.016C3142.43,-409.224 3025.31,-378.033 2949.14,-357.746"/>
<polygon fill="black" stroke="black" points="2949.7,-354.273 2939.14,-355.082 2947.9,-361.038 2949.7,-354.273"/>
<text text-anchor="middle" x="3148.5" y="-397.8" font-family="Times,serif" font-size="14.00">read</text>
</g>
<!-- /etc/resolv.conf#ServerID_e47e2b15aff4 -->
<g id="node11" class="node"><title>/etc/resolv.conf#ServerID_e47e2b15aff4</title>
<ellipse fill="none" stroke="black" cx="2880" cy="-445" rx="200.365" ry="18"/>
<text text-anchor="middle" x="2880" y="-441.3" font-family="Times,serif" font-size="14.00">/etc/resolv.conf#ServerID_e47e2b15aff4</text>
</g>
<!-- /etc/resolv.conf#ServerID_e47e2b15aff4&#45;&gt;9_node#ServerID_e47e2b15aff4 -->
<g id="edge13" class="edge"><title>/etc/resolv.conf#ServerID_e47e2b15aff4&#45;&gt;9_node#ServerID_e47e2b15aff4</title>
<path fill="none" stroke="black" d="M2879.2,-426.969C2878.41,-410.378 2877.21,-384.883 2876.29,-365.431"/>
<polygon fill="black" stroke="black" points="2879.79,-365.165 2875.82,-355.341 2872.79,-365.494 2879.79,-365.165"/>
<text text-anchor="middle" x="2894.5" y="-397.8" font-family="Times,serif" font-size="14.00">read</text>
</g>
<!-- 10.152.183.10:53#ServerID_OuterContainerID&#45;&gt;9_node#ServerID_e47e2b15aff4 -->
<g id="edge15" class="edge"><title>10.152.183.10:53#ServerID_OuterContainerID&#45;&gt;9_node#ServerID_e47e2b15aff4</title>
<path fill="none" stroke="black" d="M2819.19,-246.559C2829.57,-257.17 2842.57,-271.609 2852,-286 2856.71,-293.193 2860.95,-301.508 2864.47,-309.268"/>
<polygon fill="black" stroke="black" points="2861.36,-310.874 2868.53,-318.673 2867.78,-308.104 2861.36,-310.874"/>
<text text-anchor="middle" x="2893" y="-289.8" font-family="Times,serif" font-size="14.00">recvfrom</text>
</g>
<!-- localhost:3000#ServerID_1f4f60deee3d -->
<g id="node13" class="node"><title>localhost:3000#ServerID_1f4f60deee3d</title>
<polygon fill="none" stroke="black" points="811,-247 531.652,-229 811,-211 1090.35,-229 811,-247"/>
<text text-anchor="middle" x="811" y="-225.3" font-family="Times,serif" font-size="14.00">localhost:3000#ServerID_1f4f60deee3d</text>
</g>
<!-- 10_node#ServerID_1f4f60deee3d -->
<g id="node14" class="node"><title>10_node#ServerID_1f4f60deee3d</title>
<polygon fill="none" stroke="black" points="630.5,-139 371.5,-139 371.5,-103 630.5,-103 630.5,-139"/>
<text text-anchor="middle" x="501" y="-117.3" font-family="Times,serif" font-size="14.00">10_node#ServerID_1f4f60deee3d</text>
</g>
<!-- localhost:3000#ServerID_1f4f60deee3d&#45;&gt;10_node#ServerID_1f4f60deee3d -->
<g id="edge17" class="edge"><title>localhost:3000#ServerID_1f4f60deee3d&#45;&gt;10_node#ServerID_1f4f60deee3d</title>
<path fill="none" stroke="black" d="M768.869,-213.594C714.97,-195.164 621.302,-163.135 560.238,-142.255"/>
<polygon fill="black" stroke="black" points="561.323,-138.928 550.728,-139.004 559.058,-145.551 561.323,-138.928"/>
<text text-anchor="middle" x="718.5" y="-181.8" font-family="Times,serif" font-size="14.00">read</text>
</g>
<!-- localhost:3000#ServerID_1f4f60deee3d&#45;&gt;1_fwatchdog#ServerID_1f4f60deee3d -->
<g id="edge21" class="edge"><title>localhost:3000#ServerID_1f4f60deee3d&#45;&gt;1_fwatchdog#ServerID_1f4f60deee3d</title>
<path fill="none" stroke="black" d="M832.543,-212.341C838.902,-206.831 845.386,-200.2 850,-193 858.489,-179.753 863.883,-163.02 867.203,-149.126"/>
<polygon fill="black" stroke="black" points="870.666,-149.672 869.355,-139.159 863.824,-148.195 870.666,-149.672"/>
<text text-anchor="middle" x="874.5" y="-181.8" font-family="Times,serif" font-size="14.00">read</text>
</g>
<!-- 1_fwatchdog#ServerID_1f4f60deee3d&#45;&gt;localhost:3000#ServerID_1f4f60deee3d -->
<g id="edge18" class="edge"><title>1_fwatchdog#ServerID_1f4f60deee3d&#45;&gt;localhost:3000#ServerID_1f4f60deee3d</title>
<path fill="none" stroke="black" d="M845.406,-139.161C832.818,-148.885 819.029,-162.257 812,-178 808.836,-185.086 807.76,-193.318 807.699,-201.033"/>
<polygon fill="black" stroke="black" points="804.204,-201.241 808.144,-211.076 811.197,-200.931 804.204,-201.241"/>
<text text-anchor="middle" x="831" y="-181.8" font-family="Times,serif" font-size="14.00">write</text>
</g>
<!-- pipe:[77303348]#ServerID_1f4f60deee3d -->
<g id="node17" class="node"><title>pipe:[77303348]#ServerID_1f4f60deee3d</title>
<ellipse fill="none" stroke="black" cx="872" cy="-34" rx="206.063" ry="18"/>
<text text-anchor="middle" x="872" y="-30.3" font-family="Times,serif" font-size="14.00">pipe:[77303348]#ServerID_1f4f60deee3d</text>
</g>
<!-- 1_fwatchdog#ServerID_1f4f60deee3d&#45;&gt;pipe:[77303348]#ServerID_1f4f60deee3d -->
<g id="edge22" class="edge"><title>1_fwatchdog#ServerID_1f4f60deee3d&#45;&gt;pipe:[77303348]#ServerID_1f4f60deee3d</title>
<path fill="none" stroke="black" d="M872,-102.799C872,-91.1626 872,-75.5479 872,-62.2368"/>
<polygon fill="black" stroke="black" points="875.5,-62.1754 872,-52.1754 868.5,-62.1755 875.5,-62.1754"/>
<text text-anchor="middle" x="891" y="-73.8" font-family="Times,serif" font-size="14.00">write</text>
</g>
<!-- /home/app/credentials.txt#ServerID_1f4f60deee3d -->
<g id="node16" class="node"><title>/home/app/credentials.txt#ServerID_1f4f60deee3d</title>
<ellipse fill="none" stroke="black" cx="265" cy="-229" rx="248.856" ry="18"/>
<text text-anchor="middle" x="265" y="-225.3" font-family="Times,serif" font-size="14.00">/home/app/credentials.txt#ServerID_1f4f60deee3d</text>
</g>
<!-- /home/app/credentials.txt#ServerID_1f4f60deee3d&#45;&gt;10_node#ServerID_1f4f60deee3d -->
<g id="edge20" class="edge"><title>/home/app/credentials.txt#ServerID_1f4f60deee3d&#45;&gt;10_node#ServerID_1f4f60deee3d</title>
<path fill="none" stroke="black" d="M302.395,-211.204C343.408,-192.783 409.307,-163.184 453.837,-143.183"/>
<polygon fill="black" stroke="black" points="455.311,-146.358 462.999,-139.068 452.442,-139.973 455.311,-146.358"/>
<text text-anchor="middle" x="392.5" y="-181.8" font-family="Times,serif" font-size="14.00">read</text>
</g>
<!-- 10.1.80.1:41482#ServerID_OuterContainerID&#45;&gt;10.1.80.183:8080#ServerID_OuterContainerID -->
<g id="edge23" class="edge"><title>10.1.80.1:41482#ServerID_OuterContainerID&#45;&gt;10.1.80.183:8080#ServerID_OuterContainerID</title>
<path fill="none" stroke="black" d="M2235.77,-139.234C2233.78,-155.024 2228.58,-178.138 2215,-193 2208.98,-199.591 2201.53,-204.973 2193.56,-209.36"/>
<polygon fill="black" stroke="black" points="2191.8,-206.324 2184.4,-213.9 2194.91,-212.597 2191.8,-206.324"/>
<text text-anchor="middle" x="2244" y="-181.8" font-family="Times,serif" font-size="14.00">POST</text>
</g>
</g>
</svg>
