<?xml version="1.0" encoding="UTF-8" standalone="no"?>
<!DOCTYPE svg PUBLIC "-//W3C//DTD SVG 1.1//EN"
 "http://www.w3.org/Graphics/SVG/1.1/DTD/svg11.dtd">
<!-- Generated by graphviz version 2.38.0 (20140413.2041)
 -->
<!-- Title: G Pages: 1 -->
<svg width="4485pt" height="945pt"
 viewBox="0.00 0.00 4485.00 945.00" xmlns="http://www.w3.org/2000/svg" xmlns:xlink="http://www.w3.org/1999/xlink">
<g id="graph0" class="graph" transform="scale(1 1) rotate(0) translate(4 941)">
<title>G</title>
<polygon fill="white" stroke="none" points="-4,4 -4,-941 4481,-941 4481,4 -4,4"/>
<g id="clust1" class="cluster"><title>clusterServerID_3113a7a2a86a</title>
<polygon fill="none" stroke="black" points="1500,-746 1500,-929 2615,-929 2615,-746 1500,-746"/>
<text text-anchor="middle" x="2057.5" y="-913.8" font-family="Times,serif" font-size="14.00">clusterServerID_3113a7a2a86a</text>
</g>
<g id="clust2" class="cluster"><title>clusterServerID_5f846fd567&#45;srhtc</title>
<polygon fill="none" stroke="black" points="2845,-746 2845,-821 3179,-821 3179,-746 2845,-746"/>
<text text-anchor="middle" x="3012" y="-805.8" font-family="Times,serif" font-size="14.00">clusterServerID_5f846fd567&#45;srhtc</text>
</g>
<g id="clust3" class="cluster"><title>clusterServerID_6df85d7674&#45;grtsk</title>
<polygon fill="none" stroke="black" points="854,-746 854,-821 1192,-821 1192,-746 854,-746"/>
<text text-anchor="middle" x="1023" y="-805.8" font-family="Times,serif" font-size="14.00">clusterServerID_6df85d7674&#45;grtsk</text>
</g>
<g id="clust4" class="cluster"><title>clusterServerID_9c632c9c841a</title>
<polygon fill="none" stroke="black" points="3363,-8 3363,-605 4469,-605 4469,-8 3363,-8"/>
<text text-anchor="middle" x="3916" y="-589.8" font-family="Times,serif" font-size="14.00">clusterServerID_9c632c9c841a</text>
</g>
<g id="clust5" class="cluster"><title>clusterServerID_OuterContainerID</title>
<polygon fill="none" stroke="black" points="8,-530 8,-713 3355,-713 3355,-530 8,-530"/>
<text text-anchor="middle" x="1681.5" y="-697.8" font-family="Times,serif" font-size="14.00">clusterServerID_OuterContainerID</text>
</g>
<!-- 1_fwatchdog#ServerID_6df85d7674&#45;grtsk -->
<g id="node1" class="node"><title>1_fwatchdog#ServerID_6df85d7674&#45;grtsk</title>
<polygon fill="none" stroke="black" points="1183.5,-790 862.5,-790 862.5,-754 1183.5,-754 1183.5,-790"/>
<text text-anchor="middle" x="1023" y="-768.3" font-family="Times,serif" font-size="14.00">1_fwatchdog#ServerID_6df85d7674&#45;grtsk</text>
</g>
<!-- 10.1.80.247:45390#ServerID_OuterContainerID -->
<g id="node2" class="node"><title>10.1.80.247:45390#ServerID_OuterContainerID</title>
<polygon fill="none" stroke="black" points="1024,-682 688.515,-664 1024,-646 1359.48,-664 1024,-682"/>
<text text-anchor="middle" x="1024" y="-660.3" font-family="Times,serif" font-size="14.00">10.1.80.247:45390#ServerID_OuterContainerID</text>
</g>
<!-- 1_fwatchdog#ServerID_6df85d7674&#45;grtsk&#45;&gt;10.1.80.247:45390#ServerID_OuterContainerID -->
<g id="edge1" class="edge"><title>1_fwatchdog#ServerID_6df85d7674&#45;grtsk&#45;&gt;10.1.80.247:45390#ServerID_OuterContainerID</title>
<path fill="none" stroke="black" d="M987.261,-753.861C980.725,-749.032 974.784,-743.108 971,-736 967.867,-730.115 968.534,-727.194 971,-721 976.002,-708.439 985.306,-697.073 994.74,-687.914"/>
<polygon fill="black" stroke="black" points="997.224,-690.386 1002.25,-681.061 992.507,-685.214 997.224,-690.386"/>
<text text-anchor="middle" x="1013" y="-724.8" font-family="Times,serif" font-size="14.00">RESPONSE</text>
</g>
<!-- 10.1.80.247:8080#ServerID_OuterContainerID -->
<g id="node5" class="node"><title>10.1.80.247:8080#ServerID_OuterContainerID</title>
<polygon fill="none" stroke="black" points="343,-682 15.5599,-664 343,-646 670.44,-664 343,-682"/>
<text text-anchor="middle" x="343" y="-660.3" font-family="Times,serif" font-size="14.00">10.1.80.247:8080#ServerID_OuterContainerID</text>
</g>
<!-- 1_fwatchdog#ServerID_6df85d7674&#45;grtsk&#45;&gt;10.1.80.247:8080#ServerID_OuterContainerID -->
<g id="edge7" class="edge"><title>1_fwatchdog#ServerID_6df85d7674&#45;grtsk&#45;&gt;10.1.80.247:8080#ServerID_OuterContainerID</title>
<path fill="none" stroke="black" d="M862.077,-759.807C798.858,-754.282 725.805,-746.5 660,-736 571.186,-721.828 470.014,-697.762 406.343,-681.627"/>
<polygon fill="black" stroke="black" points="407.008,-678.185 396.453,-679.109 405.28,-684.969 407.008,-678.185"/>
<text text-anchor="middle" x="680" y="-724.8" font-family="Times,serif" font-size="14.00">POST</text>
</g>
<!-- gateway:8080#ServerID_OuterContainerID -->
<g id="node6" class="node"><title>gateway:8080#ServerID_OuterContainerID</title>
<polygon fill="none" stroke="black" points="1682,-682 1377.52,-664 1682,-646 1986.48,-664 1682,-682"/>
<text text-anchor="middle" x="1682" y="-660.3" font-family="Times,serif" font-size="14.00">gateway:8080#ServerID_OuterContainerID</text>
</g>
<!-- 1_fwatchdog#ServerID_6df85d7674&#45;grtsk&#45;&gt;gateway:8080#ServerID_OuterContainerID -->
<g id="edge5" class="edge"><title>1_fwatchdog#ServerID_6df85d7674&#45;grtsk&#45;&gt;gateway:8080#ServerID_OuterContainerID</title>
<path fill="none" stroke="black" d="M1128.88,-753.969C1258.05,-733.192 1474.03,-698.452 1594.32,-679.103"/>
<polygon fill="black" stroke="black" points="1594.92,-682.552 1604.24,-677.508 1593.81,-675.641 1594.92,-682.552"/>
<text text-anchor="middle" x="1353" y="-724.8" font-family="Times,serif" font-size="14.00">POST</text>
</g>
<!-- 10.1.80.247:45390#ServerID_OuterContainerID&#45;&gt;1_fwatchdog#ServerID_6df85d7674&#45;grtsk -->
<g id="edge3" class="edge"><title>10.1.80.247:45390#ServerID_OuterContainerID&#45;&gt;1_fwatchdog#ServerID_6df85d7674&#45;grtsk</title>
<path fill="none" stroke="black" d="M1039.08,-681.48C1050.24,-695.767 1062.35,-717.067 1055,-736 1053.64,-739.507 1051.74,-742.876 1049.55,-746.046"/>
<polygon fill="black" stroke="black" points="1046.75,-743.944 1043.2,-753.928 1052.2,-748.335 1046.75,-743.944"/>
<text text-anchor="middle" x="1078" y="-724.8" font-family="Times,serif" font-size="14.00">POST</text>
</g>
<!-- 1_fwatchdog#ServerID_3113a7a2a86a -->
<g id="node7" class="node"><title>1_fwatchdog#ServerID_3113a7a2a86a</title>
<polygon fill="none" stroke="black" points="2606.5,-898 2309.5,-898 2309.5,-862 2606.5,-862 2606.5,-898"/>
<text text-anchor="middle" x="2458" y="-876.3" font-family="Times,serif" font-size="14.00">1_fwatchdog#ServerID_3113a7a2a86a</text>
</g>
<!-- 10.1.80.247:45390#ServerID_OuterContainerID&#45;&gt;1_fwatchdog#ServerID_3113a7a2a86a -->
<g id="edge12" class="edge"><title>10.1.80.247:45390#ServerID_OuterContainerID&#45;&gt;1_fwatchdog#ServerID_3113a7a2a86a</title>
<path fill="none" stroke="black" d="M1097.74,-678.056C1167.39,-689.723 1274.92,-706.021 1369,-713 1548.96,-726.35 2000.65,-714.909 2181,-721 2229.16,-722.627 2580.92,-710.955 2614,-746 2636.88,-770.24 2633.03,-793.629 2614,-821 2602.5,-837.542 2585.7,-849.376 2567.33,-857.839"/>
<polygon fill="black" stroke="black" points="2565.73,-854.713 2557.9,-861.846 2568.47,-861.155 2565.73,-854.713"/>
<text text-anchor="middle" x="2646.5" y="-768.3" font-family="Times,serif" font-size="14.00">read</text>
</g>
<!-- 1_fwatchdog#ServerID_5f846fd567&#45;srhtc -->
<g id="node3" class="node"><title>1_fwatchdog#ServerID_5f846fd567&#45;srhtc</title>
<polygon fill="none" stroke="black" points="3170.5,-790 2853.5,-790 2853.5,-754 3170.5,-754 3170.5,-790"/>
<text text-anchor="middle" x="3012" y="-768.3" font-family="Times,serif" font-size="14.00">1_fwatchdog#ServerID_5f846fd567&#45;srhtc</text>
</g>
<!-- 10.1.80.247:39920#ServerID_OuterContainerID -->
<g id="node4" class="node"><title>10.1.80.247:39920#ServerID_OuterContainerID</title>
<polygon fill="none" stroke="black" points="3012,-682 2676.52,-664 3012,-646 3347.48,-664 3012,-682"/>
<text text-anchor="middle" x="3012" y="-660.3" font-family="Times,serif" font-size="14.00">10.1.80.247:39920#ServerID_OuterContainerID</text>
</g>
<!-- 1_fwatchdog#ServerID_5f846fd567&#45;srhtc&#45;&gt;10.1.80.247:39920#ServerID_OuterContainerID -->
<g id="edge2" class="edge"><title>1_fwatchdog#ServerID_5f846fd567&#45;srhtc&#45;&gt;10.1.80.247:39920#ServerID_OuterContainerID</title>
<path fill="none" stroke="black" d="M2975.59,-753.979C2968.93,-749.142 2962.87,-743.186 2959,-736 2955.84,-730.129 2956.53,-727.194 2959,-721 2964,-708.439 2973.31,-697.073 2982.74,-687.914"/>
<polygon fill="black" stroke="black" points="2985.22,-690.386 2990.25,-681.061 2980.51,-685.214 2985.22,-690.386"/>
<text text-anchor="middle" x="3001" y="-724.8" font-family="Times,serif" font-size="14.00">RESPONSE</text>
</g>
<!-- 10.1.80.247:39920#ServerID_OuterContainerID&#45;&gt;1_fwatchdog#ServerID_5f846fd567&#45;srhtc -->
<g id="edge8" class="edge"><title>10.1.80.247:39920#ServerID_OuterContainerID&#45;&gt;1_fwatchdog#ServerID_5f846fd567&#45;srhtc</title>
<path fill="none" stroke="black" d="M3027,-681.451C3038.12,-695.72 3050.2,-717.01 3043,-736 3041.72,-739.366 3039.96,-742.615 3037.91,-745.689"/>
<polygon fill="black" stroke="black" points="3034.96,-743.789 3031.58,-753.831 3040.48,-748.087 3034.96,-743.789"/>
<text text-anchor="middle" x="3066" y="-724.8" font-family="Times,serif" font-size="14.00">POST</text>
</g>
<!-- 1_fwatchdog#ServerID_9c632c9c841a -->
<g id="node13" class="node"><title>1_fwatchdog#ServerID_9c632c9c841a</title>
<polygon fill="none" stroke="black" points="3839.5,-574 3542.5,-574 3542.5,-538 3839.5,-538 3839.5,-574"/>
<text text-anchor="middle" x="3691" y="-552.3" font-family="Times,serif" font-size="14.00">1_fwatchdog#ServerID_9c632c9c841a</text>
</g>
<!-- 10.1.80.247:39920#ServerID_OuterContainerID&#45;&gt;1_fwatchdog#ServerID_9c632c9c841a -->
<g id="edge17" class="edge"><title>10.1.80.247:39920#ServerID_OuterContainerID&#45;&gt;1_fwatchdog#ServerID_9c632c9c841a</title>
<path fill="none" stroke="black" d="M3093.23,-650.319C3212.14,-631.756 3434.34,-597.067 3571.78,-575.611"/>
<polygon fill="black" stroke="black" points="3572.6,-579.026 3581.94,-574.026 3571.52,-572.11 3572.6,-579.026"/>
<text text-anchor="middle" x="3348.5" y="-616.8" font-family="Times,serif" font-size="14.00">read</text>
</g>
<!-- 10.1.80.247:8080#ServerID_OuterContainerID&#45;&gt;1_fwatchdog#ServerID_6df85d7674&#45;grtsk -->
<g id="edge4" class="edge"><title>10.1.80.247:8080#ServerID_OuterContainerID&#45;&gt;1_fwatchdog#ServerID_6df85d7674&#45;grtsk</title>
<path fill="none" stroke="black" d="M423.741,-677.586C542.658,-696.123 765.675,-730.888 903.558,-752.381"/>
<polygon fill="black" stroke="black" points="903.326,-755.887 913.746,-753.969 904.405,-748.971 903.326,-755.887"/>
<text text-anchor="middle" x="826" y="-724.8" font-family="Times,serif" font-size="14.00">RESPONSE</text>
</g>
<!-- 10.1.80.1:20575#ServerID_OuterContainerID -->
<g id="node24" class="node"><title>10.1.80.1:20575#ServerID_OuterContainerID</title>
<polygon fill="none" stroke="black" points="1023,-574 704.105,-556 1023,-538 1341.9,-556 1023,-574"/>
<text text-anchor="middle" x="1023" y="-552.3" font-family="Times,serif" font-size="14.00">10.1.80.1:20575#ServerID_OuterContainerID</text>
</g>
<!-- 10.1.80.247:8080#ServerID_OuterContainerID&#45;&gt;10.1.80.1:20575#ServerID_OuterContainerID -->
<g id="edge34" class="edge"><title>10.1.80.247:8080#ServerID_OuterContainerID&#45;&gt;10.1.80.1:20575#ServerID_OuterContainerID</title>
<path fill="none" stroke="black" d="M395.522,-648.818C440.646,-637.228 507.627,-621.428 567,-613 623.434,-604.989 638.307,-610.91 695,-605 777.894,-596.359 871.964,-582.134 938.04,-571.408"/>
<polygon fill="black" stroke="black" points="938.684,-574.849 947.99,-569.785 937.557,-567.941 938.684,-574.849"/>
<text text-anchor="middle" x="609" y="-616.8" font-family="Times,serif" font-size="14.00">RESPONSE</text>
</g>
<!-- 10.0.88.125:31112#ServerID_OuterContainerID -->
<g id="node25" class="node"><title>10.0.88.125:31112#ServerID_OuterContainerID</title>
<polygon fill="none" stroke="black" points="351,-574 15.5152,-556 351,-538 686.485,-556 351,-574"/>
<text text-anchor="middle" x="351" y="-552.3" font-family="Times,serif" font-size="14.00">10.0.88.125:31112#ServerID_OuterContainerID</text>
</g>
<!-- 10.1.80.247:8080#ServerID_OuterContainerID&#45;&gt;10.0.88.125:31112#ServerID_OuterContainerID -->
<g id="edge35" class="edge"><title>10.1.80.247:8080#ServerID_OuterContainerID&#45;&gt;10.0.88.125:31112#ServerID_OuterContainerID</title>
<path fill="none" stroke="black" d="M344.285,-645.969C345.545,-629.279 347.485,-603.579 348.956,-584.084"/>
<polygon fill="black" stroke="black" points="352.455,-584.224 349.718,-573.988 345.475,-583.697 352.455,-584.224"/>
<text text-anchor="middle" x="389" y="-616.8" font-family="Times,serif" font-size="14.00">RESPONSE</text>
</g>
<!-- gateway:8080#ServerID_OuterContainerID&#45;&gt;1_fwatchdog#ServerID_6df85d7674&#45;grtsk -->
<g id="edge6" class="edge"><title>gateway:8080#ServerID_OuterContainerID&#45;&gt;1_fwatchdog#ServerID_6df85d7674&#45;grtsk</title>
<path fill="none" stroke="black" d="M1630.87,-679.055C1570.61,-695.116 1467.25,-721.099 1377,-736 1317.53,-745.819 1251.95,-753.239 1193.56,-758.661"/>
<polygon fill="black" stroke="black" points="1193.14,-755.185 1183.5,-759.582 1193.78,-762.156 1193.14,-755.185"/>
<text text-anchor="middle" x="1495" y="-724.8" font-family="Times,serif" font-size="14.00">RESPONSE</text>
</g>
<!-- localhost:3000#ServerID_3113a7a2a86a -->
<g id="node8" class="node"><title>localhost:3000#ServerID_3113a7a2a86a</title>
<polygon fill="none" stroke="black" points="2319,-790 2033.28,-772 2319,-754 2604.72,-772 2319,-790"/>
<text text-anchor="middle" x="2319" y="-768.3" font-family="Times,serif" font-size="14.00">localhost:3000#ServerID_3113a7a2a86a</text>
</g>
<!-- 1_fwatchdog#ServerID_3113a7a2a86a&#45;&gt;localhost:3000#ServerID_3113a7a2a86a -->
<g id="edge9" class="edge"><title>1_fwatchdog#ServerID_3113a7a2a86a&#45;&gt;localhost:3000#ServerID_3113a7a2a86a</title>
<path fill="none" stroke="black" d="M2355.37,-861.996C2338.47,-857.169 2324.62,-851.213 2319,-844 2309.43,-831.717 2309.3,-814.266 2311.63,-799.739"/>
<polygon fill="black" stroke="black" points="2315.09,-800.292 2313.66,-789.794 2308.23,-798.892 2315.09,-800.292"/>
<text text-anchor="middle" x="2348" y="-832.8" font-family="Times,serif" font-size="14.00">connect</text>
</g>
<!-- 1_fwatchdog#ServerID_3113a7a2a86a&#45;&gt;localhost:3000#ServerID_3113a7a2a86a -->
<g id="edge11" class="edge"><title>1_fwatchdog#ServerID_3113a7a2a86a&#45;&gt;localhost:3000#ServerID_3113a7a2a86a</title>
<path fill="none" stroke="black" d="M2424.3,-861.837C2414.87,-856.54 2404.79,-850.403 2396,-844 2385.2,-836.133 2361.41,-813.89 2343.11,-796.375"/>
<polygon fill="black" stroke="black" points="2345.3,-793.62 2335.66,-789.214 2340.45,-798.667 2345.3,-793.62"/>
<text text-anchor="middle" x="2415" y="-832.8" font-family="Times,serif" font-size="14.00">write</text>
</g>
<!-- localhost:3000#ServerID_3113a7a2a86a&#45;&gt;1_fwatchdog#ServerID_3113a7a2a86a -->
<g id="edge10" class="edge"><title>localhost:3000#ServerID_3113a7a2a86a&#45;&gt;1_fwatchdog#ServerID_3113a7a2a86a</title>
<path fill="none" stroke="black" d="M2368.75,-786.959C2392.34,-795.735 2419.37,-809.226 2438,-829 2444.11,-835.482 2448.44,-844.064 2451.47,-852.285"/>
<polygon fill="black" stroke="black" points="2448.19,-853.503 2454.56,-861.969 2454.86,-851.378 2448.19,-853.503"/>
<text text-anchor="middle" x="2464.5" y="-832.8" font-family="Times,serif" font-size="14.00">read</text>
</g>
<!-- 10.152.183.10:53#ServerID_OuterContainerID -->
<g id="node9" class="node"><title>10.152.183.10:53#ServerID_OuterContainerID</title>
<polygon fill="none" stroke="black" points="2331,-682 2003.56,-664 2331,-646 2658.44,-664 2331,-682"/>
<text text-anchor="middle" x="2331" y="-660.3" font-family="Times,serif" font-size="14.00">10.152.183.10:53#ServerID_OuterContainerID</text>
</g>
<!-- 12_node#ServerID_3113a7a2a86a -->
<g id="node10" class="node"><title>12_node#ServerID_3113a7a2a86a</title>
<polygon fill="none" stroke="black" points="2015,-790 1749,-790 1749,-754 2015,-754 2015,-790"/>
<text text-anchor="middle" x="1882" y="-768.3" font-family="Times,serif" font-size="14.00">12_node#ServerID_3113a7a2a86a</text>
</g>
<!-- 10.152.183.10:53#ServerID_OuterContainerID&#45;&gt;12_node#ServerID_3113a7a2a86a -->
<g id="edge13" class="edge"><title>10.152.183.10:53#ServerID_OuterContainerID&#45;&gt;12_node#ServerID_3113a7a2a86a</title>
<path fill="none" stroke="black" d="M2229.9,-676.487C2164.63,-685.325 2078.33,-699.684 2004,-721 1977.82,-728.509 1949.61,-739.841 1926.93,-749.819"/>
<polygon fill="black" stroke="black" points="1925.27,-746.726 1917.56,-753.998 1928.12,-753.119 1925.27,-746.726"/>
<text text-anchor="middle" x="2037" y="-724.8" font-family="Times,serif" font-size="14.00">recvfrom</text>
</g>
<!-- 12_node#ServerID_3113a7a2a86a&#45;&gt;gateway:8080#ServerID_OuterContainerID -->
<g id="edge18" class="edge"><title>12_node#ServerID_3113a7a2a86a&#45;&gt;gateway:8080#ServerID_OuterContainerID</title>
<path fill="none" stroke="black" d="M1849.87,-753.969C1814.54,-735.248 1757.83,-705.191 1720.25,-685.27"/>
<polygon fill="black" stroke="black" points="1721.6,-682.028 1711.13,-680.437 1718.32,-688.213 1721.6,-682.028"/>
<text text-anchor="middle" x="1841" y="-724.8" font-family="Times,serif" font-size="14.00">connect</text>
</g>
<!-- 12_node#ServerID_3113a7a2a86a&#45;&gt;10.152.183.10:53#ServerID_OuterContainerID -->
<g id="edge16" class="edge"><title>12_node#ServerID_3113a7a2a86a&#45;&gt;10.152.183.10:53#ServerID_OuterContainerID</title>
<path fill="none" stroke="black" d="M1981.83,-753.979C2010.4,-748.685 2041.52,-742.513 2070,-736 2140.31,-719.919 2220.21,-697.575 2272.88,-682.273"/>
<polygon fill="black" stroke="black" points="2274.09,-685.565 2282.71,-679.406 2272.13,-678.845 2274.09,-685.565"/>
<text text-anchor="middle" x="2152.5" y="-724.8" font-family="Times,serif" font-size="14.00">sendto</text>
</g>
<!-- /etc/hosts#ServerID_3113a7a2a86a -->
<g id="node11" class="node"><title>/etc/hosts#ServerID_3113a7a2a86a</title>
<ellipse fill="none" stroke="black" cx="2113" cy="-880" rx="178.969" ry="18"/>
<text text-anchor="middle" x="2113" y="-876.3" font-family="Times,serif" font-size="14.00">/etc/hosts#ServerID_3113a7a2a86a</text>
</g>
<!-- /etc/hosts#ServerID_3113a7a2a86a&#45;&gt;12_node#ServerID_3113a7a2a86a -->
<g id="edge14" class="edge"><title>/etc/hosts#ServerID_3113a7a2a86a&#45;&gt;12_node#ServerID_3113a7a2a86a</title>
<path fill="none" stroke="black" d="M2076.65,-862.321C2036.64,-843.962 1972.22,-814.399 1928.54,-794.358"/>
<polygon fill="black" stroke="black" points="1929.83,-791.098 1919.28,-790.108 1926.91,-797.46 1929.83,-791.098"/>
<text text-anchor="middle" x="2048.5" y="-832.8" font-family="Times,serif" font-size="14.00">read</text>
</g>
<!-- /etc/resolv.conf#ServerID_3113a7a2a86a -->
<g id="node12" class="node"><title>/etc/resolv.conf#ServerID_3113a7a2a86a</title>
<ellipse fill="none" stroke="black" cx="1712" cy="-880" rx="204.164" ry="18"/>
<text text-anchor="middle" x="1712" y="-876.3" font-family="Times,serif" font-size="14.00">/etc/resolv.conf#ServerID_3113a7a2a86a</text>
</g>
<!-- /etc/resolv.conf#ServerID_3113a7a2a86a&#45;&gt;12_node#ServerID_3113a7a2a86a -->
<g id="edge15" class="edge"><title>/etc/resolv.conf#ServerID_3113a7a2a86a&#45;&gt;12_node#ServerID_3113a7a2a86a</title>
<path fill="none" stroke="black" d="M1739.31,-861.969C1768.23,-843.942 1814,-815.402 1845.87,-795.525"/>
<polygon fill="black" stroke="black" points="1847.84,-798.425 1854.47,-790.164 1844.14,-792.485 1847.84,-798.425"/>
<text text-anchor="middle" x="1808.5" y="-832.8" font-family="Times,serif" font-size="14.00">read</text>
</g>
<!-- localhost:3000#ServerID_9c632c9c841a -->
<g id="node14" class="node"><title>localhost:3000#ServerID_9c632c9c841a</title>
<polygon fill="none" stroke="black" points="3691,-487 3405.28,-469 3691,-451 3976.72,-469 3691,-487"/>
<text text-anchor="middle" x="3691" y="-465.3" font-family="Times,serif" font-size="14.00">localhost:3000#ServerID_9c632c9c841a</text>
</g>
<!-- 1_fwatchdog#ServerID_9c632c9c841a&#45;&gt;localhost:3000#ServerID_9c632c9c841a -->
<g id="edge19" class="edge"><title>1_fwatchdog#ServerID_9c632c9c841a&#45;&gt;localhost:3000#ServerID_9c632c9c841a</title>
<path fill="none" stroke="black" d="M3691,-537.799C3691,-526.163 3691,-510.548 3691,-497.237"/>
<polygon fill="black" stroke="black" points="3694.5,-497.175 3691,-487.175 3687.5,-497.175 3694.5,-497.175"/>
<text text-anchor="middle" x="3710" y="-508.8" font-family="Times,serif" font-size="14.00">write</text>
</g>
<!-- 1_fwatchdog#ServerID_9c632c9c841a&#45;&gt;localhost:3000#ServerID_9c632c9c841a -->
<g id="edge21" class="edge"><title>1_fwatchdog#ServerID_9c632c9c841a&#45;&gt;localhost:3000#ServerID_9c632c9c841a</title>
<path fill="none" stroke="black" d="M3716.88,-537.874C3727.15,-528.804 3735.38,-517.064 3730,-505 3728.02,-500.56 3725.17,-496.449 3721.89,-492.723"/>
<polygon fill="black" stroke="black" points="3724.29,-490.175 3714.72,-485.632 3719.37,-495.152 3724.29,-490.175"/>
<text text-anchor="middle" x="3760" y="-508.8" font-family="Times,serif" font-size="14.00">connect</text>
</g>
<!-- pipe:[240002549]#ServerID_9c632c9c841a -->
<g id="node23" class="node"><title>pipe:[240002549]#ServerID_9c632c9c841a</title>
<ellipse fill="none" stroke="black" cx="4211" cy="-469" rx="215.562" ry="18"/>
<text text-anchor="middle" x="4211" y="-465.3" font-family="Times,serif" font-size="14.00">pipe:[240002549]#ServerID_9c632c9c841a</text>
</g>
<!-- 1_fwatchdog#ServerID_9c632c9c841a&#45;&gt;pipe:[240002549]#ServerID_9c632c9c841a -->
<g id="edge32" class="edge"><title>1_fwatchdog#ServerID_9c632c9c841a&#45;&gt;pipe:[240002549]#ServerID_9c632c9c841a</title>
<path fill="none" stroke="black" d="M3795.29,-537.952C3886.17,-523.098 4017.22,-501.676 4107.78,-486.873"/>
<polygon fill="black" stroke="black" points="4108.48,-490.304 4117.79,-485.237 4107.35,-483.396 4108.48,-490.304"/>
<text text-anchor="middle" x="4001" y="-508.8" font-family="Times,serif" font-size="14.00">write</text>
</g>
<!-- localhost:3000#ServerID_9c632c9c841a&#45;&gt;1_fwatchdog#ServerID_9c632c9c841a -->
<g id="edge20" class="edge"><title>localhost:3000#ServerID_9c632c9c841a&#45;&gt;1_fwatchdog#ServerID_9c632c9c841a</title>
<path fill="none" stroke="black" d="M3667.9,-485.918C3657.5,-495.195 3648.62,-507.503 3654,-520 3655.57,-523.642 3657.72,-527.082 3660.21,-530.279"/>
<polygon fill="black" stroke="black" points="3657.62,-532.639 3666.93,-537.702 3662.81,-527.94 3657.62,-532.639"/>
<text text-anchor="middle" x="3670.5" y="-508.8" font-family="Times,serif" font-size="14.00">read</text>
</g>
<!-- 10_node#ServerID_9c632c9c841a -->
<g id="node15" class="node"><title>10_node#ServerID_9c632c9c841a</title>
<polygon fill="none" stroke="black" points="3971,-400 3705,-400 3705,-364 3971,-364 3971,-400"/>
<text text-anchor="middle" x="3838" y="-378.3" font-family="Times,serif" font-size="14.00">10_node#ServerID_9c632c9c841a</text>
</g>
<!-- localhost:3000#ServerID_9c632c9c841a&#45;&gt;10_node#ServerID_9c632c9c841a -->
<g id="edge22" class="edge"><title>localhost:3000#ServerID_9c632c9c841a&#45;&gt;10_node#ServerID_9c632c9c841a</title>
<path fill="none" stroke="black" d="M3717.62,-452.607C3740.56,-439.341 3773.97,-420.026 3799.77,-405.106"/>
<polygon fill="black" stroke="black" points="3801.64,-408.065 3808.55,-400.029 3798.14,-402.005 3801.64,-408.065"/>
<text text-anchor="middle" x="3789.5" y="-421.8" font-family="Times,serif" font-size="14.00">read</text>
</g>
<!-- /dev/null#ServerID_9c632c9c841a -->
<g id="node16" class="node"><title>/dev/null#ServerID_9c632c9c841a</title>
<ellipse fill="none" stroke="black" cx="3838" cy="-295" rx="173.569" ry="18"/>
<text text-anchor="middle" x="3838" y="-291.3" font-family="Times,serif" font-size="14.00">/dev/null#ServerID_9c632c9c841a</text>
</g>
<!-- 10_node#ServerID_9c632c9c841a&#45;&gt;/dev/null#ServerID_9c632c9c841a -->
<g id="edge31" class="edge"><title>10_node#ServerID_9c632c9c841a&#45;&gt;/dev/null#ServerID_9c632c9c841a</title>
<path fill="none" stroke="black" d="M3816.2,-363.762C3811.26,-358.629 3806.68,-352.594 3804,-346 3800.46,-337.285 3803.57,-328.546 3809.1,-320.867"/>
<polygon fill="black" stroke="black" points="3811.99,-322.87 3815.85,-313.002 3806.68,-318.31 3811.99,-322.87"/>
<text text-anchor="middle" x="3823" y="-334.8" font-family="Times,serif" font-size="14.00">write</text>
</g>
<!-- 101_node#ServerID_9c632c9c841a -->
<g id="node17" class="node"><title>101_node#ServerID_9c632c9c841a</title>
<polygon fill="none" stroke="black" points="3646.5,-313 3371.5,-313 3371.5,-277 3646.5,-277 3646.5,-313"/>
<text text-anchor="middle" x="3509" y="-291.3" font-family="Times,serif" font-size="14.00">101_node#ServerID_9c632c9c841a</text>
</g>
<!-- 10_node#ServerID_9c632c9c841a&#45;&gt;101_node#ServerID_9c632c9c841a -->
<g id="edge24" class="edge"><title>10_node#ServerID_9c632c9c841a&#45;&gt;101_node#ServerID_9c632c9c841a</title>
<path fill="none" stroke="black" d="M3771.82,-363.901C3717.83,-349.953 3641.52,-330.238 3585.03,-315.643"/>
<polygon fill="black" stroke="black" points="3585.63,-312.184 3575.08,-313.071 3583.88,-318.962 3585.63,-312.184"/>
<text text-anchor="middle" x="3708" y="-334.8" font-family="Times,serif" font-size="14.00">fork</text>
</g>
<!-- pipe:[240003687]#ServerID_9c632c9c841a -->
<g id="node18" class="node"><title>pipe:[240003687]#ServerID_9c632c9c841a</title>
<ellipse fill="none" stroke="black" cx="4245" cy="-295" rx="215.562" ry="18"/>
<text text-anchor="middle" x="4245" y="-291.3" font-family="Times,serif" font-size="14.00">pipe:[240003687]#ServerID_9c632c9c841a</text>
</g>
<!-- 10_node#ServerID_9c632c9c841a&#45;&gt;pipe:[240003687]#ServerID_9c632c9c841a -->
<g id="edge26" class="edge"><title>10_node#ServerID_9c632c9c841a&#45;&gt;pipe:[240003687]#ServerID_9c632c9c841a</title>
<path fill="none" stroke="black" d="M3915.19,-363.951C3960.05,-354.129 4017.68,-341.657 4069,-331 4096.71,-325.246 4126.92,-319.169 4154.36,-313.722"/>
<polygon fill="black" stroke="black" points="4155.2,-317.122 4164.33,-311.745 4153.84,-310.256 4155.2,-317.122"/>
<text text-anchor="middle" x="4088" y="-334.8" font-family="Times,serif" font-size="14.00">write</text>
</g>
<!-- /dev/null#ServerID_9c632c9c841a&#45;&gt;10_node#ServerID_9c632c9c841a -->
<g id="edge23" class="edge"><title>/dev/null#ServerID_9c632c9c841a&#45;&gt;10_node#ServerID_9c632c9c841a</title>
<path fill="none" stroke="black" d="M3842.77,-313.314C3844.09,-318.912 3845.34,-325.178 3846,-331 3846.84,-338.481 3846.23,-346.553 3845.03,-353.982"/>
<polygon fill="black" stroke="black" points="3841.57,-353.438 3843.05,-363.929 3848.44,-354.805 3841.57,-353.438"/>
<text text-anchor="middle" x="3862.5" y="-334.8" font-family="Times,serif" font-size="14.00">read</text>
</g>
<!-- 101_sh#ServerID_9c632c9c841a -->
<g id="node19" class="node"><title>101_sh#ServerID_9c632c9c841a</title>
<polygon fill="none" stroke="black" points="3706.5,-226 3449.5,-226 3449.5,-190 3706.5,-190 3706.5,-226"/>
<text text-anchor="middle" x="3578" y="-204.3" font-family="Times,serif" font-size="14.00">101_sh#ServerID_9c632c9c841a</text>
</g>
<!-- 101_node#ServerID_9c632c9c841a&#45;&gt;101_sh#ServerID_9c632c9c841a -->
<g id="edge27" class="edge"><title>101_node#ServerID_9c632c9c841a&#45;&gt;101_sh#ServerID_9c632c9c841a</title>
<path fill="none" stroke="black" d="M3522.96,-276.799C3532.88,-264.587 3546.35,-247.992 3557.48,-234.278"/>
<polygon fill="black" stroke="black" points="3560.47,-236.145 3564.06,-226.175 3555.04,-231.734 3560.47,-236.145"/>
<text text-anchor="middle" x="3573" y="-247.8" font-family="Times,serif" font-size="14.00">execve</text>
</g>
<!-- pipe:[240003687]#ServerID_9c632c9c841a&#45;&gt;10_node#ServerID_9c632c9c841a -->
<g id="edge25" class="edge"><title>pipe:[240003687]#ServerID_9c632c9c841a&#45;&gt;10_node#ServerID_9c632c9c841a</title>
<path fill="none" stroke="black" d="M4207.04,-312.835C4180.61,-323.891 4144.27,-337.778 4111,-346 4069.34,-356.297 4023.32,-363.676 3981.12,-368.918"/>
<polygon fill="black" stroke="black" points="3980.55,-365.461 3971.05,-370.138 3981.39,-372.41 3980.55,-365.461"/>
<text text-anchor="middle" x="4175.5" y="-334.8" font-family="Times,serif" font-size="14.00">read</text>
</g>
<!-- /home/app/3.txt#ServerID_9c632c9c841a -->
<g id="node20" class="node"><title>/home/app/3.txt#ServerID_9c632c9c841a</title>
<ellipse fill="none" stroke="black" cx="3578" cy="-121" rx="206.863" ry="18"/>
<text text-anchor="middle" x="3578" y="-117.3" font-family="Times,serif" font-size="14.00">/home/app/3.txt#ServerID_9c632c9c841a</text>
</g>
<!-- 101_sh#ServerID_9c632c9c841a&#45;&gt;/home/app/3.txt#ServerID_9c632c9c841a -->
<g id="edge28" class="edge"><title>101_sh#ServerID_9c632c9c841a&#45;&gt;/home/app/3.txt#ServerID_9c632c9c841a</title>
<path fill="none" stroke="black" d="M3578,-189.799C3578,-178.163 3578,-162.548 3578,-149.237"/>
<polygon fill="black" stroke="black" points="3581.5,-149.175 3578,-139.175 3574.5,-149.175 3581.5,-149.175"/>
<text text-anchor="middle" x="3597" y="-160.8" font-family="Times,serif" font-size="14.00">write</text>
</g>
<!-- 102_sh#ServerID_9c632c9c841a -->
<g id="node21" class="node"><title>102_sh#ServerID_9c632c9c841a</title>
<polygon fill="none" stroke="black" points="4059.5,-139 3802.5,-139 3802.5,-103 4059.5,-103 4059.5,-139"/>
<text text-anchor="middle" x="3931" y="-117.3" font-family="Times,serif" font-size="14.00">102_sh#ServerID_9c632c9c841a</text>
</g>
<!-- 101_sh#ServerID_9c632c9c841a&#45;&gt;102_sh#ServerID_9c632c9c841a -->
<g id="edge30" class="edge"><title>101_sh#ServerID_9c632c9c841a&#45;&gt;102_sh#ServerID_9c632c9c841a</title>
<path fill="none" stroke="black" d="M3649.01,-189.901C3707.18,-175.895 3789.49,-156.074 3850.18,-141.462"/>
<polygon fill="black" stroke="black" points="3851.2,-144.815 3860.1,-139.071 3849.56,-138.01 3851.2,-144.815"/>
<text text-anchor="middle" x="3790" y="-160.8" font-family="Times,serif" font-size="14.00">fork</text>
</g>
<!-- 102_touch#ServerID_9c632c9c841a -->
<g id="node22" class="node"><title>102_touch#ServerID_9c632c9c841a</title>
<polygon fill="none" stroke="black" points="4071.5,-52 3790.5,-52 3790.5,-16 4071.5,-16 4071.5,-52"/>
<text text-anchor="middle" x="3931" y="-30.3" font-family="Times,serif" font-size="14.00">102_touch#ServerID_9c632c9c841a</text>
</g>
<!-- 102_sh#ServerID_9c632c9c841a&#45;&gt;102_touch#ServerID_9c632c9c841a -->
<g id="edge29" class="edge"><title>102_sh#ServerID_9c632c9c841a&#45;&gt;102_touch#ServerID_9c632c9c841a</title>
<path fill="none" stroke="black" d="M3931,-102.799C3931,-91.1626 3931,-75.5479 3931,-62.2368"/>
<polygon fill="black" stroke="black" points="3934.5,-62.1754 3931,-52.1754 3927.5,-62.1755 3934.5,-62.1754"/>
<text text-anchor="middle" x="3956" y="-73.8" font-family="Times,serif" font-size="14.00">execve</text>
</g>
<!-- 10.1.80.1:20575#ServerID_OuterContainerID&#45;&gt;10.1.80.247:8080#ServerID_OuterContainerID -->
<g id="edge33" class="edge"><title>10.1.80.1:20575#ServerID_OuterContainerID&#45;&gt;10.1.80.247:8080#ServerID_OuterContainerID</title>
<path fill="none" stroke="black" d="M960.751,-570.566C887.78,-586.107 763.066,-611.54 655,-628 593.746,-637.33 525.373,-645.275 468.28,-651.226"/>
<polygon fill="black" stroke="black" points="467.71,-647.766 458.123,-652.276 468.43,-654.729 467.71,-647.766"/>
<text text-anchor="middle" x="757" y="-616.8" font-family="Times,serif" font-size="14.00">POST</text>
</g>
</g>
</svg>
