<?xml version="1.0" encoding="UTF-8" standalone="no"?>
<!DOCTYPE svg PUBLIC "-//W3C//DTD SVG 1.1//EN"
 "http://www.w3.org/Graphics/SVG/1.1/DTD/svg11.dtd">
<!-- Generated by graphviz version 2.38.0 (20140413.2041)
 -->
<!-- Title: G Pages: 1 -->
<svg width="6744pt" height="684pt"
 viewBox="0.00 0.00 6744.00 684.00" xmlns="http://www.w3.org/2000/svg" xmlns:xlink="http://www.w3.org/1999/xlink">
<g id="graph0" class="graph" transform="scale(1 1) rotate(0) translate(4 680)">
<title>G</title>
<polygon fill="white" stroke="none" points="-4,4 -4,-680 6740,-680 6740,4 -4,4"/>
<g id="clust1" class="cluster"><title>clusterServerID_6dcbcc88d5&#45;j9zwp</title>
<polygon fill="none" stroke="black" points="4996,-182 4996,-257 5338,-257 5338,-182 4996,-182"/>
<text text-anchor="middle" x="5167" y="-241.8" font-family="Times,serif" font-size="14.00">clusterServerID_6dcbcc88d5&#45;j9zwp</text>
</g>
<g id="clust2" class="cluster"><title>clusterServerID_736074b81582</title>
<polygon fill="none" stroke="black" points="1475,-398 1475,-668 2879,-668 2879,-398 1475,-398"/>
<text text-anchor="middle" x="2177" y="-652.8" font-family="Times,serif" font-size="14.00">clusterServerID_736074b81582</text>
</g>
<g id="clust3" class="cluster"><title>clusterServerID_76c96688d7&#45;jnp5f</title>
<polygon fill="none" stroke="black" points="5346,-182 5346,-257 5686,-257 5686,-182 5346,-182"/>
<text text-anchor="middle" x="5516" y="-241.8" font-family="Times,serif" font-size="14.00">clusterServerID_76c96688d7&#45;jnp5f</text>
</g>
<g id="clust4" class="cluster"><title>clusterServerID_834d81eb81b3</title>
<polygon fill="none" stroke="black" points="5694,-95 5694,-257 6728,-257 6728,-95 5694,-95"/>
<text text-anchor="middle" x="6211" y="-241.8" font-family="Times,serif" font-size="14.00">clusterServerID_834d81eb81b3</text>
</g>
<g id="clust5" class="cluster"><title>clusterServerID_8665dd9487&#45;fclr8</title>
<polygon fill="none" stroke="black" points="830,-398 830,-473 1166,-473 1166,-398 830,-398"/>
<text text-anchor="middle" x="998" y="-457.8" font-family="Times,serif" font-size="14.00">clusterServerID_8665dd9487&#45;fclr8</text>
</g>
<g id="clust6" class="cluster"><title>clusterServerID_86aa7f3fa3b0</title>
<polygon fill="none" stroke="black" points="3984,-8 3984,-257 4988,-257 4988,-8 3984,-8"/>
<text text-anchor="middle" x="4486" y="-241.8" font-family="Times,serif" font-size="14.00">clusterServerID_86aa7f3fa3b0</text>
</g>
<g id="clust7" class="cluster"><title>clusterServerID_OuterContainerID</title>
<polygon fill="none" stroke="black" points="8,-182 8,-365 3976,-365 3976,-182 8,-182"/>
<text text-anchor="middle" x="1992" y="-349.8" font-family="Times,serif" font-size="14.00">clusterServerID_OuterContainerID</text>
</g>
<!-- 10.1.80.93:47302#ServerID_OuterContainerID -->
<g id="node1" class="node"><title>10.1.80.93:47302#ServerID_OuterContainerID</title>
<polygon fill="none" stroke="black" points="999,-334 671.56,-316 999,-298 1326.44,-316 999,-334"/>
<text text-anchor="middle" x="999" y="-312.3" font-family="Times,serif" font-size="14.00">10.1.80.93:47302#ServerID_OuterContainerID</text>
</g>
<!-- 1_fwatchdog#ServerID_8665dd9487&#45;fclr8 -->
<g id="node2" class="node"><title>1_fwatchdog#ServerID_8665dd9487&#45;fclr8</title>
<polygon fill="none" stroke="black" points="1158,-442 838,-442 838,-406 1158,-406 1158,-442"/>
<text text-anchor="middle" x="998" y="-420.3" font-family="Times,serif" font-size="14.00">1_fwatchdog#ServerID_8665dd9487&#45;fclr8</text>
</g>
<!-- 10.1.80.93:47302#ServerID_OuterContainerID&#45;&gt;1_fwatchdog#ServerID_8665dd9487&#45;fclr8 -->
<g id="edge1" class="edge"><title>10.1.80.93:47302#ServerID_OuterContainerID&#45;&gt;1_fwatchdog#ServerID_8665dd9487&#45;fclr8</title>
<path fill="none" stroke="black" d="M986.809,-333.692C979.796,-344.353 971.669,-358.798 968,-373 966.333,-379.455 965.687,-381.747 968,-388 969.231,-391.328 970.936,-394.554 972.914,-397.612"/>
<polygon fill="black" stroke="black" points="970.225,-399.86 979.041,-405.736 975.813,-395.644 970.225,-399.86"/>
<text text-anchor="middle" x="988" y="-376.8" font-family="Times,serif" font-size="14.00">POST</text>
</g>
<!-- 1_fwatchdog#ServerID_86aa7f3fa3b0 -->
<g id="node15" class="node"><title>1_fwatchdog#ServerID_86aa7f3fa3b0</title>
<polygon fill="none" stroke="black" points="4416,-226 4126,-226 4126,-190 4416,-190 4416,-226"/>
<text text-anchor="middle" x="4271" y="-204.3" font-family="Times,serif" font-size="14.00">1_fwatchdog#ServerID_86aa7f3fa3b0</text>
</g>
<!-- 10.1.80.93:47302#ServerID_OuterContainerID&#45;&gt;1_fwatchdog#ServerID_86aa7f3fa3b0 -->
<g id="edge20" class="edge"><title>10.1.80.93:47302#ServerID_OuterContainerID&#45;&gt;1_fwatchdog#ServerID_86aa7f3fa3b0</title>
<path fill="none" stroke="black" d="M1143.21,-305.892C1341.53,-293.84 1709.65,-273.167 2024,-265 2132.63,-262.178 3871.71,-266.094 3980,-257 4047.27,-251.351 4122.43,-238.79 4179.51,-227.935"/>
<polygon fill="black" stroke="black" points="4180.43,-231.322 4189.59,-226 4179.11,-224.448 4180.43,-231.322"/>
<text text-anchor="middle" x="2040.5" y="-268.8" font-family="Times,serif" font-size="14.00">read</text>
</g>
<!-- 1_fwatchdog#ServerID_8665dd9487&#45;fclr8&#45;&gt;10.1.80.93:47302#ServerID_OuterContainerID -->
<g id="edge3" class="edge"><title>1_fwatchdog#ServerID_8665dd9487&#45;fclr8&#45;&gt;10.1.80.93:47302#ServerID_OuterContainerID</title>
<path fill="none" stroke="black" d="M1003.96,-405.759C1005.61,-400.165 1007.18,-393.883 1008,-388 1010.04,-373.436 1008.27,-357.162 1005.78,-343.873"/>
<polygon fill="black" stroke="black" points="1009.17,-343.006 1003.68,-333.944 1002.32,-344.452 1009.17,-343.006"/>
<text text-anchor="middle" x="1051" y="-376.8" font-family="Times,serif" font-size="14.00">RESPONSE</text>
</g>
<!-- 1_fwatchdog#ServerID_6dcbcc88d5&#45;j9zwp -->
<g id="node3" class="node"><title>1_fwatchdog#ServerID_6dcbcc88d5&#45;j9zwp</title>
<polygon fill="none" stroke="black" points="5330,-226 5004,-226 5004,-190 5330,-190 5330,-226"/>
<text text-anchor="middle" x="5167" y="-204.3" font-family="Times,serif" font-size="14.00">1_fwatchdog#ServerID_6dcbcc88d5&#45;j9zwp</text>
</g>
<!-- gateway:8080#ServerID_OuterContainerID -->
<g id="node4" class="node"><title>gateway:8080#ServerID_OuterContainerID</title>
<polygon fill="none" stroke="black" points="1648,-334 1343.52,-316 1648,-298 1952.48,-316 1648,-334"/>
<text text-anchor="middle" x="1648" y="-312.3" font-family="Times,serif" font-size="14.00">gateway:8080#ServerID_OuterContainerID</text>
</g>
<!-- 1_fwatchdog#ServerID_6dcbcc88d5&#45;j9zwp&#45;&gt;gateway:8080#ServerID_OuterContainerID -->
<g id="edge2" class="edge"><title>1_fwatchdog#ServerID_6dcbcc88d5&#45;j9zwp&#45;&gt;gateway:8080#ServerID_OuterContainerID</title>
<path fill="none" stroke="black" d="M5118.31,-226.087C5083.6,-237.345 5035.55,-251.065 4992,-257 4923.74,-266.303 2580.86,-262.898 2512,-265 2254.87,-272.849 1955.21,-292.564 1784.93,-304.762"/>
<polygon fill="black" stroke="black" points="1784.63,-301.275 1774.9,-305.482 1785.13,-308.257 1784.63,-301.275"/>
<text text-anchor="middle" x="2532" y="-268.8" font-family="Times,serif" font-size="14.00">POST</text>
</g>
<!-- 10.1.80.93:8080#ServerID_OuterContainerID -->
<g id="node5" class="node"><title>10.1.80.93:8080#ServerID_OuterContainerID</title>
<polygon fill="none" stroke="black" points="335,-334 16.1049,-316 335,-298 653.895,-316 335,-334"/>
<text text-anchor="middle" x="335" y="-312.3" font-family="Times,serif" font-size="14.00">10.1.80.93:8080#ServerID_OuterContainerID</text>
</g>
<!-- 1_fwatchdog#ServerID_6dcbcc88d5&#45;j9zwp&#45;&gt;10.1.80.93:8080#ServerID_OuterContainerID -->
<g id="edge5" class="edge"><title>1_fwatchdog#ServerID_6dcbcc88d5&#45;j9zwp&#45;&gt;10.1.80.93:8080#ServerID_OuterContainerID</title>
<path fill="none" stroke="black" d="M5118.32,-226.099C5083.6,-237.362 5035.55,-251.084 4992,-257 4945.12,-263.368 1633.3,-264.099 1586,-265 1534.7,-265.977 714.261,-295.755 663,-298 609.215,-300.355 550.489,-303.285 497.781,-306.046"/>
<polygon fill="black" stroke="black" points="497.471,-302.558 487.668,-306.578 497.838,-309.548 497.471,-302.558"/>
<text text-anchor="middle" x="1606" y="-268.8" font-family="Times,serif" font-size="14.00">POST</text>
</g>
<!-- 10.1.80.93:51534#ServerID_OuterContainerID -->
<g id="node6" class="node"><title>10.1.80.93:51534#ServerID_OuterContainerID</title>
<polygon fill="none" stroke="black" points="2969,-334 2641.56,-316 2969,-298 3296.44,-316 2969,-334"/>
<text text-anchor="middle" x="2969" y="-312.3" font-family="Times,serif" font-size="14.00">10.1.80.93:51534#ServerID_OuterContainerID</text>
</g>
<!-- 1_fwatchdog#ServerID_6dcbcc88d5&#45;j9zwp&#45;&gt;10.1.80.93:51534#ServerID_OuterContainerID -->
<g id="edge10" class="edge"><title>1_fwatchdog#ServerID_6dcbcc88d5&#45;j9zwp&#45;&gt;10.1.80.93:51534#ServerID_OuterContainerID</title>
<path fill="none" stroke="black" d="M5117.91,-226.014C5083.21,-237.16 5035.35,-250.776 4992,-257 4941.73,-264.218 4585.77,-263.875 4535,-265 3988.27,-277.119 3851.45,-276.849 3305,-298 3248.96,-300.169 3187.68,-303.103 3132.99,-305.922"/>
<polygon fill="black" stroke="black" points="3132.66,-302.435 3122.85,-306.447 3133.02,-309.425 3132.66,-302.435"/>
<text text-anchor="middle" x="4577" y="-268.8" font-family="Times,serif" font-size="14.00">RESPONSE</text>
</g>
<!-- gateway:8080#ServerID_OuterContainerID&#45;&gt;1_fwatchdog#ServerID_6dcbcc88d5&#45;j9zwp -->
<g id="edge7" class="edge"><title>gateway:8080#ServerID_OuterContainerID&#45;&gt;1_fwatchdog#ServerID_6dcbcc88d5&#45;j9zwp</title>
<path fill="none" stroke="black" d="M1790.53,-306.404C1843.98,-303.405 1905.26,-300.234 1961,-298 2244.2,-286.647 2952.6,-269.313 3236,-265 3284.77,-264.258 4943.67,-263.62 4992,-257 5031.63,-251.572 5075,-239.721 5108.64,-229.153"/>
<polygon fill="black" stroke="black" points="5109.85,-232.443 5118.31,-226.069 5107.72,-225.774 5109.85,-232.443"/>
<text text-anchor="middle" x="3278" y="-268.8" font-family="Times,serif" font-size="14.00">RESPONSE</text>
</g>
<!-- 10.1.80.93:8080#ServerID_OuterContainerID&#45;&gt;1_fwatchdog#ServerID_6dcbcc88d5&#45;j9zwp -->
<g id="edge4" class="edge"><title>10.1.80.93:8080#ServerID_OuterContainerID&#45;&gt;1_fwatchdog#ServerID_6dcbcc88d5&#45;j9zwp</title>
<path fill="none" stroke="black" d="M451.986,-304.599C596.221,-292.33 848.93,-272.637 1066,-265 1120.49,-263.083 4937.97,-264.332 4992,-257 5031.64,-251.622 5075,-239.771 5108.65,-229.191"/>
<polygon fill="black" stroke="black" points="5109.86,-232.48 5118.32,-226.103 5107.73,-225.812 5109.86,-232.48"/>
<text text-anchor="middle" x="1108" y="-268.8" font-family="Times,serif" font-size="14.00">RESPONSE</text>
</g>
<!-- 10.1.80.1:2329#ServerID_OuterContainerID -->
<g id="node22" class="node"><title>10.1.80.1:2329#ServerID_OuterContainerID</title>
<polygon fill="none" stroke="black" points="327,-226 16.1496,-208 327,-190 637.85,-208 327,-226"/>
<text text-anchor="middle" x="327" y="-204.3" font-family="Times,serif" font-size="14.00">10.1.80.1:2329#ServerID_OuterContainerID</text>
</g>
<!-- 10.1.80.93:8080#ServerID_OuterContainerID&#45;&gt;10.1.80.1:2329#ServerID_OuterContainerID -->
<g id="edge32" class="edge"><title>10.1.80.93:8080#ServerID_OuterContainerID&#45;&gt;10.1.80.1:2329#ServerID_OuterContainerID</title>
<path fill="none" stroke="black" d="M295.089,-300.103C286.688,-295.04 278.895,-288.453 274,-280 263.93,-262.613 277.936,-244.484 294.069,-230.897"/>
<polygon fill="black" stroke="black" points="296.364,-233.546 302.064,-224.615 292.039,-228.041 296.364,-233.546"/>
<text text-anchor="middle" x="316" y="-268.8" font-family="Times,serif" font-size="14.00">RESPONSE</text>
</g>
<!-- 10.0.88.125:31112#ServerID_OuterContainerID -->
<g id="node23" class="node"><title>10.0.88.125:31112#ServerID_OuterContainerID</title>
<polygon fill="none" stroke="black" points="991,-226 655.515,-208 991,-190 1326.48,-208 991,-226"/>
<text text-anchor="middle" x="991" y="-204.3" font-family="Times,serif" font-size="14.00">10.0.88.125:31112#ServerID_OuterContainerID</text>
</g>
<!-- 10.1.80.93:8080#ServerID_OuterContainerID&#45;&gt;10.0.88.125:31112#ServerID_OuterContainerID -->
<g id="edge31" class="edge"><title>10.1.80.93:8080#ServerID_OuterContainerID&#45;&gt;10.0.88.125:31112#ServerID_OuterContainerID</title>
<path fill="none" stroke="black" d="M413.152,-302.372C535.706,-282.569 772.409,-244.321 901.578,-223.449"/>
<polygon fill="black" stroke="black" points="902.518,-226.843 911.831,-221.793 901.401,-219.933 902.518,-226.843"/>
<text text-anchor="middle" x="686" y="-268.8" font-family="Times,serif" font-size="14.00">RESPONSE</text>
</g>
<!-- 10.1.80.93:51534#ServerID_OuterContainerID&#45;&gt;1_fwatchdog#ServerID_6dcbcc88d5&#45;j9zwp -->
<g id="edge6" class="edge"><title>10.1.80.93:51534#ServerID_OuterContainerID&#45;&gt;1_fwatchdog#ServerID_6dcbcc88d5&#45;j9zwp</title>
<path fill="none" stroke="black" d="M3071.32,-303.595C3186.36,-291.361 3378.8,-272.66 3545,-265 3625.3,-261.299 4912.36,-267.948 4992,-257 5031.63,-251.552 5074.99,-239.701 5108.64,-229.139"/>
<polygon fill="black" stroke="black" points="5109.85,-232.428 5118.31,-226.056 5107.72,-225.759 5109.85,-232.428"/>
<text text-anchor="middle" x="3565" y="-268.8" font-family="Times,serif" font-size="14.00">POST</text>
</g>
<!-- 1_fwatchdog#ServerID_736074b81582 -->
<g id="node9" class="node"><title>1_fwatchdog#ServerID_736074b81582</title>
<polygon fill="none" stroke="black" points="2397,-637 2097,-637 2097,-601 2397,-601 2397,-637"/>
<text text-anchor="middle" x="2247" y="-615.3" font-family="Times,serif" font-size="14.00">1_fwatchdog#ServerID_736074b81582</text>
</g>
<!-- 10.1.80.93:51534#ServerID_OuterContainerID&#45;&gt;1_fwatchdog#ServerID_736074b81582 -->
<g id="edge12" class="edge"><title>10.1.80.93:51534#ServerID_OuterContainerID&#45;&gt;1_fwatchdog#ServerID_736074b81582</title>
<path fill="none" stroke="black" d="M2968.23,-333.962C2965.23,-377.861 2950.66,-495.558 2880,-550 2843.26,-578.31 2582.52,-598.731 2407.35,-609.437"/>
<polygon fill="black" stroke="black" points="2407.02,-605.95 2397.25,-610.049 2407.44,-612.938 2407.02,-605.95"/>
<text text-anchor="middle" x="2949.5" y="-484.8" font-family="Times,serif" font-size="14.00">read</text>
</g>
<!-- 10.1.80.93:54378#ServerID_OuterContainerID -->
<g id="node7" class="node"><title>10.1.80.93:54378#ServerID_OuterContainerID</title>
<polygon fill="none" stroke="black" points="3641,-334 3313.56,-316 3641,-298 3968.44,-316 3641,-334"/>
<text text-anchor="middle" x="3641" y="-312.3" font-family="Times,serif" font-size="14.00">10.1.80.93:54378#ServerID_OuterContainerID</text>
</g>
<!-- 1_fwatchdog#ServerID_76c96688d7&#45;jnp5f -->
<g id="node8" class="node"><title>1_fwatchdog#ServerID_76c96688d7&#45;jnp5f</title>
<polygon fill="none" stroke="black" points="5677.5,-226 5354.5,-226 5354.5,-190 5677.5,-190 5677.5,-226"/>
<text text-anchor="middle" x="5516" y="-204.3" font-family="Times,serif" font-size="14.00">1_fwatchdog#ServerID_76c96688d7&#45;jnp5f</text>
</g>
<!-- 10.1.80.93:54378#ServerID_OuterContainerID&#45;&gt;1_fwatchdog#ServerID_76c96688d7&#45;jnp5f -->
<g id="edge8" class="edge"><title>10.1.80.93:54378#ServerID_OuterContainerID&#45;&gt;1_fwatchdog#ServerID_76c96688d7&#45;jnp5f</title>
<path fill="none" stroke="black" d="M3921.56,-313.417C4332.18,-309.737 5076.83,-297.517 5342,-257 5380.91,-251.055 5423.52,-239.389 5456.84,-229.047"/>
<polygon fill="black" stroke="black" points="5457.93,-232.372 5466.42,-226.03 5455.83,-225.695 5457.93,-232.372"/>
<text text-anchor="middle" x="5285" y="-268.8" font-family="Times,serif" font-size="14.00">POST</text>
</g>
<!-- 1_fwatchdog#ServerID_834d81eb81b3 -->
<g id="node19" class="node"><title>1_fwatchdog#ServerID_834d81eb81b3</title>
<polygon fill="none" stroke="black" points="6139.5,-226 5840.5,-226 5840.5,-190 6139.5,-190 6139.5,-226"/>
<text text-anchor="middle" x="5990" y="-204.3" font-family="Times,serif" font-size="14.00">1_fwatchdog#ServerID_834d81eb81b3</text>
</g>
<!-- 10.1.80.93:54378#ServerID_OuterContainerID&#45;&gt;1_fwatchdog#ServerID_834d81eb81b3 -->
<g id="edge28" class="edge"><title>10.1.80.93:54378#ServerID_OuterContainerID&#45;&gt;1_fwatchdog#ServerID_834d81eb81b3</title>
<path fill="none" stroke="black" d="M3907.6,-312.634C4236.98,-308.966 4814.47,-300.107 5309,-280 5478.5,-273.108 5521.37,-275.534 5690,-257 5756.41,-249.7 5830.55,-237.872 5888.52,-227.784"/>
<polygon fill="black" stroke="black" points="5889.16,-231.225 5898.41,-226.052 5887.95,-224.33 5889.16,-231.225"/>
<text text-anchor="middle" x="5626.5" y="-268.8" font-family="Times,serif" font-size="14.00">read</text>
</g>
<!-- 1_fwatchdog#ServerID_76c96688d7&#45;jnp5f&#45;&gt;10.1.80.93:54378#ServerID_OuterContainerID -->
<g id="edge9" class="edge"><title>1_fwatchdog#ServerID_76c96688d7&#45;jnp5f&#45;&gt;10.1.80.93:54378#ServerID_OuterContainerID</title>
<path fill="none" stroke="black" d="M5466.81,-226.004C5432.33,-237.068 5384.93,-250.592 5342,-257 5277.36,-266.65 5113.33,-262.951 5048,-265 4614.14,-278.612 4105.12,-297.4 3834.02,-307.633"/>
<polygon fill="black" stroke="black" points="3833.54,-304.148 3823.68,-308.023 3833.8,-311.143 3833.54,-304.148"/>
<text text-anchor="middle" x="5090" y="-268.8" font-family="Times,serif" font-size="14.00">RESPONSE</text>
</g>
<!-- localhost:3000#ServerID_736074b81582 -->
<g id="node10" class="node"><title>localhost:3000#ServerID_736074b81582</title>
<polygon fill="none" stroke="black" points="1772,-550 1483.27,-532 1772,-514 2060.73,-532 1772,-550"/>
<text text-anchor="middle" x="1772" y="-528.3" font-family="Times,serif" font-size="14.00">localhost:3000#ServerID_736074b81582</text>
</g>
<!-- 1_fwatchdog#ServerID_736074b81582&#45;&gt;localhost:3000#ServerID_736074b81582 -->
<g id="edge11" class="edge"><title>1_fwatchdog#ServerID_736074b81582&#45;&gt;localhost:3000#ServerID_736074b81582</title>
<path fill="none" stroke="black" d="M2151.73,-600.952C2064.03,-585.258 1935.36,-562.233 1852.63,-547.428"/>
<polygon fill="black" stroke="black" points="1853.23,-543.981 1842.77,-545.665 1852,-550.872 1853.23,-543.981"/>
<text text-anchor="middle" x="2057" y="-571.8" font-family="Times,serif" font-size="14.00">write</text>
</g>
<!-- 10_node#ServerID_736074b81582 -->
<g id="node12" class="node"><title>10_node#ServerID_736074b81582</title>
<polygon fill="none" stroke="black" points="2371.5,-442 2102.5,-442 2102.5,-406 2371.5,-406 2371.5,-442"/>
<text text-anchor="middle" x="2237" y="-420.3" font-family="Times,serif" font-size="14.00">10_node#ServerID_736074b81582</text>
</g>
<!-- localhost:3000#ServerID_736074b81582&#45;&gt;10_node#ServerID_736074b81582 -->
<g id="edge14" class="edge"><title>localhost:3000#ServerID_736074b81582&#45;&gt;10_node#ServerID_736074b81582</title>
<path fill="none" stroke="black" d="M1830.89,-517.575C1912.12,-499.058 2059.04,-465.567 2152.12,-444.348"/>
<polygon fill="black" stroke="black" points="2153.11,-447.714 2162.08,-442.079 2151.55,-440.889 2153.11,-447.714"/>
<text text-anchor="middle" x="2007.5" y="-484.8" font-family="Times,serif" font-size="14.00">read</text>
</g>
<!-- /etc/hosts#ServerID_736074b81582 -->
<g id="node11" class="node"><title>/etc/hosts#ServerID_736074b81582</title>
<ellipse fill="none" stroke="black" cx="2690" cy="-532" rx="180.868" ry="18"/>
<text text-anchor="middle" x="2690" y="-528.3" font-family="Times,serif" font-size="14.00">/etc/hosts#ServerID_736074b81582</text>
</g>
<!-- /etc/hosts#ServerID_736074b81582&#45;&gt;10_node#ServerID_736074b81582 -->
<g id="edge13" class="edge"><title>/etc/hosts#ServerID_736074b81582&#45;&gt;10_node#ServerID_736074b81582</title>
<path fill="none" stroke="black" d="M2622.67,-515.245C2541.98,-496.364 2406.8,-464.732 2319.8,-444.374"/>
<polygon fill="black" stroke="black" points="2320.49,-440.943 2309.96,-442.072 2318.9,-447.759 2320.49,-440.943"/>
<text text-anchor="middle" x="2547.5" y="-484.8" font-family="Times,serif" font-size="14.00">read</text>
</g>
<!-- 10_node#ServerID_736074b81582&#45;&gt;gateway:8080#ServerID_OuterContainerID -->
<g id="edge18" class="edge"><title>10_node#ServerID_736074b81582&#45;&gt;gateway:8080#ServerID_OuterContainerID</title>
<path fill="none" stroke="black" d="M2142.37,-405.969C2027.9,-385.369 1837.15,-351.04 1729.12,-331.598"/>
<polygon fill="black" stroke="black" points="1729.71,-328.148 1719.24,-329.822 1728.47,-335.037 1729.71,-328.148"/>
<text text-anchor="middle" x="2059" y="-376.8" font-family="Times,serif" font-size="14.00">connect</text>
</g>
<!-- 10.152.183.10:53#ServerID_OuterContainerID -->
<g id="node14" class="node"><title>10.152.183.10:53#ServerID_OuterContainerID</title>
<polygon fill="none" stroke="black" points="2297,-334 1969.56,-316 2297,-298 2624.44,-316 2297,-334"/>
<text text-anchor="middle" x="2297" y="-312.3" font-family="Times,serif" font-size="14.00">10.152.183.10:53#ServerID_OuterContainerID</text>
</g>
<!-- 10_node#ServerID_736074b81582&#45;&gt;10.152.183.10:53#ServerID_OuterContainerID -->
<g id="edge16" class="edge"><title>10_node#ServerID_736074b81582&#45;&gt;10.152.183.10:53#ServerID_OuterContainerID</title>
<path fill="none" stroke="black" d="M2229.94,-405.623C2227,-395.664 2225.25,-383.164 2230,-373 2236.52,-359.052 2248.41,-347.357 2260.39,-338.323"/>
<polygon fill="black" stroke="black" points="2262.48,-341.129 2268.63,-332.499 2258.44,-335.413 2262.48,-341.129"/>
<text text-anchor="middle" x="2254.5" y="-376.8" font-family="Times,serif" font-size="14.00">sendto</text>
</g>
<!-- /etc/resolv.conf#ServerID_736074b81582 -->
<g id="node13" class="node"><title>/etc/resolv.conf#ServerID_736074b81582</title>
<ellipse fill="none" stroke="black" cx="2285" cy="-532" rx="206.063" ry="18"/>
<text text-anchor="middle" x="2285" y="-528.3" font-family="Times,serif" font-size="14.00">/etc/resolv.conf#ServerID_736074b81582</text>
</g>
<!-- /etc/resolv.conf#ServerID_736074b81582&#45;&gt;10_node#ServerID_736074b81582 -->
<g id="edge15" class="edge"><title>/etc/resolv.conf#ServerID_736074b81582&#45;&gt;10_node#ServerID_736074b81582</title>
<path fill="none" stroke="black" d="M2277.29,-513.969C2269.67,-497.148 2257.91,-471.173 2249.06,-451.624"/>
<polygon fill="black" stroke="black" points="2252.17,-450.006 2244.85,-442.341 2245.79,-452.894 2252.17,-450.006"/>
<text text-anchor="middle" x="2285.5" y="-484.8" font-family="Times,serif" font-size="14.00">read</text>
</g>
<!-- 10.152.183.10:53#ServerID_OuterContainerID&#45;&gt;10_node#ServerID_736074b81582 -->
<g id="edge17" class="edge"><title>10.152.183.10:53#ServerID_OuterContainerID&#45;&gt;10_node#ServerID_736074b81582</title>
<path fill="none" stroke="black" d="M2295.68,-333.941C2293.83,-349.103 2289.44,-371.431 2279,-388 2276.54,-391.9 2273.51,-395.58 2270.2,-398.983"/>
<polygon fill="black" stroke="black" points="2267.61,-396.608 2262.65,-405.968 2272.36,-401.748 2267.61,-396.608"/>
<text text-anchor="middle" x="2320" y="-376.8" font-family="Times,serif" font-size="14.00">recvfrom</text>
</g>
<!-- localhost:3000#ServerID_86aa7f3fa3b0 -->
<g id="node16" class="node"><title>localhost:3000#ServerID_86aa7f3fa3b0</title>
<polygon fill="none" stroke="black" points="4271,-139 3991.65,-121 4271,-103 4550.35,-121 4271,-139"/>
<text text-anchor="middle" x="4271" y="-117.3" font-family="Times,serif" font-size="14.00">localhost:3000#ServerID_86aa7f3fa3b0</text>
</g>
<!-- 1_fwatchdog#ServerID_86aa7f3fa3b0&#45;&gt;localhost:3000#ServerID_86aa7f3fa3b0 -->
<g id="edge19" class="edge"><title>1_fwatchdog#ServerID_86aa7f3fa3b0&#45;&gt;localhost:3000#ServerID_86aa7f3fa3b0</title>
<path fill="none" stroke="black" d="M4292.8,-189.762C4297.74,-184.629 4302.32,-178.594 4305,-172 4308.79,-162.662 4304.95,-153.296 4298.68,-145.237"/>
<polygon fill="black" stroke="black" points="4301.11,-142.702 4291.79,-137.662 4295.93,-147.414 4301.11,-142.702"/>
<text text-anchor="middle" x="4336" y="-160.8" font-family="Times,serif" font-size="14.00">connect</text>
</g>
<!-- 1_fwatchdog#ServerID_86aa7f3fa3b0&#45;&gt;localhost:3000#ServerID_86aa7f3fa3b0 -->
<g id="edge22" class="edge"><title>1_fwatchdog#ServerID_86aa7f3fa3b0&#45;&gt;localhost:3000#ServerID_86aa7f3fa3b0</title>
<path fill="none" stroke="black" d="M4240.91,-189.826C4234.89,-184.893 4229.39,-178.935 4226,-172 4220.95,-161.673 4226.44,-151.895 4235.1,-143.771"/>
<polygon fill="black" stroke="black" points="4237.43,-146.39 4242.97,-137.36 4233.01,-140.964 4237.43,-146.39"/>
<text text-anchor="middle" x="4245" y="-160.8" font-family="Times,serif" font-size="14.00">write</text>
</g>
<!-- pipe:[20744110]#ServerID_86aa7f3fa3b0 -->
<g id="node17" class="node"><title>pipe:[20744110]#ServerID_86aa7f3fa3b0</title>
<ellipse fill="none" stroke="black" cx="4774" cy="-121" rx="206.063" ry="18"/>
<text text-anchor="middle" x="4774" y="-117.3" font-family="Times,serif" font-size="14.00">pipe:[20744110]#ServerID_86aa7f3fa3b0</text>
</g>
<!-- 1_fwatchdog#ServerID_86aa7f3fa3b0&#45;&gt;pipe:[20744110]#ServerID_86aa7f3fa3b0 -->
<g id="edge23" class="edge"><title>1_fwatchdog#ServerID_86aa7f3fa3b0&#45;&gt;pipe:[20744110]#ServerID_86aa7f3fa3b0</title>
<path fill="none" stroke="black" d="M4371.88,-189.952C4459.7,-175.113 4586.3,-153.719 4673.89,-138.918"/>
<polygon fill="black" stroke="black" points="4674.56,-142.354 4683.83,-137.237 4673.39,-135.452 4674.56,-142.354"/>
<text text-anchor="middle" x="4572" y="-160.8" font-family="Times,serif" font-size="14.00">write</text>
</g>
<!-- localhost:3000#ServerID_86aa7f3fa3b0&#45;&gt;1_fwatchdog#ServerID_86aa7f3fa3b0 -->
<g id="edge21" class="edge"><title>localhost:3000#ServerID_86aa7f3fa3b0&#45;&gt;1_fwatchdog#ServerID_86aa7f3fa3b0</title>
<path fill="none" stroke="black" d="M4269.24,-139.071C4268.73,-144.766 4268.25,-151.151 4268,-157 4267.69,-164.355 4267.91,-172.313 4268.34,-179.672"/>
<polygon fill="black" stroke="black" points="4264.87,-180.17 4269.1,-189.883 4271.85,-179.651 4264.87,-180.17"/>
<text text-anchor="middle" x="4284.5" y="-160.8" font-family="Times,serif" font-size="14.00">read</text>
</g>
<!-- 10_node#ServerID_86aa7f3fa3b0 -->
<g id="node18" class="node"><title>10_node#ServerID_86aa7f3fa3b0</title>
<polygon fill="none" stroke="black" points="4400.5,-52 4141.5,-52 4141.5,-16 4400.5,-16 4400.5,-52"/>
<text text-anchor="middle" x="4271" y="-30.3" font-family="Times,serif" font-size="14.00">10_node#ServerID_86aa7f3fa3b0</text>
</g>
<!-- localhost:3000#ServerID_86aa7f3fa3b0&#45;&gt;10_node#ServerID_86aa7f3fa3b0 -->
<g id="edge24" class="edge"><title>localhost:3000#ServerID_86aa7f3fa3b0&#45;&gt;10_node#ServerID_86aa7f3fa3b0</title>
<path fill="none" stroke="black" d="M4271,-102.799C4271,-91.1626 4271,-75.5479 4271,-62.2368"/>
<polygon fill="black" stroke="black" points="4274.5,-62.1754 4271,-52.1754 4267.5,-62.1755 4274.5,-62.1754"/>
<text text-anchor="middle" x="4287.5" y="-73.8" font-family="Times,serif" font-size="14.00">read</text>
</g>
<!-- localhost:3000#ServerID_834d81eb81b3 -->
<g id="node20" class="node"><title>localhost:3000#ServerID_834d81eb81b3</title>
<polygon fill="none" stroke="black" points="5990,-139 5702.11,-121 5990,-103 6277.89,-121 5990,-139"/>
<text text-anchor="middle" x="5990" y="-117.3" font-family="Times,serif" font-size="14.00">localhost:3000#ServerID_834d81eb81b3</text>
</g>
<!-- 1_fwatchdog#ServerID_834d81eb81b3&#45;&gt;localhost:3000#ServerID_834d81eb81b3 -->
<g id="edge25" class="edge"><title>1_fwatchdog#ServerID_834d81eb81b3&#45;&gt;localhost:3000#ServerID_834d81eb81b3</title>
<path fill="none" stroke="black" d="M6012.15,-189.998C6021.32,-180.779 6028.82,-168.867 6024,-157 6022.35,-152.938 6019.98,-149.088 6017.25,-145.53"/>
<polygon fill="black" stroke="black" points="6019.63,-142.947 6010.38,-137.797 6014.4,-147.597 6019.63,-142.947"/>
<text text-anchor="middle" x="6054" y="-160.8" font-family="Times,serif" font-size="14.00">connect</text>
</g>
<!-- 1_fwatchdog#ServerID_834d81eb81b3&#45;&gt;localhost:3000#ServerID_834d81eb81b3 -->
<g id="edge27" class="edge"><title>1_fwatchdog#ServerID_834d81eb81b3&#45;&gt;localhost:3000#ServerID_834d81eb81b3</title>
<path fill="none" stroke="black" d="M5959.25,-189.939C5953.1,-185.002 5947.48,-179.013 5944,-172 5938.84,-161.597 5944.45,-151.801 5953.31,-143.684"/>
<polygon fill="black" stroke="black" points="5955.71,-146.25 5961.35,-137.284 5951.35,-140.773 5955.71,-146.25"/>
<text text-anchor="middle" x="5963" y="-160.8" font-family="Times,serif" font-size="14.00">write</text>
</g>
<!-- pipe:[20745046]#ServerID_834d81eb81b3 -->
<g id="node21" class="node"><title>pipe:[20745046]#ServerID_834d81eb81b3</title>
<ellipse fill="none" stroke="black" cx="6508" cy="-121" rx="211.762" ry="18"/>
<text text-anchor="middle" x="6508" y="-117.3" font-family="Times,serif" font-size="14.00">pipe:[20745046]#ServerID_834d81eb81b3</text>
</g>
<!-- 1_fwatchdog#ServerID_834d81eb81b3&#45;&gt;pipe:[20745046]#ServerID_834d81eb81b3 -->
<g id="edge29" class="edge"><title>1_fwatchdog#ServerID_834d81eb81b3&#45;&gt;pipe:[20745046]#ServerID_834d81eb81b3</title>
<path fill="none" stroke="black" d="M6093.89,-189.952C6184.42,-175.098 6314.97,-153.676 6405.17,-138.873"/>
<polygon fill="black" stroke="black" points="6405.84,-142.31 6415.15,-137.237 6404.71,-135.402 6405.84,-142.31"/>
<text text-anchor="middle" x="6299" y="-160.8" font-family="Times,serif" font-size="14.00">write</text>
</g>
<!-- localhost:3000#ServerID_834d81eb81b3&#45;&gt;1_fwatchdog#ServerID_834d81eb81b3 -->
<g id="edge26" class="edge"><title>localhost:3000#ServerID_834d81eb81b3&#45;&gt;1_fwatchdog#ServerID_834d81eb81b3</title>
<path fill="none" stroke="black" d="M5988.1,-139.117C5987.25,-148.769 5986.53,-161.053 5987,-172 5987.11,-174.559 5987.26,-177.221 5987.45,-179.882"/>
<polygon fill="black" stroke="black" points="5983.96,-180.237 5988.24,-189.929 5990.94,-179.683 5983.96,-180.237"/>
<text text-anchor="middle" x="6003.5" y="-160.8" font-family="Times,serif" font-size="14.00">read</text>
</g>
<!-- 10.1.80.1:2329#ServerID_OuterContainerID&#45;&gt;10.1.80.93:8080#ServerID_OuterContainerID -->
<g id="edge30" class="edge"><title>10.1.80.1:2329#ServerID_OuterContainerID&#45;&gt;10.1.80.93:8080#ServerID_OuterContainerID</title>
<path fill="none" stroke="black" d="M340.743,-225.449C348.653,-236.019 357.828,-250.453 362,-265 363.838,-271.408 364.151,-273.69 362,-280 360.763,-283.627 358.982,-287.171 356.915,-290.527"/>
<polygon fill="black" stroke="black" points="353.906,-288.718 350.956,-298.894 359.608,-292.779 353.906,-288.718"/>
<text text-anchor="middle" x="384" y="-268.8" font-family="Times,serif" font-size="14.00">POST</text>
</g>
</g>
</svg>
