<?xml version="1.0" encoding="UTF-8" standalone="no"?>
<!DOCTYPE svg PUBLIC "-//W3C//DTD SVG 1.1//EN"
 "http://www.w3.org/Graphics/SVG/1.1/DTD/svg11.dtd">
<!-- Generated by graphviz version 2.38.0 (20140413.2041)
 -->
<!-- Title: G Pages: 1 -->
<svg width="5247pt" height="597pt"
 viewBox="0.00 0.00 5247.00 597.00" xmlns="http://www.w3.org/2000/svg" xmlns:xlink="http://www.w3.org/1999/xlink">
<g id="graph0" class="graph" transform="scale(1 1) rotate(0) translate(4 593)">
<title>G</title>
<polygon fill="white" stroke="none" points="-4,4 -4,-593 5243,-593 5243,4 -4,4"/>
<g id="clust1" class="cluster"><title>clusterServerID_1f4f60deee3d</title>
<polygon fill="none" stroke="black" points="3711,-8 3711,-257 5231,-257 5231,-8 3711,-8"/>
<text text-anchor="middle" x="4471" y="-241.8" font-family="Times,serif" font-size="14.00">clusterServerID_1f4f60deee3d</text>
</g>
<g id="clust2" class="cluster"><title>clusterServerID_667d78fb58&#45;847xt</title>
<polygon fill="none" stroke="black" points="3363,-182 3363,-257 3703,-257 3703,-182 3363,-182"/>
<text text-anchor="middle" x="3533" y="-241.8" font-family="Times,serif" font-size="14.00">clusterServerID_667d78fb58&#45;847xt</text>
</g>
<g id="clust3" class="cluster"><title>clusterServerID_6dcbcc88d5&#45;mp48t</title>
<polygon fill="none" stroke="black" points="857,-398 857,-473 1205,-473 1205,-398 857,-398"/>
<text text-anchor="middle" x="1031" y="-457.8" font-family="Times,serif" font-size="14.00">clusterServerID_6dcbcc88d5&#45;mp48t</text>
</g>
<g id="clust4" class="cluster"><title>clusterServerID_OuterContainerID</title>
<polygon fill="none" stroke="black" points="8,-182 8,-365 3355,-365 3355,-182 8,-182"/>
<text text-anchor="middle" x="1681.5" y="-349.8" font-family="Times,serif" font-size="14.00">clusterServerID_OuterContainerID</text>
</g>
<g id="clust5" class="cluster"><title>clusterServerID_e47e2b15aff4</title>
<polygon fill="none" stroke="black" points="2313,-398 2313,-581 3405,-581 3405,-398 2313,-398"/>
<text text-anchor="middle" x="2859" y="-565.8" font-family="Times,serif" font-size="14.00">clusterServerID_e47e2b15aff4</text>
</g>
<!-- 1_fwatchdog#ServerID_6dcbcc88d5&#45;mp48t -->
<g id="node1" class="node"><title>1_fwatchdog#ServerID_6dcbcc88d5&#45;mp48t</title>
<polygon fill="none" stroke="black" points="1196.5,-442 865.5,-442 865.5,-406 1196.5,-406 1196.5,-442"/>
<text text-anchor="middle" x="1031" y="-420.3" font-family="Times,serif" font-size="14.00">1_fwatchdog#ServerID_6dcbcc88d5&#45;mp48t</text>
</g>
<!-- 10.1.80.183:8080#ServerID_OuterContainerID -->
<g id="node2" class="node"><title>10.1.80.183:8080#ServerID_OuterContainerID</title>
<polygon fill="none" stroke="black" points="1032,-334 704.56,-316 1032,-298 1359.44,-316 1032,-334"/>
<text text-anchor="middle" x="1032" y="-312.3" font-family="Times,serif" font-size="14.00">10.1.80.183:8080#ServerID_OuterContainerID</text>
</g>
<!-- 1_fwatchdog#ServerID_6dcbcc88d5&#45;mp48t&#45;&gt;10.1.80.183:8080#ServerID_OuterContainerID -->
<g id="edge1" class="edge"><title>1_fwatchdog#ServerID_6dcbcc88d5&#45;mp48t&#45;&gt;10.1.80.183:8080#ServerID_OuterContainerID</title>
<path fill="none" stroke="black" d="M1012.04,-405.736C1007.56,-400.523 1003.39,-394.455 1001,-388 998.687,-381.747 999.333,-379.455 1001,-373 1003.75,-362.348 1009.01,-351.56 1014.43,-342.334"/>
<polygon fill="black" stroke="black" points="1017.49,-344.03 1019.81,-333.692 1011.55,-340.33 1017.49,-344.03"/>
<text text-anchor="middle" x="1021" y="-376.8" font-family="Times,serif" font-size="14.00">POST</text>
</g>
<!-- 10.1.80.183:52578#ServerID_OuterContainerID -->
<g id="node3" class="node"><title>10.1.80.183:52578#ServerID_OuterContainerID</title>
<polygon fill="none" stroke="black" points="351,-334 15.5152,-316 351,-298 686.485,-316 351,-334"/>
<text text-anchor="middle" x="351" y="-312.3" font-family="Times,serif" font-size="14.00">10.1.80.183:52578#ServerID_OuterContainerID</text>
</g>
<!-- 1_fwatchdog#ServerID_6dcbcc88d5&#45;mp48t&#45;&gt;10.1.80.183:52578#ServerID_OuterContainerID -->
<g id="edge6" class="edge"><title>1_fwatchdog#ServerID_6dcbcc88d5&#45;mp48t&#45;&gt;10.1.80.183:52578#ServerID_OuterContainerID</title>
<path fill="none" stroke="black" d="M945.15,-405.958C891.72,-395.665 821.509,-382.706 759,-373 731.109,-368.669 723.978,-368.723 696,-365 612.155,-353.844 516.941,-340.55 447.811,-330.784"/>
<polygon fill="black" stroke="black" points="448.197,-327.304 437.805,-329.369 447.217,-334.235 448.197,-327.304"/>
<text text-anchor="middle" x="884" y="-376.8" font-family="Times,serif" font-size="14.00">RESPONSE</text>
</g>
<!-- gateway:8080#ServerID_OuterContainerID -->
<g id="node6" class="node"><title>gateway:8080#ServerID_OuterContainerID</title>
<polygon fill="none" stroke="black" points="2371,-334 2066.52,-316 2371,-298 2675.48,-316 2371,-334"/>
<text text-anchor="middle" x="2371" y="-312.3" font-family="Times,serif" font-size="14.00">gateway:8080#ServerID_OuterContainerID</text>
</g>
<!-- 1_fwatchdog#ServerID_6dcbcc88d5&#45;mp48t&#45;&gt;gateway:8080#ServerID_OuterContainerID -->
<g id="edge7" class="edge"><title>1_fwatchdog#ServerID_6dcbcc88d5&#45;mp48t&#45;&gt;gateway:8080#ServerID_OuterContainerID</title>
<path fill="none" stroke="black" d="M1196.67,-420.823C1440.13,-417.015 1882.77,-407.606 2041,-388 2136.01,-376.228 2244.14,-350.567 2309.96,-333.538"/>
<polygon fill="black" stroke="black" points="2310.96,-336.894 2319.76,-330.987 2309.2,-330.12 2310.96,-336.894"/>
<text text-anchor="middle" x="2153" y="-376.8" font-family="Times,serif" font-size="14.00">POST</text>
</g>
<!-- 10.1.80.183:8080#ServerID_OuterContainerID&#45;&gt;1_fwatchdog#ServerID_6dcbcc88d5&#45;mp48t -->
<g id="edge4" class="edge"><title>10.1.80.183:8080#ServerID_OuterContainerID&#45;&gt;1_fwatchdog#ServerID_6dcbcc88d5&#45;mp48t</title>
<path fill="none" stroke="black" d="M1036.68,-333.944C1040.05,-348.339 1043.59,-369.543 1041,-388 1040.64,-390.574 1040.14,-393.224 1039.55,-395.859"/>
<polygon fill="black" stroke="black" points="1036.1,-395.198 1036.96,-405.759 1042.87,-396.971 1036.1,-395.198"/>
<text text-anchor="middle" x="1084" y="-376.8" font-family="Times,serif" font-size="14.00">RESPONSE</text>
</g>
<!-- 10.1.80.1:38879#ServerID_OuterContainerID -->
<g id="node18" class="node"><title>10.1.80.1:38879#ServerID_OuterContainerID</title>
<polygon fill="none" stroke="black" points="925,-226 606.105,-208 925,-190 1243.9,-208 925,-226"/>
<text text-anchor="middle" x="925" y="-204.3" font-family="Times,serif" font-size="14.00">10.1.80.1:38879#ServerID_OuterContainerID</text>
</g>
<!-- 10.1.80.183:8080#ServerID_OuterContainerID&#45;&gt;10.1.80.1:38879#ServerID_OuterContainerID -->
<g id="edge25" class="edge"><title>10.1.80.183:8080#ServerID_OuterContainerID&#45;&gt;10.1.80.1:38879#ServerID_OuterContainerID</title>
<path fill="none" stroke="black" d="M954.679,-302.223C943.47,-297.075 933.28,-289.922 926,-280 916.846,-267.523 916.429,-250.21 918.381,-235.805"/>
<polygon fill="black" stroke="black" points="921.831,-236.397 920.131,-225.94 914.938,-235.175 921.831,-236.397"/>
<text text-anchor="middle" x="968" y="-268.8" font-family="Times,serif" font-size="14.00">RESPONSE</text>
</g>
<!-- 10.0.88.125:31112#ServerID_OuterContainerID -->
<g id="node19" class="node"><title>10.0.88.125:31112#ServerID_OuterContainerID</title>
<polygon fill="none" stroke="black" points="1597,-226 1261.52,-208 1597,-190 1932.48,-208 1597,-226"/>
<text text-anchor="middle" x="1597" y="-204.3" font-family="Times,serif" font-size="14.00">10.0.88.125:31112#ServerID_OuterContainerID</text>
</g>
<!-- 10.1.80.183:8080#ServerID_OuterContainerID&#45;&gt;10.0.88.125:31112#ServerID_OuterContainerID -->
<g id="edge27" class="edge"><title>10.1.80.183:8080#ServerID_OuterContainerID&#45;&gt;10.0.88.125:31112#ServerID_OuterContainerID</title>
<path fill="none" stroke="black" d="M1102.13,-301.843C1207.31,-282.11 1405.37,-244.952 1516.37,-224.127"/>
<polygon fill="black" stroke="black" points="1517.32,-227.509 1526.51,-222.225 1516.03,-220.629 1517.32,-227.509"/>
<text text-anchor="middle" x="1340" y="-268.8" font-family="Times,serif" font-size="14.00">RESPONSE</text>
</g>
<!-- 10.1.80.183:52578#ServerID_OuterContainerID&#45;&gt;1_fwatchdog#ServerID_6dcbcc88d5&#45;mp48t -->
<g id="edge2" class="edge"><title>10.1.80.183:52578#ServerID_OuterContainerID&#45;&gt;1_fwatchdog#ServerID_6dcbcc88d5&#45;mp48t</title>
<path fill="none" stroke="black" d="M413.902,-330.705C486.962,-346.258 611.255,-371.589 719,-388 762.959,-394.696 810.586,-400.678 855.078,-405.722"/>
<polygon fill="black" stroke="black" points="854.787,-409.211 865.116,-406.85 855.569,-402.255 854.787,-409.211"/>
<text text-anchor="middle" x="739" y="-376.8" font-family="Times,serif" font-size="14.00">POST</text>
</g>
<!-- 1_fwatchdog#ServerID_e47e2b15aff4 -->
<g id="node7" class="node"><title>1_fwatchdog#ServerID_e47e2b15aff4</title>
<polygon fill="none" stroke="black" points="3397,-550 3107,-550 3107,-514 3397,-514 3397,-550"/>
<text text-anchor="middle" x="3252" y="-528.3" font-family="Times,serif" font-size="14.00">1_fwatchdog#ServerID_e47e2b15aff4</text>
</g>
<!-- 10.1.80.183:52578#ServerID_OuterContainerID&#45;&gt;1_fwatchdog#ServerID_e47e2b15aff4 -->
<g id="edge12" class="edge"><title>10.1.80.183:52578#ServerID_OuterContainerID&#45;&gt;1_fwatchdog#ServerID_e47e2b15aff4</title>
<path fill="none" stroke="black" d="M424.391,-330.136C494.028,-341.903 601.749,-358.308 696,-365 821.795,-373.932 2839.95,-369.191 2966,-373 3014.83,-374.476 3371.45,-362.485 3405,-398 3427.89,-422.231 3423.94,-445.569 3405,-473 3393.54,-489.599 3376.67,-501.452 3358.27,-509.915"/>
<polygon fill="black" stroke="black" points="3356.67,-506.792 3348.83,-513.92 3359.4,-513.236 3356.67,-506.792"/>
<text text-anchor="middle" x="3437.5" y="-420.3" font-family="Times,serif" font-size="14.00">read</text>
</g>
<!-- 10.1.80.183:36500#ServerID_OuterContainerID -->
<g id="node4" class="node"><title>10.1.80.183:36500#ServerID_OuterContainerID</title>
<polygon fill="none" stroke="black" points="1713,-334 1377.52,-316 1713,-298 2048.48,-316 1713,-334"/>
<text text-anchor="middle" x="1713" y="-312.3" font-family="Times,serif" font-size="14.00">10.1.80.183:36500#ServerID_OuterContainerID</text>
</g>
<!-- 1_fwatchdog#ServerID_667d78fb58&#45;847xt -->
<g id="node5" class="node"><title>1_fwatchdog#ServerID_667d78fb58&#45;847xt</title>
<polygon fill="none" stroke="black" points="3695,-226 3371,-226 3371,-190 3695,-190 3695,-226"/>
<text text-anchor="middle" x="3533" y="-204.3" font-family="Times,serif" font-size="14.00">1_fwatchdog#ServerID_667d78fb58&#45;847xt</text>
</g>
<!-- 10.1.80.183:36500#ServerID_OuterContainerID&#45;&gt;1_fwatchdog#ServerID_667d78fb58&#45;847xt -->
<g id="edge3" class="edge"><title>10.1.80.183:36500#ServerID_OuterContainerID&#45;&gt;1_fwatchdog#ServerID_667d78fb58&#45;847xt</title>
<path fill="none" stroke="black" d="M1873.58,-306.576C1931.68,-303.664 1997.78,-300.506 2058,-298 2489.88,-280.029 2597.93,-277.587 3030,-265 3103.1,-262.87 3286.65,-267.693 3359,-257 3398.08,-251.224 3440.86,-239.498 3474.22,-229.082"/>
<polygon fill="black" stroke="black" points="3475.34,-232.4 3483.82,-226.043 3473.23,-225.727 3475.34,-232.4"/>
<text text-anchor="middle" x="3050" y="-268.8" font-family="Times,serif" font-size="14.00">POST</text>
</g>
<!-- 1_fwatchdog#ServerID_1f4f60deee3d -->
<g id="node13" class="node"><title>1_fwatchdog#ServerID_1f4f60deee3d</title>
<polygon fill="none" stroke="black" points="4659,-226 4369,-226 4369,-190 4659,-190 4659,-226"/>
<text text-anchor="middle" x="4514" y="-204.3" font-family="Times,serif" font-size="14.00">1_fwatchdog#ServerID_1f4f60deee3d</text>
</g>
<!-- 10.1.80.183:36500#ServerID_OuterContainerID&#45;&gt;1_fwatchdog#ServerID_1f4f60deee3d -->
<g id="edge18" class="edge"><title>10.1.80.183:36500#ServerID_OuterContainerID&#45;&gt;1_fwatchdog#ServerID_1f4f60deee3d</title>
<path fill="none" stroke="black" d="M1867.09,-306.228C1926.71,-303.143 1995.51,-299.96 2058,-298 2651.1,-279.395 2800.05,-302.761 3393,-280 3738.04,-266.755 4142.05,-237.867 4358.4,-221.31"/>
<polygon fill="black" stroke="black" points="4358.86,-224.786 4368.56,-220.532 4358.32,-217.806 4358.86,-224.786"/>
<text text-anchor="middle" x="3718.5" y="-268.8" font-family="Times,serif" font-size="14.00">read</text>
</g>
<!-- 1_fwatchdog#ServerID_667d78fb58&#45;847xt&#45;&gt;10.1.80.183:36500#ServerID_OuterContainerID -->
<g id="edge8" class="edge"><title>1_fwatchdog#ServerID_667d78fb58&#45;847xt&#45;&gt;10.1.80.183:36500#ServerID_OuterContainerID</title>
<path fill="none" stroke="black" d="M3481.05,-226.116C3446.77,-236.717 3400.66,-249.664 3359,-257 3232.1,-279.344 3198.7,-273.74 3070,-280 2620.68,-301.855 2507.6,-282.928 2058,-298 1999.48,-299.962 1935.41,-302.9 1878.55,-305.784"/>
<polygon fill="black" stroke="black" points="1878.19,-302.298 1868.38,-306.303 1878.55,-309.289 1878.19,-302.298"/>
<text text-anchor="middle" x="3347" y="-268.8" font-family="Times,serif" font-size="14.00">RESPONSE</text>
</g>
<!-- gateway:8080#ServerID_OuterContainerID&#45;&gt;1_fwatchdog#ServerID_6dcbcc88d5&#45;mp48t -->
<g id="edge5" class="edge"><title>gateway:8080#ServerID_OuterContainerID&#45;&gt;1_fwatchdog#ServerID_6dcbcc88d5&#45;mp48t</title>
<path fill="none" stroke="black" d="M2299.85,-329.855C2236.37,-340.851 2140.78,-356.248 2057,-365 1897.41,-381.671 1455.52,-403.55 1206.85,-415.088"/>
<polygon fill="black" stroke="black" points="1206.45,-411.602 1196.63,-415.561 1206.78,-418.595 1206.45,-411.602"/>
<text text-anchor="middle" x="1995" y="-376.8" font-family="Times,serif" font-size="14.00">RESPONSE</text>
</g>
<!-- localhost:3000#ServerID_e47e2b15aff4 -->
<g id="node8" class="node"><title>localhost:3000#ServerID_e47e2b15aff4</title>
<polygon fill="none" stroke="black" points="3117,-442 2837.65,-424 3117,-406 3396.35,-424 3117,-442"/>
<text text-anchor="middle" x="3117" y="-420.3" font-family="Times,serif" font-size="14.00">localhost:3000#ServerID_e47e2b15aff4</text>
</g>
<!-- 1_fwatchdog#ServerID_e47e2b15aff4&#45;&gt;localhost:3000#ServerID_e47e2b15aff4 -->
<g id="edge9" class="edge"><title>1_fwatchdog#ServerID_e47e2b15aff4&#45;&gt;localhost:3000#ServerID_e47e2b15aff4</title>
<path fill="none" stroke="black" d="M3203.53,-513.982C3192.91,-509.07 3182.12,-503.082 3173,-496 3156.77,-483.406 3142.5,-465.138 3132.43,-450.286"/>
<polygon fill="black" stroke="black" points="3135.13,-448.013 3126.72,-441.562 3129.27,-451.846 3135.13,-448.013"/>
<text text-anchor="middle" x="3202" y="-484.8" font-family="Times,serif" font-size="14.00">connect</text>
</g>
<!-- 1_fwatchdog#ServerID_e47e2b15aff4&#45;&gt;localhost:3000#ServerID_e47e2b15aff4 -->
<g id="edge11" class="edge"><title>1_fwatchdog#ServerID_e47e2b15aff4&#45;&gt;localhost:3000#ServerID_e47e2b15aff4</title>
<path fill="none" stroke="black" d="M3247.99,-513.537C3244.84,-503.054 3239.52,-490.043 3231,-481 3215.13,-464.164 3193.12,-451.721 3172.66,-442.899"/>
<polygon fill="black" stroke="black" points="3173.98,-439.657 3163.4,-439.097 3171.32,-446.133 3173.98,-439.657"/>
<text text-anchor="middle" x="3260" y="-484.8" font-family="Times,serif" font-size="14.00">write</text>
</g>
<!-- localhost:3000#ServerID_e47e2b15aff4&#45;&gt;1_fwatchdog#ServerID_e47e2b15aff4 -->
<g id="edge10" class="edge"><title>localhost:3000#ServerID_e47e2b15aff4&#45;&gt;1_fwatchdog#ServerID_e47e2b15aff4</title>
<path fill="none" stroke="black" d="M3113.13,-441.924C3110.58,-457.714 3109.67,-481.026 3122,-496 3126.66,-501.662 3136.86,-506.651 3149.58,-510.957"/>
<polygon fill="black" stroke="black" points="3148.67,-514.338 3159.26,-513.972 3150.75,-507.655 3148.67,-514.338"/>
<text text-anchor="middle" x="3138.5" y="-484.8" font-family="Times,serif" font-size="14.00">read</text>
</g>
<!-- /etc/hosts#ServerID_e47e2b15aff4 -->
<g id="node9" class="node"><title>/etc/hosts#ServerID_e47e2b15aff4</title>
<ellipse fill="none" stroke="black" cx="2914" cy="-532" rx="174.669" ry="18"/>
<text text-anchor="middle" x="2914" y="-528.3" font-family="Times,serif" font-size="14.00">/etc/hosts#ServerID_e47e2b15aff4</text>
</g>
<!-- 9_node#ServerID_e47e2b15aff4 -->
<g id="node10" class="node"><title>9_node#ServerID_e47e2b15aff4</title>
<polygon fill="none" stroke="black" points="2820,-442 2570,-442 2570,-406 2820,-406 2820,-442"/>
<text text-anchor="middle" x="2695" y="-420.3" font-family="Times,serif" font-size="14.00">9_node#ServerID_e47e2b15aff4</text>
</g>
<!-- /etc/hosts#ServerID_e47e2b15aff4&#45;&gt;9_node#ServerID_e47e2b15aff4 -->
<g id="edge13" class="edge"><title>/etc/hosts#ServerID_e47e2b15aff4&#45;&gt;9_node#ServerID_e47e2b15aff4</title>
<path fill="none" stroke="black" d="M2879.3,-514.204C2841.4,-495.86 2780.6,-466.432 2739.29,-446.435"/>
<polygon fill="black" stroke="black" points="2740.79,-443.275 2730.26,-442.068 2737.74,-449.576 2740.79,-443.275"/>
<text text-anchor="middle" x="2853.5" y="-484.8" font-family="Times,serif" font-size="14.00">read</text>
</g>
<!-- 9_node#ServerID_e47e2b15aff4&#45;&gt;gateway:8080#ServerID_OuterContainerID -->
<g id="edge20" class="edge"><title>9_node#ServerID_e47e2b15aff4&#45;&gt;gateway:8080#ServerID_OuterContainerID</title>
<path fill="none" stroke="black" d="M2642.94,-405.969C2583.13,-386.4 2485.45,-354.444 2424.88,-334.627"/>
<polygon fill="black" stroke="black" points="2425.71,-331.217 2415.12,-331.434 2423.54,-337.87 2425.71,-331.217"/>
<text text-anchor="middle" x="2610" y="-376.8" font-family="Times,serif" font-size="14.00">connect</text>
</g>
<!-- 10.152.183.10:53#ServerID_OuterContainerID -->
<g id="node12" class="node"><title>10.152.183.10:53#ServerID_OuterContainerID</title>
<polygon fill="none" stroke="black" points="3020,-334 2692.56,-316 3020,-298 3347.44,-316 3020,-334"/>
<text text-anchor="middle" x="3020" y="-312.3" font-family="Times,serif" font-size="14.00">10.152.183.10:53#ServerID_OuterContainerID</text>
</g>
<!-- 9_node#ServerID_e47e2b15aff4&#45;&gt;10.152.183.10:53#ServerID_OuterContainerID -->
<g id="edge15" class="edge"><title>9_node#ServerID_e47e2b15aff4&#45;&gt;10.152.183.10:53#ServerID_OuterContainerID</title>
<path fill="none" stroke="black" d="M2728.57,-405.921C2750.04,-395.455 2778.7,-382.323 2805,-373 2851.11,-356.652 2904.3,-342.758 2946.24,-332.898"/>
<polygon fill="black" stroke="black" points="2947.16,-336.279 2956.11,-330.605 2945.57,-329.461 2947.16,-336.279"/>
<text text-anchor="middle" x="2829.5" y="-376.8" font-family="Times,serif" font-size="14.00">sendto</text>
</g>
<!-- /etc/resolv.conf#ServerID_e47e2b15aff4 -->
<g id="node11" class="node"><title>/etc/resolv.conf#ServerID_e47e2b15aff4</title>
<ellipse fill="none" stroke="black" cx="2521" cy="-532" rx="200.365" ry="18"/>
<text text-anchor="middle" x="2521" y="-528.3" font-family="Times,serif" font-size="14.00">/etc/resolv.conf#ServerID_e47e2b15aff4</text>
</g>
<!-- /etc/resolv.conf#ServerID_e47e2b15aff4&#45;&gt;9_node#ServerID_e47e2b15aff4 -->
<g id="edge14" class="edge"><title>/etc/resolv.conf#ServerID_e47e2b15aff4&#45;&gt;9_node#ServerID_e47e2b15aff4</title>
<path fill="none" stroke="black" d="M2548.96,-513.969C2578.55,-495.942 2625.4,-467.402 2658.02,-447.525"/>
<polygon fill="black" stroke="black" points="2660.11,-450.356 2666.82,-442.164 2656.46,-444.378 2660.11,-450.356"/>
<text text-anchor="middle" x="2619.5" y="-484.8" font-family="Times,serif" font-size="14.00">read</text>
</g>
<!-- 10.152.183.10:53#ServerID_OuterContainerID&#45;&gt;9_node#ServerID_e47e2b15aff4 -->
<g id="edge16" class="edge"><title>10.152.183.10:53#ServerID_OuterContainerID&#45;&gt;9_node#ServerID_e47e2b15aff4</title>
<path fill="none" stroke="black" d="M2988.85,-332.414C2955.98,-348.177 2902.35,-372.489 2854,-388 2835.66,-393.882 2815.83,-399.112 2796.59,-403.62"/>
<polygon fill="black" stroke="black" points="2795.56,-400.266 2786.59,-405.912 2797.12,-407.089 2795.56,-400.266"/>
<text text-anchor="middle" x="2929" y="-376.8" font-family="Times,serif" font-size="14.00">recvfrom</text>
</g>
<!-- localhost:3000#ServerID_1f4f60deee3d -->
<g id="node14" class="node"><title>localhost:3000#ServerID_1f4f60deee3d</title>
<polygon fill="none" stroke="black" points="4514,-139 4234.65,-121 4514,-103 4793.35,-121 4514,-139"/>
<text text-anchor="middle" x="4514" y="-117.3" font-family="Times,serif" font-size="14.00">localhost:3000#ServerID_1f4f60deee3d</text>
</g>
<!-- 1_fwatchdog#ServerID_1f4f60deee3d&#45;&gt;localhost:3000#ServerID_1f4f60deee3d -->
<g id="edge17" class="edge"><title>1_fwatchdog#ServerID_1f4f60deee3d&#45;&gt;localhost:3000#ServerID_1f4f60deee3d</title>
<path fill="none" stroke="black" d="M4514,-189.799C4514,-178.163 4514,-162.548 4514,-149.237"/>
<polygon fill="black" stroke="black" points="4517.5,-149.175 4514,-139.175 4510.5,-149.175 4517.5,-149.175"/>
<text text-anchor="middle" x="4543" y="-160.8" font-family="Times,serif" font-size="14.00">connect</text>
</g>
<!-- 1_fwatchdog#ServerID_1f4f60deee3d&#45;&gt;localhost:3000#ServerID_1f4f60deee3d -->
<g id="edge21" class="edge"><title>1_fwatchdog#ServerID_1f4f60deee3d&#45;&gt;localhost:3000#ServerID_1f4f60deee3d</title>
<path fill="none" stroke="black" d="M4555.64,-189.892C4562.59,-185.144 4568.87,-179.244 4573,-172 4579.69,-160.245 4571.98,-149.999 4560.16,-141.893"/>
<polygon fill="black" stroke="black" points="4561.82,-138.807 4551.45,-136.632 4558.2,-144.799 4561.82,-138.807"/>
<text text-anchor="middle" x="4594" y="-160.8" font-family="Times,serif" font-size="14.00">write</text>
</g>
<!-- pipe:[77303348]#ServerID_1f4f60deee3d -->
<g id="node17" class="node"><title>pipe:[77303348]#ServerID_1f4f60deee3d</title>
<ellipse fill="none" stroke="black" cx="5017" cy="-121" rx="206.063" ry="18"/>
<text text-anchor="middle" x="5017" y="-117.3" font-family="Times,serif" font-size="14.00">pipe:[77303348]#ServerID_1f4f60deee3d</text>
</g>
<!-- 1_fwatchdog#ServerID_1f4f60deee3d&#45;&gt;pipe:[77303348]#ServerID_1f4f60deee3d -->
<g id="edge24" class="edge"><title>1_fwatchdog#ServerID_1f4f60deee3d&#45;&gt;pipe:[77303348]#ServerID_1f4f60deee3d</title>
<path fill="none" stroke="black" d="M4614.88,-189.952C4702.7,-175.113 4829.3,-153.719 4916.89,-138.918"/>
<polygon fill="black" stroke="black" points="4917.56,-142.354 4926.83,-137.237 4916.39,-135.452 4917.56,-142.354"/>
<text text-anchor="middle" x="4814" y="-160.8" font-family="Times,serif" font-size="14.00">write</text>
</g>
<!-- localhost:3000#ServerID_1f4f60deee3d&#45;&gt;1_fwatchdog#ServerID_1f4f60deee3d -->
<g id="edge19" class="edge"><title>localhost:3000#ServerID_1f4f60deee3d&#45;&gt;1_fwatchdog#ServerID_1f4f60deee3d</title>
<path fill="none" stroke="black" d="M4490.9,-137.918C4480.5,-147.195 4471.62,-159.503 4477,-172 4478.57,-175.642 4480.72,-179.082 4483.21,-182.279"/>
<polygon fill="black" stroke="black" points="4480.62,-184.639 4489.93,-189.702 4485.81,-179.94 4480.62,-184.639"/>
<text text-anchor="middle" x="4493.5" y="-160.8" font-family="Times,serif" font-size="14.00">read</text>
</g>
<!-- 10_node#ServerID_1f4f60deee3d -->
<g id="node15" class="node"><title>10_node#ServerID_1f4f60deee3d</title>
<polygon fill="none" stroke="black" points="4369.5,-52 4110.5,-52 4110.5,-16 4369.5,-16 4369.5,-52"/>
<text text-anchor="middle" x="4240" y="-30.3" font-family="Times,serif" font-size="14.00">10_node#ServerID_1f4f60deee3d</text>
</g>
<!-- localhost:3000#ServerID_1f4f60deee3d&#45;&gt;10_node#ServerID_1f4f60deee3d -->
<g id="edge22" class="edge"><title>localhost:3000#ServerID_1f4f60deee3d&#45;&gt;10_node#ServerID_1f4f60deee3d</title>
<path fill="none" stroke="black" d="M4468.45,-105.869C4423.79,-92.0162 4355.29,-70.764 4304.93,-55.144"/>
<polygon fill="black" stroke="black" points="4305.71,-51.7191 4295.12,-52.099 4303.63,-58.4048 4305.71,-51.7191"/>
<text text-anchor="middle" x="4409.5" y="-73.8" font-family="Times,serif" font-size="14.00">read</text>
</g>
<!-- /home/app/credentials.txt#ServerID_1f4f60deee3d -->
<g id="node16" class="node"><title>/home/app/credentials.txt#ServerID_1f4f60deee3d</title>
<ellipse fill="none" stroke="black" cx="3968" cy="-121" rx="248.856" ry="18"/>
<text text-anchor="middle" x="3968" y="-117.3" font-family="Times,serif" font-size="14.00">/home/app/credentials.txt#ServerID_1f4f60deee3d</text>
</g>
<!-- /home/app/credentials.txt#ServerID_1f4f60deee3d&#45;&gt;10_node#ServerID_1f4f60deee3d -->
<g id="edge23" class="edge"><title>/home/app/credentials.txt#ServerID_1f4f60deee3d&#45;&gt;10_node#ServerID_1f4f60deee3d</title>
<path fill="none" stroke="black" d="M4021.09,-103.409C4065.26,-89.6072 4128.29,-69.9096 4175.38,-55.1925"/>
<polygon fill="black" stroke="black" points="4176.68,-58.455 4185.18,-52.1315 4174.59,-51.7736 4176.68,-58.455"/>
<text text-anchor="middle" x="4136.5" y="-73.8" font-family="Times,serif" font-size="14.00">read</text>
</g>
<!-- 10.1.80.1:38879#ServerID_OuterContainerID&#45;&gt;10.1.80.183:8080#ServerID_OuterContainerID -->
<g id="edge26" class="edge"><title>10.1.80.1:38879#ServerID_OuterContainerID&#45;&gt;10.1.80.183:8080#ServerID_OuterContainerID</title>
<path fill="none" stroke="black" d="M956.966,-224.267C974.486,-233.938 995.518,-247.854 1010,-265 1015.74,-271.799 1020.23,-280.332 1023.61,-288.415"/>
<polygon fill="black" stroke="black" points="1020.39,-289.787 1027.2,-297.903 1026.94,-287.311 1020.39,-289.787"/>
<text text-anchor="middle" x="1040" y="-268.8" font-family="Times,serif" font-size="14.00">POST</text>
</g>
</g>
</svg>
