<?xml version="1.0" encoding="UTF-8" standalone="no"?>
<!DOCTYPE svg PUBLIC "-//W3C//DTD SVG 1.1//EN"
 "http://www.w3.org/Graphics/SVG/1.1/DTD/svg11.dtd">
<!-- Generated by graphviz version 2.38.0 (20140413.2041)
 -->
<!-- Title: G Pages: 1 -->
<svg width="7542pt" height="489pt"
 viewBox="0.00 0.00 7542.00 489.00" xmlns="http://www.w3.org/2000/svg" xmlns:xlink="http://www.w3.org/1999/xlink">
<g id="graph0" class="graph" transform="scale(1 1) rotate(0) translate(4 485)">
<title>G</title>
<polygon fill="white" stroke="none" points="-4,4 -4,-485 7538,-485 7538,4 -4,4"/>
<g id="clust1" class="cluster"><title>clusterServerID_667d78fb58&#45;2fhs5</title>
<polygon fill="none" stroke="black" points="4238,-398 4238,-473 4578,-473 4578,-398 4238,-398"/>
<text text-anchor="middle" x="4408" y="-457.8" font-family="Times,serif" font-size="14.00">clusterServerID_667d78fb58&#45;2fhs5</text>
</g>
<g id="clust2" class="cluster"><title>clusterServerID_6dcbcc88d5&#45;4vpdn</title>
<polygon fill="none" stroke="black" points="7182,-182 7182,-257 7526,-257 7526,-182 7182,-182"/>
<text text-anchor="middle" x="7354" y="-241.8" font-family="Times,serif" font-size="14.00">clusterServerID_6dcbcc88d5&#45;4vpdn</text>
</g>
<g id="clust3" class="cluster"><title>clusterServerID_79226724f3b6</title>
<polygon fill="none" stroke="black" points="6138,-8 6138,-257 7174,-257 7174,-8 6138,-8"/>
<text text-anchor="middle" x="6656" y="-241.8" font-family="Times,serif" font-size="14.00">clusterServerID_79226724f3b6</text>
</g>
<g id="clust4" class="cluster"><title>clusterServerID_OuterContainerID</title>
<polygon fill="none" stroke="black" points="1406,-182 1406,-365 6130,-365 6130,-182 1406,-182"/>
<text text-anchor="middle" x="3768" y="-349.8" font-family="Times,serif" font-size="14.00">clusterServerID_OuterContainerID</text>
</g>
<g id="clust5" class="cluster"><title>clusterServerID_d4de233c55aa</title>
<polygon fill="none" stroke="black" points="8,-182 8,-473 1398,-473 1398,-182 8,-182"/>
<text text-anchor="middle" x="703" y="-457.8" font-family="Times,serif" font-size="14.00">clusterServerID_d4de233c55aa</text>
</g>
<!-- 10.1.80.247:34040#ServerID_OuterContainerID -->
<g id="node1" class="node"><title>10.1.80.247:34040#ServerID_OuterContainerID</title>
<polygon fill="none" stroke="black" points="4409,-334 4073.52,-316 4409,-298 4744.48,-316 4409,-334"/>
<text text-anchor="middle" x="4409" y="-312.3" font-family="Times,serif" font-size="14.00">10.1.80.247:34040#ServerID_OuterContainerID</text>
</g>
<!-- 1_fwatchdog#ServerID_667d78fb58&#45;2fhs5 -->
<g id="node2" class="node"><title>1_fwatchdog#ServerID_667d78fb58&#45;2fhs5</title>
<polygon fill="none" stroke="black" points="4569.5,-442 4246.5,-442 4246.5,-406 4569.5,-406 4569.5,-442"/>
<text text-anchor="middle" x="4408" y="-420.3" font-family="Times,serif" font-size="14.00">1_fwatchdog#ServerID_667d78fb58&#45;2fhs5</text>
</g>
<!-- 10.1.80.247:34040#ServerID_OuterContainerID&#45;&gt;1_fwatchdog#ServerID_667d78fb58&#45;2fhs5 -->
<g id="edge1" class="edge"><title>10.1.80.247:34040#ServerID_OuterContainerID&#45;&gt;1_fwatchdog#ServerID_667d78fb58&#45;2fhs5</title>
<path fill="none" stroke="black" d="M4424.08,-333.48C4435.24,-347.767 4447.35,-369.067 4440,-388 4438.64,-391.507 4436.74,-394.876 4434.55,-398.046"/>
<polygon fill="black" stroke="black" points="4431.75,-395.944 4428.2,-405.928 4437.2,-400.335 4431.75,-395.944"/>
<text text-anchor="middle" x="4463" y="-376.8" font-family="Times,serif" font-size="14.00">POST</text>
</g>
<!-- 1_fwatchdog#ServerID_79226724f3b6 -->
<g id="node13" class="node"><title>1_fwatchdog#ServerID_79226724f3b6</title>
<polygon fill="none" stroke="black" points="6518,-226 6222,-226 6222,-190 6518,-190 6518,-226"/>
<text text-anchor="middle" x="6370" y="-204.3" font-family="Times,serif" font-size="14.00">1_fwatchdog#ServerID_79226724f3b6</text>
</g>
<!-- 10.1.80.247:34040#ServerID_OuterContainerID&#45;&gt;1_fwatchdog#ServerID_79226724f3b6 -->
<g id="edge16" class="edge"><title>10.1.80.247:34040#ServerID_OuterContainerID&#45;&gt;1_fwatchdog#ServerID_79226724f3b6</title>
<path fill="none" stroke="black" d="M4569.15,-306.585C4627.35,-303.666 4693.63,-300.5 4754,-298 5190.76,-279.909 5300.02,-276.737 5737,-265 5825.21,-262.631 6046.3,-266.722 6134,-257 6187.62,-251.056 6247.14,-238.91 6293,-228.323"/>
<polygon fill="black" stroke="black" points="6293.92,-231.702 6302.86,-226.021 6292.33,-224.885 6293.92,-231.702"/>
<text text-anchor="middle" x="5753.5" y="-268.8" font-family="Times,serif" font-size="14.00">read</text>
</g>
<!-- 1_fwatchdog#ServerID_667d78fb58&#45;2fhs5&#45;&gt;10.1.80.247:34040#ServerID_OuterContainerID -->
<g id="edge6" class="edge"><title>1_fwatchdog#ServerID_667d78fb58&#45;2fhs5&#45;&gt;10.1.80.247:34040#ServerID_OuterContainerID</title>
<path fill="none" stroke="black" d="M4369.07,-405.889C4356.19,-397.513 4346.4,-386.341 4352,-373 4357.43,-360.053 4367.47,-348.591 4377.64,-339.463"/>
<polygon fill="black" stroke="black" points="4379.97,-342.075 4385.36,-332.952 4375.46,-336.724 4379.97,-342.075"/>
<text text-anchor="middle" x="4394" y="-376.8" font-family="Times,serif" font-size="14.00">RESPONSE</text>
</g>
<!-- 10.1.80.247:8080#ServerID_OuterContainerID -->
<g id="node3" class="node"><title>10.1.80.247:8080#ServerID_OuterContainerID</title>
<polygon fill="none" stroke="black" points="3039,-334 2711.56,-316 3039,-298 3366.44,-316 3039,-334"/>
<text text-anchor="middle" x="3039" y="-312.3" font-family="Times,serif" font-size="14.00">10.1.80.247:8080#ServerID_OuterContainerID</text>
</g>
<!-- 1_fwatchdog#ServerID_6dcbcc88d5&#45;4vpdn -->
<g id="node4" class="node"><title>1_fwatchdog#ServerID_6dcbcc88d5&#45;4vpdn</title>
<polygon fill="none" stroke="black" points="7518.5,-226 7189.5,-226 7189.5,-190 7518.5,-190 7518.5,-226"/>
<text text-anchor="middle" x="7354" y="-204.3" font-family="Times,serif" font-size="14.00">1_fwatchdog#ServerID_6dcbcc88d5&#45;4vpdn</text>
</g>
<!-- 10.1.80.247:8080#ServerID_OuterContainerID&#45;&gt;1_fwatchdog#ServerID_6dcbcc88d5&#45;4vpdn -->
<g id="edge2" class="edge"><title>10.1.80.247:8080#ServerID_OuterContainerID&#45;&gt;1_fwatchdog#ServerID_6dcbcc88d5&#45;4vpdn</title>
<path fill="none" stroke="black" d="M3189.94,-306.256C3248.07,-303.185 3315.11,-300.004 3376,-298 3895.78,-280.897 4026.37,-301.228 4546,-280 4646.58,-275.891 4671.4,-268.502 4772,-265 4838.79,-262.675 7111.77,-265.981 7178,-257 7217.85,-251.596 7261.46,-239.746 7295.3,-229.172"/>
<polygon fill="black" stroke="black" points="7296.56,-232.447 7305.03,-226.086 7294.44,-225.775 7296.56,-232.447"/>
<text text-anchor="middle" x="4814" y="-268.8" font-family="Times,serif" font-size="14.00">RESPONSE</text>
</g>
<!-- 10.1.80.1:6483#ServerID_OuterContainerID -->
<g id="node19" class="node"><title>10.1.80.1:6483#ServerID_OuterContainerID</title>
<polygon fill="none" stroke="black" points="2976,-226 2665.15,-208 2976,-190 3286.85,-208 2976,-226"/>
<text text-anchor="middle" x="2976" y="-204.3" font-family="Times,serif" font-size="14.00">10.1.80.1:6483#ServerID_OuterContainerID</text>
</g>
<!-- 10.1.80.247:8080#ServerID_OuterContainerID&#45;&gt;10.1.80.1:6483#ServerID_OuterContainerID -->
<g id="edge26" class="edge"><title>10.1.80.247:8080#ServerID_OuterContainerID&#45;&gt;10.1.80.1:6483#ServerID_OuterContainerID</title>
<path fill="none" stroke="black" d="M3032.55,-297.886C3028.57,-288.015 3023.07,-275.515 3017,-265 3010.82,-254.292 3003.01,-243.173 2995.87,-233.691"/>
<polygon fill="black" stroke="black" points="2998.44,-231.291 2989.56,-225.504 2992.89,-235.562 2998.44,-231.291"/>
<text text-anchor="middle" x="3067" y="-268.8" font-family="Times,serif" font-size="14.00">RESPONSE</text>
</g>
<!-- 10.0.88.125:31112#ServerID_OuterContainerID -->
<g id="node20" class="node"><title>10.0.88.125:31112#ServerID_OuterContainerID</title>
<polygon fill="none" stroke="black" points="2312,-226 1976.52,-208 2312,-190 2647.48,-208 2312,-226"/>
<text text-anchor="middle" x="2312" y="-204.3" font-family="Times,serif" font-size="14.00">10.0.88.125:31112#ServerID_OuterContainerID</text>
</g>
<!-- 10.1.80.247:8080#ServerID_OuterContainerID&#45;&gt;10.0.88.125:31112#ServerID_OuterContainerID -->
<g id="edge27" class="edge"><title>10.1.80.247:8080#ServerID_OuterContainerID&#45;&gt;10.0.88.125:31112#ServerID_OuterContainerID</title>
<path fill="none" stroke="black" d="M2954.18,-302.633C2817.74,-282.74 2550.4,-243.76 2407.47,-222.921"/>
<polygon fill="black" stroke="black" points="2407.8,-219.432 2397.4,-221.452 2406.79,-226.358 2407.8,-219.432"/>
<text text-anchor="middle" x="2826" y="-268.8" font-family="Times,serif" font-size="14.00">RESPONSE</text>
</g>
<!-- 10.1.80.1:1364#ServerID_OuterContainerID -->
<g id="node21" class="node"><title>10.1.80.1:1364#ServerID_OuterContainerID</title>
<polygon fill="none" stroke="black" points="3615,-226 3304.15,-208 3615,-190 3925.85,-208 3615,-226"/>
<text text-anchor="middle" x="3615" y="-204.3" font-family="Times,serif" font-size="14.00">10.1.80.1:1364#ServerID_OuterContainerID</text>
</g>
<!-- 10.1.80.247:8080#ServerID_OuterContainerID&#45;&gt;10.1.80.1:1364#ServerID_OuterContainerID -->
<g id="edge29" class="edge"><title>10.1.80.247:8080#ServerID_OuterContainerID&#45;&gt;10.1.80.1:1364#ServerID_OuterContainerID</title>
<path fill="none" stroke="black" d="M3169.18,-305.102C3226.21,-299.593 3293.73,-291.474 3354,-280 3426.37,-266.221 3508.07,-242.665 3560.47,-226.49"/>
<polygon fill="black" stroke="black" points="3561.72,-229.768 3570.23,-223.459 3559.64,-223.083 3561.72,-229.768"/>
<text text-anchor="middle" x="3462" y="-268.8" font-family="Times,serif" font-size="14.00">RESPONSE</text>
</g>
<!-- 1_fwatchdog#ServerID_6dcbcc88d5&#45;4vpdn&#45;&gt;10.1.80.247:8080#ServerID_OuterContainerID -->
<g id="edge8" class="edge"><title>1_fwatchdog#ServerID_6dcbcc88d5&#45;4vpdn&#45;&gt;10.1.80.247:8080#ServerID_OuterContainerID</title>
<path fill="none" stroke="black" d="M7305.03,-226.076C7270.11,-237.329 7221.78,-251.048 7178,-257 7123.17,-264.455 5241.32,-263.632 5186,-265 5039.23,-268.629 5002.76,-275.773 4856,-280 4198.45,-298.938 4033.5,-277.425 3376,-298 3318.14,-299.811 3254.74,-302.756 3198.69,-305.691"/>
<polygon fill="black" stroke="black" points="3198.48,-302.197 3188.68,-306.219 3198.85,-309.188 3198.48,-302.197"/>
<text text-anchor="middle" x="5206" y="-268.8" font-family="Times,serif" font-size="14.00">POST</text>
</g>
<!-- 10.1.80.247:60892#ServerID_OuterContainerID -->
<g id="node5" class="node"><title>10.1.80.247:60892#ServerID_OuterContainerID</title>
<polygon fill="none" stroke="black" points="5787,-334 5451.52,-316 5787,-298 6122.48,-316 5787,-334"/>
<text text-anchor="middle" x="5787" y="-312.3" font-family="Times,serif" font-size="14.00">10.1.80.247:60892#ServerID_OuterContainerID</text>
</g>
<!-- 1_fwatchdog#ServerID_6dcbcc88d5&#45;4vpdn&#45;&gt;10.1.80.247:60892#ServerID_OuterContainerID -->
<g id="edge3" class="edge"><title>1_fwatchdog#ServerID_6dcbcc88d5&#45;4vpdn&#45;&gt;10.1.80.247:60892#ServerID_OuterContainerID</title>
<path fill="none" stroke="black" d="M7304.23,-226.002C7269.35,-237.065 7221.39,-250.589 7178,-257 7113.12,-266.585 6948.54,-262.617 6883,-265 6556.26,-276.882 6174.94,-295.309 5959.13,-306.162"/>
<polygon fill="black" stroke="black" points="5958.79,-302.675 5948.98,-306.673 5959.15,-309.666 5958.79,-302.675"/>
<text text-anchor="middle" x="6925" y="-268.8" font-family="Times,serif" font-size="14.00">RESPONSE</text>
</g>
<!-- gateway:8080#ServerID_OuterContainerID -->
<g id="node6" class="node"><title>gateway:8080#ServerID_OuterContainerID</title>
<polygon fill="none" stroke="black" points="2390,-334 2085.52,-316 2390,-298 2694.48,-316 2390,-334"/>
<text text-anchor="middle" x="2390" y="-312.3" font-family="Times,serif" font-size="14.00">gateway:8080#ServerID_OuterContainerID</text>
</g>
<!-- 1_fwatchdog#ServerID_6dcbcc88d5&#45;4vpdn&#45;&gt;gateway:8080#ServerID_OuterContainerID -->
<g id="edge5" class="edge"><title>1_fwatchdog#ServerID_6dcbcc88d5&#45;4vpdn&#45;&gt;gateway:8080#ServerID_OuterContainerID</title>
<path fill="none" stroke="black" d="M7305.03,-226.092C7270.11,-237.352 7221.78,-251.073 7178,-257 7101.42,-267.367 4473.27,-264.136 4396,-265 4207.86,-267.104 2891.02,-291.064 2703,-298 2650.23,-299.947 2592.5,-302.86 2541.14,-305.727"/>
<polygon fill="black" stroke="black" points="2540.75,-302.244 2530.96,-306.3 2541.14,-309.233 2540.75,-302.244"/>
<text text-anchor="middle" x="4416" y="-268.8" font-family="Times,serif" font-size="14.00">POST</text>
</g>
<!-- 10.1.80.247:60892#ServerID_OuterContainerID&#45;&gt;1_fwatchdog#ServerID_6dcbcc88d5&#45;4vpdn -->
<g id="edge4" class="edge"><title>10.1.80.247:60892#ServerID_OuterContainerID&#45;&gt;1_fwatchdog#ServerID_6dcbcc88d5&#45;4vpdn</title>
<path fill="none" stroke="black" d="M6065.36,-312.932C6304.67,-309.674 6658.9,-301.328 6967,-280 7061.11,-273.485 7085.32,-274.576 7178,-257 7215.81,-249.83 7257.38,-238.653 7290.62,-228.888"/>
<polygon fill="black" stroke="black" points="7291.61,-232.243 7300.2,-226.043 7289.62,-225.532 7291.61,-232.243"/>
<text text-anchor="middle" x="7149" y="-268.8" font-family="Times,serif" font-size="14.00">POST</text>
</g>
<!-- 1_fwatchdog#ServerID_d4de233c55aa -->
<g id="node7" class="node"><title>1_fwatchdog#ServerID_d4de233c55aa</title>
<polygon fill="none" stroke="black" points="1389.5,-442 1092.5,-442 1092.5,-406 1389.5,-406 1389.5,-442"/>
<text text-anchor="middle" x="1241" y="-420.3" font-family="Times,serif" font-size="14.00">1_fwatchdog#ServerID_d4de233c55aa</text>
</g>
<!-- 10.1.80.247:60892#ServerID_OuterContainerID&#45;&gt;1_fwatchdog#ServerID_d4de233c55aa -->
<g id="edge13" class="edge"><title>10.1.80.247:60892#ServerID_OuterContainerID&#45;&gt;1_fwatchdog#ServerID_d4de233c55aa</title>
<path fill="none" stroke="black" d="M5713.27,-330.115C5643.62,-341.825 5536.09,-358.151 5442,-365 5316.99,-374.1 4439.33,-371.536 4314,-373 3737.62,-379.733 1945.27,-410.716 1399.99,-420.22"/>
<polygon fill="black" stroke="black" points="1399.63,-416.726 1389.69,-420.399 1399.75,-423.724 1399.63,-416.726"/>
<text text-anchor="middle" x="4330.5" y="-376.8" font-family="Times,serif" font-size="14.00">read</text>
</g>
<!-- gateway:8080#ServerID_OuterContainerID&#45;&gt;1_fwatchdog#ServerID_6dcbcc88d5&#45;4vpdn -->
<g id="edge7" class="edge"><title>gateway:8080#ServerID_OuterContainerID&#45;&gt;1_fwatchdog#ServerID_6dcbcc88d5&#45;4vpdn</title>
<path fill="none" stroke="black" d="M2528.62,-306.161C2582.97,-303.038 2645.89,-299.847 2703,-298 2751.12,-296.444 4390.07,-294.429 4436,-280 4447.29,-276.453 4446.7,-268.505 4458,-265 4494.08,-253.811 7140.56,-262.069 7178,-257 7217.85,-251.604 7261.46,-239.753 7295.31,-229.178"/>
<polygon fill="black" stroke="black" points="7296.56,-232.453 7305.03,-226.091 7294.44,-225.781 7296.56,-232.453"/>
<text text-anchor="middle" x="4500" y="-268.8" font-family="Times,serif" font-size="14.00">RESPONSE</text>
</g>
<!-- 10_node#ServerID_d4de233c55aa -->
<g id="node9" class="node"><title>10_node#ServerID_d4de233c55aa</title>
<polygon fill="none" stroke="black" points="1390,-226 1124,-226 1124,-190 1390,-190 1390,-226"/>
<text text-anchor="middle" x="1257" y="-204.3" font-family="Times,serif" font-size="14.00">10_node#ServerID_d4de233c55aa</text>
</g>
<!-- gateway:8080#ServerID_OuterContainerID&#45;&gt;10_node#ServerID_d4de233c55aa -->
<g id="edge22" class="edge"><title>gateway:8080#ServerID_OuterContainerID&#45;&gt;10_node#ServerID_d4de233c55aa</title>
<path fill="none" stroke="black" d="M2272.18,-304.936C2133.84,-293.491 1897.42,-275.089 1694,-265 1629.17,-261.785 1465.94,-268.208 1402,-257 1369.64,-251.327 1334.64,-239.903 1307.14,-229.623"/>
<polygon fill="black" stroke="black" points="1308.33,-226.332 1297.74,-226.046 1305.84,-232.874 1308.33,-226.332"/>
<text text-anchor="middle" x="1959.5" y="-268.8" font-family="Times,serif" font-size="14.00">read</text>
</g>
<!-- localhost:3000#ServerID_d4de233c55aa -->
<g id="node8" class="node"><title>localhost:3000#ServerID_d4de233c55aa</title>
<polygon fill="none" stroke="black" points="728,-334 442.284,-316 728,-298 1013.72,-316 728,-334"/>
<text text-anchor="middle" x="728" y="-312.3" font-family="Times,serif" font-size="14.00">localhost:3000#ServerID_d4de233c55aa</text>
</g>
<!-- 1_fwatchdog#ServerID_d4de233c55aa&#45;&gt;localhost:3000#ServerID_d4de233c55aa -->
<g id="edge9" class="edge"><title>1_fwatchdog#ServerID_d4de233c55aa&#45;&gt;localhost:3000#ServerID_d4de233c55aa</title>
<path fill="none" stroke="black" d="M1158.58,-405.969C1059.79,-385.557 895.776,-351.667 801.249,-332.135"/>
<polygon fill="black" stroke="black" points="801.701,-328.655 791.199,-330.059 800.284,-335.51 801.701,-328.655"/>
<text text-anchor="middle" x="1080" y="-376.8" font-family="Times,serif" font-size="14.00">write</text>
</g>
<!-- localhost:3000#ServerID_d4de233c55aa&#45;&gt;10_node#ServerID_d4de233c55aa -->
<g id="edge24" class="edge"><title>localhost:3000#ServerID_d4de233c55aa&#45;&gt;10_node#ServerID_d4de233c55aa</title>
<path fill="none" stroke="black" d="M792.601,-302.055C884.853,-283.57 1054.95,-249.486 1161.69,-228.098"/>
<polygon fill="black" stroke="black" points="1162.7,-231.465 1171.82,-226.068 1161.33,-224.601 1162.7,-231.465"/>
<text text-anchor="middle" x="993.5" y="-268.8" font-family="Times,serif" font-size="14.00">read</text>
</g>
<!-- 10_node#ServerID_d4de233c55aa&#45;&gt;gateway:8080#ServerID_OuterContainerID -->
<g id="edge15" class="edge"><title>10_node#ServerID_d4de233c55aa&#45;&gt;gateway:8080#ServerID_OuterContainerID</title>
<path fill="none" stroke="black" d="M1297.4,-226.105C1326.02,-237.294 1365.65,-250.922 1402,-257 1477.51,-269.624 2014.74,-258.222 2091,-265 2168.8,-271.916 2256.89,-287.618 2317.19,-299.594"/>
<polygon fill="black" stroke="black" points="2316.87,-303.101 2327.36,-301.633 2318.25,-296.237 2316.87,-303.101"/>
<text text-anchor="middle" x="2236" y="-268.8" font-family="Times,serif" font-size="14.00">connect</text>
</g>
<!-- 10.152.183.10:53#ServerID_OuterContainerID -->
<g id="node10" class="node"><title>10.152.183.10:53#ServerID_OuterContainerID</title>
<polygon fill="none" stroke="black" points="1741,-334 1413.56,-316 1741,-298 2068.44,-316 1741,-334"/>
<text text-anchor="middle" x="1741" y="-312.3" font-family="Times,serif" font-size="14.00">10.152.183.10:53#ServerID_OuterContainerID</text>
</g>
<!-- 10_node#ServerID_d4de233c55aa&#45;&gt;10.152.183.10:53#ServerID_OuterContainerID -->
<g id="edge10" class="edge"><title>10_node#ServerID_d4de233c55aa&#45;&gt;10.152.183.10:53#ServerID_OuterContainerID</title>
<path fill="none" stroke="black" d="M1302.52,-226.025C1330.83,-236.122 1368.17,-248.557 1402,-257 1480.52,-276.596 1570.93,-291.701 1638.62,-301.576"/>
<polygon fill="black" stroke="black" points="1638.46,-305.09 1648.86,-303.056 1639.46,-298.162 1638.46,-305.09"/>
<text text-anchor="middle" x="1528.5" y="-268.8" font-family="Times,serif" font-size="14.00">sendto</text>
</g>
<!-- 10.152.183.10:53#ServerID_OuterContainerID&#45;&gt;10_node#ServerID_d4de233c55aa -->
<g id="edge14" class="edge"><title>10.152.183.10:53#ServerID_OuterContainerID&#45;&gt;10_node#ServerID_d4de233c55aa</title>
<path fill="none" stroke="black" d="M1697.33,-300.294C1660.41,-288.549 1605.87,-272.809 1557,-265 1488.88,-254.116 1469.8,-269.731 1402,-257 1369.94,-250.981 1335.22,-239.665 1307.79,-229.532"/>
<polygon fill="black" stroke="black" points="1309,-226.248 1298.41,-226.007 1306.54,-232.801 1309,-226.248"/>
<text text-anchor="middle" x="1657" y="-268.8" font-family="Times,serif" font-size="14.00">recvfrom</text>
</g>
<!-- /etc/resolv.conf#ServerID_d4de233c55aa -->
<g id="node11" class="node"><title>/etc/resolv.conf#ServerID_d4de233c55aa</title>
<ellipse fill="none" stroke="black" cx="220" cy="-316" rx="204.164" ry="18"/>
<text text-anchor="middle" x="220" y="-312.3" font-family="Times,serif" font-size="14.00">/etc/resolv.conf#ServerID_d4de233c55aa</text>
</g>
<!-- /etc/resolv.conf#ServerID_d4de233c55aa&#45;&gt;10_node#ServerID_d4de233c55aa -->
<g id="edge11" class="edge"><title>/etc/resolv.conf#ServerID_d4de233c55aa&#45;&gt;10_node#ServerID_d4de233c55aa</title>
<path fill="none" stroke="black" d="M347.676,-301.949C541.862,-282.1 910.266,-244.442 1113.47,-223.671"/>
<polygon fill="black" stroke="black" points="1114.03,-227.132 1123.62,-222.634 1113.32,-220.169 1114.03,-227.132"/>
<text text-anchor="middle" x="724.5" y="-268.8" font-family="Times,serif" font-size="14.00">read</text>
</g>
<!-- /etc/hosts#ServerID_d4de233c55aa -->
<g id="node12" class="node"><title>/etc/hosts#ServerID_d4de233c55aa</title>
<ellipse fill="none" stroke="black" cx="1211" cy="-316" rx="178.969" ry="18"/>
<text text-anchor="middle" x="1211" y="-312.3" font-family="Times,serif" font-size="14.00">/etc/hosts#ServerID_d4de233c55aa</text>
</g>
<!-- /etc/hosts#ServerID_d4de233c55aa&#45;&gt;10_node#ServerID_d4de233c55aa -->
<g id="edge12" class="edge"><title>/etc/hosts#ServerID_d4de233c55aa&#45;&gt;10_node#ServerID_d4de233c55aa</title>
<path fill="none" stroke="black" d="M1218.39,-297.969C1225.69,-281.148 1236.96,-255.173 1245.45,-235.624"/>
<polygon fill="black" stroke="black" points="1248.7,-236.907 1249.47,-226.341 1242.28,-234.121 1248.7,-236.907"/>
<text text-anchor="middle" x="1249.5" y="-268.8" font-family="Times,serif" font-size="14.00">read</text>
</g>
<!-- localhost:3000#ServerID_79226724f3b6 -->
<g id="node14" class="node"><title>localhost:3000#ServerID_79226724f3b6</title>
<polygon fill="none" stroke="black" points="6431,-139 6146.12,-121 6431,-103 6715.88,-121 6431,-139"/>
<text text-anchor="middle" x="6431" y="-117.3" font-family="Times,serif" font-size="14.00">localhost:3000#ServerID_79226724f3b6</text>
</g>
<!-- 1_fwatchdog#ServerID_79226724f3b6&#45;&gt;localhost:3000#ServerID_79226724f3b6 -->
<g id="edge17" class="edge"><title>1_fwatchdog#ServerID_79226724f3b6&#45;&gt;localhost:3000#ServerID_79226724f3b6</title>
<path fill="none" stroke="black" d="M6366.33,-189.658C6365.11,-179.472 6365.28,-166.731 6371,-157 6374.29,-151.405 6378.85,-146.616 6383.99,-142.541"/>
<polygon fill="black" stroke="black" points="6386.21,-145.262 6392.47,-136.712 6382.25,-139.494 6386.21,-145.262"/>
<text text-anchor="middle" x="6390" y="-160.8" font-family="Times,serif" font-size="14.00">write</text>
</g>
<!-- pipe:[273416608]#ServerID_79226724f3b6 -->
<g id="node16" class="node"><title>pipe:[273416608]#ServerID_79226724f3b6</title>
<ellipse fill="none" stroke="black" cx="6950" cy="-121" rx="215.562" ry="18"/>
<text text-anchor="middle" x="6950" y="-117.3" font-family="Times,serif" font-size="14.00">pipe:[273416608]#ServerID_79226724f3b6</text>
</g>
<!-- 1_fwatchdog#ServerID_79226724f3b6&#45;&gt;pipe:[273416608]#ServerID_79226724f3b6 -->
<g id="edge20" class="edge"><title>1_fwatchdog#ServerID_79226724f3b6&#45;&gt;pipe:[273416608]#ServerID_79226724f3b6</title>
<path fill="none" stroke="black" d="M6486.33,-189.952C6588.9,-174.92 6737.36,-153.163 6838.47,-138.345"/>
<polygon fill="black" stroke="black" points="6839.02,-141.802 6848.41,-136.889 6838.01,-134.876 6839.02,-141.802"/>
<text text-anchor="middle" x="6713" y="-160.8" font-family="Times,serif" font-size="14.00">write</text>
</g>
<!-- localhost:3000#ServerID_79226724f3b6&#45;&gt;1_fwatchdog#ServerID_79226724f3b6 -->
<g id="edge19" class="edge"><title>localhost:3000#ServerID_79226724f3b6&#45;&gt;1_fwatchdog#ServerID_79226724f3b6</title>
<path fill="none" stroke="black" d="M6425.68,-138.693C6421.96,-148.886 6416.34,-161.862 6409,-172 6406.28,-175.748 6403.11,-179.389 6399.76,-182.817"/>
<polygon fill="black" stroke="black" points="6397.11,-180.511 6392.27,-189.94 6401.93,-185.583 6397.11,-180.511"/>
<text text-anchor="middle" x="6433.5" y="-160.8" font-family="Times,serif" font-size="14.00">read</text>
</g>
<!-- 10_node#ServerID_79226724f3b6 -->
<g id="node15" class="node"><title>10_node#ServerID_79226724f3b6</title>
<polygon fill="none" stroke="black" points="6563.5,-52 6298.5,-52 6298.5,-16 6563.5,-16 6563.5,-52"/>
<text text-anchor="middle" x="6431" y="-30.3" font-family="Times,serif" font-size="14.00">10_node#ServerID_79226724f3b6</text>
</g>
<!-- localhost:3000#ServerID_79226724f3b6&#45;&gt;10_node#ServerID_79226724f3b6 -->
<g id="edge18" class="edge"><title>localhost:3000#ServerID_79226724f3b6&#45;&gt;10_node#ServerID_79226724f3b6</title>
<path fill="none" stroke="black" d="M6431,-102.799C6431,-91.1626 6431,-75.5479 6431,-62.2368"/>
<polygon fill="black" stroke="black" points="6434.5,-62.1754 6431,-52.1754 6427.5,-62.1755 6434.5,-62.1754"/>
<text text-anchor="middle" x="6447.5" y="-73.8" font-family="Times,serif" font-size="14.00">read</text>
</g>
<!-- 10.1.80.247:32788#ServerID_OuterContainerID -->
<g id="node17" class="node"><title>10.1.80.247:32788#ServerID_OuterContainerID</title>
<polygon fill="none" stroke="black" points="3720,-334 3384.52,-316 3720,-298 4055.48,-316 3720,-334"/>
<text text-anchor="middle" x="3720" y="-312.3" font-family="Times,serif" font-size="14.00">10.1.80.247:32788#ServerID_OuterContainerID</text>
</g>
<!-- 10.1.80.247:32788#ServerID_OuterContainerID&#45;&gt;1_fwatchdog#ServerID_d4de233c55aa -->
<g id="edge21" class="edge"><title>10.1.80.247:32788#ServerID_OuterContainerID&#45;&gt;1_fwatchdog#ServerID_d4de233c55aa</title>
<path fill="none" stroke="black" d="M3644.55,-329.958C3574.84,-341.345 3468.26,-357.269 3375,-365 2991.67,-396.776 1827.07,-415.153 1400.1,-420.969"/>
<polygon fill="black" stroke="black" points="1399.8,-417.473 1389.85,-421.109 1399.89,-424.473 1399.8,-417.473"/>
<text text-anchor="middle" x="3257.5" y="-376.8" font-family="Times,serif" font-size="14.00">read</text>
</g>
<!-- 10.1.80.247:34366#ServerID_OuterContainerID -->
<g id="node18" class="node"><title>10.1.80.247:34366#ServerID_OuterContainerID</title>
<polygon fill="none" stroke="black" points="5098,-334 4762.52,-316 5098,-298 5433.48,-316 5098,-334"/>
<text text-anchor="middle" x="5098" y="-312.3" font-family="Times,serif" font-size="14.00">10.1.80.247:34366#ServerID_OuterContainerID</text>
</g>
<!-- 10.1.80.247:34366#ServerID_OuterContainerID&#45;&gt;1_fwatchdog#ServerID_79226724f3b6 -->
<g id="edge23" class="edge"><title>10.1.80.247:34366#ServerID_OuterContainerID&#45;&gt;1_fwatchdog#ServerID_79226724f3b6</title>
<path fill="none" stroke="black" d="M5258.68,-306.616C5538.91,-291.906 6091.47,-262.486 6134,-257 6186.44,-250.235 6244.67,-238.439 6290.16,-228.234"/>
<polygon fill="black" stroke="black" points="6290.98,-231.637 6299.97,-226.016 6289.44,-224.81 6290.98,-231.637"/>
<text text-anchor="middle" x="6021.5" y="-268.8" font-family="Times,serif" font-size="14.00">read</text>
</g>
<!-- 10.1.80.1:6483#ServerID_OuterContainerID&#45;&gt;10.1.80.247:8080#ServerID_OuterContainerID -->
<g id="edge25" class="edge"><title>10.1.80.1:6483#ServerID_OuterContainerID&#45;&gt;10.1.80.247:8080#ServerID_OuterContainerID</title>
<path fill="none" stroke="black" d="M2971.79,-225.76C2968.94,-241.005 2967.25,-263.567 2977,-280 2980.31,-285.581 2984.87,-290.345 2990.03,-294.392"/>
<polygon fill="black" stroke="black" points="2988.3,-297.446 2998.53,-300.177 2992.23,-291.658 2988.3,-297.446"/>
<text text-anchor="middle" x="2997" y="-268.8" font-family="Times,serif" font-size="14.00">POST</text>
</g>
<!-- 10.1.80.1:1364#ServerID_OuterContainerID&#45;&gt;10.1.80.247:8080#ServerID_OuterContainerID -->
<g id="edge28" class="edge"><title>10.1.80.1:1364#ServerID_OuterContainerID&#45;&gt;10.1.80.247:8080#ServerID_OuterContainerID</title>
<path fill="none" stroke="black" d="M3544.41,-221.991C3437.11,-241.738 3233.5,-279.206 3120.21,-300.055"/>
<polygon fill="black" stroke="black" points="3119.41,-296.644 3110.21,-301.896 3120.67,-303.528 3119.41,-296.644"/>
<text text-anchor="middle" x="3330" y="-268.8" font-family="Times,serif" font-size="14.00">POST</text>
</g>
</g>
</svg>
