<?xml version="1.0" encoding="UTF-8" standalone="no"?>
<!DOCTYPE svg PUBLIC "-//W3C//DTD SVG 1.1//EN"
 "http://www.w3.org/Graphics/SVG/1.1/DTD/svg11.dtd">
<!-- Generated by graphviz version 2.38.0 (20140413.2041)
 -->
<!-- Title: G Pages: 1 -->
<svg width="4789pt" height="1032pt"
 viewBox="0.00 0.00 4789.00 1032.00" xmlns="http://www.w3.org/2000/svg" xmlns:xlink="http://www.w3.org/1999/xlink">
<g id="graph0" class="graph" transform="scale(1 1) rotate(0) translate(4 1028)">
<title>G</title>
<polygon fill="white" stroke="none" points="-4,4 -4,-1028 4785,-1028 4785,4 -4,4"/>
<g id="clust1" class="cluster"><title>clusterServerID_1f4f60deee3d</title>
<polygon fill="none" stroke="black" points="3712,-8 3712,-605 4773,-605 4773,-8 3712,-8"/>
<text text-anchor="middle" x="4242.5" y="-589.8" font-family="Times,serif" font-size="14.00">clusterServerID_1f4f60deee3d</text>
</g>
<g id="clust2" class="cluster"><title>clusterServerID_667d78fb58&#45;847xt</title>
<polygon fill="none" stroke="black" points="3364,-530 3364,-605 3704,-605 3704,-530 3364,-530"/>
<text text-anchor="middle" x="3534" y="-589.8" font-family="Times,serif" font-size="14.00">clusterServerID_667d78fb58&#45;847xt</text>
</g>
<g id="clust3" class="cluster"><title>clusterServerID_6dcbcc88d5&#45;mp48t</title>
<polygon fill="none" stroke="black" points="1480,-746 1480,-821 1828,-821 1828,-746 1480,-746"/>
<text text-anchor="middle" x="1654" y="-805.8" font-family="Times,serif" font-size="14.00">clusterServerID_6dcbcc88d5&#45;mp48t</text>
</g>
<g id="clust4" class="cluster"><title>clusterServerID_OuterContainerID</title>
<polygon fill="none" stroke="black" points="8,-530 8,-713 3356,-713 3356,-530 8,-530"/>
<text text-anchor="middle" x="1682" y="-697.8" font-family="Times,serif" font-size="14.00">clusterServerID_OuterContainerID</text>
</g>
<g id="clust5" class="cluster"><title>clusterServerID_e47e2b15aff4</title>
<polygon fill="none" stroke="black" points="2017,-746 2017,-1016 3378,-1016 3378,-746 2017,-746"/>
<text text-anchor="middle" x="2697.5" y="-1000.8" font-family="Times,serif" font-size="14.00">clusterServerID_e47e2b15aff4</text>
</g>
<!-- 1_fwatchdog#ServerID_6dcbcc88d5&#45;mp48t -->
<g id="node1" class="node"><title>1_fwatchdog#ServerID_6dcbcc88d5&#45;mp48t</title>
<polygon fill="none" stroke="black" points="1819.5,-790 1488.5,-790 1488.5,-754 1819.5,-754 1819.5,-790"/>
<text text-anchor="middle" x="1654" y="-768.3" font-family="Times,serif" font-size="14.00">1_fwatchdog#ServerID_6dcbcc88d5&#45;mp48t</text>
</g>
<!-- gateway:8080#ServerID_OuterContainerID -->
<g id="node2" class="node"><title>gateway:8080#ServerID_OuterContainerID</title>
<polygon fill="none" stroke="black" points="1682,-682 1377.52,-664 1682,-646 1986.48,-664 1682,-682"/>
<text text-anchor="middle" x="1682" y="-660.3" font-family="Times,serif" font-size="14.00">gateway:8080#ServerID_OuterContainerID</text>
</g>
<!-- 1_fwatchdog#ServerID_6dcbcc88d5&#45;mp48t&#45;&gt;gateway:8080#ServerID_OuterContainerID -->
<g id="edge1" class="edge"><title>1_fwatchdog#ServerID_6dcbcc88d5&#45;mp48t&#45;&gt;gateway:8080#ServerID_OuterContainerID</title>
<path fill="none" stroke="black" d="M1633.98,-753.588C1625.76,-744.257 1619.17,-732.368 1624,-721 1629.58,-707.858 1639.92,-696.299 1650.34,-687.147"/>
<polygon fill="black" stroke="black" points="1652.76,-689.691 1658.25,-680.631 1648.31,-684.289 1652.76,-689.691"/>
<text text-anchor="middle" x="1644" y="-724.8" font-family="Times,serif" font-size="14.00">POST</text>
</g>
<!-- 10.1.80.183:8080#ServerID_OuterContainerID -->
<g id="node3" class="node"><title>10.1.80.183:8080#ServerID_OuterContainerID</title>
<polygon fill="none" stroke="black" points="343,-682 15.5599,-664 343,-646 670.44,-664 343,-682"/>
<text text-anchor="middle" x="343" y="-660.3" font-family="Times,serif" font-size="14.00">10.1.80.183:8080#ServerID_OuterContainerID</text>
</g>
<!-- 1_fwatchdog#ServerID_6dcbcc88d5&#45;mp48t&#45;&gt;10.1.80.183:8080#ServerID_OuterContainerID -->
<g id="edge2" class="edge"><title>1_fwatchdog#ServerID_6dcbcc88d5&#45;mp48t&#45;&gt;10.1.80.183:8080#ServerID_OuterContainerID</title>
<path fill="none" stroke="black" d="M1488.23,-765.271C1294.13,-757.605 963.151,-741.547 680,-713 594.849,-704.415 498.195,-690.183 430.301,-679.44"/>
<polygon fill="black" stroke="black" points="430.503,-675.928 420.078,-677.814 429.404,-682.841 430.503,-675.928"/>
<text text-anchor="middle" x="967" y="-724.8" font-family="Times,serif" font-size="14.00">POST</text>
</g>
<!-- 10.1.80.183:50288#ServerID_OuterContainerID -->
<g id="node4" class="node"><title>10.1.80.183:50288#ServerID_OuterContainerID</title>
<polygon fill="none" stroke="black" points="2340,-682 2004.52,-664 2340,-646 2675.48,-664 2340,-682"/>
<text text-anchor="middle" x="2340" y="-660.3" font-family="Times,serif" font-size="14.00">10.1.80.183:50288#ServerID_OuterContainerID</text>
</g>
<!-- 1_fwatchdog#ServerID_6dcbcc88d5&#45;mp48t&#45;&gt;10.1.80.183:50288#ServerID_OuterContainerID -->
<g id="edge7" class="edge"><title>1_fwatchdog#ServerID_6dcbcc88d5&#45;mp48t&#45;&gt;10.1.80.183:50288#ServerID_OuterContainerID</title>
<path fill="none" stroke="black" d="M1819.89,-759.566C1883.06,-754.064 1955.57,-746.36 2021,-736 2110.36,-721.85 2212.18,-697.778 2276.25,-681.636"/>
<polygon fill="black" stroke="black" points="2277.37,-684.964 2286.21,-679.117 2275.65,-678.178 2277.37,-684.964"/>
<text text-anchor="middle" x="2143" y="-724.8" font-family="Times,serif" font-size="14.00">RESPONSE</text>
</g>
<!-- gateway:8080#ServerID_OuterContainerID&#45;&gt;1_fwatchdog#ServerID_6dcbcc88d5&#45;mp48t -->
<g id="edge8" class="edge"><title>gateway:8080#ServerID_OuterContainerID&#45;&gt;1_fwatchdog#ServerID_6dcbcc88d5&#45;mp48t</title>
<path fill="none" stroke="black" d="M1677.85,-681.965C1674.29,-696.372 1668.96,-717.583 1664,-736 1663.28,-738.654 1662.52,-741.417 1661.75,-744.175"/>
<polygon fill="black" stroke="black" points="1658.35,-743.363 1658.99,-753.939 1665.08,-745.272 1658.35,-743.363"/>
<text text-anchor="middle" x="1710" y="-724.8" font-family="Times,serif" font-size="14.00">RESPONSE</text>
</g>
<!-- 10.1.80.183:8080#ServerID_OuterContainerID&#45;&gt;1_fwatchdog#ServerID_6dcbcc88d5&#45;mp48t -->
<g id="edge5" class="edge"><title>10.1.80.183:8080#ServerID_OuterContainerID&#45;&gt;1_fwatchdog#ServerID_6dcbcc88d5&#45;mp48t</title>
<path fill="none" stroke="black" d="M398.509,-678.987C468.005,-695.829 590.945,-723.418 698,-736 843.771,-753.133 1243.96,-763.292 1477.77,-767.94"/>
<polygon fill="black" stroke="black" points="1478.02,-771.445 1488.09,-768.143 1478.16,-764.447 1478.02,-771.445"/>
<text text-anchor="middle" x="740" y="-724.8" font-family="Times,serif" font-size="14.00">RESPONSE</text>
</g>
<!-- 10.1.80.1:50088#ServerID_OuterContainerID -->
<g id="node24" class="node"><title>10.1.80.1:50088#ServerID_OuterContainerID</title>
<polygon fill="none" stroke="black" points="335,-574 16.1049,-556 335,-538 653.895,-556 335,-574"/>
<text text-anchor="middle" x="335" y="-552.3" font-family="Times,serif" font-size="14.00">10.1.80.1:50088#ServerID_OuterContainerID</text>
</g>
<!-- 10.1.80.183:8080#ServerID_OuterContainerID&#45;&gt;10.1.80.1:50088#ServerID_OuterContainerID -->
<g id="edge32" class="edge"><title>10.1.80.183:8080#ServerID_OuterContainerID&#45;&gt;10.1.80.1:50088#ServerID_OuterContainerID</title>
<path fill="none" stroke="black" d="M303.089,-648.103C294.688,-643.04 286.895,-636.453 282,-628 271.93,-610.613 285.936,-592.484 302.069,-578.897"/>
<polygon fill="black" stroke="black" points="304.364,-581.546 310.064,-572.615 300.039,-576.041 304.364,-581.546"/>
<text text-anchor="middle" x="324" y="-616.8" font-family="Times,serif" font-size="14.00">RESPONSE</text>
</g>
<!-- 10.0.88.125:31112#ServerID_OuterContainerID -->
<g id="node25" class="node"><title>10.0.88.125:31112#ServerID_OuterContainerID</title>
<polygon fill="none" stroke="black" points="1007,-574 671.515,-556 1007,-538 1342.48,-556 1007,-574"/>
<text text-anchor="middle" x="1007" y="-552.3" font-family="Times,serif" font-size="14.00">10.0.88.125:31112#ServerID_OuterContainerID</text>
</g>
<!-- 10.1.80.183:8080#ServerID_OuterContainerID&#45;&gt;10.0.88.125:31112#ServerID_OuterContainerID -->
<g id="edge33" class="edge"><title>10.1.80.183:8080#ServerID_OuterContainerID&#45;&gt;10.0.88.125:31112#ServerID_OuterContainerID</title>
<path fill="none" stroke="black" d="M422.434,-650.319C546.818,-630.463 786.788,-592.154 917.247,-571.328"/>
<polygon fill="black" stroke="black" points="917.893,-574.769 927.216,-569.737 916.789,-567.857 917.893,-574.769"/>
<text text-anchor="middle" x="698" y="-616.8" font-family="Times,serif" font-size="14.00">RESPONSE</text>
</g>
<!-- 10.1.80.183:50288#ServerID_OuterContainerID&#45;&gt;1_fwatchdog#ServerID_6dcbcc88d5&#45;mp48t -->
<g id="edge3" class="edge"><title>10.1.80.183:50288#ServerID_OuterContainerID&#45;&gt;1_fwatchdog#ServerID_6dcbcc88d5&#45;mp48t</title>
<path fill="none" stroke="black" d="M2258.29,-677.625C2138.26,-696.172 1913.49,-730.904 1774.49,-752.382"/>
<polygon fill="black" stroke="black" points="1773.57,-748.983 1764.22,-753.969 1774.63,-755.901 1773.57,-748.983"/>
<text text-anchor="middle" x="1997" y="-724.8" font-family="Times,serif" font-size="14.00">POST</text>
</g>
<!-- 1_fwatchdog#ServerID_e47e2b15aff4 -->
<g id="node7" class="node"><title>1_fwatchdog#ServerID_e47e2b15aff4</title>
<polygon fill="none" stroke="black" points="2910,-985 2620,-985 2620,-949 2910,-949 2910,-985"/>
<text text-anchor="middle" x="2765" y="-963.3" font-family="Times,serif" font-size="14.00">1_fwatchdog#ServerID_e47e2b15aff4</text>
</g>
<!-- 10.1.80.183:50288#ServerID_OuterContainerID&#45;&gt;1_fwatchdog#ServerID_e47e2b15aff4 -->
<g id="edge10" class="edge"><title>10.1.80.183:50288#ServerID_OuterContainerID&#45;&gt;1_fwatchdog#ServerID_e47e2b15aff4</title>
<path fill="none" stroke="black" d="M2414.76,-677.994C2484.45,-689.489 2591.41,-705.558 2685,-713 2728.32,-716.444 3033.67,-711.178 3076,-721 3220.69,-754.573 3299.14,-736.76 3379,-862 3387.6,-875.491 3389.67,-886.08 3379,-898 3348.84,-931.687 3091.97,-950.5 2920.17,-959.417"/>
<polygon fill="black" stroke="black" points="2919.81,-955.931 2910,-959.938 2920.17,-962.921 2919.81,-955.931"/>
<text text-anchor="middle" x="3383.5" y="-832.8" font-family="Times,serif" font-size="14.00">read</text>
</g>
<!-- 10.1.80.183:34210#ServerID_OuterContainerID -->
<g id="node5" class="node"><title>10.1.80.183:34210#ServerID_OuterContainerID</title>
<polygon fill="none" stroke="black" points="1024,-682 688.515,-664 1024,-646 1359.48,-664 1024,-682"/>
<text text-anchor="middle" x="1024" y="-660.3" font-family="Times,serif" font-size="14.00">10.1.80.183:34210#ServerID_OuterContainerID</text>
</g>
<!-- 1_fwatchdog#ServerID_667d78fb58&#45;847xt -->
<g id="node6" class="node"><title>1_fwatchdog#ServerID_667d78fb58&#45;847xt</title>
<polygon fill="none" stroke="black" points="3696,-574 3372,-574 3372,-538 3696,-538 3696,-574"/>
<text text-anchor="middle" x="3534" y="-552.3" font-family="Times,serif" font-size="14.00">1_fwatchdog#ServerID_667d78fb58&#45;847xt</text>
</g>
<!-- 10.1.80.183:34210#ServerID_OuterContainerID&#45;&gt;1_fwatchdog#ServerID_667d78fb58&#45;847xt -->
<g id="edge4" class="edge"><title>10.1.80.183:34210#ServerID_OuterContainerID&#45;&gt;1_fwatchdog#ServerID_667d78fb58&#45;847xt</title>
<path fill="none" stroke="black" d="M1183.71,-654.535C1242.01,-651.602 1308.48,-648.441 1369,-646 1835.96,-627.166 1952.75,-622.323 2420,-613 2472.21,-611.958 3308.28,-612.227 3360,-605 3399.4,-599.494 3442.52,-587.642 3475.98,-577.094"/>
<polygon fill="black" stroke="black" points="3477.14,-580.399 3485.59,-574.016 3475,-573.732 3477.14,-580.399"/>
<text text-anchor="middle" x="2440" y="-616.8" font-family="Times,serif" font-size="14.00">POST</text>
</g>
<!-- 1_fwatchdog#ServerID_1f4f60deee3d -->
<g id="node13" class="node"><title>1_fwatchdog#ServerID_1f4f60deee3d</title>
<polygon fill="none" stroke="black" points="4166,-574 3876,-574 3876,-538 4166,-538 4166,-574"/>
<text text-anchor="middle" x="4021" y="-552.3" font-family="Times,serif" font-size="14.00">1_fwatchdog#ServerID_1f4f60deee3d</text>
</g>
<!-- 10.1.80.183:34210#ServerID_OuterContainerID&#45;&gt;1_fwatchdog#ServerID_1f4f60deee3d -->
<g id="edge18" class="edge"><title>10.1.80.183:34210#ServerID_OuterContainerID&#45;&gt;1_fwatchdog#ServerID_1f4f60deee3d</title>
<path fill="none" stroke="black" d="M1176.37,-654.173C1236.38,-651.042 1305.91,-647.841 1369,-646 2247.33,-620.372 2467.88,-659.87 3346,-628 3507.11,-622.153 3547.72,-622.347 3708,-605 3777.12,-597.519 3854.33,-585.716 3914.77,-575.687"/>
<polygon fill="black" stroke="black" points="3915.42,-579.127 3924.7,-574.029 3914.26,-572.223 3915.42,-579.127"/>
<text text-anchor="middle" x="3641.5" y="-616.8" font-family="Times,serif" font-size="14.00">read</text>
</g>
<!-- 1_fwatchdog#ServerID_667d78fb58&#45;847xt&#45;&gt;10.1.80.183:34210#ServerID_OuterContainerID -->
<g id="edge6" class="edge"><title>1_fwatchdog#ServerID_667d78fb58&#45;847xt&#45;&gt;10.1.80.183:34210#ServerID_OuterContainerID</title>
<path fill="none" stroke="black" d="M3484.81,-574.026C3450.34,-585.101 3402.93,-598.628 3360,-605 3141.13,-637.488 1590.15,-638.729 1369,-646 1310.34,-647.929 1246.1,-650.867 1189.13,-653.762"/>
<polygon fill="black" stroke="black" points="1188.76,-650.276 1178.95,-654.283 1189.12,-657.267 1188.76,-650.276"/>
<text text-anchor="middle" x="3300" y="-616.8" font-family="Times,serif" font-size="14.00">RESPONSE</text>
</g>
<!-- localhost:3000#ServerID_e47e2b15aff4 -->
<g id="node8" class="node"><title>localhost:3000#ServerID_e47e2b15aff4</title>
<polygon fill="none" stroke="black" points="2304,-898 2024.65,-880 2304,-862 2583.35,-880 2304,-898"/>
<text text-anchor="middle" x="2304" y="-876.3" font-family="Times,serif" font-size="14.00">localhost:3000#ServerID_e47e2b15aff4</text>
</g>
<!-- 1_fwatchdog#ServerID_e47e2b15aff4&#45;&gt;localhost:3000#ServerID_e47e2b15aff4 -->
<g id="edge9" class="edge"><title>1_fwatchdog#ServerID_e47e2b15aff4&#45;&gt;localhost:3000#ServerID_e47e2b15aff4</title>
<path fill="none" stroke="black" d="M2672.54,-948.952C2587.47,-933.267 2462.68,-910.258 2382.39,-895.453"/>
<polygon fill="black" stroke="black" points="2382.8,-891.971 2372.33,-893.6 2381.53,-898.855 2382.8,-891.971"/>
<text text-anchor="middle" x="2582" y="-919.8" font-family="Times,serif" font-size="14.00">write</text>
</g>
<!-- 9_node#ServerID_e47e2b15aff4 -->
<g id="node9" class="node"><title>9_node#ServerID_e47e2b15aff4</title>
<polygon fill="none" stroke="black" points="3019,-790 2769,-790 2769,-754 3019,-754 3019,-790"/>
<text text-anchor="middle" x="2894" y="-768.3" font-family="Times,serif" font-size="14.00">9_node#ServerID_e47e2b15aff4</text>
</g>
<!-- localhost:3000#ServerID_e47e2b15aff4&#45;&gt;9_node#ServerID_e47e2b15aff4 -->
<g id="edge11" class="edge"><title>localhost:3000#ServerID_e47e2b15aff4&#45;&gt;9_node#ServerID_e47e2b15aff4</title>
<path fill="none" stroke="black" d="M2373.71,-866.476C2476.48,-848.013 2669.39,-813.354 2789.24,-791.821"/>
<polygon fill="black" stroke="black" points="2789.95,-795.25 2799.17,-790.036 2788.71,-788.36 2789.95,-795.25"/>
<text text-anchor="middle" x="2598.5" y="-832.8" font-family="Times,serif" font-size="14.00">read</text>
</g>
<!-- 9_node#ServerID_e47e2b15aff4&#45;&gt;gateway:8080#ServerID_OuterContainerID -->
<g id="edge16" class="edge"><title>9_node#ServerID_e47e2b15aff4&#45;&gt;gateway:8080#ServerID_OuterContainerID</title>
<path fill="none" stroke="black" d="M2768.95,-761.017C2628.07,-750.029 2392.21,-732.415 2189,-721 2103.28,-716.185 2081.45,-721.277 1996,-713 1915.76,-705.228 1824.78,-690.681 1761.48,-679.631"/>
<polygon fill="black" stroke="black" points="1762.02,-676.172 1751.56,-677.889 1760.81,-683.066 1762.02,-676.172"/>
<text text-anchor="middle" x="2451" y="-724.8" font-family="Times,serif" font-size="14.00">connect</text>
</g>
<!-- 10.152.183.10:53#ServerID_OuterContainerID -->
<g id="node12" class="node"><title>10.152.183.10:53#ServerID_OuterContainerID</title>
<polygon fill="none" stroke="black" points="3021,-682 2693.56,-664 3021,-646 3348.44,-664 3021,-682"/>
<text text-anchor="middle" x="3021" y="-660.3" font-family="Times,serif" font-size="14.00">10.152.183.10:53#ServerID_OuterContainerID</text>
</g>
<!-- 9_node#ServerID_e47e2b15aff4&#45;&gt;10.152.183.10:53#ServerID_OuterContainerID -->
<g id="edge14" class="edge"><title>9_node#ServerID_e47e2b15aff4&#45;&gt;10.152.183.10:53#ServerID_OuterContainerID</title>
<path fill="none" stroke="black" d="M2910.44,-753.716C2920.16,-743.788 2932.91,-731.288 2945,-721 2959.06,-709.034 2975.45,-696.759 2989.41,-686.761"/>
<polygon fill="black" stroke="black" points="2991.61,-689.492 2997.75,-680.854 2987.56,-683.782 2991.61,-689.492"/>
<text text-anchor="middle" x="2969.5" y="-724.8" font-family="Times,serif" font-size="14.00">sendto</text>
</g>
<!-- /etc/hosts#ServerID_e47e2b15aff4 -->
<g id="node10" class="node"><title>/etc/hosts#ServerID_e47e2b15aff4</title>
<ellipse fill="none" stroke="black" cx="3195" cy="-880" rx="174.669" ry="18"/>
<text text-anchor="middle" x="3195" y="-876.3" font-family="Times,serif" font-size="14.00">/etc/hosts#ServerID_e47e2b15aff4</text>
</g>
<!-- /etc/hosts#ServerID_e47e2b15aff4&#45;&gt;9_node#ServerID_e47e2b15aff4 -->
<g id="edge12" class="edge"><title>/etc/hosts#ServerID_e47e2b15aff4&#45;&gt;9_node#ServerID_e47e2b15aff4</title>
<path fill="none" stroke="black" d="M3148.3,-862.554C3095.38,-843.919 3009.08,-813.528 2951.92,-793.398"/>
<polygon fill="black" stroke="black" points="2952.9,-790.032 2942.31,-790.012 2950.58,-796.635 2952.9,-790.032"/>
<text text-anchor="middle" x="3106.5" y="-832.8" font-family="Times,serif" font-size="14.00">read</text>
</g>
<!-- /etc/resolv.conf#ServerID_e47e2b15aff4 -->
<g id="node11" class="node"><title>/etc/resolv.conf#ServerID_e47e2b15aff4</title>
<ellipse fill="none" stroke="black" cx="2802" cy="-880" rx="200.365" ry="18"/>
<text text-anchor="middle" x="2802" y="-876.3" font-family="Times,serif" font-size="14.00">/etc/resolv.conf#ServerID_e47e2b15aff4</text>
</g>
<!-- /etc/resolv.conf#ServerID_e47e2b15aff4&#45;&gt;9_node#ServerID_e47e2b15aff4 -->
<g id="edge13" class="edge"><title>/etc/resolv.conf#ServerID_e47e2b15aff4&#45;&gt;9_node#ServerID_e47e2b15aff4</title>
<path fill="none" stroke="black" d="M2816.78,-861.969C2831.78,-844.687 2855.17,-817.743 2872.27,-798.032"/>
<polygon fill="black" stroke="black" points="2875.04,-800.187 2878.95,-790.341 2869.75,-795.599 2875.04,-800.187"/>
<text text-anchor="middle" x="2862.5" y="-832.8" font-family="Times,serif" font-size="14.00">read</text>
</g>
<!-- 10.152.183.10:53#ServerID_OuterContainerID&#45;&gt;9_node#ServerID_e47e2b15aff4 -->
<g id="edge15" class="edge"><title>10.152.183.10:53#ServerID_OuterContainerID&#45;&gt;9_node#ServerID_e47e2b15aff4</title>
<path fill="none" stroke="black" d="M3018.66,-682.162C3015.63,-698.125 3008.83,-721.557 2994,-736 2988.74,-741.117 2982.7,-745.488 2976.24,-749.223"/>
<polygon fill="black" stroke="black" points="2974.46,-746.205 2967.21,-753.932 2977.69,-752.412 2974.46,-746.205"/>
<text text-anchor="middle" x="3039" y="-724.8" font-family="Times,serif" font-size="14.00">recvfrom</text>
</g>
<!-- localhost:3000#ServerID_1f4f60deee3d -->
<g id="node14" class="node"><title>localhost:3000#ServerID_1f4f60deee3d</title>
<polygon fill="none" stroke="black" points="4021,-487 3741.65,-469 4021,-451 4300.35,-469 4021,-487"/>
<text text-anchor="middle" x="4021" y="-465.3" font-family="Times,serif" font-size="14.00">localhost:3000#ServerID_1f4f60deee3d</text>
</g>
<!-- 1_fwatchdog#ServerID_1f4f60deee3d&#45;&gt;localhost:3000#ServerID_1f4f60deee3d -->
<g id="edge17" class="edge"><title>1_fwatchdog#ServerID_1f4f60deee3d&#45;&gt;localhost:3000#ServerID_1f4f60deee3d</title>
<path fill="none" stroke="black" d="M4001.42,-537.764C3993.33,-528.482 3986.72,-516.583 3991,-505 3992.4,-501.224 3994.4,-497.58 3996.73,-494.162"/>
<polygon fill="black" stroke="black" points="3999.56,-496.214 4002.98,-486.186 3994.06,-491.893 3999.56,-496.214"/>
<text text-anchor="middle" x="4010" y="-508.8" font-family="Times,serif" font-size="14.00">write</text>
</g>
<!-- pipe:[77303348]#ServerID_1f4f60deee3d -->
<g id="node23" class="node"><title>pipe:[77303348]#ServerID_1f4f60deee3d</title>
<ellipse fill="none" stroke="black" cx="4524" cy="-469" rx="206.063" ry="18"/>
<text text-anchor="middle" x="4524" y="-465.3" font-family="Times,serif" font-size="14.00">pipe:[77303348]#ServerID_1f4f60deee3d</text>
</g>
<!-- 1_fwatchdog#ServerID_1f4f60deee3d&#45;&gt;pipe:[77303348]#ServerID_1f4f60deee3d -->
<g id="edge30" class="edge"><title>1_fwatchdog#ServerID_1f4f60deee3d&#45;&gt;pipe:[77303348]#ServerID_1f4f60deee3d</title>
<path fill="none" stroke="black" d="M4121.88,-537.952C4209.7,-523.113 4336.3,-501.719 4423.89,-486.918"/>
<polygon fill="black" stroke="black" points="4424.56,-490.354 4433.83,-485.237 4423.39,-483.452 4424.56,-490.354"/>
<text text-anchor="middle" x="4321" y="-508.8" font-family="Times,serif" font-size="14.00">write</text>
</g>
<!-- localhost:3000#ServerID_1f4f60deee3d&#45;&gt;1_fwatchdog#ServerID_1f4f60deee3d -->
<g id="edge29" class="edge"><title>localhost:3000#ServerID_1f4f60deee3d&#45;&gt;1_fwatchdog#ServerID_1f4f60deee3d</title>
<path fill="none" stroke="black" d="M4026.05,-487.071C4028.32,-496.709 4030.24,-508.993 4029,-520 4028.71,-522.547 4028.31,-525.179 4027.84,-527.803"/>
<polygon fill="black" stroke="black" points="4024.39,-527.18 4025.77,-537.686 4031.25,-528.617 4024.39,-527.18"/>
<text text-anchor="middle" x="4045.5" y="-508.8" font-family="Times,serif" font-size="14.00">read</text>
</g>
<!-- 10_node#ServerID_1f4f60deee3d -->
<g id="node15" class="node"><title>10_node#ServerID_1f4f60deee3d</title>
<polygon fill="none" stroke="black" points="4166.5,-400 3907.5,-400 3907.5,-364 4166.5,-364 4166.5,-400"/>
<text text-anchor="middle" x="4037" y="-378.3" font-family="Times,serif" font-size="14.00">10_node#ServerID_1f4f60deee3d</text>
</g>
<!-- localhost:3000#ServerID_1f4f60deee3d&#45;&gt;10_node#ServerID_1f4f60deee3d -->
<g id="edge19" class="edge"><title>localhost:3000#ServerID_1f4f60deee3d&#45;&gt;10_node#ServerID_1f4f60deee3d</title>
<path fill="none" stroke="black" d="M4024.24,-450.799C4026.43,-439.163 4029.37,-423.548 4031.87,-410.237"/>
<polygon fill="black" stroke="black" points="4035.36,-410.65 4033.77,-400.175 4028.48,-409.355 4035.36,-410.65"/>
<text text-anchor="middle" x="4045.5" y="-421.8" font-family="Times,serif" font-size="14.00">read</text>
</g>
<!-- pipe:[77303632]#ServerID_1f4f60deee3d -->
<g id="node16" class="node"><title>pipe:[77303632]#ServerID_1f4f60deee3d</title>
<ellipse fill="none" stroke="black" cx="3926" cy="-295" rx="206.063" ry="18"/>
<text text-anchor="middle" x="3926" y="-291.3" font-family="Times,serif" font-size="14.00">pipe:[77303632]#ServerID_1f4f60deee3d</text>
</g>
<!-- 10_node#ServerID_1f4f60deee3d&#45;&gt;pipe:[77303632]#ServerID_1f4f60deee3d -->
<g id="edge22" class="edge"><title>10_node#ServerID_1f4f60deee3d&#45;&gt;pipe:[77303632]#ServerID_1f4f60deee3d</title>
<path fill="none" stroke="black" d="M3962.16,-363.93C3953.11,-359.314 3944.71,-353.45 3938,-346 3932.37,-339.751 3929.26,-331.329 3927.58,-323.18"/>
<polygon fill="black" stroke="black" points="3931.03,-322.581 3926.12,-313.188 3924.1,-323.587 3931.03,-322.581"/>
<text text-anchor="middle" x="3957" y="-334.8" font-family="Times,serif" font-size="14.00">write</text>
</g>
<!-- /dev/null#ServerID_1f4f60deee3d -->
<g id="node17" class="node"><title>/dev/null#ServerID_1f4f60deee3d</title>
<ellipse fill="none" stroke="black" cx="4596" cy="-295" rx="168.97" ry="18"/>
<text text-anchor="middle" x="4596" y="-291.3" font-family="Times,serif" font-size="14.00">/dev/null#ServerID_1f4f60deee3d</text>
</g>
<!-- 10_node#ServerID_1f4f60deee3d&#45;&gt;/dev/null#ServerID_1f4f60deee3d -->
<g id="edge28" class="edge"><title>10_node#ServerID_1f4f60deee3d&#45;&gt;/dev/null#ServerID_1f4f60deee3d</title>
<path fill="none" stroke="black" d="M4149.11,-363.952C4249.62,-348.67 4395.84,-326.436 4493.34,-311.61"/>
<polygon fill="black" stroke="black" points="4494.14,-315.028 4503.5,-310.065 4493.09,-308.108 4494.14,-315.028"/>
<text text-anchor="middle" x="4368" y="-334.8" font-family="Times,serif" font-size="14.00">write</text>
</g>
<!-- 91_node#ServerID_1f4f60deee3d -->
<g id="node18" class="node"><title>91_node#ServerID_1f4f60deee3d</title>
<polygon fill="none" stroke="black" points="4409.5,-313 4150.5,-313 4150.5,-277 4409.5,-277 4409.5,-313"/>
<text text-anchor="middle" x="4280" y="-291.3" font-family="Times,serif" font-size="14.00">91_node#ServerID_1f4f60deee3d</text>
</g>
<!-- 10_node#ServerID_1f4f60deee3d&#45;&gt;91_node#ServerID_1f4f60deee3d -->
<g id="edge23" class="edge"><title>10_node#ServerID_1f4f60deee3d&#45;&gt;91_node#ServerID_1f4f60deee3d</title>
<path fill="none" stroke="black" d="M4085.88,-363.901C4125.02,-350.212 4180.03,-330.971 4221.5,-316.464"/>
<polygon fill="black" stroke="black" points="4222.91,-319.677 4231.2,-313.071 4220.6,-313.07 4222.91,-319.677"/>
<text text-anchor="middle" x="4188" y="-334.8" font-family="Times,serif" font-size="14.00">fork</text>
</g>
<!-- pipe:[77303632]#ServerID_1f4f60deee3d&#45;&gt;10_node#ServerID_1f4f60deee3d -->
<g id="edge20" class="edge"><title>pipe:[77303632]#ServerID_1f4f60deee3d&#45;&gt;10_node#ServerID_1f4f60deee3d</title>
<path fill="none" stroke="black" d="M3953.72,-312.876C3962.32,-318.399 3971.71,-324.732 3980,-331 3990.58,-339.003 4001.66,-348.454 4011.22,-356.972"/>
<polygon fill="black" stroke="black" points="4009.07,-359.748 4018.83,-363.856 4013.76,-354.555 4009.07,-359.748"/>
<text text-anchor="middle" x="4013.5" y="-334.8" font-family="Times,serif" font-size="14.00">read</text>
</g>
<!-- /dev/null#ServerID_1f4f60deee3d&#45;&gt;10_node#ServerID_1f4f60deee3d -->
<g id="edge21" class="edge"><title>/dev/null#ServerID_1f4f60deee3d&#45;&gt;10_node#ServerID_1f4f60deee3d</title>
<path fill="none" stroke="black" d="M4551.89,-312.498C4519.9,-323.771 4475.35,-338.056 4435,-346 4350.16,-362.704 4253.58,-371.439 4176.81,-376.006"/>
<polygon fill="black" stroke="black" points="4176.37,-372.525 4166.59,-376.596 4176.77,-379.513 4176.37,-372.525"/>
<text text-anchor="middle" x="4509.5" y="-334.8" font-family="Times,serif" font-size="14.00">read</text>
</g>
<!-- 91_sh#ServerID_1f4f60deee3d -->
<g id="node19" class="node"><title>91_sh#ServerID_1f4f60deee3d</title>
<polygon fill="none" stroke="black" points="4400.5,-226 4159.5,-226 4159.5,-190 4400.5,-190 4400.5,-226"/>
<text text-anchor="middle" x="4280" y="-204.3" font-family="Times,serif" font-size="14.00">91_sh#ServerID_1f4f60deee3d</text>
</g>
<!-- 91_node#ServerID_1f4f60deee3d&#45;&gt;91_sh#ServerID_1f4f60deee3d -->
<g id="edge24" class="edge"><title>91_node#ServerID_1f4f60deee3d&#45;&gt;91_sh#ServerID_1f4f60deee3d</title>
<path fill="none" stroke="black" d="M4280,-276.799C4280,-265.163 4280,-249.548 4280,-236.237"/>
<polygon fill="black" stroke="black" points="4283.5,-236.175 4280,-226.175 4276.5,-236.175 4283.5,-236.175"/>
<text text-anchor="middle" x="4305" y="-247.8" font-family="Times,serif" font-size="14.00">execve</text>
</g>
<!-- 92_sh#ServerID_1f4f60deee3d -->
<g id="node20" class="node"><title>92_sh#ServerID_1f4f60deee3d</title>
<polygon fill="none" stroke="black" points="4271.5,-139 4030.5,-139 4030.5,-103 4271.5,-103 4271.5,-139"/>
<text text-anchor="middle" x="4151" y="-117.3" font-family="Times,serif" font-size="14.00">92_sh#ServerID_1f4f60deee3d</text>
</g>
<!-- 91_sh#ServerID_1f4f60deee3d&#45;&gt;92_sh#ServerID_1f4f60deee3d -->
<g id="edge25" class="edge"><title>91_sh#ServerID_1f4f60deee3d&#45;&gt;92_sh#ServerID_1f4f60deee3d</title>
<path fill="none" stroke="black" d="M4253.89,-189.799C4234.22,-176.838 4207.06,-158.941 4185.59,-144.789"/>
<polygon fill="black" stroke="black" points="4187.34,-141.755 4177.07,-139.175 4183.49,-147.6 4187.34,-141.755"/>
<text text-anchor="middle" x="4238" y="-160.8" font-family="Times,serif" font-size="14.00">fork</text>
</g>
<!-- /home/app/3.txt#ServerID_1f4f60deee3d -->
<g id="node22" class="node"><title>/home/app/3.txt#ServerID_1f4f60deee3d</title>
<ellipse fill="none" stroke="black" cx="4492" cy="-121" rx="202.264" ry="18"/>
<text text-anchor="middle" x="4492" y="-117.3" font-family="Times,serif" font-size="14.00">/home/app/3.txt#ServerID_1f4f60deee3d</text>
</g>
<!-- 91_sh#ServerID_1f4f60deee3d&#45;&gt;/home/app/3.txt#ServerID_1f4f60deee3d -->
<g id="edge27" class="edge"><title>91_sh#ServerID_1f4f60deee3d&#45;&gt;/home/app/3.txt#ServerID_1f4f60deee3d</title>
<path fill="none" stroke="black" d="M4322.65,-189.901C4356.83,-176.194 4404.91,-156.92 4441.1,-142.407"/>
<polygon fill="black" stroke="black" points="4442.53,-145.607 4450.5,-138.637 4439.92,-139.11 4442.53,-145.607"/>
<text text-anchor="middle" x="4417" y="-160.8" font-family="Times,serif" font-size="14.00">write</text>
</g>
<!-- 92_touch#ServerID_1f4f60deee3d -->
<g id="node21" class="node"><title>92_touch#ServerID_1f4f60deee3d</title>
<polygon fill="none" stroke="black" points="4283.5,-52 4018.5,-52 4018.5,-16 4283.5,-16 4283.5,-52"/>
<text text-anchor="middle" x="4151" y="-30.3" font-family="Times,serif" font-size="14.00">92_touch#ServerID_1f4f60deee3d</text>
</g>
<!-- 92_sh#ServerID_1f4f60deee3d&#45;&gt;92_touch#ServerID_1f4f60deee3d -->
<g id="edge26" class="edge"><title>92_sh#ServerID_1f4f60deee3d&#45;&gt;92_touch#ServerID_1f4f60deee3d</title>
<path fill="none" stroke="black" d="M4151,-102.799C4151,-91.1626 4151,-75.5479 4151,-62.2368"/>
<polygon fill="black" stroke="black" points="4154.5,-62.1754 4151,-52.1754 4147.5,-62.1755 4154.5,-62.1754"/>
<text text-anchor="middle" x="4176" y="-73.8" font-family="Times,serif" font-size="14.00">execve</text>
</g>
<!-- 10.1.80.1:50088#ServerID_OuterContainerID&#45;&gt;10.1.80.183:8080#ServerID_OuterContainerID -->
<g id="edge31" class="edge"><title>10.1.80.1:50088#ServerID_OuterContainerID&#45;&gt;10.1.80.183:8080#ServerID_OuterContainerID</title>
<path fill="none" stroke="black" d="M348.743,-573.449C356.653,-584.019 365.828,-598.453 370,-613 371.838,-619.408 372.151,-621.69 370,-628 368.79,-631.55 367.057,-635.021 365.047,-638.312"/>
<polygon fill="black" stroke="black" points="362.147,-636.351 359.24,-646.54 367.866,-640.387 362.147,-636.351"/>
<text text-anchor="middle" x="392" y="-616.8" font-family="Times,serif" font-size="14.00">POST</text>
</g>
</g>
</svg>
