<?xml version="1.0" encoding="UTF-8" standalone="no"?>
<!DOCTYPE svg PUBLIC "-//W3C//DTD SVG 1.1//EN"
 "http://www.w3.org/Graphics/SVG/1.1/DTD/svg11.dtd">
<!-- Generated by graphviz version 2.38.0 (20140413.2041)
 -->
<!-- Title: G Pages: 1 -->
<svg width="6854pt" height="837pt"
 viewBox="0.00 0.00 6854.00 837.00" xmlns="http://www.w3.org/2000/svg" xmlns:xlink="http://www.w3.org/1999/xlink">
<g id="graph0" class="graph" transform="scale(1 1) rotate(0) translate(4 833)">
<title>G</title>
<polygon fill="white" stroke="none" points="-4,4 -4,-833 6850,-833 6850,4 -4,4"/>
<g id="clust1" class="cluster"><title>clusterServerID_1f4f60deee3d</title>
<polygon fill="none" stroke="black" points="4052,-8 4052,-605 5113,-605 5113,-8 4052,-8"/>
<text text-anchor="middle" x="4582.5" y="-589.8" font-family="Times,serif" font-size="14.00">clusterServerID_1f4f60deee3d</text>
</g>
<g id="clust2" class="cluster"><title>clusterServerID_667d78fb58&#45;847xt</title>
<polygon fill="none" stroke="black" points="853,-746 853,-821 1193,-821 1193,-746 853,-746"/>
<text text-anchor="middle" x="1023" y="-805.8" font-family="Times,serif" font-size="14.00">clusterServerID_667d78fb58&#45;847xt</text>
</g>
<g id="clust3" class="cluster"><title>clusterServerID_6dcbcc88d5&#45;mp48t</title>
<polygon fill="none" stroke="black" points="5121,-530 5121,-605 5469,-605 5469,-530 5121,-530"/>
<text text-anchor="middle" x="5295" y="-589.8" font-family="Times,serif" font-size="14.00">clusterServerID_6dcbcc88d5&#45;mp48t</text>
</g>
<g id="clust4" class="cluster"><title>clusterServerID_OuterContainerID</title>
<polygon fill="none" stroke="black" points="8,-530 8,-713 4044,-713 4044,-530 8,-530"/>
<text text-anchor="middle" x="2026" y="-697.8" font-family="Times,serif" font-size="14.00">clusterServerID_OuterContainerID</text>
</g>
<g id="clust5" class="cluster"><title>clusterServerID_e47e2b15aff4</title>
<polygon fill="none" stroke="black" points="5477,-530 5477,-821 6838,-821 6838,-530 5477,-530"/>
<text text-anchor="middle" x="6157.5" y="-805.8" font-family="Times,serif" font-size="14.00">clusterServerID_e47e2b15aff4</text>
</g>
<!-- 1_fwatchdog#ServerID_667d78fb58&#45;847xt -->
<g id="node1" class="node"><title>1_fwatchdog#ServerID_667d78fb58&#45;847xt</title>
<polygon fill="none" stroke="black" points="1185,-790 861,-790 861,-754 1185,-754 1185,-790"/>
<text text-anchor="middle" x="1023" y="-768.3" font-family="Times,serif" font-size="14.00">1_fwatchdog#ServerID_667d78fb58&#45;847xt</text>
</g>
<!-- 10.1.80.183:34912#ServerID_OuterContainerID -->
<g id="node2" class="node"><title>10.1.80.183:34912#ServerID_OuterContainerID</title>
<polygon fill="none" stroke="black" points="1024,-682 688.515,-664 1024,-646 1359.48,-664 1024,-682"/>
<text text-anchor="middle" x="1024" y="-660.3" font-family="Times,serif" font-size="14.00">10.1.80.183:34912#ServerID_OuterContainerID</text>
</g>
<!-- 1_fwatchdog#ServerID_667d78fb58&#45;847xt&#45;&gt;10.1.80.183:34912#ServerID_OuterContainerID -->
<g id="edge1" class="edge"><title>1_fwatchdog#ServerID_667d78fb58&#45;847xt&#45;&gt;10.1.80.183:34912#ServerID_OuterContainerID</title>
<path fill="none" stroke="black" d="M1028.96,-753.759C1030.61,-748.165 1032.18,-741.883 1033,-736 1035.04,-721.436 1033.27,-705.162 1030.78,-691.873"/>
<polygon fill="black" stroke="black" points="1034.17,-691.006 1028.68,-681.944 1027.32,-692.452 1034.17,-691.006"/>
<text text-anchor="middle" x="1076" y="-724.8" font-family="Times,serif" font-size="14.00">RESPONSE</text>
</g>
<!-- 10.1.80.183:34912#ServerID_OuterContainerID&#45;&gt;1_fwatchdog#ServerID_667d78fb58&#45;847xt -->
<g id="edge4" class="edge"><title>10.1.80.183:34912#ServerID_OuterContainerID&#45;&gt;1_fwatchdog#ServerID_667d78fb58&#45;847xt</title>
<path fill="none" stroke="black" d="M1010.26,-681.449C1002.35,-692.019 993.172,-706.453 989,-721 987.162,-727.408 986.493,-729.822 989,-736 990.421,-739.503 992.38,-742.848 994.646,-745.984"/>
<polygon fill="black" stroke="black" points="992.081,-748.372 1001.2,-753.762 997.433,-743.86 992.081,-748.372"/>
<text text-anchor="middle" x="1009" y="-724.8" font-family="Times,serif" font-size="14.00">POST</text>
</g>
<!-- 1_fwatchdog#ServerID_1f4f60deee3d -->
<g id="node14" class="node"><title>1_fwatchdog#ServerID_1f4f60deee3d</title>
<polygon fill="none" stroke="black" points="4487,-574 4197,-574 4197,-538 4487,-538 4487,-574"/>
<text text-anchor="middle" x="4342" y="-552.3" font-family="Times,serif" font-size="14.00">1_fwatchdog#ServerID_1f4f60deee3d</text>
</g>
<!-- 10.1.80.183:34912#ServerID_OuterContainerID&#45;&gt;1_fwatchdog#ServerID_1f4f60deee3d -->
<g id="edge18" class="edge"><title>10.1.80.183:34912#ServerID_OuterContainerID&#45;&gt;1_fwatchdog#ServerID_1f4f60deee3d</title>
<path fill="none" stroke="black" d="M1163.27,-653.442C1346.69,-641.346 1679.35,-621.112 1964,-613 2079.73,-609.702 3932.62,-614.58 4048,-605 4116.09,-599.347 4192.2,-586.746 4249.91,-575.873"/>
<polygon fill="black" stroke="black" points="4250.57,-579.311 4259.74,-574.005 4249.26,-572.434 4250.57,-579.311"/>
<text text-anchor="middle" x="1980.5" y="-616.8" font-family="Times,serif" font-size="14.00">read</text>
</g>
<!-- 1_fwatchdog#ServerID_6dcbcc88d5&#45;mp48t -->
<g id="node3" class="node"><title>1_fwatchdog#ServerID_6dcbcc88d5&#45;mp48t</title>
<polygon fill="none" stroke="black" points="5460.5,-574 5129.5,-574 5129.5,-538 5460.5,-538 5460.5,-574"/>
<text text-anchor="middle" x="5295" y="-552.3" font-family="Times,serif" font-size="14.00">1_fwatchdog#ServerID_6dcbcc88d5&#45;mp48t</text>
</g>
<!-- gateway:8080#ServerID_OuterContainerID -->
<g id="node4" class="node"><title>gateway:8080#ServerID_OuterContainerID</title>
<polygon fill="none" stroke="black" points="2371,-682 2066.52,-664 2371,-646 2675.48,-664 2371,-682"/>
<text text-anchor="middle" x="2371" y="-660.3" font-family="Times,serif" font-size="14.00">gateway:8080#ServerID_OuterContainerID</text>
</g>
<!-- 1_fwatchdog#ServerID_6dcbcc88d5&#45;mp48t&#45;&gt;gateway:8080#ServerID_OuterContainerID -->
<g id="edge2" class="edge"><title>1_fwatchdog#ServerID_6dcbcc88d5&#45;mp48t&#45;&gt;gateway:8080#ServerID_OuterContainerID</title>
<path fill="none" stroke="black" d="M5245.45,-574.067C5210.13,-585.316 5161.25,-599.033 5117,-605 5023.24,-617.645 3508.58,-610.641 3414,-613 3089.33,-621.098 3008.37,-629.86 2684,-646 2633.53,-648.511 2578.5,-651.437 2528.85,-654.147"/>
<polygon fill="black" stroke="black" points="2528.46,-650.663 2518.67,-654.703 2528.84,-657.652 2528.46,-650.663"/>
<text text-anchor="middle" x="3434" y="-616.8" font-family="Times,serif" font-size="14.00">POST</text>
</g>
<!-- 10.1.80.183:8080#ServerID_OuterContainerID -->
<g id="node5" class="node"><title>10.1.80.183:8080#ServerID_OuterContainerID</title>
<polygon fill="none" stroke="black" points="343,-682 15.5599,-664 343,-646 670.44,-664 343,-682"/>
<text text-anchor="middle" x="343" y="-660.3" font-family="Times,serif" font-size="14.00">10.1.80.183:8080#ServerID_OuterContainerID</text>
</g>
<!-- 1_fwatchdog#ServerID_6dcbcc88d5&#45;mp48t&#45;&gt;10.1.80.183:8080#ServerID_OuterContainerID -->
<g id="edge3" class="edge"><title>1_fwatchdog#ServerID_6dcbcc88d5&#45;mp48t&#45;&gt;10.1.80.183:8080#ServerID_OuterContainerID</title>
<path fill="none" stroke="black" d="M5245.46,-574.105C5210.14,-585.371 5161.26,-599.094 5117,-605 5003.84,-620.102 1121.05,-607.777 1007,-613 932.557,-616.409 914.283,-622.049 840,-628 724.131,-637.283 592.956,-646.464 494.473,-653.093"/>
<polygon fill="black" stroke="black" points="494.187,-649.604 484.444,-653.767 494.657,-656.589 494.187,-649.604"/>
<text text-anchor="middle" x="1027" y="-616.8" font-family="Times,serif" font-size="14.00">POST</text>
</g>
<!-- 10.1.80.183:50990#ServerID_OuterContainerID -->
<g id="node6" class="node"><title>10.1.80.183:50990#ServerID_OuterContainerID</title>
<polygon fill="none" stroke="black" points="1713,-682 1377.52,-664 1713,-646 2048.48,-664 1713,-682"/>
<text text-anchor="middle" x="1713" y="-660.3" font-family="Times,serif" font-size="14.00">10.1.80.183:50990#ServerID_OuterContainerID</text>
</g>
<!-- 1_fwatchdog#ServerID_6dcbcc88d5&#45;mp48t&#45;&gt;10.1.80.183:50990#ServerID_OuterContainerID -->
<g id="edge9" class="edge"><title>1_fwatchdog#ServerID_6dcbcc88d5&#45;mp48t&#45;&gt;10.1.80.183:50990#ServerID_OuterContainerID</title>
<path fill="none" stroke="black" d="M5245.46,-574.094C5210.13,-585.355 5161.25,-599.076 5117,-605 5037.16,-615.689 2297.45,-608.908 2217,-613 2078.05,-620.068 1918.32,-637.5 1816.58,-649.785"/>
<polygon fill="black" stroke="black" points="1816.12,-646.315 1806.62,-650.994 1816.96,-653.264 1816.12,-646.315"/>
<text text-anchor="middle" x="2259" y="-616.8" font-family="Times,serif" font-size="14.00">RESPONSE</text>
</g>
<!-- gateway:8080#ServerID_OuterContainerID&#45;&gt;1_fwatchdog#ServerID_6dcbcc88d5&#45;mp48t -->
<g id="edge6" class="edge"><title>gateway:8080#ServerID_OuterContainerID&#45;&gt;1_fwatchdog#ServerID_6dcbcc88d5&#45;mp48t</title>
<path fill="none" stroke="black" d="M2469.24,-651.785C2582,-639.504 2772.56,-620.552 2937,-613 2997.49,-610.222 5056.98,-613.062 5117,-605 5157.28,-599.59 5201.39,-587.739 5235.62,-577.167"/>
<polygon fill="black" stroke="black" points="5236.96,-580.414 5245.45,-574.081 5234.87,-573.735 5236.96,-580.414"/>
<text text-anchor="middle" x="2979" y="-616.8" font-family="Times,serif" font-size="14.00">RESPONSE</text>
</g>
<!-- 10.1.80.183:8080#ServerID_OuterContainerID&#45;&gt;1_fwatchdog#ServerID_6dcbcc88d5&#45;mp48t -->
<g id="edge7" class="edge"><title>10.1.80.183:8080#ServerID_OuterContainerID&#45;&gt;1_fwatchdog#ServerID_6dcbcc88d5&#45;mp48t</title>
<path fill="none" stroke="black" d="M501.137,-654.666C557.575,-651.786 621.624,-648.626 680,-646 1051.03,-629.311 1143.68,-620.747 1515,-613 1565.02,-611.956 5067.41,-611.625 5117,-605 5157.28,-599.619 5201.39,-587.768 5235.62,-577.189"/>
<polygon fill="black" stroke="black" points="5236.97,-580.436 5245.46,-574.101 5234.87,-573.757 5236.97,-580.436"/>
<text text-anchor="middle" x="1557" y="-616.8" font-family="Times,serif" font-size="14.00">RESPONSE</text>
</g>
<!-- 10.1.80.1:10003#ServerID_OuterContainerID -->
<g id="node25" class="node"><title>10.1.80.1:10003#ServerID_OuterContainerID</title>
<polygon fill="none" stroke="black" points="1023,-574 704.105,-556 1023,-538 1341.9,-556 1023,-574"/>
<text text-anchor="middle" x="1023" y="-552.3" font-family="Times,serif" font-size="14.00">10.1.80.1:10003#ServerID_OuterContainerID</text>
</g>
<!-- 10.1.80.183:8080#ServerID_OuterContainerID&#45;&gt;10.1.80.1:10003#ServerID_OuterContainerID -->
<g id="edge33" class="edge"><title>10.1.80.183:8080#ServerID_OuterContainerID&#45;&gt;10.1.80.1:10003#ServerID_OuterContainerID</title>
<path fill="none" stroke="black" d="M413.82,-649.831C472.239,-639.189 557.347,-624.192 632,-613 659.913,-608.815 667.035,-608.821 695,-605 774.864,-594.087 865.519,-580.747 931.252,-570.903"/>
<polygon fill="black" stroke="black" points="931.803,-574.359 941.173,-569.415 930.765,-567.437 931.803,-574.359"/>
<text text-anchor="middle" x="674" y="-616.8" font-family="Times,serif" font-size="14.00">RESPONSE</text>
</g>
<!-- 10.0.88.125:31112#ServerID_OuterContainerID -->
<g id="node26" class="node"><title>10.0.88.125:31112#ServerID_OuterContainerID</title>
<polygon fill="none" stroke="black" points="351,-574 15.5152,-556 351,-538 686.485,-556 351,-574"/>
<text text-anchor="middle" x="351" y="-552.3" font-family="Times,serif" font-size="14.00">10.0.88.125:31112#ServerID_OuterContainerID</text>
</g>
<!-- 10.1.80.183:8080#ServerID_OuterContainerID&#45;&gt;10.0.88.125:31112#ServerID_OuterContainerID -->
<g id="edge34" class="edge"><title>10.1.80.183:8080#ServerID_OuterContainerID&#45;&gt;10.0.88.125:31112#ServerID_OuterContainerID</title>
<path fill="none" stroke="black" d="M344.285,-645.969C345.545,-629.279 347.485,-603.579 348.956,-584.084"/>
<polygon fill="black" stroke="black" points="352.455,-584.224 349.718,-573.988 345.475,-583.697 352.455,-584.224"/>
<text text-anchor="middle" x="389" y="-616.8" font-family="Times,serif" font-size="14.00">RESPONSE</text>
</g>
<!-- 10.1.80.183:50990#ServerID_OuterContainerID&#45;&gt;1_fwatchdog#ServerID_6dcbcc88d5&#45;mp48t -->
<g id="edge5" class="edge"><title>10.1.80.183:50990#ServerID_OuterContainerID&#45;&gt;1_fwatchdog#ServerID_6dcbcc88d5&#45;mp48t</title>
<path fill="none" stroke="black" d="M1853.92,-653.525C2041.3,-641.418 2382.86,-621.066 2675,-613 2742.81,-611.128 5049.77,-614.018 5117,-605 5157.28,-599.598 5201.39,-587.747 5235.62,-577.173"/>
<polygon fill="black" stroke="black" points="5236.96,-580.42 5245.46,-574.087 5234.87,-573.741 5236.96,-580.42"/>
<text text-anchor="middle" x="2695" y="-616.8" font-family="Times,serif" font-size="14.00">POST</text>
</g>
<!-- 1_fwatchdog#ServerID_e47e2b15aff4 -->
<g id="node9" class="node"><title>1_fwatchdog#ServerID_e47e2b15aff4</title>
<polygon fill="none" stroke="black" points="5775,-790 5485,-790 5485,-754 5775,-754 5775,-790"/>
<text text-anchor="middle" x="5630" y="-768.3" font-family="Times,serif" font-size="14.00">1_fwatchdog#ServerID_e47e2b15aff4</text>
</g>
<!-- 10.1.80.183:50990#ServerID_OuterContainerID&#45;&gt;1_fwatchdog#ServerID_e47e2b15aff4 -->
<g id="edge11" class="edge"><title>10.1.80.183:50990#ServerID_OuterContainerID&#45;&gt;1_fwatchdog#ServerID_e47e2b15aff4</title>
<path fill="none" stroke="black" d="M1787.42,-678.03C1857.1,-689.593 1964.25,-705.744 2058,-713 2736.72,-765.529 4877.92,-770.618 5474.41,-771.002"/>
<polygon fill="black" stroke="black" points="5474.79,-774.502 5484.79,-771.009 5474.79,-767.502 5474.79,-774.502"/>
<text text-anchor="middle" x="2511.5" y="-724.8" font-family="Times,serif" font-size="14.00">read</text>
</g>
<!-- localhost:3000#ServerID_e47e2b15aff4 -->
<g id="node7" class="node"><title>localhost:3000#ServerID_e47e2b15aff4</title>
<polygon fill="none" stroke="black" points="5764,-682 5484.65,-664 5764,-646 6043.35,-664 5764,-682"/>
<text text-anchor="middle" x="5764" y="-660.3" font-family="Times,serif" font-size="14.00">localhost:3000#ServerID_e47e2b15aff4</text>
</g>
<!-- 9_node#ServerID_e47e2b15aff4 -->
<g id="node8" class="node"><title>9_node#ServerID_e47e2b15aff4</title>
<polygon fill="none" stroke="black" points="5773,-574 5523,-574 5523,-538 5773,-538 5773,-574"/>
<text text-anchor="middle" x="5648" y="-552.3" font-family="Times,serif" font-size="14.00">9_node#ServerID_e47e2b15aff4</text>
</g>
<!-- localhost:3000#ServerID_e47e2b15aff4&#45;&gt;9_node#ServerID_e47e2b15aff4 -->
<g id="edge8" class="edge"><title>localhost:3000#ServerID_e47e2b15aff4&#45;&gt;9_node#ServerID_e47e2b15aff4</title>
<path fill="none" stroke="black" d="M5746.38,-646.901C5727.22,-629.39 5696.38,-601.21 5674.34,-581.068"/>
<polygon fill="black" stroke="black" points="5676.69,-578.471 5666.94,-574.309 5671.96,-583.639 5676.69,-578.471"/>
<text text-anchor="middle" x="5739.5" y="-616.8" font-family="Times,serif" font-size="14.00">read</text>
</g>
<!-- 9_node#ServerID_e47e2b15aff4&#45;&gt;gateway:8080#ServerID_OuterContainerID -->
<g id="edge17" class="edge"><title>9_node#ServerID_e47e2b15aff4&#45;&gt;gateway:8080#ServerID_OuterContainerID</title>
<path fill="none" stroke="black" d="M5599.31,-574.061C5564.59,-585.307 5516.54,-599.023 5473,-605 5387.63,-616.719 4008.15,-611.397 3922,-613 3713.93,-616.87 3662.03,-622.235 3454,-628 3111.82,-637.483 3026.06,-632.716 2684,-646 2631.49,-648.039 2574.06,-650.959 2522.89,-653.804"/>
<polygon fill="black" stroke="black" points="2522.54,-650.319 2512.75,-654.372 2522.93,-657.308 2522.54,-650.319"/>
<text text-anchor="middle" x="3951" y="-616.8" font-family="Times,serif" font-size="14.00">connect</text>
</g>
<!-- 10.152.183.10:53#ServerID_OuterContainerID -->
<g id="node11" class="node"><title>10.152.183.10:53#ServerID_OuterContainerID</title>
<polygon fill="none" stroke="black" points="3020,-682 2692.56,-664 3020,-646 3347.44,-664 3020,-682"/>
<text text-anchor="middle" x="3020" y="-660.3" font-family="Times,serif" font-size="14.00">10.152.183.10:53#ServerID_OuterContainerID</text>
</g>
<!-- 9_node#ServerID_e47e2b15aff4&#45;&gt;10.152.183.10:53#ServerID_OuterContainerID -->
<g id="edge13" class="edge"><title>9_node#ServerID_e47e2b15aff4&#45;&gt;10.152.183.10:53#ServerID_OuterContainerID</title>
<path fill="none" stroke="black" d="M5598.92,-574.052C5564.22,-585.216 5516.35,-598.837 5473,-605 5413.15,-613.508 4989.44,-611.921 4929,-613 4230.29,-625.471 4055.38,-621.06 3357,-646 3300.23,-648.027 3238.12,-650.958 3182.86,-653.816"/>
<polygon fill="black" stroke="black" points="3182.43,-650.334 3172.62,-654.349 3182.79,-657.324 3182.43,-650.334"/>
<text text-anchor="middle" x="4953.5" y="-616.8" font-family="Times,serif" font-size="14.00">sendto</text>
</g>
<!-- 1_fwatchdog#ServerID_e47e2b15aff4&#45;&gt;localhost:3000#ServerID_e47e2b15aff4 -->
<g id="edge10" class="edge"><title>1_fwatchdog#ServerID_e47e2b15aff4&#45;&gt;localhost:3000#ServerID_e47e2b15aff4</title>
<path fill="none" stroke="black" d="M5651.53,-753.969C5674.39,-735.882 5710.64,-707.213 5735.78,-687.327"/>
<polygon fill="black" stroke="black" points="5738.17,-689.897 5743.84,-680.948 5733.82,-684.407 5738.17,-689.897"/>
<text text-anchor="middle" x="5711" y="-724.8" font-family="Times,serif" font-size="14.00">write</text>
</g>
<!-- /etc/hosts#ServerID_e47e2b15aff4 -->
<g id="node10" class="node"><title>/etc/hosts#ServerID_e47e2b15aff4</title>
<ellipse fill="none" stroke="black" cx="6655" cy="-664" rx="174.669" ry="18"/>
<text text-anchor="middle" x="6655" y="-660.3" font-family="Times,serif" font-size="14.00">/etc/hosts#ServerID_e47e2b15aff4</text>
</g>
<!-- /etc/hosts#ServerID_e47e2b15aff4&#45;&gt;9_node#ServerID_e47e2b15aff4 -->
<g id="edge12" class="edge"><title>/etc/hosts#ServerID_e47e2b15aff4&#45;&gt;9_node#ServerID_e47e2b15aff4</title>
<path fill="none" stroke="black" d="M6537.51,-650.633C6349.47,-630.839 5981.9,-592.147 5783.21,-571.233"/>
<polygon fill="black" stroke="black" points="5783.31,-567.724 5773,-570.158 5782.58,-574.686 5783.31,-567.724"/>
<text text-anchor="middle" x="6316.5" y="-616.8" font-family="Times,serif" font-size="14.00">read</text>
</g>
<!-- 10.152.183.10:53#ServerID_OuterContainerID&#45;&gt;9_node#ServerID_e47e2b15aff4 -->
<g id="edge15" class="edge"><title>10.152.183.10:53#ServerID_OuterContainerID&#45;&gt;9_node#ServerID_e47e2b15aff4</title>
<path fill="none" stroke="black" d="M3169.67,-654.185C3228.1,-651.076 3295.67,-647.887 3357,-646 4077.15,-623.846 4257.81,-648.724 4978,-628 5198.15,-621.665 5255.47,-639.45 5473,-605 5511.8,-598.855 5554.32,-587.309 5587.73,-577.08"/>
<polygon fill="black" stroke="black" points="5588.83,-580.403 5597.35,-574.096 5586.76,-573.718 5588.83,-580.403"/>
<text text-anchor="middle" x="5446" y="-616.8" font-family="Times,serif" font-size="14.00">recvfrom</text>
</g>
<!-- /etc/resolv.conf#ServerID_e47e2b15aff4 -->
<g id="node12" class="node"><title>/etc/resolv.conf#ServerID_e47e2b15aff4</title>
<ellipse fill="none" stroke="black" cx="6262" cy="-664" rx="200.365" ry="18"/>
<text text-anchor="middle" x="6262" y="-660.3" font-family="Times,serif" font-size="14.00">/etc/resolv.conf#ServerID_e47e2b15aff4</text>
</g>
<!-- /etc/resolv.conf#ServerID_e47e2b15aff4&#45;&gt;9_node#ServerID_e47e2b15aff4 -->
<g id="edge14" class="edge"><title>/etc/resolv.conf#ServerID_e47e2b15aff4&#45;&gt;9_node#ServerID_e47e2b15aff4</title>
<path fill="none" stroke="black" d="M6174.03,-647.813C6063.89,-628.798 5875.26,-596.233 5756.34,-575.703"/>
<polygon fill="black" stroke="black" points="5756.93,-572.253 5746.48,-574.001 5755.74,-579.151 5756.93,-572.253"/>
<text text-anchor="middle" x="6061.5" y="-616.8" font-family="Times,serif" font-size="14.00">read</text>
</g>
<!-- 10.1.80.183:51040#ServerID_OuterContainerID -->
<g id="node13" class="node"><title>10.1.80.183:51040#ServerID_OuterContainerID</title>
<polygon fill="none" stroke="black" points="3701,-682 3365.52,-664 3701,-646 4036.48,-664 3701,-682"/>
<text text-anchor="middle" x="3701" y="-660.3" font-family="Times,serif" font-size="14.00">10.1.80.183:51040#ServerID_OuterContainerID</text>
</g>
<!-- 10.1.80.183:51040#ServerID_OuterContainerID&#45;&gt;1_fwatchdog#ServerID_e47e2b15aff4 -->
<g id="edge16" class="edge"><title>10.1.80.183:51040#ServerID_OuterContainerID&#45;&gt;1_fwatchdog#ServerID_e47e2b15aff4</title>
<path fill="none" stroke="black" d="M3857.63,-673.607C4220.12,-693.526 5113.33,-742.609 5474.61,-762.461"/>
<polygon fill="black" stroke="black" points="5474.44,-765.957 5484.62,-763.011 5474.82,-758.968 5474.44,-765.957"/>
<text text-anchor="middle" x="4967.5" y="-724.8" font-family="Times,serif" font-size="14.00">read</text>
</g>
<!-- localhost:3000#ServerID_1f4f60deee3d -->
<g id="node15" class="node"><title>localhost:3000#ServerID_1f4f60deee3d</title>
<polygon fill="none" stroke="black" points="4342,-487 4062.65,-469 4342,-451 4621.35,-469 4342,-487"/>
<text text-anchor="middle" x="4342" y="-465.3" font-family="Times,serif" font-size="14.00">localhost:3000#ServerID_1f4f60deee3d</text>
</g>
<!-- 1_fwatchdog#ServerID_1f4f60deee3d&#45;&gt;localhost:3000#ServerID_1f4f60deee3d -->
<g id="edge19" class="edge"><title>1_fwatchdog#ServerID_1f4f60deee3d&#45;&gt;localhost:3000#ServerID_1f4f60deee3d</title>
<path fill="none" stroke="black" d="M4323.04,-537.736C4318.56,-532.523 4314.39,-526.455 4312,-520 4308.66,-510.98 4311.93,-501.769 4317.37,-493.751"/>
<polygon fill="black" stroke="black" points="4320.14,-495.89 4323.63,-485.885 4314.66,-491.531 4320.14,-495.89"/>
<text text-anchor="middle" x="4331" y="-508.8" font-family="Times,serif" font-size="14.00">write</text>
</g>
<!-- pipe:[77303348]#ServerID_1f4f60deee3d -->
<g id="node24" class="node"><title>pipe:[77303348]#ServerID_1f4f60deee3d</title>
<ellipse fill="none" stroke="black" cx="4845" cy="-469" rx="206.063" ry="18"/>
<text text-anchor="middle" x="4845" y="-465.3" font-family="Times,serif" font-size="14.00">pipe:[77303348]#ServerID_1f4f60deee3d</text>
</g>
<!-- 1_fwatchdog#ServerID_1f4f60deee3d&#45;&gt;pipe:[77303348]#ServerID_1f4f60deee3d -->
<g id="edge31" class="edge"><title>1_fwatchdog#ServerID_1f4f60deee3d&#45;&gt;pipe:[77303348]#ServerID_1f4f60deee3d</title>
<path fill="none" stroke="black" d="M4442.88,-537.952C4530.7,-523.113 4657.3,-501.719 4744.89,-486.918"/>
<polygon fill="black" stroke="black" points="4745.56,-490.354 4754.83,-485.237 4744.39,-483.452 4745.56,-490.354"/>
<text text-anchor="middle" x="4643" y="-508.8" font-family="Times,serif" font-size="14.00">write</text>
</g>
<!-- localhost:3000#ServerID_1f4f60deee3d&#45;&gt;1_fwatchdog#ServerID_1f4f60deee3d -->
<g id="edge30" class="edge"><title>localhost:3000#ServerID_1f4f60deee3d&#45;&gt;1_fwatchdog#ServerID_1f4f60deee3d</title>
<path fill="none" stroke="black" d="M4347.05,-487.071C4349.32,-496.709 4351.24,-508.993 4350,-520 4349.71,-522.547 4349.31,-525.179 4348.84,-527.803"/>
<polygon fill="black" stroke="black" points="4345.39,-527.18 4346.77,-537.686 4352.25,-528.617 4345.39,-527.18"/>
<text text-anchor="middle" x="4367.5" y="-508.8" font-family="Times,serif" font-size="14.00">read</text>
</g>
<!-- 10_node#ServerID_1f4f60deee3d -->
<g id="node16" class="node"><title>10_node#ServerID_1f4f60deee3d</title>
<polygon fill="none" stroke="black" points="4474.5,-400 4215.5,-400 4215.5,-364 4474.5,-364 4474.5,-400"/>
<text text-anchor="middle" x="4345" y="-378.3" font-family="Times,serif" font-size="14.00">10_node#ServerID_1f4f60deee3d</text>
</g>
<!-- localhost:3000#ServerID_1f4f60deee3d&#45;&gt;10_node#ServerID_1f4f60deee3d -->
<g id="edge20" class="edge"><title>localhost:3000#ServerID_1f4f60deee3d&#45;&gt;10_node#ServerID_1f4f60deee3d</title>
<path fill="none" stroke="black" d="M4342.61,-450.799C4343.02,-439.163 4343.57,-423.548 4344.04,-410.237"/>
<polygon fill="black" stroke="black" points="4347.54,-410.293 4344.39,-400.175 4340.54,-410.046 4347.54,-410.293"/>
<text text-anchor="middle" x="4360.5" y="-421.8" font-family="Times,serif" font-size="14.00">read</text>
</g>
<!-- /dev/null#ServerID_1f4f60deee3d -->
<g id="node17" class="node"><title>/dev/null#ServerID_1f4f60deee3d</title>
<ellipse fill="none" stroke="black" cx="4229" cy="-295" rx="168.97" ry="18"/>
<text text-anchor="middle" x="4229" y="-291.3" font-family="Times,serif" font-size="14.00">/dev/null#ServerID_1f4f60deee3d</text>
</g>
<!-- 10_node#ServerID_1f4f60deee3d&#45;&gt;/dev/null#ServerID_1f4f60deee3d -->
<g id="edge29" class="edge"><title>10_node#ServerID_1f4f60deee3d&#45;&gt;/dev/null#ServerID_1f4f60deee3d</title>
<path fill="none" stroke="black" d="M4268.17,-364C4258.81,-359.373 4250.07,-353.488 4243,-346 4237.17,-339.824 4233.73,-331.421 4231.72,-323.268"/>
<polygon fill="black" stroke="black" points="4235.13,-322.45 4229.86,-313.259 4228.25,-323.731 4235.13,-322.45"/>
<text text-anchor="middle" x="4262" y="-334.8" font-family="Times,serif" font-size="14.00">write</text>
</g>
<!-- pipe:[77303632]#ServerID_1f4f60deee3d -->
<g id="node18" class="node"><title>pipe:[77303632]#ServerID_1f4f60deee3d</title>
<ellipse fill="none" stroke="black" cx="4899" cy="-295" rx="206.063" ry="18"/>
<text text-anchor="middle" x="4899" y="-291.3" font-family="Times,serif" font-size="14.00">pipe:[77303632]#ServerID_1f4f60deee3d</text>
</g>
<!-- 10_node#ServerID_1f4f60deee3d&#45;&gt;pipe:[77303632]#ServerID_1f4f60deee3d -->
<g id="edge22" class="edge"><title>10_node#ServerID_1f4f60deee3d&#45;&gt;pipe:[77303632]#ServerID_1f4f60deee3d</title>
<path fill="none" stroke="black" d="M4456.11,-363.952C4553.89,-348.951 4695.32,-327.251 4791.88,-312.435"/>
<polygon fill="black" stroke="black" points="4792.61,-315.865 4801.96,-310.889 4791.55,-308.946 4792.61,-315.865"/>
<text text-anchor="middle" x="4675" y="-334.8" font-family="Times,serif" font-size="14.00">write</text>
</g>
<!-- 93_node#ServerID_1f4f60deee3d -->
<g id="node19" class="node"><title>93_node#ServerID_1f4f60deee3d</title>
<polygon fill="none" stroke="black" points="4674.5,-313 4415.5,-313 4415.5,-277 4674.5,-277 4674.5,-313"/>
<text text-anchor="middle" x="4545" y="-291.3" font-family="Times,serif" font-size="14.00">93_node#ServerID_1f4f60deee3d</text>
</g>
<!-- 10_node#ServerID_1f4f60deee3d&#45;&gt;93_node#ServerID_1f4f60deee3d -->
<g id="edge23" class="edge"><title>10_node#ServerID_1f4f60deee3d&#45;&gt;93_node#ServerID_1f4f60deee3d</title>
<path fill="none" stroke="black" d="M4385.47,-363.799C4417.29,-350.275 4461.76,-331.377 4495.67,-316.967"/>
<polygon fill="black" stroke="black" points="4497.09,-320.163 4504.93,-313.03 4494.36,-313.72 4497.09,-320.163"/>
<text text-anchor="middle" x="4472" y="-334.8" font-family="Times,serif" font-size="14.00">fork</text>
</g>
<!-- /dev/null#ServerID_1f4f60deee3d&#45;&gt;10_node#ServerID_1f4f60deee3d -->
<g id="edge21" class="edge"><title>/dev/null#ServerID_1f4f60deee3d&#45;&gt;10_node#ServerID_1f4f60deee3d</title>
<path fill="none" stroke="black" d="M4257.69,-312.894C4266.61,-318.418 4276.36,-324.747 4285,-331 4296.18,-339.094 4307.95,-348.657 4318.08,-357.24"/>
<polygon fill="black" stroke="black" points="4315.94,-360.014 4325.81,-363.867 4320.5,-354.7 4315.94,-360.014"/>
<text text-anchor="middle" x="4320.5" y="-334.8" font-family="Times,serif" font-size="14.00">read</text>
</g>
<!-- pipe:[77303632]#ServerID_1f4f60deee3d&#45;&gt;10_node#ServerID_1f4f60deee3d -->
<g id="edge24" class="edge"><title>pipe:[77303632]#ServerID_1f4f60deee3d&#45;&gt;10_node#ServerID_1f4f60deee3d</title>
<path fill="none" stroke="black" d="M4842.72,-312.327C4802.67,-323.369 4747.43,-337.448 4698,-346 4628.3,-358.059 4550.09,-366.342 4485.03,-371.811"/>
<polygon fill="black" stroke="black" points="4484.38,-368.352 4474.71,-372.664 4484.96,-375.328 4484.38,-368.352"/>
<text text-anchor="middle" x="4781.5" y="-334.8" font-family="Times,serif" font-size="14.00">read</text>
</g>
<!-- 93_sh#ServerID_1f4f60deee3d -->
<g id="node20" class="node"><title>93_sh#ServerID_1f4f60deee3d</title>
<polygon fill="none" stroke="black" points="4665.5,-226 4424.5,-226 4424.5,-190 4665.5,-190 4665.5,-226"/>
<text text-anchor="middle" x="4545" y="-204.3" font-family="Times,serif" font-size="14.00">93_sh#ServerID_1f4f60deee3d</text>
</g>
<!-- 93_node#ServerID_1f4f60deee3d&#45;&gt;93_sh#ServerID_1f4f60deee3d -->
<g id="edge25" class="edge"><title>93_node#ServerID_1f4f60deee3d&#45;&gt;93_sh#ServerID_1f4f60deee3d</title>
<path fill="none" stroke="black" d="M4545,-276.799C4545,-265.163 4545,-249.548 4545,-236.237"/>
<polygon fill="black" stroke="black" points="4548.5,-236.175 4545,-226.175 4541.5,-236.175 4548.5,-236.175"/>
<text text-anchor="middle" x="4570" y="-247.8" font-family="Times,serif" font-size="14.00">execve</text>
</g>
<!-- 94_sh#ServerID_1f4f60deee3d -->
<g id="node21" class="node"><title>94_sh#ServerID_1f4f60deee3d</title>
<polygon fill="none" stroke="black" points="4566.5,-139 4325.5,-139 4325.5,-103 4566.5,-103 4566.5,-139"/>
<text text-anchor="middle" x="4446" y="-117.3" font-family="Times,serif" font-size="14.00">94_sh#ServerID_1f4f60deee3d</text>
</g>
<!-- 93_sh#ServerID_1f4f60deee3d&#45;&gt;94_sh#ServerID_1f4f60deee3d -->
<g id="edge26" class="edge"><title>93_sh#ServerID_1f4f60deee3d&#45;&gt;94_sh#ServerID_1f4f60deee3d</title>
<path fill="none" stroke="black" d="M4524.97,-189.799C4510.21,-177.126 4489.95,-159.734 4473.65,-145.738"/>
<polygon fill="black" stroke="black" points="4475.87,-143.034 4466,-139.175 4471.31,-148.345 4475.87,-143.034"/>
<text text-anchor="middle" x="4517" y="-160.8" font-family="Times,serif" font-size="14.00">fork</text>
</g>
<!-- /home/app/3.txt#ServerID_1f4f60deee3d -->
<g id="node23" class="node"><title>/home/app/3.txt#ServerID_1f4f60deee3d</title>
<ellipse fill="none" stroke="black" cx="4787" cy="-121" rx="202.264" ry="18"/>
<text text-anchor="middle" x="4787" y="-117.3" font-family="Times,serif" font-size="14.00">/home/app/3.txt#ServerID_1f4f60deee3d</text>
</g>
<!-- 93_sh#ServerID_1f4f60deee3d&#45;&gt;/home/app/3.txt#ServerID_1f4f60deee3d -->
<g id="edge28" class="edge"><title>93_sh#ServerID_1f4f60deee3d&#45;&gt;/home/app/3.txt#ServerID_1f4f60deee3d</title>
<path fill="none" stroke="black" d="M4593.68,-189.901C4633.04,-176.078 4688.52,-156.591 4729.95,-142.037"/>
<polygon fill="black" stroke="black" points="4731.36,-145.253 4739.63,-138.637 4729.04,-138.649 4731.36,-145.253"/>
<text text-anchor="middle" x="4700" y="-160.8" font-family="Times,serif" font-size="14.00">write</text>
</g>
<!-- 94_touch#ServerID_1f4f60deee3d -->
<g id="node22" class="node"><title>94_touch#ServerID_1f4f60deee3d</title>
<polygon fill="none" stroke="black" points="4578.5,-52 4313.5,-52 4313.5,-16 4578.5,-16 4578.5,-52"/>
<text text-anchor="middle" x="4446" y="-30.3" font-family="Times,serif" font-size="14.00">94_touch#ServerID_1f4f60deee3d</text>
</g>
<!-- 94_sh#ServerID_1f4f60deee3d&#45;&gt;94_touch#ServerID_1f4f60deee3d -->
<g id="edge27" class="edge"><title>94_sh#ServerID_1f4f60deee3d&#45;&gt;94_touch#ServerID_1f4f60deee3d</title>
<path fill="none" stroke="black" d="M4446,-102.799C4446,-91.1626 4446,-75.5479 4446,-62.2368"/>
<polygon fill="black" stroke="black" points="4449.5,-62.1754 4446,-52.1754 4442.5,-62.1755 4449.5,-62.1754"/>
<text text-anchor="middle" x="4471" y="-73.8" font-family="Times,serif" font-size="14.00">execve</text>
</g>
<!-- 10.1.80.1:10003#ServerID_OuterContainerID&#45;&gt;10.1.80.183:8080#ServerID_OuterContainerID -->
<g id="edge32" class="edge"><title>10.1.80.1:10003#ServerID_OuterContainerID&#45;&gt;10.1.80.183:8080#ServerID_OuterContainerID</title>
<path fill="none" stroke="black" d="M972.23,-571.159C912.389,-587.319 809.723,-613.394 720,-628 648.261,-639.678 568.16,-647.798 500.305,-653.254"/>
<polygon fill="black" stroke="black" points="499.647,-649.795 489.955,-654.074 500.2,-656.773 499.647,-649.795"/>
<text text-anchor="middle" x="816" y="-616.8" font-family="Times,serif" font-size="14.00">POST</text>
</g>
</g>
</svg>
